<svg viewBox="0 0 800 800" xmlns="http://www.w3.org/2000/svg"><path d="m580.558 277.863 9.796.001v-45.987h-9.794l-36.482-.004v-31.913h-285.958v31.914h-46.276v45.987h29.323v8.561h-29.323v45.98h46.276v254.118c0 29.285 13.21 44.044 24.293 51.267 14.52 9.464 31.238 10.486 37.753 10.486h2.156c15.978 0 40.127 0 56.171 9.973a62.136 62.136 0 0 1 15.063 13.17l7.542 9.104 7.543-9.105a62.14 62.14 0 0 1 15.063-13.169c16.044-9.973 40.193-9.973 56.173-9.973h2.154c6.515 0 23.234-1.022 37.753-10.486 11.083-7.223 24.294-21.982 24.294-51.267v-254.118h46.275v-45.98h-30.496v-8.561l20.7.002z" fill="#cfab4b"/><path d="m250.962 258.095h299.101v46.331h-299.101z" fill="#fff"/><path d="m221.638 241.674h358.921v26.391h-358.921zm0 54.542h358.921v26.391h-358.921z" fill="#3ba0cb"/><path d="m363.125 524.158-29.47-116.512h-10.85l-34.7 116.512h-10.555v18.963h39.293v-18.963h-13.88l5.214-17.79h36.755l4.411 17.79h-13.783v18.963h39.44v-18.963h-11.876zm-50.193-34.21 15.15-51.513 12.464 51.512h-27.613zm197.397 34.21-29.47-116.512h-10.85l-34.7 116.512h-10.556v18.963h39.294v-18.963h-13.88l5.213-17.79h36.755l4.412 17.79h-13.782v18.963h39.44v-18.963zm-50.192-34.21 15.15-51.513 12.463 51.512h-27.613z" fill="#1a3b61"/><path d="m386.437 550.305v-161.72s-53.662-.88-67.738-48.677c0 0 29.905 20.393 67.738 19.06 41.64-1.466 46.77-12.462 67.004-12.462s40.613 12.902 40.613 39.44-22.139 9.09-27.27 5.278c-5.132-3.812-15.59-14.613-29.52-13.88-13.928.734-37.404 11.241-37.404 11.241v59.674h21.325v-21.113h14.809v63.779h-14.809v-22.09h-21.325v81.25c11.135 0 24.478 12.976 27.923 15.468 3.446 2.493 11.583 7.624 16.935 5.058 5.351-2.565 12.462-4.545 13.415 2.493s-8.65 17.667-21.626 17.667-20.417-5.021-27.71-12.315c-7.295-7.295-13.197-10.777-20.527-10.777s-12.39 1.393-18.108 5.132-11.143 2.052-9.676-3.592c1.466-5.645 5.938-11.07 12.902-14.955 6.964-3.886 13.049-3.96 13.049-3.96z" fill="#1a3b61"/><g fill="#cfab4b"><g><path d="m237.971 394.794c-.364 0-.732.178-1.083.528-5.233 5.232-8.688 14.282-10.695 21.077-.264 22.69-5.43 49.033-7.026 56.618.066-.115.115-.23.164-.346 26.551-54.418 22.827-77.879 18.64-77.877zm-26.603 78.223.016-.017c-1.629-7.865-6.96-35.72-6.417-58.954-1.925-6.4-5.133-14.364-10.02-19.25-.346-.346-.715-.521-1.088-.52-4.37 0-9.262 24 17.509 78.74zm383.488-56.618c-.263 22.69-5.43 49.033-7.025 56.618 26.734-54.664 22.994-78.227 18.804-78.225-.364 0-.732.179-1.084.53-5.232 5.232-8.687 14.282-10.695 21.077zm-14.99 56.272c.05.116.1.23.165.346l.017-.017c-1.629-7.865-6.96-35.72-6.417-58.954-1.925-6.4-5.134-14.364-10.02-19.25-.347-.347-.717-.522-1.091-.522-4.367.002-9.235 23.914 17.347 78.397zm-353.672 42.879c-.264 22.673-5.43 49.016-7.026 56.601 26.727-54.635 22.996-78.213 18.807-78.211-.365 0-.734.179-1.086.533-5.233 5.232-8.688 14.265-10.695 21.077zm-14.825 56.601.016-.017c-1.629-7.848-6.96-35.704-6.417-58.954-1.925-6.383-5.133-14.364-10.02-19.25-.345-.346-.714-.52-1.087-.52-4.371 0-9.265 24.012 17.508 78.74zm26.805 12.89c-.52 0-.946.32-1.236.931-3.16 6.697-3.373 16.355-2.978 23.447 7.19 20.83 11.156 46.498 12.357 54.972v.017c.033.131.082.246.115.378 6.495-58.34-4.008-79.745-8.258-79.745zm.887 82.657c-4.163-6.861-18.577-31.278-25.882-53.36-3.966-5.363-9.659-11.797-15.895-14.742a1.833 1.833 0 0 0 -.782-.196c-4.725.003-2.469 24.43 42.559 68.315zm42.516 7.618c21.258 7.915 44.31 21.67 50.908 25.734-34.884-35.88-56.927-45.252-64.443-45.251-2.417 0-3.333.97-2.688 2.34 3.159 6.696 10.497 12.998 16.223 17.177zm-9.395 19.185a80.671 80.671 0 0 0 -4.174-.11c-5.811 0-12.307.68-17.315 3.04-4.578 2.154 7.173 12.88 47.117 12.88 9.151 0 19.79-.564 32.043-1.923 0 0 0-.016-.017-.016-7.93-1.119-35.951-5.496-57.654-13.87zm194.945 6.549c6.598-4.064 29.65-17.82 50.908-25.734 5.726-4.18 13.064-10.48 16.223-17.178.645-1.37-.27-2.34-2.69-2.34-7.522.001-29.572 9.375-64.441 45.252zm81.791-3.62c-5.008-2.359-11.503-3.04-17.315-3.04-1.444 0-2.847.042-4.173.111-21.703 8.375-49.724 12.752-57.67 13.871v.017c12.253 1.359 22.883 1.922 32.036 1.922 39.931 0 51.7-10.726 47.122-12.88zm11.485-112.387c-4.257.002-14.799 21.466-8.243 80.039 1.053-7.667 5.051-34.224 12.439-55.663.411-7.092.197-16.75-2.962-23.447-.29-.61-.715-.929-1.234-.929zm41.672 14.357a1.84 1.84 0 0 0 -.784.196c-6.236 2.945-11.946 9.379-15.895 14.742-7.322 22.082-21.719 46.499-25.898 53.36l.017.016.098-.098c44.934-43.838 47.187-68.218 42.462-68.217zm-7.218-83.85c-.263 22.673-5.43 49.016-7.025 56.601 26.727-54.635 22.996-78.213 18.807-78.211-.365 0-.734.179-1.087.533-5.232 5.232-8.687 14.265-10.695 21.077zm-21.225-2.37c-1.925-6.383-5.134-14.364-10.02-19.25-.346-.346-.715-.52-1.088-.52-4.37 0-9.265 24.012 17.508 78.741l.017-.016c-1.629-7.849-6.96-35.705-6.417-58.955z"/><path d="m589.706 591.649c-.131-4.97-.707-8.408-1.76-10.383.033-.098.066-.18.082-.28 0 0 .148-3.636-.378-7.946.049-.264.115-.56.18-.889 1.597-7.585 6.763-33.928 7.026-56.601.099-9.642-.658-18.626-2.994-25.19-1.596-4.493-3.143-7.487-4.69-9.034.165-1.777.313-4.031.247-6.368.066-.296.214-.987.411-1.941 1.597-7.585 6.763-33.928 7.026-56.618.099-9.625-.658-18.609-2.994-25.174-2.44-6.876-4.781-10.298-7.172-10.298-2.397 0-4.844 3.443-7.489 10.298-2.353 6.104-3.373 14.134-3.57 22.821-.543 23.233 4.788 51.09 6.417 58.954l-.017.017a3.298 3.298 0 0 1 -.164-.346 6.36 6.36 0 0 0 .016.971c.445 4.558.395 8.276.33 10.284-.971 1.629-1.975 3.768-3.012 6.433-2.353 6.105-3.373 14.134-3.57 22.821-.543 23.25 4.788 51.106 6.417 58.955l-.017.016a99.964 99.964 0 0 1 1.004 5.216 89.39 89.39 0 0 1 .477 3.587c-1.612 1.234-3.471 3.142-5.61 5.758-4.41 5.414-8.162 13.591-11.304 22.707-7.388 21.439-11.386 47.996-12.44 55.663-.18 1.398-.28 2.205-.28 2.205v.033a13.994 13.994 0 0 1 -1.924 2.83c-1.807-.346-4.063-.512-6.826-.512-.131 0-.264 0-.397.002-6.96.016-15.664 2.32-24.698 5.676-21.258 7.914-44.31 21.67-50.908 25.734-.543.33-1.003.609-1.316.806-2.073-1.777-5.397-3.916-10.415-5.38 10.99-10.991 12.011-22.279 12.011-22.279-11.435 4.69-33.121 8.655-43.537 14.957-10.415 6.318-16.42 17.737-16.42 17.737h-15.008s-5.989-11.419-16.404-17.737c-10.415-6.302-32.101-10.267-43.553-14.957 0 0 1.02 11.288 12.028 22.279-5.134 1.497-8.474 3.686-10.547 5.495-.313-.197-.807-.51-1.481-.921-6.598-4.064-29.65-17.82-50.908-25.734-9.033-3.356-17.737-5.66-24.714-5.676l-.377-.001c-2.869 0-5.181.181-7.01.544-1.251-1.35-2.436-3.11-3.044-5.397-.033-.132-.083-.247-.116-.379v-.016c-1.2-8.474-5.166-34.142-12.356-54.972-3.143-9.116-6.878-17.293-11.288-22.707-1.892-2.32-3.554-4.064-5.035-5.298a72.766 72.766 0 0 1 1.02-6.993l.05-.098s.18-.79.46-2.172c1.597-7.585 6.763-33.928 7.026-56.601.116-9.642-.658-18.626-2.994-25.191-1.432-4.064-2.847-6.878-4.245-8.54a84.113 84.113 0 0 1 .362-8.374c.033-.28.016-.527.016-.774-.05.115-.099.23-.164.346 1.596-7.585 6.762-33.928 7.025-56.618.116-9.625-.658-18.61-2.994-25.174-2.432-6.876-4.773-10.298-7.165-10.298-2.4 0-4.851 3.443-7.496 10.298-2.352 6.104-3.373 14.134-3.57 22.821-.543 23.233 4.788 51.09 6.417 58.954.197.938.329 1.596.411 1.925-.082 3.11.198 6.072.445 7.931-1.202 1.711-2.42 4.212-3.703 7.503-2.352 6.104-3.373 14.134-3.57 22.821-.543 23.25 4.788 51.106 6.417 58.954.05.296.115.576.165.807-.428 3.488-.412 6.499-.379 7.486-1.415 1.744-2.155 5.446-2.303 11.222-.165 6.532 1.579 14.446 4.31 22.69 7.306 22.08 21.72 46.498 25.882 53.359v.016c.576.905.955 1.53 1.103 1.76.016.034.033.05.049.083 0 .017.017.017.017.033 1.266 2.189 2.961 3.867 4.491 5.068.527 2.172 2.913 5.068 7.19 8.77 4.953 4.278 12.177 7.947 20.272 11.073 21.702 8.375 49.723 12.752 57.654 13.87 1.415.198 2.221.313 2.221.313a.65.65 0 0 0 .116.01c.462 0 .958-.443 1.398-1.096 2.682 1.975 8.227 4.838 19.58 7.503-11.732 4.393-23.447 14.085-25.503 20.238 2.262.489 5.374.775 9.007.775 11.662 0 28.667-2.952 39.959-11.634-10.925 10.925-14.66 22.147-14.66 25.52h11.731c1.794-6.516 11.452-31.674 26.26-34.635 14.825 2.961 24.484 28.119 26.277 34.635h11.732c0-3.373-3.735-14.595-14.66-25.52 11.292 8.683 28.296 11.634 39.96 11.634 3.63 0 6.744-.286 9.006-.775-2.057-6.153-13.788-15.845-25.52-20.238 11.107-2.616 16.652-5.397 19.4-7.355.404.57.864.949 1.291.949a.705.705 0 0 0 .123-.01s.807-.116 2.205-.313c7.947-1.12 35.968-5.496 57.67-13.87 8.096-3.127 15.32-6.796 20.255-11.074 4.393-3.785 6.78-6.73 7.224-8.918 1.415-1.168 2.928-2.731 4.064-4.722a5.014 5.014 0 0 0 .641-2.172l-.098.098-.017-.016c4.18-6.861 18.576-31.279 25.898-53.36 2.715-8.243 4.476-16.157 4.311-22.69z"/></g><path d="m549.304 161.5-10.102-31.09 26.447-19.216h-32.69l-10.102-31.09-10.103 31.09h-32.69l26.447 19.215-10.102 31.091 26.447-19.215zm-113.289-.62-13.761-42.352 36.027-26.176h-44.531l-13.762-42.352-13.761 42.352h-44.532l36.027 26.176-13.761 42.352 36.027-26.175zm-132.448.62-10.102-31.09 26.447-19.216h-32.69l-10.103-31.09-10.102 31.09h-32.69l26.447 19.215-10.102 31.091 26.447-19.215z"/></g></svg>