<svg xmlns="http://www.w3.org/2000/svg" viewBox="0.15 0.3 284.7 349.26"><defs><clipPath id="a"><path d="M0 800h800V0H0z"/></clipPath></defs><g fill="#0f0"><g clip-path="url(#a)" transform="matrix(.97731 0 0 -.95646 -17.885 561.632)"><path d="M51 558.275v28.607h226.368v-28.607h32.337V373.574s3.213-50.788-36.276-95.562c0 0-40.423-47.885-110.386-56.282 0 0-58.768 5.908-103.544 51.306 0 0-39.489 35.447-41.044 99.503v185.632z" fill="#d3aa75"/><path d="M164.112 560.97H57.634v19.279h106.478z" fill="#ffce00"/><path d="M270.629 560.97h-43.221v19.279h43.221z" fill="#e5073a"/></g><path d="M152.995 6.352v18.44h41.431V6.353zM6.922 34.012v173.396c2.126 63.052 48.624 97.85 48.624 97.85 44.064 34.5 87 37.178 87 37.178 58.436-7.137 94.124-43.422 94.124-43.422 46.497-45.209 41.331-95.175 41.331-95.175V34.012zm31.604 22.902l65.34 30.335v46.102l21.273 10.409V87.25h37.986v17.846h-19.144v47.586l4.86 2.082 23.1-11.303v19.929l-23.706 11.252-4.254-2.33v71.976h18.841v18.439h-37.38v-99.04l-21.576-9.815v99.042H85.327V98.552l-46.801-22.01zm208.172 0v19.331l-46.495 22.307v153.766h-18.539V87.249zM38.526 108.069L75.3 125.615v19.63l-36.774-17.25zm208.172 0v19.927l-36.771 17.25v-19.63zM38.526 150.302l18.387 8.327v44.614s-2.28 31.525 25.983 59.482c0 0 21.537 23.497 59.697 23.795 0 0 28.435 2.675 57.305-21.714 0 0 27.047-20.222 28.416-61.861v-43.127l18.385-9.516v53.139s1.114 38.862-28.06 68.605c0 0-19.855 23.398-55.919 30.536 0 0-9.211.593-20.105 8.921 0 0-6.638-6.345-17.781-8.725 0 0-34.442-3.567-62.806-35.887 0 0-20.868-23.002-23.502-60.477z" fill="#025"/></g></svg>