<svg viewBox="0 -.03 53.05 92.3" xmlns="http://www.w3.org/2000/svg"><path d="m12.368 14.876c-1.076.103-.618-.397-1.227.708l-1.181 1.829-1.95-.32c-1.737-.075-1.437-.49-2.115-.095-.463.27-.663.446-.882.906-.193.405-.292.823-.541 1.312-.356.7-.49.808-.431 1.564.041.53.475 2.164.547 2.32.092.201-1.213.815-1.732 1.2-.93.693-.92 1.14-.92 2.107 0 .412.122 1.022.383 1.536.302.595.306.828.306 1.408 0 .489.91 1.39 1.06 1.68.261.505-.517 1.317-1.137 2.345-1.152 1.911-1.315 2.882-1.312 5.953.002 2.244.543 2.518.9 3.756.504 1.756 1.03 3.4 2.044 4.777.579.784.975 1.553 1.233 2.795.392 1.889.552 2.188 1.671 3.432 1.367 1.52 3.348 2.932 4.733 3.184.557.101 2.138 1.501 2.606 2.398.3.574.914 1.51 1.724 2.365l1.713 1.754-.864 1.742c-.15.503-.924 1.199-1.815 1.983l-1.251 1.101-2.593.512c-2.815.556-4.187 1.271-5.93 2.428-2.158 1.432-2.586 1.287-1.061 3.024.835.951 1.947.973 4.34.812l1.896-.127.987.988c1.724 1.724 3.361 2.377 5.874 1.883l1.14-.224.67.652c.37.359 1.458.944 1.916 1.156 1.24.574 2.924.293 4.265-.404 1.18-.612 1.704-.63 3.19-.117 1.468.508 2.576.056 3.765-.677l.879-.542 1.018.417c1.288.526 1.234.697 2.815.208 1.019-.314 1.635-.11 3.14-1.466 2.172-1.956 2.625-1.723 2.734-3.02.065-.79.062-.642-.32-1.294-.814-1.39-1.565-1.827-4.635-2.712-.91-.262-1.2-.463-1.983-.787-.45-.624-.797-1.104-.962-1.79s-1.187-2.396-1.536-3.187c-.35-.791-.279-2.332-.252-2.362s1.983-.084 2.632.135c3.353 1.132 6.925.405 11.077-1.613 1.91-.928 1.087-.127.733-2.038-.111-.604.278-1.334.21-2.278l-.485-2.853c4.313-1.51 5.096 1.537 2.848-.763l-.289-1.51.337-1.42c.868-3.335 1.032-9.089.317-11.937-1.376-5.48-2.85-7.863-8.509-9.323-1.569-.405-2.165-.817-4.005-.749-1.72.064-3.026.052-4.027.438-1.785.689-2.357 1.887-3.949 3.497-1.686 1.707-3.196 3.157-4.866 6.461-1.383 2.738-2.38 3.265-2.99 3.264-.536-.001-2.713-.548-3.076-1.102-.166-.253-.733-2.402-.852-3.535-.174-1.643.02-2.305.27-3.774.325-1.902.33-4.392.066-5.53-.155-.669-.481-1.71.19-2.402 1.066-1.098 1.397-1.206 1.288-2.333-.049-.509.217-.73.015-1.004s-.182-.733-.309-1.117c-.14-.425-.393-.862-.89-1.277-.45-.376-1.29-.725-1.29-.904 0-.45-.184-1.123-.845-1.396-.3-.125-.834-.328-1.345-.293-.819.057-.878.223-1.082-.159-.347-.647-.384-1.341-1.35-1.32z" fill="#fff"/><path d="m12.37 14.877c-1.077.103-.62-.398-1.229.708l-1.18 1.829-1.95-.32c-1.736-.076-1.437-.49-2.115-.096-.463.27-.663.447-.882.906-.193.405-.292.823-.542 1.312-.356.7-.49.809-.43 1.565.041.529.475 2.163.547 2.32.092.2-1.213.814-1.732 1.2-.931.692-.92 1.138-.92 2.106 0 .413.123 1.022.383 1.537.3.594.305.828.306 1.408 0 .488.91 1.388 1.06 1.68.26.504-.517 1.317-1.137 2.345-1.152 1.91-1.315 2.881-1.312 5.952.002 2.245.543 2.518.899 3.756.505 1.756 1.03 3.401 2.045 4.777.578.784.975 1.554 1.233 2.795.392 1.89.552 2.189 1.67 3.433 1.368 1.52 3.349 2.932 4.734 3.183.557.102 2.137 1.502 2.606 2.398.3.574.914 1.51 1.724 2.365l1.713 1.754-.863 1.743c-.152.503-.924 1.199-1.816 1.983l-1.251 1.1-2.594.512c-2.814.557-4.186 1.272-5.93 2.429-2.157 1.432-2.586 1.286-1.06 3.024.835.951 1.947.973 4.34.812l1.895-.127.988.988c1.724 1.724 3.36 2.377 5.873 1.883l1.141-.224.67.651c.37.359 1.458.944 1.916 1.156 1.24.574 2.923.293 4.265-.403 1.18-.612 1.704-.632 3.19-.117 1.467.508 2.576.056 3.765-.678l.878-.541 1.019.416c1.288.526 1.234.697 2.815.209 1.019-.315 1.635-.11 3.14-1.466 2.172-1.957 2.625-1.724 2.733-3.021.066-.79.063-.641-.319-1.294-.815-1.39-1.566-1.827-4.635-2.712-.91-.262-1.2-.462-1.983-.786-.45-.625-.798-1.105-.962-1.791s-1.187-2.396-1.537-3.187-.278-2.331-.251-2.362c.028-.03 1.983-.083 2.632.136 3.353 1.132 6.925.404 11.077-1.614 1.91-.928 1.086-.126.733-2.037-.112-.605.278-1.334.209-2.279l-.484-2.852c4.312-1.511 5.096 1.537 2.847-.763l-.288-1.51.336-1.421c.87-3.335 1.033-9.088.318-11.936-1.376-5.481-2.85-7.864-8.509-9.324-1.569-.405-2.165-.816-4.005-.748-1.72.063-3.027.052-4.028.438-1.784.688-2.356 1.886-3.947 3.497-1.687 1.707-3.197 3.157-4.867 6.461-1.383 2.737-2.381 3.264-2.99 3.263-.536 0-2.713-.548-3.076-1.101-.166-.253-.733-2.403-.853-3.535-.173-1.644.021-2.305.271-3.774.325-1.902.33-4.392.066-5.53-.155-.67-.482-1.71.19-2.402 1.066-1.099 1.396-1.206 1.288-2.333-.049-.51.217-.73.015-1.004-.201-.274-.182-.734-.31-1.118-.14-.424-.393-.861-.89-1.277-.45-.376-1.29-.724-1.29-.903 0-.45-.183-1.123-.844-1.396-.301-.125-.834-.33-1.345-.293-.82.057-.878.223-1.083-.16-.346-.646-.383-1.34-1.35-1.318zm-5.634 3.685c.175.001.464.03.907.077 1.647.176 2.006.32 2.491 1.001.388.546.41.552 1.035.292 1.045-.437 1.545-.34 2.338.452.657.657.719.805.718 1.713 0 1.204-.413 1.96-1.502 2.749-1.04.753-1.748.746-2.163-.02-.833-1.534-1.41-2.067-3.233-2.981-.994-.5-1.806-.985-1.806-1.08 0-.229.837-.22 2.42.026.709.11 1.384.168 1.5.13s-.416-.462-1.182-.939-1.507-1.007-1.647-1.175c-.147-.176-.17-.247.124-.245m7.672 4.648c.368.049 1.504.766 1.918 1.316 1.119 1.484 1.486 4.39.956 7.549-.312 1.855-.312 4.936-.001 6.76.076.443 0 .368-.371-.37a4.2 4.2 0 0 0 -.272-.482c-1.951-4.043 1.034-10.731-1.75-13.781 2.592 5.57-1.925 13.755 4.812 18.027.46.305 1.236.65 1.726.768.774.185 1.04.163 2.016-.166 3.988-1.208 5.16-4.28 7.9-6.795 2.775-2.444 5.358-3.416 7.973-3.003 4.557.719 7.849 6.33 7.871 13.416.007 2.123-.143 3.777-.343 3.775-.062 0-.497-.48-.966-1.064l-.854-1.064-.108-2.316c-.126-2.683-.68-4.88-1.74-6.897-.78-1.484-2.265-2.93-3.34-3.252-1.607-.482-3.693-.14-6.087.996-1.244.59-5.121 3.017-5.539 3.465 2.813-1.55 5.74-3.365 8.77-3.137 2.959.276 5.744 2.594 6.487 5.4.108.406.322 1.638.476 2.736s.377 2.18.495 2.407.808 1.11 1.532 1.962a93.81 93.81 0 0 1 1.66 1.997l.344.446-.807-.052-.806-.052.024 3.046c.021 2.724-.005 3.008-.25 2.686-.835-1.098-1.526-3.596-1.531-5.523-.003-1.186.02-1.255.322-1.019.178.14.003-.108-.387-.55-.7-.794-1.82-3.151-1.975-3.712-.862-3.707-4.085-6.607-6.926-7.19-.204-.042-1.423.09-2.983.45-1.348.31-7.197 3.127-7.036 3.388.005.009.014.016.02.024-3.857.927-4.312.544-7.262-.081a275.8 275.8 0 0 1 -1.14-1.087c-.808-.777-1.426-2.097-2.024-4.322-.481-1.79-.5-2.044-.553-7.501-.06-6.063-.086-6.636-.31-6.992-.102-.164-.065-.222.058-.206m-1.474 1.826c.45 0 .11 1.296-.826 3.14-2.72 5.364-2.702 7.258.145 14.038l1.03 2.454-.69-.353c-.659-.336-1.974-1.617-2.68-2.61l-.328-.463.22.458c.383.802 2.035 2.396 3.054 2.948l.984.533-.251-.58-.839-1.94c-1.367-5.96-.59-8.887.172-14.364-.14 3.768-.348 7.713.365 11.443.762 3.574 3.016 6.706 5.803 8.064 1.414.69 4.152 1.43 5.932 1.605 1.988.196 1.043.417-1.853.432-2.795.014-3.943-.177-5.53-.925-1.066-.502-2.648-1.94-3.455-3.136l-.312-.464-.01.495c-.014.702-.418 2.376-.574 2.376-.18 0-2.335-2.443-3.33-3.773-2.352-3.324-4.05-7.404-2.817-11.004-1.672 3.762.702 8.255 2.728 11.114.957 1.295 1.17 1.72 1.282 2.562.073.554.308 1.383.52 1.842s.376.892.36.964c-.013.073.517.52 1.18.992 1.87 1.123 3.304 1.738 5.364 1.75.316.963.707 1.706 1.35 2.941-3.718-1.286-6.237-3.115-8.387-5.628 2.5 3.524 7.012 6.092 13.498 6.793l-1.024-1.106c-.996-1.075-1.997-2.629-2.285-3.546-.124-.392-.012-.34.854.387 2.631 2.215 3.815 2.61 5.829 1.945.154-.05.257-.056.342.003.273.981.889 2.937.936 2.89.071.358.016.545-.183.622-.443.17-2.629-.305-3.549-.77-.754-.382-.875-.396-1.36-.154-.728.364-2.87.8-3.945.803-1.24.005-3.567-.497-4.67-1.004-2.215-1.024-3.475-2.856-4.623-6.724-.102-.345-.066-.395.214-.294.185.066-.294-.54-1.064-1.344s-1.68-1.861-2.022-2.345c-3.542-4.524-3.965-11.333-1.885-15.03 1.79-2.293 4.167-4.692 6.33-6.037m-1.503 1.875c-1.756 2.912-4.59 9.04-2.823 11.692-1.561-3.047 1.764-9.585 2.823-11.692m24.108 12.767c3.72.848 6.833 4.697 7.133 8.698.147.966.3 3.173.342 4.905s.158 3.365.259 3.63c.102.264.609.965 1.127 1.556s.94 1.147.94 1.232c0 .334-1.277.133-2.234-.352-1.092-.554-2.158-1.775-2.338-2.678-.08-.399-.184-.507-.406-.421-.66.256-2.76.316-3.422.098-1.263-.417-1.974-1.981-2.8-6.158-.55-2.786-.878-3.556-1.673-3.934-.806-.382-3.415-.655-6.295-.659-1.324-.002-2.937-.089-3.585-.194-1.392-.226-3.129-1.058-4.072-1.951 2.41.877 5.192.793 7.186.005.321.223 1.431.331 4.36.444 3.705.143 4.502.36 5.02 1.363.155.299.514 2.148.797 4.108.497 3.432.545 3.614 1.281 4.874.42.72.913 1.376 1.094 1.456.18.082.87.198 1.532.26 1.114.1 2.075-.014 1.178-.142-.387-.056-.4-.154-.509-3.89-.16-5.534-.312-6.782-1.006-8.264-.661-1.413-2.164-2.99-3.366-3.532-.505-.228-.68-.485-.544-.455m-21.195 2.861 1.006.847c3.152 2.65 6.225 3.942 10.783 4.53 2.482.321 3.62.652 4.114 1.198.388.429.825 2.178.833 3.334.015 2.086.95 4.718 2.135 6.012l.6.655-.858-.001c-1.235-.002-2.72-.904-3.197-1.943a2.1 2.1 0 0 0 -.077-.156c-.684-2.245-1.12-4.157-1.377-6.831-.01-.313-1.155-.677-3.06-.974-2.822-.44-5.291-1.092-6.44-1.702-1.231-.655-3.214-2.66-3.92-3.964zm-7.893.556a17.92 17.92 0 0 0 1.85 2.964c.101.063.184.92.185 1.909.002 2.392.273 3.959.927 5.369l.542 1.165-.537-.383c-1.014-.72-2.044-2.074-2.331-3.062-.277-.955-.625-4.724-.632-6.851zm7.689 2.848.613.817c.637.85 1.917 1.907 2.937 2.424 1.088.551 2.876.85 5.149.861 2.156.01 2.203.018 1.574.293-.357.155-1.315.443-2.13.64-3.406.82-5.66.297-7.918-1.838-.755-.714-.805-.963-.456-2.306zm31.23 5.262c-.015.01.07.079.239.214.197.159.44.288.54.288.234 0 .13-.085-.437-.355-.218-.105-.329-.156-.343-.147m-11.107 2.122.415 1.18c.23.65.61 1.557.844 2.015.646 1.258 2.522 2.993 4.08 3.773l1.345.672-1.182-.025c-2.933-.063-4.617-.835-5.246-2.41-.392-.98-.56-2.77-.39-4.138zm-8.756 16.103 1.392.508c1.388.507 1.394.507 2.685.213.71-.16 1.589-.294 1.95-.294.57 0 .659.06.659.441 0 .407-.091.451-1.158.55-.637.06-1.632.162-2.212.229-.865.1-1.24.045-2.083-.305-1.026-.425-1.033-.425-1.724-.075-.572.29-1.207.364-3.596.42-2.76.065-2.912.05-3.103-.306-.11-.205-.2-.424-.2-.485s1.27-.092 2.825-.068c2.642.041 2.88.016 3.694-.392zm-14.16 1.539c.47 0 .48.02.212.401-.187.269-.714.511-1.587.734-1.952.495-2.187.705-.798.712 1.733.008 3.085.586 4.22 1.806 1.117 1.2 1.647 1.323 3.954.916 1.934-.342 2.378-.223 3.65.98 1.227 1.16 1.897 1.233 3.267.354.807-.518 1.043-.577 2.244-.563.778.01 1.841.171 2.53.385 1.297.404 1.143.446 2.493-.675.967-.805 1.675-.795 3.173.043 1.874 1.047 2.463.92 4.523-.984l1.386-1.281-.923-.467a12.616 12.616 0 0 0 -1.694-.698c-.452-.135-.931-.45-1.162-.761-.47-.635-.412-.643 1.11-.143 2.26.742 3.804 1.7 3.599 2.234-.138.36-2.963 2.96-3.563 3.28-.228.122-.853.232-1.389.246-.794.02-1.209-.1-2.251-.654-.703-.374-1.338-.68-1.411-.68s-.54.323-1.037.715c-1.46 1.153-1.547 1.176-2.754.752a11.179 11.179 0 0 0 -2.211-.48c-1.066-.1-1.24-.059-2.415.564-1.904 1.01-2.579.913-4.152-.604-1.106-1.066-1.22-1.088-3.398-.672-2.147.41-3.175.116-4.228-1.215-.977-1.234-1.86-1.515-4.652-1.484-2.52.028-2.977-.128-2.17-.74 1.196-.909 4.189-2.021 5.434-2.021m2.354.38c.12.004.182.023.14.06s-.493.117-1.003.175c-.624.072-.775.056-.462-.05.289-.099.847-.174 1.188-.185a2.1 2.1 0 0 1 .137 0m21.1.412c.407.02 1.38.192 1.744.335.213.084.252.143.093.138-.474-.014-1.897-.322-2.01-.434-.034-.035.038-.045.174-.039" fill="#cad4d7"/><path d="m13.964 85.98v6.297h1.667v-2.408h2.037v-1.481l-2.036-.011c0-.42.01-.647.01-1.09l2.026-.01v-1.297zm10 0v6.297h1.667v-2.408h2.038v-1.481l-2.036-.011c0-.42.009-.647.01-1.09l2.026-.01v-1.297zm10.187 0v6.297h1.666v-2.408h2.038v-1.481l-2.036-.011c0-.42.009-.647.01-1.09l2.026-.01v-1.297z" fill="#17548c"/><path d="m21.144 80.915c-.928-.258-1.17-.407-2.187-1.345-.637-.59-.665-.595-1.667-.408-.56.104-1.644.153-2.408.11-1.707-.1-2.667-.556-3.954-1.876l-.928-.952-2.246.059c-2.594.068-3.446-.165-4.343-1.186-.899-1.023-.98-2.65-.186-3.66.539-.686 2.835-2.048 4.37-2.593 1.184-.42 2.943-.835 5.183-1.22 1.115-.193 3.274-2.134 3.573-3.215l.217-.78-1.46-1.481c-.803-.816-1.743-2.002-2.092-2.637-.4-.728-.753-1.157-.956-1.158-1.017-.007-3.635-1.512-5.299-3.045-1.546-1.425-2.415-3.116-2.712-5.284-.105-.762-.33-1.251-.976-2.12-1.135-1.527-2.179-3.794-2.661-5.782-.513-2.114-.552-5.187-.086-6.907.33-1.223 1.24-3.204 1.719-3.749.238-.27.23-.381-.053-.926-.178-.34-.334-1.036-.345-1.545-.014-.574-.157-1.13-.378-1.463-.224-.337-.38-.955-.423-1.666-.057-.977 0-1.232.427-1.879.385-.585 1.203-1.305 1.897-1.67.027-.013-.077-.327-.23-.696-.387-.924-.354-1.402.167-2.43.246-.487.502-1.1.567-1.363.18-.715.793-1.487 1.45-1.827.61-.315 2.361-.4 3.739-.182l.741.118.426-.917c.54-1.16 1.328-1.675 2.559-1.673.948.001 1.726.376 2.207 1.062.211.302.518.39 1.557.449 1.117.063 1.37.146 1.844.598.3.29.655.784.786 1.1.13.316.588.91 1.017 1.322.428.41.84.99.915 1.29.075.298.332.83.57 1.182.858 1.263.463 3.142-.959 4.564l-.65.65.204 2.086c.178 1.806.158 2.398-.143 4.409-.36 2.41-.308 5.412.115 6.524.21.552 1.565 1.617 2.056 1.617.662 0 1.31-.826 2.511-3.199 1.752-3.46 3.043-5.372 4.781-7.08 2.649-2.6 5.103-3.694 8.263-3.682 4.312.018 8.932 2.128 11.408 5.212 1.01 1.259 2.317 3.914 2.756 5.601.683 2.629.539 9.518-.266 12.644l-.345 1.34.497.554c.273.306.686.775.92 1.042l.422.486-2.047.507-2.047.509.009 1.043c.005.574.157 2.025.338 3.224l.328 2.18-1.032.56c-1.243.673-2.998 1.32-5.061 1.866-2.76.73-6.752.497-8.696-.508-.285-.147-.518-.194-.518-.104s.297.805.658 1.588.82 2.06 1.02 2.835c.198.777.381 1.428.406 1.447.026.02.818.255 1.76.523 1.88.533 3.656 1.357 4.7 2.18 1.34 1.055 1.692 2.843.842 4.287-.626 1.064-3.612 3.763-4.703 4.251-.615.276-1.368.418-2.46.465-1.358.058-1.701.007-2.496-.37l-.921-.438-.76.514c-1.375.927-2.193.976-4.418.264-1.236-.395-1.466-.374-2.772.255-1.355.652-2.834.835-4.041.499m3.27-3.027c1.203-.801 3.33-.723 5.475.201.271.117 1.302-.472 2.46-1.407l.52-.42 1.266.693c.997.546 1.468.692 2.217.692 1.356 0 1.931-.317 3.799-2.095 1.608-1.531 1.647-1.587 1.371-2.002-.41-.616-2.239-1.556-3.952-2.03-3.373-.932-3.319-.884-3.967-3.49-.21-.846-.882-2.591-1.491-3.878-.97-2.047-1.661-3.956-2.121-5.859l-.135-.556.523.489c.832.776 1.62 1.086 2.76 1.086.85 0 1.012-.047.847-.245-.112-.135-.333-1.448-.492-2.917-.385-3.557-.96-7.086-1.272-7.82-.486-1.14-1.56-1.795-3.724-2.267l-1.114-.242.926-.011c1.16-.014 3.36.29 4.015.556.699.283 1.038 1.128 1.638 4.08.903 4.436 1.54 5.723 3.034 6.122.7.187.84.308 1.012.88.489 1.635 1.92 2.789 3.45 2.786 1.33-.003 1.574-.223.785-.71-1.093-.676-3.079-2.99-2.565-2.99.096 0 .29-.044.43-.098.163-.063.333.12.474.51.548 1.512 2.268 2.851 3.913 3.046 1.234.146 1.237-.104.021-1.494-.508-.58-1.022-1.239-1.142-1.463-.135-.252-.236-1.5-.263-3.24-.04-2.682-.179-4.679-.38-5.503-.05-.204.165.083.48.637.313.553.692 1.144.844 1.31.186.207.276.717.278 1.586.004 1.717.403 3.5 1.078 4.823 1.124 2.204 1.124 2.205 1.006-1.457l-.106-3.287.77.03c.422.016.815-.016.872-.073.057-.058-.144-.385-.446-.73-.532-.605-.543-.659-.362-1.64.285-1.533.061-5.91-.394-7.736-1.017-4.082-3.102-7.12-5.723-8.34-.797-.37-1.42-.505-2.576-.557-2.75-.124-4.966.89-7.814 3.579l-1.375 1.298.449-.833c.703-1.305 3.584-4.076 4.894-4.71 2.02-.974 4.903-.852 7.28.31 1.37.67 3.547 2.616 4.23 3.78 1.204 2.054 1.732 5.469 1.732 11.186 0 2.409.069 3.88.182 3.88.322 0 .898-1.382 1.24-2.98.261-1.223.333-2.413.335-5.54.002-3.66-.032-4.094-.43-5.371-1.024-3.28-3.002-5.663-5.839-7.036-2.248-1.088-4.886-1.615-6.749-1.348-1.888.27-3.487 1.106-5.164 2.7-1.651 1.568-2.902 3.416-4.66 6.888-.724 1.426-1.504 2.823-1.737 3.104-.565.684-2.392 1.321-3.352 1.167-1.78-.284-3.631-1.888-4.143-3.59-.406-1.35-.443-5.716-.07-8.137.438-2.83-.15-5.802-1.406-7.114-.477-.498-.456-.895.046-.895.15 0 .35.208.448.463.201.53.41.583.74.185.127-.153.465-.277.751-.277.91 0 1.76-1.694.962-1.919-.178-.05-.602-.147-.943-.216l-.619-.125.48-.501c.832-.868.669-1.008-1.001-.862-.815.071-1.482.068-1.482-.007 0-.076.253-.585.562-1.132.308-.548.518-1.066.464-1.153s-.785-.002-1.627.188-1.585.348-1.654.35c-.07.004-.183-.453-.253-1.013-.072-.577-.22-1.019-.343-1.019-.118 0-.454.547-.745 1.217s-.728 1.346-.972 1.505c-.4.263-.532.262-1.41-.001-1.308-.393-2.759-.545-3.096-.324-.326.213-.178.352 1.53 1.43.587.37 1.045.696 1.019.722-.028.026-.782-.042-1.678-.15-1.258-.153-1.678-.147-1.852.03-.3.304.098.603 2.046 1.53 1.453.692 1.523.753 1.41 1.227-.267 1.128-1.3 1.624-2.994 1.437-.82-.09-1.202-.042-1.704.214-1.127.575-.947 1.479.417 2.09.683.307.689.318.33.642-.53.48-.841 1.522-.556 1.866.31.374 1.293.338 2.41-.087 1.13-.428 1.14-.446-1.035 1.845-3.013 3.173-3.778 6.102-2.755 10.55.372 1.62 1.54 3.962 2.538 5.094.73.828.839 1.074 1.027 2.316.33 2.175.537 2.693 1.497 3.742 1.76 1.924 3.933 3.093 5.768 3.106.633.004.67.041.89.9.39 1.525 2.123 3.739 3.709 4.74.402.254.784.623.845.82.156.492-.358 2.86-.836 3.847-.305.63-1.627 1.974-2.566 2.61-.042.028-.09.24-.107.469-.024.348-.178.44-.941.57-1.136.19-3.31.62-4.894.966-1.356.295-4.219 1.671-4.523 2.173-.34.559.205.693 2.67.659 2.765-.037 3.48.188 4.514 1.426.38.455.947.959 1.26 1.12.635.33 2.394.369 3.58.081 1.32-.321 1.829-.24 2.42.392.298.319.918.825 1.376 1.124.712.465.954.529 1.661.436.455-.06 1.164-.332 1.575-.605m-4.48-7.811c-1.456-.098-1.681-.156-1.53-.392.096-.154.177-.493.179-.756.003-.61 1.441-3.285 2.496-4.644.875-1.128 1.396-2.03 1.396-2.418 0-.133-.622-1.033-1.382-2l-1.381-1.758 1.52-.155 1.52-.155 3.1 3.211c2.94 3.045 4.717 5.284 5.779 7.28.609 1.146.602 1.395-.035 1.395-.28 0-1.195.135-2.033.302-1.472.292-1.554.29-2.408-.07-1.425-.599-1.768-.628-2.531-.22-.808.434-2.203.547-4.69.38m19.39-14.607c-.003-.179-.082-2.241-.176-4.584-.246-6.174-.721-8.249-2.188-9.574q-1.783-1.611-4.86-.813c-.557.145-1.038.236-1.07.204-.113-.112 1.733-.642 2.81-.807.99-.151 1.165-.123 1.996.32 1.239.663 2.781 2.232 3.365 3.424.66 1.348.821 2.64.971 7.755l.128 4.399h-.486c-.336 0-.487-.1-.49-.324m-2.575-2.094c-.261-.608-.56-2.104-.848-4.265-.497-3.712-.7-4.244-1.85-4.864-.642-.346-1.064-.402-3.149-.423-4.186-.042-4.164-.03-1.39-.723 1.376-.344 2.752-.627 3.057-.63 1.478-.012 3.382 1.635 3.877 3.353.156.543.367 2.154.47 3.58s.238 3.114.303 3.75.075 1.158.024 1.158-.273-.422-.494-.936m7.683-6.048c-.066-.175-.285-1.399-.484-2.72-.424-2.81-.89-3.965-2.133-5.294-1.652-1.765-4.016-2.732-6.19-2.53-.676.064-1.702.278-2.28.477-.58.199-1.054.326-1.054.283 0-.164 1.879-1.023 3.217-1.473 2.661-.893 4.465-.598 6.032.988 1.851 1.875 2.911 4.775 3.106 8.502.105 1.998.05 2.452-.213 1.766m-3.158 13.652c.063-.102-.005-.185-.15-.185s-.851-.294-1.569-.653c-2.418-1.21-4.074-3.233-4.961-6.064-.481-1.533-.712-1.087-.721 1.393-.01 2.84.51 4.123 1.98 4.884 1.236.638 5.134 1.088 5.42.625" fill="#21304d"/><path d="m11.058 20.924c-.232 0-.295.025-.457.187-.148.149-.187.232-.187.402 0 .208.1.414.273.557.134.111.587.052.747-.099a.66.66 0 0 0 .193-.688c-.085-.258-.244-.36-.569-.36m-1.623 2.6q-.01 0-.011.02c-.001.03.049.253.11.496.243.96.199 2.129-.117 3.078-.089.267-.162.5-.162.517s.032.005.07-.026c.091-.075 2.515-1.887 2.69-2.01.133-.095.126-.097-.305-.064-.548.041-.871-.038-1.104-.273-.095-.096-.349-.472-.563-.837-.341-.58-.558-.9-.608-.9m4.604.33c-.087 0-.242.161-.61.604l-.432.52.033 5.598c.034 5.686.081 7.532.224 8.769.18 1.567.48 2.198 1.434 3.033 1.348 1.179 3.62 2.291 6.012 2.945.518.142.861.183.77.092-.03-.028-.356-.187-.725-.353-1.225-.548-2.15-1.178-3.126-2.128a12 12 0 0 1 -.955-1.052c-.38-.501-.846-1.392-1.12-2.142-.245-.674-.586-1.97-.741-2.822-.337-1.85-.38-3.015-.284-7.666.03-1.51.026-2.442-.018-3.037-.086-1.177-.238-2.078-.39-2.313q-.029-.048-.072-.048m23.504 5.28a7.4 7.4 0 0 0 -1.127.089c-2.054.333-3.885 1.437-5.747 3.466-1.237 1.348-2.14 2.761-3.82 5.966-1.03 1.97-1.276 3.268-3.856 4.326 4.542-.482 6.725-7.877 11.026-10.359 1.143-.66 2.377-1.042 4.081-.981 1.398.05 2.692.377 3.86.977 1.233.634 3.009 2.147 3.882 3.309q1.169 1.554 1.66 4.989c.234 1.623.305 2.861.36 6.233.048 3.003.075 3.755.145 4.122q.067.359.449-.384c.411-.795.814-2.252.985-3.558.116-.892.176-6.85.079-7.944-.206-2.322-1.51-5.024-3.269-6.777-.921-.917-1.813-1.534-3.103-2.146-1.818-.863-3.886-1.343-5.605-1.329m-3.504 11.219c-.525-.003-1.132.08-1.895.254-1.057.241-1.124.25-1.085.148.019-.048.02-.087.003-.087-.08 0-1.418.603-2.175.98-.981.49-3.202 1.735-3.163 1.774.051.051.664.23 1.061.31.461.091.781.104.781.03 0-.08.578-.252 2.04-.608 1.57-.381 2.716-.61 3.048-.61 1.103.004 2.608 1.076 3.409 2.43.511.865.667 1.787.989 5.843a1082 1082 0 0 0 .275 3.429c0 .02-.037.076-.084.123-.078.077-.065.116.13.403.276.406.693.796 1.037.97.234.117.394.163.986.28.061.012.318.024.572.027l.461.007c.24.112.014-.106-.122-.165-1.58 0-.771-1.116-1.103-3.061-.23-5.89-.415-7.685-.964-9.329-.284-.852-.573-1.336-1.132-1.895-.745-.744-1.464-1.087-2.568-1.222q-.24-.03-.5-.031m-7.217 9.349c-.441.003-.542.035-1.806.574-.68.29-.924.42-.924.489 0 .052.093.178.207.28.421.381 3.503 2.64 4.01 2.94.37.22.47.24.47.1 0-.383-.343-2.145-.617-3.18-.255-.965-.526-1.209-1.34-1.203m-6.056 1.777c-.19 0-.345.078-.987.5-.276.18-.609.356-.74.389-.348.088-.384.155-.27.502.223.685 1.044 2.326 1.39 2.78.113.15.218.198.75.343.697.19 1.754.414 2.493.527.273.042.655.08.847.082l.35.006-.46-.5c-.848-.92-1.567-1.984-2.199-3.25-.519-1.042-.806-1.379-1.174-1.38m15.844 4.977q-.028-.004-.033.002c-.016.015.178.095.43.178.78.256.777.253 1.126 1.154a3.85 3.85 0 0 0 .955 1.466c.477.472 1.112.839 1.676.967.39.09 1.517.074 1.762-.023.284-.113.24-.172-.565-.764-.72-.53-1.98-1.892-2.263-2.446-.147-.287-.138-.37.043-.4.083-.013-.121-.008-.455.01-1.177.067-2.07.041-2.389-.068a1.6 1.6 0 0 0 -.287-.076m-10.965 15.271c-.218-.01-.4.043-.64.152a4 4 0 0 1 -.644.222c-.459.099-1.819.161-4.273.196-2.53.035-3.378.09-3.838.25-.173.059-.632.146-1.02.194-1.33.162-1.909.244-1.938.273-.068.069.167.373.734.948.556.564.634.623.937.71.397.115.968.09 2.18-.092.528-.08 1.07-.122 1.599-.124.707-.002.836.012 1.116.123.444.177.864.473 1.504 1.06.303.279.688.615.854.748.167.132.316.24.331.241.016 0 .524-.247 1.13-.55.608-.302 1.252-.588 1.433-.634.433-.112 1.73-.112 2.504 0 .323.046 1 .185 1.506.31l.92.226.487-.414c.995-.848 1.533-1.106 2.306-1.107.607-.001 1.025.13 2.055.644.878.438 1.22.552 1.647.548.485-.003.898-.239 1.556-.885.43-.423.508-.523.452-.59-.149-.18-1.889-.73-3.062-.968a35 35 0 0 1 -1.14-.256c-.325-.08-.628-.13-.674-.112s-.15.164-.231.325c-.36.717-.752.873-2.478.98-2.698.17-3.076.212-3.318.37-.157.103-.16.074-.021-.2.124-.242.524-.612.885-.818l.469-.27.22-.129-.275.031c-.799.09-1.476.2-1.706.28-.142.048-.276.07-.297.048-.072-.074.397-.417.965-.705.313-.158.568-.307.568-.33 0-.022-.092-.041-.206-.041-.288 0-.972-.174-1.733-.438-.391-.136-.646-.207-.864-.216" fill="#b0babf"/><path d="m21.423 9.059-2.965-1.943-3 1.96.953-3.386-2.813-2.213 3.555-.15 1.26-3.327 1.244 3.293 3.592.156-2.786 2.186zm15.472-.029-2.965-1.941-3 1.96.953-3.386-2.813-2.213 3.555-.15 1.26-3.327 1.244 3.293 3.592.156-2.786 2.186z" fill="#17548c"/></svg>