<svg fill="none" height="623" width="487" xmlns="http://www.w3.org/2000/svg"><g fill="#fff"><path d="m211.205 256.949c7.146-1.631 14.372-3.032 21.696-3.602 6.412-.138 12.83-.138 19.242-.033 9.753 1.055 19.526 2.567 28.863 5.626 6.206 1.558 11.917 4.518 17.971 6.496a23.413 23.413 0 0 0 -.701-.013 8.478 8.478 0 0 0 -4.136.779c-6.762 2.855-13.094 6.614-19.215 10.629-2.323 1.585-5.128.203-7.59-.236-18.09-4.46-37.219-3.438-55.144 1.29-7.471-4.957-15.265-9.541-23.675-12.757-3.044.753-5.664 2.652-8.496 3.956 3.923-2.482 8.264-4.231 12.572-5.934 5.2-2.279 10.633-3.955 16.092-5.494a99.194 99.194 0 0 1 2.521-.707z"/><path d="m213.976 282.79c18.805-5.389 39.126-5.219 57.924.079 5.942 10.485 11.441 21.211 17.356 31.709-8.072 11.539-16.707 22.692-24.853 34.172-14.438.013-28.876.006-43.314.013-7.966-10.937-16.006-21.808-24.032-32.698-.993-1.022-.271-2.443.232-3.504 5.108-9.397 10.295-18.743 15.238-28.219.384-.596.642-1.427 1.449-1.552zm-75.782 22.05c2.719-3.209 5.081-6.837 8.37-9.496.053.367.152 1.107.198 1.48.675 8.311 2.574 16.464 4.85 24.467-2.527 4.616-5.551 8.984-7.728 13.798-6.571 13.536-10.534 28.395-10.799 43.444-7.02 5.495-13.743 11.395-19.605 18.108l-.51.53c-.126-1.84-.126-3.674-.265-5.507-.86-6.15-.423-12.384-.416-18.573-.067-3.864 1.025-7.609 1.33-11.44.767-5.102 2.487-10.007 3.361-15.082 1.495-3.196 2.236-6.68 3.586-9.935.999-3.818 3.587-7 4.434-10.864.231-.19.688-.576.919-.773l.371-1.598a83.756 83.756 0 0 0 1.601-2.325c2.852-5.743 6.71-10.929 10.303-16.234zm200.576-9.358c2.885 1.965 4.599 5.128 6.948 7.636 2.593 3.746 5.743 7.138 7.788 11.237.476 1.002 1.125 1.9 1.833 2.757 1.885 3.288 3.725 6.628 5.286 10.086 2.402 3.975 3.54 8.506 5.393 12.711 1.621 4.538 2.812 9.207 4.036 13.863 1.099 4.748 1.767 9.575 2.614 14.362.523 7.203.364 14.44.265 21.663.013 2.449-.655 4.827-.907 7.256-5.465-7.203-12.757-12.744-19.625-18.552-.549-19.621-6.974-38.952-17.681-55.429-.469-.793-1.23-1.65-.741-2.626 2.449-8.134 4.096-16.503 4.791-24.964z"/><path d="m293.34 317.747c12.016 2.063 24.019 4.211 36.022 6.372 10.971 16.385 17.832 35.763 17.832 55.534-8.231 8.559-16.826 16.771-24.767 25.599-12.287-3.622-24.389-7.813-36.63-11.585-1.767-.616-4.176-1.028-4.606-3.176-4.082-13.137-8.992-26.018-12.552-39.306 8.403-11.021 16.443-22.305 24.701-33.438zm-135.745 6.189c11.467-2.259 22.994-4.178 34.507-6.195 8.251 11.172 16.258 22.521 24.78 33.497-4.255 13.726-8.542 27.472-13.531 40.956-13.234 4.774-26.792 8.683-40.165 13.097-8.304-9.031-17.316-17.413-25.428-26.614 1.197-18.867 7.02-37.538 17.442-53.425.397-.969 1.482-1.139 2.395-1.316zm7.51 85.808c13.293-3.739 26.302-8.389 39.503-12.436.212-.006.628-.026.834-.039a6159.973 6159.973 0 0 0 34.626 24.872c.35 3.818.132 7.656.072 11.487a952.525 952.525 0 0 1 -.059 30.753c-10.673 4.767-21.015 10.222-31.721 14.918-1.059.648-2.191-.118-3.223-.393-17.965-6.307-33.375-18.468-45.292-33.032 1.839-12.03 3.057-24.159 5.26-36.13zm115.034-12.652c13.505 4.29 27.004 8.605 40.449 13.065 1.767 11.748 3.103 23.549 5.068 35.265-11.744 15.442-28.134 27.282-46.404 34.027-1.032.478-2.104.02-3.056-.386-10.29-4.84-20.413-10.046-30.828-14.637-.206-14.066-.06-28.133-.086-42.193 11.592-8.415 23.311-16.654 34.857-25.141z"/><path d="m356.503 445.625c-8.244 2.358-16.846 2.993-25.369 3.595-2.249-.059-3.493 1.958-4.817 3.412-12.221 14.394-28.373 25.364-46.126 31.971-3.162 8.533-6.994 16.831-11.764 24.604-4.573.629-9.105 1.585-13.73 1.827 4.737.583 9.204-1.611 13.928-1.356.146-.216.424-.648.569-.864 2.051-.386 4.162-.557 6.121-1.336 4.287-.72 8.231-2.659 12.433-3.72 3.242-1.329 6.451-2.757 9.746-3.955 4.182-2.312 8.589-4.231 12.599-6.844 5.968-3.267 11.129-7.721 16.707-11.558 3.666-3.635 7.458-7.21 11.514-10.432.039-.203.125-.609.172-.819 1.449-.76 2.091-2.371 3.169-3.523 5.585-6.523 10.819-13.419 14.848-21.002zm-220.016 1.676c-1.76-.301-3.514-.74-5.3-.726-.258.962-.88 2.115-.1 3.025 2.078 3.216 4.387 6.293 6.445 9.535.49.884 1.271 1.526 2.144 2.043l.397 1.199c2.336 2.953 5.095 5.533 7.464 8.454 3.341 3.884 7.49 6.948 11.222 10.439 4.083 2.94 7.781 6.529 12.347 8.723 2.706 2.613 6.346 3.916 9.389 6.084.973.216 2.257.085 2.66 1.244 8.278 4.086 16.9 7.544 25.872 9.83 2.389.766 4.883 1.244 7.404.89-4.585-7.033-7.907-14.767-10.825-22.593-.159-.858-1.092-1.002-1.74-1.329-18.17-7.047-34.513-18.756-46.814-33.772-.47-.459-.841-1.199-1.615-1.094-6.339-.38-12.697-.792-18.95-1.952z"/></g><path d="m255.597 18.456c-.377-2.482-.602-4.99-.443-7.498 68.385-.111 136.77.065 205.155-.092 0 5.796.311 11.644-.714 17.374 0 3.988-.635 7.918-.847 11.886-1.152 6.012-1.39 12.168-2.872 18.12-.463 2.2-.794 4.427-1.297 6.615-.714 3.457-1.939 6.837-1.992 10.406-1.462 1.676-1.449 4.008-2.176 6.011-.067.243-.212.72-.285.963-22.835-.013-45.663-.177-68.498.072-2.368 13.68-7.073 26.87-12.519 39.62-10.322 23.235-24.985 44.597-43.102 62.567-15.635 15.501-33.766 28.828-54.139 37.557-20.539 8.795-43.128 10.452-64.633 15.868-25.753 6.103-49.666 19.292-68.782 37.387-20.81 19.77-35.751 45.599-42.123 73.47-5.446 22.823-5.234 46.902.496 69.646 6.279 24.892 19.255 48.107 37.167 66.647 16.681 17.302 37.623 30.537 60.524 38.173 12.857 4.217 26.262 6.882 39.787 7.59 8.649.15 17.356.419 25.945-.78 26.229-3.064 51.658-13.025 72.746-28.781 36.551-26.857 59.637-71.002 59.895-116.123.741-27.465-6.709-55.055-20.922-78.637-16.794-28.101-43.288-50.334-73.937-62.364-1.621-.629-3.368-.177-4.976.216-6.001 1.637-12.128 2.77-18.256 3.85 24.642 6.124 47.714 18.658 65.792 36.366 24.7 23.883 39.661 57.288 41.123 91.414.788 6.319-.119 12.652-.377 18.972-2.302 25.664-12.188 50.582-28.049 71.008-24.621 32.213-64.269 52.744-105.115 53.896-6.782-.02-13.617.288-20.36-.615-24.853-2.522-48.892-12.011-68.842-26.87-18.044-13.543-32.786-31.375-42.394-51.696-10.117-21.277-14.557-45.206-12.678-68.637 2.144-28.527 13.452-56.372 32.218-78.166 12.016-14.329 27.228-25.92 43.909-34.454 12.658-6.345 26.329-10.635 40.31-12.979 13.717-1.978 27.698-1.591 41.349-4.152 18.54-3.288 36.101-10.314 53.424-17.407l.139.714c4.592 2.659 9.396 4.971 14.319 6.955.066.203.212.609.278.812-5.207.485-10.077 2.554-14.934 4.342 19.824 10.131 37.861 23.85 52.246 40.772 23.616 27.341 37.485 62.816 38.345 98.795.596 5.455-.198 10.917-.218 16.385-1.853 27.066-10.773 53.634-25.813 76.332-11.877 18.121-27.479 33.805-45.524 45.946-21.471 14.375-46.456 23.596-72.209 26.516-18.878 2.03-38.153 1.205-56.64-3.189-23.206-5.448-45.121-16.071-63.82-30.694-18.282-14.401-33.389-32.737-43.976-53.346-12.922-25.147-18.964-53.713-17.33-81.866 1.675-29.398 11.614-58.297 28.586-82.488 13.789-19.712 32.091-36.261 52.987-48.363 18.607-10.681 38.974-18.002 57.388-29.031 12.811-7.374 24.767-16.201 35.44-26.385 20.367-19.724 34.878-44.78 44.406-71.217 9.753-26.778 14.517-55.062 17.051-83.333-19.982-.046-39.965 0-59.948-.02-.212-4.689 0-9.39-.285-14.08zm93.172 25.992c-5.697.033-11.407-.085-17.104.131 4.294 3.635 9.25 6.418 13.524 10.085l.073.472c-1.634 5.226-3.672 10.34-5.002 15.658 4.632-3.32 9.138-6.83 13.955-9.895 4.513 3.36 9.111 6.6 13.71 9.843-1.562-5.377-3.421-10.675-5.241-15.973 4.533-3.556 9.376-6.693 13.896-10.262-5.744-.137-11.494.098-17.23-.177-1.833-5.232-3.375-10.57-5.215-15.802-2.084 5.2-3.599 10.61-5.366 15.92zm-137.564 212.502c-.847.223-1.687.465-2.521.707-5.459 1.539-10.891 3.216-16.092 5.495-4.308 1.702-8.649 3.451-12.572 5.933a138.945 138.945 0 0 0 -33.329 25.73l.072 2.01a96.099 96.099 0 0 0 -.198-1.48c-3.289 2.659-5.651 6.287-8.37 9.496-3.593 5.305-7.451 10.491-10.303 16.234a85.28 85.28 0 0 1 -1.601 2.325l-.371 1.598c-.231.197-.688.583-.919.773-.847 3.864-3.435 7.046-4.434 10.864-1.35 3.255-2.091 6.739-3.586 9.935-.873 5.075-2.594 9.98-3.361 15.082-.305 3.831-1.397 7.576-1.33 11.44-.007 6.189-.444 12.423.416 18.572.139 1.834.139 3.668.265 5.508l.51-.53c-.305 2.102.211 4.217.443 6.319 2.084 15.147 7.689 29.659 15.106 43.006l.801-.642c.443.413.9.832 1.356 1.251-.258.963-.88 2.115-.099 3.025 2.078 3.216 4.387 6.294 6.445 9.535.49.884 1.27 1.526 2.144 2.044l.397 1.198c2.335 2.954 5.095 5.534 7.464 8.454 3.341 3.884 7.49 6.949 11.222 10.439 4.082 2.941 7.781 6.529 12.347 8.723 2.706 2.613 6.345 3.916 9.389 6.084.973.216 2.256.085 2.66 1.244 8.278 4.087 16.899 7.544 25.872 9.83 2.389.766 4.883 1.244 7.404.891.252.373.516.726.788 1.106 12.34 2.299 24.965 2.862 37.477 1.886 4.738.583 9.204-1.611 13.929-1.355.145-.216.423-.649.569-.865 2.051-.386 4.162-.556 6.121-1.336 4.287-.72 8.231-2.658 12.433-3.719 3.242-1.33 6.451-2.757 9.746-3.956 4.182-2.312 8.589-4.23 12.599-6.843 5.968-3.268 11.129-7.721 16.707-11.559 3.666-3.634 7.457-7.21 11.514-10.432.039-.203.125-.609.172-.819 1.449-.759 2.091-2.37 3.169-3.523 5.585-6.522 10.819-13.418 14.848-21.002 8.271-14.951 14.451-31.453 15.523-48.572.252-2.429.92-4.807.907-7.256.099-7.223.258-14.46-.265-21.663-.847-4.787-1.515-9.614-2.613-14.362-1.225-4.656-2.416-9.325-4.037-13.863-1.852-4.205-2.991-8.736-5.392-12.711-1.562-3.458-3.401-6.798-5.287-10.086-.708-.857-1.357-1.755-1.833-2.757-2.045-4.099-5.194-7.491-7.788-11.237-2.349-2.508-4.063-5.671-6.948-7.636-.337-1.447-1.78-2.253-2.7-3.314-10.904-11.008-23.833-19.954-37.795-26.745.179 0 .523.007.701.013-6.054-1.978-11.764-4.938-17.971-6.496-9.336-3.058-19.109-4.571-28.863-5.626a512.103 512.103 0 0 0 -19.241.033c-7.325.57-14.551 1.971-21.697 3.602z" fill="#fee501"/><path d="m348.766 44.448c1.767-5.311 3.282-10.72 5.366-15.92 1.84 5.232 3.381 10.57 5.214 15.802 5.737.275 11.487.04 17.231.177-4.52 3.569-9.363 6.706-13.896 10.262 1.82 5.298 3.679 10.596 5.241 15.972-4.599-3.242-9.198-6.483-13.71-9.843-4.817 3.065-9.324 6.575-13.955 9.895 1.33-5.317 3.368-10.432 5.002-15.658l-.073-.471c-4.274-3.667-9.23-6.45-13.525-10.085 5.697-.216 11.408-.098 17.105-.131zm-168.75 224.636c2.832-1.304 5.453-3.203 8.497-3.956 8.41 3.215 16.204 7.8 23.675 12.757 17.925-4.728 37.054-5.75 55.144-1.29 2.462.439 5.267 1.82 7.59.236 6.121-4.015 12.453-7.774 19.215-10.629a8.477 8.477 0 0 1 4.136-.779c13.961 6.791 26.891 15.736 37.795 26.745.92 1.061 2.362 1.866 2.7 3.314-.695 8.461-2.342 16.83-4.791 24.963-.489.976.272 1.834.741 2.627 10.706 16.476 17.131 35.808 17.681 55.428 6.868 5.809 14.16 11.349 19.625 18.553-1.072 17.118-7.252 33.621-15.523 48.572-8.245 2.358-16.846 2.993-25.369 3.595-2.25-.059-3.494 1.958-4.817 3.412-12.221 14.394-28.373 25.364-46.126 31.971-3.163 8.533-6.994 16.831-11.765 24.604-4.572.629-9.105 1.585-13.73 1.827-12.512.976-25.137.413-37.478-1.886-.271-.38-.536-.733-.787-1.107-4.585-7.033-7.907-14.767-10.825-22.593-.159-.858-1.092-1.002-1.74-1.329-18.17-7.047-34.514-18.756-46.815-33.772-.469-.459-.84-1.199-1.614-1.094-6.339-.38-12.698-.792-18.951-1.952-1.76-.301-3.513-.74-5.3-.726-.456-.42-.913-.839-1.356-1.251l-.801.642c-7.417-13.347-13.022-27.859-15.106-43.006-.232-2.102-.748-4.218-.444-6.32 5.863-6.712 12.586-12.613 19.606-18.107.265-15.049 4.228-29.908 10.799-43.445 2.177-4.813 5.201-9.181 7.728-13.798-2.276-8.002-4.175-16.156-4.85-24.466-.02-.504-.053-1.506-.073-2.01a138.94 138.94 0 0 1 33.329-25.73zm33.958 13.706c-.807.124-1.065.956-1.449 1.552-4.943 9.476-10.13 18.821-15.239 28.219-.502 1.061-1.224 2.482-.231 3.503 8.026 10.891 16.066 21.762 24.032 32.698 14.438-.006 28.876 0 43.314-.013 8.145-11.48 16.78-22.632 24.853-34.171-5.915-10.498-11.414-21.225-17.356-31.709-18.798-5.298-39.119-5.469-57.924-.079zm79.363 34.957c-8.258 11.133-16.298 22.417-24.701 33.438 3.56 13.288 8.469 26.169 12.552 39.306.43 2.148 2.839 2.561 4.605 3.176 12.242 3.772 24.344 7.963 36.631 11.585 7.94-8.828 16.536-17.04 24.767-25.599 0-19.771-6.862-39.149-17.832-55.534-12.003-2.161-24.006-4.309-36.022-6.372zm-135.745 6.189c-.913.177-1.998.347-2.395 1.316-10.422 15.888-16.245 34.558-17.442 53.425 8.112 9.201 17.124 17.583 25.428 26.614 13.373-4.414 26.931-8.323 40.164-13.097 4.99-13.484 9.277-27.23 13.532-40.956-8.523-10.976-16.529-22.325-24.78-33.497-11.513 2.017-23.04 3.936-34.507 6.195zm7.51 85.808c-2.203 11.971-3.421 24.1-5.26 36.13 11.917 14.564 27.327 26.725 45.292 33.032 1.032.275 2.164 1.041 3.222.393 10.707-4.696 21.049-10.151 31.722-14.918.185-10.256.205-20.505.059-30.753.06-3.831.278-7.669-.073-11.487a6233.927 6233.927 0 0 1 -34.626-24.872c-.205.013-.622.033-.833.039-13.201 4.047-26.21 8.697-39.503 12.436zm115.034-12.652c-11.546 8.487-23.265 16.726-34.858 25.141.027 14.06-.119 28.127.086 42.194 10.415 4.59 20.539 9.796 30.828 14.636.953.406 2.025.864 3.057.386 18.269-6.745 34.659-18.585 46.404-34.027-1.965-11.716-3.302-23.517-5.068-35.265-13.446-4.46-26.944-8.775-40.449-13.065zm-261.948-27.348c6.75-5.284 17.145-5.461 24.105-.458 7.782 5.599 7.94 18.232.947 24.512-1.674 1.559-3.851 2.417-6.009 3.111-.099-2.24-.218-4.473-.304-6.7 2.415-1.801 5.141-3.837 5.618-7.007.483-4.04-2.31-7.943-6.048-9.391-4.447-1.788-9.793-1.506-13.948.904-3.269 2.312-4.5 6.955-2.998 10.616.96 2.835 4.07 3.896 6.306 5.54.238-2.705.51-5.403.735-8.108 1.8-.032 3.6-.013 5.399-.006-.04 4.558-.02 9.116-.066 13.674-6.048-.013-12.102-.033-18.157-.007.013-1.506.02-3.012 0-4.512 1.35-.124 2.7-.255 4.05-.373-1.648-2.214-3.626-4.309-4.38-7.02-1.417-5.279.337-11.363 4.75-14.775zm419.661-3.339c11.156-.072 22.312-.236 33.461-.347 0 2.285-.007 4.571.026 6.856-7.774 4.715-15.774 9.07-23.509 13.844 7.834.125 15.668-.033 23.503-.072-.013 2.142-.007 4.283-.02 6.431-11.044.079-22.08.164-33.117.275a95.935 95.935 0 0 1 -.06-7.295c7.742-4.499 15.543-8.907 23.252-13.465-7.835.04-15.662.249-23.497.262-.02-2.167-.013-4.328-.039-6.489zm8.496 30.445c4.896-.956 10.117-.426 14.715 1.513 4.037 1.748 7.643 5.18 8.477 9.6 1.31 5.724.066 12.377-4.315 16.555-2.957 2.908-7.271 3.792-11.288 3.956-6.18.046-12.903-2.135-16.482-7.413-5.731-8.344-1.198-21.723 8.893-24.211zm.582 7.033c-6.299 1.454-7.901 10.74-2.978 14.597 4.659 3.183 11.136 4.303 16.298 1.624 4.889-2.724 5.425-10.576.86-13.857-4.023-2.934-9.409-3.366-14.18-2.364zm-432.312-1.126c11.037-1.382 21.988-3.373 33.038-4.689.238 2.279.49 4.551.788 6.824-4.17.425-8.278 1.283-12.44 1.735.642 4.263 1.323 8.52 1.886 12.79a515.509 515.509 0 0 1 12.664-1.801c.199 2.285.477 4.564.688 6.85-11.043 1.323-21.96 3.641-33.064 4.499-.198-2.207-.496-4.407-.668-6.614 4.93-.537 9.813-1.434 14.729-2.076-.582-4.237-1.416-8.442-1.773-12.705-5.016.576-9.999 1.421-15.014 2.043-.39-2.279-.629-4.564-.834-6.856zm418.165 24.132c10.832 2.731 21.683 5.357 32.482 8.232-.503 2.246-1.145 4.453-1.753 6.68-9.833-2.365-19.533-5.495-29.538-7.034.88.275 1.747.491 2.653.734-.158 3.372-1.779 6.437-2.884 9.574 8.634 2.855 17.111 6.169 25.818 8.821-.595 2.253-1.33 4.466-2.051 6.686-8.734-2.835-17.336-6.064-26.07-8.919-1.046 3.15-2.217 6.261-3.322 9.397a73.294 73.294 0 0 0 -5.313-1.748c2.845-10.943 8.271-21.166 9.978-32.423zm-413.593 6.509c11.792.23 23.563 1.133 35.354 1.513.887 2.554 1.866 5.128 1.893 7.878-9.158 7.125-18.786 13.622-28.036 20.622-.728-2.495-1.495-4.983-1.985-7.531 1.8-1.106 3.573-2.252 5.346-3.398-.231-4.172-2.19-7.97-3.103-11.998-2.395-.065-4.797-.164-7.192-.157a124.578 124.578 0 0 1 -2.277-6.929zm15.464 7.112c.847 2.64 1.515 5.331 2.276 7.996 4.142-2.39 8-5.219 12.003-7.812-4.757-.085-9.522-.046-14.28-.184zm-4.672 26.163c10.111-4.565 19.95-9.758 30.266-13.857 1.198 1.905 2.09 4.138 2.587 6.358-4.44 7.676-10.223 14.526-15.073 21.952 6.921-3.458 13.968-6.667 20.975-9.915 1.211 1.722 2.098 3.635 3.13 5.462-9.919 5.114-20.234 9.404-30.186 14.44-.92-1.847-1.945-3.641-2.865-5.495-.51-.641.145-1.296.463-1.82a1265.35 1265.35 0 0 1 14.716-20.766c-7.457 2.442-14.246 6.457-21.425 9.561a72.634 72.634 0 0 0 -2.587-5.92zm386.517 4.335c1.231-2.377 2.038-5.056 3.606-7.21 11.738 1.126 23.45 2.573 35.156 4.008-1.165 2.174-2.29 4.368-3.309 6.614a210.84 210.84 0 0 0 -7.298-.812c-1.688 3.484-3.607 6.863-4.97 10.491 1.006 2.2 3.031 3.608 4.831 5.128-1.066 2.318-2.276 4.577-3.276 6.928-1.952-2.685-4.638-4.735-6.861-7.184-6.015-5.939-11.838-12.063-17.879-17.963zm8.9-.53c2.732 3.601 6.226 6.542 9.554 9.587 1.297-2.423 2.568-4.859 3.746-7.348-4.427-.805-8.874-1.447-13.3-2.239zm-14.849 10.89c9.502 5.527 18.686 11.565 28.188 17.086-1.058 2.043-2.084 4.099-3.123 6.156-9.68-5.685-19.262-11.539-28.697-17.623 1.191-1.886 2.435-3.739 3.632-5.619zm-367.347 12.862c11.44-2.882 22.947-5.54 34.374-8.481 1.297 1.978 2.965 3.799 3.7 6.091.39.903-.299 1.67-.762 2.377-6.398 8.893-13.253 17.446-19.87 26.175-1.43-2.082-2.72-4.243-4.09-6.359 1.589-1.755 3.051-3.608 4.593-5.389a628.134 628.134 0 0 1 -6.875-10.177c-2.362.557-4.711 1.198-7.047 1.86-1.37-2.017-2.66-4.08-4.023-6.097zm17.078 2.659c1.469 2.272 2.852 4.603 4.32 6.889 3.071-3.418 6.055-6.916 8.84-10.563-4.393 1.198-8.846 2.2-13.16 3.674zm334.64 16.182c-3.467-8.573 3.448-19.3 12.718-19.967 2.706-.066 5.36.595 7.98 1.205-1.357 1.938-2.746 3.857-4.116 5.789-2.104-.131-4.281-.642-6.339.019-4.023 1.762-5.875 7.151-3.573 10.937 2.667 4.171 6.948 7.524 11.911 8.493 3.672.642 7.093-2.128 8.317-5.396.781-2.521-.708-4.905-1.376-7.249.641-2.148 2.335-3.982 4.406-4.925 2.038 3.006 3.898 6.451 3.633 10.197-.609 7.026-6.517 13.411-13.684 14.184-3.592.341-7.046-1.061-10.117-2.757-4.261-2.377-7.854-6.051-9.76-10.53zm-323.596 19.443c8.105-7.4 15.681-15.35 23.853-22.678 2.971 2.187 5.327 5.049 7.927 7.635 2.984 2.974 5.843 6.078 8.688 9.182a177.237 177.237 0 0 0 -4.109 3.89c-3.725-3.713-7.404-7.479-11.116-11.205-2.865-.007-4.314 2.639-5.783 4.636 3.077 3.458 6.418 6.667 9.76 9.882a215.725 215.725 0 0 1 -4.01 4.506c-3.368-3.451-6.697-6.922-10.045-10.386-3.705 2.914-6.947 6.332-10.329 9.594a194.64 194.64 0 0 0 -4.837-5.056zm312.11-14.571c4.803-1.519 10.024.255 13.875 3.209 4.017 3.196 7.351 7.537 8.437 12.6 1.647 10.216-9.198 20.262-19.401 17.825-7.854-2.455-14.411-9.528-15.318-17.76.013-7.21 5.525-13.818 12.407-15.874zm-.014 6.464c-3.123 1.309-5.187 4.387-6.047 7.537.952 5.829 5.267 11.12 10.904 13.157 5.545 1.991 11.95-3.602 10.951-9.267-1.079-4.433-4.162-8.31-8.165-10.53-2.303-1.231-5.141-2.115-7.643-.897zm-273.348 7.17c8.648-2.357 18.229 4.093 20.003 12.62 1.058 5.684-1.754 11.283-5.433 15.475-2.984 3.169-6.928 5.952-11.46 6.07-8.873.419-17.41-7.262-17.376-16.149.986-7.93 6.537-15.383 14.266-18.016zm1.409 6.615c-4.85 2.613-8.813 7.753-8.701 13.392.139 4.938 5.499 8.756 10.296 7.459 6.074-1.722 10.534-7.872 10.468-14.08-.384-5.501-7.113-9.135-12.063-6.771zm236.096 8.854c2.772-5.992 9.74-10.203 16.43-9.025 2.547.439 4.618 2.162 6.12 4.179-1.76 1.093-3.494 2.233-5.26 3.313-4.023-3.353-11.203-.478-11.699 4.689-.284 1.546 1.138 2.495 2.038 3.51 6.458-.884 12.03-5.599 18.732-4.911 5.208 1.755 8.47 8.258 6.009 13.307-3.368 6.018-10.118 10.786-17.31 9.967-2.839-.242-4.791-2.489-6.763-4.25 1.688-1.271 3.408-2.502 5.215-3.602 4.572 3.622 11.725.36 13.352-4.794.285-1.65-.84-3.582-2.62-3.752-5.624.137-10.256 4.06-15.821 4.499-6.504.537-11.189-7.584-8.423-13.13zm-208.98 2.914c8.86-2.115 18.832 4.243 20.307 13.183.152 6.542-2.753 13.117-7.669 17.498-3.163 3.038-7.861 4.368-12.175 3.536-5.022-.897-9.78-3.89-12.301-8.343-1.945-3.242-1.826-7.243-1.171-10.832 1.496-6.647 6.286-12.979 13.009-15.042zm1.813 6.293c-5.234 2.594-8.708 8.422-8.45 14.218.119 5.049 5.863 8.814 10.673 7.518 4.228-1.507 7.12-5.403 8.496-9.503.748-2.449 1.41-5.206.232-7.636-1.859-3.844-6.835-6.201-10.951-4.597zm183.207 3.838c3.276-5.521 10.27-8.769 16.628-7.4 2.938.609 5.261 2.665 6.895 5.068-1.932.943-3.897 1.814-5.829 2.771-3.362-3.491-9.694-2.319-11.97 1.787-.821 1.546-.218 3.288.351 4.807 5.816.17 11.321-2.03 17.011-2.809 4.434.497 8.238 4.25 8.417 8.723.662 4.996-3.275 9.129-7.378 11.381-3.745 1.867-8.158 3.609-12.36 2.214-2.739-.76-4.4-3.189-6.312-5.069a413.536 413.536 0 0 0 5.485-3.097c3.772 4.165 11.414 2.593 13.657-2.371.649-1.434.298-2.999.08-4.473-6.942-1.074-13.512 3.36-20.42 1.677-2.964-1.094-4.301-4.224-5.287-6.955-1.045-2.083-.033-4.394 1.032-6.254z" fill="#000001"/><path d="m160.583 558.676c2.323.315 4.473 1.284 6.657 2.083 6.445 2.357 12.777 5.01 19.321 7.092 6.663 2.096 14.028 2.174 20.201 5.678 5.115 3.556 3.613 12.2-2.071 14.401 6.485 4.806 1.535 16.188-6.14 16.077-6.915-.504-13.505-2.79-20.301-3.988 1.78-9.018 4.956-17.787 5.658-27.001.734-.373 1.475-.746 2.19-1.153-1.198.164-2.349.531-3.507.845-2.7-.812-5.274-1.971-7.947-2.848-3.394 8.447-6.484 17.007-9.859 25.468-2.164-.878-4.301-1.808-6.465-2.666 3.289-8.467 6.624-16.915 9.72-25.448-2.527-.858-5.028-1.775-7.589-2.535-.51-.929-1.026-1.866-1.529-2.789.933-.852 1.251-2.083 1.661-3.216zm30.034 16.575c-.251 2.22-.642 4.421-1.045 6.628 2.977.595 5.875 1.624 8.926 1.853 1.416.026 3.321.111 3.996-1.428.629-1.179 1.311-2.973-.006-3.922-3.322-2.646-7.835-2.692-11.871-3.131zm-4.446 20.786c4.261.635 8.502 2.292 12.856 1.722 1.244-1.984 2.918-5.055.847-7.04-3.494-2.233-7.821-2.311-11.712-3.477-.78 2.908-1.343 5.861-1.991 8.795zm114.921-29.129c2.6-.917 5.241-1.775 7.947-2.305 7.192 9.103 14.656 18.055 21.458 27.472-2.428.629-4.751 1.631-7.239 2.037-1.283-1.945-2.726-3.772-4.122-5.632-3.897 1.342-7.808 2.639-11.665 4.099.072 2.325.092 4.656-.066 6.981-2.23.825-4.467 1.624-6.703 2.43-.053-11.696.344-23.392.39-35.082zm6.359 5.639c-.146 4.656-.06 9.325.046 13.988 2.68-1.015 5.373-2.017 8.086-2.941-2.759-3.647-5.519-7.295-8.132-11.047zm-84.557 2.148c2.62-.046 5.214.373 7.815.661 3.07 11.159 5.882 22.397 8.992 33.556a165.79 165.79 0 0 1 -7.226.039c-.721-2.41-1.343-4.852-1.958-7.282-4.083-.406-8.165-.851-12.268-1.041a111.869 111.869 0 0 1 -2.964 6.673c-2.389-.347-4.797-.459-7.199-.642 5.009-10.622 9.429-21.519 14.808-31.964zm-2.21 20.366c2.746.223 5.485.432 8.238.583-.734-4.289-1.767-8.526-2.66-12.79-2.528 3.733-3.738 8.14-5.578 12.207zm41.594-20.235c2.276-.262 4.545-.59 6.822-.885 1.627 8.848 2.772 17.774 4.294 26.647 5.525-.72 11.017-1.656 16.522-2.508.179 1.991.41 3.988.768 5.966-7.848 1.126-15.642 2.58-23.536 3.373-1.251-10.917-3.335-21.716-4.87-32.593zm-21.882 1.028c2.402-.092 4.804-.197 7.212-.223.152 8.913.589 17.819.867 26.726 5.558-.112 11.116-.249 16.681-.387.059 1.998.106 3.995.132 5.992-7.834.269-15.675.262-23.509.118-.298-10.753-.953-21.486-1.383-32.226z" fill="#000001"/><path d="m255.879 32.536c19.983.02 39.966-.026 59.948.02-2.534 28.27-7.298 56.555-17.051 83.332-9.528 26.438-24.039 51.493-44.406 71.218-10.673 10.183-22.629 19.011-35.44 26.385-18.414 11.028-38.781 18.35-57.388 29.031-20.896 12.102-39.198 28.651-52.987 48.362-16.973 24.191-26.911 53.091-28.585 82.489-1.635 28.153 4.407 56.718 17.33 81.866 10.586 20.609 25.693 38.945 43.975 53.346 18.699 14.623 40.614 25.245 63.819 30.694 18.488 4.394 37.763 5.219 56.641 3.189 25.752-2.921 50.738-12.141 72.209-26.516 18.044-12.141 33.647-27.826 45.524-45.946 15.04-22.698 23.96-49.266 25.813-76.332.019-5.469.813-10.93.218-16.385-.86-35.979-14.729-71.454-38.345-98.795-14.385-16.922-32.422-30.642-52.246-40.773 4.856-1.787 9.726-3.857 14.934-4.341 42.023 23.719 73.103 65.644 83.074 112.534 5.724 26.051 5.195 53.411-1.455 79.246-6.472 24.99-18.719 48.5-35.559 68.192-15.94 18.671-35.857 34.054-58.209 44.506-25.038 11.945-53.04 17.609-80.805 16.693-28.32-.878-56.408-8.776-80.963-22.777-20.923-11.866-39.271-28.134-53.55-47.367-17.634-23.569-28.982-51.703-32.502-80.832-4.05-32.305 1.263-65.788 15.516-95.166 15.278-31.821 40.733-58.69 71.694-76.038 34.315-20.406 61.219-51.565 79.58-86.516 13.962-27.596 19.427-58.735 19.606-89.397-.106-7.976.232-15.965-.39-23.922z" fill="#d60124"/><path d="m381.628 82.313c22.835-.249 45.663-.085 68.498-.072-7.662 26.66-20.168 52.128-37.855 73.706-25.395 31.12-60.213 53.497-97.162 68.952-17.323 7.093-34.884 14.12-53.424 17.407-13.651 2.561-27.632 2.174-41.349 4.152-13.981 2.344-27.652 6.634-40.31 12.98-16.681 8.533-31.893 20.124-43.909 34.453-18.765 21.794-30.074 49.639-32.217 78.166-1.88 23.431 2.56 47.36 12.677 68.637 9.608 20.321 24.35 38.153 42.395 51.696 19.949 14.859 43.988 24.348 68.841 26.87 6.743.903 13.578.596 20.36.615 40.846-1.152 80.494-21.683 105.115-53.896 15.861-20.426 25.747-45.344 28.049-71.008.258-6.32 1.165-12.653.377-18.972-1.462-34.126-16.423-67.531-41.123-91.414-18.077-17.708-41.15-30.242-65.792-36.365 6.128-1.081 12.255-2.214 18.256-3.851 1.608-.393 3.355-.845 4.976-.216 30.649 12.03 57.143 34.263 73.937 62.364 14.213 23.582 21.663 51.172 20.922 78.637-.258 45.121-23.344 89.266-59.895 116.123-21.088 15.756-46.517 25.717-72.746 28.781-8.589 1.199-17.296.93-25.945.78-13.524-.707-26.93-3.373-39.787-7.59-22.901-7.636-43.843-20.871-60.524-38.173-17.912-18.539-30.888-41.755-37.167-66.647-5.73-22.743-5.942-46.823-.496-69.646 6.372-27.871 21.313-53.7 42.123-73.47 19.116-18.094 43.029-31.284 68.782-37.387 21.505-5.416 44.094-7.073 64.633-15.868 20.373-8.729 38.504-22.056 54.139-37.557 18.117-17.97 32.78-39.332 43.102-62.567 5.446-12.75 10.151-25.94 12.519-39.62z" fill="#019537"/></svg>