<svg xmlns="http://www.w3.org/2000/svg" viewBox="0 0 15.72 25.17"><path d="M2.862 16.384l.015.093c.088 1.547.45 2.97 1.369 4.162.734.953 1.896 1.789 3.613 1.79 1.691.002 2.896-.857 3.607-1.798.36-.476.73-1.115.954-1.835.28-.896.35-1.5.42-2.4l.004-.012v-5.557h-.268v2.698c0 .914.017 1.847-.003 2.758-.07 3.032-1.736 5.862-4.726 5.858-3.028-.003-4.61-2.828-4.713-5.88-.016-.452-.004-.924-.004-1.378v-4.056h-.268z" fill="#fff" fill-rule="evenodd"/><path d="M11.658 24.17c2.728-1.577 4.004-4.766 4.033-8.07.012-1.319.074-14.988-.022-16.1H.067C-.049.814.017 15.061.031 16.097c.036 2.575.76 4.647 1.943 6.202.535.702 1.3 1.42 2.145 1.899 2.291 1.302 5.26 1.289 7.539-.029" fill="#0e0907" fill-rule="evenodd"/><path d="M.417.514l-.002 15.38c-.002 11.705 14.9 12.075 14.892-.27L15.304.405z" fill="#fbfdfb" fill-rule="evenodd"/><path d="M7.069 11.766c-2.56.38-4.767 2.897-4.326 5.91.375 2.561 2.807 4.91 5.88 4.41 2.62-.424 4.788-2.8 4.359-5.905-.361-2.618-2.855-4.87-5.913-4.415" fill="#0e0907" fill-rule="evenodd"/><path d="M4.68 18.243l-.146 1.581c1.06 1.04 2.224 1.887 3.546.542l-.025-1.717c-.926-.345-1.085-.64-1.532-.88-.396-.21-1.102.177-1.843.474m1.14-4.07c-.391.017-1.06.131-1.392.3-.328.167-.4.598-.572 1.229-.105.38-.297 1.104-.17 1.486.053.155.774.835.918.867.197.044.967-.285 1.225-.384.525-.203.297-.117.562-1.232.432-1.817.398-.462-.571-2.266m2.365 4.485l.053 1.743c.406.128.795.322 1.279.416.527.102.726-.166 1.07-.455.778-.656 1.203-.754.908-2.335-.304-.188-1.605-.585-1.883-.438-.135.071-.467.426-.679.58-.214.154-.509.326-.748.489m1.631-1.296c.489.172 1.295.417 1.788.426.172-.357.454-.637.686-1.038.346-.6-.581-2.223-.797-2.33-.197-.098-1.245-.233-1.514-.241-.39.914-.797.966-.665 1.433.06.215.23.525.305.785.088.308.126.626.197.965" fill="#fbfdfb" fill-rule="evenodd"/><path d="M6.813 15.327c.51-.001.98-.085 1.533-.073.804.016.752.197 1.112-.424.364-.626.543-.985-.664-2.02-.278-.239-.959-.181-1.422-.145-.426.033-.341.005-.563.233a9.525 9.525 0 0 0-.43.467c-.67.809-.388.894.434 1.962m-3.86 2.343c.78-.525.45-1.284 1.018-2.756.204-.53.166-.479-.046-.93-.77.467-1.114 2.465-.972 3.686m3.223-5.393c.793.264.673.266 1.626.243 1.02-.025.779.174 1.4-.393-.832-.311-2.357-.348-3.026.15m.482 9.488c-.125-.461-.104-.442-.518-.634-1.603-.744-1.2-1.212-2.202-1.203.313.67 1.635 1.612 2.72 1.837m3.117-.237c.856-.274 1.895-1.222 2.212-1.846-.46-.046-.438-.003-.67.24-.234.244-.325.297-.578.505-.599.492-.863.512-.964 1.101m3.1-5.183c-.016-.814-.568-1.96-1.028-2.397-.16.388-.115.379.035.644s.173.358.288.632c.272.646.22.88.705 1.121" fill="#fbfdfb" fill-rule="evenodd"/><path d="M1.069.969h13.585v2.463H1.069z" fill="#009348" fill-rule="evenodd"/><path d="M1.069 5.913h13.585v2.463H1.069z" fill="#e11e25" fill-rule="evenodd"/><path d="M1.95 9.345q0 .117-.065.187a.226.226 0 0 1-.175.07q-.185 0-.185-.17 0-.098.054-.175.01-.012.017-.013.003 0 .002.005a.035.035 0 0 1-.006.018.233.233 0 0 0-.03.113q0 .063.044.097a.159.159 0 0 0 .1.03.282.282 0 0 0 .163-.045q.049-.031.049-.052 0-.052-.031-.133-.026-.064-.057-.116l.027-.064q.007-.013.01-.013t.009.01q.074.105.074.251m-.198-.36l-.05.081-.07-.053.05-.08zm.385.343v.017a.353.353 0 0 1-.031.153q-.004.006-.01.006t-.006-.01q.005-.072-.01-.234l-.017-.167a1.764 1.764 0 0 1-.008-.144q0-.01.019-.046.028-.055.037-.055.008 0 .006.026-.003.026-.003.063 0 .094.023.391m.452.172h-.03q-.028 0-.033.034a.388.388 0 0 1-.068.164q-.068.098-.148.098-.043 0-.11-.044-.015-.01-.015-.017 0-.007.013-.008l.01.001a.247.247 0 0 0 .057.006q.047 0 .082-.022.027-.019.072-.07.02-.025.041-.059a.141.141 0 0 0 .026-.064q0-.02-.05-.078l.034-.083q.004-.01.012 0 .035.048.065.049h.042zm.146-.153a.212.212 0 0 1-.012.062.141.141 0 0 1-.028.055q-.035.037-.101.036h-.036v-.093h.037a.419.419 0 0 0 .057-.006q.047-.01.047-.021-.001-.025-.048-.086l.036-.068q.01-.019.018-.003a.247.247 0 0 1 .03.124m.07.34l-.043.07-.066-.047-.035.059-.07-.053.046-.074.063.047.034-.056zm.185-.359v.017a.353.353 0 0 1-.031.153q-.003.006-.01.006t-.006-.01q.005-.072-.01-.234l-.017-.167a1.764 1.764 0 0 1-.008-.144q0-.01.019-.046.028-.055.038-.055.007 0 .005.026-.003.026-.002.063 0 .094.022.391m.91.172h-.098a.176.176 0 0 0-.071.017q-.03.016-.031.025 0 .009.04.016l.093.02q.041.016.041.053a.134.134 0 0 1-.02.078q-.046.066-.151.102a.564.564 0 0 1-.182.03.24.24 0 0 1-.147-.043.166.166 0 0 1-.065-.141.353.353 0 0 1 .06-.209q.01-.013.015-.013.003 0 .003.006a.046.046 0 0 1-.006.02.318.318 0 0 0-.031.128.134.134 0 0 0 .068.124.261.261 0 0 0 .14.033q.097 0 .19-.03.082-.028.082-.05 0-.01-.033-.016l-.07-.013q-.087-.015-.087-.063 0-.053.058-.108a.201.201 0 0 1 .14-.06h.063zm.299-.116q0 .016-.021.045-.022.03-.035.03a.247.247 0 0 1-.073-.027l-.058-.028q-.012 0-.025.024l-.021.04A.074.074 0 0 1 3.9 9.5h-.03v-.093h.045q.04 0 .065-.035.007-.009.039-.074a.415.415 0 0 1 .032-.06q.025-.034.058-.034.027 0 .044.013.012.009.026.048a.353.353 0 0 1 .02.12m-.061-.04a.07.07 0 0 0-.017-.044q-.016-.023-.034-.024-.01 0-.02.011a.028.028 0 0 0-.01.021q-.001.017.068.047.013.005.013-.011m.744.155h-.04q-.083 0-.105-.133-.007-.036-.032-.238-.045.32-.177.405-.016.01-.098.022a.564.564 0 0 1-.103.01q-.025 0-.025-.008 0-.005.02-.013.102-.035.196-.109.086-.067.086-.1 0-.04-.076-.137-.076-.095-.114-.095a.106.106 0 0 0-.02.016l-.019.015q-.015 0-.068-.033c-.037-.024-.058-.044-.058-.06q0-.12.031-.12.048 0 .143.077.177.142.212.282.043-.164.04-.38l.04-.054q.005-.008.007-.008.004 0 .004.012l.02.25a1.2 1.2 0 0 0 .044.248q.018.058.06.058h.032zm.487-.19a.212.212 0 0 1-.019.088c-.014.032-.035.049-.06.049q-.05 0-.089-.047c-.043.059-.08.089-.116.089a.106.106 0 0 1-.06-.015.141.141 0 0 1-.03-.04q-.038.066-.11.066h-.033v-.093h.043q.053 0 .084-.026a.141.141 0 0 0 .033-.048c.007-.018.015-.026.02-.026q.007 0 .007.012l-.001.014v.016q0 .044.052.045a.1.1 0 0 0 .075-.033.282.282 0 0 0 .035-.063q.013-.034.018-.033.009 0 .012.024.003.03.016.043a.092.092 0 0 0 .043.025q.036.007.036-.01t-.019-.033q.006-.036.02-.08.005-.016.018-.003a.113.113 0 0 1 .025.078m.183.02v.016a.353.353 0 0 1-.03.153q-.004.006-.01.006-.007 0-.006-.01.005-.072-.01-.234l-.018-.167a1.764 1.764 0 0 1-.008-.144q0-.01.02-.046.027-.055.037-.055.008 0 .005.026-.002.026-.002.063 0 .094.022.391m.92-.183a.212.212 0 0 1-.008.043q-.007.031-.01.031l-.027-.01A.106.106 0 0 0 6.39 9.2a.183.183 0 0 0-.115.05q-.056.047-.056.083 0 .043.06.055l.11.019q.06.01.06.042 0 .088-.044.136a.406.406 0 0 1-.12.073.53.53 0 0 1-.22.054.212.212 0 0 1-.135-.04.162.162 0 0 1-.059-.133q0-.131.078-.249.008-.012.014-.011.003 0 .003.005l-.002.01q-.052.114-.052.174 0 .071.055.112a.19.19 0 0 0 .113.034q.128 0 .24-.053.082-.04.082-.056 0-.007-.118-.023-.058-.008-.08-.029-.028-.024-.028-.083 0-.073.083-.17.083-.097.15-.097.017 0 .036.01c.018.007.027.019.027.032m.41.268a.342.342 0 0 1-.077.22q-.075.09-.141.09a.225.225 0 0 1-.138-.057q-.004-.005-.005-.01 0-.01.01-.01l.004.002a.176.176 0 0 0 .07.014q.063 0 .15-.082.086-.079.086-.127c0-.035-.026-.082-.078-.139l.035-.082c.003-.01.008-.012.014-.006q.07.067.07.187m.488.087h-.058q-.006.082-.075.176-.08.109-.175.109-.036 0-.098-.052-.032-.027-.032-.036 0-.005.01-.006a.212.212 0 0 1 .047.01.212.212 0 0 0 .051.01q.065 0 .148-.068.088-.073.088-.139a.282.282 0 0 1-.09-.012q-.04-.015-.04-.058a.247.247 0 0 1 .032-.114q.035-.066.073-.066.035 0 .053.061a.318.318 0 0 1 .016.092h.05zm-.093-.094a.106.106 0 0 0-.018-.042q-.016-.02-.038-.02t-.022.03q0 .035.054.035.013 0 .024-.003m.497.094h-.042a.247.247 0 0 0-.094.017.113.113 0 0 1 .027.078.212.212 0 0 1-.023.096q-.028.052-.07.051-.05 0-.086-.078a.388.388 0 0 1-.03-.135H7.43v-.036a.353.353 0 0 1-.065.007h-.027v-.093h.029q.057 0 .1-.024.024-.066.062-.133.055-.094.098-.093.03 0 .03.077a.268.268 0 0 1-.036.146.353.353 0 0 1-.059.06q.027 0 .082-.017.055-.016.084-.016h.046zm-.153-.2a.046.046 0 0 0-.01-.029q-.008-.014-.023-.014-.033 0-.079.115.112-.04.112-.072m.009.313q0-.028-.05-.051a.212.212 0 0 0-.073-.022.176.176 0 0 0 .022.068q.021.04.051.04.017 0 .031-.008.02-.01.019-.027m.6-.112H8.2a.194.194 0 0 1-.12-.047.176.176 0 0 1-.008.052q-.008.02-.027.02-.036 0-.11-.054a.282.282 0 0 0-.059-.04q.028 0-.028.035-.056.034-.076.034h-.03v-.093h.04q.074 0 .114-.068.045-.074.08-.073.025 0 .06.036l.065.068a.134.134 0 0 0 .09.037h.04zm-.214-.077a.176.176 0 0 0-.01-.06c-.007-.029-.019-.043-.03-.043q-.018 0-.045.045.027.022.085.058m.761-.133l-.023.078H8.69q-.121 0-.188.027a1.411 1.411 0 0 0-.141.071.261.261 0 0 1-.118.034h-.045v-.093h.048q.04 0 .113-.025.098-.035.114-.038.009-.003.01-.005 0-.003-.01-.007l-.082-.03a.198.198 0 0 0-.146-.002q-.011.005-.015 0-.004-.004 0-.018.032-.094.119-.095a.247.247 0 0 1 .084.025q.085.038.113.048.077.024.156.024h.07q.004 0 .004.004zm-.235.332L8.49 9.7l-.072-.052.051-.08zm.991-.733a.12.12 0 0 0-.03.079v.013a14.464 14.464 0 0 1 .026.28q.005.065.004.143a.187.187 0 0 1-.08.158.275.275 0 0 1-.17.052.198.198 0 0 1-.13-.04q-.055-.044-.055-.132 0-.103.064-.193.006-.007.01-.007c.003 0 .005.001.005.006q0 .003-.005.01a.318.318 0 0 0-.035.144q0 .06.047.091a.176.176 0 0 0 .1.026.379.379 0 0 0 .121-.023q.086-.032.084-.079-.024-.386-.059-.505a.064.064 0 0 1 .004-.045l.037-.053q.01-.013.018 0zm.284.611H9.77q-.066 0-.086-.087a2.822 2.822 0 0 1-.018-.19q-.017-.217-.03-.296 0-.006.044-.072.005-.008.009-.008.005 0 .005.014l.028.425q.004.067.011.085.014.035.06.036h.024zm.23 0h-.032q-.075 0-.101-.059a.116.116 0 0 1-.104.06h-.025v-.094h.042q.04 0 .065-.02a.141.141 0 0 0 .027-.038q.012-.02.016-.02.008 0 .015.03.01.047.073.048h.023zm-.077.191l-.05.08-.072-.052.052-.08zm.222-.344a.212.212 0 0 1-.012.062.141.141 0 0 1-.028.055q-.035.037-.101.036h-.035v-.093h.036q.022 0 .057-.006.047-.01.047-.023-.001-.023-.048-.084l.037-.069q.01-.018.017-.002a.247.247 0 0 1 .03.124m.066-.327l-.043.07-.066-.047-.035.058-.069-.051.043-.075.066.048.033-.056zm.488.48h-.06q-.005.082-.074.176-.08.109-.175.109-.037 0-.098-.052-.032-.027-.032-.036 0-.005.009-.006.015 0 .049.01a.212.212 0 0 0 .05.01q.065 0 .148-.068.088-.073.088-.139a.282.282 0 0 1-.09-.012q-.04-.015-.04-.058a.247.247 0 0 1 .032-.114q.035-.066.073-.066.035 0 .053.061a.318.318 0 0 1 .015.092h.052zm-.095-.094a.106.106 0 0 0-.017-.042q-.017-.02-.038-.02-.022 0-.022.03 0 .035.054.035.014 0 .023-.003m.326-.112q0 .101-.03.138a.176.176 0 0 1-.09.05.318.318 0 0 1-.093.018h-.055v-.093h.032a.5.5 0 0 0 .103-.01q.067-.016.093-.044.005-.005.005-.018a.06.06 0 0 0-.017-.045q-.017.058-.087.059a.07.07 0 0 1-.05-.02.07.07 0 0 1-.02-.053q0-.05.029-.108.033-.065.073-.065.034 0 .068.05a.247.247 0 0 1 .04.141m-.088-.048q0-.018-.016-.036t-.033-.018q-.028 0-.028.055 0 .023.028.022.013 0 .029-.006.02-.007.02-.017m.01-.335l-.05.08-.072-.054.051-.08zm.82.434a.268.268 0 0 1-.066.187.226.226 0 0 1-.175.07q-.185 0-.185-.17 0-.098.054-.175.01-.012.017-.013.003 0 .002.005a.035.035 0 0 1-.006.018.23.23 0 0 0-.03.113q0 .063.044.097a.159.159 0 0 0 .1.03.282.282 0 0 0 .163-.045q.049-.031.05-.052 0-.052-.032-.133-.026-.064-.057-.116l.027-.064q.007-.013.01-.013t.01.01q.073.105.073.251m-.198-.36l-.05.081-.071-.053.052-.08zm.687.515h-.058q-.006.082-.076.176-.08.109-.174.109-.037 0-.098-.052-.032-.027-.032-.036 0-.005.009-.006a.212.212 0 0 1 .048.01.212.212 0 0 0 .05.01q.066 0 .15-.068.087-.073.086-.139a.282.282 0 0 1-.09-.012q-.04-.015-.04-.058a.247.247 0 0 1 .033-.114q.035-.066.073-.066.035 0 .053.061a.318.318 0 0 1 .015.092h.051zm-.094-.094a.106.106 0 0 0-.017-.042q-.017-.02-.038-.02t-.022.03q0 .035.054.035.013 0 .023-.003m.325.094h-.032q-.075 0-.1-.059a.113.113 0 0 1-.105.06h-.025v-.094h.042q.04 0 .065-.02a.141.141 0 0 0 .028-.038q.01-.02.015-.02.009 0 .016.03.01.047.073.048h.023zm-.026.186l-.043.07-.066-.046-.034.059-.07-.053.044-.074.063.047.034-.056zm.512-.377a.212.212 0 0 1-.02.09q-.02.048-.06.048-.05 0-.088-.047c-.043.059-.08.089-.116.089q-.04 0-.06-.015a.141.141 0 0 1-.03-.04q-.039.066-.11.066h-.033v-.093h.043q.053 0 .084-.026a.141.141 0 0 0 .033-.048c.007-.018.014-.026.02-.026q.006 0 .006.012v.03q-.001.044.051.045a.1.1 0 0 0 .075-.033.282.282 0 0 0 .036-.063q.013-.034.017-.033c.007 0 .01.008.013.024q.003.03.016.043a.095.095 0 0 0 .043.025q.035.007.035-.01t-.019-.033l.02-.08q.006-.016.018-.003a.113.113 0 0 1 .026.078m.183.02v.016a.353.353 0 0 1-.031.153q-.003.006-.01.006t-.005-.01q.004-.072-.01-.234l-.018-.167a1.764 1.764 0 0 1-.008-.144q0-.01.019-.046.028-.055.038-.055.007 0 .005.026-.003.026-.002.063 0 .094.022.391m.41.085a.342.342 0 0 1-.077.22q-.075.09-.141.09a.23.23 0 0 1-.138-.057q-.004-.005-.005-.01 0-.01.01-.01s.003 0 .004.002a.176.176 0 0 0 .07.014q.064 0 .15-.082.086-.079.085-.127c0-.035-.025-.082-.077-.139l.035-.082q.005-.014.014-.006.071.067.07.187m.555.087h-.045q-.087 0-.11-.143-.044.12-.176.12a.353.353 0 0 1-.07-.009q-.05-.014-.05-.044 0-.014.024-.096.003-.012.01-.013.008 0 .01.016.004.055.095.055.146 0 .146-.09 0-.038-.014-.115a.706.706 0 0 1-.015-.115q0-.016.033-.073.007-.01.01-.01.005 0 .006.015l.039.297q.015.112.071.112h.036zm.23-.206q0 .101-.03.138a.176.176 0 0 1-.089.05.318.318 0 0 1-.094.018h-.055v-.093h.032a.5.5 0 0 0 .103-.01q.067-.016.094-.044.004-.005.004-.018a.06.06 0 0 0-.017-.045q-.016.058-.087.059a.07.07 0 0 1-.05-.02.07.07 0 0 1-.02-.053q0-.05.03-.108.033-.065.072-.065.034 0 .069.05a.247.247 0 0 1 .039.141m-.088-.048q0-.018-.016-.036t-.032-.018q-.028 0-.03.055.001.023.03.022.013 0 .028-.006.02-.007.02-.017m.01-.335l-.05.08-.071-.054.05-.08zM6.656 13.8h.156v.71h-.156zm.306.709v-.708h.33q.123 0 .18.018a.18.18 0 0 1 .09.069.2.2 0 0 1 .033.111.18.18 0 0 1-.05.132.26.26 0 0 1-.153.065.4.4 0 0 1 .083.06q.032.033.089.115l.094.138h-.187l-.111-.154a1 1 0 0 0-.084-.104.1.1 0 0 0-.046-.03.3.3 0 0 0-.08-.008h-.032v.296zm.156-.409h.116a.6.6 0 0 0 .14-.009.08.08 0 0 0 .06-.083.08.08 0 0 0-.02-.058.1.1 0 0 0-.06-.028l-.113-.002h-.123zm1.322.409h-.169l-.067-.161h-.31l-.065.16h-.166l.301-.707h.165zm-.287-.281l-.106-.262-.106.262zm.37.28v-.707h.152l.319.474v-.474h.145v.708h-.157l-.314-.466v.466z"/><path d="M6.656 14.51v-.708h.157v.708zm.306 0v-.708h.33q.124 0 .18.018a.187.187 0 0 1 .124.18.183.183 0 0 1-.051.132q-.052.052-.152.065a.353.353 0 0 1 .083.06q.032.033.088.114l.095.139H7.47l-.111-.155a1.058 1.058 0 0 0-.083-.103.116.116 0 0 0-.047-.03.353.353 0 0 0-.08-.008H7.12v.296zm.157-.409h.116q.112 0 .14-.008a.081.081 0 0 0 .043-.03.088.088 0 0 0 .017-.054.081.081 0 0 0-.02-.058.106.106 0 0 0-.06-.028 1.764 1.764 0 0 0-.114-.002h-.122zm1.321.409h-.168l-.067-.161h-.31l-.066.161h-.165l.3-.708h.166zm-.286-.281l-.107-.262-.105.262zm.37.281v-.708h.151l.32.474v-.474h.144v.708h-.157l-.314-.466v.466z" fill="none" stroke="#000" stroke-width=".076" stroke-miterlimit="2.613"/><path d="M1.848 10.35h-.354v.025q0 .059.017.096a.141.141 0 0 0 .057.063.247.247 0 0 0 .11.034v.023h-.431v-.023q.122-.013.16-.068a.212.212 0 0 0 .04-.125v-.025h-.263a.282.282 0 0 0-.084.007.07.07 0 0 0-.028.029.116.116 0 0 0-.013.059v.029h-.022v-.462h.022v.029q0 .039.014.062a.06.06 0 0 0 .03.026.247.247 0 0 0 .08.008h.568a.282.282 0 0 0 .083-.007.07.07 0 0 0 .03-.03.116.116 0 0 0 .012-.058v-.03h.022l-.001.748H1.65v-.027q.087-.01.13-.047a.212.212 0 0 0 .058-.109q.01-.04.01-.145zm.059.966q.007.213-.12.345a.423.423 0 0 1-.319.132q-.163 0-.287-.099-.165-.13-.165-.37t.158-.37q.124-.104.295-.104.191 0 .318.135.128.135.12.331m-.04.008q0-.122-.12-.186-.099-.052-.284-.052-.22 0-.325.08a.183.183 0 0 0-.074.156q0 .068.032.113a.258.258 0 0 0 .13.09.706.706 0 0 0 .231.033q.17 0 .255-.033.085-.033.12-.084a.201.201 0 0 0 .035-.117m.039 1.034q.007.212-.12.345a.423.423 0 0 1-.319.132q-.163 0-.287-.1-.165-.13-.165-.37t.158-.37q.124-.103.294-.103.192 0 .319.135.128.135.12.331m-.04.008q0-.122-.12-.186-.1-.052-.284-.052-.22 0-.325.08a.187.187 0 0 0-.074.156q0 .067.032.113a.258.258 0 0 0 .13.09.706.706 0 0 0 .231.032q.17 0 .255-.032.085-.033.12-.084a.201.201 0 0 0 .035-.117m.028 1.363h-.232v-.023q.08-.022.115-.047.036-.025.057-.07a.247.247 0 0 0 .011-.087v-.067h-.664a.282.282 0 0 0-.083.007.07.07 0 0 0-.03.029.116.116 0 0 0-.012.059v.029h-.022v-.462h.022v.029q0 .038.014.062a.064.064 0 0 0 .03.027.282.282 0 0 0 .08.007h.666v-.064q0-.09-.037-.13a.24.24 0 0 0-.147-.071v-.026h.233zm-.404.642q-.029.127-.07.178a.183.183 0 0 1-.15.074.198.198 0 0 1-.16-.08q-.077-.1-.077-.288v-.451h.023a.212.212 0 0 0 .01.083.07.07 0 0 0 .03.031q.018.01.088.01h.56q.07 0 .088-.01a.064.064 0 0 0 .03-.03q.01-.023.01-.083h.022v.425q0 .153-.027.216a.222.222 0 0 1-.078.1.19.19 0 0 1-.111.037.155.155 0 0 1-.111-.047q-.049-.047-.077-.165m.017-.238a.353.353 0 0 0 .02.138.155.155 0 0 0 .057.068.176.176 0 0 0 .094.024q.057 0 .094-.023a.148.148 0 0 0 .056-.067q.019-.044.018-.14zm-.05 0h-.305q-.035 0-.052.017-.018.017-.018.052 0 .052.023.095a.152.152 0 0 0 .065.067.222.222 0 0 0 .202-.003.141.141 0 0 0 .068-.077q.02-.05.019-.151m-.18 1.092v-.31l-.084-.039a.176.176 0 0 0-.07-.018.056.056 0 0 0-.054.03.247.247 0 0 0-.015.087h-.022v-.295h.022a.134.134 0 0 0 .038.078q.033.031.132.076l.685.318v.012l-.705.32q-.101.045-.127.075a.106.106 0 0 0-.024.063h-.022v-.43h.023v.018q0 .052.014.073a.035.035 0 0 0 .029.014q.012 0 .024-.003l.048-.02zm.046-.02l.294-.133-.293-.136zm.008 1.278l-.3-.033v-.787h.022v.03q0 .038.013.062a.06.06 0 0 0 .031.026.282.282 0 0 0 .08.007h.568q.066 0 .083-.007a.07.07 0 0 0 .029-.029.116.116 0 0 0 .012-.058v-.03h.022v.473H1.87v-.039a.123.123 0 0 0-.014-.062.064.064 0 0 0-.03-.027.282.282 0 0 0-.08-.007L1.195 16a.282.282 0 0 0-.084.008.053.053 0 0 0-.027.03.353.353 0 0 0-.005.079v.074q0 .07.023.117a.212.212 0 0 0 .076.081q.052.035.153.065zm.076.866l-.303-.01-.06-.785.023-.001.002.029a.141.141 0 0 0 .018.06.06.06 0 0 0 .033.025.282.282 0 0 0 .08 0l.566-.042a.282.282 0 0 0 .082-.014q.017-.008.027-.03.01-.023.008-.06l-.002-.03.022-.002.035.472-.022.002-.002-.039a.127.127 0 0 0-.019-.061.064.064 0 0 0-.032-.025.247.247 0 0 0-.08 0l-.548.04a.282.282 0 0 0-.084.015q-.017.009-.024.032a.353.353 0 0 0 0 .08l.005.073a.247.247 0 0 0 .033.115.212.212 0 0 0 .082.075.6.6 0 0 0 .158.053zm.598.526l-.346.072.005.025a.247.247 0 0 0 .036.09.148.148 0 0 0 .07.05.247.247 0 0 0 .114.011l.004.022-.422.088-.005-.022q.118-.037.144-.1.028-.06.013-.13l-.005-.025-.258.054a.282.282 0 0 0-.08.024.07.07 0 0 0-.022.035.116.116 0 0 0 0 .06l.005.028-.021.005-.095-.453.022-.004.006.029a.127.127 0 0 0 .026.058.06.06 0 0 0 .035.019.247.247 0 0 0 .08-.01l.556-.115a.318.318 0 0 0 .08-.024q.014-.01.022-.034a.116.116 0 0 0 0-.06l-.006-.029.022-.005.152.732-.241.05-.006-.026q.084-.026.117-.072a.212.212 0 0 0 .035-.119.706.706 0 0 0-.02-.144zm.152.715l-.334.106.005.017q.026.08.086.101.061.021.16 0l.007.025-.43.136-.007-.024a.318.318 0 0 0 .105-.068q.037-.038.042-.075a.23.23 0 0 0-.014-.097l-.23.073a.353.353 0 0 0-.081.032.053.053 0 0 0-.018.03.106.106 0 0 0 .007.056l.016.05q.038.119.114.173t.194.052l.007.022-.272.045-.232-.73.02-.007.01.028a.127.127 0 0 0 .031.055.06.06 0 0 0 .037.016.282.282 0 0 0 .08-.018l.54-.172q.056-.017.067-.024a.064.064 0 0 0 .026-.034.116.116 0 0 0-.003-.07l-.01-.028.022-.007.224.707-.242.078-.007-.025q.083-.046.111-.091.028-.045.028-.11a.564.564 0 0 0-.03-.134zm-.613.768l.02-.007.01.028a.12.12 0 0 0 .031.052.07.07 0 0 0 .04.018.282.282 0 0 0 .079-.021l.535-.186a.282.282 0 0 0 .077-.034.07.07 0 0 0 .017-.037.12.12 0 0 0-.007-.06l-.01-.028.021-.007.13.375q.052.15.044.256a.377.377 0 0 1-.087.22.459.459 0 0 1-.203.135.459.459 0 0 1-.168.026.388.388 0 0 1-.145-.032.388.388 0 0 1-.111-.078.6.6 0 0 1-.143-.245zm.878.053l-.634.22a.212.212 0 0 0-.06.026.035.035 0 0 0-.012.023.106.106 0 0 0 .008.051q.036.104.123.135.119.042.313-.025.157-.055.232-.138a.226.226 0 0 0 .064-.138q.003-.05-.034-.154m.339.775l-.309.166.008.016q.04.074.104.084t.156-.03l.012.023-.397.213-.012-.022a.318.318 0 0 0 .09-.086.141.141 0 0 0 .028-.082.23.23 0 0 0-.031-.093l-.213.115a.353.353 0 0 0-.074.046.053.053 0 0 0-.011.033.106.106 0 0 0 .017.053l.025.047q.058.11.143.149.084.04.2.015l.012.02-.26.095-.362-.675.019-.01.014.026a.123.123 0 0 0 .04.048.06.06 0 0 0 .04.008.247.247 0 0 0 .075-.032l.5-.268q.05-.028.061-.038.017-.016.019-.037a.116.116 0 0 0-.016-.068l-.014-.026.02-.01.35.653-.223.12-.012-.022q.073-.06.092-.11t.007-.114q-.007-.037-.055-.125zm.053.921l-.199.14a.247.247 0 0 0-.066.058.064.064 0 0 0-.006.042.212.212 0 0 0 .04.075l-.018.012-.262-.37.017-.013a.212.212 0 0 0 .058.062.07.07 0 0 0 .041.008.247.247 0 0 0 .077-.043l.458-.325a.247.247 0 0 0 .067-.057.07.07 0 0 0 .006-.042.212.212 0 0 0-.04-.075l.018-.012.238.336q.093.132.119.205a.236.236 0 0 1 .005.146.212.212 0 0 1-.084.117.201.201 0 0 1-.17.033.282.282 0 0 1-.12-.07l-.116.343a.459.459 0 0 0-.023.09.113.113 0 0 0 .019.063l-.02.013-.16-.228.154-.46zm.343-.242l-.306.216.021.03q.053.075.092.103a.134.134 0 0 0 .088.024.212.212 0 0 0 .105-.042q.08-.056.09-.123.011-.065-.05-.151zm.286 1.264l-.211-.228-.088.029a.212.212 0 0 0-.064.034.06.06 0 0 0-.02.06.282.282 0 0 0 .049.073l-.016.015-.201-.216.016-.015a.13.13 0 0 0 .082.031q.044.001.147-.034l.719-.233.008.01-.299.713q-.043.102-.042.142 0 .03.026.062l-.016.015-.292-.315.016-.015.012.013q.035.038.06.043.017.004.031-.009a.07.07 0 0 0 .015-.02l.022-.046zm.02-.047l.125-.297-.307.1zm1.205.316l-.147.18-.018-.014q.035-.076.037-.12a.176.176 0 0 0-.019-.087.247.247 0 0 0-.06-.064l-.052-.042-.42.515a.282.282 0 0 0-.046.07.07.07 0 0 0 .004.04.106.106 0 0 0 .038.047l.023.019-.014.017-.359-.292.014-.017.023.019a.127.127 0 0 0 .056.028.07.07 0 0 0 .04-.007.247.247 0 0 0 .057-.058l.419-.515-.05-.04q-.07-.057-.123-.054a.24.24 0 0 0-.148.068l-.02-.016.147-.18zm-.088.954l-.013.018-.378-.265.013-.018.023.016a.123.123 0 0 0 .06.025.056.056 0 0 0 .038-.01.282.282 0 0 0 .052-.062l.326-.464a.282.282 0 0 0 .042-.072.07.07 0 0 0-.007-.04.12.12 0 0 0-.041-.044l-.024-.017.013-.018.378.265-.013.018-.024-.016a.12.12 0 0 0-.058-.025.064.064 0 0 0-.04.01.247.247 0 0 0-.051.062l-.327.464a.282.282 0 0 0-.041.072.07.07 0 0 0 .007.04.12.12 0 0 0 .04.044zm.847-.514q.194.084.26.256a.423.423 0 0 1-.017.344.452.452 0 0 1-.212.218q-.189.093-.405-.01-.217-.102-.267-.3-.04-.157.032-.31.082-.173.258-.231.176-.058.35.033m-.01.04q-.11-.053-.219.029-.089.067-.168.234-.094.198-.067.328a.187.187 0 0 0 .11.133.194.194 0 0 0 .115.02.261.261 0 0 0 .137-.079q.067-.066.129-.196.072-.153.08-.244a.247.247 0 0 0-.026-.144.205.205 0 0 0-.09-.081m.673.243l.27.634.104-.355q.022-.075.008-.108-.02-.044-.092-.064l.006-.021.282.082-.006.021a.247.247 0 0 0-.078-.003.07.07 0 0 0-.039.026.247.247 0 0 0-.035.08l-.2.688-.021-.006-.375-.856-.154.526q-.02.072.006.107a.134.134 0 0 0 .07.048l.02.006-.006.02-.304-.088.006-.02q.07.019.107 0 .035-.02.055-.086l.17-.584-.011-.027a.176.176 0 0 0-.035-.058.141.141 0 0 0-.056-.03l.006-.02zm1.188 1.088l-.002.023-.459-.055.002-.022.03.004a.127.127 0 0 0 .063-.006.056.056 0 0 0 .03-.028.247.247 0 0 0 .016-.079l.066-.563a.282.282 0 0 0 .003-.084.07.07 0 0 0-.026-.032.116.116 0 0 0-.057-.02l-.029-.003.003-.022.458.055-.002.022-.029-.004a.123.123 0 0 0-.063.006.06.06 0 0 0-.03.028.247.247 0 0 0-.016.079l-.067.563a.282.282 0 0 0-.002.083.07.07 0 0 0 .025.033.12.12 0 0 0 .057.019zm.697-.825l-.006.287-.026-.001a.29.29 0 0 0-.086-.178.24.24 0 0 0-.158-.072.155.155 0 0 0-.107.03.106.106 0 0 0-.042.077.106.106 0 0 0 .011.052.212.212 0 0 0 .059.06q.03.024.138.081.153.082.204.15a.24.24 0 0 1-.048.334.318.318 0 0 1-.224.068.388.388 0 0 1-.17-.048.141.141 0 0 0-.051-.014.07.07 0 0 0-.037.011.088.088 0 0 0-.033.038l-.023-.001.015-.325.023.001q.023.138.101.214a.265.265 0 0 0 .174.08.173.173 0 0 0 .119-.034.116.116 0 0 0 .047-.088.106.106 0 0 0-.014-.06.176.176 0 0 0-.048-.056.706.706 0 0 0-.118-.072 1.058 1.058 0 0 1-.17-.106.318.318 0 0 1-.076-.094.212.212 0 0 1-.024-.112.23.23 0 0 1 .086-.171q.08-.07.2-.064a.353.353 0 0 1 .156.045.176.176 0 0 0 .06.024.035.035 0 0 0 .028-.01q.01-.01.02-.047zm.886.495v.304l-.78.087-.003-.022.029-.003q.038-.005.06-.02a.06.06 0 0 0 .023-.034q.005-.016-.002-.08l-.064-.564a.282.282 0 0 0-.016-.082.064.064 0 0 0-.032-.025.106.106 0 0 0-.06-.006l-.03.003-.002-.022.47-.053.003.022-.039.004a.123.123 0 0 0-.06.02.07.07 0 0 0-.024.034.247.247 0 0 0 .002.081l.061.546a.282.282 0 0 0 .017.082.05.05 0 0 0 .034.024.353.353 0 0 0 .079-.003l.073-.009q.07-.008.114-.036a.212.212 0 0 0 .072-.085q.028-.055.047-.16zm.562-.067l-.301.077-.017.09a.176.176 0 0 0 0 .073.06.06 0 0 0 .042.045.282.282 0 0 0 .089-.007l.005.021-.285.073-.006-.02a.134.134 0 0 0 .066-.058q.022-.039.041-.146l.137-.742.012-.004.485.604q.07.087.104.105a.106.106 0 0 0 .067.007l.006.021-.416.106-.005-.02.017-.005q.05-.013.067-.032.01-.014.006-.032a.07.07 0 0 0-.01-.023.706.706 0 0 0-.03-.042zm-.032-.04l-.2-.252-.06.318zm.957-.335l-.021-.617.325-.153.01.02-.027.012a.127.127 0 0 0-.05.04.06.06 0 0 0-.011.038q0 .017.027.076l.242.514a.282.282 0 0 0 .041.072.07.07 0 0 0 .04.013.12.12 0 0 0 .058-.013l.026-.013.01.02-.419.197-.01-.02.027-.012a.127.127 0 0 0 .05-.04q.011-.015.011-.038a.247.247 0 0 0-.027-.076l-.271-.577.024.855-.014.006-.643-.557.257.548q.027.058.036.07a.095.095 0 0 0 .056.03.159.159 0 0 0 .09-.019l.008.02-.275.129-.009-.02.009-.004q.026-.012.045-.031a.106.106 0 0 0 .024-.04.106.106 0 0 0-.002-.052q-.001-.007-.026-.06l-.231-.492a.282.282 0 0 0-.042-.072.07.07 0 0 0-.039-.014.123.123 0 0 0-.059.014l-.026.012-.01-.02.329-.154zm1.145-.327l.012.019-.395.24-.011-.02.024-.015a.127.127 0 0 0 .047-.043.06.06 0 0 0 .006-.04.282.282 0 0 0-.036-.073l-.294-.484a.282.282 0 0 0-.05-.068.064.064 0 0 0-.04-.01.106.106 0 0 0-.056.02l-.025.016-.012-.019.395-.24.011.019-.025.015a.127.127 0 0 0-.045.043.064.064 0 0 0-.007.04.282.282 0 0 0 .036.073l.294.485a.282.282 0 0 0 .05.067.07.07 0 0 0 .04.01q.025-.001.056-.02zm.174-1.25l.188.23-.02.017a.318.318 0 0 0-.196-.072.279.279 0 0 0-.266.195.272.272 0 0 0-.002.158q.029.1.103.191.073.09.156.145a.282.282 0 0 0 .164.052.265.265 0 0 0 .16-.067q.064-.053.095-.124.032-.072.037-.188l.047.058a.494.494 0 0 1-.051.183.494.494 0 0 1-.125.145.55.55 0 0 1-.23.116.399.399 0 0 1-.232-.015.423.423 0 0 1-.186-.134q-.077-.095-.096-.222-.018-.128.031-.246a.5.5 0 0 1 .325-.292.353.353 0 0 0 .074-.03.05.05 0 0 0 .019-.035.081.081 0 0 0-.015-.05zm.76-.137l.189.152a.282.282 0 0 0 .074.049.07.07 0 0 0 .042-.007q.022-.01.06-.058l.018.014-.286.353-.017-.014q.038-.047.044-.071a.07.07 0 0 0-.003-.042q-.009-.019-.063-.062l-.436-.354a.247.247 0 0 0-.074-.048.064.064 0 0 0-.042.006.212.212 0 0 0-.061.058l-.017-.014.26-.32q.1-.126.164-.17.064-.045.14-.045a.212.212 0 0 1 .135.05.198.198 0 0 1 .077.154.296.296 0 0 1-.033.135l.36.018q.07.002.093-.003a.116.116 0 0 0 .056-.035l.018.015-.176.217-.485-.024zm-.326-.265l.29.236.025-.029q.057-.07.073-.116a.141.141 0 0 0 0-.092.212.212 0 0 0-.07-.089q-.076-.061-.142-.054-.066.007-.133.09zm.557-.785l.275.217.01-.014q.053-.066.036-.128t-.089-.132l.016-.02.354.279-.015.02a.318.318 0 0 0-.116-.049.141.141 0 0 0-.085.007.247.247 0 0 0-.073.067l.19.15a.353.353 0 0 0 .072.048.053.053 0 0 0 .035-.003.106.106 0 0 0 .042-.036l.032-.042q.077-.098.08-.191.003-.093-.067-.19l.015-.019.19.2-.473.603-.018-.013.018-.023a.141.141 0 0 0 .028-.057.06.06 0 0 0-.008-.04.247.247 0 0 0-.059-.055l-.446-.351a.459.459 0 0 0-.058-.042.06.06 0 0 0-.043-.002.116.116 0 0 0-.056.042l-.018.023-.017-.014.459-.583.2.157-.016.02q-.085-.043-.138-.04a.194.194 0 0 0-.107.039.53.53 0 0 0-.094.1zm.73-.452l.21.11q.063.033.083.034a.064.064 0 0 0 .04-.014.212.212 0 0 0 .049-.068l.02.01-.21.4-.02-.01a.212.212 0 0 0 .029-.08.07.07 0 0 0-.011-.041.282.282 0 0 0-.074-.049l-.496-.26a.247.247 0 0 0-.082-.033.064.064 0 0 0-.04.014.212.212 0 0 0-.049.069l-.02-.01.18-.343q.09-.17.186-.213a.201.201 0 0 1 .185.003.212.212 0 0 1 .102.115.282.282 0 0 1 .004.169q-.016.063-.087.197m-.373-.196l.33.173.016-.028q.037-.071.017-.131-.022-.06-.107-.105-.085-.044-.144-.027t-.1.094zm.118-.342l.15-.433.02.007-.007.022a.176.176 0 0 0-.013.07.064.064 0 0 0 .018.036.318.318 0 0 0 .085.038l.398.137q.11.038.15.033a.148.148 0 0 0 .079-.036.201.201 0 0 0 .057-.09.23.23 0 0 0 .01-.126.194.194 0 0 0-.057-.1q-.044-.042-.173-.086l-.332-.114a.212.212 0 0 0-.083-.016.07.07 0 0 0-.043.019.176.176 0 0 0-.04.074l-.021-.007.1-.29.02.007-.006.017a.127.127 0 0 0-.006.063.085.085 0 0 0 .03.049.212.212 0 0 0 .067.032l.309.106q.143.05.2.09t.084.136q.028.094-.017.224-.038.109-.086.158a.261.261 0 0 1-.138.08.353.353 0 0 1-.172-.022l-.399-.136a.318.318 0 0 0-.09-.023.07.07 0 0 0-.038.019.176.176 0 0 0-.035.07zm.8-1.278q.054-.119.104-.16a.183.183 0 0 1 .161-.043.198.198 0 0 1 .142.111q.055.113.017.297l-.09.442-.022-.005a.212.212 0 0 0 .006-.084.07.07 0 0 0-.023-.036.247.247 0 0 0-.084-.026l-.548-.113q-.07-.014-.089-.009a.07.07 0 0 0-.035.025.212.212 0 0 0-.027.08l-.022-.005.086-.417q.03-.15.07-.207a.226.226 0 0 1 .096-.082.19.19 0 0 1 .117-.013.155.155 0 0 1 .099.068q.038.055.042.177m-.065.23q.019-.092.008-.14a.155.155 0 0 0-.042-.078.176.176 0 0 0-.087-.042.17.17 0 0 0-.096.004.141.141 0 0 0-.068.055q-.028.038-.047.133zm.049.01l.27.055.03.007q.034.007.055-.007.02-.014.027-.048a.212.212 0 0 0-.002-.097.155.155 0 0 0-.05-.079.22.22 0 0 0-.2-.038.141.141 0 0 0-.081.062.459.459 0 0 0-.05.145m.403-1.336l.286.1-.175.767-.022-.006.006-.028a.127.127 0 0 0 .001-.063.056.056 0 0 0-.024-.033.247.247 0 0 0-.076-.025l-.554-.126a.282.282 0 0 0-.082-.012.07.07 0 0 0-.035.022.12.12 0 0 0-.025.055l-.007.028-.021-.005.105-.46.022.004-.009.038a.127.127 0 0 0 0 .064.06.06 0 0 0 .023.033.247.247 0 0 0 .077.025l.535.123a.282.282 0 0 0 .084.01q.02-.003.033-.023.01-.015.023-.075l.017-.072q.015-.069.003-.12a.212.212 0 0 0-.056-.096.6.6 0 0 0-.135-.097zm.27-.472h.021l-.003.462h-.022v-.03a.127.127 0 0 0-.013-.062.06.06 0 0 0-.03-.026.282.282 0 0 0-.081-.008l-.567-.004a.282.282 0 0 0-.083.007.07.07 0 0 0-.03.029.12.12 0 0 0-.013.058v.03h-.022l.004-.462h.022v.029a.123.123 0 0 0 .012.062.064.064 0 0 0 .031.026.282.282 0 0 0 .08.008l.568.004a.282.282 0 0 0 .083-.006.07.07 0 0 0 .029-.03.12.12 0 0 0 .013-.058zm-.852-.932l.298.002v.025a.318.318 0 0 0-.18.106.278.278 0 0 0 .101.432q.096.041.214.042.115 0 .21-.028a.282.282 0 0 0 .144-.093q.05-.064.05-.166a.335.335 0 0 0-.034-.153q-.035-.07-.121-.147h.074q.074.075.108.156a.494.494 0 0 1 .033.189.564.564 0 0 1-.057.251.399.399 0 0 1-.16.169.423.423 0 0 1-.22.058.445.445 0 0 1-.233-.068.459.459 0 0 1-.17-.18.5.5 0 0 1-.019-.437.282.282 0 0 0 .023-.076.05.05 0 0 0-.014-.037.081.081 0 0 0-.047-.02zm.016-.925q-.006-.213.122-.344.128-.132.32-.13.163 0 .286.1.164.132.162.371-.001.24-.16.37a.445.445 0 0 1-.295.101.423.423 0 0 1-.318-.137q-.126-.135-.117-.331m.04-.008q0 .122.119.187.098.052.283.054.22.001.326-.078.074-.055.074-.156a.194.194 0 0 0-.03-.113.261.261 0 0 0-.13-.09.706.706 0 0 0-.231-.035q-.17 0-.255.031-.085.032-.12.083a.201.201 0 0 0-.036.117m.026-.885l.354.002v-.026a.247.247 0 0 0-.016-.096.152.152 0 0 0-.057-.063.247.247 0 0 0-.11-.035v-.022l.432.003v.023q-.123.01-.162.066a.212.212 0 0 0-.04.125v.025l.264.002a.282.282 0 0 0 .083-.006.07.07 0 0 0 .029-.03.116.116 0 0 0 .013-.058v-.03h.022l-.003.463h-.022v-.03a.123.123 0 0 0-.013-.062.06.06 0 0 0-.03-.026.247.247 0 0 0-.081-.008l-.567-.004a.282.282 0 0 0-.083.007.07.07 0 0 0-.03.028.12.12 0 0 0-.013.06v.029h-.022l.006-.748.246.002v.027q-.087.008-.129.046a.212.212 0 0 0-.06.108.706.706 0 0 0-.01.146zm.798-1.219h.022l-.003.463h-.022v-.03a.127.127 0 0 0-.013-.062.06.06 0 0 0-.03-.026.247.247 0 0 0-.081-.008l-.567-.004a.282.282 0 0 0-.083.007.07.07 0 0 0-.03.028.12.12 0 0 0-.013.06v.029h-.022l.003-.463h.023v.03a.123.123 0 0 0 .012.062.064.064 0 0 0 .03.026.282.282 0 0 0 .081.008l.568.004a.247.247 0 0 0 .083-.007q.016-.007.029-.029a.12.12 0 0 0 .013-.058zm-.367-.39l.243.001a.247.247 0 0 0 .088-.008.064.064 0 0 0 .028-.031q.011-.022.012-.083h.022l-.004.454h-.021a.212.212 0 0 0-.011-.084.07.07 0 0 0-.029-.03q-.017-.01-.087-.01l-.562-.004a.247.247 0 0 0-.088.008.064.064 0 0 0-.028.03.212.212 0 0 0-.012.084h-.022l.003-.413q.001-.161.023-.235a.233.233 0 0 1 .08-.121q.06-.047.137-.047a.201.201 0 0 1 .158.072.282.282 0 0 1 .058.127l.293-.21q.056-.042.07-.06.02-.026.022-.062h.024l-.003.28-.394.283zm-.42-.004l.374.003v-.037a.423.423 0 0 0-.014-.137.141.141 0 0 0-.058-.071.212.212 0 0 0-.11-.027q-.097 0-.144.046t-.048.153zm.575-1.162l-.002.31.084.04a.176.176 0 0 0 .07.018.056.056 0 0 0 .054-.03.282.282 0 0 0 .016-.086h.022l-.002.294h-.023a.134.134 0 0 0-.037-.078.53.53 0 0 0-.131-.077l-.683-.322v-.013l.707-.314q.101-.045.128-.075.02-.022.023-.062h.022l-.003.429h-.022v-.018q0-.052-.014-.072-.01-.015-.029-.015a.07.07 0 0 0-.024.004.706.706 0 0 0-.048.019zm-.047.02l-.294.13.293.138zm-.563-.77l.536-.433-.369-.002q-.078 0-.106.022-.037.031-.036.105h-.022l.002-.293h.022a.247.247 0 0 0 .017.076.078.078 0 0 0 .037.03.247.247 0 0 0 .086.011l.717.006v.022l-.722.594.549.004q.075 0 .1-.034a.127.127 0 0 0 .027-.08v-.022h.023l-.002.316h-.022q0-.073-.03-.103t-.097-.029l-.608-.004-.023.018a.176.176 0 0 0-.046.05.141.141 0 0 0-.013.061h-.022z"/><path d="M8.286 3.99a.689.689 0 0 1 .177 1.258.93.93 0 0 0 .166-.54.878.878 0 0 0-.343-.718m-.21-.318v.023c0 .088-.05.16-.112.16a.095.095 0 0 1-.074-.04h-.06a.099.099 0 0 1-.074.04c-.063 0-.113-.072-.113-.16v-.02.004c0 .058.05.106.112.106a.112.112 0 0 0 .097-.054h.014a.113.113 0 0 0 .097.054.109.109 0 0 0 .111-.106v-.007zm-.322.343V5.19c-.172-.075-.409-.494-.323-.865.03-.133.079-.199.111-.309-.286.153-.393.67-.126 1.085.08.124.21.203.242.271l-.261.054c.094.058.259.04.377.036l.083.116c.077-.035.036-.033.115-.114.064 0 .195.01.255-.005l.072-.03c-.096-.049-.15-.01-.221-.086.453-.24.55-1.093.116-1.328.04.168.195.336.106.69-.075.301-.298.475-.316.506L7.98 4.005c-.063-.032-.054-.046-.122-.064zm-.319-.025a.69.69 0 0 0-.176 1.258.931.931 0 0 1-.166-.54c0-.305.137-.572.342-.718" fill="#da1f26" fill-rule="evenodd"/><path d="M14.551 6.141h.03v.185h-.175v-.08h-.094v.04h.066v.04h-.092v-.12h.12v-.065h.015v.146h.052V6.14h.03v.146h.048zm-.183.04h-.316v-.026h.316zm-.21.065v.04h.089v-.04h-.062v-.039h.077v.119h-.132v-.08h-.063v.08h-.016v-.119h.107zm-.053.08h-.026v-.04h.026zm-.115-.185h.03v.185h-.175v-.08h-.094v.04h.066v.04h-.091v-.12h.119v-.065h.016v.146h.05V6.14h.031v.146h.048zm-.183.04h-.316v-.026h.316zm-.21.065v.04h.089v-.04h-.062v-.039h.077v.119h-.132v-.08h-.063v.08h-.016v-.119h.107zm-.053.08h-.026v-.04h.026zm-.11-.185h.031v.185h-.176v-.08h-.094v.04h.066v.04h-.092v-.12h.12v-.065h.015v.146h.052V6.14h.03v.146h.048zm-.183.04h-.316v-.026h.316zm-.21.065v.04h.089v-.04h-.062v-.039h.077v.119h-.132v-.08h-.063v.08h-.016v-.119h.107zm-.053.08h-.026v-.04h.026zm-.114-.185h.03v.185h-.175v-.08h-.094v.04h.065v.04h-.09v-.12h.119v-.065h.015v.146h.052V6.14h.03v.146h.048zm-.183.04h-.316v-.026h.316zm-.21.065v.04h.089v-.04h-.062v-.039h.077v.119h-.132v-.08h-.063v.08h-.016v-.119h.107zm-.053.08h-.026v-.04h.026zm-.111-.185h.031v.185h-.176v-.08h-.094v.04h.066v.04h-.092v-.12h.12v-.065h.015v.146h.052V6.14h.03v.146h.048zm-.183.04h-.316v-.026h.316zm-.21.065v.04h.089v-.04h-.062v-.039h.077v.119h-.132v-.08h-.063v.08h-.016v-.119h.107zm-.053.08h-.026v-.04h.026zm-.114-.185h.03v.185h-.175v-.08h-.094v.04h.066v.04h-.092v-.12h.12v-.065h.015v.146h.052V6.14h.03v.146h.048zm-.183.04h-.316v-.026h.316zm-.21.065v.04h.089v-.04h-.062v-.039h.077v.119h-.132v-.08h-.063v.08h-.016v-.119h.107zm-.053.08h-.026v-.04h.026zm-.115-.185h.031v.185h-.176v-.08h-.094v.04h.066v.04h-.092v-.12h.12v-.065h.015v.146h.052V6.14h.03v.146h.048zm-.183.04h-.316v-.026h.316zm-.21.065v.04h.089v-.04h-.062v-.039h.077v.119h-.132v-.08h-.063v.08h-.016v-.119h.107zm-.053.08h-.026v-.04h.026zm-.115-.185h.03v.185h-.175v-.08h-.094v.04h.066v.04h-.092v-.12h.12v-.065h.015v.146h.052V6.14h.03v.146h.048zm-.183.04h-.316v-.026h.316zm-.21.065v.04h.089v-.04h-.062v-.039h.077v.119h-.132v-.08h-.063v.08h-.016v-.119h.107zm-.053.08h-.026v-.04h.026zm-.11-.185h.03v.185h-.175v-.08H9.84v.04h.065v.04h-.09v-.12h.119v-.065h.015v.146h.052V6.14h.03v.146h.048zm-.183.04H9.58v-.026h.316zm-.21.065v.04h.089v-.04h-.062v-.039h.077v.119h-.132v-.08h-.063v.08h-.016v-.119h.107zm-.053.08h-.026v-.04h.026zm-.115-.185h.03v.185h-.175v-.08h-.094v.04h.066v.04h-.092v-.12h.12v-.065h.016v.146h.05V6.14h.031v.146h.048zm-.183.04h-.316v-.026h.316zm-.21.065v.04h.089v-.04h-.062v-.039h.077v.119h-.132v-.08h-.063v.08h-.016v-.119h.107zm-.053.08h-.026v-.04h.026zm-.11-.185h.03v.185h-.175v-.08h-.094v.04h.065v.04h-.09v-.12h.119v-.065h.015v.146h.052V6.14h.03v.146h.048zm-.183.04h-.316v-.026h.316zm-.21.065v.04h.089v-.04h-.062v-.039h.077v.119h-.132v-.08h-.063v.08h-.016v-.119h.107zm-.053.08H8.49v-.04h.026zm-.115-.185h.03v.185h-.175v-.08h-.094v.04h.066v.04h-.092v-.12h.12v-.065h.015v.146h.052V6.14h.03v.146h.048zm-.183.04h-.316v-.026h.316zm-.21.065v.04h.089v-.04h-.062v-.039h.077v.119H7.98v-.08h-.063v.08h-.016v-.119h.107zm-.053.08H7.93v-.04h.026zm-.117-.185h.031v.185h-.176v-.08h-.094v.04h.065v.04h-.09v-.12h.119v-.065h.015v.146h.052V6.14h.03v.146h.048zm-.183.04h-.316v-.026h.316zm-.21.065v.04h.089v-.04h-.062v-.039h.077v.119h-.132v-.08h-.063v.08h-.016v-.119h.107zm-.053.08h-.026v-.04h.026zm-.115-.185h.03v.185h-.175v-.08h-.094v.04h.066v.04h-.092v-.12h.12v-.065h.015v.146H7.2V6.14h.03v.146h.048zm-.183.04h-.316v-.026h.316zm-.21.065v.04h.089v-.04H6.91v-.039h.077v.119h-.132v-.08h-.063v.08h-.016v-.119h.107zm-.053.08h-.026v-.04h.026zm-.111-.185h.03v.185h-.175v-.08h-.094v.04h.065v.04h-.09v-.12h.119v-.065h.015v.146h.052V6.14h.03v.146h.048zm-.183.04H6.22v-.026h.316zm-.21.065v.04h.089v-.04h-.062v-.039h.077v.119H6.3v-.08h-.063v.08H6.22v-.119h.107zm-.053.08h-.026v-.04h.026zm-.114-.185h.031v.185h-.176v-.08h-.094v.04h.066v.04h-.092v-.12h.12v-.065h.016v.146h.05V6.14h.031v.146h.048zm-.183.04H5.66v-.026h.316zm-.21.065v.04h.089v-.04h-.062v-.039h.077v.119H5.74v-.08h-.064v.08H5.66v-.119h.107zm-.053.08h-.026v-.04h.026zm-.11-.185h.03v.185H5.46v-.08h-.094v.04h.066v.04H5.34v-.12h.12v-.065h.015v.146h.052V6.14h.03v.146h.048zm-.183.04h-.316v-.026h.316zm-.21.065v.04H5.3v-.04h-.062v-.039h.077v.119h-.132v-.08H5.12v.08h-.016v-.119h.107zm-.053.08h-.026v-.04h.026zm-.115-.185h.031v.185h-.176v-.08h-.094v.04h.066v.04h-.092v-.12h.12v-.065h.015v.146h.052V6.14h.03v.146h.048zm-.183.04h-.316v-.026h.316zm-.21.065v.04h.089v-.04h-.062v-.039h.077v.119h-.131v-.08h-.064v.08h-.016v-.119h.107zm-.053.08h-.026v-.04h.026zm-.115-.185h.03v.185h-.175v-.08h-.094v.04h.066v.04h-.092v-.12h.12v-.065h.016v.146h.05V6.14h.031v.146h.048zm-.183.04h-.316v-.026H4.3zm-.21.065v.04h.089v-.04h-.062v-.039h.077v.119h-.132v-.08h-.063v.08h-.016v-.119h.107zm-.053.08H4.01v-.04h.026zm-.114-.185h.03v.185h-.175v-.08h-.094v.04h.066v.04h-.092v-.12h.12v-.065h.015v.146h.052V6.14h.03v.146h.048zm-.183.04h-.316v-.026h.316zm-.21.065v.04h.089v-.04h-.062v-.039h.077v.119h-.132v-.08h-.063v.08h-.016v-.119h.107zm-.053.08H3.45v-.04h.026zm-.111-.185h.031v.185H3.22v-.08h-.094v.04h.066v.04H3.1v-.12h.119v-.065h.016v.146h.05V6.14h.031v.146h.048zm-.183.04h-.316v-.026h.316zm-.21.065v.04h.089v-.04h-.062v-.039h.077v.119h-.131v-.08H2.88v.08h-.016v-.119h.107zm-.053.08h-.026v-.04h.026zm-.114-.185h.03v.185H2.66v-.08h-.094v.04h.066v.04H2.54v-.12h.12v-.065h.015v.146h.052V6.14h.03v.146h.048zm-.183.04h-.316v-.026h.316zm-.21.065v.04H2.5v-.04h-.062v-.039h.077v.119h-.132v-.08H2.32v.08h-.016v-.119h.107zm-.053.08h-.026v-.04h.026zm-.111-.185h.031v.185h-.176v-.08h-.094v.04h.066v.04h-.092v-.12h.12v-.065h.016v.146h.05V6.14H2.2v.146h.048zm-.183.04H1.75v-.026h.316zm-.21.065v.04h.089v-.04h-.062v-.039h.077v.119h-.131v-.08h-.064v.08h-.016v-.119h.107zm-.053.08h-.026v-.04h.026zm-.114-.185h.03v.185h-.175v-.08h-.094v.04h.066v.04h-.092v-.12h.12v-.065h.015v.146h.052V6.14h.03v.146h.048zm-.183.04h-.316v-.026h.316zm-.21.065v.04h.089v-.04h-.062v-.039H1.4v.119h-.132v-.08h-.063v.08h-.016v-.119h.107zm-.053.08h-.026v-.04h.026zm13.309-3.328h.03v.185h-.175v-.08h-.094v.04h.066v.04h-.092v-.12h.12v-.065h.015v.146h.052v-.146h.03v.146h.048zm-.183.04h-.316v-.026h.316zm-.21.065v.04h.089v-.04h-.062v-.038h.077v.118h-.132v-.08h-.063v.08h-.016v-.118h.107zm-.053.08h-.026v-.04h.026zm-.115-.185h.03v.185h-.175v-.08h-.094v.04h.066v.04h-.091v-.12h.119v-.065h.016v.146h.05v-.146h.031v.146h.048zm-.183.04h-.316v-.026h.316zm-.21.065v.04h.089v-.04h-.062v-.038h.077v.118h-.132v-.08h-.063v.08h-.016v-.118h.107zm-.053.08h-.026v-.04h.026zm-.11-.185h.031v.185h-.176v-.08h-.094v.04h.066v.04h-.092v-.12h.12v-.065h.015v.146h.052v-.146h.03v.146h.048zm-.183.04h-.316v-.026h.316zm-.21.065v.04h.089v-.04h-.062v-.038h.077v.118h-.132v-.08h-.063v.08h-.016v-.118h.107zm-.053.08h-.026v-.04h.026zm-.114-.185h.03v.185h-.175v-.08h-.094v.04h.065v.04h-.09v-.12h.119v-.065h.015v.146h.052v-.146h.03v.146h.048zm-.183.04h-.316v-.026h.316zm-.21.065v.04h.089v-.04h-.062v-.038h.077v.118h-.132v-.08h-.063v.08h-.016v-.118h.107zm-.053.08h-.026v-.04h.026zm-.111-.185h.031v.185h-.176v-.08h-.094v.04h.066v.04h-.092v-.12h.12v-.065h.015v.146h.052v-.146h.03v.146h.048zm-.183.04h-.316v-.026h.316zm-.21.065v.04h.089v-.04h-.062v-.038h.077v.118h-.132v-.08h-.063v.08h-.016v-.118h.107zm-.053.08h-.026v-.04h.026zm-.114-.185h.03v.185h-.175v-.08h-.094v.04h.066v.04h-.092v-.12h.12v-.065h.015v.146h.052v-.146h.03v.146h.048zm-.183.04h-.316v-.026h.316zm-.21.065v.04h.089v-.04h-.062v-.038h.077v.118h-.132v-.08h-.063v.08h-.016v-.118h.107zm-.053.08h-.026v-.04h.026zm-.115-.185h.031v.185h-.176v-.08h-.094v.04h.066v.04h-.092v-.12h.12v-.065h.015v.146h.052v-.146h.03v.146h.048zm-.183.04h-.316v-.026h.316zm-.21.065v.04h.089v-.04h-.062v-.038h.077v.118h-.132v-.08h-.063v.08h-.016v-.118h.107zm-.053.08h-.026v-.04h.026zm-.115-.185h.03v.185h-.175v-.08h-.094v.04h.066v.04h-.092v-.12h.12v-.065h.015v.146h.052v-.146h.03v.146h.048zm-.183.04h-.316v-.026h.316zm-.21.065v.04h.089v-.04h-.062v-.038h.077v.118h-.132v-.08h-.063v.08h-.016v-.118h.107zm-.053.08h-.026v-.04h.026zm-.11-.185h.03v.185h-.175v-.08H9.84v.04h.065v.04h-.09v-.12h.119v-.065h.015v.146h.052v-.146h.03v.146h.048zm-.183.04H9.58v-.026h.316zm-.21.065v.04h.089v-.04h-.062v-.038h.077v.118h-.132v-.08h-.063v.08h-.016v-.118h.107zm-.053.08h-.026v-.04h.026zm-.115-.185h.03v.185h-.175v-.08h-.094v.04h.066v.04h-.092v-.12h.12v-.065h.016v.146h.05v-.146h.031v.146h.048zm-.183.04h-.316v-.026h.316zm-.21.065v.04h.089v-.04h-.062v-.038h.077v.118h-.132v-.08h-.063v.08h-.016v-.118h.107zm-.053.08h-.026v-.04h.026zm-.11-.185h.03v.185h-.175v-.08h-.094v.04h.065v.04h-.09v-.12h.119v-.065h.015v.146h.052v-.146h.03v.146h.048zm-.183.04h-.316v-.026h.316zm-.21.065v.04h.089v-.04h-.062v-.038h.077v.118h-.132v-.08h-.063v.08h-.016v-.118h.107zm-.053.08H8.49v-.04h.026zm-.115-.185h.03v.185h-.175v-.08h-.094v.04h.066v.04h-.092v-.12h.12v-.065h.015v.146h.052v-.146h.03v.146h.048zm-.183.04h-.316v-.026h.316zm-.21.065v.04h.089v-.04h-.062v-.038h.077v.118H7.98v-.08h-.063v.08h-.016v-.118h.107zm-.053.08H7.93v-.04h.026zm-.117-.185h.031v.185h-.176v-.08h-.094v.04h.065v.04h-.09v-.12h.119v-.065h.015v.146h.052v-.146h.03v.146h.048zm-.183.04h-.316v-.026h.316zm-.21.065v.04h.089v-.04h-.062v-.038h.077v.118h-.132v-.08h-.063v.08h-.016v-.118h.107zm-.053.08h-.026v-.04h.026zm-.115-.185h.03v.185h-.175v-.08h-.094v.04h.066v.04h-.092v-.12h.12v-.065h.015v.146H7.2v-.146h.03v.146h.048zm-.183.04h-.316v-.026h.316zm-.21.065v.04h.089v-.04H6.91v-.038h.077v.118h-.132v-.08h-.063v.08h-.016v-.118h.107zm-.053.08h-.026v-.04h.026zm-.111-.185h.03v.185h-.175v-.08h-.094v.04h.065v.04h-.09v-.12h.119v-.065h.015v.146h.052v-.146h.03v.146h.048zm-.183.04H6.22v-.026h.316zm-.21.065v.04h.089v-.04h-.062v-.038h.077v.118H6.3v-.08h-.063v.08H6.22v-.118h.107zm-.053.08h-.026v-.04h.026zm-.114-.185h.031v.185h-.176v-.08h-.094v.04h.066v.04h-.092v-.12h.12v-.065h.016v.146h.05v-.146h.031v.146h.048zm-.183.04H5.66v-.026h.316zm-.21.065v.04h.089v-.04h-.062v-.038h.077v.118H5.74v-.08h-.064v.08H5.66v-.118h.107zm-.053.08h-.026v-.04h.026zm-.11-.185h.03v.185H5.46v-.08h-.094v.04h.066v.04H5.34v-.12h.12v-.065h.015v.146h.052v-.146h.03v.146h.048zm-.183.04h-.316v-.026h.316zm-.21.065v.04H5.3v-.04h-.062v-.038h.077v.118h-.132v-.08H5.12v.08h-.016v-.118h.107zm-.053.08h-.026v-.04h.026zm-.115-.185h.031v.185h-.176v-.08h-.094v.04h.066v.04h-.092v-.12h.12v-.065h.015v.146h.052v-.146h.03v.146h.048zm-.183.04h-.316v-.026h.316zm-.21.065v.04h.089v-.04h-.062v-.038h.077v.118h-.131v-.08h-.064v.08h-.016v-.118h.107zm-.053.08h-.026v-.04h.026zm-.115-.185h.03v.185h-.175v-.08h-.094v.04h.066v.04h-.092v-.12h.12v-.065h.016v.146h.05v-.146h.031v.146h.048zm-.183.04h-.316v-.026H4.3zm-.21.065v.04h.089v-.04h-.062v-.038h.077v.118h-.132v-.08h-.063v.08h-.016v-.118h.107zm-.053.08H4.01v-.04h.026zm-.114-.185h.03v.185h-.175v-.08h-.094v.04h.066v.04h-.092v-.12h.12v-.065h.015v.146h.052v-.146h.03v.146h.048zm-.183.04h-.316v-.026h.316zm-.21.065v.04h.089v-.04h-.062v-.038h.077v.118h-.132v-.08h-.063v.08h-.016v-.118h.107zm-.053.08H3.45v-.04h.026zm-.111-.185h.031v.185H3.22v-.08h-.094v.04h.066v.04H3.1v-.12h.119v-.065h.016v.146h.05v-.146h.031v.146h.048zm-.183.04h-.316v-.026h.316zm-.21.065v.04h.089v-.04h-.062v-.038h.077v.118h-.131v-.08H2.88v.08h-.016v-.118h.107zm-.053.08h-.026v-.04h.026zm-.114-.185h.03v.185H2.66v-.08h-.094v.04h.066v.04H2.54v-.12h.12v-.065h.015v.146h.052v-.146h.03v.146h.048zm-.183.04h-.316v-.026h.316zm-.21.065v.04H2.5v-.04h-.062v-.038h.077v.118h-.132v-.08H2.32v.08h-.016v-.118h.107zm-.053.08h-.026v-.04h.026zm-.111-.185h.031v.185h-.176v-.08h-.094v.04h.066v.04h-.092v-.12h.12v-.065h.016v.146h.05v-.146H2.2v.146h.048zm-.183.04H1.75v-.026h.316zm-.21.065v.04h.089v-.04h-.062v-.038h.077v.118h-.131v-.08h-.064v.08h-.016v-.118h.107zm-.053.08h-.026v-.04h.026zm-.114-.185h.03v.185h-.175v-.08h-.094v.04h.066v.04h-.092v-.12h.12v-.065h.015v.146h.052v-.146h.03v.146h.048zm-.183.04h-.316v-.026h.316zm-.21.065v.04h.089v-.04h-.062v-.038H1.4v.118h-.132v-.08h-.063v.08h-.016v-.118h.107zm-.053.08h-.026v-.04h.026z" fill="#fff" fill-rule="evenodd"/><path d="M14.298 3.432h.037v.057h-.037zm-.56 0h.037v.057h-.037zm-.557 0h.037v.057h-.037zm-.56 0h.037v.057h-.037zm-.557 0h.037v.057h-.037zm-.56 0h.037v.057h-.037zm-.561 0h.037v.057h-.037zm-.56 0h.037v.057h-.037zm-.557 0h.037v.057h-.037zm-.561 0h.037v.057h-.037zm-.556 0h.037v.057h-.037zm-.561 0h.037v.057h-.037zm-.563 0h.037v.057h-.037zm-.56 0h.037v.057h-.037zm-.557 0h.037v.057h-.037zm-.561 0h.037v.057h-.037zm-.557 0h.038v.057h-.037zm-.56 0h.037v.057H4.79zm-.56 0h.037v.057h-.038zm-.561 0h.037v.057h-.037zm-.557 0h.037v.057h-.037zm-.56 0h.037v.057h-.037zm-.557 0h.037v.057h-.037zm-.56 0h.037v.057h-.037z" fill="#009348" fill-rule="evenodd"/><path d="M14.298 5.86h.037v.059h-.037zm-.56 0h.037v.059h-.037zm-.557 0h.037v.059h-.037zm-.56 0h.037v.059h-.037zm-.557 0h.037v.059h-.037zm-.56 0h.037v.059h-.037zm-.561 0h.037v.059h-.037zm-.56 0h.037v.059h-.037zm-.557 0h.037v.059h-.037zm-.561 0h.037v.059h-.037zm-.556 0h.037v.059h-.037zm-.561 0h.037v.059h-.037zm-.563 0h.037v.059h-.037zm-.56 0h.037v.059h-.037zm-.557 0h.037v.059h-.037zm-.561 0h.037v.059h-.037zm-.557 0h.038v.059h-.037zm-.56 0h.037v.059H4.79zm-.56 0h.037v.059h-.038zm-.561 0h.037v.059h-.037zm-.557 0h.037v.059h-.037zm-.56 0h.037v.059h-.037zm-.557 0h.037v.059h-.037zm-.56 0h.037v.059h-.037z" fill="#e11e25" fill-rule="evenodd"/></svg>