<svg xmlns="http://www.w3.org/2000/svg" fill-rule="evenodd" stroke-linejoin="round" stroke-miterlimit="2" clip-rule="evenodd" viewBox="180 28 200 344"><g fill-rule="nonzero"><path fill="#021858" d="M199.184 36.543h161.632v82.144l8.562 6.762V28H190.622v97.45l8.562-6.762zm161.632 258.375H199.184V213.13l-8.602-6.683v97.014h178.796v-97.014l-8.562 6.683z"/><path fill="#fff" d="M380 133.794l-19.184-15.107V36.543H199.184v82.144L180 133.794l10.345 34.17-9.87 30.533 18.709 14.633v81.788h161.632V213.13l18.669-14.633-9.83-30.532z"/><path fill="#ec0f32" d="M211.669 49H348.33v59.878l4.836 3.797v-68.5H206.833v68.5l4.836-3.797zm136.662 233.46H211.669V222.9l-4.836-3.797v68.183h146.334v-68.183l-4.836 3.797z"/><g fill="#021858"><path d="M280 155.19l-11.375-64.662-46.929 16.136 50.971-26.222L280 127.625l7.333-47.183 50.97 26.222-46.927-16.136z"/><path d="M280 108.562l-3.686-37.018-35.95 20.407L280 60.747l39.635 31.204-35.989-20.407z"/><path d="M303.226 106.703l-17.202 40.182 10.9-48.566zm-40.15-8.384l10.9 48.566-17.242-40.182zm94.094 69.764l9.314-30.73-14.863-20.249 23.227 18.312-9.87 32.628 9.314 28.871-19.659 15.424 11.296-17.046z"/><path d="M312.779 171.169l35.83 12.023-4.677-15.267 9.87-30.769-2.617-10.48 8.204 12.141-9.274 28.713 8.442 26.893-11.177 19.38 3.488-21.12z"/><path d="M317.693 167.174l13.199-.712 15.576-24.125-9.433 26.38 1.625 5.26zm13.595-20.961l-25.604 3.283-6.461 22.938 2.18-29.86 46.69-13.96-14.665 9.056zm-146.135-10.797l23.226-18.312-14.863 20.25 9.314 30.73-8.76 27.21 11.296 17.045-19.658-15.424 9.314-28.91z"/><path d="M201.403 194.423l8.482-26.893-9.274-28.713 8.204-12.141-2.616 10.48 9.87 30.77-4.678 15.266 35.83-12.023-38.089 21.515 3.488 21.119z"/><path d="M229.108 166.462l13.199.712-20.967 6.803 1.624-5.26-9.432-26.38zm29.45-23.888l2.179 29.82-6.421-22.898-25.604-3.283-2.18-8.543-14.665-9.057zm37.772 106.467l14.07-10.797-2.417 10.56L280 270.754l-27.982-21.95-2.418-10.56 14.07 10.797z"/><path d="M300.61 189.56l-19.699 16.729 34.324 16.768 16.37-11.311 2.22-16.136-17.044-16.73 25.843 16.928-3.25 21.752-20.769 15.859-3.924 8.898-3.845-10.48L280 219.26l-30.836 12.577-3.845 10.48-3.923-8.898-20.77-15.86-3.25-21.751 25.843-16.927-17.083 16.729 2.219 16.136 16.37 11.311 34.323-16.768-19.698-16.73-5.827-9.65 10.068 6.011h32.818l10.067-6.011zm-59.112 182.404c10.207.591 17.634-6.752 19.126-16.394.653-4.221.552-8.322-.559-12.42-2.577-9.5-10.414-14.996-20.188-14.16-10.746.918-17.378 8.052-18.148 19.592-.295 4.424.325 8.734 2.112 12.808 2.439 5.56 8.267 11.106 17.657 10.574m10.633-21.451c.073 3.299-.422 6.495-1.96 9.44-1.842 3.526-4.574 5.78-8.74 5.798-4.16.017-7.052-2.11-8.75-5.73-2.916-6.213-2.96-12.568-.05-18.806 1.744-3.736 4.69-5.904 8.966-5.822 4.164.08 6.862 2.41 8.652 5.943 1.452 2.865 1.93 5.978 1.882 9.177m23.145-14.473c2.641 0 4.763-.092 6.875.02 3.437.185 5.636 2.522 5.966 6.16.318 3.502-1.564 6.281-5.002 6.916-2.055.38-4.194.298-6.746.45l13.111 21.632h9.671l-10.659-16.842c.609-.301.922-.46 1.24-.612 5.146-2.464 7.792-6.783 7.326-11.964-.546-6.058-3.872-10.059-9.608-11.52-.804-.204-1.634-.419-2.454-.424-6.006-.036-12.012-.02-18.25-.02v41.35h8.53zm79.995-6.179H346.7l-14.294 41.358h7.787l2.991-8.482h10.348l1.021-6.313h-9.346l4.896-15.19.443-.106 9.965 30.094h9.061zm-43.019 17.011v-10.596h16.49l1.236-6.32h-26.397v41.216h25.557l.949-6.135h-17.761V353.41h14.713l1.245-6.54z"/><path d="M212.896 371.201h9.73l-14.008-21.686 13.55-19.63h-8.587l-13.9 20.616zm-22.467-41.253h8.37v41.291h-8.37z"/></g></g></svg>