<svg fill="none" height="1100" width="1100" xmlns="http://www.w3.org/2000/svg" xmlns:xlink="http://www.w3.org/1999/xlink"><clipPath id="a"><path d="m0 0h752v1040h-752z" transform="translate(174 30)"/></clipPath><g clip-path="url(#a)"><path d="m855.576 801.355v53.147h37.607v215.498h-686.191v-215.498h37.393v-53.454c-45.458-64.067-69.075-135.314-70.326-212.379-1.589-97.546 28.826-181.835 90.414-250.517 78.773-87.71 172.517-132.167 278.635-132.167 44.359 0 91.574 7.818 140.5 23.275 25.051-45.221 35.546-97.806 32.094-160.33l-2.154-38.93 31.787 35.28c31.315 34.714 60.902 67.505 82.715 108.619l2.49 4.705-1.313 5.146a2384.748 2384.748 0 0 1 -3.192 12.247c-.794 3.008-1.589 6.078-2.399 9.194 12.082 26.772 20.516 50.018 26.411 72.834l1.421 5.512-2.887 4.904c-1.328 2.244-2.688 4.733-4.215 7.576 4.079 21.657 6.568 42.03 7.546 62.067.168.276.503.764 1.13 1.605 51.003 69.413 76.727 154.864 72.512 240.755-3.561 72.27-28.122 142.31-69.976 200.911z" fill="#fff"/><path d="m220.738 868.243h37.397v-39.515h25.711c-61.407-69.682-94.554-149.138-96.043-240.278-1.489-91.141 26.135-173.357 86.905-241.128 114.105-127.044 254.342-155.723 415.193-101.549 32.51-53.111 43.134-112.385 39.522-177.605 32.724 36.33 64.17 70.108 86.482 112.172-2.126 8.285-4.464 16.996-6.801 26.13 11.05 24.007 20.823 48.651 27.623 74.993-2.126 3.611-4.249 7.648-6.8 12.322 4.249 21.456 7.223 43.341 8.286 65.645.212 3.4 1.912 5.949 3.824 8.497 101.78 138.516 91.368 328.02-21.249 455.062-1.062 1.274-2.125 2.548-4.249 5.522h25.286v39.727h37.61v188.012h-658.697v-188.012z" fill="#304e46"/><path d="m476.995 816.194c-31.661-9.985-59.922-25.918-85.419-46.737-22.311 12.959-66.719 36.966-67.145 36.329l38.247-65.645c-25.711-31.23-43.134-65.645-51.846-104.312-.426-1.699-.637-4.036-1.912-4.885-11.473-7.86-11.898-17.845-4.886-29.318-25.286-6.586-73.306-20.608-73.095-21.034 24.435-6.373 48.66-12.747 73.306-19.333-7.012-14.233-6.8-17.845 3.187-27.404 2.763-2.763 3.4-5.948 4.249-9.348 8.498-35.267 24.011-67.134 46.534-95.601 1.7-2.125 4.249-3.823 4.038-7.222-12.325-21.245-35.91-65.223-35.273-65.86l64.808 37.815c32.084-26.555 68.208-44.4 108.367-52.899 10.412-12.111 14.873-12.96 30.172-6.16 6.375-23.793 20.186-70.745 20.823-70.745 6.161 23.581 12.324 46.952 18.911 72.019 7.223-7.223 15.087-5.737 22.948-4.248 33.998-17.634 63.319-40.578 86.482-71.808-123.029-50.989-290.252-28.256-397.345 101.337-50.146 60.76-76.918 130.868-79.044 209.686-.637 26.982.849 73.508 19.122 127.045 25.286 73.507 68.632 121.519 94.132 145.738h-42.923v40.152h-37.821v157.424h628.315v-157.635h-37.396v-39.941h-47.383c66.72-61.822 105.179-135.116 116.017-223.068 9.775-79.882-25.497-212.872-65.871-240.49-1.274 26.767-3.4 52.686-9.987 77.544a1131.424 1131.424 0 0 0 -11.261 7.223c-5.1 19.758-12.324 38.666-19.122 54.599-2.126 11.685 6.375 15.085 9.775 21.245 4.249 7.437-.212 14.022-2.549 21.033 24.649 6.585 48.66 12.748 72.457 19.119v1.912l-72.669 19.119c5.524 12.959 6.375 18.696.212 24.007-6.161 5.099-7.438 11.471-9.35 18.27-4.249 16.145-9.987 31.656-17.424 46.738-8.713 17.845-19.974 34.204-32.51 49.712 12.961 22.307 25.711 43.977 38.459 65.859-.637.637-45.26-23.793-67.571-36.967-25.497 21.456-54.395 36.967-85.419 47.164-3.4 47.588-31.447 77.33-71.82 77.755-40.796.212-69.057-29.318-73.52-78.181v-.003z" fill="#fff"/><path d="m365.016 394.7c-.426-1.063-1.063-1.912-2.126-.638.211.638.426 1.275.849 1.912 5.523 10.197 11.261 20.182 16.785 30.381-37.185 41.64-56.521 89.864-60.133 144.889-12.113 3.186-35.059 10.623-35.059 11.26 11.687 3.185 23.374 6.374 35.273 9.559 3.4 55.66 23.374 103.886 59.921 144.676-5.738 10.196-10.835 19.758-16.148 29.318-.425.849-.848 1.488-1.911 3.186 1.911-.637 23.16-12.323 32.935-17.845 29.535 26.767 63.319 44.189 100.929 53.963-7.437 42.063 19.974 75.63 60.345 71.382 9.561-1.063 18.485-4.886 26.135-10.623 20.399-16.145 25.497-37.178 20.611-60.971 38.673-9.774 72.031-27.618 101.143-53.749 10.624 6.16 31.447 17.422 32.084 16.997-5.949-10.197-11.261-21.033-17.425-31.442 37.185-41.426 56.733-89.652 60.133-144.889 12.113-3.4 23.586-6.585 38.036-10.622-14.661-4.037-26.349-7.011-38.036-10.197-1.274-17.633-4.037-34.204-7.861-50.137 11.05-22.308 18.7-45.038 24.649-68.408 3.612-2.126 7.012-4.037 10.198-5.949 6.375-24.855 7.438-49.925 8.499-74.781 3.186-2.549 5.737-4.886 8.498-7.223-.637-25.918-4.038-51.2-9.987-75.63 2.337-3.823 4.463-7.011 6.587-10.411-6.375-25.707-16.148-49.712-27.624-72.656 1.912-9.348 6.161-17.422 6.161-26.556-14.873-25.707-32.298-48.863-54.395-71.808-.426 9.134-.426 15.297-1.063 21.671-9.987 100.7-59.07 174.419-150.652 219.034-11.05 5.311-21.674 4.037-32.298 2.548-4.464-10.196-4.464-21.244-10.836-32.718-3.4 12.322-6.375 22.733-9.35 33.141-55.458 3.186-103.481 23.37-144.489 59.697l-30.386-16.359z" fill="#fff"/><path d="m296.602 424.568 23.235 1.437c-19.763 31.441-34.079 65.358-41.516 101.899a2552.62 2552.62 0 0 1 -18.063-12.322c-5.1 16.996-5.523 33.778-7.649 51.412-5.949 1.274-12.113 2.762-18.062 4.037.637-11.26 1.7-23.582 3.823-36.753 2.763-18.059 6.801-33.992 11.05-48.012 3.186 1.7 12.113 6.8 17.848 10.623 3.612-9.56 6.801-18.908 10.413-28.044 3.612-9.137 7.861-18.059 12.324-28.045l-21.032-1.514c13.388-26.981 30.596-52.66 51.418-74.967 3.401 5.737 6.161 10.411 9.35 15.722-11.261 13.808-21.971 25.851-31.746 42.208l-1.396 2.319zm97.731-72.569c-1.489-8.285-2.549-14.447-3.824-21.67-15.299 8.285-27.409 19.545-40.796 29.956-4.886-2.975-9.775-5.737-15.725-9.137 21.249-19.97 43.985-36.329 70.12-49.926 1.275 7.223 2.549 13.597 4.038 21.245 18.062-9.348 36.121-17.208 55.884-23.582-4.464-6.16-8.076-11.471-12.536-17.633 28.897-9.985 58.007-14.448 88.182-15.934-.638 2.974-1.275 6.16-1.912 9.137-.637 2.974-1.275 5.737-1.7 8.497-17.848 1.7-35.91 3.185-54.395 8.285 4.037 5.948 7.861 11.259 12.324 17.845-35.699 8.711-68.42 22.093-99.655 42.915zm-63.954 429.143c-2.975 5.1-5.738 9.774-8.498 14.234-13.599-9.134-43.134-50.137-50.783-70.319 6.375-1.275 12.75-2.549 19.973-3.823-8.924-18.271-16.999-36.329-22.948-55.449l-18.274 10.623c-9.135-27.193-13.81-55.023-14.661-83.704 17.636 3.822 11.687 1.911 17.636 3.822 1.912 16.571 2.975 32.93 7.438 50.563 6.161-4.462 11.473-8.073 18.062-12.533 8.075 36.329 21.46 69.47 41.434 99.637-20.4 5.949-7.66 2.087-20.4 5.949 8.287 14.445 19.548 27.192 31.024 41.003zm26.134 82.642v-32.505c-7.012-6.159-14.236-12.322-21.885-18.907 2.125-1.912 12.75-8.923 14.873-9.985 9.35 7.436 18.699 14.87 27.835 22.093v59.274h-84.145v-20.182c21.037.211 42.071.212 63.32.212z" fill="#00964d"/><path d="m809.107 721.231c8.075 1.488 14.236 2.549 21.459 4.037-13.387 26.556-30.597 49.712-50.783 71.593l-9.775-15.084c10.836-13.171 22.311-26.13 31.235-41.427l-20.611-5.311c19.548-31.018 33.998-63.734 41.222-99.638l18.485 10.623c5.101-15.934 5.101-32.718 7.65-49.289l17.21-4.674c0 29.318-5.523 56.723-14.024 84.13l-18.274-10.623c-6.375 18.482-13.598 36.967-23.797 55.661zm-85.63 103.037c8.498-6.799 17.636-14.022 27.197-21.67 4.887 2.974 9.775 5.737 15.725 9.348-7.861 7.011-14.873 13.171-22.311 19.545v31.441h62.044c.638 19.759 0 1.063.638 20.819h-83.082c-.211-19.119-.211-39.303-.211-59.485zm110.491-326.956c5.523-3.823 10.624-7.437 16.999-11.897 9.775 28.044 14.661 85.404 14.661 85.404l-17.424-3.611c-1.701-16.996-2.549-34.204-7.862-51.626-5.949 4.037-11.049 7.648-17.21 11.897-3.715-12.668-7.567-25.333-11.339-38.001l3.901-21.059a384.722 384.722 0 0 1 4.886-2.337c8.924 19.759 8.287 20.608 13.388 31.23zm-184.012-216.06c-12.113 14.448-38.036 29.53-38.036 29.53l-5.101-1.912c3.824-5.522 7.438-10.833 11.899-17.207-18.274-5.1-35.91-6.8-53.972-7.86-.849-2.974-1.7-5.948-2.549-9.137a582.966 582.966 0 0 0 -1.912-8.71c30.81.425 60.133 6.159 89.668 15.296z" fill="#ed2b3d"/><g fill="#304e46"><path d="m461.906 393.851c-3.823 10.834-7.224 19.545-10.624 29.319 16.362 14.87 36.122 17.845 56.31 18.27 14.873-9.985 24.434-23.156 31.235-38.878 6.586-15.085 8.498-31.23 11.05-49.5 3.186 6.585 5.312 11.259 7.861 16.359 9.775-3.186 19.122-6.374 29.746-9.774 4.038 37.604-6.375 69.683-30.598 97.301s-55.669 41.426-93.705 43.34c19.974 63.097 55.458 112.386 109.641 147.438 1.063 0 1.912.426 2.549 0 18.486-8.711 36.759-5.311 55.459.212 32.935 9.774 104.329 27.618 106.241 30.593-8.498 17.633-20.611 33.141-34.421 48.225 2.125 5.312 4.463 10.623 6.586 16.145-75.643-38.666-135.139-69.045-175.935-89.44-4.25-2.126-15.725-8.074-29.747-18.271-46.108-33.141-72.669-75.63-63.533-135.116-10.199-5.948-20.4-11.471-30.173-17.845-9.561-6.159-18.062-13.596-24.86-22.732 7.224-17.422 49.935-54.386 76.918-65.646zm289.194-267.897c16.785 18.696 29.324 36.33 40.797 55.66-17.637 68.196-55.247 121.734-115.38 161.249a4650.643 4650.643 0 0 0 -8.712-36.116c49.934-48.437 77.981-107.923 83.293-180.793z"/><path d="m679.277 387.9v-37.815c50.358-31.867 86.905-76.268 109.431-134.267 10.624 20.396 17.848 40.364 23.585 61.185-31.661 51.2-74.794 88.59-133.016 110.897z"/><path d="m807.83 296.974c4.675 23.156 7.861 43.34 7.861 64.159-40.159 38.452-87.119 62.885-143.64 71.382 2.337-12.748 4.249-24.007 6.586-36.541 52.058-19.119 95.192-51.412 129.19-99z"/><path d="m655.055 474.579c4.886-11.685 9.561-22.308 14.45-33.779 50.572-7.222 96.043-27.193 137.265-61.611.211 22.519-2.763 42.701-6.587 62.034-43.985 25.493-103.481 39.304-145.126 33.356zm-31.233 44.828c41.222 11.897 82.656 14.234 126.852 5.948-7.649 15.722-16.362 28.256-25.923 41.853 17.425 4.674 34.636 9.348 52.058 14.022-13.173 2.974-26.135 6.159-39.31 9.136-32.299-8.285-59.07-15.296-81.593-20.607-12.962-3.186-31.661-10.834-55.884-22.094-1.275-.637-2.337-1.488-4.038-2.548 9.35-8.711 18.062-16.782 27.835-25.707z"/><path d="m766.82 514.308c-46.322 10.834-91.368 11.896-137.476-1.489 7.224-10.41 14.024-20.181 21.248-30.592 46.534 3.185 91.58-4.886 136.414-25.919-4.675 21.882-11.899 39.727-20.186 57.997zm-43.344 81.579c-24.86 7.436-49.509 14.87-74.369 22.307-33.784-10.411-63.956-26.344-91.58-49.5 10.836-6.374 20.611-12.323 31.447-18.696 20.823 10.833 43.134 19.544 65.871 26.767 22.523 7.436 45.471 12.748 68.631 19.119zm-110.493-249.201c18.485 82.215-43.348 170.17-131.739 179.518-4.038-5.099-5.312-11.685-7.861-18.907 37.822-4.886 69.482-20.608 93.068-50.137 23.797-29.53 32.935-63.523 28.472-101.549 5.738-2.975 11.473-5.737 18.062-8.923zm-98.594 237.941c12.325-4.249 23.16-8.074 35.485-12.111 24.648 20.608 52.695 37.39 86.905 49.5-22.098 6.586-41.648 12.534-61.622 18.482-22.949-15.084-43.134-32.929-60.77-55.874zm22.74 79.456c13.173 6.799 25.286 13.17 37.61 19.333v41.426c-17.425 4.249-35.699-8.074-37.396-25.707-1.063-11.048-.212-22.307-.212-35.052zm-53.336-130.231a2582.957 2582.957 0 0 0 25.712-5.522c9.775 13.17 20.822 25.493 33.361 37.389-10.836 6.374-21.886 8.285-33.147 11.685-10.199-13.385-18.486-27.404-25.923-43.552zm128.766-99.211c2.549-8.711 4.886-16.359 7.438-24.856 16.361-3.186 32.935-5.311 49.72-11.26.211 12.748-3.612 23.582-6.375 35.267-16.785 2.126-33.147 1.911-50.783.849zm58.434-43.978c-16.362 5.522-31.872 8.922-49.083 11.048.849-9.137 1.489-16.997 2.338-25.707 15.51-5.949 31.023-12.534 46.322-20.819 2.338 12.322 1.912 23.581.426 35.478z"/><path d="m574.523 490.514c6.161-7.011 11.473-12.959 17.211-19.544 15.936 4.462 32.084 8.073 49.297 10.622-5.1 11.471-12.961 19.759-20.185 28.681-16.362-4.462-30.809-11.471-46.323-19.759zm87.544-178.67c4.463 12.111 7.012 22.945 7.65 34.841-14.236 8.497-28.898 15.508-45.683 20.608-1.063-8.711-1.912-16.782-3.186-25.707 14.236-8.286 27.623-18.059 41.222-29.742zm-93.703 183.982c15.087 8.073 29.96 14.87 46.108 20.607-7.438 9.985-16.573 16.359-25.711 24.219-14.662-8.285-28.049-17.845-41.011-29.318 7.012-5.312 13.387-9.986 20.611-15.508zm92.005-54.175c-3.4 12.111-8.286 22.094-14.024 32.504-16.785-.637-32.724-4.462-49.509-9.559 4.249-7.86 8.287-14.871 12.536-22.733 16.785 1.488 33.361 1.488 50.997-.212zm-119.842 73.505c12.75 11.048 25.711 20.608 40.796 29.956-9.775 7.648-19.762 12.748-30.598 18.059-12.324-11.26-23.586-23.156-33.573-37.178 8.076-3.823 15.299-7.011 23.375-10.834zm-63.958 166.134c-17.848-19.544-16.362-38.666 4.249-54.174 4.887 3.823 9.987 7.86 14.874 11.685 4.674 3.611 9.561 6.8 12.324 8.711-10.624 11.471-21.037 22.519-31.447 33.778zm-28.471 49.075c-3.186-35.478-18.274-50.563-53.332-54.174 12.961-11.26 34.635-9.986 48.446 2.974 14.661 13.596 16.785 34.841 4.886 51.2zm139.597 51.626c-24.434-23.156-47.597-23.582-76.918 0 2.975-14.023 9.776-22.945 21.037-28.682 13.599-7.011 27.623-6.374 40.159 2.337 9.138 5.949 16.785 13.808 15.725 26.345zm-217.368-277.243c-9.138-13.808-7.224-21.245 8.924-38.878 8.075 7.223 16.148 14.659 25.286 23.156-13.599 1.488-24.649 6.374-34.21 15.722zm101.141 182.705-5.101 4.462c-1.7 1.489-3.186 2.974-4.463 4.463-2.549-5.311-5.101-10.623-7.861-16.145.849-1.063 1.912-2.126 2.763-3.186 1.275-1.274 2.337-2.762 3.4-4.037 3.612 4.674 7.224 9.348 11.262 14.445zm103.267 47.374-.637 12.748c-5.523-1.911-11.05-3.823-16.785-5.948l-.211-9.56c5.737 1.063 11.472 1.912 17.636 2.763zm-181.885-67.982c-4.886-1.7-9.138-3.185-15.51-5.311 10.412-3.823 18.699-4.037 28.049-.211-4.463 1.911-8.075 3.611-12.536 5.522zm115.38 98.575c-1.275 3.186-2.338 6.374-3.824 9.985-3.612 1.7-11.898 4.037-12.324 3.612 2.763-7.011 15.725-14.022 16.148-13.597zm57.581 50.563c-2.338 6.8-4.249 12.748-6.161 18.482-6.587 1.274-12.536 1.063-19.337 0-1.912-5.737-4.037-11.685-6.161-18.27 5.312-3.823 10.413-7.437 15.725-11.471 5.312 3.822 10.198 7.222 15.936 11.259zm-50.57-22.733c1.912 7.437 3.401 12.748 4.675 18.27-3.186 5.523-7.438 9.986-13.599 15.297-1.7-12.748 1.063-22.733 8.924-33.567z"/><path d="m567.511 779.865c-6.801 3.612-11.687 6.374-16.574 9.134-6.161-1.911-11.473-4.885-17.21-9.134 11.049-5.311 21.459-5.099 33.784 0zm17.426 13.811c7.861 10.411 9.986 20.396 8.712 34.204-5.524-5.949-9.35-10.197-13.387-14.659.425-6.586 2.337-12.534 4.675-19.545zm-41.223 70.107c-12.75-2.548-21.674-7.436-28.898-17.845h17.425c5.312 4.463 7.438 10.623 11.473 17.845zm22.523-17.633c5.95-.425 11.473-.637 19.974-1.274-8.075 11.048-16.785 16.145-30.172 18.696 3.824-6.799 7.012-11.897 10.198-17.422zm21.247-64.159c.212 0 .426-.212.638-.212 0 0-.212 0-.638.212zm29.312 135.079h-20.198v98.98h20.198zm-74.203 49.488 35.99 49.482h-24.977l-23.493-32.316-23.508 32.316h-24.976l35.99-49.482-35.99-49.482h24.976l23.508 32.315 23.493-32.315h24.977zm-76.417-32.004v-17.484h-76.34v98.98h76.34v-17.486h-56.139v-23.265h49.465v-17.483h-49.465v-23.262zm-98.653-17.478h-19.948v1.037l-35.071 60.754-35.699-61.791h-20.196v98.964h20.196v-59.364l24.257 41.999 4.979 8.635h12.907l4.979-8.635 23.648-40.944v58.309h20.193v-98.964zm47.094-9.807h19.497l23.859-20.461h-24.734zm314.043 24.391c-10.083-10.919-24.837-17.793-41.274-17.793-30.428 0-55.113 23.581-55.113 52.691 0 29.109 24.685 52.692 55.113 52.692 16.437 0 31.191-6.87 41.289-17.79l-16.207-13.704c-6.125 6.629-15.093 10.813-25.082 10.813-18.483 0-33.467-14.342-33.467-32.011 0-17.67 14.984-32.012 33.467-32.012 9.989 0 18.957 4.184 25.082 10.814zm63.269-17.793c-30.428 0-55.113 23.581-55.113 52.691 0 29.109 24.685 52.692 55.113 52.692 30.427 0 55.128-23.583 55.128-52.692 0-29.11-24.685-52.691-55.128-52.691zm0 84.702c-18.483 0-33.467-14.342-33.467-32.011 0-17.67 14.984-32.012 33.467-32.012 18.482 0 33.482 14.342 33.482 32.012 0 17.669-14.984 32.011-33.482 32.011z"/></g></g></svg>