<svg viewBox="0 0 204.88 301.64" xmlns="http://www.w3.org/2000/svg"><clipPath id="a"><path d="M274 313h48v48h-48zm0 0"/></clipPath><clipPath id="b"><path d="M274.18 337.195c0 12.993 10.53 23.524 23.52 23.524 12.987 0 23.519-10.531 23.519-23.524s-10.532-23.52-23.52-23.52-23.52 10.528-23.52 23.52m3.098 0c0-11.277 9.145-20.418 20.422-20.418s20.418 9.141 20.418 20.418c0 11.278-9.14 20.418-20.418 20.418s-20.422-9.14-20.422-20.418"/></clipPath><clipPath id="d"><path d="M213 347h168v204H213zm0 0"/></clipPath><clipPath id="e"><path d="M209.977 347.672v111.43c0 19.894 14.05 41.074 41.757 62.949 22.043 17.398 43.996 27.988 44.211 28.09l1.743.78 1.792-.804c.16-.078 22.094-10.652 44.157-28.066 27.707-21.875 41.758-43.055 41.758-62.95v-111.43zm0 0"/></clipPath><clipPath id="f"><path d="M318 347h63v60h-63zm0 0"/></clipPath><clipPath id="g"><path d="M210.008 347.453v111.43c0 19.894 14.05 41.074 41.758 62.949 22.043 17.398 43.996 27.988 44.21 28.094l1.739.773 1.797-.8c.16-.079 22.09-10.653 44.152-28.067 27.711-21.875 41.762-43.055 41.762-62.95V347.454zm0 0"/></clipPath><clipPath id="h"><path d="M215 447h62v104h-62zm0 0"/></clipPath><clipPath id="i"><path d="M210.008 347.453v111.43c0 19.894 14.05 41.074 41.758 62.949 22.043 17.398 43.996 27.988 44.21 28.094l1.739.773 1.797-.8c.16-.079 22.09-10.653 44.152-28.067 27.711-21.875 41.762-43.055 41.762-62.95V347.454zm0 0"/></clipPath><clipPath id="j"><path d="M215 347h166v204H215zm0 0"/></clipPath><clipPath id="k"><path d="M210.008 347.453v111.43c0 19.894 14.05 41.074 41.758 62.949 22.043 17.398 43.996 27.988 44.21 28.094l1.739.773 1.797-.8c.16-.079 22.09-10.653 44.152-28.067 27.711-21.875 41.762-43.055 41.762-62.95V347.454zm0 0"/></clipPath><clipPath id="l"><path d="M.09 0h165v204H.09zm0 0"/></clipPath><clipPath id="m"><path d="M-4.992.453v111.43c0 19.894 14.05 41.074 41.758 62.949 22.043 17.398 43.996 27.988 44.21 28.094l1.739.773 1.797-.8c.16-.079 22.09-10.653 44.152-28.067 27.711-21.875 41.762-43.055 41.762-62.95V.454zm0 0"/></clipPath><clipPath id="n"><path d="M215 347h62v60h-62zm0 0"/></clipPath><clipPath id="o"><path d="M210.008 347.453v111.43c0 19.894 14.05 41.074 41.758 62.949 22.043 17.398 43.996 27.988 44.21 28.094l1.739.773 1.797-.8c.16-.079 22.09-10.653 44.152-28.067 27.711-21.875 41.762-43.055 41.762-62.95V347.454zm0 0"/></clipPath><clipPath id="p"><path d="M318 447h63v104h-63zm0 0"/></clipPath><clipPath id="q"><path d="M210.008 347.453v111.43c0 19.894 14.05 41.074 41.758 62.949 22.043 17.398 43.996 27.988 44.21 28.094l1.739.773 1.797-.8c.16-.079 22.09-10.653 44.152-28.067 27.711-21.875 41.762-43.055 41.762-62.95V347.454zm0 0"/></clipPath><clipPath id="r"><path d="M.64.215h10.31v22.547H.64zm0 0"/></clipPath><clipPath id="s"><path d="M.914.02h10.211v22.937H.915zm0 0"/></clipPath><clipPath id="t"><path d="M.09.215h9.89v22.547H.09zm0 0"/></clipPath><clipPath id="u"><path d="M.879.02h10.21v22.937H.88zm0 0"/></clipPath><clipPath id="v"><path d="M.023.215h7.73v22.547H.024zm0 0"/></clipPath><clipPath id="w"><path d="M.246.473H14.95v37.46H.246zm0 0"/></clipPath><clipPath id="x"><path d="M.66.656h9.774v18.985H.66zm0 0"/></clipPath><clipPath id="y"><path d="M.926.527H18.14v37.356H.926zm0 0"/></clipPath><clipPath id="z"><path d="M195 270h206v297H195zm0 0"/></clipPath><clipPath id="A"><path d="M205.379 282.309l-2.676.738v175.836c0 22.238 14.984 45.344 44.531 68.668 22.758 17.965 45.485 28.906 45.692 29l4.773 2.133 4.781-2.141c.211-.094 22.754-10.895 45.68-28.992 29.55-23.324 44.531-46.43 44.531-68.668V283.047l-2.671-.738c-.434-.121-43.68-11.887-92.325-11.887-48.636 0-91.883 11.765-92.316 11.887m4.613 6.332c10.035-2.496 46.938-10.934 87.707-10.938 40.77.004 77.668 8.442 87.707 10.938v24.55c-.996-1.066-2.347-1.914-4.117-2.12-4.371-.509-5.805 3.796-6.355 7.456-2.684 1.512-3.137 5.047-3.414 7.977.183-.594 2.3-2.93 3.003-4.18-.687 4.024-2.699 8.004-5.765 10.153 6.222-.957 8.91-4.766 9.515-8.536-.043.778.856 1.426 1.36 1.883 0 0-.004-1.07.379-2.86.531-2.476-.942-4-2.403-5.144.16-5.843 4.735-5.629 7.02-1.945 2.238 3.598-.914 8.508-2.832 11.023-1.922 2.516-6.863 6.907-10.328 10.84-1.832 2.086-2.246 4.078-1.953 5.813H364c-.898-3.477-.555-6.14-.32-8.598.285.113 1.078.598 2.332.684-1.395-1.336-.711-5.29.625-7.395s2.644-5.601 3.27-7.734c.027.086.738.824 1.562.937-.313-1.422-.344-12.09-.453-15.785-.11-3.668-6.645-9.418-8.399-10.402-.082-.403-.137-.961-.515-1.059-8.22-.824-13.442 1.535-15.575 2.332-2.132.793-1.965 2.188-2.363 2.473-.394.285-4.633 3.07-5.602 3.754-.964.683.2 2.39.852 3.387.656.996 1.254.738 2.137.683.367.598 1.422 1.617 2.558 1.676-.285-.254-.484-1.137-.484-1.676 2.504 0 4.266 1.277 4.809 3.04-5.18-1.079-7.68.484-9.672 1.624-1.989 1.137-3.242.793-5.434-.285 2.363 4.094 4.383 3.328 5.32 2.816.938-.511 2.957-1.906 4.692-2.476-.227 1.793.398 3.043 1.14 4.066.454-.765 2.16-2.047 4.293-1.734.2 2.277-1.039 2.875-4.351 5.121-3.27 2.219-5.762 4.707-6.824 6.086-.547.703-1.793 7.82-1.938 11.121 0 0 4.348-1.48 4.781-2.285.704-1.309 1.22-5.473 1.848-6.18.434-.484 3.223-2.078 5.262-3.308.027 1.421-1.531 2.718-3.469 3.914-1.637 1.011-.965 5.925-2.7 7.082-1.917 1.277-11.777 4.39-14.28 4.843-.258-.484-1.993-5.347-2.758-6.824-.555-1.066-2.29-.937-3.535-.683a23.5 23.5 0 0 0-.77-2.957c.04.008.066.027.11.027.597.035 1.097-.094 1.527-.219.402-.12.746-.242 1.043-.226.62.035 4.851 1.675 5.504 4.488 1.246-.543 4.789-.336 6.402.144.172-2.988.758-6.324 1.336-8.542-2.984-.278-10.84-1.032-11.867-1.852-1.032-.824-6.453-5.457-8.063-6.04-1.476-.995-2.539-1.476-3.636-.343-.399.41-.649.719-.81.961a23.42 23.42 0 0 0-13.886-4.539 23.42 23.42 0 0 0-13.887 4.54c-.16-.243-.414-.552-.808-.962-1.098-1.133-2.164-.652-3.637.344-1.613.582-7.031 5.215-8.062 6.039-1.032.82-8.887 1.574-11.871 1.852.582 2.218 1.168 5.554 1.34 8.542 1.613-.48 5.152-.687 6.398-.144.652-2.813 4.887-4.453 5.504-4.488.3-.016.64.105 1.047.226.425.125.925.254 1.527.219.043 0 .066-.02.105-.027a23.4 23.4 0 0 0-.765 2.957c-1.246-.254-2.98-.383-3.535.683-.77 1.477-2.504 6.34-2.758 6.824-2.504-.453-12.367-3.566-14.281-4.843-1.739-1.157-1.067-6.07-2.704-7.082-1.933-1.196-3.492-2.493-3.464-3.914 2.039 1.23 4.828 2.824 5.261 3.308.63.707 1.145 4.871 1.844 6.18.438.805 4.781 2.285 4.781 2.285-.14-3.3-1.39-10.418-1.933-11.121-1.063-1.379-3.555-3.867-6.824-6.086-3.313-2.246-4.551-2.844-4.356-5.121 2.137-.313 3.844.969 4.297 1.734.738-1.023 1.363-2.273 1.137-4.066 1.734.57 3.757 1.965 4.691 2.476.941.512 2.961 1.278 5.32-2.816-2.187 1.078-3.441 1.422-5.433.285-1.988-1.14-4.492-2.703-9.668-1.625.539-1.762 2.305-3.039 4.805-3.039 0 .54-.2 1.422-.485 1.676 1.14-.059 2.192-1.078 2.563-1.676.882.055 1.476.313 2.132-.683.653-.997 1.82-2.704.856-3.387-.969-.684-5.207-3.469-5.606-3.754-.398-.285-.226-1.68-2.359-2.473-2.133-.797-7.355-3.156-15.574-2.332-.383.098-.434.656-.52 1.059-1.754.984-8.289 6.734-8.394 10.402-.11 3.695-.145 14.363-.457 15.785.824-.113 1.535-.851 1.562-.937.63 2.133 1.938 5.629 3.274 7.734s2.02 6.059.625 7.395c1.254-.086 2.047-.57 2.332-.684.234 2.457.578 5.121-.324 8.598h-5.512c.293-1.735-.121-3.727-1.957-5.813-3.461-3.933-8.403-8.324-10.324-10.84-1.922-2.515-5.075-7.425-2.836-11.023 2.289-3.684 6.859-3.898 7.023 1.945-1.465 1.145-2.934 2.668-2.402 5.145.383 1.789.375 2.86.375 2.86.504-.458 1.406-1.106 1.36-1.884.608 3.77 3.296 7.579 9.515 8.536-3.063-2.149-5.075-6.13-5.762-10.153.703 1.25 2.816 3.586 3 4.18-.273-2.93-.727-6.465-3.41-7.977-.55-3.66-1.985-7.965-6.36-7.457-1.765.207-3.117 1.055-4.113 2.121zm129.973 15.398c-.266-.316-.516-.695 0-1.02 1.305-.816 4.2-2.402 5.004-2.792.804-.391.754-.672.914-.961.137-.243.234-.82 1.66-1.38 1.426-.562 6.207-2.304 12.621-1.894-.086 1.836-.562 4.192-1.418 4.914-.207.153-.473-.347-.473-.894s-.078-2.016-.609-2.305c-.207-.082-3.691.14-5.902.844 3.136 2.812 6.515 7.754 6.226 10.172 2.39-3.395.856-5.063 1.508-5.489 1 1.196 1.649 4.22.086 6.43-1.563 2.215-4.563 5.45-5.094 6.445s-.285 1.344-.414 2.75c-.11 1.23-.285 1.754-.683 1.887-.38-2.742-.875-4.527.48-6.348 1.356-1.816 3.86-4.406 2.11-6.707-.36 1.067-.844 2.153-1.872 2.754.352-1.554 1.754-3.8-.504-6.172-.855-.898-1.203-1.437-2.937-1.52-1.348-.065-3.047-.034-4.09.497 1.254.617 3.004 2.332 2.746 3.328-2.18-1.426-3.894-1.371-5.129-1.305-1.234.07-2.691.329-2.918.38-.218.05-.308-.036-.39-.157-.098-.137-.215-.351.066-.652.39-.414.8-1.242.68-1.485-.035-.043-.98.45-1.324.637a.6.6 0 0 1-.25.078q-.065 0-.094-.035m-103.313-3.133c-.855-.722-1.336-3.078-1.422-4.914 6.418-.41 11.196 1.332 12.625 1.895 1.426.558 1.52 1.136 1.657 1.379.164.289.11.57.918.96.804.391 3.699 1.977 5.004 2.793.511.325.261.704 0 1.02-.051.059-.192.043-.344-.043-.348-.188-1.29-.68-1.324-.637-.121.242.285 1.07.675 1.485.286.3.168.515.07.652-.081.121-.171.207-.394.156-.222-.05-1.68-.308-2.914-.379-1.238-.066-2.953-.12-5.129 1.305-.258-.996 1.492-2.71 2.742-3.328-1.039-.531-2.738-.563-4.086-.496-1.738.082-2.085.62-2.94 1.52-2.255 2.37-.853 4.617-.5 6.171-1.032-.601-1.513-1.687-1.872-2.754-1.75 2.301.754 4.89 2.11 6.707 1.355 1.82.859 3.606.48 6.348-.399-.133-.574-.656-.688-1.887-.125-1.406.121-1.754-.414-2.75-.527-.996-3.527-4.23-5.09-6.445-1.562-2.211-.914-5.234.086-6.43.653.426-.883 2.094 1.508 5.489-.293-2.418 3.086-7.36 6.227-10.172-2.211-.703-5.7-.926-5.903-.844-.53.289-.609 1.758-.609 2.305 0 .476-.203.921-.39.921a.14.14 0 0 1-.083-.027m46.524 21.645a20.57 20.57 0 0 1 14.523-5.98 20.57 20.57 0 0 1 14.524 5.98c-.016.062-.036.129-.036.176.055-.02.11-.032.16-.047a20.544 20.544 0 0 1 5.981 14.523c0 .184-.008.367-.012.55-.03.028-.054.044-.09.075.028-.008.06-.004.09-.012-.328 11.114-9.43 20.02-20.617 20.02s-20.289-8.906-20.617-20.02c.027.008.062.004.086.012-.031-.031-.055-.047-.09-.074-.004-.184-.012-.367-.012-.551a20.57 20.57 0 0 1 5.98-14.523c.055.015.106.027.16.046a1 1 0 0 0-.03-.175m29.433-3.555c-.004-.227.063-.46.235-.687.363-.485 1.043-.934 1.652-.633.61.3.73.402.352.644-.375.246-.844.645-1.168 1.098a1.55 1.55 0 0 1-.254.281q-.403-.363-.817-.703m-30.894.422c-.324-.453-.793-.852-1.168-1.098-.375-.242-.258-.344.355-.644.61-.301 1.29.148 1.649.633.172.226.242.46.238.687-.277.227-.55.465-.816.703a1.6 1.6 0 0 1-.258-.281m32.969 1.508c.015-.23.082-.465.21-.66.332-.5 1.102-1.153 1.93-.891.945.305 2.262 1.371 1.922 1.484-.34.118-.574-.207-1.238-.28-.664-.071-.922-.028-1.465.647-.254.31-.402.504-.535.602a22.56 22.56 0 0 0-.824-.902m-38.032-.067c-.34-.113.977-1.18 1.922-1.484.828-.262 1.594.39 1.93.89.129.196.195.43.207.66-.281.294-.555.598-.824.903-.13-.098-.282-.293-.532-.601-.543-.676-.804-.72-1.468-.649-.563.063-.82.309-1.09.309a.4.4 0 0 1-.145-.028m41.043 3.938a20.73 20.73 0 0 0-.492-.762c-.027-.355.074-.77.336-1.09.293-.36.617-.71 1.152-.676.891.055 1.641.602 1.907 1.059.222.39-.555.184-.993.098-.441-.09-1.109.41-1.449.949-.187.293-.305.426-.43.426-.011 0-.023-.004-.03-.004m-42.895-1.469c.261-.457 1.015-1.004 1.902-1.059.535-.035.863.317 1.156.676.262.32.364.73.332 1.086-.168.25-.328.508-.488.766-.137.023-.258-.102-.46-.422-.34-.54-1.009-1.04-1.45-.95-.242.048-.59.133-.813.133-.18 0-.28-.054-.18-.23m108.137 5.781a27 27 0 0 0 2.47-3.3v17.742h-5.294c.516-1.254 1.024-2.688 1.684-4.395-.55.871-3.25 3.66-5.996 4.027 4.914-3.527 4.98-6.27 6.039-10.246-.961 1.828-4.52 4.594-6.578 5.602.414-1.473 2.554-3.5 7.675-9.43m-172.945-3.3a27 27 0 0 0 2.465 3.3c5.125 5.93 7.266 7.957 7.68 9.43-2.063-1.008-5.621-3.774-6.578-5.602 1.054 3.977 1.125 6.72 6.035 10.246-2.742-.367-5.442-3.156-5.992-4.027.656 1.707 1.168 3.14 1.683 4.395h-5.293zm111.14 9.25a32 32 0 0 0-.124-1.07c.11-.161.297-.278.582-.329.73-.121 1.648.027 1.719.793.046.586-.301.582-.664.582-.114 0-.227 0-.329.02-.222.035-.52.085-.773.085-.164 0-.313-.02-.41-.082m-49.043-.605c.066-.766.988-.914 1.715-.793.289.05.476.168.586.328-.051.356-.09.711-.125 1.07-.258.157-.82.055-1.184-.004-.105-.02-.219-.02-.328-.02h-.004c-.363 0-.711 0-.66-.581m49.12 3.644c.009-.27.02-.539.02-.812.496-1.067 2.328-.836 2.793.18.426.925.985 2.636-.011 1.77-.45-.731-.875-1.13-1.387-1.071-.25.027-.57.082-.852.082-.234 0-.441-.035-.562-.149m-49.84-.632c.469-1.016 2.3-1.247 2.797-.18 0 .273.012.543.02.812-.278.25-.965.118-1.415.067-.511-.059-.937.34-1.386 1.07-.192.168-.329.238-.414.238-.375 0 .054-1.257.398-2.007m52.2 5.144c-.473-.648-.759-.84-1.2-.867-.625-.04-1.469-.047-1.473-.617q.037-.177.067-.36c.183-.52.644-.699 1.586-.55.96.152 1.379 1.316 1.484 1.851.07.379.016.774-.172.774-.074 0-.172-.067-.293-.23m-52.207-.544c.102-.535.524-1.7 1.485-1.851.937-.149 1.402.03 1.585.55.016.121.043.239.063.36-.004.57-.844.578-1.469.617-.441.027-.73.219-1.203.867-.117.164-.215.23-.293.23-.183 0-.242-.394-.168-.773m71.871 5.399h42.172v111.418c0 19.894-14.05 41.074-41.758 62.949-22.015 17.379-43.996 27.992-44.152 28.066l-1.797.805-1.742-.778c-.215-.105-22.144-10.679-44.207-28.097-27.71-21.871-41.758-43.05-41.758-62.945V347.465h42.172c4.402 1.441 7.434 2.277 9.227 3.93 3.539-2.286 7.492-3.883 9.015-3.536 1.528.348 4.176.891 5.34.18.328-.2.524-.387.633-.574h.137c3.812 7.855 11.867 13.27 21.183 13.27 9.317 0 17.367-5.415 21.184-13.27h.137c.109.187.3.375.628.574 1.168.711 3.817.168 5.34-.18 1.528-.347 5.48 1.25 9.02 3.536 1.793-1.653 4.824-2.489 9.226-3.93m51.403-44.399v155.817c0 22.863-15.235 46.48-45.27 70.191-22.87 18.055-45.89 29.153-46.101 29.246l-4.77 2.137-.797.355-.793-.355-4.773-2.137c-.211-.093-23.196-11.164-46.102-29.246-30.039-23.71-45.27-47.328-45.27-70.191V303.066l-.007-5.675-5.496 1.484v160.008c0 24.633 15.933 49.703 47.363 74.512 23.41 18.484 47.047 29.855 47.262 29.949l4.773 2.136 3.047 1.364 3.043-1.364 4.77-2.136c.218-.098 23.921-11.524 47.261-29.95 31.426-24.808 47.363-49.878 47.363-74.511V298.875l-4.043-1.113-1.425-.395zm-47.149-3.058c-.015-.41-.05-.961-.101-1.098-.567.43-1.235 1.149-1.39 1.836 1.16.363 1.648.89 1.835 1.027.867-1.492 2.578-2.539 2.914-2.984-1.262.106-2.273.594-3.258 1.219m-99.922 1.765c.188-.136.676-.664 1.836-1.027-.156-.687-.824-1.406-1.39-1.836-.051.137-.086.688-.102 1.098-.984-.625-2-1.113-3.262-1.219.336.445 2.047 1.492 2.918 2.984"/></clipPath><linearGradient id="c" gradientUnits="userSpaceOnUse" x1="274.178" x2="321.22" y1="337.196" y2="337.196"><stop offset="0" stop-color="#f1f48f"/><stop offset=".125" stop-color="#f1f48f"/><stop offset=".156" stop-color="#f1f48f"/><stop offset=".172" stop-color="#f1f48f"/><stop offset=".18" stop-color="#f1f38f"/><stop offset=".184" stop-color="#f0f28e"/><stop offset=".188" stop-color="#eff18d"/><stop offset=".191" stop-color="#eff08c"/><stop offset=".195" stop-color="#eeef8c"/><stop offset=".199" stop-color="#eeee8b"/><stop offset=".203" stop-color="#edee8a"/><stop offset=".207" stop-color="#eded8a"/><stop offset=".211" stop-color="#edec89"/><stop offset=".215" stop-color="#eceb88"/><stop offset=".219" stop-color="#ecea88"/><stop offset=".223" stop-color="#ebea87"/><stop offset=".227" stop-color="#ebe987"/><stop offset=".23" stop-color="#eae886"/><stop offset=".234" stop-color="#eae785"/><stop offset=".238" stop-color="#eae785"/><stop offset=".242" stop-color="#e9e684"/><stop offset=".246" stop-color="#e9e583"/><stop offset=".25" stop-color="#e8e483"/><stop offset=".254" stop-color="#e8e482"/><stop offset=".258" stop-color="#e7e382"/><stop offset=".262" stop-color="#e7e281"/><stop offset=".266" stop-color="#e7e181"/><stop offset=".27" stop-color="#e6e180"/><stop offset=".273" stop-color="#e6e07f"/><stop offset=".277" stop-color="#e5df7f"/><stop offset=".281" stop-color="#e5de7e"/><stop offset=".285" stop-color="#e5de7e"/><stop offset=".289" stop-color="#e4dd7d"/><stop offset=".293" stop-color="#e4dc7d"/><stop offset=".297" stop-color="#e3dc7c"/><stop offset=".301" stop-color="#e3db7b"/><stop offset=".305" stop-color="#e3da7b"/><stop offset=".309" stop-color="#e2da7a"/><stop offset=".313" stop-color="#e2d97a"/><stop offset=".316" stop-color="#e1d879"/><stop offset=".32" stop-color="#e1d779"/><stop offset=".324" stop-color="#e1d778"/><stop offset=".328" stop-color="#e0d678"/><stop offset=".332" stop-color="#e0d577"/><stop offset=".336" stop-color="#e0d577"/><stop offset=".34" stop-color="#dfd476"/><stop offset=".344" stop-color="#dfd476"/><stop offset=".348" stop-color="#ded375"/><stop offset=".352" stop-color="#ded275"/><stop offset=".355" stop-color="#ded274"/><stop offset=".359" stop-color="#ddd174"/><stop offset=".363" stop-color="#ddd073"/><stop offset=".367" stop-color="#ddd073"/><stop offset=".371" stop-color="#dccf72"/><stop offset=".375" stop-color="#dcce72"/><stop offset=".379" stop-color="#dcce71"/><stop offset=".383" stop-color="#dbcd71"/><stop offset=".387" stop-color="#dbcd70"/><stop offset=".391" stop-color="#dbcc70"/><stop offset=".395" stop-color="#dacb6f"/><stop offset=".398" stop-color="#dacb6f"/><stop offset=".402" stop-color="#d9ca6e"/><stop offset=".406" stop-color="#d9ca6e"/><stop offset=".41" stop-color="#d9c96d"/><stop offset=".414" stop-color="#d8c86d"/><stop offset=".418" stop-color="#d8c86d"/><stop offset=".422" stop-color="#d8c76c"/><stop offset=".426" stop-color="#d7c76c"/><stop offset=".43" stop-color="#d7c66b"/><stop offset=".434" stop-color="#d7c66b"/><stop offset=".438" stop-color="#d7c56a"/><stop offset=".445" stop-color="#d6c46a"/><stop offset=".453" stop-color="#d6c369"/><stop offset=".461" stop-color="#d5c268"/><stop offset=".469" stop-color="#d4c168"/><stop offset=".477" stop-color="#d4c067"/><stop offset=".484" stop-color="#d3bf66"/><stop offset=".492" stop-color="#d3be65"/><stop offset=".5" stop-color="#d2bd64"/><stop offset=".508" stop-color="#d1bc64"/><stop offset=".516" stop-color="#d1bb63"/><stop offset=".523" stop-color="#d0ba62"/><stop offset=".531" stop-color="#d0b962"/><stop offset=".539" stop-color="#cfb861"/><stop offset=".547" stop-color="#cfb760"/><stop offset=".555" stop-color="#ceb660"/><stop offset=".563" stop-color="#cdb55f"/><stop offset=".57" stop-color="#cdb55e"/><stop offset=".578" stop-color="#ccb45e"/><stop offset=".586" stop-color="#ccb35d"/><stop offset=".594" stop-color="#cbb25c"/><stop offset=".602" stop-color="#cbb15c"/><stop offset=".609" stop-color="#cab05b"/><stop offset=".617" stop-color="#caaf5b"/><stop offset=".625" stop-color="#caaf5a"/><stop offset=".633" stop-color="#c9ae59"/><stop offset=".641" stop-color="#c9ad59"/><stop offset=".648" stop-color="#c8ac58"/><stop offset=".656" stop-color="#c8ac58"/><stop offset=".664" stop-color="#c7ab57"/><stop offset=".672" stop-color="#c7aa57"/><stop offset=".68" stop-color="#c6a956"/><stop offset=".688" stop-color="#c6a956"/><stop offset=".695" stop-color="#c6a855"/><stop offset=".703" stop-color="#c5a755"/><stop offset=".711" stop-color="#c5a754"/><stop offset=".719" stop-color="#c5a654"/><stop offset=".727" stop-color="#c4a653"/><stop offset=".734" stop-color="#c4a553"/><stop offset=".742" stop-color="#c3a453"/><stop offset=".75" stop-color="#c3a452"/><stop offset=".758" stop-color="#c3a352"/><stop offset=".766" stop-color="#c2a351"/><stop offset=".773" stop-color="#c2a251"/><stop offset=".781" stop-color="#c2a251"/><stop offset=".789" stop-color="#c1a150"/><stop offset=".797" stop-color="#c1a050"/><stop offset=".813" stop-color="#c1a050"/><stop offset=".828" stop-color="#c09f4f"/><stop offset=".844" stop-color="#c09e4e"/><stop offset=".859" stop-color="#bf9d4e"/><stop offset=".875" stop-color="#bf9c4d"/><stop offset=".891" stop-color="#be9c4d"/><stop offset=".906" stop-color="#be9b4c"/><stop offset=".922" stop-color="#be9b4c"/><stop offset=".938" stop-color="#bd9a4c"/><stop offset=".969" stop-color="#bd994b"/><stop offset="1" stop-color="#bd994b"/></linearGradient><linearGradient id="B" gradientUnits="userSpaceOnUse" x1="195.258" x2="400.139" y1="418.632" y2="418.632"><stop offset="0" stop-color="#a67f4e"/><stop offset=".016" stop-color="#a6804f"/><stop offset=".023" stop-color="#a7804f"/><stop offset=".031" stop-color="#a7814f"/><stop offset=".039" stop-color="#a88250"/><stop offset=".047" stop-color="#a88350"/><stop offset=".051" stop-color="#a98451"/><stop offset=".055" stop-color="#a98451"/><stop offset=".059" stop-color="#aa8551"/><stop offset=".063" stop-color="#aa8551"/><stop offset=".066" stop-color="#aa8652"/><stop offset=".07" stop-color="#ab8652"/><stop offset=".074" stop-color="#ab8752"/><stop offset=".078" stop-color="#ac8853"/><stop offset=".082" stop-color="#ac8853"/><stop offset=".086" stop-color="#ad8953"/><stop offset=".09" stop-color="#ad8a54"/><stop offset=".094" stop-color="#ae8a54"/><stop offset=".098" stop-color="#ae8b54"/><stop offset=".102" stop-color="#af8c55"/><stop offset=".105" stop-color="#af8d55"/><stop offset=".109" stop-color="#b08d56"/><stop offset=".113" stop-color="#b08e56"/><stop offset=".117" stop-color="#b18f56"/><stop offset=".121" stop-color="#b19057"/><stop offset=".125" stop-color="#b29157"/><stop offset=".129" stop-color="#b29158"/><stop offset=".133" stop-color="#b39258"/><stop offset=".137" stop-color="#b49359"/><stop offset=".141" stop-color="#b49459"/><stop offset=".145" stop-color="#b5955a"/><stop offset=".148" stop-color="#b5965a"/><stop offset=".152" stop-color="#b6975a"/><stop offset=".156" stop-color="#b7985b"/><stop offset=".16" stop-color="#b7995b"/><stop offset=".164" stop-color="#b89a5c"/><stop offset=".168" stop-color="#b99b5c"/><stop offset=".172" stop-color="#b99c5d"/><stop offset=".176" stop-color="#ba9d5e"/><stop offset=".18" stop-color="#bb9e5e"/><stop offset=".184" stop-color="#bb9f5f"/><stop offset=".188" stop-color="#bca05f"/><stop offset=".191" stop-color="#bda160"/><stop offset=".195" stop-color="#bea260"/><stop offset=".199" stop-color="#bea361"/><stop offset=".203" stop-color="#bfa462"/><stop offset=".207" stop-color="#c0a562"/><stop offset=".211" stop-color="#c1a763"/><stop offset=".215" stop-color="#c1a863"/><stop offset=".219" stop-color="#c2a964"/><stop offset=".223" stop-color="#c3aa65"/><stop offset=".227" stop-color="#c4ab65"/><stop offset=".23" stop-color="#c5ad66"/><stop offset=".234" stop-color="#c6ae67"/><stop offset=".238" stop-color="#c6af67"/><stop offset=".242" stop-color="#c7b068"/><stop offset=".246" stop-color="#c8b269"/><stop offset=".25" stop-color="#c9b369"/><stop offset=".254" stop-color="#cab46a"/><stop offset=".258" stop-color="#cbb66b"/><stop offset=".262" stop-color="#ccb76c"/><stop offset=".266" stop-color="#cdb96c"/><stop offset=".27" stop-color="#cdba6d"/><stop offset=".273" stop-color="#cebb6e"/><stop offset=".277" stop-color="#cfbd6f"/><stop offset=".281" stop-color="#d0be6f"/><stop offset=".285" stop-color="#d1c070"/><stop offset=".289" stop-color="#d2c171"/><stop offset=".293" stop-color="#d3c372"/><stop offset=".297" stop-color="#d4c473"/><stop offset=".301" stop-color="#d5c674"/><stop offset=".305" stop-color="#d6c774"/><stop offset=".309" stop-color="#d7c975"/><stop offset=".313" stop-color="#d8ca76"/><stop offset=".316" stop-color="#d9cc77"/><stop offset=".32" stop-color="#dace78"/><stop offset=".324" stop-color="#dbcf79"/><stop offset=".328" stop-color="#dcd17a"/><stop offset=".332" stop-color="#ded37b"/><stop offset=".336" stop-color="#dfd47c"/><stop offset=".34" stop-color="#e0d67d"/><stop offset=".344" stop-color="#e1d87e"/><stop offset=".348" stop-color="#e2da7f"/><stop offset=".352" stop-color="#e3db80"/><stop offset=".355" stop-color="#e4dd81"/><stop offset=".359" stop-color="#e5df82"/><stop offset=".363" stop-color="#e7e183"/><stop offset=".367" stop-color="#e8e384"/><stop offset=".371" stop-color="#e9e485"/><stop offset=".375" stop-color="#eae686"/><stop offset=".379" stop-color="#ebe887"/><stop offset=".383" stop-color="#edea88"/><stop offset=".387" stop-color="#eeec89"/><stop offset=".391" stop-color="#efee8a"/><stop offset=".395" stop-color="#f0f08c"/><stop offset=".398" stop-color="#f2f28d"/><stop offset=".402" stop-color="#f1f18c"/><stop offset=".406" stop-color="#f1f08b"/><stop offset=".41" stop-color="#f0ef8a"/><stop offset=".414" stop-color="#efed89"/><stop offset=".418" stop-color="#eeec87"/><stop offset=".422" stop-color="#edea86"/><stop offset=".426" stop-color="#ece885"/><stop offset=".43" stop-color="#ebe784"/><stop offset=".434" stop-color="#eae582"/><stop offset=".438" stop-color="#e9e481"/><stop offset=".441" stop-color="#e8e280"/><stop offset=".445" stop-color="#e7e17f"/><stop offset=".449" stop-color="#e7df7e"/><stop offset=".453" stop-color="#e6de7c"/><stop offset=".457" stop-color="#e5dc7b"/><stop offset=".461" stop-color="#e4db7a"/><stop offset=".465" stop-color="#e3d979"/><stop offset=".469" stop-color="#e2d878"/><stop offset=".473" stop-color="#e1d677"/><stop offset=".477" stop-color="#e0d576"/><stop offset=".48" stop-color="#e0d374"/><stop offset=".484" stop-color="#dfd273"/><stop offset=".488" stop-color="#ded072"/><stop offset=".492" stop-color="#ddcf71"/><stop offset=".496" stop-color="#dccd70"/><stop offset=".5" stop-color="#dbcc6f"/><stop offset=".504" stop-color="#daca6e"/><stop offset=".508" stop-color="#d9c96d"/><stop offset=".512" stop-color="#d9c76c"/><stop offset=".516" stop-color="#d8c66b"/><stop offset=".52" stop-color="#d7c56a"/><stop offset=".523" stop-color="#d6c369"/><stop offset=".527" stop-color="#d5c268"/><stop offset=".531" stop-color="#d4c067"/><stop offset=".535" stop-color="#d4bf66"/><stop offset=".539" stop-color="#d3be65"/><stop offset=".543" stop-color="#d2bc64"/><stop offset=".547" stop-color="#d1bb63"/><stop offset=".551" stop-color="#d0ba62"/><stop offset=".555" stop-color="#cfb861"/><stop offset=".559" stop-color="#cfb760"/><stop offset=".563" stop-color="#ceb65f"/><stop offset=".566" stop-color="#cdb45e"/><stop offset=".57" stop-color="#ccb35d"/><stop offset=".574" stop-color="#cbb25c"/><stop offset=".578" stop-color="#cbb05b"/><stop offset=".582" stop-color="#caaf5a"/><stop offset=".586" stop-color="#c9ae59"/><stop offset=".59" stop-color="#c8ac58"/><stop offset=".594" stop-color="#c7ab58"/><stop offset=".598" stop-color="#c7aa57"/><stop offset=".602" stop-color="#c6a956"/><stop offset=".605" stop-color="#c5a755"/><stop offset=".609" stop-color="#c4a654"/><stop offset=".613" stop-color="#c4a553"/><stop offset=".617" stop-color="#c3a352"/><stop offset=".621" stop-color="#c2a252"/><stop offset=".625" stop-color="#c1a151"/><stop offset=".629" stop-color="#c0a050"/><stop offset=".633" stop-color="#c09f4f"/><stop offset=".637" stop-color="#bf9d4e"/><stop offset=".641" stop-color="#be9c4d"/><stop offset=".645" stop-color="#bd9b4d"/><stop offset=".648" stop-color="#bd9a4c"/><stop offset=".656" stop-color="#bc994c"/><stop offset=".672" stop-color="#bb984c"/><stop offset=".688" stop-color="#ba974c"/><stop offset=".703" stop-color="#b9964c"/><stop offset=".719" stop-color="#b8944c"/><stop offset=".734" stop-color="#b7934c"/><stop offset=".75" stop-color="#b6924d"/><stop offset=".766" stop-color="#b5914d"/><stop offset=".781" stop-color="#b4904d"/><stop offset=".797" stop-color="#b38f4d"/><stop offset=".813" stop-color="#b28d4d"/><stop offset=".828" stop-color="#b18c4d"/><stop offset=".844" stop-color="#b08b4d"/><stop offset=".859" stop-color="#af8a4e"/><stop offset=".875" stop-color="#ae894e"/><stop offset=".891" stop-color="#ad884e"/><stop offset=".906" stop-color="#ac864e"/><stop offset=".922" stop-color="#ab854e"/><stop offset=".938" stop-color="#aa844e"/><stop offset=".953" stop-color="#a9834e"/><stop offset=".969" stop-color="#a8824e"/><stop offset=".984" stop-color="#a7814e"/><stop offset="1" stop-color="#a6804e"/></linearGradient><path d="M196.844 26.238l.363-11.988-1.395-.387-2.613-.719c-.426-.117-42.957-11.691-90.758-11.691-47.84 0-90.336 11.574-90.758 11.691l-2.613.72-1.398.386v12.082l-2.778.797-4.5 160.469c0 24.69 15.82 49.703 47.024 74.335 23.07 18.215 46.398 29.43 46.61 29.524l4.663 2.09.778.343 2.199.989.777.347.774-.347 2.203-.989.773-.347 4.664-2.086c.215-.098 23.602-11.363 46.606-29.524 31.203-24.632 47.023-49.644 47.023-74.335l-3.336-160.172zm0 0" fill="#fff"/><path d="M190.148 77.031H14.734v111.43c0 19.894 14.047 41.074 41.758 62.949 22.04 17.398 43.992 27.988 44.21 28.094l1.74.777 1.792-.805c.164-.078 22.094-10.652 44.156-28.066 27.707-21.875 41.758-43.055 41.758-62.95zm-5.234 5.23v106.2c0 18.21-13.379 38.008-39.766 58.84-19.695 15.55-39.457 25.613-42.707 27.226-3.39-1.68-23.012-11.676-42.707-27.226-26.39-20.832-39.77-40.63-39.77-58.84v-106.2z" fill="#fff"/><path d="M121.773 71.445h-7.117v4.238h7.117zm0 0" fill="#233368"/><path d="M102.437 87.887c-11.66 0-21.113-9.454-21.113-21.114s9.453-21.11 21.113-21.11 21.114 9.45 21.114 21.11-9.454 21.114-21.114 21.114" fill="#fff"/><g clip-path="url(#a)" transform="translate(-195.258 -270.422)"><g clip-path="url(#b)"><path d="M274.18 313.676v47.043h47.039v-47.043zm0 0" fill="url(#c)"/></g></g><g clip-path="url(#d)" transform="translate(-195.258 -270.422)"><g clip-path="url(#e)"><path d="M213.895 572.066V343.758l166.902-.742v228.308zm0 0" fill="#fff"/></g></g><g clip-path="url(#f)" transform="translate(-195.258 -270.422)"><g clip-path="url(#g)"><path d="M318.215 344.258h61.937v61.797h-61.937zm0 0" fill="#dc1430"/></g></g><g clip-path="url(#h)" transform="translate(-195.258 -270.422)"><g clip-path="url(#i)"><path d="M215.09 447.305h61.875v123.754H215.09zm0 0" fill="#dc1430"/></g></g><g clip-path="url(#j)" transform="translate(-195.258 -270.422)"><g clip-path="url(#k)"><g clip-path="url(#l)" transform="translate(215 347)"><g clip-path="url(#m)"><path d="M92.902 224.059V89.992h72.188V69.324H92.902V-2.742H72.29v72.066H.09v20.668h72.2V224.06zm0 0" fill="#172b63"/></g></g></g></g><g clip-path="url(#n)" transform="translate(-195.258 -270.422)"><g clip-path="url(#o)"><path d="M215.09 344.258h61.894v61.797H215.09zm0 0" fill="#dc1430"/></g></g><g clip-path="url(#p)" transform="translate(-195.258 -270.422)"><g clip-path="url(#q)"><path d="M318.215 447.305h61.875v123.754h-61.875zm0 0" fill="#dc1430"/></g></g><g fill="#fff"><path d="M190.168 77.031H14.75V188.68c0 19.894 14.05 41.074 41.758 62.949 22.043 17.398 43.996 27.988 44.21 28.09l1.743.78 1.793-.804c.16-.078 22.09-10.652 44.152-28.066 27.711-21.875 41.762-43.055 41.762-62.95zm-5.235 5.23V188.68c0 18.21-13.379 38.007-39.77 58.84-19.687 15.542-39.448 25.609-42.702 27.226-3.395-1.684-23.016-11.68-42.711-27.227-26.387-20.832-39.766-40.629-39.766-58.84V82.263z"/><path d="M102.442 87.887c-11.66 0-21.114-9.454-21.114-21.114s9.453-21.11 21.113-21.11 21.114 9.45 21.114 21.11-9.454 21.114-21.114 21.114"/><path d="M76.855 66.773c0 14.13 11.457 25.586 25.586 25.586 14.13 0 25.586-11.457 25.586-25.586s-11.457-25.585-25.585-25.585-25.586 11.457-25.586 25.586"/></g><g clip-path="url(#r)" transform="translate(71.742 15.578)"><path d="M7.86.21h3.093v22.552H7.215L3.703 7.559l.031 15.203H.641V.21h4.027l3.223 14.016zm0 0" fill="#172b63"/></g><g clip-path="url(#s)" transform="translate(84.742 15.578)"><path d="M6.39 3.047h-.706c-.903 0-1.325.418-1.325 1.32v14.238c0 .903.422 1.32 1.325 1.32h.707c.87 0 1.289-.417 1.289-1.32V4.367c0-.902-.418-1.32-1.29-1.32m.548 19.91H5.102C2.3 22.957.914 21.57.914 18.766V4.207C.914 1.407 2.301.02 5.102.02h1.835c2.805 0 4.188 1.386 4.188 4.187v14.559c0 2.804-1.383 4.191-4.187 4.191" fill="#172b63"/></g><g clip-path="url(#t)" transform="translate(98.742 15.578)"><path d="M5.21 3.273H3.54v7.442h1.542c.969 0 1.418-.453 1.418-1.387V4.563c0-.872-.418-1.29-1.29-1.29m4.77 11.82v7.669H6.535V15.16c0-1-.453-1.45-1.453-1.45H3.539v9.052H.09V.215h5.673c2.8 0 4.187 1.383 4.187 4.183v4.254c0 1.996-.71 2.965-1.965 3.48 1.418.388 1.996 1.255 1.996 2.962" fill="#172b63"/></g><g clip-path="url(#u)" transform="translate(110.742 15.578)"><path d="M5.938 13.422v-2.965h5.152v8.309c0 2.804-1.383 4.191-4.188 4.191H5.066c-2.8 0-4.187-1.387-4.187-4.191V4.207C.879 1.407 2.266.02 5.066.02h1.805c2.805 0 4.156 1.386 4.156 4.156v3.64H7.645V4.367c0-.902-.418-1.32-1.29-1.32h-.707c-.902 0-1.324.418-1.324 1.32v14.238c0 .903.422 1.32 1.324 1.32h.774c.898 0 1.32-.417 1.32-1.32v-5.183zm0 0" fill="#172b63"/></g><g clip-path="url(#v)" transform="translate(124.742 15.578)"><path d="M7.691.21v3.126H3.47v6.379h4.058v3.125H3.47v6.797h4.285v3.125H.024V.21zm0 0" fill="#172b63"/></g><g clip-path="url(#w)" transform="translate(102.742 47.578)"><path d="M14.95 8.316C11.66 3.711 6.37.68.25.47v37.465c.773 0 2.625-.188 4.234-.625V20.9h2.07l4.243-4.239H4.484V5.55c3.739 1.317 6.149 3.876 7.395 5.856zm0 0" fill="#172b63"/></g><g clip-path="url(#x)" transform="translate(110.742 63.578)"><path d="M10.363 4.898A19.6 19.6 0 0 0 10.266.66H4.902L.66 4.898v14.743c2.403-1.332 3.664-2.61 4.238-3.16V12.1l3.34-.097c.817-1.484 1.446-3.371 1.64-4.238l-4.98.097V4.898zm0 0" fill="#172b63"/></g><g clip-path="url(#y)" transform="translate(82.742 47.578)"><path d="M6.164 14.07l1.356 2.192 9.421 15.246h1.2L18.137.528c-1.172.077-3.032.429-4.239.85l.008 17.063-7.75-12.195C2.934 9.625.926 14.262.926 19.196c0 3.366 1 6.64 2.433 9.261h-.007c3.054 5.246 8.418 8.969 14.789 9.426V33.59c-4.352-.426-8.602-3.059-10.903-7.02-3.523-6.07-1.379-11.629-1.074-12.5" fill="#172b63"/></g><g clip-path="url(#z)" transform="translate(-195.258 -270.422)"><g clip-path="url(#A)"><path d="M195.258 270.422v296.422H400.14V270.422zm0 0" fill="url(#B)"/></g></g></svg>