<svg viewBox=".45 .35 99.36 99.49" xmlns="http://www.w3.org/2000/svg"><g fill-rule="evenodd"><path d="m50.142.372c27.442 0 49.689 22.266 49.689 49.733s-22.247 49.732-49.689 49.732-49.688-22.266-49.688-49.732 22.246-49.733 49.688-49.733" fill="#00619e"/><path d="m50.142 4.312c25.268 0 45.752 20.502 45.752 45.793s-20.484 45.792-45.752 45.792-45.751-20.502-45.751-45.792 20.483-45.793 45.751-45.793" fill="#fff"/><path d="m50.142 35.035 3.496 10.84 11.38-.022-9.22 6.678 3.539 10.827-9.195-6.713-9.194 6.713 3.538-10.827-9.22-6.678 11.38.022z" fill="#fc0"/><path d="m11.855 68.086 19.125-15.42a19.233 19.233 0 0 0 2.403 7.087l-17.973 14.492c-1.349-1.941-2.54-4-3.554-6.16m11.034-50.337 19.821 14.492a19.361 19.361 0 0 0 -6.213 4.16l-18.638-13.626a42.562 42.6 0 0 1 5.03-5.026m59.535 5.026-18.638 13.626a19.36 19.36 0 0 0 -6.213-4.161l19.821-14.492a42.586 42.586 0 0 1 5.03 5.026m2.45 51.472-17.973-14.492a19.225 19.225 0 0 0 2.402-7.087l19.125 15.42a42.24 42.278 0 0 1 -3.554 6.159" fill="#cc001c"/><path d="m75.591 83.905-19.205-15.484a19.305 19.305 0 0 0 6.509-3.777l17.997 14.51a42.53 42.567 0 0 1 -5.3 4.751m-61.447-56.015 18.662 13.644a19.25 19.25 0 0 0 -1.952 7.276l-19.925-14.567a42.138 42.176 0 0 1 3.216-6.353m75.208 6.353-19.924 14.567a19.257 19.257 0 0 0 -1.952-7.276l18.661-13.644a42.196 42.234 0 0 1 3.215 6.353m-69.96 44.911 17.996-14.51a19.312 19.312 0 0 0 6.509 3.777l-19.205 15.484a42.538 42.576 0 0 1 -5.3-4.75" fill="#00619e"/></g><path d="m43.616 24.637-.859-2.612a7.78 7.78 0 0 1 -3.96 0l-.86 2.612c-1.006.344-2.013.38-3.02 0l4.413-14.003h3.33l4.06 14.003c-1.034.358-2.07.367-3.104 0m-2.74-10.19-1.415 5.206a6.93 6.93 0 0 0 2.614 0zm11.156-3.978c1.74 0 3.076.374 4.007 1.12.932.747 1.398 1.97 1.398 3.668 0 1.711-.472 2.948-1.415 3.708s-2.057 1.14-3.806 1.14h-1.119v4.532c-1.05.358-2.102.345-3.153 0v-13.798c.572-.137 1.765-.234 2.404-.288s1.2-.082 1.684-.082m-.125 2.733c-.191 0-.145.007-.33.02a16.443 16.458 0 0 0 -.48.041v4.11h.825c.91 0 1.068-.152 1.528-.452s.69-.863.69-1.685c0-.397-.059-.726-.177-.986a1.534 1.534 0 0 0 -.505-.627 2.014 2.014 0 0 0 -.8-.329c-.314-.06-.37-.092-.751-.092m6.705 11.435v-14.12h8.281v2.983h-4.951v2.568h3.677v2.927h-3.736v5.64c-1.09.345-2.18.36-3.27 0m-25.266 56.754q1.09.63 1.423 1.405.331.775-.243 1.771c-.386.67-.862 1.039-1.427 1.108-.566.07-1.215-.107-1.947-.53l-.344-.2-1.075 1.863-1.098-.634 3.164-5.485c.27.085.545.194.825.327s.52.258.722.375m-.546 1.108a3.93 3.93 0 0 0 -.24-.128c-.08-.04-.15-.073-.21-.1l-.926 1.606.345.2c.38.22.7.326.96.32.26-.008.483-.171.668-.493.09-.155.14-.298.149-.428a.703.703 0 0 0 -.07-.367 1.009 1.009 0 0 0 -.26-.321 2.805 2.805 0 0 0 -.416-.289m4.312 7.789c.028-.229.052-.466.072-.711q.03-.368.064-.734c-.879-.063-1.57-.324-2.034-.823-.154.192-.308.382-.464.573q-.233.285-.441.561l-1.22-.493c.454-.563.88-1.081 1.275-1.554q.593-.71 1.137-1.33c.363-.414.713-.804 1.051-1.17a34.73 34.761 0 0 1 1.02-1.063l1.123.454a54.55 54.55 0 0 1 -.06 3.046c-.025.55-.06 1.132-.104 1.748q-.066.923-.161 2.005zm.45-5.178c-.059.076-.144.178-.255.307l-.38.445a209.335 209.523 0 0 0 -.476.558 45.529 45.57 0 0 0 -.536.644c.389.39.889.582 1.484.6a102.168 102.26 0 0 0 .065-.834c.02-.265.035-.51.046-.731.01-.223.021-.419.031-.588l.022-.401m4.93.023c.822.19 1.415.503 1.776.939.36.435.46 1.005.297 1.71-.1.44-.271.776-.512 1.01-.24.232-.544.389-.913.469.075.182.15.388.225.618s.146.468.214.715c.068.248.13.503.186.767a18.376 18.392 0 0 1 .147.771l-1.385-.32c-.172-.736-.541-2.448-.802-3.058.55-.327 1.422-.645 1.568-1.276.07-.307.02-.549-.154-.725q-.26-.265-.854-.402c-.09-.02-.17-.036-.243-.047l-.206-.028-.392 1.698-.259 1.12-.527 2.286-1.235-.285 1.423-6.17c.283.001.572.023.865.066.293.042.553.09.78.142m6.35 7.5a17.71 17.725 0 0 0 -.139-.702 65.127 65.185 0 0 1 -.153-.72l-2.185-.192a77.437 77.506 0 0 1 -.276.683 17.243 17.258 0 0 0 -.258.667l-1.312-.115c.27-.672.526-1.291.766-1.86a68.088 68.088 0 0 1 1.362-3.031 35.263 35.295 0 0 1 .666-1.315l1.206.106a54.883 54.933 0 0 1 .423 1.41c.138.48.274.987.41 1.52q.203.8.41 1.702.207.902.432 1.965zm-1.081-5.084c-.035.09-.087.212-.155.368l-.234.538-.292.672a47.195 47.238 0 0 0 -.324.772l1.595.14a96.39 96.477 0 0 0 -.182-.817q-.088-.389-.17-.712a59.062 59.062 0 0 1 -.142-.571zm6.152-.175c-.59.021-1.01.223-1.26.606s-.363.899-.34 1.547q.016.473.127.854c.074.254.18.472.316.652.136.181.304.32.502.414s.428.138.688.13a5.96 5.96 0 0 0 .36-.023q.15-.014.263-.046l-.078-2.233 1.267-.044.111 3.178q-.224.11-.723.243-.5.134-1.239.16a2.873 2.873 0 0 1 -1.156-.183 2.392 2.392 0 0 1 -.904-.617 2.986 2.986 0 0 1 -.601-1.028c-.147-.41-.23-.88-.249-1.41a4.281 4.281 0 0 1 .17-1.436c.131-.419.32-.776.564-1.072q.367-.445.875-.685t1.092-.26a3.916 3.916 0 0 1 1.278.154 2.371 2.371 0 0 1 .607.271l-.325 1.171q-.265-.148-.606-.252c-.228-.07-.474-.1-.74-.09m5.718 4.69c-.39.068-.737.065-1.042-.01a1.906 1.906 0 0 1 -.792-.397q-.335-.285-.548-.722a3.734 3.734 0 0 1 -.311-.995l-.694-3.936 1.249-.22.672 3.817c.045.255.11.469.191.64q.124.255.286.4a.756.756 0 0 0 .362.186c.134.027.276.027.425 0q.457-.08.684-.45.228-.37.093-1.136l-.672-3.817 1.248-.22.693 3.935c.066.371.08.72.045 1.047a2.202 2.202 0 0 1 -.276.872q-.221.383-.621.642c-.267.172-.598.294-.992.363m7.402-2.278a17.376 17.392 0 0 0 -.412-.584 71.17 71.235 0 0 1 -.433-.596c-.598.396-1.28.65-2.074.715.01.245.018.49.026.737a17.576 17.592 0 0 0 .035.713l-1.245.43c-.026-.724-.044-1.395-.056-2.012s-.016-1.2-.013-1.75q.004-.826.026-1.574c.014-.498.039-.989.073-1.471l1.145-.395a55.617 55.667 0 0 1 .96 1.116c.32.383.651.79.992 1.222.34.432.696.895 1.066 1.388.37.494.768 1.033 1.193 1.619zm-3.053-4.204c.005.097.008.23.009.4a390.342 390.342 0 0 0 .011 1.32c.003.266.01.545.018.837a2.36 2.36 0 0 0 1.513-.522 92.235 92.318 0 0 0 -.497-.672c-.16-.213-.308-.407-.446-.582a63.127 63.184 0 0 1 -.361-.464q-.155-.201-.247-.317m5.355-1.011c-.005-.494-.02-.984-.044-1.468a21.513 21.513 0 0 0 -.12-1.438l1.235-.657c.052.757.084 1.499.097 2.227.012.729.01 1.469-.008 2.22l1.153 2.17-1.12.596-1.144-2.154a53.261 53.31 0 0 1 -1.85-1.24 43.812 43.812 0 0 1 -1.8-1.333l1.3-.691a25.309 25.331 0 0 0 1.116.907c.383.294.778.58 1.185.861" fill="#00619e"/></svg>