<svg height="327.684" viewBox="0 0 366.361 393.315" width="305.172" xmlns="http://www.w3.org/2000/svg"><path d="m0 0h-4.112v-3.545c0-.5.057-.935.192-1.422.625-2.256 2.272-3.955 3.92-5.083 1.648 1.128 3.295 2.827 3.92 5.083.135.487.193.922.193 1.422v3.545z" fill="#ffc525" transform="matrix(32.95203 0 0 -32.95203 184.406 0)"/><path d="m0 0v-3.4c0-.481.058-.92.187-1.382.572-2.068 2.049-3.74 3.78-4.946 1.731 1.206 3.208 2.878 3.78 4.946.128.462.187.901.187 1.382v3.4z" fill="#01963a" transform="matrix(32.95203 0 0 -32.95203 53.695 4.785)"/><path d="m0 0v.779h2.107v-.779h1.474v-.742h1.324v2.84h-7.702v-2.84h1.323v.742z" fill="#ffc525" transform="matrix(32.95203 0 0 -32.95203 149.688 77.773)"/><path d="m0 0a4 4 0 0 1 -.03.227l-.098-.115q.057-.054.113-.112zm2.8.504a2.2 2.2 0 0 1 -.014-.413c.03.041.069.079.108.123.08.089.175.178.281.24q-.171.145-.343.283zm-2.186.294.216-.145c.193-.13.39-.31.449-.534q.13.275.338.5a.1.1 0 0 0 .04.037c.062.036.124.007.163-.042l.036-.052q.051-.083.097-.168c.069-.133.133-.273.184-.416h.017c.015.273.243.488.467.638l.197.133c-.333.268-.664.516-.993.731-.068.045-.058.046-.068-.034l-.032-.272c-.005-.037-.012-.136-.074-.124-.05.009-.056.091-.062.13l-.044.256c-.011.066-.002.067-.062.034a5 5 0 0 1 -1.25-.957c.124-.062.232-.162.323-.262.039-.044.078-.082.107-.123q.013.202-.014.412zm2.866-.604a4 4 0 0 1 -.03-.229l.014-.001q.066.067.132.129v.001z" fill="#fff" transform="matrix(32.95203 0 0 -32.95203 131.43 143.177)"/><g fill="#eed43f"><path d="m0 0 .097.115-.013.073-.126-.148z" transform="matrix(32.95203 0 0 -32.95203 127.228 139.493)"/><path d="m0 0 .115-.101.043.041-.004.003-.142.123z" transform="matrix(32.95203 0 0 -32.95203 246.119 136.774)"/><path d="m0 0c.015.038.029.029.041 0a.61.61 0 0 1 .358-.401c.18-.073.392-.077.582-.117.21-.046.463-.086.64-.217.263-.195.376-.569.428-1.017a5 5 0 0 1 -.55.208c-.385.114-.834.108-1.172.343-.209.145-.315.372-.357.616q-.046.284.03.585" transform="matrix(32.95203 0 0 -32.95203 110.106 209.549)"/></g><g fill="#ffc525"><path d="m0 0c.359.37.765.698 1.25.957.061.033.051.033.062-.034l.044-.256c.007-.039.012-.121.062-.13.062-.012.069.087.074.125l.033.271c.01.08-.001.079.068.034.328-.215.66-.463.992-.731l.017.011-.003-.023q.172-.138.343-.283l.057.03c-.441.371-.896.731-1.375 1.045-.033.022-.07.054-.113.034-.041-.021-.039-.071-.044-.11l-.033-.271a.4.4 0 0 0 -.009-.057c-.006.022-.01.054-.012.065l-.043.256c-.006.036-.006.076-.044.096-.037.02-.072-.003-.104-.02a5.2 5.2 0 0 1 -1.278-.984q.028-.011.056-.025" transform="matrix(32.95203 0 0 -32.95203 139.104 126.276)"/><path d="m0 0c.235-1.723.965-2.48 1.971-2.697-.632.319-1.256.657-1.307 2.2-.231.236-.458.44-.664.497" transform="matrix(32.95203 0 0 -32.95203 109.048 126.816)"/><path d="m0 0c-.236-1.723-.965-2.481-1.972-2.696.633.318 1.256.656 1.307 2.2.232.235.458.44.665.496" transform="matrix(32.95203 0 0 -32.95203 267.498 128.035)"/><path d="m0 0c.068-.258.08-.498.105-.759.093-.979.559-1.526 1.22-1.846-.529.555-.836 1.218-.755 2.073.011.111-.067.168-.141.25-.138.152-.28.26-.429.282" transform="matrix(32.95203 0 0 -32.95203 132.757 128.187)"/><path d="m0 0c-.068-.258-.08-.498-.105-.759-.094-.979-.559-1.526-1.22-1.846.529.555.836 1.217.755 2.071-.01.112.067.17.141.251.138.153.28.26.429.283" transform="matrix(32.95203 0 0 -32.95203 243.77 129.38)"/><path d="m0 0c.044-.323.006-.602-.036-.917-.086-.652.226-1.214.769-1.725-.457.719-.491 1.358-.332 1.96.077.29-.16.52-.401.682" transform="matrix(32.95203 0 0 -32.95203 156.624 124.849)"/><path d="m0 0c-.044-.322-.007-.602.035-.916.086-.653-.226-1.216-.769-1.725.458.719.492 1.357.332 1.959-.077.29.16.52.402.682" transform="matrix(32.95203 0 0 -32.95203 219.922 126.065)"/><path d="m0 0a1.86 1.86 0 0 1 -.489-1.528c.071-.517.279-.896.548-1.214.232.416.33.85.366 1.331.011.138.017.27-.006.407-.08.504-.424 1.054-.419 1.004" transform="matrix(32.95203 0 0 -32.95203 187.896 125.004)"/><path d="m0 0 .151-.005.027-1.511c.058-.225.123-.43.205-.593l-.246-.296s-.247.237-.259.259c-.011.023.094.613.094.623z" transform="matrix(32.95203 0 0 -32.95203 185.335 222.627)"/><path d="m0 0c.015.038.029.029.041 0a.61.61 0 0 1 .358-.401c.18-.073.392-.077.582-.117.21-.046.463-.086.64-.217.263-.195.376-.569.428-1.017a5 5 0 0 1 -.55.208c-.385.114-.834.108-1.172.343-.209.145-.315.372-.357.616q-.046.284.03.585" transform="matrix(32.95203 0 0 -32.95203 110.106 209.549)"/><path d="m0 0c-.015.038-.029.029-.041 0a.61.61 0 0 0 -.358-.401c-.18-.073-.392-.076-.582-.117-.21-.046-.463-.086-.64-.217-.263-.195-.376-.57-.428-1.017q.268.122.55.207c.385.115.834.109 1.173.344.208.145.314.371.356.616q.047.284-.03.585" transform="matrix(32.95203 0 0 -32.95203 265.725 209.565)"/></g><path d="m0 0c.187-.058.377-.108.572-.137a4.8 4.8 0 0 1 2.202.17l-.245.687.125.046c1.181.436 2.057 1.195 2.71 2.257l.104.169.13-.149c.252-.29.264-.686.23-1.057.243.112.482.281.684.428l.229.17c-.006-.239-.01-.371-.116-.586-.251-.511-.645-.951-1.043-1.352l-.009-.009.295-.278.105-.099-.099-.107a6.1 6.1 0 0 0 -1.495-1.185 6.2 6.2 0 0 0 -2.343-.721c-1.18-.128-2.485.006-3.558.537a7.4 7.4 0 0 0 -1.578 1.088l-.11.095.096.11.359.409-.008.009c-.594.514-1.21 1.177-1.464 1.935l-.15.445.375-.282c.214-.161.48-.351.754-.429.003.285.106.547.24.807l.116.225.136-.214c.673-1.061 1.588-1.813 2.783-2.21l.048-.015z" fill="#ffc525" transform="matrix(32.95203 0 0 -32.95203 144.231 334.064)"/><path d="m0 0c.329-.248.659-.458 1-.492-.053.333.061.63.21.919.694-1.092 1.636-1.863 2.861-2.27a6.7 6.7 0 0 0 -1.879.231c.511-.479 1.074-.744 1.655-.939.263-.088.519-.165.793-.207a5 5 0 0 1 2.477.244c.63.222 1.193.602 1.681 1.057l-2.003-.39c1.27.469 2.148 1.285 2.782 2.318.258-.296.226-.733.17-1.183.299.09.617.295.94.533-.221-.58-.647-1.073-1.118-1.549l-.466.412-.101-.101.855-.807a6 6 0 0 0 -1.459-1.158 6.1 6.1 0 0 0 -2.288-.703c-1.15-.125-2.43.004-3.477.523-.544.269-1.056.636-1.548 1.066l.829.945-.077.106-.415-.427c-.713.618-1.21 1.241-1.422 1.872" fill="#01963a" transform="matrix(32.95203 0 0 -32.95203 9.47 252.455)"/><path d="m0 0 .193.135-.17.116a2 2 0 0 0 -.122.089 1 1 0 0 0 .045-.13zm0-.347-.18.72.081.057.63-.405-.086-.061-.186.126-.238-.166.059-.215zm-.271.114.092.023a.3.3 0 0 0 -.011-.201.3.3 0 0 0 -.134-.139.33.33 0 0 0 -.181-.045.3.3 0 0 0 -.157.067.47.47 0 0 0 -.172.333q0 .09.047.163a.35.35 0 0 0 .128.116.3.3 0 0 0 .18.036.3.3 0 0 0 .157-.085l-.07-.062a.2.2 0 0 1 -.113.065.2.2 0 0 1 -.118-.024.22.22 0 0 1 -.1-.097.2.2 0 0 1 -.018-.126.43.43 0 0 1 .138-.252.2.2 0 0 1 .117-.049.22.22 0 0 1 .119.026.2.2 0 0 1 .094.101.23.23 0 0 1 .002.15m-.564-.533-.271.638.085.036.27-.639zm-.742.152.188.061a.3.3 0 0 1 .089.043q.03.023.038.056a.11.11 0 0 1 -.06.131q-.043.019-.117-.005l-.209-.068zm.032-.396-.214.659.293.095a.4.4 0 0 0 .139.025.15.15 0 0 0 .094-.038.2.2 0 0 0 .059-.091.17.17 0 0 0 -.007-.133q-.028-.063-.12-.107a.2.2 0 0 0 .064-.015.5.5 0 0 0 .1-.065l.173-.142-.11-.035-.131.108a1 1 0 0 1 -.093.07.2.2 0 0 1 -.058.03.1.1 0 0 1 -.045.005.2.2 0 0 1 -.05-.013l-.101-.032.095-.293zm-.652-.116-.12.682.46.081.014-.08-.37-.066.037-.211.321.057.013-.081-.319-.057.054-.31zm-.613.225.234.017-.085.186a2 2 0 0 0 -.06.14 1 1 0 0 0 -.028-.135zm-.18-.297.217.709.099.007.331-.671-.104-.007-.096.203-.289-.02-.06-.215zm-.97.051.06.69.091-.008-.024-.283.358-.032.025.284.091-.008-.06-.691-.092.008.029.326-.359.032-.028-.326zm-.451.065.116.6-.223.044.015.08.539-.105-.016-.08-.225.044-.116-.6zm-.248.753.087-.029-.131-.379a.5.5 0 0 0 -.076-.149.2.2 0 0 0 -.114-.067.3.3 0 0 0 -.165.016.33.33 0 0 0 -.14.084.2.2 0 0 0 -.051.121.5.5 0 0 0 .031.172l.13.379.087-.03-.13-.378a.4.4 0 0 1 -.027-.131q.001-.046.032-.081a.2.2 0 0 1 .087-.055q.096-.033.152-.003.054.03.098.152zm-1.19.121a.28.28 0 0 1 -.03-.206.22.22 0 0 1 .118-.142.22.22 0 0 1 .185-.012q.091.034.153.154.037.075.042.145a.23.23 0 0 1 -.125.212.24.24 0 0 1 -.18.016q-.092-.027-.163-.167m-.084.044q.078.154.205.199t.257-.022a.34.34 0 0 0 .134-.119.3.3 0 0 0 .046-.167.4.4 0 0 0 -.048-.184.4.4 0 0 0 -.124-.15.3.3 0 0 0 -.164-.057.34.34 0 0 0 -.169.038.33.33 0 0 0 -.135.122.3.3 0 0 0 -.045.168q.001.09.043.172m-.59.275.076-.044a.2.2 0 0 1 -.026-.086q0-.04.026-.084a.3.3 0 0 1 .076-.078.3.3 0 0 1 .084-.04.12.12 0 0 1 .074.001.1.1 0 0 1 .05.037.1.1 0 0 1 .017.057.13.13 0 0 1 -.028.069q-.017.026-.081.099a.6.6 0 0 0 -.085.113.2.2 0 0 0 -.024.095q.003.045.03.084a.2.2 0 0 0 .08.064.2.2 0 0 0 .111.007.3.3 0 0 0 .118-.054.4.4 0 0 0 .097-.099.2.2 0 0 0 -.003-.22l-.075.045a.14.14 0 0 1 .017.109.18.18 0 0 1 -.079.096q-.068.049-.117.045a.1.1 0 0 1 -.073-.038.08.08 0 0 1 -.014-.066.35.35 0 0 1 .086-.12 1 1 0 0 0 .1-.124.2.2 0 0 0 .032-.109.17.17 0 0 0 -.033-.098.2.2 0 0 0 -.085-.067.2.2 0 0 0 -.119-.01.3.3 0 0 0 -.124.055.4.4 0 0 0 -.114.112.23.23 0 0 0 .006.249" fill="#fff" stroke="#fff" stroke-width=".046" transform="matrix(32.95203 0 0 -32.95203 288.88 338.796)"/></svg>