<svg xmlns="http://www.w3.org/2000/svg" width="500" height="500"><path d="M497.499 250c0 136.69-110.81 247.5-247.5 247.5S2.5 386.69 2.5 250 113.31 2.5 250 2.5 497.5 113.31 497.5 250" fill="#e30a17"/><path d="M203.616 116.75c-73.59 0-133.248 59.657-133.248 133.248s59.657 133.248 133.248 133.248c47.416 0 89.04-24.762 112.657-62.064-19.515 21.741-47.83 35.414-79.345 35.414-58.873 0-106.598-47.725-106.598-106.598S178.055 143.4 236.928 143.4c31.515 0 59.83 13.673 79.345 35.414-23.617-37.302-65.241-62.064-112.657-62.064" fill="#fff"/><path d="M429.628 210.837l-120.524 39.161 120.524 39.16-74.488-102.523V313.36z" fill="#fff"/></svg>