<svg viewBox="0 0 480.2 765.2" xmlns="http://www.w3.org/2000/svg" xmlns:xlink="http://www.w3.org/1999/xlink"><linearGradient id="a" gradientUnits="userSpaceOnUse" x1="54.24" x2="129.28" y1="187.54" y2="187.54"><stop offset="0" stop-color="#937752"/><stop offset=".46" stop-color="#937752"/><stop offset="1" stop-color="#937752"/></linearGradient><linearGradient id="b" x1="157.12" x2="224.63" xlink:href="#a" y1="172.82" y2="172.82"/><linearGradient id="c" x1="244.16" x2="327.3" xlink:href="#a" y1="174.47" y2="174.47"/><linearGradient id="d" x1="340.66" x2="415" xlink:href="#a" y1="193.61" y2="193.61"/><linearGradient id="e" x1="93.77" x2="383.84" xlink:href="#a" y1="329.9" y2="329.9"/><linearGradient id="f" x1="93.77" x2="383.84" xlink:href="#a" y1="342.62" y2="342.62"/><linearGradient id="g" x1="93.77" x2="383.84" xlink:href="#a" y1="337.67" y2="337.67"/><linearGradient id="h" x1="93.77" x2="383.84" xlink:href="#a" y1="337.7" y2="337.7"/><linearGradient id="i" x1="93.77" x2="383.84" xlink:href="#a" y1="301.56" y2="301.56"/><linearGradient id="j" x1="93.77" x2="383.84" xlink:href="#a" y1="328.33" y2="328.33"/><linearGradient id="k" x1="93.77" x2="383.84" xlink:href="#a" y1="333.45" y2="333.45"/><linearGradient id="l" x1="93.77" x2="383.84" xlink:href="#a" y1="342.28" y2="342.28"/><linearGradient id="m" x1="93.77" x2="383.84" xlink:href="#a" y1="337.35" y2="337.35"/><linearGradient id="n" x1="93.77" x2="383.84" xlink:href="#a" y1="328.31" y2="328.31"/><linearGradient id="o" x1="93.77" x2="383.84" xlink:href="#a" y1="333.42" y2="333.42"/><linearGradient id="p" x1="93.77" x2="383.84" xlink:href="#a" y1="337.32" y2="337.32"/><linearGradient id="q" x1="96.05" x2="387.93" xlink:href="#a" y1="474.31" y2="474.31"/><linearGradient id="r" x1="96.05" x2="387.93" xlink:href="#a" y1="548.46" y2="548.46"/><linearGradient id="s" x1="96.05" x2="387.93" xlink:href="#a" y1="529.7" y2="529.7"/><linearGradient id="t" x1="96.05" x2="387.93" xlink:href="#a" y1="513.47" y2="513.47"/><linearGradient id="u" x1="96.05" x2="387.93" xlink:href="#a" y1="497.2" y2="497.2"/><linearGradient id="v" x1="96.05" x2="387.93" xlink:href="#a" y1="475.06" y2="475.06"/><linearGradient id="w" x1="96.05" x2="387.93" xlink:href="#a" y1="447.12" y2="447.12"/><linearGradient id="x" x1="96.05" x2="387.93" xlink:href="#a" y1="432.55" y2="432.55"/><linearGradient id="y" x1="96.05" x2="387.93" xlink:href="#a" y1="414.25" y2="414.25"/><linearGradient id="z" x1="96.05" x2="387.93" xlink:href="#a" y1="399.94" y2="399.94"/><linearGradient id="A" x1="96.05" x2="387.93" xlink:href="#a" y1="385.77" y2="385.77"/><linearGradient id="B" x1="96.05" x2="387.93" xlink:href="#a" y1="379.38" y2="379.38"/><linearGradient id="C" x1="96.05" x2="387.93" xlink:href="#a" y1="372.4" y2="372.4"/><linearGradient id="D" x1="96.05" x2="387.93" xlink:href="#a" y1="369.75" y2="369.75"/><linearGradient id="E" x1="96.05" x2="387.93" xlink:href="#a" y1="371.15" y2="371.15"/><linearGradient id="F" x1="96.05" x2="387.93" xlink:href="#a" y1="377.35" y2="377.35"/><linearGradient id="G" x1="96.05" x2="387.93" xlink:href="#a" y1="385.32" y2="385.32"/><linearGradient id="H" x1="96.05" x2="387.93" xlink:href="#a" y1="397.58" y2="397.58"/><linearGradient id="I" x1="96.05" x2="387.93" xlink:href="#a" y1="409.34" y2="409.34"/><linearGradient id="J" x1="96.05" x2="387.93" xlink:href="#a" y1="431.3" y2="431.3"/><linearGradient id="K" x1="96.05" x2="387.93" xlink:href="#a" y1="456.75" y2="456.75"/><linearGradient id="L" x1="96.05" x2="387.93" xlink:href="#a" y1="471.65" y2="471.65"/><linearGradient id="M" x1="96.05" x2="387.93" xlink:href="#a" y1="481.99" y2="481.99"/><linearGradient id="N" x1="96.05" x2="387.93" xlink:href="#a" y1="499.93" y2="499.93"/><linearGradient id="O" x1="96.05" x2="387.93" xlink:href="#a" y1="519.95" y2="519.95"/><linearGradient id="P" x1="96.05" x2="387.93" xlink:href="#a" y1="535.78" y2="535.78"/><linearGradient id="Q" x1="96.05" x2="387.93" xlink:href="#a" y1="548.65" y2="548.65"/><linearGradient id="R" x1="94.14" x2="398.14" xlink:href="#a" y1="500.53" y2="500.53"/><linearGradient id="S" x1="90.37" x2="395.58" xlink:href="#a" y1="508.97" y2="508.97"/><linearGradient id="T" x1="96.29" x2="386.92" xlink:href="#a" y1="508.85" y2="508.85"/><linearGradient id="U" x1="97.57" x2="386" xlink:href="#a" y1="472.91" y2="472.91"/><linearGradient id="V" x1="96.65" x2="386.81" xlink:href="#a" y1="444.72" y2="444.72"/><linearGradient id="W" x1="96.12" x2="387.75" xlink:href="#a" y1="417.58" y2="417.58"/><linearGradient id="X" gradientTransform="rotate(-2.23 1328.767 919.439)" x1="111.41" x2="412.17" xlink:href="#a" y1="529.08" y2="529.08"/><linearGradient id="Y" gradientTransform="rotate(-2.23 1328.767 919.439)" x1="110.35" x2="411.12" xlink:href="#a" y1="532.21" y2="532.21"/><linearGradient id="Z" gradientTransform="rotate(3.63 272.186 574.667)" x1="99.17" x2="384.42" xlink:href="#a" y1="576.52" y2="576.52"/><linearGradient id="aa" gradientTransform="rotate(3.63 272.186 574.667)" x1="99.17" x2="384.42" xlink:href="#a" y1="571.29" y2="571.29"/><linearGradient id="ab" x1="235.84" x2="244.36" xlink:href="#a" y1="573.74" y2="573.74"/><linearGradient id="ac" x1="228.8" x2="251.41" xlink:href="#a" y1="580.82" y2="580.82"/><linearGradient id="ad" x1="226.12" x2="241.51" xlink:href="#a" y1="645.08" y2="645.08"/><linearGradient id="ae" x1="220.06" x2="233.94" xlink:href="#a" y1="656.31" y2="656.31"/><linearGradient id="af" x1="220.52" x2="260.15" xlink:href="#a" y1="659.25" y2="659.25"/><path d="M236.06 763.17c-40.41-20.31-76.72-46.61-107.92-78.18-30.8-31.16-56.63-67.45-76.76-107.86-40.46-81.19-57.55-179.1-49.4-283.14l.59-7.63 4.86-2.19c73.62-33.21 151.91-50.05 232.67-50.05s159.05 16.84 232.67 50.05l4.86 2.19.59 7.63c8.15 104.04-8.93 201.95-49.4 283.14-20.14 40.41-45.96 76.69-76.76 107.86-31.2 31.57-67.51 57.87-107.92 78.18l-4.04 2.03z" fill="#ae0411"/><path d="M93.1 279.93l-.19 311.41c-5.69-9.43-10.12-19.64-15.07-29.62-18.99-38.22-32.61-80.37-40.51-125.28-6.97-39.67-10.07-90.49-8.14-134.78 20.95-8.57 42.3-15.82 63.91-21.73m118.8-19.03v453.68c-21.57-14.02-41.13-29.78-59.33-47.73V267.1c19.68-3.13 39.49-5.2 59.33-6.2" fill="#ae0411"/><path d="M327.63 267.77v399.08c-18.2 17.95-37.76 33.71-59.33 47.73V260.9c15.31.77 30.6 2.18 45.82 4.22 4.44.81 8.94 1.69 13.51 2.65m59.47 14.59l.19 308.98-.2-308.98zm57.42 144.07c4.34-28.41 6.84-61.06 7.04-92.74.22 31.88-2.28 62.76-7.04 92.74"/><path d="M451.56 333.43v.26c-.2 31.68-2.7 64.33-7.04 92.74-.14.92-.29 1.83-.43 2.74-.17 1-.33 1.99-.49 2.98-.23 1.43-.48 2.86-.73 4.29-7.9 44.91-21.52 87.06-40.51 125.28-4.95 9.98-9.38 20.19-15.07 29.62l-.19-308.98v-2.43a558 558 0 0 1 63.86 21.71c.48 10.34.67 21.01.6 31.79M327.63 267.1v399.75c-18.2 17.95-37.76 33.71-59.33 47.73V260.9c15.31.77 30.6 2.18 45.82 4.22 4.51.6 9.01 1.26 13.51 1.98" fill="#ae0411"/><path d="M465.67 268.53c-71.36-30.99-147.26-46.71-225.56-46.71s-154.2 15.71-225.57 46.71L1.96 274V170.5l5.42-2.35c73.64-31.98 151.94-48.2 232.74-48.2s159.09 16.22 232.73 48.2l5.42 2.35V274l-12.58-5.47z" fill="#ae0411"/><path d="M469.25 260.27c-145.69-63.27-312.61-63.27-458.3 0V176.4c145.69-63.27 312.61-63.27 458.3 0z"/><path d="M451.56 333.43c.07-10.78-.12-21.45-.6-31.79a558 558 0 0 0-63.87-21.71v2.43l.2 308.98c5.69-9.43 10.12-19.64 15.07-29.62 18.99-38.22 32.61-80.37 40.51-125.28.25-1.43.5-2.86.73-4.29.16-.99.32-1.98.49-2.98.14-.91.29-1.82.43-2.74 4.76-29.98 7.26-60.86 7.04-92.74zm-123.93-65.66c-4.57-.96-9.07-1.84-13.51-2.65a555 555 0 0 0-45.82-4.22v453.68c21.57-14.02 41.13-29.78 59.33-47.73z" fill="none"/><path d="M335.42 337.57c.27-.46.39-1.02.32-1.66-.18-1.64-1.46-3.59-3.36-5.07-1.55-1.22-3.3-1.96-4.75-2.04v17.66c.28-.23.54-.48.78-.76.03-.04.07-.08.11-.14.31.27.64.55.98.85l.44.38 6.82-8.04-.44-.39c-.31-.27-.61-.53-.9-.79"/><path d="M37.33 436.44c7.9 44.91 21.52 87.06 40.51 125.28 4.95 9.98 9.38 20.19 15.07 29.62l.19-311.41a557 557 0 0 0-63.91 21.73c-1.93 44.29 1.17 95.11 8.14 134.78" fill="#ae0411"/><path d="M327.63 267.1c-4.5-.72-9-1.38-13.51-1.98 4.44.81 8.94 1.69 13.51 2.65z"/><path d="M37.33 436.44c7.9 44.91 21.52 87.06 40.51 125.28 4.95 9.98 9.38 20.19 15.07 29.62l.19-311.41a557 557 0 0 0-63.91 21.73c-1.93 44.29 1.17 95.11 8.14 134.78m298.09-98.87c.27-.46.39-1.02.32-1.66-.18-1.64-1.46-3.59-3.36-5.07-1.55-1.22-3.3-1.96-4.75-2.04v-61.7c-4.5-.72-9-1.38-13.51-1.98a555 555 0 0 0-45.82-4.22v50.27h-.02l-1.03 5.03c-.61-.11-1.22-.21-1.82-.3-.66-2.96-1.41-5.97-2.24-9.05.55.06 1.09.14 1.64.22l.56.08 1.5-8.78-.58-.1c-4.78-.83-7.13-1.15-11.95-1.6l-.58-.05-.36 3.85c-1.81-.17-2.93-.25-4.74-.35l.2-3.87-.59-.03c-6.32-.34-9.6-.34-15.94-.02l-.58.03.19 3.87c-2.17.11-3.46.21-5.61.41l-.36-3.85-.59.05c-4.81.47-7.15.79-11.93 1.64l-.57.1 1.52 8.77.56-.08q.96-.15 1.92-.27c-.76 2.97-1.46 6.01-2.07 9.12-.97.15-1.95.33-2.93.51v-55.6c-19.84 1-39.65 3.07-59.33 6.2v61.72c-1.45.07-3.19.82-4.75 2.04-1.89 1.49-3.18 3.43-3.35 5.07-.07.64.04 1.21.32 1.67-.29.25-.6.52-.91.79l-.44.39 6.82 8.04.45-.39c.19-.17.38-.33.56-.49q.045.075.12.15c.35.39.75.74 1.18 1.03v319.73c18.2 17.95 37.76 33.71 59.33 47.73V350.8c18.56-5.46 37.77-5.59 56.4-.39v364.17c21.57-14.02 41.13-29.78 59.33-47.73V346.46c.28-.23.54-.48.78-.76.03-.04.07-.08.11-.14.31.27.64.55.98.85l.44.38 6.82-8.04-.44-.39c-.31-.27-.61-.53-.9-.79m116.14-4.14c.07-10.78-.12-21.45-.6-31.79a558 558 0 0 0-63.87-21.71v2.43l.2 308.98c5.69-9.43 10.12-19.64 15.07-29.62 18.99-38.22 32.61-80.37 40.51-125.28.25-1.43.5-2.86.73-4.29.16-.99.32-1.98.49-2.98.14-.91.29-1.82.43-2.74 4.76-29.98 7.26-60.86 7.04-92.74z" fill="none"/><path d="M469.25 294.69l-.18-2.32c-145.59-65.67-312.35-65.67-457.94 0l-.18 2.32C-5.41 503.61 80.21 674.77 240.1 755.13c159.89-80.36 245.51-251.52 229.15-460.44M92.91 591.34c-5.69-9.43-10.12-19.64-15.07-29.62-18.99-38.22-32.61-80.37-40.51-125.28-6.97-39.67-10.07-90.49-8.14-134.78 20.95-8.57 42.3-15.82 63.91-21.73zm237.03-244.55l-.44-.38c-.34-.3-.67-.58-.98-.85-.04.06-.08.1-.11.14-.24.28-.5.53-.78.76v320.39c-18.2 17.95-37.76 33.71-59.33 47.73V350.41c-18.63-5.2-37.84-5.07-56.4.39v363.78c-21.57-14.02-41.13-29.78-59.33-47.73V347.12c-.43-.29-.83-.64-1.18-1.03a.8.8 0 0 1-.12-.15c-.18.16-.37.32-.56.49l-.45.39-6.82-8.04.44-.39c.31-.27.62-.54.91-.79-.28-.46-.39-1.03-.32-1.67.17-1.64 1.46-3.58 3.35-5.07 1.56-1.22 3.3-1.97 4.75-2.04V267.1c19.68-3.13 39.49-5.2 59.33-6.2v55.6c.98-.18 1.96-.36 2.93-.51.61-3.11 1.31-6.15 2.07-9.12q-.96.12-1.92.27l-.56.08-1.52-8.77.57-.1c4.78-.85 7.12-1.17 11.93-1.64l.59-.05.36 3.85c2.15-.2 3.44-.3 5.61-.41l-.19-3.87.58-.03c6.34-.32 9.62-.32 15.94.02l.59.03-.2 3.87c1.81.1 2.93.18 4.74.35l.36-3.85.58.05c4.82.45 7.17.77 11.95 1.6l.58.1-1.5 8.78-.56-.08c-.55-.08-1.09-.16-1.64-.22.83 3.08 1.58 6.09 2.24 9.05.6.09 1.21.19 1.82.3l1.03-5.03h.02V260.9c15.31.77 30.6 2.18 45.82 4.22 4.51.6 9.01 1.26 13.51 1.98v61.7c1.45.08 3.2.82 4.75 2.04 1.9 1.48 3.18 3.43 3.36 5.07.07.64-.05 1.2-.32 1.66.29.26.59.52.9.79l.44.39zm114.58 79.64c-.14.92-.29 1.83-.43 2.74-.17 1-.33 1.99-.49 2.98-.23 1.43-.48 2.86-.73 4.29-7.9 44.91-21.52 87.06-40.51 125.28-4.95 9.98-9.38 20.19-15.07 29.62l-.2-308.98h.01v-2.43a558 558 0 0 1 63.86 21.71c.48 10.34.67 21.01.6 31.79v.26c.22 31.88-2.28 62.76-7.04 92.74"/><path d="M172.63 0l14.92 32.08 35.12 4.28-25.9 24.1 6.79 34.72L172.63 78l-30.92 17.18 6.78-34.72-25.9-24.1 35.12-4.28zm134.95 0l14.91 32.08 35.13 4.28-25.91 24.1 6.79 34.72L307.58 78l-30.93 17.18 6.79-34.72-25.9-24.1 35.12-4.28z" fill="#937752"/><path d="M97.73 153.79l20.79-5.1 9.69 39.54c.98 3.98 1.28 7.9.9 11.74a25.1 25.1 0 0 1-3.56 10.72c-2 3.3-4.33 5.85-6.98 7.63-3.68 2.49-8.36 4.44-14.03 5.83-3.28.8-6.92 1.45-10.91 1.94s-7.46.38-10.4-.35c-2.94-.72-5.8-2.08-8.58-4.06s-4.89-4.21-6.34-6.68c-2.34-3.97-3.92-7.62-4.73-10.93l-9.35-38.13 20.5-6.27 9.87 40.26c.9 3.68 2.62 6.3 5.17 7.87s5.63 1.91 9.25 1.02c3.59-.88 6.15-2.59 7.69-5.13s1.85-5.68.94-9.41l-9.93-40.49z" fill="url(#a)"/><path d="M157.12 187.49l21.72-3.1q1.17 4.965 3.6 7.41 3.945 3.96 10.53 3.42c3.28-.27 5.73-1.2 7.37-2.8s2.37-3.35 2.19-5.27c-.17-1.82-1.16-3.37-2.99-4.67-1.82-1.3-5.87-2.33-12.13-3.09-10.26-1.3-17.7-3.55-22.32-6.74-4.65-3.18-7.23-7.52-7.74-13-.33-3.6.46-7.1 2.37-10.49s5.01-6.18 9.28-8.38 10.27-3.62 18.01-4.26c9.49-.78 16.88.28 22.17 3.2s8.75 7.98 10.37 15.17l-21.52 2.98c-.87-3.11-2.29-5.31-4.26-6.59s-4.58-1.79-7.82-1.52q-4.005.33-5.88 2.1c-1.25 1.18-1.81 2.53-1.67 4.07q.15 1.68 1.95 2.88c1.17.84 3.81 1.49 7.94 1.95 10.22 1.21 17.6 2.68 22.13 4.41s7.93 4.06 10.19 6.99 3.57 6.31 3.93 10.13c.42 4.5-.52 8.75-2.8 12.76s-5.7 7.2-10.24 9.55c-4.55 2.35-10.42 3.83-17.61 4.42-12.63 1.04-21.59-.53-26.88-4.72s-8.58-9.8-9.88-16.82z" fill="url(#b)"/><path d="M249.41 136.29l27.99 1.27 7.87 43.77 14.22-42.24 27.81 3.35-5.25 70.22-17.45-2.23 3.96-53.21-17.45 51.86-15.83-1.18-9.56-53.86-3.96 53.2-17.59-.39 5.25-70.55z" fill="url(#c)"/><path d="M392.38 215.23l-23.66-5.81-6.13 10.52-21.92-4.31 42.68-62.33 22.79 6.2 8.86 74.42-21.97-6.51zm-.74-15.64l-1.49-26.07-13.32 22.43z" fill="url(#d)"/><path d="M192.3 322.82c3.06-1.17 4.61-1.7 7.73-2.68-.53-1.75-.8-2.63-1.33-4.38 3.78-1.18 5.69-1.7 9.53-2.61l1.03 4.47c19.84-4.03 38.54-4.27 58.46-.73.41-2.01.62-3.01 1.03-5.02 4.29.9 6.42 1.43 10.64 2.67a908 908 0 0 1-1.41 4.92c4.39 1.29 6.57 2.03 10.86 3.7-2.59 7.78-5.24 15.54-7.94 23.29-28.55-9.8-55.52-9.34-83.7 1.49-3.23-7.83-6.47-15.65-9.7-23.48 1.92-.7 2.88-1.02 4.82-1.64z" fill="url(#e)"/><path d="M287.94 325.8l.03-.09c.02-.06.04-.13.06-.19.03-.09.06-.18.1-.28 0 0 0-.01-.01 0-.18-.08-.36-.16-.54-.23-.05.15-.11.31-.16.47l-.03.09c-.4 1.18-.79 2.37-1.19 3.56-.07.18-.13.36-.19.55-.06.18-.13.37-.19.56.19.08.37.15.55.22.06-.19.13-.37.19-.56.06-.2.13-.37.19-.56q.27.09.54.21c.4-1.17.79-2.35 1.19-3.53-.18-.08-.36-.15-.54-.22m-30.06-10.36s-.04 0-.06-.01c-.41-.04-.83-.09-1.24-.13-.13-.02-.25-.03-.38-.04-.47-.06-.94-.11-1.4-.15-.05 0-.09-.01-.14-.01-.38-.04-.76-.07-1.15-.11-.78-.07-1.55-.13-2.32-.18-.08-.01-.16-.02-.24-.02-.36-.03-.72-.05-1.08-.07l-.39-.03c-.13 0-.26-.01-.39-.02-.22-.02-.43-.03-.65-.03-.69-.04-1.37-.07-2.06-.1-.64-.02-1.28-.05-1.92-.07-.64-.01-1.28-.03-1.92-.04-.25-.01-.5-.01-.75-.01-2.08-.03-4.16 0-6.24.06-1.55.06-3.11.13-4.67.23v.18c.01.13.02.27.04.4 5.83-.37 11.62-.4 17.46-.06.2 0 .39.01.59.03 2.95.16 5.91.42 8.9.78l.08-.59s-.05-.01-.08-.01zm-68.7 11.61h-.01l-.2-.49-.02-.06-.2-.48c-.17.07-.33.14-.49.22-.02 0-.03.01-.05.02.07.16.14.32.2.48l.03.06c-.18.07-.35.15-.53.23l.2.5c.18-.08.35-.16.53-.24.01.02.02.04.02.06.18-.09.36-.16.54-.24zm98.76-1.25l.03-.09c.02-.06.04-.13.06-.19.03-.09.06-.18.09-.28-.18-.08-.36-.16-.54-.23-.05.15-.11.31-.16.47l-.03.09c-.4 1.18-.79 2.37-1.19 3.56-.07.18-.13.36-.19.55-.06.18-.13.37-.19.56.19.08.37.15.55.22.06-.19.13-.37.19-.56.06-.2.13-.37.19-.56q.27.09.54.21c.4-1.17.79-2.35 1.19-3.53-.18-.08-.36-.15-.54-.22m-30.12-10.37c-.41-.04-.83-.09-1.24-.13-.13-.02-.25-.03-.38-.04-.47-.06-.94-.11-1.4-.15-.05 0-.09-.01-.14-.01-.38-.04-.76-.07-1.15-.11-.78-.07-1.55-.13-2.32-.18-.08-.01-.16-.02-.24-.02-.36-.03-.72-.05-1.08-.07l-.39-.03c-.13 0-.26-.01-.39-.02-.22-.02-.43-.03-.65-.03-.69-.04-1.37-.07-2.06-.1-.64-.02-1.28-.05-1.92-.07-.64-.01-1.28-.03-1.92-.04-.25-.01-.5-.01-.75-.01-2.08-.03-4.16 0-6.24.06-1.55.06-3.11.13-4.67.23v.18c.01.13.02.27.04.4 5.83-.37 11.62-.4 17.46-.06.2 0 .39.01.59.03 2.95.16 5.91.42 8.9.78l.08-.59s-.05-.01-.08-.01c-.02 0-.04 0-.06-.01zm-68.65 11.62l-.2-.49-.02-.06-.2-.48c-.17.07-.33.14-.49.22-.02 0-.03.01-.05.02.07.16.14.32.2.48l.03.06c-.18.07-.35.15-.53.23l.2.5c.18-.08.35-.16.53-.24.01.02.02.04.02.06.18-.09.36-.16.54-.24l-.02-.06zm99.85-4.45c-1.91-.75-3.41-1.3-4.88-1.82-.19-.06-.37-.12-.56-.19-.18-.06-.37-.12-.55-.18-1.31-.44-2.67-.85-4.35-1.35l1.41-4.93-.56-.16c-4.25-1.25-6.34-1.77-10.68-2.68l-.55-.12h-.02l-1.03 5.03c-.61-.11-1.22-.21-1.82-.3-.21-.04-.42-.07-.62-.1-.21-.04-.42-.07-.62-.1-1.68-.27-3.34-.5-4.99-.7-.39-.05-.78-.1-1.16-.14q-4.47-.54-8.88-.78c-.27-.03-.53-.05-.79-.05-5.83-.33-11.61-.3-17.43.06l-.79.06c-.84.06-1.68.12-2.53.2-.39.03-.77.06-1.16.1-3.44.32-6.9.76-10.4 1.33-.21.03-.42.06-.63.1-.2.03-.4.06-.6.11-.97.15-1.95.33-2.93.51-.74.14-1.48.28-2.22.43l-1.03-4.49-.57.13c-3.88.92-5.76 1.43-9.57 2.62l-.56.18 1.34 4.38c-.78.24-1.47.46-2.11.68-.19.06-.37.12-.55.18-.19.07-.38.13-.56.2-1.2.41-2.38.84-3.97 1.45-1.93.62-2.9.95-4.82 1.64l-.58.21.96 2.32.02.06.21.49.02.05.2.5.02.05 1.39 3.34.45 1.09 1.73 4.19.45 1.1 1.53 3.7.45 1.09 1.78 4.29.45 1.1.5 1.21.52-.2c.37-.14.74-.28 1.11-.41.36-.15.73-.28 1.09-.41 4.14-1.52 8.24-2.81 12.32-3.87 18.89-4.95 37.28-5.09 56.4-.43 4.09.98 8.22 2.2 12.39 3.63l.55.19.19-.55c.02-.05.03-.09.05-.14.13-.37.26-.75.39-1.12.51-1.46 1.01-2.92 1.52-4.39.13-.37.26-.74.38-1.12.44-1.26.87-2.53 1.31-3.8.13-.37.25-.74.38-1.12.49-1.42.97-2.85 1.45-4.28.13-.37.25-.74.38-1.12.4-1.17.79-2.35 1.19-3.53.01-.03.02-.05.02-.08.06-.16.11-.32.16-.48.01-.03.02-.05.03-.08.06-.16.11-.32.16-.48l.03-.09c.17-.49.33-.97.49-1.46l.18-.54zm-1.22 1.75s-.02.07-.04.1c-.05.16-.1.31-.15.47l-.03.09c-.05.15-.11.31-.16.47l-.03.09c-.4 1.18-.79 2.37-1.19 3.56-.07.18-.13.36-.19.55-.06.18-.13.37-.19.56-.48 1.43-.97 2.86-1.46 4.28v.02c-.12.37-.25.73-.38 1.1-.43 1.27-.86 2.54-1.3 3.81-.08.23-.16.47-.24.7l-.15.42c-.5 1.46-1 2.92-1.51 4.37 0 .02-.01.04-.02.06-.08.24-.16.47-.24.7-3.89-1.32-7.74-2.45-11.56-3.38-.22-.06-.44-.12-.66-.17-19.12-4.61-37.51-4.48-56.4.42-4.22 1.09-8.46 2.42-12.75 4-.36.13-.73.26-1.1.41-.18.06-.37.13-.55.2l-.06-.15-.46-1.1-1.77-4.28-.45-1.1-1.53-3.71-.46-1.09-1.72-4.18-.46-1.09-1.39-3.37-.02-.06h-.01l-.2-.49-.02-.06-.2-.48-.03-.07-.47-1.14c1.55-.56 2.5-.88 4.22-1.43h.03a110 110 0 0 1 4.5-1.64c.18-.06.36-.12.55-.19.78-.25 1.63-.52 2.64-.84l.56-.18-1.34-4.38c3.24-1 5.08-1.51 8.37-2.29l1.02 4.45.55-.11c.85-.17 1.7-.34 2.55-.5.89-.17 1.78-.33 2.67-.47.21-.04.42-.08.62-.11.03-.01.06-.01.09-.02.18-.03.36-.06.53-.08 3.62-.6 7.2-1.06 10.76-1.39.39-.03.78-.07 1.16-.1.87-.08 1.74-.14 2.61-.2.2-.02.4-.03.59-.04 5.83-.37 11.62-.4 17.46-.06.2 0 .39.01.59.03 2.95.16 5.91.42 8.9.78.38.04.77.09 1.16.15 1.8.21 3.61.47 5.43.76.2.03.41.06.62.1.2.03.41.06.62.1s.1.01.15.03c.58.09 1.16.19 1.74.29l.56.1.14-.69.88-4.31c3.74.79 5.8 1.3 9.46 2.37l-1.41 4.92.56.17c1.93.57 3.43 1.03 4.86 1.5.19.06.38.13.56.19.19.06.37.12.55.19 1.32.45 2.65.95 4.32 1.6-.09.28-.19.56-.28.84m-98.62 2.7h-.01l-.2-.49-.02-.06-.2-.48c-.17.07-.33.14-.49.22-.02 0-.03.01-.05.02.07.16.14.32.2.48l.03.06c-.18.07-.35.15-.53.23l.2.5c.18-.08.35-.16.53-.24.01.02.02.04.02.06.18-.09.36-.16.54-.24zm68.7-11.61s-.04 0-.06-.01c-.41-.04-.83-.09-1.24-.13-.13-.02-.25-.03-.38-.04-.47-.06-.94-.11-1.4-.15-.05 0-.09-.01-.14-.01-.38-.04-.76-.07-1.15-.11-.78-.07-1.55-.13-2.32-.18-.08-.01-.16-.02-.24-.02-.36-.03-.72-.05-1.08-.07l-.39-.03c-.13 0-.26-.01-.39-.02-.22-.02-.43-.03-.65-.03-.69-.04-1.37-.07-2.06-.1-.64-.02-1.28-.05-1.92-.07-.64-.01-1.28-.03-1.92-.04-.25-.01-.5-.01-.75-.01-2.08-.03-4.16 0-6.24.06-1.55.06-3.11.13-4.67.23v.18c.01.13.02.27.04.4 5.83-.37 11.62-.4 17.46-.06.2 0 .39.01.59.03 2.95.16 5.91.42 8.9.78l.08-.59s-.05-.01-.08-.01zm30.06 10.36l.03-.09c.02-.06.04-.13.06-.19.03-.09.06-.18.09-.28-.18-.08-.36-.16-.54-.23-.05.15-.11.31-.16.47l-.03.09c-.4 1.18-.79 2.37-1.19 3.56-.07.18-.13.36-.19.55-.06.18-.13.37-.19.56.19.08.37.15.55.22.06-.19.13-.37.19-.56.06-.2.13-.37.19-.56q.27.09.54.21c.4-1.17.79-2.35 1.19-3.53-.18-.08-.36-.15-.54-.22" fill="#010000"/><path d="M167.2 344.63c-2.19-2.98-3.28-4.46-5.48-7.43-4.18 3.05-6.21 4.69-10.14 8.18.08.1.16.21.25.31 3.26 3.61 9.99 2.88 15.38-1.06z" fill="url(#f)"/><path d="M164 340.28h-.01l-.48.33.35.47c.04-.03.09-.06.13-.09.01-.01.03-.01.04-.03h.02l.02-.02s.01-.01.03-.02c.08-.05.16-.11.24-.16-.11-.15-.23-.31-.34-.47zm0 0h-.01l-.48.33.35.47c.04-.03.09-.06.13-.09.01-.01.03-.01.04-.03h.02l.02-.02s.01-.01.03-.02c.08-.05.16-.11.24-.16-.11-.15-.23-.31-.34-.47zm0 0c-.16.11-.33.22-.49.33l.35.47c.04-.03.09-.06.13-.09.01-.01.03-.01.04-.03h.02l.02-.02s.01-.01.03-.02c.08-.05.16-.11.24-.16-.11-.15-.23-.31-.34-.47zm3.67 4c-.07-.1-.14-.19-.21-.29l-.7-.95c-.15-.21-.3-.4-.43-.59-.13-.17-.25-.34-.37-.5l-.36-.48c-.26-.35-.51-.7-.76-1.04h-.01l-.35-.47c-.11-.16-.22-.31-.34-.47-.59-.8-1.21-1.64-1.96-2.65l-.34-.46-.06.04-.41.3s-.05.04-.07.05c-.44.33-.86.63-1.25.92-.18.14-.35.27-.52.39-.18.14-.35.27-.52.39-.49.37-.95.72-1.39 1.07-.32.25-.62.49-.93.73-.33.25-.65.51-.96.77-.16.13-.31.26-.47.38-.15.13-.3.26-.46.39-.24.19-.47.39-.72.6-.29.24-.58.5-.89.76-.2.18-.41.36-.62.55-.44.38-.89.78-1.38 1.21l-.35.49.05.06.32.39s.04.05.06.07q.045.075.12.15c.35.39.75.74 1.18 1.03 1.42 1 3.22 1.5 5.21 1.5 1.1 0 2.26-.15 3.44-.46.18-.04.36-.09.55-.15q.285-.075.57-.18c1.75-.58 3.52-1.49 5.2-2.72l.48-.35zm-5.61 2.4c-.18.07-.37.13-.55.18-.05.02-.11.04-.16.05-.13.04-.27.08-.4.11-3.33.87-6.44.43-8.38-1.42-.06-.04-.12-.1-.18-.16.06-.05.12-.11.18-.16 1.22-1.07 2.25-1.96 3.24-2.78.16-.14.32-.27.48-.4.16-.14.33-.28.5-.41.8-.65 1.61-1.28 2.51-1.96q.24-.195.51-.39c.17-.13.34-.26.52-.38.4-.31.82-.62 1.26-.94.58.79 1.09 1.47 1.57 2.11 0 .01.01.01.01.01.11.16.22.31.34.46.12.17.23.32.35.48l.57.78c.12.16.24.33.37.5.12.16.24.33.37.5.19.26.39.53.6.82q.285.39.6.81c-1.41.97-2.87 1.7-4.31 2.19m1.94-6.4h-.01l-.48.33.35.47c.04-.03.09-.06.13-.09.01-.01.03-.01.04-.03h.02l.02-.02s.01-.01.03-.02c.08-.05.16-.11.24-.16-.11-.15-.23-.31-.34-.47zm0 0h-.01l-.48.33.35.47c.04-.03.09-.06.13-.09.01-.01.03-.01.04-.03h.02l.02-.02s.01-.01.03-.02c.08-.05.16-.11.24-.16-.11-.15-.23-.31-.34-.47z" fill="#010000"/><path d="M169.86 339.93c-2.08-3.06-3.12-4.58-5.21-7.63-4.33 2.93-6.45 4.5-10.55 7.87.08.11.15.22.23.33 2.99 3.73 9.93 3.21 15.53-.57" fill="url(#g)"/><path d="M160.55 343.62c-2.78 0-5.2-.91-6.68-2.75-.06-.08-.12-.16-.17-.24l-.33-.45.36-.46c4.12-3.38 6.2-4.93 10.59-7.9l.48-.32.33.48c2.09 3.05 3.14 4.57 5.21 7.63l.34.5-.5.33c-3.16 2.13-6.61 3.2-9.63 3.2zm-5.64-3.35c2.69 3.11 8.76 2.88 14.13-.51-1.75-2.57-2.77-4.07-4.54-6.64-3.89 2.64-5.94 4.17-9.59 7.15m40.58-13.51l-.41-1.11c6.17-2.32 12.86-4.2 19.33-5.44l.22 1.16a119 119 0 0 0-19.14 5.39m89.53.1c-6.11-2.31-12.72-4.19-19.13-5.43l.22-1.16a121 121 0 0 1 19.32 5.48z" fill="#010000"/><path d="M161.58 337.15c-4.63 3.27-6.89 5.03-11.25 8.84-2.42-2.86-3.64-4.29-6.06-7.14 4.65-4.06 7.06-5.95 12.01-9.43 2.12 3.1 3.18 4.64 5.3 7.74z" fill="url(#h)"/><path d="M159.5 337.9c-.18.13-.36.25-.53.38-.52.38-1.01.74-1.48 1.09-.32.24-.64.47-.94.71l.14.19c.31-.24.61-.48.93-.73.44-.35.9-.7 1.39-1.07.17-.12.34-.25.52-.39zm0 0c-.18.13-.36.25-.53.38-.52.38-1.01.74-1.48 1.09-.32.24-.64.47-.94.71l.14.19c.31-.24.61-.48.93-.73.44-.35.9-.7 1.39-1.07.17-.12.34-.25.52-.39zm0 0c-.18.13-.36.25-.53.38-.52.38-1.01.74-1.48 1.09-.32.24-.64.47-.94.71l.14.19c.31-.24.61-.48.93-.73.44-.35.9-.7 1.39-1.07.17-.12.34-.25.52-.39zm2.28-1.48l-.66-.97-.33-.48-.33-.48-1.3-1.91-.33-.49-.34-.48-2.07-3.03-.48.34c-.32.23-.64.45-.94.67-.16.11-.32.23-.48.34-.7.5-1.34.96-1.95 1.4-.33.25-.64.48-.95.71-1.26.95-2.4 1.84-3.62 2.84-.86.71-1.76 1.47-2.76 2.33-.14.13-.3.26-.45.39-.29.25-.6.52-.91.79l-.44.39 6.82 8.04.45-.39c.19-.17.38-.33.56-.49l.44-.38c.3-.26.58-.5.86-.73 1.08-.93 2.04-1.73 2.98-2.48.17-.13.33-.26.49-.39q.255-.21.51-.39c.86-.67 1.73-1.33 2.7-2.04.17-.12.34-.25.52-.38.17-.12.34-.24.52-.37.5-.36 1.04-.75 1.61-1.15l.09-.06.39-.28zm-13.89.09c.31-.26.61-.51.91-.75.96-.8 1.88-1.53 2.86-2.27.3-.23.6-.46.91-.69.01-.01.02-.01.03-.02 1.05-.79 2.19-1.61 3.52-2.55l1.76 2.56v.02l.8 1.16v.02l.82 1.19.02.02.31.46.34.49.58.85c-.25.18-.5.36-.74.53-.18.12-.35.25-.52.37-.18.13-.36.25-.53.38-.52.38-1.01.74-1.48 1.09-.32.24-.64.47-.94.71-.35.26-.7.52-1.04.79-.15.12-.3.25-.46.37-.15.12-.31.24-.47.38-.22.17-.45.36-.68.56-.3.24-.6.49-.91.74l-.42.36c-.68.57-1.39 1.19-2.18 1.87l-5.3-6.25c1.02-.89 1.94-1.67 2.8-2.39zm11.61 1.39c-.18.13-.36.25-.53.38-.52.38-1.01.74-1.48 1.09-.32.24-.64.47-.94.71l.14.19c.31-.24.61-.48.93-.73.44-.35.9-.7 1.39-1.07.17-.12.34-.25.52-.39zm0 0c-.18.13-.36.25-.53.38-.52.38-1.01.74-1.48 1.09-.32.24-.64.47-.94.71l.14.19c.31-.24.61-.48.93-.73.44-.35.9-.7 1.39-1.07.17-.12.34-.25.52-.39z" fill="#010000"/><path d="M213.58 298.94c.53 3.05.79 4.57 1.32 7.62 17.04-2.54 32.97-2.56 50.02-.07l1.3-7.62c-4.74-.83-7.13-1.15-11.91-1.6l-.35 3.85c-2.35-.22-3.53-.31-5.89-.43l.2-3.87c-6.35-.34-9.53-.35-15.88-.02.08 1.55.12 2.32.19 3.87-2.7.14-4.05.24-6.75.5-.15-1.54-.22-2.31-.37-3.85-4.77.46-7.15.79-11.89 1.63z" fill="url(#i)"/><path d="M266.31 298.27c-4.78-.83-7.13-1.15-11.95-1.6l-.58-.05-.36 3.85c-1.81-.17-2.93-.25-4.74-.35l.2-3.87-.59-.03c-6.32-.34-9.6-.34-15.94-.02l-.58.03.19 3.87c-2.17.11-3.46.21-5.61.41l-.36-3.85-.59.05c-4.81.47-7.15.79-11.93 1.64l-.57.1 1.52 8.77.56-.08q.96-.15 1.92-.27c.21-.04.41-.06.62-.09s.42-.06.62-.08c5.44-.72 10.77-1.18 16.07-1.37q.585-.03 1.17-.03c.28-.02.55-.02.83-.03.28-.02.55-.02.83-.02 4.58-.09 9.15.02 13.77.33.39.02.78.05 1.17.07q4.935.36 9.96 1.02l.63.09c.21.02.41.05.62.09.55.06 1.09.14 1.64.22l.56.08 1.5-8.78zm-3.45 7.33c-15.52-2.09-30.14-2.09-45.64.03-.61.08-1.23.17-1.85.26l-1.12-6.47c4.17-.74 6.48-1.06 10.68-1.47l.37 3.85.58-.05c2.69-.26 4.01-.36 6.73-.5l.58-.03-.19-3.87c5.78-.28 8.88-.28 14.65.02l-.2 3.87.58.03c2.36.13 3.51.21 5.87.43l.58.06.35-3.86c4.22.41 6.53.72 10.71 1.44l-1.11 6.47c-.53-.07-1.05-.15-1.57-.21" fill="#010000"/><path d="M194.44 314.03c1.21 3.64 1.81 5.46 3.02 9.11-13.37 4.99-25.2 11.25-36.88 19.49-.97-4.05-1.41-6.1-2.18-10.23 2.69-1.89 4.05-2.8 6.82-4.52.71 1.18 1.07 1.77 1.78 2.94 1.82-1.13 2.73-1.68 4.58-2.73-.1-1.53-.14-2.29-.21-3.83 3.12-1.73 4.7-2.54 7.9-4.07 1.4.78 2.09 1.17 3.45 1.98 1.37-.62 2.06-.93 3.45-1.51.15-1.48.24-2.22.42-3.7 3.11-1.27 4.68-1.85 7.84-2.93z" fill="url(#j)"/><path d="M160.22 343.6l-.2-.84c-.98-4.08-1.41-6.1-2.19-10.26l-.07-.38.31-.22c2.7-1.9 4.04-2.79 6.85-4.54l.5-.31 1.78 2.94c1.42-.88 2.3-1.4 3.78-2.25-.08-1.3-.12-2.06-.18-3.47l-.02-.37.32-.18c3.14-1.74 4.69-2.54 7.94-4.08l.27-.13.26.14c1.31.73 2 1.13 3.21 1.84 1.1-.5 1.77-.79 2.87-1.26.13-1.26.22-2 .39-3.37l.04-.34.32-.13c3.13-1.28 4.68-1.85 7.87-2.94l.55-.19 3.38 10.21-.53.2c-13.32 4.97-25 11.14-36.75 19.42l-.7.49zm-1.17-10.94c.67 3.6 1.09 5.59 1.9 8.99 11.44-7.98 22.84-14 35.78-18.87l-2.65-8c-2.7.92-4.21 1.49-6.93 2.6-.16 1.26-.24 1.99-.38 3.34l-.04.35-.32.14c-1.38.58-2.07.88-3.44 1.51l-.27.12-.26-.15c-1.27-.75-1.96-1.15-3.18-1.83-2.93 1.39-4.47 2.19-7.28 3.74.06 1.3.1 2.05.19 3.45l.02.37-.32.18a112 112 0 0 0-4.56 2.72l-.5.31-1.78-2.94c-2.35 1.47-3.67 2.34-5.98 3.97m-5.68 10.74l-5.59-7.05.91-.74 5.59 7.05zm3.55-2.82l-5.36-7.24.93-.71 5.36 7.24zm-8.09-.83c-.35.3-.53.44-.88.74-.37-.44-.55-.66-.92-1.11.35-.3.53-.45.89-.75.36.45.54.67.91 1.12m3.57-2.89c-.36.28-.54.43-.9.71-.35-.45-.53-.68-.88-1.14.36-.29.54-.43.91-.72.35.46.52.69.87 1.14zm4.1-3.1c-.37.27-.55.41-.92.68-.34-.47-.5-.7-.84-1.17.37-.28.56-.41.93-.68.33.47.5.7.83 1.17" fill="#010000"/><path d="M148.18 331.33c-2.62 2.06-3.83 4.88-2.76 6.17 3.63-3.1 5.5-4.56 9.31-7.31-.96-1.37-3.92-.92-6.55 1.14" fill="url(#k)"/><path d="M155.35 330.05l-.15-.21c-.06-.09-.13-.17-.2-.25-.37-.4-.9-.65-1.54-.74-.2-.03-.4-.05-.62-.05-.09 0-.18 0-.27.02-1.45.07-3.19.82-4.75 2.04-1.89 1.49-3.18 3.43-3.35 5.07-.07.64.04 1.21.32 1.67q.075.15.18.27l.17.2.21.26.45-.38c1.04-.89 1.93-1.64 2.76-2.32 1.24-1.02 2.34-1.89 3.62-2.85.13-.09.25-.19.39-.29.75-.56 1.57-1.15 2.5-1.83l.47-.34zm-9.72 6.01c.07-.66.39-1.4.9-2.15.19-.29.41-.57.67-.85.38-.45.84-.88 1.34-1.27s1.01-.72 1.53-.99c.88-.46 1.75-.74 2.5-.79.1-.02.19-.02.28-.02.16 0 .3.01.44.03.18.03.34.07.48.13-.42.31-.82.6-1.2.88-.39.28-.76.56-1.12.83-.32.24-.63.48-.93.71-.59.45-1.16.89-1.74 1.36-.3.24-.6.49-.91.75-.69.56-1.42 1.17-2.24 1.86q-.03-.225 0-.48" fill="#010000"/><path d="M148.57 335.64l-.36-.46c-.77-.98-1.16-2.12-1.05-3.05.06-.54.29-.97.66-1.27.37-.29.84-.41 1.37-.34.91.12 1.9.8 2.65 1.8l.35.47-.47.36c-1.09.83-1.63 1.26-2.7 2.12l-.46.37zm.33-3.95c-.15 0-.27.04-.36.11-.12.09-.19.25-.22.47-.06.47.12 1.09.47 1.68.63-.51 1.1-.87 1.74-1.37-.48-.49-1.03-.83-1.49-.89-.05 0-.1-.01-.14-.01z" fill="#010000"/><path d="M312.6 344.33c2.17-2.99 3.26-4.48 5.45-7.45 4.18 3.03 6.22 4.66 10.17 8.13-.08.11-.16.22-.24.31-3.12 3.63-9.97 2.93-15.38-.99" fill="url(#l)"/><path d="M316.13 339.5c-.12.16-.24.32-.35.47-.17-.1-.34-.21-.5-.33-.11.16-.22.31-.34.47.16.11.32.22.49.34.08.05.15.1.23.16.08.05.17.1.25.16.12-.15.23-.31.35-.47.11-.16.23-.32.34-.48-.16-.11-.32-.21-.47-.32m-.35.48c-.12.16-.24.31-.35.47.08.05.15.1.23.16.08.05.17.1.25.16.12-.15.23-.31.35-.47-.16-.11-.32-.22-.48-.32m0 0c-.12.16-.24.31-.35.47.08.05.15.1.23.16.08.05.17.1.25.16.12-.15.23-.31.35-.47-.16-.11-.32-.22-.48-.32m12.81 4.57l-.96-.84c-.21-.19-.42-.37-.62-.54-.31-.27-.61-.52-.9-.76-.4-.35-.78-.67-1.15-.97-.16-.13-.31-.26-.46-.38-.16-.14-.32-.26-.48-.4-.17-.14-.34-.28-.52-.41-.3-.24-.61-.48-.92-.72-.44-.36-.9-.71-1.39-1.07-.16-.13-.33-.25-.5-.39-.17-.12-.35-.25-.53-.38-.4-.3-.82-.61-1.27-.93-.16-.11-.32-.23-.48-.35-.01-.01-.02-.01-.03-.02l-.46-.34-.34.47c-.75 1.02-1.38 1.86-1.95 2.65h-.01c-.11.16-.22.32-.34.47-.11.16-.22.31-.34.47 0 .01-.01.01-.01.02-.25.34-.49.67-.74 1.02-.12.16-.24.32-.37.49-.11.16-.24.33-.36.51-.15.19-.3.4-.45.61-.19.26-.39.52-.59.81-.04.04-.07.09-.11.14-.06.09-.13.17-.19.26l-.19.27-.1.14-.06.08h.01l.48.35c.16.11.32.23.48.33 1.71 1.17 3.52 2.01 5.29 2.52.05.02.09.03.14.04h.01c.14.05.28.08.42.12l.39.09c.06.01.12.03.18.04.97.21 1.93.31 2.85.31 2.2 0 4.17-.59 5.61-1.8.28-.23.54-.48.78-.76.03-.04.07-.08.11-.14.04-.05.1-.12.16-.2l.2-.27.13-.18zm-9.18 2.26c-.18-.04-.37-.08-.57-.13-.04-.01-.07-.02-.12-.03h-.01c-.14-.04-.29-.08-.44-.13-1.62-.48-3.27-1.26-4.85-2.33.2-.27.39-.53.58-.78.2-.3.41-.58.61-.85.12-.18.25-.35.37-.52.13-.17.25-.34.38-.51l.54-.75h.01c.12-.15.23-.31.35-.47.11-.16.23-.32.34-.48h.01c.47-.65.97-1.34 1.56-2.13l1.71 1.26c.18.13.35.26.52.38.17.14.34.26.5.39.72.54 1.39 1.06 2.05 1.6.18.13.35.28.52.41l.49.4c1.05.87 2.14 1.81 3.44 2.94-1.74 1.88-4.73 2.44-7.99 1.74zm-3.63-6.83c-.12.16-.24.31-.35.47.08.05.15.1.23.16.08.05.17.1.25.16.12-.15.23-.31.35-.47-.16-.11-.32-.22-.48-.32m0 0c-.12.16-.24.31-.35.47.08.05.15.1.23.16.08.05.17.1.25.16.12-.15.23-.31.35-.47-.16-.11-.32-.22-.48-.32" fill="#010000"/><path d="M309.92 339.63c2.06-3.06 3.1-4.59 5.18-7.65 4.34 2.91 6.46 4.47 10.57 7.82-.08.11-.15.23-.23.33-3.06 3.75-9.9 3.25-15.53-.5z" fill="url(#m)"/><path d="M319.16 343.31c-2.99 0-6.39-1.07-9.56-3.18l-.5-.33.33-.5c2.06-3.07 3.1-4.6 5.18-7.65l.33-.48.48.32c4.41 2.95 6.49 4.49 10.62 7.85l.43.35-.31.45c-.13.19-.19.28-.26.36-1.52 1.87-3.95 2.8-6.73 2.8zm-8.42-3.85c5.34 3.34 11.41 3.54 14.12.44-3.66-2.97-5.72-4.49-9.61-7.11-1.76 2.58-2.77 4.08-4.51 6.66z" fill="#010000"/><path d="M318.63 337.13c4.63 3.27 6.89 5.03 11.25 8.83 2.42-2.86 3.63-4.29 6.06-7.15-4.65-4.06-7.06-5.94-12.01-9.43-2.12 3.1-3.18 4.65-5.3 7.74z" fill="url(#g)"/><path d="M322.72 339.35c-.48-.36-.97-.72-1.49-1.09-.17-.12-.33-.25-.51-.37-.17-.12-.34-.25-.52-.38-.02.06-.03.12-.04.18.18.13.36.26.53.38.17.14.34.26.5.39.49.36.95.71 1.39 1.07.31.24.62.48.92.72l.15-.2c-.3-.23-.61-.47-.93-.7m0 0c-.48-.36-.97-.72-1.49-1.09-.17-.12-.33-.25-.51-.37-.17-.12-.34-.25-.52-.38-.02.06-.03.12-.04.18.18.13.36.26.53.38.17.14.34.26.5.39.49.36.95.71 1.39 1.07.31.24.62.48.92.72l.15-.2c-.3-.23-.61-.47-.93-.7m13.6-.99c-.31-.27-.61-.53-.9-.79-.16-.13-.31-.26-.46-.39-.99-.85-1.89-1.61-2.76-2.32-1.21-1-2.36-1.9-3.62-2.83-.31-.24-.62-.47-.95-.71q-.915-.675-1.95-1.41c-.16-.11-.32-.23-.48-.34-.3-.22-.62-.44-.94-.67l-.48-.34-2.07 3.03-.33.48-.34.49-1.3 1.91-.33.48-.34.48-.66.98-.33.48-.26.38.48.34c.57.4 1.11.79 1.62 1.15.18.13.35.25.52.37.18.13.35.26.51.38.8.58 1.54 1.13 2.25 1.68.17.13.35.26.52.4.16.13.33.26.5.39 1.09.86 2.17 1.75 3.41 2.81.14.12.29.25.45.38.14.13.29.26.44.39.31.27.64.55.98.85l.44.38 6.82-8.04zm-8.69 4.88c-.14-.12-.28-.23-.41-.34-.31-.26-.6-.5-.9-.75-.38-.3-.76-.61-1.13-.91-.16-.12-.31-.24-.47-.37-.16-.12-.32-.25-.49-.37-.19-.15-.38-.3-.58-.45-.3-.23-.61-.47-.93-.7-.48-.36-.97-.72-1.49-1.09-.17-.12-.33-.25-.51-.37-.17-.12-.34-.25-.52-.38-.25-.17-.5-.35-.76-.53l.58-.85.34-.49.31-.46.02-.02.81-1.19v-.02l.81-1.16s0-.01.01-.02l1.75-2.56c1.32.94 2.46 1.76 3.51 2.55.01 0 .03.01.04.02.31.23.61.46.9.68.98.75 1.91 1.48 2.88 2.27.3.25.6.49.9.75.86.72 1.78 1.5 2.8 2.39l-5.29 6.25c-.79-.68-1.51-1.3-2.19-1.88zm-4.91-3.89c-.48-.36-.97-.72-1.49-1.09-.17-.12-.33-.25-.51-.37-.17-.12-.34-.25-.52-.38-.02.06-.03.12-.04.18.18.13.36.26.53.38.17.14.34.26.5.39.49.36.95.71 1.39 1.07.31.24.62.48.92.72l.15-.2c-.3-.23-.61-.47-.93-.7m0 0c-.48-.36-.97-.72-1.49-1.09-.17-.12-.33-.25-.51-.37-.17-.12-.34-.25-.52-.38-.02.06-.03.12-.04.18.18.13.36.26.53.38.17.14.34.26.5.39.49.36.95.71 1.39 1.07.31.24.62.48.92.72l.15-.2c-.3-.23-.61-.47-.93-.7" fill="#010000"/><path d="M285.76 314.02c-1.21 3.64-1.81 5.46-3.02 9.11 13.36 4.98 25.18 11.24 36.89 19.48.97-4.05 1.41-6.1 2.18-10.23-2.69-1.9-4.06-2.8-6.83-4.52-.71 1.18-1.07 1.77-1.78 2.94-1.82-1.13-2.74-1.68-4.59-2.73.1-1.53.14-2.29.21-3.83-3.12-1.73-4.7-2.54-7.9-4.06-1.39.78-2.08 1.18-3.44 1.99-1.38-.63-2.07-.93-3.46-1.52-.15-1.48-.23-2.22-.41-3.7-3.11-1.27-4.68-1.85-7.85-2.93" fill="url(#n)"/><path d="M320 343.59l-.7-.49c-11.75-8.28-23.43-14.45-36.75-19.41l-.53-.2 3.38-10.21.55.19c3.19 1.08 4.74 1.66 7.88 2.94l.32.13.04.35c.17 1.36.25 2.1.38 3.36 1.1.47 1.77.76 2.88 1.26 1.2-.71 1.89-1.11 3.2-1.84l.26-.15.27.13c3.24 1.54 4.8 2.34 7.94 4.08l.32.18-.02.37c-.06 1.41-.1 2.18-.18 3.47 1.49.85 2.37 1.38 3.78 2.25l1.78-2.94.5.31c2.82 1.75 4.16 2.64 6.85 4.54l.31.22-.07.38c-.77 4.16-1.2 6.18-2.19 10.26l-.2.84zm-36.52-20.82c12.93 4.87 24.34 10.88 35.78 18.86.81-3.4 1.23-5.39 1.9-8.99-2.31-1.62-3.63-2.5-5.99-3.97l-1.78 2.94-.5-.31c-1.81-1.13-2.71-1.66-4.56-2.72l-.32-.18.02-.37c.09-1.4.13-2.16.19-3.45-2.82-1.56-4.36-2.35-7.28-3.74-1.22.68-1.9 1.08-3.17 1.84l-.26.15-.28-.12c-1.37-.62-2.06-.93-3.45-1.51l-.32-.14-.03-.35c-.14-1.35-.22-2.08-.37-3.34-2.72-1.11-4.24-1.68-6.94-2.6l-2.65 8zm43.37 20.62l-.91-.75 5.59-7.05.91.74zm-3.56-2.84l-.94-.71 5.36-7.23.94.71zm8.09-.82c.35.3.53.45.88.75.37-.44.55-.66.92-1.11-.36-.3-.53-.45-.89-.75-.36.45-.54.67-.91 1.12zm-3.57-2.89c.36.28.54.42.9.71.35-.45.53-.68.88-1.14-.36-.29-.54-.43-.91-.72l-.87 1.14zm-4.1-3.1c.37.27.55.4.92.68.34-.47.5-.7.84-1.17l-.93-.68-.83 1.18z" fill="#010000"/><path d="M332.03 331.31c2.62 2.06 3.83 4.88 2.76 6.16-3.63-3.1-5.5-4.56-9.31-7.31.96-1.37 3.92-.92 6.55 1.14z" fill="url(#o)"/><path d="M335.74 335.91c-.18-1.64-1.46-3.59-3.36-5.07-1.55-1.22-3.3-1.96-4.75-2.04-.32-.03-.61-.02-.89.02-.64.1-1.17.35-1.54.75-.07.08-.14.16-.2.25l-.15.21-.19.27.47.34c.93.67 1.75 1.27 2.5 1.83.13.1.26.19.38.29.16.12.31.23.46.36.55.42.95.74 1.36 1.05.6.45 1.19.92 1.81 1.43.83.68 1.73 1.43 2.77 2.32l.45.38.21-.25.16-.2c.07-.09.14-.18.19-.28.27-.46.39-1.02.32-1.66m-1.17.61c-.82-.69-1.55-1.31-2.24-1.87-.31-.26-.61-.5-.91-.74-.58-.47-1.15-.91-1.74-1.36q-.45-.36-.93-.72c-.36-.27-.73-.54-1.12-.83q-.57-.42-1.2-.87c.14-.06.3-.11.48-.13.14-.02.3-.03.45-.03.09 0 .18 0 .27.02.75.04 1.63.32 2.51.78a10.3 10.3 0 0 1 2.87 2.27c.89 1 1.47 2.08 1.56 3q.03.255 0 .48" fill="#010000"/><path d="M331.63 335.62l-.46-.37c-1.07-.86-1.61-1.29-2.7-2.12l-.47-.36.35-.47c.75-1 1.74-1.67 2.65-1.8.53-.07 1.01.04 1.38.34.37.29.6.73.66 1.26.11.92-.28 2.06-1.05 3.05l-.36.46zm-1.96-3.06c.64.49 1.11.86 1.74 1.37.35-.59.53-1.22.48-1.68-.03-.22-.1-.37-.22-.47-.12-.09-.3-.13-.51-.1-.46.06-1.01.4-1.49.89z" fill="#010000"/><path d="M160.58 342.63c1.75 8.51 4.1 16.89 7.05 25.05 0 0 .86 5.05 8.51.3 40.13-29.12 88.42-29.22 128.78-.45 0 0 6.08 5.01 8.44-.49 2.68-7.97 4.76-16.15 6.26-24.44-10.48-7.35-21-13.15-32.82-18.02-4.65 4.77-9.1 9.96-13.12 15.29-2.07-.64-3.12-.93-5.21-1.47-1.03-10.93-3.21-21.77-6.1-32.34-15.17-1.93-29.53-1.92-44.68.02-2.76 10.53-4.51 21.36-5.5 32.2-2.04.52-3.06.8-5.08 1.41a154.5 154.5 0 0 0-13.51-15.18c-11.88 4.88-22.47 10.7-33.02 18.11z" fill="url(#p)"/><g fill="#010000"><path d="M315.43 340.45c-.17-.12-.33-.23-.49-.34-.59-.38-1.17-.76-1.76-1.13.58.38 1.17.76 1.75 1.15.17.1.33.21.49.33l.24.15c-.08-.06-.15-.11-.23-.16m.48.32c-.08-.06-.17-.11-.25-.16.08.05.16.11.24.17.38.25.76.5 1.15.76-.38-.26-.76-.52-1.14-.77m-4.25-2.76s.02.02.04.03-.03-.03-.04-.03m-.95-.6c-.47-.29-.94-.57-1.41-.85.46.28.93.57 1.4.86.17.1.33.2.5.3-.17-.11-.33-.21-.49-.31m-1.46-.89c-.33-.2-.67-.4-1.01-.6.33.2.67.4 1 .61.01 0 .02.01.03.01 0 0-.01-.02-.02-.02m-29.84-3.79c-.2-.08-.4-.14-.6-.2-.28.32-.55.64-.82.97-.01.01-.02.03-.03.04-.69.82-1.36 1.64-2.01 2.47q-.36.435-.69.87c-.27.33-.53.66-.78 1-.35.43-.68.86-1.01 1.3-1.52-.46-2.49-.73-3.9-1.11-.18-.04-.36-.09-.55-.14-.05-.54-.11-1.08-.17-1.63 0-.04-.01-.09-.01-.14-.04-.38-.08-.74-.13-1.11-.14-.04-.27-.07-.41-.1v1.22s-.04-.01-.05-.01q-.3-.09-.6-.15c.09.82.17 1.64.25 2.45l.04.41.2.06.16.04h.04c.34.09.65.17.94.25 1.51.39 2.51.68 4.24 1.22l.39.12.24-.33c.5-.66 1-1.32 1.51-1.98l.57-.72c.07-.09.15-.18.23-.27.17-.23.36-.47.55-.7.71-.9 1.44-1.78 2.18-2.66.27-.33.54-.66.82-.98-.2-.06-.4-.13-.6-.19m-66.99 3.32c-.18.04-.35.08-.52.13-.03 0-.06.01-.09.02-.06.54-.11 1.07-.16 1.61-1.67.43-2.66.7-4.32 1.2-.34-.43-.68-.87-1.03-1.3-.26-.33-.53-.67-.8-1-.2.07-.41.13-.61.19s-.4.13-.6.19l.81.99 1.56 1.98.24.32.38-.12c1.87-.56 2.86-.84 4.62-1.29.14-.03.29-.07.44-.11l.4-.1.04-.42c.07-.82.15-1.63.24-2.44zm-48.56 5.03s.09-.05.13-.09c-.04.03-.09.06-.13.09m4.7-3.06c-.17.1-.33.2-.5.31-.28.18-.56.35-.84.53-.52.33-1.04.67-1.56 1.01-.27.18-.55.37-.83.55-.16.11-.32.22-.49.33-.08.05-.16.11-.24.16-.02.01-.02.02-.03.02l-.02.02s.02 0 .02-.01c.01 0 .02-.01.03-.02.09-.06.17-.11.25-.16.16-.11.33-.22.49-.33 1.08-.72 2.15-1.41 3.23-2.09.17-.11.33-.22.5-.31.08-.06.16-.11.25-.17-.09.05-.17.1-.26.16m.5-.32h-.01c-.08.05-.15.1-.23.16l.24-.15.02-.02c-.01 0-.01.01-.02.01m-5.24 3.4c-.32.22-.65.44-.97.66-.05.03-.09.06-.14.1s-.1.07-.15.11c.1-.07.2-.13.3-.2.32-.23.64-.45.97-.66h-.01zm-1.51 1.03l-.05.05c.1-.07.19-.14.29-.21-.07.05-.14.1-.22.15zm153.6-1.36c-.08-.06-.17-.11-.25-.16.08.05.16.11.24.17.38.25.76.5 1.15.76-.38-.26-.76-.52-1.14-.77m-.48-.32h-.01c.08.06.16.11.24.16-.08-.06-.15-.11-.23-.16m-39.57-3.38c-.07-.03-.15-.05-.22-.07-.13-.04-.25-.08-.38-.12-.27.33-.53.66-.78 1-.35.43-.68.86-1.01 1.3-1.52-.46-2.49-.73-3.9-1.11-.18-.04-.36-.09-.55-.14-.05-.54-.11-1.08-.17-1.63-.02 0-.04-.01-.05-.01l-.38 1.53-.12-1.18v2.33h.04c.34.09.65.17.94.25 1.51.39 2.51.68 4.24 1.22l.39.12.24-.33c.5-.66 1-1.32 1.51-1.98l.57-.72c.07-.09.15-.18.23-.27-.2-.07-.4-.13-.6-.19m-64.05-.87c-.06.54-.11 1.07-.16 1.61-1.67.43-2.66.7-4.32 1.2-.34-.43-.68-.87-1.03-1.3-.26-.33-.53-.67-.8-1-.2.07-.41.13-.61.19s-.4.13-.6.19l.81.99 1.56 1.98.24.32.38-.12c1.87-.56 2.86-.84 4.62-1.29v-2.79s-.06.01-.09.02m-42.75 1.5h-.01c-.08.05-.15.1-.23.16l.24-.15.02-.02c-.01 0-.01.01-.02.01m-.5.32c-.17.1-.33.2-.5.31-.28.18-.56.35-.84.53-.52.33-1.04.67-1.56 1.01-.27.18-.55.37-.83.55-.16.11-.32.22-.49.33-.08.05-.16.11-.24.16-.02.01-.02.02-.03.02l-.02.02s.02 0 .02-.01c.01 0 .02-.01.03-.02.09-.06.17-.11.25-.16.16-.11.33-.22.49-.33 1.08-.72 2.15-1.41 3.23-2.09.17-.11.33-.22.5-.31.08-.06.16-.11.25-.17-.09.05-.17.1-.26.16m-4.7 3.06s.09-.05.13-.09c-.04.03-.09.06-.13.09m-1.74 1.19s-.07.05-.11.09c.08-.06.17-.12.25-.18-.04.02-.09.06-.14.09m1.7-1.17c-.32.22-.65.44-.97.66-.05.03-.09.06-.14.1s-.1.07-.15.11c.1-.07.2-.13.3-.2.32-.23.64-.45.97-.66h-.01zm-1.51 1.03l-.05.05c.1-.07.19-.14.29-.21-.07.05-.14.1-.22.15zm153.6-1.36c-.08-.06-.17-.11-.25-.16.08.05.16.11.24.17.38.25.76.5 1.15.76-.38-.26-.76-.52-1.14-.77m-.49-.31l.24.15c-.08-.06-.15-.11-.23-.16h-.01zM275.64 337c-.13-.04-.25-.08-.38-.12-.27.33-.53.66-.78 1-.35.43-.68.86-1.01 1.3-1.52-.46-2.49-.73-3.9-1.11-.18-.04-.36-.09-.55-.14-.05-.54-.11-1.08-.17-1.63-.02 0-.04-.01-.05-.01l-.38 1.53-.12-1.18v2.33h.04c.34.09.65.17.94.25 1.51.39 2.51.68 4.24 1.22l.39.12.24-.33c.5-.66 1-1.32 1.51-1.98l.57-.72c.07-.09.15-.18.23-.27-.2-.07-.4-.13-.6-.19-.07-.03-.15-.05-.22-.07m-63.99.81c-1.67.43-2.66.7-4.32 1.2-.34-.43-.68-.87-1.03-1.3-.26-.33-.53-.67-.8-1-.2.07-.41.13-.61.19s-.4.13-.6.19l.81.99 1.56 1.98.24.32.38-.12c1.87-.56 2.86-.84 4.62-1.29v-2.79s-.06.01-.09.02c-.06.54-.11 1.07-.16 1.61m-42.6-.11c-.08.05-.15.1-.23.16l.24-.15.02-.02c-.01 0-.01.01-.02.01zm-.99.63c-.28.18-.56.35-.84.53-.52.33-1.04.67-1.56 1.01-.27.18-.55.37-.83.55-.16.11-.32.22-.49.33-.08.05-.16.11-.24.16-.02.01-.02.02-.03.02l-.02.02s.02 0 .02-.01c.01 0 .02-.01.03-.02.09-.06.17-.11.25-.16.16-.11.33-.22.49-.33 1.08-.72 2.15-1.41 3.23-2.09.17-.11.33-.22.5-.31.08-.06.16-.11.25-.17-.09.05-.17.1-.26.16-.17.1-.33.2-.5.31m-4.2 2.76s.09-.06.13-.1c-.04.03-.09.06-.13.09zm-1.01.67s-.09.06-.14.1-.1.07-.15.11c.1-.07.2-.13.3-.2.32-.23.64-.45.97-.66h-.01c-.32.21-.65.43-.97.65m-.54.37l-.05.05c.1-.07.19-.14.29-.21-.07.05-.14.1-.22.15zm-.33.24h.02v-.01c.08-.06.17-.12.25-.18-.04.02-.09.06-.14.09s-.09.06-.14.1zm157.98-.25s-.03-.02-.05-.05h-.01s-.08-.05-.12-.08c-.17-.12-.35-.24-.52-.36-.52-.36-1.03-.71-1.55-1.06-.37-.25-.73-.5-1.1-.75h-.01c-.16-.11-.32-.21-.47-.32-.17-.11-.34-.22-.5-.33h-.01c-.54-.36-1.08-.72-1.62-1.06-.55-.35-1.09-.7-1.64-1.04h-.01c-.16-.11-.32-.21-.49-.32-.16-.1-.33-.2-.5-.31-.45-.28-.9-.55-1.35-.83-.61-.37-1.23-.73-1.85-1.1-.61-.36-1.22-.71-1.84-1.07-1.46-.84-2.92-1.64-4.4-2.42-.73-.39-1.47-.77-2.21-1.14-3.51-1.81-7.11-3.48-10.83-5.07-.18-.08-.36-.16-.54-.23-.18-.08-.36-.15-.54-.23-.25-.11-.51-.21-.77-.32l-.36-.15-.09.1-.19.19c-.08.09-.17.17-.25.26-.15.15-.3.3-.44.46-.23.23-.45.46-.68.7-.29.31-.59.62-.88.94-.43.46-.86.92-1.28 1.38-.29.32-.58.64-.86.96-1.09 1.2-2.15 2.42-3.19 3.66-.28.32-.55.64-.82.97-.01.01-.02.03-.03.04-.69.82-1.36 1.64-2.01 2.47q-.36.435-.69.87c-.27.33-.53.66-.78 1-.35.43-.68.86-1.01 1.3-1.52-.46-2.49-.73-3.9-1.11-.18-.04-.36-.09-.55-.14-.05-.54-.11-1.08-.17-1.63 0-.04-.01-.09-.01-.14-.04-.38-.08-.74-.13-1.11-.12-1.08-.26-2.17-.41-3.26-.04-.36-.09-.71-.14-1.07-.06-.43-.12-.85-.19-1.27-.23-1.56-.48-3.13-.76-4.72-.08-.42-.15-.84-.23-1.27l-.36-1.89c-.08-.42-.16-.83-.25-1.25q-.27-1.365-.57-2.73c-.03-.15-.06-.29-.09-.43-.05-.21-.09-.42-.14-.62 0-.06-.02-.09-.03-.14-.03-.17-.07-.33-.11-.5-.66-2.96-1.41-5.97-2.24-9.05-.05-.21-.11-.42-.16-.63l-.09-.32-.08-.3-.02-.08-.39-.05c-15.29-1.94-29.54-1.93-44.82.03l-.39.05-.02.08-.08.3c-.03.11-.06.22-.08.33-.06.2-.11.41-.16.61-.76 2.97-1.46 6.01-2.07 9.12-.05.21-.09.41-.13.62-.05.21-.09.41-.13.62-.19 1.01-.38 2.03-.56 3.05-.08.42-.15.84-.22 1.26-.11.62-.21 1.23-.3 1.86-.08.43-.15.84-.21 1.26-.24 1.56-.47 3.13-.68 4.71-.05.42-.11.84-.15 1.26q-.285 2.145-.51 4.32c-.02.13-.03.27-.04.41-.04.28-.06.56-.09.84-.06.54-.11 1.07-.16 1.61-1.67.43-2.66.7-4.32 1.2-.34-.43-.68-.87-1.03-1.3-.26-.33-.53-.67-.8-1-.92-1.13-1.86-2.25-2.81-3.36-.29-.32-.57-.64-.85-.96-1.07-1.23-2.17-2.45-3.29-3.64-.29-.32-.59-.63-.88-.94-.44-.46-.88-.92-1.32-1.37-.3-.31-.6-.62-.91-.92-.23-.24-.46-.47-.7-.7-.15-.16-.3-.31-.46-.46l-.54-.54-.35.14c-1.58.65-3.14 1.31-4.67 1.99-.18.08-.36.16-.53.24a163.107 163.107 0 0 0-9.91 4.85c-1.33.7-2.65 1.43-3.97 2.18-.68.38-1.35.77-2.03 1.17-.56.32-1.12.66-1.68 1-.73.44-1.47.89-2.2 1.35-.06.03-.11.06-.16.09-.04.02-.07.05-.1.07l-.24.15c-.17.1-.33.21-.49.31-.39.24-.77.49-1.16.74-.67.43-1.33.86-2 1.31-.04.02-.07.05-.11.07-.16.11-.33.22-.49.33q-.24.15-.48.33c-.03 0-.05.03-.08.04-.71.48-1.43.97-2.14 1.47l-.51.36-.19.13-.32.22.02.08.06.3.06.29c.04.19.08.39.13.58.23 1.14.48 2.28.75 3.41.04.19.08.37.13.55.04.2.09.39.14.59a177 177 0 0 0 5.84 19.62c0 .07.31 1.74 1.94 2.48.5.23 1.06.35 1.69.35 1.56 0 3.49-.72 5.79-2.15 11.29-8.19 23.21-14.08 35.42-17.66 18.56-5.46 37.77-5.59 56.4-.39 12.47 3.47 24.68 9.33 36.26 17.59.14.11 3.46 2.8 6.36 2.09 1.32-.32 2.32-1.27 3-2.86.94-2.8 1.8-5.65 2.6-8.52h.01c.98-3.55 1.87-7.14 2.64-10.76l.09-.42c.01-.05.02-.1.03-.16l.06-.27a137.415 137.415 0 0 0 .74-3.82c.04-.18.07-.35.1-.53v-.1l.07-.31-.31-.22zm-.98.76c-.03.14-.05.29-.08.43-.19 1.02-.38 2.03-.6 3.04 0 .06-.01.11-.03.17-.03.19-.07.38-.12.56-.03.18-.06.36-.11.53.01.02 0 .04-.01.05-.34 1.63-.7 3.26-1.1 4.87-.09.41-.19.82-.31 1.23-.34 1.4-.7 2.8-1.08 4.18-.12.41-.23.81-.35 1.21-.46 1.64-.94 3.26-1.45 4.86-.12.4-.25.8-.39 1.19-.16.54-.34 1.08-.52 1.61-.52 1.19-1.21 1.88-2.15 2.12h-.01s-.01.01-.02.01c-.45.11-.92.11-1.4.04-1.98-.31-3.94-1.89-3.99-1.93-11.8-8.41-24.25-14.37-36.96-17.87-18.64-5.15-37.84-5.02-56.4.38-12.43 3.61-24.57 9.58-36.06 17.92-.36.22-.71.43-1.04.6-.38.21-.73.39-1.07.54-1.42.65-2.47.84-3.23.8h-.01c-.41-.02-.73-.11-.99-.23-.13-.06-.25-.13-.36-.2-.76-.53-.92-1.39-.96-1.52-.31-.86-.62-1.73-.91-2.6-.14-.39-.27-.79-.4-1.18-.54-1.59-1.05-3.18-1.53-4.78-.13-.4-.25-.8-.36-1.21-.42-1.36-.8-2.73-1.17-4.1-.12-.4-.23-.81-.34-1.21-.39-1.52-.78-3.04-1.13-4.56-.03-.1-.06-.2-.08-.3l-.06-.28c-.05-.19-.09-.38-.14-.57l-.09-.39c-.2-.9-.4-1.8-.59-2.7l-.12-.57c0-.04-.02-.09-.03-.13.25-.17.5-.35.75-.52h.02v-.01c.08-.06.17-.12.25-.18.1-.07.19-.14.29-.21h.01c.1-.07.2-.13.3-.2.32-.23.64-.45.97-.66.01-.01.02-.02.03-.02.04-.03.09-.06.13-.1.01-.01.03-.01.04-.03h.02c.01 0 .02 0 .02-.01.01 0 .02-.01.03-.02.09-.06.17-.11.25-.16.16-.11.33-.22.49-.33 1.08-.72 2.15-1.41 3.23-2.09.17-.11.33-.22.5-.31.08-.06.16-.11.25-.17l.24-.15.02-.02c.02-.01.04-.02.05-.03.62-.38 1.23-.75 1.85-1.13.45-.27.89-.54 1.34-.8.44-.26.88-.52 1.33-.78.18-.1.36-.21.54-.31.57-.32 1.13-.65 1.7-.95.05-.03.11-.06.16-.09.13-.08.26-.15.39-.22.1-.06.21-.12.32-.18.1-.06.2-.12.31-.17.54-.3 1.08-.59 1.63-.87 3.07-1.64 6.2-3.18 9.41-4.63.18-.08.35-.16.53-.24s.35-.16.53-.24h.01l.89-.39c.36-.16.72-.32 1.08-.47.77-.33 1.54-.66 2.32-.98l.08.08c.98.97 1.95 1.95 2.89 2.95.31.31.6.62.89.93 1.12 1.19 2.22 2.4 3.3 3.62q.435.48.84.96c.96 1.1 1.9 2.21 2.82 3.34l.81.99 1.56 1.98.24.32.38-.12c1.87-.56 2.86-.84 4.62-1.29.14-.03.29-.07.44-.11l.4-.1.04-.42c.07-.82.15-1.63.24-2.44.04-.42.08-.82.13-1.24.15-1.45.32-2.89.51-4.31.05-.42.1-.83.17-1.25.2-1.58.43-3.15.69-4.7.05-.42.12-.83.19-1.25.31-1.94.65-3.85 1.02-5.74.02-.13.05-.26.08-.39l.12-.62c.01-.07.03-.15.05-.22.02-.13.05-.27.08-.4.29-1.46.6-2.9.93-4.33.09-.41.18-.82.28-1.23.18-.76.36-1.5.56-2.25.09-.4.19-.79.29-1.18 0-.03.01-.06.02-.09s.01-.05.02-.08c5.45-.69 10.77-1.12 16.05-1.3.39-.02.78-.03 1.17-.04.28 0 .55-.02.83 0 .28-.02.55-.02.83-.02 4.59-.1 9.16.01 13.78.3.39.02.77.05 1.16.08 3.28.23 6.58.55 9.94.97.01.02.01.05.02.07.32 1.18.63 2.36.93 3.52.11.42.21.84.31 1.25.36 1.43.7 2.85 1.01 4.26.05.17.08.34.12.51 0 .04.02.08.02.12.05.21.1.41.14.62.04.16.08.33.11.5.43 1.93.81 3.84 1.16 5.74.08.43.16.85.23 1.27q.435 2.37.78 4.71a134.547 134.547 0 0 1 .75 5.58c.06.42.1.84.15 1.26.09.82.17 1.64.25 2.45l.04.41.2.06.16.04h.04c.34.09.65.17.94.25 1.51.39 2.51.68 4.24 1.22l.39.12.24-.33c.5-.66 1-1.32 1.51-1.98l.57-.72c.07-.09.15-.18.23-.27.17-.23.36-.47.55-.7.71-.9 1.44-1.78 2.18-2.66.27-.33.54-.66.82-.98 1.05-1.23 2.11-2.45 3.19-3.64.29-.32.58-.63.86-.94.93-1.01 1.86-2 2.81-2.98l.08-.08c.16.07.32.13.47.2.19.07.37.15.55.23.18.07.36.15.53.23 1.88.79 3.73 1.62 5.54 2.47.36.16.71.33 1.06.5 2.17 1.03 4.3 2.1 6.4 3.23.76.4 1.51.8 2.26 1.22 1.51.83 3 1.69 4.48 2.56.33.2.67.4 1 .61.01 0 .02.01.03.01a273.79 273.79 0 0 1 1.43.88c.17.1.33.2.5.3.01.02.03.03.04.03.09.06.19.12.28.17.03.02.06.03.09.06.01.01.03.02.04.02 0 0 .01 0 .01.01.01.01.02.02.04.03.49.31.99.63 1.48.94.58.38 1.17.76 1.75 1.15.17.1.33.21.49.33l.24.15c.08.05.16.11.24.17.38.25.76.5 1.15.76l.69.48h.01c.32.23.64.45.96.67h.01c.09.07.17.13.26.19zm-156.86-.61s-.07.05-.11.09c.08-.06.17-.12.25-.18-.04.02-.09.06-.14.09m1.7-1.17c-.32.22-.65.44-.97.66-.05.03-.09.06-.14.1s-.1.07-.15.11c.1-.07.2-.13.3-.2.32-.23.64-.45.97-.66h-.01zm-1.51 1.03l-.05.05c.1-.07.19-.14.29-.21-.07.05-.14.1-.22.15zm1.55-1.05s.09-.05.13-.09c-.04.03-.09.06-.13.09m4.7-3.06c-.17.1-.33.2-.5.31-.28.18-.56.35-.84.53-.52.33-1.04.67-1.56 1.01-.27.18-.55.37-.83.55-.16.11-.32.22-.49.33-.08.05-.16.11-.24.16-.02.01-.02.02-.03.02l-.02.02s.02 0 .02-.01c.01 0 .02-.01.03-.02.09-.06.17-.11.25-.16.16-.11.33-.22.49-.33 1.08-.72 2.15-1.41 3.23-2.09.17-.11.33-.22.5-.31.08-.06.16-.11.25-.17-.09.05-.17.1-.26.16m.5-.32h-.01c-.08.05-.15.1-.23.16l.24-.15.02-.02c-.01 0-.01.01-.02.01m42.75-1.5c-.06.54-.11 1.07-.16 1.61-1.67.43-2.66.7-4.32 1.2-.34-.43-.68-.87-1.03-1.3-.26-.33-.53-.67-.8-1-.2.07-.41.13-.61.19s-.4.13-.6.19l.81.99 1.56 1.98.24.32.38-.12c1.87-.56 2.86-.84 4.62-1.29v-2.79s-.06.01-.09.02m64.05.87c-.07-.03-.15-.05-.22-.07-.13-.04-.25-.08-.38-.12-.27.33-.53.66-.78 1-.35.43-.68.86-1.01 1.3-1.52-.46-2.49-.73-3.9-1.11-.18-.04-.36-.09-.55-.14-.05-.54-.11-1.08-.17-1.63-.02 0-.04-.01-.05-.01l-.38 1.53-.12-1.18v2.33h.04c.34.09.65.17.94.25 1.51.39 2.51.68 4.24 1.22l.39.12.24-.33c.5-.66 1-1.32 1.51-1.98l.57-.72c.07-.09.15-.18.23-.27-.2-.07-.4-.13-.6-.19m39.57 3.38h-.01c.08.06.16.11.24.16-.08-.06-.15-.11-.23-.16m.48.32c-.08-.06-.17-.11-.25-.16.08.05.16.11.24.17.38.25.76.5 1.15.76-.38-.26-.76-.52-1.14-.77m-152.09.33c-.32.22-.65.44-.97.66-.05.03-.09.06-.14.1s-.1.07-.15.11c.1-.07.2-.13.3-.2.32-.23.64-.45.97-.66h-.01zm-1.51 1.03l-.05.05c.1-.07.19-.14.29-.21-.07.05-.14.1-.22.15zm1.55-1.05s.09-.05.13-.09c-.04.03-.09.06-.13.09m4.7-3.06c-.17.1-.33.2-.5.31-.28.18-.56.35-.84.53-.52.33-1.04.67-1.56 1.01-.27.18-.55.37-.83.55-.16.11-.32.22-.49.33-.08.05-.16.11-.24.16-.02.01-.02.02-.03.02l-.02.02s.02 0 .02-.01c.01 0 .02-.01.03-.02.09-.06.17-.11.25-.16.16-.11.33-.22.49-.33 1.08-.72 2.15-1.41 3.23-2.09.17-.11.33-.22.5-.31.08-.06.16-.11.25-.17-.09.05-.17.1-.26.16m.5-.32h-.01c-.08.05-.15.1-.23.16l.24-.15.02-.02c-.01 0-.01.01-.02.01m42.75-1.5c-.06.54-.11 1.07-.16 1.61-1.67.43-2.66.7-4.32 1.2-.34-.43-.68-.87-1.03-1.3-.26-.33-.53-.67-.8-1-.2.07-.41.13-.61.19s-.4.13-.6.19l.81.99 1.56 1.98.24.32.38-.12c1.87-.56 2.86-.84 4.62-1.29v-2.79s-.06.01-.09.02m64.05.87c-.07-.03-.15-.05-.22-.07-.13-.04-.25-.08-.38-.12-.27.33-.53.66-.78 1-.35.43-.68.86-1.01 1.3-1.52-.46-2.49-.73-3.9-1.11-.18-.04-.36-.09-.55-.14-.05-.54-.11-1.08-.17-1.63-.02 0-.04-.01-.05-.01l-.38 1.53-.12-1.18v2.33h.04c.34.09.65.17.94.25 1.51.39 2.51.68 4.24 1.22l.39.12.24-.33c.5-.66 1-1.32 1.51-1.98l.57-.72c.07-.09.15-.18.23-.27-.2-.07-.4-.13-.6-.19m39.57 3.38h-.01c.08.06.16.11.24.16-.08-.06-.15-.11-.23-.16m.48.32c-.08-.06-.17-.11-.25-.16.08.05.16.11.24.17.38.25.76.5 1.15.76-.38-.26-.76-.52-1.14-.77"/><path d="M318.82 348.17c-48.3-35.02-108.41-35.17-156.88-.4l-.68-.97c48.89-35.07 109.52-34.91 158.23.41l-.68.96z"/><path d="M265.79 317.64c-17.21-2.83-33.24-2.88-50.45-.17l-.18-1.17c17.35-2.73 33.49-2.67 50.82.17zm-49.4-6.11l-.17-1.17c16.21-2.35 31.3-2.37 47.51-.05l-.16 1.17c-16.1-2.3-31.09-2.29-47.18.05"/><path d="M316.95 354c-47.32-35.43-106.14-35.48-153.51-.13l-.69-.95c47.8-35.67 107.15-35.62 154.89.13z"/><path d="M315.82 359.64c-45.83-35.8-105.14-35.91-151.09-.26l-.71-.94c46.38-35.98 106.25-35.88 152.51.26z"/><path d="M313.68 365.47c-44.5-35.86-102.1-35.99-146.74-.34l-.72-.93c45.09-36.01 103.26-35.88 148.19.34z"/><path d="M169.54 370.18l-.73-.92c43.02-35.01 98.77-35.22 142.03-.52l-.72.93c-42.81-34.34-97.99-34.14-140.57.52zm58.16-43.59l-.52-5.51 1.17-.12.52 5.51z"/><path d="M174.36 369.42l-1.7-2.17.92-.74 1.69 2.17zm3.53-32.37l-2.03-3.82 1.02-.56 2.04 3.82zm-12.72 8.07l-2.46-3.55.96-.68 2.46 3.55zm9.07.52l-2.87-4.71.99-.62 2.87 4.7zm5.85 9.58l-2.87-4.71.99-.62 2.87 4.71zm-2.32 8.11l-3.14-4.54.96-.68 3.14 4.54zm10.56-6.71l-2.6-4.87 1.03-.57 2.6 4.88zm-5.33-10l-2.43-4.55 1.03-.56 2.42 4.55zm25.57-10.49l-1.33-4.99 1.13-.31 1.33 5zm41.36-3.88l-1.16-.09.39-5.16 1.17.09zm13.35 1.9l-1.15-.23.97-5.08 1.15.23zm13.38 3.52l-1.11-.36 1.55-4.93 1.11.36zm-105.33 16.36l-2.93-4.24.96-.68 2.93 4.24zm28.36-2.88l-2.02-5.15 1.09-.43 2.02 5.15zm-4.14-10.56l-1.89-4.8 1.08-.44 1.89 4.8zm-26.23 22.4l-3.39-4.34.91-.73 3.4 4.33zm17.73-24.45l-2.31-5.02 1.06-.5 2.31 5.01zm39.54-22.71l-.52-5.52 1.17-.11.52 5.52zm32.41.66l-1.15-.16.74-5.49 1.15.16zm-1.51 11.25l-1.16-.16.74-5.49 1.16.16zm-1.46 10.76l-1.15-.16.74-5.49 1.16.16zm-13.66-1.1l.06-2.368 1.17.029-.06 2.37zm26.43 3.7l-1.13-.3 1.26-4.97 1.13.3zm2.71-10.72l-1.13-.3 1.26-4.97 1.13.29zm13.67 4.48l-1.09-.42 1.81-4.8 1.09.43zm-3.91 10.33l-1.09-.42 1.81-4.79 1.09.42zm7.76-2.5l-1.06-.48 2.06-4.69 1.07.48zm12.6 6.74l-1-.61 2.6-4.41 1 .61zm11.31 7.9l-.93-.72 3.09-4.07.93.73zm-20.11-6.79l-1.04-.55 2.33-4.56 1.04.55zm11.54 7.07l-.96-.66 2.85-4.25.96.67zm1.81 8.63l-.92-.72 3.08-4.07.93.72zm-10.73-7.47l-1-.6 2.58-4.42 1 .61zm-10.93-5.82l-1.07-.48 2.06-4.69 1.07.48zm13.33-12.24l-1.03-.54 2.33-4.56 1.04.54zm12.66 7.75l-.96-.66 2.85-4.25.96.67zm-118.93-17.97l-1.59-4.04 1.09-.44 1.58 4.04zm14.2-4.86l-.56-2.1 1.13-.3.56 2.09zm74.13 1.67l-1.11-.35.65-2.07 1.11.35zm-59.89-4.76l-.87-5.8 1.15-.18.87 5.8zm-1.71-11.39l-.64-4.29 1.15-.17.64 4.28zm16.06-1.59l-.16-4.33 1.17-.05.16 4.33zm16.111.262l.343-4.316 1.167.093-.343 4.316zM221.63 333.27l-.79-5.26 1.15-.18.79 5.26zm-5.12 7.17l-1.18-5.74 1.15-.24 1.17 5.74zm12.22-1.93l-.55-5.84 1.17-.12.55 5.84zm-24.35 5.28l-1.81-5.58 1.11-.37 1.81 5.58zm-12.56 5.11l-2.45-5.32 1.06-.5 2.44 5.31zm58.95-27.49l-1.17-.1.45-5.84 1.17.09zm42.71 11.2l-1.07-.48 1.74-3.97 1.07.49zm13.74 7.35l-1-.61 2.21-3.73 1 .61z"/></g><path d="M245.07 320.52c2.27-1.43 3.91-3.73 4.09-6.45.3-4.58-9.54-8.61-9.54-8.61s-9.8 4.15-9.47 8.68c.2 2.72 1.86 5.01 4.14 6.42-1.69.08-2.53.13-4.22.26.46 5.97.69 8.95 1.14 14.92 6.8-.53 10.23-.55 17.03-.06.42-5.97.63-8.95 1.04-14.92-1.69-.12-2.53-.17-4.22-.23z"/><path d="M244.66 321.07c2.09-1.39 3.61-3.61 3.77-6.24.27-4.41-8.8-8.25-8.8-8.25s-9.03 3.96-8.74 8.31c.18 2.62 1.7 4.84 3.8 6.21-1.56.07-2.34.11-3.9.22.41 5.75.62 8.62 1.03 14.36 6.31-.46 9.49-.47 15.8-.05.37-5.75.56-8.62.93-14.37-1.56-.1-2.34-.14-3.9-.2z"/><path d="M244.66 321.07c2.09-1.39 3.61-3.61 3.77-6.24.27-4.41-8.8-8.25-8.8-8.25s-9.03 3.96-8.74 8.31c.18 2.62 1.7 4.84 3.8 6.21-1.56.07-2.34.11-3.9.22.41 5.75.62 8.62 1.03 14.36 6.31-.46 9.49-.47 15.8-.05.37-5.75.56-8.62.93-14.37-1.56-.1-2.34-.14-3.9-.2z"/><circle cx="240.1" cy="474.31" r="128.67"/><path d="M240.1 598.67c-68.57 0-124.36-55.79-124.36-124.36s55.79-124.36 124.36-124.36 124.36 55.79 124.36 124.36-55.79 124.36-124.36 124.36m0-245.59c-66.84 0-121.23 54.38-121.23 121.23s54.38 121.23 121.23 121.23 121.23-54.38 121.23-121.23-54.38-121.23-121.23-121.23" fill="url(#q)"/><path d="M240.1 565.88c-50.49 0-91.57-41.08-91.57-91.57s41.08-91.57 91.57-91.57 91.57 41.08 91.57 91.57-41.08 91.57-91.57 91.57m0-180.01c-48.76 0-88.44 39.67-88.44 88.44s39.67 88.44 88.44 88.44 88.44-39.67 88.44-88.44-39.67-88.44-88.44-88.44" fill="url(#q)"/><path d="M152.09 544.92c1.1 1.04 1.83 1.25 2.66.62.57-.44 1.37-1.08 3.03-2.65l1.45-1.37c2.18-2.06 4.12-3.22 6.29-3.2 1.73.04 3.35.94 4.57 2.24 1.1 1.16 1.88 2.5 2.03 3.95.24 1.97-.64 3.84-2.86 5.94l-4.4 4.15c-1.7 1.61-1.64 1.85-.36 3.46l-.56.52-4.77-5.06.56-.52c1.48 1.4 1.75 1.45 3.46-.17l4.02-3.8c3.04-2.87 3.5-5.71 1.34-8.01-2.52-2.68-5.54-1.57-8.6 1.32l-1.41 1.33c-1.66 1.57-2.35 2.31-2.83 2.96-.61.77-.46 1.43.68 2.82l-.55.52-4.3-4.55.56-.52z" fill="url(#r)"/><path d="M139.16 524.71c.8 1.19 1.38 1.57 2.44 1.08.74-.35 1.76-.88 3.77-2.1l8.67-5.25.43.71-5.4 16.59.02.03 5.3-3.19c2-1.21 2.97-1.92 3.56-2.36 1.07-.79 1.03-1.45.22-3.05l.62-.38 3.21 5.31-.62.38c-.86-1.22-1.48-1.61-2.63-1.06-.74.32-1.81.85-3.82 2.07l-4.66 2.82c-1.59.96-1.66 1.11-1.94 1.82-.25.78-.15 1.37.41 2.45l-.65.39-2.07-3.41 4.99-15.93-.04-.06-5.06 3.06c-2.02 1.22-2.94 1.9-3.53 2.34-.96.72-.93 1.41-.04 3.04l-.65.39-3.21-5.3.65-.39z" fill="url(#s)"/><path d="M151.69 513.68l-.68.27c-.93-1.91-1.16-2.06-3.19-1.24l-9.29 3.73c-2.04.82-2.11 1.09-1.45 3.1l-.71.28-2.63-6.57.71-.28c.91 1.89 1.14 2.05 3.18 1.23l9.29-3.73c2.03-.82 2.09-1.08 1.45-3.09l.68-.27z" fill="url(#t)"/><path d="M129.23 498.87c-.99-4.45 1.37-9.2 6.33-10.3 5.35-1.19 9.54 2.09 10.6 6.9 1.06 4.75-1.61 9.32-6.38 10.38-4.48 1-9.33-1.46-10.55-6.96zm1.06.36c.63 2.84 3.55 5.04 8.24 4 4.55-1.01 7.39-4.46 6.58-8.1-.63-2.84-3.48-4.95-8.27-3.88-5.2 1.15-7.3 4.64-6.56 7.97v.02z" fill="url(#u)"/><path d="M127.65 465.79c.08 1.44.38 2.06 1.54 2.17.81.08 1.96.14 4.32.13l10.14-.06v.83l-13.14 11.47v.04l6.19-.02c2.34-.01 3.54-.13 4.26-.2 1.32-.13 1.63-.72 1.75-2.51h.73l.04 6.2h-.73c-.11-1.49-.45-2.14-1.71-2.26-.8-.1-2-.2-4.34-.18l-5.45.03c-1.86.01-1.99.1-2.6.57-.62.54-.82 1.1-.9 2.31h-.76l-.02-3.99 12.45-11.12v-.07l-5.91.04c-2.36.02-3.5.13-4.23.2-1.2.13-1.52.74-1.6 2.6h-.76l-.04-6.19h.76z" fill="url(#v)"/><path d="M135.63 442.23c-1.69.01-3.67.3-4.24 2.42-.5 1.87.58 3.12 1.92 3.48 1.72.46 2.87-.47 4.41-2.24 1.61-1.85 3.36-3.75 6.05-3.02 2.63.71 4.12 3.51 3.2 6.93a8 8 0 0 1-1.08 2.4c-.37.58-.67.88-.85 1.1-.53.04-2.86-.19-4.08-.36l-.02-.81c1.67 0 4.56-.53 5.25-3.09.49-1.82-.34-3.2-2.1-3.67-1.77-.48-2.97.64-4.49 2.27-1.34 1.51-3.2 3.57-5.9 2.85-2.44-.66-3.94-3.18-3.06-6.44.32-1.19.91-2.23 1.46-3.09.9.13 1.93.29 3.6.5l-.07.79z" fill="url(#w)"/><path d="M136.73 428.19c.75-1.7 1.62-2.94 2.74-3.58s2.46-.77 3.98-.1c3.03 1.34 3.46 4.29 2.71 6.73-.11.39-.33.88-.46 1.12l-1.23 1.58 3.54 1.56c1.98.88 2.2.73 3.31-1.36l.67.29-2.92 6.63-.67-.29c.67-1.96.57-2.25-1.36-3.1l-9.15-4.03c-2.08-.92-2.26-.75-3.15.96l-.7-.31 2.69-6.09zm6.94 5.39c.24-.25.7-.82 1.03-1.57.65-1.48.68-3.69-2.27-5-2.52-1.11-4.28.04-5.11 1.91-.29.65-.38 1.2-.29 1.43s.3.43.95.72l5.68 2.51z" fill="url(#x)"/><path d="M147.03 409.16c2.61-3.75 7.7-5.23 11.87-2.33 4.5 3.13 4.93 8.44 2.11 12.49-2.79 4-7.96 5.14-11.97 2.34-3.77-2.63-5.25-7.86-2.03-12.49zm.45 1.01c-1.67 2.39-1.3 6.03 2.65 8.78 3.83 2.67 8.3 2.41 10.43-.65 1.67-2.39 1.28-5.91-2.75-8.72-4.37-3.04-8.36-2.23-10.32.58h-.01z" fill="url(#y)"/><path d="M179.32 398.82c-.22.22-.45.41-.7.6-1.58 1.38-2.74 1.73-4.76 1.36-1.49-.27-3.17-.8-4.58-1.13-.84-.2-1.38-.11-2.35.81l-.52.5 2.74 2.85c1.48 1.54 1.79 1.5 3.4.19l.5.52-5.06 4.87-.51-.52c1.39-1.58 1.43-1.89-.05-3.42l-6.97-7.24c-1.5-1.56-1.76-1.51-3.31-.21l-.53-.55 4.78-4.6c1.41-1.36 2.48-2.07 3.65-2.28 1.22-.26 2.47.1 3.55 1.21 1.53 1.59 1.42 3.52.62 5.37.9.29 2.82.75 4.19 1.05 1.6.31 2.49.44 3.36.47.99.08 1.6-.12 2.12-.43l.4.6zm-12.65.73c.94-.9 1.42-1.65 1.53-2.48.18-1.24-.22-2.22-1.16-3.21-1.89-1.96-3.87-1.45-5.26-.11-.56.54-.79.9-.83 1.14-.03.22.1.5.56.98l4.33 4.5.84-.81z" fill="url(#z)"/><path d="M184.94 379.8c-.94-.89-1.54-1.3-2.06-1.48-.69-.25-1.17-.15-2.81.95l-1.47.99 6.91 10.25c1.12 1.67 1.47 1.79 3.6.54l.41.6-6.37 4.29-.41-.6c1.88-1.46 1.91-1.81.78-3.49l-6.9-10.25-1.25.84c-1.87 1.26-2.18 1.76-2.17 2.4-.03.54.2 1.29.59 2.47l-.65.44c-.82-1.44-1.66-2.9-2.4-4.09l.46-.31c.67.32.95.13 1.58-.29l8.71-5.87c.59-.4.7-.66.76-1.29l.46-.31c.65.96 1.86 2.51 2.81 3.71l-.6.51z" fill="url(#A)"/><path d="M195.35 388.35l-.31-.66c1.84-1.05 1.98-1.29 1.03-3.26l-4.33-9.02c-.95-1.99-1.22-2.03-3.19-1.24l-.33-.69 6.38-3.06.33.69c-1.83 1.03-1.97 1.27-1.02 3.26l4.33 9.03c.94 1.97 1.22 2.01 3.17 1.25l.32.66-6.38 3.06z" fill="url(#B)"/><path d="M216.76 363.75c-1.64.69-1.91 1.06-2.23 3.58-.21 1.78-1.01 8.6-1.44 14.21l-.85.25c-3-3.96-6.67-8.57-9.1-11.61-1.29-1.59-1.78-1.71-3.31-1.39l-.22-.75 6.33-1.88.22.73c-1.76.72-1.71.94-1 1.93 1.2 1.54 4.47 5.73 7.21 9.16h.03c.38-3.71.81-8.66.91-11.13.07-1.58-.13-1.79-2.23-1.42l-.22-.73 5.67-1.69.22.73z" fill="url(#C)"/><path d="M236.78 373.08c-.07.97-.33 3.35-.47 4.18l-12.66 1.31-.07-.73c2.31-.41 2.51-.68 2.3-2.75l-1.02-9.88c-.24-2.31-.47-2.36-2.49-2.32l-.08-.76 11.69-1.21c.1.65.38 2.31.63 3.72l-.78.19c-.35-1.03-.69-1.59-1.07-2.1-.44-.51-1.16-.61-2.94-.43l-1.91.2c-.84.09-.89.16-.81.92l.58 5.65 2.36-.24c2.31-.24 2.46-.46 2.61-2.2l.78-.08.51 4.95-.78.08c-.55-1.81-.76-1.93-3.01-1.69l-2.36.24.48 4.64c.12 1.19.32 1.74.83 2 .53.24 1.5.14 2.67.02 1.88-.19 2.64-.45 3.16-1.16.39-.58.79-1.51 1.06-2.57l.8.02z" fill="url(#D)"/><path d="M262.99 379.93l.14-.71c2.1.2 2.23.05 2.72-2.58l1.88-10-.1-.02-8.89 12.32-.51-.1-3.13-14.33h-.07l-1.75 6.91c-.51 2.04-.72 3.09-.86 4.09-.18 1.18.38 1.47 2.03 1.97l-.15.75-5.97-1.18.15-.75c1.49.15 2.05-.11 2.45-1.06.31-.84.67-1.88 1.4-4.51l1.36-4.93c.86-3.19.73-3.35-1.51-4.03l.15-.75 4.34.85 3.36 13.37 8.26-11.08 4.46.88-.15.75c-2.27-.25-2.44-.2-2.84 2.29l-1.53 9.03c-.43 2.64-.39 2.82 1.78 3.46l-.14.72-6.87-1.35z" fill="url(#E)"/><path d="M286.46 384.08c-.53.81-1.92 2.76-2.45 3.42l-11.7-5.01.29-.67c2.22.76 2.52.63 3.34-1.28l3.91-9.14c.92-2.14.73-2.29-1.05-3.24l.3-.7 10.81 4.63c-.23.62-.79 2.21-1.26 3.56l-.77-.22c.19-1.07.17-1.72.09-2.36-.13-.66-.72-1.1-2.36-1.8l-1.77-.76c-.78-.33-.86-.29-1.16.41l-2.24 5.23 2.18.94c2.14.91 2.38.79 3.36-.66l.72.31-1.96 4.58-.72-.31c.4-1.85.28-2.05-1.81-2.95l-2.18-.93-1.84 4.29c-.47 1.1-.57 1.68-.24 2.16.35.47 1.24.85 2.32 1.31 1.74.74 2.52.89 3.32.52.63-.32 1.42-.94 2.17-1.73l.69.41zm2.97-14.88l-5.14-.47-.02-.71c1.63-.28 3.38-.59 4.86-.82.28.18.52 1.38.43 1.81l-.14.19z" fill="url(#F)"/><path d="M303 379.71c2.74 1.86 4.46 3.84 4.96 5.97.37 1.74.11 3.8-1.22 5.77-1.68 2.48-3.97 3.67-6.49 3.77-2.46.07-5.02-.87-7.68-2.66l-5.34-3.62.41-.6c1.93 1.12 2.2 1.11 3.41-.68l5.64-8.33c1.22-1.81 1.1-2.02-.47-3.27l.44-.65 6.35 4.3zm-9.82 9.12c-1.13 1.67-.66 2.55.92 3.62 4.01 2.71 7.9 1.1 10.14-2.2 1.47-2.17 1.83-4.52.92-6.58-.54-1.33-1.62-2.52-3.16-3.56-.96-.65-1.59-.87-1.92-.88-.3 0-.54.22-1.1 1.04l-5.8 8.57z" fill="url(#G)"/><path d="M304.13 401.18l.5-.53c1.65 1.33 1.92 1.37 3.42-.22l6.85-7.3c1.51-1.61 1.45-1.87 0-3.42l.52-.56 5.16 4.84-.52.56c-1.63-1.34-1.9-1.38-3.4.23l-6.85 7.3c-1.5 1.59-1.44 1.86-.02 3.41l-.5.53z" fill="url(#H)"/><path d="M335.38 412.98c-.93-1.1-1.55-1.42-2.54-.8-.7.43-1.65 1.07-3.52 2.51l-8.05 6.19-.51-.66 3.53-17.09-.02-.03-4.92 3.76c-1.86 1.43-2.74 2.24-3.28 2.74-.97.9-.86 1.56.12 3.06l-.58.45-3.78-4.92.58-.44c.99 1.12 1.66 1.44 2.73.76.7-.4 1.71-1.05 3.57-2.48l4.32-3.32c1.47-1.13 1.53-1.28 1.72-2.03.17-.81 0-1.37-.68-2.39l.6-.47 2.43 3.16-3.19 16.4.04.06 4.69-3.6c1.87-1.44 2.72-2.22 3.25-2.72.87-.82.77-1.51-.3-3.03l.6-.46 3.77 4.91-.6.47z" fill="url(#I)"/><path d="M328.29 433.31l.65-.32c.91 1.35 1.22 1.45 1.98.68.74-.77 1.67-1.75 2.73-2.89l-2.46-4.99c-1.23.12-2.27.25-3.32.4-1.63.19-1.8.5-1.12 2.35l-.65.32-2.53-5.13.65-.32c.98 1.39 1.29 1.64 3.72 1.47l14.26-.97.6.71c-3.29 3.48-6.59 6.96-9.83 10.47-1.64 1.73-1.72 2.18-1.14 3.77l-.65.32-2.9-5.87zm10.87-8.2l-.02-.05c-2.25.18-4.55.41-6.73.61l2.1 4.26z" fill="url(#J)"/><path d="M352.2 455.09c.53 3.27.26 5.88-.95 7.7-1.01 1.46-2.69 2.68-5.04 3.06-2.96.48-5.4-.38-7.19-2.15-1.74-1.74-2.81-4.25-3.32-7.42l-1.03-6.37.72-.12c.51 2.17.7 2.37 2.84 2.02l9.93-1.6c2.16-.35 2.22-.59 2.06-2.58l.77-.12 1.22 7.57zm-13.37-.91c-1.99.32-2.31 1.27-2 3.15.77 4.77 4.61 6.51 8.55 5.88 2.58-.41 4.55-1.77 5.42-3.84.6-1.31.73-2.91.43-4.74-.18-1.15-.46-1.75-.67-2-.21-.21-.53-.25-1.51-.09l-10.22 1.65z" fill="url(#K)"/><path d="M355.27 470.97c.02 1.13-.94 2.51-2.62 2.55-1.85.04-3.02-1.71-3.48-3.4l.71-.26c.55 1.24 1.2 1.99 2.24 1.97.88-.02 1.42-.76 1.53-1.68.01-.17.22-.35.6-.36.68-.01 1.02.66 1.03 1.14v.04z" fill="url(#L)"/><path d="M336.87 484.02l.73.06c.1 1.63.31 1.87 1.35 1.6 1.03-.28 2.33-.65 3.83-1.09l.43-5.55c-1.12-.52-2.08-.95-3.06-1.35-1.5-.67-1.81-.49-2.17 1.45l-.73-.06.45-5.71.73.06c.13 1.7.27 2.07 2.45 3.17l12.77 6.46.15.92c-4.61 1.31-9.23 2.62-13.81 3.98-2.3.66-2.6 1-2.9 2.66l-.73-.06zm13.55-1.5v-.05c-2.02-.99-4.12-1.98-6.1-2.91l-.37 4.74 6.47-1.77z" fill="url(#M)"/><path d="M336.35 506.7c-.79-.39-3.02-1.54-3.71-1.98l3.06-11.56.7.19c-.42 2.19-.31 2.45 1.84 3.01l9.62 2.55c2.13.56 2.32.43 3.01-1.61l.74.2-1.8 6.79-.74-.2c.39-2.01.32-2.28-1.83-2.85l-9.54-2.52c-1.34-.36-1.84-.36-2.22.04-.4.41-.67 1.26-.94 2.25-.35 1.32-.43 2.25.05 2.99.34.59 1.02 1.27 2.09 2l-.35.71z" fill="url(#N)"/><path d="M330.49 526.86c.44-1.5.37-1.63-1.03-2.29l-1.91-.91c-.8-.38-1.54-.71-2.19-.85.36-1.65.76-3.92 1.69-5.88 2.53-5.33 7.37-7.41 11.93-5.25 5.27 2.5 5.79 8.2 3.53 12.96-.97 2.04-2.38 3.69-2.93 4.41-.83-.32-2.15-.81-3.87-1.39l.17-.76c3.12.79 4.84-.66 5.96-3.01 1.7-3.59.39-7.47-3.79-9.46-3.31-1.57-8.12-1.39-10.29 3.2-.36.77-.56 1.59-.55 2.21.03.63.22 1.07 1.1 1.48l1.88.89c1.69.8 1.92.73 3.24-1.56l.66.31-2.93 6.19-.66-.31z" fill="url(#O)"/><path d="M317.94 539.47c-.67-.7-2.26-2.49-2.79-3.15l7.51-10.28.59.43c-1.24 1.99-1.18 2.32.5 3.55l8.03 5.86c1.88 1.37 2.07 1.23 3.39-.29l.62.45-6.94 9.5c-.55-.36-1.97-1.27-3.18-2.02l.39-.71c1 .43 1.64.55 2.28.61.67.02 1.23-.45 2.28-1.9l1.14-1.55c.5-.69.48-.77-.14-1.22l-4.6-3.36-1.4 1.92c-1.37 1.88-1.31 2.14-.11 3.42l-.46.63-4.02-2.94.46-.63c1.71.8 1.94.73 3.28-1.1l1.4-1.92-3.77-2.75c-.97-.71-1.51-.93-2.05-.72-.54.23-1.11 1.02-1.8 1.97-1.11 1.53-1.44 2.26-1.25 3.13.17.68.6 1.59 1.2 2.51l-.55.58z" fill="url(#P)"/><path d="M301.46 549.77c.22-.22.45-.41.7-.6 1.58-1.38 2.74-1.72 4.76-1.36 1.49.27 3.17.8 4.58 1.13.84.2 1.38.11 2.34-.81l.52-.5-2.74-2.85c-1.48-1.54-1.79-1.5-3.41-.19l-.5-.52 5.06-4.87.51.52c-1.39 1.58-1.43 1.89.04 3.42l6.97 7.25c1.5 1.56 1.76 1.5 3.31.21l.53.55-4.78 4.6c-1.41 1.36-2.48 2.08-3.65 2.28-1.22.26-2.47-.09-3.54-1.21-1.53-1.59-1.42-3.52-.62-5.37-.9-.29-2.82-.75-4.19-1.05-1.6-.31-2.49-.44-3.36-.47-.99-.08-1.6.12-2.12.43l-.41-.6zm12.66-.73c-.94.9-1.42 1.65-1.53 2.48-.18 1.24.21 2.23 1.16 3.21 1.89 1.96 3.87 1.45 5.26.11.56-.54.79-.9.83-1.14.03-.22-.1-.51-.56-.98l-4.33-4.5-.84.81z" fill="url(#Q)"/><path d="M203.13 543.64c-27.51-19.89-43.31-45.67-41.07-79.75 10.86-8.73 21.27-8.52 32.6-.15-6.44 22.85-7.19 53.02 8.48 79.89z" fill="url(#R)"/><path d="M260.89 549.62c-16.69 4.52-31.09 2.41-43.91-1.07-17.31-22.62-21.06-53.58-13.94-81.51 12.73-4.59 28.85 3.53 40.74 14.52-3.97 15.89-1.26 29.8 7.62 41.86-1.56 10.35.02 20.22 9.5 26.19z" fill="url(#S)"/><path d="M261.87 527.56c-.63 10.4 2.63 15.19 11.1 18.59 32.32-17.19 45.47-47.13 45.47-74.6-10.66 30.57-30.75 46.69-56.57 56.01" fill="url(#T)"/><path d="M252.56 484.59c-2.48 12.73.03 23.82 7.44 33.31 29.29-10.1 47.33-29.79 54.88-62.2-.52-8.64-5.75-19.11-12.07-27.8-2.49 7.87-8.07 14.9-16.78 19.63-4.89 19.18-16.39 31.15-33.47 37.05z" fill="url(#U)"/><path d="M165.43 448.25c15.56-.75 27.65 1.9 35.1 9.08 18.34-4.29 34.6 2.12 49.02 17.99 16.42-7.24 23.5-17.49 27.1-28.86-26.27-24.58-52.11-34.67-79.83-31.92-4.69.47-9.22 2.18-12.9 5.14-9.01 7.26-13.99 18.2-18.49 28.55z" fill="url(#V)"/><path d="M200.67 406.56c33.84-1.59 57.94 10.31 80.08 32.5 7.53-4.44 13.69-10.5 13.55-21.56-28.28-25.31-65.78-27.13-93.63-10.94" fill="url(#W)"/><path d="M192.7 578.55l.27-.7c2.26.69 2.51.49 3.18-1.28l3.5-9.22c.48-1.27.43-1.42-.58-1.88l-1.28-.55.22-.58c1.74.35 3.45.47 5.16.51l-4.78 12.58c-.67 1.77-.6 2.08 1.56 3.08l-.27.7-6.98-2.65z" fill="url(#X)"/><path d="M213.32 567.91c3.28.87 4.41 4.28 3.5 7.69-1.23 4.65-4.77 7.17-8.6 7.63-1.46.15-3.23-.02-3.96-.2l.05-.82c3.89.38 7.38-1.46 9.18-4.92l-1.89.44c-.67.16-1.18.13-1.65 0-2.8-.74-4.15-3.23-3.45-5.87.64-2.42 3.4-4.87 6.78-3.97h.03zm-.64.77c-1.85-.49-3.14 1.4-3.54 2.91-.58 2.18.22 4.4 2.34 4.97.86.23 1.76.13 2.35-.08.22-.57.4-1.15.54-1.67.6-2.28.77-5.47-1.65-6.11h-.03z" fill="url(#Y)"/><path d="M269.89 574.15c2.28-.2 3.91.97 4.36 2.75 1.06 3.96-3.35 6.91-4.94 7.33-1.15.31-2.31.09-2.76-.16-.44-.2-.6-.47-.65-.79s.18-.77.38-1c.15-.22.37-.27.62-.17.73.37 2.02.86 3.43.49 1.64-.44 2.49-1.98 1.86-4.32-.58-2.19-2.52-2.61-3.88-2.25-.54.14-1.11.44-1.46.65l-.34-.68c1.99-1.27 3.38-2.6 2.92-4.32-.4-1.49-1.63-1.95-2.89-1.62-1.34.36-2.05 1.6-2.42 2.7l-.66-.37.69-1.83c.48-.95 1.43-1.87 2.77-2.23h.02c2.24-.6 4.05.37 4.53 2.19.18.67.07 1.26-.28 1.86-.31.47-.77 1.06-1.33 1.71v.05z" fill="url(#Z)"/><path d="M283.55 563.19c-.49 5.53-1 11.06-1.48 16.66l-1.78.95-.28-.2c1.11-4.84 1.98-10.59 2.43-15.21l-5.14 1.92c-1.57.59-1.65.85-1.69 2.6l-.7.26c-.29-1.5-.61-2.72-.85-3.75l9.19-3.43.29.2z" fill="url(#aa)"/><path d="M240.1 569.68l1.01 3.1h3.25l-2.63 1.91 1.01 3.1-2.64-1.91-2.63 1.91 1.01-3.1-2.64-1.91h3.26z" fill="url(#ab)"/><path d="M251.41 580.25c0 6.25-5.06 11.31-11.31 11.31s-11.3-5.06-11.3-11.31c0-4.49 2.61-8.36 6.4-10.18a8.969 8.969 0 0 0 4.9 16.48c4.95 0 8.97-4.01 8.97-8.97 0-3.14-1.61-5.91-4.07-7.51 3.8 1.82 6.41 5.69 6.41 10.18" fill="url(#ac)"/><path d="M231.31 645.15c2.73-1.28 4.22 1.84 6.42.6 2.21-1.23 3.53-.23 3.53-.23v.59l.16.11c.14-.43.03-1.05.03-1.05-.84-.11-.75-.39-.75-.68 0-.26.71-.02.71-.02.07-.1.02-.27-.14-.31-4.08-.95-3 1.34-6.08.56-.8-.2-2.54-1.19-4.12-.12-1.61 1.1-4.9 1.38-4.9 1.38l-.07.1c1.11.09 2.47.34 5.2-.93z" fill="url(#ad)"/><path d="M221.26 660.36c1.03-3.16 3.94 1.48 4.72 3.14h.21c-4.65-11.98 5.02-13.51 7.76-13.71l-.22-.22c-14.19-2.71-15.02 7.22-12.64 10.79z" fill="url(#ae)"/><path d="M260.1 668.61v-.03c0-.05-.02-.11-.03-.16-.09-.29-.31-.22-.31-.22-3.38.86-7.34 1.19-7.34 1.19v-.21c3.31-.38 6.3-1.09 7.34-1.35.09-.19-.01-.31-.08-.37l-4.82.84-.7.12v-.15s2.93-.53 5.17-1.15c.09-.03.16-.09.2-.18-.86-1.76-.98-2.97-.98-2.97s-5.06-.41-7.21.21l-.16.16-.24-4.63c4.14.48 7.92 2.06 8.74 2.4l.05-.08c-5.84-4.82-1.14-8.36-1.14-8.36l-6.29.75c-1.41.17-1.4-.07-1.4-.07l-.07-1.54-.31-.07c.04.79-.04 1.59-.04 1.59-.01.13-.45.29-.95.42l-2.21.26c-2.46.31-3.59 5.23-2.26 7.59h.42c-.63-1.04-.73-2.59.98-2.87 1.32-.2 2.7-.2 4.05-.07l-.2 4.76-.38-.08-1.85.24s-.39.62-.7.91c0 0-.8.37-1.22.45 0 0-.19.96-.07 1.47 0 0 .7 1.05.87 1.4l-.09.08s-.66-.46-1.07-.85l-1.08.94s-1.5.94-3.01.63c0 0-.24-.17-.24-.24s.01 0 .01 0l.03-4.34s1.51 1 1.7 1.12c.2.13.26.03.26.03l-1.96-2.06c.11-.12.21-.03.21-.03 2.18 1.37 3.1 2.1 3.63 2.58.08.07.2.08.29 0-2.51-4.09-4.96-12.74 8.73-21.52 0 0-7.78 1.39-12.78 5.78v-1.13c2.05-1.74 5.09-3.49 9.51-5.15 0 0-11.66.5-19.67 8.13-4.43 4.21-2.8 9.1 1.56 12.42-.94-.24-1.9-.41-2.81-.44-2.6-.09-3.09-.11-3.14-.11h.06-.06l-6.23-3.92c-.08-.05-.2-.03-.25.06-.04.08-.02.18.05.23.46.33 2.05 1.45 2.77 1.94.85.58 1 1.14 1 1.14.49.26 1.01.66 1.01.66.09.52-.31.76-.48.84-.04.02-.05.07-.01.1l.04.04c.52-.52 1-.21 1.2-.03 0 .4-.03.87-.1 1.37-.11.07-.23.11-.36.13-.21.03-.56.09-.85.15-.1.02-.17.11-.17.21s.06.17.15.21c.17.07.55.22 1.02.29-.44 1.53.53 4.63 4.3 5.65h.07s.02-.02.03-.02c.3-.07 1.29-.3 1.7-.58 0 0 .61-.04.84-.14 0 0-1-.51-1.54-.7 0 0 1.55.02 2.74.55l.41-.06s-2.32-.89-4.34-1.22v-.21s3.09.42 5.73 1.29h.04l.76-.15s-.1-.1-.43-.18c-1.14-.27-4.34-1.13-6.04-1.42 0 0-.44-.27-.42-.31.03-.05.06-.11.06-.11s6.64 1.4 8.3 1.83c.59.16 2.93.76 6.67.65h.87s4.63.95 8.84.9c0 0 .21-.22.21-1.04s1.07-2.87 3.22-2.87 2.28-.04 2.28-.44c0-.16.04-.44-.03-.89zm-18.87-18.5v1.15c-.49.46-.96.95-1.38 1.48-1.5 1.88-2.15 6.03.7 9.98v.01c.04.07.03.16-.03.22-1.42-1.62-5.66-7.11.71-12.83zm-.58 18.91c-.04-.01-.06-.02-.06-.02s-.02.28-.26.15c-.23-.13-1.11-.59-1.53-1.66 0 0-2.71-1.47-5.7-2.25-.1-.91.07-2.15 1.69-2.43 2.61-.45 5.84 1.82 5.84 1.82l-.03 4.37.06.02zm9.69-3.15a.28.28 0 0 0-.23.07s-.08.07-.08.18c0 2.48-2.1 3.34-3.56 3.65-.64.13-1.31.16-1.96.09.12-.09.3-.13.43-.14.23-.02.46-.04.69-.09 3.72-.74 4.21-2.99 4.21-3.61 0-.4.26-.41.46-.37.31.07.63.06.94-.02l.13-.03c.76-.21 1.44-.66 1.96-1.27l.13-.15c.09.04.13.16.08.25-.93 1.63-2.73 1.5-3.2 1.42z" fill="url(#af)"/></svg>