<svg viewBox="0 0 409.5 409.5" xmlns="http://www.w3.org/2000/svg"><g transform="translate(-1.655 -2.482) scale(2.06818)"><circle clip-rule="evenodd" cx="99.8" cy="100.2" fill="#ffdd12" fill-rule="evenodd" r="99"/><path d="M91.4 176.8l2.1-.7s2.9 5.6 6.3 6.1l.3-6.6.7.8-.1 5.9s3.8 1 7.7-5.1l1.6-.5s-3 7.2-9.3 7.3v4.5s4.6-.2 10.1 7l-2.2 1s-3.6-5.5-8-6.2l-.2 5.7-1.2-1.3.3-4.4s-4.9-.4-8.5 5.6l-1 .1s1.7-6.9 9.5-7.5l.3-4.6c0-.1-5.5-.3-8.4-7.1" fill="#00973a"/><path d="M169.3 101.3c0-15.9-5.4-30.5-14.5-42.2v84.4c9.1-11.6 14.5-26.3 14.5-42.2" fill="#fd0"/><path d="M154 145.8v-89l1.4 1.8C165 71 170 85.7 170 101.3s-5.1 30.4-14.6 42.7zm1.6-84.3v79.7c8.4-11.6 12.9-25.4 12.9-39.9s-4.5-28.2-12.9-39.8m-44.4-28.2v136c7.6-1.2 14.9-3.7 21.4-7.2V40.5c-6.6-3.5-13.8-6-21.4-7.2" fill="#fd0"/><path d="M110.4 170.3V32.4l.9.1c7.6 1.2 14.9 3.6 21.7 7.2l.4.2v122.7l-.4.2c-6.8 3.6-14.1 6-21.7 7.2zM112 34.2v134.2c6.9-1.2 13.6-3.4 19.9-6.7V40.9c-6.3-3.2-13-5.5-19.9-6.7m-80.5 67.1c0 15.9 5.4 30.5 14.5 42.2V59.1c-9.1 11.7-14.5 26.3-14.5 42.2" fill="#fd0"/><path d="M46.8 145.8l-1.4-1.8c-9.6-12.3-14.6-27.1-14.6-42.7s5-30.3 14.6-42.7l1.4-1.8zm-1.6-84.3c-8.4 11.6-12.9 25.4-12.9 39.9s4.4 28.2 12.9 39.9zm23-21v121.7c6.4 3.4 13.4 5.8 20.8 7.1V33.4c-7.4 1.2-14.4 3.7-20.8 7.1" fill="#fd0"/><path d="M89.8 170.2l-.9-.2c-7.4-1.2-14.5-3.6-21.1-7.1l-.4-.2V40l.4-.2c6.6-3.5 13.7-5.9 21.1-7.1l.9-.2zM69 161.7c6.1 3.2 12.5 5.4 19.3 6.6v-134C81.5 35.6 75 37.8 69 40.9z" fill="#fd0"/><path d="M46 59.1v84.4c6 7.7 13.5 14.1 22.2 18.7V40.5C59.5 45.1 52 51.4 46 59.1" fill="#00973a"/><path d="M69 163.5l-1.2-.6A69.2 69.2 0 0 1 45.4 144l-.2-.2v-85l.2-.2c6-7.8 13.8-14.3 22.4-18.9l1.2-.6zm-22.2-20.2c5.6 7.1 12.7 13.2 20.6 17.6V41.8c-7.9 4.4-15 10.5-20.6 17.6zm53.6-110.8q-5.85 0-11.4.9v135.8q5.55.9 11.4.9c3.7 0 7.3-.3 10.8-.8v-136c-3.5-.5-7.1-.8-10.8-.8" fill="#00973a"/><path d="M100.4 171c-3.8 0-7.7-.3-11.5-1l-.7-.1V32.7l.7-.1c7.4-1.2 15-1.3 22.4-.1l.7.1V170l-.7.1c-3.6.6-7.3.9-10.9.9m-10.6-2.4c6.8 1.1 13.8 1.1 20.6.1V34c-6.8-1-13.8-1-20.6.1zm65-25.1V59.1c-6-7.7-13.5-14.1-22.2-18.7v121.7c8.7-4.5 16.2-10.9 22.2-18.6" fill="#00973a"/><path d="M131.8 163.5V39.2l1.2.6c8.7 4.6 16.4 11.1 22.4 18.9l.2.2v85l-.2.2c-6 7.8-13.8 14.3-22.4 18.9zm1.6-121.7v119.1c7.9-4.4 15-10.5 20.6-17.6V59.4c-5.6-7.1-12.7-13.2-20.6-17.6" fill="#00973a"/><path clip-rule="evenodd" d="M141 119.8H58.6c-3.9 0-7.1-3.2-7.1-7.1V87.6c0-3.9 3.2-7.1 7.1-7.1H141c3.9 0 7.1 3.2 7.1 7.1v25.2c0 3.8-3.2 7-7.1 7" fill="#ffdd12" fill-rule="evenodd"/><path d="M141 120.5H58.6c-4.3 0-7.8-3.5-7.8-7.8V87.6c0-4.3 3.5-7.8 7.8-7.8H141c4.3 0 7.8 3.5 7.8 7.8v25.2c0 4.2-3.5 7.7-7.8 7.7M58.6 81.2c-3.5 0-6.3 2.8-6.3 6.3v25.2c0 3.5 2.8 6.3 6.3 6.3H141c3.5 0 6.3-2.8 6.3-6.3V87.6c0-3.5-2.8-6.3-6.3-6.3H58.6z" fill="#00973a"/><path d="M74.3 110.8v-1.5h-3V92.2h3v-1.5h-8.7v1.6h2.9v16.3h-2.9v2.2zm60.3-.2l-7.3-10.3 6.1-9.6h-17v19.9h3.5l5.4-7.8 5.9 7.8z" fill="#00973a"/><path d="M119.1 108.4l11.3-16.5h-11.3z" fill="#fd0"/><ellipse cx="95.1" cy="100.3" fill="#00973a" rx="10.5" ry="9.6" transform="rotate(-45.001 95.136 100.254)"/><ellipse cx="95.3" cy="100.3" fill="#fd0" rx="7.6" ry="9.1"/><ellipse cx="95.1" cy="100.3" fill="#00973a" rx="2.6" ry="2.4" transform="rotate(-45.001 95.136 100.254)"/><path d="M100.1 45.1l-2.6 7.7-8.1.1 6.6 4.8-2.4 7.6 6.5-4.8 6.5 4.8-2.4-7.6 6.6-4.8-8.2-.1z" fill="#ffdd12"/><g fill="#00973a"><path d="M114.7 7.3l-2.6 7.7-8.1.1 6.6 4.8-2.4 7.7 6.5-4.8 6.5 4.8-2.4-7.7 6.6-4.8-8.2-.1zm25.1 8.6l-2.6 7.7h-8.1l6.6 4.8-2.5 7.7 6.6-4.8 6.5 4.8-2.4-7.6 6.5-4.9h-8.1zm23 16.8l-2.6 7.7-8.1.1 6.6 4.8-2.4 7.7 6.5-4.8 6.5 4.8-2.4-7.7 6.6-4.8-8.2-.1zM86.7 7.1l-2.6 7.7-8.1.1 6.6 4.8-2.4 7.6 6.5-4.8 6.6 4.8-2.5-7.6 6.6-4.8-8.1-.1zm-25 8.8l-2.6 7.7H51l6.6 4.8-2.5 7.7 6.6-4.8 6.5 4.8-2.4-7.6 6.6-4.9h-8.2zM38.8 32.7l-2.5 7.7-8.1.1 6.6 4.8-2.5 7.7 6.5-4.8 6.6 4.8-2.5-7.7 6.6-4.8-8.1-.1z"/><path d="M100.4 171.2c-38.5 0-69.9-31.4-69.9-69.9s31.4-69.9 69.9-69.9 69.9 31.4 69.9 69.9-31.4 69.9-69.9 69.9m0-138.3C62.7 32.9 32 63.6 32 101.3s30.7 68.4 68.4 68.4 68.4-30.7 68.4-68.4-30.7-68.4-68.4-68.4m36.9 137h.1c.1.2.1.3.2.5 0 .1 0 .1-.1.1-.7.3-1 .5-1.7.8-.1 0-.1.1-.1.1 1.4 4 2.1 5.9 3.6 9.9.5 1.4.6 2.5.4 3.5-.3 1.3-1.4 2.6-3.4 3.8h-.2c-.2-.1-.3-.2-.4-.3h-.1c-.1 0 0-.1 0-.1.8-.7 1.3-1.2 1.6-1.6.5-.8.6-1.7.4-2.9-.1-.4-.2-.9-.4-1.4-1.3-4-1.9-6.1-3.2-10.1 0-.1-.1-.1-.1-.1-.7.2-1.1.2-1.8.4-.1 0-.1 0-.1-.1-.1-.2-.1-.3-.1-.5 0-.1 0-.1.1-.1 2.2-.7 3.2-1 5.3-1.9m7.9 9.3c.6-.3 1.1-.3 1.6 0 .1.1.2.2.3.4q.15.45 0 .9c-.2.4-.5.6-.8.8-.4.2-.8.2-1.1.2-.4-.1-.6-.3-.8-.6-.1-.3-.1-.6.1-1 .1-.3.4-.5.7-.7m6-13.3h-.1c-.7-.6-1.1-.9-1.8-1.6h-.1c-.6.2-1.3.4-1.8.9-.6.4-1 .9-1.3 1.5-.3.7-.2 1.3.1 1.9s.9.9 1.6 1c.5.1 1.2 0 2-.2.6-.1 1-.2 1.6-.4 1.3-.3 2.2-.5 3-.5.9 0 1.7.4 2.3 1.1.9 1.1 1.1 2.3.5 3.7-.5 1.3-1.6 2.5-3.2 3.6q-1.2.75-3 1.5l-.9.3h-.2c-.6-1.1-.9-1.6-1.5-2.7 0-.1 0-.1.1-.1.4-.2.5-.3.9-.5h.1c.7.7 1 1 1.6 1.7h.2c.7-.1 1.5-.5 2.4-1.1s1.5-1.3 1.9-2.1c.4-.9.3-1.6-.2-2.2-.7-.9-2-1-3.8-.6-.7.2-1 .2-1.7.4-1.2.3-2.2.3-2.9.2-1-.2-1.6-.6-2.1-1.4-.4-.7-.5-1.6-.4-2.4s.5-1.6 1.1-2.3c.4-.4.8-.8 1.3-1.2.7-.5 1.4-.9 2.2-1.3.2-.1.5-.2.7-.3h.1c.8 1 1.2 1.4 1.9 2.4v.1c-.2.3-.3.4-.6.6m9.7 2.5c.5-.5 1-.6 1.5-.5.2 0 .3.1.4.2.2.2.3.5.2.9s-.2.7-.5 1-.7.5-1 .5q-.6 0-.9-.3c-.2-.2-.3-.6-.2-.9 0-.3.2-.6.5-.9m-5.5-10.9s-.1-.1 0-.1c1.4-1.5 2-2.3 3.2-4 0-.1.1-.1.1 0 .2.1.3.2.4.3v.1c-.3.5-.4.8-.7 1.3v.1c1.8 1.4 2.6 2 4.4 3.4-.3-3.2-.6-4.8-1.4-7.7 0 0 0-.1-.1-.1h-.1c-.2.3-.3.4-.6.7 0 .1-.1.1-.1 0-.2-.1-.3-.2-.4-.3-.1 0-.1-.1 0-.1.9-1.4 1.4-2.2 2.2-3.7 0-.1.1-.1.1 0 .2.1.3.1.5.2.1 0 .1.1 0 .1-.3.8-.5 1.1-.8 1.9v.1c.7 2.5 1 3.8 1.4 6.5v.1h.1c3.7-.3 5.6-.7 9.3-1.7h.1c.5-.8.8-1.2 1.3-2.1 0-.1.1-.1.2-.1.2.1.3.1.5.2.1 0 .1.1 0 .2-1.2 2.5-1.9 3.7-3.4 5.9 0 .1-.1.1-.2.1-.2-.1-.3-.2-.4-.3-.1 0-.1-.1 0-.2.2-.4.3-.6.6-1v-.1l-.1-.1c-3.1.7-4.6.9-7.5 1.1h-.1v.1c0 .4.1.6.1 1v.1c1.5 1.2 2.3 1.8 3.8 3h.1c.5-.5.7-.8 1.2-1.3 0-.1.1-.1.1 0 .2.1.3.2.5.3.1 0 .1.1 0 .2-1.5 2.1-2.4 3.1-4.1 5.1-.1.1-.1.1-.2 0-.2-.1-.2-.2-.4-.4-.1 0-.1-.1 0-.2.5-.7.8-1 1.3-1.7.1-.1.1-.1 0-.2-3.6-3-5.4-4.5-9-7.6h-.1c-.5.5-.7.7-1.3 1.2 0 .1-.1.1-.1 0-.2-.1-.3-.2-.4-.3m-109.5-2.6v.1c-4.5 3.2-6.7 4.8-11.1 8-.1 0-.1.1 0 .2.5.7.7 1.1 1.2 1.8v.1c-.2.1-.3.2-.5.4h-.1c-1.7-2.2-2.5-3.4-4-5.8v-.1c.2-.1.3-.2.5-.3h.1c.5.8.8 1.1 1.4 1.9 0 0 0 .1.1.1h.1c3.9-2.6 5.9-3.9 9.8-6.5.1 0 .1-.1.1-.2-.6-.6-.9-1-1.4-1.7v-.1c.2-.2.3-.2.4-.4h.1c1.2.9 1.8 1.3 3 2l.1.1zm-1.6 15.7c.4-.1.9-.2 1.5-.5.5-.2 1.1-.5 1.7-.9-.9-.2-1.8-.6-2.5-1.3q-1.65-1.5-1.5-3.3c0-1.2.6-2.2 1.6-3.1.8-.7 1.6-1.1 2.5-1.3s1.8-.2 2.6.1q.75.3 1.5.9c1 .9 1.4 2 1.3 3.4-.1 1.3-.6 2.5-1.5 3.8-1.6 2.1-3.7 3.5-6.4 3.8-2.3.3-4.6-.5-6.8-2.5-.1-.1-.1-.1 0-.2.2-.2.3-.3.4-.6h.2c1.4 1.1 2.7 1.6 3.9 1.7q.9.15 1.5 0m4.1-2.1c.4-.3.5-.5.9-.8.3-.3.6-.6.8-.9.5-.5.8-1.2 1-1.8.3-.7.4-1.4.3-2-.1-.4-.2-.8-.6-1.1-.5-.5-1.2-.6-1.9-.4s-1.3.6-2 1.3c-.8.8-1.3 1.6-1.4 2.4-.1.9.2 1.7 1 2.4.4.4.9.7 1.4.9.2-.1.4 0 .5 0m6.5 8.6c0-.1 0-.1-.1-.2-2.2-1.2-3.3-1.9-5.3-3.3 0-.2.1-.3.1-.5 0 0 0-.1.1-.1 4.9-1.5 7.2-2.6 11.3-5.1h.1c.2.1.3.2.5.3 0 0 .1.1 0 .1-1.6 3.2-2.4 4.9-4 8.1 0 .1 0 .1.1.2.7.4 1.1.5 1.9.9.1 0 .1.1 0 .1-.2.5-.3.8-.6 1.3 0 .1-.1.1-.1 0-.8-.3-1.2-.5-1.9-.9h-.2c-.5 1-.8 1.5-1.3 2.6 0 .1 0 .1.1.2.6.3.9.5 1.4.9.1 0 .1.1.1.1-.1.2-.1.3-.2.5 0 .1-.1.1-.1 0-2.2-1-3.3-1.6-5.3-2.8-.1 0-.1-.1-.1-.1.1-.2.2-.3.3-.5 0-.1.1-.1.1 0 .7.3 1 .5 1.7.8h.2c.3-1.1.6-1.6 1.2-2.6m-3.1-3.8c1.4 1 2.2 1.4 3.7 2.2.1 0 .1 0 .2-.1 1.2-2.1 1.8-3.2 2.9-5.4-2.5 1.5-3.9 2.2-6.8 3.3m12.3 2.9c1-.1 1.9-.1 2.7.1q1.95.6 3 2.1c.7 1 .9 2.2.6 3.5-.3 1.4-1 2.5-2.2 3.1q-1.95 1.05-4.5.3c-1.8-.5-3-1.6-3.5-3-.5-1.3-.4-2.7.2-4.1 1-2.5 2.8-4.2 4.9-5.5 1.9-1.1 3.8-1.5 5.9-1.3.1 0 .1.1.1.1v.7c0 .1-.1.1-.2.1-1.4 0-2.5.2-3.5.6-.4.2-.8.4-1.2.7-.8.7-1.6 1.5-2.3 2.6m-.6 1c-.5.8-.8 1.5-1.1 2.1-.2.6-.3 1.2-.3 1.9 0 1.2.4 2.1 1.1 2.8.3.2.6.4 1 .5 1 .3 1.8.1 2.5-.4q.75-.75 1.2-2.1c.3-1.1.2-2-.1-2.8-.4-.8-1.1-1.4-2.2-1.7-.3-.1-.6-.2-1.1-.2-.3-.2-.6-.2-1-.1"/></g></g></svg>