<svg height="700" width="564.807" xmlns="http://www.w3.org/2000/svg"><path d="M272.908 688.312c-15.977-6.473-57.656-26.276-99.574-70.328C104.738 545.9 65.194 440.447 58.986 313.025c-4.981-102.138-31.107-165.242-42.103-187.633l-8.05-16.378L110.95 8.744l15.944 7.562c14.856 7.048 59.76 23.458 155.52 23.593 95.73-.135 140.631-16.546 155.494-23.598l15.94-7.558 102.12 100.27-8.048 16.38c-10.998 22.395-37.124 85.508-42.11 187.632-6.2 127.422-45.742 232.874-114.34 304.955-41.915 44.05-83.603 63.859-99.582 70.33l-9.493 3.85z" fill="#fff"/><path d="M282.401 138.59c75.36 0 138.908 50.4 158.89 119.318l85.508-147.373-76.754-75.367-1.896.898c-19.563 9.284-65.768 24.653-157.044 25.653l-47.429 81.473a165.733 165.733 0 0 1 38.725-4.602m0 330.913c-75.502 0-139.147-50.591-159-119.713l-30.485 52.366c16.311 81.482 49.24 149.689 97.242 200.132a304 304 0 0 0 33.64 30.472l97.405-167.877a165.733 165.733 0 0 1-38.8 4.62" fill="#ed192d"/><g fill="#231f20"><path d="M283.1 684.419l6.919-2.803c15.57-6.31 56.209-25.64 97.186-68.701 67.45-70.88 106.338-174.818 112.466-300.571 5.042-103.417 31.612-167.546 42.8-190.32l5.867-11.937-95.178-93.456-11.618 5.512C422.572 31.146 376.75 46.266 283.1 46.4c-93.656-.133-139.473-15.254-158.446-24.253l-11.618-5.513-95.171 93.453 5.866 11.937c11.187 22.77 37.756 86.9 42.796 190.32 6.13 125.755 45.02 229.691 112.467 300.572 40.984 43.064 81.62 62.39 97.191 68.7zm-12.919 10.63c-16.414-6.654-59.226-26.99-102.109-72.057C98.258 549.63 58.027 442.566 51.73 313.382c-4.912-100.789-30.564-162.8-41.367-184.783l-10.364-21.09L109.48.004l20.526 9.739c14.42 6.839 58.137 22.758 152.417 22.893C376.68 32.5 420.38 16.578 434.793 9.74L455.318.002 564.805 107.51l-10.362 21.089c-10.801 21.987-36.457 84.006-41.37 184.782-6.298 129.184-46.528 236.248-116.343 309.613-42.883 45.07-85.695 65.4-102.11 72.053L282.4 700z"/><path d="M382.816 349.026V238.48c12.397 18.848 19.653 41.356 19.653 65.567 0 36.51-19.653 44.98-19.653 44.98m0-152.406a148 148 0 0 0-24.38-18.47v251.797a148 148 0 0 0 24.38-18.469v-29.113s46.826-19.287 46.826-78.32c0-42.374-18.066-80.548-46.826-107.426m-145.303-3.847c7.758-3.14 15.922-5.44 24.38-6.907V158.27a146.133 146.133 0 0 0-24.38 5.56c-59.3 19.031-102.353 74.68-102.353 140.217 0 65.539 43.054 121.19 102.353 140.22a145.866 145.866 0 0 0 24.38 5.563v-27.6c-8.458-1.463-16.622-3.763-24.38-6.903-44.015-17.824-75.178-60.948-75.178-111.28 0-50.326 31.163-93.453 75.178-111.274"/><path d="M237.513 291.858h-31.082c3.32-20.64 14.784-38.577 31.082-50.314zm0-82.36c-35.355 16.857-59.906 52.845-59.906 94.55 0 35.264 17.59 66.389 44.386 85.369v-37.88c-7.958-10.064-13.482-22.115-15.629-35.299h31.15v82.359c7.677 3.66 15.815 6.493 24.38 8.2V201.299c-8.565 1.706-16.703 4.541-24.38 8.2m63.282-23.955c6.33.98 12.524 2.364 18.492 4.296v146.28a49.12 49.12 0 0 1-18.492 13.242zm21.52 184.106q.556-.336 1.11-.682a76.442 76.442 0 0 0 2.609-1.716l.368-.259a75.49 75.49 0 0 0 2.486-1.83c8.147-6.333 14.776-15.073 14.779-28.56v-146.96c0-23.363-17.69-27.116-35.352-30.486-16.315-3.113-31.9-2.194-31.9-2.194v294.172a149.333 149.333 0 0 0 5.987.152c6.232 0 12.36-.433 18.393-1.188v-71.453l28.276 65.016a146.666 146.666 0 0 0 22.79-9.83z"/></g></svg>