<svg height="581.002" width="512" xmlns="http://www.w3.org/2000/svg"><path d="m251.105 579.03c-30.859-12.984-59.568-29.795-86.197-50.475-58.395-45.35-104.285-107.096-132.768-178.645-25.184-63.255-35.796-132.237-31.028-201.679 2.094-30.49 7.332-61.236 15.408-90.437.71-2.565 1.336-4.883 1.392-5.15s.161-.458.234-.423c.073.034 1.803.888 3.844 1.898 37.463 14.606 66.717 21.166 104.856 18.634 34.215-2.502 64.074-11.16 87.999-25.517 8.392-5.036 15.21-10.228 21.496-16.368 9.35-9.134 15.413-18.309 18.887-28.583l.772-2.285.48 1.543c5.136 16.543 19.465 32.795 39.924 45.279 21.695 13.239 50.068 22.144 80.2 25.172 9.333.938 12.243 1.067 23.993 1.067 11.456 0 14.57-.131 23.111-.974 24.872-2.455 48.008-8.8 67.277-18.448 1.548-.776 2.856-1.342 2.907-1.259.207.335 2.999 10.688 4.461 16.547 13.644 54.65 17.088 112.624 10.055 169.279-3.74 30.137-10.378 59.403-20.014 88.25-37.6 112.563-117.73 203.556-219.265 248.993-4.393 1.965-12.975 5.574-13.212 5.556-.08-.007-2.246-.895-4.812-1.975" fill="#040607"/><path d="m250.999 563.128c-69.142-31.595-128.08-83.491-170.53-150.158-19.831-31.142-35.848-65.601-47.05-101.224-11.715-37.258-18.3-75.48-19.907-115.563-.279-6.945-.278-27.065 0-33.985 1.107-27.439 4.438-53.368 10.166-79.134 1.004-4.515 3.095-13.337 3.284-13.855.06-.167.878.063 2.49.702 3.177 1.259 10.941 3.893 14.908 5.058 33.487 9.83 72.37 11.789 109.098 5.497 27.04-4.633 52.233-14.014 71.226-26.525 7.075-4.66 12.054-8.688 17.633-14.265 5.487-5.485 9.127-10.053 12.282-15.412l1.373-2.333 1.603 2.664c3.305 5.496 6.6 9.612 12.071 15.079 5.661 5.657 10.473 9.55 17.618 14.257 41.885 27.59 108.187 37.405 166.344 24.625 9.566-2.103 21.097-5.551 28.904-8.645 1.612-.639 2.429-.87 2.49-.702.189.518 2.28 9.34 3.284 13.855 5.728 25.766 9.059 51.695 10.165 79.134.28 6.932.28 27.053 0 33.985-2.823 70.012-21.095 135.781-54.337 195.583-28.189 50.71-66.761 95.154-112.008 129.053-19.683 14.747-40.303 27.391-61.705 37.837-5.75 2.806-14.154 6.676-14.465 6.66-.091-.004-2.313-.989-4.937-2.188" fill="#ea202c"/><path d="m252.907 407.972c-13.385-.55-27.285-3.342-39.563-7.945-28.42-10.653-52.097-30.58-67.513-56.82-2.421-4.12-6.679-12.836-8.456-17.31-4.445-11.189-7.29-22.85-8.659-35.489-.471-4.35-.539-19.846-.106-24.28 2.157-22.1 9.19-42.141 21.132-60.22 17.97-27.203 45.604-46.851 76.96-54.72 10.924-2.742 20.483-3.895 32.142-3.876 20.522.031 39.047 4.367 57.359 13.424 23.08 11.416 42.014 29.119 55.23 51.64 2.233 3.807 5.96 11.345 7.752 15.684 11.066 26.787 12.835 57.147 4.949 84.931-9.82 34.596-33.565 63.755-65.493 80.426-14.567 7.607-30.712 12.417-47.12 14.04-3.172.315-12.038.766-13.843.705-.466-.015-2.613-.101-4.771-.19" fill="#fefefe"/><path d="m247.924 546.062c-20.586-10.458-38.085-21.323-56.432-35.035-16.206-12.114-28.18-22.53-43.346-37.71-10.34-10.35-16.26-16.793-24.39-26.549-42.555-51.059-72.153-111.655-86.575-177.246-12.563-57.134-13.11-117.933-1.577-175.044 1.892-9.37 1.722-8.697 2.196-8.67.226.013 1.938.472 3.804 1.02 14.816 4.352 31.964 7.392 49.089 8.702 14.928 1.142 32.478.948 47.498-.525 24.631-2.416 47.554-8.042 67.876-16.66 5.174-2.194 14.704-6.983 19.093-9.594 9.409-5.596 16.913-11.284 23.41-17.742 2.46-2.445 5.787-6.153 6.988-7.787l.424-.576 1.297 1.637c4.223 5.33 10.668 11.414 17.486 16.506 10.35 7.73 24.258 15.143 38.493 20.518 18.336 6.923 38.898 11.578 60.515 13.698 15.006 1.472 32.923 1.669 47.498.522 17.7-1.392 34.91-4.466 49.804-8.898 1.792-.533 3.307-.922 3.365-.864.158.158.572 2.01 1.734 7.76 10.99 54.35 11.278 110.621.848 165.077-13.22 69.018-43.532 133.51-87.951 187.13-13.273 16.02-29.231 32.416-44.984 46.214-22.162 19.412-47.42 36.883-73.05 50.53-4.002 2.13-14.875 7.584-15.107 7.577-.088-.003-3.69-1.8-8.006-3.992m-17.758-141.041c.087 0 1.256.232 2.597.515 13.902 2.934 30.877 3.333 45.472 1.068 1.86-.288 3.457-.524 3.551-.524s.195 25.53.224 56.734l.053 56.734 3.393-2.093c15.48-9.55 30.034-20.022 44.37-31.926l4.082-3.39v-98.063l1.759-1.277c9.041-6.57 18.623-15.871 25.661-24.912 11.288-14.5 19.632-31.574 23.858-48.818.229-.933.498-1.982.598-2.333.102-.359.228 25.896.288 60.283l.106 60.92 3.098-3.985c18.092-23.275 33.94-49.264 46.5-76.253l2.247-4.83v-239.416l-.795.127c-3.709.594-15.194 1.625-22.954 2.06-5.05.284-23.706.356-26.453.103l-1.75-.162v71.828c0 39.505-.042 71.785-.093 71.733s-.533-1.81-1.07-3.905c-1.218-4.756-3.864-12.706-5.715-17.17-9.108-21.965-24.212-41.246-43.431-55.441l-1.854-1.369v-72.794l-3.127-.795c-16.928-4.303-34.436-10.891-46.65-17.556l-2.174-1.186v70.418l-.688-.138c-1.923-.384-8.354-1.217-11.822-1.53-4.774-.432-15.815-.495-20.463-.117-5.803.471-15.676 1.917-18.5 2.708l-.478.134v-71.47l-2.385 1.287c-12.507 6.751-29.566 13.161-46.438 17.45l-3.128.795v76.616l-2.81 2.34c-24.948 20.788-41.423 50.279-45.826 82.03-.968 6.978-1.09 9.057-1.08 18.553.01 9.656.173 12.09 1.285 19.296 1.525 9.883 4.12 19.46 7.751 28.598 1.777 4.473 6.035 13.19 8.456 17.31 7.762 13.212 17.655 24.899 29.308 34.622l2.916 2.432v101.877l4.082 3.391c14.27 11.855 28.948 22.418 44.326 31.899l3.437 2.119.054-57.264c.029-31.496.124-57.264.212-57.263m21.575-5.942c-24.305-1.513-46.988-9.84-66.165-24.289-9.678-7.292-18.983-16.853-26.108-26.829-17.298-24.216-25.085-54.35-21.7-83.971 4.081-35.697 23.732-67.7 53.858-87.707 25.73-17.088 57.015-23.655 87.68-18.403 15.997 2.74 31.826 9.002 45.696 18.08 28.929 18.932 48.523 49.341 53.73 83.384 1.045 6.835 1.279 10.157 1.28 18.236.003 8.116-.247 11.728-1.278 18.448-3.458 22.547-13.195 43.586-28.261 61.065-19.027 22.075-45.818 36.774-74.56 40.909-7.22 1.039-17.46 1.495-24.172 1.077m13.04-2.548c21.662-1.204 41.927-7.955 59.798-19.919 25.455-17.043 43.467-43.223 50.117-72.845 3.226-14.375 3.745-29.67 1.498-44.21-2.708-17.517-9.47-34.579-19.415-48.983-27.257-39.48-74.255-58.782-121.06-49.718-30.98 5.999-58.882 24.729-76.433 51.308-8.91 13.492-14.894 28.303-17.795 44.045-1.347 7.312-1.886 13.444-1.886 21.477 0 10.465.996 18.706 3.459 28.626 5.979 24.086 18.848 44.88 38.278 61.851 1.975 1.726 6.408 5.136 9.329 7.176 21.632 15.117 47.964 22.647 74.11 21.192m-12.192-11.234c-14.966-.924-28.933-4.647-42.015-11.198-10.402-5.21-18.821-11.238-27.278-19.53-5.955-5.841-9.953-10.643-14.38-17.272-15.3-22.908-21.214-50.578-16.596-77.635 4.987-29.21 21.892-55.195 46.621-71.658 11.972-7.97 25.02-13.357 39.017-16.11 14.416-2.836 29.834-2.619 44.186.622 1.211.274 2.286.581 2.389.684.102.103.161 3.706.13 8.019-.048 6.835-.096 7.823-.373 7.758-.175-.04-1.777-.442-3.56-.892-7.406-1.87-13.668-2.61-22.098-2.613-6.512-.003-9.951.256-15.213 1.144-25.412 4.29-47.845 18.96-62.056 40.579a91.896 91.896 0 0 0 -13.582 67.078c2.989 16.274 10.311 31.413 21.31 44.058 2.765 3.18 8.423 8.62 11.653 11.203 3.055 2.445 9.462 6.8 12.638 8.59 20.459 11.538 44.873 14.813 67.57 9.065 1.954-.494 3.6-.853 3.658-.795s.104 3.62.104 7.92v7.815l-.48.182c-.828.315-6.498 1.455-9.494 1.909-6.666 1.01-15.943 1.46-22.151 1.077m56.773-21.663.055-8.942 2.316-1.659c11.22-8.04 20.226-17.944 26.926-29.613a92.11 92.11 0 0 0 11.466-34.029c.178-1.376.323-2.831.323-3.234v-.731h-15.903v24.658l-1.482 3.067c-1.967 4.074-3.235 6.29-5.853 10.231-2.352 3.54-4.922 6.855-7.153 9.224l-1.397 1.484-.01-72.784c-.006-48.212.063-72.785.202-72.785.232 0 2.353 1.479 4.953 3.453 7.441 5.65 15.437 13.744 21.19 21.45 25.899 34.696 28.429 81.638 6.405 118.864-8.45 14.284-20.245 26.603-34.179 35.7-2.641 1.723-7.496 4.589-7.775 4.589-.077 0-.114-4.024-.084-8.943m41.086-94.418c0-1.167-.592-5.489-1.177-8.6a91.405 91.405 0 0 0 -8.246-24.26c-1.805-3.57-5.093-9.185-6.05-10.333-.414-.497-.416-.392-.423 21.712l-.007 22.212h15.903zm-80.79 8.498v-81.771h.486c1.524 0 9.183 1.707 12.82 2.858l1.75.553v71.662c0 47.332.072 71.663.211 71.663.342 0 4.415-1.866 6.363-2.915a74.212 74.212 0 0 0 16.309-11.91c.98-.943 1.815-1.715 1.855-1.715s.072 3.704.072 8.231v8.232l-2.424 1.78c-7.614 5.592-16.442 9.933-25.584 12.58-3.16.916-8.453 2.088-10.744 2.38l-1.113.143zm-25.227 79.652c-.798-.15-3.41-1.223-5.36-2.204-2.606-1.31-4.705-2.809-6.876-4.909-3.124-3.022-4.976-6.052-6.103-9.984l-.538-1.879v-33.244h13.783v30.028l.54 1.084c1.187 2.382 4.111 3.623 7.187 3.05 1.688-.315 2.55-.94 3.252-2.355l.577-1.166.062-19.614c.044-13.918-.007-19.892-.175-20.569-.13-.525-.595-1.717-1.032-2.65-.749-1.596-1.425-2.378-11.382-13.16-6.696-7.252-10.805-11.868-11.18-12.562-.328-.603-.829-1.782-1.114-2.62l-.518-1.525v-26.329c0-29.95-.13-27.721 1.839-31.534 1.988-3.848 5.078-6.202 9.8-7.462 4.135-1.105 8.17-1.141 11.897-.109 6.916 1.917 11.953 7.31 13.388 14.336.372 1.82.395 3.001.344 17.814l-.054 15.865h-12.511l-.106-12.627c-.118-14.01-.021-13.12-1.553-14.29-2.33-1.775-6.355-1.805-8.342-.06-1.408 1.236-1.344.324-1.344 19.087v17.04l.533 1.566c.995 2.925 1.724 3.833 11.142 13.88 4.919 5.25 9.231 9.925 9.583 10.39.352.468.96 1.535 1.353 2.372 1.439 3.07 1.365 1.128 1.3 34.364-.055 27.913-.085 30.148-.43 31.295-1.569 5.225-5.058 7.817-11.6 8.617-1.779.217-5.35.253-6.362.064m-27.785-8.607c-2.797-1.67-4.382-2.73-7.26-4.861l-2.28-1.688v-58.269h-9.225c-8.643 0-9.223.023-9.222.37.002.874.91 6.506 1.408 8.748 1.86 8.356 5.69 17.125 10.56 24.173a76.47 76.47 0 0 1 1.257 1.855c.125.21-1.38.265-7.249.265h-7.406l-2.128-4.187c-4.789-9.428-7.447-18.264-8.658-28.786-.502-4.36-.502-13.027 0-17.387 2.761-23.989 14.935-44.677 34.57-58.75 2.211-1.585 7.665-4.97 8.008-4.97.094 0 .171 32.586.171 72.414 0 39.827-.071 72.41-.159 72.407s-1.161-.604-2.387-1.335m-9.55-98.055-.009-20.728-.852.955c-8.327 9.32-14.235 21.205-16.6 33.397-.328 1.693-.978 6.204-.978 6.792 0 .269 1.263.311 9.224.311h9.224zm81.223 26.648v-11.89l4.188.069c3.728.061 4.294.118 5.157.517 1.917.887 3.311 2.902 4.165 6.02.549 2.002.542 9.254-.011 11.22-.838 2.984-2.486 5.15-4.34 5.706-.515.154-2.418.249-4.996.249h-4.163zm8.379 5.706c1.019-1.112 1.376-2.53 1.373-5.463-.005-4.92-1.04-6.61-4.143-6.767l-1.58-.08v13.237l1.818-.074c1.786-.074 1.832-.09 2.532-.853m7.312-5.69v-11.874h10.616l-.06 2.597-.06 2.598-3.233.058-3.234.06v3.581l3.022.059 3.022.059.06 2.491.06 2.492h-6.164v4.442l3.34.058 3.34.059.059 2.598.06 2.597h-10.828zm-178.118-10.62v-161.171l-1.643.163c-2.565.254-21.488.184-26.559-.098-8.059-.45-20.05-1.527-23.06-2.072l-.689-.125v239.41l1.633 3.57c2.046 4.473 8.555 17.514 10.988 22.018 10.754 19.9 22.552 38.01 36.435 55.927 1.514 1.953 2.785 3.552 2.824 3.552s.071-72.528.071-161.173m47.471 268.309c-.263-.337-.256-.344.08-.08.204.16.371.327.371.37 0 .175-.174.063-.451-.29m164.786.29c0-.043.167-.21.371-.37.337-.264.344-.257.08.08-.276.353-.45.465-.45.29m-171.573-5.38c-.263-.336-.256-.343.08-.08.354.277.466.452.292.452-.044 0-.211-.167-.372-.372m178.358.292c0-.045.167-.212.371-.372.336-.263.344-.256.08.08-.277.354-.451.466-.451.292m-180.266-1.776c-.263-.336-.256-.344.08-.08.354.277.466.451.291.451-.044 0-.21-.167-.37-.37m182.173.29c0-.044.167-.211.371-.371.337-.263.344-.256.08.08-.277.353-.45.466-.45.291m-184.083-1.775c-.264-.337-.257-.344.08-.08.204.16.37.327.37.37 0 .175-.173.063-.45-.29m185.99.29c0-.043.167-.21.371-.37.337-.264.344-.256.08.08-.277.353-.451.465-.451.29m1.06-.847c0-.044.167-.211.372-.371.336-.264.343-.257.08.08-.277.353-.452.465-.452.29m-191.292-2.835c-.263-.336-.256-.344.08-.08.205.16.372.327.372.371 0 .175-.175.062-.452-.29m194.473.29c0-.044.167-.211.371-.371.337-.263.344-.256.08.08-.277.353-.451.466-.451.291m-195.533-1.139c-.264-.337-.256-.344.08-.08.204.16.371.327.371.37 0 .176-.174.063-.45-.29m196.592.29c0-.043.167-.21.371-.37.337-.264.344-.256.08.08-.277.353-.45.465-.45.29m-197.655-1.138c-.263-.337-.256-.344.08-.08.205.16.372.327.372.37 0 .175-.174.063-.452-.29m198.714.29c0-.043.167-.21.371-.37.337-.264.344-.257.08.08-.277.353-.45.465-.45.29m-199.986-1.35c-.264-.337-.257-.344.08-.08.204.16.37.327.37.37 0 .175-.174.063-.45-.29m201.257.29c0-.044.167-.21.371-.37.337-.264.344-.257.08.08-.277.353-.45.465-.45.29m-202.531-1.35c-.264-.337-.256-.344.08-.08.353.276.466.45.291.45-.044 0-.211-.167-.371-.37m203.802.29c0-.044.167-.21.372-.37.336-.264.343-.257.08.08-.277.353-.452.465-.452.29m-205.074-1.351c-.264-.336-.257-.344.08-.08.204.16.37.327.37.371 0 .175-.173.062-.45-.291m206.347.291c0-.044.167-.211.37-.371.337-.264.345-.256.08.08-.276.353-.45.466-.45.291m-207.719-1.457-.404-.477.477.404c.448.38.574.55.404.55-.04 0-.255-.215-.477-.477m209.309.053c.21-.233.431-.424.49-.424s-.067.19-.278.424c-.212.233-.432.424-.49.424s.067-.19.278-.424m-210.794-1.325-.404-.478.478.404c.448.38.573.55.404.55-.04 0-.256-.214-.478-.477m212.278.053c.21-.233.431-.424.49-.424s-.067.191-.278.424c-.211.234-.432.424-.49.424s.067-.19.278-.424m-213.762-1.325-.404-.477.477.404c.448.38.574.55.404.55-.04 0-.255-.215-.477-.477m215.246.053c.21-.233.431-.424.49-.424.058 0-.067.19-.278.424s-.432.424-.49.424.067-.19.278-.424m-216.943-1.537-.404-.478.478.405c.448.38.573.55.403.55-.04 0-.255-.215-.477-.478m218.639.053c.211-.233.431-.424.49-.424.058 0-.067.191-.278.424s-.432.425-.49.425.067-.191.278-.425m-220.437-1.643-.514-.583.583.514c.32.283.583.545.583.583 0 .167-.172.031-.652-.514m222.24.053c.273-.291.545-.53.603-.53.059 0-.118.239-.392.53s-.545.53-.604.53.118-.238.392-.53m-224.148-1.75-.514-.582.583.514c.321.283.583.545.583.583 0 .166-.171.031-.652-.514m226.057.053c.274-.291.545-.53.604-.53.058 0-.119.239-.392.53s-.546.53-.604.53c-.059 0 .118-.238.392-.53m-228.28-2.067-.623-.69.689.624c.379.342.689.652.689.689 0 .164-.175.02-.756-.623m229.977.623c0-.037.31-.347.689-.69l.69-.622-.623.689c-.581.642-.756.787-.756.623m-232.625-3.062-.73-.795.794.73c.437.403.795.76.795.796 0 .162-.18.01-.86-.73m235.913-.053c.455-.467.876-.849.934-.849s-.267.382-.722.849-.876.848-.935.848.267-.382.723-.848m-239.513-3.34-1.159-1.22 1.22 1.16c.67.637 1.219 1.186 1.219 1.219 0 .157-.203-.026-1.28-1.16m243.012.054c.633-.641 1.2-1.166 1.257-1.166.059 0-.412.525-1.045 1.166-.634.641-1.2 1.166-1.258 1.166s.412-.525 1.046-1.166m-219.918.371c-.264-.336-.257-.344.08-.08.204.16.37.327.37.371 0 .175-.173.062-.45-.29m196.593.29c0-.044.167-.211.37-.37.337-.265.345-.257.08.08-.276.352-.45.465-.45.29m-198.29-1.775c-.264-.337-.256-.344.08-.08.353.277.466.451.291.451-.044 0-.211-.167-.371-.371m199.986.29c0-.043.167-.21.37-.37.337-.264.345-.256.08.08-.276.353-.45.466-.45.29m-203.803-3.683c-.263-.336-.256-.344.08-.08.353.277.466.451.291.451-.044 0-.21-.167-.371-.37m207.62.29c0-.044.167-.211.37-.37.337-.265.345-.257.08.08-.276.352-.45.465-.45.29m-232.617-3.047-2.86-2.916 2.916 2.86c2.708 2.656 3.012 2.971 2.86 2.971-.031 0-1.343-1.312-2.916-2.915m257.847.106c1.573-1.604 2.885-2.916 2.916-2.916.152 0-.151.315-2.86 2.972l-2.916 2.86zm-235.281.424-.405-.478.478.405c.448.38.573.55.404.55-.04 0-.255-.215-.478-.478m212.702.053c.211-.233.431-.424.49-.424s-.067.191-.278.424c-.211.234-.431.425-.49.425s.067-.191.278-.425m-215.458-2.597-.404-.477.477.404c.448.38.573.55.404.55-.04 0-.255-.215-.477-.477m218.426-.16c.212-.232.432-.423.49-.423.059 0-.067.19-.278.424s-.431.424-.49.424.067-.19.278-.424m-222.66-3.87-.623-.689.689.623c.379.343.689.652.689.689 0 .164-.175.02-.756-.623m226.796-.053c.396-.408.767-.742.825-.742s-.217.334-.613.742c-.395.408-.767.743-.825.743s.218-.334.613-.743m-249.584-1.325-1.16-1.22 1.22 1.16c.67.637 1.219 1.186 1.219 1.219 0 .157-.203-.026-1.28-1.16m272.168.16c.574-.583 1.092-1.06 1.15-1.06.059 0-.363.477-.938 1.06s-1.092 1.06-1.15 1.06.364-.477.938-1.06m3.393-3.605c.455-.466.876-.848.934-.848s-.267.382-.722.848-.876.848-.935.848.267-.382.723-.848m-278.957-.16-.731-.794.795.73c.437.402.795.76.795.796 0 .162-.18.01-.86-.731m-2.44-2.65-.623-.69.69.623c.642.58.786.755.622.755-.036 0-.346-.31-.689-.689m283.412.623c0-.037.31-.347.69-.69l.689-.622-.623.689c-.58.642-.756.787-.756.623m-285.429-2.85-.514-.582.583.513c.321.283.583.546.583.584 0 .166-.171.03-.652-.514m287.974.053c.274-.292.546-.53.604-.53s-.118.238-.392.53-.546.53-.604.53.118-.239.392-.53m-19.72-1.06c.395-.409.767-.743.825-.743s-.218.334-.613.743-.767.742-.826.742.218-.334.613-.742m-248.636-.16-.623-.688.689.622c.379.343.69.653.69.69 0 .163-.176.019-.756-.623m-21.314-.742-.514-.583.584.513c.32.284.583.546.583.584 0 .166-.172.03-.653-.514m291.367.053c.274-.292.546-.53.604-.53s-.118.238-.392.53c-.274.291-.546.53-.604.53-.059 0 .118-.239.392-.53m-293.063-1.962-.514-.583.583.514c.321.283.583.545.583.583 0 .167-.171.031-.652-.514m294.653.16c.211-.234.432-.424.49-.424s-.067.19-.278.424c-.211.233-.431.424-.49.424s.067-.191.278-.424m-18.978-1.59c.274-.292.546-.53.604-.53s-.118.238-.392.53-.546.53-.604.53.118-.239.392-.53m-277.057-.16-.404-.477.477.404c.448.38.573.55.404.55-.04 0-.255-.214-.478-.477m20.357 0-.404-.477.477.404c.448.38.574.55.404.55-.04 0-.255-.214-.477-.477m277.163.053c.211-.233.432-.424.49-.424s-.067.191-.278.424c-.21.234-.431.424-.49.424s.067-.19.278-.424m-298.905-1.643c-.264-.336-.256-.344.08-.08.204.16.371.327.371.37 0 .176-.174.063-.451-.29m300.07.291c0-.044.168-.21.372-.37.336-.265.344-.257.08.08-.277.352-.451.465-.451.29m-18.978-1.404c.211-.233.431-.424.49-.424s-.067.19-.278.424c-.211.233-.432.424-.49.424s.067-.19.278-.424m-262.01-.16c-.263-.335-.255-.343.08-.08.205.16.372.328.372.372 0 .174-.174.062-.451-.291m-20.357-.212c-.263-.337-.256-.344.08-.08.205.16.372.327.372.37 0 .176-.175.063-.452-.29m302.616.29c0-.043.167-.21.371-.37.337-.264.344-.257.08.08-.277.353-.45.465-.45.29m-303.776-1.669-.404-.477.477.404c.448.38.574.55.404.55-.04 0-.255-.214-.477-.477m305.154.054c.21-.234.431-.425.49-.425s-.067.191-.278.425c-.212.233-.432.424-.49.424s.067-.191.278-.424m-285.759-.796c-.263-.336-.256-.343.08-.08.205.16.372.327.372.371 0 .175-.175.063-.452-.29m266.144.29c0-.044.167-.21.371-.37.337-.264.344-.257.08.08-.277.353-.45.465-.45.29m-286.71-.928c-.263-.336-.255-.344.08-.08.205.16.372.327.372.371 0 .175-.174.062-.451-.29m307.28.29c0-.044.167-.211.371-.37.337-.264.344-.257.08.08-.277.352-.45.465-.45.29m-308.342-1.563c-.264-.337-.256-.344.08-.08.204.16.371.327.371.371 0 .175-.174.062-.451-.291m309.401.291c0-.044.167-.211.371-.371.337-.264.344-.256.08.08-.277.353-.451.466-.451.291m1.166-1.404c.212-.234.432-.424.49-.424s-.067.19-.278.424c-.21.233-.431.424-.49.424s.067-.19.278-.424m-311.627-.16c-.264-.336-.257-.343.08-.08.204.16.37.328.37.372 0 .174-.173.062-.45-.291m-.849-1.06c-.263-.337-.256-.344.08-.08.205.16.372.327.372.37 0 .175-.174.063-.452-.29m313.218.29c0-.043.167-.21.371-.37.337-.264.344-.257.08.08-.277.353-.45.465-.45.29m-314.28-1.563c-.263-.336-.255-.343.08-.08.354.277.467.452.292.452-.044 0-.211-.167-.371-.372m-.848-1.06c-.264-.336-.257-.344.08-.08.204.16.37.327.37.371 0 .175-.173.062-.45-.29m317.034.29c0-.044.167-.21.371-.37.337-.265.344-.257.08.08-.277.352-.45.465-.45.29m-317.884-1.351c-.264-.336-.256-.344.08-.08.204.16.371.327.371.371 0 .175-.174.062-.451-.291m318.731.291c0-.044.167-.211.371-.371.337-.264.344-.256.08.08-.277.353-.45.466-.45.291m-319.58-1.351c-.264-.337-.256-.344.08-.08.204.16.37.327.37.37 0 .175-.173.063-.45-.29m320.428.29c0-.043.166-.21.37-.37.337-.264.344-.257.08.08-.276.353-.45.465-.45.29m-322.761-3.259c-.263-.336-.256-.344.08-.08.204.16.371.327.371.371 0 .175-.174.062-.451-.29m325.093.29c0-.044.167-.211.37-.37.337-.265.345-.257.08.08-.276.352-.45.465-.45.29m-326.577-2.2c-.264-.336-.256-.343.08-.08.353.278.465.452.29.452-.043 0-.21-.167-.37-.371m328.061.29c0-.044.167-.21.371-.37.337-.264.344-.257.08.08-.277.353-.451.465-.451.29m-330.818-3.895c-.264-.336-.256-.344.08-.08.204.16.371.327.371.371 0 .175-.174.062-.451-.291m-.637-.848c-.263-.337-.256-.344.08-.08.205.16.372.327.372.37 0 .175-.175.063-.452-.29m334.847.29c0-.043.167-.21.371-.37.337-.264.344-.256.08.08-.277.353-.45.465-.45.29m-335.484-1.139c-.263-.336-.256-.343.08-.08.205.16.372.328.372.372 0 .174-.174.062-.452-.292m-2.968-4.028c-.264-.337-.257-.344.08-.08.204.16.37.327.37.37 0 .175-.174.063-.45-.29m342.055.29c0-.043.167-.21.372-.37.336-.264.343-.257.08.08-.277.353-.452.465-.452.29m-414.105-156.956c.01-.247.06-.297.129-.128.06.153.053.336-.017.407s-.12-.055-.112-.279m-1.484-6.361c.01-.247.06-.297.128-.128.061.153.054.336-.017.406s-.12-.055-.11-.278m489.4 0c.01-.247.06-.297.128-.128.061.153.054.336-.017.406s-.12-.055-.111-.278zm-489.825-1.909c.01-.247.06-.297.128-.128.061.154.054.336-.017.407-.07.07-.12-.055-.11-.279m490.248 0c.01-.247.06-.297.128-.128.061.154.054.336-.017.407s-.12-.055-.111-.279m-490.673-1.909c.01-.247.06-.297.128-.128.061.153.054.336-.017.406s-.12-.054-.111-.278m491.097 0c.01-.247.06-.297.128-.128.062.153.054.336-.016.406s-.121-.054-.112-.278m-491.733-2.969c.01-.247.06-.297.128-.128.061.153.054.336-.017.407s-.12-.055-.111-.279m492.37 0c.01-.247.06-.297.127-.128.061.153.054.336-.016.407-.07.07-.121-.055-.112-.279zm-492.582-1.06c.01-.247.06-.297.128-.128.061.153.054.336-.017.407-.07.07-.12-.055-.111-.279m492.793 0c.01-.247.06-.297.128-.128.062.153.054.336-.016.407-.07.07-.12-.055-.112-.279m-494.066-6.361c.01-.247.061-.297.129-.128.06.153.053.336-.017.406s-.12-.054-.112-.278m495.339 0c.01-.247.06-.297.127-.128.062.153.054.336-.016.406s-.12-.054-.111-.278zm-495.55-1.06c.01-.248.06-.298.127-.129.062.153.054.336-.016.407s-.121-.055-.112-.279m495.762 0c.01-.247.06-.297.129-.128.06.153.053.336-.017.407s-.12-.055-.112-.279m-495.973-1.059c.01-.247.06-.297.128-.128.062.153.054.336-.016.407s-.12-.055-.112-.279m496.187 0c.01-.247.06-.297.128-.128.06.153.053.336-.017.407s-.12-.055-.111-.279m.212-1.272c.01-.247.06-.297.128-.128.061.153.053.336-.017.406s-.12-.054-.111-.278zm-496.823-1.06c.01-.247.06-.298.128-.128.062.153.054.336-.016.406s-.121-.055-.112-.278m497.035 0c.01-.247.06-.298.128-.128.061.153.054.336-.017.406s-.12-.055-.111-.278m-497.461-2.334c.01-.247.06-.297.128-.128.062.153.054.336-.016.407-.07.07-.12-.055-.112-.279m497.883 0c.01-.247.06-.297.128-.128.061.153.054.336-.017.407-.07.07-.12-.055-.111-.279zm-498.094-1.272c.01-.247.06-.297.128-.128.062.153.054.336-.016.406s-.12-.054-.112-.278m498.307 0c.01-.247.06-.297.128-.128.061.153.054.336-.017.407s-.12-.055-.111-.278m-498.519-1.273c.01-.247.06-.297.128-.128.061.153.054.336-.017.406s-.12-.054-.11-.278m498.73 0c.01-.247.06-.297.128-.128.061.153.054.336-.017.406s-.12-.054-.111-.278m.212-1.272c.01-.247.06-.298.128-.128.061.153.054.336-.017.406s-.12-.055-.111-.278m-499.367-1.06c.01-.247.06-.298.128-.128.061.152.054.335-.017.406-.07.07-.12-.055-.111-.278m499.579-.212c.01-.247.06-.298.128-.128.061.153.054.336-.017.406s-.12-.055-.111-.278zm-499.79-1.273c.01-.247.06-.297.127-.128.061.153.054.336-.017.406-.07.07-.12-.054-.11-.278m500.002 0c.01-.247.06-.297.128-.128.061.153.054.336-.017.406s-.12-.054-.111-.278m-500.215-1.272c.01-.247.06-.298.128-.128.061.153.054.336-.017.406s-.12-.055-.11-.278m500.426 0c.01-.247.06-.298.128-.128.061.153.054.336-.017.406s-.12-.055-.11-.278m-500.64-1.273c.01-.247.06-.297.128-.128.061.154.054.336-.017.407s-.12-.055-.111-.279m500.851 0c.01-.247.06-.297.128-.128.062.154.054.336-.016.407s-.121-.055-.112-.279zm-501.046-1.36c0-.292.048-.411.107-.265a.816.816 0 0 1 0 .53c-.06.146-.107.026-.107-.265m501.275 0c0-.292.048-.411.107-.265s.059.384 0 .53c-.06.146-.107.026-.107-.265m-501.504-1.396c.01-.247.06-.297.128-.128.061.153.054.336-.017.406s-.12-.054-.111-.278m501.7 0c.01-.247.06-.297.127-.128.062.153.054.336-.016.406s-.121-.054-.112-.278m-501.911-1.484c.01-.247.06-.298.128-.128.061.152.054.336-.017.406s-.12-.055-.111-.278m502.123 0c.01-.247.06-.298.128-.128.062.152.054.336-.016.406s-.121-.055-.112-.278zm-502.319-1.361c0-.292.049-.41.107-.265a.816.816 0 0 1 0 .53c-.058.146-.107.027-.107-.265m502.548 0c0-.292.048-.41.107-.265s.059.384 0 .53-.107.027-.107-.265m-502.76-1.484c0-.292.048-.411.107-.265s.059.384 0 .53-.107.026-.107-.265m502.972 0c0-.292.048-.411.107-.265a.816.816 0 0 1 0 .53c-.059.146-.107.026-.107-.265m-503.185-1.485c0-.291.048-.41.107-.265s.06.385 0 .53c-.059.146-.107.027-.107-.265m503.396 0c0-.291.048-.41.107-.265a.816.816 0 0 1 0 .53c-.059.146-.107.027-.107-.265m-503.623-1.608c.01-.247.06-.297.128-.128.061.153.054.336-.017.407s-.12-.055-.111-.279m503.82 0c.01-.247.06-.297.128-.128.061.153.054.336-.017.407s-.12-.055-.111-.279zm-504.016-1.572c0-.292.049-.411.107-.266a.817.817 0 0 1 0 .53c-.058.147-.107.027-.107-.264m504.244 0c0-.292.048-.411.107-.266a.817.817 0 0 1 0 .53c-.059.147-.107.027-.107-.264m-504.456-1.698c0-.291.048-.41.107-.265a.816.816 0 0 1 0 .53c-.059.146-.107.027-.107-.265m504.668 0c0-.291.048-.41.107-.265s.059.385 0 .53c-.059.146-.107.027-.107-.265m-504.88-1.696c0-.292.048-.411.107-.265a.816.816 0 0 1 0 .53c-.059.146-.107.026-.107-.265m505.092 0c0-.292.048-.411.107-.265s.059.384 0 .53-.107.026-.107-.265m-505.304-1.696c0-.291.048-.41.107-.265s.059.385 0 .53c-.059.146-.107.027-.107-.265m505.516 0c0-.291.048-.41.107-.265s.06.385 0 .53c-.059.146-.107.027-.107-.265m-505.72-1.802c.004-.35.052-.467.105-.261s.05.492-.007.636c-.058.143-.102-.025-.098-.375m505.933-.106c0-.292.048-.41.107-.265s.058.384 0 .53c-.06.146-.107.027-.107-.265m-492.6-1.396c.011-.247.061-.297.129-.128.061.153.054.336-.017.406s-.12-.054-.111-.278m-13.547-.406c.005-.35.053-.468.106-.261s.05.492-.007.636c-.059.143-.103-.025-.098-.375m506.364 0c.004-.35.052-.468.106-.261s.05.492-.008.636c-.058.143-.102-.025-.098-.375m-506.576-1.909c.004-.35.052-.467.106-.26.053.205.05.492-.008.636-.058.143-.103-.026-.098-.376m506.788 0c.004-.35.052-.467.106-.26.054.205.05.492-.008.636-.058.143-.102-.026-.098-.376zm-493.454-1.29c.01-.247.06-.297.129-.128.06.153.053.336-.017.407-.07.07-.12-.055-.112-.278m480.071 0c.01-.248.06-.298.128-.129.062.153.054.336-.016.407-.07.07-.121-.055-.112-.278m-493.617-.831c.004-.35.052-.468.105-.26.054.205.05.492-.007.635-.059.144-.103-.025-.098-.375m507.212 0c.005-.35.052-.468.106-.26.054.205.05.492-.008.635s-.102-.025-.098-.375zm-493.878-1.079c.01-.247.06-.297.128-.128.062.153.054.336-.016.406s-.121-.054-.112-.278m480.495 0c.01-.247.06-.297.128-.128.062.153.054.336-.016.406s-.12-.054-.112-.278zm-494.04-1.042c.004-.35.052-.467.105-.26s.05.492-.007.636-.102-.026-.098-.376m507.636 0c.005-.35.052-.467.106-.26s.05.492-.008.636-.102-.026-.098-.376m-507.848-2.12c.004-.35.052-.467.105-.261s.05.493-.008.636-.102-.025-.097-.375m508.06 0c.005-.35.052-.467.106-.26s.05.492-.008.635c-.058.144-.102-.025-.097-.375zm-508.272-2.332c.004-.35.051-.468.105-.261.054.206.05.492-.008.636s-.102-.025-.097-.375m508.484 0c.005-.35.052-.468.106-.261.054.206.05.492-.008.636-.058.143-.102-.025-.098-.375zm-495.15-.866c.01-.247.06-.297.128-.128.061.153.054.336-.017.406s-.12-.054-.111-.278m481.767 0c.01-.247.06-.297.128-.128.061.153.054.336-.017.407s-.12-.055-.111-.279m-495.307-1.573c0-.408.043-.575.096-.37.054.203.054.537 0 .741-.053.204-.096.038-.096-.37m508.909 0c0-.409.043-.576.097-.372.053.204.053.538 0 .742-.054.204-.097.038-.097-.37m-495.583-.76c.01-.248.06-.298.128-.129.061.153.054.336-.017.406s-.12-.054-.111-.278m482.191 0c.01-.247.06-.297.128-.128.061.153.054.336-.016.406s-.121-.054-.112-.278zm-495.729-1.997c0-.408.044-.575.097-.37.054.203.054.537 0 .741-.053.205-.097.037-.097-.37m509.333 0c0-.409.044-.576.097-.372.054.204.054.538 0 .742-.053.205-.097.037-.097-.37m-496.006-.548c.01-.247.06-.298.128-.128.06.152.053.335-.017.406-.07.07-.12-.055-.111-.278m482.615 0c.01-.247.06-.298.128-.128.061.152.054.335-.017.406-.07.07-.12-.055-.111-.278m-496.15-2.315c.003-.467.047-.633.097-.369.051.264.05.646-.004.848s-.094-.013-.092-.48m509.757 0c.003-.466.046-.632.097-.368s.048.646-.005.848-.094-.013-.092-.48zm-496.418-.317c0-.292.048-.411.107-.265a.82.82 0 0 1 0 .53c-.06.145-.107.026-.107-.265m483.04 0c0-.292.047-.41.106-.265a.82.82 0 0 1 0 .53c-.059.146-.107.026-.107-.265m-496.586-2.757c0-.525.04-.74.092-.477s.05.692 0 .954-.092.048-.092-.477m510.18 0c0-.525.042-.74.093-.477.05.263.05.692 0 .954-.05.263-.092.048-.092-.477m-496.846-.212c0-.291.048-.41.107-.265a.82.82 0 0 1 0 .53c-.06.146-.107.027-.107-.265m483.446.089c.01-.248.06-.298.128-.129.062.153.054.336-.016.407s-.12-.055-.112-.279zm-496.99-3.376c.001-.583.043-.796.091-.474.05.323.048.8-.003 1.06s-.09-.002-.088-.586m510.602-.106c0-.524.042-.739.092-.477.05.263.05.692 0 .955-.05.262-.092.047-.092-.478m-497.27.213c0-.292.048-.411.106-.265a.82.82 0 0 1 0 .53c-.058.146-.106.026-.106-.265m483.887 0c0-.292.048-.411.107-.265a.816.816 0 0 1 0 .53c-.059.146-.107.026-.107-.265m-484.092-3.5c.005-.35.052-.467.106-.26.054.206.05.492-.008.636-.058.143-.102-.026-.098-.375m484.312 0c.004-.35.052-.468.106-.261.053.206.05.492-.008.636s-.102-.026-.098-.375zm-497.648-.742c0-.642.04-.904.088-.584.049.321.049.846 0 1.167s-.088.058-.088-.583m511.032-.107c.002-.7.04-.96.088-.579.046.381.046.954-.003 1.272-.049.319-.087.007-.086-.693zm-497.9-3.498c0-.409.044-.576.097-.371.054.204.054.538 0 .742-.053.204-.097.037-.097-.371m484.736 0c0-.409.043-.576.097-.371.053.204.053.538 0 .742-.054.204-.097.037-.097-.371m-498.073-1.485c0-.874.038-1.232.084-.795s.045 1.153 0 1.59-.084.08-.084-.795m511.454 0c0-.874.037-1.232.083-.795a9.25 9.25 0 0 1 0 1.59c-.046.438-.083.08-.083-.795m-498.32-4.029c0-.524.041-.739.092-.476.05.262.05.691 0 .954-.051.262-.092.047-.092-.478m485.16 0c0-.524.04-.739.091-.476.05.262.05.691 0 .954s-.091.047-.091-.478m-498.495-3.604c0-1.458.034-2.054.075-1.325.042.728.042 1.921 0 2.65s-.075.133-.075-1.325m511.877 0c0-1.458.034-2.054.076-1.325.041.728.041 1.921 0 2.65s-.076.133-.076-1.325m-498.718-11.027c0-3.79.029-5.34.064-3.445s.035 4.996 0 6.891-.064.345-.064-3.446m485.584 0c0-3.79.03-5.34.064-3.445a226.47 226.47 0 0 1 0 6.891c-.035 1.895-.064.345-.064-3.446m-498.742-8.27c0-1.457.034-2.054.075-1.325s.042 1.922 0 2.65c-.041.73-.075.133-.075-1.324m511.877 0c0-1.458.034-2.055.076-1.326.041.73.041 1.922 0 2.65-.042.73-.076.133-.076-1.324m-498.542-6.362c0-.525.041-.74.092-.477s.05.692 0 .954c-.051.263-.092.048-.092-.477m485.16 0c0-.525.04-.74.091-.477s.05.692 0 .954-.092.048-.092-.477m-498.294-1.272c0-.875.038-1.233.084-.795s.045 1.153 0 1.59-.084.08-.084-.795m511.454 0c0-.875.037-1.233.083-.795a9.25 9.25 0 0 1 0 1.59c-.046.438-.083.08-.083-.795m-498.117-4.24c0-.41.044-.576.097-.372.054.204.054.538 0 .742-.053.204-.097.037-.097-.37m484.736 0c0-.41.043-.576.097-.372.053.204.053.538 0 .742-.054.204-.097.037-.097-.37m-497.866-.744c0-.7.04-.96.088-.58.047.381.046.954-.002 1.273-.049.318-.087.006-.086-.693m511.03 0c.002-.7.04-.96.087-.58.047.381.046.954-.003 1.273-.048.318-.087.006-.086-.693zm-497.697-3.604c.004-.35.052-.467.106-.261.053.206.05.493-.008.636-.058.144-.102-.025-.098-.375m484.312 0c.004-.35.052-.467.105-.26.054.205.05.492-.008.635s-.102-.025-.097-.375zm13.166-.424c.002-.583.043-.796.091-.474.05.322.048.8-.003 1.06s-.09-.003-.088-.586m-510.608-.106c0-.525.041-.74.092-.477.05.262.05.692 0 .954-.05.263-.092.048-.092-.477m13.335-2.969c0-.291.048-.41.106-.265a.82.82 0 0 1 0 .53c-.058.146-.106.027-.106-.265m483.887 0c0-.291.048-.41.107-.265a.817.817 0 0 1 0 .53c-.059.146-.107.027-.107-.265m-497.01-.636c0-.525.041-.74.092-.477s.05.692 0 .954-.092.048-.092-.477m510.177.106c.003-.466.046-.632.096-.368.051.263.05.645-.004.848s-.094-.013-.092-.48zm-509.969-3.18c.003-.467.047-.633.097-.37.051.265.049.647-.004.85s-.095-.014-.092-.48m13.11.406c.01-.247.06-.297.128-.128.061.153.054.336-.017.406-.07.07-.12-.054-.111-.278m483.463 0c.01-.247.06-.297.128-.128.062.153.054.336-.016.406s-.12-.054-.112-.278zm13.184-.406c.002-.467.045-.633.096-.37.051.265.05.647-.004.85s-.095-.014-.092-.48zm-496.418-2.44c0-.291.048-.41.107-.265s.058.384 0 .53c-.06.146-.107.027-.107-.265m483.04 0c0-.291.047-.41.106-.265s.059.384 0 .53-.107.027-.107-.265m-496.17-.424c0-.408.043-.575.096-.371.054.204.054.538 0 .742-.053.204-.097.037-.097-.37m509.333 0c0-.41.044-.576.097-.372.054.204.054.538 0 .742-.053.204-.097.037-.097-.37m-496.006-2.245c.01-.247.06-.297.128-.128.061.153.054.336-.017.406-.07.07-.12-.054-.111-.278m482.615 0c.01-.247.06-.297.128-.128.061.153.054.336-.017.406-.07.07-.12-.054-.11-.278m-495.731-.512c0-.408.043-.575.097-.37.053.203.053.537 0 .742-.054.204-.097.037-.097-.372m508.909 0c0-.408.043-.575.097-.37.053.203.053.537 0 .742-.054.204-.097.037-.097-.372m-508.696-2.332c0-.408.043-.575.096-.371.054.204.054.538 0 .742-.053.204-.096.037-.096-.371m13.114.3c.01-.247.06-.297.128-.128.061.153.054.336-.017.407s-.12-.055-.111-.279m482.191 0c.01-.247.06-.297.128-.128.061.153.054.336-.016.407s-.121-.055-.112-.279zm13.18-.3c0-.408.043-.575.096-.371.054.204.054.538 0 .742-.053.204-.097.037-.097-.371m-495.157-2.032c.01-.247.06-.297.128-.128.061.153.054.336-.017.406-.07.07-.12-.055-.111-.278m481.767 0c.01-.247.06-.297.128-.128.062.153.054.336-.016.406s-.121-.055-.112-.278m-494.89-.407c.005-.35.053-.467.106-.26.054.205.05.492-.008.636-.058.143-.102-.026-.097-.376m508.06 0c.005-.35.052-.467.106-.26.054.205.05.492-.008.636-.058.143-.102-.026-.097-.376zm-507.848-2.119c.004-.35.052-.467.105-.261.054.206.05.493-.007.636s-.102-.025-.098-.375m507.636 0c.005-.35.052-.467.106-.26.054.205.05.492-.008.635s-.102-.025-.098-.375m-507.425-2.12c.004-.35.052-.468.105-.261s.05.492-.007.636c-.059.143-.103-.026-.098-.375m507.212 0c.005-.35.052-.468.106-.261s.05.492-.008.636-.102-.026-.098-.375zm-493.878-1.714c.01-.247.06-.298.128-.129.062.154.054.336-.016.407s-.121-.055-.112-.278m480.495 0c.01-.247.06-.298.128-.129.062.154.054.336-.016.407s-.12-.055-.112-.278zm-493.617-.407c.004-.35.052-.467.106-.261.053.206.05.493-.008.636s-.103-.025-.098-.375m506.788 0c.004-.35.052-.468.106-.261.054.206.05.492-.008.636-.058.143-.102-.025-.098-.375zm-493.454-1.502c.01-.247.06-.297.129-.128.06.153.053.336-.017.406s-.12-.054-.112-.278m480.071 0c.01-.247.06-.297.128-.128.062.153.054.336-.016.406s-.121-.054-.112-.278m-493.193-.407c.004-.35.052-.468.105-.261.054.206.05.492-.007.636-.059.143-.103-.025-.098-.375m506.364 0c.004-.35.052-.468.106-.261.053.206.05.492-.008.636-.058.143-.102-.025-.098-.375m-506.159-1.803c0-.291.048-.41.107-.265s.06.385 0 .53c-.059.146-.107.027-.107-.265m505.94 0c0-.291.049-.41.108-.265s.058.385 0 .53c-.06.146-.107.027-.107-.265m-492.6-1.396c.011-.247.061-.297.129-.128.061.153.054.336-.017.407s-.12-.055-.111-.279m479.222 0c.01-.247.061-.297.129-.128.06.153.054.336-.017.407s-.12-.055-.111-.279zm-492.353-.511c0-.292.048-.411.107-.265a.82.82 0 0 1 0 .53c-.059.146-.107.026-.107-.265m505.516 0c0-.292.048-.411.107-.265a.82.82 0 0 1 0 .53c-.059.146-.107.026-.107-.265m-505.304-1.698c0-.291.048-.41.107-.265a.82.82 0 0 1 0 .53c-.059.146-.107.027-.107-.265m505.092 0c0-.291.048-.41.107-.265a.82.82 0 0 1 0 .53c-.059.146-.107.027-.107-.265m-504.88-1.696c0-.291.048-.41.107-.265a.817.817 0 0 1 0 .53c-.059.146-.107.027-.107-.265m504.668 0c0-.291.048-.41.107-.265a.82.82 0 0 1 0 .53c-.059.146-.107.027-.107-.265m-504.456-1.696c0-.292.049-.411.107-.265a.817.817 0 0 1 0 .53c-.058.145-.107.026-.107-.265m504.244 0c0-.292.048-.411.107-.265a.817.817 0 0 1 0 .53c-.059.145-.107.026-.107-.265m-504.031-1.484c0-.292.048-.411.107-.266a.82.82 0 0 1 0 .53c-.059.146-.107.027-.107-.265m503.82 0c0-.291.048-.41.107-.265a.817.817 0 0 1 0 .53c-.059.146-.107.027-.107-.265m-503.625-1.608c.01-.247.06-.297.128-.128.061.153.054.336-.017.406s-.12-.054-.111-.278m503.395 0c.01-.247.06-.297.128-.128.062.153.054.336-.016.406s-.12-.054-.112-.278m-503.166-1.572c0-.292.048-.411.107-.265a.82.82 0 0 1 0 .53c-.06.146-.107.026-.107-.265m502.971 0c0-.292.049-.411.107-.265a.816.816 0 0 1 0 .53c-.058.146-.107.026-.107-.265m-502.76-1.485c0-.291.049-.41.108-.265a.816.816 0 0 1 0 .53c-.06.146-.107.027-.107-.265m502.53.089c.01-.247.061-.298.129-.128.06.153.053.336-.017.406s-.12-.055-.112-.278zm-502.334-1.485c.01-.247.06-.297.128-.128.061.154.054.336-.017.407s-.12-.055-.111-.279m502.123 0c.01-.247.06-.297.128-.128.062.154.054.336-.016.407s-.121-.055-.112-.279zm-501.912-1.484c.01-.247.06-.297.128-.128.061.153.054.336-.017.407s-.12-.055-.111-.279m501.7 0c.01-.247.06-.297.127-.128.062.153.054.336-.016.407s-.121-.055-.112-.279m-501.487-1.272c.01-.247.06-.297.128-.128.061.153.054.336-.017.406s-.12-.055-.111-.278m501.276 0c.01-.247.06-.297.127-.128.062.153.054.336-.016.406s-.12-.055-.111-.278m-501.064-1.484c.01-.247.06-.298.128-.129.062.153.054.336-.016.407s-.12-.055-.112-.278m500.851 0c.01-.247.061-.298.129-.129.06.153.053.336-.017.407s-.12-.055-.112-.278zm-500.638-1.274c.01-.247.06-.297.128-.128.061.153.054.336-.017.407s-.12-.055-.11-.279m500.426 0c.01-.247.06-.297.128-.128.061.153.054.336-.017.407s-.12-.055-.11-.279m-500.218-1.27c.01-.247.06-.297.128-.128.061.153.054.336-.017.406-.07.07-.12-.054-.11-.278m500.002 0c.01-.247.06-.297.128-.128.061.153.054.336-.017.406s-.12-.054-.111-.278m-499.79-1.273c.01-.247.06-.298.128-.128.061.153.054.336-.017.406s-.12-.055-.111-.278m499.579 0c.01-.247.06-.298.128-.128.061.153.054.336-.017.406s-.12-.055-.111-.278zm-499.367-1.272c.01-.247.06-.298.128-.129.061.153.054.336-.017.407-.07.07-.12-.055-.111-.278m499.155 0c.01-.247.06-.298.128-.129.061.153.054.336-.017.407-.07.07-.12-.055-.111-.278m-498.943-1.273c.01-.247.06-.297.128-.128.061.153.054.336-.017.406s-.12-.054-.11-.278m498.73 0c.01-.247.06-.297.128-.128.061.153.054.336-.017.406s-.12-.054-.111-.278m-498.52-1.272c.011-.247.061-.298.129-.128.061.153.054.336-.017.406s-.12-.055-.111-.278m498.307 0c.01-.247.06-.298.128-.128.061.153.054.336-.017.406s-.12-.055-.111-.278m-498.096-1.272c.01-.247.06-.298.128-.128.062.153.054.336-.016.406s-.12-.055-.112-.278m497.883 0c.01-.247.06-.298.128-.128.061.153.054.336-.017.406s-.12-.055-.111-.278zm-497.67-1.06c.01-.248.06-.298.127-.13.062.154.054.337-.016.407s-.121-.054-.112-.278m497.459 0c.01-.247.06-.297.128-.128.061.153.054.336-.017.406s-.12-.054-.111-.278m-497.246-1.272c.01-.247.06-.297.128-.128.062.153.054.336-.016.406s-.121-.054-.112-.278m497.035 0c.01-.247.06-.297.128-.128.061.153.054.336-.017.406s-.12-.054-.111-.278m-496.822-1.06c.01-.247.06-.297.127-.128.062.153.054.336-.016.407-.07.07-.12-.055-.111-.279m496.61 0c.01-.247.06-.297.128-.128.061.153.053.336-.017.407s-.12-.055-.111-.279zm-496.188-2.333c.01-.247.06-.297.128-.128.062.153.054.336-.016.407s-.12-.055-.112-.279m495.762 0c.01-.247.061-.297.129-.128.06.153.054.336-.017.407s-.12-.055-.112-.279m-495.55-1.06c.01-.247.061-.297.129-.128.06.153.053.336-.017.407s-.12-.055-.112-.279m495.339 0c.01-.247.06-.297.127-.128.062.153.054.336-.016.407s-.12-.055-.111-.279zm-495.126-1.06c.01-.247.06-.297.128-.128.062.153.054.336-.016.407s-.12-.055-.112-.279m494.914 0c.01-.247.06-.297.128-.128.062.153.054.336-.016.407s-.121-.055-.112-.279zm-.212-1.06c.01-.247.06-.297.128-.128.062.153.054.336-.016.406s-.12-.055-.112-.278m-.212-1.06c.01-.247.06-.298.128-.128.062.153.054.336-.016.406s-.121-.055-.112-.278m-.212-1.06c.01-.247.06-.298.128-.128.061.152.054.335-.017.406-.07.07-.12-.055-.11-.278zm-493.43-1.062c.011-.247.061-.298.129-.128.061.153.054.336-.017.406-.07.07-.12-.055-.111-.278m493.217 0c.01-.247.06-.298.128-.128.062.153.054.336-.016.406s-.12-.055-.112-.278m-493.005-1.06c.01-.247.06-.298.128-.128.061.153.054.336-.017.406s-.12-.055-.111-.278m492.793 0c.01-.247.06-.298.128-.128.062.153.054.336-.016.406s-.12-.055-.112-.278m-393.307-2.155c.903-.04 2.382-.04 3.287 0 .903.04.164.073-1.644.073s-2.547-.033-1.643-.073m290.714 0c.904-.04 2.383-.04 3.287 0 .903.04.164.073-1.644.073s-2.547-.033-1.643-.073m-299.62-.2c.204-.053.538-.053.742 0s.037.097-.371.097-.575-.044-.371-.097m20.465-.004c.263-.05.645-.049.848.004s-.013.095-.48.093-.632-.046-.368-.097m270.145 0c.264-.05.646-.049.849.004s-.013.095-.48.093-.632-.046-.369-.097m20.46.004c.205-.053.538-.053.742 0 .205.053.037.097-.37.097-.409 0-.576-.044-.372-.097m-315.416-.205a.816.816 0 0 1 .53 0c.146.058.026.107-.265.107-.292 0-.411-.049-.265-.107m29.262 0a.817.817 0 0 1 .53 0c.146.058.027.107-.265.107s-.41-.049-.265-.107m261.452 0a.816.816 0 0 1 .53 0c.146.058.027.107-.265.107s-.41-.049-.265-.107m29.262 0a.816.816 0 0 1 .53 0c.146.058.027.107-.265.107s-.41-.049-.265-.107m-323.144-.217c.153-.061.336-.054.407.017s-.055.12-.279.111c-.247-.01-.297-.06-.128-.128m35.823.004a.82.82 0 0 1 .53 0c.146.06.026.107-.265.107-.292 0-.411-.048-.265-.107m254.666 0a.82.82 0 0 1 .53 0c.146.06.027.107-.265.107s-.41-.048-.265-.107m36.061-.004c.153-.061.336-.054.407.017.07.07-.055.12-.279.111-.247-.01-.297-.06-.128-.128m82.542-.191c.01-.247.06-.298.128-.128.062.153.054.336-.016.406s-.12-.055-.112-.278m-411.849-.022c.153-.062.336-.054.406.016s-.055.12-.278.112c-.247-.01-.297-.06-.128-.128m41.335.004a.816.816 0 0 1 .53 0c.146.059.027.107-.265.107-.291 0-.41-.048-.265-.107m249.154 0a.817.817 0 0 1 .53 0c.145.059.026.107-.265.107-.292 0-.411-.048-.265-.107m41.574-.004c.153-.062.336-.054.406.016s-.054.12-.278.112c-.247-.01-.297-.06-.128-.128m-334.608-.211c.153-.062.336-.054.407.016s-.055.12-.279.112c-.247-.01-.297-.06-.128-.128m46.438 0c.154-.062.336-.054.407.016s-.055.12-.278.112c-.248-.01-.298-.06-.129-.128m244.277 0c.153-.062.336-.054.406.016s-.055.12-.278.112c-.247-.01-.298-.06-.128-.128m46.438 0c.153-.062.336-.054.406.016s-.055.12-.278.112c-.247-.01-.298-.06-.128-.128m-339.273-.213c.153-.06.336-.053.407.017.07.07-.055.12-.279.112-.247-.01-.297-.061-.128-.129m341.393 0c.153-.06.336-.053.407.017s-.055.12-.279.112c-.247-.01-.297-.061-.128-.129m-288.593-.212c.153-.06.335-.053.406.017s-.055.12-.278.111c-.247-.01-.298-.06-.128-.128m235.794 0c.153-.06.336-.053.407.017s-.055.12-.279.111c-.247-.01-.297-.06-.127-.128m-233.887-.212c.154-.061.336-.053.407.017s-.055.12-.278.111c-.247-.01-.298-.06-.128-.127m231.977 0c.153-.062.336-.054.407.016s-.055.121-.279.112c-.247-.01-.297-.06-.127-.128m-361.059-2.1c.01-.246.06-.297.128-.128.061.153.054.336-.017.407-.07.07-.12-.055-.11-.278m92.706-7.242a13.726 13.726 0 0 1 1.908.001c.492.044.036.08-1.014.08-1.05-.001-1.452-.038-.894-.081zm13.995 0a13.73 13.73 0 0 1 1.908.001c.492.044.036.08-1.014.08-1.05-.001-1.452-.038-.894-.081zm275.235 0a13.73 13.73 0 0 1 1.908.001c.492.044.036.08-1.014.08-1.05-.001-1.452-.038-.894-.081zm13.995 0a13.726 13.726 0 0 1 1.908.001c.492.044.036.08-1.014.08-1.05-.001-1.452-.038-.894-.081zm-308.321-.208c.32-.049.845-.049 1.166 0 .32.048.059.088-.583.088-.641 0-.904-.04-.583-.088m24.81 0c.32-.049.845-.049 1.165 0 .321.048.059.088-.583.088s-.903-.04-.583-.088m264.421 0c.32-.049.845-.049 1.166 0s.059.088-.583.088-.904-.04-.583-.088m24.809 0c.32-.049.846-.049 1.166 0s.059.088-.583.088-.904-.04-.583-.088m-317.538-.21c.263-.05.692-.05.954 0s.048.092-.477.092-.74-.041-.477-.092m32.019 0c.262-.05.692-.05.954 0s.048.092-.477.092-.74-.041-.477-.092m257.211 0c.262-.05.692-.05.954 0s.048.092-.477.092-.74-.041-.477-.092m32.019 0c.262-.05.691-.05.954 0s.048.092-.477.092-.74-.041-.477-.092m-324.112-.209c.204-.053.539-.053.743 0 .204.054.037.097-.371.097-.409 0-.576-.043-.372-.097m37.853-.003c.264-.051.645-.05.848.004.203.053-.013.095-.48.092s-.632-.046-.368-.096m251.486 0c.264-.051.645-.05.848.004s-.013.095-.48.092-.632-.046-.368-.096m37.847.003c.204-.053.539-.053.743 0 .204.054.037.097-.371.097-.409 0-.576-.043-.372-.097m-329.513-.213c.206-.053.493-.05.636.008.144.058-.025.103-.375.098-.35-.004-.467-.052-.261-.106m42.833 0c.206-.053.493-.05.636.008.144.058-.025.103-.375.098-.35-.004-.467-.052-.26-.106m246.396 0c.206-.053.493-.05.636.008.144.058-.025.103-.375.098-.35-.004-.467-.052-.26-.106m42.832 0c.207-.053.493-.05.637.008.143.058-.026.103-.376.098-.35-.004-.467-.052-.26-.106m-334.184-.211c.206-.054.492-.05.636.007.143.058-.025.102-.375.098s-.468-.052-.261-.105m47.074 0c.206-.054.493-.05.636.007.144.058-.025.102-.375.098s-.467-.052-.26-.105m242.155 0c.206-.054.493-.05.637.007.143.058-.026.102-.376.098s-.467-.052-.26-.105m47.074 0c.206-.054.492-.05.636.007.143.058-.026.102-.376.098s-.467-.052-.26-.105m-338.425-.212c.206-.054.493-.05.636.007s-.025.102-.375.098-.467-.052-.26-.105m51.314 0c.207-.054.493-.05.637.007.143.059-.026.102-.376.098s-.467-.052-.26-.105m237.914 0c.207-.054.493-.05.637.007s-.026.102-.376.098-.467-.052-.26-.105m51.315 0c.206-.054.492-.05.636.007s-.025.102-.375.098-.467-.052-.261-.105m-342.351-.206a.816.816 0 0 1 .53 0c.146.059.026.107-.265.107-.292 0-.411-.048-.265-.107m55.028-.007c.206-.053.492-.05.636.008.143.058-.025.102-.375.098s-.468-.052-.261-.106m234.098 0c.206-.053.492-.05.636.008s-.025.102-.375.098-.467-.052-.261-.106m55.021.007a.817.817 0 0 1 .53 0c.146.059.027.107-.264.107s-.411-.048-.266-.107m-346.057-.212a.816.816 0 0 1 .53 0c.145.059.026.107-.265.107s-.411-.048-.265-.107m58.736 0a.816.816 0 0 1 .53 0c.146.059.027.107-.265.107s-.41-.048-.265-.107m230.493 0a.816.816 0 0 1 .53 0c.147.059.027.107-.265.107s-.41-.048-.265-.107m58.75-.004c.153-.062.336-.054.407.016s-.055.12-.279.112c-.247-.01-.297-.06-.128-.128m-349.464-.208a.816.816 0 0 1 .53 0c.146.059.027.107-.265.107-.291 0-.41-.048-.265-.107m61.93-.005c.154-.06.337-.053.407.017s-.055.12-.278.112c-.247-.01-.298-.06-.128-.129m227.312 0c.154-.06.336-.053.407.017s-.055.12-.279.112c-.247-.01-.297-.06-.128-.129m61.692.005a.816.816 0 0 1 .53 0c.146.059.027.107-.265.107-.291 0-.41-.048-.265-.107m-352.406-.217c.153-.061.336-.053.406.017s-.054.12-.278.111c-.247-.01-.297-.06-.128-.127m64.873.004a.82.82 0 0 1 .53 0c.146.059.026.107-.265.107s-.411-.048-.265-.107m224.132 0a.82.82 0 0 1 .53 0c.146.059.026.107-.265.107s-.411-.048-.265-.107m65.11-.004c.154-.062.337-.054.407.016s-.054.121-.278.112c-.247-.01-.297-.06-.128-.128m-355.6-.212c.153-.061.336-.054.406.016s-.054.121-.278.112c-.247-.01-.297-.06-.128-.128m67.842.004a.82.82 0 0 1 .53 0c.146.06.026.107-.265.107s-.411-.048-.265-.107m221.163 0a.82.82 0 0 1 .53 0c.146.06.027.107-.265.107s-.41-.048-.265-.107m68.08-.004c.153-.061.336-.054.406.017s-.055.12-.278.111c-.247-.01-.298-.06-.128-.128m-421.278-.403c.01-.248.06-.298.128-.129.06.153.053.336-.017.407-.07.07-.12-.055-.111-.278m62.708.19c.154-.06.336-.053.407.017s-.055.12-.278.111c-.248-.01-.298-.06-.128-.128m70.823 0c.153-.06.336-.053.406.017s-.054.12-.278.112c-.247-.01-.297-.06-.128-.128m218.407 0c.153-.061.336-.054.406.017s-.055.12-.278.11c-.247-.01-.298-.06-.128-.127m70.823 0c.153-.061.336-.054.406.017s-.055.12-.278.111c-.247-.01-.298-.06-.128-.128m-361.326-.212c.154-.06.336-.053.407.017s-.055.12-.278.111c-.247-.01-.298-.06-.129-.128m73.58 0c.153-.06.336-.053.407.017s-.055.12-.279.111c-.247-.01-.297-.06-.128-.128m215.439 0c.153-.06.335-.053.406.017.07.07-.055.12-.278.111-.247-.01-.298-.06-.128-.128m73.58 0c.152-.06.335-.053.406.017.07.07-.055.12-.278.111-.247-.01-.298-.06-.129-.128m-363.87-.213c.153-.061.336-.053.406.017s-.055.12-.278.111c-.247-.01-.298-.06-.128-.128m76.124 0c.153-.061.336-.053.406.017s-.054.12-.278.111c-.247-.01-.297-.06-.128-.128m212.894 0c.153-.061.336-.053.406.017s-.055.12-.278.111c-.247-.01-.298-.06-.128-.128m76.124 0c.154-.061.336-.053.407.017s-.055.12-.278.111c-.248-.01-.298-.06-.129-.128m-366.414-.212c.153-.061.336-.054.407.017s-.055.12-.279.111c-.247-.01-.297-.06-.128-.128m78.67 0c.152-.061.335-.054.406.017s-.055.12-.278.111c-.248-.01-.298-.06-.129-.128m210.35 0c.152-.061.335-.054.406.017s-.055.12-.279.111c-.247-.01-.297-.06-.128-.128m78.67 0c.152-.061.335-.054.406.017s-.055.12-.279.111c-.247-.01-.297-.06-.128-.128m-368.96-.212c.153-.061.336-.054.407.017s-.055.12-.279.111c-.247-.01-.297-.06-.128-.128m370.232 0c.153-.061.336-.054.406.017s-.055.12-.278.111c-.247-.01-.298-.06-.128-.128m57.52-.19c.011-.248.061-.298.129-.129.061.153.054.336-.017.407s-.12-.055-.111-.279zm-428.812-.022c.154-.061.336-.054.407.017s-.055.12-.278.111c-.247-.01-.298-.06-.129-.128m83.334 0c.153-.062.336-.054.407.016s-.055.121-.279.112c-.247-.01-.297-.06-.127-.128m205.683 0c.154-.062.336-.054.407.016s-.055.12-.278.112c-.247-.01-.298-.06-.129-.128m83.335 0c.152-.062.335-.054.406.016.07.07-.055.12-.278.111-.247-.01-.298-.06-.128-.128m-374.686-.423c.153-.061.336-.054.406.016s-.055.121-.278.112c-.247-.01-.297-.06-.128-.128m87.999 0c.152-.061.336-.054.406.017s-.055.12-.278.111c-.247-.01-.298-.06-.128-.128m201.018 0c.154-.06.337-.054.407.017s-.055.12-.278.111c-.247-.01-.298-.06-.128-.128m87.999 0c.153-.06.336-.053.406.017s-.055.12-.278.112c-.247-.01-.298-.06-.128-.128m-378.077-.212c.153-.061.336-.054.406.017s-.054.12-.278.11c-.247-.01-.297-.06-.128-.127m90.12 0c.152-.061.335-.054.406.017s-.055.12-.279.11c-.247-.01-.297-.06-.128-.127m198.899 0c.153-.061.336-.054.406.017s-.055.12-.278.11c-.247-.01-.297-.06-.128-.127m90.119 0c.153-.061.336-.054.406.017s-.054.12-.278.11c-.247-.01-.297-.06-.128-.127m-380.197-.213c.153-.062.336-.054.406.016s-.055.121-.278.112c-.247-.01-.297-.06-.128-.128m92.24 0c.153-.062.335-.054.406.016s-.055.121-.279.112c-.246-.01-.297-.06-.127-.128m196.778 0c.153-.062.336-.054.406.016s-.055.121-.278.112c-.247-.01-.297-.06-.128-.128m92.24 0c.153-.062.336-.054.406.016s-.054.121-.278.112c-.247-.01-.297-.06-.128-.128m-287.958-.212c.153-.062.336-.054.407.016s-.055.12-.279.112c-.247-.01-.297-.06-.128-.128m194.658 0c.153-.062.336-.054.406.016s-.054.12-.278.112c-.247-.01-.297-.06-.128-.128m-290.926-.423c.153-.062.335-.054.406.016.07.07-.055.12-.278.112-.247-.01-.298-.06-.128-.128m387.195 0c.153-.062.336-.054.406.016s-.055.12-.278.112c-.247-.01-.298-.06-.128-.128m-209.992-25.513c.212-.233.432-.424.49-.424s-.067.19-.278.424c-.211.233-.431.424-.49.424s.067-.19.278-.424m32.847-.053-.404-.477.478.404c.448.38.573.55.403.55-.04 0-.255-.215-.477-.477m11.126-4.56c-.264-.336-.257-.343.08-.08.353.278.465.452.29.452-.044 0-.21-.167-.37-.371m-1.061-.848c-.264-.337-.256-.344.08-.08.353.277.465.45.29.45-.043 0-.21-.166-.37-.37m-52.984.078c0-.043.167-.21.37-.37.337-.264.344-.257.08.08-.276.353-.45.465-.45.29m15.479 0c0-.043.167-.21.37-.37.337-.264.345-.257.08.08-.276.353-.45.465-.45.29m21.813-.29c-.264-.337-.256-.344.08-.08.204.16.371.327.371.37 0 .175-.174.063-.451-.29m-35.914-.902c.21-.233.431-.424.49-.424s-.067.191-.279.424-.431.424-.49.424.067-.19.279-.424m50.333.053c-.263-.336-.256-.344.08-.08.354.277.466.451.291.451-.044 0-.21-.167-.37-.37m-34.537-.77c0-.044.167-.21.37-.371.337-.264.345-.256.081.08-.277.353-.451.465-.451.29m18.42-.29c-.263-.336-.256-.344.08-.08.354.277.466.451.292.451-.044 0-.211-.167-.371-.37m-32.734-.267c.21-.233.431-.424.49-.424s-.067.191-.278.424-.432.424-.49.424.067-.19.278-.424m47.266-.053-.404-.477.477.404c.448.38.574.55.404.55-.04 0-.255-.215-.477-.477m-45.252-1.75c.396-.407.767-.741.826-.741.058 0-.218.333-.614.742s-.767.742-.825.742.217-.334.613-.742m43.246-.053-.731-.795.795.73c.74.68.893.86.73.86-.035 0-.392-.358-.794-.795m-38.157-4.996c0-.037.31-.347.69-.69l.688-.622-.623.689c-.58.642-.755.787-.755.623m32.536-.623-.623-.69.69.624c.641.58.786.755.622.755-.037 0-.347-.31-.69-.69m-30.309-1.855c.212-.233.432-.424.49-.424s-.066.191-.277.424c-.212.234-.432.424-.49.424s.066-.19.277-.424m28.607-.053-.404-.477.477.404c.448.38.574.55.404.55-.04 0-.255-.214-.477-.477m-27.652-1.087c0-.044.167-.21.37-.37.337-.265.345-.257.081.08-.277.352-.451.465-.451.29m26.478-.29c-.263-.337-.256-.345.08-.08.204.16.371.326.371.37 0 .175-.174.062-.451-.29m-25.418-.982c0-.044.167-.211.37-.371.337-.264.345-.256.08.08-.276.353-.45.465-.45.29m24.358-.29c-.264-.336-.257-.344.08-.08.204.16.37.327.37.37 0 .175-.174.063-.45-.29" fill="#263a54"/></svg>