<svg height="527.241" width="508.083" xmlns="http://www.w3.org/2000/svg"><g clip-rule="evenodd" fill-rule="evenodd"><path d="m327.116 469.837 12.826-9.939 12.507-10.258 11.864-10.582 11.542-10.906 10.904-11.542 10.582-11.543 9.939-12.185 9.3-12.186 8.978-12.823 8.336-13.151 8.018-13.146 7.375-13.79 7.053-13.783 6.414-14.113 5.772-14.426 5.45-14.431 4.81-15.072 4.49-15.07 3.848-15.072 3.205-15.711 2.885-15.714 2.246-15.711 1.925-16.034 1.282-16.353.96-16.034v-33.348l-1.603-34.63h-23.086c-14.11-1.926-26.296-10.263-36.878-19.56-4.168-3.528-8.015-7.376-11.543-11.865l-11.862-15.071c-10.26 8.016-20.2 16.353-31.103 23.408-8.018 5.13-16.354 9.298-25.332 12.184l-4.49 1.284c-10.581 2.244-20.842 2.886-31.745.96-4.168-.64-7.693-1.603-11.543-2.885-13.146-5.13-24.37-13.789-35.593-21.805l-13.467-9.94-15.393 11.222c-10.901 8.338-22.124 16.353-35.271 21.164l-3.527.963c-11.223 2.885-22.126 3.207-33.67 1.282-2.886-.641-5.772-1.282-8.658-2.245-11.864-3.848-22.446-9.62-32.706-16.994-8.017-6.093-16.035-12.506-23.729-18.598-4.81 6.412-9.62 12.826-15.071 18.92-10.582 11.222-23.73 21.802-38.8 26.292-2.885.641-5.45 1.284-8.337 1.284h-21.162l-1.604 34.63v33.348l.96 16.034 1.283 16.353 1.925 16.034 2.244 15.711 2.886 15.714 3.207 15.711 3.846 15.071 4.491 15.071 4.81 15.072 5.45 14.43 5.772 14.427 6.412 14.113 7.056 13.784 7.375 13.789 8.015 13.146 8.339 13.151 8.977 12.823 9.3 12.186 9.939 12.185 10.582 11.543 10.903 11.542 11.543 10.906 11.864 10.582 12.505 10.258 12.828 9.939 13.467 9.303 14.11 8.978 14.108 8.654 23.73 13.146 24.05-13.146 14.107-8.654 14.11-8.978z" fill="#ec1c24"/><path d="m261.382 498.08 19.238-10.58 14.107-8.337 13.468-8.66 13.149-9.297 12.825-9.62 11.864-9.94 11.865-10.582 11.224-10.582 10.582-11.225 10.26-11.542 9.62-11.543 9.3-12.185 8.656-12.504 8.338-12.504 7.697-13.152 7.374-13.146 6.733-13.79 6.414-13.783 5.772-14.113 5.129-14.108 4.81-14.43 4.168-14.75 3.85-15.07 3.207-15.07 2.885-15.393 2.244-15.712 1.603-15.713 1.282-15.712.964-16.031.319-16.354-.32-16.353-1.281-25.331c-5.771 0-11.546.32-17.318-.322-2.885-.64-5.45-1.282-8.336-2.244-5.453-1.924-10.582-4.49-15.714-7.697-9.94-6.412-19.239-14.429-27.254-23.407-2.567-2.886-4.81-6.093-7.056-8.979-4.81 3.849-9.94 7.695-14.75 11.543-9.618 7.055-19.56 12.826-30.46 17.316-2.246.962-4.811 1.603-7.057 2.566-10.9 3.205-21.804 4.167-33.346 3.526-5.453-.64-10.582-1.603-16.035-3.207-2.886-.962-5.771-1.923-8.336-3.207-15.071-6.733-28.218-17.315-41.686-26.934-11.864 8.977-24.05 18.276-37.198 25.011-5.45 2.886-10.901 4.81-16.673 6.414l-4.81.96c-10.261 1.604-20.201 1.285-30.783-.32-6.414-1.283-12.507-3.206-18.92-5.772-8.015-3.205-15.39-7.374-22.445-12.183-7.054-5.133-13.788-10.26-20.521-15.713-2.566 3.206-4.811 6.734-7.697 9.62-11.862 13.146-25.972 24.369-42.325 30.461-2.886.962-5.45 1.603-8.337 2.244-5.771.641-11.544.322-17.315.322l-1.283 25.331-.321 16.353.321 16.354.961 16.031 1.282 15.712 1.604 15.713 2.244 15.712 2.886 15.392 3.207 15.07 3.848 15.072 4.168 14.75 4.81 14.43 5.13 14.107 5.774 14.113 6.412 13.784 6.734 13.789 7.375 13.146 7.696 13.152 8.016 12.504 8.978 12.504 9.3 12.185 9.62 11.543 10.26 11.542 10.582 11.225 11.223 10.582 11.864 10.582 11.864 9.94 12.827 9.62 13.146 9.297 13.467 8.66 14.109 8.337z" fill="#fff"/><path d="m95.28 85.395c5.771 0 10.26 4.489 10.26 9.94 0 5.772-4.489 10.261-10.26 10.261-5.45 0-9.939-4.49-9.939-10.26 0-5.452 4.49-9.941 9.94-9.941m98.121 91.388c5.771 0 10.26 4.81 10.26 10.26 0 5.452-4.489 9.941-10.26 9.941-5.452 0-9.94-4.489-9.94-9.94 0-5.45 4.488-10.261 9.94-10.261m111.908 95.876c5.453 0 9.942 4.81 9.942 10.263 0 5.448-4.489 9.939-9.942 9.939-5.45 0-10.26-4.492-10.26-9.94-.001-5.452 4.81-10.262 10.26-10.262m73.11 74.392c5.452 0 9.941 4.492 9.941 10.263 0 5.448-4.489 9.939-9.942 9.939-5.45 0-10.26-4.492-10.26-9.939 0-5.771 4.81-10.263 10.26-10.263m-211.311-216.121c.963 5.45 7.055 7.053 12.507 7.053 2.886 0 3.526-1.925 2.886-5.771-2.886-18.279-7.697-37.198-32.709-38.48-24.369-1.603-37.195 16.675-39.76 40.083-2.886 31.745 11.864 50.664 35.272 53.228 26.614 3.208 33.027-20.2 36.875-31.424 2.564-7.375-14.108-7.053-14.75 1.925-.642 11.543 2.565 17.316-8.98 17.635-13.145.32-14.75-17.315-14.75-34.95 0-13.147-1.282-25.653 8.016-27.577 10.583-1.924 13.47 7.374 15.393 18.278m101.649 70.222c-11.864-10.901-24.69-20.842-36.235-32.065-3.847-3.847-6.413-4.49-9.62-1.282-1.923 2.564-2.244 5.13-.96 7.374 2.243 4.49 2.885 8.338 2.885 12.506l-17.635 37.517c-2.245 4.81-7.055 2.564-10.583 3.526-1.923 2.246-1.923 4.49-.32 6.734l9.941 9.62c1.283 1.603 4.168 2.245 6.413 0 .962-.963.962-2.565.64-3.849-1.281-6.412 0-10.58 2.886-8.016l27.898 22.768c3.848 3.205 4.49 8.337 4.49 12.824-.32 3.849-.642 4.173 1.922 7.056l23.408 23.086c2.567 2.57 6.414 2.245 8.338-1.604 1.604-3.525-.643-6.733-2.567-12.185-8.015-24.047-11.222-49.059-11.222-72.466 2.246-.641 3.207-1.604 3.207-3.208.641-3.525-.322-6.091-2.886-8.336m-35.593-11.864-14.43 30.783 23.728 18.92-2.886-40.725c-.32-3.848-3.527-7.374-6.412-8.978m123.131 85.935-27.257-20.521c-2.885-2.564-6.09-2.564-8.015-.963-2.564 2.246-1.603 5.452.322 7.697 1.922 2.245 2.886 7.055 2.564 9.943v56.754c0 3.526-.643 7.375-2.886 7.694-3.846.324-5.45-.319-6.092 2.245-.64 1.928-.64 4.168 2.245 6.415l31.425 25.012c2.564 1.923 5.77 1.604 8.014 0 1.604-.96.322-3.849-.642-5.452-2.886-3.526-4.168-6.09-4.168-9.297v-65.095c0-4.492 6.414-5.13 7.053-8.66.644-2.884-.317-4.169-2.563-5.772"/><path d="m261.382 487.18c36.232-18.918 67.978-42.01 95.234-67.978l-313.923-291.48c4.489 152.954 78.56 285.703 218.689 359.458m172.512-171.55c35.593-69.264 50.985-149.75 45.854-235.044-35.593 1.604-68.3-38.8-68.3-38.8-19.239 15.392-43.607 31.105-75.995 31.105-32.386.32-51.304-14.75-74.071-31.104-22.446 16.353-41.365 31.423-73.752 31.103-5.771 0-11.223-.32-16.674-1.284z" fill="#ec1c24"/></g></svg>