<svg xmlns="http://www.w3.org/2000/svg" width="316" height="316" viewBox="0 0 350 350"><g clip-rule="evenodd" fill-rule="evenodd"><path d="M337.508 191.196c0-15.364-11.188-14.477-11.92-17.218 6.45-.537 11.92-7.607 11.92-15.01 0-7.728-7.398-13.531-14.569-14.128 4.429-3.85 8.83-5.89 8.83-14.57v-.882c0-3.424-3.498-8.19-5.648-9.805-3.264-2.453-6.385-2.998-12.012-2.998 2.281-3.406 6.182-5.617 6.182-11.92v-.883c0-8.487-6.546-14.128-15.012-14.128h-1.765c-1.522 0-1.71.327-3.09.442.811-3.042 3.53-4.83 3.53-10.155v-.883c0-6.586-6.522-13.686-12.36-13.686h-2.208c-4.946 0-5.458 1.425-8.389 2.208.477-2.045 2.207-4.474 2.207-7.505v-1.766c0-7.545-6.908-13.687-15.01-13.687-5.63 0-7.464 2.76-10.595 4.857.365-1.566 1.324-3.089 1.324-4.415v-3.532c0-5.94-7.21-13.245-13.244-13.245h-2.649c-4.7 0-8.393 4.41-11.037 6.181 0-8.875-5.234-18.502-14.57-17.218l-4.403.523c-3.264 2.097-7.714 3.649-8.84 7.865h-.883c-.09-3.96-2.249-6.963-3.963-9.282-2.328-3.148-5.17-3.076-7.957-4.845h-5.298c-2.85 1.807-5.022 1.527-7.85 4.512-1.555 1.641-4.057 7.075-4.512 7.408-.279-3.354-2.617-5.926-4.52-7.84-5.771-5.804-15.016-4.896-20.544.876-1.624 1.697-4.073 6.533-4.073 9.613-3.386-3.895-6.148-8.83-13.687-8.83h-1.324c-8.787 0-13.245 8.196-13.245 17.66-3.893-2.608-4.768-6.182-12.362-6.182h-1.324c-6.733 0-13.245 6.641-13.245 12.803l-.167.911 1.05 6.595c-2.698-1.807-4.662-3.974-9.271-3.974h-2.208c-7.947 0-13.685 6.274-13.685 14.128 0 3.863 1.565 5.632 2.207 8.388-2.49-.58-2.988-1.766-6.622-1.766H55.84c-4.535 0-11.038 6.818-11.038 11.479v3.973c0 4.61 2.166 6.573 3.973 9.271-2.883 0-2.804-.882-5.298-.882h-1.766c-5.995 0-13.244 6.674-13.244 13.244v2.208c0 6.282 4.08 8.341 6.18 11.478-8.406 0-17.218 4.803-17.218 11.92v5.298c0 5.656 7.158 9.197 8.83 11.478-6.925 0-14.569 6.417-14.569 12.804v4.415c0 1.477 3.228 6.57 4.29 7.63 1.93 1.925 4.631 3.591 7.63 4.29-3.365 2.338-4.206 1.368-8.058 5.186-2.373 2.353-3.862 5.26-3.862 9.824v.442c0 7.042 7.654 13.973 14.57 14.128-3.787 3.29-8.83 6.469-8.83 13.686v1.766c0 3.124 3.432 8.051 5.466 9.544 3.973 2.915 5.673 3.259 12.193 3.259-3.1 4.628-6.18 5-6.18 13.686v.883c0 5.967 7.2 12.361 13.685 12.361l1.337.1 4.844-.542c-.648 2.43-3.532 4.868-3.532 8.83v4.415c0 1.968 3.358 6.935 4.77 8.034 2.603 2.028 5.273 3.445 9.8 3.445h.883c3.338 0 4.418-1.15 7.063-1.766-.66 2.83-1.766 3.866-1.766 7.947v1.765c0 5.793 6.964 12.804 12.361 12.804h3.09c4.437 0 7.205-2.736 9.714-4.416-.175 2.095-.884 3.335-.884 5.74 0 7.79 5.988 15.01 13.246 15.01 8.685 0 9.057-3.081 13.685-6.18 0 8.436 4.786 17.217 11.92 17.217h3.532c6.865 0 9.584-4.684 12.803-8.388 1.552 6.66 5.792 14.128 13.687 14.128h3.09c5.363 0 11.947-6.496 12.361-11.478h.883c.4 4.816 7.071 11.478 11.92 11.478h3.974c6.915 0 12.803-7.345 12.803-14.569 3.02 2.212 5.322 8.83 12.361 8.83h3.974c8.066 0 12.361-8.542 12.361-17.218 3.657 2.448 4.956 6.18 11.92 6.18h1.766c7.313 0 13.245-7.187 13.245-14.569v-.882c0-2.4-.828-2.375-.883-4.857 3.711 2.486 5.148 3.974 11.478 3.974 6.55 0 13.245-5.78 13.245-11.92v-4.415c0-1.649-1.206-5.014-1.766-6.181 2.959.69 3.302 1.766 7.505 1.766h2.65c6.224 0 12.36-6.288 12.36-12.803v-2.65c0-5.383-2.704-6.167-3.531-9.27 1.38.114 1.568.442 3.09.442h3.531c7.31 0 13.245-6.236 13.245-13.687v-1.324c0-6.761-4.676-8.542-5.74-11.478h3.092c6.32 0 13.686-6.49 13.686-13.245v-3.532c0-6.272-6.204-9.254-9.271-11.92 7.66 0 14.43-5.837 15.011-12.803" fill="#ab2a3e"/><path d="M35.091 166.031v16.335c0 17.106 7.682 40.549 13.537 52.244 7.665 15.309 15.946 26.904 27.412 38.37 11.29 11.291 23.57 19.774 38.516 27.265 11.575 5.802 35.35 13.242 52.54 13.242h11.92c38.842 0 73.927-20.729 93.483-40.285 5.892-5.891 10.147-11.247 15.194-17.917 5.474-7.234 7.872-13.21 12.472-21.081 6.072-10.39 13.503-37.108 13.503-53.603v-11.92c0-38.162-21.253-73.567-40.508-92.821-19.347-19.348-54.54-40.949-92.82-40.949H168.86c-38.09 0-73.175 20.86-92.38 40.065-11.729 11.729-19.932 22.966-27.704 38.519-5.901 11.811-13.686 35.083-13.686 52.536" fill="#fefefe"/><path d="M107.936 179.718h34.436v57.392h-34.436z" fill="#ba7795"/><g fill="#ab2a3e"><path d="M112.793 77.735l29.137-.454v-30.45c-3.528.078-18.045 5.634-21.194 7.06-6.72 3.044-12.202 6.143-18.363 9.892-10.938 6.655-21.87 16.994-29.877 26.633-16.148 19.439-30.34 47.697-30.34 83.12v1.767c0 70.867 59.497 130.238 130.237 130.238h2.207c71.422 0 130.238-60.088 130.238-132.004v-2.649c0-37.14-20.301-71.598-39.174-90.18-10.735-10.568-23.763-19.352-38.227-26.23-10.717-5.096-36.875-12.749-53.295-11.861l-18.525 1.566v33.111h79.467c1.743 0 17.892 11.89 18.542 13.686h-98.01v19.866h115.669c1.497 0 8.213 11.145 8.388 13.246h-10.154c-12.072 0-26.048 8.276-26.048 18.983v3.973c0 11.107 13.46 19.867 25.165 19.867h14.571l.88 8.389v10.154c0 10.04-2.748 20.398-5.13 28.423-1.103 3.718-3.213 8.546-4.868 11.907-1.272 2.584-5.468 9.491-5.895 11.324l10.02.218-9.167 12.877-.411-.292h-10.595c-2.682 5.067-16.043 15.699-21.368 19.248-4.787 3.19-21.115 12.835-27.638 12.98-.526-2.26-4.856-9.75-4.856-11.037 0-.898 8.42-3.661 9.855-4.273 2.92-1.245 6.648-3.2 9.305-4.823 3.434-2.095 15.068-9.085 16.158-12.096h-131.12v1.325c0 2.652 21.079 14.058 25.3 15.076l-6.066 12.216-19.675-10.516-.22 12.667-12.583-9.576v-12.804c-.699-1.044-8-8.388-8.83-8.388l-12.257-.069-8.051-12.734h10.154c-.197-.74-6.868-11.461-8.03-13.604-2.529-4.67-4.302-10.037-6.363-15.269-3.687-9.361-5.474-25.254-5.474-38.233 0-20.278 9.935-43.628 18.19-55.98 9.21-13.783 23.458-28.426 38.32-36.29"/><path d="M155.617 236.669h95.8c3.03 0 11.827-18.546 13.38-22.381 3.227-7.968 6.047-19.174 6.047-30.156v-3.974H155.617zm0-69.755h82.557c-.243-.91-4.047-6.213-5.157-8.53-1.48-3.088-2.79-6.975-2.79-11.337V144.4c0-4.404 1.163-8.531 2.649-11.479.79-1.569 5.282-8.772 5.298-8.83h-82.557zm-86.09 3.973v7.064c0 11.038 4.124 25.647 7.565 33.494 1.88 4.286 12.618 25.224 16.275 25.224h1.325V124.09H84.538c-3.073 0-8.76 17.042-10.39 20.515-1.903 4.06-4.621 20.14-4.621 26.282m38.85 9.271h33.554v56.51h-33.553zm0-56.068h33.995v42.824h-33.994zm-15.01-13.245h49.004V90.538h-25.164c-3.353 0-21.58 16.932-23.84 20.307"/></g></g></svg>