<svg viewBox="119.82 101.25 547.23 912.39" xmlns="http://www.w3.org/2000/svg"><g transform="matrix(1.33333 0 0 -1.33333 -.667 1121.853)"><path d="m90.367 765.452v-478.492l205.21-205.798 205.21 205.798v478.492z" fill="#231f20"/><path d="m94.957 288.857v472.006h401.24v-472.006l-200.621-201.195z" fill="#fff"/><g fill="#231f20"><path d="m184.025 655.073h.724v62.694h24.9v-124.089h-27.592l-23.165 78.444h-.623v-78.444h-24.9v124.09h32.296zm143.729-37.795-3.807-23.6h-24.737l23.46 124.09h31.32l23.46-124.09h-24.735l-3.808 23.6zm17.973 19.722-6.832 42.35h-1.127l-6.832-42.35zm87.195 10.834v-54.156h24.863v124.09h-24.863v-49.662h-20.35v49.661h-24.863v-124.089h24.863v54.156zm-281.186-73.62h6.488l-9.488-18.366v-10.46h-6.042v10.46l-9.446 18.366h6.527l5.96-12.974zm40.018-16.339v-7.704h13.38v-4.784h-19.34v28.827h19.3v-4.824h-13.34v-6.853h11.393v-4.662zm58.02-.445 6.244-11.76v-.283h-6.366l-5.392 10.542h-4.744v-10.542h-5.96v28.827h10.744c4.865 0 8.393-1.58 9.893-4.946q.73-1.643.73-3.77c0-4.46-2.108-6.65-5.15-8.069m-5.473 11.96h-4.784v-8.636h4.784c2.879 0 4.703 1.42 4.703 4.258 0 2.878-1.703 4.379-4.703 4.379m46.058-11.515v-7.704h13.38v-4.784h-19.34v28.827h19.3v-4.824h-13.34v-6.853h11.393v-4.662zm58.994 16.339h6.608l-10.015-28.827h-6.202l-10.015 28.827h6.608l6.488-21.691zm38.639-22.907-1.986-5.92h-6.325l10.744 28.827h5.514l10.785-28.827h-6.325l-1.987 5.92zm8.799 4.824-3.609 10.785-3.568-10.785zm55.06-10.744-11.556 18.975v-18.975h-5.96v28.827h5.96l11.596-19.015v19.015h5.92v-28.827zm-160.097 77.853c0-11.253-4.262-19.833-11.475-25.214-6.033-4.5-14.22-6.312-22.855-6.312s-16.821 1.811-22.854 6.312c-7.214 5.381-11.475 13.96-11.475 25.214v64.213c0 11.253 4.261 19.832 11.475 25.214 6.033 4.501 14.22 6.312 22.854 6.312 8.636 0 16.822-1.81 22.855-6.312 7.213-5.382 11.475-13.96 11.475-25.214zm-24.219 53.865c0 7.626.142 13.937-1.983 17.585-1.776 3.05-5.585 3.78-8.128 3.78s-6.35-.73-8.128-3.78c-2.124-3.648-1.982-9.959-1.982-17.585v-43.517c0-7.627-.142-13.937 1.982-17.585 1.777-3.05 5.585-3.78 8.128-3.78s6.352.73 8.128 3.78c2.125 3.648 1.983 9.958 1.983 17.585zm107.569-491.035c-1.646-1.65-3.555-1.874-5.204-1.135a5 5 0 0 0 -1.52 1.048l-.248.247c-1.625 1.62-2.056 3.502-1.422 5.152.22.559.583 1.104 1.075 1.598 1.53 1.534 3.27 1.666 4.815.852a6.6 6.6 0 0 0 1.586-1.193l.78-.778-4.368-4.381c.766-.61 1.635-.699 2.402-.348.272.118.505.3.751.547.766.767.998 1.598.88 2.417l1.909-.115c.196-1.259-.165-2.636-1.436-3.91m-5.85 5.418c-.856-.857-.555-1.883.121-2.738l2.541 2.548-.156.155c-.793.79-1.715.829-2.506.035m18.454 11.278c-.442.441-.91.233-1.402-.002a6.4 6.4 0 0 1 -.87-.534c-1.167-.754-2.426-1.288-3.568-.952a2.3 2.3 0 0 0 -.962.595c-.663.662-.82 1.492-.77 2.22.078.857.517 1.792 1.373 2.65 1.297 1.3 2.698 1.77 3.984 1.343.403-.143.766-.35 1.092-.674l-1.828-1.833c-.598.597-1.313.505-1.96-.145-.545-.546-.7-1.222-.206-1.715.403-.401.909-.206 1.337.015.623.313 1.427.91 2.05 1.224.791.404 1.583.548 2.362.34.364-.103.74-.323 1.078-.66.69-.687.808-1.53.705-2.284-.129-.882-.607-1.831-1.49-2.715-1.348-1.352-2.905-1.77-4.242-1.292a2.75 2.75 0 0 0 -1.027.635l1.737 1.742c.728-.648 1.559-.465 2.272.25.583.585.855 1.273.335 1.792m10.372 10.403-3.627 3.617-.998-1.001-1.34 1.335.999 1-1.69 1.686 1.827 1.833 1.69-1.685 1.167 1.17 1.34-1.335-1.168-1.17 3.433-3.423c.507-.505.91-.518 1.414-.01.208.207.377.402.494.597l1.39-1.387c-.245-.43-.504-.844-.945-1.287-1.322-1.326-2.647-1.276-3.986.06m9.428 7.452c-.598.596-.573 1.401.035 2.013.61.61 1.415.664 2.026.054s.534-1.388-.075-1.999c-.61-.61-1.388-.664-1.986-.068m6.543 17.432-1.84-1.846c-1.444 1.438-1.55 3.177-.929 4.659a5.1 5.1 0 0 0 1.088 1.586c1.426 1.429 2.919 1.885 4.335 1.304a4.2 4.2 0 0 0 1.299-.907c.728-.726 1.015-1.505 1.198-2.31.248-1.05.289-2.154.303-3.284l.096-3.336 3.966 3.978 1.483-1.478-6.327-6.344-1.26 1.258-.204 6.166c-.027.779-.093 1.493-.289 2.18-.117.429-.273.792-.624 1.142-.794.79-1.742.906-2.52.127-.894-.898-.685-1.988.226-2.895m22.627 9.768c-1.634-1.638-3.373-1.614-5.062-.734-.65.337-1.326.855-2.015 1.543l-1.6 1.594c-1.858 1.853-2.652 3.76-1.89 5.566.22.533.583 1.027 1.05 1.495 1.62 1.625 3.386 1.653 5.062.76.65-.336 1.313-.867 2.015-1.567l1.599-1.595c2.314-2.308 3.096-4.8.84-7.062m-2.42 4.983-2.12 2.112c-1.158 1.154-2.366 1.997-3.48.878-1.09-1.091-.231-2.31.913-3.451l2.12-2.114c1.156-1.153 2.404-2.035 3.506-.93 1.102 1.106.217 2.35-.94 3.505m16.174 9.07-7.073 7.052-1.19-3.17-1.275 2.101.722 3.689 1.387 1.391 9.257-9.23zm14.54 14.581-1.932-1.937-4.197 11.314-4.576-4.59-1.482 1.479 6.508 6.527 1.027-1.024zm-102.625 126.832v-194.054l.01-.922 38.08 37.907-.009.755v194.182l.028 1.33-38.09-38.089zm-57.205 51.766v54.06l.67.67 16.956 16.956.99.032h53.103l-.742-.723-70.317-70.319zm-19.818.709-70.158 70.158-.867.851h53.996l.734-.671 16.987-17.051v-53.933zm-56.513-51.438v-194.773l.023-1.274-38.05 37.878-.055 1.774v194.565l.642-.678 36.782-36.782z"/><path d="m343.22 411.386v-221.086l-.001-1.039-38.114-37.942.034 1.114v275.017l-.063.51 98.048 98.048.764.764h53.87l.027-1.028v-222.434l-38.183-38.01-.051.8v221.53l-.047.954-76.306-76.305zm-95.286.111v-221.005l.038-1.267 38.013-37.843.03 1.051v275.08l-.032.542-97.985 97.985-.73.732h-53.87l-.03-1.008v-222.453l38.247-38.074-.012 1.053v222.36l.81-.83 75.551-75.55z"/></g></g></svg>