<svg xmlns="http://www.w3.org/2000/svg" viewBox="0.2 0.25 195.42 249.5"><path fill="#03284C" d="M186.5.25H9.31S-2.85 55.67.93 119.41c4.14 69.77 49.84 114.71 96.88 130.34h.03c46.82-15.44 92.92-60.57 97.06-130.34C198.66 55.67 186.5.25 186.5.25"/><path fill="#7DB1E0" d="M174.8 12.52H19.86s-9.45 50.23-5.71 107.42c.88 13.36 3.19 25.64 6.71 36.85l153.06-.39c3.45-11.1 5.72-23.24 6.58-36.46 3.75-57.2-5.7-107.42-5.7-107.42"/><path fill="#62A8DA" d="M20.36 12.48s-9.45 50.23-5.71 107.41c.88 13.4 3.21 25.69 6.73 36.91l76.48-.51V12.48z"/><path fill="#08466E" d="M97.86 239.46c32.2-10.03 63.03-38.24 76.83-82.48H97.86z"/><path fill="#B5CDE7" d="M102.44 163.44v1.54H23.49v-1.54zm0 5.5H23.13v1.54h79.31z"/><path fill="#FFF" d="M132.26 115.64c3.1-1.75 6.18-3.77 10.24-4.42 8.73-1.4 18.3-.61 22.67.66-12.2 16.85-18.68 29.86-18.68 29.86l-11.29-20.28zm-9.04 26.11s5.72-24.34 14.95-42.63c-9.5-.25-19.75.51-33.18 8.33z"/><path fill="#B5CDE7" d="m146.48 141.73-.04 1.78-50.51-.76L96.97 105l7.85 2.43c4.84-2.93 9.4-4.68 13.5-5.95-3.24 4.71-5.86 9.47-8.24 15.55l13.14 24.71s2.93-12.41 7.95-26.16h.01l.06-.19c.09-.24.17-.48.26-.71 3.15-1.76 6.78-2.76 11.04-3.48-2.19 2.55-5.54 7.14-7.23 10.49zM97.9 153.14v-6.03H50.75l2.38-5.39H38.2l-2.48 5.39h-5.84l-2.73 6.03h-7.77l2.5 6.38h80.67z"/><path fill="#FFF" d="m177.11 153.14-1.93 6.38H97.86v-12.25H50.32l1.3-5.54c-.53-.77-8.35-12.29-21.12-29.54 5.77-1.67 22.44-2.7 32.86 1.13 13.83-20.93 32.41-31 52.83-32.67-9.51 18.01-17.95 42.98-18.34 61.06h59.55l2.99 5.39h5.53l2.75 6.03h8.44zm-79.24 10.3v1.54h74.47v-1.54zm72.31 7.04H97.86v-1.54h72.33v1.54z"/><path fill="#B5CDE7" d="M51.64 141.71h46.19s-9.63-18.4-34.51-28.49c-7.39 11.92-11.68 28.49-11.68 28.49"/><path fill="#FFF" d="M179.3 7.3H96.37l.02 5.71h77.14s8.29 49.41 5.09 106.25c-3.49 62.21-44.18 103.05-80.8 116.22v.01h-.02v-.01c-.18-.06-.35-.13-.53-.19l.03 6.99c.17.06.33.12.5.18v.01h.02v-.01c39.4-13.92 83.27-57.1 87.04-122.85C188.3 59.53 179.3 7.3 179.3 7.3"/><path fill="#B5CDE7" d="M97.86 7.3H16.34s-9 52.23-5.57 112.31c3.76 65.75 47.63 108.93 87.04 122.85l.01.01-.01-6.98C61.19 222.32 20.5 181.48 17 119.27c-3.19-56.84 5.1-106.25 5.1-106.25h75.75V7.3z"/><path fill="#FFF" d="m97.86 183.37 2.79 9.03 8.8-3.45-5.33 7.79 8.17 4.74-9.41.69 1.4 9.34-6.42-6.93-6.42 6.91 1.41-9.32-9.42-.71 8.18-4.72-5.31-7.8 8.78 3.46z"/><path fill="#B5CDE7" d="m100.65 192.4-2.72 5.64-.07-14.67zm-14.35-3.46 11.49 9.1-2.71-5.65zm-2.87 12.53 14.29-3.29-6.13-1.43zm8.01 10.03 6.35-13.19-4.93 3.87zm12.84.01-6.34-13.18-.07 6.26zm8.01-10.02-14.21-3.25 4.79 3.95zm-2.84-12.54-11.4 9.14 6.08-1.34z"/><path fill="#03284C" d="m30.06 48.28-2.1-5.03c1.35.55 3.41.82 6.19.82 3.24 0 4.87-1.18 4.87-3.58 0-1.08-.38-1.96-1.12-2.64l-1.11-.71c-.46-.26-1.01-.51-1.66-.78-1.16-.44-2.13-.86-2.88-1.28s-1.34-.79-1.75-1.13c-1.54-1.32-2.3-3.31-2.3-5.96 0-2.54.94-4.57 2.8-6.07 1.87-1.54 4.39-2.23 7.56-2.1.63.02 1.34.08 2.15.17.8.09 1.67.24 2.6.44v4.8c-.83-.29-1.68-.51-2.53-.66-.85-.16-1.72-.25-2.57-.27-1.44 0-2.57.29-3.38.85-.78.61-1.17 1.42-1.17 2.46 0 1.14.49 2.05 1.48 2.76l1.21.69c.57.27 1.3.58 2.17.95.94.39 1.76.79 2.44 1.21.69.41 1.24.84 1.66 1.28 1.27 1.35 1.9 3.15 1.9 5.41q0 4.095-2.64 6.42c-1.88 1.64-4.52 2.45-7.91 2.45-2.06.01-3.37-.16-3.91-.5m24.73-9.85v10.09h5.33V38.39l8.77-18.3H63.2l-3.74 8.18c-.41.9-.79 1.76-1.13 2.55s-.62 1.5-.82 2.11h-.04a62 62 0 0 0-1.87-4.71l-3.66-8.14H45.4l.76.66.76 1.09.45.84.65 1.34zM70.1 20.09c.45.23.8.82 1.08 1.75l.29 1.17.1 1.17.13 20.36v3.98h6.96c4.73 0 8.48-1.23 11.25-3.71 2.91-2.56 4.36-6.23 4.36-10.97 0-9.17-5.17-13.75-15.54-13.75zm6.93 4.59h2.23c2.88 0 5.12.83 6.73 2.49 1.6 1.66 2.41 4.01 2.41 7.05 0 3.27-.86 5.71-2.6 7.32-1.59 1.54-3.78 2.3-6.58 2.3h-2.18V24.68zm26.36 13.64c0-2.36-.03-4.44-.07-6.21-.05-1.79-.1-3.29-.16-4.54.55 1.3 1.05 2.45 1.52 3.48s.89 1.9 1.28 2.63l7.91 14.84H121V20.09h-5.46v8.8c0 2.71.03 5.05.09 7.04.05 1.98.13 3.6.23 4.85-.51-1.12-1.06-2.23-1.63-3.34-.57-1.1-1.14-2.21-1.72-3.33l-7.48-14.02h-8.65c.45.23.8.8 1.09 1.71l.29 1.17.1 1.17v24.38h5.53zm35.89 10.2 1.94-4.64h-9.89v-7.75h8.13v-4.56h-8.13v-6.85h9.22v-4.64h-16.2c.47.23.84.8 1.13 1.71l.3 1.15.09 1.19-.03 24.38h13.44zm12.44-10.09v10.09h5.33V38.39l8.77-18.3h-5.69l-3.74 8.18c-.41.9-.79 1.76-1.13 2.55s-.62 1.5-.82 2.11h-.04a62 62 0 0 0-1.87-4.71l-3.66-8.14h-6.55l.76.66.76 1.09.45.84.65 1.34zM88.31 73.62v-8.47h5.77l1.2-3.13H88.3v-4.69h7.12l1.2-3.17H83.56l.74 1.17.21.79.07.81.01 16.69zm11.62-2.8c1.84 2.03 4.36 3.04 7.58 3.04 1.92 0 3.27-.15 4.07-.43l1.5-3.54c-1.32.41-2.99.61-5.01.61-4.3 0-6.46-2.21-6.46-6.64 0-1.94.57-3.51 1.68-4.72 1.15-1.21 2.65-1.82 4.51-1.82q2.505 0 5.19 1.14l-.03-3.65a17 17 0 0 0-2.59-.63c-.85-.13-1.7-.2-2.53-.2q-4.815 0-7.62 2.88c-1.78 1.84-2.67 4.26-2.67 7.28 0 2.66.79 4.89 2.38 6.68"/></svg>