<svg xmlns="http://www.w3.org/2000/svg" viewBox="0 0 56.18 80"><path fill="#fff" d="M28.23 69.039c.017-.008 30.557-9.426 27.14-46.727-1.048-11.35-2.996-15.353-3.624-17.59C47.215 2.237 38.267.545 27.957.545h.314C17.962.545 9.006 2.237 4.474 4.722c-.619 2.237-2.658 8.221-3.607 17.59-3.78 37.268 27.123 46.719 27.14 46.727"/><path fill="#b89c5c" d="M28.114 1.098c9.699.017 18.539 1.543 23.186 4.003.107.33.38 1.189.38 1.189.858 2.55 2.294 6.81 3.145 16.07a59.68 59.68 0 0 1 .264 5.564c0 15.716-6.505 25.588-12.291 31.26-6.769 6.627-13.958 9.079-14.66 9.31h-.049c-.701-.223-7.973-2.691-14.792-9.327-5.761-5.613-12.2-15.345-12.2-30.772 0-1.924.1-3.93.306-6.034C2.236 14.23 3.895 8.6 4.704 5.9c0 0 .149-.527.231-.8 4.648-2.46 13.48-3.987 23.178-4.003M28.27 0h-.313v.01C18.01.042 8.939 1.65 4.217 4.243l-.197.107-.364 1.238c-.809 2.74-2.492 8.428-3.334 16.665A63 63 0 0 0 0 28.477C0 60.85 27.586 69.5 27.883 69.567l.066.016h.338l.066-.017c.297-.066 27.825-8.774 27.825-41.56q0-2.76-.272-5.745c-.859-9.393-2.32-13.727-3.195-16.319l-.503-1.576-.198-.124C47.288 1.65 38.209.04 28.27.007"/><path fill="#024c91" d="M28.221 65.509c.017-.009 28.163-8.097 24.771-42.129C51.985 13.302 50.26 8.836 49.69 6.789c-4.135-2.262-12.315-3.805-21.725-3.805h.29c-9.41 0-17.582 1.543-21.718 3.805-.57 2.047-2.567 8.848-3.301 16.591C.008 57.429 27.999 65.501 28.015 65.509"/><path fill="#b89c5c" d="M28.114 3.392c8.89.017 16.987 1.42 21.23 3.681l.264.884c.743 2.402 2.121 6.884 2.98 15.46q.272 2.846.272 5.43c0 14.149-5.91 22.956-11.2 27.999-6.274 5.976-12.977 8.089-13.505 8.246h-.082c-.52-.157-7.19-2.27-13.438-8.246C9.327 51.786 3.393 42.92 3.393 28.65c0-1.667.082-3.41.256-5.233.693-7.313 2.5-13.743 3.194-16.17l.041-.174c4.251-2.261 12.34-3.664 21.23-3.681m.14-.825h-.288C18.91 2.6 10.632 4.069 6.34 6.43l-.157.082-.14.512c-.686 2.443-2.518 8.931-3.22 16.319a57 57 0 0 0-.256 5.316c0 14.593 6.109 23.665 11.556 28.848 6.645 6.322 13.727 8.378 13.793 8.394l.05.017h.305l.05-.017c.066-.017 7.19-2.088 13.85-8.403 5.44-5.158 11.516-14.164 11.516-28.634 0-1.758-.091-3.598-.28-5.53-.868-8.658-2.263-13.182-3.005-15.617l-.364-1.205-.148-.083c-4.3-2.36-12.563-3.83-21.634-3.863"/><path fill="#b89c5c" d="M28.254 2.567h-.289v.825h.289"/><path fill="#b82133" d="M3.244 23.349c6.199-1.956 15.039-3.186 24.87-3.203l-.206-.009h.404l-.198.01c9.839.016 18.679 1.246 24.878 3.202C51.985 13.287 50.26 8.83 49.69 6.791c-4.118-2.262-12.224-3.797-21.576-3.813-9.352.017-17.466 1.551-21.576 3.813-.57 2.039-2.558 8.824-3.293 16.558"/><path fill="#b89c5c" d="M28.114 3.392c8.89.017 16.987 1.428 21.23 3.681l.264.892c.727 2.336 2.047 6.661 2.906 14.825-6.422-1.94-14.965-3.021-24.201-3.054h-.405c-9.228.033-17.77 1.114-24.193 3.046.743-7.041 2.46-13.182 3.12-15.534l.05-.174c4.242-2.253 12.348-3.664 21.23-3.681M6.34 6.43l-.157.083-.14.512c-.685 2.443-2.51 8.914-3.211 16.286l-.058.619.594-.19c6.356-2.006 15.378-3.161 24.746-3.178 9.369.017 18.39 1.172 24.754 3.178l.595.19-.066-.62c-.859-8.64-2.254-13.155-2.997-15.59l-.363-1.205-.148-.083c-4.317-2.369-12.662-3.846-21.775-3.863-9.121.017-17.466 1.494-21.775 3.863"/><path fill="#fff" d="M26.075 37.849l1.692 22.732 2.427-22.98-2.113-1.106"/><path fill="#b89c5c" d="M28.106 36.999a82 82 0 0 1 1.634.858c-.05.438-1.28 12.158-1.898 18.002-.438-5.835-1.296-17.408-1.33-17.788.298-.198 1.297-.874 1.594-1.073m-2.468.644l1.709 22.98.842.01 2.46-23.26-2.593-1.363"/><path fill="#b89c5c" d="M36.418 30.569h.198l-.198-.297-.083-.264h-.181l-.05.247-.255.314h.148v.743l-2.237-1.024-.173.058-3.112-1.428s-.462-4.02-1.601-5.076c0 0 0-3.459-.157-3.855-.149-.388-.338-1.09-.57-1.18v-.009h-.016v.009c-.223.09-.421.792-.57 1.18-.157.396-.157 3.855-.157 3.855-1.13 1.056-1.601 5.076-1.601 5.076l-3.112 1.428-.173-.058-2.237 1.024v-.743h.149l-.248-.314-.058-.247h-.181l-.083.264-.198.297h.198v1.84l-.116.166v.528l.355.033.463.33 5.786.231-.974 1.75v.718l-1.172.958.115 1.287.545.231 2.501-1.056c.462.42.735.165.776.107.05.058.314.314.776-.107l2.5 1.056.546-.23.123-1.288-1.172-.958v-.718l-.982-1.75 5.786-.23.47-.331.356-.033v-.528l-.124-.165"/><path fill="#fff" d="M27.957 19.789l.19-.487.181.487.108.305c.082.248.14 2.105.14 3.748l.09.223c.867.8 1.387 3.797 1.511 4.886l.174.24 3.111 1.428.223.009.058-.017 2.13.974.239-.01v.834l.058.182.058.083v.156l-.066.01-.149.049-.404.28-5.688.231-.255.149-.042.149.042.148.94 1.676v.644l.108.239s.85.693 1.048.85c-.017.206-.066.718-.082.95l-.265.115-2.377-1.007-.33.05-.347.131-.222-.09-.223.09-.347-.132-.322-.049-2.385 1.007-.265-.116c-.016-.23-.065-.743-.082-.949.198-.157 1.048-.85 1.048-.85l.107-.24v-.643l.941-1.676.042-.148-.042-.149-.255-.149-5.688-.23-.404-.281-.14-.05-.075-.009v-.156l.058-.083.058-.182v-.833l.247.009s1.932-.884 2.122-.974l.066.017.214-.01 3.112-1.427.173-.24c.132-1.09.652-4.086 1.51-4.886l.1-.223c0-1.643.05-3.5.132-3.748zm.057-1.263c-.28.116-.42.479-.627 1.065l-.107.28c-.157.405-.174 2.939-.174 3.855-1.015 1.115-1.477 4.226-1.584 4.986a539.86 539.86 0 0 1-2.848 1.304l-.058-.017-.223.01-1.808.833v-.01l.116-.131.025-.132-.058-.182-.206-.264-.042-.181-.297-.24h-.181l-.29.215-.065.223-.173.264-.05.165.033.14.157.132v1.478l-.058.082-.05.182v.52l.273.297.273.033.396.28.165.058 5.29.207c-.272.487-.734 1.32-.734 1.32l-.041.15v.577l-1.057.867-.115.23v.034l.124 1.28.181.255.545.231h.24s2.087-.883 2.352-.999l.553.198.247-.074.256.074.553-.198c.264.116 2.353 1 2.353 1h.23l.554-.232.181-.256.116-1.28v-.032l-.116-.231-1.056-.867v-.578l-.041-.148-.735-1.321 5.29-.206.158-.058.412-.28.273-.034.272-.297v-.52l-.058-.181-.057-.083V30.84l.156-.132.033-.14-.05-.165-.164-.264-.075-.223-.28-.215h-.19l-.297.24-.033.181-.215.264-.058.182.025.132.116.132v.009l-1.808-.834L33.66 30l-.05.017c-.197-.082-2.591-1.18-2.855-1.304-.1-.76-.561-3.871-1.577-4.985 0-.917-.017-3.45-.181-3.855l-.108-.289c-.198-.578-.346-.941-.635-1.057zM14.429 42.299s1.494 9.377 10.755 16.12c0 0-6.075-4.375-6.967-16.863l-2.096-.248-1.395.743"/><path fill="#b89c5c" d="M16.212 41.759c.19.017 1.164.14 1.601.19.47 5.82 2.04 9.864 3.59 12.522-5.125-5.53-6.388-11.399-6.528-12.134l.057.107s1.074-.577 1.28-.685m-1.684-.082s.182.354.297.57l-.825.131c.017.1 1.618 9.5 10.755 16.261l.173.132.512-.701-.083-.066c-.71-.57-5.893-5.143-6.71-16.475l-.025-.355-2.584-.314"/><path fill="#b89c5c" d="M21.04 35.049l.149-.041-.223-.223-.124-.215-.14.041.017.232-.116.33.107-.025.182.644-1.998-.413-.115.083-2.782-.578s-1.345-3.434-2.493-4.119c0 0-.842-3.046-1.065-3.36-.214-.305-.528-.882-.726-.916h-.025l.009.01c-.157.132-.132.784-.157 1.163-.025.38.817 3.426.817 3.426-.627 1.172-.008 4.812-.008 4.812l-2.089 1.931-.148-.016L8.61 39.2l-.174-.652.116-.033-.272-.214-.108-.215-.14.041v.248l-.083.305.157-.04.454 1.625-.058.165.132.462.281-.049.446.198 4.58-1.056-.338 1.75.174.643-.685 1.09.412 1.106.48.083 1.7-1.47c.462.264.61-.017.627-.074.05.041.322.206.578-.264l2.22.388.363-.322-.223-1.156-1.147-.586-.173-.635-1.189-1.329 4.457-1.453.29-.396.263-.107-.123-.463-.132-.115"/><path fill="#fff" d="M11.837 27.679l.017-.297.008-.297.174.256.156.239c.132.198.628 1.824 1.024 3.269l.14.173c.859.52 1.998 3.046 2.36 3.978l.224.182 2.781.578.232-.05.016-.009c.223.05 1.866.388 1.866.388l.173-.041c.091.347.198.702.198.702l.083.148.066.058.033.124h-.017l-.132.107-.223.306-4.375 1.428-.198.214-.008.074.074.198 1.147 1.28.157.57.149.19s.817.412 1.023.511c.033.19.116.636.165.85l-.132.108-2.072-.355-.313.148-.14.165-.455.124-.008.01-.198-.075-.347.024-1.593 1.379-.165-.025c-.082-.206-.231-.627-.297-.8.124-.207.603-.974.603-.974l.049-.157-.008-.083-.165-.57.33-1.683v-.058l-.091-.215-.273-.074-4.482 1.024-.363-.149-.165-.017h-.017l-.033-.124.025-.082.017-.083-.017-.083s-.09-.355-.19-.693l.165-.066 1.404-1.296h.008l.24-.074 2.08-1.932.09-.272c-.165-.982-.495-3.74-.017-4.622l.025-.223c-.404-1.453-.817-3.087-.809-3.327m-.338-1.411c-.206.173-.231.528-.248 1.098l-.017.272v.025c0 .454.586 2.616.81 3.409-.199.454-.273 1.13-.273 1.84 0 1.164.173 2.41.247 2.881-.198.182-1.7 1.568-1.865 1.725h-.008l-.231.075-1.073.99.008-.066-.107-.23-.223-.182-.075-.149-.355-.157-.148.041-.215.29.009.214-.075.256-.008.083.083.214.148.058c.091.322.322 1.172.363 1.304l-.033.091-.016.083.016.083.133.462.338.214.198-.032.363.156.182.017s3.4-.776 4.127-.949c-.091.504-.248 1.296-.248 1.296l-.008.058.017.082.14.504-.62.99-.04.157.017.107.404 1.107.231.19.487.082.248-.066 1.552-1.345.503.024.157-.107h.231l.388-.28c.297.049 2.039.354 2.039.354l.247-.066.372-.321.107-.232-.008-.058-.223-1.155-.157-.207-1.032-.528-.14-.512-.066-.115s-.545-.611-.883-.983c.71-.239 4.028-1.312 4.028-1.312l.148-.116.232-.321.19-.075.19-.28-.018-.075-.123-.462-.091-.149-.066-.057c-.033-.124-.264-.95-.355-1.288l.082-.14.009-.075-.091-.223-.198-.181-.1-.182-.346-.14-.14.041-.223.29v.024l.017.165-.1.272-.016.1.083.206c-.586-.124-1.428-.297-1.428-.297l-.232.057-.016.01c-.223-.05-2.22-.471-2.493-.52-.264-.678-1.362-3.253-2.443-4.029-.215-.8-.859-3.046-1.082-3.367l-.14-.223c-.314-.48-.52-.768-.792-.817l-.256.074m30.355 16.03s-1.494 9.377-10.755 16.12c0 0 6.075-4.375 6.975-16.863l2.088-.248 1.395.743"/><path fill="#b89c5c" d="M40.073 41.759c.206.107 1.271.685 1.271.685l.058-.107c-.14.75-1.411 6.611-6.52 12.134 1.551-2.666 3.111-6.703 3.582-12.522.445-.05 1.411-.174 1.61-.19m-2.42-.586l-.016.355c-.817 11.333-6.001 15.906-6.72 16.475l-.082.066.512.701h.008l.174-.14c9.137-6.76 10.73-16.153 10.747-16.253l-.826-.132c.124-.215.306-.57.306-.57l-1.52-.817"/><path fill="#b89c5c" d="M35.238 35.049l-.149-.041.223-.223.124-.215.149.042-.017.23.115.33-.115-.024-.182.644 1.998-.413.124.083 2.781-.578s1.346-3.434 2.485-4.119c0 0 .85-3.045 1.065-3.36.214-.305.536-.882.734-.915h.017v.009c.149.132.132.784.157 1.163.025.38-.826 3.426-.826 3.426.628 1.172.017 4.812.017 4.812l2.089 1.932.14-.017 1.502 1.386.182-.652-.116-.033.264-.214.116-.215.14.041-.008.248.083.305-.149-.04-.454 1.625.05.165-.124.463-.289-.05-.446.198-4.573-1.056.339 1.75-.182.635.685 1.098-.404 1.106-.487.083-1.7-1.47c-.454.265-.603-.016-.628-.074-.05.042-.322.207-.577-.264l-2.213.388-.371-.322.223-1.155 1.147-.586.182-.636 1.188-1.329-4.465-1.453-.28-.396-.273-.107.132-.462.124-.116"/><path fill="#fff" d="M44.253 27.329l.165-.248.017.306.008.297c0 .256-.405 1.882-.809 3.318l-.008.083.033.14c.182.339.248.958.248 1.643 0 1.098-.165 2.369-.264 2.98v.049l.09.223 2.089 1.923.23.083h.009l1.403 1.296.165.065c-.09.339-.19.694-.19.694l-.008.083.008.082.025.083-.033.124h-.017l-.165.017-.355.148-4.482-1.023-.28.074-.091.215.008.057.33 1.684-.165.562-.008.082.041.165s.487.776.61.966c-.065.182-.222.603-.296.809l-.174.025-1.593-1.37-.346-.042-.207.075-.445-.132-.008.009-.132-.166-.314-.148s-1.824.314-2.072.355l-.132-.107c.041-.215.124-.66.157-.85.206-.1 1.023-.512 1.023-.512l.149-.19.165-.57 1.14-1.28.082-.197-.017-.074-.198-.215-4.367-1.42-.23-.313-.133-.108h-.017l.033-.124.066-.058.091-.148.198-.702.173.041s1.643-.338 1.866-.387l.008.009.24.049 2.781-.578.223-.19c.363-.924 1.494-3.45 2.36-3.97l.133-.173c.404-1.453.9-3.07 1.023-3.269zm.272-1.14c-.264.042-.47.34-.776.81l-.156.23c-.223.323-.859 2.568-1.082 3.369-1.073.776-2.179 3.35-2.443 4.02a654.9 654.9 0 0 0-2.493.528l-.008-.017-.24-.05s-.841.174-1.42.298l.084-.207-.025-.099-.091-.272.008-.173v-.017l-.222-.29-.14-.04-.34.14-.107.181-.198.182-.09.223.016.074.075.14a64 64 0 0 1-.355 1.288l-.066.058-.083.148-.132.454-.008.083.19.28.181.075.24.322.148.107s3.31 1.082 4.02 1.32c-.33.372-.875.975-.875.975l-.066.124-.149.512-1.032.528-.148.206-.231 1.164v.05l.099.23.371.322.248.066s1.742-.305 2.039-.355l.388.281.223-.009.173.116.495-.025c.248.206 1.552 1.345 1.552 1.345l.248.066.487-.082.23-.19.405-1.106.017-.108-.041-.156-.611-.983.14-.511.008-.083-.008-.058s-.148-.792-.24-1.296c.727.174 4.12.95 4.12.95l.19-.017.363-.157.198.033.338-.215.124-.462.017-.083-.017-.083-.025-.09c.033-.124.273-.983.364-1.305l.14-.058.09-.214-.007-.083-.075-.256.008-.214-.222-.29-.149-.04-.347.156-.082.149-.215.181-.107.231v.066c-.438-.412-1.065-.99-1.065-.99l-.231-.075h-.008a295 295 0 0 1-1.874-1.733c.075-.462.256-1.709.256-2.864 0-.718-.074-1.395-.272-1.85.214-.792.8-2.954.8-3.4v-.033l-.008-.272c-.017-.561-.05-.925-.256-1.098l-.255-.074"/><path fill="#b82133" d="M45.613 67.519s4.515-3.054 9.294 3.946c0 0-6.785 2.038-7.09 3.598 0 0-.47 1.998.058 4.524 0 0-2.089-2.155-3.995-2.303-2.444-.19-4.45-1.569-1.924-3.03 2.295-1.312 3.657-6.735 3.657-6.735"/><path fill="#b89c5c" d="M54.123 71.209c-2.105.669-6.471 2.229-6.768 3.764-.008.041-.207.883-.207 2.154 0 .38.025.793.066 1.238-.833-.66-2.08-1.46-3.301-1.56-1.503-.115-2.543-.668-2.642-1.114l-.008-.066c0-.264.339-.619.933-.957 2.22-1.271 3.557-5.853 3.822-6.843.742-.405 4.217-1.865 8.105 3.384m-8.774-4.086l-.198.28c-.363 1.454-1.692 5.449-3.434 6.447-1.337.768-1.486 1.536-1.37 2.048.248 1.114 1.94 1.733 3.491 1.857 1.71.132 3.682 2.138 3.698 2.154l.562.09a.492.492 0 0 0 .247-.51c-.503-2.386-.066-4.301-.066-4.318.157-.784 3.624-2.303 6.76-3.252l.314-.289-.057-.43c-4.986-7.304-9.906-4.11-9.947-4.077"/><path fill="#b82133" d="M11.044 67.519s-4.507-3.054-9.294 3.937c0 0 6.752 2.039 7.057 3.607 0 0 .462 1.998-.066 4.524 0 0 2.097-2.155 4.004-2.303 2.443-.19 4.449-1.56 1.923-3.021-2.295-1.321-3.624-6.744-3.624-6.744"/><path fill="#b89c5c" d="M10.632 67.829c.264.99 1.577 5.563 3.797 6.843.594.338.933.693.933.957l-.009.066c-.099.446-1.147.999-2.65 1.114-1.221.1-2.46.892-3.293 1.56.041-.453.066-.883.066-1.262 0-1.263-.19-2.097-.206-2.155-.297-1.518-4.647-3.078-6.744-3.747 3.896-5.25 7.371-3.789 8.106-3.376m-9.278 3.36l-.058.42.314.297c3.128.95 6.579 2.477 6.735 3.244.009.033.43 1.948-.066 4.334a.465.465 0 0 0 .24.512l.561-.091c.025-.017 1.998-2.023 3.698-2.146 1.56-.124 3.244-.743 3.5-1.858.115-.511-.033-1.279-1.37-2.055-1.734-.999-3.046-4.985-3.401-6.438l-.19-.28c-.05-.034-4.96-3.236-9.963 4.06"/><path fill="#b82133" d="M50.463 61.669c.28-1.676-4.424-5.646-22.394-5.836h-.008c-17.978.19-22.592 4.127-22.311 5.803 1.27 7.577 6.19 13.966 6.19 13.966 7.041-2.369 9.781-3.128 16.153-3.128 6.364 0 9.187.767 16.228 3.144 0 0 4.862-6.372 6.141-13.95"/><path fill="#b89c5c" d="M6.348 61.529v-.041c0-.132.083-.372.322-.66.586-.702 4.375-4.21 21.387-4.384 17.07.182 20.89 3.723 21.486 4.433.24.289.322.512.322.644l-.008.041c-1.073 6.356-4.771 11.927-5.77 13.339-6.801-2.286-9.666-3.037-15.997-3.037-6.29 0-9.154.742-15.93 3.012-1-1.403-4.739-6.983-5.812-13.347m-.61-1.477c-.603.718-.653 1.312-.587 1.684 1.28 7.643 6.092 13.974 6.298 14.239l.264.338.413-.14c6.835-2.295 9.525-3.087 15.964-3.087 6.282 0 9.063.76 16.03 3.112l.421.14.264-.347c.198-.264 4.961-6.587 6.257-14.222l.017-.247c0-.364-.124-.859-.611-1.428-.908-1.098-5.233-4.689-22.394-4.87-17.127.181-21.428 3.739-22.336 4.828"/><path fill="#fff" d="M10.293 8.138l1.205-.24 1.973 2.758h.008l-.693-3.021.9-.182 1.015 4.35-1.222.248-1.989-2.89h-.017l.735 3.146-.908.181"/><path fill="#b89c5c" d="M13.595 7.602c.05.215.9 3.871.95 4.102l-1.008.207-1.948-2.823-.23.099s.643 2.79.7 3.02l-.66.133c-.05-.215-.9-3.871-.957-4.102l1.007-.207 1.923 2.7.231-.108s-.619-2.658-.668-2.889zm-.966-.066s.421 1.808.595 2.567c-.471-.66-1.668-2.344-1.668-2.344l-1.411.289 1.065 4.59 1.147-.232s-.43-1.874-.62-2.666c.48.693 1.685 2.443 1.685 2.443l1.428-.28-1.065-4.598"/><path fill="#fff" d="M14.932 7.247l2.55-.396.14.767-1.55.24.172.982 1.478-.231.132.776-1.478.223.198 1.106 1.627-.248.132.768-2.633.404"/><path fill="#b89c5c" d="M17.384 6.991l.09.528c-.206.025-1.55.231-1.55.231l.214 1.23s1.27-.198 1.477-.223l.091.52-1.477.223.239 1.354s1.42-.215 1.626-.248l.09.52c-.214.033-2.17.339-2.376.364-.042-.215-.694-3.913-.727-4.144.215-.033 2.097-.322 2.303-.355m-2.592.149l.81 4.639 2.88-.446-.181-1.007s-1.42.214-1.627.247l-.156-.866c.214-.025 1.477-.223 1.477-.223l-.173-1.015s-1.271.198-1.478.222l-.132-.726c.215-.041 1.552-.24 1.552-.24l-.173-1.015"/><path fill="#fff" d="M21.098 7.445h-.008l-.174 3.483-1.23.124L18.3 6.71l1.007-.099.891 3.104.009-.01.181-3.193 1.23-.116.891 3.087h.009l.23-3.203.917-.09-.38 4.515-1.23.115"/><path fill="#b89c5c" d="M23.525 6.331c-.017.272-.347 4.07-.355 4.26l-1.023.098-.925-3.285-.256.033s-.165 3.178-.173 3.384l-1.015.1c-.058-.174-1.222-3.83-1.313-4.103.198-.017.62-.058.751-.066l.859 2.988.256-.024s.165-2.89.181-3.096l1.016-.099.858 2.996.256-.024s.214-2.898.223-3.096zm-.891-.156s-.132 1.807-.19 2.641c-.231-.809-.735-2.559-.735-2.559l-1.436.14-.149 2.609c-.23-.826-.718-2.526-.718-2.526l-1.271.124 1.461 4.58 1.436-.14s.1-1.98.14-2.88c.248.867.793 2.79.793 2.79l1.436-.132.405-4.763"/><path fill="#fff" d="M27.536 7.074c-.157-.083-.437-.24-.916-.223-.71.025-1.131.61-1.09 1.51.033.867.562 1.437 1.23 1.404.512-.017.81-.215.908-.264l.083.924a3.7 3.7 0 0 1-1.123.206c-1.221.042-2.121-.833-2.179-2.245-.074-1.634 1.007-2.32 1.915-2.352.669-.025 1.015.107 1.189.173"/><path fill="#b89c5c" d="M24.573 8.378c-.033-.677.149-1.246.52-1.643a1.8 1.8 0 0 1 1.271-.577c.561-.025.875.066 1.065.132 0 .107-.008.38-.008.586a1.7 1.7 0 0 0-.81-.149c-.33.01-.618.14-.825.363-.272.298-.413.743-.388 1.272.041.916.611 1.56 1.37 1.535.372-.017.628-.116.793-.198.017.206.041.512.058.635q-.447.151-.991.165c-1.172.042-1.998-.808-2.055-2.12m1.783-2.469a2.06 2.06 0 0 0-1.453.66c-.413.446-.611 1.074-.578 1.816.058 1.47.99 2.41 2.311 2.37q.646-.027 1.156-.215l.082-.025-.099-1.213-.214.115c-.132.066-.388.215-.8.223-.612.025-1.082-.52-1.115-1.287-.017-.47.09-.842.322-1.09a.9.9 0 0 1 .652-.289c.429-.017.668.107.833.198l.182.091.033-.19.008-.957-.09-.033c-.198-.075-.553-.207-1.23-.173"/><path fill="#fff" d="M31.284 10.557l1.081.025L31.036 6.1l-1.163-.025-1.593 4.416 1.015.025.33-.99 1.411.032zm-.437-1.75l-1.007-.025.577-1.84h.009"/><path fill="#b89c5c" d="M30.401 7.395c.107.454.24 1.081.289 1.28l-.685-.018c.066-.198.256-.817.396-1.262m-.107-.487l-.628 1.997 1.338.025-.554-2.468"/><path fill="#b89c5c" d="M29.963 6.207l.974.017c.05.165 1.172 3.937 1.255 4.234-.215-.009-.677-.017-.81-.024l-.255-1-1.585-.032-.338.99a17 17 0 0 0-.752-.017zm-1.856 4.408l1.28.025.33-.983 1.22.025.257.999 1.337.033-1.403-4.73-1.337-.033"/><path fill="#fff" d="M35.758 7.305c-.24-.149-.578-.28-.858-.297-.339-.033-.611.099-.644.43-.066.808 1.725.577 1.576 2.153-.074.842-.8 1.288-1.684 1.222a4.3 4.3 0 0 1-1.18-.289l.132-.858c.306.148.561.322.958.355.33.024.668-.108.701-.47.074-.86-1.717-.587-1.576-2.164.008-.132.165-1.262 1.667-1.139.404.033.652.124 1.032.24"/><path fill="#b89c5c" d="M34.883 9.558c.041-.446-.338-.644-.693-.834-.47-.247-.958-.503-.884-1.329.009-.115.149-1.139 1.527-1.023.347.025.57.099.875.19l.033.009-.082.553c-.248-.124-.52-.223-.751-.24-.438-.04-.743.165-.776.545-.033.421.322.61.668.793.487.255.983.52.908 1.361-.066.727-.693 1.173-1.552 1.098a3.7 3.7 0 0 1-1.056-.24l.09-.585.026.009c.239.124.487.256.825.28.388.033.8-.132.842-.586m-1.824-2.187c-.091.999.553 1.329 1.015 1.576.371.198.578.322.561.587-.033.297-.33.387-.57.363-.288-.025-.511-.132-.734-.256l-.33-.165-.025.173-.157.958.1.04c.222.083.685.24 1.221.281.99.083 1.742-.462 1.816-1.329.091-.998-.553-1.345-1.032-1.593-.363-.198-.561-.313-.544-.553.032-.313.33-.338.511-.322.24.017.562.133.8.281l.166.1.165-1.115-.24-.074c-.313-.091-.552-.174-.924-.198-1.618-.133-1.783 1.106-1.8 1.246"/><path fill="#fff" d="M37.829 7.453l-.957-.14.123-.793 2.972.413-.124.792-.966-.132-.57 3.607-1.04-.14"/><path fill="#b89c5c" d="M37.103 6.661c.206.033 2.501.347 2.716.38l-.083.544-.966-.132s-.528 3.385-.561 3.607l-.8-.107c.04-.24.569-3.607.569-3.607l-.966-.14zm-.371.76l.965.131c-.041.24-.578 3.607-.578 3.607l1.288.182s.537-3.384.578-3.607l.966.14.165-1.048-3.228-.446"/><path fill="#fff" d="M40.953 7.115l1.032.206-.8 3.566 1.452.29-.182.775-2.484-.487"/><path fill="#b89c5c" d="M41.053 7.255l.784.157c-.05.24-.8 3.566-.8 3.566s1.238.247 1.444.297l-.116.536-2.237-.445c.05-.232.875-3.888.925-4.111m-1.23 4.309l2.732.536.231-1.023-1.452-.29c.05-.23.808-3.565.808-3.565l-1.279-.256"/><path fill="#fff" d="M44.453 7.849l2.493.66-.231.743-1.51-.396-.29.95 1.445.387-.223.743-1.445-.38-.321 1.082 1.584.42-.223.752-2.567-.685"/><path fill="#b89c5c" d="M44.533 7.998c.206.05 2.039.537 2.253.594l-.156.512a166.13 166.13 0 0 0-1.51-.404l-.364 1.197s1.23.33 1.444.38l-.156.511c-.198-.05-1.437-.38-1.437-.38l-.396 1.321 1.585.42-.148.504c-.207-.049-2.114-.56-2.328-.61.066-.231 1.155-3.83 1.213-4.045m-1.527 4.218l2.807.743.297-.99s-1.379-.364-1.585-.422l.248-.842c.198.058 1.444.388 1.444.388l.297-.99s-1.238-.322-1.444-.38l.214-.718c.198.05 1.52.405 1.52.405l.288-.991-2.724-.726"/><path fill="#fff" d="M17.846 12.992l.347 2.476c.099.751.437 1.09.932 1.024.512-.066.743-.462.644-1.238l-.346-2.477.982-.132.33 2.419c.181 1.337-.404 2.063-1.535 2.22-1.09.149-1.808-.38-1.998-1.75l-.33-2.41"/><path fill="#b89c5c" d="M20.306 12.769c.025.206.314 2.311.314 2.311l.033.438c0 .949-.504 1.518-1.461 1.65-1.09.149-1.7-.387-1.874-1.65 0 0-.289-2.089-.314-2.295l.751-.107c.025.214.322 2.369.322 2.369.066.47.215.792.454.974a.77.77 0 0 0 .611.148.82.82 0 0 0 .57-.314c.132-.165.198-.404.198-.701l-.025-.355s-.297-2.154-.33-2.369zm-1.006-.09l.355 2.592c.057.404.008.71-.124.891l-.421.215-.437-.1c-.19-.14-.314-.429-.364-.825l-.363-2.592-1.197.165.347 2.526c.24 1.734 1.28 1.956 2.121 1.841 1.23-.165 1.816-.999 1.635-2.344l-.347-2.534"/><path fill="#fff" d="M21.767 16.879l-.297-4.35 1.147-.074 1.015 1.527c.29.446.578.974.81 1.453h.016a16.859 16.859 0 0 1-.198-1.825l-.09-1.263.9-.057.296 4.35-1.032.066-1.04-1.61a17.44 17.44 0 0 1-.866-1.486h-.017c.066.578.115 1.189.173 1.899l.083 1.312"/><path fill="#b89c5c" d="M24.969 12.406c.008.215.264 3.912.28 4.127l-.85.058-1.007-1.56c-.272-.42-.61-.966-.858-1.47l-.24.067.174 1.89s.058.883.083 1.197l-.677.05c-.017-.215-.264-3.913-.28-4.128l.965-.066.974 1.478c.264.404.553.908.809 1.436l.223-.074a19 19 0 0 1-.198-1.808s-.058-.842-.075-1.147zm-.924-.165l.09 1.379c.033.462.075.85.116 1.205a12 12 0 0 0-.52-.9l-1.056-1.593-1.33.1.314 4.58 1.131-.083-.099-1.428-.124-1.403c.206.38.438.751.627 1.057l1.082 1.675 1.213-.082-.313-4.581"/><path fill="#fff" d="M27.066 12.249l.1 4.358-.991.025-.1-4.367"/><path fill="#b89c5c" d="M26.95 12.365c0 .215.09 3.92.09 4.135l-.75.017c0-.214-.091-3.92-.1-4.135zm-.99-.206l.107 4.589 1.213-.025-.107-4.59"/><path fill="#fff" d="M28.882 13.066l-1.18-.017.017-.825 3.35.05-.016.824-1.189-.016-.057 3.532-.983-.017"/><path fill="#b89c5c" d="M27.825 12.34c.215 0 2.922.041 3.128.05l-.017.594-1.188-.017s-.05 3.318-.05 3.533l-.75-.01c0-.214.049-3.532.049-3.532l-1.18-.017.008-.603m-.24.826l1.18.017c-.008.214-.057 3.532-.057 3.532l1.213.025s.05-3.326.05-3.54l1.197.024.017-1.065-3.583-.05"/><path fill="#fff" d="M34.098 14.999l-1.601-.107-.074 1.031 1.79.116-.057.809-2.765-.19.297-4.35 2.674.182-.049.809-1.7-.116-.066.908 1.601.107"/><path fill="#b89c5c" d="M31.796 12.431c.198.017 2.245.149 2.443.165l-.033.578c-.206-.01-1.7-.116-1.7-.116l-.075 1.14s1.395.09 1.602.107l-.041.57c-.198-.018-1.602-.108-1.602-.108l-.082 1.263s1.584.107 1.783.115l-.033.578c-.207-.009-2.345-.157-2.543-.173.009-.207.264-3.904.28-4.119m-.527 4.334l2.996.206.074-1.032s-1.584-.116-1.79-.124l.057-.809c.198.017 1.601.108 1.601.108l.066-1.024s-1.403-.099-1.601-.115l.05-.67c.197.018 1.691.117 1.691.117l.075-1.04-2.906-.198"/><path fill="#fff" d="M35.84 16.289l.338.066c.892.124 1.536-.289 1.676-1.32.124-.934-.347-1.445-1.189-1.56a2.4 2.4 0 0 0-.454-.018zm-.504-3.657c.364-.017.842.017 1.33.083.825.107 1.345.314 1.716.685.405.396.611.974.512 1.742-.116.825-.495 1.353-.95 1.65-.503.322-1.23.405-2.08.29a10 10 0 0 1-1.097-.207"/><path fill="#b89c5c" d="M36.649 12.835c.809.107 1.296.297 1.65.652.413.396.57.958.48 1.643-.124.9-.553 1.353-.9 1.568-.462.297-1.147.396-1.998.28a9 9 0 0 1-.99-.19c.033-.19.52-3.854.545-4.035.338-.01.759.016 1.213.082m-1.32-.313l-.092.009-.602 4.432.099.025c.314.09.702.165 1.123.214.891.124 1.634.017 2.146-.297.388-.256.866-.76.998-1.741.108-.76-.082-1.395-.544-1.841-.38-.388-.917-.603-1.783-.718a8 8 0 0 0-1.346-.083"/><path fill="#b89c5c" d="M36.319 13.579l.33.017c.727.099 1.106.503 1.106 1.164l-.017.264c-.057.462-.23.8-.503 1.007-.264.206-.611.272-1.04.214l-.231-.04zm-.215-.132l-.396 2.939.454.083c.487.065.9-.017 1.213-.248q.483-.372.595-1.164c.123-.957-.33-1.56-1.288-1.692l-.578-.025"/><path fill="#fff" d="M15.535 60.519a53 53 0 0 1 2.501-.479l.025 6.694c.008.867-.28 1.61-.867 2.254-.586.644-1.354 1.073-2.286 1.296q-1.016.248-1.808-.025-.806-.27-1.238-1.172a65 65 0 0 1 1.741-1.626v.025l.174.28.396.454.512.124c.272-.066.487-.215.652-.437.165-.223.24-.496.24-.81-.026-2.187-.034-4.39-.042-6.578"/><path fill="#b89c5c" d="M17.887 60.229l.017 6.53a3 3 0 0 1-.826 2.12c-.56.62-1.279 1.024-2.203 1.255-.66.157-1.222.149-1.726-.025-.462-.165-.817-.487-1.089-.99.149-.14 1.271-1.189 1.502-1.412l.083.132c.107.198.256.372.43.504.197.157.42.214.651.148.306-.074.561-.239.735-.495a1.46 1.46 0 0 0 .272-.883s-.033-6.215-.033-6.471c.207-.033 1.89-.355 2.188-.413m.123-.338l-2.509.47-.124.157.042 6.587c0 .272-.075.511-.215.71a.87.87 0 0 1-.553.371l-.38-.09-.363-.414c-.173-.297-.198-.338-.289-.346l-.124.009-1.741 1.626-.033.181c.305.636.75 1.057 1.32 1.255.554.19 1.19.198 1.899.025.982-.24 1.775-.685 2.369-1.337a3.43 3.43 0 0 0 .916-2.361l-.033-6.694-.05-.116z"/><path fill="#fff" d="M19.72 59.789a61 61 0 0 1 6.735-.528v1.849a69 69 0 0 0-4.16.247v1.907a58 58 0 0 1 4.16-.24v1.825a57 57 0 0 0-4.152.247c0 .653 0 1.305.009 1.957a63 63 0 0 1 4.143-.256v1.857c-2.253.058-4.49.248-6.702.57-.025-3.137-.033-6.282-.033-9.435"/><path fill="#b89c5c" d="M26.298 59.409v1.544c-1.345.04-2.69.115-4.02.239l-.14.157v1.915l.05.115.123.042a58 58 0 0 1 3.987-.248v1.519c-1.345.033-2.69.115-4.012.24l-.14.156v1.956l.058.116.115.04a58 58 0 0 1 3.979-.247v1.544a59 59 0 0 0-6.389.545c0-.33-.033-8.849-.033-9.113a59 59 0 0 1 6.422-.52m.149-.322c-2.262.058-4.54.24-6.752.545l-.14.157.04 9.434.058.116.124.033a58 58 0 0 1 6.678-.57l.157-.157v-1.857l-.05-.107-.116-.05a58 58 0 0 0-3.978.24c-.008-.256-.008-1.412-.008-1.634a58 58 0 0 1 3.995-.24l.156-.157v-1.824l-.05-.115-.115-.05a71 71 0 0 0-3.995.24v-1.593a59 59 0 0 1 4.004-.232l.156-.165v-1.849l-.049-.115z"/><path fill="#fff" d="M28.015 59.229c2.7.009 5.407.182 8.064.545-.008.668-.008 1.337-.008 2.006-.9-.124-1.808-.223-2.724-.306q-.002 3.702-.017 7.404a68 68 0 0 0-2.592-.181c.009-2.468.009-4.936.017-7.404a61 61 0 0 0-2.74-.058"/><path fill="#b89c5c" d="M28.172 59.399a62.1 62.1 0 0 1 7.75.52c0 .223-.008 1.42-.008 1.692a63 63 0 0 0-2.55-.289l-.116.041-.05.116s-.032 6.917-.032 7.239c-.28-.017-2.022-.14-2.27-.157l.017-7.255-.149-.157a68 68 0 0 0-2.592-.066zm-.157-.322l-.115.05-.042.107v2.006l.157.156c.859 0 1.725.025 2.584.058l-.017 7.248.148.156 2.576.182.124-.033.049-.116s.025-6.9.025-7.238a81 81 0 0 1 2.55.288l.124-.032.05-.124v-2.006l-.133-.157a62.5 62.5 0 0 0-8.08-.545"/><path fill="#fff" d="M43.783 62.239c-.503.322-1.015.652-1.519.99-.8-.602-1.387-.924-1.741-1.006-.273-.058-.512-.025-.71.107a.59.59 0 0 0-.306.545c0 .47.52.965 1.536 1.543.75.446 1.312.834 1.692 1.148.371.313.685.701.932 1.155.248.462.364.916.364 1.362-.017.817-.413 1.403-1.197 1.783-.784.388-1.717.446-2.807.198-1.188-.264-2.377-.941-3.557-2.047.561-.43 1.114-.858 1.675-1.28.735.752 1.428 1.206 2.056 1.346.305.066.586.025.858-.132q.42-.225.421-.586c.008-.495-.619-1.098-1.89-1.734-.726-.371-1.255-.668-1.56-.908a3.1 3.1 0 0 1-.776-.957q-.322-.594-.322-1.164c.009-.834.347-1.47 1.032-1.874s1.568-.511 2.65-.272a5.93 5.93 0 0 1 3.17 1.783"/><path fill="#b89c5c" d="M41.143 68.089c.322-.182.495-.421.495-.726.008-.586-.66-1.214-1.98-1.874-.768-.388-1.247-.669-1.528-.892-.297-.23-.536-.536-.743-.907-.19-.372-.297-.735-.289-1.09 0-.776.322-1.362.95-1.742.652-.388 1.51-.47 2.534-.256a5.807 5.807 0 0 1 2.946 1.618c-.247.157-1.122.727-1.262.817q-1.127-.841-1.709-.965-.473-.111-.834.123a.78.78 0 0 0-.371.677c0 .52.512 1.057 1.618 1.684.693.405 1.27.8 1.659 1.131.363.297.66.669.9 1.114.239.43.346.859.338 1.271-.008.76-.363 1.296-1.106 1.66s-1.626.42-2.691.181c-1.114-.248-2.237-.891-3.351-1.89.24-.182 1.254-.958 1.42-1.081.726.718 1.395 1.147 2.03 1.296.338.074.66.024.974-.149m-3.26-7.495c-.727.43-1.098 1.114-1.106 2.006q.002.606.338 1.238c.223.405.495.743.817.999.306.24.793.528 1.593.933 1.147.577 1.8 1.155 1.8 1.593-.008.181-.108.33-.339.454a1.02 1.02 0 0 1-.743.115c-.602-.14-1.271-.578-1.99-1.304l-.197-.017-1.684 1.288-.058.107.05.124c1.197 1.114 2.418 1.816 3.632 2.088 1.139.256 2.096.19 2.905-.206.834-.413 1.271-1.056 1.28-1.931a2.9 2.9 0 0 0-.372-1.428 4.4 4.4 0 0 0-.974-1.214c-.404-.338-.999-.734-1.709-1.155q-1.46-.83-1.46-1.412l.23-.413a.76.76 0 0 1 .595-.09c.24.057.734.272 1.675.982l.182.009 1.519-.99.074-.108-.041-.132a6.17 6.17 0 0 0-3.252-1.833c-1.106-.239-2.04-.14-2.765.298m11.94 15.044h1.634v.305h-.644v1.709h-.354v-1.709h-.636m1.87-.305h.495l.553 1.577h.008l.545-1.577h.487v2.014h-.338v-1.552l-.562 1.552h-.288l-.562-1.552v1.552h-.338"/></svg>