<svg xmlns="http://www.w3.org/2000/svg" version="1" viewBox="0 0 331.44 395.93"><path fill="#A8A9AC" d="M.358 143.421C4.248 63.391 18.104 35.43 18.104 35.43S92.46.156 165.722 0C238.984.156 313.34 35.43 313.34 35.43s13.856 27.961 17.746 107.991c4.048 83.335-26.606 136.315-73.923 182.738-44.435 43.605-86.491 67.08-91.441 69.774-4.95-2.694-47.006-26.169-91.441-69.774C26.964 279.736-3.69 226.756.358 143.421"/><path fill="#FFF" d="M296.087 39.256a480 480 0 0 0-13.407-5.078s13.913 43.754 18.1 92.777L165.77 237.339l-.048-.039-.048.039-135.01-110.384c4.187-49.023 18.1-92.777 18.1-92.777a481 481 0 0 0-13.406 5.078c-1.36 4.121-16.641 52.151-16.641 129.124 0 71.795 47.592 135.644 57.943 148.682a294 294 0 0 0 3.718 3.451c55.971 50.98 80.627 62.125 85.345 63.952 4.717-1.827 29.374-12.971 85.345-63.952a280 280 0 0 0 3.717-3.451c10.351-13.038 57.943-76.886 57.943-148.682 0-76.973-15.281-125.004-16.641-129.124M165.722 384.275c-77.883-44.61-114.57-115.786-128.765-173.709l128.765 109.196 128.765-109.196c-14.195 57.923-50.881 129.099-128.765 173.709"/><path fill="#032E5E" d="M275.576 36.488l-1.755-5.524c-26.93-9.471-67.684-20.864-108.099-20.96-40.415.096-81.169 11.489-108.099 20.96l-1.754 5.524c-1.57 5.067-13.045 43.12-17.313 86.265l127.167 103.971L292.89 122.753c-4.269-43.145-15.744-81.198-17.314-86.265M165.722 330.577L51.298 233.542a282 282 0 0 0 12.764 31.09c25.903 53.73 60.104 93.198 101.66 117.375 41.557-24.177 75.757-63.645 101.66-117.375a282 282 0 0 0 12.764-31.09z"/><path fill="#A8A9AC" d="M264.757 80.846l-4.503 19.66-8.023-20.497-11.791 1.37-1.122-.458c-1.969-.803-3.022-1.023-4.9-1.023-1.266 0-3.109.225-4.489.858-.882.429-1.788 1.051-2.672 1.739a15 15 0 0 0-.66-1.177l-1.202-1.894-14.344 3.813 1.407 3.259c.259.599 1.01 2.626 1.439 6.721-.94-2.461-2.284-4.612-4.089-6.583-3.921-4.366-9.079-6.591-15.31-6.591-5.422 0-10.163 1.892-13.712 5.47a19.3 19.3 0 0 0-3.219 4.35l3.517-9.17h-10.205c.081-2.652.258-5.337.527-7.792l.477-4.359-16.206 4.023-.295 2.035c-.303 2.086-.403 4.023-.452 6.245h-3.766l-.032 2.079a16 16 0 0 0-2.026-1.228l-.097-.049c-2.659-1.268-5.709-1.967-8.589-1.967-3.772 0-8.04 1.248-11.137 3.256-3.738 2.442-6.513 6.061-8.175 10.548l.708-14.12-.914.14a9.3 9.3 0 0 0 2.363-5.768c.118-2.5-.738-4.84-2.41-6.592-1.629-1.708-3.845-2.648-6.239-2.648-2.894 0-5.55 1.372-7.323 3.488l.261-.609-17.396.115L78.68 94.32l-.08.193-6.206-27.035H54.903l14.055 56.97h14.147l22.026-51.422c-.013.125-.035.248-.042.375-.148 2.466.683 4.79 2.339 6.549a8.7 8.7 0 0 0 1.664 1.364l-3.411.522-2.532 42.25h16.423l.633-12.636c.862 3.213 2.335 5.952 4.395 8.107 3.375 3.529 8.226 5.396 14.029 5.396 4.164 0 7.797-.882 11.11-2.695 1.704-.978 2.608-1.663 4.263-3.219l1.461-1.374c1.6 4.405 6.818 7.288 13.338 7.288 3.13 0 6.224-.615 9.459-1.879l2.461-.962-.957-4.154c3.677 4.386 9.131 6.925 15.713 6.925 6.398 0 11.318-2.019 15.04-6.171 2.091-2.37 3.498-4.98 4.293-8.035l.638 13.41h16.427l-1.621-28.188c1.129-1.032 2.075-1.236 2.796-1.236.597 0 .967.094 1.586.403l3.406 1.702 1.506-5.987 8.875 20.974.061.132 1.262 3.025 1.219 2.938.928 2.04 1.855 4.121c-.513.82-1.064 1.463-1.695 1.936-.947.639-2.886 1.383-5.218 2l-4.043 1.068 7.337 11.56 1.921-.238c4.199-.519 7.927-1.895 10.782-3.979 3.405-2.485 5.389-6.127 7.579-13.917l11.19-41.593h-16.844zm-116.904 25.699l-3.053 2.542c-2.504 2.058-3.991 2.337-5.113 2.337-.817 0-1.659-.374-2.095-.931-.57-.696-1.166-2.49-1.007-7.382.332-9.534 2.79-9.534 3.839-9.534.782 0 2.213.55 3.885 2.093l2.453 2.264 4.222-5.456-.013.806h3.808l-.188 17.39q-.008.7-.008 1.287c0 1.614.056 2.651.257 3.639zm28.158 4.635l-1.026.286c-1.707.476-2.343.614-2.835.614-.627 0-.943-.051-1.103-.088-.091-.26-.248-.959-.248-2.773l.014-15.934h5.253c-.972 2.816-1.472 5.961-1.444 9.314.026 3.121.511 5.998 1.389 8.581m22.449-8.877c.207 6.311-.788 8.312-1.399 8.944-.147.152-.455.47-1.458.47-.905 0-2.081-.455-2.479-1.297-.308-.672-1.07-2.876-1.176-8.125-.065-3.157.178-5.539.741-7.283.246-.741.824-1.652 2.138-1.652.84 0 1.571.305 2.006.835.441.532 1.454 2.349 1.627 8.108"/><path fill="#FFF" d="M81.243 95.417l-1.047 2.536-1.601 3.936-.469 1.342-.402 1.219-.132-.895-.177-1.099-1.155-5.667-6.088-26.524h-11.71l12.679 51.394h10.124l22.044-51.467L92 70.267zm33.37-28.131c-3.503 0-6.528 2.82-6.741 6.287-.102 1.686.462 3.272 1.586 4.465 1.123 1.192 2.667 1.849 4.348 1.849 3.51 0 6.502-2.819 6.671-6.284.081-1.728-.502-3.336-1.643-4.532-1.098-1.152-2.597-1.785-4.221-1.785m-8.504 54.01h10.811l1.937-38.657-10.528 1.611zm40.474-10.066c-2.509 2.062-4.637 2.982-6.897 2.982-1.679 0-3.323-.766-4.29-1.999-1.264-1.54-1.756-4.374-1.6-9.192.294-8.459 2.338-12.233 6.626-12.233 1.746 0 3.797 1.006 5.776 2.833l.218.202 5.292-6.839-.196-.168c-1.58-1.355-2.261-1.897-3.698-2.646-2.267-1.082-4.96-1.7-7.397-1.7-3.214 0-6.99 1.102-9.621 2.807-5.235 3.419-8.313 9.608-8.669 17.426-.287 6.395 1.265 11.556 4.487 14.927 2.877 3.009 6.918 4.534 12.014 4.534 3.734 0 6.839-.748 9.771-2.353 1.369-.786 2.093-1.3 3.692-2.804l.18-.169-4.858-6.298zm29.151 2.922c-1.81.505-2.708.716-3.584.716-1.57 0-2.493-.252-3.084-.844-.749-.75-1.055-2.143-1.055-4.804l.016-18.724h6.31l2.69-7.014h-8.984c.01-3.611.216-7.462.59-10.883l.042-.387-10.509 2.609-.026.181c-.395 2.717-.429 5.113-.465 8.632h-3.765l-.106 6.862h3.794l-.219 20.208q-.009.708-.009 1.276c0 2.438.128 3.158.648 4.565 1.147 3.358 5.482 5.618 10.784 5.618 2.815 0 5.498-.536 8.444-1.688l.219-.085-1.455-6.315zm32.016-25.634c-3.436-3.825-7.771-5.686-13.254-5.686-4.662 0-8.719 1.606-11.733 4.645-3.503 3.533-5.405 8.896-5.354 15.099.099 11.856 7.191 19.517 18.067 19.517 5.637 0 9.757-1.667 12.963-5.244 3.277-3.714 4.615-8.21 4.339-14.58-.254-6.07-1.758-10.182-5.028-13.751m-12.147 25.987c-1.809 0-4.057-.895-5-2.896-.858-1.873-1.357-5.075-1.442-9.258-.071-3.472.215-6.152.875-8.196.745-2.243 2.536-3.583 4.792-3.583 1.679 0 3.197.677 4.163 1.856 1.352 1.626 2.111 4.919 2.258 9.79.188 5.75-.506 9.234-2.184 10.967-.859.889-1.992 1.32-3.462 1.32m38.814-31.819c-1.202 0-2.538.243-3.327.604-1.702.828-3.73 2.594-5.066 4.335-.302-1.815-.864-3.368-1.782-4.813l-.106-.168-9.244 2.457.125.29c.988 2.287 1.679 6.225 1.896 10.802l1.194 25.104h10.815l-1.521-26.466c1.674-1.983 3.521-2.958 5.65-2.958 1.033 0 1.828.195 2.832.698l.303.151 2.297-9.13-.219-.089c-1.627-.665-2.346-.817-3.847-.817m32.562.948l-4.091 17.86-.338 1.566-.705 3.608c-.188 1.184-.413 3.347-.548 4.721-.596-1.731-1.704-4.925-2.329-6.52l-8.55-21.843-10.599 1.231 11.174 26.409c.081.157.716 1.692 1.331 3.177l1.216 2.929.887 1.947 1.159 2.573.177.003h2.221c-.625 1.842-.913 2.552-1.709 3.951-.779 1.295-1.604 2.241-2.597 2.972-1.638 1.13-4.543 2.003-6.129 2.421l-.359.095 4.35 6.853.171-.021c3.675-.454 7.042-1.685 9.479-3.464 2.83-2.065 4.541-5.315 6.539-12.419l10.237-38.049zM91.233 37.402h5.251l.325 8.578c.065 1.23.082 1.723.033 2.612.444-.889.861-1.674 1.458-2.682l4.963-8.507h5.305l-2.027 17.128h-4.281l1.415-9.146c.173-1.079.266-1.821.488-2.726a30 30 0 0 1-1.36 2.504l-5.717 9.369h-3.815l-.499-8.995c-.032-.84.021-2.986.021-2.986-.292 1.014-.634 1.978-1.024 3.035l-3.338 8.946h-4.368zm22.239 0h11.477l-.991 2.812h-6.975l-.775 3.967h5.929l-.483 2.807h-5.933l-.894 4.59h8.063l-.483 2.953h-12.55zm14.669 0h4.145l-1.929 14.273h7.635l-1.078 2.856H125.54zm13.828-.022h6.812c2.465 0 3.723.32 4.898 1.23 1.1.84 1.583 1.826 1.528 3.056-.043 1.16-.59 2.141-1.522 2.888-.612.466-.981.634-1.956.883 2.758.694 4.053 2.064 3.966 4.308-.092 2.368-2.038 4.536-5.82 4.741-.688.017-1.587.043-2.763.043h-6.785zm3.766 2.932l-.314 3.939h2.471c.986 0 1.436-.049 1.804-.222.58-.244 1.133-1.079 1.171-1.772a1.79 1.79 0 0 0-1.068-1.723c-.347-.125-.78-.222-1.69-.222zm-.482 6.779l-.368 4.633h2.796c.883 0 1.506-.13 2.01-.396a2.59 2.59 0 0 0 1.219-2c.06-.98-.531-1.826-1.419-2.097-.504-.119-.645-.141-1.615-.141zm21.323-9.905c5.359 0 8.789 3.321 8.996 8.691.152 3.869-1.425 6.757-4.481 8.139-1.29.563-2.498.786-4.297.786-3.257 0-5.354-.715-6.953-2.412-1.588-1.68-2.341-3.847-2.265-6.361.124-3.696 1.913-6.654 4.817-8.015 1.197-.536 2.682-.828 4.183-.828m-.048 2.654c-1.377 0-2.607.596-3.176 1.506-.721 1.111-1.062 2.612-1.095 4.682-.043 2.958.58 4.785 1.827 5.549.672.39 1.533.59 2.552.59 2.975 0 4.199-1.826 4.113-6.188-.038-1.755-.239-3.007-.607-3.967-.342-.86-1.447-2.172-3.614-2.172m11.205-2.438h4.151l.742 11.26c.082 1.284.157 1.577.494 2.048.542.764 1.587 1.182 2.996 1.182 1.875 0 3.002-.737 3.073-1.994.027-.369.005-.618-.076-1.534l-.998-10.962h4.119l1.241 11.537c.168 1.625.174 1.945-.054 2.682-.407 1.354-2.33 3.229-6.979 3.229-3.295 0-5.728-.786-7.039-2.298-.759-.877-1.008-1.566-1.083-3.224zm17.861-.022l7.51.022c3.571 0 6.27 2.021 6.801 5.028.444 2.563-1.263 4.682-3.848 4.731.466.271.672.422.987.715 1.414 1.23 6.242 6.654 6.242 6.654h-5.115a93 93 0 0 1-2.438-2.807c-2.563-3.083-3.349-3.896-4.113-4.194-.222-.076-.352-.125-.683-.146l.976 7.147h-4.248zm4.384 2.786l.602 4.633h1.403c1.794 0 2.547-.152 3.051-.574.444-.385.64-1.003.531-1.718-.168-1.062-.78-1.777-1.799-2.097-.493-.152-1.354-.244-2.352-.244zm12.409-2.764h4.492l5.381 6.849c1.452 1.826 2.677 3.625 3.381 4.855a77 77 0 0 1-1.415-4.709l-1.696-6.995h3.858l4.195 17.128h-4.525l-5.094-6.551c-1.593-2.151-3.375-4.563-3.982-5.625.433 1.403.877 3.425 1.198 4.855l1.614 7.321h-4.183zm17.968 0h11.488l.331 2.812h-6.98l1.105 3.967h5.924l.845 2.807h-5.934l1.279 4.59h8.058l.91 2.953h-12.555zm-15.771 93.225h8.53l-.364 1.999h-4.996v2.807h4.005v2.011h-4.005v5.43h-3.17zm7.895 9.423c1.111 0 2.016.688 2.016 1.533 0 .867-.905 1.577-1.994 1.577-1.111 0-1.994-.71-1.994-1.577 0-.845.883-1.533 1.972-1.533m13.672-8.751l-1.431 1.674a4.9 4.9 0 0 0-2.509-.688c-1.062 0-2.103.406-2.671 1.062-.612.705-.883 1.729-.883 3.159 0 1.685.184 2.623.661 3.294.628.905 1.669 1.376 3.029 1.376a4.8 4.8 0 0 0 2.693-.797l1.452 1.561c-1.251.791-2.584 1.149-4.373 1.149-2.173 0-3.847-.547-5.131-1.696-1.274-1.116-1.913-2.601-1.913-4.406 0-1.539.347-2.752 1.073-3.82 1.219-1.783 3.484-2.845 6.015-2.845 1.566.001 3.121.386 3.988.977m3.311 8.751c1.111 0 2.016.688 2.016 1.533 0 .867-.905 1.577-1.988 1.577-1.111 0-1.994-.71-1.994-1.577-.001-.845.882-1.533 1.966-1.533"/><path fill="none" d="M165.722 10.004V0"/><path fill="#032E5E" d="M24.493 43.733S7.83 94.94 7.83 165.689c0 70.754 39.264 125.817 70.802 153.221 0 0-59.916-70.343-59.916-150.66S35.454 39.217 35.454 39.217zm282.459 0s16.663 51.207 16.663 121.956c0 70.754-39.264 125.817-70.802 153.221 0 0 59.916-70.343 59.916-150.66S295.991 39.217 295.991 39.217z"/></svg>