<svg xmlns="http://www.w3.org/2000/svg" viewBox="0.5 0.5 199 199"><clipPath id="a"><path d="M307.021 482.429h84.728v84.727h-84.728z"/></clipPath><g clip-path="url(#a)" transform="matrix(2.34872 0 0 -2.34872 -720.606 1332.589)"><path fill="#7ab2e1" d="M308.495 524.792c0 22.583 18.307 40.89 40.89 40.89s40.89-18.307 40.89-40.89-18.307-40.889-40.89-40.889-40.89 18.306-40.89 40.89"/><path fill="#002a5a" d="M349.385 564.207c-21.734 0-39.416-17.682-39.416-39.415 0-21.734 17.682-39.415 39.416-39.415s39.415 17.681 39.415 39.415-17.682 39.415-39.415 39.415m0-81.778c-23.36 0-42.364 19.004-42.364 42.363s19.004 42.363 42.364 42.363 42.363-19.004 42.363-42.363-19.004-42.363-42.363-42.363"/><path fill="#fff" fill-rule="evenodd" d="M321.215 524.792c0 15.558 12.613 28.17 28.17 28.17s28.17-12.612 28.17-28.17c0-15.557-12.613-28.169-28.17-28.169s-28.17 12.612-28.17 28.17"/><path fill="#e31934" d="M376.982 527.837h-24.17v24.431h-6.754v-24.43h-24.05v-6.755h24.05V497.65h6.754v23.433h24.17z"/><path fill="#e31934" d="M376.614 528.762h-22.796v23.265h.724v-22.542h22.072zm-31.562 0h-22.473v.723h21.75v22.542h.723zm9.49-31.132h-.723v22.528h22.915v-.723h-22.193zm-9.49 0h-.723v21.805h-21.992v.723h22.715z"/><path fill="#fff" d="M360.253 524.37c0-1.281.975-2.294 2.288-2.294.86 0 1.37.306 1.829.797l-.625.63c-.35-.318-.663-.522-1.173-.522-.764 0-1.293.637-1.293 1.402v.012c0 .765.54 1.389 1.293 1.389.447 0 .797-.191 1.14-.503l.625.72c-.414.408-.917.688-1.758.688-1.37 0-2.326-1.038-2.326-2.306zm-3.983 2.243h3.396v-.892h-2.415v-.949h2.129v-.893h-2.13v-1.727h-.98zm-17.708-2.243c0-1.281.975-2.294 2.287-2.294.86 0 1.37.306 1.829.797l-.624.63c-.351-.318-.663-.522-1.173-.522-.764 0-1.293.637-1.293 1.402v.012c0 .765.54 1.389 1.293 1.389.446 0 .797-.191 1.14-.503l.625.72c-.414.408-.917.688-1.76.688-1.368 0-2.324-1.038-2.324-2.306zm-5.335 2.243h1.059l1.172-1.886 1.173 1.886h1.057v-4.461h-.975v2.913l-1.255-1.906h-.025l-1.243 1.887v-2.894h-.963z"/><path fill="#002a5a" d="M349.385 552.509c-15.283 0-27.716-12.434-27.716-27.716s12.433-27.717 27.716-27.717S377.1 509.51 377.1 524.793s-12.433 27.716-27.716 27.716m0-56.557c-15.902 0-28.84 12.938-28.84 28.84s12.938 28.84 28.84 28.84 28.839-12.937 28.839-28.84-12.937-28.84-28.84-28.84"/><path fill="#fff" d="M349.41 551.689c-14.824 0-26.883-12.06-26.883-26.883s12.059-26.883 26.883-26.883 26.882 12.06 26.882 26.883c0 14.824-12.06 26.883-26.882 26.883m0-54.631c-15.3 0-27.75 12.447-27.75 27.748 0 15.3 12.45 27.749 27.75 27.749s27.749-12.45 27.749-27.75-12.45-27.747-27.75-27.747"/><path fill="#fdca50" d="M349.384 553.635c-15.904 0-28.842-12.94-28.842-28.843s12.938-28.842 28.842-28.842 28.842 12.938 28.842 28.842-12.938 28.843-28.842 28.843m0-58.6c-16.408 0-29.756 13.349-29.756 29.757s13.348 29.757 29.756 29.757 29.757-13.35 29.757-29.757-13.349-29.757-29.757-29.757"/><path fill="#002a5a" d="M349.385 563.78c-21.498 0-38.987-17.49-38.987-38.987 0-21.5 17.489-38.988 38.987-38.988s38.987 17.489 38.987 38.988c0 21.497-17.49 38.987-38.987 38.987m0-78.525c-21.801 0-39.537 17.737-39.537 39.538s17.736 39.537 39.537 39.537 39.536-17.736 39.536-39.537-17.735-39.538-39.536-39.538"/><path fill="#002a5a" d="M349.384 554.497c-16.379 0-29.705-13.326-29.705-29.706s13.326-29.704 29.705-29.704 29.705 13.325 29.705 29.704-13.326 29.706-29.705 29.706m0-59.959c-16.682 0-30.254 13.572-30.254 30.253 0 16.683 13.572 30.255 30.254 30.255s30.254-13.572 30.254-30.255c0-16.68-13.572-30.253-30.254-30.253"/><path fill="#fdca50" d="M349.385 564.324c-21.798 0-39.532-17.734-39.532-39.532s17.734-39.532 39.532-39.532 39.532 17.734 39.532 39.532-17.734 39.532-39.532 39.532m0-79.984c-22.305 0-40.452 18.147-40.452 40.452s18.147 40.452 40.452 40.452 40.45-18.147 40.45-40.452-18.145-40.452-40.45-40.452"/><path fill="#fdca50" d="M367.466 538.127c.128-.348-.018-.66-.11-1.025a2 2 0 0 0-.403-.768c-.127-.164-.521-.395-.896-.495-.395-.107-.311.238-.311.238s.02.146.045.273c.028.136.069.286-.091.421-.12.1-.277.143-.375.185-.274.117-.475.273-.524.59-.024.154.024.375.12.61.063.146.048.466.014.609-.083.347-.226.5-.464.684s-.841.512-.841.512.433.149 1.96.012c.704-.063 1.684-.22 1.684-.22s.146-.12.255-.577c.026-.104.339-.282.412-.52.074-.237-.603-.182-.475-.53m-7.345-3.418c-.014.05-.145.32-.145.32s-.023.247-.335.474c-.176.128-.516.745-.63.845-.113.098-.267.268-.267.268s.105-.039.222.007c.21.418.368.747.432.83.04-.398-.137-.786.097-1.066.309-.37.399-.539.473-.836s.209-.417.153-.842m-1.666 4.254c-.09-.3-.2-.48-.2-.48s.077.275.08.484c.005.2.046.253.046.253s.195.028.258.053c.1.04.135.098.15.137.018.04.047.154-.024.203-.026.018-.085.07-.184.078-.116.011-.276-.098-.276-.098.033.177.243.23.3.23.06 0 .602-.007.602-.072 0-.125-.235-.539-.402-.637s-.286.067-.35-.15m-.85.017c-.15.07-.22.045-.268.029a.34.34 0 0 1-.133-.104c-.013-.017.089-.081.154-.087a.3.3 0 0 1 .129.024c.032.01.056-.01.056-.01-.002-.012.013-.033-.1-.085-.06-.028-.18-.108-.3-.04-.032.02-.275-.105-.333-.14-.222-.137-.496-.403-.564-.512l.002.005a1 1 0 0 1-.143-.25c-.015-.062.21-.15.236-.226.088-.261-.006-.484-.278-.515-.022-.003-.071.025-.13.066.1-.002.303.084.262.213-.037.119-.317-.174-.306.055.004.068.294.089.272.133-.021.043-.057.063-.077.066-.147.02-.202-.05-.326-.027a.6.6 0 0 1-.145.015c.117.232.457.744.473.773.374.683.096.697.254.968.03.054.057.162.086.222.077.164.183.155.246.272.024.044.01.138.036.18.055.097.216.016.312.026s.156-.045.166-.091c.01-.044-.055-.065-.141-.121s-.085-.246-.085-.357-.01-.116-.066-.217c-.033-.06-.067-.092-.11-.173-.09-.244.193-.215.245-.181.05.034.094.054.14.11s.106.103.16.123.08.032.154.023c.075-.01.154-.042.178-.122.015-.055-.015-.065-.055-.045m14.669-3.396c-.097.35-.33 1.025-.375 1.272-.29 1.542-.18 2.053-.372 2.573a1.26 1.26 0 0 1-.621.648 1 1 0 0 1-.167.079c-.57.19-1.711-.147-1.944-.217-.388-.117-.408-.108-.834-.06-.74.085-1.922.264-2.722.306-.946.05-1.242.026-1.786-.042a4.9 4.9 0 0 1-1.887.314c-.042-.002.262-.262.313-.543-.045-.001-.345.34-.72.552-.45.3-1.195.625-2.688-.12-.068-.032.192-.237.12-.276l-.381.252c-.297.192-.575.333-1.007.274-.281-.038-.542.028-.624-.463a.45.45 0 0 0-.086-.171 10 10 0 0 1-.577.083c-.076 0-.162.017-.12-.17s.18-.315.256-.332a.5.5 0 0 1 .18.01l-.022-.044c-.228-.461.114-.446-.128-.97-.107-.23-.657-1.038-.626-1.07.12-.12.246-.267.447-.41.135-.094.195-.16.382-.15.116.008.239.129.406.16.093.006.25.038.3-.113.015-.046.303.125.575-.062.096-.066.2.046.297.16.16.189.273.379.35.597.01.03.06-.361-.153-.712.126-.078.269-.104.332-.186.276-.364.396-.285.642-.695.113-.19.463-.666.693-.87.177-.157.136-.391.366-.902.085-.191.195-.353.28-.43.012-.01.228-.189.66-.23-.21-.116-.606-.023-.604-.049.014-.188.02-.49.085-.707.086-.295-.074-.602-.086-1.003-.003-.078-.252-.61-.245-.64.042-.195 1.06-.096 1.047.052-.115 1.305.112 1.23.103 1.475-.092.276-.16.453-.11.968-.476.477-.117.99-.755 1.518.817-.408.603-.807.892-1.3.11-.188-.036-.35.025-.7.04-.235.152-.448.18-.568.039-.162-.08-.762-.148-1.12a5 5 0 0 1-.24-.665c.08-.212 1.084-.115 1.128.05.05.19-.098.449-.06.725.015.112-.026.713.017.833.186.533.124.745.124.807 0 .179.187.205.165.968.094.174.38.589.248 1.109.323.102.763.916.773 1.174.034-.272-.133-.968-.511-1.293.003-.37.018-.531-.153-.765 1.132.442 1.54-.366 3.046-.303.177-.044.019-.27.169-.382.426.277.54.515.775.583.8.229 1.029.57 1.204.765.064-.612-.051-.701.484-1.748-.115-1.563-.59-1.973-.73-2.382.007-.121.769-.117 1.075.068-.013.664.12 1.248.26 1.746.23.817.476.953.535 1.099.017.042-.17.155-.242.58-.02.117-.01.24-.014.376-.117-.08-.303-.063-.452.05-.176.137-.225.517-.553.47h-.002l-.093-.03q.08.053.16.1c.105.078.4.32.63.734.277.495.409 1.25.409 1.25s.047-.712-.281-1.48a9 9 0 0 0-.172-.39.72.72 0 0 0 .47-.35c.17-.314.06-.364.264-.892.255-.664.638-.794.842-1.302.153-.383.113-1.257.034-1.561-.051-.195-.196-.4-.264-.672.013-.108.953-.21 1.072.05-.051.93-.063 1.39-.034 1.927.042.808.299 1.388.213 1.514-.766 1.114-.262 2.104-.18 2.514q.038.19.066.364c.036-.165.064-.312.074-.421.049-.523.11-1.403.14-1.737s.33-.56.33-.56.105.242.17.459.057.3-.04.65"/><path d="M317.57 543.817l.72 1.033 2.638-.137-1.046 2.428.72 1.033 4.356-3.032-.658-.945-2.845 1.978 1.008-2.521-.017-.024-2.687.068 2.826-1.966-.658-.946zm4.357 5.841l2.821 2.83.735-.733-2.007-2.014.763-.76 1.766 1.772.736-.733-1.766-1.772.79-.787 2.033 2.04.735-.733-2.847-2.857zm4.106 3.905l.937.697 2.54-3.412 2.122 1.58.63-.845-3.06-2.277zm8.565.471q.342.18.471.408t-.009.488l-.007.013a.5.5 0 0 1-.378.276q-.254.044-.656-.17l-1.193-.63.545-1.033zm-1.273 1.746q.342.18.48.404.14.225.002.485l-.007.013q-.123.235-.364.267c-.241.032-.349-.026-.568-.142l-1.02-.538.525-.992zm-2.96.863l2.175 1.148q.81.429 1.444.232a1.23 1.23 0 0 0 .743-.628l.007-.014q.106-.2.138-.382a1.24 1.24 0 0 0-.065-.668 1.5 1.5 0 0 0-.151-.286q.488.061.862-.08.374-.143.621-.61l.007-.015q.17-.322.174-.628a1.25 1.25 0 0 0-.143-.59 1.9 1.9 0 0 0-.428-.535 3.4 3.4 0 0 0-.677-.46l-2.229-1.177zm9.322-.569q.333.104.577.316.243.211.374.49.13.28.153.602a1.7 1.7 0 0 1-.08.646l-.004.014a1.8 1.8 0 0 1-.306.58 1.6 1.6 0 0 1-.477.407 1.6 1.6 0 0 1-.596.19 1.6 1.6 0 0 1-.655-.067 1.6 1.6 0 0 1-.58-.317 1.5 1.5 0 0 1-.37-.49 1.719 1.719 0 0 1-.074-1.247l.005-.015q.102-.324.305-.58c.203-.255.294-.304.477-.405q.275-.153.593-.192c.318-.04.431-.003.658.068m.308-1.032a2.9 2.9 0 0 0-1.142-.132q-.556.05-1.025.29c-.469.24-.584.376-.816.65a2.7 2.7 0 0 0-.518.954l-.005.014q-.17.543-.116 1.08c.054.537.135.694.3 1.008s.388.59.675.832.626.423 1.017.546.771.167 1.143.132a2.8 2.8 0 0 0 1.024-.29q.47-.24.817-.65t.518-.953l.004-.015q.171-.542.116-1.08a2.7 2.7 0 0 0-.299-1.008q-.246-.47-.676-.832c-.43-.362-.626-.423-1.017-.546m5.682 1.23q-1.062-.126-1.74.388-.682.514-.82 1.68l-.36 3.012 1.158.139.357-2.982q.077-.647.417-.938.341-.293.875-.228.535.063.798.416t.188.984l-.36 3.019 1.158.139.356-2.974a3.1 3.1 0 0 0-.037-1.066 2 2 0 0 0-.375-.796 1.9 1.9 0 0 0-.676-.532 3 3 0 0 0-.939-.261m5.76 2.986q.432-.021.673.172.24.193.257.534l.001.015q.018.378-.214.58-.233.201-.665.222l-1.159.057-.074-1.522zm-2.222 2.69l2.424-.12q1.006-.048 1.518-.612.432-.477.395-1.234v-.015q-.03-.644-.366-1.034a1.83 1.83 0 0 0-.85-.554l1.202-1.957-1.363.067-1.053 1.752h-.015l-.9.045-.085-1.696-1.166.057zm6.168-.451l1.05-.238 1.704-3.736.722 3.187 1.123-.254-1.171-5.177-.97.22-1.761 3.858-.745-3.29-1.124.254zm6.456-1.67l3.693-1.525-.396-.96-2.628 1.085-.411-.995 2.313-.955-.397-.96-2.312.955-.426-1.03 2.663-1.1-.396-.96-3.728 1.54zm6.319-9.437a2.7 2.7 0 0 0-.757.805q-.283.462-.364.974-.08.51.044 1.037.126.526.457.987l.01.013a2.77 2.77 0 0 0 1.756 1.123q.516.093 1.054-.028.54-.12 1.037-.479.302-.216.516-.445t.356-.46a2.5 2.5 0 0 0 .225-.479q.084-.248.126-.5l-1.103-.264a2.8 2.8 0 0 1-.258.726 1.6 1.6 0 0 1-.496.552 1.48 1.48 0 0 1-1.182.251q-.299-.066-.566-.242c-.267-.176-.333-.27-.466-.455l-.009-.012a1.9 1.9 0 0 1-.283-.59 1.7 1.7 0 0 1-.053-.615 1.45 1.45 0 0 1 .614-1.047q.37-.266.723-.314.353-.046.773.005l.167-1.043a4 4 0 0 0-.575-.072q-.28-.014-.566.037c-.286.051-.382.094-.576.18a3.5 3.5 0 0 0-.604.354m5.986 2.093l.858-.792-3.6-3.9-.857.791zm2.144-3.664l-1.057 1.221.815.705 2.876-3.327-.814-.704-1.056 1.222-3.2-2.768-.764.883zm1.59-5.597l1.65 3.431.722-1.158-1.139-2.202 2.49.033.701-1.126-3.787.043-1.796-1.118-.617.991zm-54.728-36.386l2.362-3.132-.672-.507-1.808 2.397-1.168-.881 1.603-2.126-.672-.507-1.603 2.126-1.726-1.3-.553.734zm1.524-8.718q.285-.269.623-.386.339-.116.682-.092c.343.024.454.077.674.182s.42.25.596.438l.01.01q.265.282.408.623.141.341.144.688.002.346-.134.685-.135.337-.419.605c-.284.268-.397.308-.623.386s-.454.109-.683.093a1.9 1.9 0 0 1-.673-.182 2 2 0 0 1-.596-.44l-.01-.01a2 2 0 0 1-.407-.621 1.8 1.8 0 0 1-.145-.69 1.8 1.8 0 0 1 .133-.683q.136-.338.42-.606m-.6-.611a2.8 2.8 0 0 0-.662.924 2.6 2.6 0 0 0-.227 1.023q-.007.518.186 1.019.192.501.58.908l.01.01q.385.41.874.63c.49.22.665.227 1.015.239a2.75 2.75 0 0 0 2.008-.777 2.8 2.8 0 0 0 .662-.924q.22-.504.227-1.023c.007-.52-.057-.686-.186-1.02a2.8 2.8 0 0 0-.579-.908l-.01-.011q-.386-.408-.875-.628c-.489-.22-.665-.227-1.016-.24a2.75 2.75 0 0 0-2.007.778m6.028-3.626a1.71 1.71 0 0 1 1.372-.224q.333.088.628.305.294.217.502.543l.008.013q.208.325.283.688.075.36.012.703a1.8 1.8 0 0 1-.26.645 1.7 1.7 0 0 1-.526.516 1.7 1.7 0 0 1-1.372.224 1.9 1.9 0 0 1-.627-.305 2 2 0 0 1-.503-.543l-.008-.013q-.208-.326-.283-.687c-.075-.36-.054-.476-.012-.703a1.76 1.76 0 0 1 .786-1.162m-.473-.714q-.516.328-.826.783a2.65 2.65 0 0 0-.424 1.998q.095.53.397 1l.009.013q.301.473.74.782c.439.31.61.348.953.427a2.8 2.8 0 0 0 1.058.03 2.8 2.8 0 0 0 1.059-.416q.515-.329.825-.783a2.7 2.7 0 0 0 .415-.96q.105-.51.01-1.037a2.8 2.8 0 0 0-.398-1.002l-.008-.013a2.8 2.8 0 0 0-.741-.782 2.7 2.7 0 0 0-.952-.426q-.514-.118-1.058-.03c-.544.087-.716.196-1.059.415m6.845 1.46l-1.543.652.336.796 3.948-1.667-.336-.796-1.543.651-1.728-4.093-.862.364zm5.332-3.211q.439-.105.744.006.304.111.388.466l.004.014a.59.59 0 0 1-.116.538q-.19.228-.629.333l-1.295.306-.325-1.372zm-.254-2.246q.461-.11.766.005.306.115.39.469l.004.014a.6.6 0 0 1-.139.575q-.217.241-.75.368l-1.428.339-.336-1.416zm-1.354 4.926l2.3-.546q.887-.21 1.232-.775a1.2 1.2 0 0 0 .142-.937l-.004-.015a1.3 1.3 0 0 0-.16-.403 1.18 1.18 0 0 0-.526-.463 2 2 0 0 0-.314-.112q.206-.135.367-.286c.161-.151.194-.211.261-.331q.1-.18.126-.396a1.1 1.1 0 0 0-.038-.482l-.003-.015a1.4 1.4 0 0 0-.28-.58 1.2 1.2 0 0 0-.49-.351 1.9 1.9 0 0 0-.665-.127 3.2 3.2 0 0 0-.799.092l-2.374.563zm7.717-4.498l-.762 2.182-1.052-2.054zm-1.097 3.323l.857-.06 1.943-5.496-.978.07-.445 1.315-2.49.175-.632-1.24-.948.066zm3.764-.171l.917.079.383-4.45 2.766.239.072-.839-3.683-.317zm4.375.452l.897.206 1-4.352 2.705.62.188-.82-3.603-.826zm10.806-2.056q-.524-.25-1.058-.272c-.534-.022-.695.038-1.018.155s-.618.296-.886.538a2.8 2.8 0 0 0-.647.875l-.007.014q-.246.51-.279 1.047-.033.534.133 1.03c.166.497.285.634.522.907s.536.497.9.672q.325.156.621.23a2.6 2.6 0 0 0 1.095.047q.256-.047.504-.128l-.238-.88a3 3 0 0 1-.812.14 1.75 1.75 0 0 1-.807-.185 1.65 1.65 0 0 1-.565-.435 1.7 1.7 0 0 1-.326-.603 1.8 1.8 0 0 1-.069-.693 2 2 0 0 1 .2-.712l.006-.013q.166-.349.432-.604.264-.257.587-.387.322-.132.675-.126.354.005.694.169.435.208.667.526c.232.318.29.462.401.75l.8-.288a3.4 3.4 0 0 0-.216-.536 3 3 0 0 0-.303-.474q-.177-.224-.425-.414a2.6 2.6 0 0 0-.58-.35m.141 6.183l.76.52 2.52-3.687 2.291 1.566.475-.695-3.052-2.086zm8.854.051a2.8 2.8 0 0 0-.778-.526q-.404-.175-.821-.162c-.417.013-.555.084-.831.225a2.9 2.9 0 0 0-.807.63l-2.09 2.23.672.628 2.063-2.202q.508-.54 1.033-.58c.525-.04.678.105.984.393q.454.425.46.94c.006.515-.162.694-.497 1.052l-2.09 2.23.672.63 2.058-2.198q.405-.432.593-.869.187-.436.178-.856a1.86 1.86 0 0 0-.215-.815 2.8 2.8 0 0 0-.584-.75m3.651 5.435q.288.376.308.702t-.268.547l-.011.009q-.271.207-.581.108c-.31-.1-.421-.244-.644-.535l-.892-1.164 1.156-.885zm-1.947 1.149q.275.359.298.68.023.325-.266.546l-.012.009a.58.58 0 0 1-.538.114q-.285-.08-.56-.437l-.809-1.057 1.12-.858zm-3.103-.373l1.438 1.877q.555.722 1.211.808.498.064.913-.254l.012-.01a1.3 1.3 0 0 0 .301-.31q.11-.165.16-.33t.05-.34c0-.174-.008-.226-.026-.332q.209.134.41.218.204.084.41.104.205.016.412-.047.207-.066.425-.231l.011-.01q.284-.216.415-.493.135-.276.121-.59a1.9 1.9 0 0 0-.156-.66 3.1 3.1 0 0 0-.41-.69l-1.484-1.938z" fill="#002a5a"/><path fill="#fdca50" d="M330.733 539.707c-.076.019-.095.1-.087.108.017.016.13.006.283-.027.023-.005-.005.086-.027.11-.065.078-.188.07-.252.056-.083-.021-.178-.102-.258-.181-.079-.08-.459-.417-.459-.417s-.013-.09.266.112c.186.135.276.21.32.238.038.025.082-.016.082-.016s.1-.122.242-.051c.083.042.063.066.048.07-.026.01-.05-.03-.158-.002m2.2.27c-.243.5-.805.93-1.497.608-.345-.162-.355-.483-.296-.622.081-.194.346-.213.428-.203.07.008.088.032.125.049a.65.65 0 0 0-.007.303c.014.078.055.156.085.149.022-.006.024-.023.014-.09a1 1 0 0 1-.004-.161c.005-.076.031-.158.097-.158l.005-.001a1 1 0 0 0 .07-.008c.043.11.097.196.207.305.07.068.167.118.192.088.017-.021.008-.04-.05-.1a1 1 0 0 1-.118-.158c-.05-.08-.074-.182-.006-.246l.008-.011a.8.8 0 0 0 .344.12c.096.013.204-.005.206-.043.003-.027-.017-.037-.099-.052a1 1 0 0 1-.19-.056c-.087-.034-.166-.102-.15-.195v-.015a.4.4 0 0 0 .013-.063.8.8 0 0 0 .328-.057c.091-.034.178-.1.162-.136-.01-.024-.033-.024-.112.002a1 1 0 0 1-.193.04c-.08.008-.166-.007-.208-.067a.5.5 0 0 0-.05-.104.8.8 0 0 0 .221-.28c.045-.086.064-.193.03-.21-.026-.01-.042.005-.082.078a1 1 0 0 1-.117.16c-.062.07-.153.123-.234.077q-.007-.005-.016-.006l-.026-.014c-.022-.01-.03-.02-.055-.03a.5.5 0 0 0 .065-.212c.011-.081-.012-.204-.045-.206-.023-.002-.03.015-.042.084a1 1 0 0 1-.047.16c-.025.064-.07.122-.133.129-.044-.006-.064-.012-.106-.01a.4.4 0 0 0-.073-.192c-.033-.055-.116-.121-.137-.107-.015.01-.012.024.015.072a1 1 0 0 1 .05.12c.017.059.015.127-.036.157-.03.016-.036.016-.058.042a.27.27 0 0 0-.143-.052c-.064-.006-.14.009-.145.028-.003.014.005.027.045.039a.5.5 0 0 1 .092.04c.041.024.071.063.066.113-.027.207.227.348.406.252.023-.013.05-.016.015.03a.44.44 0 0 1-.5.152c-.26-.09-.374-.377-.245-.713.098-.257.612-.753 1.398-.386.786.366.728 1.16.532 1.567m8.526-7.652c.056-.115.152-.491.152-.554s-.006-.277-.104-.35c-.17-.13-.387-.151-.54-.146-.119.004-.166.008-.189.04s.011.115.011.115l.035.209s.055.2.03.414c-.01.092-.039.14-.055.307s-.072.43-.135.55c-.064.119-.206.368-.195.51.02.243-.156.212-.28.237-.29.058-.7.289-.7.289s.165-.293.688-.494c.01-.05-.063-.156-.182-.206-.004-.165-.079-.034-.127-.257-.048-.222-.002-.341.04-.51s-.056-.47-.056-.47-.026-.046-.066-.094.016-.365-.073-.421c-.392-.247-.76-.037-.76-.037s.042.21.072.29.13.146.166.287a3 3 0 0 1 .088.446c.041.649.011.893-.008 1.059a1.7 1.7 0 0 1-.127.405s-.12-.102-.16-.131c-.514-.357-.795.298-.795.298s-.193-.046-.24-.046-.162.015-.244.053c-.012-.051-.073-.122-.14-.163-.06-.036-.106-.036-.21-.044-.08-.113-.182-.085-.332-.052-.02-.066-.088-.095-.153-.11-.063-.013-.13.015-.218.03-.124-.153-.328-.073-.328-.073s-.08-.123-.226-.021c-.043-.051-.156-.134-.26-.008-.082-.065-.204-.043-.267.013-.09-.078-.178-.02-.229.045-.153-.116-.335-.036-.284.029-.146-.13-.248-.014-.248-.014s-.094-.015-.196.109c.065-.08-.225-.1-.255.044-.283-.015-.319.086-.319.086s.306.15.181.384c.265.023.206.26.206.26s.106.064.143.188-.013.243-.013.243-.007-.29-.244-.348c-.037-.235-.219-.275-.219-.275s.034-.208-.209-.247c.055-.158-.105-.257-.105-.257s.058-.093-.03-.204a.204.204 0 0 0-.113-.067s.028-.085-.055-.172c-.03-.032-.12-.036-.12-.036s-.003-.062-.054-.073c-.003-.07-.05-.098-.127-.116-.063-.015-.137.039-.137.039l-.008-.032-.04-.056s.03-.175-.145-.2c-.047-.006-.062-.237-.102-.413-.04-.175-.026-.707-.033-.86-.007-.15-.16-.232-.116-.522.011-.076-.404-.143-.503-.145-.404-.007-.356.115-.356.115s.056.17.098.35.19.469.231.56.107.462.154.606c.048.143.088.262.08.334-.13.093-.137.357-.049.47-.083.036-.147.293-.13.44-.048.024-.16.093-.139.217-.046.004-.085.05-.063.12-.144-.041-.39.286-.39.286s.03-.35.242-.42c.017-.191.065-.238.168-.271-.04-.137.053-.357.125-.435-.029-.15.047-.411-.067-.797-.024-.084-.004-.485-.05-.633-.047-.147-.127-.227-.2-.324-.074-.096-.027-.161-.094-.257-.068-.096-.33-.086-.418-.09-.304-.015-.27.112-.27.112s.13.356.174.487c.045.13.18.182.188.277s.097.333.145.5.112.406.112.454-.065.318-.065.318-.099.027-.135.159c-.038.142.047.213.047.213l-.03.073s-.046-.022-.087.027c-.016.019-.017.069-.017.069s-.157-.08-.2.046c-.054-.03-.212.018-.223.108-.06.02-.235.033-.224.229-.119.022-.079.199-.079.199s-.088-.008-.168.032c-.079.039-.055.183-.055.183s-.139.044-.215.167c-.053.086-.016.263-.016.263s-.082.039-.104.147c-.017.088.022.207.022.207s-.103.022-.13.109c-.02.06.04.164.04.164s-.052.032-.079.092c-.019.042.006.103.006.103s-.049.022-.082.104c-.016.04.011.109.011.109s-.087.085-.087.212c0 .073.063.107.025.172-.146.25.057.306-.01.386-.126.15.101.283.034.37-.146.189.082.346.074.41-.007.063-.088.157-.094.24-.004.063-.008.109.007.146-.023-.011-.054.045-.328.017a2 2 0 0 0-.437.014.17.17 0 0 0-.107.063c-.019.022-.039.12 0 .138-.019-.006.048.027.035.027s-.13-.035-.148.13c-.013.12.018.16.018.16s.032.068.167.038a.3.3 0 0 1 .22.044c.09.062.056.164.056.164s-.038-.053-.127-.073c-.06-.014-.127-.006-.215-.033-.034-.011-.087-.053-.094-.017-.007.039-.024.095.088.27s.692.778.692.778.221-.1.394-.083a3.99 3.99 0 0 0-.352.182c-.039.047-.042.088-.042.14 0 .08.055.089.055.089s-.039.054.004.152c.03.065.094.094.094.094s-.02.112.054.176c.074.065.16.064.16.064s.033.092.11.13c.076.039.168.037.168.037s.014.055.078.076c.09.029.133-.021.133-.021s0 .054.097.065c.08.008.114-.033.114-.033s.061.093.183.112c.162.025.256-.036.256-.036s.132.094.26.078c.134-.017.177-.071.177-.071s.073.05.191.025c.076-.016.134-.093.134-.093s.057.025.116.006c.07-.024.114-.08.114-.08s.067.027.106.017c.083-.02.1-.08.1-.08s.08.032.101-.042c.038.008.1.008.137-.013.12-.072.083-.202.083-.202s.072-.017.12-.054c.083-.065.07-.163.07-.163s.091-.006.146-.07c.08-.095.037-.193.037-.193s.094-.032.12-.095a.11.11 0 0 0-.024-.112s.108-.07.138-.23c.036-.194-.083-.323-.083-.323s.048-.03.091-.09c.044-.058.053-.185.053-.185s.057.022.095.009c.053-.02.072-.088.072-.088s.076.043.14.03c.093-.018.146-.05.146-.05s.077.078.175.037c.04-.017.096-.063.096-.063s.133.109.25-.021c.048.05.148.047.217.019.076-.031.09-.132.09-.132s.06.086.162.095c.08.008.178-.105.178-.105s0 .12.148.12c.135 0 .15-.107.15-.107s.093.123.188.108a.6.6 0 0 0 .216-.108s.111.085.183.085c.071 0 .196-.066.196-.066s.084.06.14.073c.155.037.265-.046.265-.046s.072.04.112.044c.126.01.212-.075.212-.075s.05.07.127.089c.116.029.243-.063.243-.063s.01.06.14.073c.11.01.195-.073.195-.073s.064.049.215.059a.4.4 0 0 0 .248-.051s.078.079.157.07c.143-.011.185-.078.185-.078s.072.08.19.059c.151-.027.192-.106.192-.106s.072.049.184.002c.082-.035.103-.121.103-.121s.087.008.16-.017c.07-.023.15-.111.15-.111s.088.008.167-.024c.08-.031.112-.135.112-.135s.11-.005.16-.064c.088.022.191.013.254-.143.17.025.27-.27.302-.286s.197-.041.262-.262c.012-.042.185-.044.23-.35.004-.035.225-.227.261-.565.041-.392.021-.487.043-.668s.16-.388.226-.474c-.232-.071-.48.122-.48.122s.09-.15.033-.23c-.116-.162.11-.083.077-.31-.007-.05-.053-.204-.059-.27-.023-.252.048-.334.105-.41.088-.118.328-.236.328-.236s0-.98-.07-1.178c-.073-.198.081-.526.221-.815"/><path fill="#002a5a" d="M384.063 526.02l.4.41a.46.46 0 0 0 .493.043c.209-.118.536-.367.608-.475s.094-.104.094-.528v-1.148c0-.144.01-.256-.184-.493-.194-.238-.291-.36-.493-.544a7 7 0 0 0-.561-.45c-.072-.046-.245-.136-.357-.136h-.008c-.111 0-.284.09-.356.136s-.36.267-.561.45c-.202.184-.3.306-.493.544-.194.237-.184.35-.184.493v1.148c0 .424.022.42.094.528s.399.357.608.475c.209.12.44.01.493-.043l.4-.41zm-69.093 0l.4.41a.46.46 0 0 0 .492.043c.21-.118.536-.367.608-.475s.093-.104.093-.528v-1.148c0-.144.011-.256-.183-.493-.194-.238-.29-.36-.493-.544a7 7 0 0 0-.56-.45c-.073-.046-.246-.136-.358-.136h-.008c-.11 0-.284.09-.356.136a7 7 0 0 0-.562.45c-.2.184-.298.306-.492.544-.194.237-.184.35-.184.493v1.148c0 .424.022.42.094.528s.4.357.608.475c.21.12.44.01.493-.043l.401-.41z"/><path fill="#fdca50" d="M369.148 507.849c-.433 0-.644.091-.867.187-.232.099-.47.202-.944.202s-.712-.103-.943-.202c-.224-.096-.435-.187-.867-.187-.433 0-.644.091-.868.187-.23.099-.47.202-.943.202s-.713-.103-.944-.202c-.223-.096-.434-.187-.867-.187s-.643.091-.867.187c-.23.099-.47.202-.943.202s-.712-.103-.944-.202a1.9 1.9 0 0 0-.866-.187c-.433 0-.644.091-.867.187-.232.099-.47.202-.944.202v-.194c.433 0 .644-.091.867-.187.232-.1.471-.203.944-.203.472 0 .712.103.943.203.223.096.434.187.867.187s.643-.091.867-.187c.231-.1.471-.203.943-.203.473 0 .713.103.944.203.223.096.434.187.867.187s.644-.091.867-.187c.232-.1.471-.203.944-.203.472 0 .712.103.943.203.224.096.435.187.867.187.433 0 .644-.091.867-.187.232-.1.471-.203.944-.203s.713.103.944.203c.223.096.434.187.867.187v.194c-.473 0-.712-.103-.944-.202a1.9 1.9 0 0 0-.867-.187m.867.642a2 2 0 0 0-.449-.15c.037.502 1.164 1.086 1.232 1.691-.082.041-.153.08-.153.08s-.257-.318-1.017-.318h-2.148l-.033 5.178c.09.056.255.142.413.121.302-.039.305-.174.601-.165.321.008.555.339.555.339s-.272-.109-.497-.065c-.18.037-.364.261-.596.313a.95.95 0 0 1-.48-.019v.173h-.133l-.089-5.875h-2.764l-.003.658c.957-.01 2.03-.129 2.62-.383l-.599 2.43c-.305-.004-1.146.016-2.03.026l-.004.625c.722-.014 1.504-.155 1.944-.311l-.456 1.848c-.416.051-.96.068-1.496.066l-.002.504c.518-.007 1.002-.068 1.42-.254l-.34 1.379c-.288.042-.69.056-1.087.055l-.006 1.259h-.136l-.002-.151a1 1 0 0 1-.524.028c-.24-.052-.428-.277-.616-.313-.232-.045-.513.065-.513.065s.242-.33.573-.34c.306-.008.31.126.621.165.18.023.372-.084.453-.136l-.007-.578a13 13 0 0 1-1.153-.057l-.34-1.38c.433.195.94.254 1.48.259l-.006-.506a21 21 0 0 1-1.533-.069l-.455-1.849c.457.189 1.24.307 1.97.317l-.008-.623c-.79.008-1.582.004-2.024-.034l-.6-2.431c.575.261 1.635.38 2.6.389l-.008-.658h-3.48l-.468.026-.007 1.023c.501-.019 1.024-.14 1.34-.334l-.326 1.679a6 6 0 0 1-1.023.079l-.003.418c.353-.012.683-.074.97-.235l-.243 1.236a4 4 0 0 1-.733.078l-.013 1.856h-.13l-.004-.158a.94.94 0 0 1-.524.034c-.233-.052-.416-.277-.598-.313-.224-.046-.497.065-.497.065s.235-.331.555-.34c.297-.009.3.126.601.165.19.025.39-.102.455-.147l-.017-1.16c-.304-.004-.596-.037-.8-.106l-.243-1.214c.3.171.651.234 1.027.241l-.007-.422a8 8 0 0 1-1.078-.081l-.327-1.679c.368.187.874.323 1.384.339l-.016-1.01c-.995.055-2.3.15-2.998.467l-1.669.788-.039-.125 1.994-1.111c.435-.862.786-1.14 1.125-1.546l-.113-.003c-.433 0-.644.091-.867.187-.232.099-.47.202-.944.202v-.194c.433 0 .644-.091.867-.187.231-.1.471-.202.944-.202.472 0 .712.102.943.202.223.096.434.187.867.187s.643-.091.867-.187c.231-.1.471-.202.943-.202.473 0 .713.102.944.202.223.096.434.187.867.187s.644-.091.867-.187c.232-.1.471-.202.943-.202.473 0 .713.102.944.202.224.096.435.187.867.187s.644-.091.867-.187c.232-.1.471-.202.944-.202s.713.102.944.202c.224.096.434.187.867.187v.194c-.473 0-.712-.103-.944-.202m-1.267 4.822c-.885 0-1.17.138-1.17.138s.336-.677.32-1.669c-.017-.878-.32-1.532-.32-1.532s.546.257 1.411.241c.938-.018 1.575-.285 1.575-.285s-.232.56-.267 1.834c-.022.828.241 1.514.241 1.514s-.559-.241-1.79-.241m-8.864 1.089s-2.369-.711-2.058-4.069c-.527.436-1.078.826-1.695 1.307.491 2.165 2.66 2.869 3.713 2.82.014-.018.04-.058.04-.058m-20.441-5.434c-.135-.117-1.058-.657-1.058-.657 1.204.275 1.186.347 1.577.493.623.233 1.098.743 1.143.778s-.253.087-.516-.045c-.262-.134-.161-.406-.552-.568-.07-.028-.46.116-.594-.001m-1.175.284c.144.046.248.29.246.327-.006.077-.232.275-.482.198-.168-.052-.413-.282-.38-.365.042-.1.35-.243.616-.16m-3.263-1.203c.183.088.746.528.746.528s-.35.075-.507-.014c-.158-.09-.435-.07-.59-.11s-.208.268-.432.31c-.225.04-.28-.031-.532-.013-.251.018-.62.17-.89.267-.272.095-.348.075-.498.11-.15.037-1.145.589-1.24.672s-.512.264-.512.264.513-.593 1.34-1.032c.758-.4 1.763-.81 2.363-.902.348-.056.569-.168.752-.08m3.932 2.17c-.046-.146-.222-.665-.39-.897-.055-.078.097-.004.186.077.325.293.546.889.736 1.153.132.185.417.324.892.277.482-.047.769-.093.932-.124.26-.05.533-.102.632-.165.085-.054.13-.117.028-.32-.051-.1-.13-.205-.226-.348a5 5 0 0 0-.423-.453 5 5 0 0 0-.451-.372c-.188-.141-.538-.33-.918-.511a10 10 0 0 0-.987-.328l-.117-.036c.058-.27.098-.606.113-.766.023-.23.04-.94-.018-.972-.093-.053-.691.145-1.186.773-.082.102-.25.473-.202.483.315.065.488.173.594.28a5 5 0 0 0-.961-.143 21 21 0 0 0-.748-1.315c-.228-.347-.481-.703-.67-.703-.081 0-.246.259-.284.478-.045.262-.066.407-.153.61-.1.226-.24.4-.126.558.254.354 1.223 1.112 1.544 1.36q.005.013-.012.008c-.672-.244-1.538-.997-1.676-.992-.346.015-.696.004-1.886.385-.508.163-1.19.502-1.691.833-.88.582-1.715 1.49-2.096 2.128-.63 1.056-1.127 2.745-1.084 3.634.003.055.486-.418.493-.366.005.045-.18.415-.468.787-.15.192-.362.447-.438.545-.124.162-.187.274-.306.443a3 3 0 0 0-.205.383c-.123.28-.16.354-.247.614a3.3 3.3 0 0 0-.177.773c-.007.08-.036.41.112.267.078-.074.133-.172.192-.261.08-.122.162-.245.252-.36a2.25 2.25 0 0 1 .6-.527c.125-.077.266-.156.396-.261a.6.6 0 0 0 .203-.325c.019-.081.096-.75.12-.771.178-.154-.062.682.242.797.172.065.37-.008.553-.017a.86.86 0 0 1 .479.095c.065.035.134.064.196.102.049.028.106.099.167.066.095-.046.062-.234.059-.313-.011-.195-.073-.331-.163-.502-.048-.095-.138-.192-.21-.271a3 3 0 0 0-.324-.251c-.277-.181-.37-.167-.451-.238-.073-.064.205-.567.245-.63.159-.255.357-.578.516-.807q.07-.099.142-.193c.098-.131.196-.251.335-.34.2-.128 1.938-1.258 2.338-1.31.597-.076 1.296.117 2.002.239.914.16 1.324.237 2.499.219.875-.015 1.799-.073 2.564-.218.426-.08.763.062 1.053-.08.132-.065.264-.254.4-.22.338.085.59-.321.67-.376.234-.162.13-.376.055-.46-.084-.1-.182-.074-.67-.007-.408.042-.712.12-1.203.143a1.7 1.7 0 0 1-.807-.15c-.23-.116-.425-.358-.566-.81m-.83-.771c.048-.003.084.019.088.07a.08.08 0 0 1-.075.089c-.047.003-.09-.027-.092-.077-.004-.051.034-.08.08-.082m.23.122c.018-.065.02-.206-.134-.243-.156-.035-.376.054-.411.134-.03.066.128.208.282.255.118.036.248-.087.264-.146m-.717 9.046a.12.12 0 0 1 .092.142c-.013.067-.075.11-.138.099s-.104-.075-.092-.142a.12.12 0 0 1 .138-.1m1.519-.698a.12.12 0 0 1 .09.142c-.011.067-.073.11-.136.098s-.104-.075-.092-.141.074-.111.138-.1m-3.842-.96a.153.153 0 0 1-.21.062c-.074-.041-.102-.134-.062-.208s.133-.102.209-.061a.154.154 0 0 1 .063.208m2.513 1.422c-.084.058-.316-.081-.422-.303-.08-.17-.13-.335-.16-.487a1.5 1.5 0 0 1-.132.314c-.086.147-.255.23-.31.185-.071-.058-.017-.108.058-.181.24-.26.319-.573.355-.78.04-.298.053-.406.103-.406.07 0 .057.895.447 1.392.099.113.17.19.06.266m-.406-2.673c.017.118.064.384.139.543.113.239.342.777.882 1.104.133.07.228.117.152.228-.058.083-.295-.028-.43-.097-.35-.18-.84-.684-.804-1.748.006-.147.048-.12.06-.03m-.264.228c.066-.12.05.232-.195.734-.45.919-1.557 1.757-1.157 1.068.07-.125-.223-.026-.3-.05-.048-.017-.065-.056.026-.126.514-.348.758-.483 1.147-.951.252-.303.417-.563.479-.675m.214-3.227s.125 1.215.303 1.72c.605 1.72 1.519 1.788 2.004 1.96.284.1.416.839-.435.233-.115-.081-.023.297-.17.246-.605-.208-1.607-1.04-1.72-2.703-.078-1.133-.043-1.461-.043-1.461zm.005-.002s.037.376-.015 1.51c-.05 1.096-1.013 2.625-1.577 2.67-.473.038.036-.591-.473-.548-.38.03-.251-.076.08-.207.376-.148 1.297-.741 1.568-1.456.34-.9.356-1.961.356-1.961zm1.22 4.252c.11.06.15.108.229.168.132.1.206.25.57.053.227-.124.426.052.41.207-.018.176-.232.259-.527.209-.255-.043-.574-.305-.753-.548-.067-.091-.01-.132.07-.09m-2.11.978c.083-.075.104 0 .068.058-.06.095-.184.27-.396.42-.12.084-.265-.081-.147-.166.123-.075.385-.228.476-.312m1.555-.106a.12.12 0 0 0-.138.099c-.013.067.029.13.092.142s.125-.032.137-.1a.12.12 0 0 0-.091-.141m11.381 12.495a.164.164 0 1 0 0 .328.164.164 0 0 0 0-.328m-.066-1.04a.19.19 0 0 0-.114.118l-.51-.36v.843l.511-.355a.2.2 0 0 0 .112.115l-.354.509h.842l-.358-.508a.2.2 0 0 0 .119-.115l.509.354v-.842l-.509.357a.19.19 0 0 0-.12-.117l.359-.51h-.842zm-3.257-6.132l-.001.01.001.008-.001-.008zm.328.01a.173.173 0 1 1-.346 0 .173.173 0 0 1 .346 0m-.327.009l-.002-.01.001.01zm6.507-.182a.173.173 0 1 0 0 .346.173.173 0 0 0 0-.346m-.288.29a.24.24 0 0 1-.033-.118q.001-.065.033-.117l-.275-.277v.789zm-5.755-.235a.22.22 0 0 1 0 .235l.275.277v-.79zm3.089 3.272l-.139-.121h-.192l-.139.12v.307l.139.12h.192l.139-.12zm0-.823l-.139-.121h-.192l-.139.12v.307l.139.12h.192l.139-.12zm0-.823l-.139-.121h-.192l-.139.12v.307l.139.12h.192l.139-.12zm3.666 1.395q-.009-.001-.016-.004-.005.058-.017.117a1 1 0 0 1-.034.11c.065.027.11.09.11.165a.177.177 0 0 1-.177.177.18.18 0 0 1-.105-.038q-.074.095-.168.18a.18.18 0 0 1 .041.11.177.177 0 0 1-.177.177.18.18 0 0 1-.15-.088l-.106.054q-.09.038-.182.065.007.02.008.04a.177.177 0 0 1-.177.177.175.175 0 0 1-.173-.158 1.5 1.5 0 0 1-.341-.022.176.176 0 0 1-.169.132.177.177 0 0 1-.176-.177q.001-.027.01-.051a2 2 0 0 1-.246-.116l-.074-.038a.17.17 0 0 1-.152.092.18.18 0 0 1-.178-.177q.002-.029.011-.054a2 2 0 0 0-.714-.097v.314a.8.8 0 0 1 .259.439h.153v.362h-.157a.821.821 0 0 1-1.599 0h-.144v-.362h.14a.8.8 0 0 1 .25-.431v-.33a2 2 0 0 0-.673.099q.01.025.011.053c0 .098-.08.178-.178.178a.17.17 0 0 1-.152-.093l-.075.038q-.12.069-.245.117.009.023.01.05a.177.177 0 0 1-.177.177.176.176 0 0 1-.168-.132q-.171.03-.341.022a.175.175 0 0 1-.173.159.18.18 0 0 1-.177-.178q.002-.02.008-.04a1.4 1.4 0 0 1-.288-.12.17.17 0 0 1-.15.089.177.177 0 0 1-.177-.177c0-.042.017-.08.041-.11a1.4 1.4 0 0 1-.168-.18.18.18 0 0 1-.105.038.177.177 0 0 1-.067-.341 1 1 0 0 1-.034-.111q-.012-.06-.017-.116l-.015.003a.178.178 0 1 1 0-.355q.009.001.016.004.02-.153.065-.304a.174.174 0 0 1-.125-.167c0-.097.079-.177.177-.177q.038 0 .071.016.058-.134.121-.263a.18.18 0 0 1-.102-.16c0-.097.079-.177.177-.177a.2.2 0 0 1 .077.02c.125-.267.224-.52.223-.76v-.268h.009a.3.3 0 0 0 .151-.041l.375.373h-.142c-.017.369-.19.728-.359 1.076-.207.424-.401.825-.316 1.21.041.183.224.43.539.57.341.15.728.118 1.09-.09a2.35 2.35 0 0 1 1.263-.327v-1.918h1.098v1.926a2.36 2.36 0 0 1 1.304.326c.362.208.749.24 1.089.09.316-.14.499-.386.54-.57.086-.385-.11-.786-.316-1.21-.17-.35-.344-.711-.36-1.083h-.143l.376-.373a.3.3 0 0 0 .151.04h.009v.25c-.009.246.094.51.224.786a.2.2 0 0 1 .077-.02.177.177 0 0 1 .075.337q.063.13.121.262a.177.177 0 0 1 .248.162c0 .08-.053.145-.125.167q.046.15.065.303l.017-.003a.178.178 0 0 1 0 .355m-2.191-1.87zm1.41-2.3a.13.13 0 1 0 0 .262.13.13 0 0 0 0-.261m-.616 0a.131.131 0 1 0 0 .262.13.13 0 1 0 0-.262m-.483.028l-.145-.145h-.366l-.145.145v.2l.145.146h.366l.145-.145zm-.361.922h.006v-.011h-.009zm.095 0l.003-.01h-.005l-.001.01zm-.861-.95a.13.13 0 1 0 0 .262.131.131 0 1 0 0-.261m-.492.01l-.17-.17h-.431l-.17.17v.237l.17.17h.431l.17-.17zm-1.245-.01a.13.13 0 1 0 0 .262.13.13 0 0 0 0-.262m-.508.028l-.145-.145h-.366l-.144.145v.2l.144.146h.366l.145-.145zm-.392.922h.007l-.001-.011h-.009q0 .006.003.01m.095 0l.003-.01h-.006v.01zm-.813-.95a.131.131 0 1 0-.002.262.131.131 0 0 0 .002-.261m-.649 0a.13.13 0 0 0-.13.13.13.13 0 1 0 .13-.131m6.309.632v.329h-.009a.3.3 0 0 0-.15.04l-.372-.365h-.496l-.233.303v.012h.046c.033 0 .06.034.06.078 0 .042-.027.077-.06.077h-.126c.014.144.156.239.244.2.136-.058.091-.206.091-.206.12.047.185.129.181.258a.22.22 0 0 1-.229.207.39.39 0 0 1-.33-.205l.01.029c.089.212.155.345.081.573-.069.215-.196.336-.198.338-.002-.002-.129-.123-.198-.338-.073-.228-.007-.361.082-.573l.015-.042c-.071.126-.19.218-.339.218a.22.22 0 0 1-.229-.207c-.004-.13.06-.211.18-.258 0 0-.044.148.092.207.088.038.23-.057.244-.201h-.131c-.034 0-.06-.035-.06-.077 0-.044.026-.078.06-.078h.051v-.011h-.006l-.235-.304h-.768l-.26.35.171.17.445-.328v1.068l-.452-.335-.169.168.343.463h-1.068l.354-.48-.179-.18-.49.364v-1.068l.482.357.182-.182-.272-.367h-.78l-.234.304h-.004v.01h.045c.034 0 .061.035.061.079 0 .042-.027.077-.061.077h-.125c.014.144.156.239.243.2.137-.058.092-.206.092-.206.12.047.184.129.18.258a.22.22 0 0 1-.228.207c-.144 0-.259-.086-.331-.205l.01.029c.09.212.155.345.082.573-.068.215-.196.336-.198.338-.002-.002-.129-.123-.198-.338-.073-.228-.007-.361.082-.573l.015-.042c-.071.126-.19.218-.339.218a.22.22 0 0 1-.229-.207c-.004-.13.06-.211.18-.258 0 0-.045.148.092.207.088.038.23-.057.244-.201h-.131c-.034 0-.061-.035-.061-.077 0-.044.027-.078.061-.078h.05v-.011h-.002l-.233-.304h-.471l-.365.366a.3.3 0 0 0-.151-.041h-.009v-.328a.505.505 0 0 1 .029-1.01h6.293a.506.506 0 0 1 .036 1.009"/></g></svg>