<svg xmlns="http://www.w3.org/2000/svg" width="314.34" height="318.127" viewBox="0 0 61.947 62.908"><clipPath id="a"><path d="M23 36h120v134.08H23z"/></clipPath><clipPath id="b"><path d="M0 77h165.34v45H0z"/></clipPath><g stroke-width="2.77"><g clip-path="url(#a)" transform="translate(1.29 .716) scale(.36106)"><path fill="#fff" fill-rule="evenodd" d="M23.863 36.617v89.438c0 7.063.906 9.785 3.082 13.562l.121.215.137.203c12.602 18.812 33.535 30.043 55.992 30.043s43.39-11.23 55.992-30.043l.137-.203.12-.215c2.173-3.773 3.083-6.496 3.083-13.562V36.617H23.867"/></g><path fill="#071c3a" d="M50.17 40.696v5.533c0 2.202-.256 2.72-.77 3.614-3.921 5.856-10.553 9.705-18.073 9.705s-14.15-3.85-18.075-9.705c-.513-.894-.768-1.412-.768-3.614V16.52h37.684zm1.159-7.315V15.359H11.323v30.87c0 2.34.281 3.074.924 4.19l.02.036.021.034c4.286 6.397 11.403 10.216 19.038 10.216s14.75-3.819 19.037-10.216l.022-.034.02-.034c.641-1.117.923-1.85.923-4.192z"/><path fill="#071c3a" fill-rule="evenodd" d="M51.607 42.697v3.531c0 2.406-.292 3.167-.96 4.327l-.025.043-.027.04c-4.338 6.476-11.54 10.34-19.265 10.34s-14.93-3.864-19.266-10.34l-.027-.04-.024-.043c-.669-1.162-.96-1.92-.96-4.327V15.081h40.554zm.643-9.121V14.438H10.41v31.79c0 2.549.334 3.41 1.045 4.647l.035.063.041.059c4.457 6.653 11.859 10.624 19.8 10.624S46.672 57.65 51.13 50.997l.04-.06.034-.062c.711-1.235 1.047-2.097 1.047-4.647z"/><path fill="#e31147" d="M27.684 24.852c-.656 0-1.19-.574-1.19-1.283 0-.71.534-1.285 1.19-1.285s1.187.576 1.187 1.285-.532 1.283-1.187 1.283m1.16-7.242l.006 3.97a2.32 2.32 0 0 0-1.626-.674c-1.337 0-2.42 1.17-2.42 2.615s1.083 2.613 2.42 2.613c.632 0 1.203-.265 1.634-.692v.644h1.608l-.001-8.476zm6.704 7.038h-1.494v-5.343h1.042c.457 0 .828.39.828.873 0 .481-.37.872-.828.872h-.543v1.482h.995c.554 0 .974.471.974 1.056-.02.604-.37 1.02-.974 1.06m1.309-3.055c.425-.42.686-.982.686-1.601a2.22 2.22 0 0 0-.561-1.48c-.372-.431-1.032-.623-1.924-.623H32.39v8.196h3.447c1.321-.023 2.385-1.08 2.385-2.37 0-.938-.313-1.606-1.365-2.122m7.953 4.498h1.56v-8.418h-1.56zm-2.624-2.082c0 .492-.41.891-.916.891a.904.904 0 0 1-.916-.891V21.05h-1.59v3.272c0 1.107 1.12 2.006 2.501 2.006s2.5-.899 2.5-2.006V21.05h-1.579zm-23.193-3.712c0-1.339-1.054-2.423-2.353-2.423-.04 0-.221.001-.26.003h-2.738v8.202h1.661v-6.788l.991-.008c.614 0 1.08.48 1.08 1.073s-.498 1.073-1.11 1.073l-.387.01v1.954l1.66 2.686h1.958L17.2 22.651c1.03-.258 1.793-1.215 1.793-2.354m1.822 2.626c0-.553.438-1.001.979-1.001s.978.448.978 1zm.964-2.148c-1.462 0-2.648 1.227-2.648 2.74 0 1.515 1.186 2.743 2.648 2.743 1.118 0 1.99-.516 2.438-1.325l-1.302-.614a1.1 1.1 0 0 1-1.004.624c-.603 0-1.09-.459-1.09-1.023 0-.037-.015-.021-.01-.056l3.54.001q.015-.167.015-.344c.024-1.773-1.124-2.746-2.587-2.746m25.671-3.102v8.417h1.561v-8.417z"/><path fill="#fad105" fill-rule="evenodd" d="M42.461 36.79c0 6.183-5.011 11.194-11.193 11.194-6.183 0-11.194-5.011-11.194-11.194 0-6.182 5.011-11.195 11.194-11.195 6.182 0 11.193 5.013 11.193 11.195"/><g clip-path="url(#b)" transform="translate(1.29 .716) scale(.36106)"><path fill="#fff" d="M109.99 109.97c-.312-.602-1.394-1.93-1.254-2.77.797.098 2.008.106 2.45.133-.137.254-1.044 2.328-1.196 2.637m55.277 9.21c-.059-.241-.156-.5-.23-.702l-.07-.192a11 11 0 0 1-.169-.464 1.4 1.4 0 0 1-.062-.208q-.013-.068-.008-.136c.078-.88-.145-1.336-.489-1.934-.265-.469-.644-.652-.894-.66a.45.45 0 0 1-.508.289.484.484 0 0 1-.394-.531c.008-.063.015-.125.02-.196a1.26 1.26 0 0 0-.161-.664c-.297-.55-2.43-2.304-3.238-2.304-.653 0-1.344.359-1.84.964a.47.47 0 0 1-.363.168h-.043a.47.47 0 0 1-.368-.242 3 3 0 0 1-.187-.426c-.145-.382-.23-.777-.313-1.156l-.062-.289c-.227-.984-.559-1.98-1.875-2.363a2 2 0 0 0-.418-.07c-.14-.016-.297-.02-.453-.028h-.121c-.266-.008-.543-.011-.813-.054-.539-.079-.898-.254-.898-.86q0-.075.023-.152l.145-.418c.11-.305.261-.774.383-1.328.226-1.035.246-1.985.05-2.82a.476.476 0 0 1 .457-.575.4.4 0 0 1 .07.008 8 8 0 0 0 1.102.09c2.813 0 7.274-1.836 7.274-6.762 0-2.828-2.293-5.52-4.215-7.277a.468.468 0 0 1 .2-.797c2.73-.715 4.237-2.535 4.237-5.12v-.177c0-.402 0-.863-.078-1.351a5 5 0 0 0-.773-1.946.28.28 0 0 0-.262-.136c-.058 0-.101.011-.117.015-.11.028-.223.102-.305.153-.254.168-.62.48-.914.734-.336.285-.734.496-1.3.688-.34.113-.696.207-1.075.308q-.298.076-.613.164c-1.305.363-2.727.895-4.309 2.285-.722.641-1.226 1.7-1.273 2.703-.043.844.27 1.72.96 2.668.598.829 1.391 1.606 2.223 2.399l.297.281c.305.29.602.574.887.86.434.43.758.785 1.027 1.109.657.812.965 1.477.965 2.098 0 1.32-.945 2.21-2.379 2.21-1.586-.011-2.804-.62-4.5-1.742-.258-.172-.523-.347-.797-.535a63 63 0 0 0-1.793-1.176 27 27 0 0 0-3.414-1.832 12.4 12.4 0 0 0-1.898-.668c-.492-.132-.957-.23-1.41-.324l-.219-.043c-1.035-.219-1.902-.433-2.824-1.039q-.394-.264-.813-.55a40 40 0 0 0-1.488-.985c-.98-.61-1.77-.996-2.488-1.215a6 6 0 0 0-.75-.16q-.19-.029-.38-.05l-.3-.04c-.461-.062-.855-.156-1.273-.394a10 10 0 0 1-.793-.528c-.2-.144-.387-.297-.582-.449l-.133-.105a13 13 0 0 0-1.883-1.254c-1.27-.688-2.543-1.028-3.633-1.293l-.215-.051c-.421-.102-.789-.188-1.101-.293a3 3 0 0 1-.422-.168c-.066-.035-.125-.078-.152-.094a1 1 0 0 1-.086-.086c-2.715-3.414-5.969-3.68-6.902-3.68q-.321.001-.602.032c-1.09.117-2.39 1.078-3.52 2-.41.336-.824.691-1.246 1.05-.859.731-1.742 1.489-2.613 2.106-4.496 3.2-6.125 4.48-8.254 6.805-2.879 3.148-3.785 7.14-4.582 10.664l-.058.254c-.387 1.71-.786 3.48-1.375 5.101-.692 1.899-1.536 3.336-2.664 4.516a18 18 0 0 1-1.399 1.336c-.265.219-.465.355-.637.476l-.117.082c-.472.336-.66.77-.523 1.211.176.563.898 1.145 2.117 1.164.137.004.27.07.355.184.09.11.122.254.09.39a.63.63 0 0 0 .121.563c.332.43 1.125.672 1.575.684h.191c2.152 0 4-.79 5.5-2.344a.46.46 0 0 1 .336-.145c.113 0 .227.043.316.121.594.551 1.364.829 2.344.848h.106c.457 0 .914-.05 1.332-.098q.317-.035.605-.058c.106-.004.211-.012.305-.012.07 0 .136 0 .199.008.254.02.578.098 1.027.254.309.105.641.23.977.36l.3.117c.657.25 1.65.628 2.403.628q.066.001.125-.004c1.695-.105 2.328-1.367 2.555-2.105a.47.47 0 0 1 .45-.332h.015c.21.008.39.152.437.36q.065.267.14.519c.266.894.618 1.492 1.137 1.941.16.14.364.227.66.274.25.043.61.062 1.137.07.102 0 .2.031.278.094.058.043.136.117.257.238.11.105.223.223.329.316.097.082.242.196.418.254 2.375.809 5.468 1.684 7.02 1.707h.054c2.117 0 2.84-2.027 3.05-2.902a.46.46 0 0 1 .364-.348c1.969-.39 3.05-3.351 3.047-3.863-.012-.953-.38-1.332-1.324-1.398l-3.438-.004a.8.8 0 0 0-.226.035.49.49 0 0 1-.524-.2.72.72 0 0 0-.492-.343.467.467 0 0 1-.191-.812l.203-.18q.137-.124.32-.125h.02c.468.02 1.378.054 2.246.054.386 0 .761-.008 1.082-.027.69-.035 1.269-.106 1.878-.176.957-.11 1.946-.222 3.43-.222l3.219.175a6.1 6.1 0 0 0 1.867-.265.4.4 0 0 1 .14-.024c.09 0 .177.028.255.074.113.075.191.2.21.336.208 1.625.743 3.063 1.547 4.153.208.285.47.527.825.77q.276.185.57.359.171.1.336.207c.852.531 1.906 1.191 3.227 1.191.351 0 .718-.047 1.082-.14a4.8 4.8 0 0 1 1.207-.153c.207 0 .414.016.605.035.523.059.988.176 1.367.27l.098.023a6.5 6.5 0 0 1 1.77.739c.476.289.878.59 1.265.886l.105.078c.77.586 1.57 1.192 2.684 1.192l.133-.004c.074-.004.16-.028.2-.035l.214-.07c.152-.055.332-.13.512-.2.175-.066.37-.144.597-.191a.47.47 0 0 1 .477.195c.058.086.113.183.18.281.109.18.222.367.37.555.43.554 1.212 1.297 3.04 1.344q.252.005.48.004c.953 0 1.54-.075 1.801-.118.027-.004.05-.004.078-.004a.47.47 0 0 1 .266.082c.195.137.402.2.633.2.492 0 1.218-.149 1.812-.364q.529-.2.86-.441c.277-.207.44-.438.48-.684q.041-.273-.059-.675m-107.55-11.113c-.32.39-.797.511-1.226 1.28-.88-.34-1.032-1.491-1.192-1.988.7-.128 2.348-.441 3.211-.574-.355.45-.613.754-.793 1.281zm20.734 3.62c-.879-.5-1.406-1.265-1.761-1.878-.157-.266-.297-.535-.438-.797l-.164-.309a7.5 7.5 0 0 0-.637-1.027 7 7 0 0 0-.336-.379l-.355-.367a6 6 0 0 1-.3-.344 1.2 1.2 0 0 1-.177-.281c-1.547-3.961-1.91-6.207-2.468-10.156-.29-2.031-1.532-3.676-3.543-6.14-.254-.31-.532-.673-.832-1.056-.208-.265-.418-.543-.637-.816-.66-.836-1.2-1.453-1.625-1.871a340 340 0 0 1-1.938-1.637c-.82-.699-1.515-1.289-2.156-1.816-1.21-.992-2.14-1.695-3.215-2.418-1.496-1.012-3.097-1.524-4.758-1.524-1.695 0-2.94.547-3.367.836-1.426.973-2.504 1.575-3.715 2.078-.878.364-1.789.66-2.94 1.04-.372.12-.767.25-1.196.394-1.313.438-2.242 1.2-2.903 1.813l-.457.437c-.16.16-.316.309-.46.442-.297.27-.508.418-.696.484-.199.07-.52.121-.98.152-.242.016-.492.028-.735.04l-.52.023c-1.503.09-2.714.937-3.491 1.566-.403.328-.782.672-1.145 1.004l-.172.16c-.46.414-.785.696-1.097.895-1.067.691-2.079.789-3.188.898-.57.059-1.156.117-1.79.246-.75.157-1.46.395-2.171.727-.797.375-1.602.855-2.61 1.555q-.654.457-1.285.921-.561.412-1.117.805c-1.664 1.164-3.094 1.942-4.64 1.942-1.528 0-2.614-.895-2.762-2.278-.129-1.222.492-2.453 1.758-3.476l.695-.559a61 61 0 0 0 1.445-1.18c.735-.629 1.23-1.136 1.618-1.644.949-1.246 1.191-2.531.78-4.168-.366-1.465-1.495-2.465-3.448-3.051-.7-.21-1.41-.34-2.075-.445l-.23-.04a34 34 0 0 1-.55-.09 2.5 2.5 0 0 1-.45-.112c-1.059-.473-3.367-2.016-3.828-2.329l-.188-.125-.129.188c-.421.605-.753 1.082-1.007 3.184-.278 2.32 1.636 5.152 4.925 5.671a.47.47 0 0 1 .38.344.46.46 0 0 1-.16.485c-3.485 2.738-4.227 3.914-4.411 6.988-.11 1.91.555 3.781 1.832 5.137 1.398 1.48 3.422 2.265 5.855 2.265.649 0 1.336-.058 2.036-.168q.036-.005.074-.004a.466.466 0 0 1 .465.43c.16 2.14.55 3.883 1.035 4.66a.465.465 0 0 1-.082.59c-.149.137-.383.273-.684.387-.742.293-1.87.472-2.992.472-.7 0-1.223.48-1.64 1.516-.137.336-.25.691-.36 1.039l-.027.098c-.059.175-.11.34-.164.48a2 2 0 0 1-.153.356c-.14.25-.347.496-.632.754a.5.5 0 0 1-.313.113c-.023 0-.055 0-.078-.004a.47.47 0 0 1-.328-.235c-.344-.62-.887-1.015-1.61-1.171h-.015l-.074-.004c-1.067 0-2.915.906-3.598 2.601a.47.47 0 0 1-.379.29l-.086.01c-.852.09-1.387.485-1.691 1.243a5.6 5.6 0 0 0-.262.996l-.047.23a9 9 0 0 1-.168.786c-.05.207-.125.387-.234.59q-.083.147-.164.277c-.04.062-.078.129-.114.187-.187.348-.285.704-.132 1.313q.106.416.652.715c.27.144.617.273 1.035.375a9.3 9.3 0 0 0 1.621.234.6.6 0 0 0 .301-.082c.07-.043.14-.093.219-.152a.5.5 0 0 1 .379-.102l.347.067c.285.055.64.125.992.199l.055.008c.34.07.672.137.942.188.144.027.277.05.37.062.11.016.196.023.247.023h.004c1.468-.066 2.09-.64 2.504-1.191q.168-.229.32-.488l.168-.282.125-.214q.174-.305.37-.575a.47.47 0 0 1 .376-.187c.043 0 .082 0 .121.012.168.047.34.078.484.105.34.055.653.086.786.094q.145.012.285.012c1.39 0 2.426-.774 3.285-1.504l.285-.239q.194-.17.387-.336c.172-.14.402-.324.637-.48.414-.277.77-.406 1.113-.406l.086.004c.332.02 1.59.109 3.722.449.094.012.184.02.282.02.476 0 1.09-.165 1.82-.493a15 15 0 0 0 1.738-.941 4 4 0 0 1 .473-.242l.055-.024a11 11 0 0 0 .55-.262c.352-.18.864-.476 1.278-.992.242-.304.57-.949.89-1.597l.348-.711c.191-.395.395-.813.602-1.227a.47.47 0 0 1 .421-.258h.13c.663 0 1.456-.101 2.144-.203q.458-.066.887-.137c.632-.097 1.18-.183 1.585-.199.102 0 .372.016.747.043l.843.055c1.067.066 1.934.098 2.653.098.43 0 .808-.012 1.125-.036a7 7 0 0 0 1.511-.253c.118-.036.246-.079.375-.137a.5.5 0 0 1 .188-.035.46.46 0 0 1 .324.129q.353.345.73.68c.145.12.196.32.137.5a.47.47 0 0 1-.406.316 3 3 0 0 0-.277.027c-.297.043-.836.16-1.11.512a.464.464 0 0 1-.554.144 1 1 0 0 0-.2-.07 1.5 1.5 0 0 0-.398-.05h-.219l-.238.003h-.129c-.426 0-1.418 0-2.277.14-.528.087-.946.212-1.243.38-.28.16-.609.449-.582.925.051.88 1.29 3.258 2.133 4.102.164.164.719.34 1.336.34q.095-.001.195-.008h.036a.47.47 0 0 1 .414.254c.863 1.703 2.36 2.844 3.718 2.844h.09c1.301-.051 4.813-1.317 7.274-2.473a.4.4 0 0 1 .097-.035c.078-.016.172-.031.266-.043q.222-.03.484-.059l.25-.031c.543-.063 1.16-.16 1.61-.375.414-.195 1.015-.969 1.535-1.973a.47.47 0 0 1 .414-.254l.047.004a.46.46 0 0 1 .402.328c.063.204.133.38.219.543.418.79 1.168 1.192 2.227 1.192l.171-.004c.727-.027 1.532-.274 2.223-.5l.395-.13c.597-.198 1.16-.386 1.683-.48.188-.035.399-.05.649-.05.11 0 .23.004.351.008.223.011.446.03.672.047.149.015.3.023.453.035a9 9 0 0 0 .672.027c.645 0 1.145-.094 1.598-.312.656-.27 1.164-.637 1.504-.88l.12-.09a.5.5 0 0 1 .278-.089c.11 0 .219.04.309.121a8.75 8.75 0 0 0 5.82 2.188c.098 0 .2 0 .297-.004.695-.02 1.238-.25 1.535-.645.195-.266.258-.582.176-.898a.5.5 0 0 1 .059-.368.48.48 0 0 1 .312-.21c.48-.086.867-.254 1.152-.508.258-.227.426-.559.43-.848 0-.195-.07-.36-.219-.496-.316-.297-.5-.406-1.426-.922"/></g><path fill="#fff" d="M25.63 30.08a5.607 5.607 0 1 1 11.215-.001 5.607 5.607 0 0 1-11.215 0"/><path fill="#d1d1d1" d="M27.023 33.103c1.635 1.18 3.94 1.368 5.74.4a5.51 5.51 0 0 0 2.962-5.347 6 6 0 0 0-.172-.952 5.186 5.186 0 0 1-8.53 5.9"/><path fill="#071c3a" fill-rule="evenodd" d="M29.709 31.374c-1.213-.292-2.041-.585-2.041-.585-.131-1.253-.02-2.343-.02-2.343.525-.274 1.948-.91 1.948-.91.677.769 1.324 1.798 1.324 1.798-.313.606-1.211 2.04-1.211 2.04m-2-5.097c-.122.199-.478.798-.799 1.512-.303.38-.566.764-.68.933a5.2 5.2 0 0 1 1.479-2.445m5.442 3.017s.455-.95 1-1.717c0 0 1.051.495 1.545.899 0 0 .182.565.062 2.221 0 0-.628.364-1.536.587 0 0-.617-1.041-1.07-1.99M30.8 33.182l2.242-.06.433 1.221c-.847.505-1.867.769-1.867.769-1.072-.233-1.687-.698-1.687-.698zm.438-8.29c.684 0 1.337.133 1.936.372a2.5 2.5 0 0 1-.304.718c-1.081-.14-2.283-.03-2.283-.03l-.999-.792a5.2 5.2 0 0 1 1.65-.268m-3.324 9.17a5.18 5.18 0 0 1-1.736-2.84l.814.84c.324.666 1.13 1.827 1.13 1.827a1.3 1.3 0 0 1-.208.172M22.183 55.8l2.125 1.025 1.026-2.124-.708-.343-.684 1.416-.708-.341 2.956-6.127-.71-.343zm5.38-3.416l.775.138.279-1.549.753.136-2.594 5.65-.138.774 2.323.417.417-2.323-.774-.14-.278 1.55-.754-.136 2.593-5.649.14-.774-2.324-.42zm-4.875-4.261l.619.486-1.618 2.055-.62-.486zm-4.828 4.861l.619.487 2.104-2.674.62.487-2.105 2.674.618.486 4.005-5.089a1.186 1.186 0 0 0-.197-1.658 1.186 1.186 0 0 0-1.659.199zm14.809 5.065l1.563-.188c.434-.05.74-.44.688-.874l-.272-2.29c-.057-.466-.234-.606-.433-.656.178-.129.32-.285.278-.643l-.285-2.387a.785.785 0 0 0-.875-.688l-1.562.186zm-.024-6.852l.781-.093.31 2.598-.78.093zm.403 3.38l.782-.095.309 2.598-.782.093zm4.3-5.579l-.73.292 2.527 6.319-.73.293-2.527-6.318-.731.292 2.405 6.012c.24.602.93.899 1.534.657.602-.24.897-.93.657-1.534zm5.43 5.515l.637-.46-1.992-2.761.64-.46 1.66 2.303c.113.155.305.278.467.358l.656-.474c-.197-.093-.36-.172-.484-.344l-1.482-2.053c-.273-.38-.496-.416-.694-.364.092-.199.141-.404-.07-.697l-1.406-1.949a.786.786 0 0 0-1.1-.18l-1.276.922zm-3.345-5.98l.638-.461 1.531 2.121-.639.461zm6.508 1.505a1.184 1.184 0 0 0 1.657-.197 1.19 1.19 0 0 0-.198-1.66l-2.414-1.899-.698.886.617.488.212-.268 2.055 1.618-.487.617-4.73-3.722.488-.618.935.737.486-.62-.675-.533c-.51-.4-1.257-.31-1.659.2-.4.508-.312 1.254.197 1.656zm-24.584-4.697c.21.432.098 1.014-.225 1.354l-.828.667-.484-.624c.293-.273.636-.503.95-.763l-.473-.627-2.088 1.604c.249.453.796.82.586 1.4l-.043.198-2.23 1.72c-.29.161-.688.174-1.002.047-.374-.145-.663-.529-.725-.907-.07-.448.087-.871.431-1.172.232-.183.473-.357.706-.55.175.202.328.423.482.645-.303.252-.625.483-.938.735l.463.634c.696-.512 1.392-1.072 2.098-1.613-.289-.473-.914-.941-.524-1.549l.173-.203 2.027-1.546c.321-.201.816-.18 1.14.004.207.123.41.338.504.546"/><g fill="#e31147"><path d="M26.618 38.22l-.03.084c0 .006-.025.085-.025.085q-.04.114-.14.135a.12.12 0 0 1-.106-.017.12.12 0 0 1-.048-.098l-.006-.088-.03-.302a.8.8 0 0 0-.13-.337l-.132-.154-.15-.169c-.114-.115-.218-.17-.325-.173a.56.56 0 0 0-.241.17l-.103.127-.092.124c-.034.057-.109.024-.109.024l-.014-.007q-.003-.012-.005-.014a.5.5 0 0 1-.031-.168.7.7 0 0 1 .056-.246l.079-.163.092-.193.01-.018a.4.4 0 0 0 .085-.152l.024-.067.054-.137c.08-.173.202-.22.378-.145.137.074.221.19.285.294l.044.071.056.092.114.148c.316.354.469.687.469 1.033q0 .13-.029.26m-1.197 2.664s-.004.003-.003.005a1.8 1.8 0 0 1-.62.07l-.01-.002-.041-.017-.044-.028c-.021-.017-.054-.054-.035-.11.084-.254.335-.546.653-.612h.073l.07.01c.035.01.094.038.11.121q.007.072.008.152c0 .151-.031.313-.161.41m-3.726-6.447l-.024-.007-.003.01-.007.007c-.028.027-.078.046-.127.014l-.013-.008-.002-.017c-.077-.39-.164-.803-.322-1.185l-.09-.155-.036-.05-.077-.112c-.062-.1-.121-.232-.04-.39l.01-.012c.07-.07.196-.078.282-.045l.012.005c.166.116.275.306.352.444.099.23.15.52.15.817 0 .227-.03.46-.09.677zm7.674 6.887c-.587-.343-.821-.987-1.184-1.496-.125-.187-.35-.305-.468-.49-.42-1.144-.783-2.288-.89-3.598-.089-.323-.156-.656-.333-.959-.527-.86-1.211-1.643-1.877-2.434-.058-.06-.059-.064-.186-.186l-2.316-1.926c-.283-.215-.608-.352-.93-.499-.489-.186-1.153-.146-1.631.06-.5.263-.95.644-1.478.82-.762.343-1.622.41-2.278.997-.38.333-.704.85-1.27.763-.637-.03-1.204.205-1.682.597-.43.39-.84.85-1.399.958-.488.206-1.085.107-1.584.293-.791.196-1.417.82-2.091 1.3-.675.391-1.32.811-2.161.792-.547-.038-1.076-.42-1.253-.948a1.58 1.58 0 0 1 .5-1.642c.499-.596 1.29-.949 1.68-1.633.207-.363.177-.95-.097-1.29-.517-.538-1.26-.558-1.936-.724-.429-.119-.762-.45-1.144-.655a1.15 1.15 0 0 0-.175.742c.078.617.547 1.174 1.134 1.388.342.147.734.04 1.085.119.097.038.196.136.206.244-.02.097-.03.196-.117.263-.549.46-1.124.9-1.584 1.467-.49.528-.549 1.457-.294 2.121.284.763 1.075 1.263 1.838 1.36.557.089 1.057-.058 1.564-.166.07 0 .098.069.127.108.05.449-.02.85.08 1.261.087.38.214.646.35 1.017.02.127 0 .264-.087.361a4.2 4.2 0 0 1-.89.5l-.763.049-.147.069c-.283.331-.293.674-.468 1.045-.236.392-.666.577-1.027.802-.117.185-.245.381-.41.528-.129.117-.285.147-.45.166-.265.304-.323.724-.392 1.134.43.04.88.274 1.3.04.363-.167.44-.607.715-.87.215-.235.538-.06.792-.01.38.02.654-.254.977-.383.224-.145.41-.399.646-.547.45-.214 1.075-.097 1.544-.01.371.1.763.04 1.086-.107.302-.185.586-.42.928-.498.304-.156.45-.499.577-.782.097-.264.353-.47.333-.773-.079-.068-.166-.216-.283-.206-.147.206-.256.421-.42.617-.709.964-1.265 1.055-2.7 1.055-1.065-.038-2.024.284-2.758 1.115-.048.03-.117.01-.156-.029-.028-.117.069-.311.117-.4.656-.928 1.673-1.143 2.747-1.164.587-.038 1.146-.136 1.643-.39.558-.284.94-.725 1.174-1.272.127-.617.176-1.281.333-1.87.02-.057.165-.1.214-.081.058.01.175.062.175.131-.107.607-.302 1.32-.066 1.907.468.616 1.338.283 1.974.254.666-.058 1.2-.007 1.835.032.313-.01.545.067.789-.128a.56.56 0 0 0 .076-.371c-.02-.176-.167-.282 0-.429.048-.04.194-.014.233.035.088.246.128.508.284.724.314.402.772.714 1.202.94.41.283.753.683.783 1.183 0 .253-.236.43-.43.547-.333.166-.696.303-1.086.265-.518-.255-.655-.803-.997-1.203-.175-.196-.44-.236-.704-.216-.284.03-.567.04-.821.128-.07.058-.089.146-.08.235.177.323.373.634.568.957.226.137.539-.077.733.167.167.254.274.557.53.753.243.214.615.312.937.176.724-.226 1.447-.461 2.121-.822h.226c.274-.03.577-.01.773-.215a8 8 0 0 0 .557-.939c.165-.224.087-.567.02-.81-.333-.411-.52-.871-.696-1.342-.165-.048-.311-.145-.497-.137-.088.04-.216.02-.266.117l.773 1.528c.05.115.109.282.08.44-.11.321-.274.634-.54.87-.047.028-.107.058-.145-.01.088-.333.244-.695.224-1.076l-.753-1.36c-.087-.186-.244-.352-.234-.568 0-.097.088-.165.167-.205.331-.107.733-.087.987-.35.333-.52.402-1.028.49-1.644.02-.04.098-.114.156-.114.06-.02.125.065.155.094.099.675-.04 1.359-.43 1.887-.02.07-.048.157.03.205.37.118.762 0 1.076-.165.4.01.771-.089 1.134-.147.038.02.077.058.077.098a1.9 1.9 0 0 0-.45.929c-.293.303-.713.567-.743 1.007.05.216.235.01.362.03.06.01.098.058.098.117l-.294.43c-.156.255.03.547.03.793.07.194.303.293.508.293.441-.02.832-.186 1.222-.323.43-.186.968-.176 1.438-.099.46-.028.802-.331 1.144-.634.186 0 .352.126.48.263.527.567 1.212.811 1.983.793l.07-.04c.048-.049.028-.136-.03-.176l-.46-.234c-.323-.206-.723-.48-.83-.84a4.3 4.3 0 0 0-.47-.988c-.068-.158-.224-.285-.294-.441.02-.02.04-.05.07-.04.507.176.81.676 1.045 1.126.372.519.91.957 1.613.84l.06-.048a.1.1 0 0 0 0-.118z"/><path d="M3.41 42.408c.304-.176.5-.508.656-.791-.03-.109-.138-.187-.225-.266-.058-.047-.147-.008-.216.01a5 5 0 0 1-.674.48c-.098.069-.058.216-.078.323 0 .097.117.166.176.224.108.05.244.06.362.02m-1.027.029c-.157.077-.323.225-.361.4-.05.313.02.607-.226.832-.01.058-.068.126-.01.185.216.07.42.157.684.186.119-.382.206-.802.343-1.134v-.098c-.117-.146-.234-.333-.43-.371M17.215 41.4c.196.216.186.548.412.714.292.05.556-.068.781-.244.129-.107-.057-.244-.077-.372-.127-.185-.04-.557-.353-.567-.313.05-.624.06-.938.06l-.088.057c-.058.188.214.188.263.353m43.176 2.043c-.048-.224.01-.537-.137-.743-.127-.097-.244-.244-.41-.205-.137.117-.343.254-.313.459.117.352.196.606.264.969.04.067 0 .204.108.204l.625-.204c.109-.177-.097-.313-.137-.48M42.443 32.123l-.042.082-.046.073-.308.286-.33.309a3.7 3.7 0 0 0-.548.64c-.104.144-.183.312-.26.474-.023.048-.082.05-.115.038l-.018-.005-.006-.02a.6.6 0 0 1-.03-.199 1 1 0 0 1 .018-.176l.06-.244.03-.11c.189-.498.608-1.02 1.15-1.426a.4.4 0 0 1 .298-.045q.09.028.129.116a.25.25 0 0 1 .035.121.2.2 0 0 1-.017.085l.024.008zm-3.989 5.56l-.027.092a.3.3 0 0 1-.088.092.12.12 0 0 1-.129.002.3.3 0 0 1-.127-.1l-.042-.064-.035-.062c-.044-.076-.086-.133-.188-.124a.33.33 0 0 0-.216.072l-.063.048-.037.026-.103.07c-.004.002-.14.12-.14.12l-.06.05-.197.184c-.143.148-.22.283-.244.424l-.027.103-.009.045-.012.062c-.013.068-.038.144-.108.188a.18.18 0 0 1-.148-.028.13.13 0 0 1-.056-.102c-.04-.472.125-.914.454-1.213.167-.137.306-.302.422-.444l.128-.162.257-.32.03-.013c.186-.037.301.13.342.203.162.209.294.444.416.742q.01.03.01.067zm-.224 3.384l-.006.013a.4.4 0 0 1-.253.058l-.187-.021-.062-.01-.014-.004c-.187-.105-.233-.318-.254-.532q0-.109.072-.167l.012-.008h.012c.258 0 .453.076.577.228l.007.012.038.074.058.122.024-.009-.024.009a.3.3 0 0 1 .027.125.24.24 0 0 1-.027.11m20.831 1.87c-.499.029-.744-.509-1.036-.822-.246-.283-.724-.45-.714-.87-.089-.166-.109-.43-.186-.646-.07-.175-.137-.429-.372-.468-.42-.07-.928.05-1.192-.343-.274-.293.028-.636.077-.92.117-.362.127-.84.07-1.213-.01-.214-.157-.39-.119-.605.099-.186.333-.049.48-.03.547.157 1.193.08 1.69-.136.686-.333 1.233-1.027 1.204-1.82-.098-1.026-.831-1.867-1.624-2.531-.145-.127-.331-.265-.38-.45-.02-.4.43-.206.654-.303.275-.07.549-.137.773-.294.596-.4.723-1.104.606-1.788-.02-.06-.02-.148-.107-.148-.109.089-.216.216-.353.293-.38.226-.89.187-1.29.383-.5.214-1.114.517-1.33 1.084-.06.284.01.577.137.813.606.957 1.887 1.583 2.093 2.737.077.468-.157.811-.52 1.075-.546.333-1.367.216-1.915-.078-1.056-.529-1.976-1.409-3.11-1.77-.713-.323-1.593-.244-2.228-.743-.48-.313-.92-.724-1.457-.86-.372-.127-.792-.108-1.134-.294-.352-.313-.723-.606-1.135-.81-.566-.286-1.192-.43-1.818-.568-.371-.089-.508-.499-.811-.705-.52-.409-1.096-.704-1.8-.644-.293.02-.517.214-.743.41-1.495 1.31-3.207 2.21-4.575 3.705-.92.95-1.164 2.152-1.507 3.316-.488 1.759-.694 3.697-2.464 4.781-.03.05-.03.137.03.176.47.118.93-.069 1.242-.39.302-.48.627-.94 1.036-1.38l.098-.048c.048.009.108.039.088.108-.117.39-.47.674-.587 1.066-.156.468-.606.83-.987 1.162l-.01.06c0 .047.05.098.097.107.86.039 1.477-.577 2.054-1.154.06-.058.137-.048.216-.03.254.196.488.49.82.559.353-.05.724-.099 1.096-.07.518.157 1.016.373 1.535.548.264-.009.458-.264.596-.478.108-.254-.049-.51-.03-.753.128-.08.274.02.411-.02.058-.04.107-.109.107-.176-.097-.449-.497-.782-.626-1.204-.194-.537-.83-.86-.948-1.437.03-.04.078-.097.129-.059.419.303.791.704 1.309.783.392.04.792.077 1.183.048.06-.02.107-.088.087-.155-.165-.353-.321-.706-.42-1.086-.137-.48-.234-1.144-.077-1.672.03-.04.156-.115.214-.096.079.02.175.115.185.184.059.832-.027 1.594.47 2.248.215.343.587.41.851.676a.57.57 0 0 1 .05.517l-.597.882c-.137.196-.274.41-.323.624-.05.246-.02.48 0 .716-.04.018-.058-.04-.097-.06-.157-.323-.333-.733-.167-1.114l.752-1.165.031-.087a2.2 2.2 0 0 0-.529-.216c-.087.04-.147.127-.206.206l-.732 1.33c-.05.156-.099.273-.059.44.04.196.087.392.176.557.058.274.107.46.234.705.187.205.44.019.676.078.234.059.322.341.557.41.528.176 1.095.274 1.622.48.275.087.666.194.91-.03.342-.186.43-.547.49-.89.106-.147.32-.087.477-.137.295-.196.39-.547.607-.81l.04-.137c-.03-.09-.108-.139-.187-.167h-.997c-.46.058-.498.567-.694.88-.109.195-.323.272-.547.254-.47-.127-1.047-.196-1.263-.704-.03-.127-.03-.283.07-.372.244-.284.537-.607.84-.84.43-.088.85-.411 1.076-.793.117-.167.098-.41.294-.538.057-.01.189-.014.228.044.089.284-.072.487-.16.732 1.067.107 1.894-.2 2.929-.162.44 0 .835.05 1.265.021.43-.018.9-.196 1.037-.646.196-.575-.077-1.231-.175-1.778l.118-.093c.07-.04.183.014.233.053.185.518.312 1.145.39 1.71.08.5.294.825.567 1.245.498.743 1.38 1.037 2.25.85 1.055-.077 1.965.478 2.61 1.3v.049c-.02.04-.059.089-.108.079-.557-.43-1.114-.89-1.828-.98-.722-.13-1.37.246-2.122-.057-.907-.299-1.288-.857-1.672-1.75h-.079c-.058.01-.096.067-.107.127l.099.606c.117.488.273 1.066.8 1.29.411.245.813.597 1.321.46.89-.196 1.79.058 2.474.558.224.126.4.36.644.45a.82.82 0 0 0 .803-.127c.498-.167.616.458.958.684.303.293.908.172 1.31.172l-.01-.046a3.5 3.5 0 0 0-.312-1.064"/><path d="M44.913 41.108c-.264.05-.567-.01-.831.03-.117.176-.224.39-.195.626.028.244.302.264.478.331.167.02.41.08.5-.097a3.8 3.8 0 0 0 .224-.803c-.018-.077-.097-.107-.176-.087m13.893.303c-.194-.166-.4.08-.498.225.068.235.264.43.41.646a.46.46 0 0 0 .343.205c.136 0 .244-.069.342-.148.069-.087.146-.194.117-.321-.185-.254-.48-.412-.714-.607"/></g><path fill="#fff" d="M37.522 5.118h-4.54L31.516.716l-1.465 4.402h-4.539l3.723 2.612-1.387 4.348 3.669-2.675 3.668 2.675-1.387-4.348z"/><g fill="#fad105"><path d="M31.515 8.79l2.735 1.995-1.035-3.252 2.736-1.92h-3.328l-1.108-3.327-1.107 3.327H27.08l2.736 1.92-1.035 3.252z"/><path d="M31.515 8.79l2.735 1.995-1.035-3.252 2.736-1.92h-3.328l-1.108-3.327-1.107 3.327H27.08l2.736 1.92-1.035 3.252z"/></g></g></svg>