<svg xmlns="http://www.w3.org/2000/svg" width="301.681" height="331.476" viewBox="0 0 60.571 66.398"><g stroke-width="7.407"><path fill="#fff" d="M51.923 9.646c-.653-.27-22.35-9.097-47.209.083 0 0-3.864 39.327 23.529 52.688 0 0 24.621-8.236 23.696-52.772"/><path fill="#009747" d="M9.896 10.728c-.234-1.008-.823-1.675-1.573-1.96-.684-.273-1.375-.313-2.465-.061l-3.452.944-.115 6.09 4.756-1.106c2.385-.552 3.229-2.27 2.85-3.907m5.263 9.826-2.112-9.103c-.024 1.968-1.072 3.756-2.967 4.894l4.725 5.157"/><path fill="#eb1923" d="m19.385 20.333 7.524-1.747-2.95-12.719-5.107 13.703c.183.248.353.51.532.764"/><path fill="#009747" d="m13.117 24.645-6.2-7.223-4.02.933 1.906 8.218zm2.922-.295L4.886 26.939l2.52 10.856 11.152-2.587z"/><path fill="#eb1923" d="m27.623 21.664-1.613.375.13.105a.28.28 0 0 1 .271-.092c.177.037.237.208.214.367a1 1 0 0 1-.026.103v.081a.2.2 0 0 1-.003.101c-.01.367-.038.731-.124 1.09-.065.275-.407.216-.496 0a2.1 2.1 0 0 0-.726-.903.3.3 0 0 1-.158 0q-.04.134-.093.266c-.072.18-.173.373-.181.57-.007.159-.16.303-.326.248-.425-.143-.844-.302-1.264-.46-.098-.036-.196-.08-.223-.195a3 3 0 0 1-.084-.544v-.02l-6.488 1.504 2.52 10.856 11.19-2.596M15.414 19.873l5.498-14.681-.34.08-8.108 1.881z"/><path fill="#211e1e" fill-rule="evenodd" d="M40.36 26.602c-.335-3.99-4.728-5.292-7.2-5.904 3.092.128 7.06 1.513 8.599 4.88-.328.583-1.146.426-1.4 1.024m-9.533-11.875c-.278-.025-.637.157-.854-.024.814-.635 2.04-1.662 3.19-1.751-.951.79-1.874 1.585-2.191 2.51-.26-.29.036-.462-.145-.735m24.216 3.57c-.97-.513-1.791-2.575-2.399-3.815l-.001.163c-.868-1.098-1.823-1.97-2.887-2.567.625-.01 1.03.061 1.135-.192-.341-.478-4.626-2.405-6.803-2.336-.076-.128-.426-.137-.482-.25-.347.051-.408-.045-.728-.051-.367-.007-.719-.089-1.083-.092a6 6 0 0 1-.27 0c-.134.01-.267.017-.399.03q-.402.037-.805.087a3.1 3.1 0 0 1-1.03-.047 3 3 0 0 1-.384.08l.001.008c-3.31.607-9.322.813-11.16 4.447-3.419 1.002-7.107 1.524-10.436 3.036.666 1.206 1.655 3.405 2.97 3.68.223.926 1.075 1.697 1.886 1.807-.176-.716-.514-1.465.256-1.98.444.042.792.332 1.22.415.167-.304.327-.61.608-.89.406.14.8.309 1.22.415 1.21-2.04 4.034-.632 4.517 1.269-1.42.759-2.333.222-3.424.135-.246.288-.157.646-.607.89-.403-.072-.673-.487-1.112-.47-.482.263-.299.667-.875.91-.551-.194-.935-.767-1.093-1.404-.58.633-.528 1.4-.58 2.146-2.518 1.968 2.532 2.214 3.356 3.135-.12-.365-.283-.738-.192-1.058.628.088 1.118.53 1.808.461-.067-.3-.125-.6.072-.846 2.044-.018 7.014-.257 8.656 1.555 1.486 2.23 3.78 2.47 5.378 4.274 1.715-.781 3.445-2.14 5.291-2.53a32 32 0 0 1 2.718-.44c1.09-.585 2.18-1.168 3.273-1.73a345 345 0 0 1 6.609-3.291c-1.324-1.838-2.215-3.892-4.224-4.954"/><path fill="#fff" d="M30.77 14.448q.042 0 .082.004l.132.011.073.111.033.053c.228-.337.522-.66.859-.981-.42.228-.83.52-1.199.802zM31.08 16l-.315-.353c-.227-.253-.19-.486-.165-.627l-.054.009c-.1.015-.204.032-.311.032a.66.66 0 0 1-.44-.145l-.265-.22.271-.212.185-.145c.846-.664 2.005-1.574 3.155-1.663l.87-.068-.672.558c-.985.818-1.823 1.561-2.106 2.386zm6.106 5.846q.265.144.522.302c1.596.992 2.552 2.285 2.85 3.85.13-.077.268-.13.393-.18.195-.076.37-.144.488-.269-.877-1.8-2.494-2.988-4.253-3.703m2.991 5.895-.093-1.116c-.302-3.593-4.134-4.95-6.991-5.658l-2.664-.66 2.743.114c1.743.072 3.517.518 4.994 1.254 1.792.894 3.12 2.204 3.846 3.789l.058.128-.069.122c-.208.372-.564.51-.849.622-.28.109-.457.186-.537.374zm-17.155-6.735.124.503c.136.55.443.986.814 1.166.137-.08.185-.173.254-.304.088-.17.198-.382.497-.545l.057-.031.066-.003c.331-.012.576.146.79.285.1.064.195.127.288.162.115-.088.154-.191.207-.334.05-.135.108-.288.235-.436l.09-.107.142.011c.296.024.578.08.85.132.352.068.685.133 1.041.133.403 0 .781-.086 1.176-.267-.368-1.007-1.484-1.85-2.502-1.85-.607 0-1.106.3-1.442.866l-.105.179-.201-.051c-.301-.077-.588-.183-.865-.285l-.208-.077c-.171.203-.291.422-.417.65l-.125.227-.197-.038a2.8 2.8 0 0 1-.615-.219c-.165-.073-.32-.145-.482-.177-.375.3-.313.674-.153 1.268a2.2 2.2 0 0 1 .331-.477zm6.112 4.11c2.386 0 5.715.173 7.067 1.665l.015.016.01.017c.79 1.185 1.803 1.774 2.876 2.397.802.467 1.63.948 2.338 1.694.536-.256 1.07-.562 1.633-.884 1.13-.649 2.302-1.32 3.535-1.58a32 32 0 0 1 2.69-.438l.113-.06a199 199 0 0 1 3.12-1.647 329 329 0 0 1 6.316-3.149c-.795-1.084-1.659-2.147-2.496-3.179-.505-.622-1.027-1.264-1.528-1.905-.13-.166-.263-.333-.404-.51-.583-.73-1.23-1.54-1.732-2.401l-.264-.334c-.868-1.1-1.812-1.94-2.804-2.497l-.896-.503 1.027-.017a17 17 0 0 1 .564.002c-.418-.244-1.18-.622-2.193-1.013-1.583-.613-3.012-.964-3.92-.964l-.106.001-.162.006-.065-.11a1 1 0 0 0-.118-.04 1 1 0 0 1-.234-.094l-.097.004c-.123 0-.216-.019-.297-.035a1.3 1.3 0 0 0-.251-.031 5 5 0 0 1-.556-.048 5 5 0 0 0-.522-.044l-.201.002h-.067c-.12.006-.25.015-.376.026-.253.024-.514.052-.796.086-.356.043-.713.03-1.055-.037l-.062.015.002.01-.28.051c-.55.101-1.172.19-1.83.286-1.688.243-3.602.52-5.301 1.111-1.932.673-3.186 1.623-3.833 2.903l-.055.107-.115.034c-1.156.339-2.363.628-3.53.907-2.207.53-4.487 1.075-6.597 1.995l.138.259c.628 1.184 1.488 2.805 2.501 3.017l.172.036.041.17c.152.626.656 1.21 1.223 1.47-.156-.606-.257-1.305.497-1.808l.082-.055.098.01c.287.027.525.134.755.238.103.047.203.092.302.126.142-.254.301-.513.548-.759l.123-.122.163.056q.199.069.39.14c.211.079.413.153.619.216.436-.62 1.068-.958 1.802-.958 1.341 0 2.764 1.135 3.106 2.479l.054.21-.192.103c-.554.296-1.075.433-1.642.433-.409 0-.784-.073-1.147-.143a9 9 0 0 0-.627-.106q-.033.069-.064.156c-.076.204-.181.485-.55.684l-.085.046-.096-.017c-.234-.041-.42-.162-.586-.27-.144-.094-.272-.176-.404-.193-.106.074-.15.159-.212.278-.102.196-.23.44-.628.608l-.1.041-.1-.035c-.452-.159-.833-.537-1.077-1.051-.167.376-.189.794-.21 1.232q-.007.156-.017.319l-.009.123-.098.076c-.413.323-.622.61-.587.806.079.435 1.245.804 2.096 1.073.448.142.863.273 1.202.42a1.1 1.1 0 0 1 .017-.516l.066-.232.238.034c.292.04.546.144.792.243.217.09.426.174.644.207-.024-.238 0-.5.19-.735l.082-.102.13-.001.542-.008c.373-.006.796-.012 1.256-.012m12.167 6.463-.136-.154c-.68-.768-1.487-1.238-2.343-1.735-1.075-.625-2.186-1.271-3.045-2.551-1.358-1.469-5.334-1.469-6.643-1.469a78 78 0 0 0-1.633.018c-.041.129-.011.294.037.51l.068.306-.31.03a2 2 0 0 1-.173.01c-.399 0-.726-.134-1.043-.263-.12-.048-.238-.097-.356-.135.025.14.08.299.136.463l.055.16.417 1.263-.887-.992c-.22-.245-.973-.483-1.637-.694-1.148-.362-2.336-.738-2.474-1.503-.073-.403.154-.816.693-1.262l.01-.188a6.5 6.5 0 0 1 .078-.836c-.89-.127-1.764-.923-2.06-1.853-1.184-.376-2.062-2.031-2.71-3.255-.099-.185-.192-.36-.278-.517l-.145-.263.273-.123c2.234-1.015 4.64-1.592 6.97-2.15 1.121-.269 2.28-.546 3.39-.868.728-1.359 2.067-2.363 4.089-3.067 1.75-.61 3.691-.89 5.404-1.138a57 57 0 0 0 1.537-.234l-.003-.015.283-.042q.175-.025.352-.073l.065-.018.066.014c.302.066.62.08.937.043.287-.035.553-.064.812-.088.14-.013.28-.022.409-.03h.018l.018.001h.049l.199-.002h.005c.202.002.397.026.586.048.173.022.335.041.5.044.155.003.263.025.349.042a.9.9 0 0 0 .333.012l.2-.03.063.129c.026.01.061.02.088.028.089.028.191.06.278.118h.009c1.341 0 3.174.634 4.147 1.012 1.157.45 2.517 1.092 2.766 1.442l.09.126-.06.142c-.09.218-.279.307-.476.341q.883.637 1.698 1.552l.001-.59.523 1.064c.496 1.011.588 2.29 1.308 3.193.142.177.276.345.408.513.498.637 1.671.933 2.175 1.553.91 1.121 1.852 2.281 2.709 3.47l.192.267-.296.144a341 341 0 0 0-6.603 3.289c-1.039.533-2.092 1.097-3.112 1.642l-.203.11-.052.006c-.987.12-1.868.263-2.694.437-1.149.242-2.28.89-3.375 1.518-.609.35-1.239.71-1.86.993"/><path fill="#211e1e" fill-rule="evenodd" d="M36.355 9.737s6.778-3.265 9.192-4.953c2.412-1.687-1.835 6.97-4.153 7.6"/><path fill="#fff" d="M41.394 12.662a.277.277 0 0 1-.073-.545c1.137-.31 3.031-3.03 4.088-5.379.523-1.162.598-1.707.577-1.883a1.2 1.2 0 0 0-.28.157c-2.405 1.68-8.953 4.841-9.23 4.975a.278.278 0 0 1-.241-.5c.068-.032 6.785-3.275 9.153-4.93.246-.172.608-.38.905-.198.318.195.251.658.23.81-.128.887-.91 2.614-1.903 4.199-.683 1.092-2.001 2.97-3.153 3.284a.3.3 0 0 1-.073.01"/><path fill="#211e1e" d="m53.938 17.553 5.767 2.343-.415 2.17-5.571.289z"/><path fill="#fff" d="m54.048 17.726-.204 4.503 5.347-.278.379-1.982zm-.454 4.754.232-5.1 6.014 2.442-.45 2.357"/><g fill="#211e1e"><path d="m20.322 58.517-4.951-3.48-2.267-8.28 3.79-1.038zm7.73 3.585-3.79 1.038-5.057-18.479 3.788-1.038zm6.666-1.339-3.79 1.037-5.11-18.665 3.79-1.037zm5.605-4.317-3.789 1.037-5.054-18.461 3.79-1.037zm4.781-6.844-3.789 1.037-4.29-15.67 3.79-1.036zm3.418-6.887-2.667.73-3.27-11.95 2.666-.73z"/><path d="m2.038 53.444 14.998 1.698-5.046-5.239"/></g><path fill="#fff" d="m2.562 53.383 14.16 1.603-4.763-4.946zm14.462 1.876-15-1.697-.026-.23 9.953-3.541.125.03 5.046 5.237"/><path fill="#fff" d="m51.756 9.663-.364.092.146.057c.444 22.797-5.962 35.808-11.423 42.714-5.549 7.016-11.265 9.317-12.015 9.596C14.273 55.335 8.669 41.733 6.402 31.506 3.883 20.14 4.765 10.203 4.804 9.786l.006-.072-.036-.06-.012-.02c-.056.047-.124.083-.183.127-.106 1.145-3.44 39.454 23.508 52.597 0 0 24.533-8.207 23.668-52.551z"/><path fill="#211e1e" d="M28.087 62.359C1.131 49.21 4.475 10.889 4.58 9.764l-.001-.003C29.263.645 50.84 9.285 51.75 9.666l.003-.004c.92 44.473-23.666 52.697-23.666 52.697M54.33 5.637h-.01c-.887-.377-23.97-10.309-52.154.097l-.005.002.003.006c-.087.69-5.478 44.407 25.879 59.677 0 0 28.984-9.244 26.288-59.781"/><path fill="#fff" d="M4.803 9.932c7.412-2.718 15.27-4.096 23.357-4.096 5.605 0 11.178.65 16.566 1.934 3.79.902 6.2 1.822 6.793 2.058.44 22.802-5.973 35.811-11.44 42.712-3.095 3.908-6.218 6.31-8.292 7.638-1.932 1.236-3.328 1.79-3.685 1.923-13.816-6.785-19.417-20.378-21.684-30.6-1.048-4.726-1.64-9.739-1.763-14.9-.083-3.565.094-6.021.148-6.67M28.577.759A76.3 76.3 0 0 0 2.075 5.513a.24.24 0 0 0-.152.239C1.817 6.62.57 17.502 3.079 30.158c1.489 7.516 4.004 14.149 7.477 19.717 2.06 3.302 4.485 6.262 7.206 8.796a41.6 41.6 0 0 0 10.177 6.96.23.23 0 0 0 .176.013c.075-.024 1.87-.605 4.54-2.258a36 36 0 0 0 4.572-3.378 41 41 0 0 0 5.156-5.38c4.03-5.035 7.128-11.18 9.205-18.263 1.233-4.202 2.115-8.786 2.624-13.624.558-5.32.678-11.078.356-17.117a.24.24 0 0 0-.186-.22c-.75-.317-3.45-1.403-7.604-2.439a74 74 0 0 0-8-1.523A77 77 0 0 0 28.577.76m-.49 61.598s24.586-8.224 23.665-52.697l-.002.005c-.599-.25-10.124-4.068-23.59-4.068-7.024 0-15.122 1.038-23.583 4.163l.002.003C4.474 10.888 1.13 49.211 28.087 62.36m.49-61.361c14.951 0 25.16 4.39 25.744 4.639h.01c2.697 50.537-26.288 59.78-26.288 59.78C-3.314 50.149 2.077 6.432 2.165 5.742l-.004-.007.005-.001A76 76 0 0 1 28.578.997"/><path fill="#fff" d="M51.756 9.663c-.599-.25-10.127-4.065-23.593-4.065-7.022 0-15.127 1.04-23.586 4.164l.218.13c7.458-2.755 15.225-4.097 23.368-4.097a71.5 71.5 0 0 1 16.572 1.936c4.302 1.025 6.693 2.04 6.798 2.084"/><path fill="#211e1e" d="m2.426 52.91 49.192-14.498s6.8-1.73 7.172-8.4l.529-9.488L8.159 36.35s-4.564.823-5.213 7.252c-.65 6.43-.519 9.31-.519 9.31"/><g fill="#fff"><path d="m59.789 19.92-.6.186L8.052 35.923c-.202.042-1.334.312-2.535 1.303-1.178.973-2.656 2.861-3.006 6.33-.646 6.387-.526 9.254-.52 9.373l.025.557.534-.158 49.184-14.497c.152-.04 1.839-.5 3.586-1.767 2.395-1.736 3.745-4.167 3.905-7.03l.529-9.489zm-.47.602-.53 9.49c-.371 6.669-7.17 8.399-7.17 8.399L2.425 52.91s-.131-2.88.518-9.31c.65-6.43 5.215-7.252 5.215-7.252l51.159-15.826"/><path d="m11.721 37.328 1.479-.439 4.093 7.354-.658-7.231q-.11-1.28.82-1.558.903-.268 1.512.863l3.412 6.412-.6-8.395 1.477-.442.674 9.656q.082 1.14-.878 1.424-1 .298-1.527-.706l-3.333-6.296.656 7.094q.11 1.127-.864 1.418-.486.144-.88-.033-.393-.176-.66-.671m15.201-12.296-.25 5.02 3.259-.971zm-2.04 9.402.614-10.04q.045-.662.219-.963t.605-.43q.47-.14.787.008.316.148.733.687l5.996 8.07-1.561.47-1.366-1.862-4.337 1.292-.14 2.305m18.607-5.541-4.285 1.277q-.914.271-1.763-.245-.848-.517-1.142-1.502l-1.528-5.13q-.33-1.109.091-1.973.422-.866 1.46-1.176l4.216-1.255.433 1.456-4.02 1.198q-1.04.308-.73 1.349l1.483 4.977q.136.458.518.675.383.219.84.083l3.993-1.19M37.557 58.576l-.144-.164c.194-.17.29-.255.48-.428l.044-.04q.07-.063-.02-.16l-.068-.073q-.084-.09-.181-.001l-.228.205a.38.38 0 0 1-.214.11.25.25 0 0 1-.12-.019.25.25 0 0 1-.1-.068c-.042-.05-.064-.074-.108-.123a.3.3 0 0 1-.086-.216.3.3 0 0 1 .11-.204c.206-.184.307-.277.51-.466l.148.16c-.185.171-.278.257-.466.425l-.033.03a.1.1 0 0 0-.034.065.1.1 0 0 0 .026.07l.063.07q.03.036.078.034a.14.14 0 0 0 .086-.037c.1-.089.148-.134.247-.224a.32.32 0 0 1 .226-.086.28.28 0 0 1 .214.09l.14.151a.27.27 0 0 1 .07.205.3.3 0 0 1-.093.204c-.217.198-.326.296-.547.49m.967-.88-.897-.95.159-.15q.45.472.902.943zM37.4 56.57a.15.15 0 0 1-.044-.108q0-.06.046-.103a.15.15 0 0 1 .11-.044.15.15 0 0 1 .107.047q.044.044.042.108a.15.15 0 0 1-.048.105.14.14 0 0 1-.108.042.14.14 0 0 1-.105-.047m1.522.742-.677-.694a.33.33 0 0 1-.102-.272q.013-.11.133-.229l.247-.248a.4.4 0 0 1 .23-.136.3.3 0 0 1 .141.017q.07.024.131.085l.698.673c-.063.065-.094.098-.158.162l-.673-.657-.043-.042a.1.1 0 0 0-.053-.015q-.052.005-.11.064c-.1.102-.151.153-.253.254q-.062.061-.063.106 0 .045.055.102l.66.67zm1.643-1.705-.356.389a.4.4 0 0 1-.254.134.3.3 0 0 1-.246-.084l-.468-.443a.4.4 0 0 1-.096-.128.26.26 0 0 1-.007-.139.45.45 0 0 1 .113-.227c.137-.148.206-.223.34-.373l.162.146c-.136.15-.204.226-.344.375a.15.15 0 0 0-.043.104.14.14 0 0 0 .049.1l.414.387a.16.16 0 0 0 .225-.004l.35-.382zm-.371-.972.198.173c.084-.274.124-.411.2-.685l-.016-.014q-.047-.04-.084-.035-.037.006-.088.066l-.237.275q-.097.112.027.22m1.285-.082c-.196.235-.295.352-.496.583a.38.38 0 0 1-.25.141.32.32 0 0 1-.255-.09l-.436-.389q-.28-.248-.013-.555l.215-.25a.36.36 0 0 1 .234-.14q.126-.014.248.088l.119.099c-.103.37-.158.556-.273.927l.032.029.047.03.033.017.024.007q.05.01.117-.065c.198-.227.295-.34.487-.571zm.965-1.207-1.382-1.057.152-.2 1.39 1.046c-.064.085-.095.127-.16.21m-.164-1.306a.23.23 0 0 0 .106-.083l.25-.353a.2.2 0 0 0 .042-.124.12.12 0 0 0-.056-.097l-.258-.179a.15.15 0 0 0-.125-.018.2.2 0 0 0-.114.08l-.25.351a.14.14 0 0 0-.025.105.13.13 0 0 0 .054.094l.262.19q.069.05.115.034m.557.78-.204-.15c.21-.284.311-.427.513-.715a.18.18 0 0 0 .038-.125q-.005-.06-.066-.102l-.176-.122c-.139.2-.21.3-.351.499a.42.42 0 0 1-.276.188.36.36 0 0 1-.282-.065l-.282-.208a.4.4 0 0 1-.154-.252.35.35 0 0 1 .056-.277c.115-.16.172-.24.286-.403a.4.4 0 0 1 .253-.17.38.38 0 0 1 .295.063l.784.534a.4.4 0 0 1 .184.255.4.4 0 0 1-.086.307c-.208.3-.315.448-.532.743m.974-1.39-.21-.14c.168-.254.252-.382.415-.639a.15.15 0 0 0 .023-.108.13.13 0 0 0-.058-.088l-.16-.1q-.142-.09-.23.047l-.19.295-.212-.138.188-.294a.2.2 0 0 0 .026-.072.14.14 0 0 0 .002-.066q-.013-.042-.084-.088l-.16-.1a.13.13 0 0 0-.103-.016.14.14 0 0 0-.088.062 33 33 0 0 1-.402.616l-.204-.136c.156-.235.233-.353.385-.592a.44.44 0 0 1 .251-.203.34.34 0 0 1 .273.037l.213.132q.046.03.082.07.036.042.047.084c.008.028.003.128.003.128.004.002.057-.032.06-.033a.2.2 0 0 1 .047-.017.24.24 0 0 1 .101.003.3.3 0 0 1 .105.042c.085.053.128.078.213.132a.32.32 0 0 1 .152.24.47.47 0 0 1-.08.32c-.159.25-.24.375-.405.622m.871-1.369-1.49-.9.13-.217 1.495.888zM10.228 4.306l.352-.083c.335.678.5 1.018.829 1.7-.015-.653-.021-.978-.03-1.631q-.005-.289.22-.339.216-.048.335.216c.267.596.399.894.66 1.491.01-.756.017-1.134.035-1.89l.354-.073c-.026.87-.037 1.304-.052 2.173q-.004.257-.226.304-.232.049-.333-.184c-.257-.586-.387-.878-.65-1.462.01.64.014.96.028 1.6q.008.254-.219.305a.28.28 0 0 1-.199-.02.32.32 0 0 1-.14-.158c-.38-.782-.574-1.171-.964-1.95m4.32.82q.033.173.109.222.076.048.267.013l.36-.064q.189-.033.245-.103.056-.071.026-.244c-.071-.42-.107-.629-.18-1.049q-.027-.165-.108-.218-.08-.052-.27-.02l-.368.066q-.19.035-.247.108-.06.073-.027.246zm.488.561q-.246.044-.358.033a.5.5 0 0 1-.23-.1q-.18-.13-.24-.446l-.193-1.01a1 1 0 0 1-.017-.283.6.6 0 0 1 .087-.226.46.46 0 0 1 .181-.17q.11-.055.356-.1l.26-.046q.255-.045.367-.032a.5.5 0 0 1 .235.102q.187.135.238.45l.17 1.015a1 1 0 0 1 .013.282.55.55 0 0 1-.09.225.47.47 0 0 1-.182.167 1.4 1.4 0 0 1-.345.094zm3.517-.546c-.351.045-.526.07-.877.12q-.3.042-.48-.084-.18-.125-.225-.41l-.262-1.728.347-.053.255 1.727q.02.142.087.188t.223.023c.355-.05.532-.074.888-.121zm.877-.111-.204-1.711q-.041-.341.131-.519a.5.5 0 0 1 .176-.115q.096-.034.31-.057c.362-.04.542-.06.903-.096l.034.34c-.374.036-.561.056-.936.097l-.103.012a.25.25 0 0 0-.107.051q-.083.072-.067.206c.019.17.03.254.05.423.49-.056.734-.082 1.225-.13l.033.339a68 68 0 0 0-1.22.13l.114.99zm2.404-.249-.03-.34c.379-.032.568-.048.947-.076a.24.24 0 0 0 .156-.068.17.17 0 0 0 .056-.14l-.021-.294a.17.17 0 0 0-.078-.14.3.3 0 0 0-.189-.04c-.143.01-.214.017-.357.028a.64.64 0 0 1-.422-.1.42.42 0 0 1-.193-.324l-.026-.29a.64.64 0 0 1 .027-.283.46.46 0 0 1 .155-.196.5.5 0 0 1 .148-.081 1 1 0 0 1 .207-.036c.393-.031.59-.046.983-.072l.023.34c-.4.026-.598.04-.997.072q-.215.019-.2.21l.02.232q.02.24.246.221l.42-.032a.58.58 0 0 1 .391.105.4.4 0 0 1 .18.307l.026.366a.5.5 0 0 1-.126.38.52.52 0 0 1-.368.172c-.39.029-.588.045-.978.079m2.806-1.19.033.655c.308-.015.462-.022.77-.034a.24.24 0 0 0 .167-.082.24.24 0 0 0 .071-.176l-.008-.22q-.003-.063-.067-.113a.27.27 0 0 0-.182-.065c-.314.012-.47.02-.784.035m-.05-1.002.034.662c.316-.016.474-.023.79-.036a.25.25 0 0 0 .173-.066.21.21 0 0 0 .059-.165l-.008-.223a.2.2 0 0 0-.076-.152.26.26 0 0 0-.177-.055c-.317.012-.477.02-.794.035m-.241 2.014-.126-2.336c.491-.027.737-.038 1.23-.056q.232-.01.375.139a.6.6 0 0 1 .11.162q.042.09.045.172l.009.282a.5.5 0 0 1-.024.158.4.4 0 0 1-.055.127c-.021.028-.115.105-.114.106 0 .003.027.015.041.025l.04.025c.036.023.07.071.094.127a.5.5 0 0 1 .04.171l.008.222q.007.26-.14.436c-.148.176-.226.181-.382.187-.46.018-.69.028-1.151.053m4.276-.108a56 56 0 0 0-.912.002.8.8 0 0 1-.274-.036.5.5 0 0 1-.2-.127.5.5 0 0 1-.122-.188.9.9 0 0 1-.039-.27L27.06 2.75q-.006-.335.216-.49a.5.5 0 0 1 .184-.08q.098-.02.297-.022c.353-.003.53-.004.883-.003 0 .136 0 .204-.002.34a69 69 0 0 0-1.019.004.2.2 0 0 0-.152.075.27.27 0 0 0-.06.18l.006.4c.49-.006.735-.008 1.224-.006l-.001.34c-.488 0-.732 0-1.22.007l.005.312.002.145a.2.2 0 0 0 .071.145.25.25 0 0 0 .122.061l.185-.002c.33-.002.496-.003.827-.002zm1.033.01c.017-.936.024-1.404.039-2.34.49.009.736.014 1.227.03a.52.52 0 0 1 .388.185.4.4 0 0 1 .085.14.6.6 0 0 1 .016.178L31.4 3.1a.44.44 0 0 1-.15.311.44.44 0 0 1-.321.127l-.404-.013c.34.408.508.613.838 1.025l-.453-.017a64 64 0 0 0-.828-1 .16.16 0 0 1-.042-.119.23.23 0 0 1 .073-.174.27.27 0 0 1 .191-.061l.523.014a.24.24 0 0 0 .158-.049.17.17 0 0 0 .07-.13l.01-.26q.007-.216-.21-.223c-.325-.01-.487-.013-.812-.02L30 4.509zm4.473-1.131c-.02.287-.032.43-.054.718a.8.8 0 0 1-.044.231.5.5 0 0 1-.107.171.5.5 0 0 1-.206.143.7.7 0 0 1-.28.025l-.469-.03a.65.65 0 0 1-.398-.147.56.56 0 0 1-.16-.207.7.7 0 0 1-.03-.288l.058-1.117q.032-.614.676-.576c.372.023.559.035.93.062l-.023.34a65 65 0 0 0-.96-.064q-.14-.009-.204.047-.063.054-.071.19c-.026.463-.038.695-.065 1.157a.3.3 0 0 0 .041.181.17.17 0 0 0 .132.076l.091.006.476.03a.27.27 0 0 0 .188-.049.22.22 0 0 0 .081-.17l.053-.755zm2.501 1.569c-.362-.04-.544-.06-.908-.095a.9.9 0 0 1-.27-.063.5.5 0 0 1-.186-.149.5.5 0 0 1-.102-.2.9.9 0 0 1-.009-.272l.1-1.122q.03-.333.268-.464a.5.5 0 0 1 .192-.06q.099-.01.298.009c.352.034.527.052.879.091l-.037.338a61 61 0 0 0-.869-.09l-.146-.015a.2.2 0 0 0-.16.059.27.27 0 0 0-.079.173l-.037.399c.488.045.732.07 1.22.123l-.037.338a63 63 0 0 0-1.215-.122l-.029.31-.013.145a.2.2 0 0 0 .055.152.25.25 0 0 0 .115.073l.183.018c.33.033.495.05.825.086zm1.027.12.288-2.323c.488.06.731.093 1.219.16a.52.52 0 0 1 .367.226.4.4 0 0 1 .07.148.5.5 0 0 1-.002.18l-.059.4a.44.44 0 0 1-.182.292.44.44 0 0 1-.334.092c-.16-.022-.241-.034-.402-.055.296.441.442.663.728 1.107l-.45-.063a64 64 0 0 0-.719-1.083.16.16 0 0 1-.03-.124.23.23 0 0 1 .092-.165.26.26 0 0 1 .196-.04c.208.027.313.04.52.07a.24.24 0 0 0 .163-.032.17.17 0 0 0 .084-.123l.037-.256q.03-.214-.185-.245a69 69 0 0 0-.808-.107L38 5.105zm5.419-1.058c-.233.388-.35.583-.58.973.307.057.46.087.767.147-.073-.447-.11-.672-.187-1.12m-1.395 1.664c.459-.78.692-1.167 1.166-1.94a.5.5 0 0 1 .148-.168.24.24 0 0 1 .172-.022.27.27 0 0 1 .162.085q.05.062.08.213c.15.894.222 1.34.357 2.234l-.365-.073-.076-.514c-.406-.08-.61-.12-1.016-.195l-.266.446zm4.356.91c-.395-.094-.593-.14-.989-.23a.48.48 0 0 1-.325-.241.57.57 0 0 1-.063-.42l.257-1.173a.57.57 0 0 1 .238-.376.54.54 0 0 1 .43-.066c.403.09.604.137 1.005.234-.032.132-.047.199-.08.331-.38-.091-.572-.137-.954-.224q-.246-.054-.3.183c-.1.455-.153.682-.254 1.137a.24.24 0 0 0 .188.298c.372.084.556.128.926.217z"/></g></g></svg>