<svg viewBox="20.72 19.45 752.28 755.91" xmlns="http://www.w3.org/2000/svg"><g fill-rule="evenodd"><path d="m136.487 116.9 60.757-66.84 400.597.29 61.928 67.453c1.02 1.11 1.18 1.996.318 3.288-62.273 93.423-34.056 201.717-20.644 268.91 21.36 107.019-64.433 156.282-150.22 182.74-43.81 13.513-76.915 37.79-91.706 51.158-40.285-36.421-73.686-44.456-114.94-59.254-60.321-21.64-107.708-53.95-124.1-104.284-8.654-26.578-7.451-49.842-.334-82.292 18-82.074 33.003-175.813-22.545-256.921-.863-1.772-.44-2.755.89-4.248" fill="#277fc9"/><g fill="#fff"><path d="m363.728 496.945-4.17 19.812c12.267 2.532 24.652 3.914 37.181 3.826 13.019-.092 25.913-1.074 38.678-3.736l-4.153-19.689c-20.368 4.322-42.036 5.459-67.536-.213m86.051 87.974-3.213 1.63-3.336 1.751-3.256 1.767-3.173 1.78-3.09 1.786-3.006 1.791-2.92 1.79-2.832 1.785-2.744 1.777-2.653 1.765-2.564 1.75-2.469 1.729-2.376 1.704-2.279 1.677-2.185 1.644-2.084 1.608-1.99 1.57-1.884 1.527-1.786 1.479-1.682 1.426-.736.642-1.5-1.33-3.77-3.217-3.738-3.064-3.707-2.914-3.68-2.774-3.651-2.638-3.631-2.51-3.61-2.389-3.59-2.27-3.574-2.162-3.562-2.057-3.549-1.959-3.54-1.868-3.533-1.782-3.528-1.707-.084-.038 3.023-14.364c16.45 3.387 33.052 4.97 49.83 4.874a253.848 253.848 0 0 0 48.54-4.96zm-293.586-153.15-.065-.812-.141-2.358-.07-1.707 200.817 79.386-.928 4.403zm2.259-37.348.197-1.177.499-2.788.123-.654 198.725 110.472-.954 4.543zm7.865-38.4.13-.646.82-4.172 192.11 142.517-1.005 4.776zm7.627-44.6.59-4.395.128-1.08 192.96 186.793-.514-.103-7.178-1.543-.066.31zm3.972-59.87-.02-2.378-.175-5.003 198.426 250.08h-.012l-2.226-.349-2.245-.384-2.065-.384zm-34.136-137.551 3.107-3.419 235.05 384.417-1.415-.158-2.182-.279-2.045-.29z"/><path d="m176.258 78.27 3.21-3.53 206.134 420.616-.77-.064-2.144-.21-2.166-.242-.118-.016z"/><path d="m219.447 53.522 4.734.004 164.87 442.086-2.091-.144-2.128-.176-.659-.066z"/><path d="m275.104 53.563 4.577.003 112.779 442.211-1.298-.05-2.092-.114-1.249-.085z"/><path d="m333.322 53.604 4.483.004 58.906 442.268-1.414-.016-2.06-.052-1.021-.04z"/><path d="m395.17 53.65 4.435.002.19 442.217-.426.008-2.028.005-1.979-.02zm-229.8 415.24-.282-.635-1.753-4.43-.007-.018 192.206 48.171-.784 3.724-1.163-.272-1.714-.415-1.715-.429-1.713-.443-1.712-.457-1.712-.47-1.712-.486-5.207-1.515-.214.912zm21.877 33.911-2.254-2.548-1.982-2.403 154.06 17.743-1.026 4.345zm31.756 27.1-.403-.266-4.259-2.945-1.538-1.124 122.383-1.987-1.05 4.452zm33.361 18.633-.765-.353-5.033-2.434-1.272-.647 87.888-13.025-1.096 4.644zm28.548 11.83-2.743-1.007-4.219-1.617 57.018-16.275-1.167 4.944zm28.79 10.097-3.52-1.23-2.359-.817 23.52-11.576-1.32 5.59zm329.498-143.818-.006.712-.304 4.178-199.777 78.977-.93-4.401zm-3.38-37.175.236 1.166.59 3.448-198.784 110.504-.957-4.54zm-7.835-38.83.932 4.83-192.403 142.732-1.006-4.774zm-7.209-45.61.445 3.812.228 1.707-186.875 180.903-6.195 1.278-1.871.366-.01.003zm-2.47-62.798-.252 5.213-.046 2.299-193.359 243.695-.017.003-1.883.327-1.893.304-1.901.285-.78.107zm29.64-132.211 3.12 3.397-232.997 381.061-1.025.14-1.916.239-1.93.216-.734.072z"/><path d="m615.206 74.36 3.22 3.506-204.419 417.115-.81.09-1.94.191-1.95.167-.476.036z"/><path d="m570.212 53.776 4.732.004-164.674 441.568-.963.081-1.963.143-1.933.113z"/><path d="m514.762 53.736 4.576.004-112.692 441.873-1.276.075-1.987.09-1.366.043z"/><path d="m456.671 53.694 4.48.004-58.885 442.115-.883.028-2.014.036-1.594.004zm175.441 409.875-.901 2.537-1.096 2.534-172.768 43.3-.23-1.009-5.371 1.671-1.784.54-1.768.517-1.75.496-1.736.474-1.726.454-1.714.431-1.048.253-.822-3.9zm-19.62 34.164-.237.305-4.04 4.651-149.052 17.166-.997-4.348zm-30.033 27.846-4.325 3.09-1.89 1.243-115.202-1.87-1.022-4.45zm-32.549 19.628-6.985 3.414-.053.024-79.817-11.829-1.065-4.64zm-28.663 12.735-1.313.528-5.599 2.11-49.04-13.996-1.132-4.935zm-30.266 10.627-2.801.889-3.3 1.05-15.89-7.822-1.279-5.57z"/></g><path d="m658.052 328.693c1.037 6.332 2.231 12.641 3.466 18.939 23.36-18.068 55.2-22.564 73.004 4.357 3.769 5.7 5.3 12.538 6.84 20.813 4.845 26.054 10.742 51.428 30.83 70.834 3.707 21.993-5.852 39.883-26.896 48.133.385 19.252-5.977 38.577-14.009 55.83-4.646 9.986-10.161 19.375-16.469 28.4-15.63 22.366-34.678 42.046-56.622 58.26-20.157 14.892-42.126 27.45-65.093 37.477-23.585 10.296-48.691 15.905-72.432 25.778-20.798 8.647-41.464 18.245-60.39 30.525-12.459 8.085-24.264 16.796-35.225 26.842-5.68 5.205-10.681 11.05-16.556 16.06-3.131 2.67-6.838 4.613-11.053 4.406-3.385-.167-6.39-1.483-9.04-3.593-5.775-4.6-10.947-10.107-16.355-15.135-15.504-14.418-31.526-25.801-49.881-36.408-13.965-8.07-27.34-14.71-41.86-20.66-13.639-5.59-28.39-10.573-42.605-15.562-32.47-11.399-63.889-24.619-92.294-44.298-25.895-17.94-50.293-37.777-68.549-63.707-17.81-25.295-30.055-56.283-31-87.492-14.031-6.59-23.573-15.534-25.147-42.73 15.107-27.808 20.996-51.182 29.982-80.838 3.599-11.88 12.231-19.32 23.403-24.435 8.423-3.855 17.002-4.56 26.152-3.483 11.858 1.395 23.157 5.792 32.398 13.539 3.187-14.788 5.559-29.889 7.432-44.895 2.35-18.834 3.772-37.79 3.195-56.773-.543-17.844-3.048-35.45-7.377-52.771-4.503-18.012-12.22-34.787-20.955-51.115-3.457-6.46-7.286-12.685-10.866-19.071-5.181-9.241-3.145-15.94 3.575-23.384l74.483-82.506 429.583-.556 78.25 85.906c4.921 5.403 4.91 12.484 1.785 18.86-2.827 5.766-6.704 11.022-9.862 16.622-5.324 9.436-9.905 19.193-13.95 29.243-7.129 17.715-11.818 35.129-14.235 54.055-1.997 15.628-2.81 31.466-2.036 47.207.944 19.222 3.268 38.34 6.379 57.326m-544.77-221.37 72.141-79.913 423.04-.548 75.952 83.383c3.368 3.698 2.984 7.575-1.26 14.157-14.232 22.07-25.793 48.773-32.443 74.013-4.93 22.185-6.853 43.815-6.69 66.52.782 24.197 3.722 47.824 7.882 71.654 1.564 8.47 3.226 16.913 4.93 25.353a118.99 118.99 0 0 1 3.384-3.57c10.093-9.049 21.44-16.59 35.145-17.766 14.718-.89 23.742 4.003 31.416 13.27 7.081 8.551 6.865 17.192 8.69 28.113 3.515 21.061 13.584 49.386 29.728 65.079 3.138 20.165-9.947 35.177-27.73 39.401 1.943 14.37-2.327 30.92-7.213 44.378-9.021 24.847-23.693 46.256-41.398 65.741-19.16 21.087-38.035 35.194-62.444 49.737a323.378 323.378 0 0 1 -44.97 22.298c-17.436 7.018-39.864 12.672-52.151 17.46-23.45 9.134-54.096 23.078-75.026 37.08-18.28 12.23-29.966 21.147-48.547 40.343-3.621 3.564-6.123 4.575-7.881 4.463-2.684-.17-4.006-1.08-7.832-4.624-11.792-10.912-25.84-25.15-41.12-35.243-21.975-14.518-44.862-27.217-69.39-36.937-18.03-7.144-36.59-12.845-54.72-19.725-26.001-9.867-49.727-20.381-72.667-36.102-26.57-18.208-52.786-39.269-70.93-66.101-16.475-24.368-28.218-56.048-28.007-85.748-22.187-7.923-23.73-22.816-24.986-36.477 14.97-29.234 20.66-48.766 27.193-72.095 3.693-13.187 5.54-17.923 18.341-25.874 17.514-10.877 48.043-3.2 60.283 13.61a223.061 223.061 0 0 1 2.85 3.997 910.873 910.873 0 0 1 3.105-14.956c2.529-12.222 4.38-24.447 6.334-36.776 2.532-17.724 4.157-36.129 4.564-54.034a430.514 430.514 0 0 0 -.659-23.023c-1.556-18.373-4.661-35.775-9.82-53.484-6.473-19.528-16.166-38.687-26.534-56.44-6.038-10.341-8.034-11.408-.56-20.614" fill="#277fc9"/><path d="m690.615 362.49c-32.677 13.435-33.123 50.072-33.131 69.063-.015 33.348-15.635 75.11-59.172 106.658-21.665 15.698-55.726 33.614-82.096 43.532-50.902 19.146-91.025 31.47-118.417 65.109-.1.123-.204.252-.298.38-.098-.119-.187-.243-.284-.361-27.392-33.653-67.52-45.978-118.433-65.128-26.369-9.918-60.43-27.834-82.094-43.532-31.974-23.169-48.891-51.846-55.627-78.653-4.19-16.67-5.414-35.076-8.142-52.13-2.905-18.15-8.217-38.52-29.381-44.093-5.532-1.456-27.963.527-28.873 15.224-.47 7.572 4.89 16.591 11.112 22.634l15.69-24.369c12.74 2.945 23.29 33.74 5.703 54.29l-24.165 28.236c-20.018 23.39-4.857 69.593 17.77 101.512 11.851 16.718 26.197 29.667 37.206 38.683 22.062 18.065 47.979 34.629 74.042 46.22 27.745 12.336 55.784 19.476 83.765 31.647 37.364 16.254 77.087 37.077 101.71 66.814 28-30.581 64.346-50.56 101.71-66.814 27.982-12.171 56.021-19.31 83.766-31.648 26.062-11.59 51.979-28.153 74.04-46.219 32.032-26.231 77.502-88.904 54.132-124.127l-32.198-48.531c-17.95-27.053.15-48.386 11.198-51.33 4.356 9.643 9.644 20.22 14 29.864 6.222-7.31 11.582-20.134 10.266-29.398-2.07-14.581-15.169-17.082-23.8-13.533" fill="#e82029"/><path d="m718.76 396.538 19.838 43.054c3.717 8.066 3.434 18.382-2.956 24.9-3.615 3.688-10.587 6.438-14.667 7.706l-34.928-49.912c19.271-.568 26.802-9.079 32.712-25.748m-30.458-5.565 10.142 18.625c-5.283 3.95-17.07 6.678-19.86 2.116-4.033-6.596 5.353-16.72 9.718-20.74m-619.514 4.296-18.993 43.054c-3.585 8.125-4.701 18.806 1.687 25.323 3.613 3.687 10.164 4.747 14.245 6.013l37.887-53.296c-19.271-.566-28.916-4.426-34.826-21.094m33.417-4.72-11.408 14.397c5.281 3.95 12.84 4.987 15.63.424 4.032-6.594.144-10.8-4.222-14.82" fill="#e82029"/><path d="m398.262 220.381c76.017 0 137.663 61.647 137.663 137.664 0 76.015-61.646 137.661-137.663 137.661-76.015 0-137.662-61.646-137.662-137.661 0-76.017 61.647-137.664 137.662-137.664" fill="#fff"/><path d="m398.262 226.37c44.974 0 84.68 22.563 108.435 56.98-19.31-20.154-46.49-32.703-76.596-32.703-58.574 0-106.078 47.503-106.078 106.076 0 58.577 47.504 106.079 106.078 106.079 33.306 0 63.027-15.364 82.477-39.384-22.705 39.61-65.397 66.3-114.316 66.3-72.71 0-131.674-58.965-131.674-131.673 0-72.71 58.964-131.676 131.674-131.676" fill="#e82029"/><path d="m430.101 256.446c55.372 0 100.28 44.905 100.28 100.277 0 55.375-44.908 100.28-100.28 100.28s-100.279-44.905-100.279-100.28c0-55.372 44.907-100.277 100.28-100.277m-23.589 23.054c-8.617 4.59-18.237 10.843-27.611 15.564.293 9.31.12 18.623 0 27.608-.01.768.786.72.969-.242 1.518-7.95 1.736-16.953 2.542-25.429 7.624-4.344 15.745-9.949 23.25-15.746 2.548-1.967 2.27-2.51.85-1.755m69.998 101.468c-10.029-.369-25.93-1.646-36.026-2.953-4.67 8.06-14.1 21.928-19.313 29.37-.44.63.274 1.01.951.307 5.732-5.947 15.398-19.041 20.562-25.81 9.252.582 22.016.84 32.177.128 3.209-.226 3.253-.982 1.65-1.042m18.877-92.41c-2.284 5.526-4.792 9.878-8.32 14.899 5.419 7.576 5.942 9.714 7.912 14.07.316.698.89.21.67-.741-.832-3.615-2.57-9.792-4.276-13.622 1.433-3.091 3.901-9.799 4.89-14.01.736-3.13-.262-2.08-.876-.595m-55.822 8.526c15.049-2.728 29.602-.379 43.772 5.155 4.621-5.514 8.577-12.183 10.725-19.192-17.129-14.885-39.495-23.897-63.964-23.897-.836 0-1.669.011-2.5.034l-13.666 16.52c11.08 6.435 19.966 13.842 25.633 21.38m44.383 8.319c-14.759-5.978-28.649-8.404-44.702-5.49-8.072 10.364-14.568 21.423-20.447 32.886 8.118 11.205 15.56 26.805 20.795 41.94 14.245.528 28.175 1.586 39.084 4.342 9.392-12.341 17.837-24.846 22.313-39.613-2.88-11.18-8.673-22.702-17.043-34.065m-73.705-29.493 13.703-16.568c-26.686 1.663-50.465 14.057-67.08 32.917 7.055-.219 14.048-.056 20.952.81 9.87-7.758 20.506-13.031 32.425-17.159m-44.047 145.404 2.116 10.915c15.94 13.06 36.086 21.174 58.096 21.994 6.684-6.37 12.747-13.19 17.64-21.062-9.8-5.55-18.552-12.772-26.173-22.134-15.288.304-30.326-.28-44.64-4.87-2.346 4.904-4.693 10.21-7.04 15.157m-1.195 8.075-1.276-6.576c-4.628-2.387-8.36-5.072-11.888-7.824a98.12 98.12 0 0 0 13.164 14.4m154.115-84.865a84.883 84.883 0 0 1 8.415 6.97c.092 1.731.14 3.475.14 5.227 0 22.381-7.546 43-20.223 59.463-8.402.825-16.574.26-24.658-1.13.76-11.482-.472-22.208-2.445-33.659 9.4-12.32 17.967-24.947 22.711-39.452 5.355.457 10.706 1.057 16.06 2.581m8.127 3.046a85.865 85.865 0 0 0 -4.194-3.486c1.041-2.565 1.823-5.47 2.29-8.622a97.73 97.73 0 0 1 1.904 12.108m-46.512 69.86c8.045 1.482 16.152 2.211 24.389 1.666-17.876 21.475-44.79 35.16-74.902 35.196 6.4-6.32 12.18-13.111 16.817-20.82 10.392-2.762 22.374-9.584 33.696-16.043m-65.06-84.188c8.742 12.2 16.207 27.368 21.552 42.937-6.054 11.592-12.573 22.245-19.374 32.142-15.532.32-30.638-.219-45.22-5.21-8.143-11.21-13.643-22.119-16.183-34.997 5.968-14.092 12.597-27.431 23-38.534 10.833-.564 22.82.628 36.224 3.662m-39.448-37.66c-7.167-.814-14.404-.862-21.72-.536-13.733 16.81-21.975 38.284-21.975 61.676 0 2.563.101 5.101.295 7.615 7.305.622 14.274 1.078 21.567 1.696 5.956-13.907 12.728-27.16 22.898-38.1-1.693-10.551-2.048-21.821-1.065-32.352" fill="#277fc9"/><path d="m430.101 256.446c55.372 0 100.28 44.905 100.28 100.277 0 55.375-44.908 100.28-100.28 100.28s-100.279-44.905-100.279-100.28c0-55.372 44.907-100.277 100.28-100.277m0 2.706c53.878 0 97.571 43.694 97.571 97.571 0 53.88-43.693 97.574-97.572 97.574s-97.572-43.694-97.572-97.574c0-53.877 43.694-97.57 97.572-97.57" fill="#277fc9"/><path d="m454.589 515.326c-19.627 6.212-35.918 8.521-57.826 8.702-18.963.158-37.637-3.027-56.14-8.491l-10.969 46.505c45.185 13.437 92.127 12.219 135.692.167z" fill="#fff"/></g><path d="m352.127 556.937 4.479-21.064-4.887-1.038 1.119-5.267 16.08 3.419-1.12 5.265-5.02-1.067-4.478 21.064zm15.598-4.77 1.238-11.778c.678-5.3 3.83-7.651 9.47-7.06.102.013.202.022.298.033 2.307.242 4.177 1.064 5.593 2.47 1.453 1.447 2.037 3.564 1.744 6.355l-1.239 11.78c-.437 2.853-1.367 4.883-2.775 6.083-1.425 1.204-3.69 1.639-6.778 1.315-3.004-.316-5.04-1.264-6.119-2.844-1.116-1.587-1.589-3.705-1.432-6.353m7.647-11.688-.13.563-1.246 11.851c-.101.951.016 1.782.357 2.484.311.702.835 1.094 1.568 1.171 1.45.152 2.307-1.01 2.567-3.484l1.215-11.553.06-.572c.108-1.715-.475-2.641-1.754-2.776-.082-.01-.154-.016-.225-.024-1.243-.035-2.045.741-2.412 2.34m18.546 21.723-5.886-26.919h6.327l3.262 18.909h.065l3.243-18.909h6.311l-5.886 26.92zm15.39-27.303 6.287-.55 1.796 20.528c.207 1.388 1.024 2.019 2.467 1.894 1.291-.114 1.9-.972 1.834-2.57l-1.77-20.231 6.377-.557 1.709 19.551c.236 5.221-2.24 8.092-7.43 8.618l-.298.026c-2.664.233-4.797-.204-6.408-1.317-1.661-1.147-2.609-3.046-2.84-5.703zm23.739 24.37-.828-4.694 4.94-17.899-7.316 1.291-.935-5.302 14.098-2.486.879 4.99-4.856 17.651 8.093-1.427.923 5.232z" fill="#e82029"/><g fill="#fff"><path d="m92.804 496.292 24.051-10.21 2.925 6.89c.998 2.352 1.414 4.521 1.251 6.514-.174 1.91-1.748 3.492-4.713 4.75a33.066 33.066 0 0 1 -.391.166c-2.291.904-4.169 1.146-5.637.735-1.466-.437-2.592-1.247-3.379-2.432-.678-1.019-1.361-2.33-2.044-3.939l-.338-.797-9.331 3.961zm16.05-.158.092.22.114.266c.433 1.021.879 1.714 1.34 2.074.48.402.94.566 1.393.5.447-.057 1.14-.256 2.077-.604 1.133-.48 1.774-1.006 1.919-1.572.098-.572-.013-1.249-.34-2.018-.026-.21-.117-.487-.265-.833l-.259-.611zm-8.34 18.15 22.912-12.702 6.796 12.259-4.571 2.533-3.817-6.885-4.235 2.348 3.71 6.693-4.57 2.533-3.711-6.694-4.967 2.754 4.048 7.303-4.57 2.533z"/><path d="m116.081 524.064 3.32 4.571-1.662 1.208c-1.315.956-1.57 2.059-.775 3.312.055.075.107.145.161.221.338.464.773.736 1.309.814.622.065 1.299-.168 2.032-.702.925-.672 1.312-2.324 1.153-4.942-.162-2.624-.152-4.684.039-6.18.188-1.479 1.243-2.933 3.163-4.357.174-.068.365-.18.577-.334 1.94-1.114 3.71-1.502 5.323-1.168 1.61.338 3.125 1.426 4.549 3.268l.199.272c.768 1.058 1.266 2.18 1.509 3.383.241 1.31.096 2.621-.427 3.926-.526 1.28-1.526 2.452-2.993 3.518l-.455.33-3.317-4.566.398-.29c1.763-1.28 2.21-2.51 1.35-3.693-.686-.944-1.598-1.085-2.743-.419-.08.06-.16.116-.235.171-.63.457-.967 1.019-1.009 1.673-.034.743.037 2.127.207 4.148.174 2.028.132 3.71-.13 5.048-.276 1.348-1.033 2.537-2.267 3.556a25.2 25.2 0 0 1 -1.027.79c-2.119 1.538-4.056 2.171-5.811 1.889-1.545-.244-2.938-.98-4.179-2.207l-1.496 1.055-2.25-3.192 1.48-1.043a8.59 8.59 0 0 1 -.85-3.696c.009-1.894.84-3.445 2.49-4.644zm9.334 15.57 6.045-5.491 3.594 4.116 3.392 3.742 2.53-2.276.414-.373c1.19-1.167 1.373-2.215.537-3.141a7.522 7.522 0 0 0 -.147-.164c-.873-.832-1.957-.795-3.258.12l-.46.322-.596.536-3.963-4.677.455-.408c3.932-3.384 7.732-3.032 11.416 1.06l.193.215c1.508 1.674 2.323 3.48 2.43 5.414.11 1.987-.846 3.894-2.869 5.718l-8.543 7.691c-2.17 1.774-4.16 2.635-5.954 2.587-1.81-.059-3.727-1.215-5.743-3.455-1.962-2.178-2.801-4.182-2.567-6.025.238-1.865 1.26-3.705 3.094-5.512m6.737 2.154-2.686 2.44c-.687.625-1.134 1.302-1.356 2.028-.218.709-.107 1.329.371 1.86.947 1.053 2.32.77 4.115-.846l2.453-2.208z" fill-rule="evenodd"/><path d="m133.09 559.754 17.866-19.16 4.492 4.189-7.146 7.665 10.48-4.556 4.617 4.304-11.97 4.654-5.647 14.74-4.74-4.42 3.75-8.992-2.79 1.027-4.42 4.738zm12.905 12.345 20.889-16.707 5.761 4.666-12.052 23.862-4.816-3.9 2.562-4.426-3.768-3.05-3.748 3.464zm12.008-2.686 2.734 2.214 5.981-10.218zm3.817 15.547 15.358-21.14 7.445 5.411c3.787 2.75 4.45 6.004 1.994 9.752-.042.056-.086.117-.13.179-1.006 1.385-1.976 2.304-2.902 2.749-.987.49-2.13.62-3.435.39a.607.607 0 0 0 -.093.011c.644.468.998 1.164 1.074 2.087.046.916-.124 1.74-.512 2.464l-3.385 5.154c-1.004 1.539-1.378 2.508-1.12 2.904l-.201.278-5.384-3.912c.057-.562.544-1.47 1.456-2.724l1.72-2.368c.819-1.128 1.312-2.063 1.476-2.803.17-.737-.055-1.376-.676-1.913l-1.692-1.23-6.037 8.311zm13.805-8.58 1.692 1.228c.587.427 1.181.556 1.783.391.605-.163 1.307-.801 2.111-1.91.72-.991.88-1.851.47-2.58-.426-.72-1.2-1.482-2.308-2.287zm11.852 26.358 13.098-22.688 12.552 7.246-2.614 4.525-7.17-4.14-2.31 4.003 6.567 3.792-2.64 4.57-6.568-3.791-5.535 9.589zm25.944-15.122 5.459 2.781-9.081 17.823c-.544 1.248-.196 2.188 1.056 2.825 1.124.572 2.065.18 2.832-1.17l8.949-17.564 5.536 2.821-8.65 16.974c-2.491 4.419-6.006 5.508-10.549 3.272a38.52 38.52 0 0 0 -.258-.132c-2.313-1.178-3.844-2.636-4.597-4.381-.778-1.799-.582-3.848.594-6.155zm9.284 33.96 8.501-19.095-4.429-1.972 2.127-4.774 14.575 6.489-2.125 4.774-4.552-2.026-8.501 19.095zm11.62 5.26 9.788-24.227 7.682 3.104c2.153.87 3.725 2.03 4.717 3.484.982 1.473 1.075 3.29.279 5.448-.643 1.588-1.35 2.654-2.121 3.202-.799.552-1.758.943-2.876 1.167.978 1.297 1.524 2.381 1.626 3.243.091.894-.184 2.13-.826 3.718-1.907 4.723-5.327 6.09-10.259 4.096zm7.456-2.055a13.333 13.333 0 0 0 .885.396c1.25.504 2.147.64 2.696.413.635-.27 1.19-.992 1.658-2.155l.052-.129c.464-1.147.486-2.02.068-2.633-.418-.62-1.4-1.244-2.946-1.868zm4.18-10.347c1.523.615 2.593.821 3.195.615.603-.19 1.131-.845 1.59-1.983l.05-.122c.391-.97.388-1.672-.005-2.112-.453-.428-1.364-.946-2.743-1.567zm7.2 12.307 4.12-10.734c1.967-4.798 5.512-6.21 10.652-4.238l.27.105c2.104.807 3.65 2.047 4.624 3.721 1 1.72 1.014 3.854.04 6.396l-4.122 10.732c-1.126 2.565-2.509 4.237-4.13 5.008-1.639.77-3.87.61-6.684-.47-2.739-1.051-4.41-2.451-5.023-4.205-.648-1.766-.56-3.872.254-6.315m10.105-9.038-.264.495-4.145 10.798c-.334.867-.432 1.675-.29 2.42.116.735.51 1.235 1.176 1.491 1.323.507 2.417-.367 3.283-2.621l4.041-10.527.199-.52c.533-1.58.22-2.597-.946-3.044l-.206-.08c-1.155-.344-2.103.182-2.848 1.588m4.468 22.62 9.389-24.458 5.784 2.22-7.516 19.58 7.002 2.689-1.872 4.878zm26.13 10.226 9.813-24.291 5.696 2.301-3.927 9.719 8.152-8.01 5.853 2.363-9.506 8.635.009 15.783-6.008-2.426.279-9.739-2.239 1.959-2.428 6.008zm17.04 7.276 11.071-23.745 5.614 2.619-8.862 19.007 6.799 3.171-2.208 4.736zm26.044-16.674 5.408 2.876-9.39 17.661c-.566 1.238-.234 2.184 1.006 2.844 1.113.59 2.063.215 2.852-1.121l9.254-17.406 5.486 2.918-8.944 16.82c-2.57 4.375-6.101 5.403-10.605 3.088l-.256-.137c-2.292-1.218-3.796-2.702-4.52-4.461-.747-1.81-.514-3.857.702-6.144zm4.714 32.251 13.845-22.158 7.028 4.39c1.97 1.231 3.316 2.648 4.04 4.251.712 1.621.487 3.426-.67 5.413-.908 1.453-1.791 2.382-2.644 2.785-.886.406-1.896.623-3.036.65.738 1.447 1.086 2.61 1.038 3.477-.066.896-.552 2.065-1.458 3.518-2.699 4.318-6.306 5.07-10.816 2.252zm7.699-.728c.279.201.543.38.804.543 1.143.714 2.001 1.004 2.583.874.671-.155 1.343-.77 2.007-1.833.026-.039.05-.078.075-.118.655-1.049.828-1.905.524-2.582-.305-.684-1.165-1.468-2.577-2.35zm5.914-9.464c1.394.87 2.41 1.26 3.04 1.16.627-.08 1.26-.636 1.91-1.675l.072-.114c.553-.886.67-1.579.362-2.08-.373-.5-1.181-1.17-2.43-2.019zm17.21-.798 4.954 3.6-11.757 16.184c-.732 1.147-.535 2.13.601 2.955 1.02.741 2.012.5 2.98-.712l11.588-15.948 5.025 3.651-11.198 15.413c-3.152 3.975-6.794 4.501-10.93 1.581-.071-.05-.151-.109-.235-.17-2.1-1.526-3.384-3.205-3.855-5.047-.488-1.898.028-3.891 1.55-5.987zm47.18 35.484-16.825-19.99 5.058-4.258c1.867-1.571 3.743-2.552 5.636-2.922 1.816-.354 3.764.719 5.839 3.184.093.111.185.216.273.325 1.541 1.92 2.352 3.63 2.41 5.127.06 1.501-.356 2.78-1.209 3.842-.95 1.18-2.08 2.197-3.236 3.17l6.528 7.756zm-5.079-15.115.733-.65c1.71-1.52.896-2.76-.192-4.127-.929-1.165-2.333-2.326-3.802-1.097l-.986.827zm17.205 5.818-14.844-21.503 6.62-4.569c3.677-2.538 6.879-2.025 9.588 1.545.041.056.083.12.125.182.972 1.409 1.521 2.622 1.659 3.631.146 1.08-.076 2.178-.678 3.304l.026.037c.69-.394 1.334-.479 2.204-.215.86.262 1.618.675 2.114 1.328l3.728 4.912c1.11 1.463 1.896 2.141 2.339 2.04l.195.282-5.23 3.61c-.501-.247-1.19-1.013-2.07-2.289l-1.663-2.407c-.792-1.148-1.507-1.924-2.137-2.336-.63-.41-1.321-.484-1.968-.039l-1.03.712 5.835 8.453zm-3.74-15.713 1.03-.71c.57-.394.869-.898.9-1.51.03-.615-.345-1.484-1.123-2.611-.696-1.009-1.652-1.577-2.446-1.443-.792.135-.906.284-1.982 1.028zm13.688-.104-6.152-9.712c-2.681-4.44-1.806-8.06 2.636-10.873l.233-.148c1.817-1.15 3.663-1.606 5.53-1.352 1.918.263 3.608 1.543 5.066 3.843l6.153 9.711c1.39 2.433 1.932 4.522 1.63 6.253-.311 1.744-1.693 3.388-4.123 4.928-2.364 1.498-4.407 1.954-6.133 1.37-1.758-.564-3.37-1.907-4.84-4.02m-1.456-13.353.242.505 6.19 9.771c.694 1.097 2.138 2.664 3.527 1.784 1.143-.724 1.122-2.214-.17-4.254l-6.035-9.526c-.732-1.408-2.022-2.28-3.461-1.41-.984.597-.984 1.698-.293 3.13m79.102-24.5-4.583-10.543c-1.965-4.799-.543-8.241 4.279-10.337l.253-.11c1.973-.858 3.867-1.022 5.672-.485 1.854.556 3.328 2.08 4.413 4.577l4.584 10.544c.999 2.617 1.213 4.765.65 6.43-.58 1.675-2.195 3.087-4.834 4.234-2.568 1.116-4.656 1.25-6.273.41-1.648-.829-3.033-2.405-4.161-4.72m.618-13.418.162.538 4.61 10.607c.518 1.191 1.703 2.962 3.21 2.306 1.24-.539 1.45-2.015.486-4.23l-4.494-10.34c-.507-1.506-1.648-2.566-3.203-1.926-1.064.436-1.233 1.524-.77 3.045m71.834-19.773-5.963-9.827c-2.596-4.49-1.65-8.093 2.844-10.82.08-.05.161-.099.237-.144 1.839-1.116 3.692-1.535 5.555-1.245 1.913.3 3.578 1.612 4.99 3.94l5.964 9.829c1.343 2.458 1.845 4.558 1.51 6.282-.346 1.739-1.758 3.356-4.218 4.848-2.393 1.453-4.444 1.868-6.16 1.252-1.744-.599-3.33-1.972-4.76-4.115m-1.197-13.378.232.51 6 9.89c.673 1.11 2.087 2.704 3.493 1.85 1.156-.7 1.163-2.19-.089-4.255l-5.85-9.64c-.705-1.424-1.978-2.32-3.432-1.477-.996.577-1.018 1.677-.354 3.122m16.741 4.512-6.7-9.342c-2.93-4.279-2.264-7.943 2.008-11.007.078-.053.154-.11.226-.16 1.748-1.254 3.564-1.814 5.442-1.668 1.93.154 3.692 1.334 5.279 3.547l6.698 9.342c1.528 2.35 2.19 4.404 1.988 6.15-.212 1.758-1.496 3.478-3.833 5.155-2.276 1.632-4.288 2.203-6.047 1.722-1.785-.464-3.472-1.712-5.06-3.739m-2.22-13.248.27.492 6.74 9.4c.757 1.055 2.288 2.537 3.625 1.579 1.099-.788.992-2.275-.415-4.237l-6.57-9.164c-.814-1.364-2.152-2.162-3.536-1.21-.95.652-.887 1.751-.115 3.14m69.277-52.822-10.088-5.523c-4.494-2.586-5.48-6.18-2.954-10.789.044-.083.09-.165.132-.24 1.03-1.89 2.426-3.181 4.184-3.861 1.806-.701 3.904-.399 6.293.91l2.925 1.6-2.59 5.344-3.191-1.744c-1.319-.877-2.872-1.02-3.708.442-.572.998-.037 1.96 1.259 2.878l.454.326 10.148 5.554c1.139.624 3.161 1.295 3.952-.147.645-1.187-.095-2.483-2.21-3.64l-2.789-1.526 2.679-5.296 3.155 1.727c2.394 1.453 3.88 3.022 4.456 4.68.567 1.678.158 3.786-1.222 6.306-1.345 2.46-2.91 3.847-4.705 4.173-1.808.358-3.87-.037-6.18-1.174m-213.416 143.328-12.922-22.79 9.497-5.384 2.512 4.583-4.27 2.421 2.28 4.02 3.86-2.245 2.518 4.697-3.776 2.141 5.461 9.631zm124.438-55.937-13.091-22.693 9.457-5.455 2.545 4.565-4.253 2.452 2.31 4.004 3.843-2.275 2.555 4.677-3.76 2.17 5.533 9.59zm-113.866 49.964-12.116-23.227 9.464-4.938 2.527 4.526-4.374 2.331 2.24 4.294 4.473-2.334 2.324 4.631-4.38 2.336 2.626 5.034 5.465-2.849 2.293 4.697zm8.057-13.628 4.897-2.261.863 1.867c.681 1.476 1.682 1.953 3.005 1.445.08-.037.156-.07.237-.11.498-.229.831-.594.995-1.097.167-.59.061-1.296-.319-2.118-.478-1.038-1.978-1.759-4.486-2.156-2.515-.394-4.465-.835-5.85-1.335-1.37-.493-2.567-1.82-3.59-3.982a2.803 2.803 0 0 0 -.219-.63c-.724-2.114-.792-3.912-.198-5.408.594-1.489 1.884-2.73 3.873-3.725l.292-.135c1.133-.522 2.281-.772 3.463-.753 1.282.04 2.5.457 3.648 1.237 1.123.782 2.063 1.996 2.822 3.642l.236.51-4.893 2.259-.207-.448c-.912-1.977-2.001-2.67-3.269-2.084-1.012.467-1.301 1.323-.864 2.573.04.09.083.179.121.263.327.707.8 1.153 1.414 1.33.698.19 2.02.41 3.966.67 1.95.257 3.537.65 4.761 1.185 1.231.55 2.228 1.536 2.984 2.945.204.392.395.778.572 1.163 1.099 2.377 1.367 4.39.8 6.032-.666 1.945-2.121 3.434-4.376 4.476-1.857.857-3.68 1.085-5.475.692-1.794-.407-3.123-1.539-3.976-3.39z"/><path d="m479.652 650.53 4.897-2.262.863 1.867c.681 1.476 1.682 1.953 3.005 1.445.08-.037.156-.07.237-.11.498-.229.831-.594.995-1.097.167-.59.061-1.296-.319-2.118-.478-1.038-1.978-1.759-4.486-2.156-2.515-.394-4.465-.835-5.85-1.335-1.37-.493-2.567-1.82-3.59-3.982a2.803 2.803 0 0 0 -.219-.63c-.724-2.114-.792-3.912-.198-5.408.594-1.489 1.884-2.73 3.873-3.725l.292-.135c1.133-.522 2.281-.772 3.463-.753 1.282.04 2.5.457 3.648 1.237 1.123.782 2.063 1.996 2.822 3.642l.236.51-4.893 2.259-.207-.448c-.912-1.977-2.001-2.67-3.269-2.084-1.012.467-1.301 1.323-.864 2.573.04.09.083.179.121.263.327.707.8 1.153 1.414 1.33.698.19 2.02.41 3.966.67 1.95.257 3.537.65 4.761 1.185 1.231.55 2.228 1.536 2.984 2.945.204.392.395.778.572 1.163 1.099 2.377 1.367 4.39.8 6.032-.666 1.945-2.121 3.434-4.376 4.476-1.857.857-3.68 1.085-5.475.692-1.794-.407-3.123-1.539-3.976-3.39zm15.205-6.97 4.897-2.26.861 1.865c.682 1.478 1.684 1.955 3.007 1.447l.237-.11c.498-.229.83-.594.994-1.098.168-.59.062-1.295-.318-2.117-.48-1.039-1.978-1.76-4.488-2.156-2.514-.393-4.465-.836-5.849-1.336-1.369-.493-2.568-1.82-3.59-3.983a2.814 2.814 0 0 0 -.218-.629c-.725-2.115-.792-3.912-.2-5.406.595-1.491 1.886-2.731 3.875-3.726l.292-.134c1.132-.523 2.281-.772 3.461-.755 1.284.041 2.501.457 3.65 1.237 1.122.782 2.062 1.996 2.822 3.641l.236.512-4.893 2.258a72.356 72.356 0 0 1 -.207-.448c-.913-1.976-2.001-2.67-3.27-2.084-1.011.466-1.3 1.322-.864 2.573.04.09.082.179.122.263.326.706.8 1.153 1.414 1.33.698.19 2.02.41 3.966.67 1.95.257 3.536.652 4.76 1.185 1.23.552 2.23 1.536 2.984 2.947.205.39.396.776.573 1.16 1.098 2.378 1.367 4.391.8 6.034-.666 1.944-2.121 3.435-4.376 4.475-1.858.858-3.682 1.085-5.476.692-1.793-.406-3.122-1.539-3.977-3.39zm19.615 1.496-10.257-24.106 5.459-2.321 10.257 24.106zm24.19-10.1-10.078-24.106 5.59-2.337 9.747 11.785.123-.05-6.155-13.287 5.156-2.156 10.077 24.107-5.59 2.338-9.853-11.74-.035.09 6.112 13.228zm31.304-13.26-11.961-23.31 5.264-2.7 9.574 18.659 4.015-2.06 2.42 4.844zm100.95-76.221-20.81-15.915 3.594-4.698 16.658 12.74 2.743-3.586 4.265 3.336zm19.29-31.801-23.98-10.548 2.381-5.413 19.198 8.443 1.818-4.131 4.933 2.233zm-27.253 41.16-20.305-16.555 3.739-4.585 16.254 13.254 2.852-3.497 4.16 3.468zm-34.233 31.37-12.823-16.504-3.32 2.579-3.207-4.127 11.352-8.818 3.205 4.126-3.412 2.651 12.825 16.506zm10.427-8.062-17.628-19.286 5.292-4.838c1.637-1.496 3.299-2.364 4.99-2.577 1.702-.215 3.378.499 4.956 2.17 1.178 1.245 1.827 2.355 1.999 3.271.177.943.135 1.955-.115 3.03a5.32 5.32 0 0 1 3.538.017c.834.31 1.82 1.105 2.977 2.37 3.434 3.758 3.28 7.352-.468 10.779zm1.16-7.424.965-.857c1.115-.987.739-2.352-.548-3.779-1.288-1.428-2.815-1.952-3.784-1.043l-.981.922zm-7.528-8.239.714-.634c1.208-1.075.406-2.593-.453-3.533-.03-.035-.058-.064-.09-.1-.78-.852-2.151-1.51-3.132-.594l-.8.747zm68.274-78.287-25.333-6.398 1.756-6.95c.543-2.152 1.452-3.79 2.747-4.9 1.304-1.117 3.095-1.442 5.333-.917 1.668.392 2.821.96 3.47 1.632.666.69 1.187 1.557 1.571 2.593a5.314 5.314 0 0 1 2.963-1.934c.867-.2 2.128-.08 3.79.34 4.936 1.246 6.786 4.333 5.542 9.257zm-3.118-6.837.336-1.247c.385-1.436-.68-2.37-2.54-2.852-1.86-.484-3.423-.081-3.732 1.214l-.312 1.308zm-10.82-2.732.248-.925c.417-1.562-1.09-2.388-2.324-2.7-.044-.01-.084-.022-.13-.032-1.12-.284-2.626-.079-2.942 1.228l-.256 1.064zm-133.372 153.953-6.071-25.787 7.258-3.041 14.122 22.411-5.049 2.116-2.601-4.386-3.952 1.656 1.357 4.909zm2.5-11.505 2.868-1.202-5.978-10.187zm94.277-49.48-15.615-21.4 5.507-5.624 21.72 15.165-3.83 3.91-4.101-3.03-2.997 3.06 3.157 3.995zm-2.167-11.571 2.175-2.223-9.467-7.064zm21.858-61.896 1.91-5.528 18.906 6.537c1.31.37 2.182-.073 2.62-1.341.393-1.136-.135-1.988-1.579-2.557l-18.63-6.443 1.938-5.606 18.005 6.225c4.724 1.85 6.326 5.069 4.812 9.66-.026.08-.057.167-.09.262-.81 2.343-2.014 3.973-3.616 4.897-1.652.955-3.698 1.01-6.146.163z"/><path d="m203.24 67.705h165.95l-9.24 28.854h10.653l.017-.06 20.474.06h20.256c6.836 0 13.391.647 19.603 3.63 7.66 3.678 11.915 9.743 13.205 18.107.85 5.51.348 10.78-1.174 16.137-.23.81-.48 1.602-.751 2.384l23.062-41.237h46.663l-2.507 32.016 10.027-32.016h37.33l2.32 24.28 6.07-24.28h40.644l-32.692 109.058h-37.903l-1.83-22.128-5.657 22.128h-66.342l1.784-12.79h-7.393l-5.948 12.79h-45.561l.056-.099h-19.864l-1.196-11.83-3.586 11.83h-41.995l3.602-11.83c-2.976 2.926-6.257 5.365-10.06 7.482-6.122 3.407-12.405 5.255-19.34 6.14-4.786.61-9.515.616-14.327.419-4.768-.196-9.158-.707-13.491-2.807-6.527-3.161-10.861-8.197-13.152-15.056-2.64-7.9-1.88-15.76.528-23.638l18.211-59.575h-6.806l-30.017 100.986h-41.959l30.018-100.986h-49.843zm231.29 82.886c-3.923 4.885-8.718 8.947-14.365 11.85l2.271 9.772z" fill-rule="evenodd"/></g><path d="m208.268 74.597h151.48l-7.747 24.185h-74.261l-30.018 100.987h-27.58l30.018-100.987h-49.638zm314.142 123.149 14.493-56.695 4.689 56.695h26.43l28.56-95.274h-26.002l-14.493 57.975-5.542-57.975h-26.005l-26.712 85.293 6.678-85.293h-35.168l-49.582 88.651-7.606-32.725c14.967-5.082 24.962-20.039 25.46-33.525.458-12.442-5.165-21.422-26.308-21.422h-18.882v.004l-16.699.164-28.703 94.028h27.58l12.095-39.89 4.03 39.89 54.742-.114 5.949-12.575h19.708l-1.784 12.788zm-61.776-32.61 18.934-40.71-5.68 40.71zm-110.53-1.23 18.33-60.456h-27.581l-18.336 60.475c-3.282 10.83-6.745 12.704-11.807 12.507-5.946-.234-6.282-4.624-4.072-11.91l18.515-61.072h-27.58l-19.49 63.762c-5.051 16.522.831 27.697 10.812 31.27 3.906 1.399 8.892 1.38 13.093 1.5 10.907 0 37.482-1.008 48.115-36.077m39.666-16.294 7.744-25.54c.922-.023 1.824-.031 2.969.049 9.941.693 8.09 11.557 5.727 15.489-3.795 6.32-8.69 9.88-16.44 10.002" fill="#e82029" fill-rule="evenodd"/></svg>