<svg xmlns="http://www.w3.org/2000/svg" viewBox="0 0 250 392.71"><path fill="#fff" d="m125 383.28-3.19-1.6c-1-.52-25.95-13.13-52.54-40a223.7 223.7 0 0 1-38.57-51.9 204.6 204.6 0 0 1-23.06-75.22c-3.09-29.19-.88-132.4-.78-136.78l.14-6.2 6.16-.73c.22 0 24.34-3.14 38.16-17s16.54-37.79 16.57-38.03l.67-6.39h112.87l.68 6.38c0 .49 2.85 24.37 16.57 38.08 13.91 13.91 37.93 16.93 38.17 17l6.15.73.14 6.21c.1 4.38 2.31 107.59-.78 136.77a204.6 204.6 0 0 1-23.06 75.22 223.5 223.5 0 0 1-38.57 51.91c-26.59 26.86-51.49 39.48-52.54 40z"/><path fill="#e6001d" d="M15.78 78.28c-.45 23.84-1.85 110 .87 135.61a200.1 200.1 0 0 0 22.53 73.53 220 220 0 0 0 37.94 51A230.7 230.7 0 0 0 125 375.77a232.8 232.8 0 0 0 48.26-37.7A219.8 219.8 0 0 0 211 287.12a200.1 200.1 0 0 0 22.38-73.23c2.72-25.64 1.31-111.77.87-135.61-9.95-2.11-29.16-7.69-42.44-21S173.18 25 171.16 15H78.84c-2 10-7.41 29.1-20.62 42.31s-32.49 18.87-42.44 21M125 392.71l-3.36-1.71c-1.09-.55-27.25-13.8-55.18-42a235.1 235.1 0 0 1-40.52-54.53 215.3 215.3 0 0 1-24.22-79C-1.53 184.82.8 76.4.9 71.8l.1-6.51 6.47-.77c.24 0 25.57-3.29 40.09-17.81S65 7 65 6.72L65.72 0h118.56l.72 6.71c0 .52 3 25.59 17.41 40 14.59 14.61 39.83 17.78 40.08 17.81l6.46.77.15 6.51c.1 4.6 2.43 113-.82 143.68a215.3 215.3 0 0 1-24.22 79A235.1 235.1 0 0 1 183.54 349c-27.93 28.21-54.09 41.46-55.18 42z"/><path fill="#e6001d" d="M183 248.46c-1.41 1.32-1.1 1.88-.63 2.37s1 .85 2.41-.47l3.8-3.55-1.78-1.9zm-4.46-4c-1 .9-1.06 1.78-.28 2.61s1.66.8 2.62-.1l4.2-3.92-2.35-2.51zM144 262.92a5.15 5.15 0 0 0-.07 3.58c.57 2.05 2 4.3 5.31 3.37s3.37-3.58 2.8-5.63c-.49-1.72-1.54-3.59-3.85-3.59a5.5 5.5 0 0 0-1.47.22 4 4 0 0 0-2.72 2.05m-15.74 8.37c.11 1.28 2 1.8 3.83 1.65s3.6-1 3.49-2.26a1.67 1.67 0 0 0-1.13-1.31 5.25 5.25 0 0 0-2.05-.37h-.64c-1.82.15-3.6 1-3.5 2.26m0-5.82a1.28 1.28 0 0 0 1 1.09 5.85 5.85 0 0 0 2.36.21c1.56-.13 3.19-.68 3.09-1.84 0-.5-.36-.85-1-1.08a5 5 0 0 0-1.67-.25h-.7c-1.56.13-3.19.68-3.09 1.84m-9.54-.25c.11-1.15-1.5-1.73-3-1.89a8 8 0 0 0-.84-.05c-1.28 0-2.44.33-2.54 1.28-.12 1.15 1.5 1.73 3.05 1.89a5.8 5.8 0 0 0 2.37-.17 1.24 1.24 0 0 0 1-1.06m-7.46 5.07c-.13 1.28 1.64 2.14 3.45 2.33s3.72-.3 3.85-1.58a1.67 1.67 0 0 0-.87-1.5 5.8 5.8 0 0 0-2.58-.83 6 6 0 0 0-.75 0c-1.55 0-3 .52-3.1 1.62m-50.5-26.22c-.62.64-.91 1.18.73 2.77l3.48 3.36 2.22-2.28-3.56-3.46a2.63 2.63 0 0 0-1.75-.95 1.6 1.6 0 0 0-1.12.56m-10.11-10.29a5.06 5.06 0 0 0 3 2.29 5 5 0 0 0 5.51-3.71 5.86 5.86 0 0 0-4-5.91 4.4 4.4 0 0 0-3.45.81c-2.39 1.6-2.77 4-1.07 6.52m-7.6-31.55-3.83 3.14 4.81.85zm-.58-33.93.9-4-4.83 1.12zM103.4 100a1.54 1.54 0 0 0 .1-1.33c-.16-.54-.37-.81-.7-.93a3.7 3.7 0 0 0-2.07.22l-4.64 1.39.92 3.06 4.75-1.42a2.92 2.92 0 0 0 1.64-1m17.66-2.75a1.51 1.51 0 0 0 .35-1.28 1.28 1.28 0 0 0-.5-1.06 3.5 3.5 0 0 0-2-.18l-5.11.52.33 3.18 5.1-.52a2.8 2.8 0 0 0 1.79-.66m39.19 9.22c1.06-2.68 0-4.86-2.82-6a6.3 6.3 0 0 0-2.24-.46 3.9 3.9 0 0 0-1.51.28 4.42 4.42 0 0 0-2.39 2.63 4.47 4.47 0 0 0 0 3.55 5.13 5.13 0 0 0 2.87 2.43c2.85 1.11 5.09.22 6.14-2.45m15.23 8.9a4.42 4.42 0 0 0 .77-3.47 5 5 0 0 0-2.33-3 5.4 5.4 0 0 0-3-1 4.21 4.21 0 0 0-3.54 2.16 4.46 4.46 0 0 0-.76 3.47 5 5 0 0 0 2.32 3c2.57 1.68 4.95 1.25 6.51-1.15m19.85 22.2-3.26-4.72-2.83 1.95 3.27 4.72a2.15 2.15 0 0 0 1.23 1 1.67 1.67 0 0 0 1.31-.33 1.64 1.64 0 0 0 .77-1.11 2.26 2.26 0 0 0-.49-1.5m3.91-3.35-3-4.29-2.15 1.49 3 4.28c1.09 1.58 1.69 1.37 2.25 1s1-.87-.11-2.45m3.56 17.9 3.27-3.73h-4.88zm13.68 21.64.2 4-1.05.05v-.38a.3.3 0 0 0 0-.16h-.28l-9.85.5.39 7.81c0 .48.19.47.38.46h.38l.06 1.06-3.64.18-.05-1h.47s.06-.07 0-.47l-.57-11.19 1.05-.06v.38a.4.4 0 0 0 0 .18h.18l11.06-.57c.19 0 .21 0 .19-.21v-.38zm-2.31-11.95-1 .24-.08-.37a.3.3 0 0 0-.07-.16.5.5 0 0 0-.28 0l-9.61 2.22 1.76 7.62a.6.6 0 0 0 .17.37.33.33 0 0 0 .28 0l.37-.08.23 1-3.54.82-.24-1 .37-.09a.2.2 0 0 0 .09 0v-.47L200 161l1-.23.09.37a.3.3 0 0 0 .06.16h.18l10.79-2.5c.19 0 .21-.05.16-.24l-.08-.37 1-.24zM210 149.08l-1 .42-.14-.34c-.08.07-.18.2-.28.31l-.29.33-7.08 8.2c-.68.8-.68.8-.56 1.08l.15.35-1 .41-1.6-3.84 1-.42.15.35a.4.4 0 0 0 0 .09c.07-.06.18-.18.4-.42l1.34-1.52-2.52-5.89H196l.15.34-1 .42-1.48-3.46 1-.41.15.34c.08.19.1.22 1.11.24l10.8.18h.78l-.15-.35 1-.41zm-7.45-12.66a3.37 3.37 0 0 1-1.54 2.41 2.87 2.87 0 0 1-2.88.46 3.45 3.45 0 0 1-1.68 3.11 4.1 4.1 0 0 1-2.34.82 3.3 3.3 0 0 1-.88-.12 6 6 0 0 1-3.11-2.63l-4.88-7.07.86-.6.22.31c.07.1.12.13.13.13a.33.33 0 0 0 .16-.08l9.11-6.29c.12-.08.13-.12.13-.12a.3.3 0 0 0-.07-.16l-.22-.32.87-.6 5 7.22a5.34 5.34 0 0 1 1.14 3.53m-8.44-14.31-2.53 2.61-.76-.73.26-.27c.14-.15.18-.19-.16-.52l-2.67-2.59-6.94 7.15a.4.4 0 0 0-.1.14s0 .06.11.15l.27.26-.73.76-2.88-2.77.74-.76.27.26c.15.14.16.13.29 0l6.94-7.15-2.67-2.59a.9.9 0 0 0-.35-.26s-.11.06-.17.11l-.26.28-.76-.74 2.53-2.6.76.73-.26.27c-.09.09-.08.14-.08.17a.75.75 0 0 0 .24.35l7.35 7.13c.22.21.34.23.38.23s.07 0 .14-.08l.27-.27zm-16.2-5.2a6.46 6.46 0 0 1-5.51 3.16 8.74 8.74 0 0 1-4.76-1.57A8.35 8.35 0 0 1 164 114a7.08 7.08 0 0 1 5.63-8.63 8.37 8.37 0 0 1 5.59 1.5c3.92 2.57 5 6.51 2.67 10m-15-9.42a6.53 6.53 0 0 1-4 4 7 7 0 0 1-2.27.36 9.8 9.8 0 0 1-3.51-.71c-4.36-1.72-6.18-5.37-4.64-9.3s5.37-5.34 9.73-3.62a8.32 8.32 0 0 1 4.46 3.68 6.53 6.53 0 0 1 .19 5.61m-14.56-13.12-.64 3.48-1-.19.07-.37c0-.15.06-.3-.51-.4l-7.38-1.37-.54 3 4.71.87a1.8 1.8 0 0 0 .6.06.4.4 0 0 0 0-.06l.07-.37 1 .19-.65 3.48-1-.19.07-.38a.33.33 0 0 0 0-.17.77.77 0 0 0-.51-.23l-4.74-.87-.84 4.47c0 .19 0 .2.16.24l.37.07-.19 1-3.91-.72.19-1 .38.06a.24.24 0 0 0 .18 0l.05-.16 2-10.9c0-.18 0-.2-.17-.24l-.37-.06.19-1 10.69 2a1.9 1.9 0 0 0 .59 0l.07-.38zM125 109.87a74.06 74.06 0 1 1-74 74 74.05 74.05 0 0 1 74.05-74m-1.89-11.07a5.17 5.17 0 0 1-3.52 1.46l-5.23.53.43 4.29v.16h.55l.11 1-4 .41-.1-1h.37c.2 0 .2 0 .19-.22l-1.12-11c0-.14-.05-.17-.05-.17a.5.5 0 0 0-.18 0h-.37l-.11-1 8.53-.87c3.23-.33 5 .79 5.26 3.31a4 4 0 0 1-.85 3.21M109.48 107l-4.09 1.22-.3-1 .35-.11-4-3.51-3.73 1.11 1.23 4.13a.4.4 0 0 0 .06.16h.18l.37-.11.3 1-3.8 1.11-.3-1 .36-.1c.12 0 .16-.07.16-.08v-.17L93.08 99c-.06-.18-.07-.19-.26-.14l-.37.11-.3-1 8.2-2.45c3.15-.94 5.06-.17 5.81 2.37a3.61 3.61 0 0 1-2 4.62l3.87 3.3c.43.35.46.35.74.26l.37-.1zm-17.81 2.92-.18-.33.92-.5 1.77 3.29-.93.5-.18-.34v-.07s-.09 0-.44.16l-10 5.34-.5-.93.33-.17c.11-.06.14-.11.14-.12v-.16l-5.24-9.77c-.06-.12-.1-.14-.1-.14l-.17.06-.34.18-.55-.92 9.34-5a3 3 0 0 0 .5-.32v-.05l-.18-.34.93-.5 1.67 3.12-.92.5-.18-.34c-.07-.13-.15-.27-.65 0l-6.37 3.42 1.46 2.72 4-2.16c.55-.29.45-.47.4-.56l-.18-.33.93-.5 1.75 3.27-.92.5-.18-.43s-.08-.15-.14-.15a1.1 1.1 0 0 0-.5.17l-4.07 2.18 1.61 3 6.84-3.67c.54-.28.45-.43.33-.68m-18.47-1.26-.28.25c-.13.1-.17.15 0 .74l4 10.26c0 .13.1.24.13.34a2 2 0 0 0 .09.22l.06-.05.28-.25.7.78-3 2.65-.7-.79.29-.25v-.06l-.3-.16-.23-.11-7.49-4 3.28 8.14a1.5 1.5 0 0 0 .11.25.2.2 0 0 0 .08-.06l.28-.25.7.78-3.15 2.81-.7-.78.28-.25.07-.06a2.2 2.2 0 0 0-.38-.24l-.09-.05-9.81-5.16c-.54-.3-.63-.22-.74-.12l-.29.25-.7-.78 3-2.64.7.79-.29.25-.1.11a2 2 0 0 0 .28.15l.29.13 7.47 3.95-3.37-8.21.03-.17-.27.23-.7-.78 3.1-2.76.7.78-.28.25a2 2 0 0 0 .25.14l.21.1 7.29 3.97-3.07-7.82-.07-.16a.6.6 0 0 0-.08-.18l-.13.09-.28.25-.7-.79 2.86-2.55zm-19.34 16.07 3 2.13-.62.85-.31-.22c-.06 0-.14-.09-.18-.08s-.12.06-.3.32l-2.18 3 8.08 5.84c.15.11.16.11.28 0l.22-.31.86.62-2.39 3.19-.85-.61.22-.31a.4.4 0 0 0 .08-.16l-.12-.13-8.08-5.79-2.17 3c-.28.38-.24.41-.08.53l.31.22-.62.85-2.94-2.13.61-.85.31.22c.08.06.21.15.49-.23l6-8.3a.7.7 0 0 0 .17-.39s0-.08-.1-.15l-.31-.22zm-8.54 15.39-.16.35c-.09.18-.07.19.1.27l10.1 4.54c.13.06.17 0 .17 0a.4.4 0 0 0 .1-.15l.16-.35 1 .43-1.59 3.54-1-.43.15-.33h-.06l-11.59 3.62 8.16 3.68c.17.08.19.08.27-.1l.16-.35 1 .43-1.51 3.36-.95-.43.15-.34a.5.5 0 0 0 0-.18l-.15-.09-10.1-4.52a.33.33 0 0 0-.17 0 .3.3 0 0 0-.1.15l-.16.35-.95-.44 2-4.45 1 .44-.13.29 10.16-3.1-7.1-3.2c-.13-.06-.17 0-.17 0l-.1.15-.15.34-1-.43 1.51-3.36zm-7.75 22.83 10.57-2.47c1-.25 1-.25 1.08-.55l.09-.37 1 .23-.91 4.05-1-.23.08-.37a1 1 0 0 0 0-.09 3.3 3.3 0 0 0-.56.1l-2 .45-1.39 6.26L46.1 171l.22.17.34.25.09-.37 1 .23-.75 3.63-1-.23.08-.37c.05-.19.06-.23-.76-.84L36.59 167l-.41-.32-.2-.15-.08.37-1-.23.94-4.21 1 .23-.08.35a3 3 0 0 0 .4-.09l.42-.12m-2.68 28.46 9.85-.63-.5-7.8c0-.48-.19-.47-.38-.46h-.38l-.07-1 3.64-.23.06 1.05h-.46s-.07.07 0 .46l.71 11.19-1 .07v-.55h-.17l-11.06.7h-.17v.56l-1.05.07-.25-4 1.05-.07v.38a.3.3 0 0 0 0 .16s.07.05.28 0m.58 12.7 1-.25.08.35c.08-.06.21-.16.32-.26l.34-.28 8.37-6.9c.81-.67.81-.67.74-1l-.09-.37 1-.25 1 4-1 .25-.09-.37v-.08c0-.02-.2.14-.47.35l-.07.06-1.48 1.21 1.52 6.23 1.85.3.27.05.42.07-.09-.37 1-.25.89 3.65-1 .25-.09-.37c-.05-.2-.05-.23-1.05-.42l-10.74-1.79-.51-.1h-.25l.09.37-1 .25zm2.15 8.93 1-.42.15.35c.09.23.22.28.88.45h.07l7.64 1.89 4-1.69a.5.5 0 0 0 .16-.1.6.6 0 0 0 0-.17l-.16-.35 1-.41 1.56 3.66-1 .41-.15-.34c0-.12-.09-.16-.11-.16s0 0-.17.05l-4 1.69-4 6.74c-.37.63-.4.78-.33 1l.15.35-1 .41-1.74-4.08.94-.41.16.32.09.16a.3.3 0 0 0 0-.07 3 3 0 0 1 .2-.34l2.62-4.44-5.26-1.29h-.27v.07l.15.34-1 .42zm9.46 16.63a7.08 7.08 0 0 1 8.55-5.75 9.35 9.35 0 0 1 6.14 9.13 6.56 6.56 0 0 1-3 4.72 7 7 0 0 1-3.87 1.26c-2.3 0-4.52-1.31-6.2-3.8a8.42 8.42 0 0 1-1.58-5.56M57.65 245a4 4 0 0 1 6.18-3.49l1-5c.1-.54.08-.56-.14-.77l-.27-.26.73-.76 3.07 3-.73.76-.27-.26-1.11 5.2 2.8 2.72 3-3.09c.14-.13.14-.15 0-.29l-.28-.26.74-.76 2.85 2.77-.73.76-.28-.27c-.09-.09-.14-.1-.15-.1s0 0-.14.11L66.21 253c-.13.13-.14.15 0 .29l.27.26-.73.76-6.14-6a5.6 5.6 0 0 1-2-3.29m40.28 26.19.3-1 .37.1c.19.06.2 0 .25-.14l2.47-8.41c-.26 0-.48 0-.53.16l-.11.36-1-.29.91-3.12 1 .3-.11.36v.08a1 1 0 0 0 .75-.12s0-.07-.15-.13l-.37-.11.3-1 3.49 1-.3 1-.36-.1h-.1a2 2 0 0 1-.07.22l-3.1 10.6v.18a.36.36 0 0 0 .16.07l.37.11-.3 1zm10.72-1.21a3.59 3.59 0 0 1 2.14-2.86 2.84 2.84 0 0 1-1.12-2.68 3.46 3.46 0 0 1 2-2.81 7.66 7.66 0 0 1 4.18-.58c3.47.36 5.64 2.2 5.4 4.59a2.85 2.85 0 0 1-1.64 2.39 3.61 3.61 0 0 1 1.5 3.24c-.24 2.34-2.21 3.66-5.37 3.66a12 12 0 0 1-1.32-.08c-3.91-.39-6.08-2.22-5.81-4.87m22.5-8.63c3.48-.29 5.95 1.13 6.16 3.52a2.85 2.85 0 0 1-1.18 2.65 3.61 3.61 0 0 1 2.08 2.91c.22 2.66-2 4.44-5.91 4.76h-1.09c-3.28 0-5.32-1.36-5.52-3.76a3.58 3.58 0 0 1 1.56-3.21 2.84 2.84 0 0 1-1.59-2.42c-.2-2.4 2-4.2 5.49-4.49m15-2.69a6.58 6.58 0 0 1 8.57 4.82 7 7 0 0 1-.45 5.23 6.84 6.84 0 0 1-4.39 3.32 7.8 7.8 0 0 1-2.19.32 6.43 6.43 0 0 1-3.29-.88 7.1 7.1 0 0 1-3.1-4.25 6.6 6.6 0 0 1 4.85-8.56m28.94-12.94a6 6 0 0 1 2.14-3.46l6.28-5.88.72.77-.28.26c-.14.13-.14.15 0 .29l7.56 8.09c.1.1.14.11.14.11a.5.5 0 0 0 .16-.1l.28-.26.71.77-6.41 6A5.28 5.28 0 0 1 183 254h-.11a3.37 3.37 0 0 1-2.5-1.17 2.86 2.86 0 0 1-.87-2.77 3.49 3.49 0 0 1-3.33-1.21 3.77 3.77 0 0 1-1.16-3.08m20.34-4.43-5.95-4.18c-3.75-2.65-2.35-5.71-.48-8.36a8.23 8.23 0 0 1 3.58-3.27c1.38-.52 2.84-.22 4.45.92l5.95 4.19a.36.36 0 0 0 .16.07.33.33 0 0 0 .12-.12l.22-.31.86.6-2.28 3.22-.86-.6.22-.31a.3.3 0 0 0 .07-.16s0-.05-.12-.12l-6.39-4.5c-.87-.62-2-.88-3.91 1.82s-1.27 3.68-.4 4.3L197 239c.15.11.17.12.28-.05l.22-.31.86.61-2.29 3.25-.87-.6.22-.31c.12-.17.11-.18 0-.3m13.35-22.26s0-.06-.23-.15l-9-4.06-3.2 7.13c-.09.19-.12.34-.08.41a.35.35 0 0 0 .2.17l.35.16-.43 1-3.31-1.5.43-1 .35.15h.08s.09 0 .25-.39l4.6-10.23 1 .44-.16.34q-.075.165 0 .18c.075.015 0 0 .14.09l10.1 4.55c.17.07.19.07.27-.1l.16-.35 1 .43-1.79 3.7-1-.43.16-.35c.05-.11 0-.15 0-.15m2.76-7.78-2.7-2.56.7-.89.3.32c.06.06.07.08.1.08a6.3 6.3 0 0 0 2.35-3.87 5.8 5.8 0 0 0-.25-3.64 4 4 0 0 0-2.92-2.32 4.19 4.19 0 0 0-3.6.88 6.3 6.3 0 0 0-2.14 3.44c-.51 2.14.52 4.23.89 4.36h.14l.37-.14.34 1.05-3.37 1.53-.41-1.05.32-.16-.12-.28a8.77 8.77 0 0 1-.49-6 8.5 8.5 0 0 1 3.34-5.18 6.9 6.9 0 0 1 5.57-1 6.14 6.14 0 0 1 4 3.18 8.8 8.8 0 0 1 .6 6.09 12 12 0 0 1-1.57 3.69c-.26.42-.49.73-.67 1a3.5 3.5 0 0 0-.33.48l.28.34zm10.41-27.35a96.91 96.91 0 1 0-96.83 96.9 96.91 96.91 0 0 0 96.91-96.92"/><path d="M192.62 170.59a59 59 0 0 0-2.78-10.18 64.4 64.4 0 0 0-4.26-9.25c-1.72-3.12-3.8-6.34-4.86-7.94s-1-1.63-1-1.62l-1.25.75c-1.24.75-3.74 2.25-6.07 3.83a48.6 48.6 0 0 0-6.37 4.93 31 31 0 0 0-4.61 5.6c-1.29 2-2.37 4.13-2.94 5.2l-.53 1.05.36 1c.36 1 1.1 2.77 1.85 4.77a68 68 0 0 1 2.46 8 132 132 0 0 1 2.9 14.64 103.6 103.6 0 0 1 1 16 132 132 0 0 1-1.32 18.27 128 128 0 0 1-3.2 14.11c-.68 2.6-.71 2.71-.7 2.72s0 0 1-.69 3.15-2.05 5.52-3.92a74 74 0 0 0 7.44-6.78 59 59 0 0 0 6.66-8.41 78 78 0 0 0 6.27-11.61 64.7 64.7 0 0 0 4.16-13.44 75 75 0 0 0 1.3-14.24 71.7 71.7 0 0 0-1.03-12.79m-78.11 81.79V240.3l-2.35-.67c-2.33-.67-7-2-11.35-3.47s-8.3-3.19-11.91-4.82-6.83-3.23-9.73-4.8-5.41-3.18-7.82-4.79-4.68-3.26-5.82-4.07l-1.12-.8 1.42 2.12c1.45 2.09 4.3 6.25 7.33 9.84A66 66 0 0 0 82.8 238a67 67 0 0 0 10.71 7 86 86 0 0 0 11.35 4.73c3.55 1.17 6.6 1.94 8.11 2.33a16 16 0 0 0 1.54.32m-51.95-94.54c1.14.7 3.4 2.1 5.8 3.28a33 33 0 0 0 7.77 2.62 66 66 0 0 0 7.43.81l1.55.06 1.4-1.38a943 943 0 0 1 6.91-6.78l6.8-6.51a15.6 15.6 0 0 0 1.76-1.81c.12-.13.12-.13.11-.14l-.61-.16a9 9 0 0 1-2.56-1.14 2.06 2.06 0 0 1-.77-2.09c.19-.67.79-1.22 2.15-1.26a22.2 22.2 0 0 1 4.7.66l1.09.21 3.53-3.11-.44-.34a10.7 10.7 0 0 1-1.79-1.65 1.54 1.54 0 0 1-.11-1.7c.29-.46.78-.77 2-.73a29 29 0 0 1 4.23.56 8 8 0 0 1 1 .18l3.25-2.18-.53-.37a12 12 0 0 1-2.24-1.79c-.62-.7-.75-1.39-.4-1.89s1.23-.89 2.67-.83a26.6 26.6 0 0 1 4.43.83l1 .25 4.31-2.74-.48-.36a11 11 0 0 1-1.85-1.83 2.2 2.2 0 0 1-.49-2c.18-.55.68-.91 2.09-.83a38 38 0 0 1 4.87.91 5.6 5.6 0 0 1 1.17.3l14.15-6.69a10 10 0 0 0-1.28-.31c-1.25-.33-3.8-1-6.53-1.52a61 61 0 0 0-9-1.28 66 66 0 0 0-10.88.28 74 74 0 0 0-10.77 1.94 57 57 0 0 0-10.45 3.58 76 76 0 0 0-11.81 6.73 72 72 0 0 0-10.74 9.2 66 66 0 0 0-7.81 10c-2.17 3.38-4 6.84-4.9 8.56s-.91 1.73-.91 1.75.04.01 1.18.71m15.98 62.34a128 128 0 0 0 11.73 6c4.31 1.93 8.9 3.76 13.07 5.17s7.93 2.48 9.8 3l1.92.5.71-1.52a67.5 67.5 0 0 0 3.31-8.18 67.6 67.6 0 0 0 2.5-11.79 77 77 0 0 0 .6-13.15 95 95 0 0 0-1.32-10.61c-.35-2-.37-2.1-.36-2.1l-2.13-.19a73 73 0 0 1-10.37-1.46 36.7 36.7 0 0 1-10.43-4.18 37.4 37.4 0 0 1-7.43-6.07c-2-2.1-3.53-4.1-4.32-5.09l-.75-1-1.63-.08a61 61 0 0 1-8.15-.93 47.6 47.6 0 0 1-9.36-3 42 42 0 0 1-5.5-3c-.93-.62-.94-.63-.95-.61s-.05.16-.33 1.16c-.31 1.19-.94 3.56-1.51 6.45s-1 6.36-1.22 9.62a64.4 64.4 0 0 0 .06 9.62 88 88 0 0 0 1.52 9.84c.64 3.14 1.38 5.95 1.73 7.36s.36 1.4.36 1.42 0 0 1.51 1.13 4.58 3.39 7.55 5.54 5.92 4.12 9.39 6.15"/><path d="M136.71 128.13a19 19 0 0 1 1.89 2.53 2.23 2.23 0 0 1 .4 2.08c-.28.56-1 1-2.31.64a27.3 27.3 0 0 1-4.34-2l-1-.56-4.93 3.25a9 9 0 0 1 .61.68 10.8 10.8 0 0 1 2.12 3.05 1.79 1.79 0 0 1-.75 2.29c-.65.35-1.5.16-2.64-.41a34 34 0 0 1-3.25-2.09l-.71-.52-3.51 2.47.55.46a11.8 11.8 0 0 1 2.25 2.27 2.28 2.28 0 0 1 .45 2.44 2.39 2.39 0 0 1-2.62.73 15.5 15.5 0 0 1-3.65-1.63l-.79-.46-3.8 3.27.53.46a9.3 9.3 0 0 1 2.15 2.27 2.07 2.07 0 0 1 0 2.34c-.46.55-1.32.73-2.54.4a21.5 21.5 0 0 1-3.63-1.64c-.78-.43-.78-.43-.79-.41l-17.49 16.75.71 1a51 51 0 0 0 4.11 5.07 29 29 0 0 0 7.17 5.5 39.6 39.6 0 0 0 10 3.39 80 80 0 0 0 8.89 1.2 12 12 0 0 1 1.81.16l1.6-1.4c1.6-1.4 4.85-4.24 8.42-7a121 121 0 0 1 11.21-7.89c3.68-2.23 7.07-3.92 8.77-4.75l1.7-.83.48-.9a50 50 0 0 1 2.82-4.86 45.4 45.4 0 0 1 5.34-6.72 46.3 46.3 0 0 1 7.22-5.89c2.57-1.74 5.2-3.19 6.5-3.91a12 12 0 0 0 1.31-.75l-.86-.85c-.88-.87-2.66-2.59-4.45-4.22a55 55 0 0 0-6.06-4.89c-2.44-1.75-5.53-3.65-8-5s-4.12-2.24-5-2.66l-.86-.46-15.51 7.5zm24.7 66.87a100.7 100.7 0 0 0-3-16.58c-1.26-4.71-2.7-8.65-3.45-10.63l-.73-2-1.66.83a94 94 0 0 0-8.41 4.6 96 96 0 0 0-10.27 7.53c-3.25 2.71-6.15 5.42-7.59 6.79s-1.45 1.35-1.44 1.36 0 0 .39 2.08a80 80 0 0 1 1.5 10.63 76.4 76.4 0 0 1-.53 13.67 59.6 59.6 0 0 1-2.64 12.72 76 76 0 0 1-4.3 9.78 20 20 0 0 1-1 1.93v15l1.25.08c1.26.06 3.74.2 7 .08a87 87 0 0 0 10.83-1 54.7 54.7 0 0 0 9.4-2.44c2.89-1 5.64-2.24 7-2.84l1.38-.61.75-2.34c.79-2.35 2.34-7 3.53-11.93a85.7 85.7 0 0 0 2.4-16.41 138 138 0 0 0-.41-20.3m-51.84 108.03 2.67 7.87 7.4-2.53v36.82h10.8v-46.76h-8.53z"/><path fill="#c39d48" d="m143.08 77.32-.68 2.15a.31.31 0 0 0 .22.39h.09a.3.3 0 0 0 .3-.23l.5-2.15c0-.17 0-.34-.14-.39s-.25.05-.29.22m-1.82-.59-.6 2.39a.31.31 0 0 0 .24.38h.1a.3.3 0 0 0 .3-.25l.42-2.39c0-.18 0-.35-.15-.38s-.25.07-.28.25m-7.11-.25 2-.76 1.63 1.36-2.06.85zm-.91-.17a.32.32 0 0 0 .1.29l2.12 1.93a.33.33 0 0 0 .22.09h.12l2.73-1.13a.32.32 0 0 0 .2-.25.36.36 0 0 0-.11-.29l-2.19-1.81a.35.35 0 0 0-.31-.06l-2.68 1a.33.33 0 0 0-.2.24m-25.63 3.16-.68-2.15c-.05-.17-.13-.27-.3-.22s-.18.21-.14.39l.5 2.15a.32.32 0 0 0 .3.23h.09a.33.33 0 0 0 .23-.39m1.74-.35-.6-2.4c0-.17-.12-.28-.29-.24s-.19.21-.15.38l.42 2.39a.31.31 0 0 0 .3.25h.07a.33.33 0 0 0 .25-.38m6.5-2.64-1.59 1.45-2.06-.85 1.63-1.36zm.81.12a.29.29 0 0 0 .1-.29.29.29 0 0 0-.2-.23l-2.67-1a.33.33 0 0 0-.32 0L111.39 77a.31.31 0 0 0-.11.29.31.31 0 0 0 .19.24l2.74 1.13h.11a.37.37 0 0 0 .22-.08zm10.92-.6L125 77.35 122.43 76l2.57-1.19zm-2.44-1.83a.34.34 0 0 0-.28 0l-3.18 1.52a.29.29 0 0 0-.18.27.32.32 0 0 0 .16.29l3.16 1.74a.26.26 0 0 0 .15 0 .3.3 0 0 0 .15 0l3.18-1.72a.32.32 0 0 0 .17-.29.32.32 0 0 0-.18-.28zM166 59.94a1.75 1.75 0 1 1-1.75-1.76 1.75 1.75 0 0 1 1.75 1.76m0-5.35a1.7 1.7 0 0 1-.14.68 1.75 1.75 0 0 1-1.63 1.09 1.77 1.77 0 0 1 0-3.54 1.78 1.78 0 0 1 1.56.93 1.7 1.7 0 0 1 .21.84m-3.3-4.13a1.8 1.8 0 0 1-.53 1.29 3 3 0 0 0-.28.23 1.77 1.77 0 0 1-1 .31 1.82 1.82 0 1 1 1.82-1.83m-3.54 4.17a4.53 4.53 0 0 1 1.24 3.68c-.47 3.23-3 6.09-4.31 8a.59.59 0 0 1-.47.24.5.5 0 0 1-.32-.1.57.57 0 0 1-.15-.79c1.22-1.78 3.06-4.21 3.49-7.21a3.64 3.64 0 0 0-1-2.81 6.2 6.2 0 0 0-4.87-1.64c-.57 3.91-3.22 8-4.88 10.7l-.26.42a.54.54 0 0 1-.48.27.64.64 0 0 1-.3-.08.57.57 0 0 1-.18-.79l.26-.42c2-3.21 5.17-8.6 4.46-12.82-.27-1.68-.88-3.62-2.74-4.53-.28-.14-.13-.22 0-.49a.54.54 0 0 1 .76-.18 6.16 6.16 0 0 1 3.36 5 8 8 0 0 1 .1 1.76c2.26-.07 5 .5 6.28 1.83m-1.55-6.25a1.76 1.76 0 1 1-1.75-1.76 1.76 1.76 0 0 1 1.75 1.76m-8.11 1.89a1.57 1.57 0 1 1-3.14 0 1 1 0 0 1 0-.24.8.8 0 0 1 0-.21.6.6 0 0 1 .08-.18 2 2 0 0 1 .11-.18 1.58 1.58 0 0 1 2.85.92m-2.62-4.1a1.75 1.75 0 1 1-1.75-1.75 1.75 1.75 0 0 1 1.75 1.75M143 48.61a3.82 3.82 0 0 1 2.49 3.71c.09 1.75-.95 3.6-1.78 5.39a20 20 0 0 0-1.17 2.85.56.56 0 0 1-.54.44.4.4 0 0 1-.16 0 .56.56 0 0 1-.39-.7 21 21 0 0 1 1.22-3c.78-1.66 1.58-3.38 1.5-4.85a3.13 3.13 0 0 0-1.51-2.85.66.66 0 0 1-.37-.8c.09-.31.41-.21.71-.12m-.83 2.48c1.4 2.4-.62 5.29-1.52 6.94-.13.24-.23.44-.31.6-.86 1.74-1.23 2.73-1.23 2.73-.07.25-.21.42-.46.42h-.15a.57.57 0 0 1-.4-.7 18 18 0 0 1 1.21-2.93c.09-.18.21-.4.34-.64.78-1.45 2.25-4.15 1.17-6-.59-1-1.43-1-3.26-.9-.49 0-1 .06-1.63.06-2.56 0-3.28-.94-3.4-1.12a.8.8 0 0 1 .18-1c.27-.17.62.09.78.36 0 0 .53.59 2.44.59.55 0 1.07 0 1.57-.06 1.79-.09 3.7 0 4.67 1.65m-.61-6a1.75 1.75 0 1 1-1.75-1.76 1.75 1.75 0 0 1 1.75 1.76m-5.39 0a1.75 1.75 0 1 1-1.75-1.76 1.75 1.75 0 0 1 1.75 1.76m-4.13 6a6.35 6.35 0 0 0 3.89 1h1.13c2.06 0 2.21.06 2.42.41.68 1.17-.36 3.25-1.35 4.79A15 15 0 0 0 136.3 62a4.36 4.36 0 0 0-1.1 2.89 4.9 4.9 0 0 0-1.06 2.6 3.9 3.9 0 0 1-.56-1.12l.62-4.95a.52.52 0 0 0-.38-.66c-.32 0-.43.16-.48.47l-1 5.14a7 7 0 0 1-.58.55 6.7 6.7 0 0 0-.28-2.43c.21-.7.62-2.5-.12-3.52a1.54 1.54 0 0 0-.58-.5 34.4 34.4 0 0 1 1.06-8.53l.18-.8m-2 .39a40 40 0 0 0-1.09 7.06 1.9 1.9 0 0 0-1.05-.64l1-14.87c1.43.68 1.67.82 1.83 1.76.36 2.14-.2 4.26-.74 6.72m-2.16 8.17a2.33 2.33 0 0 1-1.44 2.18 3.2 3.2 0 0 0-.8-.28v-.12a.58.58 0 0 0-.57-.57.57.57 0 0 0-.57.57.5.5 0 0 0 0 .12 3 3 0 0 0-.8.28 2.32 2.32 0 0 1-1.44-2.18c0-.18 0-.43.83-.43a7 7 0 0 1 1.74.29l.23.08.22-.08a6.8 6.8 0 0 1 1.79-.39c.84 0 .84.25.84.43m-4.88-13.84a2.09 2.09 0 1 1 2.04 2.08 2.08 2.08 0 0 1-2.08-2.08m2.08 8.76a1.64 1.64 0 1 1-1.64 1.64 1.64 1.64 0 0 1 1.64-1.64m-1.86-3.4A1.87 1.87 0 1 1 125 53a1.86 1.86 0 0 1-1.86-1.87m4.47-10.76a2.64 2.64 0 0 1-1 2.08s-.38 0-.86.05a1.37 1.37 0 0 0 .66-1.18 1.39 1.39 0 1 0-2.1 1.17c-.47 0-.84-.06-.86 0a2.61 2.61 0 1 1 4.19-2.08m-.54-6.29v.07a1 1 0 0 1 0 .19v.1a1 1 0 0 1 0 .17.2.2 0 0 1 0 .08 1 1 0 0 1-.09.23v.07a1 1 0 0 1-.09.16.3.3 0 0 1 0 .06l-.15.21-.17.18a1.5 1.5 0 0 1-.33.23h-.14a.13.13 0 0 0 0-.06.6.6 0 0 0 0-.12.2.2 0 0 0-.06-.1v-.06l-.06-.07-.08-.07h-.06l-.12-.07a.5.5 0 0 0-.17 0 .5.5 0 0 0-.18 0h-.33a.9.9 0 0 0-.56.7h-.12a2.07 2.07 0 0 1-1-1.48 3 3 0 0 1 0-.3 2.07 2.07 0 1 1 4.13 0m-1.74-3.78h-.67l-1.57-2.06h3.83zm-3.15 27.56a1.83 1.83 0 0 0-1.05.64 41 41 0 0 0-1.08-7.06c-.54-2.46-1.1-4.58-.75-6.73.16-.93.4-1.07 1.83-1.75zm-2.93 2.52a1.6 1.6 0 0 0-.58.5c-.74 1-.32 2.82-.12 3.52a6.6 6.6 0 0 0-.28 2.42 5.5 5.5 0 0 1-.58-.54l-1-5.14c-.05-.31-.16-.52-.48-.47s-.43.34-.38.66l.62 4.95a3.6 3.6 0 0 1-.56 1.12 4.9 4.9 0 0 0-1.06-2.6A4.36 4.36 0 0 0 113.7 62a15.3 15.3 0 0 0-1.78-4.7c-1.8-2.79-1.73-4.14-1.35-4.79.2-.35.35-.45 2.41-.41h1.14a6.37 6.37 0 0 0 3.89-1c0 .27.11.54.17.81a33.4 33.4 0 0 1 1.07 8.52m-1.73-10.88c-.11.19-.83 1.12-3.39 1.12h-1.63c-1.84-.1-2.68-.11-3.26.9-1.08 1.85.38 4.55 1.17 6l.33.63a22 22 0 0 1 1.26 2.85.59.59 0 0 1-.4.71h-.15c-.25 0-.39-.16-.46-.41 0 0-.37-1-1.23-2.74-.08-.16-.19-.36-.32-.59-.89-1.65-2.91-4.54-1.51-6.94 1-1.66 2.88-1.75 4.67-1.65h1.57c1.91 0 2.43-.58 2.43-.59.17-.26.52-.52.79-.35a.8.8 0 0 1 .17 1m-.14-4.42a1.75 1.75 0 1 1-1.75-1.76 1.75 1.75 0 0 1 1.75 1.76m-5.39 0a1.75 1.75 0 1 1-1.75-1.76A1.75 1.75 0 0 1 112 45.1m-4.6 4.42a3.11 3.11 0 0 0-1.51 2.85c-.08 1.46.72 3.19 1.5 4.85a21 21 0 0 1 1.22 3 .57.57 0 0 1-.39.7h-.16a.56.56 0 0 1-.54-.42 19 19 0 0 0-1.17-2.85c-.83-1.79-1.87-3.64-1.78-5.39a3.8 3.8 0 0 1 2.49-3.71c.3-.09.62-.19.71.11a.68.68 0 0 1-.37.81m-.79-3.35a1.75 1.75 0 1 1-1.74-1.75 1.75 1.75 0 0 1 1.74 1.75m-2.94 4.1a1.58 1.58 0 0 1-3.15 0 1.7 1.7 0 0 1 0-.32 1.55 1.55 0 0 1 1.22-1.22 1.7 1.7 0 0 1 .32 0 1.57 1.57 0 0 1 1.57 1.57m-2.31-3.57c-1.86.91-2.46 2.85-2.74 4.53-.71 4.22 2.46 9.61 4.46 12.82l.27.42a.58.58 0 0 1-.19.79.6.6 0 0 1-.3.08.57.57 0 0 1-.49-.27l-.26-.42C100.44 62 97.79 57.86 97.22 54a6.17 6.17 0 0 0-4.84 1.64 3.53 3.53 0 0 0-1 2.73c.44 3 2.28 5.52 3.49 7.3a.56.56 0 0 1-.15.79.55.55 0 0 1-.32.1.62.62 0 0 1-.47-.24c-1.27-1.87-3.84-4.73-4.3-8a4.62 4.62 0 0 1 1.32-3.68c1.27-1.33 3.94-1.9 6.2-1.83a8.6 8.6 0 0 1 .1-1.76 6.16 6.16 0 0 1 3.36-5 .53.53 0 0 1 .76.18c.14.27.29.35 0 .49m-5.46 1.68a1.76 1.76 0 1 1-1.76-1.76 1.76 1.76 0 0 1 1.76 1.76m-5 2.08a1.81 1.81 0 0 1-1.82 1.82 1.8 1.8 0 0 1-1-.3 3 3 0 0 0-.28-.23 1.82 1.82 0 1 1 3.1-1.29m-3.39 4.13a1.77 1.77 0 0 1-3.41.68 1.7 1.7 0 0 1-.14-.68 1.7 1.7 0 0 1 .24-.87 1.77 1.77 0 0 1 3.31.87M84 59.94a1.75 1.75 0 1 1 1.75 1.75A1.76 1.76 0 0 1 84 59.94m1.8 4.86a1.57 1.57 0 0 1 3.14 0 1.54 1.54 0 0 1-.58 1.2c-.16.09-.33.18-.48.28a1.8 1.8 0 0 1-.52.09 1.57 1.57 0 0 1-1.57-1.58M87.32 69l.08-.08a5.53 5.53 0 0 1 3.28-1.75 1.9 1.9 0 0 1 .75.15 2.6 2.6 0 0 1 .68.5c.46.7.93 1.4 1.41 2.08a1.7 1.7 0 0 0-.38.13.36.36 0 0 0-.49-.19.37.37 0 0 0-.09.52 2 2 0 0 0-.25.27 3.29 3.29 0 0 0-2.43-1.28 2.7 2.7 0 0 0-.92.17 6.6 6.6 0 0 0-1.67 1.07 4.8 4.8 0 0 1-1.16.77.54.54 0 0 1-.14-.42A3.86 3.86 0 0 1 87.32 69m6.28 2.15a1.28 1.28 0 0 1 1.62.68 1.66 1.66 0 0 1 .21 1.1.92.92 0 0 1-.33.6l-.12.06a1.47 1.47 0 0 1-1.38-2.44m2.16-.55a2.5 2.5 0 0 0-.46-.35 2.16 2.16 0 0 1 .71-2.6.32.32 0 0 1 .18-.07c.4 0 1.06 1.13 1.38 2.09l.06.19.16.12c.64.51 1.52 1.46 1.5 1.94 0 0 0 .12-.14.21a2 2 0 0 1-1.14.38 2.36 2.36 0 0 1-1.38-.5 3 3 0 0 0-.18-.5.56.56 0 0 0 .25-.51.58.58 0 0 0-.57-.57.67.67 0 0 0-.37.14m4.81 1.43a2.3 2.3 0 0 0-.13-.71 2.6 2.6 0 0 0-.38-.9c-.26-.38-.6-.84-1-1.38-1.79-2.46-5.51-7.59-5.75-10.67a1.69 1.69 0 0 1 .5-1.39 3.1 3.1 0 0 1 2.08-.95 1.5 1.5 0 0 0 .37 0 35.4 35.4 0 0 0 2.63 5.79c1.56 3 3.18 6 3 8.59v.07a1 1 0 0 0-.06.12c-1-2.32-2.3-4.48-2.3-4.5-.19-.26-.26-.44-.53-.37s-.2.32-.1.62c0 .11 1.23 2.47 2.34 5.24v.07a6.5 6.5 0 0 1-.67.74 1.3 1.3 0 0 0 .06-.37m10.26-5.07a1.45 1.45 0 1 1-1.45-1.45 1.45 1.45 0 0 1 1.45 1.45m-5.31-3.49a3.56 3.56 0 0 1 2.14-.63h.2l.17-.13a4.16 4.16 0 0 1 1.91-.9c.15 0 .23 0 .3.22a2 2 0 0 1-.55 2.28h-.34a3 3 0 0 0-.39 0 .57.57 0 0 0-.56-.46.58.58 0 0 0-.58.57.5.5 0 0 0 .09.29 2.5 2.5 0 0 0-.5.42 2 2 0 0 1-1.9-1.39c-.05-.18 0-.24 0-.27m.79 4.44a.58.58 0 0 0 .57.57.6.6 0 0 0 .27-.07 2.6 2.6 0 0 0 .33.4 2 2 0 0 1-1.4 2 .5.5 0 0 1-.16 0c-.37 0-.7-1.19-.74-2.18v-.2l-.13-.17c-.45-.57-1-1.61-.89-2 0 0 0-.11.21-.17a2.06 2.06 0 0 1 2.35.63 3.4 3.4 0 0 0 0 .64.56.56 0 0 0-.43.55m-4.26-10.68a1.56 1.56 0 1 1 1.56-1.55 1.56 1.56 0 0 1-1.56 1.55m1.92 1.37a1.57 1.57 0 1 1-1.56 1.57 1.56 1.56 0 0 1 1.56-1.57m8.39 7.34a.57.57 0 0 0-.57-.57.7.7 0 0 0-.2 0 4 4 0 0 0-.34-.4 2 2 0 0 1 1.4-2 .4.4 0 0 1 .17 0c.37 0 .7 1.19.74 2.17v.22l.13.16c.45.58 1 1.61.89 2 0 0 0 .11-.21.18a2.3 2.3 0 0 1-.77.14 2.06 2.06 0 0 1-1.58-.78 2.8 2.8 0 0 0 0-.64.55.55 0 0 0 .37-.53m7.58-1.44v-.22a3.92 3.92 0 0 1-.15-2.47s.07-.1.29-.1a2.32 2.32 0 0 1 2.22 1.53 3 3 0 0 0-.24.79.8.8 0 0 0-.22 0 .57.57 0 1 0 0 1.14.5.5 0 0 0 .24-.06 2.7 2.7 0 0 0 .22.69 2.31 2.31 0 0 1-2.22 1.53c-.21 0-.26-.07-.28-.1a3.85 3.85 0 0 1 .15-2.47zm5 1.58a1.54 1.54 0 1 1 1.53-1.54A1.54 1.54 0 0 1 125 66m5-1.54.07.23a3.92 3.92 0 0 1 .15 2.47s-.07.1-.29.1a2.33 2.33 0 0 1-2.22-1.54 3 3 0 0 0 .23-.66.4.4 0 0 0 .19 0 .58.58 0 0 0 0-1.15 1 1 0 0 0-.17 0 3.5 3.5 0 0 0-.24-.78 2.32 2.32 0 0 1 2.23-1.53c.2 0 .25.06.28.1a4 4 0 0 1-.23 2.5zm7.69 1.49a.57.57 0 0 0 .36.53 3 3 0 0 0 0 .65 2.1 2.1 0 0 1-1.58.77 2.7 2.7 0 0 1-.77-.14c-.18-.07-.2-.14-.21-.18-.12-.43.44-1.46.89-2l.13-.16v-.21c0-1 .37-2.17.74-2.17h.17a2 2 0 0 1 1.25 1.2 2.4 2.4 0 0 1 .14.8 3 3 0 0 0-.33.4.7.7 0 0 0-.21 0 .56.56 0 0 0-.56.56m6 1.92a.56.56 0 0 0-.42-.55 2.8 2.8 0 0 0 0-.65 2.08 2.08 0 0 1 1.58-.77 2.4 2.4 0 0 1 .77.14c.18.06.2.14.21.18.12.43-.44 1.46-.89 2l-.13.16v.21c0 1.2-.43 2.17-.74 2.17h-.16a2 2 0 0 1-1.25-1.21 2.1 2.1 0 0 1-.14-.8 2.6 2.6 0 0 0 .33-.4.6.6 0 0 0 .27.07.56.56 0 0 0 .56-.56m-3.07-2.4a1.45 1.45 0 1 1-1.45 1.45 1.45 1.45 0 0 1 1.45-1.45m-.87-3.49a.27.27 0 0 1 .31-.22 4.2 4.2 0 0 1 1.91.9l.16.13h.21a3.5 3.5 0 0 1 2.14.63s.06.09 0 .27a2.06 2.06 0 0 1-1.91 1.4 2 2 0 0 0-.49-.42.6.6 0 0 0 .08-.29.57.57 0 0 0-.57-.58.58.58 0 0 0-.56.47 3 3 0 0 0-.39 0h-.34a2.06 2.06 0 0 1-.55-2.29m6.62-6.29a1.56 1.56 0 1 1 1.56 1.55 1.56 1.56 0 0 1-1.56-1.55m1.23 4.49a1.56 1.56 0 1 1-1.61-1.65 1.56 1.56 0 0 1 1.56 1.57m-51 16.37a.64.64 0 0 1 .51-.74 8.56 8.56 0 0 0 5.16-3.9.63.63 0 0 1 .72-.32 6.7 6.7 0 0 0 3.76.15 9.2 9.2 0 0 0 3.15-2 .63.63 0 0 1 .71-.11 6.14 6.14 0 0 0 3.4.31 4.35 4.35 0 0 0 2.25-1.07 2.6 2.6 0 0 0 .57-.72.64.64 0 0 1 .45-.35.7.7 0 0 1 .54.14 5.5 5.5 0 0 0 3.34 1 4.31 4.31 0 0 0 3.29-1.47.6.6 0 0 0 .08-.08h.18a.23.23 0 0 1 .11 0h.48a4.33 4.33 0 0 0 3.53 1.65 5.54 5.54 0 0 0 3.35-1 .7.7 0 0 1 .54-.14.63.63 0 0 1 .44.35 3.86 3.86 0 0 0 2.88 1.73 6 6 0 0 0 3.41-.31.63.63 0 0 1 .71.11 9.1 9.1 0 0 0 3.15 2 6.7 6.7 0 0 0 3.76-.15.66.66 0 0 1 .72.32 8.5 8.5 0 0 0 5.16 3.9.64.64 0 0 1 .51.74c-.06.31-.33.34-.63.34h-.11a9.85 9.85 0 0 1-5.82-4.13 7.65 7.65 0 0 1-3.88.14 9.6 9.6 0 0 1-3.42-2.1 7.34 7.34 0 0 1-3.76.35 5.37 5.37 0 0 1-3.35-2 7.2 7.2 0 0 1-3.58 1 5.66 5.66 0 0 1-3.87-1.53 5.7 5.7 0 0 1-3.8 1.54 7.1 7.1 0 0 1-3.58-1 5.37 5.37 0 0 1-3.35 2 7.5 7.5 0 0 1-3.77-.35 9.6 9.6 0 0 1-3.41 2.1 7.65 7.65 0 0 1-3.88-.14 9.87 9.87 0 0 1-5.82 4.13h-.11c-.32 0-.58 0-.64-.34M98.22 78a29.4 29.4 0 0 1 6.88-3.46 53 53 0 0 1 19.9-3.06 53 53 0 0 1 19.91 3.09 29.7 29.7 0 0 1 6.88 3.43.57.57 0 0 1 .11.8c-.11.15-.7 0-.8-.07s-.75-.38-2.15-1.06a39 39 0 0 0-5.62-2.28 57.5 57.5 0 0 0-18.21-2.81 62.4 62.4 0 0 0-11.51 1.06C104 75.31 99 78.71 98.9 78.76s-.69.22-.8.07a.58.58 0 0 1 .12-.8m2.79 1c1.65-.91 10.36-5.33 24.12-5.33 14 0 22.54 4.6 23.85 5.37l-.29.62-.73-1a.25.25 0 0 0-.23-.1l-2.33.24a.24.24 0 0 0-.21.15.27.27 0 0 0 0 .26l1.54 1.86a.25.25 0 0 0 .2.09l1.05-.15-.38.82c-2.81-1.18-10.11-3.38-22.7-3.44-12.83.06-19.84 2.26-22.66 3.44l-.38-.82 1.06.15a.28.28 0 0 0 .2-.09l1.53-1.86a.23.23 0 0 0 0-.26.24.24 0 0 0-.2-.15l-2.33-.24a.25.25 0 0 0-.23.1l-.73 1zm.55 1.18.81-1.09 1.71.18-1.15 1.38-1.25-.19zm46.76.28-1.25.18-1.14-1.38 1.71-.17.81 1.08zm-46.38 2.71a32 32 0 0 1 6.2-1.93 81.2 81.2 0 0 1 33.72 0 32 32 0 0 1 6.2 1.93.58.58 0 0 1 .32.74c-.09.23-.67.08-.74.05a42 42 0 0 0-6.06-1.7A77.3 77.3 0 0 0 125 80.7a77 77 0 0 0-16.61 1.65 42 42 0 0 0-6 1.7c-.07 0-.66.17-.74 0a.57.57 0 0 1 .31-.75M151 65.66c-.27-.07-.33.11-.52.37 0 0-1.26 2.14-2.29 4.46a.4.4 0 0 0 0-.08.3.3 0 0 0 0-.08c-.22-2.54 1.4-5.61 3-8.59a34.5 34.5 0 0 0 2.55-5.74h.4a3.14 3.14 0 0 1 2.05.92 1.74 1.74 0 0 1 .5 1.4c-.24 3.07-4 8.2-5.76 10.66-.39.54-.72 1-1 1.39a2.4 2.4 0 0 0-.38.9 1.9 1.9 0 0 0-.13.71 2 2 0 0 0 .06.37 5.5 5.5 0 0 1-.72-.81c1.11-2.76 2.32-5.13 2.35-5.24.08-.29.16-.55-.12-.62m2.39 6.32a2.4 2.4 0 0 1-1.38.5 2 2 0 0 1-1.14-.38c-.14-.09-.14-.16-.14-.21 0-.48.86-1.43 1.5-1.94l.15-.12.06-.19c.32-1 1-2.09 1.38-2.09a.32.32 0 0 1 .18.07 1.94 1.94 0 0 1 .86 1.52 2.6 2.6 0 0 1-.17 1.08 3 3 0 0 0-.44.35.57.57 0 0 0-.36-.13.57.57 0 0 0-.31 1 3.3 3.3 0 0 0-.19.49m1.39-.18a1.27 1.27 0 0 1 1.62-.68.9.9 0 0 1 .35.42l.05.14v.11a.3.3 0 0 0 0 .09v.37a1 1 0 0 1 0 .18 1.8 1.8 0 0 1-.16.38 1.25 1.25 0 0 1-1.61.68h-.06l-.07-.06a1 1 0 0 1-.12-.15l-.06-.13a1.58 1.58 0 0 1 .15-1.3m2-1.82a2.3 2.3 0 0 0-.37-.12q.72-1 1.41-2.1a2.8 2.8 0 0 1 .68-.48 1.9 1.9 0 0 1 .76-.15 5.6 5.6 0 0 1 3.27 1.75l.08.08a3.86 3.86 0 0 1 1.31 1.96.5.5 0 0 1-.15.41 5 5 0 0 1-1.16-.76 6.5 6.5 0 0 0-1.67-1.08 2.7 2.7 0 0 0-.92-.17 3.3 3.3 0 0 0-2.43 1.29 1.6 1.6 0 0 0-.25-.27.38.38 0 0 0-.08-.53.39.39 0 0 0-.51.19m5.78-3.64a1.5 1.5 0 0 1-.52-.09l-.48-.27a1.57 1.57 0 0 1 1-2.78 1.57 1.57 0 1 1 0 3.14m-33.89-32.56 2.08-1.42v3.48l-2.08-1.43zm-7.44.63-2.08 1.42v-3.48l2.08 1.43zm45.27 22.81a3.52 3.52 0 0 0-2-6.19 4 4 0 0 0 .05-.61 3.66 3.66 0 0 0-3.66-3.66 3.6 3.6 0 0 0-1.7.42 3.52 3.52 0 0 0-5.84-1.31 3.52 3.52 0 0 0-3.16-2 3.6 3.6 0 0 0-1.94.58 3.53 3.53 0 0 0-5.37-1 3.53 3.53 0 0 0-3.13-1.9 3.48 3.48 0 0 0-2.69 1.25 3.5 3.5 0 0 0-2.69-1.25 3.54 3.54 0 0 0-2.58 1.12 6 6 0 0 0-2.25-1.5 4.3 4.3 0 0 0 .08-.81v-.06a3 3 0 0 0 0-.33.7.7 0 0 0 0-.14c0-.12 0-.23-.05-.35a.7.7 0 0 1 0-.14c0-.08 0-.17-.07-.26s0-.12-.05-.18l-.1-.25a1 1 0 0 0-.07-.17l-.1-.21L129 38l-.07-.12a2.6 2.6 0 0 0-.24-.34 1.5 1.5 0 0 0-.17-.19c-.11-.12-.22-.24-.34-.35a4 4 0 0 0-.41-.33l.07-.09.12-.14v-.06l.19-.28 2.67 1.83a1.1 1.1 0 0 0 .61.2.91.91 0 0 0 .72-.35 1.1 1.1 0 0 0 .2-.65v-5.86a1 1 0 0 0-.93-1h-.15a1.05 1.05 0 0 0-.46.19l-2.64 1.81-.09-.15L128 32l-.08-.12-.11-.13-.09-.1a2 2 0 0 0-.21-.2l-.08-.08-.15-.11a.2.2 0 0 0-.07 0l-.3-.21 2.06-2.7a1 1 0 0 0 .1-.16v-.08a.9.9 0 0 0 .08-.46.4.4 0 0 0 0-.11.14.14 0 0 0 0-.07v-.06a.93.93 0 0 0-.75-.51h-6.55a1 1 0 0 0-.76.51v.12a1 1 0 0 0-.09.47v.05a.7.7 0 0 0 .1.14l2.06 2.7a3.64 3.64 0 0 0-1.35 1.35l-2.64-1.81a1 1 0 0 0-.6-.21 1 1 0 0 0-.93 1V37a.93.93 0 0 0 .92 1 1.1 1.1 0 0 0 .61-.2l2.68-1.8a4 4 0 0 0 .5.65l-.22.16-.13.11-.18.16a1 1 0 0 1-.11.11 2.4 2.4 0 0 0-.22.23l-.08.1-.22.29a.2.2 0 0 0 0 .06 3 3 0 0 0-.19.32 2.5 2.5 0 0 0-.18.37 4.6 4.6 0 0 0-.35 1.77v.35a.3.3 0 0 1 0 .1v.36a5.8 5.8 0 0 0-2.25 1.5 3.53 3.53 0 0 0-5.27.13 3.52 3.52 0 0 0-5.81.65 3.5 3.5 0 0 0-2.27-.82 3.55 3.55 0 0 0-3.11 1.86 3.52 3.52 0 0 0-5.1 1.4 3.52 3.52 0 0 0-5.84 1.31 3.66 3.66 0 0 0-5.36 3.24 4 4 0 0 0 0 .61 3.52 3.52 0 0 0-2 6.19 3.51 3.51 0 0 0 1.14 6 3.1 3.1 0 0 0-.41 1.54 3.18 3.18 0 0 0 1.91 2.91 5.32 5.32 0 0 0-1.88 3.1 2.3 2.3 0 0 0 .6 1.74 1.68 1.68 0 0 0 1.27.58A4 4 0 0 0 88.38 72a6 6 0 0 1 1.2-.8.8.8 0 0 1 .29-.06 1.6 1.6 0 0 1 1 .58s6.52 8.39 6.65 8.46a1.16 1.16 0 0 0 1.17.3l1.45 3.12a1.68 1.68 0 0 0 .66 1.88 1.2 1.2 0 0 0 .42.29c1.32-.49 2.74-.95 4.23-1.36l.19-.07A75 75 0 0 1 125 81.92a69.8 69.8 0 0 1 23.78 3.82 1.3 1.3 0 0 0 .43-.32 1.66 1.66 0 0 0 .63-1.86l1.45-3.12a1.3 1.3 0 0 0 .33 0 1.2 1.2 0 0 0 .85-.35c.12-.07 6.64-8.45 6.64-8.45a1.6 1.6 0 0 1 1-.58.8.8 0 0 1 .3.06 5.7 5.7 0 0 1 1.2.8 4 4 0 0 0 2.29 1.16 1.68 1.68 0 0 0 1.27-.58 2.3 2.3 0 0 0 .61-1.74 5.38 5.38 0 0 0-1.89-3.1 3.18 3.18 0 0 0 1.91-2.91 3.1 3.1 0 0 0-.41-1.54 3.51 3.51 0 0 0 1.14-6"/></svg>