<svg xmlns="http://www.w3.org/2000/svg" viewBox="0 0 322.8 607.77"><path d="M321.551 177.295h-62.709a5.4 5.4 0 0 0 1.246-1.943 5.427 5.427 0 0 0-3.248-6.946c-.25-.09-1.797-.64-4.738-1.443l2.828-12.473c3.355.773 5.156 1.276 5.236 1.301 2.861.825 5.871-.834 6.701-3.703.826-2.874-.834-5.881-3.701-6.709-.029-.01-.312-.088-.791-.215l2.334-1.504a8.2 8.2 0 0 0 3.223 1.84c1.465 1.428 4.1 2.486 8.732.499 8.75-3.75 2.5-12.083 2.5-12.083s2.08-1.25 4.166-8.332c.615-2.092.83-6.189.828-10.918 1.168-1.624 1.875-3.601 1.875-5.75 0-2.334-.846-4.454-2.203-6.145-.07-1.484-.148-2.925-.227-4.285 3.158-1.655 5.344-4.929 5.344-8.737 0-5.454-4.438-9.893-9.895-9.893-.051 0-.1.015-.152.015l-.629-1.355c1.264-1.772 2.029-3.926 2.029-6.267 0-5.975-4.859-10.833-10.832-10.833-3.17 0-5.996 1.392-7.98 3.567-.318-5.691-5.002-10.234-10.77-10.234-5.453 0-9.93 4.062-10.68 9.309l-.514-.095c-1.09-4.092-4.795-7.129-9.223-7.129-3.164 0-5.953 1.56-7.697 3.933l-.223-.041c.244-.845.418-1.721.418-2.642 0-5.283-4.301-9.583-9.584-9.583-4.98 0-9.039 3.835-9.49 8.699l-.188-.034c-1.736-2.461-4.59-4.082-7.822-4.082-1.508 0-2.916.383-4.186 1.006l-5.494-1.59-.467-1.284-2.773-1.296c-1-.044-1.924.298-2.65.876l-1.031-.298c-.842-5.642-4.371-10.41-9.256-12.946-.643-3.213-2.488-12.444-2.82-14.111 1.781-.403 8.59-1.953 8.59-1.953l.756-13.543s-6.463 2.352-8.842 3.216l.033-.256-.084.117c.338-1.02.838-3.117 1.932-7.739L170.201 0h-16.743l2.642 11.152-8.826-3.208.754 13.545s6.81 1.548 8.592 1.951c-.332 1.667-2.177 10.898-2.82 14.111-5.25 2.724-8.94 8.025-9.405 14.219l-.426.125c-.239-.508-.433-.925-.433-.925s-1.95-1.599-3.711-1.353c-1.76.247-2.673 1.862-2.673 1.862l-.261 2.461-4.001 1.158c-1.616-1.243-3.616-2.014-5.808-2.014-3.335 0-6.27 1.719-7.988 4.309-.358-4.956-4.465-8.891-9.512-8.891-5.283 0-9.582 4.299-9.582 9.583 0 1.174.241 2.288.63 3.327-1.689-2.734-4.69-4.577-8.132-4.577-4.787 0-8.731 3.54-9.436 8.135l-.205.039c-.306-5.703-4.998-10.259-10.775-10.259-5.768 0-10.451 4.543-10.771 10.234-1.983-2.176-4.81-3.567-7.979-3.567-5.974 0-10.832 4.858-10.832 10.833 0 3.105 1.33 5.891 3.43 7.868a9.8 9.8 0 0 0-2.182-.261c-5.456 0-9.895 4.438-9.895 9.893 0 5.344 4.263 9.685 9.562 9.865-3.857 1.351-6.647 4.988-6.647 9.302 0 4.456 2.979 8.191 7.036 9.426.095 3.123.329 5.716.778 7.242.85 2.886 1.689 4.768 2.398 6.028-1.652 1.503-2.708 3.65-2.708 6.054 0 3.846 2.662 7.056 6.233 7.952.247.127.466.264.742.381 8.75 3.75 10.418-3.333 10.418-3.333l2.964 1.915c-1.406 1.333-2.07 3.366-1.518 5.361a5.426 5.426 0 0 0 6.66 3.782c.063-.017 1.456-.386 4.106-.96l2.883 12.674.14-.008c-3.929.936-5.917 1.609-6.191 1.704a5.43 5.43 0 0 0-3.328 6.895c.551 1.58 1.771 2.717 3.221 3.266H0v369.463c.02.22.156.981.156.981.178 1.013 4.661 24.927 29.173 30.693 10.2 2.402 31.96 2.671 54.995 2.956 19.901.247 42.297.523 49.167 2.356 8.214 2.19 17.881 11.45 20.912 14.834l8.245 9.194 7.395-9.885c1.965-2.64 9.158-11.448 19.27-14.144 6.869-1.833 29.266-2.109 49.027-2.354 23.176-.288 44.934-.557 55.133-2.959 24.516-5.767 28.998-29.681 29.176-30.696l.135-.762.02-369.68h-1.253zM156.107 11.041s.015.11.015.122zm30.682 84.958s16.25-1.25 20.834 2.5c9.23 7.554 6.564 30.788 5.406 38.389-.01-.003-.016-.003-.027-.003-1.918-.197-3.9-.385-5.914-.566l-1.273-.112a489 489 0 0 0-14.009-1.016 515 515 0 0 0-6.99-.359l-.027-.003zm-70.958 2.5c4.583-3.75 20.833-2.5 20.833-2.5l1.997 38.774c-5.279.202-10.274.466-14.989.773q-.007 0-.016.003c-4.702.308-9.12.659-13.252 1.042q-.013 0-.024.002c-1.177-7.886-3.662-30.636 5.451-38.094"/><path fill="#fde62f" d="M320.301 179.795V546.72c-.016.006-.115.582-.115.582-.168.949-4.357 23.303-27.285 28.698-9.934 2.337-31.559 2.604-54.453 2.888-20.049.247-42.613.525-49.781 2.439-10.891 2.905-18.541 12.266-20.629 15.063 0 0-4.217 5.64-5.566 7.441l-6.207-6.924c-3.169-3.538-13.325-13.232-22.129-15.581-7.171-1.914-29.733-2.192-49.641-2.437-23.035-.286-44.66-.554-54.592-2.891C6.975 570.602 2.784 548.249 2.616 547.3l-.135-.765.019-366.74z"/><path d="M312.693 274.625v-87.223H10.108v87.223z"/><path fill="#fff" stroke="#000" stroke-miterlimit="2.613" stroke-width="2.5" d="M10.108 282.164v263.818s3.231 18.306 21.536 22.612c2.883.679 7.051 1.17 12.085 1.533V282.164z"/><path stroke="#000" stroke-miterlimit="2.613" stroke-width="2.5" d="M43.729 282.164v287.963c9.156.659 21.188.896 33.62 1.064V282.164z"/><path fill="#fff" stroke="#000" stroke-miterlimit="2.613" stroke-width="2.5" d="M77.35 282.164v289.028c11.53.156 23.385.254 33.62.571V282.164z"/><path stroke="#000" stroke-miterlimit="2.613" stroke-width="2.5" d="M110.969 282.164v289.599c11.189.349 20.435.962 25.125 2.214 2.891.771 5.762 2.096 8.496 3.665V282.164z"/><path fill="#fff" stroke="#000" stroke-miterlimit="2.613" stroke-width="2.5" d="M144.59 282.164v295.478c9.579 5.503 17.349 14.199 17.349 14.199 2.239-2.998 7.915-9.802 16.272-14.401V282.164z"/><path stroke="#000" stroke-miterlimit="2.613" stroke-width="2.5" d="M178.211 282.164V577.44c2.586-1.422 5.416-2.643 8.496-3.463 4.689-1.252 13.936-1.865 25.123-2.214V282.164z"/><path fill="#fff" stroke="#000" stroke-miterlimit="2.613" stroke-width="2.5" d="M211.83 282.164v289.599c10.234-.317 22.09-.415 33.621-.571V282.164z"/><path stroke="#000" stroke-miterlimit="2.613" stroke-width="2.5" d="M245.451 571.191c12.432-.168 24.463-.405 33.621-1.064V282.164h-33.621z"/><path fill="#fff" stroke="#000" stroke-miterlimit="2.613" stroke-width="2.5" d="M291.156 568.594c18.307-4.307 21.537-22.612 21.537-22.612V282.164h-33.621v287.963c5.033-.363 9.201-.855 12.084-1.533z"/><path fill="#fff" d="M51.719 214.759h1.383c4.656 0 9.896.874 9.896 6.838 0 5.967-5.239 6.839-9.896 6.839h-1.383zm14.115 21.462c7.783-1.381 12.001-7.93 12.001-15.495 0-11.714-8.221-16.88-19.06-16.88H37.461v54.855h14.257v-21.099h.146l13.46 21.099h17.749zm37.853 15.423c0 4.656-3.782 8.513-8.511 8.513s-8.511-3.857-8.511-8.513c0-4.729 3.782-8.511 8.511-8.511s8.511 3.781 8.511 8.511m40.892-29.393c-2.91-3.925-7.64-6.037-12.514-6.037-8.729 0-14.623 6.694-14.623 15.205 0 8.657 5.966 14.914 14.841 14.914 4.655 0 9.312-2.256 12.295-5.82v17.095c-4.729 1.455-8.148 2.549-12.587 2.549-7.636 0-14.912-2.911-20.588-8.076-6.037-5.457-8.802-12.585-8.802-20.735 0-7.493 2.837-14.695 8.074-20.078 5.386-5.53 13.169-8.877 20.88-8.877 4.582 0 8.802 1.021 13.022 2.766v17.094zm20.995 29.393c0 4.656-3.786 8.513-8.515 8.513s-8.511-3.857-8.511-8.513c0-4.729 3.782-8.511 8.511-8.511s8.515 3.781 8.515 8.511m34.522-33.685c-2.617-2.183-5.965-3.638-9.457-3.638-2.619 0-6.109 1.528-6.109 4.585 0 3.201 3.852 4.436 6.328 5.237l3.637 1.091c7.637 2.256 13.533 6.111 13.533 14.988 0 5.456-1.311 11.057-5.676 14.768-4.293 3.638-10.039 5.167-15.57 5.167-6.91 0-13.676-2.33-19.277-6.257l6.111-11.494c3.564 3.127 7.783 5.674 12.656 5.674 3.35 0 6.914-1.672 6.914-5.53 0-4.001-5.604-5.383-8.656-6.257-8.949-2.544-14.844-4.873-14.844-15.493 0-11.133 7.932-18.408 18.916-18.408 5.529 0 12.295 1.748 17.168 4.512zm26.215 33.685c0 4.656-3.783 8.513-8.514 8.513-4.729 0-8.51-3.857-8.51-8.513a8.474 8.474 0 0 1 8.51-8.511 8.476 8.476 0 0 1 8.514 8.511m39.457-29.393c-2.912-3.925-7.639-6.037-12.516-6.037-8.729 0-14.619 6.694-14.619 15.205 0 8.657 5.965 14.914 14.838 14.914 4.658 0 9.312-2.256 12.297-5.82v17.095c-4.732 1.455-8.148 2.549-12.586 2.549-7.639 0-14.914-2.911-20.588-8.076-6.041-5.457-8.805-12.585-8.805-20.735 0-7.493 2.836-14.695 8.076-20.078 5.383-5.53 13.168-8.877 20.879-8.877 4.584 0 8.801 1.021 13.023 2.766zm21.363 29.393c0 4.656-3.781 8.513-8.51 8.513-4.73 0-8.514-3.857-8.514-8.513a8.476 8.476 0 0 1 8.514-8.511 8.473 8.473 0 0 1 8.51 8.511"/><path d="M146.831 85.584c0 8.271 6.729 15 15 15 8.269 0 14.998-6.729 14.998-15s-6.729-15-14.998-15c-8.272 0-15 6.728-15 15"/><path fill="#fde62f" d="M67.831 146.692a1.877 1.877 0 0 0-1.307 2.307 1.877 1.877 0 0 0 2.305 1.308c.315-.087 32.205-8.684 93.252-8.684 61.055 0 98.688 10.654 99.061 10.762a1.88 1.88 0 0 0 2.322-1.282 1.876 1.876 0 0 0-1.283-2.321c-.377-.11-38.465-10.908-100.1-10.908-61.623 0-93.93 8.73-94.25 8.818m4.045 23.787a1.876 1.876 0 0 0 1.239 3.54c.249-.086 25.592-8.645 89.381-8.645 63.801 0 91.586 9.79 91.859 9.888a1.873 1.873 0 0 0 2.402-1.123 1.87 1.87 0 0 0-1.123-2.4c-1.135-.415-28.553-10.115-93.139-10.115-64.574 0-89.586 8.493-90.619 8.855"/><path fill="#fde62f" d="m74.067 153.23 2.692 12.207c.355-.078 35.833-7.771 84.072-7.771 48.263 0 90.714 9.338 91.14 9.434l2.721-12.199c-1.779-.398-44.162-9.734-93.86-9.734-49.693-.001-85.276 7.734-86.765 8.063M166.828 2.5h.213l-1.922 8.076c-.033.168-.316 2.294-.316 2.294l-.271 2.044s6.855-2.493 9.148-3.325c-.131 2.29-.371 6.616-.441 7.878l-9.129 2.076s2.438 12.202 2.924 14.624h-10.408l2.925-14.624-9.128-2.076-.442-7.878 9.146 3.325-.526-3.999a1776 1776 0 0 0-1.982-8.416zM149.33 85.584c0-6.892 5.607-12.5 12.5-12.5 6.89 0 12.498 5.608 12.498 12.5s-5.607 12.5-12.498 12.5c-6.892 0-12.5-5.608-12.5-12.5m-29.331-22.917c0-3.904 3.176-7.083 7.083-7.083s7.083 3.179 7.083 7.083a7.09 7.09 0 0 1-7.083 7.083c-3.907-.001-7.083-3.178-7.083-7.083M102.5 58.084c0-3.906 3.175-7.083 7.082-7.083s7.083 3.177 7.083 7.083c0 3.903-3.177 7.082-7.083 7.082s-7.082-3.179-7.082-7.082m-17.085 8.332c0-3.903 3.175-7.082 7.082-7.082s7.083 3.179 7.083 7.082a7.09 7.09 0 0 1-7.083 7.083 7.09 7.09 0 0 1-7.082-7.083M76.25 83.084a7.09 7.09 0 0 1 7.082-7.083 7.09 7.09 0 0 1 7.083 7.083c0 3.903-3.177 7.082-7.083 7.082s-7.082-3.179-7.082-7.082m.832 20.415c0-3.904 3.177-7.083 7.083-7.083s7.082 3.179 7.082 7.083a7.09 7.09 0 0 1-7.082 7.083 7.09 7.09 0 0 1-7.083-7.083m5.417 28.75c0-3.904 3.176-7.083 7.082-7.083s7.083 3.179 7.083 7.083a7.09 7.09 0 0 1-7.083 7.082 7.09 7.09 0 0 1-7.082-7.082m-18.75-66.665c0-4.595 3.738-8.335 8.332-8.335s8.333 3.74 8.333 8.335-3.738 8.332-8.333 8.332c-4.594 0-8.332-3.737-8.332-8.332M45 72.249c0-4.595 3.737-8.333 8.332-8.333s8.333 3.738 8.333 8.333-3.738 8.335-8.333 8.335S45 76.844 45 72.249m-8.863 17.5c0-4.197 3.413-7.61 7.61-7.61s7.612 3.414 7.612 7.61c0 4.199-3.415 7.614-7.612 7.614s-7.61-3.415-7.61-7.614m2.915 19.168c0-4.197 3.413-7.613 7.609-7.613 4.197 0 7.613 3.416 7.613 7.613s-3.416 7.615-7.613 7.615c-4.196-.001-7.609-3.419-7.609-7.615m7.505 28.749a5.946 5.946 0 0 1 5.94-5.939 5.947 5.947 0 0 1 5.94 5.939 5.95 5.95 0 0 1-5.94 5.943 5.947 5.947 0 0 1-5.94-5.943m149.16-67.917a7.09 7.09 0 0 1-7.082-7.083c0-3.904 3.176-7.083 7.082-7.083s7.084 3.179 7.084 7.083c0 3.906-3.178 7.083-7.084 7.083m17.5-4.583c-3.906 0-7.082-3.179-7.082-7.082 0-3.906 3.176-7.083 7.082-7.083s7.084 3.177 7.084 7.083c0 3.903-3.178 7.082-7.084 7.082m17.086 8.333a7.09 7.09 0 0 1-7.082-7.083c0-3.903 3.176-7.082 7.082-7.082s7.082 3.179 7.082 7.082a7.09 7.09 0 0 1-7.082 7.083m9.164 16.667c-3.904 0-7.082-3.179-7.082-7.082 0-3.906 3.178-7.083 7.082-7.083 3.906 0 7.084 3.176 7.084 7.083 0 3.903-3.178 7.082-7.084 7.082m-.832 20.416a7.09 7.09 0 0 1-7.082-7.083c0-3.904 3.176-7.083 7.082-7.083s7.084 3.179 7.084 7.083c0 3.906-3.178 7.083-7.084 7.083m-5.416 28.749a7.09 7.09 0 0 1-7.084-7.082 7.09 7.09 0 0 1 7.084-7.083c3.904 0 7.082 3.179 7.082 7.083 0 3.906-3.178 7.082-7.082 7.082m17.5-65.415c-4.596 0-8.334-3.737-8.334-8.332s3.738-8.335 8.334-8.335c4.594 0 8.332 3.74 8.332 8.335s-3.739 8.332-8.332 8.332m18.75 6.668c-4.596 0-8.334-3.74-8.334-8.335s3.738-8.333 8.334-8.333c4.594 0 8.332 3.738 8.332 8.333s-3.739 8.335-8.332 8.335m9.584 16.779c-4.197 0-7.613-3.415-7.613-7.614 0-4.197 3.416-7.61 7.613-7.61s7.609 3.414 7.609 7.61c0 4.199-3.412 7.614-7.609 7.614m-2.916 19.168c-4.195 0-7.611-3.418-7.611-7.615s3.416-7.613 7.611-7.613c4.197 0 7.611 3.416 7.611 7.613s-3.414 7.615-7.611 7.615m-3.334 27.078a5.946 5.946 0 0 1-5.939-5.943c0-3.273 2.662-5.939 5.939-5.939s5.939 2.666 5.939 5.939a5.946 5.946 0 0 1-5.939 5.943"/><path d="M146.831 95.101c0 8.271 6.729 15 15 15 8.269 0 14.998-6.729 14.998-15s-6.729-15-14.998-15c-8.272 0-15 6.728-15 15"/><path fill="#fde62f" d="M149.33 95.101c0-6.893 5.607-12.5 12.5-12.5 6.89 0 12.498 5.607 12.498 12.5s-5.607 12.5-12.498 12.5c-6.892 0-12.5-5.608-12.5-12.5m-8.581-43.057A1.873 1.873 0 0 0 138.96 54l2.915 65.833a1.875 1.875 0 1 0 3.745-.166l-2.915-65.833a1.874 1.874 0 0 0-1.956-1.79m39.999 1.789-2.916 65.833a1.875 1.875 0 1 0 3.744.166L184.492 54a1.874 1.874 0 0 0-3.744-.167"/><path fill="#fde62f" stroke="#000" stroke-miterlimit="2.613" stroke-width="3.125" d="M169.58 151.416a5.416 5.416 0 0 1-5.418 5.418h-8.333a5.417 5.417 0 1 1 0-10.833h8.333a5.416 5.416 0 0 1 5.418 5.415zm-56.665 1.251 10.832-6.251 11.249 5-10.415 7.083zm92.915 0-10.832-6.251-11.25 5 10.414 7.083zm-99.583 2.917a6.25 6.25 0 1 1-12.5 0 6.25 6.25 0 0 1 12.5 0zm122.814 0a6.25 6.25 0 1 1-12.5 0 6.25 6.25 0 0 1 12.5 0zm-159.999 4.165 6.665-8.333 8.75 4.168-5.833 9.165zm189.268 2.5-6.666-8.332-8.75 4.167 5.834 9.165z"/><path fill="#fde62f" d="M55.102 87.781c-1.824 6.081 4.192 26.904 5.417 31.016a2.5 2.5 0 0 0 3.109 1.682 2.495 2.495 0 0 0 1.681-3.107c-2.866-9.634-6.442-24.736-5.417-28.154.925-3.081 4.482-8.105 11.953-7.396a2.501 2.501 0 0 0 .474-4.978c-10.694-1.018-15.855 6.396-17.217 10.937m45.592-14.277c-3.442 2.292-5.637 6.516-6.904 13.286-1.32 7.034 5.889 33.174 6.717 36.133a2.5 2.5 0 1 0 4.814-1.346c-3.001-10.739-7.449-29.429-6.619-33.867.991-5.283 2.552-8.569 4.766-10.046 1.908-1.27 5.811-3.237 10.552-2.144 4.227.974 16.404 6.519 20.742 8.571a2.498 2.498 0 1 0 2.139-4.518c-.656-.311-16.14-7.63-21.757-8.926-6.571-1.516-11.873 1.138-14.45 2.857M269.15 87.781c1.824 6.081-4.191 26.904-5.418 31.016a2.496 2.496 0 0 1-3.107 1.682 2.495 2.495 0 0 1-1.682-3.107c2.865-9.634 6.441-24.736 5.416-28.154-.924-3.081-4.48-8.105-11.951-7.396a2.5 2.5 0 1 1-.475-4.978c10.694-1.018 15.854 6.396 17.217 10.937m-45.593-14.277c3.443 2.292 5.639 6.516 6.904 13.286 1.32 7.034-5.889 33.174-6.717 36.133a2.5 2.5 0 0 1-4.814-1.346c3.002-10.739 7.449-29.429 6.619-33.867-.99-5.283-2.551-8.569-4.766-10.046-1.906-1.27-5.811-3.237-10.551-2.144-4.227.974-16.404 6.519-20.742 8.571a2.5 2.5 0 0 1-2.139-4.518c.656-.311 16.139-7.63 21.758-8.926 6.571-1.516 11.871 1.138 14.448 2.857m-46.729-20.42q-.001-.792-.082-1.562h-13.355V38.165a16 16 0 0 0-1.56-.081q-.793.002-1.562.081v13.357h-13.354a15 15 0 0 0 0 3.124h29.833q.078-.772.08-1.562"/><path fill="#fde62f" d="M165.518 49.395h10.832a15.02 15.02 0 0 0-10.832-10.832zm-7.377 0V38.563a15.02 15.02 0 0 0-10.832 10.832zm-10.832 7.378c1.65 6.489 7.524 11.311 14.522 11.311 6.996 0 12.869-4.822 14.519-11.311zM74.525 124.58c-1.099-2.712-.486-5.48.827-7.448 1.729-2.591 7.769-2.383 7.769-2.383-3.75 0-10-3.958-8.079-10.394l-.93.359s-11.587 5.796-2.483 24.419c0 0 3.784 10.615 5.035 12.7 0 0 3.747-.835 5.832-1.25 0 0-7.084-9.585-2.5-12.5 0 .001-3.957.235-5.471-3.503m175.995 0c1.1-2.712.486-5.48-.828-7.448-1.727-2.591-7.768-2.383-7.768-2.383 3.75 0 10-3.958 8.078-10.394l.93.359s11.588 5.796 2.484 24.419c0 0-3.785 10.615-5.035 12.7 0 0-3.746-.835-5.832-1.25 0 0 7.086-9.585 2.5-12.5 0 .001 3.957.235 5.471-3.503"/><path fill="none" stroke="#000" stroke-linecap="round" stroke-width="2.5" d="M123.58 66.17a4.94 4.94 0 0 0 3.501 1.452 4.96 4.96 0 0 0 4.956-4.956 4.96 4.96 0 0 0-2.917-4.517m-23.04 3.438a4.94 4.94 0 0 0 3.501 1.453 4.96 4.96 0 0 0 4.956-4.956 4.96 4.96 0 0 0-2.917-4.517M88.998 69.92a4.93 4.93 0 0 0 3.501 1.455 4.965 4.965 0 0 0 4.957-4.956c0-2.007-1.2-3.74-2.918-4.517M79.831 86.587a4.94 4.94 0 0 0 3.5 1.453 4.96 4.96 0 0 0 4.956-4.956 4.96 4.96 0 0 0-2.917-4.517m-5.125 28.479a4.94 4.94 0 0 0 3.501 1.453 4.96 4.96 0 0 0 4.956-4.956 4.96 4.96 0 0 0-2.917-4.517m-.122 36.77a4.94 4.94 0 0 0 3.501 1.453 4.963 4.963 0 0 0 4.957-4.956c0-2.007-1.2-3.738-2.918-4.517m-21.37-58.271a4.94 4.94 0 0 0 3.501 1.453 4.96 4.96 0 0 0 4.956-4.956 4.96 4.96 0 0 0-2.918-4.517m-24.707 14.27a4.94 4.94 0 0 0 3.501 1.453 4.96 4.96 0 0 0 4.956-4.956 4.96 4.96 0 0 0-2.917-4.517M43.208 112.42a4.93 4.93 0 0 0 3.5 1.453 4.96 4.96 0 0 0 4.956-4.956 4.96 4.96 0 0 0-2.918-4.517m-8.457-10.73a4.94 4.94 0 0 0 3.501 1.453 4.96 4.96 0 0 0 4.956-4.957 4.96 4.96 0 0 0-2.917-4.517m145.708-19.897a4.94 4.94 0 0 0 3.502 1.453 4.96 4.96 0 0 0 4.955-4.956 4.96 4.96 0 0 0-2.916-4.517m12.377 3.853a4.93 4.93 0 0 0 3.502 1.455 4.963 4.963 0 0 0 4.955-4.956 4.96 4.96 0 0 0-2.918-4.517m11.543 16.353a4.94 4.94 0 0 0 3.502 1.452 4.96 4.96 0 0 0 4.957-4.956 4.96 4.96 0 0 0-2.918-4.517m15.295 7.186a4.93 4.93 0 0 0 3.5 1.455 4.963 4.963 0 0 0 4.957-4.956 4.96 4.96 0 0 0-2.918-4.517m13.211 15.103a4.94 4.94 0 0 0 3.502 1.453 4.96 4.96 0 0 0 4.955-4.956 4.96 4.96 0 0 0-2.918-4.517m3.625 25.52a4.94 4.94 0 0 0 3.502 1.453 4.96 4.96 0 0 0 4.957-4.957 4.96 4.96 0 0 0-2.918-4.517m-8.455 27.186a4.93 4.93 0 0 0 3.5 1.455 4.964 4.964 0 0 0 4.957-4.957 4.96 4.96 0 0 0-2.918-4.516"/><path fill="none" stroke="#000" stroke-linecap="round" stroke-width="1.934" d="M269.58 140.425a3.83 3.83 0 0 0 2.713 1.125 3.84 3.84 0 0 0 3.832-3.835 3.85 3.85 0 0 0-2.256-3.497m-224.705 6.207a3.831 3.831 0 0 0 6.545-2.71 3.85 3.85 0 0 0-2.255-3.497"/><path fill="none" stroke="#000" stroke-linecap="round" stroke-width="2.5" d="M235.705 86.585a4.93 4.93 0 0 0 3.502 1.455 4.964 4.964 0 0 0 4.955-4.956 4.96 4.96 0 0 0-2.918-4.517m-6.789 28.435a4.94 4.94 0 0 0 3.502 1.453 4.96 4.96 0 0 0 4.955-4.956 4.96 4.96 0 0 0-2.918-4.517m-10.955 36.77a4.93 4.93 0 0 0 3.5 1.453 4.96 4.96 0 0 0 4.955-4.956 4.96 4.96 0 0 0-2.916-4.517"/><path d="m143.346 109.871-2.207.92 1.171 2.085c.179.315 4.446 7.749 11.854 7.749 6.418 0 8.375-1.372 8.375-5.876 0-4.077-5.082-7.126-9.625-7.126-4.129 0-9.349 2.155-9.568 2.248"/><path fill="#fde62f" d="M144.165 111.834s3.75 6.665 10 6.665 6.25-1.25 6.25-3.75-3.75-5-7.5-5-8.75 2.085-8.75 2.085"/><path d="M161.039 114.749c0 4.504 1.957 5.876 8.375 5.876 7.406 0 11.674-7.434 11.854-7.749l1.172-2.085-2.207-.92c-.221-.093-5.439-2.249-9.568-2.249-4.544.001-9.626 3.05-9.626 7.127"/><path fill="#fde62f" d="M179.414 111.834s-3.75 6.665-10 6.665-6.25-1.25-6.25-3.75 3.75-5 7.5-5 8.75 2.085 8.75 2.085"/><path d="M152.25 126.417c0 5.286 4.299 9.583 9.582 9.583 5.282 0 9.583-4.297 9.583-9.583 0-5.284-4.301-9.583-9.583-9.583-5.283 0-9.582 4.299-9.582 9.583"/><path fill="#fde62f" d="M154.75 126.417c0-3.904 3.175-7.083 7.081-7.083 3.905 0 7.083 3.179 7.083 7.083 0 3.906-3.178 7.083-7.083 7.083a7.09 7.09 0 0 1-7.081-7.083m-.135-53.978c-3.193-1.785-6.475-4.409-7.951-8.106 0 0-2.723 8.24 1.135 15.994a15.08 15.08 0 0 1 6.816-7.888m14.461 0c3.193-1.785 6.477-4.409 7.953-8.106 0 0 2.723 8.24-1.137 15.994a15.06 15.06 0 0 0-6.816-7.888m-90.224 46.607c.981-.435 1.806-.301 2.809-.151 2.274.337 4.199.679 5.813-1.257 1.343-1.611 2.576-3.552 4.606-4.341 1.903-.737 3.97.647 4.559 2.495 1.26 3.956-1.47 8.021-5.706 8.021-1.97 0-3.497-.723-5.52-.129-1.851.544-3.431 1.599-5.418.781-1.538-.632-2.839-1.948-2.603-3.567.002-.002.876-1.593 1.46-1.852m167.916 0c-.982-.435-1.807-.301-2.811-.151-2.271.337-4.199.679-5.812-1.257-1.344-1.611-2.576-3.552-4.607-4.341-1.902-.737-3.969.647-4.559 2.495-1.258 3.956 1.471 8.021 5.707 8.021 1.969 0 3.496-.723 5.52-.129 1.852.544 3.43 1.599 5.418.781 1.537-.632 2.838-1.948 2.602-3.567-.001-.002-.874-1.593-1.458-1.852m-189.411-1.143s4.284 5.627 1.607 9.108c0 0-8.575-3.752-12.325-2.144 0 0-1.072-1.608 0-3.483.001.001 5.359-3.749 10.718-3.481m212.899 0s-4.285 5.627-1.605 9.108c0 0 8.574-3.752 12.324-2.144 0 0 1.07-1.608 0-3.483 0 .001-5.36-3.749-10.719-3.481"/><path fill="#fde62f" d="M47.025 126.399s7.707 0 12.94 4.07c0 0 3.052-6.179 1.962-7.706 0 0 3.782 1.529 4.727-2.18 0 0 6.177 19.189 7.631 21.807 0 0-5.232 1.018-6.106 1.309 0 0-6.032-3.997-6.397-4.217 0 0 .728-4.433-.654-6.105-1.381-1.672-7.561-6.47-12.432-2.69.001 0-1.527-1.67-1.671-4.288m231.717 0s-7.707 0-12.939 4.07c0 0-3.051-6.179-1.963-7.706 0 0-4.15 2.778-5.096-.93 0 0-5.807 17.939-7.262 20.557 0 0 5.232 1.018 6.105 1.309 0 0 6.033-3.997 6.396-4.217 0 0-.727-4.433.654-6.105s7.561-6.47 12.432-2.69c.001 0 1.529-1.67 1.673-4.288"/></svg>