<svg viewBox="1 1 181.59 250" xmlns="http://www.w3.org/2000/svg"><g transform="translate(1 1) scale(.40398)"><path d="M111.517 176.429v152.979c0 13.908 4.966 24.835 10.927 30.795 5.924 5.924 101.131 71.697 102.308 72.51 1.175-.813 96.382-66.586 102.306-72.51 5.961-5.96 10.927-16.887 10.927-30.795V176.429z" fill="#e9b745"/><path d="M329.479 223.718v-38.785H120.02v38.785z" fill="#e32219"/><path d="M120.021 231.218v98.19c0 12.032 4.343 20.673 8.417 24.76 1.662 1.556 9.684 7.432 21.507 15.86v-138.81z" fill="#ffe500"/><path d="M149.944 231.218v138.811a4615 4615 0 0 0 29.922 21.111V231.218z" fill="#e32219"/><path d="M179.866 231.218V391.14a9177 9177 0 0 0 29.923 20.863V231.218z" fill="#ffe500"/><path d="M209.789 231.218v180.785c4.963 3.445 9.968 6.916 14.962 10.37 4.964-3.437 9.973-6.908 14.96-10.371V231.218z" fill="#e32219"/><path d="M239.711 231.218v180.784a9372 9372 0 0 0 29.923-20.859V231.218z" fill="#ffe500"/><path d="M269.634 231.218v159.925a4629 4629 0 0 0 29.924-21.108V231.218z" fill="#e32219"/><path d="M299.558 231.218v138.816c11.751-8.375 19.8-14.271 21.505-15.866 4.072-4.087 8.417-12.727 8.417-24.76v-98.19z" fill="#ffe500"/><path d="M170.533 220.802h-8.824l-8.7-12.863-1.882 1.776v11.087h-7.219v-32.625h7.219v12.729l13.378-13.291 4.481 4.535-10.938 10.896zm32.854-32.191l14.195 32.426h3.143l14.253-32.426h-7.602l-7.992 19.556-8.239-19.556zm102.205 32.191h-7.395l-3.574-18.246-6.627 17.897h-3.365l-5.998-17.22-3.624 17.568h-7.011l7.266-32.625h2.813l8.676 19.276 8.574-19.276h3.018zm-121.714 42.537v52.875c0 7.875 6.375 12.75 9.75 15 3.33 2.22 30.381 20.498 31.11 20.99.729-.492 27.805-18.771 31.134-20.99 3.375-2.25 9.75-7.125 9.75-15v-52.875z" fill="#e9b745"/><path d="M261.443 288.297c-2.026 1.158-7.005-.355-8.917-2.487 1.852-.194 6.205-.88 7.886-3.161a3.23 3.23 0 0 0 .657-1.955 3.8 3.8 0 0 0-.123-.94l-.132-.522-.478.25c-2.323 1.219-4.946 1.227-7.211.229 2.131-.676 4.718-3.206 5.276-3.96.892-1.206 1.741-3.076 1.741-4.847 0-1.107-.332-2.177-1.195-3.021l-.313-.307-.326.381c-.401.439-5.826 3.907-6.34 4.161-2.305 1.138-4.716 1.707-7.816 1.846l-1.191-.03c-1.591-.083-3.768-.198-4.532 1.412-.95 2.004-.598 4.199-.255 6.322.334 2.072.679 4.216-.19 6.183-.666 1.507-2.438 5.509-4.512 5.455-2.14-.056-3.32-5.831-3.354-8.283-.021-1.593.278-3.223.57-4.8.378-2.045.769-4.16.473-6.254-.461-3.269-2.689-4.979-6.443-4.948l-3.16.37-1.107.173-2.2.472c-.551.228-.818.628-.88 1.148l-4.068-.694c-.727-.145-1.266-.031-1.734.31-1.271.923-1.559 3.257-1.57 3.355l.825.187c.105-.232 1.114-.627 2.118-.829.001.013 2.839.19 3.279.219l.785.785c-.589.029-1.431.042-2.781-.07-.735-.062-1.742-.061-1.978.66-.225.683.534 1.409.612 1.456 1 .346 2.512.481 4.545.446.021 1.508.459 2.774 1.333 3.75l.196.218c1.713 1.903 3.33 3.7 3.354 6.357l.001.124c0 3.831-1.691 7.276-4.492 9.473-.078-.489-.172-.971-.172-1.489 0-.337.009-.676.018-1.012l.008-2.085-.444.039c-1.764.073-3.104-.354-4.094-1.304-1.915-1.835-2.182-5.312-2.185-8.795l.21-2.074c.234-1.723.501-3.676-.063-4.863-.763-1.61-2.941-1.496-4.53-1.412l-1.191.03c-3.103-.139-5.512-.708-7.816-1.846-.516-.254-5.938-3.722-6.341-4.161l-.298-.325-.343.251c-.862.845-1.195 1.914-1.195 3.021 0 1.771.852 3.641 1.742 4.846.49.664 3.141 3.263 5.298 3.95-2.269 1.009-4.902 1.006-7.233-.218l-.478-.25-.132.522a3.8 3.8 0 0 0-.123.94q0 1.06.658 1.955c1.682 2.28 6.033 2.967 7.885 3.161-1.911 2.132-6.891 3.645-8.916 2.487l-.68-.389.044.783c.085 1.448.703 2.631 1.838 3.512 2.253 1.747 6.1 1.922 8.935 1.685-.187.138-.365.254-.556.399-.744.569-1.515 1.158-2.187 1.389-1.799.616-3.614.707-5.549.276l-1.109-.246.674.914c3.469 4.704 7.503 6.252 13.447 5.401-2.449 1.873-6.13 4.171-9.583 4.051l-1.243-.043 1.088.865.841.7 1.224.971c1.316.623 2.856.719 4.05.732 1.898.021 4.376-.271 6.281-1.055-1.128 1.594-2.283 2.977-3.879 4.058l-.511.346.505.354c1.344.938 3.155 1.178 5.39.711 4.354-.911 9.042-4.285 11.112-7.056.032.157.118.284.118.457q.001.696-.349 1.564c-1.545 3.845-7.894 9.043-10.565 9.766-.483.13-1.497-.032-2.391-.175l-2.208-.229c-2.957.129-5.915.564-6.753 4.239l-.173.764 1.178-.431c2.316-.849 4.713-1.723 6.765-.395-.016 1.116-6.827 5.921-7.978 6.182l-1.175.267 1.083.53c2.449 1.198 5.449.031 7.48-1.094-.481.938-.82 1.94-.82 2.968 0 .405.041.81.125 1.201.344 1.606 1.377 2.828 2.906 3.44l.316-.791c-.07-.027-.158-.08-.216-.249a1.4 1.4 0 0 1-.063-.449c0-1.411 1.325-4.505 3.671-8.516 2.517-4.31 6.789-7.665 12.331-9.848-.486 2.238-1.127 4.173-2.012 5.775-.815 1.474-1.986 2.294-3.226 3.161l-2.283 1.802c-1.027 1.004-1.622 2.358-1.622 3.611q0 .361.066.704c.159.819.681 1.931 2.254 2.575 1.786.729 2.885-.139 3.85-.903.533-.422 1.036-.82 1.661-1.017.542-.172 1.025-.12 1.438.15.542.357.916 1.069.999 1.906.141 1.395-.713 2.282-1.7 3.311-1.071 1.114-2.285 2.379-2.199 4.478.063 1.525.879 3.047 2.183 4.069 1.192.938 2.634 1.321 3.952 1.057 1.148.265 2.59-.119 3.782-1.057 1.304-1.022 2.12-2.544 2.183-4.069.091-2.233-.946-3.142-1.949-4.021-.738-.646-1.436-1.256-1.755-2.435-.313-1.151-.056-2.492.596-3.116.413-.396.969-.489 1.649-.273.623.196 1.125.595 1.658 1.017.967.766 2.064 1.633 3.85.903 1.573-.643 2.095-1.755 2.255-2.575q.067-.344.067-.704c0-1.253-.597-2.607-1.623-3.611l-2.284-1.802c-1.239-.868-2.409-1.688-3.226-3.162-.883-1.597-1.523-3.533-2.011-5.774 5.541 2.183 9.813 5.537 12.308 9.807 2.365 4.046 3.694 7.145 3.694 8.557q0 .265-.063.449c-.057.169-.145.222-.215.249l.316.791c1.53-.612 2.562-1.834 2.906-3.44.083-.392.124-.796.124-1.201 0-1.027-.338-2.027-.82-2.967 2.032 1.124 5.032 2.293 7.482 1.093l1.081-.53-1.175-.267c-1.148-.261-7.958-5.063-7.978-6.182 2.059-1.327 4.452-.454 6.768.395l1.177.431-.175-.764c-.839-3.675-3.795-4.11-6.751-4.239l-2.209.229c-.894.144-1.907.305-2.391.175-2.671-.723-9.021-5.921-10.566-9.766q-.348-.868-.349-1.564c0-.173.087-.3.119-.457 2.069 2.77 6.756 6.143 11.11 7.054 2.234.469 4.049.23 5.391-.709l.507-.354-.511-.346c-1.596-1.081-2.751-2.463-3.882-4.058 1.907.784 4.384 1.075 6.281 1.055 1.195-.014 2.736-.109 4.05-.732l1.227-.973 1.794-1.493-1.11-.026c-3.454.12-7.135-2.178-9.583-4.052 5.944.852 9.979-.696 13.447-5.4l.674-.914-1.108.246c-1.936.431-3.75.34-5.551-.276-.671-.231-1.441-.82-2.187-1.389-.189-.146-.368-.262-.554-.399 2.834.237 6.681.063 8.934-1.685 1.137-.881 1.755-2.063 1.839-3.513l.045-.782z"/><path d="M449.5 349.339c-18.611 4.743-34.282 17.736-41.396 24.414 3.546-8.024 6.713-16.576 9.268-25.606C452.324 330.056 449 290.839 449 290.839c-8.25 5.893-20.818 20.733-25.826 26.824.745-7.559.997-15.36.66-23.381C455.002 269.735 439 231.839 439 231.839c-10.748 6.526-17.071 23.65-19.432 31.258-2.074-8.943-4.928-18.095-8.692-27.433 5.469-5.088 24.173-26.953-1.377-69.825 0 0-12.73 22.082-13.943 39.243-5.577-9.289-12.091-18.722-19.648-28.276 0 0 1.986-33.775-43.708-40.729 0 0-.993 39.735 38.742 40.729 10.058 13.669 18.202 27.019 24.691 40C380.542 202.922 355 198.839 355 198.839c17.729 38.482 44.412 42.562 51.311 42.961 3.88 10.929 6.625 21.554 8.394 31.84-7.628-7.141-29.47-26.085-47.704-27.301 0 0 5.336 44.837 50.071 48.796a172.5 172.5 0 0 1-1.447 32.114c-3.779-9.308-14.328-28.087-40.625-39.41 0 0-6.379 45.811 36.579 59.684-3.486 13.389-8.317 25.682-13.777 36.749-.064-10.13-3.088-32.051-25.802-48.434 0 0-10.28 43.656 18.21 62.459-7.743 13.116-16.013 23.997-23.158 32.335 1.367-10.462 3.86-40.246-10.052-51.294 0 0-20.614 34.885-1.483 63.744a150 150 0 0 1-6.088 5.743c-11.048 2.727-22.188 6.679-33.679 10.763-25.548 9.079-54.519 19.369-90.999 19.372-36.48-.003-65.451-10.293-90.999-19.372-11.49-4.084-22.631-8.036-33.679-10.763a150 150 0 0 1-6.088-5.743c19.131-28.859-1.483-63.744-1.483-63.744-13.912 11.048-11.419 40.832-10.052 51.294-7.146-8.338-15.415-19.219-23.158-32.335 28.49-18.803 18.21-62.459 18.21-62.459-22.714 16.383-25.737 38.304-25.802 48.434-5.46-11.067-10.291-23.36-13.777-36.749 42.958-13.873 36.579-59.684 36.579-59.684-26.297 11.323-36.846 30.102-40.625 39.41a172.5 172.5 0 0 1-1.447-32.114c44.735-3.958 50.071-48.796 50.071-48.796-18.234 1.216-40.076 20.16-47.704 27.301 1.769-10.286 4.514-20.911 8.394-31.84 6.898-.399 33.582-4.479 51.311-42.961 0 0-25.542 4.083-40.633 17.967 6.489-12.982 14.634-26.332 24.691-40 39.735-.993 38.742-40.729 38.742-40.729-45.694 6.954-43.708 40.729-43.708 40.729-7.558 9.555-14.071 18.987-19.648 28.276-1.213-17.161-13.943-39.243-13.943-39.243-25.55 42.873-6.846 64.737-1.377 69.825-3.765 9.338-6.618 18.49-8.692 27.433-2.36-7.607-8.684-24.731-19.432-31.258 0 0-16.002 37.896 15.166 62.443a167 167 0 0 0 .66 23.381C21.318 311.572 8.75 296.732.5 290.839c0 0-3.324 39.216 31.629 57.307 2.555 9.03 5.722 17.582 9.268 25.606-7.115-6.677-22.786-19.67-41.397-24.413 0 0 2.484 44.137 55.027 50.312a240 240 0 0 0 13.548 19.771c-7.16-2.628-28.89-9.993-46.574-9.581 0 0 14.915 30.241 63.534 29.556a190 190 0 0 0 8.015 7.979c-6.762-1.348-13.509-2.164-20.3-2.164-14.587 0-39.966 1.587-46.037 12.214-4.238 7.417 2.957 38.601 5.323 48.849 0 0 2.276 10.16 4.662 12.27 20.976 15.202 57.175-4.118 57.486-4.391l4.778-4.957s28.564 10.705 63.192 18.577c-14.032 1.124-41.144 5.179-54.155 19.816 0 0 36.177 20.253 72.997-15.979 2.561.459 5.132.893 7.705 1.292l23.548 24.437s-46.5-7.5-66 11.25c0 0 19.5 13.5 53.25 7.5l-41.25 32.25 3 10.5s61.899-51.56 63-52.486c1.101.927 63 52.486 63 52.486l3-10.5-41.25-32.25c33.75 6 53.25-7.5 53.25-7.5-19.5-18.75-66-11.25-66-11.25l23.548-24.437c2.573-.399 5.145-.833 7.705-1.292C304.823 567.842 341 547.589 341 547.589c-13.012-14.638-40.123-18.692-54.155-19.816 34.628-7.872 63.192-18.577 63.192-18.577l4.778 4.957c.312.272 36.511 19.593 57.486 4.391 2.386-2.109 4.662-12.27 4.662-12.27 2.366-10.248 9.562-41.432 5.323-48.849-6.071-10.627-31.45-12.214-46.037-12.214-6.791 0-13.538.816-20.3 2.164a191 191 0 0 0 8.015-7.979c48.619.686 63.534-29.556 63.534-29.556-17.685-.412-39.414 6.953-46.574 9.581a240 240 0 0 0 13.548-19.771c52.544-6.174 55.028-50.311 55.028-50.311" fill="#e9b745"/><path d="M324.074 95.242c-1.734 0-3.302.671-4.506 1.742.425-1.848.656-3.781.646-5.783 1.192 1.987 3.348 3.334 5.829 3.334a6.826 6.826 0 0 0 6.818-6.819 6.827 6.827 0 0 0-6.818-6.819c-3.063 0-5.63 2.043-6.488 4.828a25 25 0 0 0-.398-1.491v-.001a30 30 0 0 0-1.89-4.721c1.013.595 2.176.96 3.431.96 3.761 0 6.82-3.06 6.82-6.819s-3.06-6.819-6.82-6.819c-3.759 0-6.817 3.06-6.817 6.819 0 .24.047.467.07.7a28.7 28.7 0 0 0-4.724-4.591c.074.002.145.021.221.021a6.826 6.826 0 0 0 6.819-6.818 6.827 6.827 0 0 0-6.819-6.82c-3.76 0-6.818 3.059-6.818 6.82 0 1.187.332 2.286.867 3.259a40 40 0 0 0-5.756-2.251c1.511-1.252 2.493-3.117 2.493-5.227 0-3.761-3.059-6.82-6.818-6.82a6.826 6.826 0 0 0-6.819 6.82c0 1.175.327 2.266.853 3.232a56 56 0 0 0-3.694-.218l-1.022-.025c-.783-.837-1.68-1.583-2.62-2.288 2.985-.726 5.215-3.404 5.215-6.608a6.827 6.827 0 0 0-6.819-6.819 6.826 6.826 0 0 0-6.818 6.819c0 .888.183 1.73.492 2.509-1.44-.51-2.92-.967-4.447-1.344 1.946-1.202 3.258-3.337 3.258-5.787 0-3.76-3.061-6.82-6.82-6.82s-6.817 3.06-6.817 6.82c0 1.617.589 3.083 1.532 4.253a95 95 0 0 0-6.486-.479c2.487-1.018 4.246-3.458 4.246-6.306 0-3.761-3.06-6.82-6.82-6.82-3.759 0-6.817 3.059-6.817 6.82 0 2.766 1.661 5.142 4.034 6.21-2.379.013-4.542.091-6.331.192l-.675.039a59 59 0 0 0-1.213-1.578l-.45-.563a14 14 0 0 0 .368-3.156c0-5.201-2.838-9.742-7.039-12.188l-.253-1.259c-.009-.046-.82-4.146-1.013-9.426 1.368.106 3.433.37 6.369 1.062l2.613.616-.001-16.143-2.552.524c-.035.006-2.897.578-6.504.77.111-1.874.367-4.797.977-8.296L231.771 0h-14.043l.433 2.49c.609 3.499.865 6.422.977 8.296a50 50 0 0 1-6.504-.77l-2.552-.524-.001 16.143 2.613-.616c2.937-.692 5.001-.956 6.369-1.062-.192 5.279-1.004 9.379-1.013 9.426l-.253 1.259c-4.201 2.445-7.039 6.986-7.039 12.188 0 1.086.135 2.14.368 3.156l-.45.563c-.398.499-.804 1.03-1.213 1.578l-.675-.039a125 125 0 0 0-6.331-.192c2.373-1.068 4.034-3.444 4.034-6.21 0-3.761-3.059-6.82-6.817-6.82a6.827 6.827 0 0 0-6.82 6.82c0 2.848 1.759 5.288 4.246 6.306a96 96 0 0 0-6.486.479c.943-1.17 1.532-2.637 1.532-4.253 0-3.76-3.059-6.82-6.817-6.82-3.76 0-6.82 3.06-6.82 6.82 0 2.45 1.312 4.585 3.258 5.787a47 47 0 0 0-4.447 1.344c.31-.779.492-1.622.492-2.509a6.827 6.827 0 0 0-6.818-6.819 6.826 6.826 0 0 0-6.819 6.819c0 3.204 2.229 5.882 5.215 6.608-.94.706-1.837 1.451-2.62 2.288l-1.022.025a56 56 0 0 0-3.694.218c.525-.966.853-2.057.853-3.232a6.827 6.827 0 0 0-6.819-6.82c-3.76 0-6.818 3.059-6.818 6.82 0 2.109.982 3.975 2.493 5.227a40 40 0 0 0-5.756 2.251c.535-.973.867-2.072.867-3.259 0-3.761-3.059-6.82-6.818-6.82a6.826 6.826 0 0 0-6.819 6.82 6.827 6.827 0 0 0 6.819 6.818c.076 0 .146-.02.221-.021a28.7 28.7 0 0 0-4.724 4.591c.023-.233.07-.46.07-.7 0-3.76-3.059-6.819-6.817-6.819a6.83 6.83 0 0 0-6.82 6.819c0 3.759 3.06 6.819 6.82 6.819 1.255 0 2.418-.366 3.431-.96a30 30 0 0 0-1.89 4.721v.001c-.151.5-.281.997-.398 1.491-.858-2.785-3.425-4.828-6.488-4.828a6.826 6.826 0 0 0-6.818 6.819 6.827 6.827 0 0 0 6.818 6.819c2.481 0 4.637-1.347 5.829-3.334a25 25 0 0 0 .646 5.783c-1.204-1.071-2.771-1.742-4.506-1.742-3.76 0-6.818 3.06-6.818 6.82 0 3.759 3.059 6.819 6.818 6.819 3.378 0 6.17-2.476 6.706-5.704a37 37 0 0 0 2.551 4.473c-3.615.165-6.512 3.134-6.512 6.789a6.827 6.827 0 0 0 6.819 6.819c.81 0 1.576-.167 2.298-.427-1.589 3.003-1.679 5.359-.209 7.002 1.605 1.797 4.603 1.819 5.491 1.35l.261-.139.199 4.504 4.44 6.788 3.29 2.507a20.3 20.3 0 0 0 2.851 1.789c-.018.02-.046.038-.062.058-1.575 1.737-2.021 3.323-2.021 4.562 0 .422.053.804.129 1.138.724 3.159 4.131 4.68 4.806 4.953l1.08.437c6.517 9.5 51.032 12.689 67.207 12.689s60.69-3.189 67.207-12.689l1.08-.437c.675-.273 4.082-1.794 4.806-4.953a5 5 0 0 0 .129-1.138c0-1.239-.446-2.825-2.021-4.562-.016-.02-.044-.038-.062-.058a20.3 20.3 0 0 0 2.851-1.789l3.29-2.507 4.44-6.788.199-4.504.261.139c.889.47 3.886.447 5.491-1.35 1.47-1.643 1.38-3.999-.209-7.002a6.7 6.7 0 0 0 2.298.427 6.826 6.826 0 0 0 6.819-6.819c0-3.655-2.896-6.624-6.512-6.789a37 37 0 0 0 2.551-4.473c.536 3.229 3.328 5.704 6.706 5.704 3.76 0 6.818-3.06 6.818-6.819-.003-3.761-3.062-6.821-6.822-6.821" fill="#e9b745"/><g fill="#e32219"><path d="M205.476 103.307c-3.157-5.252-6.33-13.245-6.33-24.226 0-7.279 2.179-13.8 5.082-19.264-8.546.368-29.03 2.688-32.728 16.373-3.248 12.014 2.139 23.574 6.489 30.296a343 343 0 0 1 27.487-3.179m-21.542 18.831l9.952 4.316c-2.208 1.854-7.364 6.186-8.308 6.977l-9.952-4.314c2.208-1.857 7.365-6.188 8.308-6.979"/><circle cx="224.75" cy="121.14" r="7.034"/><circle cx="147.353" cy="137.587" r="7.036"/><path d="M163.798 105.293c-1.376 1.692-3.447 2.796-5.798 2.796a7.5 7.5 0 0 1 0-15c.044 0 .083.012.126.013a55 55 0 0 1-.724-2.421c-1.282 1.022-2.886 1.659-4.652 1.659a7.5 7.5 0 0 1 0-15c.94 0 1.831.193 2.66.509a57 57 0 0 1-.029-4.106l-.049-.153c-6.129.746-18.272 3.674-19.104 15.187-.924 12.796 4.092 22.127 10.438 27.202 5.449-2.633 12.076-5.147 19.388-7.338a53 53 0 0 1-2.256-3.348m60.952 37.263c-35.29 0-63.896 7.607-63.896 10.829 0 3.067 28.606 10.831 63.896 10.831s63.896-7.764 63.896-10.831c0-3.222-28.606-10.829-63.896-10.829m8.662-87.706c-2.337 2.268-5.358 3.653-8.662 3.685-3.304-.032-6.325-1.417-8.662-3.685-3.56 5.429-7.828 14.055-7.828 24.231 0 9.049 3.009 18.798 4.739 23.656 3.975-.216 7.912-.299 11.751-.214 3.84-.085 7.776-.002 11.751.214 1.73-4.858 4.739-14.607 4.739-23.656 0-10.177-4.268-18.802-7.828-24.231m10.612 48.457c3.157-5.252 6.33-13.245 6.33-24.226 0-7.279-2.179-13.8-5.082-19.264 8.546.368 29.03 2.688 32.728 16.373 3.248 12.014-2.139 23.574-6.489 30.296a343 343 0 0 0-27.487-3.179m21.542 18.831l-9.952 4.316c2.208 1.854 7.364 6.186 8.308 6.977l9.952-4.314z"/><circle cx="302.147" cy="137.587" r="7.036"/><path d="M285.702 105.293c1.376 1.692 3.447 2.796 5.798 2.796a7.5 7.5 0 0 0 0-15c-.044 0-.083.012-.126.013.263-.815.507-1.625.724-2.421 1.282 1.022 2.886 1.659 4.652 1.659a7.5 7.5 0 0 0 0-15c-.94 0-1.831.193-2.66.509.063-1.515.067-2.904.029-4.106l.049-.153c6.129.746 18.272 3.674 19.104 15.187.924 12.796-4.092 22.127-10.438 27.202-5.449-2.633-12.076-5.147-19.388-7.338a53 53 0 0 0 2.256-3.348"/></g><path d="M218.181 67.787a6.577 6.577 0 0 0 6.57 6.569 6.576 6.576 0 0 0 6.568-6.569 6.576 6.576 0 0 0-6.568-6.57 6.577 6.577 0 0 0-6.57 6.57" fill="#e9b745"/><path d="M218.181 80.226a6.577 6.577 0 0 0 6.57 6.57 6.576 6.576 0 0 0 6.568-6.57 6.576 6.576 0 0 0-6.568-6.57 6.576 6.576 0 0 0-6.57 6.57" fill="#e9b745"/><path d="M218.181 92.664a6.577 6.577 0 0 0 6.57 6.57 6.576 6.576 0 0 0 6.568-6.57 6.577 6.577 0 0 0-6.568-6.57 6.58 6.58 0 0 0-6.57 6.57m31.775 360.381c-.993-10.091-7.259-16.873-14.897-16.128h-.005c-7.642.752-12.472 8.622-11.481 18.715.992 10.092 7.257 16.874 14.896 16.128 7.647-.751 12.475-8.622 11.487-18.715m-12.313 10.251c-2.612.255-5.121-3.548-5.607-8.493s1.239-9.165 3.85-9.422c2.611-.255 5.121 3.548 5.607 8.493.484 4.947-1.24 9.166-3.85 9.422m-33.879-28.961c-7.309 0-13.254 5.945-13.254 13.254 0 6.886 4.53 12.367 11.254 13-2.576 4.937-10.749 7.31-10.749 7.31l9.999 2.44c9.419-5.681 16.001-13.999 16.005-22.75.003-7.309-5.947-13.254-13.255-13.254m0 18.004a4.75 4.75 0 1 1 0-9.501 4.75 4.75 0 0 1 0 9.501m-37.778 6.224l8.062 3.692 13.783-30.097-11.567-4.567-6.499 5.25 6.809 2.602zm117.528-7.974l-3-7.25-4.023 1.928-7.728-16.428-8.277 3.068-4.473 22.183 2.751 7.5 12.923-5.744 3.583 7.658 8.063-3.691-3.557-7.563zm-20.751 1.251l2.575-9.562 3.184 6.803z" fill="#e9b745"/><path d="M224.75 529.589c-81.75 0-129.75-35.25-154.5-35.25s-31.5 10.5-31.5 10.5-9-39-6-44.25 18-9 40.5-9c42.75 0 84 33.75 151.5 33.75s108.75-33.75 151.5-33.75c22.5 0 37.5 3.75 40.5 9s-6 44.25-6 44.25-6.75-10.5-31.5-10.5-72.75 35.25-154.5 35.25" fill="#e32219"/><path d="M410.75 511.589s-6.75-10.5-31.5-10.5c-13.5 0-20.25 8.25-20.25 8.25s35.25 18 51.75 2.25m-372 0s6.75-10.5 31.5-10.5c13.5 0 20.25 8.25 20.25 8.25s-35.25 18-51.75 2.25" fill="#e32219"/><path d="M80.056 487.881l-9.125.666-10.087-12.548-1.68 1.907.836 11.441-7.434.542-2.46-33.659 7.433-.543.96 13.114 12.803-14.685 5.004 4.318-10.634 12.079zm59.8-10.149l-24.063 24.618-3.039-1.153-1.696-34.377 7.302-.391.896 22.922 15.582-16.679zm46.641 44.38l-7.482-1.743.716-19.185-10.374 14.241-3.346-.779-2.581-16.54-7.718 16.837-7.063-1.644 14.959-31.17 2.83.659 4.216 21.451 13.18-17.401 3.021.703zm24.501 2.201l-20.015-1.951 3.272-33.59 19.269 1.876-.563 5.786-11.85-1.154-.873 8.958 12.316 1.199-.363 3.732-12.317-1.199-.908 9.329 12.596 1.228zM239 517.339q-2.437.584-4.365.612-4.516.068-6.688-2.923t-2.248-8.092q-.074-4.944 2.563-7.931 2.636-2.985 6.417-3.042 2.373-.035 3.603.507a11 11 0 0 1 1.967 1.12l1.291-6.454a15 15 0 0 0-2.618-.797q-2.6-.541-4.729-.511-7.882.118-12.176 5.251-4.294 5.135-4.187 12.258.12 8.048 4.381 12.579 4.259 4.531 12.093 4.415 2.085-.031 4.676-.638 2.593-.603 4.245-1.653l-.093-6.187q-1.697.902-4.132 1.486m37.785 1.378l-7.381 1.033-1.956-13.974-9.191 1.288 1.955 13.973-7.381 1.033-4.679-33.424 7.381-1.034 1.942 13.881 9.192-1.286-1.942-13.881 7.381-1.032zm29.247-6.687l-19.483 4.975-8.349-32.701 18.758-4.789 1.438 5.633-11.537 2.944 2.227 8.72 11.991-3.062.927 3.635-11.991 3.062 2.319 9.083 12.264-3.13zm26.44-8.715l-19.549 6.726-10.978-31.916 7.048-2.425 9.088 26.419 12.499-4.3zm22.655-10.111l-18.813 7.1-11.918-31.576 18.113-6.835 2.052 5.438-11.14 4.204 3.179 8.42 11.578-4.369 1.324 3.508-11.578 4.37 3.311 8.771 11.84-4.47zm30.803-5.445l-3.226.451-17.912-17.215 2.708 19.344-7.056.987-4.679-33.424 3.226-.452 17.896 17.109-2.692-19.238 7.057-.987z" fill="#e9b745"/><circle cx="93" cy="489.34" fill="#e9b745" r="5"/><circle cx="138.5" cy="506.839" fill="#e9b745" r="5"/></g></svg>