<svg xmlns="http://www.w3.org/2000/svg" fill="none" viewBox="-0.02 0.02 214.25 358.78"><g clip-path="url(#a)"><path fill="#fff" d="m89.3 353.2-2.9-.2 1.2-17.3-1.9.4-.5-2a5.5 5.5 0 0 0 2-1c.5-.5 1-1 1.3-1.6h.3l1.9 1.2zm14.1-7.8-.1 4.7q-.15 3.75-3.6 3.6h-2.2c-2.3-.2-3.4-1.4-3.4-3.9l.2-4.7c0-1.3.8-2.2 2.4-2.5-1.4-.4-2-1.3-2-2.7l.1-4.3q.15-3.75 3.6-3.6h1.8c2.3.2 3.4 1.4 3.3 4l-.1 4.2c0 1.5-.7 2.3-2 2.6 1.4.4 2 1.3 2 2.6m9.4 8.3H111c-2.3 0-3.5-1.2-3.5-3.8v-1.2h2.8v.8c0 1 .5 1.6 1.4 1.6h.4c.8 0 1.2-.5 1.1-1.3v-5.3l-1.9 1.3h-.6c-2.3 0-3.5-1.2-3.6-3.8l-.1-6c0-2.6 1-3.9 3.4-4h1.9c2.3 0 3.5 1.2 3.5 3.8l.3 14c0 2.5-1 3.8-3.3 3.9m13.3-.5H124c-2.3.2-3.5-1-3.7-3.4l-.3-4.7c0-1.3.7-2.2 2.2-2.7-1.4-.3-2.2-1-2.3-2.5l-.2-4.3c-.2-2.5.9-3.8 3.2-3.9l1.8-.1c2.3-.1 3.5 1 3.6 3.5l.3 4.3c.1 1.4-.5 2.3-1.7 2.7 1.4.3 2.2 1.1 2.2 2.5l.3 4.7c.2 2.4-.9 3.7-3.2 3.9Zm43.4-165.3c-5.1 26.3-16.9 59.6-62.4 84.6A141 141 0 0 1 80 253.3V79.6h81.7a812 812 0 0 1 9 92.7c0 6.7-.4 12-1.1 15.6Z"/><path fill="#9B844D" d="M165.5 40.4c0 .6-.4 1.3-.8 1.8-.2.2-.4.4-.4.6l-19.3 22a112.2 112.2 0 0 0-75.2 0 1241 1241 0 0 1-19.3-22l-.4-.6c-.4-.5-1-1.2-.8-1.8 0-.3.3-.7.7-1 1-.6 3.3 1.5 4.9 3 .4.3.8.6 1 1l1 .7c1.7 1.7 4.5 4.4 9.8 6.4 7 2.5 16.1 1.6 19.3.8 8-2 18-8 20.6-25.5 0 0 .1-.8.8-.8.6 0 .7.8.7.8 2.6 17.4 12.7 23.5 20.7 25.5a39 39 0 0 0 19.2-.8c5.3-2 8.2-4.7 9.9-6.4l.8-.8 1.2-1c1.5-1.4 3.8-3.5 4.8-2.9.5.3.7.7.8 1M22.3 140l-.4-1.6c-1-4-3.7-17.8 5.7-27l1-1 .5 1.4a27.2 27.2 0 0 1-5.7 27zm169.7 0-1.2-1.2a27 27 0 0 1-5.6-27l.4-1.4 1 1c9.4 9.2 6.8 23 5.8 27zM17.9 157.5l-1.3-.8c-2.2-1.6-7.2-6.3-5.3-17l.3-1.4 1.2.9c2 1.5 6.7 6.3 5.3 16.8zm178.5 0-.2-1.5c-1.5-10.5 3.2-15.3 5.3-16.8l1.2-1 .2 1.5c2 10.7-3 15.4-5.3 17zm-174 7.3-.4-2.3a24.6 24.6 0 0 1 5-20.1l1.3-1.5.3 1.9a27 27 0 0 1-4.9 20l-1.2 2Zm169.4 0-1.2-2c-6.1-9.3-5.5-17-5-20l.4-2 1.2 1.6a24.7 24.7 0 0 1 5 20.1zm-176.1 11-1.3-.5c-2.6-1-11-5.2-10.4-20.1v-1.5l1.3.7c2.8 1.7 9.4 6.8 10.3 20v1.4Zm182.9 0v-1.4c1-13.6 8.1-18.7 10.3-20l1.3-.7v1.5c.7 14.9-7.7 19.1-10.3 20zm-178.9 13-.3-1.5a24 24 0 0 1 5.8-20.4l1.2-1.3.4 1.7c.7 3 2.4 13.4-5.9 20.5zm174.8 0-1.2-1c-8.2-7-6.5-17.5-5.8-20.5l.4-1.7 1.2 1.3a23.9 23.9 0 0 1 5.7 20.4l-.3 1.6ZM15.1 201.3l-1.5-.7c-3.3-1.7-14.2-8-13.6-21.1v-1.2l1.2.3c3 .8 12.7 4.7 13.8 21.1v1.6Zm184 0 .2-1.6c1-16.4 10.8-20.3 13.8-21l1-.4.1 1.2c.6 13-10.2 19.4-13.6 21l-1.4.8Zm-176 11.3-.4-1.7c-1-3.9-2.8-13.8 3.5-21.5l.9-1 .6 1.2a19.4 19.4 0 0 1-3.5 21.7zm168 0-1.1-1.3a19.4 19.4 0 0 1-3.5-21.7l.7-1.3.9 1.1c6.2 7.7 4.5 17.6 3.5 21.5zm-169.6 14-1.8-.5C16 224.6 4 219.3 4.2 206.8v-1l1 .1c2.5.3 10.7 2.6 15.7 19zm171.3 0 .5-1.7c5-16.3 13.3-18.5 15.7-18.9h1v1c.3 12.5-11.8 17.7-15.5 19l-1.7.7ZM32.3 239.4l-1-1.3c-1.5-2.4-6.3-11-1-23l.6-1.4 1 1c1.9 2.1 7.7 9.9 1 23.3zm149.7 0-.7-1.4c-6.6-13.5-.8-21.2 1.1-23.2l1-1 .5 1.2c5.4 12.2.6 20.7-1 23zm-152.2 9.1-1.6-.2a27 27 0 0 1-20.1-14.8l-.8-1.6 1.7.3c3.5.6 15.2 3.4 20.2 14.8zm154.6 0 .7-1.5c5-11.4 16.7-14.2 20.1-14.8l1.8-.3-.8 1.6a27 27 0 0 1-20.2 14.8zM48.9 261.6l-1.2-.9a21 21 0 0 1-8.6-22.2l.2-1.2 1.1.6c2.5 1.4 10.6 7.2 8.7 22.2zm116.4 0-.2-1.5c-1.8-15 6.2-20.8 8.7-22.2l1.1-.6.3 1.2c2.5 13.5-6 20.4-8.6 22.2zm-120.1 8.6c-4.1 0-14.6-1.1-24-12.2l-1-1.3 1.6-.2a32 32 0 0 1 3.8-.2A23 23 0 0 1 47 268.9l.6 1.2-1.3.1h-1.2Zm123.9 0h-2.6l.6-1.3a22.9 22.9 0 0 1 21.6-12.6c1.6 0 3 0 3.8.2l1.6.2-1 1.3a31.7 31.7 0 0 1-24 12.2m-97.8 14.4-1.5-1c-3.3-2-14.2-9.8-14.1-25.4V257l1.2.5c3.1 1.2 13.3 6.5 14.3 25.5l.1 1.7Zm71.6 0 .1-1.7c1-19 11.3-24.3 14.4-25.5l1.2-.5v1.3a29.4 29.4 0 0 1-14.2 25.5zm-82.1 6.9c-5.1 0-12.8-1.6-20.4-9.3l-1.1-1.2 1.6-.4a34 34 0 0 1 6.8-.7c6 0 14.3 1.6 20.7 9l.8 1-1.2.5c-1.3.4-3.8 1-7.2 1Zm92.7 0c-3.4 0-6-.7-7.2-1.1l-1.3-.5.9-1c6.3-7.4 14.7-9 20.6-9 3.1 0 5.6.5 6.8.7l1.7.4-1.2 1.2a28.1 28.1 0 0 1-20.3 9.3m-68.2 18.2c-7.7 0-15.6-2.4-23.3-7l-1.6-1 1.7-.7a28 28 0 0 1 10.4-1.9 40 40 0 0 1 22.5 7.5l1.5 1.1-1.7.6a32 32 0 0 1-9.5 1.4m43.6 0c-4.5 0-7.8-.9-9.4-1.4l-1.8-.6 1.6-1a40 40 0 0 1 22.4-7.6c5 0 8.7 1.2 10.4 1.9l1.7.7-1.5 1c-7.8 4.6-15.6 7-23.4 7m-26.3-5.5-1.3-.4c-16.6-4.3-22.6-20.7-23.6-24l-.5-1.5 1.6.4a30.6 30.6 0 0 1 23.6 24zm9 0 .3-1.4c.5-3.2 4.3-19.5 23.6-24.1l1.6-.4-.5 1.6c-1.5 4.5-7.5 19.8-23.6 24z"/><path fill="#9B844D" d="M169.5 188c-5.1 26.2-16.9 59.5-62.4 84.5A141 141 0 0 1 80 253.3V79.6h81.7a812 812 0 0 1 9 92.7c0 6.7-.4 12-1.1 15.6ZM107.4 68.3c7.3 0 14.5.8 21.5 2.3h-43a102.2 102.2 0 0 1 21.5-2.3m-38.1 174a115.1 115.1 0 0 1-24.5-54.5 89 89 0 0 1-1-15.6c0-23.8 4.5-63.4 8.8-92.7h16.7v162.7Zm106.8-123c-2.7-24-6-45.3-6.5-48.7H150a108.7 108.7 0 0 0-42.5-8.7A108 108 0 0 0 65 70.6H44.6c-.5 3.4-3.8 24.7-6.5 48.7-3.8 34.5-4.7 58.7-2.4 70.2a131 131 0 0 0 18.5 48 134 134 0 0 0 53 45c23.5-12 40.8-26.8 52.8-45a131.3 131.3 0 0 0 18.6-48c2.2-11.5 1.4-35.7-2.5-70.2"/><path fill="#9B844D" d="M139 192c-4.6 14.6-11.7 14.2-12 14.1h-.4l-.1-.3c-2-4.8-5.4-28.3-5.4-40.8 0-11.2 4.2-53.1 5-60.3l-17 8.4c5.9 18.6 3.4 80.4 2 90.2-1 6.8-3 13.4-4.4 18.2l-1.4 4.7c-.7 3.2-.3 5.3 0 5.8a132.6 132.6 0 0 1 16.3-10l10.6-5a41 41 0 0 0 6.7-3.1c.7-.9 2.2-4.4 2.7-11.5.3-4.6-1.6-8.6-2.7-10.4Z"/><path fill="#9B844D" d="M161.9 192.5c0 9.3-3.3 20-10 32.5a106.5 106.5 0 0 1-41.7 39.6A48.1 48.1 0 0 1 87.5 250c14 1.7 26.7-1 37.4-8a52 52 0 0 0 17.9-19.4 48 48 0 0 0 2.4-34.6c-3-9.8-16.7-19.7-18.5-21a100 100 0 0 1-.2-19.2 88 88 0 0 1 27.4 21.6c5.3 7.2 8 14.7 8 23ZM158 97.2l-12.2 14.5c-2.9-2.5-17.9-14.7-31.8-12a18.1 18.1 0 0 0-14.1 16c-.8 10.4 6.7 19.6 7.9 21 0 1.7.3 14-.3 20a45.6 45.6 0 0 1-18.8-18.8 38.4 38.4 0 0 1-3.7-30 31.3 31.3 0 0 1 24.4-21.4A68 68 0 0 1 158 97.2M118.4 8.8l-5.9 4.2c-.4.4-.6 1-.5 1.6l2.3 6.9c.2.5 0 .6-.5.3l-5.9-4.2c-.4-.3-1.1-.3-1.6 0l-5.8 4.2c-.5.3-.7.2-.5-.3l2.2-7c.2-.4 0-1.1-.5-1.5L96 8.8c-.5-.3-.4-.6.2-.6h7.2c.5 0 1.1-.4 1.3-1l2.2-6.8c.2-.5.5-.5.6 0l2.3 6.9c.1.5.7 1 1.3 1h7.2c.5 0 .6.2.2.5Zm7.7 344.4H124c-2.3.2-3.5-1-3.7-3.4l-.3-4.7c0-1.3.7-2.2 2.2-2.7-1.4-.3-2.2-1-2.3-2.5l-.2-4.3c-.2-2.5.9-3.8 3.2-3.9l1.8-.1c2.3-.1 3.5 1 3.6 3.5l.3 4.3c.1 1.4-.5 2.3-1.7 2.7 1.4.3 2.2 1.1 2.2 2.5l.3 4.7c.2 2.4-.9 3.7-3.2 3.9Zm-13.3.5H111c-2.3 0-3.5-1.2-3.5-3.8v-1.2h2.8v.8c0 1 .5 1.6 1.4 1.6h.4c.8 0 1.2-.5 1.1-1.3v-5.3l-1.9 1.3h-.6c-2.3 0-3.5-1.2-3.6-3.8l-.1-6c0-2.6 1-3.9 3.4-4h1.9c2.3 0 3.5 1.2 3.5 3.8l.3 14c0 2.5-1 3.8-3.3 3.9m-9.4-8.3-.1 4.7q-.15 3.75-3.6 3.6h-2.2c-2.3-.2-3.4-1.4-3.4-3.9l.2-4.7c0-1.3.8-2.2 2.4-2.5-1.4-.4-2-1.3-2-2.7l.1-4.3q.15-3.75 3.6-3.6h1.8c2.3.2 3.4 1.4 3.3 4l-.1 4.2c0 1.5-.7 2.3-2 2.6 1.4.4 2 1.3 2 2.6m-14.1 7.8-2.9-.2 1.2-17.3-1.9.4-.5-2a5.5 5.5 0 0 0 2-1c.5-.5 1-1 1.3-1.6h.3l1.9 1.2zm17.1-40c2.3 2 9 7.3 17 11.7-5.4.3-10.8.5-16.3.6a303 303 0 0 1-17.4-.7c7.8-4.3 14.5-9.7 16.7-11.5Zm59 6a294 294 0 0 1-28.1 4.5c-9.2-3-24.9-8.7-30.2-14.4l-.7-.7-.7.7c-5.3 5.6-20.6 11.3-29.8 14.3a299 299 0 0 1-27-4.3l-7.8 32.5a336 336 0 0 0 66 7 336 336 0 0 0 66-7l-7.8-32.5Z"/><path fill="#9B844D" d="m60.6 313.6-1 4.3-10-1.9-3.1-.6-5.7 23.4-16.7-3.8 6.8-28.2zM190.2 335l-16.8 3.8-5.6-23.4-3.2.6-10 1.9-1-4.3 29.8-6.8zm-89.7 10.5-.1 4c0 1-.5 1.6-1.4 1.6h-.7c-.9-.1-1.3-.6-1.3-1.7l.2-4c0-1 .6-1.5 1.7-1.5s1.6.6 1.6 1.6m.1-9.2-.1 3.6c0 1-.5 1.4-1.4 1.5h-.3c-.8 0-1.3-.6-1.2-1.6v-3.6c.1-1 .6-1.5 1.4-1.5h.4c.8 0 1.3.6 1.2 1.6m12.5 6.8h-1.8c-.8 0-1.3-.4-1.3-1.5l-.1-5.6c0-.9.4-1.3 1.3-1.3h.3c1 0 1.4.4 1.4 1.2zm13.3 5.8c0 1-.3 1.6-1.2 1.7h-.7c-.9 0-1.4-.4-1.4-1.5l-.3-4c0-1 .5-1.5 1.6-1.6 1.1 0 1.7.4 1.8 1.4zm-.8-9.5c0 .9-.3 1.4-1.2 1.6h-.3c-.9 0-1.3-.4-1.4-1.5l-.2-3.6c0-1 .3-1.6 1.2-1.6h.3c.9 0 1.3.4 1.4 1.5z"/><path fill="#ED1C24" d="M69.3 79.6v162.7c-16-19.1-21.6-39-24.5-54.4a89 89 0 0 1-1-15.6c0-23.8 4.5-63.4 8.8-92.7z"/></g><defs><clipPath id="a"><path fill="#fff" d="M0 0h214.3v358.9H0z"/></clipPath></defs></svg>