<svg xmlns="http://www.w3.org/2000/svg" fill="none" viewBox="3 0 42 51"><path fill="#60B22C" d="m23.12 27.443 2.196-6.71h7.1l2.196 6.71-5.746 4.156zm21.222 13.715c.534 2.01.559 5.66-5.833 8.362l-.546.234c-6.628 2.788-8.613.074-8.986-1.578l4.183-1.764c.161.296.993 1.53 4.034.246 2.891-1.22 3.09-2.873 2.842-3.922a3.7 3.7 0 0 0-.261-.764c-.496-1.172-1.725-2.023-4.245-.962-3.09 1.307-2.891 3.021-2.891 3.305l-4.183 1.764c-.236-.74-.422-1.863.037-3.12L23.281 51l-11.592-5.07 1.576-2.441 7.645 3.342.795-1.245-7.497-3.281 1.577-2.43 7.496 3.28.893-1.356-6.863-2.997-9.767 2.232-3.935-9.682c-1.154-2.836-.583-4.403.993-5.032 1.713-.69 3.14.444 3.86 1.456-.124-1.246.298-2.393 1.676-2.788a5.4 5.4 0 0 1-1.924-.555 7.7 7.7 0 0 1-1.142-.678c-1.725-1.197-4.12-3.96-1.005-10.126l.26-.518c3.227-6.39 6.516-5.6 7.881-4.576l-2.035 4.045c-.31-.123-1.75-.518-3.24 2.406-1.402 2.787-.483 4.18.398 4.81.236.172.46.296.695.419 1.142.567 2.631.432 3.86-1.998 1.501-2.985.236-4.156.05-4.378l2.035-4.046c.57.358 1.303.95 1.787 1.924l-1.452-8.745 4.17-1.381 1.378 8.362 6.913-2.281L33.123 0 45 4.403l-1.44 2.529-7.819-2.899-.72 1.295 7.683 2.85-1.427 2.515-7.683-2.849-.819 1.406 7.943 2.948-1.464 2.59-4.356-1.64c-2.545-.888-4.158-1.308-6.206-1.308-7.57 0-13.962 6.143-13.962 13.753 0 .924.099 1.837.285 2.713-.199.05-1.886.432-1.886.432-1.328.296-1.8 1.048-1.142 2.664l1.564 3.835 4.331-1.035c2.557 3.145 6.454 5.118 10.81 5.155 5.002.037 6.652-2.06 9.333-2.417 3.463-.47 5.138 1.22 5.883 2.96.174.419.298.74.434 1.258m-33.596-5.254-1.9-4.687c-.409-1.012-1.091-1.135-1.613-.938-.484.198-.707.605-.372 1.443l1.887 4.625z"/></svg>