<svg xmlns="http://www.w3.org/2000/svg" viewBox="2 2 175.69 250"><path d="M2 2v167.857c0 25.227 16.874 32.547 38.905 33.268 10.586.344 20.518 1.307 28.87 3.128 8.145 1.752 15.019 4.605 20.071 8.249 5.121-3.644 11.926-6.497 20.072-8.249 8.351-1.821 18.283-2.784 28.869-3.128 22.03-.721 38.906-8.042 38.906-33.268V2z" fill="#0060ad"/><path d="M8.632 9.114v160.193c.207 25.363 30.795 23.989 47.636 24.608 11.17.447 23.543 3.574 33.578 8.351 10.07-4.777 22.408-7.904 33.578-8.351 16.841-.62 47.429.755 47.635-24.608V9.114zm18.354 241.99l-.929-2.44a7.4 7.4 0 0 0 1.066.31 6.31 6.31 0 0 0 1.1.103c2.027 0 3.506-.653 4.502-1.96q1.444-1.958 1.444-5.98c0-1.1 0-2.371-.035-3.815-.034-1.41-.068-2.302-.068-2.612 0-4.536.962-8.042 2.886-10.482 1.925-2.44 4.64-3.678 8.214-3.678.963 0 1.925.104 2.853.344.894.207 1.822.55 2.75.997l.928 2.268c-.481-.069-.962-.137-1.375-.206-.447-.034-.859-.069-1.237-.069-1.994 0-3.437.757-4.296 2.234q-1.341 2.165-1.34 7.424c0 .137.034.688.034 1.65.034.928.034 1.787.034 2.577 0 2.578-.172 4.605-.515 6.05-.344 1.477-.894 2.714-1.65 3.78-1.135 1.443-2.44 2.543-4.022 3.3-1.546.755-3.299 1.1-5.292 1.1a16.56 16.56 0 0 1-2.75-.208 9.016 9.016 0 0 1-2.302-.687m55.47-30.176l-1.649 3.643H74.45a114.2 114.2 0 0 0-.413 6.943 167.131 167.131 0 0 0-.137 7.217c0 2.097.035 4.262.103 6.428s.138 4.364.275 6.632c-.653-.033-1.306-.068-1.993-.102-.653-.035-1.34-.035-2.028-.035s-1.34 0-2.028.035l-2.028.102-1.443-1.305c.137-2.234.24-4.331.31-6.324.034-1.993.068-3.918.068-5.74 0-2.371-.034-4.708-.138-7.011a112.1 112.1 0 0 0-.412-6.839h-6.359l-1.614-3.678q3.814.154 7.01.207c2.131.034 4.193.034 6.119.034 1.924 0 3.951 0 6.048-.069 2.13-.034 4.331-.069 6.668-.138m5.636 4.434l.653-1.237a44.848 44.848 0 0 0 3.609-1.856 38.088 38.088 0 0 0 3.437-2.372 176.155 176.155 0 0 0 4.33 9.418c1.65 3.333 3.506 6.874 5.499 10.55l8.146-19.864 3.711 2.887c-2.233 4.845-4.261 9.692-6.151 14.503a276.757 276.757 0 0 0-5.122 14.367c-.343 0-.72-.035-1.1-.07-.377-.034-.756-.034-1.167-.034-.379 0-.757 0-1.17.035-.378 0-.79.034-1.168.069a335.669 335.669 0 0 0-6.633-13.645 294.98 294.98 0 0 0-6.874-12.75m36.122 0l.653-1.238a40.224 40.224 0 0 0 3.643-1.856 37.944 37.944 0 0 0 3.437-2.372 176.618 176.618 0 0 0 4.33 9.418 325.1 325.1 0 0 0 5.5 10.55l8.144-19.864 3.713 2.887c-2.234 4.845-4.262 9.692-6.153 14.503-1.855 4.812-3.574 9.59-5.12 14.367-.344 0-.722-.035-1.1-.07s-.756-.034-1.17-.034c-.377 0-.755 0-1.167.035-.378 0-.79.034-1.169.069a389.761 389.761 0 0 0-6.599-13.645c-2.268-4.399-4.57-8.66-6.942-12.75" fill="#f5d128"/><path d="M128.944 12.928c-1.024.135-2.111 1.81-2.183 2.991-1.82.172-3.677.789-5.533 1.373-.55-.55-1.514-.037-2.442.65-.446.31-1.031-.068-.722 1.272-1.615.584-3.13 1.519-5.158 2.413-1.547-1.306-3.92-1.213-2.442 1.228.687 1.202 1.138 1.482 1.069 2.788-.069 1.169.719 2.378 1.922 2.413-.825 1.272-2.718 1.914-4.162 3.323l1.49.52c5.05 1.96-7.295 7.874-8.945 8.424l3.164.65c4.262 1.169-5.222 4.917-6.632 5.433.516.412 1.31.75 2.067 1.025 1.959.688 2.395 1.04 1.054 2.312-4.124 3.953-4.88 12.26-9.348 15.388-1.511 1.065-2.262 1.246-3.843.318-4.915-2.819-5.597-11.616-9.825-15.706-1.376-1.271-.934-1.624 1.026-2.312.756-.275 1.584-.613 2.066-1.026-3.162-1.133-5.704-2.545-7.629-4.16l4.147-1.922c-4.88-1.238-8.48-3.404-10.027-7.253l2.268-1.243c-1.822-1.031-3.264-2.224-3.814-3.77 1.168-.036 1.855-.557 1.82-1.691-.103-1.306.103-1.274.824-2.442 1.443-2.44-.924-2.568-2.471-1.228-1.615-1.134-3.342-1.967-5.13-2.413.276-1.34.072-2.031-.375-2.34-.961-.688-2.268-.132-2.817.418-1.822-.584-3.712-1.21-5.534-1.416-.103-1.718-2.339-4.468-3.439-1.994-.652 1.478-.369 3.173.318 5.028.688 1.96.928 1.437 0 3.396-4.949.481-8.246 2.202-9.174 5.707 3.264.86 5.635 2.093 7.628 3.468-.79 2.028-7.085 1.167-12.584.823 4.674 3.506 10.45 2.45 12.512 3.309 1.719.721-.82 4.597 5.606 5.215 1.719 1.238 3.778 2.201 6.459 2.717 2.68.515 5.184 2.437 6.833 5.187 1.891 3.162 2.753 7.326 2.168 10.316-1.375 6.942-11.34 10.556-17.251 7.326-8.077-4.434-13.852-11.112-16.876-19.636-2.475-6.908-3.926-14.393-3.41-22.366-3.197-.86-2.921 5.67-1.82 13.163-.138 2.577-1.192 2.576-1.879 1.545-1.65-2.543-1.447-8.803-1.07-11.587-1.27.24-1.932 1.723-2.138 4.06-.275 2.853-.023 6.94.665 11.443.275 1.753.711 3.61.78 5.433-2.646-4.056-3.188-10.038-3.944-16.053-2.268 1.306-1.519 11.108-1.69 13.033-1.513-1.375-1.72-3.678-2.168-6.083-2.268 1.615-2.537 18.275 5.23 29.72-1.821 8.283.545 14.479 4.84 19.737-.72 1.925-.275 4.466.824 7.18 2.2 5.534 6.22 10.518 10.172 14.883 6.633 7.32 14.959 13.953 24.822 19.968L42.86 151.475c-1.031 1.237-3.464 3.596-4.941.881-1.203-2.2-.796-5.903-3.786-5.765.722 1.924-.204 3.397-1.373 4.84-1.683-2.062-3.946-2.263-5.114-.75.928 1.03 1.876 1.366 1.979 2.672.206 2.2.564 2.96-1.43 4.06-1.581.894-2.268.724-4.09.621 1.307 4.709 4.149 6.798 7.586 7.932a15.44 15.44 0 0 0 .144 2.861c.275 1.719.648 2.614.578 4.436 2.578.035 4.776-1.718 6.907-3.814 3.059.137 6.501 1.136 8.496-1.373-.654-.927-2.138-1.683-2.962-2.818-1.1-1.443-1.304-3.266.62-4.984 8.283-7.184 16.156-15.058 25.401-20.488 3.644-2.13 3.572-.282 3.367 3.12-.447 7.047-4.508 18.152-5.505 22.208 1.924.962 3.718 1.815 5.23 3.12l-2.615 14.03 5.303 1.648-.448 2.167c3.505.619 7.036 1.545 10.576 2.644l.55-2.398c.205-.79.482-1.03.895-1.098.48-.07 3.51-.07 3.785.1 1.066.55 1.058.963 1.401 1.995l.665 2.051c3.06-.275 7.32-.13 11.169-2.124l-.665-3.236 5.606-2.398-3.814-13.957c1.512-1.272 3.687-2.024 5.577-3.02-.962-4.056-5.058-15.167-5.505-22.179-.206-3.437-.999-4.804 2.644-2.672 9.211 5.43 17.123 13.304 25.372 20.487.962.86 2.913 2.508 2.947 3.367.035.687-.513.993-1.098 1.199-1.787.653-2.376 1.265-3.51 2.846 1.993 2.509 6.188 1.034 9.246.896 2.131 2.13 4.237 3.574 6.849 3.54.447-3.23-.213-5.46.852-6.834.344-.447.618-.247 1.546-.693 2.715-1.341 5.332-3.576 6.329-7.254-2.131-.31-4.431-.233-5.736-2.124-.482-.893-.31-2.233.274-3.54.55-1.306 1.502-2.543 1.777-3.54-3.196.138-4.084 4.324-6.112 1.402-.79-1.134-1.646-2.609-1.646-4.19-2.44 1.168-1.1 4.843-2.543 6.458-2.062 2.27-3.891.347-4.956-.924l-19.794-18.552c-1.616-2.853-1.199-2.206 1.516-3.959 8.249-5.395 14.941-9.213 20.921-15.778 3.953-4.364 7.193-10.028 9.392-15.56 1.787-4.469.986-7.113 3.324-11.444 4.261-7.87 2.447-14.75 5.403-23.652 3.746-11.238 3.911-21.69 2.399-22.308-.447 2.405-.747 4.13-2.226 5.504-.206-1.958.405-10.382-1.863-11.688-.757 6.014-1.341 11.996-3.988 16.052.069-1.822.563-3.68.838-5.433.069-.961 1.604-14.632-.665-16.11-.653 3.987-.95 8.103-1.329 11.573-.721 6.393-2.756 10.136-4.233 11.27.068-1.787 3.71-20.69 1.372-25.675-.378-.824-1.17-.274-1.892-.274.516 7.973.277 16.36-2.92 22.959-2.268 4.708-5.157 9.251-8.697 13.032-5.293 5.671-9.305 8.935-17.107 6.083-9.073-3.334-10.21-9.897-5.707-18.523 2.44-4.64 8.113-3.819 12.238-6.878 6.426-.618 4.425-4.704 6.212-5.288 2.097-.756 8.52-.07 12.816-4.263-5.018.516-11.366 1.997-13.119.347 1.478-2.062 4.4-3.438 8.077-3.713-.894-3.506-4.437-5.327-9.42-5.808-.928-1.96-.694-.858.028-2.818.653-1.855.595-4.605-.058-6.082-.333-.763-.792-1.03-1.257-.969m-.665 10.62c1.736-.065 3.14.418 3.05.448-2.407.893-7.972 2.068-9.725 3.959.207-1.444-.104-2.107.823-2.76 1.066-.721 3.438-1.334 5.086-1.575a8.24 8.24 0 0 1 .766-.072M54 24.978a11.328 11.328 0 0 1 1.85.116c1.477.206 2.961.862 1.69 1.619-.86.549-1.577.204-2.471-.174-1.306-.515-2.748-.582-4.089-1.098-.154-.052 1.246-.435 3.02-.462m75.537 1.213c-1.822 1.822-2.335 2.987-3.916 1.922-2.062-1.409 3.16-1.922 3.916-1.922m-82.891.347c2.027-.24 2.366 3.087 3.02 4.84-1.65-1.547-3.71-2.535-6.184-2.947.515-1.1 1.583-1.72 3.164-1.893m3.12.144c.757.035 5.959.779 3.93 2.154-1.58 1.065-2.108-.332-3.93-2.154m76.043 10.461c1.143-.024 2.002.202 2.904.434-.584.515-.986.926-1.33 1.098-1.546.79-1.373-.488-2.817-1.416a9.71 9.71 0 0 1 1.243-.116m-71.592.347c.348.009.812.153 1.156.188-.825.48-1.403.989-1.575.405-.155-.482.07-.602.418-.593m-1.271.679c.584-.017.966.186.707 1.012-.308.996-1.234.11-2.643-.68.567-.068 1.352-.314 1.936-.332m15.46 9.71c1.855.137 4.74-.005 6.184 1.199 1.168.961 2.057 2.968 1.473 5.65-3.162-1.582-5.698-3.86-7.657-6.85m40.007 0c.762-.002 1.581.04 2.471 0-.756 2.338-2.307 3.61-4.335 3.988-1.477.31-2.032 2.174-3.337 2.861-.585-2.784.592-5.063 1.863-6.025.967-.709 2.07-.82 3.339-.824m-36.844 6.676c2.2.927 4.353 1.992 6.14 4.088.688-.171 1.419-.307 2.313-.1-.24 1.958-.788 3.527-1.647 4.695-.826-1.271-1.655-2.538-2.79-3.294-2.473-1.616-3.535-2.984-4.016-5.39m36.15 0c-.687 3.437-4.123 5.327-6.083 8.352-.859-1.203-1.473-3.893-1.748-5.852.894-.206 1.605 1.519 2.326 1.69 1.788-2.096 3.306-3.262 5.505-4.19m-35.47 4.74c2.13 1.477 3.643 3.635 4.984 5.938.997 1.821 2.035.824 3.685.274-.413 2.063-1.45 4.132-2.688 6.228-1.684-2.68-3.44-5.218-5.158-7.383-1.547-2.028-1.064-2.48-.823-5.057m34.777.347c.137 1.683.515 3.402 0 4.81-.86 2.372-3.016 3.986-4.494 6.358-1.237-2.097-2.544-3.616-2.99-5.678 1.65.55 1.056 1.579 2.499.1 1.547-1.58 3.129-3.116 4.985-5.59m-37.248 7.281c2.2 2.2 4.36 4.428 4.565 6.834.172 1.753-.96 3.575-2.644 5.534-1.443-2.235-4.226-5.535-4.089-8.25.069-1.478.828-2.846 2.168-4.118m39.863.794c4.95 3.128 3.234 5.602.794 8.077-.72.722-.86 1.822-.895 2.717-1.822-1.719-4.46-3.344-3.396-6.3.55-1.478 1.847-2.947 3.497-4.494m-14.16.824c1.96 2.302 4.5 3.407 4.19 6.603-.068.721-.131 1.547-.028 2.543-1.306.893-3.057-1.56-3.641-2.384-1.65-2.303-1.07-4.803-.52-6.762m-10.62.275c.358-.048.712.319.968 1.401.378 1.479.541 2.415-.043 3.858-.894 2.406-3.023 3.197-4.913 4.263-.482-1.994-.208-3.782 1.098-4.71 1.134-.79 1.312-2.065 1.69-3.165.271-.831.74-1.585 1.2-1.647m18.076 5.736c1.511 1.375 2.724 2.826 3.308 4.407.413 1.203.478 2.463-.072 3.872a39.406 39.406 0 0 0-2.919-2.572c-2.234-1.752-1.005-2.854-.317-5.707m9.998 1.647c1.306 1.65 3.374 3.434 2.962 6.459-.379 2.44-2.057 5.883-3.57 8.77-2.612-2.302-3.79-4.948-3.481-7.629.137-1.477.732-1.72 1.488-2.716 1.512-1.89 2.085-1.619 2.6-4.884m-22.67.376c.895 1.65 1.436 3.06 1.952 3.988 1.924 3.574 1.302 3.308-2.34 8.394-1.204-2.268-4.088-5.979-3.194-8.625.48-1.375 1.727-2.623 3.583-3.757m-23.855.274c.791.895 1.441 1.836 1.922 2.832.928 1.96.513 4.157 2.919 3.916.687 3.093-.273 5.398-2.919 6.979-.412-1.066-1.69-3.105-2.687-5.751-.79-2.165-2.878-7.391.765-7.976m35.327 4.61c2.063 3.368 1.273 6.224-.823 8.871-1.203-1.1-2.097-1.621-2.543-2.24-1.375-1.925.48-2.817 3.366-6.631m-23.407.607c.452.004.992.32 1.647 1.083.928 1.1 2.097 2.437 2.268 2.919.516 1.546-1.09 3.399-2.672 5.461-2.028-2.268-3.814-3.602-3.092-6.66.307-1.347.854-2.815 1.85-2.803m15.156 7.166c.504-.043.998.49 1.444 1.95 1.135 3.747-.31 6.777-2.167 10.042-1.065 1.821-2.163 3.99-3.092 5.707-1.443-3.024-6.147-10.797-5.288-14.13.24-.963.753-1.922 1.922-2.471 1.443 1.443 2.606 3.36 3.569 5.49.515-1.134 2.1-6.459 3.612-6.588m-19.072.447c.996.86 1.886 1.926 2.745 2.991.962 1.272 1.143 2.474 2.037 2.818 2.2.86.998.443 1.72 2.918.928 3.162.203 4.196-2.89 7.152-1.616-2.372-6.39-9.009-6.184-11.14.137-1.374.716-3.33 2.572-4.739m30.89.173c2.028 1.41 3.655 2.914 2.933 4.942-.962 2.75-4.234 6.297-5.952 11.212-2.372-2.578-3.814-3.957-2.37-7.6 1.065-2.75 2.949-5.494 5.39-8.554m13.277.102c.103 5.533-1.24 9.892-3.612 13.466-.55-1.066-1.172-2.132-1.893-2.991-1.547-1.89-2.367-2.264-.751-5.736.55-1.237 2.167-.651 2.442-2.37.172-1.065 2.302-1.957 3.814-2.37m-56.537.507c1.753 1.65 2.745 3.826 4.291 5.201.516.481 1.168.436 1.821.78a3.315 3.315 0 0 1 1.242 1.243c.276.55.169 1.104-1.069 1.791-1.58 1.238-2.093 2.745-2.47 4.291-1.306-1.992-3.061-3.782-3.713-5.981-.654-2.2-.136-4.885-.102-7.325m46.192 10.561c7.011 4.4 1.815 9.856-3.685 16.284-1.546-1.17-3.605-2.82-3.467-5.433.069-1.237.58-2.407 2.47-1.72.722-3.505 2.689-6.313 4.682-9.131m-36.54.925c.927.893 1.852 2.094 2.745 3.64 1.856 3.094 1.032 6.156 4.262 3.338.516 3.128.997 3.749.275 4.436-1.616 1.512-2.475 1.366-3.54 3.67-2.75-2.647-6.531-5.939-6.256-10.2.103-1.513.83-3.716 2.514-4.884m-7.18 4.392c.514 1.237 1.135 2.476 1.719 3.713 1.65 3.368 2.088 3.644-.593 6.53-.721-4.57-2.6-6.425-2.153-8.625.138-.584.51-1.102 1.026-1.618m51.711.014c.511.049.99.572.939 1.604-.24 4.57-1.202 6.743-2.095 7.224-1.03.584-1.99-.899-1.474-1.965.757-1.614 1.336-3.535 1.474-5.562.06-.768.485-1.212.939-1.286a.84.84 0 0 1 .217-.015m-22.179.478c.55.016 1.125.434 1.575 1.4 1.616 3.472-3.163 8.43-4.984 11.213-2.097-1.237-3.814-3.301-5.36-5.707-1.513-2.303-1.52-3.475-.593-4.884 1.444-2.234 2.483.033 3.583 2.37.379.894 1.341 1.343 1.72 1.893.962-1.478 1.85-4.775 3.12-5.91.284-.245.61-.386.94-.375m41.698.737c.354.02.684.232.91.736 1.512 3.403-6.871 10.69-9.449 12.34 2.302-3.816 4.568-7.673 6.458-11.487.378-.756 1.302-1.634 2.08-1.59m-91.299 2.125c.275-.062.7.217 1.228 1.054l2.139 3.396c.962 1.512.342 3.75-1.17 1.242l-2.067-3.511c-.623-1.031-.587-2.079-.13-2.182m82.24 4.392c.653-.069 1.336.619 1.026 1.546-.687 2.166-2.05 4.252-2.875 6.314-.79 1.994-2.886 2.818-4.811 3.54 1.89-3.368 3.633-6.76 5.317-10.128.343-.62.828-1.237 1.343-1.272m-3.338.058c.564.047.793.958.174 2.543-.997 2.44-1.95 4.674-3.497 6.53-1.993 2.372-2.52-.723-1.661-2.167l3.309-5.36c.6-1.098 1.237-1.583 1.676-1.546m-70.19.62q.186-.023.39.102c.447.275.757 1.31 1.17 2.34.859 2.097 1.791 3.776 2.788 5.014.584.721 1.918 1.93 2.124 2.788.413 1.822-.997 1.003-2.99-1.025-1.616-1.615-2.196-3.27-3.742-6.776-.615-1.424-.276-2.377.26-2.442m4.146.549c.081-.003.16-.009.26 0 .791.069.801.754 1.488 2.095 1.031 1.89 2.132 3.68 3.266 5.432.824 1.272.274 1.205-.723 1.17-1.512-.068-3.471-5.258-4.262-6.805-.321-.547-1.245-1.844-.029-1.892m53.127.636c.112 0 .227-.003.347.014 1.203 6.015-.863 7.565-5.88 12.137-.825-4.09-.959-5.632 2.066-9.103.966-1.16 1.783-3.044 3.467-3.048m-39.53 1.01c1.1 1.96 2.823 3.854 4.782 5.881 1.959 2.063.688 3.028-.275 5.158-3.952-4.054-6.604-7.91-4.507-11.038m11.168.145c3.609 3.746 6.984 6.462 3.685 12.064-2.2-2.749-6.215-5.26-6.112-8.525.07-1.478 1.052-2.336 2.427-3.54m16.154.102c5.293 5.567-1.065 14.432-4.812 9.998-.652-.79-.986-1.343-.78-2.167.619-2.13 4.113-6.078 5.592-7.831m-48.345.274c.414-.018.914.401.578.968-.137.275-.348.47-.52.506-.206-.447-.61-1.06-.404-1.3a.448.448 0 0 1 .346-.174m67.706.16c.62-.013 1.073.717.506 1.662l-1.055 1.72c-1.513 2.336-2.004-.787-1.213-1.749l.895-1.098c.269-.365.585-.529.867-.535m-54.659.102c.323-.011.718.16 1.04.534l1.229 1.402c1.169 1.375-.652 2.204-1.82.52l-.723-1.07c-.6-.859-.263-1.368.274-1.386m27.02 10.431c1.614 1.341 2.986 3.298 4.19 5.91-3.026 15.844-1.95 32.508-.78 49.211l-5.882-.448c1.238-17.218 1.783-36.431-.794-48.46zm-11.025 4.19c2.474 1.547 3.403 6.673 3.54 12.86.274 11.41-3.269 25.465-4.884 36.944l-4.435-1.199c3.746-15.947 6.191-31.833 5.779-48.605m22.843 0c-.413 16.772 2.336 32.658 6.083 48.605l-4.017.433c-.687-7.354-9.8-43.71-2.066-49.038m12.064 2.601c2.019.035 3.487 1.606 4.234 3.41-2.475-.79-4.912-.993-7.73-1.474.481-.619.819-1.16 1.3-1.401.79-.379 1.524-.547 2.196-.535m-47.55.376c.895-.03 2.145.463 4.22 1.661-2.82.481-5.371 1.204-7.846 1.994 1.633-2.105 2.137-3.606 3.626-3.655m82.516 18.392c.039.001.077.01.1.015-.171 1.065.232 2.745-1.314 1.748-1.413-.932.365-1.635 1.084-1.748.05-.008.09-.016.13-.014m-116.888.289c.428-.038.985.117 1.647.448 2.68 1.306-1.284 4.352-1.662 1.156-.068-.55-.09-1.128-.159-1.575.056-.013.113-.023.174-.029m109.461 4.826c1.206-.052 2.297.274 2.297 1.763 0 3.23-1.717 2.582-3.091 1.243-.826-.825-1.302-1.822-1.749-2.543.601-.15 1.605-.422 2.543-.463m-101.688.217c1.04-.043 2.26.276 2.948.448-.448.721-.939 1.718-1.763 2.543-1.375 1.34-3.092 2.003-3.092-1.228 0-1.306.867-1.72 1.907-1.763m110.834.694a.462.462 0 0 1 .16 0c.343.069.897.347 1.79.794-3.157 1.482-2.75-.663-1.95-.795m-4.682 4.941c1.34-.068 1.208 1.137 1.517 3.165-1.272-.826-5.194-3.061-1.517-3.165m-6.17.203a.61.61 0 0 1 .218.014c.48.103 1.21.436 2.413 1.055-4.254 1.998-3.732-.898-2.63-1.07m-104.115.521c3.642.103-.28 2.339-1.518 3.164.31-2.028.143-3.198 1.517-3.164m5.52.448a.58.58 0 0 1 .216 0c.447.103 1.096.445 2.196 1.098-3.899 1.997-3.423-.923-2.413-1.098" fill="#0060ad"/></svg>