<svg viewBox=".63 .2 602.32 580.2" xmlns="http://www.w3.org/2000/svg"><path d="m33.59 521.764q277.103 104.472 538.921 0l-47.999-123.582q-226.262 91.731-452.524 0z" fill="#231f20" fill-rule="evenodd"/><path d="m41.478 517.882c179.116 66.18 353.376 66.265 522.779.25l-43.357-111.627c-148.29 58.54-296.579 58.599-444.869.172zm533.384 9.832c-176.056 70.25-357.231 70.26-543.523.025l-5.63-2.122 1.78-5.728 38.4-123.582 2.068-6.657 6.431 2.606c149.241 60.506 298.484 60.506 447.724 0l5.997-2.432 2.354 6.058c15.998 41.193 31.999 82.389 47.999 123.582l2.29 5.9z" fill="#bfbdbc"/><path d="m9.383 385.44c189.912 100.332 384.682 103.517 584.787 0l-38.399-68.798c-164.234 105.322-333.565 105.322-507.99 0l-38.397 68.799" fill="#fff" fill-rule="evenodd"/><path d="m418.57 381.62h173.051l-38.399-61.155c-44.744 27.246-89.612 47.147-134.603 59.7zm-233.667-2.023c-44.737-12.581-89.597-32.293-134.574-59.132l-38.398 61.154h172.669z" fill="#293f9c" fill-rule="evenodd"/><path d="m31.041 395.634h538.922c-69.578 35.141-147.226 56.163-230.394 67.524h-78.133c-87.947-11.36-166.232-32.383-230.395-67.524" fill="#ed1d29" fill-rule="evenodd"/><path d="m18.153 382.817c92.14 47.685 185.398 72.281 279.826 72.667 94.523.385 190.302-23.483 287.393-72.715l-31.883-57.124c-81.334 50.922-163.965 76.388-247.891 76.388-84.005 0-169.157-25.514-255.452-76.535-10.665 19.106-21.33 38.212-31.993 57.319m279.776 85.467c-98.48-.402-195.634-26.536-291.521-77.193l-5.78-3.053 3.18-5.697c12.798-22.932 25.6-45.866 38.398-68.799l3.23-5.783 5.646 3.409c86.19 52.044 171.03 78.064 254.516 78.064 83.43 0 165.673-25.987 246.723-77.964l5.712-3.663 3.313 5.937 38.399 68.799 3.207 5.745-5.858 3.03c-101.001 52.25-200.705 77.57-299.165 77.168" fill="#bfbdbc"/><g fill-rule="evenodd"><path d="m303.05 442.774c-140.622-58.394-197.635-183.676-185.374-364.38q185.375-135.046 370.748 0c14.653 175.609-36.947 304.288-185.374 364.38" fill="#231f20"/><path d="m199.215 260.584h-60.473l-22.17-93.017 1.104-78.979 11.467-15.022 70.079-41.655z" fill="#ed1d29"/><path d="m199.222 31.91 70.066-15.943v244.617h-70.073zm208.21 0-70.066-15.943v244.617h70.073z" fill="#293f9c"/><path d="m407.44 260.584h60.472l22.17-93.017-1.104-78.979-11.466-15.022-70.08-41.655z" fill="#ed1d29"/><path d="m233 209.666 10.826-33.752c10.268 2.442 20.723 4.14 31.842 3.184.745-10.187 8.138-18.73 16.558-19.105 23.725-1.053 39.588 18.78 57.95 11.464l12.102 30.567-21.016 14.011c1.057 9.336-2.976 13.581-12.1 12.736-.214 6.685-2.55 10.717-9.553 8.916-1.7 12.094-6.795 14.854-15.283 8.278-5.361 10.028-10.137 7.8-14.648 0-5.942 0-8.914-2.974-8.916-8.914-5.73 1.059-8.914-1.703-9.551-8.28-7.855 2.652-12.524.528-10.19-12.1-12.003.327-20.278-3.073-28.021-7.005" fill="#bfbdbc"/></g><path d="m229.658 208.594 10.827-33.752.994-3.103 3.158.752c5.031 1.195 10.086 2.208 15.19 2.796 4.134.477 8.365.68 12.732.479.897-4.659 3-8.901 5.86-12.2 3.613-4.17 8.447-6.861 13.655-7.093 11.737-.521 21.415 3.621 30.409 7.47 9.342 4 17.86 7.646 26.402 4.24l3.266-1.301 1.299 3.281 12.1 30.569 1.044 2.637-2.378 1.584-19.298 12.865v.004c19.88-13.252 33.397-22.26 0 .005a22.626 22.626 0 0 1 -.072 2.91c-.308 3.332-1.419 5.986-3.328 7.962-1.937 2.003-4.554 3.192-7.853 3.565-.424.048-.864.083-1.316.103-.443 2.6-1.332 4.79-2.833 6.423-1.736 1.892-4.041 2.923-7.064 2.857-1.207 5.237-3.299 8.662-6.275 10.274-3.095 1.678-6.69 1.344-10.785-1.002-2.886 4.04-5.937 5.587-9.107 5.223-3.256-.373-6.084-2.858-8.63-6.76-2.971-.32-5.353-1.373-7.138-3.158h-.013c-1.438-1.437-2.399-3.26-2.886-5.47q-3.338-.222-5.707-2.196c-1.574-1.308-2.716-3.134-3.434-5.475-3.476.56-6.417.003-8.615-2.103-2.19-2.096-3.252-5.562-2.847-10.814a53.043 53.043 0 0 1 -12.565-2.017c-4.787-1.374-8.984-3.292-13.032-5.347l-2.673-1.358zm16.524-28.53c-2.97 9.264-5.943 18.528-8.915 27.79 2.867 1.363 5.85 2.595 9.108 3.528 4.213 1.208 8.94 1.922 14.564 1.77l4.322-.118-.789 4.27c-.925 5.005-.739 7.665.256 8.617.745.713 2.684.429 5.368-.476l4.178-1.411.428 4.408c.046.472.11.925.19 1.36.3 1.628.81 2.742 1.528 3.338.616.514 1.564.708 2.84.584.265-.025.557-.068.869-.125l4.153-.765v4.217c0 1.997.402 3.397 1.199 4.196l-.007.007c.8.793 2.201 1.191 4.204 1.191l2.021.002 1.018 1.758c1.706 2.952 3.204 4.819 4.365 4.952.93.107 2.265-1.316 4.15-4.84l1.96-3.667 3.278 2.538.182.141c-.238.16-.433.288-.598.398l-.002.002.6-.4c2.943 2.247 5.008 3.048 6.198 2.404 1.502-.813 2.597-3.656 3.28-8.527l.031-.215c1.3-.868 2.687-1.792 4.138-2.759l.177.046c2.075.533 3.287.39 3.87-.246.587-.638.946-1.766 1.137-3.254l3.038-2.027h-.004l-3.034 2.024c.082-.641.134-1.35.16-2.113l.118-3.727 3.717.344c1.255.116 2.395.116 3.418 0a9.623 9.623 0 0 0 1.113-.188l-1.057.704.001.003 1.063-.708c1.058-.25 1.873-.67 2.442-1.257.21-.218.395-.464.559-.744l4.044-2.695-.006-.001a3517.4 3517.4 0 0 1 -4.034 2.689c.447-.76.727-1.755.84-2.979q.146-1.578-.092-3.684l-.24-2.118c.587-.39 1.184-.79 1.784-1.19l-.003-.005-1.782 1.188 1.78-1.188c26.084-17.389 16.828-11.218.002 0l.003.006 18.647-12.43-9.84-24.859c-9.842 2.523-18.73-1.282-28.388-5.416-8.265-3.538-17.16-7.346-27.355-6.894-3.208.142-6.277 1.908-8.65 4.646-2.513 2.898-4.222 6.856-4.54 11.187l-.22 3.014-3.01.259c-5.745.493-11.374.295-16.927-.347-4.371-.504-8.638-1.28-12.848-2.208m97.028 38.893-2.155 1.436.006.001 2.15-1.435zm-6.19 4.125c-1.024.685-2.034 1.357-3.011 2.01l.007-.002 3-2.001a.03.03 0 0 0 .005-.007m-4.07 2.713c-1.305.87-2.546 1.699-3.746 2.497v.004l3.748-2.498zm-3.746 2.497c-.225.151-.467.311-.688.46h.004l.684-.456zm-3.722 2.483c-1.871 1.247-3.61 2.405-5.186 3.457h.002l5.184-3.454zm-5.186 3.457-4.136 2.758.52-3.688zm-4.136 2.758c-4.945 3.296-7.99 5.326-9.509 6.34l9.51-6.34zm-10.107 6.737c-.812.541-.748.5-.002.002zm31.474-29.433c-30.748 20.5-82.414 54.948 0 .007z" fill="#fff"/><path d="m217.716 214.76c7.642 1.7 15.284 3.398 22.926 5.095 2.759-14.01 7.217-28.02 13.373-42.03l-21.651-7.642z" fill="#293f9c" fill-rule="evenodd"/><path d="m222.262 212.18 15.659 3.48c2.585-11.919 6.382-23.843 11.389-35.769l-14.73-5.2zm17.624 11.1-22.926-5.095-3.79-.843 1.205-3.666 14.646-44.58 1.125-3.422 3.385 1.195 21.653 7.642 3.568 1.259-1.52 3.457c-6.046 13.761-10.426 27.53-13.138 41.303l-.696 3.53z" fill="#fff"/><path d="m124.738 179.098 95.598 42.768c1.25.557 1.138.75 1.513-.577 5.352-18.985 12.653-37.32 22.757-54.719.608-1.048.479-.853-.604-1.36l-122.448-57.437-2.952 33.742z" fill="#231f20" fill-rule="evenodd"/><path d="m128.76 176.006 36.86 16.49 53.041 23.729c2.47-8.305 5.33-16.508 8.655-24.588 3.354-8.151 7.165-16.137 11.502-23.93l-113.342-53.165-2.355 26.92zm33.22 24.645-39.062-17.475-2.202-.985-.388-2.375-6.136-37.584-.108-.664.038-.439 2.952-33.741.558-6.383 5.812 2.725 122.447 57.438c.106.048.207.092.292.128h.018c.293.125.522.222.84.407 4.078 2.363 3.654 3.283 1.433 7.107-4.96 8.541-9.225 17.293-12.899 26.222-3.675 8.934-6.783 18.105-9.422 27.463-1.203 4.267-1.197 5.475-6.116 4.083-.522-.147-.797-.279-1.174-.46-.295-.14.026-.008-.347-.173-18.845-8.432-37.69-16.864-56.536-25.294m80.723-31.136-.008-.004-.04-.017c-.152-.064-.33-.141-.544-.241zm-.002.006.002-.006zm35.55 9.573c.21 6.242.61 9.457 1.2 9.643.442.14 2.223-2.282 5.345-7.266l.012.008c4.03-6.505 8.378-8.405 12.909-7.673 3.985.644 7.602 3.468 11.12 6.86l14.806 11.34.234.193c.384.35 1.34.241 2.42.116.81-.094 1.655-.19 2.552-.203 2.785-.037 3.308.843 4.112 2.23l.445.613.15.746c.424 2.128-.491 3.402-1.516 4.695l5.702 5.98 6.68 7.005-5.088 4.84-6.678-7.005-6.264-6.567c-2.223-1.963-2.547-3.633-2.067-5.144-1.681-.021-3.318-.45-5.078-2.018-4.942-3.784-9.883-7.57-14.824-11.355l-.156-.12-.16-.154c-2.688-2.607-5.281-4.766-7.49-5.122-1.724-.278-3.63.852-5.854 4.447v.028c-5.047 8.062-9.525 11.474-13.43 10.237-3.76-1.193-5.801-6.572-6.121-16.133zm-18.122 34.808c12.84-2.574 24.095-1.554 25.807.352 2.625 2.99-2.756 8.461-12.644 15.774l-3.167-4.27c6.607-4.887 9.71-7.532 9.315-7.935-1.152-1.168-7.216-.653-18.19 1.547zm29.633 11.452c1.032-.843 2.065-1.685 3.743.376 1.677 2.063.644 2.905-.39 3.748-3.829 3.125-6.212 5.414-7.522 7.305-1.025 1.477-1.305 2.653-1.127 3.87.163 1.107.8 1.888 1.567 2.208.319.134.652.19.97.155.304-.032.614-.152.9-.367 1.012-.762 1.755-2.567 1.664-5.773-.037-1.332-.074-2.665 2.592-2.738 2.667-.072 2.704 1.261 2.742 2.593.148 5.186-1.531 8.465-3.79 10.168a7.117 7.117 0 0 1 -3.546 1.409 7.263 7.263 0 0 1 -3.573-.53c-2.387-.998-4.342-3.255-4.796-6.354-.379-2.57.117-4.918 2.021-7.662 1.617-2.33 4.319-4.96 8.545-8.408m17.709 21.643c-.005 1.332-.01 2.667-2.679 2.656-2.666-.01-2.66-1.344-2.654-2.677.012-2.873-.19-5.628-.732-8.188-.53-2.497-1.387-4.838-2.69-6.964-.698-1.136-1.395-2.272.877-3.658 2.27-1.385 2.966-.248 3.663.888 1.64 2.673 2.708 5.57 3.358 8.629.636 2.995.872 6.116.857 9.314m13.918-4.485c.334 1.29.667 2.581-1.916 3.237-2.584.656-2.917-.634-3.25-1.925-.68-2.634-1.732-6.601-3.453-10.572-1.66-3.824-3.943-7.677-7.118-10.307-1.026-.852-2.053-1.703-.354-3.755 1.697-2.05 2.724-1.2 3.75-.35 3.934 3.262 6.675 7.829 8.617 12.308 1.879 4.334 3 8.559 3.724 11.364" fill="#fff"/><path d="m313.29 211.01c-1.026-.85-2.052-1.702-.354-3.753 1.697-2.053 2.724-1.201 3.75-.35 3.182 2.64 5.947 5.94 8.358 9.794 2.36 3.772 4.382 8.08 6.128 12.822.46 1.25.921 2.501-1.579 3.419-2.501.916-2.961-.336-3.421-1.587-1.623-4.406-3.487-8.386-5.648-11.841-2.11-3.372-4.504-6.238-7.234-8.504" fill="#fff"/><path d="m356.198 155.973c19.374 15.898 27.727 33.11 24.186 56.645l-26.732-2.228c.611-13.657-3.26-26.968-13.683-39.777 5.516-4.88 10.713-9.123 16.229-14.64" fill="#293f9c" fill-rule="evenodd"/><path d="m358.426 153.265c10.117 8.302 17.378 16.997 21.676 26.751 4.34 9.855 5.634 20.676 3.76 33.125l-.493 3.27-3.273-.273-26.733-2.226-3.382-.283.152-3.39c.286-6.425-.475-12.751-2.527-18.956-2.067-6.25-5.439-12.41-10.36-18.457l-2.124-2.61 2.523-2.23a526.04 526.04 0 0 1 4.362-3.812c3.858-3.346 7.639-6.624 11.703-10.689l2.246-2.247zm15.24 29.583c-3.494-7.934-9.287-15.163-17.288-22.131-3.255 3.108-6.49 5.912-9.777 8.765-.615.532-1.234 1.068-1.832 1.588 4.389 5.905 7.504 11.914 9.52 18.013 1.97 5.96 2.897 11.985 2.946 18.062l20.085 1.675c1.001-9.708-.24-18.223-3.653-25.972" fill="#fff"/><path d="m488.581 172.203c-38.31 16.788-77.562 31.747-115.885 45.188-1.07.378-.901.39-.91-.725-.193-21.906-4.949-41.993-20.775-57.646-1.274-1.26-1.425-1.04.28-1.722 45.564-18.269 91.74-36.843 137.29-55.105-.105 23.125.107 46.885 0 70.01" fill="#231f20" fill-rule="evenodd"/><path d="m490.706 177.078c-19.192 8.41-38.657 16.377-58.146 23.933-19.466 7.547-38.914 14.667-58.113 21.402-.059.02-.115.041-.167.058l.003.007c-2.279.81-3.343 1.195-5.746-.717-2.14-1.71-2.12-2.775-2.087-4.78l.002-.294c-.093-10.454-1.257-20.419-4.253-29.543-2.93-8.925-7.661-17.137-14.937-24.333-.525-.52-.285-.292-.355-.357-1.704-1.606-2.592-2.456-2.122-5.356.512-3.176 1.698-3.633 4.174-4.602.31-.122-.013.012.354-.135 22.4-8.981 44.95-18.038 67.5-27.094 23.316-9.364 46.634-18.729 69.79-28.011l7.347-2.947-.036 7.905c-.053 11.561-.026 23.285 0 35.005.027 11.72.054 23.443 0 35.006l-.016 3.454zm-61.978 14.015c18.22-7.063 36.46-14.507 54.533-22.368.034-10.424.01-20.966-.013-31.506-.02-9.072-.043-18.146-.025-27.146-20.741 8.318-41.597 16.694-62.45 25.068-20.6 8.274-41.2 16.548-61.687 24.764 6.156 7.281 10.407 15.329 13.238 23.947 2.752 8.381 4.132 17.24 4.605 26.412 17.17-6.079 34.494-12.461 51.799-19.17m-75.894-28.681h-.001zm-.001 0h-.002v.001h-.001c-.01.004.037-.015.004-.001z" fill="#fff"/><path d="m298.967 452.606c-72.8-30.229-124.009-77.877-155.477-141.448-31.187-63.003-42.734-141.305-36.48-233.471l.338-4.975 4.037-2.94c63.659-46.379 127.548-69.568 191.665-69.568s128.006 23.19 191.666 69.566l3.969 2.892.405 4.857c7.477 89.611-2.072 167.503-32.574 230.966-30.786 64.059-82.626 113.055-159.466 144.163l-4.042 1.636zm-136.395-150.863c28.547 57.667 74.846 101.257 140.523 129.487 69.36-29.042 116.256-73.827 144.172-131.91 28.196-58.665 37.318-131.24 30.88-215.167-58.585-41.74-116.95-62.615-175.097-62.615-58.123 0-116.467 20.858-175.027 62.567-5.27 86.353 5.696 159.351 34.549 217.638" fill="#bfbdbc"/><g fill-rule="evenodd"><path d="m357.387 65.729c1.085-1.444 9.63-12.855 9.63-12.855h-26.54v-10.004h-74.417v34.557h-26.508s8.543 11.393 9.63 12.853c-1.087 1.46-9.63 12.851-9.63 12.851h26.562c.445 7.156 4.146 15.397 9.898 21.864 7.279 8.169 16.945 12.725 27.218 12.869h.055c10.289-.144 19.975-4.7 27.235-12.87 6.143-6.907 9.956-15.828 9.956-23.305v-23.09h26.54s-8.545-11.412-9.63-12.87" fill="#231f20"/><path d="m356.767 66.137c1.44 1.92 7.493 10.023 8.775 11.734h-25.032v-11.734z" fill="#ee2722"/><path d="m340.51 65.337v-11.733h25.032c-1.282 1.709-7.335 9.81-8.775 11.733z" fill="#fff"/><path d="m249.807 90.685c-1.441 1.927-7.494 10.024-8.774 11.716h25.028v-11.716z" fill="#ee2722"/><path d="m266.061 89.867v-11.712h-25.028c1.28 1.707 7.333 9.809 8.774 11.712zm.746-46.269v58.09c0 7.3 3.74 16.042 9.758 22.824 7.137 7.99 16.609 12.48 26.686 12.621h.035c10.074-.14 19.547-4.63 26.684-12.62 6.016-6.783 9.775-15.524 9.775-22.825v-58.09z" fill="#fff"/><path d="m337.534 45.078h-69.266v56.61c0 6.962 3.596 15.33 9.401 21.843 6.852 7.692 15.932 12.001 25.597 12.122 9.669-.12 18.746-4.43 25.602-12.122 5.806-6.513 9.4-14.88 9.4-21.843v-56.61z" fill="#231f20"/><path d="m303.286 45.806h-34.269v55.882c0 12.889 13.137 32.954 34.269 33.237 21.094-.283 34.248-20.348 34.248-33.237v-55.882z" fill="#ee2722"/><path d="m311.155 56.843c1.388-3.202.765-7.085-3.19-7.74-3.203-.554-6.458 2.329-6.445 5.534 0 1.07.608 2.26.162 3.274-.48 1.087-1.69 1.391-2.739 1.567a7.229 7.229 0 0 0 -3.082 1.317c-1.048.783-1.048 1.655-1.53 2.779-.408.999-1.373 1.69-1.068 2.759.268.892 1.371 1.993 2.314 2.225.249.588.944 1.014 1.264 1.622.337.638.269 1.314.177 1.956-.143 1.015-.07 1.407.376 2.315.445.944.445 1.316.373 2.33-.054.998.392 1.105.766 1.925.32.73.072 1.656-.32 2.352-.676 1.209-2.403 1.849-2.76 3.29-.074.321.16.82 0 1.121-.23.412-.819.376-1.122.676-.481.467-.696 1.442-.962 2.031-.268.572-.606 1.14-.96 1.69-.855 1.285-1.746 2.638-3.132 3.402-1.872 1.05-2.122-1.55-3.597-.961-.446.178-.604.766-.855 1.104-.356.48-.676.82-1.337.96-.942.216-2.652-1.14-3.2-.122-.394.69.674 2.115 1.101 2.667.373.464.835.944 1.407 1.177.602.23 1.21.033 1.797.195 1.281.357 1.425 2.049 2.473 2.69 1.053.639 2.565.088 3.475-.628.921-.726 1.102-1.65 1.512-2.632a7.838 7.838 0 0 1 2.422-3.17c.694-.55 2.366-1.921 3.31-1.761.356.642.34 1.585.569 2.314.284.873.516 1.725.8 2.599.59 1.924 1.353 3.809 1.994 5.696.642 1.925.555 3.9.907 5.857.428 2.226.644 4.524.983 6.749.16 1.05.797 2.084 1.085 3.168.284 1.141.89 2.103 1.087 3.293.105.623.174 1.017.017 1.655-.16.605-.376.713 0 1.37.8 1.446 2.864 4.666 4.697 2.744 1.016-1.052 1.71-2.014 1.338-3.562-.48-2.01-2.334-3.435-2.691-5.427-.339-1.96.324-3.917.357-5.858.054-2.334-.729-4.524-1.084-6.783-.393-2.53-.289-4.914-.289-7.512 0-1.372-.05-2.332.556-3.542.301-.608.605-1.21.799-1.833.16-.57-.015-1.054.18-1.623 1.084-.088 1.564.284 2.313-.677.553-.71.819-1.618 1.23-2.402.677-1.264 1.352-2.386 1.904-3.685.48-1.173 1.23-2.636 1.102-3.933-.123-1.25-.516-2.868-.927-4.059-.441-1.302-.708-2.564-1.064-3.846-.377-1.354-.446-2.76-.338-4.095.05-.621.034-1.23.142-1.817.088-.585.339-1.157.317-1.745.996.749 2.14 2.068 2.707 3.153.339.66.428 1.281.447 2.026 0 .644-.16 1.692.8 1.535.41.976-.159 2.188.534 3.007.695.838 1.852.782 2.474 1.798.216.356.233.874.712.962.569.125 1.014-.518 1.124-.962.229-.98-.18-2.294-.411-3.168-.339-1.23-1.192-1.96-1.905-2.918-.764-1.05-.944-2.262-1.263-3.419-.305-1.141-.677-2.281-.943-3.401-.234-1.032-.269-2.333-.82-3.207-.357-.566-1.016-.853-1.444-1.386-.353-.428-.71-.943-1.069-1.39-.441-.568-.835-.96-1.51-1.245-.622-.268-1.532-.037-2.047-.375" fill="#231f20"/><path d="m281.301 84.419a6.77 6.77 0 0 0 5.019-1.352c1.442-1.123 2.369-2.705 2.6-4.503a6.775 6.775 0 0 0 -1.354-5.021c-1.122-1.44-2.724-2.368-4.521-2.599-1.783-.25-3.579.251-5.023 1.352-1.44 1.103-2.348 2.707-2.597 4.507a6.711 6.711 0 0 0 1.37 5.018 6.712 6.712 0 0 0 4.506 2.598" fill="#231f20"/><path d="m277.366 80.522 2.386.196.817-1.282-.712-2.581-1.904-.357-1.372 1.21zm9.023-4.024-1.887.357-.73 2.581.82 1.282 2.403-.196.767-2.814zm-8.33-.268 1.78.338h.018l2.19-1.477v-2.101l-1.995-.728-2.224 1.692zm4.258-1.139 2.17 1.477h.015l1.834-.354.196-2.26-2.224-1.692-1.991.728zm1.44 7.994.623-2.209-.82-1.264h-2.778l-.8 1.264.604 2.21zm.07.266h-3.294l-.516.482c.428.16.853.267 1.317.322a6.63 6.63 0 0 0 3.01-.322zm4.22-5.572-.02.017-.78 2.814.426.605c.514-.8.853-1.724.98-2.688.05-.427.072-.852.036-1.284zm-10.947 2.83-.77-2.813-.016-.017-.64-.536a6.324 6.324 0 0 0 1.015 3.956zm.514-6.835 2.295-1.746.092-.496c-.64.232-1.25.551-1.799.978a6.533 6.533 0 0 0 -1.212 1.209zm6.836-1.746 2.279 1.746.622-.055s0-.015-.016-.015a6.364 6.364 0 0 0 -2.991-2.172zm37.755 212.895c30.424 9.427 47.546 41.924 38.12 72.338-9.426 30.424-41.924 47.546-72.339 38.12-30.422-9.426-47.544-41.924-38.119-72.339 9.427-30.422 41.924-47.544 72.338-38.119" fill="#fff"/><path d="m308.894 318.905c-6.676-15.417-15.044-28.053-16.979-30.893-17.55 4.454-32.44 17.665-38.193 36.227a53.65 53.65 0 0 0 -2.356 18.517c8.937-5.512 37.347-22.14 57.528-23.851m5.1 1.583c15.667 12.818 29.693 42.57 33.952 52.185a53.769 53.769 0 0 0 8.522-16.601c5.75-18.56.94-37.866-11.011-51.463-3.226 1.255-17.256 6.944-31.462 15.879m-3.781 3.14c-24.993 17.684-39.651 50.704-41.818 55.84 5.745 5.377 12.766 9.567 20.786 12.052a53.497 53.497 0 0 0 23.957 1.812c1.112-5.46 7.689-40.985-2.925-69.703" fill="#2f49a0"/><path d="m312.486 316.342c12.487-7.753 24.696-13.038 29.736-15.093a53.542 53.542 0 0 0 -21.211-12.466 53.573 53.573 0 0 0 -24.53-1.713c2.996 4.54 10.08 15.803 16.005 29.272m-10.288 8.005c-20.065 4.572-45.414 20.103-50.374 23.221a54.01 54.01 0 0 0 13.299 28.558c3.552-8.112 16.109-34.284 37.075-51.779m14.214 4.39c7.413 26.291 2.968 54.989 1.317 63.687a54.04 54.04 0 0 0 27.124-16.046c-2.34-5.404-14.476-32.54-28.44-47.641" fill="#231f20"/><path d="m65.237 512.899 21.359-65.725 24.463 7.951-2.976 9.136-11.311-3.68-4.912 15.152 11.04 3.6-3.088 9.487-11.04-3.6-10.383 31.95zm21.01 6.783 4.128-13.487 12.143 3.712-4.128 13.487zm30.706-46.477c1.664-6.24 4.064-10.368 7.167-12.352 3.089-1.968 7.408-2.224 12.929-.752 5.55 1.488 9.183 3.872 10.911 7.12 1.712 3.264 1.727 8.031.048 14.303l-1.984 7.376-13.263-3.552 3.184-11.855c.32-1.184.368-2.048.144-2.624s-.752-.976-1.6-1.217c-.816-.207-1.457-.127-1.905.273-.464.384-.847 1.184-1.168 2.351l-11.68 43.599c-.32 1.168-.367 2.048-.16 2.64.225.592.721.992 1.505 1.2.848.24 1.504.127 2-.288.48-.416.88-1.2 1.184-2.352l3.6-13.44 13.263 3.552-2.591 9.648c-1.664 6.207-4.05 10.303-7.137 12.271-3.103 1.968-7.44 2.208-13.023.704-5.552-1.488-9.183-3.84-10.88-7.055-1.68-3.217-1.696-7.968-.016-14.24zm22.306 60.653 2.928-13.791 12.416 2.64-2.928 13.79zm23.33 5.664 4.432-69.39 13.984 2.465-4.864 43.246c-.112 1.216-.304 2.848-.528 4.911-.24 2.048-.496 4.256-.784 6.608l.32.064c.64-2.592 1.28-5.04 1.888-7.36.624-2.32 1.248-4.576 1.888-6.767l10.992-39.135 12.095 2.145-21.375 66.396zm26.58 4.704 1.966-13.968 12.577 1.76-1.969 13.967zm53.869-53.758-4.368 49.806.752.064q2.16.192 3.12-.624c.64-.544 1.024-1.488 1.136-2.864l3.68-41.966c.128-1.584-.08-2.672-.64-3.28-.56-.592-1.792-.977-3.68-1.136m-18.896 58.365 6.032-68.861 16.064 1.408c5.84.512 9.872 2.145 12.08 4.896 2.207 2.735 3.04 7.232 2.494 13.455l-3.054 34.88c-.544 6.19-2.224 10.463-5.072 12.814-2.848 2.352-7.312 3.264-13.408 2.736zm36.93 2.768 2.416-69.069 25.711.896-.336 9.6-11.903-.416-.56 15.935 11.615.4-.336 9.967-11.631-.4-.8 23.12 11.903.416-.368 10.447zm29.938 1.808-1.2-69.1 18.928-.337 5.36 29.199c.48 2.607.911 5.535 1.28 8.783.367 3.249.703 6.96.991 11.136l.56-.016c-.304-4.864-.544-9.12-.704-12.751-.176-3.633-.272-6.256-.304-7.84l-.592-28.623 10.832-.192 1.2 69.101-16.223.288-7.712-37.406c-.304-1.456-.704-3.68-1.168-6.64-.48-2.96-.96-6.192-1.456-9.711h-.384c.24 2.88.432 5.375.576 7.535s.24 3.92.256 5.296l.72 41.086zm51.905-61.485 2.624 49.95.752-.048c1.44-.064 2.432-.417 2.992-1.04.576-.624.816-1.632.736-2.992l-2.192-42.094c-.096-1.585-.448-2.64-1.088-3.152s-1.904-.72-3.824-.624m-10.574 60.445-3.617-69.037 16.095-.848c5.872-.304 10.096.752 12.656 3.168 2.576 2.416 4.016 6.736 4.336 12.975l1.84 34.975c.32 6.208-.752 10.672-3.248 13.391-2.48 2.737-6.784 4.256-12.896 4.576zm36.898-2.991-7.233-68.75 25.599-2.703 1.008 9.551-11.856 1.248 1.664 15.84 11.584-1.217 1.04 9.936-11.584 1.216 2.432 23.023 11.856-1.248 1.088 10.4zm41.104-50.75-1.727-10.88c-.24-1.536-.705-2.528-1.393-2.96-.688-.416-1.936-.496-3.744-.208l2.944 18.655.752-.112c1.408-.224 2.352-.671 2.816-1.328.464-.655.576-1.712.352-3.168m-11.088 47.743-10.814-68.285 15.934-2.513c5.553-.88 9.728-.544 12.544 1.025 2.8 1.567 4.56 4.511 5.232 8.831l1.136 7.168c.576 3.583.128 6.464-1.328 8.656-1.456 2.191-3.92 3.663-7.376 4.399l.064.368c3.92-.368 6.8.16 8.624 1.6s3.072 4.176 3.712 8.224l2.736 17.359a29.39 29.39 0 0 0 .992 4.144c.432 1.36.96 2.64 1.552 3.808l-13.472 2.127c-.624-1.103-1.152-2.351-1.616-3.76-.464-1.391-.816-2.91-1.072-4.543l-.4-2.496-2.352-14.863c-.304-1.92-.895-3.296-1.776-4.16-.88-.848-2.032-1.168-3.488-.944l-.176.032 5.008 31.662zm53.055-9.744-15.552-67.341 25.07-5.792 2.162 9.36-11.6 2.687 3.584 15.52 11.326-2.624 2.258 9.727-11.328 2.625 5.198 22.558 11.6-2.687 2.353 10.175zm29.618-6.896-3.408-13.695 12.32-3.072 3.408 13.695zm18.21-4.736-19.055-66.445 13.2-3.776 7.071 24.64 4.144-1.2-7.072-24.64 13.296-3.808 19.055 66.446-13.295 3.807-9.216-32.126-4.144 1.2 9.216 32.127zm35.426-10.799-4.352-13.407 12.08-3.936 4.352 13.407z" fill="#fff"/></g></svg>