<svg viewBox="113.16 80.86 998.08 998.08" xmlns="http://www.w3.org/2000/svg"><path d="m1104.2 579.9c0 271.7-220.3 492-492 492s-492-220.3-492-492 220.3-492 492-492 492 220.3 492 492z" fill="#fff" stroke="#e5050f" stroke-miterlimit="4.692" stroke-width="14.076"/><path d="m1007.08 579.3c0 216.7-175.7 392.4-392.4 392.4s-392.4-175.7-392.4-392.4 175.7-392.4 392.4-392.4 392.4 175.7 392.4 392.4z" fill="#fff" stroke="#e5050f" stroke-miterlimit="3.742" stroke-width="11.227"/><path d="m990.98 579.1c0 208-168.6 376.6-376.6 376.7-208 0-376.6-168.6-376.7-376.6v-.1c0-208 168.6-376.6 376.6-376.7s376.7 168.6 376.7 376.6z" fill="#e5050f"/><g clip-rule="evenodd" fill="#fff" fill-rule="evenodd"><path d="m766.548 483.413c2.2-17.3 9.5-33 18.1-48.2l24.9 11.2 22.5-30.5 22.5 6.8c.3 40.1-.8 81.5 14.1 109.2l-11.2 14.1c-25.6-24-52.8-47-90.9-62.6"/><path d="m724.648 525.013c-49.8-.2-13.7-58.5-6.4-80.7 6.5-20-3.4-60.3-41.5-74.6v-51.2c75.1 21.8 83.5 71.8 126.7 48.8v25.3c-67.4 69.2-37.9 132-78.8 132.4"/><path d="m524.148 413.513c73.8-18.7 129.2-12.8 181.1-2.3 7.5 21.8 1 36.6-6 51.2-50.8-8.3-105.1-10.4-170.5 6.9-11-16.8-11.9-35.5-4.6-55.8"/><path d="m567.948 369.613c-88.5 15-68.6 119.9 0 148.2v91.5c-194.5-56.1-159.3-267.6 0-289zm95.7 328.7c-26.3 3.6-53.7 2.9-81.7 0v-228.7c27.2-2.8 54.5-3.7 81.7 0z"/><path d="m295.348 584.213c47.4-22.9 57.8-73.2 126.8-123.8 2 23.5 4.7 46.4 14.6 63.4-29.2 42.2-27.3 82.4 16.5 131.1-10.2 23.3-22.6 40.1-36 53.7-61.5-36.6-75.7-84.2-121.9-124.4m220.2 168.9c17.5-19.4 22.4-33.7 29.9-49 46.6 9.8 100.8 13.8 182.2-2.8 8.5 17 5.3 33 2.4 49-48.2 17.3-138.1 21.4-214.5 2.8"/><path d="m381.148 745.513 6 25.9 35.9 2.4c41.4 29.3 85.6 56.8 145.9 74.6v-50.6c-32.7-5.6-53.7-22-69.4-43.5 46.4-50 55.9-112.7 26.5-125.5-39.1-17-56.6 23-78.9 59.1-14.5 23.6-35.5 47-66 57.6m282.7-428.3c.2-38.7 29.9-34 43.9-20.1-2-48.6-41.4-54.3-60.3-36.8-5.6-9.2-12.8-16.2-24.4-21.9-10.3 4.9-18.6 12.1-24.9 21.4-17.8-16.3-58.5-12.3-60.3 36.6 15-13 43.3-17.5 43.3 21l.2 74.1c26.5-2 54-2.2 82.5-.2z"/><path d="m663.948 850.213c.2 38.7 29.9 34 43.9 20.1-2 48.6-41.4 54.3-60.3 36.8-5.6 9.2-12.8 16.2-24.4 21.9-10.3-4.9-18.6-12.1-24.9-21.4-17.8 16.3-58.5 12.3-60.3-36.6 15 13 43.3 17.5 43.3-21l.2-74.1c26.5 2 54 2.2 82.5.2z"/><path d="m675.948 554.613v87.6c100.2 33.3 84.3 158.1 1.3 155.1v50.4c107.4-10.6 149-77.3 149.6-142.2.8-74.3-58-127-150.9-150.9m162 147.8c.1-11.4 1.1-21.6-6.4-44l23.1-15.4 26.1 21.4c-10.3 15.4-25.8 27.2-42.8 38"/></g><path d="m198.3 564.4c-.6 4.7-1.9 9-3.9 13s-4.6 7.4-7.9 10.3l-8.6-9.3c4.8-4.7 7.6-10 8.4-16.1.2-1.9.1-3.4-.4-4.5s-1.3-1.7-2.4-1.9h-.1c-.5-.1-1 0-1.5.2s-.9.6-1.4 1.2-1 1.5-1.5 2.5c-.5 1.1-1.1 2.5-1.7 4.2-1 2.7-2 5.2-3.1 7.5s-2.3 4.2-3.8 5.8q-2.1 2.4-5.1 3.6c-1.9.8-4.2 1-6.9.7h-.1c-2.4-.3-4.6-1.1-6.5-2.2-1.9-1.2-3.5-2.7-4.8-4.7s-2.1-4.2-2.6-6.8-.5-5.4-.1-8.6q.9-6.75 3.3-11.7c2.4-4.95 3.8-6.3 6.4-8.8l9.3 8.5c-2 2.2-3.6 4.4-4.8 6.8s-1.9 4.8-2.2 7.1c-.2 1.7-.1 3.1.5 4 .5 1 1.3 1.5 2.2 1.6h.1c.6.1 1.1 0 1.6-.2s.9-.6 1.4-1.3c.5-.6.9-1.5 1.5-2.6.5-1.1 1.1-2.5 1.7-4.3q1.5-4.35 3.3-7.8t3.9-5.7c1.5-1.5 3.1-2.6 5-3.3s4-.8 6.4-.5h.1c2.7.3 5 1.2 6.9 2.4 2 1.3 3.5 2.9 4.8 5 1.2 2 2.1 4.4 2.5 7.1.5 2.7.5 5.6.1 8.8m-11.1-39 1.4-14.8 14.6 1.3-1.4 14.8zm35.4-82c-1.1 3.6-2.7 6.8-5 9.6-2.2 2.8-4.9 5-7.9 6.6s-6.3 2.7-9.9 3.1-7.3.1-11-1.1h-.1c-3.6-1.1-6.9-2.8-9.6-5.1-2.8-2.3-5-5-6.7-8-1.7-3.1-2.7-6.4-3.1-10s0-7.4 1.2-11.2c.8-2.6 1.7-4.9 2.9-6.8q1.65-3 3.9-5.1c1.5-1.5 3-2.7 4.8-3.7s3.5-1.9 5.4-2.5l5 12.9c-2.2.9-4.2 2-5.7 3.5-1.6 1.4-2.7 3.3-3.4 5.8-.5 1.8-.7 3.5-.4 5.2s.8 3.2 1.7 4.6 2.1 2.7 3.5 3.7c1.5 1.1 3.1 1.9 4.9 2.4h.1c1.9.6 3.7.8 5.6.7 1.8-.1 3.5-.5 5-1.2s2.8-1.7 4-2.9c1.1-1.3 2-2.8 2.5-4.5.4-1.3.6-2.5.6-3.7s-.1-2.3-.4-3.3-.7-2.1-1.2-3.1-1.1-2-1.8-3.1l10.6-8.3c1.3 1.7 2.4 3.4 3.4 5.3 1 1.8 1.7 3.8 2.2 5.9s.7 4.3.6 6.7c-.4 2.2-.9 4.8-1.7 7.6m-1.6-38.2 5.4-13.8 13.6 5.3-5.4 13.8zm-6.1-73.7 8.2-12.1 43.5 29.4-8.2 12.1zm41.1-56.3 9.2-10 35.1 3-20.3-18.9 9.7-10.5 38.5 35.7-8.7 9.4-36.4-3.1 21.1 19.6-9.7 10.5zm97.7-70.9-13.3 8.5-6.9-10.7 38.8-24.8 6.9 10.7-13.3 8.5 21.4 33.5-12.3 7.8zm63.8-49 38.9-16.3 4.8 11.4-25.7 10.8 3.1 7.3 23.2-9.8 4.5 10.6-23.3 9.7 3.2 7.7 26-10.9 4.8 11.4-39.2 16.5zm88.6-32.5 24.4-4.6c4-.8 7.4-.9 10.4-.4 2.9.5 5.4 1.4 7.5 2.9 3.6 2.4 5.9 6.1 6.8 11.1v.1c.8 4 .4 7.5-1 10.4-1.4 3-3.6 5.4-6.6 7.4l15.7 15.7-16.5 3.1-13.4-13.7h-.1l-6.1 1.2 3 15.6-14.3 2.7zm28.5 20.2c2.5-.5 4.2-1.4 5.4-2.7 1.1-1.4 1.5-3 1.1-4.8v-.1c-.4-2.1-1.4-3.5-2.9-4.2-1.6-.7-3.6-.9-6-.4l-9.4 1.8 2.3 12.4zm73.5-31.4h13.6l21.6 27.8.1-27.8h14.3l-.1 52.5h-12.8l-22.4-28.9-.1 28.8h-14.3zm129.6 14.4 13.6 3.4 8.7 56.8-15.1-3.8-1.4-10-19.6-5-5.9 8.2-14.8-3.8zm4.5 34.4-2-15.9-9.4 13zm70.5 55.3q-4.65-3-7.8-7.5c-3.15-4.5-3.4-6.1-4.1-9.4-.7-3.4-.8-6.8-.2-10.4s2-7 4.1-10.3l.1-.1c2.1-3.2 4.6-5.8 7.6-7.8s6.2-3.4 9.6-4.2c3.4-.7 6.9-.8 10.5-.1s7.1 2.1 10.4 4.3c2.3 1.5 4.2 3 5.7 4.7 1.6 1.6 2.8 3.4 3.8 5.2s1.8 3.7 2.3 5.6.8 3.9.9 5.9l-13.8 1.2c-.2-2.4-.8-4.6-1.7-6.5s-2.4-3.5-4.6-4.9q-2.4-1.5-4.8-1.8c-1.7-.2-3.3-.1-4.9.3-1.6.5-3.1 1.2-4.6 2.3-1.4 1.1-2.7 2.4-3.7 4l-.1.1c-1.1 1.6-1.8 3.3-2.2 5.1s-.5 3.5-.3 5.2c.2 1.6.8 3.2 1.7 4.6s2.1 2.7 3.7 3.7c1.1.7 2.3 1.3 3.4 1.6q1.65.6 3.3.6t3.3-.3c1.1-.2 2.3-.5 3.5-.8l4.9 12.5c-2 .7-4 1.3-6 1.7s-4.1.6-6.3.4c-2.1-.1-4.4-.6-6.6-1.4-2.3-.7-4.7-1.9-7.1-3.5m89.1-7.1 11.5 9-32.4 41.3-11.5-9zm28.8 100.9c-2.8-2.9-4.8-6.2-6.2-9.7-1.3-3.5-2-7-1.9-10.5s.8-6.9 2.2-10.2 3.5-6.2 6.2-8.8l.1-.1c2.7-2.6 5.8-4.5 9.2-5.7s6.9-1.8 10.4-1.6c3.6.2 7 1 10.4 2.5s6.5 3.8 9.3 6.7 4.8 6.2 6.2 9.6c1.3 3.5 2 7 1.9 10.5s-.8 6.9-2.2 10.2-3.5 6.2-6.2 8.8l-.1.1c-2.7 2.6-5.8 4.5-9.2 5.7s-6.9 1.8-10.4 1.6c-3.6-.2-7-1-10.4-2.5q-5.1-2.1-9.3-6.6m9.6-8.9c1.4 1.5 2.9 2.5 4.6 3.2s3.4 1 5.1 1 3.4-.4 5.1-1.1 3.2-1.7 4.6-3l.1-.1c1.4-1.3 2.5-2.8 3.3-4.4s1.2-3.3 1.4-5.1c.1-1.8-.1-3.5-.7-5.3-.6-1.7-1.5-3.3-2.9-4.8s-2.9-2.5-4.6-3.2-3.4-1-5.1-1-3.4.4-5.1 1.1-3.2 1.7-4.6 3l-.1.1c-1.4 1.3-2.5 2.8-3.3 4.4s-1.3 3.3-1.4 5.1c-.1 1.7.1 3.5.7 5.2.6 1.9 1.6 3.5 2.9 4.9m78.4 41.7 6.5 12-14.1 32.3 24.4-13.3 6.8 12.6-46.1 25.1-6.1-11.2 14.6-33.5-25.3 13.8-6.8-12.6zm51.3 120.6 3.3 13.6-46 34.3-3.7-15.2 8.2-6-4.8-19.7-10-1.4-3.7-14.9zm-28.2 20.1 13.1-9.2-15.9-2.2zm41.5 59.8.6 14.5-39.7 1.8 1.1 25.4-12.7.6-1.8-39.9zm-602.4 447.8-9.1-.3.1-11.6 16-.3 10.2 2.7-13.3 51.2-13.9-3.6zm85 58.6c-3.9-.5-7.2-1.6-9.9-3.1-2.8-1.5-5.2-3.4-7.3-5.6l8.2-9c1.6 1.7 3.2 3 4.9 3.9q2.55 1.35 5.7 1.8c3 .4 5.4-.2 7.3-1.9s3.2-4.2 4-7.5c-1.5 1.1-3.3 1.9-5.2 2.4s-4.1.6-6.4.3c-2.5-.4-4.8-1.1-6.8-2.1-2-1.1-3.7-2.4-5.1-4s-2.3-3.5-2.9-5.7-.7-4.5-.3-7v-.1c.4-2.9 1.3-5.4 2.7-7.6s3.1-4 5.2-5.4 4.5-2.4 7.1-2.9c2.7-.5 5.5-.6 8.4-.2 3.8.5 6.8 1.5 9.1 2.9s4.3 3.2 6 5.5c1.6 2.1 2.8 4.8 3.5 8.1.7 3.2.7 7.2 0 12.1v.1c-.6 4.3-1.7 8.1-3.2 11.4-1.5 3.4-3.5 6.2-5.9 8.4s-5.1 3.8-8.3 4.8c-3.3.7-6.9.9-10.8.4m6.6-28.6q3.45.45 5.7-1.2c1.5-1.1 2.4-2.7 2.6-4.5v-.1c.3-2-.1-3.8-1.3-5.4-1.2-1.5-2.9-2.5-5.2-2.8q-3.45-.45-5.7 1.2c-1.5 1.1-2.4 2.7-2.6 4.8v.1c-.3 2 .2 3.7 1.3 5.2s2.9 2.4 5.2 2.7m89 28.6c-3.7.5-7.2.3-10.3-.8-3.2-1-5.9-2.6-8.3-4.8s-4.4-4.8-5.9-7.9c-1.6-3.1-2.6-6.5-3.1-10.2v-.1c-.5-3.7-.4-7.2.3-10.7.7-3.4 1.9-6.5 3.7-9.3 1.7-2.7 4-5 6.8-6.9 2.8-1.8 6-3 9.7-3.5s7.1-.2 10.3.8c3.1 1 5.9 2.6 8.3 4.8s4.4 4.8 6 7.9 2.6 6.5 3.1 10.2v.1c.5 3.7.4 7.2-.3 10.7s-1.9 6.5-3.7 9.3c-1.8 2.7-4.1 5-6.8 6.9-2.8 1.8-6.1 3-9.8 3.5m-1.6-12.8c1.4-.2 2.7-.7 3.8-1.6s2-2 2.6-3.3 1.1-2.9 1.3-4.7.2-3.7-.1-5.8v-.1c-.3-2.1-.8-4-1.5-5.6-.7-1.7-1.6-3.1-2.6-4.2-1-1.2-2.2-2-3.5-2.6s-2.6-.7-4.1-.5c-1.4.2-2.7.7-3.8 1.6s-1.9 2-2.6 3.3c-.7 1.4-1.1 2.9-1.3 4.7s-.2 3.7.1 5.8v.1q.45 3.15 1.5 5.7c.7 1.7 1.6 3.1 2.6 4.3 1 1.1 2.2 2 3.4 2.5 1.4.4 2.8.6 4.2.4m81.3-3.1c-3.8.7-7.3.8-10.4.2s-6-1.6-8.7-3.1l4.9-11.1c2 1.1 4 1.8 5.9 2.2 1.9.3 3.9.3 5.9-.1 3-.5 5.1-1.9 6.3-4.1 1.3-2.2 1.7-5 1.5-8.4q-1.65 2.25-4.2 3.9c-1.7 1.1-3.7 1.9-6 2.3-2.5.5-4.9.5-7.2.1s-4.3-1.1-6.1-2.2-3.3-2.6-4.6-4.5c-1.2-1.9-2.1-4-2.5-6.6v-.1c-.5-2.9-.5-5.5.1-8s1.7-4.7 3.2-6.7 3.5-3.6 5.8-5c2.3-1.3 5-2.3 8-2.8 3.7-.7 6.9-.7 9.5-.1s5.1 1.7 7.4 3.3c2.2 1.5 4.2 3.7 5.8 6.6 1.7 2.8 3 6.7 3.8 11.4v.1c.8 4.2 1 8.2.6 11.9s-1.4 6.9-2.9 9.8c-1.6 2.8-3.7 5.2-6.4 7.2-2.5 1.7-5.8 3-9.7 3.8m-2.8-29.2c2.3-.4 3.9-1.4 5-2.9 1-1.5 1.4-3.3 1.1-5.1v-.1c-.4-2-1.3-3.6-2.9-4.7s-3.5-1.4-5.8-1-3.9 1.4-5 2.9c-1 1.5-1.4 3.3-1 5.4v.1c.4 2 1.3 3.5 2.9 4.5 1.5 1 3.5 1.3 5.7.9" fill="#e5050f"/></svg>