<svg height="348.69" width="350" xmlns="http://www.w3.org/2000/svg"><g fill-rule="evenodd"><path d="M11.25 11.25h327.501v126.563l-163.75 199.632-163.75-199.632z" fill="#fff" stroke="#000" stroke-width="2.5"/><path d="M27.234 28.74h295.533v86.364H27.234z"/><path d="M27.887 130.637H149.23v148.745z" fill="#fe0000"/><path d="M321.463 130.637H200.118v148.745z"/><path d="M262.457 43.197c-9.202 0-10.96 5.192-10.96 8.476v39.499c-.297 6.913 5.326 10.398 10.517 10.398h29.543c6.368 0 12.967-3.51 12.967-11.289v-11.09h-13.863v3.912c.37 2.935-1.027 4.95-3.256 4.853h-18.628c-2.717.174-5.296.193-4.606-3.467V58.892c.549-1.787-1.39-4.405 3.914-4.604h20.05c1.2.66 3.012-.52 3.022 3.712l.198 4.604h12.922V51.596c0-6.392-5.514-8.4-10.476-8.4zm-107.9 0h-40.555v57.928h14.093V79.753h26.364c5.489 0 11.416-2.614 11.416-10.02V52.9c0-4.674-3.586-9.624-11.319-9.705m-101.205 0c-5.446.428-7.713 2.954-7.626 7.377v19.163c0 3.438 3.12 6.683 11.202 6.683h24.546c1.173 0 1.832.594 1.832 2.423v6.142c0 1.83-.654 3.217-2.191 3.217H45.478v12.427H88.77c6.418 0 8.844-3.29 8.844-7.818V71.814c0-7.835-9.575-7.377-13.111-7.377H62.459c-1.982.2-3.881-1.643-3.712-3.596v-4.114c-.209-1.513 1.24-2.65 3.169-2.64l35.698-.047V43.197zm129.87 0v58.126h12.873V79.636h29.062V66.961h-28.815V54.037h38.768V43.194zm-55.126 12.723H149.7c1.6 0 3.418.119 3.418 3.234v5.307c0 3.198-1.674 3.316-3.367 3.316h-21.656z" fill="#fff"/></g></svg>