<svg height="258.667" width="258.667" xmlns="http://www.w3.org/2000/svg"><path d="m.346.903h257.009v257.007h-257.009z" fill="none"/><path d="m34.974 108.259v-43.72c66.057 15.908 42.893-45.859 42.893-45.859 15.947-7.797 50.999-8.481 50.999-8.481s35.015.684 50.96 8.481c0 0-20.478 62.425 42.894 45.858v43.72c.182 109.533-93.854 140.362-93.854 140.362s-94.074-30.828-93.892-140.36" fill="#fff" fill-rule="evenodd"/><path d="m34.974 108.259v-43.72c66.057 15.908 42.893-45.859 42.893-45.859 15.947-7.797 50.999-8.481 50.999-8.481s35.015.684 50.96 8.481c0 0-20.478 62.425 42.894 45.858v43.72c.182 109.533-93.854 140.362-93.854 140.362s-94.074-30.828-93.892-140.36z" fill="none" stroke="#231f20" stroke-miterlimit="2.6131" stroke-width="3.99978"/><path d="m43.509 110.121v-34.95c58.814 9.232 46.223-48.88 46.223-48.88 14.496-7.09 39.133-6.513 39.133-6.513s24.6-.577 39.097 6.512c0 0-12.59 58.113 46.223 48.882v34.95c.167 99.575-85.32 127.601-85.32 127.601s-85.522-28.026-85.356-127.602" fill="#231f20" fill-rule="evenodd"/><path d="m216.828 76.305c-38.924-.473-43.699-19.869-43.699-19.869l-124.537 107.724 23.693 37.175z" fill="#fff" fill-rule="evenodd"/><path d="m43.509 110.121v-34.95m0 0c58.814 9.232 46.223-48.88 46.223-48.88 14.496-7.09 39.133-6.513 39.133-6.513s24.6-.577 39.097 6.512c0 0-12.59 58.113 46.223 48.882m0 0v34.95m0 0c.167 99.575-85.32 127.601-85.32 127.601s-85.522-28.026-85.356-127.602" fill="none" stroke="#231f20" stroke-miterlimit="2.6131" stroke-width="1.33338"/><path d="m113.623 30.247 1.407 5.192 7.952-5.605s2.486-1.977 2.568 2.887c0 0-2.65 1.482-2.65 3.213 0 0-.332 4.122-.083 6.182v6.595s-4.721 3.462-5.799 6.018h19.882s-1.988-3.627-5.964-5.935c0 0-3.728-4.782 1.49-6.678l1.244-8.407-2.486-.988-7.372-6.76z" fill="#fff" fill-rule="evenodd"/><path d="m124.308 39.808s1.325.908 1.409 1.98c0 0 1.076.988 1.242-.166 0 0 .662-2.144-1.16-3.379 0 0-2.154-.413-1.49 1.565m3.561 6.843s-.249 2.308 1.325 4.45c0 0 .912.99 1.16-.246 0 0-.829-1.65-1.078-2.968 0 0-.33-2.72-1.407-1.236m-4.639 5.688s.497-4.123 1.408-4.781c0 0 1.326-1.484 1.16 1.73 0 0-.579 3.05-1.49 3.545 0 0-.664.576-1.078-.494" fill="#231f20" fill-rule="evenodd"/><path d="m138.362 90.669h-35.454c0-11.54-6.184-17.256-6.184-17.256h40.534z" fill="#fff" fill-rule="evenodd"/><path d="m138.362 90.669h-35.454c0-11.54-6.184-17.256-6.184-17.256h40.534z" fill="none" stroke="#231f20" stroke-miterlimit="2.6131" stroke-width="1.33338"/><path d="m105.007 77.974h33.963" fill="none" stroke="#231f20" stroke-dasharray="100.006 60.0039" stroke-miterlimit="2.6131" stroke-width="2.666773"/><path d="m111.413 142.929c18.997-.056 30.705 9.232 30.705 9.232 26.342-30.17 9.442-63.142 9.442-63.142h-64.943s16.9 32.973-9.443 63.142c0 0 15.242-9.178 34.239-9.232" fill="#fff" fill-rule="evenodd"/><path d="m111.413 142.929c18.997-.056 30.705 9.232 30.705 9.232 26.342-30.17 9.442-63.142 9.442-63.142h-64.943s16.9 32.973-9.443 63.142c0 0 15.242-9.178 34.239-9.232z" fill="none" stroke="#231f20" stroke-miterlimit="2.6131" stroke-width="1.33338"/><path d="m94.404 95.12h56.495" fill="none" stroke="#231f20" stroke-dasharray="100.006 60.0039" stroke-miterlimit="2.6131" stroke-width="2.666773"/><path d="m147.254 54.07h-38.934s5.798 5.11 2.651 16.32c0 0 15.738-9.56 36.78 0 0 0 2.981-10.551-.497-16.32" fill="#fff" fill-rule="evenodd"/><path d="m147.254 54.07h-38.934s5.798 5.11 2.651 16.32c0 0 15.738-9.56 36.78 0 0 0 2.981-10.551-.497-16.32z" fill="none" stroke="#231f20" stroke-miterlimit="2.6131" stroke-width="1.33338"/><path d="m168.128 68.742h-52.518s10.603 17.476-.497 28.686c0 0 32.969-14.343 48.376 2.307 0 0 11.432-14.837 4.639-30.993" fill="#fff" fill-rule="evenodd"/><path d="m168.128 68.742h-52.518s10.603 17.476-.497 28.686c0 0 32.969-14.343 48.376 2.307 0 0 11.432-14.837 4.639-30.993z" fill="none" stroke="#231f20" stroke-miterlimit="2.6131" stroke-width="1.33338"/><path d="m120.028 154.634c-15.462.11-32.25 7.913-32.25 7.913 32.471-30.334 7.951-64.79 7.951-64.79h82.175s10.934 52.59-33.3 64.79c0 0-9.113-8.023-24.576-7.913" fill="#fff" fill-rule="evenodd"/><path d="m120.028 154.634c-15.462.11-32.25 7.913-32.25 7.913 32.471-30.334 7.951-64.79 7.951-64.79h82.175s10.934 52.59-33.3 64.79c0 0-9.113-8.023-24.576-7.913z" fill="none" stroke="#231f20" stroke-miterlimit="2.6131" stroke-width="1.33338"/><path d="m106.333 104.352h69.748" fill="none" stroke="#231f20" stroke-dasharray="149.996 89.9973" stroke-miterlimit="2.6131" stroke-width="3.99978"/><path d="m123.563 74.017h44.565" fill="none" stroke="#231f20" stroke-dasharray="100.006 60.0039" stroke-miterlimit="2.6131" stroke-width="2.666773"/><path d="m115.61 58.19h31.312" fill="none" stroke="#231f20" stroke-dasharray="50.003 30.0018" stroke-miterlimit="2.6131" stroke-width="1.33338"/><path d="m151.975 133.12s-5.219-3.874-10.52-3.874v.016c0 5.275 3.893 10.469 3.893 10.469h-13.17s3.892-5.194 3.892-10.469v-.016c-5.3 0-10.52 3.874-10.52 3.874v-13.09s5.22 3.874 10.52 3.874v-.016c0-5.275-3.893-10.47-3.893-10.47h13.171s-3.893 5.195-3.893 10.47v.016c5.301 0 10.52-3.874 10.52-3.874z" fill="#ee2722" fill-rule="evenodd"/><g fill="none" stroke-miterlimit="2.6131"><path d="m60.606 121.25v-35.529m0 0s13.254-.247 13.254 10.47c0 0 1.905 8.654-13.254 8.654" stroke="#fff" stroke-width="3.99978"/><path d="m80.073 96.688c-2.853-2.998-7.373-4.935-12.463-4.935-8.626 0-15.62 5.566-15.62 12.434s6.994 12.434 15.62 12.434c5.95 0 11.123-2.648 13.76-6.545" stroke="#231f20" stroke-width="6.66654"/><path d="m80.073 96.688c-2.853-2.998-7.373-4.935-12.463-4.935-8.626 0-15.62 5.566-15.62 12.434s6.994 12.434 15.62 12.434c5.998 0 11.207-2.692 13.824-6.64" stroke="#fff" stroke-width="3.99978"/><path d="m80.488 122.57s-5.385 0-5.385-6.513c0 0 .584-4.681-2.714-8.014" stroke="#231f20" stroke-width="6.66654"/><path d="m80.488 122.57s-5.385 0-5.385-6.513c0 0 1.408-11.293-12.509-11.293" stroke="#fff" stroke-width="3.99978"/><path d="m60.606 101.467v-13.107" stroke="#231f20" stroke-width="6.66654"/><path d="m60.606 101.467v-13.107" stroke="#fff" stroke-width="3.99978"/></g><path d="m62.512 87.783-3.894 1.319c0-4.121-2.733-5.357-2.733-5.357h4.887zm2.65 36.765h-9.195s2.651-1.32 2.651-3.958h3.894c0 2.72 2.65 3.958 2.65 3.958" fill="#fff" fill-rule="evenodd"/><g fill="none" stroke-miterlimit="2.6131"><path d="m141.012 201.808c-2.415-2.907-5.851-4.722-9.663-4.722-7.31 0-13.238 6.68-13.238 14.92 0 8.242 5.927 14.922 13.238 14.922 4.188 0 7.92-2.191 10.347-5.613" stroke="#fff" stroke-width="3.99978"/><path d="m141.455 226.843v.083h-9.03" stroke="#fff" stroke-width="3.99978"/><path d="m126.793 217.693 3.976 8.985 3.728-8.655m5.55-10.964 4.39-8.902" stroke="#231f20" stroke-width="6.66654"/><path d="m115.86 195.932 14.91 30.746 15.158-31.489" stroke="#fff" stroke-width="3.99978"/><path d="m140.71 211.016h-5.881m0 0s.082 2.638 4.638 2.638m0 0 1.243-2.638" stroke="#231f20" stroke-width="2.666773"/></g><path d="m140.71 211.016h-5.881s.082 2.638 4.638 2.638z" fill="#fff" fill-rule="evenodd"/><path d="m141.455 211.016v15.91" fill="none" stroke="#fff" stroke-miterlimit="2.6131" stroke-width="3.99978"/><path d="m131.349 197.086c-7.31 0-13.238 6.68-13.238 14.92" fill="none" stroke="#231f20" stroke-miterlimit="2.6131" stroke-width="6.66654"/><path d="m131.349 197.086c-7.31 0-13.238 6.68-13.238 14.92" fill="none" stroke="#fff" stroke-miterlimit="2.6131" stroke-width="3.99978"/><path d="m146.674 197.086c2.733 0 4.058-3.215 4.058-3.215h-9.194s.994 3.215 3.065 3.215zm-31.892 0c-2.734 0-4.06-3.215-4.06-3.215h9.195s-.993 3.215-3.064 3.215z" fill="#fff" fill-rule="evenodd"/><path d="m98.463 164.031s-2.402 11.045 28.165 11.045c0 0 12.591.825 18.638-6.1l11.762-12.612s-5.798-12.117-12.673-12.117c0 0-17.204-.604-45.892 19.784" fill="#231f20" fill-rule="evenodd"/><path d="m98.463 164.031s-2.402 11.045 28.165 11.045c0 0 12.591.825 18.638-6.1l11.762-12.612s-5.798-12.117-12.673-12.117c0 0-17.204-.604-45.892 19.784z" fill="none" stroke="#231f20" stroke-miterlimit="2.6131" stroke-width="1.33338"/><path d="m134.829 174.527s2.87-17.805 5.963-22.42c0 0-4.97-7.034 3.092-7.694 0 0 3.424-.44 4.419 3.407 0 0 .332 3.847-3.092 5.275 0 0-3.424 2.858-5.965 20.113 0 0-2.43.99-4.417 1.319" fill="#f3973a" fill-rule="evenodd"/><path d="m134.829 174.527s2.87-17.805 5.963-22.42c0 0-4.97-7.034 3.092-7.694 0 0 3.424-.44 4.419 3.407 0 0 .332 3.847-3.092 5.275 0 0-3.424 2.858-5.965 20.113 0 0-2.43.99-4.417 1.319z" fill="none" stroke="#231f20" stroke-miterlimit="2.6131" stroke-width="1.33338"/><path d="m115.61 155.293s10.935-5.385 17.781-7.364c0 0 3.204-1.099 4.088 0 0 0 1.988 2.528-2.098 4.067 0 0-10.16 1.318-32.03 14.069 0 0-1.878 1.208-2.65-.111 0 0-.443-.989 1.434-2.417 0 0 8.395-5.825 13.475-8.244" fill="#f3973a" fill-rule="evenodd"/><path d="m128.091 155.733s4.97-1.869 6.627-1.978c0 0 2.21.11 2.21 1.868 0 0 .551 2.418-3.094 3.517 0 0-9.056 1.429-24.962 10.002 0 0-2.87 2.198-4.638.44 0 0-.884-1.32 1.325-2.86 0 0 13.254-7.692 22.532-10.99m-2.983 7.584s6.407-2.307 9.278-2.418c0 0 1.547.11 1.325 1.869 0 0 .552 2.858-2.54 3.298 0 0-8.504 1.098-16.567 5.714 0 0-2.098 1.32-4.307 1.1 0 0-1.326-.33-2.43-.77 0 0-2.209-.44 3.424-3.298 0 0 7.621-4.285 11.817-5.495m.222 10.442s-5.08 0-7.069-.22c0 0-1.325-.33.994-1.539 0 0 5.965-2.528 11.487-3.846 0 0 3.424-.99 3.424 1.648 0 0 .552 3.627-3.977 3.847zm26.949-22.091s3.534 3.956 1.878 5.824c0 0-1.878 2.418-4.309-.33 0 0-2.981-2.527-1.656-4.835 0 0 1.656-4.506 4.087-.66m-5.19 4.507s2.207 2.198 2.871 3.626c0 0 1.215 2.308-1.436 3.188 0 0-3.204-1.21-4.749-4.177 0 0 .11-4.066 3.313-2.637m-2.652 5.934s3.426 2.199 1.436 4.287c0 0-1.436 1.538-2.65 0 0 0-1.767-.99-.995-3.297 0 0 .664-2.199 2.21-.99m-2.762 4.946s2.652 1.43.884 2.858c0 0-2.21 2.637-1.988 0 0 0-.221-2.418 1.104-2.858" fill="#f3973a" fill-rule="evenodd"/><path d="m118.372 183.65s10.602.329 12.7-1.65c0 0-7.4 9.122-12.7 1.65m27.832-8.135s7.73 1.76 12.923 1.21c0 0-9.057 6.375-12.923-1.21m22.973 1.1s4.75.11 8.285-1.318c0 0-3.204 5.495-8.285 1.318m-8.918 8.6s4.694-.55 6.682-.22c0 0-3.037-3.736-6.682.22m-22.228-8.301s-3.534 1.1-5.523.77c0 0 1.88 3.187 5.523-.77m-1.214 5.966s3.865.77 8.946.549c0 0-2.43 4.836-8.946-.55m-26.397-4.835s6.736.22 10.492-.55c0 0-3.645 5.825-10.492.55" fill="#fff" fill-rule="evenodd"/><path d="m90.428 177.604s5.411-.219 7.952-.219c2.54 0 4.694.494 6.02 1.593 0 0-1.381-2.253-4.694-3.352 0 0-3.867-1.429-7.622-.66 0 0-3.424.66-7.73-2.088 0 0 2.65 4.507 6.074 4.726m2.76 3.957s-2.982-.77-6.516-.11c-2.496.465-7.4-.11-8.726-1.209 0 0 .222 3.188 4.64 3.848 0 0 3.092 0 7.4-.221 0 0 4.198-.44 8.284 1.759 0 0-3.645-3.737-5.081-4.067" fill="#221e1e" fill-rule="evenodd"/></svg>