<svg viewBox="18.9 114.12 755.91 565.44" xmlns="http://www.w3.org/2000/svg"><g fill-rule="evenodd"><path d="M401.71 114.219c81.949 2.69 146.226 71.328 143.536 153.275-2.689 81.95-71.327 146.226-153.277 143.536-81.947-2.689-146.223-71.327-143.535-153.276 2.69-81.947 71.329-146.224 153.276-143.535" fill="#fff"/><path d="M233.707 214.251L131.57 314.81c7.724 36.256 26.664 76.293 47.216 107.03l220.337 10.168 218.027-14.625c20.487-29.775 35.959-66.406 44.962-101.369l-100.185-101.79c2.173 54.648-9.202 111.616-47.538 152.806-30.117 32.36-74.555 56.47-118.92 56.761-42.995.283-81.732-17.175-111.971-47.785-41.01-41.513-51.013-105.17-49.79-161.755" fill="#ee392f"/><path d="M182.56 264.682l-51.267 50.128c6.397 37.583 26.664 76.291 47.216 107.028l-59.292 100.72c94.146 68.177 180.677 101.904 280.514 102.316 105.192.435 194.62-43.176 272.079-105.905l-54.935-97.164c20.486-29.774 38.611-71.27 47.616-106.234l-49.757-51.358C616.907 318.86 585.183 386 535.788 425.42l-136.614 9.429c-42.996.282-98.543-7.003-135.417-8.416-52.51-42.398-82.42-105.168-81.196-161.752" fill="#4b91d1"/><path d="M236.407 203.725l-110.15 109.86c8.309 42.108 28.092 80.75 48.373 110.517l222.665 14.369 221.538-14.861c20.187-28.558 38.35-67.937 48.59-109.572L556.921 203.725c14.315 150.056-83.843 213.121-159.35 213.618-70.931.467-172.205-51.577-161.164-213.618m372.456 62.91c-1.185 59.672-30.85 127.225-85.075 156.887l-126.5 8.486-125.62-8.106c-54.664-29.465-84.57-97.343-85.76-157.267l-.067-3.37 43.377-43.262c-1.224 56.584 11.433 114.49 52.444 156.003 30.238 30.61 72.956 48.068 115.952 47.785 44.366-.292 87.92-20.42 118.034-52.78 38.337-41.19 51.04-95.945 48.866-150.593l44.387 44.31zm-66.175 155.62c46.03-33.142 72.013-93.193 74.955-148.801l42.634 42.56c-9.005 34.963-24.476 71.594-44.963 101.37zm-290.012.422c-46.796-33.333-73.038-94.409-75.616-150.653l-43.787 43.671c7.723 36.255 24.38 71.439 44.93 102.176z" fill="#fff"/><path d="M122.58 412.55h227.34c14.388 4.408 30.25 6.857 46.92 6.857s32.53-2.449 46.918-6.857h227.344v103.955H122.58z" fill="#fff"/><path d="M129.174 419h535.333v91.056H129.174z" fill="#ee392f"/><path d="M59.282 466.973l26.063-42.266 3.85 12.481c16.14 52.33 32.754 84.015 78.9 113.097l1.198-1.516c5.136-6.345 14.064-9.531 21.54-4.735 62.647 41.23 133.108 67.883 209.298 67.535 83.562-.381 152.493-23.74 218.264-75.131 5.67-4.44 15.35-4.135 19.95 1.748l2.618 3.381c37.359-27.92 58.425-63.69 67.82-110.45l2.902-14.45 25.925 40.878 37.173-18.386-2.242 11.569c-6.601 34.042-19.03 65.537-38.738 94.368-37.38 54.683-96.227 92.497-154.19 123.506-8.231 4.403-19.391 5.107-24.088-3.47l-9.496-17.336c-44.976 17.498-93.012 25.966-145.871 25.963-51.687-.003-91.896-5.917-129.953-18.934l-9.606 16.88c-4.257 7.477-9.787 8.907-16.717 7.218-2.712-.66-6.356-2.268-9.145-3.473C134.666 632.206 51.853 567.117 22.298 460l-3.401-12.325z" fill="#fff"/><path d="M28.012 458.486C56.554 561.932 136.045 626.461 237.125 670.14c3.689 1.594 7.412 2.78 9.817 2.633 5.446-.33 6.83-4.077 2.322-7.772-9.523-7.807-24.884-14.617-34.965-19.081-6.083-2.692-12.204-5.297-18.29-7.985a531.856 531.856 0 0 1-17.324-8.01c-6.167-2.991-12.29-6.12-18.252-9.488-5.085-2.874-10.266-6.006-14.89-9.557-6.196-4.76-13.147-15.383-7.47-22.573l26.388-33.417c-48.886-31.006-65.291-65.311-80.931-116.02L61.55 474.51zm738.713-8.84c-19.522 100.68-86.614 158.58-189.949 213.862-3.538 1.893-6.538 2.459-8.984 2.332-5.993-.31-7.853-5.01-3.303-8.98 8.302-7.244 17.607-12.909 27.48-18.04 16.324-8.485 33.551-15.127 49.708-24.018 8.736-4.806 17.355-9.582 24.246-16.856 6.732-6.13 7.207-14.83 2.999-20.267l-24.385-31.493c41.93-31.364 61.305-70.403 70.052-113.948l20.853 32.879z" fill="#ee392f"/><path d="M401.71 114.219c81.949 2.69 146.226 71.328 143.536 153.275-2.689 81.95-71.327 146.226-153.277 143.536-81.947-2.689-146.223-71.327-143.535-153.276 2.69-81.947 71.329-146.224 153.276-143.535m55.59 16.317c-2.718 4.37-6.955 8.29-12.351 11.568l-1.776-2.544c4.906-2.943 8.752-6.436 11.217-10.319a144.13 144.13 0 0 0-17.352-6.212l-6.507 9.687 23.722 33.982.7.28c17.48 6.982 33.173 14.26 48.956 24.455l12.487-11.264a148.53 148.53 0 0 0-3.426-4.75l-2.376 1.893c-12.682-15.164-30.773-24.918-50.352-25.195a58.918 58.918 0 0 0-8.005.428l-3.714-5.32c6.578-4.08 11.048-8.635 14.099-14.116a144.902 144.902 0 0 0-5.323-2.573m-27.428 18.13c-9.13 2.757-19.721 4.165-30.968 3.796-10.986-.36-21.234-2.372-30.026-5.586l1.938-2.66c8.274 2.88 17.893 4.685 28.194 5.023 10.502.344 20.398-.88 28.956-3.3zm-75.596-9.122c-5.057-3.439-9.026-7.404-11.593-11.708-1.935.779-3.85 1.599-5.742 2.457 2.93 5.439 7.386 9.973 13.66 14.296l-4.28 5.881a60.73 60.73 0 0 0-7.512-.716c-22.023-.724-43.238 10.217-57.747 27.577l-1.295-.664a147.16 147.16 0 0 0-3.5 4.968l13.088 7.34c17.145-9.59 35.263-17.304 53.933-23.388l25.402-34.886-5.455-9.4a144.335 144.335 0 0 0-17.579 5.375c2.324 3.79 5.895 7.296 10.443 10.362zm-55.812 229.9c1.887-3.358 3.001-7.505 3.58-11.88l3.055.712c-.7 5.2-2.043 9.94-4.21 13.351a146.809 146.809 0 0 0 7.495 6.181c2.053-5.871 3.55-10.893 4.1-17.807l8.662 2.022c9.256 23.295 34.073 41.037 64.481 44.422l.064.99c2.103.162 4.218.28 6.346.351l.394-12.047c-19.517-9.728-37.53-22.09-54.046-36.302l-46.594-11.201-4.963 9.18a145.51 145.51 0 0 0 11.636 12.029m3.627-28.681c-.35-3.293-.862-6.26-1.412-8.597-3.619-15.361-11.244-30.107-22.576-41.196l-.28-.276c.55-.96 1.098-1.924 1.64-2.891.303.285.6.572.896.863 11.77 11.517 19.57 26.836 23.458 42.76.716 2.936 1.266 6.42 1.582 10.133zm-37.245-59.859c-3.986-2.255-8.23-4.029-12.655-5.142a145.517 145.517 0 0 0 2.584 17.16l9.337 1.966c8.338-13.746 15.951-27.95 22.377-42.696v-.001c-1.924-20.14-1.054-40.334 1.313-60.392l-13.31-7.463a142.994 142.994 0 0 0-3.492 5.739l.985.558c-4.453 8.128-7.588 17.101-9.003 26.576-2.726 18.247 1.402 35.07 10.35 47.839a341.775 341.775 0 0 1-3.823 7.38c-6.045-3.403-11.54-5.503-17.874-6.584.048 2.191.145 4.371.29 6.54 5.084 1.16 9.95 3.135 14.499 5.709-.523.938-1.048 1.877-1.578 2.811m276.548-4.131c-6.158 1.348-12.032 3.933-17.395 7.32-.487-.965-.97-1.93-1.448-2.898 5.891-3.68 12.353-6.434 19.13-7.776.148-1.998.257-4.009.322-6.031l.018-.608c-8.056 1.103-14.716 3.945-22.312 8.59a769.706 769.706 0 0 1-3.55-7.519c8.753-12.043 13.543-27.699 12.535-44.885a78.413 78.413 0 0 0-9.234-32.543l2.116-2.207c-1.083-1.81-2.2-3.592-3.357-5.35l-12.695 11.453c1.072 20.112 1.15 39.988-2.6 59.878a551.2 551.2 0 0 0 6.126 13.658c4.638 10.003 9.549 20.297 14.902 29.97l15.12-5.698a145.718 145.718 0 0 0 2.322-15.354m-30.167 17.751c-9.49 9.757-16.378 22.074-20.346 35.037a91.192 91.192 0 0 0-3.387 16.04c-1.13.28-2.261.551-3.393.82.65-6.046 1.93-12.034 3.697-17.803 4.224-13.801 11.641-26.873 21.884-37.12.51 1.012 1.025 2.02 1.545 3.026m-24.034 67.732c.31 4.18.901 8.414 2.026 12.418a145.963 145.963 0 0 0 13.595-12.753l-6.653-8.546a413.221 413.221 0 0 1-46.878 9.49l-.247.035c-16.74 12.627-34.524 23.613-53.378 32.795l-.399 12.157c2.163.025 4.313-.003 6.455-.072l.029-.916c30.242-1.779 55.757-17.952 66.224-40.546 3.26-.61 6.513-1.258 9.758-1.945.63 6.15 1.935 10.968 3.803 16.23a146.024 146.024 0 0 0 4.84-3.638c-1.432-3.947-2.111-9.216-2.447-13.952 1.092-.248 2.181-.5 3.272-.757M460.196 155.34c-1.967-.03-3.92.044-5.854.22l2.148 3.076a53.073 53.073 0 0 1 3.661-.074c6.043.086 12.052 1.199 17.745 3.217 10.993 3.898 20.418 10.846 27.727 19.617l2.491-2.048c-7.675-9.214-17.582-16.51-29.14-20.607-6.026-2.135-12.383-3.312-18.778-3.401m-22.534 4.489a53.412 53.412 0 0 0-8.485 4.677c-13.514 9.124-21.806 23.302-24.812 38.802l3.263.108c2.928-14.476 10.71-27.702 23.353-36.238a50.226 50.226 0 0 1 8.565-4.65zm-34.53 59.568c.02.52.04 1.038.071 1.558 1.322 22.553 13.204 44.32 31.786 56.936l1.685-2.75c-17.692-12.076-28.994-32.89-30.253-54.375-.024-.42-.042-.843-.06-1.263zm46.254 65.855l.324.12c6.023 2.132 12.38 3.308 18.772 3.399 11.113.157 21.798-2.941 31.018-9.166a56.052 56.052 0 0 0 3.25-2.371l-1.407-3.005a52.932 52.932 0 0 1-3.646 2.704c-8.676 5.857-18.714 8.762-29.17 8.614-5.928-.084-11.822-1.159-17.42-3.104zm65.216-20.751c8.09-11.9 11.734-26.651 10.873-41.347-.623-10.628-3.59-21.084-8.5-30.487l-2.477 2.236c4.474 8.814 7.18 18.557 7.758 28.439.78 13.3-2.302 26.678-9.242 37.699q.788 1.732 1.588 3.46M338.596 156.198a57.902 57.902 0 0 0-13.879 1.243c-14.82 3.133-27.94 11.557-37.755 22.915l2.42 1.241 1.528-.822c9.181-9.981 21.104-17.355 34.474-20.18a54.708 54.708 0 0 1 13.106-1.174c.424.014.847.032 1.27.057l2.23-3.064a55.077 55.077 0 0 0-3.394-.216m-60.876 37.454c-4.19 7.622-7.081 15.946-8.361 24.51-2.083 13.943.146 28.332 7.26 40.156a324.792 324.792 0 0 0 1.674-3.59c-5.85-10.819-7.598-23.687-5.746-36.09 1.225-8.197 4.003-16.175 8.027-23.485zm10.386 77.898c8.585 6.948 19.034 10.6 30.114 10.965 4.66.153 9.318-.278 13.878-1.242a63.264 63.264 0 0 0 8.753-2.53l-1.563-2.86a60.006 60.006 0 0 1-7.856 2.236 54.628 54.628 0 0 1-13.105 1.173c-10.619-.348-20.61-3.902-28.756-10.71-.484.99-.972 1.981-1.465 2.968m67.096-.17c17.071-11.478 29.215-30.47 32.256-50.829.083-.552.158-1.107.227-1.66l-3.237-.107c-.056.431-.115.862-.178 1.291-2.892 19.344-14.418 37.466-30.623 48.467zm32.531-68.617c-1.595-13.047-7.27-25.344-17.518-34.336a48.547 48.547 0 0 0-11.543-7.536l-1.937 2.66a45.316 45.316 0 0 1 11.352 7.299c9.485 8.322 14.78 19.72 16.37 31.805zm9.312 82.156c10.68.35 20.747 2.616 29.732 6.376l-1.7 2.776c-8.515-3.494-18.04-5.599-28.138-5.93-10.703-.352-20.896 1.327-30.03 4.615l-1.56-2.852c9.627-3.541 20.39-5.357 31.696-4.985m43.887 14.135c16.17 11.317 26.23 28.33 25.616 47.031a49.182 49.182 0 0 1-.318 4.156c-1.111.21-2.22.419-3.332.62.225-1.605.373-3.233.428-4.881.574-17.522-8.867-33.48-24.077-44.182zm19.895 68.537c-10.104 19.325-32.504 33.053-58.938 34.822l.086-2.648c.46-.23.918-.464 1.376-.697 23.573-2.056 43.572-13.994 53.43-30.811a464.94 464.94 0 0 0 4.046-.666m-75.054 34.414c-26.645-3.15-48.52-18.29-57.596-38.34l4.017.937c8.883 17.302 28.094 30.383 51.458 33.863.732.39 1.464.778 2.198 1.16zm-62.026-56.034a48.368 48.368 0 0 1-.066-4.575c.596-18.154 11.127-34.063 27.184-44.338l1.545 2.824c-15.082 9.716-24.949 24.624-25.506 41.62a46.266 46.266 0 0 0 .133 5.26zm182.922-60.536c-10.997 10.46-19.943 24.647-25.038 41.296-2.18 7.124-3.516 14.237-4.07 21.186a364.258 364.258 0 0 1-4.791 1.025c.128-1.24.217-2.489.258-3.75.68-20.706-10.562-39.52-28.57-51.895l3.21-5.241c6.594 2.457 13.58 3.839 20.768 3.94 13.528.192 25.816-4.173 35.722-11.782.83 1.743 1.665 3.485 2.51 5.22M312.308 343.22a101.06 101.06 0 0 0-2.213-13.272c-4.639-19.678-14.668-36.387-27.422-47.96.825-1.525 1.64-3.056 2.442-4.592 9.02 6.94 20.252 11.15 32.895 11.564 8.916.292 17.7-1.33 25.96-4.515l3.653 6.683c-17.905 11.225-29.689 28.826-30.349 48.953a53.488 53.488 0 0 0 .04 4.342zm52.71-191.045c9.824 3.899 21.325 6.327 33.676 6.732 12.727.418 24.702-1.37 34.967-4.812l2.124 3.046c-17.788 8.034-30.786 25.027-34.702 46.06l-6.816-.223c-2.28-21.191-14.18-38.71-31.738-47.383zm32.245 126.116c11.894.39 23.094 2.966 33.049 7.238l3.005-4.907c-18.681-12.666-31.877-34.645-33.331-59.478a72.52 72.52 0 0 1-.086-1.852l-5.746-.189a72.198 72.198 0 0 1-.318 2.4c-3.467 23.213-17.226 43.42-35.539 55.527l3.804 6.943c10.65-4.023 22.598-6.095 35.162-5.682m140.982 17.595l-13.73 5.175c-6.462 18.36-14.781 34.346-25.678 50.501l6.187 7.95c15.928-17.765 27.568-39.505 33.22-63.626m-253.646 58.878l4.586-8.487-25.596-48.203-8.033-1.692c5.18 21.724 15.263 41.609 29.043 58.382M427.765 131.05l5.995-8.923a145.63 145.63 0 0 0-32.157-4.665 145.403 145.403 0 0 0-35.072 3.096l5.018 8.646zm-.078 3.223l-56.266-1.846-25.418 34.907 24.725 41.322 55 1.805 26.295-41.326zm68.246 215.828c10.857-16.043 19.123-31.876 25.538-50.104-5.524-9.917-10.578-20.503-15.348-30.786a559.309 559.309 0 0 1-5.969-13.294l-45.645 8.63-29.149 47.58 24.29 47.426a410.4 410.4 0 0 0 46.283-9.452m-229.298-53.16l25.524 48.067 45.153 10.855 28.323-45.234-27.202-49.752-49.144-7.04c-6.51 14.885-14.216 29.227-22.654 43.103m73.8 60.01c16.363 14.088 34.217 26.34 53.564 35.968 18.577-9.03 36.105-19.821 52.611-32.226l-23.934-46.734-54.208-1.778zM499.925 252.68c3.541-19.404 3.42-38.829 2.364-58.452-15.273-9.884-30.46-16.987-47.293-23.76l-26.532 41.697 25.836 49.14zM343.24 168.996c-18.054 5.95-35.581 13.447-52.185 22.721-2.33 19.56-3.235 39.26-1.473 58.907l49.101 7.033 29.143-47.572zm25.19 139.958l54.007 1.772 29.17-47.616-25.985-49.425-55.112-1.81-29.17 47.616z" fill="#231f20"/><path d="M187.534 548.852c70.844 46.626 142.327 68.841 212.625 68.521 35.078-.159 69.71-4.202 104.258-14.43 39.155-11.592 78.202-31.13 117.667-61.967 4.319-2.656 9.158-2.334 11.55.724l26.941 34.798c-4.163.41-10.023 2.955-12.62 5.023-83.221 66.269-165.532 86.44-247.796 86.435-99.684-.006-155.357-21.75-238.952-76.417-4.127-2.699-10.184-4.701-14.837-4.26l27.559-34.902c3.41-4.212 8.884-6.489 13.605-3.525m70.165 116.036l6.75-11.857c-15.7-6.377-31.488-12.806-47.6-21.292-19.442-10.24-38.08-22.55-59.705-36.015-4.71-2.933-10.529-3.162-12.557.038-1.275 2.01-.417 6.687 4.607 10.549 10.975 8.43 31.993 18.71 49.246 26.332 21.493 9.495 47.87 19.807 59.259 32.245" fill="#ee392f"/><path d="M557.355 655.436l-5.205-10.066c15.814-5.97 28.14-13.081 44.142-21.752 19.577-10.607 35.407-21.858 56.106-38.307 4.335-3.444 10.301-4.093 12.533-1.026 1.403 1.926.998 5.126-3.345 9.711-6.326 6.679-14.382 11.11-22.807 15.745-16.084 8.85-34.266 15.99-49.583 23.952-4.744 2.465-9.225 4.978-13.478 7.65-6.635 4.17-13.701 9.141-18.363 14.093" fill="#ee392f"/></g><path d="M155.001 430.486h25.48l11.117 41.368 11.118-41.368h25.48l3.538 64.503H213.08l-1.852-41.85-13.222 41.85H185.19l-13.217-41.548-1.857 41.548h-18.654zm162.752 0h19.41v23.222h21.48v-23.222h19.409v64.503h-19.409v-25.8h-21.48v25.8h-19.41zm89.883 15.48h-18.372v-15.48h56.154v15.48h-18.373v49.023h-19.409zm59.459-15.48h22.623l22.624 64.503h-20.07l-2.727-8.774-22.297.001-2.798 8.773h-20.07zm3.641 41.923h15.341l-7.67-25.52zm139.809-41.923h22.623l22.624 64.503h-20.07l-2.728-8.774-22.296.001-2.799 8.773h-20.068zm3.642 41.923h15.34l-7.67-25.52zm-94.34-41.923h19.409v23.222h21.48v-23.222h19.41v64.503h-19.41v-25.8h-21.48v25.8h-19.409zM351.761 593.324l15.851-21.966c-14.802.436-23.682-8.102-23.371-22.383.274-12.704 10.495-23.622 25.007-23.622 14.625 0 25.285 11.295 25.837 24.172.366 8.572-2.632 14.3-7.305 21.348l-15.204 22.451zm10.143-43.712c0 5.279 3.396 8.384 7.185 8.521s7.366-3.176 7.366-8.52c0-5.347-3.55-8.751-7.09-8.89-3.54-.14-7.46 3.61-7.46 8.89m88.126 43.711h-51.574c7.014-8.591 26.82-30.07 29.211-42.147.604-3.05.09-6.44-2.939-8.255-1.372-.824-3.065-1.223-5.325-1.095-5.473.308-12.305 4.237-18.149 9.808l.05-17.63c3.872-3.744 13.335-8.652 21.212-8.652 15.045 0 24.17 6.937 25.16 20.27.86 11.568-11.37 25.162-17.93 33.044h20.284zm22.355-51.297H461.85l3.93-15.322h25.413v66.62h-18.807zm-168.21 0h-10.535l3.93-15.322h25.413v66.62h-18.808zm-79.722 57.803c-1.94 3.365-4.677 5.489-8.205 6.373s-7.048.312-10.557-1.714l-2.18 3.776-4.973-2.872 2.18-3.776c-3.51-2.026-5.764-4.787-6.764-8.286-.997-3.497-.525-6.928 1.417-10.292 1.942-3.365 4.678-5.49 8.206-6.374 3.527-.883 7.046-.312 10.557 1.714l1.949-3.376 4.974 2.872-1.949 3.376c3.51 2.027 5.764 4.79 6.763 8.285.998 3.499.526 6.928-1.418 10.294m-4.973-2.872c1.09-1.888 1.376-3.836.859-5.847-.55-2.124-1.89-3.801-4.019-5.03l-7.84 13.58c2.154 1.242 4.25 1.58 6.288 1.015 2.038-.566 3.608-1.806 4.712-3.718m-15.974-.17l7.84-13.58q-3.232-1.865-6.288-1.015c-2.037.566-3.61 1.805-4.713 3.717-1.09 1.888-1.368 3.866-.835 5.933s1.865 3.715 3.996 4.945m61.409 5.335l-25.449 22.63-5.745-2.557 6.537-5.718-1.464-25.984 6.359 2.829.75 18.417 13.268-12.174zm22.586 13.687l-5.43-1.869-8.286 24.062-5.43-1.87 8.285-24.062-5.43-1.871 1.814-5.272 16.293 5.61zm26.627 23.716c-.684 2.738-2.16 4.733-4.43 5.981-2.27 1.25-4.883 1.504-7.839.768l-10.373-2.587 7.506-30.103 17.574 4.381-1.35 5.41-12-2.991-1.542 6.184 4.8 1.196c3.201.798 5.453 2.246 6.76 4.344s1.605 4.569.894 7.417m-5.573-1.39c.236-.949.155-1.834-.246-2.654-.55-1.145-1.596-1.91-3.143-2.296l-4.841-1.208-1.917 7.69 4.84 1.207c1.438.357 2.617.248 3.54-.328.92-.577 1.51-1.381 1.767-2.41m49.89 3.197c-.627 4.457-2.714 8.009-6.261 10.658-3.547 2.648-7.604 3.652-12.172 3.01-4.567-.642-8.19-2.726-10.87-6.248-2.68-3.524-3.707-7.515-3.08-11.97.629-4.486 2.72-8.065 6.271-10.742 3.55-2.676 7.61-3.693 12.179-3.05 4.566.64 8.188 2.738 10.863 6.289 2.676 3.552 3.7 7.569 3.07 12.053m-5.67-.924c.405-2.879-.254-5.476-1.975-7.792-1.72-2.317-4.076-3.685-7.066-4.105-3.017-.424-5.663.234-7.94 1.974-2.277 1.742-3.62 4.064-4.027 6.97-.412 2.936.248 5.567 1.98 7.9 1.733 2.333 4.065 3.705 7 4.117 3.015.424 5.674-.254 7.97-2.034 2.297-1.781 3.65-4.124 4.057-7.03m45.06 17.887l-6.326-.222-7.659-23.34-9.269 22.75-6.326-.22 13.358-30.579 5.03.176zm29.844-1.225l-16.623.872-1.624-30.982 16.623-.872.292 5.568-10.887.57.376 7.16 10.425-.546.292 5.568-10.425.546.372 7.118 10.887-.57zm38.33-4.177l-5.711.601-1.359-12.927-11.258 1.183 1.358 12.927-5.711.6-3.244-30.855 5.713-.6 1.301 12.383 11.259-1.184-1.302-12.383 5.712-.6zm61.336-14.3l-6.64 1.78-12.831-10.625 3.516 13.121-5.55 1.487-8.028-29.969 5.547-1.486 3.483 13 5.832-15.495 6.641-1.781-7.35 17.769zm38.029-14.693l-5.91 2.268-16.17-18.493.356 24.562-5.91 2.27.35-33.366 4.696-1.804zm18.325-44.537l2.164 33.988-5.554 2.952-.478-8.672-21.378-14.845 6.144-3.266 14.974 10.746-1.425-17.95zm37.315 1.177c1.537 2.367 1.988 4.807 1.354 7.318-.636 2.512-2.232 4.598-4.786 6.258l-8.967 5.822-16.896-26.02 15.19-9.864 3.036 4.676-10.372 6.737 3.47 5.344 4.15-2.694c2.765-1.797 5.361-2.457 7.785-1.984 2.425.476 4.437 1.944 6.036 4.407m-4.817 3.128c-.534-.821-1.236-1.365-2.11-1.63-1.212-.38-2.486-.135-3.822.733l-4.185 2.716 4.317 6.647 4.184-2.718c1.242-.807 1.966-1.744 2.173-2.81.207-1.069.021-2.047-.557-2.938" fill="#fff"/><path d="M273.473 428.48c18.974 0 34.36 15.388 34.36 34.362 0 18.973-15.386 34.36-34.36 34.36s-34.36-15.387-34.36-34.36c0-18.974 15.386-34.362 34.36-34.362m0 18.479c8.77 0 15.884 7.112 15.884 15.883 0 8.77-7.113 15.883-15.884 15.883s-15.882-7.112-15.882-15.883c0-8.771 7.112-15.883 15.882-15.883" fill="#fff" fill-rule="evenodd"/></svg>