<svg xmlns="http://www.w3.org/2000/svg" id="Layer_1" data-name="Layer 1" viewBox="3.66 29.66 792.71 740.68"><defs><style>.cls-1{fill:#fff}.cls-3{fill:#aa182c}</style></defs><g id="TOR-Logo"><path d="M742.36 453.85V429.1s-15.18-3.37-40.37-8l10.25-37.55s-25.4-8.29-73.33-17V182.11s-47.21-8.38-115.33-14.19L536 128.35l-43.55-31.67-9.32-28.42-15.21 10.95 5.8-17.84h-30.09L400 29.66l-43.65 31.71h-30.08L332 79.21l-15.14-10.95-9.26 28.42-43.6 31.67 12.45 39.57c-68.18 5.81-115.3 14.19-115.3 14.19v184.4c-47.9 8.71-73.41 17-73.41 17l10.37 37.55c-25.29 4.67-40.45 8-40.45 8v24.75l-54 57.56 54 38.24v30.68s42.62-8.16 103.83-16.54C171.88 707.5 400 770.34 400 770.34s228.12-62.84 238.5-206.55c61.23 8.38 103.87 16.54 103.87 16.54v-30.68l54-38.24Zm-469-102.05c-19.26 1.61-37.12 3.47-53.62 5.7L246 323.44c9.18-.83 18.23-1.66 27.34-2.56Zm-39.85-38.22-22.08 31.29v-86.19C252.79 253.29 323.1 246 400 246s147.25 7.31 188.55 12.7v86.19l-22-31.29c-33.7-3.91-78.88-8-128.68-9.49v42.84c-12.26-.26-24.91-.44-37.88-.44s-25.67.18-37.91.44v-42.86c-49.84 1.49-95 5.58-128.56 9.49m293.09 7.3c9.06.9 18.19 1.73 27.33 2.56l26.24 34.06c-16.46-2.23-34.32-4.09-53.57-5.7Zm-111-87.9 32.84-24c99.64 3.74 178.6 16.94 178.6 16.94v138.46c-7.67-1.32-15.94-2.75-24.6-3.93V247.31c-34-4.66-106.17-13.4-186.84-14.33m-242.7-41s49.18-8.34 119.06-13.64L277.84 133l39.68-28.84 5.58-16.79L354.46 110l-12-36.86h17.65L400 44.27l39.86 28.9h17.64L445.58 110l31.33-22.64 5.51 16.79L522.19 133 508 178.31c69.88 5.3 119.07 13.69 119.07 13.69v22.8s-81.14-13.8-182.79-17.35L400 229.71l-44.34-32.26C254.08 201 172.93 214.8 172.93 214.8Zm0 34S251.8 212.71 351.52 209l32.79 24c-80.66.93-152.91 9.67-186.69 14.33v113.12c-8.75 1.18-17 2.61-24.69 3.93ZM400 358.25c183.49 0 297.92 33.36 297.92 33.36l-14.61 53 14.61 65S583.48 476.27 400 476.27s-297.84 33.35-297.84 33.35l14.56-65-14.56-53S216.49 358.25 400 358.25m238.91 150.57c24.66 4.73 43.56 9 56.15 12.41l-56.15 22.3ZM473.16 547h31.54v7.87h-31.6c-7.34 0-13.4-4.75-13.4-10.66v-12.59c0-6 6.06-10.72 13.4-10.72h31.6V531l-3.43-2.2h-28.11c-2.09 0-3.75 1.15-3.75 2.83v12.63c0 1.47 1.66 2.79 3.75 2.79m42.74 84v31a358 358 0 0 1-41.7 25.38l-25-20.71A395.6 395.6 0 0 0 515.9 631m-52.63 62A570 570 0 0 1 400 719.55a537 537 0 0 1-63.21-26.5l25.3-21V488.51c12.34-.27 24.91-.37 37.91-.37s25.62.1 37.88.37V672ZM211.44 524v-23.26c18.84-2.73 39.39-5.14 61.93-7.1v110.14s-56.5-39.69-61.93-79.8m61.93 99.68v30.52c-32.23-24.7-58.38-55.81-61.53-92.9 9 14.14 27.48 37.68 61.53 62.38M333 534.09v7.66h-26v10.36l3.2 2.8h-15.79l3.1-2.8v-28.49l-3.1-2.72h46.67V531l-3.36-2.2h-30.63v5.3ZM284.1 631a396.7 396.7 0 0 0 66.74 35.65l-25 20.71A353.5 353.5 0 0 1 284.1 662Zm242.51-7.35c34.06-24.7 52.53-48.24 61.59-62.38-3.24 37.09-29.29 68.2-61.59 92.9Zm0-19.88V493.64c22.6 2 43.15 4.37 61.93 7.1V524c-5.39 40.11-61.93 79.8-61.93 79.8M161.1 543.53l-56.21-22.3c12.66-3.37 31.54-7.68 56.21-12.41Zm-91.67 22.61V543.7l-48.05-34.08 48.05-51v-19.9s11.76-2.61 31.68-6.27l3.44 12.49-18.28 81.56 66.6 26.5c-50 7-83.44 13.15-83.44 13.15m557.64-12.55C627.07 693 400 758.12 400 758.12S172.93 693 172.93 553.59V506.8c7.72-1.45 15.94-2.9 24.69-4.11v50.9c0 106.84 166.51 167 202.37 178.62 35.78-11.59 202.48-71.78 202.48-178.62v-50.9c8.66 1.21 16.93 2.66 24.6 4.11Zm103.54-9.89v22.44S697.14 560 647.22 553l66.55-26.49-18.31-81.57 3.43-12.49c19.87 3.66 31.72 6.27 31.72 6.27v19.9l47.95 51Z" class="cls-1"/><path d="m331.96 121.48-27.85 20.03 11.33 35.05 33.45-1.72 10.83-33.33zm85.21 3.25 10.63-32.65-27.79-20.05-27.87 20.05 10.58 32.65zm67.34 51.82 11.4-35.03-27.85-20.05-27.86 20.05 10.85 33.32zm-56.71 5.19-10.63-32.64h-34.45l-10.59 32.64 27.88 20.16zM380 444.27h33a15.07 15.07 0 0 0 14.88-15v-30.08a15.06 15.06 0 0 0-14.88-15h-33a15.11 15.11 0 0 0-15.06 15v30.11a15.12 15.12 0 0 0 15.06 15m-2.63-45.19a3 3 0 0 1 3.11-3h31.92a3.14 3.14 0 0 1 3.26 3v30.27a3.23 3.23 0 0 1-3.26 3.13h-31.95a3.12 3.12 0 0 1-3.11-3.13Zm232.49 60.57 33 5.61c8.3 1.41 15-4.28 15-12.5V423c0-8.24-6.74-16.09-15-17.44l-33-5.54c-8.22-1.48-15 4-15 12.35V442a18.55 18.55 0 0 0 15 17.65m-2.57-45.43a2.43 2.43 0 0 1 3-2.49l32 5.42a3.88 3.88 0 0 1 3.1 3.65v30.05a2.57 2.57 0 0 1-3.1 2.68l-32-5.54a3.91 3.91 0 0 1-3-3.63ZM223.35 455l33-3.88c8.16-.93 14.9-8.38 14.9-16.53v-29.85c0-8.15-6.74-14-14.9-13.13l-33 3.77c-8.27.93-15 8.31-15 16.55v29.78c0 8.32 6.76 14.15 15 13.33m-2.56-44.62a3.54 3.54 0 0 1 3.05-3.48l32-3.65a2.66 2.66 0 0 1 3 2.78v30a3.57 3.57 0 0 1-3 3.5l-32 3.71a2.74 2.74 0 0 1-3.05-2.94Zm-60.52 6.77v42.65l-4.93 5.84 22.29-4.08-5.04-4.06v-42.7l20.46-3.42 4.85 4.04V398.7l-62.89 11.24v16.57l4.9-5.69zm386.51-13.28v42.78l-4.91 4.34 22.14 2.42-4.83-5.43v-42.7l20.34 2.2 4.89 5.51v-16.72l-62.9-6.77v16.67l4.88-4.46zM438.3 444.69l22.31.74-5.06-5.24v-38.04l34.75 44.74 20.74 1.38-4.83-4.96v-49.95l4.83-4.65-22.16-1.63 4.95 5.26v38.52l-34.65-45.1-20.88-.74 4.88 5.22v49.68zM281.74 449l22.2-1.71-4.94-4.58v-13.16l35.11-1.87a2.85 2.85 0 0 1 3.13 2.94v9.85l-4.9 5.2 22.11-.74-4.83-4.74v-9.47a10.49 10.49 0 0 0-7.14-10.06 12.27 12.27 0 0 0 7.14-10.73v-9.85a13.94 13.94 0 0 0-15-14l-52.91 3.25 4.93 4.59v49.87ZM299 399.64l35.11-1.95a2.89 2.89 0 0 1 3.13 3v11.88a3.54 3.54 0 0 1-3.13 3.45l-35.11 1.9Z" class="cls-1"/><path d="M273.36 320.88c-9.1.9-18.15 1.73-27.33 2.56l-26.3 34.06c16.52-2.23 34.38-4.09 53.63-5.7ZM211.44 524c5.43 40.11 61.92 79.8 61.92 79.8V493.64c-22.53 2-43.08 4.37-61.92 7.1Zm72.66 138a352 352 0 0 0 41.75 25.38l25-20.72A396 396 0 0 1 284.1 631Zm269.84-338.56c-9.14-.83-18.26-1.66-27.33-2.56v30.92c19.25 1.62 37.09 3.47 53.58 5.71Zm-27.33 280.34s56.54-39.69 61.93-79.8v-23.24c-18.78-2.71-39.33-5.14-61.93-7.11Zm-52.41 83.59A358 358 0 0 0 515.9 662v-31a395.3 395.3 0 0 1-66.72 35.64Zm-89.81-281.1a3.25 3.25 0 0 1 3.2-3.22h24v-3h-27.28a3 3 0 0 0-3.06 3v25.62h3.14Zm47.43-7.08v30.11A18.91 18.91 0 0 1 413 448.12h-33a17 17 0 0 1-2.3-.1 14.7 14.7 0 0 0 9.32 3.29h29.14A18.88 18.88 0 0 0 435 432.48v-26.19a13.92 13.92 0 0 0-3.34-9.16c0 .56.12 1.36.12 2.06m182.63 23.39a2.5 2.5 0 0 1 3.06-2.46l24.07 4.08v-3.14l-27.29-4.75a2.57 2.57 0 0 0-3.08 2.55v25.42l3.24.52Zm47.17-1.13a7.8 7.8 0 0 1 .24 2.37v29.74c0 10.31-8.55 17.43-19 15.63l-33-5.51c-.77-.25-1.46-.45-2.23-.69a17.23 17.23 0 0 0 9.35 4.92l29.12 5c10.41 1.82 18.87-5.2 18.87-15.39v-26.08a17 17 0 0 0-3.39-10m-436.86-7.53v25.3l3.15-.29v-22.13a3.51 3.51 0 0 1 3.17-3.48l24-2.75v-3.23l-27.24 3.09a3.62 3.62 0 0 0-3.09 3.49m50.5-9.62v29.85c0 10.4-8.48 20-18.8 20.94l-33 3.89a20 20 0 0 1-2.32.09 13 13 0 0 0 9.43 2.2l29.1-3.23c10.5-1.19 18.89-10.59 18.89-20.95v-25.86a13.7 13.7 0 0 0-3.31-9.07v2.14m-133.01 28.19 4.86-5.87 9.31-1.61v-3.21l-14.17 2.41zm34.36-14.23v37.1l3.27 2.61v-37.14l14.84-2.57-3.24-2.69zm25.36.37 3.2 2.65v-16.64l-3.2.7zm-36.17 48.97-3.2 3.82 22.16-3.88-3.23-2.59zm367.93-57.95 9.28 1.08v-3.24l-14.27-1.57v8.11zm44.25 1.61-14.75-1.71v37.24l3.2 3.66v-37.13l14.83 1.47zm10.56 5.94 3.15 3.63v-16.56l-3.15-.41zm-39.37 41.78 22.19 2.3-3.24-3.53-15.77-1.65zm-54.26-7.81 2.64 3.29 20.75 1.41-3.15-3.42zm15.31-9.31 3.17 3.25v-44.18l4.91-4.61-8.08-.56zm-45.68 7.69-15.74-.37-3.29 2.97 22.24.8zm-1.72-31.91-3.18-4.25v25.53l3.18 3.29zm-105.98 23.83v-4a10.64 10.64 0 0 0-3.21-7.69v8.73Zm-50.58-5.01 27.13-1.56v-3.24L303 433.3v7.46l3.16 3.14zm1.69 14.58-15.72 1.32-3.21 3.38 22.15-1.58zm41.48-30.81a26 26 0 0 1 1.62 2.07 12.09 12.09 0 0 0 5.79-10.14v-5.34a13.82 13.82 0 0 0-3.34-9.12 11.6 11.6 0 0 1 .13 2.19v9.66a16.2 16.2 0 0 1-4.2 10.68m-43.17-13.93 27.13-1.55v-3.04L303 403.29v10.4l3.16-.22zm36.51 42.83-3.18 3.32 22.21-.8-3.19-3.07z" fill="#a2a9ad"/><path d="M730.61 458.61V438.7s-11.85-2.6-31.72-6.26l-3.43 12.5 18.31 81.55L647.22 553c49.92 7 83.39 13.15 83.39 13.15V543.7l47.95-34.08Zm-626.06-13.68-3.44-12.49c-19.92 3.66-31.68 6.27-31.68 6.27v19.9l-48 51 48 34.08v22.44S102.86 560 152.87 553l-66.6-26.5Zm93.07-197.62c33.78-4.66 106-13.4 186.69-14.33l-32.79-24c-99.72 3.75-178.59 16.95-178.59 16.95v138.45c7.72-1.32 15.94-2.75 24.69-3.93Zm429.45 117.06V225.92s-79-13.21-178.6-16.95l-32.84 24c80.67.93 152.89 9.67 186.83 14.33v113.15c8.67 1.18 16.94 2.61 24.61 3.92m-24.6 189.22c0 106.84-166.7 167-202.48 178.62-35.86-11.59-202.37-71.78-202.37-178.62v-50.9c-8.75 1.22-17 2.66-24.7 4.11v46.79C172.92 693 400 758.12 400 758.12S627.08 693 627.08 553.59V506.8c-7.68-1.45-16-2.89-24.61-4.11Z" class="cls-3"/><path d="m400 229.71 44.29-32.26c101.65 3.51 182.8 17.35 182.8 17.35v-22.86s-49.2-8.32-119.12-13.63L522.19 133l-39.77-28.84-5.52-16.77L445.58 110l11.91-36.88h-17.65L400 44.28l-39.87 28.88h-17.64l12 36.88-31.39-22.65-5.58 16.79L277.84 133 292 178.31c-69.88 5.31-119.07 13.63-119.07 13.63v22.86s81.15-13.8 182.73-17.35Zm68.07-108.24 27.85 20.05-11.4 35-33.46-1.71-10.86-33.29ZM400 72l27.81 20-10.63 32.66h-34.47l-10.58-32.58Zm-17.28 77.08h34.46l10.63 32.63L400 201.9l-27.86-20.16Zm-67.27 27.44-11.33-35L332 121.47l27.76 20.05-10.85 33.32ZM610.31 448l32 5.54a2.57 2.57 0 0 0 3.1-2.68v-30.03a3.87 3.87 0 0 0-3.1-3.64l-32-5.44a2.44 2.44 0 0 0-3 2.5v30.15a3.89 3.89 0 0 0 3 3.62m.86-29.16a2.59 2.59 0 0 1 3.08-2.56l27.28 4.76v3.13l-24.06-4.06a2.48 2.48 0 0 0-3.05 2.46v22.2l-3.25-.51Z" class="cls-3"/><path d="M102.15 509.62S216.48 476.27 400 476.27s297.9 33.35 297.9 33.35l-14.6-65 14.6-53S583.48 358.25 400 358.25s-297.84 33.36-297.84 33.36l14.56 53Zm40-77.14v-8.28l14.17-2.41V425l-9.32 1.61Zm20.33 38.93 3.21-3.82 15.76-2.59 3.21 2.58Zm17.29-50.58V458l-3.25-2.61v-37.1l14.87-2.69 3.23 2.69Zm109.15 34.9 3.21-3.38 15.72-1.35 3.22 3.12Zm17.24-11.83-3.16-3.15v-7.45l30.3-1.65v3.24l-27.13 1.56Zm139.25 8.24 3.29-3 15.74.37 3.21 3.4Zm17.31-9.94-3.18-3.28v-25.54l3.18 4.25Zm34.73 12.25-2.64-3.29 20.24 1.28 3.15 3.42Zm31.2-40.45v-8.11l14.26 1.57v3.24l-9.27-1.08Zm20.42 45 3.18-2.9 15.75 1.65 3.23 3.52Zm17.26-45.67v37.12l-3.2-3.64v-37.26l14.74 1.7 3.29 3.53ZM665 431.44v26.05c0 10.19-8.44 17.21-18.85 15.39l-29.12-5a17.25 17.25 0 0 1-9.36-4.93c.79.25 1.47.45 2.23.7l33 5.51c10.45 1.8 19-5.32 19-15.64v-29.7a7.8 7.8 0 0 0-.24-2.37 16.92 16.92 0 0 1 3.37 10m-70.09-19c0-8.34 6.78-13.84 15-12.36l33 5.54c8.3 1.36 15 9.2 15 17.43v29.78c0 8.21-6.74 13.92-15 12.5l-33-5.6a18.57 18.57 0 0 1-15-17.67Zm-6.42-8.55 3.15.41v16.57l-3.15-3.64Zm-66.93-14.31 62.9 6.77V413l-4.89-5.51-20.34-2.2V448l4.83 5.44-22.23-2.44 4.93-4.34v-42.75l-20.4-2.17-4.88 4.47Zm-8.22 11.38v44.13l-3.17-3.25v-46.09l8.08.55Zm-75-15.9 20.89.74 34.65 45.1v-38.57l-4.95-5.25 22.17 1.63-4.83 4.64v49.95l4.83 4.95-20.77-1.37-34.73-44.74v38l5 5.25-22.3-.73 4.88-4.78v-49.65ZM435 406.29v26.19a18.89 18.89 0 0 1-18.91 18.84H387a14.65 14.65 0 0 1-9.32-3.31 17 17 0 0 0 2.3.1h33a18.9 18.9 0 0 0 18.87-18.81v-30.11c0-.7-.12-1.5-.12-2.05a13.88 13.88 0 0 1 3.34 9.15m-70.13-7.1a15.11 15.11 0 0 1 15.06-15h33a15.06 15.06 0 0 1 14.89 15v30.11a15.08 15.08 0 0 1-14.89 15h-33a15.13 15.13 0 0 1-15.06-15Zm-3.2 52.46-22.22.79 3.18-3.32 15.84-.56Zm-8.18-21.91a10.66 10.66 0 0 1 3.21 7.69v4l-3.21-3v-8.73Zm3.21-22.93v5.34a12.09 12.09 0 0 1-5.77 10.14 24 24 0 0 0-1.62-2.07 16.2 16.2 0 0 0 4.2-10.67v-9.67a11.6 11.6 0 0 0-.13-2.19 13.82 13.82 0 0 1 3.34 9.12m-75-17.52 52.92-3.23a13.92 13.92 0 0 1 15 14v9.86a12.26 12.26 0 0 1-7.13 10.72 10.48 10.48 0 0 1 7.13 10.06v9.46l4.84 4.75-22.11.75 4.91-5.21v-9.85a2.87 2.87 0 0 0-3.15-2.94l-35.2 1.89v13.17l4.93 4.57-22.2 1.71 4.94-5.24v-49.87Zm-3.28 21.93v25.86c0 10.36-8.39 19.77-18.89 20.95l-29.1 3.24a13.12 13.12 0 0 1-9.43-2.21 22 22 0 0 0 2.31-.08l33-3.9c10.32-.93 18.8-10.53 18.8-20.95v-31.98a13.68 13.68 0 0 1 3.3 9.07m-70.13.71c0-8.24 6.76-15.62 15-16.55l33-3.77c8.16-.84 14.9 5 14.9 13.13v29.89c0 8.15-6.74 15.6-14.9 16.53l-33 3.89c-8.26.81-15-5-15-13.35Zm-6.45-6.61 3.2-.69v16.64l-3.2-2.65ZM135 409.94l62.9-11.24v16.76l-4.85-4-20.46 3.42v42.7l5 4.06-22.29 4.08 4.93-5.84v-42.69l-20.37 3.64-4.86 5.68Z" class="cls-3"/><path d="M337.26 412.56v-11.89a2.91 2.91 0 0 0-3.15-3L299 399.64v18.29l35.11-1.93a3.56 3.56 0 0 0 3.15-3.45m-4-7.82-27.13 1.55v7.18l-3.17.22v-10.41l30.3-1.57Zm-109.42 38.58 32-3.71a3.57 3.57 0 0 0 3-3.5v-30a2.68 2.68 0 0 0-3-2.8l-32 3.66a3.56 3.56 0 0 0-3.05 3.49v29.95a2.74 2.74 0 0 0 3.05 2.94m.84-29.4a3.62 3.62 0 0 1 3.09-3.49l27.23-3.12v3.23l-24 2.75a3.51 3.51 0 0 0-3.17 3.48v22.13l-3.15.29Zm155.77 18.54h31.91a3.23 3.23 0 0 0 3.27-3.12v-30.29a3.14 3.14 0 0 0-3.27-3h-31.91a3 3 0 0 0-3.11 3v30.29a3.12 3.12 0 0 0 3.11 3.12m.8-29.45a3 3 0 0 1 3.06-3h27.32v3h-24a3.25 3.25 0 0 0-3.2 3.22v22.38h-3.14Zm-43.53 125.75 3.36 2.21v-10.1h-46.67l3.1 2.73v28.49l-3.1 2.8h15.88l-3.2-2.8v-10.35h25.95v-7.67h-25.95v-5.31zm135.44.01h28.11l3.43 2.2V520.9h-31.6c-7.34 0-13.4 4.78-13.4 10.72v12.63c0 5.91 6.06 10.66 13.4 10.66h31.6V547h-31.54c-2.09 0-3.75-1.33-3.75-2.79v-12.59c0-1.68 1.66-2.83 3.75-2.83" class="cls-3"/><path d="M638.91 508.83v34.7l56.15-22.3c-12.59-3.36-31.49-7.68-56.15-12.4m-477.81 34.7v-34.7c-24.67 4.72-43.56 9-56.21 12.4Zm50.74 17.75c3.15 37.09 29.3 68.2 61.52 92.89v-30.5c-34-24.71-52.49-48.25-61.52-62.39m314.77 62.39v30.51c32.3-24.69 58.34-55.82 61.61-92.9-9.08 14.13-27.55 37.67-61.61 62.39M211.44 258.68v86.19l22.08-31.29c33.55-3.91 78.72-8 128.58-9.5v42.85c12.22-.25 24.88-.44 37.89-.44s25.61.19 37.88.44v-42.85c49.8 1.51 95 5.59 128.7 9.5l22 31.29v-86.19C547.24 253.29 476.86 246 400 246s-147.2 7.32-188.55 12.71m226.42 229.8q-18.4-.4-37.86-.38c-13 0-25.59.11-37.91.38V672l-25.32 21A534 534 0 0 0 400 719.55a571 571 0 0 0 63.25-26.5l-25.39-21Z" fill="#323e48"/></g></svg>