<svg xmlns="http://www.w3.org/2000/svg" viewBox="0 0 185.21 185.21"><g transform="translate(-13.23 -13.23)scale(.26458)"><circle cx="400" cy="400" r="350" fill="#c1a567"/><path fill="#00462d" d="M737.5 400c0 186.4-151.1 337.5-337.5 337.5S62.5 586.4 62.5 400 213.6 62.5 400 62.5 737.5 213.6 737.5 400"/></g><path fill="#c1a567" d="M125.2 47.678s-10.106 10.16-32.702 10.186h-.053c-22.595.027-32.702-10.107-32.702-10.107l-2.276 25.056-2.487 31.962s-3.175 22.701 20.453 30.903c6.588 2.276 16.007 7.118 17.065 10.584 1.059-3.466 10.478-8.335 17.066-10.637 23.627-8.228 20.452-30.93 20.452-30.93l-2.54-31.961z"/><path fill="#00462d" d="M92.472 140.309c-5.583-4.684-15.267-8.097-15.796-8.282-8.599-2.99-14.208-8.387-16.695-16.06-1.852-5.715-1.217-10.636-1.217-10.663l.026-.106 2.54-32.067 1.667-18.415C68.58 57.89 78.237 61.7 92.392 61.7h.106c14.208-.027 23.866-3.837 29.475-7.038l1.667 18.388 2.54 32.041.026.106c.106.794 2.329 19.738-17.912 26.776-.556.212-10.24 3.625-15.822 8.335"/><g fill="#fff" fill-rule="evenodd" clip-rule="evenodd"><path d="M112.077 81.571s7.7 8.599 4.79 20.664c-1.535-3.704-2.964-7.54-5.927-9.208 1.746-3.518 1.56-7.46 1.137-11.456m3.625 24.765s-3.89 10.848-15.875 14.076c2.54-3.096 5.213-6.191 5.265-9.605 3.916-.158 7.303-2.196 10.61-4.471m-19.552 15.24s-11.298 2.302-20.268-6.297c3.97.556 7.99 1.243 10.928-.476 2.17 3.28 5.662 5.133 9.34 6.773m-23.495-9.657s-7.488-8.784-4.26-20.797c1.429 3.731 2.751 7.594 5.688 9.34-1.825 3.493-1.772 7.435-1.428 11.457m-3.123-24.66s3.89-10.847 15.902-14.049c-2.54 3.096-5.212 6.191-5.265 9.605-3.943.105-7.33 2.143-10.637 4.445m19.765-14.816s11.298-2.302 20.267 6.297c-3.969-.556-7.99-1.27-10.927.476-2.17-3.28-5.662-5.106-9.34-6.773m3.889 10.582c.926 0 1.826.08 2.699.265-5.345 1.005-9.393 5.688-9.393 11.324 0 6.35 5.16 11.536 11.51 11.536 2.99 0 5.741-1.164 7.778-3.07-2.249 4.71-7.064 7.965-12.594 7.965-7.7 0-13.97-6.297-13.97-13.997 0-7.726 6.27-14.023 13.97-14.023"/><path d="M100.86 91.943s-2.409 3.36-6.06 3.572-4.71-2.593-4.71-2.593.556-.926 1.88-1.773c0 0-1.377-.794-1.694-1.588 0 0 1.27-2.17 3.81-2.01s4.789 1.666 6.773 4.392m.635.952c-1.243 1.006-3.863 3.704-4.048 6.482s.45 3.599.979 4.26c0 0 .9-.264 1.72-1.323 0 0-.106.82.476 1.773 0 0 3.096-1.138 3.307-4.948.212-3.836-2.434-6.244-2.434-6.244m.582-.608s1.932 3.042 3.043 4.63 2.408 2.249 2.275-.37c-.132-2.593-.979-6.51-2.328-6.668-1.376-.159-2.99 2.408-2.99 2.408m-.635-1.059c.873-.767 1.614-2.01 1.403-2.91s-.53-2.778-4.313-4.498c0 0-.027.344.026.661 0 0-1.085-.9-1.878-.9-.185 1.033 0 1.985.582 2.938.608.952 4.18 4.71 4.18 4.71"/></g><path fill="#b5a05f" d="M44.45 100.568h5.9l1.482-15.848H11.245l2.804 7.91-2.804 7.938h3.122zm96.308 0h-5.9l-1.482-15.848h40.588l-2.805 7.91 2.805 7.938h-3.123z"/><path fill="#00462d" d="M27.966 87.947v9.525h-1.534V89.43h-1.455l1.534-1.482zm7.62 0h-3.042l-1.27 1.218-.053.052v3.123l1.27 1.217.053.053h2.804v2.38H31.01l1.535 1.482h3.016l1.323-1.27v-6.985zm-.238 4.154h-2.593V89.43h2.593zm114.274-4.154h-3.043l-1.27 1.218-.053.052v3.123l1.27 1.217.053.053h2.805v2.38h-4.34l1.535 1.482h3.016l1.323-1.27v-6.985zm-.238 4.154h-2.593V89.43h2.593zm10.345-3.016-1.032-1.138H155.1l-1.032 1.138v3.096l.503.529-.503.53v3.095l1.032 1.137h3.598l1.032-1.137v-3.07l-.503-.529.503-.529zm-1.376 7.223h-2.91v-3.016h2.91zm0-4.207h-2.91v-3.016h2.91z"/><path fill="#c1a567" d="m35.48 40.72 6.033-5.53 2.514 14.79 2.328 2.54 9.022-8.308-2.328-2.514-6.033 5.53-2.645-14.684-2.329-2.54-8.89 8.202zm18.812-9.526-3.968-6.879-3.096 1.8 9.737 16.827 3.095-1.773-3.968-6.879 4.339-2.487 3.942 6.853 3.096-1.773-9.71-16.854-3.096 1.773 3.969 6.905zm21.299-8.864-5.662 1.747-1.375-4.604 8.466-2.328-.9-3.307-11.853 3.28 5.61 18.733 11.615-3.307-.926-3.334-8.388 2.328-1.243-4.154 5.688-1.772zm6.641 7.647-.052-1.005 7.831-.476-.794-16.299 3.44-.106.926 17.198a245 245 0 0 0-2.434 2.673l-6.482.264c-.98-.873-1.508-1.376-2.435-2.249m14.929 2.07 1.923-19.564 3.423.336-1.923 19.564zm19.07 4.201-.052-20.452-3.07-.82L102.182 32.2l3.572.873 2.54-4.207 4.577 1.35-.026 4.788zm-6.27-10.16 2.91-4.842-.026 5.689zm16.827-6.298 2.461 1.509-.397 12.356 5.318-9.604 3.043 1.72-9.604 16.721-2.54-1.323.476-12.541-5.398 9.684-2.99-1.8zm16.59 15.056 6.191 5.847.608-.662c-.052-1.349-.052-2.09-.105-3.44l-5.292-5c-1.296.027-2.01.053-3.307.08l-10.054 10.556c.026 1.403.052 2.197.079 3.599l3.148 3.043c1.112-.027 1.72-.053 2.831-.08 0 0 .133 1.879.239 3.122l.74.688 7.568-8.096-2.54-2.328-4.948 5.291-3.784-3.519zM50.985 144.304l-3.413-3.07-1.72 1.906 2.302 2.063-1.296 1.43-2.302-2.065-2.831 3.149-1.455-1.297 7.09-7.831 4.869 4.365zm.555 11.059-3.254-2.302-.344-1.825 4.551-6.377 1.852-.29 3.255 2.301.344 1.826-4.551 6.376zm4.525-7.382-2.275-1.614-3.943 5.557 2.276 1.614zm4.525 12.409-3.572-1.772-.609-1.773 3.493-6.985 1.772-.582 3.572 1.773.609 1.772-3.493 6.985zm3.307-7.99-2.487-1.244-3.043 6.086 2.487 1.243zm9.737 3.942-2.593-.9-2.884 8.176-1.826-.635 2.884-8.175-2.62-.9.61-1.72 7.01 2.434zm5.291 10.372-5.239-1.005 2.038-10.478 5.238 1.005 1.059 1.561-.582 3.043-.98.662.662.979-.608 3.201zm1.085-8.784-2.725-.53-.476 2.435 2.725.529zm-.82 4.26-2.725-.53-.503 2.593 2.725.53zm65.59-16.008-3.757 3.784-7.514-7.594 3.757-3.757h1.878l2.17 2.196v1.19h1.19l2.302 2.303zm-6.641-5.847-1.958 1.958 1.746 1.773 1.958-1.958zm3.043 3.07-1.958 1.957 1.878 1.879 1.958-1.958zm-52.388 24.394-.555-2.62-2.673-.185-.873 2.514-1.931-.133 3.836-10.239 1.773.132 2.302 10.663zm-1.534-7.567L86.2 163.3l1.667.106zm5.926 7.488-.211-10.346 1.957-.053.16 8.546 4.365-.106.026 1.8zm9.314-.636-1.456-10.239 1.958-.291 1.19 8.467 4.314-.635.264 1.772zm21.775-6.35-4.763-9.18 1.747-.927 3.942 7.594 3.863-2.011.82 1.587zm-4.207 1.773-3.572 1.35-1.72-.768-2.804-7.435.793-1.72 3.572-1.349 1.72.767.185.477-4.26 1.614 2.435 6.482 4.26-1.614.185.476zm16.642-9.367-3.228 2.303-1.852-.318-5.318-7.54 1.588-1.112 5.027 7.118 2.249-1.614-5.027-7.118 1.587-1.11 5.318 7.54z"/></svg>