<svg xmlns="http://www.w3.org/2000/svg" id="Capa_1" data-name="Capa 1" viewBox="0.02 -0.01 32.98 47.76"><defs><style>.cls-3{fill:#fff}.cls-4{fill:#00953b}</style></defs><g clip-path="url(#clip-path)"><path d="M0 0h126.23v51.28H0z" fill="none"/><path d="M32 12.24h-1.86V7.3a1 1 0 0 1 .13-.51 5.45 5.45 0 0 0 .83-3.54 17 17 0 0 1 0-2.26 1 1 0 0 0-.51-1h-7.7a1 1 0 0 0-.5 1v1.55h-1.63V1a1 1 0 0 0-.5-1h-7.57a1 1 0 0 0-.5 1v1.54h-1.62V.99a1 1 0 0 0-.51-1H2.42a1 1 0 0 0-.51 1v3.79a1.2 1.2 0 0 0 .15.64 5.44 5.44 0 0 1 .83 3.48c-.07 1 0 2 0 3v.38H1.02a1 1 0 0 0-1 .51V41.5a1.15 1.15 0 0 0 .72.57L16 47.61c.1 0 .21.1.31.14h.44c.5-.2 1-.4 1.5-.58l14-5.1a1.2 1.2 0 0 0 .75-.57V12.75a1 1 0 0 0-1-.51m.32 29.13l-15.85 5.75L.68 41.37V12.93h2.87V6.8L2.6 4.89V.63h7.22v2.61h3.09V.63h7.14v2.61h3.08V.63h7.23v4.26l-.95 1.9v6.13h2.87z" class="cls-3"/><path d="M4.94 6.61H28v-.05l1-1.77V2h-4.48v2.6h-5.89V2h-4.31v2.6H8.43V2H4v2.79l1 1.78zM2.26 40.27l14.21 5.17 14.23-5.17V14.5H2.26zm26.43 0H7.1l21.59-23.13zm-.77-23.47L6 40.32h-.8L27.08 16.8zm-23.47 0H26L15.86 27.7l-4.37-6.33-1.55-2.25H8.22v11.31H10V29h4.72L4.45 40zM13 27.15h-3v-4.52l1.5 2.26z" class="cls-3"/><path d="M9.56 39.25h18V19.72l-7.66 8.33h.33l3.45 5v-5h2.23v9.57H24l-4.48-6.53v6.53h-2.2V30.8zM28 7.35H5V8.6h23zM4.94 11.91v.91H8.2v-.91zM8.2 9.5H4.94v.92H8.2zm.05 1.19h3.26v.91H8.25zm6.51 2.12v-.9H11.5v.91h3.26zM11.51 9.5h3.26v.91h-3.26zm3.3 1.19h3.26v.91h-3.26zm3.3 2.12h3.26v-.91h-3.26zm0-3.31h3.26v.91h-3.26zm3.31 1.19h3.26v.91h-3.26zm6.52 2.12v-.9h-3.26v.91h3.26zM24.68 9.5h3.26v.91h-3.26z" class="cls-3"/><path d="M29.41 12.92V6.8l.95-1.9V.63h-7.23v2.61h-3.08V.63h-7.14v2.61H9.82V.63H2.6v4.26l.95 1.9v6.13H.68v28.45l15.79 5.75 15.81-5.75V12.92zM4 2h4.44v2.6h5.88V2h4.32v2.6h5.89V2H29v2.78l-1 1.78v.05H4.94v-.05L4 4.78zm1 9.88h3.2v.91H4.94v-.91zm0-1.5V9.5h3.2v.91H5zm6.57 1.18H8.25v-.91h3.26zm0-2.09h3.26v.91h-3.31zm0 3.31v-.9h3.26v.91h-3.31zm3.3-2.13h3.26v.91h-3.32zm3.3 2.13v-.9h3.26v.91h-3.31zm0-3.31h3.26v.91h-3.32zm6.57 2.09h-3.32v-.91h3.26zm0-2.09H28v.91h-3.31zm0 3.31v-.9H28v.91h-3.31zM28 8.6H5V7.35h23zm2.74 31.67l-14.27 5.17-14.21-5.17V14.5H30.7z" class="cls-4"/><path d="M10 22.63v4.52h3l-1.5-2.26z" class="cls-4"/><path d="M11.49 29H10v1.46H8.22V19.12h1.72l1.55 2.25 4.37 6.33L26 16.78H4.45V40l10.23-11zm17.2 11.31V17.14L7.1 40.31zm-9.15-2.69v-6.53L24 37.62h1.87v-9.57h-2.21v5l-3.46-5h-.33l7.67-8.32v19.52h-18l7.78-8.45v6.82zM6 40.32L27.91 16.8h-.83L5.2 40.32z" class="cls-4"/></g></svg>