<svg viewBox="8.73 6.79 270.24 270.24" xmlns="http://www.w3.org/2000/svg"><path d="m143.851 6.788c-.636 0-1.268.016-1.904.024 71.642 1.02 129.408 59.403 129.408 131.287 0 72.521-58.791 131.311-131.311 131.311-71.884 0-130.268-57.766-131.287-129.408-.008.636-.024 1.268-.024 1.904 0 74.622 60.495 135.118 135.118 135.118s135.118-60.496 135.118-135.118c0-74.623-60.496-135.118-135.118-135.118" fill="#7b113d"/><path d="m140.044 269.41c72.52 0 131.311-58.79 131.311-131.311 0-71.884-57.767-130.268-129.408-131.287-73.11 1.012-132.178 60.08-133.19 133.19 1.019 71.642 59.403 129.408 131.287 129.408" fill="#fff"/><circle cx="142.786" cy="142.042" fill="#7b113d" r="106.84"/><ellipse cx="139.638" cy="140.505" fill="#fff" rx="101.211" ry="102.546"/><g fill="#7b113d"><path d="m19.194 160.949-.823-6.89c-.451-3.791.761-5.645 4.624-6.107l2.847-.339c3.716-.443 5.617.543 6.07 4.333l.88 7.38zm10.012-4.872-.379-3.174c-.16-1.341-1.107-1.724-2.539-1.554l-2.848.34c-1.759.21-2.055.815-1.903 2.084l.378 3.173zm-6.091-14.14-.097-5.842 2.539-.042.096 5.842 2.666-.043-.104-6.354 2.993-.049.165 10.004-13.693.224-.161-9.877 2.993-.048.102 6.227zm8.221-8.208-13.622-1.442.725-6.847c.359-3.378 1.928-4.499 5.487-4.121 3.832.405 5.05 1.398 4.648 5.192l-.34 3.216 3.487.368zm-5.999-6.825c.098-1.44-.045-1.656-1.806-1.845-1.398-.147-1.858.024-2.007 1.441l-.266 2.488 3.815.405zm2.485-6.199-3.777-.856c-4.114-.933-4.317-3.673-3.498-7.291.821-3.616 2.184-6.003 6.299-5.07l3.777.854c4.115.932 4.318 3.675 3.498 7.291s-2.185 6.004-6.299 5.072m1.577-8.781-3.01-.682c-1.978-.448-2.323.166-2.742 2.019-.42 1.852-.362 2.502 1.604 3.003l3.009.682c2.009.399 2.341-.163 2.76-2.015.421-1.852.375-2.555-1.621-3.007m-6.534-8.157 2.373-6.637c1.116-2.956 2.275-4.19 5.49-3.041 2.149.769 3.403 1.217 3.098 3.862l.137.05c.555-1.393 1.656-2.027 3.118-1.503l2.596.928-1.229 3.44-1.805-.646c-.951-.379-1.752-.2-2.121.831l-.952 2.665 3.421 1.224-1.229 3.44zm8.666-3.786c.528-1.48-.042-1.625-1.503-2.147-1.151-.412-1.583-.237-1.988.898l-.953 2.665 3.491 1.249zm11.593-9.659-1.6 3.283-9.455-4.607-1.536 3.151-2.856-1.392 4.752-9.75 2.855 1.392-1.615 3.315zm4.001-7.207-1.839 3.156-11.836-6.896 1.838-3.155zm-5.48-16.448 2.168-3.096 8.923 11.132-3.268 4.667-13.438-4.686 2.126-3.036 10.342 3.633.063-.09zm9.61 1.669-2.891-2.575c-3.149-2.804-2.001-5.304.464-8.07 2.466-2.77 4.815-4.2 7.965-1.394l2.891 2.575c3.151 2.804 2.002 5.304-.464 8.072s-4.814 4.198-7.965 1.392m5.626-6.923-2.304-2.051c-1.514-1.348-2.113-.977-3.376.442-1.263 1.417-1.526 2.014-.049 3.403l2.304 2.052c1.565 1.32 2.128.99 3.39-.428s1.563-2.056.035-3.418m11.849-14.882c3.364-2.283 4.469-2.503 6.415-.038 1.403 1.778 2.855 3.47-1.876 7.205-2.739 2.16-4.604 3.54-7.388.012l2.754-2.172c.88 1.118 1.373.916 2.778-.192 1.349-1.063 1.725-1.501 1.011-2.403-.735-.933-.881-.794-2.296.184l-.666.455c-2.798 1.907-4.335 3.143-6.768.061s-.856-4.651 1.954-6.871c2.352-1.855 4.394-3.396 6.734-.427l.352.443-2.752 2.173c-.872-1.104-1.33-.742-2.479.164-1.548 1.222-1.428 1.64-.953 2.242.679.861 1.117.562 1.923.017zm11.611-.965.663 2.359-3.232 1.997-3.7-13.813 4.724-2.917 10.738 9.466-3.169 1.958-1.845-1.63zm-2.406-8.624-.031.019 1.704 5.925 2.891-1.787zm11.933 5.633-5.808-12.402 6.234-2.92c3.077-1.44 4.845-.676 6.364 2.564 1.634 3.49 1.415 5.045-2.042 6.664l-2.927 1.37 1.487 3.176zm2.738-8.662c1.284-.661 1.396-.895.645-2.5-.597-1.274-.981-1.578-2.271-.973l-2.265 1.061 1.626 3.473zm4.256-9.551 6.689-2.223c3.017-.947 4.703-.793 5.78 2.447.721 2.167 1.141 3.432-1.129 4.822l.046.138c1.439-.421 2.617.054 3.107 1.527l.869 2.618-3.465 1.153-.606-1.821c-.288-.982-.922-1.503-1.962-1.156l-2.687.893 1.146 3.449-3.465 1.152zm8.325 4.49c1.491-.497 1.255-1.034.765-2.506-.386-1.162-.791-1.394-1.934-1.013l-2.687.893 1.17 3.519zm12.267 3.69-3.553.851-3.191-13.32 3.553-.853zm6.807-9.692c4.052-.321 5.121.033 5.593 3.138.341 2.238.767 4.427-5.192 5.333-3.448.525-5.751.801-6.427-3.64l3.467-.528c.214 1.408.741 1.476 2.511 1.207 1.696-.258 2.24-.452 2.067-1.59-.179-1.172-.375-1.124-2.087-.975l-.803.069c-3.376.272-5.323.586-5.913-3.293-.59-3.882 1.554-4.468 5.093-5.005 2.961-.451 5.497-.781 6.065 2.956l.085.56-3.467.527c-.211-1.39-.79-1.302-2.233-1.083-1.948.296-2.05.719-1.936 1.477.165 1.083.695 1.04 1.662.965zm13.458-1.179c4.062.14 5.085.613 5.203 3.752.085 2.263.26 4.484-5.762 4.711-3.486.131-5.808.145-5.975-4.344l3.504-.132c.053 1.424.569 1.551 2.357 1.484 1.717-.065 2.278-.196 2.235-1.346-.044-1.186-.245-1.16-1.964-1.205l-.805-.025c-3.385-.11-5.355-.019-5.502-3.941-.147-3.925 2.052-4.263 5.628-4.397 2.994-.112 5.55-.153 5.693 3.625l.021.565-3.503.131c-.054-1.406-.637-1.383-2.097-1.329-1.972.076-2.121.482-2.092 1.249.041 1.095.572 1.111 1.543 1.148zm9.947 6.062-.852 2.298-3.788-.289 5.14-13.342 5.534.422 3.107 13.973-3.713-.284-.53-2.403zm3.132-8.384-.037-.003-2.108 5.791 3.386.257zm18.077 243.481-3.021.596-1.706-8.653-2.402 3.251-2.089-1.597 3.45-4.227 3.535-.696zm5.854-5.139c.329 1.105.791 1.034 1.88.708 1.344-.399 1.725-.579 1.283-2.054l-.522-1.755-.031.009c-.043 1.25-.703 1.463-1.662 1.749-2.597.774-4.04.884-4.899-1.992-.919-3.084.334-4.052 3.166-4.896 3.63-1.083 4.764-.619 5.877 3.114l.828 2.773c1.021 3.421-.151 4.399-3.352 5.353-2.288.682-4.372 1.175-5.231-1.701l-.142-.473zm2.022-5.23c-.303-1.018-.542-1.171-1.78-.801-1.579.47-1.764.606-1.402 1.815.276.929.758.77 2.058.382 1.09-.325 1.384-.525 1.124-1.396m8.503-2.032.685-.275c1.385-.561 1.44-.751 1.146-1.478-.359-.885-.523-1.169-1.979-.578-1.042.422-1.507.628-1.009 1.853l.087.214-2.711 1.099-.149-.371c-1.237-3.054.27-3.963 3.009-5.072 1.727-.699 4.139-1.509 5.248 1.228.484 1.199.578 2.374-.665 3.076l.046.113c1.394-.498 2.196.338 2.698 1.581 1.121 2.767-.516 3.894-2.926 4.871-2.48 1.007-4.55 1.594-5.786-1.458l-.232-.572 2.711-1.097.145.356c.485 1.198 1.137 1.001 2.134.598 1.171-.475 1.604-.717 1.103-1.958-.296-.727-.534-.946-2.032-.341l-.685.279zm11.119-.977c.503.833 1.03.643 1.794.246 1.189-.617 1.542-.836.854-2.161-.683-1.311-.859-1.582-2.388-.786-.874.453-1.161.603-1.056 1.172l-2.348 1.221-2.982-5.732 7.399-3.852 1.028 1.979-5.05 2.629 1.022 1.967c.307-1.081.565-1.249 1.862-1.925 2.484-1.292 3.72-.686 4.956 1.689 1.697 3.263.771 4.386-2.191 5.928-2.524 1.314-4.106 1.477-5.494-1.027zm26.568-19.339.216.26c.808.969 1.524 1.857 1.283 3.2-.255 1.333-1.245 2.14-2.274 2.996-2.414 2.009-4.275 3.358-6.975.116l-1.911-2.295c-2.443-2.935-1.225-4.67 1.38-6.836 2.438-2.03 3.78-2.726 6.043-.103l.285.343-2.437 2.029-.285-.342c-.743-.725-1.349-.32-2.152.347-1.349 1.125-1.135 1.645-.082 2.913l1.154 1.385c1.102 1.325 1.585 1.784 3.005.602.983-.816 1.396-1.283.53-2.323l-.217-.26zm1.194-.77-2.321-2.293c-2.528-2.499-1.453-4.551.743-6.774 2.195-2.223 4.237-3.323 6.767-.823l2.319 2.293c2.53 2.498 1.455 4.551-.742 6.774s-4.237 3.323-6.766.823m5.039-5.579-1.851-1.829c-1.216-1.201-1.736-.916-2.86.224-1.126 1.139-1.372 1.63-.19 2.865l1.853 1.829c1.256 1.179 1.745.925 2.871-.214 1.123-1.139 1.403-1.664.177-2.875m4.763-9.305c2.349-2.493 3.217-2.877 5.27-1.205 1.479 1.205 2.985 2.33-.223 6.269-1.856 2.279-3.139 3.757-6.074 1.365l1.866-2.291c.933.757 1.299.501 2.252-.67.913-1.12 1.143-1.548.391-2.161-.775-.63-.87-.491-1.856.574l-.463.494c-1.954 2.081-2.99 3.38-5.557 1.29-2.566-2.089-1.556-3.669.351-6.008 1.593-1.956 2.99-3.598 5.46-1.586l.368.301-1.866 2.29c-.918-.748-1.229-.366-2.008.59-1.049 1.288-.873 1.609-.371 2.016.715.583 1.02.257 1.584-.336zm12.301-4.921-1.732 2.546-7.327-4.99-1.662 2.442-2.213-1.508 5.145-7.556 2.213 1.51-1.751 2.567zm1.966-6.872 1.448 1.472-1.576 2.788-8.343-8.698 2.303-4.073 11.776 2.628-1.547 2.732-2.023-.455zm-5.278-5.391-.017.028 3.667 3.68 1.408-2.491zm2.724-10.254 2.209-5.513c1.034-2.455 2.048-3.458 4.721-2.388 1.785.717 2.829 1.135 2.487 3.352l.113.047c.515-1.155 1.461-1.654 2.674-1.167l2.157.864-1.146 2.858-1.499-.601c-.789-.35-1.47-.224-1.813.632l-.888 2.214 2.844 1.14-1.146 2.857zm7.417-2.912c.493-1.229.02-1.37-1.195-1.856-.957-.384-1.327-.25-1.703.695l-.89 2.213 2.9 1.163zm8.56-7.058-.939 2.932-10.994-3.524.941-2.933zm-1.128-12.921.328.08c1.227.302 2.328.587 2.933 1.813.587 1.221.27 2.458-.052 3.759-.747 3.05-1.442 5.241-5.538 4.237l-2.899-.71c-3.709-.91-3.759-3.029-2.952-6.317.754-3.08 1.42-4.439 4.799-3.673l.434.105-.757 3.08-.433-.107c-1.025-.14-1.274.544-1.523 1.561-.419 1.706.065 1.997 1.666 2.389l1.748.428c1.675.413 2.335.493 2.776-1.3.305-1.241.36-1.86-.955-2.183l-.328-.082zm3.072-4.076 1.884.85-.46 3.168-10.928-5.09.675-4.629 11.929-1.813-.451 3.108-2.051.307zm-6.872-3.115-.005.03 4.748 2.105.413-2.833z"/><circle cx="207.408" cy="240.261" r="2.365"/><path d="m176.659 122.516h-54.98v-31.008h38.564v19.576h39.553v-27.209l-23.137-23.136h-68.611l-23.856 23.856v44.53l23.856 23.854h52.775v34.436h-36.36v-19.575h-39.552v27.209l23.137 23.137h68.611l23.856-23.857v-47.956z"/></g></svg>