<svg xmlns="http://www.w3.org/2000/svg" fill="none" viewBox="0 0 85.91 85.91"><path fill="url(#a)" fill-rule="evenodd" d="m85.852 40.748-.163-2.17-.275-2.148-.38-2.111-.483-2.074-.58-2.037-.676-1.992-.773-1.947-.862-1.903-.951-1.851-1.041-1.799-1.115-1.747-1.204-1.68-1.271-1.628-1.353-1.56-1.427-1.487-1.494-1.427-1.561-1.353-1.62-1.278-1.688-1.197-1.74-1.123-1.798-1.033-1.85-.951-1.904-.863-1.947-.773-2-.676-2.029-.58-2.081-.483-2.111-.379-2.141-.275-2.178-.164-2.2-.059-2.2.06-2.178.163-2.148.275-2.111.38-2.074.482-2.037.58-1.992.676-1.947.773-1.903.863-1.851.951-1.799 1.033L18.97 7.36l-1.68 1.197-1.628 1.278-1.56 1.353-1.487 1.427-1.427 1.487-1.353 1.56-1.278 1.628-1.197 1.68-1.123 1.747-1.033 1.799-.951 1.85-.863 1.904-.773 1.947-.676 1.992-.58 2.037-.483 2.074-.379 2.11-.275 2.149-.171 2.17L0 42.956l.052 2.2.171 2.178.275 2.14.38 2.112.482 2.081.58 2.03.676 1.999.773 1.947.863 1.903.951 1.85 1.033 1.8 1.123 1.74 1.197 1.686 1.278 1.62 1.353 1.562 1.427 1.494 1.487 1.42 1.56 1.352 1.628 1.279 1.68 1.204 1.747 1.115 1.799 1.04 1.85.952 1.904.862 1.947.773 1.992.677 2.037.58 2.074.483 2.11.379 2.149.275 2.17.163 2.208.06 2.2-.06 2.178-.163 2.14-.275 2.112-.38 2.081-.483 2.03-.58 1.999-.676 1.947-.773 1.903-.862 1.85-.951 1.8-1.041 1.74-1.115 1.686-1.204 1.62-1.279 1.562-1.345 1.494-1.427 1.427-1.494 1.353-1.561 1.27-1.62 1.205-1.688 1.115-1.74 1.04-1.798.952-1.85.862-1.904.773-1.947.677-2 .58-2.029.483-2.081.379-2.111.275-2.141.163-2.178.06-2.2z" clip-rule="evenodd"/><path fill="#004A99" d="m58.99 59.732-.09-.327-.104-.312-.119-.312-.134-.298-.148-.297-.164-.282-.178-.275-.186-.268-.2-.253-.209-.245-.223-.238-.23-.223-.246-.215-.252-.201-.268-.186-.268-.178-.282-.164-.283-.148-.297-.134-.305-.12-.304-.103-.32-.097-.32-.074-.327-.06-.327-.037-.334-.03-.342-.007-.35.007-.349.03-.342.037-.334.06-.327.074-.32.097-.32.104-.304.119-.305.133-.29.157-.282.156-.276.178-.267.193-.253.201-.245.208-.238.223-.223.238-.216.245-.2.26-.186.268-.178.268-.164.29-.149.29-.133.297-.127.312-.104.312-.089.327-.074.327-.06.335-.044.342-.03.342-.008.349.008.342.03.334.044.335.06.327.074.32.09.312.103.312.12.305.14.29.149.29.164.282.17.267.194.26.2.253.209.246.23.23.23.223.246.216.26.2.267.186.276.171.282.164.29.148.305.134.304.127.32.104.32.089.327.074.334.06.342.044.35.03.349.007.342-.007.334-.03.327-.044.327-.06.32-.074.32-.09.304-.103.305-.12.297-.14.29-.15.275-.155.275-.179.26-.186.253-.2.246-.209.23-.222.223-.238.208-.238.2-.253.194-.267.171-.268.163-.283.15-.29.133-.29.119-.304.104-.312.097-.312.074-.32.06-.327.037-.335.03-.334.007-.342-.008-.35-.03-.341-.037-.342-.059-.335zM83.846 40.912l-.157-2.066-.26-2.045-.364-2.007-.46-1.977-.55-1.94-.648-1.895-.736-1.858-.817-1.807-.907-1.761-.989-1.717-1.062-1.658-1.145-1.606-1.22-1.546-1.285-1.486-.84-.885-2.475 2.475-2.542 2.543-7.694 7.693h7.285v38.407h3.411v7.552l.075-.067 1.42-1.353 1.36-1.427 1.286-1.487 1.219-1.546 1.144-1.598 1.063-1.665.989-1.71.907-1.769.817-1.806.736-1.858.647-1.896.55-1.94.461-1.97.364-2.014.26-2.037.157-2.073.051-2.096z"/><path fill="#004A99" d="m59.576 73.677-.185.104-.216.119-.223.111-.223.112-.223.111-.23.097-.23.104-.231.097-.23.089-.239.089-.237.082-.238.082-.245.074-.246.074-.245.067-.245.06-.246.059-.252.06-.253.044-.253.045-.26.044-.253.037-.26.03-.26.03-.26.022-.268.015-.26.015-.268.007h-.275l-.72-.014-.714-.06-.706-.09-.699-.126-.684-.163-.669-.193-.654-.223-.647-.253-.624-.282-.617-.32-.587-.342-.58-.372-.558-.394-.535-.423-.512-.446-.491-.469-.476-.498-.446-.513-.424-.535-.394-.557-.371-.573-.342-.594-.312-.61-.29-.632-.253-.639-.223-.661-.193-.67-.164-.683-.126-.699-.09-.706-.051-.714-.023-.728.023-.721.052-.721.089-.706.126-.691.164-.684.193-.677.223-.654.253-.647.29-.624.312-.61.342-.594.371-.572.395-.558.423-.542.446-.513.476-.49.49-.47.513-.445.535-.424.558-.401.58-.364.587-.35.617-.312.624-.282.647-.26.654-.224.67-.193.683-.156.699-.126.706-.097.713-.052.721-.015h.275l.26.008.268.007.26.022.26.015.26.03.26.03.261.03.253.044.252.037.253.052.253.052.245.052.245.06.246.066.245.067.245.075.238.081.238.075.238.09.23.088.23.097.231.096.23.105.224.104.223.104.156.082V35.307h-7.344L36.4 50.664l-2.55 2.542-14.19 14.197-2.549 2.542-2.468 2.476.877.84 1.487 1.293 1.546 1.212 1.606 1.144 1.665 1.07 1.71.982 1.76.907 1.815.825 1.85.736 1.903.639 1.94.557 1.97.454 2.014.364 2.037.26 2.074.156 2.096.06 2.104-.06 2.066-.156 2.044-.26 2.007-.364 1.977-.454 1.94-.557 1.896-.64 1.858-.735 1.806-.825 1.762-.907 1.717-.981 1.658-1.07 1.605-1.145 1.546-1.212.967-.84H59.77z"/><path fill="#B90E1D" d="m70.451 12.755-1.487-1.286-.104-.081v4.683l2.476-2.476zM47.148 2.312l-2.066-.156-2.104-.052-2.096.052-2.074.156-2.036.26-1.442.26v14.294h15.304V2.832l-1.442-.26zM15.505 12.755l-1.42 1.353-1.36 1.427-1.286 1.487-.081.104h5.738v-5.738l-.104.082zM33.835 18.612H18.59v15.246h15.245zM52.12 27.361h5.45l8.748-8.749H52.121zM35.33 49.601l14.249-14.249h-14.25zM2.55 36.794l-.26 2.044-.157 2.067-.06 2.103.06 2.096.156 2.074.26 2.037.26 1.442h14.287V35.352H2.81zM18.59 66.34l14.197-14.19H18.59zM11.44 68.987l1.285 1.486.848.885 2.475-2.468h-4.69z"/><path fill="#fff" d="m67.366 10.235-1.553-1.107-1.665-1.07-1.71-.99-1.762-.906-1.813-.818-1.851-.735-1.903-.647-1.933-.55-1.055-.245V17.14h15.245zM3.367 53.221l.55 1.933.647 1.902.736 1.851.817 1.814.907 1.762.989 1.717 1.063 1.657 1.115 1.554h6.905V52.166H3.122zM33.835 35.374H18.59v15.305h15.245zM50.627 28.87V18.634H35.33V33.88h15.297zM9.076 20.188l-1.063 1.658-.989 1.717-.907 1.762-.817 1.813-.736 1.851-.647 1.903-.55 1.933-.245 1.055h13.974V18.635h-6.905zM30.847 3.962l-1.903.647-1.85.735-1.814.818-1.762.907-1.717.988-1.657 1.07-1.554 1.108v6.906h15.245V3.167l-1.055.245z"/><path fill="#fff" d="M65.597 66.943V28.536H51.742v5.456h8.451v16.88l-.959-.602-1.605-.84-1.725-.61-1.836-.364-1.68-.104-.668.015-.655.052-.646.082-.632.111-1.234.32-.602.208-1.16.49-1.1.603-1.033.699-.959.795-.877.885-.795.958-.699 1.033-.602 1.1-.49 1.16-.38 1.212-.148.624-.112.632-.082.647-.052.654-.015.661.015.662.052.654.082.64.112.631.148.624.179.61.438 1.19.55 1.13.654 1.07.751.995.84.922.922.84.996.75 1.07.655 1.13.55 1.19.439.609.178.624.141.632.112.647.082.654.051.661.015 1.673-.111 1.836-.38 1.724-.624 2.565-1.45v.722h8.815v-5.456h-3.411zm-5.337-4.787-.119.78-.2.758-.268.729-.334.69-.402.655-.453.61-.513.564-.565.513-.61.461-.654.402-.691.334-.729.268-.758.2-.78.12-.803.044-.825-.037-.795-.12-.773-.192-.736-.268-.706-.335-.662-.393-.617-.454-.572-.513-.52-.565-.461-.61-.402-.653-.334-.692-.268-.728-.2-.758-.12-.78-.044-.803.037-.826.119-.795.193-.773.268-.736.334-.699.402-.661.46-.617.52-.572.566-.52.617-.462.661-.4.699-.335.736-.268.773-.2.795-.12.825-.044.803.044.78.12.759.193.728.267.691.335.655.401.61.46.564.521.513.565.46.617.402.662.335.698.267.736.201.773.119.796.044.825-.037.802z"/><defs><linearGradient id="a" x1="6.318" x2="78.033" y1="70.912" y2="16.189" gradientUnits="userSpaceOnUse"><stop stop-color="#D8C893"/><stop offset=".25" stop-color="#8E8562"/><stop offset=".56" stop-color="#ACA077"/><stop offset="1" stop-color="#D8C893"/></linearGradient></defs></svg>