<svg xmlns="http://www.w3.org/2000/svg" fill="none" viewBox="0 0 124 149.99"><path fill="#fff" d="M61.978 12.327c-.477.015-1.012.015-1.547.015-19.946 0-35.582-6.07-39.993-7.982L4.6 22.178c2.242 3.346 8.1 13.341 9.213 27.943.68 8.923-1.953 17.614-4.484 26.03-1.967 6.52-3.847 12.777-4.136 18.803L97.849 6.591c-7.536 2.564-20.51 5.983-35.87 5.736"/><path fill="#58B6E7" d="M104.372 5.273L5.322 99.734c.102.855.232 1.695.406 2.55 1.244 5.635 6.552 10.777 13.104 15.181l100.25-95.606z"/><path fill="#fff" d="M114.83 30.855l-92.888 88.58c8.91 5.403 19.18 9.474 24.647 11.647 1.605.637 2.863 1.144 3.688 1.506 6.581 2.941 9.966 6.881 11.701 9.952 1.736-3.071 5.12-7.026 11.687-9.952.825-.377 2.097-.869 3.688-1.506 10.342-4.1 37.824-14.979 40.876-28.784 1.822-8.242-.796-16.933-3.573-26.146-2.545-8.417-5.163-17.108-4.484-26.031a62.4 62.4 0 0 1 4.658-19.266"/><path fill="#D1A364" d="M123.089 23.163l.911-1.174L104.488.014l-1.215.58c-.173.087-17.328 8.17-39.69 8.17-.505 0-1.026 0-1.605-.015-.52.015-1.027.015-1.547.015-22.304 0-39.516-8.112-39.69-8.185L19.526 0 0 21.96l.911 1.174c.073.101 8.057 10.545 9.344 27.233.636 8.257-1.895 16.63-4.354 24.727-2.791 9.242-5.684 18.788-3.66 27.943 3.458 15.645 31.185 26.654 43.031 31.347 1.563.623 2.792 1.101 3.559 1.449 5.814 2.593 8.678 5.983 10.08 8.503a568 568 0 0 1 3.067 5.65s1.967-3.68 3.081-5.664c1.403-2.506 4.267-5.896 10.067-8.489.752-.333 1.996-.826 3.558-1.449 11.846-4.693 39.588-15.673 43.045-31.332 2.025-9.17-.853-18.716-3.645-27.958-2.444-8.097-4.975-16.47-4.339-24.727 1.273-16.6 9.271-27.103 9.344-27.204M9.329 76.137c2.546-8.416 5.178-17.107 4.484-26.03C12.7 35.518 6.841 25.523 4.6 22.162L20.438 4.346c4.426 1.912 20.047 7.981 39.993 7.981.535 0 1.056 0 1.547-.014 15.361.246 28.335-3.172 35.857-5.765L5.178 94.94c.29-6.026 2.17-12.284 4.151-18.803m-3.601 26.147a25 25 0 0 1-.42-2.55l99.064-94.461 14.725 16.572-100.25 95.606c-6.553-4.39-11.875-9.547-13.12-15.167m108.928-26.132c2.777 9.198 5.395 17.89 3.573 26.146-3.052 13.791-30.52 24.684-40.875 28.784-1.606.637-2.864 1.13-3.689 1.506-6.58 2.941-9.966 6.881-11.687 9.952-1.735-3.071-5.12-7.026-11.687-9.952-.824-.376-2.097-.869-3.688-1.506-5.467-2.173-15.737-6.244-24.647-11.647l92.874-88.58c-2.054 4.867-4.036 11.4-4.643 19.266-.694 8.923 1.938 17.629 4.469 26.03"/><path fill="#D1A364" d="M25.124 108.296L12.7 95.171l6.754-6.402c1.258-1.188 2.314-2 3.182-2.405.868-.42 1.78-.521 2.734-.319.955.203 2.155 1.043 2.95 1.883.695.725 1.418 1.797 1.606 2.623a5.1 5.1 0 0 1-.058 2.505c-.144.537-.463 1.16-.925 1.87l9.097 1.158-4.57 4.346-8.664-.681 4.426 4.708zM22.42 97.243l1.707-1.622c.188-.174.492-.58.897-1.203a1.44 1.44 0 0 0 .26-1.028c-.043-.377-.477-1-.752-1.29-.405-.42-1.186-.956-1.663-.927-.478.03-1.1.391-1.837 1.087l-1.78 1.695zm11.059-21.826l-4.065 3.854 12.422 13.137 4.064-3.854zm10.289-9.695l4.065-3.853 6.754 7.127c1.418 1.492 2.358 2.766 2.835 3.795s.564 2.202.275 3.505c-.29 1.304-1.056 2.55-2.314 3.738-1.317 1.26-2.517 2.057-3.587 2.375-1.07.334-2.127.348-3.168.03-1.056-.32-2.097-.942-3.124-1.898l3.37-4.201c.55.58 1.012.956 1.374 1.144q.542.283 1.128.218c.26-.03.535-.189.825-.464.448-.434.621-.913.52-1.448-.101-.537-.535-1.203-1.287-2zm8.823-8.372L63.44 47.034l2.662 2.81-6.798 6.447 1.967 2.086 6.306-5.983 2.531 2.68-6.292 5.982 2.445 2.593 7-6.649 2.806 2.985-11.05 10.487zM104.329 29l-4.6 4.36 1.418 2.782-4.137 3.926-7.492-17.803 4.426-4.201 17.357 8.445-4.267 4.027zm-3.529-2.042l-5.916-3.346 3.037 6.084zM68.502 42.067l4.05-3.854 5.742 6.012-.781-10.748 4.671-4.404.666 11.154 11.976 1.782-4.99 4.722-10.443-1.333 5.583 5.954-4.05 3.839zM24.56 24.568h-5.164v-6.78h-3.804v17.804h3.804v-6.78h5.164v6.78h3.804V17.789H24.56zm16.402 3.419l-4.816-10.198h-4.658v17.803h3.471v-12.4l5.83 12.4h3.645V17.789h-3.472zm14.189-1.927l5.38-8.271h-4.396l-4.831 7.909v-7.91h-3.79v17.804h3.79V29.58l.737-1.217 4.123 7.229h4.6z"/><path fill="#231F20" d="M88.071 91.492a4.293 4.293 0 0 0-4.281 4.288 4.28 4.28 0 0 0 4.281 4.273 4.28 4.28 0 0 0 4.282-4.273c-.015-2.361-1.924-4.288-4.282-4.288"/><path fill="#231F20" d="M88.071 101.255c-3.008 0-5.467-2.462-5.467-5.475s2.459-5.476 5.467-5.476c3.009 0 5.468 2.463 5.468 5.476s-2.46 5.475-5.468 5.475"/><path fill="#D1A364" d="M84.701 100.097v12.79c.39.174.781.348 1.186.507v-12.588a6 6 0 0 1-1.186-.709m1.852 13.529c.39.131.78.261 1.186.362v-12.762a5.3 5.3 0 0 1-1.186-.202zm3.688-.246a17 17 0 0 0 1.186-.507v-12.791c-.362.29-.767.522-1.186.71zm-1.851.623a29 29 0 0 0 1.186-.362v-12.588a5.3 5.3 0 0 1-1.186.202z"/><path fill="#D1A364" d="M100.062 93.795c0-6.04-5.496-11.255-9.98-12.573-.709-.203-1.389-.319-2.025-.319s-1.33.116-2.054.333c-4.484 1.333-9.951 6.533-9.951 12.56 0 4.823 2.56 9.27 6.537 11.472v-2.419a7.02 7.02 0 0 1-1.518-4.346 7 7 0 0 1 3.746-6.2 6.96 6.96 0 0 1 3.24-.796c1.157 0 2.242.29 3.21.782a7 7 0 0 1 3.79 6.214c0 1.594-.55 3.115-1.518 4.346v2.419c3.977-2.187 6.523-6.649 6.523-11.473"/><path fill="#D1A364" d="M83.703 99.068l-1.114 2.202v10.473c.391.246.782.464 1.186.681V101.56l.782-1.565a6.6 6.6 0 0 1-.854-.927m8.722 0a6.6 6.6 0 0 1-.868.927l.781 1.565v10.864c.405-.217.796-.449 1.186-.695V101.27z"/><path fill="#58B6E7" d="M69.861 82.974c-.593 8.938 3.182 22.743 12.743 28.769v-6.461c-3.978-2.187-6.538-6.648-6.538-11.472 0-6.026 5.468-11.241 9.951-12.56v-3.143L69.89 82.554zm36.377 0l-.029-.42-16.127-4.447v3.13c4.484 1.303 9.98 6.532 9.98 12.573 0 4.823-2.56 9.271-6.538 11.472v6.447c9.547-6.055 13.307-19.831 12.714-28.755"/></svg>