<svg xmlns="http://www.w3.org/2000/svg" viewBox="0 -0.01 63 63.02"><path fill="#D2232A" d="M31.5 51.52c-11.028 0-20.008-8.979-20.008-20.007S20.471 11.481 31.5 11.481s20.008 9.004 20.008 20.032S42.529 51.52 31.5 51.52"/><path fill="#FFC20E" d="M31.5-.012C14.177-.012 0 14.14 0 31.512c0 17.349 14.177 31.5 31.5 31.5 17.349 0 31.5-14.15 31.5-31.5C63 14.14 48.849-.012 31.5-.012m0 61.242c-16.348 0-29.719-13.346-29.719-29.718S15.152 1.769 31.5 1.769c16.372 0 29.719 13.371 29.719 29.743 0 16.373-13.347 29.718-29.719 29.718"/><path fill="#014EA2" d="M31.5 1.769c-16.348 0-29.719 13.371-29.719 29.743 0 16.373 13.371 29.718 29.719 29.718 16.372 0 29.719-13.346 29.719-29.718S47.872 1.769 31.5 1.769m0 49.751c-11.028 0-20.008-8.979-20.008-20.007S20.471 11.481 31.5 11.481s20.008 9.004 20.008 20.032S42.529 51.52 31.5 51.52"/><path fill="#FFF" d="M59.315 27.414q.293 2.013.293 4.099c0 1.416-.098 2.806-.316 4.171h-2.221l.049-.242.171-1.293.098-1.318.024-1.318-.024-1.342-.098-1.317-.171-1.294-.024-.146zm-55.606 8.27a29.5 29.5 0 0 1-.293-4.171q0-2.086.293-4.099h2.22l-.024.146-.171 1.294-.098 1.316-.049 1.342.049 1.318.098 1.318.171 1.293.024.242h-2.22zm4.44-8.27h2.221l-.146.805-.146 1.074-.073 1.098-.049 1.122.049 1.099.073 1.098.146 1.074.146.902H8.149l-.098-.562-.146-1.195-.098-1.195-.024-1.22.024-1.22.098-1.22.146-1.172zm44.505 0h2.221l.098.487.146 1.172.098 1.22.023 1.22-.023 1.22-.098 1.195-.146 1.195-.122.562H52.63l.171-.902.146-1.074.073-1.098.024-1.099-.024-1.122-.073-1.098-.146-1.074zM17.031 49.91c.098-.146.098-.316.049-.488s-.146-.342-.269-.463c-.024-.049-.049-.074-.073-.098l-.073-.074c-.098-.072-.195-.146-.293-.195-.122-.023-.195-.023-.293.025 0 .023-.024.023-.024.023l-.024.025s-.024 0-.048.023c-.122.121-.099.316.023.586.122.244.293.512.488.756.024.025.024.049.024.049l.024.025q.77.951.951 1.756c.146.562 0 1.074-.39 1.586l-.049.074c-.488.561-1.123.779-1.854.682a3.9 3.9 0 0 1-1.977-.926c-.61-.537-1.049-1.146-1.317-1.855a1.8 1.8 0 0 1-.122-.609v-.072c0-.465.195-.904.562-1.318l1.634 1.391c-.121.244-.146.463-.098.635.073.195.146.365.293.512l.073.074c.024.023.049.072.073.072.171.146.317.221.488.221a.5.5 0 0 0 .391-.098v-.025c.024-.023.024-.049.049-.049 0-.023.023-.049.023-.049a.4.4 0 0 0 .025-.244c0-.098-.049-.195-.099-.293-.049-.049-.072-.098-.098-.146a.5.5 0 0 1-.097-.146c-.049-.047-.073-.072-.098-.121s-.073-.074-.098-.121a10.2 10.2 0 0 1-1.001-1.807c-.244-.609-.146-1.195.342-1.732.024-.049.049-.072.073-.098.049-.025.073-.049.098-.072l.073-.074c.024-.023.049-.023.073-.049.366-.316.829-.488 1.415-.488.562.025 1.146.293 1.781.807l.195.17a.2.2 0 0 0 .098.098l.098.098c.439.439.78.928.976 1.514.22.586.098 1.219-.365 1.928zm9.882 3.611c-.269-.635-.854-1.123-1.708-1.465l-1.221-.463-2.049-.781-2.392 6.369 2.123.828.732-1.926 1.171.463c.146.049.293.098.414.121.708.195 1.294.172 1.806-.072.61-.293 1.001-.709 1.221-1.244v-.025s0-.023.024-.023c.196-.563.148-1.147-.121-1.782m-1.976.854v.074l-.024.023v.023c0 .025-.024.025-.024.025a.63.63 0 0 1-.317.342.54.54 0 0 1-.512 0l-.073-.025-.977-.365.513-1.318.464.172.512.195c.195.098.342.219.391.365.071.173.095.343.047.489m6.661-1.439l.293 5.171 3.123-.146.073 1.611-5.344.293-.366-6.808zm7.71-1.489l2.342 6.418-2.171.78-2.342-6.393zm7.344-4.539l1.122 1.465-1.562 1.244 3.074 3.904-1.829 1.439-3.075-3.928-1.562 1.219-1.146-1.439zM18.642 7.942l-1.074-.854-1.708 1.073-.317.195.317 1.391 1.221 5.686 1.562-.976.366-.22-.244-.903 1.854-1.171.659.635 1.952-1.221zm0 3.831l-.244.146-.635-2.245.879.781.878.78zM38.43 5.478c-.366-.537-.806-.952-1.293-1.22a3.5 3.5 0 0 0-.757-.342c-.244-.098-.464-.146-.684-.195l-.292-.049-2.489-.439-1.171 6.71 2.928.537q.366.073.732.073a3.56 3.56 0 0 0 1.928-.391c.756-.391 1.22-1.195 1.438-2.391l.025-.195c.123-.854.001-1.536-.365-2.098m-1.904 1.781q-.183 1.062-.732 1.391c-.121.049-.269.098-.39.146-.293.073-.586.073-.928.024-.024-.024-.049-.024-.073-.024s-.048 0-.048-.024h-.073c-.025 0-.05-.024-.05-.024l.61-3.538.342.073c.073.024.146.024.22.049.366.098.683.269.902.488.269.267.342.756.22 1.439m11.37 1.489l-.902-.562-2.27 3.66c-.171.269-.391.415-.635.464-.268.049-.512.024-.707-.073-.024 0-.024 0-.049-.024-.024 0-.024 0-.049-.024h-.024v-.024c-.22-.122-.366-.342-.439-.61s-.024-.536.146-.829l2.27-3.636-1.879-1.171-2.221 3.514c-.513.829-.658 1.586-.415 2.293.22.708.781 1.317 1.659 1.879.879.562 1.708.806 2.465.708.756-.073 1.366-.488 1.83-1.27l1.22-1.927 1.073-1.708zm6.906 7.149l-2.757-.293 1.659-1.221-1.342-1.853-4.466 3.245-1.073.756 1.073 1.464.293.415 1.782-1.318.634.098-1.196 2.903 1.611 2.221 1.805-4.71 3.538.464zM28.475 3.526l.78 4.465c.122.684.073 1.221-.171 1.61-.243.391-.536.708-.878.903a3.7 3.7 0 0 1-.635.293c-.194.049-.366.098-.512.122-.83.146-1.537.048-2.123-.317-.562-.366-.928-.977-1.098-1.879v-.122c-.024-.049-.024-.098-.024-.146s0-.073-.024-.122v-.146l2.024-.366c.073.464.195.806.293 1.074.122.243.293.365.513.316q.33-.036.366-.293a.9.9 0 0 0 0-.513l-.781-4.489zM15.859 16.36l-5.22-3.781-1.368 1.854 1.879 1.366-1.195 1.611-1.854-1.342-1.367 1.854 5.515 4.001 1.366-1.854-2.098-1.537 1.171-1.611 2.098 1.513 1.073-1.439.293-.415zm19.716 11.078v-8.149h-8.149v8.149zM19.3 35.588h-7.39a19.94 19.94 0 0 0 3.746 8.125H19.3zm0-16.299h-3.632a20 20 0 0 0-3.758 8.149h7.39zm8.126 0v-7.39a19.95 19.95 0 0 0-8.126 3.754v3.636zm16.299 0v-3.617a19.9 19.9 0 0 0-8.149-3.772v7.389zm-8.15 16.299h8.149v-8.15h-8.149zm-8.149-8.15H19.3v8.15h8.126zM19.3 43.713v3.643a19.9 19.9 0 0 0 8.126 3.746v-7.389zm24.425 0h3.62a19.94 19.94 0 0 0 3.745-8.125h-7.365zm-16.299-8.125v8.125h8.149v-8.125zm8.149 8.125v7.389a19.9 19.9 0 0 0 8.149-3.764v-3.625zm8.15-16.275h7.366a20 20 0 0 0-3.759-8.149h-3.607z"/></svg>