<svg height="252" width="181.551" xmlns="http://www.w3.org/2000/svg"><g fill-rule="evenodd"><path d="M1 11.57C31.13 4.474 60.75 1.062 89.91 1c30.708-.063 60.904 3.59 90.641 10.57v161.131L90.874 251 1 172.082z" fill="#008741"/><path d="M66.283 222.313l24.273 20.903 83.394-73.515V16.835C148.56 9.973 101.928 6.424 66.197 8.408z" fill="#fde100"/><g fill="#008741"><path d="M72.026 96.075l8.438-7.732c3.818-7.618 8.485-12.382 13.43-16.202 3.925-3.032 7.674-5.429 11.597-7.093 6.821-2.893 14.887-3.523 22.118-1.936 4.782 1.05 9.52 3.267 13.9 7.41 2.308 2.186 7.733 7.415 7.923 14.689.122 4.675-1.984 10.346-5.606 15.34s-9.49 10.161-15.431 12.25l-1.492 18.728-20.527-21.972 4.87-8.393-22.921-4.008-9.774 6.946 1.492-7.31zm43.969-19.324c-.557 1.504-1.667 2.225-3.426 2.993-2.046.894-4.35.262-5.897-.732-.703-.451-1.444-1.183-.77-1.924.715-.784.903-1.38.782-1.818-.095-.34-.651-.677-1.02-.841-.497-.22-.864-.088-1.506.166-1.316.522-3.52 1.823-4.831 2.517-1.936 1.024-3.716 2.137-4.949 3.108-1.87 1.475-4.024 2.829-6.926 3.211 2.125-2.02 4.286-3.99 6.72-6.008a54.418 54.418 0 0 1 7.042-4.914c2.077-1.215 5.488-2.509 7.886-2.936 1.592-.284 2.528-.083 3.888.787 2.128 1.361 3.894 3.993 3.007 6.391zm28.907 13.3c-1.661 2.585-3.782 5.746-6.144 8.572-2.761 3.305-5.91 6.206-10.07 7.46-1.73.522-3.67-.355-3.705-2.003-.048-2.208 2.505-3.855 5.467-4.602 1.446-.365 2.596-.411 4.094-1.04 4.49-1.881 7.165-6.265 10.358-8.387zM78.84 105.598l6.79 4.384-10.992 9.31 6.255-9.322zm-4.324 15.789l8.958.79-4.92 4.099 8.108 1.184 1.974 6.59-4.22-4.98-8.108-1.427 1.579-3.826z"/><path d="M90.854 108.023l-2.644.914-4.558-3.686 6.29-2.925 12.187 1.523-17.262 12.033 7.993 11.972-5.835-4.356-2.918-7.433 10.91-9.322c.25-1.64-2.272-2.992-3.675-2.627-1.59.412-3.601 3.498-.488 3.907zm-13.605 23.142l6.134 2.186-6.043 9.99.334 10.172-2.55-12.267 4.737-6.043zm7.5 6.285l-4.342 7.622 2.126 4.797-3.037 5.526 3.431 6.043 2.369-10.353-1.61-5.527zm4.13-.637l-.76 7.651 2.703 4.25-4.16 10.508 5.527 5.162-1.458-8.745 2.854-8.806-3.097-3.219zm4.828-2.52l.79 6.528 3.886 4.372-1.64 18.28 4.009-7.53.728-12.025-3.9-5.162zm6.71 1.64l4.039 5.981.121 12.692 3.675-13.998z"/><path d="M107.918 121.205l-3.31 12.299 6.953 5.01-3.097 16.578 6.893-18.552-6.528-6.468z"/><path d="M118.424 145.314l3.614-12.667-9.99-10.956 1.214 5.648 6.255 7.227-5.86 15.82zm-5.212-85.295c6.05-.885 11.315-.764 15.762.087 6.26 1.198 11.064 4.231 14.658 7.216 6.558 5.444 8.76 12.107 9.156 17.45.182 2.46.14 5.29-.437 7.673-.654 2.7-1.944 4.934-3.425 7.301-3.346 5.346-10.025 12.395-13.844 19.77-2.45 4.732-4.101 9.701-4.33 14.703-.241 5.281.951 10.393 2.708 15.152 2.427 6.574 6.03 12.4 13.472 16.427-7.41-8.715-11.17-20.597-11.197-30.083-.011-3.703.415-6.822 1.456-9.785 1.765-5.024 5.015-9.62 8.271-13.796 3.11-3.99 6.575-8.197 8.862-12.75 2.63-5.236 3.406-13.477 2.512-19.254-.82-5.288-3.266-10.484-7.672-14.947-5.592-5.663-14.25-9.752-22.174-9.586-4.34.091-8.788 1.483-13.778 4.422z"/><path d="M110.842 60.506c-3.315-9.82-7.727-15.795-21.63-26.308 5.245-6.997 16.651-9.805 25.47-9.919 21.648-.279 41.195 11.398 50.25 33.322 2.2 5.328 3.853 11.505 3.963 18.565.084 5.42-1.015 13.026-4.136 20.12-2.06 4.68-5.01 9.255-8.045 13.342-6.49 8.742-12.842 15.84-13.436 30.12-.18 4.347.052 9.195 1.163 15.235-2.968-6.301-4.23-11.721-4.28-16.6-.112-10.647 5.39-18.239 11.634-27.29 2.838-4.115 6.966-10.324 9.566-15.174 2.542-4.74 3.574-9.197 3.853-14.21.23-4.137.117-7.889-.625-11.975-1.225-6.755-4.176-13.23-7.996-18.697-5.216-7.466-12.71-13.647-21.303-17.01-7.78-3.046-16.389-3.292-24.596-2.305-3.633.437-7.435 1.158-11.395 2.172 13.53 11.878 12.488 20.339 11.543 26.612z"/></g><path d="M3.838 68.1H16l6.122-10.66h23.62l5.983 10.296h12.637L34.106 15.242zM28.19 46.873l5.673-9.88 5.74 9.88zm27.584 32.384l-6.119 6.468c-7.006-4.298-12.897-4.509-18.327-2.814-5.1 1.591-9.74 5.627-13.605 12.557H45.9V106H17.27c3.57 7.71 8.427 12.514 14.668 14.054 6.79 1.675 16.86-1.498 21.443-7.655l6.62 6.863c-6.925 9.784-19.69 11.538-26.934 10.94-5.15-.426-9.498-2.372-13.04-4.918-9.547-6.865-12.873-16.621-13.142-22.167-.223-4.59.652-12.07 4.826-18.513 1.362-2.102 3.083-4.133 5.172-5.877 1.625-1.357 4.021-2.844 6.1-3.753 3.373-1.476 8.346-2.848 13.467-3.091 6.275-.299 12.348 1.187 19.323 7.373zm-42.34 55.928h9.948v23.2l26.478-22.179 8.199 7.288-23.624 19.93 28.3 23.31-7.41 8.744-31.943-25.848v12.245l-9.948-7.811z" fill="#fde100"/><path d="M88.539 202.888c-.81.789-2.39 1.025-3.63.84-2.086-.314-3.864-1.657-4.128-4.226-.158-1.549.303-3.015 1.478-4.067.964-.864 2.254-1.299 3.537-1.328 2.107-.046 3.888 1.23 4.757 3.11 1.117 2.42.656 5.475-.55 7.788-1.206 2.31-3.428 4.622-5.7 6.283l-1.328-1.754c1.822-1.328 3.648-3.15 4.756-4.98.23-.378.639-1.256.808-1.666zm.396-2.302c.021-.855-.035-1.741-.38-2.487-.497-1.077-1.486-1.819-2.71-1.792-1.75.04-3.064 1.127-2.875 2.97.183 1.787 1.741 2.58 3.385 2.42.87-.084 1.695-.511 2.32-.934zm12.476 2.302c-.81.789-2.39 1.025-3.63.84-2.086-.314-3.864-1.657-4.128-4.226-.158-1.549.303-3.015 1.478-4.067.964-.864 2.254-1.299 3.537-1.328 2.107-.046 3.888 1.23 4.757 3.11 1.117 2.42.656 5.475-.55 7.788-1.206 2.31-3.428 4.622-5.7 6.283l-1.328-1.754c1.822-1.328 3.648-3.15 4.756-4.98.23-.378.639-1.256.808-1.666zm.396-2.302c.021-.855-.035-1.741-.38-2.487-.497-1.077-1.486-1.819-2.71-1.792-1.75.04-3.064 1.127-2.875 2.97.183 1.787 1.741 2.58 3.385 2.42.87-.084 1.695-.511 2.32-.934zm-23.553-6.248h-1.537l-4.82 2.725.976 2.017 3.145-1.877v13.832h2.236zm37.186 0h-1.867l-8.123 10.759-.003.192h-.017l.006.755-.022 1.472.033-.013v.021h7.757v3.511h2.236v-3.51h2.391v-2.236h-2.391zm-7.61 10.95l5.374-6.985v6.986z" fill="#008741"/></g></svg>