<svg height="338.328" width="307.951" xmlns="http://www.w3.org/2000/svg"><path d="m257.864 0 47.297 53.167s-32.235 26.606-32.235 59.484c0 18.051 8.72 32.658 35.025 32.658 0 94.507-59.142 140.738-59.142 140.738l-8.323-26.154s-23.713 43.338-86.511 78.436c-62.797-35.098-86.51-78.436-86.51-78.436l-8.322 26.154s-59.143-46.23-59.143-140.738c26.306 0 35.026-14.607 35.026-32.658 0-32.878-32.235-59.484-32.235-59.484l47.296-53.167s6.077 12.37 22.195 12.37c22.988 0 33.292-8.422 55.223-8.422 17.127 0 26.471 9.739 26.471 9.739s9.344-9.739 26.471-9.739c21.932 0 32.235 8.422 55.224 8.422 16.117 0 22.193-12.37 22.193-12.37" fill="#478b54"/><path d="m303.746 149.35s-66.987 30.919-149.77 30.919c-82.775 0-149.757-30.913-149.77-30.919.363 19.691 3.391 38.702 9.012 56.568.641 2.037 1.318 4.06 2.026 6.067 22.294 8.596 75.968 26.365 138.732 26.365 62.763 0 116.436-17.769 138.731-26.365a190.183 190.183 0 0 0 2.103-6.307c5.572-17.796 8.573-36.724 8.936-56.328zm-18.04-81.27c5.202-6.946 10.376-12.218 13.583-15.243l-41.068-46.166c-3.772 4.289-10.915 9.867-22.551 9.867-12.157 0-20.89-2.245-29.335-4.417-8.012-2.06-15.58-4.006-25.889-4.006-14.99 0-23.139 8.127-23.479 8.473l-3.043 3.1-2.957-3.117c-.323-.329-8.473-8.456-23.463-8.456-10.309 0-17.877 1.946-25.888 4.006-8.446 2.171-17.179 4.417-29.335 4.417-11.636 0-18.779-5.578-22.55-9.867l-41.068 46.166c3.206 3.024 8.38 8.297 13.582 15.243a104.416 104.416 0 0 1 6.36 9.518h250.742c1.88-3.189 4-6.367 6.359-9.518z" fill="#fff"/><path d="m99.512 69.671h-12.514l-4.975-9.586h-22.773l-4.703 9.586h-12.202l22.191-42.202h12.164zm-21.18-16.697-7.851-15.66-7.695 15.66zm29.272 16.697v-42.202h21.492c6.996 0 11.555.211 13.68.633 3.265.633 5.998 2.01 8.201 4.13 2.201 2.121 3.303 4.861 3.303 8.22 0 2.59-.636 4.768-1.904 6.534a13.47 13.47 0 0 1 -4.838 4.16c-1.957 1.007-3.945 1.674-5.966 2-2.747.403-6.724.604-11.931.604h-10.533v15.92h-11.504zm11.502-35.063v11.975h9.329c4.533 0 7.564-.22 9.093-.663 1.528-.44 2.727-1.131 3.595-2.072.868-.94 1.302-2.034 1.302-3.281 0-1.535-.609-2.802-1.826-3.8-1.219-.998-2.76-1.622-4.625-1.872-1.374-.191-4.133-.288-8.278-.288h-8.59zm44.707 35.063v-42.202h12.037v16.609h23.586v-16.609h12.037v42.202h-12.037v-18.454h-23.586v18.454zm80.305-7.139 17.916-12.954-18.818-14.97h20.657v-7.139h-40.648v1.658l25.707 20.452-25.707 18.586v1.507h42.382v-7.139h-21.489zm-183.747 152.584-8.955-2.718-10.608-29.801-9.614 23.665-8.824-2.679 13.503-30.837 9.649 2.929zm14.37-3.507v-8.402l15.6 3.227v-6.402l-15.6-3.227v-7.326l16.358 3.382v-6.401l-24.881-5.145v34.935l25.224 5.217v-6.402zm32.542-22.729-7.517-.762v34.935l8.657.878v-21.807l9.388 11.904 1.3.131 9.39-10.002v21.807l8.659.877v-34.935l-7.527-.762-11.17 11.822zm48.23 31.506v-8.402l15.928-.241v-6.401l-15.928.241v-7.327l16.703-.254v-6.402l-25.405.386v34.936l25.754-.391v-6.402zm65.414-29.849c-3.609 4.363-5.414 8.938-5.414 13.722 0 4.868 1.817 8.677 5.451 11.429 3.635 2.751 8.344 3.502 14.13 2.254 5.72-1.232 10.405-4.018 14.056-8.355 3.65-4.338 5.476-8.924 5.476-13.76 0-4.768-1.801-8.56-5.401-11.377-3.603-2.816-8.313-3.596-14.13-2.342-5.836 1.257-10.559 4.067-14.168 8.429zm6.332 18.904c-1.98-1.533-2.971-3.89-2.971-7.074 0-3.201.99-5.99 2.971-8.367 1.98-2.379 4.591-3.916 7.835-4.616 3.226-.695 5.825-.28 7.798 1.245 1.972 1.525 2.958 3.889 2.958 7.09 0 3.184-.986 5.969-2.958 8.352-1.973 2.385-4.572 3.924-7.798 4.62-3.244.698-5.855.281-7.835-1.25zm-33.227 8.617 11.601-10.609v-3.993l-11.601-7.529 12.371-1.38v-6.402l-25.25 2.817v6.402l14.154 9.186-14.154 12.945v6.401l25.598-2.856v-6.402zm78.885-17.037 11.566-13.265v-3.995l-11.6-4.861 13.239-4.33v-6.401l-24.15 7.897v6.402l14.154 5.898-14.154 16.232v6.402l24.481-8.006v-6.402z" fill="#478b54"/><path d="m192.235 120.051-28.838-1.202-9.421-29.002-9.422 29.002-28.837 1.202 23.015 16.719-9.423 29 24.667-17.922 24.668 17.922-9.424-29z" fill="#fff"/></svg>