<svg height="748.347" width="748.347" xmlns="http://www.w3.org/2000/svg"><path d="m744.761 374.179c0 204.67-165.938 370.59-370.574 370.59-204.683 0-370.602-165.92-370.602-370.59 0-204.679 165.919-370.596 370.602-370.596 204.636 0 370.574 165.917 370.574 370.596" fill="#fddd04"/><g fill="#18468b"><path d="m374.187 732.657c-197.674 0-358.44-160.79-358.44-358.514 0-197.635 160.766-358.395 358.44-358.395 197.636 0 358.424 160.76 358.424 358.395 0 197.723-160.788 358.514-358.424 358.514zm264.544-623.07c-70.639-70.632-164.614-109.57-264.544-109.57-99.966 0-193.908 38.938-264.585 109.57-70.663 70.697-109.602 164.627-109.602 264.556 0 99.97 38.94 193.95 109.602 264.623 70.64 70.65 164.586 109.581 264.585 109.581 99.95 0 193.905-38.93 264.544-109.581 70.649-70.764 109.596-164.701 109.596-264.623 0-99.872-38.947-193.8-109.596-264.556"/><path d="m374.187 590.414c-119.257 0-216.228-96.993-216.228-216.271 0-119.176 96.97-216.173 216.228-216.173 119.195 0 216.242 96.997 216.242 216.173 0 119.278-97.047 216.27-216.242 216.27zm251.732-216.271c0-138.737-112.953-251.695-251.732-251.695-138.817 0-251.734 112.958-251.734 251.695 0 138.869 112.917 251.779 251.734 251.779 138.779 0 251.732-112.91 251.732-251.779m-502.365 197.607 12.261-17.682 7.807 9.858zm32.21-12.597-12.44-15.773 5.624-8.09-11.546-14.581-31.75 52.481 12.116 15.382 58.46-18.747-11.27-14.252zm-49.854-115.692-44.31-4.016 39.046-21.288-3.762-18.219-51.899 32.78 4.015 19.165 60.647 9.308-3.737-17.729m-8.602-69.003-23.202-.755.633-19.383 23.204.826.635-17.922-57.448-1.892-.596 17.865 20.075.641-.633 19.405-20.07-.727-.615 17.777 57.424 1.919zm-35.466-70.11 41.878 10.629 4.33-17.213-41.89-10.639 4.462-17.52-13.791-3.5-13.286 52.294 13.795 3.5 4.502-17.552m62.076-48.504-52.648-22.969-7.135 16.36 52.662 23.003 7.119-16.395m15.578-28.395-11.536-7.817-2.828-13.106 26.293 3.266 12.284-18.105-41.963-1.981-6.094-29.513-13.292 19.601 7.55 27.609-17.996-12.181-9.95 14.673 47.56 32.26zm43.766-53.601-15.463-17.363 14.473-12.9 15.461 17.395 13.353-11.897-38.175-42.92-13.34 11.842 13.34 15.032-14.491 12.874-13.323-14.989-13.292 11.781 38.173 42.954 13.284-11.81m101.983-62.926-5.328-11.942-27.952 12.42-4.6-10.328 25.225-11.215-4.778-10.669-25.201 11.181-3.639-8.32 27.17-12.08-4.94-11.25-43.606 19.384 23.339 52.504zm210.857 14.697 10.966-20.475 17.087 9.202-10.983 20.462 15.716 8.445 27.176-50.576-15.734-8.495-9.486 17.723-17.047-9.18 9.487-17.71-15.68-8.401-27.194 50.6zm68.473 47.6 39.688-20.148-21.78 38.768 12.914 13.396 26.528-55.314-13.547-14.097-56.36 24.272zm59.4 79.386 11.202-6.8-15.92-26.172 9.647-5.87 14.377 23.564 9.956-6.05-14.325-23.582 7.762-4.731 15.486 25.478 10.508-6.385-24.749-40.724-49.124 29.835zm9.12 22.45 41.89-13.091-38.576 23.646 3.932 12.629 45.17-2.504-41.875 13.078 4.39 13.937 54.821-17.138-6.955-22.334-36.013 1.992 30.737-18.846-6.997-22.46-54.9 17.145zm18.756 107.498 13.07-.815-1.81-30.53 11.305-.717 1.617 27.557 11.721-.744-1.718-27.46 9.109-.573 1.799 29.733 12.218-.771-2.839-47.552-57.378 3.464zm22.242 107.917c-1.349 3.468-3.591 5.741-6.72 6.905-3.069 1.1-7.155.712-12.175-1.244-5.972-2.349-9.748-4.928-11.276-7.765-1.524-2.841-1.654-6.024-.27-9.597 1.374-3.479 3.623-5.765 6.74-6.866 3.147-1.096 7.394-.596 12.798 1.5 5.456 2.134 8.958 4.713 10.522 7.62 1.535 2.926 1.719 6.095.381 9.447zm-4.427-33.591c-6.2-2.416-11.904-3.197-17.02-2.364-5.103.841-9.412 2.89-12.865 6.07-3.465 3.19-6.353 7.831-8.744 13.856-2.318 5.967-3.112 11.365-2.412 16.19.65 4.872 2.576 9.148 5.721 12.833 3.22 3.563 7.922 6.742 14.193 9.126 8.562 3.358 16.213 3.503 22.91.596 6.594-2.98 11.654-8.959 15.146-17.877 3.411-8.657 3.557-16.376.674-23.16-2.99-6.76-8.89-11.869-17.603-15.27m-59.71 62.186-9.82 14.912 20.052 13.288 15.59 36.999 10.816-16.39-9.7-20.345 22.517.992 10.89-16.475-40.21.274z"/><path d="m447.62 199.96-.085-.02v348.516l.208-.128c12.443-5.27 24.21-11.89 35.213-19.609l.068-.039v-262.688l.185.156c27.478 27.756 44.52 65.94 44.52 107.995 0 31.787-9.706 61.33-26.263 85.834l-.073.061v53.878l.13-.142c37.874-34.59 61.676-84.35 61.676-139.631 0-78.153-47.73-145.471-115.578-174.184m-73.434-14.857c-16.103 0-31.748 2.075-46.678 5.85h-.093v366.518h.093a190.852 190.852 0 0 0 46.678 5.79c18.971 0 37.312-2.853 54.59-8.063h.063v-37.567l-.063.085c-16.989 6.456-35.395 9.983-54.59 9.983-3.74 0-7.46-.08-11.153-.331l-.104-.043v-157.86h65.91v-35.49h-65.91v-112.934h.06c3.7-.288 7.44-.432 11.197-.432 19.195 0 37.601 3.587 54.59 10.017l.063.055v-37.467l-.063-.037c-17.325-5.215-35.619-8.074-54.59-8.074m-100.958 148.094-.022.777h-47.225l.015-.138c8.064-29.568 24.731-55.552 47.128-75.184l.104-.077zm-88.111 40.947c0 50.339 19.749 96.135 51.91 130.082l.094.084v-60.946c-10.562-20.813-16.502-44.338-16.502-69.22 0-1.536.03-3.01.06-4.528l.014-.15h52.513l.022.66v163.865l.161.101c11.059 6.98 22.817 12.868 35.244 17.428l.105.046v-354.767l-.06.04c-72.064 26.663-123.561 96.107-123.561 177.305m18.722 247.48c-5.024 0-9.12 4.086-9.12 9.148 0 5.041 4.096 9.18 9.12 9.18 5.057 0 9.183-4.139 9.183-9.18 0-5.062-4.126-9.147-9.183-9.147m85.325 30.319c-3.632 1.675-8.419 2.612-14.25 2.808l-3.54 12.837c3.94-.058 7.263-.408 10.018-.892 2.717-.551 5.684-1.433 8.793-2.667l-10.486 37.814 15.985 4.358 16.011-57.682-13.065-3.696c-2.641 3.161-5.826 5.534-9.466 7.12m63.377 22.92c-.3 3.117-1.277 5.448-2.95 7.014-1.718 1.5-3.693 2.158-5.991 1.934-2.203-.195-3.975-1.236-5.323-3.114-1.288-1.87-1.797-4.362-1.508-7.716.295-3.265 1.27-5.609 2.856-7.112 1.543-1.515 3.424-2.13 5.596-1.916 2.319.187 4.141 1.258 5.643 3.227 1.396 1.937 1.946 4.516 1.677 7.683zm7.034-16.704c-3.336-2.364-7.983-3.82-13.887-4.386-4.859-.431-8.996-.025-12.377 1.282-3.379 1.377-6.14 3.544-8.288 6.604-2.143 2.997-3.38 6.458-3.804 10.36-.505 5.732.857 10.608 4.128 14.676 3.288 4.077 7.544 6.353 12.78 6.785 2.702.326 5.134 0 7.28-.663 2.138-.76 4.285-2.045 6.406-3.846-1.121 6.273-2.281 10.309-3.567 12.15-1.724 2.517-3.873 3.618-6.486 3.432-1.502-.177-2.67-.716-3.633-1.748-.876-1.038-1.435-2.728-1.647-5.1l-16.368.554c.639 3.237 1.78 5.97 3.364 8.212 1.6 2.279 3.695 4.077 6.252 5.36 2.616 1.355 6.236 2.298 10.938 2.689 7.858.713 14.292-1.158 19.193-5.617 4.916-4.587 7.887-12.107 8.887-22.718.65-7.147.108-13.057-1.562-17.646-1.71-4.586-4.255-8.091-7.609-10.38m66.51 27.796a13.335 13.335 0 0 0 -5.02-4.357c-1.251-.661-3.04-1.164-5.358-1.47 2.656-1.777 4.55-3.784 5.733-5.94 1.194-2.248 1.672-4.604 1.438-7.076-.43-4.407-2.432-7.805-6.116-10.361-3.63-2.532-9.305-3.41-16.912-2.732-6.68.65-11.68 2.413-15.057 5.377-3.398 2.958-5.5 6.88-6.306 11.929l15.563 1.372c.204-2.981.77-5.11 1.85-6.377 1.11-1.255 2.656-1.966 4.541-2.148 1.847-.143 3.339.252 4.497 1.242 1.144.906 1.813 2.31 1.983 4.067.137 1.89-.363 3.633-1.685 5.106-1.247 1.509-2.948 2.334-5.086 2.516-.508.044-1.169.044-2.117 0l.236 11.708c2.185-.84 3.91-1.301 5.172-1.449 2.401-.215 4.365.385 5.925 1.692 1.525 1.417 2.421 3.409 2.65 6.19.235 2.685-.28 4.878-1.573 6.599-1.278 1.795-3.046 2.741-5.207 2.896-2.04.247-3.862-.232-5.263-1.417-1.508-1.078-2.672-3.297-3.639-6.526l-16.103 3.708c1.43 3.539 3.26 6.44 5.442 8.683 2.219 2.186 4.912 3.76 8.081 4.785 3.222.94 7.44 1.183 12.804.71 5.459-.553 9.781-1.787 13.005-3.82 3.201-1.986 5.492-4.7 7.01-7.973 1.471-3.314 2.071-6.677 1.755-10.072-.284-2.769-1.014-5-2.244-6.862m41.833 3.677c-.852 1.455-2.068 2.393-3.678 2.83-2.404.704-4.64-.054-6.627-2.414-2.05-2.231-4.115-7.025-6.187-14.213-2.003-7.098-2.79-12.197-2.412-15.158.461-3.01 1.937-4.882 4.57-5.622 2.526-.717 4.847 0 6.87 2.294 1.978 2.227 4.06 7.104 6.182 14.645 1.454 5.11 2.25 8.995 2.388 11.56.128 2.576-.23 4.588-1.106 6.078zm8.843-35.457c-1.169-2.082-2.44-3.818-3.84-5.221-1.326-1.427-3.04-2.7-4.962-3.754-1.979-1.055-4.344-1.719-7.033-1.97-2.715-.232-6.01.185-9.781 1.249-7.901 2.242-13.24 6.094-15.883 11.453-2.671 5.445-2.463 13.549.591 24.291 1.213 4.424 2.705 8.315 4.525 11.74 1.8 3.385 3.65 5.966 5.63 7.635 2.703 2.447 5.769 3.947 9.107 4.649 3.404.7 7.448.408 12.207-.991 8.522-2.394 13.837-6.5 15.973-12.208 2.145-5.806 1.713-13.83-1.178-24.116a60.466 60.466 0 0 0 -5.356-12.757m67.73-32.551a9.134 9.134 0 0 0 -9.171 9.147c0 5.041 4.077 9.18 9.17 9.18 5.043 0 9.177-4.139 9.177-9.18 0-5.062-4.134-9.147-9.177-9.147m134.245-208.174-14.593-19.806-12.945-1.89-7.026 47.944 12.917 1.921 4.44-30.291 14.595 19.873 17.153-15.17-4.279 29.432 12.084 1.812 6.957-47.15-12.134-1.792zm-320.819-316.988 24.678 1.25.766-14.8h-.047c-1.883-.667-3.482-1.787-4.688-3.28-2.024-2.455-2.946-6.41-2.638-11.897.284-5.463 1.584-9.341 3.824-11.672 2.314-2.237 5.24-3.303 8.835-3.103 3.768.239 6.627 1.51 8.71 3.963 2.066 2.475 2.933 6.224 2.7 11.274-.306 6.06-1.522 10.173-3.778 12.447-1.361 1.352-3.08 2.268-5.082 2.694l-.06.034-.706 14.714 24.601 1.243.677-13.072-7.933-.375.188-.144a22.353 22.353 0 0 0 5.867-5.742c2.373-3.542 3.818-8.193 4.117-13.948.417-7.893-1.864-14.158-6.83-18.78-4.982-4.669-12.247-7.258-21.763-7.693-9.28-.497-16.682 1.388-22.169 5.55-5.44 4.22-8.32 10.313-8.746 18.3-.297 5.758.74 10.579 3.228 14.553 1.367 2.223 3.01 4.079 4.97 5.726l.054.09-8.064-.422-.71 13.09m-255.217 417.784c-5.24 2.492-9.518 3.339-12.72 2.43-3.228-.878-5.612-2.902-7.154-6.11-1.586-3.404-1.757-6.672-.433-9.64 1.287-3.047 4.38-5.777 9.242-8.1 5.782-2.731 10.247-3.734 13.382-2.89 3.116.808 5.518 2.97 7.142 6.385 1.603 3.394 1.742 6.587.41 9.628-1.38 2.984-4.621 5.807-9.869 8.297zm21.023 5.244c2.856-4.323 4.347-8.817 4.387-13.54.038-4.738-1.363-10.006-4.178-15.855-2.732-5.708-6.127-10.067-10.105-12.883-3.976-2.847-8.38-4.369-13.268-4.51-4.837-.19-10.294 1.103-16.346 4.005-8.312 4.005-13.7 9.436-16.08 16.313-2.392 6.888-1.548 14.65 2.571 23.202 4.003 8.495 9.505 13.904 16.43 16.41 7.022 2.48 14.689 1.696 23.13-2.372 6.049-2.858 10.527-6.5 13.46-10.77"/><path d="m91.111 498.968 5.857 12.216 8.645-4.159-5.868-12.198-8.634 4.14m384.165-397.642-29.48-8.076 21.494-12.124-13.028-18.853 28.726 7.828 3.244-11.837-45.963-12.56-3.225 11.837 12.94 18.864-21.41 12.13-3.497 12.599 46.762 12.773zm-190.466-49.107 16.005-3.306 27.195 26.398-6.305-30.699 16.162-3.301 11.39 55.445-16.138 3.339-27.051-26.18 6.264 30.436-16.117 3.325-11.404-55.457"/></g></svg>