<svg viewBox="259.46 78.35 1050.05 1050.05" xmlns="http://www.w3.org/2000/svg"><clipPath id="a"><path d="M-982.131 627.465H194.592v-1080H-982.131z"/></clipPath><clipPath id="b"><path d="M-969.704 627.465H207.019v-1080H-969.704z"/></clipPath><clipPath id="c"><path d="M-582.18 422.944H594.541v-1080H-582.18z"/></clipPath><clipPath id="d"><path d="M-341.884 407.39H834.839v-1080H-341.884z"/></clipPath><clipPath id="e"><path d="M-523 303.884H653.723v-1080H-523z"/></clipPath><clipPath id="f"><path d="M-744.738 337.258H431.985v-1080H-744.738z"/></clipPath><clipPath id="g"><path d="M-833.125 406.99H343.598v-1080H-833.125z"/></clipPath><path clip-path="url(#a)" d="M0 0c0-217.473-176.297-393.77-393.77-393.77S-787.539-217.473-787.539 0s176.297 393.77 393.769 393.77C-176.297 393.77 0 217.473 0 0" fill="#fff" transform="matrix(1.33333 0 0 -1.33333 1309.508 603.38)"/><path clip-path="url(#b)" d="M0 0c0-210.61-170.733-381.343-381.343-381.343S-762.686-210.61-762.686 0s170.733 381.343 381.343 381.343S0 210.61 0 0" transform="matrix(1.33333 0 0 -1.33333 1292.94 603.38)"/><path clip-path="url(#c)" d="M0 0c.28 3.907.382 7.823.382 11.74v35.972h10.455v-34.6c0-4.147.121-8.297.441-12.432C25.167-178.79 136.66-339.375 307.285-382.96c31.032 52.252 48.872 113.257 48.872 178.438 0 193.287-156.69 349.976-349.976 349.976-193.287 0-349.977-156.689-349.977-349.976 0-64.992 17.738-125.833 48.604-177.984C-118.369-338.773-12.044-168.259 0 0" fill="#fff" transform="matrix(1.33333 0 0 -1.33333 776.241 330.684)"/><g fill="#62a1ff"><path clip-path="url(#d)" d="M0 0c-52.409-58.479-84.302-135.752-84.302-220.49 0-54.786 13.34-106.449 36.925-151.937 4.624 1.578 28.152 9.723 47.377 18.479z" transform="matrix(1.33333 0 0 -1.33333 455.846 309.946)"/><path clip-path="url(#e)" d="M0 0a327.7 327.7 0 0 1-92.843-33.607v-363.826c3.93 3.571 65.828 60.608 92.843 134.946z" transform="matrix(1.33333 0 0 -1.33333 697.333 171.938)"/><path clip-path="url(#f)" d="M0 0c-28.674 15.55-59.902 26.983-92.9 33.487v-260.618c1.677-4.711 28.781-78.854 92.814-136.252l.086-.013z" transform="matrix(1.33333 0 0 -1.33333 992.984 216.436)"/><path clip-path="url(#g)" d="M0 0v-354.199l.143-.128s24.46-11.385 47.86-18.018c23.428 45.37 36.67 96.863 36.67 151.455C84.673-135.954 52.63-58.522 0 0" transform="matrix(1.33333 0 0 -1.33333 1110.833 309.413)"/></g></svg>