<svg viewBox="0 0 68.84 95.83" xmlns="http://www.w3.org/2000/svg"><path d="M34.4 0a78.78 78.78 0 0 1 24.2 3.56l1.47.49v3.49a11.85 11.85 0 0 0 7.44 11l1.33.55V53.8c0 13.71-6.26 24.88-17 33.05a58.07 58.07 0 0 1-11.57 6.78 44.1 44.1 0 0 1-5.34 2l-.6.17-.59-.17a42.9 42.9 0 0 1-5.3-2 57.44 57.44 0 0 1-11.48-6.79C6.19 78.66 0 67.47 0 53.8V19.15l1.3-.56a11.88 11.88 0 0 0 7.26-11V4.1L10 3.62A78.56 78.56 0 0 1 34.4 0" fill="#fff"/><path d="M34.4 2.15A77 77 0 0 1 57.93 5.6v1.91a14 14 0 0 0 8.76 13.06V53.8c0 30.51-32.39 39.79-32.39 39.79S2.15 84.31 2.15 53.8V20.57a14 14 0 0 0 8.56-13V5.66A76.57 76.57 0 0 1 34.4 2.15" fill="#1a171c"/><path d="M65.62 36v-.47a51.94 51.94 0 0 0-25.94 6.84l-.31.19q1.05 1.21 2 2.52a37.66 37.66 0 0 1 6.76 16.12 28.52 28.52 0 0 0 15.81-16.1 26.67 26.67 0 0 0 1.68-9.1" fill="#ffed00"/><path d="M34.46 92.42l.91-.32c1.22-.43 2.43-.92 3.62-1.45a55.55 55.55 0 0 0 10.91-6.41c10-7.56 15.72-17.77 15.72-30.44V43.45c-.2.68-.42 1.36-.67 2a27.8 27.8 0 0 1-5 8.49 31.4 31.4 0 0 1-11.63 8.34 33.06 33.06 0 0 1 .22 3.72 31.65 31.65 0 0 1-1.74 10.78 30.24 30.24 0 0 1-8.37 12.6 32.36 32.36 0 0 1-4 3" fill="#e0001a"/><path d="M29.24 64a11.53 11.53 0 0 1 1.33.12 38.28 38.28 0 0 0 16.52-2.48 37.27 37.27 0 0 0-8.67-18.51A47.42 47.42 0 0 0 21.9 60.19a43.59 43.59 0 0 0-4 9.94 12.9 12.9 0 0 1 11-6.15h.38" fill="#fff"/><path d="M27.72 89.75c.66.32 1.33.63 2 .93 1.09.49 2.21.94 3.33 1.35a29.4 29.4 0 0 0 12.74-15.61 30.79 30.79 0 0 0 1.46-13.7 37.46 37.46 0 0 1-5.71 1.69 40.46 40.46 0 0 1-7.1.83 12.92 12.92 0 0 1-5.58 24.56h-1.14" fill="#009c30"/><path d="M16.42 82.28c.41.36.83.71 1.26 1.06a12.52 12.52 0 0 1-1.25-3v1.93z" fill="#6bb024"/><path d="M38.51 25.76A66.81 66.81 0 0 1 46.25 23v-7.33c-2.56-.37-5.15-.61-7.74-.73zM20.87 37.09a64.11 64.11 0 0 1 7.74-6V15c-2.57.16-5.16.45-7.74.86zM3.23 21.26V53.8a38.9 38.9 0 0 0 1 8.69 57.14 57.14 0 0 1 4.44-10.1c.73-1.31 1.52-2.59 2.34-3.84V18.21a56.58 56.58 0 0 0-7.74 3.05m52.92-.42a70.27 70.27 0 0 1 7.11-.6 67.94 67.94 0 0 0-7.11-2.48z" fill="#005ea6"/><path d="M29.69 30.41c.71-.45 1.44-.88 2.17-1.3a61.17 61.17 0 0 1 5.58-2.87V14.9c-1 0-2-.05-3-.05-1.56 0-3.14 0-4.72.13zM12.05 47a60.85 60.85 0 0 1 7.75-8.9v-22a67.56 67.56 0 0 0-7.75 1.8zm35.28-24.34A66 66 0 0 1 55.08 21v-3.54a75.64 75.64 0 0 0-7.75-1.63z" fill="#e0001a"/><path d="M11.79 6.44v1.12a15 15 0 0 1-4.6 10.93 77.69 77.69 0 0 1 27.22-4.72 77.93 77.93 0 0 1 27.07 4.67A14.9 14.9 0 0 1 56.85 7.5V6.39a76.22 76.22 0 0 0-22.44-3.16 76.33 76.33 0 0 0-22.62 3.21m53.83 14.83C36.51 21.27 12 39.57 4.7 64.46a37.23 37.23 0 0 0 10.64 16.85v-.17c0-25.78 22.51-46.69 50.28-46.69z" fill="#fff"/><path d="M30.82 65.22l-2 2 2.06 3 4.28.6 2.3-2.06a12.09 12.09 0 0 0-6.66-3.56m5.2 6.34l.2 4.57 2.53 2.45 1.88-.34a11.46 11.46 0 0 0-2.44-8.62zM29.89 82.2l1.79-3.86L35.56 77l2.2 2.16-1.69 4-4.07 1.4zm2.3 3.48l3.88-1.4 1 1.1a11.13 11.13 0 0 1-6.79 3.26l-.48-.82zm-3.2 3l-.28-.48L24 86.72l-1.4.22a12.23 12.23 0 0 0 6.4 1.78m-4.49-12.06l-1.35 3.18 2 2.79 3.73-.9 1.69-3.62-2.49-2.53zM21.36 86A11.41 11.41 0 0 1 18 81.6l.83-1.6 3.58.6 1.91 2.78-.82 2.35zm-3.83-5.71l.57-1-.29-3.94-.64-.29a12.29 12.29 0 0 0-.17 1.83 13.92 13.92 0 0 0 .5 3.42m5.6-11.14l-1.91-1.29a11.8 11.8 0 0 0-3.8 6.12l1 .41 2.83-1.53zm-.75 3.93l1.75-4 3.9-1.26 2 2.9-2.2 3.88-3.43 1z" fill="#fff"/><g fill="#1a171c"><path d="M48 11.45L45 5l-1.42-.21L42.3 13l1.4.22.89-5.84 3 6.42L49 14l1.24-8.21-1.4-.21zm-6.28-6.79l-.1 1.41-2.86-.2-.13 1.78 2.46.18L41 9.22 38.53 9l-.16 2.28 2.86.2-.1 1.41-4.28-.3.59-8.28zm-5.86 1.11l-3.61 5.47h3.61v1.42h-5.23v-1.42l3.62-5.47h-3.62V4.35h5.23zm-8.92 5.75l2.49-.22.13 1.42-3.91.34-.73-8.28 1.41-.12zm-4.51-4.13a.94.94 0 0 0-1.25-.68l-1.12.22.34 1.78 1.13-.22c.36-.08 1.06-.28.9-1.1m-1.75 2.69l.71 3.63L20 14l-1.6-8.17 1.38-.27c1.3-.25 3.59-.7 4 1.56.49 2.45-1.46 2.63-3.13 3M46 5.71l-.58-1.25 1 .14.48 1.05.77-.86 1 .16-.92 1zM19.23 43.14l3.49 6.56-7.08-2.3-.98 1.17 9.16 3.07.99-1.18-4.6-8.5zm1.88-1.9l6.22 6.49 1.11-1.06-6.21-6.49zm7.91-6.6l-1.48 1.18-.3 4.66-2.15-2.73-1.22.96 5.6 7.04 1.2-.96-2.49-3.13 4.93 1.2 1.49-1.18-5.9-1.39zM16.89 57.53a3 3 0 0 1-.15 2.28 3 3 0 0 1-5.35-2.61 2.94 2.94 0 0 1 1.7-1.52l-.49-1.43a4.49 4.49 0 0 0-.5 8.29A4.49 4.49 0 0 0 18.31 57zm-4.48 6.28l-1.43-.5-1 2.91-1.85-.64 1-2.91-1.42-.49-1.51 4.36 8.5 2.93.5-1.46-3.79-1.3z"/><path d="M51.373 24.895l1.5-.297 1.745 8.82-1.5.296z"/><path d="M34.56 32.92l-.83-1.26-3.9 2.44.8 1.28 1.3-.81 3.97 6.33 1.3-.81-3.97-6.34zm13.17-3.41l-1.18.36L46 28l1.18-.37a1 1 0 0 1 1.43.59c.27.87-.46 1.17-.85 1.29m4.71 4.29l-3.79-3a2.2 2.2 0 0 0 1.39-3c-.73-2.37-3.15-1.63-4.51-1.22l-1.5.42 2.64 8.6 1.46-.45c-.34-1.14-.82-2.69-1.17-3.83l3.73 3zm5.77-4.93l.88-2.87 1.44 2.68zm1.41-5.15l-1.51.15-2.79 9.32L57 33l.77-2.58 3.56-.37 1.27 2.37 1.66-.17zM41.39 36.15a3 3 0 1 1 1.48-3.94 3 3 0 0 1-1.48 3.94m-3.09-6.8a4.49 4.49 0 1 0 6 2.23 4.49 4.49 0 0 0-6-2.23"/></g></svg>