<svg viewBox="158.76 97.9 5392.03 6593.8" xmlns="http://www.w3.org/2000/svg"><radialGradient id="a" cx="345.76" cy="240.272" gradientUnits="userSpaceOnUse" r="7539.367"><stop offset="0" stop-color="#1f2426"/><stop offset="1"/></radialGradient><g clip-rule="evenodd" fill-rule="evenodd"><path d="M1354.6 5623.8c-3.9-2.1-7.8-4.5-11.7-6.6-486.5-284.5-890.2-702-1164.5-1204.6l606.9 104.1 215.6-447.3 1423.9 731.4 134.1 123.5zm3000.5 0c3.9-2.1 7.8-4.5 11.8-6.6 486.5-284.5 890.2-702 1164.5-1204.6l-606.9 104.1-215.6-447.3L3285 4800.8l-134.1 123.5z" fill="#ffd100"/><path d="M2241.3 5108l-189.5 594.9-676.8-415.2zm1224.2-5.7l192.4 600.6 676.8-415.2z" fill="#ae892e"/><path d="M2854.5 6672c702.2 0 1360.4-193.4 1922.7-533.9l-446.6-843c-440.5 201.8-943.2 316.2-1476.1 316.2S1819.6 5497 1379.1 5295.1l-446.4 843c562.1 340.5 1219.5 533.9 1921.8 533.9" fill="#002f87"/><path d="M1504.4 5660.3l-39.4 120.6c93 16.8 131.6 20.2 231.6 11.6l-159.2 489.2 141.2 59.7 217.1-666.8-153.5-49.9c-93.7 58.7-189.4 43.4-237.8 35.6m887.1 100.6c-221.2-31.1-352.2 60.1-372.6 204-14.5 102.4 31.9 227.1 237.5 256.1 61.5 8.6 118.2 7.1 173.8-9.6 39.7-10.4 56.2-21.7 81.1-39.5-13.5 51.3-27.4 104.5-74 140.6-54 42.5-122.2 36-149.4 32.3-108.4-15.3-130.2-72.6-137.6-96.1L1977 6239c3.9 32.5 8.2 70.5 43.3 115.9 70.3 90.8 178.4 109.2 229.5 116.3 76.4 10.7 270.2 31.9 372.2-140 33.7-57.2 52.3-121.6 61.5-186.2 16.6-119-9.6-211-53.8-267.4-73.2-93.4-200.7-111.2-238.2-116.7m129.4 260c-12.1 85.5-106.9 94.6-195.8 82-56.4-8-147.6-32.5-134.1-127.4 11-78.3 83-99.1 167-90.5 61.1 5.5 177.7 30.5 162.9 135.9m715.3 5.8c-136.7 11.4-194.8 75.4-220.1 103-.6-46.6-.6-110 49.9-162.9 25.5-26.4 64.8-48.7 121.6-53.4 94.6-7.8 132 36.8 156.6 64.2l177.2-30.3c-14.1-29.6-24.5-52.1-52.1-79.3-71.5-72.4-177.8-91-280.8-82.6-151.1 12.5-363 112.6-338.7 405.7 14.7 178.5 111.6 337.7 387.8 314.8 133.3-11 210.6-60.7 250.4-105.3 34.9-38.8 64.6-99.5 58.7-170.9-9.6-120-115.1-219-310.5-203m-19 347.5c-50.3 4.1-109.6 2.8-149.4-41.5-17.4-19.8-23.3-40.3-24.7-57.2-5.5-64.2 54.2-111.4 141.2-121.8 72.2-9.2 178.8 1.2 186.6 95.5 7 84.3-73.8 118.4-153.7 125m1128.7-274.4l-35.2-117.1-109.1 32.7-121-402.7-174.6 52.5-252.4 515.1 35.2 117.1 383.5-115.3 40.7 135.3 164.4-49.5-40.7-135.3zm-532.9 32.5l122-256.9c4.3-7.8 32.5-71.5 31.7-74.4 2 13.7 4.1 28.4 7.2 42.9 2.9 13.5 7.2 27.6 11.5 41.7l51.7 179.4z" fill="#ffd100"/><path d="M2847.8 5154.4c1701.5 0 1874.9-1143.9 1936.2-1412.7 61.5-268.8 144.3-1869.2 183.4-2292.1 39.2-423.1 254.9-889 254.9-889s-1067.4-443-2374.9-443h-.4c-1307.4 0-2374.7 443-2374.7 443s215.7 465.9 254.9 889c39.2 422.9 122 2023.3 183.2 2292.1 61.5 268.8 234.7 1412.7 1936.4 1412.7z" fill="#002f87"/><path d="M2032.4 2006.3v-730c8.8-220.2 104.1-426.8 268.8-580.9 128.6-120.4 272.3-198.5 438.1-227.3 10.4 19 25.6 30.9 39.9 38-14.9 15.1-32.9 33.5-38.4 69.3l3.7-1C2595.5 622 2487 762 2487 926.7c0 33.9 2.5 54.4 10.6 84.2l.4.8.2.8c.6 1.6 1.2 3.5 1.8 5.3l-4.5 1.6-5.3-38.2h-30.5l8 57.6h-3.1c-5.7.8-9-1-14.3-5.1-5.3-4.3-8.8-10.4-9.4-16.8-.6-4.5 1.4-7.4 12.3-32.3 15.5-35.6 15.3-50.1 11.2-58.5l-30.7.4s1 10.8-14.7 39c-16.5 29.6-18.6 40.9-17 55.6 1.6 16.8 10.6 32.7 24.3 43.5 13.5 10.6 27.8 15.5 43.7 13.1h3.3l105.7 746.1 2.5 8.2c68.5 17.8 163.1 37 267.6 37h1.8c104.5 0 199.1-19.2 267.6-37l2.5-8.2 105.7-746.1h3.5c16.1 2.4 30.3-2.5 43.9-13.1 13.7-10.8 22.5-26.6 24.3-43.5 1.6-14.7-.6-26-17-55.6-15.7-28.2-14.7-39-14.7-39l-30.7-.4c-4.1 8.4-4.3 22.9 11.1 58.5 11 24.9 12.7 27.8 12.3 32.3-.6 6.5-4.1 12.5-9.6 16.8-5.1 4.1-8.6 5.9-14.1 5.1h-3.5l8-57.6h-30.6l-4.5 32.9-3.1-.6.2-1 .4-.8.2-.8c8-29.8 10.6-50.3 10.6-84.2 0-161.3-104-298.8-248.4-349.1l-1.4-.6c-1.9-16.4-7.8-29.4-15.8-39.7h-78.7c8.6 5.1 17.6 12.1 23.1 22.9-16.4-1.8-35.4-2.9-35.4-2.9-15.1 0-30 1-44.6 2.7v-1.6c8.4-17.6 26.2-25.1 36-29.4l51.5-25.5c13.1-5.1 38.4-16.2 55.8-38 170.1 26.2 311.9 105.5 444.8 229.8 164.7 154.1 260 360.6 268.6 580.9v730c-227.9-47-511.2-75-817.9-75-307.2.2-590.5 28.2-818.6 75.1M2853.5 625c-19.8 0-33.9-10.8-40.1-25.8 14.3-1.8 28.6-2.7 43.3-2.7 0 0 18.4 1 36.4 3.3-6.5 14.8-20.8 25.2-39.6 25.2m109.8-6.3c123.4 48 210.9 168 210.9 308 0 30.7-2.2 47.4-9.2 73.8-.4 1.2-1 2.9-1.6 4.9-68.1-25.8-182.9-42.7-312.7-42.7h-1.8c-129.6 0-243.9 16.8-312.1 42.5-.6-2-1.2-3.5-1.6-4.7-7-26.4-9.2-43.1-9.2-73.8 0-143.7 92.4-266.3 220.8-311.7 13.1 39.3 54.8 65.8 105.9 65.8 53.2 0 92.4-27.4 105.9-63.8 3.2.9 4.7 1.7 4.7 1.7m1252 1685.8c-2.9-113.4-188.5-215-479.6-283.3v-773.5c-9-231.4-108.8-447.5-281.1-608.5C3320.8 514 3154 432.7 2974.1 402.4v-4.1c-5.9-58.7-57.2-89.7-123-89.7-79.1 0-120 46.4-124.5 93.8-179.9 30.4-346.3 111.8-480 236.9-172.1 160.9-271.9 377.1-280.9 608.5v773.5c-291.1 68.3-476.5 169.9-479.4 283.3h-.2v2109.1c0 207.5 611 375.9 1364.7 375.9s1364.7-168.4 1364.7-375.9V2304.5zM1735.8 825.8l-.7-3.2-1.3-2.9-1-2-.4-.8-2.7-2.4-2-1.6-3.2-1.7-3.2-.8-252.5-54.2L1339.9 531l-2.1-2.8-2.2-2.1-2.5-1.8-.7-.5-2.7-.8-2.3-.8-3.5-.4-3 .2-3.4 1-1.8.5-.9.2-2.8 2.2-1.8 1.5-.9.8-1.4 3.4-129.2 224.7L926 810.1l-2.5.6-.9.2-2.7 1.9-2 1.6-2.2 2.6-1.5 1.9-1.6 2.8-1 3.3-.2.8.3 3.2.2 2.2.7 3 1.3 2.9 2.2 3 173.1 193.8-27 258.4-.2 2.2-.1.6.5 3 .7 2.6.2.8 2.1 2.9 1.1 1.6 2.4 2.4 2.4 1.7 3.3 1.5.7.3 2.9.3 2.4.2 3.3-.2 3.2-.7 236.7-105.9 235.8 105.4 2.6.8 3.2.5 3.6-.2 2.4-.2 1.4-.1 1.9-1.4-.1.2 3-1.8 2.2-1.8 2-2.2 1.3-2.2.1-.2.3-.3 1.2-3.2.2-.6.2-3 .2-2.1-26.8-259.4 173.1-193.6.9-2.1.1.2 1.5-2.8 1-3.6.5-2 .2-.8zm-201.5 200l27.1 260.5-237.6-106.7-237.8 106.7 27.3-260.5-1.4-1.6L939.3 831l254.7-54.1 129.9-227.1 130 227.1 254.8 54.5zm-88-221.7l-2.9-1.2-3.1-1.8-2.5-2v.4l-2.9-2.4-2.6-2.5-2.1-2.5-1.8-2.9-104.3-181.7-104.3 181.7v.4l-2.2 2.7-1.2 1.2-.4.2-.2.4-.4.8-2.6 2.3-2.5 2.4-1.8 1-.8.4-.4.2-.2.4-1.6.6-1.6.8-3.1 1.2-3.3 1.2-204 43.7 139.4 156 .4.2 2.9 3.3v.4l1.4 2.6 1.4 2.3 1 2.7.8 2.9.8 5.5.2 2.9v3.3l-21.9 208.7 190.5-85.6 6.7-2.4 7-.6h3.3l3.5.6 6.5 2.4h.4l190.7 85.6-21.9-208.7-.6-3.7.2-3.5.6-3.5 1.2-3.1 1.2-3.5 1.4-2.9 1.8-3.1 2.5-2.7 139.8-156-204.7-43.9zM4829 825.9l-.7-3.2-1.3-3-1-2-1.1-1.5-2-1.8-2-1.6-3.2-1.7-3.2-.8-252.7-54.1L4433.1 531l-2.1-2.9-2.3-2.1-2.5-1.9-1.5-.7-1.9-.6-2.2-.7-3.5-.4-3.2.2-1.4.3-2 .8-1.6.4-1.8.9-2 1.5-1.7 1.5-1.3 1.8-1 2.3L4272 756.3l-252.7 53.8-2.5.6-1.6.7-1.9 1.4-2 1.5-2.2 2.6-1.5 1.9-1.5 2.8-.9 3.3-.2 1.6.2 2.4.2 2.2.7 2.9 1.3 2.9 2.2 2.9 173.2 193.8-27 258.4-.2 2.2.1 1.3.4 2.4.7 2.6.8 1.6 1.5 2.2 1 1.6 2.4 2.3 2.4 1.7 3.3 1.5 1.5.3 2.2.2 2.4.2 3.3-.2 3.2-.7 236.6-105.9 235.8 105.2 2.2.9 3.6.7 3.7-.2 2.4-.2 2.2-1h.1l1.7-.7 2.2-1.4 2.2-1.8 2-2.2 1.3-2.2.1-.3.7-1.1.8-2.2.3-1.3.2-2.3.2-2.1-26.8-259.4 172.6-193 .8-1.3.6-1.4.1.2 1.5-2.8 1-3.6.5-2 .1-1.6zm-200 198.3l-1.3 3.8 26.9 258.4-235.6-105.7h-4l-235.8 105.7 27.1-258.4-1.2-3.8L4032.5 831l252.5-53.6 3.2-2.4 128.9-225.1L4546 775l3.2 2.4 252.5 54zm-89.5-220.1l-2.9-1.2-3.1-1.8-2.8-2v.4l-2.7-2.4-2.6-2.5-2.2-2.5-2-2.9L4417 607.5l-104.4 181.7v.4l-2.1 2.7-1.2 1.2-.4.2-.2.4-.4.8-2.5 2.3-2.5 2.4-1.8.8-.8.6-.4.2-.2.4-1.6.6-1.6.8-3.1 1.2-3.3 1.2-204 43.7 139.4 156 .4.2 2.9 3.3v.4l1.4 2.6 1.2 2.3 1.2 2.7.8 2.9.8 5.5.2 2.9v3.3l-22.1 208.7 190.7-85.8 6.7-2.2 7-.6h3.3l3.5.6 6.5 2.2h.4l190.7 85.8-21.9-208.7-.6-3.7.2-3.5.6-3.5 1.2-3.1 1.2-3.5 1.4-2.9 1.8-3.1 2.5-2.7 139.8-156-204.4-43.7z" fill="#ffd100"/></g><path d="M1756.6 4527.9c.8.3 1.7.4 2.5.4 3 0 5.8-1.9 6.9-4.8 1.4-3.8-.6-8-4.3-9.4-101.6-37.2-178.4-79.6-223.3-124.8-2.9-2.9-7.5-2.9-10.4 0-2.9 2.8-2.9 7.5 0 10.4 47.5 47.7 125.8 90.6 228.6 128.2m5-69.3c-101.6-37-178.3-79.6-223.2-124.6-2.9-2.9-7.5-2.9-10.4 0-2.8 2.9-2.8 7.5 0 10.4 47.5 47.5 125.8 90.5 228.6 128 .8.3 1.7.4 2.5.4 3 0 5.8-1.8 6.9-4.8 1.4-3.8-.6-8.1-4.4-9.4m0-55.5c-101.6-37.2-178.4-79.6-223.2-124.7-2.9-2.9-7.5-2.9-10.4 0-2.9 2.8-2.9 7.5 0 10.4 47.6 47.7 125.8 90.5 228.6 128.2.8.3 1.6.4 2.5.4 3 0 5.8-1.9 6.9-4.8 1.4-3.8-.6-8.1-4.4-9.5m-2.5-346.5c3 0 5.9-1.9 6.9-4.8 1.4-3.8-.6-8-4.4-9.4-101.6-37.1-178.4-79.6-223.2-124.6-2.9-2.9-7.6-2.9-10.4 0-2.9 2.9-2.9 7.5 0 10.4 47.5 47.5 125.8 90.3 228.6 128 .8.2 1.6.4 2.5.4m-2.5-56.1c.8.3 1.7.4 2.5.4 3 0 5.8-1.9 6.9-4.8 1.4-3.8-.6-8-4.4-9.4-101.6-37-178.3-79.5-223.2-124.6-2.9-2.9-7.5-2.9-10.4 0s-2.9 7.5 0 10.4c47.5 47.7 125.8 90.6 228.6 128m3790.6 400.7c-4.4-6.1-11.9-9.2-19.3-7.9l-592.3 101.6-209.1-434.1c-1-2-2.4-3.7-3.9-5.1 45.5-134.8 66.2-247 80.5-309.7 31.4-138.4 67.1-604.1 100.5-1091.3 33.3-486.6 63.8-992.7 83.3-1203.4 19.3-208.9 82.6-430 141.1-598.5s112-283.7 112.1-284.1c2.2-4.8 2.4-10.4.4-15.3-1.9-4.9-5.8-8.9-10.7-11-1.3-.4-1070.4-444.4-2382.4-444.5h-.4C1535.2 98 466.1 542 464.8 542.5c-4.9 2-8.8 6.1-10.7 11s-1.7 10.5.4 15.3c.2.3 53.5 115.6 112 284.1s121.9 389.6 141.1 598.5c19.5 210.7 50 716.8 83.3 1203.4 33.4 487.2 69 952.9 100.4 1091.3 15 65.2 36.8 184.1 86.4 326.3L774.1 4495l-592.4-101.7c-7.4-1.3-14.9 1.8-19.3 7.9-4.3 6.1-4.9 14.2-1.2 20.8 253.6 464.7 617.2 856.9 1054.6 1139.7L915.5 6129c-4.9 9.2-1.7 20.5 7.2 25.9 565 342.3 1226 536.8 1931.8 536.8s1367.6-194.5 1932.8-536.8c8.9-5.4 12-16.7 7.1-25.9l-300.5-567.3c437.3-282.7 800.9-675.1 1054.5-1139.7 3.6-6.6 3.1-14.7-1.2-20.8M929.5 3737.3C899.6 3606.9 863.1 3138 830 2652c-33.3-486.5-63.7-992.1-83.3-1204.3-35.2-377.7-207.9-785.4-248.2-876.6 27.4-10.8 84.5-32.7 167.4-61.3C1026 385.6 1869.8 137 2847 137.1h.4c651.5 0 1243.8 110.5 1672.9 220.9 214.6 55.2 388.4 110.5 508.4 151.8 82.9 28.6 139.9 50.5 167.4 61.3-40.3 91.2-213.1 498.9-248.2 876.6-19.6 212.2-50.1 717.8-83.4 1204.3-33.2 485.9-69.6 954.9-99.7 1085.3-30.8 135.3-88.9 483.6-349 799-260.2 314.9-721.5 598.1-1568 598.4v.1h-1c-846.6-.3-1308-283.6-1568.2-598.5-128.8-156.2-208.1-320.4-259-462.9 1.5-7.2-1-14.3-6.6-19-47.3-136.8-68.6-251.8-83.5-317.1m1328.3 1383.4c173.1 34.1 368.4 53.4 589 53.3l1-.1v.1h1.3c225.8 0 424.9-20.3 600.9-56l128.4 400.9c-232.5 47.4-474.8 72.8-723.9 72.8s-491.2-25.4-723.5-72.8zM2092.4 5511c-227.7-49.2-445.4-120-650.4-209.5l770.4-167.2zm1402.1-382.2l773.7 172.5c-205.2 89.6-423.2 160.5-651.3 209.7zm-3279.2-690L782 4536c8.6 1.5 17.1-2.9 20.9-10.8l193.5-401.6c52.4 136.8 130.7 290.7 252 437.7 186.9 226.8 476.1 436 925.4 541.3L1375 5276c-.4.1-.6.3-.9.4-1.4.4-2.7 1.1-4.1 1.8-.9.5-1.9.9-2.7 1.5-1 .7-1.7 1.7-2.5 2.7-.9 1-1.8 1.9-2.4 3-.1.2-.3.4-.5.6l-127.6 240.9c-419.4-271.9-770-645.7-1019-1088.1m4535.8 1692.1c-555.8 332.8-1204.7 521.5-1896.7 521.5-692.1 0-1340.1-188.8-1895.7-521.5l429.1-810.3c439 198.3 937.7 310.3 1466.7 310.3 528.9 0 1028.4-112.1 1467.4-310.3zm-275.6-604L4347.8 5286c-.1-.2-.3-.3-.5-.6-.6-1.1-1.6-2-2.4-3-.8-.9-1.5-1.9-2.5-2.6-.8-.6-1.8-1-2.7-1.5-1.3-.7-2.6-1.4-4.1-1.8-.3-.1-.5-.3-.9-.4l-796.4-177.5c439.3-106.6 723.2-313.4 907.7-537.2 126.5-153.3 206.4-314.1 258.7-455.3l202 419.2c3.8 7.9 12.3 12.3 21 10.8l566.7-97.2c-249 442.2-599.6 816.3-1018.9 1088m-2893.1-951.8c214.3 138.9 700 232.3 1267.7 232.7 378.2 0 720.6-42.2 969.8-110.8 124.7-34.4 226.1-75.3 297.8-121.9 71.1-46.4 115.4-100.1 115.8-162.1V2304.2c-.7-68.6-54-126.7-139.3-176.6-83-48.4-199.2-90.2-340.4-124.3v-755.8c-9.4-237.1-111.5-458-287.1-622.4-135.5-126.8-304-209.3-485.9-240.7-12.2-56.4-66.7-85.9-130.3-85.4-73.9.1-118 39.6-130.6 85-182.2 31.3-351 114.4-486.7 241.2-175.6 164.3-277.7 385.3-286.9 621.6v756.6c-141.3 34.2-257.6 76.1-340.5 124.5-85.1 49.9-138.4 107.8-139.1 176.3V4413c.3 62 44.5 115.7 115.7 162.1M2890.1 4770c-13.3.1-26.5.2-39.9.2-275.2 0-531.1-22.6-744.7-61.2l2.4-488.5c214.3 38.1 468.7 59.9 742.3 60.2 13.4 0 26.7-.1 40-.2zm3.8-4223.7h48.3c7 10.5 11.8 23.7 11.9 41.3 0 43.7-38.9 82.9-101.8 83.2-43.7-.1-78.6-20.3-93.2-50 15.8-5 32.1-8.6 48.8-11.1 8.9 14.4 24.8 24.4 44.8 24.3 31.1 0 52.8-24.4 52.8-52.8.1-14.7-4.8-26.1-11.6-34.9m201.6 630.8c.3 0 .6 0 1-.1 42.5-8.5 83.2-21.4 110.7-34.5l-2.4 16.7c-26.1 13.2-68.6 27.1-113 35.8-2.7.5-4.4 3.1-3.8 5.8.5 2.3 2.5 3.9 4.8 3.9.3 0 .7 0 1-.1 41.9-8.2 81.9-20.8 109.4-33.7l-2.6 18.1c-25.4 13-63.8 25-108.8 33.8-2.6.5-4.4 3.1-3.8 5.8.5 2.3 2.5 4 4.8 4 .3 0 .6 0 1-.1 42.1-8.3 78.8-19.2 105.2-31.7l-2.4 17c-24.9 12.7-59.9 23.9-104.8 32.9-2.7.5-4.4 3.1-3.8 5.8.5 2.3 2.5 3.9 4.8 3.9.3 0 .6 0 1-.1 42.2-8.5 75.6-18.9 101.2-31l-2.6 18.3c-25.2 13.1-60.2 24.5-106 33.7-2.7.5-4.4 3.1-3.9 5.8.5 2.3 2.5 3.9 4.8 3.9.3 0 .7 0 1-.1 42.9-8.6 76.6-19.2 102.4-31.7l-2.4 16.6c-25.1 13-59.8 24.2-104.7 33-2.7.5-4.4 3.1-3.8 5.8.5 2.3 2.5 4 4.8 4 .3 0 .6 0 1-.1 42.1-8.3 75.5-18.7 101.2-31l-2.4 16.6c-29.4 16.2-77 29.6-136.8 38.9l16.8-192.6c55-9.7 100.1-23 130.5-39.1l2.3-1.7 1.5-1.6 2.6-5.3 15.9-112.5h11.6l-19.9 140.6c-25.9 13.4-69.2 27.7-114.3 36.7-2.7.5-4.4 3.1-3.9 5.8.4 2.2 2.5 3.8 4.8 3.8m-27.7 271.1c.3 0 .6 0 1-.1 38.3-7.5 74.5-18.9 99.4-30.6l-2.5 17.8c-24.6 11.9-62.9 24-103.9 31.9-2.7.5-4.4 3.1-3.9 5.7.5 2.3 2.5 4 4.8 4 .3 0 .6 0 1-.1 38.6-7.5 74.7-18.5 100.3-30l-2.7 18.8c-24.3 11.7-60.1 21.8-101.9 29.6-2.7.5-4.4 3.1-3.9 5.7.4 2.4 2.5 4 4.8 4 .3 0 .6 0 .9-.1 39.1-7.4 73.2-16.5 98.4-27.7l-2.5 17.6c-24.9 12.8-57.8 21-104.7 29.4-2.7.5-4.4 3.1-4 5.7.4 2.4 2.5 4 4.8 4 .3 0 .6 0 .9-.1 43.6-7.8 75.7-15.4 101.3-27.3l-2.5 17.9c-24.5 11.6-56.5 19.6-101 27.6-2.7.5-4.4 3-3.9 5.7.4 2.4 2.5 4 4.8 4 .3 0 .6 0 .9-.1 41.4-7.5 72.5-14.9 97.6-25.7l-2.5 17.9c-24.8 12.3-57.2 20.3-103.1 28.5-2.7.5-4.4 3-3.9 5.7.4 2.4 2.5 4 4.8 4 .3 0 .6 0 .9-.1 42.6-7.6 74.3-15 99.7-26.4l-2.6 18.3c-24.1 11.6-54.1 18.4-98.8 26.4-2.7.4-4.4 3-3.9 5.7.4 2.4 2.5 4 4.8 4 .3 0 .6 0 .9-.1 41.4-7.4 70.9-13.8 95.4-24.5l-2.4 17c-31.8 10.1-71.8 18.6-117.3 24.7l18-219.4c52.9-7.9 97.9-19.1 131.5-32.7l-2.9 20.8c-23.6 12.1-62.1 24.8-103 32.7-2.7.6-4.4 3.2-3.9 5.8.5 2.5 2.5 4.1 4.8 4.1m-32.4 291.7h.7c37.1-5.4 66-11.8 89.5-21.1l-2.6 18.5c-23.5 9.6-53.9 15.6-94.9 21.2-2.7.4-4.6 2.9-4.2 5.5.3 2.5 2.4 4.2 4.9 4.2h.7c38.4-5.3 68-10.9 92-19.8l-2.4 17.4c-23.5 9.6-53.1 15.1-94.8 20.7-2.7.4-4.6 2.9-4.2 5.5.3 2.5 2.4 4.2 4.9 4.2h.7c39-5.3 67.9-10.4 91.9-19.4l-2.7 18.9c-24 9.2-53.1 15.3-96.1 21.3-2.7.4-4.6 2.8-4.1 5.5.3 2.4 2.4 4.2 4.8 4.2h.7c40.3-5.6 69-11.3 93.1-19.9l-2 14-.8 2.6c-30.2 7.7-65.4 15.5-103.9 21.8l10.8-133.1c42.4-5.4 80.2-12.8 112.4-21.7l-2.4 17c-23 9.9-52.8 16.8-92.5 22.6-2.7.4-4.6 2.9-4.2 5.5.1 2.7 2.3 4.4 4.7 4.4m-185.3-36.4c-114.3 0-216.4-13.1-284.3-33.7l-5.3-37.6c70.8 21.2 173.9 34.6 289.6 34.6 114.5 0 216.8-13.2 287.6-34.1l-5.3 37.6c-68.1 20.1-169.4 33.2-282.3 33.2m148.1 10.9l-10.9 134c-39.7 5.8-82.5 9.8-127.4 10.3l-.4-136.6c49.1-.3 95.8-3 138.7-7.7m-157.1 144.4c-40.2-.4-78.8-3.5-115-8.4l-11-134.5c39.2 3.8 81.5 6 125.7 6.3zm-226.7-51.7c-10.6-2.1-20.5-4.5-30.2-7l-2.6-18.4c9.8 2.5 20 4.9 30.8 7.2.3.1.6.1 1 .1 2.3 0 4.3-1.6 4.8-3.9.6-2.6-1.2-5.2-3.8-5.8-12.2-2.5-23.5-5.2-34.3-8.1l-2.5-17.7c10.7 2.9 20 4.7 34.8 7.8.3.1.6.1 1 .1 2.3 0 4.3-1.6 4.8-3.9.6-2.6-1.2-5.2-3.8-5.8-16.8-3.5-26.2-5.4-38.3-8.9l-2.6-18.7c12.2 3.3 25.1 6.5 39 9.3.3.1.7.1 1 .1 2.2 0 4.3-1.6 4.7-3.9.6-2.7-1.2-5.3-3.8-5.8-15.2-3.1-29.3-6.6-42.4-10.3l-3.3-23.5c35.7 10.1 78.8 18.2 127.4 23.7l10.9 134c-44.5-6.7-84.8-15.7-118.9-24.3l-.9-2.7-1.4-10.1c8.6 2.1 17.4 4.2 26.7 6.1.3.1.6.1 1 .1 2.3 0 4.3-1.6 4.8-3.9.5-2.6-1.2-5.2-3.9-5.8m.1-210.8c-22.9-4.8-43.3-10.2-61.3-16.1l-2.6-18.2c18.3 6 39 11.3 61.9 16.1.3.1.7.1 1 .1 2.2 0 4.3-1.6 4.8-3.9.6-2.7-1.1-5.2-3.8-5.8-24.6-5.2-46.5-11-65.4-17.4l-2.6-18.2c19.2 6.5 41.3 12.4 66 17.4.3.1.6.1 1 .1 2.3 0 4.3-1.6 4.8-3.9.6-2.6-1.2-5.2-3.8-5.7-26.4-5.4-49.7-11.8-69.5-18.7l-2.6-18.3c20.2 7.1 43.6 13.4 70.2 18.8.3.1.7.1 1 .1 2.3 0 4.3-1.6 4.7-3.9.6-2.6-1.2-5.2-3.8-5.7-28.3-5.8-53-12.6-73.6-20.2l-2.6-18.4c21.1 7.7 46 14.6 74.3 20.6.3.1.6.1 1 .1 2.3 0 4.3-1.6 4.8-3.9.6-2.6-1.2-5.3-3.8-5.8-30.3-6.3-56.5-13.7-77.9-22l-2.6-18.3c22 8.4 48.2 15.8 78.4 22.1.3.1.7.1 1 .1 2.3 0 4.3-1.6 4.8-3.9.6-2.7-1.2-5.3-3.8-5.8-32.3-6.7-59.8-14.7-82-23.6l-2.6-18.2c22.7 9.1 50.4 17 82.6 23.6.3.1.6.1 1 .1 2.3 0 4.3-1.6 4.8-3.9.6-2.7-1.2-5.2-3.8-5.8-34.4-7-63.4-15.6-86.2-25.3l-2.9-20.3c36.5 15.1 87 27.3 146.7 35.5l18 219.2c-52-6.4-97.3-15.6-132.5-26.9l-2.9-20.8c17.3 5.5 36.5 10.5 57.8 14.9.3.1.6.1 1 .1 2.3 0 4.3-1.6 4.8-3.9.5-2.9-1.2-5.6-3.8-6.1m76.7-174.3c45.7 5.4 96.3 8.5 149.6 8.9V1648c-46.5-.3-90.9-2.8-131.7-7.1zm168.3 225.9v-217.1c58.4-.4 113.5-4.1 162.6-10.6l-18 219.1c-44.2 5.3-93 8.3-144.6 8.6m-9.3-235.7c-142.2.1-266.2-20.8-327.9-50l-5.3-37.3c67.7 30.8 191 50.3 333.1 50.4 143-.2 264-18 330.9-48.8l-5.2 36.6c-62.4 28.7-185.1 49.2-325.6 49.1m-266.3-108.1c-28.2-6.8-52.8-14.6-73.1-23l-2.6-18.6c20.9 8.6 45.8 16.5 74.2 23.3.4.1.8.1 1.2.1 2.2 0 4.2-1.5 4.7-3.7.6-2.6-1-5.3-3.6-5.9-30.6-7.4-56.8-16-78.1-25.2l-2.6-18.7c22 9.4 48.6 18.1 79.4 25.7.4.1.8.1 1.2.1 2.2 0 4.2-1.5 4.7-3.7.6-2.6-.9-5.3-3.6-5.9-33.1-8.2-61.1-17.6-83.3-27.6l-2.6-18.6c22.9 10.3 51.3 19.8 84.6 28 .4.1.8.1 1.1.1 2.2 0 4.2-1.5 4.8-3.7.6-2.6-1-5.3-3.6-5.9-35.7-8.7-65.7-19-88.6-29.9l-2.6-18.6c23.7 11.3 54 21.6 89.9 30.2.4.1.8.1 1.2.1 2.2 0 4.2-1.5 4.8-3.7.6-2.6-1-5.3-3.6-5.9-38.4-9.2-70.3-20.5-93.8-32.4l-2.7-18.8c24 12.6 55.1 23.2 95.1 33 .4.1.8.1 1.2.1 2.2 0 4.2-1.5 4.7-3.7.6-2.6-1-5.3-3.6-5.9-43.3-10.6-75.7-22.2-99.2-35.7L2469.7 990h11.5l4.8 33.8q-.15 2.1.6 4.2l10.7 74.6 2.2 4.8 1.4 1.6 2.7 2.1c33.4 17.6 84.4 32 146.7 41.8l15.6 191.2c-66.5-9.7-119.9-24.4-152-41.7l-1.4-10.2c19.9 7.8 43 14.9 69.2 21.3.4.1.8.1 1.2.1 2.2 0 4.2-1.5 4.7-3.7.5-2.6-1.1-5.2-3.7-5.8m-34.1-265.6c23.9-10.8 60.2-21.2 98.8-28.3l1.7 17.2c-31.6 6.1-71.9 17.9-105.3 31.9 2.9-6.8 4.3-13.9 4.8-20.8m-2-27.9c26.7-9.4 60.1-17.5 98.5-23.9l1.3 13.7c-37.5 6.8-72.8 16.6-97.9 27.4-.2-6.2-.9-12.2-1.9-17.2m103.4 26.7l1.7 17.3c-46.2 8.9-107.7 30-133.7 43.3-1.3-.6-2.7-1.2-3.9-1.8l-1.4-9.7c5.8-2.5 11.8-5.7 17.4-10.1 34.3-16.7 83.5-32 119.9-39m-99 73.7c-7.6-2.5-14.7-5.2-21.3-7.9 27.7-12.6 82-30.8 123-38.8l1.6 16.9c-40.6 7.5-78 18.1-103.3 29.8m104.3-19.9l4.3 44.4c-35.7-5.3-67.5-12.1-94.3-20 23.5-9.4 55.6-18.2 90-24.4m23.5 47l-15.1-154.2c52.1-7.6 112-12.1 175.9-12.4v176.9c-57.8-.3-112.3-4-160.8-10.3m160.8 29.1v189.3c-55.8-.3-108.7-3.8-155.9-9.8l-15.5-190.9c51.3 7 109.5 11 171.4 11.4m204.4-13.8l-16.7 192.2c-50 6.7-107.4 10.6-168.9 10.9v-189.3c67.7-.5 130.9-5.4 185.6-13.8m-185.7-5V971.5c70.3.4 135.9 5.9 191.3 15l-14.4 149.1c-52.3 7.8-112.6 12.4-176.9 12.8m296-86.7c6.3 12.5 18.4 19.4 29.1 24l-1.5 10.3c-28.6 14.7-73.1 27.4-127.6 36.6l13.8-142.8c31.6 5.9 59.3 13 82.1 21.1-1.2 6-2.3 13.3-2.3 21.2.2 9.5 1.7 19.9 6.4 29.6m37.4-53.8l-.2.9-.1.4c-2.6 7.6-5.9 18.3-6 27.4.1 2.2 0 5.5 1.8 8.7l-2.6 20.2c-6.3-3.6-11.9-8.1-13.3-11.9-3.2-6.4-4.4-14-4.4-21.5 0-12.8 3.6-24.7 5.1-28.9 7.5-27.9 9.8-46.1 9.8-77 0-142.7-88.6-265-213.3-315.2 1.8-6.7 2.8-13.6 3.1-20.7 134.7 52.2 230.6 183 230.6 335.9-.1 33.5-2.5 52.6-10.5 81.7m-28.8-81.6c0 28.3-1.8 43.3-7.7 66.7-70.7-24.6-181.2-40.2-306.3-40.3h-1.8c-124.7.1-234.8 15.5-305.4 40-5.8-22.9-7.6-37.9-7.6-66.4.2-136.4 85.9-252.7 206.1-299 17.9 38.3 60.7 62.4 110.8 62.4 52.2-.1 92.9-25.3 110.7-60.9 117.8 47.4 201.3 162.9 201.2 297.5M2830 606.9c8.6-.7 17.2-1.3 26-1.4 9.3 0 13.9.4 19.7 1.2-5.8 5.1-13.5 8.3-23 8.4-9.7-.1-17.1-3.2-22.7-8.2m55.9-18.5c-10-1.5-16.4-2.4-29.9-2.4-187.7 0-340.2 152.5-340.3 340.2 0 30.9 2.3 49.2 9.5 76.3 1.7 4.8 5.2 16.8 5.2 29.6 0 7.5-1.1 15.1-4.1 21.2-1.4 3.7-6.6 8-12.7 11.6l-2.5-19.6c1.7-3.2 1.6-6.5 1.8-8.7-.1-9.2-3.4-19.9-6.1-28l-.4-1.2-.2-.3c-7.7-28.8-10-47.7-10-80.9.4-198.3 161.4-359.5 359.8-359.8 12.3 0 17.2.7 28.7 1.9 1.2 3.7 2 8 2 12.8 0 2.6-.3 5-.8 7.3m-29.9-41.5c-8.2 0-16.2.7-24.3 1.2 6.4-5 13.7-8.4 19.4-10.8l8.4-4.2c-.2.4-.4.9-.5 1.4-1.1 4.1.8 8.5 4.5 10.6 1.1.6 2 1.4 3 2-3.1-.2-6.4-.2-10.5-.2m-12.8-26.7c-8.8 3.9-27.7 11.5-38.6 30.5-17.7 2.4-34.9 6-51.7 10.7 8.3-27.3 24.6-40.7 38.8-55.5 11-11.4 27.7-20.7 41.6-26.8q6.3-2.7 11.4-4.5 40.5.9 78.9 5.4c-10.7 6.9-21.2 11.7-28.3 14.4zm-111.3 47.9c-148.4 51.6-255.3 192.4-255.3 358.1 0 17.2.7 31.4 2.4 45h-11.4c5.6-15 7.8-25.7 7.9-34.5 0-6.1-1.2-11.3-3.3-15.5-1.6-3.2-4.9-5.2-8.5-5.2l-30.8.2c-2.5 0-4.8 1-6.5 2.8-1.8 1.7-2.8 4.1-2.8 6.6v.5c0 .2-.1 10-13.5 34.1-13.9 24.8-18.7 38.7-18.7 52.9 0 2.8.2 5.6.5 8.3 1.8 19.5 12.2 37.5 27.8 49.9 12.4 9.7 26.4 15.7 41.7 15.7h.2c.9 0 1.9-.2 2.8-.2l104.4 737.5.4 1.6 2.7 8.4c1 3 3.5 5.4 6.6 6.2 68.9 17.7 164.2 37.3 270 37.3h1.7c105.7 0 201-19.6 270-37.3 3.2-.8 5.7-3.3 6.7-6.4l2.5-8.4.3-1.4 104.4-737.5c1 0 2.1.2 3.1.2h.2c15.3 0 29.3-6 41.7-15.6 15.9-12.4 26-30.5 28-49.9.2-2.7.4-5.3.4-8 0-14.2-4.6-28.2-18.6-53.2-12.2-22-13.4-32.1-13.5-33.8.2-2.3-.5-4.6-1.9-6.5-1.7-2.3-4.5-3.6-7.3-3.7l-30.7-.2c-3.6 0-6.9 2-8.5 5.2-2.1 4.2-3.4 9.5-3.4 15.6 0 8.7 2.3 19.5 7.8 34.4h-11.5c1.7-13.7 2.4-27.8 2.4-45 0-164-104.8-303.9-250.8-356.6-2.8-15.4-8.9-28.3-16.8-38.5-1.8-2.3-4.6-3.7-7.4-3.7h-76.2l32-15.9c10.5-4 29.9-12.5 47.3-28.2 166.7 25.3 304.8 102.5 436.5 225.4 160.9 150.8 254.2 352.6 262.6 567.8v703.6c-225.6-44.6-501.2-70.8-799.1-70.9-298.2 0-573.9 26.2-799.5 70.9v-704.4c8.4-214.5 101.7-416.3 262.8-567.1 126.1-118 265.6-193.7 426.7-222.1 7.1 8.8 15.1 16 23.3 21.3-12.8 13.5-26.2 31.8-31.8 60.2m-288.2 412l5.9 2.6zm0 0c-9.7 23.2-12.6 26.5-13.2 35.3 0 .3 0 1.2.2 2.5 1.1 8.8 5.9 16.9 12.9 22.6 3.5 2.6 7.3 5.3 12 6.6l3 21c-9.4-.7-18.1-4.4-27.3-11.6-11.8-9.2-19.4-22.8-20.7-36.9-.2-2.4-.4-4.5-.4-6.4 0-9.4 2.8-19.5 16.3-43.8 9-16.2 12.9-27.2 14.6-34.3l15.5-.1c0 .6.1 1.2.1 1.8 0 7-2.9 20.4-13 43.3m12 45.9c-.2-.1-.3-.2-.5-.4-3.2-2.6-5.4-6.6-5.9-10.4v-.3c.2-.9 1.2-3.4 3.6-8.9zm787.5 21c4.6-1.3 8.4-3.9 11.6-6.3 7.4-5.9 12.4-14.1 13.2-23.5v-1.9c-.5-8.8-3.4-12-13.1-35.2l-6.3 2.7 6.3-2.7c-9.9-22.7-12.8-36.1-12.7-43.2 0-.7 0-1.3.1-1.9l15.5.1c1.7 7.1 5.7 18.2 14.6 34.4 13.6 24.5 16.2 34.4 16.2 44 0 1.9-.1 4-.3 6.2-1.5 14-8.9 27.6-20.9 36.9-9.3 7.1-18 10.9-27.3 11.6zm-.6-20.7l2.9-20.9q1.2 2.85 2.1 4.8c1.8 4.4 1.7 5 1.7 5v.6c-.5 3.5-2.5 7.1-6 9.9-.3.3-.5.4-.7.6m-52.2 1059.8l-44.1-130.1c184.8 11.3 355.3 33 503 62.7v156.9c-99-41.1-261.2-72.5-458.9-89.5m458.9 130.3v119.9c-88.5 40.8-253.1 74.4-457.3 92.4v-304.9c204.3 18.2 368.9 51.8 457.3 92.6M2667.4 2370c-37.4 1.6-73.4 3.7-108.5 6.2v-40.9c35.1-2.4 71.4-4.5 109.1-6.1 4.1-.2 7.2-3.6 7-7.6-.2-4.1-3.6-7.2-7.6-7-37.5 1.6-73.6 3.6-108.5 6V2280c35.4-2.6 71.8-4.8 109.1-6.4 4.1-.2 7.2-3.6 7-7.7-.2-4-3.6-7.2-7.6-7-37.1 1.6-73.3 3.8-108.5 6.3v-40.7q53.1-3.9 109.2-6.3c4.1-.2 7.2-3.6 7-7.7-.2-4-3.6-7.2-7.6-7-37.1 1.6-73.3 3.7-108.5 6.3V2169c35.4-2.6 71.8-4.8 109.2-6.4 4.1-.2 7.2-3.6 7-7.7-.2-4-3.6-7.2-7.6-7-37.1 1.7-73.3 3.8-108.5 6.4v-34.5c91.3-6.7 189.2-10.5 291.3-10.4 106.9-.1 209.3 4 304.2 11.3v311.1c-94.9 7.3-197.3 11.5-304.2 11.4-102.1 0-200.1-3.7-291.3-10.3v-42c35.3-2.5 71.5-4.6 109.1-6.3 4.1-.2 7.2-3.6 7-7.6-.4-4-3.8-7.2-7.8-7m-104-288.1l46.1-129c78.1-3.8 158.5-5.9 240.6-5.9 87.4 0 172.8 2.3 255.7 6.7l43.8 129.1c-93.7-6.9-194.2-10.8-299.5-10.9-100.5.1-196.7 3.7-286.7 10m5.5-126.9l-46.5 129.9c-203.6 16.8-370.6 48.8-471.7 90.6v-156.9c151.7-30.4 327.4-52.5 518.2-63.6m-47.7 167.8v34.6c-205.2 17.2-372.7 49.7-470.6 91.6v-32.5c90.3-41.7 260.1-75.9 470.6-93.7m0 49.2v40.8c-205.2 17.1-372.7 49.7-470.6 91.5v-39.5c93.7-41.7 262.6-75.2 470.6-92.8m0 55.6v40.7c-180.2 15.1-331 42.2-431.4 76.8-6.2-4.9-14.5-5.3-21.2-1.1q-9.45-3.9-18-7.8v-15.8c93.7-41.7 262.6-75.4 470.6-92.8m-211.7 176.9c-29.1-4.7-56.8-9.8-82.8-15.2-8.2-1.7-16.2-3.5-24.1-5.3 92-21.3 197.1-36.2 318.6-45.9v41c-75.3 6.3-145.6 14.6-211.7 25.4m211.7-10.6v36.1c-57.6-4.8-112.3-10.9-163-18 51.7-7.4 105.9-13.4 163-18.1m-349.9-17.4c-25.4-6.4-48.5-13.2-69.4-20.3 98.1-32.6 245-58.6 419.4-73.3v40.5c-135 10.7-250.2 27.8-350 53.1m-95.5 10.3c157.9 57.2 444.2 93.8 774.3 94.1 246 0 468.7-20.8 631-54.8 81.3-17.1 147.3-37.2 194.6-60.6 1-.5 1.9-1 2.9-1.5 1.4-.7 3.3-1.7 5.6-2.9l193.5 170.7c-247.1 78.7-616.4 129.9-1027.7 129.5-375.5 0-715.4-41.9-960.1-109.4l-2.1-.6zm1687.7 271.3c.9 3.3 3.9 5.5 7.2 5.5.6 0 1.2-.1 1.8-.2 44.8-11.5 86.7-23.9 125.8-36.9v40.2c-39.9 13.4-83 26.1-129.4 37.8-3.9 1-6.3 5-5.3 8.9.9 3.3 3.9 5.5 7.2 5.5.6 0 1.2-.1 1.8-.2 44.8-11.5 86.7-23.9 125.8-36.8v40.4c-39.9 13.4-83 26.2-129.4 37.8-3.9 1-6.3 5-5.3 8.9.9 3.3 3.9 5.5 7.2 5.5.6 0 1.2-.1 1.8-.2 44.8-11.5 86.7-23.9 125.8-36.9v40.2c-39.9 13.4-83 26.1-129.4 37.8-3.9 1-6.3 5-5.3 8.9.9 3.3 3.9 5.5 7.2 5.5.6 0 1.2-.1 1.8-.2 44.8-11.5 86.7-23.9 125.8-36.8v40.2c-39.9 13.4-83 26.1-129.4 37.7-3.9 1-6.3 5-5.3 9 .9 3.3 3.9 5.5 7.1 5.5.6 0 1.2-.1 1.8-.2 44.8-11.5 86.7-23.8 125.8-36.8v40.3c-39.9 13.4-83 26.1-129.4 37.8-3.9 1-6.3 5-5.3 9 .9 3.3 3.9 5.5 7.1 5.5.6 0 1.2-.1 1.8-.2 44.8-11.5 86.7-23.9 125.8-36.8v40.3c-40 13.4-83.1 26.1-129.5 37.7-3.9 1-6.3 5-5.3 9 .9 3.3 3.9 5.5 7.1 5.5.6 0 1.2-.1 1.8-.2 44.8-11.5 86.7-23.8 125.8-36.8v40.3c-39.9 13.4-83.1 26.1-129.5 37.8-3.9 1-6.3 5-5.3 8.9.9 3.3 3.9 5.6 7.1 5.6.6 0 1.2-.1 1.8-.2 44.8-11.5 86.7-23.9 125.8-36.8v37.3c-135.4 45.2-310.4 81.9-510.6 105.7v-489.3c162.3-19.1 308.7-46.5 432.2-80.5 27.3-7.5 53.3-15.4 78.3-23.6v46.9c-39.9 13.4-83 26.1-129.4 37.8-4 1-6.3 5-5.4 8.9m0 1054.5c.9 3.3 3.9 5.5 7.2 5.5.6 0 1.2-.1 1.8-.2 44.5-11.5 86.1-23.7 125.1-36.6l.1 40.2c-39.8 13.4-82.6 26-128.8 37.6-3.9 1-6.3 5-5.3 8.9.9 3.3 3.9 5.5 7.2 5.5.6 0 1.2-.1 1.8-.2 44.6-11.5 86.2-23.7 125.2-36.6l.1 40.3c-39.8 13.4-82.7 26-128.9 37.6-3.9 1-6.3 5-5.3 8.9.9 3.3 3.8 5.5 7.1 5.5.6 0 1.2-.1 1.8-.2 44.6-11.5 86.3-23.8 125.3-36.7l.1 40.2c-39.8 13.4-82.7 26-129 37.6-3.9 1-6.3 5-5.3 8.9.9 3.3 3.8 5.5 7.1 5.5.6 0 1.2-.1 1.8-.2 44.7-11.5 86.4-23.8 125.4-36.7l.1 40.4c-39.8 13.4-82.8 26.1-129.1 37.7-3.9 1-6.3 5-5.3 8.9.9 3.3 3.9 5.5 7.2 5.5.6 0 1.2-.1 1.8-.2 44.7-11.5 86.4-23.8 125.5-36.7l.1 40.2c-39.9 13.4-82.9 26.1-129.2 37.7-3.9 1-6.3 5-5.3 8.9.9 3.3 3.9 5.5 7.2 5.5.6 0 1.2-.1 1.8-.2 44.7-11.5 86.5-23.8 125.6-36.8l.1 40.3c-39.9 13.4-82.9 26.1-129.3 37.8-3.9 1-6.3 5-5.3 8.9.9 3.3 3.8 5.5 7.1 5.5.6 0 1.2-.1 1.8-.2 44.8-11.5 86.6-23.8 125.7-36.8l.1 40.2c-39.9 13.4-83 26.1-129.4 37.8-3.9 1-6.3 5-5.3 9 .9 3.3 3.9 5.5 7.2 5.5.6 0 1.2-.1 1.8-.2 44.8-11.5 86.6-23.9 125.8-36.8l.1 33.2c0 1.4.5 2.5.8 3.8-135.5 45.4-310.7 82.1-511.2 106.1l3.5-490c160.8-19.1 306.1-46.3 428.7-80.1 27-7.5 52.7-15.3 77.5-23.3l.1 46.8c-39.7 13.3-82.6 26-128.7 37.6-4.6 1.2-7 5.2-6 9.2m-835.8 2.4v-489.6c291.8-4.5 559.2-34.1 774.9-81.3v486.7c0 .7.3 1.3.4 2-213.8 47.4-482.3 77.8-775.3 82.2m426 11.8l-3.5 490.1c-154.8 17-323.6 26.3-500.1 26.2-140 0-275.1-5.9-402.1-16.7l1.9-489.5c126.6 10.6 260.9 16.3 400.2 16.4 177.8-.1 347.6-9.5 503.6-26.5m-503.5-538.4c-140 0-275.1-5.9-402.1-16.7v-489.5c127.2 10.7 262.1 16.5 402.1 16.6 176.5 0 344.9-9.3 500-26v489.5c-154.8 16.9-323.6 26.3-500 26.1m-439.8-509.6v489.4c-198.4-18.7-376-49.5-520.3-89.2-5-1.4-9.8-2.8-14.7-4.2v-488.1c148.9 41.5 331.3 73.2 535 92.1m-302.5 487.1c214.3 38 468.7 59.9 742.3 60.1 13.4 0 26.6-.1 39.9-.2v489.6c-13.3.1-26.5.2-39.9.2-275.2 0-531.2-22.6-744.7-61.2zm304.5 567.6l-1.9 489.4c-198.4-18.7-376-49.5-520.3-89.3-5-1.4-9.8-2.9-14.8-4.3l.7-488c149.3 41.6 332.1 73.3 536.3 92.2M3703 4687.2c-213.7 47.6-482.3 78-775.3 82.4l.1-489.6c292.5-4.5 560.6-34.3 776.5-81.8l-1.8 486.9c0 .7.4 1.3.5 2.1m492.9-688.9c-33.3 88.3-189.9 172.8-427 232.5-3.9 1-6.3 5-5.3 9 .9 3.3 3.9 5.5 7.2 5.5.6 0 1.2-.1 1.8-.2 216.2-55.6 369.5-128.4 423.4-215.4v24.2c-33.3 88.3-189.9 172.9-427 232.4-3.9 1-6.3 5-5.3 9 .9 3.3 3.9 5.5 7.2 5.5.6 0 1.2-.1 1.8-.2 216.2-55.4 369.5-128.3 423.4-215.3v24.1c-33.3 88.3-189.9 172.9-427 232.5-3.9 1-6.3 5-5.3 8.9.9 3.3 3.8 5.5 7.1 5.5.6 0 1.2-.1 1.8-.2 216.2-55.6 369.5-128.4 423.4-215.4v24.2c-33.3 88.2-189.9 172.9-427 232.4-3.9 1-6.3 5-5.3 8.9.9 3.3 3.8 5.5 7.1 5.5.6 0 1.2-.1 1.8-.2 216.2-55.4 369.5-128.3 423.4-215.3v24.1c-33.3 88.3-189.9 172.9-427 232.5-3.9 1-6.3 5-5.3 8.9.9 3.3 3.8 5.5 7.1 5.5.6 0 1.2-.1 1.8-.2 216.2-55.6 369.5-128.4 423.4-215.4v24.2c-33.3 88.2-189.9 172.9-427 232.4-3.9 1-6.3 5-5.3 8.9.9 3.3 3.8 5.5 7.1 5.5.6 0 1.2-.1 1.8-.2 216.2-55.4 369.5-128.3 423.4-215.3v24.1c-33.3 88.2-189.9 172.9-427 232.5-3.9 1-6.3 5-5.3 9 .9 3.3 3.9 5.5 7.2 5.5.6 0 1.2-.1 1.8-.2 216.2-55.6 369.5-128.5 423.4-215.5v24.3c-33.3 88.1-190 172.7-427 232.3-3.9 1-6.3 5-5.3 9 .9 3.3 3.9 5.5 7.2 5.5.6 0 1.2-.1 1.8-.2 215.5-55.4 368.5-128 422.9-214.6-2.5 40.1-34.4 83.1-98.2 124.7-78.9 51.7-202.2 97.9-357 135l1.8-489c26.8-6.3 53-12.9 78-19.8 124.7-34.4 226.1-75.2 297.7-121.9 32.2-21 58.6-43.6 78.2-67.7zm-260.1 58.1c129-46.8 220.2-102 259.5-164.7-2.5 40.1-34.4 83.1-98.2 124.7-41.9 27.5-96.4 53.3-161.3 77.1zm260.1-196.7c-24.7 65.3-117.4 128.6-260.1 181.3l-.1-39.9c129.6-47 221.1-102.6 260.1-165.6v24.2zm0-55.7c-24.7 65.4-117.4 128.8-260.2 181.5l-.1-40.1c129.7-47 221.2-102.5 260.2-165.5v24.1zm0-55.4c-24.7 65.4-117.4 128.7-260.3 181.4l-.1-40c129.7-47 221.3-102.6 260.3-165.7v24.3zm0-55.6c-24.7 65.4-117.5 128.9-260.4 181.6l-.1-40.1c129.8-47 221.4-102.5 260.4-165.6zm0-55.4c-24.7 65.4-117.5 128.7-260.5 181.5l-.1-40c129.9-47 221.4-102.7 260.5-165.8v24.3zm0-55.6c-24.7 65.4-117.6 128.9-260.6 181.7l-.1-40.1c129.9-47 221.5-102.6 260.6-165.7zm0-55.4c-24.7 65.4-117.6 128.8-260.7 181.6l-.1-40c129.9-47.1 221.6-102.7 260.7-165.9zm0-55.6c-24.7 65.5-117.6 129-260.8 181.8l-.1-46.4c72.9-25.9 134.6-54.5 182.7-85.8 32.2-21 58.6-43.6 78.2-67.7zm0-527.2c-33.3 88.2-189.9 173-427 232.6-3.9 1-6.3 5-5.3 8.9.9 3.3 3.9 5.5 7.2 5.5.6 0 1.2-.1 1.8-.2 216.2-55.6 369.5-128.5 423.4-215.5v24.3c-33.3 88.2-189.9 172.7-427 232.4-3.9 1-6.3 5-5.3 8.9.9 3.3 3.9 5.5 7.2 5.5.6 0 1.2-.1 1.8-.2 216.2-55.6 369.5-128.4 423.4-215.3v24c-33.3 88.2-189.9 172.9-427 232.6-3.9 1-6.3 5-5.3 9 .9 3.3 3.9 5.5 7.1 5.5.6 0 1.2-.1 1.8-.2 216.2-55.6 369.5-128.5 423.4-215.5v24.2c-33.3 88.2-189.9 172.7-427 232.4-3.9 1-6.3 5-5.3 9 .9 3.3 3.9 5.5 7.1 5.5.6 0 1.2-.1 1.8-.2 216.2-55.6 369.5-128.4 423.4-215.3v24c-33.3 88.2-189.9 173-427 232.6-3.9 1-6.3 5-5.3 8.9.9 3.3 3.9 5.5 7.2 5.5.6 0 1.2-.1 1.8-.2 216.2-55.6 369.5-128.5 423.4-215.5v24.2c-33.3 88.2-189.9 172.7-427 232.4-3.9 1-6.3 5-5.3 8.9.9 3.3 3.8 5.5 7.1 5.5.6 0 1.2-.1 1.8-.2 216.2-55.6 369.5-128.4 423.4-215.3v24.1c-33.3 88.2-189.9 173-427 232.6-3.9 1-6.3 5-5.3 8.9.9 3.4 3.8 5.6 7.1 5.6.6 0 1.2-.1 1.9-.2 216.2-55.6 369.5-128.5 423.4-215.5v24.1c-33.3 88.3-189.9 172.9-427 232.6-3.9 1-6.3 5-5.3 8.9.9 3.3 3.9 5.5 7.2 5.5.6 0 1.2-.1 1.8-.2 215.5-55.4 368.5-128 422.9-214.7-2.5 40.2-34.3 83.2-98.2 124.7-78.9 51.7-202.3 97.9-357.1 134.9v-488.6c27.5-6.5 54.3-13.2 79.8-20.2 124.7-34.3 226.1-75.2 297.7-121.8 32.3-21 58.6-43.6 78.2-67.7zm-260 95.2v-37.1c129-46.8 220.1-102 259.4-164.7-2.5 40.2-34.3 83.2-98.2 124.7-41.8 27.5-96.3 53.3-161.2 77.1m260-234.1c-24.6 65.5-117.3 128.8-260 181.5v-40.1c129.6-46.9 221-102.5 260-165.5zm0-55.4c-24.6 65.4-117.3 128.8-260 181.5v-40c129.6-47 221-102.5 260-165.6zm0-55.6c-24.6 65.5-117.3 128.8-260 181.5v-40.1c129.6-46.9 221-102.5 260-165.5zm0-55.4c-24.6 65.4-117.3 128.8-260 181.5v-40c129.6-47 221-102.5 260-165.6zm0-55.6c-24.6 65.5-117.3 128.8-260 181.5v-40c129.6-47 221-102.6 260-165.6zm0-55.4c-24.6 65.4-117.3 128.8-260 181.6V2669c129.6-47 221-102.5 260-165.5zm0-55.4c-24.6 65.4-117.3 128.7-260 181.4v-40c129.6-47 221-102.6 260-165.6zm0-55.6c-24.6 65.4-117.3 128.8-260 181.6v-46.4c72.5-25.8 133.9-54.3 181.8-85.4 32.3-21 58.6-43.6 78.2-67.7zm-471.5-82.1c12.4-9.9 20.2-20.5 24.7-30.4l.6-1.2c1.5-3.4 2.7-6.7 3.5-9.8 1.5-5.3 2.6-10.8 2.8-16.7 0-5-.9-9.9-2.2-14.8v-219.6c134.8 33.1 245.2 73.5 321.4 118.1 81.4 47.4 121.3 98 120.6 144.2.4 41.8-31.7 87-98.7 130.6-45.4 29.8-105.7 57.7-178.1 83.2l-201.7-177.8c2.5-2 4.9-3.9 7.1-5.8M3441 652.4c168.6 157.9 266.2 369.2 275.2 595.7v764.7c-.1.2-.2.4-.3.7-.7 3-.4 6 .3 8.8v235q-.9 3.75 0 7.8v20.4c-.2.7-.6 1.5-1 2.3-2.9 5.3-7.9 11.3-15.2 17.7-1 .8-1.7 1.6-2.9 2.4-3.7 2.7-7.1 5.1-10.3 7.3V1275.9c-8.8-226-106.6-437.3-274.5-594.6-167.4-156.8-352-245-586.5-244.7-7.7.2-13.7.5-18.6.9-2.8-5.6-4.7-13.2-5.1-25 0-1.8.3-3.4.6-5.1 3.9.4 8.5 0 12.2 0 235 .1 457.2 87 626.1 245m-590.5-334.8c55.7.5 97.1 22.2 109.9 63.3-19.4-2.9-38.9-5.3-58.5-7.1-12.3-13.4-31.6-19.5-52-19.4-37 0-66.5 24.2-66.6 58.1-.9 31.4 13.8 46.1 27.6 53.8.5.7.8 1.5 1.4 2.1-11.8 6.2-24.2 14.2-34.2 24.5l-1.2 1.2c-21.2-12.6-41.9-35.8-42.2-83.2.5-45 35.5-92.9 115.8-93.3m-866.7 929.7c8.8-225.7 106.4-437 275-594.9 127.9-119.5 286.4-198.4 457.8-229.8.8 10.7 2.6 20.5 5.3 29.2-164 31.3-307.1 110.3-434.2 229.5-168.1 157.3-265.9 368.6-274.7 593.8v1040.1c-2.6-1.7-5.4-3.8-8.3-5.8-11-8.7-17.7-16.9-20.8-23.8zm-359.1 912.9c76.2-44.6 186.7-85.1 321.6-118.3v219.5c-1.2 4.8-1.9 9.8-1.9 14.8.1 3.2.7 6.3 1.3 9.3.1.7.2 1.5.3 2.2.2 1.1.3 2.2.6 3.3 2.8 13.5 11.9 30.6 32 45.6.5.4 1.1.9 1.6 1.3.2.1.3.3.5.4.4.3.8.6 1.3.9q10.65 8.25 23.4 15.6c.2.1.3.2.5.3 1 .6 1.9 1.1 2.9 1.7 9.3 5.5 14.9 8 15.6 8.3.1 0 .1.1.2.1 3.8 1.9 8.3 3.7 12.4 5.5l-191.7 167.9c-101.5-30.8-184.1-66.2-242.2-104.1-66.9-43.6-99.1-88.8-98.7-130.6-.8-45.8 38.9-96.4 120.3-143.7m-120.5 238.3c19.6 24.1 45.9 46.7 78.2 67.7 63.1 40.9 150 77.8 255.4 109.6v487.9c-98.1-30.3-178.2-64.9-234.9-101.8-66.9-43.6-99.1-88.8-98.7-130.6zm0 527.2c19.6 24.1 45.9 46.7 78.2 67.7 105 68 275.1 125 487.9 165.6l-2.4 488.4c-63.5-12.4-123.2-26.1-177.8-41.1-122.3-33.6-220.8-73.8-287.2-117.1-66.9-43.6-99.1-88.8-98.7-130.6zm0 527.2c19.6 24.1 45.9 46.7 78.2 67.7 63.3 41 150.4 78 256.1 109.8l-.7 487.8c-98.1-30.3-178.2-64.9-234.9-101.8-66.9-43.6-99.1-88.8-98.7-130.6zm0 527.2c19.6 24.1 45.9 46.7 78.2 67.8 105 68 275.1 125.1 487.9 165.7l-2.4 488.4c-63.5-12.3-123.1-26.1-177.8-41.1-122.3-33.7-220.7-73.8-287.2-117.2-67-43.6-99.1-88.8-98.7-130.6zm23.8-274c47.5 47.5 125.8 90.3 228.6 127.9.8.3 1.7.5 2.5.5 3 0 5.8-1.9 6.9-4.8 1.4-3.8-.6-8-4.4-9.4-101.7-37.2-178.4-79.6-223.2-124.6-2.9-2.9-7.6-2.9-10.4 0-2.9 2.9-2.9 7.5 0 10.4m231 877.7c3 0 5.8-1.9 7-4.8 1.4-3.8-.6-8-4.4-9.4-101.6-37-178.4-79.6-223.3-124.6-2.9-2.8-7.5-2.8-10.4 0-2.9 2.9-2.9 7.5 0 10.4 47.5 47.5 125.8 90.5 228.6 128 .9.2 1.7.4 2.5.4m2.6-291.6c-101.7-37.2-178.4-79.6-223.3-124.6-2.9-2.9-7.6-2.9-10.4 0-2.9 2.9-2.9 7.5 0 10.4 47.5 47.5 125.8 90.3 228.6 128 .8.3 1.7.4 2.5.4 3 0 5.8-1.8 6.9-4.8 1.5-3.8-.5-8.1-4.3-9.4m-5-97.3c.8.3 1.7.5 2.5.5 3 0 5.8-1.9 6.9-4.8 1.4-3.8-.6-8-4.4-9.4-101.6-37.2-178.4-79.7-223.3-124.6-2.9-2.9-7.5-2.9-10.4 0s-2.9 7.5 0 10.4c47.6 47.4 125.9 90.3 228.7 127.9m0 55.4c.8.3 1.7.4 2.5.4 3 0 5.8-1.9 6.9-4.8 1.4-3.8-.6-8-4.4-9.4-101.6-37-178.4-79.6-223.3-124.6-2.9-2.9-7.5-2.9-10.4 0s-2.9 7.5 0 10.4c47.6 47.5 125.9 90.6 228.7 128m0 111c.8.3 1.6.4 2.5.4 3 0 5.8-1.9 6.9-4.8 1.4-3.8-.6-8-4.4-9.4-101.6-37-178.4-79.7-223.2-124.6-2.9-2.9-7.5-2.9-10.4 0s-2.9 7.5 0 10.4c47.5 47.5 125.8 90.6 228.6 128M1528 2762.7c47.5 47.5 125.8 90.3 228.6 128 .8.3 1.7.4 2.5.4 3 0 5.8-1.8 6.9-4.8 1.4-3.8-.6-8-4.4-9.4-101.7-37.1-178.4-79.6-223.3-124.6-2.9-2.8-7.5-2.8-10.4 0-2.8 2.9-2.8 7.6.1 10.4m231.1 239.4c3 0 5.8-1.8 6.9-4.8 1.4-3.8-.6-8-4.4-9.4-101.7-37.1-178.4-79.6-223.3-124.6-2.9-2.9-7.5-2.9-10.4 0-2.9 2.8-2.9 7.5 0 10.4 47.5 47.5 125.8 90.3 228.6 128 .9.3 1.8.4 2.6.4m-231.1-184c47.5 47.4 125.8 90.5 228.6 127.9.8.3 1.7.5 2.5.5 3 0 5.8-1.9 6.9-4.8 1.4-3.8-.6-8-4.4-9.4-101.6-37-178.3-79.6-223.3-124.6-2.8-2.9-7.5-2.9-10.4 0-2.8 2.9-2.8 7.5.1 10.4m228.6 655.2c.8.3 1.7.5 2.5.5 3 0 5.8-1.9 6.9-4.8 1.4-3.8-.6-8-4.4-9.4-101.6-37-178.4-79.4-223.2-124.6-2.9-2.9-7.5-2.9-10.4 0s-2.9 7.5 0 10.4c47.5 47.6 125.8 90.4 228.6 127.9m0-55.4c.8.3 1.7.4 2.5.4 3 0 5.8-1.9 6.9-4.8 1.4-3.8-.6-8-4.3-9.4-101.6-37.2-178.4-79.7-223.3-124.6-2.9-2.9-7.5-2.9-10.4 0s-2.9 7.5 0 10.4c47.5 47.5 125.9 90.4 228.6 128m0-693.8c.8.3 1.7.4 2.5.4 3 0 5.8-1.8 6.9-4.8 1.4-3.8-.6-8-4.4-9.4-101.6-36.9-178.4-79.6-223.3-124.6-2.9-2.8-7.5-2.8-10.4 0-2.9 2.9-2.9 7.5 0 10.4 47.6 47.4 125.9 90.6 228.7 128m5 97.2c-101.6-36.9-178.4-79.4-223.3-124.6-2.8-2.8-7.5-2.9-10.4 0-2.9 2.8-2.9 7.5 0 10.4 47.5 47.7 125.8 90.6 228.6 128 .8.3 1.7.5 2.5.5 3 0 5.8-1.9 6.9-4.8 1.5-3.9-.5-8.1-4.3-9.5m0 527.2c-101.6-36.9-178.4-79.4-223.2-124.6-2.9-2.9-7.5-2.9-10.4 0s-2.9 7.5 0 10.4c47.6 47.6 125.9 90.5 228.6 128 .8.3 1.7.4 2.5.4 3 0 5.8-1.8 6.9-4.8 1.4-3.8-.6-8-4.4-9.4m0-582.6c-101.7-37.2-178.4-79.6-223.3-124.6-2.9-2.9-7.5-2.9-10.4 0s-2.9 7.5 0 10.4c47.5 47.5 125.8 90.3 228.6 128 .8.3 1.7.5 2.5.5 3 0 5.8-1.9 6.9-4.8 1.5-3.9-.4-8.1-4.3-9.5m-5-97.2c.8.3 1.7.5 2.5.5 3 0 5.8-1.9 6.9-4.8 1.4-3.8-.6-8-4.4-9.4-101.6-37.2-178.4-79.6-223.2-124.6-2.9-2.8-7.5-2.8-10.4 0-2.8 2.9-2.8 7.5 0 10.4 47.5 47.4 125.8 90.2 228.6 127.9m0-55.6c.8.3 1.7.4 2.5.4 3 0 5.8-1.9 6.9-4.8 1.4-3.8-.6-8-4.4-9.4-101.6-37-178.4-79.5-223.2-124.6-2.9-2.9-7.5-2.9-10.4 0-2.9 2.8-2.9 7.5 0 10.4 47.5 47.7 125.8 90.5 228.6 128m5 680c-101.6-37.2-178.4-79.6-223.2-124.6-2.9-2.9-7.6-2.9-10.4 0-2.9 2.9-2.9 7.5 0 10.4 47.5 47.5 125.8 90.3 228.6 128 .8.3 1.7.4 2.5.4 3 0 5.8-1.8 6.9-4.8 1.4-3.8-.6-8-4.4-9.4M1528 3539.5c47.5 47.7 125.8 90.5 228.6 128 .8.3 1.7.4 2.5.4 3 0 5.8-1.8 6.9-4.8 1.4-3.8-.6-8-4.4-9.4-101.6-37-178.3-79.5-223.2-124.6-2.9-2.9-7.5-2.9-10.4 0s-2.9 7.5 0 10.4m233.6 336.2c-101.6-37-178.4-79.4-223.2-124.6-2.9-2.9-7.5-2.9-10.4 0-2.9 2.8-2.9 7.5 0 10.4 47.5 47.7 125.8 90.5 228.6 128 .8.3 1.7.4 2.5.4 3 0 5.8-1.9 6.9-4.8 1.4-3.8-.6-8-4.4-9.4m0 55.6c-101.6-37.1-178.4-79.6-223.2-124.6-2.9-2.9-7.6-2.9-10.4 0-2.9 2.9-2.9 7.6 0 10.4 47.5 47.5 125.8 90.4 228.6 128 .8.3 1.7.5 2.5.5 3 0 5.8-1.8 6.9-4.8 1.4-3.9-.6-8.1-4.4-9.5m0-166.6c-101.6-37-178.4-79.4-223.2-124.6-2.9-2.9-7.5-2.9-10.4 0-2.9 2.8-2.9 7.5 0 10.4 47.5 47.7 125.9 90.6 228.6 128 .8.3 1.7.4 2.5.4 3 0 5.8-1.8 6.9-4.8 1.4-3.8-.6-8-4.4-9.4M1528 3595.1c47.5 47.5 125.8 90.3 228.6 128 .8.3 1.7.4 2.5.4 3 0 5.8-1.9 6.9-4.8 1.4-3.8-.6-8-4.3-9.4-101.7-37.1-178.4-79.6-223.3-124.6-2.9-2.9-7.5-2.9-10.4 0s-2.9 7.6 0 10.4m231.1-65.8c3 0 5.8-1.8 6.9-4.8 1.4-3.8-.6-8-4.3-9.4-101.6-37.2-178.4-79.7-223.3-124.6-2.9-2.9-7.5-2.9-10.4 0s-2.9 7.5 0 10.4c47.5 47.5 125.8 90.3 228.6 128 .8.3 1.7.4 2.5.4m-2.5-389c.8.3 1.7.4 2.5.4 3 0 5.8-1.8 6.9-4.8 1.4-3.8-.6-8-4.4-9.4-101.6-37-178.4-79.4-223.2-124.6-2.9-2.9-7.5-2.9-10.4 0s-2.9 7.5 0 10.4c47.5 47.7 125.8 90.6 228.6 128m5 97.2c-101.6-36.9-178.4-79.4-223.2-124.5-2.9-2.9-7.5-2.9-10.4 0s-2.9 7.5 0 10.4c47.5 47.6 125.8 90.5 228.6 128 .8.3 1.7.5 2.5.5 3 0 5.8-1.9 6.9-4.8 1.4-4-.6-8.2-4.4-9.6m-5-41.6c.8.3 1.7.4 2.5.4 3 0 5.8-1.8 6.9-4.8 1.4-3.8-.6-8-4.3-9.4-101.7-37.1-178.4-79.6-223.3-124.6-2.9-2.9-7.5-2.9-10.4 0-2.9 2.8-2.9 7.5 0 10.4 47.5 47.5 125.8 90.3 228.6 128" fill="url(#a)"/></svg>