<svg viewBox="1 1 66.34 66.15" xmlns="http://www.w3.org/2000/svg" xmlns:xlink="http://www.w3.org/1999/xlink"><clipPath id="a"><path d="m0 0h595.276v841.89h-595.276z"/></clipPath><clipPath id="b"><path d="m0 0h595.276v841.89h-595.276z"/></clipPath><clipPath id="c"><path d="m0 0h595.276v841.89h-595.276z"/></clipPath><clipPath id="d"><path d="m0 0h595.276v841.89h-595.276z"/></clipPath><clipPath id="e"><path d="m0 0h595.276v841.89h-595.276z"/></clipPath><clipPath id="f"><path d="m0 0h595.276v841.89h-595.276z"/></clipPath><clipPath id="g"><path d="m0 0h595.276v841.89h-595.276z"/></clipPath><clipPath id="h"><path d="m0 0h595.276v841.89h-595.276z"/></clipPath><clipPath id="i"><path d="m0 0h595.276v841.89h-595.276z"/></clipPath><clipPath id="j"><path d="m0 0h595.276v841.89h-595.276z"/></clipPath><clipPath id="k"><path d="m0 0h595.276v841.89h-595.276z"/></clipPath><clipPath id="l"><path d="m0 0h595.276v841.89h-595.276z"/></clipPath><path d="m64.487 20.587c4.913 10.68 3.388 24.4-3.778 33.51-8.2 10.903-22.643 15.707-36.14 11.583-11.817-3.272-21.579-14.594-23.216-26.64-1.98-13.57 4.535-26.954 16.28-33.706 8.461-5.065 21.155-5.83 30.152-1.556 7.09 3.317 13.841 9.222 16.702 16.809" fill="#0995d4"/><path d="m35.092 12.011h-1.984l.078-9.114h1.906z" fill="#fff"/><g clip-path="url(#a)" transform="matrix(1.11591 0 0 -1.11591 -267.165 215.224)"><path d="m287.395 184.602-.615-1.093c-1.297.408-2.393 1.468-3.757 1.842-.411-.511-.749-1.13-.786-1.711l2.938-1.635c.137-.375-.411-.652-.514-1.023h-.442c-.922.511-1.778 1.227-2.801 1.467-.685-.922-1.026-1.982-1.778-2.874-.411.378-1.605.414-1.264 1.133l3.861 6.762c1.775-.785 3.45-1.845 5.158-2.868m-28.698 1.023c-.171-.374-.752-.648-1.194-.886-.444.338-1.297.545-1.912.238-.481-.308-.959-.649-1.196-1.197 0-.442.237-.886.682-1.023 1.741.24 3.693 1.812 5.362.377.548-.685.855-1.541.618-2.426-.582-1.541-2.287-2.869-3.998-2.905-.889.1-1.778.307-2.29 1.193.478.381.889.819 1.468.889.414-.408.925-.718 1.504-.508.652.17 1.23.749 1.675 1.331.24.478-.034.989-.512 1.227-2.086 0-4.409-2.013-5.913.31-.478.956-.03 2.047.448 2.871 1.093.99 2.56 1.91 4.131 1.395.411-.201.786-.508 1.127-.886m6.699.17c.067-.649-.311-1.297-.956-1.331-.481-.067-.959.274-1.093.716 0 .548.167 1.233.785 1.331.649.103 1.023-.202 1.264-.716m10.861 0c.104-.545-.171-1.057-.615-1.264-.512-.204-1.127-.033-1.401.445-.237.581.104 1.264.685 1.468.512.14 1.194-.135 1.331-.649m10.115-15.44c2.731-5.432 2.29-12.642-.992-17.697-3.451-5.807-10.183-9.019-17.32-8.267-6.528.856-13.12 5.566-15.069 12.091-2.22 6.325-.579 14.043 4.305 18.519 4.613 4.574 11.891 6.73 18.519 4.44 4.543-1.471 8.368-4.848 10.557-9.086" fill="#fff"/><path d="m273.08 176.127c-.104-1.604-1.504-3.142-.682-4.646.171-.071.271-.204.375-.308 1.434 1.915 3.416 4.236 6.287 3.383.509-.241 1.194-.615 1.398-1.23.274-1.501-1.638-1.916-1.398-3.42-.07-.681 1.161-2.216-.444-2.113l-1.571-.514c.136 1.504.136 3.282 1.638 4.031.408.341 1.16.375 1.263.956 0 .618-.682.822-1.126.959-3.21 1.057-6.321-5.809-8.167-.514-1.738.615-.989-1.706-2.286-1.913-2.634-.478-3.554 2.561-6.084 2.528-.752 0-1.605-.238-1.909-.889.271-1.127 1.875-1.06 2.286-2.083.308-.926.615-1.882.615-2.938-.685.033-1.537.444-2.289.645.103.789.545 2.056.07 2.972-.515.652-1.507 1.264-1.13 2.36.448.889 1.367 1.199 2.223 1.333 2.353.101 4.168-1.638 5.328-3.553.548.341.686.993.786 1.538-.441.103 0 .682-.344.889l-.749 2.46 2.871 3.587c1.093-1.023 2.016-2.357 3.039-3.52" fill="#0995d4"/><path d="m272.706 175.957c-.137-.033-.036-.171-.07-.274l-2.427 2.801c-.889-.752-1.568-1.808-2.457-2.734-.174.174 0 .378.07.515l2.287 2.801z" fill="#fff"/></g><path d="m34.252 16.89-.075 3.924h.188v-3.924z" fill="#fff"/><g clip-path="url(#b)" transform="matrix(1.11591 0 0 -1.11591 -267.165 215.224)"><path d="m272.399 175.239c.1-.441-.137-.716-.274-1.023h-1.401v2.938zm-2.801-1.024c-.752.034-1.949-.274-1.678.953l1.608 1.915zm-2.494-3.182c-1.845 1.133-3.623 3.316-6.117 2.36l-.752-.612c-.204.271.17.475.14.752.919.99 2.183.886 3.413.682 1.504-.582 2.531-1.812 3.316-3.182m12.98 2.193v-.341c-.514.612-1.434.779-2.357.716-1.775-.275-2.972-1.642-4.442-2.568.922 1.852 2.56 3.182 4.576 3.387.893-.037 1.778-.375 2.223-1.194m-8.13.307v-.207h-3.52v.274c1.163 0 2.394.064 3.52-.067m-2.634-.892c-.101-.713-.579-1.504-1.331-1.672h-.167c.852.341.097 2.049 1.498 1.672m2.738-1.093.441-.579c-.581.037-1.16.545-1.33 1.093l-.171.579c1.093.448.649-.682 1.06-1.093m-9.397-2.15-1.093.375-.308 1.333c.752-.204 1.264-.989 1.401-1.708m16.4 1.709c-.411-.752 0-1.806-1.264-1.708h-.137c.137.718.649 1.504 1.401 1.708" fill="#fff"/><path d="m267.685 169.262c.067.819 1.023.274 1.535.444.036-.17-.034-.34.173-.444.134.104.031.274.064.444.515-.17 1.571.375 1.541-.444.304 0 .03.341.237.444h1.164c.033-.17-.034-.34.17-.444.204.578 1.026.408 1.605.444-.92-1.744-.579-4.031-.649-6.12.171-.128.445-.064.649-.1.067-.204-.171-.679.237-.649h.204c.14.174.07.445.07.649h1.572v-.649c.173-.134.444-.03.651-.067.137.204.067.475.067.716.308.07.752-.104.886.17-.134.14-.338.037-.508.07.612.786 1.571 1.297 2.424 1.915.892-.551 1.744-1.23 2.597-1.845 0-.31-.341-.036-.445-.21-.341-1.394.856-3.724-1.023-4.129-.274-.277-.103-.715-.173-1.062 1.059-.956 1.23-2.525 2.152-3.688.378.107.682.378 1.093.378-.1-.889-1.026-1.164-1.604-1.611-1.264-.238-2.187 1.267-3.487.722-.545-.582-1.263-.99-2.049-.789-.752.381-1.434 1.096-2.357.789-.785-.408-1.571-1.23-2.527-.789-.652.341-1.331.856-2.119.652-.889-.241-1.605-1.264-2.664-.652-.685.481-1.468 1.127-2.357.652-.615-.509-1.334-.89-2.153-.652-.716.241-1.334 1.3-2.223.789-.816-.408-1.809-1.334-2.801-.582-.475.512-1.16.752-1.297 1.471l1.163-.378a27 27 0 0 1 1.705 3.487c.719-.171.341.682.448 1.026-2.324.511-.786 3.002-1.334 4.436h-.24c.651.786 1.677 1.367 2.46 1.985.925-.581 1.778-1.199 2.493-1.915l-.374-.14c.207-.128.515-.064.752-.1v-.579c.171-.137.445-.033.649-.07.137.174.07.445.07.649h1.571c.067-.204-.207-.679.204-.649h.241c.134.174.03.445.067.649h.581l.067 4.135c-.445.615-.305 1.434-.648 2.085.481-.17 1.4.375 1.47-.444" fill="#0995d4"/><path d="m270.794 168.887c.374 0 1.023-.104.886.511.411.204.445-.31.512-.511.341.1 1.196-.274 1.026.438h.444c.137-.338-.24-.645-.204-1.02l-6.494-.07c0 .378-.305.652-.238 1.09.652.04.652-.816 1.471-.508.137.137.067.344.067.508.377.104.615-.1.615-.438 1.059-.515.545.953 1.604.511.104-.173 0-.481.311-.511m-7.962 0c.137-.344-.033-.825.137-1.197-.511.305-1.127.372-1.708.545l.24 1.09c.445-.134.884-.304 1.331-.438m16.229-.377v-.274l-1.641-.442.17 1.094c.615.167 1.501.752 1.471-.378" fill="#fff"/><path d="m271.169 167.69c-.067-.375-.171-.618-.514-.789-.613 0-1.161-.064-1.435.445v.344zm-2.357-.07c.033-.411-.378-.514-.615-.719l-.889-.064v.783zm4.268-.719c-.682-.064-1.127.067-1.571.445v.274h1.571z" fill="#ec2b34"/><path d="m246.88 164.374c.99-.305 2.083.274 3.106.067-.408-.749-1.364-1.501-1.778-2.18.548-.825 1.266-1.581 1.711-2.464l-2.905.549c-.545-.826-.615-1.846-1.16-2.665-.411.819-.685 1.839-1.197 2.729l-2.731-.375 1.705 2.156c-.441.886-1.401 1.638-1.538 2.561 1.026 0 2.668-1.295 3.182.237.235.615.375 1.264.716 1.848.511-.685.478-1.674.889-2.463m47.896 1.197c.372-.481 0-1.985 1.16-1.398l2.22.268c-.408-.919-1.23-1.297-1.775-2.18.374-.789 1.13-1.544 1.708-2.296-.822-.03-1.812.311-2.801.277-.478-.855-.786-1.741-1.197-2.631h-.137c-.375.853-.411 1.846-.956 2.631l-2.868-.444c.441.855 1.193 1.4 1.671 2.15-.341.992-1.33 1.51-1.671 2.493l2.731-.341 1.16 2.634c.515-.073.411-.789.755-1.163" fill="#fff"/><path d="m268.197 164.889c-.207-.137-.548-.04-.819-.067v1.568h.749zm2.457 0c-.238-.137-.545-.04-.819-.067l-.067 1.568h.886z" fill="#ec2b34"/></g><path d="m36.655 31.297h.914v-1.75h-.914z" fill="#ec2b34"/><path d="m22.088 32.103 1.489-1.148 1.64 1.148z" fill="#fff"/><g clip-path="url(#c)" transform="matrix(1.11591 0 0 -1.11591 -267.165 215.224)"><path d="m281.248 164.1h-2.801c.511.311 1.123 1.233 1.708.889z" fill="#fff"/><path d="m271.065 164.374c.137-.201.07-.478.104-.719-.375-.1-.993-.03-.752-.682h-.582c-.033.241.103.822-.378.612h-.237l.101.789zm1.946 0c.137-.201.036-.545.07-.789h-.375c-.137-.204-.036-.441-.07-.679h-.511c-.067.238.137.889-.375.679h-.24l.103.789zm-4.199-.067c.104-.207.033-.478.067-.722h-.512c-.137-.204-.067-.441-.103-.679h-.579c.442.889-.855.551-.307 1.401zm-8.577-.721c.14-.542-.685-.576-.512-1.194v-.514h-.953l.064 1.708zm1.982-1.772h-.956c.207.789-.344 1.23-.512 1.772h1.468zm19.408 0h-1.026c-.104.475.274 1.23-.444 1.401v.371h1.47zm-1.915 1.671c-.481-.304-.786-.956-.649-1.672h-.822v1.672z" fill="#ec2b34"/><path d="m265.325 162.53c.344-.137.786-.034 1.197-.064.137.164.036.442.07.679h.715v-.615l1.264-.064c.137.164.034.442.07.679h.886v-.615c.344-.137.786-.034 1.197-.064.137.164.033.442.07.679h.956v-.615l1.261-.064c.136.164.036.442.069.679h.819v-.615c.308-.137.716-.034 1.094-.064.137.164.036.442.07.679h.889v-.615c.304-.137.749-.034 1.093-.064v-.204h-13.769v.204h1.163l.064.679h.822z" fill="#fff"/><path d="m268.88 161.814c-.615-.137-1.979-1.608-1.915 0zm4.646 0c-.171-1.675-1.434 0-2.153 0zm1.979 0c.137-.171.036-.448.07-.685-.749-.448-.378.481-.889.685zm1.54 0c.137-.171.064-.448.1-.685l-1.059-.067v.752z" fill="#ec2b34"/></g><path d="m26.627 35.494h1.218v-.764h-1.218z" fill="#ec2b34"/><g clip-path="url(#d)" transform="matrix(1.11591 0 0 -1.11591 -267.165 215.224)"><path d="m265.633 161.747c-.374-.274-.137-.962-.819-.685v.685z" fill="#ec2b34"/><path d="m272.843 160.346c1.093-1.574.411-3.864.615-5.776l-.548-.375c-.411 2.25 1.163 5.637-1.608 6.559-1.023.478-2.286.17-3.105-.579-1.334-1.507-.482-4.101-.719-5.913l-.515.551c.207 2.217-.749 5.256 1.678 6.316 1.364.788 3.21.274 4.202-.783" fill="#fff"/></g><path d="m21.599 35.154v.836l1.712-.072v-.764z" fill="#ec2b34"/><g clip-path="url(#e)" transform="matrix(1.11591 0 0 -1.11591 -267.165 215.224)"><path d="m262.217 160.617h-1.468c.067.241-.103.648.134.749h1.334z" fill="#ec2b34"/></g><path d="m43.325 35.99h1.485v-.836h-1.485zm2.059-.836.078.836h1.64v-.836z" fill="#ec2b34"/><g clip-path="url(#f)" transform="matrix(1.11591 0 0 -1.11591 -267.165 215.224)"><path d="m265.84 160.242v-.445h-2.36v.752c.789-.103 1.812.235 2.36-.307m1.264.308c-.307-.307-.173-.892-.822-.752-.308.716.582.445.822.752m7.003-.752c-.581-.207-.548.512-.822.752.311-.204 1.127-.14.822-.752m2.802 0h-2.357c-.14.137-.036.341-.07.548.682.371 1.605.137 2.427.204z" fill="#ec2b34"/><path d="m270.417 157.952c.103-.14.308-.036.445-.07.274.719.1 1.638.136 2.463.205.064.342-.103.442-.24v-2.153c.137-.14.341-.036.515-.07l.103 1.848c.545-.411.134-1.266.341-1.848h.238v-.375c-.171.104-.271-.106-.308-.207v-.441h-.374c-.037.207.17.715-.274.579-.274.136-.341-.168-.308-.341v-.238h-.375c-.036.207.171.715-.273.579-.274.136-.341-.168-.308-.341v-.238h-.374c-.037.207.167.715-.275.579-.274.136-.343-.168-.31-.341v-.238h-.375c-.033.207.174.715-.271.579-.307.136-.344-.168-.307-.341v-.238h-.445c-.033.207.067.441-.07.579h-.167v.444h.167c.241.618-.274 1.611.515 1.915v-1.845c.137-.14.341-.036.511-.07l.067 2.36.311.167.064-2.353c.107-.244.344-.14.514-.174l.071 2.6h.374z" fill="#fff"/><path d="m261.772 160.175c-.445-.344-.749-1.096-1.468-.822l-.889.682c.649.274 1.571.103 2.357.14m19.268 0c-.478-1.026-1.949-.926-2.494 0zm-17.934-.377c-.07-.14-.238-.033-.378-.067l.308.374c.14-.036.07-.204.07-.307" fill="#ec2b34"/></g><path d="m42.258 36.979h.228v-.262h-.228zm-3.698 1.491h1.713v-.997h-1.713z" fill="#ec2b34"/><g clip-path="url(#g)" transform="matrix(1.11591 0 0 -1.11591 -267.165 215.224)"><path d="m278.376 159.08v-.685h-2.357v.892c.786-.067 1.708.207 2.357-.207" fill="#ec2b34"/></g><g fill="#ec2b34"><path d="m25.371 37.55-.078.92h2.633v-.92z"/><g clip-path="url(#h)" transform="matrix(1.11591 0 0 -1.11591 -267.165 215.224)"><path d="m266.522 159.22c-.137-.21-.067-.551-.104-.825h-1.537v.825zm-4.884-.582c0-.137.031-.307-.137-.307h-.241c.137.1.241.27.378.307"/></g><path d="m43.899 38.351h.266l-.19-.153zm-16.891.69-.075.989 2.63-.112v-.877zm3.127.877h.116v-.877h-.116zm8.426 0h.228v-.877h-.228zm.72 0h2.48v-.877h-2.48zm3.055-.877v.989l3.39-.112v-.877zm-19.253.989h3.277v-.91h-3.277z"/><g clip-path="url(#i)" transform="matrix(1.11591 0 0 -1.11591 -267.165 215.224)"><path d="m282.441 154.433c-.579-.171-1.294.034-1.708.445l.1 2.935c.652-1.02 1.063-2.25 1.608-3.38m-23.981-.171h-.378c.104 1.264.993 2.323 1.504 3.483-.377-1.16.923-3.583-1.126-3.483"/></g><path d="m38.636 41.4h1.637v-.87h-1.637zm2.211 0h2.556v-.87h-2.556zm-17.691-.796-.073.796h1.639v-.796zm2.137.796h2.633v-.796h-2.633zm3.204-.796v.796l1.638-.072v-.724zm15.401.796h1.828v-.796h-1.828z"/><g clip-path="url(#j)" transform="matrix(1.11591 0 0 -1.11591 -267.165 215.224)"><path d="m263.036 155.255c.14-.274.07-.652.07-.993-.615.171-1.23.682-1.912.893.579.133 1.23.066 1.842.1m2.938-.101c-.852.134-1.571-.515-2.357-.789v.889c.786-.033 1.641.034 2.357-.1"/></g><path d="m38.636 42.395v-.153l-.076-.268z"/><g clip-path="url(#k)" transform="matrix(1.11591 0 0 -1.11591 -267.165 215.224)"><path d="m276.838 154.433c-.886-.033-1.367 1.093-2.357.581v.241h2.357zm2.598.822c-.786-.274-1.504-.685-2.153-1.06v1.06zm.956-.101h-.307v.1c.103-.033.237.034.307-.1"/></g><path d="m23.156 42.085.077.156.157-.156z"/></g><g clip-path="url(#l)" transform="matrix(1.11591 0 0 -1.11591 -267.165 215.224)"><g fill="#0995d4"><path d="m282.752 152.658c.1-.104-.207-.688-.378-.956-1.196-.207-2.015 1.16-3.245.819-.719-.551-1.538-1.267-2.528-.752-.618.444-1.3.889-2.119.648-.719-.34-1.334-1.196-2.22-.855-.855.31-1.675 1.196-2.734.651-.819-.17-1.568-1.23-2.494-.511-.615.441-1.264.989-2.083.648-.682-.38-1.4-.956-2.289-.715-.856.134-1.401 1.397-2.427.715-.749-.273-1.501-1.059-2.357-.648l-.442 1.026c.479-.445 1.569-.311 2.15.134 1.742 1.671 2.905-1.608 4.644-.067 1.54 1.467 2.874-1.197 4.412-.207.645.414 1.4.755 2.22.515.785-.278 1.571-1.231 2.423-.582.652.481 1.434.922 2.29.648.856-.167 1.641-1.297 2.53-.511.612.478 1.435 1.023 2.287.578.615-.411 1.471-1.053 2.36-.578"/><path d="m263.721 150.678c.682.372 1.401.956 2.253.716.889-.14 1.471-1.197 2.46-.82.719.512 1.538.987 2.494.68.685-.271 1.227-1.021 2.083-.68.548.545 1.23.82 1.982.887 1.06 0 1.845-1.365 2.938-.649.478.582 1.13.682 1.779.822.852-.037 1.364-.892 2.219-.892-.24-.238-.067-1.09-.682-.685-.752.277-1.47 1.096-2.36.621-.578-.551-1.297-1.026-2.116-.822-.752.478-1.641 1.127-2.597.648-.615-.478-1.264-1.093-2.116-.718-.789.411-1.641 1.059-2.601.581-.645-.341-1.397-.922-2.149-.581-.649.478-1.401 1.026-2.29.788-.749-.41-1.538-1.163-2.494-.648-.682.371-1.33 1.193-2.219.648l-1.471-.718-.442.718c1.23.202 2.561 1.913 3.825.545.307-.478.959-.651 1.504-.441"/><path d="m281.248 149.104-.274-.581c-.652.237-1.334.788-2.086.374-.441-.511-1.09-.852-1.672-.819-1.026.036-1.711 1.16-2.804.752-.715-.341-1.193-1.2-2.15-.953-.959.646-2.152 1.157-3.246.442-1.437-1.642-2.53 1.163-4.064.411-.82-.171-1.471-1.163-2.427-.585-.615.207-1.197 1.233-1.983.752l-1.056-.511-.341.648c.682.344 1.364 1.063 2.287.682.852-.167 1.266-1.227 2.29-.819.782.414 1.674 1.06 2.63.585.716-.411 1.708-1.337 2.528-.448.578.448 1.4.682 2.119.378.578-.308 1.126-.889 1.845-.682.819.545 1.638 1.16 2.661.883.752-.338 1.571-1.158 2.427-.579.856.993 2.46 1.023 3.316.07"/></g><path d="m282.578 144.528c-.953-2.153-.819-5.195 0-7.381l-1.468-.716c-1.163 1.913-.922 4.885-.204 7.001l-.173.137-3.313-1.468c-.344.174-.548.648-.649 1.026l.375.372 4.716 2.155c.412-.103.478-.749.716-1.126m-21.454-.515c-1.501-2.049-2.354-4.372-3.757-6.492-.512-.03-.856.344-1.264.515v.511l2.423 4.373c-.237.786-2.527.718-1.333 1.912.889-.338 2.052-.578 2.838.137.374-.234 1.263-.274 1.093-.956m6.936-2.22c.819-1.675.444-3.928-.512-5.426-.514-.725-1.129-1.337-1.982-1.504-1.403-.207-2.905.475-3.553 1.635-.171.307-.344.682-.137 1.023.752 0 1.708-.134 1.845-1.023.478-.308 1.197-.542 1.742-.204.581.304.855.886 1.059 1.465-.993-.238-2.46-.269-3.246.584-.548.545-.852.99-.992 1.708-.171 1.228.478 2.25 1.437 2.869.819.377 2.049.548 2.938.137.512-.408 1.093-.619 1.401-1.264m6.25.752c.341-2.631.886-5.158.99-7.889-.545.033-.923-.378-1.501-.204l-.204.411a31.6 31.6 0 0 0 -.448 4.811c-.649.545-1.331-.101-2.083 0-.17.204-.237.584-.204.956.682.307 1.605.511 1.913 1.263-.034.756.956.652 1.537.652" fill="#fff"/><path d="m266.796 141.075c.204-.649 0-1.261-.378-1.775-.444-.411-1.196-.478-1.741-.207-.515.378-.993.992-.685 1.678.036.508.581.989 1.026 1.123.785.171 1.54-.201 1.778-.819" fill="#0995d4"/></g></svg>