<svg viewBox="0 0 198.3 306.23" xmlns="http://www.w3.org/2000/svg"><path d="M85.95 32.77l5.3 3.85 7.9-6.67 7.85 6.64 5.33-3.87-3.46-10.36 6.92-5.08-1.94-5.75h-8.56c-1.59 1.92-3.21 3.14-4.96 4 .55 0 10.91-.04 10.91-.04l-7.23 5.31 3.65 10.93-8.5-7.19-8.5 7.18 3.65-10.92-7.24-5.32s7.76.09 9.34-.15c1.4-.21 2.73-.79 3.94-1.52 1.3-.78 2.61-1.78 3.56-2.98 1.06-1.45 1.64-3.1 1.64-4.64 0-3.47-2.74-6.19-6.25-6.19-3.73 0-5.99 3-5.99 6.2 0 1.29.55 2.95 1.34 4.23 1.87-.16 3.05-.92 3.88-1.59-.7-.87-1.09-2.03-1.09-2.64 0-.63.23-1.25.62-1.69.38-.42.84-.63 1.37-.63s.99.21 1.37.63c.4.44.62 1.06.62 1.69 0 .6-.26 1.33-.72 2.03 0 0-2.12 3.29-6.87 3.29h-9.37l-1.94 5.75 6.92 5.08-3.48 10.42zM0 62.64v138.43c0 22.59 6.44 40.5 16.03 54.64 28.06 41.36 83.12 50.52 83.12 50.52s55.06-9.16 83.12-50.52c9.59-14.14 16.03-32.05 16.03-54.64V62.64z" fill="#fbed1d"/><path d="M138.8 130.62c-11.69-6.56-25.22-10.3-39.55-10.31h-.02c-14.33 0-27.86 3.75-39.55 10.31-6.86-2.32-19.79-5.83-35.59-5.83h-5.78v76.65c0 13.77 4.27 29.42 11.43 41.26l2.98 4.56 5.01-2.51 9.03 17.63 7.56-3.07 5.75 16.02h20.66l4.26 11.76h28.52l4.26-11.76h20.66l5.75-16.02 7.56 3.07 9.03-17.63 5.01 2.51 2.98-4.56c7.17-11.85 11.43-27.49 11.43-41.26v-76.65h-5.78c-15.8 0-28.73 3.51-35.59 5.83zm-108.84 5.89c23.29 0 55.22 16.14 55.22 16.14l-9.13-16.76c5.05-1.81 11.39-3.06 11.39-3.06l11.77 22.33v.02l.02.02v-.05L111 132.82s6.35 1.25 11.39 3.06l-9.13 16.76s31.94-16.14 55.22-16.14v22.89c-2.42-3.96-5.75-8.51-8.87-11.99 0 0-9.44 2.33-12.44 3.74 4.13 3.94 8.16 8.85 11.53 14.47l-19.8 10.31 5.46 7.42 18.63-9.22c1.15 2.83 2.48 6.21 3.25 9.21l-25.43 12.5-17.41-22.39 19.02-9.61c-2.73-3.17-5.83-6.01-9.21-8.53l-28.11 14.21 12.74 16.88-18.65 9.26-18.65-9.26 12.74-16.88-28.11-14.21c-3.37 2.52-6.48 5.35-9.21 8.53l19.02 9.61-17.41 22.39-25.43-12.5c.77-3 2.1-6.38 3.25-9.21l18.63 9.22 5.46-7.42-19.8-10.31c3.38-5.62 7.4-10.53 11.53-14.47-3-1.41-12.44-3.74-12.44-3.74-3.12 3.48-6.44 8.03-8.87 11.99V136.5zm100.55 66.59l-5.19 14.73h-20.16v-14.59l18.42-9.27zm-37.21.15v14.59H73.14L68 203.11l6.88-9.13zM37.17 232.2c-1.53-3.16-2.7-6.27-4.07-9.84l16.02-6.62-2.21-6.19H30.37c-.51-4.65-.64-10.32-.16-14.86l25.16 9.86 5.69 15.82-23.89 11.82zm28.68 30.15l-6.44-17.95-7.76 3.68-4.32-8.16 17.59-8.82 11.18 31.25zm17.94-14.73l-6.83-19.06h14.83l-8.01 19.06zm20.93 27.72H93.73l-6.29-17.74 11.77 9.46 11.91-9.46zm9.93-27.72l-8.01-19.06h14.83l-6.83 19.06zm32.6.46l-8.23-3.68-6.44 17.95h-10.25l11.18-31.25 17.59 8.82zm20.82-38.52h-16.54l-2.21 6.19 16.02 6.62c-1.37 3.57-2.54 6.67-4.07 9.84l-23.89-11.82 5.69-15.82 25.16-9.86c.49 4.54.35 10.21-.16 14.86zM33.94 108.81h28.42V98.22H33.94V89.1h32.42V78.05H18.12v38.65h15.82zM143.35 96.3l19.92 20.39h16.91V78.05h-13.81v22.32l-21.88-22.32h-14.95v38.64h13.81zm-22.04 14.52v-10.69H89.35c-1.51 0-2.73-1.22-2.73-2.73v-6.05c0-1.51 1.22-2.73 2.73-2.73h31.96V78.05H84.06c-6.52 0-11.81 5.29-11.81 11.81v9.16c0 6.52 5.29 11.81 11.81 11.81h37.25z" fill="#dd2a26"/></svg>