<svg xmlns="http://www.w3.org/2000/svg" viewBox="0 5 816 1124"><path fill="#D41D27" d="m407 5 4 2 7 13 10 15 13 18 12 14 9 11 11 11v2h2l6 7 8 7 9 9 11 9 13 11 17 13 27 18 15 9 26 14 27 12 25 9 23 7 34 7 23 3 14 1h37l22-1 1 1 3 34v104l-5 57-6 48-4 24-11 55-12 45-12 39-13 37-15 37-12 27-14 29-8 16-16 30-13 22-16 26-20 30-20 28-13 17-11 14-13 16-9 11-9 10-7 8-9 10-24 26-28 28-8 7-15 14-8 7-15 13-11 9-14 11-11 9h-2l-2 4-4-1-8-7-20-16-13-11-11-9-14-13-8-7-16-15-36-36-7-8-14-15-7-8-12-14-9-11-13-16-13-17-14-19-13-18-23-35-17-28-12-21-13-24-9-17-11-23-13-29-13-32-10-27-12-36-10-34-11-44-9-45-6-40-5-44-4-49v-92l3-34 1-7 4-1 16 1h41l31-3 38-8 24-7 32-12 35-17 24-14 21-14 14-10 15-12 11-9 24-22 14-14 7-8 9-10 11-14 10-13 14-21 7-13z"/><path fill="#FDFDFC" d="m407 146 4 2 5 5v2l4 2 17 17 8 7 14 12 11 9 24 18 24 16 13 8 21 12 17 9 32 14 24 9 22 7 23 6 24 5 27 4 8 1 2 3-1 50-3 44-5 44-6 35-9 43-9 35-12 39-10 29-10 26-2 2h-35v-39h-30l1-2 10-4 5-4 1-2v-10l-17-2-13-2-14-5-16-8-16-13-9-9-9-11-8-9-15-20-15-22-11-17-15-25-9-16 1-5 10-30 6-26 3-23v-12l1-2 13-2h6l-1 14 33-16 36-17v-1l-24-3-44-5-4-1 2 7v4l-7 2-12 1-8-20-10-20-8-12-10-13-12-14-7-10-6-12-2-7v-24l-6 4-4 5h-2l-2 4-11 17-15 24-12 20-7 11-12 19-22 36-10 15-3 2h-6l-3-6-1-7-6-3-2-4 5-5 3-1-4-7-11-13-5-6 2-5v-5l-4-5-10-1h-25l-13 4-12 7-7 7-8 16-4 17-1 9v49l-8 6-11 10-4 6-2 5 1 7 4 5 6 2 7 1h25l13-1 6 4 11 11 10 13 8 16 4 10 3 12 2 21v26l6 2 17 9 3 4 1 7-3 8-9 10-5 7 1 8 7 15 1 6h-94v39h-34l-5-8-16-45-13-42-11-44-8-38-6-38-5-46-2-24-2-51v-12l6-2 37-6 31-7 27-8 22-8 28-12 17-8 19-10 17-10 16-10 16-11 16-12 14-11 17-14 15-14 17-16z"/><path fill="#FBFBFA" d="M165 690h487l-2 6-22 45-12 22-15 26-14 22-22 33-12 17-10 13-12 16-7 8-11 14-9 10-7 8-3 4h-2l-2 4-3 4h-2l-2 4-16 17-35 35-8 7-12 11-2 2-5-1-12-12-8-7-9-9-8-7-22-22-7-8-16-17-9-11-10-11-11-14-14-17-14-19-13-18-11-16-11-17-12-19-15-26-10-18-17-33-11-23z"/><path fill="#080103" d="M405 193h1v25l4 12 8 13 11 13 12 15 10 15 12 24 5 14v2l19-3-2-7v-4l22 2 44 5 7 2-3 3-65 31h-2l1-14-19 2v14l-3 23-6 26-10 30-1 5 10 18 9 15 12 19 10 15 12 17 10 13 9 11 9 10 7 8 10 9 10 7 16 8 16 5 21 2 5 2 1 3v7l-4 5-10 5-9 2h-72l-5-5-5-10-6-16-7-12-5-10-13-10-10-8-13-12-11-12-10-13-7-10-3-2h-2l-2 5-12 18-7 8 1 5 11 15 12 22 5 13 1 4v13l-3 7-5 5-8 6-5 2h-29l-17-6-18-8-14-8-7-5-6-1-14 2 3 7 9 13-1 3h-38l-5-13-5-11 1-7 11-12 4-7 1-8-3-6-19-10-4-2-1-6v-20l-2-21-5-18-8-17-9-12-11-12-6-5-3-1-12 1h-25l-10-2-5-3-4-6 1-7 3-6 9-10 11-9h2l-1-12v-37l3-19 4-12 6-11 8-8 14-8 11-3h25l10 1 5 6-1 7-1 3 7 8 12 15v3l-6 4-1 3 4 4 4 2 2 10 1 2h6l5-5 8-13 13-21 14-23 7-11 15-24 14-23 15-23 3-4h2l2-4 6-5z"/><path fill="#D41D27" d="m407 5 4 2 7 13 10 15 13 18 12 14 9 11 11 11v2h2l6 7 8 7 9 9 11 9 13 11 17 13 27 18 15 9 26 14 27 12 25 9 23 7 34 7 23 3 14 1h37l22-1 1 1 3 34v104l-5 57-6 48-4 24-11 55-12 45-12 39-13 37-15 37-12 27-14 29-8 16-16 30-13 22-16 26-20 30-20 28-13 17-11 14-13 16-9 11-9 10-7 8-9 10-24 26-28 28-8 7-15 14-8 7-15 13-11 9-14 11-11 9h-2l-2 4-4-1-8-7-20-16-13-11-11-9-14-13-8-7-16-15-36-36-7-8-14-15-7-8-12-14-9-11-13-16-13-17-14-19-13-18-23-35-17-28-12-21-13-24-9-17-11-23-13-29-13-32-10-27-12-36-10-34-11-44-9-45-6-40-5-44-4-49v-92l3-34 1-7 4-1 16 1h41l31-3 38-8 24-7 32-12 35-17 24-14 21-14 14-10 15-12 11-9 24-22 14-14 7-8 9-10 11-14 10-13 14-21 7-13zm0 53-10 13-9 11-13 15-12 13-19 19-8 7-15 13-11 9-12 9-14 10-15 10-21 13-29 15-24 11-30 11-29 8-28 6-22 3-26 2-29 1-1 1-1 24v63l1 31 2 27 5 44 6 40 7 36 10 42 10 36 10 31 14 38 12 29 12 27 12 25 11 22 26 46 12 19 9 14 8 12 14 20 14 19 12 16 13 16 11 14 10 11 7 8 9 10 7 8 14 15 35 35 8 7 7 7 8 7 10 9 11 9 16 13 4 4 6-1 13-12 10-8 14-12 16-15 8-7 14-14 8-7v-2l4-2 7-8 15-15 7-8 12-13 9-11 8-9 9-11 13-16 15-20 14-19 16-24 7-10 12-19 16-27 14-25 15-29 15-31 12-28 11-28 13-36 13-42 8-31 8-35 7-38 5-35 5-46 2-34 1-25v-43l-1-27-1-12-44-2-26-3-22-4-26-6-36-12-26-11-16-8-23-12-21-13-19-13-12-9-13-10-14-12-8-7-12-11-25-25-7-8-12-14-13-17z"/><path fill="#FCFCFB" d="m407 58 4 2 11 14 11 13 9 10 7 8 27 27 8 7 14 12 17 13 13 10 26 17 17 10 22 12 24 11 26 10 25 8 36 8 26 4 28 2 28 1 1 12 1 27v43l-2 45-4 44-5 37-4 25-7 37-10 41-10 35-12 36-14 38-18 42-20 41-12 23-12 21-18 30-13 20-13 19-14 20-16 21-10 13-14 17-11 13-12 14-24 26-13 13-3 4h-2l-2 4-15 14-11 11-8 7-13 12-11 9-14 12-11 9-5-1-11-10-10-8-13-11-10-9-12-11-16-15-35-35-7-8-12-13-7-8-12-14-9-11-13-16-9-12-14-19-13-18-10-15-13-20-16-26-14-25-12-22-17-34-18-41-14-36-12-34-12-40-12-48-7-34-6-36-6-48-2-21-1-17-1-31v-63l1-24 1-1 29-1 35-3 28-5 32-8 27-9 24-10 25-12 19-10 19-12 12-8 17-12 13-10 14-12 11-9 17-16 18-18 7-8 11-13 12-15zm0 46-13 15-7 7v2h-2v2h-2l-6 7-6 5-15 15-8 7-11 9-15 12-15 11-30 20-23 13-23 12-30 13-25 9-23 7-32 7-35 5-24 2-5 2v66l3 48 5 45 7 44 8 39 8 32 10 36 14 41 11 29 13 31 13 28 18 36 13 23 14 24 12 19 22 33 13 18 14 19 13 16 8 10 11 13 9 11 12 13 22 24 36 36 8 7 12 11 11 9 10 9 4-1 12-11 11-9 9-9 8-7 7-7 8-7 23-23 7-8 8-8 7-8 9-10 7-8 18-22 12-15 10-13 14-19 7-10 13-19 11-17 13-21 11-18 6-11 18-34 15-31 6-15 5-10 12-30 10-28 11-33 13-47 9-40 8-46 5-36 4-47 1-19v-74l-1-1-20-1-32-4-34-7-25-7-29-10-24-10-30-15-16-9-18-11-12-8-17-12-18-14-14-12-11-10-8-7-25-25-9-11-6-7z"/><path fill="#FCFCFB" d="m391 224 4 4 4 8 3 10 7 7 10 14 12 23 8 23v5l-9 6-10 5-15 5-20 4-14 2-15 5-15 6-15 3h-14l-1-3 6-11 11-17 10-16 15-23 8-13 15-24 7-11z"/><path fill="#100204" d="M202 702h50l1 1-1 12-1 1-18 1 3 8 16 24 7 11 4 3-1-7v-53l1-1h15l1 1v90l1 3 5 2v-95l1-1h15l1 1v155l-1 2h-7l-4-4-17-28-11-18-12-19-10-17-10-16-13-21-11-18-5-10-1-5z"/><path fill="#110304" d="M441 765h38l2 1v14l-1 8h-26v24l26 1 1 1v120l-3 5-8 7-56 56h-2v-95l1-1h17v39l4-2 7-8 19-19 1-2v-71l-22-1-1-44v-32z"/><path fill="#FCFCFB" d="m427 501 6 5 8 12 11 13 7 8 7 7 11 9 17 13 5 8 7 14 4 9 7 17 3 4v2l-100 1 1-3 7-5 4-7 1-3v-13l-5-15-10-19-8-12-7-9 1-5 7-8 14-22z"/><path fill="#110304" d="M386 702h18v173l-1 1h-14v85l-1 7h-6l-8-7-12-14-9-10-9-11-9-10-3-5 1-26 1-1 7 1 4 9 14 14 5 6 3 1v-68h19z"/><path fill="#FCFCFB" d="M419 362h26l1 1v15l-2 23-5 28-3 7-5 2-14 2h-7l-32-16-25-12-22-11-8-7-1-3 4-3 25-5 19-4 11-4 15-7 17-5z"/><path fill="#0E0204" d="M525 702h17l1 3-1 99 4-4 11-18 5-7 1-49 4-1h17l1 1v54l-3 7-7 10-12 19-11 17-13 20-11 18-3 1z"/><path fill="#FBFBFA" d="M216 651h384l1 5-2 5H217l-1-1z"/><path fill="#1A0406" d="M413 702h16l1 1v172l-1 1h-16l-1-2V703z"/><path fill="#0A0203" d="M313 702h14l1 4v124l24 1 1 1v38l-1 1h-15l-4-8-2-7-18-1-1-4V703z"/><path fill="#FCFCFB" d="m313 402 6 2 78 39v4l-10 8-14 8-14 5-10 3h-13l-9-10-6-12-4-16-4-29z"/><path fill="#C6C7C7" d="M306 489h10l6 4 13 11 8 7 7 8 4 5-1 2-6-3-1 8-6 4-21 7-7 1h-26l-4-5-7-18-2-14 3-4 9-4 6-5 7-3z"/><path fill="#070102" d="M513 765h6l1 1 1 114-1 10-9 10-9 11-11 12-3 1 1-50 11-12 2-3 1-93z"/><path fill="#F9F9F8" d="m322 596 6 1 14 9 15 8 18 7v2l-52-1-3-1-12-18v-4z"/><path fill="#F1F2F1" d="M251 297h5v4l-15 8-7 6-1 2v14l1 21v20h-5l-1-7-1-19v-30l3-5 8-7z"/><path fill="#F8F8F7" d="m269 410 6 2 5 2 12 3 10 6 1 1v15l-4-2-10-8-18-5-6-3 1-5z"/><path fill="#F8F8F8" d="m330 480 5 2 13 10 11 9 5 5-1 5-8-2-12-6-14-11-4-4 2-4z"/><path fill="#170305" d="M568 702h14v17h-17v-8l1-7z"/><path fill="#250508" d="M352 790h15l1 1v13l-2 2h-12l-2-1z"/><path fill="#F2F3F2" d="m269 527 5 2 4 4 3 10v4l-4-1-4-4-4-12z"/><path fill="#F3F3F2" d="m333 504 5 2 15 16 1 4-5-2-7-10-2-4-4-2z"/><path fill="#F0F0EF" d="M309 489h7l6 4 8 7h-3l-9-7-4-1v-2h-5z"/><path fill="#EEEEED" d="M298 490h10v1l-11 2-6 3-3 1v2l-3 1 2-4 8-5z"/><path fill="#EBECEB" d="m350 532 4 1 3 5v3l-4-2-4-5z"/><path fill="#EBEBEB" d="m316 550 5 2 2 1v2h2v3l-5-1-4-4z"/><path fill="#EDEDEC" d="m333 504 5 2 8 9h-3l-3-3v-2l-4-2z"/><path fill="#EFEFEE" d="m279 501 4 1-5 2-3 8-2-3 1-5z"/><path fill="#EAEAEA" d="m336 544 4 1 2 2v4l-4-2-2-2z"/><path fill="#ECEDEC" d="M345 525h1v6l-4 3-3-1 3-1 1-4z"/></svg>