<svg viewBox="124.34 50.05 711.21 859.25" xmlns="http://www.w3.org/2000/svg"><path d="M834.72 654.5v7.62c-.06 23.45-.18 46.91-.1 70.36.01 3.21-.97 4.76-3.93 6.17-40.82 19.44-81.57 39.05-122.33 58.61-49.17 23.6-98.35 47.18-147.51 70.79-27.54 13.23-55.09 26.47-82.55 39.88-2.89 1.41-4.87 2.02-8.11.39-42.21-21.24-84.54-42.25-126.85-63.3-70.13-34.89-140.21-69.89-210.49-104.46-6.52-3.21-8.68-6.54-8.5-13.73.58-23.3.28-46.63.32-69.94v-2.38h710.04zM436.44 421.86V235.5c.72-.16 1.23-.39 1.74-.38 20.43.08 40.86.04 61.29.32 47.41.64 79.14 35.5 82.51 79.15 1.36 17.57 1.26 35.14-5.05 51.98-10.82 28.87-31.42 46.58-61.55 52.87-6.92 1.44-14.12 1.95-21.21 2.1-17.41.36-34.83.25-52.24.33h-5.47zm44.77-93.67h.04v26.72c0 8.91 0 17.81.02 26.72.02 5.31.07 5.37 5.21 5.25 3.7-.08 7.39-.34 11.09-.37 20.87-.13 32.16-13.4 36.42-30.56 3.66-14.72 2.71-29.67 1.92-44.56-.24-4.59-1.3-9.26-2.74-13.65-4.34-13.24-12.19-23.48-26.59-26.38-6.24-1.26-12.81-.91-19.23-1.14-6.11-.22-6.13-.14-6.13 6.18-.01 17.26 0 34.53 0 51.79zm-62.67-93.05c0 2.98.02 5.82 0 8.66-.07 7.27-.35 14.54-.15 21.79.1 3.67-.85 4.96-4.74 4.93-24.95-.2-49.9-.16-74.84-.19-.95 0-1.89.09-3.18.15-.13 1.27-.36 2.46-.36 3.65 0 10.55.17 21.11 0 31.66-.06 3.55 2.06 3.23 4.26 3.23 17.68 0 35.37-.01 53.05-.02h12.89v6.19c0 7.95-.11 15.9.08 23.85.07 2.89-.81 3.83-3.7 3.81-20.97-.11-41.95-.05-62.92-.16-2.51-.01-3.83.34-3.78 3.23.23 12.75.32 25.5.48 38.25 0 .67.21 1.34.37 2.32h82.37v6.07c-.04 8.5-.16 17-.09 25.5.02 2.7-.66 3.97-3.66 3.95-40.71-.19-81.43-.29-122.14-.43-.65 0-1.3-.19-2.27-.34-.08-1.59-.22-3.07-.22-4.54q-.03-85.14-.03-170.28c0-1.78.06-3.56.12-5.34.19-5.92.2-5.89 6.34-5.9 39.89-.06 79.78-.13 119.67-.19.66 0 1.31.07 2.45.14zM181.55 386.68h88.34c.14.77.47 1.77.46 2.78-.06 9.46-.26 18.92-.24 28.38 0 2.65-.51 3.99-3.57 3.99-46.34-.11-92.67-.14-139.01-.19-.54 0-1.07-.13-2.07-.27 0-4.73.36-9.5-.08-14.19-.69-7.3 2.04-12.98 6.17-18.86 25.86-36.75 51.39-73.74 77.04-110.64 1.61-2.32 3.31-4.58 5.42-7.49H124.8v-34.73h144.54c0 7.46 1.11 15.16-.37 22.32-1.06 5.13-5.47 9.62-8.62 14.24-23.41 34.27-46.87 68.5-70.33 102.74-2.6 3.79-5.31 7.49-8.46 11.92z"/><path d="M689.32 469.41h10.75c43.05.01 86.1.07 129.14-.04 3.85 0 5.1.87 5.09 4.97-.13 42.78-.07 85.56.06 128.34.01 3.33-1.06 4.15-4.25 4.1-14.8-.22-29.61-.3-44.42-.22-3.38.02-5.59-1.09-7.47-3.92-26.72-40.3-53.52-80.55-80.31-120.81-2.55-3.83-5.24-7.58-8.59-12.43zM269.53 187.29H125.54c-.1-1.35-.26-2.41-.26-3.47-.06-42.64-.07-85.29-.23-127.93-.01-4.01.74-5.72 5.34-5.65 14.8.22 29.61-.22 44.41-.07 1.93.02 4.57 1.46 5.65 3.07 21.38 31.86 42.58 63.84 63.82 95.8 7.58 11.41 15.17 22.82 22.75 34.23.81 1.22 1.55 2.48 2.51 4.01zm400.3 419.23h-11.4c-42.78.02-85.56 0-128.35.12-3.45.01-4.75-.67-4.73-4.47.18-42.51.17-85.03.24-127.54 0-5.48.08-5.43 5.43-5.41 14.4.06 28.8.15 43.19.03 3.35-.03 5.4.94 7.34 3.88 28.32 42.89 56.8 85.67 85.23 128.48.9 1.36 1.72 2.76 3.05 4.91m19.74-419.21c5.93-8.91 11.3-16.97 16.67-25.03l50.82-76.23c7.29-10.94 14.63-21.85 21.86-32.84 1.51-2.3 3.23-3.21 6.07-3.16 15.07.26 30.15.37 45.22.33 3.33 0 4.06 1.18 4.06 4.32-.06 43.04-.05 86.09.14 129.13.02 4.2-2.18 3.88-4.89 3.87-43.99-.14-87.99-.26-131.98-.39h-7.96zM125.38 606.12c-.09-1.41-.23-2.61-.23-3.81-.03-42.09-.07-84.17-.07-126.26 0-6.74.08-6.73 6.62-6.72 42.9.05 85.8.1 128.7.14h8.94c-.31.8-.45 1.55-.84 2.13-23.4 35.08-46.83 70.13-70.23 105.21-5.77 8.65-11.31 17.47-17.29 25.98-1.28 1.82-4.03 3.65-6.14 3.68-15.35.27-30.7.09-46.05.02-1.06 0-2.12-.23-3.41-.37m311.61-136.67v136.92H293.15c4.1-6.15 7.84-11.77 11.57-17.39 25.11-37.73 50.29-75.4 75.23-113.24 3.18-4.83 6.43-7.02 12.53-6.71 13.12.68 26.3.34 39.45.41h5.06zM669.92 50.6c-3.01 4.55-5.67 8.61-8.36 12.65-21.2 31.79-42.42 63.57-63.63 95.35-5.62 8.43-11.32 16.81-16.84 25.31-1.85 2.85-4.1 3.87-7.51 3.8-14.66-.29-29.33-.4-43.99-.36-3.19 0-4.24-.86-4.23-4.15.11-41.95.08-83.89.1-125.84 0-1.1.15-2.2.1-3.29-.16-3.11 1.41-3.83 4.3-3.82 37.69.13 75.38.17 113.07.21 7.68 0 15.35-.06 23.03-.07 1.05 0 2.1.11 3.96.22zm-376.71-.11h143.6c.09 1.71.23 3.15.24 4.59.06 42.91.08 85.81.21 128.72 0 2.85-.82 3.93-3.67 3.91-14.94-.13-29.88-.2-44.81-.19-3.02 0-5.04-1.06-6.76-3.66-18.39-27.74-36.89-55.41-55.37-83.09-10.26-15.38-20.55-30.74-30.82-46.11-.81-1.21-1.54-2.46-2.6-4.16z" fill="#087d63"/><path d="M835.55 286.97c-9.99 0-19.15.02-28.32-.01-2.73 0-6.21.81-7.98-.55-1.6-1.22-1.35-4.88-1.87-7.48-1.73-8.51-6.16-12.19-15.54-12.89-8.24-.62-14.75 3.4-17.28 10.97-.99 2.97-1.81 6.09-2.05 9.19-1.01 13.27-1.73 26.58 1.32 39.69 1.53 6.57 5.36 11.61 12.62 12.34 6.78.68 13.91.75 18.05-5.92 1.99-3.2 2.82-7.36 3.28-11.2.29-2.46.96-3.03 3.11-3.01 10.14.06 20.29.12 30.43.04 3.03-.02 4.09.98 3.74 4.13-3.38 30.86-22.74 44.3-48.88 46.78-15.54 1.47-30.12-1.56-42.3-12.05-10.91-9.39-16.32-21.78-18.36-35.78-2.76-18.85-2.71-37.52 5.4-55.24 8.87-19.37 24.32-29.51 45.5-30.62 15.69-.83 30.36 2.38 42.45 13.15 11.23 10 14.91 23.42 16.68 38.46m-221.29 134.6v-35.66c1.27-.13 2.32-.33 3.37-.33 71.3 0 142.6.05 213.9 0 2.91 0 3.78.88 3.7 3.74-.24 9.18-.45 18.38-.25 27.56.09 4.1-1.37 5.02-5.22 5.01-66.23-.18-132.45-.23-198.68-.31h-16.83zm-.19-184.26c1.46-.1 2.67-.26 3.87-.26 27.01 0 54.01.07 81.02-.06 3.75-.02 4.93 1 4.8 4.84-.3 8.46-.09 16.93-.09 25.83h-7.26c-13.85-.05-27.69 0-41.54-.22-3.3-.05-4.33 1-4.15 4.23.24 4.37.13 8.78-.03 13.16-.1 2.66.85 3.59 3.55 3.55 13.29-.2 26.6-.09 39.89-.44 3.84-.1 4.99.9 4.79 4.77-.38 7.39-.42 14.81-.23 22.2.08 3.22-1.04 3.94-3.99 3.92-13.3-.12-26.6.06-39.89-.15-3.33-.05-4.21 1-4.18 4.18.13 14.65.06 29.31.06 44.41h-36.62V237.29z"/></svg>