<svg viewBox="48.15 106.79 298.83 376.67" xmlns="http://www.w3.org/2000/svg"><g fill-rule="evenodd"><path d="M48.156 106.788v69.862H346.86v-69.862z" fill="#f54d33"/><path d="M48.156 186.227h123.906c4.486 28.652 6.936 54.318 4.8 73.256-2.98 25.046-8.992 29.082-32.774 25.16-38.06-6.735-69.348-22.065-95.932-43.367zm168.597 0c1.759 20.391 2.106 40.782-.993 61.173-3.748 28.754 11.607 43.174 39.394 30.457 16.016-7.686 32.36-14.62 49.184-20.458 13.823-4.798 27.969-8.856 42.522-11.985v-59.187z" fill="#ffd200"/><path d="M180.882 186.227c6.102 33.602 8.606 58.585 3.566 84.5-4.854 20.847-14.69 27.008-37.003 23.962-37.018-4.58-69.897-19.449-99.289-41.668v27.216c26.09 15.752 57.731 24.983 95.92 36.028 18.449 5.544 27.537 13.63 14.872 36.1-15.614 26.54-29.121 39.917-64.102 71.403 5.789 5.875 10.863 11.75 16.651 17.626 19.303-19.827 36.103-51.094 56.478-72.53 19.615-21.017 39.954-26.207 55.397-6.883 20.84 25.557 40.429 53.437 61.448 77.92l13.996-13.996c-16.658-23.94-39.108-45.909-56.523-72.316-16.43-24.485-10.498-38.194 11.682-44.564a2314 2314 0 0 0 92.885-29.566v-25.026c-30.02 6.546-65.94 20.778-81.48 29.11-29.995 16.86-53.273 8.496-58.838-18.858-2.908-14.44 5.902-35.526 1.037-78.458z" fill="#f54d33"/><path d="M48.156 290.815c30.462 17.212 62.43 25.385 94.182 34.857 14.48 4.255 15.963 5.968 9.527 19.752-16.499 33.618-39.272 47.716-62.743 71.574-26.89-35.143-41.342-76.787-40.966-126.183M119.1 446.743c26.892-26.78 34.047-52.668 60.651-76.686 17.108-15.228 26.93-14.026 39.04.93 19.456 26.915 38.56 50.188 58.56 75.524-24.99 19.062-50.377 30.515-78.777 36.949-28.588-5.574-55.846-16.961-79.475-36.717m227.761-157.09c1.494 48.26-11.125 91.635-41.855 128.74-15.802-24.091-38.808-44.463-52.518-66.461-13.924-21.599-15.004-28.57 6.705-34.677 29.223-8.038 57.283-18.634 87.668-27.602" fill="#0a2959"/><path d="M69.115 160.13v-35.367h22.899v4.818h-16.74v10.332H89.58v4.768H75.274v10.381h16.74v5.067zm24.41 0v-35.367h6.158v30.3h16.74v5.066zm46.562.297q-3.874 0-7.053-2.036-2.683-1.74-4.123-4.421-.944-1.74-1.242-3.477-.348-2.235-.348-8.047t.348-8.047q.299-1.738 1.242-3.477 1.44-2.683 4.123-4.42 3.178-2.038 7.053-2.037 4.917 0 8.395 3.179 3.327 3.079 4.271 7.997h-6.457q-.745-2.384-2.335-4.024-1.788-1.788-3.874-1.788-3.13 0-4.918 2.335-.944 1.242-1.291 3.08-.348 2.085-.348 7.202 0 5.116.348 7.202.348 1.838 1.291 3.08 1.788 2.335 4.918 2.335 2.682 0 4.62-2.26 1.936-2.26 1.937-5.39v-1.689h-7.004v-5.066h13.213v7.053q0 5.314-3.726 9.016-3.725 3.7-9.04 3.7m39.162-6.457q-1.44 2.683-4.123 4.42-3.18 2.037-7.053 2.037-3.875 0-7.054-2.036-2.682-1.74-4.123-4.421-.944-1.74-1.241-3.477-.348-2.236-.348-8.047 0-5.812.348-8.047.297-1.738 1.241-3.477 1.44-2.683 4.123-4.42 3.179-2.038 7.054-2.037t7.053 2.036q2.682 1.74 4.123 4.421.944 1.739 1.242 3.477.348 2.235.347 8.047 0 5.811-.347 8.047-.299 1.739-1.242 3.477m-6.259-21.806q-1.788-2.335-4.917-2.335-3.13 0-4.918 2.335-.945 1.242-1.291 3.08-.348 2.085-.348 7.202 0 5.116.348 7.202.347 1.838 1.291 3.08 1.788 2.334 4.918 2.334t4.917-2.334q.945-1.242 1.292-3.08.347-2.085.347-7.202 0-5.116-.347-7.203-.348-1.837-1.292-3.08m22.571 28.263q-5.414 0-8.99-3.427-3.726-3.477-3.726-8.991v-23.246h6.21v23.495q0 3.228 1.812 5.016 1.815 1.789 4.694 1.788 2.882 0 4.694-1.788 1.813-1.788 1.813-5.016v-23.495h6.21v23.246q0 5.514-3.651 8.966t-9.066 3.452m37.523-.298l-14.902-23.296v23.296h-6.159v-35.366h5.663l14.901 23.296v-23.296h6.16v35.366zm30.42 0l-2.683-7.699h-12.318l-2.683 7.7h-6.507l12.816-35.367h5.066l12.815 35.366zm-8.792-26.326l-4.62 13.858h9.24zm32.108-4.222v10.68h14.305v4.768H286.82v15.1h-6.16v-35.366h22.9v4.818zm29.376 30.846q-3.875 0-7.053-2.036-2.683-1.74-4.123-4.421-.944-1.74-1.242-3.477-.348-2.236-.348-8.047 0-5.812.348-8.047.299-1.738 1.242-3.477 1.44-2.683 4.123-4.42 3.179-2.038 7.053-2.037 4.918 0 8.395 3.178 3.327 3.081 4.272 7.998h-6.458q-.894-2.782-1.937-4.024-1.54-1.788-4.272-1.788-4.42 0-5.811 4.52-.746 2.385-.746 8.097t.746 8.096q1.39 4.52 5.811 4.52 2.88 0 4.222-1.54.447-.546 2.037-3.973h6.408q-1.143 5.315-4.545 8.096-3.403 2.782-8.122 2.782" fill="#fff"/></g></svg>