<svg viewBox="35.04 34.57 889.36 888.96" xmlns="http://www.w3.org/2000/svg"><path d="M740.95 652.75c-.44.91-.32 1.59.23 2.23-.4-.71-.47-1.46-.23-2.23m37.99 19.38c.21.14.43.28.65.42.4.25 1.1.39 1.73.4-.71-.11-1.48-.39-2.38-.82m2.46 10.38c.75.26 1.48.25 2.13-.14-.66.25-1.39.3-2.13.14"/><path d="M479.45 34.57C231.88 34.7 35.04 233.63 35.04 479.18c0 248.72 201.83 445.88 446.95 444.34C725.9 921.99 923.4 725.76 924.4 480.03c.18-244.24-195.62-445.58-444.95-445.46m-.08 879.98C238.76 913.87 45.2 719.39 44.38 479.16c-.83-242.95 199.5-436.43 436.28-435.01 235.34-.73 435.21 193.08 434.38 437.3-.8 235.58-194.52 433.78-435.66 433.1z" fill="#203b5d"/><path d="M480.65 44.16c-236.77-1.42-437.1 192.05-436.27 435 .82 240.23 194.38 434.71 434.99 435.39 241.14.68 434.86-197.52 435.66-433.1.83-244.22-199.04-438.02-434.38-437.3zm-1.55 838.29C254.15 881.3 78.15 699.97 76.34 482.98 74.49 261.44 253.77 77.3 477.12 75.74c221.69-1.53 405.63 178.4 405.92 402.01.28 223.74-178.79 403.7-403.94 404.7" fill="#fff"/><path d="M477.12 75.74C253.78 77.3 74.5 261.44 76.34 482.98 78.15 699.97 254.15 881.3 479.1 882.45c225.15-1 404.22-180.96 403.94-404.7-.29-223.6-184.22-403.54-405.92-402.01m258.86 202.1c2.41 3.61 4.8 7.25 6.93 11.03.45.8-.11 2.28-.44 3.39-.59 1.95-2.08 3.92-1.92 5.77.64 7.27 3.97 13.17 10.31 17.11 1.89 1.18 3.82 1.59 5.87 0 2.16-1.68 3.41-3.65 2.44-6.38-1.65-4.64-3.41-9.25-5.21-13.84-1.66-4.27-3.61-8.43-5.09-12.76-2.39-6.95-.76-13.11 4.14-16.94 6.89-5.37 13.69-6.16 20.14-1.4 3.9 2.88 7.34 6.59 10.39 10.4 4.96 6.19 8.69 13.14 10.69 20.9.44 1.69.62 3.45.93 5.18.23.14.47.28.71.42-1.64 3.82-3.07 7.75-4.98 11.42-1.25 2.4-3.79 2.42-5.47.15-2.3-3.11-4.57-6.31-6.29-9.76-.71-1.4-.42-3.7.18-5.29 2.35-6.18-1.76-16.58-7.98-18.68-1.85-.62-4.74-.52-6.09.57-1.1.88-1.31 4-.7 5.68 2.96 8.05 6.74 15.82 9.39 23.96 1.31 4.06 1.99 9.01.93 13.02-2.81 10.63-16.53 14.73-25.95 7.65-12.07-9.08-19.54-21.51-22.77-36.24-1.36-6.21 1.27-11.5 5.75-15.88 1.62-1.58 3.03-1.11 4.11.51zm-82.27-56.64c11.42-13.25 22.73-26.62 33.98-40.03 1.7-2.02 2.79-2.52 5.03-.55 8.75 7.66 17.85 14.93 26.52 22.68 7.09 6.33 12.48 13.91 10.21 24.09-2.91 13.06-11.14 21.96-23.34 27.23-1.27.54-2.74.69-4.12.89-1.16.18-2.34.18-3.51.25-6.24.04-11.49-2.57-16.11-6.36-9.44-7.75-18.7-15.74-28.03-23.63-1.58-1.34-2.48-2.43-.63-4.57m-40.06-29.11c6.81-13.66 13.71-27.28 20.47-40.97 1.14-2.31 2.16-2.98 4.55-1.53 2.8 1.71 5.82 3.07 8.78 4.49 2.03.97 2.38 2.21 1.35 4.23-8.05 15.93-16.03 31.9-24.07 47.84-.37.75-1.09 1.33-1.63 1.97-.89-.45-1.42-.69-1.93-.98-1.12-.64-2.23-1.31-3.33-1.97-2.67-1.61-6.72-2.71-7.59-5-.75-1.99 2.05-5.37 3.4-8.07zm-113.28-25.11c3.53-17.29 7.02-34.58 10.51-51.87.44-2.18 1.58-2.88 3.79-2.41 5.52 1.19 11.06 2.29 16.62 3.29 2.56.47 3.78 1.81 4.27 4.38 2.33 12.25 4.77 24.47 7.2 36.7.15.78.43 1.53.86 3 1.28-1.35 2.32-2.19 3.04-3.25 6.91-10.21 13.71-20.51 20.74-30.64.79-1.15 2.95-2.17 4.28-1.97 5.69.86 11.3 2.26 16.95 3.36 2.51.49 3.29 1.84 2.8 4.27-3.41 16.83-6.72 33.68-10.2 50.49-.93 4.44-1.15 4.33-5.44 3.12-2.26-.63-4.57-1.16-6.89-1.51-3.05-.45-3.8-2.01-3.2-4.93 2.35-11.4 4.55-22.84 6.78-34.26.24-1.22.29-2.47.43-3.7-.33-.08-.65-.17-.98-.25-4.23 6.47-8.47 12.93-12.67 19.41-3.7 5.73-7.27 11.54-11.12 17.16-.66.97-2.54 1.63-3.79 1.56-2.44-.16-4.81-1.02-7.25-1.46-2.86-.5-3.99-2.11-4.47-4.98-2.25-13.34-4.74-26.64-7.16-39.94-.1-.52-.42-1-1.48-1.58-.6 2.42-1.29 4.83-1.79 7.27-2.14 10.48-4.31 20.97-6.29 31.49-.52 2.81-1.76 3.47-4.37 2.76-2.83-.76-5.73-1.32-8.62-1.85-2.18-.39-3.02-1.46-2.57-3.68zm-94.05 6.21c5.03-17.27 10.13-34.51 15.01-51.82.88-3.12 2.37-4.42 5.56-4.62 3.98-.26 7.91-1.25 11.88-1.47 1.43-.08 3.59.77 4.29 1.89 10.36 16.68 20.52 33.47 30.71 50.25.45.75.64 1.68 1.07 2.86-5.32.6-10.29 1.25-15.28 1.65-.81.06-1.9-.76-2.52-1.48-.9-1.05-1.77-2.29-2.16-3.61-1.59-5.25-5.17-5.74-9.9-4.9-5.78 1.03-11.66 1.4-17.46 2.35-1.12.18-2.43 1.53-2.91 2.64-.9 2.14-1.46 4.48-1.82 6.79-.42 2.65-1.74 3.85-4.39 4.07-4.38.38-8.75.99-13.86 1.59l1.77-6.2zm-100.41-16.8c12.45-5.56 24.71-11.54 37.2-17.01 11.3-4.95 21.2-.35 23.75 11.25.81 3.7-.5 7.88-.9 12.44 5.37 1.41 7.94 6.55 10.83 11.42 1.85 3.11 3.79 6.17 5.82 9.16.99 1.46 1.32 2.36-.7 3.18-3.26 1.31-6.46 2.79-9.61 4.34-2.71 1.33-4.66.92-6.14-1.85-1.67-3.1-3.46-6.14-5.29-9.15-2.06-3.37-4.72-4.69-8.34-3.29-5.91 2.28-11.63 5.06-17.41 7.66-1.97.88-1.51 2.29-.79 3.82 1.89 4.04 3.7 8.13 5.57 12.19 1.8 3.9 1.65 4.32-2.09 6.16-2.73 1.34-5.47 2.67-8.16 4.08-2.18 1.15-3.02-.3-3.77-1.84-2.25-4.66-4.52-9.31-6.65-14.03-5.09-11.24-10.06-22.54-15.19-33.77-1.13-2.47-.71-3.62 1.88-4.77zm-85.67 64.4c2.64-2.5 5.4-4.88 8.17-7.24.76-.65 1.75-1.05 2.57-1.53 1.25.42 2.24.76 3.24 1.07 6.72 2.12 13.45 4.21 20.18 6.34 2.7.86 3.71.19 3.11-2.82-1.34-6.68-2.38-13.42-3.68-20.11-.63-3.24.27-5.69 2.86-7.71 2.78-2.16 5.39-4.54 8.16-6.72 2.3-1.8 3.17-1.39 3.53 1.56 1.53 12.84 2.95 25.69 4.63 38.51.27 2.07 1.31 4.24 2.58 5.95 2.73 3.67 5.79 7.1 8.79 10.57 1.68 1.94 2.01 3.44-.43 5.18-2.47 1.77-4.82 3.81-6.81 6.09-1.8 2.06-3.01 1.67-4.53-.04-3.21-3.59-6.33-7.28-9.71-10.69-1.41-1.42-3.29-2.71-5.18-3.24-12.11-3.39-24.28-6.54-36.41-9.85-1.27-.35-2.4-1.24-3.59-1.89.83-1.16 1.51-2.49 2.52-3.45zm-58.86 79.05c6.16-9.88 12.35-19.75 18.78-29.46 1.78-2.69 4.22-5.09 6.77-7.1 7.38-5.86 17.43-4.28 24.61 3.58 3.7 4.06 5.44 7.73 6.26 11.86-1.68 4.07-3.03 8.33-5.14 12.17-3.11 5.66-6.62 11.12-10.24 16.48-1.85 2.74-1.31 4.41 1.24 6.07 3.64 2.38 7.19 4.91 10.82 7.31 2.11 1.39 2.4 2.81.83 4.94-1.87 2.55-3.5 5.3-5.01 8.09-1.2 2.21-2.61 2.4-4.57 1.14-14.26-9.15-28.56-18.22-42.76-27.45-4.17-2.71-4.24-3.36-1.58-7.63zm-18.31 205.39c-14.01-.11-25.66-12.26-25.55-26.67.09-13.69 11.98-25.19 25.89-25.07 14.29.13 26.03 11.8 25.92 25.79-.1 14.36-11.94 26.06-26.25 25.95zm56.17 155.22c1.03 1.58 2.28 3.09 2.88 4.82.42 1.22-.1 2.76-.19 4.16-1.48-.32-3.51-.14-4.34-1.05-2.43-2.67-4.55-5.68-6.48-8.76-1.86-2.98-3.75-3.85-6.8-1.55-3.65 2.75-7.54 5.2-11.25 7.88-2.11 1.53-4.2 3.19-6.37.4-2.28-2.92-.18-4.81 2.04-6.35 7.53-5.22 15.12-10.36 22.68-15.53 4.17-2.86 8.37-5.66 12.47-8.62 1.76-1.27 3.44-1.92 4.86.11 4.05 5.77 7.99 11.61 11.93 17.46.37.56.46 1.31.81 2.38-.5.75-1.02 2.33-1.74 2.42-1.16.16-2.92-.28-3.61-1.12-2.51-3.1-4.64-6.5-6.99-9.73-2.62-3.6-3.56-3.73-7.16-1.25q-8.34 5.73-2.76 14.31zm51.69 46.08c-5.28 8.03-11.98 14.85-20.32 19.73-9.17 5.37-18.3 2.48-22.78-6.78-2.11-4.35-2.03-8.84.28-12.9 6-10.56 14.19-19.07 25.46-23.99 9.4-4.11 20.6 3.7 20.65 15.86-.65 1.66-1.41 5.23-3.29 8.08m47.73 39.44c-3.78 8.3-8.74 15.85-15.65 21.93-5.87 5.17-12.87 5.96-18.85 2.28-6.32-3.88-9.23-10.5-6.81-17.96 3.53-10.87 10.09-19.92 19.1-26.92 4.9-3.8 10.67-4.36 16.24-1.06 4.81 2.86 7.81 7.03 8.1 14.04-.49 1.86-.88 4.97-2.13 7.69m53.41 20.57c-1.53-.7-3.58-1.58-5.57-2.56-2.79-1.39-4.57-1.18-6.06 2.12-5.14 11.36-10.6 22.57-15.96 33.83-.83 1.75-1.32 4.11-4.23 2.57-2.37-1.27-3.68-2.88-2.35-5.69 5.39-11.37 10.65-22.8 16.19-34.11 1.4-2.85 1.23-4.56-1.72-5.86-1.82-.81-3.84-1.48-5.25-2.78-.9-.83-1.14-2.73-1.03-4.1.03-.43 2.43-1.31 3.3-.93 7.66 3.29 15.25 6.74 22.76 10.36 1.44.69 2.98 2.13 3.47 3.57.69 2.06-.44 3.65-3.56 3.58zm51.79 23.22c-1.19 4.57-3.51 8.38-8.14 10.77 5.63 6.75 4.22 13.41.28 20.03-1.99 3.34-5.18 5.25-8.82 4.81-6.24-.74-12.43-2.08-18.56-3.53-2.66-.63-3.53-2.94-2.79-5.62 3.95-14.27 7.95-28.52 11.87-42.8.64-2.33 2.25-3.13 4.26-2.54 5.62 1.65 11.34 3.15 16.68 5.47 4.67 2.02 6.64 8.05 5.24 13.4zm55.48 48.62c-1.63-.5-3.81-1.26-4.43-2.56-1.19-2.48-1.74-5.38-2.02-8.15-.33-3.41-1.94-4.69-5.25-4.64-3.63.04-8.04-1.53-10.67.03-2.5 1.48-3.21 6.08-4.55 9.37-1.07 2.59-2.61 3.84-5.44 2.71-2.9-1.15-2.1-3.12-1.27-5.22 5.55-13.96 11.1-27.93 16.56-41.93 1.01-2.59 2.63-3.73 5.34-3.49 2.6.23 5.1.8 5.63 3.81 2.71 15.74 5.31 31.5 8.07 47.97-.52.58-1.52 2.26-1.97 2.11zm19.74-92.74c-148.82-.74-266.01-121.32-266-266.85.01-146.73 120.49-267.19 268.48-266.06 148.45 1.13 266.72 122.78 264.63 269.75-2.11 148.34-122.25 262.72-267.11 263.16m37.5 91.73c-3.51.24-7.03.45-10.55.66v-.13c-2.93.2-5.87.29-8.79.61-3.08.33-4.75-.9-4.95-3.98-.91-14.65-1.82-29.32-2.69-43.97-.13-2.15-.18-4.43 2.88-4.68 3.15-.25 3.75 1.96 3.92 4.29a4178 4178 0 0 1 2.45 35.52c.41 6.34.45 6.35 6.91 5.72 3.51-.35 7.04-.33 10.56-.49 2.3-.11 3.53.93 3.62 3.28.08 2.35-1.4 3.03-3.36 3.17m58.64-10.72c-6.18 1.44-12.35 2.89-18.53 4.3-2.76.63-4.91.09-5.62-3.1-3.22-14.56-6.45-29.12-9.67-43.68-.05-.23-.08-.47-.28-1.64.71-.62 1.65-1.96 2.91-2.43 2.06-.76 3.35.59 3.82 2.54 1.58 6.51 3.12 13.02 4.63 19.55 1.38 5.95 2.75 11.9 4.03 17.87.7 3.24 2.38 4.16 5.61 3.26 3.83-1.08 7.79-1.74 11.69-2.59 2.06-.45 3.88-.24 4.47 2.13.62 2.47-1.05 3.33-3.07 3.8zm79.05-30.3c-6.24 5.09-13.88 5.17-20.02 0-5.63-4.75-9.04-11.13-11.85-17.74-1.99-4.7-3.24-9.71-4.83-14.59.83-7.7 5.05-13.21 12.56-15.58 5.89-1.87 11.4.02 15.18 5.25 1.21 1.67 2.42 3.45.25 5.24-1.74 1.44-4.71.68-6.14-1.45-2.18-3.25-5.11-4.47-8.61-3.59-3.53.89-5.76 3.45-5.64 7.51.09 3 .45 6.28 1.75 8.89 3.51 6.99 7.25 13.92 11.57 20.42 2.37 3.57 7.26 3.85 10.84 1.87 2.81-1.56 4-5.1 3.12-9.35-.29-1.38-.99-2.81-.8-4.11.2-1.36 1.15-3.56 1.98-3.67 1.34-.16 3.54.71 4.16 1.82 3.3 5.93 1.46 15.01-3.52 19.08m58.65-39.65c-5.64 4.61-11.46 8.99-17.28 13.38-2.47 1.86-3.87-.03-5.15-1.79-5.46-7.51-10.89-15.04-16.32-22.56-2.83-3.9-5.67-7.8-8.48-11.71q-3.34-4.65 2.3-7.76c4.78 6.45 9.44 12.78 14.14 19.09 3.51 4.71 7.12 9.35 10.55 14.11 1.65 2.3 3.34 2.62 5.58.95 3.58-2.67 7.32-5.13 10.75-7.96 1.92-1.58 3.46-1.08 4.4.5.53.88.25 3.14-.49 3.75M742 728.46c-.69.13-1.39.18-2.09.28-.14.25-.28.49-.42.74-3.15-1.65-6.8-2.76-9.37-5.07-7.52-6.74-14.62-13.95-21.89-20.97-1.1-1.06-2.11-2.25-3.33-3.14-2.83-2.05-1.62-4.01.04-5.9 2.06-2.37 3.26-.16 4.52 1.05 8.14 7.81 16.18 15.73 24.4 23.46 5.22 4.91 10.26 4.67 13.86-.33 1.89-2.64 2.38-5.5.49-8.21a50 50 0 0 0-5.89-6.96c-7.1-7.02-14.29-13.95-21.53-20.83-1.83-1.74-1.67-3.19-.06-4.76 1.33-1.29 2.59-2.32 4.45-.47 7.44 7.35 15 14.58 22.47 21.91 1.5 1.47 2.89 3.1 4.14 4.79 6.55 8.92 1.19 22.26-9.77 24.42zm51.25-61.73c-2.57 4.99-5.68 9.71-8.64 14.5-.33.54-.69.9-1.08 1.13-.65.4-1.38.4-2.13.14-.72-.15-1.46-.48-2.19-.98-12.22-8.37-24.4-16.77-36.63-25.11-.64-.44-1.11-.92-1.39-1.43v-.01c-.54-.64-.66-1.31-.23-2.23v-.01c.12-.39.32-.77.59-1.16 1.67-2.37 3.32-4.77 5.03-7.11.74-1.17 1.48-2.35 2.28-3.49 2.57-3.7 5.75-6.52 10.62-6.56 4.69.04 8.7 2.24 11.13 6.1 1.52 1.77 2.63 3.86 3.19 6.39.1.4.18.81.24 1.24 8.21-3.13 14.06.36 19.05 6.24.11.13.23.27.33.4 2.3 3.83 1.88 7.94-.18 11.95zm22.81-161.41c-14.19-.05-25.77-11.92-25.75-26.4.02-14 11.75-25.64 25.76-25.55 14.26.08 25.97 12.01 25.83 26.3-.13 13.86-12.06 25.7-25.84 25.65" fill="#203b5d"/><path d="M479.09 745.64c-148.83-.74-266.01-121.32-266-266.85.02-146.72 120.49-267.19 268.48-266.06 148.45 1.13 266.71 122.79 264.62 269.75-2.11 148.33-122.25 262.72-267.1 263.16m.32-11.7V370c-43.54 46.38-86.39 92.02-129.23 137.66-.28-.13-.56-.25-.84-.38V370.37c-3.27 3.31-6.03 6-8.68 8.8-37.48 39.71-74.95 79.43-112.35 119.23-1.04 1.11-1.8 3.15-1.63 4.63.86 7.48 1.79 14.97 3.2 22.35 12.84 66.9 47.17 120.33 102.05 160.34 34.5 25.15 73.33 40.1 115.75 45.38 10.36 1.29 20.81 1.89 31.73 2.85zm65.46-295.02c21.33 22.77 42.81 45.69 64.77 69.14V370.13c-21.86 23.21-43.1 45.78-64.77 68.79" fill="#7ea5d6"/><path d="M571.93 140.82c-4.22 6.47-8.47 12.92-12.67 19.41-3.7 5.72-7.26 11.55-11.12 17.16-.66.97-2.53 1.63-3.79 1.55-2.43-.16-4.81-1.02-7.24-1.45-2.85-.5-3.98-2.11-4.47-4.98-2.25-13.34-4.74-26.63-7.16-39.94-.1-.52-.42-1-1.48-1.58-.6 2.42-1.29 4.83-1.78 7.27-2.14 10.49-4.3 20.97-6.29 31.49-.53 2.8-1.76 3.47-4.38 2.76-2.83-.77-5.72-1.32-8.61-1.84-2.18-.39-3.02-1.46-2.57-3.69 3.53-17.29 7.02-34.58 10.51-51.87.44-2.18 1.59-2.88 3.79-2.41 5.52 1.19 11.06 2.29 16.61 3.29 2.56.46 3.79 1.81 4.27 4.37 2.32 12.25 4.77 24.48 7.19 36.71.15.77.43 1.52.86 3 1.28-1.35 2.32-2.19 3.04-3.25 6.91-10.21 13.71-20.51 20.74-30.65.79-1.14 2.95-2.17 4.29-1.97 5.69.87 11.29 2.26 16.95 3.36 2.51.49 3.29 1.83 2.8 4.27-3.41 16.83-6.71 33.68-10.2 50.5-.92 4.44-1.15 4.33-5.44 3.13-2.26-.63-4.57-1.17-6.89-1.51-3.06-.45-3.8-2.01-3.2-4.93 2.35-11.4 4.55-22.84 6.78-34.26.24-1.21.29-2.46.43-3.7-.32-.08-.65-.17-.97-.25zm-205.97 22.26c5.37 1.41 7.94 6.55 10.83 11.41 1.85 3.11 3.79 6.17 5.82 9.16.99 1.46 1.32 2.36-.7 3.18-3.26 1.32-6.46 2.79-9.61 4.35-2.71 1.33-4.66.92-6.14-1.84-1.67-3.1-3.46-6.14-5.29-9.15-2.05-3.37-4.72-4.69-8.34-3.29-5.91 2.28-11.62 5.06-17.41 7.66-1.97.88-1.51 2.29-.8 3.82 1.89 4.05 3.7 8.13 5.57 12.19 1.8 3.89 1.66 4.32-2.09 6.16-2.73 1.34-5.47 2.67-8.16 4.08-2.18 1.15-3.02-.3-3.77-1.84-2.25-4.66-4.52-9.31-6.65-14.02-5.09-11.25-10.06-22.55-15.19-33.77-1.13-2.48-.71-3.62 1.88-4.77 12.45-5.56 24.71-11.53 37.2-17 11.3-4.95 21.2-.35 23.75 11.25.81 3.7-.5 7.88-.9 12.44zm-14.4-2.02c-.09-7.19-5.04-9.99-11.2-7.53-3.59 1.44-7.08 3.12-10.58 4.79-9 4.29-7.41 3.19-4.17 10.83.37.86.77 1.72 1.12 2.58.77 1.89 2.11 2.44 3.95 1.62 5.57-2.49 11.25-4.76 16.62-7.64 2.03-1.09 3.31-3.58 4.26-4.66zm346.92 94.71c-6.24.05-11.49-2.57-16.11-6.36-9.44-7.76-18.7-15.74-28.03-23.63-1.58-1.34-2.48-2.43-.63-4.58 11.43-13.26 22.74-26.62 33.99-40.02 1.7-2.02 2.78-2.52 5.03-.55 8.75 7.66 17.84 14.93 26.51 22.67 7.09 6.33 12.47 13.91 10.21 24.1-2.91 13.06-11.14 21.96-23.33 27.23-1.27.55-2.73.68-4.12.89-1.15.17-2.34.17-3.5.25zM694.43 241c9.62-.18 21.03-12.85 19.53-22.14-.33-2.02-1.03-4.37-2.4-5.75-4.52-4.56-9.46-8.7-14.15-13.1-1.85-1.74-3.24-1.34-4.7.4-6.41 7.66-12.87 15.27-19.19 22.99-.5.61-.54 2.44-.05 2.88 4.71 4.24 9.45 8.46 14.47 12.31 1.75 1.34 4.3 1.64 6.48 2.41zm101.42 59.73c-1.64 3.82-3.06 7.75-4.98 11.43-1.25 2.4-3.79 2.42-5.47.15-2.31-3.11-4.56-6.31-6.29-9.75-.71-1.4-.42-3.7.19-5.29 2.35-6.18-1.76-16.58-7.98-18.68-1.84-.62-4.74-.52-6.09.57-1.1.88-1.31 4-.7 5.67 2.96 8.05 6.74 15.82 9.38 23.96 1.32 4.06 1.99 9.01.93 13.02-2.81 10.63-16.53 14.73-25.95 7.65-12.07-9.08-19.54-21.51-22.77-36.24-1.36-6.21 1.28-11.5 5.76-15.88 1.62-1.58 3.03-1.11 4.11.5 2.41 3.62 4.8 7.26 6.92 11.04.45.8-.11 2.28-.44 3.38-.59 1.95-2.08 3.92-1.91 5.77.64 7.27 3.97 13.17 10.31 17.11 1.9 1.18 3.83 1.59 5.87 0 2.16-1.68 3.41-3.65 2.44-6.37-1.65-4.64-3.42-9.25-5.21-13.84-1.66-4.27-3.61-8.44-5.09-12.76-2.39-6.95-.76-13.11 4.14-16.93 6.88-5.37 13.69-6.16 20.13-1.41 3.91 2.88 7.34 6.59 10.4 10.4 4.96 6.18 8.69 13.14 10.69 20.9.44 1.7.62 3.46.93 5.19.24.14.47.28.71.41zM217.8 278.72c-1.69 4.07-3.03 8.33-5.14 12.17-3.11 5.66-6.62 11.12-10.24 16.48-1.85 2.74-1.3 4.42 1.24 6.08 3.64 2.38 7.19 4.91 10.82 7.31 2.11 1.4 2.39 2.81.83 4.94-1.87 2.55-3.5 5.3-5.01 8.09-1.2 2.21-2.61 2.4-4.58 1.14-14.25-9.15-28.55-18.23-42.76-27.45-4.17-2.71-4.25-3.36-1.58-7.63 6.16-9.88 12.34-19.75 18.77-29.46 1.78-2.69 4.22-5.09 6.76-7.11 7.38-5.85 17.43-4.28 24.61 3.59 3.7 4.06 5.44 7.73 6.27 11.86zm-25.54-1.98c-.93.69-3.07 1.63-4.26 3.27-3.22 4.45-6.03 9.21-9.02 13.83-1.25 1.93-.48 3.36 1.14 4.48 2.41 1.66 4.79 3.43 7.41 4.7.99.48 3.28.15 3.81-.61 3.32-4.81 6.44-9.78 9.39-14.83 3.38-5.8-2.15-10.67-8.47-10.83zm282.58-106.47c-5.32.61-10.29 1.25-15.27 1.66-.81.07-1.9-.77-2.51-1.48-.9-1.06-1.77-2.3-2.17-3.61-1.59-5.25-5.17-5.74-9.89-4.9-5.78 1.03-11.67 1.4-17.46 2.35-1.11.18-2.43 1.52-2.91 2.65-.91 2.14-1.46 4.48-1.82 6.79-.41 2.65-1.74 3.84-4.39 4.07-4.38.38-8.75.99-13.86 1.58.77-2.69 1.26-4.45 1.77-6.2 5.02-17.27 10.13-34.51 15.01-51.82.88-3.12 2.37-4.41 5.56-4.62 3.98-.26 7.9-1.25 11.88-1.47 1.43-.08 3.59.77 4.29 1.9 10.35 16.67 20.52 33.46 30.71 50.24.46.75.64 1.68 1.07 2.85zm-40.12-39.67c-.35.07-.69.14-1.04.2-1.79 7.15-3.59 14.31-5.54 22.1 6.14-.78 11.53-1.47 17.65-2.25-3.92-7.11-7.49-13.58-11.07-20.06zM143.07 505.23c-14.02-.11-25.66-12.26-25.56-26.68.1-13.68 11.98-25.19 25.89-25.07 14.29.13 26.02 11.8 25.92 25.79-.1 14.36-11.94 26.06-26.25 25.95zm647.24-26.31c.02-14 11.75-25.64 25.76-25.56 14.26.08 25.97 12.01 25.84 26.31-.13 13.85-12.06 25.69-25.84 25.65-14.19-.05-25.77-11.92-25.75-26.4zM230.98 212.03c1.25.42 2.24.76 3.24 1.08 6.72 2.11 13.45 4.21 20.17 6.34 2.7.85 3.71.2 3.11-2.82-1.33-6.68-2.38-13.42-3.67-20.11-.63-3.24.27-5.69 2.86-7.71 2.78-2.16 5.39-4.54 8.17-6.71 2.3-1.8 3.17-1.39 3.53 1.56 1.53 12.84 2.95 25.69 4.63 38.5.27 2.07 1.32 4.24 2.58 5.94 2.73 3.67 5.79 7.1 8.79 10.57 1.68 1.94 2.02 3.44-.43 5.19-2.47 1.77-4.82 3.81-6.81 6.09-1.79 2.06-3.01 1.67-4.53-.04-3.21-3.59-6.32-7.28-9.71-10.69-1.41-1.42-3.29-2.71-5.18-3.24-12.11-3.39-24.28-6.53-36.41-9.84-1.27-.35-2.39-1.25-3.59-1.89.83-1.16 1.51-2.48 2.52-3.45 2.64-2.5 5.4-4.88 8.17-7.24.76-.65 1.74-1.04 2.57-1.53zm164.74 588.49c5.63 6.76 4.22 13.41.28 20.04-1.99 3.34-5.18 5.24-8.83 4.81-6.24-.74-12.44-2.08-18.56-3.53-2.66-.63-3.53-2.94-2.79-5.62 3.95-14.27 7.95-28.52 11.87-42.79.64-2.34 2.24-3.13 4.25-2.54 5.62 1.65 11.34 3.15 16.69 5.47 4.66 2.02 6.63 8.05 5.24 13.39-1.2 4.58-3.52 8.38-8.15 10.77m-11.75 18.64c3.37.21 5.62-1.45 7.03-4.34 3.22-6.59.76-11.83-6.58-14.19-5.89-1.89-6.13-1.77-7.78 4.04-.32 1.13-.6 2.28-.93 3.41-2.61 9.16-1.36 10.84 8.26 11.08m12.6-32.96c-.18-.58-.21-2.92-1.23-3.49-3.19-1.78-6.74-2.95-10.21-4.16-.35-.12-1.5 1.01-1.72 1.73-1.04 3.36-1.97 6.77-2.74 10.2-.2.88.19 2.69.57 2.76 3.71.74 7.62 2.05 11.19 1.48 3.18-.5 3.95-4.26 4.13-8.53zm226.52-578.08c-.89-.45-1.42-.69-1.93-.98-1.12-.64-2.23-1.31-3.34-1.98-2.67-1.61-6.72-2.7-7.58-4.99-.75-1.99 2.05-5.37 3.4-8.08 6.82-13.66 13.72-27.28 20.47-40.97 1.14-2.31 2.16-2.98 4.55-1.52 2.8 1.71 5.81 3.07 8.78 4.49 2.03.97 2.38 2.2 1.35 4.23-8.06 15.93-16.03 31.9-24.07 47.84-.38.75-1.09 1.32-1.63 1.96M254.22 698.45c-.65 1.66-1.42 5.23-3.29 8.08-5.28 8.03-11.98 14.85-20.32 19.73-9.17 5.37-18.31 2.48-22.79-6.78-2.1-4.35-2.03-8.83.28-12.9 6-10.56 14.19-19.06 25.46-23.98 9.4-4.11 20.6 3.7 20.66 15.85m-15.83-10.59c-1.21.51-3.9 1.05-5.81 2.58-4.3 3.42-8.55 7.02-12.17 11.12-2.88 3.26-5.43 7.12-6.97 11.16-1.98 5.22 3.02 10.62 8.56 9.66 2.35-.41 4.91-1.33 6.73-2.81 4.71-3.85 9.31-7.91 13.46-12.36 2.33-2.5 4.24-5.73 5.32-8.97 1.79-5.38-2.19-10.3-9.11-10.38zm222.92 148.4c-.52.59-1.52 2.26-1.96 2.12-1.63-.51-3.81-1.26-4.44-2.57-1.19-2.48-1.74-5.37-2.02-8.15-.34-3.41-1.95-4.68-5.25-4.64-3.63.04-8.04-1.53-10.67.03-2.5 1.49-3.21 6.08-4.56 9.36-1.06 2.59-2.6 3.84-5.44 2.71-2.9-1.15-2.1-3.12-1.26-5.22 5.55-13.97 11.1-27.93 16.56-41.94 1.01-2.59 2.63-3.73 5.35-3.49 2.6.23 5.1.8 5.62 3.81 2.71 15.74 5.31 31.5 8.07 47.97zm-13.41-39.92c-.51-.05-1.02-.09-1.53-.14-2.37 5.94-4.79 11.86-7.04 17.85-.18.48.67 1.92 1.17 1.99 3.29.46 6.62.66 10.52 1-1.13-7.48-2.13-14.08-3.13-20.69zm-147.11-58.06c-.49 1.86-.88 4.97-2.12 7.69-3.78 8.29-8.75 15.85-15.65 21.93-5.88 5.17-12.87 5.96-18.85 2.28-6.32-3.89-9.23-10.5-6.81-17.96 3.53-10.86 10.09-19.92 19.1-26.92 4.9-3.8 10.67-4.36 16.24-1.06 4.81 2.86 7.81 7.02 8.1 14.04zm-6.22-.62c0-4.45-1.33-6.93-4.2-8.45-3.34-1.77-6.73-1.62-9.6.78-7.82 6.52-13.57 14.63-17.06 24.17-1.68 4.59-.02 8.91 3.31 10.94 3.32 2.03 7.62 1.22 11.26-2.11 5.88-5.38 10.44-11.79 14.07-18.83 1.21-2.35 1.74-5.06 2.22-6.49zm444.92-8.18c-3.16-1.65-6.8-2.76-9.37-5.07-7.52-6.73-14.62-13.95-21.89-20.97-1.1-1.06-2.11-2.25-3.33-3.14-2.83-2.05-1.62-4.01.03-5.9 2.06-2.37 3.26-.16 4.52 1.05 8.14 7.81 16.18 15.73 24.4 23.46 5.22 4.91 10.26 4.66 13.86-.33 1.89-2.63 2.38-5.5.48-8.21a50 50 0 0 0-5.89-6.96c-7.1-7.02-14.29-13.96-21.53-20.83-1.83-1.74-1.67-3.19-.06-4.76 1.33-1.29 2.59-2.32 4.46-.47 7.44 7.35 15 14.58 22.46 21.9 1.5 1.48 2.89 3.1 4.14 4.8 6.55 8.92 1.19 22.26-9.77 24.41-.69.14-1.39.19-2.09.28zm-121.91 34.53c.84-7.7 5.06-13.21 12.56-15.58 5.89-1.86 11.4.02 15.19 5.25 1.21 1.67 2.42 3.45.25 5.24-1.74 1.44-4.71.68-6.14-1.45-2.19-3.25-5.11-4.48-8.61-3.59-3.53.89-5.76 3.45-5.64 7.52.09 3 .44 6.27 1.75 8.89 3.5 6.99 7.25 13.92 11.56 20.42 2.37 3.56 7.26 3.85 10.84 1.86 2.81-1.56 3.99-5.1 3.11-9.34-.29-1.38-.99-2.82-.79-4.12.21-1.36 1.15-3.56 1.98-3.66 1.34-.16 3.54.71 4.16 1.82 3.3 5.93 1.46 15.01-3.52 19.07-6.24 5.09-13.88 5.17-20.02 0-5.64-4.75-9.04-11.13-11.85-17.74-1.99-4.7-3.25-9.71-4.83-14.59m-396.09-108.2c-.5.75-1.02 2.33-1.74 2.43-1.16.16-2.92-.27-3.6-1.12-2.51-3.1-4.65-6.5-7-9.73-2.62-3.6-3.55-3.73-7.16-1.25q-8.34 5.73-2.76 14.31c1.03 1.58 2.28 3.09 2.88 4.82.42 1.22-.09 2.76-.19 4.15-1.48-.32-3.51-.14-4.34-1.05-2.43-2.68-4.55-5.68-6.48-8.76-1.86-2.98-3.75-3.85-6.8-1.55-3.65 2.76-7.54 5.2-11.25 7.89-2.11 1.52-4.2 3.19-6.37.4-2.27-2.92-.17-4.81 2.05-6.35 7.53-5.22 15.12-10.35 22.67-15.53 4.17-2.85 8.37-5.66 12.47-8.61 1.76-1.27 3.44-1.92 4.86.11 4.05 5.77 7.99 11.62 11.93 17.46.38.56.46 1.31.82 2.38zm130.58 110.73c-1.53-.7-3.57-1.58-5.56-2.56-2.78-1.38-4.57-1.18-6.06 2.12-5.14 11.36-10.6 22.57-15.96 33.83-.83 1.75-1.32 4.11-4.22 2.56-2.37-1.27-3.68-2.88-2.35-5.69 5.39-11.37 10.65-22.8 16.19-34.1 1.4-2.85 1.23-4.56-1.73-5.86-1.82-.8-3.84-1.47-5.24-2.77-.9-.84-1.14-2.73-1.03-4.1.03-.43 2.44-1.31 3.31-.93 7.65 3.3 15.25 6.74 22.75 10.36 1.44.69 2.98 2.14 3.47 3.57.7 2.05-.43 3.65-3.56 3.58zm153.95 71.37c-2.93.19-5.87.29-8.79.6-3.08.33-4.76-.9-4.95-3.98-.92-14.66-1.82-29.31-2.69-43.97-.13-2.15-.18-4.42 2.89-4.68 3.14-.26 3.76 1.96 3.93 4.29.87 11.83 1.68 23.67 2.44 35.51.41 6.34.45 6.35 6.92 5.72 3.5-.34 7.04-.32 10.56-.48 2.31-.11 3.54.93 3.62 3.28s-1.4 3.03-3.36 3.17c-3.52.24-7.04.44-10.55.66v-.12zm35.11-55.37c.71-.62 1.65-1.96 2.91-2.43 2.06-.77 3.35.58 3.83 2.54 1.58 6.51 3.12 13.02 4.63 19.54 1.38 5.95 2.75 11.9 4.03 17.87.7 3.23 2.37 4.17 5.6 3.26 3.83-1.08 7.79-1.74 11.69-2.59 2.05-.45 3.88-.24 4.47 2.12.62 2.47-1.05 3.33-3.07 3.8-6.18 1.43-12.35 2.89-18.53 4.3-2.75.63-4.91.09-5.62-3.1-3.22-14.56-6.45-29.12-9.67-43.68-.05-.23-.08-.46-.27-1.64zm126.86-56.28c4.78 6.46 9.44 12.78 14.14 19.08 3.51 4.71 7.12 9.35 10.55 14.11 1.66 2.31 3.35 2.61 5.59.94 3.57-2.67 7.31-5.13 10.75-7.96 1.92-1.58 3.46-1.08 4.4.5.53.88.26 3.14-.49 3.76-5.64 4.61-11.46 9-17.28 13.38-2.47 1.86-3.87-.03-5.15-1.79-5.46-7.51-10.89-15.04-16.33-22.56-2.82-3.9-5.67-7.8-8.48-11.71q-3.34-4.66 2.3-7.76z" fill="#fff"/><path d="M479.41 733.94c-10.92-.96-21.37-1.56-31.73-2.85-42.42-5.28-81.25-20.23-115.75-45.38-54.88-40-89.21-93.43-102.05-160.34-1.42-7.39-2.34-14.88-3.2-22.35-.17-1.48.58-3.52 1.63-4.63 37.39-39.79 74.87-79.51 112.35-119.23 2.64-2.8 5.4-5.49 8.68-8.8v136.91c.28.13.56.25.84.38 42.85-45.64 85.69-91.28 129.23-137.66v363.94zm65.46-295.02c21.66-23.01 42.91-45.58 64.77-68.79v137.93c-21.96-23.45-43.44-46.37-64.77-69.14" fill="#1c395e"/><path d="M351.56 161.06c-.95 1.08-2.23 3.57-4.26 4.66-5.36 2.87-11.05 5.15-16.62 7.64-1.84.82-3.18.27-3.95-1.62-.35-.87-.75-1.72-1.12-2.58-3.23-7.63-4.82-6.54 4.17-10.83 3.49-1.67 6.99-3.35 10.58-4.79 6.16-2.47 11.11.33 11.2 7.53zM694.43 241c-2.18-.77-4.74-1.07-6.48-2.41-5.02-3.85-9.76-8.08-14.47-12.31-.49-.44-.45-2.27.05-2.88 6.32-7.72 12.78-15.33 19.19-22.99 1.46-1.75 2.85-2.14 4.7-.4 4.69 4.4 9.63 8.54 14.15 13.1 1.36 1.38 2.07 3.73 2.4 5.75 1.5 9.29-9.92 21.96-19.53 22.14zm-502.17 35.74c6.32.16 11.85 5.04 8.47 10.83-2.95 5.05-6.06 10.02-9.39 14.83-.53.77-2.82 1.09-3.81.61-2.62-1.27-4.99-3.04-7.41-4.7-1.62-1.12-2.4-2.55-1.14-4.48 2.99-4.62 5.8-9.37 9.02-13.83 1.18-1.64 3.33-2.58 4.26-3.27zM434.72 130.6c3.57 6.47 7.14 12.95 11.07 20.06-6.12.78-11.51 1.47-17.65 2.25 1.95-7.8 3.75-14.95 5.54-22.1.35-.07.69-.14 1.04-.2zm-50.74 688.56c-9.63-.25-10.88-1.93-8.26-11.08.32-1.13.6-2.28.93-3.41 1.65-5.8 1.89-5.93 7.78-4.04 7.35 2.36 9.8 7.6 6.58 14.19-1.41 2.89-3.66 4.55-7.03 4.34m12.59-32.96c-.19 4.27-.96 8.03-4.13 8.53-3.58.57-7.48-.75-11.19-1.48-.38-.08-.77-1.89-.57-2.76.77-3.44 1.7-6.84 2.74-10.2.22-.72 1.37-1.85 1.72-1.73 3.48 1.21 7.02 2.38 10.21 4.16 1.02.57 1.05 2.91 1.23 3.49z" fill="#203b5d"/><path d="M781.32 672.95c-.64-.01-1.34-.16-1.73-.4-.22-.13-.44-.28-.65-.42.9.43 1.68.71 2.38.82"/><path d="M238.39 687.86c6.92.09 10.9 5 9.11 10.38-1.08 3.24-2.99 6.47-5.32 8.97-4.15 4.44-8.75 8.51-13.46 12.36-1.81 1.48-4.37 2.4-6.73 2.81-5.54.96-10.54-4.43-8.56-9.66 1.53-4.04 4.09-7.9 6.97-11.16 3.62-4.1 7.87-7.7 12.17-11.12 1.91-1.52 4.61-2.07 5.81-2.58zM447.9 796.34c1 6.61 2 13.21 3.13 20.69-3.9-.34-7.23-.54-10.52-1-.5-.07-1.35-1.51-1.17-1.99 2.25-5.98 4.67-11.91 7.04-17.85.51.05 1.02.09 1.53.14zm-153.33-58.68c-.48 1.44-1.01 4.14-2.22 6.49-3.63 7.04-8.19 13.44-14.07 18.83-3.64 3.33-7.94 4.14-11.26 2.11-3.33-2.03-4.99-6.34-3.31-10.94 3.49-9.54 9.25-17.65 17.06-24.17 2.87-2.39 6.26-2.55 9.6-.78 2.86 1.52 4.2 3.99 4.2 8.45z" fill="#203b5d"/><path d="M778.94 672.13c.21.14.43.28.65.42.4.25 1.1.39 1.73.4-.71-.11-1.48-.39-2.38-.82" fill="#fff"/><path d="M793.43 654.79c-.11-.13-.22-.27-.33-.4-4.99-5.87-10.84-9.37-19.05-6.24-.06-.42-.14-.84-.24-1.24-.56-2.53-1.67-4.62-3.19-6.39-2.43-3.86-6.45-6.06-11.13-6.1-4.87.04-8.06 2.86-10.62 6.56a91 91 0 0 0-2.28 3.49c-1.71 2.34-3.36 4.74-5.03 7.11-.28.39-.47.77-.59 1.16v.01c-.24.76-.18 1.52.23 2.23v.01c.28.51.75.99 1.39 1.43 12.23 8.34 24.42 16.74 36.63 25.11.73.49 1.47.83 2.19.98.74.16 1.47.11 2.13-.14.39-.23.75-.59 1.08-1.13 2.95-4.79 6.07-9.51 8.64-14.5 2.06-4.01 2.49-8.12.18-11.95zm-43.46-6.25c.93-1.03 1.52-2.36 2.34-3.49 2.41-3.32 4.99-3.94 9.56-2.4 1.87.64 3.22 1.53 4.11 2.92 1.16 1.05 1.78 2.28 1.51 3.8-.06.34-.13.68-.23 1.01-.83 3.07-2.91 5.92-4.6 8.77-.06.12-.13.22-.19.33-.2.33-2.04.11-2.8-.35a128 128 0 0 1-6.23-4.09.1.1 0 0 0-.04-.03h-.01c-.93-.59-1.86-1.19-2.78-1.8-1.81-1.2-2.37-2.77-.65-4.68zm38.37 15.27c-.1.49-.25.98-.47 1.49-2.11 5.68-3.69 8.04-6.52 7.65h-.04c-.64-.01-1.34-.16-1.73-.4-.22-.13-.44-.28-.65-.42h-.01c-1.19-.58-2.57-1.46-4.21-2.59-.97-.67-1.96-1.31-2.93-1.98-2.78-1.94-4.01-2.88-3.9-4.2-.11-.35-.13-.64-.03-.83 1.89-3.57 3.53-7.63 7.92-8.86 4.16-1.16 7.66.63 10.45 3.53.4.41.71.9 1 1.46.58.83.97 1.72 1.14 2.66.15.81.14 1.63-.04 2.5z" fill="#fff"/><path d="M767.51 649.38c-.06.34-.13.68-.23 1.01-.83 3.07-2.91 5.92-4.6 8.77-.06.12-.13.22-.19.33-.2.33-2.04.11-2.8-.35a128 128 0 0 1-6.23-4.09.1.1 0 0 0-.04-.03h-.01c-.93-.59-1.86-1.19-2.78-1.8-1.81-1.2-2.37-2.77-.65-4.68.93-1.03 1.52-2.36 2.34-3.49 2.41-3.32 4.99-3.94 9.56-2.4 1.87.64 3.22 1.53 4.11 2.92 1.16 1.05 1.78 2.28 1.51 3.8zm20.83 14.43c-.1.49-.25.98-.47 1.49-2.11 5.68-3.69 8.04-6.52 7.65h-.04c-.71-.11-1.48-.39-2.38-.82h-.01c-1.19-.58-2.57-1.46-4.21-2.59-.97-.67-1.96-1.31-2.93-1.98-2.78-1.94-4.01-2.88-3.9-4.2-.11-.35-.13-.64-.03-.83 1.89-3.57 3.53-7.63 7.92-8.86 4.16-1.16 7.66.63 10.45 3.53.4.41.71.9 1 1.46.58.83.97 1.72 1.14 2.66.15.81.14 1.63-.04 2.5z" fill="#203b5d"/><g fill="#fff"><path d="M473.93 745.98C324.67 742.1 210.95 619.91 213.1 475.05c2.15-144.8 121.88-266.64 274.95-262.22 144.08 4.16 263.12 124.2 258.17 275.62-4.73 144.59-123.85 259.43-272.29 257.54zM228.23 496.2c-.82 2.11-2.83 4.67-2.48 6.84 2.4 14.61 4.28 29.42 8.22 43.65 18.12 65.41 56.82 115.59 114.51 151.02 37.55 23.07 78.77 34.49 122.68 36.56 8.7.41 8.68.33 8.68-8.54.01-116.89.04-233.78.06-350.67v-5.14c44.94 45.48 85.99 93.33 129.96 138.41l.96-.63V369.58c40.93 43.57 81.33 86.57 122.24 130.12 0-2.41-.08-3.81.01-5.2 1.26-18.43.39-36.74-2.51-54.99-6.45-40.43-21.15-77.45-45.73-110.31-26.5-35.42-59.77-62.65-99.95-81.24-24.38-11.28-50.01-18.15-76.71-21.11-25.24-2.79-50.41-2.36-75.37 2.35-27.43 5.17-53.43 14.56-77.65 28.49-26.69 15.35-50.35 34.37-70.04 58.24-11.98 14.52-22.42 29.99-31.08 46.66-10.49 20.19-17.83 41.53-22.86 63.71-4.99 22.02-6.31 44.31-5.41 66.79.08 2.11.11 4.43 2.47 3.12z"/><path d="M349.67 369.74c21.99 23.38 43.25 45.99 64.82 68.93-21.3 22.67-42.77 45.52-64.82 68.98z"/></g></svg>