<svg viewBox="356 280.83 3288 3438.34" xmlns="http://www.w3.org/2000/svg"><g fill="#01319f"><path d="M3337.28 840.629c-1.864 42.617-21.013 124.442-132.809 172.356-6.695 2.86-13.324 5.825-19.87 8.98l-212.896 102.182-212.898-102.181c-6.546-3.156-13.175-6.121-19.87-8.981-111.795-47.914-130.945-129.739-132.809-172.356-.72-16.65 1.928-33.277 7.5-48.972 66.064-186.273 358.077-71.828 358.077-71.828s292.01-114.445 358.076 71.828c5.571 15.695 8.219 32.323 7.499 48.972M1673.264 463.531l196.99 27.875c44.482 55.412 0 109.806 0 109.806l-196.99-87.46zm1853.402 254.181s-78.373-256.3-470.235-288.073l-82.609-61.426-86.845 61.426s-398.216 23.3-478.707 341.026c0 0-57.19 298.663 239.353 463.88 0 0-38.127 228.764-290.189 326.2l-614.27-565.552h410.926V882.929s-12.71-38.127-55.074-48.717c0 0 6.355 55.072-31.771 67.78h-121.796s-73.077-48.718-39.187-169.453c0 0 19.064-36.01 101.673-33.891 0 0 69.9-2.119 105.91 76.254 0 0 135.562-80.49 12.707-228.763l22.899-32.98c12.688-18.258-.381-43.274-22.644-43.274h-140.053l-91.082-88.963-188.517-6.355s-19.064-46.6 4.236-80.49c0 0-313.49-78.373-514.716 146.153 0 0-184.281 148.273-152.51 436.344l569.79 525.307s82.61 78.373 42.364 226.645L381.179 440.23S277.387 698.648 491.322 863.865l902.342 840.915s99.554 88.964 40.245 230.88l-902.342-845.15s-110.145 228.763 116.5 427.87l580.379 540.135s-283.836 82.61-370.68 377.035c0 0-50.837 110.145-139.8 84.727 0 0-108.027-14.827-50.836-163.098 0 0 203.345-489.3 27.537-612.154 0 0-169.454-108.026-273.245 61.428 0 0-57.424 69.37 4.13 193.537 0 0-16.839-108.81 114.487-121.52 0 0 122.855 4.236 74.136 152.51l-103.79 216.053s-184.281 228.763 14.828 425.753c0 0 298.662 216.054 429.99-95.319 0 0 48.717 213.936-173.69 309.254l-175.81 260.536 385.507 571.906h413.743l-140.498-203.345h-142.892l-123.998-334.67 101.673-141.918s620.625-76.254 590.97-724.415l228.763-220.29 239.354 213.935s97.435 103.79 86.845 245.707h491.416l-67.781-144.035s-292.309-14.827-396.1-381.271c0 0 23.3-205.462-232.999-434.226L1393.665 986.72s-156.745-192.754-33.89-391.861l29.654 21.18s-46.6 182.164 124.972 321.964l665.106 620.624s169.454 165.218 190.635 332.554c0 0 461.763-103.79 434.226-574.026l86.845 46.6v1446.649h-148.272v-148.208h-497.77v317.726h160.98v-148.272h177.927v148.272h167.337v177.926h-167.337v156.745h-171.572V3155.73h-167.335v321.962h495.652V3329.42h150.39v288.071h173.692V1355.07l305.016-158.65s235.117-144.036 156.745-478.707"/><path d="M3450.413 1312.92l-239.142 127.09v2177.483h-61.639V1401.057l247.19-126.56c236.58-129.506 227.62-421.221 227.62-421.221h10.252c59.31 341.027-184.281 459.644-184.281 459.644"/><path d="M2264.847 3719.17h-405.61l-366.02-531.661 78.373-262.654c249.945-241.472 233-548.607 233-548.607l97.435-86.845c260.536 525.307-152.509 787.96-152.509 787.96l97.436 40.246 142.066 398.216h141.77z"/></g></svg>