<svg xmlns="http://www.w3.org/2000/svg" viewBox="3.36 0 256.65 299.7"><defs><clipPath id="a"><path d="M90.264 46.915c-9.402 2.307-20.13 3.965-28.742 5.297-5.002.772-9.764 1.514-11.872 2.05-1.58 13.389-6.582 68.046 11.296 107.711 18.76 41.63 60.663 69.353 71.184 75.824 10.602-6.22 52.819-33.128 72.768-77.352 16.309-36.185 11.148-92.488 9.56-106.235-2.092-.573-6.659-1.244-11.809-2.001-8.342-1.226-19.764-2.902-30.838-5.582-18.244-4.422-36.023-11.44-39.751-12.95-3.717 1.455-21.334 8.207-41.796 13.238"/></clipPath></defs><path fill="#fff" d="M130.947 239.69c8.134-4.667 53.465-32.231 74.407-78.675 17.136-38.01 10.754-98.445 9.574-108.249-3.55-1.722-24.127-3.248-43.885-8.023-20.496-4.966-40.14-13.129-40.14-13.129s-19.153 7.75-42.2 13.417c-16.832 4.133-38.728 6.282-41.836 7.761-1.206 9.597-7.533 67.998 11.29 109.749 19.665 43.631 64.697 72.272 72.79 77.15"/><path fill="#100f0d" d="M114.238 299.463v-7.912h-3.068v-1.866q.643.022 1.247-.095.601-.111 1.076-.399.48-.288.815-.759.33-.468.435-1.165h1.969v12.196zm8.886-7.693c.368.272.807.409 1.305.409.524 0 .955-.137 1.309-.41.346-.272.524-.667.524-1.194 0-.162-.026-.335-.074-.53a1.5 1.5 0 0 0-.826-.984q-.36-.173-.933-.174-.366.002-.704.114a2 2 0 0 0-.601.32c-.173.14-.314.318-.41.524q-.148.315-.147.73c0 .527.184.922.557 1.195m-.66 4.855q.17.382.457.653c.195.18.424.317.69.42.269.096.545.144.836.144q.456 0 .826-.144c.251-.103.472-.24.664-.42q.287-.27.446-.653.155-.381.155-.84a1.87 1.87 0 0 0-.62-1.412 2.2 2.2 0 0 0-.663-.399 2.3 2.3 0 0 0-.808-.136q-.901.001-1.533.494-.626.499-.627 1.434 0 .477.177.86m-1.78-7.721c.243-.42.563-.767.95-1.047.387-.277.83-.49 1.317-.627q.73-.208 1.478-.206 1.133 0 1.917.343.785.352 1.265.848c.317.331.546.689.686 1.065q.21.564.21 1.018 0 .906-.446 1.585-.442.68-1.331.977v.03q1.096.248 1.688 1.043.596.79.594 1.94c0 .648-.13 1.216-.39 1.692q-.395.713-1.04 1.183c-.428.313-.919.55-1.46.705a6 6 0 0 1-1.675.236q-.886.002-1.718-.217a4.4 4.4 0 0 1-1.478-.685 3.56 3.56 0 0 1-1.047-1.188q-.392-.712-.391-1.708 0-1.165.6-1.95.603-.785 1.7-1.05v-.03c-.593-.165-1.04-.47-1.341-.925-.299-.454-.454-.98-.454-1.586q0-.82.365-1.445m15.882 2.542a14.5 14.5 0 0 0-1.238 2.599 19 19 0 0 0-.767 2.787c-.177.94-.277 1.818-.288 2.629h-2.647q.21-2.736 1.283-5.261a18.7 18.7 0 0 1 2.81-4.635h-5.782v-2.3h8.33v2.127q-.961.836-1.7 2.054m6.521 1.866a1.76 1.76 0 0 0-.62.499q-.244.314-.366.724a3 3 0 0 0-.122.864c0 .28.04.554.134.831a2.2 2.2 0 0 0 .383.732q.25.32.617.513c.244.13.52.192.839.192q.456 0 .794-.192c.225-.13.42-.296.584-.506q.242-.312.369-.713c.077-.27.118-.54.118-.824q0-.433-.114-.846a2.3 2.3 0 0 0-.336-.731 1.8 1.8 0 0 0-.588-.524 1.66 1.66 0 0 0-.827-.204q-.491.001-.865.185m-.106-4.048q-.442.392-.706.96a5 5 0 0 0-.38 1.212 7 7 0 0 0-.141 1.156l.033.033c.336-.488.732-.842 1.186-1.049q.682-.315 1.57-.314a3.7 3.7 0 0 1 1.536.34c.503.225.927.535 1.278.916.321.373.562.798.713 1.274a4.94 4.94 0 0 1-.078 3.202 4.3 4.3 0 0 1-.871 1.42q-.57.598-1.356.937a4.3 4.3 0 0 1-1.743.344c-.92 0-1.68-.185-2.29-.55a4.2 4.2 0 0 1-1.445-1.441 6 6 0 0 1-.753-2.017c-.14-.753-.21-1.514-.21-2.294q-.002-1.136.262-2.271a6.6 6.6 0 0 1 .838-2.05m7.229-.133c.222.417.366.905.436 1.452h-2.357a2.14 2.14 0 0 0-.561-1.068m-2.702 4.488a2.2 2.2 0 0 0-.366.724 3 3 0 0 0-.122.864c0 .28.04.554.133.831.085.273.21.514.383.732q.25.32.617.513.363.193.838.192.455 0 .794-.192c.225-.13.422-.295.584-.506q.242-.312.37-.713a3.06 3.06 0 0 0 .003-1.67 2.3 2.3 0 0 0-.336-.731 1.8 1.8 0 0 0-.588-.524 1.67 1.67 0 0 0-.827-.204c-.324 0-.617.063-.865.185m-.106-4.048q-.443.392-.705.96a5 5 0 0 0-.382 1.212 6.7 6.7 0 0 0-.14 1.156l.034.033c.336-.488.731-.842 1.184-1.049q.682-.315 1.57-.314a3.7 3.7 0 0 1 1.537.34 3.9 3.9 0 0 1 1.279.916c.32.373.56.798.712 1.274s.228.964.228 1.448a5 5 0 0 1-.306 1.754 4.3 4.3 0 0 1-.871 1.42 4.1 4.1 0 0 1-1.356.937 4.3 4.3 0 0 1-1.743.344c-.92 0-1.68-.185-2.29-.55a4.2 4.2 0 0 1-1.445-1.441 5.9 5.9 0 0 1-.752-2.017 12.4 12.4 0 0 1-.21-2.294q-.002-1.135.26-2.271.263-1.136.838-2.05m7.23-.133c.222.417.365.905.435 1.452h-2.356a2.14 2.14 0 0 0-.563-1.068m-2.703 4.488q-.243.314-.366.724-.122.41-.122.864c0 .28.041.554.133.831.085.273.211.513.385.732q.25.32.616.513c.244.13.521.192.839.192q.456 0 .794-.192c.225-.13.42-.295.584-.506q.242-.312.369-.713c.078-.27.118-.539.118-.824a3 3 0 0 0-.114-.846 2.3 2.3 0 0 0-.337-.731 1.8 1.8 0 0 0-.587-.524 1.67 1.67 0 0 0-.827-.204 1.94 1.94 0 0 0-.864.185m2.083-3.989a1.43 1.43 0 0 0-1.083-.455q-.66 0-1.108.396-.441.392-.705.96a5 5 0 0 0-.38 1.212 7 7 0 0 0-.141 1.156l.033.033c.337-.488.732-.842 1.186-1.049q.682-.315 1.57-.314.788 0 1.536.34a3.9 3.9 0 0 1 1.279.916c.32.373.56.798.712 1.274s.23.964.23 1.448q-.001.944-.307 1.754a4.3 4.3 0 0 1-.872 1.419 4.1 4.1 0 0 1-1.356.938 4.3 4.3 0 0 1-1.743.344c-.92 0-1.68-.185-2.29-.55a4.2 4.2 0 0 1-1.444-1.441 5.9 5.9 0 0 1-.754-2.017c-.14-.753-.21-1.514-.21-2.294q-.002-1.136.262-2.272a6.6 6.6 0 0 1 .838-2.05c.388-.61.88-1.108 1.486-1.491.605-.385 1.34-.577 2.215-.577q.783-.001 1.467.224c.454.156.857.37 1.204.657q.522.427.857 1.052.332.63.436 1.452h-2.357c-.085-.41-.27-.76-.561-1.067m63.924-84.498c3.13-11.717-3.916-21.875 1.644-32.246-11.481 8.989-5.914 26.682-9.66 42.764l-.74 2.644 2.105-1.217c11.894-6.415 29.613-10.84 30.299-30.387-4.664 13.6-16.12 11.042-23.648 18.442m32.272-98.346c-.97-11.916-10.232-17.848-8.248-30.365-7.51 14.168 2.64 28.179 5.091 44.044l.366 2.74 1.272-2.28c7.724-12.59 21.273-24.44 16.314-41.857-.206 14.003-10.614 17.115-14.795 27.718m-4.834 26.119c-.232-12.071-9.15-18.91-6.375-31.185-8.502 13.358.882 28.287 2.154 44.48l.128 2.761 1.497-2.101c8.76-11.614 23.339-22.21 19.42-40.24-1.088 14.08-11.935 16.134-16.824 26.285m-6.883 25.37c.844-12.064-7.806-19.98-4.119-31.819-9.475 12.278-1.098 28.135-1.239 44.527l-.08 2.795 1.658-1.906c9.856-10.294 25.521-19.324 22.808-37.946-2.15 14.054-13.174 14.903-19.028 24.348m-9.074 24.253c2.01-11.924-6.128-21.023-1.434-32.198-10.534 10.821-3.304 27.674-5.17 44.04l-.401 2.74 1.906-1.59c10.969-8.553 27.619-15.628 26.465-34.774-3.407 13.88-14.578 13.287-21.366 21.782m22.14-85.725l1.143-2.378c6.758-13.303 19.286-26.214 13.41-43.045.64 13.91-9.402 17.926-12.839 28.861-1.692-11.717-11.105-16.783-9.906-29.385-6.53 14.737 4.277 27.818 7.702 43.281zm2.577-28.802l.446-1.527c2.714-8.635 8.053-16.716 5.206-26.572-2.603-6.562-3.569-9.434-7.31-12.616 1.06 3.126-.318 5.866-2.74 12.804-2.666 9.406 2.29 17.237 4.122 26.329zm-50.315 157.303c4.667-10.95-1.342-22.483 5.301-31.638-12.336 6.736-8.771 25.2-14.611 40.494l-1.058 2.507 2.23-.796c12.647-3.85 31.137-4.989 34.042-24.614-6.286 12.86-17.391 8.299-25.904 14.047m-32.342 31.033c-19.084.46-92.97 22.243-93.597 22.745-.011.003 2.618 2.595 2.817 2.518-.199.077 76.268-20.378 84.31-16.156 21.745 10.238 29.13 5.85 36.695-11.647-9.471 10.172-15.474 1.334-30.225 2.54m15.784-13.91c6.138-9.874 1.518-22.723 9.28-30.285-13.004 4.133-11.828 23.12-19.707 37.175l-1.383 2.29 2.323-.336c13.06-1.132 31.79 1.596 37.22-17.572-8.052 11.555-18.47 4.86-27.733 8.727"/><g clip-path="url(#a)"><path fill="#100f0d" d="M217.066 112.009H137.58V34.222h79.486zm-94.079 130.093h-74.34V131.13h74.34z"/><path fill="#211d1d" d="M124.642 238.799h5.107V23.05h-5.107zm7.16 2.05h-9.206V20.996h9.206z"/><path fill="#100f0d" d="M131.448 238.799h5.107V23.05h-5.107zm7.156 2.05h-9.213V20.996h9.213z"/><path fill="#100f0d" d="M130.58 118.085h96.608v-5.106l-96.609-.004zm98.658 2.05H128.529v-9.21h100.709z"/><path fill="#100f0d" d="M130.578 124.89h96.61v-5.11h-96.61zm98.66 2.05h-100.71v-9.206h100.71z"/><path fill="#100f0d" d="M37.49 122.638h96.61v-5.106H37.49zm98.659 2.057H35.437v-9.21h100.712z"/><path fill="#211d1d" d="M37.49 129.448h96.606v-5.11H37.49zm98.659 2.05H35.44v-9.21h100.71z"/></g><path fill="#100f0d" d="M61.807 217.987l-.738-2.644c-3.75-16.082 1.822-33.776-9.66-42.765 5.564 10.372-1.489 20.53 1.641 32.25-7.525-7.403-18.98-4.848-23.648-18.446.69 19.548 18.406 23.973 30.3 30.392zm15.732 18.372l-1.058-2.504c-5.84-15.297-2.275-33.76-14.615-40.497 6.647 9.155.638 20.687 5.31 31.637-8.514-5.747-19.62-1.187-25.913-14.043 2.91 19.626 21.4 20.761 34.05 24.61zm-28.957-39.554l-.41-2.743c-1.861-16.37 5.369-33.216-5.165-44.04 4.69 11.175-3.444 20.274-1.434 32.198-6.791-8.495-17.963-7.902-21.362-21.783-1.158 19.146 15.489 26.222 26.465 34.775zm46.957 54.497l-1.383-2.29c-7.879-14.058-6.706-33.046-19.707-37.175 7.761 7.558 3.142 20.403 9.28 30.284-9.261-3.867-19.68 2.825-27.736-8.73 5.434 19.168 24.164 16.44 37.22 17.572zm-71.97-128.405l.37-2.74c2.451-15.864 12.598-29.875 5.09-44.044 1.988 12.517-7.277 18.45-8.243 30.366C16.598 95.875 6.193 92.764 5.99 78.757c-4.966 17.42 8.587 29.27 16.311 41.861zm-4.14-26.399l.494-2.669c3.426-15.463 14.224-28.544 7.702-43.285 1.199 12.606-8.218 17.672-9.91 29.389-3.436-10.936-13.472-14.95-12.83-28.861C-1 67.902 11.531 80.814 18.29 94.117zm16.85 75.066l1.659 1.907-.085-2.795c-.137-16.396 8.24-32.246-1.239-44.527 3.69 11.838-4.955 19.754-4.118 31.818-5.851-9.446-16.875-10.294-19.025-24.349-2.713 18.627 12.952 27.656 22.807 37.947M16.856 67.696l.276-1.589c1.833-9.088 6.784-16.92 4.126-26.325-2.43-6.939-3.812-9.678-2.743-12.804-3.743 3.181-4.708 6.053-7.308 12.616-2.846 9.86 2.489 17.937 5.199 26.572zm82.657 188.336c-14.755-1.209-20.757 7.629-30.225-2.544 7.569 17.498 14.954 21.886 36.692 11.651 8.041-4.225 84.508 16.23 84.31 16.156.198.074 2.831-2.518 2.82-2.522-.623-.501-74.513-22.287-93.597-22.74m-69.805-107.38l.13-2.76c1.275-16.194 10.655-31.122 2.149-44.476 2.78 12.27-6.139 19.11-6.371 31.184-4.893-10.154-15.74-12.208-16.827-26.288-3.912 18.03 10.659 28.625 19.426 40.24zm151.916 15.574c0 16.086-6.47 14.103-9.541 21.85h-10.28c-3.498-7.006-9.541-6.261-9.541-21.85v-8.365h29.362zm-24.385-22.789c2.843 0 5.147 2.209 5.147 4.93 0 2.717-2.304 4.922-5.147 4.922-2.839 0-5.143-2.205-5.143-4.922 0-2.721 2.304-4.93 5.143-4.93m19.408 0c2.839 0 5.144 2.209 5.144 4.93 0 2.717-2.305 4.922-5.144 4.922-2.842 0-5.143-2.205-5.143-4.922 0-2.721 2.3-4.93 5.143-4.93m6.043 10.59c1.493-1.464 1.899-3.46 1.899-5.66 0-4.469-3.274-8.104-7.942-8.104a8.7 8.7 0 0 0-3.812.881 5.9 5.9 0 0 0 .545-2.474c0-3.403-2.883-6.164-6.437-6.164s-6.433 2.761-6.433 6.164c0 .881.191 1.718.545 2.474a8.7 8.7 0 0 0-3.816-.881c-4.664 0-7.945 3.635-7.945 8.104 0 2.2.409 4.196 1.903 5.66-1.778.45-3.082 1.99-3.082 3.834v8.365c0 11.316 2.956 15.353 6.82 19.449 1.225 1.301 2.286 2.433 3.131 4.115.694 1.379 2.146 2.256 3.74 2.256h10.28c1.718 0 3.262-1.021 3.874-2.562.781-1.97 1.844-3.053 3.186-4.425 3.757-3.845 6.633-7.669 6.633-18.833v-8.365c0-1.844-1.31-3.385-3.086-3.835"/><path fill="#fff" d="M166.943 155.86h-14.681v8.366c0 15.592 6.043 14.844 9.542 21.853h10.279c3.07-7.75 9.541-5.767 9.541-21.853v-8.365zm14.847-9.494c0 2.718-2.3 4.926-5.143 4.926s-5.143-2.208-5.143-4.926 2.3-4.925 5.143-4.925 5.144 2.208 5.144 4.925m-29.694 0c0 2.718 2.297 4.926 5.143 4.926 2.84 0 5.147-2.208 5.147-4.926s-2.308-4.925-5.147-4.925c-2.846 0-5.143 2.208-5.143 4.925"/><path fill="#100f0d" d="M100.478 84.896c0 16.082-6.474 14.095-9.545 21.845H80.657c-3.506-7.002-9.545-6.26-9.545-21.845v-8.37h29.366zM76.09 62.106c2.84 0 5.147 2.205 5.147 4.926s-2.308 4.922-5.147 4.922c-2.843 0-5.143-2.2-5.143-4.922 0-2.72 2.3-4.925 5.143-4.925m19.412 0c2.839 0 5.143 2.204 5.143 4.925s-2.304 4.922-5.143 4.922c-2.843 0-5.147-2.2-5.147-4.922 0-2.72 2.304-4.925 5.147-4.925m6.035 10.585c1.497-1.464 1.903-3.459 1.903-5.66 0-4.465-3.278-8.1-7.938-8.1-1.376 0-2.67.32-3.816.878a6 6 0 0 0 .545-2.474c0-3.403-2.883-6.165-6.433-6.165-3.558 0-6.438 2.762-6.438 6.165 0 .877.196 1.714.546 2.474a8.7 8.7 0 0 0-3.816-.878c-4.668 0-7.942 3.635-7.942 8.1 0 2.201.406 4.196 1.903 5.664-1.777.446-3.086 1.99-3.086 3.83v8.37c0 11.311 2.953 15.348 6.817 19.444 1.231 1.306 2.293 2.43 3.134 4.115.69 1.38 2.146 2.257 3.742 2.257h10.276c1.718 0 3.263-1.022 3.874-2.56.782-1.968 1.844-3.056 3.186-4.427 3.757-3.846 6.633-7.673 6.633-18.83v-8.369c0-1.84-1.309-3.384-3.09-3.834"/><path fill="#fff" d="M85.796 76.527H71.111v8.37c0 15.584 6.04 14.84 9.546 21.844h10.272c3.075-7.75 9.549-5.762 9.549-21.845v-8.369zm14.846-9.497c0 2.722-2.3 4.926-5.143 4.926s-5.147-2.204-5.147-4.925 2.304-4.926 5.147-4.926 5.143 2.205 5.143 4.926m-29.698-.001c0 2.722 2.3 4.926 5.147 4.926 2.84 0 5.143-2.204 5.143-4.925s-2.304-4.926-5.143-4.926c-2.846 0-5.147 2.205-5.147 4.926"/><path fill="#f4a00f" d="M106.786 171.556l-5.737-5.737 5.733-5.737 5.737 5.737zm-9.04 9.033l-5.734-5.737 5.733-5.733 5.74 5.733zm-14.77-14.77l5.732-5.737 5.737 5.737-5.737 5.733zm14.77-14.77l5.736 5.733-5.737 5.737-5.733-5.737zm20.41 14.77a2.32 2.32 0 0 0-.686-1.648l-7.385-7.389 2.09-2.094a2.336 2.336 0 0 0 0-3.296 2.33 2.33 0 0 0-3.299 0l-2.09 2.094-7.39-7.388a2.33 2.33 0 0 0-3.295 0l-7.393 7.388-2.09-2.094a2.33 2.33 0 0 0-3.3 0 2.33 2.33 0 0 0 0 3.296l2.094 2.094-7.388 7.385a2.35 2.35 0 0 0-.682 1.652c0 .62.247 1.217.682 1.648l7.388 7.385-2.094 2.094a2.334 2.334 0 0 0 3.3 3.3l2.09-2.094 7.393 7.389c.453.453 1.05.682 1.644.682.597 0 1.195-.229 1.652-.682l7.389-7.385 2.09 2.09a2.33 2.33 0 0 0 3.3 0 2.335 2.335 0 0 0 0-3.296l-2.09-2.098 7.384-7.385a2.3 2.3 0 0 0 .686-1.648m44.229-71.959s-5.12-5.254-3.569-9.24c0 0 4.845 6.224 8.126 5.14 0 0 25.296-9.583 28.176-21.31 1.552-6.346-31.184-6.479-36.593 0 0 0-.524-5.83 12.978-11.08 13.502-5.254 39.428 4.081 29.839 13.413-9.598 9.335-14.262 13.225-8.82 16.337 0 0-6.725 1.254-9.331-.778 0 0-8.82 3.89-13.222 7.518-4.41 3.631-7.337 11.377-11.447 11.65-4.112.273-8.908-1.795 3.863-11.65"/><path fill="#100f0d" d="M152.182 120.445c0 11.824-9.583 21.406-21.41 21.406-11.825 0-21.4-9.582-21.4-21.406 0-11.82 9.575-21.407 21.4-21.407 11.827 0 21.41 9.586 21.41 21.407"/><path fill="#fff" d="M118.761 117.274c-1.511-.21-2.89-.35-4.026-.409.291 1.57 1.084 4.83 3.078 8.922 2.15 4.436 5.173 8.152 6.409 9.587.626-.701 1.467-1.74 2.444-3.053-.509-.767-1.995-3.094-4.513-7.776-1.895-3.5-2.92-5.988-3.392-7.27m14.677-12.175c2.629-1.206 4.539-1.944 5.837-2.394a19.8 19.8 0 0 0-10.549-1.82c.62.508 1.316 1.083 1.357 1.109 1.74 1.449 2.798 2.51 3.355 3.104m-4.861 28.042c-.39.53-1.902 2.57-3.082 3.816a27 27 0 0 1-1.877 1.81c3.197 1.254 6.655 1.656 10.191 1.11.24-.76.712-2.382 1.114-4.727.31-1.821.479-3.182.57-3.996-3.387 1.294-5.98 1.821-6.916 1.987m-2.997-23.368a39.5 39.5 0 0 1 5.46-3.193l.995-.483c-.767-.807-1.821-1.78-3.038-2.787l-2.51-2.057a19.65 19.65 0 0 0-8.38 4.151l2.528 1.36c1.324.723 3.801 2.286 4.944 3.009m-12.911 6.99c-.32-.015-.826-.04-1.202-.055a19.5 19.5 0 0 0-.357 3.738c0 7.337 4.022 13.977 10.504 17.399.272-.229.696-.605 1.172-1.044-1.445-1.67-4.52-5.478-6.78-10.131-2.356-4.849-3.116-8.517-3.337-9.907m15.629 14.366c1.626-.291 5.368-1.154 9.825-3.303 4.841-2.327 10.46-6.427 12.311-7.813a20 20 0 0 0-.653-4.638c-2.028 1.467-6.455 4.494-11.787 7.068a138 138 0 0 1-11.886 5.08 76 76 0 0 0 2.19 3.606m17.683-.75c.074.737.126 1.526.144 2.36a19.44 19.44 0 0 0 4.2-10.147 119 119 0 0 1-4.823 3.311c.074.715.314 2.935.48 4.476m-26.913-15.098c.66-.83 2.197-2.588 4.77-4.59-1.18-.749-2.986-1.858-4.018-2.422l-3.038-1.634a19.6 19.6 0 0 0-4.82 8.078l2.556.13c1.578.066 3.303.265 4.55.438m4.862 8.314c0 .004.815 1.49 1.173 2.146a135 135 0 0 0 12.012-5.11c5.737-2.772 10.4-6.083 12.008-7.274a19.7 19.7 0 0 0-2.422-4.461 91 91 0 0 0-12.993 5.888c-5.633 3.126-9.236 5.818-10.722 7.001.321.623.944 1.81.944 1.81m19.676 3.5c-1.718 1.047-3.266 1.906-4.608 2.555-.004.003-.955.435-1.398.634-.059.737-.24 2.544-.697 5.199a44 44 0 0 1-.848 3.908 19.7 19.7 0 0 0 8.042-4.48c.03-.826.063-2.607-.122-4.306 0 0-.243-2.33-.369-3.51m-21.523-7.154c1.611-1.253 5.25-3.919 10.652-6.927 5.095-2.825 9.906-4.768 12.613-5.77a20 20 0 0 0-3.672-3.164c-1.199.317-4.292 1.29-9.885 4.03-6.825 3.33-10.375 7.47-11.146 8.44.192.527.645 1.703 1.438 3.391"/><path fill="#100f0d" d="M48.588 54.193C47.01 67.566 42.014 122.158 59.87 161.77c18.737 41.578 60.587 69.267 71.095 75.734 10.59-6.216 52.753-33.09 72.677-77.26 16.29-36.14 11.135-92.372 9.553-106.099-2.094-.575-6.655-1.246-11.798-2.002-8.333-1.22-19.74-2.898-30.8-5.578-18.222-4.41-35.978-11.422-39.705-12.93-3.706 1.456-21.307 8.2-41.74 13.221-9.395 2.308-20.109 3.963-28.71 5.294-4.993.77-9.752 1.508-11.854 2.043m82.34 187.676l-.95-.571c-8.802-5.303-53.709-33.994-73.533-77.986C37.593 121.502 43.603 63.716 45 52.556l.129-1.018.925-.442c1.567-.745 5.814-1.427 13.815-2.662 8.532-1.32 19.15-2.96 28.382-5.228 22.642-5.564 41.755-13.262 41.946-13.34l.712-.287.712.295c.199.081 19.75 8.17 39.86 13.044 10.894 2.629 22.205 4.295 30.46 5.505 7.861 1.158 12.053 1.8 13.804 2.654l.926.447.118 1.017c1.397 11.547 7.484 71.077-9.723 109.248-21.07 46.713-66.328 74.446-75.184 79.53zm115.375-55.229c-7.588.851-17.45 11.532-20.72 15.3 1.942.13 6.297.506 10.858 1.53 6.083 1.372 10.275 3.381 12.524 5.992l9.667-6.216-12.838-3.44z"/><path fill="#fff" d="M226.65 201.506c2.33.184 6.028.594 9.903 1.467 5.917 1.331 10.12 3.29 12.502 5.822l8.329-5.353-11.728-3.138a.51.51 0 0 1-.376-.516l.486-12.55c-6.894 1.227-15.67 10.386-19.116 14.268m22.313 8.469a.54.54 0 0 1-.387-.177c-2.176-2.526-6.294-4.483-12.245-5.825-4.446-1.003-8.664-1.38-10.784-1.523a.5.5 0 0 1-.435-.314.5.5 0 0 1 .085-.53c3.783-4.37 13.41-14.62 21.049-15.475a.51.51 0 0 1 .567.527l-.497 12.757 12.454 3.337a.512.512 0 0 1 .14.93l-9.67 6.212zm-232.082.238a7 7 0 0 0-.822 1.095q-.165.26-.299.53c.144.049.28.126.398.226 6.264 5.08 15.965 7.705 28.832 7.809l-4.383-15.213-.41-1.415s-17.638.67-23.316 6.968"/><path fill="#100f0d" d="M248.6 213.735l-.265.185c-.18.132-.358.265-.542.394q-.16.105-.324.21c-.17.115-.336.225-.51.336-.117.077-.239.147-.353.22q-.248.157-.502.307c-.125.07-.243.14-.368.21-.174.1-.336.195-.51.288-.124.073-.254.132-.379.203-.173.092-.339.18-.52.269-.125.062-.254.129-.383.191q-.264.127-.535.255c-.125.059-.262.118-.39.18q-.268.124-.546.24-.195.081-.395.17l-.56.225c-.133.051-.262.107-.39.154-.2.078-.392.148-.595.222l-.38.14c-.202.073-.412.14-.615.214-.125.04-.247.084-.369.121l-.663.21c-.111.03-.222.07-.336.104l-.73.213-.277.082c-.317.084-.63.166-.947.247l-.07.018q-1.045.26-2.094.483l-.262.052-.785.162a10 10 0 0 0-.347.062c-.236.037-.468.085-.704.122a14 14 0 0 1-.395.07c-.22.034-.438.07-.663.104-.14.022-.277.04-.417.062-.218.026-.431.063-.641.092-.144.019-.296.037-.44.06-.206.022-.42.055-.626.077-.151.015-.291.033-.446.051q-.31.035-.616.063a6 6 0 0 1-.457.048c-.2.022-.41.04-.605.059-.158.015-.306.03-.46.04a32 32 0 0 1-.613.048c-.147.012-.306.023-.46.037q-.299.016-.602.037-.225.017-.457.03-.304.016-.613.03c-.147.01-.299.014-.445.025a33 33 0 0 1-.62.026c-.143.004-.29.007-.43.015-.223.007-.435.01-.652.018-.133.004-.261.007-.395.007-.266.004-.527.015-.79.019q-.142-.001-.29.004h-.53l-.425.003h-.023l-.974-.003c-.405-.008-.803-.019-1.208-.023l-.28-.007q-.398-.012-.778-.018-.186-.01-.361-.015c-.228-.007-.465-.014-.694-.026q-.185-.011-.383-.018c-.214-.011-.431-.019-.652-.034-.132-.003-.258-.01-.395-.014-.21-.019-.417-.026-.622-.037a15 15 0 0 0-.399-.026q-.3-.017-.601-.04c-.129-.007-.263-.019-.392-.026l-.59-.044q-.196-.014-.382-.03c-.195-.022-.383-.032-.579-.048l-.07-.007.266.089c2.935.955 5.383 1.95 7.36 2.986.427.224.836.454 1.223.682.985.59 1.818 1.191 2.507 1.81.432.38.8.767 1.114 1.158.877 1.092 1.312 2.226 1.32 3.407v.046l-.011.21-.008.014c-.7 4.266-1.736 11.05-2.551 18.622l.048-.01.217-.043.612-.145.255-.066c.17-.036.335-.082.505-.122l.192-.048c.21-.056.413-.106.623-.166l.24-.062c.154-.04.317-.082.464-.125l.2-.06c.198-.059.397-.11.589-.17l.228-.07c.152-.04.29-.085.439-.132l.191-.062c.191-.06.38-.122.56-.178l.207-.07c.137-.048.273-.091.414-.14l.177-.06c.18-.062.354-.125.53-.19l.181-.07c.13-.049.262-.096.387-.144l.163-.067q.253-.093.49-.19l.155-.067c.129-.052.243-.1.365-.151l.143-.07c.152-.063.303-.133.447-.2l.133-.059c.106-.055.217-.106.328-.166l.132-.062c.133-.067.27-.137.395-.207l.103-.055q.152-.082.302-.166l.104-.063.354-.213.073-.045.266-.18.085-.06q.154-.109.29-.213l.045-.037.225-.188.066-.06.228-.217.022-.03.174-.19.052-.06.155-.217.01-.011.111-.203.03-.055.081-.218c1.541-5.125 3.591-7.684 10.762-16.02 4.616-5.357 5.413-9.954 5.402-12.565-.011-1.452-.27-2.29-.27-2.29-.257.207-.516.406-.781.609"/><path fill="#fff" d="M223.768 231.269l-.007.03c-.69 4.206-1.677 10.658-2.467 17.9l.17-.037.25-.067c.167-.04.329-.08.499-.118l.191-.055c.203-.052.41-.107.612-.162l.244-.063.457-.125.199-.056q.304-.084.586-.173l.848-.258q.284-.089.557-.177l.203-.066c.136-.048.276-.096.402-.137l.191-.066q.255-.09.51-.185l.18-.066q.199-.072.383-.144l.166-.066q.237-.093.48-.192l.143-.062a7 7 0 0 0 .361-.152l.148-.062.435-.196.125-.059c.11-.059.222-.107.325-.162l.125-.059c.133-.07.262-.133.387-.203l.096-.051.296-.166.103-.06.331-.202.07-.044.251-.17.081-.055.273-.203.04-.033.21-.173.06-.052.207-.2.17-.19.04-.049.122-.162.014-.022.085-.151.03-.048.048-.144c1.586-5.272 3.717-7.901 10.87-16.212 4.384-5.095 5.29-9.46 5.27-12.222 0-.564-.046-1.028-.096-1.386l-.137.11-.162.115-.103.074c-.185.136-.365.269-.56.398l-.226.151-.1.07c-.169.114-.338.232-.515.34l-.24.15-.121.074c-.17.107-.336.207-.51.31-.103.063-.206.118-.31.18l-.07.034q-.25.153-.512.295-.173.09-.335.18l-.052.022c-.177.093-.346.185-.527.273a10 10 0 0 1-.395.192c-.176.088-.354.18-.534.265-.13.06-.27.122-.406.181-.18.081-.361.166-.55.244l-.394.17-.578.231c-.126.056-.259.104-.395.155-.195.081-.394.151-.597.225l-.082.03c-.1.037-.203.077-.306.11-.204.078-.417.144-.626.218l-.369.125c-.221.07-.447.144-.668.21l-.339.104q-.37.114-.74.217l-.28.081q-.479.131-.955.251l-.075.022c-.682.173-1.393.335-2.117.487l-.262.051c-.266.052-.527.107-.793.159l-.35.063c-.233.044-.475.088-.708.129l-.395.066-.032.004c-.218.037-.428.066-.639.103l-.391.055c-.25.037-.464.07-.682.1l-.435.055-.638.081-.447.052-.622.07-.458.044-.612.06-.464.04q-.303.026-.613.048l-.46.037c-.21.01-.406.029-.612.04l-.461.03c-.199.007-.406.022-.612.03l-.454.021c-.199.011-.402.019-.6.026l-.454.015a38 38 0 0 1-.65.018l-.405.015c-.261.004-.523.004-.789.011l-1.253.007c-.347 0-.668 0-1.003-.003a135 135 0 0 1-1.21-.019l-.398-.01c-.225-.008-.446-.012-.667-.023l-.372-.011a39 39 0 0 1-.686-.026l-.358-.014-.682-.034-.276-.01c1.552.6 2.93 1.216 4.125 1.843.435.225.86.46 1.254.697 1.006.604 1.884 1.235 2.596 1.869.446.398.836.81 1.165 1.22.94 1.176 1.419 2.426 1.43 3.728v.044zm-3.027 19.09a.52.52 0 0 1-.354-.125.52.52 0 0 1-.195-.427 334 334 0 0 1 2.555-18.63l.004-.026.01-.14-.003-.044c-.004-1.073-.405-2.087-1.206-3.09a9 9 0 0 0-1.054-1.091c-.66-.594-1.475-1.184-2.43-1.755a25 25 0 0 0-1.205-.672c-1.932-1.013-4.38-2.009-7.278-2.953l-.262-.084a.51.51 0 0 1-.343-.59.51.51 0 0 1 .546-.41l4.011.277c.218.007.431.018.653.026l.38.022.685.022.362.015c.22.007.442.01.667.018l.39.008c.399.007.797.018 1.203.018q.48.005.966.004l1.26-.004q.394-.01.786-.011l.394-.011.645-.022.431-.015.615-.022.446-.026q.3-.012.605-.03l.45-.029c.202-.015.406-.022.608-.04l.45-.034.609-.048.454-.036c.207-.019.406-.04.609-.06l.45-.047q.308-.03.61-.07l.446-.048.627-.078.428-.059c.21-.026.428-.059.637-.088l.41-.067c.213-.03.42-.062.63-.1l.424-.066q.348-.059.697-.125l.339-.063.782-.154.254-.056a47 47 0 0 0 2.08-.476l.036-.01.03-.012c.317-.077.626-.158.94-.243l.273-.081q.36-.101.726-.207l.328-.107q.335-.103.656-.206l.362-.122c.206-.07.41-.136.612-.21l.295-.107.08-.03q.294-.106.576-.217c.133-.048.262-.1.391-.147q.279-.118.557-.229c.129-.055.262-.11.387-.166.18-.077.358-.162.539-.24q.193-.083.387-.177c.174-.08.35-.17.52-.246.13-.063.26-.126.381-.189q.262-.134.513-.269l.05-.018q.159-.089.328-.18c.165-.093.334-.189.493-.277l.074-.04.291-.17c.166-.096.333-.2.494-.303l.117-.07.233-.144q.246-.157.494-.328l.11-.073.21-.14c.181-.122.358-.255.531-.384l.116-.077.143-.107c.261-.192.516-.395.767-.598a.5.5 0 0 1 .472-.088.49.49 0 0 1 .335.335c.015.034.287.933.296 2.445.017 2.942-.926 7.565-5.515 12.897-7.046 8.178-9.14 10.766-10.668 15.84l-.106.28-.033.07-.137.239-.01.018-.188.266-.056.066-.202.225-.019.03-.261.235-.056.048-.254.218-.052.044c-.096.07-.203.151-.31.225l-.088.067-.284.191-.074.048c-.114.07-.24.144-.365.218l-.107.063a7 7 0 0 1-.317.176l-.096.056-.416.214-.137.066a7 7 0 0 1-.339.162l-.129.063c-.147.07-.302.14-.453.21l-.148.067-.369.15-.158.07c-.17.067-.332.13-.502.2l-.165.066-.395.144-.184.07q-.26.099-.531.192l-.185.062c-.136.048-.28.096-.413.14l-.213.07q-.283.096-.56.185l-.867.262c-.203.062-.398.118-.601.17l-.203.058c-.151.045-.306.085-.464.13l-.244.07c-.214.051-.416.11-.63.162l-.196.048c-.162.044-.332.08-.505.125l-.25.063q-.313.076-.616.147l-.221.048-.126.011"/><path fill="#fff" d="M220.743 230.294c.199-.328.53-.55.896-.623-.251-.616-.675-1.21-1.22-1.78a11 11 0 0 0-1.287-1.118c-.373-.28-.775-.553-1.195-.819a25 25 0 0 0-2.076-1.139l-.254-.129c-2.463-1.19-5.365-2.216-8.137-3.049l-.023-.004a82 82 0 0 0-1.85-.534l-.052-.019-1.091-.29-.133-.038c-.195-.051-.394-.096-.586-.15h-.004c-.192-.052-.376-.097-.557-.145l-.025-.01c-.133-.026-.266-.063-.391-.093l-.177-.044q-.539-.132-1.043-.25l-.03-.008a103 103 0 0 0-3.079-.679h-.007l-.196-.04a55 55 0 0 0-1.493-.295l-4.177 14.508c.258-.011.513-.03.767-.04 23.257-1.213 26.874-2.813 27.42-3.212"/><path fill="#100f0d" d="M28.237 203.474c4.56-1.026 8.915-1.405 10.858-1.53-3.27-3.772-13.133-14.45-20.72-15.305l.512 13.17-12.845 3.436 9.67 6.216c2.25-2.61 6.441-4.62 12.525-5.988"/><path fill="#fff" d="M7.294 203.442l8.329 5.353c2.382-2.536 6.585-4.49 12.499-5.821 3.878-.874 7.584-1.283 9.907-1.467-3.451-3.88-12.223-13.041-19.12-14.269l.486 12.55a.5.5 0 0 1-.38.513zm8.418 6.53l-.273-.078-9.675-6.212a.514.514 0 0 1 .144-.93l12.447-3.336-.494-12.753a.53.53 0 0 1 .162-.398.5.5 0 0 1 .406-.133c7.635.855 17.27 11.109 21.052 15.47.13.151.162.354.089.535a.52.52 0 0 1-.443.313c-2.116.14-6.334.52-10.78 1.523-5.955 1.342-10.073 3.3-12.245 5.825a.53.53 0 0 1-.39.174m31.031 15.982a17 17 0 0 0-1.194.815c-.484.362-.915.741-1.29 1.121-.55.572-.967 1.165-1.218 1.78.362.075.694.296.893.624.545.398 4.162 1.995 27.42 3.211.254.011.508.03.766.04l-4.177-14.507-.133.03c-.21.033-.656.12-1.29.25l-.262.052v.003c-3.687.752-12.572 2.799-18.294 5.881q-.642.342-1.22.7m202.173-14.116a6 6 0 0 0-.295-.531 7.5 7.5 0 0 0-.83-1.095c-5.67-6.29-23.32-6.965-23.32-6.965l-.401 1.412-4.388 15.217c12.871-.107 22.568-2.729 28.836-7.813.118-.1.254-.17.398-.225"/><path fill="#100f0d" d="M41.42 231.219l-.017-.21v-.037c.01-1.184.446-2.323 1.32-3.414a10 10 0 0 1 1.11-1.158q1.038-.925 2.514-1.81a27 27 0 0 1 1.227-.682c1.973-1.037 4.421-2.032 7.356-2.987l.265-.089-.073.008-.572.044c-.132.015-.262.022-.387.033q-.292.024-.586.041-.197.013-.402.03-.29.026-.59.036-.205.016-.406.026c-.206.015-.409.022-.62.04-.132.004-.26.012-.394.015-.217.015-.43.022-.652.034q-.193.005-.387.018l-.686.026a9 9 0 0 0-.365.015c-.258.003-.513.01-.774.018l-.288.007c-.402.004-.804.015-1.206.022-.328 0-.648.004-.973.004h-.022l-.428-.004h-.527l-.291-.007c-.266 0-.524-.01-.785-.01l-.402-.012-.65-.018c-.14-.004-.287-.012-.43-.015l-.62-.026a18 18 0 0 1-.446-.026 32 32 0 0 1-1.066-.059q-.304-.022-.608-.037-.234-.02-.46-.037c-.2-.018-.403-.029-.606-.047-.154-.012-.306-.03-.46-.04-.203-.02-.41-.038-.609-.056q-.225-.02-.457-.052a34 34 0 0 1-1.062-.114c-.21-.022-.42-.052-.627-.081a16 16 0 0 1-.438-.06q-.321-.04-.642-.092-.205-.026-.417-.059-.332-.05-.66-.106a8 8 0 0 1-.398-.067c-.235-.04-.468-.085-.7-.121a10 10 0 0 0-.35-.063c-.262-.056-.52-.107-.786-.162l-.258-.048a56 56 0 0 1-2.097-.487l-.074-.022q-.472-.117-.944-.244l-.277-.084c-.243-.067-.49-.14-.73-.21l-.339-.104-.66-.21c-.122-.037-.243-.085-.365-.125-.206-.074-.413-.137-.62-.21-.125-.048-.257-.093-.383-.14-.199-.074-.39-.148-.59-.222a6 6 0 0 0-.39-.147c-.185-.081-.373-.155-.56-.236l-.4-.166q-.27-.117-.54-.24l-.392-.18-.534-.255q-.194-.098-.388-.191c-.17-.089-.346-.177-.516-.266-.129-.074-.258-.136-.383-.206q-.256-.14-.505-.284c-.122-.07-.247-.144-.373-.214-.166-.1-.335-.203-.498-.306l-.357-.218c-.17-.11-.336-.217-.505-.335-.107-.07-.214-.144-.325-.214-.176-.13-.36-.258-.541-.39l-.261-.193a21 21 0 0 1-.783-.608s-.265.84-.271 2.297c-.011 2.61.788 7.208 5.397 12.558 7.179 8.336 9.224 10.898 10.763 16.023l.084.218.026.055.118.203.004.01.162.218.044.06.177.191.022.033.225.214.07.06.225.187.044.037q.14.105.292.21l.084.063.27.18.074.049c.106.066.228.136.346.21l.107.062c.096.056.202.111.302.166l.104.056c.121.07.257.14.394.206l.126.066c.11.056.224.107.339.163l.129.062q.214.101.445.196l.148.07c.117.048.24.1.358.151l.159.067c.158.066.32.125.486.191l.162.063c.13.052.262.107.391.147l.185.074q.26.095.52.184l.184.063q.204.067.413.14l.206.067.56.18.192.063c.144.044.292.092.435.133l.229.07c.195.059.394.11.59.17l.199.055c.155.048.31.088.468.129l.243.062q.306.084.624.166l.188.048c.166.04.335.085.501.126l.254.062.612.144.222.048.043.007a341 341 0 0 0-2.551-18.622v-.015"/><path fill="#fff" d="M31.854 244.218l.13.173.022.026.166.188.022.026.195.191.052.041.221.184.03.022.283.214.089.06.25.165.067.044c.107.067.214.133.332.203l.11.06c.089.054.181.11.288.161l.096.056.387.203.125.062c.107.052.214.1.325.159l.129.059.431.195.148.063c.114.051.235.103.354.151l.154.063c.152.066.314.129.476.191l.162.067q.19.067.384.14l.18.07c.174.063.343.125.52.184l.18.063q.202.067.406.14l.2.066.556.177.848.262c.196.055.387.114.59.166l.196.06c.147.04.306.08.46.124l.24.063c.207.056.41.11.62.162l.188.048q.248.066.497.126l.254.062.17.04a333 333 0 0 0-2.474-17.877v-.037l-.022-.273v-.037c.011-1.305.49-2.562 1.43-3.734.325-.406.72-.819 1.17-1.22.715-.639 1.588-1.265 2.595-1.87.39-.232.815-.472 1.246-.697a41 41 0 0 1 4.133-1.847l-.276.011c-.214.015-.435.026-.653.037l-.387.015q-.343.015-.693.022l-.365.015c-.25.01-.516.018-.774.022l-.295.01c-.399.008-.804.012-1.21.02q-.49.004-.977.003l-1.275-.011c-.266-.004-.528-.004-.793-.011l-.398-.011a35 35 0 0 1-.653-.019l-.438-.018a18 18 0 0 1-.62-.022l-.453-.026c-.207-.004-.41-.019-.612-.026l-.461-.03c-.218-.01-.413-.03-.612-.04l-.435-.037c-.225-.015-.432-.03-.635-.048l-.464-.04q-.309-.027-.616-.06l-.453-.043c-.21-.023-.417-.049-.63-.07-.145-.019-.296-.034-.443-.052-.21-.026-.42-.056-.634-.081l-.435-.06c-.218-.025-.436-.062-.65-.092l-.42-.058c-.225-.037-.45-.07-.67-.111l-.395-.063c-.24-.04-.472-.085-.712-.125l-.35-.067a29 29 0 0 0-.79-.154l-.265-.056a49 49 0 0 1-2.117-.486l-.043-.015c-.35-.092-.668-.17-.985-.262l-.28-.078a30 30 0 0 1-.74-.218l-.34-.106c-.225-.07-.45-.136-.668-.207l-.372-.128c-.21-.07-.42-.137-.623-.214l-.39-.141a21 21 0 0 1-.594-.224c-.133-.053-.266-.1-.398-.155-.192-.078-.384-.152-.572-.233-.132-.056-.27-.112-.402-.17-.184-.086-.369-.162-.546-.244l-.405-.181c-.178-.085-.358-.177-.535-.263q-.2-.097-.394-.194c-.177-.093-.355-.181-.531-.273l-.07-.037q-.15-.083-.317-.17a14 14 0 0 1-.509-.287l-.096-.056-.284-.158c-.17-.103-.335-.207-.505-.31l-.114-.07-.25-.158q-.233-.147-.458-.302l-.177-.112-.214-.147a24 24 0 0 1-.553-.399l-.103-.073-.166-.118-.136-.103c-.048.355-.093.82-.096 1.376-.015 2.769.885 7.137 5.272 12.23 7.153 8.306 9.284 10.939 10.866 16.212l.059.147-.45.244.475-.191.078.143zm12.12 6.153l-.119-.01.118-.502-.136.494-.243-.059c-.207-.04-.41-.096-.616-.144l-.258-.063c-.17-.04-.336-.077-.505-.121l-.192-.048c-.214-.055-.42-.111-.627-.162l-.25-.074q-.232-.06-.469-.125l-.199-.06c-.199-.055-.402-.11-.593-.17l-.863-.26-.572-.185-.206-.07a8 8 0 0 1-.417-.144l-.184-.06c-.18-.065-.361-.125-.53-.19l-.193-.07c-.125-.049-.258-.097-.387-.148l-.17-.067a19 19 0 0 1-.493-.195l-.159-.07-.372-.151-.152-.07a17 17 0 0 1-.45-.207l-.128-.062c-.122-.052-.233-.111-.343-.163l-.133-.066q-.215-.111-.413-.21l-.103-.06c-.103-.055-.207-.117-.31-.176l-.114-.063a16 16 0 0 1-.365-.221l-.04-.033c-.13-.074-.218-.14-.314-.203l-.092-.067a5 5 0 0 1-.306-.228l-.033-.026-.258-.217-.078-.063-.247-.24-.03-.026-.195-.22-.052-.063-.191-.262-.015-.026-.137-.243-.04-.078-.103-.273c-1.523-5.077-3.62-7.661-10.663-15.84-4.59-5.332-5.534-9.954-5.52-12.897.008-1.511.28-2.41.292-2.445a.5.5 0 0 1 .343-.336.5.5 0 0 1 .472.089q.374.31.767.596l.147.107.107.078.535.383.202.137.174.117c.147.096.291.192.442.288l.236.148.107.066.494.302.27.151.095.06c.166.088.328.184.498.272q.15.089.306.17l.07.033q.255.138.509.266c.125.066.25.122.376.191q.269.121.527.247.194.088.387.181c.177.078.358.155.535.237.133.052.262.11.39.161q.277.117.557.225c.13.055.258.103.387.155.188.074.388.147.58.217l.383.137c.195.07.402.14.604.21l.366.122.645.206.339.103q.36.111.723.21l.272.078c.309.088.62.166.933.247l.048.015c.697.177 1.393.331 2.102.483l.258.051c.261.056.516.107.774.159l.346.059q.352.067.7.129l.391.063c.213.033.435.073.657.103l.413.066c.213.03.424.063.637.089l.43.059.624.077q.222.027.444.049c.206.026.408.052.612.066l.453.052c.2.019.406.036.609.056l.453.036q.3.03.605.049l.453.036.586.04.472.026q.3.022.605.033l.45.023q.305.016.608.026l.435.014c.214.01.432.014.642.023l.398.007.778.01 1.246.007c.347 0 .668 0 .992-.004q.597-.005 1.195-.018l.29-.004.771-.022.358-.015c.236-.007.46-.014.69-.025l.38-.019c.217-.007.438-.018.648-.033l.376-.015c.225-.014.432-.025.638-.036l1.39-.093c.192-.014.39-.026.579-.044l.387-.03.575-.044.037-.003a.523.523 0 0 1 .564.405.495.495 0 0 1-.332.586l-.258.085c-2.898.948-5.346 1.943-7.281 2.957-.42.221-.823.447-1.199.671a15.7 15.7 0 0 0-2.437 1.755q-.621.548-1.055 1.092c-.804 1.007-1.198 2.017-1.206 3.1v.034l.011.129.004.033a337 337 0 0 1 2.551 18.633.515.515 0 0 1-.508.565"/><path fill="#100f0d" d="M221.908 231.01l-.067.118-.166.166v.004l-.21.151-.037.022-.265.144-.044.026c-.104.048-.21.1-.332.144-.25.1-.531.199-.856.295a20 20 0 0 1-1.076.28 40 40 0 0 1-2.02.41c-5 .873-13.38 1.58-23.84 2.12-.277.018-.56.032-.837.047l-.58.026q-.432.028-.866.04c-16.384.79-37.378 1.18-58.371 1.18-20.997 0-41.99-.39-58.38-1.18a23 23 0 0 1-.862-.04c-.192-.008-.387-.019-.575-.026-.28-.015-.564-.03-.84-.048-.587-.026-1.162-.059-1.73-.085l-.129-.01c-.538-.03-1.073-.056-1.6-.09l-.207-.01a89 89 0 0 1-1.511-.1l-.247-.007q-.732-.049-1.453-.092l-.236-.015c-.48-.033-.955-.07-1.423-.1l-.207-.015q-.711-.044-1.4-.099l-.166-.01q-.706-.055-1.39-.111l-.107-.004c-.952-.082-1.87-.158-2.754-.24l-.093-.007c-.42-.036-.833-.078-1.238-.115l-.148-.01q-.585-.065-1.15-.118l-.17-.02c-.372-.04-.73-.08-1.087-.117l-.162-.022a39 39 0 0 1-1.033-.115l-.158-.026q-.5-.055-.978-.118l-.132-.018c-.32-.044-.638-.089-.944-.133l-.089-.01c-.313-.049-.615-.093-.91-.14l-.011-.005c-.343-.051-.671-.107-.98-.158a40 40 0 0 1-2.014-.41q-.291-.065-.56-.136l-.041-.01c-.17-.04-.328-.09-.483-.133l-.048-.023a4 4 0 0 1-.428-.132l-.044-.014c-.133-.048-.258-.092-.372-.144l-.03-.007q-.178-.077-.328-.148l-.007-.003q-.466-.237-.65-.484l-.065-.114c.191 1.15.383 2.353.575 3.601a331 331 0 0 1 2.035 15.552c.048.472.1.951.143 1.427.428 4.232.76 8.513.941 12.609 0 0 .678 4.977 12.54 6.312.161.018.328.04.497.055l.177.015q.178.022.355.037l.228.022.332.033.27.022q.163.014.335.026l.276.026.359.026q.15.015.306.026l.355.03c.114.007.224.014.339.018l.361.03c.118.01.232.018.35.025.125.003.254.015.383.026l.365.022c.129.011.266.015.395.027.132.003.257.014.391.026.132.007.27.01.402.022.135.01.27.014.401.026.119.007.237.01.359.02q.465.028.95.051l.362.022c.162.012.325.015.487.023l.405.022q.272.015.542.025l.366.023.575.026c.125.007.247.01.372.018.188.011.387.022.579.03q.199.002.398.014.3.018.597.026c.13.007.255.011.387.019q.315.015.63.025c.126.008.255.011.377.015q.339.015.678.026c.104.007.214.015.321.015.247.007.494.022.745.033l.265.007c.27.008.542.022.823.033h.025c1.353.048 2.762.1 4.215.148l.206.007c.306.008.612.022.918.03l.266.007c.31.011.615.022.925.026l.269.007c.313.015.63.022.944.03l.28.007c.313.015.623.022.937.03.1.007.202.007.306.01.324.008.656.016.984.027l.195.007c.358.011.716.015 1.073.026l.14.011c2.85.07 5.833.14 8.912.203l.147.003c.391.008.79.019 1.187.026l.207.004c.402.01.8.018 1.206.026h.154c.417.01.834.014 1.254.026h.129c2.293.047 4.638.08 7.02.118q3.573.056 7.234.095h.01q.72.013 1.45.015h.044c1.637.022 3.285.037 4.94.055 3.304.023 6.64.052 9.977.067h.03q.721.004 1.441.003h.096c.483.004.963.008 1.453.008h.015q.741.005 1.482.004h.037q2.66.01 5.301.01h1.667c.944 0 1.88 0 2.817-.003h.49c1.01 0 2.017-.007 3.02-.011h.1c1.072-.008 2.134-.008 3.196-.015l.262-.003c.907-.004 1.81-.004 2.713-.015.244 0 .494-.004.741-.004.763-.007 1.516-.011 2.268-.019l.778-.007q1.454-.013 2.89-.03h.096q.648-.005 1.294-.018h.074q.656-.004 1.3-.015h.06q4.094-.055 7.95-.129h.033q.598-.015 1.19-.025l.163-.004 1.054-.022.233-.008q.5 0 .991-.022h.233l.988-.026.222-.003c.343-.011.678-.019 1.017-.026l.159-.004c1.186-.03 2.357-.066 3.49-.103h.042l1.061-.033.18-.008c.303-.007.594-.018.893-.03l.27-.006q.396-.017.788-.026c.104-.008.2-.011.306-.011.244-.015.498-.023.741-.03q.157-.009.318-.007c.24-.015.478-.022.71-.034l.3-.01c.25-.012.486-.02.726-.03l.284-.011c.25-.011.501-.026.748-.033l.221-.012a80 80 0 0 1 .896-.036l.06-.004q.48-.026.96-.048l.034-.004.873-.044.195-.01a45 45 0 0 0 .681-.037l.273-.015c.195-.007.388-.023.583-.033l.296-.02c.184-.006.354-.018.539-.029l.313-.022c.17-.007.332-.022.494-.03q.155-.011.313-.018c.158-.014.322-.022.48-.033.099-.007.207-.018.302-.022l.468-.033.284-.022c.161-.011.328-.026.487-.037l.24-.019c.203-.014.405-.036.608-.051l.086-.004q.347-.032.678-.059l.158-.018.487-.045.224-.022c.129-.01.263-.025.392-.037l.236-.025c.122-.012.235-.026.35-.037l.238-.026c.106-.015.217-.03.322-.037l.233-.033.306-.033.214-.03.295-.04.199-.03.283-.04.181-.03.287-.044.148-.026c.128-.022.266-.04.391-.07 9.372-1.762 12.555-6.312 12.555-6.312.174-4.096.504-8.384.929-12.61q.076-.719.147-1.425c.58-5.49 1.301-10.844 2.035-15.564.188-1.246.383-2.448.572-3.59"/><path fill="#fff" d="M165.212 271.905l.059.513-.004-.513c2.784-.037 5.457-.077 7.945-.129h.034l6.245-.144c1.187-.03 2.353-.059 3.488-.095l15.61-.745.727-.055c.203-.015.402-.037.601-.048l.096-.008.67-.059 4.078-.475.424-.067c.137-.026.266-.044.391-.07 8.211-1.541 11.588-5.298 12.145-5.995.17-3.808.476-8.004.922-12.48l.151-1.423a326 326 0 0 1 2.032-15.585q.188-1.211.372-2.356l-.218.092c-.265.103-.571.207-.9.306a22 22 0 0 1-1.11.291c-.6.14-1.286.28-2.045.413-4.816.841-12.86 1.564-23.903 2.131l-2.286.111c-15.86.763-36.604 1.18-58.397 1.18-21.797 0-42.536-.417-58.401-1.18l-2.286-.11c-.579-.03-1.158-.06-1.725-.093l-.13-.007q-.808-.04-1.6-.092l-.21-.008q-.767-.05-1.512-.088l-.243-.019q-.74-.05-1.463-.095l-.23-.011c-.482-.037-.958-.067-1.426-.104l-.21-.01-1.401-.1-.166-.015a79 79 0 0 1-1.394-.107l-.103-.007a176 176 0 0 1-2.761-.236l-.092-.004-1.243-.118-.147-.018-1.155-.111-.173-.019-1.087-.118-.155-.025-1.044-.115-.162-.022c-.332-.04-.664-.085-.98-.122l-.133-.018c-.32-.044-.642-.092-.948-.13l-.055-.01c-.35-.048-.66-.1-.952-.144-.357-.055-.685-.11-1.002-.166a35 35 0 0 1-2.614-.553l-.045-.011a11 11 0 0 1-.494-.14l-.051-.015a27 27 0 0 0-.446-.143l-.041-.019a6 6 0 0 1-.406-.147l-.173-.074q.185 1.146.376 2.36a346 346 0 0 1 2.036 15.58c.044.472.099.952.143 1.424.457 4.516.77 8.76.94 12.609.063.284 1.187 4.634 12.09 5.862.154.015.32.037.49.052l6.71.497c.314.019.63.034.952.056l8.896.398c1.38.052 2.784.103 4.236.147l7.445.222c2.842.07 5.836.147 8.907.206l4.284.085c2.297.04 4.639.077 7.016.114 2.382.045 4.793.07 7.234.1l1.46.018.037.516.004-.516c1.637.015 3.289.033 4.944.048 3.304.033 6.637.052 9.97.07l4.557.015c1.77.007 3.535.007 5.294.011h1.67c.948 0 1.877-.004 2.82-.004h.488c1.013-.003 2.013-.007 3.019-.007h.1c1.069-.004 2.134-.015 3.196-.015h.258c.907-.007 1.814-.011 2.714-.022l3.778-.033a368 368 0 0 0 2.898-.026zm-22.41 1.165h-1.3q-2.64 0-5.3-.007l-4.527-.019q-5.05-.021-10.006-.066c-1.655-.018-3.307-.033-4.944-.052h-.045l-1.449-.014c-2.447-.03-4.862-.067-7.244-.1-2.378-.03-4.723-.074-7.024-.114l-4.284-.089c-3.068-.059-6.065-.136-8.911-.206l-7.452-.218c-1.452-.051-2.86-.103-4.214-.15l-8.94-.403-.956-.051-6.758-.505q-.26-.024-.497-.052c-12.12-1.368-12.964-6.537-12.993-6.75l-.004-.049c-.17-3.845-.483-8.078-.936-12.587q-.071-.713-.148-1.42a333 333 0 0 0-2.607-19.127.515.515 0 0 1 .354-.572.514.514 0 0 1 .616.28l.022.026c.037.048.148.166.461.325l.302.136.033.011q.157.064.34.13l.047.01c.126.048.259.089.403.133l-.096.509.144-.494q.227.072.468.132l-.088.505.132-.494q.255.072.54.133c.578.137 1.246.27 1.987.402q.466.08.97.159c.306.047.608.096.917.143l.093.008q.454.072.936.132l.133.015q.47.065.973.125l.159.02q.5.06 1.02.117l.166.022c.355.04.711.078 1.08.114l.174.023c.372.037.756.073 1.148.118l.147.01c.406.038.816.078 1.239.115l.085.007q1.328.123 2.751.236l.106.004q.681.056 1.39.11l.154.012c.468.037.933.066 1.409.1l.21.018q.7.045 1.42.096l.233.014q.716.05 1.456.093l.243.018c.497.03.997.059 1.508.085l.21.014c.527.034 1.063.063 1.597.093l.128.003c.564.03 1.143.063 1.722.093l2.285.114c15.847.756 36.57 1.176 58.35 1.176 21.782 0 42.502-.42 58.349-1.176l2.278-.114c11.002-.568 19.003-1.28 23.781-2.117a38 38 0 0 0 1.988-.402q.581-.133 1.05-.273a10 10 0 0 0 .807-.276q.165-.066.303-.133l.049-.022.217-.121.18-.13.011-.003.073-.081a.524.524 0 0 1 .62-.292c.246.074.408.31.368.56a333 333 0 0 0-2.603 19.124c-.049.477-.1.948-.148 1.424-.45 4.52-.767 8.753-.929 12.584l-.092.272c-.132.192-3.407 4.746-12.874 6.526-.133.022-.265.048-.407.07l-3.321.428-1.268.126c-.222.025-.45.04-.678.062h-.096c-.192.022-.402.037-.608.052l-5.08.339-9.119.394-2.142.067h-.037q-1.71.055-3.491.103l-6.257.14-.044-.509.01.509c-2.488.052-5.165.092-7.952.13h-.055l-2.77.032c-.958.011-1.92.026-2.89.03l-3.79.033c-.9.004-1.806.007-2.71.015l-.265.003c-1.055.004-2.131.012-3.2.012h-.096l-3.02.01h-.49c-.94.004-1.874.004-2.82.004z"/><path fill="#100f0d" d="M248.962 209.462c-2.245-2.61-6.437-4.616-12.52-5.988-4.569-1.025-8.916-1.408-10.858-1.534 3.266-3.771 13.132-14.449 20.72-15.304l-.509 13.17 12.838 3.44zm-4.711 18.516c-7.172 8.34-9.225 10.898-10.759 16.027l-.085.213-.026.056-.117.206-.008.011-.158.218-.048.055-.173.196-.023.025-.228.218-.067.063-.225.184-.048.037-.287.21-.089.063-.265.18-.078.045q-.162.104-.346.214l-.103.066q-.15.078-.306.162l-.096.055c-.13.07-.266.144-.398.207l-.133.063c-.11.059-.221.11-.336.166l-.129.059c-.14.066-.29.136-.442.199l-.144.07c-.125.051-.24.1-.365.15l-.155.067c-.162.067-.32.13-.49.192l-.162.066c-.13.048-.262.1-.391.144l-.181.074q-.26.094-.527.188l-.177.059q-.208.073-.417.14l-.206.07c-.184.055-.365.118-.557.184l-.192.06c-.147.044-.287.088-.438.132l-.229.066c-.192.06-.387.111-.59.17l-.199.055c-.147.048-.31.089-.464.13l-.24.066-.627.162-.192.048c-.166.04-.335.085-.505.122l-.247.066-.616.144-.217.044-.048.011c.811-7.57 1.85-14.357 2.551-18.622v-.015l.019-.207v-.045q-.01-1.774-1.32-3.41a9 9 0 0 0-1.113-1.155c-.686-.623-1.523-1.224-2.511-1.814a29 29 0 0 0-1.22-.682q-2.958-1.554-7.36-2.986l-.265-.089.07.007.579.044c.129.014.25.022.38.033.198.014.394.033.593.044.13.007.262.019.39.025q.301.024.605.04.2.009.395.027c.206.01.413.019.623.037.137.007.262.01.395.018.217.011.438.02.652.03.133.007.258.01.384.019q.343.015.693.026l.361.014c.254.007.513.01.778.02l.28.006c.406.007.804.02 1.21.023.32 0 .648.007.973.007h.022c.144 0 .284-.007.424-.007h.531q.149-.005.291-.004c.262-.003.52-.01.785-.014l.399-.01c.217-.008.43-.008.649-.02.143-.003.29-.01.435-.013q.31-.01.619-.026l.45-.023.608-.033c.155-.004.303-.02.458-.03q.302-.014.6-.04c.155-.007.314-.019.461-.033.207-.014.406-.03.609-.048.154-.01.306-.03.464-.04.2-.02.402-.033.605-.06q.226-.014.453-.048.31-.03.62-.063c.154-.019.294-.033.446-.052.21-.022.42-.052.627-.078.143-.023.29-.04.438-.06.207-.032.424-.065.642-.091.14-.023.276-.04.416-.06q.333-.055.664-.106.199-.031.39-.07c.24-.036.47-.08.709-.12.11-.027.232-.044.343-.064l.785-.158.262-.055c.704-.145 1.4-.31 2.094-.48l.074-.023c.317-.081.63-.162.947-.247l.277-.081c.243-.07.483-.14.73-.214l.339-.103.66-.21c.122-.037.243-.086.365-.122.206-.074.413-.14.62-.214q.186-.07.38-.14c.198-.074.39-.144.585-.218.137-.055.262-.107.391-.151l.568-.232q.198-.089.394-.17.276-.117.546-.24c.13-.062.266-.121.391-.18.18-.081.358-.17.53-.255a10 10 0 0 0 .388-.191c.177-.089.346-.177.52-.266.125-.07.25-.133.38-.21.173-.089.335-.184.508-.28.126-.074.247-.14.369-.214q.253-.15.502-.306c.114-.07.24-.144.35-.218.177-.114.343-.22.512-.339q.16-.099.321-.21c.188-.13.365-.262.546-.394l.265-.185c.262-.203.524-.402.778-.612 0 0 .262.84.27 2.293.014 2.61-.786 7.208-5.398 12.562m-24.95 22.184c-.048.48-.096.951-.151 1.427-.42 4.229-.749 8.513-.922 12.613 0 0-3.185 4.55-12.554 6.312q-.2.038-.394.07l-.148.026-.287.044-.181.033-.284.04-.2.027c-.095.01-.194.026-.294.04l-.214.026c-.1.011-.195.022-.306.037l-.232.03q-.155.014-.321.036l-.24.026c-.118.015-.228.026-.346.037l-.24.026c-.129.01-.262.025-.39.04l-.226.022c-.158.012-.32.03-.48.045l-.165.014c-.221.023-.446.04-.678.06l-.085.007c-.203.01-.402.033-.605.048l-.24.018c-.162.011-.328.03-.494.04l-.282.02c-.155.01-.31.025-.469.036a9 9 0 0 0-.3.018q-.241.018-.481.033-.16.014-.313.015c-.166.015-.325.03-.494.034-.103.007-.21.018-.314.022-.184.01-.354.022-.538.033l-.295.018-.587.033-.272.012c-.222.014-.447.029-.675.036l-.203.015-.87.044-.037.004c-.317.01-.634.03-.958.044l-.06.003q-.442.024-.892.04l-.217.008c-.25.01-.505.026-.756.033l-.283.01-.719.034-.302.01-.715.03-.317.01c-.243.008-.497.015-.741.027q-.15.01-.306.014a47 47 0 0 0-.79.026l-.269.007-.892.033-.18.004c-.355.01-.705.022-1.062.033h-.04c-1.136.037-2.305.07-3.49.1l-.16.003q-.502.016-1.017.026l-.221.007c-.328.004-.656.019-.988.022l-.233.004a87 87 0 0 1-.991.026h-.233q-.524.016-1.054.026l-.162.004q-.593.01-1.191.025h-.033q-3.856.073-7.95.13h-.055c-.435.003-.866.01-1.305.014h-.07c-.431.004-.866.007-1.298.019h-.096q-1.436.013-2.89.03l-.778.003-2.268.022c-.25 0-.497.004-.74.004-.904.007-1.807.01-2.714.018h-.262c-1.062.004-2.127.004-3.197.015h-.099c-1.003 0-2.01.007-3.02.007-.166 0-.328.008-.49.008h-4.479c-1.77 0-3.533 0-5.306-.011h-.037c-.49-.004-.988-.004-1.482-.004h-.019c-.486 0-.966-.004-1.452-.011h-.093q-.72.001-1.441-.004h-.03a2160 2160 0 0 1-14.917-.114h-.044l-1.45-.019h-.01a2115 2115 0 0 1-14.254-.213l-.129-.004c-.42-.011-.837-.015-1.254-.022l-.154-.004-1.206-.022-.207-.004q-.599-.011-1.187-.03h-.147c-3.079-.062-6.062-.136-8.911-.206l-.137-.007c-.361-.011-.723-.015-1.073-.026l-.199-.007c-.328-.012-.66-.019-.98-.026-.108-.008-.21-.008-.314-.011q-.464-.01-.933-.026l-.28-.011a75 75 0 0 1-.944-.03l-.269-.007-.925-.026-.266-.007c-.306-.011-.616-.023-.918-.03l-.206-.007a833 833 0 0 1-4.215-.148h-.018a34 34 0 0 0-.83-.033l-.265-.007c-.25-.014-.498-.022-.745-.037a5 5 0 0 1-.32-.01 36 36 0 0 1-.683-.026l-.372-.016a16 16 0 0 1-.63-.03c-.133-.003-.259-.01-.388-.013-.199-.008-.401-.02-.597-.026q-.199-.012-.398-.02-.29-.01-.579-.029c-.125-.007-.247-.01-.372-.018-.196-.011-.387-.011-.575-.026l-.362-.022a13 13 0 0 1-.545-.023 8 8 0 0 0-.406-.018c-.162-.015-.328-.015-.487-.03-.121-.007-.24-.01-.361-.018l-.951-.055c-.118-.008-.24-.011-.358-.022-.133-.008-.266-.011-.398-.022-.137-.004-.273-.015-.406-.022-.132-.012-.261-.015-.39-.027-.13-.007-.266-.014-.395-.025-.122-.004-.243-.015-.365-.023l-.384-.026a10 10 0 0 1-.35-.025 12 12 0 0 1-.365-.026c-.114-.008-.22-.011-.335-.023-.118-.01-.236-.014-.354-.025-.104-.008-.207-.02-.306-.023-.122-.014-.24-.022-.355-.033l-.28-.019a6 6 0 0 0-.336-.033l-.269-.022q-.163-.014-.328-.033l-.233-.019a5 5 0 0 1-.35-.036l-.18-.015q-.256-.03-.495-.056c-11.864-1.334-12.543-6.311-12.543-6.311-.177-4.1-.512-8.38-.94-12.614-.044-.471-.096-.947-.145-1.426a335 335 0 0 0-2.034-15.555 216 216 0 0 0-.58-3.595l.07.11q.184.248.65.484l.003.004q.155.075.332.15l.03.012q.172.07.372.14l.044.01c.132.053.276.097.427.141l.048.015c.155.048.314.092.487.136l.037.01q.269.072.56.137.89.209 2.014.405.476.084.991.166c.296.048.598.092.915.136l.085.011q.46.072.944.133l.132.018c.314.044.65.082.978.122l.162.022q.497.062 1.028.118l.162.019 1.087.122.17.014 1.15.118.148.011q.609.062 1.238.118l.093.007c.881.078 1.803.159 2.75.237l.111.007c.457.033.918.07 1.394.11l.158.008c.465.037.929.07 1.405.103l.203.015c.472.03.951.066 1.431.095l.233.015c.48.033.962.059 1.456.096l.243.01c.498.034 1 .063 1.508.097l.21.01q.796.046 1.6.085l.13.012c.567.025 1.142.062 1.725.092.28.007.563.03.844.044.188.007.383.018.575.026.291.01.579.03.862.044 16.389.781 37.383 1.172 58.376 1.172 20.997 0 41.99-.391 58.375-1.172.288-.015.58-.034.863-.044.195-.008.391-.02.575-.026.286-.015.568-.037.844-.044 10.464-.543 18.84-1.25 23.84-2.128a35 35 0 0 0 2.02-.405c.395-.096.754-.185 1.077-.28s.612-.196.856-.295c.121-.049.228-.096.332-.144l.048-.022.263-.148.036-.026.21-.151h.004l.162-.17.066-.114a293 293 0 0 0-.572 3.59 333 333 0 0 0-2.035 15.56m-175.373-.318l-.22-.043-.613-.145-.254-.066c-.165-.037-.335-.081-.501-.121l-.188-.049c-.21-.055-.42-.106-.622-.162l-.244-.066a9 9 0 0 1-.464-.129l-.2-.055c-.198-.06-.398-.111-.593-.17l-.228-.067-.435-.132-.192-.06q-.283-.099-.56-.183l-.207-.07c-.136-.045-.28-.093-.413-.14l-.184-.06-.52-.188-.184-.073c-.13-.044-.262-.096-.391-.144l-.162-.066a16 16 0 0 1-.487-.192l-.159-.066c-.118-.052-.24-.1-.357-.152l-.148-.07c-.155-.062-.298-.132-.446-.198l-.13-.06c-.114-.055-.224-.106-.338-.165l-.126-.063c-.136-.063-.265-.136-.394-.206l-.103-.056c-.1-.055-.207-.11-.303-.162l-.107-.066c-.118-.074-.237-.144-.346-.214l-.074-.044-.269-.181-.085-.063-.292-.21-.044-.037-.224-.184-.067-.063-.228-.218-.022-.025-.177-.196-.045-.055-.162-.218-.003-.01-.118-.207-.026-.055-.085-.214c-1.537-5.129-3.584-7.688-10.762-16.027-4.605-5.354-5.409-9.951-5.398-12.562.007-1.452.273-2.293.273-2.293.254.21.516.409.782.612l.26.188c.182.129.359.262.543.39q.165.112.325.211c.17.118.34.225.508.34.119.073.233.147.354.217q.25.157.498.306c.126.073.25.14.373.214q.249.145.504.28c.125.077.254.14.383.21.169.088.346.177.516.265.13.063.258.13.388.192.177.085.353.173.534.255q.196.087.391.18a34 34 0 0 0 .941.41q.283.115.56.232.2.067.395.151.292.11.586.217c.125.049.257.093.383.14.206.074.412.141.619.211.122.04.243.089.365.125l.66.21c.114.034.224.07.339.104q.362.11.734.214l.272.08q.473.128.944.248l.079.022c.688.17 1.39.336 2.094.48l.257.055c.266.052.524.107.786.159.118.018.231.036.35.062.233.04.464.085.7.122q.201.038.395.07c.225.033.443.07.665.106.139.02.28.037.415.06.214.025.428.059.642.092.144.018.296.036.438.059.207.026.416.055.627.078l.445.051c.204.023.413.044.616.063q.231.032.457.048c.203.026.405.04.609.06.151.01.306.029.46.04q.306.026.606.048.23.022.46.033.305.027.61.04c.15.011.302.026.453.03l.612.033.446.022c.206.011.408.019.619.026l.431.015c.22.01.431.01.649.018l.402.011.786.015.29.003h.527c.14 0 .284.008.428.008h.018c.328 0 .649-.008.974-.008.405-.003.807-.014 1.209-.022l.287-.007c.261-.008.516-.011.774-.02.125-.003.24-.01.365-.014q.348-.01.686-.025c.129-.008.258-.011.387-.02.221-.01.435-.018.653-.029.132-.007.262-.01.39-.018.211-.019.417-.026.623-.037.133-.01.273-.022.402-.026.203-.01.402-.026.594-.04q.21-.012.402-.03c.199-.007.39-.026.582-.04.133-.011.258-.019.391-.033l.572-.044.073-.008-.265.09c-2.935.954-5.383 1.95-7.355 2.985a27 27 0 0 0-1.228.682c-.985.59-1.822 1.191-2.515 1.814a9.5 9.5 0 0 0-1.11 1.155c-.873 1.091-1.308 2.226-1.32 3.414v.04l.019.207v.015a341 341 0 0 1 2.551 18.622l-.043-.01m-37.887-46.6l12.845-3.44-.513-13.17c7.588.855 17.45 11.533 20.72 15.305-1.942.125-6.293.508-10.857 1.533-6.08 1.372-10.272 3.378-12.525 5.988zm34.565 1.412l4.383 15.216c-12.867-.103-22.567-2.732-28.83-7.809a1.3 1.3 0 0 0-.4-.225 6 6 0 0 1 .296-.534q.358-.573.826-1.092c5.678-6.293 23.32-6.968 23.32-6.968zm25.65 14.715h.003l.266-.056a52 52 0 0 1 1.283-.25l.133-.026 4.177 14.504c-.254-.01-.513-.026-.767-.04-23.253-1.217-26.874-2.813-27.416-3.212a1.36 1.36 0 0 0-.895-.615c.254-.62.675-1.217 1.22-1.788a11 11 0 0 1 1.287-1.12q.559-.417 1.195-.812.583-.361 1.22-.7c5.727-3.086 14.61-5.129 18.296-5.884m130.477-.333s.56.1 1.493.292l.192.04h.004c.807.165 1.862.39 3.086.678l.03.011q.504.117 1.043.25l.177.041q.193.05.39.096l.026.007q.27.072.557.144h.004c.191.055.39.1.586.155l.133.037c.361.092.73.191 1.091.29l.052.015a82 82 0 0 1 1.85.535l.012.003c2.783.834 5.681 1.859 8.148 3.053l.254.126a26 26 0 0 1 2.076 1.142c.42.262.822.535 1.194.811.483.365.915.738 1.287 1.12.546.573.97 1.17 1.22 1.789-.365.07-.696.291-.895.62-.546.394-4.163 1.994-27.42 3.207-.255.014-.51.03-.767.04l4.177-14.504zm27.342-14.382l.402-1.412s17.642.674 23.32 6.968q.47.518.826 1.092c.107.173.203.354.288.534a1.5 1.5 0 0 0-.395.225c-6.264 5.077-15.961 7.706-28.832 7.809zm35.911-1.619a1.38 1.38 0 0 0-.995-1.113l-11.795-3.156.472-12.075a1.374 1.374 0 0 0-1.364-1.423l-.155.007c-9.67 1.088-22.206 16.455-22.737 17.108l-.019.036-.099.148-.04.066-.082.203-.015.03-4.892 17.012c-8.705-.056-16.381-1.269-19.615-1.862-.984-.2-1.596-.31-1.68-.329l-.237-.019-.225.02-.066.018-.151.036-.074.037-.133.052-.074.048-.106.074-.074.059-.089.092-.062.073-.078.096-.051.092-.06.107-.033.1-.036.084-4.307 14.955c-15.901.774-36.74 1.202-58.777 1.202-22.03 0-42.872-.428-58.773-1.202l-4.307-14.955-.033-.085-.04-.1-.056-.106-.051-.092-.074-.096-.066-.073-.093-.092-.07-.06-.114-.073-.07-.048-.133-.052-.07-.037-.147-.036-.07-.019-.225-.019-.244.02c-.073.018-.689.128-1.677.331-3.23.59-10.906 1.803-19.611 1.858l-4.9-17.012-.011-.03-.081-.202-.037-.067-.1-.147-.022-.037c-.527-.652-13.063-16.02-22.733-17.107l-.155-.008a1.377 1.377 0 0 0-1.368 1.423l.472 12.075-11.79 3.156a1.371 1.371 0 0 0-.384 2.474l9.597 6.168a7.6 7.6 0 0 0-.918 2.176c-.159.534-2.04 7.48 5.401 16.123 6.95 8.074 9.022 10.622 10.493 15.53.833 2.779 6.375 4.832 10.873 6.068a62 62 0 0 0 3.37.83c.432 4.191.794 8.62.978 12.966l.015.126c.085.616 1.187 6.072 13.741 7.484 10.21 1.155 46.81 2.058 83.318 2.058 15.868 0 53.837-.203 63.755-2.068 9.807-1.844 13.28-6.674 13.424-6.877a1.4 1.4 0 0 0 .243-.726c.18-4.332.535-8.75.966-12.963a64 64 0 0 0 3.37-.83c4.498-1.235 10.036-3.289 10.873-6.069 1.467-4.907 3.535-7.455 10.489-15.53 7.455-8.656 5.56-15.61 5.401-16.126a7.7 7.7 0 0 0-.914-2.172l9.596-6.168c.454-.295.698-.826.612-1.36"/><path fill="#f4a00f" d="M58.654 253.605h1.707c1.522 0 2.558-.907 2.558-2.854 0-1.865-.744-2.934-2.661-2.934h-1.604zm-3.838-8.613h6.717c3.89 0 5.228 2.854 5.228 5.704 0 3.949-2.426 5.733-6.054 5.733h-2.053v7.6h-3.838zm19.913 16.581c2.267 0 2.64-1.946 2.64-7.064 0-5.092-.373-7.064-2.64-7.064s-2.64 1.972-2.64 7.064c0 5.118.372 7.064 2.64 7.064m0-16.952c5.759 0 6.478 4.103 6.478 9.888 0 5.789-.72 9.888-6.478 9.888-5.76 0-6.478-4.1-6.478-9.888 0-5.785.719-9.888 6.478-9.888m12.584 8.686h1.596c1.84 0 2.88-.796 2.88-2.85 0-1.759-.933-2.64-2.666-2.64h-1.81zm-3.842-8.314h7.094c3.144 0 5.062 1.652 5.062 4.903 0 2.533-1.014 4.24-3.17 4.694v.055c2.613.343 3.011 1.785 3.063 5.807.03 2.002.133 3.038.855 3.414v.162h-4.158c-.373-.538-.454-1.253-.48-2.002l-.107-3.65c-.055-1.493-.723-2.4-2.267-2.4h-2.05v8.052H83.47zm25.484-.001v3.15h-4.159v15.886h-3.838v-15.887h-4.159v-3.149zm10.905 0l2.687 14.077h.085l2.824-14.077h3.971l-4.376 19.036h-4.926l-4.369-19.036zm14.205 11.862h3.732l-1.84-8.554h-.056zm-.508-11.86h4.745l5.04 19.031h-3.997l-.881-4.026h-5.066l-.878 4.026h-4.004zm11.116 19.032v-19.032h3.838v15.886h6.798v3.146zm22.977-19.034v3.15h-6.798v4.475h6.4v3.145h-6.4v5.121h7.068v3.145h-10.906v-19.036zm8.583 0h10.636v3.15h-6.795v4.475h6.397v3.145h-6.397v8.266h-3.842zm13.008 19.033h-3.517v-4.16h3.517zm10.901-12.609c0-2.772-.557-3.97-2.29-3.97-1.946 0-2.4 1.95-2.4 7.333 0 5.755.8 6.795 2.455 6.795 1.383 0 2.397-.72 2.397-4.827h3.834c0 4.108-1.01 7.65-6.05 7.65-5.755 0-6.474-4.1-6.474-9.887 0-5.782.719-9.889 6.474-9.889 5.494 0 5.9 4.023 5.9 6.795zm9.812 12.609h-3.517v-4.16h3.517zm-92.58-256.21c-1.77.921-3.244 2.042-4.089 3.395-.97 1.545-1.036 3.304-.206 5.387.973 2.437 2.393 3.89 4.35 4.443 3.275.921 7.592-.834 10.541-2.482-3.2-1.71-8.026-5.077-10.596-10.743m2.02 17.037a10.8 10.8 0 0 1-2.93-.387c-3.05-.86-5.302-3.064-6.692-6.548-1.265-3.171-1.095-6.062.498-8.602 1.301-2.072 3.469-3.665 5.94-4.881a20.6 20.6 0 0 1-.58-4.332l3.562-.1c.03 1.077.158 2.09.365 3.045C125.235 1.071 131.16.621 131.569.592l.25 3.55c-2.33.17-6.979.834-11.13 2.275 3.414 7.319 11.481 10.154 11.577 10.19l3.2 1.092-2.71 2.02c-.317.24-6.957 5.133-13.361 5.133"/><path fill="#f4a00f" d="M135.244 18.638c2.953 1.622 7.19 3.31 10.397 2.4 1.954-.553 3.374-2.006 4.347-4.443.83-2.08.763-3.842-.206-5.387-.671-1.073-1.737-1.998-3.038-2.798-2.917 5.39-8.086 8.598-11.5 10.228m8.425 6.216c-6.404 0-13.04-4.893-13.366-5.136l-2.805-2.098 3.348-1.029c.114-.033 8.738-2.798 12.653-9.763-4.406-1.725-9.711-2.503-12.255-2.684l.254-3.55c.443.03 7.315.553 13.362 2.956.306-1.102.497-2.286.534-3.55l3.558.1a18.7 18.7 0 0 1-.819 5.014c1.933 1.117 3.595 2.496 4.665 4.203 1.592 2.536 1.758 5.43.497 8.598-1.393 3.488-3.642 5.689-6.691 6.551-.963.27-1.943.388-2.935.388"/></svg>