<svg height="566" width="566" xmlns="http://www.w3.org/2000/svg"><path d="M0 283C0 126.703 126.7 0 282.997 0S566 126.703 566 283 439.294 566 282.997 566 0 439.297 0 283" fill="#fff"/><path d="M10.754 283.001c0-150.362 121.883-272.248 272.243-272.248 150.359 0 272.249 121.886 272.249 272.248 0 150.359-121.89 272.245-272.249 272.245-150.36 0-272.243-121.886-272.243-272.245"/><g fill="#fff"><path d="M93.719 282.999c0-104.542 84.742-189.279 189.278-189.279 104.542 0 189.284 84.737 189.284 189.279 0 104.54-84.743 189.282-189.284 189.282-104.536 0-189.278-84.743-189.278-189.282"/><path d="M128.144 103.859c-4.335-.637-8.664 1.036-11.75 4.132-5.514 5.549-4.988 13.525.424 18.906 5.501 5.47 13.246 5.641 18.862-.006 2.935-2.959 4.449-7.339 4.069-11.487l10.87 10.806c-2.066 3.926-3.537 6.788-6.344 9.605-4.83 4.854-11.269 7.637-18.146 7.982-7.282.39-13.563-2.361-18.741-7.517-4.76-4.731-7.542-11.091-7.65-17.819-.12-6.921 2.681-13.981 7.555-18.88 2.89-2.916 6.205-4.953 9.982-6.528zm37.152-22.955l-10.216-15.99 10.774-6.88 26.46 41.437-10.773 6.879-10.845-16.985-15.547 9.931 10.838 16.986-10.768 6.87-26.461-41.43 10.775-6.88 10.211 15.99zm41.133 4.1l-.45 9.184-12.834 4.379 1.997-52.639 13.208-4.509 33.419 40.543-12.898 4.398-5.78-7.048zm.228-26.951l-.121.038.063 16.523 10.058-3.438zm77.291 20.015l-15.819 1.727-14.045-17.499-.126.013 2.053 18.801-12.713 1.385-5.318-48.884 18.995-2.069c9.659-1.046 17.486 2.757 18.621 13.192.735 6.744-2.389 12.986-9.19 14.973zM253.07 54.139l1.229-.13c4.151-.453 8.733-1.74 8.15-7.054-.577-5.318-5.324-5.59-9.475-5.134l-1.229.13zm46.013 14.926l15.286 1.039-.729 10.8-28.038-1.902 3.321-49.057 12.751.862zm36.36 16.843l-12.454-2.856 8.556-37.37-10.293-2.355 2.415-10.553 33.046 7.568-2.415 10.553-10.293-2.358zm70.559 1.406c-6.788 14.39-21.891 19.66-36.164 12.929-14.267-6.737-19.799-21.748-13.012-36.135 6.344-13.449 22.594-17.314 35.384-11.281 12.803 6.044 20.143 21.042 13.792 34.487m-37.171-17.476c-3.619 7.672-.602 15.94 6.293 19.197 6.908 3.258 15.205.323 18.83-7.339 2.89-6.135-.126-14.409-7.022-17.661-6.903-3.257-15.211-.323-18.101 5.803zm60.425 4.991l9.716 8.299-1.705 38.059.095.083 19.514-22.858 9.723 8.296-31.924 37.394-9.723-8.293 1.762-38.116-.101-.086-19.559 22.918-9.722-8.299zM146.93 491.45l-7.339 5.536-11.586-7.048 41.709-32.171 11.928 7.257-9.748 51.622-11.636-7.083 1.711-8.961zm20.844-17.081l-.107-.066-12.644 10.625 9.082 5.523zm24.883 49.85l-11.839-4.81 14.431-35.527-9.792-3.977 4.075-10.02 31.417 12.752-4.075 10.026-9.786-3.971zm56.363-16.168l3.619-18.626 12.542 2.44-9.38 48.259-12.555-2.44 3.854-19.774-18.115-3.524-3.853 19.774-12.543-2.44 9.393-48.259 12.542 2.44-3.618 18.627zm33.565 21.787l15.318.104-.075 10.826-28.102-.194.342-49.162 12.783.085zm31.277-29.614l1.166 8.138 14.261-2.044 1.546 10.708-14.273 2.053 1.21 8.392 15.041-2.161 1.54 10.713L306.662 540l-6.99-48.674 27.69-3.971 1.54 10.714zm51.597 27.168l-12.213 3.771-11.301-36.643-10.095 3.115-3.189-10.343 32.406-9.988 3.188 10.337-10.096 3.114zm29.426-11.966l-11.649 5.247-20.198-44.824 11.649-5.251zm23.831-51.831c-4.088-1.568-8.677-.894-12.372 1.448-6.598 4.192-7.846 12.083-3.752 18.529 4.158 6.547 11.674 8.417 18.398 4.154 3.518-2.234 5.958-6.179 6.503-10.315l8.208 12.942c-2.877 3.375-4.938 5.84-8.303 7.97-5.774 3.673-12.682 4.966-19.457 3.784-7.187-1.226-12.708-5.295-16.618-11.462-3.6-5.672-4.912-12.479-3.53-19.074 1.413-6.769 5.698-13.037 11.528-16.745 3.467-2.199 7.149-3.457 11.187-4.164zm28.977 20.198l-1.471 1.154-9.304-11.836-3.194 2.503-1.071-1.362 7.878-6.199 1.077 1.363-3.226 2.539zm-5.134-18.614l13.785 6.794-4.456-14.719 14.096 11.332-1.458 1.239-9.012-7.26-.032.025 3.682 12.695-11.915-5.691-.032.025 5.711 10.058-1.464 1.245z"/></g><path d="M104.981 283.001c0-98.319 79.704-178.02 178.016-178.02 98.324 0 178.021 79.701 178.021 178.02 0 98.315-79.698 178.017-178.021 178.017-98.311.001-178.016-79.701-178.016-178.017" fill="#d4021d"/><path d="M264.643 391.939c1.292.865 1.463 2.326 1.559 3.276.38 3.701-2.06 6.953-2.795 10.755-.855 4.439.843 8.169 2.522 12 1.248 2.817 3.365 4.95 5.742 6.861 6.147 4.912 14.019 6.151 21.416 3.223 7.339-2.906 11.351-9.5 13.227-17.055 1.273-5.153-2.225-9.143-2.896-13.94-.051-.355.824-1.16 1.033-1.071 18.335 7.878 33.971 19.489 49.708 32.548 1.122.928 2.199 3.115 4.195 2.057 24.413-12.869 44.048-29.601 60.126-53.244.697-1.017-.292-1.997-1.185-2.329-21.548-8.1-42.716-13.265-65.919-17.619-15.159-2.849-29.255-2.551-44.289-6.075-1.534-.358-2.459-2.538-3.226-2.576-15.185-.916-30.408-1.423-45.606.168-1.99 4.291-2.903 8.911.304 13.538.995 1.436.209 3.688-.685 5.59-1.039 2.225-.431 4.722 1.154 6.756 1.635 2.107 4.804 3.47 3.46 6.338-1.109 2.351-2.155 4.439-1.597 7.051.412 1.996 2.206 2.712 3.752 3.748" fill="#fff"/><path d="M258.254 331.72c-9.899.501-21.935 2.551-28.869-6.477-2.782-3.622-2.129-10.045-7.314-11.63-4.798-1.461-9.437.5-11.807 4.978-2.193 4.161-2.168 8.892-.552 13.11 2.06 5.365 7.174 9.624 12.492 10.207 41.253 4.583 81.231-2.925 122.744 3.454 7.663 1.173 17.321 14.732 24.85 6.088 1.781-13.04-13.131-17.784-23.475-19.47-14.413-2.351-28.318.416-42.432-1.448-2.903-51.33-.184-102.6-2.516-153.987-.843-18.64-7.624-37.162-19.666-51.996-9.469 13.452-15.579 29.087-16.852 45.071-4.291 53.802.228 107.021-3.815 160.886-.018.261-1.666 1.161-2.788 1.214" fill="#fff"/></svg>