<svg viewBox="0 0 250 332.41" xmlns="http://www.w3.org/2000/svg"><clipPath id="a"><path d="M32.863 798.943h61.66V721.55h-61.66"/></clipPath><clipPath id="b"><path d="M38.072 795.16v-68.614h89.813v68.613"/></clipPath><g clip-path="url(#a)" transform="matrix(4.84466 0 0 -4.84466 -184.446 3852.279)"><g clip-path="url(#b)"><path d="M63.086 726.943c-.11.047-2.737 1.178-6.297 4.047-3.213 2.589-7.901 7.198-11.991 14.454-5.366 9.518-6.615 20.271-6.718 27.616-.111 7.91 1.02 13.567 1.069 13.803l.182.897.748.527c.102.071 2.54 1.778 6.596 3.469 3.723 1.552 9.612 3.403 16.522 3.403 6.878 0 13.124-1.822 17.152-3.35 4.375-1.661 7.118-3.317 7.233-3.387l.852-.517.206-.975c.046-.217 1.123-5.393 1.03-12.94-.088-6.966-1.242-17.352-6.247-27.268-3.813-7.555-8.576-12.492-11.9-15.303-3.66-3.095-6.458-4.395-6.575-4.449l-.926-.424" fill="#231f20"/><path d="M63.537 728.004c-.105.044-2.59 1.114-6.025 3.883-3.134 2.525-7.71 7.026-11.71 14.122-5.247 9.307-6.47 19.856-6.57 27.067-.11 7.79.998 13.326 1.046 13.557l.091.449.374.263c.097.069 2.436 1.705 6.375 3.348 3.626 1.512 9.36 3.314 16.079 3.314 6.704 0 12.805-1.781 16.743-3.276 4.267-1.62 6.932-3.226 7.044-3.293l.426-.259.103-.488c.045-.212 1.097-5.275 1.004-12.686-.085-6.845-1.217-17.045-6.122-26.764-3.726-7.382-8.373-12.2-11.616-14.942-3.544-2.997-6.2-4.231-6.312-4.282l-.462-.212" fill="#fff"/><path d="M41.407 786.404s9.15 6.451 21.79 6.451 23.19-6.402 23.19-6.402 4.284-20.258-5.02-38.693c-7.045-13.956-17.38-18.696-17.38-18.696s-9.612 4.082-17.182 17.511c-9.926 17.607-5.398 39.829-5.398 39.829" fill="#e21d25"/><path d="M53.286 753.07s3.63 21.58 5.412 26.53 5.28 7.92 5.28 7.92 4.884-4.158 6.468-9.306 4.091-25.013 4.091-25.013" fill="#fff"/><path d="M53.286 753.07s3.63 21.58 5.412 26.53 5.28 7.92 5.28 7.92 4.884-4.158 6.468-9.306 4.091-25.013 4.091-25.013z" fill="none" stroke="#231f20" stroke-width="1.152"/><path d="M74.274 756.633s-2.653 4.902-10.23 4.833c-7.13-.064-10.428-4.833-10.428-4.833m19.866 5.016s-3.696 3.96-9.438 3.762-8.976-3.3-8.976-3.3" fill="none" stroke="#231f20" stroke-width=".806"/><path d="M66.024 758.827c0-.902-.731-1.633-1.633-1.633h-.298c-.902 0-1.633.731-1.633 1.633v3.532c0 .902.73 1.633 1.633 1.633h.298c.902 0 1.633-.731 1.633-1.633" fill="#231f20"/><path d="M76.385 747.327c0-6.852-5.555-12.407-12.407-12.407s-12.408 5.555-12.408 12.407 5.555 12.408 12.408 12.408 12.407-5.555 12.407-12.408" fill="#fff"/><g fill="none" stroke="#231f20" stroke-width="1.152"><path d="M76.385 747.327c0-6.852-5.555-12.407-12.407-12.407s-12.408 5.555-12.408 12.407 5.555 12.408 12.408 12.408 12.407-5.555 12.407-12.408z"/><path d="M61.47 741.915s-4.488 1.98-6.402 3.564-3.234 3.498-3.234 3.498m12.078-2.442s-4.29 1.254-6.402 3.3-3.828 4.158-3.828 4.158"/><path d="M56.454 737.824s7.986 4.224 7.92 9.702-7.59 9.7-7.59 9.7m6.402-22.24s5.148 4.224 6.204 8.381c1.056 4.159.33 5.544.33 5.544m5.676 3.169s-3.431 1.913-5.874 1.913c-3.63 0-6.402-1.98-6.402-1.98"/><path d="M71.436 757.161s-3.63.792-6.666 0-4.884-2.046-4.884-2.046m16.368-6.995s-1.057 1.121-2.839 1.187c-1.781.066-3.695-.858-3.695-.858s-.66 1.056-2.508 1.188-2.97-.66-2.97-.66"/></g><path d="M49.499 768.347l6.962 6.963-6.962 6.963 7.483 7.484 6.963-6.963 6.963 6.963 7.483-7.484-6.963-6.963 6.963-6.963-7.484-7.483-6.962 6.963-6.963-6.963" fill="#fff"/><path d="M70.908 790.49l-6.963-6.963-6.963 6.963-8.216-8.217 6.962-6.963-6.963-6.963 8.217-8.216 6.963 6.963 6.962-6.963 8.217 8.216-6.963 6.963 6.963 6.963zm0-1.467l6.75-6.75-6.23-6.23-.733-.733.733-.733 6.23-6.23-6.75-6.75-6.23 6.23-.733.733-.733-.733-6.23-6.23-6.75 6.75 6.23 6.23.732.733-.733.733-6.23 6.23 6.751 6.75 6.23-6.23.733-.732.733.733z" fill="#231f20"/><path d="M56.18 782.042l.806.807c.288.288.629.733.153 1.208-.334.334-.703.352-1.292-.237l-.723-.723zm-3.862.774l2.94 2.94c.877.877 2.147 1.122 3.15.12.55-.55.89-1.368.578-2.08.592.25 1.342.019 2.06-.586.28-.24.918-.863 1.304-.968l-1.544-1.543c-.344.19-.647.436-.943.69-.547.463-1.116.948-1.727.338l-.82-.82 1.849-1.85-1.544-1.544m14.952 1.949c-1.471-1.47-2.927-1.425-4.457.104s-1.581 2.993-.11 4.464l3.252 3.253 1.544-1.544-2.89-2.89c-.542-.541-1.218-1.217-.467-1.968.73-.73 1.406-.053 1.948.489l2.89 2.889 1.542-1.544m-23.742-14.257l3.873 3.872 1.36-1.359-2.33-2.329.661-.661 2 2 1.262-1.263-2-2 2.02-2.02-1.543-1.543m15.143 4.885c.165.222.611.949-.027 1.587-.723.723-1.697.211-2.41-.501-.713-.713-1.224-1.688-.501-2.41.519-.52 1.108-.336 1.697.07l1.515-1.516c-1.069-1.07-3.026-1.385-4.493.082-1.62 1.62-1.329 3.75.239 5.317 1.67 1.671 3.774 1.781 5.317.238 1.368-1.383 1.36-2.905.164-4.368m-7.43 8.705a2.706 2.706 0 1 0-5.41 0 2.706 2.706 0 0 0 5.41 0" fill="#231f20"/></g></g></svg>