<svg xmlns="http://www.w3.org/2000/svg" viewBox="0.4 -0.03 89.2 100.03"><path fill="#131313" d="M89.5 9.3c.1 11.2.1 22.6.1 33.8 0 5.9 0 11.3-1.2 15.7-1.2 4.2-3.1 8.2-5.3 11.6-7.5 11.6-19.2 20.5-32.2 27l-2.8 1.4c-.8.4-2.4 1.2-3 1.2s-2.2-.8-3.1-1.2c-6.6-3-13-7-18.4-11.1-6.5-5-12.3-10.6-16.6-17.4-2.2-3.5-4.1-7.4-5.3-11.7C.6 54.3.6 48.7.6 43 .6 32 .4 20.5.4 9.3 11 3.6 24.9.9 40.7.1c19.1-.9 36.5 2.8 48.8 9.2M86.4 58c1.1-4.3 1.1-9.6 1.1-15.1 0-10.6-.2-21.5-.1-32.4C67.6-.4 28-.7 6.3 8.6c-1.4.6-2.8 1.1-4 2 .1 10.8.2 21.7.2 32.2 0 5.5.1 10.7 1.2 15 1.1 4.2 2.8 8 4.9 11.3C17 82.4 30.3 90.8 45 97.7c7.5-3.2 14.5-7.2 20.5-11.9 8.9-6.9 17.6-15.5 20.9-27.8"/><g fill="#fff"><path d="M87.5 42.9c0 5.5 0 10.8-1.1 15.1-3.3 12.3-12 20.9-20.9 27.8-6.1 4.7-13 8.7-20.5 11.9-14.7-6.9-28-15.3-36.4-28.6-2.1-3.3-3.8-7.1-4.9-11.3-1.1-4.3-1.2-9.5-1.2-15 0-10.5-.1-21.4-.2-32.2 1.2-.9 2.6-1.4 4-2C28-.7 67.6-.4 87.4 10.5c0 10.9.1 21.8.1 32.4M69.9 78.3c1-1 2.5-2.4 3.2-3.2-1.1 1-2.5 2.5-3.2 3.2M47.6 93.5c.3-.3 1.4-.7 1.4-.8-.4.2-1.6.6-1.4.8M18.1 76.1c.3.4 1.1 1.2 1.2 1.2z"/><path d="M73 75.2c-.7.7-2.1 2.2-3.2 3.2.8-.8 2.2-2.3 3.2-3.2M49 92.7c0 .1-1.1.5-1.4.8-.2-.2 1-.6 1.4-.8M19.3 77.4c-.1 0-.9-.8-1.2-1.2.1 0 .9.8 1.2 1.2"/></g><path fill="#131313" d="M85.2 11.8c.1 10.1.1 20.6.1 30.7 0 5.3 0 10.3-1.1 14.3-1.1 3.8-2.8 7.4-4.8 10.5C72.6 77.9 62 86 50.1 91.8c-.7.4-1.6.8-2.6 1.3-.8.3-2.2 1.1-2.7 1.1s-2-.8-2.8-1.1c-6-2.8-11.8-6.4-16.8-10.1-5.9-4.5-11.2-9.5-15.1-15.7-2-3.1-3.7-6.8-4.8-10.6-1.1-4-1.1-9-1.1-14.3 0-10-.2-20.5-.2-30.6 9.7-5.2 22.3-7.6 36.7-8.3 17.5-.9 33.4 2.5 44.5 8.3M82.4 56c1-3.9 1-8.7 1-13.7 0-9.6-.2-19.5-.1-29.4-18-9.9-54-10.1-73.7-1.8-1.3.5-2.6 1-3.7 1.8.1 9.8.2 19.7.2 29.3 0 5 .1 9.7 1.1 13.6 1 3.8 2.5 7.3 4.5 10.3 7.6 12 19.7 19.7 33 26 6.8-3 13.1-6.6 18.7-10.8 8.1-6.3 16-14.1 19-25.3"/><path fill="#c2b252" d="M83.4 42.3c0 5 0 9.8-1 13.7-3 11.2-10.9 19-19 25.3-5.5 4.3-11.8 7.9-18.7 10.8-13.3-6.3-25.4-14-33-26-1.9-3-3.5-6.5-4.5-10.3-1-3.9-1.1-8.7-1.1-13.6 0-9.6-.1-19.5-.2-29.3 1.1-.8 2.4-1.3 3.7-1.8C29.3 2.7 65.3 3 83.3 12.9c0 9.9.1 19.8.1 29.4m-36.3 46c.3-.3 1.3-.6 1.3-.7-.4.2-1.4.6-1.3.7"/><path fill="#fff" d="M48.4 87.6c0 .1-1 .5-1.3.7-.1-.1.9-.5 1.3-.7"/><path fill="#131313" d="M65.9 68.6c0 1.3-.1 2.5-.3 3.7h-.1L64 70.1l-1.1-8.9 1-1.7h.1c1.2 2.8 1.9 5.8 1.9 9.1"/><path fill="#fff" d="M65.5 72.3c-.9 5.5-3.9 10.3-8.1 13.5l-1.7-3 3.2-8.1 5.1-4.5zm-2.6-11.1l1.1 8.9-5.1 4.5-6.1-4.4-1.1-9.5h-.1l5.3-4.1z"/><path fill="#fff" d="M63.9 59.5l-1.1 1.7-6-4.6-4.8-6.4 1-1.5c4.8 2.2 8.7 6 10.9 10.8"/><path fill="#131313" d="M58.9 74.6l-3.3 8.1-8.5.7-2-8.1 7.7-5.1z"/><path fill="#fff" d="M57.4 85.7c-3.6 2.9-8.2 4.5-13.2 4.5-.7 0-1.3 0-2-.1l-1.8-2.8 6.7-4 8.6-.7z"/><path fill="#131313" d="M52 50.2l4.9 6.4-5.3 4.1-8.5-3.5.2-6.6z"/><path fill="#fff" d="M53 48.7l-1 1.5-8.6.3-6.9-1.2v-.2l.5-.9v-.1q3.45-1.2 7.2-1.2c3.1 0 6.1.6 8.8 1.8m-.2 21.5l-7.7 5.1-8.6-3.5-1.1-9.1 7.7-5.5 8.5 3.5h.1z"/><path fill="#fff" d="M45.1 75.3l2 8.1-6.7 4-8.4-4-2-7.6 6.5-4zm-1.8-24.7l-.2 6.6-7.7 5.5-7-1.2.3-6.6 7.6-5.6h.1z"/><path fill="#131313" d="M40.4 87.4l1.8 2.8c-4.8-.4-9.2-2.5-12.6-5.5l.1-.1 2.3-1.2zM37 48.1l.1.2-.5.9v.2h-.1L28.8 55l-1.8.3c2.6-3.3 6-5.8 10-7.2m-1.6 14.6l1.1 9.1-6.5 4-4.6-6.4 3-7.9z"/><path fill="#fff" d="M30 75.8l2 7.6-2.3 1.2-.1.1c-3.9-3.5-6.5-8.5-7-14.1l2.9-1.2z"/><path fill="#fff" d="M28.7 54.9l-.3 6.6-2.9 7.9-2.9 1.2c-.1-.7-.1-1.3-.1-2 0-5 1.7-9.6 4.5-13.3z"/><g fill="#131313"><path d="M44.2 90.6c-.7 0-1.4 0-2-.1-4.8-.4-9.2-2.4-12.8-5.6-4.1-3.7-6.7-8.8-7.2-14.3-.1-.7-.1-1.4-.1-2.1 0-4.9 1.6-9.6 4.6-13.5 2.6-3.4 6.1-5.9 10.1-7.3 2.4-.8 4.8-1.3 7.4-1.3 3.1 0 6.1.6 8.9 1.9 4.9 2.2 8.9 6.1 11.1 11 1.3 2.9 2 6 2 9.2 0 1.3-.1 2.5-.3 3.8C65 77.8 62 82.6 57.6 86c-3.8 3.1-8.5 4.6-13.4 4.6m0-43.4c-2.4 0-4.8.4-7.1 1.2-3.9 1.4-7.2 3.8-9.8 7.1-2.9 3.8-4.5 8.3-4.5 13.1 0 .7 0 1.3.1 2 .5 5.3 2.9 10.2 6.9 13.8 3.5 3.1 7.7 5 12.4 5.4.6.1 1.3.1 1.9.1 4.7 0 9.2-1.5 13-4.4 4.3-3.3 7.1-8 8-13.3.2-1.2.3-2.4.3-3.7 0-3.1-.7-6.1-1.9-8.9-2.2-4.7-6-8.5-10.8-10.6-2.6-1.2-5.5-1.8-8.5-1.8"/><path d="M36.5 49.5c-.1 0-.1 0-.2-.1-.2-.1-.2-.3-.1-.5l.5-.9c.1-.2.3-.2.5-.1s.2.3.1.5l-.5.9c-.1.1-.2.2-.3.2M22.5 71c-.1 0-.3-.1-.3-.2-.1-.2 0-.4.2-.5h.1l2.9-1.2c.2-.1.4 0 .5.2s0 .4-.2.5l-2.9 1.3c-.2-.1-.2-.1-.3-.1M52 50.6c-.1 0-.1 0-.2-.1-.2-.1-.2-.3-.1-.5l1-1.5c.1-.2.3-.2.5-.1s.2.3.1.5l-1 1.5c-.1.1-.2.2-.3.2m10.9 11c-.1 0-.1 0-.2-.1-.2-.1-.2-.3-.1-.5l1-1.7c.1-.2.3-.2.5-.1s.2.3.1.5l-1 1.7c-.1.1-.2.2-.3.2m-5.5 24.5c-.1 0-.2-.1-.3-.2l-1.7-3c-.1-.2 0-.4.1-.5.2-.1.4 0 .5.1l1.7 3c.1.2 0 .4-.1.5s-.2.1-.2.1m-17 1.7c-.1 0-.2-.1-.3-.2-.1-.2 0-.4.1-.5l6.7-4c.2-.1.4 0 .5.1.1.2 0 .4-.1.5l-6.7 4c-.1.1-.1.1-.2.1"/><path d="M47.1 83.8c-.2 0-.3-.1-.4-.3l-2-8.1c0-.2.1-.4.3-.4s.4.1.4.3l2 8.1c.1.1 0 .3-.3.4M25.4 69.7c-.2 0-.4-.2-.4-.4v-.1l2.9-7.9c.1-.2.3-.3.5-.2s.3.3.2.5l-2.9 7.9c0 .1-.1.2-.3.2"/><path d="M35.4 63.1l-7.1-1.3c-.2 0-.3-.2-.3-.4s.2-.3.4-.3l7.1 1.2c.2 0 .3.2.3.4s-.2.4-.4.4"/><path d="M35.4 63.1c-.1 0-.2-.1-.3-.2-.1-.2-.1-.4.1-.5l7.7-5.5c.2-.1.4-.1.5.1s.1.4-.1.5L35.6 63c0 .1-.1.1-.2.1"/><path d="M43.1 57.6c-.2 0-.4-.2-.4-.4l.2-6.7c0-.2.2-.4.4-.4s.4.2.4.4l-.2 6.7c-.1.2-.2.4-.4.4"/><path d="M43.3 50.9l-7.1-1.3c-.2 0-.3-.2-.3-.4s.2-.3.4-.3h.1l6.9 1.2c.2 0 .3.2.3.4.1.3-.1.4-.3.4"/><path d="M28.7 55.3c-.1 0-.2-.1-.3-.2-.1-.2-.1-.4.1-.5l7.7-5.6c.2-.1.4-.1.5.1s.1.4-.1.5l-7.7 5.6c-.1 0-.1.1-.2.1"/><path d="M28.4 61.8c-.2 0-.4-.2-.4-.4l.3-6.6c0-.2.2-.4.4-.3.2 0 .4.2.3.4l-.3 6.6q0 .3-.3.3m8.1 10.3c-.2 0-.3-.1-.4-.3L35 62.7c0-.2.1-.4.3-.4s.4.1.4.3l1.1 9.1c.1.2 0 .4-.3.4"/><path d="M45.1 75.6H45l-8.6-3.5c-.2-.1-.3-.3-.2-.5s.3-.3.5-.2l8.6 3.5c.2.1.3.3.2.5-.1.1-.3.2-.4.2"/><path d="M45.1 75.6c-.1 0-.2-.1-.3-.2-.1-.2-.1-.4.1-.5l7.7-5.1c.2-.1.4-.1.5.1s.1.4-.1.5l-7.7 5.1c-.1.1-.2.1-.2.1"/><path d="M52.8 70.6c-.2 0-.3-.1-.4-.3l-1.1-9.5c0-.2.1-.4.3-.4s.4.1.4.3l1.1 9.5c.1.1-.1.3-.3.4"/><path d="M51.6 61.1h-.1l-8.6-3.5c-.2-.1-.3-.3-.2-.5s.3-.3.5-.2l8.6 3.5c.2.1.3.3.2.5-.1.1-.2.2-.4.2"/><path d="M51.6 61.1c-.1 0-.2 0-.3-.1s-.1-.4 0-.5l5.2-4.1c.2-.1.4-.1.5.1s.1.4-.1.5l-5 4c-.1 0-.2.1-.3.1M58.9 75c-.1 0-.1 0-.2-.1l-6.1-4.4c-.2-.1-.2-.3-.1-.5s.3-.2.5-.1l6.1 4.4c.2.1.2.3.1.5-.1.1-.2.2-.3.2"/><path d="M58.9 75c-.1 0-.2 0-.3-.1-.1-.2-.1-.4 0-.5l5.1-4.5c.2-.1.4-.1.5 0 .1.2.1.4 0 .5l-5.1 4.5s-.1.1-.2.1"/><path d="M64 70.5c-.2 0-.3-.1-.4-.3l-1.1-8.9c0-.2.1-.4.3-.4s.4.1.4.3l1.1 8.9c0 .2-.1.3-.3.4"/><path d="M62.9 61.6c-.1 0-.2 0-.2-.1l-6-4.6c-.2-.1-.2-.4-.1-.5.1-.2.4-.2.5-.1l6 4.6c.2.1.2.4.1.5s-.2.2-.3.2"/><path d="M56.9 57c-.1 0-.2 0-.3-.1l-4.9-6.4c-.1-.2-.1-.4.1-.5s.4-.1.5.1l4.9 6.4c.1.2.1.4-.1.5z"/><path d="M43.3 50.9c-.2 0-.4-.2-.4-.4s.1-.4.4-.4l8.6-.3c.2 0 .4.1.4.4 0 .2-.1.4-.4.4zm3.8 32.9c-.2 0-.3-.1-.4-.3 0-.2.1-.4.3-.4l8.6-.7c.2 0 .4.1.4.3s-.1.4-.3.4z"/><path d="M55.6 83.1h-.1c-.2-.1-.3-.3-.2-.5l3.2-8.1c.1-.2.3-.3.5-.2s.3.3.2.5L56 82.9c-.1.1-.2.2-.4.2m9.9-10.5c-.1 0-.2-.1-.3-.1l-1.6-2.2c-.1-.2-.1-.4.1-.5s.4-.1.5.1l1.6 2.2c.1.2.1.4-.1.5zM30 76.2c-.1 0-.2-.1-.3-.2l-4.6-6.5c-.1-.2-.1-.4.1-.5s.4-.1.5.1l4.6 6.5c.1.2.1.4-.1.5 0 .1-.1.1-.2.1"/><path d="M32 83.8c-.2 0-.3-.1-.4-.3l-2-7.6c-.1-.2.1-.4.3-.4.2-.1.4.1.4.3l2 7.6c.1.1 0 .3-.3.4q.15 0 0 0"/><path d="M29.7 84.9c-.1 0-.3-.1-.3-.2-.1-.2 0-.4.2-.5l2.3-1.2c.2-.1.4 0 .5.2s0 .4-.2.5l-2.3 1.2z"/><path d="M40.4 87.8h-.2l-8.4-4c-.2-.1-.3-.3-.2-.5s.3-.3.5-.2l8.4 4c.2.1.3.3.2.5 0 .1-.1.2-.3.2"/><path d="M42.2 90.6c-.1 0-.2-.1-.3-.2v-.1l-1.8-2.8c-.1-.2-.1-.4.1-.5s.4-.1.5.1l1.8 2.8c.1.2.1.4-.1.5 0 .2-.1.2-.2.2M30 76.2c-.1 0-.2-.1-.3-.2-.1-.2-.1-.4.1-.5l6.5-4.1c.2-.1.4-.1.5.1s.1.4-.1.5l-6.5 4.1c0 .1-.1.1-.2.1m-3.1-20.5c-.2 0-.3-.1-.4-.3 0-.2.1-.4.3-.4l1.7-.4c.2 0 .4.1.4.3s-.1.4-.3.4zq.15 0 0 0m-7.3-23l.2 2.2H14v-7.2h6c1 1.2 2 2 2.8 2.4.9.5 1.8.7 2.9.7.9 0 1.6-.2 2.1-.5s.8-.8.8-1.4c0-.5-.3-1-.8-1.3s-1.3-.6-2.3-.7l-2.8-.4c-3-.4-5.3-1.2-6.7-2.3-1.5-1.1-2.2-2.6-2.2-4.4 0-1.9.8-3.5 2.5-4.8s3.8-1.9 6.3-1.9c1.3 0 2.5.2 3.5.6s1.9 1 2.6 1.8l-.1-1.9h5.7v6.7h-5.7c-.7-1-1.5-1.8-2.3-2.3s-1.6-.7-2.5-.7c-.8 0-1.5.2-2 .5-.5.4-.8.8-.8 1.3s.3 1 .8 1.3c.6.3 1.5.6 2.8.8l2.4.3c3 .5 5.2 1.3 6.7 2.4 1.4 1.1 2.2 2.6 2.2 4.4 0 2.1-.8 3.9-2.4 5.2s-3.8 1.9-6.5 1.9c-1.5 0-2.9-.2-4.2-.7-1.2-.5-2.3-1.1-3.2-2"/></g><path fill="#fff" d="M27 36c-1.6 0-3.1-.2-4.4-.7-.8-.3-1.6-.8-2.3-1.3l.1 1.5h-6.9V27h6.9l.2.2c1 1.1 1.9 1.9 2.7 2.3s1.7.7 2.6.7c.7 0 1.3-.1 1.8-.4s.5-.6.5-.8-.1-.5-.5-.8-1.1-.5-2.1-.6l-2.8-.4c-3.1-.4-5.5-1.2-7-2.4-1.6-1.2-2.5-2.9-2.5-4.9 0-2.1.9-3.9 2.8-5.3 1.8-1.4 4-2.1 6.7-2.1 1.4 0 2.7.2 3.7.6.6.2 1.2.6 1.7.9v-1.1H35v7.9h-6.6l-.2-.3q-1.05-1.5-2.1-2.1c-1.05-.6-1.4-.7-2.2-.7-.7 0-1.2.1-1.6.4-.5.3-.5.6-.5.8s.1.5.5.8c.5.3 1.3.5 2.6.7l2.4.3c3.1.5 5.4 1.3 7 2.5s2.4 2.8 2.4 4.9c0 2.3-.9 4.2-2.7 5.6-1.8 1.6-4.1 2.3-7 2.3m-8.1-4.8l1.1 1c.9.8 1.9 1.5 3.1 1.9s2.5.6 4 .6c2.6 0 4.6-.6 6.2-1.8 1.5-1.2 2.2-2.7 2.2-4.7 0-1.6-.6-2.9-1.9-3.9-1.4-1-3.5-1.8-6.4-2.2l-2.4-.3q-2.1-.3-3-.9c-.9-.5-1.1-1.3-1.1-1.8s.2-1.2 1.1-1.8c.6-.4 1.4-.6 2.3-.6 1 0 2 .3 2.9.8.8.5 1.5 1.2 2.3 2.2H34v-5.5h-4.4l.1 2.9-1.1-1.2c-.7-.7-1.5-1.3-2.4-1.6-.9-.4-2.1-.5-3.3-.5-2.4 0-4.4.6-5.9 1.8s-2.3 2.6-2.3 4.3.6 2.9 2 3.9 3.6 1.8 6.5 2.2l2.8.4c1.1.2 2 .4 2.6.8.9.6 1.1 1.3 1.1 1.8 0 .8-.4 1.4-1.1 1.9q-.9.6-2.4.6c-1.2 0-2.2-.3-3.2-.8-.9-.5-1.8-1.3-2.8-2.4h-5.1v6h4.4z"/><path fill="#131313" d="M51 34.9v-4.2h2.6V17.8H51v-4.2h11.7v4.2h-2.4v5.8l6.1-5.8h-1.6v-4.2h10.9v4.2h-1.9L67 23.9l7.3 6.8h2.5v4.2h-12v-4.2h1.7l-6.2-5.9v5.9h2.4v4.2z"/><path fill="#fff" d="M77.4 35.5H64.2V30h.8l-4.1-3.8V30h2.4v5.5H50.4V30H53V18.5h-2.6V13h12.9v5.5h-2.4v3.8l3.9-3.8h-.7V13h12.1v5.5H74L67.9 24l6.6 6.1h2.9zm-12-1.2h10.8v-3h-2.1l-8-7.3 7.5-6.7H75v-3h-9.7v3h2.5l-7.3 7 7.5 7.1h-2.7v2.9zm-13.8 0h10.5v-3h-2.4v-14h2.4v-3H51.6v3h2.6v14h-2.6z"/><path fill="#131313" d="M39.6 35.2V17.9h-2.4v-4.3h10.9v4.3h-2.4v17.6c0 2.2-.1 3.7-.3 4.6s-.5 1.6-1 2.2c-.6.8-1.5 1.5-2.6 1.9s-2.4.6-4 .6h-1.2v-5h.5c.5 0 .9 0 1.2-.1s.5-.2.6-.3c.2-.2.3-.5.4-.8.1-.4.1-1 .1-1.8v-1.6z"/><path fill="#fff" d="M37.9 45.3h-1.8V39h1.2c.5 0 .8 0 1-.1.2 0 .3-.1.4-.2s.2-.3.3-.5V18.5h-2.4V13h12.2v5.5h-2.4v17c0 2.3-.1 3.8-.3 4.7s-.6 1.8-1.1 2.4c-.7.9-1.7 1.6-2.8 2.1-1.2.4-2.6.6-4.3.6m-.6-1.2h.6c1.5 0 2.8-.2 3.8-.6s1.7-.9 2.3-1.7c.4-.5.7-1.2.9-2s.3-2.3.3-4.5V17.2h2.4v-3.1h-9.7v3.1h2.4v19.3c0 .9 0 1.6-.1 2-.1.5-.3.9-.6 1.1-.2.2-.6.4-.9.5s-.7.1-1.3.1v3.9z"/><path fill="#131313" d="M57.4 74.3v1.1l-2.2 6.1h-1.8l2.1-5.9h-2.9v-1.3zm-6.4.3c.4.3.5.8.5 1.5v3.7c0 .7-.2 1.2-.5 1.5-.4.3-1 .4-1.9.4s-1.5-.1-1.9-.4-.5-.8-.6-1.5v-3.7c0-.7.2-1.2.5-1.5.4-.3 1-.4 1.9-.4 1 0 1.7.1 2 .4m-1.3 1.5c0-.2 0-.4-.1-.5s-.2-.1-.4-.1-.3.1-.4.1c-.1.1-.1.3-.1.5v3.7c0 .2 0 .4.1.5s.2.1.4.1.4 0 .5-.1.1-.3.1-.5z"/><path fill="#131313" d="M49.6 75.6c.1.1.1.3.1.5v3.7c0 .2 0 .4-.1.5s-.2.1-.5.1c-.2 0-.3 0-.4-.1s-.1-.3-.1-.5v-3.7c0-.2 0-.4.1-.5s.2-.1.4-.1.4 0 .5.1"/><path fill="#fff" d="M49.1 80.6c-.3 0-.5-.1-.6-.2s-.2-.4-.2-.7V76c0-.3.1-.5.2-.7.1-.1.3-.2.6-.2s.5.1.6.2.2.3.2.7v3.7c0 .3-.1.5-.2.7 0 .2-.2.2-.6.2q.15 0 0 0m.1-4.9q-.15 0 0 0c-.1 0-.2 0-.3.1 0 0-.1.1-.1.3v3.7c0 .2.1.3.1.3s.1.1.2.1c.2 0 .2 0 .3-.1 0 0 .1-.1.1-.3v-3.7c0-.3-.1-.3-.1-.3s-.1-.1-.2-.1"/><path fill="#fff" d="M49.1 81.9c-.9 0-1.6-.1-2-.4s-.6-.9-.7-1.7v-3.7c0-.8.2-1.3.6-1.7.4-.3 1.1-.5 2-.5 1 0 1.6.1 2 .4s.6.9.6 1.6v3.7c0 .8-.2 1.3-.6 1.7-.2.4-.8.6-1.9.6m.1-7.4c-1.1 0-1.6.2-1.8.4-.3.2-.4.7-.4 1.3v3.7c0 .6.2 1 .5 1.3.3.2.9.4 1.7.3.8 0 1.4-.1 1.7-.4.3-.2.4-.7.4-1.3v-3.7c0-.6-.2-1-.4-1.3-.3-.2-.9-.3-1.7-.3m3.8 7.2l2.1-5.9h-2.8V74l5.2-.1v1.4l-2.2 6.2zm2.9-6.3l-2.1 5.9h1.3l2.1-5.8v-.9h-4.3v.8z"/></svg>