<svg viewBox="0 0 66.88 79.37" xmlns="http://www.w3.org/2000/svg" xmlns:xlink="http://www.w3.org/1999/xlink"><linearGradient id="a" gradientTransform="matrix(1.15498 0 0 -1.15498 -310.022 -209.283)" gradientUnits="userSpaceOnUse" x1="296.152" x2="300.348" y1="-361.929" y2="-372.118"><stop offset="0" stop-color="#fff"/><stop offset="1" stop-color="#525252"/></linearGradient><linearGradient id="b" gradientTransform="matrix(1.15498 0 0 -1.15498 -310.022 -209.283)" gradientUnits="userSpaceOnUse" x1="297.919" x2="298.902" y1="-366.503" y2="-371.137"><stop offset="0" stop-color="#fff"/><stop offset="1" stop-color="#a3b3bc"/></linearGradient><linearGradient id="c" gradientTransform="matrix(1.15498 0 0 -1.15498 -310.022 -209.283)" gradientUnits="userSpaceOnUse" x1="276.102" x2="319.752" y1="-319.201" y2="-319.201"><stop offset="0" stop-color="#cbced1"/><stop offset=".056" stop-color="#e1e3e5"/><stop offset=".118" stop-color="#f2f3f3"/><stop offset=".186" stop-color="#fcfcfc"/><stop offset=".273" stop-color="#fff"/><stop offset=".703" stop-color="#fff"/><stop offset=".772" stop-color="#fbfcfc"/><stop offset=".839" stop-color="#f0f1f2"/><stop offset=".904" stop-color="#dcdfe1"/><stop offset=".968" stop-color="#c1c7ca"/><stop offset="1" stop-color="#b1b8bc"/></linearGradient><linearGradient id="d" gradientTransform="matrix(1.15498 0 0 -1.15498 -310.022 -209.283)" gradientUnits="userSpaceOnUse" x1="298.17" x2="298.17" y1="-313.884" y2="-323.765"><stop offset="0" stop-color="#fff"/><stop offset="1" stop-color="#262626"/></linearGradient><linearGradient id="e"><stop offset="0" stop-color="#0098cc"/><stop offset="1" stop-color="#0a71b3"/></linearGradient><linearGradient id="f" gradientTransform="matrix(1.15498 0 0 -1.15498 -310.022 -209.283)" gradientUnits="userSpaceOnUse" x1="298.615" x2="311.978" xlink:href="#e" y1="-343.129" y2="-343.129"/><linearGradient id="g" gradientTransform="matrix(1.15498 0 0 -1.15498 -310.022 -209.283)" gradientUnits="userSpaceOnUse" x1="268.989" x2="326.896" xlink:href="#e" y1="-342.478" y2="-342.478"/><radialGradient id="h" cx="297.941" cy="-315.912" gradientTransform="matrix(1.15498 0 0 -1.26078 -310.022 -205.94)" gradientUnits="userSpaceOnUse" r="26.459"><stop offset=".018" stop-color="#102659"/><stop offset=".697" stop-color="#0a0f2d"/></radialGradient><g stroke-width="1.154982" transform="translate(-.655 -146.586)"><path d="m67.535 169.587c.001-.045-.21-11.082-1.637-13.378-3.195-5.144-15.234-9.618-31.701-9.623-16.47-.004-31.116 5.444-32.726 10.26-2.177 6.512-.986 40.807 16.021 58.914 7.758 8.26 15.235 10.2 16.714 10.2 1.46 0 8.626-1.726 16.995-10.178 10.34-10.445 14.196-24.955 15.611-35.288.53-3.888.744-10.89.723-10.907" fill="url(#g)"/><path d="m63.862 181.775c-1.283 9.793-4.788 23.542-14.189 33.434-7.609 8.009-14.124 9.647-15.452 9.647-1.341 0-8.264-1.72-15.196-9.666-11.122-12.75-14.842-32.803-15.36-45.2a49 49 0 0 1 -.036-1.06c-.143-4.878.232-8.406.831-9.564 2.196-4.235 17.14-8.546 29.607-8.546h.145c11.962.03 26.013 3.007 28.822 7.941.734 1.288 1.385 4.952 1.527 9.971q.014.538.021 1.093c.05 3.508-.149 7.594-.72 11.95" fill="url(#h)"/><path d="m42.412 203.511c-2.96-2.553-6.364-4.443-9.38-3.758-2.578.587-4.03 2.93-4.272 4.03-.744-.89-1.015-1.152-.975-1.427.37-2.506 7.05-8.452 14.627 1.155" fill="#fff"/><path d="m33.955 171.51c-.785 6.92-2.806 29.077-15.4 35.055 13.984-.218 17.046-29.367 15.4-35.055" fill="#fff"/><path d="m36.392 181.502c-.29-3.337-.254-6.552.063-9.54.264-2.498-1.844-3.099-1.213-5.213-.955 1.96.861 2.55.36 5.139-.702 3.606-.923 7.72-.548 12.05 1.173 13.454 8.4 23.903 15.252 23.34-3.139-1.773-12.694-11.792-13.914-25.776" fill="url(#f)"/><path d="m33.397 170.221c.609-.648 1.672-2.109 1.182-3.975.104 2.586-1.793 3.647-1.983 3.936-.748 1.136 1.845.909 1.929.955-.507-.218-1.85-.147-1.128-.916" fill="#fff"/><path d="m15.28 157.974q-.384-.42-.94-.6a2 2 0 0 0 -.367-.071 4 4 0 0 0 -.471.017q-.474.045-1.247.263l-3.107.874 1.934 6.868 1.609-.454-.653-2.316 1.558-.438a7.6 7.6 0 0 0 1.266-.471 2.2 2.2 0 0 0 .697-.581q.295-.368.384-.915.075-.498-.1-1.118a2.56 2.56 0 0 0 -.563-1.06zm-1.278 2.267a.8.8 0 0 1 -.302.268 2.6 2.6 0 0 1 -.496.19l-1.564.44-.482-1.71 1.48-.416q.685-.192 1.007-.07.307.126.438.586.123.431-.081.712m41.535-1.51q.245-.21.549-.27a1.9 1.9 0 0 1 .72.063l2.412.605.35-1.385-2.44-.612q-1.661-.416-2.658.264-1.007.683-1.466 2.503-.234.931-.136 1.674.088.735.506 1.313.341.461.774.707.417.248 1.206.446l2.478.621.355-1.403-2.414-.605q-.843-.213-1.06-.7-.231-.49.033-1.551.31-1.248.791-1.67m-16.275-1.271-1.895-.07q-.38-.013-.59-.184-.173-.174-.16-.47.015-.418.235-.573.223-.18.771-.158l3.664.128.055-1.474-3.88-.14q-1.282-.048-1.908.47-.636.526-.677 1.666-.04 1.08.518 1.615.599.534 1.787.576l1.692.061c.183.01.33.022.44.045a.6.6 0 0 1 .259.115q.188.183.177.537-.014.343-.228.488a.63.63 0 0 1 -.312.113q-.207.032-.478.026l-3.702-.134-.054 1.465 3.927.143q1.269.047 1.903-.463c.422-.34.65-.881.675-1.622q.041-1.107-.469-1.61-.507-.505-1.75-.55m-9.056.678q.32-.565.24-1.39-.107-1.118-.771-1.587-.628-.48-1.92-.357l-3.632.35.686 7.101 1.663-.16-.259-2.686 1.493-.143 1.747 2.541 1.886-.181-2.001-2.748q.586-.234.868-.74m-1.608-.612q-.245.202-.9.264l-1.624.157-.144-1.478 1.625-.157q.676-.068.943.073.24.144.278.544.039.398-.178.597m-9.981-1.435-1.648 7.556 1.772-.326.3-1.72 2.743-.503.911 1.498 1.847-.338-4.253-6.473zm.708 3.958.407-2.283 1.227 1.983zm12.506-5.508.205 7.13 1.74-.049-.203-7.132zm17.156 2.798q.453-.29 1.302-.158l2.395.377.223-1.429-2.279-.358a8 8 0 0 0 -.918-.096 4 4 0 0 0 -.756.04q-.355.055-.626.154-.273.101-.533.277-.48.373-.72.96-.257.592-.466 1.923l-.512 3.25 1.657.259.439-2.783 4.048.636.222-1.42-4.048-.635c.077-.48.266-.81.572-.999z" fill="url(#d)"/><path d="m31.552 154.023.203 7.13 1.743-.05-.205-7.13zm23.706 4.19q.244-.21.55-.27a1.8 1.8 0 0 1 .717.062l2.414.604.347-1.384-2.44-.612q-1.656-.416-2.656.265-1.006.682-1.464 2.503-.236.93-.14 1.672.092.737.507 1.314.342.46.773.706.42.247 1.208.445l2.477.621.355-1.402-2.414-.605q-.842-.212-1.06-.699-.232-.491.033-1.552.313-1.247.793-1.668m-16.274-1.272-1.894-.068q-.385-.014-.592-.185-.172-.173-.16-.468.015-.42.234-.574.224-.18.772-.159l3.665.128.053-1.475-3.878-.14q-1.285-.048-1.91.47-.636.525-.677 1.666-.038 1.079.519 1.615.599.533 1.787.576l1.694.061c.18.01.327.022.438.045a.64.64 0 0 1 .262.115q.184.183.173.537-.014.342-.227.488a.65.65 0 0 1 -.31.113 2.7 2.7 0 0 1 -.48.027l-3.702-.134-.054 1.464 3.927.145q1.267.045 1.903-.465c.422-.338.65-.88.674-1.621q.041-1.107-.467-1.611-.51-.505-1.75-.55m-23.984.514q-.385-.42-.94-.6a2 2 0 0 0 -.367-.07 5 5 0 0 0 -.472.017q-.472.044-1.246.262l-3.107.874 1.935 6.867 1.608-.453-.653-2.317 1.559-.439a7.7 7.7 0 0 0 1.266-.47q.402-.213.697-.58.296-.37.385-.916.073-.495-.1-1.118a2.6 2.6 0 0 0 -.565-1.057m-1.279 2.267a.8.8 0 0 1 -.301.268 2.5 2.5 0 0 1 -.498.191l-1.562.44-.481-1.71 1.48-.416q.685-.192 1.006-.07.31.127.44.585.118.432-.084.713zm16.205-2.102q.32-.564.24-1.391-.108-1.117-.772-1.585-.627-.481-1.92-.356l-3.63.35.684 7.101 1.663-.161-.258-2.686 1.492-.144 1.748 2.542 1.886-.181-2-2.748q.583-.234.867-.74zm-1.61-.613q-.243.202-.9.265l-1.625.157-.143-1.477 1.625-.158c.449-.044.763-.017.942.072q.24.144.278.545.04.398-.176.596m-9.978-1.433-1.647 7.554 1.769-.325.301-1.72 2.742-.504.912 1.498 1.845-.34-4.251-6.472zm.706 3.957.407-2.284 1.228 1.983zm29.663-2.709q.453-.292 1.301-.158l2.396.377.225-1.43-2.281-.358a8 8 0 0 0 -.917-.096q-.404-.015-.757.039c-.236.035-.447.09-.626.155q-.274.098-.532.275-.484.375-.723.96-.255.592-.464 1.923l-.512 3.25 1.658.26.438-2.782 4.047.636.223-1.42-4.048-.636q.113-.717.572-.996z" fill="url(#c)"/><path d="m39.597 214.152a5.5 5.5 0 0 1 -5.501 5.501 5.5 5.5 0 0 1 -5.501-5.5 5.5 5.5 0 0 1 5.501-5.502 5.5 5.5 0 0 1 5.501 5.501" fill="url(#b)"/><path d="m34.498 208.058c-3.684 0-6.686 3.001-6.686 6.687s3 6.688 6.686 6.688c3.688 0 6.69-3 6.69-6.688a6.695 6.695 0 0 0 -6.69-6.687m0 12.781a6.1 6.1 0 0 1 -6.093-6.094 6.1 6.1 0 0 1 6.093-6.093 6.1 6.1 0 0 1 6.095 6.093 6.096 6.096 0 0 1 -6.095 6.094" fill="url(#a)"/><path d="m34.095 207.26a6.9 6.9 0 0 0 -6.894 6.894c0 3.801 3.093 6.896 6.894 6.896s6.896-3.095 6.896-6.896c0-3.804-3.094-6.894-6.896-6.894m0 13.149a6.264 6.264 0 0 1 -6.257-6.258 6.265 6.265 0 0 1 6.257-6.258 6.266 6.266 0 0 1 6.258 6.258 6.26 6.26 0 0 1 -6.258 6.258" fill="#cb3332"/><path d="m29.392 213.19c2.954-.738 7.282-.733 6.268 3.34 3.61-2.612 2.064-6.986.27-7.195-1.22.65-6.538 3.855-6.538 3.855m.604 3.37h8.459s-1.356 2.284-4.298 2.33c-2.938.048-4.161-2.33-4.161-2.33" fill="#0a0f2d"/><g fill="#fff"><path d="m32.313 192.885q-.124.468-.284.927c3.437.269 7.437-1.372 8.324-2.338-1.39.502-4.782 1.68-8.04 1.411m1.644-9.201q-.043.54-.137 1.07c1.907.22 3.781-.398 4.909-1.345-1.632.172-3.134.39-4.772.275m.307-20.366h-.272c-11.516 0-23.588 2.465-30.356 5.446q.012.522.037 1.062c6.776-2.973 18.828-5.426 30.32-5.426h.27c11.491 0 23.545 2.453 30.321 5.426q.023-.541.036-1.062c-6.767-2.981-18.839-5.446-30.356-5.446"/><path d="m14.663 167.296c-1.354.279-4.32 1.11-5.517 1.436-1.954 4.653-2.796 38.616 17.25 51.204-19.347-16.163-13.982-45.734-11.733-52.64m39.389 0c2.249 6.906 7.613 36.477-11.734 52.64 20.046-12.587 19.204-46.55 17.251-51.204-1.198-.327-4.162-1.157-5.517-1.436"/></g></g></svg>