<svg viewBox="0 0 771.1 975.2" xmlns="http://www.w3.org/2000/svg"><path d="m18.2 479.2c-1.8-8-3.5-16.2-5-24.5 1.5 8.3 3.2 16.4 5 24.5" fill="#fff"/><path d="m385.6 0 385.5 78.7zm0 0-385.6 78.7z" fill="#fff"/><path d="m6.7 412.8c-1.8-14.4-3.2-29.2-4.2-44.5 1 15.3 2.4 30.1 4.2 44.5m6.5 42c-2.5-13.6-4.7-27.6-6.5-42 1.8 14.4 3.9 28.4 6.5 42m410.4 497.6c-2.4 1.6-4.7 3-6.9 4.4 2.2-1.4 4.5-2.9 6.9-4.4m37.1-25.9c-4.6 3.4-9.1 6.6-13.4 9.7 4.3-3.1 8.8-6.3 13.4-9.7m-78 47c1.3.7 2.2 1.2 2.9 1.5.7-.3 1.6-.8 2.9-1.5-1.3.7-2.2 1.2-2.9 1.5-.7-.3-1.6-.8-2.9-1.5m56.3-31.4c-4.1 2.8-8 5.5-11.7 7.9 3.7-2.5 7.6-5.1 11.7-7.9m-28.6 18.7c-4 2.5-7.7 4.7-10.8 6.5 3.2-1.8 6.8-4 10.8-6.5m132.1-103.9c-3.6 3.5-7.2 7-10.8 10.4 3.6-3.4 7.2-6.8 10.8-10.4m16.3-16.4c-3.6 3.8-7.3 7.4-10.9 11.1 3.6-3.6 7.2-7.3 10.9-11.1m-159.3 126.8c-4.8 2.8-8.5 4.8-11 6.2 2.5-1.3 6.3-3.4 11-6.2m75.4-51.5c-3.2 2.5-6.4 4.9-9.5 7.3 3.1-2.4 6.3-4.8 9.5-7.3m-151.1 20.4c-4.3-3.1-8.8-6.3-13.4-9.7 4.6 3.4 9.1 6.6 13.4 9.7m-18-13.1c-3.1-2.4-6.3-4.8-9.5-7.3 3.2 2.5 6.4 4.9 9.5 7.3m76.9 50.4c-2.5-1.3-6.3-3.4-11-6.2 4.8 2.8 8.5 4.8 11 6.2m-159.4-122c-2.7-2.7-5.4-5.4-8.1-8.2 2.7 2.8 5.4 5.5 8.1 8.2m-198.1-343.9c-2-7.5-3.9-15.2-5.7-22.9 1.8 7.7 3.7 15.4 5.7 22.9m211.7 357.1c-2.7-2.6-5.4-5.2-8.2-7.9 2.7 2.7 5.5 5.3 8.2 7.9m134.8 102.6c-3.2-1.8-6.8-4-10.8-6.5 4 2.5 7.7 4.7 10.8 6.5m-27.8-17.3c-3.7-2.5-7.6-5.1-11.7-7.9 4.1 2.8 8 5.5 11.7 7.9m10.6 6.9c-2.2-1.4-4.5-2.9-6.9-4.4 2.4 1.6 4.7 3 6.9 4.4m-352-588.6c-.7-10.2-1.2-20.6-1.6-31.2.3 10.6.9 21 1.6 31.2" fill="#fff"/><path d="m765 287.7.5-204.4-379.9-77.6-380 77.6.5 204.3c-3 183.8 41.2 297.7 113.4 421.9 94.4 162.4 245.3 248 266.1 259.2 20.7-11.2 171.6-96.8 266.1-259.2 72.2-124.2 116.4-238 113.4-421.8zm-15.8.2c2.9 180.1-40.4 291.7-111.2 413.5-49.2 84.6-115.1 147.8-161.8 185.9-41.5 33.8-75.1 54.5-90.6 63.2-15.4-8.8-49.1-29.4-90.6-63.2-46.6-38.1-112.5-101.2-161.8-185.9-70.8-121.8-114.2-233.5-111.2-413.5v-.4l-.5-191.3 364.1-74.4 364.1 74.4-.5 191.3v.2z" fill="#fff"/><path d="m731.8 287.5.4-177.1-346.6-70.9-346.7 70.9.4 177.1v.8c-2.9 176 39.5 285.3 108.9 404.5 47.9 82.4 112.2 144 157.7 181.1 33.8 27.6 62.1 46.1 79.6 56.6 17.5-10.5 45.8-29 79.6-56.6 45.5-37.2 109.8-98.7 157.7-181.1 69.3-119.2 111.7-228.5 108.9-404.5v-.8zm-144.9 431.2c-89.1 128.9-201.3 193-201.3 193s-111.9-63.8-200.9-192.2v-257.4s-32.8-50.7-39.2-60.7v-68.1c12.3-2.3 22.9-4.2 30.7-5.7 1.4-.3 2.8-.5 4-.7v28.7l10.6-1.9c5.8-1 13.9-2.4 24.8-4 16.7-2.4 27.8-3.6 34.4-4.2l8-.7v-27.8c24-2.9 47.6-4.8 65.8-5.9 10-.6 18.4-1 24.2-1.3v30.1l9.3-.4c6.2-.3 21.4-.6 28.2-.6s22.4.3 28.6.6l9.3.4v-30.1c16.5.7 52.7 2.6 90 7.2v27.8l8 .7c6.6.6 17.8 1.8 34.4 4.2 10.9 1.6 19 2.9 24.8 4l10.6 1.9v-28.7c8 1.4 20.1 3.7 34.7 6.4v68.1c-6.4 9.9-39.2 60.7-39.2 60.7v256.5zm128.7-431.1c0 121.9-12.1 239.4-106.3 396.5-1.5 2.5-3.1 5-4.6 7.5v-225c2.9-4.6 39.3-60.8 39.3-60.8v-85.3l-7.1-1.3c-30.9-5.8-52.6-9.7-52.7-9.7l-10.6-1.9v28.8c-4.2-.7-9.1-1.4-14.7-2.3-11.6-1.7-20.7-2.8-27.5-3.6v-27.3l-7.6-1c-54.5-7.2-108.7-8.7-108.9-8.7l-9.2-.3v30c-7-.2-15.3-.3-20.1-.3s-12.8.1-19.7.3v-30l-9.2.3c-.2 0-54.4 1.5-108.9 8.7l-7.6 1v27.3c-6.8.7-15.9 1.9-27.5 3.6-5.6.8-10.5 1.6-14.7 2.3v-28.8l-10.6 1.9s-21.8 3.8-52.7 9.7l-7.1 1.3v85.3s33.6 52 39.3 60.8v226c-1.7-2.8-3.5-5.6-5.2-8.5-94.2-157-106.3-274.6-106.3-396.5s-.3-164.1-.3-164.1l330.5-67.6 330.5 67.5s-.5 42.3-.5 164.1z" fill="#fff"/><g fill="#0053db"><path d="m626.1 333.4c-14.6-2.7-26.7-4.9-34.7-6.4v28.7l-10.6-1.9c-5.8-1-13.9-2.4-24.8-4-16.7-2.4-27.8-3.6-34.4-4.2l-8-.7v-27.8c-37.3-4.6-73.6-6.5-90-7.2v30.1l-9.3-.4c-6.2-.3-21.9-.6-28.6-.6-6.8 0-22 .3-28.2.6l-9.3.4v-30.1c-5.8.2-14.2.7-24.2 1.3-18.2 1.1-41.8 3-65.8 5.9v27.8l-8 .7c-6.6.6-17.8 1.8-34.4 4.2-10.9 1.6-19 2.9-24.8 4l-10.6 1.9v-28.7c-1.2.2-2.6.5-4 .7-7.8 1.4-18.4 3.4-30.7 5.7v68.1c6.4 9.9 39.2 60.7 39.2 60.7v257.4c89 128.4 200.9 192.2 200.9 192.2s112.2-64.1 201.3-193v-256.5s32.8-50.7 39.2-60.7v-68.1zm-286.2 491.8h-8.3v-38.3c-1.3.4-3 .6-4.7.5v-8c4.3 0 5.4-.9 5.4-4h7.6zm35.7-29.5c0 4.8-1 8.7-2.8 12.7l-7.6 16.9h-8.9l7.4-15.8c-1.2.3-2.4.4-3.5.4-8.1 0-12.1-5.3-12.1-13.3v-7.4c0-8.6 5.5-14.3 13.8-14.3s13.8 5.8 13.8 14.3v6.6zm34.4 15.8c0 8.4-5.7 14.3-13.9 14.3s-13.8-5.9-13.8-14.3v-22.4c0-8.5 5.7-14.4 13.8-14.4s13.9 5.9 13.9 14.4zm34.3-1.6c0 9.5-4.7 16-13.9 16s-13.8-5.8-13.8-14.3h8.3c0 4.7 2.5 6.3 5.7 6.3s5.4-2.2 5.4-6.3v-5.8c0-4.6-1.7-7.3-5.6-7.3s-4.7 2.5-5.2 3.8l-7.8-1.3 3.9-25.7h21v8h-14.4l-1.7 10.9c.6-.7 2.8-2.5 6.6-2.5 7.6 0 11.5 4.5 11.5 14zm68-192.9c-11.5 20.3-23.8 37.9-36.7 53.3-20.6 24.6-42.6 43.4-64.9 58.2-2.8 1.9-5.6 3.6-8.4 5.4-5.6 3.5-11.2 6.7-16.7 9.7-5.6-3-11.2-6.2-16.7-9.7-8.4-5.2-16.7-10.9-25-17.2s-16.5-13.3-24.5-21c-21.5-20.5-42-46.1-60.4-78.6-37.3-65.7-48.7-133.8-47.5-192.4 29.1-16.6 62.9-29.7 101-37.2 7.6-1.5 15.4-2.8 23.4-3.8s16.1-1.8 24.4-2.4 16.8-.8 25.4-.8c25.9 0 50.3 2.5 73.2 7 38.1 7.5 71.9 20.6 101 37.2 1.2 58.6-10.3 126.7-47.5 192.4z"/><path d="m396.1 782.7c-3 0-5.5 1.6-5.5 6.4v22.2c0 4.9 2.6 6.5 5.5 6.5s5.6-1.6 5.6-6.4v-22.3c0-4.9-2.6-6.4-5.6-6.4m-34.2 0c-3.1 0-5.5 1.4-5.5 6.9v7.3c0 4.6 2.5 5.9 5.5 5.9s5.5-1.4 5.5-5.9v-7.3c0-5.4-2.3-6.9-5.5-6.9"/><path d="m380.1 202.4 19.2.1-9.4-45.7z"/><path d="m330.7 205.4c-.7-9.8-5.2-12.2-12.8-11.6l-10.6.7 2 30.8 10-.7c8.2-.5 12.5-2.9 11.8-13.6z"/><path d="m624.8 231.2 1.2-46.7-19.8 42.3z"/><path d="m55.2 123.5s.3 42.3.3 164.1 12.1 239.4 106.3 396.5c1.7 2.9 3.5 5.7 5.2 8.5v-226c-5.6-8.7-39.3-60.8-39.3-60.8v-85.3l7.1-1.3c30.9-5.8 52.6-9.7 52.7-9.7l10.6-1.9v28.8c4.2-.7 9.1-1.4 14.7-2.3 11.6-1.7 20.7-2.8 27.5-3.6v-27.3l7.6-1c54.5-7.2 108.7-8.7 108.9-8.7l9.2-.3v30c6.9-.2 14.9-.3 19.7-.3s13.1.1 20.1.3v-30l9.2.3c.2 0 54.4 1.5 108.9 8.7l7.6 1v27.3c6.8.7 15.9 1.9 27.5 3.6 5.6.8 10.5 1.6 14.7 2.3v-28.8l10.6 1.9s21.8 3.8 52.7 9.7l7.1 1.3v85.3s-36.4 56.2-39.3 60.8v225c1.6-2.5 3.1-5 4.6-7.5 94.2-157 106.3-274.6 106.3-396.5s.5-164.1.5-164.1l-330.6-67.6-330.4 67.5zm108.3 143.4c-17.8 4.2-33.2-4.5-37.7-23.7l17.6-4.1c2.4 10.2 9.2 12.6 16.2 10.9 6.8-1.6 10.9-6.9 9.2-14-4.3-18.5-47.6-18-53.9-44.7-3.9-16.7 4.9-30.3 22.4-34.4 16.8-3.9 31.5 4.8 35.8 23.2l-17.5 4.1c-2.2-9.4-8.1-12.2-14.7-10.7-6.5 1.5-10 6.4-8.5 12.7 4.4 19 46.8 16.1 53.5 44.5 4.1 17.6-3.8 31.8-22.4 36.2m65.2-13c-17.7 2.9-32.1-8-35.1-26.3l-8-48.6c-3-18.5 7.2-33.4 24.9-36.3s32.3 8 35.3 26.4l.9 5.7-18 2.9-1.1-6.5c-1.6-9.8-7.9-12.3-14.3-11.2-6.2 1-11.5 5.2-9.8 15.2l8.2 50c1.6 9.8 7.9 12.3 14.2 11.3 6-1 11.6-5.2 10-15.2l-1.3-7.8 18-2.9 1.2 7.2c3 18.3-7.3 33.3-25 36.2zm92.4-12-28.8 1.9-7.3-109.7 27.8-1.9c17.9-1.2 30.7 5.9 32 25.8l.3 5.1c.8 12-2.8 18.5-9.6 21.9 7.7 2.8 12.6 8.4 13.4 21.3l.4 6.4c1.3 19.4-10.5 27.9-28.4 29.1zm320.5-81.3.4 112.9-18.1-4.2.3-22-24.9-5.8-9.6 19.9-18.1-4.2 50.8-101 19.1 4.5zm-56.1-12.1-19.4 108.2-18-3.2 19.4-108.2zm-84.9-12.8 55 7.3-2.3 17.6-18.5-2.5-12.1 91.3-18.1-2.4 12.1-91.3-18.4-2.4zm-74.1 74.4 18 1.3c-.7 10.4 5 14.7 12.2 15.3 7 .5 12.4-3.3 13-10.6 1.4-19-40.1-31.3-38.1-58.7 1.2-17.1 13.7-27.5 31.6-26.2 17.3 1.2 28.7 13.9 27.3 32.8l-17.9-1.3c.7-9.6-4.2-14.1-10.8-14.5-6.7-.5-11.5 3.1-11.9 9.6-1.4 19.4 39.9 29.3 37.9 58.4-1.3 18-13 29.2-32.2 27.9-18.2-1.3-30.4-14.2-29-33.8zm-1 29.9h-18.6l-4.6-21.6h-25.6c0-.1-4.9 21.4-4.9 21.4h-18.6l27-109.9h19.6l25.6 110.1z"/><path d="m327.3 166.2-.3-4.2c-.7-11.2-5.8-12.6-13.6-12.1l-9 .6 2 29.6 10.3-.7c6.8-.5 11.4-2.5 10.7-13.2z"/></g><path d="m771.1 78.7-385.5-78.7-385.6 78.7.5 208.9c-.3 17.1-.2 33.5.4 49.5.3 10.6.9 21 1.6 31.2 1 15.3 2.4 30.1 4.2 44.5s3.9 28.4 6.5 42c1.5 8.3 3.2 16.4 5 24.5.4 1.8.8 3.7 1.2 5.5 1.8 7.7 3.7 15.4 5.7 22.9 6.9 25.6 15.2 50.2 24.7 74.3 1.6 4 3.2 8 4.9 12 5 12 10.3 23.8 15.9 35.6 1.9 3.9 3.8 7.9 5.7 11.8 11.6 23.6 24.4 47 38.3 70.9 22.8 39.2 49.1 74.2 76 104.7 1.8 2 3.6 4.1 5.4 6.1 6.3 7 12.7 13.8 19 20.3 2.7 2.8 5.4 5.5 8.1 8.2l5.4 5.4c2.7 2.7 5.5 5.3 8.2 7.9 2.7 2.5 5.3 5 8 7.5 12.5 11.5 24.8 22.1 36.5 31.7 3.4 2.7 6.7 5.4 10 8 1.6 1.3 3.3 2.6 4.9 3.8 3.2 2.5 6.4 4.9 9.5 7.3 1.6 1.2 3.1 2.3 4.6 3.5 4.6 3.4 9.1 6.6 13.4 9.7 2.9 2 5.7 4 8.4 5.9 4.1 2.8 8 5.5 11.7 7.9 1.2.8 2.5 1.6 3.7 2.4 2.4 1.6 4.7 3 6.9 4.4s4.3 2.7 6.3 4c4 2.5 7.7 4.7 10.8 6.5 4.8 2.8 8.5 4.8 11 6.2 1.3.7 2.2 1.2 2.9 1.5.7-.3 1.6-.8 2.9-1.5 2.5-1.3 6.3-3.4 11-6.2 3.2-1.8 6.8-4 10.8-6.5 2-1.2 4.1-2.6 6.3-4s4.5-2.9 6.9-4.4c1.2-.8 2.4-1.6 3.7-2.4 3.7-2.5 7.6-5.1 11.7-7.9 2.7-1.9 5.5-3.8 8.4-5.9 4.3-3.1 8.8-6.3 13.4-9.7 1.5-1.1 3.1-2.3 4.6-3.5 3.1-2.4 6.3-4.8 9.5-7.3 17.7-13.8 37-30 56.7-48.5 3.6-3.4 7.2-6.8 10.8-10.4 1.8-1.8 3.6-3.5 5.4-5.4 3.6-3.6 7.2-7.3 10.9-11.1 34.4-35.7 68.8-78.5 97.7-128.2 9.3-15.9 18.1-31.7 26.3-47.4 4.1-7.9 8.1-15.7 12-23.6 1.9-3.9 3.8-7.9 5.7-11.8 33.6-70.8 56.4-143.2 65.6-231.3 1-9.8 1.9-19.8 2.6-29.9.7-10.2 1.2-20.6 1.6-31.2.5-15.9.6-32.4.4-49.5l.5-208.9zm-119.4 630.7c-94.4 162.4-245.3 248-266.1 259.2-20.7-11.2-171.6-96.8-266.1-259.2-72.2-124.2-116.4-238-113.4-421.9l-.5-204.3 380-77.5 380 77.6-.5 204.4c3 183.7-41.2 297.6-113.4 421.8z"/><path d="m749.7 96.2-364.1-74.4-364.1 74.4.5 191.3v.4c-2.9 180.1 40.4 291.7 111.2 413.5 49.2 84.6 115.1 147.8 161.8 185.9 41.5 33.8 75.1 54.5 90.6 63.2 15.4-8.8 49.1-29.4 90.6-63.2 46.6-38.1 112.5-101.2 161.8-185.9 70.8-121.8 114.2-233.5 111.2-413.5v-.4zm-17.9 191.8v.2c2.9 176-39.5 285.3-108.9 404.5-47.9 82.4-112.2 144-157.7 181.1-33.8 27.6-62.1 46.1-79.6 56.6-17.5-10.5-45.8-29-79.6-56.6-45.5-37.2-109.8-98.7-157.7-181.1-69.3-119.2-111.7-228.5-108.9-404.5v-.8l-.4-177.1 346.6-70.8 346.7 70.8-.4 177.1v.6z"/><g fill="#fff"><path d="m326.9 779.4v8c1.7.1 3.5 0 4.7-.5v38.3h8.3v-49.8h-7.6c0 3.1-1.1 4-5.4 4m35-4.7c-8.3 0-13.8 5.8-13.8 14.3v7.4c0 8 4 13.3 12.1 13.3s2.3-.1 3.5-.4l-7.4 15.8h8.9l7.6-16.9c1.8-4 2.8-7.8 2.8-12.7v-6.6c0-8.6-5.5-14.3-13.8-14.3zm5.5 22.2c0 4.5-2.4 5.9-5.5 5.9s-5.5-1.3-5.5-5.9v-7.3c0-5.4 2.4-6.9 5.5-6.9s5.5 1.4 5.5 6.9zm28.7-22.2c-8.1 0-13.8 5.9-13.8 14.4v22.4c0 8.4 5.7 14.3 13.8 14.3s13.9-5.9 13.9-14.3v-22.4c0-8.5-5.7-14.4-13.9-14.4m5.6 36.7c0 4.9-2.7 6.4-5.6 6.4s-5.5-1.6-5.5-6.5v-22.2c0-4.9 2.5-6.4 5.5-6.4s5.6 1.6 5.6 6.4zm31-19.7c-3.8 0-6 1.8-6.6 2.5l1.7-10.9h14.4v-8h-21l-3.9 25.7 7.8 1.3c.6-1.3 1.7-3.8 5.2-3.8s5.6 2.7 5.6 7.3v5.8c0 4.1-2.3 6.3-5.4 6.3s-5.7-1.6-5.7-6.3h-8.3c0 8.5 5.7 14.3 13.8 14.3s13.9-6.4 13.9-16v-4.2c0-9.5-4-14-11.5-14m-300.2-605.4c-1.5-6.4 2-11.2 8.5-12.7s12.5 1.2 14.7 10.7l17.5-4.1c-4.3-18.4-19-27.1-35.8-23.2-17.5 4.1-26.3 17.7-22.4 34.4 6.3 26.7 49.5 26.2 53.9 44.7 1.7 7.1-2.4 12.4-9.2 14-7 1.6-13.8-.8-16.2-10.9l-17.6 4.1c4.5 19.1 20 27.8 37.7 23.7 18.7-4.4 26.6-18.5 22.4-36.2-6.6-28.4-49-25.5-53.5-44.5m120.1 24.2-18 2.9 1.3 7.8c1.6 10-4 14.2-10 15.2-6.3 1-12.6-1.4-14.2-11.3l-8.2-50c-1.6-10 3.7-14.2 9.8-15.2 6.5-1.1 12.7 1.4 14.3 11.2l1.1 6.5 18-2.9-.9-5.7c-3-18.5-17.6-29.3-35.3-26.4s-27.9 17.8-24.9 36.3l8 48.6c3 18.3 17.4 29.2 35.1 26.3s28-17.9 25-36.2l-1.2-7.2zm96.4-4c-.9-12.9-5.8-18.5-13.4-21.3 6.8-3.4 10.4-9.9 9.6-21.9l-.3-5.1c-1.3-19.9-14.1-27-32-25.8l-27.8 1.9 7.3 109.7 28.8-1.9c17.9-1.2 29.7-9.6 28.4-29.1l-.4-6.4zm-44.6-56 9-.6c7.8-.5 12.9.9 13.6 12.1l.3 4.2c.7 10.7-3.8 12.8-10.7 13.2l-10.3.7-2-29.6zm14.9 74.1-10 .7-2-30.8 10.6-.7c7.6-.5 12.2 1.8 12.8 11.6l.4 5.6c.7 10.7-3.5 13-11.8 13.6m34 15.1h18.6l4.9-21.4h25.6c0 .1 4.6 21.6 4.6 21.6h18.6l-25.6-109.9h-19.6l-27 109.7zm46-37.2h-19.2l9.9-45.7zm56.2 41.4c19.1 1.4 30.9-9.8 32.2-27.9 2.1-29.1-39.3-38.9-37.9-58.4.5-6.5 5.3-10.1 11.9-9.6 6.7.5 11.5 4.9 10.8 14.5l17.9 1.3c1.4-18.8-10.1-31.5-27.3-32.8-17.9-1.3-30.4 9.1-31.6 26.2-2 27.4 39.5 39.7 38.1 58.7-.5 7.3-6 11.1-13 10.6-7.2-.5-12.9-4.8-12.2-15.3l-18-1.3c-1.4 19.6 10.8 32.5 29 33.8z"/><path d="m553.3 160.7 2.4-17.7-55.1-7.3-2.3 17.7 18.4 2.4-12.1 91.3 18.1 2.4 12.1-91.3z"/><path d="m548.545 253.64 19.461-108.163 17.913 3.223-19.462 108.163z"/><path d="m589.8 261.4 9.6-19.9 24.9 5.8-.3 22 18.1 4.2-.4-112.9-19.1-4.5-50.8 101 18.1 4.2zm36.2-76.9-1.1 46.6-18.7-4.4 19.8-42.3zm-182.9 363.8c-.6-5-3.3-8.3-4.6-9.5-.3.4-.6.7-1 1 .6 3.7 3.5 13.9 9.7 19.1-4.7-2.6-9.5-11.7-11-18.2-.5.4-1 .6-1.6.8 5.8 9.3 4.7 17.3 9.1 22.9 5.8 7 18.2 3.3 21.4 16.7.3-2.7.3-5.9-.2-8.9 1.4 3.1 1.6 7.6 1.8 10.8v2.4l.7-1c.5-2.6 1-6.8.3-10.6.9 1.9 1.3 5.4 1.4 8.1l1.1-1.6c0-2 0-4.1-.4-6.2.6 1.2 1 3.1 1.2 4.9l2.1-3c.2-3.1-.3-12.4-.3-12.4-.3-1.9-1.2-4.7-4.1-6.1-4.2-2.5-14.9-4.2-19.2-10-1.2-1.9-3.9-5.9-6.2-8.7-.4-.2-.8-.5-1.2-.8 1 2.1 1.5 4.9 1.3 6.9-.6-4.6-2.7-7.1-3.7-8.1-.2.4-.5.9-.8 1.2 3.7 3.5 3.6 6.2 3.9 10.3zm-11.5-9.2c.6 1.6 7.3-1 7.7-6.2s-4.2-5.4-4.8-4.9c-.9.9 1.1 1.8.9 5.2-.6 3.4-4.5 3.7-3.8 5.8zm-69.1-43.5c-10.8-.4-34-8.5-36.9-11 6 2 38.1 11.4 32 6.3-6-5-39-19.2-41.5-19.4-.4-.2-1.3-.3-1.5.8-.5 2.4-4.4 4.5-5.5 5-2.2 1-1.9 3.7-1.3 4.3.2 1.1 4.6 4.6 5.2 5.1-.3 0-1.5-.5-3.7-.6-2.5-.2-2.8 1.6-3 2s-1.1 2.7-.4 3.7c.5 1 6.1 3.9 6.1 3.9l-6.2-.5s-1.1.7-1.2 3.8c0 5.9 9 6.8 13.2 8.5 2.6.9 12.2 5.8 20.1 8.1 8 2.2 20.9 1.7 24.8 2.1 0 0-2.9 1.5-8.7 1.9.9.5 11.8 5.3 17.6 5.3.9-1.3 5.5-6.7 12-8.6 10.3-2.3 15.1 5.8 15.6 9 .7 5.1-1.4 9.5-3.9 11.4s-5 2.2-7.2 6c-2.2 5.7-5.1 12.2-9.5 12.2s-5.2-1.8-5.9-2.8c0 .4.6 4.5 6.4 4.9 5.7.3 9-7.3 10.5-10.9 1.5-3.7 4.6-5.3 6.6-6.5 2.1-1.2 4.5-4.2 5.2-6.1.6-1.2 2.4-1.7 4.6-.7 1.7.8 2.6 3 7.7 3.2 2.6.2 8.3 0 10.6-1.2-2.1-3.1-5.2-.5-9-2.2-4.3-1.4-5.9-3.1-10-3.2 4.2-1.5 9.7 1.9 15.9 1.4 4-.1 4 3.4 8.7 3.7.6 0 2.5-.3 2.5-2-.2-6.5-8.9-9-12.5-11.4-4.6-2.5-13-12-24.1-14.8-2.4-.5-7.2-1.5-10.9-3.3.9 0 4.3 0 6-.8-4.1-.4-10.3-1.9-14.6-4.2-5.2-2.7-10.7-1.9-13.7-2zm-32.2 10c-7-4.5-16.4-5.8-22.3-6.1 6.3-.2 13.4-2.2 24.8 4.1 7.5 5.2 22.1 4 24.8 3.2-3.7 2.9-19.4 3.9-27.4-1.3zm61.4 3.5c9.2 1.3 16.9 5.3 24.7 11.1 4.6 3.5 11.9 5.5 12.8 10.1-1.7-2.5-9.4-6.2-17-6.5-7.7-.3-9.4.2-11.2-2.3-5.2-7-21.8-14.3-29.5-17 11.7 2.4 24.2 7.6 31.2 15.7.8.9 2.8 1.4 5.3 1.4 2.6 0 6.8.5 7.9 1.1-1.3-1.4-11.7-10-24.2-13.6"/><path d="m381.4 537.5c-1.5 1.4-.6 5.7-2.3 5.7s0-2.3-2.2-2c-1.7.1-1.7 3.9 1.4 4.6 4.4.8 4-3 5-6.1.5-1.6 4.8-1.5 4.8-5.7s-4.8-3.9-4.9-2.5c0 1.3 2.2 1.1 2.2 2.5s-2.4 2.2-3.9 3.7zm77.8-12.4c-.8 2-6.2 6.1-18.1 5.6 0 .2 0 .5.1.8 5.3 1.9 14.6 1.1 18.9-2.2-3.2 3.4-10.1 5.9-18.8 3.5 0 .5-.1 1-.3 1.6 1.3.8 2.7 1.7 3.6 2.4 2.5 1.9 6.8 2.2 9.8.9s12.1-4.3 15-9.3c2.5-4.4 3.3-7.1 4.6-13.4 1.4-6.2 17.1-44 17.1-44-4.4.4-15.9 1.4-15.9 1.4-.7 1.8-4.6 8.6-12.3 6.2 2.4 8.1 1.3 22.7-1.1 27 .8-3.3 2.2-21.7-.8-28.3-.9-.9-1.3-1.6-1.4-3.4 0-1.8 2.2-4.8 6.3-5.2 4-.4 9 0 8.9-3 0-3.1-4.2-2.8-5.4-2.8-8.6 0-10.7 10.3-20.6 9.1 0 0 7.3 25.3 8 27.3.9 2.3 5.4 30.8-16.3 29.6 0 .1.1.3.2.5 3.8.7 14.3.6 18.6-4.2zm21.6-49.7c-2.5 0-4.1-.1-6 2.5 1.3-3.6 4.4-3 6-2.5m-7.6 5.2s-1.9 7.9 1.4 12.6c-3-.8-4.1-9-1.4-12.6"/><path d="m393.6 530.8c.6-1.8 1.9-7.2-2.9-10.2-5.6-3.4-15.7 4.2-16.2 7.9 0 3.5 9.2-9.2 14.8-5.6 3.7 2.4 1.9 8 1.4 9.5-.2 2.2 2.2.6 2.9-1.6m41.9 103.2c1.1 8.2 6.3 9.5 9.6 8.6-3-1.4-5.9-4.8-6.2-5.8 1.1 1.7 4.9 4.4 8.1 4.9 0 0 .1 0 .2-.1l.9-.9c-3.3-.8-7.1-5.1-7.3-6.2 1.1 1.7 4.9 4.5 8.2 4.9.2-.3.3-.7.5-1-3.3-.8-7-5.1-7.3-6.2 1 1.6 4.6 4.2 7.7 4.8 1.2-5.3-1.6-11.9-1.9-14.2l-12.6 11.4zm9.6-29c.9.8 6.2 13.9 6.8 26.3.7-2.4 1.6-7.3.9-11.8 1 2.4 1.2 7 1.2 9.6.3-.3.5-.6.8-.9.6-2.6 1.1-6.6.6-10.3.9 2.1 1.1 5.9 1.2 8.6.5-.5 1-.9 1.5-1.4.4-2.5.7-5.7.2-8.8.8 1.8 1.1 4.9 1.2 7.5.6-.5 1.1-1 1.6-1.4.3-2.4.5-5.2 0-7.9.7 1.6 1.1 4.4 1.2 6.9.7-.5 1.3-1 1.9-1.4 0-2.1 0-4.3-.5-6.5.7 1.4 1.2 3.6 1.5 5.8.5-.3 1-.6 1.4-.8 0-2.6.9-14.4 4.1-19.9 3.2-4.9 7-11.1 3.7-19.7-5.3 5.9-9.3 18.7-29.4 26.3zm3.8-135.4c.4.1.8.2 1.3.2 7.2-.4 9.7-8.7 17.5-9.3v-4.4c-3.4 3.1-13.8 5.6-16.8 6-3.8.5-5.1 1.8-5.2 3.2 0 .4.1.9.3 1.4 1.3-1 2.6-1.9 4.9-2.2-2 .7-3.5 2.3-4.3 3.3.3.4.6.8 1 1.1 1-1.1 3.4-2.8 5.2-3-1.6.8-3.1 2.5-3.9 3.7m18.8-18.3c0-4.4-6.9-3.3-8.1-2.9v8.9s8.2-2 8.1-6m25.3 15.5c0-1.6-3.5-4.4-4.8-4.4.7 2.9-.7 5.9-1.1 6.3 0 0 5.9-.4 5.9-1.9m-107.4 276.7c-5.6-3-11.2-6.2-16.7-9.7 5.6 3.5 11.2 6.7 16.7 9.7m-41.7-26.9c-8.3-6.3-16.5-13.3-24.5-21 8.1 7.7 16.3 14.6 24.5 21m-30.7-197.3c-2.2 2.2 1.4 5.6 1.4 5.6-1.6 1-1.4 7.9 1.4 8.1 2.8.5 4.1-2.5 3.9-4.7 1.1.9 4.9 2.7 6.9 3-5.5.4-8.9 4-7.1 5.7 1.7-4.1 11.8-2.9 11.8-7.5-10.8-1.3-16.3-7.8-18.2-10.3zm-.8-131.8c7.6-1.5 15.4-2.8 23.4-3.8-8 1-15.8 2.3-23.4 3.8"/><path d="m234.5 438.5c.7 44.4 9.7 105.8 44.6 167.1 27.3 48.4 62.2 84.9 106.5 111.3 44.3-26.4 79.2-63 106.5-111.3 34.8-61.4 43.9-122.8 44.6-167.1-44.7-22.8-96.7-34.8-151.1-34.8s-106.4 12-151.1 34.8m160.7 6.3c1.4.3 9.3.3 9.3.3l.5 3.1c1.6.8 11.1 4.4 13.8 5.8 2.3 1.1 6.3.2 8.9 2.5 0 .1-1.2 3.2-1.2 3.2 1.1.4 3.1.7 5 5.3s5.4 7.8 7.5 8.5 4.7 1.3 5 2.5l-3.5 3.9 7.3 7.2-2.1 3.6c.1 1.2.4 6.7 1.5 8.2 1.1 1.4 2.7 1.2 3.2 3.5.2 1.1-.2 1.9-1.2 2.2-1 .4-4 1.2-4 1.7s3.9 5 4 5.4c-1.1 1.2-6.1 2.2-8.1 2.4.3 2.9 2 7.2 3.2 8.3s-2.1 2.8-6.5 1.1c.1 1 .6 1.9 1 2.9 2.3.5 7.6.9 11-2.4 4.2-3.8 7.2-14.4 4-25.2-1-3.3-7.9-27.3-9.1-29.3-1.3-1.3-1.5-2.6-1.6-3.9-.2-2.2 1.7-4.7 6.2-5.4s7.9-2 7.9-2v-11.7c3.2-.6 12.3-2.5 12.6 4.9v9.2c1.6 0 7 .5 7.1 5.1.2 3.8-3.7 4.5-5.9 4.7-2.3.2-9.4 0-9.2 4.3.2 2.1 3.2 2.3 4 2.3 2.7 0 5.4-2 7.2-6.3l10.8-1.4s2.1-2.1 2.1-4.6c.2-2.1-1-3.7-.6-4.4.5-.7 1.7-.6 2.9-.2 1.1.5 7 3.4 6.7 6.8s-15.3 34.6-19 48.5c-.9 3.3-2.4 13.1-8 18.1-4.2 3.3-14 6.7-15.9 7.2-1.9.4-2.7.3-4.2 0 1.1 1.9 2.6 4.5 3.8 5.9 3.9 4.4 11.6 4.9 18.8 9.2 2.9 1.9 4.7 4.2 4.7 7.6s.3 13.1.3 13.1c1.7 2.1 3 5.7 2.4 10.7-.6 5.7-4.3 10.9-5.8 13.3-2.2 3.9-3.2 13.3-3.4 18.9-2.7 2.5-11.7 7.7-16.1 16.2-.3 2.2-2.5 9.9-9.8 9.8-7.3-.2-9.5-8.5-9.7-10.9 0-.7.3-1.3.6-1.7.7-.6 13.9-13 13.9-13-.3-2.8-3.1-11.8-5.1-15.5 1.9-1.3 15.1-5.3 21.4-15.1-.4-4.3-1.3-9.7-4.1-13.4-2.9-3.7-13-3.1-18.3-10.5-5.1-7-3.4-13.8-9.2-23.4-.8 0-1.6-.4-2.1-.9-.9 2-.9 3.3-.9 3.9-.2 2 0 2.9 1.1 4.7s1.6 3.9 1.9 5c-1.5.4-7.5.6-7.9.6s4.1 5.3 5.2 6.7c1 1.4-.2 1.7-.7 1.8s-5.2.8-5.2.8c.4 3.4 5.2 23 17.4 33.3.8.8.1 1.1 0 1.3-.2.2-12.7 6.4-18 12.3-14.6 13.8-28.2 47.6-58.2 38.7-5.2-31.5-21.4-21.9-25.8-40.2-16.6 4.2-33.5 1.9-35.2-8.5-.8-5.8 3.5-7.3 0-15.9-2.2 0-7.8.2-8.4-3.8-.5-3.2 0-3.8 1-6.1-1.5-.7-4.4-2.8-4.4-5.8 0-4 5.2-4.5 5.3-7.5s0-3 0-3h-6.1c-1.6-.1-4.9-.9-5.1-5.5-.1-2.3 1.1-5.2 2.1-7 1.6-3.4 12.9-24.1 13.1-24.5.2-.5.2-1.9 0-2.6-.4-.8-1.3-3-1.4-5.3s1.7-8.8 2.3-10.2c.4-1.1-.1-2.1-.4-2.5-.5-.7-1.1-2.9-1-4.6 0-1.1 1.2-3 1-5.2-.3-2.5.7-4 2.3-5.4 1.1-.9 1-2.3 1-2.6 0-1-.6-1.4-.6-2.5s.6-4.5 1.6-5.4c2-2 4.9-2.3 5.2-5 .1-1.1.8-4.1 2.3-6.4 1.4-2.3 3.4-3.6 3.4-6.2v-2.7h4.1c.9-1.5 3.6-3.9 6.7-5.2 3.1-1.2 6.9-2.7 8.4-3.8 1.6-1.1 4.4-5.2 4.4-5.2l4.4 2.2c3.8-1.9 14.1-1.1 16.4-7.4.2-.9 2.1-1.5 2.4.5.2 1.6.4 3.8.4 3.8 1.9-1.1 10.3-2.2 19.4.9 3.1.7 2.8-.4 4.4-.2 1.6.1 3.5 3.2 7.2 3.6zm-9.6-64.3c-8.6 0-17.1.3-25.4.8 8.3-.5 16.8-.8 25.4-.8"/><path d="m221.7 430.8c-.3 64.6 15.6 127.1 46.3 181.1 29.7 52.7 68.3 91.9 117.6 119.8 49.4-27.9 87.9-67.1 117.6-119.8 30.7-54 46.6-116.5 46.3-181.1-48.1-26.1-104.6-39.9-163.9-39.9s-115.8 13.8-163.9 39.9m318.4 5.6v2.1c-.7 42-9.1 105.4-45 168.8-27.7 49-62.9 85.8-107.8 112.6l-1.7 1-1.7-1c-44.9-26.8-80.1-63.6-107.8-112.6-36-63.4-44.3-126.8-45-168.8v-2.1l1.9-1c45.2-23 97.9-35.2 152.7-35.2s107.5 12.2 152.7 35.2l1.9 1zm-204.3-52.7c8-1 16.1-1.8 24.4-2.4-8.3.5-16.4 1.3-24.4 2.4"/></g><path d="m458.8 387.5c-22.9-4.5-47.3-7-73.2-7-8.6 0-17.1.3-25.4.8s-16.4 1.3-24.4 2.4c-8 1-15.8 2.3-23.4 3.8-38.1 7.5-71.9 20.6-101 37.2-1.2 58.6 10.3 126.7 47.5 192.4 18.4 32.5 38.9 58.1 60.4 78.6 8.1 7.7 16.3 14.6 24.5 21s16.6 12.1 25 17.2c5.6 3.5 11.2 6.7 16.7 9.7 5.6-3 11.2-6.2 16.7-9.7q4.2-2.55 8.4-5.4c22.3-14.8 44.3-33.6 64.9-58.2 12.9-15.4 25.2-33 36.7-53.3 37.3-65.7 48.7-133.8 47.5-192.4-29.1-16.6-62.9-29.7-101-37.2zm44.4 224.4c-29.7 52.7-68.3 91.9-117.6 119.8-49.4-27.9-87.9-67.1-117.6-119.8-30.7-54-46.6-116.5-46.3-181.1 48.1-26.1 104.6-39.9 163.9-39.9s115.8 13.8 163.9 39.9c.3 64.6-15.6 127.1-46.3 181.1"/><path d="m232.9 435.4-1.9 1v2.1c.7 42 9.1 105.4 45 168.8 27.7 49 62.9 85.8 107.8 112.6l1.7 1 1.7-1c44.9-26.8 80.1-63.6 107.8-112.6 36-63.4 44.3-126.8 45-168.8v-2.1l-1.9-1c-45.2-23-97.9-35.2-152.7-35.2s-107.5 12.2-152.7 35.2zm259.2 170.2c-27.3 48.4-62.2 84.9-106.5 111.3-44.3-26.4-79.2-63-106.5-111.3-34.8-61.4-43.9-122.8-44.6-167.1 44.7-22.8 96.7-34.8 151.1-34.8s106.4 12 151.1 34.8c-.7 44.4-9.7 105.8-44.6 167.1"/><path d="m474.6 493.3c-3.4-4.8-1.4-12.6-1.4-12.6-2.7 3.7-1.6 11.9 1.4 12.6m6.2-17.9c-1.5-.5-4.7-1.1-6 2.5 1.8-2.6 3.4-2.4 6-2.5m-148 28.3c-11.5-6.3-18.6-4.3-24.8-4.1 5.9.3 15.3 1.6 22.3 6.1 8 5.2 23.7 4.2 27.4 1.3-2.8.8-17.4 2-24.8-3.2zm69.9 16.5c-7-8-19.5-13.3-31.2-15.7 7.7 2.7 24.3 10 29.5 17 1.8 2.5 3.5 2 11.2 2.3s15.3 3.9 17 6.5c-.9-4.6-8.2-6.6-12.8-10.1-7.9-5.9-15.5-9.9-24.7-11.1 12.5 3.7 23 12.2 24.2 13.6-1.1-.6-5.3-1.2-7.9-1.1-2.5 0-4.5-.5-5.3-1.4"/><path d="m383.6 441.4c-9.2-3.1-17.5-2.1-19.4-.9 0 0-.1-2.2-.4-3.8-.4-1.9-2.2-1.4-2.4-.5-2.3 6.2-12.6 5.4-16.4 7.4l-4.4-2.2s-2.9 4.1-4.4 5.2-5.3 2.5-8.4 3.8-5.9 3.7-6.7 5.2h-4.1v2.7c0 2.7-1.9 4-3.4 6.2-1.5 2.3-2.2 5.2-2.3 6.4-.3 2.7-3.2 3-5.2 5-1 .9-1.6 4.3-1.6 5.4s.7 1.4.6 2.5c0 .3.1 1.7-1 2.6-1.5 1.4-2.5 2.9-2.3 5.4.3 2.1-.9 4-1 5.2-.2 1.7.5 3.9 1 4.6.2.4.8 1.4.4 2.5-.5 1.4-2.3 7.9-2.3 10.2s.9 4.5 1.4 5.3c.3.6.3 2.1 0 2.6-.2.4-11.5 21.1-13.1 24.5-.9 1.8-2.2 4.7-2.1 7 .2 4.6 3.4 5.4 5.1 5.5h6.1v3c-.1 3-5.3 3.5-5.3 7.5 0 3.1 2.9 5.1 4.4 5.8-1 2.3-1.5 2.9-1 6.1.6 4 6.2 3.8 8.4 3.8 3.5 8.5-.8 10.1 0 15.9 1.7 10.4 18.6 12.7 35.2 8.5 4.5 18.3 20.6 8.7 25.8 40.2 30 8.9 43.5-24.9 58.2-38.7 5.3-5.8 17.8-12 18-12.3.2-.2.9-.5 0-1.3-12.2-10.3-17-30-17.4-33.3 0 0 4.7-.6 5.2-.8.5 0 1.7-.4.7-1.8-1.2-1.4-5.7-6.7-5.2-6.7s6.4-.1 7.9-.6c-.2-1.1-.8-3.2-1.9-5-1-1.8-1.2-2.7-1.1-4.7 0-.6 0-1.8.9-3.9.5.6 1.3.9 2.1.9 5.9 9.7 4.2 16.4 9.2 23.4 5.3 7.4 15.4 6.7 18.3 10.5s3.8 9.2 4.1 13.4c-6.3 9.7-19.5 13.7-21.4 15.1 1.9 3.7 4.8 12.7 5.1 15.5 0 0-13.1 12.3-13.9 13-.4.4-.7 1-.6 1.7.2 2.5 2.5 10.8 9.7 10.9 7.3.1 9.5-7.5 9.8-9.8 4.4-8.5 13.3-13.8 16.1-16.2.2-5.6 1.1-15 3.4-18.9 1.5-2.4 5.1-7.6 5.8-13.3.6-4.9-.6-8.6-2.4-10.7 0 0-.2-9.7-.3-13.1 0-3.4-1.8-5.7-4.7-7.6-7.2-4.2-15-4.8-18.8-9.2-1.2-1.4-2.7-4-3.8-5.9 1.4.3 2.3.4 4.2 0 1.9-.5 11.7-3.8 15.9-7.2 5.6-5 7.1-14.9 8-18.1 3.7-14 18.7-45.2 19-48.5.3-3.4-5.6-6.3-6.7-6.8s-2.4-.5-2.9.2c-.4.7.7 2.2.6 4.4 0 2.5-2.1 4.6-2.1 4.6l-10.8 1.4c-1.7 4.3-4.5 6.3-7.2 6.3-.8 0-3.9-.2-4-2.3-.2-4.4 6.9-4.1 9.2-4.3s6.1-.9 5.9-4.7c-.1-4.6-5.5-5.1-7.1-5.1v-9.2c-.3-7.4-9.5-5.5-12.7-4.9v11.7s-3.3 1.3-7.8 2-6.4 3.1-6.2 5.4c.2 1.3.4 2.6 1.6 3.9 1.2 2 8.2 26 9.1 29.3 3.2 10.8.2 21.4-4 25.2-3.4 3.3-8.7 2.9-11 2.4-.5-.9-.9-1.8-1-2.9 4.4 1.7 7.7 0 6.5-1.1-1.3-1.1-2.9-5.4-3.2-8.3 2-.1 7-1.1 8.1-2.4-.2-.4-4-4.9-4-5.4s3-1.4 4-1.7c1.1-.4 1.4-1.1 1.2-2.2-.5-2.2-2-2.1-3.2-3.5s-1.4-6.9-1.5-8.2l2.1-3.6-7.3-7.2 3.5-3.9c-.3-1.2-2.9-1.8-5-2.5s-5.6-3.9-7.5-8.5-3.9-4.9-5-5.3c0 0 1.2-3 1.2-3.2-2.6-2.3-6.6-1.4-8.9-2.5-2.7-1.4-12.3-5-13.8-5.8l-.5-3.1s-8 0-9.3-.3c-3.7-.4-5.6-3.5-7.2-3.6s-1.3.9-4.4.2zm-63.9 95.7c-1.8-1.8 1.6-5.3 7.1-5.7-2.1-.3-5.8-2.1-6.9-3 .2 2.2-1.1 5.2-3.9 4.7-2.8-.2-2.9-7.1-1.4-8.1 0 0-3.7-3.4-1.4-5.6 1.9 2.5 7.5 9 18.2 10.3 0 4.6-10 3.4-11.8 7.5zm130.3 99.7c-3.1-.6-6.7-3.2-7.7-4.8.2 1.1 4 5.4 7.3 6.2-.1.3-.3.7-.5 1-3.2-.4-7.1-3.2-8.2-4.9.2 1.1 4 5.4 7.3 6.2l-.9.9s-.1 0-.2.1c-3.2-.5-7.1-3.2-8.1-4.9.2 1 3.2 4.5 6.2 5.8-3.3.9-8.5-.3-9.6-8.6l12.6-11.4c.2 2.2 3 8.8 1.9 14.2zm20.8-38.4c-3.3 5.5-4.1 17.3-4.1 19.9-.4.2-.9.5-1.4.8-.3-2.2-.7-4.4-1.5-5.8.5 2.2.6 4.4.5 6.5-.6.4-1.2.9-1.9 1.4-.1-2.4-.4-5.2-1.2-6.9.4 2.7.2 5.5 0 7.9-.5.5-1.1.9-1.6 1.4 0-2.6-.4-5.7-1.2-7.5.5 3 .2 6.2-.2 8.8-.5.5-1 .9-1.5 1.4 0-2.7-.3-6.5-1.2-8.6.5 3.7 0 7.7-.6 10.3-.3.3-.6.6-.8.9 0-2.6-.2-7.2-1.2-9.6.6 4.5-.2 9.4-.9 11.8-.6-12.4-6-25.5-6.8-26.3 20.1-7.6 24.1-20.3 29.4-26.3 3.3 8.6-.5 14.9-3.7 19.7zm17.4-136c1.3 0 4.8 2.9 4.8 4.4s-5.9 1.9-5.9 1.9c.4-.4 1.8-3.4 1.1-6.3m-28.6-14c1.2-.4 8-1.5 8.1 2.9.1 4-8.1 6-8.1 6zm-12.9 19.5c.8-1 2.3-2.6 4.3-3.3-2.3.3-3.7 1.1-4.9 2.2-.2-.5-.3-1-.3-1.4 0-1.4 1.3-2.7 5.2-3.2 2.9-.4 13.4-2.9 16.8-6v4.4c-7.8.6-10.3 8.8-17.5 9.3-.5 0-.9-.1-1.3-.2.8-1.2 2.3-2.9 3.9-3.7-1.7.3-4.2 1.9-5.2 3-.4-.3-.7-.7-1-1.1m10 31.3c-.6-2-8-27.3-8-27.3 9.9 1.2 12-9.1 20.6-9.1 1.3 0 5.4-.3 5.4 2.8s-4.9 2.6-8.9 3c-4.1.4-6.3 3.4-6.3 5.2s.5 2.5 1.4 3.4c3 6.6 1.6 25 .8 28.3 2.4-4.2 3.4-18.9 1.1-27 7.7 2.4 11.6-4.4 12.3-6.2 0 0 11.5-.9 15.9-1.4 0 0-15.8 37.8-17.1 44-1.4 6.2-2.2 9-4.6 13.4-2.8 5-12 8-15 9.3s-7.3 1-9.8-.9c-.9-.7-2.3-1.6-3.6-2.4.1-.6.2-1.1.3-1.6 8.7 2.4 15.6-.1 18.8-3.5-4.2 3.3-13.5 4.1-18.9 2.2 0-.3 0-.5-.1-.8 11.9.6 17.3-3.6 18.1-5.6-4.3 4.7-14.8 4.9-18.6 4.2 0-.2-.1-.4-.2-.5 21.6 1.2 17.2-27.3 16.3-29.6zm-13 45.6c.2-2-.4-4.8-1.3-6.9.4.3.8.5 1.2.8 2.2 2.8 4.9 6.8 6.2 8.7 4.3 5.8 15 7.6 19.2 10 2.9 1.4 3.8 4.1 4.1 6.1 0 0 .5 9.3.3 12.4l-2.1 3c-.2-1.9-.6-3.7-1.2-4.9.4 2.1.4 4.2.4 6.2l-1.1 1.6c-.1-2.7-.5-6.2-1.4-8.1.7 3.8.2 8-.3 10.6l-.7 1c0-1-.1-2.1 0-2.4-.1-3.2-.4-7.7-1.8-10.8.5 3 .5 6.2.2 8.9-3.2-13.4-15.7-9.7-21.4-16.7-4.5-5.5-3.4-13.5-9.1-22.9.5-.2 1.1-.4 1.6-.8 1.5 6.6 6.3 15.6 11 18.2-6.2-5.3-9-15.4-9.7-19.1.4-.3.7-.6 1-1 1.3 1.2 3.9 4.4 4.6 9.5-.3-4.1-.3-6.8-3.9-10.3.3-.4.6-.8.8-1.2 1 1 3.2 3.5 3.7 8.1zm-9.2-16.8c.5-.6 5.1-.4 4.8 4.9-.4 5.2-7 7.8-7.7 6.2-.7-2.1 3.2-2.4 3.8-5.8.2-3.4-1.8-4.4-.9-5.2zm-43.7-26.1c-1.7.8-5.1.8-6 .8 3.7 1.8 8.5 2.8 10.9 3.3 11.1 2.7 19.5 12.2 24.1 14.8 3.6 2.4 12.3 4.9 12.5 11.4 0 1.7-1.9 2-2.5 2-4.7-.2-4.7-3.8-8.7-3.7-6.2.4-11.8-3-15.9-1.4 4.2.2 5.7 1.8 10 3.2 3.8 1.7 6.9-.9 9 2.2-2.3 1.1-8 1.4-10.6 1.2-5.1-.2-6-2.4-7.7-3.2-2.2-1-4.1-.5-4.6.7-.7 1.9-3.2 4.9-5.2 6.1-2 1.1-5.1 2.8-6.6 6.5-1.6 3.7-4.8 11.3-10.5 10.9s-6.5-4.5-6.4-4.9c.7 1 1.6 2.7 5.9 2.8 4.5 0 7.4-6.5 9.5-12.2 2.1-3.8 4.6-4.1 7.2-6 2.5-1.9 4.7-6.4 3.9-11.4-.5-3.2-5.3-11.3-15.6-9-6.6 2-11.2 7.3-12 8.6-5.7 0-16.7-4.8-17.6-5.3 5.8-.4 8.7-1.9 8.7-1.9-3.8-.4-16.8.1-24.8-2.1s-17.6-7.2-20.1-8.1c-4.2-1.7-13.3-2.6-13.2-8.5.1-3 1.2-3.8 1.2-3.8l6.2.5s-5.7-2.8-6.1-3.9c-.7-1 .2-3.3.4-3.7.2-.3.6-2.2 3-2 2.2.1 3.4.5 3.7.6-.6-.4-5-4-5.2-5.1-.6-.6-.8-3.3 1.3-4.3 1.1-.5 5.1-2.5 5.5-5 .2-1.1 1-1 1.5-.8 2.5.2 35.5 14.4 41.5 19.4s-26-4.3-32-6.3c2.9 2.5 26.1 10.6 36.9 11 3 .1 8.5-.7 13.7 2 4.4 2.3 10.5 3.9 14.6 4.2zm-1.6 21c-5.5-3.5-14.8 9.2-14.8 5.6.5-3.7 10.7-11.3 16.2-7.9 4.9 3 3.6 8.4 2.9 10.2-.8 2.2-3.2 3.7-2.9 1.6.4-1.5 2.3-7.2-1.4-9.5m-6.1 8.4c.1-1.4 4.9-1.9 4.9 2.5s-4.3 4.1-4.8 5.7c-1 3.1-.6 6.9-5 6.1-3.1-.7-3-4.4-1.4-4.6 2.2-.2.5 2.1 2.2 2 1.7 0 .8-4.3 2.3-5.7s4-2.2 3.9-3.7c0-1.4-2.2-1.1-2.2-2.5z"/></svg>