<svg viewBox="0.07 0.6 452.77 564.6" xmlns="http://www.w3.org/2000/svg"><path d="M226.4 564.1c-60.2-30.9-112.8-81.4-152.3-145.9C33.4 351.6 8.7 273 2.5 190.7 1 171.2.6 151.5 1.3 132c68.2-41.7 146.1-63.8 225.1-63.8S383.2 90.3 451.5 132c.7 19.4.3 39.2-1.2 58.7-6.1 82.3-30.9 160.9-71.6 227.4-39.5 64.6-92.2 115-152.3 146" fill="#fff"/><path d="M226.4 76.2c39.5 0 78.6 5.5 116.4 16.4 35.1 10.1 69 24.9 100.8 43.9.5 17.7 0 35.7-1.3 53.5-6.1 81-30.4 158.4-70.4 223.8-37.9 62-88.1 110.7-145.5 141.1-57.4-30.3-107.6-79-145.5-140.9-40-65.4-64.4-142.8-70.4-223.8-1.3-17.8-1.8-35.8-1.3-53.5 31.8-19 65.7-33.8 100.8-43.9 37.7-11 76.9-16.6 116.4-16.6m0-9C144.1 67.2 67 90.6.4 131.4q-1.05 29.25 1.2 59.4C14.3 361.4 105.1 503 226.4 565.2 347.7 503 438.5 361.4 451.3 190.8q2.25-30.15 1.2-59.4c-66.7-40.8-143.9-64.2-226.1-64.2" fill="#cdb789"/><path d="M226.4 541.3c-53.1-29.6-99.7-75.7-135.2-133.6-39-63.8-62.8-139.3-68.7-218.4-1.1-15.2-1.6-30.5-1.4-45.6 62.8-36.2 133.6-55.3 205.3-55.3 71.6 0 142.5 19.1 205.3 55.3.2 15.2-.3 30.5-1.4 45.6-5.9 79.1-29.7 154.6-68.7 218.4-35.5 58-82.2 104-135.2 133.6" fill="#1d995b"/><path d="M90.4 332.1v56.4c2.8 4.9 5.6 9.8 8.5 14.6 13.6 22.3 29 42.8 45.7 61.2v-69.8c-20.3-18.3-38.6-39.3-54.2-62.4m217.8 62.3v69.8c16.8-18.4 32.1-38.9 45.7-61.2 2.9-4.8 5.8-9.6 8.5-14.6V332c-15.7 23.2-33.9 44.2-54.2 62.4m-81.8 53.5c-12.1-5.4-23.7-11.6-35-18.6v78c11.3 8.7 23 16.6 35 23.5 12-7 23.7-14.8 35-23.5v-78c-11.3 7-23 13.2-35 18.6" fill="#fff"/><path d="M207.5 470.2v24.9h-3.8v-18.5c-.8 1.2-2.2 1.8-3.3 1.8V475c1.8-.2 3.3-1.8 3.3-4.8zm15.1 4.2v16.9c0 2.6-1.1 3.7-3.5 3.7h-8v-3.6h7.8v-6.3h-5c-2.6 0-3.6-1.3-3.6-4.1v-6.7c0-2.6 1.1-4.2 3.4-4.2h5.3c2.4.1 3.6 1.5 3.6 4.3m-8.6 7.3h4.9v-8H214zm11.1 9.2v-3.3h3.8v4h4.9v-7.8h-4.7v-3.4h4.6v-6.9h-4.8v3.3h-3.7V474c0-2.7.7-3.9 3.6-3.9h5.2c2.7 0 3.4 1.3 3.4 3.8v5.5c0 1.3-.4 2.1-1.2 2.6.9.5 1.3 1.4 1.3 3v5.9c0 2.5-1.1 4-3.5 4h-5.3c-2.6.2-3.6-1.5-3.6-4m14.8 0v-3.3h3.8v4h4.9v-7.8h-4.7v-3.4h4.6v-6.9h-4.8v3.3H240V474c0-2.7.7-3.9 3.6-3.9h5.2c2.7 0 3.4 1.3 3.4 3.8v5.5c0 1.3-.4 2.1-1.2 2.6.9.5 1.3 1.4 1.3 3v5.9c0 2.5-1.1 4-3.5 4h-5.3c-2.6.2-3.6-1.5-3.6-4" fill="#1d995b"/><g fill="#fff"><path d="M237.2 338c.5-.2 1-.3 1.5-.5 7.6-2.1 21.5-9.2 5-8.7l-2.9.3s29.9-11 30.7-18.9c0 0 .6-1.9-8.9-.5 0 0 20.8-17.1 20.5-23.1 0 0 .8-4.5-5.8.3 0 0 3.2-20-1.1-22.3 0 0-5 35.5-41.8 60.7 0 0-3.2 1.9-8 5.1-4.9-3.3-8.3-5.3-8.3-5.3-36.8-25.2-41.8-60.7-41.8-60.7-4.2 2.4-1.1 22.3-1.1 22.3-6.6-4.7-5.8-.3-5.8-.3-.3 6 20.5 23.1 20.5 23.1-9.8-2.2-8.9.5-8.9.5.8 7.9 30.7 18.9 30.7 18.9l-2.9-.3c-17.2-1-2.6 6.6 5 8.7.6.2 1.2.4 1.9.6-14.4 11.1-32 27.7-31.8 43.2 0 0 12.6-18.4 19.2-23.4s16-6 16-7.6-6-2.1-6-2.1 6.5-3.1 13.4-6c6.7 2.8 12.9 5.8 12.9 5.8s-6 .5-6 2.1 9.5 2.6 16 7.6c6.6 5 19.2 23.4 19.2 23.4.2-15.3-17-31.8-31.4-42.9"/><path d="M203.8 289c-.3.4-.4.9-.4 1.5 0 1.6 1.3 2.9 2.9 2.9.3 0 .7-.1 1-.2l.3.8 1.6 5.7c4.8-1.1 11.2-1.4 17.7-1.4 6.2 0 12.4.3 17 1.4l1.6-5.7.3-.8c.3.1.6.2 1 .2 1.6 0 2.9-1.3 2.9-2.9 0-.5-.2-1.1-.4-1.5 1.3-.9 2.5-3 2.8-4.1 1.8-6.5-2.9-8.9-7.2-8.1.1.8.2 1.6.2 2.3 0 1-.1 1.9-.2 2.8.3 0 .6-.1 1 0 2.8.3 3.6 3.9 2.9 6.4-.5-.4-1.1-.7-1.8-.7-1.6 0-2.9 1.3-2.9 2.9 0 .8.3 1.4.8 2l-4.6 3-1.4-4.6c1.4-.2 2.4-1.4 2.4-2.8 0-.5-.1-.9-.3-1.3 1.1-1.3 2.1-3.1 2.4-4.1 3.5-12.8-13.1-13-16.6-4.5-3.5-8.5-20.1-8.4-16.6 4.5.3 1.1 1.3 2.8 2.4 4.1-.2.4-.3.8-.3 1.3 0 1.4 1.1 2.6 2.4 2.8l-1.4 4.6-4.6-3c.5-.5.8-1.2.8-2 0-1.6-1.3-2.9-2.9-2.9-.7 0-1.3.2-1.8.7-.7-2.5.1-6.1 2.9-6.4h1c-.2-.9-.2-1.9-.2-2.8 0-.8.1-1.6.2-2.3-4.4-.8-9 1.6-7.2 8.1-.2 1.1 1 3.2 2.3 4.1m25.5-6.5c1.1-2.6 3.5-3.8 5.7-3.6 3 .3 4.2 3.6 3.9 6.4-.3-.1-.6-.2-1-.2-1.6 0-2.9 1.3-2.9 2.9 0 1 .5 1.8 1.2 2.3l-4.8 2.7-2.4-3.8c1-.8 1.7-2.1 1.7-3.5.1-1.2-.5-2.4-1.4-3.2m-15.5 2.8c-.2-2.9 1-6.2 3.9-6.4 2.2-.2 4.6 1 5.7 3.6-.9.8-1.5 2-1.5 3.3 0 1.4.7 2.7 1.7 3.5l-2.4 3.8-4.8-2.7c.7-.5 1.2-1.4 1.2-2.3 0-1.6-1.3-2.9-2.9-2.9-.3 0-.6 0-.9.1m28.9 16.3c-4.3-1.1-10.1-1.4-16-1.4-6.1 0-12.2.3-16.6 1.4l.6 3.2c10-1.2 21.4-1.2 31.4 0zm-31.8 5.1c0 1.9 31.1 1.9 31.1 0-.1-1.9-31.1-1.9-31.1 0"/><path d="M223.2 270.9c-.9-1.5 1.3-2.1 2.2-.5.1.1.1.2.2.4-.2.1-.4.3-.4.6s.2.5.5.6c-.2.6-1 .9-1.5.5.1.7.8.9 1.4.7 0 .5.2 1.1.9 1.5.7-.5.9-1 .9-1.5.6.2 1.2 0 1.4-.7-.5.3-1.3.1-1.5-.5.3-.1.5-.3.5-.6s-.2-.5-.4-.6c0-.1.1-.2.2-.4.9-1.6 3.1-1 2.2.5 4.5-.6.7-6.8-2.7-1 .2-1.1.8-2 .8-3.9 0-1.7-.7-2.4-1.3-3.2-.7.8-1.3 1.5-1.3 3.2 0 1.9.6 2.8.8 3.9-3.6-5.8-7.4.4-2.9 1m5.2 103.9v-6.2h-4.1v6.2h-6.1v4.1h6.1v6.2h4.1v-6.2h6.2v-4.1z"/><circle cx="226.4" cy="366.6" r="2.1"/><circle cx="236.7" cy="376.8" r="2.1"/><circle cx="216.1" cy="376.8" r="2.1"/><circle cx="226.4" cy="387.1" r="2.1"/><path d="M278.9 336.6v-6.2h-4.1v6.2h-6.1v4.1h6.1v6.1h4.1v-6.1h6.2v-4.1z"/><circle cx="276.9" cy="328.3" r="2.1"/><circle cx="287.2" cy="338.6" r="2.1"/><circle cx="266.6" cy="338.6" r="2.1"/><circle cx="276.9" cy="348.9" r="2.1"/><path d="M177.9 336.5v-6.2h-4.1v6.2h-6.1v4.1h6.1v6.1h4.1v-6.1h6.2v-4.1z"/><circle cx="175.9" cy="328.2" r="2.1"/><circle cx="186.2" cy="338.5" r="2.1"/><circle cx="165.6" cy="338.5" r="2.1"/><circle cx="175.9" cy="348.8" r="2.1"/><path d="M110.5 210.9l-20.7 6.5 1.6 15.4-15.9 5-6.9-80 25.4-8 40 69.6-16 5zm-22.2-7.5l15.4-4.9-17.3-31.2-1.7.5zm123.6-9c.9 9-3.2 15.1-12.2 16l-26.9 2.7c-7.7.8-14-3.1-15-12.9l-1.2-12.5 16.1-1.6 1.3 12.6 22-2.2-1.3-13.2-31.7-8.9c-5.9-2-8.1-4.8-8.8-11.6l-1.4-13.9c-.9-9 3.6-13 11.7-13.8l27.7-2.8c10.3-1 14 3.8 15 13.9l1 10.3-16.1 1.6-1.1-11.4-22 2.2 1.2 11.6 31.8 8.6c6.1 1.9 8 4.7 8.7 12zm86.4 6.4c-1 9-6.3 14.1-15.3 13.1l-26.8-3c-7.7-.9-13-6-11.9-15.8l1.4-12.5 16.1 1.8-1.4 12.6 21.9 2.5 1.5-13.2-29.2-15.3c-5.4-3.2-6.9-6.4-6.2-13.2l1.6-13.9c1-9 6.2-11.9 14.3-11L292 136c10.3 1.2 12.8 6.7 11.7 16.7l-1.2 10.3-16.1-1.8 1.3-11.4-21.9-2.5-1.3 11.6 29.3 15.1c5.6 3.2 6.8 6.2 6 13.5zm51.1-53.8l45.8 14.1-4.2 13.6-30.1-9.3-5.2 17.1 21.6 6.6-4.1 13.5-21.6-6.6-5.3 17.2 30.1 9.3-4.2 13.6-45.8-14.1zM191.3 405.2h2.5v12.9h6.1v2.3h-8.6zm16.3 12.7v-10.5c0-1.5.8-2.2 2.2-2.2h5.5c1.7 0 2.2.9 2.2 2.6v9.9c0 1.5-.8 2.6-2.4 2.6h-5.2c-1.3.1-2.3-.6-2.3-2.4m7.4.2v-10.6h-4.9v10.6zm10.1-12.9h2.5v15.2h-2.5zm10.3 15.2v-15.2h7.5c1.5 0 2.1.8 2.1 2.5v5.7q0 1.95-1.5 2.1l1.7 4.9h-2.5l-1.6-4.9H238v4.9zm7.2-7.1v-5.8H238v5.8zm10.4-8.1h8.5v2.3h-6v4.2h4.2v2.2h-4.2v4.2h6v2.3H253zM126.3 257.6c.7 2.5.1 4.2-2.2 4.9l-5.9 1.7c-1.9.6-3.6-.2-4.4-2.7l-1.1-3.7 3.5-1 1.2 4.1 5.6-1.6-1.4-4.9-8.5-1.7c-1.4-.3-2-.9-2.5-2.5l-1.2-4.2c-.7-2.3.1-3.6 2.2-4.2l6-1.8c2.5-.7 3.6.2 4.4 2.8l.9 3.2-3.5 1-1.1-3.8-5.6 1.6 1.2 4.3 8.6 1.7c1.4.3 2 .9 2.4 2.5zm15.3-4.6l-5.6 1.3.3 4.9-3.6.9-1-23.8 6-1.4 9.6 21.8-3.7.9zm-5.7-2.1l4.5-1-4.6-10.9-.5.1zm13-18.4l3.6-.7 4.4 23-3.6.7zm24.4 19.6l-5.4-9.9c-1-1.8-2.4-5-3.7-7.9.5 2.9 1.1 6.1 1.3 7.6l1.6 11-3.2.5-3.4-23.1 4.5-.7 5.6 10.4c1 1.9 2.6 5.3 3.9 8.1-.6-3-1.2-6.4-1.4-8l-1.7-11.4 3.2-.5 3.4 23.1zm13.6-21.7l-5 .5-.3-3.4 13.7-1.3.3 3.4-5 .5 1.9 19.9-3.7.3zm13.2 6.1l7.8-.4.2 3.4-7.8.4zm14.7-11.4l11.3-.2.1 3.4-7.7.1.1 6.7 5.4-.1.1 3.3-5.4.1.1 6.6 7.7-.1.1 3.4-11.3.2zm3.6-1.3l1.5-4.3 4.2-.1-2.7 4.3zm19 4.8l-5-.2.1-3.5 13.7.4-.1 3.5-5-.2-.6 19.9-3.7-.1zm15.6-2.8l3.7.3-1.6 23.3-3.7-.3zm11.8 1L276 228l-.4 3.4-7.6-.8-.7 6.7 5.4.6-.4 3.3-5.4-.6-.7 6.5 7.6.8-.4 3.4-11.3-1.2zm24.4 26.8l-2.2-11c-.4-2-.8-5.5-1.2-8.7-.4 3-.8 6.2-1 7.7l-1.8 11-3.2-.5 3.7-23.1 4.5.7 2.2 11.6c.4 2.1.9 5.8 1.3 8.9.4-3 .8-6.5 1.1-8.1l1.8-11.4 3.2.5-3.7 23.1zm20.7 4.1l-1.5-11.1c-.3-2-.5-5.5-.7-8.7-.5 2.9-1.1 6.1-1.5 7.6l-2.4 10.9-3.2-.7 5-22.9 4.4 1 1.5 11.7c.3 2.1.6 5.8.8 8.9.6-3 1.2-6.5 1.5-8l2.5-11.2 3.2.7-5 22.9zm17.7-19.8l10.9 3-.9 3.3-7.4-2-1.8 6.5 5.2 1.4-.9 3.2-5.2-1.4-1.8 6.3 7.4 2-.9 3.3-10.9-3zM202.7 76.8l-38.4-27.9h47.4l14.7-45.1L241 48.9h47.5l-38.4 27.9 14.7 45.1L226.4 94 188 121.9z"/></g><path d="M226.4 15.2l11.1 34.1 1 3.1h39.1l-29 21.1-2.7 1.9 1 3.1 11.1 34.1-29-21.1-2.7-1.9-2.7 1.9-29 21.1 11.1-34.1 1-3.1-2.7-1.9-29-21.1h39.3l1-3.1zm0-14.6L211 47.9h-49.8l40.3 29.3-15.4 47.4 40.3-29.3 40.3 29.3-15.4-47.3L291.6 48h-49.8z" fill="#254d98"/><path d="M226.4 46.4l4.3 13.4.8 2.3H248l-11.4 8.3-2 1.4.8 2.3 4.3 13.4-11.4-8.3-2-1.4-2 1.4-11.3 8.3 4.3-13.4.8-2.3-2-1.4-11.4-8.3h16.6l.8-2.3zm0-10.9l-7.5 23.2h-24.5l19.8 14.4-7.6 23.2 19.8-14.4 19.8 14.4-7.6-23.2 19.8-14.4H234z" fill="#d2353b"/></svg>