<svg viewBox="0 0 600 600" xmlns="http://www.w3.org/2000/svg"><path d="m599.998 300c0 165.686-134.314 300-299.998 300s-300-134.315-300-300 134.316-300 300-300 299.998 134.316 299.998 300" fill="#38284f"/><path d="m591.89 300c0 161.207-130.683 291.892-291.89 291.892s-291.894-130.685-291.894-291.892 130.687-291.893 291.893-291.893c161.208 0 291.892 130.685 291.892 291.893" fill="#fff"/><path d="m583.781 300c0 156.727-127.054 283.782-283.782 283.782-156.729 0-283.783-127.053-283.783-283.782s127.053-283.782 283.783-283.782c156.728 0 283.782 127.053 283.782 283.782" fill="#38284f"/><path d="m482.497 299.998c0 100.79-81.706 182.501-182.496 182.501-100.792 0-182.503-81.71-182.503-182.5s81.71-182.5 182.503-182.5c100.79 0 182.496 81.706 182.496 182.498" fill="#fff"/><path d="m142.685 242.376v115.262l18.293 39.28 38.294 39.28v-272.38l-38.294 39.278-18.293 39.278m85.825 211.716 56.587 15.438v-339.04l-56.587 15.435zm85.824 15.482 56.586-15.217v-308.695l-56.586-15.218zm142.409-110.206v-118.717l-18.293-38.644-38.294-38.645v273.295l38.294-38.645z" fill="#695188"/><path d="m300.002 125.676c-96.28 0-174.326 78.047-174.326 174.324s78.046 174.324 174.326 174.324c96.274 0 174.322-78.047 174.322-174.324s-78.048-174.324-174.322-174.324m0 8.107c91.795 0 166.215 74.417 166.215 166.215s-74.42 166.219-166.215 166.219c-91.8 0-166.219-74.421-166.219-166.219s74.419-166.215 166.219-166.215" fill="#38284f"/><path d="m46.408 287.602h-6.24v-6.616h14.057v39.847h-7.817zm38.494 6.843c0-4.133-2.706-7.217-7.216-7.217-4.513 0-7.22 3.084-7.22 7.217s2.783 7.368 7.294 7.368c4.812 0 7.142-3.083 7.142-7.368m-6.014 13.004c-.679.303-1.803.452-2.483.452-7.744 0-13.978-5.413-13.978-13.456 0-8.796 6.915-14.059 15.26-14.059 8.266 0 15.182 5.115 15.182 13.907 0 4.136-1.95 7.97-5.49 13.084l-9.32 13.456h-8.567zm421.025 2.943 6.602-3.374c1.725 3.823 4.728 6.452 9.305 6.452 4.725 0 7.728-2.63 7.728-7.58 0-4.952-3.904-7.277-8.403-7.277-2.853 0-4.729.453-6.153.901l-.6-1.126 9.753-12.006h-15.08v-6.605h27.908v.377l-10.652 13.282c6.002.6 11.254 5.254 11.254 12.606 0 7.878-5.174 14.182-15.755 14.182-8.63 0-13.956-5.33-15.907-9.831m55.006-24.01h-19.059v-6.606h30.163v.377l-18.61 39.395h-8.252zm-410.815-177.517-10.95 10.47 25.675 26.855-6.679 6.383-25.674-26.858-10.947 10.47-5.775-6.04 28.575-27.319zm43.05 6.526q5.303-3.24 6.63-9.066c.948-3.923.29-7.735-1.942-11.382q-3.346-5.476-9.276-6.982c-3.901-1.039-7.597-.45-11.133 1.71-3.528 2.16-5.743 5.18-6.652 9.16-.853 3.94-.195 7.756 2.04 11.407 2.227 3.65 5.32 5.975 9.184 6.956 3.92.947 7.617.357 11.15-1.803m15.436-7.288c-1.564 6.291-5.167 11.2-10.902 14.703s-11.748 4.476-18.119 3.037c-6.346-1.533-11.254-5.137-14.686-10.754q-5.211-8.516-2.907-18.038c1.587-6.382 5.192-11.29 10.927-14.794 5.734-3.507 11.746-4.473 18.093-2.944 6.403 1.496 11.31 5.101 14.784 10.778 3.432 5.618 4.401 11.631 2.81 18.014m38.212-56.183 7.748 23.902c1.968 6.073 1.883 11.525-.325 16.38-2.212 4.858-6.059 8.177-11.676 9.998-5.752 1.867-10.944 1.48-15.647-1.139q-7.057-3.92-10.008-13.028l-7.752-23.9 8.784-2.85 7.75 23.901c2.348 7.233 7.95 10.632 14.15 8.621 5.875-1.905 8.286-7.9 5.94-15.134l-7.748-23.901zm54.342 30.145.88 8.307-32.546 3.45-4.8-45.24 9.187-.974 3.915 36.937zm29.102 2.515q6.179.659 10.787-3.152c3.137-2.533 4.937-5.96 5.392-10.213q.678-6.383-3.11-11.19c-2.457-3.202-5.749-4.987-9.87-5.425-4.113-.44-7.71.61-10.859 3.21-3.077 2.609-4.88 6.036-5.332 10.289-.453 4.256.584 7.987 3.047 11.119 2.533 3.137 5.83 4.922 9.947 5.362m16.683 3.624c-5.072 4.033-10.92 5.733-17.606 5.017-6.684-.712-12.041-3.606-16.22-8.629-4.103-5.08-5.8-10.93-5.1-17.48q1.06-9.925 8.68-16.08c5.152-4.093 11-5.788 17.684-5.076 6.684.715 12.044 3.607 16.146 8.69 4.17 5.086 5.87 10.936 5.163 17.554-.701 6.55-3.596 11.908-8.747 16.004m64.5-21.242-8.418 23.667c-2.136 6.014-5.528 10.284-10.236 12.79-4.712 2.502-9.787 2.788-15.35.81-5.694-2.026-9.573-5.496-11.71-10.436q-3.202-7.406.005-16.425l8.419-23.666 8.698 3.093-8.416 23.666c-2.548 7.166-.18 13.267 5.96 15.451 5.823 2.07 11.383-1.213 13.931-8.375l8.419-23.67zm39.252 25.398c1.514 3.739 1.559 7.523.188 11.39l-8.84-3.26c1.739-3.957.036-8.294-3.882-10.73-3.747-2.332-7.574-1.83-9.262.877-1.328 2.134-.85 4.191 1.424 6.322l7.267 6.837c5.536 5.363 6.955 11.444 3.263 17.383-2.334 3.746-5.547 5.826-9.734 6.261-4.188.435-8.561-.767-13.173-3.636-4.264-2.65-7.287-5.89-9.124-9.753-1.744-3.88-1.713-7.784.117-11.76l9.283 3.458c-1.636 4.818-.044 8.684 4.741 11.662 4.383 2.724 8.154 2.192 9.912-.635 1.434-2.305.974-4.27-1.882-7.005l-7.219-6.65c-5.85-5.636-6.957-11.44-3.264-17.38q3.283-5.278 9.25-6 6.02-.818 12.769 3.383c3.92 2.436 6.653 5.497 8.166 9.236m20.059 62.848-5.757 6.05-25.038-23.822 31.359-32.957 24.938 23.729-5.757 6.05-18.25-17.365-7.064 7.427 16.825 16.01-5.664 5.949-16.827-16.004-7.112 7.474zm-352.84 255.785-8.15 5.234 10.381 16.154-6.11 3.924-10.38-16.147-12.92 8.301-4.346-6.756 33.29-21.396 15.969 24.84-6.112 3.93zm8.885 53.737q3.69 3.947 8.89 4.05c3.507.118 6.642-1.12 9.356-3.658q4.074-3.819 4.311-9.136c.2-3.501-.952-6.548-3.419-9.177-2.46-2.631-5.422-3.98-8.969-4.056-3.51-.028-6.645 1.2-9.36 3.746-2.713 2.544-4.152 5.587-4.307 9.048-.117 3.507 1.038 6.55 3.498 9.183m8.928 11.865c-5.635-.226-10.45-2.432-14.446-6.697-3.996-4.273-5.877-9.221-5.774-14.9.186-5.675 2.393-10.492 6.576-14.404q6.333-5.932 14.848-5.656c5.714.232 10.532 2.437 14.528 6.708 3.996 4.265 5.88 9.213 5.692 14.892-.147 5.72-2.352 10.532-6.576 14.488-4.183 3.916-9.134 5.8-14.848 5.57m29.986 21.878q4.43 3.097 9.534 2.125c3.453-.61 6.26-2.46 8.394-5.512q3.196-4.57 2.328-9.82c-.528-3.47-2.285-6.21-5.236-8.276-2.95-2.058-6.13-2.77-9.613-2.113-3.443.695-6.248 2.552-8.379 5.594-2.13 3.047-2.91 6.326-2.346 9.743.61 3.453 2.369 6.196 5.318 8.259m11.182 9.762c-5.556.942-10.72-.22-15.512-3.573-4.788-3.347-7.652-7.797-8.724-13.375-.991-5.592.173-10.756 3.454-15.449q4.974-7.11 13.355-8.596c5.64-.954 10.807.21 15.599 3.556 4.785 3.35 7.65 7.806 8.64 13.395 1.04 5.624-.126 10.786-3.44 15.53-3.28 4.692-7.732 7.56-13.374 8.512m53.013-4.028-11.945-5.534-13.574 29.298-7.286-3.377 13.577-29.297-11.94-5.534 3.051-6.592 31.17 14.448zm12.263 3.146-2.55 9.338 9.68 2.64c3.133.856 5.653-.533 6.462-3.494.697-2.566-.839-5.003-3.4-5.702zm-6.808 24.94 10.248 2.797c3.416.93 5.739-.392 6.528-3.297.795-2.904-.701-5.267-3.661-6.076l-10.535-2.875zm20.25-8.302c3.351 1.408 5.622 5.636 4.24 10.704-1.757 6.434-6.99 9.471-15.191 7.235l-18.844-5.147 10.412-38.149 18.789 5.13c6.833 1.863 10.123 7.293 8.384 13.666-.607 2.223-1.659 3.83-3.244 4.928-1.584 1.096-3.052 1.55-4.481 1.408zm36.946 9.698-4.476-14.56-6.997 13.56zm13.693 16.965-8.644-.752-2.68-8.713-17.414-1.519-4.206 8.11-8.646-.755 20.5-37.93 7.472.654zm36.701-10.205.598 7.237-28.355 2.345-3.257-39.417 8-.663 2.66 32.179zm37.028-8.28 1.696 7.062-27.66 6.642-9.236-38.45 7.807-1.876 7.54 31.394zm45.796-30.018 7.678-2.088c1.39 4.851 1.146 9.34-.818 13.444-1.965 4.096-5.066 7.254-9.44 9.463-5.22 2.637-10.497 3.053-15.866 1.336q-8.051-2.58-12.004-10.413c-2.61-5.16-3.027-10.44-1.227-15.78 1.773-5.395 5.245-9.396 10.463-12.034 4.322-2.186 8.672-2.86 13.14-2.008 4.44.8 8.12 3.108 11.116 6.82l-5.967 5.466c-4.223-5.215-9.77-6.114-14.883-3.534-3.214 1.627-5.346 4.091-6.358 7.45-1.044 3.302-.738 6.658.936 9.976 1.678 3.318 4.196 5.553 7.502 6.728 3.358 1.15 6.604.898 9.766-.698 5.217-2.637 7.682-7.586 5.962-14.128m42.408-18.369 4.366 5.8-22.731 17.112-23.779-31.6 6.414-4.826 19.416 25.797zm7.084-53.118 15.867 15.013c4.03 3.82 6.238 8.019 6.573 12.644s-1.221 8.764-4.75 12.493c-3.614 3.818-7.738 5.684-12.418 5.648q-7.019-.058-13.066-5.778l-15.863-15.018 5.515-5.832 15.869 15.018c4.802 4.54 10.49 4.805 14.384.686 3.696-3.902 3.04-9.48-1.764-14.028l-15.864-15.013zm35.516 6.168 5.805-8.903c1.936-2.965 1.384-5.58-1.136-7.227-2.522-1.649-5.234-.948-6.913 1.627l-5.964 9.15zm-21.662-14.126 8.112 5.29 5.483-8.411c1.773-2.717 1.219-5.547-1.352-7.225-2.223-1.454-5.02-.735-6.47 1.49zm19.966-7.706c2.362-2.758 7.09-3.624 11.493-.755 5.587 3.644 6.873 9.56 2.23 16.683l-10.674 16.369-33.14-21.61 10.643-16.32c3.873-5.934 10.05-7.405 15.586-3.794 1.931 1.257 3.14 2.75 3.702 4.6.56 1.84.54 3.38-.035 4.699z" fill="#fff"/><path d="m300 141.901c-56.61 0-129.339 8.022-129.339 8.022v230.242c-.232 63.346 100.224 32.288 129.339 86.06 29.113-53.772 129.351-22.714 129.337-86.06v-230.242s-66.807-8.023-129.337-8.023" fill="#dab072"/><path d="m420.757 250.05h-241.514v-92.393c20.088-2.013 75.893-7.173 120.758-7.173 49.15 0 101.59 5.07 120.756 7.116z" fill="#695188"/><path d="m420.755 380.169c.006 25.969-19.368 31.773-53.605 39.792-21.902 5.13-46.08 10.832-62.857 26.776l.023-39.758a24 24 0 0 1 -8.58.143l-.024 39.627c-16.787-15.954-40.998-21.654-62.924-26.787-34.259-8.013-53.64-13.815-53.547-39.796v-121.536h116.573l-.053 101.337a24 24 0 0 1 8.581.103l.054-101.44h116.36z" fill="#de003c"/><g fill="#fff"><path d="m274.226 347.78c0-.683.47-1.24 1.051-1.235.58 0 1.047.55 1.047 1.236v2.788h-2.098zm-.88 2.789h-2.1v-2.788c0-.684.47-1.24 1.05-1.236.581 0 1.05.55 1.05 1.236zm-2.549-27.52c0-1.379 1.179-3.023 2.643-3.02 1.462 0 2.59 1.699 2.59 3.08l.052 5.027h-5.285zm-.435 27.52h-2.093v-2.788c0-.684.467-1.24 1.047-1.236.58 0 1.046.55 1.046 1.236zm-2.977 0h-2.097v-2.788c0-.684.466-1.24 1.048-1.236.58 0 1.05.55 1.05 1.236zm-8.067-22.433v-5.087c0-1.379 1.18-3.023 2.643-3.02 1.465 0 2.587 1.699 2.587 3.08l.057 5.027zm5.087 22.433h-2.097v-2.788c0-.684.466-1.24 1.046-1.236.582 0 1.051.55 1.051 1.236zm-2.981 0h-2.096v-2.788c0-.684.466-1.24 1.046-1.236.58 0 1.05.55 1.05 1.236zm-2.98 0h-2.098v-2.788c0-.684.467-1.24 1.047-1.236.581 0 1.05.55 1.05 1.236zm-2.982 0h-2.096v-2.788c0-.684.467-1.24 1.047-1.236.581 0 1.05.55 1.05 1.236zm-2.98 0h-2.096v-2.788c0-.684.467-1.24 1.047-1.236.58 0 1.05.55 1.05 1.236zm-2.98 0h-2.097v-2.788c0-.684.467-1.24 1.047-1.236.581 0 1.05.55 1.05 1.236zm-2.98 0h-2.097v-2.788c0-.684.47-1.24 1.05-1.236.58 0 1.046.55 1.046 1.236zm-2.98 0h-2.098v-2.788c0-.684.47-1.24 1.05-1.236.58 0 1.047.55 1.047 1.236zm2.276-18.964h-3.68v-12.068h3.68zm-4.76-29.555c0-1.381 1.18-3.026 2.643-3.022 1.464 0 2.587 1.698 2.587 3.08l.056 5.026h-5.284zm-.497 48.52h-2.097v-2.79c0-.683.47-1.24 1.05-1.235.58 0 1.047.55 1.047 1.236zm-2.981 0h-2.096v-2.79c0-.683.47-1.24 1.05-1.235.58 0 1.046.55 1.046 1.236zm-8.037-43.436v-5.084c0-1.381 1.178-3.026 2.645-3.022 1.462 0 2.586 1.698 2.586 3.08l.058 5.026zm5.057 43.435h-2.097v-2.788c0-.684.469-1.24 1.05-1.236.58 0 1.047.55 1.047 1.236zm-4.983-30.897h3.679v12.066h-3.68zm2.002 30.897h-2.096v-2.788c0-.684.469-1.24 1.049-1.236.581 0 1.047.55 1.047 1.236zm-2.98 0h-2.096v-2.788c0-.684.468-1.24 1.049-1.236.58 0 1.047.55 1.047 1.236zm-2.978 0h-2.097v-2.788c0-.684.467-1.24 1.048-1.236.58 0 1.05.55 1.05 1.236zm-2.981 0h-2.099v-2.788c0-.684.47-1.24 1.05-1.236.58 0 1.049.55 1.049 1.236zm-2.977 0h-2.1v-2.788c0-.684.468-1.24 1.048-1.236.58 0 1.053.55 1.053 1.236zm-7.8-22.433v-5.087c0-1.379 1.178-3.023 2.642-3.02 1.463 0 2.587 1.699 2.587 3.08l.057 5.027zm4.82 22.433h-2.1v-2.788c0-.684.466-1.24 1.046-1.236.582 0 1.054.55 1.054 1.236zm-2.98 0h-2.1v-2.788c0-.684.466-1.24 1.046-1.236.582 0 1.054.55 1.054 1.236zm-2.982 0h-2.098v-2.788c0-.684.466-1.24 1.046-1.236.58 0 1.054.55 1.054 1.236zm-2.98 0h-2.1v-2.788c0-.684.467-1.24 1.047-1.236.581 0 1.053.55 1.053 1.236zm-2.981 0h-2.1v-2.788c0-.684.467-1.24 1.047-1.236.58 0 1.053.55 1.053 1.236zm-2.98 0h-2.1v-2.788c0-.684.467-1.24 1.05-1.236.58 0 1.05.55 1.05 1.236zm-1.399-27.52c0-1.379 1.179-3.023 2.643-3.02 1.467 0 2.59 1.699 2.59 3.08l.057 5.027h-5.29zm-1.581 27.52h-2.1v-2.788c0-.684.467-1.24 1.047-1.236.584 0 1.053.55 1.053 1.236zm78.368-2.788c0-.684.47-1.24 1.05-1.236.58 0 1.046.55 1.046 1.236v2.788h-2.096zm-.799 29.993c.712-2.92 2.033-5.677 3.793-8.13v-65.751h-3.61v8.107h-3.61v-8.107h-3.606v8.107h-3.607v-8.107h-3.61v8.107h-3.607v-8.107h-3.61v34.493h-3.609v-60.776h-3.007v10.17h-3.006v-10.171h-3.006v10.17h-3.009v-10.17h-3.007v10.17h-3.009v-10.17h-3.002v10.17h-3.01v-10.17h-3.006v60.777h-3.61v-34.492h-3.606v8.127h-3.611v-8.127h-3.61v8.127h-3.603v-8.127h-3.61v8.127h-3.61v-8.127h-3.61v81.206h32.975l-.035-18.21c0-2.414 1.084-5.352 2.827-7.672 1.93-2.56 4.293-3.973 6.653-3.973h.001c5.312 0 9.308 7.063 9.308 11.645v18.21h28.654a23.467 23.467 0 0 1 .626-7.327m62.663-45.427h-19.213v-.792h19.213zm65.397-.792v.792h-19.213v-.792m19.213-.792h-19.213l9.605-25.504z"/><path d="m396.113 304.01a1.25 1.25 0 1 1 -2.499 0 1.25 1.25 0 0 1 2.499 0m-32.699-31.438a1.251 1.251 0 1 1 -2.502-.003 1.251 1.251 0 0 1 2.502.003"/><path d="m375.322 291.764-26.186-.058 13.026-17.886zm-1.758 47.348h-3.707v-9.04c0-1.311.773-2.372 1.727-2.372h.252c.954 0 1.728 1.06 1.728 2.372zm-5.414 0h-5.09v-9.04a2.371 2.371 0 0 1 2.372-2.372h.348a2.371 2.371 0 0 1 2.372 2.372zm-6.794 0h-5.094v-9.04a2.373 2.373 0 0 1 2.374-2.372h.348a2.371 2.371 0 0 1 2.372 2.372zm-6.8 0h-3.756v-9.04c0-1.311.784-2.372 1.75-2.372h.258c.968 0 1.748 1.06 1.748 2.372zm-5.463-13.086v14.76l26.195-.002v-14.704z"/><path d="m359.482 267.396h2.156l-.012 5.177h1.08l.011-5.177h2.156l.005-1.296h-2.16l.01-2.587h-1.079l-.008 2.587h-2.157zm33.307 31.374h1.66l-.008 3.986h.83l.007-3.986h1.662v-.994h-1.659l.005-1.991h-.829l-.005 1.99h-1.659z" fill-rule="evenodd"/><path d="m339.072 330.762h-19.213l9.6-25.504z"/><path d="m330.713 304.01a1.25 1.25 0 1 1 -2.498 0 1.25 1.25 0 0 1 2.498 0"/><path d="m327.39 298.77h1.66l-.014 3.986h.833l.008-3.986h1.659l.003-.994h-1.66l.006-1.991h-.832l-.002 1.99h-1.663z" fill-rule="evenodd"/><path d="m373.6 323.424h-3.707v-5.707l1.856-5.707 1.85 5.707zm-5.415 0h-5.09v-5.707l2.547-5.707 2.543 5.707zm-6.796 0h-5.09v-5.707l2.547-5.707 2.543 5.707zm-6.797 0h-3.755v-5.707l1.88-5.707 1.875 5.707zm-5.463-13.28v15.093l26.195.053v-15.093zm24.47-2.664h-3.706v-5.707l1.856-5.707 1.85 5.707zm-5.414 0h-5.09v-5.707l2.547-5.707 2.543 5.707zm-6.796 0h-5.09v-5.707l2.547-5.707 2.543 5.707zm-6.797 0h-3.755v-5.707l1.88-5.707 1.875 5.707zm-5.463-13.282v15.094l26.195.054v-15.093zm.001-1.641h26.192v.847h-26.192m53.554 67.223h-3.731v-1.865a1.867 1.867 0 1 1 3.73 0zm-5.52 0h-3.731v-1.865a1.867 1.867 0 1 1 3.73 0zm-5.522 0h-3.733v-1.865a1.867 1.867 0 1 1 3.733 0zm-5.524 0h-3.729v-1.865a1.867 1.867 0 1 1 3.73 0zm-5.522 0h-3.727v-1.865a1.867 1.867 0 0 1 1.864-1.867c1.027 0 1.863.835 1.863 1.867zm-5.518 0h-3.733v-1.865a1.867 1.867 0 1 1 3.733 0zm-5.186-8.124v-6.687c0-1.31.776-2.371 1.728-2.371h.254c.952 0 1.726 1.061 1.726 2.37v6.688zm-.338 8.124h-3.733v-1.865a1.867 1.867 0 1 1 3.733 0zm-5.522 0h-3.728v-1.865c0-1.032.836-1.867 1.862-1.867a1.867 1.867 0 0 1 1.866 1.867zm-5.52 0h-3.73v-1.865a1.867 1.867 0 1 1 3.728 0zm-3.918-8.124h-3.757v-6.687c0-1.31.783-2.371 1.75-2.371h.257c.968 0 1.75 1.061 1.75 2.37zm-1.604 8.124h-3.733v-1.865a1.867 1.867 0 1 1 3.733 0zm3.31-14.811a2.37 2.37 0 0 1 2.37-2.371h.35a2.37 2.37 0 0 1 2.372 2.37v6.688h-5.092zm6.796 0a2.37 2.37 0 0 1 2.372-2.371h.348a2.371 2.371 0 0 1 2.37 2.37v6.688h-5.09zm-15.63 14.811h-3.726v-1.865a1.864 1.864 0 1 1 3.726 0zm-5.52 0h-3.729v-1.865a1.867 1.867 0 1 1 3.73 0zm-5.52 0h-3.733v-1.865a1.867 1.867 0 1 1 3.733 0zm-5.523 0h-3.73v-1.865a1.867 1.867 0 1 1 3.73 0zm-5.52 0h-3.731v-1.865a1.865 1.865 0 1 1 3.73 0zm59.875-27.485-.02 19.361h-9.914v-10.923h-26.195l.005 10.923h-10.062v-19.36h-19.213v37.608c.309.49.624.98.893 1.491 2.024 3.73 2.937 7.972 2.788 12.14h18.346v-12.56c0-3.553 2.398-6.845 5.895-7.475a7.25 7.25 0 0 1 8.596 7.12v12.915h11.944v-12.915a7.244 7.244 0 0 1 14.488 0v12.915h21.661v-51.241z"/></g><path d="m320.753 372.242c-.272-.512-.584-1-.893-1.49-3.055-4.811-7.883-8.57-13.475-10.193a24 24 0 0 0 -10.624-.594c-2.813.47-5.555 1.396-8.032 2.824-2.973 1.706-5.533 4.081-7.528 6.856-1.76 2.452-3.08 5.21-3.793 8.133-.6 2.4-.792 4.88-.627 7.321.264 3.888 1.453 7.698 3.47 10.97 3.26 5.373 8.673 9.248 14.634 10.686a24 24 0 0 0 1.85.367v-.33a21.167 21.167 0 0 1 -1.745-.42c-5.802-1.695-10.733-5.806-13.504-11.013-1.713-3.169-2.58-6.72-2.628-10.26a22.133 22.133 0 0 1 2.343-10.285c1.97-3.985 5.093-7.37 8.953-9.547a22 22 0 0 1 6.607-2.496 22.667 22.667 0 0 1 8.581-.109c.467.09.935.164 1.396.277 5.603 1.351 10.69 4.97 13.767 10.018.13.206.235.426.355.64a22.733 22.733 0 0 1 2.966 10.785 22.267 22.267 0 0 1 -.613 5.784c-1.427 5.872-5.376 11.09-10.657 14.121 5.301-2.994 9.333-8.126 11.044-14.016.573-1.902.866-3.89.94-5.889.148-4.168-.763-8.407-2.788-12.14" fill="#dab072"/><path d="m287.52 414.195a1.733 1.733 0 0 0 -.323.06h-.072c.252.524.959-.093.395-.06m.618-.008a.533.533 0 0 0 -.24.052c.468.086.435-.045.24-.052m4.107-.145a2.667 2.667 0 0 0 -.683.093l-3.269.096c.672 1.279-.232 1.716-.107 2.086.498-.07.879.005 1.104.153a.4.4 0 0 1 -.008-.068c-.008-.212.092-.427.28-.447.2-.02.367.387.37.438.008.213-.134.546-.403.624q-.019-.028-.035-.06c-.092.262-.449.546-1.153.754.741 2.294 1.405 4.65 1.059 7.134.741 1.632-3.046 3.85-1.544 4.352.844-1.756.308 1.59 2.28.549 2.15.163.769-2.275 2.505-2.72.377-2.96-1.033-5.973-.13-8.813.994-1.311 1.66-4.166-.266-4.171m12.712-1.11c-.25.34-.563.583-1.044.469l-.15.069c.213.083.38.223.485.212.157-.015.836-.287.821-.656-.005-.105-.057-.048-.112-.093m13.427-1.094c-.643.598 1.882 2.051-.58 1.536-.696.799.257 2.574-.258 3.907.258 3.196-1.133 6.677-3.896 8.853-.746 1.396 1.516-.917.775.77 2.01.97 3.093-1.347 3.873-2.496-.122-3.304 1.983-6.256 3.942-8.963-1.17-.603-.798-2.68-3.087-1.95 1.156-1.014.896-1.31-.77-1.657m-.342-.846c-1.153.654-3.421 1.481-.83.992-.131-.36 2.054-1.012.83-.992m-16.625-.31c.324-.03.798.61.806.822.008.26-.142.489-.368.512-.489.049-.924-.443-.938-.862-.014-.317.417-.466.5-.472m23.933-.142a.64.64 0 0 1 .427.117c.06.1.113.252.17.352.006.103.215.143.327.29a.533.533 0 0 1 .128.3c.008.262-.365.405-.472.417-.103.008-.32-.027-.373-.128-.224-.295-.562-.844-.564-.951-.006-.103.093-.373.357-.397m1.079-.902c.106-.008.372.287.537.43 0 0 .067.1.067.206.004.103-.102.271-.204.283-.267.023-.758-.504-.76-.557-.007-.158.25-.35.36-.36m-22.94-.624c.314-.03.477.26.485.472.008.208-.04.274-.195.288-.108.012-.222-.086-.328-.075-.102.01-.824.501-.929.51-.264.026-.319-.071-.324-.229-.008-.157.177-.858.495-.889.106-.01.32.068.426.06.107-.012.263-.127.37-.137m1.316-.127c.368-.037.805.495.82.813.013.314-.403.511-.454.518-.104.01-.27-.078-.376-.067-.106.01-.466.255-.572.267-.314.028-.266-.24-.266-.24-.011-.264.084-.33.444-.574.205-.178.037-.37.137-.54a.32.32 0 0 1 .267-.177m3.564-2.3c.262-.025.28.392.282.444.027.735-.617.432-.693 1.233a.48.48 0 0 1 -.265.128c-.37.032-.435-.386-.438-.44a1.2 1.2 0 0 1 .088-.424c.15-.173.36-.3.51-.472.104-.114.2-.285.301-.402 0-.05.108-.055.213-.067m-6.112-.033c.172.005.287.065.292.22.006.106-.089.332-.082.437.002.107.386.487.388.59a.613.613 0 0 1 -.091.334c-.103.115-.776.595-.88.607-.213.02-.213-.138-.216-.19-.003-.106.2-.282.3-.453-.16-.039-.33-.436-.34-.699-.012-.264.075-.801.444-.838a1.333 1.333 0 0 1 .187-.008m8.914-1.291c.263-.027.43.17.435.324.012.263-.397.617-.555.632-.157.017-.272-.23-.272-.284-.005-.097.11-.583.34-.663a.133.133 0 0 1 .052-.009m2.12-.103c.106-.012.32.24.427.28.056.05.21.032.265.027.058.048.107.09.111.197.003.106-.4.518-.547.795-.053.005-.056.057-.162.068-.106.01-.263-.137-.267-.188-.01-.264-.08-.63-.085-.736-.003-.105.049-.423.258-.443m-6.745-.506c.107-.008.152.034.155.137.005.107-.183.444-.178.547.003.106.387.752.392.854.003.107-.089.327-.137.435-.103.117-.604.85-.76.864-.264.027-.333-.485-.333-.485-.006-.158.293-.616.289-.719-.003-.107-.115-.253-.12-.36-.008-.21.112-1.216.692-1.273m14.147-1.102c.106-.01.26.083.314.13.107.042.112.142.224.237.05-.003.094-.01.203.037.057.046.067.098.07.203.005.107.017.263-.195.283s-.822-.454-.834-.718c0-.106.055-.052.055-.102.052-.058.057-.06.164-.07m-12.752-.989c.21-.02.285.34.29.392.002.103-.115.067-.113.172.003.103.168.2.172.307.008.21-.089.425-.301.445-.315.028-.435-.33-.443-.541-.005-.158.027-.74.395-.775m-18.864-.18c.405-.04.28.452.65.42.106-.01.42-.267.529-.275.348-.033.554.636.562.847.006.155-.117.43-.237.444-.268.027-.525-.21-.61-.36l-.107.008c-.375.457-.244.607-.615.644-.355.03-.55-.69-.559-.901-.002-.103-.013-.79.387-.827m-1.001-1.693a.48.48 0 0 1 .34.12c.024.154-.003.372.089.469.093.148.26.347.267.453.004.21-.15.222-.267.234-.112.008-.143-.047-.25-.038-.107.011-.371.307-.477.318-.349.034-.372-.444-.606-.632-.188-.09-.483-.11-.752-.238l-.014-.157c.134-.067.279-.135.387-.147.293-.028.396.175.59.158.271-.028.126-.486.589-.532zm29.084-.435a.16.16 0 0 1 .11.043c.222.133.39.437.559.629a.533.533 0 0 1 .12.303c.003.104-.097.226-.097.333.002.101.122.353.128.51s-.191.654-.351.667c-.315.032-.541-.534-.544-.64-.005-.106.123-.793.117-.898-.013-.315-.384-.235-.4-.71-.008-.157.106-.212.214-.22.053-.006.101-.02.144-.017m-27.723-.813c.268-.026.197.458.435.436.102-.014.272-.178.373-.187.207-.02.436.06.444.272.003.053-.073.372-.25.495-.118.012-.273-.028-.387.034-.103.063-.206.128-.31.138-.337.033-.637-.312-.649-.574-.008-.21.032-.582.344-.613m2.313-.581c.11-.012.75.189.856.177.108-.012.227-.077.366-.147.057.05.109.095.112.2.013.264-.518.37-.572.376-.112.008-.298-.02-.41-.009-.108.012-.469.255-.573.264-.116.01-.456-.063-.461-.224-.014-.263.457-.617.682-.637m-.27-2.832c.065-.006.11.04.168.034.013.054.057 0 .06.103.008.21-.486.415-.52.47-.046.005-.107.171-.207.231-.245.078-.563.06-.817.188-.087.01-.207.172-.292.18a2 2 0 0 1 -.48.164c-.11.011-.395-.02-.502-.009-.292.03-.337.507-.752.547-.349.034-.581-.21-.592-.472-.013-.315.527-1.21.814-1.236.373-.038.393.489.385.646a.933.933 0 0 0 .373.018c.13-.012.367-.458.754-.495.109-.012.406.12.589.103zm40.793-.818c.476-.046.547.523.556.734.003.104-.29.768-.284.873.003.103.12.3.18.4.112.147.427.28.539.43.274.234.28.343.29.606.014.315-.148.424-.394.921-.154.174-.14.44-.291.667l-.152.017c-.057-.046-.217-.192-.223-.297l-.026-.573c-.02-.471-.518-1.007-.523-1.112-.003-.103.205-.227.312-.292-.057-.046-.112-.1-.112-.152-.035-.84-.35-.703-.37-1.284-.002-.107.075-.898.498-.938m-41.675-1.992c.008.104-.045.214-.102.375-.567.267-.55.584-.984.627-.107.009-.184-.038-.29-.028-.249.026-.317.509-.726.546-.112.011-.298-.129-.403-.12-.11.011-.21.128-.315.136-.274.03-.556-.21-.564-.525-.017-.479.267-.819.767-.864.243-.027.14.04.532.16.123.04.257-.083.383-.093.134.04.28.13.386.12.11-.014.335-.19.504-.204.126-.07.38-.147.486-.103zm-5.564-.657c-.057.013-.106.16-.146.537-1.27.49.746 1.608-.992 1.48.258 1.338 1.285 2.056-.83 1.767-1.086 1.467 1.848-.52.856 1.173 1.16 1.347-1.785 4.798.838 4.067.074.964-1.055 2.904 1.13 2.067.58-2.215-2.76-2.624-.744-4.827-.821-.697-.186-2.128.34-2.57-.093-.37-.125-.717-.137-.737-.063-.048-.208-.033-.288-.08-.095-.042-.195-.245-.197-.349-.02-.475.388-.932.572-1.53.022-.054-.027-.214.025-.323q.04-.071.085-.094c-.237-.074-.394-.618-.512-.58m11.102-2.678c.206-.02.354.125.36.282.008.214-.331.824-.488.84-.11.007-.167-.038-.214-.138l-.024-.675c-.008-.213.34-.307.366-.31m-8.699-.631c.104-.012.087-.014.137.034.198.086.12.307.17.46.205.192.669-.222.684.198.013.366-1.104.741-1.136.744a.52.52 0 0 1 -.582-.47c-.008-.212.36-.929.727-.966m7.68-1.162c.155-.013.413.64.413.64.011.262-.058.587-.276.61a.24.24 0 0 1 -.21-.088c-.015-.103.02-.16 0-.267a1.067 1.067 0 0 0 -.192-.348c-.014 0-.018.003-.023-.152-.003-.107.15-.38.288-.395m-7.4-1.982c.175-.018.23.186.23.186.005.16-.08.228-.075.334.008.21.432.166.444.43.002.103-.04.154-.087.212-.257.076-.697.231-.947.306-.268-.078-.11-.25-.18-.4-.074-.099-.157-.094-.237-.139-.123.015-.24-.348-.24-.348-.005-.157.032-.475.323-.504.106-.012.272.187.378.177.106-.008.28-.242.391-.253m-2.545-2.6c-.107.007-.298.19-.343.248-.075.11-.072.325-.137.437-.092.166-.27.395-.35.615a.667.667 0 0 0 .307.067c.11-.01.18-.064.205-.067.258-.343.484-.732.779-1.079-.147-.037-.352-.23-.461-.222m7.477-.504c.357-.034.432.526.435.633.005.103-.072.33-.067.437.004.103.09.2.093.307.004.156-.173.225-.204.23-.349.035-.494-.589-.497-.64-.003-.109.097-.333.093-.438-.004-.153-.048-.303-.04-.408a.211.211 0 0 1 .187-.12m-6.419-2.864c-.544.052-1.049.939-1.129 1.367-.035.164-.261.294-.399.358.092.098.258.183.367.174a1.333 1.333 0 0 0 .4-.146c.317-.297.71-.964 1.076-1.053.005 0 .664-.11.653-.373-.004-.107-.013-.107-.061-.155-.31-.027-.795-.18-.907-.172m10.53-.597c.106-.01.448.222.666.306.214.086.491.107.747.191.165.088 1.341.817 1.355 1.187.008.21-.171.226-.203.232-.107.008-.41-.174-.6-.21-.299-.073-.636.067-.913-.065-.36-.177-.67-.62-.632-.941-.132-.09-.61-.315-.618-.47-.002-.105.086-.22.198-.23m.82-2.667c.112-.01.114-.013.164.035.137.037.592.42.597.58a.263.263 0 0 1 -.24.29c-.232.022-.373-.284-.453-.436-.166-.037-.323.035-.506.052-.045-.049-.114-.1-.117-.206-.008-.208.53-.315.555-.315m-2.48-4.153a6.667 6.667 0 0 0 -.5.034c-1.594.347-4.648 1.007-4.943 2.091 1.35.077 4.107 3.204 1.461 1.619-.692-.96-5.01-2.114-2.342-.2.864 1.046 5.062 2.666 1.378 1.95-1.65-.485-3.36-3.484-4.83-2.777.549 2.557 3.349 4.07 6.093 3.861.243 1.454-2.61.427-2.896 1.974-.168.493.037 2.132-1.487 1.437-.656.817 2.259 1.719.083 1.761-.65.936.23 2.126-1.45 1.828.97 1.596-2.58-.202-1.11 1.728 1.39.99-2.065 3.24.177 2.787 1.102-.636.91-4.96 1.404-2.095 1.194 1.276-1.106 2.254 0 3.624-.16.454-.3.679-.42.76.243-.016.147.099.374.179l.026.575c.014.106-.13.125-.125.232.005.154.395.11.405.426.008.156-.233.603-.228.708.008.21.352.118.366.487.005.107-.243.613-.238.719.006.157.104.245.1.35l.02.315c-.045.004-.065.061-.17.07a.48.48 0 0 1 -.318-.083c-.017.108-.034.217-.066.348 1.917 1.496-.532 4.222.478 6.33.832 1.667-1.928.45-.274 2.191 1.512-.113 1.36-1.864 1.214-2.803 2.06.512.674 4.491 3.274 3.29.493 1.026-1.236 2.646-.814.744-.78.557-3.272-1.408-1.804.332 1.279 1.089 1.347 1.526-.4 1.778-2.274.275-2.944 1.474-4.924 2.326-2.033.346-4.57 1.513-4.196 3.776-.017 2.732-.677 5.469-1.436 8.129.03 1.6.355 4.041 1.591 3.453 1.707.263 2.683-3.528 1.608-5.069.088-2.605.803-5.613 2.16-7.752 2.6-1.805 6.372-.253 8.695-2.297 1.438.174 3.512 1.213 3.758-1.174 1.662.416-.377 2.52 2.051 2.779 2.373 1.253 3.504-.383 2.667-2.348-.054-1.968 1.696-1.668.805.34-.887 1.524 2.243 3.71 1.696 2.71-1.587-1.489.913-1.489 1.637-1.66-1.57-1.51.083-1.842.98-.623.77-.399 1.303-.964 1.794-1.496a.667.667 0 0 1 .026.18l.214-.023c.309-.244.773-.499 1.036-.524.106-.012.22.037.324.027-.267-.08-.707-.304-.81-.294a1.333 1.333 0 0 0 -.249.072c.71-.7 1.484-1.189 2.903-.874 1.506.7-2.648 1.83.301 1.376.77-.754 1.544-4.795 1.599-2.34.142-.227.502-.324.7-.59-.003-.106-.003-.264-.008-.369-.003-.107.204-.23.306-.24.16-.013.592.26.6.472.014.315-.712.81-.709.864.003.103.227.448.23.555.005.102-.043.06-.04.108-.053.06-.049.06-.155.072-.183.017-.775-.166-.942-.49-.66 1.274 1.394 1.264.787 2.018.724-.734.981-1.471 2.172-.947 2.027-.536.757-2.936 2.265-4.29-.944-.127-1.582-2.55-.606-2.507.502-.975 1.986 3.664 1.913.756 1.988-.759.223 2.67 2.195 2.476a1.12 1.12 0 0 1 .522.358.8.8 0 0 0 .052-.189c-.002-.103-.066-.1-.07-.152-.162-.143-.476-.165-.488-.428.112-.21.229-.239.369-.25q.073 0 .155-.009c.737-.068.853.227.872.756.017.527-.168.967-.358 1.511l-.217.025c-.017-.026-.037-.04-.057-.066-.023.916-.18 1.813 1.34 1.548a1.04 1.04 0 0 1 .088-.24c-.275-.187-.64-.052-.654-.42-.004-.264.356-.344.516-.359.263-.028.492.16.65.147.106-.012.413-.095.572-.167.102-.06.252-.177.297-.288 0-.052-.005-.212.045-.324 0 0 .107-.11.212-.12.267-.027.535.26.54.417l.032.787c-.15.175-.302.299-.41.31-.102.007-.426-.073-.528-.063-.107.01-.103.117-.206.182.22.24.692.358.71.776.005.106-.14.334-.138.438.006.106.227.449.232.554.003.107-.137.492-.18.76-.104.064-.204.13-.31.139-.208.02-.286-.352-.288-.4-.003-.107.054-.164.052-.267-.158.014-.418.094-.53-.052a1.333 1.333 0 0 1 -.12-.12c-.14.227-.44.1-.838-.813-2.426 1.257-1.614-2.31-2.743-2.983-.712-.654-1.199-1.741-2.043-.297.32.733 1.236 3.253 1.144.847 2.632.254.127 4.642 3.496 3.99.647 1.482 2.883-.354 3.719 1.367 1.739-.844 1.684-.103 1.616 1.161 1.032-3.252.924 1.834 1.479 2.774.449 2.536-.14 5.285-.702 7.808-.053 1.386-3.472 3.269-.402 3.369 2.53.117 3.626-2.34 3.537-4.283-.273-3.172.833-6.394 2.027-9.393-.24-2.22-1.912-4.047-.831-6.35-.03-2.46 2.043-4.145.704-6.41.99-3.032.592 1.127 1.768 1.787-1.104 1.493-1.248 3.31-1.69 5.049-.81 1.39.723 4.313.154 1.276-.13-1.327 1.027-2.577 1.356-3.933 1.133 1.321-1.513 4.926.343 5.933 1.42-.836.234-2.132 1.393-3.516-.32-2.016 1.32-4.28-.237-6.244 1.106-2.093-1.328-3.501-1.164-5.49-.782-2.185-3.434-3.529-4.667-5.503-2.284-1.004-4.639-1.944-7.241-1.144-2.286-1.276-4.58 1.305-6.706.23-2.27.062-4.064 1.84-6.396 1.392-2.476 1.507-5.35-.818-7.965-.404-1.816.27-5.187.16-3.904-2.357-1.663-.093-1.35-1.761-3.404-1.453-1.616-.45-.95-2.68.025-.718 1.674.22 3.25.19 4.943-.472 1.159.4 5.045.33 1.99-.322-1.08-1.583 4.234 1.598 2.403-.956-1.985-.518-.646-1.906.444-.288.191-2.715-2.76-5.24-4.368-6.62-1.802-1.007 2.168-.178.498-1.99-1.39-1.857-3.33-3.056-5.815-2.99" fill="#fff"/><path d="m300.001 340.544c-22.39 0-40.542-18.154-40.542-40.542 0-22.392 18.152-40.544 40.542-40.544 22.388 0 40.54 18.152 40.54 40.544 0 22.388-18.152 40.542-40.54 40.542m0-85.015c-24.521 0-44.473 19.948-44.473 44.473 0 24.52 19.952 44.47 44.473 44.47s44.473-19.95 44.473-44.47c0-24.525-19.951-44.473-44.473-44.473" fill="#dab072"/><path d="m300.001 259.458c-22.39 0-40.542 18.154-40.542 40.542 0 22.392 18.152 40.544 40.542 40.544 22.388 0 40.54-18.152 40.54-40.544 0-22.388-18.152-40.54-40.54-40.54" fill="#38284f"/><path d="m330.85 297.565c-.951 0-1.755.56-2.16 1.36l-3.06-1.533c-1.633-.816-2.997-3.586-3.403-4.8l-.45-1.354c.967-.324 1.676-1.21 1.676-2.285a2.44 2.44 0 1 0 -4.88 0c0 .507.19.947.454 1.336l-1.196.803c-3.422 2.302-9.611 4.03-13.694 4.777.75-4.07 2.478-10.245 4.78-13.716l.784-1.179c.387.259.827.444 1.324.444a2.44 2.44 0 0 0 0-4.88c-1.078 0-1.961.71-2.285 1.68l-1.33-.444c-.96-.329-3.93-1.662-4.8-3.404l-1.52-3.037c.787-.407 1.34-1.205 1.34-2.152a2.439 2.439 0 1 0 -4.877 0c0 .953.56 1.753 1.354 2.157l-1.514 3.032c-.872 1.742-3.84 3.075-4.81 3.407l-1.303.44a2.413 2.413 0 0 0 -2.281-1.661 2.44 2.44 0 0 0 0 4.88c.497 0 .932-.187 1.318-.44l.766 1.157c2.302 3.473 4.033 9.65 4.782 13.716-4.086-.747-10.28-2.475-13.704-4.777l-1.192-.8c.26-.39.45-.83.45-1.336a2.44 2.44 0 1 0 -4.878 0c0 1.078.707 1.962 1.676 2.288l-.452 1.346c-.329.966-1.664 3.931-3.4 4.8l-3.061 1.531c-.404-.797-1.207-1.359-2.16-1.359a2.44 2.44 0 1 0 0 4.88c.956 0 1.76-.564 2.16-1.361l3.06 1.53c1.737.87 3.072 3.837 3.404 4.809l.453 1.324c-.962.326-1.666 1.21-1.666 2.282a2.44 2.44 0 0 0 4.88 0c0-.502-.188-.944-.448-1.33l1.177-.788c3.419-2.3 9.613-4.028 13.701-4.775-.75 4.067-2.482 10.24-4.782 13.716l-.783 1.181c-.39-.257-.824-.444-1.325-.444a2.44 2.44 0 0 0 0 4.88c1.08 0 1.965-.71 2.285-1.68l1.333.444c.96.327 3.928 1.66 4.8 3.4l1.527 3.056c-.795.404-1.36 1.208-1.36 2.16a2.44 2.44 0 1 0 4.88 0c0-.952-.561-1.76-1.36-2.16l1.53-3.057c.815-1.636 3.585-2.995 4.8-3.399l1.334-.445c.32.97 1.203 1.681 2.281 1.681a2.44 2.44 0 1 0 0-4.88c-.497 0-.937.187-1.324.444l-.784-1.181c-2.302-3.473-4.03-9.648-4.78-13.716 4.083.747 10.272 2.475 13.694 4.773l1.196.808c-.264.388-.454.832-.454 1.335a2.44 2.44 0 0 0 4.88 0c0-1.077-.71-1.961-1.676-2.285l.45-1.352c.329-.964 1.662-3.931 3.404-4.8l3.054-1.531c.404.8 1.21 1.364 2.166 1.364a2.44 2.44 0 0 0 0-4.88" fill="#dab072"/><path d="m300.001 275.676c1.619 3.244 6.487 4.866 6.487 4.866-3.44 5.18-5.677 15.403-5.677 18.647 3.244 0 13.504-2.213 18.649-5.675 0 0 1.623 4.866 4.867 6.487-3.244 1.623-4.867 6.485-4.867 6.485-5.147-3.458-15.405-5.676-18.65-5.676 0 3.244 2.238 13.47 5.678 18.65 0 0-4.867 1.62-6.487 4.86-1.621-3.24-6.488-4.86-6.488-4.86 3.436-5.18 5.676-15.406 5.676-18.65-3.244 0-13.513 2.218-18.658 5.676 0 0-1.619-4.862-4.863-6.485 3.244-1.621 4.863-6.487 4.863-6.487 5.146 3.458 15.414 5.675 18.658 5.675 0-3.244-2.237-13.467-5.676-18.647 0 0 4.867-1.622 6.488-4.866" fill="#de003c"/><path d="m343.588 144.37c-1.507 2.458-7.66 6.963-10.927 8.245-.846.333 4.05-.192 6.241-.472 2.878-.367 6.616-2.148 6.531-1.52-.008 2.881 1.384 7.686 5.01 9.894l.347.214.355-.214c3.627-2.462 4.997-6.79 5.017-9.893-.092-.63 3.647 1.152 6.524 1.519 2.191.28 7.091.806 6.242.472-3.264-1.282-9.414-5.787-10.92-8.244zm-48.09 61.131c-.1-4.416-1.255-8.461-3.289-12.352-5.33-11.204-21.596-10.937-18.009 2.767 1.321 5.052 5.81 8.02 11.141 8.53-.386-1.33-2.502-6.035-.792-6.957 2.734.103 6.456 5.747 7.27 7.998 0 0 0 .014 3.68.014m12.449-.014c.816-2.251 4.537-7.894 7.27-7.998 1.711.92-.407 5.624-.791 6.958 5.332-.51 9.82-3.48 11.14-8.531 3.588-13.704-12.68-13.97-18.008-2.765-2.034 3.889-3.187 7.933-3.29 12.35 3.68 0 3.68-.013 3.68-.013m-8.361-39.267c-5.152 5.552-8.61 11.974-7.116 19.502.82 4.157 2.813 8.004 4.219 12.005.88 2.512 1.106 5.135 1 7.773h4.372c-.21-2.658.248-5.236 1-7.773 1.342-4.027 3.378-7.845 4.222-12.005 1.579-7.771-2.128-13.635-7.097-19.48l-.303-.386zm10.575 47.703h-20.628a2.235 2.235 0 0 1 -2.228-2.232v-1.69c0-1.227 1-2.231 2.226-2.231h20.63a2.236 2.236 0 0 1 2.229 2.23v1.69a2.237 2.237 0 0 1 -2.23 2.233m-17.518 2.268c-1.507 2.458-7.66 6.96-10.927 8.241-.846.335 4.05-.19 6.24-.468 2.879-.367 6.618-2.15 6.53-1.52-.007 2.879 1.384 7.684 5.013 9.892l.347.212.353-.213c3.627-2.459 4.997-6.787 5.015-9.89-.088-.63 3.65 1.152 6.528 1.52 2.19.276 7.088.802 6.24.467-3.267-1.28-9.414-5.783-10.923-8.24zm-41.188 15.636-.3-.387-.3.363c-5.14 5.541-8.593 11.948-7.123 19.457h14.826c1.553-7.75-2.143-13.601-7.103-19.433m99.641 0-.301-.387-.3.363c-5.14 5.541-8.592 11.948-7.123 19.457h14.827c1.554-7.75-2.144-13.601-7.103-19.433m-154.895-26.328c-.1-4.416-1.256-8.461-3.29-12.352-5.33-11.204-21.596-10.937-18.01 2.767 1.324 5.052 5.81 8.02 11.142 8.53-.386-1.33-2.502-6.035-.792-6.957 2.734.103 6.456 5.747 7.27 7.998 0 0 0 .014 3.68.014m12.45-.014c.815-2.251 4.536-7.894 7.27-7.998 1.711.92-.409 5.624-.791 6.958 5.33-.51 9.818-3.48 11.14-8.531 3.586-13.704-12.68-13.97-18.008-2.765-2.034 3.889-3.19 7.933-3.29 12.35 3.68 0 3.68-.013 3.68-.013m-8.362-39.267c-5.15 5.552-8.61 11.974-7.12 19.502.824 4.157 2.819 8.004 4.223 12.005.88 2.512 1.106 5.135 1 7.773h4.371c-.209-2.658.248-5.236 1-7.773 1.34-4.027 3.38-7.845 4.223-12.005 1.579-7.771-2.128-13.635-7.096-19.48l-.304-.386zm10.576 47.703h-20.63a2.234 2.234 0 0 1 -2.226-2.232v-1.69c0-1.227 1-2.231 2.227-2.231h20.629a2.235 2.235 0 0 1 2.228 2.23v1.69c0 1.228-1 2.233-2.228 2.233m-17.52 2.268c-1.507 2.458-7.663 6.96-10.927 8.241-.85.335 4.05-.19 6.242-.468 2.877-.367 6.616-2.15 6.53-1.52-.008 2.879 1.382 7.684 5.01 9.892l.347.212.355-.213c3.627-2.459 4.997-6.787 5.013-9.89-.088-.63 3.651 1.152 6.528 1.52 2.191.276 7.088.802 6.242.467-3.267-1.28-9.416-5.783-10.924-8.24zm202.269-10.69c-.103-4.417-1.255-8.462-3.29-12.353-5.328-11.204-21.594-10.937-18.01 2.767 1.324 5.052 5.812 8.02 11.142 8.53-.386-1.33-2.502-6.035-.792-6.957 2.735.103 6.456 5.747 7.272 7.998 0 0 0 .014 3.678.014m12.45-.014c.815-2.251 4.536-7.894 7.271-7.998 1.707.92-.412 5.624-.792 6.958 5.332-.51 9.82-3.48 11.141-8.531 3.587-13.704-12.68-13.97-18.009-2.765-2.033 3.889-3.19 7.933-3.29 12.35 3.68 0 3.68-.013 3.68-.013m-8.362-39.267c-5.15 5.552-8.61 11.974-7.12 19.502.825 4.157 2.819 8.004 4.223 12.005.881 2.512 1.104 5.135 1.001 7.773h4.37c-.209-2.658.25-5.236 1-7.773 1.34-4.027 3.38-7.845 4.223-12.005 1.58-7.771-2.128-13.635-7.096-19.48l-.302-.386zm10.576 47.703h-20.63a2.234 2.234 0 0 1 -2.226-2.232v-1.69c0-1.227 1-2.231 2.227-2.231h20.629a2.235 2.235 0 0 1 2.228 2.23v1.69c0 1.228-1 2.233-2.227 2.233m-17.521 2.268c-1.51 2.458-7.663 6.96-10.927 8.241-.849.335 4.051-.19 6.242-.468 2.878-.367 6.616-2.15 6.53-1.52-.008 2.879 1.382 7.684 5.012 9.892l.347.212.353-.213c3.627-2.459 4.998-6.787 5.014-9.89-.088-.63 3.65 1.152 6.528 1.52 2.192.276 7.088.802 6.241.467-3.267-1.28-9.416-5.783-10.923-8.24zm-148.813-71.821c-1.507 2.457-7.66 6.962-10.927 8.244-.846.333 4.051-.192 6.24-.472 2.88-.367 6.618-2.148 6.531-1.52-.008 2.881 1.383 7.686 5.012 9.894l.347.214.354-.214c3.627-2.462 4.996-6.79 5.014-9.893-.088-.63 3.65 1.152 6.528 1.519 2.19.28 7.09.806 6.24.472-3.263-1.282-9.414-5.787-10.92-8.244z" fill="#dab072"/></svg>