<svg height="114" viewBox="0 0 114 113.7" width="114" xmlns="http://www.w3.org/2000/svg"><clipPath id="a"><path d="M0 0h114v113.7H0z"/></clipPath><g clip-path="url(#a)"><path d="M57.2 1.6c30.6 0 55.4 24.8 55.4 55.4s-24.8 55.4-55.4 55.4S1.8 87.6 1.8 57 26.6 1.6 57.2 1.6" fill="#fff"/><path d="M86.8 56.8c0 16.5-13.3 29.8-29.7 29.9S27.2 73.5 27.2 57s13.3-29.8 29.7-29.9h.1c16.4 0 29.8 13.3 29.8 29.7" fill="#fff"/><path d="M26.5 56.8c0 16.8 13.6 30.5 30.4 30.6S87.4 73.9 87.5 57c0-16.8-13.6-30.5-30.4-30.6H57c-16.9 0-30.5 13.6-30.5 30.4m1.3 0c0-16.1 13-29.2 29.1-29.2s29.2 13 29.2 29.1-13 29.2-29.1 29.2h-.1c-16 0-29-13-29.1-29.1" fill="#939598"/><path d="M0 56.8c0 31.3 25.6 56.8 57 56.8s57-25.5 57-56.8S88.4 0 57 0 0 25.5 0 56.8" fill="#939598"/><path d="M1.7 57.2c0-30.3 24.8-55 55.2-55s55.2 24.7 55.2 55-24.8 55-55.2 55-55.2-24.6-55.2-55" fill="#fff"/><path d="M43.9 86.5L57 89.1 87.3 65l1.2-14.1z" fill="#003e7e"/><path d="M88.2 50.3L42.4 86.9l14.8 2.9 30.7-24.5 1.4-15.8zm-.4 2c-.2 2.4-1 11.8-1.1 12.3-.5.3-29.4 23.4-29.8 23.7-.5-.1-9.3-1.8-11.5-2.2 2-1.6 40.2-32 42.4-33.8" fill="#fff"/><path d="M80.4 31.6L27.2 74.1l6.4 8 53.2-42.5z" fill="#003e7e"/><path d="M80 31.1L26.3 74l7.2 9 54.2-43.3-7.2-9zm.3 1.4c.7.8 4.9 6.1 5.6 7L33.7 81.2c-.7-.8-4.9-6.1-5.6-7z" fill="#fff"/><path d="M71.1 26.5c-3.9-1.5-7.8-2.7-11.9-3.6l-36 28.8.8.8v11.6z" fill="#003e7e"/><path d="M58.9 22.4L22.2 51.7l1.2 1.2v12.6l49.1-39.1-1.1-.4c-3.9-1.5-7.9-2.7-11.9-3.7l-.3-.1zm.5 1.2c3.5.8 7 1.9 10.4 3.1-1.7 1.3-43.2 34.5-45.2 36V52.3l-.5-.5c1.1-.9 34.8-27.8 35.3-28.2" fill="#fff"/><path d="M19.6 56.8c0 20.7 16.7 37.5 37.4 37.5s37.5-16.7 37.5-37.4-16.7-37.4-37.4-37.4H57c-20.6 0-37.4 16.7-37.4 37.3m8.1 0c0-16.2 13.1-29.4 29.3-29.4s29.4 13.1 29.4 29.3S73.3 86 57.1 86.1H57c-16.2 0-29.3-13.1-29.3-29.3" fill="#f37021"/><path d="M26.5 56.8c0 16.8 13.6 30.5 30.4 30.6S87.5 73.9 87.5 57 73.9 26.5 57.1 26.4H57c-16.8 0-30.5 13.6-30.5 30.4m1.3 0c0-16.1 13-29.2 29.1-29.2s29.2 13 29.2 29.1-13 29.2-29.1 29.2h-.1c-16 0-29-13-29.1-29.1" fill="#939598"/><path d="M18.4 56.8c-.1 21.3 17.2 38.7 38.5 38.8s38.7-17.2 38.8-38.5-17.2-38.7-38.6-38.8H57c-21.3 0-38.6 17.2-38.6 38.5m1.3 0c-.1-20.6 16.6-37.3 37.2-37.4S94.2 36 94.3 56.6 77.7 94 57.1 94H57c-20.6 0-37.3-16.6-37.3-37.2" fill="#939598"/><g fill="#003e7e"><path d="M11.1 82.6c-.4.1-.4.1-.5-.1-.1-.1-.2-.2-.2-.4-.4-.4-.5-.7-.8-1.1-.1-.3-.4-.6-.5-.8l-.3-.3c-.2-.3-.1-.5 0-.6.2-.1.4 0 .7.4.3.5.6.5 1.3 0l5.4-3.7c.9-.6 1-.8.6-1.6-.1-.3-.1-.4.1-.5q.3-.15.6.3s.1.2.1.3c.5.9.9 1.5 1.1 1.9.3.4.5.8.9 1.3.1.1.1.2.2.3.2.3.1.5 0 .6-.2.1-.4.1-.8-.4-.4-.4-.6-.4-1.2-.1l-5.3 3.5 6.6-1.2c.3-.1.6-.1.9-.2.8-.2.9-.2 1.1.1q.15.3 0 .6l-4.5 6.6 3.9-2.3c.4-.2.8-.5 1.2-.8.8-.5.9-.8.6-1.4-.3-.5-.3-.7-.1-.9.2-.1.4 0 .5.3 0 0 .1.2.2.3.1.3.3.6.5.9s.4.6.7.9c.1.1.2.2.3.4s.1.4 0 .5-.3.1-.7-.4c-.4-.4-.6-.4-1.3 0l-5.7 3.2c-.2.1-.3.2-.5.3l-.2.1c-.4.3-.4.4-.1.9s.3.7.1.8q-.3.15-.6-.3l-.9-1.4c-.2-.3-.6-.9-.7-1.1l-.1-.1c-.1-.2-.1-.3 0-.5l3.8-5.5zM9 72.2c-.4-1.3.9-2.9 3-3.6 1.9-.6 3.5-.2 3.9 1 .4 1.3-.9 3-3.1 3.6-1.8.6-3.4.1-3.8-1m-.4 0c.6 2.3 3 3.6 5.2 2.9 1.1-.4 2.1-1.2 2.5-2.4.3-1.1.3-2.2 0-3.2-.6-2.2-2.9-3.6-5.1-3H11c-2.1.8-3.2 3.2-2.4 5.7M8 59c-.9.1-1 .2-1.1 1.2 0 .1-.1.2-.2.2h-.1c-.2 0-.3-.1-.3-.4v-.3c0-.4 0-.7-.1-1 0-.2-.1-.4-.1-.6 0-.1 0-.2-.1-.4 0-.2.1-.4.2-.4.2 0 .3.1.4.6.1.4.3.5 1 .4l6.3-.6c.4 0 .4 0 .5.3 0 .2 0 .4-.3.6l-5.8 5.7 4.3-.4c.8-.1 1.1-.1 1.3-.3.1-.1.1-.1.1-.8q0-.3.3-.3c.1 0 .3.1.3.3v.2c0 .4 0 .7.1 1.1 0 .3.1.5.1.8 0 .1.1.2.1.4s0 .3-.2.4c-.2 0-.3-.1-.3-.5-.1-.5-.4-.6-1.7-.5l-3.3.3H8.1c-.5.1-.7.2-.7.6s0 .5-.3.5c-.2 0-.3-.1-.3-.4l-.1-1.2-.1-1.1c0-.4 0-.4.2-.7l4.2-4.1zm5-6.8c.8.1.9 0 1.2-.8 0-.1.1-.2.3-.2s.3.1.2.3v.9c0 .3-.1.7-.1 1.1s0 .7-.1 1.2v.7c0 .1-.1.3-.2.3-.2 0-.2 0-.3-.5 0-.5-.2-.7-1-.7l-5.6-.4c-.2 0-.2 0-.3.3-.2.6 0 .9.8 1.6.3.2.4.4.4.5s-.1.2-.3.2h-.1l-1.7-.6c-.1 0-.3-.2-.3-.3s.1-.2.2-.3c.3-.1.3-.1.3-.4l.4-4.8c0-.5 0-.6-.3-.8-.2-.1-.2-.2-.2-.3 0-.2.2-.2.4-.2l1.9.4c.3.1.4.1.3.3 0 .1-.1.3-.4.3-1.1.3-1.2.5-1.3 1.5 0 .3 0 .3.2.3zm-3.5-6.8c-1.1-.3-1.3-.5-1.1-1.1.3-.8 1.2-1.3 2-1 1.1.3 1.6.9 1.3 1.8-.1.5-.3.7-.7.7zm2.6.6c-.1 0-.1-.1-.1-.2.1-.2.1-.3.2-.4.3-.4.4-.8.5-1.2.3-1.3-.5-2.6-1.8-2.9-1.4-.4-2.5.5-2.9 2.2-.1.3-.2.8-.3 1.3-.1.6-.2 1.1-.3 1.3-.1.3-.1.5-.3.9-.1.4-.1.5-.1.5 0 .1 0 .1-.1.2 0 .2 0 .3.2.4.1 0 .2 0 .3-.1.5-.9.6-1 1.4-.7l4.7 1.2c.7.2.9.3.8.8 0 .5 0 .5.1.6.1 0 .3 0 .3-.1v-.7c.1-.5.1-.8.3-1.1.1-.4.2-.7.3-1v-.4c0-.1.1-.2.1-.4V46c0-.2 0-.3-.2-.4-.1 0-.2 0-.3.1-.4.8-.4.8-1.3.6zm4-6.8c.8.4 1.3.2 1.6-.5.4-.8.3-1.7-.3-2.3-.3-.3-.3-.4-.2-.6 0-.1.2-.2.3-.1h.1c.2.1.4.2.5.3.3.2.6.4.9.5.1.1.2.1.1.3-.1.1-.1.2-.2.4-.2.4-.5 1.1-.9 1.9-.3.7-.8 1.7-.9 2.1-.2.5-.1.3-.5 1.3 0 .1 0 .1-.1.2-.1.2-.2.3-.4.2-.1-.1-.1-.1 0-.6s0-.7-.7-1L11 39.4c-.8-.3-.9-.3-1.3.4-.1.1-.2.1-.3.1-.1-.1-.2-.2-.1-.4v-.4l.3-.1v-.4c.2-.3.3-.6.6-1.2.2-.4.4-1 .5-1.3.9-2.3.6-1.6.9-2.2v-.1c.1-.1.1-.2.3-.1l.4.2.7.3c.3.1.4.2.3.4-.1.1-.1.2-.5.2-.7 0-1.2.4-1.5 1.1-.4 1-.4 1.1 0 1.3l1.7.8c.3.1.4.1.5-.1.5-1.2.5-1.4 0-1.8-.3-.2-.3-.4-.3-.5.1-.1.2-.2.4-.1l1.1.5.9.4c.2.1.3.2.2.4-.1.1-.2.2-.5.2-.7 0-1 .1-1.2.5l-.1.2c-.3.8-.3.8 0 .9zm-1.5-7.1c-.7-.5-.8-.4-1.4.2-.1.1-.2.1-.3.1-.1-.1-.1-.2 0-.4l.1-.1v-.1l.1-.1.1-.1.1-.1v-.1l.1-.1.1-.1c.2-.3.4-.5.6-.9.3-.4.4-.6.7-1.1v-.1l.1-.1v-.1l.1-.1c0-.1.1-.1.1-.2.1-.2.2-.2.4-.1.1.1.1.1 0 .6-.2.5-.1.7.5 1.1l4 2.5c.7.4 1.1.4 1.5-.2.5-.7.5-1.6 0-2.3-.1-.3-.2-.4-.1-.5s.2-.1.3-.1c.2.2.4.3.7.5.2.2.4.3.5.4.1.5.1.5 0 .7l-.1.1c-.2.3-.2.3-.6.8-.3.4-.6.9-1.1 1.6-.4.7-.8 1.3-1.2 1.9-.1.1-.1.2-.2.4 0 .1-.1.1-.1.2-.1.2-.2.2-.4.1-.1-.1-.1-.1 0-.6.2-.5.1-.7-.5-1.1z"/><path d="M18.9 25.9c-.7-.6-.7-.6-1.4 0q-.15.15-.3 0c-.1-.1-.1-.3 0-.4l.1-.1.1-.1.1-.1.1-.1.1-.1.1-.1.1-.1c.2-.2.4-.5.7-.8s.4-.5.8-.9l.1-.1.1-.1.1-.1.1-.1c0-.1.1-.1.1-.2.1-.1.3-.2.4-.1s.1.1-.1.6c-.3.4-.2.7.4 1.1l3.5 3.1q.9.75 1.5 0c.6-.6.7-1.5.4-2.2-.1-.3-.1-.4 0-.5q.15-.15.3 0c.2.2.4.4.6.7.2.2.3.4.5.5.2.2.2.3 0 .4l-.4.3-.7.7c-.4.4-.7.8-1.3 1.4-.5.6-1 1.1-1.5 1.7-.2.2-.2.3-.3.3 0 .1-.1.1-.1.2-.1.1-.3.2-.4.1-.2-.1-.2-.1.1-.5s.2-.7-.4-1.1z"/><path d="M28.7 22.8c.5.7.7.7 1.4.2q.15-.15.3 0c.1.1.1.3-.1.4-.1.1-.2.1-.3.2v.2l-.1.1h-.1l-.1.1c-.3.2-.5.4-.8.7-.4.4-.5.4-1.2 1.1l-.1.1c-.1.1-.3.1-.4 0s-.1-.2.2-.5c.3-.4.3-.6-.2-1.2L24 20.6c-.5-.7-.7-.7-1.4-.2q-.15.15-.3 0c-.1-.1-.1-.3.1-.4l.1-.1.1-.1.1-.1.1-.1.1-.1h.1l.1-.1c.2-.2.5-.4.8-.6.5-.4.5-.4 1.3-1.2l.1-.1c.1-.1.3-.1.4 0s.1.2-.2.5c-.3.4-.3.6.2 1.2zm3.7-2.9c.5.8 1 .9 1.7.4.7-.4 1.2-1.2 1.1-2.1 0-.4 0-.5.1-.6s.3 0 .4.1c.1.2.2.4.3.5.1.3.3.6.4.9q.15.15 0 .3c-.1.1-.2.2-.4.2-.4.3-1 .6-1.7 1.1-.7.4-1.6 1.1-1.9 1.3-.5.3-.3.2-1.1.8 0 .1-.1.1-.2.1-.2.1-.3.1-.4 0s-.1-.2.3-.5c.4-.4.4-.6 0-1.2l-2.7-4c-.5-.7-.5-.8-1.3-.4-.1.1-.3 0-.3-.1-.1-.1 0-.3.1-.4h.3l.1-.1.1-.1.1-.1h.3c.3-.2.6-.4 1.2-.7.4-.3.9-.6 1.2-.8 2-1.4 1.4-1 1.9-1.4h.1c.1-.1.2-.1.3.1l.3.4.5.7c.2.3.2.4 0 .5-.1.1-.2.1-.5-.1-.6-.3-1.3-.3-1.8.1-.9.6-1 .7-.7 1.1l1 1.6c.2.3.3.3.5.2 1.1-.7 1.2-.9 1.1-1.6-.1-.3-.1-.5.1-.6.1-.1.3 0 .4.1l.6 1.1.6.8c.1.2.1.3 0 .4-.2.1-.4.1-.5-.1-.6-.5-1-.5-1.4-.3l-.2.1c-.7.5-.7.5-.5.8zm4.3-8c-.2-.5-.1-.7.3-.9.8-.3 1.6.1 1.9.9.4.8 0 1.7-.8 2 0 0-.1 0-.1.1-.3.1-.4.1-.5-.3zm-2.4-.3h-.6c-.2.1-.3.2-.2.4 0 .1.1.1.3.1.8-.2.9-.1 1.3.6l1.9 4.4c.3.7.3.9-.2 1.2-.4.3-.4.3-.4.5.1.1.2.2.4.1.1 0 .1-.1.2-.1h.1l.1-.1h.2c.5-.2.7-.3 1-.5s.6-.3 1-.4h.4c.1 0 .2-.1.3-.1h.1c.2-.1.3-.2.2-.4 0-.1-.1-.1-.3-.1-.8.2-.9.1-1.3-.6l-.8-1.8c-.1-.2-.1-.3.1-.3.4-.1.5-.1 1.2.5l2.2 1.9c.2.2.3.2.4.1 0 0 .1 0 .1-.1.1-.1.3-.2.5-.2l.3-.1 1.1-.4c.2-.1.3-.2.2-.4-.1-.1-.1-.2-.4-.1-.4.1-.5.1-1-.4L41 13.8c-.4-.4-1-.6-1.5-.4 1.2-.8 1.6-1.6 1.2-2.6-.5-1.1-1.6-1.4-2.9-.9-.3.1-.7.3-1.2.5l-1.4.7c-.3.2-.5.4-.9.5m19.4-3.2c.3 0 .3-.1.3-.4l-.2-2c-.1-1.1-.2-1.2-1.3-1.3q-.3 0-.3-.3c0-.2.1-.3.4-.4h1c.4 0 .8-.1 1.5-.1.5 0 .8-.1 1.5-.2h.7c.2-.1.4 0 .4.2V4c0 .2 0 .3-.6.4-.7.2-.8.4-.7 1.4l.7 6.3c.1 1.1.2 1.2 1.3 1.3q.3 0 .3.3c0 .2-.1.3-.4.4h-.1c-.3 0-.7 0-1 .1-.4 0-.9.1-1.2.1-.8.1-1.5.2-2.3.3h-.3c-.2.1-.4 0-.4-.2v-.1c0-.2 0-.3.6-.4.7-.2.8-.4.7-1.4L54 9.9c-.1-.5-.1-.5-.3-.5l-3.3.3c-.4 0-.4.1-.4.5l.3 2.7c.1 1.1.2 1.2 1.3 1.3q.3 0 .3.3c0 .2-.1.3-.4.4h-1.1c-.4 0-.9.1-1.3.1-.8.1-.8.1-2.2.3h-.3c-.2.1-.4 0-.4-.2V15c0-.2 0-.3.6-.4.7-.2.8-.4.7-1.4L47 6.7c-.1-1.1-.2-1.2-1.3-1.3q-.3 0-.3-.3c0-.3.1-.3.4-.4h1.1c.4 0 .9-.1 1.3-.1.8-.1.8-.1 2.2-.3h.3c.2-.1.4 0 .4.2v.1c0 .2 0 .3-.6.4-.7.2-.8.4-.7 1.4l.2 2c0 .3.1.4.4.3zm9.3.3c.5 0 .8.4.8.9-.1.6-.4.7-1.9.5-.4 0-.5-.1-.4-.3 0-.6.7-1.1 1.5-1.1m1.8 2.4c.4 0 .6-.1.6-.4.1-1.2-1-2.2-2.6-2.4C61 8 59.3 9.2 59 11c-.1 1.8 1.2 3.4 3.1 3.6.9.1 1.8-.1 2.6-.6.3-.2.4-.3.4-.5 0-.1-.1-.2-.2-.2s-.3.1-.4.1c-.4.3-.9.4-1.4.4-1.3-.2-2.2-1.5-2-2.8 0-.3.1-.3.3-.3zM62 7.5q0 .15 0 0c.1.1.1.1.3 0l2.6-1.1c.1-.1.2-.1.2-.2v-.1l-.3-.4-.1-.1c-.1 0-.2.1-.3.1L62 7.2l-.2.1v.1zm4.9 4c.2-.7.1-.9-.4-1.1-.2-.1-.3-.1-.3-.3s0-.2.7-.2c.6-.1 1.2-.3 1.8-.5.3-.1.4-.2.5-.1.1 0 .1.1.1.3l-.2.8v.2h.1c.5-.4 1.2-.6 1.9-.5.6.1.9.6.8 1.2v.1c-.1.6-.7.9-1.3.8-.3-.1-.6-.3-.7-.7-.1-.3-.2-.4-.3-.4-.2 0-.4.1-.5.3-.2.4-.4.7-.4 1.2l-.4 1.6c-.3.8-.3.8.4 1.1.2 0 .3.2.2.4 0 .1-.2.2-.4.1-.1 0-.1 0-.2-.1-.6-.2-1.1-.3-1.4-.4s-.8-.2-1.3-.3h-.2q-.45-.15-.3-.3c0-.1.1-.2.4-.2.8 0 .8 0 1-.9zm7.9 4c-.1.3-.3.6-.5.8-.3.2-.7.2-1 .1-.4-.2-.5-.6-.3-.9.2-.4.5-.6.9-.7s.8-.1 1.2-.1c.1 0 .1.1 0 .2zm.7-1.6c0 .1 0 .1-.5.1h-1.2c-.6 0-1 .1-1.3.1-.6 0-1.2.4-1.5 1s0 1.4.6 1.6c0 0 .1 0 .1.1.3.1.7.2 1.1.2.5 0 .9-.1 1.3-.3h.1s.1 0 .1.1v.6q.15.45.6.6c.5.2 1.1.2 1.6 0 .3-.1.5-.2.5-.3s0-.2-.1-.2h-.1c-.5.1-.4.1-.5 0-.2-.1-.2-.3 0-.7l1.2-3c.4-.9-.1-1.5-1.5-2.1-.8-.3-1.7-.4-2.5-.3-.5.1-.9.4-1.2.8-.1.2 0 .4.2.4.4.1.7.2 1.1.2.3 0 .4-.1.8-.4.4-.4.8-.5 1.2-.4s.4.5.1 1.2zm3.8 1.4c.5-.8.5-.8-.1-1.3-.1-.1-.2-.3-.1-.4s.3-.1.5 0c0 0 .1.1.2.1l.3.1.1.1c.4.2.7.4.8.5l.4.3c.1.1.3.1.3.2.2.1.2.1 0 .4l-1.9 2.9c-.4.7-.4 1.2.1 1.6.3.2.7.2 1.1.1.2 0 .3-.1.5-.4l1.3-2.1c.5-.8.5-.8-.1-1.3-.2-.1-.2-.3-.1-.4s.3-.1.5 0c0 0 .1.1.2.1l.1.1.1.1.1.1c.3.2.5.4.5.4.2.1.3.2.7.4l.2.1c.1.1.1.1 0 .3l-2 3.3c-.4.6-.4.7 0 1.1.1.1.2.2.1.3s-.2.1-.7 0c-.5-.2-.9-.3-1.4-.4-.2 0-.4-.1-.5-.1-.1-.1-.1-.1 0-.3l.3-.4c.1-.1.1-.2 0-.2h-.5c-.6.1-1.3-.1-1.8-.4-1-.6-1.2-1.7-.5-2.8z"/><path d="M85.8 23.2c-.6.7-.6.7-.1 1.3.1.1.2.3.1.4s-.3.1-.5-.1c-.1-.1-.1-.1-.2-.1-.5-.4-.9-.7-1.1-.9-.2-.1-.7-.5-1.1-.8-.1 0-.1-.1-.2-.1-.2-.2-.3-.3-.1-.4.1-.1.2-.1.4 0 .7.4.7.4 1.3-.4l3.5-4.2c.4-.5.4-.7 0-1.2q-.15-.15 0-.3c.1-.1.3-.1.7.1.6.3 1.2.6 1.8.8.1 0 .1 0 .2.1s.1.2-.1.4zm3.6-1.2c.3-.3.3-.4.2-.5l-.3-.3c-.1-.1-.2-.3-.1-.4s.3-.1.5 0c.7.3 1.5.4 2.3.2.4-.1.5-.1.6 0s.1.2 0 .4l-.7.7c-.2.2-.3.4-.1.5l.7.7c.2.2.2.3 0 .4-.2.2-.3.2-.4 0l-.6-.6c-.2-.2-.3-.2-.5 0l-1.7 1.8c-.8.8-1 1.3-.7 1.6.1.1.3.2.5.2.3.1.4.1.4.1.1.1.1.2 0 .2-.2.1-.5.2-.8.1-.6 0-1.1-.3-1.6-.7-.8-.7-.7-1.6.1-2.4zm11.3 8.9c-.2.1-.4.1-.5 0-.1-.2-.1-.4.1-.6.8-1 .9-1.8.4-2.5-.6-.8-1.6-1.2-2.3-.7-.4.3-.6.9-.4 1.4 0 .1 0 .3.1.4l.1.4.1.4.1.4c.5 1.8.2 3.2-1 4-1.8 1.2-4.1.6-5.5-1.5-.6-.9-1-1.9-1.1-3 0-.1.1-.2.3-.4.1-.1.2-.1.5-.4.3-.2.4-.3.5-.3.6-.4.8-.4.9-.2s.1.4-.1.5c0 .1.1-.1-.5.7-.7.8-.7 1.9 0 2.7.7 1.1 1.9 1.4 2.7.9.5-.4.8-1.1.7-1.7 0-.3-.1-.5-.3-1.5-.5-2.2-.3-3.3.8-4 1.5-1 3.8-.3 5.1 1.7.4.6.7 1.3.8 2 0 .2 0 .3-.3.5zM99.5 37c.2-.1.4-.2.6-.1.3.1.6.3.7.6.4.8-.3 1.9-1.5 2.4-1.3.6-2.5.4-2.9-.5-.3-.6 0-1.1.8-1.4zm-3.9 1.7q.3-.15.3 0v.1q0 .6.3 1.2c.7 1.6 2.6 2.4 4.3 1.6 1.5-.6 2.2-2.2 1.6-3.7-.1-.4-.4-.7-.7-.9-.8-.5-.7-.4-.8-.5 0-.1 0-.1.2-.2l.6-.3c.1-.1.2-.1.1-.3 0-.1-.1-.1-.5-.3-.6-.2-1.1-.6-1.4-1.1-.5-.6-.5-.6-.6-.5-.1 0-.1.1-.1.3.2.7.2.8-.5 1.1l-4.7 2.1c-.7.3-.9.3-1.2-.1s-.3-.4-.5-.4c-.2.1-.2.2-.1.4 0 .1.1.1.1.2v.1l.1.1v.2c.3.5.4.7.5 1.1.1.3.3.6.4.9v.8c.1.2.2.3.4.2.1 0 .1-.1.1-.3-.2-.9-.2-.9.7-1.3zm8.5 6.3c.2.9-.8 2-2.5 2.4-1.5.4-2.6.1-2.8-.8s.9-2 2.6-2.4c1.4-.4 2.5 0 2.7.8m.5.1c-.5-2.1-2.3-3.3-4.1-2.8-1.7.4-2.7 2.2-2.1 4.2.5 2.1 2.3 3.3 4.1 2.8 1.6-.4 2.6-2.3 2.1-4.2m-1.5 5.7c.7-.1.8-.2.8-.7 0-.2 0-.3.2-.4.2 0 .2 0 .4.6.3.5.7 1 1.1 1.5.2.2.3.3.3.4s-.1.2-.2.2l-.8.1c-.1 0-.2 0-.2.1l.1.1c.6.4 1 .9 1.1 1.6.1.6-.3 1.1-.9 1.2s-1.1-.4-1.2-1c0-.3.1-.7.4-.9.2-.3.3-.3.3-.4s-.2-.3-.4-.4q-.6-.15-1.2 0l-1.6.1c-.9.1-.9.1-1 .8q0 .3-.3.3c-.1 0-.3-.1-.3-.4v-.2c0-.6-.1-1.1-.1-1.4s-.1-.8-.1-1.4v-.2c0-.3 0-.4.2-.4.1 0 .3.1.3.3.2.7.3.7 1.2.7zm1.5 6.1c.4 0 .5 0 .5-.2v-.4c0-.2.1-.3.2-.3s.2.1.3.4c.2.7.7 1.4 1.4 1.8.3.2.4.3.4.5q0 .3-.3.3h-1c-.3 0-.4.1-.4.3v.9c0 .3 0 .3-.3.3s-.3-.1-.3-.3v-.9c0-.3 0-.3-.3-.3l-2.5-.1c-1.2 0-1.6.1-1.6.6 0 .2.1.4.2.5.2.3.2.3.2.4s-.1.2-.2.2c-.3-.1-.5-.2-.6-.5-.4-.5-.6-1-.5-1.6 0-1.1.7-1.6 1.9-1.5zm-6.1 15.8c-.3-.1-.6-.3-.7-.7q-.45-1.65 0-3.3c.3-1.3.9-2.4 1.7-3.4 1.3-1.3 3.2-1.9 5-1.5 3 .8 4.5 4.1 3.6 7.8-.2.9-.6 1.7-1 2.4-.1.2-.3.3-.5.3l-1.3-.1h-.3c-.2 0-.3-.2-.2-.4 0-.2.2-.3.6-.5 1.3-.5 1.7-.9 2-2 .5-2-1-4-3.6-4.7s-4.9.3-5.5 2.3c-.3 1.2.1 2.1 1.3 3.2.2.2.3.3.3.5-.1.2-.2.3-.4.2h-.1z"/><path d="M97.3 75.4c-.9-.4-.9-.4-1.3.2-.1.1-.2.2-.4.2-.1-.1-.2-.2-.1-.5 0-.1.1-.1.1-.2.3-.5.5-1 .6-1.3.1-.2.3-.8.5-1.3 0-.1.1-.1.1-.2.1-.3.3-.3.4-.3.1.1.2.2.1.4-.1.7-.1.8.7 1.1l5.1 2.2c.7.3.7.3 1.1-.3.1-.1.2-.2.3-.1s.1.2 0 .7c-.2.6-.3 1.3-.2 2v.2c0 .1-.2.1-.4 0zm1.7 3c.8.5.8.5 1.3-.1.1-.1.3-.2.4-.1s.1.3 0 .5c0 0-.1.1-.1.2l-.1.3-.1.1c-.2.4-.4.7-.5.8l-.2.4c-.1.1-.1.3-.2.3-.1.2-.1.2-.4 0l-3-1.8c-.7-.4-1.2-.4-1.6.1-.2.3-.2.7-.1 1.1.1.2.1.3.4.5l2.1 1.3c.8.5.8.5 1.3-.1.1-.2.3-.2.4-.1s.1.3 0 .5c0 0-.1.1-.1.2l-.1.1-.1.1-.1.1c-.2.3-.4.5-.4.5-.1.2-.2.3-.4.7l-.2.3c-.1.1-.1.1-.3 0l-3.3-2c-.7-.4-.7-.4-1.1 0-.1.1-.2.2-.3.1s-.1-.2 0-.7c.1-.4.3-.9.4-1.4 0-.2.1-.4.1-.5.1-.1.1-.1.3 0l.4.3c.1.1.2.1.2 0v-.5c-.1-.6.1-1.3.4-1.8.6-1 1.6-1.2 2.8-.5zm-5.5 8.5c.3.2.3.3.3.4 0 .3-.1.6-.3.8-.7.8-2 .6-3-.3-1.1-.9-1.4-2.1-.8-2.9.2-.2.5-.4.8-.3.3 0 .4.1 1.1.7zm3.1 2.7c.3.3.4.3.5.1.1-.1.1-.1.2-.5.2-.5.4-1.1.7-1.5.2-.4.3-.5.1-.6 0-.1-.1-.1-.2.1-.5.4-.6.4-1.1 0L92 83c-.2-.1-.4-.3-.5-.5-.1-.1-.1-.1-.1-.2q-.15-.15-.3 0c-.1.1-.1.2 0 .4.2.5.2.6.1.7l-.1.1c-.7.2-1.3.6-1.7 1.1-1.4 1.6-1.4 3.7 0 4.9 1.2 1.1 3 1 4.1-.2l.1-.1c.2-.3.4-.6.5-1 .1-.3.1-.4.1-.5s0-.1.1-.1c0-.1 0-.1.3.1zm-49.5 16.5c-.3 1-.2 1.2.6 1.4.5.1.7.3.6.5s-.3.3-.6.2c0 0-.2-.1-.4-.1-.7-.2-1.3-.4-2-.6-.6-.1-1.2-.3-1.6-.4h-.3c-.3-.1-.4-.2-.4-.4.1-.2.3-.3.6-.2 1 .3 1.2.1 1.4-.5l1.3-5c.1-.6.1-.7-.1-.8h-1.6c-.1 0-.2-.2-.2-.3.1-.2.3-.3 1-.3 1 0 2 0 3-.2h.3c.1 0 .2.2.1.5zm4.7-4c-.1 1.4.5 2.9 1.4 3h.5c.1 0 .1.1.1.2 0 .3-.8.6-1.6.5-1.4-.2-2.4-1.5-2.3-2.9.2-1.7 1.8-2.9 3.5-2.8 1.9.2 3.3 2 3.1 3.9v.1c-.2 2.1-1.8 4-4.2 5.1-.7.3-1.5.5-2.2.7h-.4c-.1 0-.3-.1-.3-.3 0-.1.1-.2.5-.3 2.4-.6 4.2-2.7 4.5-5.1.2-1.8-.5-3.5-1.5-3.6-.5 0-1 .6-1.1 1.5m10.1 1.5c0-.1.2-.6.3-.9.1-.1.1-.2.1-.4 0-.1-.1-.1-.2-.1l-3.6.3c-.3 0-.6.1-.7.1s-.2.1-.4.1-.3-.1-.3-.4c0 0 0-.3-.1-.6 0-.1 0-.4-.1-.6 0-.5 0-.5.2-.5h2.1l4.3-.3c.3 0 .4 0 .4.1s0 .1-.2.7c0 .1-.1.1-.1.2l-.3.8-.3.8-.3.8c-.4.8-.9 2.2-1.5 4-.2.6-.4 1.1-.5 1.4-.2.5-.2.5-.4.6h-.2c-.3 0-.3 0-.3-.1v-.3zm8.3 2.2c.1.7.3.7 1.1.6.1 0 .3 0 .3.2s-.1.3-.4.4l-2 .4c-.3.1-.6.2-1 .3-.1 0-.3.1-.4.1-.3.1-.4 0-.5-.2s0-.3.6-.5c.4-.1.5-.4.4-.8l-.3-1c-.1-.4-.1-.4-.5-.3l-2.7.7c-.5.1-.5.1-.6-.4 0-.1 0-.2.1-.4l2.9-7c.1-.3.2-.4.7-.5h.2s0 .2-.4.8c-.5 1.1-1 2-1.3 2.9l-1.1 2.6c-.4.9-.3.7-.4.9 0 .1-.1.1 0 .2q0 .15.3 0l2-.5c.4-.1.4-.1.3-.5l-.4-1.8c-.1-.4-.1-.4.1-.6h.1c.7-.5.7-.4 1.1-.7l.3-.1h.1c.1 0 .1 0 .1.1l.7 2.7c.1.3.1.4.4.3l.8-.2c.3-.1.3-.1.3.3.1.3 0 .4-.2.4l-.8.2c-.3.1-.3.1-.2.4zm-33.3-6.4h-5.1L29.4 95h5.1zm39.7 0h5.1l2.5-4.3h-5z"/></g></g></svg>