<svg xmlns="http://www.w3.org/2000/svg" width="388.49" height="500" viewBox="0 0 102.788 132.292"><defs><clipPath id="a"><path d="M0 0h595.276v765.354H0z"/></clipPath><clipPath id="b"><path d="M0 0h595.276v765.354H0z"/></clipPath></defs><path d="M.003 0v85.858c-.15 11.798 6.075 18.678 13.719 23.655l37.672 22.779 37.672-22.78c7.644-4.976 13.87-11.856 13.72-23.654V0z" fill="#ffdc00"/><g fill="#00a558"><path d="M12.404 14.135v2.438h3.583v2.126h-3.583v4.548H9.837V12.01H16.7v2.126z"/><g clip-path="url(#a)" transform="matrix(1.28162 0 0 -1.28162 -212.06 751.363)"><path d="M179.099 572.543c0 2.69 1.73 4.467 4.313 4.467 1.292 0 2.394-.438 3.211-1.398l-1.256-1.292c-.379.617-1.09 1.031-1.943 1.031-1.351 0-2.263-1.137-2.263-2.832 0-1.718.936-2.855 2.322-2.855.984 0 1.6.497 2.062 1.339l1.351-1.209c-.818-1.185-1.979-1.789-3.46-1.789-2.595 0-4.337 1.825-4.337 4.538"/></g><path d="M32.024 12.01h1.579l5.908 6.545-.061-6.545H42v11.237h-1.564l-5.907-6.545.061 6.545h-2.567zm18.497 9.309h-4.086l-.637 1.929h-2.733l4.237-11.239h2.368l4.223 11.239h-2.734zm-.714-2.126l-1.321-3.994-1.336 3.994zm5.163-7.183h1.579l5.908 6.545-.061-6.545h2.551v11.237h-1.563l-5.908-6.545.061 6.545H54.97zm19.833 2.125h-2.962v9.112h-2.566v-9.112h-2.961v-2.126h8.489zm8.68 6.986v2.126H76.17V12.01h7.32v2.126h-4.753v2.438h4.253V18.7h-4.253v2.422z"/><g clip-path="url(#b)" transform="matrix(1.28162 0 0 -1.28162 -212.06 751.363)"><path d="M231.84 569.13l.735 1.351c.711-.604 1.433-.818 2.085-.818.794 0 1.256.285 1.256.83 0 .557-.545.841-1.374 1.114l-.391.13c-1.41.45-2.429 1.066-2.429 2.5 0 1.659 1.232 2.773 3.092 2.773.96 0 1.943-.32 2.797-1.007l-.865-1.399c-.593.51-1.185.747-1.861.747s-1.102-.308-1.102-.782c0-.533.546-.782 1.268-1.019l.391-.13c1.256-.415 2.548-1.15 2.548-2.726 0-1.623-1.28-2.69-3.176-2.69-1.137 0-2.192.403-2.974 1.126m-16.413-65.277c0 1.074.556 2.071 1.471 2.635 2.16 1.333 4.47 2.783 5.995 3.821 3.252 2.214 5.244 3.841 5.244 9.169v42.484h4.935v-42.484c0-7.581-3.5-10.593-7.402-13.248-3.06-2.083-9.402-5.915-10.243-6.423z"/><path d="M218.78 516.898l-27.627 31.778a.226.226 0 0 1-.396-.148V519.79c0-1.182.603-2.283 1.6-2.919l3.335-2.128v20.466c0 .25.309.365.473.177l17.534-20.164a1.58 1.58 0 0 1 2.055-.288zm1.581 45.063h-3.42a1.51 1.51 0 0 1-1.512-1.512l-.003-19.593a.27.27 0 0 0-.473-.177l-17.417 20.032a3.65 3.65 0 0 1-2.747 1.25h-4.88l30.056-34.568a.226.226 0 0 1 .396.148zm-14.401-56.637c-.07.209-.199.286-.306.313a.5.5 0 0 1-.102.013.5.5 0 0 1-.102-.013c-.107-.027-.236-.104-.306-.313l-3.174-9.305 3.582-2.246 3.582 2.246zm3.708.163c1.318.336 2.708 1.156 2.779 1.2.041.023.066.07.066.121a.14.14 0 0 1-.066.121 13.4 13.4 0 0 1-2.163 1.012c-.54.188-1.106.329-1.599.329-1.532 0-2.305-1.332-2.337-1.389a.15.15 0 0 1 0-.147c.019-.034.318-.549.901-.942.175-.119.376-.225.604-.305.247-.086.523-.142.831-.142s.642.056.984.142m-8.728 2.495c-1.148-.383-2.218-1.015-2.283-1.053a.14.14 0 0 1-.066-.121.14.14 0 0 1 .066-.121c.073-.044 1.461-.865 2.781-1.2.34-.086.675-.142.981-.142.31 0 .586.056.833.142.277.098.516.235.716.384.508.38.77.831.789.863a.15.15 0 0 1 0 .147c-.032.057-.804 1.389-2.338 1.389-.455 0-.975-.121-1.479-.288"/><path d="M205.48 507.819a.14.14 0 0 1 .145 0c.058.036 1.389.894 1.389 2.604 0 1.669-1.285 4.089-1.341 4.191-.048.089-.193.089-.24 0-.056-.102-1.343-2.524-1.343-4.19 0-1.711 1.332-2.569 1.39-2.605m-9.788-3.977a3.1 3.1 0 0 1-1.471 2.635c-2.16 1.333-4.471 2.795-5.996 3.833-3.252 2.214-5.244 3.841-5.244 9.169v42.484h-4.935v-42.484c0-7.581 3.5-10.593 7.402-13.248 3.06-2.083 9.403-5.927 10.244-6.435z"/></g></g></svg>