<svg viewBox="0 0 557.92 800" xmlns="http://www.w3.org/2000/svg"><g transform="matrix(1.33333 0 0 -1.33333 -446.126 479.545)"><path d="m543.813-240.342-3.01 1.693c-86.935 48.8-147.268 117.59-179.326 204.474-26.883 72.828-26.883 141.194-26.883 170.39 0 68.097 14.378 158.023 14.522 158.925l.513 3.224s5.499 2.543 6.854 3.154a1908 1908 0 0 0 2.668 20.168l2.965 1.433c.832.407 20.834 10.008 51.879 18.753 28.811 8.112 74.72 17.786 129.818 17.786 55.093 0 101.006-9.674 129.823-17.786 31.04-8.745 51.037-18.346 51.879-18.753l2.964-1.429s1.466-10.567 2.669-20.172c1.355-.61 6.853-3.154 6.853-3.154l.514-3.224c.148-.902 14.52-90.828 14.52-158.925 0-29.196 0-97.562-26.882-170.39-32.063-86.883-92.396-155.675-179.325-204.474z" fill="#fff"/><path d="m732.444 294.159a776 776 0 0 1 -6.973 3.167 1469 1469 0 0 1 -2.632 20.252s-19.997 9.674-50.87 18.369c-28.442 8.01-73.755 17.555-128.154 17.555s-99.716-9.545-128.149-17.555c-30.878-8.695-50.875-18.37-50.875-18.37s-1.235-8.897-2.632-20.25c0 0-4.638-2.082-6.969-3.168 0 0-14.443-89.556-14.443-157.946 0-68.365 2.983-257.17 203.068-369.494 200.09 112.323 203.063 301.129 203.063 369.494 0 68.39-14.434 157.946-14.434 157.946" fill="#1b1615"/><path d="m543.814-181.517c142.975 83.276 178.168 195.923 186.816 273.917h-373.628c8.648-77.99 43.841-190.646 186.812-273.917" fill="#ea670b"/></g><path d="m448.932 113.725c-24.163.012-53.543 1.378-87.024 5.505-62.771 7.739-107.693 22.088-127.64 29.39-1.363 14.04-2.294 29.338-2.633 45.839 26.897-9.644 89.75-30.412 156.178-39.322 73.36-9.826 119.7-7.46 136.416-5.967-.828-8.46-1.66-16.83-2.493-24.543-.225-2.086-.449-4.183-.672-6.201-6.089-.984-31.862-4.723-72.132-4.701m-79.149-74.92c-50.482 0-89.854 5.66-115.129 10.63-2.466 7.048-5.383 16.354-8.312 27.903a428 428 0 0 0 -3.528 15.21c22.729-6.535 70.807-18.398 130.403-21.92 85.325-5.05 134.743 8.443 143.517 11.099-.052-.419-.124-1.048-.175-1.456a6963 6963 0 0 0 -2.713-21.062 3920 3920 0 0 1 2.457 18.943c-1.445-11.411-2.492-19.257-2.492-19.257s-8.605-4.154-24.12-9.93c15.511 5.776 24.114 9.93 24.114 9.93v.005l-.012-.005c-.395-.173-49.735-20.09-144.01-20.09" fill="#fff"/><g transform="matrix(1.33333 0 0 -1.33333 -446.126 479.545)"><path d="m520.85 332.035c-7.941-3.224-23.642-7.15-52.287-9.999-.892 9.99-2.132 16.987-2.765 20.164 20.884-.084 36.46-1.573 46.838-3.298 5.346-.883 9.319-1.84 11.885-2.677 1.018-.333 1.804-.648 2.35-.916-.944-.795-2.854-2.035-6.022-3.274" fill="#fff"/><path d="m462.352 343.305c.074-.31.296-1.318.62-3.043.652-3.51 1.679-9.883 2.46-18.531-22.341-2.1-52.203-3.542-91.78-3.58 12.519 5.31 44.114 17.39 88.7 25.154" fill="#ea670b"/><path d="m367.612 315.012c1.443 0 2.904-.005 4.329-.005 63.524.005 102.338 3.57 125.628 7.75 11.64 2.082 19.396 4.315 24.455 6.364a52 52 0 0 1 3.172 1.43c-5.817-14.596-20.135-57.54-20.135-126.679q-.002-1.812.023-3.658h90.37a575 575 0 0 0 17.962 3.899c57.429 11.446 101.409 12.181 117.174 11.991-.629 8.14-1.318 16.191-2.044 23.98 1.401-15.03 2.682-31.05 3.584-46.798h-376.625c3.21 56.222 11.307 115.935 12.107 121.725" fill="#fff"/><g fill="#1b1615"><path d="m467.125 270.726a1555 1555 0 0 0 -3.27 8.093 750 750 0 0 0 -4.939-8.745c1.24-1.151 2.484-2.294 3.728-3.44a759 759 0 0 1 4.48 4.092m-10.622-9.726a979 979 0 0 1 4.625 4.117 895 895 0 0 0 -3.802 3.496 743 743 0 0 0 -10.946-4.5c3.362-1.059 6.733-2.1 10.123-3.112m11.215.865a883 883 0 0 1 10.886 4.758c-3.399.94-6.784 1.892-10.165 2.868a559 559 0 0 0 -4.56-4.158 722 722 0 0 1 3.839-3.468m-5.36 1.951a962 962 0 0 0 -15.451-25.796q3.906 1.34 7.783 2.715a673 673 0 0 1 4.75-4.116 839 839 0 0 1 5.739 4.879c2.423-.55 4.842-1.092 7.274-1.619a1361 1361 0 0 0 -10.095 23.937"/><path d="m445.805 292.578a867 867 0 0 1 10.595 4.495 723 723 0 0 0 -9.725 3.112c-1.494-1.35-2.988-2.7-4.495-4.046a881 881 0 0 1 3.625-3.561m-.379 8.874c-.999 2.72-2.002 5.444-2.987 8.167a897 897 0 0 0 -4.944-8.62c1.17-1.174 2.345-2.358 3.524-3.533 1.47 1.327 2.946 2.654 4.407 3.986m-5.906-5.462c-1.197 1.19-2.4 2.392-3.588 3.59a798 798 0 0 0 -10.655-4.246 920 920 0 0 1 9.697-3.353 969 969 0 0 1 4.546 4.01m-2.224-28.446a824 824 0 0 1 5.642 4.74c2.33-.606 4.657-1.207 6.992-1.8a1491 1491 0 0 0 -9.253 24.174 950 950 0 0 0 -15.456-25.417q3.802 1.242 7.575 2.525a987 987 0 0 1 4.5-4.222"/><path d="m385.953 266.444a819 819 0 0 1 5.92 4.412c2.284-.74 4.578-1.47 6.872-2.197a1465 1465 0 0 0 -7.853 24.663 955 955 0 0 0 -16.898-24.496q3.865 1.034 7.71 2.09a642 642 0 0 1 4.25-4.472m3.856 28.275a519 519 0 0 0 -3.376 3.783 771 771 0 0 0 -10.9-3.621 909 909 0 0 1 9.504-3.903 649 649 0 0 1 4.772 3.74m6.086-3.768a836 836 0 0 1 10.845 3.88 833 833 0 0 0 -9.54 3.667 546 546 0 0 0 -4.727-3.783c1.133-1.262 2.28-2.51 3.422-3.764m.13 8.88a1540 1540 0 0 0 -2.516 8.323q-2.701-4.163-5.43-8.32a799 799 0 0 1 3.312-3.727c1.55 1.24 3.098 2.484 4.634 3.723"/><path d="m415.593 230.561a908 908 0 0 1 10.373-3.454c1.65 1.318 3.302 2.631 4.939 3.958a2744 2744 0 0 0 -3.811 3.626 804 804 0 0 0 -11.501-4.13m21.735 5.911a1028 1028 0 0 0 -3.094 8.2 1030 1030 0 0 0 -5.433-8.575c1.239-1.193 2.488-2.382 3.732-3.57q2.404 1.969 4.795 3.945m-22.119-32.007c2.724.809 5.438 1.623 8.153 2.446a844 844 0 0 1 4.763-4.264 889 889 0 0 1 6.123 4.676c2.484-.625 4.967-1.25 7.455-1.86-3.26 8.07-6.456 16.154-9.568 24.261a998 998 0 0 0 -16.926-25.26m18.549 26.722q1.923-1.797 3.852-3.594a962 962 0 0 1 11.451 4.398 939 939 0 0 0 -10.415 3.205 706 706 0 0 0 -4.888-4.01"/><path d="m416.037 259.03a936 936 0 0 1 11.136 4.135 874 874 0 0 0 -9.98 3.436 838 838 0 0 0 -4.8-3.885c1.211-1.23 2.423-2.46 3.644-3.685m-.084 8.884a979 979 0 0 0 -2.811 8.264 870 870 0 0 0 -5.434-8.44 865 865 0 0 1 3.528-3.658 653 653 0 0 1 4.717 3.834m-21.12-5.421q4.955-1.866 9.938-3.68a658 658 0 0 1 4.86 3.847 453 453 0 0 0 -3.593 3.709 779 779 0 0 0 -11.205-3.876m15.959-1.211a1007 1007 0 0 0 -16.917-24.867 914 914 0 0 1 7.927 2.266 981 981 0 0 1 4.509-4.38 1279 1279 0 0 1 6.021 4.547 911 911 0 0 1 7.168-2.04 1515 1515 0 0 0 -8.708 24.474"/><path d="m360.268 204.737c2.77.643 5.536 1.305 8.287 1.975 1.499-1.517 3.006-3.024 4.514-4.537a643 643 0 0 1 6.387 4.329 843 843 0 0 1 7.353-2.29 1487 1487 0 0 0 -8.177 24.77 988 988 0 0 0 -18.364-24.247m17.208 25.658a704 704 0 0 0 -3.593 3.834 956 956 0 0 0 -11.737-3.464c3.376-1.364 6.77-2.71 10.17-4.047q2.594 1.832 5.16 3.677m2.872-.046 3.63-3.806c3.918 1.22 7.812 2.47 11.696 3.736a951 951 0 0 0 -10.216 3.783c-1.697-1.24-3.403-2.474-5.11-3.713m-4.685 5.184c1.17-1.258 2.35-2.516 3.53-3.774 1.673 1.221 3.352 2.442 5.017 3.663-.879 2.784-1.762 5.568-2.627 8.361a969 969 0 0 0 -5.92-8.25"/><path d="m487.002 235.08c1.35-1.124 2.696-2.248 4.05-3.362a903 903 0 0 1 11.174 5.045 767 767 0 0 0 -10.572 2.59c-1.55-1.425-3.094-2.849-4.652-4.273m-16.982-27.744a953 953 0 0 1 7.991 2.914c1.66-1.337 3.33-2.66 5.004-3.991a877 877 0 0 1 5.841 5.027 805 805 0 0 1 7.547-1.434 1557 1557 0 0 0 -10.941 23.678 1004 1004 0 0 0 -15.442-26.194m11.751 32.364a682 682 0 0 1 3.931-3.353 792 792 0 0 1 4.56 4.213 1238 1238 0 0 0 -3.556 8.005 920 920 0 0 0 -4.935-8.865m2.386-4.907a3069 3069 0 0 0 -4.005 3.399 811 811 0 0 0 -11.237-4.777c3.5-.971 7.02-1.924 10.548-2.858q2.358 2.113 4.694 4.236"/><path d="m489.041 300.102c-1.267 1.128-2.53 2.248-3.788 3.38a821 821 0 0 0 -10.387-4.846 836 836 0 0 1 9.865-2.798c1.447 1.424 2.876 2.844 4.31 4.264m5.577 5.795q-1.736 3.987-3.445 7.982a994 994 0 0 0 -4.44-8.889 635 635 0 0 1 3.718-3.325 598 598 0 0 1 4.167 4.232m.897-8.833a790 790 0 0 1 10.313 5.091 705 705 0 0 0 -9.896 2.549 619 619 0 0 0 -4.25-4.297 661 661 0 0 1 3.833-3.343m5.375-21.824c-3.613 7.848-7.15 15.71-10.619 23.604a957 957 0 0 0 -13.962-26.268c2.484.976 4.949 1.966 7.414 2.965a668 668 0 0 1 4.721-3.964 945 945 0 0 1 5.374 5.055q3.526-.713 7.071-1.392"/></g><path d="m359.266 110.549h13.226v25.394c0 1.11.898 2.007 2.012 2.007h14.133v9.897h-14.133a2.02 2.02 0 0 0 -1.434.6 2.02 2.02 0 0 0 -.578 1.439v13.897a2.006 2.006 0 0 0 2.012 1.993h14.133v9.573h-29.371zm119.926 10.41a2 2 0 0 0 -.587 1.424v52.966h-13.509v-64.8h29.094l.009 9.809h-13.583a1.98 1.98 0 0 0 -1.424.601" fill="#fff"/></g><path d="m284.057 245.69v86.456h17.289v-27.693a2.69 2.69 0 0 1 2.158-2.67 2.68 2.68 0 0 1 3.01 1.64l10.851 28.723h16.576l-11.945-31.65c-1.363-3.274-.308-5.951 1.45-7.363 1.522-1.203 2.078-1.603 4.1-3.31 2.097-1.77 3.306-4.596 3.343-8.018v-24.69c-.037-3.422-1.098-5.863-3.342-8.015-2.497-2.251-5.107-3.312-8.295-3.41zm19.959 12.82h5.902a2.7 2.7 0 0 1 1.904.8c.5.494.778 1.172.778 1.887v18.524a2.7 2.7 0 0 1 -.784 1.9 2.7 2.7 0 0 1 -1.898.79h-5.902c-.716 0-1.393-.29-1.905-.796a2.7 2.7 0 0 1 -.777-1.894v-18.524c0-.709.284-1.399.777-1.898.5-.5 1.196-.79 1.905-.79m-67.877-12.763c-3.188.093-5.79 1.16-8.287 3.41v-.008c-2.257 2.152-3.311 4.594-3.342 8.016v63.549c.03 3.422 1.085 5.877 3.342 8.023 2.497 2.257 5.099 3.318 8.287 3.41h23.086c3.188-.092 5.79-1.153 8.293-3.41 2.256-2.146 3.313-4.6 3.343-8.023v-63.549c-.03-3.422-1.087-5.864-3.343-8.016v.008c-2.504-2.25-5.105-3.317-8.293-3.41zm8.756 12.764h5.9c.721 0 1.4.289 1.906.8.5.494.777 1.172.783 1.887v55.38a2.75 2.75 0 0 1 -.783 1.9 2.75 2.75 0 0 1 -1.906.77h-5.9a2.65 2.65 0 0 1 -1.899-.784 2.7 2.7 0 0 1 -.789-1.887v-55.379a2.7 2.7 0 0 1 2.688-2.688" fill="#fff"/><path d="m687.139 172.792c-1.873 1.688-3.83 2.488-6.216 2.557h-26.041v-64.8h13.272v53.211a2.02 2.02 0 0 0 2.012 2.016h4.43c.537 0 1.046-.217 1.425-.6.384-.37.587-.88.592-1.416v-53.211h13.037v56.235c-.028 2.567-.819 4.398-2.511 6.012zm-94.486-62.285h13.064v64.838h-13.064zm22.957.042h29.375v9.573h-14.133c-1.11 0-2.002.883-2.012 1.993v13.828c0 1.11.898 2.007 2.012 2.007h14.133v9.897h-14.133a2.007 2.007 0 0 0 -2.012 2.011v13.925a2.003 2.003 0 0 0 2.012 1.993h14.133v9.573h-29.376zm82.817 64.801v-9.564h6.637c.54 0 1.045-.218 1.429-.597.374-.38.582-.888.587-1.42v-53.22h12.473v53.22h.005c0 .532.208 1.04.587 1.42.384.38.883.597 1.42.597h6.645v9.563zm-267.632-2.558c-1.873 1.688-3.83 2.488-6.215 2.557h-17.32c-2.386-.07-4.342-.87-6.22-2.557v.005c-1.688-1.614-2.479-3.446-2.497-6.012v-47.662c.018-2.566.81-4.407 2.497-6.016 1.878-1.693 3.834-2.488 6.22-2.558h17.32c2.386.07 4.342.865 6.215 2.558 1.693 1.61 2.484 3.45 2.507 6.016v14.85h-13.033v-11.747c0-.527-.217-1.045-.592-1.424a2.03 2.03 0 0 0 -1.42-.578h-4.43c-.54 0-1.04.203-1.424.587a2 2 0 0 0 -.587 1.415v41.534c0 .532.208 1.05.587 1.425a2.02 2.02 0 0 0 1.424.592h4.421c.542 0 1.05-.218 1.43-.602.379-.37.582-.878.591-1.415v-11.88h13.033v14.905c-.023 2.566-.814 4.398-2.507 6.012z" fill="#fff" transform="matrix(1.33333 0 0 -1.33333 -446.126 479.545)"/><path d="m518.667-69.305-.528-1.003-2.302-4.37-1.462-2.766h3.458v-18.304h8.7v1.17c.925-.754 1.96-1.133 3.19-1.17h7.77c1.133.037 2.136.397 3.066 1.123v-1.123h16.969v1.068c.892-.685 1.882-1.031 3.057-1.068h7.763c1.29.041 2.391.494 3.418 1.415.971.93 1.452 2.053 1.466 3.469v7.598c-.014 1.34-.443 2.427-1.364 3.362h1.364v5.734c-.014 1.392-.495 2.52-1.498 3.482-.995.897-2.096 1.346-3.441 1.383h-7.764c-1.286-.037-2.392-.485-3.423-1.42a6 6 0 0 1 -.528-.572 5 5 0 0 1 -.549.614c-.985.892-2.095 1.341-3.437 1.378h-7.154c-1.285-.037-2.39-.485-3.422-1.42a4 4 0 0 1 -.555-.623 5 5 0 0 1 -.592.665c-.99.892-2.095 1.341-3.436 1.378h-7.77c-1.17-.037-2.182-.407-3.13-1.175v1.175zm23.705-10.413h4.014l-4.014-5.37zm13.273-2.554v-5.272h-3.949z" fill="#1b1615" transform="matrix(1.33333 0 0 -1.33333 -446.126 479.545)"/><g fill="#fff"><path d="m301.318 574.46c-1.11.038-2.02.4-2.896 1.196-.783.753-1.154 1.61-1.166 2.807v22.234c.012 1.197.383 2.055 1.166 2.807.875.79 1.786 1.159 2.896 1.19h10.28c1.11-.031 2.022-.4 2.898-1.19.79-.752 1.16-1.61 1.166-2.807v-10.119c-.006-1.19-.377-2.046-1.166-2.805-.876-.789-1.788-1.154-2.898-1.197h-7.024v-6.314h4.2v3.306h6.888v-5.105c-.006-1.196-.377-2.054-1.166-2.807-.876-.795-1.788-1.158-2.898-1.195zm3.256 17.981h4.2v6.32h-4.2z"/><path d="m524.646-93.861h-4.93v18.3h-2.216l2.307 4.374h4.838z" transform="matrix(1.33333 0 0 -1.33333 -446.126 479.545)"/><path d="m260.172 574.46c-1.116.038-2.023.4-2.899 1.196-.789.753-1.153 1.61-1.171 2.807v10.117c.018 1.196.382 2.054 1.171 2.807.876.783 1.783 1.158 2.899 1.19h7.03v6.314h-4.2v-3.305h-6.9v5.111c.018 1.197.382 2.055 1.171 2.807.876.79 1.783 1.159 2.899 1.19h10.28c1.11-.031 2.022-.4 2.898-1.19.789-.752 1.16-1.61 1.171-2.807v-22.234c-.012-1.196-.382-2.054-1.171-2.807-.876-.795-1.789-1.158-2.899-1.195zm2.83 5.933h4.2v6.326h-4.2z"/><path d="m555.64-93.861h-13.194v5.72l7.705 10.309v2.21h-2.216v-2.21h-5.49v3.644c.01.897.288 1.54.875 2.104.657.597 1.341.87 2.174.897h7.098c.837-.027 1.517-.3 2.179-.897.582-.564.86-1.207.869-2.104v-4.94l-7.705-10.303h7.705z" transform="matrix(1.33333 0 0 -1.33333 -446.126 479.545)"/></g><path d="m543.817 66.681c-23.332 0-44.739-8.342-61.424-22.188-8.722 1.346-18.661 1.91-27.161-.028-1.74-.402-4.708-1.725-.62-6.978l6.539-8.422c.629-.804 1.38-3.33-1.113-3.33-2.488 0-13.024.638-14.12-.458-8.343-8.338-17.69-27.905-17.69-52.337 0-6.91 1.32-13.99 3.757-21.024 0 0 .915-2.516 1.378-3.672 17.407-44.35 59.814-74.123 110.454-74.123 36.52 0 68.597 15.756 90.287 40.997 5.392 6.266 10.128 13.135 14.147 20.478 8.13 16.964 5.872 31.277-5.897 35.98a31 31 0 0 1 -2.284.759c-1.036 52.189-43.8 94.346-96.253 94.346m0-7.255c48.604 0 88.298-38.144 90.795-86.12-24.816 3.196-71.098-.25-104.183-9.152 2.595.268 5.147.499 7.659.684 36.123 2.64 64.975-3.958 74.816-21.005 10.017-17.365-8.458-50.058-42.75-61.781q-.223-.074-.454-.157a72 72 0 0 0 -2.774-.865 66 66 0 0 0 -2.367-.661q-.542-.144-1.083-.283a91 91 0 0 0 -3.644-.804c-.046-.009-.083-.019-.134-.028a83 83 0 0 0 -13.227-1.484c-.879-.018-1.762-.042-2.654-.042-14.503 0-28.168 4.906-40.178 13.578-15.326 11.538-24.257 27.641-24.992 37.265-1.147 14.92-1.665 27.078 56.643 44.208 16.154 4.393 24.976 5.095 34.586 6.668 12.098 1.984 30.237 5.938 42.737 16.57 0 0 4.565.606 5.55 1.027 1.166.48 1.85 5.586 1.147 6.451-.786.971-8.029 11.307-29.483 20.108-15.9 6.53-42.148 13.944-74.105 13.944-5.004 0-6.247-.042-13.642 2.354-2.303.744-6.073 1.835-10.674 2.875 14.817 10.475 32.885 16.65 52.41 16.65z" fill="#1b1615" transform="matrix(1.33333 0 0 -1.33333 -446.126 479.545)"/><path d="m278.96 400.309c-26.033 0-50.123 8.232-69.88 22.199h.004c19.756-13.966 43.846-22.197 69.879-22.197zm-12.573 37.682c-19.31.37-40.468 3.117-61.55 9.89-90.08 28.925-62.716 115.326-37.946 143.426 41.75 47.362 90.674 54.507 112.015 54.507 21.335 0 35.46-3.452 57.567-13.718 22.105-10.26 60.644-46.839 44.6-77.442-13.535-25.84-63.741-33.332-119.948-27.316 3.455-.357 6.855-.664 10.2-.91 48.163-3.521 86.633 5.277 99.755 28.006 13.356 23.154-11.278 66.743-57 82.375-.197.067-.402.135-.605.209q-1.822.61-3.7 1.154a88 88 0 0 1 -3.156.88q-.72.193-1.443.378c-1.603.382-3.22.751-4.86 1.072-.061.012-.11.025-.177.037a110.5 110.5 0 0 1 -17.637 1.979c-1.172.024-2.349.056-3.54.056-14.5 0-28.374-3.678-41.16-10.394 11.584 6.085 24.06 9.67 37.085 10.293 1.355.047 2.706.105 4.074.105-1.364 0-2.721-.04-4.074-.105-62.765-2.203-111.059-54.69-103.791-91.58 5.623-28.531 95.749-56.506 99.578-57.487 2.053-.512 3.404-2.053 1.597-4.013-9.724-10.557-15.557-21.676-17.074-26.11-1.628-4.686-.69-10.685 9.502-13.04 13.264-3.065 25.7-1.948 25.7-1.948s-22.939-.39-27.008 7.916c-2.023 4.088 5.957 19.714 24.08 33.594 4.1 3.138 8.207 5.481 14.793 6.672 7.836 1.4 43.49 6.774 68.42-11.616l.007-.006h.002c.002 0 1.52-.202 3.205-.474-1.683.271-3.203.473-3.203.473s-24.127 2.109-32.674 2.109c14.62-1.634 28.537-4.712 32.915-6.451 1.042-.413 2.775-4.397 1.875-6.598-1.98-4.896-13.196-17.603-34.223-25.62-12.976-4.94-40.02-10.922-72.201-10.304m107.876 30.937c3.36 3.232 4.961 5.475 5.354 5.96.118.145.208.377.27.675-.062-.3-.148-.534-.266-.678-.393-.486-1.998-2.726-5.357-5.957m5.524 10.453c-.307 1.925-.928 3.786-1.705 4.103-.326.142-.95.299-1.701.454.755-.155 1.382-.311 1.71-.452.777-.32 1.39-2.18 1.696-4.105m13.385 1.41a120.7 120.7 0 0 1 6.851 34.346c-26.882-3.462-72.66-1.077-112.543 6.304 39.881-7.379 85.654-9.76 112.547-6.298a120.8 120.8 0 0 0 -6.855-34.352m-81.156 26.418c-5.244.826-10.483 1.552-16.291 2.5 5.803-.946 11.044-1.673 16.29-2.5m-70.221 16.969c-29.55 10.641-42.006 19.96-47 29.234 4.996-9.271 17.46-18.59 47-29.234m-50.102 43.404c.018 2.293.185 4.62.368 7-.183-2.38-.35-4.708-.368-7m26.444 50.865a100 100 0 0 0 7.258 6.028l-.002-.004a100 100 0 0 1 -7.256-6.024m13.361 10.121" fill="#fff"/><path d="m488.851-16.653c10.942-1.771 13.856-.851 19.059 3.237 5.211 4.051 18.128 17.791 18.128 17.791s-9.476-6.66-16.87-10.932c-7.405-4.264-10.73-4.06-12.085-4.06-1.36 0-15.626 2.815-20.621 4.268-5.008 1.461-4.375 4.476 1.04 6.562 18.573 7.14 46.867 8.967 46.867 8.967-33.746 2.595-54.164-4.592-62.6-8.648-8.435-4.065-5.415-8.542-1.142-10.211 4.269-1.674 17.292-5.207 28.224-6.974m78.73 24.473c13.75-4.3 18.961 1.097 19.29 2.71.323 1.578.72 4.422-6.845 8.404-1.461.772-3.876 1.85-5.12 2.118-1.484.314-8.555.823-5.059-2.549 2.807-2.691 6.586-5.965 5.49-7.057-1.087-1.091-6.28-2.321-12.95.541-7.232 3.113-7.7 6.9-7.7 6.9s-.883-6.742 12.894-11.066" fill="#1b1615" transform="matrix(1.33333 0 0 -1.33333 -446.126 479.545)"/></svg>