<svg viewBox="0 0 256.83 299.98" xmlns="http://www.w3.org/2000/svg"><path d="M14.168 27.407l-.98 2.942C7.304 53.394 3.872 75.95 2.4 90.66.93 104.388.439 113.704.439 115.665c0 15.2 2.452 45.11 17.652 78.943 20.594 45.11 56.878 80.413 107.38 103.948l2.943.98 2.942-.98c50.503-23.535 86.787-58.839 107.38-104.439 15.2-33.832 17.652-64.232 17.652-78.942 0-1.961-.49-11.277-1.96-25.006-1.472-14.71-4.904-37.265-10.788-60.31l-.98-2.942-2.943-1.471C210.788 10.246 165.678.439 128.414.439 90.659.44 46.039 10.736 17.11 25.446z" fill="#fff"/><path d="M247.563 91.15c-1.962-15.691-4.904-37.265-10.788-59.33C210.298 18.091 167.15 7.304 128.414 7.304 90.169 7.304 46.53 18.09 20.052 31.82 14.66 53.885 11.226 75.46 9.265 91.15c-1.47 13.238-1.961 22.554-1.961 24.025 0 21.084 4.903 123.071 121.11 177.007 116.207-53.936 121.11-155.923 121.11-177.007 0-1.47-.49-10.787-1.961-24.026" fill="#fff"/><path d="M20.052 31.82C14.66 53.885 11.226 75.46 9.265 91.15c-1.47 13.238-1.961 22.554-1.961 24.025 0 21.084 4.903 123.071 121.11 177.007v-6.864c-26.968-14.22-47.071-31.381-61.78-50.014l-6.865-8.825q-8.826-12.503-14.71-25.007c-18.633-38.245-20.103-73.548-20.103-84.826 0-1.961.49-11.768 1.96-25.987 1.472-14.71 4.414-33.832 8.827-53.445 22.555-12.749 59.82-23.046 92.67-23.046V7.304C90.17 7.794 46.53 18.09 20.054 31.82m227.509 59.33c-1.962-15.691-4.904-37.265-10.788-59.33a117.5 117.5 0 0 0-19.122-8.335v12.258c.98.49 1.961.98 2.942 1.96 4.413 19.614 7.355 38.737 8.826 53.446 1.47 14.22 1.96 24.026 1.96 25.987 0 9.807-.98 38.736-14.219 71.097v29.91c29.91-45.11 31.381-89.73 31.381-102.478.98-1.96.49-11.277-.98-24.516m-119.149-76.49V7.794zm5.884 282.426c13.729-6.864 25.497-13.238 36.284-21.084V256.88c-10.297 9.316-22.555 18.142-36.284 25.987zm77.962-96.594c0 .49-.491.981-.491 1.471q-5.884 12.503-14.71 25.007l-6.864 8.826a216 216 0 0 1-14.22 15.69v20.594c15.2-11.768 25.987-22.065 36.284-34.813zM134.298 14.659c11.768.49 24.516 1.961 36.284 4.903v-15.2C158.324 2.4 146.066.93 134.298.93zm41.677-9.316v14.709c13.239 3.433 25.987 7.845 36.284 12.749V14.168c-11.277-3.432-23.535-6.374-36.284-8.825" fill="#e93526"/><path d="M217.653 188.233l-5.394 12.258c1.962-3.922 3.923-8.335 5.394-12.258" fill="#fff"/><path d="M128.414 7.794c-38.736 0-81.884 10.787-108.362 24.516-5.393 22.065-8.826 43.64-10.787 59.33-1.47 13.238-1.961 22.554-1.961 24.025 0 21.084 4.903 123.072 121.11 177.007 116.207-53.935 121.11-155.923 121.11-177.007 0-1.47-.49-10.787-1.961-24.025-1.962-15.69-4.904-37.265-10.788-59.33C210.298 18.091 167.15 7.794 128.414 7.794" fill="none"/><path d="M128.414 7.794c38.735 0 81.884 10.787 108.361 24.516l5.884-4.903-2.942-1.47C210.788 10.736 165.678.93 128.414.93 90.659.93 46.039 11.226 17.11 25.936l-2.942 1.471 5.884 4.903C46.53 18.091 90.17 7.794 128.414 7.794" fill="#f2f2f3" opacity=".25"/><path d="M128.414 292.182v7.355l2.942-.98c50.503-23.536 86.787-58.84 107.38-104.44 15.2-33.832 17.652-64.232 17.652-78.942 0-1.961-.49-11.277-1.96-25.006-1.472-14.71-4.904-37.265-10.788-60.31l-.98-2.942-5.885 4.903c5.394 22.065 8.826 43.639 10.788 59.33 1.47 13.238 1.96 22.554 1.96 24.025 0 21.084-4.902 123.071-121.11 177.007" fill="#d0d2d3"/><path d="M128.414 292.182v7.355l-2.942-.98c-50.503-23.536-86.787-58.84-107.381-104.44C2.891 160.285.439 129.885.439 115.175c0-1.961.49-11.277 1.962-25.006 1.47-14.71 4.903-37.265 10.787-60.31l.98-2.942 5.884 4.903C14.66 53.885 11.226 75.46 9.265 91.15c-1.47 13.238-1.961 22.554-1.961 24.025 0 21.084 4.903 123.071 121.11 177.007" fill="#e6e6e6"/><path d="M128.414 7.794c-38.736 0-81.884 10.787-108.362 24.516-5.393 22.065-8.826 43.64-10.787 59.33-1.47 13.238-1.961 22.554-1.961 24.025 0 21.084 4.903 123.072 121.11 177.007 116.207-53.935 121.11-155.923 121.11-177.007 0-1.47-.49-10.787-1.961-24.025-1.962-15.69-4.904-37.265-10.788-59.33C210.298 18.091 167.15 7.794 128.414 7.794z" fill="none" opacity=".25" stroke="#fff" stroke-miterlimit="10" stroke-width=".879"/><path d="M98.014 135.769l-3.923 2.942 5.394 1.47-2.942 3.923 5.393.98-1.96 3.923 6.864-1.96 2.942 3.922 4.903-4.903 4.903 4.903 4.903-4.903 4.904 4.903 4.903-4.903 4.903 4.903 4.903-4.903 4.903 4.903 3.433-4.903 6.374 2.451-1.961-3.922 5.393-.981-3.922-2.942 5.393-1.471-3.922-2.942 4.413-2.452-4.413-2.451 3.922-2.942-5.393-2.452 2.942-3.922-5.394-.981 1.961-3.923h-5.884l.49-4.412-5.393.98-.49-4.413-4.903 1.962-1.471-3.923-4.413 2.452-2.942-3.923-3.923 3.432-3.922-3.432-2.942 3.923-4.413-2.452-1.471 3.923-4.903-1.962-.49 4.413-5.885-.49.49 4.413h-5.883l1.961 3.922-5.394.981 2.942 3.923-5.393 1.47 3.922 2.942-4.412 2.452zm21.574-5.884h17.652c2.451 3.432 0 3.432-1.471 3.432l-.98 4.903-2.943-4.903-1.47 4.903-1.962-4.903-1.961 4.903-1.471-4.903-2.942 4.903-.981-4.903c-1.471 0-3.432 0-1.471-3.432" fill="#e93526"/><path d="M203.433 170.091c-14.219-3.922-6.864-9.316 1.471-13.238-17.16-11.278-13.238-16.181-17.651-28.93-1.962 10.788-3.923 22.555-19.123 27.459 11.768 7.845 12.749 16.67 6.865 17.651-5.884 1.471-9.317-5.884-9.317-5.884 0 6.375 4.413 17.162-3.432 17.162s-11.768-11.278-11.768-11.278c1.471 18.633 1.962 30.4-4.412 30.4-6.375 0-7.846-7.845-6.865-10.296-1.961 5.883-6.865 10.787-2.942 20.593 1.961 2.942 1.471 7.845-3.432 9.316h-.49V180.88c2.941-4.904 12.748-23.536 16.18-25.007l-4.903-4.903-4.903 4.903-4.904-4.903-4.903 4.903-4.903-4.903-4.903 4.903-4.904-4.903-4.903 4.903c2.942.98 12.258 18.632 15.69 25.007v42.167c-4.903-.98-5.393-5.884-3.432-9.316 3.923-9.806-.98-14.71-2.942-20.593.49 1.96-.98 10.296-6.864 10.296-6.374 0-6.374-11.767-4.413-30.4 0 0-3.432 11.278-11.768 11.278-7.845 0-3.432-10.787-3.432-17.162 0 0-3.432 6.865-9.316 5.884-5.884-1.47-5.394-9.806 6.864-17.651-15.2-4.904-17.651-16.671-19.122-27.458-3.923 12.748-.49 17.651-17.652 28.929 7.845 3.922 15.69 9.316 1.471 13.238 10.787 8.826 23.045 15.2 4.903 24.517 10.787 4.903 31.38 12.748 12.258 21.084-3.432 1.47-6.374 5.393-6.374 5.393 16.671 1.961 46.09 6.374 63.252 25.987 17.652-19.122 47.071-24.026 63.252-25.987 0 0-2.942-3.923-5.884-5.393-19.123-8.336 1.47-16.181 12.258-21.084-17.652-9.807-5.394-15.69 5.393-24.517m-71.097-10.787c12.259 0 0 7.845 0 7.845zm-7.354 0v7.845c0-.49-12.258-8.335 0-7.845" fill="#e93526"/><path d="M14.168 27.407l-.98 2.942C7.304 53.394 3.872 75.95 2.4 90.66.93 104.388.439 113.704.439 115.665c0 15.2 2.452 45.11 17.652 78.943 20.594 45.11 56.878 80.413 107.38 103.948l2.943.98 2.942-.98c50.503-23.535 86.787-58.839 107.38-104.439 15.2-33.832 17.652-64.232 17.652-78.942 0-1.961-.49-11.277-1.96-25.006-1.472-14.71-4.904-37.265-10.788-60.31l-.98-2.942-2.943-1.471C210.788 10.246 165.678.439 128.414.439 90.659.44 46.039 10.736 17.11 25.446z" fill="none" stroke="#d0d2d3" stroke-miterlimit="10" stroke-width=".879"/><g stroke-width="4.903"><path d="M112.724 266.685v-7.845l-2.942 2.452v-3.433l2.942-2.451h2.941v11.277zm14.709-6.865v1.472c0 .49 0 .98-.49.98 0 .49-.49.98-.49.98 0 .491-.49.982-.49 1.472l-2.452 4.413h-3.433l2.942-5.394h-1.47c-.491 0-.981 0-1.472-.49-.49 0-.98-.49-.98-.98-.49-.491-.49-.981-.98-1.472 0-.49-.491-.98-.491-1.961 0-.98 0-1.47.49-1.961.49-.49.49-.98.98-1.471.491-.49.981-.49 1.472-.98.49 0 .98-.491 1.961-.491.49 0 .98 0 1.961.49.98.49.98.49 1.471.98.49.491.98.981.98 1.472.491 1.47.491 1.961.491 2.942m-2.942 0c0-.49 0-.98-.49-1.47s-.49-.49-.98-.49c-.491 0-.981 0-.981.49-.49.49-.49.49-.49 1.47 0 .491 0 .981.49 1.472.49.49.49.49.98.49s.981 0 .981-.49c.49-.49.49-.981.49-1.471m13.729 2.45c0 .49 0 1.471-.49 1.962s-.49.98-.98 1.47c-.491.49-.981.49-1.472.981-.49 0-.98.49-1.96.49-.491 0-.982 0-1.962-.49-.49 0-.98-.49-1.471-.98-.49-.49-.98-.981-.98-1.471v-3.432c0-.491 0-.981.49-.981 0-.49.49-.981.49-.981 0-.49.49-.98.49-1.47l2.452-4.414h3.432l-2.942 5.394h1.471c.49 0 .98 0 1.471.49.49 0 .98.49.98.98 0 .491.491.981.981 1.472zm-2.942 0c0-.49 0-.98-.49-1.47-.49-.491-.49-.491-.98-.491s-.981 0-.981.49c-.49.49-.49.49-.49 1.471 0 .49 0 .98.49 1.471.49.49.49.49.98.49s.981 0 .981-.49.49-.98.49-1.47m9.317 6.374h-3.433l4.413-10.788h-2.942v2.452h-2.942v-4.903h9.316v2.942zM66.633 80.362L53.885 60.75v19.613h-9.807V41.136h8.336L65.162 60.75V41.136h9.807v39.226zm37.265 0l-1.962-5.884H89.678l-1.961 5.884H77.42l14.22-39.226h7.845l14.22 39.226zm-7.846-24.516L92.62 66.143h6.865zm43.149 24.516L126.453 60.75v19.613h-9.807V41.136h8.336L137.73 60.75V41.136h9.807v39.226zm28.929.49c-4.413 0-8.335-1.47-10.787-4.412-3.923-3.923-3.923-9.807-3.923-15.69 0-5.885 0-11.278 3.923-15.691 2.942-2.942 6.374-4.413 10.787-4.413 5.394 0 8.336 1.961 10.787 4.413l-6.374 6.374c-1.471-1.471-2.452-1.961-4.413-1.961s-2.942.49-3.922 1.47c-.981.981-1.471 2.452-1.471 9.807s.49 8.826 1.47 9.807c.49.98 1.962 1.47 3.923 1.47 2.452 0 3.432-.98 4.413-1.96l6.374 6.374c-2.451 2.451-5.393 4.412-10.787 4.412m32.852-16.671v16.181h-9.807v-16.18l-11.767-23.536h10.787l6.374 14.22 6.374-14.22h10.787zM67.123 101.446V88.207h3.433v10.297h5.393v2.942zm23.536-1.471c-.98.98-1.961 1.471-3.432 1.471s-2.942-.49-3.433-1.47c-1.47-1.472-1.47-3.433-1.47-5.394s0-3.923 1.47-5.394c.981-.98 1.962-1.471 3.433-1.471s2.942.49 3.432 1.471c1.47 1.47 1.47 3.432 1.47 5.394 0 1.96 0 3.922-1.47 5.393m-1.961-8.335c0-.49-.49-.49-1.471-.49s-.981.49-1.471.49c-.49.49-.49.98-.49 3.432s0 2.942.49 3.432c0 .49.49.49 1.47.49.981 0 .981-.49 1.472-.49.49-.49.49-.98.49-3.432 0-2.942-.49-3.432-.49-3.432m17.652 9.806l-2.452-4.903h-.981v4.903h-3.432V88.207h5.393c2.942 0 4.413 1.962 4.413 4.413 0 1.962-.98 2.942-1.961 3.432l2.942 5.394zm-1.472-10.297h-1.961v2.452h1.961q1.471 0 1.471-1.471c0-.98-.98-.98-1.47-.98m18.631 10.296l-2.451-4.903h-.98v4.903h-3.433V88.207h5.394c2.942 0 4.413 1.962 4.413 4.413 0 1.962-.981 2.942-1.962 3.432l2.942 5.394zm-1.47-10.297h-1.962v2.452h1.962q1.47 0 1.47-1.471c0-.98-.49-.98-1.47-.98m19.122 10.296l-.49-1.961h-3.923l-.49 1.961h-3.432l4.903-13.239h2.452l4.903 13.24zm-2.451-8.335l-.981 3.432h2.452zm12.749 8.335V88.207h3.431v13.24zm18.141 0l-4.413-6.374v6.374h-3.432V88.207h2.942l4.413 6.375v-6.375h3.432v13.24zm10.787 0V88.207h8.826v2.942h-5.884v1.962h4.903v2.941h-4.903v2.452h5.884v2.942z" fill="#e93526"/></g></svg>