<svg viewBox="0 0 582.65 700" xmlns="http://www.w3.org/2000/svg" xmlns:xlink="http://www.w3.org/1999/xlink"><linearGradient id="a"><stop offset="0" stop-color="#213255"/><stop offset="1" stop-color="#13182c"/></linearGradient><linearGradient id="b" gradientTransform="matrix(0 -524.9975 -524.9975 0 458.322817 698.771673)" gradientUnits="userSpaceOnUse" spreadMethod="pad" x1="0" x2="1" xlink:href="#a" y1="0" y2="0"/><linearGradient id="c" gradientTransform="matrix(0 493.32878 493.32878 0 458.383 189.388)" gradientUnits="userSpaceOnUse" spreadMethod="pad" x1="0" x2="1" xlink:href="#a" y1="0" y2="0"/><linearGradient id="d"><stop offset="0" stop-color="#dadada"/><stop offset="1" stop-color="#ededed"/></linearGradient><linearGradient id="e" gradientTransform="matrix(0 31.78802 31.78802 0 415.183 262.173)" gradientUnits="userSpaceOnUse" spreadMethod="pad" x1="0" x2="1" xlink:href="#d" y1="0" y2="0"/><linearGradient id="f" gradientTransform="matrix(0 32.3246 32.3246 0 441.345 261.905)" gradientUnits="userSpaceOnUse" spreadMethod="pad" x1="0" x2="1" xlink:href="#d" y1="0" y2="0"/><linearGradient id="g" gradientTransform="matrix(0 31.78802 31.78802 0 473.413 262.173)" gradientUnits="userSpaceOnUse" spreadMethod="pad" x1="0" x2="1" xlink:href="#d" y1="0" y2="0"/><linearGradient id="h" gradientTransform="matrix(0 32.05631 32.05631 0 498.413 262.173)" gradientUnits="userSpaceOnUse" spreadMethod="pad" x1="0" x2="1" xlink:href="#d" y1="0" y2="0"/><g transform="matrix(1.33333 0 0 -1.33333 -319.853 931.401)"><path d="m248.933 636.568c.337-.131-76.07-319.506 209.451-463.017 285.522 143.51 209.11 462.886 209.448 463.017-99.876 14.271-209.448 61.983-209.448 61.983s-109.575-47.712-209.451-61.983" fill="url(#b)"/><path d="m261.57 624.47c.315-.123-71.487-300.228 196.814-435.081 268.298 134.853 196.496 434.958 196.814 435.081-93.853 13.413-196.814 58.247-196.814 58.247s-102.964-44.834-196.814-58.247" fill="url(#c)"/><path d="m277.768 461.44a413 413 0 0 1 1.93-10.876c9.433-49.012 27.38-93.167 53.352-131.244 30.619-44.882 72.758-81.711 125.335-109.553v277.259c-65.889 0-127.613-9.325-180.617-25.586" fill="#89c2eb"/><path d="m640.288 609.133c-78.233 13.218-157.943 44.706-181.906 54.645-23.959-9.939-103.672-41.427-181.905-54.645-4.426-26.44-10.689-82.12-.098-146.441 53.412 16.384 115.61 25.78 182.003 25.78 66.395 0 128.595-9.396 182.004-25.78 10.59 64.321 4.328 120-.098 146.44z" fill="none" stroke="#ca9e67" stroke-miterlimit="10" stroke-width="6.77584"/><path d="m276.38 462.693a407 407 0 0 1 1.945-10.958c9.504-49.39 27.594-93.887 53.764-132.252 30.851-45.231 73.313-82.341 126.294-110.396 52.98 28.055 95.442 65.165 126.297 110.396 26.17 38.365 44.257 82.861 53.76 132.252.71 3.68 1.35 7.33 1.946 10.958-53.409 16.385-115.61 25.78-182.003 25.78-66.395 0-128.591-9.395-182.003-25.78z" fill="none" stroke="#ca9e67" stroke-miterlimit="10" stroke-width="6.77584"/><path d="m382.096 600.714v-48.612h-38.71v48.612h-19.555v-94.986h19.555v28.917h38.71v-28.917h19.56v94.986zm76.111.839-41.764-95.825h18.859l4.467 10.756h38.552l4.468-10.756h18.858l-41.764 95.825zm.838-35.203 12.71-33.523h-25.42zm48.235-13.69c0-27.755 20.939-48.191 47.285-48.191 17.697 0 30.401 8.009 38.373 20.714l-14.729 10.354c-5.134-8.005-11.752-13.806-23.644-13.806-16.617 0-27.83 13.39-27.83 30.93s11.213 30.656 27.83 30.656c10.539 0 17.967-5.112 22.291-12.293l14.46 10.498c-8.242 13.117-20.134 19.192-36.75 19.192-26.347 0-47.286-20.298-47.286-48.053" fill="#fff"/><path d="m414.915 293.96-6.784-5.89v-7.815l6.784 5.892v-23.974h7.323v31.788z" fill="url(#e)"/><path d="m430.989 284.809c0-3.437 2.14-5.356 3.256-6.296-1.206-.978-3.571-2.856-3.571-6.832 0-6.607 4.823-9.774 10.67-9.774 5.85 0 10.67 3.167 10.67 9.774 0 3.976-2.362 5.854-3.572 6.832 1.116.94 3.26 2.86 3.26 6.296 0 6.026-4.913 9.418-10.359 9.418-5.449 0-10.354-3.392-10.354-9.418m7.319-.225a3.01 3.01 0 0 0 3.035 3.036 3.01 3.01 0 0 0 3.04-3.036 3.014 3.014 0 0 0 -3.04-3.036 3.014 3.014 0 0 0 -3.035 3.036m-.311-12.72c0 1.826 1.518 3.343 3.346 3.343 1.833 0 3.35-1.517 3.35-3.343 0-1.832-1.517-3.35-3.35-3.35-1.828 0-3.346 1.518-3.346 3.35" fill="url(#f)"/><path d="m414.915 262.173v23.974l-6.787-5.891v7.81l6.787 5.895h7.323v-31.788z" fill="none" opacity=".5" stroke="#fff" stroke-miterlimit="10" stroke-width=".966906"/><path d="m462.518 293.96v-11.606h6.967v5h6.783l-9.909-25.181h8.035l9.913 25.18v6.608z" fill="url(#g)"/><path d="m441.345 287.62a3.01 3.01 0 0 1 -3.036-3.035 3.01 3.01 0 0 1 3.036-3.035 3.01 3.01 0 0 1 3.035 3.035 3.01 3.01 0 0 1 -3.035 3.036zm0-12.412c-1.833 0-3.35-1.517-3.35-3.346 0-1.833 1.517-3.35 3.35-3.35 1.828 0 3.35 1.517 3.35 3.35 0 1.829-1.522 3.346-3.35 3.346zm0-13.304c-5.85 0-10.67 3.17-10.67 9.778 0 3.972 2.365 5.85 3.571 6.832-1.116.937-3.26 2.856-3.26 6.296 0 6.026 4.913 9.418 10.359 9.418s10.358-3.392 10.358-9.418c0-3.44-2.143-5.36-3.26-6.296 1.206-.982 3.571-2.86 3.571-6.832 0-6.607-4.82-9.778-10.67-9.778z" fill="none" opacity=".5" stroke="#fff" stroke-miterlimit="10" stroke-width=".966906"/><path d="m488.19 284.543h7.323c0 2.455 1.604 3.077 2.945 3.077 1.874 0 2.86-1.203 2.86-2.942 0-1.346-.45-2.148-1.612-3.4l-11.516-12.498v-6.607h20.447v6.607h-11.52l7.589 8.039c2.548 2.676 3.931 4.46 3.931 7.81 0 5.985-4.284 9.598-10.179 9.598-5.535 0-10.268-3.437-10.268-9.684" fill="url(#h)"/><path d="m474.396 262.173h-8.036l9.91 25.181h-6.784v-5h-6.967v11.607h21.79v-6.607zm13.794 0v6.607l11.52 12.503c1.158 1.248 1.607 2.053 1.607 3.391 0 1.743-.985 2.946-2.859 2.946-1.338 0-2.946-.626-2.946-3.08h-7.323c0 6.25 4.734 9.691 10.269 9.691 5.895 0 10.179-3.62 10.179-9.602 0-3.346-1.383-5.134-3.928-7.814l-7.589-8.035h11.517v-6.607z" fill="none" opacity=".5" stroke="#fff" stroke-miterlimit="10" stroke-width=".966906"/><path d="m432.925 459.367-1.627-1.627c-.618 1.552.398 6.645.814 8.017v.116c-2.631-.712-5.892-3.178-7.436-5.112l-2.323-2.904-.581 13.476c-1.023-.506-2.069-.637-2.905-1.278-2.998-2.3-5.153-8.57-5.809-13.012l-.232-.116c-1.611 6.045-4.478 11.757-10.34 13.71.18-4.284 1.15-8.602.93-12.897l-3.486 3.95c-1.926 1.537-4.044 2.834-6.39 3.95-.63-1.87 1.046-5.52 1.046-8.132l-2.207 1.859-.233.232h-.116c.337-3.414 1.672-5.565 2.44-8.597l.93-5.693v-.232c11.306 1.158 23.265 2.998 33.923-.58l1.046 5.227c1.076 3.67 2.417 6.165 3.37 10.108zm48.911-19.519c2.305.041 5.438.304 7.203-.465v-.116c-3.436-.19-9.148-2.192-10.804-4.414 6.648 1.034 16.175 2.788 23.352.697 2.06-.6 3.695-1.702 5.46-2.44v-.116c-4.123-.057-7.784-1.327-10.688-2.789-4.914-2.473-8.594-6.052-13.012-8.83-7.234-4.541-20.988-8.08-31.369-4.182-2.945 1.106-6.236 2.376-8.016 4.647 10.205.803 13.364 8.328 20.099 12.548 3.451 2.162 7.589 3.706 12.082 4.763z" fill="#fff" fill-rule="evenodd"/><path d="m432.925 459.367-1.627-1.627c-.618 1.552.398 6.645.814 8.017v.116c-2.631-.712-5.892-3.178-7.436-5.112l-2.323-2.904-.581 13.476c-1.023-.506-2.069-.637-2.905-1.278-2.998-2.3-5.153-8.57-5.809-13.012l-.232-.116c-1.611 6.045-4.478 11.757-10.34 13.71.18-4.284 1.15-8.602.93-12.897l-3.486 3.95c-1.926 1.537-4.044 2.834-6.39 3.95-.63-1.87 1.046-5.52 1.046-8.132l-2.207 1.859-.233.232h-.116c.337-3.414 1.672-5.565 2.44-8.597l.93-5.693v-.232c11.306 1.158 23.265 2.998 33.923-.58l1.046 5.227c1.076 3.67 2.417 6.165 3.37 10.108z" fill="none" opacity=".5" stroke="#fff" stroke-miterlimit="5" stroke-width=".966906"/><path d="m410.037 430.787c.259-6.233-7.615-3.827-7.668 1.161 2.886-.063 5.09-.914 7.668-1.161m147.783-65.409c-.84 2.74-1.968 5.427-3.373 7.668l-2.904 3.95c-1.001.817.607 1.904 1.278 2.788-2.17 2.129-5.558 5.105-8.594 6.158l1.274 3.717c-4.212 1.2-8.638 3.059-13.589 3.486l.461 5.112c-4.595 1.225-10.67-.007-15.216-.233q-.179 2.902-.352 5.81c-3.095-.503-6.195-1.009-9.29-1.511l-9.88-2.672-.809 6.157-6.161-1.394c-4.22-1.267-8.429-2.732-12.315-4.415q-.578 3.076-1.162 6.158-5.167-1.627-10.34-3.253-4.357-1.858-8.713-3.718-.404 2.378-.813 4.763c-7.424-.84-15.133-5.108-21.26-7.784-.192.967-.387 1.938-.582 2.905-16.246-2.432-23.116-15.294-37.99-19.053-13.71-3.463-20.305 6.91-22.655 16.73-.491 2.057-1.154 5.209-.697 7.9 1.461 8.627 4.943 12.899 13.128 14.754 1.945.439 5.254.618 7.087-.116 4.074-1.63 5.741-6.019 10.456-7.087 6.645-1.507 23.843.525 25.095 4.763-1.668 1.428-5.397 1.248-7.784 1.86-2.459.625-5.933 2.319-7.784 3.833h-.233c1.346.547 3.842.232 5.577.232 5.498 0 10.321-.1 13.825 1.976 1.218.72 2.361 1.139 2.44 3.02-2.245 2.372-6.161 3.422-9.41 4.763-7.039 2.901-13.335 5.071-23.817 4.88l-4.066-.349c-2.594-.427-5.191-.85-7.784-1.278-11.049-2.758-20.313-6.468-26.024-14.522-2.639-3.725-4.453-8.26-5.81-13.244-2.488-9.14-.741-21.115 2.092-28.348 7.964-20.331 27.864-29.37 54.14-31.368 2.132-3.19-1.62-6.738-3.138-8.946-1.922-2.8-4.107-6.903-6.97-8.713-1.432-.352-2.867-.697-4.3-1.046-4.343-1.356-9.308-3.95-11.152-7.784q-.29-.294-.581-.58c2.953.43 5.284 1.888 8.713 1.858.87-1.847-.202-5.468-.813-7.203 4.299 1.792 7.717 6.158 12.896 6.855 1.015-.978 1.045-2.732.813-4.647 2.432.775 7.068 2.585 8.133 4.763.877 2.166-2.204 4.385-3.486 4.996 1.466 9.89 11.033 12.892 18.008 17.426-1.02 5.165-2.41 7.766-1.162 14.058.154-.105 1.507-4.554 1.859-5.112 1.945-3.07 5.614-6.146 9.062-7.668 3.579-1.581 11.224-1.862 15.916-.933 11.3 2.249 20.793 5.865 30.207 9.879 3.17-2.736 5.543-6.289 10.224-7.552q-3.138-8.77-6.274-17.543c-6.251-2.113-12.439-3.41-15.103-8.945l-.349-.349c2.848.521 5.404 1.747 8.714 1.743 1.113-2.054-.431-5.01-.697-6.97 4.377 1.577 7.652 5.917 12.663 6.734 1.323-.761 1.06-2.774.93-4.644 2.39 1.155 6.974 2.53 8.136 4.88 1.004 2.582-3.883 6.476-5.81 6.854.226 8.766 10.27 17.165 15.685 21.261-.412 1.552-1.983 2.78-2.792 4.066-3.23 5.135-5.562 11.375-3.25 18.705q.114.059.233.116c.221-4.726 2.425-10.066 6.154-11.27 7.004 1.871 18.87-.321 21.377-4.181 1.472-2.26.873-6.188-.345-8.25-3.422-5.782-13.548-4.98-22.775-4.879-2.95-2.188-5.464-5.91-6.855-9.643v-.116c6.881-.018 10.992-1.585 19.17-2.207 8.181-.622 13.754.884 16.497 2.091 8.792 3.86 17.195 16.164 13.016 29.858" fill="#fff" fill-rule="evenodd"/><path d="m481.836 439.848c2.305.041 5.438.304 7.203-.465v-.116c-3.436-.19-9.148-2.192-10.804-4.414 6.648 1.034 16.175 2.788 23.352.697 2.06-.6 3.695-1.702 5.46-2.44v-.116c-4.123-.057-7.784-1.327-10.688-2.789-4.914-2.473-8.594-6.052-13.012-8.83-7.234-4.541-20.988-8.08-31.369-4.182-2.945 1.106-6.236 2.376-8.016 4.647 10.205.803 13.364 8.328 20.099 12.548 3.451 2.162 7.589 3.706 12.082 4.763z" fill="none" opacity=".5" stroke="#f6f6f6" stroke-miterlimit="5" stroke-width=".966906"/><path d="m493.454 344.348c-1.135-2.406-2.226-5.153-2.788-8.132-14.357.78-30.487.7-40.779-3.718-3.586-1.54-7.885-3.564-8.364-8.133h-.117c-.536 6 3.006 8.047 6.623 10.224 8.604 5.18 25.36 7.563 32.181 8.597 6.82 1.035 12.975 1.2 13.244 1.162" fill="#f6f6f6" fill-rule="evenodd"/><path d="m410.037 430.787c.259-6.233-7.615-3.827-7.668 1.161 2.886-.063 5.09-.914 7.668-1.161zm147.783-65.409c-.84 2.74-1.968 5.427-3.373 7.668l-2.904 3.95c-1.001.817.607 1.904 1.278 2.788-2.17 2.129-5.558 5.105-8.594 6.158l1.274 3.717c-4.212 1.2-8.638 3.059-13.589 3.486l.461 5.112c-4.595 1.225-10.67-.007-15.216-.233q-.179 2.902-.352 5.81c-3.095-.503-6.195-1.009-9.29-1.511l-9.88-2.672-.809 6.157-6.161-1.394c-4.22-1.267-8.429-2.732-12.315-4.415q-.578 3.076-1.162 6.158-5.167-1.627-10.34-3.253-4.357-1.858-8.713-3.718-.404 2.378-.813 4.763c-7.424-.84-15.133-5.108-21.26-7.784-.192.967-.387 1.938-.582 2.905-16.246-2.432-23.116-15.294-37.99-19.053-13.71-3.463-20.305 6.91-22.655 16.73-.491 2.057-1.154 5.209-.697 7.9 1.461 8.627 4.943 12.899 13.128 14.754 1.945.439 5.254.618 7.087-.116 4.074-1.63 5.741-6.019 10.456-7.087 6.645-1.507 23.843.525 25.095 4.763-1.668 1.428-5.397 1.248-7.784 1.86-2.459.625-5.933 2.319-7.784 3.833h-.233c1.346.547 3.842.232 5.577.232 5.498 0 10.321-.1 13.825 1.976 1.218.72 2.361 1.139 2.44 3.02-2.245 2.372-6.161 3.422-9.41 4.763-7.039 2.901-13.335 5.071-23.817 4.88l-4.066-.349c-2.594-.427-5.191-.85-7.784-1.278-11.049-2.758-20.313-6.468-26.024-14.522-2.639-3.725-4.453-8.26-5.81-13.244-2.488-9.14-.741-21.115 2.092-28.348 7.964-20.331 27.864-29.37 54.14-31.368 2.132-3.19-1.62-6.738-3.138-8.946-1.922-2.8-4.107-6.903-6.97-8.713-1.432-.352-2.867-.697-4.3-1.046-4.343-1.356-9.308-3.95-11.152-7.784q-.29-.294-.581-.58c2.953.43 5.284 1.888 8.713 1.858.87-1.847-.202-5.468-.813-7.203 4.299 1.792 7.717 6.158 12.896 6.855 1.015-.978 1.045-2.732.813-4.647 2.432.775 7.068 2.585 8.133 4.763.877 2.166-2.204 4.385-3.486 4.996 1.466 9.89 11.033 12.892 18.008 17.426-1.02 5.165-2.41 7.766-1.162 14.058.154-.105 1.507-4.554 1.859-5.112 1.945-3.07 5.614-6.146 9.062-7.668 3.579-1.581 11.224-1.862 15.916-.933 11.3 2.249 20.793 5.865 30.207 9.879 3.17-2.736 5.543-6.289 10.224-7.552q-3.138-8.77-6.274-17.543c-6.251-2.113-12.439-3.41-15.103-8.945l-.349-.349c2.848.521 5.404 1.747 8.714 1.743 1.113-2.054-.431-5.01-.697-6.97 4.377 1.577 7.652 5.917 12.663 6.734 1.323-.761 1.06-2.774.93-4.644 2.39 1.155 6.974 2.53 8.136 4.88 1.004 2.582-3.883 6.476-5.81 6.854.226 8.766 10.27 17.165 15.685 21.261-.412 1.552-1.983 2.78-2.792 4.066-3.23 5.135-5.562 11.375-3.25 18.705q.114.059.233.116c.221-4.726 2.425-10.066 6.154-11.27 7.004 1.871 18.87-.321 21.377-4.181 1.472-2.26.873-6.188-.345-8.25-3.422-5.782-13.548-4.98-22.775-4.879-2.95-2.188-5.464-5.91-6.855-9.643v-.116c6.881-.018 10.992-1.585 19.17-2.207 8.181-.622 13.754.884 16.497 2.091 8.792 3.86 17.195 16.164 13.016 29.858z" fill="none" opacity=".5" stroke="#fff" stroke-miterlimit="5" stroke-width=".966906"/><path d="m447.9 421.07s12.507-7.424 25.819-1.855c13.311 5.565 15.733 11.052 21.624 12.506-3.19-.161-8.522-2.957-17.266-7.29-8.747-4.332-12.828-5.299-18.075-5.299-5.243 0-12.101 1.938-12.101 1.938" fill="#ededed" fill-rule="evenodd"/><path d="m493.454 344.348c-1.135-2.406-2.226-5.153-2.788-8.132-14.357.78-30.487.7-40.779-3.718-3.586-1.54-7.885-3.564-8.364-8.133h-.117c-.536 6 3.006 8.047 6.623 10.224 8.604 5.18 25.36 7.563 32.181 8.597 6.82 1.035 12.975 1.2 13.244 1.162z" fill="none" opacity=".5" stroke="#fff" stroke-miterlimit="5" stroke-width=".966906"/><path d="m530.05 333.898s18.582-.682 24.39 12.63c-.123 2.02-2.33-2.609-9.155-7.274-10.179-5.34-15.234-5.356-15.234-5.356m-138.766-11.311s4.73 5.003 10.415 5.888c5.689.884 1.668-1.698.435-1.998-1.226-.296-7.818-1.75-10.85-3.89m88.969.779s4.05 3.388 8.833 4.756c3.399.97 3.152-.592 1.896-1.045-5.205-1.878-6.37-2.017-10.73-3.71m-85.359 127.831s.847-2.012.967-5.52c0 0 17.689 2.537 24.592 1.51 6.9-1.027-6.435 2.046-14.646 1.364-4.58-.382-8.492-.614-8.492-.614-.188.929-2.421 3.26-2.421 3.26m38.28-89.128s1.941-20.383 26.608-13.716c20.838 5.633-18.862-4.355-26.608 13.716m-70.553 52.626s-19.465-57.25 50.182-64.221c0 0-28.64 2.702-40.138 19.282-16.299 20.653-10.044 44.938-10.044 44.938m18.516 3.551s10.408 4.64 15.37 1.615c4.962-3.028 4.235-4.34 4.235-4.34s1.06 4.31-3.628 5.457c-2.219.584-3.692.753-5.6.423-6.805-1.24-10.377-3.155-10.377-3.155m110.13-61.942c-1.533-.787 3.571-5.565 8.17-7.2-6.45 3.98-6.638 7.987-8.17 7.2m21.662 17.689s1.488-6.903 4.115-8.833 14.039.483 19.728-3.328c5.262-2.815 4.276-7.29 4.276-7.29s1.923 4.655-2.342 8.032c-3.145 2.784-7.383 3.796-12.705 3.796-5.326 0-6.113.004-9.32 2.78-3.209 2.778-3.752 4.843-3.752 4.843" fill="#ededed" fill-rule="evenodd"/></g></svg>