<svg viewBox="0 0 1080 1080" xmlns="http://www.w3.org/2000/svg"><clipPath id="a"><path d="M0 0h1080v1080H0z"/></clipPath><g clip-path="url(#a)"><path d="M540 0C241.77 0 0 241.77 0 540s241.77 540 540 540 540-241.77 540-540S838.23 0 540 0" fill="#fff"/><g fill="#09633d"><path d="M540 24.35C255.22 24.35 24.35 255.22 24.35 540S255.22 1055.64 540 1055.64 1055.64 824.78 1055.64 540 824.78 24.35 540 24.35m0 47.36c258.22 0 468.29 210.08 468.29 468.29S798.21 1008.29 540 1008.29 71.71 798.22 71.71 540 281.78 71.71 540 71.71"/><path d="M831.07 307.25v31.57H799.5v-31.57h-31.57v31.57h-31.57v-31.57h-31.57v339.26c0 23.67-19.26 42.93-42.93 42.93s-42.93-19.26-42.93-42.93V370.34h-31.57v31.63h-31.57v-31.63h-31.57v31.63h-31.57v-31.63h-31.57v276.17c0 23.67-19.26 42.93-42.93 42.93s-42.93-19.26-42.93-42.93V307.25h-31.57v31.57h-31.57v-31.57h-31.57v31.57h-31.57v-31.57h-31.57v339.26c0 110.72 90.07 200.78 200.78 200.78 45.8 0 88.04-15.44 121.86-41.36 33.82 25.91 76.06 41.36 121.86 41.36 110.71 0 200.78-90.07 200.78-200.78V307.25h-31.57z"/></g></g></svg>