<svg xmlns="http://www.w3.org/2000/svg" viewBox="7 11 65 57.99"><g fill="none" fill-rule="evenodd"><path d="M0 0h80v80H0z"/><g fill-rule="nonzero"><path fill="#000" d="M14.65 25.598h.002zm42.709-8.274 14.64-.016-6.958 9.552a29.2 29.2 0 0 1 3.1 13.136c0 16.018-12.82 28.996-28.633 28.996a28.28 28.28 0 0 1-17.856-6.33H7l6.964-9.555a29.36 29.36 0 0 1 .848-27.794l.144-.248C19.968 16.638 29.087 11 39.508 11a28.3 28.3 0 0 1 17.851 6.324"/><path fill="#fff" d="M12.85 39.996a27.15 27.15 0 0 1 3.335-13.085q.154-.292.322-.585.16-.272.329-.537c4.702-7.675 13.097-12.787 22.672-12.787a26.35 26.35 0 0 1 17.14 6.32l11.444-.012-5.382 7.387a27.14 27.14 0 0 1 3.454 13.299c0 14.909-11.935 26.995-26.656 26.995a26.36 26.36 0 0 1-17.144-6.323H10.906l5.389-7.393a27.14 27.14 0 0 1-3.444-13.279z"/><path fill="#000" d="M54.551 46.654a3.99 3.99 0 0 0-2.428-3.683 3.9 3.9 0 0 0-4.29.863 4.02 4.02 0 0 0-.853 4.344 3.935 3.935 0 0 0 3.636 2.46 3.9 3.9 0 0 0 2.783-1.167 4 4 0 0 0 1.152-2.817m6.254 5.998c-1.594 2.741-4.199 4.729-7.24 5.525s-6.272.337-8.978-1.278c-5.634-3.365-7.832-11.394-2.811-18.358.507-.698 12.602-17.22 12.602-17.22H64.2L54.15 35.114c3.445 1.1 6.206 3.73 7.501 7.144a12.14 12.14 0 0 1-.846 10.392z"/><path fill="#009D3A" d="M61.415 28.473a25.14 25.14 0 0 1 2.774 11.522c0 1.125-.074 2.25-.222 3.364a13.94 13.94 0 0 0-6.823-9.022zM17.589 51.496a25.15 25.15 0 0 1-2.761-11.501q0-1.574.192-3.136a13.94 13.94 0 0 0 6.782 8.86z"/><path fill="#000" d="M24.463 33.338c0 1.612.958 3.066 2.429 3.683s3.163.276 4.289-.864 1.462-2.854.853-4.343-2.044-2.46-3.636-2.46a3.9 3.9 0 0 0-2.782 1.166 4 4 0 0 0-1.153 2.818m-6.254-5.997a11.86 11.86 0 0 1 7.24-5.527 11.72 11.72 0 0 1 8.98 1.28c5.633 3.364 7.83 11.393 2.81 18.357-.506.702-12.601 17.221-12.601 17.221h-9.823l10.048-13.795c-3.444-1.1-6.204-3.73-7.5-7.144a12.14 12.14 0 0 1 .846-10.392"/><path fill="#009D3A" d="M39.508 15.002a24.35 24.35 0 0 1 13.886 4.327c-.13.176-4.052 5.49-7.453 10.12-1.278 1.738-2.81 3.843-3.968 5.425.588-5.172-1.831-10.69-6.544-13.502a13.62 13.62 0 0 0-10.63-1.45 24.37 24.37 0 0 1 14.709-4.92m.01 49.983a24.35 24.35 0 0 1-13.885-4.328c.129-.175 4.05-5.485 7.452-10.119 1.278-1.738 2.841-3.906 3.998-5.489-.588 5.173 1.801 10.752 6.512 13.565a13.63 13.63 0 0 0 10.631 1.45 24.37 24.37 0 0 1-14.709 4.92z"/></g></g></svg>