<svg fill="none" viewBox="0 -0.01 216.01 78.56" xmlns="http://www.w3.org/2000/svg"><clipPath id="a"><path d="M0 0h216v78.547H0z"/></clipPath><g clip-path="url(#a)"><path d="M202.825 23.366s-.097-.344-.448-.344h-88.485c-3.588-3.55-7.65-5.395-7.663-5.395h55.48s.351 0 .26-.345L157.263.338s-.097-.344-.448-.344H.273s-.351.006-.26.35L4.719 17.29s.097.344.448.344h8.534s.357 0 .448.345L28.813 70.78s.097.338.448.338h38.705s.357 0 .487.117c.137.117 8.586 7.319 21.696 7.319s21.345-7.202 21.475-7.319c0 0 .13-.117.48-.117h103.623s.358 0 .26-.338l-13.162-47.4z" fill="#fff"/><path d="M75.486 69.792c10.133 5.915 22.241 4.355 29.651 0h4.134c-11.609 8.502-27.214 7.546-37.867 0z" fill="#fd0"/><path d="M71.404 69.792C61.993 63.13 56.45 51.321 60.966 36.36h-8.723l8.69 32.016H31.347L16.398 14.494h-9.19L3.919 2.724h151.486l3.23 12.192H46.452l2.815 10.42h18.94c15.267-14.43 36.546-8.847 44.794.454h87.751l11.92 42.436H111.247a32 32 0 0 1-1.976 1.573h-4.134a20.5 20.5 0 0 0 2.743-1.918c-.644-2.313-1.255-4.647-1.898-7.013-4.095 3.803-12.226 8.105-23.736 3.003-10.081-5.154-16.938-20.246-3.62-32.472 5.01-4.198 12.257-5.739 17.886-4.036-.67-2.58-1.254-5.154-1.924-7.734-13.285-1.703-25.823 4.543-31.23 17.646-3.425 8.475-2.12 22.268 10.055 31.198q1.013.72 2.066 1.332h-4.081zm11.219-10.62l-.235 1.209c.085-.41.156-.806.234-1.209m-9.399-14.065c1.534 2.574 4.316 4.38 8.605 5.284l.501-1.729c-3.705-.74-6.298-2.203-7.52-4.465-.526.292-1.06.61-1.586.903zm24.737-14.11c2.061-4.147 5.044-6.455 8.469-7.84a29 29 0 0 0-.721-1.643c-3.874 1.514-7.156 4.146-9.418 8.767zm15.235-2.392c-7.858 3.535-12.173 7.786-14.487 16.658.585.162 1.17.344 1.729.507.195-.611.416-1.248.611-1.859 5.433 4.12 7.825 9.912 8.969 15.255.644-.104 1.144-.241 1.781-.319-1.644-7.624-4.985-13.233-10.198-16.71 1.17-3.133 2.867-5.525 5.07-7.442 7.104 5.394 10.588 12.81 11.03 21.923.611 0 1.228.026 1.839.026-.643-10.341-4.654-17.887-11.478-23.12 1.891-1.384 3.757-2.47 5.765-3.269-.169-.078-.306-.078-.475-.13.364-.506.728-.981 1.06-1.488-.195-.052-.39-.104-.559-.104q-.29 0-.67.078zM43.749 66.042h3.815c-.254-.877-.5-1.807-.754-2.736-1.112.637-2.256 1.118-3.51 1.222zm71.339-37.918c8.943 11.237 8.722 27.24-1.391 37.756h95.771l-10.614-37.756zm-91-23.067H7.09l1.976 7.097h9.19l14.988 53.888h7.969c-.17-.559-.332-1.17-.5-1.755-5.655-1.755-6.689-7.89-3.205-11.4zM42.721 53.1c-2.646 0-4.79 2.048-4.79 4.544s2.144 4.569 4.79 4.569 4.764-2.048 4.764-4.57c0-2.521-2.145-4.543-4.764-4.543M32.998 5.057l13.064 46.53c3.569 1.963 5.07 5.713 2.73 9.75a204 204 0 0 0 1.307 4.705h7.663l-8.664-32.043h12.869c1.17-2.418 2.509-4.517 4.069-6.298H47.343l-4.069-15.144h112.209l-2.002-7.494H32.998zm58.386 29.761c-.67-.026-1.255-.052-1.729-.026-.5 0-1 0-1.534-.104-.22-.13-.364-.455-.364-.93 0-.077-.11-.188-.22-.103-.45.344-.45.851-.28 1.144.195.318.526.533.916.637.11.026.221.052.332.052.195 0 .416 0 .838.026.364 0 .728 0 1.06-.026.409-.026.766-.026 1.065-.052l-.058-.397-.04-.214zm-48.162 15.97L30.463 5.057H26.59L39.628 51.45a8.9 8.9 0 0 1 3.594-.663" fill="#fd0"/><path d="M94.816 31.952c.22-.078.442-.189.67-.293.025-.026.168-.052.61-.052v-.13c0-.13-.052-.156-.136-.188-.085 0-.195-.026-.306-.026-.247 0-.474.026-.559.13-.136.156-.28.292-.39.422l.11.13zm-2.62.877c-.195-.37-.39-.715-.643-1.007-.11-.13-.416-.13-.5 0-.137.156-.196.48-.248.8v.162l.137.104h.169c.11-.104.136-.267.11-.449l.17-.078c.058.052.084.189.11.319v.136c-.026.078.058.13.169.13.169-.026.331-.078.533-.104zm-.643 3.133l-.078-.533c0-.123-.033-.26-.059-.396l-.032-.24c-.11-.137-.28-.267-.364-.397-.839-.163-1.586-.345-2.398-.533a.54.54 0 0 1-.306-.163 3.4 3.4 0 0 1-.721-1.007c-.137-.37.052-.585.5-.663a48 48 0 0 1 1.813-.215c.17-.026.28-.078.364-.162.865-.825 2.06-.981 3.315-.877.39.026 1.112.188 1.534.052 1.306-.078 1.67.48 1.476 1.358-.059.188-.026.396 0 .61.39 1.034.643 2.074.331 3.16-.39.903-.78 1.832-.448 2.444.415.929.669 1.858.39 2.71-.28 1.248-.976 2.71-.644 3.828.305.741.865 3.029 1.254 4.147.221.773.644 1.326 1.086 1.885.364.533.61 1.033.78 1.54-.221 0-.416.026-.644.026.416 2.366.696 5.74 1.339 6.298-.058.156-.084.345-.136.507 0 .156-.306.24-.416.422-.806 1.807-1.976 2.847-4.264 3.458v-.078c-.247-.63-.663-1.501-1.046-2.236.773-.474 1.495-.981 1.969-1.481-3.34-2.925-3.458-3.855-4.036-6.962 0-.13-.059-.188-.137-.188-.11 0-.22.026-.331.026.28 1.008.526 2.021.806 3.003-2.087 1.514-3.315 2.736-3.764 6.031-.169.611-.584.741-1.059.637-.754-.266-1.45-.396-2.034-.37-1.086-.13-2.145-.585-3.205-1.222.17-.825.306-1.618.475-2.444.305.104.643.24.864.215.306.052.416.104.56.24.11.078.194.189.526.156.169 0 .838.37 1.06.189-.612-4.518.669-6.22 3.925-8.424.11-.052.169-.026.305.052.137.13.254.267.39.397.28.104.306-.078.137-.24-1.144-.638-1.618-1.808-1.84-3.166-.026-.052.026-.156-.22-.052-4.823 1.618-5.714.981-8.885-1.677l.812-1.326q.31-.487.63-.975c1.073.605 1.625 1.242 1.983 1.872.11.163.195.136.305.052 1.476-.851 2.984-1.618 4.485-2.366-.026-.104-.058-.214-.058-.292-.332.188-.67.37-1.001.533-3.783-2.204-5.928-1.937-7.156-6.974l.104-.02c.67-.357 1.287-.663 1.975-1.02l.085-.046c.474.585.78 1.463 1 2.444-.058.078.06.215.111.24 1.73.456 3.426.904 5.129 1.3-.475.774-.806 1.437-.95 1.86-.11.558-.22 1.033-.22 1.221h.305c.5-2.736 1.17-3.718 3.926-4.94 0-.188-.026-.396-.026-.584q-.585.117-1.17 0a2.4 2.4 0 0 0-.695-.104c-.67-.215-.449-.826-.111-.767.559-.078.949 0 1.254.104.137.078.585.104 1.144.104z" fill="#000"/><path d="M73.224 45.1c.533-.292 1.06-.61 1.586-.903 1.228 2.262 3.815 3.718 7.52 4.465l-.5 1.73c-4.29-.904-7.079-2.711-8.606-5.285zm24.737-14.11l-1.67-.715c2.255-4.621 5.544-7.253 9.418-8.768.247.533.5 1.092.721 1.644-3.425 1.385-6.408 3.692-8.469 7.839m15.235-2.392q.38-.078.67-.078c.169 0 .364.052.559.104-.332.507-.696.982-1.06 1.489.169.052.306.052.475.13-2.009.799-3.874 1.884-5.765 3.269 6.824 5.232 10.835 12.778 11.478 23.119-.611 0-1.228-.026-1.839-.026-.449-9.113-3.926-16.529-11.03-21.923-2.204 1.91-3.9 4.302-5.07 7.442 5.206 3.477 8.554 9.086 10.198 16.71-.643.078-1.144.215-1.781.319-1.144-5.343-3.536-11.134-8.969-15.255-.195.611-.416 1.248-.611 1.859-.56-.163-1.144-.344-1.73-.507 2.315-8.872 6.63-13.13 14.488-16.658z" fill="#000"/><path d="M120.859 30.405l7.579 27.929c.669 2.632 1.976 4.68 5.512 4.647h6.766c1.897 0 3.067-.715 2.313-3.425-2.619-9.698-5.264-19.421-7.884-29.151h-4.01l7.826 28.429c.221.663 0 .955-.501.981h-2.203c-.449-.026-.722-.24-.839-.688-2.619-9.568-5.264-19.135-7.884-28.729h-6.688zm23.62 0h-6.799l8.97 32.576h4.094l-5.238-19.05 10.139 19.05h6.714l-8.917-32.576h-3.731l4.959 17.88-10.198-17.88zm43.904 0h-6.824l8.995 32.576h4.069l-5.239-19.05 10.166 19.05h6.688l-8.885-32.576h-3.731l4.959 17.88zm-32.426 0l9.028 32.576h5.154l-9.028-32.576zm9.164 3.588c1.619 8.079 4.349 16.847 6.799 24.874.916 2.95 2.704 4.276 4.485 4.12.195 0 .416 0 .611.026 2.281 0 4.51 0 6.74-.026 2.034.052 3.288-.74 3.457-2.658v-.93c-.026-.396-.11-.825-.195-1.273l-6.935-25.27c-.474-1.567-1.585-2.204-3.061-2.367a9 9 0 0 0-1.228-.078c-2.23-.026-4.628-.026-7.299 0-2.145.052-3.289 1.008-3.374 2.815zm-50.033-5.876h83.766l10.614 37.756h-95.771c10.113-10.523 10.334-26.518 1.391-37.756m61.928 11.693c1.755 6.402 3.483 12.726 5.264 19.16.085.482-.136.715-.695.767h-1.755c-1.033-.052-1.644-1.326-2.034-2.632-.254-.955-.501-1.937-.78-2.899-1.866-6.72-3.926-13.603-5.265-20.064-.052-.48.058-.715.585-.715.838 0 1.696-.026 2.509-.026.221 0 .448.026.474.267a826 826 0 0 1 1.703 6.135z" fill="#fff"/><g fill="#e30613"><path d="M24.087 5.057l13.429 47.83c-3.484 3.51-2.45 9.645 3.204 11.4.169.585.331 1.196.5 1.755h-7.968L18.264 12.154h-9.19L7.097 5.057z"/><path d="M42.722 53.101c2.619 0 4.764 2.048 4.764 4.544s-2.145 4.569-4.764 4.569-4.79-2.047-4.79-4.57c0-2.521 2.144-4.543 4.79-4.543"/><path d="M32.998 5.057h120.483l2.002 7.494H43.281l4.068 15.144h18.693c-1.56 1.78-2.899 3.88-4.069 6.298H49.104l8.664 32.043h-7.663c-.448-1.54-.89-3.107-1.306-4.706 2.34-4.036.838-7.787-2.73-9.75z"/><path d="M96.512 27.35c-5.629-1.703-12.87-.156-17.887 4.036-13.317 12.226-6.46 27.318 3.62 32.472 11.505 5.102 19.642.8 23.737-3.002.643 2.365 1.254 4.705 1.898 7.012-7.241 6.058-22.619 8.983-34.46.585-12.175-8.93-13.481-22.716-10.056-31.198 5.408-13.103 17.94-19.342 31.23-17.646.67 2.58 1.255 5.154 1.925 7.735z"/><path d="M91.5 35.43l-.077-.397c.026.136.058.273.078.396"/><path d="M91.39 34.818q.01.108.04.215l.058.396c-.3.026-.657.026-1.066.052-.331.026-.695.026-1.06.026-.415-.026-.643-.026-.838-.026-.11 0-.22-.026-.331-.052-.39-.104-.722-.318-.917-.637-.169-.292-.169-.8.28-1.144.11-.078.22.026.22.104 0 .481.144.8.365.93.526.104 1.033.104 1.533.104.475-.026 1.06 0 1.73.026zm-11.699 1.346c.69-.351 1.385-.683 2.087-1.034-.69.351-1.307.663-1.976 1.02l-.104.02z"/><path d="M81.83 34.896c.026.078.026.137.026.189-.722.37-1.45.715-2.171 1.066a10 10 0 0 1-.728-.423c-.137-.136 0-.292.169-.214.195.052.39.104.61.156h.111c-.136-.24-.474-.507-.754-.741l.085-.163c.22.104.474.215.721.319l-.416-.637.137-.104c.305.318.61.637.949.851a6.2 6.2 0 0 0-.39-1.222l.169-.078c.22.397.474.767.78 1.118a5 5 0 0 0-.585-.955c-.11-.24.195-.267.28-.215.389.267.669.637 1 1.06zm-.722 8.424c-.195.338-.403.663-.604.987z"/><path d="M80.504 44.308c-.273.435-.546.87-.813 1.325zm.623-.975c-.22.338-.422.656-.623.974zm.007-.013l-.637.987-.812 1.326c-.11-.078-.195-.156-.306-.24-.052-.052-.416-.24-.61-.37-.053-.079-.027-.163.084-.189.195-.026.39-.026.585-.052-.221-.104-.449-.24-.67-.344l.026-.189c.254 0 .5-.026.754-.026-.195-.162-.474-.292-.61-.455-.111-.188.084-.266.168-.214.28.026.56.078.806.052l-.533-.507.11-.13c.254.078.527.188.78.292-.11-.162-.22-.344-.33-.507l.11-.104c.526.293.89.507 1.085.663zm14.098 19.823a35 35 0 0 1-.63-1.3l-.358-.793c.377.702.747 1.502.981 2.093z"/><path d="M94.601 61.843c-.143-.305-.286-.624-.429-.936l.078.144.358.792z"/><path d="M94.172 60.888c.358.793.69 1.56 1.053 2.32-.273.15-.52.254-.747.358.136-.24.28-.481.39-.715-.28.188-.56.396-.839.61.195-.292.364-.584.533-.877-.331.052-.695.137-1.033.215.28-.267.559-.507.838-.774-.305.104-.585.24-.864.345.169-.267.364-.507.526-.741-.28 0-.585.026-.838.052.305-.267.643-.533.975-.8zm-11.783-.507l-.722.052.637-.5-1.027-.267 1.06-.403-.839-.474.949-.137-.812-.663 1.091.078-.669-.344.806.214zm38.47-29.976h6.688c2.62 9.593 5.265 19.16 7.884 28.728.111.448.39.663.839.689h2.203c.501-.026.722-.319.501-.982l-7.826-28.429h4.01c2.62 9.724 5.265 19.454 7.884 29.151.754 2.71-.416 3.425-2.313 3.425h-6.767c-3.535.026-4.848-2.021-5.511-4.647l-7.579-27.929zm23.62 0l10.198 17.887-4.96-17.887h3.738l8.911 32.582h-6.714l-10.14-19.056 5.239 19.056h-4.095l-8.969-32.582zm43.904 0l10.198 17.887-4.959-17.887h3.731l8.891 32.582h-6.688l-10.165-19.056 5.232 19.056h-4.062l-9.002-32.582zm-32.426 0h5.154l9.028 32.582h-5.154zm21.065 9.411a508 508 0 0 0-1.703-6.135c-.026-.24-.247-.267-.474-.267-.806 0-1.671.026-2.509.026-.527 0-.644.24-.585.715 1.339 6.454 3.399 13.337 5.265 20.064.279.956.526 1.937.78 2.9.39 1.3 1.001 2.58 2.034 2.632h1.755c.559-.052.78-.293.695-.767-1.781-6.428-3.509-12.753-5.264-19.161zM165.128 34v-.767c.084-1.807 1.228-2.762 3.373-2.814 2.672-.026 5.07-.026 7.299 0 .416 0 .839.026 1.229.078 1.475.156 2.593.8 3.061 2.366l6.935 25.27c.084.449.169.878.195 1.274v.93c-.169 1.91-1.423 2.71-3.458 2.658-2.229.026-4.459.026-6.74.026-.195-.026-.416-.026-.611-.026-1.781.162-3.568-1.17-4.485-4.121-2.45-8.027-5.18-16.795-6.798-24.874"/></g><path d="M94.816 31.952l-.11-.13c.11-.13.253-.267.39-.423.084-.104.305-.13.558-.13.11 0 .221.026.306.026.084.026.136.052.136.189v.13c-.448 0-.585.026-.61.052-.222.104-.443.214-.67.292zm-2.62.878c-.195.025-.364.077-.533.103-.11 0-.195-.052-.169-.13v-.136c-.026-.13-.058-.267-.11-.319l-.17.078c.027.189 0 .345-.11.449h-.169l-.136-.104v-.163c.052-.318.11-.637.247-.8.084-.13.39-.13.5 0 .254.293.449.638.644 1.008z" fill="#fff"/></g></svg>