<svg xmlns="http://www.w3.org/2000/svg" viewBox="1.3 1 139.1 139.2"><path fill="#624839" d="M1.3 70.5C1.3 32.1 32.4 1 70.8 1s69.6 31.1 69.6 69.6c0 38.4-31.1 69.6-69.6 69.6S1.3 108.9 1.3 70.5"/><path fill="#fff" d="M4.4 70.5c0-36.7 29.7-66.4 66.4-66.4s66.4 29.7 66.4 66.4-29.7 66.4-66.4 66.4c-36.7.1-66.4-29.7-66.4-66.4"/><path fill="#E30613" d="M29.8 70.5c0-22.7 18.4-41 41-41 22.7 0 41 18.4 41 41 0 22.7-18.4 41-41 41-22.6.1-41-18.3-41-41"/><path fill="#624839" d="M27.9 93.3h-3l-1.5-2.6-1.5 2.6H19l1.5 2.5-1.5 2.6h3l1.5 2.5 1.5-2.5h2.9l-1.5-2.6zm95 0h-3l-1.5-2.6-1.5 2.6H114l1.5 2.5-1.5 2.6h2.9l1.5 2.5 1.5-2.5h3l-1.5-2.6zM78.6 8.8l-4.4-.4-1.4 16.2 4.8.4.5-5.3c4.2.5 7.1-.6 7.5-4.8.3-4.2-2.8-5.8-7-6.1m2.1 5.6c-.1 1.2-1 1.8-2.3 1.6l.3-3.7h.4c1.1.1 1.7 1.1 1.6 2.1m16.7 18.1 3.9-16.3-5.3-2.6-11.2 12.7 4.5 2.2 1.3-1.7 2.9 1.5-.6 2zM92.7 24l2.3-3.1c.6-.8 1.2-1.7 1.8-2.5-.3 1-.7 1.9-1 2.9l-1.2 3.6zM25.8 61.5l-6.1-1 .6-3.5-3.8-.6-.6 3.4-2.3-.4.6-3.7-3.8-.6-1.5 8.4L25 66.3zm-8.9-21.9c-.6.6-1.1 1.3-1.5 2-1.1 2.1-2.5 7.6 4 10.9 5 2.5 8.9.8 10.7-2.8.5-1 .7-1.8.8-2.9L27 44.5c.2 1 .3 1.8-.2 2.8-1.1 2.2-3.5 1.6-5.2.7-1.6-.8-3.6-2.5-2.4-4.8.5-.9 1-1.2 1.9-1.6zm97.6 16.7 3.5-1.6-1.5-3.3 11.4-5.1-2-4.4-14.8 6.6zm2.6-27.3-7.5 7c-.3.3-.7.7-1.1.9s-.9.2-1.3-.3c-.5-.5-.4-.9-.2-1.4.2-.4.6-.8 1-1.1l7.5-7-3.3-3.5-7.8 7.3c-1.4 1.3-4 4.4-.2 8.5s7 1.8 8.5.4l7.8-7.3zm-56.4-2.9c1.4-.5 2.2-1.9 1.8-3.2-.5-1.4-2-2-3.5-1.4-1.3.5-2.1 1.9-1.7 3.2.5 1.2 2 1.9 3.4 1.4m-6.6 1.7-5.2-11.2 2.6-1.2-1.7-3.6-9.3 4.4 1.6 3.6 2.5-1.1 5.2 11.1zM38 37.5c1.2-.4 2.3-1 3.2-1.8 2.6-2.2 2.8-5.5.9-7.8-.8-.9-1.6-1.4-2.5-1.6s-1.9-.2-3.1 0c-.3 0-.7.1-1.1.1s-.7-.1-.9-.4c-.4-.5-.1-1.2.3-1.6.9-.7 1.7-1 2.8-1.2l-2.7-3.1c-1.1.3-2.3.8-3.2 1.6-3.2 2.7-2 6.2-.7 7.6.8.9 1.6 1.4 2.6 1.6s2 .1 3.2 0c.4 0 .7-.1 1 0 .3 0 .6.2.9.5.5.5.1 1.3-.4 1.7-.9.8-1.6 1-3 1.1zm78.4 28.8 16.2-2.2-.7-4.8-16.1 2.2zm-29.1 47.2c-4.7 1.6-4.4 6.6-3.3 10 1.2 3.4 4 7.5 8.7 5.9s4.4-6.6 3.3-10-4-7.5-8.7-5.9m1.3 3.5c1.4-.5 2.4 2.2 3 3.9s1.4 4.4 0 4.9-2.4-2.2-3-3.9-1.4-4.4 0-4.9m-39.8 12.2 6.4-15-5.3-2.3-2.4 3.1 1.7.8-4.9 11.5zm31.1 3.2-1.7-16.2-5.7.6-.6 3.8 1.9-.1 1.3 12.4zM63 119.2c1.6.3 1.4 1.7 1.2 2.4s-.6 1.9-2.1 1.6c-1.4-.3-1.5-1.5-1.3-2.2.2-.8.7-2.1 2.2-1.8m-6.2 12.2 4.7.9 2.4-2.4c1.7-1.9 4.1-4.7 4.7-7.2.7-3.2-.8-6.2-4.5-7-3.8-.8-6.7 1.1-7.4 4.5-.5 2.2.4 5.4 3.2 6 .7.1 1.2.1 1.7-.1z"/><g fill="#fff"><path d="M92.8 43.9h-3l-1.5-2.6-1.5 2.6h-2.9l1.4 2.6-1.4 2.5h2.9l1.5 2.6 1.5-2.6h2.9l-1.4-2.5zm-21 1.9c3.2.2 5.5 2.6 5.8 5.8H64.3c.2-3.2 2.6-5.6 5.8-5.8v-6.2h-4v-1.8h4v-5.3h1.8v5.3h4v1.8h-4v6.2zM46 53.4h15.1V56H46zm17.4 0h15.1V56H63.4zm17.3 0h15.2V56H80.7zM46 70.3h49.9V73H46zM46 85h13.4v2.7H46zm36.5 0h13.4v2.7H82.5zM47.8 58.1c1.3-.4 3.4-1 5-.1.8.5.3 1.2 0 1.9-.9.6-1.5.9-2.6.9-1 0-1.6-.2-2.4-.8-.3-.7-.8-1.6 0-1.9m7.1 2.2s-.5-1.5 0-2.1c.6-.7 1.5-.1 2.3-.1.6 0 .9.1 1.5 0 0 0 .4 1.5 0 2.3-.7 1.2-3.8-.1-3.8-.1m-6.3 1.6c-.5.6-.7.7-.8 1.7 0 1 .3 1.6 1 1.6h.6v-1.9c0-.7-.2-1.3-.8-1.4m16.7 0c-.1.6-.1 1.1-.1 1.7s0 1.4.6 1.4c1.1.1 1-1.6 1-2.4 0-.6-.8-.6-1.5-.7m-.7-3.3c0 .4.6 1 .9 1.3.6.5 1.1.4 1.8.4.4 0 .9-.1 1.4-.1.9 0 1.5-.7 1.5-1.6 0-.8-1.2-1.1-2-1.1h-1.9c-.8.1-1.7.1-1.7 1.1m7.1 1.6c.3.3.6.2 1 .2H74c.7 0 1.2.1 1.8-.4.5-.4.2-.8.2-1.5 0-.6-1.3-.9-2.2-.9-.8 0-1.4-.1-1.9.6-.5.6-.2 2-.2 2m-21 2.5c0 .5-.2 1.1-.2 1.6 0 .6 1.3.8 1.9.8 1 .1 1.6.1 2.6.1.8 0 1.5-.6 1.5-1.4 0-.6.1-1.1-.2-1.5-.5-.6-1.1-.6-1.9-.6-1.3-.2-3.3-.3-3.7 1m17.4 0c-.2.6-.1 1.1.3 1.7.6.8 1.2.8 2.5.8s3.2-.6 3-2.4c-.1-.5-1.2-.7-1.8-.9-.1 0-3.6-.7-4 .8m6.8.9c0 .7-.2 1.6.7 1.6.8 0 .9-.4.9-1.1 0-.6.7-2.2-.3-2.3-.4-.1-.7.1-1 .4-.4.4-.3.9-.3 1.4m7.1-4.5c0 1.3 1.1 1.9 3.2 1.8 1.2-.1 2.5.1 2.3-2.2 0-.2.2-.5 0-.6-1.5-1.1-1.6 0-2.7 0-1.1-.1-2.8-.1-2.8 1m7.6-.4v.9c0 .8.5 1.8 1.3 1.8.3 0 .8-.1 1.2-.1 1.2 0 1.9-1 1.9-2.2 0-.6-.8-1-1.4-1.2l-1.8.2-1 .1c-.2.1-.2.3-.2.5m-6.3 3.1c-.8.7-.9.9-.9 2 0 .2.1 1.1.1 1.2.2 0 .5.1.7.1.7 0 .9-.9.9-1.6s-.2-1.3-.8-1.7m1.9 1.7c0 .2.3.7.7 1.1.7.6 1.5.5 2.3.5.9 0 2.2-.4 2.2-1.7.1-1-1.9-1.5-2.8-1.5-.9-.1-2.6.3-2.4 1.6m4.3 3.7c0 1.1 1.2 1.6 2.4 1.6.5 0 .7-.4 1.2-.6.4-.2.8-.5.8-.9 0-.8-.8-1.2-1.6-1.2-1.2-.1-2.8-.1-2.8 1.1m-2.8 1.6c.7-.5 1.4-1.6.8-2.1-.4-.3-1.1 0-1.4 0-.5 0-.8-.3-1.4-.3-.8 0-1.7-.3-2.1.4-.2.3-.2.6-.2.7 0 .6 0 .9.3 1.4.6.7 1.5 0 2.4 0 .6.1 1.1.3 1.6-.1m-11.1 0c-.6.1-1 .2-1.5.2-.9 0-1.4-.2-2.1-.6-.2-.1-.2-.3-.2-.7 0-1 1.8-1.3 2.7-1.3s1.6.3 1.6 1.2c0 .5-.2.8-.5 1.2m-7.4-2.2h-1.5c-.7 0-2 0-2 .8 0 1 .9 1 1.9 1h1.9c.9 0 1.7-.2 1.7-1.1 0-.4-.5-.7-.9-.7-.6.1-.7 0-1.1 0M57.1 69H55c0-.3-.6-.5-.6-.8s.3-.6.5-.9c1-1.1 2.4.1 3.8.1v.8c0 .3-.4.5-.6.6-.5.2-.4.2-1 .2m-5.2-.2c-1.7 0-1.9.2-3.5 0 0-.1-.5-.8-.5-1.1 0-1 .6-1 1.6-1 1.2 0 3.3-.7 3.3.6-.1.6-.4 1.5-.9 1.5m-4.2 7.1c.1 1.2 1.7.7 2.9.7.9 0 1.5.3 2.4 0 .7-.2.8-.9.8-1.6 0-.3-.6-.5-.9-.6-1-.1-1.2.1-2.1-.4-.9-.6-3.2.4-3.1 1.9m8.3-1.5c-.8.6 0 2.1 1.1 2.1h4.7c.9 0 1.9-.4 1.8-1.6-.1-.7-1.1-.6-1.8-.6-1.2 0-1.9.1-3.1.1h-1.2c-.7 0-1.1-.4-1.5 0m-8.3 3.9c-.7.4.1 1.3.1 2 0 .8.6.7 1 .7.6 0 1.2-.3 1.2-.9 0-1-.4-2-1.5-2-.2 0-.5 0-.8.2m11 1.1c0 .6.5 1 1.1 1 .9 0 1.5-1 1.6-2.1-.5-.5-1.3-.1-2.1-.1-.5.1-.6.7-.6 1.2m-3.8 3.4c0 .6.5.9 1.1.9.8 0 1.8.3 2.5-.3.4-.3.4-.8.4-1.4 0-.2 0-.3-.3-.4-.1 0-.8-.1-.9-.1-1.4-.1-2.8-.2-2.8 1.3m-.8-5c-.6 0-.8.4-1.4.4-.7 0-1.8-.2-1.7 1s.8 1.8 2.8 1.8c1.7 0 3-.6 3-2 0-1.1-1.6-1.3-2.7-1.2m23.6-3.4c1.4-1.4 5.2 0 8.6 0 .6 0 1.4.7 1.4 1.3 0 .8-1.3.9-2.1.9h-6.1c-1.2 0-2.1-.3-1.8-1.9.1-.1-.1-.2 0-.3m11.9 0v1.3c0 .5-.3.9.9.8h2.7c.7 0 .8-1 .8-1.7 0-.3-.4-.4-.7-.4-.6-.1-.9-.2-1.6-.2-.8 0-1.3.2-2.1.2m-8.7 4.4c.2 1.2 1.1 2.1 2.3 2.1 1 0 1.3-1.2 1.6-2.1 0 0-1.1-.8-1.9-.8s-2 .8-2 .8m5.4-.6c-.4.3-.5.6-.5 1.1s0 1.1.4 1.6c.8 1 1.9 0 3.2 0 .9 0 1.3-.8 1.2-2.1-.1-.7-1.1-.6-1.8-.6h-1.1c.1 0-.9-.3-1.4 0m6.1.7v1.2c0 .5.7.8 1.3.8h.5s.7-1.1.4-1.8c-.2-.5-.8-.9-1-.9-.6 0-.9.4-1.2.7m1.5 3.1h-2.3c-1 0-2.4-.1-2.4.8 0 .4.4.8.8 1s.4.3.9.3c.6 0 1.3.1 1.8-.1.4-.1.9-.2 1.2-.5s.1-1 0-1.5m-4.3 7.1c-.5.5 0 1.4.4 1.9s1 .2 1.6.2c.4 0 .7.1 1.1.1 1.3 0 1.2-1.2 1.2-2.1 0-.2-3.2-1.1-4.3-.1m-4.8 2.1c-.7 0-1.1-.1-1.5-.6-.2-.3-.5-.9-.5-1.2V89c.1 0 .2-.1.3-.1.9 0 1.3-.1 2.2-.1.6 0 1.2.3 1.8.3.3 0 .8.5.8.8 0 1.5-1.4 1.4-3.1 1.3m-1.5 1.1c-.4.6-.7 1.1-.7 1.8 0 .5-.2 1 1.4.8.4-.1 1 .2 1-.7 0-.8-.7-2-1.7-1.9m2.6 1.4c0 .7.2 1.4 1.4 1.3H89s.9 0 1.4-.2c.4-.2.9-.5.9-1s-.5-.7-.8-1.1c-.3-.5-1.7-.6-2.6-.6-1 .1-2 .7-2 1.6m6.7-1.3s-.8 1.2-.5 1.9c.2.4.9.7 1.1.7.5 0 1-.3 1-.7.1-1.7-.6-2.1-1.6-1.9m-9.9 4.8v.3c0 .5-.1.8.1 1.2.5.9 1.6.6 2.6.6.9 0 2.2.3 2.2-.6 0-.6.1-1.1-.2-1.6-.4-.6-1.2-.3-1.9-.4-1.7-.2-1.8.1-2.8.5m6.9-.5c-.1.7-.5 1-.5 1.7s.7 1.1 1.7.9c.7-.1 1.2.2 1.8-.2.7-.6.8-1.3 1-2.2-.3-.1-.7-.3-1-.3s-.5.1-.8.1c-.9 0-1.3-.1-2.2 0m-2.1 3.9c-.9.4-1.6.6-1.6 1.5 0 .7.9.6 1.6.6 1.1 0 2.5-.6 2.2-1.8-.1-.4-.5-.5-.9-.5-.6 0-.8.1-1.3.2m-4.9 1.3c0 .9 0 2 1.1 2 .7.1 1.1-.9 1.1-1.7 0-.4-.2-.6-.2-1-.3-.4-.7-1-1.2-.7s-.8.8-.8 1.4m-29.8-1.4c-.8 0-1.8.1-1.8.9 0 1.1 1.2 1.5 2.9 1.3.6 0 1.5.3 1.5-.5.1-1.2-1.5-1.7-2.6-1.7m4.2-4.4c-.4.3-1.5.5-2 .6s-.7.5-.7 1.1v1.4c.4.4.9.2 1.4.2s.9.1 1.5.1 1.1-.3 1.2-.9c.4-1.2 0-2-1.4-2.5m-7.6 3.2c-.5 0-1.1.2-1.3-.3-.3-.6-.2-1.1-.2-1.8v-.5h4.2c.5 0 1.1.4 1.1.9 0 .9-.6 1.8-1.6 1.8-.8 0-1.4-.1-2.2-.1m3.2-6.9c-.6 0-1 .8-1 1.4 0 .5-.3 1 .1 1.3 1.7 1.3 6.5.1 6.5.1.2-.5.4-1 .4-1.6 0-1.1-1.4-1.2-2.5-1.2zm-4.9 2.7c0-.6-.5-1.2-.5-1.8 0-.5.7-.8 1.2-.9 1.5-.2 2 2 1.1 2.7-.6.4-1.8 0-1.8 0m2.2-3.8c-1.4 0-2.1-.6-2.1-1.7 0-.6.4-1.1 1.4-1s1.6 0 2.6 0c.7 0 1 .9 1 1.6-.1 1-1 1.1-2.9 1.1m7.5-2.8h-1c-1.3 0-2 0-2 .8 0 .4 0 .9.3 1.3.8 0 1.1.7 1.9.7.7 0 1.7-.4 1.6-1.6 0-.6-.3-1.2-.8-1.2m.1 11.9c-.6.1-.5 1.1-.6 1.7 0 1.3-.1 1.7.6 1.7.3 0 .9-.2.9-.8s.3-.8.3-1.4c.1-.5-.4-1.1-1.2-1.2m35.9-35.8h-1.1c-.5 0-.6-.7-.6-1.2 0-.4-.2-.7 0-1 .4-.8 2.4 0 2.4 0v1c-.1.4-.5.9-.7 1.2M58 43.9h-3l-1.5-2.6-1.4 2.6h-3l1.5 2.6-1.5 2.5h3l1.5 2.6 1.5-2.6H58l-1.5-2.5zm7.6 40.8v21.8c1.3.7 2.6.9 4.5.9V79.8c-2.5 0-4.5 2.2-4.5 4.9m10.7 0c0-2.8-1.9-5-4.4-5v27.6c1.6 0 3.1-.1 4.4-.9z"/><path d="M63.8 105.7v-21c0-3.8 3.1-6.8 7.1-6.8s7.1 3 7.1 6.8v21c.8-.2 1.5-.5 2.2-1V84.5c0-5-4-8.9-9.3-8.9-5.2 0-9.3 3.9-9.3 8.9v20.2c.8.5 1.5.8 2.2 1M57.4 64c0 .2.3.7.3.9 0 .1.4 0 .5 0 .3 0 .6-.3.6-.6 0-.7.6-1.4.2-2.4-.2-.5-1-.3-1.5 0-.2.7-.1 1.4-.1 2.1M47.2 83.4c0 .6 1.6.5 2.3.5 1.2.1 1-.3 2.3-.3.3 0 1.5.1 1.5-.3 0-.9-.6-1.3-2-1.4-2.9 0-3.5.4-4.1 1.5m40.8-.7c-.5-.9-1.4-.7-2.3-.7-.5 0-1.1.1-1.6.1s-1 .3-1 .7.3.6.7.8c.4.3 4.1.1 4.2-.9"/></g></svg>