<svg xmlns="http://www.w3.org/2000/svg" width="181.064" height="252"><defs><clipPath id="a"><path d="M0 566.93h566.93V0H0z"/></clipPath></defs><g clip-path="url(#a)" transform="matrix(.48164 0 0 -.48164 -40.845 259.604)"><path d="M272.77 41.062C228.456 55.883 194.604 76 169.342 102.513c-23.861 25.04-40.099 55.963-49.645 94.532-18.817 76.037-9.883 173.892 3.066 284.655 29.809 16.335 87.914 33.187 150.007 33.187s120.198-16.852 150.007-33.187c12.95-110.763 21.884-208.618 3.067-284.655-9.546-38.569-25.784-69.492-49.644-94.532C350.937 76 317.086 55.883 272.77 41.062" fill="#fff"/><path d="M272.77 522.757c-62.689 0-125.378-17.312-157.36-36.185C87.861 251.952 81.564 95.345 272.77 32.77c191.207 62.575 184.91 219.182 157.361 453.802-31.982 18.873-94.671 36.185-157.361 36.185m0-15.742c58.345 0 112.871-15.101 142.668-30.334 12.599-108.296 21.036-203.916 2.766-277.745-9.209-37.206-24.811-66.971-47.704-90.994-23.881-25.064-55.888-44.255-97.73-58.572-41.84 14.317-73.848 33.508-97.73 58.572-22.891 24.023-38.495 53.788-47.702 90.994-18.271 73.829-9.832 169.449 2.765 277.745 29.796 15.233 84.323 30.334 142.667 30.334" fill="#231f20"/><path d="M383.103 282.48c2.755 29.516-27.746 38.371-27.746 38.371 12.397-11.413 5.313-41.717 3.542-46.636s-4.525-13.184 0-16.333c3.613-2.511 21.449-4.919 24.204 24.598m-22.63-55.295c-2.755-8.854-11.412-21.055-11.412-21.055 16.135 1.771 21.644 6.887 26.761 15.743 5.116 8.854 7.456 40.732 7.456 40.732-13.009-7.674-20.05-26.565-22.805-35.42m-15.152 11.611c-5.116-16.529-1.181-32.665-1.181-32.665s16.726 26.762 16.726 37.977c0 11.217-10.429 11.217-15.545-5.312m-17.119-48.801c14.562 16.529 6.297 30.697 6.297 30.697-2.755-5.903-12.987-15.546-24.204-28.828-11.216-13.282.787-28.827.787-28.827s2.558 10.429 17.12 26.958m-1.772-14.168c-10.232-21.842 16.265-38.568 16.265-38.568-5.184 28.336 12.661 61.59 12.661 61.59-4.722-.589-18.694-1.18-28.926-23.022" fill="#231f20"/><path d="M369.317 125.256c-16.146 44.472 3.553 82.449 3.553 82.449-51.752-59.82-3.553-82.449-3.553-82.449M259.845 276.38s4.895.782 12.926.787c8.032-.005 12.927-.787 12.927-.787v-84.516c-2.476-2.38-12.288-8.332-12.927-8.719-.639.387-10.451 6.339-12.926 8.719zm-20.334-66.247c-9.707 8.134-16.66 19.71-16.66 19.71v35.517c6.429 4.067 16.66 7.084 16.66 7.084zm66.522 62.311s10.23-3.017 16.66-7.084v-35.517s-6.954-11.576-16.66-19.71zm-33.262-97.564l.061-.036v.072c53.824 30.704 73.08 81.58 73.08 81.58-14.266 17.011-42.038 28.313-73.08 28.342v.003l-.061-.001-.062.001v-.003c-31.04-.029-58.812-11.331-73.077-28.342 0 0 19.256-50.876 73.077-81.58v-.072z" fill="#231f20"/><path d="M284.91 151.887s14.823-19.021 17.317-38.175c0 0-19.811 9.971-17.317 38.175m-12.14-49.92c-.719 1.502-7.947 17.481 0 36.515 7.949-19.034.72-35.013 0-36.515m-29.455 11.745c2.493 19.154 17.317 38.175 17.317 38.175 2.493-28.204-17.317-38.175-17.317-38.175m72.096 39.487c-16.726 2.754-23.81 23.613-23.81 23.613-4.8-5.569-18.182-12.242-18.831-12.564-.648.322-14.03 6.995-18.829 12.564 0 0-7.084-20.859-23.809-23.613 0 0-12.397-23.614-38.372-30.108 0 0 14.497-25.581 48.276-21.252 0 0 8.564-14.704 32.673-14.755v-.003l.061.001.062-.001v.003c24.11.051 32.674 14.755 32.674 14.755 33.78-4.329 48.276 21.252 48.276 21.252-25.974 6.494-38.371 30.108-38.371 30.108M186.644 257.883c4.526 3.148 1.771 11.413 0 16.333s-8.855 35.223 3.542 46.636c0 0-30.5-8.855-27.746-38.371s20.591-27.11 24.204-24.598m9.839-51.753s-8.658 12.2-11.413 21.055-9.796 27.746-22.805 35.42c0 0 2.34-31.878 7.456-40.733s10.626-13.971 26.762-15.742m-11.807 37.978c0-11.216 16.726-37.978 16.726-37.978s3.936 16.136-1.181 32.666c-5.116 16.529-15.545 16.529-15.545 5.312m50.572-52.244c-11.216 13.282-21.449 22.925-24.204 28.828 0 0-8.264-14.168 6.297-30.697s17.12-26.958 17.12-26.958 12.002 15.545.787 28.827m-16.136-16.037c-10.232 21.842-24.204 22.433-28.926 23.022 0 0 17.845-33.254 12.661-61.59 0 0 26.497 16.726 16.265 38.568" fill="#231f20"/><path d="M172.673 207.705s19.699-37.978 3.553-82.449c0 0 48.199 22.629-3.553 82.449m28.53 160.085c-1.495-14.759-9.714-6.726-9.714-6.726 8.104-1.123 9.714 6.726 9.714 6.726m152.852-6.726s-8.22-8.033-9.714 6.726c0 0 1.61-7.849 9.714-6.726M179.56 348.008c2.091-.419 12.098 2.237 20.662.393 7.551-1.625 13.78-7.417 15.349-12.397l4.526.984s3.935-7.281 3.345-14.561l4.722.393s.591-10.035-2.754-13.774h4.722s.591-8.461-5.116-9.444-12.003 19.48-26.762 19.283c-14.758-.197-8.068-37.978-1.18-53.524 0 0 21.433 26.741 75.697 26.762 54.265-.021 75.699-26.762 75.699-26.762 6.887 15.546 13.577 53.327-1.181 53.524s-21.054-20.267-26.761-19.283c-5.706.983-5.117 9.444-5.117 9.444h4.723c-3.345 3.739-2.755 13.774-2.755 13.774l4.723-.393c-.59 7.28 3.346 14.561 3.346 14.561l4.525-.984c1.568 4.98 7.797 10.772 15.349 12.397 8.564 1.844 18.571-.812 20.661-.393 3.935.787 7.675-.984 7.675-.984.787 15.349-13.381 15.349-13.381 15.349-2.362 13.97-23.023 13.183-30.304 9.838s-16.136-1.18-16.136-1.18c.591-6.494 7.084-8.658 7.084-8.658-15.151.787-27.155-11.414-27.155-11.414 6.101.591 9.839-2.164 9.839-2.164-12.003-2.558-20.072-11.807-20.072-11.807 5.903.394 7.872-1.968 7.872-1.968-10.036-3.148-15.349-11.806-15.349-11.806 4.132.787 7.477-1.574 7.477-1.574-3.923-1.496-10.142-8.476-10.762-9.179-.619.703-6.838 7.683-10.761 9.179 0 0 3.345 2.361 7.477 1.574 0 0-5.313 8.658-15.349 11.806 0 0 1.968 2.362 7.872 1.968 0 0-8.069 9.249-20.071 11.807 0 0 3.738 2.755 9.838 2.164 0 0-12.003 12.201-27.155 11.414 0 0 6.494 2.164 7.084 8.658 0 0-8.855-2.165-16.135 1.18s-27.943 4.132-30.304-9.838c0 0-14.168 0-13.381-15.349 0 0 3.739 1.771 7.674.984m24.968 41.756h-18.111v41.994h-15.921l.198-41.994h-18.508v69.459h52.342zm104.091 17.116h-16.12v35.427h16.12zm-33.834-17.116h52.146v69.459h-52.146zm-42.779 32.546l1.828 19.838h10.497l1.658-19.838zm16.706-32.546h17.649l-8.296 69.459h-37.416l-9.155-69.459h17.514l1.313 14.249h17.2zm123.608 0h20.608l-17.51 35.739 16.258 33.72h-19.742l-11.165-25.356h-5.975v25.356h-18.492v-69.459h18.492v25.709h6.581zm-127.191 96.809h3.848v-16.939h-3.848zm18.366-5.551q0 1.1-.684 1.903-.68.802-1.862.801-1.18 0-1.886-.754-.707-.753-.707-1.973 0-1.15.695-1.903t1.852-.754 1.874.742.718 1.938m3.848-.048q0-1.506-.506-2.739a16 16 0 0 0-1.313-2.5l-3.937-6.101h-4.674l4.058 5.838.047.072a2.8 2.8 0 0 0-.564-.145 4 4 0 0 0-.585-.047q-1.083 0-2.049.394a5.2 5.2 0 0 0-1.7 1.125 5.5 5.5 0 0 0-1.175 1.747q-.437 1.016-.436 2.261 0 1.435.504 2.584a5.65 5.65 0 0 0 1.382 1.939 6 6 0 0 0 2.048 1.207 7.3 7.3 0 0 0 2.483.419q1.332 0 2.507-.419a5.9 5.9 0 0 0 2.036-1.207 5.8 5.8 0 0 0 1.37-1.916q.503-1.122.504-2.512m2.604-11.341v3.343l6.359 5.972q.6.597.969 1.219.367.62.367 1.384 0 .908-.552 1.47-.553.561-1.476.561-.966 0-1.578-.706-.61-.706-.725-1.855l-3.71.527q.137 1.291.679 2.302.54 1.01 1.372 1.72a5.8 5.8 0 0 0 1.901 1.084 6.9 6.9 0 0 0 2.27.374 7.7 7.7 0 0 0 2.188-.311 5.6 5.6 0 0 0 1.891-.958 4.8 4.8 0 0 0 1.325-1.627q.493-.981.493-2.297a5.5 5.5 0 0 0-.229-1.639 5.6 5.6 0 0 0-.633-1.352 8 8 0 0 0-.922-1.16 34 34 0 0 0-1.072-1.065l-3.78-3.493h6.661v-3.493zm23.294 5.598q0 1.148-.693 1.903-.695.753-1.851.753-1.16 0-1.876-.741-.717-.743-.718-1.938 0-1.102.694-1.891.695-.79 1.876-.79 1.156 0 1.864.743.704.741.704 1.961m3.849.096q-.001-1.436-.505-2.584a5.7 5.7 0 0 0-1.38-1.938 6.1 6.1 0 0 0-2.048-1.209 7.3 7.3 0 0 0-2.484-.418 7.3 7.3 0 0 0-2.496.418 6.1 6.1 0 0 0-2.036 1.209 5.7 5.7 0 0 0-1.381 1.914q-.504 1.124-.505 2.512.001 1.507.506 2.74.508 1.233 1.311 2.5l3.939 6.101h4.674l-4.012-5.79-.07-.12q.232.096.552.145.323.047.599.047 1.058 0 2.036-.395a5 5 0 0 0 1.7-1.124 5.6 5.6 0 0 0 1.163-1.748q.437-1.017.437-2.26m27.636-.006h-22.695v2.782h22.695zm-84.157 0h-22.695v2.782h22.695z" fill="#231f20"/><path d="M272.77 522.757c62.69 0 125.379-17.312 157.361-36.185l.003-.023 13.249 8.654-6.051 3.571c-17.599 10.385-42.82 19.879-71.019 26.735-30.721 7.468-63.065 11.416-93.543 11.416-30.477 0-62.822-3.948-93.542-11.416-28.199-6.856-53.421-16.35-71.019-26.735l-6.051-3.571-.001-.008 13.335-8.576c32.006 18.855 94.641 36.138 157.278 36.138" fill="#c7a985"/><path d="M115.41 486.573l.082.047-13.334 8.575-.819-6.969c-13.451-114.561-22.965-215.943-3.034-296.475 21.456-86.702 75.493-141.498 170.06-172.445l4.405-1.442v14.907C81.564 95.346 87.861 251.952 115.41 486.573" fill="#ad9059"/><path d="M444.203 488.226l-.819 6.978-13.249-8.655C457.681 251.942 463.972 95.344 272.77 32.771V17.864l4.407 1.442c94.566 30.947 148.604 85.743 170.06 172.445 19.931 80.533 10.417 181.914-3.034 296.475" fill="#996f32"/></g></svg>