<svg viewBox="35.95 186.96 713.45 713.45" xmlns="http://www.w3.org/2000/svg" xmlns:xlink="http://www.w3.org/1999/xlink"><linearGradient id="a" gradientUnits="userSpaceOnUse" spreadMethod="pad" x1="160.76" x2="428.26" y1="202.467" y2="665.789"><stop offset="0" stop-color="#0f2245"/><stop offset="1" stop-color="#2057af"/></linearGradient><g transform="matrix(1.33333 0 0 -1.33333 0 1122.52)"><path d="m562.054 434.127c0-147.759-119.783-267.544-267.544-267.544s-267.545 119.785-267.545 267.544c0 147.761 119.784 267.545 267.545 267.545s267.544-119.784 267.544-267.545" fill="url(#a)"/><path d="m493.87 434.127c0-110.099-89.259-199.357-199.36-199.357-110.103 0-199.359 89.258-199.359 199.357 0 110.103 89.256 199.358 199.359 199.358 110.101 0 199.36-89.255 199.36-199.358" fill="#fff"/><path d="m268.004 261.574-17.557 3.62.206.995q2.484-.51 3.885-.124 1.4.39 2.17 2.502l3.95 19.155q.258 1.25.086 1.94-.173.686-1.285.918-1.761.361-3.564-.186l.224 1.085 12.168 2.585.815-.168-5.515-26.743q-.201-.974-.069-1.73.133-.752.82-1.378.685-.626 1.819-.956 1.13-.33 2.051-.519zm6.579-.264q4.768.616 8.132 3.565 3.365 2.95 4.626 7.615-1.586-.431-2.397-.525a9 9 0 0 0 -1.612-.05q-3.635.207-5.808 3.18t-1.962 6.666q.246 4.304 3.312 7.311 3.067 3.006 7.323 2.763 4.873-.279 7.394-4.33t2.233-9.103q-.489-8.543-6.642-13.662-6.155-5.118-14.669-4.63zm14.223 19q.217 3.822-.243 6.923-.461 3.104-2.773 3.237-1.651.094-2.255-1.387-.606-1.479-.735-3.744l-.068-1.179a52 52 0 0 1 -.027-5.441q.216-2.001.896-3.366.679-1.365 2.331-1.457.8-.047 1.235.093.433.141.878.447.21 1.173.435 2.65.226 1.478.326 3.224m13.324-19.301 3.182 4.3q4.349 6.234 6.097 9.354 1.745 3.118 1.34 6.939-.266 2.45-1.853 4.045-1.589 1.595-3.974 1.34a5.5 5.5 0 0 1 -3.288-1.515q-1.372-1.306-1.826-3.243l-1.103-.118q.121 3.738 2.758 6.865 2.636 3.125 6.259 3.513 3.475.374 6.075-1.68 2.595-2.054 2.97-5.534.362-3.39-.946-5.812-1.306-2.422-4.55-6.671l-4.982-6.197 6.16.66q3.194.341 4.352 1.085 1.156.743 2.244 3.477l.919.098-.85-10.265-18.836-2.02zm29.945 20.703q3.243 2.543 3.903 3.99.655 1.446.102 3.417-.515 1.835-2.214 2.793-1.7.959-3.48.458-1.693-.474-2.743-1.827-1.05-1.35-1.733-3.31l-.95.224c.438 2.284 1.36 4.29 2.758 6.01q2.101 2.584 5.246 3.466 2.959.83 5.57-.058 2.605-.888 3.385-3.665a6.14 6.14 0 0 0 -.03-3.47q-.515-1.743-1.786-3.325 2.795-.738 4.618-2.264 1.82-1.527 2.574-4.212 1.418-5.054-1.559-9.497-2.973-4.444-8.114-5.887-2.687-.752-5-.377-2.316.378-2.977 2.738-.305 1.088.415 2.098a3.42 3.42 0 0 0 1.903 1.342q1.545.433 4.543-1.171 3-1.606 4.318-1.237 1.909.536 2.564 2.487.652 1.95.091 3.95-.981 3.501-4.016 4.98-3.034 1.478-7.162 1.546z" fill="#132a56"/><path d="m83.539 501.6-23.523 22.347.477 1.202 31.505.595q3.615.258 4.61.485.999.223 1.918 1.834l1.289-.51-6.03-15.208-1.289.511q.655 1.65.754 2.907.1 1.254-1.179 1.76-1.03.41-3.126.365a421 421 0 0 1 -3.938-.104l-4.179-10.537a118 118 0 0 1 2.531-2.586q1.329-1.317 2.604-1.823 1.722-.683 2.437.407.716 1.087.879 1.5.164.411.356.897l1.288-.512-3.78-9.534-1.29.51q.68 1.71-.247 3.036a17.5 17.5 0 0 1 -2.067 2.457m-.804 16.22-13.038-.268 9.43-8.831zm28.556 31.871 1.117-.653-9.09-15.557-1.118.653q1.366 2.337 1.016 3.812-.354 1.473-2.66 2.822l-23.248 13.583q-.293-.5-.53-.906-.238-.408-1.03-2.495-.792-2.09.512-5.038 1.305-2.95 3.81-4.412l-.698-1.198-9.095 5.315 15.43 26.406 9.095-5.314-.653-1.117q-4.037 1.933-7.24.823-3.2-1.11-5.453-4.963l23.248-13.585q2.396-1.402 3.81-.958 1.41.441 2.777 2.78m-9.88 42.702q2.625 3.285 6.622 4.234 3.995.948 7.292-1.685 3.872-3.094 3.405-7.523t-3.744-8.528l-2.882-3.61 7.473-5.969q2.085-1.665 3.523-1.537 1.439.126 3.077 2.178l1.011-.807-10.785-13.5-1.01.807q1.546 1.932 1.348 3.404-.196 1.47-2.241 3.104l-17.776 14.2q-2.003 1.6-3.087 1.374-1.083-.226-3.295-2.071l-1.011.807 9.421 11.794zm10.098-5.875.21-.168-1.01.807-2.34 1.87q-2.254 1.391-4.294 1.364-2.04-.029-3.657-2.052-.726-.91-1.016-1.693-.123-.578.259-1.155.381-.576.917-1.003l10.082-8.053q2.111 2.643 2.568 5.258.456 2.613-1.72 4.825m14.331 32.8q5.595 5.077 13.053 4.592 7.456-.488 12.553-6.104t4.71-13.114q-.387-7.5-5.942-12.541-5.557-5.044-12.94-4.56-7.38.48-12.443 6.06-5.062 5.576-4.786 13.117t5.795 12.55m.91-1.545q-3.797-3.446-1.817-8.195 1.979-4.747 6.262-9.467 4.425-4.875 9.343-7.454 4.917-2.579 8.907 1.042 3.91 3.549 1.824 8.34-2.09 4.79-6.55 9.707-4.212 4.64-9.136 7.109-4.924 2.466-8.833-1.082m36.271-10.685q1.98 1.188 2.351 2.815.37 1.626-.815 3.6l-11.852 19.727q-1.24 2.062-2.67 2.331-1.432.269-3.526-.99l-.667 1.11 11.156 6.702 20.923-15.283-3.661 25.653 10.947 6.578.647-1.077q-.867-.646-1.27-1.069-.4-.426-.8-1.154-.424-.986-.162-1.868.261-.881.99-2.094l11.46-19.076.594-.987q.296-.496 1.043-1.482.746-.987 1.88-.887 1.132.1 2.796 1.101l.667-1.109-14.494-8.708-.673 1.12q2.267 1.848 2.523 3.008.255 1.159-1.198 3.579l-12.38 20.604 4.757-32.499-1.188-.713-26.078 18.825 12.135-20.196q1.403-2.336 2.853-2.624 1.449-.29 3.771 1.106l.667-1.108-10.059-6.044zm40.935 23.949q2.284.813 2.87 2.16.588 1.347-.29 3.812l-7.634 21.433q-.86 2.414-1.884 2.799t-3.821 0l-.435 1.218 16.19 5.767.42-1.178-1.842-.931q-1.348-.759-1.457-2.013-.11-1.255.468-2.875l3.268-9.176 11.403 4.061-3.26 9.15q-.888 2.492-2.015 2.946-1.13.452-3.765-.21l-.435 1.218 16.278 5.798.434-1.218a5.8 5.8 0 0 1 -1.212-.599 55 55 0 0 1 -1.242-.83q-.675-.462-.724-1.73-.052-1.268.44-2.647l7.634-21.433q.861-2.415 2.22-3.096 1.363-.682 3.643.132l.434-1.219-16.277-5.798-.442 1.24q1.853.828 2.758 1.626.903.795.641 2.326l-.742 2.083-3.624 10.173-11.403-4.062 3.63-10.188q.902-2.535 2.196-3.193 1.293-.66 3.767.22l.434-1.217-16.19-5.768zm60.377 16.926.23-1.272-17.731-3.202-.23 1.273q2.664.48 3.557 1.706.89 1.226.415 3.856l-4.784 26.497-1.033-.186q-.464-.085-2.566-.839-2.102-.756-3.496-3.664-1.393-2.907-.876-5.764l-1.365-.246-1.871 10.366 30.098 5.434 1.871-10.366-1.273-.23q-1.155 4.326-4.08 6.037-2.923 1.713-7.316.92l4.784-26.498q.493-2.732 1.748-3.518 1.252-.785 3.918-.303m25.933 36.237q7.556.139 12.85-5.136 5.289-5.276 5.433-12.858.137-7.583-5.089-12.973-5.228-5.39-12.729-5.529-7.502-.138-12.741 5.085-5.24 5.223-5.38 12.754-.139 7.529 5.033 13.024t12.623 5.633m-.332-1.762q-5.125-.094-6.76-4.973-1.637-4.877-1.52-11.249.12-6.583 2.128-11.76 2.002-5.18 7.389-5.08 5.282.098 6.863 5.078 1.582 4.982 1.458 11.618-.113 6.267-2.197 11.366-2.082 5.097-7.361 5m52.453-25.776 1.281-.186-2.857-12.344-29.532 4.301.135.913 13.178 14.013-9.065 17.883.228 1.554 28.07-4.088-.244-9.364-1.097.16q-.625 4.093-2.533 6.135-1.907 2.043-5.962 2.634l-8.998 1.311 6.03-12.356-11.783-12.392 16.572-2.413q2.762-.403 3.984.507 1.223.907 2.593 3.732m17.408-11.87 21.935 23.907 1.21-.456 1.143-31.49q.322-3.61.564-4.601.243-.993 1.868-1.885l-.488-1.298-15.31 5.765.49 1.297q1.66-.626 2.918-.704 1.256-.077 1.74 1.21.39 1.038.312 3.132a420 420 0 0 1 -.175 3.936l-10.606 3.995q-1.25-1.226-2.543-2.577-1.293-1.349-1.778-2.635-.653-1.732.45-2.429 1.101-.697 1.515-.853l.902-.34-.488-1.297-9.598 3.615.488 1.296q1.718-.646 3.03.3 1.31.947 2.421 2.112m16.205 1.085-.497 13.031-8.666-9.58zm45.257 4.138q6.495-3.78 8.317-10.992 1.826-7.215-1.987-13.77-3.812-6.555-11.022-8.549-7.204-1.992-13.792 1.839-6.452 3.75-8.274 10.964-1.822 7.212 1.963 13.724a20 20 0 0 0 2.215 3.13q1.18 1.352 4.14 3.563 2.956 2.21 8.38 2.497 5.425.288 10.06-2.406m-1.358-20.154q3.252 5.593 4.095 10.764.84 5.17-3.847 7.897-4.646 2.702-8.57-.586-3.923-3.288-7.255-9.017-3.227-5.55-4.133-10.986-.909-5.436 3.74-8.138 4.554-2.649 8.596.843t7.374 9.223m-7.214-3.4q1.673 2.88-1.649 4.812l-1.138.663a15 15 0 0 1 -1.736.889q-.735.306-1.72-.236c-.658-.36-1.184-.887-1.586-1.576l-1.117.65 6.594 11.342 1.12-.65c-.398-.68-.608-1.39-.627-2.122q-.033-1.101.77-1.817l1.521-.946q2.822-1.64 4.045-1.42 1.226.22 2.118 1.753l1.118-.65-6.596-11.343zm7.986-15.989q1.85-1.57 3.309-1.402 1.46.167 3.153 2.161l14.72 17.349q1.658 1.954 1.478 3.032-.18 1.08-1.914 3.307l.836.986 13.104-11.12-.807-.953-1.73 1.127q-1.333.786-2.472.251-1.142-.533-2.254-1.844l-6.302-7.427 9.229-7.832 6.283 7.405q1.715 2.018 1.539 3.222-.173 1.204-2.068 3.152l.838.987 13.174-11.18-.836-.986a5.8 5.8 0 0 1 -1.127.748c-.401.205-.85.424-1.339.658q-.74.353-1.86-.239-1.125-.591-2.071-1.708l-14.721-17.348q-1.659-1.954-1.566-3.473.09-1.52 1.94-3.086l-.838-.986-13.175 11.18.85 1.003q1.647-1.189 2.791-1.57 1.14-.384 2.333.61l1.433 1.686 6.985 8.234-9.23 7.832-6.996-8.247q-1.74-2.05-1.663-3.501t2.08-3.148l-.837-.987-13.104 11.12zm36.93-34.227-.993-.827-7.21 8.666.995.827q1.633-1.965 3.039-2.018 1.403-.054 3.375 1.585l18.054 15.021q.669 3.611.67 4.224 0 .611-.492 1.694l.994.828 6.75-8.113-5.356-27.75 12.224 10.171q2.056 1.712 2.224 3.07c.11.905-.397 2.038-1.53 3.398l.996.827 7.267-8.737-1.006-.838-1.298 1.316q-1.214 1.046-2.493.701-1.284-.346-2.69-1.52l-22.683-18.872-.887 1.066 6.558 35.025-15.923-13.248q-2.052-1.706-2.174-3.071-.123-1.365 1.59-3.425m30.765-34.863 3.1-5.3q1.537-2.625 2.259-2.934.722-.307 2.971.583l.7-1.196-8.533-4.993-7.047 12.042 8.19 4.793q2.79-2.274 6.26-1.77 3.47.505 7.182 2.677 4.165 2.435 6.33 6.102 2.17 3.668-.08 7.51-2.222 3.8-6.495 3.729-4.274-.072-8.433-2.508-3.713-2.171-5.841-4.92-2.13-2.745-1.583-6.275l-8.19-4.793-7.047 12.042 8.534 4.994.699-1.196q-1.067-.748-1.616-1.404-.548-.658-.25-1.582l1.368-2.745 3.088-5.28 1.117.653q-1.908 5.445-.708 10.307 1.198 4.862 6.003 7.673 5.707 3.34 11.51.804 5.804-2.536 9.306-8.52 3.474-5.94 2.912-12.353-.562-6.414-6.268-9.753-4.756-2.782-9.62-1.427-4.87 1.358-8.687 5.702zm6.995-25.672-1.207-.46-4.012 10.535 1.209.46q.909-2.388 2.22-2.894 1.313-.507 3.708.405l21.95 8.357q1.801 3.2 2.002 3.778t.084 1.763l1.207.46 3.758-9.863-14.066-24.515 14.863 5.66q2.5.952 3.1 2.182.597 1.232-.347 3.71l1.21.461 4.044-10.621-1.225-.467-.802 1.666q-.808 1.384-2.13 1.47-1.325.088-3.038-.564l-27.576-10.5-.493 1.296 17.56 31.008-19.36-7.371q-2.494-.95-3.052-2.2-.56-1.253.393-3.756" fill="#122952"/><path d="m294.516 434.125 65.542-21.295 124.051 82.902z" fill="#183871"/><path d="m335.02 489.886 149.09 5.846-189.594-61.607zm76.668-217.043-117.172 161.282 65.542-21.295zm-117.178 360.642 40.51-143.599-40.504-55.761z" fill="#3460b2"/><path d="m411.688 272.843-117.172 161.282-.006-68.918zm-117.184 161.282-65.542-21.295-124.053 82.902z" fill="#122952"/><path d="m254 489.886-149.091 5.846 189.595-61.607z" fill="#335eae"/><path d="m177.33 272.843 117.174 161.282-65.542-21.295zm117.18 360.642-40.51-143.599 40.504-55.761z" fill="#173a75"/><path d="m177.33 272.843 117.174 161.282.006-68.918z" fill="#163a72"/><path d="m83.539 503.066-23.523 22.347.477 1.203 31.505.595q3.615.258 4.61.484.999.225 1.918 1.835l1.289-.511-6.03-15.207-1.289.511q.655 1.651.754 2.906.1 1.254-1.179 1.762-1.03.409-3.126.363a411 411 0 0 1 -3.938-.103l-4.179-10.538q1.205-1.27 2.531-2.585 1.329-1.317 2.604-1.823 1.722-.683 2.437.407.716 1.088.879 1.5t.356.896l1.288-.511-3.78-9.534-1.29.51q.68 1.709-.247 3.035a17.5 17.5 0 0 1 -2.067 2.458m-.804 16.22-13.038-.268 9.43-8.831zm28.556 31.871 1.117-.653-9.09-15.556-1.118.652q1.366 2.336 1.016 3.812-.354 1.473-2.66 2.821l-23.248 13.585q-.293-.499-.53-.906t-1.03-2.495q-.792-2.09.512-5.039t3.81-4.412l-.698-1.196-9.095 5.313 15.43 26.407 9.095-5.314-.653-1.117q-4.037 1.933-7.24.822-3.2-1.108-5.453-4.963l23.248-13.585q2.396-1.4 3.81-.958 1.41.442 2.777 2.782m-9.88 42.699q2.625 3.286 6.622 4.235 3.995.948 7.292-1.685 3.872-3.095 3.405-7.523-.468-4.43-3.744-8.529l-2.882-3.608 7.473-5.97q2.085-1.666 3.523-1.537 1.439.125 3.077 2.178l1.011-.808-10.785-13.5-1.01.807q1.546 1.934 1.348 3.404-.196 1.471-2.241 3.105l-17.776 14.2q-2.003 1.6-3.087 1.374-1.083-.226-3.295-2.071l-1.011.807 9.421 11.794zm10.098-5.874.21-.169-1.01.808-2.34 1.87q-2.254 1.391-4.294 1.364-2.04-.028-3.657-2.052-.726-.91-1.016-1.694-.123-.577.259-1.154.381-.576.917-1.003l10.082-8.053q2.111 2.643 2.568 5.258.456 2.613-1.72 4.825m14.331 32.8q5.595 5.077 13.053 4.592 7.456-.489 12.553-6.103 5.097-5.616 4.71-13.115t-5.942-12.542q-5.557-5.043-12.94-4.56-7.38.482-12.443 6.06-5.062 5.576-4.786 13.118.277 7.54 5.795 12.55m.91-1.546q-3.797-3.445-1.817-8.194 1.979-4.748 6.262-9.467 4.425-4.875 9.343-7.454 4.917-2.58 8.907 1.042 3.91 3.549 1.824 8.34-2.09 4.79-6.55 9.706-4.212 4.641-9.136 7.11-4.924 2.465-8.833-1.083m36.271-10.684q1.98 1.188 2.351 2.815.37 1.627-.815 3.6l-11.852 19.726q-1.24 2.062-2.67 2.332-1.432.268-3.526-.99l-.667 1.11 11.156 6.702 20.923-15.283-3.661 25.653 10.947 6.578.647-1.077q-.867-.644-1.27-1.07-.4-.425-.8-1.153-.424-.986-.162-1.869.261-.88.99-2.093l11.46-19.076.594-.987q.296-.495 1.043-1.482t1.88-.887q1.132.1 2.796 1.101l.667-1.109-14.494-8.708-.673 1.12q2.267 1.848 2.523 3.008.255 1.159-1.198 3.578l-12.38 20.605 4.757-32.5-1.188-.713-26.078 18.827 12.135-20.197q1.403-2.336 2.853-2.624 1.449-.29 3.771 1.106l.667-1.109-10.059-6.044zm40.935 23.949q2.284.813 2.87 2.16.588 1.347-.29 3.812l-7.634 21.433q-.86 2.414-1.884 2.799t-3.821 0l-.435 1.218 16.19 5.767.42-1.178-1.842-.931q-1.348-.759-1.457-2.014-.11-1.255.468-2.874l3.268-9.176 11.403 4.062-3.26 9.149q-.888 2.493-2.015 2.945-1.13.454-3.765-.21l-.435 1.22 16.278 5.797.434-1.218a5.8 5.8 0 0 1 -1.212-.599 57 57 0 0 1 -1.242-.83q-.675-.463-.724-1.729-.052-1.27.44-2.648l7.634-21.433q.861-2.415 2.22-3.096 1.363-.682 3.643.132l.434-1.22-16.277-5.798-.442 1.241q1.853.828 2.758 1.626.903.795.641 2.325l-.742 2.083-3.624 10.173-11.403-4.061 3.63-10.189q.902-2.533 2.196-3.193 1.293-.66 3.767.222l.434-1.219-16.19-5.767zm60.377 16.927.23-1.273-17.731-3.201-.23 1.273q2.664.479 3.557 1.705.89 1.227.415 3.856l-4.784 26.497-1.033-.186q-.464-.084-2.566-.839-2.102-.756-3.496-3.664-1.393-2.908-.876-5.764l-1.365-.246-1.871 10.366 30.098 5.434 1.871-10.365-1.273-.23q-1.155 4.324-4.08 6.036-2.923 1.712-7.316.92l4.784-26.498q.493-2.733 1.748-3.518 1.252-.785 3.918-.303m25.933 36.237q7.556.139 12.85-5.136 5.289-5.276 5.433-12.858.137-7.583-5.089-12.973-5.228-5.39-12.729-5.53-7.502-.137-12.741 5.085-5.24 5.223-5.38 12.754t5.033 13.025 12.623 5.633m-.332-1.762q-5.125-.095-6.76-4.973-1.637-4.876-1.52-11.249.12-6.582 2.128-11.761 2.002-5.18 7.389-5.08 5.282.099 6.863 5.079t1.458 11.618q-.113 6.266-2.197 11.365-2.082 5.099-7.361 5m52.453-25.776 1.281-.186-2.857-12.343-29.532 4.301.135.913 13.178 14.013-9.065 17.883.228 1.554 28.07-4.088-.244-9.364-1.097.16q-.625 4.093-2.533 6.135t-5.962 2.634l-8.998 1.31 6.03-12.356-11.783-12.39 16.572-2.414q2.762-.403 3.984.507 1.223.907 2.593 3.731m17.408-11.87 21.935 23.908 1.21-.456 1.143-31.49q.322-3.61.564-4.601.243-.993 1.868-1.886l-.488-1.296-15.31 5.764.49 1.298q1.66-.627 2.918-.705 1.256-.078 1.74 1.21.39 1.038.312 3.132a421 421 0 0 1 -.175 3.936l-10.606 3.994a118 118 0 0 1 -2.543-2.575q-1.293-1.351-1.778-2.636-.653-1.732.45-2.43 1.101-.696 1.515-.852l.902-.34-.488-1.297-9.598 3.614.488 1.298q1.718-.649 3.03.3 1.31.945 2.421 2.11m16.205 1.086-.497 13.031-8.666-9.582zm45.257 4.138q6.495-3.78 8.317-10.992 1.826-7.214-1.987-13.77-3.812-6.555-11.022-8.549-7.204-1.992-13.792 1.838-6.452 3.751-8.274 10.965-1.822 7.212 1.963 13.724a20 20 0 0 0 2.215 3.13q1.18 1.352 4.14 3.563 2.956 2.21 8.38 2.497 5.425.288 10.06-2.407m-1.358-20.153q3.252 5.593 4.095 10.764.84 5.17-3.847 7.897-4.646 2.702-8.57-.586-3.923-3.288-7.255-9.017-3.227-5.55-4.133-10.986-.909-5.436 3.74-8.138 4.554-2.649 8.596.843t7.374 9.223m-7.214-3.4q1.673 2.88-1.649 4.812l-1.138.662a15 15 0 0 1 -1.736.89q-.735.307-1.72-.236c-.658-.361-1.184-.888-1.586-1.576l-1.117.65 6.594 11.342 1.12-.65q-.598-1.022-.627-2.123-.033-1.101.77-1.817l1.521-.944q2.822-1.642 4.045-1.421 1.226.22 2.118 1.753l1.118-.65-6.596-11.343zm7.986-15.989q1.85-1.57 3.309-1.402 1.46.167 3.153 2.161l14.72 17.348q1.658 1.955 1.478 3.033-.18 1.08-1.914 3.307l.836.986 13.104-11.12-.807-.953-1.73 1.126q-1.333.788-2.472.253-1.142-.534-2.254-1.845l-6.302-7.428 9.229-7.831 6.283 7.405q1.715 2.018 1.539 3.222-.173 1.203-2.068 3.152l.838.986 13.174-11.179-.836-.987q-.524.443-1.127.749c-.401.205-.85.424-1.339.659q-.74.35-1.86-.24-1.125-.591-2.071-1.708l-14.721-17.348q-1.659-1.956-1.566-3.473.09-1.52 1.94-3.086l-.838-.987-13.175 11.18.85 1.004q1.647-1.188 2.791-1.57 1.14-.384 2.333.609l1.433 1.686 6.985 8.234-9.23 7.833-6.996-8.247q-1.74-2.05-1.663-3.5t2.08-3.15l-.837-.986-13.104 11.12zm36.93-34.227-.993-.828-7.21 8.666.995.827q1.633-1.964 3.039-2.018 1.403-.054 3.375 1.586l18.054 15.02q.669 3.613.67 4.225 0 .612-.492 1.694l.994.828 6.75-8.113-5.356-27.75 12.224 10.171q2.056 1.713 2.224 3.07c.11.905-.397 2.038-1.53 3.398l.996.827 7.267-8.736-1.006-.839-1.298 1.316q-1.214 1.046-2.493.7-1.284-.346-2.69-1.518l-22.683-18.872-.887 1.065 6.558 35.025-15.923-13.249q-2.052-1.706-2.174-3.07-.123-1.365 1.59-3.425m30.765-34.863 3.1-5.3q1.537-2.626 2.259-2.934.722-.307 2.971.583l.7-1.196-8.533-4.994-7.047 12.042 8.19 4.793q2.79-2.273 6.26-1.769t7.182 2.677q4.165 2.435 6.33 6.102 2.17 3.667-.08 7.51-2.222 3.8-6.495 3.728-4.274-.07-8.433-2.507-3.713-2.172-5.841-4.92-2.13-2.745-1.583-6.275l-8.19-4.793-7.047 12.043 8.534 4.993.699-1.196q-1.067-.747-1.616-1.405-.548-.657-.25-1.581l1.368-2.745 3.088-5.28 1.117.653q-1.908 5.445-.708 10.306 1.198 4.863 6.003 7.674 5.707 3.339 11.51.804 5.804-2.535 9.306-8.52 3.474-5.94 2.912-12.353-.562-6.414-6.268-9.754-4.756-2.782-9.62-1.426-4.87 1.358-8.687 5.701zm6.995-25.672-1.207-.46-4.012 10.535 1.209.46q.909-2.388 2.22-2.895 1.313-.506 3.708.406l21.95 8.357q1.801 3.198 2.002 3.778.2.578.084 1.763l1.207.46 3.758-9.863-14.066-24.514 14.863 5.658q2.5.953 3.1 2.183.597 1.231-.347 3.71l1.21.46 4.044-10.62-1.225-.467-.802 1.666q-.808 1.384-2.13 1.47-1.325.088-3.038-.564l-27.576-10.5-.493 1.296 17.56 31.007-19.36-7.37q-2.494-.95-3.052-2.2-.56-1.253.393-3.756" fill="#fff"/></g></svg>