<svg viewBox="98.32 121.98 595.1 911.03" xmlns="http://www.w3.org/2000/svg"><g transform="matrix(1.33333 0 0 -1.33333 -.667 1121.853)"><path d="m74.242 289.796c0-123.253 99.913-223.16 223.161-223.16s223.162 99.907 223.162 223.16v386.424h-446.323z" fill="#20367d"/><path d="m496.594 289.796c0-110.013-89.18-199.19-199.19-199.19s-199.19 89.177-199.19 199.19c0 110.017 89.18 199.191 199.19 199.191s199.19-89.174 199.19-199.19" fill="#fff"/><path d="m96.853 382.317v269.003h401.103v-269.096l-.716 1.572c-36.567 77.564-112.319 129.164-199.837 129.164-87.558 0-163.34-51.648-199.886-129.271z" fill="#fff"/><path d="m320.26 577.25-5.536-17.535s6.69-7.153 22.84-9.805c13.668-2.246 24.572.692 29.763 7.152 4.608 5.735 6.263 17.146 1.384 26.647-4.384 8.537-13.394 14.66-23.302 22.726-4.96 4.037-6.21 8.248-4.596 11.478 1.616 3.23 6.46 4.441 12.517 1.346 6.056-3.096 10.632-9.555 10.632-9.555l6.998 17.765s-6.287 5.498-12.516 8.151c-6.23 2.653-20.618 3.145-29.762-1.615-8.421-4.383-13.035-11.882-12.69-22.264.255-7.623 4.5-11.882 14.882-20.65 7.902-6.673 16.088-11.695 16.496-17.533.346-4.96-1.846-8.537-7.383-8.19-5.537.345-13.727 4.613-19.726 11.882m-22.858 172.655 9.126-18.238 20.164-3.042-14.523-14.316 3.337-20.115-18.104 9.387-18.103-9.387 3.337 20.115-14.524 14.316 20.164 3.042zm-78.003-9.303 6.05-12.091 13.37-2.017-9.63-9.492 2.213-13.336-12.003 6.223-12.003-6.223 2.213 13.336-9.629 9.492 13.369 2.017zm156.007 0-6.05-12.091-13.37-2.017 9.63-9.492-2.212-13.336 12.002 6.223 12.003-6.223-2.213 13.336 9.63 9.492-13.37 2.017zm106.413-450.806c0-101.853-82.566-184.414-184.417-184.414-101.85 0-184.415 82.56-184.415 184.414 0 101.857 82.565 184.417 184.415 184.417s184.416-82.56 184.416-184.417" fill="#20367d"/><path d="m115.427 438.245v37.547s30.14 18.977 66.348 25.437c0 0-41.467-25.84-66.348-62.984m363.953-0v37.547s-30.139 18.977-66.347 25.437c0 0 41.467-25.84 66.347-62.984" fill="#30a149"/><path d="m186.917 517.863 7.606-16.53 3.448 1.587-2.829 6.15 5.957 2.74-1.547 3.36-5.957-2.74-1.683 3.66 7.657 3.523-1.546 3.36zm23.179 10.223c-5.036-1.849-7.212-6.796-5.29-12.03 1.921-5.235 6.78-7.6 11.818-5.75 5.036 1.848 7.211 6.796 5.29 12.03-.946 2.576-2.683 4.559-4.893 5.581-2.106.975-4.565 1.036-6.925.17m-1.704-10.715c-.603 1.641-.594 3.215.025 4.552.566 1.222 1.594 2.135 2.972 2.64 1.38.506 2.755.474 3.978-.092 1.336-.62 2.36-1.813 2.96-3.452 1.155-3.146-.082-6.094-3.006-7.167-2.969-1.09-5.755.325-6.929 3.52m23.498 17.591c-5.185-1.378-7.807-6.104-6.375-11.493.704-2.653 2.252-4.787 4.357-6.009 2.008-1.164 4.452-1.45 6.88-.805 2.43.645 4.41 2.106 5.575 4.114 1.221 2.106 1.506 4.726.801 7.378-1.43 5.39-6.052 8.192-11.237 6.815m-2.684-10.512c-.449 1.688-.295 3.254.444 4.527.676 1.166 1.784 1.98 3.203 2.357s2.785.22 3.95-.457c1.274-.738 2.184-2.022 2.632-3.71.445-1.674.29-3.23-.446-4.499-.677-1.167-1.786-1.983-3.207-2.36-3.012-.8-5.716.902-6.576 4.142m15.309 13.244.658-3.64 5.33.965 2.581-14.266c.38.07 3.354.607 3.735.676l-2.58 14.265 5.33.964-.658 3.64zm30.251-4.032s.723.302 1.348 1.16a4.05 4.05 0 0 1 .763 2.878c-.121 1.156-.703 2.209-1.636 2.964-1.065.86-2.48 1.248-3.984 1.088l-7.375-.78 1.914-18.095 7.35.778c2.014.213 3.582.947 4.534 2.125.688.85 1.043 1.9 1.043 3.065q.001.312-.034.633c-.171 1.618-.999 2.869-2.283 3.527-.985.537-1.64.657-1.64.657m-6.767 4.481 2.77.293c.647.069 1.22-.082 1.657-.435.408-.33.666-.824.726-1.392.13-1.23-.642-2.147-1.923-2.282l-2.795-.296zm.733-6.943 3.2.339c.766.08 1.426-.082 1.908-.473.456-.368.735-.926.808-1.614.073-.686-.085-1.29-.456-1.75-.39-.48-1-.778-1.764-.858l-3.199-.339zm19.151 11.705-6.16-18.374 3.989.112.977 3.12 7.69.213 1.149-3.06 4.063.112-7.194 18.003zm2.326-3.944 2.834-7.402-5.22-.145zm12.707-14.087 11.732-.536.169 3.696-7.94.363s.642 14.038.661 14.48l-3.79.174zm15.441-.845 11.673-1.293.407 3.676-7.9.876 1.597 14.408-3.772.418zm24.795 12.859c-2.03-1.333-3.454-3.546-4.01-6.229-.57-2.754-.147-5.393 1.191-7.431 1.246-1.897 3.253-3.215 5.651-3.712 3.618-.75 7.051.701 9.052 3.757l-3.447 1.785c-.77-.978-2.357-2.355-5.061-1.795-2.832.587-4.336 3.288-3.656 6.57.694 3.35 3.103 5.196 5.995 4.598 1.817-.376 3.108-1.48 3.772-3.17l3.935.29c-.677 3.297-3.231 5.784-6.748 6.513-2.394.496-4.763.078-6.674-1.176m15.209-19.86 11.272-3.298 1.039 3.551c-.414.12-7.63 2.232-7.63 2.232l4.071 13.913-3.642 1.065zm17.795 3.093c-.527-1.395-.791-2.725-.791-3.95 0-1.06.197-2.04.593-2.917.749-1.657 2.208-2.934 4.218-3.693 2.006-.758 3.944-.762 5.605-.011 1.894.856 3.413 2.68 4.393 5.276l3.573 9.458-3.503 1.323-3.526-9.334c-.65-1.721-1.46-2.781-2.474-3.24-.776-.35-1.68-.335-2.685.046-1.556.586-2.328 1.63-2.328 3.162q0 1.139.57 2.645l3.525 9.333-3.598 1.36zm28.693-10.188s.833-.126 1.959.298c.76.288 1.528.953 2.028 2.007a4.3 4.3 0 0 1 .418 1.846c0 1.823-1.151 3.618-3.1 4.543l-6.7 3.18-7.803-16.438c.39-.184 6.678-3.17 6.678-3.17 4.08-1.935 6.686-.195 7.766 2.079.713 1.5.641 3.032-.158 4.278-.551.919-1.088 1.377-1.088 1.377m-2.593 2.373-2.54 1.205 1.774 3.736 2.516-1.195c.59-.28 1-.706 1.188-1.234.177-.495.139-1.052-.106-1.568-.53-1.117-1.668-1.496-2.832-.944m-5.784-5.632 2.025 4.265 2.905-1.378c1.383-.657 1.854-1.882 1.23-3.197-.296-.623-.746-1.057-1.301-1.255-.583-.208-1.26-.144-1.954.186z" fill="#20367d"/><path d="m296.408 230.313a1.836 1.836 0 0 1 -1.83-1.832v-77.76c0-1.007.823-1.83 1.83-1.83h1.99c1.007 0 1.831.823 1.831 1.83v77.76a1.836 1.836 0 0 1 -1.831 1.832z" fill="#30a149"/><path d="m246.336 550.201v37.565l19.515.942v15.477l-19.515-.672v16.688h25.436v15.88h-50.603v-89.413s6.137 1.027 11.905 1.857 13.262 1.676 13.262 1.676m194.88 16.592 4.304 26.625 4.284-29.207zm14.59-43.49c8.137-3.524 15.91-7.379 23.211-11.576l-21.654 124.355h-23.317l-22.333-97.648a346 346 0 0 0 23.754-7.25l2.922 18.113 14.335-4.99zm-50.392 16.762v96.02h-24.898v-90.645s6.872-1.262 12.55-2.499c5.678-1.236 12.348-2.876 12.348-2.876m-125.163 12.693v83.307h25.302v-83.03s-8.327.089-13.526.05c-6.914-.05-11.776-.327-11.776-.327m-71.733-8.428v91.755h-24.225v-97.332s6.496 1.706 11.642 2.902c4.996 1.16 12.583 2.674 12.583 2.674m-67.695 60.26 10.044 31.493h25.36l-16.967-42.26 17.326-57.198s-5.078-1.353-13.052-4.003c-6.8-2.26-11.879-4.206-11.879-4.206l-10.832 40.375v-44.715s-6.94-2.886-14.384-6.62c-7.443-3.735-10.648-5.728-10.648-5.728v124.355h25.032z" fill="#20367d"/><g fill="#fff"><path d="m260.94 163.895h3.984v-14.332h4.159v17.63h-8.143zm63.44-1.765-2.726 2.372s1.488 2.261 4.947 3.23c2.523.706 6.9.212 8.377-3.482.808-2.02.282-4.476-1.615-6.562-2.018-2.22-4.534-4.576-4.534-4.576h6.805v-3.55h-12.73v3.533s3.242 2.978 5.564 5.098 2.977 3.835 2.07 5.097c-.983 1.364-4.038 1.313-6.159-1.16m-43.859-8.48c1.707.878 2.26 3.304 2.26 3.304-1.33-.619-2.85-.982-4.329-.982-4.041 0-6.258 2.711-6.258 5.93 0 3.22 2.422 5.678 7.015 5.93 1.813.1 3.385-.296 4.794-1.413 2.676-2.12 4.492-7.721 1.565-13.122-1.047-1.933-3.293-3.762-7.469-4.088-3.886-.302-5.451 1.162-5.451 1.162l2.07 3.179c1.463-.858 4.037-.808 5.804.1m-1.23 10.801c-1.616 0-2.927-1.13-2.927-2.523s1.31-2.524 2.927-2.524 2.927 1.13 2.927 2.524-1.31 2.523-2.927 2.523m32.371-4.138v-2.776c3.482 0 5.002-.803 4.945-2.877-.05-1.867-2.422-1.918-4.087-1.766-1.666.151-4.34 1.766-4.34 1.766l-1.919-3.28s2.023-1.668 6.46-2.019c5.097-.404 7.037 1.59 7.924 3.886.858 2.22.05 5.905-3.936 6.813v.959l3.246 3.18v2.994h-12.225v-3.298h7.176zm69.638 123.047 41.679 41.8.32.303v44.951h-44.542l-.362-.013-78.247-78.463-.322-.356v-36.389l.017-.496 89.939 90.195c.71.713 1.876.714 2.59.004l.837-.836c.712-.71.715-1.876.003-2.59l-58.146-58.311-.444-.46h46.028l.649.66zm-81.503 104.383 28.425 28.506.196.179-31.013 31.102-31.007-31.095.531-.53 28.054-28.135-.002.443v28.685c0 1.007.824 1.831 1.831 1.831h1.182a1.837 1.837 0 0 0 1.832-1.831v-28.719z"/><path d="m380.46 277.261 42.347-42.467.493-.52v-43.73h-64.385l-.83.85-57.252 57.416.244.26 29.054 29.138.401.35 59.451-59.622a1.837 1.837 0 0 1 2.59-.004l.837.835c.714.71.715 1.876.004 2.59l-55.047 55.205-.362.292h41.889l.567-.593m6.299.546 36.99-37.098.224.257 36.763 36.87-.496.018h-72.828zm-179.116.047h-73.601l.198-.189 36.84-36.945.186.2 36.839 36.944zm92.191 65.676 50.379 50.523.26.255-18.663 18.717-.415-.456-31.566-31.654-.004-.373v-36.64zm.012-45.031 72.884 73.093.204.19-19.05 19.105-.177-.192-53.858-54.013-.024-.587v-37.043zm87.718-15.799h73.684l.522-.009-37.147 37.254-.538-.538-35.982-36.085zm-123.605-4.46-59.136-59.304a1.836 1.836 0 0 0 -2.59-.004l-.837.835a1.835 1.835 0 0 0 -.003 2.59l55.108 55.266.223.23h-41.445l-.356-.012-43.41-43.534-.006-.327v-43.437h64.398l.739.773 57.137 57.302.211.19-29.67 29.755z"/><path d="m259.888 283.012-58.293 58.459a1.837 1.837 0 0 0 .003 2.59l.838.835c.713.71 1.878.71 2.59-.004l89.961-90.22-.007.345v36.599l-.3.302-78.256 78.495-.436.001h-44.48v-44.345l.009-.598 42.635-42.757s.725-.015.792-.015h45.238zm-53.153-.312h-73.685l.257.264 36.882 36.987.388-.4 36.738-36.842zm87.929 16.095-72.384 72.595-.415.384 19.032 19.086.36-.322 53.372-53.524.352-.38v-38.154zm.333 44.709-50.313 50.458-.36.336 18.647 18.699.633-.62 31.38-31.47-.004-.466v-36.305z"/></g></g></svg>