<svg viewBox="0 -0.01 27 29.45" xmlns="http://www.w3.org/2000/svg"><clipPath id="a"><path d="M30.288 476.64h77.043v87.093H30.288z"/></clipPath><g clip-path="url(#a)" transform="matrix(.35278 0 0 -.35278 -10.76 198.826)"><path d="M107.05 522.11c0-21.139-17.136-38.275-38.275-38.275s-38.274 17.136-38.274 38.275 17.136 38.274 38.274 38.274 38.275-17.136 38.275-38.274" fill="#fff"/><path d="M105.06 522.17c0-19.994-16.208-36.202-36.202-36.202-19.995 0-36.203 16.208-36.203 36.202s16.208 36.202 36.203 36.202c19.994 0 36.202-16.208 36.202-36.202" fill="#182534"/><path d="M101.77 522.17c0-18.175-14.734-32.909-32.91-32.909s-32.909 14.734-32.909 32.909 14.734 32.909 32.909 32.909c18.176 0 32.91-14.734 32.91-32.909" fill="#fff"/><path d="M99.598 522.17c0-16.977-13.762-30.74-30.74-30.74s-30.74 13.763-30.74 30.74 13.763 30.74 30.74 30.74c16.978 0 30.74-13.763 30.74-30.74" fill="#cebc91"/><path d="M71.004 531.27h1.585c.888 0 1.539-.158 1.789-.434.135-.15.434-.662.279-2.166l-1.399-13.282c-.231-2.137-.988-2.823-3.115-2.823h-1.102zm33.558 16.312l-6.596 10.989-1.753-.572a48 48 0 0 1-2.657-.98l-5.551 6.594-1.524-.561c-.544-.2-13.478-5.046-25.954-17.575l-1.452-1.458-6.825-.074-1.142-9.894-.511-.78c-10.217-15.452-13.402-43.039-14.789-53.125h4.033c.026.153 3.653 17.611 14.672 33.028l-3.458-33.031h14.62l2.095 20.101h3.422c9.976 0 15.572 4.899 16.634 14.572l1.311 12.506c.56 5.526-.413 9.589-2.972 12.42-.11.122-.227.237-.342.354a103 103 0 0 0 15.954 6.597z" fill="#fff"/><g fill="#182534"><path d="M69.239 543.99c7.959 5.836 11.416 7.853 21.71 12.628l-3.54 4.332s-12.837-4.651-25.094-16.96zm-12.091-11.92h-4.486c-4.77-7.276-8.728-16.142-10.751-26.846 0 0 4.783 13.525 15.482 26.821zm26.505 9.53c5.287 2.851 10.975 5.266 17.548 7.366l-4.142 6.901s-10.403-3.232-22.726-11.879c4.007-.023 6.945-.916 9.32-2.388"/><path d="M56.406 527.82c-9.12-10.828-16.476-25.247-17.627-44.031 0 0 2.844 16.928 16.608 34.299z"/><path d="M75.689 515.21c-.349-3.233-2.01-4.893-5.418-4.893H66.6l2.448 23.335h3.67c3.409 0 4.72-1.748 4.371-5.157zm-1.807 26.627H54.409l-.896-8.19 5.594.005-5.353-51.127h9.963l2.096 20.101h5.507c9.351 0 13.46 4.544 14.332 12.498l1.312 12.498c.875 8.652-2.244 14.215-13.082 14.215"/></g></g></svg>