<svg viewBox="189.57 221.97 619.66 722.91" xmlns="http://www.w3.org/2000/svg"><path d="M809.17 286.99c-.01 117.53 0 235.05-.01 352.58 0 10.08-1.04 20.11-1.92 30.13-.61 6.86-1.74 13.69-2.98 20.48-1.44 7.84-3.39 15.58-5.34 23.31-1.53 6.02-3.29 11.97-5.16 17.87-1.84 5.82-4.09 11.52-6.29 17.22-3.41 8.83-7.38 17.42-11.65 25.86-5.07 10.04-10.64 19.81-16.87 29.17-4.42 6.64-8.95 13.2-13.84 19.53-10.47 13.52-21.75 26.29-34.25 37.94-8.51 7.94-17.38 15.48-26.75 22.4-8.33 6.15-16.92 11.88-25.76 17.28-9.53 5.81-19.37 10.98-29.44 15.73-9.18 4.34-18.62 8-28.19 11.4-7.16 2.54-14.4 4.84-21.74 6.72-4.95 1.27-9.88 2.67-14.92 3.68-7.34 1.49-14.75 2.62-22.12 3.91-.87.15-1.75.31-2.64.39-11.39 1.12-22.77 2.09-34.23 2.25-10.97.14-21.92-.05-32.83-.99-9.41-.82-18.79-2.05-28.11-3.73-7.87-1.43-15.6-3.36-23.37-5.19-4.12-.97-8.17-2.26-12.2-3.54-7.88-2.51-15.68-5.27-23.38-8.31-8.63-3.41-17.03-7.3-25.3-11.47-9.42-4.75-18.54-10.04-27.39-15.77-9.85-6.38-19.34-13.24-28.4-20.71-8.99-7.42-17.7-15.15-25.79-23.53-10.57-10.93-20.44-22.47-29.34-34.81-6.98-9.67-13.43-19.68-19.3-30.08-6.85-12.12-12.76-24.66-18.02-37.54-2.5-6.12-4.73-12.33-6.77-18.6-1.82-5.6-3.57-11.24-5.01-16.98s-2.93-11.47-4.03-17.26c-1.05-5.51-2.24-11.01-3.01-16.58-1.33-9.49-2.13-19.02-2.73-28.57-.41-6.3-.52-12.62-.52-18.95.03-114.66.02-229.32.01-343.98 0-7.46 1.58-14.43 5.68-20.8 5.12-7.94 12.22-13.04 21.35-15.24 5.64-1.36 11.37-2.43 17.06-3.64 6.36-1.34 12.75-2.58 19.12-3.77 6-1.12 11.97-2.5 18.02-3.38 5.85-.85 11.65-2.02 17.48-2.93 7.5-1.16 15.04-2.05 22.51-3.37 5.55-.97 11.14-1.52 16.69-2.38 6.23-.95 12.52-1.51 18.79-2.2 8.72-.96 17.45-1.95 26.18-2.8 2.2-.22 4.47-.79 6.69.05 13.31-1.84 26.74-2.28 40.12-3.34 9.65-.76 19.34-.76 29-1.28 29.9-1.6 59.81-1.38 89.72-.58 18.05.48 36.09 1.41 54.12 2.63 12.31.84 24.56 2.28 36.88 3.13 9.93.69 19.83 1.97 29.72 3.2 8.23 1.03 16.49 1.86 24.65 3.2 10.59 1.75 21.25 3.1 31.83 5 4.65.83 9.33 1.6 14.01 2.33 3.3.52 6.56 1.33 9.86 1.96 4.16.78 8.34 1.47 12.5 2.28 6.58 1.28 13.15 2.58 19.72 3.94 3.18.66 6.37 1.3 9.55 1.99 9.66 2.11 17.13 7.25 22.5 15.51.79-.07.93.61 1.19 1.09 3.03 5.66 4.71 11.66 4.71 18.12"/><path d="M796.61 468.78c0 52.54-.01 105.09.01 157.63 0 8.3.12 16.61-.47 24.88-.52 7.27-1.1 14.54-2.01 21.8-.92 7.36-2.4 14.61-3.7 21.88-.99 5.51-2.66 10.9-3.89 16.38-1.34 5.98-3.36 11.75-5.28 17.55-2.19 6.64-4.59 13.21-7.32 19.67-4.37 10.37-9.26 20.49-14.74 30.31-6.25 11.2-13.22 21.93-20.82 32.28-11.86 16.13-25.41 30.69-40.1 44.22-8.21 7.56-16.94 14.51-25.99 20.99-8.32 5.96-16.93 11.53-25.9 16.52-7.67 4.27-15.39 8.42-23.39 12.03-7.18 3.24-14.44 6.28-21.86 8.97-6.03 2.19-12.11 4.17-18.24 6.01-8.5 2.55-17.13 4.56-25.85 6.25-7.26 1.41-14.55 2.7-21.87 3.64-16.09 2.07-32.28 2.25-48.47 1.78-11.95-.34-23.8-1.66-35.58-3.71-6.81-1.18-13.61-2.35-20.31-4.01-6.21-1.54-12.41-3.09-18.51-5.07-6.56-2.13-13.13-4.21-19.56-6.7a303 303 0 0 1-31.48-14.29c-11.8-6.19-23.12-13.18-33.98-20.87-6.35-4.49-12.47-9.32-18.45-14.32-13.67-11.42-26.17-24.01-37.61-37.65a293 293 0 0 1-24.1-33.26c-4.85-7.79-9.31-15.8-13.45-23.98-5.13-10.12-9.61-20.52-13.49-31.19-2.49-6.86-4.7-13.8-6.68-20.83-1.87-6.64-3.58-13.33-5.14-20.05-.62-2.68-1.04-5.43-1.46-8.14-.78-5.07-1.74-10.11-2.32-15.22-.71-6.18-1.12-12.38-1.93-18.55-.14-1.07-.19-2.17-.21-3.25-.13-9.28-.35-18.56-.35-27.85-.02-110.32-.02-220.65-.01-330.97 0-1.88.03-3.75.08-5.63.25-10.67 8.44-19.92 19.48-21.72 5.82-.95 11.53-2.62 17.31-3.83 2.7-.57 5.42-1.06 8.13-1.59 8.8-1.72 17.62-3.42 26.46-4.89 10.4-1.73 20.76-3.7 31.22-5.11 7.72-1.04 15.41-2.22 23.14-3.21 12.03-1.54 24.05-3.16 36.11-4.41 11.97-1.24 23.97-2.13 35.96-3.23 8.56-.79 17.14-1.03 25.71-1.62 19.2-1.33 38.43-2.07 57.68-2.12 19.65-.06 39.3-.14 58.94.45 10.25.3 20.49 1.07 30.74 1.64 6.21.34 12.44.5 18.62 1.1 8.64.84 17.35.94 25.94 2.25.1.02.2.03.29.03 9.09.29 18.06 1.8 27.12 2.49 4.02.31 8 1.11 12 1.69.78.11 1.56.34 2.34.37 6.43.22 12.75 1.42 19.09 2.32 8.29 1.18 16.63 2.09 24.86 3.72 4.25.84 8.58 1.29 12.85 2.05 7.18 1.28 14.33 2.67 21.5 3.99 3 .56 6.02 1.04 9.03 1.58 10.78 1.92 21.43 4.42 32.13 6.7 9.63 2.05 17.08 10.31 17.69 20.08.11 1.77.11 3.55.11 5.33v178.67" fill="#feffff"/><path d="M784.35 583.32c0 .87.19 1.79-.4 2.58-1.4-.04-2.02-1.11-2.69-2.06-11.08-15.62-22.06-31.32-33.15-46.93-8.12-11.43-16.03-23-24.32-34.31-4.96-6.77-11.42-10.02-19.99-10.01-136.36.09-272.72.09-409.08.01-8.94 0-15.4 3.71-20.43 10.87-7.37 10.51-14.84 20.93-22.17 31.47-9.81 14.1-20.01 27.92-29.65 42.14-1.77 2.61-3.79 5.05-5.52 7.7-.49.75-1.08 1.42-2.04 1.59-.49-.29-.55-.79-.57-1.28q-.03-1.335-.03-2.67c0-98.07 0-196.15-.05-294.22 0-3.59.95-6.56 3.4-9.12 2.09-2.18 4.8-3.04 7.62-3.63 8.2-1.7 16.4-3.43 24.62-4.98 8.79-1.67 17.61-3.17 26.43-4.72 7.28-1.28 14.6-2.29 21.88-3.53 10.3-1.75 20.64-3.05 30.99-4.41 8.89-1.18 17.82-1.98 26.71-3.16 6.55-.86 13.14-1.15 19.69-2.01 5.05-.66 10.18-1.2 15.3-1.46 7.09-.35 14.17-.92 21.24-1.54 3.93-.35 7.88-.41 11.82-.61 5.81-.3 11.62-.64 17.43-.92 10.05-.49 20.13-.32 30.19-.69 17.27-.63 34.55-.47 51.81-.18 8.59.14 17.17.22 25.75.54 8.87.33 17.72.95 26.59 1.4 4.53.22 9.07.21 13.59.67 7.27.75 14.59.82 21.84 1.56 9.11.92 18.23 1.74 27.33 2.73 9.31 1.01 18.62 2.01 27.91 3.15 5.95.73 11.92 1.51 17.86 2.41 3.98.6 8.01 1.06 11.97 1.76 4.46.79 8.97 1.24 13.42 2.13 4.44.9 8.93 1.5 13.39 2.27 5.24.92 10.49 1.71 15.7 2.81 5.58 1.18 11.19 2.15 16.79 3.23 6.29 1.23 12.58 2.42 18.84 3.75 1.8.39 3.61.92 5.16 2.12 3.32 2.59 4.88 5.75 4.87 10.15-.09 95.31-.06 190.62-.06 285.92 0 3.16 0 6.32-.01 9.48" fill="#ffed00"/><path d="M214.92 586.35c4.43-6.38 8.84-12.78 13.3-19.14 5.26-7.49 10.57-14.95 15.86-22.42 5.28-7.47 10.57-14.94 15.84-22.42 5.05-7.16 9.92-14.45 15.16-21.46 4.57-6.11 10.82-9.15 18.6-9.15 63.98.05 127.95.03 191.93.03H703.6c2.95 0 5.82.11 8.75 1 4.77 1.46 8.51 4.27 11.34 8.11 5.43 7.37 10.4 15.09 15.83 22.46 3.1 4.2 6.12 8.46 9.1 12.73 4.49 6.45 9.17 12.78 13.5 19.36 3.73 5.67 7.95 11.01 11.91 16.53 2.52 3.52 4.95 7.09 7.4 10.66.78 1.14 1.52 2.3 2.53 3.25-.62 1.51-1.98 1.05-3.08 1.05-6.71.04-13.43.02-20.14.02-6.32 0-12.64.02-18.96 0-3.02-.01-3.22-.22-3.24-3.17-.03-5.23-.03-10.47 0-15.7 0-1.59-.12-3.16-.45-4.71-.5-2.31-2.09-3.81-4.43-4.12-1.46-.2-2.95-.31-4.42-.32-22.51-.02-45.02-.01-67.54-.01h-.89c-5.65.11-7.79 2.22-7.86 7.98-.07 5.23-.03 10.47-.02 15.7 0 4.61.17 4.36-4.36 4.36h-36.43c-.89 0-1.78-.01-2.66-.04-1.21-.04-1.78-.69-1.78-1.89 0-.69-.02-1.38-.02-2.07 0-5.73 0-11.46-.02-17.19 0-1.8-.16-3.52-1.59-4.91-.97-.93-1.97-1.61-3.34-1.67-1.38-.06-2.76-.26-4.13-.27-22.71-.02-45.42-.01-68.13 0-.89 0-1.78.03-2.66.14-3.81.47-6.07 2.87-6.12 6.69-.08 5.73-.03 11.46-.04 17.19q0 4.01-4.13 4.02h-36.14c-.59 0-1.19.02-1.78-.02-2.26-.14-2.52-.35-2.53-2.67-.04-6.12-.06-12.25 0-18.37.02-2.01-.62-3.65-1.98-5.08-.85-.89-1.82-1.51-3.07-1.61-1.38-.11-2.75-.28-4.13-.28-22.51-.02-45.02-.02-67.54 0-1.57 0-3.17.1-4.72.36-2.43.4-4.06 2.1-4.36 4.56-.2 1.66-.19 3.35-.19 5.02-.02 4.74 0 9.48 0 14.22q0 3.86-4.01 3.87h-37.62c-3.65 0-3.66-.01-3.67-3.54-.01-5.83 0-11.65 0-17.48 0-1.29-.07-2.54-.74-3.72-.98-1.74-2.25-2.98-4.37-3.07-1.18-.05-2.36-.22-3.54-.22-22.41-.01-44.83-.01-67.24 0-1.28 0-2.56.09-3.84.23-3.75.41-5.4 2.15-5.56 5.96-.1 2.27-.04 4.54-.04 6.81 0 3.95.02 7.9 0 11.85-.02 2.94-.22 3.16-3.25 3.17-7.5.03-15.01.01-22.51.01H218.4c-1.17 0-2.39.15-3.43-.61" fill="#119f39"/><path d="M499.15 653.29H219.82c-6.26 0-5.55.55-5.56-5.54-.02-14.62 0-29.24 0-43.85 0-.79 0-1.58.01-2.37.02-1.34.7-1.97 2.04-1.95.89.02 1.78-.01 2.67-.01h48.88c.79 0 1.58.03 2.37-.02 2.03-.11 2.23-.28 2.25-2.56.04-5.43.02-10.86.02-16.3 0-2.57-.04-5.14.02-7.7.05-1.94.33-2.17 2.26-2.29.59-.04 1.18-.01 1.78-.01h53.02c.59 0 1.19-.02 1.78.02 1.91.12 2.2.35 2.23 2.32.05 4.54.02 9.08.02 13.63 0 3.26-.02 6.52.01 9.78.03 2.99.16 3.12 3.25 3.13 6.71.02 13.43 0 20.14 0h41.77c.69 0 1.38.03 2.07-.01 1.83-.12 2.21-.44 2.25-2.33.07-3.36.03-6.72.03-10.07 0-4.44-.02-8.89 0-13.33.02-2.91.19-3.11 2.98-3.11 18.46-.02 36.93-.02 55.39 0 2.9 0 3.11.26 3.12 3.3.02 7.21 0 14.42 0 21.63 0 .79.02 1.58.05 2.37.04.94.57 1.45 1.49 1.51.79.05 1.58.05 2.37.05h62.8c3.04-.05 3.23-.19 3.25-3.17.04-7.11.02-14.22.02-21.33 0-.69-.03-1.38.01-2.07.12-1.91.38-2.17 2.28-2.28.69-.04 1.38-.02 2.07-.02h51.84c.69 0 1.38-.02 2.07.02 1.88.11 2.22.38 2.27 2.3.07 2.86.02 5.73.02 8.59 0 4.94-.01 9.88.01 14.82.01 2.91.2 3.14 2.93 3.14 21.33.02 42.66.01 63.98 0 2.84 0 2.96-.14 2.97-3.07.02-7.41 0-14.82.02-22.22 0-3.47.09-3.57 3.4-3.57h54.8c3.15 0 3.29.15 3.29 3.4.02 7.21 0 14.42.01 21.63 0 3.83.02 3.84 3.75 3.84h49.47c.79 0 1.58-.03 2.37.02 1.83.12 2.16.46 2.29 2.33.03.49.01.99.01 1.48v46.22c0 .59 0 1.18-.02 1.78-.04 1.18-.62 1.83-1.83 1.85-1.18.02-2.37.05-3.55.05H499.13"/><path d="M264.55 667.23c2.03-.05 3.34.24 4.68.67 7.32 2.34 14.67 4.58 22 6.87 3.2 1 6.37 2.08 9.56 3.07 4.98 1.56 9.99 3.06 14.97 4.62 5.07 1.59 10.13 3.25 15.2 4.85 3.2 1 6.4 1.99 9.62 2.9 3.53.99 6.84-.21 10.14-1.23 9.31-2.88 18.55-6.02 27.9-8.77 5.1-1.5 10.09-3.36 15.16-4.97 4.32-1.37 8.69-2.58 13.01-3.93 3.48-1.08 6.93-2.24 10.38-3.42 2.81-.96 5.54-.92 8.38.04 5.04 1.7 10.13 3.21 15.2 4.82 5.92 1.88 11.82 3.8 17.75 5.64 5.92 1.84 11.88 3.59 17.81 5.42 3.67 1.13 7.31 2.37 10.98 3.52 3.1.97 6.21 1.91 9.33 2.84 3.23.97 6.25-.14 9.26-1.07 9.5-2.93 19-5.86 28.49-8.83 4.89-1.53 9.74-3.18 14.63-4.72 4.6-1.44 9.24-2.77 13.84-4.21 3.48-1.09 6.95-2.22 10.38-3.43 2.72-.96 5.41-1.02 8.11-.1 7.37 2.51 14.83 4.7 22.27 7 6.77 2.1 13.49 4.37 20.25 6.51 7.32 2.32 14.66 4.58 21.99 6.87 1.22.38 2.46.74 3.64 1.22 4.51 1.85 8.86 1.01 13.28-.46 7.2-2.38 14.46-4.57 21.7-6.84 5.27-1.66 10.52-3.36 15.79-4.99 6.4-1.98 12.82-3.87 19.22-5.86 3.29-1.02 6.57-2.09 9.82-3.26 2.91-1.05 5.71-1.01 8.66-.06 7.31 2.36 14.68 4.56 22.01 6.86 5.17 1.62 10.31 3.31 15.47 4.97.47.15.92.35 1.4.49 3.05.87 3.37 1.15 2.69 4.34-1.51 7.13-3.18 14.23-4.81 21.33-.15.67-.5 1.29-.68 1.96-.39 1.41-1.35 1.57-2.53 1.2-3.96-1.22-7.9-2.47-11.86-3.67-7.53-2.3-15.07-4.59-22.61-6.84-3.28-.98-6.47-.2-9.6.75-5.55 1.69-11.07 3.49-16.62 5.21-4.89 1.51-9.8 2.98-14.7 4.46-6.98 2.1-13.97 4.18-20.95 6.28-4.81 1.45-9.66 2.78-14.41 4.4-3.72 1.27-7.24 1.23-10.99.02-8.34-2.69-16.81-4.95-25.14-7.69-7.21-2.37-14.51-4.43-21.73-6.75-7.03-2.25-14.12-4.33-21.19-6.47-2.81-.85-5.65-.85-8.46 0-5.65 1.72-11.3 3.47-16.95 5.18-5.94 1.8-11.88 3.57-17.82 5.37-3.87 1.17-7.72 2.4-11.59 3.56-4.62 1.39-9.25 2.73-13.87 4.12-3.49 1.05-6.98 2.09-10.45 3.22-2.16.7-4.26.63-6.4-.02-8.19-2.5-16.39-4.99-24.59-7.46-7.55-2.27-15.11-4.48-22.65-6.78-5.46-1.67-10.88-3.48-16.33-5.16-2.73-.84-5.48-1.6-8.25-2.29-3.29-.83-6.44-.08-9.58.93-5.62 1.81-11.28 3.52-16.93 5.25-6.12 1.87-12.26 3.7-18.38 5.58-5.37 1.64-10.73 3.33-16.09 4.98-5.18 1.59-10.38 3.1-15.54 4.75-2.83.91-5.6 1.02-8.42.07-11.02-3.71-22.33-6.48-33.35-10.22-6.05-2.06-12.33-3.44-18.42-5.41-5.91-1.91-11.86-3.66-17.78-5.5-3.21-1-6.38-1.03-9.6 0-5.44 1.73-10.9 3.4-16.35 5.07-5.55 1.7-11.11 3.41-16.68 5.06-1.75.52-2.2.14-2.73-1.63-2.17-7.17-3.33-14.59-5.25-21.82-.2-.75-.16-1.57-.28-2.35-.24-1.53.33-2.3 1.87-2.78 9.22-2.85 18.39-5.88 27.63-8.68 4.43-1.34 8.89-2.57 13.22-4.23 1.14-.44 2.33-.32 2.87-.36" fill="#1c3688"/><path d="M265.52 787.99c1.34-.07 2.75.22 4.19.7 5.49 1.83 11.06 3.43 16.63 5.04 7.65 2.21 15.15 4.93 22.82 7.08 9.1 2.55 18.07 5.53 27.14 8.18 3.76 1.1 7.42 2.13 11.27 1 5.01-1.47 9.95-3.14 14.94-4.67 4.7-1.44 9.44-2.78 14.14-4.21 3.48-1.06 6.93-2.24 10.42-3.3 4.99-1.51 9.96-3.09 14.98-4.48 5.1-1.42 10.12-3.15 15.16-4.8 2.52-.83 5.19-1.01 7.57-.19 8.75 3.02 17.71 5.33 26.52 8.12 9.2 2.91 18.54 5.37 27.71 8.36 5.23 1.7 10.56 3.08 15.75 4.92 2.96 1.05 6.02.99 9.02.07 9.02-2.77 17.98-5.76 27.06-8.34 7.01-1.99 13.92-4.27 20.9-6.34 7.36-2.18 14.77-4.19 22.02-6.75 2.41-.85 5.06-.7 7.57.08 8.74 2.71 17.47 5.46 26.23 8.13 10.35 3.16 20.73 6.24 31.08 9.4 4.05 1.23 8.05 2.62 12.1 3.86 3.41 1.05 6.77.79 10.16-.35 3.82-1.29 7.7-2.39 11.56-3.57 4.71-1.44 9.4-2.91 14.12-4.32 9.23-2.76 18.48-5.46 27.71-8.25 5.17-1.56 10.31-3.23 15.44-4.92 1.85-.61 3.71-.48 5.57-.38 1.64.08 2.09.89 1.24 2.41-1.05 1.88-2.32 3.65-3.59 5.41-2.6 3.59-5.2 7.18-7.91 10.68-4.04 5.22-8.12 10.41-12.64 15.23-.88.94-1.78 1.86-2.56 2.87-1.14 1.48-2.62 2.23-4.39 2.77-5.08 1.55-10.2 2.97-15.22 4.71-5.02 1.73-10.13 3.18-15.2 4.75-4.79 1.49-9.67 2.75-14.35 4.54-3.98 1.52-7.6 1.09-11.47-.27-6.22-2.18-12.56-4.04-18.84-6.04-5.34-1.7-10.67-3.44-16.02-5.1-4.41-1.37-8.86-2.61-13.28-3.98-3.38-1.05-6.72-2.24-10.09-3.32-3.75-1.2-7.49-2.42-11.27-3.49-1.61-.46-3.32-.37-4.97.15-6.55 2.09-13.15 4.05-19.67 6.24-4.1 1.37-8.27 2.54-12.41 3.82-5.54 1.7-11.11 3.28-16.58 5.18-4.27 1.48-8.68 2.58-13.01 3.91-2.91.9-5.85 1.77-8.66 2.92-3.73 1.52-7.3 1.06-10.9-.32-6.07-2.32-12.4-3.82-18.56-5.88-5.32-1.77-10.68-3.43-16.07-4.98-4.83-1.38-9.6-2.96-14.39-4.43-4.97-1.53-9.93-3.16-14.89-4.78-2.06-.67-4.13-1.32-6.23-1.87-2.08-.55-4.13-.09-6.11.56-6.26 2.07-12.56 3.99-18.84 5.98-5.81 1.84-11.6 3.74-17.48 5.39-6.81 1.91-13.49 4.27-20.23 6.43-4.97 1.59-9.92 3.24-14.91 4.76-1.83.56-3.7.37-5.53-.27-7.63-2.65-15.46-4.67-23.12-7.2-8.14-2.69-16.33-5.17-24.52-7.68-1.52-.47-2.91-1.23-3.97-2.48-5.16-6.09-10.48-12.03-15.29-18.43-3.26-4.33-6.41-8.73-9.62-13.09-.47-.63-.99-1.25-1.34-1.94-.38-.75-1.37-1.37-.86-2.37.56-1.08 1.7-.79 2.65-.86.39-.03.79 0 1.34 0" fill="#859dc3"/><path d="M759.46 749.05c-1.78 4.6-4.18 8.9-6.36 13.3-.74 1.48-1.72 1.62-3.15 1.15-3.18-1.04-6.43-1.88-9.59-2.97-4.57-1.57-8.98-1.49-13.57.14-5.28 1.88-10.71 3.33-16.08 4.96-6.4 1.94-12.78 3.99-19.23 5.76-5.7 1.56-11.21 3.68-16.95 5.1-5.25 1.3-10.36 3.13-15.54 4.72-2.62.81-5.23.72-7.85-.09-7.8-2.41-15.63-4.75-23.43-7.16-6.77-2.09-13.45-4.48-20.3-6.28-5.81-1.53-11.4-3.74-17.24-5.18-3.52-.87-6.86-2.39-10.48-3.01-2.42-.42-4.76-.14-7.01.53-7.46 2.23-14.85 4.68-22.29 6.94-5.92 1.8-11.91 3.39-17.83 5.19-3.76 1.14-7.47 2.45-11.26 3.54-6.43 1.85-12.77 3.99-19.21 5.81-3.16.9-6.23-.15-9.25-1.15-4.57-1.52-9.16-2.96-13.83-4.17-2.09-.54-4.16-1.2-6.21-1.89-6.44-2.18-12.98-4.01-19.51-5.86-5.21-1.48-10.3-3.37-15.51-4.85-4.91-1.39-9.66-3.35-14.75-4.12-2.23-.34-4.38-.11-6.43.5-7.16 2.14-14.26 4.51-21.4 6.72-4.32 1.34-8.69 2.52-13.03 3.8-2.36.69-4.75 1.31-7.06 2.15-4.17 1.52-8.49 2.53-12.69 3.9-4.87 1.59-9.86 2.8-14.68 4.54-2.79 1.01-5.58.92-8.4.05-5.73-1.78-11.48-3.51-17.27-5.08-4.94-1.34-9.77-3.07-14.67-4.57-4.8-1.46-9.63-2.82-14.43-4.28-3.58-1.09-7.09-2.41-10.71-3.38-5.31-1.43-10.37-3.77-15.92-4.37-2.11-.23-4.21-.07-6.13.57-3.64 1.21-7.35 2.19-11.01 3.33-2.6.8-2.94.74-4.21-1.69-3.14-6.03-5.96-12.22-8.6-18.49-.61-1.45-1.53-2.77-1.85-4.34-.36-1.74-.15-2.34 1.57-2.91 5.13-1.72 10.23-3.5 15.52-4.69.6-.36 1.21-.42 1.84-.08-.05 1.65-1.47 1.64-2.51 1.95-3.88 1.14-7.73 2.41-11.59 3.62-2.82.88-3.18 1.69-2.01 4.34 2.63 5.96 5.25 11.93 8.24 17.72 1.54 2.98 2.15 3.11 5.43 2.19 4.91-1.39 9.66-3.51 14.95-3.26 5.43.25 10.36 2.41 15.43 3.97 19.7 6.09 39.49 11.88 59.18 18.01 2.16.67 4.25.52 6.39-.15 22.59-7.09 45.3-13.81 67.88-20.92 5.91-1.86 11.51-.48 17.11 1.29 20.89 6.57 41.93 12.66 62.83 19.19 2.93.92 5.66 1.06 8.66.13 12.35-3.82 24.72-7.56 37.1-11.28 9.92-2.98 19.83-5.99 29.73-9.06 4.88-1.52 9.69-1.53 14.55.03 15.59 5 31.34 9.52 46.95 14.46 6.3 1.99 12.71 3.63 18.94 5.83 3 1.05 5.85.97 8.95.04 17.01-5.12 33.96-10.41 50.99-15.45 5.58-1.65 11.13-3.41 16.69-5.13 4.08-1.26 8.16-1.35 12.24-.08 2.83.88 5.74 1.45 8.52 2.49 2.28.85 3.75.06 4.82-2.03 1.49-2.9 2.72-5.92 4.25-8.8.53-.99.72-2.34 2.23-2.48.37.43.35.87.05 1.33" fill="#879dc4"/><path d="M759.46 749.05c-.01-.42-.03-.85-.04-1.27-.89-1.44.06-2.65.54-3.89.39-1.01.97-1.94 1.36-2.96 1.02-2.69.67-3.58-2.06-4.41-3.78-1.14-7.54-2.33-11.31-3.5-3.49-1.08-6.98-2.14-10.44-3.32-2.41-.83-4.84-.9-7.27-.12-22.75 7.23-45.55 14.3-68.32 21.47-4.82 1.52-9.44 1.2-14.21-.32-13.64-4.33-27.27-8.66-40.92-12.96-8.47-2.67-17.01-5.13-25.42-7.98-2.54-.86-4.97-.85-7.53-.05-22.4 7.03-44.89 13.8-67.2 21.13-6.88 2.26-13 .37-19.32-1.61-17.04-5.34-34.02-10.85-51.12-16-3.49-1.05-7-2.05-10.41-3.38-2.78-1.09-5.55-1.05-8.39-.14-22.18 7.09-44.44 13.91-66.59 21.11-4.94 1.61-9.8 1.61-14.81-.02-22.42-7.3-45.02-14.04-67.47-21.26-3.43-1.1-6.6-.27-9.79.97-1.7.66-3.42 1.65-5.35.66h-1.76c.22-.19.42-.48.67-.56 3.75-1.17 7.49-2.37 11.28-3.41 1.54-.42 3.15-.08 4.67.39 6.76 2.11 13.5 4.26 20.26 6.36 5.44 1.7 10.89 3.35 16.33 5.05 4.13 1.29 8.22 2.75 12.39 3.89 4.08 1.12 7.97 2.82 12.1 3.79 2.76.65 5.45 1.6 8.12 2.57 3.95 1.43 7.83 1.48 11.82.11 5.3-1.82 10.62-3.6 16-5.15 6.99-2.01 13.86-4.35 20.8-6.5 7.79-2.42 15.52-5.08 23.35-7.37 2.84-.83 5.6-1.84 8.41-2.74 2.78-.89 5.44-.5 8.11.41 8.55 2.94 17.25 5.42 25.9 8.05 5.64 1.72 11.24 3.57 16.85 5.37 5.25 1.68 10.46 3.47 15.74 5.01 4.34 1.26 8.59 2.86 13.02 3.84 1.49.33 2.89.41 4.35-.06 3.37-1.08 6.72-2.29 10.16-3.09 4.13-.97 7.97-2.79 12.13-3.72 3.83-.85 7.49-2.42 11.27-3.52 5.85-1.7 11.58-3.77 17.42-5.48 4.23-1.24 8.46-2.6 12.67-3.94 3.09-.98 6.13-2.12 9.25-3 2.05-.58 4.09-.52 6.11.14 6.92 2.24 13.81 4.59 20.78 6.69 8.28 2.49 16.45 5.33 24.73 7.8 7.44 2.21 14.85 4.55 22.18 7.06 5.11 1.75 9.81 1.3 14.67-.41 4.81-1.7 9.72-3.14 14.58-4.69 4.1-1.31 8.25-2.56 12.4-3.74 4.62-1.32 9.16-2.95 13.75-4.38 7.7-2.4 15.41-4.75 23.12-7.11 1.5-.46 2.91-1.19 4.49-1.48 2.09-.38 4.1-.28 6.11.42 7.43 2.6 14.97 4.82 22.51 7.04 3.43 1.01 5.43 1.45 3 6.23-1.34 2.62-2.01 5.55-3.69 8.01" fill="#a0a1c6"/><path d="M396.83 855.07c2.12-.75 4.2-1.62 6.36-2.24 4.54-1.3 9.01-2.82 13.48-4.33 3.13-1.06 6.48-1.04 9.6.1 6.94 2.54 14.03 4.64 21.1 6.72 8.87 2.61 17.58 5.74 26.49 8.22 7.01 1.95 13.88 4.41 20.81 6.64 3.29 1.06 6.49 1.05 9.83-.13 5.56-1.96 11.23-3.62 16.87-5.39 7.02-2.2 14.06-4.38 21.08-6.58 2.89-.91 5.83-1.7 8.71-2.61 3.84-1.21 7.7-2.34 11.52-3.62 3.36-1.13 6.7-2.33 10.09-3.35 4.35-1.3 8.53-.43 12.71 1.05 6.58 2.33 13.26 4.34 19.96 6.28 5.01 1.45 9.91 3.28 14.91 4.77 6.6 1.97 13.14 4.13 19.7 6.23 3.65 1.17 7.29 2.38 10.95 3.54.87.27 1.9.48 2.02 1.47.12 1.01-.93 1.46-1.63 1.91-4.58 2.88-9.19 5.71-13.96 8.27-5.37 2.88-10.7 5.84-16.23 8.43-1.49.7-2.97 1.22-4.55.7-6.71-2.22-13.64-3.75-20.22-6.39.3-.42.74-.62 1.22-.72 2.54-.16 4.81.97 7.15 1.65 3.79 1.11 7.57 2.23 11.33 3.43 1.27.4 2.48.49 3.74-.09 9.57-4.47 18.79-9.61 27.79-15.13.69-.42 1.89-.69 1.62-1.8-.2-.83-1.24-.86-1.98-1.09-19.86-6.24-39.71-12.49-59.6-18.63-1.7-.52-3.32-1.26-5.03-1.75-3.39-.97-6.87-1.21-10.2-.07-11.21 3.82-22.6 7.05-33.86 10.69-11.07 3.59-22.29 6.71-33.33 10.44-3.75 1.27-7.63 1.25-11.36.06-16.07-5.13-32.21-10.02-48.29-15.11-6.58-2.08-13.15-4.23-19.76-6.2-3.15-.94-6.44-.85-9.62.21-4.87 1.62-9.79 3.06-14.67 4.67-1.14.38-2.29.61-3.49.44-.49-.09-.93-.29-1.25-.69" fill="#a49fc5"/><path d="M597.86 884.61l-1.45.15c-4.82-1.4-9.79-2.44-14.42-4.31-3.92-1.58-7.32-.5-10.87.58-7.43 2.28-14.82 4.71-22.27 6.95-6.02 1.81-12.15 3.28-18.14 5.2-3.74 1.2-7.46 2.48-11.22 3.61-4.52 1.36-9.07 2.62-13.61 3.92-1.79.51-3.48 1.19-5.41 1.34-3.27.24-6.25-.79-9.23-1.68-5.27-1.58-10.6-3.01-15.81-4.73-5.33-1.76-10.73-3.25-16.07-4.98-4.39-1.43-8.84-2.67-13.26-4.02-5.84-1.78-11.68-3.53-17.49-5.4-1.87-.6-3.83-.84-5.68-1.6-1.05-.43-2.38-.36-3.5.04-4.18 1.47-8.46 2.62-12.7 3.87-5.37 1.59-10.65 3.49-16.07 4.94-2.63.71-5.31 1.43-7.89 2.41-1.35.51-2.63.58-4-.05-10.2-4.7-20.15-9.84-29.45-16.16.35-.41.81-.53 1.32-.52 6.12 2.76 11.75 6.42 17.67 9.57 3.14 1.67 6.36 3.14 9.53 4.75 2.08 1.06 4.19.72 6.34.11 10.82-3.07 21.45-6.75 32.26-9.83 3.33-.95 6.57-1.04 9.89-.03 23.1 7.07 46.23 14.07 69.35 21.09 2.46.75 4.79.77 7.25.03 23.51-7.07 46.99-14.29 70.5-21.35 3.93-1.18 7.63-.15 11.32.88 3.51.98 6.97 2.16 10.47 3.2 1.1.33 2.35.59 2.66 2.02" fill="#8ca2c6"/><path d="M396.83 855.07c.46.04.92.08 1.38.11-.39 1.53-1.78 1.71-2.95 2.1-13.81 4.55-27.81 8.52-41.57 13.21-1.2.41-2.45.77-3.76.63-.5-.09-.95-.27-1.24-.72 1.94-1.5 4.41-1.57 6.62-2.34 7.12-2.48 14.36-4.61 21.59-6.74 5.27-1.55 10.42-3.51 15.65-5.23 1.39-.46 2.86-.69 4.29-1.02" fill="#9b97c0"/><path d="M348.68 870.41c.46.03.92.07 1.38.1.08 1.41-1.14 1.27-1.91 1.59.75.92 2.46.88 2.45 2.54l-1.3.06c-.92-.13-1.56-.77-2.27-1.26-.59-.41-1.59-.68-1.33-1.67.21-.83 1.01-1.12 1.82-1.24.38-.06.77-.07 1.16-.11" fill="#8b96bf"/><path d="M662.74 380.37v-43.25c0-.79 0-1.58.02-2.37.03-1.19.64-1.81 1.84-1.85.3 0 .59-.02.89-.02 12.34.04 24.68-.04 37.02.18 5.45.1 10.8 1.19 15.6 4.03 5.11 3.02 8.75 7.23 10.55 13.01 1.04 3.34 1.6 6.7 1.62 10.18.03 6.82-2.51 12.47-7.6 16.99-1.98 1.75-2.01 1.83.13 3.42 6.12 4.54 8.6 10.8 8.77 18.2.14 6.29-1.41 12.1-4.95 17.33-3.68 5.44-9.08 8.31-15.19 10.11a33 33 0 0 1-9.63 1.36c-11.65-.06-23.3-.02-34.95-.03-.79 0-1.58 0-2.37-.03-1.06-.03-1.64-.61-1.72-1.65-.06-.79-.04-1.58-.04-2.37v-43.25m-400.01.01v-43.26c0-.79 0-1.58.02-2.37.02-1.18.61-1.83 1.82-1.85.2 0 .39-.01.59-.01 12.82.12 25.66-.52 38.44 1.22 9.2 1.25 15.89 5.8 20.04 14.21 4.08 8.26 4.57 16.76 2.59 25.62-1.39 6.22-4.34 11.41-9.43 15.24-3.65 2.74-7.73 4.56-12.25 5.63-5.35 1.27-10.73 1.43-16.16 1.49-2.83.03-3.07.24-3.08 3.03-.03 8-.01 16-.01 24v2.07c0 1.41-.64 2.26-2.13 2.26H264.8c-1.31 0-2.04-.61-2.06-1.96-.01-.79-.02-1.58-.02-2.37v-42.96m267.83 33.86c0-2.86-.05-5.73.02-8.59.04-1.97.63-2.41 2.32-1.57 4.72 2.35 9.81 3.65 14.88 4.76 5.2 1.15 10.59 1.49 15.72-.62 5.53-2.27 6.57-8.72 2.13-12.78-2.67-2.44-6.04-3.68-9.29-5.08-4.88-2.1-10-3.71-14.53-6.57-7.55-4.76-12.5-11.23-13.47-20.43-.53-5.01-.23-9.85 1.69-14.52 2.95-7.14 8.17-12.01 15.33-14.71 8.49-3.2 17.2-3.75 26.18-2.13 5.16.93 10.22 2.1 15.18 3.77 2.3.78 2.59 1.37 1.72 3.71-1.65 4.43-3.27 8.87-5.04 13.26-1.01 2.52-1.23 2.48-3.73 1.61-4.67-1.62-9.42-2.87-14.37-3.31-3.31-.29-6.51.19-9.61 1.28-4.28 1.5-5.45 6.07-3.49 9.7 1.26 2.33 3.27 3.88 5.64 5.04 3.99 1.95 8.19 3.41 12.27 5.13 3 1.26 5.99 2.53 8.83 4.14 6.89 3.91 10.98 9.75 11.89 17.65.64 5.62.57 11.19-1.32 16.66-2.31 6.7-6.67 11.44-12.96 14.6-6.81 3.42-14.06 4.31-21.54 4.17-7.55-.14-14.91-1.38-22.05-3.81-2.37-.8-2.37-.86-2.4-3.38-.03-2.67 0-5.33 0-8zm105.5-33.86v42.94c0 .79-.02 1.58 0 2.37.03 1.35-.6 2-1.96 1.99-1.87-.01-3.75.01-5.62.01-4.14 0-8.29.03-12.43-.02-2.12-.02-2.35-.3-2.46-2.4-.03-.59 0-1.18 0-1.78V344.7c0-.89 0-1.78.03-2.66.02-1.01.5-1.58 1.5-1.92 5.87-1.99 11.72-4.04 17.58-6.07.19-.06.37-.12.56-.18 2.49-.68 2.79-.5 2.81 2.07.04 6.51.01 13.03.01 19.54v24.88m18.72 461.09c-.69.06-1.91-.27-3.15-.66-7.04-2.21-14.11-4.31-21.13-6.57-3.28-1.06-6.51-2.27-9.82-3.25-4.43-1.31-8.82-2.76-13.23-4.15-3.66-1.16-7.32-2.34-10.98-3.48-5.63-1.76-11.26-3.54-16.92-5.22-1.72-.51-3.46-.31-5.23.24-4.6 1.44-9.15 3.01-13.82 4.25-3.51.94-6.89 2.34-10.36 3.43-4.6 1.44-9.24 2.76-13.86 4.14-1.78.53-3.58 1.01-5.32 1.67-6.18 2.36-12.6 3.95-18.89 5.95-2.24.71-4.56 1.23-6.7 2.17-3.95 1.73-7.72 1.56-11.74.12-5.74-2.05-11.62-3.69-17.44-5.51-3.76-1.18-7.51-2.39-11.27-3.55-6.11-1.89-12.23-3.74-18.33-5.65-5.45-1.7-10.87-3.45-16.31-5.18-2.34-.74-4.67-1.55-7.05-2.18-1.44-.38-2.95-.29-4.39.16-6.94 2.21-13.86 4.47-20.81 6.63-5.92 1.85-11.88 3.58-17.81 5.39-2.16.66-4.34 1.29-6.45 2.1-5.06 1.97-10.35 3.21-15.48 4.95-2.97 1-6.12 1.59-8.96 2.85-4.11 1.83-7.98 1.36-12.03-.05-4.55-1.59-9.19-2.9-13.78-4.36-5.25-1.67-10.48-3.39-15.74-5.04-4.32-1.35-8.63-2.73-13-3.91-2.27-.62-4.19-1.58-5.77-3.35-5.46-6.09-10.83-12.27-15.69-18.86-3.21-4.36-6.41-8.73-9.62-13.09-.41-.56-.98-1.11-.64-1.85.33-.72 1.09-.78 1.79-.78.98 0 1.99-.12 2.92.29 3.44 1.52 7.13 2.28 10.68 3.44 5.7 1.87 11.52 3.37 17.27 5.11 5.84 1.77 11.61 3.75 17.48 5.42 5.69 1.63 11.34 3.34 16.98 5.12 2.9.92 5.84 1.7 8.74 2.63 3.33 1.07 6.57.82 9.87-.19 9.79-3.02 19.6-5.93 29.39-8.93 6.96-2.13 13.88-4.37 20.84-6.51 6.48-2 13.02-3.81 19.45-6.02 1.91-.66 3.89-.55 5.82.08 9.55 3.14 19.29 5.66 28.85 8.75 7.49 2.42 15.07 4.5 22.55 6.94 6.25 2.04 12.6 3.78 18.88 5.73 3.42 1.06 6.74.93 10.15-.12 9.69-3 19.42-5.85 29.12-8.81 5.36-1.63 10.67-3.41 16.04-5.04 4.52-1.37 9.09-2.56 13.61-3.92 3.49-1.05 6.94-2.21 10.4-3.37 2.12-.71 4.24-.92 6.39-.26 10.64 3.27 21.28 6.51 31.9 9.83 7.22 2.25 14.48 4.36 21.71 6.57 5.08 1.55 10.19 3.01 15.2 4.79 3.76 1.34 7.47 1.57 11.29.36 4.68-1.49 9.38-2.93 14.08-4.35 5.09-1.53 10.2-2.98 15.28-4.52 5.27-1.59 10.51-3.26 15.78-4.87 8.47-2.59 16.95-5.17 25.42-7.75.38-.12.76-.27 1.15-.29 1.15-.04 2.58-.65 3.35.35.84 1.11-.56 1.98-1.11 2.78-4.38 6.43-9.07 12.63-13.87 18.76-3.53 4.51-7.55 8.59-11.21 12.98-1.04 1.24-2.25 2.15-3.84 2.63-8.21 2.44-16.38 4.96-24.52 7.63-7.56 2.48-15.25 4.59-22.81 7.09-.87.29-1.75.25-3.25.32" fill="#1c3688"/><path d="M253.39 731.2c1.9-.46 3.82-.77 5.64-1.63 4.07-1.92 8.15-1.46 12.31 0 5.76 2.02 11.61 3.78 17.43 5.62 5.53 1.74 11.08 3.42 16.62 5.14 6.02 1.87 12.03 3.75 18.05 5.64 4.31 1.36 8.66 2.61 12.92 4.13 4.66 1.67 9.21 1.69 13.88.12 9.52-3.19 19.09-6.19 28.72-9.07 6.97-2.08 13.78-4.68 20.75-6.78 6.22-1.88 12.42-3.77 18.59-5.81 2.12-.7 4.46-.57 6.69.2 7.16 2.46 14.42 4.63 21.68 6.78 5.56 1.65 11.02 3.6 16.55 5.36 4.13 1.32 8.29 2.53 12.43 3.81 5.54 1.71 11.07 3.45 16.61 5.17 2.54.79 5.03 1.75 7.77 1.61 2.19-.11 4.27-.82 6.31-1.48 11.44-3.66 22.94-7.09 34.39-10.72 9.57-3.03 19.15-6.04 28.76-8.92 1.97-.59 3.85-1.56 5.85-1.99 2.77-.6 5.44.24 8.08 1.11 7.58 2.49 15.16 4.94 22.77 7.33 8.73 2.74 17.5 5.36 26.23 8.09 5.44 1.71 10.88 3.46 16.26 5.33 4.58 1.59 9.03 1.39 13.6-.11 7.66-2.52 15.4-4.8 23.09-7.24 5.53-1.76 11.02-3.66 16.55-5.4 5.44-1.71 10.95-3.22 16.38-4.97 3.93-1.27 7.95-2.25 11.82-3.75 2.33-.91 4.83-.81 7.23 0a446 446 0 0 0 21.42 6.67c4.74 1.35 4.96 1.72 3.01 6.27-.85 1.99-1.96 3.88-2.38 6.04-2.16 3.41-3.49 7.24-5.44 10.75-2.77 4.99-1.59 4.47-7.1 2.96-3.03-.83-6.02-1.81-9.06-2.62-3.74-1-7.39-.5-11.03.75-3.82 1.31-7.7 2.41-11.56 3.6-4.8 1.48-9.59 2.97-14.39 4.41-9.05 2.71-18.12 5.37-27.17 8.08-4.52 1.35-9.09 2.59-13.51 4.23-3.69 1.37-7.1.86-10.65-.31-4.48-1.46-9.02-2.72-13.52-4.1-3.58-1.1-7.13-2.28-10.71-3.38-6.3-1.94-12.61-3.83-18.91-5.77-5.74-1.76-11.45-3.62-17.2-5.32-4.13-1.22-8.14-2.96-12.62-2.7-3.71.21-7.07 1.66-10.56 2.66-5.87 1.69-11.7 3.51-17.54 5.31-9.59 2.95-19.15 6.04-28.78 8.84-6.23 1.82-12.44 3.73-18.66 5.58-2.66.79-5.04-.56-7.46-1.27-6.13-1.78-12.22-3.7-18.32-5.59-5.93-1.83-11.81-3.84-17.79-5.45-4.08-1.1-8.08-2.46-12.13-3.63-4.25-1.22-8.45-2.63-12.69-3.89-2.92-.87-5.83-1.81-8.81-2.36-3.24-.6-6.41.01-9.56 1.1-3.71 1.29-7.52 2.27-11.25 3.52-4.66 1.57-9.37 3-14.11 4.33-6.92 1.94-13.75 4.16-20.61 6.3-7.23 2.26-14.5 4.38-21.73 6.63-2.06.64-4.04.67-6.08-.02-9.42-3.18-19.09-5.54-28.5-8.77-6.22-2.14-12.65-3.66-18.96-5.55-5.37-1.61-10.68-3.41-16.05-5.02-4.13-1.24-8.16-2.94-12.62-2.73-1.9.09-3.71.47-5.51 1-3.11.92-6.19 1.95-9.31 2.86-2.36.69-2.76.53-3.96-1.76-2.65-5.06-4.98-10.28-7.31-15.5-.72-1.62-1.53-3.2-2.19-4.85-.9-2.23-.59-2.98 1.72-3.74 4.11-1.35 8.26-2.6 12.4-3.86 1.12-.34 2.3-.5 3.23-1.3" fill="#1d3689"/><path d="M350.61 874.63c-.85-1.09-2.54-1.12-3.24-2.66.83-.59 2.01-.63 2.7-1.46 1.49-.08 2.91-.53 4.27-1.05 6.61-2.51 13.42-4.42 20.17-6.47 7.32-2.22 14.51-4.85 21.9-6.84.64-.17 1.2-.64 1.8-.97 2.35.09 4.38-1.09 6.54-1.71 3.97-1.14 7.85-2.58 11.8-3.81 3.09-.97 6.29-.98 9.34-.09 5.19 1.53 10.25 3.53 15.46 4.99 9.1 2.54 18 5.72 27.07 8.37 8.68 2.54 17.25 5.48 25.9 8.16 3.56 1.1 7.12 1.05 10.73-.16 7.1-2.37 14.26-4.55 21.4-6.79 5.53-1.74 11.07-3.47 16.62-5.17 8-2.46 16.01-4.89 24.01-7.34.75-.23 1.51-.45 2.22-.77 5.33-2.47 10.63-2.27 16.07-.22 4.78 1.8 9.71 3.2 14.63 4.61 4.92 1.42 9.74 3.16 14.62 4.7 6.38 2.01 12.78 3.95 19.16 5.95 4.98 1.56 9.97 3.12 14.93 4.73.92.3 1.86.63 2.72 1.43-1.84 1.84-4.04 3.17-6.22 4.41-6.14 3.52-12.36 6.9-18.6 10.26-2.25 1.21-4.63 2.21-6.94 3.32-.94.45-1.87.47-2.87.15-4.13-1.32-8.24-2.7-12.41-3.85-2.17-.6-4.26-1.53-6.53-1.73-1.09-.93-2.48-1.18-3.79-1.58-4.24-1.27-8.51-2.44-12.73-3.74-2.74-.84-5.36-.79-8.1.09-5.71 1.83-11.48 3.47-17.22 5.21-7.72 2.33-15.43 4.69-23.14 7.02-7.43 2.24-14.87 4.46-22.3 6.69-2.26.68-4.58 1.21-6.77 2.06-3.01 1.17-5.83 1.02-8.89.02-6.26-2.05-12.64-3.76-18.95-5.65-5.18-1.55-10.33-3.18-15.5-4.73-4.9-1.46-9.81-2.88-14.68-4.41-5.25-1.66-10.52-3.23-15.76-4.92-2.43-.79-4.91-1.46-7.42-1.92-3.24-.6-6.21.82-9.2 1.72-10.26 3.09-20.49 6.29-30.73 9.43-1.56.48-3.04.29-4.58-.4-5.77-2.56-11.24-5.67-16.77-8.68-3.62-1.97-7.14-4.12-10.71-6.19" fill="#1c3689"/><path d="M694.12 408.18c-2.46 0-4.92-.02-7.38 0-1.48.02-2.15-.63-2.15-2.12.02-5.31.02-10.63 0-15.94 0-1.49.67-2.1 2.17-2.08 4.82.06 9.64-.04 14.46.08 4.47.12 7.43 2.57 8.69 6.74 1.17 3.88.66 7.66-2.31 10.7-1.71 1.75-3.96 2.53-6.4 2.59-2.36.06-4.72.01-7.08.01z" fill="#fdec01"/><path d="M684.6 361.65c0-2.47.02-4.94 0-7.4-.01-1.37.62-1.96 1.98-1.95 4.93.06 9.88-.09 14.8.17 4.33.23 7.33 3.66 7.66 7.99.28 3.81-.57 7.05-3.97 9.24-1.72 1.11-3.68 1.48-5.64 1.53-4.14.11-8.29.09-12.43.03-2.02-.02-2.33-.38-2.38-2.5-.06-2.37-.01-4.74-.01-7.11z" fill="#fceb02"/><path d="M285.27 364.78c0-3.16-.05-6.32.02-9.47.04-2.23.39-2.51 2.62-2.61 3.58-.16 7.06.57 10.55 1.24 1.09.21 1.99.8 2.72 1.67 3.4 4.03 3.96 12.65 1.16 17.1-1.06 1.68-2.5 2.8-4.34 3.36-3.65 1.12-7.42.9-11.16.85-1.12-.02-1.52-.76-1.53-1.78-.02-1.87-.02-3.75-.03-5.62v-4.74h.01z" fill="#f4e407"/><path d="M353.48 380.27v-42.96q0-1.185.03-2.37c.02-.97.54-1.43 1.49-1.44.69 0 1.38-.02 2.07-.02h54.2c3.87 0 3.96.22 2.66 3.8-1.55 4.26-2.96 8.56-4.54 12.81-.7 1.88-1.73 2.33-3.52 2.32-8.98-.05-17.97-.02-26.95-.02q-5.09 0-5.1 5.04c0 3.16-.03 6.32 0 9.48.04 3.12.41 3.5 3.56 3.79.88.08 1.78.05 2.66.05h23.4c2.89 0 2.91.04 2.92 3.01.02 4.35.03 8.69 0 13.04-.02 2.37-.13 2.49-2.55 2.49-8.39.03-16.78.01-25.18.01-.79 0-1.58-.04-2.37.03-1.63.15-2.38.77-2.41 2.39-.08 4.54-.11 9.09.02 13.63.06 2.29.85 2.8 3.56 2.8 10.27.02 20.54 0 30.8 0 4.37 0 3.96-.27 3.98 4.02.01 3.95.02 7.9 0 11.85-.02 2.94-.1 3.04-2.95 3.07-3.46.03-6.91 0-10.37 0h-41.17c-.69 0-1.38-.02-2.07 0-1.45.04-2.23-.59-2.17-2.11.03-.69 0-1.38 0-2.07v-42.66" fill="#1c3689"/><path d="M440.58 380.06V337.7c0-.79.04-1.58 0-2.37-.07-1.43.66-1.94 1.99-1.87.49.03.99 0 1.48 0 8.98.04 17.97.07 26.95.11 4.45.02 8.88.54 13.22 1.32 12.06 2.17 18.78 11.44 20.42 22.03.5 3.23.88 6.45.68 9.71-.38 6.18-1.6 12.11-5.35 17.25-1.7 2.33-3.75 4.31-6.06 6.01-2.05 1.51-2.32 2.5-1.23 4.74 3.86 7.97 7.7 15.96 11.55 23.93 1.03 2.12 2.14 4.21 3.13 6.35.86 1.85.65 2.18-1.46 2.21-4.15.05-8.29.02-12.44.02-1.78 0-3.56-.06-5.33 0-1.39.05-2.19-.54-2.71-1.79-3.54-8.44-7.12-16.88-10.68-25.31-.12-.27-.25-.54-.34-.82-.84-2.55-2.34-3.98-5.27-3.51-1.35.22-2.76.02-4.14.04-2.7.06-2.99.34-3.02 3.14-.04 3.65-.01 7.31-.01 10.96 0 4.84.02 9.68-.01 14.52-.02 2.6-.19 2.74-2.97 2.75-5.13.02-10.27.02-15.4 0-2.95-.01-2.98-.03-2.98-2.94-.01-14.71 0-29.43 0-44.14" fill="#1d3689"/><path d="M462.42 364.66c0-3.05-.04-6.1 0-9.15.04-2.36.25-2.62 2.47-2.72 3.64-.16 7.26 0 10.87.65 2.71.5 4.45 2.15 5.53 4.43 2.19 4.62 1.97 9.39.14 14.06-.82 2.09-2.55 3.53-4.73 4.16-4.23 1.23-8.59.84-12.91.79-1.37-.02-1.38-1.17-1.38-2.17v-10.04" fill="#feec01"/></svg>