<svg viewBox="0 0 249.45 291.5" xmlns="http://www.w3.org/2000/svg"><g fill-rule="evenodd"><path d="m221.636 143.303 27.806-47.89h-55.612l-25.627-44.133-23.69 40.798a86.172 86.172 0 0 0 -27.244-4.418c-47.735 0-86.57 38.837-86.57 86.572s38.835 86.57 86.57 86.57c41.93 0 76.984-29.969 84.89-69.61h47.283z" fill="#fff"/><path d="m202.16 191.192c-7.907 39.641-42.96 69.61-84.891 69.61-47.735 0-86.57-38.835-86.57-86.57s38.835-86.572 86.57-86.572a86.172 86.172 0 0 1 27.244 4.418l15.67-26.985c-13.297-5.247-27.775-8.13-42.914-8.13-64.663 0-117.27 52.606-117.27 117.269.001 64.662 52.608 117.268 117.271 117.268 58.903 0 107.794-43.655 116.038-100.309z" fill="#0a6938"/><g fill="#231f20"><path d="m136.89 153.048c2.716 0 5.526-2.067 5.526-5.525 0-3.46-2.81-5.527-5.526-5.527s-5.525 2.067-5.525 5.527c0 3.458 2.81 5.525 5.525 5.525m31.313-84.65-18.538 31.926h14.062l11.23 19.34 11.23-19.34.277-.477zm-66.31 35.611 20.687 35.625 20.685-35.625z"/><path d="m234.512 104.01h-46.204l-13.352 22.99-13.35-22.99h-11.263l17.86 30.697v45.434l6.259-8.595v-36.839h21.676l7.915 23.332h-13.628v24.558h44.087l-22.815-39.294z"/><path d="m158.38 159.267v-29.19l-12.995-22.38-14.257 24.554h18.655v27.016h-34.342l-13.547 23.33h61.397v-23.33z"/><path d="m178.145 136.918v35.826l-9.855 13.537h-18.625l18.538 31.927 18.538-31.927v-49.363zm-14.56 85.564c-11.618 11.155-27.243 18.166-44.474 18.636v-3.787l18.527-11.694 24.59-5.494-1.94-3.34-18.911 4.225-9.988-19.803v-12.488h-3.682v10.054h-36.389l-7.88-14.045 19.308-29.238 6.158 2.79 1.859-3.202-9.509-4.308-12.295-15.606 14.343-16.522-1.955-3.367-18.08 20.84-20.088 10.745-4.957-4.095c8.37-15.646 22.774-27.6 40.085-32.725l-1.722-2.966-.178-.305c-28.806 8.898-49.745 35.715-49.745 67.445 0 38.994 31.612 70.607 70.607 70.607 18.655 0 35.608-7.247 48.227-19.066z"/></g><path d="m50.346 174.232a66.507 66.507 0 0 1 6.179-28.073l4.74 3.916-1.5 25.521-8.127 11.716a66.96 66.96 0 0 1 -1.292-13.08m2.445 17.88 8.586-12.378 18.367 5.957 9.007 16.053-2.006 21.568-15.22-.297c-8.826-8.282-15.406-18.919-18.734-30.902m62.636 48.995c-14.891-.405-28.576-5.692-39.52-14.324l15.018.295 24.502 10.617zm-50.494 28.942-3.734.942-.976-3.727 3.734-.942zm21.473 8.911-3.532 1.667-1.705-3.513 3.533-1.668zm-5.012-7.627c-1.069 2.242-2.454 3.855-4.158 4.837-.913.522-1.863.662-2.849.418q-.946-.233-4.178-1.772l-3.655-1.74 2.7-3.007 5.252 2.5q3.537 1.686 5.479-2.389 1.319-2.77.139-4.412c-.438-.608-1.333-1.235-2.69-1.882q-.453-.215-1.363-.59a28.365 28.365 0 0 1 -1.365-.59c-.603-.287-1.001-.761-1.195-1.421q-.291-.99.148-1.912c.748-1.572 1.688-2.208 2.82-1.907q-.478 1.004-.07 1.53.232.308 1.353.84c.324.156.814.369 1.469.64.654.272 1.144.485 1.469.64 1.365.65 2.174 1.614 2.43 2.891.338 1.742-.24 4.185-1.736 7.326m25.004 4.414c-.523 2.732-1.832 5.617-3.927 8.656l-8.247-1.58 2.017-3.56 3.649.7c1.057.203 1.921.27 2.593.203q1.168-1.042 1.562-3.097c.265-1.381.029-2.628-.708-3.743-.736-1.115-1.79-1.803-3.165-2.066-2.078-.4-3.86.51-5.343 2.724-1.006 1.502-1.686 3.176-2.04 5.021-.167.871-.256 1.629-.266 2.273l-2.442 1.195q.014-1.038.282-2.432c.704-3.68 2.626-6.84 5.763-9.48l.071-.37c-.073-.124-.651-.417-1.731-.882-1.182-.507-1.64-1.459-1.37-2.858.251-1.316 1.025-1.979 2.321-1.986-.257.827-.155 1.321.307 1.483l1.458.497q1.42.493 1.12 2.06l-.178.934.168.36c.734-.09 2.096-1.104 4.085-3.043q5.106 3.342 4.021 8.991m25.513-4.751c-.876 1.815-1.284 3.026-1.223 3.634a13.106 13.106 0 0 0 .445 2.326l.999 3.506a7 7 0 0 1 .253 1.314c.078.944-.756 2.081-2.502 3.414l-.462-5.65c-.036-.441-.133-1.114-.288-2.016-.157-.902-.254-1.586-.292-2.052-.055-.681.103-1.441.476-2.278.372-.837.556-1.286.551-1.346a1.375 1.375 0 0 0 -.101-.37l-8.49.695c-2.17.178-3.328-.637-3.476-2.445q-.186-2.268 1.701-2.602a2.8 2.8 0 0 0 .006.298q.06.75.721.87c.171.034.638.02 1.404-.044l7.996-.655c1.351-.11 2.106.813 2.266 2.771q.028.34.016.63m-10.298 5.167c-.112.717-.146 1.35-.1 1.898l.12 1.467.367 2.22.099 1.235q.106 1.305-2.285 3.031c-.028-.19-.18-2.559-.458-7.11-.052-.776.101-1.364.462-1.766.044-.051.564-.454 1.561-1.209zm26.936-4.15q.786 3.093.476 5.385c-.295 2.245-1.388 3.609-3.281 4.09l-7.63 1.939-.026-3.98 3.004-.764c2-.508 3.63-.997 4.888-1.466.654-.44 1.07-1.144 1.246-2.11.154-.81.12-1.649-.1-2.514-.157-.62-.43-1.254-.818-1.903-.448-.744-.91-1.238-1.38-1.48-1.002-.529-2.347-.578-4.035-.15-.967.245-1.824.55-2.575.915-.3.721-.348 1.483-.144 2.287.036.14.108.326.218.56.861-.22 1.49-.3 1.892-.241.617.092 1.017.492 1.197 1.202.163.64.161 1.274-.003 1.898-.921-.008-1.574.036-1.96.134-.689.175-1.26.572-1.71 1.19-.659-.488-1.116-1.231-1.37-2.23-.348-1.371-.156-2.879.575-4.524l-.06-.096c-1.232-.268-1.988-.948-2.264-2.04-.364-1.427-.034-2.414.99-2.96.269 1.06.789 1.473 1.558 1.24l3.105-.986c2.055-.622 3.648-.505 4.78.347 1.518 1.153 2.659 3.238 3.427 6.256m7.192-7.902c.938 2.45.676 4.835-.791 7.156l-1.096-.448c.675-1.83.843-3.187.503-4.074-.37-.965-.9-1.315-1.587-1.051l-.812.311c-1.881.723-3.146.24-3.794-1.448-.584-1.52-.324-2.529.778-3.03.33.86.759 1.188 1.29.984l1.422-.545q1.37-.527 2.5.138c.701.41 1.23 1.08 1.587 2.007m26.446-17.024c1.633 2.057 2.098 4.415 1.394 7.073l-1.181-.1c.096-1.953-.152-3.302-.744-4.048q-.966-1.216-1.828-.532l-.677.539c-1.574 1.249-2.918 1.172-4.03-.23q-1.505-1.896-.157-3.103c.554.695 1.05.866 1.495.515l1.19-.945c.763-.607 1.571-.811 2.42-.613.792.183 1.498.664 2.118 1.444m-12.07 9.536c-.278 1.522-.127 2.807.455 3.851.222.398.59.899 1.104 1.502l2.21 2.59c.633.742 1.024 1.245 1.169 1.506.401.721.072 2.15-.99 4.29l-4.11-7.193c-.135-.24-.287-.497-.457-.77s-.27-.437-.299-.49c-.284-.51-.479-1.23-.581-2.163-.103-.932-.222-1.518-.355-1.758l-6.666 3.711c-.243 1.012-.367 1.601-.37 1.767-.012.471.204 1.104.647 1.897l.75 1.349 2.208 3.533c.244.44.472.845.68 1.221.46.827.16 2.213-.902 4.159l-4.217-8.009c-.496-.942-.778-1.737-.843-2.386q-.084-.838.288-2.565c-1.53.852-2.716.519-3.56-.997-.728-1.306-.64-2.342.265-3.106.411.735.967.909 1.67.518l8.011-4.46c.9-.502 1.648-.576 2.242-.222.408.24.868.819 1.38 1.738zm35.8-29.596c2.042 1.412 3.412 3.036 4.109 4.875.368.984.352 1.943-.045 2.878-.254.599-1.059 1.879-2.416 3.844l-2.302 3.33-2.537-3.153 3.323-4.809c1.492-2.159 1.004-4.093-1.468-5.802-1.682-1.162-3.125-1.44-4.336-.832-.67.338-1.436 1.128-2.295 2.371q-.286.414-.804 1.258c-.346.563-.613.982-.804 1.259-.382.552-.917.87-1.605.956a2.625 2.625 0 0 1 -1.877-.455q-2.168-1.498-1.452-3.105c.63.435 1.138.548 1.533.34.23-.12.58-.52 1.05-1.2.206-.296.494-.746.866-1.349.373-.602.663-1.052.867-1.347.86-1.243 1.941-1.89 3.24-1.938 1.777-.057 4.093.902 6.953 2.88m-5.612 15.027 2.441 3.065-9.322 9.904-2.294-3.222 2.604-2.768c2.38-2.526 3.766-4.165 4.159-4.917-.524-.955-1.379-1.99-2.563-3.104q-2.486-2.341-3.92-2.083c-.625.12-1.377.682-2.257 1.685l-2.365 2.698c-.739.854-1.4 1.376-1.988 1.566-.821.265-1.661-.006-2.519-.812q-1.74-1.638-.736-3.12c.832.686 1.574.658 2.222-.084l2.736-3.09c1.626-1.85 3.109-2.671 4.449-2.466.818.128 1.91.834 3.274 2.118 2.186 2.058 3.842 3.994 4.97 5.81zm12.695-32.591c2.517 1.18 4.991 3.16 7.422 5.936l-3.555 7.586-3.01-2.846 1.567-3.34c.453-.969.729-1.784.829-2.446-.479-.92-1.345-1.674-2.599-2.262-1.264-.593-2.522-.673-3.774-.24-1.251.433-2.171 1.276-2.759 2.528-.888 1.898-.436 3.834 1.355 5.812 1.216 1.34 2.676 2.41 4.384 3.21.804.377 1.51.665 2.12.864l.562 2.664c-.67-.18-1.433-.471-2.29-.873-3.396-1.591-5.992-4.231-7.784-7.918l-.343-.16q-.206.062-1.276 1.452c-.779 1.014-1.814 1.22-3.106.613-1.215-.57-1.668-1.482-1.358-2.737.736.45 1.24.472 1.51.064l.84-1.286c.55-.836 1.306-1.03 2.266-.579l.857.402.391-.074c.092-.733-.556-2.3-1.947-4.7 2.994-2.741 6.226-3.297 9.698-1.67m-169.186 21.146-7.89 6.795c-.391.336-2.117 1.758-3.363 2.832l.031.036 14.46-5.905 1.537 1.787-7.965 13.407.032.037c1.229-1.057 2.89-2.553 3.28-2.89l7.89-6.795 1.507 1.749-13.36 11.507-2.228-2.586 8.01-13.543-.032-.038-14.565 5.932-2.212-2.568 13.361-11.507zm-27.519-27.493c-2.711 1.63-2.408 4.253-1.858 5.856 1.036 3.02 4.103 4.693 8.493 3.186 3.926-1.347 6.467-3.777 5.048-7.912-.502-1.463-2.068-3.756-6.21-3.19l-.75-2.185c6.614-1.23 8.647 3.784 9.077 5.038 1.3 3.786.113 8.347-6.298 10.548-5.133 1.762-9.692.055-11.358-4.8-1.475-4.297.431-7.444 3.107-8.725zm-3.71-19.134c-2.963 1.112-3.142 3.746-2.892 5.422.47 3.158 3.183 5.36 7.774 4.676 4.104-.611 7.045-2.54 6.4-6.863-.228-1.53-1.35-4.069-5.526-4.265l-.34-2.284c6.727-.01 7.814 5.291 8.01 6.603.59 3.96-1.405 8.23-8.11 9.228-5.368.8-9.54-1.707-10.296-6.784-.67-4.493 1.776-7.242 4.64-8.016zm4.829-13.146-7.606-3.216.002-.05 7.883-2.203zm2.432-6.22 5.215-1.479.133-2.6-17.936 5.478-.137 2.697 17.27 7.522.126-2.453-5.032-2.102zm12.122 61.495-8.112 1.548-.025-.042 5.332-6.21zm-1.43-6.524 3.514-4.126-1.333-2.236-11.875 14.514 1.384 2.321 18.54-3.335-1.257-2.11-5.352 1.047zm-19.006-68.017.989-4.208c.606-2.581 1.745-3.35 3.347-2.972 2.103.493 2.453 2.015 1.93 4.237l-.983 4.184zm14.636 5.885 1.736-7.387c.893-3.802-.949-6.378-3.698-7.023-2.94-.692-4.196 1.108-4.914 2.124-.44-2.096-1.923-2.874-3.047-3.138-2.343-.55-4.715.634-5.467 3.836l-1.775 7.555zm-7.464-4.2 1.073-4.567c.444-1.889 1.422-3.903 3.836-3.335 1.913.448 2.846 1.954 2.279 4.369l-1.164 4.949zm12.837-14.84-.861 2.222-16.44-6.378.862-2.22zm-2.371-30.796 1.349-1.963 14.53 9.988-1.349 1.964-6.78-4.661-5.217 7.589 6.78 4.661-1.349 1.963-14.531-9.988 1.35-1.964 6.01 4.132 5.217-7.59zm16.6-3.476-3.249-7.592.036-.035 7.207 3.88zm6.066-2.793 4.782 2.55 1.9-1.78-16.72-8.494-1.97 1.848 7.224 17.397 1.792-1.68-2.168-5.003zm27.439-19.677.095-8.257.046-.016 5.026 6.46zm6.678-.106 3.345 4.267 2.456-.863-11.865-14.522-2.549.894-.417 18.835 2.317-.814.039-5.453zm-22.376 17.105-1.897 1.442-10.664-14.045 1.897-1.44zm5.079-3.364-2.067 1.184-8.767-15.298 10.59-6.069 1.05 1.833-8.522 4.884 2.685 4.688 7.5-4.299 1.05 1.834-7.5 4.297zm35.3-12.791-2.366.282-2.087-17.508 12.12-1.446.25 2.098-9.755 1.162.64 5.365 8.583-1.024.25 2.098-8.583 1.024zm31.876-11.813c-.325-3.14-2.83-3.98-4.513-4.163-3.175-.344-5.991 1.717-6.491 6.321-.446 4.118.674 7.444 5.021 7.915 1.538.168 4.279-.275 5.526-4.256l2.294.248c-1.693 6.501-7.096 6.212-8.414 6.068-3.98-.43-7.606-3.443-6.876-10.167.584-5.383 4.064-8.782 9.168-8.229 4.517.49 6.557 3.55 6.58 6.512zm-17.765 10.765-2.554.048-.048-2.602 2.554-.048zm23.23 3.14-2.496-.545.557-2.544 2.495.546z" fill="#fff"/><g fill="#b4a269"><path d="m169.13 35.872-9.155-6.675-8.984 6.903 3.52-10.77-9.343-6.411 11.33.02 3.212-10.867 3.482 10.782 11.327-.304-9.178 6.644z"/><path d="m133.614 27.8-9.155-6.675-8.984 6.903 3.52-10.77-9.343-6.411 11.33.02 3.213-10.867 3.482 10.782 11.327-.304-9.178 6.644z"/><path d="m98.097 35.872-9.155-6.675-8.984 6.903 3.52-10.77-9.343-6.411 11.33.02 3.212-10.867 3.482 10.782 11.327-.304-9.178 6.644z"/></g></g></svg>