<svg viewBox="-5.6 0 558.43 660.25" xmlns="http://www.w3.org/2000/svg" xmlns:xlink="http://www.w3.org/1999/xlink"><linearGradient id="a" gradientUnits="userSpaceOnUse" x1="61.93" x2="49.08" y1="127.29" y2="156.16"><stop offset="0" stop-color="#ccab78"/><stop offset=".6" stop-color="#ac8e4b"/><stop offset=".88" stop-color="#b49e72"/><stop offset="1" stop-color="#b49e72"/></linearGradient><linearGradient id="b" gradientUnits="userSpaceOnUse" x1="50.26" x2="21.43" y1="132.48" y2="124.75"><stop offset="0" stop-color="#ae9557"/><stop offset=".56" stop-color="#ae9557"/><stop offset=".6" stop-color="#ae9557"/><stop offset=".79" stop-color="#b8a78b"/><stop offset="1" stop-color="#b8a78b"/></linearGradient><linearGradient id="c" gradientUnits="userSpaceOnUse" x1="59.88" x2="89.4" y1="129.1" y2="121.19"><stop offset="0" stop-color="#835f23"/><stop offset=".53" stop-color="#835f23"/><stop offset=".82" stop-color="#b69e59"/><stop offset=".91" stop-color="#b69e59"/><stop offset="1" stop-color="#835f23"/></linearGradient><linearGradient id="d" gradientUnits="userSpaceOnUse" x1="38.11" x2="42.92" y1="111.06" y2="103.66"><stop offset="0" stop-color="#afa28a"/><stop offset=".06" stop-color="#afa28a"/><stop offset=".3" stop-color="#f2e2ab"/><stop offset="1" stop-color="#f2e2ab"/></linearGradient><linearGradient id="e" gradientUnits="userSpaceOnUse" x1="65.05" x2="67.57" y1="101.86" y2="104.87"><stop offset="0" stop-color="#f1e6a7"/><stop offset=".6" stop-color="#f1e6a7"/><stop offset=".88" stop-color="#dfcc90"/><stop offset="1" stop-color="#dfcc90"/></linearGradient><linearGradient id="f" gradientUnits="userSpaceOnUse" x1="39.7" x2="48.74" y1="106.04" y2="102.2"><stop offset="0" stop-color="#cba959"/><stop offset=".64" stop-color="#cba959"/><stop offset=".93" stop-color="#bdad7c"/><stop offset="1" stop-color="#bdad7c"/></linearGradient><linearGradient id="g" gradientUnits="userSpaceOnUse" x1="34.79" x2="37.46" y1="127.1" y2="130.28"><stop offset="0" stop-color="#f0e4af"/><stop offset=".6" stop-color="#f0e4af"/><stop offset=".88" stop-color="#dfcc90"/><stop offset="1" stop-color="#dfcc90"/></linearGradient><linearGradient id="h" gradientUnits="userSpaceOnUse" x1="67.79" x2="64.89" y1="120.35" y2="87.22"><stop offset="0" stop-color="#ae9557"/><stop offset=".6" stop-color="#ae9557"/><stop offset=".88" stop-color="#b9ad8e"/><stop offset="1" stop-color="#b9ad8e"/></linearGradient><linearGradient id="i" gradientUnits="userSpaceOnUse" x1="94.95" x2="54.37" y1="130.01" y2="126.46"><stop offset="0" stop-color="#ac914c"/><stop offset=".6" stop-color="#ac8e4b"/><stop offset=".88" stop-color="#bfa769"/><stop offset="1" stop-color="#bfa769"/></linearGradient><linearGradient id="j" gradientUnits="userSpaceOnUse" x1="58.54" x2="60.66" y1="162.59" y2="122.2"><stop offset="0" stop-color="#835f23"/><stop offset=".53" stop-color="#835f23"/><stop offset=".89" stop-color="#baa65f"/><stop offset="1" stop-color="#baa65f"/></linearGradient><linearGradient id="k" x1="390.51" x2="354.2" xlink:href="#a" y1="70.47" y2="74.29"/><linearGradient id="l" x1="378.21" x2="368.61" xlink:href="#b" y1="66.79" y2="30.96"/><linearGradient id="m" x1="383.44" x2="408.54" xlink:href="#c" y1="68.35" y2="93.46"/><linearGradient id="n" x1="385.41" x2="403.05" xlink:href="#d" y1="41.81" y2="42.73"/><linearGradient id="o" x1="411.69" x2="409.33" xlink:href="#e" y1="59.34" y2="65.81"/><linearGradient id="p" x1="394.71" x2="403.05" xlink:href="#f" y1="40.77" y2="47.05"/><linearGradient id="q" x1="374.28" x2="372.68" xlink:href="#g" y1="46.91" y2="51.3"/><linearGradient id="r" x1="397.77" x2="423.23" xlink:href="#h" y1="71.51" y2="53.68"/><linearGradient id="s" x1="401.43" x2="385.05" xlink:href="#i" y1="100.06" y2="64.94"/><linearGradient id="t" x1="355.56" x2="392.19" xlink:href="#j" y1="85.38" y2="66.71"/><linearGradient id="u" gradientTransform="matrix(.02059343 .99978793 -.99978793 .02059343 648.959825 99.589379)" gradientUnits="userSpaceOnUse" x1="25.58" x2="521.71" y1="265.38" y2="496.73"><stop offset="0" stop-color="#f2c100"/><stop offset=".5" stop-color="#f4e650"/><stop offset="1" stop-color="#f2c100"/></linearGradient><linearGradient id="v" gradientTransform="matrix(.0319341 .99948998 -.99948998 .0319341 645.779324 95.410243)" gradientUnits="userSpaceOnUse" x1="273.64" x2="273.64" y1="410.45" y2="651.49"><stop offset="0" stop-color="#1a1f56"/><stop offset=".06" stop-color="#16245e"/><stop offset=".25" stop-color="#0c3475"/><stop offset=".46" stop-color="#054085"/><stop offset=".69" stop-color="#01468e"/><stop offset="1" stop-color="#004992"/></linearGradient><linearGradient id="w"><stop offset="0" stop-color="#004992"/><stop offset=".12" stop-color="#044187"/><stop offset=".46" stop-color="#102e6c"/><stop offset=".77" stop-color="#17235b"/><stop offset="1" stop-color="#1a1f56"/></linearGradient><linearGradient id="x" gradientTransform="matrix(.05686704 .99838176 -.99838176 .05686704 638.489922 86.14929)" gradientUnits="userSpaceOnUse" x1="289.66" x2="421.05" xlink:href="#w" y1="396.22" y2="520.56"/><linearGradient id="y" x1="113.22" x2="435.94" xlink:href="#u" y1="306.25" y2="456.73"/><linearGradient id="z" gradientUnits="userSpaceOnUse" x1="275.96" x2="275.96" y1="487.24" y2="539.02"><stop offset="0" stop-color="#f2c100"/><stop offset=".21" stop-color="#f2cb17"/><stop offset=".53" stop-color="#f3da36"/><stop offset=".81" stop-color="#f3e249"/><stop offset="1" stop-color="#f4e650"/></linearGradient><linearGradient id="A" x1="277.41" x2="244.54" xlink:href="#a" y1="49.18" y2="65.22"/><linearGradient id="B" x1="263.43" x2="244.44" xlink:href="#b" y1="48.59" y2="21.48"/><linearGradient id="C" x1="269.8" x2="302.64" xlink:href="#c" y1="49.66" y2="64.97"/><linearGradient id="D" x1="262.92" x2="279.43" xlink:href="#d" y1="24" y2="18.95"/><linearGradient id="E" x1="293.34" x2="293.34" xlink:href="#e" y1="28.63" y2="41.44"/><linearGradient id="F" x1="267.84" x2="284.35" xlink:href="#f" y1="18.95" y2="24"/><linearGradient id="G" x1="253.93" x2="253.93" xlink:href="#g" y1="28.63" y2="41.44"/><linearGradient id="H" x1="283.85" x2="302.83" xlink:href="#h" y1="48.59" y2="21.48"/><linearGradient id="I" x1="298.61" x2="269.68" xlink:href="#i" y1="74.33" y2="45.39"/><linearGradient id="J" x1="249.54" x2="277.58" xlink:href="#j" y1="75.19" y2="45.12"/><linearGradient id="K" x1="486.77" x2="456.48" xlink:href="#a" y1="128.48" y2="120.93"/><linearGradient id="L" x1="479.56" x2="482.46" xlink:href="#b" y1="119.39" y2="86.26"/><linearGradient id="M" x1="484.53" x2="497.67" xlink:href="#c" y1="126.47" y2="154.65"/><linearGradient id="N" x1="498.22" x2="507.26" xlink:href="#d" y1="102.03" y2="105.87"/><linearGradient id="O" x1="512.5" x2="509.83" xlink:href="#e" y1="127.04" y2="130.22"/><linearGradient id="P" x1="504.16" x2="508.97" xlink:href="#f" y1="103.34" y2="110.73"/><linearGradient id="Q" x1="482.24" x2="479.71" xlink:href="#g" y1="101.8" y2="104.81"/><linearGradient id="R" x1="496.54" x2="525.38" xlink:href="#h" y1="132.56" y2="124.83"/><linearGradient id="S" x1="489.82" x2="486.35" xlink:href="#i" y1="160.83" y2="121.17"/><linearGradient id="T" x1="451.52" x2="492.07" xlink:href="#j" y1="131.29" y2="126.31"/><linearGradient id="U" x1="163.33" x2="138.42" xlink:href="#a" y1="68.27" y2="94.07"/><linearGradient id="V" x1="149.25" x2="123.79" xlink:href="#b" y1="71.37" y2="53.55"/><linearGradient id="W" x1="156.33" x2="192.38" xlink:href="#c" y1="70.93" y2="74.08"/><linearGradient id="X" x1="144.13" x2="152.47" xlink:href="#d" y1="47.18" y2="40.89"/><linearGradient id="Y" x1="172.99" x2="174.59" xlink:href="#e" y1="46.94" y2="51.33"/><linearGradient id="Z" x1="143.99" x2="161.62" xlink:href="#f" y1="42.79" y2="41.87"/><linearGradient id="aa" x1="135.58" x2="137.94" xlink:href="#g" y1="59.36" y2="65.83"/><linearGradient id="ab" x1="169.02" x2="178.62" xlink:href="#h" y1="67.02" y2="31.19"/><linearGradient id="ac" x1="191.76" x2="154.68" xlink:href="#i" y1="84.08" y2="66.79"/><linearGradient id="ad" x1="146.77" x2="162.05" xlink:href="#j" y1="100.95" y2="64.96"/><radialGradient id="ae" cx="185.16" cy="407.72" fx="185.16" fy="407.72" gradientUnits="userSpaceOnUse" r="43.63"><stop offset="0" stop-color="#1a1f56"/><stop offset=".08" stop-color="#16245d"/><stop offset=".45" stop-color="#0a387a"/><stop offset=".77" stop-color="#02448b"/><stop offset="1" stop-color="#004992"/></radialGradient><radialGradient id="af" cx="310.45" cy="246.26" gradientUnits="userSpaceOnUse" r="119.56"><stop offset="0" stop-color="#1a1f56"/><stop offset=".24" stop-color="#0e3170"/><stop offset=".48" stop-color="#063e82"/><stop offset=".73" stop-color="#01468e"/><stop offset="1" stop-color="#004992"/></radialGradient><radialGradient id="ag" cx="132.5" cy="382.54" fx="132.5" fy="382.54" r="109.67" xlink:href="#ae"/><radialGradient id="ah" cx="128" cy="484.12" gradientUnits="userSpaceOnUse" r="244.32"><stop offset="0" stop-color="#1a1f56"/><stop offset=".25" stop-color="#112c68"/><stop offset=".73" stop-color="#044186"/><stop offset="1" stop-color="#004992"/></radialGradient><radialGradient id="ai" cx="400.34" cy="345.41" gradientUnits="userSpaceOnUse" r="201.08"><stop offset="0" stop-color="#1a1f56"/><stop offset="1" stop-color="#004992"/></radialGradient><radialGradient id="aj" cx="322.38" cy="404.6" gradientUnits="userSpaceOnUse" r="235.2" xlink:href="#w"/><g fill-rule="evenodd"><path d="m55.34 121.13 2.87 41.12-11.27-27.91 8.29-13.27.1-.14z" fill="url(#a)"/><path d="m55.13 121-38.22 15.44 30.03-2.1 8.29-13.27.1-.14z" fill="url(#b)"/><path d="m55.64 121 39.88 9.95-25.52-15.95-14.49 5.85-.18.08z" fill="url(#c)"/><path d="m55.09 120.86-15.12-3.77-11.28-27.9 26.64 31.74z" fill="url(#d)"/><path d="m55.33 120.93.1-.18 21.85-34.96-23.06 19.35 1.09 15.61z" fill="url(#e)"/><path d="m55.33 120.93-26.64-31.74 25.53 15.95 1.09 15.61z" fill="url(#f)"/><path d="m55.13 121-38.22 15.44 23.06-19.35 15.12 3.77.24.07z" fill="url(#g)"/><path d="m55.33 120.93.1-.18 21.85-34.96-7.28 29.21-14.49 5.85z" fill="url(#h)"/><path d="m55.64 121 39.88 9.95-30.02 2.1-10.17-12.12z" fill="url(#i)"/><path d="m55.33 120.93 10.17 12.12-7.29 29.2-2.87-41.12z" fill="url(#j)"/><path d="m389.62 61.99-34.17 23.05 18.53-23.72 15.65.55.17.01z" fill="url(#k)"/><path d="m389.63 61.74-32.48-25.38 16.83 24.96 15.65.55.17.01z" fill="url(#l)"/><path d="m389.89 62.18 11.33 39.52 1.05-30.08-12.31-9.62-.16-.12z" fill="url(#m)"/><path d="m389.73 61.64-4.29-14.98 18.53-23.72-14.17 38.94z" fill="url(#n)"/><path d="m389.8 61.88h.21l41.2 1.44-28.29-10.3-12.98 8.75z" fill="url(#o)"/><path d="m389.8 61.88 14.17-38.94-1.05 30.08-12.98 8.75z" fill="url(#p)"/><path d="m389.63 61.74-32.48-25.38 28.29 10.3 4.29 14.98.07.24z" fill="url(#q)"/><path d="m389.8 61.88h.21l41.2 1.44-28.94 8.3-12.31-9.62z" fill="url(#r)"/><path d="m389.89 62.18 11.33 39.52-16.83-24.96 5.41-14.86z" fill="url(#s)"/><path d="m389.8 61.88-5.41 14.86-28.94 8.3 34.17-23.05z" fill="url(#t)"/></g><ellipse cx="273.64" cy="381.05" fill="url(#u)" rx="273.65" ry="273.64" transform="matrix(.02059343 -.99978793 .99978793 .02059343 -112.988863 646.759849)"/><circle cx="273.64" cy="381.05" fill="url(#v)" r="260.13" transform="matrix(.0319341 -.99948998 .99948998 .0319341 -115.9398 642.410716)"/><path d="m201.05 591.92c-.42 1.34-.47 2.62-.15 3.93.34 1.27 1.09 2.76 2.3 4.57.94 1.37 1.53 2.46 1.76 3.25.25.79.25 1.58-.02 2.41-.21.67-.51 1.12-.9 1.32-.35.18-.8.19-1.35.02-.54-.17-.9-.43-1.08-.77-.2-.38-.2-.9 0-1.54l.57-1.84-4.26-1.33-.5 1.59c-.58 1.87-.53 3.47.16 4.79.7 1.33 2.03 2.31 3.95 2.92 1.97.62 3.67.57 5.04-.15 1.33-.7 2.3-2 2.88-3.86.45-1.44.52-2.78.2-4.08-.27-1.25-1.03-2.8-2.26-4.59-.9-1.3-1.52-2.42-1.8-3.24-.25-.73-.26-1.49-.04-2.2.2-.63.49-1.05.86-1.24.34-.18.77-.18 1.3-.02.51.16.84.4 1.02.73.2.38.19.92-.02 1.59l-.46 1.46 4.27 1.33.39-1.24c.59-1.87.53-3.48-.16-4.8s-2-2.29-3.88-2.88c-3.82-1.2-6.67.23-7.82 3.9z" fill="#f2c100" fill-rule="evenodd"/><path d="m212.085 613.981 5.817-22.954 4.546 1.152-5.816 22.954z" fill="#f2c100"/><path d="m222.5 616.51 4.18.79s2.06-10.96 2.71-14.45c.36 3.58 1.54 15.24 1.54 15.24l4.55.85 4.36-23.28-4.18-.79s-1.54 8.23-2.15 11.47c-.33-3.34-1.2-12.1-1.2-12.1l-5.45-1.02-4.36 23.27zm22.7-18.82c-1.15.92-1.83 2.32-2.03 4.17l-1.34 12.27c-.2 1.85.16 3.37 1.08 4.51.96 1.19 2.46 1.91 4.45 2.12 2 .22 3.61-.16 4.8-1.11 1.15-.92 1.83-2.32 2.03-4.17l.37-3.41-4.44-.48-.4 3.67c-.07.62-.26 1.06-.56 1.31-.29.24-.7.32-1.26.26s-.94-.23-1.18-.52c-.25-.31-.34-.78-.27-1.4l1.39-12.76c.13-1.22.7-1.72 1.83-1.59 1.13.12 1.58.72 1.44 1.95l-.33 2.99 4.44.49.3-2.76c.41-3.79-1.6-6.21-5.53-6.63-2-.22-3.61.16-4.81 1.11zm14.01 23.8 11.56.43.15-3.98s-6.25-.23-6.88-.25c.02-.6.21-5.76.24-6.36.61.02 5.47.2 5.47.2l.15-3.98s-4.86-.18-5.47-.2c.02-.58.18-4.79.2-5.37.63.02 6.88.25 6.88.25l.15-3.98-11.57-.43-.88 23.66zm33.7-24.12-2.91.21-.08.22c-.36 1.07-.87 1.8-1.54 2.25-.67.41-1.82.68-3.41.79l-.35.02.23 3.25s3.57-.26 4.16-.3c.05.67 1.25 17.49 1.25 17.49l4.67-.33-1.69-23.62-.35.03zm19.72 3.31 1.73 11.76c.3 2.03 0 3.68-.9 4.88-.91 1.23-2.44 2-4.55 2.32-2.02.3-3.66-.01-4.9-.93-1.19-.89-1.94-2.31-2.22-4.21l-.11-.77 4.42-.65.15.99c.1.68.33 1.16.68 1.42.31.23.75.31 1.3.23.61-.09 1.01-.28 1.24-.6.21-.28.31-.69.31-1.23 0-.26-.02-.56-.07-.89 0 0-.32-2.16-.49-3.35-.7.99-1.73 1.6-3.12 1.81-1.42.21-2.6-.03-3.5-.7-1.06-.79-1.74-2.18-2.03-4.15l-.6-4.06c-.57-3.85 1.41-6.4 5.44-7 4.03-.59 6.66 1.28 7.23 5.13zm-7.48 4.94c.19 1.31.8 1.82 1.98 1.65.55-.08.95-.28 1.18-.59.26-.35.34-.87.24-1.55l-.59-4.03c-.1-.66-.32-1.13-.66-1.38-.31-.23-.75-.31-1.31-.23-1.16.17-1.61.84-1.43 2.11l.59 4.03zm24-8.51 2.66 11.79c.86 3.8-.93 6.49-4.9 7.38-2.03.46-3.73.26-5.05-.57-1.27-.8-2.12-2.15-2.54-3.99l-2.66-11.79c-.86-3.8.93-6.49 4.9-7.38s6.74.77 7.59 4.57zm-3.12 15.29c1.16-.26 1.55-.95 1.26-2.25l-2.76-12.23c-.29-1.3-.94-1.75-2.09-1.49-.54.12-.93.35-1.13.68-.23.37-.27.89-.12 1.57l2.76 12.23c.15.67.42 1.13.78 1.37.33.21.77.25 1.31.13zm16.32-23.88c1.31.7 2.27 1.99 2.83 3.83l.23.74-4.27 1.31-.3-.96c-.2-.66-.5-1.1-.88-1.3-.34-.18-.79-.19-1.32-.03-.59.18-.95.43-1.14.78-.11.2-.17.46-.17.77 0 .38.08.83.25 1.37 0 0 .64 2.08.99 3.23.54-1.08 1.47-1.84 2.81-2.26 1.37-.42 2.57-.37 3.57.16 1.17.62 2.05 1.9 2.63 3.8l1.2 3.92c.55 1.81.48 3.4-.23 4.73-.74 1.39-2.12 2.4-4.1 3.01-1.99.61-3.7.54-5.08-.2-1.32-.7-2.28-1.98-2.83-3.79l-3.48-11.37c-.6-1.97-.55-3.63.15-4.96.72-1.35 2.11-2.35 4.15-2.97 1.95-.6 3.62-.54 4.98.18zm-1.25 18c.38 1.23 1.08 1.64 2.2 1.3s1.46-1.07 1.09-2.3l-1.19-3.89c-.39-1.27-1.07-1.68-2.2-1.33-.53.16-.9.42-1.08.76-.21.38-.21.91 0 1.57l1.19 3.89z" fill="#f2c100" fill-rule="evenodd"/><ellipse cx="273.64" cy="381.05" fill="url(#x)" rx="195.23" ry="195.22" transform="matrix(.05686704 -.99838176 .99838176 .05686704 -122.380874 632.550045)"/><g fill-rule="evenodd"><path d="m212.85 469.91h-95.36l53.62-85.28-53.62-87.55h101.52l.63-1.08 54-94.22 53.51 93.58 1.04 1.72h101.61l-53.62 87.55 53.62 85.28h-95.36l-.54.81-60.26 89.61-60.29-89.67z" fill="url(#y)"/><path d="m199.66 378.1c-7.01 0-12.7 5.68-12.7 12.7s5.68 12.7 12.7 12.7 12.69-5.69 12.69-12.7-5.68-12.7-12.69-12.7" fill="url(#ae)"/><path d="m315.03 296.21c-12.96-22.66-32.59-57-41.39-72.39-5.81 10.16-23.25 40.58-41.42 72.28l-.56.98h53.49l15.28 17.33 15.05-17.33z" fill="url(#af)"/><path d="m176.88 370.61 23.38-40.8.54-.98v-20.8h-63.77c4.05 6.61 9.95 16.24 16.2 26.46h1.23l21.26-.01-11.41 16.22-.59.91c4.6 7.51 8.94 14.6 12.42 20.28l.74-1.29z" fill="url(#ag)"/><path d="m268.29 457.77v-24.8h-9.35v-91.66l-33.48-33.29-.53.8c-8.8 15.34-17.43 30.39-24.66 43l.79-.02h32.35v80.71h-79.46l-.52.8-16.13 25.65h131.04l-.06-1.2z" fill="url(#ah)"/><path d="m278.39 457.57 17.98-21.87v-90.74h40.82l10.73 14.82v72.96h-9.39v26.22h71.46c-13.61-21.64-46.69-74.25-46.69-74.25s33.58-54.84 46.96-76.68h-89.79c-4.01 4.62-19.98 23-19.98 23s-16.24-18.42-20.28-23h-33.76l-1.19.03 32.15 36.68v113.97l.99-1.13z" fill="url(#ai)"/><path d="m226.04 469.92c13.74 20.43 38.11 56.69 47.6 70.8 11.34-16.86 43.92-65.33 54.23-80.66l.66-1.01v-99.26h-18.64v81.05l-24.26 29.11-1.05-.04h-58.55z" fill="url(#aj)"/><path d="m332.24 532.49v6.5c4.02.04 7.36.19 9.35-.91 3.31-1.84 3.76-4.22 3.76-9.06v-34.95h13.74v44.92h7.18v-51.76h-28.1v40.9c-.06 3.76-.6 4.28-5.93 4.36m-112.45 6.32-9.71-19.2.31-.24c2.86-2.15 6.92-5.92 6.94-12.61v-19.52h-7.18v19.69c-.02 3.58-1.5 5.76-2.68 6.93l-.2.2-13.57-26.82h-7.58l-.46.02 8.92 17.63-.19.15c-2.25 1.75-7.43 6.29-7.38 11.04v22.92h7.18v-20.95c-.04-3.94 2.02-6.18 3.09-7.07l.28-.21 14.19 28.06.08.17h8.06z" fill="url(#z)"/><path d="m66.45 246.03s19.97 19.07 22.1 21.1c-2.77-.98-28.81-10.22-28.81-10.22l-4.19 6.8 33.85 20.87 2.72-4.42-25.33-15.62c4.93 1.71 28.79 10 28.79 10l2.55-4.14-21.87-21.23c4.42 2.72 25.33 15.62 25.33 15.62l2.93-4.75-33.85-20.87-4.23 6.86zm21.77-28.49 35.85 19.27-3.81 4.45-7.42-4.12c-.34.4-6.15 7.18-6.49 7.58.33.42 5.21 6.7 5.21 6.7l-3.56 4.16-24.6-32.41 4.81-5.62zm15.31 23.56c.48-.56 4.81-5.61 5.29-6.18-.67-.37-15.29-8.43-17.8-9.81zm5.28-45.02c-2.54 2.27-3.96 4.82-4.1 7.38-.13 2.37.78 4.67 2.71 6.83l14.36 16.06c1.9 2.12 4.14 3.31 6.48 3.44 2.57.14 5.26-.98 7.79-3.24 2.54-2.27 3.96-4.82 4.1-7.38.13-2.37-.78-4.67-2.72-6.83l-3.69-4.13-4.11 3.68 3.88 4.34c2 2.24 1.83 4.71-.47 6.77-1.15 1.03-2.38 1.53-3.56 1.47-1.15-.07-2.24-.66-3.22-1.76l-14.73-16.48c-.98-1.1-1.45-2.24-1.38-3.4.07-1.18.71-2.34 1.85-3.37 2.3-2.06 4.77-1.95 6.78.29l3.1 3.46 4.11-3.68-2.91-3.26c-4.1-4.58-9.3-4.66-14.28-.21zm25.76-20.09c-2.82 1.92-4.56 4.26-5.04 6.78-.44 2.33.16 4.73 1.8 7.13l12.13 17.81c1.6 2.35 3.67 3.83 5.98 4.26 2.53.48 5.35-.28 8.15-2.19 2.82-1.92 4.56-4.26 5.04-6.78.44-2.33-.16-4.73-1.8-7.13l-3.12-4.58-4.56 3.11 3.28 4.81c.83 1.22 1.14 2.41.93 3.55-.22 1.16-1.01 2.23-2.28 3.1-2.55 1.74-4.99 1.31-6.68-1.17l-12.44-18.27c-.83-1.22-1.14-2.41-.93-3.55.22-1.16 1.01-2.23 2.28-3.1 2.55-1.74 4.99-1.31 6.68 1.17l2.62 3.84 4.56-3.11-2.46-3.61c-1.63-2.4-3.64-3.84-5.98-4.28-2.52-.48-5.33.29-8.15 2.21zm32.36-18 25.49 31.74-5.25 2.61s-4.89-6.27-5.22-6.69c-.47.23-8.46 4.21-8.93 4.45.14.51 2.19 8.2 2.19 8.2l-4.9 2.44-10-39.44 6.63-3.3zm4.91 27.67c.66-.33 6.62-3.29 7.28-3.62-.47-.6-10.79-13.73-12.56-15.98.74 2.76 5.08 18.87 5.28 19.6m32.01-39.31c1.9.94 3.29 2.78 4.24 5.62l.51 1.53c.43 1.27.64 2.46.64 3.55 0 2.13-.86 3.89-2.47 5.31 3.69-.01 6.26 2.07 7.64 6.2l1.07 3.17c.92 2.75.89 5.15-.1 7.14-1.13 2.28-3.54 4.05-7.16 5.27l-10.45 3.51-12.66-37.7 9.96-3.35c3.74-1.26 6.61-1.34 8.78-.27zm-11.78 6.19c.21.61 3.63 10.79 3.83 11.4.56-.19 3.74-1.26 3.74-1.26 2.85-.96 4.18-2.27 4.18-4.29 0-.67-.14-1.42-.43-2.25l-.64-1.9c-.59-1.77-1.33-2.81-2.31-3.3s-2.26-.44-4.01.14zm5.32 15.82c.21.61 4.17 12.43 4.38 13.04.58-.2 4.98-1.67 4.98-1.67 2.51-.84 3.68-2.05 3.68-3.94 0-.68-.15-1.44-.44-2.31l-1.07-3.18c-1.3-3.86-3.27-4.72-7.53-3.28 0 0-3.43 1.15-3.99 1.34z" fill="#f2c100"/></g><path d="m216.292 140.541 5.638-1.27 8.744 38.796-5.639 1.271z" fill="#f2c100"/><path d="m246.55 135.08.3 4.65s7.42-.48 8.06-.52c.04.68 2.27 35.03 2.27 35.03l5.77-.37s-2.22-34.35-2.27-35.03c.64-.04 8.06-.52 8.06-.52l-.3-4.65-21.88 1.42zm30.53 38.39 19.35 1.12.27-4.65s-12.93-.75-13.59-.79c.04-.65.76-13.09.8-13.73.65.04 11.05.64 11.05.64l.27-4.65s-10.4-.6-11.05-.64c.04-.64.66-11.37.7-12.01.66.04 13.59.79 13.59.79l.27-4.65-19.36-1.13-2.31 39.7zm25.43 1.98 18.5 3.34.83-4.59s-12.17-2.2-12.82-2.31l6.24-34.55-5.69-1.03zm58.28-25.82 6.88 2.71-6.51 40.18-5.46-2.15s1.38-7.83 1.48-8.36c-.49-.19-8.8-3.47-9.29-3.66-.29.45-4.62 7.12-4.62 7.12l-5.09-2.01 22.6-33.84zm-10.38 24.89c.68.27 6.88 2.71 7.56 2.98.13-.75 2.97-17.21 3.46-20.03-1.55 2.4-10.62 16.41-11.03 17.04zm20.47 23.23 6.42 3.56 26.46-30.8-4.73-2.62s-18.83 22.27-20.87 24.69c.97-3.01 9.87-30.78 9.87-30.78l-5.12-2.84-12.03 38.8z" fill="#f2c100" fill-rule="evenodd"/><path d="m390.36 209.54 22.85-32.55 4.732 3.322-22.851 32.55z" fill="#f2c100"/><g fill-rule="evenodd"><path d="m407.08 222.2 5.54 4.82 32.31-24.59-4.07-3.55s-23.07 17.85-25.57 19.78c1.57-2.74 16.08-28.04 16.08-28.04l-4.42-3.85zm24.77 24.43 3.57 4.55s13.53-10.6 14.06-11.02l6.47 8.25 3.67-2.87s-6.06-7.74-6.47-8.25c.51-.4 9.4-7.37 9.91-7.76.41.52 8.03 10.25 8.03 10.25l3.67-2.87-11.6-14.8-31.3 24.53zm41.04 3.66-18.49 11.06c-2.44 1.46-4.04 3.44-4.61 5.71-.63 2.5-.04 5.35 1.7 8.27 1.75 2.93 3.99 4.8 6.47 5.43 2.3.58 4.73.12 7.22-1.37l4.75-2.84-2.83-4.73-4.99 2.99c-2.58 1.54-4.97.91-6.55-1.74-1.59-2.65-1.02-5.06 1.56-6.6l18.97-11.34c2.58-1.54 4.97-.91 6.55 1.74.79 1.32 1.06 2.62.77 3.77-.28 1.12-1.07 2.07-2.33 2.83l-3.99 2.39 2.83 4.74 3.75-2.24c5.28-3.15 6.34-8.25 2.91-13.98-1.75-2.93-3.99-4.8-6.47-5.43-2.3-.58-4.73-.12-7.22 1.37z" fill="#f2c100"/><path d="m273.51 41.6-24.23 33.35 9.31-28.63 14.88-4.84.17-.04z" fill="url(#A)"/><path d="m273.43 41.37-39.2-12.74 24.36 17.69 14.88-4.84.17-.04z" fill="url(#B)"/><path d="m273.83 41.69 24.16 33.26-9.3-28.63-14.86-4.83-.19-.05z" fill="url(#C)"/><path d="m273.49 41.24-9.16-12.61 9.31-28.63v41.44z" fill="url(#D)"/><path d="m273.64 41.44.19-.07 39.21-12.74h-30.1l-9.2 12.66z" fill="url(#E)"/><path d="m273.64 41.44v-41.44l9.3 28.63-9.2 12.66z" fill="url(#F)"/><path d="m273.43 41.37-39.2-12.74h30.1l9.16 12.61.15.2z" fill="url(#G)"/><path d="m273.64 41.44.19-.07 39.21-12.74-24.35 17.69-14.86-4.83z" fill="url(#H)"/><path d="m273.83 41.69 24.16 33.26-24.35-17.69v-15.82z" fill="url(#I)"/><path d="m273.64 41.44v15.82l-24.36 17.69 24.23-33.35z" fill="url(#J)"/><path d="m491.74 120.94-40 9.97 25.53-15.95 14.52 5.86.15.07z" fill="url(#K)"/><path d="m491.83 120.7-21.84-34.95 7.28 29.21 14.52 5.86.15.07z" fill="url(#L)"/><path d="m491.92 121.21-2.87 41 11.28-27.91-8.28-13.24-.11-.17z" fill="url(#M)"/><path d="m491.96 120.64 1.09-15.54 25.53-15.95-26.64 31.74z" fill="url(#N)"/><path d="m491.94 120.89.2.07 38.22 15.44-23.06-19.34-15.19 3.78z" fill="url(#O)"/><path d="m491.94 120.89 26.64-31.74-11.28 27.91-15.19 3.78z" fill="url(#P)"/><path d="m491.83 120.7-21.84-34.95 23.06 19.35-1.09 15.54-.02.25z" fill="url(#Q)"/><path d="m491.94 120.89.2.07 38.22 15.44-30.03-2.1-8.28-13.24z" fill="url(#R)"/><path d="m491.92 121.21-2.87 41-7.28-29.2 10.17-12.12z" fill="url(#S)"/><path d="m491.94 120.89-10.17 12.12-30.03-2.1 40-9.98z" fill="url(#T)"/><path d="m157.42 62.12-11.36 39.62-1.05-30.08 12.33-9.64.14-.1z" fill="url(#U)"/><path d="m157.27 61.92-41.2 1.44 28.94 8.3 12.33-9.64.14-.1z" fill="url(#V)"/><path d="m157.75 62.1 34.08 22.98-18.54-23.72-15.61.55-.2.01z" fill="url(#W)"/><path d="m157.28 61.78-12.92-8.71-1.05-30.09 14.17 38.94z" fill="url(#X)"/><path d="m157.48 61.92.16-.13 32.49-25.38-28.29 10.29-4.31 15.05z" fill="url(#Y)"/><path d="m157.48 61.92-14.17-38.94 18.53 23.72-4.31 15.05z" fill="url(#Z)"/><path d="m157.27 61.92-41.2 1.44 28.29-10.29 12.92 8.71.2.14z" fill="url(#aa)"/><path d="m157.48 61.92.16-.13 32.49-25.38-16.84 24.95-15.61.55z" fill="url(#ab)"/><path d="m157.75 62.1 34.08 22.98-28.94-8.29-5.41-14.87z" fill="url(#ac)"/><path d="m157.48 61.92 5.41 14.87-16.83 24.95 11.36-39.62z" fill="url(#ad)"/></g></svg>