<svg viewBox="3.78 0 27.84 35.4" xmlns="http://www.w3.org/2000/svg"><path d="M17.7 34.74c-7.45 0-13.51-7.57-13.51-17.04S10.25.53 17.7.53s13.51 7.7 13.51 17.17-6.06 17.04-13.51 17.04"/><path d="M17.7 34.74c-7.45 0-13.51-7.57-13.51-17.04S10.25.53 17.7.53s13.51 7.7 13.51 17.17-6.06 17.04-13.51 17.04M17.7 0C10.02 0 3.78 7.94 3.78 17.7s6.24 17.7 13.92 17.7 13.92-7.94 13.92-17.7S25.38 0 17.7 0" fill="#fff"/><path d="M15.1 16.53v-3.52c-1.82.09-3.51.27-5.19.57V30.4c-.39-.39-.87-.88-1.23-1.33C6.25 26 4.9 21.85 4.9 17.39c0-3.67.79-7.13 2.47-9.94-1.78 2.79-2.85 6.34-2.85 10.28 0 9.28 5.91 16.42 13.17 16.42s13.17-7.14 13.17-16.42c0-3.94-1.07-7.49-2.85-10.28 1.68 2.82 2.47 6.28 2.47 9.95 0 4.46-1.34 8.61-3.77 11.68-.35.45-.84.94-1.23 1.33V13.58c-1.69-.3-3.37-.48-5.19-.57l.04 3.12-.04 12.99v4.3c-.86.22-1.7.34-2.6.34s-1.74-.12-2.6-.34V16.54z" fill="#0761af"/><path d="M27.39 12.48c0-.07-.08-.14-.18-.16-.13-.03-.19-.04-.32-.07 0 .1.01.15.02.24.13.03.19.04.32.07.1.02.17-.01.16-.09m-.52-.35c.12.02.18.04.3.06.11.02.16-.01.16-.08s-.07-.13-.17-.15c-.12-.02-.18-.04-.3-.06 0 .09.01.14.02.23m.55.16v.02c.11.05.18.14.19.24.02.18-.13.24-.39.19-.21-.05-.32-.07-.53-.11-.03-.38-.05-.57-.08-.96.21.04.31.06.51.11.25.05.4.18.41.35 0 .09-.04.15-.12.16m-2.02-.05a.32.32 0 0 1-.28-.29c-.01-.22-.02-.33-.04-.55-.09-.01-.13-.02-.22-.03.01.22.02.33.03.55.01.25.21.46.51.51.31.05.47-.1.45-.34-.02-.22-.02-.33-.04-.55-.09-.02-.13-.02-.22-.04.02.22.02.33.04.55.01.13-.06.23-.24.2m-1.77-1.06c-.09-.01-.13-.02-.22-.03l.05.95c.32.04.48.06.8.11 0-.07 0-.1-.01-.17-.23-.03-.35-.05-.58-.08-.02-.31-.02-.47-.04-.78m-1.31.01c.14.01.26.11.26.11.05-.05.07-.08.12-.13 0 0-.12-.13-.39-.16-.35-.04-.57.17-.56.44s.24.52.6.55c.26.03.38-.08.38-.08l-.13-.16s-.09.07-.25.06c-.21-.02-.36-.17-.37-.35 0-.18.13-.3.34-.28M19.66 11c.17 0 .28.1.28.1.05-.06.08-.08.13-.14 0 0-.12-.13-.41-.14-.36-.02-.58.2-.57.48 0 .27.23.5.59.52.34.01.52-.17.51-.45v-.09c-.22-.01-.33-.02-.55-.03v.16c.12 0 .19 0 .31.01 0 .14-.11.23-.28.22-.21 0-.35-.15-.35-.33s.14-.31.35-.3m-2.35-.22v.95h.22v-.58l.73.58h.05v-.95h-.22v.57c-.29-.23-.44-.34-.73-.57zm-.82.02h-.22c0 .38 0 .57-.01.95h.22c0-.38 0-.57.01-.95m-1.32 1c0-.31.01-.47.02-.78.14 0 .21-.01.35-.02v-.17l-.93.05v.17c.14-.01.21-.02.36-.02 0 .31-.01.47-.02.78.09 0 .13 0 .22-.01m-1.95-.29c.11-.01.16-.02.27-.03.14-.01.22-.07.23-.19 0-.11-.08-.16-.22-.15-.11.01-.16.02-.26.02 0 .13 0 .2-.01.33m-.21-.46l.49-.05c.28-.03.44.08.44.29 0 .14-.09.24-.22.31v.01c.1.11.15.17.25.28v.02c-.1 0-.15.01-.25.02-.09-.11-.14-.16-.23-.27-.11.01-.17.02-.28.03 0 .12 0 .17-.01.29-.09 0-.13.01-.22.02.02-.38.02-.57.04-.95m-1.34.32c-.2.03-.35.18-.36.36s.13.29.33.27c.21-.03.36-.18.37-.36 0-.18-.13-.3-.33-.27m.55.24c-.01.27-.24.52-.6.57s-.56-.14-.55-.42c.02-.27.25-.53.6-.58.36-.05.56.15.55.42m-2.25.04c-.11.02-.16.03-.26.05-.01.14-.01.2-.02.34l.27-.05c.14-.02.23-.09.24-.21 0-.11-.07-.15-.22-.13m.43.08c-.01.22-.21.37-.48.42l-.26.05c0 .11-.01.17-.02.29-.09.02-.13.02-.22.04.03-.38.04-.57.07-.96.2-.04.29-.05.49-.09.27-.05.43.05.42.25m-2.14.87c-.18.04-.31-.02-.31-.02-.05.07-.08.1-.13.17 0 0 .14.09.43.03.3-.06.44-.22.45-.39.01-.15-.1-.21-.36-.22-.16 0-.22-.02-.21-.08 0-.06.07-.11.18-.13.18-.04.28.02.28.02l.13-.18s-.11-.08-.4-.02c-.28.06-.43.2-.44.38-.01.15.11.2.35.21.18 0 .23.03.22.09 0 .06-.06.12-.19.14m10.66-3.3c-.59-.02-1.17-.2-1.66-.51-.26.32-.4.48-.67.81.65.49 1.55.64 2.34.67.96.03 2.28-.3 2.26-1.53-.02-1.07-1.18-1.46-1.99-1.71-.41-.13-1.09-.24-1.13-.67-.03-.27.31-.5.9-.49.52.01 1.04.18 1.46.48.23-.32.35-.47.58-.78-.58-.46-1.33-.57-2.02-.61-.9-.05-2.09.37-2.15 1.48-.06.98 1.1 1.34 1.85 1.53.4.1 1.19.27 1.21.79.01.31-.28.57-.97.55M15.71 5.1c-.43.03-.65.04-1.08.07-.13 1.66-.27 3.36-.4 5.11.47-.04.7-.06 1.17-.09.11-1.74.21-3.44.31-5.1m-6 3.41c.55-.11.82-.16 1.38-.25.59-.08 1.19-.44 1.27-1.08.08-.62-.54-.83-1.04-.71-.53.09-.8.13-1.33.24-.09.6-.18 1.2-.28 1.8M9.33 11l-1.18.25c.3-1.78.6-3.52.89-5.22.81-.18 1.62-.33 2.43-.47 1.01-.18 2.15.21 2.02 1.42-.13 1.3-1.42 1.97-2.57 2.16-.54.09-.81.14-1.36.25l-.24 1.6m14.21-1.96l2.01.27-1.04-2.17zm-.71 1.4c-.53-.05-1.33-.11-1.33-.11l2.75-4.85.4.03 2.98 5.67-1.3-.26-.39-.77-2.78-.38s-.21.4-.34.66m6.37 4.12c-3.46-1.22-7.35-1.97-11.48-1.97s-8.02.75-11.48 1.97c3.46-1.04 7.35-1.53 11.48-1.53s8.02.49 11.48 1.53m-9.51 17.45s0-.06-.02-.08c-.01-.02-.02-.05-.05-.07-.02-.02-.04-.03-.06-.05-.02-.01-.05-.02-.08-.02s-.06 0-.08.02c-.02.01-.05.02-.07.05-.02.02-.03.04-.05.07-.01.02-.02.05-.02.08s0 .06.02.08c.01.03.02.05.05.07.02.02.04.03.07.04.02 0 .05.02.08.02s.06 0 .08-.02c.02-.01.05-.03.06-.04.02-.02.03-.04.05-.07.01-.03.02-.05.02-.08m-.43.77l.27-.42s-.03 0-.05.01h-.06c-.05 0-.1 0-.14-.03s-.08-.04-.11-.08-.05-.07-.07-.12c-.02-.04-.02-.09-.02-.14 0-.06.01-.11.03-.16a.4.4 0 0 1 .08-.12c.04-.03.08-.06.13-.08s.1-.03.16-.03.11 0 .16.03c.05.02.09.04.13.08.04.03.06.07.08.12s.03.1.03.16-.01.11-.03.16-.05.1-.08.15l-.29.46h-.23zm-1.18-.57v.12c0 .04.01.09.03.13s.04.08.07.11.07.04.12.04.09-.01.11-.04c.03-.03.05-.06.07-.11s.02-.09.03-.13v-.24c0-.05-.01-.09-.03-.13a.4.4 0 0 0-.07-.11c-.03-.03-.07-.04-.11-.04s-.09.01-.12.04-.05.07-.07.11-.02.09-.03.13zm-.19 0c0-.09 0-.17.02-.23.01-.06.03-.12.06-.16.02-.04.05-.08.08-.1q.045-.045.09-.06l.09-.03h.14q.045 0 .09.03.045.015.09.06c.03.03.06.06.08.1s.04.1.06.16.02.14.02.23 0 .17-.02.23c-.01.06-.03.12-.06.16-.02.04-.05.08-.08.1q-.045.045-.09.06l-.09.03h-.14q-.045 0-.09-.03a.24.24 0 0 1-.09-.06c-.03-.03-.06-.06-.08-.1s-.04-.1-.06-.16-.02-.14-.02-.23m-.58-.2s0-.06-.02-.08-.02-.05-.04-.07-.04-.03-.06-.05c-.03-.01-.05-.02-.08-.02s-.06 0-.08.02c-.02.01-.05.02-.07.05-.02.02-.03.04-.04.07-.01.02-.02.05-.02.08s0 .06.02.08.02.05.04.07.04.03.07.04c.02 0 .05.02.08.02s.06 0 .08-.02c.02-.01.05-.03.06-.04s.03-.04.04-.07.02-.05.02-.08m-.43.77l.27-.42s-.03 0-.05.01h-.06c-.05 0-.1 0-.14-.03a.3.3 0 0 1-.11-.08.4.4 0 0 1-.07-.12c-.02-.04-.02-.09-.02-.14 0-.06.01-.11.03-.16a.4.4 0 0 1 .08-.12c.04-.03.08-.06.13-.08s.1-.03.16-.03.11 0 .16.03c.05.02.09.04.13.08.04.03.06.07.08.12s.03.1.03.16-.01.11-.03.16-.05.1-.08.15l-.29.46h-.24zm-1.01-.92l-.21.2-.11-.13.34-.29h.18v1.14h-.19v-.92z" fill="#fff"/><path d="M20.99 22.51a4.991 4.991 0 1 1-9.982-.002 4.991 4.991 0 0 1 9.982.002" fill="#e30613"/><path d="M16.01 17.12c-2.97 0-5.39 2.42-5.39 5.39s2.42 5.39 5.39 5.39 5.38-2.42 5.38-5.39-2.42-5.39-5.38-5.39m0 .4a4.991 4.991 0 1 1-.002 9.982 4.991 4.991 0 0 1 .002-9.982"/><path d="M19.11 21.81c-1.65.5-2.88.57-2.88.57s.07-1.23.57-2.88c-.52-.2-.79-.49-.79-.49s-.27.28-.79.49c.5 1.65.57 2.88.57 2.88s-1.23-.07-2.88-.57c-.2.52-.48.79-.48.79s.28.27.48.79c1.65-.5 2.88-.57 2.88-.57s-.07 1.23-.57 2.88c.52.2.79.49.79.49s.27-.28.79-.49c-.5-1.65-.57-2.88-.57-2.88s1.23.07 2.88.57c.2-.52.48-.79.48-.79s-.28-.27-.48-.79m-.02-.17c.22 0 .39-.18.39-.39s-.18-.39-.39-.39a.39.39 0 0 0 0 .78m0 1.93c-.22 0-.39.18-.39.39s.18.39.39.39a.39.39 0 0 0 0-.78m1.06-1.36c-.22 0-.39.17-.39.39a.39.39 0 1 0 .39-.39m-7.23 1.36a.39.39 0 1 0 .39.39c0-.22-.17-.39-.39-.39m0-1.93c.22 0 .39-.18.39-.39s-.18-.39-.39-.39-.39.17-.39.39.17.39.39.39m-1.06.57a.39.39 0 1 0 .001.781.39.39 0 0 0-.001-.781m5.5 3.09c-.21 0-.39.18-.39.39s.18.39.39.39a.39.39 0 0 0 0-.78m-2.71 0c-.21 0-.39.18-.39.39s.18.39.39.39.39-.17.39-.39-.17-.39-.39-.39m1.36 1.06c-.22 0-.39.17-.39.39s.18.39.39.39.39-.18.39-.39a.39.39 0 0 0-.39-.39m-1.36-6.45c.22 0 .39-.17.39-.39s-.17-.39-.39-.39-.39.17-.39.39.17.39.39.39m2.71 0c.22 0 .39-.17.39-.39a.39.39 0 1 0-.39.39m-1.74-1.45c0-.22.18-.39.39-.39s.39.18.39.39-.18.39-.39.39-.39-.18-.39-.39" fill="#fff"/><path d="M18.54 19.06h-.39l.32.32-.32 1.6h5.76l.38-1.92z" fill="#fff"/><path d="M24.78 18.66h-7.59l.68.68.17.17-.28 1.39-.1.48h6.57l.06-.32.38-1.92.1-.48zm-.49.4l-.38 1.92h-5.76l.32-1.6-.32-.32z"/><path d="M17.16 25.96h-.38l.32.32-.32 1.6h5.75l.38-1.92z" fill="#fff"/><path d="M15.81 25.56l.68.68.17.17-.28 1.39-.1.48h6.57l.06-.32.38-1.92.1-.48H15.8zm7.1.4l-.38 1.92h-5.75l.32-1.6-.32-.32z"/><path d="M22.91 18.67l.39-1.91h-3.15l.32.32-.32 1.59z" fill="#fff"/><path d="M23.78 16.36h-4.6l.68.68.17.17-.28 1.39-.06.29h3.58l.03-.13.38-1.92zm-.48.4l-.38 1.92h-2.76l.32-1.6-.32-.32h3.15z"/><path d="M17.62 23.66h-.38l.31.32-.31 1.6h5.75l.38-1.92z" fill="#fff"/><path d="M23.86 23.26h-7.59l.68.68.17.17-.28 1.39-.1.48h6.57l.06-.32.38-1.92.1-.48zm-.49.4l-.38 1.92h-5.75l.32-1.6-.32-.32h6.14z"/><path d="M18.08 21.36h-.39l.32.32-.32 1.6h5.76l.38-1.92z" fill="#fff"/><path d="M24.32 20.96h-7.59l.68.68.17.17-.28 1.39-.1.48h6.57l.06-.32.38-1.92.1-.48zm-.49.4l-.38 1.92H17.7l.32-1.6-.32-.32h6.14z"/></svg>