<svg viewBox="2.5 2.5 495 595" xmlns="http://www.w3.org/2000/svg"><path d="m244.53 2.516c-14.8.515-32.376 2.261-60.389 4.96-62.06 5.983-79.35 7.218-112.892 3.024-21.387-2.672-50.33-7.918-54.198-7.864.12 3.891-6.156 38.528-6.195 38.722-1.896 9.482-3.562 23.186-5.833 48.038-7.477 81.858 1.824 167.697 25.883 239.472 23.864 71.19 60.956 134.9 108.272 186.229 21.197 22.993 52.344 47.078 75.702 64.735 1.87 1.286 28.258 17.127 35.121 17.669 6.86-.542 33.247-16.38 35.118-17.669 23.358-17.657 54.506-41.742 75.706-64.735 47.316-51.33 84.408-115.039 108.268-186.23 24.063-71.774 33.364-157.609 25.886-239.47-2.27-24.853-3.939-38.556-5.832-48.04-.04-.193-6.32-34.83-6.199-38.721-3.865-.054-32.811 5.192-54.198 7.864-33.543 4.194-50.831 2.959-112.884-3.024-28.923-2.788-46.756-4.507-61.855-4.96-1.361-.039-2.691.023-4.01 0-1.322.023-2.652-.039-4.012 0-.467.015-.98-.016-1.459 0" fill="#ecac00"/><path d="m239.763 15.015c-70.897 5.92-144.394 17.625-214.205 2.09-9.071 60.724-16.254 122.728-8.904 184.51 12.484 139.739 78.963 279.661 195.316 362.525 7.208 5.134 32.615 20.892 37.636 20.896 5.325.005 30.383-15.24 36.67-19.629 143.334-100.043 208.609-281.913 199.23-452.667-1.999-32.034-4.294-65.892-12.615-95.881-63.472 14.612-129.484 6.264-193.771-.53-13.08-1.094-26.232-1.588-39.356-1.314" fill="#8b2a1f"/><g fill="#f8fbfd" stroke="#ecac00" transform="matrix(3.88854 0 0 3.87219 -1189.333 -1739.203)"><path d="m388.96 498.016v18.135h5.163v-6.917h4.977v-4.135h-5.065v-2.86h9.187v-4.223z" stroke-width="1.081553"/><path d="m413.249 498.184c-4.09.403-7.312 4.263-7.312 8.937 0 4.942 3.583 8.97 8.007 8.97 2.882 0 5.429-1.714 6.849-4.272l-4.037-1.019c-.13.134-.28.245-.43.362-6.183 3.214-7.531-7.95-2.702-8.606.045-.006.092-.025.132-.033.017-.003.05 0 .067 0 1.24-.054 2.18.172 2.9.95l4.037-1.117c-1.427-2.513-3.958-4.172-6.816-4.172-.208 0-.392-.018-.596 0-.032.003-.067-.003-.1 0z" stroke-width="1.055088"/></g><path d="m243.248 29.582c-1.939.014-3.877.034-5.818.077-1.001.023-2.033.085-3.035.116-65.12 5.307-132.395 14.118-196.735 4.37a625 625 0 0 0 -8.389 120.859h441.563c.893-41.152-2.639-82.195-10.535-121.841-41.92 10.552-87.114 4.309-130.03 1.693-28.968-2.42-57.93-5.475-87.02-5.274" fill="#fffbff"/><path d="m29.174 155.004h441.65v7.672h-441.65z" fill="#5b8cc1" opacity=".96"/><g fill="#8b2a1f" stroke="#ecac00"><path d="m56.261 55.559v21.409h19.442v60.99h18.82v-60.99h20.066v-21.409z" stroke-width="4.106558"/><path d="m270.009 55.188h18.957v82.895h-18.957zm31.23-.27v82.925h18.713v-37.214l27.95 36.855.485.598h18.47v-83.164h-19.442v41.403l-30.622-41.283v-.12zm-104.99-.3v83.464h18.818v-30.977h12.29l11.665 30.978h22.111l-13.848-35.72c9.112-2.754 11.18-12.335 11.18-23.573 0-12.723-8.618-23.158-19.565-24.17h-42.651zm18.783 18.109h20.101c4.281.132 7.656 2.808 7.656 8.05 0 5.24-3.375 8.29-7.656 8.423h-20.101z" stroke-width="3.858718"/><path d="m151.726 54.31c-18.09 1.374-32.566 19.56-32.566 41.761 0 23.096 15.644 41.881 34.754 41.881s34.51-18.785 34.51-41.881-15.4-41.761-34.51-41.761c-.299 0-.554-.008-.851 0-.438.011-.902-.035-1.337 0zm.851 21.692c.07-.012.05.012.121 0 19.559-.849 21.484 38.076 2.917 42.41-20.698 1.973-23.55-39.187-3.038-42.41zm254.457-21.692c-18.09 1.374-32.567 19.56-32.567 41.761 0 23.096 15.644 41.881 34.754 41.881s34.51-18.785 34.51-41.881-15.4-41.761-34.51-41.761c-.299 0-.554-.008-.85 0-.439.011-.903-.035-1.337 0zm.85 21.692c.07-.012.05.012.121 0 19.56-.849 21.484 38.076 2.917 42.41-20.697 1.973-23.55-39.187-3.038-42.41z" stroke-width="4.119617"/></g><g fill="#fff"><path d="m80.824 187.733c-2.858.25-3.98.506-5.401 1.192-1.325.64-2.901 1.366-4.137 2.816-2.309 2.707-2.838 3.723-2.878 7.7-.022 2.253 1.12 4.2 2.231 5.334 1.839 1.877 3.765 2.765 7.656 3.15 2.786.274 5.632-.25 6.644-.795a27.863 27.746 0 0 1 1.225-.62c.461-.219.611-.376.642-.36.115.064-.157.99-.237 1.224-.254.727-1.137 1.965-2.612 3.54-1.765 1.886-4.11 3.332-6.557 4.107-1.311.415-3.485 1.125-3.95 1.263-.049.014-.05-.028-.044.028l.497 4.126c0 .008 1.25-.089 2.684-.35 7.257-1.327 13.42-6.629 15.127-13.012 1.415-7.108 1.986-15.31-5.942-18.386-1.403-.544-3.033-.909-4.948-.957m.05 5.27c1.699-.012 3.42.424 4.825 1.414 2.238 1.579 2.443 5.391.39 7.217-4.233 3.76-12.598 1.613-12.598-3.235 0-3.187 3.644-5.372 7.383-5.397m28.918-4.876c-4.171-.002-8.316 1.996-10.367 5.993-1.804 3.513-2.48 12.847-1.212 16.72 1.309 3.994 3.915 7.19 7.01 8.6 5.313 2.42 11.63.05 14.937-5.605 2.253-3.852 2.349-15.654.16-19.711-2.156-3.999-6.356-5.996-10.527-5.997m.04 5.253c1.991 0 3.98.753 5.097 2.258 3.258 4.396 2.936 14.434-.58 17.974-2.626 2.646-6.173 2.575-8.905-.178-3.659-3.685-4.037-13.297-.702-17.796 1.115-1.505 3.102-2.258 5.091-2.258"/><path d="m57.765 187.992h4.993v31.735h-4.993z"/><path d="m138.68 220.81c2.858-.25 3.98-.507 5.401-1.193 1.325-.64 2.901-1.365 4.137-2.815 2.309-2.708 2.838-3.723 2.878-7.701.022-2.253-1.12-4.199-2.231-5.333-1.838-1.877-3.765-2.766-7.656-3.15-2.786-.274-5.632.25-6.644.795-.505.272-.97.497-1.225.62-.461.219-.611.375-.642.359-.115-.064.157-.99.237-1.223.254-.727 1.137-1.966 2.612-3.54 1.765-1.886 4.11-3.332 6.557-4.108 1.311-.415 3.485-1.124 3.95-1.263.049-.014.05.029.044-.028l-.497-4.125c0-.009-1.25.088-2.684.35-7.257 1.326-13.42 6.628-15.127 13.012-1.415 7.107-1.986 15.309 5.942 18.385 1.403.544 3.033.91 4.947.957m-.049-5.269c-1.699.012-3.42-.424-4.824-1.414-2.238-1.58-2.445-5.392-.39-7.217 4.232-3.76 12.597-1.614 12.597 3.235 0 3.186-3.644 5.372-7.383 5.396"/><path d="m273.715 520.614-2.19-1.957 7.453-11.557c4.099-6.357 8.18-13.153 9.07-15.104.889-1.95 3.56-5.48 5.937-7.843 4.912-4.884 9.862-14.29 10.507-19.966.535-4.712-1.016-7.354-12.923-22.006-14.707-18.097-19.9-26.654-21.859-36.016-1.801-8.61 1.653-20.66 8.534-29.772l4.157-5.503-4.616 4.47c-9.21 8.92-12.725 19.884-10.083 31.44 2.344 10.25 2.336 10.28-2.521 10.543-7.054.38-11.916-3.855-12.97-11.298-.46-3.254-.551-2.879-.647 2.675-.199 11.557-3.699 12.939-32.77 12.939h-17.131l-2.56 2.137c-1.666 1.39-2.564 2.904-2.572 4.334-.021 3.612-.928 4.227-6.036 4.093-5.713-.149-7.728 1.292-8.712 6.229-1.195 5.999-9.465 10.449-19.418 10.449-3.974 0-8.914-1.902-9.61-3.7-.646-1.671 7.154-11.942 15.486-20.392 3.44-3.49 8.689-8.834 11.663-11.878 8.045-8.233 9.11-8.568 27.298-8.59l15.234-.018-.65-3.921c-1.125-6.782-.555-26.771.927-32.51 2.356-9.125 4.927-10.406 17.225-8.583 4.26.631 7.828 1.067 7.928.968.665-.66-5.5-10.644-11.18-18.107-7.034-9.243-10.601-15.516-11.559-20.33-.493-2.48-.38-2.754.924-2.257 3.605 1.373 16.281 3.014 23.28 3.014 9.422 0 15.08-1.553 18.38-5.044l2.461-2.606-3.687 2.38c-3.571 2.306-4 2.378-13.727 2.294-12.203-.105-15.382-1.002-41.851-11.806-20.586-8.403-36.863-14.08-40.417-14.1-2.866-.014-5.526 1.27-7.35 3.548-.88 1.098-2.376 1.73-4.16 1.76l-2.787.047-.062 5.365c-.086 7.448-.664 8.652-5.17 10.78-8.796 4.151-17.878 5.384-20.5 2.783-1.841-1.828-1.943-1.571 4.76-11.982 3.338-5.183 6.926-11.183 7.974-13.335 2.524-5.182 8.218-10.073 13.213-11.35 2.17-.556 7.893-1.205 12.718-1.444 10.605-.526 16.93.606 35.977 6.435 7.34 2.247 13.523 3.907 13.741 3.69.64-.635-7.162-3.706-14.813-5.832a2269 2269 0 0 1 -10.816-3.03l-3.744-1.067 6.497-.242c5.767-.215 23.25 1.528 28.857 2.877 1.99.479 2.022.43.694-1.067-2.39-2.694-2.57-5.473-.678-10.487.975-2.586 2.107-4.702 2.516-4.702 2.128 0 6.696-5.407 7.864-9.309 1.96-6.55 1.49-7.104-1.31-1.543-3.476 6.903-6.412 8.957-14.921 10.442-7.942 1.385-10.8 2.902-10.8 5.73 0 3.938-8.069 4.764-12.336 1.265-2.558-2.098-2.044-4.393 1.105-4.934 2.86-.492 3.604-2.498 1.648-4.439-2.651-2.63-6.812 1.726-5.912 6.19.38 1.886.183 2.374-.956 2.364-5.86-.052-6.544-10.12-2.097-30.897 1.624-7.59 1.895-10.2 1.178-11.34-1.53-2.429-1.071-7.241 1.33-13.966l2.262-6.336-2.994-3.288c-1.647-1.809-3.499-4.73-4.116-6.492-1.524-4.35-1.288-13.653.507-19.943 1.634-5.727 2.91-7.343 2.91-3.684 0 5.026 2.556 11.064 6.417 15.16 2.087 2.214 4.081 4.025 4.431 4.025s.897-2.136 1.215-4.746 1.218-6.79 1.998-9.288l1.42-4.54 1.074 5.346c1.344 6.686 3.221 10.334 7.294 14.17 5.249 4.943 7.656 5.704 23.491 7.426 26.668 2.9 37.91 6.838 47.94 16.79 10.372 10.292 12.765 17.248 15.34 44.598 2.1 22.283 5.553 50.028 7.191 57.775 4.816 22.76 33.757 52.129 44.028 44.676 3.774-2.738 1.029-10.605-8.466-24.267-5.827-8.385-14.434-23.224-14.434-24.887 0-2.871 20.8 24.699 29.59 39.222 8.29 13.694 10.132 20.383 7.557 27.435-2.342 6.414-11.204 11.654-17.911 10.59l-3.068-.487-.97 8.055c-1.748 14.498-4.227 18.547-19.982 32.637-5.258 4.702-4.631 7.404 3.453 14.874l4.068 3.759-.508 4.256c-.563 4.717-3.377 9.11-7.056 11.018-5.298 2.746-10.117 10.676-11.832 19.472-1.336 6.85-2.092 8.068-6.195 9.981-2.073.967-3.812 1.996-3.866 2.286-.053.291-.197 3.289-.32 6.662-.261 7.117-.184 7.029-9.481 10.881-8.745 3.624-16.354 4.193-19.422 1.453m48.172-70.916c-3.935-4.343-6-8.869-5.285-11.583.594-2.255-.4-1.985-3.139.85l-2.363 2.448 2 2.988c1.543 2.308 10.686 9.34 12.267 9.436.157.009-1.41-1.853-3.48-4.14m12.352-28.268c3.565-4.134 6.096-11.744 6.774-20.37l.49-6.23-2.69 2.587c-2.549 2.451-2.697 2.927-2.832 9.08-.17 7.834-1.993 12.327-7.75 19.108l-3.98 4.686 3.52-2.722c1.936-1.497 4.846-4.26 6.468-6.14m-6.987-54.667c-5.036-5.421-10.17-13.659-16.284-26.133-5.873-11.98-7.728-19.027-9.744-37.01-.56-5-1.368-9.09-1.796-9.09-1.257 0-.052 28.581 1.424 33.77 3.768 13.246 15.643 31.7 25.062 38.949 5.347 4.115 5.545 4.043 1.338-.486m-126.267-131.927c4.395-.67 5.542-1.86 5.542-5.744v-3.323l-1.872 2.805c-1.03 1.543-3.454 3.534-5.387 4.426-1.933.89-3.703 2.107-3.933 2.702-.305.787-.028.883 1.019.352.79-.402 2.875-.95 4.631-1.218m29.223-13.773c11.227-1.155 14.744-3.3 12.13-7.4-.632-.993-1.081-.812-2.537 1.024-1.72 2.17-6.31 3.913-13.37 5.078-1.637.27-3.696 1.07-4.576 1.78-.88.709-1.17 1.077-.644.817s4.575-.844 8.997-1.299m-14.53-9.496c0-.879-.905-1.241-3.12-1.248-3.821-.012-10.478-1.717-14.234-3.645-1.538-.79-2.542-1.027-2.232-.53.646 1.038 6.038 3.873 10.39 5.464 4.228 1.546 9.197 1.524 9.197-.041m-41.129 128.987c-1.244-4.654-3.401-11.793-4.793-15.864-3.791-11.086-2.477-20.132 3.765-25.911l2.1-1.944 4.428 1.436c2.437.79 5.473 1.96 6.749 2.6l2.319 1.164-1.747 2.204c-1.286 1.622-1.688 3.157-1.523 5.82.168 2.71-.132 3.813-1.196 4.404-2.259 1.254-1.774 4.606.868 5.994 1.258.66 3.332 2.526 4.608 4.145 2.162 2.742 2.257 3.179 1.39 6.373-2.714 10.004-8.279 18.04-12.49 18.04-2.107 0-2.325-.411-4.478-8.461m186.908-4.7c-1.222-2.586-3.853-5.719-7.4-8.808-8.982-7.825-11.029-14.988-5.736-20.078 3.412-3.282 5-6.735 4.326-9.402-1.116-4.414-8.667-9.607-17.079-11.745-6.309-1.604-9.897-1.103-13.47 1.88l-2.616 2.184 1.712-3.33c4.247-8.261 14.22-9.545 30.472-3.923 18.56 6.42 23.14 17.117 15.253 35.615-2.43 5.698-2.735 7.27-2.735 14.052 0 4.2-.187 7.62-.416 7.602-.229-.019-1.269-1.84-2.311-4.047m-.48-13.93c.54-1.672 1.94-5.269 3.114-7.993 4.87-11.307 1.985-19.922-8.402-25.087-4.858-2.416-5.109-2.184-1.014.94 7 5.342 8.51 13.064 4.399 22.496-2.949 6.766-3.353 9.988-1.508 12.012 1.745 1.912 2.113 1.657 3.41-2.367"/></g></svg>