<svg width="159" height="122" fill="none" xmlns="http://www.w3.org/2000/svg"><mask id="a" style="mask-type:luminance" maskUnits="userSpaceOnUse" x="0" y="0" width="159" height="122"><path d="M158.058 0H0v121.438h158.058V0z" fill="#fff"/></mask><g mask="url(#a)"><path d="M151.114 4.854l-8.856 24.283h-52.32l8.837-24.283h52.339z" fill="#006937"/><path d="M59.385 4.854l8.856 24.283h-52.44L6.952 4.854h52.432z" fill="#FF6900"/><path d="M140.476 34l-3.541 9.724h-20.947l-1.774 4.862h20.946l-3.54 9.706h-20.947l-1.775 4.863h20.947l-3.541 9.724h-20.947l-1.765 4.863h20.946l-3.54 9.715h-20.947l-1.775 4.862h20.946l-3.54 9.716H94.744l-1.775 4.853h20.938l-3.541 9.706H63.25l5.306-14.559H58.083l-8.93-24.534 17.145-14.337V58.31l16.393-9.437 5.418-14.847h52.348l.019-.028zM85.358 63.144l1.766-4.853h-7.797l-8.429 4.853H85.36z" fill="#000"/><path d="M158.058 0l-44.282 121.438H44.273L0 0h62.794l16.235 44.652L95.366 0h62.692zm-15.799 29.137l8.857-24.284h-52.34l-8.828 24.284h52.321-.01zm-5.325 14.587L140.475 34H88.127l-5.418 14.847-16.393 9.437v4.853L49.17 77.474l8.93 24.534h10.474l-5.306 14.56h47.116l3.541-9.707H92.987l1.775-4.853H115.7l3.541-9.715H98.293l1.775-4.862h20.947l3.541-9.716h-20.947l1.766-4.862h20.946l3.541-9.725h-20.947l1.776-4.862h20.946l3.541-9.706h-20.947l1.775-4.863h20.947l-.019.028zm-61.938 3.962L70.006 34H17.572l30.1 82.577h10.409l3.54-9.706H54.69L43.436 75.942l18.02-15.07v-5.391l13.549-7.795h-.01zm-6.757-18.549L59.383 4.853H6.951l8.857 24.284h52.44-.009z" fill="#fff"/><path d="M87.123 58.293l-1.766 4.853h-14.45l8.428-4.862 7.788.009z" fill="#fff"/><path d="M70.006 34l4.99 13.686-13.54 7.795v5.39l-18.019 15.07 11.245 30.928h6.942l-3.541 9.707H47.675l-30.1-82.577h52.431z" fill="#000"/></g></svg>