<svg viewBox="0 0 78.9 87.31" xmlns="http://www.w3.org/2000/svg"><path d="m39.46 0c.479 0 .93 2.233 3.569 5.423 2.074 2.511 5.112 3.134 5.222 4.312.824-.2 1.749-.608 3.354-1.844 2.472-1.917 3.315-4.178 3.794-3.958s.83 3.963 2.693 6.171a13.4 13.4 0 0 0 3.354 2.693c.771.479 1.437.719 1.212.992-.374.407-4.183.771-6.382 3.08-1.221 1.284-1.59 3.464-1.59 3.464.824.053 5.112.384 7.186.604 1.438.149 5.932.56 6.123.714.192.153.091.177.106 2.783 0 .03 1.36-1.207 3.832-.656 4.983 1.466 5.807 6.52 5.587 6.89-.163.273-2.142-.273-2.362.66-.144.61.747 1.385 1.246 3.628a14.9 14.9 0 0 1 -.365 7.804c1.466-.325 2.63 1.529 2.2 1.735a3.95 3.95 0 0 0 -2.037 2.136c-.714 1.538-.225 2.765-.934 6.3-.22 1.103-.853 3.273-2.089 4.73.551.277.9 1.322.958 2.146.053 1.317-.254 2.477-.603 2.693-.35.215-1.28-.317-2.458 1.006l-1.155 1.293c-.44.48-.11.661.13.614 3.53-.676 6.094-1.778 6.434-1.548.264.177.134.407-3.253 7.613 5.203 4.566 5.75 4.935 5.663 5.27-.043.182-.235.307-1.322.604-7.22 1.983-20.77 3.536-22.954 2.007-.551-.383-.48-.867-.805-.876s-1.323 1.279-6.085 4.47a52 52 0 0 1 -8.279 4.36 52 52 0 0 1 -8.279-4.36c-4.762-3.191-5.792-4.48-6.085-4.47-.292.01-.254.479-.805.876-2.184 1.529-15.733-.024-22.954-2.007-1.087-.297-1.279-.422-1.322-.604-.067-.316.48-.685 5.663-5.27-3.387-7.187-3.517-7.436-3.253-7.613.34-.23 2.903.872 6.434 1.548.24.047.57-.12.13-.614l-1.14-1.303c-1.18-1.322-2.128-.805-2.458-1.006s-.657-1.375-.604-2.693c.034-.824.383-1.868.934-2.146-1.236-1.437-1.868-3.627-2.089-4.729-.709-3.536-.22-4.762-.934-6.3a3.95 3.95 0 0 0 -2.036-2.137c-.431-.206.733-2.06 2.199-1.734a14.9 14.9 0 0 1 -.364-7.805c.479-2.242 1.39-3.018 1.246-3.627-.22-.958-2.2-.388-2.362-.66-.22-.37.603-5.424 5.586-6.89 2.491-.551 3.833.685 3.833.656 0-2.606-.048-2.654.105-2.784.154-.13 4.7-.565 6.123-.714 2.09-.22 6.377-.55 7.187-.603 0 0-.37-2.18-1.59-3.464-2.2-2.31-6.009-2.674-6.383-3.08-.244-.274.441-.48 1.213-.993a13.4 13.4 0 0 0 3.353-2.692c1.888-2.2 2.219-5.903 2.693-6.157s1.322 2.05 3.794 3.958c1.605 1.236 2.53 1.643 3.354 1.844.11-1.183 3.148-1.806 5.222-4.312 2.67-3.195 3.12-5.428 3.599-5.428" fill="#fff"/><path d="m39.46 85.425a46.9 46.9 0 0 0 13.601-8.658 41.8 41.8 0 0 0 7.925-10.06h.158c5.002.713 7.493-2.876 8.734-4.313.628-.742 1.107-1.25 1.979-1.303.33 0 .326 0 .445-.062.12-.063.091-.69.091-.91a3.7 3.7 0 0 0 -.354-1.606 1.3 1.3 0 0 0 -.992-.737 11.13 11.13 0 0 0 2.731-5.84 27 27 0 0 0 .393-3.038 8.8 8.8 0 0 1 .32-2.372 4 4 0 0 1 .523-1.01c.225-.327.872-1.026.872-1.026.235-.254-.067-.48-.987-.48a3.4 3.4 0 0 0 -.719.106 19 19 0 0 0 1.04-5.826 12.25 12.25 0 0 0 -1.207-5.557c-.245-.48-.685-1.653-.355-2.324.556-1.136 1.763-.829 1.95-1.078.11-.153-.158-.738-.55-1.356-.533-.838-1.97-2.831-4.648-2.841-1.888 0-3.435 1.581-4.044 3.866a7 7 0 0 0 -.191 1.054v-7.129l-1.078-.12c-.087 0-5.683-.622-12.567-1.087.455-3.804 2.251-6.497 5.107-7.666a16 16 0 0 1 1.155-.421c.479-.159.69-.197.665-.393 0-.106-.172-.23-.608-.513a9.5 9.5 0 0 1 -1.107-.805 7.5 7.5 0 0 1 -1.993-2.601 8.7 8.7 0 0 1 -.704-1.946c-.082-.316-.13-.512-.254-.479-.125.034-.585.815-1.72 1.773a11 11 0 0 1 -3.397 2.046h-.048l-.527.158c-.33.081-.512.13-.512.278s.081.225.22.402a6 6 0 0 1 .58.887 5.2 5.2 0 0 1 .522 2.61c-1.14-1.485-3.181-2.682-5.725-3.353.282-.21.56-.388.804-.537.815-.479 1.558-.785 1.615-.958a.18.18 0 0 0 -.038-.158 1.6 1.6 0 0 0 -.48-.302l-.809-.479c-3.9-2.554-5.27-5.27-5.299-5.299-.307-.565-.407-.814-.532-.824-.124-.01-.225.259-.532.824 0 .024-1.399 2.745-5.299 5.3l-.81.478a1.6 1.6 0 0 0 -.478.302.18.18 0 0 0 -.039.158c.058.173.8.48 1.615.958.244.149.522.326.805.537-2.544.68-4.585 1.878-5.75 3.354a5.2 5.2 0 0 1 .523-2.611 6 6 0 0 1 .58-.887c.138-.177.225-.287.22-.402s-.182-.197-.513-.278l-.527-.158h-.048a11 11 0 0 1 -3.344-2.046c-1.135-.958-1.571-1.787-1.725-1.797-.153-.01-.172.187-.254.48a8.7 8.7 0 0 1 -.7 1.969 7.5 7.5 0 0 1 -1.987 2.596 9.5 9.5 0 0 1 -1.107.805c-.436.283-.599.408-.609.513-.024.196.197.235.666.393 0 0 .508.158 1.155.421 2.875 1.174 4.652 3.867 5.107 7.666-6.884.48-12.456 1.078-12.567 1.088l-1.078.12v7.157a7 7 0 0 0 -.191-1.054c-.609-2.285-2.156-3.876-4.044-3.866-2.678 0-4.115 2.003-4.647 2.841-.393.618-.661 1.203-.551 1.356.187.249 1.394-.058 1.95 1.078.33.67-.11 1.82-.355 2.324a12.25 12.25 0 0 0 -1.207 5.557 19 19 0 0 0 1.035 5.807 3.4 3.4 0 0 0 -.719-.105c-.92 0-1.222.22-.987.479 0 0 .647.7.872 1.025a4 4 0 0 1 .522 1.01 8.8 8.8 0 0 1 .321 2.372 27 27 0 0 0 .393 3.038 11.13 11.13 0 0 0 2.731 5.84 1.3 1.3 0 0 0 -.992.753 3.7 3.7 0 0 0 -.354 1.605c0 .22 0 .838.09.91.092.072.116.043.446.062.872.053 1.351.56 1.98 1.303 1.24 1.466 3.731 5.04 8.733 4.312h.158a41.8 41.8 0 0 0 7.925 10.061 46.9 46.9 0 0 0 13.602 8.639m-26.715-53.957v4.542a2.25 2.25 0 0 0 -1.246-.79h-.038a9.5 9.5 0 0 0 1.284-3.752m-1.773 11.949c.163-.158.426.105.546.771.058.297.25.268.48.029a4.8 4.8 0 0 0 .723-.882v3.315c-1.026-1.068-2.008-2.87-1.75-3.233m56.487-8.203h-.039a2.25 2.25 0 0 0 -1.245.79v-4.536a9.5 9.5 0 0 0 1.284 3.746m-1.29 11.413v-3.316a4.8 4.8 0 0 0 .724.882c.254.24.446.268.48-.029.12-.666.383-.93.546-.771.287.388-.671 2.19-1.75 3.234" fill="#59358c"/><path d="m39.46 6.013a14.8 14.8 0 0 0 4.407 4.091c-1.24.786-2.716 1.989-3.013 3.426a7 7 0 0 0 -.149 1.332 2.88 2.88 0 0 0 1.035 2.429 2.54 2.54 0 0 0 2.118.426c.896-.22 1.806-1.087 2.783-2.663l.096-.173c0 .077.024.139.024.144.48 2.84 1.437 3.435 2.185 3.43.747-.005 1.279-.431 1.72-1.236a6.2 6.2 0 0 0 .656-2.875 4.97 4.97 0 0 0 -.556-2.424 12.2 12.2 0 0 0 3.464-2.232 7.27 7.27 0 0 0 2.396 3.119c-2.008.761-5.189 3.684-5.701 8.796-3.747-.23-7.805-.403-11.466-.403s-7.718.173-11.465.403c-.531-5.127-3.693-8.05-5.7-8.777a7.27 7.27 0 0 0 2.395-3.12 12.2 12.2 0 0 0 3.464 2.233 4.97 4.97 0 0 0 -.556 2.425 6.2 6.2 0 0 0 .656 2.874c.441.805 1.035 1.236 1.72 1.236s1.706-.589 2.185-3.43v-.144l.096.173c.958 1.576 1.887 2.443 2.783 2.664a2.54 2.54 0 0 0 2.118-.427 2.88 2.88 0 0 0 1.035-2.448 7 7 0 0 0 -.149-1.332c-.297-1.437-1.772-2.64-3.013-3.426a14.8 14.8 0 0 0 4.431-4.091" fill="#c09949"/><path d="m33.15 19.984a.4.4 0 0 0 .052.177.26.26 0 0 0 .23.1.216.216 0 0 0 .24-.225.2.2 0 0 0 -.086-.167 2 2 0 0 0 -.297-.087.7.7 0 0 1 -.317-.124.58.58 0 0 1 -.196-.48.594.594 0 0 1 .618-.632.58.58 0 0 1 .551.254.8.8 0 0 1 .1.288l-.411.071c-.03-.158-.101-.22-.25-.215a.196.196 0 0 0 -.2.201.16.16 0 0 0 .09.149 1.3 1.3 0 0 0 .273.072.7.7 0 0 1 .317.124.56.56 0 0 1 .22.48.7.7 0 0 1 -.13.45.66.66 0 0 1 -.512.225.74.74 0 0 1 -.436-.1.52.52 0 0 1 -.216-.298 1 1 0 0 1 -.048-.225zm1.542-1.418v1.648a3 3 0 0 0 .024.359h-.43a2.5 2.5 0 0 0 0-.355v-1.648zm1.208.943c.057.1.096.178.148.278a3 3 0 0 1 0-.354v-.547a2.4 2.4 0 0 0 0-.359h.422a3 3 0 0 0 0 .364l.029 1.27a4 4 0 0 0 0 .36h-.427a3 3 0 0 0 -.158-.298l-.373-.647a2 2 0 0 1 -.149-.287v.891a4 4 0 0 0 0 .374h-.417v-.374l-.029-1.26a3 3 0 0 0 0-.355h.427a1.7 1.7 0 0 0 .148.293zm1.835-.388q-.057-.336-.307-.335c-.168 0-.369.235-.369.642s.144.637.379.637a.28.28 0 0 0 .254-.153.45.45 0 0 0 .057-.211l.403.077a1.1 1.1 0 0 1 -.163.45.62.62 0 0 1 -.537.263.69.69 0 0 1 -.57-.268 1.3 1.3 0 0 1 -.225-.795 1.3 1.3 0 0 1 .235-.81.7.7 0 0 1 .55-.254.63.63 0 0 1 .57.321.9.9 0 0 1 .12.336zm1.782 1.346a1.7 1.7 0 0 0 -.316 0h-.891a2.5 2.5 0 0 0 0-.359v-1.346a3 3 0 0 0 0-.355h.896a2 2 0 0 0 .287 0v.48a2 2 0 0 0 -.287 0h-.48v.32h.417a2 2 0 0 0 .288 0v.48a1.6 1.6 0 0 0 -.288 0h-.416v.412h.479a2 2 0 0 0 .311 0zm1.193-2.069a1 1 0 0 0 .235 0h.244a1.5 1.5 0 0 0 .235 0v1.677a3 3 0 0 0 0 .368h-.422a3 3 0 0 0 0-.368v-1.246h-.316zm1.485 1.538a.5.5 0 0 0 .048.105.22.22 0 0 0 .182.091.27.27 0 0 0 .245-.172.8.8 0 0 0 .067-.336.48.48 0 0 1 -.384.177c-.345 0-.57-.263-.57-.675a.656.656 0 0 1 .642-.733.6.6 0 0 1 .556.364 1.6 1.6 0 0 1 .12.661 2 2 0 0 1 -.11.685.66.66 0 0 1 -.326.374.8.8 0 0 1 -.259.048.58.58 0 0 1 -.445-.187.8.8 0 0 1 -.149-.292zm.503-.834a.273.273 0 1 0 -.541 0c0 .187.105.311.263.311a.283.283 0 0 0 .278-.311m.987.92a.3.3 0 0 0 .043.11.22.22 0 0 0 .182.091.26.26 0 0 0 .25-.168.9.9 0 0 0 .071-.33.44.44 0 0 1 -.388.168c-.345 0-.565-.274-.56-.686a.66.66 0 0 1 .656-.718.6.6 0 0 1 .551.373 1.5 1.5 0 0 1 .106.662 2 2 0 0 1 -.12.685.65.65 0 0 1 -.336.364.8.8 0 0 1 -.258.048.57.57 0 0 1 -.441-.201.8.8 0 0 1 -.144-.293zm.518-.815a.273.273 0 1 0 -.542 0c0 .187.096.312.254.317a.283.283 0 0 0 .288-.317m.819 1.385a3 3 0 0 0 -.292 0 1.6 1.6 0 0 1 .043-.287 1.25 1.25 0 0 1 .278-.537 2.4 2.4 0 0 1 .34-.316c.168-.134.206-.197.206-.312a.196.196 0 0 0 -.206-.2.2.2 0 0 0 -.201.114.6.6 0 0 0 -.048.206l-.412-.053a.9.9 0 0 1 .139-.43.56.56 0 0 1 .512-.236.59.59 0 0 1 .551.326.64.64 0 0 1 .067.288.6.6 0 0 1 -.177.45 3 3 0 0 1 -.278.254.9.9 0 0 0 -.287.33h.45a2 2 0 0 0 .307 0v.48a3 3 0 0 0 -.326-.03z" fill="#59358c"/><g fill="#fff"><path d="m5.021 38.276a18.5 18.5 0 0 0 1.438 6.597c1.16.685 2.247 1.687 2.683 2.64a10 10 0 0 1 .613 1.763 2.15 2.15 0 0 1 2.05-.987 2 2 0 0 1 .638.197 7 7 0 0 0 -.345-.441c-1.763-2.07-2.616-4.389-2.626-5.788a3 3 0 0 1 .034-.479 1.27 1.27 0 0 1 .67-1.01.89.89 0 0 1 .868.09 2.7 2.7 0 0 1 .833 1.212 5.65 5.65 0 0 0 .6-2.625 6 6 0 0 0 -.087-.958 2.24 2.24 0 0 0 -1.59-1.917c-.619-.187-1.438-.067-1.98 1.03v-.076c-.2-1.874 2.708-3.536 2.655-6.794a5 5 0 0 0 -.158-1.184c-.441-1.648-1.51-2.673-2.875-2.745-1.202-.067-2.395.704-3.148 1.768a2 2 0 0 1 1.189 1.112 3 3 0 0 1 .22 1.159 7 7 0 0 1 -.7 2.784 10.26 10.26 0 0 0 -.982 4.652"/><path d="m12.342 54.221a8.6 8.6 0 0 1 -.24-1.677 1.73 1.73 0 0 1 .312-1.136.86.86 0 0 1 .508-.326 1.92 1.92 0 0 0 -1.25-1.164 1.13 1.13 0 0 0 -1.088.575c-.79 1.107-.57 3.354.55 4.92-1.796.101-2.079-2.515-2.323-4.096a10.6 10.6 0 0 0 -.78-2.99 4.5 4.5 0 0 0 -2.43-2.395 11.5 11.5 0 0 1 .48 2.822 28 28 0 0 0 .354 2.76 9.74 9.74 0 0 0 2.046 4.748c.929 1.14 1.95 1.494 2.692 3.162-1.03-.585-2.357-1.543-2.827.407.6.182 1.121.786 1.625 1.39 1.14 1.34 2.467 4.268 7.277 4.134a40 40 0 0 1 -2.395-5.697c-1.107-2.017-2.267-4.379-2.51-5.437m61.555-15.945a18.5 18.5 0 0 1 -1.438 6.597c-1.159.685-2.247 1.687-2.683 2.64a10 10 0 0 0 -.603 1.763 2.15 2.15 0 0 0 -2.05-.987 2 2 0 0 0 -.638.197q.173-.238.345-.441c1.763-2.07 2.616-4.389 2.625-5.788a3 3 0 0 0 -.033-.479 1.27 1.27 0 0 0 -.676-1.02.89.89 0 0 0 -.867.09 2.7 2.7 0 0 0 -.833 1.213 5.65 5.65 0 0 1 -.6-2.626 6 6 0 0 1 .087-.958 2.24 2.24 0 0 1 1.59-1.916c.619-.187 1.438-.067 1.98 1.03v-.077c.2-1.873-2.708-3.536-2.655-6.794a5 5 0 0 1 .158-1.183c.44-1.648 1.51-2.674 2.875-2.745 1.202-.068 2.395.704 3.148 1.767a2 2 0 0 0 -1.189 1.112 3 3 0 0 0 -.22 1.16 7 7 0 0 0 .7 2.783 10.26 10.26 0 0 1 .977 4.662"/><path d="m66.577 54.221a8.6 8.6 0 0 0 .24-1.677 1.73 1.73 0 0 0 -.312-1.136.86.86 0 0 0 -.508-.326 1.92 1.92 0 0 1 1.25-1.164 1.13 1.13 0 0 1 1.088.575c.79 1.107.57 3.354-.55 4.92 1.796.101 2.079-2.515 2.323-4.096a10.6 10.6 0 0 1 .781-2.99 4.5 4.5 0 0 1 2.43-2.395 11.5 11.5 0 0 0 -.456 2.822 28 28 0 0 1 -.355 2.76 9.74 9.74 0 0 1 -2.045 4.748c-.93 1.14-1.95 1.494-2.693 3.162 1.03-.585 2.357-1.543 2.827.407-.6.182-1.121.786-1.624 1.39-1.14 1.34-2.468 4.268-7.278 4.134a40 40 0 0 0 2.395-5.697c1.083-2.017 2.243-4.379 2.487-5.437"/></g><path d="m39.46 23.634c-9.286 0-20.923 1.107-24.473 1.466v21.081a37.99 37.99 0 0 0 12.38 28.747 44.1 44.1 0 0 0 12.093 8 44.1 44.1 0 0 0 12.092-7.981 38.9 38.9 0 0 0 8.51-11.38 39.2 39.2 0 0 0 3.86-17.381v-21.08c-3.54-.365-15.177-1.472-24.462-1.472" fill="#c09949"/><path d="m61.063 27.18c-.12 0-12.285-1.222-21.603-1.232-9.32-.01-21.484 1.217-21.603 1.232l-.58.067v19.51c.335 12.36 6.339 20.83 11.316 25.76a42 42 0 0 0 10.867 7.825 42 42 0 0 0 10.866-7.824c4.978-4.93 10.98-13.415 11.316-25.762v-19.51z" fill="#59358c"/><path d="m57.311 50.23h2.75q.211-1.689.264-3.493v-18.321a223.4 223.4 0 0 0 -3.028-.302zm-6.104-22.614v22.614h3.498v-22.346a249 249 0 0 0 -3.498-.268m-32.277 22.671a36.4 36.4 0 0 0 2.73 10.296v-10.3zm14.522-.029h-3.297v22.35a38 38 0 0 0 3.297 2.717zm11.757-.028h3.416v-22.787c-1.121-.067-2.271-.13-3.416-.177zm-20.942 15.336a35 35 0 0 0 3.282 4.374v-19.672h-3.282zm15.193-15.336h3.109v-23.055a114 114 0 0 0 -3.11-.043zm0 .019h-3.445v26.83a31 31 0 0 0 3.445 1.825z" fill="#9d9d9c"/><path d="m46.238 38.644 3.354 1.97-8.964 7.133.005-11.259 3.627 1.399-4.796-11.776-4.786 11.776 3.626-1.399.005 11.259-8.964-7.134 3.354-1.969-12.203-3.579 6.233 11.082 1.165-3.713 9.71 7.718-4.819 3.838-3.018-.499-9.381 6.794 4.94 1.116-.02 5.064 8.73-7.608.186-3.052 4.087-3.248v5.414l-2.266 2.05-.522 11.566 3.948-3.167 3.947 3.167-.522-11.566-2.266-2.05v-5.414l4.087 3.248.187 3.052 8.729 7.608-.02-5.064 4.935-1.116-9.376-6.794-3.018.499-4.82-3.838 9.707-7.718 1.169 3.713 6.228-11.091z" fill="#fff"/><path d="m48.912 54.182-2.831.518-5.702-4.533 10.953-8.71 1.02 3.186 4.662-8.437-9.266 2.645 2.875 1.71-10.588 8.423v-13.343l3.133 1.188-3.708-8.902-3.694 8.902 3.133-1.188v13.333l-10.588-8.422 2.874-1.71-9.27-2.64 4.661 8.427 1.026-3.186 10.952 8.71-5.701 4.532-2.827-.503-7.963 5.812 3.953.862c0 .68-.048 4.044-.048 4.044l7.464-6.449.135-2.875 5.332-4.244v7.018l-2.166 1.917-.402 9.855 3.138-2.558 3.134 2.558-.398-9.855-2.166-1.917v-7.018l5.333 4.244.134 2.875 7.464 6.449s-.043-3.354-.048-4.044l3.953-.862z" fill="#59358c"/><path d="m39.46 30.486c-.537 1.274-1.52 3.545-2.008 4.704.82-.311 1.955-.728 2.008-.747zm-1.816 34.668c-.039 1.001-.077 1.916-.1 2.53l1.355-1.107v-2.52zm.052-1.284 1.203-1.05v-1.236l-1.15.959c-.014.416-.033.867-.053 1.327m2.324-4.064v1.477l1.184.958c-.039-.796-.063-1.38-.072-1.51zm0 4.088 1.308 1.068c-.024-.479-.048-.987-.067-1.461l-1.24-1.016zm-.005 2.649 1.438 1.145c0-.373-.043-.89-.067-1.475l-1.37-1.117zm15.006-28.751c-1.332.374-3.723 1.016-4.935 1.356l1.835 1.107zm-27.237 19.394 1.571.288.958-.772-1.47-.297zm-1.936 1.538 1.572.288.958-.772-1.471-.297zm6.564-2.252-1.16.92v1.529l1.14-.997c-.014-.225.006-.867.02-1.452m-3.201 2.544v1.687l1.107-.958v-1.6zm-2.074 1.649v1.835l1.111-.959v-1.763zm-3.21-22.883c.661 1.213 1.825 3.397 2.429 4.5.268-.83.647-1.984.666-2.037zm25.019 22.174-.072-1.596-.958-.767.038 1.5zm1.969 1.57-.072-1.594-.958-.767.038 1.5zm-3.703-5.906 1.154.92 1.495-.326-1.222-.882zm3.2 2.539 1.648-.36-1.188-.862-1.562.34zm2.07 1.647 1.792-.411c-.307-.216-.724-.522-1.198-.867l-1.725.378z" fill="#c09949"/><path d="m75.474 75.488c-.891-.771-3.224-2.918-3.962-3.598 2.458-5.318 2.745-5.75 2.592-5.845-.153-.096-.48 0-1.687.302a48 48 0 0 1 -5.4 1.015 1.6 1.6 0 0 0 -.08-.838c-.11-.225-.26-.556-1.864-.709-2.041-.196-4.312-.541-6.09-.647a81.4 81.4 0 0 0 -12.097.091c-5.5.48-7.082.82-7.36.9-.272-.08-1.854-.416-7.354-.9a81.4 81.4 0 0 0 -12.097-.09c-1.758.105-4.049.45-6.09.646-1.61.153-1.753.48-1.863.709a1.6 1.6 0 0 0 -.082.838 47 47 0 0 1 -5.4-1.015c-1.197-.288-1.504-.441-1.686-.302s.134.527 2.592 5.845c-.738.68-3.07 2.827-3.962 3.598-.575.48-.795.556.225.824 1.208.316 2.396.566 3.589.786 3.976.757 10.76 1.662 14.071 1.317h.25c1.676-.172 1.887-.378 1.815-1.518a11 11 0 0 1 .053-1.811h1.284c5.38-.043 11.805 1.226 14.656 1.753 2.874-.527 9.28-1.796 14.66-1.753h1.28a10.3 10.3 0 0 1 .057 1.81c-.072 1.141.139 1.347 1.811 1.52h.254c3.31.344 10.09-.561 14.071-1.318a55 55 0 0 0 3.589-.786c1.02-.268.8-.326.225-.824" fill="#59358c"/><path d="m21.958 76.7a16 16 0 0 1 .043-1.576c-2.918.125-5.27.379-6.818.59 2.238.843 5.424 1.025 6.775.986m35.142 0a16 16 0 0 0 -.043-1.576c2.918.125 5.27.379 6.818.59-2.233.843-5.424 1.025-6.775.986" fill="#9d9d9c"/><path d="m7.134 67.876c.062.128 1.917 3.985 2.09 4.421a545.79 545.79 0 0 0 -3.431 3.052 62 62 0 0 0 7.795 1.231l-.312-.167a1.3 1.3 0 0 1 -.622-.719c-1.917-.21-3.867-.565-5.136-.814 2.309-1.98 1.073-.935 2.72-2.367 0 0-1.298-2.645-1.705-3.574.805.153 2.242.426 3.79.575a14 14 0 0 0 -.1-.796c-2.53-.273-5.089-.848-5.089-.848zm45.17 5.135a84 84 0 0 0 -12.777 1.437 84 84 0 0 0 -12.773-1.437 90 90 0 0 0 -12.87.661l.034.786a88.4 88.4 0 0 1 12.816-.68 83 83 0 0 1 12.793 1.437 83 83 0 0 1 12.792-1.437 88.4 88.4 0 0 1 12.82.68l.034-.786a90 90 0 0 0 -12.869-.66m0-6.598a110 110 0 0 0 -12.777 1.226 109 109 0 0 0 -12.773-1.226 98 98 0 0 0 -13.142.704l.1.762a97.5 97.5 0 0 1 13.027-.714 108 108 0 0 1 12.788 1.246 108 108 0 0 1 12.792-1.246 97.5 97.5 0 0 1 13.012.728l.101-.762a98 98 0 0 0 -13.128-.718m19.62 1.462c-.062.128-1.917 3.985-2.089 4.421.369.312 3.43 3.052 3.43 3.052a62 62 0 0 1 -7.795 1.231l.312-.167a1.3 1.3 0 0 0 .623-.719c1.916-.21 3.866-.565 5.136-.814-2.31-1.98-1.074-.935-2.722-2.367 0 0 1.299-2.645 1.706-3.574-.805.153-2.242.426-3.79.575q.044-.43.096-.796c2.534-.273 5.093-.848 5.093-.848z" fill="#c09949"/><path d="m38.07 72.867a3 3 0 0 0 -.512-.09l-.959-.12c-.234-.03-.32-.034-.479-.043a5 5 0 0 0 0-.609v-2.28a6 6 0 0 0 0-.614c.13.024.216.039.48.067l.991.125a3 3 0 0 0 .48.024v.78a3.4 3.4 0 0 0 -.48-.085l-.81-.096v.613l.671.082a3 3 0 0 0 .48.028v.781a3 3 0 0 0 -.48-.086l-.675-.081v.704l.804.096a3 3 0 0 0 .508.033zm-7.584-.809a3 3 0 0 0 -.48-.063l-.924-.057h-.431a4 4 0 0 0 0-.609v-2.28a6 6 0 0 0 -.029-.613c.125 0 .206.024.431.038l.959.062a2.6 2.6 0 0 0 .436 0v.781a2.4 2.4 0 0 0 -.436-.053l-.767-.047v.613l.632.038a2.3 2.3 0 0 0 .441 0v.772a3 3 0 0 0 -.44-.058l-.633-.038v.7l.757.047a2.6 2.6 0 0 0 .48 0zm-6.156-.925a6 6 0 0 0 .033.723h-.69a7 7 0 0 0 0-.713v-2.166a5 5 0 0 0 -.029-.608h1.409a2.6 2.6 0 0 0 .541-.034v.795a3 3 0 0 0 -.536-.023h-.748v.685h.604a3 3 0 0 0 .513-.034v.771a4 4 0 0 0 -.518 0h-.604zm3.33.776a4.5 4.5 0 0 0 -.178-.67c-.106-.37-.144-.48-.23-.556a.34.34 0 0 0 -.264-.12h-.35v.685a6 6 0 0 0 0 .632h-.737a5 5 0 0 0 .033-.627v-2.247a5 5 0 0 0 0-.613h1.399a.848.848 0 0 1 .868.958 1 1 0 0 1 -.206.68.73.73 0 0 1 -.326.206c.172.067.249.168.36.48.047.133.095.277.243.732.039.12.077.225.163.446zm-.48-2.04c.201 0 .326-.145.326-.384q0-.359-.316-.364h-.542v.742zm-10.962 1.278a.66.66 0 0 0 .096.312.41.41 0 0 0 .369.187.355.355 0 0 0 .364-.403.35.35 0 0 0 -.144-.292 2 2 0 0 0 -.479-.158 1 1 0 0 1 -.508-.225 1.11 1.11 0 0 1 -.335-.81.958.958 0 0 1 .958-1.112.89.89 0 0 1 .877.45 1.3 1.3 0 0 1 .177.504l-.651.13c-.048-.279-.163-.389-.398-.38a.326.326 0 0 0 -.316.35.31.31 0 0 0 .158.269c.062.038.062.038.431.124a1.25 1.25 0 0 1 .513.22 1.1 1.1 0 0 1 .373.858 1.33 1.33 0 0 1 -.182.8.96.96 0 0 1 -.8.398 1.16 1.16 0 0 1 -.7-.182.96.96 0 0 1 -.354-.532 1.8 1.8 0 0 1 -.086-.397zm3.66.892a5 5 0 0 0 -.115-.441l-.115-.345-.924.077-.058.359a3 3 0 0 0 -.048.479l-.757.062c.039-.13.058-.23.115-.522l.48-2.549a3 3 0 0 0 .067-.479l.848-.072a4 4 0 0 0 .148.441l.906 2.434c.081.215.148.383.196.479zm-.857-2.688-.201 1.27.613-.053zm3.339.785c.1.178.168.307.254.48 0-.192-.033-.384-.043-.618l-.033-.959a6 6 0 0 0 -.053-.637l.69-.024a6 6 0 0 0 -.005.657l.081 2.213a6 6 0 0 0 .053.623l-.709.038a4.4 4.4 0 0 0 -.264-.517l-.642-1.145c-.09-.163-.148-.288-.249-.503 0 .187.039.416.043.618l.039.958a6 6 0 0 0 .048.647l-.69.029a6 6 0 0 0 0-.657l-.082-2.199c0-.24 0-.426-.048-.618l.7-.029a3 3 0 0 0 .25.513zm10.076-.258c-.062-.379-.24-.566-.522-.566-.408 0-.642.398-.642 1.088s.244 1.092.656 1.092a.48.48 0 0 0 .436-.263.8.8 0 0 0 .1-.36l.69.13a1.7 1.7 0 0 1 -.277.762 1.08 1.08 0 0 1 -.93.455 1.2 1.2 0 0 1 -.958-.48 2.23 2.23 0 0 1 -.383-1.355 2.2 2.2 0 0 1 .397-1.37 1.2 1.2 0 0 1 .959-.436 1.08 1.08 0 0 1 .958.546 1.5 1.5 0 0 1 .206.57zm2.75.302q-.095-.567-.527-.566c-.403 0-.637.403-.637 1.088s.244 1.092.656 1.092a.48.48 0 0 0 .436-.263 1 1 0 0 0 .1-.36l.69.13a1.8 1.8 0 0 1 -.277.762 1.08 1.08 0 0 1 -.93.479 1.2 1.2 0 0 1 -.958-.48 2.2 2.2 0 0 1 -.388-1.36 2.17 2.17 0 0 1 .402-1.37 1.2 1.2 0 0 1 .959-.436 1.08 1.08 0 0 1 .958.546 1.5 1.5 0 0 1 .206.575zm11.81 1.926a4.6 4.6 0 0 0 -.158-.633c-.106-.354-.144-.445-.225-.527a.27.27 0 0 0 -.25-.086l-.33.033v.686a6 6 0 0 0 .024.627l-.695.077a5 5 0 0 0 .029-.628v-2.251a6 6 0 0 0 -.029-.609c.144 0 .264 0 .48-.038l.838-.091c.522-.058.829.258.829.862a1.2 1.2 0 0 1 -.192.704.8.8 0 0 1 -.307.245c.163.048.24.134.34.421.048.125.096.264.24.7.038.115.077.215.158.426zm-.48-1.98a.374.374 0 0 0 .307-.42q0-.354-.301-.326l-.508.057v.743zm3.786-.023c.024 1.102-.48 1.859-1.26 1.916-.781.058-1.313-.646-1.342-1.753s.48-1.835 1.255-1.873c.777-.039 1.318.613 1.347 1.71m-.671.043c0-.68-.268-1.073-.656-1.054-.388.02-.628.446-.609 1.116s.268 1.093.661 1.069.618-.446.604-1.13m1.476.502a.64.64 0 0 0 .081.312.43.43 0 0 0 .379.196.36.36 0 0 0 .397-.379.35.35 0 0 0 -.134-.292 2.3 2.3 0 0 0 -.479-.167 1.1 1.1 0 0 1 -.517-.245 1.05 1.05 0 0 1 -.312-.8.958.958 0 0 1 1.035-1.05.96.96 0 0 1 .896.48 1.4 1.4 0 0 1 .163.48l-.685.095c-.039-.273-.154-.383-.398-.383a.32.32 0 0 0 -.345.325.29.29 0 0 0 .153.269c.063.038.063.038.446.139a1.4 1.4 0 0 1 .522.24 1.03 1.03 0 0 1 .35.852 1.23 1.23 0 0 1 -.225.767 1.03 1.03 0 0 1 -.853.354 1.2 1.2 0 0 1 -.719-.206.96.96 0 0 1 -.35-.532 2 2 0 0 1 -.071-.388zm-7.335-1.658a4 4 0 0 0 -.03.628v2.257a5 5 0 0 0 .03.622l-.705.096a6 6 0 0 0 0-.627v-.82l-1.097.149v.82a6 6 0 0 0 0 .622l-.704.096a4.4 4.4 0 0 0 .029-.628v-2.261a4.4 4.4 0 0 0 -.03-.623l.705-.096a6 6 0 0 0 0 .628v.7l1.097-.15v-.699a5 5 0 0 0 0-.618zm1.145-.139a5 5 0 0 0 -.03.623v2.257a5 5 0 0 0 .03.618l-.724.081a5 5 0 0 0 .029-.627v-2.252a5 5 0 0 0 -.029-.618zm10.425-.536a5 5 0 0 0 -.024.608v2.219a6 6 0 0 0 .024.608h-.704a4 4 0 0 0 .028-.608v-.805h-1.101v.805a5 5 0 0 0 .028.608h-.718a5 5 0 0 0 .023-.608v-2.219a5 5 0 0 0 -.023-.608h.704a6 6 0 0 0 -.029.608v.69h1.102v-.69a4 4 0 0 0 -.029-.608zm1.231.014a4 4 0 0 0 -.033.614l-.024 2.213a4.5 4.5 0 0 0 0 .613h-.728a4 4 0 0 0 .033-.613l.024-2.218a4.4 4.4 0 0 0 0-.614zm1.601 3.512a4 4 0 0 0 -.115-.623l-.26-1.116s-.085-.412-.095-.446c-.029-.148-.029-.148-.043-.206v.82l-.038.9a5 5 0 0 0 0 .647l-.652-.029a5 5 0 0 0 .053-.642l.09-2.16v-.652l.873.038a4.5 4.5 0 0 0 .1.59l.422 1.81.57-1.767a3.2 3.2 0 0 0 .144-.58l.877.038a5 5 0 0 0 -.053.647l-.091 2.16a5 5 0 0 0 0 .643h-.652a6 6 0 0 0 .053-.642l.038-.906c0-.1.03-.412.039-.541l.023-.278c-.086.316-.124.48-.172.613l-.369 1.126a4.5 4.5 0 0 0 -.168.604zm4.019.278c0-.201 0-.307-.038-.45l-.058-.364-.92-.072-.114.345a3 3 0 0 0 -.12.44l-.757-.062a4 4 0 0 0 .201-.48l.9-2.442a3 3 0 0 0 .144-.441l.844.072a3 3 0 0 0 .072.479l.479 2.553c.043.226.081.403.115.523zm-.397-2.793-.408 1.222.609.047z" fill="#fff"/></svg>