<svg xmlns="http://www.w3.org/2000/svg" viewBox="2.68 2.68 310.64 310.64"><path d="M158 316a158 158 0 1 1 158-158 158.203 158.203 0 0 1-158 158" class="cls-1" fill="none"/><path d="M158 313.32A155.32 155.32 0 1 1 313.32 158 155.483 155.483 0 0 1 158 313.32" class="cls-2" fill="#182865"/><path d="M158 301.566A143.587 143.587 0 1 1 301.587 158 143.73 143.73 0 0 1 158 301.566" class="cls-3" fill="#c1ad76"/><path d="M158 295.699a137.7 137.7 0 1 0-137.7-137.7 137.86 137.86 0 0 0 137.7 137.7" class="cls-4" fill="#fff"/><path d="M289.833 158A131.832 131.832 0 1 1 158 26.167 131.83 131.83 0 0 1 289.833 158" class="cls-2" fill="#182865"/><path d="M98.723 275.744a131.95 131.95 0 0 0 118.555 0V40.256a132.1 132.1 0 0 0-118.556 0z" class="cls-5" fill="#0056a4"/><path d="M186.929 72.737H49.899a140 140 0 0 0-10.15 14.556h89.445c3.593 0 5.359 2.943 0 6.536L20.605 167.176q.305 4.628.914 9.196h22.188s140.4-94.703 144.744-97.545c3.776-2.517 2.132-6.09-1.462-6.09m-3.41 87.699c-3.593 0-5.36-2.924 0-6.517l94.378-63.642a136.4 136.4 0 0 0-11.775-17.54h-5.501c1.36 2.03 0 4.405-3.147 6.537l-144.073 97.098h181.02a142 142 0 0 0 1.198-15.896zm57.35-87.699h-33.578c1.34 2.03 0 4.405-3.167 6.537L60.213 176.372h36.764l143.972-97.058c5.318-3.593 3.552-6.536 0-6.536" class="cls-4" fill="#fff"/><path d="M68.21 210.781a3 3 0 0 1 0 .63l-5.643-.122-.142-13.378h43.991v5.643l-30.045 29.355h7.796a67 67 0 0 0 11.368-.63 5.06 5.06 0 0 0 3.126-2.232 15 15 0 0 0 1.28-3.817v-2.436h6.76l-.468 14.008h-45.31v-4.832l31.567-29.862h-14.9a21.6 21.6 0 0 0-4.974.65 4.5 4.5 0 0 0-2.558 1.563 11.9 11.9 0 0 0-1.848 5.521m71.256 11.998h-3.797a16.4 16.4 0 0 0-.426-2.7 9 9 0 0 0-.771-2.03 2.96 2.96 0 0 0-1.766-1.3 10.8 10.8 0 0 0-3.35-.426h-7.552v7.288h3.147a5.4 5.4 0 0 0 1.38-.142 2 2 0 0 0 .893-.446 1.8 1.8 0 0 0 .508-.914 5 5 0 0 0 .183-1.421v-1.4h3.857v11.956h-3.857v-1.502a5.5 5.5 0 0 0-.163-1.4 1.6 1.6 0 0 0-.487-.853 1.8 1.8 0 0 0-.974-.427 7.4 7.4 0 0 0-1.645-.142h-2.923v8.12h8.262a6.2 6.2 0 0 0 2.477-.446 3.8 3.8 0 0 0 1.685-1.3 5.9 5.9 0 0 0 1.035-2.293 15.5 15.5 0 0 0 .345-3.451h4.06l-.203 10.759h-29.211v-3.086h2.233a.24.24 0 0 0 .162 0h.122a4 4 0 0 0 .914 0 1.6 1.6 0 0 0 .588-.284 1.1 1.1 0 0 0 .386-.528 2 2 0 0 0 .142-.832v-15.429a1.8 1.8 0 0 0-.142-.75 1.1 1.1 0 0 0-.386-.528 1.8 1.8 0 0 0-.69-.285 4.3 4.3 0 0 0-1.096-.122h-2.233v-3.106h29.294zm21.315 12.038a9.2 9.2 0 0 0 3.634-.487 3.37 3.37 0 0 0 1.868-1.705 12.2 12.2 0 0 0 .71-2.517 17 17 0 0 0 .305-3.005h4.06v11.023h-28.116v-3.085h2.233a.24.24 0 0 0 .162 0h.183a4 4 0 0 0 .893 0 1.6 1.6 0 0 0 .589-.285 1.3 1.3 0 0 0 .406-.527 2.5 2.5 0 0 0 .122-.833v-15.428a2.3 2.3 0 0 0-.122-.751 1.3 1.3 0 0 0-.406-.528 1.8 1.8 0 0 0-.69-.284 4.3 4.3 0 0 0-1.097-.122h-2.233v-3.106h16.505v3.106h-2.599a9 9 0 0 0-1.096.203 1.8 1.8 0 0 0-.71.284 1.1 1.1 0 0 0-.386.528 2.6 2.6 0 0 0-.122.832v16.89zm29.274-15.712a3.4 3.4 0 0 0 .264-.569 2 2 0 0 0 .162-.446 1.6 1.6 0 0 0 .102-.346 1.5 1.5 0 0 0 0-.304 1.3 1.3 0 0 0-.102-.508.93.93 0 0 0-.325-.365 1.5 1.5 0 0 0-.507-.223 5 5 0 0 0-.812 0h-2.233v-3.228h12.688v3.228a11.6 11.6 0 0 0-2.03.264 2.76 2.76 0 0 0-1.178.527 3.2 3.2 0 0 0-.67.792 6 6 0 0 0-.487 1.015v.163a.5.5 0 0 0 0 .162.33.33 0 0 0 0 .183.4.4 0 0 1 0 .162.6.6 0 0 1 0 .163.8.8 0 0 0 0 .182 2 2 0 0 1 0 .203 1 1 0 0 1 0 .163l-8.12 17.864h-6.436l-8.79-18.94a5 5 0 0 0-.264-.427 4 4 0 0 1-.203-.446l-.243-.386a2 2 0 0 1-.183-.325 3.1 3.1 0 0 0-.67-.69 2.9 2.9 0 0 0-.751-.365 10 10 0 0 0-1.076-.142h-1.502v-3.31h15.672v3.228h-2.03l-.914.122a2.8 2.8 0 0 0-.588.142.9.9 0 0 0-.325.284.8.8 0 0 0-.102.386v.163a.5.5 0 0 0 0 .182.4.4 0 0 0 0 .183v.162a.2.2 0 0 0 0 .102v.142l5.705 13.114zm11.592-6.132h15.225v3.107h-1.847a10 10 0 0 0-1.097.203 1.8 1.8 0 0 0-.69.284 1.3 1.3 0 0 0-.406.528 2.6 2.6 0 0 0-.122.832v15.266a2.8 2.8 0 0 0 .122.893 1.4 1.4 0 0 0 .406.549 1.54 1.54 0 0 0 .69.304 4.4 4.4 0 0 0 1.097 0h1.847v3.086h-15.225V235h1.684a.3.3 0 0 0 .183 0h.122a3.8 3.8 0 0 0 .893 0 1.7 1.7 0 0 0 .61-.284 1.1 1.1 0 0 0 .385-.528 2.5 2.5 0 0 0 .142-.832v-15.429a2.4 2.4 0 0 0-.142-.75 1.1 1.1 0 0 0-.386-.529 1.8 1.8 0 0 0-.71-.284 4.2 4.2 0 0 0-1.096-.122h-1.685zm28.035 17.175v.183a.24.24 0 0 0 0 .162 2 2 0 0 1-.102.183.6.6 0 0 1 0 .162 3 3 0 0 1 0 .285 2 2 0 0 1-.162.304.8.8 0 0 1-.102.223v.549a1.5 1.5 0 0 0-.203.446l-.142.447c0 .162 0 .304-.101.446a4 4 0 0 0 0 .427 1.2 1.2 0 0 0 0 .467.63.63 0 0 0 .385.284l.69.122h2.477v3.146h-12.748v-3.146h.426a12 12 0 0 0 1.279 0 8 8 0 0 0 .995-.224 2.46 2.46 0 0 0 .893-.65 5.3 5.3 0 0 0 .832-1.156l.162-.366.183-.325a.5.5 0 0 1 0-.142v-.183a.6.6 0 0 0 0-.162.5.5 0 0 0 0-.142.8.8 0 0 0 .122-.203l.142-.203a2 2 0 0 1 0-.203.8.8 0 0 0 .102-.223 2 2 0 0 0 .243-.406 4 4 0 0 0 .183-.447l7.552-16.504h6.516l8.933 18.006a1.3 1.3 0 0 1 .121.325 1.5 1.5 0 0 0 .142.244 1 1 0 0 0 .102.264.8.8 0 0 1 0 .223.8.8 0 0 1 .142.223.6.6 0 0 0 .122.224.6.6 0 0 0 0 .203l.122.182a6 6 0 0 0 .73.975 3.8 3.8 0 0 0 .853.629 3.5 3.5 0 0 0 1.178.386 11 11 0 0 0 1.745.101v3.086h-15.895v-3.147h1.989a5 5 0 0 0 .812 0 3.6 3.6 0 0 0 .59-.142 1 1 0 0 0 .466-.304.65.65 0 0 0 .142-.447 2.5 2.5 0 0 0 0-.386c0-.142 0-.304-.122-.487-.121-.183-.121-.304-.203-.467a4 4 0 0 1-.182-.507l-.102-.142v-.305a.8.8 0 0 1 0-.183l-.182-.365a1.4 1.4 0 0 0-.163-.305l-.162-.324a2 2 0 0 0-.142-.285zm5.014-11.713l-3.613 7.531h7.673zm-111.532-16.911h-1.867a6 6 0 0 0 0-1.076 5.5 5.5 0 0 0-.305-.873 1.2 1.2 0 0 0-.73-.568 4 4 0 0 0-1.422-.203h-3.309v3.004h2.01a1 1 0 0 0 .365-.162.7.7 0 0 0 .203-.345 2.4 2.4 0 0 0 0-.589v-.568h1.746v4.933h-1.746v-.61a3 3 0 0 0 0-.629.8.8 0 0 0-.203-.365.93.93 0 0 0-.406-.183 3.4 3.4 0 0 0-.71 0h-1.259v2.72a1 1 0 0 0 0 .366.6.6 0 0 0 .183.223l.325.122h1.888v1.3h-7.776v-1.36h1.564l.284-.123a.37.37 0 0 0 .162-.223.63.63 0 0 0 0-.345v-6.415a.53.53 0 0 0 0-.304.37.37 0 0 0-.162-.224.7.7 0 0 0-.325-.122 2 2 0 0 0-.507 0h-1.016v-1.299h13.013zm13.744.081H135a3.4 3.4 0 0 0-.325-1.218 2.6 2.6 0 0 0-.731-.913 3.3 3.3 0 0 0-1.076-.589 4.9 4.9 0 0 0-1.4-.183 4.3 4.3 0 0 0-1.584.264 3 3 0 0 0-1.218.792 3.3 3.3 0 0 0-.772 1.238 4.7 4.7 0 0 0-.264 1.645 5.5 5.5 0 0 0 .244 1.705 3.3 3.3 0 0 0 .73 1.279 3.5 3.5 0 0 0 1.219.771 5 5 0 0 0 1.624.264 5.6 5.6 0 0 0 1.36-.182 3.15 3.15 0 0 0 1.096-.569 2.9 2.9 0 0 0 .792-.913 3.8 3.8 0 0 0 .487-1.239h2.03a5.2 5.2 0 0 1-.65 1.909 4.55 4.55 0 0 1-1.319 1.4 5.6 5.6 0 0 1-1.908.853 9.9 9.9 0 0 1-2.416.284 9.3 9.3 0 0 1-2.68-.365 7 7 0 0 1-2.172-1.157 5.2 5.2 0 0 1-1.441-1.726 5 5 0 0 1-.467-2.152 4.97 4.97 0 0 1 1.908-4.06 7 7 0 0 1 2.213-1.177 9 9 0 0 1 2.76-.386h1.402a3 3 0 0 1 .629.122l.609.203.304.142.325.162.305.163.345.182.426-.893h1.563zm18.839 2.213l3.288-6.395h6.09v1.3h-1.542a1 1 0 0 0-.325.122.47.47 0 0 0-.162.223.8.8 0 0 0 0 .345v6.354a1 1 0 0 0 0 .365.6.6 0 0 0 .162.224.7.7 0 0 0 .325.122h1.522v1.279h-7.369v-1.097h1.563l.264-.122a.5.5 0 0 0 .183-.223.9.9 0 0 0 0-.345v-5.948l-4.06 7.938h-1.482l-4.06-8.12v6.09a1 1 0 0 0 0 .365.6.6 0 0 0 .182.223.6.6 0 0 0 .325.122h1.401v1.279h-6.09v-1.259h1.563l.264-.122a.5.5 0 0 0 .183-.223.9.9 0 0 0 0-.345v-6.415a.8.8 0 0 0 0-.304.5.5 0 0 0-.183-.224 1 1 0 0 0-.325-.122 1.7 1.7 0 0 0-.487 0h-1.015v-1.299h6.395zm13.723.812v.589a1 1 0 0 0 0 .183v.203a.6.6 0 0 0 0 .182.5.5 0 0 0 0 .163.6.6 0 0 0 0 .203.4.4 0 0 0 .183.122h1.441v1.32h-5.806v-1.32h1.218a1.6 1.6 0 0 0 .426-.264 3.4 3.4 0 0 0 .366-.488.6.6 0 0 1 0-.162v-.589l3.451-6.861h2.964l4.06 7.49a.5.5 0 0 1 0 .143v.203c0 .101 0 0 0 0a3.3 3.3 0 0 0 .345.406 2 2 0 0 0 .365.264 2 2 0 0 0 .549.142 4 4 0 0 0 .791 0v1.279h-6.597v-1.32h1.542l.203-.122a.33.33 0 0 0 0-.182.4.4 0 0 0 0-.163.45.45 0 0 0 0-.203 2 2 0 0 1 0-.203.6.6 0 0 1 0-.203v-.426zm2.274-4.77l-1.665 3.43h3.512zm20.767 1.745h-1.888a3.4 3.4 0 0 0-.325-1.218 3.2 3.2 0 0 0-.73-.913 3.3 3.3 0 0 0-1.076-.589 5 5 0 0 0-1.401-.183 4.3 4.3 0 0 0-1.583.264 2.9 2.9 0 0 0-1.219.792 3.6 3.6 0 0 0-.791 1.238 5.2 5.2 0 0 0-.244 1.645 5.5 5.5 0 0 0 .244 1.705 3.3 3.3 0 0 0 .73 1.279 3.5 3.5 0 0 0 1.219.771 4.9 4.9 0 0 0 1.624.264 5.5 5.5 0 0 0 1.34-.182 3.1 3.1 0 0 0 1.116-.569 3.5 3.5 0 0 0 .792-.913 3.8 3.8 0 0 0 .487-1.239h2.03a5.2 5.2 0 0 1-.65 1.909 4.8 4.8 0 0 1-1.32 1.4 5.8 5.8 0 0 1-1.907.853 10 10 0 0 1-2.416.284 9.2 9.2 0 0 1-2.68-.365 6.8 6.8 0 0 1-2.172-1.157 5 5 0 0 1-1.441-1.726 4.7 4.7 0 0 1-.467-2.152 4.97 4.97 0 0 1 1.908-4.06 6.7 6.7 0 0 1 2.192-1.177 9.1 9.1 0 0 1 2.782-.386h1.4a3.2 3.2 0 0 1 .61.122l.629.203.304.142.305.162.325.163.324.182.427-.893h1.522zm7.085 1.543v2.7a1 1 0 0 0 0 .366.9.9 0 0 0 .163.223.8.8 0 0 0 .324.122h1.34v1.279h-7.186v-1.178h1.563l.264-.122a.5.5 0 0 0 .183-.223.9.9 0 0 0 0-.345v-6.415a.8.8 0 0 0 0-.304.5.5 0 0 0-.183-.224.9.9 0 0 0-.305-.122 2 2 0 0 0-.507 0h-1.015v-1.299h7.186v1.3h-1.299a1.2 1.2 0 0 0-.325.121.6.6 0 0 0-.162.224.8.8 0 0 0 0 .345v2.233h5.197v-2.274a.8.8 0 0 0 0-.304.6.6 0 0 0-.163-.224 1.2 1.2 0 0 0-.324-.122 2 2 0 0 0-.508 0h-.832v-1.299h7.186v1.3h-1.522a1.2 1.2 0 0 0-.325.121.6.6 0 0 0-.163.224.8.8 0 0 0 0 .345v6.354a1 1 0 0 0 0 .365.9.9 0 0 0 .163.223.8.8 0 0 0 .325.122h1.522v1.28h-7.186v-1.28h1.38l.284-.122a.6.6 0 0 0 .163-.223.9.9 0 0 0 0-.345v-2.72zm12.201-5.725h7.105v1.3h-1.319a.7.7 0 0 0-.325.122.5.5 0 0 0-.183.223.8.8 0 0 0 0 .345v6.334a1 1 0 0 0 0 .385.5.5 0 0 0 .183.224.7.7 0 0 0 .325.122h1.319v1.279h-7.105v-1.097h1.157a1.3 1.3 0 0 0 .406 0 .55.55 0 0 0 .264-.101.5.5 0 0 0 .183-.224.9.9 0 0 0 0-.345v-6.415a.8.8 0 0 0 0-.304.5.5 0 0 0-.183-.223.6.6 0 0 0-.305-.122 2 2 0 0 0-.507 0h-1.015zm8.81 0h8.648a9 9 0 0 1 2.477.366 5.5 5.5 0 0 1 1.888.974 4.3 4.3 0 0 1 1.198 1.584 5.6 5.6 0 0 1 .386 2.03 5.3 5.3 0 0 1-.447 2.233 4.8 4.8 0 0 1-1.3 1.705 5.7 5.7 0 0 1-2.03 1.117 8.9 8.9 0 0 1-2.618.365h-8.12v-1.137h1.563l.284-.122a.5.5 0 0 0 .183-.223.9.9 0 0 0 0-.345v-6.415a.7.7 0 0 0 0-.304.5.5 0 0 0-.183-.224.7.7 0 0 0-.325-.122 1.8 1.8 0 0 0-.487 0h-1.035zm6.963 9.095h.264a6.4 6.4 0 0 0 .914 0l.69-.122a2 2 0 0 0 .61-.264 3.2 3.2 0 0 0 .527-.385 5 5 0 0 0 .487-.63 5 5 0 0 0 .345-.75 3.5 3.5 0 0 0 .203-.874 5.7 5.7 0 0 0 0-1.055 4.8 4.8 0 0 0-.223-1.482 3.1 3.1 0 0 0-.67-1.137 2.6 2.6 0 0 0-1.198-.73 6.2 6.2 0 0 0-1.867-.244h-1.827v7.754zm12.263-1.888v.447a.7.7 0 0 0 0 .183v.203a.6.6 0 0 1 0 .182v.163a.325.325 0 0 0 .222.324h1.442v1.32h-6.354v-1.32h1.238a1.3 1.3 0 0 0 .406-.263 1.8 1.8 0 0 0 .365-.488.6.6 0 0 0 0-.162v-.122a.4.4 0 0 0 0-.101l.122-.163a2 2 0 0 1 0-.203l3.431-6.861h2.984l4.06 7.49a.26.26 0 0 1 0 .143v.203a1.9 1.9 0 0 0 .731.67 1.8 1.8 0 0 0 .528.142 4.6 4.6 0 0 0 .812 0v1.279h-7.247v-1.32h1.543l.203-.122a.24.24 0 0 0 0-.182.4.4 0 0 0 0-.163v-.203l-.102-.203a2 2 0 0 1 0-.203v-.426c0-.04 0 0 0 0zm2.293-4.77l-1.665 3.43h3.492z" class="cls-3" fill="#c1ad76"/><path d="M123.956 252.499h-1.32v-.122a.3.3 0 0 1 0-.121.3.3 0 0 0 0-.183 1 1 0 0 1 0-.162 4 4 0 0 0-.406-.366 3 3 0 0 0-.507-.284 3 3 0 0 0-.589-.203 3 3 0 0 0-.609-.102h-.162a4.5 4.5 0 0 0-.772 0 2.5 2.5 0 0 0-.629.224 1.06 1.06 0 0 0-.386.325.73.73 0 0 0-.142.446.55.55 0 0 0 .183.426.95.95 0 0 0 .487.305l.73.203.854.162h.933a10 10 0 0 1 1.137.285 8 8 0 0 1 1.036.426 1.7 1.7 0 0 1 .75.65 2.13 2.13 0 0 1 .244 1.055 2.4 2.4 0 0 1-.264 1.157 2.25 2.25 0 0 1-.75.833 4 4 0 0 1-1.24.507 6.6 6.6 0 0 1-1.643.163h-1.035l-.732-.163a4 4 0 0 1-.69-.243 2.8 2.8 0 0 1-.609-.386l-.284.63h-1.137v-3.33h.995v.548a1.5 1.5 0 0 0 .426.345 2.8 2.8 0 0 0 .61.305l.71.182a5 5 0 0 0 .771 0 3.7 3.7 0 0 0 .71 0 2.5 2.5 0 0 0 .59-.223 1.6 1.6 0 0 0 .385-.325.73.73 0 0 0 .122-.406 1.2 1.2 0 0 0 0-.304.55.55 0 0 0-.122-.203l-.244-.163a2.6 2.6 0 0 0-.426-.142h-1.116l-1.442-.304a5.6 5.6 0 0 1-1.116-.264 4 4 0 0 1-.893-.386 1.52 1.52 0 0 1-.61-.63 2.5 2.5 0 0 1-.203-.994 2.44 2.44 0 0 1 .264-1.096 2.25 2.25 0 0 1 .792-.853 3.7 3.7 0 0 1 1.218-.528 6.6 6.6 0 0 1 1.604-.182 5 5 0 0 1 .812 0 4 4 0 0 1 .73.121 4 4 0 0 1 .63.244 3.7 3.7 0 0 1 .61.365l.202-.568h1.117zm1.299-2.862h5.238v.995h-.61a1.7 1.7 0 0 0-.365 0h-.223a.3.3 0 0 0-.122.182.43.43 0 0 0 0 .244v4.831a.53.53 0 0 0 0 .285.3.3 0 0 0 .122.182.6.6 0 0 0 .223 0h.975v.975h-5.238v-.975h1.34a.33.33 0 0 0 .122-.162.55.55 0 0 0 0-.264v-4.75a.4.4 0 0 0 0-.224.3.3 0 0 0-.122-.182h-1.339zm15.246 5.461v-3.918a.4.4 0 0 0 0-.224.3.3 0 0 0-.122-.182h-1.259v-.995h4.264v.995h-.569a1.7 1.7 0 0 0-.365 0h-.223a.45.45 0 0 0-.143.182.8.8 0 0 0 0 .244v6.374h-2.354l-4.771-5.562v4.06a.6.6 0 0 0 0 .284.3.3 0 0 0 .122.183.7.7 0 0 0 .243 0h1.097v.975h-4.507v-.975h1.34a.33.33 0 0 0 .121-.162 1 1 0 0 0 0-.264v-4.933a.7.7 0 0 0 0-.224.3.3 0 0 0-.121-.182h-1.34v-.995h3.918z" class="cls-4" fill="#fff"/><path d="M152.214 252.824h-1.38a3 3 0 0 0-.244-.913 2 2 0 0 0-.527-.711 2.4 2.4 0 0 0-.792-.447 3.2 3.2 0 0 0-1.015-.142 2.9 2.9 0 0 0-1.157.203 2.03 2.03 0 0 0-.894.61 2.6 2.6 0 0 0-.568.933 4 4 0 0 0-.183 1.238 4.3 4.3 0 0 0 .183 1.32 2.4 2.4 0 0 0 .528.954 2.2 2.2 0 0 0 .893.589 3.05 3.05 0 0 0 1.178.203 3.1 3.1 0 0 0 .994-.142 2.2 2.2 0 0 0 .812-.427 2.4 2.4 0 0 0 .569-.69 3.1 3.1 0 0 0 .345-.954h1.461a3.9 3.9 0 0 1-.487 1.462 3.2 3.2 0 0 1-.954 1.055 4.1 4.1 0 0 1-1.4.67 6.8 6.8 0 0 1-1.767.203 6 6 0 0 1-2.03-.284 4.6 4.6 0 0 1-1.583-.853 4.2 4.2 0 0 1-1.036-1.32 3.76 3.76 0 0 1-.365-1.643 4.06 4.06 0 0 1 1.4-3.106 5.2 5.2 0 0 1 1.604-.894 6.4 6.4 0 0 1 2.03-.304h1.016l.466.101a2.4 2.4 0 0 1 .447.163l.223.101.224.122.223.122.264.142.304-.69h1.137zm10.759-.081h-1.278a3.6 3.6 0 0 0-.142-.853 2.4 2.4 0 0 0-.244-.65 1.03 1.03 0 0 0-.589-.426 4 4 0 0 0-1.116-.121h-2.517v2.293h1.076a1.5 1.5 0 0 0 .466 0 .43.43 0 0 0 .285-.142.5.5 0 0 0 .182-.284 1.4 1.4 0 0 0 0-.446v-.447h1.28v3.776h-1.28v-.487a1.5 1.5 0 0 0 0-.447.45.45 0 0 0-.162-.264.7.7 0 0 0-.325-.142h-1.522v2.558h2.78a2 2 0 0 0 .813-.142 1.18 1.18 0 0 0 .568-.406 2 2 0 0 0 .345-.731 5.5 5.5 0 0 0 0-1.076h1.34v3.39h-9.744v-.974h1.137a.7.7 0 0 0 .203 0 .33.33 0 0 0 .122-.163.6.6 0 0 0 0-.264v-5.115a.4.4 0 0 0 0-.224.3.3 0 0 0-.122-.182h-1.34v-.995h9.744zm9.644 3.228a.65.65 0 0 0 0 .284.45.45 0 0 0 .142.183h1.847v1.035h-6.415v-1.035h1.766a.37.37 0 0 0 .142-.163.65.65 0 0 0 0-.284v-4.06h-2.03v-1.056h.203l.975-.142a3 3 0 0 0 .69-.243 2 2 0 0 0 .507-.427 2.5 2.5 0 0 0 .386-.69h1.604zm7.551-1.624h-1.867a4.8 4.8 0 0 1-1.38-.203 2.8 2.8 0 0 1-.995-.569 3.2 3.2 0 0 1-.61-.893 2.4 2.4 0 0 1-.202-1.035 2.2 2.2 0 0 1 .264-1.097 2.66 2.66 0 0 1 .791-.873 3.9 3.9 0 0 1 1.198-.588 6 6 0 0 1 1.523-.183 5.1 5.1 0 0 1 1.664.244 3.2 3.2 0 0 1 1.239.75 3.5 3.5 0 0 1 .791 1.219 5 5 0 0 1 .264 1.644 6.2 6.2 0 0 1-.284 2.03 4.1 4.1 0 0 1-.873 1.442 3.6 3.6 0 0 1-1.4.873 5.8 5.8 0 0 1-1.868.284 5.7 5.7 0 0 1-1.218-.102 2.6 2.6 0 0 1-.955-.325 1.7 1.7 0 0 1-.609-.507 1.14 1.14 0 0 1-.223-.65.85.85 0 0 1 .102-.406.95.95 0 0 1 .304-.345 1.4 1.4 0 0 1 .426-.223 2 2 0 0 1 .528 0 1.7 1.7 0 0 1 .467 0 .9.9 0 0 1 .366.183 1 1 0 0 1 .284.304 1 1 0 0 1 0 .345v.142a.3.3 0 0 1 0 .122v.122l-.122.122h.67a2.7 2.7 0 0 0 .934-.163 1.75 1.75 0 0 0 .67-.467 1.8 1.8 0 0 0 .406-.791 3 3 0 0 0 .182-1.097l-.203.122m-2.476-1.664a1.8 1.8 0 0 0 .284.548 1.16 1.16 0 0 0 .447.345 1.4 1.4 0 0 0 .588.122 1.5 1.5 0 0 0 .548 0 1.6 1.6 0 0 0 .427-.305 1.5 1.5 0 0 0 .264-.507 1.8 1.8 0 0 0 0-.67 2.2 2.2 0 0 0 0-.751 1.2 1.2 0 0 0-.285-.549 1.5 1.5 0 0 0-.446-.365 1.7 1.7 0 0 0-.589 0 1.5 1.5 0 0 0-.548 0 1.14 1.14 0 0 0-.426.345 1.4 1.4 0 0 0-.264.528 2.2 2.2 0 0 0 0 .67 2.5 2.5 0 0 0 0 .71m7.409 1.178h-.162l-.162-.102h-.142l-.366-.325-.264-.324a1.4 1.4 0 0 1-.122-.386 3 3 0 0 1 0-.426 1.8 1.8 0 0 1 .264-.995 2.7 2.7 0 0 1 .792-.792 4.3 4.3 0 0 1 1.238-.487 6.6 6.6 0 0 1 1.604-.162 7 7 0 0 1 1.36.121 4.2 4.2 0 0 1 1.076.427 2 2 0 0 1 .69.629 1.32 1.32 0 0 1 .244.792 1.7 1.7 0 0 1 0 .467 2 2 0 0 1-.142.385l-.284.325a2 2 0 0 1-.447.305 3.8 3.8 0 0 1 .812.365 3 3 0 0 1 .61.447 2 2 0 0 1 .365.568 1.7 1.7 0 0 1 .121.65 2.3 2.3 0 0 1-.264 1.076 2.7 2.7 0 0 1-.832.832 4 4 0 0 1-1.259.528 8 8 0 0 1-1.644.162 7.8 7.8 0 0 1-1.624-.142 3.1 3.1 0 0 1-1.177-.426 2.03 2.03 0 0 1-.751-.731 2 2 0 0 1-.244-.974 1.7 1.7 0 0 1 0-.467.85.85 0 0 1 .162-.366.95.95 0 0 1 .305-.345 3 3 0 0 1 .446-.325h.346-.203m1.157.731l-.203.142-.183.163-.142.142a1.1 1.1 0 0 0-.183.345.7.7 0 0 0 0 .365 1.4 1.4 0 0 0 .122.569 1.4 1.4 0 0 0 .426.426 2 2 0 0 0 .67.264 4.2 4.2 0 0 0 .914 0 4 4 0 0 0 .73 0 1.9 1.9 0 0 0 .59-.223 1.1 1.1 0 0 0 .405-.325.65.65 0 0 0 .122-.406.7.7 0 0 0-.122-.386 1.4 1.4 0 0 0-.406-.345 3 3 0 0 0-.568-.305l-.61-.243-.324-.102h-.893l-.284.163m2.578-1.909a1.5 1.5 0 0 0 .325-.284 1.6 1.6 0 0 0 .182-.284.65.65 0 0 0 0-.325.9.9 0 0 0-.142-.446 1.1 1.1 0 0 0-.386-.345 2 2 0 0 0-.568-.224 4 4 0 0 0-.73 0 4.6 4.6 0 0 0-.772 0 1.6 1.6 0 0 0-.569.203.77.77 0 0 0-.365.284.7.7 0 0 0-.142.386.5.5 0 0 0 0 .163.4.4 0 0 0 0 .162l.142.142.223.122h1.726a2.6 2.6 0 0 0 .467-.264m9.155 2.274h-1.523a4.6 4.6 0 0 1-1.38-.203 2.7 2.7 0 0 1-1.015-.569 3.2 3.2 0 0 1-.609-.893 2.4 2.4 0 0 1-.203-1.035 2.2 2.2 0 0 1 .264-1.097 2.66 2.66 0 0 1 .792-.873 3.9 3.9 0 0 1 1.198-.588 6 6 0 0 1 1.522-.183 5.1 5.1 0 0 1 1.665.244 3.3 3.3 0 0 1 1.238.75 3.25 3.25 0 0 1 .792 1.219 5 5 0 0 1 .264 1.644 6.2 6.2 0 0 1-.284 2.03 4.1 4.1 0 0 1-.873 1.442 3.6 3.6 0 0 1-1.401.873 6.66 6.66 0 0 1-3.086.182 2.6 2.6 0 0 1-.954-.325 2 2 0 0 1-.609-.507 1.1 1.1 0 0 1-.203-.65.85.85 0 0 1 0-.406 1.2 1.2 0 0 1 .305-.345 1.4 1.4 0 0 1 .426-.223 2 2 0 0 1 .528 0 1.7 1.7 0 0 1 .467 0 1.1 1.1 0 0 1 .385.183.9.9 0 0 1 .264.304.7.7 0 0 1 0 .345.35.35 0 0 1 0 .142.3.3 0 0 1 0 .122v.122l-.122.122h.65a2.7 2.7 0 0 0 .934-.163 1.75 1.75 0 0 0 .67-.467 2 2 0 0 0 .426-.791 4.3 4.3 0 0 0 .163-1.097l-.224.122m-2.456-1.664a1.8 1.8 0 0 0 .284.548 1.1 1.1 0 0 0 .467.345 1.24 1.24 0 0 0 .568.122 1.7 1.7 0 0 0 .569 0 2 2 0 0 0 .406-.305 1.5 1.5 0 0 0 .264-.507 1.8 1.8 0 0 0 .101-.67 2.2 2.2 0 0 0-.101-.751 1.2 1.2 0 0 0-.284-.549 1.3 1.3 0 0 0-.447-.365 1.7 1.7 0 0 0-.589 0 1.5 1.5 0 0 0-.548 0 1.14 1.14 0 0 0-.426.345 1.4 1.4 0 0 0-.264.528 2.3 2.3 0 0 0 0 .67 2.5 2.5 0 0 0 0 .71" class="cls-4" fill="#fff"/></svg>