<svg viewBox="0 0 269.45 372" xmlns="http://www.w3.org/2000/svg"><path d="m245.143 98.849.124 32.546v4.308l2.685-3.372a44.6 44.6 0 0 0 6.7-14.442 115 115 0 0 1 4.579 19.874v.27c.145 1 .27 2.081.395 3.06v.499a133 133 0 0 1 .77 16.294v.291c0 1.083 0 2.081-.104 3.31a2 2 0 0 0 0 .353 129 129 0 0 1 -1.914 16.856l-.125.645-.375 1.915c0 .374-.146.77-.229 1.144a130.5 130.5 0 0 1 -5.41 18.48c-.25.686-.541 1.394-.812 2.08l-.416 1.062v.187a139 139 0 0 1 -5.619 12.09l-.166.334v55.209c0 .291 3.184 28.947-16.107 52.233-14.713 17.73-38.353 27.844-70.276 30.05h-.145c-.48 0-11.945 2.08-24.015 13.713-12.07-11.716-23.536-13.63-24.015-13.713h-.146c-31.922-2.206-55.562-12.32-70.275-30.05-19.291-23.286-16.149-52.025-16.107-52.233v-55.23l-.167-.333c-2.08-4.162-3.995-8.116-5.618-12.09v-.188l-.416-1.061c-.271-.687-.562-1.394-.812-2.081a130.5 130.5 0 0 1 -5.41-18.48c0-.374-.146-.77-.23-1.144a40.32 40.32 0 0 1 -.374-1.915l-.125-.645a129 129 0 0 1 -1.914-16.856 2 2 0 0 0 0-.354v-3.6a133 133 0 0 1 .77-16.294v-.5c.124-1.04.25-2.08.395-3.058v-.271a115 115 0 0 1 4.578-19.874 44.6 44.6 0 0 0 6.7 14.443l2.685 3.37v-4.286l.125-32.547c0-18.729-12.486-36.438-17.667-42.869h100.887l-16.524-13.505h32.922l10.78-32.714 10.696 32.714h33.004l-16.419 13.547h100.887c-5.202 6.389-17.75 24.098-17.75 42.827" fill="#fff"/><path d="m269.449 52.879h-99.077l16.44-13.548h-39.206l-12.882-39.33-12.881 39.393h-39.144l16.44 13.547h-99.139l2.269 2.58c.187.209 19.02 21.477 19.02 43.306 0 0 0 17.918-.125 27.053a52 52 0 0 1 -4.599-13.589l-.895-4.703-1.977 4.37a107.6 107.6 0 0 0 -7.325 31.652 132.66 132.66 0 0 0 14.775 73.668v54.106c-.229 2.081-3.017 30.466 16.794 54.397 15.233 18.417 39.539 28.905 72.336 31.215.811.146 12.028 2.394 23.37 13.922l1.081 1.082 1.083-1.082c11.341-11.528 22.558-13.776 23.37-13.922 32.754-2.268 57.102-12.756 72.335-31.215 19.811-23.931 17.022-52.358 16.794-54.397v-54.106a132.66 132.66 0 0 0 14.775-73.647 107.6 107.6 0 0 0 -7.325-31.652l-1.977-4.37-.895 4.703a52 52 0 0 1 -4.6 13.59c0-9.24-.124-27.054-.124-27.054 0-21.83 18.833-43.098 19.02-43.306zm-24.307 45.97.125 32.546v4.308l2.685-3.372a44.6 44.6 0 0 0 6.7-14.442 115 115 0 0 1 4.579 19.874v.27c.145 1 .27 2.081.395 3.06v.499a133 133 0 0 1 .77 16.294v.291c0 1.083 0 2.081-.104 3.31a2 2 0 0 0 0 .353 129 129 0 0 1 -1.914 16.856l-.125.645-.375 1.915c0 .374-.146.77-.229 1.144a130.5 130.5 0 0 1 -5.41 18.48c-.25.686-.541 1.394-.812 2.08l-.416 1.062v.187a139 139 0 0 1 -5.619 12.09l-.166.334v55.209c0 .291 3.184 28.947-16.107 52.233-14.713 17.73-38.353 27.844-70.276 30.05h-.145c-.48 0-11.945 2.08-24.015 13.713-12.07-11.716-23.536-13.63-24.015-13.713h-.146c-31.922-2.206-55.562-12.32-70.275-30.05-19.291-23.286-16.149-52.025-16.107-52.233v-55.23l-.167-.333c-2.08-4.162-3.995-8.116-5.618-12.09v-.188l-.416-1.061c-.271-.687-.562-1.394-.812-2.081a130.5 130.5 0 0 1 -5.41-18.48c0-.374-.146-.77-.23-1.144a40.32 40.32 0 0 1 -.374-1.915l-.125-.645a129 129 0 0 1 -1.914-16.856 2 2 0 0 0 0-.354v-3.6a133 133 0 0 1 .77-16.294v-.5c.124-1.04.25-2.08.395-3.058v-.271a115 115 0 0 1 4.578-19.874 44.6 44.6 0 0 0 6.7 14.443l2.685 3.37v-4.286l.125-32.547c0-18.729-12.486-36.438-17.667-42.869h100.887l-16.524-13.505h32.922l10.78-32.714 10.696 32.714h33.004l-16.419 13.547h100.887c-5.202 6.389-17.75 24.098-17.75 42.827"/><g fill="#164194"><path d="m113.665 196.259h12.735a205.6 205.6 0 0 0 3.06-61.222l-28.864 20.955z"/><path d="m33.4 142.507c11.404 7.887 25.909 12.986 37.23 16.211l6.888-9.51 1.31-32.505-9.8 3.309a81.4 81.4 0 0 1 40.89-29.384l-6.242 8.2 24.805 7.304 6.243-14.255 6.243 14.255 24.785-7.305-6.243-8.199a81.4 81.4 0 0 1 40.892 29.384l-9.802-3.309 1.332 32.505 6.868 9.51c11.32-3.225 25.825-8.324 37.229-16.21v-40.642a72.83 72.83 0 0 1 9.968-37.022h-98.328l6.243 21.143-19.187-14.213-19.207 14.213 6.243-21.143h-98.328a72.83 72.83 0 0 1 9.968 37.022zm13.111 23.682a79 79 0 0 0 16.856 3.684l.5-2.726c-7.846-.77-34.712-5.078-53.67-29.384v.27c-.145 1-.27 2.081-.395 3.06v.499a81.16 81.16 0 0 0 36.709 24.597m15.857 13.901.52-2.726c-7.158 0-33.858 0-53.94-19.478v3.58a2 2 0 0 1 0 .353c18.376 18 45.824 18.355 53.42 18.271m1.04 11.404-.374-2.726c-5.473.833-31.444 4.35-52.025-10.093l.125.625c0 .645.25 1.269.374 1.914.125.645.167.77.23 1.165 19.082 13.34 45.74 10.052 51.67 9.115m2.165 10.489-.833-2.685a82.1 82.1 0 0 1 -47.613 1.56c.25.688.52 1.395.79 2.082l.417 1.061v.187c23.432 6.452 46.26-1.83 47.239-2.205m1.935 6.513c-.208.125-19.29 12.361-41.183 11.196l1.686 2.85c21.725.334 40.08-11.195 40.933-11.715z"/><path d="m143.048 196.259h12.695l13.068-40.267-28.78-20.955a205.6 205.6 0 0 0 3.017 61.223m93 73.251v-38.186l-4.495 5.41c-15.711-1.394-32.754-19.249-32.921-19.436l-1.457 2.226c.729.75 15.358 17.002 32.318 19.624a127 127 0 0 1 -11.258 11.446 66.36 66.36 0 0 1 -24.639-24.972l-1.852 2.393a62.43 62.43 0 0 0 24.43 24.306 132 132 0 0 1 -11.674 8.927l-18.479-26.803-1.873 2.081 18.063 26.22a126 126 0 0 1 -11.133 6.431c-5.036-18.729-12.195-27.282-12.486-27.677l-2.081 1.685.166.188s7.076 9.26 11.945 27.053a120 120 0 0 1 -11.924 5.015 64.7 64.7 0 0 0 -4.786-29.134l-2.081 1.29a70.8 70.8 0 0 1 4.328 28.656 124 124 0 0 1 -15.15 4.037c11.259-23.12 4.308-38.27 3.996-38.936l-2.476 1.186c0 .146 7.075 15.17-5.39 38.457h-.187c0-.166.145-.312 0 0v.146c-8.97 16.835 6.597 31.215 6.597 31.215l-26.825 27.698-26.574-27.656s15.566-14.276 6.597-31.216v-.145c-.167-.312-.104-.167 0 0h-.187c-12.486-23.287-5.453-38.311-5.39-38.457l-2.477-1.186c-.312.666-7.262 15.815 3.996 38.935a124 124 0 0 1 -15.15-4.037 70.8 70.8 0 0 1 4.329-28.655l-2.081-1.29a64.7 64.7 0 0 0 -4.787 29.134 120 120 0 0 1 -11.924-5.016c4.87-17.792 11.883-27.053 11.945-27.053l.167-.187-2.081-1.686c-.313.396-7.471 9.032-12.486 27.678a126 126 0 0 1 -11.134-6.43l18.063-26.221-1.873-2.081-18.479 26.803a132 132 0 0 1 -11.674-8.927 62.43 62.43 0 0 0 24.181-24.265l-1.852-2.393a66.36 66.36 0 0 1 -24.64 24.972 127 127 0 0 1 -11.257-11.446c16.96-2.622 31.59-18.874 32.318-19.623l-1.457-2.227c-.167.187-17.21 18.042-32.922 19.437l-4.495-5.411v38.332c0 .27-2.934 26.928 14.859 48.446 13.443 16.252 35.065 25.534 64.24 27.594h.125a46.55 46.55 0 0 1 22.1 10.634 46.55 46.55 0 0 1 22.1-10.697h.126c29.134-2.08 50.797-11.341 64.24-27.594 17.793-21.517 14.9-48.175 14.858-48.445zm-29.966-99.638a79 79 0 0 0 16.856-3.684 81.16 81.16 0 0 0 36.792-24.597v-.5c-.125-1.04-.25-2.08-.395-3.059v-.27c-18.958 24.306-45.782 28.614-53.67 29.384zm.479 7.491.52 2.726c7.596 0 35.044-.333 53.294-18.27a2 2 0 0 1 0-.355c0-1.123 0-2.226.104-3.308v-.27c-20.06 19.498-46.676 19.519-53.918 19.477m-.146 11.405-.375 2.725c5.931.937 32.589 4.162 51.692-9.115 0-.395.146-.77.23-1.165l.374-1.914.125-.625c-20.602 14.442-46.573 10.926-52.046 10.093m-1.706 10.53-.833 2.685c.978.374 23.807 8.657 47.176 2.205v-.187l.417-1.061c.27-.687.54-1.394.79-2.081a82.1 82.1 0 0 1 -47.55-1.561m-2.768 9.198-1.436 2.33c.853.521 19.208 12.05 40.933 11.717l1.686-2.851c-21.892 1.165-40.975-11.071-41.183-11.196"/></g><path d="m75.749 331.899v-6.575l3.787 6.576h1.936v-9.24h-1.81v6.451l-3.684-6.451h-2.081v9.24zm21.517-9.24v9.24h-2.08v-9.24zm16.274 0v9.24h-1.915v-9.24zm24.576.75a4.35 4.35 0 0 0 -2.83-.895 4.16 4.16 0 0 0 -3.267 1.353 5.12 5.12 0 0 0 -1.248 3.6 4.9 4.9 0 0 0 1.227 3.517 3.91 3.91 0 0 0 3.018 1.27 3.48 3.48 0 0 0 1.873-.48 3.9 3.9 0 0 0 1.02-.915l.187 1.145h1.27v-5.057h-3.85v1.54h2.08a2.5 2.5 0 0 1 -.77 1.477 2.27 2.27 0 0 1 -1.581.562 2.54 2.54 0 0 1 -1.77-.728 3.12 3.12 0 0 1 -.79-2.414 3.85 3.85 0 0 1 .728-2.54 2.29 2.29 0 0 1 1.832-.831 2.5 2.5 0 0 1 1.061.208 1.83 1.83 0 0 1 1.082 1.31h1.894a3.35 3.35 0 0 0 -1.166-2.122m20.79 4.994h-2.353l1.186-3.641zm-3.517 3.497.645-1.894h3.413l.582 1.894h2.081l-3.267-9.24h-2.08l-3.31 9.24zm17.23-9.241h7.492v1.624h-2.768v7.617h-1.935v-7.617h-2.789zm22.725 5.744h-2.351l1.186-3.641zm-3.517 3.497.645-1.894h3.413l.583 1.894h2.08l-3.266-9.24h-2.185l-3.31 9.24zm-125.443-45.033h.312l3.684 16.086h-7.471zm-2.58 32.38v-1.769a4.3 4.3 0 0 1 -2.081-.416 2.33 2.33 0 0 1 -1.103-2.081 24 24 0 0 1 .5-3.892c.166-.832.52-2.642 1.102-5.39h8.657l.978 4.163q.312 1.373.5 2.372a14.3 14.3 0 0 1 .291 2.476c0 1.187-.187 1.936-.583 2.227a5.2 5.2 0 0 1 -2.476.583v1.727h12.486v-1.769c-.874 0-1.54-.52-2.08-1.706a69 69 0 0 1 -2.082-7.929l-8.532-36.459h-1.082l-8.49 38.061a50 50 0 0 1 -1.561 5.848c-.562 1.394-1.311 2.081-2.248 2.268v1.686zm20.976 0v-1.311a3.45 3.45 0 0 0 2.081-.541 3.75 3.75 0 0 0 1.02-3.08v-24.972a3.87 3.87 0 0 0 -.957-3.038 3.64 3.64 0 0 0 -2.081-.604v-1.31h11.8v1.31a3.9 3.9 0 0 0 -2.748.874 6.74 6.74 0 0 0 -.687 3.85v24.452a3.27 3.27 0 0 0 .583 2.268 3.4 3.4 0 0 0 2.29.562 7 7 0 0 0 5.118-2.08 17.96 17.96 0 0 0 3.559-7.992h.832l-1.352 11.674zm54.793 0v-.916a2.96 2.96 0 0 1 -1.873-.5 2.6 2.6 0 0 1 -.624-2.08v-17.314a2.48 2.48 0 0 1 .79-2.081 3.27 3.27 0 0 1 1.707-.395v-.916h-9.281v.916a3.43 3.43 0 0 1 1.665.395 2.56 2.56 0 0 1 .77 2.081v17.501a2.52 2.52 0 0 1 -.812 2.081 3.3 3.3 0 0 1 -1.623.354v.874zm45.553 0h-19.707v-1.249a2.726 2.726 0 0 0 2.997-3.433v-23.578a3.5 3.5 0 0 0 -.978-2.893 3.75 3.75 0 0 0 -2.081-.582v-1.228h19.436v9.864h-.832a12.5 12.5 0 0 0 -2.185-6.472 7.24 7.24 0 0 0 -5.432-1.644 2.83 2.83 0 0 0 -1.976.458 2.98 2.98 0 0 0 -.417 1.852v11.32a4.16 4.16 0 0 0 3.913-1.519 15.3 15.3 0 0 0 1.56-5.722h.854v16.502h-.854a13.5 13.5 0 0 0 -1.477-5.89 4.41 4.41 0 0 0 -3.996-1.706v11.758a2.9 2.9 0 0 0 .562 2.081 3.12 3.12 0 0 0 2.248.562 7.68 7.68 0 0 0 5.285-1.81 15.6 15.6 0 0 0 3.621-6.805h.937zm-69.672-25.825a2.7 2.7 0 0 1 .375-1.644 1.83 1.83 0 0 1 1.394-.458 2.476 2.476 0 0 1 2.539 1.706 11.6 11.6 0 0 1 .645 4.162 7.97 7.97 0 0 1 -.999 4.662 4.72 4.72 0 0 1 -3.954 1.332zm2.352 25.93a9.2 9.2 0 0 0 6.513-2.186 8.324 8.324 0 0 0 0-11.862 7.85 7.85 0 0 0 -3.08-1.56v-.396a6.37 6.37 0 0 0 3.122-2.08 7.034 7.034 0 0 0 -2.081-10.406 10.9 10.9 0 0 0 -4.724-.895h-9.885v1.103a3.87 3.87 0 0 1 1.894.5 3.06 3.06 0 0 1 .895 2.58v20.997a2.93 2.93 0 0 1 -.957 2.58 3.45 3.45 0 0 1 -1.832.48v1.102zm-2.352-14.86a6 6 0 0 1 3.809.875c1.331.999 2.08 3.059 2.08 6.139a10.2 10.2 0 0 1 -.915 4.765 3.29 3.29 0 0 1 -3.163 1.686 1.46 1.46 0 0 1 -1.478-.937 4.2 4.2 0 0 1 -.25-1.685zm34.587-11.174a2.2 2.2 0 0 1 .395-1.436 2.35 2.35 0 0 1 1.686-.437 3.27 3.27 0 0 1 3.225 2.476 12.8 12.8 0 0 1 .5 3.996c0 2.747-.437 4.495-1.332 5.244a7.24 7.24 0 0 1 -4.474 1.207zm2.809 26.012v-1.103a2.77 2.77 0 0 1 -2.248-.895 5.74 5.74 0 0 1 -.561-3.08v-8.49h.853l6.597 13.568h6.492v-1.04a2.3 2.3 0 0 1 -.728-.208 1.7 1.7 0 0 1 -.562-.666l-6.389-12.361a6.6 6.6 0 0 0 3.101-1.957 7.78 7.78 0 0 0 1.894-5.556 6.72 6.72 0 0 0 -3.808-6.638 12.5 12.5 0 0 0 -5.161-.916h-10.218v1.103a3.4 3.4 0 0 1 2.081.708 5.08 5.08 0 0 1 .708 3.267v19.187a5.43 5.43 0 0 1 -.604 3.142 3.02 3.02 0 0 1 -2.081.832v1.02zm61.243-41.537c-3.495.5-4.161 2.227-10.404 16.42l7.013 18.083c2.08 5.245 2.664 5.37 3.725 5.494v1.582h-13.09v-1.582c2.081-.187 3.08-.333 3.08-2.08a14 14 0 0 0 -.811-3.33l-3.892-10.405-1.477 3.246c-3.184 7.096-3.621 8.574-3.621 9.78 0 2.227 1.79 2.498 3.121 2.685v1.582h-9.635v-1.582c1.311-.333 2.622-.645 4.016-3.58l6.743-14.13-7.637-18.582c-.812-2.081-1.457-3.58-3.08-3.705v-1.602h13.339v1.602c-2.268.25-3.038.25-3.038 2.081a5.3 5.3 0 0 0 .562 2.373l3.745 9.572c4.391-10.093 4.391-10.093 4.391-11.82s-1.082-2.08-2.767-2.226v-1.603h9.635zm-98.577-191.806 19.208-14.214 19.208 14.214-7.013-23.62 18.25-14.733h-22.933l-7.512-22.85-7.512 22.85h-22.933l18.25 14.733z" fill="#e84e0f"/><path d="m241.084 269.303v-44.908a71 71 0 0 1 -5.036 6.93v38.332c0 .27 2.935 26.928-14.858 48.445-13.443 16.253-35.065 25.534-64.24 27.595h-.125a46.55 46.55 0 0 0 -22.1 10.717 46.55 46.55 0 0 0 -22.1-10.697h-.126c-29.134-2.08-50.797-11.341-64.24-27.594-17.793-21.517-14.9-48.175-14.859-48.445v-38.353a71 71 0 0 1 -5.036-6.93v44.908c-.291 2.518-2.705 29.446 15.962 52.025 14.338 17.376 37.125 27.282 67.715 29.467a43 43 0 0 1 21.06 10.925l1.623 1.478 1.624-1.478a43 43 0 0 1 21.06-10.925c30.59-2.081 53.377-12.09 67.715-29.467 18.73-22.6 16.253-49.528 15.961-52.025m-172.057-149.291 9.802-3.309-1.311 32.505-6.888 9.51c5.64 1.624 10.405 2.768 13.755 3.559 10.405 2.539 11.903 8.574 11.8 12.049a8.3 8.3 0 0 1 -.375 2.58c0 39.31 24.223 43.431 24.223 43.431a207 207 0 0 0 6.243-24.077h-12.695l-13.068-40.268 28.822-20.955a135.5 135.5 0 0 0 -3.892-22.121l3.038-6.784-24.784-7.305 6.243-8.199a81.4 81.4 0 0 0 -40.913 29.384m99.826 35.98-13.069 40.268h-12.736a207 207 0 0 0 6.243 24.077s24.223-4.162 24.223-43.43a8.3 8.3 0 0 1 -.374-2.581c-.104-3.475 1.352-9.51 11.799-12.049 3.267-.79 8.116-1.935 13.755-3.559l-6.867-9.51-1.332-32.505 9.802 3.309a81.4 81.4 0 0 0 -40.892-29.384l6.243 8.2-24.68 7.304 2.954 6.784a135.5 135.5 0 0 0 -3.891 22.12zm-17.647-91.148h94.81a72.83 72.83 0 0 0 -9.968 37.022v40.641a61 61 0 0 0 5.036-3.808v-36.833a66.6 66.6 0 0 1 11.612-37.958l3.226-4.162h-98.681zm-38.998-5.015h-98.681l3.225 4.162a66.6 66.6 0 0 1 11.612 37.958v36.833a61 61 0 0 0 5.036 3.809v-40.725a72.83 72.83 0 0 0 -9.968-37.022h94.81z" fill="#e84e0f"/></svg>