<svg viewBox="0 0 145.3 208.53" xmlns="http://www.w3.org/2000/svg"><path d="M0 0v127.5c0 29.76 10.37 46.91 72.65 81.03 62.27-34.12 72.65-51.28 72.65-81.03V0z" fill="#11216c"/><g fill="#e60012"><path d="M107.45 125.42l21.71-15.76v-6.94l-26.48 19.24 4.78 3.48v-.02z"/><path d="M81.05 184.3c5.9-3.38 11.08-6.55 15.65-9.55v-57.13l32.44-23.59v-6.94l-37.22 27.05-6.1-4.43 43.32-31.48v-6.94l-48.11 34.96v78.08zm43.21-125.23L70.2 98.35l4.78 3.48 54.17-39.35v-3.4h-4.89zm-60.1 34.9l48.02-34.9h-9.57L59.38 90.49zm26.38-34.9h-9.57L48.56 82.61l-6.04-4.4 26.37-19.16h-9.57l-21.6 15.68-6.04-4.4 15.54-11.31h-9.57l-10.77 7.83-6.04-4.4 4.73-3.43h-9.46v47.15L48.54 82.6l4.76 3.46 37.19-27.02.03.02zM31.8 161.97v-32.18l-14.14 10.28c1.94 7.56 6.07 14.45 14.14 21.9m16.79 12.78c4.57 3 9.76 6.17 15.65 9.55v-78.08L48.59 117.6v57.14z"/><path d="M113.49 161.97c8.06-7.45 12.21-14.34 14.14-21.9.46-1.82.81-3.67 1.04-5.58l-4.36 3.16-6.04-4.38 10.88-7.91v-6.94L113.5 129.8v32.18-.02z"/></g><path d="M20.44 20.4h8.92v-2.55h-8.92v-5.17h10.59l.81-2.55H17.45v16.95h2.99v-6.69zm101.07 7.11c-5.63 0-9.46-3.67-9.46-8.93 0-6.17 4.87-8.92 9.46-8.92 3.3 0 6.2 1.47 7.81 3.94l-2.62 1.42c-1.19-1.66-2.91-2.66-5.19-2.66-3.89 0-6.32 2.39-6.32 6.23s2.61 6.23 6.32 6.23c2.28 0 3.97-.98 5.17-2.62l2.62 1.42c-1.61 2.45-4.49 3.91-7.8 3.91v-.02zm-73.98 6.22c-4.49 0-9.3 2.77-9.3 8.93 0 5.25 3.98 8.93 9.3 8.93s9.3-3.67 9.3-8.93-3.98-8.93-9.3-8.93m0 15.14c-3.59 0-6.15-2.66-6.15-6.21s2.45-6.21 6.15-6.21 6.15 2.66 6.15 6.21-2.56 6.21-6.15 6.21m72.95-15.14c-4.49 0-9.3 2.77-9.3 8.93 0 5.25 3.98 8.93 9.3 8.93s9.3-3.67 9.3-8.93-3.98-8.93-9.3-8.93m0 15.14c-3.59 0-6.15-2.66-6.15-6.21s2.45-6.21 6.15-6.21 6.15 2.66 6.15 6.21-2.56 6.21-6.15 6.21M15.27 36.75h6.7v14.39h3.07V36.75h6.34l.84-2.55H15.27zm62.92 14.38h3.73l-8.41-9.9 7.24-7.08h-3.76l-7.68 7.53v-7.53h-2.86v16.98h2.86v-5.77l2.17-2.12 6.72 7.89zm26.77-17.01h-3.34l-5.49 7.48-5.47-7.48h-3.57l7.48 10.2v6.8h3.07v-7l7.32-9.99z" fill="#fff"/></svg>