<svg xmlns="http://www.w3.org/2000/svg" viewBox="1 1 179.81 187.5" fill-rule="evenodd"><path d="M153.789 142.873c19.633-24.024 27.017-52.308 27.017-81.25V34.01C130.717 15.15 113.181 2.487 90.903 2.487c-22.27 0-39.8 12.664-89.903 31.522v27.614c0 43.199 16.446 84.917 65.515 113.183 7.57 4.36 19.49 9.726 24.388 13.693 4.898-3.967 16.825-9.332 24.397-13.693 14.917-8.591 26.82-18.429 36.158-29.171z" fill="#fff"/><path d="M90.903 2.487c-22.27 0-39.8 12.664-89.903 31.522v27.614c0 43.199 16.446 84.917 65.515 113.183 7.57 4.36 19.49 9.726 24.388 13.693 4.898-3.967 16.825-9.332 24.397-13.693 14.917-8.591 26.82-18.429 36.158-29.171h-1.257c-9.303 10.607-21.12 20.345-35.888 28.86-7.102 4.09-18.042 9.067-23.41 12.934-5.368-3.867-16.296-8.844-23.41-12.934C18.44 146.222 1.988 104.505 1.988 61.3V34.473C51.691 15.768 68.872 3.157 90.903 3.34c22.025.194 39.212 12.429 88.916 31.134V61.3c0 28.69-7.249 56.726-26.495 80.603l.465.97c19.633-24.024 27.017-52.308 27.017-81.25V34.01C130.717 15.15 113.181 2.487 90.903 2.487" fill="#1f211d"/><path d="M90.903 184.667c-4.199-3.65-10.002-6.211-17.744-10.254C22.229 147.773 4.49 104.21 4.49 63.368V35.86c29.071-8.745 61.65-30 86.412-30z" fill="#beb1aa"/><path d="M90.903 184.667c4.202-3.65 10.008-6.211 17.753-10.254 50.92-26.64 68.674-70.203 68.674-111.045V35.86c-29.083-8.745-61.657-30-86.427-30z" fill="#b7183f"/><path d="M104.686 91.347l-6.246-13.54c1.962-3.367 6.555-9.332 10.225-12.693 3.67-3.374 8.712-10.179 8.712-21.58 0-5.658-2.741-14.997-8.862-20.35 12.547 4.895 18.203 19.81 16.067 31.828 13.46-6.888 33.05-11.172 33.05-32.439 0-8.421-5.207-16.22-12.555-21.573 27.543 9.632 22.96 38.862 6.734 50.339 9.49 1.528 17.753 5.818 21.729 15.15-7.19-5.818-12.697-9.033-22.945-9.033-21.885 0-39.18 15.303-45.909 33.89m-17.704 44.298s-.144-2.056-.224-3.743a11.42 11.42 0 0 0-.913-4.055l-5.574-13.775v-6.111l-2.994-2.915v-6.887l8.568-18.664H95.96l8.568 18.664v6.887l-2.99 2.915v6.111l-5.578 13.775a11.474 11.474 0 0 0-.916 4.055c-.071 1.687-.23 3.743-.23 3.743zM77.12 91.347l6.252-13.54c-1.966-3.367-6.558-9.332-10.228-12.693-3.673-3.374-8.715-10.179-8.715-21.58 0-5.658 2.75-14.997 8.87-20.35-12.552 4.895-18.208 19.81-16.066 31.828-13.475-6.888-33.056-11.172-33.056-32.439 0-8.421 5.213-16.22 12.547-21.573-27.538 9.632-22.946 38.862-6.729 50.339-9.488 1.528-17.75 5.818-21.729 15.15 7.184-5.818 12.703-9.033 22.945-9.033 21.894 0 39.177 15.303 45.909 33.89m4.251 71.225c-.091.4.041.752.397.846.24.065.523.047.831-.035l84.53-17.888-1.197 1.675-87.564 21.22c-1.316.182-2.682.317-3.485-.27-.678-.5-.614-1.211-.334-2.445l4.548-17.63c.114-.54-.356-.787-1.137-.64-1.596.317-2.883 1.134-4.68 2.156-4.605 2.627-9.25 5.718-13.614 8.939l16.296-4.608-1.264 3.844-20.997 5.242-14.16 11.359c-2.747 2.527-4.871 4.102-9.12 4.343l1.878-1.68 15.194-12.57-16.217 4.171c-.917.118-2.233-.187-2.588-.998l23.926-7.052c9.044-6.947 17.974-13.34 28.029-17.836 1.427-.629 3.743-1.222 4.977-.117.764.687.661 1.957.432 2.844z" fill="#1f211d"/><path d="M133.13 141.986c-1.029 2.462-3.256 4.466-4.96 5.517.132-1.674 1.68-4.918 4.148-6.082.726-.282.979.088.811.565m-14.591 4.97c.955-3.607 2.615-6.88 5.57-9.683.385-.365.826-.788 1.311-.57.367.158.453.652.2 1.192-.54 1.164-1.402 2.557-2.274 3.691-1.343 1.733-3.1 3.82-4.807 5.37m37.398-5.934c-.379-2.245-2.894-4.36-4.862-5.178 0 0-2.689 5.407-3.803 7.135-.975 1.275-1.768 2.556-2.979 3.402-.265.153-.85.511-.85.041.195-2.491 3.198-4.301 1.752-6.729-.702-1.192-4.193-1.263-6.214-1.786-1.09 4.102-2.79 7.963-6.62 10.625-1.205.846-2.986 1.892-3.803 1.07 1.799-1.205 7.437-5.16 7.11-8.998-.12-1.257-1.08-1.874-1.756-2.103-.879-.3-2.424-.259-3.711.546-3.403 2.069-5.874 6.247-5.403 10.713-1.159.752-5.604 3.456-6.78.347 3.732-3.02 8.774-8.169 10.311-13.599.241-.805.082-2.22-.82-2.885-2.291-1.693-5.265-.282-7.107 1.587-4.176 4.472-6.444 9.708-6.523 15.725-1.276 1.164-2.786 2.116-4.423 2.492-.59.13-.931-.423-.902-1.005.115-2.938.902-5.224 2.43-7.998l3.432-.81c.306-.67.735-1.581.932-2.21l-3.226.993c.772-1.522 1.974-2.968 3.094-4.355-3.917-.576-7.035 2.862-8.425 6-1.607.8-4.002.723-4.857 2.727l3.923-.876-1.075 3.25c-1.302 1.763-5.254 5.824-5.989 5.883-.558.058-.005-1.381.235-2.14.764-2.391 2.269-3.602 2.45-5.559.066-.717-.801-1.298-2.106-.91-3.226.957-6.194 4.424-8.703 7.357l-.265.3c.688-1.787 1.884-3.638 2.956-5.236-6.293.593-7.654 8.156-9.059 12.235l3.083-.541c2.774-3.473 5.23-6.905 8.641-10.02l.465-.364c-.512.782-1.343 2.61-1.693 3.632-.402 1.205-1.01 3.637.044 4.654.409.394 1.173.517 1.775.347 2.7-.764 5.33-3.232 7.637-5.889-.027 1.752.62 3.162 2.01 3.427 2.59.517 6.45-1.987 8.465-3.532 2.4 3.19 7.957.158 11.03-1.428 0 0 .632.452 1.193.57 5.633 1.269 10.657-5.53 13.534-10.214.347.023 1.246.135 1.563.247.138.047.23.17.156.323-.782 1.816-2.598 3.937-1.73 5.812.363.794 1.377 1.152 2.211 1.04 4.179-.558 6.403-5.441 8.607-8.697 1.114.6 1.975 1.651 1.96 2.591-.006 1.005-.282 1.434-1.04 1.887-.582.335-1.51.346-2.222.07-.5.676-1.533 2.145-2.148 2.85 2.492-.035 5.031-.628 6.867-2.32 1.017-.935 1.528-2.645 1.228-4.496m-117.808-9.444h1.463l-1.204 2.021 1.175 2.145H38.1l-.987-1.856v1.833h-1.3v-4.143h1.3v1.657zm15.015.206c0 .005-.3-.288-1.173-.288-.928 0-1.86.411-1.86 1.41 0 .464.35.811.685.97.373.158 1.05.329 1.043.511-.006.2-.29.27-.514.27-.34 0-.846-.182-1.105-.34v1.18s.45.312 1.31.312c.838 0 1.92-.494 1.92-1.38 0-.618-.215-.794-.782-1.076-.356-.183-.92-.212-.92-.47 0-.27.23-.294.582-.294.262 0 .723.176.814.288zm-8.733 2.22h.688l-.344-1.439zm-.179.988l-.188.747h-1.42l1.023-4.179h2.21l1.017 4.179h-1.396l-.2-.747zm35.172-.987h.687l-.35-1.44zm-.168.987l-.2.747h-1.413l1.017-4.179h2.209l1.017 4.179h-1.396l-.206-.747zm-20.028-.846v1.598h1.44v-4.19h-1.44v1.552h-.828v-1.552h-1.434v4.19h1.434v-1.598z" fill="#1f211d"/><path d="M64.881 135.739v-4.179" fill="none" stroke="#000" stroke-width="1.426"/><path d="M72.104 135.744l.77-2.485v2.485h1.325v-4.166h-2.01l-.506 2.174-.505-2.174h-2.01v4.166h1.322v-2.485l.765 2.485z" fill="#1f211d"/></svg>