<svg xmlns="http://www.w3.org/2000/svg" viewBox="3 3 780.79 782.71"><path fill="#fff" d="M125.91 412.94l.917 5.198c7.897 42.866 57.83 261.377 266.904 367.577 209.043-106.214 258.93-324.412 266.811-367.193l.954-5.03 5.005.852c25.495 4.344 90.818 21.702 117.29 28.846l-58.119-113.078 49.922-92.096H675.265l.186-36.985L595.649 76.2c-11.271 6.748-24.239 10.193-38.687 10.204-41.27-.011-94.662-27.31-163.22-83.404-68.553 56.094-121.957 83.404-163.211 83.393-14.462.01-27.387-3.445-38.642-10.193l-79.91 124.806-.008 37.022-77.352-.013 39.2 42.974v82.83l-4.19.838c-5.087 1.011-20.81 4.37-26.746 5.595L3 443.395c37.568-10.204 86.922-23.002 117.69-29.375z"/><path fill="#034f36" d="M393.765 390.288a1159.5 1159.5 0 0 0-228.896 22.83c61.292 139.979 148.564 230.515 228.889 277.056 80.278-46.528 167.564-137.09 228.867-277.068a1161 1161 0 0 0-228.86-22.818M577.246 142.27c-34.078 3.434-88.456 7.037-183.487-58.868-95.014 65.905-149.442 62.327-183.52 58.868l-35.306 35.376c56.831-9.7 133.881-15.676 218.826-15.676 84.87.01 161.918 5.977 218.793 15.676z"/><path fill="#034f36" d="M150.974 182.197l55.476-59.084s69.059 24.152 187.308-65.517c118.21 89.669 187.303 65.517 187.303 65.517l55.436 59.084c2.367.526 4.68 1.031 6.99 1.536L588.796 98.3c-11.907 5.595-71.13 27.55-195.038-72.578-123.906 100.129-183.16 78.183-195.057 72.565l-54.704 85.446c2.321-.49 4.603-1.046 6.977-1.536m242.784 583.975s196.395-94.159 249.129-349.2c-.22-.083-2.322-.07-2.549-.143-86.067 221.257-227.625 293.884-246.58 303.678-18.995-9.794-160.538-82.42-246.647-303.678-.258.06-2.287.06-2.504.143 52.666 255.041 249.151 349.2 249.151 349.2"/><path fill="#fd0" d="M392.996 483.475c7.69 1.14 12.97.407 12.97.407-2.6 10.48-12.97-.407-12.97-.407m99.78 35.927c-3.06-39.265-24.72-47.139-39.065-41.257-10.288 4.2-13.933 15.58-8.904 23.049-9.633-3.674-18.012.072-21.102 7.922-3.125 7.633 1.439 16.684 9.98 17.718 6.176.732 11.913-2.305 10.54-8.944-.535 1.86-4.277 4.382-7.857 3.288-3.993-1.163-5.04-4.825-4.57-7.31.584-2.892 3.261-5.569 7.576-5.737 4.681-.205 8.988 2.363 10.57 7.01 3.162 9.326-5.946 19.95-20.197 16.832-13.118-2.92-27.528-20.626-22.866-32.964 2.428-6.293 10.503-7.911 13.985-4.19.202-7.274-6.925-11.692-13.14-11.68 0 0 4.26-1.007 4.51-4.73.112-2.256-1.013-5.246-5.86-6.578-11.633-3.398-25.558 5.294-27.586-1.116 0 0-6.8 9.53 14.58 9.53-11.267 1.824-9.974 11.547-17.244 13.265-2.357.576-6.692.012-6.28-3.532 2.69.292 6.392-3.094 4.267-6.407-2.397-3.757-8.865-2.234-9.834 3.673-1.533 8.966 8.507 17.609 25.092 11.43-8.765 3.935-10.247 14.822-3.201 20.022-.836-3.351 1.06-8.463 4.515-9.988 0 0-.395 10.767 5.646 18.461-6.97-5.45-16.084-5.533-23.626-1.379 1.412-5.102-.292-11.344-4.807-14.971-5.371-4.249-13.843-5.665-19.642-1.044-9.591 7.502-3.711 19.794 3.598 19.18-1.804-.765-4.288-6.551.687-10.007 4.165-2.536 8.385-.086 9.706 2.098 2.787 4.443 1.058 10.938-4.917 13.445 0 0-12.654 5.51-20.327-7.442-4.115-6.879-5.734-17.441-2.823-28.905.831-2.796 5.628-19.976 25.111-25.087 0 0-2.039-3.82-8.421-2.62.535-.48 1.047-.958 1.678-1.461 20.435-18.537 48.503-19.34 65.122-13.278 0 0-26.704-17.31-59.52-.913-38.152 19.061-44.396 64.46-25.659 83.333 10.015 9.928 22.593 8.57 25.304 8.005-1.018 3.686 1.107 11.97 6.487 13.996-20.512.698-41.912-15.734-44.662-28.75 1.1 20.192 22.02 42.172 53.446 38.704 15.399-1.682 26.098-12.198 22.398-24.48-2.39-7.836-10.866-11.233-17.51-5.866-4.137 3.551-2.828 9.314.836 10.61 5.406 1.837 9.341-2.497 9.031-6.603 4.5 5.069 1.383 12.173-5.438 13.734-9.97 2.307-16.122-6.722-15.08-13.492.984-6.747 5.11-10.408 10.685-12.208 11.064-3.674 21.829 3.684 24.11 12.038 5.3 19.125-8.332 32.7-29.027 35.09-17.637 2.098-36.587-4.696-50.919-19.219-21.044-20.577-23.856-68.136-1.128-77.067-1.806-2.58-7.708-3.409-10.802.025 4.522-19.831 32.354-48.354 50.302-41.8-.4-4.452-4.113-5.928-7.336-5.472 13.733-6.16 57.39-16.711 98.834 8.187-19.12-17.299-45.192-26.555-72.788-23.575-38.182 4.187-70.49 30.86-80.867 65.672-7.915 26.902-2.863 52.77 7.134 69.933 13.027 22.368 35.617 31.683 50.547 36.171 9.382 2.762 6.844 11.691-8.42 8.366-12.988-2.807-28.405-13.335-37.475-23.433a94 94 0 0 0 19.999 22.51c23.69 19.566 43.287 10.85 44.38 3.073.553-3.084-1.88-6.219-3.97-7.754 8.933 1.633 21.318 2.027 31.5-.336-1.93 2.134-1.443 5.22.496 6.637 7.787 5.294 21.135-1.235 24.994.66 6.889 3.3-17.19 22.473-62.756 15.619 22.347 8.965 50.778 7.406 73.933-5.103 6.392-3.387 10.018-8.69 8.18-14.105-1.392-4.358-6.323-6.903-14.258-6.134-8.598.815-16.093 2.448-17.185 0-.48-1.081.027-2.927 2.058-4.346 10.954-7.873 23.191-24.402 11.855-45.136 14.008 4.587 33.404-3.756 34.918-21.223 4.56 19.725-2.813 43.576-13.13 56.011 25.838-22.207 25.443-59.946 17.419-75.804.715 3.733-2.491 6.482-5.035 7.093-5.254 1.31-8.745-2.291-9.92-4.777-2.348-5.041.637-10.995 5.248-12.772 10.956-4.177 19.914 2.52 23.416 18.942 7.064 33.143-5.604 66.565-26.408 84.438 20.332-9.113 39.525-41.043 36.888-74.775"/><path d="M186.043 213.166H170.3v-13.19h-7.408l.007 33.838h7.401l-.005-13.999h15.748v13.999h7.36l-.006-33.828-7.35-.01zm160.301-11.246c-1.561 1.583-1.597 3.922-1.678 5.269v26.624h7.392v-10.78h15.653l-.006 10.78h7.392l-.02-33.827-22.98-.013c-2.175 0-4.243.325-5.753 1.947m7.608 4.692h13.759l-.006 9.784-15.647.01.01-7.898c-.003-.386-.04-1.105.215-1.536.368-.407.956-.373 1.67-.36m-59.822-6.626l-23.063-.01v33.838h7.372v-27.215h13.827c.73.013 1.293-.034 1.592.42.364.399.306 1.118.306 1.49v25.305h7.34l-.007-26.649c.016-1.332-.029-3.673-1.606-5.245-1.525-1.597-3.584-1.934-5.761-1.934m-36.941 25.282c-.029.41.036 1.127-.326 1.489-.343.478-.93.454-1.57.467h-13.827l.005-27.249-7.42.011-.013 33.828h23.04c2.213-.013 4.29-.36 5.838-1.922 1.542-1.608 1.57-3.911 1.652-5.281v-26.625l-7.379-.01zm81.355-18.078c-.04-1.346-.087-3.697-1.63-5.281-1.506-1.61-3.606-1.922-5.79-1.933l-23.039.011.018 33.828h23.017c2.191 0 4.28-.36 5.795-1.922 1.548-1.595 1.59-3.926 1.634-5.281zm-7.349 18.08c0 .406.074 1.126-.281 1.486-.326.48-.878.469-1.57.456h-13.861l-.007-20.611 13.868.012c.705-.012 1.244-.06 1.56.36.383.433.295 1.165.291 1.526zm-117.489-10.494l-8.955-14.8h-8.706l13.733 21.33v12.508h7.931l-.012-12.508 13.751-21.33h-8.74zm168.827 19.038h7.834v-33.838h-7.823zm200.326-10.972c1.518-.17 2.95-.672 4.113-1.837 1.502-1.56 1.608-3.913 1.6-5.209v-8.63c0-1.37-.105-3.674-1.6-5.294-1.588-1.574-3.614-1.886-5.771-1.898H558.22l.007 33.84h7.396v-10.925h9.456l7.217 10.925h7.803zm-1.269-8.331c-.045.335-.065.672-.274.948-.368.456-.925.445-1.575.434l-14.12.011v-8.884l14.136-.011c.64.036 1.199-.036 1.56.418.208.252.23.65.278.952zm-95.018-14.536l-.005 7.394 11.509.012-.006 26.432h7.369l.007-26.444h11.554l-.013-7.394zm-76.879.011l.009 33.84 7.425-.012-.004-21.429 7.176 21.429h6.494l7.215-21.438.013 21.438h7.38l-.013-33.839h-9.79l-8.035 23.85-8.077-23.839zm140.549 1.922c-1.541-1.584-3.564-1.932-5.734-1.932l-15.663.01c-2.16-.01-4.204.338-5.693 1.935-1.631 1.559-1.658 3.852-1.701 5.245l.007 19.458c.036 1.38.083 3.66 1.701 5.281 1.488 1.538 3.519 1.896 5.686 1.91h15.67c2.163 0 4.186-.361 5.727-1.897 1.552-1.633 1.6-3.913 1.64-5.294v-19.47c-.023-1.381-.08-3.662-1.64-5.246m-5.74 23.083a1.74 1.74 0 0 1-.306 1.043c-.299.375-.827.361-1.56.386l-11.937-.01c-.692 0-1.23 0-1.599-.376a2.2 2.2 0 0 1-.25-1.043l-.005-16.23c0-.312.079-.683.26-.959.356-.447.92-.447 1.587-.447h11.961c.716 0 1.244 0 1.543.447a1.36 1.36 0 0 1 .3.96zm-64.087-23.083c-1.554-1.584-3.558-1.932-5.791-1.932l-15.549.01c-2.228-.01-4.241.338-5.791 1.922-1.565 1.572-1.604 3.875-1.604 5.258v19.469c.005 1.359.04 3.65 1.611 5.283 1.543 1.536 3.55 1.883 5.784 1.896l15.545.013c2.237-.013 4.241-.373 5.782-1.91 1.538-1.632 1.608-3.912 1.642-5.282l.013-19.482c-.047-1.38-.117-3.673-1.642-5.245m-5.734 23.083c-.061.348-.061.723-.238 1.043-.364.375-.955.361-1.575.386h-12.017c-.646-.025-1.186 0-1.578-.386-.198-.335-.198-.706-.297-1.043v-16.23c.1-.3.1-.683.297-.946.392-.46.925-.46 1.578-.447l12.004-.013c.633.013 1.224 0 1.583.447.182.289.175.66.236.96zm142.833-11.259l-14.056.01q-1.926-.016-1.925-1.982l-.005-3.394c.02-1.2.634-1.826 1.9-1.813l19.311-.013-.005-6.554-21.073-.01c-4.959 0-7.477 2.483-7.46 7.501l-.017 5.606c0 4.694 2.45 6.985 7.145 6.997h13.99c1.297-.012 1.905.6 1.908 1.825l-.003 3.433c0 1.285-.608 1.947-1.95 1.956l-19.7-.009v6.529h21.567c4.953 0 7.42-2.51 7.42-7.504l-.006-5.676c.012-4.624-2.367-6.902-7.041-6.902" fill="#004281"/><path fill="#034f36" d="M501.975 299.537c.06 2.592-2.028 4.034-5.503 3.865-6.424-.155-12.363-.336-18.768-.467l.006-28.426c6.372.107 12.268.179 18.668.262 3.504.063 5.56 1.56 5.604 4.167zm0 49.96c.047 2.605-2.04 3.951-5.54 3.711a1962 1962 0 0 0-18.725-1.117l-.006-30.828c6.401.194 12.266.48 18.627.733 3.515.146 5.606 1.754 5.64 4.382zm8.113-93.727H438.01s8.8 4.323 8.8 14.943l.008 98.63a1359 1359 0 0 1 63.48 3.985c14.304 1.307 22.615-4.058 22.49-14.768l.013-27.153c-.086-10.705-5.604-16.552-20.833-18.005 15.23-.108 20.938-5.21 20.82-15.967l.019-24.68c-.081-10.753-8.524-17.022-22.719-16.985M293.28 348.933c.02 2.534-2.048 4.212-5.622 4.465a862 862 0 0 0-19.865 1.43c-3.551.3-5.606-1.093-5.606-3.721l-.004-71.749c.035-2.64 2.093-4.273 5.696-4.25 6.698-.155 13.106-.214 19.857-.324 3.561 0 5.58 1.452 5.557 4.02zm8.398-93.151l-78.81-.013s8.512 4.37 8.5 15.14l-.007 88.853c.02 12.998 8.214 17.274 22.47 15.725a1440 1440 0 0 1 47.48-4.13c14.306-.96 22.824-7.898 22.824-18.906.007-27.19-.139-53.179.013-80.501.029-10.202-8.275-16.168-22.47-16.168m303.976 102.611c.036 2.904-2.031 4.31-5.57 3.816-5.847-.72-11.215-1.451-17.068-2.123-3.556-.42-5.649-2.293-5.685-5.04l.011-99.277h-39.716s8.682 4.43 8.841 15.967c.05-.061.045 58.64.045 88.027.107 10.826 8.59 18.065 22.829 19.986a1322 1322 0 0 1 44.891 6.639c14.177 2.433 22.387-3.063 22.27-15.176 0-39.143-.016-115.43-.016-115.43h-30.848zM399.23 318.322c-11.278-20.887-22.311-41.643-33.49-62.54h-36.324s8.64 4.2 8.63 14.945l.016-.06c-.016 7.24-.047 98.709-.047 98.709 10.325-.397 20.502-.721 30.827-.935l.014-62.362c11.105 20.718 21.798 41.364 33.05 62.192.12 0 18.855.206 28.167.47l-.006-112.959h-30.873c.041 20.864.029 41.653.036 62.54m-307.777-44.21l.004 104.376C79.22 380.78 66.4 383.302 54.23 385.93c-5.44 9.627-10.986 19.52-16.408 29.722 20.554-5.604 42.263-10.73 63.028-15.378 14.049-3.145 22.492-11.655 22.492-26.287V255.77l-48.626.012zm39.502-18.342s8.497 5.029 8.497 17.993v-.06 118.662c25.25-4.85 50.913-8.944 76.343-12.316l-.005-20.275a1555 1555 0 0 0-44.396 5.545v-32.123c13.075-1.308 25.628-2.485 38.71-3.529v-22.245c-13.087.77-25.645 1.587-38.726 2.499l-.148-32.772c14.772-.409 29.803-.767 44.576-1.08v-20.286zm574.805 74.101l40.13-74.1-33.032.01-31.837 58.304-.03-58.304h-38.268s7.322 4.995 7.432 18.056l.06-.013c0 53.803-.042 119.212-.042 119.212 10.173 1.956 20.723 4.045 30.86 6.242l.008-60.45 35.219 68.374c10.845 2.69 22.73 5.508 33.526 8.45z"/></svg>