<svg viewBox="0 0 120.23 185.21" xmlns="http://www.w3.org/2000/svg"><g transform="matrix(.26458 0 0 .26458 -45.717 -13.23)"><path d="m614.96 366.24c-62.43-38.04-136.87-61.18-175.69-71.59l-10.97-2.94c41.88-16.01 63.92-87.07 25.69-121.24 6.53-9.62 6.8-21.01 5.21-31.1 12.31-19.71.23-33.6-15.48-36.05-8.52-16.16-60.6-18.56-44.47-2.77-34.71 17.56-55.38 43.28-58.29 48.92-21.32-39.45-78.23-75.75-135.36-99.47-2.35 24.4 2.96 43.74 33.57 75.3 1.97 30.34 21.91 16.71 46.13 47.02 34.64 58.3 25.28 98.6 82.19 120.45l-11.99 3.3c-45.98 12.64-112.88 35.08-170.44 70.16l-12.27 7.47v168.54c0 69.63 39.5 127.77 114.25 168.11 53.61 28.93 106.28 38.45 108.5 38.84l4.46.81 4.48-.8c2.21-.39 54.89-9.93 108.49-38.85 74.74-40.34 114.25-98.47 114.25-168.1v-168.53z" fill="#ffe800"/><path d="m212.63 396.2v146.06c0 123.76 164.91 162.52 187.37 167.21 22.46-4.7 187.36-43.46 187.36-167.21v-146.06c-75.46-43.92-169.8-66.25-187.36-70.16-17.56 3.9-111.91 26.24-187.37 70.16" fill="#fff"/><path d="m223.48 516.17v11.67l156.44 8.4 40.16-40.15-8.4-156.45h-23.35l-8.41 156.45-156.44 8.41z" fill="#9f2842"/><path d="m420.08 536.24 156.45-8.4v-23.34l-156.45-8.41-40.16 40.15 8.41 156.45h23.35z" fill="#007d6f"/><g fill="#002e6d"><path d="m267.99 477.18h57.25c7.8 0 31.52 0 31.52-37.96s-23.72-37.96-31.52-37.96h-57.25zm17.12-58.79h40.13c7.41 0 14.41 0 14.41 20.84s-7 20.84-14.41 20.84h-40.13zm158.14 174.72c0 37.96 23.73 37.96 31.52 37.96h57.25v-17.13h-57.25c-7.4 0-14.4 0-14.4-20.83 0-20.84 7-20.84 14.4-20.84h51.55l5.7-17.12h-57.25c-7.8 0-31.52 0-31.52 37.96m71.64-149.7v33.77h17.13v-75.91h-17.13v25.02h-49.63l5.71 17.12zm-71.64-42.14h17.11v75.91h-17.11zm-95.99 200.93v-17.12h-57.25l5.71 17.12z"/><path d="m285.11 631.06v-58.8h65.95v-17.11h-83.07v75.91z"/><path d="m609.05 375.91c-73.2-44.61-163.31-68.47-194.8-75.89v-16.21c2.87-.82 40.46-9.36 47.95-53.14 5.73-33.47-15.37-55.46-31.64-62.63 5.19-.51 9.26-4.83 9.26-10.15 0-1.44-.31-2.81-.85-4.06 2.39 2.6 4.52 5.65 6.12 9.21 0 0 8.2-9.48.8-28.3 0 0 4.25-.87 5.99-5.04 1.54-3.73 3.16-11.68-6.74-14.69-3.6-1.09-7.13 1.89-11.26-5.71-1.35-2.5-3.42-4.77-6.35-5.63-9.16-2.67-9.47 3.72-6.92 10.27.54 1.38.51 2.95.47 4.46 0 0-10.65-1.64-20.37 3.84-1.1-2.49-1.97-5.78-1-8.96 0 0-12.93 3.47-10.78 22.17-9.15 20.2 8.68 36.07 8.68 36.07s-25.43-1.27-27.98-40.27c0 0-27.32 14.17-13.99 59.35 3.34 11.34 15.46 19.09 15.46 19.09s-6.78 3.39-14.05-2.91c0 0 0 19.38 27.62 23.26 0 0-6.94 11.95 14.21 10.58 0 0-13.12 8.68-29.66-.22-16.53-8.89-20.74-23.29-27.15-55.31-7.48-37.42-38.15-78.42-125.05-117.42 0 0 .72 18.44 23.86 43.64 15.77 17.16 32.85 15.02 52.34 36.98 0 0-21.79-16.93-37.64-11.29 0 0 49.19 18.4 59.78 71.82 10.6 53.41 42.54 70.48 70.35 76.76v14.42c-31.48 7.43-121.6 31.29-194.79 75.89l-6.84 4.17v162.18c0 65.21 37.45 119.9 108.3 158.15 51.83 27.97 102.94 37.28 105.1 37.66l2.5.45 2.5-.45c2.15-.38 53.26-9.68 105.09-37.66 70.86-38.23 108.31-92.92 108.31-158.14v-162.17zm-196.17-231.51c3.31-2.55 11.53-1.39 19.21 3.59-.81-.2-1.63-.34-2.51-.34-5.65 0-10.24 4.59-10.24 10.25 0 2.31.79 4.41 2.07 6.12-15.9-7.71-13.77-15.59-8.53-19.62m174.49 397.86c0 123.76-164.91 162.52-187.36 167.21-22.46-4.7-187.37-43.46-187.37-167.21v-146.06c75.46-43.92 169.81-66.25 187.37-70.16 17.56 3.91 111.91 26.25 187.36 70.16z"/></g><path d="m419.6 204.01s-29.23-1.65-39.16-29.23c0 0 28.12 14.89 54.04 7.72 0 0 24.8 14.88 15.98 53.49 0 0-3.79-13.16-10.96-18.13 0 0-19.47 5.34-37.52-6.34.01 0 11.87-2.56 17.62-7.51m-181.14-115.85s36.24 15.62 64.72 46.4c14.96 16.15 27.19 36.98 33.07 62.98l-19.85-23.16s-3.31-42.45-59.55-62.86c.01 0-12.28-11.36-18.39-23.36m183.92 36.26c19.21 3.66 21.04 18.6 21.04 18.6-8.84-12.5-10.68-4.58-10.68-4.58s-2.97-1.83-5.56-4.74c-4.35-4.93-4.8-9.28-4.8-9.28" fill="#ffe800"/></g></svg>