<svg xmlns="http://www.w3.org/2000/svg" viewBox="1 1 212.02 250"><path d="M1.028 214.527v3.656h16.917v.062c21.923 9.078 27.437 24.034 29.752 32.755h118.332c2.317-8.721 7.83-23.677 29.754-32.755v-.062h16.876v-3.656z" fill="#a28848"/><path d="M95.522 218.183h22.753v23.432H95.522z" fill="#b6181a"/><path d="M72.767 218.183h22.754v23.432H72.767z"/><path d="M50.013 218.183v14.525a53.514 53.514 0 0 1 4.473 8.907h18.281v-23.432z" fill="#b6181a"/><path d="M36.787 218.183c5.713 4.367 10.037 9.402 13.226 14.525v-14.525zm126.996 14.525a54.6 54.6 0 0 1 13.226-14.525h-13.226zm-45.509-14.525h22.755v23.432h-22.755z"/><path d="M141.029 218.183v23.432h18.283a53.514 53.514 0 0 1 4.471-8.907v-14.525z" fill="#b6181a"/><path d="M213.023 181.774l-.364.045c-.565.071-1.092.137-1.613.197l.005 8.308c.538 0 1.074-.01 1.609-.012q.181 0 .364-.003zm-12.308-42.431v-39.33c.002-3.787.299-5.588.911-9.383-.662.5-1.313.985-1.963 1.467l-.014.094c-.615 3.71-.892 5.407-.902 9.065v81.49c.706-.02 1.355-.053 1.968-.076zM43.546 109.487c-.683-.378-1.34-.739-1.972-1.092v25.145c.66.176 1.306.35 1.972.52zm-3.13 34.779c-4.823-5.14-14.694-9.296-17.775-15.248-.398-.787-.7-2.39-.708-6.835v-11.654c0-1.543.103-2.475.207-2.765.226-1.385.756-1.983 1.464-2.107a6 6 0 0 0-.524-.565 5 5 0 0 0-.673-.26c-.574-.175-1.02-.155-1.364.058-.432.268-.73.883-.882 1.82v.02l-.006.017c-.1.274-.185 1.235-.19 2.764v11.882c.005 4.871.366 6.227.683 6.861 1.792 3.54 6.018 6.497 10.091 9.355 2.916 2.046 5.666 3.97 7.653 6.126 4.172 4.984 4.127 11.027 4.095 16.359v16.947c0 4.645.002 9.028-3.108 11.972-1.488 1.263-3.692 1.929-6.312 2.288 3.516-.26 6.526-.894 8.358-2.436 3.124-2.94 3.03-7.359 3.023-12.144v-15.205c.014-5.64.404-12.024-4.032-17.25m-20.502 36.357c-.095-.794-.1-2.58-.1-4.107v-24.52c-.655-.118-1.314-.231-1.966-.343v24.735c0 1.393 0 3.298.091 4.12.213 2.004 1.07 2.776 2.286 3.312.324.116.69.197 1.087.24q.328-.076.618-.18c-1.1-.577-1.823-1.433-2.016-3.257m47.554-41.736a3 3 0 0 0-.395-.234c-.571-.057-1.117-.057-1.532.017-1.21.428-1.373 1.633-1.373 2.86 0 .235.007.474.01.705l.014.587v10.64q.984.099 1.97.194v-10.529c-.01-1.496-.284-3.515 1.306-4.24m-1.306 39.908v-18.73l-1.97-.143v18.812l-.014 1.768c-.003.486-.003.94-.003 1.345 0 3.589.28 4.21 3.104 4.32q.099-.038.186-.089c-1.557-.645-1.313-2.435-1.303-7.283m20.592 8.712c.904-1.408.906-3.288.906-9.91V165.21c-.658-.018-1.308-.038-1.969-.052v12.404c0 6.588 0 8.58-.938 10.048l-.06.106c-.516.872-1.373 2.328-4.3 3.262-.5.142-1.155.265-1.95.37 1.614-.12 3.104-.299 4.076-.576 2.964-.948 3.724-2.4 4.235-3.265m-1.063-39.21v13.288l1.969.072v-13.225c.008-4.592.409-7.693-2.415-10.193-1.76-1.472-3.692-2.193-7.598-3.025 2.605.703 4.134 1.429 5.553 2.649 2.582 2.327 2.55 5.1 2.506 8.94zm44.173 33.971v-37.987c0-3.214-.164-6.306-4.94-7.552-.782-.177-1.989-.259-3.765-.271.673.047 1.215.123 1.629.22 5.098 1.367 5.103 4.766 5.107 7.76v37.848c0 3.143-.01 6.693-5.093 8.623-.534.176-1.261.333-2.193.462 2.088-.155 3.457-.38 4.314-.674 4.799-1.818 4.94-5.021 4.94-8.429m-20.484-37.754c.008-1.4.289-2.219.861-2.702a1.9 1.9 0 0 0-.572-.334c-1.536.168-2.243.825-2.26 3.04v38.688c.012 2.29.738 2.978 2.24 3.144.221-.095.425-.215.592-.37-.572-.492-.853-1.35-.861-2.774 0-10.935-.007-28.4 0-38.692m44.015 37.713v-42.716c.004-3.129.102-5.432.606-7.423-.652.148-1.311.296-1.964.434l-.01.058c-.49 1.93-.597 4.131-.597 7.274v42.418c.013 2.415.761 3.16 2.229 3.327.25-.106.464-.239.644-.408-.575-.518-.896-1.414-.908-2.964m21.099-47.363c.008-3.611.103-6.32.506-8.683-.656.217-1.315.434-1.967.646l-.004.044c-.415 2.365-.502 5.108-.502 8.507v46.312c0 2.775.398 6.546 1.495 8.804l.044.095q.965-.007 1.943-.007c-1.1-2.304-1.505-6.166-1.515-8.956z"/><path d="M94.631 131.964l5.336.114a3.589 3.589 0 0 1-.214-1.172v-6.827c1.665.038 4.22.111 4.831.169v-1.344c-.611.035-3.167-.006-4.83-.04v-4.012c2.056.043 4.462.11 5.371.211v-1.32l-10.494-.224c.218.422.31.895.31 1.31v11.974c0 .321-.093.755-.31 1.161m13.432-1.535c0 1.649 1.694 1.87 4.904 1.82l1.301-.022c2.88-.045 3.93-.149 4.754-.625.814-.449.76-1.18.76-1.93v-3.51l-4.267.069v2.895c0 1.002.086 1.547-.61 1.774-.365.141-1.24.121-1.512.023-.607-.175-.518-.858-.518-1.71v-8.84c0-.602-.089-1.3.64-1.565.45-.158 1.024-.148 1.327-.053.941.269.817 2.301.817 3.162v1.353l4.123-.067v-5.576l-2.913-.122c-1.21-.045-6.379-.214-7.864.53-1 .517-.943 1.8-.943 2z" fill="#a28848"/><path d="M195.878 140.544v-37.668c.005-3.571.297-5.27.902-8.822-6.08 4.357-11.887 8.107-17.937 11.568.712 1.914 1.005 3.096 1.005 6.016v71.52c-.004 3.23-.293 4.706-1.005 7.38a16171.8 16171.8 0 0 0 29.33-.133v-8.257c-4.3.53-6.785.725-12.295.923zM23.655 105.725c2.01 2.726 2.022 6.015 2.022 9.135v13.976a282.53 282.53 0 0 0 13.026 3.967v-25.78c-10.98-6.344-23.4-15.072-26.862-17.574-3.41-2.464-6.176-3.533-7.966-2.596-1.383.55-2.297 2.514-2.602 5.55-.277 3.06-.233 6.258-.233 7.667v13.16c-.005 8.56-.11 12.87 1.288 16.796 1.482 3.91 4.303 7.148 10.524 12.555.649.578 1.272 1.12 1.912 1.675 5.253 4.217 8.526 6.1 9.598 12.274.192 1.175.303 3.727.305 6.415v12.737c0 3.859 0 6.2-1.92 7.783-.212.161-.497.296-.818.414a5.817 5.817 0 0 1-.618.18c-1.222.287-2.774.272-3.81-.118-1.334-.598-2.216-1.446-2.432-3.535-.097-.814-.102-2.632-.102-4.198v-25.03a523.511 523.511 0 0 1-13.927-2.685v42.029c4.63.426 14.09.926 17.871.936 7.088.01 14.345.212 17.67-2.631 3.127-2.984 3.031-7.47 3.027-12.352v-15.41c.013-5.766.397-12.32-4.04-17.734-4.82-5.335-14.689-9.698-17.771-15.9-.399-.822-.7-2.488-.706-7.12v-12.2c0-1.621.101-2.61.204-2.917.327-2.126 1.299-2.5 2.522-2.124 1.283.422 2.468 1.233 3.263 2.02.2.19.374.382.524.566.016.021.04.049.051.07m58.265 81.758c.897-1.417.897-3.3.897-9.975v-12.44a705.494 705.494 0 0 1-13.935-.611c0 3.06.006 11.503.006 14.424.007 4.806.191 6.352-1.423 7.196a1.367 1.367 0 0 1-.185.09.831.831 0 0 1-.106.052c-.31.082-1.306.162-1.922.157-4.415-.083-3.947-.974-3.934-7.728v-19.173a571.707 571.707 0 0 0 21.498 1.335v-13.38c.015-4.653.414-7.789-2.42-10.393-2.49-2.181-5.357-2.841-13.731-4.565a205.25 205.25 0 0 1-3.225-.685c-5.657-1.238-10.078-1.92-11.513-1.75-1.54.367-2.315.908-3.13 1.8-1.42 1.887-1.414 3.915-1.414 9.716v36.865c-.007 4.286-.1 5.993.4 7.628.322.965 1.701 3.658 4.144 4.49 2.988.867 7.935 1.032 11.607 1.037.52.007 1.005.007 1.52.007 1.332 0 9.54.053 12.62-.814 2.97-.95 3.733-2.418 4.246-3.283m-19.087-50.175c1.083-.194 3.125.128 4.241.676a3.324 3.324 0 0 1 .405.238c1.417 1.176 1.404 1.994 1.404 4.467v11.22a543.454 543.454 0 0 1-2.72-.255c-.656-.065-1.315-.128-1.97-.194a430.442 430.442 0 0 1-2.873-.298v-11.435c-.014-1.594-.32-3.79 1.513-4.419m62.188 45.009V144.62c-.003-3.178-.162-6.21-4.942-7.55-1.653-.413-5.271-.425-12.219-.413-5.858.02-11.76-.088-13.836.975-3.854 2.136-3.44 5.644-3.432 7.142v37.463c-.008 1.744-.413 5.356 3.432 7.89 2.103 1.2 8.01 1.455 13.836 1.458 6.995-.003 10.58-.325 12.22-.883 4.794-1.814 4.938-5.004 4.941-8.384m-13.93.887c-.016 1.437-.304 2.282-.85 2.773a1.994 1.994 0 0 1-.592.37c-.484.196-1.083.26-1.788.262-2.251-.015-3.307-.62-3.332-3.406v-38.7c.027-2.741 1.087-3.262 3.332-3.277.715.007 1.314.063 1.808.248q.322.123.573.335c.55.464.839 1.275.85 2.681zm58.557-1.43v-45.742c.007-3.484.106-6.096.511-8.357a225.193 225.193 0 0 1-15.449 4.197c.297 1.742.503 4.052.503 6.486v43.818c-.013 1.548-.32 2.473-.913 3.015a2.16 2.16 0 0 1-.644.408c-.48.201-1.076.28-1.777.29-2.055.013-3.306-.514-3.327-3.56v-42.036c.006-3.04.1-5.278.602-7.2a208.573 208.573 0 0 1-15.644 2.62c.307 1.555.494 3.62.499 5.802v41.064c.01 2.69.185 4.878 3.63 7.265 3.9 2.353 15.009 2.753 18.491-1.024.179.57.363 1.11.55 1.662.017.052.038.106.05.156h1.193c4.464-.012 8.769-.026 13.242-.04-1.105-2.273-1.498-6.08-1.517-8.823" fill="#b6181a"/><path d="M47.606 111.174v2.086c12.919 4.723 26.945 7.804 41.796 9.179v-1.93c-14.876-1.402-28.906-4.538-41.796-9.335m127.372-1.485v-2.14c-14.872 6.742-31.906 11.154-50.176 12.917v1.936c18.216-1.733 35.239-6.083 50.176-12.713m-154.52 88.762h-1.359c-.518 1.054-.988 1.113-1.84 1.232v1.013h1.1v6.544c0 .448-.048.699-.183 1.065h2.391c-.11-.337-.11-.617-.11-1.065zm23.274.193c-.358-.407-1.543-.378-1.959-.378h-.705c-.364 0-1.686-.067-2.008.391-.215.324-.247.838-.247 1.605v2.58c0 .39.04.848.41 1.09.615.434 2.104.284 2.695.067v2.107c0 .58.016 1.239-.283 1.39-.22.108-.41.069-.5.017-.284-.153-.257-.72-.257-1.543v-1.04h-2.066v1.551c0 .787-.029 1.283.247 1.57.348.363 1.267.394 1.734.394h.64c.484 0 1.698.09 2.146-.354.418-.42.366-1.19.366-1.57v-6.37c0-.792.04-1.225-.213-1.507m-1.856 3.817c0 .487-.16.69-.366.741-.286.067-.566-.023-.632-.485-.017-.078-.017-.673-.017-.875v-1.606c0-.633.057-.92.299-1.016.109-.052.323-.088.488.017.227.151.227.379.227 1.024zm24.182 1.647c0-.778-.123-.956-.88-1.255.771-.206.84-.472.84-1.146v-1.432c0-.391.054-1.213-.297-1.608-.472-.485-1.84-.417-2.16-.417h-.312c-.536 0-1.583-.053-2.036.393-.355.346-.311 1.064-.311 1.565v1.402c0 .726.04 1.096.823 1.28-.867.342-.81.637-.81 1.407v2.095c0 .576-.057 1.427.5 1.779.638.364 3.451.38 4.096.028.632-.352.547-1.095.547-1.756zm-2.392 3.376c-.106.053-.372.053-.474 0-.255-.162-.233-.368-.233-.73v-2.688c0-.214-.031-.43.2-.591.106-.078.358-.125.523-.037.268.118.268.333.268.606v2.683c0 .272.019.61-.284.757m0-5.01c-.106.058-.372.058-.474 0-.255-.144-.233-.363-.233-.73v-1.847c0-.214-.031-.429.2-.591.106-.086.358-.122.523-.042.268.123.268.34.268.607v1.848c0 .285.019.618-.284.755m24.49-.89v-1.158c0-.639.054-1.217-.263-1.593-.465-.553-1.562-.46-2.55-.46-.23 0-2.31.077-2.31.077v3.446h1.859v-1.529c0-.418-.037-.699.354-.9.15-.08.414-.055.513 0 .24.161.295.374.295.617v1.189c0 .647.025 1.037-.135 1.199-.187.203-.635.175-1.013.175v.907c.489 0 .753.017.877.108.296.258.27.69.27 1.253v1.138c0 .7.026 1.255-.24 1.4-.188.096-.353.06-.436 0-.326-.185-.282-.74-.282-1.483v-1.47h-2.071v2.118c0 .637-.04 1.252.214 1.562.263.3.841.327 1.548.327h1.434c.862 0 1.265.027 1.59-.268.387-.393.348-1.416.348-1.759v-2.115c0-.811-.117-1.055-.874-1.324a.925.925 0 0 0 .535-.256c.326-.325.338-.631.338-1.201m38.614 4.953l1.711-2.036c1.386-1.66 1.464-1.66 1.464-3.172v-.827c0-.472.018-1.31-.355-1.669-.472-.487-1.542-.447-2.63-.417a20.47 20.47 0 0 0-2.218.227v3.496h1.899v-.909c0-.682-.04-1.443.3-1.697a.565.565 0 0 1 .483-.066c.257.084.323.253.38.453.099.398.056 1.772-.008 2.19-.125.77-.515 1.22-1.34 2.174l-1.904 2.263v1.757h5.525v-1.834c-.553.067-.785.067-1.503.067zm22.618-8.19c-1.35 0-1.808.039-2.08.24-.523.393-.486.964-.486 1.564v6.55c0 .593-.037 1.17.486 1.566.272.186.73.241 2.08.241 1.5 0 1.966-.055 2.268-.418.284-.327.31-.577.31-1.389v-6.55c0-.807-.026-1.063-.31-1.4-.302-.365-.769-.405-2.268-.405m.51 8.542c0 .456-.073.676-.499.676-.441 0-.54-.22-.54-.676v-6.908c0-.476.099-.675.54-.675.426 0 .499.199.499.675zm21.592-8.542c-1.354 0-1.812.04-2.078.242-.534.392-.482.963-.482 1.563v6.55c0 .593-.052 1.17.482 1.566.266.186.724.241 2.078.241 1.496 0 1.97-.055 2.26-.418.29-.327.316-.577.316-1.389v-6.55c0-.807-.026-1.063-.315-1.4-.291-.365-.765-.405-2.261-.405m.508 8.542c0 .456-.08.676-.498.676-.442 0-.542-.22-.542-.676v-6.908c0-.476.1-.675.542-.675.418 0 .498.199.498.675zm23.704-2.714v-4.884c0-.34.015-.553.092-.84h-2.306l-2.861 5.724v1.569h2.968v1.71c0 .31-.037.58-.144.85h2.288c-.08-.307-.066-.55-.066-.809v-1.751h1v-1.569zm-2.136 0h-1.876l1.876-3.642zm-91.515-2.18l3.13 1.913-1.318 3.666 2.932-2.494 2.924 2.494-1.308-3.666 3.128-1.914-3.75.02-.994-3.465-.997 3.464zM195.784 75.88V48.77c-21.923-9.078-27.437-24.034-29.754-32.755h-35.882a6.897 6.897 0 0 1-.424-2.06c-.05-1.077.174-4.167 2.75-5.758-3.482.6-4.937 2.891-5.492 5.268a11.634 11.634 0 0 0-.24 1.445 14.126 14.126 0 0 0-.068 1.8c.109 5.21 3.272 9.748 4.104 11.233-3.315-3.163-5.461-7.474-5.597-11.82a32.408 32.408 0 0 1-1.214-1.13 26.591 26.591 0 0 1-1.437-1.528c-4.31-4.977-4.422-9.332-2.745-12.466a.332.332 0 0 0-.039.05c-1.413 1.364-2.322 3.226-2.81 5.033a12.232 12.232 0 0 0-.428 3.093c0 13.138 15.879 16.83 15.879 29.107 5.309.04 6.394 3.973 6.353 5.318-.05 1.519-.77 3.561-2.948 4.669 4.032 0 5.559 2.677 5.559 4.758 0 2.234-1.768 3.906-3.925 3.906-3.144 0-4.249-2.738-3.685-4-.177 1.049.925 3.005 2.822 2.921 2.465-.11 3.01-2.107 2.963-3.021-.177-3.431-2.905-4.115-5-4.033-1.98.077-4.094-.189-4.798-1.96 1.26 1.467 3.221 1.308 4.354 1.077 1.001-.202 2.995-1.61 2.7-4.195-.401-3.488-3.943-4.477-5.775-4.172 0-13.986-18.86-17.8-18.86-25.898 0-2.091 1.956-4.082 2.41-4.537-4.08 2.065-4.665 5.1-4.665 7.03 0 11.537 13.19 15.165 13.19 23.122 0 3.277-1.97 4.306-2.97 4.785.35-.483.495-1.457.483-2.23-.029-2.3-1.706-4.062-3.836-4.297-2.279-.25-5.478 1.72-5.127 6.381.119 1.657 1.095 4.818 3.79 6.732a4.604 4.604 0 0 0-.852 2.677c0 .4.065.778.153 1.144a12.132 12.132 0 0 0-3.252-2.239c1.227-.872 2.173-2.262 2.173-2.262-1.686-1.317-3.878-3.766-3.878-7.557 0-4.875 3.603-6.947 6.362-6.758 2.563.175 4.7 2.01 5.01 4.43.659-4.102-4.005-7.507-7.518-11.495-3.855-4.38-6.475-10.526-3.453-16.082-1.099.988-2.861 3.628-3.324 5.205-.466-1.577-2.229-4.216-3.322-5.205 3.022 5.557.4 11.703-3.457 16.082-3.51 3.988-8.172 7.393-7.515 11.494.307-2.418 2.443-4.254 5.01-4.429 2.757-.19 6.363 1.883 6.363 6.758 0 3.791-2.191 6.24-3.877 7.557 0 0 .948 1.39 2.171 2.262a12.215 12.215 0 0 0-3.256 2.239c.09-.366.155-.745.155-1.144a4.595 4.595 0 0 0-.853-2.677c2.698-1.914 3.672-5.074 3.794-6.732.347-4.661-2.849-6.63-5.13-6.38-2.127.234-3.807 1.998-3.837 4.296-.01.772.134 1.747.485 2.23-1.003-.479-2.968-1.508-2.968-4.785 0-7.957 13.187-11.584 13.187-23.123 0-1.93-.584-4.964-4.664-7.029.451.455 2.413 2.446 2.413 4.537 0 8.098-18.855 11.912-18.855 25.898-1.837-.305-5.377.683-5.777 4.172-.299 2.584 1.697 3.993 2.695 4.195 1.136.23 3.097.39 4.356-1.077-.704 1.772-2.82 2.038-4.799 1.96-2.092-.082-4.823.602-4.999 4.033-.049.914.499 2.91 2.964 3.021 1.897.084 2.995-1.872 2.822-2.92.561 1.261-.544 3.999-3.687 3.999-2.157 0-3.923-1.672-3.923-3.906 0-2.08 1.526-4.758 5.558-4.758-2.178-1.108-2.897-3.15-2.946-4.67-.046-1.344 1.042-5.278 6.351-5.317 0-12.277 15.878-15.97 15.878-29.107 0-.93-.142-2.003-.433-3.093-.482-1.792-1.379-3.635-2.767-4.995-.029-.028-.05-.061-.081-.087 1.68 3.132 1.558 7.49-2.753 12.465q-.923 1.069-2.118 2.174c-.176.163-.338.323-.523.485-.13 4.346-2.28 8.657-5.596 11.82.835-1.485 3.998-6.023 4.11-11.233a13.703 13.703 0 0 0-.227-2.853 9.972 9.972 0 0 0-.084-.393c-.555-2.376-2.01-4.666-5.487-5.268 2.574 1.591 2.794 4.68 2.744 5.758a6.897 6.897 0 0 1-.422 2.06H47.695c-2.316 8.722-7.83 23.677-29.752 32.755v27.092c-6.648-5.816-12.31-12.189-16.915-18.988v6.441c4.196 5.505 9.08 10.704 14.626 15.53a114.674 114.674 0 0 0 3.71 3.1 118.829 118.829 0 0 0 6.694 4.974l.054.037a123.815 123.815 0 0 0 5.428 3.533q.765.472 1.54.933c.094.054.185.114.28.168.902.535 1.83 1.034 2.746 1.547 16.89 9.436 36.391 15.314 57.047 17.121a23.6 23.6 0 0 0 13.859 4.474 23.575 23.575 0 0 0 13.884-4.496c19.968-1.783 38.846-7.365 55.32-16.294 6.453-3.497 12.547-7.496 18.175-11.997a121.322 121.322 0 0 0 3.6-3.008c5.559-4.827 10.462-10.03 14.668-15.543v-6.43c-4.594 6.773-10.242 13.121-16.875 18.916m-129.3-12.138c-2.683-1.726-6.673-6.388.063-18.143-4.078 9.496-1.49 13.782 1.458 15.87-.932 1.185-1.52 2.273-1.52 2.273m40.265-32.736c-.768 0-2.386.313-3.298.707 1.117-1.57 2.7-4.444 3.298-6.422.597 1.98 2.186 4.854 3.298 6.422-.91-.394-2.529-.707-3.298-.707m40.427 32.736s-.588-1.088-1.52-2.272c2.948-2.089 5.535-6.374 1.458-15.87 6.734 11.754 2.745 16.416.062 18.142" fill="#a28848"/><path d="M88.651 106.024a23.62 23.62 0 0 1-5.32-16.061c-1.533.025-5.88-.122-9.155-4.223 6.047 1.177 9.836-3.554 10.13-5.216-1.152 1.273-3.805 3.722-8.356 3.722-.96 0-2.057-.16-3.185-.497v19.488a147 147 0 0 0 15.886 2.787"/><path d="M72.767 103.236V83.747c-4.119-1.23-8.662-4.837-8.373-11.808-6.853-1.924-9.945-7.425-10.244-12.411-.456-7.647 4.23-10.727 8.099-18.92 1.962-4.148.4-10.293-.419-10.892 5.257 1.983 6.044 7.627 5.838 10.121 1.924-3.74 5.07-8.457 5.078-14.456h-18.26a53.431 53.431 0 0 1-4.473 8.907v61.528c7.24 3.095 14.858 5.578 22.754 7.42" fill="#b6181a"/><path d="M50.013 95.818V34.289c-4.766 7.657-12.061 15.117-22.753 20.448v28.444c7.015 4.946 14.648 9.174 22.753 12.637m136.524-12.672V54.737c-10.688-5.332-17.984-12.792-22.754-20.448v61.509c8.109-3.468 15.74-7.7 22.754-12.652m-57.149-2.622c.295 1.662 4.082 6.393 10.13 5.216-3.066 3.841-7.076 4.214-8.828 4.223q.023.527.024 1.06a23.6 23.6 0 0 1-5.317 14.964 147 147 0 0 0 15.632-2.764V83.718c-1.164.357-2.299.527-3.285.527-4.551 0-7.205-2.448-8.356-3.721"/><path d="M163.783 95.797V34.29a53.598 53.598 0 0 1-4.471-8.907h-18.283v1.63c.503 5.232 3.252 9.433 5 12.826-.207-2.494.583-8.139 5.838-10.121-.819.599-2.38 6.744-.422 10.891 3.874 8.194 8.56 11.274 8.1 18.92-.298 4.987-3.387 10.487-10.244 12.412.286 6.915-4.179 10.518-8.272 11.778v19.506c7.898-1.844 15.516-4.33 22.754-7.427" fill="#b6181a"/><path d="M127.1 93.467a19.943 19.943 0 0 1-2.47 7.513c.087.225.434 1.256.599 2.87a21.938 21.938 0 0 0 4.08-12.347c-.97 1.068-1.824 1.708-2.209 1.964m-35.266-6.888c-1.86 1.823-2.77 3.754-3.646 5.622 0 0-.398.826-.437.917a19.279 19.279 0 0 0 2.43 7.563l1.059.575c1.79.984 3.649 1.996 6.157 2.378l3.991-5.509a32.159 32.159 0 0 1-3.054-9.456 4484.27 4484.27 0 0 1-6.5-2.09m2.256-7.285a8.891 8.891 0 0 1-1.674-.602c-.042.239-.078.458-.078.46-.253 1.435-.497 2.818-.497 4.328 0 .734.069 1.506.211 2.32l6.485 2.077c2.463-2.445 5.127-4.387 8.123-5.935l.005-6.374c-1.623.187-3.715 2.812-7.104 3.81-2.094 1.306-1.737 3.922-.72 4.9-3.727.045-5.128-3.332-4.771-4.933.008-.02.015-.034.02-.051m20.033.083c-3.079-.905-5.085-3.158-6.643-3.702v6.267a32.159 32.159 0 0 1 8.174 5.95c.172-.054 6.159-1.985 6.358-2.05.157-.86.23-1.668.23-2.44 0-1.466-.225-2.813-.46-4.214 0 0-.069-.394-.124-.693a8.805 8.805 0 0 1-2.056.799c.005.017.016.032.02.05.353 1.602-1.106 4.979-4.778 4.934 1.02-.979 1.375-3.595-.721-4.9" fill="#fff"/><path d="M102.155 97.82c3.293.518 6.51.51 9.824-.025 1.495-2.89 2.504-5.951 3.089-9.35a31.5 31.5 0 0 0-7.994-5.787c-2.959 1.508-5.561 3.404-7.952 5.787a31.2 31.2 0 0 0 3.033 9.375m-15.03-5.293c.123-.258.322-.682.322-.682.96-2.024 1.87-3.936 3.816-5.842a14.4 14.4 0 0 1-.229-2.526c0-1.604.259-3.052.506-4.467l.127-.724c-.023-.014-.051-.028-.072-.042-.616.018-1.776.108-3.172.492a22.6 22.6 0 0 0-3.706 11.419c.96 1.243 1.868 1.977 2.408 2.372"/><path d="M107.042 111.23c-1.382 0-2.731-.14-4.01-.4-.19.153-1.078.81-2.578 1.473 2.144.658 4.348 1.023 6.588 1.023 2.255 0 4.455-.369 6.58-1.037-1.502-.646-2.384-1.305-2.566-1.46a20.276 20.276 0 0 1-4.014.402" fill="#fff"/><path d="M124.496 104.954c-.036-1.629-.348-2.816-.526-3.386a71.27 71.27 0 0 0-.747.399l.002-.001c-1.861 1.02-3.794 2.069-6.469 2.455-1.163 2.385-2.681 3.847-4.303 5.406 0 0-.399.386-.594.578a14 14 0 0 0 2.93 1.53 22.6 22.6 0 0 0 9.707-6.98"/><path d="M116.022 104.07l-.472-.644s-3.376-4.664-3.488-4.815a31.4 31.4 0 0 1-10.026.007c-.106.148-3.86 5.315-3.983 5.485.518 1.062 1.15 2.013 2.047 3.053 0 0 2.072 2.093 2.072 2.095 0 0 .68.658.773.742a19.95 19.95 0 0 0 4.098.435 21.85 21.85 0 0 0 4.009-.388l.83-.807c1.475-1.399 3.002-2.849 4.14-5.163m6.816-2.814s.974-.525.998-.516a19.445 19.445 0 0 0 2.496-7.41l-.496-1.058c-.512-1.11-1.096-2.367-1.9-3.554a12.465 12.465 0 0 0-1.712-2.097c-.206.069-6.196 1.996-6.372 2.05-.582 3.41-1.61 6.508-3.13 9.457.293.409 3.862 5.34 3.965 5.48 2.498-.379 4.358-1.378 6.151-2.352" fill="#fff"/><path d="M125.79 78.887c-1.582-.499-2.833-.577-3.296-.587h-.043c.051.282.133.765.133.765.239 1.44.472 2.829.472 4.344 0 .828-.078 1.7-.251 2.635.157.188 1.478 1.726 1.478 1.727.945 1.317 1.571 2.61 2.29 4.163l.32.679c.429-.301 1.404-1.05 2.428-2.316-.129-4.102-1.38-8.073-3.53-11.41"/><path d="M88.848 103.87l.225-1.625s.337-1.156.376-1.281a19.61 19.61 0 0 1-2.472-7.538c-.263-.166-1.163-.806-2.204-1.97.048 2.424.443 4.789 1.245 7.027.683 1.916 1.654 3.718 2.83 5.387" fill="#fff"/><path d="M102.207 110.417c-.22-.205-.6-.564-.6-.565l-.31-.305-2.17-2.302c-.769-.936-1.349-1.83-1.817-2.803-2.686-.413-4.608-1.46-6.463-2.475 0 0-.498-.267-.735-.396l-.293 1.095s-.235 2.17-.28 2.173a22.3 22.3 0 0 0 9.695 7.07c1.54-.538 2.552-1.19 2.973-1.492"/><path d="M95.244 54.04c.518 0 .935-.41.935-.915a.926.926 0 0 0-.935-.92.928.928 0 0 0-.938.92c0 .505.419.916.938.916m-1.985 3.826c.92-.021 2.195-.275 3.339-1.195a3.906 3.906 0 0 1-1.357.25c-2.139 0-3.872-1.7-3.872-3.797 0-.364.068-.708.165-1.039-.982-.132-2.137-.615-3.016-1.347-.162.364-.366 1.39-.355 2.229.04 3.492 3.223 4.938 5.096 4.899m25.188-3.826c.519 0 .934-.41.934-.916a.925.925 0 0 0-.934-.92.926.926 0 0 0-.934.92c0 .505.418.916.934.916m1.98 3.826c1.874.04 5.055-1.406 5.098-4.899.011-.84-.191-1.865-.356-2.23a5.983 5.983 0 0 1-3.015 1.348c.098.331.165.675.165 1.04 0 2.096-1.732 3.797-3.872 3.797a3.989 3.989 0 0 1-1.357-.251c1.14.92 2.417 1.173 3.337 1.195" fill="#fff"/><path d="M77.966 74.387c2.828.208 5.35-1.963 4.257-5.06.378 3.12-2.255 3.795-3.542 3.795-1.093 0-3.768-.971-3.768-4.42s3.772-6.024 7.097-5.791c5.352.375 8.3 5.321 7.72 9.96.348.635 2.593 4.556 7.08 4.556 5.279 0 6.404-4.168 10.04-4.168 3.632 0 4.759 4.168 10.034 4.168 4.488 0 6.731-3.92 7.08-4.556-.579-4.639 2.37-9.586 7.72-9.96 3.328-.233 7.098 2.343 7.098 5.791s-2.673 4.42-3.768 4.42c-1.286 0-3.918-.675-3.542-3.795-1.092 3.098 1.43 5.269 4.259 5.06 2.29-.169 5.074-2.362 5.074-5.759 0-3.393-3.223-8.685-10.51-8.025 0 0 1.538-2.884-.011-6.77.684 7.125-5.606 11.542-11.83 8.434.094.712.155 1.461.155 2.268 0 1.59-.619 4.592-3.731 4.592-.95 0-2.023-.477-2.748-1.06-.08-1.411.696-4.768 3.713-3.532-.41-.83-1.28-1.183-2.181-1.183-.98 0-2.039.941-2.561 2.528-.692 2.117-2.308 3.67-4.25 3.67-1.945 0-3.561-1.554-4.254-3.67-.523-1.587-1.583-2.528-2.561-2.528-.901 0-1.771.354-2.182 1.183 3.02-1.236 3.794 2.12 3.714 3.532-.726.583-1.8 1.06-2.748 1.06-3.113 0-3.73-3.002-3.73-4.592 0-.808.059-1.557.153-2.268-6.222 3.108-12.515-1.31-11.828-8.434-1.546 3.887-.011 6.77-.011 6.77-7.289-.66-10.512 4.632-10.512 8.025-.003 3.397 2.784 5.59 5.074 5.76" fill="#fff"/><path d="M46.376 246.324c-3.85-11.17-11.818-19.964-23.533-25.965l-4.927-2.524H1v-3.178h211.335v3.178h-16.553l-5.218 2.729c-11.73 6.135-19.314 14.55-23.309 25.865l-1.404 3.98-58.987.134-58.988.134zm115.027-8.85c2.76-5.514 6.968-11.122 11.652-15.525 2.085-1.961 3.792-3.69 3.792-3.84s-31.461-.275-69.915-.275c-38.453 0-69.915.107-69.915.238s2.108 2.335 4.684 4.9c5.064 5.04 7.852 8.85 10.875 14.857l1.933 3.84h104.794z" fill="#a28848"/></svg>