<svg height="100" width="100" xmlns="http://www.w3.org/2000/svg"><path d="M99.4 50c0 27.3-22.1 49.4-49.4 49.4S.6 77.3.6 50 22.7.6 50 .6 99.4 22.7 99.4 50" fill="#fff"/><path d="M13.4 50.2c0-.5.1-1 .1-1.5H2.1c0 .5-.1 1-.1 1.5C2 67.1 10.8 82 24.1 90.5l6.6-9.3c-10.4-6.5-17.3-17.9-17.3-31" fill="#00603e"/><path d="M98 50.2c0-.5-.1-1-.1-1.5H86.5c0 .5.1 1 .1 1.5 0 12.9-6.7 24.3-16.8 30.8L75 91.2c13.7-8.5 23-23.6 23-41" fill="#d53741"/><path d="M50 86.8c-7.1 0-13.7-2.1-19.3-5.6l-6.6 9.3c7.5 4.8 16.3 7.6 25.9 7.6 9.1 0 17.7-2.6 24.9-7l-5.2-10.2C64 84.6 57.3 86.8 50 86.8" fill="#fff"/><path d="M50 13.6c19.7 0 35.7 15.6 36.5 35.1h11.4C97.1 22.9 76 2.3 50 2.3S2.9 23 2.1 48.8h11.4c.8-19.6 16.8-35.2 36.5-35.2" fill="#09154c"/><path d="M7.6 41.3c-1-.2-1.4-.2-1.5.4s.5.8 2.2 1.1c2 .4 2.5.4 2.6-.2s-.5-.8-1.6-1l.3-1.5h.2c1.4.3 2.4.9 2.1 2.8-.4 2-1.9 1.9-3.9 1.5-1.7-.3-3.4-.7-3-3 .3-1.4 1-2 2.6-1.7l.3.1zm-.3-7.5l.6-1.4 5.1 2.1.9-2.1 1.2.5-1.6 3.6zm10.5-9.3c1.1.8 1.7 1.7.6 3.2s-2.1 1.2-3.2.4l-3.7-2.6.9-1.3 4.1 2.9c.4.3.8.3 1.1 0 .2-.3.1-.7-.3-1l-4.1-2.9.9-1.3zm.3-7.1l1.9-1.6c.9-.8 1.8-.9 2.6 0 .5.6.6 1.3.2 1.9.4-.3 1.1-.6 2.1.4.5.6 1 1.6-.4 2.9l-1.9 1.5zm3 1l.3-.3c.4-.4.4-.8.1-1.1-.2-.3-.6-.4-1.1 0l-.3.3zm1.9 2.2l.4-.3c.5-.4.4-.9.1-1.2-.5-.6-1-.6-1.3-.2l-.4.3zm9.9-12.9l2.2-.8c1.5-.5 2.4 0 3.2 2.3s.9 3.5-1.1 4.2l-2.1.7zm3.4 4.8l.4-.1c.7-.2.8-.6.2-2.5-.5-1.6-.8-1.9-1.6-1.7l-.4.1zM43 5l3.9-.4.2 1.2-2.3.3.1 1.4 2.2-.3.1 1.3-2.1.2.1 1.6 2.5-.3.1 1.3-4 .4zm9.8-.5l2.5.3c1.7.2 1.9 1.4 1.8 2.3-.1 1.2-.8 2-2.4 1.8l-.7-.1-.3 2.7-1.6-.2zm1.3 3.1h.4c.6.1.8-.3.9-.8s-.1-.9-.7-1h-.4zm8.7 6c-2-.7-1.8-2.1-1.1-4.1s1.4-3.2 3.4-2.5c2.1.7 1.7 2.3 1.1 4.1-.6 1.7-1.3 3.2-3.4 2.5m.3-1c.6.2.9-.3 1.5-2.1s.7-2.4.1-2.6-.9.3-1.5 2.1c-.5 1.8-.6 2.4-.1 2.6m9.5-2.1l2.3 1.4c1.1.7 1.1 1.7.6 2.5s-1.1 1-1.9.8c.8.7.5 1.2 0 2-.7 1.1-.7 1.3-.6 1.5v.1l-1.4-.9c0-.3.2-.6.6-1.3.6-1 .6-1.3.2-1.6l-.5-.3-1.5 2.4-1.3-.9zm-.1 3.2l.4.3c.5.3.9 0 1.2-.3.3-.4.3-.8-.2-1.2l-.4-.3zm8.2 4.4l-1-1 .9-.9 3.2 3.2-.9.9-1-1-3.9 3.9-1.1-1.2zm.949 9.352l5.595-3.864.91 1.316-5.596 3.865zM90.9 29.7l.7 1.6-4.5 2.8 5.2-1.3.6 1.5-6.8 1.3-.8-1.8zM88.1 43c-.4-2.1.9-2.6 3-3s3.5-.4 3.9 1.7c.4 2.2-1.2 2.7-3 3s-3.5.5-3.9-1.7m1-.2c.1.6.7.6 2.6.3 1.8-.3 2.4-.5 2.3-1.2-.1-.6-.7-.6-2.6-.3-1.8.4-2.4.6-2.3 1.2M10.5 57.5l-.3-1.4 1.2-.2.9 4.3-1.2.3-.3-1.4-5.4 1.1-.3-1.5zm3.1 20.6c-1.3-1.7-.4-2.7 1.3-4s3-1.9 4.3-.3c1.4 1.8.2 2.9-1.3 4-1.5 1.2-2.9 2.1-4.3.3m.9-.6c.4.5.9.2 2.4-.9s1.9-1.6 1.5-2.1-.9-.2-2.4.9-1.9 1.6-1.5 2.1m67.4-1.1c-.8-.6-1.2-.8-1.5-.4-.4.5 0 .9 1.4 2.1 1.5 1.3 2 1.6 2.4 1.1.4-.4-.1-.9-.9-1.6l1-1.2.2.2c1.1 1 1.7 2 .4 3.5-1.3 1.6-2.6.7-4.2-.6-1.3-1.1-2.6-2.3-1.1-4.1.9-1.1 1.9-1.3 3.1-.2l.2.2zm5.6-15.8l.5-1.9h7l-.4 1.6-1.3-.1-.4 1.6 1.2.5-.4 1.6zm1.4-.6l2.8 1.3.3-1.1z" fill="#fff"/><path d="M38.9 87.5l1.6.4-1.3 5.4 2.2.5-.3 1.3-3.8-1zm22.3 4.8c.3 1.3.1 2.4-1.7 2.8s-2.4-.6-2.7-1.9l-.9-4.5 1.6-.3 1 4.9c.1.5.4.8.8.7s.6-.4.4-1l-1-4.9 1.6-.3z" fill="#000001"/><g fill="#d53741"><path d="M75.7 60.3c-4 10.4-14.2 17.8-26 17.8-15.4 0-27.9-12.5-27.9-27.9s12.5-27.9 27.9-27.9c11.9 0 22.1 7.5 26.1 18h5.5c-4.2-13.4-16.8-23.2-31.6-23.2-18.3 0-33.1 14.8-33.1 33.1s14.8 33.1 33.1 33.1c14.7 0 27.2-9.6 31.5-23z"/><path d="M50.5 26.6v5.5c1.1 0 2.2.2 3.3.4v40.9c2.3-.4 4.5-1.2 6.6-2.2V35.5c1.7 1.2 3.2 2.7 4.4 4.5h6.1c-3.7-7.7-11.4-13.1-20.4-13.4m-13.9 11c1.6-1.7 3.6-3.1 5.7-4.1v32.9c-2.2-1-4.1-2.4-5.7-4.1zm12-8.3c0-1.3-1-2.3-2.3-2.3h-.7c-7.2 1.3-13.3 5.8-16.6 12-.1.2-.1.5-.1.7 0 1.3.9 2.3 2.1 2.3.2 0 .3 0 .5-.1v16.4c-.2 0-.3-.1-.5-.1-1.2 0-2.1 1-2.1 2.3 0 .2 0 .4.1.6 3.3 6.3 9.4 10.9 16.7 12.1h.6c1.3 0 2.3-1 2.3-2.3z"/></g></svg>