<svg xmlns="http://www.w3.org/2000/svg" width="200" height="188"><path d="M95 .3c-1.2.1-3 .4-4 .6s-2.6.5-3.5.7c-.9.3-2.3.7-3.1.9-.8.3-2.1.7-2.9 1.1-.8.3-2.2.8-3.1 1.2-.8.4-2.2 1.1-3.1 1.6s-2.4 1.4-3.3 2-2.4 1.6-3.2 2.2c-.9.6-2.3 1.8-3.2 2.6s-2.3 2.1-3.1 2.9c-.8.9-1.9 2.1-2.5 2.8-.5.6-1.5 1.9-2.2 2.8-.6.9-1.6 2.3-2.2 3.2-.5.9-1.6 2.8-2.3 4.1-.7 1.4-10.7 18.7-22.1 38.5C19.7 87.3 9.9 104.2 9.3 105c-.5.7-1.3 2-1.8 2.9-.5.8-1.3 2.3-1.8 3.2-.4.9-1.1 2.4-1.5 3.3s-.9 2.3-1.2 3.2c-.3.8-.7 2.2-1 3-.2.8-.6 2.3-.8 3.4s-.5 2.8-.7 4c-.1 1.1-.3 3.1-.4 4.4-.1 1.9-.1 3 0 4.9.1 1.3.3 3.3.5 4.5.1 1.1.4 3 .7 4.2.2 1.2.7 3 1 4s.8 2.6 1.2 3.6 1.2 2.9 1.9 4.2C6 159.2 7 161 7.6 162s1.4 2.3 1.9 3 1.5 2.1 2.2 3c.8.9 2.4 2.6 3.5 3.9 1.2 1.2 3 2.8 3.9 3.6 1 .8 2.5 2 3.3 2.6.9.6 2.4 1.6 3.3 2.1 1 .6 2.7 1.6 3.9 2.1 1.1.6 3 1.4 4.1 1.9 1.2.5 2.7 1 3.4 1.2.8.3 2.3.7 3.5 1s3.1.7 4.3.9c1.2.1 3 .4 4.1.5 1.4.1 12.2.1 51.1.1s49.6 0 51.1-.1c1-.1 2.8-.4 4-.5 1.2-.2 3.1-.6 4.3-.9s2.7-.7 3.3-.9 2-.7 3.1-1.1 2.8-1.2 3.9-1.7c1.2-.5 2.7-1.3 3.5-1.8.9-.5 2.4-1.4 3.4-2.1s2.6-1.9 3.4-2.6c.9-.6 2.3-1.9 3.2-2.7.9-.9 2.2-2.1 2.8-2.8s1.6-1.9 2.2-2.6 1.5-1.9 2-2.6 1.4-2.2 2-3.2c.7-1 1.6-2.7 2.2-3.9s1.4-3 1.8-3.9c.3-1 .9-2.5 1.2-3.4s.7-2.4 1-3.5c.2-1 .6-2.7.7-3.8.2-1.1.5-2.7.6-3.5.1-1 .1-3.1.1-5.4 0-2.9 0-4.5-.2-5.9-.1-1.1-.4-2.8-.6-3.8s-.5-2.5-.7-3.4c-.3-.9-.7-2.4-1-3.3s-.8-2.4-1.2-3.3c-.3-.9-.9-2.3-1.3-3.1-.4-.9-1.1-2.2-1.5-3-.5-.8-1.3-2.1-1.8-2.9-.5-.9-10.3-17.9-21.6-37.9-11.4-19.9-20.9-36.8-21.2-37.4s-1-2-1.5-2.9c-.6-1-1.4-2.5-1.8-3.2-.5-.7-1.3-1.9-1.8-2.7-.6-.7-1.6-2.1-2.4-3s-2.2-2.5-3.1-3.5c-1-.9-2.4-2.2-3.1-2.9-.8-.6-2.1-1.6-2.9-2.2-.8-.7-2.3-1.7-3.3-2.3s-2.9-1.7-4.3-2.4-3.5-1.7-4.7-2.1c-1.1-.5-2.9-1.1-3.8-1.4-1-.3-2.5-.7-3.3-.9-.7-.2-2.1-.4-2.9-.6-.9-.1-2.6-.4-3.9-.5-1.8-.2-3.2-.3-5.6-.3-2.2 0-3.9.1-5.4.3" fill="#fff"/><path d="M98.2 6.8c-.4 0-1.4.1-2.3.2-.8.1-2.3.3-3.2.4-.8.2-2.3.5-3.2.7-1 .2-2.4.6-3.3.9s-2.4.8-3.3 1.2-2.5 1.1-3.5 1.6-2.6 1.4-3.5 2-2.3 1.5-3 2c-.8.6-1.9 1.5-2.6 2.1-.6.5-1.9 1.7-2.7 2.5-.9.9-2.1 2.2-2.8 3s-1.6 2.1-2.2 2.8c-.5.8-1.4 2.2-2 3.2-.6.9-1.5 2.5-1.9 3.5-.5.9-10.3 17.8-21.7 37.6-11.4 19.7-21.3 36.6-21.9 37.6-.7 1-1.6 2.4-2.1 3.2-.4.8-1.2 2.2-1.6 3.1s-1 2.3-1.4 3.2c-.3.8-.8 2.3-1.1 3.3s-.8 2.9-1 4.1c-.3 1.3-.6 3.2-.7 4.2-.2 1.3-.3 3-.3 5.2 0 1.8.1 3.9.2 4.7s.3 2.2.4 3.1c.2.9.5 2.4.7 3.3.2 1 .7 2.4.9 3.3.3.9.9 2.4 1.2 3.3.4.9 1.2 2.5 1.7 3.5s1.4 2.6 1.9 3.5c.6.9 1.5 2.3 2.1 3 .5.8 1.3 1.7 1.6 2.2.4.4 1.3 1.4 1.9 2.1.7.7 1.9 2 2.8 2.7.8.8 2.3 2 3.3 2.7s2.4 1.7 3.2 2.2c.7.5 2.4 1.4 3.6 2.1 1.3.6 3.2 1.5 4.2 1.9s2.8 1 3.8 1.3c1.1.3 2.8.7 3.9.9 1 .2 2.7.5 3.7.6 1.8.3 4.3.3 52.1.3s50.2 0 52-.3c1-.1 2.7-.4 3.6-.5.9-.2 2.5-.6 3.6-.9s2.7-.8 3.6-1.2c.8-.3 2.5-1 3.7-1.6s2.8-1.4 3.5-1.8c.8-.5 1.9-1.2 2.5-1.6s1.8-1.2 2.5-1.8c.8-.6 2.1-1.7 2.9-2.4l2.9-2.9c.7-.9 1.8-2.1 2.3-2.8.6-.6 1.5-2 2.2-3 .7-1.1 1.7-2.7 2.2-3.5.4-.9 1.2-2.5 1.6-3.5.5-1 1.1-2.7 1.5-3.6.3-1 .8-2.5 1-3.4.2-.8.5-2.3.7-3.3.2-.9.4-2.6.5-3.7.2-1.1.2-3.2.2-4.9 0-1.6 0-3.7-.2-4.8-.1-1.1-.3-2.8-.5-3.8-.2-.9-.5-2.3-.7-3-.1-.7-.5-1.9-.7-2.6s-.7-2-1-2.9c-.4-.8-1.1-2.5-1.7-3.6-.5-1.2-1.4-2.7-1.8-3.4s-.9-1.5-1.1-1.8-9.7-16.9-21.1-36.9S143.4 34.7 143 34c-.3-.7-.9-1.9-1.3-2.8-.5-.8-1.1-1.9-1.5-2.5s-1-1.6-1.5-2.2c-.4-.7-1.3-1.8-1.9-2.5-.6-.8-1.8-2.1-2.8-3.1-.9-1-2.3-2.3-3.2-3-.8-.7-2.2-1.8-3-2.4l-3.3-2.2c-.9-.5-2.5-1.3-3.4-1.8-1-.5-2.6-1.2-3.6-1.6-1.1-.4-2.6-.9-3.5-1.2s-2.3-.6-3.2-.8c-.8-.2-2.3-.5-3.3-.6-1-.2-2.8-.4-4-.4-1.2-.1-2.7-.2-3.4-.2-.6.1-1.5.1-1.9.1" fill="#132347"/><path d="M98.3 63c-1 .1-2.6.3-3.5.4-1 .2-2.6.5-3.6.8-1.3.3-2.3.7-3.4 1.2-.9.5-2 .9-2.4 1s-2.1.7-3.7 1.2l-3.1 1c-7.2.4-9.1.5-9.5.7-.4.1-1.3.5-2.1.9-.8.3-1.9 1-2.5 1.4-.7.4-1.8 1.4-2.6 2.2-.9.9-1.6 1.7-2 2.5-.4.6-.9 1.6-1.1 2.3-.4 1.3-.4 1.4-.4 3.5 0 1.9 0 2.4.3 3.4.2.8.9 2.5 2.4 5.4l2.1 4.3c1.6 5.4 2.6 8.9 3.1 11.3.6 2.4 1.7 6.1 2.3 8.3.7 2.1 2 7.1 3 10.9.9 3.8 1.8 7.1 1.9 7.4.1.2.3.5.5.6.2.3.8.3 8.8.2h8.6c1.1-.6 1.6-1 1.8-1.3.2-.2.4-.6.5-.9.1-.2.2-.8.2-1.2 0-.6-.1-1.1-.3-1.4-.1-.3-.5-.8-.8-1.1-.4-.4-.9-.7-1.4-.8-.5-.2-1.5-.2-5-.2h-4.3c.1-.7.6-6 1.3-12.2.6-6.2 1.1-11.3 1.1-11.4-.1 0-.5-.2-1-.4-.4-.2-1.3-.7-1.8-1.1-.6-.3-1.4-1-1.9-1.5s-1.2-1.3-1.5-1.8c-.3-.4-.8-1.3-1-1.8-.3-.6-.6-1.6-.8-2.3l-.3-1.2H91s-.5 6-1.1 13.3c-.6 7.2-1.1 13.3-1.1 13.4s2.3.1 11.1.1h11c0-.5-.4-6.6-1-13.7-.6-7.2-1.1-13.1-1.1-13.1h14.8c-.2.6-.3 1.3-.5 1.9s-.6 1.5-.9 2.1c-.3.5-.8 1.4-1.2 1.9-.4.6-1.2 1.3-1.7 1.8-.5.4-1.3 1-1.8 1.3-.5.2-1.1.6-1.5.7-.4.2-.7.3-.7.3 0 .1.5 5.1 1.1 11.2s1.1 11.4 1.2 11.8l.1.7c-8 0-8.9 0-9.4.2-.4.1-.9.4-1.2.7-.2.3-.6.7-.7 1-.2.3-.3.8-.4 1.1 0 .4 0 .8.2 1.4s.4.9.9 1.5c.4.4.9.7 1.2.8.4.2 2.4.2 9 .2 5.4.1 8.5 0 8.7-.1.2 0 .4-.3.5-.7.1-.3.8-3.5 1.7-7.2 1.2-4.9 1.9-7.8 2.9-11 .8-2.4 1.8-6.2 2.4-8.5.5-2.2 1.4-5.6 2-7.6l1-3.5c3.8-7.7 4.4-9 4.6-10 .2-.7.4-1.8.4-2.5.1-.9 0-1.7-.1-2.5-.1-.7-.4-1.8-.6-2.3-.3-.6-.7-1.5-1.1-2.1-.4-.5-1-1.4-1.4-1.8-.5-.5-1.3-1.3-1.9-1.7-.6-.5-1.3-1-1.6-1.2s-1.1-.6-1.8-.9c-.6-.4-1.5-.8-1.9-.9-.6-.3-1.4-.4-5.3-.6l-4.6-.3c-6.6-2-8.2-2.6-9-3.1-.7-.3-1.9-.8-2.5-1-.7-.1-2-.4-2.8-.6-.9-.2-2.4-.4-3.3-.6-1-.1-2.1-.2-2.7-.2zm-10.1 76.7c-.4.2-.9.4-1.2.7-.3.2-.7.6-.9 1-.2.3-.5.9-.6 1.2 0 .4-.1 1 0 1.3 0 .4.1.9.3 1.2.1.4.5.9.8 1.2s.8.7 1.2.8l.8.4c20.7 0 22.4 0 23.1-.1.4-.2 1-.4 1.3-.6s.8-.7 1-1.1c.2-.3.5-.9.6-1.3s.1-1 .1-1.3c-.1-.3-.2-.9-.4-1.2-.1-.3-.4-.8-.7-1.1-.2-.3-.8-.7-1.2-.9l-.7-.3c-21.9-.1-22.9-.1-23.5.1" fill="#cbab58"/></svg>