<svg height="257.559" viewBox="0 0 60.573 68.146" width="228.939" xmlns="http://www.w3.org/2000/svg"><g fill-rule="evenodd"><path d="m30.266 1.002v66.144c12.87-6.917 28.71-25.598 29.307-49.46-5.56.093-11.419-.69-16.819-3.851-5.234-3.065-9.957-7.965-12.488-12.833" fill="#231f20"/><path d="m30.268 1v66.144c-12.87-6.917-28.67-25.587-29.268-49.45 5.122-.022 11.353-.802 16.567-3.7 5.55-3.089 10.05-7.894 12.701-12.994" fill="#ec1c24"/><path d="m30.31 15.073c-1.347 1.185-2.694 2.506-4.428 3.55l.004 13.435h8.981v-13.434c-1.732-1.045-3.234-2.367-4.557-3.552m-.037-5.846c1.924 2.373 4.706 4.874 8.05 6.747.362 10.684 3.45 22.788 8.032 29.782.095.11.055.173-.009.25-3.102 4.93-7.617 9.41-11.479 12.49v-22.961h-4.741l-4.243-.004v22.965c-3.85-3.069-8.752-7.719-11.887-12.637-.19-.279-.134-.436.004-.647 4.373-6.738 7.787-18.58 8.006-29.238 3.346-1.873 6.341-4.374 8.267-6.746" fill="#fff"/></g></svg>