<svg xmlns="http://www.w3.org/2000/svg" width="262.684" height="380.686" viewBox="0 0 220 318.92"><path fill="#015daa" d="M0 318.92h220V0H0z"/><path fill="#fbaf35" d="M142 62.56v55.7c-31.75-22.48-60.38-1.1-60.38-1.1v-54.6H8.88v23.1s11.2-1.5 11.6 6.68v97.93c1.69 34.2 18.79 51.3 18.79 51.3 16.69 17 43 28 72.51 28 30.3 0 57.15-11.53 73.76-29.27 0 0 15.19-16.85 16.46-43.64V96.13c.85-9.56 9.14-10.41 9.14-10.41V62.56zm40.9-16.05 4-2.41q4.23 7.8 9.79 7.8a9.5 9.5 0 0 0 4.46-1.09 8 8 0 0 0 3.18-3 7.7 7.7 0 0 0 1.09-3.95 8 8 0 0 0-1.6-4.65q-2.21-3.14-8.09-7.57t-7.35-6.45a11.8 11.8 0 0 1-2.5-7.22 10.9 10.9 0 0 1 1.47-5.61 10.44 10.44 0 0 1 4.14-4 12 12 0 0 1 5.84-1.48 12.25 12.25 0 0 1 6.23 1.67 21.1 21.1 0 0 1 6.16 6.07l-3.85 2.92a18.4 18.4 0 0 0-4.56-4.65 7.77 7.77 0 0 0-4.07-1.12 6.54 6.54 0 0 0-4.69 1.74 5.7 5.7 0 0 0-1.8 4.27 7.3 7.3 0 0 0 .64 3 11.1 11.1 0 0 0 2.35 3.14q.92.9 6.1 4.72 6.13 4.53 8.41 8.06a13 13 0 0 1 2.28 7.09 12 12 0 0 1-3.91 8.92 13.05 13.05 0 0 1-9.47 3.79 14 14 0 0 1-7.8-2.28q-3.51-2.31-6.45-7.7zm-30-38.42h27.05v4.66H157.6v14.76h22.15v4.62H157.6v18.52h22.15v4.65h-26.87zm-34.42 4.62v16l8.12.06a20 20 0 0 0 7-.9 7.2 7.2 0 0 0 3.53-2.86 8 8 0 0 0 1.28-4.43 7.57 7.57 0 0 0-1.28-4.3 7.1 7.1 0 0 0-3.37-2.79 20.5 20.5 0 0 0-6.93-.83zm-4.72-4.62h9.4a57 57 0 0 1 10.66.64 12.1 12.1 0 0 1 6.84 4.14 11.66 11.66 0 0 1 2.63 7.76 12.5 12.5 0 0 1-1.83 6.77 11.3 11.3 0 0 1-5.17 4.43 24 24 0 0 1-9.29 1.52l17 22h-5.9l-16.94-22h-2.7v22h-4.72zM102 16l-3.66 3.47a27.7 27.7 0 0 0-8.67-5.87 23 23 0 0 0-9.14-2A21.9 21.9 0 0 0 70 14.32a19.8 19.8 0 0 0-7.77 7.41 19 19 0 0 0-2.76 9.85 19.6 19.6 0 0 0 2.83 10.14 20.46 20.46 0 0 0 7.9 7.54 22.8 22.8 0 0 0 11 2.73 18.86 18.86 0 0 0 12.32-4.11 16.2 16.2 0 0 0 6-10.66H84.48v-4.54h20.35q-.06 10.95-6.51 17.39t-17.2 6.42q-13.1 0-20.73-8.92a23.7 23.7 0 0 1-5.89-15.89 24.36 24.36 0 0 1 3.37-12.48 23.84 23.84 0 0 1 9.24-9A26.85 26.85 0 0 1 80.4 6.9a29.4 29.4 0 0 1 11.3 2.19A33.5 33.5 0 0 1 102 16M41.22 8.09h4.72V55.3h-4.72zM9.49 12.68V8.09h25.9v4.59H24.86V55.3H20V12.68zm144.46 261.84h3.59v32.21h13.7v3.44h-17.29zm-36.45 35.65v-35.65h.77L142 301.81v-27.29h3.51v35.65h-.8l-23.51-26.95v26.95zm-22.61-28.09L88.76 295h12.19zm.44-7.56L112 310.17h-3.83l-5.6-11.73H87.16l-5.57 11.73h-4l16.84-35.65zm-47 0h3.56V296a45 45 0 0 0 .14 4.77 8.1 8.1 0 0 0 1.24 3.54 7.4 7.4 0 0 0 3 2.37 9.4 9.4 0 0 0 4 .95 8 8 0 0 0 3.39-.75 7.56 7.56 0 0 0 2.71-2.09 8.5 8.5 0 0 0 1.6-3.22 26.8 26.8 0 0 0 .36-5.57v-21.48h3.56V296a26 26 0 0 1-.94 7.73 10.4 10.4 0 0 1-3.73 5.12 10.65 10.65 0 0 1-6.76 2.18 13 13 0 0 1-7.41-2.03 9.9 9.9 0 0 1-4.12-5.45 28.7 28.7 0 0 1-.66-7.51z"/><path fill="#005dab" d="M122.21 226.38s-5.13 4.07-9.42 3.95c0 0-3.54 1.23-9.34-3.08 0 0-4.81-3.17-4.94 1.19a4 4 0 0 0 2.22 3.62s8.88 6.66 10.12 10c0 0 1 2.47 3 0 0 0 4.57-6.91 9.63-9 0 0 2.59-1.6 2.35-6 0 0 0-2.1-3.58-.62m-13.56-97.1c2.6 1.67-.26 4.49-1.24 6.21 0 2.07 2 2.12 1.86 4.35-2.66 5.43-7.75 11-16.16 8.7v-3.11c-4.26 3-10.71 3.8-13.05 8.7 1.29 4.51 4.12 7.48 6.21 11.19-9 1.56-17.7-7.19-14.29-16.16 1.38-.34.88 1.19 1.86 1.24C80 145.55 86 140.62 95.6 139.23c.85 2 .14 2.08 0 4.35 4.28.66 2.34-3.83 2.49-4.35 2.15-4.68 6.78-6.89 10.56-9.94M85 172.17c-2-.55-1.29 1.61-2.49 1.86-.84-1.24-1.18-3-1.86-4.35H78.2c-4.53 7.52 11.48 9.8 6.84 2.49m21.13-59c.31 1.52 0 8.47 0 12.43-8.2-5.56-14 4.21-22.37 1.86-7 6.82-19.42 14.34-17.4 26.1.56 3.05-2.6 2.37-2.49 5a11.4 11.4 0 0 0 2.49 8.7c.72-.1 1.11.14 1.24.62 14-2.42 17.46 2.57 23 10.56 3.86 5.57 8.92 11.54 2.49 20.51-3.54-6.19-2.21-14-7.46-18-2.13-1.63-5.67-1.15-8.08-2.49-3.79-2.1-4.54-7.43-9.32-6.84.16 5.85 8.24 9.15 13.67 11.81-1.39 2.34-4 3.44-8.08 3.11-2.41-4.63-7-7.09-10.56-10.57-2.47.63-3.38 2.83-4.35 5 .47 2 4 1 4.35 3.11.17 2.24-1.15 3-1.24 5 2.58 4.46 7.67 6.42 13.05 8.08-.39 5.82-3.52 8.9-7.46 11.19-11.69-2-21.16-30.13-6.21-36-3.88-3.79-3.15-10-1.24-15.54-3.4-.3-3.43 2.78-6.84 2.49 1.63-6.42 5.58-12.06 9.32-18 2.94-4.69 6.06-13.09 10.56-16.16 2.77-1.89 6.1-.76 9.32-1.86 4.09-1.41 5.94-5.48 9.94-7.46 3.3-.19 4.13 2.09 6.84 2.49a20.4 20.4 0 0 0 6.84-5m67.1 47.69c6 4.51 14 16.7 6.84 24.86 3.8 11.54-2.27 19.34-5 28-3.18 1.17-8.3.4-12.43.62-1.92 3.73-5 5.6-1.86 9.94-2.15 1.33-3.65 6.06-6.21 5-2-10.42-7-17.86-11.81-25.48 5.63 2.66 10.18 6.4 14.92 9.94 1.84-1.68 2.78-4.26 4.35-6.21 17.7 1.16 14.85-26.83 10.56-38.53 1.11-3.18 2.53-4.58.62-8.08m21.13-44.12h1.86c-1 11.27-6.22 18.23-13.67 23-5-2.21-6.51-8-13.05-8.7-1.21 8 4.73 14.73 11.19 20.51 4.52 4 12.35 6.93 14.29 12.43 4 11.16-.26 27 1.24 40.4-14.49-1.93-5-26.17-9.94-38.53-6.31-15.93-26.22-23.05-29.81-41.73 10-3.7 16.8 5.77 23 9.94 5.53-5.25 13.26-8.28 14.92-17.4M141 174q.17-2-1.86-1.86c-4.44 6.39 9.73 6.2 7.46-1.86a4 4 0 0 0-3.11-.62c-.93 1.34-.69 3.87-2.49 4.35m-24.24-60.9c3.15 1 4.55 3.74 7.46 5 2.36.05 4.44-2.67 6.84-2.49 3.63.28 4.87 5.17 8.7 6.84s8.51.6 11.19 2.49c3.71 2.6 7.59 11.37 10.56 16.16a122 122 0 0 1 9.32 17.4c-1.6 2.78-4.41-2.15-6.84-2.49.72 6.33 3.5 12.21-1.86 15.54 15.27 6 6.19 33.25-5 36.67-5.13-1.5-7.27-6-8.7-11.19 6-.79 9.27-4.4 13.67-6.84.19-2.47-1.44-3.12-1.24-5.59-.25-2.73 3.35-1.62 3.73-3.73-.34-2.56-2-3.76-3.73-5-3 3.47-8.65 4.2-9.32 9.94-3.5 1.33-8.92.58-9.32-3.11a20.67 20.67 0 0 0 14.29-11.19c-5.08-1.26-6.37 4.92-9.94 6.84-2 1.05-4.91.69-6.84 1.86-5.74 3.49-6.06 10.63-8.08 18-6-4.1-5.24-17 1.86-19.27 1.31-10.5 12-11.64 23.62-11.81 2.19-1.53 2.82-4.64 3.11-8.08-.13-2.57-2.42-3-3.11-5-.65-2.73 2.1-2 1.86-4.35-4.31-9.16-11.14-15.79-18-22.37-9.41 2.4-13.91-6.79-23.62-2.49.11-4.09 1.65-8.9-.62-11.81m-66.5 47.23c.34 2.64-1.2 5.86 1.24 8.7C47 180.28 44.14 209.36 62 207.59c1.15 2.16 2.43 4.2 3.73 6.21 5.39-3.11 9.5-7.48 15.54-9.94-5.52 7.12-9.48 15.8-12.43 25.48-3.68-.48-7.6-6.3-3.73-8.7-.84-2.47-3.24-3.39-3.73-6.21-4.44-.33-10.45.92-13.05-1.24-1.88-8-8.63-15.79-4.35-26.1-7.37-9.26 1-20.77 6.21-26.72m-22.37-43.5h1.86c.7 9.66 9.71 11 13.67 17.4C51 130.81 55.82 121.5 67 123.69c.12 18.36-26.58 27.42-30.45 44.12-2.94 12.7 4.93 34-9.32 36.67 2.43-12.51-2.54-28.31 1.24-39.77 1.62-4.9 7.08-6.8 11.81-10.57 7.09-5.65 13.5-14.05 15.54-22.37-6.84-2-9.28 5.58-13.67 8.08-8.39-4-13.52-11.34-14.29-23m86.38 12.43a30.9 30.9 0 0 1 11.81 9.32c-1.32 3.29-.73 3.29 1.24 5.59 1.54-.53-.18-4.33 1.24-5a41.94 41.94 0 0 1 21.13 11.19c2 .77.47-2 2.49-1.24 2.06 10.12-4.68 16.31-14.29 16.78.92-5.41 6.38-7 5.59-11.81-.86-5.19-8.35-4.6-11.81-8.7-1.35-.11-.28 2.2-.62 3.11-8.38 2.49-12.46-3.34-16.16-7.46 1.88-5.17.21-6.72-.62-11.81m-38.53-23.58c-2.43 19-19.51-6.1-26.72-6.21-2.41 0-3.41 2.93-6.84 3.73-2.15.5-4.86-.51-6.21 0-4.38 1.64-3.7 6.17-6.84 8.08-2-23.82 31.37-12.75 40.4-4.35 2-.35 4.17-2.83 6.21-1.24m118.7 5.59c-2.6-2.17-2.67-6.86-6.21-8.08-7.57 2.66-7.56-3.77-13.05-3.73-5.94 0-24.85 25.15-26.72 5.59 2.44 0 3.88 1.1 5.59 1.86 9.15-7.55 42.8-20.28 40.4 4.35"/><path fill="#fff" d="M137.86 166s-7.68 5.76-4.35 13.05c0 0 .53-8.24 11.56-10.81a92 92 0 0 1 12.06-1s2.94-.61 3.11-8.08c0 0 1.09-1.35-2.67-4.12a2.67 2.67 0 0 1 .48-3.3s2.68-.66.3-3.23c0 0-1.27-5.64-11.33-7.92 0 0-12-4-10.19-.46a8.4 8.4 0 0 0 1.62 2.44 118 118 0 0 1 10.65 7.36s1.45 2.31 1.87-.32c0 0 1.15-1.32 1.34.44 0 0 1.19 8-5.25 13.15 0 0-7.9 3.11-9.19 2.78m18.64 5.59a6.21 6.21 0 0 0-6.56 3.49s-2.31 3.82-6.18 4.13c0 0-7.59-1.49-10.14 10.87 0 0 3.42-5.93 8.89-6.19l-.31-1.12s11.57-1.28 14.29-11.19m-88.25 0s2.69-1.94 7.67 5.58a9.46 9.46 0 0 0 6.22 2.46s5.24-.91 7.33 7.39c0 0-5.53-.55-7.55-3.63 0 0-7.56-2.81-11.24-6.72 0 0-2.91-2-2.43-5.09m19.46-30.16s1.9-4.25-2.76-3c0 0-18.34 3-18.52 9.9a13.5 13.5 0 0 0-.12 4.75 2.9 2.9 0 0 1-1.39 3.44s-1.64.56-1 5a9.55 9.55 0 0 0 2.46 5.74 1.11 1.11 0 0 1 1.24.62c.34.81.11-.26.11-.26l.6.57s8.56-2.94 15.49 2.1a102 102 0 0 1 6.81 8.16s4.61-7.47-4.74-11.42c0 0-7.47-1.88-8.51-3.39 0 0-5.71-2.82-6.15-10.83l.75-3.56s.61-.27 1.12.56c0 0 0 .39.74.68 0 0 7.86-6.6 13.87-9m-33.54 39.61a5 5 0 0 0-.84-3.23s.72-6-3.22-4.67c0 0-2.6 8.72-2 15.41 0 0-2.52 19.84 13.95 19a54 54 0 0 0 3.73 6.21c1.17 1.34 6.57-4.51 6.57-4.51a8.68 8.68 0 0 1-7.22-2.79l-2.6-.85s-8.64-7.89-8.35-24.59M152 209.49a30.6 30.6 0 0 0 5.75 4.32s1.84-.72 4.35-6.21c0 0 11.9 2.34 13.58-14.94 0 0 1.24-12.35-1.86-19.91a2.46 2.46 0 0 0-2.11 2.52s0 3.82-.91 5.1a20.8 20.8 0 0 0-.62 4.33s-.48 17.27-13 23.53c0 0-1.34.79-1.63-.63l-1.13 1.4zm-8.55-39.81a4 4 0 0 1 3.11.62c2.27 8.06-11.9 8.26-7.46 1.86q2-.17 1.86 1.86c1.79-.48 1.55-3 2.49-4.35m-65.25 0h2.49c.68 1.39 1 3.11 1.86 4.35 1.2-.25.49-2.41 2.49-1.86 4.65 7.32-11.37 5-6.84-2.49"/></svg>