<svg height="362.398" viewBox="0 0 141.14 185.208" width="275.94" xmlns="http://www.w3.org/2000/svg"><g transform="matrix(.26458 0 0 .26458 -35.263 -13.23)"><path d="m400.17 750c-8.082 0-16.269-.379-24.332-1.124-36.968-3.418-71.987-14.176-104.087-31.974-30.85-17.106-57.7-39.949-79.805-67.894-22.593-28.564-38.993-60.866-48.742-96.006-10.081-36.335-12.498-73.858-7.183-111.528 5.553-39.356 20.287-77.901 42.608-111.468 21.16-31.821 49.075-59.078 80.99-79.14l-.139-28.32c-18.146-7.933-31.3-16.656-41.063-27.174-9.208-9.92-18.357-26.544-16.423-43.456 1.266-11.062 7.04-20.362 16.7-26.897 7.827-5.295 16.787-7.98 26.632-7.98 5.372 0 10.998.786 17.02 2.384 8.229-16.377 24.348-28.97 44.18-33.947 7.685-1.93 15.489-2.907 23.194-2.907 6.264 0 12.622.646 18.896 1.921 4.848.985 9.384 2.518 13.735 4.29q.039-1.25.085-2.477c.076-2.07.148-4.025.13-5.862-.013-1.226-.134-2.763-.251-4.25a181 181 0 0 1 -.164-2.181l-.933-13.99 14.99 3.403-3.195-13.423h51.779l-3.173 13.328 13.656-3.175v29.555c.759-.365 1.55-.722 2.373-1.059 9.82-4.01 21.065-6.13 32.521-6.13 11.112 0 22.171 2.012 31.981 5.818 10.936 4.242 20.025 10.475 27.014 18.526 3.492 4.021 6.153 8.264 8.347 12.515 5.64-1.538 11.337-2.334 16.838-2.334 14.613 0 26.814 5.45 35.284 15.76 7.155 8.708 9.958 19.5 8.106 31.21-1.456 9.209-5.88 18.784-12.458 26.963-9.815 12.204-24.778 22.89-42.666 30.574l-.028 31.003q1.051.658 2.156 1.337c2.19 1.35 4.456 2.747 6.72 4.338 26.003 18.281 48.367 40.73 66.47 66.723 17.632 25.315 30.744 53.28 38.972 83.115 8.238 29.872 11.314 60.66 9.142 91.51-2.234 31.74-9.978 62.661-23.016 91.902-42.939 96.296-138.267 158.52-242.85 158.52z" fill="#fff"/><path d="m411.563 60.45-4.017 16.878 17.28-4.017v24.516l-17.281-3.616 2.885 16.604.912.682c7.138-2.635 14.143-5.608 21.114-8.652 3.112-1.358 5.976-3.228 9.143-4.521 25.346-10.351 61.157-5.94 79.675 15.39 4.847 5.582 7.887 11.883 10.687 18.665 16.355-7.088 37.367-7.829 49.598 7.058 11.362 13.83 5.737 32.362-4.42 44.99-11.357 14.122-28.976 24.22-45.806 30.362l.048.762.79.609-.038 41.43c.147.767 1.355 1.504 2.048 1.97 3.683 2.482 7.625 4.654 11.271 7.217 101.831 71.592 139.168 205.774 88.035 320.446-44.351 99.464-147.176 161.373-256.687 151.248-147.532-13.64-251.075-149.234-230.431-295.537 10.885-77.149 57.104-146.486 123.729-186.233l-.202-41.12c-15.714-6.313-32.169-14.765-43.82-27.318-14.05-15.137-21.869-40.827-1.526-54.59 13.65-9.233 29.396-6.808 43.929-1.28 5.247-18.864 22.07-32.134 40.59-36.782 12.438-3.121 24.891-3.435 37.466-.88 14.162 2.877 26.48 11.746 40.268 15.941.644-.18.709-1.403.858-1.98 1.214-4.691 1.569-10.1 2.596-14.884l-16.677 4.025c-.88.249-.748-1.983-.779-2.618-.232-4.849.262-10.004.213-14.879-.022-2.25-.286-4.768-.436-7.022l17.682 4.013-4.018-16.877zm-24.517 120.17c-13.885-8.868-13.362-29.932-.065-39.252l-.132-5.364c-7.184-3.118-14.58-5.673-21.779-8.766-9.777-4.201-17.621-9.179-28.514-10.471-17.516-2.08-40.684 4.001-46.081 22.946-4.372 15.346 11.055 28.847 22.091 36.813 3.445 2.487 13.439 9.403 17.192 9.737 3.435.306 8.075 0 11.655 0 2.25 0 4.506-.008 6.755-.035 5.503-9.243 18.48-8.84 23.872.355l15.006.468zm115.905-51.997c-11.143-12.046-31.061-14.43-46.457-10.583-7.695 1.922-15.916 6.859-23.358 10-6.579 2.777-13.361 5.06-19.969 7.764l-.406 5.146c14.747 9.15 14.71 31.088.206 40.471l-.2 5.632 14.998-.48c6.15-9.168 17.915-9.598 24.265-.402 3.166.543 6.525-.303 9.557-.35 3.228-.05 6.73.988 10.063.206 2.275-.533 10.025-5.528 12.382-7.09 16.834-11.157 37.37-30.371 18.92-50.315zm-259.876 22.369c-13.366 1.706-5.778 14.304-.52 20.389 10.404 12.043 27.828 20.248 42.894 24.43l8.353-3.743c.166-.721-5.132-4.764-6.033-5.615-6.75-6.37-12.436-13.156-16.758-21.424-.775-1.481-1.682-4.904-2.55-5.89-.791-.9-6.818-3.94-8.275-4.586-4.944-2.195-11.692-4.253-17.111-3.561zm312.23 23.056c4.491-4.49 14.132-17.35 5.496-21.892-8.482-4.462-21.885 2.55-29.368 6.862-3.39 9.782-9.897 18.37-17.223 25.58-2.368 2.33-5.489 4.43-7.77 6.698-.334.332-.574.358-.427.975l8.732 3.548c11.833-3.292 23.972-8.882 33.834-16.238 1.856-1.384 5.16-3.967 6.726-5.533zm-161.828 47.16c-2.846-2.157-5.602-3.485-8.03-6.234-.704-.797-1.184-2.47-2.23-2.626-24.313 1.763-48.317 6.275-71.497 13.641-.11 4.577-1.13 8.408-3.85 12.1 27.417-10.046 56.245-16.457 85.607-16.88m94.811 4.063c-18.069-5.268-36.452-9.663-55.228-11.69-4.436-.478-10.085-1.118-14.46-1.239-.597-.016-1.274-.088-1.811.234-2.204 3.909-5.816 6.32-9.645 8.438 11.047.707 22.104 1.41 33.044 3.123 17.591 2.754 34.88 7.867 51.551 13.961l-2.811-6.432z" fill="#9e7844"/><path d="m399.997 728.845c-42.958 0-85.165-11.212-122.058-32.424-39.243-22.563-71.57-56.063-93.488-96.878-10.545-19.638-18.436-40.412-23.452-61.744a247.2 247.2 0 0 1 -6.48-62.91c1.044-40.563 12.184-80.861 32.215-116.538 20.056-35.721 48.62-66.105 82.603-87.868a241 241 0 0 1 56.655-26.636c20.646-6.589 42.257-10.39 64.231-11.3a252 252 0 0 1 10.387-.216c45.223 0 89.231 12.54 127.267 36.264 35.715 22.276 65.535 53.903 86.235 91.461 20.695 37.547 31.574 79.783 31.463 122.143a245.7 245.7 0 0 1 -9.107 65.635c-6.216 22.186-15.592 43.605-27.868 63.662-11.65 19.032-25.606 36.284-41.483 51.275a241.3 241.3 0 0 1 -50.936 36.843c-35.397 19.122-75.572 29.23-116.184 29.23z" fill="#187b56"/><path d="m392.608 295.12c148.643-6.086 245.483 158.2 166.435 285.953-75.366 121.802-255.05 116.897-323.375-8.963-66.503-122.505 19.324-271.354 156.94-276.99" fill="#fff"/><path d="m399.997 659.087c-31.067 0-61.525-7.982-88.082-23.085a171.9 171.9 0 0 1 -37.409-28.713c-11.586-11.749-21.564-25.262-29.654-40.165-15.157-27.92-22.434-57.773-21.629-88.728.751-28.88 8.801-57.628 23.28-83.136 14.509-25.56 35.122-47.271 59.612-62.784a173.4 173.4 0 0 1 40.566-18.867c14.853-4.688 30.449-7.396 46.354-8.047 2.52-.103 5.069-.156 7.575-.156 16.626 0 32.975 2.28 48.592 6.776a171.5 171.5 0 0 1 42.589 18.859c25.747 15.885 47.285 38.511 62.285 65.432 14.978 26.88 22.853 57.029 22.773 87.185a171.8 171.8 0 0 1 -6.506 46.377c-4.476 15.805-11.269 31.127-20.186 45.54-16.713 27.01-39.042 48.108-66.367 62.71-25.466 13.61-54.442 20.802-83.793 20.802" fill="#187b56"/><path d="m399.997 651.853c-29.816 0-59.037-7.656-84.505-22.14a164.7 164.7 0 0 1 -35.835-27.504c-11.11-11.265-20.68-24.23-28.447-38.536-14.544-26.791-21.527-55.419-20.755-85.089.72-27.696 8.445-55.274 22.34-79.753 13.924-24.532 33.7-45.364 57.191-60.244a166.1 166.1 0 0 1 38.873-18.079c14.243-4.496 29.206-7.093 44.472-7.718 2.42-.099 4.869-.15 7.279-.15 15.95 0 31.625 2.185 46.59 6.494a164.2 164.2 0 0 1 40.792 18.064c24.698 15.237 45.365 36.952 59.765 62.796 14.376 25.801 21.934 54.725 21.857 83.645a164.6 164.6 0 0 1 -6.231 44.424c-4.294 15.158-10.813 29.863-19.378 43.706-16.033 25.91-37.44 46.143-63.625 60.136-24.42 13.05-52.217 19.948-80.383 19.948zm-20.977-388.908.206.796c6.216.11 8.144 8.323 3.816 12.265-1.443 1.314-2.893 1.682-4.748 2.084-6.025 1.304-12.844 1.53-18.971 2.527.519-.977.457-1.936.398-3.003-.307-5.568-1.738-14.91-2.845-20.47-.19-.956-.383-1.737-.767-2.645 6.214.253 15.73-3.436 21.632-1.741 4.14 1.189 5.328 8.326 1.279 10.187m-14.876-4.43c-.055 1.098.137 4.85 1.06 5.6 2.935-.677 11.42.314 9.3-5.31-1.014-2.687-7.58-.328-10.36-.29m2.042 16.044c1.051-.022 10.72-.416 11.953-2.664 1.264-2.304-.271-4.72-3.358-4.555-.853.046-8.853.994-9.04 1.411-.607 1.351.018 4.82.445 5.808m167.57 38.213s6.186-7.533 8.005-10.64c.187-.32.435-1.415.435-1.415l6.425 4.62c-1.516.736-3.178 3.266-4.586 5.06-3.138 3.995-7.055 8.922-9.805 13.104-.639.97-.92 1.484-1.481 2.936l-5.388-4.29c.387-3.037.188-4.117.16-6.902-.049-4.776.035-9.382-.606-14.127-3.032 3.325-7.694 9.18-9.648 13.264l-6.424-4.428c1.158-.877 1.462-1.307 1.766-1.644 3.706-4.095 10.297-12.63 13.289-17.255.407-.629.65-1.233.623-1.994l6.372 4.695c-.65 1.696-.189 3.037-.085 4.548.335 4.878.402 9.606.948 14.468zm-42.712-40.495c6.41-1.077 16.592 3.413 19.192 9.554 2.887 6.823-2.874 18.374-10.489 19.241-5.799.66-16.285-4.452-18.327-10.12-2.267-6.29 2.704-17.514 9.624-18.676zm-.153 7.282c-2.338 2.335-4.706 8.194-2.897 11.251 2.414 4.08 9.518 6.529 13.2 2.47 2.925-3.224 5.018-9.6 1.178-12.829-3.122-2.624-8.303-4.068-11.481-.892zm-15.416-16.209-.808 6.42c-5.28-3.5-11.549-5.002-17.654-6.414-.458 1.128-.941 2.89-1.434 5.202 1.457 1.177 11.1 2.822 13.369 3.26-.284.482-.675 1.292-1.08 2.216-.406.927-.768 1.962-.837 2.972l-12.61-3.595-1.673 5.22c6.079 1.824 13.045 4.329 19.109 4.003l-2.414 6.026-25.315-6.835 7.235-25.317zm-133.435-5.233c.005 4.904 2.97 9.793 4.133 14.553 2.07 8.47-1.957 13.085-9.99 15.156-15.998 4.124-14.95-11.4-19.866-21.67l7.234-2.015c.737 4.463 2.297 9.674 4.011 13.877 1.8 4.414 3.252 6.39 8.36 4.724 3.714-1.21 4.529-2.851 4.11-6.747-.259-2.401-3.321-11.213-4.4-13.683-.393-.9-1.222-1.247-1.226-2.186zm-71.193 33.793 4.074 4.382c-8.387 1.947-19.253 7.916-11.243 17.476 6.383 7.617 15.816-.85 18.08-7.826l3.95 4.144c-6.114 10.105-19.534 19.447-28.403 6.438-8.002-11.74 3.36-20.621 13.542-24.613zm150.77-40.224-2.781 20.639-.095.639c7.305.483 13.928 1.563 18.146.423l-1.934 6.408-24.186-2.795c.721-1.172.946-2.53 1.156-3.864.859-5.466 1.578-12.108 2.055-17.639.131-1.516.197-3.065.006-4.616zm-132.228 28.13.184 1.93 9.063 16.387.803.012c4.851-3.213 11.29-4.52 14.67-9.484l1.787 6.396-21.681 11.284c.124-.981-1.084-3.53-1.459-4.413-2.729-6.424-6.594-12.62-8.982-16.657-.25-.423-1.112-1.442-1.618-1.444-.427-.577 6.943-4.315 7.232-4.011zm72.836 422.215c1.337.941 4.1 2.789 4.965 3.07 4.741 1.543 10.034.67 10.422-4.883-8.04 3.728-18.689-.911-14.741-11.124 3.19-8.254 20.479-6.105 21.828 3.273 2.122 14.75-7.54 22.614-21.46 16.593-1.574-.68-2.606-1.358-2.606-1.358s1.3-3.114 1.592-5.57m15.08-11.761c-1.334-1.444-6.904-1.938-8.036.397-2.98 6.148 6.395 8.233 8.225 4.612.68-1.346.889-3.84-.19-5.01zm38.687-4.524c-.652 5.242-.254 10.235-.027 16.659 0 0 4.188.018 5.193-.285.482-.145 1.262-.698 1.262-.698l-.6 5.91-5.38.056.356 4.08h-6.632c-.107 0-.13.07-.66.013l.059-3.632-15.958.321 12.734-22.247c.53-.151 2.39-.177 2.62-.177zm-6.498 17.166c-.199-4.065-.248-5.815-.355-8.712-.018-.486-.014-1.479-.114-1.89 0 0-2.496 5.784-5.614 10.658 1.895.185 6.083-.056 6.083-.056m40.651-22.853c.22 5.278 1.435 10.138 2.717 16.436 0 0 4.134-.67 5.075-1.135.451-.223 1.13-.897 1.13-.897l.382 5.928-5.299.942 1.024 3.966-6.541 1.092c-.105.017-.117.09-.65.122l-.54-3.593-15.686 2.945 8.896-24.04c.498-.237 2.329-.569 2.554-.607l6.938-1.158zm-3.582 18.002c-.866-3.976-1.203-5.695-1.785-8.534-.098-.476-.258-1.456-.424-1.846 0 0-1.51 6.116-3.781 11.438 1.9-.13 5.99-1.058 5.99-1.058zm-92.96-17.462-5.939 25.643-7.633-2.012c.41-.681.88-1.086 1.103-1.907 1.27-4.67 3.43-12.288 4.12-16.387.055-.329.015-.665.003-.994l-4.02-.002 1.221-5.214c3.58.803 7.476.998 11.144.873z" fill="#fff"/><g fill="#9e7844"><circle cx="183.844" cy="482.573" r="8.527"/><circle cx="616.086" cy="482.573" r="8.527"/><path d="m508.03 400.39h6.028c.471 4.98 4.393 8.503 8.85 10.24l5.824 1.418c-6.006 4.646-13.429 8.486-20.975 4.893l-6.56-4.895v11.253c-4.083-.158-9.706-2.013-11.547-5.936-1.945-4.145.094-8.144.638-12.408 1.272-9.971-1.03-15.608-12.194-14.606-11.039.99-14.06 9.424-11.458 19.286l6.827-2.812c-.155 3.518-.392 6.718.007 10.242 1.086 9.616 6.51 21.589 13.052 28.747.462.506 2.951 3.223 3.419 2.807l4.018-11.25c1.062 4.237 1.892 9.195 3.429 13.251 1.43 3.772 3.705 7.314 5.124 11.355 6.578 18.723 11.58 59.188-19.953 53.312-15.504-2.89-12.994-16.707-21.95-24.672-3.042-2.705-7.415-4.014-10.828-1.162.269 1.427 1.527 2.115 2.205 3.354 6.323 11.559 3.441 25.072 8.431 36.583 1.042 2.403 3.569 6.284 6.198 7.065 6.744 2.001 15.153-3.326 18.908-8.659v6.632c0 .091-.304.219-.314.403l.291.41c9.313.795 14.402 10.412 15.697 18.68h-6.028v17.079c0 .441-.599.945-.029 1.614 2.357 1.912 11.684 6.952 11.684 10.042v6.23l-4.611-2.787-7.026 2.178c1.386 2.186.373 6.549-1.217 8.452-2.045 2.448-5.841 3.075-8.447 4.415v5.827c-5.394-1.538-10.18-4.578-11.26-10.448-.705-.532-1.515 1.639-2.014 2.2-2.407 2.705-5.066 4.344-8.834 4.228v3.617c-4.534-1.314-3.968-7.112-3.612-10.852l-6.154-.075-1.678-1.927-5.831 4.013c-.125-1.676.076-5.952 1.307-7.128.41-.39 1.349-.342 1.702-.911.983-1.586.15-3.866 2.599-6.243 2.675-2.596 4.725-2.182 7.659-3.192 1.587-.547 3.217-1.852 4.73-2.505 3.192-1.377 9.736-2.807 9.733-7.146 0-.758-.412-1.54-.423-2.399-.033-2.75.062-5.51.02-8.255-8.313-.202-18.796 1.08-25.12-5.23-1.361.844.143 6.074-.204 6.434-3.427-.093-5.132-3.403-6.633-6.031-1.012-.005-3.962 6.16-6.226 6.033v-7.436c0-1.205-10.593-18.078-12.126-20.83-7.836-14.064-7.333-20.886-25.165-25.877-15.21-4.258-32.241-2.907-43.35-16.551l-10.187 7.594c.13-2.838.219-7.733-3.62-7.638.313 5.543-.734 12.226-5.431 15.672l-3.49-8.355-12.381-.077c2.674 6.892 2.487 16.9-5.627 19.69v-9.244l-3.826.394c-1.217 5.238-9.553 4.193-13.575 2.88l-5.709 6.364c-4.374-5.7 3.109-10.617.95-16.417-3.726.034-6.895-1.26-9.717-3.609l-8.312 3.955c-.747-6.697 4.272-10.324 9.623-12.893l-3.596-6.798h-8.842c2.062-3.086 6.175-2.976 8.936-4.126 4.682-1.951 5.566-2.878 11.356-2.301 4.075.406 7.105 3.598 9.256 4.007 2.946.56 7.608-.318 10.752-.083l35.458-19.463 9.847 6.69-7.222-13.083c-4.979 1.94-9.963 3.747-15.449 3.003-1.299-.177-4.142-1.49-4.227-2.953-.1-1.718 3.148-8.417 2.379-9.471-4.488 3.363-9.85 6.464-15.67 6.029v-13.063l-6.637-9.04-2.402 3.217c-2.208 2.773-5.606 3.8-9.073 3.036l-.378-9.873c-10.133 2.171-12.652-5.757-13.705-14.024l-4.78-.047 4.83-4.61c2.757-.87 6.322.905 8.425-1.22 2.558-2.587.009-5.898.21-9.057-3.962-1.088-7.875-3.054-9.849-6.812h13.062l.603-.603v-15.875c2.525.388 4.706 2.06 6.203 4.046.8 1.06 1.774 3.705 2.452 4.38 1.06 1.058 3.008 1.492 4.379 3.258 3.371 4.344 1.892 8.046 2.734 12.538 2.473 13.184 14.676 20.201 21.306 30.54 1.47 2.293 1.756 5.463 2.833 8.019 3.53 8.376 13.659 15.39 22.967 13.959 3.41-.525 7.961-4.508 10.967-5.11 1.076-.216 2.145.065 3.12-.095 2.349-.383 4.672-.949 7.038-1.197l-3.615 8.434 12.454-2.409-1.603 14.466c1.053.956 11.986-6.95 12.456-6.426 2.376 11.019 15.316 16.944 25.578 18.432 2.233.323 6.773.082 8.304.538 1.35.402 6.268 5.975 7.403 6.292 1.589.442 2.23-1.388 3.355-2.128 4.707-3.097 10.717-4.134 16.045-2.03 8.973 3.542 7.505 11.675 11.492 18.651 5.104 8.93 18.59 19.36 21.763 2.937 1.99-10.307-3.78-18.578-10.742-25.412h12.057c-9.335-18.563-22.145-36.491-39.788-47.832.827-1.685 7.615-3.198 7.636-4.6.01-.568-3.868-8.71-4.437-10.452-3.496-10.705-5.015-24.741 7.54-29.868 8.365-3.416 19.424-4.038 27.715-.162.859.402 6.28 4.356 6.559 4.088-3.53-12.092-15.677-15.536-26.928-12.057 6.401-7.657 15.455-10.062 24.834-6.142 12.71 5.313 12.413 22.24 9.328 33.476z"/><path d="m434.881 372.252-8.237.807-.2.798c2.852 1.78 5.366 4.967 7.155 7.922 2.217 3.662 3.992 8.027 4.902 12.18-2.587.356-5.257.42-7.837.814-.39.06-.886-.146-.6.587.424 1.09 3.091 3.95 3.938 5.307 2.073 3.328 4.25 7.903 5.181 11.699.553 2.249.547 5.77 1.235 7.608.924 2.47 4.736 5.937 5.713 8.356.283.702-.197.54-.59.596-1.684.237-3.48-.181-5.029-.804l4.416 15.27c-.525.471-5.246-1.534-5.828-2.407.08 6.65 4.97 12.322 9.447 16.875-5.463-.36-10.304-2.345-14.474-5.82-2.11-1.758-3.75-4.08-5.63-6.025-.304-.316-.807-1.06-1.204-.404.73 7.148 4.576 13.404 8.52 19.212l6.353 8.313c-8.767-.764-17.911-1.014-26.107-4.635-9.43-4.165-14.554-12.77-11.67-23.094-.696-.181-.804.286-1.207.598-3.414 2.639-6.033 7.267-9.64 9.849l.395-12.057-10.044 2.408 4.419-10.043c-2.74.849-5.148 2.327-7.948 3.102-8.045 2.226-16.13 1.567-22.593-4.11 4.691-.754 9.489-1.357 13.814-3.464.466-.228 3.331-1.818 3.463-1.968.62-.704-.135-.671-.585-.804-4.08-1.208-5.458-2.59-6.646-6.82 5.748.687 11.473.291 15.485-4.436l-.172-4.37c5.137-.876 9.621-3.536 13.828-6.468l.602 4.818c5.879-2.496 6.798-9.776 5.984-15.43-.223-1.554-.812-4.42-1.963-5.467-.19 4.03-.654 8.117-3.422 11.251-.945-1.779-.416-3.817-.703-5.727-.053-.353-.175-1.21-.698-1.101.2 2.748-1.566 6.442-3.652 8.206-8.093 6.84-23.803 1.747-27.9 13.895-1.125-2.338-4.882-6.863-5.338-9.13-.717-3.56-.058-6.703.719-10.157l3.347 4.38c3.338-3.383 8.087-2.115 11.894-4.208 1.954-1.075 5.705-4.475 3.352-6.626-3.34-3.052-17.277-1.232-21.637.397-.634.935.147 4.874-1.377 5.652-.304-2.36-2.873-4.602-3.433-6.82-.44-1.746.046-3.646-.594-5.431l4.822-6.237-5.773 1.576c-1.241-.354-.225-3.84-1.066-4.957 6.153-4.57 13.367-6.372 20.906-7.274 1.333-1.374 1.587-6.213 3.106-6.94 1.463-.701 8.352-1.494 10.366-1.693 16.891-1.668 38.234-.917 50.435 12.451zm-28.939-8.433c-3.374.687-7.317.827-10.61 1.644-.473.118-.965.15-1.043.761 6.746.555 12.256 6.456 15.596 11.939 1.336 2.193 3.739 6.814 4.493 9.173.084.262.08.681-.192.593l-7.836-4.419c1.114 2.471 2.84 4.69 3.807 7.242 1.128 2.976 1.681 5.78 1.364 8.986l-1.76 6.277c3.888-4.308 6.206-10.546 3.418-16.07l4.82 2.004c.41-10.632-6.347-19.452-14.456-25.52zm-29.136 7.634c3.928-.215 7.925.158 11.856 0l-.608-4.025-12.656 3.627c-.216 1.608.977.421 1.408.398m-32.354 165.587c.588-6.09 3.031-11.872 8.438-15.073-3.332-.753-5.683-2.302-6.428-5.824 7.347-1.226 14.653-4.27 21.453-7.285 1.593-.706 4.619-2.804 6.18-3.096 1.837-.343 10.562 1.283 12.896 1.801 6.418 1.424 16.839 4.786 21.584 9.363 4.084 3.938 6.726 10.845 8.451 16.11-10.466 4.852-23.544 7.781-34.389 2.396-1.364 9.414 4.152 16.897 12.448 20.699-3.265 3.345-8.1 3.818-12.45 2.61.167 9.807-11.271 12.98-17.686 18.088v-5.627l-13.087 7.625c1.755 5.204 7.306 10.958 3.238 16.488l-2.272-4.755-6.916-.012c-1.064 1.516-1.465 2.993-2.856 4.378-3.23 3.216-8.57 3.844-12.864 2.81l-.455.818.244 4.397c-3.244-1.314-4.372-5.423-3.984-8.607.14-1.147 1.004-2.185.75-3.427-1.11.237-2.009-1-2.686-1.152-.783-.176-5.171 1.718-6.78 1.892-1.442.155-3.745-.335-4.63-.149-1.285.27-5.926 4.28-7.152 2.563.064-4.135 1.905-7.237 4.79-10-1.136-.127-4.355-3.223-5.024-3.223h-9.444c.255-3.328 2.462-4.973 5.297-6.157.71-.296 1.67-.139 2.332-.481.686-.355 2.645-3.333 4.415-4.427 6.388-3.947 15.445-1.443 22.624-2.294l23.83-15.958.565-1.37-2.394-13.121z"/></g><g fill="#187b56"><rect height="22.909" rx="11.454" width="22.909" x="283.509" y="216.4"/><rect height="25.722" rx="12.861" width="25.722" x="387.641" y="190.076"/><rect height="32.153" rx="16.076" width="32.153" x="384.362" y="145.453"/><rect height="18.488" rx="9.244" width="18.488" x="317.384" y="198.122"/><rect height="18.488" rx="9.244" width="18.488" x="350.886" y="184.175"/><rect height="22.909" rx="11.454" transform="matrix(-1 0 0 -1 1010.606 455.71)" width="22.909" x="493.848" y="216.4"/><rect height="18.488" rx="9.244" transform="matrix(-1 0 0 -1 880.272 386.838)" width="18.488" x="430.892" y="184.175"/><rect height="18.488" rx="9.244" width="18.488" x="464.395" y="198.122"/></g></g></svg>