<svg height="160" width="123.5" xmlns="http://www.w3.org/2000/svg"><g transform="matrix(.6045 0 0 .6045 -13.695 -7.59)"><path d="m125 274.46c-54.52 0-98.88-44.35-98.88-98.87 0-27.21 11.44-53.52 31.38-72.19l1.12-1.05-.73-1.35c-4.96-9.26-5.31-15.97-5.3-17.8l.01-1.22c.13-6.8 2.75-12.04 4.93-15.23 2.18-3.16 4.27-5 5.07-5.64 4.07-3.36 9.34-5.13 15.25-5.13 7.9.04 14.64 2.89 16.52 3.76 4.52 2.02 8.03 2.51 10.19 2.56l1.48.04.47-1.41c1.05-3.17 2.94-6.04 5.47-8.31l6.4-5.74-13.49 3.79.78-5.17.56-3.01c.99-5.18 4.43-9.75 9.95-13.21.89-.56 1.83-1.08 2.78-1.56l1.1-.55v-11.35l5.88.76c2.48.32 4.77 1.08 6.81 2.25 1.04.59 2.03 1.3 2.95 2.11.7.62 1.16 1.23 1.7 2.07l.07.11.06.12c1.22 2.26 1.17 4.6 1.13 6.47-.01.33-.03.64-.06.96-.04.49-.07.97-.07 1.47l.01 1.39 1.72.62c.61.22 1.14.4 1.55.68 2.47 1.68 4.38 3.87 5.51 6.35.46 1.04.77 2.07.96 3.11.18.93.29 1.78.32 2.63v.39c0 .48-.04.93-.09 1.33l-.12.87c-.05.33-.12.7-.2 1.1-.18.81-.39 1.51-.65 2.16-.5 1.24-1.18 2.42-2.03 3.54-.69.91-1.4 1.59-2.29 2.23l-3.5 2.49 4.16 1.08c.56.15 1.16.22 1.82.22 1.2 0 2.35-.23 3.36-.44 2.46-.5 4.6-1.2 6.43-2.1.09-.04.28-.13.28-.13l.14-.07c.12-.05.97-.42.97-.42 1.26-.51 2.47-.94 3.67-1.31 4-1.24 7.86-1.87 11.48-1.87 5.89 0 11.11 1.72 15.13 4.99.15.11.23.18.31.25l.32.27c.36.31.79.71 1.25 1.17 1.24 1.24 2.37 2.62 3.37 4.1 2.05 2.99 4.56 7.9 4.89 14.31l.02.4.04.08v1.66c-.01 1.9-.41 8.64-5.3 17.79l-.73 1.35 1.12 1.05c19.95 18.66 31.39 44.98 31.39 72.19.04 54.5-44.32 98.86-98.84 98.86" fill="#fff"/><path d="m122.07 18.09 1.42.18 2.2.28c2.22.29 4.26.96 6.08 2 .92.53 1.8 1.16 2.62 1.88.47.42.81.84 1.34 1.66l.03.04.02.04c.97 1.8.93 3.76.89 5.48-.01.29-.03.57-.05.85-.04.48-.08 1.02-.08 1.63l.01 2.79 2.62.95.42.15c.46.16.9.32 1.09.45 2.17 1.48 3.84 3.39 4.83 5.54.37.85.64 1.73.81 2.62l.01.03.01.03c.16.79.25 1.54.28 2.25v.32c0 .41-.04.78-.08 1.12v.04l-.04.29-.06.47c-.04.3-.1.63-.18.97-.15.69-.33 1.29-.56 1.85-.43 1.06-1.02 2.09-1.76 3.07-.56.74-1.14 1.3-1.86 1.81l-7 4.98 8.32 2.15c.72.19 1.5.28 2.32.28 1.4 0 2.71-.26 3.76-.48l.06-.01c2.56-.52 4.86-1.27 6.85-2.25.06-.03.11-.05.14-.06l.11-.05.09-.04.02-.01.45-.19c.15-.06.32-.14.51-.22l.02-.01.02-.01c1.12-.45 2.27-.86 3.43-1.22 3.8-1.18 7.46-1.77 10.93-1.77 5.38 0 10.17 1.57 13.83 4.54l.07.05.07.05c.04.03.07.05.1.08l.06.05.06.05c.07.06.14.12.25.21.21.18.58.51 1.12 1.05 1.15 1.15 2.2 2.44 3.14 3.82 1.9 2.77 4.23 7.32 4.54 13.27l.04.8.01.03v1.24c-.01 1.73-.39 8.06-5.07 16.8l-1.45 2.71 2.24 2.1c9.6 8.98 17.16 19.6 22.47 31.55 5.5 12.37 8.28 25.56 8.28 39.18 0 53.41-43.46 96.87-96.88 96.87s-96.88-43.46-96.88-96.87c0-13.62 2.79-26.8 8.28-39.18 5.31-11.95 12.87-22.57 22.46-31.55l2.24-2.1-1.45-2.71c-4.74-8.85-5.08-15.13-5.07-16.87v-.46l.01-.7c.12-6.33 2.56-11.19 4.58-14.15 2.03-2.95 3.95-4.63 4.68-5.22l.02-.02.02-.02c3.69-3.04 8.51-4.65 13.99-4.65 7.45.04 13.86 2.74 15.65 3.57l.02.01.02.01c4.8 2.15 8.59 2.67 10.93 2.72l2.96.07.93-2.81c.94-2.84 2.64-5.42 4.91-7.45l12.81-11.49-16.56 4.66-.36.1-1.87.53.31-2.04.56-2.99c.88-4.63 4.01-8.74 9.04-11.89.84-.53 1.72-1.02 2.62-1.47l2.2-1.11v-10.25m-3.97-4.55v12.39c-.92.46-1.91 1.01-2.94 1.65-6.01 3.76-9.76 8.78-10.86 14.54l-.57 3.08-1.23 8.23 7.83-2.2.36-.1a21.4 21.4 0 0 0 -6.04 9.17c-1.77-.04-5.06-.44-9.4-2.38-2.02-.94-9.07-3.9-17.31-3.94h-.05c-6.39 0-12.09 1.92-16.5 5.57-.9.72-3.15 2.7-5.47 6.07-2.36 3.45-5.14 9.04-5.28 16.34l-.01.74v.49c-.01 2.11.41 9.17 5.54 18.76-19.69 18.42-32.01 44.62-32.01 73.65 0 55.62 45.25 100.87 100.88 100.87 55.62 0 100.88-45.25 100.88-100.87 0-29.03-12.33-55.23-32.02-73.65 5.04-9.41 5.53-16.41 5.54-18.68v-2.18l-.06-.13c-.35-6.84-3.01-12.07-5.24-15.33a30.4 30.4 0 0 0 -3.6-4.38c-.51-.51-.97-.95-1.38-1.29-.1-.08-.19-.16-.28-.24-.12-.11-.25-.21-.37-.31-4.39-3.55-10.03-5.43-16.35-5.43h-.04c-3.82 0-7.88.66-12.07 1.95-1.26.38-2.53.83-3.75 1.33l-.08.03-.07.03c-.18.08-.35.15-.49.21-.2.08-.37.16-.5.22l-.1.05-.06.03c-.08.03-.19.08-.32.15-1.83.9-3.89 1.52-5.89 1.92-.94.19-2.01.41-3.03.41-.45 0-.9-.04-1.32-.15 1.06-.76 1.92-1.6 2.72-2.65.96-1.27 1.73-2.6 2.29-3.99.31-.75.56-1.57.76-2.49.1-.44.17-.86.23-1.25.03-.18.05-.35.07-.52l.04-.29.01-.05.01-.05c.05-.44.1-.97.1-1.58v-.3l-.01-.16c-.04-.95-.16-1.9-.35-2.9-.22-1.19-.58-2.37-1.08-3.51l-.02-.04-.02-.04c-1.28-2.8-3.43-5.28-6.21-7.17-.74-.5-1.56-.74-2.39-1.05 0-.8.11-1.56.13-2.37.04-2 .1-4.74-1.37-7.47l-.1-.18-.11-.17c-.62-.96-1.19-1.72-2.06-2.49-1.01-.89-2.11-1.68-3.28-2.35-2.32-1.33-4.9-2.15-7.55-2.49l-2.2-.29z" fill="#fff"/><path d="m145.36 47.04c-.03-.73-.13-1.44-.27-2.14-.15-.82-.4-1.62-.73-2.38-.94-2.06-2.53-3.75-4.38-5.01-2.44-1.65-4.76-2.23-4.88-2.26a8.8 8.8 0 0 0 .29-2.27v-2.34c0-1.99.25-4.06-.73-5.87l-.59-.91c-.06-.08-.11-.16-.19-.24-1.41-1.71-3.99-3.25-8.36-3.82l-2.2-.28v9.83a31.4 31.4 0 0 0 -5.42 2.7c-3.48 2.18-7.45 5.69-8.47 11.06l-.57 3.06 8.36-2.35c-.77 2.74-.95 5.08-.95 6.65 0 1.25.11 2 .13 2.09l.39 2.52 2.33-1.05c.48-.23 1.73-.56 2.72-.73.51-.1.98-.17 1.31-.22.18-.03.31-.04.4-.06.05 0 .08-.01.1-.02l.36-.03 1.25.15c1.84.2 3.53.6 4.77.96.61.18 1.08.34 1.42.46.31.1.37.15.52.19.02.01.03.01.05.02l.34.14.91.71.07.05c.11.09.38.31.73.63.49.45 1.12 1.06 1.64 1.7l1.02 1.27 1.51-.83s.04-.07.07-.07c.05-.03.11-.06.19-.1.27-.17.55-.34.81-.53 1.38-.93 2.63-2.07 3.65-3.39.64-.84 1.18-1.76 1.58-2.75.22-.52.37-1.07.5-1.64.06-.29.12-.59.16-.88.04-.26.07-.51.1-.77.04-.32.07-.63.07-.97-.01-.12-.01-.2-.01-.28" fill="#002856"/><path d="m118.31 52.25c1.63-.74 5.13-1.19 5.13-1.19 1.68-6.81 5.04-10.71 5.04-10.71l-9.04 2.81c-1.72 5.14-1.13 9.09-1.13 9.09m7.15-1.07c3.98.42 7.21 1.72 7.21 1.72 3.71-6.12 10.67-6.27 10.67-6.27-.25-7.36-8.7-9.49-8.7-9.49-7.44 5.69-9.18 14.04-9.18 14.04m8.97 2.85s1.56 1.18 2.78 2.72c0 0 5.78-3.2 6.08-8.25.01-.01-5.38-.01-8.86 5.53" fill="#b0b3b2"/><path d="m133.47 32.94v-5.58s.1-4.54-8.18-5.62v8.98s-12.26 3.66-13.93 12.74l18.56-5.24c-.01.01 3.55-.85 3.55-5.28" fill="#fff"/><path d="m138.72 66.82c0 7.58-6.14 13.72-13.72 13.72s-13.72-6.14-13.72-13.72 6.15-13.73 13.72-13.73c7.58 0 13.72 6.15 13.72 13.73" fill="#002856"/><path d="m108.79 66.95c0-8.89 7.25-16.08 16.21-16.09 8.95.01 16.21 7.2 16.21 16.09 0 8.88-7.27 16.08-16.21 16.08-8.96 0-16.21-7.2-16.21-16.08m4.57 0c.01 6.36 5.21 11.52 11.64 11.54 6.43-.01 11.62-5.17 11.63-11.54-.02-6.38-5.2-11.53-11.63-11.54-6.43.02-11.63 5.17-11.64 11.54" fill="#002856"/><path d="m70.55 150.2-.02.04v50.64h.19l-.18.08a60.1 60.1 0 0 0 11.86 16.99l.33.33v-85.41l-.33.34a60.1 60.1 0 0 0 -11.85 16.99m24.17 77.26.09.06c3.72 2.17 7.68 3.95 11.86 5.29l.25.08v-104.25h-12.2zm24.17 7.89.18.02c1.96.19 3.92.3 5.93.3 2 0 3.98-.11 5.93-.3l.17-.02v-106.71h-12.21zm24.19-2.46.25-.08c4.17-1.34 8.13-3.12 11.86-5.29l.1-.06v-98.82h-12.21zm36.38-82.69c-2.96-6.35-7-12.08-11.87-16.98l-.33-.33v85.39l.33-.32c4.86-4.9 8.9-10.65 11.87-16.99l.01-50.72z" fill="#ce0e2d"/><g fill="#002856"><path d="m146.67 95.84-.34.14-21.33 8.31-21.68-8.45h-19.37l3.08 3.28s.03.02.12.14c.7.81 3.78 4.83 3.76 10.23v52.31c0 2.86.7 5.58 1.82 8.11 2.66 5.91 7.71 10.84 13.01 14.8 4.34 3.23 8.84 5.81 12.41 7.63 3.29 1.69 5.3 2.54 6.14 2.87l.7.27.71-.27c.82-.33 2.83-1.18 6.12-2.87 3.57-1.83 8.07-4.4 12.41-7.63 5.3-3.96 10.35-8.88 13.02-14.8 1.12-2.52 1.81-5.24 1.81-8.11v-52.31c0-3.1.98-5.72 1.98-7.56.49-.92 1-1.65 1.36-2.13.18-.24.32-.42.42-.53s.14-.14.14-.14l3.07-3.28h-19.36z"/><path d="m124.88 195.78-.71-.28c-.85-.33-2.86-1.19-6.16-2.88-3.57-1.84-8.1-4.42-12.45-7.66-5.32-3.99-10.41-8.94-13.11-14.93-1.14-2.55-1.84-5.32-1.84-8.24v-52.38c.01-5.24-3.01-9.18-3.69-9.96-.1-.11-.11-.12-.12-.13l-3.58-3.81h20.17l21.61 8.42 21.22-8.27.35-.13.05-.02h20.18l-3.6 3.82-.11.12c-.09.11-.24.29-.41.52-.36.48-.85 1.19-1.34 2.09-.96 1.8-1.93 4.34-1.95 7.35l.01.02v52.36c0 2.92-.71 5.68-1.84 8.24-2.71 5.99-7.81 10.94-13.12 14.93-4.36 3.24-8.87 5.82-12.45 7.66-3.3 1.69-5.32 2.55-6.16 2.88l-.82.33zm-37.62-96.89c.01.01.04.04.13.15.73.85 3.84 4.88 3.85 10.38v52.37c0 2.82.68 5.48 1.79 7.97 2.63 5.84 7.64 10.74 12.91 14.68 4.31 3.22 8.81 5.78 12.37 7.61 3.29 1.68 5.29 2.54 6.09 2.85l.59.22.59-.22c.82-.31 2.82-1.17 6.1-2.85 3.57-1.83 8.04-4.39 12.36-7.61 5.28-3.94 10.28-8.83 12.91-14.68 1.11-2.49 1.8-5.15 1.8-7.97v-52.32c0-3.15.99-5.82 2.01-7.71.51-.93 1.02-1.67 1.39-2.16.18-.25.34-.44.44-.56.09-.11.14-.15.14-.15l2.56-2.72h-18.56l-.28.11-21.46 8.36-21.73-8.46h-18.55zm59.41-2.72v-.32z"/><path d="m125 112.9c-34.62 0-62.68 28.06-62.68 62.68 0 34.61 28.07 62.68 62.68 62.68s62.68-28.07 62.68-62.68c.01-34.61-28.07-62.68-62.68-62.68m0 121.44c-32.45 0-58.75-26.31-58.75-58.75s26.3-58.75 58.75-58.75c32.44 0 58.75 26.31 58.75 58.75s-26.31 58.75-58.75 58.75m0-154.38c-52.81 0-95.62 42.81-95.62 95.63 0 52.8 42.82 95.61 95.62 95.61 52.81 0 95.62-42.81 95.62-95.61 0-52.82-42.81-95.63-95.62-95.63m0 187.04c-50.49 0-91.42-40.93-91.42-91.42s40.93-91.42 91.42-91.42 91.42 40.93 91.42 91.42c0 50.5-40.93 91.42-91.42 91.42m0-180.72c-49.32 0-89.3 39.99-89.3 89.3s39.98 89.29 89.3 89.29c49.31 0 89.3-39.97 89.3-89.29s-39.99-89.3-89.3-89.3m0 154.21c-35.85 0-64.9-29.05-64.9-64.9s29.05-64.91 64.9-64.91c35.84 0 64.9 29.06 64.9 64.91s-29.06 64.9-64.9 64.9"/><path d="m147.05 158.25c0 15.94-22.05 21.54-22.05 21.54s-22.05-5.6-22.05-21.54v-50.81h44.11c-.01 0-.01 48.39-.01 50.81"/></g><path d="m145.23 140.29s-2.32.89-1.24 3.31c0 0-1.24 1.97-.7 5.33 0 0 .65 4.15-1.06 6.37 0 0-1.64.2-3.76-4.99.54.44 1.16 0 1.16 0-.12-.88.91-.79.91-.79-.29-.9.59-.94.59-.94-.65-1.24.15-1.24.15-1.24l-.35-.79c-.34-.83.35-1.03.35-1.03s.29-2.23-1.18-2.91c-1.5-.7-1.63-2.13-1.63-2.13l-6.92 2.68.58 1.57s2.33-2.12 2.74.15c0 0 .14 1.97-2.22.89l-.15.94s2.07.89 1.19 2.22c0 0-2.71 1.18-6.18-5.68h-.59v2.92s1.28.25 2.48 1.48l2.3 2.81 1.55.2s-1.58 1.33-2.72.39l-3.07-3.36h-.48v2.33s1.97-.16 4.34 3.6h2.06s-.13 2.42 2.97 3.96l-3.55 2.31s-1.1.94-2.07.09l-3.17-2.46h-.64v1.19l5.22 3.51s1.35.29 2.94-1.48c0 0 1.32-1.04 3.45-1.04 0 0-.35 1.33 1.37 2.42 0 0-.29 1.14-.43 2.37 0 0 0 1.09-2.23 1.18 0 0-1.3-.19-1.73 1.04h3.7l4.04-4.15s.31-1.08-.64-1.91c0 0 1.49-1.48.8-3.95 0 0 2.11-2.86.59-8.06 0 0-.9-2.81.9-4.83-.01-.01 1.21-1.44.33-3.52m-28.91 8.64c-.88-1.33 1.18-2.22 1.18-2.22l-.14-.94c-2.37 1.07-2.23-.89-2.23-.89.4-2.26 2.73-.15 2.73-.15l.59-1.57-6.92-2.68s-.14 1.43-1.64 2.13c-1.47.68-1.16 2.91-1.16 2.91s.68.2.34 1.03l-.34.79s.79 0 .14 1.24c0 0 .87.04.59.94 0 0 1.04-.1.91.79 0 0 .63.44 1.17 0-2.13 5.19-3.76 4.99-3.76 4.99-1.72-2.21-1.08-6.37-1.08-6.37.54-3.36-.7-5.33-.7-5.33 1.08-2.41-1.24-3.31-1.24-3.31-.88 2.08.35 3.5.35 3.5 1.79 2.02.89 4.83.89 4.83-1.51 5.2.58 8.06.58 8.06-.68 2.47.81 3.95.81 3.95-.95.84-.65 1.91-.65 1.91l4.04 4.15h3.7c-.42-1.23-1.73-1.04-1.73-1.04-2.21-.09-2.21-1.18-2.21-1.18-.15-1.23-.43-2.37-.43-2.37 1.72-1.09 1.37-2.42 1.37-2.42 2.13 0 3.45 1.04 3.45 1.04 1.58 1.77 2.93 1.48 2.93 1.48l5.22-3.51v-1.19h-.65l-3.16 2.46c-.98.84-2.07-.09-2.07-.09l-3.54-2.31c3.1-1.53 2.96-3.96 2.96-3.96h2.07c2.37-3.76 4.34-3.6 4.34-3.6v-2.33h-.49l-3.06 3.36c-1.14.94-2.72-.39-2.72-.39l1.54-.2 2.31-2.81c1.19-1.24 2.47-1.48 2.47-1.48v-2.92h-.6c-3.44 6.88-6.16 5.7-6.16 5.7" fill="#ffc629"/><path d="m125 114.04c-8.73 0-15.81 5.09-15.81 11.38 0 6.27 7.08 11.39 15.81 11.39 8.74 0 15.8-5.11 15.8-11.39 0-6.29-7.06-11.38-15.8-11.38" fill="#3dae2b"/><path d="m99.14 95.69 4.26-2.28c1.47-.78 2.99-1.06 4.34-1.12l.23-1.19c.99-4.43 4.42-6.84 5.55-7.58-.11-.39-.17-.77-.17-1.13.22-2.86 2.15-3.75 2.24-3.95l1.27-.88 1.29.85c2.41 1.62 5.19 2.12 6.36 2.24.24.03.39.04.47.04.05 0 .2 0 .51-.04.38-.04.95-.12 1.63-.27 1.35-.3 3.12-.89 4.72-1.97l1.29-.85 1.27.88c.09.19 2.03 1.09 2.24 3.95 0 .35-.04.73-.15 1.13 1.13.74 4.55 3.15 5.55 7.58l-2.22.44 2.22-.44.24 1.19c1.34.06 2.86.34 4.34 1.12l4.26 2.28-25.88 10.45zm25.86 5.58.51-.21q-.3.03-.33.03l-.19.01-.18-.01c-.02 0-.13-.02-.31-.03zm12.02-10.83c-.68-1.18-1.75-2.2-2.47-2.76-2.62.83-5.86 2.94-7.3 4.01-.54.4-.83.64-.83.64l-1.42 1.13-1.41-1.13s-.3-.24-.85-.64c-.54-.4-1.32-.95-2.23-1.52-1.51-.95-3.42-1.97-5.06-2.5-.28.22-.63.51-.97.85-.56.53-1.1 1.19-1.5 1.92.83.41 1.89.9 3.1 1.39 2.76 1.14 6.31 2.22 8.92 2.2 3.76.05 9.32-2.26 12.02-3.59m-12.02-7.49.05-2.26z" fill="#002856"/><path d="m125 56.68.1.1s6.33 5.43 13.22 5.73c0 0-2.75-8.99-13.32-8.99s-13.33 8.99-13.33 8.99c6.9-.3 13.23-5.73 13.23-5.73zm0 16.51c7.69-3.67 13.43-2.37 13.43-2.37.98-1.88.59-5.44.59-5.44-8.6-.59-14.02-5.52-14.02-5.52s-5.43 4.93-14.03 5.52c0 0-.39 3.56.6 5.44 0 0 5.73-1.3 13.43 2.37m12.37-.37s-8.06-.32-12.37 3.77c-4.31-4.09-12.39-3.77-12.39-3.77s2.63 6.09 12.39 7.87c9.75-1.78 12.37-7.87 12.37-7.87m-12.37 10.13s-4.25-.09-8.1-2.65c0 0-1.68 1.18-1.18 2.65 0 0 5.83 1.99 9.28 4.54 3.45-2.55 9.28-4.54 9.28-4.54.5-1.48-1.18-2.65-1.18-2.65-3.85 2.56-8.1 2.65-8.1 2.65m14.81 8.59c-.78-3.94-4.84-6.32-4.84-6.32-4.54.98-9.96 5.34-9.96 5.34s-5.43-4.35-9.97-5.34c0 0-4.06 2.38-4.84 6.32 0 0 8.49 4.75 14.81 4.75 6.31 0 14.8-4.75 14.8-4.75m-1.67 3.47c-6.71 3.31-13.14 3.83-13.14 3.83s-6.43-.53-13.14-3.83c0 0-4.23-1.3-7.39.39l20.53 8.3 20.53-8.3c-3.16-1.69-7.39-.39-7.39-.39" fill="#b0b3b2"/><path d="m126.42 159.89v-22.43h-2.83v22.43c0 3.25-3.27 9.27-3.27 9.27 1.64 1.15 3.25 1.57 4.68 1.62 1.43-.05 3.04-.47 4.68-1.62 0 .01-3.26-6.02-3.26-9.27" fill="#c1531b"/><path d="m147.04 97.79-22.04 8.58-22.03-8.58h-14.52s4.41 4.68 4.41 11.7v52.31c0 2.56.6 4.99 1.65 7.31 2.44 5.44 7.25 10.2 12.41 14.04 4.22 3.15 8.64 5.67 12.13 7.47 3.25 1.66 5.22 2.49 5.95 2.78.74-.29 2.71-1.12 5.95-2.78 3.5-1.8 7.92-4.32 12.14-7.47 5.15-3.84 9.98-8.6 12.39-14.04 1.04-2.32 1.66-4.75 1.66-7.31v-52.31c0-7.02 4.41-11.7 4.41-11.7zm.01 60.46c0 15.94-22.05 21.54-22.05 21.54s-22.05-5.6-22.05-21.54v-50.81h44.11c-.01 0-.01 48.39-.01 50.81" fill="#ffc629"/><path d="m155.51 131.5h-2.2l-1.17 1.88-1.17-1.88h-2.27l2.32 3.2-2.42 3.3h2.23l1.23-1.96 1.23 1.96h2.29l-2.4-3.33zm-27.16 50.67h-2.21l-1.14 1.88-1.14-1.88h-2.21l2.32 3.16-2.41 3.33h2.3l1.14-1.88 1.14 1.88h2.3l-2.41-3.33zm22.48-75.63 1.23-1.97 1.23 1.97h2.29l-2.4-3.32 2.33-3.17h-2.2l-1.17 1.88-1.17-1.88h-2.27l2.32 3.2-2.42 3.29zm3.19 56.42h-2.19l-1.16 1.88-1.18-1.88h-2.26l2.3 3.18-2.39 3.31h2.21l1.25-1.96 1.21 1.96h2.31l-2.41-3.33zm-57.31-56.42 1.22-1.97 1.24 1.97h2.24l-2.42-3.29 2.32-3.2h-2.27l-1.17 1.88-1.17-1.88h-2.21l2.32 3.17-2.4 3.32zm6.05 56.42h-2.24l-1.19 1.88-1.17-1.88h-2.18l2.32 3.16-2.42 3.33h2.31l1.21-1.96 1.26 1.96h2.2l-2.39-3.31zm-4.83-26.93 1.24 1.96h2.24l-2.42-3.3 2.32-3.2h-2.27l-1.17 1.88-1.17-1.88h-2.21l2.32 3.17-2.4 3.33h2.29z" fill="#ce0e2d"/><path d="m194.14 82.86v-.6l-.02-.05c-.06-5.88-2.21-10.5-4.35-13.62-1.08-1.59-2.16-2.8-3-3.65-.41-.42-.77-.75-1.03-.97-.13-.11-.23-.2-.31-.26-.09-.08-.08-.08-.15-.12-4.03-3.33-8.84-4.37-13.19-4.36-4.04 0-7.76.86-10.52 1.72-1.39.42-2.52.85-3.33 1.18-.4.18-.73.31-.95.41-.2.1-.27.12-.38.18-5.45 2.44-9.65 2.84-11.91 2.84-.22 0-.44-.01-.63-.01l-2.84-.08.55 2.78a8.17 8.17 0 0 0 2.56 4.47c-2.29 2.8-2.59 6.22-2.61 8.43l.01.72.02 3.6 3.23-1.58 1.08-.54c-.03.3-.03.58-.03.85-.01 1.97.51 3.44 1.09 4.38l1.32 2.15 1.99-1.55c.42-.32 1.17-.91 1.96-1.54 1.33 4.22 4.53 6.63 7.33 7.71 2.47.99 4.74 1.21 5.78 1.26.27.49.4 1.05.4 1.75.02 1.31-.54 2.99-1.12 4.22l-1.85 3.97 4.3-.8c1.83-.33 3.57-1.13 4.79-2.59 1.83-2.18 2.04-4.72 2.05-6.35 0-.47-.02-.88-.04-1.2 5.31-3.86 6.09-8.78 6.03-10.71v-.07l-.03-.63v-.57c.03-3.17-1.36-5.67-3.05-7.27-1.69-1.62-3.64-2.49-5.12-3.01l-3.88-1.35.95 4c.11.52.18.98.18 1.33 0 .67-.14 1.22-.38 1.72-.36.77-.95 1.31-1.52 1.67-.29.18-.55.3-.74.38-.09.04-.17.06-.2.07h-.02c-.43.1-.84.13-1.22.13-1.33-.01-2.16-.47-2.9-1.17-.71-.69-1.2-1.68-1.36-2.29l-.03-.08-.02-.08c-.28-.73-.37-1.36-.37-1.95 0-1.5.69-2.81 1.78-3.98 1.07-1.13 2.51-2 3.54-2.43 1.56-.53 2.99-.72 4.31-.72 2.43 0 4.47.69 5.95 1.42.73.36 1.33.73 1.71 1 .39.27.58.45.59.44 4.51 4.1 5.77 8.57 5.79 12.75 0 3.14-.78 6.09-1.59 8.23-.39 1.08-.8 1.95-1.11 2.55-.14.3-.27.53-.35.69-.04.08-.08.14-.09.17l-.02.02-12.18 19.45-.03.06c-8.23 14.6-10.75 24.66-10.75 31.67-.03 6.92 2.56 10.78 4.24 12.38l2.08 2.03 1.45-2.5c1.58-2.74 1.84-5.84 1.86-8.21 0-1.03-.05-1.92-.12-2.56 0-.03-.01-.06-.01-.09 1.84-.58 2.88-2.23 3.24-3.39.34-.97.44-1.86.5-2.48 1.33-.59 2.25-1.75 2.67-2.82.53-1.27.62-2.49.64-3.5-.01-.65-.05-1.2-.1-1.6-.02-.21-.05-.38-.07-.5v-.03l-.04-.22a19 19 0 0 1 -.36-3.73c0-2.95.65-5.5 1.34-7.34.35-.92.69-1.65.95-2.15.14-.26.25-.45.32-.58.04-.07.06-.12.08-.14v-.01l.03-.05 10.1-16.34c6.7-10.51 7.14-18.25 7.13-20.07.01-.09 0-.17 0-.22zm-86.24-14.61.56-2.79-2.85.09c-.19.01-.4.01-.63.01-2.26 0-6.47-.4-11.95-2.86-.95-.44-7.47-3.43-15.14-3.47-4.36-.01-9.19 1.04-13.22 4.39-.52.41-2.43 2.02-4.46 4.97-2.17 3.17-4.35 7.89-4.35 13.88v.2l-.01.02v.49c-.01 1.84.45 9.57 7.14 20.07l10.05 16.26 1.93-1.19-1.92 1.2c.03.04 2.75 4.42 2.73 10.3 0 1.18-.11 2.44-.37 3.72l-.04.22v.07c-.05.34-.15 1.12-.15 2.07 0 1 .1 2.24.62 3.51.41 1.07 1.35 2.22 2.7 2.82.04.63.16 1.51.48 2.48.35 1.16 1.39 2.81 3.23 3.39-.06.65-.12 1.54-.13 2.65.02 2.36.27 5.45 1.83 8.19l1.46 2.51 2.08-2.02c1.69-1.62 4.29-5.47 4.27-12.4 0-7.01-2.51-17.07-10.75-31.67l-.02-.05-12.24-19.52c-.4-.68-3.14-5.82-3.1-11.58.02-4.19 1.27-8.65 5.79-12.75l-.04-.12.07.1c.37-.33 3.69-2.88 8.21-2.84 1.31 0 2.75.19 4.31.72 1.03.42 2.47 1.3 3.55 2.43 1.1 1.17 1.79 2.48 1.79 3.98 0 .57-.11 1.22-.37 1.98l-.03.05v.05c-.18.63-.68 1.62-1.39 2.31-.74.7-1.58 1.17-2.91 1.18-.37 0-.79-.04-1.27-.15-.37-.12-1.87-.83-2.42-2.1-.24-.49-.37-1.06-.37-1.73 0-.39.05-.84.16-1.35l.89-3.98-3.84 1.35c-1.46.52-3.4 1.39-5.1 3.01a9.84 9.84 0 0 0 -3.06 7.25v.6l-.02.61v.08c-.05 1.93.73 6.86 6.05 10.71q-.06.48-.06 1.2c.01 1.64.23 4.17 2.05 6.36 1.22 1.45 2.97 2.26 4.8 2.59l4.33.78-1.88-3.97c-.59-1.22-1.15-2.89-1.14-4.2 0-.69.13-1.27.4-1.75 1.03-.05 3.3-.25 5.79-1.26 2.79-1.08 6.01-3.49 7.33-7.71.79.62 1.53 1.21 1.94 1.52l1.98 1.57 1.33-2.15c.59-.94 1.11-2.42 1.1-4.38 0-.27-.01-.55-.03-.85.43.21.81.4 1.08.53l3.16 1.57.11-4.24c-.02-2.27-.34-5.68-2.62-8.47.92-.78 2.09-2.2 2.58-4.49" fill="#002856"/><path d="m149.37 79.33-.48 2.39c-.22.95-.3 1.77-.3 2.48 0 1.6.4 2.6.76 3.2 1.13-.87 4.82-3.79 4.82-3.79l.34 1.97c1.57 8.78 11.43 8.8 11.86 8.8l.57-.02.35.46c.86 1.03 1.18 2.3 1.18 3.55 0 1.88-.7 3.78-1.34 5.17 1.47-.28 2.66-.87 3.48-1.83 1.26-1.49 1.51-3.52 1.51-4.9 0-.88-.1-1.48-.1-1.5l-.14-.75.63-.43c5.09-3.46 5.6-7.69 5.6-9.22l-.02-.59v-.72c0-5.03-4.1-7.23-6.65-8.13.14.65.23 1.26.23 1.85 0 .98-.21 1.89-.59 2.7-1.2 2.53-3.83 3.3-3.94 3.33-5.12 1.15-7.62-2.68-8.25-4.91-.35-.96-.51-1.87-.51-2.72 0-4.47 4.18-7.46 6.78-8.52l.06-.03h.03c8.41-2.86 14.53 2.36 14.79 2.59 5.03 4.53 6.54 9.77 6.54 14.43 0 7.02-3.45 12.76-3.49 12.85l-12.18 19.43c-8.1 14.38-10.45 24.11-10.45 30.56 0 6.38 2.29 9.52 3.57 10.78 1.25-2.12 1.55-4.91 1.55-7.07 0-1.88-.22-3.28-.22-3.31l-.21-1.28 1.28-.1c2.66-.19 2.76-3.89 2.76-4.48l-.03-1.01.9-.25c2.02-.53 2.42-2.76 2.42-4.42 0-1.05-.16-1.89-.16-1.9a21.5 21.5 0 0 1 -.42-4.18c0-6.57 2.95-11.28 3.1-11.5l10.06-16.29c7.22-11.33 6.8-19.06 6.8-19.15l-.03-.03v-.06c.15-11.08-7.88-17.36-7.97-17.42-9.98-8.31-25.85-.69-26.02-.61-6.37 2.86-11.24 3.12-13.58 3.05.52 2.57 2.44 3.68 2.53 3.74l1.4.79-1.18 1.11c-2.32 2.18-2.76 5.48-2.76 7.7v.71c1.36-.63 5.12-2.52 5.12-2.52m-74.4 38.99c.14.23 3.08 4.94 3.08 11.5 0 1.32-.12 2.72-.41 4.18 0 .01-.15.85-.15 1.9 0 1.66.39 3.88 2.42 4.42l.9.25-.02 1.01c0 .59.11 4.29 2.75 4.48l1.29.1-.2 1.28c-.01.03-.23 1.43-.23 3.31 0 2.15.29 4.95 1.52 7.07 1.29-1.25 3.59-4.4 3.59-10.78 0-6.45-2.34-16.17-10.45-30.56l-12.17-19.43c-.06-.09-3.5-5.83-3.5-12.85 0-4.66 1.51-9.9 6.54-14.43.26-.23 6.38-5.45 14.78-2.59h.04l.03.03c2.64 1.06 6.82 4.05 6.82 8.52 0 .86-.17 1.76-.5 2.72-.64 2.23-3.13 6.06-8.26 4.91-.12-.03-2.74-.8-3.94-3.33-.39-.81-.59-1.71-.59-2.7 0-.59.07-1.2.21-1.85-2.54.9-6.64 3.1-6.64 8.13l.01.48.02.12-.03.11-.02.59c0 1.53.5 5.76 5.59 9.22l.63.43-.12.75c0 .01-.12.62-.12 1.5 0 1.38.25 3.41 1.52 4.9.81.97 2 1.55 3.5 1.83-.66-1.39-1.36-3.29-1.36-5.17 0-1.26.33-2.52 1.18-3.55l.36-.46.58.02c.4 0 10.27-.02 11.84-8.8l.34-1.97s3.7 2.92 4.81 3.79c.38-.6.77-1.59.77-3.2 0-.71-.08-1.53-.28-2.48l-.51-2.39s3.79 1.89 5.1 2.53l.02-.71c0-2.21-.44-5.52-2.77-7.7l-1.18-1.11 1.4-.79c.1-.06 2.01-1.17 2.53-3.74-2.34.08-7.21-.19-13.58-3.05-.16-.09-16.04-7.7-26.02.61-.08.06-8.13 6.34-7.97 17.42v.06l-.01.03c0 .09-.43 7.82 6.78 19.15z" fill="#ffc629"/><path d="m131.16 25.49c-.45-.39-1.05-.72-1.62-1.02-.94-.5-1.77-.81-2.84-1.04v6.18c.98-.33 2.86-1.09 4.47-2.36.27-.21.59-.54.6-.85.01-.26-.2-.57-.61-.91m.98 7.67v-4.11c-.9.68-2.59 1.62-5.72 2.68-.14.04-10.06 2.75-13.06 9.86l15.32-4.34c.18-.05 3.46-.81 3.46-4.09" fill="#ce0e2d"/><path d="m58.52 146.01c.98-2.12.11-4.53-1.97-5.49-2.1-.97-4.5-.08-5.48 2.04-.5 1.07-.53 2.44-.1 3.66l-2 .61c-.64-1.7-.62-3.7.13-5.32 1.53-3.3 5.2-4.7 8.44-3.2 3.21 1.49 4.46 5.21 2.91 8.56-.74 1.6-2.19 2.92-3.8 3.5l-.99-1.98c1.25-.4 2.34-1.27 2.86-2.38m-1.24 9.12-9.83-2.85-1.49 5.13-2.05-.6 2.14-7.4 11.89 3.44zm-12.79 10.62c-.23 1.86.79 3.18 2.75 3.42l7.16.88-.29 2.35-7.16-.88c-3.23-.4-4.98-2.7-4.57-6.03.41-3.35 2.67-5.21 5.9-4.81l7.16.88-.29 2.35-7.16-.88c-1.94-.24-3.27.86-3.5 2.72m7.04 19.01c-1.36.07-2.44-.68-2.85-2.01-.21 1.66-1.34 2.71-2.98 2.8-2.12.11-3.5-1.56-3.65-4.39l-.3-5.65 12.36-.67.3 5.49c.12 2.64-.98 4.33-2.88 4.43m-5.67-1.67c1.01-.05 1.58-.99 1.48-2.49l-.16-3-3.27.18.16 3c.06 1.5.73 2.36 1.79 2.31m5.11-.72c.94-.05 1.44-.82 1.36-2.04l-.16-3-3 .16.16 3c.07 1.22.67 1.93 1.64 1.88m2.68 22.89c-3.43 1.1-6.72-.7-7.89-4.33l-1.55-4.81 11.78-3.79 1.57 4.9c1.15 3.56-.46 6.92-3.91 8.03m-.76-2.3c2.31-.74 3.39-2.93 2.68-5.13l-.84-2.61-7.81 2.51.87 2.69c.7 2.18 2.81 3.28 5.1 2.54m11.72 9.96-1.83.97-3.13-5.92-2.7 1.43 2.81 5.31-1.83.97-2.81-5.31-2.75 1.45 3.23 6.11-1.83.97-4.34-8.21 10.94-5.78zm3.91 12.48c-2.25 1.71-4.64 1.28-6.52-1.2l-1.63-2.15-2.9 2.2-1.43-1.89 9.86-7.48 3.07 4.04c1.86 2.48 1.72 4.83-.45 6.48m-1.42-1.75c1.21-.92 1.19-2.17.13-3.58l-1.56-2.06-3.65 2.77 1.56 2.06c1.07 1.41 2.28 1.75 3.52.81m10.7 13.2c-2.41 2.62-6.37 2.7-9.11.17-2.75-2.52-3-6.48-.6-9.1 2.42-2.63 6.34-2.67 9.09-.14 2.75 2.52 3.02 6.45.62 9.07m-7.93-7.29c-1.58 1.72-1.4 4.38.27 5.92a4.15 4.15 0 0 0 5.87-.27c1.58-1.72 1.42-4.31-.25-5.85-1.68-1.55-4.31-1.52-5.89.2m13.59 18.25.13-4.24c-.13-.06-.25-.13-.38-.22l-2.37-1.48-1.93 3.09-2.01-1.26 6.56-10.5 4.38 2.74c2.71 1.7 3.44 3.97 2 6.27-1.03 1.65-2.51 2.37-4.21 2.1l.14 4.92zm-1.53-7.71 2.37 1.48c1.5.94 2.74.82 3.57-.5.81-1.29.36-2.44-1.14-3.38l-2.37-1.48zm20.32 2.84-.82 1.94-3.55-1.49-3.98 9.47-2.2-.93 3.98-9.47-3.55-1.49.82-1.94zm3.88 1.01-3.5 11.87-2.27-.67 3.5-11.87zm3.85 1.03 2.03 10.2 5.19-9.02 2.41.39-6.87 11.42-2.43-.39-2.85-13zm23.15 7.55c.07 3.55-2.74 6.35-6.47 6.42s-6.65-2.61-6.72-6.16c-.07-3.57 2.74-6.31 6.47-6.39 3.74-.07 6.65 2.58 6.72 6.13m-10.76.21c.05 2.33 2.01 4.13 4.29 4.09 2.26-.04 4.1-1.92 4.05-4.25a4.13 4.13 0 0 0 -4.22-4.06c-2.29.05-4.17 1.89-4.12 4.22m27.45-4.04 1.99-.58 1.3 4.46c-.95 1.27-2.6 2.44-4.25 2.92-3.55 1.04-7.05-.8-8.04-4.21-1-3.41 1.03-6.82 4.66-7.88 1.71-.5 3.66-.35 5.15.34l-.8 2.04c-1.14-.57-2.55-.71-3.75-.36-2.29.67-3.58 2.94-2.93 5.18.66 2.26 2.99 3.47 5.28 2.81.81-.24 1.66-.8 2.34-1.5zm11.81-.56c1.67-.85 2.2-2.42 1.31-4.19l-3.26-6.44 2.11-1.07 3.26 6.44c1.47 2.9.53 5.63-2.46 7.15-3.01 1.52-5.81.68-7.28-2.22l-3.26-6.44 2.11-1.07 3.26 6.44c.88 1.75 2.53 2.24 4.21 1.4m14.23-9.9-4.83 3.64.7 2.75-1.96 1.48-3.12-13.15 1.96-1.48 11.73 6.65-2.03 1.53zm-1.9-1.11-4.85-2.85 1.38 5.47zm12.09-14.1c2.66 2.44 2.73 6.19.15 9l-3.42 3.73-9.13-8.36 3.47-3.79c2.54-2.77 6.25-3.03 8.93-.58m-1.63 1.79c-1.79-1.64-4.22-1.49-5.78.22l-1.85 2.02 6.05 5.54 1.91-2.09c1.54-1.68 1.45-4.06-.33-5.69m10.38-8.77-3.22 5.12 1.63 2.32-1.31 2.08-7.58-11.19 1.31-2.08 13.32 2.07-1.36 2.15zm-2.17-.37-5.55-.95 3.23 4.63zm-2.87-11.32 9.41 4.03 2.1-4.91 1.97.84-3.03 7.09-11.38-4.87zm14.11-11.94-1.47 5.87 2.27 1.7-.6 2.38-10.69-8.27.6-2.38 13.3-2.19-.62 2.47zm-2.17.33-5.57.83 4.51 3.39zm6.16-8.63c-.14 1.55-.93 2.77-2.2 3.63l-1.66-1.27c.97-.75 1.54-1.69 1.61-2.5.09-1.02-.48-1.7-1.65-1.8l-6.3-.58-.39 4.24-2.1-.19.6-6.62 8.45.77c2.55.25 3.86 1.89 3.64 4.32m-2.6-15.89.33 6.04 2.67.95.14 2.45-12.66-4.74-.14-2.45 12.06-6.03.14 2.54zm-1.98.95-5.07 2.44 5.31 1.9zm1.97-15.57-3.07 2.93c.05.13.08.27.12.43l.65 2.72 3.54-.84.55 2.3-12.04 2.85-1.19-5.02c-.74-3.11.33-5.24 2.98-5.87 1.89-.45 3.45.07 4.47 1.46l3.36-3.6zm-4.33 6.55-.65-2.72c-.41-1.72-1.38-2.51-2.89-2.15-1.48.35-1.97 1.49-1.56 3.21l.65 2.72zm-3.31-19.49 2.43 5.54 2.84-.05.99 2.25h-13.51l-.99-2.25 9.18-9.88 1.02 2.33zm-1.52 1.6-3.89 4.06 5.64-.08z" fill="#fff"/></g></svg>