<svg viewBox="0 0 306 306" xmlns="http://www.w3.org/2000/svg"><circle cx="153" cy="153" fill="#fff" r="149.14"/><path d="M297.25 153A144.25 144.25 0 1 1 153 8.75 144.28 144.28 0 0 1 297.25 153M153 43a110 110 0 1 0 110 110A110 110 0 0 0 153 43" fill="#001f60"/><path d="M222.46 222H83.54V83.08h138.85V222zM153 95.16a57.38 57.38 0 1 0 57.38 57.38A57.4 57.4 0 0 0 153 95.16" fill="#de1d3e"/><g fill="#001f60"><path d="M198.3 137.44h-30.2v-30.2h-30.2v30.2h-30.2v30.2h30.2v30.2h30.2v-30.2h30.2zm10.7 93.05V223h2.61l1 4.48 1-4.48h2.6v7.53h-1.71l.14-5.94-1.3 5.94h-1.45l-1.3-5.94.14 5.94zm10.13 0h-1.88V223H220c1.45 0 2.32.57 2.32 2 0 .87-.15 1.45-1 1.74.58.15.87.44.87 1a13.7 13.7 0 0 0 .15 2.47c0 .14.14.14.14.29v.14h-1.88c0-.14-.15-.29-.15-.43v-1.74a.78.78 0 0 0-.58-.87h-.72v2.9zm0-4.35h.58c.58 0 .72-.43.72-.87 0-.87-.43-1-1.3-.87z"/></g><path d="M69.14 246.24l.72-.78c1-1 1.07-1.92.54-2.41-.88-.83-1.54-.54-2.27.25l-5.54 6a1.26 1.26 0 0 0 0 2c1 .89 2 0 2.66-.78l1-1.1 2.85 2.62-1.37 1.49c-1.92 2.09-4.46 2.44-7.38-.24-2.62-2.41-2.36-4.74-.08-7.22l4.59-5c2.43-2.64 4.77-2.75 7.38-.35 2.43 2.23 2.93 4.61.65 7.09l-.94 1zM81.68 269l-3.32-2 8.53-14.13 4.84 2.92c2.72 1.63 3.41 3.54 1.72 6.35-.91 1.51-1.91 2.37-3.7 2.17a2.29 2.29 0 0 1 .54 2.82c-.59 1.19-2 3.63-2.39 4.65a1.4 1.4 0 0 0 0 .68l-.11.19-3.62-2.18a3.3 3.3 0 0 1 .3-.92c.69-1.28 1.47-2.41 1.9-3.33s.51-1.65-.23-2.17l-1.09-.66zm4.9-8.12l1.13.68c1 .58 1.72-.17 2.25-1 1-1.67.36-2.17-1.29-3.11zm21.62 3.2l3.65 1.29-4.15 11.74c-.27.75-.27 1.47.77 1.84a1.37 1.37 0 0 0 1.77-1.06l4.12-11.63 3.65 1.29-4 11.26c-.94 2.64-2.84 4.25-6.57 2.93-3.09-1.09-4.37-3.2-3.24-6.4zm22.88 6.62l8.66 1.29-.45 3-6.22 9.31 5 .73-.49 3.27-9.26-1.3.43-2.91 6.33-9.43-4.48-.66zm36.98 17.73l1.05-16.86 4.61-.71 6.07 15.76-3.88.59-1-3.09-3 .47v3.24zm3.81-14.26v7.47l2.22-.34zm18.52-7.42l8.22-3 1.06 2.89-1 11.15 4.71-1.73 1.14 3.09-8.75 3.23-1-2.77 1-11.31-4.26 1.57zm21-9.18l3.29-2 6.55 10.59c.41.67 1 1.13 1.91.55a1.38 1.38 0 0 0 .29-2L217 254.13l3.29-2 6.28 10.15c1.47 2.38 1.53 4.87-1.83 6.95-2.79 1.73-5.24 1.41-7-1.48zm31.61-2.36l-11.27-12.05 2.82-2.65 9 9.64 3.46-3.23 2.25 2.41zM31.87 107.8l-1-.35c-1.33-.48-2.18-.25-2.43.43-.43 1.13.1 1.62 1.11 2l7.67 2.79a1.25 1.25 0 0 0 1.86-.8c.44-1.24-.8-1.81-1.75-2.15l-1.41-.51 1.32-3.64 1.9.69c2.67 1 4 3.17 2.63 6.89-1.21 3.35-3.46 4-6.63 2.87l-6.37-2.3c-3.37-1.22-4.38-3.34-3.18-6.67 1.12-3.11 3.12-4.49 6.28-3.35l1.31.47zm17.58-12.62l-14.11-8.55 2-3.31 11.29 6.84 2.45-4 2.83 1.71zm.39-29.43l2.61-2.86 9.19 8.4c.59.54 1.25.82 2 0a1.38 1.38 0 0 0-.27-2l-9.11-8.33 2.61-2.85 8.82 8.06c2.06 1.88 2.8 4.26.13 7.19-2.21 2.42-4.65 2.77-7.15.49zm29.8-5.98L70 46.38l4.07-2.93c2.37-1.7 4.78-2.27 6.72.42a3.69 3.69 0 0 1 .51 3.92c2-.21 2.84.29 4 2 1.95 2.71 1.25 5-1.3 6.82zm-2.7-10.38c1.31-1.08 2-1.45.87-3-1-1.32-1.82-.61-2.93.18zm4.11 5.71c1.55-1.16 2.28-1.53 1-3.34-1.12-1.55-2-.87-3.37 0zm32.1-13.86l-4.87-15.76 4-1.24a9 9 0 0 1 4.38-.55c1.69.4 2.4 1.86 2.86 3.38l2.16 7a3.92 3.92 0 0 1-.52 3.89 6.2 6.2 0 0 1-3.05 1.75zm2.82-4c2.53-.6 2.24-1.61 1.53-3.69l-1.59-5.15c-.59-1.84-1.23-1.76-3-1.25zm21.17-1.79L135.57 19l8.83-.84.31 3.28-5 .48.29 3 4.82-.46.31 3.28-4.82.46.34 3.55 5.24-.5.31 3.28zm37.28.88l3.58-16.1 8.89 2-.72 3.22-5.11-1.13-.63 2.85 4.7 1.05-.71 3.22-4.7-1.05-1.51 6.81zm29.02-8.7l3.56 1.58-5.09 11.36c-.33.72-.39 1.44.62 1.89a1.38 1.38 0 0 0 1.85-.9l5.02-11.26 3.53 1.58-4.93 10.9c-1.14 2.55-3.17 4-6.78 2.38-3-1.34-4.09-3.55-2.71-6.64zm24.24 12.77l8.14 5.85-1.93 2.68-2.53-1.82-7.71 10.71-3.14-2.26 7.7-10.71-2.46-1.78zm8.85 28.36l12.1-11.2 3.37 3.68c2 2.15 2.84 4.47.41 6.73a3.68 3.68 0 0 1-3.82 1c.46 2 .07 2.85-1.44 4.24-2.45 2.27-4.78 1.86-6.92-.45zm4.8.83c1.35 1.39 1.81 2.08 3.44.57 1.4-1.3.62-2.08-.45-3.33zm5.17-4.78c1.23 1.17 1.69 1.82 3.12.49 1.2-1.1.39-1.88-.54-2.88zm15.42 29.13c-3.18 1.91-5.51 1.79-7.52-1.56s-1.06-5.52 2.13-7.43l5.75-3.45c2.72-1.63 5.2-.91 6.94 2s1.17 5.38-1.55 7zm3.54-6.63c.87-.52 1.86-1.22 1.2-2.31s-1.75-.57-2.62 0l-5.8 3.48c-.81.49-1.94 1.35-1.3 2.42s1.9.43 2.71-.06zm-2.17 22.04l15.55-5.54 1.29 3.65-12.43 4.43 1.59 4.46-3.11 1.11z" fill="#fff"/></svg>