<svg height="411.468" viewBox="-215.809 -369.404 500 846.529" width="243.032" xmlns="http://www.w3.org/2000/svg"><path d="m29.411-247.882c-94.41 64.268-111.944 64.268-225.955 64.268h-8.732l-.078 56.929c-.836 188.315-1.706 383.046 235.712 498.52l3.789 1.837 3.804-1.82c239.409-114.491 237.417-308.582 235.507-496.274l-.41-59.139-8.667-.053c-105.176 0-118.696 0-225.545-64.514l-4.801-2.895z" fill="#fff"/><g fill="#162577"><path d="m29.222-259.809c-98.046 66.744-116.257 66.744-234.671 66.744h-9.069l-.082 59.127c-.865 195.584-1.763 397.825 244.81 517.752l3.94 1.902 3.948-1.886c248.643-118.909 246.577-320.478 244.592-515.418l-.427-61.418-9.003-.058c-109.234 0-123.271 0-234.244-67.002l-4.985-3.005zm5.371 18.252c107.672 64.703 127.99 66.577 229.657 66.625.09 12.427.278 43.536.278 43.536.172 17.17.36 34.458.36 51.772 0 78.498-3.648 157.333-27.542 228.152-32.535 96.337-97.197 165.36-203.139 216.969-105.097-52.051-169.427-121.484-202.164-218.288-25.837-76.429-28.6-162.073-28.6-246.598 0-11.528.041-23.02.111-34.467 0 0 .033-28.866.049-41.076 110.723-.048 135.063-1.787 230.99-66.625"/><path d="m140.822-101.664c-1.928-3.575-2.739-10.048-2.616-19.277.14-7.572.96-12.947 2.477-16.256 2.222-4.264 5.092-6.063 8.945-5.231 1.656.279 3.165.968 4.543 2.345a14.9 14.9 0 0 1 3.32 4.953c.55 1.099.968 3.03 1.518 5.506l14.882-2.62c-1.813-8.261-4.559-14.743-8.413-19.421-3.854-4.817-9.085-8.125-15.973-9.773-8.683-2.071-15.439 0-20.244 6.478-4.978 6.748-7.576 17.49-7.863 31.954-.14 11.024 1.238 19.974 3.993 27.136 2.624 7.023 5.797 11.992 9.511 14.739 3.715 2.628 8.544 4.001 14.48 4.001 4.806 0 8.807-1.099 11.972-3.03 3.165-2.075 5.789-4.961 7.855-8.823 2.066-3.846 3.723-8.675 4.698-14.325l-14.611-7.572c-.689 4.953-2.059 8.679-3.575 11.299-1.656 2.477-4.133 3.71-7.314 3.579-3.321-.279-5.798-2.075-7.585-5.662m77.133 23.283h17.498l-19.425-70.119-18.334-1.107-21.204 71.09h17.088l2.607-11.836 9.643.135 9.511.266zm-359.103-26.169c6.609-.271 11.705-2.468 15.005-6.752a23.7 23.7 0 0 0 3.317-6.465c1.107-3.173 1.652-6.9 1.652-11.024 0-4.264-.427-7.38-1.529-10.278-.689-2.062-1.644-3.71-2.895-5.096-3.026-3.439-7.441-4.686-13.636-4.272l-4.542.144-23.418.627v69.286h16.809v-25.894l6.473-.275h2.764zm58.127 25.902h17.625l-19.572-76.961-18.859 1.747-19.01 69.565-1.517 5.772h17.084l2.628-12.397 9.499-.415 9.511-.274zm67.498-13.636c2.21-5.096 3.862-11.438 4.821-19.154l-14.739-6.203c-.688 6.063-1.931 10.745-3.591 14.054-1.513 3.165-3.989 4.957-7.297 5.088-3.309.279-5.785-1.377-7.572-4.96-1.923-3.444-2.755-10.053-2.612-19.831 0-7.994.82-13.915 2.325-17.912 2.066-5.506 4.973-8.814 8.827-9.782 1.652-.41 3.165-.139 4.542.697 1.374.832 2.484 2.337 3.44 4.268.553 1.234.967 3.317 1.529 6.06l14.87-9.093c-1.795-9.921-4.694-16.944-8.548-20.806-3.854-3.71-9.237-4.407-16.121-2.206-8.675 2.763-15.423 8.679-20.388 17.498-4.682 8.671-7.293 19.831-7.293 33.745-.143 10.327 1.234 18.875 3.993 25.349 2.612 6.748 5.92 11.434 9.635 14.189 3.718 2.62 8.544 4.128 14.472 4.128 4.813 0 8.818-1.242 11.848-3.71 3.173-2.613 5.784-6.323 7.859-11.419m64.6 13.214.828-105.651-16.948-1.374-.275 37.464-18.17 1.099.274-36.775-16.817 3.71-.545 101.654 16.674-.135.135-42.568 18.187-.688-.144 43.249h16.801zm63.096-36.23.836-53.854-16.678-4.137-.82 57.581c0 5.231-.836 9.372-2.476 11.988-1.656 2.891-3.87 4.133-6.757 3.998-3.033-.275-5.231-1.931-6.888-5.096-1.509-3.03-2.476-7.437-2.345-12.812l.836-60.607-16.809-4.272-.688 61.714c-.14 5.096.409 11.024 1.517 17.633.549 4.128 1.648 8.126 3.452 11.979 1.64 3.854 3.706 6.752 5.772 8.827 2.066 2.198 4.689 3.432 7.854 4.129 3.034.688 5.921 1.099 8.553 1.099 4.542 0 8.552-1.099 11.717-3.173 2.32-1.369 4.543-3.985 6.748-7.564 2.059-3.596 3.715-7.581 4.683-12.41a76.2 76.2 0 0 0 1.493-15.023m134.234-45.786.705 93.729h-426.003l-.127-94.156c105.536 0 124.662.427 213.487-60.152 100.343 60.579 115.11 60.579 211.938 60.579m-40.571 32.159.558-2.075 5.379 25.771-5.937-.279-5.912-.283zm-349.748-5.371c2.202 0 3.854.689 4.694 1.931 1.226 1.365 1.636 3.309 1.636 5.498 0 2.202-.545 4.133-1.922 5.642-.956 1.246-2.468 1.931-4.399 2.345-.84.143-1.521.143-2.341.274l-4.133.144v-15.567l4.822-.274c.545.007 1.09-.137 1.643.007m48.759-.968 6.068 26.862-6.068.553-5.92.41zm207.219 375.868-4.371-2.771-2.632-35.733-2.14-3.461-2.329-54.888-22.286-10.922 2.624-1.017s15.07 8.036 19.892 9.635c2.042-3.214 2.624-5.83 5.265-7.445 1.164-2.206-3.223-8.061-3.223-8.061l-8.044-19.301-3.969.812-2.91-24.328v-3.805c6.871-32.618 8.052-17.694-1.6-46.36l-27.337-6.441v-10.824l1.591-1.025c.574.59 5.854 4.83 5.854 5.854l-1.033.586c0 2.193 4.256 4.231 5.428 5.846h3.657c1.607-1.607 3.214-3.21 3.805-3.653 1.607 1.603 1.607 1.021 1.607 2.046.582 0-2.206 3.218-1.607 3.218l3.788-.439c1.033-1.172 4.247-4.825 1.033-7.597-1.033-4.243-4.821-5.854-5.42-9.077l-4.239-3.796v-10.67l-1.024-1.025v-2.198l-4.821-4.223c-2.206 0 0 0-4.83 1.603v.586c-.574 0-1.607.438-1.607 0 0-.586-.582-1.177 0-2.78-.582-1.603-3.788-4.239-4.821-5.272l-2.787 2.058c-.435-1.025-1.607-2.05-2.042-1.025l-2.197 2.636c-1.6 0-1.6-4.826-1.6-5.851 0-.59-1.033-.59-1.033-.59v2.78l-2.771 5.272h-.451c-4.813-4.239-5.83-6.875-11.836-6.437l-3.653 3.214-1.025-1.025c-1.603 4.239-5.264 4.239-3.227 7.458 0 1.603 0 3.206-1.021 4.383-1.607.442-1.017 0-2.185-1.177-.451 1.177-1.033 1.611-2.644 2.788 0-.586-.578-1.168-1.025-1.168l-3.214 1.603h-.574c-1.611 1.177-2.636 1.624-3.8 2.636l-.448 4.822c-2.78 0-1.603 0-1.603.586 0 1.603-2.202.582-2.202.582s-.578-2.193-1.603-.581c0 1.603 0 3.805 1.603 3.805 3.218 1.603 4.83 2.628 5.416 4.239 0 1.025-.578 4.83-.578 7.458l-4.83 3.214c0 1.168-1.013 1.168-1.013 1.168 0 1.033 2.038 2.636 2.038 2.636 0 1.025 0 1.025-1.025 1.611-1.013 0-1.603-.586-2.189-.586-.438 0-1.603.586-1.603 1.603v7.458c0-3.218-.438 3.669-1.472 3.669l-3.792 2.181 1.025 7.458 1.173 1.611c1.595 1.017.438 4.817.438 4.817l-5.494 56.413-5.194.328h-1.033c1.033 1.615 1.033 3.805 1.033 4.837-.59 0-1.603 0-1.603.566l-1.607 1.033c0 1.164 0 1.164-1.033 1.164l-1.165 4.682-3.218 2.198v4.821l7.105 5.739-1.689 29.649-1.033 1.033-1.165 25.14-3.218 3.215-.443 8.052v.574l-1.168 16.53-1.025 10.823-3.792 3.657v11.84l82.934 4.903 56.241-5.511zm-8.478-27.338-.451 1.755-21.188-2.197.304 6.429h-4.387l1.164-8.479zm-4.239-10.528-30.994-2.051 1.164-5.706 8.052 1.033 6.863 1.606.451 2.477 15.932.442zm-8.479-25.878 3.493 5.69 3.37 1.188.295 7.003-4.682-.435-4.231-.582zm1.46 16.514-14.325-.582-12.586-.878 3.518-5.116 7.019 3.944 8.331-.14zm-27.764-13.02-.017-34.373 5.002-11.397 1.705 5.076.033 43.047zm17.186 8.018-8.945-.312v-9.758l8.945 1.591zm-2.582-44.868 2.632 5.854-.05 27.206-8.945-1.64v-29.289l3.305-1.246zm-1.46-51.902c.722.877 1.755 1.599 2.493 2.197l-3.953 3.361-2.05-3.083zm5.42 20.76-9.068.147-7.02-.147 8.618-5.264c.73.738 6.593 4.526 7.47 5.264m-16.538-36.692.746-17.121 3.354 1.763.295 16.235.14 15.628c-1.313 1.181-3.066 1.477-4.821.591-.149-7.166.424-7.166.286-17.096m-1.46 28.214c.738.738 1.599 1.46 2.493 2.198l-4.092 3.214-1.911-2.919zm-5.264 10.512 30.125-.721c.737.877-2.337 3.083-1.46 3.804l-32.904 2.493zm-65.802 21.515-5.112-2.345 46.053-6.002 1.468-.131-.291 1.754-1.898 1.591zm1.025 2.92-3.362.737s-1.468 1.164-2.046 2.32c-.295 0-2.083-1.008-1.931-1.729.139-.156 3.677-3.346 3.677-3.346zm11.705-23.106 5.649-4.149 7.875 1.845-7.675 7.568zm21.2 58.79.73-29.387 4.375-3.378 1.755-3.51 3.505 1.328-.017 33.159zm10.364 1.148v10.905l-11.828.82.742-9.651zm-9.192-37.849c.295-.442 3.067-5.854 3.94-5.575l.882 1.623-3.083 5.117zm-3.078 44.015-.144 4.23-3.366-1.304-3.51 4.248-14.333-.156v-6.297zm-22.816-37.292-.147 11.693-2.628.885.443-11.561h.578l1.168-1.755zm-3.062 19.729 1.755-3.936.873 1.755-.287 27.632-3.952 1.755.874-26.895zm3.653 27.501 17.994-1.902 16.658-1.468-3.215 2.771-13.152 1.313-26.046 2.337zm36.849-2.493 6.871.59 14.037.869-5.264 2.346-9.225.737-10.963-1.476zm-.731-140.155 4.379 1.841v31.77c-1.181 1.328-2.492 1.574-4.379.705zm.026 36.153 4.37 1.345v22.089l-4.387 2.616zm8.609 24.614c.722.722 7.175 3.937 8.035 4.674l-8.33 4.526-5.854-5.116zm-4.256 77.929-4.37-1.246-.009-47.295 2.485.869 1.91-3.51v51.182zm2.617.246.016-45.573 6.88-1.755 4.772-14.037 3.41 5.543.017 55.986zm2.926-166.352 7.33-3.501-.032 8.421-8.167 2.542zm-45.888 10.081c.435 1.025.586.881 1.906.295l1.747.721 5.555-4.821 1.177.726 4.821-3.661c.586-.583-3.218-4.526-3.509-4.821l2.045-1.316 2.923 2.198 2.05 1.459 5.112-3.666c-.279-.877-4.526-3.948-5.407-4.964 1.308-1.763 2.333-1.763 3.653-3.071v.147l3.214 3.948-.136 1.754 4.678 4.535 2.923-.144.738.873c-.443 2.333 5.985 2.05 8.33 1.168 1.033 0 2.051 0 2.788.291-.599 6.879-9.807 3.805-9.807 9.95-1.312.144-6.137-3.374-5.116-5.567l1.906-2.341c0-.435-7.019-4.535-6.129-3.948-5.849-1.315-13.901 9.8-18.579 14.035l1.168 1.176s-1.312 1.603-1.463 1.755l-7.892.443s-.435-5.994-.435-6.289c.275-.562.849-1.009 1.739-.865m22.507 4.837-2.046-1.033 2.046-2.923 2.202-.151c-.447 1.024-1.755 3.074-2.202 4.107m.743 5.408c-.295.881-1.775 3.214-2.202 4.239l-2.202-1.025 2.202-3.075zm1.754-5.408.275-.881 1.328-.874h.144c.443 0 .73.152 1.021.443l-.881 1.009c-.14 0-.275 0-.427.151-.151.152-.295.435-.295.586-.881.438-1.017 1.033-1.603 1.747-.443-.144-.578-.578-.738-1.013-.001-.598.729-.733 1.176-1.168m-7.031 2.923-1.451 1.755-2.341-2.931.578-2.337c.729.734 2.484 2.772 3.214 3.513m-14.333 5.265c.734.722 1.32 8.63 2.042 9.352l-6.129.438-1.603-5.559zm-7.076 13.456 9.573 3.943-3.066 40.785-11.115 4.1zm-4.719 51.156 12.562-5.092 2.87-41.81s1.202-1.033.759-2.05c2.046-2.492 3.661-4.387 6.002-6.584-1.459-1.168-3.366-2.489-4.973-3.218.574-1.468-.443-5.851 1.456-6.297l9.798 8.773c1.165-.152.291-1.603.152-1.906l-5.703-4.239.586-.287c.874.152 2.099 1.304 4.014 1.935 2.98.988 7.072-.943 8.13-2.058.32-.369 8.684-8.122 9.355-8.659 3.067 1.32 1.165 3.51 2.919 4.83 2.05-.873 2.493-1.459 4.101-2.345 4.682.734 4.682 1.755 8.625-.435l1.6.722c0 .881.442 64.055.442 64.055l-2.492 1.468c-.435.869-1.46 1.599-2.633 1.755-.582 0-.869-.591-1.172-.451-.582-.156-.582.451-1.025.722l-4.182-2.271v-59.096l-3.411-3.555-5.42 3.075-.582 16.666c-1.75-.729-2.488-2.493-3.657-3.805-1.468-1.32.295-3.661-.881-4.969l-2.042-1.907c.582-1.603 1.898-1.906 2.484-3.501 1.017-.295 1.607-1.915.447-2.202-1.185.287-1.755 1.906-2.78 2.628-.578 1.025-1.177 1.463-1.747 2.193l.722 2.493 1.906 1.459-.295 2.484-2.493.738-.57-.878-4.526 3.805c-.152-.155-2.05-1.615-2.341-1.468-.59.738-5.854 5.108-6.879 7.314 0 .435.582.435.873.869.873 0 4.534-3.944 4.989-4.821l1.308 1.181c-2.936 3.066-4.985 6.715-7.9 9.79l-.898 16.238-.435 6.592c.435.279 1.173.591 1.755.427.873-2.328.586-5.396.729-8.183.586-4.396 1.033-9.069 1.033-13.456l6.715-8.035.586.877c0 .295-2.628 5.56-2.911 5.707v16.957l-.168 6.133.295 1.033c1.181 0 4.69 0 6.146 1.017l-.59 2.936c-.152.279-.291.427-.443.877h-6.871c-.147.148-.147.287-.147.443 0 .451.443.877 1.021 1.173.75-.574 1.907-.574 2.628 0l1.177-.435 1.763.573-.168 1.033-1.324 3.542s-8.228-2.378-9.925-2.943c-1.697-.558-2.436-.533-3.534.246-.992.771-14.98 11.151-15.854 11.906zm38.858-2.476-.729-.722-2.628-1.181.578-1.018c0-.295-.291-.442-.578-.59l-1.025.295c-.151.147-.151.591-.151.886-.152-.295-.152-.591-.578-.738.144 0 .578-.155.578-.59.151-.295-.152-.574-.443-.869h-.447l-.275-2.346c.275-.295 1.013 0 1.308-.442.295.147.295.295.57.442.742-.442 3.546-2.099 3.546-2.099l-.021-26.993-3.666-4.387-.582-1.755 4.822 1.911-6.577-4.387c-.873.295-2.771 2.632-2.484 2.484l-1.611-.574 3.801-4.395 6.584 3.214 1.459 1.755c.152 0 .295.295.438.59l.882 13.891-.147 28.354zm2.624 2.772-.287 3.82-12.287-3.361 3.805-5.125c.721.877 7.9 4.091 8.769 4.666m-11.685-24.567v9.659s-2.197 1.312-2.636 1.164l-1.025-19.433c1.615 3.354 2.202 5.117 3.661 8.61m-44.458 45.786 31.294-23.106 30.269 8.773-4.534.279-26.03-6.429-31.15 22.951zm.287 4.084 5.408-1.099 3.247 2.099-3.526 3.1zm6.441 10.397 2.628-.459 5.547-5.149 2.64 2.525-1.033 33.191-11.737 1.969zm-2.386 34.849 12.074-1.919-1.066 11.061-11.545.656zm-.849 16.939.312-4.419 10.815-1.017-2.337 4.969-1.902 3.066-9.659-.14zm8.934 42.949c0 .738.151.296.151 1.329l-9.068.278-8.925-.877-.291-1.304zm-19.437 9.413v-3.099l20.757.951-.033 3.148zm21.782-11.888-14.05-3.362 14.05.574zm-.439-7.462-15.518.147 2.202-9.512 1.185-10.527 11.836.442 1.464 10.233zm4.526-19.744.152-5.265 4.526 1.181 15.071-.877 1.168 2.492-2.771 1.764zm36.263 10.823-1.316 9.216-16.657.738.873-12.726 3.8-7.904 13.595 1.164zm8.007 28.961-4.403.573.082-44.097 4.337 1.065v42.458h-.016zm16.415.869h-13.005c-.59-.451.738-.451 1.902-.574h13.3c-.442.131-.869.426-2.197.574m-14.177-20.467 1.755-12.135 4.075-1.181-1.165-9.069 11.119 2.346.573 10.232.738 10.528zm-21.942-30.567-30.125.738 11.697-5.117 20.187-.886 38.165.886 1.181 4.969zm48.402 21.646-.738 9.635-5.838.295 1.312-7.88 1.173-5.264 1.173-7.462 3.361.132zm9.79 16.53c-.147.427-.565.427-.722.869l-1.902.738h-.59c-.296 0-.443-.164-.591-.442l-1.902-1.313-.729-.877c.155 0 .303 0 .451-.156.278.156.573.156.721 0l.878.156c.155-.296.738 0 1.188 0 .147-.296.583 0 1.018 0 .286-.296.721 0 1.181 0 0-.156.139-.156.442-.156l.574.591c-.017.001-.017.443-.017.59m26.329 11.103-23.984 2.033-.877-5.698 8.322-.279 9.963.574 7.019.155zm-234.688-204.57-.225-5.166q3.991-3.139 5.744-6.793c1.172-2.443 1.685-5.194 1.558-8.277-.209-4.871-2.198-8.941-5.933-12.226-3.755-3.268-8.171-4.796-13.259-4.567-5.125.217-9.421 2.132-12.865 5.744-3.452 3.608-5.072 7.835-4.854 12.66.135 3.021.874 5.703 2.234 8.044 1.361 2.341 3.341 4.366 5.953 6.063l.209 5.071c-3.87-1.865-6.867-4.416-9.015-7.667s-3.317-7.035-3.493-11.36q-.406-9.346 5.904-15.998 6.308-6.649 16.018-7.068c3.05-.135 5.961.32 8.741 1.353 2.771 1.033 5.317 2.62 7.601 4.727 2.181 1.997 3.862 4.255 5.026 6.777 1.168 2.509 1.816 5.264 1.943 8.245q.277 6.482-2.648 11.795c-1.964 3.534-4.85 6.416-8.639 8.643m12.395 7.871.521 4.284-39.042 4.776 1.853 15.202-4.182.517-2.374-19.474zm3.509 27.362.89 4.215-25.661 5.411q-4.137.886-5.908 1.624c-1.185.508-2.177 1.147-2.956 1.869-1.209 1.181-2.033 2.509-2.497 4.034-.459 1.517-.513 3.1-.147 4.764.34 1.673 1.049 3.133 2.086 4.354a8.96 8.96 0 0 0 3.883 2.664c1.041.361 2.197.533 3.477.517 1.275-.016 3.296-.327 6.051-.901l25.652-5.412.873 4.116-27.112 5.724c-5.526 1.164-9.893.935-13.074-.688-3.181-1.624-5.231-4.69-6.187-9.184-1.008-4.756-.422-8.553 1.763-11.373 2.189-2.82 6.096-4.821 11.737-6.019zm-10.053 54.15c1.103 3.28 1.254 5.953.496 8.02q-1.13 3.124-5.071 4.428c-2.636.869-4.85.737-6.658-.443-1.804-1.188-3.263-3.427-4.375-6.739l-1.923-5.765 15.62-5.215zm17.35-7.61c1.021 3.059 1.226 5.56.586 7.462-.631 1.919-2.091 3.264-4.375 4.018-2.563.861-4.645.673-6.281-.549s-3.116-3.821-4.44-7.831l-.841-2.509 13.989-4.657zm-40.075 4.51 3.063 9.184c1.579 4.739 3.837 7.971 6.777 9.659 2.948 1.689 6.49 1.854 10.647.459 2.324-.771 4.153-1.992 5.489-3.697 1.329-1.706 1.997-3.633 1.989-5.781 1.287 1.066 2.714 1.722 4.292 1.977 1.579.246 3.251.09 5.022-.492 3.423-1.173 5.769-3.189 7.035-6.093 1.259-2.902 1.242-6.297-.041-10.15l-2.956-8.839zm62.079 46.032c2.628 4.543 3.37 8.922 2.193 13.12-1.201 4.197-4.087 7.642-8.716 10.331-4.703 2.738-9.192 3.641-13.468 2.738-4.289-.901-7.667-3.477-10.135-7.707l-5.055-8.725 30.54-17.744zm-40.854 8.2 5.699 9.807c1.976 3.395 3.731 5.838 5.26 7.347 1.525 1.5 3.333 2.689 5.44 3.632 3.247 1.395 6.556 1.977 9.983 1.723 3.399-.263 6.765-1.361 10.073-3.288 5.535-3.23 9.028-7.568 10.496-13.087 1.472-5.493.553-11.053-2.71-16.694l-6.593-11.331zm59.791 14.021 14.157 17.695-3.219 2.574-11.458-14.316-12.111 9.676 11.422 14.283-3.218 2.575-11.41-14.284-12.267 9.823 11.426 14.268-3.214 2.583-14.124-17.654zm245.301-175.372.131-4.296 39.325 1.14.442-15.304 4.215.127-.565 19.622zm7.314 22.455c3.952-3.1 8.38-4.366 13.3-3.805 5.248.578 9.479 2.78 12.71 6.576q4.821 5.687 3.984 13.066c-.558 5.001-2.804 9.02-6.724 12.069-3.919 3.05-8.462 4.297-13.595 3.706-5.084-.558-9.216-2.755-12.431-6.593-3.214-3.82-4.542-8.166-4.001-13.013.542-4.913 2.797-8.919 6.757-12.006m-10.184 20.003c.771 2.706 2.059 5.198 3.887 7.486 1.943 2.468 4.198 4.419 6.789 5.887a21.7 21.7 0 0 0 8.413 2.682c6.444.722 12.086-.771 16.924-4.51q7.28-5.596 8.314-14.932c.377-3.255.099-6.33-.82-9.253-.927-2.923-2.46-5.608-4.624-8.085-1.895-2.144-4.067-3.829-6.527-5.071-2.443-1.234-5.215-2.034-8.281-2.378-3.1-.353-6.067-.106-8.905.713q-4.228 1.249-7.756 4.133c-2.346 1.906-4.183 4.087-5.527 6.555-1.36 2.477-2.197 5.231-2.541 8.262-.346 3.001-.124 5.846.654 8.511m14.62 42.867c.795-3.346 2.066-5.707 3.805-7.085 1.722-1.36 3.936-1.722 6.625-1.082 2.697.623 4.51 1.919 5.42 3.87.935 1.952.984 4.625.181 8.02l-1.395 5.92-16.021-3.771zm-18.753-2.624c.738-3.132 1.887-5.371 3.428-6.658 1.542-1.312 3.493-1.673 5.813-1.115 2.632.599 4.313 1.87 5.06 3.747.754 1.911.631 4.903-.328 9.004l-.591 2.558-14.365-3.37zm36.456 17.219 2.222-9.429c1.156-4.871.91-8.79-.688-11.775-1.6-3.001-4.543-4.984-8.807-5.985-2.395-.574-4.592-.476-6.625.263-2.034.754-3.616 2.05-4.731 3.887-.533-1.591-1.394-2.903-2.615-3.937-1.222-1.049-2.723-1.787-4.526-2.214-3.526-.844-6.576-.344-9.184 1.477-2.615 1.804-4.37 4.689-5.305 8.658l-2.148 9.061zm-52.248 19.876 7.207-20.712 4.06 1.427-2.903 8.306 37.063 12.923-1.41 4.067-37.079-12.923-2.886 8.306zm-16.005 33.881 1.928-3.854 23.45 11.726c2.534 1.263 4.387 2.066 5.649 2.411 1.246.344 2.402.459 3.469.377 1.673-.181 3.148-.722 4.46-1.623 1.288-.895 2.305-2.116 3.083-3.625.771-1.541 1.132-3.115 1.066-4.723a9 9 0 0 0 -1.378-4.493c-.59-.935-1.377-1.788-2.394-2.566-1.017-.787-2.788-1.804-5.313-3.059l-23.451-11.726 1.887-3.755 24.795 12.381c5.06 2.55 8.314 5.42 9.79 8.675 1.484 3.256 1.205 6.921-.86 11.037-2.182 4.362-5.002 6.953-8.462 7.806-3.461.861-7.773-.017-12.923-2.591zm-18.236 27.32 12.3-17.694 3.542 2.46-9.889 14.234 12.504 8.675 9.881-14.234 3.542 2.46-9.889 14.234 16.202 11.25-2.395 3.46zm-93.364-574.37 10.435 27.395 30.919.754-24.639 17.601 8.929 27.776-25.644-16.473-25.509 16.473 8.795-27.776-24.628-17.601 31.039-.754zm108.074 38.522 10.446 27.395 30.896.766-24.614 17.588 8.912 27.768-25.64-16.465-25.516 16.465 8.805-27.768-24.631-17.588 31.052-.766zm101.273 29.662 10.413 27.398 30.928.755-24.655 17.592 8.953 27.776-25.639-16.465-25.517 16.465 8.79-27.776-24.632-17.592 31.035-.755zm-417.308 0 10.414 27.398 30.924.755-24.635 17.592 8.933 27.776-25.636-16.465-25.517 16.465 8.794-27.776-24.627-17.592 31.039-.755zm97.157-29.15 10.417 27.395 30.933.767-24.644 17.587 8.933 27.768-25.639-16.456-25.509 16.456 8.79-27.768-24.636-17.587 31.06-.767z"/><path d="m-179.001-27.86c3.907 172.707 43.638 290.255 213.352 372.349 170.337-80.781 209.736-198.625 212.852-372.349zm213.335 368.184c-165.91-80.257-204.743-195.182-208.563-364.011h416.667c-3.066 169.846-41.571 285.033-208.104 364.011"/></g><path d="m-179.715-58.883h154.106v23.18h-154.106z" fill="#12692c"/><path d="m92.354-58.883h154.11v23.18h-154.11z" fill="#d8141d"/><path d="m-65.036 362.528 10.418 27.404 30.932.754-24.643 17.596 8.933 27.781-25.64-16.465-25.508 16.465 8.789-27.781-24.623-17.596 31.04-.754zm-99.588-75.894 10.418 27.402 30.925.755-24.636 17.596 8.925 27.763-25.632-16.464-25.508 16.464 8.79-27.763-24.636-17.596 31.043-.755zm300.657 75.894-10.422 27.404-30.92.754 24.631 17.596-8.921 27.781 25.632-16.465 25.501 16.465-8.773-27.781 24.614-17.596-31.035-.754zm99.592-75.894-10.43 27.402-30.912.755 24.631 17.596-8.929 27.763 25.64-16.464 25.517 16.464-8.798-27.763 24.623-17.596-31.035-.755zm-202.332 116.974-10.421 27.403-30.921.755 24.635 17.595-8.937 27.764 25.644-16.464 25.509 16.464-8.79-27.764 24.632-17.595-31.036-.755z" fill="#ab830d"/></svg>