<svg xmlns="http://www.w3.org/2000/svg" width="200" height="200"><style>.shp0{fill:#a2d9e7}.shp1{fill:#533278}.shp2{fill:#fff}.shp3{fill:#101820}</style><path d="M95.75.06c-.55.02-1.44.07-1.97.11-.54.03-1.44.09-2 .14-.57.05-1.52.13-2.11.19-.6.06-1.59.18-2.2.25-.61.08-1.62.22-2.25.31-.62.09-1.65.25-2.28.36-.62.11-1.77.32-2.55.47-.78.16-2.17.46-3.08.67-.92.21-2.32.56-3.12.77-.79.21-2 .55-2.69.75-.69.21-2.1.66-3.14 1-1.04.35-2.44.84-3.11 1.09s-1.77.67-2.44.94a103.19 103.19 0 0 0-4.95 2.14c-.7.33-1.94.93-2.75 1.34-.81.4-1.87.95-2.36 1.22-.49.26-1.31.72-1.83 1.01s-1.45.83-2.06 1.2c-.61.36-1.62.99-2.25 1.38-.63.4-1.66 1.08-2.3 1.51-.65.44-1.57 1.08-2.06 1.42-.49.35-1.39 1.01-2 1.47s-1.51 1.15-2 1.53-1.48 1.19-2.19 1.79c-.72.59-1.79 1.51-2.37 2.02-.58.52-1.41 1.28-1.86 1.69-.44.41-1.58 1.52-2.53 2.47s-2.06 2.09-2.47 2.53c-.41.45-1.17 1.28-1.69 1.86-.51.58-1.42 1.64-2 2.34-.59.7-1.41 1.71-1.83 2.25-.42.53-1.12 1.44-1.56 2.03-.43.58-1.15 1.56-1.59 2.19s-1.08 1.55-1.42 2.06c-.33.5-.9 1.36-1.25 1.91s-.94 1.5-1.3 2.11c-.37.61-.93 1.58-1.26 2.14-.32.57-.81 1.45-1.09 1.97s-.91 1.74-1.39 2.7-1.12 2.29-1.42 2.94c-.3.66-.75 1.66-.99 2.23a111 111 0 0 0-1.89 4.72c-.24.65-.72 2.04-1.07 3.08-.34 1.04-.79 2.45-1 3.14-.2.69-.54 1.9-.75 2.69-.21.8-.56 2.2-.77 3.12-.21.91-.51 2.3-.67 3.08-.15.78-.38 2-.5 2.72s-.28 1.74-.36 2.28c-.08.53-.2 1.47-.28 2.08s-.2 1.73-.27 2.47a99 99 0 0 0-.37 4.73c-.04.5-.08 2.43-.09 4.27-.02 2.16-.01 3.94.03 4.95.04.87.09 1.96.12 2.42.03.45.09 1.3.14 1.88s.13 1.55.19 2.14c.06.6.18 1.59.25 2.2.08.61.2 1.55.28 2.08.08.54.24 1.56.36 2.28s.37 2.05.56 2.97a108.911 108.911 0 0 0 1.4 6.03c.2.75.53 1.92.73 2.61.21.69.65 2.1 1 3.14s.84 2.44 1.09 3.11.67 1.77.94 2.44c.27.68.69 1.69.93 2.25.24.57.69 1.57.99 2.23.3.65.95 2 1.45 3 .5.99 1.17 2.29 1.5 2.89.32.59.8 1.45 1.06 1.91.27.46.74 1.27 1.06 1.81.32.53.91 1.48 1.3 2.11.4.63 1.08 1.66 1.51 2.3.44.65 1.13 1.65 1.54 2.23.42.58 1.08 1.48 1.47 2s1.03 1.34 1.41 1.83 1.13 1.41 1.66 2.04c.52.64 1.31 1.56 1.75 2.06.43.49 1.25 1.4 1.81 2.01a134.93 134.93 0 0 0 5.28 5.31c.45.41 1.28 1.17 1.86 1.69.58.51 1.65 1.43 2.37 2.02.71.6 1.7 1.41 2.19 1.79s1.39 1.07 2 1.53 1.6 1.18 2.19 1.6a104.503 104.503 0 0 0 4.7 3.12c.64.4 1.48.92 1.86 1.14.38.23 1.16.68 1.72 1.01.57.32 1.45.81 1.97 1.09s1.64.86 2.48 1.28 2.01.99 2.61 1.27c.59.28 1.63.75 2.3 1.04.68.29 1.9.81 2.73 1.14.82.33 2.06.8 2.75 1.05.68.25 1.76.63 2.38.85.63.21 1.62.53 2.2.71s1.53.46 2.11.63 1.63.46 2.33.64c.71.19 1.87.47 2.59.64.71.17 1.91.43 2.66.58a90 90 0 0 0 5.2.92c.73.11 1.83.26 2.44.34l1.92.22c.44.05 1.39.13 2.11.19s1.73.14 2.25.17 1.53.08 2.25.11c.72.04 2.52.06 4 .06s3.29-.03 4.03-.06c.73-.03 1.91-.09 2.61-.14.7-.04 1.96-.14 2.8-.22s2.31-.24 3.25-.36c.95-.12 2.36-.32 3.14-.44s1.96-.33 2.61-.45c.66-.12 1.74-.34 2.39-.48.66-.13 1.81-.39 2.56-.57s1.92-.48 2.61-.66c.69-.19 1.81-.5 2.5-.7.69-.21 2.1-.66 3.14-1 1.04-.35 2.43-.83 3.08-1.07a110.448 110.448 0 0 0 4.72-1.89c.57-.24 1.57-.69 2.23-.99.65-.3 2.03-.97 3.05-1.48 1.03-.51 2.44-1.25 3.14-1.63.7-.39 1.82-1.02 2.47-1.4.66-.39 1.7-1.01 2.31-1.39s1.68-1.07 2.39-1.54c.7-.46 1.8-1.21 2.44-1.67.64-.45 1.64-1.18 2.22-1.61.58-.44 1.5-1.14 2.03-1.56.54-.42 1.55-1.24 2.25-1.83.7-.58 1.75-1.49 2.34-2 .58-.52 1.44-1.3 1.91-1.74.48-.45 1.61-1.56 2.53-2.48s2.01-2.03 2.42-2.47c.41-.45 1.17-1.28 1.69-1.86.51-.59 1.43-1.65 2.02-2.37.6-.71 1.41-1.7 1.79-2.19a122 122 0 0 0 3.13-4.19c.43-.6 1.14-1.64 1.58-2.31.45-.67 1.15-1.76 1.56-2.42.41-.65 1.02-1.65 1.35-2.22.34-.56.85-1.46 1.15-2 .3-.53.79-1.43 1.09-2a125 125 0 0 0 2.68-5.47c.27-.61.68-1.52.89-2.03.21-.5.59-1.42.83-2.03.25-.61.65-1.66.9-2.33s.74-2.07 1.09-3.11.79-2.45 1-3.14c.2-.69.54-1.9.75-2.69.21-.8.53-2.09.71-2.87.19-.77.46-2.02.61-2.77.16-.75.38-1.94.51-2.64.12-.71.35-2.14.5-3.2a93 93 0 0 0 .66-5.83c.06-.72.14-1.73.17-2.25s.08-1.53.11-2.25c.04-.72.06-2.52.06-4s-.02-3.28-.06-4c-.03-.72-.08-1.73-.11-2.25s-.11-1.53-.17-2.25-.17-1.89-.25-2.61c-.07-.72-.26-2.17-.41-3.22-.15-1.06-.38-2.5-.5-3.2-.13-.7-.35-1.89-.51-2.64-.15-.75-.42-2-.61-2.77-.18-.78-.5-2.07-.71-2.87-.21-.79-.55-2-.75-2.69-.21-.69-.66-2.1-1-3.14-.35-1.04-.83-2.43-1.07-3.08-.25-.66-.67-1.76-.95-2.45a107 107 0 0 0-2.15-4.97c-.33-.7-.93-1.94-1.34-2.75-.4-.81-.97-1.9-1.25-2.42s-.77-1.4-1.09-1.97c-.32-.56-.85-1.46-1.17-2-.32-.53-.91-1.48-1.3-2.11-.4-.63-1.08-1.66-1.51-2.3-.44-.65-1.13-1.65-1.54-2.23-.42-.58-1.11-1.53-1.55-2.11s-1.13-1.48-1.55-2c-.41-.52-1.05-1.3-1.42-1.75-.37-.44-1.02-1.2-1.44-1.69s-1.26-1.43-1.86-2.09c-.6-.65-1.95-2.05-3.01-3.11-1.05-1.05-2.38-2.34-2.94-2.86-.57-.52-1.46-1.31-1.98-1.77-.51-.45-1.36-1.18-1.88-1.61a85 85 0 0 0-1.89-1.54c-.52-.41-1.36-1.07-1.86-1.45-.51-.38-1.5-1.1-2.2-1.61-.7-.5-1.76-1.24-2.36-1.64-.59-.39-1.53-1.01-2.08-1.36s-1.56-.98-2.25-1.39-1.68-.99-2.2-1.28-1.34-.75-1.83-1.01c-.49-.27-1.68-.88-2.64-1.36s-2.29-1.12-2.94-1.42c-.66-.3-1.66-.75-2.23-.99a111 111 0 0 0-4.72-1.89c-.65-.24-2.04-.72-3.08-1.07s-2.45-.79-3.14-1c-.69-.2-1.9-.54-2.69-.75-.8-.21-2.15-.55-3-.75-.86-.19-2.25-.49-3.09-.66s-2.11-.41-2.83-.53-1.92-.31-2.67-.41c-.75-.11-1.91-.26-2.58-.34-.67-.07-1.77-.19-2.45-.25a117.17 117.17 0 0 0-5.13-.33c-.72-.03-2.66-.06-4.31-.05-1.65 0-3.45.03-4 .05" class="shp0"/><path d="M98 3.26c-.32.01-1.22.04-2 .07-.78.04-1.94.1-2.58.15-.65.04-1.7.13-2.34.19s-1.6.16-2.14.22c-.53.06-1.43.18-2 .25-.56.08-1.79.27-2.72.42-.93.16-2.29.4-3.03.55-.73.15-1.79.37-2.36.5-.56.12-1.75.41-2.64.64-.88.23-2.09.55-2.69.72s-1.56.46-2.14.64-1.58.51-2.22.73c-.64.21-1.68.58-2.31.81-.62.23-1.69.64-2.36.91s-1.63.66-2.14.87c-.5.22-1.5.66-2.22.99s-2.03.96-2.92 1.4c-.88.44-1.96.99-2.38 1.22-.43.23-1.29.71-1.92 1.06s-1.58.9-2.11 1.22c-.54.32-1.49.91-2.11 1.31-.63.4-1.52.97-1.98 1.28-.45.3-1.29.88-1.86 1.28-.56.39-1.6 1.15-2.3 1.67-.71.53-1.73 1.32-2.28 1.76s-1.36 1.1-1.81 1.47c-.44.37-1.24 1.05-1.77 1.52-.54.47-1.41 1.25-1.95 1.75-.53.49-1.8 1.71-2.8 2.72-1.01 1.01-2.24 2.27-2.73 2.81-.49.53-1.12 1.23-1.41 1.55a133.584 133.584 0 0 0-3.2 3.81c-.51.64-1.36 1.74-1.89 2.44-.52.71-1.25 1.71-1.62 2.23-.36.52-.96 1.39-1.33 1.94s-.93 1.42-1.26 1.93c-.32.51-.93 1.49-1.33 2.17-.41.68-1.06 1.8-1.44 2.48-.38.69-1.01 1.85-1.39 2.59-.39.73-.98 1.92-1.32 2.64-.34.71-.84 1.78-1.09 2.36-.26.58-.64 1.44-.84 1.91-.2.48-.57 1.39-.82 2.03s-.66 1.72-.9 2.39c-.25.67-.62 1.72-.82 2.33-.21.62-.56 1.72-.78 2.45s-.57 1.93-.77 2.67c-.2.73-.49 1.84-.64 2.47-.15.62-.38 1.59-.5 2.14s-.32 1.51-.45 2.14c-.12.62-.32 1.72-.44 2.44a92.805 92.805 0 0 0-.78 5.53c-.09.82-.22 2.11-.28 2.86s-.14 1.81-.17 2.36-.08 1.67-.11 2.5c-.03.82-.05 2.29-.05 3.25s.02 2.42.05 3.25c.03.82.08 1.95.11 2.5s.11 1.61.17 2.36.19 2.04.28 2.86a93 93 0 0 0 .78 5.53c.12.72.36 1.99.53 2.83s.44 2.13.61 2.86c.17.74.5 2.04.73 2.89.22.86.61 2.21.85 3a111.201 111.201 0 0 0 1.77 5.34 131 131 0 0 0 1.63 4.14c.2.47.58 1.33.84 1.91.25.58.76 1.66 1.11 2.41.36.74.95 1.92 1.31 2.62.37.7.87 1.65 1.12 2.1s.73 1.29 1.07 1.87c.33.58.91 1.55 1.28 2.14.36.6 1.07 1.7 1.56 2.45.49.74 1.26 1.87 1.7 2.5.44.62 1.22 1.7 1.74 2.38.51.69 1.37 1.79 1.89 2.45.53.66 1.42 1.73 1.99 2.39.56.65 1.29 1.49 1.62 1.86s1.12 1.21 1.75 1.88 1.71 1.77 2.4 2.45c.69.67 1.72 1.66 2.3 2.19.58.54 1.44 1.31 1.92 1.73.47.41 1.23 1.06 1.69 1.45.46.38 1.21.99 1.67 1.36s1.24.99 1.75 1.38c.5.38 1.54 1.15 2.3 1.69.77.55 1.82 1.28 2.34 1.63s1.4.94 1.97 1.3a114 114 0 0 0 4.97 2.97c.67.37 2.1 1.12 3.17 1.67 1.07.54 2.49 1.24 3.16 1.55.68.31 1.74.78 2.37 1.05a96 96 0 0 0 4.77 1.91c.63.23 1.67.6 2.31.81.64.22 1.64.55 2.22.73s1.58.48 2.22.66 1.76.48 2.48.67c.71.18 1.79.44 2.38.58.6.14 1.7.38 2.45.53s1.87.36 2.5.47 1.48.25 1.89.31c.41.07 1.2.18 1.75.26.55.07 1.54.19 2.19.27.66.07 1.62.17 2.14.22s1.46.12 2.08.17c.63.04 1.76.11 2.5.14.75.04 2.73.07 4.39.07 1.67 0 3.63-.03 4.36-.06.74-.04 1.86-.11 2.5-.15.65-.05 1.47-.11 1.84-.14.36-.04 1.13-.11 1.69-.17.57-.06 1.53-.17 2.14-.25s1.69-.23 2.39-.34 1.82-.29 2.47-.41c.66-.12 1.7-.32 2.31-.44.61-.13 1.65-.36 2.3-.51.66-.15 1.72-.41 2.36-.57.65-.17 1.7-.46 2.34-.64s1.8-.53 2.58-.77c.78-.25 2.02-.66 2.75-.92s1.81-.65 2.39-.87 1.51-.58 2.06-.81c.55-.22 1.37-.56 1.83-.76s1.47-.65 2.25-1.01a108 108 0 0 0 5.67-2.85c.71-.39 1.73-.96 2.25-1.26.51-.31 1.43-.85 2.02-1.22a111 111 0 0 0 5.39-3.56c.51-.36 1.39-1.01 1.97-1.45.58-.43 1.69-1.28 2.45-1.9.76-.61 1.86-1.52 2.44-2.01.58-.5 1.4-1.21 1.81-1.58s1.17-1.07 1.69-1.56 1.55-1.49 2.28-2.23c.73-.73 1.81-1.84 2.39-2.47a102.575 102.575 0 0 0 3.73-4.25c.43-.52 1.1-1.35 1.5-1.86.4-.5 1.06-1.36 1.47-1.91s1.12-1.53 1.58-2.17a108 108 0 0 0 3.37-5.11c.41-.67 1.1-1.84 1.53-2.59.43-.74 1.03-1.83 1.35-2.41.31-.58.92-1.78 1.36-2.67s1.05-2.17 1.36-2.86.74-1.66.96-2.17c.21-.5.55-1.34.76-1.86s.58-1.48.83-2.14a108.178 108.178 0 0 0 1.81-5.36c.22-.73.55-1.83.71-2.44a89.252 89.252 0 0 0 1.2-4.81c.15-.69.38-1.76.5-2.39.12-.62.31-1.65.42-2.27.11-.63.28-1.74.39-2.48.1-.73.25-1.87.33-2.52.08-.66.19-1.74.25-2.39.06-.66.15-1.76.2-2.45.04-.69.11-1.85.15-2.58.03-.73.06-2.6.06-4.14s-.03-3.41-.06-4.14c-.04-.73-.11-1.89-.15-2.58-.05-.69-.14-1.79-.2-2.45-.06-.65-.17-1.73-.25-2.39-.08-.65-.23-1.79-.33-2.52-.11-.74-.28-1.85-.39-2.48-.11-.62-.3-1.65-.42-2.27-.12-.63-.33-1.65-.47-2.28s-.4-1.74-.59-2.47a92 92 0 0 0-1.35-4.89c-.23-.74-.62-1.96-.88-2.72-.26-.77-.67-1.93-.91-2.59-.25-.65-.68-1.78-.97-2.5s-.75-1.8-1.02-2.41c-.26-.62-.71-1.6-.98-2.2-.28-.59-.89-1.83-1.35-2.75s-1.13-2.18-1.47-2.8c-.35-.63-.93-1.66-1.3-2.28-.36-.63-.99-1.67-1.39-2.31s-1.12-1.75-1.59-2.47a97 97 0 0 0-1.67-2.42c-.43-.61-1.22-1.67-1.74-2.36a84 84 0 0 0-1.5-1.94c-.31-.38-.91-1.12-1.34-1.64-.44-.52-1.1-1.3-1.47-1.72-.37-.43-1.21-1.36-1.86-2.06-.64-.7-1.85-1.95-2.67-2.78-.83-.82-2-1.96-2.61-2.52a104 104 0 0 0-3.75-3.32c-.47-.39-1.24-1.02-1.7-1.39-.45-.36-1.24-.98-1.75-1.37-.5-.39-1.44-1.08-2.08-1.55-.64-.46-1.84-1.3-2.67-1.85-.82-.56-2.03-1.35-2.69-1.76a112 112 0 0 0-4.28-2.53c-.44-.24-1.22-.66-1.72-.93s-1.58-.82-2.39-1.22-2.06-.99-2.78-1.32c-.71-.32-1.73-.77-2.25-.99s-1.3-.54-1.75-.72c-.44-.18-1.44-.56-2.22-.85s-2.17-.78-3.08-1.09c-.92-.3-2.23-.72-2.92-.92s-1.89-.54-2.67-.75c-.77-.21-2.06-.53-2.86-.71-.79-.19-1.94-.44-2.55-.57-.61-.12-1.65-.32-2.31-.44-.65-.12-1.77-.31-2.47-.41-.7-.11-1.88-.27-2.61-.37-.73-.09-1.83-.21-2.45-.27-.61-.07-1.59-.15-2.19-.2-.6-.04-1.53-.11-2.08-.14s-1.78-.08-2.73-.11c-.94-.03-2.37-.05-3.16-.05-.8.01-1.71.02-2.03.03" class="shp1"/><path d="M98.44 8.43c-.38 0-1.33.04-2.11.07s-1.91.1-2.52.14c-.62.05-1.54.12-2.06.17s-1.48.15-2.14.22c-.66.08-1.64.2-2.19.28s-1.6.24-2.34.36c-.73.13-2.01.36-2.83.52-.83.17-2 .42-2.61.56s-1.6.38-2.2.53c-.59.16-1.69.46-2.44.67-.75.22-1.95.58-2.67.81-.71.23-1.76.58-2.33.78s-1.49.53-2.06.75c-.56.21-1.49.57-2.05.8-.57.23-1.6.67-2.31.98-.7.3-1.71.76-2.25 1.01-.53.25-1.43.69-2 .97-.56.29-1.42.73-1.91.99s-1.23.66-1.64.89-1.2.68-1.75 1-1.46.87-2.03 1.23c-.57.35-1.57.99-2.22 1.43-.66.43-1.68 1.13-2.28 1.55s-1.53 1.11-2.08 1.52-1.35 1.03-1.78 1.36c-.43.34-1.14.91-1.58 1.28-.45.37-1.17.98-1.62 1.36-.44.38-1.17 1.03-1.63 1.45-.46.41-1.38 1.28-2.06 1.92-.67.65-1.75 1.72-2.39 2.39s-1.5 1.6-1.92 2.05c-.41.46-1 1.12-1.31 1.47-.3.36-.92 1.08-1.36 1.62-.44.53-1.21 1.48-1.7 2.11-.48.62-1.26 1.65-1.72 2.27-.46.63-1.16 1.62-1.56 2.2s-1.05 1.55-1.44 2.17c-.4.61-1.01 1.58-1.36 2.16s-.89 1.5-1.19 2.03c-.31.53-.82 1.45-1.13 2.03a101.22 101.22 0 0 0-3.04 6.19c-.37.84-.86 1.98-1.09 2.53s-.64 1.61-.93 2.36c-.28.75-.76 2.1-1.06 3a85 85 0 0 0-2.07 7.03c-.17.67-.44 1.85-.61 2.61s-.4 1.85-.5 2.42c-.11.56-.27 1.47-.36 2.02-.1.55-.23 1.44-.31 1.98-.08.53-.15 1.06-.17 1.18l-.03.21c2.2 0 2.83-.02 2.83-.03 0-.02.07-.45.14-.96.08-.51.23-1.46.34-2.1s.32-1.78.48-2.53c.15-.74.41-1.94.58-2.66.16-.72.44-1.83.61-2.47.17-.65.42-1.56.56-2.03.13-.48.37-1.26.52-1.75.16-.49.29-.89.29-.9.01 0 3.85 1.25 8.54 2.79s8.53 2.81 8.54 2.84c.01.02-.08.37-.21.77-.13.39-.4 1.32-.61 2.05-.2.74-.5 1.87-.66 2.53-.15.66-.34 1.5-.42 1.86-.08.37-.21 1.07-.31 1.56-.09.49-.16.92-.16.96 0 .05.32.07 1.45.07h1.46c.47-2.31.74-3.56.92-4.28s.46-1.81.64-2.42c.17-.61.57-1.89.88-2.83.32-.95.75-2.16.95-2.7.21-.53.53-1.34.72-1.8.2-.46.52-1.22.73-1.7.21-.47.71-1.52 1.11-2.33a65 65 0 0 1 2.07-3.89c.29-.5.85-1.43 1.24-2.05l.71-1.14v-7.73c-9.79-7.03-12.8-9.2-13.01-9.34l-.37-.27c1.51-1.89 2.32-2.88 2.77-3.41A73.588 73.588 0 0 1 35.64 39c.5-.53 1.5-1.56 2.23-2.28s1.67-1.63 2.1-2.02c.43-.4 1.17-1.06 1.64-1.48.47-.41 1.31-1.13 1.86-1.58a81 81 0 0 1 3.77-2.96c.54-.41 1-.74 1.02-.73.03 0 1.27 1.68 2.77 3.75l2.72 3.75c3.01-.01 3.35-.02 3.32-.07-.02-.04-1.48-2.07-3.24-4.52a671 671 0 0 1-3.24-4.51c-.02-.05.28-.28.92-.7a60 60 0 0 1 1.77-1.13c.44-.28 1.05-.65 1.36-.83.3-.19 1.02-.6 1.58-.92.57-.33 1.5-.84 2.09-1.16.58-.31 1.75-.91 2.61-1.33.85-.42 2.05-.99 2.66-1.27.61-.27 1.54-.68 2.06-.9s1.42-.59 2-.81c.58-.23 1.52-.59 2.08-.8.57-.21 1.56-.56 2.21-.79.76-.26 1.2-.38 1.23-.35s1.26 3.84 2.75 8.47c1.48 4.63 2.71 8.46 2.73 8.5.02.07-.18.16-.98.44-.56.2-1.48.53-2.05.74-.56.21-1.41.55-1.89.74-.47.19-1.25.52-1.72.72-.47.21-.88.4-.91.42-.04.03 1.59.05 4.04.05h4.09c1.83-.55 2.79-.83 3.31-.97s1.34-.35 1.83-.47 1.43-.33 2.08-.46c.66-.14 1.81-.36 2.56-.48s1.82-.29 2.39-.36c.56-.08 1.41-.18 1.89-.22.47-.05 1.32-.13 1.89-.17.56-.05 1.72-.11 2.58-.15.94-.04 2.34-.05 3.56-.03 1.1.02 2.41.06 2.91.09.51.03 1.24.08 1.64.12.4.03 1.2.1 1.78.16.58.07 1.58.19 2.22.28s1.61.24 2.14.33c.53.1 1.41.26 1.94.37.54.11 1.64.36 2.45.55.81.2 1.95.5 2.53.66.58.17 1.38.4 1.77.53l.73.22c6.39 0 8.24-.01 8.23-.04-.02-.02-.41-.21-.88-.43-.47-.21-1.58-.67-2.46-1.03-1.1-.44-1.61-.67-1.6-.73.01-.04 1.24-3.88 2.74-8.54 1.49-4.66 2.72-8.48 2.73-8.49s.46.15 1.01.35 1.65.62 2.45.94c.79.32 1.92.79 2.5 1.05.58.25 1.44.65 1.92.87.47.22 1.26.6 1.75.85.48.24 1.31.67 1.83.94.52.28 1.46.79 2.08 1.14.63.36 1.6.92 2.17 1.26a82.15 82.15 0 0 1 3.58 2.27c.55.37 1.38.93 1.85 1.25.5.36.82.62.79.65-.02.03-1.26 1.74-2.76 3.81-1.49 2.06-2.74 3.78-2.76 3.82-.03.05.3.06 1.56.06h1.6c3.44-4.73 4.45-6.11 4.46-6.11s.28.21.61.46 1.05.81 1.6 1.26c.55.44 1.32 1.08 1.72 1.41.4.34.93.81 1.19 1.04s.78.69 1.14 1.02c.37.34 1.14 1.06 1.72 1.61.58.56 1.57 1.55 2.19 2.2a115 115 0 0 1 3.73 4.11c.4.48 1.13 1.35 1.61 1.95.48.59 1.11 1.39 1.41 1.78l.53.69c-3.85 2.81-6.72 4.89-8.85 6.45-2.14 1.55-4.27 3.1-4.74 3.43l-.85.62v5.58c.81 1.27 1.25 2.01 1.52 2.45.26.44.75 1.3 1.09 1.92.34.61.93 1.73 1.3 2.5.38.76.91 1.87 1.18 2.47.26.59.71 1.66 1 2.36.28.7.67 1.73.87 2.28s.51 1.46.7 2.02c.19.57.5 1.61.7 2.31s.49 1.78.64 2.39.36 1.51.47 2l.31 1.53c.06.35.13.69.14.76l.03.13h3.16c-.03-.2-.11-.62-.19-1.06a75 75 0 0 0-.81-3.75c-.12-.49-.32-1.26-.44-1.72-.13-.46-.33-1.17-.45-1.59-.12-.41-.22-.75-.21-.75s3.86-1.26 8.55-2.79 8.54-2.77 8.56-2.75c.03.03.23.71.47 1.52a119 119 0 0 1 1.41 5.54c.12.56.34 1.57.47 2.25.14.68.37 2.01.53 2.96.16.94.29 1.81.31 1.93l.03.21h2.58c-.07-.59-.19-1.4-.31-2.2-.13-.79-.33-1.98-.45-2.64-.12-.65-.34-1.78-.5-2.5-.15-.72-.43-1.95-.63-2.75-.2-.79-.5-1.94-.67-2.55s-.47-1.64-.66-2.28c-.2-.64-.57-1.79-.83-2.56-.26-.76-.67-1.94-.92-2.61s-.7-1.81-.99-2.53c-.29-.71-.79-1.88-1.1-2.58s-.84-1.85-1.18-2.55c-.33-.71-.92-1.87-1.29-2.59-.38-.72-.97-1.82-1.32-2.44-.35-.63-.88-1.54-1.17-2.03s-.78-1.29-1.08-1.78c-.31-.49-.86-1.35-1.23-1.91-.37-.57-1.01-1.51-1.42-2.09s-1.1-1.54-1.55-2.14c-.44-.59-1.13-1.49-1.53-2-.39-.5-1.08-1.35-1.53-1.89-.44-.53-1.14-1.36-1.56-1.83-.41-.47-1.1-1.23-1.52-1.69s-1.42-1.5-2.22-2.3c-.8-.81-1.87-1.86-2.37-2.34-.51-.47-1.33-1.23-1.83-1.68-.51-.45-1.29-1.13-1.75-1.52s-1.32-1.1-1.92-1.58c-.59-.47-1.58-1.24-2.19-1.7s-1.48-1.09-1.92-1.41-1.44-1.01-2.22-1.53-1.96-1.28-2.61-1.69c-.66-.41-1.72-1.05-2.36-1.42-.65-.37-1.58-.9-2.09-1.18-.5-.27-1.48-.79-2.16-1.14-.69-.36-1.74-.87-2.34-1.16a95.983 95.983 0 0 0-6.55-2.81c-.6-.23-1.64-.61-2.31-.85s-1.78-.61-2.47-.83-1.9-.59-2.7-.82c-.79-.22-2.08-.57-2.86-.77-.78-.19-1.59-.39-1.8-.44-.22-.05-.9-.2-1.53-.33-.63-.14-1.75-.36-2.5-.5-.75-.13-1.85-.32-2.44-.41-.6-.1-1.78-.26-2.62-.37-.84-.1-2.21-.25-3.05-.33s-2.14-.18-2.89-.23c-.75-.04-2.22-.11-3.28-.14-1.05-.02-2.29-.04-2.75-.04-.46.01-1.14.02-1.53.03" class="shp2"/><path d="M96.81 11.06c-.62.03-1.7.08-2.42.13s-1.83.14-2.47.2c-.65.06-1.5.15-1.89.2a92.744 92.744 0 0 0-4.45.63c-.91.15-2.28.4-3.02.55-.75.16-1.92.41-2.59.56-.67.16-1.8.44-2.5.62-.7.19-1.38.37-1.5.4s-.24.07-.26.09c-.03.02 1.18 3.87 2.68 8.56 1.51 4.69 2.74 8.54 2.74 8.55.01.01.68-.15 1.51-.35.82-.2 1.86-.44 2.3-.53.45-.09 1.12-.23 1.5-.31.39-.07 1.21-.22 1.84-.33.62-.1 1.59-.25 2.14-.33s1.32-.18 1.72-.22c.4-.05 1.12-.13 1.61-.17.49-.05 1.43-.13 2.08-.17.66-.05 1.97-.1 2.91-.13l1.7-.04V11c-1.95.01-3.02.04-3.63.06m6.42 9.03-.01 8.99c1.36.07 2.25.13 2.86.17.61.05 1.68.15 2.36.23.69.07 1.77.21 2.39.3.63.1 1.62.26 2.2.36.58.11 1.48.28 2 .39s1.5.34 2.19.5c.69.17 1.9.49 2.7.72.79.23 1.63.48 1.86.55.23.08.42.14.42.13s1.24-3.86 2.75-8.55c1.51-4.7 2.73-8.56 2.72-8.57-.02-.02-.49-.17-1.06-.34-.56-.17-1.6-.47-2.3-.66-.71-.2-1.68-.46-2.17-.58s-1.44-.35-2.11-.5-1.8-.39-2.5-.53c-.71-.14-1.8-.34-2.45-.44-.64-.11-1.6-.26-2.14-.34-.53-.07-1.51-.2-2.16-.28-.66-.07-1.61-.17-2.11-.22-.51-.05-1.47-.12-2.14-.17-.67-.04-1.69-.09-2.26-.12l-1.03-.03z" class="shp1"/><path d="M98.61 37.65c-.2.01-.84.06-1.42.1-.58.05-1.5.15-2.05.22-.55.08-1.34.2-1.75.27-.41.08-1.05.21-1.42.28-.36.08-1.15.28-1.75.43-.59.15-1.71.49-2.47.74-.76.26-1.7.6-2.08.75-.39.16-.92.38-1.2.49-.27.11-1.16.54-1.97.94-.81.41-1.9.99-2.42 1.3s-1.24.76-1.61 1l-.66.44H52.5c0 53.16.02 64.1.06 64.7.03.48.09 1.27.14 1.75.04.47.14 1.29.22 1.83.08.53.23 1.43.34 2 .1.56.32 1.53.47 2.14.16.61.42 1.56.59 2.11s.46 1.44.66 1.97c.2.54.52 1.36.73 1.83.2.48.55 1.27.79 1.75a38 38 0 0 0 1.71 3.2c.23.38.72 1.16 1.1 1.72.37.57.94 1.38 1.26 1.81.31.42.8 1.05 1.07 1.39.27.33.8.97 1.19 1.41.38.45 1.34 1.46 2.14 2.25.79.8 1.9 1.84 2.45 2.31s1.41 1.18 1.92 1.57c.5.39 1.3.95 1.77 1.25s1.27.8 1.78 1.1c.5.31 1.49.88 2.19 1.28.71.4 1.87 1.04 2.59 1.43.71.39 2.29 1.2 3.5 1.8 1.2.61 2.77 1.37 3.47 1.7.7.34 1.94.91 2.75 1.27.81.37 1.96.88 2.55 1.14.6.26 1.8.77 2.67 1.14.87.36 2.26.93 3.08 1.26.83.33 2.04.81 2.7 1.06s1.36.52 1.57.59l.37.13c1.49-.55 2.44-.91 3.09-1.16a247 247 0 0 0 5.64-2.31c.84-.36 2.19-.95 3-1.31s1.96-.88 2.55-1.15c.6-.28 1.77-.83 2.61-1.23.84-.41 2.26-1.11 3.14-1.56.89-.45 2.21-1.15 2.95-1.54.73-.4 1.87-1.03 2.52-1.41.66-.37 1.7-.98 2.31-1.36.61-.37 1.4-.86 1.75-1.09s.94-.65 1.3-.94c.37-.28.96-.75 1.31-1.04.35-.3.88-.75 1.17-1.01s.91-.83 1.38-1.28c.47-.44 1.26-1.24 1.76-1.78.5-.53 1.22-1.34 1.61-1.8s1.07-1.32 1.52-1.92c.45-.59 1.08-1.48 1.4-1.97.33-.49.82-1.26 1.09-1.72s.71-1.22.96-1.7c.25-.47.6-1.15.76-1.5.17-.35.44-.95.61-1.33s.45-1.05.61-1.47c.17-.43.44-1.18.61-1.67s.4-1.23.52-1.64.32-1.15.44-1.64.3-1.26.39-1.72.23-1.23.31-1.72c.07-.49.17-1.22.22-1.61.05-.4.13-1.16.18-1.7.09-.89.09-3.56.11-33.23l.02-32.27h-25c-.58-.42-.94-.66-1.17-.81a50 50 0 0 0-3.67-2.04c-.56-.29-1.32-.65-1.69-.81s-.74-.33-.83-.37c-.1-.04-.5-.2-.89-.36-.4-.16-1.16-.43-1.7-.62a41 41 0 0 0-3.5-1.01 47 47 0 0 0-3.64-.7 41.837 41.837 0 0 0-3.44-.33c-.55-.03-1.6-.05-2.33-.05-.74.01-1.5.02-1.7.03" class="shp3"/><path d="M98.28 39.53c-.2.04-.55.15-.78.23s-.56.25-.74.36c-.17.12-.8.66-1.38 1.21l-1.07 1h-.75v7.39l.71 1.64-3.44.03v.78h.78l-.03 3.97-.52.03v.72h.97l.62 1.36-2.4.06c-.6.29-.81.45-.99.64-.15.18-.31.42-.36.58-.08.24-.09.53-.09 2.14 0 1.84 0 1.86.13 2.11.07.14.22.34.33.46s.33.28.48.36l.28.15 4.25.03.03 22.08 6.02 2.7 6.01-2.81-.01-21.97 3.75-.03c.43-.23.65-.39.76-.51.12-.12.27-.34.34-.49.12-.27.13-.34.14-1.97.02-1.44.01-1.75-.07-2.06-.05-.2-.17-.47-.27-.6-.09-.14-.27-.32-.4-.4-.12-.09-.37-.2-.55-.25-.22-.05-.59-.08-1.07-.08-.41 0-.74-.01-.74-.03 0-.01.16-.32.36-.68l.36-.65.67-.03v-.72h-.67v-4l.64-.03.03-.75h-4.44l1-1.75-.03-7.39-.89-.05c-.55-.61-.96-1.03-1.28-1.34a5.6 5.6 0 0 0-1-.81c-.24-.14-.6-.32-.8-.4s-.56-.18-.79-.23c-.32-.06-.74-.08-1.59-.08-.76 0-1.27.03-1.51.08M48.96 75.38c.01 32.41.02 34.71.11 35.65a56.628 56.628 0 0 0 .46 3.66 42 42 0 0 0 .81 3.89c.15.61.36 1.43.47 1.81s.37 1.23.59 1.89c.22.65.56 1.63.77 2.16a41 41 0 0 0 1.64 3.75c.28.58.71 1.41.94 1.84.24.43.69 1.21 1.01 1.75.33.53.9 1.43 1.28 2 .38.56.95 1.36 1.25 1.78.31.41.76 1 1.01 1.3.24.31.71.87 1.03 1.25s.82.96 1.11 1.28.83.91 1.21 1.3c.37.4 1.12 1.14 1.67 1.65.54.51 1.24 1.15 1.54 1.41.31.27.87.74 1.25 1.05.38.32 1.1.87 1.58 1.24.49.36 1.18.86 1.53 1.1.35.25.95.65 1.34.89.38.25 1.01.65 1.41.89.4.23 1.21.69 1.81 1.02.59.32 1.67.86 2.39 1.2.71.34 1.84.86 2.5 1.15.65.29 1.8.79 2.55 1.12.75.32 2 .85 2.78 1.17.78.33 2.33.97 3.44 1.43 1.12.46 2.99 1.22 4.17 1.7 1.18.47 2.83 1.15 3.67 1.5s2.11.87 2.83 1.16l1.31.52c2.49-1.03 3.59-1.48 4.05-1.66s2.27-.92 4.03-1.64c1.76-.71 4.17-1.71 5.36-2.2 1.19-.5 3.21-1.35 4.47-1.89 1.27-.54 2.91-1.25 3.64-1.58.74-.33 1.99-.92 2.78-1.31s1.88-.97 2.42-1.28c.53-.31 1.38-.83 1.89-1.16.5-.32 1.34-.89 1.86-1.26s1.29-.94 1.72-1.27 1.06-.84 1.42-1.13c.35-.29.92-.79 1.27-1.1s1.04-.93 1.52-1.39c.48-.45 1.24-1.21 1.69-1.69.44-.47 1.06-1.15 1.37-1.5s.79-.91 1.07-1.25c.28-.33.76-.95 1.08-1.36s.87-1.16 1.23-1.66c.35-.51.9-1.33 1.22-1.84.33-.5.82-1.33 1.11-1.83.29-.51.73-1.31.98-1.78s.67-1.35.94-1.94a43.159 43.159 0 0 0 1.82-4.59 44 44 0 0 0 1.1-3.75c.14-.53.34-1.39.45-1.91s.22-1.01.24-1.09c.03-.12.02-.13-.07-.09-.1.04-.1.03-.06-.19.02-.14.1-.64.18-1.13.07-.49.18-1.32.24-1.84s.15-1.4.2-1.97c.04-.56.11-1.51.14-2.11.03-.64.06-5.22.06-11.28 0-5.6.02-10.13.05-10.05.02.07.03-5.71.02-12.86s-.03-14.24-.05-15.74c-.02-1.82-.01-2.73.03-2.71s.05-.76.05-2.28c0-1.48-.02-2.31-.05-2.33-.04-.02-.06-1.83-.06-5.28v-5.25c-29.68 0-35.66.02-35.66.06 0 .03.2.15.46.26.25.11.97.46 1.59.77.63.32 1.64.86 2.25 1.2.61.35 1.3.75 1.53.9s.59.39.79.54l.38.27h25c-.04 61.94-.04 64.61-.13 65.5-.05.54-.13 1.3-.18 1.7-.05.39-.15 1.12-.22 1.61-.08.49-.22 1.26-.31 1.72a46 46 0 0 1-.83 3.36c-.12.41-.35 1.15-.52 1.64s-.44 1.24-.61 1.67c-.16.42-.44 1.09-.61 1.47s-.44.98-.61 1.33c-.16.35-.51 1.03-.76 1.5-.25.48-.69 1.24-.96 1.7s-.76 1.23-1.09 1.72c-.32.49-.95 1.38-1.4 1.97-.45.6-1.13 1.46-1.52 1.92s-1.11 1.27-1.61 1.8c-.5.54-1.29 1.34-1.76 1.78-.47.45-1.09 1.02-1.38 1.28s-.82.71-1.17 1.01c-.35.29-.94.76-1.31 1.04-.36.29-.95.71-1.3.94s-1.14.72-1.75 1.09c-.61.38-1.65.99-2.31 1.36-.65.38-1.79 1.01-2.52 1.41-.74.39-2.06 1.09-2.95 1.54-.88.45-2.3 1.15-3.14 1.56-.84.4-2.01.95-2.61 1.23-.59.27-1.74.79-2.55 1.15s-2.16.95-3 1.31-2.19.92-3 1.25-2 .81-2.64 1.06c-.65.25-1.6.61-2.13.8l-.96.36c-.58-.2-1.28-.47-1.94-.72s-1.87-.73-2.7-1.06c-.82-.33-2.21-.9-3.08-1.26-.87-.37-2.07-.88-2.67-1.14-.59-.26-1.74-.77-2.55-1.14-.81-.36-2.05-.93-2.75-1.27-.7-.33-2.27-1.09-3.47-1.7-1.21-.6-2.79-1.41-3.5-1.8-.72-.39-1.88-1.03-2.59-1.43-.7-.4-1.69-.97-2.19-1.28-.51-.3-1.31-.8-1.78-1.1s-1.27-.86-1.77-1.25c-.51-.39-1.37-1.1-1.92-1.57a50 50 0 0 1-2.45-2.31c-.8-.79-1.76-1.8-2.14-2.25-.39-.44-.92-1.08-1.19-1.41-.27-.34-.76-.97-1.07-1.39-.32-.43-.89-1.24-1.26-1.81-.38-.56-.87-1.34-1.1-1.72s-.61-1.06-.85-1.5-.63-1.21-.86-1.7c-.24-.48-.59-1.27-.79-1.75-.21-.47-.53-1.29-.73-1.83-.2-.53-.49-1.42-.66-1.97s-.43-1.5-.59-2.11c-.15-.61-.37-1.58-.47-2.14-.11-.57-.26-1.47-.34-2-.08-.54-.18-1.36-.22-1.83-.05-.48-.11-1.27-.14-1.75-.04-.6-.06-11.54-.06-32.8v-31.9h25.31c1.03-.68 1.75-1.13 2.27-1.44s1.56-.87 2.31-1.25c.75-.37 1.57-.76 1.82-.87.25-.1.47-.22.48-.26.03-.05-3.57-.07-17.86-.07H48.94z" class="shp2"/><path d="M94.5 45.11c0 1.3.02 2 .06 2 .03 0 .05.46.05 1.28v1.28l1.42-.01c.3-.53.57-.88.8-1.1.23-.23.57-.51.76-.62.33-.18.34-.2.31-.36-.02-.09-.04-.4-.03-.69 0-.41.03-.6.13-.86.08-.19.23-.45.34-.6.12-.14.33-.34.48-.43.14-.09.39-.21.54-.26.18-.07.45-.1.75-.1.41 0 .52.02.83.17.2.1.48.28.62.42.14.13.32.35.41.49s.21.39.26.56c.06.17.12.48.12.69.01.22-.01.48-.03.59-.04.18-.03.2.14.28.1.05.34.21.54.36.19.15.5.46.69.69.18.23.37.5.42.6l.08.18h1.2v-6.56H94.5z" class="shp3"/><path d="M28.17 47.9c-.13.19-.56.8-.94 1.35s-1.04 1.54-1.47 2.19c-.43.66-.98 1.52-1.22 1.92-.25.4-.63 1.04-.86 1.42s-.58.98-.78 1.33-.56 1-.8 1.45c-.25.44-.76 1.4-1.13 2.13-.38.74-.9 1.8-1.17 2.37-.26.56-.72 1.56-1.01 2.22-.28.65-.75 1.78-1.04 2.5-.28.72-.68 1.77-.89 2.33-.2.57-.36 1.03-.35 1.04s3.84 1.26 8.52 2.79c4.67 1.53 8.52 2.78 8.55 2.78s.16-.27.27-.6c.12-.32.39-1.02.59-1.54.21-.52.5-1.22.64-1.55.15-.34.47-1.05.71-1.59.25-.53.7-1.48 1.02-2.11.32-.62.83-1.61 1.15-2.19s.92-1.62 1.33-2.31c.41-.68 1.06-1.73 1.45-2.33.38-.6 1.05-1.58 1.47-2.19.43-.62.76-1.13.74-1.15s-3.28-2.41-7.24-5.32c-3.97-2.91-7.23-5.28-7.25-5.28s-.15.15-.29.34m141.47 3.66c-1.99 1.45-5.25 3.81-7.26 5.27l-3.65 2.64c.88 1.38 1.39 2.19 1.69 2.7.31.5.81 1.35 1.12 1.89.3.53.72 1.27.92 1.63.19.37.6 1.13.89 1.7.29.56.75 1.5 1.03 2.08a105 105 0 0 1 1.82 4.14c.25.63.61 1.55.8 2.06.19.5.35.92.35.93.01.01 1.54-.49 3.4-1.09 1.86-.61 5.26-1.72 7.56-2.47 2.29-.75 4.61-1.51 5.15-1.69s.99-.35.99-.38-.13-.4-.28-.83a73 73 0 0 0-.52-1.45c-.14-.36-.42-1.09-.62-1.61-.21-.52-.6-1.47-.88-2.11-.27-.64-.71-1.63-.97-2.19a101 101 0 0 0-2.57-5.14c-.3-.55-.75-1.36-1-1.81-.25-.44-.7-1.2-.99-1.69s-.76-1.26-1.05-1.72-.9-1.43-1.37-2.16c-.46-.72-.87-1.32-.9-1.32s-1.68 1.18-3.66 2.62" class="shp1"/><path d="m92.35 54.26.01 1.99h1.28l.03-3.97h-1.34zm2.16 0 .02 1.99 1.47.03v-4h-1.5zm2.27.02v2h3v-4h-3zm3.89 0v2h3v-4h-3zm3.84-.02.02 1.99h1.28l.02-3.97h-1.33zm2.06 0 .01 1.99 1.48.03v-4h-1.51zM90.5 61.58v1.86h3.56v-3.72H90.5zm4.67 0v1.86h10.22v-3.72H95.17zm11.16 0v1.86h3.28v-3.72h-3.28zm-10.75 3.67.39.36h8.67l.67-.72H95.19zm.45 1.9c-.03.02-.04 1.28-.04 2.8l.01 2.77h8.61v-5.61c-6.62 0-8.56.02-8.58.04" class="shp3"/><path d="M157.2 89.47c-.01 14.57-.03 20.03-.08 20.59-.04.41-.1 1.17-.15 1.69s-.14 1.33-.2 1.81c-.06.47-.18 1.32-.27 1.88a50.85 50.85 0 0 1-.59 3.09c-.08.33-.24 1.01-.36 1.5s-.36 1.35-.52 1.91c-.17.57-.48 1.54-.69 2.17s-.57 1.62-.8 2.2-.61 1.49-.84 2.02c-.24.54-.7 1.5-1.02 2.14s-.74 1.47-.94 1.84c-.2.36-.61 1.06-.9 1.55s-.77 1.28-1.08 1.75c-.3.47-.82 1.24-1.14 1.7-.32.45-.81 1.13-1.08 1.5-.28.36-.82 1.05-1.2 1.52-.38.48-.84 1.04-1.03 1.25-.18.22-.66.75-1.06 1.2-.4.44-1.15 1.24-1.67 1.77s-1.37 1.36-1.89 1.84c-.51.48-1.34 1.22-1.83 1.64s-1.24 1.04-1.67 1.39c-.42.34-1.22.95-1.77 1.36s-1.6 1.15-2.34 1.64c-.73.49-1.81 1.18-2.39 1.52-.58.35-1.53.88-2.11 1.18s-1.64.81-2.36 1.13c-.72.33-2.29 1.02-3.5 1.54-1.2.52-3.39 1.44-4.86 2.05s-4.25 1.76-6.19 2.55-3.66 1.48-3.81 1.54-.28.14-.29.16c-.01.03.18.03.42.01.23-.03.94-.11 1.57-.19.62-.08 1.66-.23 2.3-.33.64-.11 1.67-.3 2.28-.42s1.76-.38 2.55-.57c.8-.2 1.92-.5 2.5-.66.58-.17 1.57-.48 2.2-.68.63-.21 1.56-.53 2.08-.72s1.38-.53 1.92-.74c.53-.21 1.41-.58 1.94-.82.54-.23 1.58-.72 2.31-1.08.73-.35 1.89-.95 2.57-1.32.68-.38 1.68-.95 2.22-1.27.54-.33 1.37-.85 1.85-1.15.47-.31 1.22-.81 1.66-1.11.45-.31 1.28-.91 1.87-1.34.58-.44 1.45-1.11 1.94-1.5.49-.4 1.23-1.01 1.64-1.36.41-.36 1.03-.91 1.39-1.23.35-.32 1.12-1.05 1.71-1.64.59-.58 1.43-1.43 1.86-1.89.44-.45 1.16-1.26 1.62-1.77.45-.52 1.16-1.37 1.58-1.89s.96-1.21 1.21-1.53c.24-.32.76-1.02 1.14-1.56a66 66 0 0 0 2.27-3.39c.31-.5.89-1.47 1.29-2.16.39-.69 1.12-2.06 1.62-3.06.49-.99 1.07-2.19 1.28-2.66.21-.48.59-1.39.85-2.03s.67-1.72.91-2.39.61-1.77.82-2.45c.21-.67.52-1.73.69-2.36.17-.62.4-1.52.51-2 .11-.47.21-.9.22-.95.03-.1-.1-.1-2.03-.1h-2.05V88.06c4.3 0 4.44-.01 4.44-.1 0-.06-.06-.41-.14-.79-.07-.39-.25-1.2-.39-1.81s-.41-1.65-.59-2.3c-.18-.66-.48-1.69-.66-2.28a75 75 0 0 0-.76-2.25c-.23-.64-.61-1.66-.85-2.25-.24-.6-.55-1.37-.71-1.72-.15-.36-.4-.93-.56-1.28s-.62-1.29-1.02-2.09c-.39-.79-.74-1.47-.77-1.5s-.06 7.98-.07 19.78M42.61 71.37c-.41.82-.92 1.88-1.13 2.35-.21.48-.54 1.24-.73 1.7s-.54 1.34-.78 1.97c-.23.63-.6 1.66-.81 2.3-.22.65-.55 1.73-.75 2.42s-.47 1.7-.61 2.25-.37 1.58-.52 2.29c-.16.71-.28 1.32-.28 1.35 0 .04.79.06 2.25.06h2.25v25.72h-4.11c.05.32.2.98.37 1.66.17.69.46 1.8.66 2.48.19.67.52 1.72.72 2.33s.56 1.64.8 2.28.6 1.55.8 2.03c.2.47.5 1.18.68 1.58.17.4.62 1.35.99 2.11s.94 1.86 1.25 2.44c.32.58.92 1.63 1.34 2.34.42.7 1.07 1.74 1.45 2.3.37.57.91 1.37 1.21 1.78.29.41.79 1.1 1.11 1.53s.88 1.14 1.23 1.58a63.482 63.482 0 0 0 6.56 7.05c.44.41 1.23 1.12 1.76 1.57.53.46 1.38 1.16 1.89 1.57s1.32 1.03 1.79 1.38 1.25.91 1.72 1.23c.48.33 1.28.87 1.78 1.19s1.34.84 1.86 1.15c.52.32 1.43.84 2.03 1.17a80 80 0 0 0 5.08 2.5c.61.26 1.49.63 1.95.82.46.18 1.25.49 1.77.68s1.45.51 2.06.71 1.59.5 2.17.67 1.6.44 2.27.61c.68.17 1.76.42 2.42.56.66.13 1.8.35 2.53.47s1.94.3 2.68.39 1.43.17 1.54.17.19-.02.18-.04c-.02-.02-.51-.24-1.1-.48s-2.35-.95-3.91-1.59-3.89-1.59-5.17-2.13c-1.28-.53-3.21-1.34-4.28-1.8s-2.5-1.08-3.19-1.39c-.69-.3-1.69-.76-2.22-1.01-.54-.25-1.34-.66-1.78-.91-.44-.24-1.16-.66-1.58-.91-.43-.26-1.17-.73-1.64-1.04-.48-.31-1.15-.76-1.5-1s-1.22-.87-1.92-1.4c-.7-.52-1.74-1.34-2.31-1.81a92 92 0 0 1-1.91-1.66c-.49-.44-1.32-1.23-1.86-1.75a55.315 55.315 0 0 1-3.37-3.61c-.4-.45-.92-1.08-1.17-1.39-.24-.3-.75-.95-1.11-1.44-.37-.49-.94-1.28-1.27-1.75-.32-.47-.78-1.16-1.02-1.53-.23-.36-.62-1-.87-1.41-.25-.42-.67-1.15-.94-1.64s-.81-1.54-1.2-2.34c-.39-.79-.92-1.95-1.18-2.58-.27-.63-.65-1.61-.86-2.19-.22-.58-.5-1.41-.64-1.84s-.34-1.09-.46-1.47a67.145 67.145 0 0 1-.94-3.72c-.1-.51-.27-1.34-.36-1.86s-.21-1.29-.27-1.7c-.07-.41-.17-1.21-.23-1.78-.06-.56-.16-1.51-.21-2.11-.08-.99-.09-2.8-.11-20.97-.01-10.94-.04-19.91-.06-19.94s-.38.62-.79 1.45" class="shp2"/><path d="M96.03 74.15c-.03.02-.04.17-.04.33l.01.3h8.61v-.67c-6.62 0-8.56.02-8.58.04M96 79.42v2.8h8.61v-5.61H96z" class="shp3"/><path d="M69.14 78.4c-.14.16-.42.53-.62.82-.19.29-.5.84-.68 1.22-.18.39-.46 1.07-.61 1.53-.16.46-.34 1.15-.42 1.53-.07.38-.15.81-.17.96-.02.19-.01.26.04.24.04-.01.28-.4.53-.87s.6-1.17.77-1.55.43-1 .58-1.36c.14-.37.37-1.02.51-1.45s.28-.9.31-1.04c.03-.15.05-.28.04-.3-.01-.01-.13.11-.28.27m61.97-.09c0 .06.09.37.19.69s.3.9.44 1.28.41 1.07.61 1.53c.2.45.58 1.28.86 1.83s.54 1.05.59 1.11c.04.06.09.1.11.08.01-.01-.01-.29-.06-.61s-.17-.91-.27-1.3c-.1-.4-.27-.98-.39-1.28-.11-.31-.33-.83-.5-1.17-.16-.33-.44-.83-.62-1.11a8 8 0 0 0-.64-.83c-.24-.26-.32-.31-.32-.22m-2.36.85c-.76.39-1.63.78-1.93.88s-.62.18-.71.18c-.1 0-.24-.06-.33-.14-.14-.11-.23-.14-.47-.14-.26 0-.31.02-.31.1 0 .06.07.39.14.74.08.35.28 1.04.44 1.53.16.48.41 1.13.55 1.43l.26.54c.84-.42 1.19-.6 1.33-.66s.89-.42 1.67-.8l1.42-.7c.4.83.51 1.08.5 1.08 0 .01-1.01.51-2.24 1.13l-2.24 1.11c.27.59.46.97.6 1.23s.4.69.57.95c.17.27.34.49.38.49.03 0 .13-.08.2-.18.08-.1.16-.29.18-.43.04-.2.09-.27.27-.4.12-.09.51-.27.86-.41.35-.13 1.18-.41 1.83-.61.66-.2 1.27-.39 1.36-.42.1-.04.18-.07.18-.07.01 0-.12-.23-.29-.51-.17-.27-.52-.91-.77-1.41a31 31 0 0 1-1.34-3.03c-.11-.31-.27-.78-.36-1.06-.09-.27-.19-.64-.24-.82-.04-.17-.09-.31-.1-.31-.01.01-.65.33-1.41.71m-58.39-.28c-.05.2-.2.66-.32 1.01s-.34.94-.48 1.3c-.15.37-.44 1.03-.64 1.48-.2.44-.56 1.15-.79 1.58s-.49.88-.58 1.01-.16.26-.16.3c0 .03.11.09.24.13.12.05.72.24 1.31.43.6.18 1.35.43 1.67.55s.7.29.83.38c.14.08.27.21.29.29.03.07.06.2.07.29.02.08.11.23.2.33.14.16.17.17.24.1.04-.05.22-.33.4-.62s.49-.85.7-1.26l.38-.74c-3.46-1.73-4.48-2.23-4.49-2.24-.01 0 .07-.17.17-.37.11-.2.22-.44.26-.54l.06-.18c1.06.51 2.06.98 2.91 1.38.84.4 1.56.73 1.6.72.03-.01.16-.25.28-.54s.33-.88.47-1.31.35-1.15.47-1.6c.18-.69.2-.82.13-.84a1 1 0 0 0-.27-.03c-.14 0-.26.05-.38.16-.1.08-.22.17-.28.19-.05.02-.25 0-.44-.04-.19-.05-.6-.19-.9-.31-.31-.13-.79-.35-1.06-.49-.28-.13-.77-.39-1.1-.57a8 8 0 0 0-.64-.33c-.03 0-.1.17-.15.38m53.36 2.41c-.29.12-1.6.69-2.91 1.27-1.32.57-3.11 1.36-4 1.75l-1.6.72c.06.3.2.75.34 1.19.15.45.41 1.18.59 1.63.25.62.35.82.42.8.04-.01 1.73-.77 3.75-1.69 2.01-.92 3.79-1.73 3.95-1.8s.3-.12.31-.1c.01.01.11.23.22.48l.21.46c-1.23.59-2.59 1.24-3.83 1.84-1.88.9-2.29 1.12-2.54 1.35-.22.2-.37.41-.51.7-.19.39-.2.43-.2 1 0 .52.01.62.15.89.08.17.16.34.19.38.03.05 1.13-.47 4.46-2.14l4.42-2.2c-.6-1.09-.95-1.79-1.17-2.26-.22-.48-.5-1.1-.61-1.39-.12-.29-.33-.88-.47-1.31-.15-.43-.31-1.01-.37-1.29-.08-.36-.14-.51-.19-.51s-.32.1-.61.23m-47.5.11c-.03.13-.18.59-.31 1.02-.14.42-.41 1.17-.6 1.66-.2.49-.51 1.23-.7 1.64s-.51 1.08-.73 1.49l-.38.73c6.09 3.07 8.04 4.06 8.26 4.18.27.14.43.2.48.16.03-.02.14-.2.23-.4.1-.24.16-.48.18-.74a2.34 2.34 0 0 0-.29-1.33c-.07-.13-.23-.34-.37-.47-.19-.2-.47-.36-1.3-.76l-3.05-1.47c-1.1-.53-2.02-.97-2.04-.99-.03-.02.05-.24.16-.5.12-.25.23-.45.25-.45.03 0 1.86.81 4.09 1.8 2.22 1 4.05 1.79 4.07 1.77.02-.03.16-.37.3-.77.15-.4.43-1.2.62-1.78s.35-1.06.34-1.06c-.01-.01-.53-.24-1.15-.52-.63-.28-2.42-1.07-3.97-1.75-1.56-.68-3.09-1.34-3.39-1.47-.31-.12-.58-.23-.6-.22-.02 0-.07.1-.1.23" class="shp2"/><path d="M96 83.61v.33h8.61v-.66H96z" class="shp3"/><path fill-rule="evenodd" d="M114.08 84.85c.02.01.11.29.18.62.08.34.27 1.01.43 1.5.17.49.4 1.14.53 1.45.13.3.24.59.24.63.01.06-1.21.66-7.9 3.84l-2.69-1.26c-1.48-.7-2.7-1.29-2.71-1.32s2.1-1.02 4.7-2.21 5.27-2.41 5.95-2.71c.67-.3 1.24-.55 1.27-.54m-27.62.09c.02 0 .51.21 1.08.47s1.73.78 2.57 1.17l2.28 1.06c.41.19 2.32 1.08 4.25 1.97 1.92.89 5.11 2.34 7.08 3.2 1.97.87 4.44 1.99 5.47 2.47 1.04.49 3.86 1.82 10.62 5.03l-.02.19c-.01.11-.08.49-.16.86-.07.37-.18.86-.25 1.08-.06.23-.21.73-.33 1.12-.13.38-.3.88-.39 1.11s-.29.67-.43.98c-.14.32-.28.57-.3.57s-.06-.07-.07-.15c-.02-.08-.07-.28-.12-.43s-.14-.37-.2-.47a3.6 3.6 0 0 0-.32-.41c-.1-.12-.38-.31-.61-.43-.23-.11-2.69-1.29-5.47-2.61s-5.94-2.82-7.03-3.33c-1.08-.51-2.4-1.14-2.92-1.4s-2.81-1.38-5.11-2.48c-2.29-1.09-5.7-2.73-7.58-3.62-1.88-.9-3.43-1.64-3.44-1.65-.02-.01.04-.21.13-.45.08-.24.31-.89.5-1.46.19-.56.43-1.33.54-1.7.1-.38.2-.69.23-.69m-2.06 5.5c.02 0 3.23 1.53 7.11 3.4 3.89 1.87 7.49 3.6 7.99 3.86.5.25 1.82.88 2.92 1.4s4.1 1.97 6.66 3.23c2.57 1.26 5.05 2.48 5.5 2.7.68.33.9.47 1.17.73.22.21.4.46.53.71.18.37.19.42.19.97 0 .43-.03.67-.1.89-.06.17-.19.49-.29.71-.11.22-.22.4-.26.4s-3.98-1.9-8.76-4.23c-4.79-2.32-9.94-4.83-11.45-5.57s-3.65-1.78-4.75-2.31c-1.1-.52-3.37-1.64-5.04-2.48-1.67-.83-3.04-1.53-3.04-1.54 0-.02.13-.24.3-.49.16-.25.45-.73.64-1.07.18-.34.4-.77.48-.96.09-.19.17-.35.2-.35m31.73.01c.02-.01.11.16.21.37.09.21.32.64.5.96s.46.79.63 1.05c.16.26.28.49.26.52-.02.02-1.04.52-2.27 1.12s-2.27 1.09-2.31 1.08c-.04 0-.9-.39-1.92-.87s-1.85-.9-1.85-.93 1.51-.79 3.35-1.68 3.37-1.62 3.4-1.62" class="shp2"/><path d="M12.17 100.33v5.06h1.94c-.01-3.42-.02-4.63-.04-4.88-.03-.26-.03-.47-.01-.49.01-.01.23.25.48.58.26.33.92 1.1 1.48 1.72.68.76 1.04 1.13 1.12 1.13.07 0 .53-.43 1.23-1.13.63-.64 1.32-1.39 1.58-1.74l.47-.61-.03 5.42h1.94V95.28c-.22-.01-.81.62-2.65 2.66-1.32 1.47-2.42 2.66-2.45 2.66-.03-.01-1.14-1.2-2.48-2.66-1.33-1.45-2.46-2.64-2.5-2.65-.06-.02-.07.79-.08 5.04m12.16 0v5.06h1.95c-.02-4.17-.01-5.37.01-5.35.02.03.24.31.49.63s.89 1.07 1.43 1.68c.65.72 1.02 1.09 1.1 1.09.07.01.52-.41 1.25-1.15.63-.63 1.34-1.41 1.58-1.72.25-.32.44-.57.44-.57s0 1.21-.01 2.69l-.01 2.7h1.94V95.28c-.22 0-.83.64-2.64 2.66-1.31 1.47-2.41 2.66-2.44 2.66s-1.16-1.2-2.5-2.66c-1.35-1.47-2.48-2.66-2.52-2.66-.05 0-.07 1.05-.07 5.05m143.96-4.93c.04.07.64 1.07 1.32 2.21.68 1.15 1.25 2.11 1.26 2.14s-.73 1.29-1.65 2.79l-1.66 2.74 2.17-.03c1.33-2.37 1.81-3.28 1.93-3.56.18-.39.23-.47.26-.38.02.06.14.32.26.58s.61 1.13 1.09 1.93l.87 1.46h2.36c-.11-.2-.86-1.43-1.74-2.88l-1.59-2.62c1.99-3.34 2.59-4.35 2.61-4.4.05-.1-.02-.1-1.02-.1h-1.07c-.73 1.3-1.05 1.96-1.19 2.31-.14.36-.28.64-.31.64-.03-.01-.14-.2-.24-.44s-.45-.9-.78-1.47l-.59-1.05-2.38.01zm10.84.28c.13.22.73 1.23 1.33 2.25.99 1.66 1.09 1.86 1.03 1.97-.04.07-.76 1.28-1.62 2.68-.85 1.41-1.56 2.59-1.57 2.63-.02.05.21.06 1.04.05l1.07-.01c1.32-2.37 1.8-3.28 1.92-3.56.17-.39.23-.47.26-.38.02.06.14.32.25.58.12.26.61 1.13 1.09 1.93l.88 1.46c1.83 0 2.35-.02 2.34-.04-.02-.03-.77-1.26-1.67-2.75l-1.65-2.71c1.97-3.3 2.57-4.31 2.6-4.38l.07-.12h-2.14c-.76 1.35-1.08 2.03-1.21 2.37-.13.35-.26.62-.28.61-.03 0-.14-.21-.24-.45-.11-.25-.47-.92-.79-1.49l-.59-1.05-2.36.01z" class="shp0"/><path fill-rule="evenodd" d="M87.06 97.34c.04 0 1.29.61 2.76 1.36 1.47.74 2.68 1.37 2.68 1.4 0 .02-.7.38-1.57.79-.86.41-2.84 1.35-4.4 2.09-2.22 1.05-2.89 1.4-3.11 1.59-.15.13-.33.36-.41.51-.08.16-.2.47-.39 1.11l-.19-.41c-.11-.23-.33-.78-.5-1.22-.17-.45-.4-1.11-.51-1.48-.11-.36-.3-1.06-.42-1.55s-.22-.99-.25-1.33l3.11-1.43c1.71-.79 3.15-1.43 3.2-1.43m-7.47 2.49c.07 0 .12.17.23.68.07.38.26 1.12.41 1.64.15.53.37 1.27.5 1.64.12.38.35 1.01.51 1.4.16.4.55 1.26.87 1.92.33.66.78 1.52 1 1.92.23.39.51.87.83 1.39l-.15.03c-.08.02-.33.01-.54-.01-.21-.03-.49-.08-.83-.2l-5.14 2.48-.21-.29c-.12-.16-.38-.55-.58-.87-.2-.33-.54-.91-.76-1.31-.21-.4-.54-1.07-.73-1.5s-.53-1.25-.76-1.83-.5-1.35-.6-1.7-.23-.86-.28-1.14c-.05-.27-.07-.51-.04-.53.02-.02.69-.33 1.49-.69.79-.35 2.03-.92 4.05-1.88l.09-.31c.06-.19.18-.41.33-.57.13-.15.27-.27.31-.27m58.95.09c.03.03.16.29.28.58.13.29 1.33 2.73 2.68 5.42 1.34 2.69 2.45 4.9 2.45 4.93-.01.02-.67.04-2.98.04v1.62c0 1.14-.03 1.88-.1 2.46-.05.46-.15 1.22-.23 1.7-.08.47-.23 1.25-.33 1.72-.11.47-.31 1.25-.44 1.72-.14.47-.38 1.24-.54 1.7a52 52 0 0 1-.64 1.69c-.2.47-.63 1.41-.97 2.08a33 33 0 0 1-2.26 3.89c-.23.34-.67.94-.96 1.34-.3.39-.77.99-1.06 1.33-.28.33-.79.92-1.13 1.3-.35.39-1.07 1.12-1.6 1.64s-1.3 1.24-1.71 1.59c-.41.36-1.11.93-1.56 1.28-.44.35-1.13.87-1.52 1.16-.4.29-1.15.8-1.67 1.14s-1.24.8-1.6 1.02-1.16.68-1.77 1.02c-.62.35-1.69.91-2.38 1.25s-1.74.83-2.33 1.1c-.6.26-1.74.74-2.53 1.05-.8.32-1.96.76-2.58.98-.63.22-1.48.51-1.89.64-.42.13-1.24.38-1.84.55-.59.18-1.49.45-1.98.62-.5.16-1.16.4-1.47.52-.32.13-.77.35-1.02.49-.24.14-.68.44-.97.65-.29.22-.77.61-1.58 1.35l-.37-.35a11.186 11.186 0 0 0-1.63-1.32c-.28-.18-.72-.44-.98-.57s-1.03-.43-1.72-.66a66 66 0 0 0-2.75-.87c-.82-.24-2.01-.61-2.64-.83-.62-.22-1.57-.56-2.11-.76-.53-.2-1.5-.59-2.14-.85-.64-.27-1.66-.72-2.28-1-.61-.28-1.61-.77-2.22-1.08-.61-.32-1.43-.75-1.83-.98-.4-.22-1.1-.63-1.56-.9-.45-.28-1.3-.82-1.89-1.2-.58-.39-1.5-1.04-2.05-1.45a79 79 0 0 1-1.81-1.42c-.44-.37-1.09-.94-1.44-1.26s-.97-.92-1.38-1.33-1.04-1.07-1.39-1.47c-.36-.39-.86-.98-1.13-1.3-.26-.32-.71-.9-.99-1.28s-.77-1.08-1.09-1.55c-.31-.48-.8-1.27-1.08-1.75-.28-.49-.73-1.34-1-1.89s-.66-1.4-.86-1.89-.55-1.44-.78-2.11c-.22-.68-.52-1.68-.65-2.23-.14-.55-.31-1.26-.37-1.58s-.15-.82-.2-1.11a32.974 32.974 0 0 1-.3-3.14c-.03-.61-.04-1.42.02-2.47h-1.48c-1.29 0-1.49-.01-1.49-.08 0-.05 1.13-2.33 2.5-5.07 1.38-2.75 2.57-5.16 2.65-5.36.09-.21.19-.39.23-.41.05-.02.06.04.03.27-.03.16-.05 1.19-.05 2.29 0 1.23.03 2.28.08 2.72.04.4.11 1.01.15 1.36.05.35.15.98.22 1.39.08.41.24 1.15.36 1.64s.35 1.29.5 1.78c.16.49.45 1.3.65 1.8.2.51.6 1.41.88 2 .29.6.71 1.4.93 1.78s.69 1.13 1.04 1.67c.36.53.92 1.32 1.26 1.75.34.42.92 1.12 1.31 1.55a31.202 31.202 0 0 0 2.71 2.67c.32.28.77.65 1 .84.23.18.65.51.94.72.29.22.83.59 1.2.84.36.24.91.6 1.22.78.3.18.85.49 1.22.69s.89.47 1.17.59c.27.12.75.3 1.05.39.31.1.81.23 1.11.29.39.08.88.13 1.59.15.66.02 1.22.01 1.58-.04.31-.03.78-.11 1.06-.17.27-.06.77-.2 1.11-.31.33-.11.91-.34 1.27-.52.37-.17.85-.42 1.06-.56.21-.13.56-.36.78-.52.21-.16.57-.46 1.22-1.03l.47.45c.26.25.65.59.86.76.22.17.65.49.98.71.32.21.88.54 1.25.73.36.19.92.44 1.23.56.31.13.88.32 1.25.43.38.1.97.24 1.32.3s1.03.14 1.5.17c.62.05 1.09.05 1.67.01a20 20 0 0 0 1.41-.17c.34-.06.82-.16 1.06-.22s.74-.22 1.11-.34c.37-.13 1.02-.4 1.45-.61.42-.21 1.07-.58 1.44-.83.37-.24.83-.58 1.03-.74.21-.16.56-.48 1.22-1.1l.32.29c.18.16.47.41.65.55a12.422 12.422 0 0 0 1.75 1.08c.29.14.75.35 1.03.45a11.2 11.2 0 0 0 2.35.6c.36.05 1 .08 1.5.08.48 0 1.12-.03 1.43-.08.3-.04.82-.14 1.14-.22s.79-.23 1.05-.33.89-.39 1.39-.63c.51-.25 1.27-.66 1.7-.92.42-.25 1.11-.69 1.52-.97.42-.28 1.03-.72 1.36-.98.34-.27.9-.72 1.25-1.02.36-.3 1.09-.99 1.65-1.54.55-.55 1.28-1.34 1.63-1.75s.86-1.05 1.13-1.42c.28-.36.67-.91.87-1.22.21-.3.52-.8.71-1.11.18-.31.51-.88.72-1.28.22-.4.55-1.06.74-1.47s.47-1.06.62-1.44c.15-.39.42-1.11.58-1.62a30.5 30.5 0 0 0 1.07-4.23c.09-.53.2-1.31.25-1.74s.12-1.31.15-1.97.05-1.63.03-2.17c-.02-.53-.05-1.19-.07-1.47-.02-.34-.01-.48.02-.44m-17.75-.03.16.08c.09.05.24.19.33.32s.19.36.29.79l.92.44c.51.25 1.76.82 4.65 2.13l-.02.25c-.01.13-.1.56-.2.96s-.3 1.04-.44 1.42-.41 1.08-.61 1.55c-.19.48-.54 1.24-.77 1.7s-.6 1.14-.82 1.53c-.23.38-.58.95-.79 1.26s-.41.57-.45.57-1.21-.55-5.12-2.43l-.25.08c-.14.05-.49.1-1.31.14l.11-.16c.06-.09.25-.41.43-.71.19-.31.53-.92.77-1.37.24-.44.63-1.21.88-1.72.24-.5.56-1.19.7-1.53.14-.33.41-1.04.58-1.58.18-.53.44-1.42.58-1.97s.28-1.17.31-1.37zm-26.18 1c.05 0 .89.4 1.88.88s1.8.89 1.8.92-2.1 1.07-4.66 2.29l-5.6 2.69c-.52.25-1.51.73-2.2 1.06-.68.33-1.28.6-1.32.6-.03 0-.13-.14-.21-.32-.08-.17-.19-.5-.25-.73s-.11-.57-.11-.75c0-.19.04-.47.09-.64s.15-.41.22-.53.29-.38.5-.57c.32-.3.5-.41 1.57-.93.66-.32 2.78-1.35 4.71-2.28 1.92-.92 3.54-1.68 3.58-1.69m-22.46 1.28c.05 0 .08.11.1.34.02.19.03.41.03.49 0 .12-.06.17-.38.33-.2.1-.57.31-.82.47-.24.17-.6.43-.79.6-.19.16-.47.46-.63.66-.16.19-.36.5-.44.68-.09.17-.17.35-.17.39 0 .03.11-.04.24-.16s.39-.34.57-.48.62-.44.97-.67.87-.56 1.16-.73c.28-.17.52-.31.54-.31.01 0 .03.04.03.08 0 .05.08.44.19.88.1.43.28 1.08.39 1.43s.34 1 .51 1.44.56 1.34.87 2 .77 1.56 1.01 2 .58 1.01.76 1.28c.2.31.29.48.25.51-.04.02-.32.11-.62.2-.31.09-.81.21-1.11.26-.35.06-.84.1-1.28.1-.49 0-.85-.03-1.11-.09-.22-.06-.5-.15-.64-.21s-.26-.09-.28-.08c-.02.02.06.12.17.23.1.11.34.29.52.41.19.12.5.27.7.34.28.1.53.13 1.08.15.52.02.9 0 1.34-.07.33-.05.87-.15 1.19-.23.32-.07.62-.15.67-.16.05-.02.17.1.35.35.15.2.25.39.22.41-.02.02-.28.12-.57.23s-.74.25-1 .32c-.26.06-.71.15-1 .19-.29.05-.79.08-1.1.08-.35 0-.79-.04-1.13-.11-.3-.06-.72-.18-.93-.26-.2-.08-.56-.27-.79-.42a9 9 0 0 1-.92-.78c-.28-.28-.6-.62-.91-.98l-.43.15c-.33.11-.49.14-.68.11a1.6 1.6 0 0 1-.45-.16c-.16-.11-.29-.32-.7-1.14-.34-.67-.52-1.08-.52-1.2 0-.1.03-.28.07-.4s.14-.3.24-.39c.09-.09.32-.23.51-.31l.35-.13s-.04-.2-.08-.45c-.05-.24-.09-.73-.09-1.08s.04-.88.09-1.17c.04-.29.18-.83.3-1.19.14-.43.33-.84.51-1.14.17-.28.47-.66.74-.93.24-.24.67-.59.94-.77.28-.18.69-.41.92-.52.23-.1.54-.23.7-.29.15-.05.3-.1.34-.1m56.32.03c.06.02.31.11.56.21.24.1.62.28.83.41.21.12.59.37.83.55.25.19.59.5.77.69.18.2.44.54.59.77.14.23.32.62.4.86.08.25.21.71.28 1.03.1.48.12.77.13 1.56 0 .53-.02 1.1-.09 1.53l.32.12c.18.07.4.21.5.31s.21.24.24.32c.04.07.07.27.07.44 0 .27-.05.41-.41 1.14-.23.46-.48.91-.56 1-.07.09-.24.22-.38.29-.13.07-.33.12-.42.12-.1.01-.33-.05-.5-.11-.18-.06-.36-.13-.41-.14-.05-.02-.24.16-.53.48-.24.28-.64.68-.88.89a4.8 4.8 0 0 1-.95.64c-.27.13-.7.3-.94.36-.29.07-.71.13-1.17.15-.53.02-.89 0-1.36-.07-.35-.05-.93-.18-1.28-.28s-.79-.25-.97-.32c-.18-.08-.34-.16-.35-.19-.01-.02.1-.2.24-.39.18-.26.27-.34.35-.32.05.02.39.11.76.2s.9.2 1.19.25c.29.04.77.08 1.06.08s.7-.04.92-.09c.21-.04.55-.17.75-.27.19-.11.51-.33.69-.5.18-.16.32-.31.31-.33-.02-.02-.14.01-.28.07-.14.05-.41.14-.61.19s-.56.1-.81.12c-.24.02-.69.01-1-.02-.3-.04-.74-.1-.97-.15s-.65-.16-.93-.25-.52-.17-.52-.19c0-.01.15-.25.33-.51.18-.27.48-.76.66-1.1.19-.34.59-1.12.9-1.75.3-.63.67-1.41.81-1.75s.42-1.09.61-1.67.45-1.45.78-2.8l.25.15c.14.08.51.3.83.5s.79.49 1.04.65c.26.15.65.44.88.63s.41.31.41.28c0-.04-.09-.23-.2-.43-.12-.19-.36-.52-.55-.72s-.52-.51-.75-.68-.71-.49-1.07-.7c-.6-.35-.65-.39-.63-.52.02-.07.05-.28.07-.46.04-.29.05-.32.16-.28" class="shp2"/><path d="M78.53 106.53c-1.09.5-1.31.58-1.47.55-.11-.01-.33-.1-.49-.19a1.6 1.6 0 0 1-.46-.4c-.1-.13-.2-.28-.22-.32-.03-.05-.06-.07-.08-.06-.02.02.04.28.14.58.1.31.28.81.41 1.12.13.3.36.8.51 1.09.15.3.29.55.31.55s.8-.41 1.74-.89l1.69-.89c-.31-.71-.47-1.1-.55-1.32s-.17-.41-.2-.4c-.03 0-.63.26-1.33.58m42.04-.07c-.07.16-.23.59-.37.96-.14.36-.25.67-.24.67s.77.36 1.69.79c.98.46 1.71.77 1.75.75.04-.03.22-.36.39-.74.18-.38.45-1.06.61-1.5.15-.44.27-.84.27-.89s-.13.06-.29.24c-.17.18-.38.37-.49.43-.11.05-.28.11-.39.13-.17.04-.36-.03-1.42-.52-.67-.31-1.26-.57-1.31-.59-.07-.02-.12.05-.2.27" class="shp3"/><path d="M99.67 106.39c-.35.03-.88.09-1.17.14s-.82.17-1.17.28c-.35.1-.94.31-1.3.46-.37.16-.89.42-1.16.58-.26.16-.7.44-.97.63-.26.19-.73.58-1.04.87-.3.29-.72.72-.92.96s-.54.68-.74.98-.53.87-.73 1.28c-.2.4-.46 1.04-.57 1.4-.12.37-.27.93-.34 1.25-.06.32-.14.83-.17 1.13s-.06.78-.06 1.08.03.8.06 1.13c.03.32.11.83.17 1.13.06.31.22.88.35 1.28s.36.96.5 1.25c.13.29.37.73.52.97.14.25.44.69.66.98s.67.8 1 1.13.83.77 1.1.98c.28.21.72.5.98.66s.71.4 1 .54.85.36 1.25.5c.39.13.98.28 1.3.35.32.06.83.14 1.13.17s.77.06 1.05.06c.29 0 .78-.03 1.1-.06.32-.04.85-.11 1.17-.17.32-.07.88-.22 1.25-.34.36-.12.94-.35 1.27-.51.34-.16.82-.42 1.06-.57s.66-.44.92-.63c.26-.2.67-.55.91-.78s.63-.64.86-.92c.23-.27.56-.72.74-1 .18-.27.44-.7.57-.94.13-.25.35-.73.49-1.08.14-.36.33-.93.42-1.28s.21-.92.26-1.25c.05-.38.09-.97.09-1.56 0-.57-.04-1.18-.09-1.55-.05-.34-.15-.85-.22-1.14-.08-.29-.22-.76-.31-1.03-.1-.28-.3-.76-.45-1.08-.16-.32-.4-.77-.54-1s-.43-.66-.65-.95c-.21-.28-.65-.78-.97-1.11a11.5 11.5 0 0 0-2-1.59c-.2-.13-.59-.34-.86-.48-.28-.13-.74-.34-1.03-.45-.29-.12-.8-.28-1.14-.37s-.9-.19-1.25-.24-.88-.09-1.17-.1c-.29-.02-.81-.01-1.16.01" class="shp2"/><path d="M101.14 107.82c.03.03.24.17.47.3.23.12.63.37.89.55.26.17.67.47.9.66.24.18.62.53.86.77.23.23.58.63.77.87.19.25.48.66.63.92.16.26.43.75.59 1.08.16.34.46 1.06.67 1.61.2.55.4 1.07.44 1.14.04.08.15.23.26.33.1.11.31.25.46.32.16.07.41.14.56.16.16.02.42.01.61-.03.23-.05.39-.13.52-.24.17-.15.19-.22.22-.51.02-.26-.01-.46-.12-.86-.08-.29-.22-.7-.3-.92-.08-.21-.25-.61-.39-.89-.14-.27-.41-.73-.6-1.02s-.53-.74-.74-.99c-.22-.25-.63-.66-.91-.91-.28-.24-.74-.59-1.01-.78-.28-.18-.78-.47-1.11-.63a10.204 10.204 0 0 0-2.34-.8c-.3-.06-.74-.13-.97-.15-.29-.02-.4-.02-.36.02m-3.85.4c-.16.03-.5.14-.75.24-.25.09-.63.29-.85.44-.21.14-.44.31-.51.36l-.13.1c1.06.85 1.79 1.53 2.32 2.05.63.63 1.12 1.19 1.47 1.66.29.38.72 1.03.96 1.44s.55.91.69 1.13c.14.21.42.55.63.75.2.2.5.43.66.51.17.08.45.19.64.24.18.04.52.08.75.08s.56-.02.75-.05c.19-.04.46-.14.63-.24.2-.12.36-.27.46-.43.09-.14.18-.4.22-.61.05-.27.04-.47-.01-.81-.03-.24-.14-.67-.23-.94-.09-.28-.31-.81-.5-1.2a8.94 8.94 0 0 0-1.28-2c-.19-.22-.57-.59-.82-.81-.26-.22-.71-.55-1-.74s-.8-.48-1.14-.64a7 7 0 0 0-1.06-.42c-.26-.07-.68-.12-1.02-.14-.32-.01-.72.01-.88.03m-3.62 2.58c-.11.04-.32.15-.46.25-.15.1-.47.43-.74.77-.26.33-.63.87-.83 1.21-.19.33-.42.77-.5.96s-.2.55-.27.8c-.08.25-.18.73-.23 1.07-.07.42-.1.94-.1 1.67 0 .83.03 1.19.12 1.71.07.36.22.96.35 1.33.12.37.26.75.3.83.04.09.1.16.13.16s.06-.14.06-.3.04-.51.08-.79c.05-.27.15-.72.23-1 .08-.27.21-.66.28-.86.08-.2.26-.61.41-.92.14-.3.42-.83.62-1.16.2-.34.53-.83.72-1.09s.57-.71.85-1 .65-.71.84-.93c.18-.22.37-.49.43-.61.05-.11.09-.32.09-.46s-.05-.35-.12-.5c-.06-.13-.29-.42-.51-.64-.29-.29-.46-.42-.67-.49a1.9 1.9 0 0 0-.58-.08c-.17 0-.4.03-.5.07" class="shp3"/><path fill-rule="evenodd" d="M11.19 113.78c.78 0 1.42.02 1.42.04s.11.68.25 1.46c.13.78.35 1.91.47 2.53.13.61.32 1.49.43 1.97.1.47.3 1.31.44 1.86s.41 1.57.61 2.28c.19.7.57 1.96.83 2.8.27.84.71 2.18 1 2.97.28.8.69 1.9.9 2.45.22.55.62 1.54.89 2.19.28.66.72 1.69.99 2.28.27.6.91 1.92 1.42 2.95.51 1.02 1.2 2.34 1.52 2.94.33.6.9 1.6 1.26 2.22.37.63.96 1.6 1.31 2.17.36.56 1.02 1.58 1.47 2.26s1.1 1.63 1.44 2.11c.35.49.99 1.37 1.44 1.96.45.6 1.22 1.59 1.71 2.21s1.36 1.66 1.91 2.3c.56.65 1.4 1.61 1.87 2.13.48.52 1.76 1.85 2.87 2.95 1.1 1.1 2.42 2.39 2.95 2.86.52.47 1.38 1.23 1.91 1.69.54.47 1.32 1.13 1.75 1.48s1.29 1.04 1.92 1.52c.62.49 1.59 1.22 2.14 1.62a103 103 0 0 0 3.66 2.53c.4.26 1.19.76 1.75 1.11.57.35 1.48.91 2.03 1.23s1.36.78 1.81 1.02a82 82 0 0 0 4.52 2.34c.71.33 1.82.85 2.48 1.14.65.29 1.79.77 2.52 1.07.74.3 1.86.73 2.5.97s1.66.6 2.25.8c.6.21 1.69.56 2.42.78s1.83.55 2.44.72c.62.16 1.52.4 2 .53.49.12 1.44.34 2.12.49.67.16 1.73.38 2.36.51.62.12 1.81.33 2.64.47a119 119 0 0 0 4.83.67c.43.05 1.18.12 1.67.17.48.04 1.43.11 2.11.16.67.05 1.94.11 2.83.15 1 .04 2.64.05 4.33.03 1.5-.02 3.19-.06 3.75-.09.57-.03 1.67-.11 2.45-.17s1.98-.18 2.66-.25c.69-.08 1.72-.2 2.28-.28.57-.08 1.72-.25 2.56-.39s2.14-.37 2.89-.52 1.96-.42 2.69-.59 1.81-.43 2.39-.59c.58-.15 1.61-.43 2.28-.63.67-.19 1.62-.48 2.11-.64.49-.15 1.35-.44 1.92-.63.56-.2 1.46-.52 2-.72.53-.19 1.53-.58 2.22-.86s1.79-.74 2.44-1.03c.66-.29 1.58-.7 2.06-.92.47-.23 1.38-.67 2.03-.99.64-.32 1.65-.85 2.25-1.17.59-.32 1.43-.78 1.86-1.03.42-.24 1.17-.68 1.66-.97s1.33-.81 1.86-1.14c.54-.34 1.48-.95 2.09-1.36a73 73 0 0 0 2.08-1.45c.54-.38 1.39-1 1.89-1.38s1.45-1.13 2.11-1.65c.66-.53 1.65-1.35 2.2-1.82s1.3-1.13 1.66-1.46c.37-.33 1.27-1.16 2-1.86.73-.69 1.85-1.8 2.5-2.47.64-.68 1.53-1.63 1.98-2.12.44-.48.99-1.1 1.22-1.36s.84-.98 1.36-1.61c.52-.62 1.22-1.49 1.56-1.91a97 97 0 0 0 4.06-5.59c.33-.5.87-1.33 1.19-1.83.32-.51.9-1.44 1.28-2.08.38-.65.95-1.62 1.25-2.17.31-.55.87-1.59 1.24-2.31.38-.71.96-1.86 1.28-2.55.33-.69.79-1.69 1.03-2.22.23-.54.6-1.38.8-1.87.21-.48.57-1.38.81-2 .23-.61.65-1.73.93-2.5.27-.76.69-2.02.94-2.8.24-.78.59-1.94.77-2.58.19-.65.52-1.91.74-2.81.23-.9.54-2.24.69-2.97.16-.74.38-1.9.51-2.59.12-.68.25-1.45.37-2.13l2.41-.03-.03.15c-.01.08-.09.55-.17 1.04s-.25 1.48-.39 2.2c-.13.71-.37 1.88-.52 2.58-.16.7-.45 1.93-.65 2.72-.2.8-.55 2.08-.77 2.86s-.58 1.97-.8 2.64c-.21.67-.57 1.75-.8 2.39s-.63 1.74-.9 2.45c-.27.7-.72 1.84-1.01 2.52a83.127 83.127 0 0 1-2.66 5.75c-.52 1.04-1.18 2.32-1.47 2.84-.28.52-.82 1.45-1.18 2.08-.37.63-.9 1.53-1.19 2s-1.01 1.59-1.6 2.47c-.58.89-1.38 2.06-1.78 2.61-.39.55-1.05 1.45-1.47 2-.41.55-1.19 1.55-1.73 2.23-.54.67-1.31 1.61-1.71 2.08-.41.47-1.16 1.32-1.66 1.89-.51.56-1.44 1.56-2.07 2.22s-1.67 1.7-2.31 2.31-1.36 1.3-1.6 1.53c-.25.22-.86.77-1.37 1.22-.5.44-1.26 1.11-1.69 1.47s-1.28 1.06-1.89 1.55c-.61.48-1.68 1.31-2.39 1.84-.7.52-1.71 1.26-2.25 1.63-.53.38-1.43.99-2 1.37-.56.37-1.42.92-1.91 1.23-.49.3-1.35.83-1.92 1.16-.57.34-1.34.79-1.72 1.01-.38.21-1.1.61-1.59.87-.48.26-1.5.79-2.25 1.17-.74.37-1.87.92-2.5 1.21-.62.29-1.63.74-2.23 1.01-.61.26-1.76.74-2.56 1.05-.8.32-2.04.79-2.76 1.05s-1.84.65-2.5.87c-.66.21-1.71.54-2.33.73-.63.18-1.78.51-2.56.72s-2.03.52-2.78.69c-.75.18-2.03.45-2.86.62-.82.16-2.1.4-2.83.52-.74.12-1.79.28-2.34.36s-1.41.19-1.91.25c-.51.06-1.44.16-2.09.22-.64.06-1.7.15-2.36.2-.65.04-1.78.11-2.5.15-.71.03-2.53.06-4.02.06-1.5 0-3.3-.03-4-.06-.71-.04-1.82-.11-2.48-.15-.65-.05-1.59-.12-2.08-.17-.49-.04-1.34-.13-1.89-.19-.55-.07-1.36-.17-1.8-.23-.45-.06-1.22-.17-1.73-.25-.5-.07-1.34-.21-1.86-.3s-1.39-.26-1.94-.36a89 89 0 0 1-2.25-.48c-.69-.15-1.65-.38-2.14-.5s-1.43-.37-2.08-.55a86 86 0 0 1-4.37-1.31c-.7-.23-1.86-.63-2.58-.89s-1.83-.68-2.47-.94c-.64-.25-1.53-.61-1.97-.8-.45-.19-1.11-.48-1.48-.64-.36-.16-1.07-.49-1.58-.72-.5-.24-1.55-.75-2.33-1.14s-1.87-.95-2.42-1.25-1.44-.79-1.97-1.1c-.54-.31-1.39-.81-1.89-1.11-.5-.31-1.33-.82-1.83-1.14-.51-.32-1.46-.94-2.11-1.39-.66-.44-1.6-1.09-2.09-1.44-.49-.36-1.35-.99-1.91-1.42a92 92 0 0 1-4.23-3.4 86.504 86.504 0 0 1-4.82-4.45c-.84-.82-1.97-1.97-2.51-2.55s-1.39-1.52-1.89-2.08c-.5-.57-1.26-1.46-1.7-1.98-.43-.52-1.09-1.33-1.46-1.8a145 145 0 0 1-1.48-1.92c-.43-.58-1.13-1.54-1.55-2.14-.42-.59-1.1-1.58-1.5-2.19-.41-.61-.99-1.51-1.29-2-.31-.49-.85-1.38-1.2-1.97-.35-.6-.88-1.51-1.17-2.03-.28-.52-.8-1.48-1.15-2.14s-.88-1.71-1.18-2.33c-.3-.63-.79-1.67-1.08-2.31s-.75-1.7-1.03-2.36c-.27-.66-.64-1.55-.8-1.97-.17-.43-.54-1.42-.82-2.2-.29-.78-.68-1.91-.88-2.53a95 95 0 0 1-1.84-6.33c-.11-.43-.3-1.23-.43-1.78-.12-.55-.36-1.67-.53-2.5-.16-.82-.4-2.1-.52-2.83s-.22-1.36-.22-1.4c0-.06.32-.07 1.41-.07m22.64 0 .03.12c.02.07.1.48.2.91.09.42.28 1.22.42 1.77s.39 1.49.56 2.09c.16.59.56 1.85.88 2.8.31.95.74 2.16.94 2.7.21.53.53 1.34.72 1.8.2.46.52 1.22.73 1.7.21.47.76 1.62 1.23 2.55.46.93 1.11 2.18 1.44 2.78.34.6.84 1.47 1.13 1.94.29.48.82 1.33 1.18 1.89.37.57.95 1.44 1.31 1.95.35.5.96 1.34 1.34 1.86.39.52 1.01 1.32 1.38 1.78a71 71 0 0 0 1.53 1.83c.47.55 1.19 1.36 1.6 1.81.4.44 1.28 1.34 1.94 2a70 70 0 0 0 3.83 3.55c.45.38 1.23 1.03 1.75 1.44.52.42 1.33 1.05 1.81 1.4.47.35 1.27.93 1.78 1.28.5.35 1.34.92 1.86 1.25.52.34 1.37.87 1.89 1.19.51.31 1.45.85 2.08 1.2s1.8.97 2.61 1.37c.81.41 1.9.93 2.42 1.16s1.18.52 1.47.65c.29.12.96.39 1.5.61.53.21 1.5.57 2.14.8s1.6.56 2.14.72c.53.17 1.41.44 1.94.59.54.15 1.41.39 1.95.53.53.13 1.48.36 2.11.5.62.14 1.61.34 2.19.44.58.11 1.47.26 1.97.34.51.08 1.41.2 2 .28.6.07 1.65.18 2.34.25.68.06 1.72.14 2.3.18.61.04 2.24.07 3.81.07 1.64 0 3.19-.03 3.86-.07.61-.04 1.53-.11 2.05-.15.52-.05 1.4-.14 1.95-.2s1.5-.19 2.11-.28 1.6-.25 2.19-.35c.6-.11 1.6-.31 2.23-.44.62-.14 1.65-.38 2.27-.54.63-.15 1.69-.44 2.37-.64.67-.19 1.76-.53 2.41-.75.66-.21 1.73-.59 2.39-.84s1.72-.67 2.36-.93c.64-.27 1.57-.67 2.06-.9.49-.22 1.54-.73 2.33-1.13.8-.4 1.91-.99 2.47-1.31.57-.31 1.51-.86 2.09-1.21s1.53-.95 2.11-1.33 1.48-.99 2-1.36 1.3-.95 1.75-1.28c.44-.34 1.17-.91 1.61-1.26.44-.36 1.19-.99 1.67-1.39.47-.41 1.28-1.13 1.8-1.61s1.58-1.52 2.36-2.31 1.71-1.77 2.06-2.16c.36-.4.9-1.03 1.22-1.39.31-.37.9-1.08 1.3-1.59.41-.5 1.1-1.4 1.54-2 .44-.59 1.06-1.44 1.36-1.88.31-.45.76-1.11 1-1.48.23-.36.65-1.03.93-1.47.27-.44.78-1.29 1.12-1.89.34-.59.88-1.58 1.21-2.19.32-.61.83-1.64 1.14-2.28.3-.64.73-1.57.94-2.06.22-.48.59-1.38.84-2 .24-.61.6-1.56.8-2.11s.52-1.47.71-2.05.5-1.61.69-2.28.47-1.68.61-2.25.34-1.4.62-2.69l3.19-.03-.03.12c-.01.07-.11.55-.22 1.07s-.33 1.46-.48 2.09c-.15.62-.46 1.78-.69 2.58-.23.79-.63 2.07-.88 2.83-.26.77-.68 1.97-.95 2.67s-.68 1.74-.92 2.3c-.23.57-.65 1.51-.91 2.09-.27.58-.8 1.67-1.17 2.41-.38.75-.97 1.87-1.31 2.48a85 85 0 0 1-1.2 2.08c-.33.53-.89 1.43-1.25 2-.37.57-.96 1.44-1.31 1.94-.35.51-.99 1.4-1.43 1.98-.43.58-1.11 1.45-1.5 1.94s-1 1.23-1.36 1.64c-.35.41-.97 1.13-1.39 1.58-.41.46-1.33 1.43-2.05 2.16s-1.74 1.72-2.26 2.2c-.52.49-1.34 1.23-1.83 1.65-.49.43-1.3 1.11-1.8 1.52-.51.41-1.5 1.17-2.2 1.7-.7.52-1.68 1.23-2.17 1.57-.48.33-1.31.88-1.83 1.22-.52.33-1.39.88-1.94 1.21s-1.49.87-2.09 1.21c-.59.33-1.84.98-2.77 1.44-.94.47-2.2 1.07-2.81 1.34s-1.64.71-2.28.97c-.64.25-1.63.64-2.19.84-.57.21-1.61.57-2.31.8s-1.85.58-2.55.78a84 84 0 0 1-5.23 1.28c-.67.13-1.82.34-2.55.47-.73.12-1.93.3-2.67.39-.73.09-1.89.22-2.58.28s-1.64.14-2.11.17c-.48.03-2.01.07-3.42.09-1.62.02-3.07.01-3.97-.03-.78-.04-1.88-.1-2.45-.15-.56-.04-1.5-.13-2.08-.19s-1.52-.18-2.08-.25c-.57-.08-1.4-.21-1.86-.28-.46-.08-1.3-.23-1.86-.34a50 50 0 0 1-1.92-.39c-.49-.1-1.51-.35-2.28-.54-.76-.2-1.94-.52-2.61-.72s-1.78-.55-2.47-.79a71.5 71.5 0 0 1-4.2-1.56c-.49-.2-1.34-.56-1.89-.81-.55-.24-1.55-.71-2.22-1.04s-1.66-.83-2.19-1.11c-.54-.29-1.46-.8-2.06-1.14-.59-.34-1.56-.92-2.14-1.28s-1.58-1.01-2.22-1.44a96 96 0 0 1-2-1.39c-.46-.34-1.24-.93-1.75-1.32-.5-.38-1.41-1.11-2-1.61-.6-.5-1.57-1.33-2.14-1.85-.58-.52-1.74-1.63-2.59-2.47-.84-.84-1.9-1.94-2.36-2.45-.45-.5-1.12-1.25-1.47-1.66-.35-.42-1-1.2-1.45-1.75-.44-.55-1.13-1.44-1.52-1.98-.4-.53-1.05-1.43-1.44-2-.4-.56-.98-1.44-1.31-1.94-.32-.51-.85-1.36-1.17-1.89-.33-.53-.87-1.47-1.21-2.08-.35-.61-1.02-1.9-1.5-2.86a84 84 0 0 1-1.36-2.87c-.27-.61-.73-1.68-1.01-2.38-.28-.71-.72-1.88-.98-2.62-.26-.73-.65-1.87-.85-2.52-.2-.66-.5-1.65-.65-2.2s-.41-1.55-.57-2.22c-.17-.67-.38-1.59-.47-2.04s-.17-.85-.17-.88.53-.05 2.94-.05" class="shp2"/><path d="M96.92 114.19c-.13.04-.33.13-.45.21s-.36.29-.53.47c-.16.18-.56.72-.88 1.19-.31.47-.72 1.16-.89 1.52-.18.37-.38.83-.45 1.03-.06.2-.22.74-.34 1.2-.12.45-.26 1.04-.3 1.3s-.08.66-.08.89.04.64.08.9c.05.27.16.68.25.92s.25.56.35.71c.11.15.36.44.56.65.35.36.38.37.54.32a.42.42 0 0 1 .33.01c.13.06.19.06.3 0 .08-.03.21-.17.28-.3s.27-.7.44-1.27c.17-.56.42-1.34.56-1.72.13-.38.36-.99.5-1.36.15-.37.41-.97.59-1.33.18-.37.47-.89.64-1.17.18-.27.36-.6.42-.72.05-.12.12-.39.16-.58.05-.29.05-.47 0-.84-.05-.33-.13-.58-.27-.86-.11-.21-.34-.54-.51-.72s-.4-.37-.53-.43c-.12-.05-.29-.1-.38-.09-.1 0-.27.03-.39.07m12.49 3.55c-.42.15-1.15.36-1.6.48-.46.12-1.2.27-1.64.34-.67.1-1.04.13-2.17.13-.93 0-1.64-.03-2.22-.1-.78-.08-.89-.09-1.14-.01-.15.05-.38.16-.49.24-.12.08-.34.3-.48.49-.15.18-.38.5-.52.72-.14.21-.3.52-.37.68-.06.16-.11.39-.11.51s.04.32.09.43c.06.11.19.28.31.39.11.1.35.25.53.34.17.09.59.23.93.3.33.08.81.18 1.05.22.26.04.93.07 1.61.07.98 0 1.29-.02 1.89-.13.4-.07 1.01-.21 1.36-.32.36-.11.79-.26.98-.35.18-.08.48-.25.66-.38.19-.12.49-.38.67-.58.19-.19.44-.5.57-.68a7.042 7.042 0 0 0 .76-1.56c.13-.38.14-.51.12-.97l-.02-.53z" class="shp3"/><path d="M23.69 123.6c-2.62.99-4.79 1.82-4.8 1.83-.02.01.16.58.38 1.25.23.68.43 1.26.44 1.28.02.02 1.11-.37 2.43-.87 1.31-.5 2.43-.93 2.49-.95.05-.02.09 0 .09.04s-.27.81-.61 1.71-.61 1.64-.6 1.65c.01 0 .74.35 1.61.77.88.43 1.59.8 1.59.83s-1.11.48-2.46.99c-1.34.52-2.45.94-2.46.94-.01.01.22.56.52 1.24.29.67.53 1.22.54 1.23s2.12-.78 4.71-1.76c2.58-.97 4.76-1.8 4.84-1.83l.16-.06c-.32-.84-.44-1.12-.47-1.16s-1.2-.64-2.59-1.33c-1.39-.7-2.54-1.26-2.54-1.26-.01 0 .44-1.14 1.01-2.54l1.03-2.54c-.33-.97-.45-1.26-.48-1.26-.03-.01-2.2.8-4.83 1.8m149.23-1.68c-.19.05-.5.17-.7.26-.19.1-.51.32-.69.49-.19.17-.42.44-.51.59-.1.15-.56 1.27-1.05 2.57-.47 1.27-.86 2.33-.86 2.36s2.17.8 4.82 1.7 4.85 1.64 4.89 1.64c.05 0 .42-.92 1.02-2.5.54-1.43.97-2.66 1-2.86.04-.2.05-.51.03-.7a3.154 3.154 0 0 0-.47-1.33c-.12-.18-.33-.44-.46-.56-.14-.12-.36-.29-.5-.37-.13-.08-.41-.2-.61-.27-.27-.09-.49-.12-.89-.13-.4 0-.62.03-.94.13-.23.07-.5.17-.61.23l-.2.1c-.25-.4-.45-.62-.61-.76-.15-.14-.4-.31-.55-.38a5 5 0 0 0-.61-.21c-.19-.05-.52-.09-.75-.08-.23 0-.57.04-.75.08" class="shp2"/><path d="M107.94 123.56c-.13.06-.53.2-.88.31-.36.11-.84.24-1.09.3-.24.05-.72.14-1.05.2-.45.07-.91.1-1.75.1-.86 0-1.28-.03-1.7-.1-.3-.06-.94-.22-1.41-.36-.57-.16-1.02-.25-1.31-.27-.37-.03-.48-.01-.67.08-.12.06-.3.21-.4.32-.11.14-.23.4-.33.72-.12.4-.15.61-.15 1.03-.01.49.01.55.15.77.08.13.27.29.41.38.15.08.38.18.52.23.14.04.69.11 1.22.15.76.06 1.13.07 1.67.02.38-.03.93-.11 1.22-.17s.79-.2 1.11-.3c.32-.11.81-.31 1.08-.44.28-.13.72-.36.98-.53.26-.16.67-.45.91-.64.25-.19.69-.59.99-.89.29-.31.6-.64.68-.75.08-.1.14-.21.14-.23 0-.03-.02-.04-.04-.04-.03 0-.16.05-.3.11" class="shp3"/><path d="M173.19 124.47a1.26 1.26 0 0 0-.63.72c-.06.16-.16.46-.23.68-.08.22-.12.41-.11.42.02.02.41.17.86.34.46.17.84.3.84.3.01-.01.13-.36.27-.79.22-.68.25-.8.2-.99-.03-.11-.14-.3-.24-.41s-.25-.23-.33-.27a.7.7 0 0 0-.31-.08c-.08 0-.22.04-.32.08m3.98.91c-.1.06-.24.18-.31.26-.06.09-.25.55-.43 1.01-.18.47-.32.87-.32.91 0 .03.38.19.85.36.46.17.85.3.85.29.01-.01.16-.43.35-.93.19-.51.34-1 .34-1.1s-.03-.25-.08-.33c-.04-.09-.18-.25-.32-.37-.2-.17-.28-.2-.49-.2-.14 0-.33.04-.44.1" class="shp1"/><path d="M167.73 131.07c-.31.65-.56 1.2-.56 1.22s1.29.69 2.87 1.48 2.95 1.5 3.04 1.57c.09.08.23.25.29.39.09.18.13.34.13.6 0 .27-.04.44-.13.64-.07.16-.21.35-.29.43-.09.08-.26.19-.39.24-.12.05-.37.09-.55.09-.33 0-.41-.04-3.24-1.45-1.59-.79-2.92-1.44-2.94-1.43s-.32.54-.67 1.17c-.34.63-.62 1.16-.61 1.17s1.35.69 2.99 1.52c1.63.83 3.14 1.56 3.36 1.62.25.08.6.13.97.15.4.02.71.01.97-.05.22-.05.55-.15.75-.23s.5-.23.66-.33c.16-.09.46-.33.65-.52.2-.19.47-.52.6-.72.13-.21.29-.5.36-.66.06-.15.16-.49.21-.75.07-.34.08-.61.06-1-.02-.3-.08-.69-.15-.91s-.22-.59-.35-.83c-.14-.26-.38-.6-.59-.83-.2-.21-.48-.47-.61-.57-.14-.1-1.58-.86-3.2-1.68-1.62-.83-2.97-1.51-3-1.51-.04 0-.32.53-.63 1.18" class="shp2"/><path d="M70.56 131.29c0 .04.19.31.43.6.23.29.69.83 1.01 1.19.32.37.94 1.03 1.39 1.48.44.44 1.11 1.07 1.49 1.4.37.33.97.83 1.33 1.12.36.28 1.03.78 1.48 1.11.46.33 1.16.8 1.56 1.06.4.25 1.12.69 1.61.97s1.46.8 2.17 1.14c.7.35 1.69.8 2.19 1.02.51.21 1.36.55 1.89.75a50 50 0 0 0 3.5 1.14c.32.09 1.03.28 1.58.42s1.5.35 2.12.47a49 49 0 0 0 3.63.59c.42.04.95.1 1.19.12l.43.05c-.01-8.65-.04-10.91-.06-10.78-.03.12-.11.55-.19.94-.07.4-.23 1-.34 1.34-.11.33-.33.88-.49 1.22-.16.33-.42.8-.57 1.03s-.46.61-.69.85-.56.55-.75.69c-.18.14-.53.36-.78.49-.24.13-.63.3-.86.38-.23.07-.64.18-.91.23-.31.05-.82.08-1.31.08-.52 0-1.1-.04-1.64-.11-.46-.07-1.22-.19-1.69-.28-.48-.09-1.35-.29-1.95-.44-.59-.15-1.44-.39-1.89-.53-.44-.15-1.09-.37-1.44-.5a31 31 0 0 1-3.12-1.37c-.55-.27-1.36-.71-1.81-.97-.45-.27-1.18-.73-1.63-1.02-.44-.29-1.1-.76-1.47-1.03-.36-.28-.96-.75-1.33-1.05s-1-.85-1.41-1.22a42 42 0 0 1-1.7-1.66c-.53-.55-.97-.96-.97-.92m54.71 2.53c-.22.21-.7.61-1.05.91-.35.29-.96.78-1.36 1.07-.4.3-1.18.85-1.75 1.23-.56.37-1.4.9-1.86 1.17s-1.43.79-2.17 1.16c-.73.37-1.77.86-2.3 1.1-.54.23-1.51.62-2.17.86-.66.25-1.68.6-2.28.79-.59.19-1.59.47-2.22.64-.63.16-1.56.39-2.08.5s-1.45.29-2.06.39-1.42.22-1.79.26l-.68.07c0 1.79.02 2.03.07 2.03.04 0 .36-.07.71-.14.35-.08 1.07-.26 1.61-.39.53-.13 1.45-.38 2.03-.55.58-.16 1.45-.43 1.94-.59s1.4-.47 2.03-.7 1.53-.57 2-.77c.47-.19 1.21-.5 1.64-.69s1.34-.63 2.03-.97c.68-.35 1.67-.87 2.19-1.17s1.38-.83 1.92-1.18c.53-.36 1.26-.86 1.61-1.12s.94-.73 1.3-1.03c.37-.31 1.02-.9 1.44-1.31s.98-.99 1.24-1.29c.25-.3.45-.57.44-.6 0-.03-.2.11-.43.32" class="shp3"/><path d="M29.63 137.49c-3.03.3-5.52.55-5.54.57-.02.01.25.52.59 1.12l.63 1.11 1.55-.07 2.13 3.64-.87 1.28c1.19 1.81 1.52 2.25 1.55 2.22.02-.03 1.44-2.09 3.15-4.58 1.7-2.49 3.12-4.56 3.13-4.59.02-.03-.13-.31-.33-.63s-.4-.58-.43-.59-2.53.23-5.56.52" class="shp2"/><path d="M30.47 139.88c-.82.08-.99.11-.98.18.01.04.24.45.5.9.27.45.49.82.51.82s.11-.12.2-.27c.1-.14.4-.59.68-1l.51-.73c-.32.01-.87.05-1.42.1" class="shp1"/><path d="M161.1 142.71c-.49.74-.71 1.12-.68 1.16s1.94 1.34 4.25 2.88c2.3 1.55 4.21 2.79 4.23 2.77.01-.03.81-1.24 1.76-2.69 1.39-2.11 1.72-2.65 1.66-2.7-.04-.03-.52-.35-1.07-.71l-1-.65c-.46.72-.91 1.42-1.31 2.02l-.72 1.1c-.23-.15-1.66-1.11-3.32-2.23-1.65-1.13-3.02-2.05-3.04-2.05-.01 0-.35.49-.76 1.1m-123.18.94c-.55.45-1 .84-1 .87 0 .04.56.76 1.24 1.62.68.85 1.22 1.57 1.19 1.59-.02.02-1.96.32-4.29.66-2.34.34-4.27.64-4.29.66s.19.37.48.78c.29.42.86 1.19 1.27 1.73.41.53 1.12 1.42 1.57 1.97s1.07 1.3 1.39 1.68c.38.45.6.67.66.65.04-.01.53-.38 1.08-.82.55-.43 1-.81 1-.83s-.55-.74-1.22-1.58c-.67-.85-1.19-1.55-1.15-1.56s1.94-.29 4.23-.63c2.3-.33 4.23-.62 4.3-.64.11-.02.03-.12-.67-.92-.44-.5-1.03-1.2-1.33-1.55-.29-.35-.82-1-1.17-1.44s-.86-1.12-1.13-1.5c-.28-.38-.63-.89-.78-1.13s-.3-.43-.33-.42c-.03 0-.5.37-1.05.81m121.86 2.77a5.6 5.6 0 0 0-1.31.46 6 6 0 0 0-.69.42c-.22.16-.61.5-.86.76s-.55.66-.68.89-.31.64-.4.91c-.09.28-.2.69-.23.92-.04.24-.06.66-.04 1.03.02.33.09.81.15 1.05.06.25.24.7.39 1 .16.33.42.75.65 1.02.21.26.55.61.77.77.21.17.61.41.89.54.27.14.71.31.97.38.4.11.6.12 1.33.12.7 0 .95-.03 1.31-.12.24-.07.69-.25 1-.4.31-.16.75-.44 1.02-.65.26-.21.62-.57.79-.8.18-.23.42-.6.54-.83s.27-.58.33-.78c.07-.2.14-.51.18-.69.03-.19.05-.54.05-.79v-.46c-.23.04-.83.09-1.47.14-.72.06-1.18.11-1.21.15a.9.9 0 0 0-.04.29c0 .12-.06.38-.13.58s-.22.51-.34.69c-.12.19-.35.43-.5.54-.15.12-.43.28-.61.37-.29.13-.4.15-.87.15-.5 0-.55-.01-.97-.22-.28-.14-.55-.33-.75-.52-.19-.2-.38-.47-.51-.73-.15-.29-.22-.52-.24-.78-.02-.22-.01-.48.03-.66.04-.17.15-.46.25-.64.09-.18.33-.49.53-.7.21-.21.48-.42.64-.49.15-.08.4-.15.54-.17.15-.02.27-.06.27-.09s-.04-.55-.09-1.16-.09-1.22-.11-1.35c-.02-.18-.05-.24-.12-.23-.06 0-.26.04-.46.08M42.93 155.6l-5.22 2.04c1.32 1.49 1.74 1.92 1.78 1.92.03 0 .36-.12.72-.26l.65-.25c.43.42.94.9 1.42 1.34.47.44 1.04.97 1.27 1.19l.41.39c-.31 1.04-.4 1.35-.4 1.38 0 .02.45.44 1 .93s1 .88 1.02.87c.01 0 .81-2.4 1.79-5.33l1.77-5.32c-.73-.73-.96-.94-.97-.94-.02 0-2.38.92-5.24 2.04" class="shp2"/><path d="m44.48 157.66-1.15.42c1.14 1.14 1.49 1.46 1.51 1.43.02-.02.21-.53.42-1.14s.38-1.11.38-1.12c-.01-.01-.53.18-1.16.41" class="shp1"/><path d="M52.25 158.89c-.41.55-.76 1.04-.78 1.08-.02.06.3.33 1.02.87.57.43 1.03.8 1.02.83 0 .03-1 1.41-2.2 3.08a289 289 0 0 0-2.23 3.1c-.01.04.42.38 1.09.86.61.43 1.12.78 1.13.78.01-.01 1.01-1.39 2.23-3.07 1.21-1.68 2.23-3.08 2.25-3.11.03-.04.46.24 1.12.71.59.43 1.1.78 1.14.79s.41-.43.82-.98.76-1.03.78-1.07c.01-.04-.18-.2-.49-.4-.28-.18-.92-.62-1.43-.97-.5-.35-1.44-1.02-2.08-1.5s-1.49-1.13-1.88-1.44-.72-.56-.73-.56c-.02 0-.37.45-.78 1m91.29 1.61c-.72.54-1.03.8-1.01.86.01.05 1.4 1.89 3.09 4.1 1.68 2.21 3.07 4.02 3.08 4.03.01 0 1.17-.87 2.56-1.95 1.4-1.08 2.55-2 2.55-2.04s-.34-.51-.75-1.03c-.42-.53-.77-.97-.8-.97-.02 0-.68.48-1.47 1.07s-1.45 1.09-1.48 1.11c-.04.02-1.07-1.29-2.34-2.96-1.25-1.65-2.3-3-2.34-3-.03 0-.52.35-1.09.78m-84.99 7.72c-1.39 2.48-2.51 4.51-2.49 4.52.01.02 1.26.7 2.77 1.53 1.52.82 2.79 1.52 2.84 1.54.06.02.23-.25.71-1.11.34-.63.62-1.16.62-1.19 0-.02-.7-.44-1.56-.93s-1.57-.9-1.59-.93c-.01-.02.78-1.47 1.76-3.22.97-1.75 1.79-3.22 1.81-3.26.02-.07-.25-.26-1.11-.77-.63-.37-1.16-.68-1.19-.68s-1.18 2.03-2.57 4.5m79.62-3.92c-.2.05-.5.13-.67.19s-.44.17-.61.26c-.17.08-.46.26-.64.39s-.51.42-.72.64c-.22.23-.47.53-.57.66-.09.14-.25.42-.35.62-.1.19-.23.49-.29.66s-.14.48-.18.68c-.05.21-.08.67-.08 1.02 0 .36.03.82.08 1.07.05.23.17.63.26.87.1.25.32.66.49.92.18.26.52.66.76.89.25.23.62.51.83.64.21.12.52.28.69.35.16.07.46.18.66.24.2.05.6.13.89.16.4.05.67.04 1.09 0 .3-.04.75-.13 1-.21.24-.08.59-.22.77-.31.19-.09.49-.27.67-.4s.52-.44.75-.68.52-.62.64-.83c.13-.21.3-.54.38-.74.07-.2.18-.51.23-.7.05-.18.11-.55.14-.83.03-.31.03-.69-.01-1-.03-.27-.09-.65-.14-.83-.04-.19-.16-.51-.25-.72-.09-.22-.27-.56-.4-.75a5.483 5.483 0 0 0-1.2-1.3 6 6 0 0 0-.86-.51c-.28-.14-.69-.3-.92-.36-.32-.1-.6-.13-1.25-.14-.57-.02-.95 0-1.19.05" class="shp2"/><path d="M138.54 167c-.11.03-.36.13-.55.23s-.48.3-.63.46-.35.43-.43.6c-.08.18-.18.45-.22.61-.03.16-.04.47-.03.68.02.22.08.53.15.7.06.17.2.42.31.57.11.14.31.36.46.47.14.12.41.27.59.35.29.11.43.13.95.13.58.01.63 0 .99-.17.2-.1.51-.32.68-.48.21-.2.37-.42.51-.71.2-.4.21-.43.21-1.02 0-.5-.03-.67-.13-.92-.07-.17-.22-.43-.33-.58-.12-.16-.34-.37-.49-.49-.15-.11-.41-.26-.58-.32-.2-.08-.47-.13-.78-.14-.26-.01-.56 0-.68.03" class="shp1"/><path d="M70.79 169.46c-.22.37-.4.68-.39.69.01 0 .79.1 1.74.21s1.73.19 1.75.17c.01-.02 0-.19-.03-.37l-.05-.34c-1.94-.81-2.53-1.04-2.56-1.04s-.24.31-.46.68m57.43-.46c-.14.02-1.3.44-2.6.92-1.29.49-2.34.91-2.32.94.01.03.85 2.19 1.87 4.81 1.01 2.61 1.86 4.76 1.88 4.78s1.11-.35 2.42-.83c1.34-.49 2.53-.96 2.72-1.06.17-.11.46-.35.64-.53.17-.19.4-.51.51-.73.12-.21.25-.55.29-.74.05-.2.09-.51.09-.68 0-.18-.03-.46-.06-.62s-.14-.46-.25-.68c-.1-.21-.3-.52-.45-.69-.15-.16-.45-.42-.68-.57s-.48-.29-.55-.31c-.11-.03-.12-.06-.09-.18.02-.07.05-.37.06-.66.03-.4.01-.62-.05-.88-.05-.19-.17-.49-.25-.66-.09-.18-.3-.47-.47-.66-.17-.18-.46-.43-.66-.54-.19-.12-.5-.26-.69-.31-.18-.06-.51-.12-.72-.14-.21-.01-.5-.01-.64.02m-61.13 5.02c-1.73 1.65-3.13 3.02-3.11 3.04.03.02.58.25 1.23.5l1.18.47 1.08-1.09 3.95 1.6c.06.64.1.98.12 1.18l.04.36c1.94.63 2.52.8 2.53.78.02-.02-.12-2.16-.29-4.77-.18-2.6-.33-4.73-.34-4.74 0-.01-.63-.08-1.4-.15-.76-.08-1.49-.15-1.61-.17l-.22-.02zm53.77-2.43c-.46.13-1.68.45-2.72.71s-2.3.56-2.81.67c-.5.1-1.05.22-1.22.25l-.3.06c.37 1.57.5 2.16.54 2.33.04.16.09.3.12.32.03.01.62-.12 1.31-.29s1.25-.3 1.25-.29c.01 0 .4 1.64.88 3.62.48 1.99.89 3.67.9 3.74s.06.12.12.12c.05 0 .66-.14 1.35-.3.69-.17 1.25-.31 1.26-.32 0-.01-.4-1.7-.9-3.77-.5-2.06-.91-3.75-.9-3.76 0 0 .58-.15 1.29-.32.7-.17 1.3-.3 1.33-.3.04 0 .04-.07.01-.18-.02-.1-.16-.72-.31-1.37-.14-.65-.29-1.17-.32-1.17-.02 0-.42.12-.88.25" class="shp2"/><path d="M127.42 171.66c-.39.14-.55.23-.54.29.01.04.15.42.3.84.16.42.32.77.35.77s.31-.1.63-.21c.39-.14.64-.27.75-.38.09-.09.2-.25.24-.34.04-.1.07-.29.07-.41s-.04-.29-.1-.37c-.06-.09-.21-.21-.35-.28-.16-.08-.34-.12-.52-.12s-.47.07-.83.21" class="shp1"/><path d="M78.98 171.62c-.02.04-.52 2.26-1.11 4.94-.6 2.67-1.1 4.92-1.1 4.99-.02.13.01.14 1.17.42.66.16 1.26.3 1.34.32l.14.04c.81-3.7 1.07-4.77 1.09-4.77.03 0 .85 1.31 1.84 2.91 1.63 2.66 1.8 2.92 1.96 2.95.09.01.34.03.55.04l.38.01c1.75-7.7 2.24-9.95 2.22-9.97-.01-.02-.6-.14-1.31-.29-.71-.14-1.31-.24-1.33-.22s-.27 1.07-.55 2.33c-.29 1.26-.54 2.29-.56 2.29s-.85-1.29-1.83-2.86l-1.8-2.86c-.73-.23-.97-.31-1-.32-.04-.01-.08.01-.1.05m31.65 2.1c-.98.15-1.24.21-1.24.28 0 .05.15 1.48.33 3.19.22 2.08.31 3.18.29 3.31-.03.11-.09.27-.13.36-.05.09-.19.25-.3.36-.12.1-.31.22-.41.27-.11.04-.34.08-.5.08-.17 0-.4-.04-.5-.08-.11-.05-.29-.16-.39-.25a1.5 1.5 0 0 1-.32-.44c-.09-.22-.19-.88-.48-3.3-.21-1.67-.38-3.08-.4-3.14-.02-.11-.02-.11-1.34-.01l-1.34.11c-.01.01.14 1.49.32 3.29.19 1.8.38 3.43.43 3.61.04.18.15.47.22.64.08.17.24.46.38.64.13.18.41.49.62.68s.57.45.8.57c.23.11.6.27.83.34.35.11.54.13 1.14.13s.79-.02 1.14-.13c.23-.07.58-.21.78-.32.19-.1.49-.3.66-.44s.42-.38.55-.54.32-.44.42-.62c.11-.19.26-.54.34-.78.1-.31.16-.61.18-.97.02-.4-.05-1.29-.29-3.67-.17-1.73-.33-3.2-.34-3.26-.01-.08-.06-.13-.12-.12-.06 0-.66.09-1.33.21" class="shp2"/><path d="M70.17 174.38c-.48.45-.84.84-.81.86.03.01.45.18.93.37.48.18.89.33.9.33.02 0 .02-.38 0-.84-.01-.47-.04-1.01-.05-1.2s-.05-.34-.07-.34-.43.37-.9.82" class="shp1"/><path d="M95.69 174.4c-.01.04-.02 2.4-.01 5.24l.01 5.17c2.07.06 2.67.08 2.68.07 0-.01.02-.62.04-1.35.02-.74.05-1.67.06-2.07l.03-.74h3.33v-2.39H98.5v-1.72c1.27.04 2.12.07 2.71.08l1.07.03-.03-2.24c-.95.04-1.78.04-2.47.03-.69 0-1.83-.03-2.53-.07-.7-.03-1.33-.07-1.4-.08-.07-.02-.14 0-.16.04" class="shp2"/><path d="M129.68 175.22c-.24.09-.65.23-.92.33s-.49.21-.49.25c0 .03.14.42.3.85.16.44.32.79.35.79s.43-.14.89-.3c.51-.2.89-.37.99-.46.09-.09.2-.25.26-.37.06-.13.1-.31.1-.42s-.04-.27-.1-.36a1.1 1.1 0 0 0-.26-.26c-.09-.06-.28-.12-.43-.15-.23-.04-.32-.03-.69.1" class="shp1"/></svg>