<svg height="200" width="187" xmlns="http://www.w3.org/2000/svg"><path d="M89.89.07c-.64.03-1.66.11-2.27.16-.61.06-1.69.18-2.41.27-.71.09-1.84.26-2.5.37-.67.11-1.78.32-2.48.47-.69.15-1.81.41-2.47.57s-1.77.46-2.47.66-1.93.58-2.74.84-2.21.74-3.11 1.07-2.39.9-3.31 1.27c-.92.36-2.03.81-2.47 1-.44.18-1.83.78-3.08 1.33s-4.51 2.03-7.25 3.29c-2.74 1.25-5.46 2.5-6.05 2.76-.58.27-2.04.91-3.24 1.44-1.19.52-3.01 1.31-4.04 1.75s-2.52 1.05-3.31 1.37c-.79.31-1.81.7-2.27.86-.46.17-1.29.45-1.84.62s-1.51.44-2.14.6c-.62.16-1.46.35-1.87.43-.4.07-1.14.19-1.64.26-.49.07-1.32.16-1.83.2-.52.04-1.36.07-1.88.07-.51 0-1.46-.04-2.1-.1s-1.49-.15-1.87-.2c-.39-.06-1.15-.19-1.71-.3-.55-.11-1.39-.31-1.87-.44s-1.54-.5-2.35-.83c-.82-.33-1.74-.66-2.04-.75-.31-.09-.71-.18-.9-.2-.2-.02-.36-.02-.36.01 0 .02.29 1.32.64 2.88.36 1.56 1.11 4.98 1.68 7.6s1.33 6.18 1.7 7.9.91 4.29 1.2 5.7c.28 1.41.66 3.3.83 4.2s.38 2.1.47 2.67c.08.56.14 1.04.13 1.05-.02.01-.17-.07-.35-.17-.17-.1-.98-.59-1.78-1.09-.81-.5-2.56-1.59-3.88-2.43-1.32-.83-2.99-1.88-3.71-2.32-.72-.43-1.78-1.07-2.37-1.41s-1.48-.82-1.97-1.08c-.5-.26-1.18-.58-1.51-.71s-.72-.26-.87-.28l-.26-.05c.07 1.02.2 1.95.33 2.72.12.77.34 1.95.47 2.63s.41 2.09.63 3.14c.22 1.04.95 4.33 1.63 7.3s1.63 7.24 2.11 9.5c.49 2.25 1.24 5.82 1.68 7.93.45 2.11 1.18 5.68 1.64 7.93.46 2.26 1.21 5.95 1.67 8.2.45 2.26 1.23 6.05 1.73 8.44.49 2.38 1.27 6.08 1.73 8.23s1.2 5.49 1.65 7.43c.44 1.95 1.17 5.14 1.61 7.1s1.44 6.66 2.23 10.44c.79 3.77 1.72 8.2 2.07 9.83s.69 3.12.75 3.3.22.56.37.83c.15.28.4.67.55.87.16.2.52.59.81.87.29.27.79.69 1.1.94.31.24 1.33.97 2.27 1.62.94.66 2.04 1.45 2.45 1.76.41.32 1.57 1.24 2.58 2.05 1 .81 3.69 2.87 5.96 4.58 2.28 1.71 5.92 4.45 8.09 6.09s6.07 4.57 8.66 6.52 6 4.5 7.58 5.67a540 540 0 0 0 11.1 8c1.76 1.24 3.84 2.72 4.61 3.29.77.56 3 2.25 4.94 3.74 1.95 1.49 4.16 3.18 4.92 3.75.75.57 1.86 1.39 2.47 1.83s1.51 1.07 2 1.41l.91.61c1.14-.59 1.95-1.09 2.54-1.49.58-.41 1.73-1.21 2.54-1.8.8-.58 2.07-1.51 2.8-2.06.74-.56 2.54-1.92 4.01-3.04s3.13-2.38 3.68-2.81c.55-.42 12.55-9.38 26.66-19.9 14.12-10.52 26.3-19.59 27.07-20.15.77-.57 1.52-1.14 1.66-1.27.15-.15.29-.37.34-.54s.12-.57.14-.9.15-1.25.29-2.04l.25-1.43c.36-.07-.17-.08-.94-.06l-1.4.03c-.4.44-.57.68-.64.83s-.15.5-.17.8c-.03.32-.1.64-.18.8-.07.15-.36.49-.64.77-.28.27-1.37 1.13-2.41 1.9s-12.12 9.01-24.63 18.32c-12.5 9.31-25.1 18.71-28 20.9s-5.93 4.47-6.75 5.07c-.81.59-1.97 1.44-2.58 1.87s-1.51 1.06-2.01 1.39c-.49.33-1.06.69-1.27.8l-.36.21c-3.53-2.5-5.63-4.03-6.95-5-1.33-.97-4.15-3.07-6.29-4.66-2.13-1.6-7.77-5.85-12.53-9.44-4.76-3.6-16.17-12.19-25.36-19.09s-16.76-12.6-16.83-12.66c-.08-.08-.26-.72-.55-1.95-.24-1.01-1.02-4.43-1.74-7.6-.71-3.17-2.02-9.05-2.9-13.06-.89-4.02-2.43-11.02-3.42-15.57S14.04 94.86 12.99 90L9.48 73.6c-.88-4.16-2.2-10.48-2.94-14.03-.73-3.56-1.55-7.75-1.83-9.3-.27-1.56-.49-2.84-.48-2.85s3.82 2.22 8.47 4.96c4.65 2.73 8.51 4.99 8.57 5.01.11.04.11.02.02-.36-.05-.22-1.64-7.74-3.52-16.71-1.89-8.97-3.42-16.33-3.4-16.35s1.3.11 2.84.3c1.54.18 3.36.38 4.03.43.67.06 1.84.1 2.6.1.77 0 1.85-.05 2.43-.1.57-.06 1.47-.18 2-.27s1.3-.24 1.7-.34c.41-.09 1.09-.25 1.51-.37.42-.11 1.37-.37 2.1-.59.74-.22 1.85-.56 2.48-.77.62-.2 1.6-.54 2.17-.74s1.77-.66 2.67-1.02 2.45-1.01 3.44-1.45c1-.44 2.38-1.07 3.08-1.4s1.97-.95 2.84-1.37c.86-.42 3.12-1.52 5.01-2.44 1.89-.93 4.3-2.08 5.35-2.57s2.73-1.24 3.74-1.67 2.59-1.08 3.51-1.44c.92-.35 2.48-.92 3.47-1.26 1-.33 2.38-.77 3.08-.98.7-.2 1.84-.51 2.54-.69s1.92-.46 2.71-.62c.79-.17 2.08-.41 2.87-.54s1.92-.29 2.51-.37c.58-.07 1.74-.19 2.57-.27.83-.07 2.52-.16 3.77-.21 1.79-.06 2.72-.06 4.32 0 1.12.05 2.58.13 3.24.18.66.06 1.58.15 2.04.2.45.06 1.27.16 1.8.24.53.07 1.31.19 1.74.27.42.07 1.31.24 1.97.36a76.375 76.375 0 0 1 5.68 1.4c.81.23 2.03.61 2.71.83.68.23 1.68.58 2.24.78.55.2 1.39.52 1.87.7a124.915 124.915 0 0 1 5.74 2.42c.92.41 2.44 1.11 3.38 1.55s3.18 1.51 4.98 2.38 3.98 1.92 4.84 2.32c.87.4 2.43 1.12 3.48 1.6 1.05.47 2.36 1.06 2.91 1.3.55.23 1.54.65 2.2.92s1.84.72 2.61 1.02c.77.29 1.82.66 2.34.83.51.17 1.31.41 1.77.54s1.23.32 1.7.43c.48.11 1.38.31 2.01.43.62.13 1.63.31 2.24.41.6.09 1.57.22 2.14.28.67.07 1.61.11 2.67.11 1.27 0 1.86-.04 2.64-.14.55-.08 1.63-.23 2.41-.35.77-.11 1.85-.25 2.4-.3.55-.04 1.01-.08 1.02-.07.01 0-.43 2.11-.98 4.67-.55 2.57-2.15 10.01-3.55 16.54-1.4 6.52-2.53 11.91-2.52 11.97.01.09 2.11-1.11 8.6-4.87 4.73-2.75 8.6-4.99 8.61-4.98 0 0-3.73 17.68-8.31 39.28-4.57 21.59-8.3 39.27-8.3 39.28.01.01.51.18 1.12.37l1.1.36.74-.3c.7-2.41 1.31-4.9 1.81-7.08.49-2.18 1.44-6.49 2.1-9.57.65-3.08 1.78-8.42 2.5-11.86.72-3.45 2.5-12 3.95-19 1.45-7.01 3.18-15.32 3.85-18.47.66-3.15 1.62-7.61 2.14-9.9.51-2.29 1.03-4.62 1.16-5.17s.27-1.35.33-1.78.1-1.07.1-1.42v-.63c-.39.06-.71.16-.97.25-.25.09-.87.37-1.37.62-.49.25-1.41.74-2.03 1.1-.63.35-1.68.98-2.34 1.38-.67.41-2.65 1.65-4.41 2.77-1.77 1.12-3.72 2.35-4.35 2.72-.62.38-1.14.67-1.15.64-.02-.03.86-4.44 1.95-9.81 1.09-5.38 2.13-10.5 2.31-11.4.19-.9.61-2.88.94-4.4.32-1.52.77-3.57 1-4.54.22-.97.4-1.79.4-1.81 0-.03-.14-.04-.32-.01-.17.02-.78.19-1.35.39-.57.19-1.5.52-2.07.72s-1.46.49-1.98.64c-.51.14-1.34.36-1.83.47-.5.1-1.37.27-1.94.36-.57.1-1.46.21-1.97.25-.73.06-1.23.06-2.24 0-.72-.04-1.79-.14-2.38-.21-.58-.08-1.47-.21-1.97-.3-.49-.09-1.4-.27-2-.4-.61-.13-1.41-.33-1.77-.43-.37-.11-1.35-.42-2.18-.7-.82-.29-2.31-.84-3.3-1.23-1-.4-2.6-1.07-3.58-1.49-.97-.42-2.61-1.16-3.64-1.63-1.03-.48-3.44-1.61-5.35-2.52s-4.36-2.06-5.44-2.56c-1.09-.51-2.74-1.25-3.68-1.65-.94-.41-2.8-1.2-4.14-1.75-1.35-.56-3.03-1.26-3.75-1.55-.71-.29-2-.78-2.85-1.09-.86-.31-2.23-.76-3.05-.99-.81-.24-2.11-.59-2.89-.77-.77-.19-2.24-.52-3.27-.73-1.03-.22-2.44-.5-3.14-.63s-1.69-.3-2.21-.37c-.51-.08-1.43-.2-2.04-.28-.6-.07-1.82-.19-2.7-.26-1.14-.1-2.36-.15-4.21-.16-1.44-.02-3.14 0-3.78.03" fill="#21cb35"/><path d="M90.63 3.34c-.72.03-1.89.1-2.61.16s-1.81.17-2.44.24c-.62.07-1.72.22-2.44.33s-2.05.35-2.97.54c-.92.18-2.31.49-3.08.69s-1.97.52-2.67.72c-.7.21-2.08.65-3.08.98-.99.34-2.55.91-3.47 1.26-.92.36-2.5 1.01-3.51 1.44s-2.69 1.18-3.74 1.67-3.46 1.64-5.35 2.57c-1.89.92-4.15 2.02-5.01 2.44-.87.42-2.14 1.04-2.84 1.37s-2.08.96-3.08 1.4c-.99.44-2.54 1.09-3.44 1.45s-2.1.82-2.67 1.02-1.55.54-2.17.74c-.63.21-1.74.55-2.48.77-.73.22-1.68.48-2.1.59-.42.12-1.1.28-1.51.37-.4.1-1.17.25-1.7.34s-1.43.21-2 .27c-.58.05-1.66.1-2.43.1-.76 0-1.93-.04-2.6-.1-.67-.05-2.49-.25-4.03-.43-1.54-.19-2.82-.32-2.84-.3s1.51 7.38 3.4 16.35c1.88 8.97 3.47 16.49 3.52 16.71.09.38.09.4-.02.36-.06-.02-3.92-2.28-8.57-5.01-4.65-2.74-8.46-4.97-8.47-4.96s.21 1.29.48 2.85c.28 1.55 1.1 5.74 1.83 9.3.74 3.55 2.06 9.87 2.94 14.03L12.99 90c1.05 4.86 2.72 12.55 3.71 17.1s2.53 11.55 3.42 15.57c.88 4.01 2.19 9.89 2.9 13.06.72 3.17 1.5 6.59 1.74 7.6.29 1.23.47 1.87.55 1.95.07.06 7.64 5.76 16.83 12.66s20.6 15.49 25.36 19.09c4.76 3.59 10.4 7.84 12.53 9.44 2.14 1.59 4.96 3.69 6.29 4.66 1.32.97 3.42 2.5 4.67 3.38l2.28 1.62a24 24 0 0 0 1.63-1.01c.5-.33 1.4-.96 2.01-1.39s1.77-1.28 2.58-1.87c.82-.6 3.85-2.88 6.75-5.07s15.5-11.59 28-20.9c12.51-9.31 23.59-17.55 24.63-18.32s2.13-1.63 2.41-1.9c.28-.28.57-.62.64-.77.08-.16.15-.48.18-.8.02-.3.1-.65.17-.8s.24-.4.38-.55l.26-.29c4.09-.09 8.49-.2 12.43-.3 4.75-.12 7.18-.21 7.24-.25.07-.06.09-.21.05-.69-.02-.38-.1-.77-.19-1a2.4 2.4 0 0 0-.48-.75c-.19-.19-.69-.59-1.11-.89-.53-.37-1.03-.8-1.63-1.41-.47-.48-1.41-1.48-2.07-2.23-.67-.76-1.48-1.67-1.8-2.04-.33-.37-1.12-1.22-1.76-1.9-.63-.68-1.48-1.53-1.88-1.88-.39-.36-1.04-.9-1.43-1.2-.39-.31-.98-.72-1.3-.92-.46-.29-.84-.45-1.76-.75-.65-.21-1.18-.39-1.19-.4 0-.01 3.73-17.69 8.3-39.28 4.58-21.6 8.31-39.28 8.31-39.28-.01-.01-3.88 2.23-8.61 4.98-6.49 3.76-8.59 4.96-8.6 4.87-.01-.06 1.12-5.45 2.52-11.97 1.4-6.53 3-13.97 3.55-16.54.55-2.56.99-4.67.98-4.67-.01-.01-.47.03-1.02.07-.55.05-1.63.19-2.4.3-.78.12-1.86.27-2.41.35-.78.1-1.37.14-2.64.14-1.06 0-2-.04-2.67-.11-.57-.06-1.54-.19-2.14-.28-.61-.1-1.62-.28-2.24-.41-.63-.12-1.53-.32-2.01-.43-.47-.11-1.24-.3-1.7-.43s-1.26-.37-1.77-.54c-.52-.17-1.57-.54-2.34-.83-.77-.3-1.95-.75-2.61-1.02s-1.65-.69-2.2-.92c-.55-.24-1.86-.83-2.91-1.3-1.05-.48-2.61-1.2-3.48-1.6-.86-.4-3.04-1.45-4.84-2.32s-4.04-1.94-4.98-2.38-2.46-1.14-3.38-1.55A125 125 0 0 0 119 8.28c-.48-.18-1.32-.5-1.87-.7-.56-.2-1.56-.55-2.24-.78-.68-.22-1.9-.6-2.71-.83a76 76 0 0 0-5.68-1.4c-.66-.12-1.55-.29-1.97-.36-.43-.08-1.31-.21-1.97-.3-.67-.09-1.63-.21-2.14-.27-.52-.06-1.37-.13-1.91-.17-.53-.04-1.61-.1-2.4-.14a67 67 0 0 0-5.48.01" fill="#1f1d1c"/><path d="M97.31 8.78c-.13.01-.46.07-.74.13-.27.05-.69.17-.93.27-.24.09-.5.22-.57.29-.07.06-.2.34-.28.61-.09.27-.18.71-.22.99-.03.27-.1 1.07-.14 1.76-.05.83-.06 2.18-.04 3.87.02 1.47.09 3.04.14 3.6.06.55.14 1.15.2 1.33.06.2.21.47.39.66.16.18.41.41.55.51.15.1.46.25.7.34.41.14.6.15 3.21.21 1.53.03 3.54.07 4.48.07l1.7.01c.72-.34.79-.41.91-.68.07-.17.22-.84.33-1.48s.3-1.55.43-2.02.24-.87.24-.9-.76-.09-1.69-.14c-.93-.04-1.91-.1-2.19-.12l-.5-.04-.45 2.45c-1.36.2-2.03.26-2.36.26-.34 0-.71-.04-.86-.09s-.38-.19-.51-.31c-.12-.11-.3-.36-.38-.55-.1-.22-.18-.61-.23-1.06-.05-.48-.06-1.51-.03-3.08.03-1.5.08-2.63.14-3.07.05-.39.1-.72.1-.75s.91-.05 2.01-.05 2 .02 2 .05.07.62.15 1.32c.08.69.14 1.27.15 1.28 0 0 1.04.07 2.31.15 1.27.07 2.31.12 2.32.12.01-.01-.07-.29-.18-.62-.1-.33-.24-.89-.29-1.23-.06-.35-.15-.95-.22-1.34-.06-.38-.18-.91-.28-1.16-.09-.26-.21-.55-.26-.65-.06-.12-.15-.2-.27-.21-.1-.01-.58-.11-1.05-.2-.48-.1-1.25-.23-1.71-.28-.46-.06-1.32-.15-1.9-.2-.59-.05-1.72-.09-2.51-.09-.79.01-1.54.03-1.67.04m-12.46.27c-3.09.1-5.63.17-5.64.18 0 0 .11.36.25.8s.32 1.07.4 1.4.2.96.28 1.4c.07.44.16 1.25.2 1.8.05.59.06 1.54.04 2.3-.02.72-.09 1.66-.14 2.1-.06.44-.17 1.15-.24 1.57-.08.42-.23 1.11-.34 1.53-.1.42-.25.95-.33 1.17-.07.22-.11.41-.09.43s1.29-.03 2.82-.12c1.53-.08 2.89-.16 3.02-.18l.23-.04c-.59-1.21-.83-1.8-.9-2.09-.1-.37-.14-.75-.15-1.23 0-.42.04-.89.11-1.17.06-.26.12-.48.14-.5.03-.02.4-.03.82-.03.62 0 .89.04 1.29.16.27.08.74.26 1.03.39.3.12.6.25.69.29l.15.06c0-4.58-.02-5.14-.09-5.14-.04 0-.41.2-.81.44-.41.24-.91.5-1.11.58-.31.12-.5.14-1.21.15-.47 0-.86-.01-.88-.03s-.05-.77-.08-1.67l-.04-1.63c.81-.23 1.33-.35 1.68-.41.45-.08.88-.1 1.5-.08.7.03.97.07 1.41.21.29.09.97.4 1.52.67.54.28 1.01.51 1.05.51s.06-.71.06-2v-2c-.8.01-3.56.09-6.64.18" fill="#21cb35"/><path d="M115.41 21.39l.01 2.98c5.05.97 7.27 1.41 8.19 1.6.92.2 2.6.57 3.74.83 1.14.27 2.96.7 4.04.97a171 171 0 0 1 6.62 1.79c.68.2 2.53.74 4.11 1.2s3.48 1 4.21 1.2c.74.2 1.82.48 2.41.63s1.64.39 2.34.54c.7.14 1.6.31 2 .37.41.05.75.09.77.07s-.07-.07-.2-.13c-.13-.05-.82-.35-1.54-.67-.71-.32-2.37-1.05-3.67-1.62-1.31-.56-3.68-1.58-5.28-2.25s-4.31-1.8-6.02-2.5-4.31-1.76-5.78-2.35c-1.47-.58-3.29-1.3-4.04-1.6-.76-.29-2.09-.8-2.98-1.13-.88-.33-2.49-.91-3.57-1.29-1.09-.37-2.35-.79-2.81-.93s-1.22-.35-1.69-.47l-.86-.22zm-45-2.73c-.48.1-1.37.33-1.97.5-.61.17-1.75.54-2.54.8-.79.27-2.09.73-2.88 1.03-.79.29-2.05.77-2.8 1.08-.76.3-2.31.93-3.44 1.41-1.14.48-2.71 1.15-3.48 1.49s-5.61 2.36-10.76 4.5c-5.15 2.13-9.39 3.9-9.42 3.93-.04.04.06.07.27.07.18 0 .84-.11 1.46-.23.63-.13 1.88-.41 2.78-.64.9-.22 2.15-.54 2.77-.71.63-.16 3.36-.92 6.08-1.69 2.83-.79 6.1-1.66 7.62-2.03 1.47-.35 4.87-1.1 7.55-1.67 2.69-.57 5.97-1.29 7.29-1.6s2.43-.57 2.45-.57c.03 0 .05-1.32.05-2.93 0-2.31-.01-2.93-.08-2.93-.04.01-.47.09-.95.19" fill="#d9232e"/><path d="M85.21 25.64c-1.12.04-2.18.08-2.35.09h-.32c-2.53 2.92-3.26 3.78-3.25 3.79 0 .01.96-.03 2.13-.09 1.17-.05 2.23-.1 2.37-.1.23 0 .45-.15 2.49-1.8 1.23-.99 2.28-1.85 2.34-1.9.08-.08 0-.1-.64-.09-.4.01-1.65.05-2.77.1m12.54 6.28c.17.32.47.88.66 1.25.19.36.4.89.47 1.16.13.48.13.81.13 8.6v8.1c-.23.8-.38 1.19-.47 1.39-.1.19-.3.54-.46.78-.15.24-.35.56-.43.72-.07.15-.13.29-.12.3.01.02 1.98.1 4.39.2s4.39.16 4.4.14c0-.01-.23-.48-.52-1.04s-.61-1.22-.7-1.47-.2-.59-.25-.77c-.04-.2-.07-1.28-.08-2.96-.01-2.32 0-2.65.09-2.65.06 0 .87.05 1.82.12.94.06 1.74.14 1.78.18.03.03.14.3.25.6.1.29.43 1.07.73 1.73s.69 1.54.86 1.97c.16.42.36 1 .44 1.3.08.29.14.71.14.93-.01.24-.06.51-.13.67-.06.14-.25.46-.41.7s-.34.56-.41.71c-.07.16-.12.3-.11.31s.59.09 1.29.17c.7.07 2.76.3 4.58.51 1.82.2 3.31.35 3.32.33s-.34-.61-.77-1.32c-.43-.7-1.01-1.67-1.28-2.15-.27-.47-.77-1.42-1.1-2.1-.34-.67-.84-1.81-1.13-2.53-.28-.71-.51-1.32-.51-1.35s.47-.28 1.05-.56c.88-.42 1.12-.57 1.42-.88.29-.29.4-.47.5-.78.12-.36.13-.68.15-3.8.02-2.26 0-3.68-.05-4.23-.04-.46-.13-1.01-.2-1.23s-.24-.58-.39-.8-.38-.51-.52-.65c-.14-.13-.44-.34-.66-.47-.22-.12-.53-.27-.7-.33s-.48-.16-.7-.21c-.22-.06-.6-.13-.84-.17s-.85-.11-1.37-.17c-.51-.06-1.85-.18-2.97-.27s-2.72-.21-3.54-.27c-.83-.05-2.41-.14-3.51-.2-1.11-.05-2.56-.1-3.24-.1h-1.22zm-14.93-.26l-4.43.17c-.45 1.4-.73 2.28-.89 2.87a61 61 0 0 0-.57 2.13c-.15.59-.65 2.81-1.13 4.94-.48 2.12-1.01 4.42-1.18 5.1-.17.67-.44 1.68-.6 2.23s-.46 1.48-.66 2.07c-.2.58-.54 1.47-.75 1.96-.21.5-.54 1.23-.74 1.62-.36.71-.36.72-.19.72.09 0 1.99-.19 4.23-.41 2.23-.22 4.06-.42 4.07-.43.01-.02-.14-.41-.34-.88s-.41-1.04-.47-1.28a4.5 4.5 0 0 1-.11-.9c0-.26.05-.73.1-1.05l.1-.59a18.613 18.613 0 0 1 2.24-.43c.53-.08 1.47-.12 2.78-.14 1.46-.03 2.09-.01 2.43.05l.47.09c.13.72.17 1.2.17 1.53 0 .39-.04.78-.12 1.1-.07.28-.3.84-.51 1.25-.2.42-.36.77-.35.79 0 .02 1.93.01 4.27-.02 4.22-.05 4.26-.05 4.22-.18-.02-.08-.27-.54-.56-1.04-.28-.49-.62-1.11-.75-1.36-.12-.26-.29-.64-.37-.84s-.23-.68-.34-1.06c-.11-.39-.53-1.98-.94-3.54-.4-1.55-1.17-4.52-1.7-6.6-.53-2.07-1.21-4.73-1.52-5.91l-.56-2.15c-.67.01-2.86.09-5.3.19m-13.21 1.25c-.52.09-2.46.42-4.31.73-1.86.31-3.42.58-3.46.6-.06.02-.04.11.08.31.1.16.31.55.47.87.17.32.36.74.44.93.07.19.2.63.29.98s.19.88.23 1.17c.04.34.06 2.79.04 6.8-.02 5.58-.03 6.31-.13 6.67-.06.22-.16.5-.22.63s-.23.35-.38.5-.45.36-.67.48c-.22.11-.67.3-1 .41-.34.11-.85.25-1.14.31s-.84.13-1.2.15c-.43.02-.78.01-.97-.04-.26-.07-.32-.12-.46-.4-.09-.17-.2-.53-.25-.81s-.13-.99-.17-1.6c-.05-.75-.06-2-.02-3.93.03-1.56.06-4.04.06-5.5.01-2.2.03-2.77.12-3.24.06-.31.19-.82.29-1.13s.4-1 .67-1.53c.27-.54.48-.98.47-.99 0-.01-1.97.5-4.36 1.13-2.38.63-4.35 1.16-4.37 1.17s.08.26.22.54.46.84.7 1.25c.24.4.48.85.52 1 .04.14.1.56.13.93.02.37.01 3.32-.03 6.57-.05 4.07-.05 6.35-.01 7.36.04.81.1 1.74.14 2.07s.13.87.2 1.2c.13.6.13.6.38.68.14.04.46.12.72.16.29.05.8.06 1.34.04.55-.02 1.15-.1 1.64-.2.42-.1 1.05-.26 1.4-.37.35-.1 1.27-.39 2.04-.64s2.51-.74 3.87-1.11c1.36-.36 2.79-.76 3.18-.9.38-.13.87-.33 1.07-.43.2-.11.53-.34.73-.52.22-.19.46-.49.58-.72.12-.21.26-.58.33-.82.06-.24.15-.78.2-1.2.07-.57.09-1.8.09-4.8 0-2.22-.03-5.25-.06-6.74-.04-1.77-.04-2.96 0-3.46.04-.43.14-1.06.24-1.4.09-.35.32-1 .51-1.44.18-.44.45-1.03.6-1.31.14-.29.25-.54.25-.55 0-.02-.02-.03-.05-.03-.02 0-.47.08-.98.17m52.34 1.37c.13.31.38.91.56 1.35.19.47.4 1.14.5 1.6.15.73.17 1.03.23 3.27.04 1.36.08 3.55.11 4.87.03 1.52.01 3.02-.04 4.1-.04.93-.12 2.07-.17 2.53-.06.46-.17 1.13-.24 1.5-.08.37-.21.89-.3 1.17-.08.27-.32.77-.53 1.11-.2.34-.36.63-.35.64s.86.28 1.89.6 3.06.91 4.51 1.32c1.45.4 3.93 1.08 5.51 1.5 1.58.43 3.54.92 4.35 1.1s1.47.32 1.48.31c0-.01.02-1.24.05-2.73.02-1.5.02-2.72-.01-2.72s-.31.09-.62.19c-.31.11-.81.25-1.1.31-.3.06-.88.13-1.31.15-.44.02-1.04 0-1.43-.05-.37-.04-1.03-.17-1.47-.28s-1.51-.43-2.38-.72c-.86-.29-1.72-.59-1.9-.66l-.33-.13c-.09-4.42-.09-5.73-.07-5.74.02-.02.29 0 .59.05.3.04.77.14 1.05.2.27.07.72.23 1 .36.38.17.76.44 1.56 1.12.59.5 1.07.92 1.09.95.01.03.14.12.29.22.15.09.28.16.29.15.02-.01.05-1.64.08-3.62.04-3.08.04-3.59-.04-3.56-.05.03-.53.17-1.07.32-.53.16-1.22.32-1.53.36-.51.07-.65.06-1.31-.08a15 15 0 0 1-1.35-.35l-.62-.19v-5.6c.6.06 1.12.12 1.54.18.42.05 1.08.17 1.47.26s.88.22 1.1.29.6.2.84.29.7.29 1.03.44c.33.16.86.44 1.17.63.32.19.81.52 1.11.74.29.21.84.69 1.22 1.06l.68.68c0-2.23.02-3.47.05-4.2l.04-1.34c-.82-.32-1.58-.58-2.23-.79-.64-.21-1.81-.57-2.6-.8-.8-.24-2.06-.59-2.81-.8-.76-.2-1.85-.49-2.44-.63-.59-.15-1.67-.4-2.41-.57-.73-.16-1.72-.37-2.2-.47-.48-.09-1.25-.23-1.71-.3-.46-.08-.88-.14-.95-.14-.09 0-.07.09.13.55" fill="#21cb35"/><path d="M83.06 35.48c-.1.16-.27.52-.38.8-.12.29-.31.87-.45 1.3-.13.43-.37 1.33-.53 1.99-.17.66-.49 2.16-.73 3.33-.23 1.17-.44 2.23-.46 2.35l-.04.22c.54-.05 1.69-.1 2.9-.14 1.22-.05 2.23-.09 2.24-.11.02-.02.03-.38.03-.81-.01-.61-.06-1.02-.25-1.94-.13-.64-.35-1.58-.47-2.07-.13-.49-.42-1.52-.64-2.27-.23-.75-.55-1.71-.72-2.13-.16-.42-.3-.78-.31-.79s-.1.11-.19.27m21.74 3.05l-.01 3.27c.39.1.9.2 1.37.29.48.09 1.17.2 1.53.24.35.04.96.07 1.33.07.38 0 .9-.05 1.15-.1.26-.06.59-.17.74-.25.16-.09.31-.25.38-.38.06-.13.17-.46.23-.74.1-.39.12-.77.12-1.76 0-1.02-.02-1.36-.12-1.7-.07-.24-.18-.54-.24-.67-.07-.13-.24-.35-.4-.48-.15-.14-.35-.3-.45-.35-.11-.05-.38-.15-.62-.23a10 10 0 0 0-1.04-.23c-.33-.06-1.07-.12-1.64-.14s-1.32-.05-1.68-.07l-.65-.04z" fill="#1f1d1c"/><path d="M38.9 40.47c-4.14 1.02-7.6 1.87-7.69 1.88l-.17.04c-.07 4.17-.09 5.38-.08 5.39s.24-.12.52-.3c.3-.2.69-.53.97-.85.32-.35.61-.6.87-.74.22-.12.68-.31 1.03-.42.35-.12.98-.3 1.41-.4.42-.11 1.32-.32 2-.47s1.35-.3 1.49-.34l.25-.06v15.6c-.75.35-1.29.56-1.67.7-.39.13-.88.28-1.11.33-.22.05-.62.11-.9.14-.31.03-.63.02-.83-.03-.19-.04-.47-.16-.64-.26-.19-.12-.36-.31-.48-.52-.14-.24-.19-.46-.23-.86-.02-.37 0-.73.07-1.15.06-.34.23-.98.37-1.43.15-.45.26-.83.26-.83-.01-.01-1.21.13-2.66.31s-2.98.36-3.4.41-.79.11-.82.12c-.04.02-.01.27.07.57.07.29.21.95.3 1.47.09.51.23 1.56.31 2.33s.2 1.66.26 1.97c.07.31.2.71.29.9.09.18.29.44.43.58.14.13.42.32.62.41s.61.2.9.25c.34.04.91.06 1.54.03.55-.02 1.48-.09 2.07-.14.59-.06 1.49-.16 2.01-.24.51-.07 1.29-.21 1.73-.3.45-.09 1.21-.28 1.71-.43s1.2-.42 1.57-.59.85-.44 1.07-.58c.22-.15.59-.45.83-.67.23-.21.56-.57.72-.79.17-.22.41-.64.55-.93.14-.3.32-.75.4-1 .08-.26.21-.86.29-1.34.13-.77.14-1.1.14-3-.01-1.17-.06-3.14-.12-4.36-.06-1.23-.1-3.35-.1-4.72s.03-2.85.07-3.3.15-1.06.23-1.37c.09-.3.42-1.05.73-1.66.31-.62.57-1.14.57-1.17s-.05-.05-.12-.04c-.06 0-3.5.84-7.63 1.86m104.37.67c-.02.9-.05 2.13-.05 2.74 0 .62.02 1.12.04 1.12s.31-.11.65-.24.95-.33 1.35-.44c.46-.12.99-.21 1.41-.23.4-.03.92-.01 1.3.04.35.05 1.09.21 1.64.37s1.31.4 1.7.54.71.25.72.25c.01.01-.2.46-.46 1.01s-.7 1.42-.98 1.93c-.27.52-.85 1.54-1.27 2.27s-1.44 2.46-2.25 3.83c-.82 1.38-1.77 2.98-2.11 3.57s-.89 1.56-1.22 2.17c-.33.6-.65 1.23-.72 1.4-.06.16-.17.41-.22.55l-.11.25c1.22.5 2.01.79 2.54.95.53.17 1.51.44 2.17.6.66.17 1.75.41 2.41.54s1.73.33 2.37.44 1.83.27 2.64.37c.96.11 2.04.19 3.12.22l1.66.04v-5.5c-.49.21-.93.49-1.28.76-.36.26-.81.54-1.01.61-.31.12-.51.13-1.59.13-1.09-.01-1.38-.03-2.44-.22-.66-.12-1.47-.26-1.8-.32-.33-.05-.69-.09-.79-.09s-.2-.03-.21-.07c-.02-.03.04-.28.13-.55.1-.26.47-1.06.84-1.78.36-.72 1.29-2.44 2.07-3.83.78-1.4 2.08-3.72 2.88-5.17.81-1.45 1.7-3.1 1.98-3.67.27-.57.68-1.46.89-2 .21-.53.38-.97.38-.98-.01-.01-.42-.09-.92-.18s-1.52-.26-2.27-.37c-.76-.1-1.76-.26-2.24-.33-.48-.08-1.47-.26-2.21-.4-.73-.15-2.27-.54-3.41-.86-1.14-.33-2.5-.69-3.04-.81-.53-.12-1.25-.23-1.6-.25l-.64-.03z" fill="#21cb35"/><path d="M97.43 57.92c.06.17.21.46.31.65.11.18.33.48.5.66.17.17.76.66 1.31 1.07.85.63 1.05.81 1.31 1.2.18.26.38.63.45.83.06.2.14.47.17.59.04.2.03.22-.23.31-.17.07-.5.1-.92.1-.38 0-1.06-.07-1.65-.16-.55-.1-1.33-.2-1.74-.25-.44-.04-1.22-.06-1.97-.03-.68.02-1.7.1-2.27.18-.57.07-1.44.21-1.94.3s-1.44.3-2.11.46c-.66.16-1.77.46-2.47.66s-2.32.68-3.61 1.07c-1.28.38-2.94.86-3.67 1.07-.74.2-1.7.45-2.14.56s-1.24.29-1.77.4c-.54.11-1.38.26-1.87.33-.5.08-1.33.17-1.84.22-.58.05-1.43.06-2.24.04-.72-.02-1.67-.09-2.11-.14s-1.17-.16-1.63-.24-1.31-.24-1.88-.37c-.56-.12-1.72-.4-2.57-.62-.84-.22-1.55-.39-1.57-.37-.02.01.07.2.19.41.13.21.38.59.57.85.2.26.59.68.88.94.29.25.71.59.93.74.22.14.63.39.91.54.27.15.86.41 1.3.58s1.15.41 1.57.54c.42.12 1.04.28 1.37.35.33.08 1.04.21 1.57.3.53.1 1.57.25 2.31.34.73.09 2.43.27 3.77.41s2.46.27 2.49.3-.09.26-.26.51c-.18.24-.67.79-1.09 1.22-.42.42-1.09 1.04-1.49 1.37s-1.09.85-1.54 1.17-1.26.85-1.82 1.18c-.55.33-1.25.73-1.57.89-.31.17-.9.44-1.3.62-.4.17-1.1.44-1.54.58-.44.15-1.48.4-2.34.56-.84.16-1.8.36-2.14.44-.33.08-.85.25-1.16.37-.32.13-.6.25-.63.27-.02.03.26.16.64.29.38.14.85.3 1.05.35.21.06.72.17 1.14.25.64.12 1.02.15 2.24.15 1.07 0 1.68-.03 2.24-.11.42-.07 1.05-.18 1.4-.26.35-.07 1.01-.24 1.47-.37s1.26-.38 1.77-.57c.52-.18 1.42-.54 2.01-.79.59-.26 1.58-.73 2.2-1.06.63-.32 2.36-1.28 3.85-2.13s3.26-1.83 3.94-2.17 1.57-.75 1.97-.92c.41-.17 1.05-.41 1.44-.54.38-.14 1.22-.38 1.85-.54.64-.17 1.67-.39 2.31-.5.63-.1 1.74-.26 2.46-.33.71-.08 1.46-.16 1.67-.19l.36-.05c-1.55-.81-2.48-1.3-3.07-1.6-.59-.31-1.3-.64-1.57-.75-.28-.11-.8-.28-1.17-.37s-1.05-.22-1.5-.28c-.61-.08-1.51-.12-3.23-.14-1.31-.01-2.39-.05-2.39-.07 0-.03.2-.16.45-.3.25-.13.75-.36 1.12-.51.37-.14 1.05-.37 1.51-.5s1.19-.31 1.63-.4c.44-.1 1.19-.23 1.66-.31.47-.07 1.4-.19 2.07-.26s2.11-.17 3.19-.21c1.44-.05 2.44-.06 3.71 0 .96.04 2.2.11 2.77.17s1.46.16 1.97.24c.52.08 1.38.23 1.91.34.53.1 1.36.31 1.84.45.48.15 1.18.39 1.57.55.38.16.93.42 1.2.58.3.17.48.31.44.34s-.48.3-.97.59c-.5.3-1.11.66-1.37.82-.25.16-.61.43-.78.61-.18.17-.4.44-.49.6-.09.15-.23.45-.3.66-.1.27-.11.38-.05.36.04-.01.47-.15.95-.3s1.32-.4 1.87-.54c.55-.15 1.42-.35 1.94-.46.51-.11 1.46-.28 2.1-.37.65-.09 1.67-.2 2.28-.24.62-.05 1.62-.06 2.3-.04.66.02 1.58.09 2.04.14.46.06 1.21.18 1.67.27s1.15.26 1.54.37c.38.11 1.12.35 1.63.54.52.2 1.33.55 1.81.79a23.4 23.4 0 0 1 3.01 1.86c.36.27.94.73 1.27 1.01.33.29.98.9 1.45 1.37.46.48 1.17 1.25 1.57 1.73.39.48 2.41 2.76 4.47 5.07s4.17 4.6 4.69 5.09c.67.65 1.12 1.16 1.61 1.82.37.5.68.94.68.97 0 .02-.25.02-.55-.01-.31-.03-.84-.11-1.19-.18-.35-.08-1.48-.34-2.51-.6-1.03-.25-2.19-.52-2.57-.6-.39-.07-1-.16-1.37-.19-.42-.04-.82-.04-1.07 0-.22.04-.39.08-.37.09s.31.22.65.46 1.11.7 1.71 1.01c.6.3 1.93.94 2.96 1.4 1.02.46 2.32 1.05 2.87 1.31s1.35.68 1.77.93c.42.24 1.02.64 1.34.88.31.24.9.76 1.3 1.16.41.4 1.41 1.42 2.22 2.29.81.86 1.71 1.79 2 2.06.29.28.84.82 1.23 1.2.5.49.77.82.92 1.1.11.22.25.58.32.8.09.32.11.59.09 1.32s-.05.93-.13.98c-.06.04-.34.13-.63.21-.3.08-.72.17-.94.2-.31.05-.48.04-.74-.03-.22-.07-.42-.2-.61-.39a2.7 2.7 0 0 1-.45-.69c-.1-.22-.27-.74-.38-1.16-.1-.43-.21-.78-.23-.79-.01-.01-.2.1-.41.23-.22.13-.55.38-.76.56-.2.17-.48.49-.63.7-.14.22-.33.59-.41.83-.1.28-.16.59-.16.87 0 .24.05.6.1.81.06.21.17.53.26.7.09.18.27.46.4.62s.43.46.66.65c.23.2.64.47.92.61s.7.32.94.39c.23.08.58.16.76.19.17.03.33.07.34.09s-.19.91-.44 1.97-.46 1.97-.46 2.02.12.08.41.08c.23 0 .62-.03.86-.07.23-.04.64-.14.9-.23s.68-.29.93-.45c.26-.15.92-.64 1.47-1.07.56-.44 1.17-.95 1.37-1.14.19-.19.43-.49.51-.67.09-.19.16-.43.16-.54s-.07-.47-.16-.8c-.08-.33-.23-.78-.31-1.01l-.16-.41c.25-.45.53-.89.79-1.28.25-.38.55-.88.65-1.1s.22-.59.27-.83c.05-.27.06-.67.04-1.07-.02-.34-.09-.81-.15-1.03s-.22-.64-.37-.93c-.14-.3-.45-.79-.69-1.1-.23-.31-.78-.94-1.23-1.4-.44-.46-1.36-1.36-2.05-2-.72-.67-2.58-2.57-4.34-4.44-1.69-1.79-3.29-3.49-3.54-3.76-.25-.28-.66-.76-.9-1.07s-.66-.82-.94-1.13c-.27-.31-.86-.96-1.31-1.44-.45-.47-1.24-1.39-1.77-2.03s-1.25-1.5-1.6-1.9c-.36-.4-.87-1-1.15-1.33-.27-.33-1.36-1.73-2.4-3.1-1.05-1.37-2.23-2.89-2.63-3.37-.4-.47-1.18-1.33-1.74-1.89-.55-.56-1.38-1.32-1.84-1.69s-1.09-.84-1.41-1.05c-.31-.21-.8-.52-1.1-.68a28.58 28.58 0 0 0-2.54-1.27c-.33-.14-.95-.39-1.37-.55s-1.05-.38-1.4-.49-.94-.28-1.31-.38c-.36-.09-.9-.2-1.2-.24-.31-.04-.8-.05-1.17-.02-.5.03-.68.02-.83-.06-.11-.05-1.14-1.01-2.28-2.12-1.31-1.29-2.34-2.23-2.8-2.58a10 10 0 0 0-1.67-1.01c-.52-.26-1.3-.59-1.74-.74s-1.47-.45-2.27-.68c-.81-.22-2.17-.56-3.01-.76-.85-.2-2.91-.66-4.6-1.03-1.68-.36-3.07-.66-3.09-.66-.01 0 .02.14.09.32" fill="#d9232e"/><path d="M103.46 60.83c0 .02.04.24.1.49.06.24.18.69.27.98.1.29.31.82.48 1.17.25.52.39.72.84 1.17.33.31.71.62.95.74.22.12 1.03.42 1.8.68.77.27 1.71.63 2.07.8.37.18 1.03.57 1.47.85.45.29.84.55.89.58.06.03.07-.02.04-.21-.02-.13-.1-.44-.17-.68s-.27-.7-.43-1.03c-.17-.33-.45-.8-.62-1.04-.18-.24-.65-.75-1.05-1.13-.43-.42-1.02-.9-1.46-1.19-.41-.27-1.16-.69-1.67-.94-.52-.25-1.16-.54-1.44-.64s-.77-.26-1.1-.36-.69-.2-.79-.23c-.1-.02-.18-.03-.18-.01" fill="#1f1d1c"/><path d="M16.24 65.22c0 .04 1.2 5.75 2.68 12.68 1.47 6.93 2.71 12.76 2.75 12.95l.08.35c.88-.06 1.49-.1 1.91-.14s1.1-.11 1.5-.17c.41-.05 1.14-.17 1.64-.26.5-.1 1.32-.27 1.84-.4.51-.12 1.39-.36 1.95-.53.56-.16 1.4-.44 1.86-.6l.83-.3c-.05-.34-.5-3.24-1.03-6.67s-1-6.4-1.04-6.6-.11-.53-.17-.73-.22-.57-.35-.83c-.16-.29-.4-.6-.65-.83-.22-.21-.61-.51-.87-.68-.25-.17-1.22-.73-2.14-1.23-.91-.5-2.19-1.22-2.84-1.58-.64-.37-1.8-1.06-2.57-1.54s-1.75-1.08-2.17-1.33c-.42-.26-1.3-.74-1.94-1.06s-1.19-.59-1.22-.59-.05.04-.05.09m153.65.24c-.39.17-.94.44-1.24.6-.29.16-.95.53-1.47.83-.51.29-2.21 1.32-3.77 2.3-1.56.97-3.46 2.1-4.21 2.5-.76.4-1.55.85-1.77 1a9 9 0 0 0-.73.57c-.18.17-.43.46-.55.66-.14.21-.28.57-.36.9-.08.3-.22 1.07-.33 1.71s-.34 2.07-.5 3.17c-.17 1.1-.39 2.51-.5 3.13-.11.63-.37 2.01-.58 3.07-.2 1.06-.42 2.25-.47 2.63-.05.39-.09 1.01-.09 1.39 0 .37.04.91.1 1.2.06.28.21.72.33.98s.37.66.55.9c.19.24.62.7.96 1.03s.76.74.93.9c.16.17 1.49 1.64 2.94 3.26 1.45 1.63 2.78 3.15 2.94 3.37.17.23.39.52.49.65.1.12.2.21.21.19s1.15-5.36 2.53-11.87c1.38-6.5 3.15-14.83 3.92-18.5.78-3.66 1.42-6.72 1.43-6.78s.01-.12-.02-.11c-.02 0-.35.14-.74.32M58.91 73.94c-.51.11-1.53.3-2.27.42-.73.13-2.24.34-3.34.47-1.1.14-2.7.33-3.54.44-.85.11-1.95.28-2.44.37-.5.09-1.3.27-1.77.4-.48.13-1.2.36-1.61.5-.4.15-1.02.42-1.37.6-.35.19-.81.46-1.03.61s-.64.47-.94.72c-.29.24-.71.65-.93.9-.22.26-.6.78-.86 1.16-.25.39-.63 1.03-.83 1.44-.2.4-.5 1.05-.66 1.45-.16.39-.29.74-.28.77.01.04.26-.07.55-.24.3-.17 1.22-.7 2.04-1.19.83-.48 1.76-1.02 2.07-1.18.32-.17.92-.44 1.34-.6s1.1-.39 1.5-.51a35.817 35.817 0 0 1 3.45-.73c.46-.07 1.73-.24 2.84-.37 1.1-.13 2.74-.33 3.64-.44s2.34-.32 3.21-.46c.86-.14 2.02-.37 2.57-.5s1.35-.35 1.77-.48 1.12-.37 1.54-.54c.42-.16.99-.41 1.27-.56l.6-.31c.08-.05.04-.1-.2-.25-.17-.1-.68-.33-1.14-.51s-1.09-.44-1.4-.57-.82-.36-1.14-.52a8 8 0 0 0-.93-.39c-.2-.06-.46-.11-.57-.1-.11 0-.62.09-1.14.2" fill="#d9232e"/><path d="M123.25 78.76c-.01.02.17.33.4.69.22.36.57.95.76 1.32.2.36.51 1.11.7 1.66.27.76.42 1.09.63 1.37.16.2.43.48.61.62.18.13.48.32.67.41.18.08.62.25.97.36s.99.28 1.43.37 1.14.21 1.54.27c.4.05 1.07.12 1.49.15.41.03.75.03.75 0 0-.02-.74-1.04-1.65-2.26-.9-1.22-1.86-2.49-2.12-2.81-.26-.33-.64-.74-.84-.92s-.54-.41-.74-.52-.55-.24-.77-.3c-.22-.05-.71-.14-1.1-.2-.38-.05-1-.11-1.37-.13-.37-.03-.82-.06-1.01-.08s-.35-.02-.35 0m-44.29 8.22c-3.45 1.63-13.57 6.43-22.49 10.65-11.79 5.58-16.2 7.7-16.19 7.77.01.05.25 1.58.52 3.4.28 1.81.52 3.31.54 3.32.01.01 5.8-3.63 12.85-8.08 7.04-4.45 16.63-10.5 21.3-13.44 4.67-2.95 8.67-5.49 8.89-5.65.22-.17.53-.43.68-.58.16-.15.29-.29.29-.32s-.03-.05-.05-.05c-.03 0-2.88 1.34-6.34 2.98" fill="#21cb35"/><path d="M50.23 84.97c-.11.02-.51.08-.87.14-.37.05-1.13.22-1.69.36-.56.15-1.49.43-2.07.64-.58.2-1.54.59-2.12.86-.59.28-1.34.65-1.68.84-.33.19-1.2.75-1.93 1.26-.74.5-1.67 1.12-2.08 1.38-.4.25-.97.6-1.27.76-.29.17-.73.4-.96.52-.24.12-.77.35-1.17.52-.41.16-1.15.41-1.64.56-.5.14-1.42.36-2.04.49-.62.12-1.89.35-2.81.5s-1.7.28-1.73.29c-.04.01.11.11.33.22.22.12.63.3.9.41.28.11.71.26.97.34.26.07.69.17.97.23s.82.14 1.2.18c.39.03.98.06 1.31.06s.91-.03 1.3-.06c.39-.04 1.06-.13 1.5-.2.44-.08 1.24-.26 1.77-.4.54-.15 1.33-.38 1.78-.53.44-.14 1.2-.43 1.7-.63s1.37-.56 1.94-.81 2.06-.97 3.31-1.6 3.4-1.72 4.77-2.42c1.38-.7 3.04-1.5 3.68-1.78s1.45-.61 1.79-.72c.34-.12.62-.24.62-.26 0-.03-.18-.15-.39-.27s-.59-.3-.83-.4c-.25-.1-.72-.25-1.04-.33-.48-.11-.83-.14-1.95-.16-.76-.01-1.46 0-1.57.01" fill="#d9232e"/><path d="M100.29 88.97c-.06.12-.12.4-.15.61-.02.21 0 .84.04 1.39s.14 1.36.21 1.8.22 1.11.33 1.5c.11.38.35 1.04.54 1.46.18.43.49 1.04.69 1.37s.54.84.75 1.13c.22.3.7.84 1.06 1.2.37.37.95.89 1.3 1.14.35.26.89.62 1.21.81a14.413 14.413 0 0 0 2.6 1.17c.39.13 1.06.32 1.51.41.44.1 1.11.23 1.5.28.41.05 1.28.09 2.07.09.84 0 1.63-.04 2.04-.09.37-.06 1.27-.25 2-.43.74-.18 1.54-.35 1.79-.37s.72-.01 1.04.03.96.19 1.42.34 1.33.46 1.94.69c.6.23 2.84 1.08 4.98 1.9 2.13.81 4.35 1.65 4.94 1.86.59.22 1.72.6 2.51.86s1.63.52 1.87.58.46.1.49.09-.15-.23-.4-.49-.76-.68-1.13-.94c-.36-.26-.97-.66-1.33-.88-.37-.22-1.42-.81-2.34-1.31-.92-.51-2.61-1.5-3.75-2.2s-2.34-1.43-2.67-1.62-.95-.51-1.37-.7c-.42-.2-.96-.42-1.19-.49s-.42-.16-.41-.21c0-.05.15-.38.33-.73.22-.43.59-.98 1.08-1.59.41-.51.86-1.13 1-1.36.14-.24.41-.8.59-1.24s.42-1.13.53-1.53c.12-.4.21-.77.21-.82 0-.04-.01-.08-.02-.08s-.21.08-.45.17c-.24.1-.54.23-.67.29-.13.07-.28.17-.35.23-.06.06-.11.19-.11.29s-.09.37-.19.59c-.11.22-.38.62-.6.9-.22.27-.62.69-.89.93s-.63.54-.8.67c-.16.14-.6.43-.97.66-.36.24-.97.57-1.33.74-.37.17-.96.42-1.31.55s-1.02.34-1.5.47c-.48.14-1.26.3-1.74.38-.58.09-1.32.15-2.24.17-.99.03-1.6.01-2.2-.06-.46-.06-1.2-.18-1.64-.28s-1.18-.31-1.64-.48c-.46-.16-1.15-.46-1.53-.67-.39-.2-.93-.52-1.21-.7-.27-.18-.72-.52-1-.75a12.3 12.3 0 0 1-1.86-1.97c-.21-.27-.52-.72-.69-1-.16-.27-.83-1.51-1.47-2.75-.64-1.23-1.2-2.25-1.24-2.25-.03 0-.12.11-.18.24" fill="#21cb35"/><path d="M23.06 96.97c0 .01.16 1.03.37 2.25.2 1.22.59 3.37.87 4.78.27 1.41.75 3.75 1.06 5.2s.85 3.89 1.2 5.43 1.18 5.17 1.84 8.07c.67 2.9 1.48 6.48 1.81 7.97.33 1.48.88 4.09 1.23 5.8.36 1.7.72 3.41.82 3.8.09.38.22.8.29.93s.24.34.38.48c.14.13.56.46.93.73.38.27 6.27 4.65 13.1 9.74s13.91 10.38 15.73 11.75c1.82 1.38 4.72 3.56 6.45 4.86 1.73 1.29 3.57 2.66 4.1 3.04.53.39 1.67 1.2 2.54 1.81.87.62 1.62 1.12 1.66 1.12.05 0-.16-.23-.46-.51-.31-.28-1.26-1.21-2.13-2.08-.86-.87-2.15-2.24-2.86-3.04-.72-.81-2.22-2.42-3.34-3.59-1.13-1.17-2.51-2.57-3.07-3.1-.55-.54-2.18-2.12-3.61-3.51-1.42-1.4-5.1-4.95-8.17-7.91-3.07-2.95-6.39-6.11-7.38-7.03-1-.92-2.17-2.06-2.61-2.53-.44-.48-1-1.13-1.24-1.46-.25-.33-.54-.77-.65-.97-.12-.2-.27-.55-.35-.77s-.26-1.06-.4-1.86c-.15-.81-.43-2.49-.63-3.74-.2-1.24-.83-5.31-1.41-9.03-.57-3.72-1.25-8.1-1.51-9.73-.25-1.64-.67-4.2-.93-5.7-.26-1.51-.62-3.49-.8-4.4-.19-.92-.45-2.03-.58-2.47s-.29-.85-.35-.92-.27-.18-.47-.26c-.21-.07-.7-.2-1.11-.29-.4-.09-1.42-.28-2.27-.43-.84-.15-1.82-.34-2.17-.43s-1.04-.3-1.54-.46c-.49-.17-1.26-.44-1.7-.61s-1.2-.46-1.67-.64c-.48-.18-.89-.33-.92-.33s-.05.02-.05.04" fill="#d9232e"/><path d="M96.44 99.48c-.75.56-2.15 1.63-3.11 2.38-.95.75-3.67 2.93-6.05 4.84-2.37 1.91-7.06 5.72-10.42 8.47s-6.97 5.69-8.02 6.53-2.91 2.37-4.15 3.4c-1.23 1.03-2.58 2.14-3 2.47-.43.34-1.07.83-1.44 1.11-.37.27-.94.68-1.27.89-.34.22-.81.5-1.06.63-.24.13-.43.25-.43.28.01.02.16.15.32.29l.3.24c.81-.08 3.47-.89 10.29-3.04 5.15-1.63 12.88-4.07 17.18-5.43 4.3-1.35 8.75-2.75 9.89-3.11 1.14-.35 2.28-.74 2.54-.86s.53-.28.6-.36c.08-.08.11-.17.08-.19-.03-.03-4.94.77-10.92 1.77-5.99 1-10.89 1.81-10.9 1.8s.17-.2.4-.42c.24-.21.6-.52.82-.67.23-.16.8-.5 1.27-.75.48-.25 1.02-.56 1.21-.68.18-.13.63-.47 1-.77s1.09-.95 1.6-1.44c.52-.49 3.21-3.07 5.99-5.73 2.77-2.66 6.26-6 7.75-7.43 1.49-1.42 2.71-2.61 2.72-2.64s-.38-.63-.87-1.33c-.48-.7-.9-1.27-.92-1.27-.02.01-.65.46-1.4 1.02m-32.85 9.58c-.55.28-1.38.72-1.84.97s-1.61.91-2.57 1.46c-.95.55-2.46 1.42-3.34 1.93s-2.64 1.55-3.91 2.3-3.06 1.83-3.98 2.4-2.18 1.36-2.8 1.77c-.63.4-1.38.91-1.67 1.14-.29.22-.55.42-.58.44-.03.01-.01.39.04.83s.14 1.1.2 1.47c.06.36.17.86.24 1.1.08.24.21.57.3.75.09.17.19.31.23.31s.21-.11.38-.25c.18-.13.8-.67 1.39-1.18.59-.52 1.67-1.43 2.41-2.04.73-.61 3.39-2.78 5.91-4.83 2.52-2.04 5.23-4.26 6.02-4.92.79-.67 1.79-1.52 2.24-1.91.44-.38 1.16-1.02 1.6-1.43.44-.4.8-.75.81-.78 0-.03-.01-.06-.03-.06-.03.01-.5.24-1.05.53" fill="#21cb35"/><path d="M159.23 116.79c-.18.1-.45.27-.6.38s-.55.43-.9.72-.85.66-1.11.83c-.25.18-.7.42-1 .54-.29.12-.76.28-1.03.35-.33.08-.74.12-1.17.12-.46 0-.85-.04-1.24-.14-.31-.07-1.03-.35-1.6-.6-.57-.26-1.22-.53-1.44-.62l-.4-.15c-.42 2.49-.54 3.22-.54 3.23s2.23.6 4.95 1.31c2.72.72 4.95 1.29 4.96 1.29 0-.01.34-1.65.75-3.65s.75-3.67.76-3.72c.01-.04 0-.08-.02-.08s-.19.08-.37.19" fill="#d9232e"/><path d="M120.03 120.81c-1.04.03-2.07.07-2.27.09l-.37.05c.88.83 1.39 1.24 1.71 1.45.31.2.81.47 1.1.59.29.13.81.3 1.14.38s.87.18 1.2.22 1.02.08 1.54.08c.51 0 1.91-.05 3.1-.11 1.29-.06 2.59-.09 3.18-.07.55.03 1.47.12 2.04.21s1.56.27 2.2.4c.65.14 2.53.59 4.18 1.01s8.87 2.2 16.04 3.96a3092 3092 0 0 1 13.13 3.24c.08.03.03.09-.16.27-.15.12-.42.31-.61.42-.18.1-.65.31-1.03.47-.39.15-.87.36-1.07.46s-.58.35-.85.55l-.48.35c1.97 2.06 2.15 2.21 2.53 2.38.24.11.71.27 1.04.36s.87.2 1.2.26 1.05.16 1.6.23c.56.08 1.85.21 2.88.3 1.03.1 2.26.2 2.74.24s.87.06.88.04-.03-.12-.09-.22c-.07-.1-.3-.41-.52-.69-.22-.27-.95-1.06-1.64-1.75-.68-.7-1.67-1.64-2.21-2.1a46 46 0 0 0-1.87-1.55c-.49-.38-1.28-.95-1.74-1.25s-1.19-.73-1.63-.95c-.69-.34-1.08-.47-2.74-.92-1.07-.3-3.57-.94-5.55-1.44-1.99-.5-4.63-1.18-5.88-1.51s-3.36-.9-4.68-1.27-3.36-.93-4.53-1.26-2.88-.79-3.81-1.03-2.09-.52-2.59-.64c-.49-.11-1.29-.27-1.77-.37-.48-.09-1.23-.22-1.67-.29s-1.28-.19-1.87-.26-1.49-.16-2.01-.2c-.51-.04-1.59-.11-2.4-.14-.81-.04-2.37-.06-3.48-.06-1.1.01-2.86.04-3.91.07m5.31 9.34c.19.41.56 1.08.81 1.48.25.41.75 1.23 1.11 1.84.37.6.71 1.25.78 1.43.09.26.11.56.11 1.32 0 .54.01.98.02.98s1.11.33 2.44.73c1.33.41 2.44.74 2.47.74s-.01-.21-.09-.45c-.08-.25-.27-.8-.44-1.22-.16-.42-.46-1.08-.66-1.47-.2-.38-.54-.94-.76-1.23s-.62-.75-.89-1.02c-.26-.27-.69-.67-.95-.87-.26-.21-1.01-.77-1.67-1.25a46 46 0 0 0-1.89-1.31c-.38-.25-.7-.45-.71-.45-.02 0 .13.34.32.75m-24.25.48c-.56.15-1.71.52-2.58.82-.86.29-2.29.81-3.17 1.14s-2.58.98-3.78 1.44c-1.19.47-3.1 1.22-4.24 1.68s-2.83 1.15-3.74 1.54c-.92.38-2.26.95-2.98 1.26-.72.32-1.54.69-1.84.84-.29.15-.55.28-.56.29q-.03.03 0 .06c.01.02.48-.06 1.03-.17.55-.1 1.68-.36 2.51-.55.82-.2 2.79-.7 4.37-1.11 1.59-.41 4.31-1.13 6.05-1.6 1.75-.47 4.59-1.24 6.32-1.7 1.73-.47 3.76-1 4.51-1.18.75-.19 1.69-.38 2.07-.43.39-.05.9-.09 1.14-.09s1.18.07 2.1.16 1.79.17 1.92.18c.14.01.26 0 .27-.02.01-.03-.21-.21-.5-.42-.28-.2-.78-.53-1.1-.73s-.77-.45-.99-.56-.65-.31-.97-.43c-.31-.13-.79-.3-1.07-.37-.27-.08-.75-.18-1.07-.24-.38-.07-.91-.11-1.63-.1-1.04.01-1.1.01-2.07.29" fill="#21cb35"/><path d="M146.02 135.15c-.02.08-.1.39-.18.68-.08.3-.2.93-.27 1.4-.08.48-.18 1.02-.23 1.2-.06.19-.25.56-.44.84-.23.34-.87 1.03-2.06 2.2-.94.94-1.95 1.88-2.24 2.08l-.52.38c0 .7.05 1.17.11 1.5.05.33.28 1.35.51 2.27.35 1.43.45 1.76.75 2.35.21.43.36.66.4.62.04-.03 2.18-1.61 4.76-3.51s5.06-3.72 5.51-4.04c.46-.32 1.02-.75 1.26-.95s.54-.53.67-.72c.14-.19.31-.53.39-.75.09-.22.24-.77.34-1.23.11-.46.26-1.22.35-1.68.09-.47.14-.87.12-.88-.01-.02-1.14-.26-2.5-.54-1.36-.27-3.38-.68-4.48-.9-1.1-.23-2.05-.42-2.11-.44-.07-.02-.12.02-.14.12" fill="#d9232e"/><path d="M92.65 139.95c-.26.27-.65.74-.86 1.05s-.51.84-.67 1.17-.39.91-.52 1.3c-.13.38-.29.95-.35 1.26-.09.4-.12.85-.12 1.5 0 .84.03 1.02.22 1.74.12.44.34 1.26.48 1.83.15.57.32 1.42.37 1.9.07.57.1 1.08.07 1.5-.02.35-.09.83-.15 1.07-.06.23-.2.61-.31.83s-.34.54-.51.72-.44.4-.61.5c-.16.09-.44.22-.6.28l-.3.12c-.46-.38-.73-.67-.91-.89-.17-.22-.42-.58-.55-.8s-.35-.55-.51-.75c-.16-.21-.5-.5-.86-.74-.32-.21-.93-.57-1.35-.79s-1.2-.59-1.74-.83c-.69-.3-1.04-.49-1.22-.67s-.53-.82-1.29-2.37l-1.05-2.11c-.1.41-.14 1.18-.14 1.96 0 .91.03 1.61.08 1.9a8.397 8.397 0 0 0 .6 1.87c.09.18.32.54.51.8s.53.61.75.78.6.48.86.67c.32.25.58.52.8.85.19.28.52.92.74 1.43.38.9.39.96.39 1.5 0 .42-.03.62-.11.75-.06.1-.21.25-.33.32-.15.09-.34.13-.6.13-.21 0-.59-.04-.84-.1-.31-.07-.63-.21-1.05-.46-.33-.21-.78-.46-1-.57s-.65-.26-.94-.33c-.29-.08-1.02-.17-1.6-.22-.83-.06-1.38-.06-2.44 0-.76.05-1.66.09-2.01.08-.35 0-.9-.04-1.23-.09-.34-.06-.84-.18-1.12-.27-.29-.09-.77-.29-1.07-.45-.31-.15-.73-.39-.96-.54-.22-.15-.76-.55-1.2-.9s-.99-.76-1.22-.92-.43-.29-.45-.28.02.18.09.39c.07.2.24.59.38.86.14.28.4.73.58 1 .19.28.47.67.62.87.16.2.51.59.78.87.27.27.75.7 1.06.95s.88.61 1.27.81c.58.3 1.01.45 2.51.86.99.28 2.04.58 2.33.68.3.09.81.3 1.14.46s.84.47 1.14.69c.29.21.92.79 1.38 1.27l.86.88c-.37 1.21-.55 1.8-.64 2.08l-.17.52c8.47 8.29 11.67 11.43 12.58 12.33l1.65 1.63c.66-.48 1.19-.92 1.61-1.3.43-.38 2.44-2.35 4.48-4.39s4.53-4.49 5.54-5.44c1-.95 1.94-1.88 2.08-2.07.14-.18.31-.44.36-.58.06-.14.11-.39.11-.55s-.08-.68-.17-1.15c-.1-.47-.19-.9-.2-.97-.03-.09.18-.22 1.05-.64.66-.32 1.37-.73 1.79-1.03.39-.27.93-.73 1.22-1.02.28-.29.61-.66.74-.82.12-.17.34-.48.48-.7s.55-1.02.92-1.77c.36-.75.79-1.56.95-1.8s.51-.64.78-.9c.28-.26.71-.58.96-.71.26-.14 1.2-.52 2.1-.86.91-.34 1.8-.72 1.99-.84.2-.12.37-.25.39-.29s-.04-.08-.12-.1c-.08-.01-.71-.05-1.39-.07-.78-.03-1.55-.02-2.1.03-.48.04-1.13.14-1.44.21s-.73.2-.93.27c-.21.08-.55.23-.77.34s-.6.34-.84.51-.85.71-1.37 1.21c-.51.5-1.11 1.04-1.34 1.21-.22.16-.67.48-1 .7-.33.23-.96.59-1.4.81-.44.23-1.13.52-1.54.65-.61.21-.85.26-1.44.28-.38.02-.82 0-.96-.04-.15-.04-.35-.13-.44-.2-.15-.12-.17-.18-.17-.56s.03-.47.3-.92c.16-.27.39-.68.51-.9s.33-.67.46-1c.12-.33.25-.79.28-1.03.02-.28 0-.76-.08-1.37-.08-.65-.1-1.2-.08-1.83.03-.73.06-.99.2-1.4.1-.27.28-.68.41-.9s.39-.58.59-.81c.19-.22.6-.67.89-1 .3-.32.6-.7.69-.84.08-.14.14-.26.13-.28s-.27.05-.59.16c-.31.1-.76.27-1 .37s-.61.27-.83.38-.57.32-.77.45c-.21.14-.53.4-.73.58s-.47.49-.61.69-.33.53-.43.73c-.11.2-.37.85-.59 1.44-.21.58-.54 1.36-.72 1.73-.19.37-.54.95-.79 1.29-.24.35-.64.86-.88 1.13-.24.28-.54.57-.67.64-.16.1-.34.13-.6.13-.2-.01-.61-.09-.92-.18-.45-.14-.55-.2-.58-.33-.02-.08-.11-.81-.2-1.61-.09-.81-.2-1.79-.24-2.17-.04-.39-.12-.84-.18-1-.05-.16-.17-.43-.27-.6-.09-.17-.61-.93-1.14-1.7-.54-.77-1.17-1.71-1.4-2.1-.23-.38-.49-.93-.58-1.2s-.2-.71-.24-.97a4.6 4.6 0 0 1-.03-1.06c.02-.33.14-1.16.27-1.84.12-.68.26-1.49.3-1.82.04-.32.06-.6.05-.61-.02-.02-.24.19-.5.45m87.53 2.1c.13.01.36.01.5 0 .15-.02.05-.03-.23-.03s-.4.01-.27.03m-2.54.07c.13.01.36.01.5 0 .15-.02.05-.03-.23-.03s-.4.01-.27.03m-2.54.06c.13.02.36.02.5 0 .15-.01.05-.02-.23-.02-.27 0-.4.01-.27.02m-2.54.07c.13.01.36.01.51 0 .14-.02.04-.03-.24-.03-.27 0-.39.01-.27.03m-2.54.07c.13.01.36.01.51 0 .14-.02.04-.03-.24-.03-.27 0-.39.01-.27.03m-2.54.06c.13.02.36.02.51 0 .14-.01.04-.02-.24-.02-.27 0-.39.01-.27.02m-38.18.33c.11.11.56.49.99.86.44.36 1.14 1.01 1.57 1.43s.98 1.04 1.23 1.37c.24.33.43.61.41.63-.01.02-.27.14-.58.27-.3.12-.73.34-.94.48s-.47.38-.58.53c-.11.16-.25.42-.31.59-.07.19-.12.5-.12.86 0 .44.03.64.13.87.07.16.24.42.37.57.13.14.52.46.87.69.34.24 1.47 1.07 2.5 1.84s2.23 1.65 2.67 1.94c.44.3.93.6 1.09.68.23.12.28.13.28.05 0-.06-.08-.55-.17-1.09-.1-.54-.31-1.59-.47-2.35-.17-.75-.47-2.02-.67-2.83s-.52-1.96-.7-2.57c-.19-.6-.45-1.32-.57-1.6-.13-.27-.37-.69-.53-.93s-.46-.6-.68-.8c-.21-.21-.6-.5-.86-.65-.25-.15-.78-.38-1.16-.51-.42-.13-1.04-.27-1.51-.33-.44-.06-1.18-.12-1.64-.14l-.83-.05z" fill="#21cb35"/><path d="M128.02 155.89c-.33.27-.96.82-1.4 1.22-.45.4-1.15 1.12-1.58 1.6-.43.47-1.33 1.52-2 2.32-.68.81-1.51 1.74-1.84 2.08-.33.33-2.78 2.73-5.44 5.33-2.67 2.6-5.21 5.07-5.64 5.49-.43.43-.76.78-.72.79s1.3-.88 2.8-1.97c1.49-1.09 4.15-3.03 5.89-4.31 1.75-1.28 4.4-3.24 5.89-4.36 1.48-1.11 3.99-3.02 5.56-4.23 1.57-1.22 2.85-2.23 2.86-2.25 0-.02-.81-.52-1.8-1.12-1-.59-1.85-1.08-1.9-1.08-.04.01-.35.23-.68.49" fill="#d9232e"/></svg>