<svg xmlns="http://www.w3.org/2000/svg" width="201.663" height="257.559" viewBox="0 0 53.357 68.146"><defs><clipPath id="a"><path d="M0 0h595.276v765.354H0z"/></clipPath><clipPath id="b"><path d="M0 0h595.276v765.354H0z"/></clipPath><clipPath id="c"><path d="M0 0h595.276v765.354H0z"/></clipPath><clipPath id="d"><path d="M0 0h595.276v765.354H0z"/></clipPath><clipPath id="e"><path d="M0 0h595.276v765.354H0z"/></clipPath></defs><path d="M49.222 36.637l-.001-.025V36.6l-.088-1.105-.004-.022v-.012l-.138-1.077-.003-.034-.004-.021-.196-1.072-.004-.02v-.007l-.24-1.037-.01-.038-.003-.013-.299-1.043-.008-.02-.003-.01-.335-1-.011-.03-.008-.018-.391-.983-.011-.027-.009-.013-.432-.958-.01-.024-.008-.014-.486-.947-.01-.019-.005-.01-.528-.914-.012-.022-.007-.008-.59-.914-.609-.86-.012-.019-.006-.006-.65-.827-.016-.02-.009-.01-.711-.81-.719-.76-.017-.016-.008-.01-.753-.719-.02-.02-.014-.011-.794-.69-.019-.015-.008-.006-.83-.65-.016-.012-.009-.005-.88-.624-.895-.576-.018-.01-.008-.007-.916-.526-.02-.01-.008-.004-.118-.061.08-.167.135-.281.086-.174.084-.178 3.093-6.442.234-.486.107-.218.106-.22.17-.352.17-.352-.3-.247-.301-.25-.189-.156-.19-.156-.397-.326-.957-.792-.25-.202-.03-.022-.02-.014-.012-.01-.005-.002-.256-.176-.282-.185-.258-.153-.277-.162-.022-.01-.012-.008-.298-.151-.254-.119-.301-.14-.306-.13-.021-.007-.007-.003-.28-.102-.302-.104-.27-.089-.318-.1-.03-.01-.017-.004-.216-.053-.039-.015-.03-.008-.018-.004-.28-.071-.28-.061-.326-.075-.026-.005h-.011l-.282-.05-.61-.1-.322-.043-.288-.033-.289-.03-.334-.037-.022-.002H32l-.238-.014-.335-.026-.022-.002h-.01l-.248-.005-.326-.018-.182-.005V2.032h-.907V1h-5.604v1.032h-.886v2.493l-.25.01-.245.012-.328.01-.023.002h-.011l-.25.023-.335.018-.024.003h-.011l-.564.063-.327.037-.325.047-.282.046-.283.048-.325.055-.034.006-.02.004-.259.06-.337.076-.285.074-.334.09-.292.091-.316.104-.263.095-.298.109-.026.011-.013.005-.307.132-.256.12-.307.146-.274.14-.024.015-.013.008-.261.151-.264.159-.022.013-.011.007-.257.171-.018.01-.005.006-.018.013-.006.005-.479.359-.02.017-.011.008-.778.657-.152.134-.163.147-.163.147-.26.232-.26.234.132.324.13.323.083.205.083.202.32.788 2.624 6.493.08.199.078.192.117.284-.552.282-.023.013-.013.007-.915.527-.02.011-.01.009-.913.588-.862.61-.016.014-.007.005-.831.65-.017.014-.006.006-.788.684-.02.018-.01.009-.757.726-.019.019-.008.008-.74.783-.706.815-.656.826-.016.023-.008.01-.621.881-.571.882-.016.025-.008.014-.527.916-.009.02-.005.008-.487.95-.01.02-.003.008-.433.952-.012.03-.007.017-.397 1.02-.348 1.013-.008.028-.005.012-.296 1.066-.253 1.06-.005.022-.002.01-.192 1.058-.005.032-.002.018-.136 1.085-.003.028-.002.018-.082 1.136-.031 1.11v.058l.034 1.145.08 1.103.002.028.002.014.136 1.08.004.03.004.02.193 1.069.007.029.002.016.258 1.086.29 1.033.01.026.004.014.346 1.015.008.022.004.011.383.973.011.03.008.017.432.957.007.018.003.006.008.017.004.006.482.939.011.023.008.013.522.907.017.029.009.013.59.901.597.846.01.016.003.004.012.016.006.006.658.837.012.016.007.006.707.815.713.751.022.024.014.013.783.74.815.705.826.656.022.017.011.008.85.602.023.016.013.007.91.579.915.534.028.015.013.007.968.488.975.447.021.007.009.004.757.302.263.099 1.017.348.027.008.014.003 1.063.297 1.052.25.034.007.018.003 1.09.19.538.072.545.072.035.003.02.002 1.1.08.025.002.014.001 1.11.032h.057l1.125-.033.02-.001h.008l1.102-.08.034-.005.017-.001 1.074-.144.027-.005.018-.003.077-.014.992-.171.028-.006.013-.003 1.077-.257 1.037-.292.026-.007.011-.005 1.019-.348.02-.007.01-.004.805-.316.18-.068.032-.015.017-.007.983-.454.934-.472.018-.008.003-.002.023-.012.01-.005.934-.548.879-.56.024-.017.014-.01.862-.609.019-.014.008-.008.85-.675.814-.707.751-.713.024-.022.015-.014.734-.777.688-.783.012-.015.003-.005.015-.018.007-.008.65-.837.012-.014.003-.008.62-.876.57-.873.016-.028.01-.016.527-.916.011-.02.003-.009.483-.941.013-.025.005-.014.446-.994.396-.981.01-.032.007-.018.348-1.045.296-1.021.009-.04.004-.014.24-1.052.005-.026.005-.014.191-1.063.004-.031.002-.02.14-1.091.002-.022v-.01l.088-1.101.002-.032v-.018l.024-1.145z" fill="#211f1f"/><g clip-path="url(#a)" transform="matrix(.66532 0 0 -.66532 -109.834 480.612)"><path d="M205.189 695.75c16.611 0 30.166-13.56 30.166-30.168 0-16.622-13.555-30.178-30.166-30.179-16.622 0-30.177 13.557-30.177 30.179 0 16.608 13.555 30.168 30.177 30.168" fill="#fff"/><path d="M184.786 682.146l-6.362-2.599a30 30 0 0 1-3.42-12.928l4.274-5.098 5.546 9.629zm-2.902-28.463l-.302-6.902a30.35 30.35 0 0 1 10.476-8.388l6.25 1.659-6.41 9.073zm32.956 40.505a30 30 0 0 1-9.651 1.587c-2.93 0-5.766-.422-8.449-1.206l-1.286-4.52 10.573-3.309 10.746 2.472zm16.92-14.298l-6.047 2.35-.188-11.101 5.438-9.607 4.381 5.499.001.012a30 30 0 0 1-3.585 12.847m-15.029-31.74l-6.851-8.617 6.602-1.953a30.3 30.3 0 0 1 10.036 6.663c.234.233.46.473.687.713l-.102 7.221z" fill="#008066"/><path d="M218.207 704.796l-.75-3.238h-.942l.033.752c.073.073.073.283.261.353-.294 0-.647.331-.718.508-.119-.177-.435-.508-.768-.508.19-.07.19-.28.261-.353v-.752h-1.977l.032 1.105c.072.083.393.576.546.65-.296 0-.976.293-1.085.468-.106-.175-.931-.468-1.224-.468.142-.074.541-.567.612-.65v-1.105h-2.447l.032.752c.084.073.084.283.261.353-.293 0-.647.331-.716.508-.109-.177-.437-.508-.753-.508.175-.07.175-.28.245-.353v-.752h-1.895l.035 1.681c.107.109.858 1.119 1.155 1.154-.544 0-2.485 1.084-2.732 1.66-.023-.045-.047-.08-.071-.13-.449-.586-2.235-1.53-2.742-1.53.291-.035 1.364-.999 1.518-1.08v-1.755h-1.838l.036.752c.07.073.07.283.248.353-.317 0-.649.331-.717.508-.107-.177-.437-.508-.754-.508.176-.07.176-.28.247-.353v-.752h-2.662v1.105c.07.083.402.576.543.65-.283 0-.966.293-1.084.468-.105-.175-.931-.468-1.213-.468.141-.074.532-.567.613-.65v-1.105l-1.66-.035.035.717c.071.107.106.316.248.353-.283 0-.613.331-.717.508a1.3 1.3 0 0 0-.178-.225c-.153-.14-.353-.283-.542-.283.141-.037.189-.246.26-.353v-.751h-1.26v2.904l-4.638 2.38 3.19-7.911h26.357l3.847 8.016zm-22.682-4.933c-.211 0-.401.14-.401.363 0 .213.19.39.401.39s.4-.177.4-.39c0-.223-.188-.363-.4-.363m4.86 0c-.224 0-.399.14-.399.363 0 .213.175.39.399.39a.393.393 0 0 0 .391-.39c0-.223-.176-.363-.391-.363m5.217 0c-.224 0-.401.14-.401.363 0 .213.177.39.401.39.21 0 .386-.177.386-.39 0-.223-.176-.363-.386-.363m5.248 0h-.01c-.224 0-.365.14-.365.363 0 .213.141.39.365.39h.01a.4.4 0 0 0 .379-.39c0-.21-.164-.354-.379-.363m4.159 0c-.216 0-.401.14-.401.363a.4.4 0 0 0 .401.39c.21 0 .398-.177.398-.39 0-.223-.188-.363-.398-.363m-22.792 6.802c.471.436 1.731 1.392 3.308 2.192 1.225.611 2.637 1.129 4.025 1.258-.717-.623-3.544-2.377-4.025-3.801a1.1 1.1 0 0 1-.07-.375l.07-.025 2.624-1.189c.39.73 1.272 1.825 2.236 2.836 1.206 1.296 2.534 2.449 3.085 2.59-.176-.472.402-1.153.789-1.117-.753-.285-1.613-1.508-1.542-2.369h1.977c0 .496.215 1.368.908 1.331h.035c.719.071.967-.835.929-1.331h2.001c.072.861-.81 2.084-1.563 2.369.423-.036.999.645.822 1.117.531-.141 1.825-1.271 3.024-2.541.978-1.025 1.897-2.144 2.284-2.885l1.875.858.788.356c0 .468-.319.975-.788 1.481-1.039 1.129-2.768 2.225-3.31 2.695 1.132-.105 2.271-.458 3.31-.918 1.917-.837 3.506-2.024 4.06-2.532.293 1.368 1.907 2.226 3.094 2.084-1.881 1.626-4.436 2.519-7.154 2.956-1.37.212-2.768.317-4.159.341-.234.013-.469.013-.693.013h-3.378a.9.9 0 0 1-.494.505v2.12h1.4v1.116h-1.366v1.545h-1.364V715.8h-1.342v-1.116h1.412v-2.12a.95.95 0 0 1-.543-.505h-3.376c-.248 0-.484 0-.721-.013-1.623-.024-3.27-.165-4.86-.47-2.437-.471-4.708-1.342-6.404-2.827 1.154.142 2.814-.716 3.096-2.084m13.385 5.605h.035a.8.8 0 0 0 .791-.788.8.8 0 0 0-.791-.79h-.035c-.424.012-.729.364-.729.79 0 .423.305.766.729.788" fill="#fdb927"/><path d="M200.645 678.845h-1.591c-.034.247-.105.424-.246.576a.92.92 0 0 1-.609.211c-.298 0-.545-.104-.72-.328-.189-.249-.296-.611-.296-1.142 0-.365.035-.613.154-.801a.96.96 0 0 1 .317-.424c.142-.069.33-.141.545-.141.245 0 .469.072.609.211a.9.9 0 0 1 .246.649h1.626c-.035-.33-.072-.576-.19-.788a2.2 2.2 0 0 0-.459-.648 2.1 2.1 0 0 0-.751-.505c-.296-.143-.648-.179-1.049-.179s-.752.036-1.084.179c-.318.103-.611.246-.823.469-.211.211-.401.46-.542.753-.175.353-.246.789-.246 1.26 0 .389.071.753.176 1.107.14.364.329.647.541.871.213.247.472.387.753.541.366.143.717.213 1.155.213.353 0 .716-.07 1.036-.178.33-.116.611-.259.8-.469.21-.213.388-.47.493-.754.085-.189.118-.436.155-.683" fill="#211f1f"/></g><path d="M26.385 31.073h-2.632v-3.398h1.096v2.513h1.536z" fill="#211f1f"/><g clip-path="url(#b)" transform="matrix(.66532 0 0 -.66532 -109.834 480.612)" fill="#211f1f"><path d="M204.848 677.798v2.988h1.693v-3.166c0-.176 0-.364.071-.47.038-.106.143-.178.249-.247a1 1 0 0 1 .47-.106c.248 0 .435.072.579.21.139.108.21.319.21.613v3.166h1.646v-2.988c0-.402-.034-.683-.068-.895-.082-.223-.19-.4-.331-.577a1.27 1.27 0 0 0-.472-.436c-.209-.106-.41-.212-.67-.282a7 7 0 0 0-.86-.071c-.399 0-.682.036-.976.071-.246.07-.458.176-.682.282a1.3 1.3 0 0 0-.457.436 1.54 1.54 0 0 0-.331.681 3.6 3.6 0 0 0-.071.791m9.735.173a1.17 1.17 0 0 1-.613.403c.437.282.647.646.647 1.082 0 .459-.177.826-.575 1.036-.284.19-.755.293-1.403.293h-2.518v-5.108h2.589c.401 0 .683 0 .825.037.189.034.33.104.507.175.141.072.293.179.365.259.14.143.246.284.317.461.069.187.105.362.105.576 0 .329-.105.577-.246.786m-2.837 1.661h.657c.177 0 .286-.01.343-.035a.6.6 0 0 0 .259-.141.7.7 0 0 0 .07-.293.43.43 0 0 0-.137-.318q-.161-.107-.535-.106h-.657zm1.329-2.661c-.105-.103-.329-.14-.645-.14h-.684v.966h.684c.316 0 .54-.035.645-.106a.44.44 0 0 0 .176-.366.44.44 0 0 0-.176-.354"/></g><path d="M19.585 46.012H17.22V42.95h1.002v2.249h1.363zm2.35-3.062h-1.033l-1.097 3.062h.978l.119-.383h1.01l.119.383h1.001zm-.518 2.037h-.32l.307-1.105.013.039.323 1.066z" fill="#211f1f"/><g clip-path="url(#c)" transform="matrix(.66532 0 0 -.66532 -109.834 480.612)" fill="#211f1f"><path d="M204.094 656.13h-1.436c-.037.188-.152.294-.26.401a.72.72 0 0 1-.457.14c-.296 0-.508-.105-.648-.318-.187-.187-.294-.54-.294-.976 0-.473.107-.789.294-.966.14-.224.352-.33.648-.33.211 0 .389.071.529.178.151.116.259.223.296.363h-.684v1.002h2.083v-2.543h-.967l-.081.46c-.105-.141-.212-.247-.318-.285a.8.8 0 0 0-.436-.211 2.2 2.2 0 0 0-.611-.081c-.389 0-.788.081-1.107.258-.363.178-.613.471-.837.824-.209.365-.281.79-.281 1.296 0 .399.033.752.177 1.082.104.247.257.495.471.718.21.212.433.354.682.472.365.14.683.211 1.084.211.422 0 .825-.071 1.142-.26.329-.176.575-.388.763-.717.107-.177.213-.424.248-.718m.626-.964v2.66h1.506v-2.801c0-.223 0-.365.069-.435.037-.107.108-.178.223-.261.142-.069.248-.069.425-.069.224 0 .4.034.507.186.14.107.177.284.177.579v2.801h1.507v-2.66c0-.364-.037-.613-.07-.837-.085-.176-.153-.353-.261-.492-.14-.143-.271-.295-.459-.403a2.4 2.4 0 0 0-.601-.246c-.257-.036-.504-.071-.8-.071-.317 0-.611.035-.824.071-.247.069-.469.142-.614.246-.174.108-.316.26-.469.403a1.3 1.3 0 0 0-.248.609c-.068.144-.068.391-.068.72"/></g><path d="M30.652 46.012h-.978V42.95h.931l1.058 1.628V42.95h.98v3.062h-.957l-1.034-1.598zm4.387-3.062h-1.004l-1.103 3.062h.978l.125-.407h1.004l.093.407h1.003zm-.516 2.037H34.2l.322-1.089.014-.04.306 1.129z" fill="#211f1f"/><g clip-path="url(#d)" transform="matrix(.66532 0 0 -.66532 -109.834 480.612)" fill="#211f1f"><path d="M187.37 662.86a4 4 0 0 1-.984.106c-3.085-.052-4.963-3.581-3.207-3.698 1.433-.094 2.931 1.61 3.583 2.627q.306.479.608.965m1.701 1.325c1.089-.422 1.826-1.191 2.41-2.164.715.547 1.457 1.188 1.929 1.909q.16.246.211.557c.139.823-.401 1.588-.968 2.122a6.5 6.5 0 0 1-1.391.994l-.221-.323a6.5 6.5 0 0 0 1.345-.954c.464-.437.965-1.097.851-1.773-.115-.679-.711-1.015-1.267-1.283-.15 1.341-.902 1.936-1.97 2.41-.313-.494-.621-.995-.929-1.495m-6.17-5.48c-2.409.118-.996 6.103 4.436 5.827q.531-.028.987-.126.482.786.972 1.56l-.571.214c-1.173.436-1.844.642-2.805 1.549-1.394 1.313-.868 2.664-.105 3.301.036-.234.092-.507.17-.731.406-1.182 2.017-1.784 3.076-2.179l.608-.223q.354-.129.709-.288l.222.318c-.451.202-.919.378-1.403.558-.876.326-2.307.86-2.76 1.742-1.106 2.154 1.021 4.434 3.259 4.434a3.61 3.61 0 0 0 2.975-1.543l1.057 1.027.523-.621-2.792-2.005c-.415.572-1.46 2.033-2.219 2.119-.09.01-.185.01-.275.01-.894 0-1.522-.878-1.221-1.712.376-1.04 1.992-1.663 2.931-2.013.359-.134.738-.269 1.115-.417.819 1.005 1.698 1.91 2.676 2.654l.836-.077c-1.044-.794-1.975-1.771-2.84-2.856 1.288-.58 2.403-1.385 2.417-2.866.021-2.15-3.147-4.812-4.926-5.485-.464.765-1.097 1.371-1.859 1.729a81 81 0 0 0-.479-.758c-.825-1.29-2.931-3.229-4.714-3.142"/><path d="M201.366 663.708l-.223-.342c-.342-.072-.636.086-.818.45v3.359c.22.344 1.076 1.271 1.076 1.271l-.365.415-.491-.379c-.328.073-.669.599-.781 1.001l-.708.036c-.366-.462-.768-1.134-1.49-1.267-.084-.026-.171-.026-.27-.026.038.404-.035 1.477-1.304 1.209-.439-.426-.819-.953-.146-1.769.633-.784 1.086-1.492 1.086-1.492-1.343-.757-3.358-3.479-.636-4.371.598-.047.977.085 1.27.295.391.267.649.657 1.112.976.036-.379.524-1.797 1.684-1.233.439.378 1.039.708 1.307 1.646zm-2.652.328s-.366-.475-.818-.742a1.7 1.7 0 0 0-.33-.135c-.305-.111-.525-.051-.868.171-.743 1.122.196 2.246.598 2.429l.27-.317.366-.427.49.523s-.453.577-.856 1.077c-.219.282-.414.538-.525.672.196.011.378.046.525.109.318.123.525.329.635.599 0-.329.292-.476.513-.672z"/><path d="M201.474 668.068l1.306 1.416c.783.109 1.269-.306 1.269-2.124.782.829 2.015 2.076 2.015 2.076.268.23.819.303 1.051 0 .182-.294.367-.953 1.001-.66.659.306.513.33.513.33l.33-.44c-.33-.44-.698-1.039-1.063-1.233v-4.139c.108-.185.146-.292.294-.292.158 0 .328.328.328.328l.405-.476-1.101-1.161c-.304-.255-.56-.255-.781-.145-.233.073-.829.781-.829 1.38v4.175l-.513.819-1.575-1.601v-3.137c.194-.182.342-.182.487-.22.184-.036.341.366.341.366l.477-.182-1.196-1.564c-.257-.183-.781-.183-.927.109-.185.294-.488.599-.708.563-.185-.036-.563-.305-.636-.415l-.416.379s.83.964 1.016 1.038v4.261c-.112.256-.256.513-.711.147zm8.719 1.489v3.054l1.682.976v-3.994c.221-.074.404-.158.526-.074.145.074.254.33.254.33h.601c0-.45-.415-1.074-.634-1.294h-.747v-4.774c.221-.294.221-.451.404-.328.16.108.525.438.525.438l.452-.525c-.221-.365-1.16-1.185-1.381-1.345-.233-.18-.706-.291-.94-.143-.256.195-.22.903-.926.524-.49-.221-.49-.257-.49-.257l-.331.55s.674.721 1.005.866v4.849s-.257.073-.404-.037c-.11-.111-.307-.221-.27-.378h-.56c.121.378.267 1.182.634 1.524z"/><path d="M218.885 667.627c.343.295.855.855.939 1.111l-.304.513c-.182-.353-.257-.548-.672-.621-.365-.076-1.271.732-1.342.927-.256.181-.453.109-.563-.038-.048-.059-.257-.207-.563-.39-.598-.354-1.574-.806-2.562-.756-.267-.305-.304-.451-.231-.599.111-.147.377-.147.45-.415v-3.993c-.29-.218-.855-.671-.928-.817l.257-.257c.381.11.745.365.855.257.196-.184.636-.746.781-.928.343-.073.636-.073.866.036.076.036.271.207.512.404.392.292.893.634 1.163.634.413.048 1.685.232 1.831.195v.404c-.219.072-.489.267-.489.267zm-1.599-4.297c-.181-.036-.672-.293-.672-.293l-.234.147-.89.561v4.177l.675.487c.008-.157.094-.305.215-.439.285-.294.725-.525.906-.611zm8.462.27v2.343s.195-.035.305.073c.222.194.109.415-.148.489h-2.051l1.857 2.783s-.147.378-.292.49c-.185-.147-.307-.295-.855-.49-.527-.206-1.122.416-1.271.6-.173.133-.219.123-.429-.063l-.06-.047c-.255-.416-.743-.672-1.451-.916-.782-.086-.979-.159-1.308-.307-.073-.292.366-.487.634-.632v-2.015s-.268-.149-.561-.296c-.294-.195-.182-.451.112-.56h1.755l-1.904-2.979.525-.195c.915.78 1.845.414 2.258.046.016-.01.037-.023.051-.046.147-.221.414-.184.56-.074.257.598 1.759 1.124 2.468 1.27.182.035.219.11.219.293 0 .194-.148.086-.414.233m-2.884 4.359c.551-.111 1.271.133 1.735.561l-1.465-2.125h-1l-.038 2.235c.112-.392.403-.598.768-.671m1.321-4.738c-.391.266-.662.658-1.321.548a2.2 2.2 0 0 1-.582-.169c-1.078-.452-.675-.147-.675-.147l1.257 1.807.233.352h1.088z"/></g><path d="M39.124 46.012h-.36v-1.48l-.307 1.48h-.382l-.314-1.48v1.48h-.336v-1.77h.523l.314 1.386.336-1.386h.526zm.313-.002h.385v-.36h-.385z" fill="#211f1f"/><g clip-path="url(#e)" transform="matrix(.66532 0 0 -.66532 -109.834 480.612)"><path d="M227.53 653.836c0 .506-.107.577-.332.646.26.105.402.354.402.647 0 .212-.142.755-.825.755h-1.329v-2.661h.527v1.047h.579c.399 0 .436-.152.436-.506 0-.259 0-.4.036-.541h.611v.072c-.105.069-.105.14-.105.541m-.907.858h-.65v.719h.686c.329 0 .4-.214.4-.353 0-.261-.14-.366-.436-.366" fill="#211f1f"/></g><path d="M41.874 46.01h.384v-.36h-.384z" fill="#211f1f"/><path d="M24.08 63.864l-2.101-.043-.69-1.985-.69 1.985-2.102.043 1.675 1.27-.609 2.011 1.725-1.2 1.725 1.2-.608-2.012zm-9.922-4.094l-2.101-.043-.69-1.985-.69 1.985-2.102.043 1.675 1.27-.609 2.011 1.725-1.2 1.725 1.2-.608-2.01zm-7.575-7.61l-2.102-.043-.69-1.985-.69 1.985-2.1.043 1.674 1.27-.609 2.011 1.725-1.2 1.725 1.2-.608-2.012zm22.693 11.704l2.101-.043.69-1.985.69 1.985 2.102.043-1.675 1.27.609 2.011-1.725-1.2-1.725 1.2.608-2.012zm9.923-4.094l2.101-.043.69-1.985.69 1.985 2.102.043-1.675 1.27.609 2.011-1.725-1.2-1.725 1.2.608-2.01zm7.575-7.61l2.102-.043.69-1.985.69 1.985 2.1.043-1.674 1.27.609 2.011-1.725-1.2-1.725 1.2.608-2.012z" fill="#fdb927"/></svg>