<svg height="376" viewBox="0 0 226 282" width="226pt" xmlns="http://www.w3.org/2000/svg" xmlns:xlink="http://www.w3.org/1999/xlink"><clipPath id="a"><path d="m0 0h225v281.406h-225z"/></clipPath><g clip-path="url(#a)"><path d="m112.5 281.406c-62.033 0-112.5-50.585-112.5-112.762s50.468-112.762 112.5-112.762 112.5 50.585 112.5 112.762-50.467 112.762-112.5 112.762" fill="#161413"/><path d="m112.501 59.325c-60.224 0-109.066 48.955-109.066 109.319s48.842 109.319 109.066 109.319 109.065-48.954 109.065-109.319c0-60.364-48.841-109.319-109.065-109.319" fill="#fff"/><path d="m193.994 168.644c0-27.386-13.518-51.666-34.214-66.493-.544-1.217-.61-2.711-.61-4.034 0-1.089-.429-2.525-.472-3.395-.086-.87-.857-2.176-1.672-2.916-.344-.827-1.587-2.482-1.717-3.222-.685-.74-1.928-1.48-2.573-1.74-.942-.218-1.5.26-2.273.826-.685 1.176-1.373 2.351-2.014 3.526-.567 1.052-1.292 2.132-2.016 3.192a80.85 80.85 0 0 0 -33.933-7.426 80.84 80.84 0 0 0 -40.133 10.614c-.846-1.236-2.88-3.973-3.813-5.683-1.844-1.872-2.402-2.046-4.418-2.046-.686 0-1.758 1.654-2.23 3.09-.429 2.176-.9 4.483-1.2 6.66a49 49 0 0 1 -.73 2.351 42 42 0 0 0 -.687 4.88c-17.31 14.99-28.282 37.142-28.282 61.816 0 45.04 36.558 81.683 81.493 81.683a80.9 80.9 0 0 0 30.279-5.85c.529-.202.929-.364 1.132-.464 29.387-12.351 50.083-41.482 50.083-75.37" fill="#161413"/><path d="m90.382 234.701c0-6.442-.172-13.71-.172-20.239 0-4.048-1.5-9.227-1.5-12.84 0-1.176-.772-4.528-1.072-6.747-.643-2.481-2.359-6.05-2.359-8.531 0-2.787.471-5.79.471-8.575 0-1.48-.428-3.091-.728-4.484l-.13-4.22c-.642-.654-2.358-1.916-2.443-2.439 0 0-1.073-1.915-1.073-2.176 0-.566-.213-3.091-.771-3.439-.687-1.306-2.36-1.915-3.602-2.655-3.56-4.788-7.248-4.178-11.022-7.486-.944-1.306-1.587-2.613-2.359-3.961-.343-.349-1.8-7.095-1.8-7.748 0-1.044-.344-2.612-.387-3.83l.472-4.049c-.73-2.133-1.459-4.309-1.93-6.528 0 0-.6-5.659-.6-5.964-.28-3.008-.225-6.203-.217-9.236-16.069 14.584-26.166 35.658-26.166 59.09 0 36.953 25.11 68.037 59.155 77.051-.708-1.65-1.216-2.959-1.338-4.03-.172-1.741-.43-5.179-.43-6.964m-6.647-122.177c2.66 2.698 8.149 7.181 10.42 9.75 0 0 1.889 2.35 2.746 4.048.043.566.3 1.175.557 1.74.429.567 1.501 1.263 1.501 1.524 0 .175.344 1.35.344 2.09l1.887.87.557-1.176c.13-.26 1.673-1.392 2.359-1.392 1.029 0 1.072.391 1.072 1.524.515-.087 1.158-.436 1.63-.436.642 0 1.071.523 1.671.218.43-.044 1.158-.523 1.416-.523 1.03 0 1.587.827 2.445 1.35a7.196 7.196 0 0 1 2.144.435c.643-.653 1.459-1.176 2.23-1.176 1.244 0 2.53 1.046 3.861 1.48.813.131 2.186.393 2.444.393 1.415 0 3.217-1.307 4.846-1.437.771.347 1.586.696 2.401 1.044l1.33.305c.3-.48.171-.827.171-1.437 0-.174.387-.435.557-.74-.17-.914-.514-1.915-.514-2.916.13-.827 0-1.35-.086-2.046.215-2.089.13-4.744.773-6.746.213-.653.643-1.262.814-1.96.3-1 .3-1.958.3-3.046.344-.74.816-1.742 1.158-2.481 1.33-1.828 2.745-3.7 4.075-5.353.3-.175.6-.393.9-.61.6-2.046 1.457-4.221 2.616-6.006.815-1.045 1.715-2.046 2.53-3.133q.203-.318.422-.644c-10.004-4.55-21.112-7.085-32.81-7.085-14.215 0-27.558 3.745-39.105 10.298 1.085 1.758 2.948 4.627 4.335 6.31 1.5 2.177 4.116 5.44 6.003 6.964m108.272 56.12c0-25.738-12.183-48.626-31.08-63.197.079.37.131.737.131 1.07 0 1.872.085 4.31.128 4.44.087 2.394.13 4.963.13 7.356l-1.115 11.49c0 .828.6 1.742.685 2.613.3 3.22.987 6.528.858 9.749-1.328 4.266-2.616 6.66-3.901 9.098-.687 1.349-2.275 2.697-4.075 4.483-1.544 1.653-2.703 2.915-4.202 4.527v1.87l.214.567.085.61.215 1 .085 1.175.13.61c.17 2.829.3 5.44-.43 8.357l-.514 1.567-.471.914c-.258.957-.13 1.96-.258 3.003l.128 1.567 1.545 9.184c.429 2.002 5.403 19.282 5.403 19.282l.815 1.349c1.03 1.219 5.961 8.444 6.518 8.923.583 1.354 2.47 4.67 3.692 6.666 15.554-14.548 25.284-35.272 25.284-58.273" fill="#ed1b26"/><path d="m196.407 109.654-4.714 1.447-8.293 2.545-5.155 1.582 2.381 3.541 2.774-.931 1.815-.61 2.908 4.329-3.082 3.781 2.472 3.676 4.18-5.221 7.727-9.655zm-3.506 6.581-1.208 1.463-1.354 1.641-2.246-3.34 3.6-1.2.199-.066c1.034-.343 2.326-.89 3.37-1.27l.029.044c-.742.829-1.678 1.854-2.39 2.728m-113.593-36.23-.02-.05c1.616-1.472 1.925-3.23 1.32-4.735-.576-1.427-1.76-2.227-3.075-2.45a4 4 0 0 0 -.282-.038c-.862-.132-1.723-.075-2.733.172-.766.187-1.62.483-2.623.89-1.828.742-3.715 1.67-4.673 2.278l-.107.069.107.266 6.575 16.331q.317-.075.721-.19a32.92 32.92 0 0 0 3.015-1.031q.24-.094.49-.195c3.348-1.357 5.172-2.744 6.003-4.219.706-1.277.922-2.764.305-4.294-.877-2.18-2.887-3.057-5.023-2.804m-5.816 1.074-1.584-3.936c.305-.181.759-.424 1.584-.758a5.4 5.4 0 0 1 1.028-.311c1.19-.224 2.052.164 2.457 1.173.506 1.253-.236 2.517-2.234 3.327l-.223.09zm4.513 6.95q-.254.103-.472.189a8.8 8.8 0 0 1 -1.022.358l-1.918-4.764 1.299-.527a6.4 6.4 0 0 1 1.641-.446c1.229-.142 2.259.243 2.74 1.44.707 1.756-.544 3.05-2.268 3.75m-12.584.86-5.696-8.473-3.395 2.298 5.847 8.699c1.793 2.667 1.654 4.588-.133 5.798-1.743 1.18-3.615.522-5.363-2.079l-5.123-7.622-.724-1.077-3.418 2.314 4.142 6.162 1.523 2.268c3.241 4.82 6.893 5.418 10.692 2.847 1.919-1.299 3.103-2.87 3.45-4.683a6.4 6.4 0 0 0 0-2.322c-.227-1.287-.818-2.666-1.802-4.13m-13.863 16.345-3.357 3.488-8.446-8.185-2.138-2.071-2.863 2.976 5 4.847 8.064 7.813 3.74-3.886 4.14-4.303-2.48-2.405zm-11.161 13.397a8 8 0 0 1 -.643.894c-1.942 2.326-4.705 2.64-7.468.907-3.43-2.15-3.754-5.351-2.027-8.125a8.9 8.9 0 0 1 2.4-2.577l-2.322-2.445c-.704.419-1.928 1.565-3.056 3.376-2.914 4.678-2.331 10.274 2.926 13.57 3.133 1.964 6.607 2.19 9.547.213 1.177-.791 2.27-1.936 3.221-3.462 1.171-1.881 1.7-3.558 1.781-4.4l-3.048-1.178c-.154.86-.654 2.173-1.31 3.227m64.252-52.774-13.822 1.95.48 3.427 4.829-.68 2.048 14.62 4.083-.577-2.047-14.62 4.91-.692zm83.906 33.376-2.759-2.58-2.396 2.577-1.205 1.298c-1.875 2.018-3.489 3.873-4.928 5.817l-.058-.055a53 53 0 0 0 2.077-6.597l1.78-7.467-3.508-3.283-11.868 12.77-.518.56.518.485 2.24 2.096 3.731-4.015a174 174 0 0 0 5.285-5.924l.077.035c-.8 2.171-1.532 4.704-2.067 6.865l-1.941 7.798 3.153 2.951 7.232-7.783zm-38.954-20.797 1.765-5.146-1.765-.61-2.108-.728-3.404 9.92c-1.043 3.042-2.654 4.087-4.694 3.383-1.988-.687-2.59-2.583-1.572-5.548l3.402-9.92-3.896-1.347-3.301 9.613c-1.885 5.497-.164 8.785 4.169 10.281 4.482 1.55 8.028-.061 9.854-5.379z" fill="#161413"/><path d="m110.414 65.792h4.122v18.226h-4.122z" fill="#161413" fill-rule="evenodd"/><path d="m166.211 80.924-.52-.29-4.196-2.332-1.893 1.834-10.002 9.693-1.765 1.713 1.766.983 1.958 1.09 3.392-3.463 4.548 2.53-1.033 4.773 1.136.633 2.728 1.518 3.36-16.182zm-4.862 4.84-.878 3.932-.868-.482-2.644-1.472 2.643-2.686.167-.17c.769-.78 1.67-1.854 2.43-2.669l.046.027c-.286 1.078-.656 2.416-.896 3.52m-37.628-7.966c-.394 2.812-1.57 3.438-3.277 3.197a6.7 6.7 0 0 1 -2.037-.614l-.919 3.229c.767.386 1.971.72 2.906.851 3.95.557 6.657-.896 7.377-6.036l1.597-11.407-4.056-.573zm-75.664 164.62 8.914-2.306 1.405-.362 1.111-1.283-2.516-2.194-4.588-4.003-1.591 1.838 4.227 3.686-.05.059-7.258 1.844-3.24.823-1.034 1.195 4.274 3.728 3.337 2.912 1.591-1.836-4.633-4.043zm30.159 7.196-1.637-.874-.946-.505-3.507 6.618c-1.074 2.03-2.328 2.585-3.687 1.86-1.326-.707-1.541-2.113-.493-4.092l3.507-6.615-2.6-1.388-2.71 5.112-.688 1.3c-1.667 3.147-1.28 5.443.689 7.005q.49.39 1.106.717c2.991 1.596 5.672.857 7.551-2.69l1.78-3.356zm16.293 5.242-2.424-.744-1.102 3.62c-.574 1.885-1.031 3.583-1.348 5.283l-.055-.018a38 38 0 0 0 -.725-4.887l-1.187-5.352-3.278-1.006-2.825 9.277-.967 3.173.967.296 1.61.494 1.143-3.75a126 126 0 0 0 1.544-5.464l.06-.001c.163 1.646.485 3.502.815 5.056l1.188 5.616 2.945.903 3.638-11.944.153-.503v-.001zm-28.48-8.329.114-.095 1.738-1.443c-.224-.45-.806-1.193-1.738-1.96q-.239-.197-.507-.394c-2.751-2.005-6.12-2.17-8.664.155-.393.36-.768.78-1.117 1.261-2.056 2.84-1.973 6.258 1.117 8.858q.264.22.554.434c1.277.93 2.44 1.393 3.035 1.493l.988-2.121c-.603-.153-1.51-.575-2.226-1.098-2.118-1.544-2.401-3.78-.875-5.89 1.697-2.344 3.987-2.417 5.872-1.044a6.4 6.4 0 0 1 1.71 1.844m16.502 4.498-.966-.392-1.764-.715-3.222 8.003-1.638 4.067 1.638.664 1.093.443 3.892-9.67zm-52.533-43.051 3.555-1.587-1.199-2.7-2.356 1.052-7.721 3.45-1.774.793 1.774 4.002 1.522 3.427 2.25-1.006-2.099-4.729zm17.767 23.269 2.416 2.6 1.803-1.687-4.274-4.599-2.526-2.718-1.802 1.686 2.375 2.557-6.757 6.324-.928.868.928.999 1.08 1.162 7.63-7.14zm-25.488-41.273 5.437 2.095-.524-3.32-2.51-.715a38 38 0 0 0 -2.269-.54l-.005-.038c.675-.42 1.256-.806 1.976-1.31l2.16-1.498-.527-3.339-3.737 2.978-2.028 1.615-7.069-2.69.524 3.32 2.49.7c.955.258 1.671.476 2.455.625l.007.039c-.684.48-1.302.891-2.12 1.51l-2.136 1.533.53 3.358 5.958-4.858z" fill="#161413"/><path d="m25.65 204.791c2.069-.674 3.681-2.048 4.35-3.876.429-1.169.47-2.523 0-4l-.011-.037c-1.108-3.424-4.275-4.929-7.71-4.117a10 10 0 0 0 -.703.198c-3.515 1.146-5.586 4.198-4.396 7.87.823 2.54 2.672 4.116 5.1 4.373 1.03.11 2.165-.02 3.37-.412m-6.205-4.536c-.582-1.792.614-3.42 2.832-4.247q.153-.057.31-.109c2.398-.781 4.549-.263 5.161 1.627.625 1.93-.934 3.615-3.15 4.338-.819.267-1.61.386-2.321.348-1.365-.071-2.43-.712-2.832-1.957m25.179 23.742-1.814-2.329-3.81 2.986-2.742 2.15-3.671 2.88 1.814 2.328 1.857-1.456 2.743-2.15zm-8.366.39q.175-.1.351-.211c.998-.624 1.816-1.416 2.391-2.317 1.15-1.801 1.322-4.04 0-6.269l-.089-.146c-.705-1.131-1.621-1.938-2.654-2.423-1.884-.884-4.159-.698-6.258.546l-.196.12c-3.134 1.962-4.408 5.427-2.368 8.702.692 1.11 1.567 1.937 2.564 2.45 1.806.928 4.013.833 6.259-.452m-6.259-2.498a2.8 2.8 0 0 1 -.503-.607c-.75-1.203-.5-2.56.503-3.73a6.555 6.555 0 0 1 1.497-1.26c1.77-1.11 3.59-1.315 4.762-.394q.366.285.638.72c.785 1.261.4 2.68-.638 3.835-.38.421-.844.808-1.372 1.139-1.84 1.153-3.726 1.341-4.887.297m168.863-27.796 1.094-3.38-2.342-.763-2.583 7.977-.498 1.538.498.162 1.845.602 1.077-3.325 5.243 1.71 4.752 1.55.91-2.812-5.662-1.845zm-15.303 25.585-1.688 2.42 4.613 3.242 6.013 4.225 1.69-2.42-7.704-5.412zm-6.985 14.98-3.312-1.824-.837-.461-.57.553-2.199 2.13 2.2 4.33 1.406 2.77 2.555 5.029.757-.734 1.43-1.385-1.43-2.644-.218-.405.218-.21 2.454-2.378 1.113.626 1.92 1.08 2.27-2.2-4.19-2.31zm0 4.086-1.437 1.393-1.361-2.523a20 20 0 0 0 -.516-.897c-.271-.453-.558-.916-.793-1.325l.028-.027.766.481c.484.302.992.614 1.443.87l1.87 1.066.624.357zm18.891-18.023-.434-.273-2.178-1.364 2.178-3.496.351-.566-.351-.22-1.671-1.049-2.53 4.062-2.286-1.433 2.683-4.308-2.042-1.28-2.702 4.34-1.541 2.475 1.541.966 8.548 5.359.914.573 4.385-7.043-2.04-1.279zm-8.982 12.271-.59.706-5.753-4.843-2.298-1.935-1.268 1.516-.624.748.624.526 3.566 3.003 5.746 4.838.597-.712 4.612-5.517-1.887-1.59zm22.784-49.691-.834 5.284-3.043-.483.746-4.731-2.356-.375-.585 3.704-.16 1.028-2.662-.424.791-5.017-2.377-.377-1.252 7.935 5.66.9 7.154 1.136 1.295-8.202zm-14.237 17.32-.931-.416-1.097 2.47 2.028.907 1.417.633c1.795.801 3.419 1.463 5.06 1.987l-.021.052a37 37 0 0 0 -4.923.126l-1.533.15-3.908.38-1.393 3.141 5.301 2.368 6.55 2.928 1.096-2.47-3.569-1.596a131 131 0 0 0 -5.216-2.203l.006-.06c.367.007.748.01 1.133.006a52 52 0 0 0 3.968-.201l4.197-.367 1.502-.132 1.252-2.824-2.754-1.23zm-86.69 55.561-2.944-.103-.453 13.01 8.1.284.085-2.47-5.155-.181zm9.678 10.668-.268-3.079 4.755-.417-.208-2.387-4.755.419-.235-2.694 5.043-.443-.209-2.405-7.978.7 1.13 12.968 8.248-.723-.211-2.405zm54.332-20.748a5 5 0 0 1 -.495.649 8 8 0 0 1 -1.233 1.136c-2.118 1.544-4.326 1.124-5.852-.985-1.698-2.344-1.06-4.552.825-5.926a6.3 6.3 0 0 1 2.275-1.062l-.886-2.242c-.577.087-1.694.518-2.925 1.416-3.177 2.316-4.282 6.178-1.68 9.771 2.173 3 5.695 3.923 9.324 1.277q.078-.056.152-.114a10.6 10.6 0 0 0 1.407-1.261c.389-.422.656-.794.793-1.06l-.793-.743zm-77.688 8.801v.002l-.153 1.093-.154 1.098.154.021 3.296.466-1.463 10.442 2.916.412 1.462-10.443 3.508.494.343-2.448-9.873-1.392zm35.044 5.046c-1.76-.336-2.543-.57-2.686-1.388-.116-.666.39-1.344 1.64-1.565a6.14 6.14 0 0 1 2.78.136l.236-2.435c-.82-.228-1.936-.343-3.376-.089-3.014.534-4.54 2.53-4.157 4.717.328 1.864 1.92 2.799 4.173 3.165 1.632.28 2.32.629 2.46 1.428.146.837-.458 1.513-1.785 1.747-1.231.218-2.497.031-3.344-.231l-.167 2.5c.792.272 2.302.42 3.762.16 3.507-.62 4.832-2.76 4.454-4.908-.317-1.808-1.586-2.8-3.99-3.237m25.275-2.747-1.446-2.73 4.215-2.248-1.12-2.115-4.215 2.25-1.265-2.39 4.469-2.385-1.13-2.13-6.002 3.202-1.067.57 1.067 2.014 5.023 9.48 7.307-3.9-1.13-2.13zm-6.494-3.192c-.767-1.362-1.838-2.193-3.076-2.587a6.2 6.2 0 0 0 -2.278-.284c-.927.051-1.967.28-3.194.704-1.403.485-2.7 1.035-3.663 1.552l4.15 12.09a23 23 0 0 0 2.708-.733q.244-.08.504-.17c2.191-.757 3.87-1.816 4.85-3.152a6 6 0 0 0 .264-.395c.839-1.413 1.135-3.334.327-5.69a8.3 8.3 0 0 0 -.592-1.334m-4.997 8.188q-.176.061-.357.12c-.233.077-.457.14-.626.158l-2.763-8.055c.218-.136.6-.329 1.217-.543.778-.268 1.51-.361 2.172-.274 1.371.18 2.449 1.122 3.028 2.85 1.01 2.94-.153 4.894-2.671 5.743m71.717 2.005-.093-.002h-.042a7.537 7.537 0 0 0 -7.564 7.572c0 4.293 3.356 7.617 7.564 7.617l.134-.002c4.184-.07 7.38-3.368 7.38-7.615.002-4.172-3.218-7.524-7.379-7.57m0 13.617h-.093c-3.31 0-5.726-2.678-5.726-6.047 0-3.324 2.416-6.05 5.638-6.05h.046l.134.002c3.196.074 5.5 2.768 5.5 6.047.001 3.34-2.325 6.043-5.5 6.047m1.563-5.817v-.091c.896-.277 1.521-.923 1.521-1.8 0-.692-.312-1.293-.715-1.617-.515-.35-1.107-.577-2.37-.597l-.18-.001c-1.209 0-2.149.137-2.82.277v7.525h1.703v-3.002h.805q.271 0 .493.042c.607.118.92.49 1.028 1.159.223.876.356 1.522.582 1.8h1.835c-.18-.231-.316-.694-.537-1.848-.225-1.015-.629-1.615-1.345-1.846m-1.561-.582a4 4 0 0 1 -.45.027h-.805v-2.17c.18-.046.492-.09.939-.09q.165 0 .316.013c.854.082 1.25.519 1.25 1.14 0 .654-.53.988-1.25 1.08" fill="#161413"/><path d="m205.426 151.364a3.88 3.88 0 0 1 3.873 3.881 3.88 3.88 0 0 1 -3.873 3.882 3.88 3.88 0 0 1 -3.873-3.882 3.88 3.88 0 0 1 3.873-3.881m-185.852 0a3.88 3.88 0 0 0 -3.873 3.881 3.88 3.88 0 0 0 3.873 3.882 3.88 3.88 0 0 0 3.873-3.882 3.88 3.88 0 0 0 -3.873-3.881" fill="#ed1b26"/><path d="m92.268 245.974c-.771-1.783-1.328-3.177-1.457-4.309-.172-1.741-.43-5.178-.43-6.963 0-6.442-.17-13.711-.17-20.24 0-4.047-1.501-9.227-1.501-12.84 0-1.176-.773-4.527-1.073-6.747-.643-2.481-2.358-6.05-2.358-8.53 0-2.788.47-5.79.47-8.576 0-1.48-.428-3.09-.728-4.483l-.128-4.221c-.644-.654-2.359-1.916-2.445-2.438 0 0-1.072-1.915-1.072-2.177 0-.566-.214-3.091-.771-3.438-.687-1.306-2.36-1.916-3.603-2.656-3.56-4.788-7.247-4.178-11.022-7.486-.943-1.306-1.586-2.612-2.358-3.96-.343-.35-1.801-7.095-1.801-7.749 0-1.044-.343-2.611-.387-3.83l.472-4.048c-.728-2.133-1.458-4.31-1.93-6.529 0 0-.6-5.658-.6-5.964-.3-3.22-.214-6.658-.214-9.88a42 42 0 0 1 .814-6.963c.258-.784.516-1.568.73-2.35.3-2.177.772-4.485 1.2-6.66.473-1.437 1.544-3.091 2.23-3.091 2.016 0 2.574.174 4.418 2.046 1.115 2.046 3.817 5.571 4.16 6.224.729 1.262 3.26 5.31 5.018 7.443 1.5 2.176 4.116 5.44 6.003 6.963 2.66 2.699 8.149 7.182 10.42 9.75 0 0 1.889 2.351 2.746 4.049.043.565.3 1.175.557 1.74.429.566 1.501 1.263 1.501 1.524 0 .174.343 1.35.343 2.089l1.888.87.556-1.175c.13-.26 1.673-1.392 2.36-1.392 1.028 0 1.072.39 1.072 1.523.514-.086 1.158-.436 1.629-.436.643 0 1.072.523 1.672.218.43-.043 1.158-.523 1.416-.523 1.03 0 1.587.828 2.444 1.35.73.043 1.457.174 2.145.435.643-.653 1.459-1.175 2.23-1.175 1.244 0 2.53 1.045 3.86 1.48.814.13 2.187.392 2.444.392 1.416 0 3.218-1.306 4.847-1.437.77.348 1.586.697 2.401 1.044l1.33.305c.3-.479.17-.827.17-1.436 0-.175.387-.436.558-.74-.17-.914-.513-1.916-.513-2.917.128-.826 0-1.349-.087-2.045.215-2.09.13-4.745.772-6.747.215-.653.644-1.262.815-1.959.3-1 .3-1.959.3-3.047.343-.74.815-1.741 1.158-2.48 1.33-1.829 2.745-3.7 4.075-5.354.3-.174.6-.392.9-.61.6-2.045 1.457-4.221 2.616-6.005.815-1.046 1.715-2.047 2.53-3.134 1.114-1.741 2.574-3.656 3.56-5.485.642-1.175 1.33-2.35 2.015-3.526.771-.564 1.33-1.044 2.273-.826.644.26 1.887 1 2.573 1.74.129.74 1.371 2.395 1.715 3.222.817.74 1.587 2.045 1.673 2.916.044.87.472 2.307.472 3.395 0 1.61.086 3.482 1.03 4.787 0 .35.857 2.265.857 3.614 0 1.871.085 4.309.128 4.44.087 2.393.13 4.962.13 7.354l-1.115 11.491c0 .828.6 1.742.685 2.613.3 3.22.987 6.528.858 9.749-1.329 4.266-2.616 6.66-3.9 9.098-.688 1.349-2.276 2.697-4.076 4.482-1.544 1.654-2.703 2.916-4.203 4.528v1.87l.215.566.085.61.215 1.001.085 1.175.13.61c.17 2.829.3 5.44-.43 8.356l-.514 1.568-.471.914c-.258.957-.13 1.96-.258 3.003l.128 1.567 1.545 9.184c.429 2.002 5.403 19.282 5.403 19.282l.815 1.349c1.03 1.219 5.961 8.444 6.519 8.923.729 1.698 3.515 6.485 4.46 7.878-2.788 2.525-6.606 5.746-8.406 7.051-1.243.914-4.589 3.525-7.933 5.179-2.488 1.263-5.705 2.83-7.163 3.614-.772.435-7.376 2.742-10.035 3.351-2.274.566-8.534 1.741-10.893 2.046-2.915.392-6.603.304-10.163.218-2.745-.088-5.49-.175-7.806-.523-3.475-.52-8.836-1.869-12.825-3.089" fill="#161413"/><g fill="#fff"><path d="m128.621 244.704.302-.217zm.617-.013c.384-.74 1.2-2.438 1.2-2.438 1.414-2.09 5.79-8.357 6.69-9.75.515-.391 1.157-1.392 1.5-1.916-4.031 1.394-7.676 4.223-11.536 5.92.043-.086-.943-4.744-.943-8.618 0-2.524-.043-4.876-.043-6.224 0-1.393.354-2.622.825-3.405 3.088-8.291 4.64-9.517 7.239-11.582 2.438 1.413 4.888.948 7.14-.708 1.12-1.244.792-2.67.92-3.89-.3-.913-.429-.48 0-1.525.257-.827.43-2.133.43-3.09-.258-1.306.815-2.22.815-3.57-.258-.696-.858-1.35-1.244-1.959.128-.347.557-.696.557-1.044 0-.305-.386-.827-.557-1.219-.17-.391.086-.783.3-1.175 0-.653.129-1.087.43-1.61 0-.87 1.2-2.177 1.714-2.916l1.973-3.439.473.827.213 1.175c.043.392.215 1.044.3 1.437a482 482 0 0 1 2.444 10.881c1.03 4.875 2.403 10.054 2.573 14.494l.3.914c2.274 1.96 4.889 5.137 6.82 8.183 2.23 3.482 3.645 6.573 5.102 9.837-3.344 3.048-8.62 7.312-12.65 9.14-6.433 2.525-12.738 5.267-17.756 6.051-.512.087-3.472.826-5.23 1.219m-9.91-21.653v-.088c-.6 0-.685-.304-.6-.651.129-.61.902-1.437 1.502-.523.213.348-.172 1.088-.902 1.262m1.743-2.285-.557-.085c0-.395.128-1.003.128-1.395l.258-.174c.429-.565 1.114-1.739 1.972-2.566.386-.828 1.544-2.568 2.488-2.83-.086.262-.13.523-.172.74-.6.827-1.03 1.437-1.458 2.481-.9 1.435-1.372 2.698-2.659 3.83m-1.744-2.506v-.61l.602-.566-.602-.61.602-.695.085-.13c.385-.828 1.115-1.916 1.8-2.83.86-1.133 1.931-2.177 3.219-2.873l.6 1.044 1.243-.74-.429.567-1.287 1 .3-.522-1.028.74c-.514.697-1.03 1.436-1.502 2.089-.6.783-1.2 1.654-1.757 2.655zm-19.457-7.222-.13-.305c.429-.305.514.13.514.435zm-.436-.664 1.243-3.22 1.33-1.872.3-.827.686-.174.729-1.174 1.03-.828h.685c-.473.653-1.073 1.262-1.716 1.872l-.6.74h-.43v.305l.6-.915c.644-.086.644.784.73 1.22h-.9l-.515.957c-.171.61-.258 1.219-.6 1.741-.6 0-.43-.304-.43-.522-.513.74-.986 1.611-1.415 2.394z"/><path d="m100.884 209.624-.171-.696.472.305-.172.305zm37.303-3.607h-.558l.729-.392-.3-.74c-.6-.043-1.889-.804-2.274-.935-.515-.13-2.888-3.19-3.06-3.887 1.243 0 3.381 3.299 6.148 3.08l1.243-1.262c.473 0 .603-.609.902-.304.172.304.085.87.085 1.349 0 .391-.043.915-.257 1.35-.472.087-.815.304-1.242.478 0 .436-.13.566-.43.871-.086.61-.386 0-.686.392zm-29.747-3.702c-.687-.48-1.845-2.09-1.845-2.872 2.145 1.87 4.118 3.699 6.432 4.526 1.76.653 3.903.61 6.22.436 3.121-.235 2.94-.677 5.724-2.017l-.104 1.176c-1.814 2.369-2.843 1.146-5.577 2.013-1.83.639-5.017.457-6.176 0-2.916-2.654-3.559-1.434-4.674-3.262m32.368-2.154-.13-1h-.472l.602-.872h.3l.385 2.176zm-6.634-3.402c.215.217.557.48.643.74.687.392 1.372 1.088 2.059 1.436.686.305 1.543.784 2.316 1.176.127.61-.173.305-.473.392-.685-.348-2.53-1.307-3.388-1.61-.643-.829-1.157-1.047-1.157-2.134"/><path d="m117.005 202.551-.73-.218-1.672-.305-1.545-.174-2.144-.87-.857-.392-.9-1.044-.987-.61-.728-.74-.13-.696.858.696c.9.61 1.415 1.48 2.616 2.09l.815.086 1.158.74c1.114.35 2.572.306 3.688.306h.73zm-2.978-3.022-.6-.13-2.445-1.742h.728l1.63.523c.814 0 1.844.522 2.616.218l1.93.304.515.218-.814.479zm-9.512-.294-1.715-1.743c0-.87-4.846-8.138-5.533-9.575l-.9-1.566c.3 0 1.03-.479.473-.479l.857.174c.385 1.48 1.715 2.22 2.273 3.265.73 1.305 1.415 3.134 2.144 4.831l1.158 1.48.728 1.132.816-.741-.3 1.785 1.458-1.176-.858 1.786zm34.879-1.804c-.43-.218-.943-.262-1.415-.436-.729.174-2.789-1.263-2.874-1.306-.129-.305-.343-.827-.429-1.132 1.157.523 2.145 1.132 3.303 1.741h1.415c.3-.13.472-.435.729-.74.858.696.815.435.815 1.698-.43 0-1.114-.218-.729-.523l-.086.088c-.257.217-.515.435-.729.61m-19.196.92c-.214-.436.901-.306.473.087zm-13.723-1.623-.3-.522h.729zm11.104-.234c-.558-.218-1.76-.305-2.401-.305v-.435c-.901-.131-.859-.784-1.844-.61 0-.13-.045-.26-.087-.435l-1.844-1.61 1.244.304c.342.349 2.188 1.133 2.702 1.262.858.218 3.902.654 4.288 1.22l.3.826c-.814-.087-1.543-.13-2.358-.217m24.04.014v-.915l-1.844-1.479-.301-1.132 1.33.61-.428-1.22-1.115-1.044v-.61l1.93-1.784.213 1.262-.513.61c.256.217.728.392.728.608l-.127 1.132c.257.74 1.115 1.48.857 2.177zm-9.036-7.443.214-3.22.516-.827v.61l.17 2.174c-.085.306-.085 1.002-.085 1.002.043.523 1.33 1.35 1.758 1.35.772 0 2.102.087 3.045-.39.343 0 1.373-1.307 1.373-1.35.386-.61.772-3.222.987-3.44-.172.48.213 2.177-.13 3.004-.686 1.523-1.115 2.48-2.659 3.308-2.83.348-3.56.609-5.189-2.22m-13.691 2.577h-.3l.128-.827.9.827z"/><path d="m120.447 184.73.902-2.481c.642-.653 2.185-1.568 2.358-2.438l1.2.131.129-.61 1.716.48c.429.61.642.826.857 0h.686l1.329.739 1.544-.74 2.015.566c.258 0 .774-.87 1.158-1.175l5.403 4.048.301.915c-.858-.348-1.457-.915-2.316-1.307l-1.672-.435-.17.305-1.46.13-.943-1.044-1.587-.305-.558-.217-1.715.958c-1.458-.48-1.887-.218-3.473-.958-2.315.217-2.272.74-3.86 1.48-.857 1.35-1.63 3.438-.9 4.962 3.216 3.09 7.719 2.872 7.505-2.612.343.217.686.434 1.029.61.171 1.523-.3 3.09-1.158 4.048-.728.783-2.1 1.392-4.031 1.175-1.33 0-2.66-.697-3.387-1.612-.988-1.131-1.545-3.09-.902-4.613m-3.588 6.176v-.87l1.029.435-.6.174zm-.727-.516-.385-.173-.172-.523h-.687l-.3-.304v-.61l.9.61 1.073.609zm-6.389-.441c-.3-.523.859-.305.43.086zm.145-1.032.6-1.741.815.087-.085 1.219-.73.565zm3.776-1.032v-.087h-.514l-.215-1.044.943 1.262zm-2.396-.958v-.74l.429-.827.73.305-.13.957zm1.307-1.178c0-.088.3-.61.3-.088zm1.452-.37v-.392c.558-.305.729.695.3.392z"/><path d="m141.764 185.306v-.74c-.986-1.436-3.001-3.395-3.901-4.005-.772-.522-2.66-1.958-4.247-2.96-2.701-.13-5.574-.173-8.277-.173-1.2.086-2.101.392-3.173 1.131l-.687.914v-1.131l-1.329-.174v-.87l-2.573.13-1.243.74-.172-.13.43 1.74c-.345-.043-.644.13-1.03.044-.816.566-1.887 1.654-2.016 1.959l-1.029-.436-.428-1.436-.902 1.044-1.243-.61-.172-1.043-1.03.304-1.242-.522 1.844-3.83h-.687l.086-1.132h.3c.3-.826.514-1.785.514-2.655 0-.827.044-1.872.086-2.742l-.6.173c0-.087.043-2.306-.386-1.392l-1.33 3.7-.427 2.045-.386.131c-.816 1.09-3.002 3.004-3.217 3.004-.085 0-2.702 1.523-3.946 1.958l-.6.827h.3l-1.03 3.657-1.115.392-.428 1.349-.172-2.177 2.016-4.962c.987 1.523.771.218.129-.827 1.715-.783 3.088-1.611 4.202-2.611 1.116-1.002 1.93-2.22 3.131-3.526 0-.696.085-1.523-.43-2.046l-1.715.61.601-1.697-2.316-.436.3-.435 2.745-1.132c-1.372 0-2.658-.304-4.76-1.088-.943-.479-1.116-.74-1.458-1.828l1.33.436.085-.436 1.33.566h.129l.686-.436c.429.436 1.029.305 1.63.305 0-.305.771-.61 1.029-1.654l1.415-.217v.74l1.115-1.35 1.972-1.349c.987.74 2.231 2.525 2.445 2.786 0 0 2.144 1.002 3.902.61-.987-.306-1.63-.654-2.573-.87l-1.458-1.612.301-.695c1.5 1 3.772 1.261 5.618.652l-.815-.436c-1.46.349-2.96-.652-3.346-.652-.344 0-2.272-1.567-2.272-2.002 0-.175-.601-1.568-.901-2.22l.6.522c.43.915 1.501 1.74 1.886 1.74.6 0 1.972.436 3.175.305l-3.945-1.74-1.202-1.436-.385-1.263 1.116-.74.17-4.527-1.286-.957.171-.74 2.36 1.437 1.33-.697-3.475-3.221-4.373-.305-2.145 1.131 1.415-1.566-.6-.61-2.145 1.045-1.244 1.435-1.029-.39.3 1-3.73 1.873-.13.739 2.874-1.437 1.244-.74 1.2-.304-2.058 1.437.128.304c4.265-1.105 11.719 1.495 5.795 3.944l-.476 1.888c-1.116-.392-2.402-.435-3.602-.609l-3.86.174v-.914l.728-.305v-.217l.172-.61.429.697c.172-.61.343-1.045.814-1.568l-.943.131c0-.653.686-.696.943-1.436l-.943-.436-.472 1.263c-1.116.61-3.344 1.392-3.43 1.392-1.159 0-6.106-3.535-6.75-1.576-10.21 14.043 6.373 24.545 5.162 24.993-2.058-2.089-3.73-2.96-5.188-5.702-1.373-.697-2.36-2.785-3.388-3.569-.386-.783-.686-1.872-.686-2.612 0-2.001.514-5.353.514-6.615 0-1.785 2.187-7.4 3.775-8.967 1.543-2.524 3.001-4.614 5.102-7.094 3.046-2.48 2.316-4.788 3.946-6.441.3 0 .771.565.943.565.086 0 .686.261 1.201.261.944 0-1.458 2.263-2.144 2.872a38 38 0 0 1 -1.93 2.656c0 .827-2.101 3.004-2.658 3.743.557-.305 2.958-2.96 3.344-3.699.558-.871.986-1.48 1.715-2.22.987-1.219 2.06-2.22 2.745-3.657.472-.435 1.115-1.48 1.245-1.566.085-.088 1.372-1.175 1.542-.696.514 1.437-.387 2.306-1.501 3.438-.6.914-1.845 2.133-1.845 2.655-.043.696-.9 1.524-1.715 2.525l-2.873 3.7c-.172.304-2.058 2.263-2.016 2.306l1.2-1.044c.73-.61 1.888-1.96 2.617-2.699.857-1.175 2.83-3.177 3.216-4.004.343-.828 1.115-1.35 2.144-2.438 1.03-.914 1.973-1.435 3.046-2.263.9-.48 1.586-.87 2.53-1.349.6 0 1.2.086 1.629.304-.343.174-.943.436-1.03.436-.557 0-.77.696-1.371 1.131-.258.522-.644 1.045-.944 1.567-.772.566-1.372 1.306-2.144 1.828-.472.566-1.115 1.132-1.587 1.698.686 0 1.715-.783 2.187-1.263.816-.957 1.158-.783 2.016-1.654.6-.609 1.115-1.391 1.63-2.176.858-.218 1.329-.087 1.886-.087 1.073 0 1.116-.523 2.316-.435l-.085.828c-1.158 1.044-1.801 1.48-3.26 1.48-.042 0-1.715 2.132-1.757 2.175-.816.48-1.502.696-2.23 1.263.728-.218 2.701-.654 2.743-.697.172-.087.987-1.218 1.459-1.872 1.116-.174 2.494.06 2.976.243 1.178.447 1.784.107 3.508 2.767 3.428 3.565.202-.583-.652-2.01-.157-.258-1.801-1.652-2.102-2 .729-.044.772-.262 1.629.086.816.305 1.072-.523 1.716-.523.857 0 1.802.305 2.444.958.044.435.044 1.35.044 1.35 0 .435.986.392 1.715.392.3.652.687 1.523 1.115 2.088.815.218 1.33.391 2.145.391 3.847 12.04 2.71.304.729-.609-.39-.18-1.844-1.219-2.788-1.74-.559-.697-1.115-1.22-1.501-2.003 2.485.326 3.908.445 6.31.542 3.873-1.41.898-.874-1.804-1.069-1.329-.043-2.534-.256-3.905-.3-1.631-1.654 1.371-.522 1.371-.522l1.588-.915c1.63-.26 3.387-.26 4.417 0 1.543.393 3.259 2.7 4.846 3.919 1.03 1.174 2.444 2.48 3.816 3.351 1.93 1.654 5.275 5.353 7.162 7.616 2.273 2.655 2.103 5.006 2.66 8.01.043 1.13.256 2.262.386 3.438l.3.74-.3.697c.558 1.175.9 2.828.9 4.134 0 2.438.3 5.397 0 7.922-1.2 3.613-3.13 7.443-6.218 9.663z"/><path d="m140.457 185.085-.3-.958.472.13zm-23.453-2.58-.128-.435-.3-.304h-.301l-.686.304.257-.74.6-.305c.858 0 .43.436.945.74z"/></g><path d="m114.597 177.344 1.244.13v-1.262l-1.071-1.654c1.887.783-.601-1.132.727-1.132l-.9-1.74c.343-.306.73-1.089.988-1.176l.984-.826-.3-.741 1.116-.479v.914l-.3 1.96c.472-.48 1.245-1.22 1.5-1.829h.559v1.001l.9.13-.3.48v.26l.3.48h1.415l1.416.435.128 1.132-2.144 1.349-2.145.522-.815 1.654-1.63-.305-.129 1.568c-.772-.87-.514.217-.943 0zm29.691-8.665c-1.072-.01 1.372-2.264 1.93-3.657-.73.654-1.76 1.306-2.187 1.306-.343 0-1.673.349-2.616.436 1.886-.87 3.989-1.22 4.974-3.395-2.06.913-3.688.74-4.846.74-.858 0-3.73-1.35-3.73-2.612h.427c1.545.87 2.83 1.697 4.59 1.784.6-.26 2.058-1.088 2.273-1.261.17-.131 1.158-1.742 1.286-2.482l-.985.088c-.73 1.392-2.06 2.698-2.873 2.698-2.017 0-3.132-.26-4.718-1.523-.945.696-1.287 1.045-2.016 2.046l-1.115 2.524c.129-.653.214-1.305.3-2.002l2.358-3.004.73-.739.3-1.306c-1.158.653-2.316 1.74-3.303 2.655-1.115.304-2.358.827-3.473 1.045.47-.262.9-.523 1.33-.827 1.544 0 2.83-1.392 3.687-2.568.387-.392 1.373-1.48 1.93-1.48 1.723-4.8 2.746-.423 5.232-1.567 1.545.522 1.758 1.175 2.874 2.308-.087-.915-.859-3.134-1.458-3.744-.725-.895-3.095-2.63-2.53-3.613 1.072 1.089 2.444 2.22 3.13 3.613.6 1.306 1.415 3.134 1.759 4.483.17 1.044.3 2.09.3 3.178-.086 2.393-2.145 4.656-2.145 6.485-4.376 7.291.604.408-1.415.39m-33.311-4.67c-.215-.392.9-.304.515.13zm-.798-.369-1.33-.61-.943-.74-.171-.302.728-.524.601.827 1.716.74z" fill="#161413"/><path d="m143.652 163.271h.3l.557-.131.473-.304h.213l.515-.436.515-.914 1.114.435-.685.48-1.544.957-.3.216zm-42.695-1.474h-.729v-.697l.43-.13h2.015l.6.958-2.015-.131zm38.689-2.85c.6.566 1.158 1.088 1.973 1.306.557 0 1.2.087 1.716-.174-.13.261-.473.87-.686 1.044-.514.61-1.545.696-2.316.262-.945-.523-2.445-2.22-.687-2.438m7.275 2.186-.43-.609.815-.131zm-.001-1.473.386-.61zm-45.745-.737-.9-.174-.086-.87 1.715.434-.3-.61-.3.176h-.429l-.985-.698c-.172-.652-.43-1.522-.43-2.264 0-.783.3-1.391 1.243-1.566.345.349.172 1.045.515 1.392 0 .523.3 1.176.815 1.524 1.03.523 1.458.479 2.53.305.172-.087.343-.174.515-.305.215-.565.515-.261 1.115-.13l-.428 1.35h.428l-.172.695h-.428l-1.03-.173-.214-.13-.171 1.044-1.845-.48.815.174zm47.922-.369-.128-.174c0-2.22.557-4.048.3-6.746-.472-1.567-1.501-3.178-2.831-4.353.256-1.871-.943-1.61 1.802-2.916.728-.913.728-.305.857-1.218l1.586-1.176c.815 3.134.514 1.044 2.145 1.044 0 .783-.343 2.525.128 3.004-.086.826-.042.826-.729 1.349-.857.74-.772 1.697-1.845 1.872 1.073.217 1.802 0 2.875 0 .258.696.428.87.428 1.653.902.523.643-1.087.988-1.653 1.285-.785.857-.304 1.243-1.872 1.458-.565.772-1.044 1.758-1.044l-.43-1.437c-.857-.217-1.286-.26-2.143-.13-.816-.827-1.03-1.61-1.33-2.568l.215-1.654-1.63-.305-.728-.74c1.242-.696 1.715-1 3.045-.523 1.072.087 2.744.523 3.044 1.48.514.74 1.329 2.394 1.373 2.437l.3.13-.258-5.309-.043-3.526c.428-2.176-1.63-2.088-1.63-4.178 0-1.262.471-2.96.902-4.091.041-1.611.214-1.393.214-3.526.258-2.482.643-5.223.47-7.79.13-2.438-.042-5.094-.257-7.531-.043-.436-.3-1.785-.513-2.176l.085-3.091 1.157 2.48c.172 1.611.473 2.96.473 4.658 0 2.045.085 4.353.128 6.399.3 4.047-.128 8.095-.729 12.143l-.73 2.612h.73l.729 2.045c-.686 1.828-.215 4.004.085 5.92-.043 1.437.215 2.96-.257 4.44-1.244 3.612-2.573 7.18-5.19 9.967-.813 1.002-4.544 4.963-5.659 6.094m-8.725-1.112.815-.523h.6l1.159 1.045c-.471.043-.944.174-1.33.087-.3-.044-.858-.435-1.244-.61" fill="#fff"/><path d="m99.869 157.816-.13-.172-.728-.218-.172-.61 1.33.696zm4.574-3.093-1.33-.088.3-.74h.429l1.287.74zm-31.352-2.167s-.985-.784-1.715-.828c-.428.13-.428.436-.128.61l1.029.827c-1.844-.61-3.13-1.35-5.446-2.786-2.145-2.655-3.43-6.007-3.43-8.706 0-1-.945-3.742-1.073-4.439 1.544.566 1.416.566 2.358 1.567.043.217 1.073 1.306 1.245 1.306.214.87.256 1.088.428 1.871-.3.436-.815 1.263-1.115 1.654-.042.61-.214 1.262-.3 1.872 0 .827-.129 1.001.43 1.567.17-1.132.428-2.35.557-3.439 1.071-.565 1.243-.653 2.573-.74.47-.13.857-.696 1.072-.957.857-1.045.558-1.306.085-1.306-.3 0-.9.522-1.286.522.471-.479.256-1.132.128-1.742 0-1.174-.6-2.741-1.244-3.525-.343-.566-1.115-.48-1.329-.523-.43-.043-2.23-2.699-2.23-2.699 0-.782-.772-2.61-1.588-3.742 0-.523-.685-1.088-.857-1.567-.043-.566-.085-1.176 0-1.741.515.523.558 1.262.9 1.48 0 0 .558.522.815.695.472.045.858.176 1.244.436.471.305.6 1.001 0 .914-.514-.348-.644-.61-1.244-.61.086.828.086.871.815 1.133l.429-.436c.43.305.815.61 1.2.871.129.391.816 1.698.816 2.176.643.305 1.071.478 1.457 1.001-.214.74.086.827.386 1.872.987 1.132 1.672 2.437 2.659 3.612.73 1.133 1.887 2.612 2.66 3.396 1.157 1.175 2.229 3.83 3.258 3.786.944.958 1.416 2.394 2.573 3.003.558.305 1.288-.522 1.93-.827.687-.87 1.845-.609 2.145-1.349l-.3.915-.172 1.262 1.287-.13c.128.609-.13.304-.6.87l-.816.304-.6 1.306-.944-.305-.215.87-1.114-.13.3.827-1.416.522v-1.479h-.6v.959c-.472.26-.985 1.044-1.458 1.044-1.242 0-2.7-.61-3.559-1.044m25.469-2.698 1.2-.74-.47.74zm11.909-1.621h-.3v-.959h-.429v-1l1.244.828.3 1.044zm-8.06-1.474.301-.523.3-.217h.857l-.3.74zm10.892-.444-1.458-.39-.172-.436-.728-.304v-.74l.6.435 1.33.435zm31.876.001-.387-.086-.428-.61.729-.565.3.74zm-35.725-1.104-.985-.132-.302-.696 1.887-.304.258.696z" fill="#fff"/><path d="m80.118 145.068c-1.159-.957-2.36-3.003-3.046-4.22a23 23 0 0 0 -1.973-1.35v.522c-.3-.566-.257-.696-.858-.913 0 .522.043.39.472.39 0 .436.257 1.002.686 1.22.13.478.429.653 0 .87-.514-.522-1.372-1.089-1.715-1.784-.342-.35-1.156-1.002-1.586-1.438-.515-.348-.558-.783-.73-1.437l2.445.61.687-.218v.74l2.743 1.35.3.696.859.74 1.844 2.48.3.741.129-.218.17-.696.988.696c0 .654-.215.697-.6 1.22-.344.086-.73.044-1.116 0m63.825-.001-.685-1.304.986-.741c.214-.349.343-1.001.729-1.045.3 0 .257.61.43.914zm-4.284-4.791c-1.244-1.262-3.816-2.568-4.46-4.178.258-.654.686-1.088 1.03-1.741.385-.783-.302-4.658-.56-5.789-.213-.74-.428-5.223 0-5.832l.945 2.187c1.614-3.48 4.066-4.724.858.075-.087 2.526-.173 2.874 1.071 5.137.471.653.986 2.22 1.416 2.655-.772.784-.3 1.871-1.587 1.871.6.828 2.358 1.654 2.144 2.787.128.478.085 3.177-.858 2.828m7.988-2.652c.944-1.611 2.23-3.221 2.872-4.876.3-.87.645-1.566.73-2.48 1.072 0-.943-.436-1.029-.436-.816-.087-1.543-.523-2.273-.914-.215-.13-4.588-2.262-4.588-2.262 1.33-.088 3.044 0 4.502 0 1.8 2.35.385 2.088 3.773 1.74 1.073 1.088.43.696.43 1.959 0 .566.258 1.175.172 1.48-.43 1.436-1.33 2.48-2.145 3.612-.942 1.044-1.071 1.654-2.444 2.177m-77.91-1.547.257-1.132.986-1.437c.085.653.172 1.175.172 1.871-.558.13-.558.13-.687.697z" fill="#fff"/><path d="m132.609 134.236.526-2.593 1.897-.206c.043.479.237 2.016.322 2.494l-.9 1.48zm-18.269.562c0-1.176.43-1.436 1.158-2.177.258-.217.644-.13 1.072-.13.258.522.601 1.044.816 1.567-1.115.74-1.63 1.262-3.046.74" fill="#fff"/><path d="m135.883 134.75v-.74z" fill="#161413"/><path d="m118.518 134.019-.688-.52.515-.61 2.316 1h.73c0 .436-.3.74-.6.74zm-21.918-1.553-.3-.914-.717-1.451 1.16-1.055 1.4 1.766.216.305v.435l-.901 1.044zm36.305-.59v-.522c.643-.392 1.201-.74 1.93-.74l.343 1.131c-.644.175-1.544.131-2.273.131" fill="#fff"/><path d="m94.567 131.361v-.218l-.3-.304v-.523l1.028-1.132-.663-1.119 1.143-.756.122.962.986.391.129.305-.3.74-.987.74h-.258zm38.388 1.13c.043-.566-.483-4.134-.398-4.7 1.03-.522 1.346-1.718 2.377-1.108l-.049 4.307z" fill="#fff"/><path d="m94.423 127.971h.127l.173-.261-.943-1.653 1.803-.424.298 1.903-1.03.74zm38.192 0 .6-7.792c.515-1.043.816-2.002.9-3.394.515-3.831 3.345-6.399 5.576-9.402l2.1-3.787c-.085.218-.085 2.22-.985 3.83-.858 1.437-2.316 3.44-2.53 3.57-.601 1.262-3.817 4.135-2.488 4.918-.343.522-.73 3.787-.815 4.962a10.67 10.67 0 0 1 -.515.74c-.643 0-.816.653-1.115 1.132-.043.391-.3.914.172 1.044.643-.086.985-.304 1.242.436l-.299 1.131h-1.115l-.428.914 1.158-.479c.299.087.642.131.985.174v.827c-.429.26-.9.48-1.416.61zm10.312-1.254c-.301-.435.815-.304.386.087z" fill="#fff"/><path d="m93.842 126.349c-.73-.435-1.116-1.175-1.716-1.567 0-.48-.043-.914-.129-1.35-.386-.478-1.072-1-1.5-1.436-2.403-2.655-6.005-4.918-8.278-7.312-1.158-1.175-6.776-8.575-7.633-10.272l-7.483-11.096.965-.047 1.543 1.871c.3.436 2.616 3.7 4.803 7.139 2.188 3.35 5.19 7.4 6.518 8.966 2.96 3.438 6.734 6.833 6.734 6.833 2.53 2.133 5.146 4.135 7.333 6.486.086.479.472.87.6 1.349zm41.822-4.686-.17-.218v-2.262l.3.087.6.61-.3 1.565zm6.124-18.836c.642-1.131 1.286-2.307 1.972-3.481.472-.784 1.244-1.35 1.715-2.002.473-.305 1.887-3.135 2.146-3.527.557-.74 2.572-3.176 2.572-4.134.815-.828 1.715-1.35 2.745-1.35.857 0 1.243 1.088 2.015 2.133.215.826.945 1.741 1.845 2.22.6 1.088 1.072 2.742 1.244 3.96.042.566.514 5.18.557 5.834-.086.173-.858-.741-.986-1.611-.172-1.002-.557-2.96-.815-3.83.643-1.307-.9-3.918-1.715-4.962-.687-.653-3.132-.653-3.475-.436l.515 1.175c-1.158 0-1.373.958-1.758 2.046-.557.436-.258.87-1.287.87-.643-.26-.773-.391-1.457-.391 0 .392-1.717 3.046-1.93 3.133-1.244.959-1.159 1.742-1.973 2.917-.258.435-3.774 6.79-1.93 1.436" fill="#fff"/><path d="m67.232 93.615c-.3-.61-1.329-1.262-2.1-1.262-.516 0-1.073.435-1.502.566-.43 1.958-.643 3.96-.944 6.136-.771 3.352-1.029 6.53-1.286 9.925 0 2.437-.086 4.7-.086 7.138 0 1.654.13 3.525.13 5.18s.128 3.526.084 5.18c0-.436-.6-2.134-.815-3.83-.214-1.917-.128-4.528-.214-6.356a258.602 258.602 0 0 1 -.171-8.27c0-2.176.472-4.44.6-5.962l.815-4.615.815-4.657c.858-1.349.943-2.175 2.401-2.175 1.545 0 2.016 1.043 3.131 2.045l.214.74z" fill="#fff"/><path d="m112.5 0 7.185 22.028 23.126-.014-18.688 13.659 7.16 22.045-18.782-13.598-18.784 13.598 7.16-22.045-18.688-13.659 23.126.014z" fill="#161413"/><path d="m112.5 8.981-4.538 13.914-.628 1.925-2.02-.001-14.574-.009 11.778 8.608 1.632 1.193-.626 1.925-4.517 13.909 11.863-8.588 1.63-1.18 1.631 1.18 11.863 8.588-4.518-13.909-.626-1.925 1.633-1.193 11.778-8.608-14.574.009h-2.02l-.629-1.924z" fill="#fff"/><path d="m112.5 15.65-2.574 7.89-1.094 3.353-3.52-.002-8.224-.005 6.647 4.858 2.844 2.08-1.09 3.355-2.555 7.867 6.725-4.868 2.84-2.056 2.841 2.056 6.725 4.868-2.555-7.867-1.09-3.356 2.845-2.08 6.647-4.857-8.225.005-3.52.002-1.094-3.354z" fill="#ed1b26"/></g></svg>