<svg height="167.738" viewBox="0 0 44.381 44.381" width="167.738" xmlns="http://www.w3.org/2000/svg"><g fill-rule="evenodd"><path d="m44.357 22.192c0 12.241-9.923 22.165-22.165 22.165s-22.165-9.924-22.165-22.165c0-12.242 9.923-22.165 22.165-22.165s22.165 9.923 22.165 22.165" fill="#ffeb00"/><g fill="#003055"><path d="m22.38 42.507c-11.073 0-20.081-9.008-20.081-20.081s9.008-20.081 20.08-20.081c11.073 0 20.081 9.008 20.081 20.08s-9.008 20.082-20.08 20.082m0-38.757c-10.299 0-18.676 8.378-18.676 18.676s8.377 18.676 18.675 18.676 18.676-8.378 18.676-18.676-8.378-18.676-18.675-18.676"/><path d="m12.658 13.838-4.59-4.777 1.013-.974 4.59 4.778zm19.092 0 4.59-4.777-1.014-.974-4.59 4.778zm0 16.871 4.59 4.777-1.014.974-4.59-4.777zm-19.092 0-4.59 4.777 1.013.974 4.59-4.777z"/><path d="m33.696 23.636h-1.43c-.098 3.735-1.023 6.09-1.418 6.93-9.658 3.04-15.538.802-16.975.126-3.04-9.658-.802-15.538-.126-16.976 9.657-3.04 15.537-.802 16.975-.126 1.09 3.462 1.5 6.435 1.548 8.896.215-.614.548-1.352 1.028-1.898 0 0 .14.176.332.475-.172-2.376-.667-5.137-1.688-8.272l-.355.115.207-.343c-.272-.165-6.807-3.985-18.847-.067l.116.356-.344-.207c-.164.272-3.985 6.806-.066 18.846l.355-.115-.207.343c.18.11 3.117 1.828 8.59 1.828 2.776 0 6.206-.443 10.257-1.761l-.116-.356.344.207c.105-.174 1.704-2.907 1.82-8"/><path d="m15.6 12.696 2.154.468.656.703.281.655-.047.703-.108.612-.136.632-.075.472.038.434.012.334.385.658.111.508.074.26-.173.112-.273.013-.124.111.21.161s.695.484.745 1.166l-.1.223-.049.211.112.211.347-.025.198-.087-.012-.248-.124-.16-.062-.212.025-.31s.025-1.066-.41-1.5c.075-.323.236-.298.236-.298s.248-.1.347.335c.1.434.386 2.117.386 2.117s.133.089.16.946c-.025.459.335 1.066.335 1.066s.334.658 2.033.93c0 0 .497.038.521.348s-.148.372-.148.372-.125.136-.236.421c-.112.286-.248.298-.248.298l-.26.012-.038.137.037.198.05.211-.161.298s-1.29.47-1.153.954l.198.224-.037.21-.248.125s-.52-.087-.385.694 1.104 1.699 1.054 2.827c-.05 1.129-.644 1.513-.644 1.513s-.62.72-.67 1.662l-.074.273-.236.322s-.88 2.865-.05 3.485c0 0 .434.136.633-.955.062-.546.421-.732.421-.732l.186-.16s-.111-.497.72-.881.806-.224.806-.224.67-.16 1.637-1.699c.967-1.537 2.405-1.798 2.405-1.798s1.017-.93 1.005-2.108c.012-.67-1.166-1.426-1.885-1.91-.236-.123.012-.409.012-.409s.224-.099.186-.36c-.037-.26-.496-.545-.496-.545s-.88-.707-.942-1.166c-.062-.458-.521-.719-.521-.719s-.88-.285-.83-1.091c0-.41.73-.558.73-.558l.323-.037-.062-.124-.173-.075-.124-.074-.36-.013-.074.124s-.273.422-.782.422-.67-1.14-.67-1.14-.136-.869.2-1.191.607-.906 1.326-.88c.72.024.57.545.57.545h.199s.26-.484.496-.422c.235.062.273.285.273.285s0-.508.409-.719c.248-.124.173-.335.074-.397s.087-.31.087-.31.285-.26.087-.52.223-.435.223-.435.558-.297.645-.533c.087-.235.818-.086.818-.086l.323-.373.248-.458.471-.509-.111-.21-.125-.137.137-.149-.149-.174s-.806-.31-.83-.62c-.026-.31.26-.16.26-.16l.297-.187-.012-.223-.199-.136-.21-.124s.173-.422-.236-.509c-.41-.087-.83.285-.83.285l-.125.298-.235.199-.323.185-.186-.123-.198-.15-.087-.086h-.285l-.05-.248-.1-.161-.148-.174-.149-.149.174-.21.111-.211.062-.273.124-.124s.075-.124.112-.161c.037-.038.174-.273.174-.273l.235-.161.211-.062s.31-.025.347-.013c.038.013.434-.012.434-.012l.199-.211s-.013-.161.037-.161.236-.31.236-.31l.111-.248-.124-.26-.335-.063-.235-.124-.037.15-.038.21-.21.1-.038-.162-.074-.211c-.124-.111-.285-.26-.285-.26l-.075-.162-.086-.21s.012-.162-.013-.112c0 0-.322.174-.31.21.013.038-.025.261-.025.261l-.16.112-.658.025-.372-.025-.322-.137s-.15-.16-.162-.111-.36.062-.36.062-.458.124-.446.161c.013.037-.335.012-.335.012l-.21-.297-.1-.372-.285-.248-.236-.273-.136-.347-.322-.199-.385-.012s-.409.112-.372.124-.322.062-.322.062l-.397-.012-.298-.186-.409-.261-.459-.397-.31-.347-.198-.322-.347-.199-.67.037-.372.174-.335.161s-.372.15-.322.174c.05.025-.087.26-.038.285.05.025 0 .236.05.273s.124.297.124.297l-.025.31-.31.087-.273.025-.221-.05s-.25.224-.213.249c.038.024.213.185.213.185l.234.199.136.198-.124.236-.246.112-.3.099s-.347.099-.347.136-.334.223-.334.223-.075.174-.038.211c.038.037.211.124.211.124l.223.1s.013.123 0 .16c-.012.038-.186.2-.186.2s-.16.284-.124.297c.038.012 0 .235.075.273.074.037.36.26.397.285s.423.149.423.173.187.22.187.22"/><path d="m27.787 9.637c.037.012.385.086.41.124.024.037.297.285.334.31.037.024.162.21.186.248.025.037.05.347.05.347l-.075.397.26.198.174.198.025.249.385.074.434.05.21.111.36.161.273.15s.223.197.248.235c.025.037.186.31.186.31s-.136.26-.136.31-.496.31-.496.31l-.385.124-.446-.186-.186-.236-.248-.136h-.335l-.26.149-.125.186-.074.186-.26-.013-.124-.136s-.075-.248-.025-.248-.025-.273-.025-.273l-.1-.248-.222-.05s-.273-.099-.236-.099.298-.372.298-.372l.384-.149.124-.273-.087-.272s-.198-.248-.16-.236c.036.012-.15-.186-.15-.186s-.273-.186-.235-.186c.037 0-.26-.248-.26-.248s-.385-.186-.323-.198-.075-.335-.013-.335.013-.323.062-.31c.05.012.124-.137.174-.137s.41.1.41.1"/></g><path d="m17.323 26.21a6.6 6.6 0 0 1 -4.908 2.152c-3.595 0-6.51-2.81-6.51-6.276s2.915-6.276 6.51-6.276c2.008 0 3.803.876 4.997 2.253l-1.752 1.707a3.978 3.978 0 0 0 -3.172-1.548c-2.173 0-3.935 1.699-3.935 3.794s1.762 3.794 3.935 3.794a3.982 3.982 0 0 0 3.107-1.465zm21.18 2.363c-.047-10.96-5.386-13.208-5.386-13.208-5.527 5.059-5.012 13.255-5.012 13.255h2.81v-1.733h4.918v1.686zm-6.485-4.937s.366-1.93 1.35-3.048c0 0 1.12 1.408 1.39 3.048z" fill="#e62b2f" stroke="#003055" stroke-width=".509"/></g></svg>