<svg viewBox="0 0 1502.71 1502.71" xmlns="http://www.w3.org/2000/svg" xmlns:xlink="http://www.w3.org/1999/xlink"><clipPath id="a"><path d="m2321.88 3176.71c3.48 18.85 62.97 342.24 25.02 465.09h.01c9.14-29.56 12.63-70.75 12.62-116.5-.05-144.37-35.01-334.27-37.65-348.59m5652.12 310.81h.07zm-4460.75 0h.02zm4460.72 0c-72.44-.01-150.46 11.14-234.5 36.33 84-25.17 162.09-36.33 234.5-36.33m-4460.8 0c-174.57.01-316.26 64.86-428.62 154.28h.04c112.34-89.43 254.02-154.24 428.58-154.28m-358.35 54.38c4.18 7.65-1.87 16.97-10.33 17.01 6.58-.03 11.71-5.68 11.69-11.8-.01-1.74-.43-3.51-1.36-5.21m-10.4 17.01h.02zm-869.24 3.55c-.03.06-.06.13-.09.2.03-.07.06-.14.09-.2m-.18.4c-3.28 6.91-10.34 11.67-17.9 11.7 7.56-.03 14.62-4.79 17.9-11.7m-18.01 11.7c.01 0 .01.01.02.01-.01 0-.01-.01-.02-.01m1299.24 13.68h.04zm0 0c-80.47 0-175.6 12.84-274.99 53.56h.03c99.36-40.71 194.51-53.55 274.96-53.56"/></clipPath><clipPath id="b"><path d="m8337.31 3031.8h-1577.71c70.45 48.21 108.84 81.62 108.84 81.62l-63.32 127.72c80.05 63.75 188.49 163.29 260.92 282.11 2.43 3.98 3.6 8.44 3.6 12.93 0 2.2-.28 4.4-.84 6.55l-.22.43c49.18 35.46 92.02 71.25 123.06 98.64h308.15c61.92-45.8 140.62-86.04 239.68-117.95 84.04-25.19 162.06-36.34 234.5-36.33h.1c174.58.01 316.27 64.86 428.62 154.28h63.18c-76.76-97.11-135.2-171.95-135.2-171.95 38.99-68.7 54.18-140.46 54.15-210.52-.05-80.5-20.21-158.76-47.51-227.53m-3647.02 0h-1567.12c-11.38 25.57-20.1 52.35-24.99 81.45-7.11 41.57-10.66 83.77-10.67 126.01-.01 24.92 1.21 49.86 3.66 74.69 7.3 74.3 22.4 163.09 63.2 227.2.15.23.29.46.42.7.01.02.02.03.03.05.93 1.7 1.35 3.47 1.36 5.21.02 6.12-5.11 11.77-11.69 11.8h-.07c-.72-.01-1.44-.07-2.18-.21-.09-.02-.18-.04-.27-.05-491.1-108.5-810.3-374.1-820.2-382.5.03.14.06.32.11.56 2.64 14.32 37.6 204.22 37.65 348.59.01 45.75-3.48 86.94-12.62 116.5h737.64c112.36-89.42 254.05-154.27 428.62-154.28h.1c72.45-.01 150.47 11.14 234.5 36.33 99.04 31.91 177.72 72.15 239.62 117.95h302.64c31.01-27.39 73.79-63.18 122.86-98.64v-.43c-.63-2.15-.93-4.35-.94-6.55 0-4.49 1.27-8.95 3.69-12.93 68.84-112.89 170.29-208.41 248.65-272.38l-70.74-142.95c1.48-1.27 2.96-2.52 4.44-3.78.75-.64 1.51-1.28 2.26-1.91.91-.77 1.84-1.55 2.75-2.31.75-.64 1.51-1.27 2.26-1.91 1.52-1.26 3.03-2.52 4.54-3.78.36-.29.72-.59 1.07-.89 25.99-21.52 52.5-42.03 79.42-61.54m4927.79 397.65c-65.91 50.8-132.41 101.1-202.21 146.5-37.48 24.48-76.45 46.73-116.91 65.85h358.22c-.87-101.08-20.33-181.99-39.1-212.35m-7748.9 0c-18.85 30.36-38.36 111.27-39.27 212.35h341.08c-116.22-62.86-248.68-171.02-301.81-212.35m3896.34 128.47h-.09c-194.42.02-369.52 38.46-508.54 83.88h987.65c-166.08-60.79-328.3-83.87-478.93-83.88z"/></clipPath><clipPath id="c"><path d="m8337.31 3031.8c27.3 68.77 47.46 147.03 47.51 227.53-.05-80.5-20.21-158.76-47.51-227.53m-5214.14 0c-11.38 25.57-20.1 52.35-24.99 81.45-7.11 41.57-10.66 83.77-10.67 126.01.01-42.24 3.56-84.44 10.67-126.01 4.89-29.1 13.61-55.88 24.99-81.45m-801.4 144.35c9.9 8.4 329.1 274 820.2 382.5-491.1-108.5-810.3-374.1-820.2-382.5m0 0c.03.14.06.32.11.56-.05-.24-.08-.42-.11-.56m7296.31 253.3c-65.91 50.8-132.41 101.1-202.21 146.5-37.48 24.48-76.45 46.73-116.91 65.85 40.46-19.12 79.43-41.37 116.91-65.85 69.8-45.4 136.3-95.7 202.21-146.5 18.77 30.36 38.23 111.27 39.1 212.35-.87-101.08-20.33-181.99-39.1-212.35m-7748.9 0c-18.85 30.36-38.36 111.27-39.27 212.35.91-101.08 20.42-181.99 39.27-212.35 53.13 41.33 185.59 149.49 301.81 212.35-116.22-62.86-248.68-171.02-301.81-212.35m6461.49 40.4s58.44 74.84 135.2 171.95c-76.76-97.11-135.2-171.95-135.2-171.95m-356.67 17.67h-.03zm-4460.75 0h-.08zm.02 0c72.41 0 150.51 11.16 234.5 36.33-84.03-25.19-162.05-36.34-234.5-36.33m4460.8 0c174.56.04 316.24 64.85 428.59 154.28h.03c-112.35-89.42-254.04-154.27-428.62-154.28m-4819.28 54.33c.01.02.02.03.03.05-.01-.02-.02-.03-.03-.05m-12.55 16.85a12.564 12.564 0 0 1 0 0m2.25.21h-.05z"/></clipPath><clipPath id="d"><path d="m9998.91 4954.69-5.58-20.95-173.92-653.14-4.82-18.11 17.22-7.39 140.64-60.35 23.04-9.88 6.41 24.23 128.3 481.75 229.5-61.11-115.9-435.46-5.6-20.95 20.9-5.57 146.4-38.98 20.9-5.57 5.6 20.94 115.9 435.48 189.3-50.4-121.5-456.16-5.6-20.95 21-5.57 146.3-38.96 21-5.56 5.5 20.93 172.8 648.92 5.6 20.95-20.9 5.57-941.5 250.72zm15.39-26.52 941.5-250.71-172.8-648.92-146.3 38.95 127 477.11-231.1 61.56-121.5-456.43-146.4 38.98 121.5 456.4-271.4 72.27-133.8-502.71-140.64 60.35zm1082.5 980.11-29.5-8.53-994.1-286.75-14.7-4.24-.9-15.25-13.3-215.21-1-15.11 13.9-6.09 950.5-417.19 28.5-12.48 1.9 30.98 11.5 186.64 1 15.41-14.3 5.94-455.2 189.6c-100.5 41.79-197.3 81.57-276.1 109.88 94.3 19.62 201.8 47.32 290.7 70.9l471.1 125.26 15.1 4.01.9 15.59 12.1 195.95zm-23.5-29.35-12.1-195.95-471-125.25c-141.1-37.42-268.6-68.88-365.8-85.03l-.2-2.81c85.7-25.49 212.6-77.36 348.6-133.9l455.2-189.6-11.6-186.64-950.5 417.21 13.3 215.21zm-27 456.94-21.6-1.89-970.8-85.1-21.6-1.89 1.9-21.59 16-182.08 1.9-21.59 21.6 1.89 970.8 85.1 21.6 1.88-1.9 21.6-16 182.08zm-19.7-23.48 16-182.08-970.8-85.1-16 182.08zm-177.1 1040.87-21.2-4.84-147.6-33.77-21.1-4.84 4.8-21.12 62.6-273.74-781.17-178.71-21.13-4.83 4.83-21.13 40.84-178.59 4.83-21.13 21.13 4.83 781.17 178.71 62.5-273.19 4.9-21.14 21.1 4.84 147.7 33.77 21.1 4.84-4.8 21.13-175.7 767.78zm-16.3-25.97 175.6-767.77-147.6-33.78-67.4 294.32-802.31-183.54-40.83 178.59 802.34 183.54-67.5 294.87zm-666.6 565.64 212.3 95.19 71.7-159.99c20.7-46.21 27-85.37 18.6-116.4-7.8-28.78-29-51.09-62.9-66.3-20.2-9.08-38.9-13.68-55.5-13.68-45.1 0-83 35.58-115.9 108.76zm295.3 376.39-19.8-8.87-889.08-398.71-19.78-8.86 8.87-19.78 73.35-163.55 8.87-19.78 19.78 8.87 348.33 156.21 56.36-125.65c63.6-141.91 26.8-177.06-66.01-218.71l-15.02-6.73c-89.66-40.2-161-73.86-195.79-110.41l-10.02-10.54 5.95-13.27 71.32-159.04 12.23-27.26 22.11 20.08c30.2 27.41 95.16 56.51 152.53 82.18l7.9 3.58 42 18.8c110.2 49.45 171.3 114.07 182.3 192.56 40.3-28.37 87.9-43.61 137.9-43.61 39.5 0 80.2 9.31 121.2 27.69 159 71.29 206.9 239.75 122 429.14l-168.6 375.88zm-111.1-659.24c20.2 0 41.6 5.35 64.4 15.57 79.9 35.83 101.5 108.17 55.2 211.35l-80.6 179.77-251.9-112.93 77.3-172.2c37.7-84.03 82.2-121.56 135.6-121.56m100.2 630.59 168.6-375.88c85.2-190.03 26.8-338.7-111-400.5-40.3-18.04-78-25.79-112.4-25.79-66.6 0-121.1 28.96-159 68.52 6.8-61.59-12.6-148.75-170.1-219.36l-41.9-18.8c-60.34-27.04-131.95-58.39-166.2-89.49l-71.31 159.04c31.5 33.1 98.29 64.92 188.95 105.57l15.03 6.73c107.23 48.12 143.63 98.52 76.93 247.37l-65.3 145.42-368.07-165.08-73.35 163.55zm-922.96 107.13c-72.38 0-133.78 33.1-182.49 98.37-112.67 150.97-14.79 307.77 114.38 404.17 79.45 59.3 158.42 90.65 228.36 90.65 72.63 0 134.4-33.42 183.59-99.34 50.25-67.31 64.05-138.17 41-210.6-21.23-66.74-73.28-132.49-150.54-190.15-81.61-60.91-162.62-93.1-234.3-93.1m123.7 806.63v-21.68l-.01 21.68h-.03c-113.49-.01-229.11-41.54-334.38-120.1-118.61-88.53-195.63-198.94-222.73-319.29-29.05-128.99 2.54-260.06 91.34-379.03 98.72-132.29 229.36-202.21 377.8-202.21 115.3 0 232.78 42.19 339.74 122.01 248.73 185.64 300.33 465.16 128.43 695.55-97.78 130.95-232.78 203.07-380.16 203.07m-123.7-828.3c82.08 0 168.81 38.84 247.26 97.4 154.77 115.5 229.2 276.66 113.96 431.09-56.18 75.27-125.94 108.05-200.97 108.05-77.84 0-161.37-35.27-241.33-94.96-158.05-117.96-229.65-285.96-118.79-434.51 56.69-75.95 126.42-107.07 199.87-107.07m123.66 806.62c134.16.01 263.62-61.5 362.8-194.36 168.3-225.51 112.7-488.56-123.99-665.21-99.99-74.62-214.3-117.71-326.78-117.71-131.04 0-259.63 58.43-360.43 193.5-179.04 239.87-96.8 500.96 126.99 667.99 101.1 75.45 212.8 115.78 321.41 115.79m-822.35 412.35 169.71 196.53 125.64-108.48c42.87-37.03 103.76-111.94 29.76-197.63-27.57-31.93-58.01-48.12-90.5-48.12-34.51 0-72.35 17.58-112.5 52.24zm122.98 489-14.16-16.4-636.82-737.45-14.17-16.4 16.4-14.17 138.64-119.72 16.4-14.16 14.16 16.4 231.84 268.45 136.97-118.27c81.97-70.78 170.61-108.2 256.31-108.2 87.11 0 167.4 39.66 232.2 114.7 62.29 72.14 88.42 155.88 75.54 242.15-12.51 83.85-61.07 164.39-140.42 232.91l-296.48 256.06zm111.63-668.37c37.94 0 74.08 17.59 106.91 55.62 69.77 80.8 42.06 164.24-32 228.21l-142.04 122.65-198.05-229.35 138.52-119.62c43.04-37.18 85.9-57.51 126.66-57.51m-109.38 637.87 296.47-256.07c152.2-131.42 181.99-306.28 62.64-444.48-64.25-74.42-139.18-107.19-215.79-107.19-82.5 0-166.94 38-242.14 102.93l-153.39 132.44-245.98-284.86-138.64 119.71zm-804.67 481.2c-104.53 0-191.4-51.5-244.63-144.8-78.87-138.4-37.02-263.9 144.45-433.35 133.25-124.16 140.65-171.56 106.85-230.84-20.26-35.54-48.05-52.82-84.98-52.82-30.05 0-65.62 11.6-105.74 34.48-99.26 56.58-132.47 125.74-104.52 217.66l5.04 16.56-15.04 8.57-160.37 91.43-21.5 12.21-9.31-22.88c-75.57-185.72-1.54-359.17 203.11-475.84 88.18-50.27 171.81-75.76 248.59-75.76 109.56 0 200.41 53.53 255.82 150.71 85.46 149.91 42.93 283.45-146.82 460.97-122.22 113.7-133.79 151.8-105.17 202 17.72 31.1 43.14 46.8 75.55 46.8 25.56 0 54.89-9.3 87.2-27.8 108.82-62 101.47-130.7 82.91-183.7l-5.98-17.1 15.7-8.9 160.39-91.43 20.8-11.85 9.74 21.86c28.24 63.42 98.11 283.02-188.88 446.62-78.14 44.6-153.23 67.2-223.21 67.2m0-21.7c63.59 0 135.35-20.3 212.46-64.3 216.83-123.6 236.07-292.7 179.83-419l-160.39 91.4c23.24 66.4 21.44 144.7-92.63 209.8-35.64 20.3-68.73 30.6-97.93 30.6-39.76 0-72.31-19.1-94.38-57.8-37.6-65.9-12.66-115.1 109.17-228.6 211.37-197.66 208.76-318.64 142.81-434.33-50.62-88.79-132.61-139.77-236.99-139.77-70.09 0-150.26 22.97-237.86 72.91-214.2 122.13-257.63 291.86-193.77 448.85l160.38-91.43c-31.15-102.4 8.05-182.11 114.51-242.8 45.09-25.71 83.82-37.31 116.48-37.31 46.66 0 80.96 23.66 103.82 63.75 42.4 74.39 21.78 133.8-110.9 257.43-190.05 177.5-206.5 290.8-140.41 406.7 48.53 85.2 127.35 133.9 225.8 133.9m-1849.31 617.5-3.64-21.4-163.09-960.7-3.64-21.4 21.38-3.6 666.48-113.13 18.47-3.14 5.77 17.83 47.17 145.64 7.73 23.8-24.73 4.2-491.59 83.5 39.75 234.2 444.38-75.5 21.37-3.6 3.63 21.4 25.33 149.3 3.63 21.4-21.37 3.6-444.37 75.4 32.79 193.1 465.48-79 21.37-3.6 3.63 21.4 25.34 149.3 3.63 21.3-21.38 3.7-662.16 112.4zm17.74-25 662.16-112.4-25.34-149.3-486.85 82.6-40.05-235.8 465.74-79.1-25.34-149.3-465.74 79.1-47.01-277 512.97-87.1-47.16-145.56-666.49 113.16zm-710.96 57.8c-6.74 0-13.58-.1-20.49-.4-330.97-10.4-470.73-279.9-462.42-542.3 9.84-310.2 188.84-502.9 467.16-502.9 6.61 0 13.31.1 20.07.3 226.14 7.2 379.15 129.6 419.8 335.7l5.27 26.7-27.22-.8-183.68-5.8-15.33-.5-4.64-14.7c-20.03-63-61.75-147.4-192.44-151.5-3.21-.1-6.38-.2-9.52-.2-219.59 0-244.6 250.6-247.03 327.5-3.02 94.9 14.17 176.5 49.7 235.9 39.65 66.3 100.24 101.1 180.07 103.7 3.74.1 7.4.1 11.01.1 100.93 0 165.17-45.9 196.41-140.5l5.08-15.4 16.19.5 182.68 5.8 25.32.8-4.71 24.9c-28.63 151.4-151.72 313.1-411.28 313.1m0-21.7c236.32 0 360.15-137.7 389.98-295.4l-182.68-5.8c-27.25 82.5-85.47 155.4-216.99 155.4-3.84 0-7.73 0-11.7-.2-187.78-5.9-256.59-177.9-250.75-361.9 5.41-170.8 75.69-348.5 268.7-348.5 3.36 0 6.76.1 10.21.2 141.79 4.5 190.01 96.1 212.4 166.7l183.68 5.8c-34.97-177.4-163.14-310.7-399.22-318.2-6.52-.2-12.99-.3-19.38-.3-290 0-436.92 211.4-445.49 481.9-8.43 266.2 133.41 510.2 441.44 520 6.68.2 13.29.3 19.8.3m-826.59-57.1-20.97-5.5-161.88-42.6-20.96-5.5 5.51-20.9 81.41-309.7 4.52-17.2c28.12-107.1 56.95-216.8 84.74-307.4-93.89 99.8-254.11 260.3-389.2 395.6-56.28 56.4-108.91 109.2-151.78 152.5l-8.81 8.9-12.12-3.2-222.69-58.5-20.97-5.5 5.52-21 247.72-942.4 5.52-20.96 20.96 5.51 162.84 42.8 20.96 5.51-5.51 20.96-83.52 317.78c-40.25 153.1-72.12 269.1-96.39 350.7 137.79-148.1 422.31-437.9 556.84-574.94l4.36-4.43 8.81-8.98 12.17 3.2 210.7 55.35 20.97 5.6-5.51 20.9-247.73 942.4zm-15.46-26.5 247.74-942.4-210.71-55.4c-159.48 162.5-544.21 554.2-623.48 648.6l-2.32-.6c30.73-89.2 80.07-270.8 124.56-440.1l83.51-317.68-162.83-42.81-247.73 942.39 222.7 58.6c180.11-182.1 532.04-529.5 605.6-619.9l2.32.6c-37.99 103.5-79.25 262.1-119.83 416.5l-81.41 309.7zm-1343.24-1073.13-1.11 6.72c-23.36 141.31-42.97 259.91-59.73 346.81 57.21-57.2 139.02-134.7 255.11-244.6l5.52-5.2zm-48.79 622.33-13.52-7-202.73-105.3-13.71-7.1 2.26-15.3 150.49-1019.69 4.44-30.08 27 14.01 159.92 83.05 13.7 7.11-2.24 15.27-35.88 244.48 298.67 155.11 182.74-168.53 11.18-10.31 13.51 7.01 171.06 88.83 27.37 14.22-22.65 20.94-760.43 702.98zm32.28-655.33 253.32 131.53c-171.33 162.2-273.86 258.8-332.25 322l-1.25-.6c20.89-92.2 47.47-255.2 80.18-452.93m-35.81 629.03 760.43-702.9-171.06-88.83-193.93 178.83-325.87-169.22 38.12-259.76-159.92-83.04-150.5 1019.72zm-766.34-513.8c-87.13 0-176.41-36.74-265.39-109.12-176.02-143.2-213.04-321.06-96.6-464.18 54.38-66.84 116.46-97.97 195.36-97.97 69.49 0 154.79 24.88 260.78 76.08 82.29 39.85 136.29 57.62 175.11 57.62 31.97 0 54.78-12 78.7-41.4 21.5-26.42 29.36-54.09 23.36-82.25-7.01-32.92-32.29-67.29-75.16-102.17-48.02-39.06-93.99-58.87-136.66-58.87-35.58 0-69.6 13.11-104 40.08l-13.63 10.68-13.42-10.93-143.17-116.47-19.19-15.62 17.99-16.97c68.4-64.5 149.56-98.6 234.67-98.6 92.68 0 187.67 39.05 282.33 116.06 96.75 78.71 157.47 167.09 175.57 255.58 17.55 85.73-4.32 169.32-63.23 241.73-60.6 74.47-125.89 107.68-211.72 107.68-73.41 0-162.06-25.53-271.04-78.05-82.68-40.1-132.18-57.2-165.55-57.2-24.58 0-42.19 9.32-60.76 32.14-50.66 62.28-5.65 120.62 41.03 158.61 39.8 32.37 77.47 48.79 111.96 48.79 30.23 0 59.44-12.39 89.29-37.87l13.73-11.73 14.02 11.4 143.17 116.48 18.57 15.1-16.87 16.99c-60.43 60.84-138.3 94.38-219.25 94.38m0-21.71c82.84 0 152.65-36.38 203.87-87.95l-143.17-116.48c-28.35 24.21-62.42 43.06-103.35 43.07-36.23 0-77.84-14.77-125.65-53.66-75.13-61.12-92.94-129.15-44.16-189.09 21.69-26.67 44.84-40.14 77.57-40.14 39.54 0 93.06 19.62 174.96 59.35 111.13 53.55 195.23 75.89 261.63 75.89 89.35 0 146.7-40.43 194.9-99.68 107.78-132.48 85.46-308.46-109.2-466.82-95.2-77.45-186.14-111.19-268.65-111.19-83.23 0-157.88 34.31-219.8 92.69l143.18 116.48c38.17-29.92 77.23-44.7 117.37-44.7 48.41 0 98.39 21.47 150.34 63.74 97.74 79.52 104.43 154.08 54.93 214.91-26.26 32.27-54.59 49.39-95.51 49.39-43.29 0-100.65-19.15-184.54-59.77-105.91-51.16-186.77-73.93-251.35-73.93-78.15 0-132.45 33.32-178.55 89.98-101.73 125.05-81.94 290.98 93.47 433.68 91.77 74.66 177.03 104.23 251.71 104.23m-713.79-663.58c-73.26 0-184.22-28.48-296.82-164.18-144.9-174.63-146.72-356.3-4.74-474.12 52.1-43.23 102.98-63.37 160.13-63.37 80.77 0 173.45 41.43 291.62 130.37 86.05 64.9 140.09 92.59 180.72 92.59 22.19-.01 42.28-8.46 65.14-27.42 26.21-21.76 39.3-47.39 38.88-76.18-.49-33.65-18.63-72.28-53.93-114.81-48.54-58.5-97.61-86.94-150.01-86.94-26.17 0-53.91 7.34-82.44 21.83l-15.44 7.83-11.06-13.32-117.86-142.05-15.8-19.04 20.95-13.16c60.5-38 123.68-57.26 187.77-57.26 111.94 0 221.23 60.4 316.05 174.68 157.94 190.35 163.2 385.65 13.73 509.68-57.62 47.81-113.06 70.08-174.45 70.08-84.55 0-184.28-44.04-304.9-134.66-85.64-64.66-132.4-89.84-166.83-89.84-17.01 0-32.53 6.59-50.33 21.36-23.91 19.83-35.46 43.39-34.37 70.02 1.16 28.02 16.33 60.36 43.85 93.53 40.03 48.24 79.86 71.69 121.76 71.69 23.2 0 47.27-7.17 73.56-21.93l15.75-8.84 11.54 13.9 117.86 142.04 15.29 18.42-19.84 13.39c-54.02 36.45-114.8 55.71-175.78 55.71m0-21.67c60.79 0 116.84-20.42 163.65-52.01l-117.87-142.04c-25.48 14.3-53.77 24.7-84.16 24.7-42.68 0-89.47-20.5-138.44-79.51-61.85-74.53-66.13-144.73-6.64-194.08 20.81-17.27 40.9-26.35 64.17-26.35 42.02 0 94.36 29.63 179.85 94.18 125.19 94.05 217.4 130.31 291.88 130.31 63.17 0 113.58-26.06 160.61-65.08 131.44-109.07 143.67-286.03-16.57-479.16-97.02-116.92-200.59-166.85-299.37-166.85-61.52 0-121.16 19.36-176.24 53.95l117.86 142.05c31.84-16.16 62.56-24.17 92.26-24.17 59.31 0 114.57 31.94 166.69 94.77 80.48 96.97 72.57 171.42 12.21 221.51-25.26 20.96-49.97 32.41-78.98 32.41-46.67 0-104.49-29.61-193.75-96.94-117.96-88.78-205.86-126.01-278.59-126.01-55.35 0-101.92 21.56-146.29 58.37-124.06 102.96-136.83 269.57 7.58 443.6 94.24 113.58 192.16 156.35 280.14 156.35m-665.78-669.36-11.36-18.47-95.76-155.66-11.35-18.46 18.46-11.36 829.88-510.55 18.46-11.36 11.35 18.46 95.77 155.65 11.36 18.47-18.46 11.35-829.89 510.57zm7.1-29.82 829.89-510.57-95.77-155.65-829.87 510.55zm46.43-1121.95-4.83 4.18c-108.47 93.86-199.5 172.64-268.07 228.87 80.78-7.49 193.53-14.75 353.55-25.06l6.66-.43zm-435.488 447.44-5.906-14.04-88.598-210.61-5.992-14.24 11.508-10.31 767.806-688.02 22.66-20.3 11.79 28.04 69.89 166.14 5.98 14.23-11.48 10.3-183.94 165.1 130.53 310.29 248.33-12.76 15.19-.78 5.91 14.02 74.75 177.71 11.96 28.43-30.8 1.62-1034.377 54.38zm443.888-483.38 110.7 263.17c-235.48 15.19-376.11 23.92-461.435 35.19l-.543-1.29c75.028-57.56 199.708-165.93 351.278-297.07m-429.813 460.94 1034.373-54.38-74.75-177.71-263.53 13.54-142.42-338.55 195.43-175.39-69.89-166.14-767.811 688.02zm-321.641-803.68-3.766-21.34-29.07-164.83-3.766-21.35 21.344-3.76 315.332-55.63 17.61-3.11c108.976-19.23 220.64-38.94 314.5-51.59-129.89-43.56-342.825-121.96-522.348-188.05-74.692-27.5-144.508-53.2-201.766-73.99l-11.769-4.28-2.18-12.33-40-226.76-3.766-21.34 21.348-3.76 959.581-169.28 21.34-3.76 3.77 21.34 29.25 165.8 3.77 21.35-21.35 3.76-323.51 57.07c-155.945 27.51-274.671 47.1-358.913 59.21 192.23 63.17 574.503 200.37 755.253 265.24l5.76 2.07 11.84 4.25 2.18 12.38 37.84 214.54 3.77 21.35-21.35 3.77-959.586 169.26zm17.582-25.11 959.582-169.27-37.83-214.54c-214.25-76.89-730.975-262.44-849.885-294.95l-.41-2.36c93.855-9.4 279.418-40.55 451.745-70.95l323.51-57.07-29.25-165.8-959.575 169.27 40 226.75c240.722 87.41 703.495 261.7 816.335 290.7l.42 2.37c-109.86 8.78-271.177 37.66-428.384 65.39l-315.332 55.63zm637.432-1079.87.86-25.06 17.21-498.27-237.377-8.2-15.551 450.4-.746 21.66-21.668-.75-151.336-5.22-21.664-.74.746-21.67 15.551-450.41-195.719-6.76-16.289 471.81-.746 21.66-21.664-.75-151.344-5.22-21.66-.75.746-21.66 23.18-671.16.75-21.66 21.664.75 973.767 33.61 21.66.75-.75 21.67-23.33 675.51-.64 18.73-18.63 2.07-152.1 16.89zm22.53-24.31 152.1-16.9 23.33-675.52-973.771-33.61-23.18 671.16 151.344 5.22 17.043-493.47 239.043 8.26-16.301 472.07 151.34 5.22 16.297-472.06 280.705 9.7zm-472.067-1558.94-40.426 170.63c-22.723 95.91 3.465 153.48 77.836 171.11 13.414 3.17 25.965 4.78 37.312 4.78 35.309 0 85.453-13.51 113.133-130.35l38.508-162.54zm676.657 730.79-25.5-15.57c-34.86-21.3-104.26-37.7-165.49-52.16l-8.2-1.94-44.71-10.58c-117.59-27.87-189.734-79.87-215.215-154.93-45.636 47.12-108.085 73.39-177.261 73.39-23.883 0-48.871-3.05-74.274-9.07-169.554-40.16-248.199-196.63-200.351-398.6l94.957-400.82 5-21.09 21.094 5 948.14 224.63 21.09 4.99-4.99 21.1-41.33 174.38-4.99 21.1-21.1-5-371.46-88-31.75 133.99c-16.93 71.49-16.51 118.26 1.35 147.23 15.6 25.29 45.88 41.28 104.55 55.17l16.04 3.81c98.82 23.41 171.96 42.26 213 71.67l11.81 8.48-3.34 14.14-40.19 169.6zm-692.747-756.88 268.547 63.63-43.508 183.63c-24.313 102.62-68.942 147.03-134.227 147.03-13.25 0-27.347-1.83-42.308-5.37-85.223-20.19-119.993-87.19-93.934-197.2zm678.547 722.8 40.17-169.6c-37.13-26.6-108.71-45.29-205.38-68.2l-16.02-3.81c-114.42-27.09-159.6-69.77-122-228.49l36.74-155.08 392.56 92.99 41.32-174.38-948.14-224.63-94.961 400.82c-48.008 202.66 37.289 337.69 184.257 372.51 24.567 5.82 47.668 8.49 69.278 8.49 89.094 0 152.801-45.28 189.176-101.42 4.91 61.78 40.34 143.74 208.29 183.53l44.71 10.59c64.3 15.22 140.53 32.58 180 56.68"/></clipPath><clipPath id="e"><path d="m8770.65 2664.16-16.71-13.8-517.75-427.75-16.72-13.81 13.81-16.71 620.59-751.19 13.81-16.7 16.7 13.8 521.13 430.51 14.44 11.93-9.72 16.03-79.38 130.84-13.01 21.43-19.32-15.96-384.39-317.54-151.28 183.1 347.44 287.06 16.71 13.8-13.81 16.72-96.43 116.74-13.81 16.71-16.71-13.8-347.47-287.04-124.71 150.98 363.96 300.66 16.71 13.81-13.81 16.71-96.47 116.77zm-2.91-30.51 96.47-116.77-380.67-314.47 152.33-184.4 364.18 300.84 96.43-116.74-364.15-300.86 178.89-216.53 401.09 331.35 79.39-130.84-521.12-430.53-620.59 751.2zm-752.94-570.98-19.45-9.56-150.25-73.79-19.46-9.55 9.56-19.46 141.17-287.46 8.29-16.88c48.63-99.04 98.47-200.47 143.52-283.57-111.79 79.2-300.65 204.77-459.89 310.68-66.36 44.13-128.39 85.39-179.02 119.39l-10.39 6.98-11.25-5.52-206.68-101.5-19.47-9.55 9.56-19.47 429.59-874.71 9.56-19.5 19.46 9.601 151.11 74.2 19.45 9.601-9.55 19.398-144.81 294.9c-69.84 142.2-124.08 249.7-164 324.8 164.08-117.7 499.46-344.7 658.08-452.1l6.84-4.7 10.42-7 11.29 5.5 195.57 96.1 19.46 9.5-9.55 19.5-429.59 874.71zm-9.89-29.01 429.58-874.76-195.56-96c-188.51 127.6-643.27 435.3-739.68 512.17l-2.14-1.06c47.79-81.31 132.13-249.51 209.29-406.61l144.81-294.9-151.12-74.3-429.59 874.77 206.69 101.51c212.63-142.81 626.44-413.58 716.47-487.58l2.14 1c-57.72 93.9-129.59 241.22-199.97 384.5l-141.17 287.47zm-1358.13-1090.758.84 8.098c14.59 141.9 26.83 261 33.52 349.1 40.23-70.5 98.98-167.1 182.39-304.202l3.33-5.496zm116.73 613.288-14.9-3.22-223.3-48.22-15.1-3.25-1.84-15.4-123.22-1023.4-3.64-30.2 29.74 6.402 176.15 37.996 15.09 3.301 1.86 15.301 29.75 245.301 329.01 71.097 131.98-210.698 8.06-12.898 14.88 3.2 188.42 40.698 30.14 6.5-16.34 26.102-548.67 878.47zm-141.35-640.788 279.04 60.2c-122.61 201.598-196.1 321.798-235.79 398.198l-1.4-.3c-4.11-94.5-21.38-258.8-41.85-458.098m131.03 616.378 548.69-878.479-188.42-40.602-140.05 223.602-358.98-77.5-31.6-260.699-176.16-38 123.22 1023.498zm-1458.61-92.38-.36-21.6-15.78-974.3-.35-21.602 21.68-.398 180.74-2.898 21.67-.403.35 21.703 5.45 336.2 86.73 78.597 303.17-433.898 6.35-9.102 11.07-.199 219.82-3.5 42.84-.699-24.83 34.898-397.42 559.001 394.25 387.5 36.92 36.3-51.76.8-220.91 3.6-9.55.1-6.56-6.9c-67.28-71.2-156.5-163.6-235.21-245.1-59.17-61.3-112.6-116.6-150.95-156.9l6.38 393.5.35 21.7-21.68.4-180.74 2.9zm21.32-22 180.74-2.9-7.28-449.598c68.26 73.998 288.51 298.798 424.5 442.798l220.91-3.6-407.44-400.4 408.13-574-219.81 3.5-317.27 454.1-111.92-101.403-5.6-345.597-180.74 2.898zm-869.65-235 55.99 225.8 170.2-42.2c49.15-12.2 83.83-31.4 103.08-57.1 17.85-23.9 22.37-54.3 13.42-90.4-14.84-59.9-47.9-86.6-107.21-86.6-21.06 0-45.72 3.5-73.32 10.3zm-114.16 464.63-5.21-21.04-234.46-945.888-5.21-21 21.03-5.2 173.99-43.203 21.04-5.199 5.21 21.102 91.85 370.5 133.67-33.102c71.31-17.699 112.71-39.5 130.29-68.598 15.35-25.5 15.69-59.703 1.18-118.203l-3.96-16c-24.43-98.597-41.16-172.297-33.81-222.199l2.11-14.398 14.12-3.5 169.18-42 29.01-7.204-2.17 29.903c-2.97 40.601 14.19 109.7 29.32 170.601l2.12 8.598 11.06 44.602c29.06 117.2 15.88 205.2-39.13 262.2 84.91 25.498 147.78 95.298 172.31 194.198 20.01 80.7 7.14 157.1-37.2 221-45.99 66.2-123.95 114.52-225.44 139.68l-399.86 99.13zm349.64-536.83c72.02 0 111.6 35.9 128.25 103 21.08 85.1-22.56 146.6-132.32 173.9l-191.25 47.4-66.41-267.9 183.2-45.4c29.63-7.4 55.71-11 78.53-11m-333.81 510.58 399.85-99.14c202.16-50.14 283.17-187.74 246.82-334.34-31.12-125.6-118.25-179.1-200.97-187.3 52.68-32.699 109.32-101.699 67.79-269.199l-11.06-44.602c-15.9-64.199-35.39-139.898-32.02-186l-169.19 41.903c-6.64 45.2 9.51 117.398 33.4 213.898l3.97 15.898c28.29 114.204 11.04 173.903-147.3 213.204l-154.7 38.298-97.07-391.599-173.98 43.101zm-842.66 412.16-9.67-19.39-435.07-871.95-9.68-19.4 19.4-9.7 604.9-301.8 16.76-8.399 10.71 15.398 87.42 125.7 14.33 20.503-22.44 11.2-446.19 222.598 106.07 212.6 403.31-201.2 19.39-9.7 9.68 19.4 67.62 135.5 9.68 19.4-19.4 9.7-403.32 201.22 87.45 175.26 422.48-210.79 19.4-9.68 9.67 19.39 67.63 135.53 9.67 19.39-19.39 9.68-601.01 299.87zm9.73-29.07 601-299.86-67.62-135.52-441.88 220.46-106.8-214.05 422.72-210.9-67.62-135.5-422.71 210.9-125.42-251.4 465.58-232.3-87.43-125.598-604.89 301.798zm-1143.46-160.77 159.08 196.07 137.07-111.21c86.27-70.01 103.82-137.76 52.19-201.38-27.16-33.48-57.91-50.46-91.39-50.46-33.93 0-71.85 16.8-112.7 49.95zm276.84 341.19 128.92 158.9 150.17-121.84c31.5-25.56 51.26-53.8 57.13-81.63 5.63-26.69-1.44-52.46-21.03-76.59-21.89-26.98-45.57-40.09-72.41-40.09-29.21 0-63.2 15.55-101.01 46.22zm73.71 444.37-13.66-16.83-613.95-756.7-13.66-16.83 16.84-13.67 326.57-264.96c76.67-62.17 160.48-95.07 242.36-95.07 89.04 0 170.61 40.07 229.67 112.87 71.8 88.5 70.37 186.07 40.92 260.02 5.93-.47 11.9-.71 17.89-.71 73.42 0 142.37 35.15 194.15 98.97 47.73 58.81 66.97 127.09 55.63 197.41-12.77 79.25-62.94 154.87-149.11 224.77l-316.82 257.07zm-93.6-974.21c40.01 0 76.45 19.3 108.22 58.46 55.37 68.23 47.52 148.39-55.36 231.88l-153.9 124.87-186.4-229.73 161.08-130.7c44.81-36.35 87.28-54.78 126.36-54.78m262.67 346.91c34.74 0 64.27 17.34 89.24 48.11 48.19 59.37 32.67 130.33-39.28 188.72l-167 135.49-156.23-192.56 158.6-128.68c43.37-35.19 81.41-51.08 114.67-51.08m-165.9 596.81 316.83-257.07c175-141.97 171.87-291.16 90.3-391.69-52.55-64.77-117.81-90.96-177.32-90.96-19.7 0-38.78 2.87-56.54 8.17 36.72-60.27 64.85-172.02-19.1-275.48-56.55-69.71-131.83-104.84-212.84-104.84-74.73 0-154.35 29.88-228.7 90.21l-326.58 264.96z"/></clipPath><linearGradient id="f" gradientTransform="matrix(-10316.00307056 4810.43123335 4810.43123335 10316.00307056 10916.778207 3348.36589)" gradientUnits="userSpaceOnUse" spreadMethod="pad" x1="0" x2="1" y1="0" y2="0"><stop offset="0" stop-color="#f03f1e"/><stop offset="1" stop-color="#f78d11"/></linearGradient><linearGradient id="g" gradientTransform="matrix(7998.64 0 0 -7998.64 1658.57 5076.6)" gradientUnits="userSpaceOnUse" spreadMethod="pad" x1="0" x2="1" y1="0" y2="0"><stop offset="0" stop-color="#3ab23e"/><stop offset="1" stop-color="#47bb3a"/></linearGradient><linearGradient id="h" gradientTransform="matrix(7998.64 0 0 -7998.64 1658.57 5076.6)" gradientUnits="userSpaceOnUse" spreadMethod="pad" x1="0" x2="1" y1="0" y2="0"><stop offset="0" stop-color="#254921"/><stop offset="1" stop-color="#275e2b"/></linearGradient><linearGradient id="i" gradientTransform="matrix(10728.9 0 0 -10728.9 367.952 7557.7)" gradientUnits="userSpaceOnUse" spreadMethod="pad" x1="0" x2="1" y1="0" y2="0"><stop offset="0" stop-color="#ee2b21"/><stop offset=".5" stop-color="#f4ef0d"/><stop offset="1" stop-color="#ee2b21"/></linearGradient><linearGradient id="j" gradientTransform="matrix(7339.14 0 0 -7339.14 2080.81 1535.73)" gradientUnits="userSpaceOnUse" spreadMethod="pad" x1="0" x2="1" y1="0" y2="0"><stop offset="0" stop-color="#ee2b21"/><stop offset=".5" stop-color="#efb611"/><stop offset="1" stop-color="#ee2b21"/></linearGradient><circle cx="751.356" cy="751.356" fill="#f1531a" fill-rule="evenodd" r="751.356"/><g transform="matrix(.13333 0 0 -.13333 -14.26 1525.023)"><path clip-path="url(#a)" d="m2321.88 3176.71c3.48 18.85 62.97 342.24 25.02 465.09h.01c9.14-29.56 12.63-70.75 12.62-116.5-.05-144.37-35.01-334.27-37.65-348.59m5652.12 310.81h.07zm-4460.75 0h.02zm4460.72 0c-72.44-.01-150.46 11.14-234.5 36.33 84-25.17 162.09-36.33 234.5-36.33m-4460.8 0c-174.57.01-316.26 64.86-428.62 154.28h.04c112.34-89.43 254.02-154.24 428.58-154.28m-358.35 54.38c4.18 7.65-1.87 16.97-10.33 17.01 6.58-.03 11.71-5.68 11.69-11.8-.01-1.74-.43-3.51-1.36-5.21m-10.4 17.01h.02zm-869.24 3.55c-.03.06-.06.13-.09.2.03-.07.06-.14.09-.2m-.18.4c-3.28 6.91-10.34 11.67-17.9 11.7 7.56-.03 14.62-4.79 17.9-11.7m-18.01 11.7c.01 0 .01.01.02.01-.01 0-.01-.01-.02-.01m1299.24 13.68h.04zm0 0c-80.47 0-175.6 12.84-274.99 53.56h.03c99.36-40.71 194.51-53.55 274.96-53.56" fill="url(#f)"/><path d="m6900.97 4553.65c36.2 258.39-32.49 832.8-32.49 832.8-5.61 232.7-101.6 289-126.81 380.8-7.4 27.1-8.7 57.3.4 96.1 26.71 124.73 186.75 107.95 347.43 91.16 99.81-10.42 199.86-20.85 268.37 2.64 242.1 112.1-155.2 299.8-155.2 299.8s-554.7 238.4-375.9 289.2c349 61.3 555-85.2 707.11-218.5 0-.6-5.11-706.6-10-921.7-1.2-53.1-2.31-76.3-3.41-51.6-7.3 22.1-14.49 43.2-21.59 63.2h-.11c-157.79 442.2-281.8 384.6-281.8 384.6s-.3-102.7-10-249.8c-21.6-329-90-880-306-998.7m-2296.6 832.8s-68.5-574.41-32.5-832.8c-312.4 171.7-316.1 1248.5-316.1 1248.5s-135.4 62.9-303.4-447.8c-5.4-124.6-13.5 972.6-13.5 973.3 152.2 133.3 358.1 279.8 707.1 218.5 178.8-50.8-375.6-289.2-375.6-289.2s-397.6-187.7-155.5-299.8c68.55-23.49 168.64-13.06 268.48-2.64 160.75 16.79 320.85 33.57 347.62-91.16 39.6-170-119.2-175.4-126.6-476.9m-1017.1 1177.7-447.8 866.8-122.7 237.6c-6.5 12.3-5.4 26.8 2.8 38.3 100.2 137.5 797.3 986.1 2726 945.8 1985.1 1.7 2602.51-812.5 2690.5-946.2 7.4-11.1 8-25.2 1.7-36.9l-572.4-1088.3c-10.4-19.5-35.8-27.3-56.6-17.1-182.7 89.7-1014.2 466.9-2062.1 449.7h-1.9c-26.7 1.2-636.8 22.7-1336.7-168.8h-.1c-250.1-68.4-511.7-163.9-762.3-297.4-21.1-11.3-47.7-3.7-58.4 16.5m5818.4-2381.19c-169.8-104.41-386.3-146.21-648.3-22.21 0 0-281.2-857.7-1017.9-636.9-756.3 243.6-323.9 971.5-323.9 971.5s128.31 237.5 441.4 255.2c-7.3 44.8-10.49 88.59-10.49 131 0 4.1 0 8.3.09 12.4 0 4.1.2 8.2.3 12.3.1 6.2.4 12.3.7 18.3.1 3.2.3 6.3.5 9.4.3 4.5.6 8.9 1 13.3.1 1.8.2 3.6.4 5.4l.6 6.89c.3 3.11.51 6.31.91 9.41.29 3.2.59 6.3.99 9.4l.2 1.9c.8 7.2 1.71 14.3 2.7 21.4 1.11 8 2.3 15.8 3.6 23.6l.3 2.2.4 2.2c2.21 13.3 4.71 26.4 7.5 39.2.7 3.4 1.41 6.6 2.1 9.9.8 3.3 1.5 6.5 2.21 9.8l.4 1.6c1.7 7.2 3.49 14.3 5.29 21.3 1.5 5.9 3 11.6 4.71 17.31.99 3.89 2.1 7.79 3.29 11.7 1.1 3.89 2.3 7.69 3.41 11.49 1.89 6.6 3.99 13.1 6.09 19.5 6.2 19.1 12.71 37.3 19.31 54.6l.19.4c1.51 3.9 3 7.69 4.5 11.5 1.5 3.8 3 7.6 4.51 11.19 1.69 4.11 3.39 8.21 5.09 12.21 2.7 6.3 5.4 12.4 8 18.4 1.3 3 2.71 5.9 4.01 8.8 2.59 5.59 5.09 11.1 7.59 16.4.71 1.3 1.3 2.6 1.9 3.9 1.31 2.7 2.6 5.29 3.9 7.9 1.9 3.9 3.8 7.6 5.6 11.3 2.71 5.4 5.4 10.5 8 15.5 3 5.7 5.91 11.1 8.81 16.2 1.3 2.4 2.59 4.79 3.89 7.1 2.7 4.9 5.4 9.5 7.9 13.8 2 3.4 3.9 6.6 5.71 9.6l.29.5c.9 1.6 1.9 3.2 2.8 4.6l.8 1.29c1 1.71 2.01 3.31 3 4.91 9 14.5 15.1 23.3 16.7 25.5l.3.4.1.2s138.8 551.8 740.3 441.4c-62.1 601.9 263.7 852.6 560.1 956.8-313 387.5-288.7 693.1-69.2 900.9-862 1166.3-1856.79 1124-2420.99 1159.7-564.11 35.6-1083.61 385.8-1083.61 385.8s-519.8-350.2-1083.7-385.8c-13.2-.8-26.7-1.6-40.4-2.4-8.69-.5-17.5-1-26.4-1.4q-8.4-.45-17.1-.9c-8.8-.5-17.8-.9-26.8-1.4-4.8-.2-9.6-.5-14.5-.7q-14.55-.75-29.4-1.5-34.05-1.65-69.6-3.6c-7.3-.4-14.7-.8-22.1-1.2-5.2-.3-10.4-.6-15.7-.9-7.8-.5-15.6-.9-23.5-1.4-2.8-.2-5.5-.4-8.3-.5-7.6-.5-15.4-1-23.1-1.5l-9.3-.6c-7.49-.5-15-1.1-22.6-1.6-8.8-.6-17.7-1.3-26.6-2-5.59-.4-11.3-.9-17-1.3-11.2-.9-22.5-1.8-33.8-2.8-6.9-.6-13.8-1.2-20.8-1.9-10.1-.9-20.4-1.9-30.7-2.9-.9-.1-1.9-.2-2.9-.3-10.2-1-20.6-2.1-31-3.2-1.9-.2-3.9-.4-5.9-.6-8.5-1-17.1-2-25.7-2.9-3.7-.5-7.4-.9-11.1-1.4q-12.15-1.35-24.3-3c-3.1-.4-6.2-.8-9.4-1.2-10.3-1.3-20.6-2.7-30.9-4.1q-36.6-5.1-74.1-11.1c-11.1-1.9-22.3-3.7-33.5-5.7-7.4-1.3-14.89-2.6-22.4-4-9.4-1.7-18.8-3.5-28.2-5.3-9.5-1.8-19-3.7-28.5-5.6s-19-3.9-28.6-6q-14.4-3-28.8-6.3c-6.4-1.4-12.79-2.9-19.3-4.4-10.7-2.5-21.5-5.1-32.3-7.7-2.2-.5-4.3-1.1-6.5-1.6-9.6-2.4-19.3-4.9-28.9-7.4-3.4-.9-6.8-1.7-10.1-2.6-6.6-1.7-13.1-3.5-19.6-5.3l-.8-.2c-6.2-1.7-12.5-3.4-18.9-5.3-10.8-3-21.7-6.1-32.5-9.4-11.2-3.3-22.3-6.7-33.5-10.1-11.1-3.5-22.2-7-33.4-10.7-6.7-2.2-13.4-4.4-20-6.7-6.7-2.2-13.4-4.5-20.1-6.8s-13.4-4.7-20.2-7.1c-16.4-5.8-32.8-11.9-49.3-18.2-4.6-1.7-9.2-3.5-13.8-5.3-9.5-3.7-19-7.4-28.6-11.3l-.3-.1c-3.1-1.2-6.2-2.5-9.4-3.8-9.3-3.8-18.7-7.7-27.99-11.7-4.41-1.8-8.81-3.7-13.21-5.6-2.5-1-5-2.1-7.6-3.3-4.2-1.8-8.4-3.6-12.6-5.5-5.5-2.4-11-4.9-16.59-7.4l-1.41-.6c-1.8-.8-3.7-1.6-5.5-2.5q-18.15-8.25-36.3-16.8c-20.2-9.6-40.3-19.5-60.4-29.8-4.69-2.4-9.4-4.8-14.09-7.3l-1.51-.7c-.9-.5-1.8-.9-2.7-1.4-2-1-3.9-2-5.9-3.1q-13.8-7.2-27.6-14.7l-.5-.3c-18.3-9.9-36.7-20.1-55.1-30.7-2.8-1.6-5.7-3.3-8.5-4.9-1.2-.7-2.5-1.4-3.7-2.2-9.4-5.5-18.9-11.1-28.3-16.8-8.29-4.9-16.6-10-24.9-15.2-4.4-2.7-8.9-5.5-13.3-8.3-19.4-12.1-38.7-24.7-58.1-37.6l-1.4-.9c-3.09-2.1-6.3-4.2-9.4-6.4-11.4-7.6-22.7-15.4-34-23.3-5.2-3.6-10.4-7.3-15.5-10.9l-20.4-14.7c-6.9-5-13.8-10-20.6-15.1-6.6-4.9-13.1-9.8-19.7-14.7l-.1-.1c-7.2-5.4-14.3-10.9-21.4-16.4-6.9-5.3-13.8-10.7-20.6-16.1-6.5-5.1-13-10.3-19.6-15.5-9.2-7.4-18.5-15-27.7-22.6l-1.7-1.4c-2.2-1.8-4.3-3.6-6.5-5.4-6.3-5.2-12.6-10.5-18.8-15.8-2.09-1.8-4.3-3.7-6.4-5.5-10.2-8.6-20.4-17.4-30.5-26.4-9.3-8.2-18.6-16.5-27.89-24.8-.91-.8-1.71-1.6-2.61-2.4-13.6-12.3-27.1-24.8-40.6-37.5-20.4-19.2-40.7-38.8-60.9-59-13.5-13.5-26.9-27.1-40.3-41-53.9-55.8-107.5-115.5-160.6-179.5-5.2-6.2-10.4-12.5-15.5-18.8-3.5-4.2-6.9-8.4-10.4-12.7-6.8-8.4-13.6-16.8-20.4-25.4-4.5-5.6-8.9-11.2-13.4-16.9v-.1c-5.49-7-11.1-14-16.5-21.1-8.6-11-17.2-22.2-25.7-33.5-8.6-11.3-17.1-22.7-25.59-34.2 219.49-207.8 243.79-513.4-69.41-900.9 296.4-104.2 622.4-354.9 560.3-956.8 601.5 110.4 740.3-441.4 740.3-441.4s220.6-306 159.9-677.1c313.31-17.7 441.41-255.2 441.41-255.2s432.39-727.9-323.71-971.5c-736.69-220.8-1017.9 636.9-1017.9 636.9-262-124-478.5-82.2-648.5 22.21-318.8-220.81-263.1-671.51-212.19-753.51 74.69 58.1 306.19 248.3 428.89 259 121.1 10.5 26.3-498.2 23.7-512.3 9.9 8.4 329.1 274 820.2 382.5 10 2.1 17.9-9 12.4-17.5-40.8-64.11-55.9-152.9-63.2-227.2-6.6-66.91-4.3-134.6 7.01-200.7 11.09-66 41.89-120.1 78.79-175.1 34-50.6 71.3-98.9 113.6-142.7 129.2-133.7 290.2-233.6 459.5-308.1 48.3-21.1 97.6-40.6 147.6-57.2 6.2-2 55.1-11.8 57.4-17.8-17.1 45.7-30.1 93.1-40.5 140.61-14.6 65.4-29.1 135.89-13.6 202.5 15.1 64.49 76.8 94.89 135.31 111.09 151.29 42.1 318.09 46.7 473.59 31.8 207.5-19.8 409.7-80.9 599.6-165.4 154.4-68.6 301.9-152.7 440.9-248.4 65.8-45.2 130.9-92.7 191.3-145.2l2-1.7 1.9 1.7c60.41 52.5 125.5 100 191.31 145.2 138.99 95.7 286.6 179.8 440.89 248.4 189.9 84.5 392.1 145.6 599.4 165.4q33.9 3.3 67.8 5.1c144.1 7.7 298.3 1.6 434.3-51.1 53.7-20.8 100.5-51.8 110.11-113.21 9.79-61.99-3.21-125.69-16.7-186.18-10.4-47.51-23.41-94.91-40.51-140.61 2.1 6 51.2 15.8 57.4 17.8 50 16.6 99.1 36.1 147.6 57.2 169.31 74.5 330.1 174.4 459.5 308.1 42.3 43.8 297.6 386.1 134 674.4 0 0 448.21 574 492.9 606 12.81-19.5 16.5-30.2 28.1-46 22.31-30.4 46.3-59.5 70.8-88.21 53.11-62.39 108.91-122.89 168.91-178.69 24.6-22.9 49.89-45.4 77.39-64.6 36.81-25.7 84.9-35.5 125.61-54.4 42.09-19.6 82.59-42.6 121.49-68 69.8-45.4 136.3-95.7 202.21-146.5 50.69 82 106.39 532.7-212.41 753.51" fill="#47bb3a"/><path d="m8741.38 4264.75c-360.4-908.8-1042.5-639.1-1042.5-639.1s-441.51 172.1-305.51 644.2c53.4 198 275.9 408.7 532.1 387.4-38.1 209.01 3.5 412.4 43.5 543.21l.1.39c27.5 89.5 54.2 145 54.2 145s60.7-57.2 102.1-217.2l.1-.6c25.7-99.1 43.91-237.7 35.7-426.41 186.8.31 315.4 98.61 403.5 223.61l.3.4c154.1 219 183.91 519.9 183.91 519.9s536.99-380.9 1065.5-502.8c0 0-57.31-271.8-227.61-489l-.3-.4c-162.7-207.1-428.3-364.4-845.09-188.6m876.7-835.3c-65.91 50.8-132.41 101.1-202.21 146.5-38.9 25.4-79.4 48.4-121.49 68-40.71 18.9-88.8 28.7-125.61 54.4-27.5 19.2-52.79 41.7-77.39 64.6-60 55.8-115.8 116.3-168.91 178.69-24.5 28.71-48.49 57.81-70.8 88.21-11.6 15.8-15.29 26.5-28.1 46-44.69-32-492.9-606-492.9-606 163.6-288.3-91.7-630.6-134-674.4-129.4-133.7-290.19-233.6-459.5-308.1-48.5-21.1-97.6-40.6-147.6-57.2-6.2-2-55.3-11.8-57.4-17.8 17.1 45.7 30.11 93.1 40.51 140.61 13.49 60.49 26.49 124.19 16.7 186.18-9.61 61.41-56.41 92.41-110.11 113.21-136 52.7-290.2 58.8-434.3 51.1q-33.9-1.8-67.8-5.1c-207.3-19.8-409.5-80.9-599.4-165.4-154.29-68.6-301.9-152.7-440.89-248.4-65.81-45.2-130.9-92.7-191.31-145.2l-1.9-1.7-2 1.7c-60.4 52.5-125.5 100-191.3 145.2-139 95.7-286.5 179.8-440.9 248.4-189.9 84.5-392.1 145.6-599.6 165.4-155.5 14.9-322.3 10.3-473.59-31.8-58.51-16.2-120.21-46.6-135.31-111.09-15.5-66.61-1-137.1 13.6-202.5 10.4-47.51 23.4-94.91 40.5-140.61-2.3 6-51.2 15.8-57.4 17.8-50 16.6-99.3 36.1-147.6 57.2-169.3 74.5-330.3 174.4-459.5 308.1-42.3 43.8-79.6 92.1-113.6 142.7-36.9 55-67.7 109.1-78.79 175.1-11.31 66.1-13.61 133.79-7.01 200.7 7.3 74.3 22.4 163.09 63.2 227.2 5.5 8.5-2.4 19.6-12.4 17.5-491.1-108.5-810.3-374.1-820.2-382.5 2.6 14.1 97.4 522.8-23.7 512.3-122.7-10.7-354.2-200.9-428.89-259-50.91 82-106.61 532.7 212.19 753.51 170-104.41 386.5-146.21 648.5-22.21 0 0 281.21-857.7 1017.9-636.9 756.1 243.6 323.71 971.5 323.71 971.5s-128.1 237.5-441.41 255.2c60.7 371.1-159.9 677.1-159.9 677.1s-138.8 551.8-740.3 441.4c62.1 601.9-263.9 852.6-560.3 956.8 313.2 387.5 288.9 693.1 69.41 900.9 8.49 11.5 16.99 22.9 25.59 34.2 8.5 11.3 17.1 22.5 25.7 33.5 5.4 7.1 11.01 14.1 16.5 21.1v.1c4.5 5.7 8.9 11.3 13.4 16.9 6.8 8.6 13.6 17 20.4 25.4 3.5 4.3 6.9 8.5 10.4 12.7 5.1 6.3 10.3 12.6 15.5 18.8 53.1 64 106.7 123.7 160.6 179.5 13.4 13.9 26.8 27.5 40.3 41 20.2 20.2 40.5 39.8 60.9 59 13.5 12.7 27 25.2 40.6 37.5.9.8 1.7 1.6 2.61 2.4 9.29 8.3 18.59 16.6 27.89 24.8 10.1 9 20.3 17.8 30.5 26.4 2.1 1.8 4.31 3.7 6.4 5.5 6.2 5.4 12.5 10.6 18.8 15.8 2.2 1.8 4.3 3.6 6.5 5.4l1.7 1.4c9.2 7.6 18.5 15.2 27.7 22.6 6.6 5.2 13.1 10.4 19.6 15.5 6.8 5.4 13.7 10.8 20.6 16.1 7.1 5.5 14.2 11 21.4 16.4l.1.1c6.6 4.9 13.1 9.8 19.7 14.7 6.8 5.1 13.7 10.1 20.6 15.1l20.4 14.7c5.1 3.6 10.3 7.3 15.5 10.9 11.3 7.9 22.6 15.7 34 23.3 3.1 2.2 6.31 4.3 9.4 6.4l1.4.9c19.4 12.9 38.7 25.5 58.1 37.6 4.4 2.8 8.9 5.6 13.3 8.3 8.3 5.2 16.61 10.3 24.9 15.2 9.4 5.7 18.9 11.3 28.3 16.8 1.2.8 2.5 1.5 3.7 2.2 2.8 1.6 5.7 3.3 8.5 4.9 18.4 10.6 36.8 20.8 55.1 30.7l.5.3q13.8 7.5 27.6 14.7c2 1.1 3.9 2.1 5.9 3.1.9.5 1.8.9 2.7 1.4l1.51.7c4.69 2.5 9.4 4.9 14.09 7.3 20.1 10.3 40.2 20.2 60.4 29.8q18.15 8.55 36.3 16.8c1.8.9 3.7 1.7 5.5 2.5l1.41.6c5.59 2.5 11.09 5 16.59 7.4 4.2 1.9 8.4 3.7 12.6 5.5 2.6 1.2 5.1 2.3 7.6 3.3 4.4 1.9 8.8 3.8 13.21 5.6 9.29 4 18.69 7.9 27.99 11.7 3.2 1.3 6.3 2.6 9.4 3.8l.3.1c9.6 3.9 19.1 7.6 28.6 11.3 4.6 1.8 9.2 3.6 13.8 5.3 16.5 6.3 32.9 12.4 49.3 18.2 6.8 2.4 13.5 4.8 20.2 7.1s13.4 4.6 20.1 6.8c6.6 2.3 13.3 4.5 20 6.7 11.2 3.7 22.3 7.2 33.4 10.7 11.2 3.4 22.3 6.8 33.5 10.1 10.8 3.3 21.7 6.4 32.5 9.4 6.4 1.9 12.7 3.6 18.9 5.3l.8.2c6.5 1.8 13 3.6 19.6 5.3 3.3.9 6.7 1.7 10.1 2.6 9.6 2.5 19.3 5 28.9 7.4 2.2.5 4.3 1.1 6.5 1.6 10.8 2.6 21.6 5.2 32.3 7.7 6.51 1.5 12.9 3 19.3 4.4q14.4 3.3 28.8 6.3c9.6 2.1 19.1 4.1 28.6 6s19 3.8 28.5 5.6c9.4 1.8 18.8 3.6 28.2 5.3 7.51 1.4 15 2.7 22.4 4 11.2 2 22.4 3.8 33.5 5.7q37.5 6 74.1 11.1c10.3 1.4 20.6 2.8 30.9 4.1 3.2.4 6.3.8 9.4 1.2q12.15 1.65 24.3 3c3.7.5 7.4.9 11.1 1.4 8.6.9 17.2 1.9 25.7 2.9 2 .2 4 .4 5.9.6 10.4 1.1 20.8 2.2 31 3.2 1 .1 2 .2 2.9.3 10.3 1 20.6 2 30.7 2.9 7 .7 13.9 1.3 20.8 1.9 11.3 1 22.6 1.9 33.8 2.8 5.7.4 11.41.9 17 1.3 8.9.7 17.8 1.4 26.6 2 7.6.5 15.11 1.1 22.6 1.6l9.3.6c7.7.5 15.5 1 23.1 1.5 2.8.1 5.5.3 8.3.5 7.9.5 15.7.9 23.5 1.4 5.3.3 10.5.6 15.7.9 7.4.4 14.8.8 22.1 1.2q35.55 1.95 69.6 3.6 14.85.75 29.4 1.5c4.9.2 9.7.5 14.5.7 9 .5 18 .9 26.8 1.4q8.7.45 17.1.9c8.9.4 17.71.9 26.4 1.4 13.7.8 27.2 1.6 40.4 2.4 563.9 35.6 1083.7 385.8 1083.7 385.8s519.5-350.2 1083.61-385.8c564.2-35.7 1558.99 6.6 2420.99-1159.7-219.5-207.8-243.8-513.4 69.2-900.9-296.4-104.2-622.2-354.9-560.1-956.8-601.5 110.4-740.3-441.4-740.3-441.4l-.1-.2-.3-.4c-1.6-2.2-7.7-11-16.7-25.5-.99-1.6-2-3.2-3-4.91l-.8-1.29c-.9-1.4-1.9-3-2.8-4.6l-.29-.5c-1.81-3-3.71-6.2-5.71-9.6-2.5-4.3-5.2-8.9-7.9-13.8-1.3-2.31-2.59-4.7-3.89-7.1-2.9-5.1-5.81-10.5-8.81-16.2-2.6-5-5.29-10.1-8-15.5-1.8-3.7-3.7-7.4-5.6-11.3-1.3-2.61-2.59-5.2-3.9-7.9-.6-1.3-1.19-2.6-1.9-3.9-2.5-5.3-5-10.81-7.59-16.4-1.3-2.9-2.71-5.8-4.01-8.8-2.6-6-5.3-12.1-8-18.4-1.7-4-3.4-8.1-5.09-12.21a963 963 0 0 1 -4.51-11.19c-1.5-3.81-2.99-7.6-4.5-11.5l-.19-.4c-6.6-17.3-13.11-35.5-19.31-54.6-2.1-6.4-4.1-12.9-6.09-19.5-1.11-3.8-2.31-7.6-3.41-11.49-1.19-3.91-2.3-7.81-3.29-11.7-1.61-5.71-3.21-11.51-4.71-17.31-1.8-7-3.59-14.1-5.29-21.3l-.4-1.6c-.71-3.3-1.41-6.5-2.21-9.8-.69-3.3-1.4-6.5-2.1-9.9-2.7-12.8-5.2-25.8-7.5-39.2l-.4-2.2-.3-2.2c-1.3-7.8-2.49-15.6-3.6-23.6-.99-7.1-1.9-14.2-2.7-21.4l-.2-1.9c-.4-3.1-.7-6.2-.99-9.4-.4-3.1-.61-6.3-.91-9.41l-.6-6.89c-.2-1.8-.3-3.6-.4-5.4-.4-4.4-.7-8.8-1-13.3-.2-3.1-.4-6.2-.5-9.4-.3-6-.6-12.1-.7-18.3-.1-4.1-.3-8.2-.3-12.3-.09-4.1-.09-8.3-.09-12.4 0-42.41 3.19-86.2 10.49-131-313.09-17.7-441.4-255.2-441.4-255.2s-432.4-727.9 323.9-971.5c736.7-220.8 1017.9 636.9 1017.9 636.9 262-124 478.5-82.2 648.3 22.21 318.8-220.81 263.1-671.51 212.41-753.51m-7945.21 1513.3c528.5 121.9 1065.3 502.8 1065.3 502.8s73.5-743 587.9-743.91c-21.4 493.91 137.91 644.21 137.91 644.21s161.89-336.3 97.79-688.6c256.2 21.3 478.7-189.4 532.1-387.4 136-472.1-305.7-644.2-305.7-644.2s-682.1-269.7-1042.3 639.3c-854.1-360.4-1073 677.8-1073 677.8m576.6 975.6c-362.79 450.5-421.8 897-421.8 897.2.2-.8 113.8-8.5 125-10 88.4-11.3 175.7-32.5 257.9-67.3 67.9-28.6 132-66.6 188.5-114.2 49.8-41.6 93.6-90.5 130.1-144.3 33.3-49.4 60.6-102.7 82.2-158.1 19.4-50.3 34.2-102.2 45-155.2 9-44.6 15.2-89.7 18.4-135.2 2.6-32.8 3.4-65.9 2.8-99-.7-36.5-2.2-74.1-36.1-98-43.3-30.4-68.5 60.4-80.3 85.4-13.2 27.9-26.7 56.1-40.8 83.9-23.89 47.6-48.9 94.6-75.6 140.7-37.8 65.3-79 129.6-127.4 187.7-24 28.6-49.8 57-80.3 78.8-6.6 4.9-13.5 9.6-20.7 13-1.2.6-5.3 1.7-6.6 2.6 11.1-16.8 390-589.1 341.2-658.8-35.9-68.1-296.2-73.4-296.2-73.4-.4 0-71.8-.2-166.3-136.5-72.2-107.2-68.6-151.4-68.6-151.4s132.2 222.5 228.3 213.1c89.9-3.2 182.3 7.5 265.2 44.2 29 12.9 56.8 28.9 81.8 48.7 25.4 20.1 44.8 53.8 78.1 60.2 28.6 5.6 58.9-1.7 85.9-11.5 249.6-88.2 369.8-579.3 369.8-579.3 19.8 371.1-297.7 628.6-297.7 628.6s383.1 64.1 584.5-384.3c-186.7-331-138.8-637.8-138.8-637.8s-410.9 21.3-512.5 805.8c-427.1-384.3-1105.9-529.3-1105.9-529.3s0 455.7 590.9 853.7m7284.91 887.2c11.09 1.5 124.99 9.2 125.19 10-.2-.2-59.2-446.7-421.7-897.2 576.51-398 596.6-866.1 596.6-866.1s-684.8 157.4-1111.9 541.7c-41.8-323.7-136.3-517.5-233-633.5l-.3-.4c-137.5-164.7-279.2-172.1-279.2-172.1s20.1 128.4-16.19 308.6l-.11.5c-19.89 98.4-56.6 212.09-122.5 328.9 201.6 448.4 584.71 384.3 584.71 384.3s-317.71-257.5-297.71-628.6c0 0 120 491.1 369.6 579.3 26.91 9.8 57.31 17.1 85.9 11.5 33.3-6.4 52.7-40.1 78.3-60.2 24.81-19.8 52.6-35.8 81.6-48.7 82.9-36.7 175.5-47.4 265.4-44.2 96.1 9.4 228.3-213.1 228.3-213.1s3.4 44.2-68.49 151.4c-94.61 136.3-166.01 136.5-166.41 136.5 0 0-260.3 5.3-296.4 73.4-49.3 70.7 341.7 659.2 341.7 659.2-.9-1.1-5.8-2.3-7.1-3-7.19-3.4-14.1-8.1-20.7-13-30.3-21.8-56.3-50.2-80.3-78.8-48.4-58.1-89.4-122.4-127.39-187.7-26.7-46.1-51.71-93.1-75.61-140.7-13.9-27.8-27.6-56-40.6-83.9-11.7-25-36.9-115.8-80.3-85.4-34.2 23.9-35.4 61.5-36.3 98-.59 33.1.4 66.2 2.8 99 3.4 45.5 9.6 90.6 18.6 135.2 10.61 53 25.6 104.9 45 155.2 21.6 55.4 48.7 108.7 82.2 158.1 36.31 53.8 80.1 102.7 130.11 144.3 56.59 47.6 120.59 85.6 188.49 114.2 82.21 34.8 169.6 56 257.71 67.3m122.79-2384.9.3.5c132 179 194.81 366.8 194.81 366.8s266.02 598-497.01 1147.7c392.2 584.6 402.9 963.6 402.9 963.6s-161 5.4-354.2-46.7c-315.4 384.8-294.9 656.6-64.7 863.3 7 6.4 8.5 16.9 3.41 24.8-793.31 1220.9-1927.31 1198.1-2489.31 1233.5-564.2 35.5-1109.7 364.7-1109.7 364.7s-545.8-329.2-1109.8-364.7c-543.9-34.3-1623.6-14-2411.6-1119.4l-.1-.1c-26.2-36.8-52.1-74.7-77.6-114-5.1-7.9-3.6-18.4 3.4-24.8 230.2-206.7 250.7-478.5-64.7-863.3-193.4 52.1-354.4 46.7-354.4 46.7s10.6-379 403.1-963.6c-771-475-500.6-1178.8-500.6-1178.8s127.4-339.6 393.2-535.4c0 0-431.7-325-170.2-909.5 0 0 233 230.4 399.3 262.3 9 1.7 18-3.7 21.6-12 47.6-109.7-36.5-575.9-36.5-575.9s501.8 407 804.81 439c-260.31-825.9 1002.29-1146.21 1002.29-1146.21-20.7 57.91-36.69 118.31-49.6 178.51-15.1 71-31.6 146-20.4 218.7 25.3 164.9 241.5 142.7 362.6 132.5 71.9-6.1 143.6-7.8 215.4-18.3 190.4-27.7 376.6-83.1 552.4-161.41 234-104.39 448.4-249.59 637.4-422.19 188.9 172.6 403.3 317.8 637.1 422.19 175.8 78.31 362.2 133.71 552.6 161.41 123.6 18.3 248.3 19.2 372.8 21 38.9.6 78.61-1.9 114.6-16.7 132.3-54.2 92.8-229 70-337.2-12.6-60.2-28.7-120.6-49.39-178.51 0 0 1240.39 347.41 980.29 1173.41l389.71 494.7c75.89-99.9 158.99-198.3 253.19-281.3 27.5-24.31 58.6-47.19 92.4-63.2 36-17 75.9-20.7 111.8-37.5 35.7-16.7 69.71-37.2 102.8-58.5 68.3-44 133.6-92.8 197.41-143.1 21.49-16.9 42.9-34 63.89-51.7 260.7 582.6-167.19 907.1-170.19 909.31 76.39 56.39 140.99 127.19 194.49 199.39" fill="#100f0d"/><path d="m3276.97 4788.15s-410.9 21.3-512.5 805.8c-427.1-384.3-1105.9-529.3-1105.9-529.3s0 455.7 590.9 853.7c-362.79 450.5-421.8 897-421.8 897.2.2-.8 113.8-8.5 125-10 88.4-11.3 175.7-32.5 257.9-67.3 67.9-28.6 132-66.6 188.5-114.2 49.8-41.6 93.6-90.5 130.1-144.3 33.3-49.4 60.6-102.7 82.2-158.1 19.4-50.3 34.2-102.2 45-155.2 9-44.6 15.2-89.7 18.4-135.2 2.6-32.8 3.4-65.9 2.8-99-.7-36.5-2.2-74.1-36.1-98-43.3-30.4-68.5 60.4-80.3 85.4-13.2 27.9-26.7 56.1-40.8 83.9-23.89 47.6-48.9 94.6-75.6 140.7-37.8 65.3-79 129.6-127.4 187.7-24 28.6-49.8 57-80.3 78.8-6.6 4.9-13.5 9.6-20.7 13-1.2.6-5.3 1.7-6.6 2.6 11.1-16.8 390-589.1 341.2-658.8-35.9-68.1-296.2-73.4-296.2-73.4-.4 0-71.8-.2-166.3-136.5-72.2-107.2-68.6-151.4-68.6-151.4s132.2 222.5 228.3 213.1c89.9-3.2 182.3 7.5 265.2 44.2 29 12.9 56.8 28.9 81.8 48.7 25.4 20.1 44.8 53.8 78.1 60.2 28.6 5.6 58.9-1.7 85.9-11.5 249.6-88.2 369.8-579.3 369.8-579.3 19.8 371.1-297.7 628.6-297.7 628.6s383.1 64.1 584.5-384.3c-186.7-331-138.8-637.8-138.8-637.8m6557.5 264.1s-684.8 157.4-1111.9 541.7c-101.4-784.7-512.5-806-512.5-806s48.1 307-138.8 638c201.6 448.4 584.71 384.3 584.71 384.3s-317.71-257.5-297.71-628.6c0 0 120 491.1 369.6 579.3 26.91 9.8 57.31 17.1 85.9 11.5 33.3-6.4 52.7-40.1 78.3-60.2 24.81-19.8 52.6-35.8 81.6-48.7 82.9-36.7 175.5-47.4 265.4-44.2 96.1 9.4 228.3-213.1 228.3-213.1s3.4 44.2-68.49 151.4c-94.61 136.3-166.01 136.5-166.41 136.5 0 0-260.3 5.3-296.4 73.4-49.3 70.7 341.7 659.2 341.7 659.2-.9-1.1-5.8-2.3-7.1-3-7.19-3.4-14.1-8.1-20.7-13-30.3-21.8-56.3-50.2-80.3-78.8-48.4-58.1-89.4-122.4-127.39-187.7-26.7-46.1-51.71-93.1-75.61-140.7-13.9-27.8-27.6-56-40.6-83.9-11.7-25-36.9-115.8-80.3-85.4-34.2 23.9-35.4 61.5-36.3 98-.59 33.1.4 66.2 2.8 99 3.4 45.5 9.6 90.6 18.6 135.2 10.61 53 25.6 104.9 45 155.2 21.6 55.4 48.7 108.7 82.2 158.1 36.31 53.8 80.1 102.7 130.11 144.3 56.59 47.6 120.59 85.6 188.49 114.2 82.21 34.8 169.6 56 257.71 67.3 11.09 1.5 124.99 9.2 125.19 10-.2-.2-59.2-446.7-421.7-897.2 576.51-398 596.6-866.1 596.6-866.1" fill="#47bb3a"/><path clip-path="url(#b)" d="m8337.31 3031.8h-1577.71c70.45 48.21 108.84 81.62 108.84 81.62l-63.32 127.72c80.05 63.75 188.49 163.29 260.92 282.11 2.43 3.98 3.6 8.44 3.6 12.93 0 2.2-.28 4.4-.84 6.55l-.22.43c49.18 35.46 92.02 71.25 123.06 98.64h308.15c61.92-45.8 140.62-86.04 239.68-117.95 84.04-25.19 162.06-36.34 234.5-36.33h.1c174.58.01 316.27 64.86 428.62 154.28h63.18c-76.76-97.11-135.2-171.95-135.2-171.95 38.99-68.7 54.18-140.46 54.15-210.52-.05-80.5-20.21-158.76-47.51-227.53m-3647.02 0h-1567.12c-11.38 25.57-20.1 52.35-24.99 81.45-7.11 41.57-10.66 83.77-10.67 126.01-.01 24.92 1.21 49.86 3.66 74.69 7.3 74.3 22.4 163.09 63.2 227.2.15.23.29.46.42.7.01.02.02.03.03.05.93 1.7 1.35 3.47 1.36 5.21.02 6.12-5.11 11.77-11.69 11.8h-.07c-.72-.01-1.44-.07-2.18-.21-.09-.02-.18-.04-.27-.05-491.1-108.5-810.3-374.1-820.2-382.5.03.14.06.32.11.56 2.64 14.32 37.6 204.22 37.65 348.59.01 45.75-3.48 86.94-12.62 116.5h737.64c112.36-89.42 254.05-154.27 428.62-154.28h.1c72.45-.01 150.47 11.14 234.5 36.33 99.04 31.91 177.72 72.15 239.62 117.95h302.64c31.01-27.39 73.79-63.18 122.86-98.64v-.43c-.63-2.15-.93-4.35-.94-6.55 0-4.49 1.27-8.95 3.69-12.93 68.84-112.89 170.29-208.41 248.65-272.38l-70.74-142.95c1.48-1.27 2.96-2.52 4.44-3.78.75-.64 1.51-1.28 2.26-1.91.91-.77 1.84-1.55 2.75-2.31.75-.64 1.51-1.27 2.26-1.91 1.52-1.26 3.03-2.52 4.54-3.78.36-.29.72-.59 1.07-.89 25.99-21.52 52.5-42.03 79.42-61.54m4927.79 397.65c-65.91 50.8-132.41 101.1-202.21 146.5-37.48 24.48-76.45 46.73-116.91 65.85h358.22c-.87-101.08-20.33-181.99-39.1-212.35m-7748.9 0c-18.85 30.36-38.36 111.27-39.27 212.35h341.08c-116.22-62.86-248.68-171.02-301.81-212.35m3896.34 128.47h-.09c-194.42.02-369.52 38.46-508.54 83.88h987.65c-166.08-60.79-328.3-83.87-478.93-83.88z" fill="url(#g)"/><path clip-path="url(#c)" d="m8337.31 3031.8c27.3 68.77 47.46 147.03 47.51 227.53-.05-80.5-20.21-158.76-47.51-227.53m-5214.14 0c-11.38 25.57-20.1 52.35-24.99 81.45-7.11 41.57-10.66 83.77-10.67 126.01.01-42.24 3.56-84.44 10.67-126.01 4.89-29.1 13.61-55.88 24.99-81.45m-801.4 144.35c9.9 8.4 329.1 274 820.2 382.5-491.1-108.5-810.3-374.1-820.2-382.5m0 0c.03.14.06.32.11.56-.05-.24-.08-.42-.11-.56m7296.31 253.3c-65.91 50.8-132.41 101.1-202.21 146.5-37.48 24.48-76.45 46.73-116.91 65.85 40.46-19.12 79.43-41.37 116.91-65.85 69.8-45.4 136.3-95.7 202.21-146.5 18.77 30.36 38.23 111.27 39.1 212.35-.87-101.08-20.33-181.99-39.1-212.35m-7748.9 0c-18.85 30.36-38.36 111.27-39.27 212.35.91-101.08 20.42-181.99 39.27-212.35 53.13 41.33 185.59 149.49 301.81 212.35-116.22-62.86-248.68-171.02-301.81-212.35m6461.49 40.4s58.44 74.84 135.2 171.95c-76.76-97.11-135.2-171.95-135.2-171.95m-356.67 17.67h-.03zm-4460.75 0h-.08zm.02 0c72.41 0 150.51 11.16 234.5 36.33-84.03-25.19-162.05-36.34-234.5-36.33m4460.8 0c174.56.04 316.24 64.85 428.59 154.28h.03c-112.35-89.42-254.04-154.27-428.62-154.28m-4819.28 54.33c.01.02.02.03.03.05-.01-.02-.02-.03-.03-.05m-12.55 16.85a12.564 12.564 0 0 1 0 0m2.25.21h-.05z" fill="url(#h)"/><path d="m5116.89 4125.17h1.27l38.55.42-20.12-32.62-94.03-151.64c59.3-12.5 127.71-20.54 206.92-21.39-6.99-67.14-44.06-152.49-94.46-241.45 257.75-101.66 705.49-209.46 1173.13-2.96-51.04 90.01-88.95 176.63-96.15 244.41 79.21.85 147.83 8.89 206.93 21.39l-93.83 151.64-20.34 32.62 38.55-.42h1.48c15.25 0 375.94 2.75 519.75 238.27l19.9 32.62 17.16-34.1 326.16-647.46 7-13.56-11.02-11.01c-5.51-5.3-77.94-76.67-175.16-146.77l.22-.43c1.7-6.56.85-13.56-2.76-19.48-72.43-118.82-180.87-218.36-260.92-282.11l63.32-127.72s-462.35-402.41-1122.51-429.1c-188.92-13.97-741.29 72.44-1152.38 423.6l70.74 142.95c-78.36 63.97-179.81 159.49-248.65 272.38-3.6 5.92-4.66 12.92-2.75 19.48v.43c-97 70.1-169.44 141.47-174.94 146.77l-11.02 11.01 6.99 13.56 326.17 647.46 17.15 34.1 19.91-32.62c143.81-235.52 504.5-238.27 519.74-238.27" fill="#f0401e"/><path d="m8437.77 7669.55-572.4-1088.3c-10.4-19.5-35.8-27.3-56.6-17.1-182.7 89.7-1014.2 466.9-2062.1 449.7h-1.9c-26.7 1.2-636.7 22.6-1336.39-168.7l-.31-.1h-.1c-167.2-45.7-339.6-103.6-510.4-176.9-12.8-5.4-25.5-11-38.3-16.6-71.7-31.8-143.1-66.3-213.6-103.9-21.1-11.3-47.7-3.7-58.4 16.5l-447.8 866.8-.1.2-122.6 237.4c-6.5 12.3-5.4 26.8 2.8 38.3 100.2 137.5 797.3 986.1 2726 945.8 1985.1 1.7 2602.51-812.5 2690.5-946.2 7.4-11.1 8-25.2 1.7-36.9m-917.3-2315.2c-7.2 22.1-14.49 43.2-21.59 63.2l-.21.5c-157.8 441.6-281.7 384.1-281.7 384.1s-.3-102.5-10-249.4v-.4c-3.9-58.7-9.2-124.5-16.6-193.59-.4-3.51-.8-7.11-1.2-10.61-2.2-20.9-4.7-42-7.5-63.4-.8-7.3-1.7-14.5-2.69-21.8-.71-5-1.3-10-2.01-15-.99-7.3-2-14.7-3.09-22.1-3.11-21.6-6.31-43.2-9.91-64.9-2-12.5-4.1-25.1-6.29-37.59-1.61-9.31-3.31-18.71-5.11-28.02-1.7-9.48-3.5-19.09-5.4-28.49-9.9-50.1-21.19-99.3-34.09-146.4-3.21-11.7-6.51-23.3-9.91-34.7l-.09-.2c-3.31-11.4-6.81-22.7-10.41-33.7-32.7-100.4-73.9-186.8-126-244.6-2.9-3.2-5.9-6.4-8.8-9.3-17.7-18.2-36.7-33.2-56.9-44.3 36.2 258.39-32.49 832.8-32.49 832.8-.8 33.7-3.51 63.7-7.71 90.7-.59 4.2-1.2 8.3-2 12.3-.29 1.9-.6 3.7-1 5.6-.3 1.8-.6 3.6-1 5.29-5.79 29.91-13.4 55.81-21.99 78.81-2.31 6.1-4.61 12.1-7.1 17.8l-.11.3c-2.5 5.7-4.89 11.2-7.4 16.6l-.1.3c-3.8 8-7.6 15.6-11.5 22.89-.89 1.81-1.8 3.51-2.8 5.11-3 5.69-6.1 11.21-9.2 16.6-7 12.3-14 23.9-20.59 35.1-3.01 5-5.81 9.8-8.61 14.7-10.9 19.4-20.09 38.2-25.7 58.7l-.1.5c-7.4 27-8.49 57.1.5 95.6 26.71 124.73 186.75 107.95 347.43 91.16 99.81-10.42 199.86-20.85 268.37 2.64 242.1 112.1-155.2 299.8-155.2 299.8s-554.7 238.4-375.9 289.2c349 61.3 555-85.2 707.11-218.5 0-.6-5.11-705.5-10-921.2v-.5c-1.2-53-2.31-76.2-3.41-51.6m-2874.5 1191.8c178.8-50.8-375.6-289.2-375.6-289.2s-397.6-187.7-155.5-299.8c68.55-23.49 168.64-13.06 268.48-2.64 160.75 16.79 320.85 33.57 347.62-91.16 39.6-170-119.2-175.4-126.6-476.9 0 0-68.5-574.41-32.5-832.8-312.4 171.7-316.1 1248.5-316.1 1248.5s-135.4 62.9-303.4-447.8c-5.4-124.6-13.5 972.6-13.5 973.3 152.2 133.3 358.1 279.8 707.1 218.5m3866.6 1160.1c-90.4 146.9-725.3 1043.5-2766.49 1041.7-1983.21 44.5-2700.01-890-2803.01-1041.5-8.4-12.6-9.49-28.4-3-42.1l87.6-181.6.1-.2 499.1-1034.2c7.6-15.6 23.2-24.3 39.2-24.1 5.21-125 33.2-325.7 162.4-264.8 51.8 24.5 104.7 73 165.8 128.3 0 0-23.2-935.31 36.4-1103.1 164.5 450 283.1 546.21 283.1 546.21s-14.8-1106.81 402.3-1296.41c-15.2 412.7 32.5 910.4 32.5 910.4s9.1 172.5 95 277.2c120.9 158 0 383.9 0 383.9s-124.7 278.1-121 368.5c231.1 113.8 106.4 213.1 106.4 213.1l-128.9 168.8-.3.4-39.6 51.9c637 155.6 1160.1 135.9 1185 134.8h2c433 7.6 830.2-55.1 1162.5-138.7l-165.9-217.2s-124.6-99.3 106.7-213.1c3.41-90.4-121.2-368.5-121.2-368.5s-51.7-96.7-53.59-207.8v-.4c-1.01-58.6 11.89-121.2 53.59-175.7 85.8-104.7 94.9-277.2 94.9-277.2s48-497.7 32.6-910.4c305.2 138.7 379.1 768.3 396.9 1096.3v.4c6.51 120.1 5.4 199.71 5.4 199.71s69.1-56.11 175-283.01l.2-.5c32.9-70.1 69.1-156.5 107.9-262.7 12.9 36.3 22 108.71 28.2 199.8v.5c22.4 329.4 8.21 902.8 8.21 902.8 61.09-55.3 114.19-103.8 165.99-128.3 137.9-64.8 160.4 167.7 163 288.9 7.61 4.1 14.1 10.4 18.2 18.9l588.5 1198.2c6.5 13 5.9 28.4-1.7 40.8m-1295.94-4012.93c-2.12-2.12-4.66-4.66-7.62-7.2-9.74-9.11-23.09-21.18-39.19-35.16-4.22-3.6-8.46-7.21-12.92-11.01-5.29-4.66-11-9.32-16.94-14.41-4.44-3.81-9.1-7.63-13.97-11.65-5.73-4.44-11.87-9.32-18.01-14.19-3.81-2.96-7.62-5.93-11.44-8.89-5.51-4.45-11.22-8.69-16.94-13.13-5.93-4.24-11.86-8.68-17.79-13.14-51.67 149.32-276.39 583.08-276.39 583.08s-71.8-141.48-324.47-201.41l-97.85 157.78h1.69c1.91 0 5.93 0 11.65.21 2.11 0 4.23.21 6.99.21 2.55.21 5.3.21 8.26.43 2.12 0 4.24.2 6.36.2 2.32.22 4.66.22 7.19.43h.64c3.6.42 7.63.64 11.87 1.06 5.5.43 11.21.85 17.36 1.48a939 939 0 0 1 62.9 8.68c6.14 1.07 12.28 2.12 18.85 3.39 3.18.64 6.35 1.27 9.54 1.91 6.56 1.28 13.12 2.75 19.9 4.24 2.55.43 5.09 1.06 7.63 1.69 18 4.24 36.64 9.32 55.48 15.25 7 2.12 13.99 4.45 21.19 6.78 3.38 1.27 6.99 2.55 10.8 4.02 7.19 2.55 14.4 5.3 21.6 8.26 14.62 5.72 29.02 12.07 43.42 19.06 5.93 2.97 11.65 5.93 17.37 8.9 12.07 6.36 23.92 13.14 35.58 20.55 2.96 1.9 5.92 3.59 8.89 5.5 3.82 2.54 7.84 5.3 11.65 8.05 2.76 1.91 5.72 3.81 8.48 5.93 3.81 2.75 7.62 5.72 11.43 8.68 3.39 2.54 6.57 5.09 9.74 7.84 3.18 2.54 6.57 5.3 9.75 8.05 4.87 4.02 9.53 8.26 14.19 12.71 2.75 2.75 5.5 5.29 7.83 7.84 4.87 4.65 9.75 9.52 14.2 14.61 5.71 6.35 11.43 12.7 16.73 19.48 5.5 6.77 10.58 13.55 15.67 20.76q7.62 10.8 14.61 22.23l326.38-647.46s-4.24-4.23-12.29-11.64m-1473.03-926.82c-174.31-11.01-679.02 77.3-1058.56 357.51l275.98 554.91s823.24-443.71 1567.28 0l249.07-551.09s-424.44-339.94-1033.77-361.33m-1323.72 798.04c-5.93 4.46-11.86 8.9-17.8 13.14-5.71 4.44-11.43 8.68-16.94 13.13-3.81 2.96-7.62 5.93-11.43 8.89-6.15 4.66-12.29 9.53-18.01 14.19-4.87 4.02-9.53 7.84-13.98 11.65-5.92 5.09-11.64 9.75-16.94 14.41-4.45 3.8-8.68 7.41-12.92 11.01-16.09 13.98-29.44 26.05-39.18 35.16-2.96 2.54-5.51 5.08-7.63 7.2-8.04 7.41-12.28 11.64-12.28 11.64l326.16 647.46c4.66-7.62 9.54-15.03 14.62-22.23 5.08-7.21 10.17-13.99 15.67-20.76 5.3-6.78 11.01-13.13 16.73-19.48 7.2-7.85 14.4-15.26 22.03-22.45 3.18-2.97 6.56-6.15 9.95-8.69 4.67-4.02 9.33-8.04 13.98-12.07l2.12-1.7a435 435 0 0 1 16.52-12.7l1.06-.85c5.3-3.81 10.59-7.63 15.89-11.22 4.87-3.39 9.74-6.57 14.61-9.53 6.99-4.24 13.98-8.48 20.97-12.5 10.59-5.93 21.18-11.65 31.98-16.95 7.2-3.38 14.61-6.77 21.81-9.95s14.4-6.36 21.61-9.11c11.01-4.44 21.81-8.47 32.61-12.28 10.8-3.6 21.61-6.99 32.2-10.17 7.83-2.32 15.67-4.66 23.51-6.56 5.92-1.7 11.86-3.18 17.79-4.46 14.4-3.59 28.59-6.56 42.14-9.1 5.09-1.05 10.17-1.9 15.04-2.75q14.925-2.55 28.59-4.44c5.72-.85 11.23-1.49 16.52-2.12 5.51-.64 10.59-1.27 15.68-1.91 1.27 0 2.54-.21 3.81-.43 5.93-.42 11.86-1.05 17.36-1.48 4.24-.42 8.27-.64 12.08-1.06h.42c2.54-.21 5.08-.21 7.41-.43 1.28 0 2.55-.2 3.61-.2 2.54-.22 4.86-.22 7.19-.22 2.34-.21 4.45-.21 6.36-.21 8.05-.42 13.55-.42 16.09-.42h1.49l-97.64-157.78c-252.67 59.93-324.47 201.41-324.47 201.41s-224.71-433.76-276.39-583.08m2834.88 136.4-7 13.56-326.16 647.46-17.16 34.1-19.9-32.62c-143.81-235.52-504.5-238.27-519.75-238.27h-1.48l-38.55.42 20.34-32.62 93.83-151.64c-59.1-12.5-127.72-20.54-206.93-21.39 7.2-67.78 45.11-154.4 96.15-244.41-467.64-206.5-915.38-98.7-1173.13 2.96 50.4 88.96 87.47 174.31 94.46 241.45-79.21.85-147.62 8.89-206.92 21.39l94.03 151.64 20.12 32.62-38.55-.42h-1.27c-15.24 0-375.93 2.75-519.74 238.27l-19.91 32.62-17.15-34.1-326.17-647.46-6.99-13.56 11.02-11.01c5.5-5.3 77.94-76.67 174.94-146.77v-.43c-1.91-6.56-.85-13.56 2.75-19.48 68.84-112.89 170.29-208.41 248.65-272.38l-70.74-142.95c411.09-351.16 963.46-437.57 1152.38-423.6 660.16 26.69 1122.51 429.1 1122.51 429.1l-63.32 127.72c80.05 63.75 188.49 163.29 260.92 282.11 3.61 5.92 4.46 12.92 2.76 19.48l-.22.43c97.22 70.1 169.65 141.47 175.16 146.77z" fill="#100f0d"/><path d="m5113.71 3314.6 61.64-29.84c40.25-19.48 63.19-11.71 76.95 16.73 13.39 27.65 2.83 51.89-33.12 69.29l-63.4 30.72zm-28.35-58.5-65.89-136.1-71.84 34.79 164.64 340.01 149.41-72.35c74.13-35.91 94.26-96.06 68.83-148.57-22.09-45.62-58.88-58.31-88.37-56.52 13.84-14.36 30.76-44.2 1.29-105.08l-8.13-16.77c-11.08-22.88-23.48-49-26.53-67.18l-69.66 33.74c1.18 17.68 12.38 43.68 29.87 79.77l2.4 4.98c18.01 37.17 17.14 59.33-37.66 85.86zm269.91-269.39 24.47 93.1 81.56-21.43-24.46-93.09zm314.03 49.29c9.76-37.65 37.47-53.47 81.16-52.16 43.6 1.32 61.73 19.09 60.9 46.74-.93 30.74-19.54 43.53-84.58 56.61-103.49 21.04-130.03 57.67-131.56 108.66-1.99 65.8 45.91 112 135.31 114.68 100.27 3.02 141.84-49.68 148.91-104.75l-82.27-2.49c-4.63 23.12-18.26 47.99-66.95 46.52-33.13-1-52.73-15.3-51.92-42.11.8-26.27 17.15-36.43 78.6-48.73 110.61-22.59 135.92-62.72 137.54-115.98 2.06-68.95-48.69-117.83-148.52-120.83-95.86-2.89-147.77 42.79-158.89 111.36zm395.04-62.28-26.27 92.6 81.09 23.03 26.29-92.6zm273.96 165.62 65.38 34.04c39.15 20.37 48.38 45.98 32.55 76.36-14.04 26.99-40.45 35.17-80.33 14.42l-64.96-33.83zm-9.53 181.83c34.43 17.91 40.61 40.78 28.35 64.31-12.78 24.55-37.99 27.53-65.96 12.97l-69.04-35.95 39.68-76.21zm-206.89 60.28 146.41 76.22c80.95 42.15 133.65 15.93 156.3-27.59 19.67-37.79 12.43-72.74-4.81-94.87 27.01 3.24 69.05-5.14 91.99-49.19 29.86-57.35 7.18-123.77-64.09-160.87l-151.34-78.81zm-5129.61 1078.29-43.508 183.63c-29.25 123.45-87.883 162.66-176.535 141.66-85.223-20.19-119.993-87.19-93.934-197.2l45.43-191.72zm143.51 33.99 392.56 92.99 41.32-174.38-948.14-224.63-94.961 400.82c-48.008 202.66 37.289 337.69 184.257 372.51 125.86 29.8 213.262-23.17 258.454-92.93 4.91 61.78 40.34 143.74 208.29 183.53l44.71 10.59c64.3 15.22 140.53 32.58 180 56.68l40.17-169.6c-37.13-26.6-108.71-45.29-205.38-68.2l-16.02-3.81c-114.42-27.09-159.6-69.77-122-228.49zm-202.952 1429.84 16.297-472.06 280.705 9.7-17.95 519.93 152.1-16.9 23.33-675.52-973.771-33.61-23.18 671.16 151.344 5.22 17.043-493.47 239.043 8.26-16.301 472.07zm436.552 186.81-959.575 169.27 40 226.75c240.722 87.41 703.495 261.7 816.335 290.7l.42 2.37c-109.86 8.78-271.177 37.66-428.384 65.39l-315.332 55.63 29.074 164.83 959.582-169.27-37.83-214.54c-214.25-76.89-730.975-262.44-849.885-294.95l-.41-2.36c93.855-9.4 279.418-40.55 451.745-70.95l323.51-57.07zm27.11 1605.96c-235.48 15.19-376.11 23.92-461.435 35.19l-.543-1.29c75.028-57.56 199.708-165.93 351.278-297.07zm13.16-359.33 195.43-175.39-69.89-166.14-767.811 688.02 88.598 210.61 1034.373-54.38-74.75-177.71-263.53 13.54zm-178.69 1254.05 829.89-510.57-95.77-155.65-829.87 510.55zm797.41-60.71c95.43-48.44 180.73-23.68 258.95 70.6 80.48 96.97 72.57 171.42 12.21 221.51-65.89 54.66-127.96 44.66-272.73-64.53-207.72-156.33-322.21-152.83-424.88-67.64-124.06 102.96-136.83 269.57 7.58 443.6 159.35 192.05 329.23 181.65 443.79 104.34l-117.87-142.04c-61.27 34.39-138.77 46.21-222.6-54.81-61.85-74.53-66.13-144.73-6.64-194.08 58.4-48.47 111.2-32.45 244.02 67.83 231.36 173.81 350.02 150.25 452.49 65.23 131.44-109.07 143.67-286.03-16.57-479.16-157.44-189.74-332.11-203.04-475.61-112.9zm617.19 667.61c84.2-66.01 172.69-58.28 267.71 19.04 97.74 79.52 104.43 154.08 54.93 214.91-54.03 66.41-116.86 68.65-280.05-10.38-234.08-113.07-345.71-87.43-429.9 16.05-101.73 125.05-81.94 290.98 93.47 433.68 193.57 157.44 358.19 114.34 455.58 16.28l-143.17-116.48c-53.44 45.62-127.17 72.25-229-10.59-75.13-61.12-92.94-129.15-44.16-189.09 47.89-58.87 102.8-53.41 252.53 19.21 260.67 125.62 372.5 79.49 456.53-23.79 107.78-132.48 85.46-308.46-109.2-466.82-191.25-155.59-365.16-134.76-488.45-18.5zm1013.34 815.54c-171.33 162.2-273.86 258.8-332.25 322l-1.25-.6c20.89-92.2 47.47-255.2 80.18-452.93zm-219.56-284.62 38.12-259.76-159.92-83.04-150.5 1019.72 202.73 105.2 760.43-702.9-171.06-88.83-193.93 178.83zm782.46 108.83-247.73 942.39 222.7 58.6c180.11-182.1 532.04-529.5 605.6-619.9l2.32.6c-37.99 103.5-79.25 262.1-119.83 416.5l-81.41 309.7 161.88 42.5 247.74-942.4-210.71-55.4c-159.48 162.5-544.21 554.2-623.48 648.6l-2.32-.6c30.73-89.2 80.07-270.8 124.56-440.1l83.51-317.68zm1788.43 550.29c-34.97-177.4-163.14-310.7-399.22-318.2-302.83-9.6-456.11 205.2-464.87 481.6-8.43 266.2 133.41 510.2 441.44 520 249.2 7.9 379.13-133.1 409.78-295.1l-182.68-5.8c-28.04 84.9-88.88 159.7-228.69 155.2-187.78-5.9-256.59-177.9-250.75-361.9 5.51-173.8 78.16-354.7 278.91-348.3 141.79 4.5 190.01 96.1 212.4 166.7zm858.43 4.3-465.74 79.1-47.01-277 512.97-87.1-47.16-145.56-666.49 113.16 163.11 960.7 662.16-112.4-25.34-149.3-486.85 82.6-40.05-235.8 465.74-79.1zm971.95-530.87c-31.15-102.4 8.05-182.11 114.51-242.8 109.48-62.42 181.43-41.71 220.3 26.44 42.4 74.39 21.78 133.8-110.9 257.43-190.05 177.5-206.5 290.8-140.41 406.7 79.86 140.1 241.76 181.6 438.26 69.6 216.83-123.6 236.07-292.7 179.83-419l-160.39 91.4c23.24 66.4 21.44 144.7-92.63 209.8-84.15 47.9-154.02 40-192.31-27.2-37.6-65.9-12.66-115.1 109.17-228.6 211.37-197.66 208.76-318.64 142.81-434.33-84.61-148.4-256.79-191.17-474.85-66.86-214.2 122.13-257.63 291.86-193.77 448.85zm958.17-338.57 138.52-119.62c83.11-71.78 165.45-80.77 233.57-1.89 69.77 80.8 42.06 164.24-32 228.21l-142.04 122.65zm155.8 460.74 296.47-256.07c152.2-131.42 181.99-306.28 62.64-444.48-133.45-154.54-312.91-129.49-457.93-4.26l-153.39 132.44-245.98-284.86-138.64 119.71zm492.38-1135.89c-158.05-117.96-229.65-285.96-118.79-434.51 120.04-160.83 298.47-120.62 447.13-9.67 154.77 115.5 229.2 276.66 113.96 431.09-114.48 153.37-285.27 130.3-442.3 13.09m443.55-594.53c-216.47-161.55-499.88-175.24-687.21 75.79-179.04 239.87-96.8 500.96 126.99 667.99 225.97 168.64 504.75 161.85 684.21-78.57 168.3-225.51 112.7-488.56-123.99-665.21m247.39-369.34 77.3-172.2c51.9-115.77 116.8-143.27 200-105.99 79.9 35.83 101.5 108.17 55.2 211.35l-80.6 179.77zm-134.6-60.34-368.07-165.08-73.35 163.55 889.12 398.7 168.6-375.88c85.2-190.03 26.8-338.7-111-400.5-118.1-52.92-213.9-17.29-271.4 42.73 6.8-61.59-12.6-148.75-170.1-219.36l-41.9-18.8c-60.34-27.04-131.95-58.39-166.2-89.49l-71.31 159.04c31.5 33.1 98.29 64.92 188.95 105.57l15.03 6.73c107.23 48.12 143.63 98.52 76.93 247.37zm749.7-844.85-67.5 294.87 147.7 33.77 175.6-767.77-147.6-33.78-67.4 294.32-802.31-183.54-40.83 178.59zm289.6-868.34-970.8-85.1-16 182.08 970.8 85.1zm-963.4-538.14 994.1 286.76-12.1-195.95-471-125.25c-141.1-37.42-268.6-68.88-365.8-85.03l-.2-2.81c85.7-25.49 212.6-77.36 348.6-133.9l455.2-189.6-11.6-186.64-950.5 417.21zm185.5-1403.46 121.5 456.4-271.4 72.27-133.8-502.71-140.64 60.35 173.94 653.15 941.5-250.71-172.8-648.92-146.3 38.95 127 477.11-231.1 61.56-121.5-456.43z" fill="#100f0d"/><path clip-path="url(#d)" d="m9998.91 4954.69-5.58-20.95-173.92-653.14-4.82-18.11 17.22-7.39 140.64-60.35 23.04-9.88 6.41 24.23 128.3 481.75 229.5-61.11-115.9-435.46-5.6-20.95 20.9-5.57 146.4-38.98 20.9-5.57 5.6 20.94 115.9 435.48 189.3-50.4-121.5-456.16-5.6-20.95 21-5.57 146.3-38.96 21-5.56 5.5 20.93 172.8 648.92 5.6 20.95-20.9 5.57-941.5 250.72zm15.39-26.52 941.5-250.71-172.8-648.92-146.3 38.95 127 477.11-231.1 61.56-121.5-456.43-146.4 38.98 121.5 456.4-271.4 72.27-133.8-502.71-140.64 60.35zm1082.5 980.11-29.5-8.53-994.1-286.75-14.7-4.24-.9-15.25-13.3-215.21-1-15.11 13.9-6.09 950.5-417.19 28.5-12.48 1.9 30.98 11.5 186.64 1 15.41-14.3 5.94-455.2 189.6c-100.5 41.79-197.3 81.57-276.1 109.88 94.3 19.62 201.8 47.32 290.7 70.9l471.1 125.26 15.1 4.01.9 15.59 12.1 195.95zm-23.5-29.35-12.1-195.95-471-125.25c-141.1-37.42-268.6-68.88-365.8-85.03l-.2-2.81c85.7-25.49 212.6-77.36 348.6-133.9l455.2-189.6-11.6-186.64-950.5 417.21 13.3 215.21zm-27 456.94-21.6-1.89-970.8-85.1-21.6-1.89 1.9-21.59 16-182.08 1.9-21.59 21.6 1.89 970.8 85.1 21.6 1.88-1.9 21.6-16 182.08zm-19.7-23.48 16-182.08-970.8-85.1-16 182.08zm-177.1 1040.87-21.2-4.84-147.6-33.77-21.1-4.84 4.8-21.12 62.6-273.74-781.17-178.71-21.13-4.83 4.83-21.13 40.84-178.59 4.83-21.13 21.13 4.83 781.17 178.71 62.5-273.19 4.9-21.14 21.1 4.84 147.7 33.77 21.1 4.84-4.8 21.13-175.7 767.78zm-16.3-25.97 175.6-767.77-147.6-33.78-67.4 294.32-802.31-183.54-40.83 178.59 802.34 183.54-67.5 294.87zm-666.6 565.64 212.3 95.19 71.7-159.99c20.7-46.21 27-85.37 18.6-116.4-7.8-28.78-29-51.09-62.9-66.3-20.2-9.08-38.9-13.68-55.5-13.68-45.1 0-83 35.58-115.9 108.76zm295.3 376.39-19.8-8.87-889.08-398.71-19.78-8.86 8.87-19.78 73.35-163.55 8.87-19.78 19.78 8.87 348.33 156.21 56.36-125.65c63.6-141.91 26.8-177.06-66.01-218.71l-15.02-6.73c-89.66-40.2-161-73.86-195.79-110.41l-10.02-10.54 5.95-13.27 71.32-159.04 12.23-27.26 22.11 20.08c30.2 27.41 95.16 56.51 152.53 82.18l7.9 3.58 42 18.8c110.2 49.45 171.3 114.07 182.3 192.56 40.3-28.37 87.9-43.61 137.9-43.61 39.5 0 80.2 9.31 121.2 27.69 159 71.29 206.9 239.75 122 429.14l-168.6 375.88zm-111.1-659.24c20.2 0 41.6 5.35 64.4 15.57 79.9 35.83 101.5 108.17 55.2 211.35l-80.6 179.77-251.9-112.93 77.3-172.2c37.7-84.03 82.2-121.56 135.6-121.56m100.2 630.59 168.6-375.88c85.2-190.03 26.8-338.7-111-400.5-40.3-18.04-78-25.79-112.4-25.79-66.6 0-121.1 28.96-159 68.52 6.8-61.59-12.6-148.75-170.1-219.36l-41.9-18.8c-60.34-27.04-131.95-58.39-166.2-89.49l-71.31 159.04c31.5 33.1 98.29 64.92 188.95 105.57l15.03 6.73c107.23 48.12 143.63 98.52 76.93 247.37l-65.3 145.42-368.07-165.08-73.35 163.55zm-922.96 107.13c-72.38 0-133.78 33.1-182.49 98.37-112.67 150.97-14.79 307.77 114.38 404.17 79.45 59.3 158.42 90.65 228.36 90.65 72.63 0 134.4-33.42 183.59-99.34 50.25-67.31 64.05-138.17 41-210.6-21.23-66.74-73.28-132.49-150.54-190.15-81.61-60.91-162.62-93.1-234.3-93.1m123.7 806.63v-21.68l-.01 21.68h-.03c-113.49-.01-229.11-41.54-334.38-120.1-118.61-88.53-195.63-198.94-222.73-319.29-29.05-128.99 2.54-260.06 91.34-379.03 98.72-132.29 229.36-202.21 377.8-202.21 115.3 0 232.78 42.19 339.74 122.01 248.73 185.64 300.33 465.16 128.43 695.55-97.78 130.95-232.78 203.07-380.16 203.07m-123.7-828.3c82.08 0 168.81 38.84 247.26 97.4 154.77 115.5 229.2 276.66 113.96 431.09-56.18 75.27-125.94 108.05-200.97 108.05-77.84 0-161.37-35.27-241.33-94.96-158.05-117.96-229.65-285.96-118.79-434.51 56.69-75.95 126.42-107.07 199.87-107.07m123.66 806.62c134.16.01 263.62-61.5 362.8-194.36 168.3-225.51 112.7-488.56-123.99-665.21-99.99-74.62-214.3-117.71-326.78-117.71-131.04 0-259.63 58.43-360.43 193.5-179.04 239.87-96.8 500.96 126.99 667.99 101.1 75.45 212.8 115.78 321.41 115.79m-822.35 412.35 169.71 196.53 125.64-108.48c42.87-37.03 103.76-111.94 29.76-197.63-27.57-31.93-58.01-48.12-90.5-48.12-34.51 0-72.35 17.58-112.5 52.24zm122.98 489-14.16-16.4-636.82-737.45-14.17-16.4 16.4-14.17 138.64-119.72 16.4-14.16 14.16 16.4 231.84 268.45 136.97-118.27c81.97-70.78 170.61-108.2 256.31-108.2 87.11 0 167.4 39.66 232.2 114.7 62.29 72.14 88.42 155.88 75.54 242.15-12.51 83.85-61.07 164.39-140.42 232.91l-296.48 256.06zm111.63-668.37c37.94 0 74.08 17.59 106.91 55.62 69.77 80.8 42.06 164.24-32 228.21l-142.04 122.65-198.05-229.35 138.52-119.62c43.04-37.18 85.9-57.51 126.66-57.51m-109.38 637.87 296.47-256.07c152.2-131.42 181.99-306.28 62.64-444.48-64.25-74.42-139.18-107.19-215.79-107.19-82.5 0-166.94 38-242.14 102.93l-153.39 132.44-245.98-284.86-138.64 119.71zm-804.67 481.2c-104.53 0-191.4-51.5-244.63-144.8-78.87-138.4-37.02-263.9 144.45-433.35 133.25-124.16 140.65-171.56 106.85-230.84-20.26-35.54-48.05-52.82-84.98-52.82-30.05 0-65.62 11.6-105.74 34.48-99.26 56.58-132.47 125.74-104.52 217.66l5.04 16.56-15.04 8.57-160.37 91.43-21.5 12.21-9.31-22.88c-75.57-185.72-1.54-359.17 203.11-475.84 88.18-50.27 171.81-75.76 248.59-75.76 109.56 0 200.41 53.53 255.82 150.71 85.46 149.91 42.93 283.45-146.82 460.97-122.22 113.7-133.79 151.8-105.17 202 17.72 31.1 43.14 46.8 75.55 46.8 25.56 0 54.89-9.3 87.2-27.8 108.82-62 101.47-130.7 82.91-183.7l-5.98-17.1 15.7-8.9 160.39-91.43 20.8-11.85 9.74 21.86c28.24 63.42 98.11 283.02-188.88 446.62-78.14 44.6-153.23 67.2-223.21 67.2m0-21.7c63.59 0 135.35-20.3 212.46-64.3 216.83-123.6 236.07-292.7 179.83-419l-160.39 91.4c23.24 66.4 21.44 144.7-92.63 209.8-35.64 20.3-68.73 30.6-97.93 30.6-39.76 0-72.31-19.1-94.38-57.8-37.6-65.9-12.66-115.1 109.17-228.6 211.37-197.66 208.76-318.64 142.81-434.33-50.62-88.79-132.61-139.77-236.99-139.77-70.09 0-150.26 22.97-237.86 72.91-214.2 122.13-257.63 291.86-193.77 448.85l160.38-91.43c-31.15-102.4 8.05-182.11 114.51-242.8 45.09-25.71 83.82-37.31 116.48-37.31 46.66 0 80.96 23.66 103.82 63.75 42.4 74.39 21.78 133.8-110.9 257.43-190.05 177.5-206.5 290.8-140.41 406.7 48.53 85.2 127.35 133.9 225.8 133.9m-1849.31 617.5-3.64-21.4-163.09-960.7-3.64-21.4 21.38-3.6 666.48-113.13 18.47-3.14 5.77 17.83 47.17 145.64 7.73 23.8-24.73 4.2-491.59 83.5 39.75 234.2 444.38-75.5 21.37-3.6 3.63 21.4 25.33 149.3 3.63 21.4-21.37 3.6-444.37 75.4 32.79 193.1 465.48-79 21.37-3.6 3.63 21.4 25.34 149.3 3.63 21.3-21.38 3.7-662.16 112.4zm17.74-25 662.16-112.4-25.34-149.3-486.85 82.6-40.05-235.8 465.74-79.1-25.34-149.3-465.74 79.1-47.01-277 512.97-87.1-47.16-145.56-666.49 113.16zm-710.96 57.8c-6.74 0-13.58-.1-20.49-.4-330.97-10.4-470.73-279.9-462.42-542.3 9.84-310.2 188.84-502.9 467.16-502.9 6.61 0 13.31.1 20.07.3 226.14 7.2 379.15 129.6 419.8 335.7l5.27 26.7-27.22-.8-183.68-5.8-15.33-.5-4.64-14.7c-20.03-63-61.75-147.4-192.44-151.5-3.21-.1-6.38-.2-9.52-.2-219.59 0-244.6 250.6-247.03 327.5-3.02 94.9 14.17 176.5 49.7 235.9 39.65 66.3 100.24 101.1 180.07 103.7 3.74.1 7.4.1 11.01.1 100.93 0 165.17-45.9 196.41-140.5l5.08-15.4 16.19.5 182.68 5.8 25.32.8-4.71 24.9c-28.63 151.4-151.72 313.1-411.28 313.1m0-21.7c236.32 0 360.15-137.7 389.98-295.4l-182.68-5.8c-27.25 82.5-85.47 155.4-216.99 155.4-3.84 0-7.73 0-11.7-.2-187.78-5.9-256.59-177.9-250.75-361.9 5.41-170.8 75.69-348.5 268.7-348.5 3.36 0 6.76.1 10.21.2 141.79 4.5 190.01 96.1 212.4 166.7l183.68 5.8c-34.97-177.4-163.14-310.7-399.22-318.2-6.52-.2-12.99-.3-19.38-.3-290 0-436.92 211.4-445.49 481.9-8.43 266.2 133.41 510.2 441.44 520 6.68.2 13.29.3 19.8.3m-826.59-57.1-20.97-5.5-161.88-42.6-20.96-5.5 5.51-20.9 81.41-309.7 4.52-17.2c28.12-107.1 56.95-216.8 84.74-307.4-93.89 99.8-254.11 260.3-389.2 395.6-56.28 56.4-108.91 109.2-151.78 152.5l-8.81 8.9-12.12-3.2-222.69-58.5-20.97-5.5 5.52-21 247.72-942.4 5.52-20.96 20.96 5.51 162.84 42.8 20.96 5.51-5.51 20.96-83.52 317.78c-40.25 153.1-72.12 269.1-96.39 350.7 137.79-148.1 422.31-437.9 556.84-574.94l4.36-4.43 8.81-8.98 12.17 3.2 210.7 55.35 20.97 5.6-5.51 20.9-247.73 942.4zm-15.46-26.5 247.74-942.4-210.71-55.4c-159.48 162.5-544.21 554.2-623.48 648.6l-2.32-.6c30.73-89.2 80.07-270.8 124.56-440.1l83.51-317.68-162.83-42.81-247.73 942.39 222.7 58.6c180.11-182.1 532.04-529.5 605.6-619.9l2.32.6c-37.99 103.5-79.25 262.1-119.83 416.5l-81.41 309.7zm-1343.24-1073.13-1.11 6.72c-23.36 141.31-42.97 259.91-59.73 346.81 57.21-57.2 139.02-134.7 255.11-244.6l5.52-5.2zm-48.79 622.33-13.52-7-202.73-105.3-13.71-7.1 2.26-15.3 150.49-1019.69 4.44-30.08 27 14.01 159.92 83.05 13.7 7.11-2.24 15.27-35.88 244.48 298.67 155.11 182.74-168.53 11.18-10.31 13.51 7.01 171.06 88.83 27.37 14.22-22.65 20.94-760.43 702.98zm32.28-655.33 253.32 131.53c-171.33 162.2-273.86 258.8-332.25 322l-1.25-.6c20.89-92.2 47.47-255.2 80.18-452.93m-35.81 629.03 760.43-702.9-171.06-88.83-193.93 178.83-325.87-169.22 38.12-259.76-159.92-83.04-150.5 1019.72zm-766.34-513.8c-87.13 0-176.41-36.74-265.39-109.12-176.02-143.2-213.04-321.06-96.6-464.18 54.38-66.84 116.46-97.97 195.36-97.97 69.49 0 154.79 24.88 260.78 76.08 82.29 39.85 136.29 57.62 175.11 57.62 31.97 0 54.78-12 78.7-41.4 21.5-26.42 29.36-54.09 23.36-82.25-7.01-32.92-32.29-67.29-75.16-102.17-48.02-39.06-93.99-58.87-136.66-58.87-35.58 0-69.6 13.11-104 40.08l-13.63 10.68-13.42-10.93-143.17-116.47-19.19-15.62 17.99-16.97c68.4-64.5 149.56-98.6 234.67-98.6 92.68 0 187.67 39.05 282.33 116.06 96.75 78.71 157.47 167.09 175.57 255.58 17.55 85.73-4.32 169.32-63.23 241.73-60.6 74.47-125.89 107.68-211.72 107.68-73.41 0-162.06-25.53-271.04-78.05-82.68-40.1-132.18-57.2-165.55-57.2-24.58 0-42.19 9.32-60.76 32.14-50.66 62.28-5.65 120.62 41.03 158.61 39.8 32.37 77.47 48.79 111.96 48.79 30.23 0 59.44-12.39 89.29-37.87l13.73-11.73 14.02 11.4 143.17 116.48 18.57 15.1-16.87 16.99c-60.43 60.84-138.3 94.38-219.25 94.38m0-21.71c82.84 0 152.65-36.38 203.87-87.95l-143.17-116.48c-28.35 24.21-62.42 43.06-103.35 43.07-36.23 0-77.84-14.77-125.65-53.66-75.13-61.12-92.94-129.15-44.16-189.09 21.69-26.67 44.84-40.14 77.57-40.14 39.54 0 93.06 19.62 174.96 59.35 111.13 53.55 195.23 75.89 261.63 75.89 89.35 0 146.7-40.43 194.9-99.68 107.78-132.48 85.46-308.46-109.2-466.82-95.2-77.45-186.14-111.19-268.65-111.19-83.23 0-157.88 34.31-219.8 92.69l143.18 116.48c38.17-29.92 77.23-44.7 117.37-44.7 48.41 0 98.39 21.47 150.34 63.74 97.74 79.52 104.43 154.08 54.93 214.91-26.26 32.27-54.59 49.39-95.51 49.39-43.29 0-100.65-19.15-184.54-59.77-105.91-51.16-186.77-73.93-251.35-73.93-78.15 0-132.45 33.32-178.55 89.98-101.73 125.05-81.94 290.98 93.47 433.68 91.77 74.66 177.03 104.23 251.71 104.23m-713.79-663.58c-73.26 0-184.22-28.48-296.82-164.18-144.9-174.63-146.72-356.3-4.74-474.12 52.1-43.23 102.98-63.37 160.13-63.37 80.77 0 173.45 41.43 291.62 130.37 86.05 64.9 140.09 92.59 180.72 92.59 22.19-.01 42.28-8.46 65.14-27.42 26.21-21.76 39.3-47.39 38.88-76.18-.49-33.65-18.63-72.28-53.93-114.81-48.54-58.5-97.61-86.94-150.01-86.94-26.17 0-53.91 7.34-82.44 21.83l-15.44 7.83-11.06-13.32-117.86-142.05-15.8-19.04 20.95-13.16c60.5-38 123.68-57.26 187.77-57.26 111.94 0 221.23 60.4 316.05 174.68 157.94 190.35 163.2 385.65 13.73 509.68-57.62 47.81-113.06 70.08-174.45 70.08-84.55 0-184.28-44.04-304.9-134.66-85.64-64.66-132.4-89.84-166.83-89.84-17.01 0-32.53 6.59-50.33 21.36-23.91 19.83-35.46 43.39-34.37 70.02 1.16 28.02 16.33 60.36 43.85 93.53 40.03 48.24 79.86 71.69 121.76 71.69 23.2 0 47.27-7.17 73.56-21.93l15.75-8.84 11.54 13.9 117.86 142.04 15.29 18.42-19.84 13.39c-54.02 36.45-114.8 55.71-175.78 55.71m0-21.67c60.79 0 116.84-20.42 163.65-52.01l-117.87-142.04c-25.48 14.3-53.77 24.7-84.16 24.7-42.68 0-89.47-20.5-138.44-79.51-61.85-74.53-66.13-144.73-6.64-194.08 20.81-17.27 40.9-26.35 64.17-26.35 42.02 0 94.36 29.63 179.85 94.18 125.19 94.05 217.4 130.31 291.88 130.31 63.17 0 113.58-26.06 160.61-65.08 131.44-109.07 143.67-286.03-16.57-479.16-97.02-116.92-200.59-166.85-299.37-166.85-61.52 0-121.16 19.36-176.24 53.95l117.86 142.05c31.84-16.16 62.56-24.17 92.26-24.17 59.31 0 114.57 31.94 166.69 94.77 80.48 96.97 72.57 171.42 12.21 221.51-25.26 20.96-49.97 32.41-78.98 32.41-46.67 0-104.49-29.61-193.75-96.94-117.96-88.78-205.86-126.01-278.59-126.01-55.35 0-101.92 21.56-146.29 58.37-124.06 102.96-136.83 269.57 7.58 443.6 94.24 113.58 192.16 156.35 280.14 156.35m-665.78-669.36-11.36-18.47-95.76-155.66-11.35-18.46 18.46-11.36 829.88-510.55 18.46-11.36 11.35 18.46 95.77 155.65 11.36 18.47-18.46 11.35-829.89 510.57zm7.1-29.82 829.89-510.57-95.77-155.65-829.87 510.55zm46.43-1121.95-4.83 4.18c-108.47 93.86-199.5 172.64-268.07 228.87 80.78-7.49 193.53-14.75 353.55-25.06l6.66-.43zm-435.488 447.44-5.906-14.04-88.598-210.61-5.992-14.24 11.508-10.31 767.806-688.02 22.66-20.3 11.79 28.04 69.89 166.14 5.98 14.23-11.48 10.3-183.94 165.1 130.53 310.29 248.33-12.76 15.19-.78 5.91 14.02 74.75 177.71 11.96 28.43-30.8 1.62-1034.377 54.38zm443.888-483.38 110.7 263.17c-235.48 15.19-376.11 23.92-461.435 35.19l-.543-1.29c75.028-57.56 199.708-165.93 351.278-297.07m-429.813 460.94 1034.373-54.38-74.75-177.71-263.53 13.54-142.42-338.55 195.43-175.39-69.89-166.14-767.811 688.02zm-321.641-803.68-3.766-21.34-29.07-164.83-3.766-21.35 21.344-3.76 315.332-55.63 17.61-3.11c108.976-19.23 220.64-38.94 314.5-51.59-129.89-43.56-342.825-121.96-522.348-188.05-74.692-27.5-144.508-53.2-201.766-73.99l-11.769-4.28-2.18-12.33-40-226.76-3.766-21.34 21.348-3.76 959.581-169.28 21.34-3.76 3.77 21.34 29.25 165.8 3.77 21.35-21.35 3.76-323.51 57.07c-155.945 27.51-274.671 47.1-358.913 59.21 192.23 63.17 574.503 200.37 755.253 265.24l5.76 2.07 11.84 4.25 2.18 12.38 37.84 214.54 3.77 21.35-21.35 3.77-959.586 169.26zm17.582-25.11 959.582-169.27-37.83-214.54c-214.25-76.89-730.975-262.44-849.885-294.95l-.41-2.36c93.855-9.4 279.418-40.55 451.745-70.95l323.51-57.07-29.25-165.8-959.575 169.27 40 226.75c240.722 87.41 703.495 261.7 816.335 290.7l.42 2.37c-109.86 8.78-271.177 37.66-428.384 65.39l-315.332 55.63zm637.432-1079.87.86-25.06 17.21-498.27-237.377-8.2-15.551 450.4-.746 21.66-21.668-.75-151.336-5.22-21.664-.74.746-21.67 15.551-450.41-195.719-6.76-16.289 471.81-.746 21.66-21.664-.75-151.344-5.22-21.66-.75.746-21.66 23.18-671.16.75-21.66 21.664.75 973.767 33.61 21.66.75-.75 21.67-23.33 675.51-.64 18.73-18.63 2.07-152.1 16.89zm22.53-24.31 152.1-16.9 23.33-675.52-973.771-33.61-23.18 671.16 151.344 5.22 17.043-493.47 239.043 8.26-16.301 472.07 151.34 5.22 16.297-472.06 280.705 9.7zm-472.067-1558.94-40.426 170.63c-22.723 95.91 3.465 153.48 77.836 171.11 13.414 3.17 25.965 4.78 37.312 4.78 35.309 0 85.453-13.51 113.133-130.35l38.508-162.54zm676.657 730.79-25.5-15.57c-34.86-21.3-104.26-37.7-165.49-52.16l-8.2-1.94-44.71-10.58c-117.59-27.87-189.734-79.87-215.215-154.93-45.636 47.12-108.085 73.39-177.261 73.39-23.883 0-48.871-3.05-74.274-9.07-169.554-40.16-248.199-196.63-200.351-398.6l94.957-400.82 5-21.09 21.094 5 948.14 224.63 21.09 4.99-4.99 21.1-41.33 174.38-4.99 21.1-21.1-5-371.46-88-31.75 133.99c-16.93 71.49-16.51 118.26 1.35 147.23 15.6 25.29 45.88 41.28 104.55 55.17l16.04 3.81c98.82 23.41 171.96 42.26 213 71.67l11.81 8.48-3.34 14.14-40.19 169.6zm-692.747-756.88 268.547 63.63-43.508 183.63c-24.313 102.62-68.942 147.03-134.227 147.03-13.25 0-27.347-1.83-42.308-5.37-85.223-20.19-119.993-87.19-93.934-197.2zm678.547 722.8 40.17-169.6c-37.13-26.6-108.71-45.29-205.38-68.2l-16.02-3.81c-114.42-27.09-159.6-69.77-122-228.49l36.74-155.08 392.56 92.99 41.32-174.38-948.14-224.63-94.961 400.82c-48.008 202.66 37.289 337.69 184.257 372.51 24.567 5.82 47.668 8.49 69.278 8.49 89.094 0 152.801-45.28 189.176-101.42 4.91 61.78 40.34 143.74 208.29 183.53l44.71 10.59c64.3 15.22 140.53 32.58 180 56.68" fill="url(#i)"/><path clip-path="url(#e)" d="m8770.65 2664.16-16.71-13.8-517.75-427.75-16.72-13.81 13.81-16.71 620.59-751.19 13.81-16.7 16.7 13.8 521.13 430.51 14.44 11.93-9.72 16.03-79.38 130.84-13.01 21.43-19.32-15.96-384.39-317.54-151.28 183.1 347.44 287.06 16.71 13.8-13.81 16.72-96.43 116.74-13.81 16.71-16.71-13.8-347.47-287.04-124.71 150.98 363.96 300.66 16.71 13.81-13.81 16.71-96.47 116.77zm-2.91-30.51 96.47-116.77-380.67-314.47 152.33-184.4 364.18 300.84 96.43-116.74-364.15-300.86 178.89-216.53 401.09 331.35 79.39-130.84-521.12-430.53-620.59 751.2zm-752.94-570.98-19.45-9.56-150.25-73.79-19.46-9.55 9.56-19.46 141.17-287.46 8.29-16.88c48.63-99.04 98.47-200.47 143.52-283.57-111.79 79.2-300.65 204.77-459.89 310.68-66.36 44.13-128.39 85.39-179.02 119.39l-10.39 6.98-11.25-5.52-206.68-101.5-19.47-9.55 9.56-19.47 429.59-874.711 9.56-19.5 19.46 9.602 151.11 74.199 19.45 9.602-9.55 19.398-144.81 294.9c-69.84 142.2-124.08 249.7-164 324.8 164.08-117.7 499.46-344.7 658.08-452.1l6.84-4.7 10.42-7 11.29 5.5 195.57 96.1 19.46 9.5-9.55 19.5-429.59 874.71zm-9.89-29.01 429.58-874.76-195.56-96c-188.51 127.6-643.27 435.3-739.68 512.17l-2.14-1.06c47.79-81.31 132.13-249.51 209.29-406.61l144.81-294.9-151.12-74.301-429.59 874.771 206.69 101.51c212.63-142.81 626.44-413.58 716.47-487.58l2.14 1c-57.72 93.9-129.59 241.22-199.97 384.5l-141.17 287.47zm-1358.13-1090.758.84 8.098c14.59 141.9 26.83 261 33.52 349.1 40.23-70.5 98.98-167.1 182.39-304.202l3.33-5.496zm116.73 613.288-14.9-3.22-223.3-48.22-15.1-3.25-1.84-15.4-123.22-1023.401-3.64-30.199 29.74 6.402 176.15 37.996 15.09 3.301 1.86 15.301 29.75 245.301 329.01 71.097 131.98-210.699 8.06-12.898 14.88 3.199 188.42 40.699 30.14 6.5-16.34 26.102-548.67 878.469zm-141.35-640.788 279.04 60.2c-122.61 201.598-196.1 321.798-235.79 398.198l-1.4-.3c-4.11-94.5-21.38-258.8-41.85-458.098m131.03 616.378 548.69-878.479-188.42-40.602-140.05 223.602-358.98-77.5-31.6-260.699-176.16-38 123.22 1023.498zm-1458.61-92.38-.36-21.6-15.78-974.3-.35-21.602 21.68-.398 180.74-2.898 21.67-.403.35 21.703 5.45 336.2 86.73 78.597 303.17-433.898 6.35-9.102 11.07-.199 219.82-3.5 42.84-.699-24.83 34.898-397.42 559.001 394.25 387.5 36.92 36.3-51.76.8-220.91 3.6-9.55.1-6.56-6.9c-67.28-71.2-156.5-163.6-235.21-245.1-59.17-61.3-112.6-116.6-150.95-156.9l6.38 393.5.35 21.7-21.68.4-180.74 2.9zm21.32-22 180.74-2.9-7.28-449.598c68.26 73.998 288.51 298.798 424.5 442.798l220.91-3.6-407.44-400.4 408.13-574.001-219.81 3.5-317.27 454.102-111.92-101.403-5.6-345.597-180.74 2.898zm-869.65-235 55.99 225.8 170.2-42.2c49.15-12.2 83.83-31.4 103.08-57.1 17.85-23.9 22.37-54.3 13.42-90.4-14.84-59.9-47.9-86.6-107.21-86.6-21.06 0-45.72 3.5-73.32 10.3zm-114.16 464.63-5.21-21.04-234.46-945.888-5.21-21 21.03-5.2 173.99-43.203 21.04-5.199 5.21 21.102 91.85 370.5 133.67-33.102c71.31-17.699 112.71-39.5 130.29-68.598 15.35-25.5 15.69-59.703 1.18-118.203l-3.96-16c-24.43-98.597-41.16-172.297-33.81-222.199l2.11-14.398 14.12-3.5 169.18-42 29.01-7.204-2.17 29.903c-2.97 40.601 14.19 109.699 29.32 170.601l2.12 8.598 11.06 44.602c29.06 117.199 15.88 205.199-39.13 262.199 84.91 25.499 147.78 95.299 172.31 194.199 20.01 80.7 7.14 157.1-37.2 221-45.99 66.2-123.95 114.52-225.44 139.68l-399.86 99.13zm349.64-536.83c72.02 0 111.6 35.9 128.25 103 21.08 85.1-22.56 146.6-132.32 173.9l-191.25 47.4-66.41-267.9 183.2-45.4c29.63-7.4 55.71-11 78.53-11m-333.81 510.58 399.85-99.14c202.16-50.14 283.17-187.74 246.82-334.34-31.12-125.6-118.25-179.1-200.97-187.3 52.68-32.699 109.32-101.699 67.79-269.199l-11.06-44.602c-15.9-64.199-35.39-139.898-32.02-186l-169.19 41.903c-6.64 45.199 9.51 117.398 33.4 213.898l3.97 15.898c28.29 114.204 11.04 173.903-147.3 213.204l-154.7 38.298-97.07-391.599-173.98 43.101zm-842.66 412.16-9.67-19.39-435.07-871.95-9.68-19.4 19.4-9.7 604.9-301.801 16.76-8.398 10.71 15.398 87.42 125.699 14.33 20.504-22.44 11.2-446.19 222.598 106.07 212.6 403.31-201.2 19.39-9.7 9.68 19.4 67.62 135.5 9.68 19.4-19.4 9.7-403.32 201.22 87.45 175.26 422.48-210.79 19.4-9.68 9.67 19.39 67.63 135.53 9.67 19.39-19.39 9.68-601.01 299.87zm9.73-29.07 601-299.86-67.62-135.52-441.88 220.46-106.8-214.05 422.72-210.9-67.62-135.5-422.71 210.9-125.42-251.4 465.58-232.301-87.43-125.597-604.89 301.798zm-1143.46-160.77 159.08 196.07 137.07-111.21c86.27-70.01 103.82-137.76 52.19-201.38-27.16-33.48-57.91-50.46-91.39-50.46-33.93 0-71.85 16.8-112.7 49.95zm276.84 341.19 128.92 158.9 150.17-121.84c31.5-25.56 51.26-53.8 57.13-81.63 5.63-26.69-1.44-52.46-21.03-76.59-21.89-26.98-45.57-40.09-72.41-40.09-29.21 0-63.2 15.55-101.01 46.22zm73.71 444.37-13.66-16.83-613.95-756.7-13.66-16.83 16.84-13.67 326.57-264.96c76.67-62.17 160.48-95.07 242.36-95.07 89.04 0 170.61 40.07 229.67 112.87 71.8 88.5 70.37 186.07 40.92 260.02 5.93-.47 11.9-.71 17.89-.71 73.42 0 142.37 35.15 194.15 98.97 47.73 58.81 66.97 127.09 55.63 197.41-12.77 79.25-62.94 154.87-149.11 224.77l-316.82 257.07zm-93.6-974.21c40.01 0 76.45 19.3 108.22 58.46 55.37 68.23 47.52 148.39-55.36 231.88l-153.9 124.87-186.4-229.73 161.08-130.7c44.81-36.35 87.28-54.78 126.36-54.78m262.67 346.91c34.74 0 64.27 17.34 89.24 48.11 48.19 59.37 32.67 130.33-39.28 188.72l-167 135.49-156.23-192.56 158.6-128.68c43.37-35.19 81.41-51.08 114.67-51.08m-165.9 596.81 316.83-257.07c175-141.97 171.87-291.16 90.3-391.69-52.55-64.77-117.81-90.96-177.32-90.96-19.7 0-38.78 2.87-56.54 8.17 36.72-60.27 64.85-172.02-19.1-275.48-56.55-69.71-131.83-104.84-212.84-104.84-74.73 0-154.35 29.88-228.7 90.21l-326.58 264.96z" fill="url(#j)"/><path d="m2776.48 2052.44c88.67-71.94 155.03-63.22 203.91-2.97 48.19 59.37 32.67 130.33-39.28 188.72l-167 135.49-156.23-192.56zm-435.44-212.51 161.08-130.7c90.69-73.58 171.78-73.73 234.58 3.68 55.37 68.23 47.52 148.39-55.36 231.88l-153.9 124.87zm384.21 758.24 316.83-257.07c175-141.97 171.87-291.16 90.3-391.69-69.95-86.22-162.43-104.06-233.86-82.79 36.72-60.27 64.85-172.02-19.1-275.48-108.73-134.04-286.58-140.34-441.54-14.63l-326.58 264.96zm1129.54-1369.67-422.71 210.9-125.42-251.4 465.58-232.301-87.43-125.597-604.89 301.798 435.07 871.97 601-299.86-67.62-135.52-441.88 220.46-106.8-214.05 422.72-210.9zm565.21-61.9 183.2-45.4c123.15-30.6 184.86 3.6 206.78 92 21.08 85.1-22.56 146.6-132.32 173.9l-191.25 47.4zm-35.49-143.2-97.07-391.599-173.98 43.101 234.46 945.878 399.85-99.14c202.16-50.14 283.17-187.74 246.82-334.34-31.12-125.6-118.25-179.1-200.97-187.3 52.68-32.699 109.32-101.699 67.79-269.199l-11.06-44.602c-15.9-64.199-35.39-139.898-32.02-186l-169.19 41.903c-6.64 45.199 9.51 117.398 33.4 213.898l3.97 15.898c28.29 114.204 11.04 173.903-147.3 213.204zm931.39 394 180.74-2.9-7.28-449.598c68.26 73.998 288.51 298.798 424.5 442.798l220.91-3.6-407.44-400.4 408.13-574.001-219.81 3.5-317.27 454.102-111.92-101.403-5.6-345.597-180.74 2.898zm1585.3-441.798c-122.61 201.598-196.1 321.798-235.79 398.198l-1.4-.3c-4.11-94.5-21.38-258.8-41.85-458.098zm-286.77-216.801-31.6-260.699-176.16-38 123.22 1023.498 223.3 48.18 548.69-878.479-188.42-40.602-140.05 223.602zm1085.66 39.398-429.59 874.771 206.69 101.51c212.63-142.81 626.44-413.58 716.47-487.58l2.14 1c-57.72 93.9-129.59 241.22-199.97 384.5l-141.17 287.47 150.25 73.79 429.58-874.76-195.56-96c-188.51 127.6-643.27 435.3-739.68 512.17l-2.14-1.06c47.79-81.31 132.13-249.51 209.29-406.61l144.81-294.9zm1396.39 1403.911-364.15-300.86 178.89-216.53 401.09 331.35 79.39-130.84-521.12-430.53-620.59 751.2 517.75 427.75 96.47-116.77-380.67-314.47 152.33-184.4 364.18 300.84z" fill="#100f0d"/><path d="m6575.29 5182.52c0-183.68-58.39-353.67-157.65-492.47-95.09-133.29-227.72-237.72-382.7-297.95-95.25-37.37-199.19-57.72-307.63-57.72-120.11 0-234.39 25.03-337.82 70.07-148.3 64.39-274.43 169.99-364.18 302.12-92.09 135.8-145.97 299.62-145.97 475.95 0 22.69.83 45.04 2.67 67.23 12.68 162.32 71.23 311.96 162.65 435.75 109.44 148.48 266.26 259.92 448.1 312.14 74.4 21.35 153.14 32.86 234.55 32.86s160.16-11.51 234.57-32.86c188.33-54.22 349.65-171.67 459.76-328.15v-.17c84.75-120.61 138.8-264.25 150.98-419.57 1.83-22.19 2.67-44.54 2.67-67.23" fill="#fff"/><g fill="#100f0d"><path d="m6410.93 4695.01-155.32 114.87v220.08l176.44 219.79h132.19l.08-.68c1.76-21.44 2.63-43.21 2.63-66.55 0-176.16-53.94-344.73-156.02-487.51m-683.62-352.29c-116.24 0-228.77 23.35-334.49 69.39l-.81.38 58.54 186.73 276.59 85.11 243-85.38 62.29-198.85-.55-.22c-96.64-37.93-199.11-57.16-304.57-57.16m-839.63 839.8c0 23.34.86 45.11 2.64 66.59l.06.64h167.01l107.62-224.87v-214.99l-132.98-98.35c-94.43 139.37-144.35 302.22-144.35 470.98m607.37 807.1.31.09 47.09-143.5-135.59-186.53-242.13-62.95-113.35 83.81v.01c109.51 148.59 267.08 258.36 443.67 309.07m918.26-322.78 1.51-2.31.1-.17-91.57-67.57-253.45 63.02-157.37 187.47 46.74 142.42.28-.08c182.43-52.51 343.48-167.09 453.76-322.78m-168.93-624.23-239.96 78.74-100.67 321.3 164.61 200.34 249.29-61.98 100.67-321.72zm-688.38 793.87h343.82l154.58-184.17-164.44-200.14h-325.86l-141.99 200.14zm-385.67-255.53 238.04 61.89 142.36-200.67-100.56-320.94-273.16-84.6-106.69 224.73zm274.83-965.94-263.47 194.78v210.83l273.77 84.79 263.51-194.82v-211.33zm530.05-.16-239.55 84.17v211.57l263.6 194.89 239.67-78.64v-217.03zm605.72 635.55c-11.88 151.36-64.05 297.07-150.94 421.56l-1.51 2.32c-112.51 159.89-277.41 277.57-464.32 331.37-153.47 44.04-320.24 44.04-473.71 0-180.12-51.72-340.82-163.66-452.5-315.2-95.03-128.65-151.82-280.82-164.25-440-1.82-21.9-2.7-44.13-2.7-67.93 0-172.23 50.98-338.44 147.4-480.65 91.66-134.92 218.83-240.41 367.77-305.06 107.82-46.97 222.59-70.77 341.14-70.77 107.54 0 212.07 19.62 310.64 58.29 155.54 60.44 289.17 164.48 386.46 300.88 104.17 145.62 159.22 317.6 159.22 497.31 0 23.8-.88 46.03-2.7 67.88m-3037.24 1967.59q-3.66-6.63-9.93-10.38c-8.58-5.13-18.35-5.26-29.33-.38-10.98 4.87-20.1 13.39-27.37 25.56-3.54 5.93-6.32 12.31-8.32 19.16s-3.02 13.55-3.05 20.09c-.03 6.55.89 12.39 2.75 17.52 1.85 5.14 4.98 9.02 9.39 11.65l30.69 18.35 29.93-50.08c3.73-6.24 6.31-12.42 7.73-18.56 1.43-6.13 1.98-12.05 1.65-17.75q-.495-8.55-4.14-15.18m424.77 257.25-41.25 95.01-45.49-19.76 41.03-94.51c5.79-13.33 7.4-23.63 4.83-30.89-2.58-7.26-9.27-13.24-20.09-17.94l-7.41-3.22-.15.33-19.8-9.41c-9.95-4.74-18.25-5.06-24.87-.96-6.63 4.09-13.07 12.7-19.31 25.83l-43.07 90.6-45.84-21.79 44-92.57c6.25-13.13 8.18-23.48 5.82-31.04-2.37-7.57-8.76-13.83-19.18-18.78l-11.81-5.61.26-.54-61.62-31.56-.03.04-2.07-1.12-2.53-1.3.03-.05-60.33-32.6-19.32-9.64q-6.93-4.14-11.19-4.14c-2.83-.01-5.42 1.2-7.76 3.62-2.34 2.41-4.64 5.9-6.93 10.46-2.28 4.57-5.19 9.82-8.73 15.74-.93 1.56-1.86 3.24-2.77 5.01a98 98 0 0 1 -3.06 5.49l-60.41 101.08-74.26-44.39q-14.85-8.88-23.13-24.63c-5.53-10.5-8.83-22.21-9.91-35.14s.13-26.7 3.65-41.33c3.51-14.63 9.46-28.96 17.85-43 8.4-14.03 18.36-26.08 29.89-36.12 11.52-10.05 23.5-17.71 35.91-23 12.42-5.28 24.76-8.07 37.03-8.36 12.26-.28 23.35 2.53 33.25 8.45 9.24 5.52 16.53 13.06 21.88 22.61 5.34 9.54 8.68 20.43 10.03 32.67 6.66-3.64 14.19-6.12 22.6-7.45s16.79.51 25.15 5.51l13.48 8.06 69.24 35.98 69.11 35.4-.17.32 20.03 9.53c11.81 5.61 20.6 13.71 26.35 24.29 5.75 10.59 7.71 23.49 5.87 38.71 13.73-11.58 25.57-18.43 35.52-20.54 9.14-1.95 18.89-.56 29.21 3.84l.1-.21 28.21 12.25c7.99 3.47 14.99 8.59 20.99 15.36s10.28 15.27 12.83 25.49 3.05 21.93 1.51 35.12c-1.54 13.2-5.93 28.14-13.17 44.8m365.45 151.87c-5.26 15.49-12.21 29.16-20.83 41-8.63 11.86-18.25 21.45-28.86 28.78-10.61 7.34-21.68 12.22-33.19 14.64-11.52 2.42-22.73 1.78-33.66-1.93l-53.16-18.04 68.55 187.93-45.95 39.66-73.43-202.25c-3.99-9.79-5.68-20.54-5.09-32.24s2.7-22.49 6.33-32.39l12.82-36.53 106.31 36.1c4.6 1.56 9.38 1.84 14.33.83 4.94-1.01 9.69-3.24 14.24-6.68 4.56-3.44 8.74-7.78 12.55-13.01 3.8-5.24 6.82-11.12 9.04-17.66l18.93-55.75-165.29-56.11.52-1.51-.65-.25c-10.98-4.28-19.95-4.75-26.89-1.4-6.94 3.34-13.04 11.79-18.32 25.34l-119.25 306.4-46.21-18 119.44-306.9c6.59-16.94 13.99-30.64 22.18-41.1 8.2-10.46 16.8-18.42 25.8-23.89 9.01-5.47 18.02-8.49 27.05-9.07 9.03-.59 17.6.7 25.72 3.87l21.86 8.5-.43 1.11 203.41 69.05zm353.38 413.94-48.5-10.39 68.83-321.48c3.04-14.22 2.59-24.63-1.37-31.24s-11.71-11.15-23.24-13.62l-.87-.19-.07.33-21.29-5.21c-10.71-2.62-18.9-1.26-24.56 4.09s-10.22 15.09-13.68 29.21l-23.83 97.45-49.31-12.06 24.35-99.57c3.46-14.12 3.26-24.65-.59-31.58-3.84-6.93-11.37-11.77-22.58-14.51l-4.84-1.18-.04.13-4.19-1.17-3.63-.89.03-.11-28.51-7.98-38.16 136.51-49.26-13.78 60.63-216.84c2.64-9.46 3.18-17.33 1.61-23.62s-6.06-10.46-13.47-12.54l-12.96-3.62c-3.45-.97-6.49-1.54-9.1-1.7-2.62-.17-4.89-.14-6.81.08l16.29-58.29c1.43-.35 4.9-.61 10.39-.77 5.51-.16 11.84.76 19 2.77l12.96 3.62c8.89 2.49 16.26 6.82 22.13 12.99 5.86 6.17 10.21 13.7 13.04 22.62 2.83 8.9 4.1 18.88 3.81 29.93-.3 11.05-2.21 22.88-5.73 35.48l-7.19 25.73 31.06 8.68 25.28 6.19c12.7 3.11 22.94 9.26 30.72 18.46s12.31 21.44 13.59 36.73c11.1-14.12 21.31-23.23 30.63-27.31 8.66-3.8 18.64-4.41 29.81-2.08l.05-.23 22.93 4.91c8.52 1.83 16.4 5.46 23.62 10.91 7.22 5.46 13.09 12.94 17.61 22.46 4.51 9.52 7.32 20.9 8.42 34.14 1.09 13.25-.26 28.75-4.06 46.53zm92.84 18.16 76.76-424.37 48.82 8.82-76.76 424.37zm1051.16-286.41-143.04 1.82c10.04 23.13 20.4 41.81 31.09 56.04 10.69 14.22 20.96 25.27 30.8 33.14s18.81 13.04 26.93 15.48c8.1 2.44 14.71 3.62 19.83 3.56 4.88-.06 9.48-1.4 13.8-3.99 4.33-2.6 8.06-6.28 11.2-11.05 3.15-4.77 5.65-10.25 7.49-16.45 1.85-6.21 2.73-12.76 2.64-19.67zm-618.93 4.66q-1.935-9.255-5.97-16.8c-2.7-5.03-6.08-9.04-10.15-12.02-4.07-2.99-8.53-4.73-13.37-5.24-9.95-1.04-18.87 2.96-26.77 12-7.9 9.05-12.58 20.62-14.06 34.72-.72 6.87-.54 13.83.53 20.89 1.06 7.05 2.96 13.55 5.69 19.5s6.02 10.87 9.87 14.74c3.85 3.88 8.32 6.08 13.42 6.61l35.56 3.72 6.05-58.03c.76-7.23.49-13.93-.8-20.09m647.2 133.48c-7.55 11.01-16.35 19.84-26.39 26.51-10.04 6.68-20.84 10.08-32.37 10.23-19.22.24-38.28-5.97-57.14-18.63-18.88-12.67-36.94-31.61-54.18-56.84l.8 63.79-49.6.63-2.03-161.38-48.07.61-.01-2.14-14.15-.48c-11.01-.38-18.74 2.63-23.2 9.03q-6.675 9.585-7.41 31.38l-3.43 100.27-50.71-1.74 3.49-102.44c.5-14.53-1.84-24.79-7.02-30.79-5.18-5.99-13.54-9.19-25.06-9.58l-13.07-.45.02-.48-69.41-3.97v.06l-3.21-.24-1.91-.11v-.04l-69.02-5.1-.11 1.11-21.42-2.24c-5.35-.56-9.32-.24-11.89.95s-4.41 3.38-5.51 6.55c-1.11 3.17-1.73 7.31-1.88 12.41-.14 5.1-.58 11.09-1.29 17.96-.19 1.81-.33 3.71-.41 5.71-.08 2.01-.23 4.09-.45 6.26l-12.24 117.14-86.03-9c-11.47-1.2-21.92-5.4-31.35-12.59-9.43-7.21-17.36-16.44-23.78-27.71-6.43-11.27-11.13-24.28-14.09-39.03-2.97-14.74-3.61-30.25-1.91-46.52q2.55-24.405 11.88-45.36c6.23-13.96 13.86-25.96 22.89-35.98 9.04-10.02 19.06-17.74 30.06-23.17 11.01-5.43 22.24-7.54 33.72-6.34 10.7 1.12 20.49 4.88 29.35 11.29q13.305 9.615 22.86 25.41c4.5-6.11 10.29-11.53 17.36-16.27 7.07-4.75 15.44-6.61 25.13-5.6l16.97 1.78.06-.87 76.9 5.69 78.86 4.52-.02.3 22.79.78c13.06.44 24.34 4.38 33.83 11.79 9.49 7.42 16.42 18.47 20.79 33.17 7.99-16.09 16.12-27.09 24.4-32.99s18.7-8.63 31.25-8.21l7.3.25-.06 1.7 281.19-3.57 1.48 117.77c.2 16.35-1.78 31.83-5.95 46.42-4.18 14.59-10.04 27.39-17.6 38.39m239.55-120.35c-1.48-14.46-5.13-24.23-10.94-29.29-5.8-5.07-14.57-7-26.29-5.79l-8.43.87v.05l-2.36.19-5.28.54-.01-.11-1.16.1c-11.76.96-20.02 4.47-24.8 10.51-4.77 6.05-6.57 16.31-5.38 30.8l26.87 327.65-49.43 4.06-26.91-328.2c-1.48-18.11-.83-33.66 1.96-46.65 2.8-13 7.04-23.92 12.75-32.78 5.7-8.85 12.48-15.51 20.34-19.99 7.86-4.47 16.13-7.07 24.82-7.78l20.67-1.7 24.36-2.5c8.67-.9 17.29.13 25.83 3.09 8.56 2.96 16.45 8.26 23.67 15.92 7.24 7.66 13.41 17.62 18.54 29.88s8.61 27.43 10.47 45.51l10.58 103.03-49.34 5.08zm286.78-36.51c-2.28-14.36-6.46-23.91-12.53-28.65s-14.93-6.19-26.58-4.34l-.89.14.03.25-37.36 5.01 18.85 140.48-50.7 6.8-29.93-223.15c-1.3-9.73-3.92-17.17-7.84-22.32-3.93-5.16-9.7-7.23-17.33-6.21l-13.34 1.79c-3.55.48-6.57 1.16-9.04 2.04-2.46.88-4.54 1.8-6.22 2.76l-8.05-59.97c1.17-.89 4.26-2.5 9.25-4.82s11.17-3.97 18.54-4.96l13.34-1.79c9.14-1.23 17.63-.16 25.45 3.19 7.83 3.35 14.8 8.56 20.92 15.62s11.23 15.72 15.32 25.99c4.1 10.27 7.01 21.89 8.75 34.86l3.56 26.48 27.97-3.75-.01-.06 23.16-3.67c8.61-1.37 17.27-.81 25.97 1.67 8.7 2.49 16.87 7.35 24.51 14.6 7.64 7.26 14.35 16.86 20.15 28.83 5.79 11.96 10.1 26.91 12.95 44.87l51.62 325.24-49 7.77zm112.86-122.93 48.76-9.13 79.41 423.89-48.75 9.13zm1157.81-308.08-73.8 33.8-.15.07 42.3 84.72.26-.19c14.5-12.5 25.09-29.7 30.89-50.3 6.01-21.7 6.21-45.2.5-68.1m-119.1 54.45-68.59 31.45c24.4 33.6 60.59 54.2 97.69 54.2 4.48 0 8.87-.3 13.16-1.06zm-190.12 143.35-20.43-55.23-134.13 49.67c17.21 18.43 33.23 32.56 48.07 42.37 14.83 9.82 28.21 16.79 40.12 20.9 11.91 4.12 22.09 5.97 30.54 5.56 8.46-.42 15.09-1.52 19.9-3.31 4.57-1.69 8.45-4.48 11.66-8.38 3.2-3.9 5.48-8.62 6.85-14.16 1.36-5.55 1.88-11.55 1.54-18.01-.35-6.47-1.71-12.94-4.12-19.41m-457.65 136.27c-1.85-7.03-4.46-13.21-7.84-18.52s-7.22-9.85-11.52-13.6c-4.3-3.76-8.87-6.31-13.74-7.67-4.86-1.35-9.65-1.41-14.35-.17-9.67 2.54-16.61 9.43-20.81 20.68s-4.51 23.73-.9 37.44c1.75 6.68 4.36 13.13 7.86 19.36 3.49 6.22 7.56 11.63 12.21 16.24 4.65 4.6 9.46 8.03 14.43 10.3 4.96 2.27 9.93 2.75 14.88 1.45l34.59-9.09zm1157.64-124.71-166.17-283.67c-7.35-12.54-14.71-19.92-22.1-22.12-7.37-2.21-16.15-.33-26.33 5.63l-.44.26.22.4-19.38 10.25c-9.74 5.15-14.96 11.61-15.64 19.37-.67 7.76 2.38 18.07 9.17 30.92l46.89 88.7-44.88 23.72-47.9-90.62c-6.8-12.85-13.93-20.59-21.41-23.21-7.48-2.63-16.31-1.25-26.52 4.15l-8.85 4.67.18.39-1.5.7c21.2 71.7-.71 146.4-54.6 185l-.4.27 9.69 19.43-44.29 22.2-10.24-20.5c-11.96 3.23-24.11 4.8-36.27 4.8-54.6 0-109.69-30.7-143.89-83.1l-2.01.9-.11-.27-45.69 17.19 18.73 50.62c5.69 15.34 9 30.58 9.96 45.73s-.28 29.17-3.7 42.07c-3.42 12.89-8.76 24.17-15.98 33.82s-16.24 16.48-27.06 20.48c-18.03 6.68-38.06 7.22-60.08 1.62-22.02-5.61-45.38-17.41-70.08-35.39l22.14 59.82-46.51 17.23-56.01-151.36-46.13 13.76-65.31 20.65.01.03-1.6.48-3.33 1.05-.02-.06-66.48 19.73-20.55 6.53c-5.2 1.36-8.8 3.06-10.79 5.08-1.98 2.03-2.93 4.72-2.84 8.08.08 3.36.96 7.45 2.62 12.28 1.67 4.82 3.37 10.57 5.12 17.25.46 1.76 1.01 3.59 1.64 5.49.64 1.9 1.22 3.91 1.78 6.02l29.89 113.9-83.66 21.97c-11.16 2.93-22.42 2.7-33.78-.71-11.36-3.4-22.03-9.24-32.02-17.52-9.99-8.27-18.97-18.78-26.96-31.53-7.98-12.75-14.05-27.03-18.21-42.85-4.15-15.82-5.77-31.36-4.88-46.63.9-15.27 3.81-29.19 8.72-41.75 4.92-12.56 11.56-23.33 19.94-32.3 8.39-8.96 18.16-14.91 29.31-17.84 10.41-2.73 20.9-2.67 31.46.2 10.55 2.86 20.67 8.1 30.35 15.7 2.06-7.3 5.55-14.42 10.49-21.36 4.94-6.93 12.11-11.63 21.54-14.11l16.56-4.35 74.65-23.03 75.06-20.92 310.85-115.38.03.08 43.24-19.8 65.99-30.2 45.1-20.7 74.61-34.2 42.82-19.61-.02-.04 27.2-14.38c11.55-6.11 23.3-8.31 35.23-6.6 11.92 1.71 23.43 7.86 34.54 18.43-1.08-17.93.52-31.52 4.76-40.75 3.8-8.27 10.51-15.11 19.8-20.68l-.14-.24 20.24-11.85c7.52-4.41 15.78-7.04 24.79-7.89q13.5-1.29 28.14 4.68 14.625 5.955 29.25 19.5c9.75 9.04 19.21 21.39 28.4 37.07l166.45 284.14zm126.02-79.65-238.97-359.07 41.29-27.48 238.98 359.07zm-4275.43 189.67c0-16.15-13.09-29.23-29.22-29.23-16.15 0-29.23 13.08-29.23 29.23 0 16.14 13.08 29.22 29.23 29.22 16.13 0 29.22-13.08 29.22-29.22m-428.12-193.36c0-16.14-13.08-29.23-29.22-29.23-16.15 0-29.23 13.09-29.23 29.23s13.08 29.23 29.23 29.23c16.14 0 29.22-13.09 29.22-29.23m-54.45-32.55c0-16.15-13.09-29.23-29.23-29.23s-29.23 13.08-29.23 29.23c0 16.14 13.09 29.23 29.23 29.23s29.23-13.09 29.23-29.23m530.28-153.7c0-16.14-13.09-29.23-29.23-29.23s-29.23 13.09-29.23 29.23 13.09 29.23 29.23 29.23 29.23-13.09 29.23-29.23"/><path d="m4669.81 7512.27c0-16.15-13.08-29.23-29.22-29.23-16.15 0-29.23 13.08-29.23 29.23 0 16.14 13.08 29.22 29.23 29.22 16.14 0 29.22-13.08 29.22-29.22m855.67 119.67c0-16.14-13.09-29.23-29.23-29.23s-29.22 13.09-29.22 29.23 13.08 29.23 29.22 29.23 29.23-13.09 29.23-29.23m63.4 0c0-16.14-13.09-29.23-29.23-29.23s-29.23 13.09-29.23 29.23 13.09 29.23 29.23 29.23 29.23-13.09 29.23-29.23m486.88-14.06c0-16.14-13.08-29.23-29.23-29.23-16.14 0-29.22 13.09-29.22 29.23s13.08 29.23 29.22 29.23c16.15 0 29.23-13.09 29.23-29.23m-275.14 407.06c0-16.14-13.09-29.23-29.23-29.23s-29.23 13.09-29.23 29.23 13.09 29.22 29.23 29.22 29.23-13.08 29.23-29.22m338.27-413.55c0-16.15-13.09-29.23-29.23-29.23s-29.23 13.08-29.23 29.23c0 16.14 13.09 29.22 29.23 29.22s29.23-13.08 29.23-29.22m778.07 256.43c0-16.15-13.08-29.23-29.23-29.23-16.14 0-29.22 13.08-29.22 29.23 0 16.14 13.08 29.23 29.22 29.23 16.15 0 29.23-13.09 29.23-29.23m61.58-17.12c0-16.14-13.08-29.23-29.22-29.23-16.15 0-29.23 13.09-29.23 29.23s13.08 29.23 29.23 29.23c16.14 0 29.22-13.09 29.22-29.23m414.25-127.34c0-16.14-13.08-29.23-29.23-29.23-16.14 0-29.22 13.09-29.22 29.23s13.08 29.23 29.22 29.23c16.15 0 29.23-13.09 29.23-29.23m521.4-233.9c0-16.15-13.09-29.23-29.23-29.23s-29.23 13.08-29.23 29.23c0 16.14 13.09 29.22 29.23 29.22s29.23-13.08 29.23-29.22m-2751.1 505.7c0-16.15-13.09-29.23-29.23-29.23-16.15 0-29.23 13.08-29.23 29.23 0 16.14 13.08 29.22 29.23 29.22 16.14 0 29.23-13.08 29.23-29.22m63.39 0c0-16.15-13.09-29.23-29.23-29.23s-29.23 13.08-29.23 29.23c0 16.14 13.09 29.22 29.23 29.22s29.23-13.08 29.23-29.22m-1335.31-764.87c0-16.15-13.08-29.23-29.23-29.23-16.14 0-29.23 13.08-29.23 29.23 0 16.14 13.09 29.23 29.23 29.23 16.15 0 29.23-13.09 29.23-29.23"/></g></g></svg>