<svg viewBox="0 0 125.71 137.82" xmlns="http://www.w3.org/2000/svg"><path d="M124.802 0H.909c-9.737 92.074 61.948 137.823 61.948 137.823S134.548 92.074 124.802 0" fill="#fee000"/><path d="M66.115 25.877h19.053V77.69c8.479-18.353 12.894-31.6 15.564-51.813h20.563c-.231 17.8-5.34 35.549-13.938 53.677H66.115m-6.509-53.677H40.553V77.69c-8.48-18.353-12.894-31.597-15.565-51.813H4.428c.231 17.8 5.34 35.549 13.938 53.677h41.24m-10.74-65.58h3.151v3.038h-3.151zm65.579-9.447a6.74 6.74 0 0 1 5.34 2.492 9.6 9.6 0 0 1 1.964 6.189 9.6 9.6 0 0 1-2.077 6.408 6.68 6.68 0 0 1-10.42 0 9.6 9.6 0 0 1-2.077-6.408 9.6 9.6 0 0 1 1.97-6.189 6.72 6.72 0 0 1 5.34-2.492m0 13.351a2.93 2.93 0 0 0 2.166-1.187c.712-.86.665-2.172.665-3.477a5.6 5.6 0 0 0-.665-3.364 2.9 2.9 0 0 0-4.332 0 5.52 5.52 0 0 0-.659 3.364c0 1.305-.053 2.617.659 3.477a2.97 2.97 0 0 0 2.166 1.187M8.48 21.789h5.317l4.447-16.828H13.47l-2.279 10.1-2.284-10.1H4.024zm14.651 0h5.1l4.67-16.828h-4.88l-2.279 10.1-2.284-10.1h-4.777zm14.549 0h5.109l4.664-16.828h-4.776l-2.391 10.1-2.493-10.1H33.23zm20.412 0h5.323l4.45-16.828h-4.776l-2.279 10.1-2.5-10.1h-4.668zm10.533 0h11.838v-4.67h-7.494v-1.952h6.3V10.93h-6.3V9.301h7.494v-4.34H68.625zm13.25 0h4.343v-8.574l4.231 8.574h4.237V4.961h-4.237v8.14l-4.231-8.14h-4.343zm14.437 0h10.859v-4.777h-6.4V4.961h-4.459z" fill="#12100b"/><path d="M80.219 49.44a17.368 17.368 0 1 0-17.368 17.368A17.37 17.37 0 0 0 80.219 49.44" fill="#fff"/><path d="M47.995 48.182l-.119 5.928 3.133 5.228 2.676-2.789-2.095-7.667zm9.872-14.057l-5.345 2.79-2.79 5.345 3.833 1.155 5.459-5.69zm19.86 14.057l.119 5.928-3.139 5.228-2.67-2.789 2.095-7.666zm-9.873-14.057l5.347 2.79 2.789 5.346-3.834 1.154-5.465-5.69zm-1.966 9.88h-6.051l-1.739 6.5 4.759 3.37 4.765-3.37zM62.857 59.8l-5.8 1.626 1.857 3.252h7.9l1.857-3.252zm18.128 23.699c-7.844 10.681-9.352 11.921-18.128 20.572-8.77-8.651-10.277-9.886-18.122-20.572h-24.28c10.141 19.469 28.725 39.845 42.4 49.363 13.648-9.494 32.268-29.894 42.408-49.363z" fill="#12100b"/><path d="M65.137 115.921a1.67 1.67 0 0 0-.8.386c-.314.291-.427.629-.208.866s.3.184.593.077l.445-.172a.94.94 0 0 1 1.139.136 1.4 1.4 0 0 1-.3 2.035 2.37 2.37 0 0 1-1.187.593l-.136-.54a1.97 1.97 0 0 0 1.027-.487c.326-.309.421-.706.2-.949s-.356-.214-.7-.089l-.421.154a.884.884 0 0 1-1.092-.16c-.439-.469-.38-1.234.314-1.875a2 2 0 0 1 .979-.516zm.729-2.426a.47.47 0 0 1-.671 0 .487.487 0 0 1 0-.676.475.475 0 1 1 .653.682zm2.415 3.471l-.493.469-1.923-3.08.439-.564zm1.54-5.186l1.454 2.279-.463.457-1.323-2.053a2.4 2.4 0 0 0-.22-.309.285.285 0 0 0-.457 0 1.67 1.67 0 0 0-.267 1.329l1.288 2-.463.457-1.383-2.172a1.7 1.7 0 0 0-.593-.647l.243-.629a1.3 1.3 0 0 1 .552.487 1.73 1.73 0 0 1 .457-1.442.66.66 0 0 1 1 0 2 2 0 0 1 .175.243m3.727-1.751c.38.593.54.653.783.688l-.2.593a.83.83 0 0 1-.593-.309 1.41 1.41 0 0 1-.374 1.252c-.487.5-1.021.433-1.584-.107a2.87 2.87 0 0 1-.872-1.94 1.82 1.82 0 0 1 .481-1.234 1.6 1.6 0 0 1 .593-.439s-.2-.309-.3-.451l-.682-1 .522-.386zm-2.006-.665a1.14 1.14 0 0 0-.267.8 2.87 2.87 0 0 0 .777 1.5c.309.3.593.332.8.1a1.33 1.33 0 0 0 .214-1.305l-.973-1.448a1.04 1.04 0 0 0-.554.353zm3.397-3.375a1.6 1.6 0 0 0-.76.451c-.291.309-.38.653-.142.872s.309.166.593.036l.427-.208a.95.95 0 0 1 1.145.053 1.39 1.39 0 0 1-.142 2.053 2.3 2.3 0 0 1-1.127.688l-.174-.533a1.9 1.9 0 0 0 .985-.593c.3-.326.368-.73.125-.961s-.368-.184-.706-.03l-.409.184a.89.89 0 0 1-1.1-.077c-.469-.433-.469-1.187.172-1.9a2.1 2.1 0 0 1 .932-.593zm4.687-1.674l.421-.487.332.433-1.305 1.5-.32-.439.445-.516-1.436-1.893a6 6 0 0 1-.291 1.092l-.374-.2.291-1.65.32-.374zm2.961-2.219a5.1 5.1 0 0 1-.593 2.516l-.492-.059a3.88 3.88 0 0 0 .231-3.3 1.56 1.56 0 0 1-.386.967 1.187 1.187 0 0 1-1.685.071 1.875 1.875 0 0 1-.231-2.664 1.276 1.276 0 0 1 1.934-.125 3.5 3.5 0 0 1 1.222 2.594m-2.807-2.053a1.15 1.15 0 0 0 .332 1.644c.386.314.765.32 1.027 0a1.62 1.62 0 0 0 .32-.938 2.5 2.5 0 0 0-.564-.73.75.75 0 0 0-1.116.024zm5.174-2.022a1.9 1.9 0 0 1-.4 1.305 1.15 1.15 0 0 1-1.78.22 2.93 2.93 0 0 1-1.08-1.739 1.86 1.86 0 0 1 .392-1.406 1.187 1.187 0 0 1 1.834-.22 2.78 2.78 0 0 1 1.034 1.84m-2.552-1.187a.95.95 0 0 0-.2.8 2.83 2.83 0 0 0 .973 1.394.63.63 0 0 0 1.027-.095.96.96 0 0 0 .214-.765 2.62 2.62 0 0 0-1-1.442.623.623 0 0 0-1.015.083zm3.905-2.488a.914.914 0 0 1 1.187-.083c.8.593.9 1.923-.136 3.364a2 2 0 0 1-.261.32l-.421-.231a3 3 0 0 0 .255-.314 2.7 2.7 0 0 0 .593-1.513 1.32 1.32 0 0 0-.463-1.015.59.59 0 0 0-.742 0 2.4 2.4 0 0 0-.5.593l-.089.119-.344-.374a1 1 0 0 0 .107-.136 2.5 2.5 0 0 0 .433-.765.88.88 0 0 0-.35-.878.546.546 0 0 0-.813.225 2.4 2.4 0 0 0-.344 1.228l-.457-.036a2.97 2.97 0 0 1 .487-1.691 1.027 1.027 0 0 1 1.454-.4 1.38 1.38 0 0 1 .4 1.584z" fill="#ffe400"/><path d="M37.68 21.789h5.109l4.664-16.828h-4.776l-2.391 10.1-2.493-10.1H33.23z" fill="#12100b"/></svg>