<svg viewBox="0 0 637.8 879.31" xmlns="http://www.w3.org/2000/svg"><path d="M576 606.46c-28.57 54.41-66.64 101-104.71 139C395.17 821.3 318.9 863.05 318.9 863.05s-76.27-41.75-152.38-117.63c-38.06-38-76.14-84.54-104.71-139s-47.64-116.6-47.64-185.78c0-37.15 7.09-406.47 7.09-406.47h595.28s7.08 369.32 7.09 406.47c-.01 69.18-19.08 131.43-47.63 185.82" fill="#fff"/><path d="M630.71 0H7.09S0 380.17 0 418.87c0 72.06 19.13 136.91 48.9 193.57s70.19 105.21 109.84 144.75C238 836.24 318.9 879.31 318.9 879.31s80.87-42.92 160.16-122c39.65-39.54 80.08-88.21 109.84-144.89s48.9-121.51 48.9-193.57C637.79 380.17 630.71 0 630.71 0M576 606.46c-28.57 54.41-66.64 101-104.71 139C395.17 821.3 318.9 863.05 318.9 863.05s-76.27-41.75-152.38-117.63c-38.06-38-76.14-84.54-104.71-139s-47.64-116.6-47.64-185.78c0-37.15 7.09-406.47 7.09-406.47h595.28s7.08 369.32 7.09 406.47c-.01 69.18-19.08 131.43-47.63 185.82"/><path d="M588.31 42.52H49.48s-8.73 345.38-8.73 379.29c0 63.14 17.41 120 43.49 169.62 6.52 12.41 13.57 24.38 21 35.88L116.93 202h67.32l-3.54 172.11a159.13 159.13 0 0 0-3.15 153.22l-3.8 184.85q3 3.09 6 6.11A717 717 0 0 0 263 789.13l5-201.4a143.74 143.74 0 0 1-92.66-134.19c0-63.76 41.81-117.93 99.44-136.57l1.54-61.46h85L363 317c57.64 18.64 99.44 72.81 99.44 136.57a143.74 143.74 0 0 1-92.66 134.19l5 201.4A717 717 0 0 0 458 718.27q3-3 6-6.11l-3.8-184.85a159.13 159.13 0 0 0-3.15-153.22L453.54 202h67.32l11.65 425.35c7.46-11.51 14.52-23.47 21-35.88C579.64 541.78 597 485 597 421.81c0-33.91-8.69-379.29-8.69-379.29"/><path d="M318.89 744.68l-17.71 44.41 17.71 44.42 17.72-44.42zm-24.8-62.37l-17.71 44.42 17.71 44.42 17.72-44.42zm49.6 0l-17.71 44.42 17.71 44.42 17.73-44.42z" fill="#01a0c6" fill-rule="evenodd"/><path d="M318.89 321.73c-72.68 0-131.81 59.13-131.81 131.81s59.13 131.81 131.81 131.81S450.7 526.22 450.7 453.54s-59.12-131.81-131.81-131.81m0 255.83a124 124 0 1 1 124-124 124.16 124.16 0 0 1-124 124"/><path d="M374.48 440.6l4.23 22.92 1.21-8.2-1.66-4.8 4.58-13.13zm-17.97 12.04l8.65-3.99 1.9-8.32-14.44-5.92-11.62 3.82-5.13 6.23 3.63 5.07 4.8-3.01 9.08 1.08zm-36.39 5.75l-4.23 12.33 21.84-2.41 8.11 2.41 1.35-5.36-9.32-2.51zm77.99-61.06l-2.92-5.84-1.68 3.67-1.95 5.46-6.49 4.5-1.12 9.96 3.43 3.44 2.05-.6-1.18 13.34 5.98-8.63 5.86-15.77zm-176.06 71.96l26.55-27.64 21.56-11.77v-14.55l-11.03-15.25-23.28 10.26-.21.26-15.04 13.74-13.58 2.41-2.99 22.24 8.01 6.26-5.36 23.35zm46.47-110.89l10.35-4.87 15.91 2.13 5.66 8.29h19.87l-13.42-11.23-22.39-3.61-12.94-.35-12.79 6.89-21.6 17.13-11.35 13.33 36.2-17.13z"/><path d="M261.02 377.03l-40.4 16.78.05 9.83-10.51 12.59 48.9-26.02zm44.31 88.95l7.66-10.06-13.98-4.21-6.91-2.51-15.09 20.46-15.04 36.63 3.59 7.1-11.74 12.81-7.25 16.65 16.06 10.85 6.33-3.35 9.88 10.97 6.7-21.67 5.89-45.57 3.11-13.87zm-19.97-20.6l-13.23-7.63-14.63 15.37-31.76 30.15-3.26 16.46-5.52 6.89 17.49 24.9 35.88-75.04zm41.28 89.45l-3.11-15.42-25.13-8.29-5.19 54.54 16.84.44 17.17 2.12 29.33-6.08-8.94-23.9z"/><path d="M384.55 508.54l-.09-.13L378 499l.84-2.26-.21-4.93-.79-5.53-3.4-10.28 3-8.21-15.07.49 6.77 8.1-6 1-6.44 6.43-6.38-2.08-5.74-1.73-.77 11.18-4.62-.45-3.33-10.63-2.38 8.83-6.7-8.67-18.43-3-7.06 12.92-1.55 9.6 21.83 9.95 18.43 11.5 27.41 16.94 20.95-5.69 2.57-6.76-4.77-8.91zM369 489.37l-12.48 3.79-.17-1 6-6.37 8.38-.93zm13.14-88.7l6.15-4-2-9.12-.81-4.27-11-2.41-4.69-2.5-19.15-2.18-14.53 1.55-4.61-5.56-15.39-1-17.7 1.44-8.29-9.19-8.22-1.95-8.52 4.91-5.78 13.75 1.5 16.36 7.68 11.15 4.36 24.29 15.69 7 20.63-2.09 8.86-15.14 19.17-.87 6.89-9.85 1.41 18.81 8.9-10.8 12.12-4.29 4.12-2.9 2-5.9-11.37-8 1.41-5.74 5.42 4 1.66-9.73 3.44.06-2.6 11.09zm-95-13.92l-7.36-13.17 9.06 2.19zm38.3-1.48l-6.95-2.55-8.09-2.89 2.5-.94 15.62-.91 1.83 6z"/><path d="M282.12 207.94l-5.74 3.92v-5.65l5.74-3.92h5.74v37.27h-5.74zm23.3 15.96l-.11-.1a2.3 2.3 0 0 1-.87.34 7.4 7.4 0 0 1-1.55.13 5.94 5.94 0 0 1-2.81-.68 5.5 5.5 0 0 1-2-1.73 4.4 4.4 0 0 1-.62-1.13 7.7 7.7 0 0 1-.37-1.54 22 22 0 0 1-.2-2.38q-.06-1.44-.06-3.64 0-1.83.06-3a16 16 0 0 1 .2-2 6 6 0 0 1 .4-1.39 9 9 0 0 1 .65-1.2 7.55 7.55 0 0 1 3-2.67 9.4 9.4 0 0 1 4.25-.94 9 9 0 0 1 4.22 1 8 8 0 0 1 3 2.64 14 14 0 0 1 .67 1.2 5.1 5.1 0 0 1 .42 1.39 17 17 0 0 1 .2 2q.06 1.18.06 3t-.06 2.85a17 17 0 0 1-.2 1.94 12 12 0 0 1-.34 1.47q-.2.65-.48 1.39l-7.54 18.74h-6.42zm-2.87-7a2.44 2.44 0 0 0 .84 1.94 3 3 0 0 0 3.94 0 2.44 2.44 0 0 0 .84-1.94V210a2.44 2.44 0 0 0-.84-1.94 3 3 0 0 0-3.94 0 2.44 2.44 0 0 0-.84 1.94zm18.01-6.9a7.7 7.7 0 0 1 .7-3.35 7.9 7.9 0 0 1 1.89-2.51 8.2 8.2 0 0 1 2.73-1.6 9.8 9.8 0 0 1 6.47 0 8.3 8.3 0 0 1 2.73 1.6 7.9 7.9 0 0 1 1.88 2.51 7.64 7.64 0 0 1 .7 3.35v21.88a7.6 7.6 0 0 1-.7 3.35 7.9 7.9 0 0 1-1.88 2.51 8.3 8.3 0 0 1-2.73 1.6 9.8 9.8 0 0 1-6.47 0 8.2 8.2 0 0 1-2.73-1.6 7.9 7.9 0 0 1-1.89-2.51 7.66 7.66 0 0 1-.7-3.35zm5.74 21.88a2.54 2.54 0 0 0 .79 1.91 3.09 3.09 0 0 0 4.05 0 2.54 2.54 0 0 0 .79-1.91V210a2.55 2.55 0 0 0-.79-1.91 3.09 3.09 0 0 0-4.05 0 2.54 2.54 0 0 0-.79 1.91zM351.12 218a7.74 7.74 0 0 0 3.57-.58q1-.58 1-2.67v-4.82a2.5 2.5 0 0 0-.76-1.88 2.84 2.84 0 0 0-2.05-.73 2.5 2.5 0 0 0-2.17.89 3 3 0 0 0-.65 1.73v3h-5.74v-3.09a7.3 7.3 0 0 1 .68-3.09 7.5 7.5 0 0 1 1.86-2.51 9.3 9.3 0 0 1 2.76-1.68A9 9 0 0 1 353 202a8 8 0 0 1 3.91.86 8.9 8.9 0 0 1 2.34 1.75 10 10 0 0 1 1 1.28 5.7 5.7 0 0 1 .68 1.52 13 13 0 0 1 .4 2.09 27 27 0 0 1 .14 3q0 1.94-.09 3.14a5.9 5.9 0 0 1-.45 2 3.8 3.8 0 0 1-1.07 1.39 13 13 0 0 1-1.94 1.26 11 11 0 0 1 2.05 1.47 4.24 4.24 0 0 1 1 1.6 7.3 7.3 0 0 1 .39 2.2q.06 1.28.06 3.27 0 1.83-.09 3a15 15 0 0 1-.25 2 6 6 0 0 1-.45 1.39 8.5 8.5 0 0 1-.73 1.2 8.15 8.15 0 0 1-7.09 3.4 10.8 10.8 0 0 1-2.87-.42 8 8 0 0 1-2.76-1.36 7.5 7.5 0 0 1-2.05-2.46 7.76 7.76 0 0 1-.82-3.72v-3H350v2.77a2.9 2.9 0 0 0 .76 2.07 3 3 0 0 0 4.11 0 3 3 0 0 0 .76-2.17v-5.33a6.5 6.5 0 0 0-.2-1.78 2 2 0 0 0-.7-1.07 2.94 2.94 0 0 0-1.38-.52 16 16 0 0 0-2.28-.13zM77.19 70.87H92v44h18.27v-44h14.8v102.75h-14.8v-45.75H92v45.75H77.19zm69.76 0H191v13.85h-29.3v30.17h25.53v13.85h-25.49v30.16H191v14.72h-44.05zm62.64 0h23.79q26.11 0 26.11 30.16a37.9 37.9 0 0 1-2.83 15.37 21.8 21.8 0 0 1-9.93 10.32l16 46.9H247l-13.78-43.87h-8.85v43.87h-14.8zm14.8 45.89h8.41a15 15 0 0 0 6.24-1.08 8 8 0 0 0 3.55-3.1 13.2 13.2 0 0 0 1.67-5 54.3 54.3 0 0 0 0-13.71 12.4 12.4 0 0 0-1.81-5.05 8.2 8.2 0 0 0-3.84-3.1 17.6 17.6 0 0 0-6.53-1h-7.69zm71.16-45.89h12.33l23.06 102.76h-14.79l-4.35-22.08h-20.16l-4.35 22.08h-14.8zm6.24 29.59h-.29l-7.25 37.23H309zm88.69 50.22a23.3 23.3 0 0 1-1.81 9.09 23.8 23.8 0 0 1-5 7.58 24.7 24.7 0 0 1-7.47 5.2 22 22 0 0 1-9.21 1.95 33.3 33.3 0 0 1-8.56-1.15 20.8 20.8 0 0 1-7.83-4 21.4 21.4 0 0 1-5.73-7.43 26.6 26.6 0 0 1-2.25-11.69V93.67a24.9 24.9 0 0 1 1.74-9.38 22.1 22.1 0 0 1 4.93-7.5 23 23 0 0 1 7.62-5 25.7 25.7 0 0 1 9.79-1.8 24.4 24.4 0 0 1 9.43 1.8 22.6 22.6 0 0 1 7.54 5.05 23.3 23.3 0 0 1 5 7.79 26.5 26.5 0 0 1 1.81 9.89v5.77h-14.79V95.4a11.9 11.9 0 0 0-2.46-7.5 8 8 0 0 0-6.67-3.18q-5.51 0-7.33 3.39a18.1 18.1 0 0 0-1.81 8.59v52.53a13.56 13.56 0 0 0 2 7.5q2 3 7 3a10.8 10.8 0 0 0 3.12-.5 8.6 8.6 0 0 0 3-1.66 8.4 8.4 0 0 0 2.25-3.17 12.8 12.8 0 0 0 .87-5.05v-5.05h14.79zm17.32-79.81h14.79v88h26.47v14.72H407.8zm50.64 0h44.09v13.85h-29.3v30.17h25.53v13.85h-25.53v30.16h29.3v14.72h-44.09zm107.83 29.58h-14.8v-3.32a15.65 15.65 0 0 0-2.39-8.73q-2.39-3.68-8-3.68a9.77 9.77 0 0 0-5 1.16 8.6 8.6 0 0 0-3 3 12.3 12.3 0 0 0-1.62 4.12 27.4 27.4 0 0 0-.43 5 50 50 0 0 0 .22 5.12 9 9 0 0 0 1.08 3.61 8.4 8.4 0 0 0 2.54 2.67 23.2 23.2 0 0 0 4.57 2.31l11.31 4.47a28.2 28.2 0 0 1 8 4.4 17.8 17.8 0 0 1 4.71 5.92 25 25 0 0 1 2.25 7.79 77 77 0 0 1 .58 10 52.6 52.6 0 0 1-1.29 12.09 25.3 25.3 0 0 1-4.28 9.53 20.5 20.5 0 0 1-7.9 6.28 28.3 28.3 0 0 1-12 2.31 26.5 26.5 0 0 1-10-1.88 23.8 23.8 0 0 1-13.27-12.85 23.8 23.8 0 0 1-2-9.67v-5.48h14.75v4.62a12 12 0 0 0 2.39 7.29q2.39 3.25 8.05 3.25a13 13 0 0 0 5.87-1.08 7.45 7.45 0 0 0 3.19-3 12.4 12.4 0 0 0 1.38-4.83q.29-2.89.29-6.35a63 63 0 0 0-.29-6.64 10.55 10.55 0 0 0-1.23-4.19 7.56 7.56 0 0 0-2.61-2.6 35 35 0 0 0-4.42-2.17l-10.59-4.33q-9.57-3.9-12.83-10.32t-3.26-16.09a37.1 37.1 0 0 1 1.6-11 25.5 25.5 0 0 1 4.71-8.95 22.4 22.4 0 0 1 7.9-6A26.2 26.2 0 0 1 541.61 70a24.7 24.7 0 0 1 10.08 2 25.1 25.1 0 0 1 7.83 5.34 23.7 23.7 0 0 1 5 7.43 21.45 21.45 0 0 1 1.75 8.44z" fill="#fff"/></svg>