<svg viewBox="0 0 374.17 374.17" xmlns="http://www.w3.org/2000/svg"><g clip-rule="evenodd" fill-rule="evenodd"><path d="M187.087 0c103.042 0 187.085 84.043 187.085 187.088 0 103.042-84.043 187.085-187.085 187.085C84.042 374.173 0 290.13 0 187.088 0 84.043 84.042 0 187.087 0" fill="#fff"/><path d="M188.06 33.149c39.854 0 76.302 15.066 103.937 39.797 18.75 16.779 33.443 38.008 42.395 61.993l.439 1.201c-11.961-.106-24.219 1.851-36.383 5.817-4.346 1.417-8.596 3.076-12.77 4.924l-1.559-3.413c3.857-5.77 7.725-11.539 11.588-17.308a4.65 4.65 0 0 0-.932-6.219L280.4 108.229l5.463-15.805a4.7 4.7 0 0 0-.281-3.701 4.68 4.68 0 0 0-2.893-2.326l-20.877-5.753.43-15.483a4.69 4.69 0 0 0-1.73-3.76 4.69 4.69 0 0 0-4.037-.908l-17.621 4.275q-5.972-8.518-11.943-17.04a4.67 4.67 0 0 0-7.076-.673l-17.189 16.668c-4.516-10.954-10.297-21.569-18.354-30.355l-.161-.175a324 324 0 0 1 3.929-.044M38.44 144.762c12.184-40.811 40.672-74.706 77.85-94.068 13.721-7.146 29.431-12.805 44.883-15.27 4.986 11.658 8.781 25.486 8.869 35.882a36.6 36.6 0 0 1-.399 5.715l-23.833-4.962a4.68 4.68 0 0 0-4.762 1.871l-11.597 16.354-32.479 7.539c-5.626-4.414-11.38-8.822-17.942-11.789a4.67 4.67 0 0 0-5.074.808 4.67 4.67 0 0 0-1.262 4.978c1.07 3.089 1.807 6.249 2.316 9.47l-9.294 2.21c-2.218.527-3.757 2.646-3.574 4.917l1.726 21.468a4.65 4.65 0 0 0 2.009 3.472l22.15 15.237a4.7 4.7 0 0 0 4.083.597 4.7 4.7 0 0 0 2.963-2.872c5.031-14.071 14.656-22.171 26.408-22.225 13.648-.062 26.111 11.199 32.451 22.256l-41.073 9.479-1.451-6.314a4.68 4.68 0 0 0-5.597-3.507 4.674 4.674 0 0 0-3.506 5.597l.48 2.095-12.49 3.06a4.65 4.65 0 0 0-1.869-1.774c-4.847-2.532-10.801-4.055-15.537-3.975-8.644.146-15.75 4.363-23.486 9.444-5.138 3.374-10.199 5.425-15.809 6.262 1.121-7.44 2.694-14.745 4.846-21.955" fill="#a2daf4"/><path d="M210.352 34.752c54.59 7.863 100.197 44.152 121.266 93.296 1.146 2.671 2.199 5.374 3.213 8.094q-4.274-.038-8.592.274c-.887-2.517-1.773-5.005-2.785-7.483-19.433-47.595-61.722-83.582-113.102-94.181M34.04 195.845a31 31 0 0 0 3.649.273c8.931.135 18.049-3.637 25.96-10.676a31 31 0 0 0-.941 5.174c-.53 5.455 3.463 10.307 8.918 10.836 5.449.529 10.308-3.475 10.837-8.92.292-3.014 1.715-5.161 3.539-6.693l3.08 13.453a9.93 9.93 0 0 0 6.854 7.299 9.92 9.92 0 0 0 9.726-2.389c2.908-2.818 5.289-5.816 7.269-8.766 1.971 1.26 3.918 2.537 6.348 4.357a9.92 9.92 0 0 0 14.931-3.707c2.864-6.078 7.564-11.347 12.895-14.458 3.031-1.769 7.746-2.651 12.738-3.585 2.313-.434 4.705-.881 7.158-1.452 9.588-2.229 19.229-5.575 24.805-14.872 3.031-5.052 4.35-11.108 4.867-17.133q1.608 1.118 3.275 2.304a9.924 9.924 0 0 0 13.764-2.251c.836 5.462-.717 12.732-7.52 22.861-6.361 9.472-13.865 18.141-21.807 27.318-7.887 9.111-16.041 18.533-23.154 28.979-15.848 23.271-29.148 48.139-42.401 72.936l-3.241 6.063a744 744 0 0 0-6.557 12.566c-40.575-24.51-69.187-66.963-74.67-116.234a161 161 0 0 1-.322-3.283" fill="#008bd0"/><path d="M74.158 214.796c-23.258 0-42.18 18.922-42.18 42.18s18.922 42.18 42.18 42.18c23.259 0 42.18-18.922 42.18-42.18s-18.921-42.18-42.18-42.18"/><path d="M68.015 161.136c-3.97 1.166-8.104 3.591-13.486 7.125-8.731 5.734-17.521 8.35-27.663 8.231l-1.07-.013.821.686c3.475 2.907 7.46 4.474 11.527 4.535 5.831.088 12.131-2.969 17.737-8.604 3.9-3.922 7.936-7.977 12.466-11.288l1.765-1.289zm255.063 106.197c-27.02 46.566-77.432 78.006-134.959 78.006-34.397 0-67.712-11.471-94.784-32.283-34.279-26.352-57.367-66.594-60.706-112.178a160 160 0 0 1-.295-5.307c.526.098 1.135.186 1.707.275.095 1.057.203 2.23.32 3.281 5.69 51.143 36.299 94.941 79.341 118.953 4.2-8.182 8.522-16.285 13.242-25.1 12.233-22.844 24.399-45.088 38.71-66.104 6.933-10.18 14.973-19.471 22.748-28.455 8.053-9.303 15.646-18.077 22.178-27.802 9.826-14.631 11.242-26.13 4.453-36.19l-.301-.446-.322.434c-1.555 2.095-3.131 4.46-4.689 7.028a4.67 4.67 0 0 1-3.045 2.152 4.68 4.68 0 0 1-3.65-.764c-3.465-2.458-7.143-5.034-10.68-7.161l-.584-.351.006.682c.066 7.284-.375 16.507-4.403 23.221-4.564 7.611-13.016 10.479-21.468 12.445-2.344.545-4.673.98-6.927 1.402-5.445 1.02-10.59 1.982-14.402 4.208-6.308 3.683-11.628 9.624-14.978 16.731a4.66 4.66 0 0 1-3.1 2.543 4.65 4.65 0 0 1-3.928-.797c-2.443-1.832-5.029-3.502-7.53-5.115l-3.269-2.131-.34-.221c-.003-.002-.203.352-.203.352-2.67 4.725-5.629 8.633-9.05 11.947a4.68 4.68 0 0 1-4.577 1.125 4.68 4.68 0 0 1-3.226-3.438l-4.49-19.612-.094-.411-.4.136c-6.976 2.37-11.334 7.401-11.955 13.802a4.64 4.64 0 0 1-1.682 3.152 4.63 4.63 0 0 1-3.417 1.045 4.674 4.674 0 0 1-4.197-5.1c1.41-14.54 13.548-21.545 24.436-23.253a4.683 4.683 0 0 1 5.276 3.571l3.299 14.412.207.901.489-.785c1.223-1.965 2.43-4.188 3.69-6.799a4.65 4.65 0 0 1 3.102-2.507 4.65 4.65 0 0 1 3.906.801c2.436 1.827 5.015 3.49 7.509 5.1l3.4 2.218.325.212c.003.002.209-.327.209-.327 4.1-6.549 9.591-11.95 15.877-15.619 5.213-3.042 11.404-4.201 17.394-5.323 2.169-.405 4.394-.822 6.528-1.318 8.936-2.078 13.302-4.364 15.575-8.152 3.576-5.962 3.187-16.812 2.901-24.733l-.065-1.922a4.64 4.64 0 0 1 2.002-3.991 4.65 4.65 0 0 1 4.445-.478c5.602 2.309 10.959 5.788 15.461 8.886l.316.218.217-.317c9.48-13.966 19.592-20.79 30.051-20.285 6.203.3 11.779 3.011 16.125 7.844 8.285 9.214 9.361 22.626 8.805 32.256-.072 1.245-.625 2.389-1.557 3.219s-2.131 1.247-3.375 1.175a4.674 4.674 0 0 1-4.393-4.933c.453-7.855-.293-18.651-6.426-25.47-2.643-2.939-5.973-4.585-9.629-4.763-4.182-.201-8.516 1.658-12.883 5.525l-.266.237.217.281c9.598 12.405 9.639 27.105.123 43.695l-.242.421.465.134c3.006.871 5.721 1.295 8.301 1.295a4.675 4.675 0 0 1 4.67 4.67 4.676 4.676 0 0 1-4.67 4.67c-4.322 0-8.836-.847-13.797-2.589l-.27-.095-.168.233c-2.768 3.877-5.947 7.985-9.719 12.561-3.371 4.094-6.902 8.174-10.316 12.121l-1.273 1.473-.426.492.637.131c4.152.857 7.918 1.311 10.893 1.311a4.677 4.677 0 0 1 4.67 4.67 4.675 4.675 0 0 1-4.67 4.67c-5.168 0-10.918-.879-18.094-2.766l-.234-.063-.155.186c-5.694 6.793-10.032 12.432-13.651 17.746a413 413 0 0 0-6.384 9.674l-.286.449.517.127a107 107 0 0 0 20.101 2.951 4.677 4.677 0 0 1 4.428 4.9 4.675 4.675 0 0 1-4.9 4.428 116 116 0 0 1-25.04-4.041l-.278-.076-.149.246c-4.325 7.094-8.497 14.313-12.53 21.512a91 91 0 0 0 39.268 8.865c32.172 0 60.566-16.709 76.953-41.891-4.854-.754-9.703-1.148-14.471-1.148a4.675 4.675 0 0 1-4.67-4.67 4.674 4.674 0 0 1 4.67-4.67c29.514 0 61.836 13.807 82.344 35.174a4.676 4.676 0 0 1-.135 6.604 4.65 4.65 0 0 1-3.33 1.299 4.64 4.64 0 0 1-3.273-1.434 93 93 0 0 0-3.131-3.1m20.389-65.107c-11.701-4.346-25.873-6.564-38.881-6.092-26.043.949-47.041 10.633-55.529 19.232a4.64 4.64 0 0 1-3.293 1.387c-1.25.006-2.426-.471-3.313-1.346s-1.379-2.045-1.389-3.293a4.64 4.64 0 0 1 1.348-3.311c14.928-15.123 42.641-21.305 61.836-22.004 17.758-.646 36.691 3.172 50.646 10.213a4.65 4.65 0 0 1 2.549 3.76 4.64 4.64 0 0 1-1.85 4.146c-13.783 10.344-18.678 21.754-16.367 38.148a4.63 4.63 0 0 1-.895 3.457 4.63 4.63 0 0 1-3.076 1.818 4.677 4.677 0 0 1-5.277-3.973c-2.371-16.813 2.084-30.393 13.621-41.514l.438-.42zM49.402 160.453c7.736-5.081 14.843-9.298 23.486-9.444 4.736-.08 10.69 1.442 15.537 3.975a4.66 4.66 0 0 1 2.44 4.935 4.66 4.66 0 0 1-3.955 3.829c-9.94 1.394-16.971 8.461-24.415 15.943-7.405 7.443-16.104 11.475-24.492 11.35-10.753-.162-20.883-7.162-26.436-18.27a4.64 4.64 0 0 1 .438-4.887 4.64 4.64 0 0 1 4.563-1.799c13.539 2.425 23.05.792 32.834-5.632m11.958-22.749c3.806-.185 7.575.892 11.202 3.2 1.051.67 1.779 1.71 2.05 2.928s.051 2.468-.619 3.521a4.65 4.65 0 0 1-2.928 2.052 4.64 4.64 0 0 1-3.52-.62c-2.021-1.285-3.842-1.841-5.732-1.75-1.993.097-4.048.861-6.427 1.747l-1.477.565c-3.063 1.19-6.537 2.538-10.751 2.271-6.421-.41-11.754-3.574-14.63-8.681a4.676 4.676 0 0 1 1.778-6.361 4.677 4.677 0 0 1 6.361 1.778c1.313 2.335 3.829 3.733 7.083 3.941 2.331.147 4.406-.688 6.604-1.572.571-.229 1.162-.467 1.771-.694 2.717-1.011 5.794-2.157 9.235-2.325m285.581 42.977c.59 1.1.715 2.362.355 3.558a4.65 4.65 0 0 1-2.262 2.767 4.677 4.677 0 0 1-6.324-1.905c-2.855-5.317-4.35-11.169-4.211-16.477.135-5.202 1.59-10.498 4.33-15.811 1.244-2.41 2.699-4.674 4.264-6.885-3.309-.274-6.613-.458-9.934-.43-21.576.193-44.332 7.789-64.076 21.386-31.588 21.754-53.084 57-60.531 99.24a4.675 4.675 0 0 1-5.41 3.789 4.64 4.64 0 0 1-3.016-1.92 4.64 4.64 0 0 1-.773-3.49c7.885-44.725 30.768-82.125 64.434-105.312a143 143 0 0 1 13.494-8.209l-2.742-6.005a4.7 4.7 0 0 1 .369-4.538s7.9-11.804 10.672-15.942q-6.803-5.543-13.611-11.087a4.69 4.69 0 0 1-1.463-5.147l4.902-14.183-19.605-5.403a4.66 4.66 0 0 1-3.43-4.633q.183-6.514.363-13.032l-14.777 3.585c-1.852.45-3.9-.251-4.926-1.857-.922-1.448-8.654-12.348-10.629-15.165l-18.361 17.801c-1.146 1.114-2.762 1.561-4.32 1.193s-2.805-1.487-3.334-2.998c-4.621-13.146-10.458-23.982-17.147-31.928-2.656-3.156-5.581-5.881-8.796-8.43 4.909 12.075 8.99 25.448 8.922 38.585-.022 4.569-.633 8.795-2.011 12.371a4.655 4.655 0 0 1-5.311 2.893l-25.147-5.234-10.855 15.308a4.67 4.67 0 0 1-2.754 1.848l-36.382 8.445a4.64 4.64 0 0 1-3.929-.868l-1.658-1.303c-2.333-1.835-4.676-3.651-7.076-5.402.215 1.541.408 3.08.537 4.629a4.64 4.64 0 0 1-3.573 4.931q-4.716 1.125-9.436 2.247L73 126.92l15.583 10.719c6.417-13.066 17.654-22.817 32.854-22.886 17.154-.078 35.877 14.143 43.551 33.081a4.66 4.66 0 0 1-.186 3.908 4.67 4.67 0 0 1-3.093 2.396l-51.308 11.843a4.7 4.7 0 0 1-3.527-.591 4.64 4.64 0 0 1-2.075-2.914l-2.495-10.873a4.674 4.674 0 0 1 3.506-5.597 4.68 4.68 0 0 1 5.597 3.507l1.451 6.314 41.073-9.479c-6.34-11.057-18.803-22.317-32.451-22.256-11.752.054-21.377 8.153-26.408 22.225a4.7 4.7 0 0 1-2.963 2.872 4.7 4.7 0 0 1-4.083-.597l-22.15-15.237a4.65 4.65 0 0 1-2.009-3.472l-1.726-21.468c-.183-2.271 1.356-4.39 3.574-4.917l9.294-2.21c-.51-3.221-1.246-6.381-2.316-9.47a4.669 4.669 0 0 1 6.336-5.786c6.563 2.967 12.316 7.375 17.942 11.789l32.479-7.539 11.597-16.354a4.68 4.68 0 0 1 4.762-1.871l23.833 4.962c.283-1.897.414-3.79.399-5.715-.114-13.587-6.565-33.039-13.728-45.849a4.66 4.66 0 0 1 .377-5.132 4.66 4.66 0 0 1 4.868-1.67c8.037 2.081 15.686 7.03 22.73 14.713 8.058 8.786 13.839 19.401 18.354 30.355l17.189-16.668a4.669 4.669 0 0 1 7.076.673q5.971 8.522 11.943 17.04l17.621-4.275a4.69 4.69 0 0 1 4.037.908 4.69 4.69 0 0 1 1.73 3.76c-.143 5.162-.289 10.323-.43 15.483l20.877 5.753a4.68 4.68 0 0 1 2.893 2.326 4.7 4.7 0 0 1 .281 3.701l-5.463 15.805 14.375 11.713a4.65 4.65 0 0 1 .932 6.219c-3.863 5.769-7.73 11.538-11.588 17.308l1.559 3.413c4.174-1.848 8.424-3.507 12.77-4.924 18.365-5.989 36.945-7.396 54.391-4.041a4.68 4.68 0 0 1 3.557 3.128 4.67 4.67 0 0 1-1.006 4.626c-7.475 8.099-11.359 15.902-11.551 23.198-.095 3.711 1.007 7.906 3.106 11.814M148.394 99.403c-.958-1.124-1.256-2.78-.818-4.692.427-1.866 1.938-2.788 4.493-2.743 5.083.19 13.594 3.152 19.2 4.505.81.195 5.85 1.594 7.371 2.03.146.59.437 2.441.47 3.885.027 1.197-.684 1.712-1.97 2.284-2.567 1.141-5.282 2.024-8.002 2.706-3.294.827-6.682 1.106-9.862 1.239-1.413.059-3.052-.769-3.58-1.808-.357-.701-.403-1.798-.313-2.845.066-.765.205-1.504.35-2.045-2.67-.502-6.588-1.414-7.339-2.516m-14.385-80.549c15.473 8.944 26.199 29.893 28.797 45.964a4.676 4.676 0 0 1-3.865 5.355 4.64 4.64 0 0 1-3.478-.823 4.64 4.64 0 0 1-1.878-3.042c-2.223-13.745-11.9-32.229-24.251-39.367a4.677 4.677 0 0 1-1.706-6.381 4.68 4.68 0 0 1 6.381-1.706"/><path d="M192.285 326.46l9.857-.861a.86.86 0 0 0 .779-.93l-.268-3.07a.864.864 0 0 0-.93-.779l-5.678.496-.58-6.625 5.119-.449a.86.86 0 0 0 .779-.93l-.258-2.938a.86.86 0 0 0-.928-.779l-5.119.447-.49-5.613 5.676-.494a.86.86 0 0 0 .781-.93l-.26-2.973a.86.86 0 0 0-.932-.779l-9.855.861a.86.86 0 0 0-.779.93l2.156 24.637a.86.86 0 0 0 .93.779m16.961-1.473l3.188-.695a.86.86 0 0 0 .625-1.041l-2.895-12.385 7.945 11.502c.215.309 1.146.576.914.346l3.041-.758a.86.86 0 0 0 .625-1.041l-5.982-23.996a.86.86 0 0 0-1.041-.625l-3.074.768c-.412.102-.727.629-.625 1.039l3.029 12.148-7.855-11.26a.86.86 0 0 0-.912-.342l-2.99.744a.86.86 0 0 0-.625 1.041l5.594 23.93a.856.856 0 0 0 1.038.625m21.859-28.742l.33-.154c.971-.451 1.75-.588 2.254-.393.514.203 1.043.855 1.523 1.889.459.984.59 1.787.393 2.383-.189.574-.748 1.08-1.66 1.504l-.328.152zm4.399 9.428l.271-.127c1.057-.494 1.898-.621 2.498-.377.629.25 1.217.963 1.756 2.117.658 1.412.641 2.162.508 2.541-.131.371-.592.959-2.041 1.635l-.24.111zm4.461-4.633a4.7 4.7 0 0 0 .525-1.758c.117-1.184-.209-2.615-.969-4.246-1.025-2.199-2.375-3.578-4.01-4.096-1.613-.508-3.635-.201-6.016.908l-4.145 1.934a.857.857 0 0 0-.416 1.139l10.451 22.414a.862.862 0 0 0 1.14.416l4.393-2.049c2.375-1.107 3.891-2.553 4.504-4.291.611-1.736.354-3.836-.77-6.244-.783-1.68-1.684-2.816-2.744-3.477a4.7 4.7 0 0 0-1.943-.65m27.244-6.141l2.143 2.645a.86.86 0 0 0 .818.305c.92-.164 1.754-.406 2.484-.717a8.5 8.5 0 0 0 2.025-1.205c1.645-1.332 2.574-2.992 2.766-4.934.189-1.941-.391-3.76-1.723-5.406-.939-1.16-2.051-2.002-3.301-2.508-1.08-.43-2.396-.664-4.012-.715-.98-.029-1.953.025-2.934-.045-2.375-.166-3.369-.756-3.781-1.266-.5-.615-.705-1.229-.629-1.869.078-.654.428-1.225 1.07-1.744a4.5 4.5 0 0 1 1.365-.748c.533-.188 1.166-.309 1.881-.357a.86.86 0 0 0 .729-.512.87.87 0 0 0-.121-.885l-2.092-2.582a.85.85 0 0 0-.82-.305 9.9 9.9 0 0 0-2.381.742 9.8 9.8 0 0 0-2.076 1.297c-1.547 1.252-2.41 2.873-2.568 4.816-.156 1.936.428 3.736 1.738 5.352.896 1.109 1.98 1.92 3.223 2.412 1.221.475 2.795.715 4.82.734.518-.004 1.055.006 1.574.027 2.217.096 3.725.568 4.383 1.381.479.594.68 1.174.613 1.779-.066.609-.4 1.148-1.016 1.646-.379.309-.861.568-1.43.773-.6.215-1.34.383-2.195.496a.86.86 0 0 0-.686.531.87.87 0 0 0 .133.862m23.988-17.584l-2.42-2.18c-.225-.203-.547-.271-.838-.178s-.508.336-.572.635a7.2 7.2 0 0 1-.457 1.441 3.6 3.6 0 0 1-.625.979c-.867.965-1.891 1.244-3.225.883-1.512-.404-3.41-1.631-5.645-3.643-2.408-2.168-3.91-4.029-4.463-5.525-.502-1.352-.279-2.488.697-3.572a4.1 4.1 0 0 1 .785-.66 6.3 6.3 0 0 1 1.141-.576.86.86 0 0 0 .531-.645.87.87 0 0 0-.271-.791l-2.355-2.121a.85.85 0 0 0-.91-.15 8 8 0 0 0-1.498.842c-.484.35-.938.76-1.355 1.221-1.955 2.174-2.539 4.668-1.73 7.416.77 2.598 2.813 5.404 6.074 8.34 3.244 2.922 6.064 4.578 8.619 5.064 2.68.508 5-.305 6.896-2.41a8.05 8.05 0 0 0 1.877-3.519.85.85 0 0 0-.256-.851m5.123-3.503l1.914-2.734a.86.86 0 0 0-.211-1.193l-9.301-6.514 2.436-3.482 9.303 6.514a.86.86 0 0 0 1.196-.211l1.912-2.732a.86.86 0 0 0-.209-1.195l-20.258-14.186c-.557-.391-1.195.293-1.195.211l-1.912 2.734a.85.85 0 0 0-.143.641c.014.078.352.871.352.553l6.998 4.902-2.438 3.48-7-4.9a.86.86 0 0 0-1.193.211l-1.914 2.732a.86.86 0 0 0-.143.641c.014.082.354.873.354.555l20.258 14.186c.186.129.416.182.641.143s.422-.171.553-.356m-161.365 42.019a.863.863 0 0 0 1.118-.475l3.954-9.789 4.983 2.014a.857.857 0 0 0 1.117-.473l1.104-2.734a.86.86 0 0 0-.474-1.115l-4.984-2.016 2.124-5.254 5.504 2.223a.85.85 0 0 0 .656-.006.85.85 0 0 0 .46-.467l1.118-2.768a.856.856 0 0 0-.475-1.115l-9.393-3.797a.86.86 0 0 0-1.116.475l-9.265 22.93a.86.86 0 0 0 .475 1.117zm23.933 6.154l.897-3.129a.86.86 0 0 0-.206-.832.85.85 0 0 0-.823-.236 7.4 7.4 0 0 1-1.496.223 3.6 3.6 0 0 1-1.153-.133c-1.247-.357-1.948-1.156-2.208-2.514-.298-1.535-.028-3.779.801-6.67.893-3.115 1.905-5.277 3.011-6.434.996-1.043 2.112-1.342 3.516-.938q.438.125.937.416c.335.199.682.461 1.02.771a.857.857 0 0 0 1.404-.397l.874-3.045a.86.86 0 0 0-.264-.885 8.4 8.4 0 0 0-1.412-.979 8.6 8.6 0 0 0-1.692-.68c-2.813-.807-5.31-.236-7.424 1.693-1.998 1.832-3.624 4.898-4.834 9.115-1.203 4.197-1.456 7.457-.773 9.967.719 2.633 2.465 4.361 5.189 5.143a8.06 8.06 0 0 0 3.986.144.84.84 0 0 0 .65-.6m12.296 3.465l4.39.385c3.625.316 6.328-.502 8.038-2.432 1.67-1.891 2.684-5.123 3.1-9.883.417-4.756-.021-8.107-1.34-10.248-1.349-2.193-3.87-3.467-7.492-3.783l-4.39-.385a.86.86 0 0 0-.93.781l-2.155 24.637a.856.856 0 0 0 .779.928m6.094-21.16l.87.074c1.561.135 2.563.746 3.069 1.861.57 1.262.715 3.555.43 6.816-.285 3.266-.83 5.504-1.62 6.658-.696 1.018-1.787 1.447-3.335 1.313l-.866-.08zm72.677-7.639c-1.861-2.867-2.943-5.016-3.217-6.385-.301-1.471.293-2.07.844-2.428.545-.354 1.324-.648 2.535.211 1.135.813 2.658 2.684 4.525 5.559 1.916 2.949 3.023 5.119 3.293 6.449.223 1.1-.041 1.824-.852 2.352-.549.357-1.342.652-2.596-.242-1.167-.828-2.692-2.684-4.532-5.516m-4.23 2.825c2.572 3.959 4.861 6.43 7 7.551 2.277 1.188 4.627 1.014 6.982-.518 2.354-1.527 3.461-3.6 3.293-6.156-.16-2.408-1.486-5.504-4.057-9.461-2.582-3.977-4.877-6.459-7.016-7.588-2.268-1.199-4.613-1.033-6.969.498-2.357 1.531-3.467 3.613-3.299 6.188.165 2.425 1.495 5.527 4.066 9.486m-184.631-6.28a38.98 38.98 0 0 1-17.733-13.189c-5.007-6.695-7.652-14.654-7.652-23.016 0-5.813 1.266-11.391 3.764-16.592.075 1.658.262 3.232.559 4.691-3.095 4.162-4.23 10.246-2.964 15.902 1.081 4.824 3.724 8.66 7.441 10.811 1.828 7.788 8.387 16.192 16.585 21.393m-2.283-53.084c-5.093 5.701-12.001 5.277-15.047 4.23-.795-3.914-.536-7.949-.172-10.67 5.318-6.969 12.871-11.945 21.309-14.053-3.802 6.577-6.016 14.017-6.09 20.493m21.038-3.9c-4.207 5.465-12.165 5.891-17.21 3.156.27-6.707 2.999-14.412 7.323-20.652a39 39 0 0 1 4.258-.236c4.535 0 8.976.785 13.203 2.334-4.562 4.099-7.178 9.415-7.574 15.398m-14.16 27.33c-7.888-2.129-15.778.768-19.59 4.775-2.619-1.65-4.505-4.541-5.315-8.158-.952-4.25-.237-8.895 1.865-12.164 5.145 1.768 13.113.947 18.692-5.01 5.892 2.934 14.719 2.785 20.4-3.141 7.634 5.35 5.771 14.529 3.906 19.664-3.066-1.074-6.925-1.197-10.891-.346-3.789.817-7.088 2.411-9.067 4.38m42.689 11.219c-.178.09-.405.156-.608.17-.808.053-1.516-.795-1.913-1.373-.352-.512-.729-1.219-1.097-2.191 4.792-5.883 6.969-14.5 6.129-24.279a50 50 0 0 0-.325-2.836 38.2 38.2 0 0 1 2.169 12.74 38.54 38.54 0 0 1-4.355 17.769m-6.619-5.74c-5.306 1.119-9.053-.98-12.903-7.234.909-2.316 2.366-6.826 2.199-11.641-.205-5.869-2.697-10.447-7.411-13.611.347-5.701 2.937-10.42 7.699-14.033a38.6 38.6 0 0 1 10.964 8.17c2.523 4.596 4.268 10.695 4.788 16.744.757 8.823-1.138 16.493-5.336 21.605m2.108 8.058c-.564 5.119-7.286 8.799-11.986 9.512-10.853-4.23-18.686-11.152-23.282-20.574 3.123-2.867 11.636-5.18 16.879-2.453 1.97 3.256 3.896 5.498 6.058 7.055 2.848 2.051 6.131 2.84 9.761 2.344.694 1.757 1.558 3.14 2.57 4.116m-15.06 12.373c-3.058 4-11.623 4.693-16.091 4.387-9.84-1.41-21.646-12.242-24.354-22.322 2.456-3.115 9.525-6.273 16.628-4.215 4.755 9.996 12.768 17.449 23.817 22.15" fill="#fff"/></g></svg>