<svg viewBox="2 2 189.53 250" xmlns="http://www.w3.org/2000/svg"><path d="m2.273 12.38-.27.06-.001 138.674c-.012 7.984-.024 14.879 2.838 22.236 4.937 12.697 13.544 24.087 27.906 36.933 27.28 24.4 63.51 41.48 63.873 41.65l.145.067.145-.068c.363-.17 36.59-17.25 63.872-41.649 14.361-12.845 22.968-24.236 27.906-36.933 2.861-7.357 2.85-14.252 2.837-22.235l-.001-138.676-.27-.058c-18.393-4.014-60.31-10.381-94.483-10.381-34.187 0-76.103 6.366-94.497 10.38z" fill="#2b63b7"/><path d="m96.756 2.685c33.973 0 75.583 6.297 94.082 10.307l.003 139.683c0 7.262-.164 13.669-2.792 20.427-4.897 12.591-13.448 23.901-27.725 36.67-26.334 23.555-61.04 40.273-63.56 41.471-2.52-1.198-37.227-17.916-63.562-41.47-14.277-12.77-22.828-24.08-27.724-36.671-2.628-6.759-2.793-13.166-2.793-20.43l.004-139.68c18.498-4.01 60.109-10.307 94.067-10.307" fill="#fff"/><path d="m34.704 15.128v186l.008.274c-14.62-13.769-19.729-23.692-22.534-30.906-2.16-5.554-2.304-11.053-2.304-17.812l.004-133.823c6.727-1.302 15.285-2.738 24.83-4.074zm24.825 205.79v-24.748l.234-.006h24.327l.265.007v40.154l.004.296c-7.046-3.955-15.806-9.202-24.825-15.426zm49.644 15.385v-40.134l.229-.006h24.392l.202.022v24.606l.006.397c-9.012 6.22-17.767 11.465-24.811 15.42zm49.65-35.119v-185.992l.004-.403c9.542 1.335 18.097 2.77 24.822 4.072l.003 133.825c0 6.758-.144 12.256-2.304 17.81-2.804 7.213-7.912 17.133-22.524 30.897z" fill="#2b63b7"/><path d="m158.824 201.393a172.208 172.208 0 0 1 -3.293 3.021c-6.836 6.115-14.266 11.76-21.53 16.774l-.005-.398v-24.605l-.202-.022h-24.392l-.23.006v40.134l.019.304a310.344 310.344 0 0 1 -12.427 6.625 311.126 311.126 0 0 1 -12.405-6.612l-.004-.296v-40.154l-.265-.007h-24.327l-.234.007v24.749l.005.275c-7.266-5.015-14.7-10.663-21.539-16.78a173.246 173.246 0 0 1 -3.283-3.012l-.008-.275v-186l.004-.34c18.994-2.657 41.894-4.913 62.048-4.913 20.166 0 43.074 2.257 62.071 4.915l-.005.403v185.992z" fill="#fee816"/><g fill="#2b63b7"><path d="m82.913 58.584s.409-4.175 1.926-6.718c1.455-2.44 3.637-4.622 6.162-5.264 2.776-.705 4.92-1.027 6.419-2.268 1.24-1.027 1.37-2.481.813-2.696-.556-.214-2.182.086-3.21.343-1.026.256-1.797.941-1.797.941s-.085-.941.086-1.326.128-.6-.043-1.199-.043-1.155-.043-1.155c1.883.171 3.638-.043 4.194-.727s.086-2.311-.642-2.867c-.727-.557-2.31-.343-3.295-.043-.984.3-2.225 1.027-2.225 1.027-1.156-1.84-1.027-2.867-1.027-2.867-1.284-.985-.6-1.755 1.112-2.825a30.772 30.772 0 0 1 3.467-1.84c1.198-2.61 3.765-2.439 6.247-2.353 2.482.085 3.252.042 3.595-.428.342-.471.385-1.541.385-1.541 1.626 1.37.642 2.653-.684 3.38s-2.354 2.354-2.226 3.167c.129.813.6.9.6.9.17-2.098 2.866-4.024 5.306-4.066s4.065 1.198 4.065 1.198c-.513 2.61-3.252 3.723-4.28 3.167-.866-.47-1.027-1.883-1.027-1.883s-.256.17-.256 1.24 1.882 2.954 4.28 1.627c0 0 .94.642 1.668 2.054s.642 3.38.171 5.263c-.47 1.883-.342 3.552.514 4.323s2.439.342 2.439.342-.027 1.3-1.198 2.011c-1.412.856-3.338-.128-3.338-.128s-1.027 1.412-1.198 3.295 1.412 3.124 2.953 3.167c0 0-.643.965-2.311 1.07-2.054.127-3.595-1.97-3.595-1.97s-.428.9-.6 2.954 1.627 3.85 1.627 3.85-.385 1.07-2.61 2.012-2.525.942-2.525.942-2.097-1.883-2.953-3.381c0 0-.47 1.669-.214 3.723 0 0-3.627.205-5.905-.9-2.739-1.325-4.964-2.78-6.933-3.422-1.727-.563-3.894-.129-3.894-.129m15.79-27.73s-1.668-.085-2.481-.042-1.584.642-1.84 1.284c0 0 .727 1.027 1.754 1.07s2.525-.77 2.568-2.311"/><path d="m93.483 37.787s-.133.318-1.284.428c-.898.085-2.524.514-4.15 1.284s-3.552.941-4.622.043-.942-2.269-.856-3.296c0 0 1.027 1.456 2.439 1.884 1.362.412 2.097.213 3.51-.129s3.508-.385 4.963-.214m-11.725 13.908s.3-1.198 1.37-2.91 3.208-2.781 3.208-2.781-3.252-.77-5.135-1.541c-1.882-.77-4.236-2.054-5.177-3.723 0 0 .128-1.37-.6-2.054-.727-.685-1.968-.514-1.968-.514s.085-.599.514-1.155.47-1.712-1.199-2.311c0 0 .214.685.129 1.198s-.343 1.07-1.113 1.113c0 0 .214-1.626-.513-2.268s-1.798-.557-2.611.043c0 0 .728.213 1.241.684.514.471.3 1.626.3 1.626s-.514-.427-1.412-.727-2.055.599-2.269 1.412c0 0 .557-.128 1.113-.128.557 0 1.241.813 1.54 1.412 0 0-.342 2.097 1.327 2.567 0 0-.47.642-.599 1.498-.128.856.557 2.011.557 2.011s.3-1.412.812-1.797c.514-.385 1.37-.086 1.884.428s.684 1.156.299 2.011c-.385.856.385 2.183.813 2.696 0 0 .171-1.07.642-1.412s1.027-.257 2.44.813 4.407 3.809 4.407 3.809m42.836 58.626s-.857 1.455-2.868 1.497c-1.198.026-2.439-1.198-2.439-1.198-1.155.343-1.498 1.241-1.07 2.182.428.942 1.755 1.927 1.755 1.927s-1.498 0-2.996-.6c-1.497-.599-1.24-1.797-1.24-1.797s-1.07.514-1.884.899c-.813.385-2.14.214-3.08-.3s-2.098-.342-2.996.385c-.9.728-.728 1.883-.728 1.883-1.07-.727-1.583-2.61-.813-3.68s2.225-1.327 2.225-1.327c-.599-.941-1.669-1.112-2.567-.727-.899.385-1.37.898-1.37.898s-.342-1.112.386-2.225c.727-1.112 1.968-1.326 2.995-1.112 1.09.227 1.626.812 1.626.812s.129-1.326-.77-2.139c-.699-.632-1.712-.3-1.712-.3.429-1.112 2.525-1.754 3.467-1.155s1.283 1.712 2.267 1.926 3.039 0 3.039 0 .171-2.012-1.07-4.921-3.081-4.194-5.52-5.264-5.007-1.54-6.291-2.696c-1.283-1.155-1.669-2.61-1.669-2.61-.47.899-1.968 1.754-3.723.856s-1.455-2.226-1.455-2.226.428 1.07 2.14.685 3.51-2.61 3.809-6.376-1.67-6.761-4.066-9.243-5.306-3.98-8.601-5.05-6.762-.085-8.559.514-3.166 1.54-3.166 1.54c.385.6 1.455.557 1.455.557-1.37 1.155-2.311.856-3.253.385-.941-.471-1.369-.172-2.695.685s-1.37 1.583-1.327 2.14c.043.556.898 1.197.898 1.197s-.77.214-1.583-.128-1.112-1.198-1.112-1.198c-1.07.599-2.012.214-2.568.085-.556-.128-1.54-.17-2.14.129-.599.3-.684 1.326-.684 1.326-.642-.727-.685-1.84-.172-2.482.514-.642 1.242-.856 1.242-.856s-.385-.556-1.199-.599c-.813-.042-1.283.642-1.283.642-.728-1.113.641-2.353 1.497-2.353s1.67.77 1.67.77.384-.984-.172-1.455-1.412-.3-1.412-.3.599-.898 1.412-.984c.813-.085 1.669.942 2.054 1.669s1.241.086 3.552-1.455 5.563-3.894 8.858-6.205 5.478-1.797 7.574-.77c2.097 1.027 5.35 3.38 9.714 3.637 4.365.257 7.018-1.283 7.018-1.283s2.311 1.497 4.365 5.434 2.996 9.757 2.996 9.757 2.524 1.07 4.835.941 4.108-.642 4.75-3.123-1.112-5.735-3.252-7.917-4.45-5.007-4.75-7.831 1.113-5.692 3.38-7.147 4.194-1.326 8.43-1.326 5.82.77 7.618-2.953c0 0 .342.813.557 2.782.213 1.968-1.076 4.202-3.638 4.407-2.14.172-4.023-.599-4.023-.599s.385.385.985 1.54c.599 1.156-.086 3.638-.086 3.638s-.984-2.953-3.295-4.407-5.178-1.413-6.676.128c-1.497 1.54-1.326 4.75.214 6.761s5.478 5.82 7.018 8.944c1.413 2.866 1.123 7.288-2.182 9.756-3.552 2.654-9.158 1.456-9.158 1.456s.385 3.337 1.84 5.006c1.455 1.67 3.852 2.696 5.52 2.182 1.67-.513 1.498-2.952 1.498-2.952s.576.297.813 1.84c.257 1.67-.684 3.51-3.08 3.851 0 0 .2.19.855 1.028.77.984 1.37 3.295 1.07 6.119s-.728 5.648-.428 6.804c.3 1.155 1.155 1.711 3.423 1.669"/><path d="m71.488 105.442c-1.156-1.198-1.113-2.995-.428-3.85.684-.857 2.054-1.285 2.054-1.285s-1.159-.714-2.14-.642c-1.155.086-1.84.813-1.84.813-.3-2.824 2.054-3.423 3.124-3.166s1.754.813 1.754.813.343-1.07-.513-1.883-1.84-.6-1.84-.6c.342-.855 1.669-1.497 2.653-1.197s1.968 1.712 2.44 2.439c.47.727 1.582.428 3.294-.6s2.782-1.968 2.824-2.396-.941-.941-2.14-3.123c-1.197-2.183-.94-4.066-.94-4.066s-2.055.685-2.868-.257-.77-2.396-.77-2.396c.899 1.07 1.669 1.07 3.851-.642 2.182-1.711 3.98-3.594 6.719-5.606 2.739-2.011 6.205-2.182 8.601-1.07s3.466 2.183 3.466 2.183-.79.086-.856 1.712c-.085 2.097 2.012 2.396 2.012 2.396s-2.996 1.326-6.334 2.653c-3.337 1.327-5.391 2.183-5.563 4.793-.17 2.61.6 5.52 1.413 6.719.812 1.198 1.882 1.497 2.952 1.412 0 0-1.326 1.668-2.867 1.412-1.54-.257-2.353-1.027-3.081-1.07s-2.396.642-3.595 1.754-1.198 2.354-.77 3.21 1.327 1.198 1.327 1.198-3.552.556-4.066-1.926c0 0-.47-.128-.856.343-.384.47-1.454.385-2.439-.128-.984-.514-2.876-.511-3.466-.086-1.07.77-1.113 2.14-1.113 2.14m-3.427 42.256h-6.34v11.083h-6.58v-33.056h12.585q11.442 0 11.442 10.888-.001 6.467-4.768 9.528l4.624 12.64h-7.198zm4.385-10.987q0-2.43-1.216-3.84c-.81-.94-1.979-1.41-3.503-1.41h-6.007v10.5h6.102q2.335 0 3.48-1.457 1.143-1.458 1.144-3.793m31.252 22.07-5.435-13.173-4.386.485v12.688h-6.578v-33.056h6.578v14.535l4.386-.487 5.34-14.048h7.483l-7.055 16.577 7.247 16.479zm34.64-6.043.143 5.494q-5.053 1.117-9.438 1.118-3.72-.001-6.15-1.02-2.432-1.022-3.814-3.258-1.382-2.235-1.907-5.25-.525-3.014-.525-7.584 0-9.576 2.646-13.343 2.645-3.768 9.75-3.769c2.733 0 5.894.439 9.486 1.313l-.19 5.348q-4.72-.73-8.343-.73c-1.75 0-3.067.285-3.957.852q-1.335.85-1.979 3.232-.644 2.383-.643 7.097c0 4.505.436 7.495 1.31 8.969.875 1.475 2.693 2.212 5.46 2.212q3.718 0 8.151-.68m-82.147 18.452h2.194l1.27 9.043h.227l1.845-9.043h2.421l1.845 9.043h.227l1.27-9.043h2.195l-1.967 10.942h-3.162l-1.618-8.319-1.619 8.319h-3.161zm15.33 10.942 2.315-10.942h3.963l2.315 10.942h-2.088l-.408-1.98h-3.6l-.41 1.98zm3.934-9.107-1.044 5.197h2.813l-1.044-5.197zm6.744 9.107 2.315-10.942h3.963l2.314 10.942h-2.087l-.408-1.98h-3.6l-.41 1.98zm3.933-9.107-1.043 5.197h2.812l-1.044-5.197zm13.455 9.107h-5.854v-10.942h2.088v8.979h3.766zm1.358-10.942h2.193l1.27 9.043h.228l1.845-9.043h2.42l1.846 9.043h.227l1.27-9.043h2.194l-1.966 10.942h-3.162l-1.619-8.319-1.618 8.319h-3.162zm16.473 10.942v-10.942h2.088v10.942zm8.286-10.942.015 9.091q0 1.754-.734 2.366-.734.61-2.503.61v-1.93q.605 0 .877-.241t.272-.9v-8.996zm8.956 10.942-1.724-4.36-1.392.16v4.2h-2.087v-10.942h2.087v4.811l1.392-.16 1.694-4.65h2.375l-2.239 5.486 2.3 5.455z"/></g></svg>