<svg xmlns="http://www.w3.org/2000/svg" viewBox="0 0 62.95 79.81"><g fill="none"><path fill="#E30621" d="M31.283 2.573A54.9 54.9 0 0 0 12.5 5.693a47.4 47.4 0 0 1-9.81 2.092l.755 12.932c1.66 1.519 1.66 2.2 1.892 4.98s1.66 27.199 1.66 27.199c.373 8.748.174 12.65 3.395 15.894 2.946 2.964 7.553 3.379 7.553 3.379a33.8 33.8 0 0 1 6.98.996c2.971.83 5.511 4.091 5.511 4.091h2.034s2.49-3.278 5.486-4.091a34 34 0 0 1 6.98-.996s4.607-.415 7.545-3.379c3.229-3.253 3.021-7.146 3.395-15.894 0 0 1.46-24.485 1.66-27.2.249-2.863.19-3.427 1.884-4.98l.755-12.93a47.4 47.4 0 0 1-9.736-2.092 54.9 54.9 0 0 0-18.774-3.121z"/><path fill="#B20A31" d="M13.338 8.117a52.5 52.5 0 0 1 17.945-2.98h.381a52.48 52.48 0 0 1 17.945 2.98 46.3 46.3 0 0 0 7.968 1.91c-.166 2.88-.481 8.2-.556 9.553-1.51 1.618-1.66 2.921-1.892 5.328l-.05.532c-.24 2.714-1.66 26.269-1.702 27.273l-.1 2.324c-.273 7.006-.406 9.711-2.556 11.878s-5.677 2.63-5.901 2.656a36 36 0 0 0-7.47 1.087 13.55 13.55 0 0 0-5.81 3.851 13.7 13.7 0 0 0-5.851-3.851 36 36 0 0 0-7.47-1.087c-.258 0-3.777-.457-5.935-2.631S9.96 62.05 9.669 55.037l-.09-2.257c-.067-1.063-1.462-24.626-1.71-27.349l-.05-.564c-.191-2.2-.349-3.577-1.893-5.287-.083-1.345-.39-6.64-.556-9.554a46.3 46.3 0 0 0 7.968-1.909M31.283 0A57.4 57.4 0 0 0 11.67 3.262a45 45 0 0 1-9.18 1.975L0 5.453l.141 2.49.83 13.994.83.705c.83.73.83.73.988 2.681l.05.581c.24 2.64 1.66 26.867 1.66 27.116l.09 2.2c.283 7.246.416 11.703 4.051 15.363s8.898 4.1 9.13 4.15h.158c2.153.085 4.292.391 6.383.913 1.734.473 3.643 2.49 4.15 3.196l.763.97h4.507l.772-.987c.523-.68 2.424-2.714 4.15-3.187a31.5 31.5 0 0 1 6.383-.913h.157c.225 0 5.57-.54 9.13-4.15s3.777-8.068 4.043-15.314l.09-2.29c0-.2 1.462-24.436 1.66-27.083l.05-.548c.167-1.967.167-1.967.997-2.706l.83-.705.954-16.476-2.49-.224a45 45 0 0 1-9.213-1.959A57.4 57.4 0 0 0 31.664 0z"/><path fill="#E30621" d="M31.283 2.573A54.9 54.9 0 0 0 12.5 5.693a47.4 47.4 0 0 1-9.81 2.092l.755 12.932c1.66 1.519 1.66 2.2 1.892 4.98s1.66 27.199 1.66 27.199c.373 8.748.174 12.65 3.395 15.894 2.946 2.964 7.553 3.379 7.553 3.379a33.8 33.8 0 0 1 6.98.996c2.971.83 5.511 4.091 5.511 4.091h2.034s2.49-3.278 5.486-4.091a34 34 0 0 1 6.98-.996s4.607-.415 7.545-3.379c3.229-3.253 3.021-7.146 3.395-15.894 0 0 1.46-24.485 1.66-27.2.249-2.863.19-3.427 1.884-4.98l.755-12.93a47.4 47.4 0 0 1-9.736-2.092 54.9 54.9 0 0 0-18.774-3.121z"/><path fill="#FEFEFE" d="M12.757 6.433a54.2 54.2 0 0 1 18.526-3.08h.381a54.1 54.1 0 0 1 18.526 3.08 46.7 46.7 0 0 0 9.255 2.05c-.075 1.286-.664 11.33-.698 11.877-1.568 1.477-1.66 2.349-1.859 4.698l-.05.54c-.232 2.688-1.66 26.219-1.66 27.223l-.09 2.316c-.275 6.872-.366 10.333-3.08 13.072-2.714 2.74-7.03 3.146-7.072 3.154-2.4.089-4.785.43-7.113 1.021-2.69.739-4.938 3.212-5.652 4.059h-1.337c-.722-.83-2.988-3.32-5.668-4.059a34 34 0 0 0-7.172-1.029s-4.316-.431-7.013-3.146-2.806-6.225-3.08-13.172l-.09-2.249c-.059-1.013-1.453-24.543-1.66-27.232l-.05-.565c-.191-2.2-.3-3.179-1.851-4.656 0-.548-.623-10.6-.698-11.886a46.6 46.6 0 0 0 9.205-2.016m18.526-4.648a55.6 55.6 0 0 0-19.032 3.17 47 47 0 0 1-9.636 2.05l-.756.067.83 14.018.24.216c1.337 1.204 1.379 1.61 1.578 3.851l.05.573c.249 2.664 1.66 26.925 1.66 27.174l.091 2.233c.332 7.171.423 11.006 3.569 14.176s7.835 3.586 8.026 3.603c2.31.086 4.605.411 6.848.97 2.68.74 5.08 3.785 5.104 3.819l.232.298h2.79l.232-.298s2.398-3.08 5.08-3.818a33.3 33.3 0 0 1 6.797-.971c.249 0 4.98-.474 8.084-3.611s3.254-6.989 3.536-14.11l.091-2.3c0-.231 1.461-24.492 1.66-27.165l.05-.54c.2-2.365.224-2.672 1.585-3.884l.241-.216.83-14.018-.755-.067a47 47 0 0 1-9.628-2.05 55.6 55.6 0 0 0-19.015-3.17z"/><path fill="#FEFEFE" d="M25.348 63.976v3.66a.324.324 0 0 0 .34.374h.474v.648h-2.988v-.648h.506a.324.324 0 0 0 .34-.373v-2.39h-.83v-.648h.191a.93.93 0 0 0 .963-.623zm2.98 1.378c0 .598.24.83.63.83s.632-.274.632-.83-.241-.871-.631-.871-.631.282-.631.871m1.353 1.137c-.334.256-.75.38-1.17.349a1.403 1.403 0 0 1-1.586-1.42c0-1.095.971-1.56 1.959-1.56a2.075 2.075 0 0 1 2.216 2.25c0 1.585-.83 2.656-2.382 2.656-.614 0-1.577-.208-1.577-.98a.614.614 0 0 1 .664-.672c.423 0 .689.224.689.506a.45.45 0 0 1-.299.457.7.7 0 0 0 .39.116c.83 0 1.112-.573 1.112-1.444zm3.735.789c0 .597.24.83.63.83s.631-.274.631-.83-.24-.872-.647-.872-.63.274-.63.872zm-.083-1.146c.34-.24.756-.349 1.17-.307a1.436 1.436 0 0 1 1.577 1.411c0 1.096-.963 1.56-1.95 1.56a2 2 0 0 1-2.217-2.249c0-1.585.723-2.656 2.4-2.656.605 0 1.568.308 1.568.98 0 .481-.274.672-.764.672a.556.556 0 0 1-.597-.514.45.45 0 0 1 .298-.457.67.67 0 0 0-.39-.116c-.83 0-1.112.573-1.112 1.286zm4.017-2.274q.797.122 1.602.116c.531 0 1.452-.116 1.593-.116a.133.133 0 0 1 .142.141c0 .556-1.054.955-2.034.955a2.034 2.034 0 0 1-.705-.108v.705c.303-.18.651-.269 1.004-.257a1.735 1.735 0 0 1 1.959 1.718c0 1.204-1.005 1.76-2.084 1.76-.83 0-1.917-.282-1.917-1.32a.72.72 0 0 1 .73-.747.606.606 0 0 1 .681.623.556.556 0 0 1-.597.54.99.99 0 0 0 .68.29c.78 0 1.096-.432 1.096-1.179 0-.573-.258-.996-.88-.996a.83.83 0 0 0-.689.307h-.739zM6.64 57.386c4.15 6.64 10.134 13.197 19.92 16.21l-.672-.988C16.334 68.774 10.79 62.242 6.88 56.083zm.59-41.002l-.208-.639.448-.141a.274.274 0 0 0 .183-.407l-.947-2.938a.274.274 0 0 0-.373-.2l-.448.15-.208-.639 4.798-1.56.597 1.867-.672.216c-.332-1.046-.83-1.079-1.718-.78l-.714.232.44 1.395.224-.075c.407-.133.506-.373.415-.68l-.091-.308.597-.19.697 2.199-.597.19-.091-.281c-.1-.307-.316-.44-.73-.307l-.225.074.39 1.22a.274.274 0 0 0 .374.2l.448-.15.207.64zm5.295-2.191a.647.647 0 0 1-.44.78.63.63 0 0 1-.78-.44.633.633 0 1 1 1.22-.34m3.643-5.636l.664-.15.449 2.034-.69.158a1.286 1.286 0 0 0-1.568-1.137c-.83.183-1.137.88-.83 2.208.257 1.178.714 1.867 1.751 1.66a1.26 1.26 0 0 0 .897-1.61l.689-.158c.282 1.378-.374 2.224-1.752 2.49a2.49 2.49 0 0 1-3.195-2.042 2.53 2.53 0 0 1 1.934-3.187 2.73 2.73 0 0 1 1.593.166zm3.437 4.101a.64.64 0 0 1-.995.624.636.636 0 1 1 .995-.625m1.502-2.897l-.2-1.933 4.98-.523.2 1.934-.697.075c-.083-.772-.357-1.237-1.229-1.146l.349 3.395a.274.274 0 0 0 .324.274l.456-.05.067.672-2.93.307-.017-.672.473-.05a.274.274 0 0 0 .257-.332l-.348-3.394c-.83.09-1.046.597-.963 1.377zm5.453-2.547h2.3v.672h-.208c-.15 0-.225.042-.225.2q.034.211.108.414l.78 2.548.631-2.357-.14-.448c-.084-.25-.208-.398-.4-.398h-.157V7.17h2.416v.673h-.34c-.15 0-.225.041-.225.199q.033.212.108.415l.689 2.49.59-2.49q.062-.22.074-.448c0-.108-.125-.166-.2-.166h-.34V7.12h1.868v.606h-.091c-.233 0-.407.108-.523.565l-.905 3.892h-1.403l-.614-2.124-.573 2.141h-1.41l-1.071-3.586c-.175-.597-.34-.83-.573-.78h-.1zm8.624.971a.274.274 0 0 0-.274-.324h-.473l.05-.672 5.03.357-.134 1.934-.697-.092c.075-1.095-.34-1.294-1.303-1.36l-.747-.05-.116 1.46h.232c.44 0 .606-.133.648-.606v-.166l.63.042-.149 2.34-.63-.05v-.182c0-.282-.059-.64-.333-.656h-.456l-.108 1.586.921.066c.83.058 1.229-.083 1.312-1.311l.705.05-.14 2.066-5.022-.357.05-.672h.456a.274.274 0 0 0 .315-.282zm9.088 3.527l.374-2.49a.274.274 0 0 0-.25-.348l-.406-.067.1-.664 2.307.349-.1.664-.448-.066a.274.274 0 0 0-.34.257l-.606 4.042-1.519-.232-1.552-4.043-.423 2.764a.274.274 0 0 0 .249.349l.456.066-.1.664L39.7 12.6l.1-.664.456.067a.274.274 0 0 0 .34-.257l.465-3.08a.274.274 0 0 0-.249-.348l-.465-.075.1-.664 2.415.365zM46.48 10.5l.432-1.893 4.905 1.137-.432 1.893-.755-.158c.174-.764.058-1.287-.83-1.486l-.764 3.32a.274.274 0 0 0 .216.365l.44.1-.15.656-2.871-.664.15-.656.456.108a.274.274 0 0 0 .357-.232l.763-3.32c-.83-.2-1.178.224-1.353.987zm6.366.547a.274.274 0 0 0-.19-.381l-.449-.142.2-.639 4.813 1.52-.572 1.85-.673-.216c.332-1.045 0-1.336-.954-1.66l-.714-.224-.432 1.395.224.074c.424.133.623 0 .764-.44l.05-.157.597.19-.73 2.258-.598-.19.058-.175c.084-.266.092-.64-.174-.722l-.431-.141-.474 1.519.88.282c.764.24 1.212.207 1.577-.963l.673.216-.615 1.975-4.805-1.519.199-.639.44.141a.274.274 0 0 0 .373-.199zM48.14 21.165l4.54-4.017-1.22-.24-4.034 3.593q.35.313.664.664M33.748 57.527l-.125.905a75.7 75.7 0 0 0 13.338 4.582q.183-.39.349-.78a74 74 0 0 1-13.562-4.707m-4.872-2.557a54 54 0 0 1-4.308-2.788c-.1.259-.25.495-.44.697l-.058.083a54 54 0 0 0 4.15 2.665c.18-.254.402-.476.656-.656"/><path fill="#FEFEFE" d="M50.43 48.48l-.074-.083c-.266.141-.59.258-.59.15h-.074a29 29 0 0 1-2.382 13.67l.49.124-.29.83-.549-.14a34.1 34.1 0 0 1-6.183 9.13l.68.647c10.002-10.716 9.38-22.244 9.172-24.477l-.1.091z"/><path fill="#FEFEFE" d="M47.8 62.35l-.49-.133q-.165.39-.349.78l.548.141zm8.806-20.593a1568 1568 0 0 1-6.64 5.91l.324.05.382.058v.39s-.042.066-.108.116v.083c2.349-2.083 4.29-3.81 5.926-5.27z"/><path fill="#FEFEFE" d="M50.348 48.397l.1.108.082-.074.1-.034v-.108q-.141.104-.299.183m-.647.058c0-.2 0-.315-.042-.324l.432-.124-.274-.307.066-.058.092-.083a33 33 0 0 1-6.906-1.86 7 7 0 0 1-.423.83c2.27.897 4.63 1.546 7.038 1.934m-26.709-25.24a42 42 0 0 1-1.743-6.3l-.141.166-.706-.614.125-.15a35.5 35.5 0 0 0-16.534 4.2v1.08c3.785-2.192 9.13-4.092 16.384-4.325a44 44 0 0 0 1.876 6.64q.349-.36.739-.672"/><path fill="#FEFEFE" d="M21.082 17.164l.141-.166v-.207l-.058-.407h-.664l-.125.15zm28.56 31.076s0 .157.042.423h.075c0 .133.34 0 .614-.2l-.282-.406z"/><path fill="#FEFEFE" d="M49.8 47.808l.266.365.464-.157s0 .14.042.373c.058-.058.108-.108.108-.141v-.473l-.382-.067-.324-.066-.091.1z"/><path fill="#FEFEFE" d="M50.074 48.123l.357.407q.156-.08.299-.182c0-.241-.05-.382-.05-.399zm-34.677-4.448l-.291-.349q.124.193.29.349"/><path fill="#E30621" d="M15.397 43.675l-.291-.349q.124.193.29.349"/><path fill="#FEFEFE" d="M14.35 42.363c-.265-.348-.522-.697-.78-1.037.171.405.44.761.78 1.037"/><path fill="#FEFEFE" d="M15.33 43.592a1.4 1.4 0 0 1-.224-.274q-.39-.482-.755-.963c-.266-.349-.523-.697-.78-1.038a49 49 0 0 1-1.893-2.805c-5.486-8.806-5.81-15.305-5.81-15.38l-1.162-1.17c0 .324.515 7.976 6.109 16.982a47.8 47.8 0 0 0 8.98 10.624 3.4 3.4 0 0 1 .25-.756v-.058l.066-.124a47.4 47.4 0 0 1-4.822-5.038"/><path fill="#FEFEFE" d="M25.73 50.107c1.74.204 3.461.549 5.146 1.03.664.223 1.12-.706 1.519-1.113s.05-1.062-.531-2.374a22 22 0 0 1-1.03-3.137 2.1 2.1 0 0 0-1.12-.382c-.523 0-.83-.174-.93-.116-.406.174-.083 1.187 0 1.826q.384 1.291.598 2.623c-.083.423-.407.556-.83.655a15.7 15.7 0 0 1-2.54-.249s-2.083-.448-3.32-.58a1.47 1.47 0 0 0-1.66 1.037q-.239.706-.332 1.444c-.05.274-.133.349-.58 1.179a1.9 1.9 0 0 0-.308 1.32c0 .224.058.257.266.373.207.116.365-.05 1.37-.54 1.003-.49 1.41-.713 1.394-.896a.76.76 0 0 0-.141-.365 3 3 0 0 1-.449-.606.2.2 0 0 1 0-.1l.523.133a.647.647 0 0 1 .498.83c.623-.68 0-1.162-.481-1.41.15 0 .315-.076.473-.117a.515.515 0 0 1 .656.382c.19-.88-.83-.83-1.137-.772l.282-.2a12.2 12.2 0 0 1 2.68.109m6.134-32.37c-.215.157-.166-.108-.166-.108s.191-.78.424-.88.572 1.286.572 1.286-.406-.606-.83-.298m-.888 2.73c0 .224-.083.69-.365.83a.764.764 0 0 1-.963-.207l-1.062.639a7.5 7.5 0 0 1 1.983-1.66c.34-.125.83.373.83.373l-.464.075m-5.437 3.727c-.15.066-.34-.191-.207-.266q.196-.097.406-.166a.357.357 0 0 1-.199.432M44.82 43.06c2.316-.771.282-2.357 1.27-4.042 1.311-2.24 2.797-.722 2.88-4.316a3.13 3.13 0 0 1 .83-2.656c1.42-1.602-.29-5.096-.29-5.096s.58 3.096-1.071 4.059a3.05 3.05 0 0 0-1.47 2.63c-.116 1.014-.14 1.072-.14 1.072a8 8 0 0 0-.067-1.818 6.64 6.64 0 0 1 0-2.988c.258-1.212 1.12-2.366 1.785-4.416s-1.86-4.15-1.86-4.15a4.017 4.017 0 0 1-.763 5.478 3.6 3.6 0 0 0-1.386 2.582s-.515-1.229 1.07-3.702c1.702-2.69-1.062-4.623-1.618-5.237-.556-.615.88-.83.83-2.158s-1.66-2.01-1.66-2.01c.404.583.687 1.24.83 1.935 0 1.162-.59 1.079-.59 1.079-.622 0-.713-.772-.713-.772s-.407.614.963 2.49-.258 4.582-.258 4.582c-.14-2.49-.93-3.32-.93-3.32s.507 1.095-.83 4.448c-.962 2.573-.066 3.096.823 4.233 3.012 3.785 2.448 5.536 2.116 5.81a.705.705 0 0 1-.996-.05c-.996-.713-.307-2.738-.598-3.726a2.17 2.17 0 0 0-1.477-1.478h-.058a2.7 2.7 0 0 0-.598-.116q.292.231.532.515c.143.177.245.384.298.606q.006.09 0 .182a8.7 8.7 0 0 1-.074 2.026c-.216 2.05-.332 2.365 1.186 3.76 2.075 1.917.548 3.95-.315 4.15v-.324c-.506-2.274-3.22-3.08-4.49-3.478-1.66-.531-4.84-5.536-4.84-5.536a2.06 2.06 0 0 1-.323-1.594c.175.47.527.85.98 1.063.589.29 1.27-.216 2.166-.2.896.017.83 1.295.83 1.295l.19-.83c.39-1.867-1.518-1.303-2.49-1.56-.97-.257.175-1.527.175-1.527a1.66 1.66 0 0 0 2.332.523 1.66 1.66 0 0 1-1.311-1.17c-.274-1.113.764-.598.764-.598.56.14.993.582 1.12 1.145a1.66 1.66 0 0 0 2.357 1.03c-1.494 0-1.444-1.66-1.444-1.66-.299-1.835-.59-1.835-1.17-2.275-.581-.44-.399-1.51.49-1.344a1.02 1.02 0 0 1 .995 1.037c.045.58.539 1.024 1.121 1.004-.606-.365-.324-1.842-.324-1.842.092-1.386-.697-1.527-1.07-1.61-2.009-.44-1.179-2.084-1.179-2.084 1.203 1.66 2.847.299 2.847.299-1.129.382-1.312 0-1.569-1.253a2.6 2.6 0 0 0-1.81-1.81q.119-.071.225-.157c1.967-1.61 2.714.34 2.714.34 0-2.673-2.332-2.183-3.478-1.776-1.145.406-1.419-1.826-3.577-1.204h-.066c-.241-.514-.498-.93-.706-.83-.316.413-.54.888-.656 1.395l-.24.124a4 4 0 0 0-.565.216c-.116-.332-.34-.921-.498-.83a5 5 0 0 0-.53 1.452 10 10 0 0 0-1.603 1.52 6.9 6.9 0 0 1-1.004 1.66c-.498.514-1.884 1.867-2.017 1.991s-.373.241-.83.615c-.456.373 0 .83.19 1.352.192.523.623.972 1.113.83.614-.132.457-.315.955-.614s1.012-.24 2.265-.24a6.07 6.07 0 0 0 3.213-1.403c.42-.677.682-1.44.763-2.233 0 0 0 .382-.108.93a3.17 3.17 0 0 1-.456 1.66 10.3 10.3 0 0 1-2.797 1.66c-.523.166-1.95-.083-2.374.041a2.694 2.694 0 0 0-.921.69l-2.582 1.66c-2.19 1.991-1.983 3.402-1.983 3.402l.423-.174c-.697 1.203-2.324.988-3.254.98-.93-.01-2.606-.125-2.606-.125-1.228.664-1.095 1.02-.921 1.436.083.55.083 1.11 0 1.66 0 0-.349 1.967-.507 3.967-.157 2 .947 2.141 1.229 2.407s.224.465.357.772.299.066.606.2q.516.3.97.688s.275-.124.416-.714a4.9 4.9 0 0 0-.24-1.768l-.217.133c-.216.133-.315.125-.672.058-.357-.066-.382-.373-.44-.98a2 2 0 0 0-.075-.34c.125-.074.25-.157.374-.24a.48.48 0 0 1 .689.124c-.075-.523-.465-.547-.83-.464l.224-.332a.44.44 0 0 1 .68-.083c-.48-.988-1.303.124-1.303.124a.4.4 0 0 1-.315.1l-.05-.067c-.232-.315-.199-.83-.199-1.552.05-.858.249-1.7.59-2.49.232-.431 1.128-.772 1.128-.772a10 10 0 0 1 3.702.299q1.119.454 2.282.772c5.188.971 5.337-2.49 5.337-2.49.739 4.88-6.972 3.154-6.972 3.154.286.857.75 1.643 1.361 2.307 4.05 5.495 6.408 5.23 6.408 5.23 1.262-.059 1.486.29 1.486.29a.8.8 0 0 0 .158-.34c.373-3.27 2.946-2.864 2.946-2.864-3.967 1.726-1.76 5.81-1.76 5.81.5 1.544 1.11 3.05 1.826 4.507a1.02 1.02 0 0 1-.415 1.278l-.207.266a34.5 34.5 0 0 1-3.619 3.32c-1.336.705-.88 1.585-.73 2.29.167.54.45 1.035.83 1.453v.498c0 .896 1.062 1.826 1.062 1.826a13.75 13.75 0 0 0 1.162-2.067c.374-.921.058-.83-.2-.83a3.4 3.4 0 0 1-.962-.182c-.423-.141-.431-.34-.1-.68a.512.512 0 0 1 .366-.067c.24.05.83 0 .738-.432a.5.5 0 0 1-.664.116H31.3a.7.7 0 0 1 .482-.265c.307 0 1.054-.274.83-.83a.656.656 0 0 1-.789.365 1.8 1.8 0 0 0-.606-.075c.058-.199.133-.44.224-.705.216-.614 2.341-2.05 3.719-2.706s1.037-1.577 1.037-1.577c.208-2.88 1.66-3.61 1.66-3.61 2.557-1.104 3.378-1.038 4.192-3.022a6.2 6.2 0 0 0 .398-1.41s.415-.358 1.843.298c2.216 1.013 4.913.058 4.25-1.876-1.262-3.685 1.07-4.15 1.07-4.15-2.448-.73-2.905 1.81-2.39 3.594.406 1.403-1.32 1.66-1.91 1.71a5.4 5.4 0 0 1-1.834-.075 3 3 0 0 0 1.345-.216M14.716 29.54a6 6 0 0 1-.772-.83c-.05-.083-.05-.1 0-.1a.53.53 0 0 1 .423.075c.2.14.78.348.83-.1a.5.5 0 0 1-.655-.157c-.266-.324-.399-.407-.606-.415.116-.283.295-.536.523-.74.357-.298.83-.754.83-.754a4.55 4.55 0 0 1 2.59-1.461c.83-.067 1.012.548 1.51 2.34a8.6 8.6 0 0 0 1.27 2.79 9 9 0 0 1 .639-1.08c.324-.44 1.037-1.162 1.046-1.245.008-.083 0-.24-1.088-1.328a5.2 5.2 0 0 1-1.502-2.83c-.216-.83-.83-.498-1.295-.473a3.6 3.6 0 0 0-1.129.074c-.572.158-1.452 1.47-1.66 1.66a11 11 0 0 1-2.207 1.528 1.991 1.991 0 0 0-1.237 1.66c.041.282.597 1.535.606 1.66.008.124 0 .257 0 .257.025.554.14 1.1.34 1.618.24.108.938-.722.938-.722.88-.987.78-1.32.623-1.452M32.752 6.134l4.233-3.113.066-.05-.531-.755-.066.05-5.28 3.868h1.57M20.501 16.4h.622l.059.408v.207c1.17-1.378 1.9-2.316 2.49-3.046l-1.262.124a72 72 0 0 1-1.884 2.308"/></g></svg>