<svg xmlns="http://www.w3.org/2000/svg" fill="none" viewBox="0 0 212 103.85"><path fill="#CA0008" d="M73.45 13.9h66.81c3.42 0 6.52 1.96 8.1 5.12 0 0 9.03 18.13 9.09 18.26.22.49.57 1.33.82 2.38l44.55-13.04c-8.67-14.59-24.58-24.39-42.74-24.39H51.93c-27.4 0-49.7 22.3-49.7 49.7 0 11.43 3.89 21.97 10.41 30.38l26.74-7.83c7.79-15.87 27.99-57.02 28.04-57.1 1.38-2.2 3.57-3.47 6.03-3.47z"/><path fill="#fff" d="M51.93 101.62h108.14c27.4 0 49.69-22.29 49.69-49.69 0-9.24-2.54-17.89-6.95-25.31L12.64 82.3c9.1 11.73 23.32 19.31 39.29 19.31"/><path fill="#000" d="M2.23 51.93c0-27.4 22.3-49.7 49.7-49.7h108.14c27.4 0 49.69 22.3 49.69 49.7s-22.29 49.69-49.69 49.69H51.93c-27.4 0-49.7-22.29-49.7-49.69M51.93 0C23.29 0 0 23.29 0 51.93s23.29 51.92 51.93 51.92h108.14c28.64 0 51.93-23.3 51.93-51.92S188.71 0 160.07 0z"/><path fill="#000" d="M125.62 42.7c-.15.32-4.65 9.55-7.5 15.44-2.26-4.76-5.94-12.52-7.75-16.32h14.79c.81 0 .61.56.46.89M78.93 60.75c.76-1.84 2.43-5.93 3.56-8.7 1.13 2.77 2.8 6.86 3.56 8.7zm99.81 19.53-6.52-13.75c-1.32-2.7-3.58-4.19-6.36-4.19h-8.05s-5.4.01-7.04.01c-.55 0-.79-.43-.59-.85l2.11-4.47 5.28-11.17c.71-1.46.96-2.84.96-4.06 0-2.1-.74-3.73-1.09-4.52l-9.09-18.26c-1.58-3.16-4.68-5.12-8.1-5.12H73.44c-2.45 0-4.65 1.26-6.03 3.47-.06.1-31.06 63.25-31.06 63.25-1.51 3.01-.62 5.27.05 6.36 1.36 2.22 3.75 3.01 5.53 3.01h17.59c4.79 0 6.59-3.34 7.54-5.11 2.4-4.21 2.7-4.77 2.96-5.16.19-.3.56-.38 1.3-.38h22.54c.73 0 1.11.08 1.3.38.26.39.56.95 2.96 5.16.95 1.77 2.75 5.11 7.55 5.11h67.01c2.3-.04 4.32-1.18 5.54-3.13 1.26-2.01 1.46-4.54.51-6.6"/><path fill="#fff" d="M89.23 62.98a.25.25 0 0 1-.22.14H75.97a.26.26 0 0 1-.22-.13c-.07-.1-.07-.23-.04-.34l6.52-16.54c.05-.12.15-.2.26-.2s.21.07.25.2l6.53 16.54c.04.11.03.24-.03.34m-4.41-17.7a2.52 2.52 0 0 0-2.34-1.61c-1.03 0-1.95.64-2.33 1.61l-6.52 16.54c-.31.78-.22 1.68.24 2.38.46.72 1.25 1.15 2.1 1.15h13.04c.85 0 1.64-.43 2.1-1.15.45-.7.54-1.58.24-2.36L84.84 45.3zm88.67 38.6c-.21.34-.51.51-.89.52-1.01.02-20.24.02-57.16 0v-.03c-1.12 0-1.84-.97-2.11-1.39-.77-1.23-.93-2.82-.38-3.95l6.35-13.1.04-.02v-.03l10.52-21.73c.79-1.69.73-3.51-.15-4.88-.79-1.24-2.12-1.94-3.65-1.94h-20.29l-8.47-17.85h42.95c1.29 0 2.46.75 3.06 1.96 2.93 5.84 8.58 17.11 8.99 18.03.5 1.13.94 2.38.18 4.09-.97 2.19-6.6 14.02-7.21 15.26-1.25 2.49-1.56 4.75-.43 6.57.83 1.34 2.34 2.49 4.17 2.49l16.86.03c.5 0 .86.07 1.32 1.02l6.48 13.67c.13.29.11.85-.16 1.28m-66.66-44.31h19.23c.77 0 1.4.32 1.77.9.46.73.47 1.74.02 2.72l-9.74 20.1-11.27-23.72zm2.3 44.83h-3.46c-1.03 0-1.46 0-2.68-2.27l-3.17-5.43c-1.15-1.85-3.37-2.95-5.95-2.95H71.36c-2.57 0-4.79 1.1-5.95 2.95l-3.17 5.43c-1.22 2.27-1.65 2.27-2.68 2.27l-17.57-.03c-.32 0-.68-.15-.79-.33a.4.4 0 0 1-.05-.19c0-.18.07-.43.22-.71 1.05-2.07 29.65-60.43 30.86-62.91.4-.63.95-.74 1.23-.74h21.38l22.03 46.39-5.91 12.18c-.88 1.82-.68 4.22.5 6.11.05.08.12.15.18.23h-2.5zm66.56-2.74-6.5-13.71c-.76-1.55-1.81-2.27-3.33-2.27l-16.86-.03c-.93 0-1.89-.7-2.26-1.44-.61-1.2-.36-2.62.53-4.39.62-1.25 6.28-13.15 7.26-15.35 1.22-2.76.26-4.89-.19-5.91-.54-1.19-8.68-17.42-9.03-18.11-.99-1.97-2.93-3.19-5.07-3.19H73.46c-1.27 0-2.43.69-3.18 1.89-.35.71-29.87 60.94-30.91 62.98-.74 1.46-.45 2.49-.08 3.09.63 1.03 1.85 1.39 2.69 1.39l17.57.03c2.38 0 3.36-1.06 4.65-3.44l3.1-5.31c.74-1.19 2.26-1.89 4.05-1.89h22.54c1.79 0 3.31.7 4.05 1.89l3.1 5.31c1.29 2.38 2.26 3.44 4.65 3.44h3.46c41.06.02 62.43.02 63.52 0 1.13-.02 2.13-.59 2.74-1.56.66-1.05.78-2.39.3-3.41"/><path fill="#CA1517" d="M125.16 41.81h-14.79c1.17 2.45 3.11 6.55 4.95 10.43l6.6-1.93c1.94-3.98 3.61-7.41 3.7-7.61.15-.32.35-.89-.46-.89M78.93 60.74h7.11c-.75-1.84-2.43-5.93-3.56-8.7-1.13 2.77-2.8 6.86-3.56 8.7z"/></svg>