<svg xmlns="http://www.w3.org/2000/svg" viewBox="9 6 73 90"><path fill="#fff" d="M9 6.018V60.2C9 79.961 25.373 96 45.5 96S82 79.945 82 60.221l-.018.018c0-.072.018-.127.018-.2V6H9z"/><path fill="#65beec" d="M47.568 38.073h10.464v3.489H47.586v13.144a12 12 0 0 1-2.013.181 12 12 0 0 1-2.14-.2V41.562H33.096v-3.489h10.337v-10.36H11.206v29.9h12.532V47.185h3.5v10.41h13.185a12 12 0 0 1 .181 2.007 12 12 0 0 1-.2 2.133H27.238V72.04h-3.5V61.739H11.224c.671 17.284 14.726 31.223 32.318 32.182v-12.71H33.077v-3.489h10.446V64.577a12 12 0 0 1 2.013-.181 12 12 0 0 1 2.14.2v13.126h10.337v3.489H47.677v12.692c17.519-1.085 31.447-15.024 32.064-32.29H67.354v10.432h-3.5V61.63H50.669a12 12 0 0 1-.181-2.007 12 12 0 0 1 .2-2.133h13.166V47.185h3.5v10.31h12.4v-29.8H47.568z"/><path fill="#0154a1" d="M53.751 67.688a12.1 12.1 0 0 0-6.039-3.092v13.126h10.305a13.9 13.9 0 0 0-3.58-9.347 8 8 0 0 1-.687-.687m-6.038 13.523v12.692a34.3 34.3 0 0 0 10.305-2.242v-10.45zm-14.603 0v10.5a34.3 34.3 0 0 0 10.432 2.206V81.211zm3.58-12.818a13.77 13.77 0 0 0-3.58 9.329h10.414V64.578a12.1 12.1 0 0 0-6.147 3.11c-.217.235-.452.47-.687.705m.67-.706a12 12 0 0 0 3.02-5.948H27.253v10.305a13.94 13.94 0 0 0 9.419-3.652c.235-.235.47-.47.687-.705m-13.642-5.948H11.242a33.1 33.1 0 0 0 2.079 10.305h10.4zM11.206 47.167h12.493v10.432H11.206zm25.141 3.363a13.9 13.9 0 0 0-9.094-3.363v10.414h13.144a12 12 0 0 0-2.73-5.713 13 13 0 0 1-1.32-1.338"/><path fill="#0154a1" d="M37.701 51.885a12 12 0 0 0 5.713 2.8V41.562H33.109a13.82 13.82 0 0 0 3.254 8.967 13.6 13.6 0 0 0 1.338 1.356m-4.592-24.19h10.305v10.36H33.109zm14.477 0h10.432v10.36H47.586zm0 27.011a11.9 11.9 0 0 0 5.822-2.82 15 15 0 0 1 1.32-1.338A13.88 13.88 0 0 0 58 41.562H47.586z"/><path fill="#0154a1" d="M53.443 51.886a11.95 11.95 0 0 0-2.694 5.587h13.126V47.167a13.85 13.85 0 0 0-9.094 3.363 12 12 0 0 0-1.338 1.356m13.967-4.701h12.366V57.49H67.41zm0 24.86h10.269a32.8 32.8 0 0 0 2.079-10.432H67.41zM50.712 61.613a12 12 0 0 0 3.037 6.075c.217.235.452.47.687.687a13.87 13.87 0 0 0 9.419 3.652V61.613z"/><path fill="#e63027" d="M79.795 27.696H11.224V8.441h68.571zm-66.771-4.177H15.2v-4.266h.961c2.176 0 2.956-1.374 2.956-3.327 0-1.356-.435-3.309-2.72-3.309h-3.373zm2.176-9h.562c.87 0 1.106.633 1.106 1.483 0 .723-.2 1.374-1.07 1.374h-.6zm5.005 9h5.477v-2.078h-3.3v-2.5h2.974v-2.075h-2.974v-2.17h3.156v-2.079h-5.332zm12.387-7.123v-.455c0-2.567-1.052-3.544-2.956-3.544-3.065 0-3.192 2.784-3.192 5.587 0 3.29.218 5.731 2.992 5.731 2.684 0 3.246-1.754 3.246-4.1v-.362h-2.086c-.018 1.7-.109 2.784-.907 2.784-.907 0-1-.832-1-4.068 0-2.857.073-3.833.943-3.833.725 0 .871.705.871 2.3h2.086zm3.972 7.123h5.6v-2.078h-3.156l3.156-7.015v-1.809h-5.368v2.079h2.884l-3.119 6.924zm7.6 0h2.412l.889-7.738h.018l.943 7.738h2.394l1.6-10.9h-2.096l-.78 7.756h-.02l-1.034-7.756h-2.013l-.961 7.756h-.018l-.8-7.756h-2.154zm15.288-5.442c0-3.019-.163-5.659-3.246-5.659-2.847 0-3.246 2.206-3.246 5.659s.381 5.659 3.246 5.659c3.065 0 3.246-2.64 3.246-5.659m-4.244 0c0-2.983.127-3.959.979-3.959.87 0 1.016.958 1.016 3.959 0 2.983-.127 3.959-1.016 3.959-.852-.018-.979-.976-.979-3.959m5.368 5.442h5.3v-2.078h-3.152v-8.824h-2.158v10.9zm5.985 0h5.3v-2.078h-3.147v-8.824h-2.158zm5.967 0h5.477v-2.078h-3.3v-2.5h2.974v-2.075h-2.974v-2.17h3.156v-2.079h-5.337z"/></svg>