<svg xmlns="http://www.w3.org/2000/svg" viewBox="342.99 168.4 380.69 463.19"><defs><clipPath id="a"><path d="M0 600h800V0H0z"/></clipPath></defs><g clip-path="url(#a)" transform="matrix(1.33333 0 0 -1.33333 0 800)"><path d="M541.162 257.63c-.897 3.142-2.039 6.228-3.165 8.995-2.079 5.104-83.796 173.224-85.606 176.758-.254.492-.387.757-.635 1.193-2.76 4.772-8.991 14.11-21.675 21.707-4.569 2.734-9.543 4.321-14.129 5.395-4.586 1.06-8.791 1.564-11.748 1.808-1.997.163-3.329.209-4.095.212l-.109-.001-.11.001c-.766-.003-2.098-.049-4.094-.212-2.958-.244-7.163-.748-11.748-1.808-4.587-1.074-9.56-2.661-14.13-5.395-12.683-7.597-18.915-16.935-21.674-21.707-.249-.436-.382-.701-.637-1.193-1.808-3.534-83.525-171.654-85.604-176.758-1.126-2.767-2.268-5.853-3.165-8.995-.887-3.157-1.577-6.308-1.596-9.628.004-1.381.125-2.814.538-4.34 2.686-9.848 8.955-15.941 12.849-19.854.494-.49 98.87-86.763 99.129-86.979.686-.565 1.267-.951 1.998-1.419 2.482-1.561 6.447-3.656 11.35-5.527 4.898-1.844 10.627-3.464 16.673-3.579l.11-.002.111.002.111-.002.109.002c6.046.115 11.776 1.735 16.672 3.579 4.904 1.871 8.87 3.966 11.351 5.527.731.468 1.313.854 1.998 1.419.26.216 98.636 86.489 99.13 86.979 3.894 3.913 10.162 10.006 12.848 19.854.413 1.526.535 2.959.539 4.34-.019 3.32-.709 6.471-1.596 9.628"/><path d="M365.441 239.734l-16.955-16.146a46690 46690 0 0 1-22.215-21.163c-.378-.33-1.186-1.24-2.431-1.283h-.024c-.479 0-1.003.205-1.4.613a2.27 2.27 0 0 0-.699 1.627c.022 1.081.651 1.767.683 1.827l34.984 42.011a62 62 0 0 0-1.533 1.791l-52.179-15.264c-.034-.008-.738-.22-1.547-.222-.356.001-.74.038-1.123.2-.38.154-.778.499-.929.99a1.7 1.7 0 0 0-.087.537c.022.882.608 1.404 1.044 1.728.456.327.871.488.903.504l48.581 19.307c-.119.209-.23.421-.347.63-10.835 4.008-16.678 8.239-18.684 9.497-4.262 2.662-4.369 6.448-4.359 6.703l.001.004c-.02.485-.291 7.393-.293 14.064.005 4.744.128 9.315.612 11.553 1.198 5.293 6.313 7.79 10.958 9.369l-26.158 18.695c-.041.055-.854.555-.898 1.677-.001.287.073.603.231.898.347.726 1.042 1.179 1.699 1.152.776-.017 1.356-.391 1.872-.644.631-.324 20.783-11.061 34.616-18.433a57.2 57.2 0 0 0 11.789 15.142l-14.556 49.558c-.006.034-.317 1.052-.323 2.066.001.343.033.693.171 1.046.128.346.448.736.915.858q.325.093.644.092c1.808-.087 2.598-1.777 3.025-2.659.195-.438 6.039-13.398 11.83-26.235l7.946-17.614a56.7 56.7 0 0 0 17.005 6.587l-.82 20.092c-.185.045-.385.09-.562.137-1.204.317-2.285.744-3.104 1.533-.822.788-1.282 1.937-1.271 3.384q0 .571.088 1.217c.098.751.311 1.364.601 1.867l-.345.074c-1.559.348-2.918.803-3.954 1.644-1.042.838-1.661 2.117-1.647 3.733q.001.636.115 1.355c.165 1.065.56 1.899 1.103 2.499-1.841.424-3.438.982-4.643 1.964-1.26 1.014-2.001 2.54-1.986 4.511q0 .779.14 1.66c.275 1.754 1.041 2.968 2.065 3.669 1.02.704 2.209.895 3.303.897 1.061-.002 2.063-.184 2.815-.327 5.31-1.009 13.113-1.568 19.782-1.572v77.554c-1.781 0-16.74-.623-26.357-6.412-11.412-6.868-16.74-14.959-19.234-19.233-2.493-4.274-81.563-167.758-81.563-167.758s-10.329-19.947-8.192-27.781c2.136-7.836 7.123-12.823 11.041-16.742 3.918-3.917 96.524-84.769 98.661-86.55 1.905-1.587 12.348-7.421 22.416-8.667l-3.872 94.959a56.7 56.7 0 0 0-27.349 11.23" fill="#0a57a4"/><path d="M527.045 273.285s-79.07 163.484-81.564 167.758-7.821 12.365-19.234 19.234c-9.616 5.788-24.575 6.411-26.356 6.411v-77.554l.11-.001c6.693-.001 14.553.559 19.892 1.573.751.143 1.752.325 2.815.325 1.094 0 2.281-.192 3.302-.896 1.024-.702 1.791-1.914 2.065-3.668l-.702-.113.702.11q.139-.877.14-1.657c.016-1.971-.728-3.497-1.985-4.511-1.206-.982-2.802-1.54-4.643-1.964.542-.6.937-1.434 1.103-2.499l-.704-.113.704.112q.114-.717.114-1.354c.014-1.616-.605-2.896-1.647-3.733-1.037-.842-2.395-1.297-3.954-1.644q-.17-.037-.345-.073c.291-.505.503-1.117.603-1.868l-.706-.095.706.091q.085-.639.086-1.213c.01-1.446-.449-2.595-1.273-3.384-.817-.791-1.897-1.216-3.101-1.533-.178-.047-.376-.091-.562-.137l-.82-20.091a56.7 56.7 0 0 0 17.006-6.588l7.945 17.613a36653 36653 0 0 1 11.829 26.236c.426.882 1.216 2.571 3.025 2.659q.32 0 .642-.09c.47-.125.787-.514.915-.86.139-.353.17-.703.173-1.046-.006-1.015-.316-2.032-.322-2.064l-14.556-49.56a57.2 57.2 0 0 0 11.788-15.142 35065 35065 0 0 0 34.615 18.433c.515.253 1.096.626 1.874.644.656.025 1.35-.425 1.7-1.155.153-.292.229-.603.227-.896-.043-1.12-.852-1.62-.899-1.678l-26.154-18.692c4.644-1.579 9.759-4.077 10.956-9.369.485-2.241.608-6.81.611-11.554 0-6.769-.278-13.779-.29-14.082.005-.362-.166-4.069-4.357-6.689-2.006-1.258-7.848-5.487-18.685-9.495-.115-.21-.227-.423-.347-.63l48.58-19.309a4.5 4.5 0 0 0 .905-.504c.434-.324 1.021-.843 1.042-1.728a1.624 1.624 0 0 0-1.015-1.527c-.386-.161-.767-.199-1.122-.2-.812.002-1.514.214-1.549.223l-52.179 15.264a56 56 0 0 0-1.532-1.79l34.984-42.013c.032-.06.66-.746.68-1.826a2.27 2.27 0 0 0-.696-1.628 2 2 0 0 0-1.4-.613h-.025c-1.245.043-2.053.952-2.433 1.286a93677 93677 0 0 1-39.167 37.306 56.7 56.7 0 0 0-27.348-11.23l-3.871-94.929c9.999 1.303 20.303 7.062 22.194 8.637 2.137 1.781 94.743 82.634 98.66 86.551 3.919 3.918 8.906 8.905 11.042 16.741 2.137 7.835-8.192 27.781-8.192 27.781" fill="#f50003"/><path d="M419.893 390.707l.067.012c18.188 17.548-.329 34.592-.329 34.592-1.79-.691-4.658-2.259-4.658-2.259-.229-.982-2.263-2.641-3.265-4.428-1.167-2.083-3.986-8.144-5.267-10.55-1.099-2.062-4.277-9.906-4.277-9.906-2.29.74-3.836-.61-3.836-.61.003 4.869 3.51 10.024 4.626 11.762 1.115 1.737 6.065 8.571 7.166 13.755s1.008 11.203-.031 15.756c-1.04 4.553-2.941 5.67-2.941 5.67.002-4.486-6.643-11.136-7.638-11.944s-6.008-3.704-8.488-5.315c-2.481-1.613-8.297-7.615-10.481-11.746-2.182-4.132-2.413-9.655-1.634-13.22.635-2.913 4.218-9.804 5.507-12.228 4.801-.594 10.528-.915 15.588-.914 6.694-.002 14.553.559 19.891 1.573" fill="#f2c200"/><path d="M384.414 390.047c-1.289 2.424-4.872 9.315-5.508 12.228-.778 3.565-.548 9.088 1.635 13.22 2.184 4.132 8 10.134 10.48 11.746s7.494 4.507 8.489 5.315 7.639 7.458 7.637 11.944c0 0 1.902-1.117 2.942-5.67 1.039-4.553 1.132-10.572.03-15.756s-6.051-12.018-7.166-13.755-4.623-6.893-4.626-11.762c0 0 1.547 1.35 3.836.611 0 0 3.179 7.843 4.277 9.905 1.282 2.407 4.101 8.468 5.268 10.551 1.002 1.786 3.035 3.445 3.265 4.427 4.213 24.705-13.348 30.614-13.348 30.614 1.916-3.584-.83-9.785-2.464-12.437-1.635-2.653-15.824-12.635-18.705-15.272-2.882-2.637-8.302-9.162-8.417-18.778-.077-6.508 3.843-12.814 6.386-16.214a21 21 0 0 0 1.684-.258 69 69 0 0 1 4.305-.659m36.714 11.559c1.807 5.58.728 9.118-.569 11.88-1.088 2.314-2.81 3.358-2.81 3.358s-.732-1.654-2.903-4.478-3.952-12.776-4.227-15.859c-.169-1.904-2.07-5.049-3.503-7.182 1.964.103 3.92.246 5.789.427 2.579 2.581 6.735 7.253 8.223 11.854" fill="#ff7800"/><path d="M384.658 368.722c-.301-.305-.576-.816-.706-1.754a7.5 7.5 0 0 1-.074-1.025c.009-1.182.318-1.844.84-2.362.527-.517 1.368-.892 2.471-1.178 3.293-.863 8.185-1.618 12.812-1.617 4.627-.001 9.519.754 12.811 1.617 1.103.286 1.944.661 2.469 1.178.523.517.832 1.18.841 2.362q-.001.463-.074 1.029h.002c-.132.935-.409 1.446-.708 1.75-4.309-.814-9.923-1.455-15.34-1.456-5.42.001-11.035.642-15.344 1.456" fill="#f2c200"/><path d="M380.284 377.939a2.3 2.3 0 0 1-.445-.237c-.504-.358-.926-.932-1.12-2.095a7 7 0 0 1-.099-1.129c.015-1.293.403-2.021 1.126-2.63.73-.604 1.891-1.035 3.359-1.356 4.352-.962 10.788-1.802 16.897-1.802 6.105 0 12.542.84 16.893 1.802 1.469.32 2.629.751 3.359 1.355.722.61 1.111 1.336 1.125 2.631q0 .508-.096 1.129c-.194 1.163-.618 1.737-1.122 2.095a2.3 2.3 0 0 1-.444.237c-5.43-1.071-12.707-1.934-19.716-1.934s-14.286.863-19.717 1.934" fill="#f2c200"/><path d="M374.802 388.964c-.671-.471-1.225-1.242-1.469-2.723a9 9 0 0 1-.124-1.433c.014-1.651.528-2.624 1.466-3.409.944-.782 2.414-1.322 4.254-1.725 5.431-1.199 13.452-2.245 21.072-2.245s15.641 1.046 21.072 2.245c1.839.403 3.307.942 4.252 1.725.94.785 1.452 1.758 1.466 3.409q0 .648-.123 1.433c-.245 1.481-.798 2.251-1.468 2.723-.675.471-1.559.645-2.492.643-.899 0-1.814-.159-2.55-.3-5.484-1.04-13.382-1.596-20.157-1.598-6.775.002-14.674.558-20.159 1.598-.735.141-1.65.302-2.549.3h-.012c-.927 0-1.808-.174-2.479-.643m35.576-47.89l.794 19.488c-3.217-.68-7.251-1.2-11.171-1.201-3.921.001-7.953.521-11.171 1.2l.795-19.487c3.364.621 6.831.954 10.377.954a57 57 0 0 0 10.376-.954M400.002 228.05c-1.953 0-3.879.11-5.78.303l3.872-94.952a29 29 0 0 1 1.797-.09q1.001.017 2.017.105l3.871 94.937a57 57 0 0 0-5.777-.303" fill="#f2c200"/><path d="M345.422 187.296c1.375-1.146 1.825-1.457 2.443-1.634.912-.312 1.627.099 2.877 1.549l8.99 10.421c.966 1.181.966 1.181 1.084 1.435.312.601.027 1.044-1.475 2.339l-.795.688.547.633c2.954-2.232 5.299-3.86 7.477-5.264q-2.346-2.185-5.189-5.481l-6.898-7.998c-1.192-1.381-1.504-2.1-1.249-2.875.199-.604.513-.955 1.996-2.273l-.547-.634-9.808 8.459zm31.908-13.636c.9.211 1.664.737 2.563 1.78 1.309 1.518 2.246 3.318 2.614 4.936.33 1.573-.223 3.196-1.489 4.288-2.238 1.932-5.254 1.174-8.029-2.043-1.348-1.564-1.963-3.05-1.9-4.525.061-1.239.632-2.364 1.603-3.202 1.267-1.092 3.062-1.572 4.638-1.234m-6.254 1.324c-3.917 3.38-4.76 7.822-2.063 10.947 2.99 3.467 8.017 3.16 12.582-.778 2.562-2.209 3.96-4.758 3.946-7.275.024-2.59-.979-4.885-3.207-7.468-5.197-6.025-10.858-6.754-16.278-2.079-3.593 3.1-5.218 6.635-3.791 8.289.762.883 2.006.719 3.333-.425.735-.635 1.216-1.327 1.248-1.828.001-.356-.038-.401-.791-1.451-1.036-1.44-.836-2.875.578-4.095 1.767-1.524 3.932-1.573 6.231-.16 1.419.872 3.081 2.321 4.332 3.771-2.539.213-4.205.902-6.12 2.552m51.303-1.019c.077-.898.506-1.721 1.43-2.742 1.363-1.508 2.985-2.664 4.574-3.203 1.52-.522 3.198-.174 4.44.948 2.193 1.982 1.813 5.069-1.037 8.22-2.487 2.752-5.387 3.234-7.61 1.225-1.269-1.147-1.959-2.82-1.797-4.448m2.088 6.041c3.865 3.497 8.327 3.78 11.097.718 3.069-3.395 2.145-8.346-2.297-12.363-4.905-4.436-10.067-4.061-14.723 1.087-2.709 2.996-4.108 6.167-4.002 9.007.101 2.673 1.384 5.082 3.95 7.404 3.491 3.156 7.199 4.332 8.645 2.734.721-.799.385-1.991-.913-3.164-.722-.653-1.468-1.046-1.969-1.014-.334.021-.394.087-1.302.919-1.231 1.187-2.689 1.117-4.046-.108-1.759-1.591-2.076-3.734-.958-6.19.71-1.538 1.923-3.344 3.208-4.764.526 2.492 1.405 4.013 3.31 5.734m18.851 13.539c4.626 3.699 8.2 4.27 10.509 1.718 2.568-2.841 1.277-7.155-3.397-11.38-4.095-3.705-8.372-4.949-10.178-2.953-.762.844-.395 2.062.961 3.289.692.626 1.38.966 1.852.908.332-.02.374-.064 1.354-1.034.591-.595 1.62-1.036 2.384-1.07.884-.049 2.068.498 3.049 1.384 2.395 2.165 2.405 4.878.078 7.452-1.384 1.532-2.937 2.145-4.497 1.784-1.131-.257-2.834-1.274-4.392-2.682l-.866-.783-.622.688.807.731c3.24 2.969 3.759 5.819 1.49 8.326-1.944 2.152-4.056 2.341-6.104.489-1.068-.965-1.566-1.98-1.437-2.993.097-.801.475-1.627 1.048-2.319.633-.758.717-.965.658-1.422-.087-.484-.506-1.065-1.199-1.69-1.327-1.201-2.361-1.45-3.002-.739-1.867 2.064-.34 6.349 3.496 9.817 2.049 1.854 4.325 3.106 6.239 3.424 1.564.243 3.093-.229 4.055-1.295 1.966-2.175 1.078-5.599-2.446-9.472z"/><path d="M487.161 329.22c-.254.42-.294.364-.437.39-.204.017-.697-.201-1.22-.486-.453-.234-12.324-6.556-24.059-12.81l-23.308-12.42-.053-.028-.67 1.258 11.565 6.163a55.8 55.8 0 0 1-9.689 13.041c-.421.422-.858.826-1.294 1.233l-1.65-5.619h.002-.002l-.682.2-.685.202.052.174 16.606 56.541c-.006.002.269.947.263 1.663 0 .177-.016.333-.043.434a.4.4 0 0 1-.036.108 1 1 0 0 1-.225.03c-.584.089-1.398-.991-1.722-1.811-.401-.906-23.367-51.811-23.367-51.814l-.65.293-.649.294 3 6.65a55.3 55.3 0 0 1-28.206 7.696 55.3 55.3 0 0 1-28.208-7.696l3-6.651-.649-.293-.65-.293c-.002.004-22.968 50.908-23.367 51.814-.327.819-1.14 1.901-1.724 1.812a1 1 0 0 1-.223-.029q-.006-.01-.013-.028c-.035-.08-.07-.279-.069-.516 0-.353.064-.784.133-1.113.067-.33.131-.549.131-.549l16.608-56.543.05-.173-.68-.2-.002-.001-.684-.2-1.65 5.618c-.434-.407-.872-.811-1.293-1.233a55.8 55.8 0 0 1-9.69-13.041c6.657-3.547 11.564-6.163 11.565-6.165l-.335-.628-.002-.003-.332-.625-.053.028-23.308 12.421a20433 20433 0 0 1-24.061 12.809c-.525.284-1.019.503-1.22.486-.144-.026-.183.03-.438-.394a.5.5 0 0 1-.067-.233c-.015-.154.163-.4.276-.493l.03-.027 44.24-31.617.027-.019v-.001l-.41-.572-.004-.008-.415-.578-9.321 6.66a55.6 55.6 0 0 1-2.091-8.741c1.986-.85 4.155-1.721 6.498-2.587 12.221-4.51 29.094-8.822 48.401-8.822 23.004-.004 42.561 6.131 54.895 11.412a55.4 55.4 0 0 1-2.09 8.739l-9.321-6.661v-.002l-.414.58-.002.004-.411.577.026.019 44.235 31.615c0 .001.001-.002.033.028.033.029.081.079.125.135.095.117.151.25.15.359a.5.5 0 0 1-.067.237m-184.702-93.06c0-.001-.059-.021-.176-.081a3 3 0 0 1-.419-.254c-.313-.217-.477-.482-.453-.572 0-.028.003-.053.017-.094.026-.061.021-.064.135-.123.11-.05.324-.087.562-.086a4.5 4.5 0 0 1 1.149.166l51.63 15.103a57 57 0 0 0-3.673 5.326zm195.881-.502a2.8 2.8 0 0 1-.624.42 1.833 1.833 0 0 1-.176.081l-48.77 19.385a57 57 0 0 0-3.673-5.325l51.629-15.104c.002.005.155-.039.38-.082.215-.043.497-.084.77-.084.237-.002.451.035.562.086.114.059.108.062.131.108a.4.4 0 0 1 .021.109c.005.076-.058.226-.25.406" fill="#f2c200"/><path d="M456.248 294.178c5.079 2.244 8.801 4.28 10.84 5.55.974.599 1.609 1.085 1.648 1.145.318.358.397.656.403.97.011.553-.366 1.185-.562 1.435l-.061.077c-2.143 1.954-5.22 3.236-8.203 4.183-.051.016-.105.027-.158.043l-6.137-4.387a57 57 0 0 0 2.23-9.016M339.846 307.58c-.053-.016-.105-.026-.157-.043-2.981-.946-6.057-2.227-8.199-4.18l-.066-.08a4 4 0 0 1-.235-.361c-.175-.302-.329-.705-.326-1.073.005-.317.083-.613.402-.971.039-.06.674-.546 1.648-1.145a68 68 0 0 1 4.131-2.332 112 112 0 0 1 6.709-3.221 57 57 0 0 0 2.231 9.019z" fill="#fff"/><path d="M471.452 273.668l-.001-.045c-.011-.023.015-3.176-3.689-5.496-4.086-2.543-23.203-16.914-67.769-17.469-44.551.555-63.668 14.926-67.755 17.469-3.413 2.135-3.658 4.979-3.685 5.432l-.004.096c0 .013-.292 7.156-.29 14.034-.005 4.692.143 9.307.578 11.249.154.73.417 1.398.753 2.022.123-.36.319-.719.621-1.045.322-.337.911-.741 1.951-1.396 7.156-4.447 33.675-17.757 67.84-17.765 19.516 0 36.55 4.354 48.89 8.91 6.172 2.277 11.171 4.606 14.727 6.469a66 66 0 0 1 4.221 2.386c1.039.655 1.63 1.059 1.952 1.396.3.327.496.687.618 1.046.336-.624.6-1.293.754-2.023.433-1.943.582-6.559.577-11.249.001-6.717-.275-13.687-.289-14.021" fill="#fff"/><path d="M476.549 204.238c-.035.051-.044.059-.044.059l-38.667 46.437.534.445.56.468 2.762-3.316a56 56 0 0 1 6.077 8.352c-10.953-3.793-26.533-7.207-47.778-7.45-21.236.243-36.81 3.655-47.76 7.449a56 56 0 0 1 6.076-8.351l2.761 3.316v-.001l.553-.461.542-.451-38.67-46.437c.002-.001-.008-.011-.043-.059a2 2 0 0 1-.131-.219c-.098-.185-.181-.427-.178-.636.008-.204.045-.374.28-.62.183-.171.276-.189.418-.197.363-.044 1.126.544 1.437.881.484.473 41.997 40 44.001 41.908l.083.078.491-.514.001-.001.49-.515-3.859-3.675a55.3 55.3 0 0 1 33.517-11.252 55.3 55.3 0 0 1 33.515 11.252l-3.86 3.674.983 1.031.083-.078c2.005-1.909 43.517-41.435 43.999-41.907.309-.337 1.072-.926 1.438-.882.142.008.237.026.416.195.236.247.275.418.283.622.009.311-.202.707-.31.855" fill="#f2c200"/><path d="M459.71 279.541l-3.913-1.773-.21 6.391 4.003 1.814c2.697 1.223 4.177 1.712 4.248-.684.072-2.502-1.313-4.471-4.128-5.748m4.076-1.679c2.455 2.273 4.005 4.986 3.913 8.093-.135 4.647-2.785 5.909-7.853 3.611l-8.065-3.656.685-21.01 3.706 1.682-.273 7.351 4.713 2.137 4.412-4.492 3.883 1.762zm-87.414-16.686l.006 17.302-3.849.397.003-21.09 13.476-1.693-.009 3.787zm-20.67 5.064l-.043 4.332 9.948-2.246-.034 3.413-9.949 2.246-.057 5.559 11.656-2.834-.036 3.473-15.152 3.685.206-20.194 15.22-3.701-.035 3.415zm-7.277 19.301l-17.331 7.312.025-3.725 6.277-2.71.094-16.938 3.65-1.521-.095 16.94 7.406-3.085zm80.645-9.975l-.027 3.635-18.302-2.686.029-3.635 7.598 1.07.132-18.149 3.53.534-.128 18.149zm-23.266-10.228c-1.581 1.27-3.372 1.689-5.352 2.203-3.393.904-5.309 1.199-5.331 3.33-.017 1.725 1.412 2.961 3.794 2.987 2.413.023 4.025-1.088 4.797-3.243l3.471.944c-1.259 3.498-4.13 5.411-8.143 5.371-4.92-.05-7.964-2.839-7.925-6.631.014-1.442.592-2.722 1.604-3.652 1.709-1.582 3.687-1.938 5.824-2.479 3.394-.875 5.154-1.232 5.177-3.615.018-1.63-1.691-3.059-4.136-3.082-2.915-.031-4.936 1.39-5.715 3.954l-3.721-.759c1.169-4.032 4.547-6.411 9.028-6.366 5.391.055 8.655 2.909 8.616 6.639-.018 1.911-.692 3.347-1.988 4.399m29.533 3.238l2.834 9.59 3.743-7.971zm.558 12.604l-7.026-22.577 3.861.951 1.739 5.986 8.545 2.101 2.333-4.983 4.541 1.115-8.991 18.639z"/></g></svg>