<svg viewBox="0 0 215.4 220.2" xmlns="http://www.w3.org/2000/svg"><ellipse cx="107.7" cy="110.1" rx="107.7" ry="110.1"/><g fill="#f9dd00"><path d="M189.1 121.8H60.2v30.7h118.5c-14.2 24.8-40.6 41.4-70.6 41.4-45.1 0-81.9-37.5-81.9-83.7 0-46.1 36.7-83.7 81.9-83.7 19.3 0 37 6.8 51 18.2l10.2-12.6c-16.8-13.7-38-22-61.1-22-54 0-97.9 44.9-97.9 100 0 55.2 43.9 100 97.9 100 50.2 0 91.6-38.8 97.2-88.5h-16.3z"/><path d="M108.5 32.5c-19.8 0-38.7 8.1-53.1 22.7C40.9 70 32.9 89.5 32.9 110.1c0 42.8 33.1 77.6 73.7 77.6 41.4 0 73.7-33.2 73.7-75.7.1-44.6-31.5-79.5-71.8-79.5m55.9 37.7H159c-1.9-5.3-6-9.5-11.2-11.4l1.3-6.7c6 5 11.2 11.1 15.3 18.1m-23-7.4c7.5 0 13.7 6.3 13.7 14s-6.1 14-13.7 14c-7.5 0-13.7-6.3-13.7-14s6.1-14 13.7-14m-32.9-25.4c13.5 0 25.9 4.2 36.3 11.5l-1.7 8.8c-.6-.1-1.2-.1-1.8-.1-.7 0-1.4.1-2.1.1-10.2-1.8-35.4-4.5-62.3 7.5C59.7 72.9 46.3 87 39.1 95.7c6.7-32.8 35.8-58.3 69.4-58.3m-70.7 67.8c3.2-4.5 19.1-25.8 41.1-35.6 20.1-9 39.3-9.3 51.3-8.3-2.2 1.6-4 3.7-5.3 6.2-25.6 2.5-48.5 16.9-66.3 41.9-8.7 12.1-13.5 22.1-15.9 27.9-3.2-8.4-5-17.6-5-27.2-.1-1.6 0-3.2.1-4.9m90.2 74.3c5.1-8.1 14.2-23.1 15.7-30.7l-4.6-1c-1.7 8.6-15.1 29.2-17.9 33.5-4.7 1-9.5 1.5-14.5 1.5-9.3 0-18.1-1.9-26.2-5.5 9.6-5.1 31.7-17.8 36.6-29.6l-4.4-1.9c-4.4 10.5-27.7 23.9-37.7 28.8-12.7-6.9-23-17.8-29.6-31.1 2.7-6.8 8.2-19 17.1-31.4 16.7-23.3 37-36.6 60.5-39.6-.3 1.3-.5 2.7-.5 4.2 0 10.6 8.4 19.2 18.8 19.2s18.8-8.6 18.8-19.2c0-.6 0-1.2-.1-1.8h7c5.5 10.9 8.6 23.4 8.6 37 0 32.2-19.7 58.6-47.6 67.6"/><path d="M101 85.2h7.7v33.9H101z"/><path d="M60.3 85.2v34h23.3v-6.4H68V85.2zm114.1 5.7h9.4v28.3h7.7V90.9h6.2v-6.4h-23.3zM143 106.7l-6.6-21.5h-11.7v34h7.7V98.1l7 21.1h6.9l6.3-20.4v20.4h7.7v-34h-11.5z"/></g><path d="M77.6 129.9c.5.7.8 1.6.8 2.7s-.3 1.9-.8 2.6c-.3.4-.7.7-1.3 1 .9.3 1.5.8 2 1.5.4.7.7 1.5.7 2.5s-.3 2-.8 2.8c-.3.5-.7 1-1.2 1.4s-1.2.7-1.9.9-1.5.2-2.4.2H65v-17.4h8.2c2.1 0 3.6.6 4.4 1.8m-9.2 1.2v3.8h4.1c.7 0 1.3-.1 1.8-.4s.7-.8.7-1.5c0-.8-.3-1.3-.9-1.6-.5-.2-1.2-.3-2-.3zm0 6.7v4.6h4.1c.7 0 1.3-.1 1.7-.3.7-.4 1.1-1.1 1.1-2.2 0-.9-.4-1.5-1.1-1.9-.4-.2-1-.3-1.7-.3h-4.1zm29.8 6.1c-1.3 1.4-3.1 2-5.6 2-2.4 0-4.3-.7-5.6-2-1.7-1.7-2.6-4-2.6-7.2s.9-5.6 2.6-7.2c1.3-1.4 3.1-2 5.6-2 2.4 0 4.3.7 5.6 2 1.7 1.6 2.6 4 2.6 7.2-.1 3.2-.9 5.6-2.6 7.2m-2.3-2.6q1.2-1.65 1.2-4.5c0-1.9-.4-3.5-1.2-4.5-.8-1.1-1.9-1.6-3.3-1.6s-2.5.5-3.4 1.6c-.8 1.1-1.3 2.6-1.3 4.5 0 2 .4 3.5 1.3 4.5.8 1.1 2 1.6 3.4 1.6s2.5-.6 3.3-1.6m20.1-12.8c1.2.4 2.2 1.1 2.9 2.2.6.9 1 1.8 1.2 2.8s.3 2 .3 2.9c0 2.3-.5 4.3-1.4 5.9-1.2 2.2-3.1 3.2-5.7 3.2H106v-17.4h7.3c1.1 0 2 .1 2.7.4m-6.5 2.6v11.3h3.3c1.7 0 2.8-.8 3.5-2.5.4-.9.5-2 .5-3.3 0-1.8-.3-3.1-.8-4.1-.5-.9-1.6-1.4-3.2-1.4zm26.6-3c1 .3 1.8.8 2.6 1.5l1.9-2.1 1 1-1.9 2.2c.4.5.8 1.3 1.2 2.3.3 1 .5 2.3.5 3.9 0 2.7-.8 4.9-2.3 6.7-1.5 1.7-3.5 2.5-5.9 2.5-.9 0-1.9-.1-2.8-.4q-1.35-.45-2.7-1.5l-2 2.2-1-.9 2.1-2.2c-.4-.6-.8-1.4-1.2-2.3q-.6-1.65-.6-3.9c0-2.7.8-5.1 2.5-7 1.4-1.5 3.3-2.2 5.6-2.2 1.1-.3 2.1-.2 3 .2m-.9 3c-.6-.3-1.2-.5-2.1-.5-1.6 0-2.8.6-3.5 1.7s-1.1 2.6-1.1 4.4c0 .8.1 1.5.2 2.1.1.4.2.8.4 1.4l7.3-8.2q-.3-.45-1.2-.9m-3.7 11.5c.5.2 1.1.3 1.7.3 1.6 0 2.8-.6 3.5-1.9s1.1-2.7 1.1-4.2c0-.5 0-1-.1-1.5-.1-.7-.3-1.4-.5-1.9l-7.2 8.2c.4.4.9.7 1.5 1m26.6 2.9h-3.2V133c-1.2 1.1-2.6 2-4.2 2.5v-3c.8-.3 1.8-.8 2.8-1.6s1.7-1.7 2-2.8h2.6zm3.5-4l3.1-.4c.1.7.3 1.1.6 1.5.3.3.8.5 1.3.5.7 0 1.2-.3 1.7-.9q.75-.9.9-3.9c-.8 1-1.8 1.5-3.1 1.5s-2.5-.5-3.4-1.6c-1-1-1.4-2.4-1.4-4.1q0-2.7 1.5-4.2c1-1.1 2.3-1.6 3.9-1.6 1.7 0 3.1.7 4.2 2 1.1 1.4 1.6 3.6 1.6 6.7 0 3.2-.6 5.4-1.7 6.8q-1.65 2.1-4.5 2.1c-1.3 0-2.4-.4-3.2-1.1q-1.05-1.2-1.5-3.3m7.4-7.3c0-1.1-.2-1.9-.7-2.5s-1-.9-1.7-.9c-.6 0-1.1.2-1.5.7q-.6.75-.6 2.4c0 1.1.2 1.9.6 2.5.4.5 1 .8 1.6.8s1.1-.3 1.6-.8c.4-.4.7-1.2.7-2.2m13.8 11.3h-3.2V133c-1.2 1.1-2.6 2-4.2 2.5v-3c.8-.3 1.8-.8 2.8-1.6s1.7-1.7 2-2.8h2.6zm14.6-13.1l-3.1.4c-.1-.7-.3-1.1-.6-1.5-.3-.3-.7-.5-1.3-.5-.7 0-1.3.3-1.7.9q-.75.9-.9 3.9 1.2-1.5 3-1.5c1.4 0 2.5.5 3.5 1.6s1.4 2.4 1.4 4.1c0 1.8-.5 3.2-1.5 4.3s-2.3 1.6-3.9 1.6c-1.7 0-3.1-.7-4.2-2-1.1-1.4-1.6-3.6-1.6-6.7 0-3.2.6-5.5 1.7-6.9q1.65-2.1 4.5-2.1c1.3 0 2.3.4 3.2 1.1.7.9 1.3 1.9 1.5 3.3m-7.3 7.2c0 1.1.2 1.9.7 2.5s1 .9 1.7.9c.6 0 1.1-.2 1.5-.7q.6-.75.6-2.4c0-1.1-.2-1.9-.6-2.5-.4-.5-1-.8-1.6-.8s-1.1.2-1.6.7c-.5.6-.7 1.4-.7 2.3"/></svg>