<svg viewBox="150.89 0 400.38 511" xmlns="http://www.w3.org/2000/svg"><g transform="matrix(1.25 0 0 -1.25 -17.712 671.985)"><path d="m438.922 346.212c9.014 25.322 11.088 40.142 11.088 40.142s-6.298 4.947-18.315 10.616c3.903 37.245-3.633 55.293-3.633 55.293s-41.556 36.869-128.494 45.823c-76.07 7.834-123.57 39.502-123.57 39.502s-12.211-18.823-18.233-57.403c-11.812 4.373-19.904 12.149-19.904 12.149s-16.128-76.181 26.713-191.504c47.756-128.553 122.524-172.042 122.524-172.042.004 0 .319.225.912.677 6.568 4.262 48.672 32.719 97.634 92.033 51.931 62.91 69.542 111.224 69.542 111.224s-6.844 6.916-16.264 13.49" fill="#2747a3"/><path d="m382.414 223.973c-22.366-27.098-43.385-47.754-60.147-62.55 17.307 18.329 39.603 44.933 63.631 81.212 26.537 40.07 42.33 74.53 51.6 99.658 5.758-4.116 10.448-8.292 12.881-10.565-4.21-10.303-23.453-53.834-67.965-107.755" fill="#fff"/><path d="m422.746 448.805c-1.82 1.454-5.835 4.495-12.036 8.33-17.396 10.94-54.01 29.3-110.626 35.131-56.333 5.801-98.76 24.872-114.664 32.96a204 204 0 0 0 -7.03 3.856c-1.195-2.462-2.676-5.79-4.266-9.957-2.708-6.922-6.152-17.542-8.86-31.891a223 223 0 0 1 -.892-4.923c-5.419-32.05-7.484-85.877 13.448-160.303 21.233-75.494 50.714-122.643 71.708-148.902a257 257 0 0 1 9.59-11.312c11.223-12.554 20.13-19.886 24.545-23.206a111 111 0 0 1 2.875-2.153l.06.056.101-.065s59.489 48.949 104.967 146.817c17.94 38.609 26.99 70.798 31.219 96.211 2.234 12.195 3.252 22.488 3.595 30.843.895 21.837-2.494 34.634-3.734 38.508" fill="#fff"/><path d="m182.974 516.343c-3.148-7.98-7.577-21.775-10.322-41.342-4.264-30.389-5.22-81.281 14.433-151.162 4.062-14.443 8.59-28.387 13.556-41.75 10.316 36.777 45.26 63.921 86.658 63.921 45.02 0 82.404-32.097 88.786-73.78q3.602 7.13 7.106 14.666c24.934 53.662 31.901 94.114 33.355 118.596 1.203 20.234-1.06 33.168-2.205 38.174-3.756 2.856-12.778 9.19-27.012 16.006-17.739 8.494-47.446 19.5-88.234 23.7-55.958 5.765-98.254 24.058-116.121 32.971m133.032-336.276c-9.579-4.405-19.39-6.958-28.707-6.958a92.5 92.5 0 0 0 -29.937 4.972c12.319-15.375 22.761-24.93 28.826-29.911 6.024 5.62 16.502 16.003 29.09 31.027z" fill="#2747a3"/><path d="m357.528 286.802-13.567-8.116c-2.818 2.155-9.31 6.31-14.146 9.28-6.657 4.083-12.83 7.292-15.516 8.902-.96 3.091-2.813 8.834-4.368 12.374-1.488 3.39-3.518 7.121-4.69 9.2 1.573 1.05 5.9 3.475 8.084 4.677 2.808 1.548 6.619 3.317 6.619 3.317s6.83-1.937 13.658-6.58 12.077-7.326 12.077-7.326-.1.125-.29.353a79.1 79.1 0 0 1 -22.303 16.75c-5.974 2.755-10.544 3.986-10.544 3.986s2.252-1.836 3.456-3.576c1.097-1.589-12.355-8.246-15.09-9.403-3.2.482-8.26 1.138-13.47 1.373-.664.029-1.327.043-1.98.043-5.287 0-10.116-.9-12.705-1.486-3.223 1.93-13.805 7.959-13.805 8.96 0 .912 3.154 4.233 4.968 5.2a78 78 0 0 1 -8.071-2.92 79.1 79.1 0 0 1 -26.202-18.082c1.686 1.577 5.468 3.06 8.853 5.234 4.218 2.708 12.822 6.238 14.63 6.238 1.807 0 3.96-.506 7.776-2.635 3.29-1.834 6.578-4.675 7.418-5.422-1.5-2.112-2.834-4.605-4.38-7.706-1.66-3.331-3.226-8.96-4.037-12.14-2.244-.921-8.575-3.63-15.41-7.211-6.647-3.483-13.194-8.852-14.69-10.553l-12.657 7.85s-6.328-8.654-8.526-19.157a77 77 0 0 1 -.354-6.87c2.675-6.562 6.148-14.638 10.584-24.275l10.852 7.256c3.179-2.568 9.849-7.17 15.388-10.045 6.125-3.177 12.423-6.429 14.75-7.51.543-2.3.932-6.404 2.694-11.364 1.69-4.754 3.012-7.533 4.47-9.613-.866-.852-2.442-2.72-5.723-4.78-3.583-2.25-6.05-3.508-9.32-3.508-.943 0-1.958.106-3.083.323-2.628.506-8.175 2.775-12.862 5.773.67-1.132 4.054-5.168 9.492-8.689 8.695-5.629 10.224-6 15.055-7.761-.974 1.182-2.911 5.863-1.817 6.613 1.272.874 10.884 7.092 12.898 8.456 2.429-.69 6.907-1.592 13.987-1.711q.599-.01 1.179-.01c6.95 0 11.433 1.041 13.761 1.786 3.38-2.101 14.407-9.648 14.755-10.48.274-.663-2.474-3.418-4.879-5.081 5.463 1.658 7.049 2.179 11.933 4.905 3.874 2.677 6.317 4.766 7.505 6.239-3.922-1.978-7.503-2.167-7.503-2.167s-4.279.599-9.297 3.694c-4.013 2.473-6.595 5.329-7.995 6.62 1.53 2.08 2.782 4.521 4.04 8.037 1.394 3.9 2.985 9.202 3.825 12.076 2.59 1.22 8.547 4.095 16.255 8.235 7.853 4.217 12.408 7.775 14.187 9.287l12.725-8.51s9.24 9.283 9.64 25.15c.404 15.861-8.234 26.5-8.234 26.5m-14.105-25.596c-.158-6.801-1.797-12.014-2.599-14.481-2.347-1.673-6.634-4.899-12.871-8.39-6.775-3.793-14.328-7.13-16.932-8.28l-23.573 13.432.382 37.102c3.144 1.78 6.82 3.73 12.45 6.717 6.598 3.504 11.264 5.357 12.282 5.804 3.033-1.546 10.507-5.508 15.273-8.57 4.927-3.164 12.706-8.696 14.873-10.218.394-2.776.862-6.876.715-13.116m-59.846 20.014-.77-37.94-20.209-11.879c-1.699.79-8.145 3.252-16.308 7.394-8.872 4.505-12.864 8.923-15.615 11.047-.34 3.046-.807 6.25-.675 11.038.168 6.158 1.322 12.226 1.695 14.678 2.433 2.192 9.913 7.728 14.475 10.368 4.798 2.772 13.09 6.154 15.75 7.124 2.37-1.344 6.042-3.005 10.454-5.472 4.672-2.616 8.882-4.89 11.203-6.358" fill="#2747a3"/><path d="m248.153 355.046c-15.378-4.939-26.556-15.892-26.556-15.892l6.438 47.287-25.406-.02-.025 42.183 20.536.007.013-23.841 8.185.002-.021 23.849 22.641.01.017-23.84 8.597.01-.02 23.837 23.842.014.036-42.235-7.298-.012.031-26.875s-16.037.321-31.01-4.484m89.727-5.026c19.648-9.256 25.595-18.614 25.595-18.614l-4.305 55.035 24.336-.02.021 42.183-19.464.007-.014-23.841-8.187.002.027 23.849-22.644.01-.015-23.84-8.599.01.02 23.837-23.845.014-.036-42.235 7.301-.012-.043-26.96s13.478-1.708 29.851-9.424" fill="#fff"/></g></svg>