<svg xmlns="http://www.w3.org/2000/svg" viewBox="0.09 0.2 459.47 396.22"><clipPath id="a"><path d="M0 0h566.929v504.567H0z"/></clipPath><g clip-path="url(#a)" transform="translate(-54.011 -54.289)"><path fill="#fff" d="M70.95 56.033c10.207-3.527 24.203-1.372 28.196 10.19a15.86 15.86 0 0 1 .74 7.27c15.033 5.398 32.89 4.638 48.15.686 11.217-2.901 21.796-8.113 32.844-11.673 13.702-4.417 27.968-7.365 42.405-7.47 23.725-.174 44.991 7.899 66.424 16.828 17.232 7.177 33.468 13.419 52.435 13.722 15.243-.02 30.36-2.701 45.63-2.701 23.276 0 45.545 4.49 68.08 9.86-1.008 9.055-2.106 18.089-2.269 27.204-.297 16.352 2.911 32.356 9.536 47.265 7.257 16.339 20.03 29.298 29.244 44.465a149 149 0 0 1 10.628 21.165c7.413 18.195 10.5 35.863 10.57 55.632.055 16.033-2.566 31.546-4.988 47.303-14.335-13.095-26.94-25.18-46.659-30.181-23.733-6.02-43.77 2.262-66.766 5.668-34.846 5.162-70.982.833-103.71-12.125-10.985-4.344-21.389-10.252-32.647-13.878-10.292-3.314-20.883-3.713-31.435-1.431-21.003 4.548-35.567 18.44-45.77 36.49l4.677 13.54c9.194 5.508 13.018 16.865 9.24 26.745l6.037 17.473c9.178 5.507 13.002 16.85 9.234 26.724l15.86 45.905H188.34l-7.124-20.62c-9.22-5.51-13.053-16.9-9.256-26.791l-6.02-17.426c-9.208-5.51-13.039-16.888-9.25-26.773l-6.028-17.445c-9.19-5.508-13.022-16.87-9.242-26.753L70.06 108.36a21.54 21.54 0 0 1-8.503-10.95 21.4 21.4 0 0 1-1.128-8.447c-2.47-1.921-4.358-4.452-5.422-7.532-3.98-11.518 5.791-21.891 15.944-25.4"/><path fill="#d11533" d="M171.417 245.97c0 17.598-2.666 34.586-7.614 50.593l-66.26-191.78c44.599 31.157 73.874 82.86 73.874 141.187m329.965 11.556c-3.375-14.464-9-28.37-16.76-41.143-4.189-6.895-8.579-12.78-12.889-18.56-6.16-8.26-12.141-16.284-16.889-26.968a121.7 121.7 0 0 1-9.042-30.866c-2.117-13.752-1.331-26.64.185-40.292-19.402-4.623-38.222-7.76-58.212-7.76-15.298 0-30.413 2.702-45.773 2.702-21.856-.35-38.015-7.038-55.758-14.429-13.338-5.558-26.706-11.129-41.75-14.114-14.503-2.878-28.128-2.482-41.498.012-13.103 2.446-25.683 6.834-38.508 12.081-12.977 5.307-26.679 8.04-40.518 8.1-12.431.053-25.096-1.344-35.588-8.619 2.23-2.666 3.155-5.758 2.203-8.512-1.758-5.086-9.261-7.138-16.702-4.568s-12.078 8.817-10.321 13.903c1.013 2.926 3.925 4.846 7.633 5.461-1.818 3.071-2.333 6.895-1.081 10.52 1.253 3.627 4.019 6.314 7.347 7.61l73.745 213.442c-2.112 3.16-2.838 7.204-1.628 11.1 1.297 4.174 4.528 7.235 8.402 8.504l8.498 24.597c-2.117 3.161-2.847 7.21-1.635 11.11 1.298 4.178 4.534 7.238 8.413 8.507l8.493 24.58c-2.123 3.162-2.853 7.22-1.641 11.125 1.3 4.182 4.537 7.243 8.423 8.507l6.254 18.1h19.148l-12.944-37.464c2.108-3.157 2.833-7.2 1.623-11.09-1.296-4.17-4.523-7.234-8.393-8.503l-8.501-24.608c2.111-3.156 2.839-7.206 1.629-11.1-1.298-4.176-4.526-7.233-8.402-8.502l-7.256-20.999c8.846-16.993 21.049-31.279 38.865-39.443 9.286-4.254 19.654-6.63 30.612-6.63 14.93 0 26.47 5.283 38.878 10.962 4.942 2.26 10.005 4.578 14.722 6.445a195 195 0 0 0 35.341 10.238 196 196 0 0 0 36.672 3.465c18.244 0 36.029-3.143 53.689-7.447 29.843-7.284 58.886-.137 81.732 20.731 2.947-19.176 3.484-38.725-.818-60.185"/><path fill="#fff" d="M270.43 131.93c14.777 4.468 28.707 11.396 43.302 16.42 17.853 6.183 34.836 9.73 56.216 7.275 23.537-2.669 45.24-6.634 68.977-3.719 1.994 8.341 4.807 16.532 8.428 24.316-24.19-2.414-45.73 2.55-69.586 5.536-22.343 2.82-40.593-1.178-60.481-8.13-12.36-4.303-24.497-9.903-37.034-13.905l-.245-.077zm-.998 24.82c-17.014-4.039-34.06-4.999-54.53-2.709-15.832 1.772-32.627 5.715-48.34 12.34-13.974-29.198-35.376-54.21-61.735-72.565 21.478 3.474 42.973 1.204 63.189-7.067 22.979-9.396 48.146-16.502 73.054-12.089zm-17.966-79.713c30.59 8.376 56.272 26.678 90.495 26.62 15.37 0 30.164-2.665 45.813-2.665 16.633 0 32.819 1.958 48.346 5.658a132.3 132.3 0 0 0-.612 21.767c-25.15-4.32-48.174-1.478-73.378 1.072-20.416 2.09-36.134-1.005-51.951-6.42-16.675-5.679-32.416-13.952-49.341-18.907zm211.55 124.23c4.602 6.188 9.333 12.37 13.86 19.821a132 132 0 0 1 9.275 18.354c-13.7-4.22-28.235-6.492-43.29-6.492-17.73 0-30.332 3.461-46.403 7.078-25.476 5.735-53.284 4.1-77.667-5.397-25.985-10.116-46.823-22.049-77.625-22.049-20.627 0-40.19 4.683-57.691 13.04a183.5 183.5 0 0 0-6.744-33.02c13.746-5.805 28.104-9.505 42.588-11.294 25.17-3.11 45.484-1.256 66.707 4.925 11.116 3.238 22.927 8.487 34.81 12.674 21.926 7.721 41.442 12.171 64.749 8.987 18.225-2.492 35.442-7.93 55.05-7.914a201.43 201.43 0 0 1 22.382 1.287m32.039 72.381a132.2 132.2 0 0 1 .448 27.187c-21.868-14.72-49.561-19.62-77.158-12.628-17.225 4.202-33.654 7.166-51.567 7.166-24.224 0-47.402-4.637-68.69-13.068-19.658-7.783-34.33-18.042-56.923-18.042-24.972 0-47.422 11.14-62.641 28.705a184 184 0 0 0 5.683-35.107c16.466-10.552 36.019-16.677 56.959-16.677 27.609 0 44.804 11.546 68.307 20.361 29.988 11.244 63.107 13.391 94.276 6.157 14.315-3.319 23.5-6.15 39.11-6.15 18.705 0 36.423 4.351 52.196 12.096"/><path d="M230.935 105.607l1.481-6.107c-6.055-1.464-14.467-3.317-20.37-.247-2.883 1.499-4.949 4.137-5.149 7.418-.513 8.381 8.758 10.119 15.25 10.777 2.037.208 4.641.307 6.53 1.176 1.122.516 1.723 1.37 1.624 2.229-.17 1.497-2.22 2.267-3.503 2.554-4.583 1.021-10.552-.253-14.899-2.06l-2.496 6.281c5.227 2.695 11.426 3.611 17.153 2.968 3.142-.354 6.388-1.287 8.726-3.395 2.781-2.509 3.882-6.534 2.16-10.179a9.3 9.3 0 0 0-1.678-2.42h.001c-4.3-4.518-11.042-3.89-16.62-4.71-1.677-.246-6.122-1.107-4.598-3.642 1.235-2.049 5.392-2.156 7.483-2.072 3.173.126 6.59.84 8.905 1.429m-34.59 26.378l10.23-1.657-19.494-15.838 7.485-12.922-9.876 1.6-8.41 14.521-4.306-12.46-7.77 1.259 10.045 29.078 7.77-1.26-2.398-6.94 3.534-6.098zm3.49 74.617c-1.911-2.598-2.744-6.298-2.126-9.467 1.564-8.054 12.185-11.392 19.301-10.886 2.748.194 5.399 1.006 7.479 2.777l-4.9 4.295c-1.885-1.85-4.804-2.73-7.761-2.064-2.981.669-5.965 2.61-6.597 5.813-.412 2.09.169 4.664 1.433 6.377 1.9 2.578 5.498 3.086 8.449 2.423 2.947-.662 5.205-2.696 6.126-5.16l6.216 1.763c-1.144 2.559-3.244 4.465-5.677 5.804-6.197 3.415-17.11 4.888-21.943-1.675m54.597 1.43l-6.152-7.164-6.124-.396 1.195 6.785q-.643-.015-1.294-.025-3.189-.046-6.338.052l-3.787-22.288c6.667-.291 13.052-.187 19.299.298 4.372.853 9.101 3.413 9.979 8.393.739 4.199-1.847 6.398-5.326 7.232l7.96 8.579a122 122 0 0 0-9.412-1.465m-14.31-18.923l1.26 7.155 8.034.518c2.682.174 4.841-.636 4.041-3.792-.608-2.386-2.457-3.18-4.658-3.322zm49.281 22.263l-12.001-3.201-2.987 4.014c-2.607-.708-5.26-1.35-7.973-1.91l15.133-19.674c2.688.717 5.348 1.499 7.991 2.368l10.407 28.23a384 384 0 0 0-8.284-3.283zm-1.568-4.483l-3.133-9.018-4.901 6.875zm24.563 19.914c-3.565-1.934-6.68-4.741-8.129-8.63-1.26-3.376-1.095-7.265.42-9.956 1.788-3.18 5.198-4.39 8.964-4.49 4.378-.116 9.768 1.238 14.013 3.539 2.792 1.51 5.307 3.555 6.968 6.23l-6.255 1.686c-1.44-2.656-4.216-4.893-7.457-5.693-3.268-.807-6.894-.42-8.432 2.298-1.004 1.773-1.118 4.482-.286 6.707 1.252 3.348 4.833 5.566 8.069 6.365 3.232.797 6.13-.03 7.763-1.916l5.941 4.669a8.1 8.1 0 0 1-2.138 1.527c-1.503.742-3.306 1.144-5.339 1.208-4.373.136-9.854-1.24-14.102-3.544m35.313 10.033c-3.372-1.016-6.363-2.983-7.855-6.386-1.295-2.957-1.295-6.748 0-9.704 1.531-3.491 4.638-5.47 8.117-6.464 4.046-1.153 9.511-1.128 13.529.078 3.382 1.016 6.38 2.982 7.877 6.388 2.042 4.648.897 10.506-3.166 13.713-1.359 1.076-3.012 1.89-4.89 2.437-4.04 1.172-9.59 1.149-13.612-.062m-.5-14.503c-.859 1.949-.857 4.59-.003 6.536.802 1.82 2.354 3.058 4.231 3.638 1.99.616 4.334.616 6.326 0 1.515-.47 2.678-1.303 3.485-2.392 1.565-2.11 1.793-5.4.742-7.788-2.429-5.524-12.354-5.497-14.781.006m39.495 14.294l-14.203-22.552c2.733-.047 5.503-.194 8.321-.45l8.949 15.036 4.99-16.995c2.668-.471 5.291-.975 7.907-1.486l-8.049 24.973a130 130 0 0 1-7.915 1.474m23.582-5.022l-2.199-22.485c2.475-.483 4.952-.958 7.448-1.403l2.192 22.4c-2.49.453-4.956.953-7.441 1.488m34.113-8.037l-11.96.247-1.867 4.513c-2.76.256-5.427.588-8.043.984l10.348-23.874c2.935-.208 5.872-.296 8.805-.277l13.217 23.087a153 153 0 0 0-8.136-.426zm-2.258-4.15l-4.522-8.344-3.484 8.512z" fill="#d11533"/></g></svg>