<svg shape-rendering="geometricPrecision" viewBox="1 1 153.25 250" xmlns="http://www.w3.org/2000/svg"><path d="m77.633 247.712v.003l-75.507-245.994h75.507z" fill="#8b0304"/><path d="m77.633 247.712v.003l75.483-246.018h-75.483z" fill="#00225c"/><path d="m77.633 247.712v.003l-72.15-235.055h72.15z" fill="#00245d"/><path d="m77.633 247.712v.003l72.15-235.056h-72.15z" fill="#8b0e04"/><g fill="#ffd200"><g fill-rule="evenodd"><path d="m68.32 44.602c-1.022-2.855-2.484-5.653-4.18-8.572 2.03.22 4.653 3.777 6.623 3.348q-1.534 3.002.988 3.336c1.348-.261 1.501-1.447.471-3.321 4.069-.042 2.402-2.58 4.24-3.228 1.723.358.498 3.267 4.77 3.762-1.122 1.886-.543 2.844.724 3.117 1.91.036 2.051-1.14.781-3.042 2.567.094 4.15-2.669 6.182-2.897-1.801 3.303-2.963 8.035-2.384 9.374 6.06 1.27 5.429-1.925 6.492-1.4.378 4.285-.856 6.94-4.3 7.507a28.464 28.464 0 0 0 4.696 13.307c-4.279-1.375-6.257-.985-7.431 1.474-1.01-1.756-2.102-5.086-2.9-5.089-.532.018-1.92 4.714-3.327 6.83-.847-.729-1.177-6.926-5.288-3.882-.979.04-1.342-2.101-.192-2.753 2.504.856 4.204-.555 3.711-4.077-.234-1.646-3.336-5.612-5.756-8.305l1.928.195q.537 2.384 2.033 2.351c1.774 0 1.834-1.237-.649-2.156 3.528-.153 6.005-.79 5.54-1.91-.493-.693-2.75 1.589-6.744-.474-1.52.105-3.852 2.168-7.48-.952-.71.63 4.787 2.468 8.672 9.51 1.267 2.984.6 4.473-2.12 4.554a44.017 44.017 0 0 1 -7.683-.534c-1.018-.3-1.712-1.057-2.252-2.009 5.969.96 10.578 1.357 10.335-.267.327-3.393-5.954-5.405-8.612-6.161-1.402-.223-2.609.384-3.855 1.456q-2.195-3.81.144-7.617c7.807-.457 23.474-.07 23.39-1.373-.048-.723-10.905-.045-16.559-.099"/><path d="m54.832 51.835c.922-.468 1.885 3.366 5.215 3.363 7.545.093 11.335.835 11.347 1.39-.054.577-6.792-.79-12.091.201-.3.259.06 5.246.828 5.591.388.3 1.201-.054 1.46.267.5 1.856-6.168 1.66-5.828.135-.078-.648 1.765.346 2.45-.636l-.199-5.558c-1.97-.85-2.975-2.48-3.18-4.756"/><path d="m73.174 147.468 4.468-4.519 4.47 4.519-4.47 4.519z"/><path d="m71.583 73.694a21.558 21.558 0 0 0 3.69-7.732c2.318-1.405 3.207 5.062 4.6 5.945a30.986 30.986 0 0 0 3.423-5.62 16.604 16.604 0 0 0 2.834 3.837c1.594-2.892 4.203-4.606 5.936-2.703 3.002 4.852-1.048 3.672 2.138 13.244.3 1.063-2.958-2.035-4.438-2.486-.514-.102-1.075 3.889-3.303 4.921-.874.199-1.96-4.287-3.26-4.864-.601.469-.874 4.36-3.423 5.03-.802.108-3.003-4.976-3.531-10.056q-2.967 1.108-4.651.487"/><path d="m67.71 84.08c7.986.942 5.032-8.303 7.335-9.164.876 1.014 1.483 9.094 4.45 10.082q3.089-.084 4.203-3.165 1.483 2.75 3.303 3.498c1.072-.471 2.279-1.777 3.789-4.915 5.068.988.48 12.121 1.648 21.495-1.756.82-4.12-1.57-6.755-5.404-1.736 3.903-3.564 6.434-5.522 6.998q-1.895.084-2.471-8.83c-1.73 1.708-3.324 2.79-4.615 2.498-1.801-1.423-2.177-4.825-1.564-9.58-1.649-.53-3.02-1.202-3.79-3.502"/><path d="m60.627 94.486c.771 2.08 1.834 2.948 3.75 2.948 1.825-.414 3.603-1.534 5.32-3.687.856 3.228 1.9 5.486 3.216 5.465 2.288-.334 2.216-.883 3.303-1.432 1.026 5.323 2.477 8.286 4.545 7.806 1.868-.168 3.498-2.402 5.018-5.552q1.477 1.835 3.476 1.823c-3.984 14.712-6.671 23.014-1.63 25.416-3.741 2.835-8.683.694-10.01-5.551-1.153.366-3.552 4.918-6.462 4.683-1.222-4.566-2.251-9.136-3.473-13.706-1.427 1.33-3.4 2.102-6.567 1.844.838-3.003 1.763-8.948.49-10.81-4.111-4.059-3.525-5.857-.982-9.256m-7.323-21.17c-.838-.262 2.357-4.823 3.395-4.616.868.28-.666 6.738-2.45 8.497-.576-.41 1.354-4.314.835-4.783-.483.021-1.201.601-1.78.901m-4.148 11.626c-1.069-.9.483-11.377 2.12-11.536 1.12-.183 1.327 3.648.747 6.57-.735.378-.678-1.474-.996-2.231-1.321-.267-1.117 6.386-1.87 7.206m.984 3.041c-1.264-.948 3.468-8.848 4.203-8.887.865-.108-.3 10.875-2.125 13.013-1.36.3.957-6.41.228-6.906-.6-.462-1.531 2.615-2.297 2.79m-.462 14.697c-2.192-3.165-2.859-13.659-1.976-14.142.54-.19 3.513 5.158 3.14 8.965-.741.36-1.486-4.458-1.924-3.996-1.267 1.06 1.52 8.524.76 9.173m.96 1.741c.171-5.317 2.616-11.88 3.648-11.938 1.075.102.85 10.248-.76 15.37-.6-.3.15-6.353-.456-8.302-.747.036-1.666 5.483-2.432 4.867m2.826 12.92c-2.621-1.916-5.438-10.875-4.444-12.061.363-.487 5.669 6.113 5.038 7.095-.441.39-2.102-2.531-2.588-2.378-1.05.561 2.204 6.227 1.994 7.344m2.498 3.408c-1.52-1.36-.862-12.911-.036-13.127s3.48 12.79 2.101 14.085c-.978-.33-.735-8.15-1.68-7.912-.433.225.152 7.227-.385 6.954m3.966 10.602c-.802.624-8.785-10.254-7.506-11.602.807-.856 7.44 5.9 6.734 6.996-.393.88-2.945-2.528-3.05-1.649.663 2.321 4.345 5.816 3.813 6.255m3.126 2.927c-2.07 0-3.967-12.535-2.985-13.718.961-.574 6.59 13.577 5.474 14.412-1.072.66-3.14-9.308-4.012-8.708-.519.448 2.012 7.96 1.526 8.002m8.488 10.368c-.901 1.162-11.776-7.888-10.911-10.023.45-1.012 5.773 1.844 7.827 5.279-.066 1.5-2.666-1.874-2.885-.94 1.891 3.44 6.269 4.426 5.972 5.684m-5.249-13.061c-.198.477.196 8.037 11.335 16.673-1.021-3.069-3.063-8.224-4.09-9.933-2.759-5.104-7.02-7.278-7.245-6.737m3.261 4.203a5.044 5.044 0 0 0 1.138 3.372 8.527 8.527 0 0 0 2.426 2.3c.12-.733-.171-1.838-1.06-3.489-.747-1.12-1.555-1.964-2.5-2.174zm32.41-62.479c.837-.261-2.358-4.822-3.397-4.615-.87.28.667 6.738 2.45 8.497.577-.41-1.354-4.314-.834-4.783.483.021 1.2.601 1.78.901m4.15 11.626c1.068-.9-.484-11.377-2.12-11.536-1.12-.183-1.33 3.648-.748 6.57.736.378.679-1.474.997-2.231 1.321-.267 1.117 6.386 1.87 7.206m-.987 3.041c1.264-.948-3.468-8.848-4.204-8.887-.865-.108.3 10.875 2.126 13.013 1.36.3-.958-6.41-.231-6.906.6-.462 1.531 2.615 2.297 2.79m.468 14.697c2.192-3.165 2.858-13.659 1.976-14.142-.54-.19-3.513 5.158-3.14 8.965.74.36 1.485-4.458 1.924-3.996 1.267 1.06-1.523 8.524-.76 9.173m-.964 1.741c-.17-5.317-2.615-11.88-3.648-11.938-1.075.102-.85 10.248.76 15.37.6-.3-.15-6.353.456-8.302.748.036 1.667 5.483 2.432 4.867m-2.837 12.92c2.624-1.916 5.437-10.875 4.444-12.061-.36-.487-5.67 6.113-5.039 7.095.442.39 2.102-2.531 2.589-2.378 1.05.561-2.204 6.227-1.994 7.344m-2.486 3.408c1.52-1.36.859-12.911.036-13.127s-3.48 12.79-2.102 14.085c.979-.33.736-8.15 1.679-7.912.432.225-.15 7.227.384 6.954m-3.96 10.602c.801.624 8.785-10.254 7.506-11.602-.808-.856-7.44 5.9-6.735 6.996.394.88 2.946-2.528 3.05-1.649-.663 2.321-4.344 5.816-3.812 6.255m-3.141 2.927c2.069 0 3.966-12.535 2.984-13.718-.96-.574-6.59 13.577-5.473 14.412 1.072.66 3.14-9.308 4.011-8.708.52.448-2.011 7.96-1.525 8.002m-8.476 10.368c.9 1.162 11.776-7.888 10.911-10.023-.45-1.012-5.774 1.844-7.828 5.279.067 1.5 2.667-1.874 2.886-.94-1.889 3.44-6.27 4.426-5.97 5.684m5.246-13.061c.198.477-.195 8.037-11.334 16.673 1.02-3.069 3.062-8.224 4.092-9.933 2.76-5.104 7.02-7.278 7.245-6.737m-3.26 4.203a5.044 5.044 0 0 1 -1.138 3.372 8.527 8.527 0 0 1 -2.426 2.3c-.12-.733.17-1.838 1.06-3.489.744-1.12 1.555-1.964 2.5-2.174z"/></g><path d="m24.603 18.715a3.723 3.723 0 0 0 -1.342-.544 12.52 12.52 0 0 0 -2.117-.129h-3.55v13.662h2.883v-5.064h.637a12.31 12.31 0 0 0 2.402-.162 3.363 3.363 0 0 0 1.408-.732 4.348 4.348 0 0 0 1.558-3.486 3.993 3.993 0 0 0 -1.88-3.546m-1.8 4.95c-.301.166-.902.268-1.751.265h-.568v-3.18h.667a4.444 4.444 0 0 1 1.633.202 1.348 1.348 0 0 1 .832 1.324 1.438 1.438 0 0 1 -.82 1.38zm109.753-6.151 4.278-2.258-1.123-2.198-4.41 2.606 1.065 1.949zm3.422.522v9.02l-5.16-9.023h-3.136v13.662h2.886v-9.008l5.212 9.008h3.084v-13.661zm-88.174-.261a6.906 6.906 0 0 0 -5.444 2.492 6.726 6.726 0 0 0 -1.699 4.525 7.1 7.1 0 0 0 7.134 7.16 6.906 6.906 0 0 0 5.03-2.074 7.068 7.068 0 0 0 0-10.031 6.906 6.906 0 0 0 -5.021-2.075zm3.002 10.187a4.158 4.158 0 0 1 -6.005 0 4.204 4.204 0 0 1 -1.24-3.074 4.303 4.303 0 0 1 1.243-3.11 3.987 3.987 0 0 1 3.003-1.289 4.038 4.038 0 0 1 3.002 1.276 4.474 4.474 0 0 1 0 6.191zm54.697-10.19a6.906 6.906 0 0 0 -5.432 2.495 6.726 6.726 0 0 0 -1.699 4.525 7.1 7.1 0 0 0 7.134 7.16 6.906 6.906 0 0 0 5.03-2.074 7.068 7.068 0 0 0 0-10.031 6.906 6.906 0 0 0 -5.033-2.075m3.003 10.187a4.158 4.158 0 0 1 -6.005 0 4.222 4.222 0 0 1 -1.253-3.071 4.309 4.309 0 0 1 1.244-3.11 3.987 3.987 0 0 1 3.002-1.289 4.038 4.038 0 0 1 3.003 1.276 4.474 4.474 0 0 1 0 6.191zm-24.579-3.434h-9.05v2.717h5.405a4.113 4.113 0 0 1 -1.351 1.372 3.993 3.993 0 0 1 -2.177.61 4.363 4.363 0 0 1 -3.207-1.262 4.222 4.222 0 0 1 -1.279-3.146 4.384 4.384 0 0 1 .988-2.774 4.3 4.3 0 0 1 5.26-1.1 3.843 3.843 0 0 1 1.436 1.292l.066.096h3.35l-.105-.3a6.065 6.065 0 0 0 -2.549-3.06 7.353 7.353 0 0 0 -8.329.144 6.996 6.996 0 0 0 -2.215 2.534 7.086 7.086 0 0 0 -.787 3.306 6.696 6.696 0 0 0 .507 2.519 6.95 6.95 0 0 0 3.88 3.88 7.837 7.837 0 0 0 3.02.6 7.086 7.086 0 0 0 3.024-.694 7.206 7.206 0 0 0 2.498-1.882 6.515 6.515 0 0 0 1.63-4.315v-.327zm-25.44 135.146a11.26 11.26 0 0 0 2.342-.372 9.248 9.248 0 0 0 1.93-.835h.649v11.347a.706.706 0 0 0 .177.513.652.652 0 0 0 .487.183h1.648v.862h-6.879v-.862h1.294a.922.922 0 0 0 .706-.228 1.09 1.09 0 0 0 .21-.748v-8.407a.6.6 0 0 0 -.174-.456.75.75 0 0 0 -.52-.16h-1.87zm15.583 5.513-.144.12a3.519 3.519 0 0 1 -2.402 1.057 3.078 3.078 0 0 1 -2.081-.79q-1.18-1.02-1.18-2.882a5.224 5.224 0 0 1 .528-2.402 3.753 3.753 0 0 1 1.472-1.592 4.252 4.252 0 0 1 2.194-.555 3.618 3.618 0 0 1 3.033 1.426q1.321 1.726 1.318 4.636 0 3.44-1.603 5.56-1.426 1.874-3.492 1.874a3.255 3.255 0 0 1 -2.174-.724 2.102 2.102 0 0 1 -.859-1.609 1.603 1.603 0 0 1 .4-1.126 1.276 1.276 0 0 1 .985-.441 1.15 1.15 0 0 1 .873.381 1.34 1.34 0 0 1 .349.943 1.892 1.892 0 0 1 -.232.787 1.141 1.141 0 0 0 -.135.447.39.39 0 0 0 .162.324.97.97 0 0 0 .583.165 1.69 1.69 0 0 0 1.144-.513 3.663 3.663 0 0 0 .9-1.742 13.691 13.691 0 0 0 .36-3.341zm-1.613-6.191a1.375 1.375 0 0 0 -1.2.73q-.457.735-.457 2.54c0 1.044.138 1.783.411 2.221a1.261 1.261 0 0 0 1.105.652 1.52 1.52 0 0 0 1.27-.799q.532-.793.529-2.402c0-1.084-.198-1.88-.6-2.381a1.321 1.321 0 0 0 -1.058-.558zm12.038-.8h.825v8.954h1.778v1.018h-1.772v1.576a.733.733 0 0 0 .207.571.922.922 0 0 0 .652.192h.468v.862h-5.527v-.862h.9a.93.93 0 0 0 .718-.213 1.171 1.171 0 0 0 .246-.826v-1.297h-4.552v-1.249zm-1.502 3.652-3.672 5.302h3.672zm11.962 1.891q1.58.7 2.177 1.553a3.603 3.603 0 0 1 .6 2.135 4.128 4.128 0 0 1 -1.18 3.06q-1.173 1.176-3.197 1.176-1.96 0-3.066-.946a3.042 3.042 0 0 1 -1.102-2.42 2.822 2.822 0 0 1 .6-1.843c.412-.502 1.15-.94 2.21-1.327q-1.338-.673-1.843-1.445a3.303 3.303 0 0 1 -.504-1.843 3.519 3.519 0 0 1 1.087-2.588 3.711 3.711 0 0 1 2.735-1.084 4.008 4.008 0 0 1 2.633.826 2.438 2.438 0 0 1 1 1.918 2.552 2.552 0 0 1 -.468 1.483 4.924 4.924 0 0 1 -1.682 1.346m-.684-.262a3.423 3.423 0 0 0 .97-1.06 2.657 2.657 0 0 0 .255-1.222 2.222 2.222 0 0 0 -.58-1.597 2.006 2.006 0 0 0 -1.525-.6 1.946 1.946 0 0 0 -1.432.54 1.982 1.982 0 0 0 -.027 2.702q.525.526 2.339 1.225zm-1.502 2.003a2.732 2.732 0 0 0 -1.252 1.015 3.078 3.078 0 0 0 -.399 1.66 2.747 2.747 0 0 0 .658 1.952 2.288 2.288 0 0 0 1.753.7 2.582 2.582 0 0 0 1.85-.661 2.237 2.237 0 0 0 .705-1.703 1.985 1.985 0 0 0 -.693-1.594q-.685-.606-2.619-1.384z"/><path d="m77.627 251.003-76.627-250.003h153.25zm-74.018-248.075 74.018 241.497 74.023-241.497z"/></g></svg>