<svg xmlns="http://www.w3.org/2000/svg" viewBox="0 0 300 217.4"><path d="M14.918 19.667C35.944 11.484 62.59 4.466 88.66 4.392c19.68-.057 35.44 3.868 51.843 10.623 29.753 12.253 59.428 31.992 102.889 41.208 16.363 3.47 36.02 5.322 56.609 5.723-23.435 42.688-43.146 58.152-67.914 65.266-26.738 7.682-55.047 1.468-83.124-.585-23.155-1.694-42.318-.062-61.808 8.05-7.343 3.056-16.68 8.645-24.443 14.72a123.297 123.297 0 0 0-9.854 8.605c-3.483 3.38-5.805 6.264-9.979 9.182l9.321 49.175-6.16 1.039L8.653 18.884C3.807 18.475 0 14.412 0 9.46 0 4.237 4.235.001 9.459.001s9.46 4.236 9.46 9.458a9.452 9.452 0 0 1-4.419 8.005zm26.035 137.35c.923-7.184 1.356-12.55 1.535-17.99.728-22.193-1.72-34.05-4.574-49.58-2.84-15.45-6.535-33.09-13.162-47.71a81.039 81.039 0 0 0-8.359-14.289z" fill="#cca227"/><path d="M17.508 22.701c4.272 5.314 7.94 11.447 10.674 17.481 6.83 15.067 10.456 32.375 13.436 48.585.758 4.124 1.538 8.244 2.225 12.381.933 5.618 1.66 11.223 2.076 16.904.512 7.024.564 14.062.333 21.098-.244 7.447-1.049 14.81-2.073 22.162a47.096 47.096 0 0 0 1.6-1.519c1.499-1.486 2.942-3.023 4.457-4.494a127 127 0 0 1 10.156-8.869c7.458-5.836 16.6-11.602 25.317-15.23 20.84-8.674 41.181-9.964 63.53-8.33 5.14.376 10.27.888 15.394 1.43 21.82 2.304 44.94 5.461 66.415-.708a91.017 91.017 0 0 0 7.845-2.63c11.14-4.331 20.292-10.75 28.653-19.256 10.238-10.417 18.79-23.335 26.123-36.158-17.022-.563-34.518-2.134-51.058-5.641-20.125-4.267-38.733-11.156-57.376-19.727-15.414-7.086-30.493-15.228-46.165-21.682-16.7-6.877-32.196-10.392-50.398-10.34-23.772.068-48.837 5.974-71.164 14.543" fill="#fff" fill-rule="evenodd"/><path d="M239.281 64.52c-19.544-4.357-38.03-11.237-56.224-19.601-15.378-7.07-30.316-15.15-45.973-21.598-15.977-6.58-31.064-9.997-48.398-9.948-21.02.06-42.88 4.794-62.88 11.832a89.8 89.8 0 0 1 7.127 12.824c2.526 5.574 4.616 11.373 6.399 17.29 21.01-9.041 34.01-13.404 57.308-12.44 8.213.339 18.59.614 28.8 1.487 10.77.92 21.67 2.78 32.143 5.42 15.053 3.793 28.68 8.408 47.468 10.948 10.587 1.432 22.758 3.058 34.23 3.786M50.434 110.459c.278 2.399.51 4.803.686 7.213.525 7.203.582 14.433.344 21.648a169.864 169.864 0 0 1-.472 8.163 130.176 130.176 0 0 1 6.186-5.16c7.923-6.2 17.23-12.069 26.527-15.939 21.592-8.987 42.833-10.403 65.914-8.715 5.196.38 10.38.896 15.562 1.444 21.01 2.219 43.774 5.4 64.428-.533a85.726 85.726 0 0 0 7.394-2.48c9.299-3.615 17.127-8.81 24.257-15.534-25.342 3.172-56.098.73-80.237-2.697-19.889-2.822-39.334-7.77-59.16-7.122-23.887.78-48.065 5.787-71.43 19.712" fill="#2c743a"/><path d="M102.966 27.639l56.937 11.923-1.36 50.233c-.418 15.399-12.291 25.078-27.509 22.328-15.149-2.737-27.753-18.32-27.828-34.065z" fill="#cca227"/><path d="M105.297 30.977l.227 47.07c.068 14.364 11.542 28.81 25.842 31.394 5.741 1.038 10.679.028 14.609-2.127 6.335-3.473 10.052-10.31 10.295-19.232l1.263-46.327z" fill="#ad2827"/><path d="M115.84 61.785l1.68.37c.405 4.99 6.702 7.752 12.594 8.785-.249-3.442-2.638-8.5-9.906-9.652v-1.052l22.391 4.519v1.026c-8.371-1.547-9.88 2.532-9.952 5.533 4.543.66 12.538 1.893 12.567-3.634l1.653.367V81.96l-1.667-.337c-1.025-5.898-7.795-7.793-12.482-8.787.292 2.78 1.638 7.956 9.881 9.39v1.24l-22.39-4.52v-1.053c3.043.517 5.144.315 6.598-.182 2.926-1.002 3.227-3.467 3.307-5.396-4.785-.884-12.095-1.653-12.706 3.715l-1.567-.332zm0 20.57l1.68.371c.405 4.99 6.702 7.751 12.594 8.785-.249-3.442-2.638-8.5-9.906-9.652v-1.052l22.391 4.518v1.026c-8.371-1.546-9.88 2.533-9.952 5.534 4.543.66 12.538 1.893 12.567-3.634l1.653.366v13.914l-1.667-.336c-1.025-5.898-7.795-7.793-12.482-8.787.292 2.78 1.638 7.956 9.881 9.39v1.24l-22.39-4.52v-1.053c3.043.517 5.144.315 6.598-.182 2.926-1.002 3.227-3.467 3.307-5.396-4.785-.884-12.095-1.653-12.706 3.715l-1.567-.332z" fill="#fefefe"/><path d="M115.84 57.308c12.67.487 22.68 2.753 30.867 6.236l5.438-15.994c-2.878.316-7.304 2.077-9.996 4.639 2.428 1.573 3.44 3.04 2.879 4.399l-4.003-.808-1.348-3.593-1.699 2.978-4.4-.887c-.041-2.108 1.058-3.708 2.938-4.96-2.667-2.483-4.174-6.664-5.32-10.137-1.455 4.236-3.031 6.867-5.127 7.973 1.737 1.507 2.94 3.416 2.97 6.208l-4.462-.9-1.487-3.622-1.437 3.031-4.373-.882c.48-1.734.878-2.506 3.598-2.957-2.578-3.113-6.322-6.139-10.395-9.038zm-72.129 5.276l1.44 6.078 2.238-.96 4.959 24.87-1.92 1.04 1.2 7.355 10.156-5.116-.8-6.558-2.079.8-2.387-12.489L69.46 92.331l6.637-3.037-.56-6.397-2.558 1.279-8.796-10.316 3.918-13.834 3.359-.959-.16-6.158-9.117 2.96-6.16 19.146-1.916-10.03 1.36-.56-1.2-5.839zm51.478-13.09l.24 10.992-6.243 1.203c-.053-3.262-1.582-5.719-4.242-5.696-1.65.014-3.253 1.348-3.204 3.543.054 2.417 1.805 3.494 4.614 4.577 4.382 1.69 10.81 2.745 10.915 11.775.051 4.284-1.242 10.972-8.324 11.151-2.588.067-4.534-.186-7.122-1.122l-.08.882-3.761 1.283-.88-13.236 6.402-.401c.293 4.466 1.929 5.695 4.402 5.455 1.878-.183 2.85-1.974 2.88-3.69.033-1.875-.774-3.224-2.418-4.162-2.403-1.37-6.153-2.043-8.842-3.696-2.658-1.633-3.808-4.46-4.025-7.625-.558-8.144 5-11.114 9.284-11.312 2.32-.107 3.68.187 6.242 1.283l.08-.962zm71.35 10.292l-.318 4.467 1.577.282-1.446 18.975-1.488-.235-.324 5.139 15.433 2.079.8-11.756-4.319-.6-.4 6.837-4.477-.56 1.279-18.95 1.68.239.32-4.478zm18.33 4.073l-.318 4.027 1.415.269-1.525 18.225-1.488-.225-.324 4.833 15.993 1.988.634-8.596-4.713-.491-.4 3.81-4.877-.536.45-7.024 5.104.828.372-3.958-5.09-.795.843-7.25 4.88.796-.515 4.85 4.641.435.907-8.21zm33.518 5.686l-.998 8.398-4.656-.584.166-1.827c.118-1.296-.966-2.076-2.06-2.28-1.406-.261-2.937.429-3.096 2.194l-.997 11.059c-.148 1.64 1.066 3.039 2.405 3.081 1.488.047 2.73-.585 2.917-2.998l.167-2.16 4.573.5-.334 4.489c-.335 4.521-4.037 5.39-7.773 4.949-1.789-.212-3.34-.685-4.52-1.486-1.727-1.17-2.695-3.043-2.414-5.812l1.32-13.03c.2-1.969.828-3.327 1.938-4.267 1.043-.884 2.513-1.413 4.456-1.429 1.836-.015 3.064.435 4 1.119l.666-.498zm22.082 1.516l.039 3.794 1.396.001-.16 16.765-1.518-.002-.007 3.755 8.656-.125-.004-3.67h-1.722l-.172-16.723h1.653l-.046-3.795zm-19.875-1.043l-.187 4.338 1.256.044-1.092 16.514-1.538-.044-.226 4.214 7.644.29.212-4.211-1.186-.084.414-6.618 5.443.315-.368 6.538-1.54-.043-.076 4.152 7.78.16.104-4.19-1.397-.083.53-16.353 1.374.123.195-4.15-7.146-.37-.2 4.275 1.3.042-.341 6.063-5.419-.31.377-6.022 1.413.083.181-4.297zm32.717 1.023l-1.662 20.04h-1.164l.165 3.658 7.068-.415-.332-3.659-1.663.084.35-3.603 4.654-.434.982 3.204-1.496.25.416 3.827 7.733-1.248-.499-3.826-.997.167-5.571-18.876zm3.012 13.507l.897-9.267 2.743 8.94z" fill="#cca227"/></svg>