<svg viewBox="0 0 61.1 98.07" xmlns="http://www.w3.org/2000/svg"><path d="m30.69 98.07c-.75 0-1.44-.4-1.85-1.07l-.19-.31c-.13-.23-.27-.46-.42-.68-.83-1.24-1.9-2.33-3.28-3.33-1.17-.86-2.52-1.65-4.23-2.49-1.11-.55-2.23-1.09-3.34-1.62-.66-.32-1.33-.64-1.99-.96-1.77-.87-3.29-1.75-4.65-2.69-2.09-1.43-3.75-3.02-5.09-4.86-1.59-2.18-2.69-4.64-3.36-7.54-.26-1.09-.46-2.26-.58-3.46-.12-1.18-.18-2.11-.17-3 .02-1.51.03-3.02.03-4.52 0-4.15.08-24.37.12-32.88 0-2.27.02-3.71.02-3.79 0-.96-.15-1.32-.5-1.83-.1-.15-.22-.27-.33-.39-.22-.24-.49-.55-.71-.94-.12-.21-.18-.45-.18-.69v-.25c0-.28.08-.55.23-.78.01-.02.06-.08.09-.12.4-.7 1.08-1.12 1.85-1.12.25 0 .5.04.75.12 0 0 .23.07.24.08 1.69.59 3.39.92 5.05.97.23 0 .44.01.65.01.23 0 .47 0 .7-.02l-3.69-4.18c-.3-.34-.61-.68-.91-1.03-.8-.94-.73-2.21.19-3.04.11-.1.22-.19.34-.29 1.38-1.12 2.92-2.09 4.78-2.99 2.18-1.07 4.44-1.93 6.39-2.65.9-.34 1.81-.67 2.72-1 1.32-.48 2.63-.97 3.94-1.46 2.51-.96 4.53-1.9 6.34-2.96.39-.22.77-.32 1.15-.32.45 0 .89.14 1.3.42.95.63 2.02 1.22 3.36 1.84 1.8.83 3.71 1.52 5.51 2.15l.73.26c1.92.67 3.9 1.36 5.82 2.17 2.52 1.06 4.61 2.2 6.41 3.48.62.44 1.23.92 1.82 1.4 1.04.82 1.19 2.11.42 3.11l-4.2 5.1h.4a16.416 16.416 0 0 0 4.36-.6c.4-.11.8-.24 1.2-.37l.32-.1c.25-.08.48-.11.71-.11.77 0 1.43.4 1.82 1.07a1.434 1.434 0 0 1 .28.84v.47c0 .32-.11.63-.31.88l-.39.48c-.06.08-.15.18-.24.28l-.09.11c-.41.53-.62 1.1-.62 1.78 0 .4.01 3.67.04 8.22.05 10.45.12 27.95.12 32.94 0 1.29-.07 2.5-.21 3.68-.19 1.6-.48 3.04-.88 4.4-1.16 3.97-3.34 7.29-6.48 9.86-1.47 1.2-3.16 2.3-5.02 3.25-1.21.62-2.43 1.21-3.65 1.81l-1.5.73c-1.35.66-2.78 1.38-4.11 2.22-2.44 1.52-4.09 3.17-5.19 5.19-.22.37-.54.68-.9.87-.32.17-.65.25-.98.25z" fill="#fff"/><path d="m59.7 20.66v.46c-.13.16-.26.33-.4.49-.1.12-.22.24-.32.37-.62.78-.97 1.66-.95 2.68.03 1.34.14 33.79.17 41.16 0 1.17-.06 2.34-.2 3.51-.17 1.41-.44 2.8-.83 4.17-1.07 3.67-3.04 6.74-6.01 9.17a26.47 26.47 0 0 1 -4.77 3.09c-1.7.87-3.42 1.69-5.13 2.53-1.44.71-2.88 1.43-4.25 2.29-2.34 1.46-4.33 3.25-5.67 5.71-.07.13-.2.24-.33.31-.35.19-.75.05-.97-.31-.21-.35-.41-.71-.64-1.05-.97-1.46-2.21-2.65-3.61-3.68-1.39-1.02-2.89-1.86-4.44-2.62-1.77-.87-3.56-1.71-5.34-2.58-1.55-.76-3.05-1.59-4.47-2.57-1.83-1.26-3.44-2.73-4.76-4.53-1.55-2.12-2.54-4.49-3.13-7.03-.25-1.08-.43-2.18-.55-3.29-.1-.94-.17-1.89-.16-2.84.02-1.51.15-41.11.16-41.21.08-.97-.19-1.84-.74-2.63-.3-.43-.72-.76-.97-1.22v-.26c.04-.05.09-.1.12-.16.2-.39.54-.53.97-.4.07.02.15.05.22.08 1.77.62 3.59.98 5.47 1.05 1.18.04 2.36-.04 3.53-.21.21-.03.42-.08.67-.12-.08-.1-.14-.17-.19-.23-1.6-1.81-3.19-3.62-4.79-5.43-.45-.51-.91-1.02-1.36-1.54-.31-.36-.27-.78.07-1.09.11-.1.22-.19.33-.28 1.37-1.12 2.88-2 4.46-2.78 2.03-1 4.13-1.81 6.25-2.59 2.23-.82 4.47-1.63 6.69-2.47 2.26-.86 4.46-1.83 6.55-3.05.33-.19.64-.17.96.04 1.13.75 2.32 1.38 3.55 1.95 1.84.85 3.73 1.53 5.64 2.2 2.17.77 4.35 1.51 6.47 2.4 2.16.91 4.23 1.97 6.15 3.33.63.45 1.23.93 1.83 1.41.38.3.41.72.11 1.11-.07.09-.15.19-.23.28-1.82 2.21-3.64 4.41-5.45 6.62-.04.06-.08.12-.13.19.12.02.2.05.29.06 1.29.17 2.58.26 3.89.17 1.25-.08 2.48-.28 3.68-.62.53-.15 1.04-.32 1.57-.49.43-.13.76.01.95.41.01.02.03.04.05.05m-36.76 44.5v-.41c-.08-.74-.14-1.48-.13-2.23.01-.67.11-1.32.39-1.95.24-.55.32-1.13.23-1.73-.05-.3-.1-.61-.12-.91-.03-.61.08-1.17.48-1.66.14-.16.26-.34.39-.51.26-.36.41-.77.45-1.21.06-.68.1-1.36.17-2.05.09-.9.05-1.79-.21-2.67-.19-.65-.21-1.31-.08-1.98.16-.81.31-1.61.45-2.42a7.79 7.79 0 0 0 -.06-3.08c-.2-.9-.41-1.8-.61-2.7-.17-.74-.34-1.48-.54-2.22-.17-.65-.43-1.26-.82-1.82-.49-.71-1.16-1.13-2.03-1.26-.37-.06-.73-.17-1.08-.3-.28-.09-.51-.28-.67-.54a.265.265 0 0 0 -.05-.06c.08.32.3.51.57.65.37.2.78.3 1.2.36.49.07.95.23 1.34.54s.68.69.91 1.13c.3.56.51 1.16.66 1.78.34 1.43.66 2.87.98 4.3.23 1.03.28 2.07.1 3.11-.12.71-.24 1.42-.39 2.12-.18.84-.2 1.67.04 2.51.14.49.25 1 .22 1.52-.05.99-.13 1.98-.2 2.97-.04.52-.22.98-.55 1.39-.07.09-.13.18-.21.26-.52.6-.63 1.31-.53 2.07.04.3.09.59.12.89.05.53-.07 1.04-.29 1.52-.19.44-.3.91-.33 1.39-.06.89 0 1.78.11 2.66 0 .04.05.08.07.12v.41c.03.18.06.36.09.55 0-.19.04-.39-.1-.55m-9.08 5.02c.24.15.51.19.78.15.2-.04.25-.09.28-.29a.8.8 0 0 1 .53-.02c.13.03.27.08.43-.02a1.24 1.24 0 0 0 -.19-.16c-.12-.07-.14-.17-.12-.3.14-1.22.11-2.44.09-3.66 0-.09-.03-.17-.05-.31-.38.34-.73.64-1.09.96.11.05.18.08.23.1.11.22.07.41-.08.58-.01.01 0 .04 0 .07h.22c-.1.18-.18.35-.28.53h.24c-.09.2-.18.38-.27.58.1 0 .18 0 .27.01-.02.27-.04.54-.07.85-.03-.13-.03-.22-.08-.27-.15-.18-.17-.41-.21-.62-.09-.45-.17-.91-.26-1.36-.03-.13-.08-.25-.13-.4-.31.12-.58.22-.89.34.16.14.29.25.42.36-.74-.26-1.44-.28-2.09.26.08.2.07.43.24.61.56.57 1.1 1.15 1.66 1.71.12.12.29.2.44.3m6.37-41.39-.03.24h.04c0-.08 0-.16-.01-.24 0-.02-.02-.05-.03-.07-.21-.99-.81-1.66-1.74-2.03a3.61 3.61 0 0 0 -1.84-.22c-.75.09-1.43.36-2 .85-.5.42-.72.96-.66 1.62.04.49.21.94.43 1.36.31.58.67 1.14.98 1.71.17.3.32.61.43.93.17.54 0 .91-.49 1.18-.23.12-.48.22-.73.31-.47.18-.96.33-1.42.52-.97.4-1.61 1.1-1.88 2.13-.17.66-.29 1.32-.36 1.99-.13 1.34-.12 2.68.07 4.02.11.79.43 1.47 1.03 2.01.11.1.22.2.32.3.14.15.29.29.41.46.32.45.24 1.17-.19 1.52-.18.14-.25.28-.24.5 0 .05 0 .1-.02.15-.15.52-.04 1.02.19 1.49.11.21.23.42.34.63.26.48.37.99.38 1.53.01.57-.12 1.1-.28 1.64-.12.43-.26.85-.34 1.29-.13.7-.25 1.4-.34 2.1s-.24 1.39-.35 2.09c-.11.76-.26 1.52-.47 2.26a11 11 0 0 0 -.4 3.12c0 .74.02 1.49 0 2.23-.02.71-.11 1.41-.41 2.07-.31.68-.58 1.37-.88 2.05-.23.52-.29 1.07-.28 1.63l.03 2.18c0 .07 0 .15.01.22h15.02v-.22-1.15c.01-.5.05-.99.05-1.49 0-.32-.08-.63-.19-.93-.01.05 0 .1 0 .15.11.52.15 1.05.09 1.58-.06.54-.1 1.09-.06 1.64v.23h-14.36c-.12 0-.23-.01-.36-.02v-2.3h.26c.74.03 1.47.08 2.21.08 3.61.04 7.22.06 10.84-.04.33 0 .65-.03.97-.05.04 0 .08-.02.12-.03a.27.27 0 0 0 -.17-.07c-.7-.05-1.4-.13-2.1-.14-1.73-.03-3.46-.04-5.19-.04-1.42 0-2.84.02-4.26 0-.9 0-1.79-.06-2.69.13-.03-.36-.02-.72.11-1.06.19-.5.4-1 .61-1.49.03-.06.1-.11.16-.14.42-.18.5-.44.25-.78.08-.27.18-.52.24-.79.14-.56.16-1.13.16-1.71 0-.81-.01-1.63 0-2.44.01-.69.1-1.38.28-2.06.16-.63.3-1.26.44-1.9.07-.31.12-.62.17-.93.25.06.93.41 1.08.55-.23.21-.45.42-.68.63-.1.1-.17.2-.21.34-.18.66-.36 1.32-.55 1.98-.02.07-.05.14-.07.22-.1-.06-.17-.1-.25-.15-.02.03-.03.05-.03.06l.12 1.17c0 .11.07.16.18.18.33.06.65.13.98.2.04.01.09.03.15.06-.18.2-.36.38-.51.58-.07.09-.16.01-.23.05-.14.41-.31.82-.43 1.27h.34c.11 0 .2.04.22.17.02.14-.02.2-.15.25-.22.08-.32.03-.41-.19 0-.02-.01-.05-.02-.07-.02 0-.04.02-.06.02-.09.27-.19.54-.3.85.3-.03.57-.05.83-.08.03 0 .07-.03.09-.05.22-.25.43-.5.67-.77-.12-.01-.19-.02-.3-.03.21-.22.39-.41.57-.61-.04-.07-.07-.14-.11-.22.12-.1.24-.2.35-.31.11-.09.21-.19.34-.31-.29-.01-.48.28-.78.1.15-.26.29-.5.42-.75.11-.2.24-.37.41-.52.71-.68 1.42-1.36 2.13-2.05.11-.11.21-.23.28-.36.55-.97 1.1-1.93 1.65-2.9.2-.37.43-.72.56-1.12.36-1.16.69-2.33.95-3.52.06-.29.11-.59.15-.88.01-.09.04-.2-.08-.3-.05.11-.1.21-.14.31-.72 1.79-1.43 3.57-2.15 5.36-.21.52-.4 1.06-.67 1.55-.49.9-1.12 1.7-1.82 2.44-.45.47-.96.85-1.57 1.09-.23.09-.47.16-.72.14-.09 0-.19 0-.25-.14.07-.05.13-.11.21-.15.13-.05.26-.09.39-.11.12-.02.21-.06.29-.15.26-.29.54-.58.8-.87.03-.04.06-.09.09-.14h-.34c.33-.36.65-.71.99-1.09-.07-.01-.11-.02-.17-.03-.03-.23-.05-.46-.07-.65.19-.09.34-.15.51-.23.08.12.17.25.27.39.17-.11.31-.19.45-.29.05-.04.11-.1.12-.16.01-.2.13-.32.27-.45.08-.07.14-.15.08-.27-.09.04-.18.07-.26.1.12-.19.25-.35.39-.52s.28-.33.42-.5l-.03-.03c-.06.04-.13.09-.24.16q.31-.48.28-.73c-.09.07-.18.14-.28.22-.01-.11-.03-.19-.04-.28-.23.15-1.05.97-1.17 1.18.24-.06.32.12.45.27-.16.14-.31.28-.47.4-.13.1-.27.18-.4.27h-.07c.03-.07.07-.13.11-.21-.16-.03-.29-.06-.45-.09.05-.13.1-.25.15-.4-.19.03-.35.05-.5.07.06-.11.15-.18.23-.24.56-.42 1.11-.83 1.66-1.25 1.14-.85 1.9-1.95 2.29-3.32.05-.16.09-.32.16-.54-.08.06-.11.09-.14.11a.7.7 0 0 1 -.1.08s-.02-.01-.03-.02c.1-.29.21-.58.31-.87-.01 0-.03-.01-.04-.02-.08.09-.15.19-.23.28-.01 0-.02-.01-.04-.02.1-.3.21-.6.31-.91-.02 0-.03-.02-.05-.02-1.13 1.97-2.26 3.94-3.4 5.91-.14-.08-.26-.15-.39-.23.19-.3.37-.59.55-.88-.13-.11-.25-.2-.38-.31l.32-.29c.11-.1.22-.19.33-.29.09-.09.2-.16.24-.3-.22.13-.45.26-.67.4 0-.01-.02-.02-.03-.03.08-.11.15-.23.23-.34-.01-.01-.02-.03-.03-.04-.21.11-.41.21-.62.32 0-.02-.02-.03-.03-.05 1.06-1.12 2.13-2.24 3.2-3.38-.07-.09-.13-.16-.19-.23-.01.01-.03.03-.05.04-.1.05-.19.1-.32.17.21-.59.49-1.11.68-1.67-.01 0-.03-.02-.05-.02-.86.87-1.72 1.75-2.58 2.62.26-.63.59-1.22.89-1.87h-1.13c.98-.48 1.98-.88 2.98-1.35-.06-.1-.09-.17-.14-.26-.89.24-1.76.47-2.63.7 0-.01 0-.02-.01-.04.63-.26 1.25-.52 1.88-.78 0-.02-.01-.03-.02-.05-1.18.33-2.36.65-3.55.98.01.11.02.2.04.3.31.05.61.1.94.15-.32.74-.63 1.45-.94 2.15.1.08.18.15.26.22-.11.15-.21.28-.32.42.15.11.28.21.43.33-.36.48-.7.95-1.06 1.43.25.16.49.3.74.46-.14.65-.28 1.3-.42 1.94h-.05c-.15-.22-.29-.45-.46-.7-.07.16-.13.27-.18.39 0-.08 0-.15.02-.23.14-.92.26-1.85.44-2.76.11-.59.3-1.16.46-1.73.15-.56.23-1.12.16-1.7-.06-.52-.26-.99-.51-1.44-.13-.25-.25-.51-.35-.77-.11-.28-.12-.58-.05-.89.03-.13.08-.19.21-.21.28-.05.57-.13.85-.2.04-.01.08-.05.12-.07.25.05.46-.07.71-.13-.11-.12-.2-.13-.3-.08-.14.07-.27.14-.41.21-.23-.02-.45-.05-.68-.07.18-.1.35-.16.53-.23.17-.07.37-.1.5-.26-.38.08-.77.16-1.18.25.09-.19.17-.34.24-.49.16-.35.13-.69-.09-1-.13-.19-.3-.35-.45-.52-.17-.18-.36-.34-.53-.52-.35-.37-.6-.8-.68-1.3-.09-.53-.16-1.07-.21-1.6-.08-.96-.04-1.91.05-2.87.07-.66.17-1.32.36-1.96.17-.58.44-1.1.91-1.49.34-.28.72-.49 1.13-.65.43-.16.88-.29 1.3-.46.27-.1.54-.23.78-.38.33-.22.46-.56.37-.94a3.48 3.48 0 0 0 -.32-.83c-.25-.48-.54-.93-.81-1.4-.28-.47-.52-.96-.66-1.5-.08-.3-.11-.6-.06-.91.09-.55.42-.95.87-1.25.82-.56 1.73-.75 2.71-.63.57.07 1.09.28 1.54.65.42.34.7.77.86 1.28.03.08 0 .2.13.23m11.23 64.56s.05.03.08.04c.03-.04.05-.09.09-.13 1.07-1.3 2.33-2.39 3.71-3.34 1.44-.99 2.98-1.82 4.54-2.59 1.7-.84 3.42-1.65 5.12-2.5 1.68-.84 3.29-1.79 4.78-2.94 1.52-1.17 2.83-2.53 3.88-4.14s1.78-3.37 2.27-5.23c.32-1.2.54-2.42.66-3.66.08-.78.14-1.57.15-2.36.01-1.74-.01-3.47-.02-5.21-.02-4.7-.03-9.4-.05-14.1l-.06-17.97c0-1.55-.02-3.1-.03-4.65 0-.52.05-1.02.21-1.52.08-.25.17-.5.27-.78-.11.02-.21.03-.29.05-1.77.41-3.56.57-5.38.47-1.51-.07-2.99-.32-4.46-.68-1.76-.43-3.47-.99-5.18-1.55-2.14-.7-4.27-1.41-6.48-1.84-1.2-.23-2.41-.4-3.64-.45h-.27c.04 25.04.07 50.05.11 75.05m10.28-75.49c.12-.11.19-.18.26-.25 1.71-1.72 3.41-3.44 5.12-5.16.07-.07.13-.14.2-.19.24-.18.57-.17.78.03.22.21.24.54.05.79-.06.07-.13.14-.19.21-1.77 1.79-3.54 3.58-5.32 5.36-.08.08-.15.16-.25.27.27.09.5.17.74.24.24.08.49.16.73.23.23.07.44.17.72.2-.04-.07-.06-.1-.07-.13a.405.405 0 0 1 -.05-.09c-.22-.42-.21-.83.06-1.21.28-.4.68-.54 1.15-.46.45.08.75.36.89.79.17.54-.1 1.1-.62 1.34-.07.03-.14.07-.21.1.62.23 1.23.4 1.83.59.17.05.26.01.37-.12l5.43-6.6c.05-.06.09-.12.13-.19-.08-.07-.15-.12-.21-.17a25.52 25.52 0 0 0 -2.37-1.63c-2.02-1.23-4.18-2.2-6.39-3.02-2.04-.76-4.1-1.48-6.15-2.21-.11-.04-.23-.05-.35-.05-4.85-.02-9.69-.03-14.54-.04-.19 0-.37.03-.55.1-1.5.55-3 1.1-4.51 1.64-2.14.78-4.27 1.58-6.33 2.55-1.47.69-2.88 1.47-4.18 2.44-.08.06-.16.13-.24.2.07.09.12.15.18.22 1.08 1.22 2.16 2.45 3.25 3.68.9 1.01 1.79 2.03 2.68 3.04.1.11.19.16.35.12 1.16-.27 2.3-.61 3.42-.99.05-.02.1-.05.15-.08-.07-.1-.12-.19-.18-.28-1.21-1.79-2.42-3.59-3.63-5.39-.12-.17-.24-.34-.34-.51-.19-.32-.1-.65.21-.84.05-.03.1-.06.16-.08.89-.46 1.78-.91 2.67-1.37 1-.51 2.01-1.03 3.01-1.54.39-.2.62-.15.9.2l.57.72c.06.08.13.16.18.25.13.21.13.42 0 .63s-.32.3-.57.27a.6.6 0 0 1 -.43-.25c-.15-.19-.31-.39-.47-.59-1.64.84-3.25 1.67-4.89 2.51.44.65.86 1.27 1.28 1.9.1-.06.18-.11.25-.15.21-.13.41-.28.62-.4.29-.18.64-.1.82.16.19.28.12.63-.17.83-.19.13-.38.26-.58.38-.08.06-.17.11-.27.18.68 1.01 1.35 2 2.02 2.99 1.33-.46 2.64-.9 3.99-1.36-.37-.13-.64-.32-.79-.65s-.14-.66.02-.99c.28-.54.94-.77 1.5-.51.28.13.48.33.59.61.17.45.06.85-.21 1.23 1.65-.42 3.31-.65 4.99-.78-.16-.01-.31-.01-.46-.02-.31-.01-.5-.17-.58-.48-.01-.06-.03-.12-.04-.18-.37-1.82-.74-3.64-1.11-5.45-.13-.65-.27-1.31-.39-1.96-.08-.43.16-.72.6-.73h7.22c.37.02.58.23.61.59 0 .15.02.31.03.46.02.4.04.8.04 1.21 0 .35-.23.6-.55.62-.34.02-.6-.22-.63-.58-.01-.14 0-.27-.01-.41-.01-.23-.03-.46-.04-.7h-5.95c.22 1.08.43 2.15.65 3.21.22 1.07.42 2.14.66 3.18.06.01.07.02.09.02.93-.02 1.87-.03 2.8-.05.11 0 .17-.05.22-.14.11-.18.22-.36.34-.55.1-.16.24-.26.43-.28.23-.03.43.06.56.25.14.2.15.42.03.63-.18.31-.38.61-.56.92-.14.23-.34.35-.61.35-.43 0-.86.01-1.28.03-.42.01-.83.04-1.25.06 1.74-.02 3.47.07 5.2.36-.04-.08-.09-.14-.14-.2-.41-.52-.31-1.25.22-1.63.54-.38 1.3-.23 1.64.32.35.55.16 1.27-.42 1.59-.07.04-.13.07-.19.11 1.49.39 2.96.78 4.46 1.17 0-.09.01-.18.01-.26 0-.3-.02-.6-.02-.9-.03-2.47-.07-4.95-.1-7.42 0-.09 0-.19.03-.28.1-.4.57-.56.9-.33.19.13.26.33.26.56.01 1.04.03 2.07.04 3.11l.06 4.8c0 .07 0 .14.02.27m-21.95 22.17c-.27.41-.51.78-.76 1.16.11.06.19.11.28.16.04.02.09.04.16.06.32-.81.64-1.6.94-2.4-.01-.01-.03-.02-.05-.04-.59.32-1.18.64-1.78.97-.05-.09-.08-.15-.11-.21 0-.02.01-.03.02-.04l1.67-1.67c.02-.02.04-.05.06-.08v-.02s0-.01-.01-.02c-.08-.03-.17-.06-.26-.09.05-.1.09-.17.12-.24-.05-.07-.08-.12-.12-.17.08-.27.37-.44.35-.74-.02-.27-.1-.54-.15-.81-.04-.2-.08-.39-.13-.62-.46.18-.88.35-1.31.52.02.15.04.27.06.44-1.46-.39-2.89-.78-4.32-1.16-.01.02-.02.03-.03.05l1.12 1.97c-.09.06-.16.1-.24.15-.22-.23-.46-.43-.61-.71-.19-.35-.39-.7-.59-1.05-.04-.07-.09-.14-.13-.2-.01 0-.03.01-.04.02.08.63.17 1.27.26 1.9-.09-.16-.13-.32-.18-.48-.07-.24-.09-.26-.37-.25.34.7.64 1.42 1.13 2.04-.13-.35-.15-.71-.09-1.08.21.15.89 1.8.91 2.2-.08-.07-.14-.12-.21-.18-.01 0-.02.02-.03.02.33.52.65 1.03.98 1.56-.09.06-.16.1-.24.16-.83-1.18-1.66-2.34-2.48-3.5-.02 0-.04.02-.06.03.07.52.47.94.46 1.48-.17-.04-.16-.04-.21.08-.05.16-.03.31.05.44.19.31.18.62.09.96-.06.23-.07.47-.09.71 0 .17.06.33.18.47.09.1.18.14.32.08.4-.16.8-.3 1.2-.45.03-.01.06-.05.1-.08-.52-.5-1.04-.98-1.55-1.47 0-.02.01-.04.02-.06.05 0 .11-.02.15 0 .05.02.09.07.14.11.59.53 1.18 1.06 1.78 1.59.07.07.15.13.24.19.12-.09.23-.17.32-.25.12-.1.25-.15.42-.15.34.01.68 0 1.03 0 .08 0 .17 0 .24-.01.09-.16.04-.27-.06-.39-.41-.48-.81-.96-1.21-1.43-.06-.07-.11-.14-.18-.23.17-.11.33-.12.48-.03.12.08.23.17.34.27.14.14.27.28.41.43.1.11.22.15.37.14.2-.02.39-.03.59-.04.18-.01.35-.02.59-.03m4.31 32.49c-.38-.07-13.87-.1-14.09-.03 0 .05.01.1.02.15.07.39.09.78 0 1.17-.02.08-.04.15-.05.23-.02.17.02.21.19.23.09.01.19.01.28.01h5.8c2.42 0 4.84-.01 7.27-.02.19 0 .37-.02.56-.04v-1.7zm-2.72-23.85c-.14-.06-.2-.02-.23.08-.06.15-.11.31-.16.46-.3 1.02-.48 2.06-.67 3.11-.24 1.36-.58 2.69-1.14 3.96-.28.62-.56 1.25-.81 1.89-.25.65-.54 1.27-.88 1.88-.2.38-.42.74-.63 1.12-.03.06-.06.12-.09.19.03 0 .04 0 .05-.01.45-.52.97-.99 1.28-1.62.03-.07.1-.18.13-.17.19.05.23-.11.31-.2.18-.2.34-.4.52-.6.1-.11.16-.23.19-.38.45-1.98.91-3.95 1.37-5.92.02-.08.04-.16.07-.23.03.13.03.24.03.36.02.63-.07 1.26.04 1.89 0 .03.01.07 0 .1-.13.25-.01.5 0 .76 0 .14 0 .27-.01.41-.06.6-.13 1.21-.19 1.81-.04.4-.18.76-.46 1.07-.05.05-.09.11-.18.22.16-.04.26-.07.4-.1-.05.06-.08.1-.11.14-.16.17-.32.34-.47.51-.05.05-.1.14-.09.2.03.18.08.36.14.57.29-.05.56-.09.83-.13.26-.83.52-1.65.78-2.45.08.02.13.03.19.04.07-.32.14-.63.21-.96.17.09.3.17.47.26-.1.03-.15.05-.21.07-.05.02-.11.04-.17.07.22.42.47.77.92.97v-.12c-.08-.78-.15-1.57-.23-2.35-.09-.99-.19-1.97-.28-2.96-.09-1-.19-1.99-.2-2.99 0-.39-.06-.78-.09-1.17-.01-.11-.03-.23-.14-.33-.01.04-.03.07-.03.09.01.68.03 1.37.04 2.05 0 .1-.03.19-.04.29 0 .06-.02.15.01.18.09.09.07.18.04.29-.03.12-.06.25-.08.37-.05.02-.1.04-.12.05.09.25.18.47.24.7.02.08 0 .2-.04.26-.1.12-.09.23-.02.35.09.16.11.34.08.52l-.09.58c-.02.16-.01.32.07.47.03.06.04.13.04.19 0 .13-.01.26.01.38.03.12.1.22.16.34-.08.05-.16.09-.24.14.03.32.31.62.03.92.06.1.11.18.17.29-.12.02-.2.03-.32.05-.08-1.33-.15-2.65-.22-3.96-.07-1.32-.14-2.64-.22-3.95m-7.95-11.18c0-.1.02-.16.01-.21-.05-.37-.09-.75-.16-1.12-.03-.15-.1-.29-.17-.42-.14-.24-.33-.27-.53-.09-.13.12-.24.27-.33.42-.39.64-.62 1.33-.71 2.07-.16 1.35-.2 2.7-.15 4.05.05 1.24.47 2.32 1.4 3.18.63.58 1.24 1.18 1.79 1.84.05.06.12.11.2.18.03-.14.05-.23.08-.34h1.7v-.04c-.43-.08-.86-.15-1.3-.23v-.41c.26-.09.51-.17.78-.25-.12-.27-.33-.36-.56-.4s-.46-.07-.68-.11c-.33-.06-.6-.21-.74-.53-.39-.84-.78-1.68-1.17-2.51v-.07l.18-.15c-.14-.15-.26-.29-.43-.47h.61c.03-1.11.11-2.18.12-3.26h-.06c-.1.72-.19 1.43-.28 2.14-.12.03-.19.02-.19-.11 0-.09 0-.17.01-.26l.21-2.33c.02-.28.06-.55.09-.87l.29.32m6.15 11.42-.08-.04c-.12-.26-.14-.54-.15-.82 0-.05.02-.13.06-.16.15-.14.15-.32.18-.49.01-.08.03-.16.04-.26.1.04.17.06.24.09-.02.08-.03.15-.05.21-.08.23-.04.46.08.67.15.26.24.53.3.81.02.09.05.17.07.25h.07c.04-.12.11-.23.12-.35.03-.31.04-.63.03-.95 0-.16 0-.3.05-.45.1-.28.2-.57.29-.85.02-.05.02-.11.04-.2-.25.12-.45.08-.68-.07.14-.04.25-.08.35-.11.18-.04.37-.06.55-.11.38-.1.54-.32.52-.71 0-.14-.04-.29-.06-.43-.05-.22-.1-.44-.15-.67-.1.04-.14-.05-.19-.13-.24-.34-.6-.37-.97-.38l-.02.02c.02.06.04.12.06.21-.19-.02-.36 0-.5-.05-.44-.17-.89-.12-1.34-.17-.04 0-.09.04-.15.07.16.11.3.21.46.32.03-.07.06-.13.1-.19.22.25.44.45.38.79-.02.1.04.22.08.32.04.13.1.26.15.4h-.17c-.01.14-.03.26-.04.41a.627.627 0 0 1 -.26-.35c-.07-.29-.14-.58-.2-.87-.03-.13-.04-.27-.24-.31.03.39.06.75.08 1.12-.15-.44-.27-.9-.36-1.35-.03-.13-.08-.16-.23-.21.22.51.13 1.01.21 1.51-.09-.01-.16-.02-.23-.03l-.06.43c-.14-.06-.24-.08-.34.03-.03.03-.1.01-.15.03l-.21.07c.15.12.3.14.45.15h.67c.22-.01.41.03.55.2.04.05.1.08.16.12.09-.07.17-.17.25-.17.18 0 .37.06.55.1l.06.44s0 .01-.03.03l-.18-.12c-.07-.04-.13-.09-.24-.16.04.22.07.38.1.57-.25-.05-.16-.29-.3-.38-.05.07-.1.15-.14.21-.29-.01-.43-.24-.64-.37-.11.13-.19.24-.29.36l-.25-.33c-.03.11-.06.19-.09.29-.1-.12-.18-.21-.26-.31-.02 0-.03.02-.05.02.11.39.22.77.35 1.21.07-.12.12-.19.18-.28.03.16.06.29.08.43h.16v.84h-.04c-.05-.07-.1-.15-.18-.25-.01.12-.02.19-.03.28-.13-.27-.15-.56-.32-.83-.06.31-.11.58-.15.85-.03.15.03.27.12.38.08.09.18.16.28.23l.45.3c.04-.12-.03-.33.2-.4.09.35.18.69.28 1.08.08-.12.13-.19.18-.26 0 .18-.03.35-.03.52 0 .16-.12.33 0 .5.46-.3.4-.77.45-1.21.05.1.09.21.16.35.11-.16.2-.28.29-.41a.63.63 0 0 0 .11-.53c-.05-.23-.08-.45-.13-.68 0-.05-.03-.1-.07-.21-.12.16-.21.28-.31.4m-1.65 17.37s-.04 0-.06.01l-.15 2.81h.05c.07-.31.14-.62.21-.94h.02v1.04c.14-.02.27-.04.45-.06-.1.18-.19.33-.27.47-.1-.03-.17-.05-.28-.08.07.26.15.47.27.71l.84-.84c.1.23.18.44.4.55.19-.16.37-.32.56-.46.12-.09.14-.2.07-.31-.1-.16-.23-.31-.35-.48l.43-.46c-.2-.15-.38-.29-.6-.45.2-.05.34-.09.49-.12v-.04c-.25-.04-.5-.09-.77-.13.14-.29.36-.51.45-.8-.13.1-.27.2-.4.3 0-.11.04-.19.06-.28.03-.08.08-.18.05-.24-.08-.18 0-.35.01-.53 0-.08.04-.16-.04-.25-.08.12-.15.22-.22.31.04-.26.11-.51.19-.75.33-.93.5-1.88.4-2.87-.02-.16-.01-.33-.02-.49 0-.1.02-.19.12-.26.08-.05.11-.16.16-.24-.01-.02-.03-.04-.04-.05l-.7.18c-.03.1-.05.17-.07.25-.11.45-.21.9-.32 1.35-.04.17-.09.33-.25.44-.11-.07-.12-.17-.1-.27l.09-.4c.02-.09.03-.19-.09-.29-.2.91-.4 1.79-.6 2.66.02 0 .03.01.05.02l.23-.19c0 .66.06 1.28-.1 1.89-.08-.24-.16-.49-.24-.73m.17-34.93c-.02-.14-.06-.24-.04-.32.02-.12.08-.24.12-.36.03-.1.07-.21.05-.29a.57.57 0 0 1 .06-.46c.05-.08.11-.22.08-.26-.14-.17-.03-.33.01-.48.03-.1.03-.18-.03-.26s-.11-.17-.15-.25h-.07c-.22.1-.27.07-.27-.16v-.21c0-.15-.08-.26-.22-.32-.33-.13-.67-.24-1.02-.13-.25.08-.5.18-.72.32-.48.28-.64.71-.54 1.25.05.27.1.54.14.81.06.36.1.73.19 1.08.14.55.52.89 1.06 1.05.13.04.29.04.43.01.33-.07.59-.25.84-.48-.04-.07-.06-.13-.1-.19.08-.13.15-.25.2-.34m3.99 31.6h-.06c-.21.78-.42 1.55-.64 2.36.1-.02.15-.04.23-.05l-.09 1.68c.02.02.05.03.07.05.03-.08.06-.15.1-.23.07.17.1.31.1.44 0 .16.06.27.21.34-.21.29-.4.55-.6.83.17.2.32.39.48.58-.11.05-.19.08-.31.14.4.11.75.22 1.14.29-.07-.12-.11-.2-.16-.29.05-.01.08-.02.11-.03.17-.04.34-.06.5-.12.21-.08.3-.25.29-.47 0-.2 0-.4-.24-.49-.16-.07-.25-.2-.31-.36-.1-.23-.2-.45-.3-.68-.28-.67-.41-1.37-.33-2.1.02-.17.02-.34 0-.51-.03-.32-.07-.65-.11-.97-.02-.14-.06-.27-.08-.41m-6.97-28.11c.39.11 4.25.14 4.54.08-.15-.02-.3-.02-.45-.03-.14-.02-.32 0-.42-.09-.16-.14-.33-.15-.52-.17-.09 0-.18-.03-.33-.05.1-.09.16-.15.23-.18.09-.04.12-.1.13-.2.02-.18.05-.35.08-.53.02-.15.05-.3.08-.45-.11-.02-.19-.03-.27-.04 0-.14.01-.27.02-.4-.05-.01-.09-.03-.13-.03-.53 0-1.06.02-1.59.03-.12 0-.19.05-.22.17-.02.08-.05.16-.06.25-.02.19-.02.38-.03.56 0 .25-.11.47-.3.63-.12.1-.27.18-.41.27-.11.07-.23.13-.35.2m1.26 35.47c.19-.34.35-.66.47-1 .02-.05.04-.13.02-.17-.06-.12 0-.21.05-.31.1-.2.09-.21-.05-.36-.21-.22-.23-.3-.07-.56.06-.1.11-.2.1-.33-.01-.27-.02-.55 0-.82.04-.5.12-1 .39-1.42.18-.3.21-.55.09-.86a.518.518 0 0 1 .09-.53c.04-.05.07-.12.12-.2-.19-.02-.26.04-.31.19-.11.42-.23.84-.35 1.26l-.15.51c-.05-.21-.06-.42-.08-.63l-.03-.65c-.02 0-.04-.01-.06-.02-.12.13-.25.25-.37.38-.08.08-.19.16-.1.3.02.03-.02.1-.04.14-.05.1-.1.2-.17.29-.07.1-.07.2-.04.31.12.41.13.83.09 1.25 0 .07-.03.15 0 .2.11.22.02.39-.09.57-.01.02-.01.05-.02.08h.23c-.02.42-.05.83-.06 1.24 0 .19 0 .38.02.56.03.21.11.41.32.58m-6.44.92c.44.07 9.86.06 10.07-.01-.23-.16-.43-.3-.65-.44-.05-.03-.13-.02-.2-.02-.26.03-.53.07-.79.12-.15.03-.28 0-.42-.07-.41-.21-.85-.32-1.31-.25-.46.06-.91.15-1.36.23-.28.05-.57.1-.85.14-.1-.36-.1-.35-.44-.27-.27.06-.54.15-.83.07-.07-.02-.16.03-.24.05v.05c.14.04.28.07.47.12-.18.02-.31.04-.44.05-.49.04-.99.09-1.48.12-.32.02-.61-.07-.83-.32-.1-.11-.22-.19-.4-.18-.1.19-.2.39-.32.61m13.12-25.04c.08-.32.15-.58.22-.86.15.1.13.29.3.35.02-.3.04-.58.07-.87.1.03.17.05.28.08-.02-.1-.03-.18-.05-.25-.06-.29-.1-.58-.03-.89.07-.3-.08-.81-.29-1.08-.49.07-.83.36-.88.82-.05.47 0 .92.4 1.26.02.01.02.04.04.08-.44.33-.87.66-1.31.98 0 .02.02.03.03.05l.58-.21s.01.03.02.04c-.37.29-.74.58-1.12.86.01.02.02.03.03.05.47-.25.94-.5 1.42-.75.09.1.17.2.29.32m-8.03-1.83c.05.28.09.49.13.72.28-.16.59-.79.88-1.8v-.1c-.07.02-.13.03-.23.05v-1.39c-.17.02-.29.08-.35.19-.1.16-.19.34-.24.53-.06.25-.08.51-.11.76-.01.1-.02.21-.12.32l-.06-1.38c-.24.05-.44.1-.64.15-.07.24 0 .44.06.65s.13.42.17.64c.04.28.05.56.09.84 0 .06.04.14.08.16.09.04.16-.01.21-.1.03-.07.08-.13.14-.24m-.15 4.03s0-.02-.01-.03c-.03 0-.07 0-.09.01-.41.19-.83.3-1.27.4-.15.03-.3.12-.44.21-.19.12-.2.26-.1.49.07.15.15.17.36.15.26-.03.53-.06.79-.07.19 0 .37-.04.53-.14.42-.27.84-.54 1.25-.8.03-.02.06-.05.12-.11-.13.01-.21.02-.31.03.06-.07.12-.13.17-.2 0-.01-.01-.02-.02-.03l-1.74.57c0-.01-.01-.03-.02-.04.26-.14.51-.29.77-.43m6.98-4.47h.06c.02-.15.06-.29.07-.44.03-.45.06-.9.08-1.36.02-1.01 0-2.02-.12-3.02-.05-.41-.23-.79-.4-1.16-.02.06-.03.12-.02.18.03.35.08.7.11 1.05.12 1.39.25 2.77.11 4.17-.02.2-.01.41.11.59m-5.26 17.7c-.35.31-3.47 3.98-3.55 4.19.17-.1.32-.16.44-.26.26-.21.53-.43.77-.68.9-.95 1.62-2.03 2.3-3.13.01-.02.02-.05.04-.12m4.39-22.47c-.13.42-.3.81-.38 1.21-.06.29-.15.56-.27.82-.12.25-.24.51-.36.77-.03.07-.07.13-.11.19-.1-.03-.18-.05-.28-.08-.04.14-.07.27-.11.44l.66.06c.54-1.26.95-2.53 1.07-3.93-.15.1-.27.18-.4.27.08.11.13.2.17.26m2.52 30.48c-.01.07-.01.12-.03.17-.11.24-.17.54-.53.53 0 0-.02.02-.03.04l.19.16c-.13.03-.24.06-.4.1.14.05.22.08.32.11-.13.03-.24.06-.35.09v.05c.49.12.97.28 1.49.39-.02-.15-.03-.25-.05-.36-.06-.3-.12-.6-.19-.9-.05-.19-.16-.34-.4-.39m-9.32-19.7c.15.16.31.18.5.12.23-.08.47-.14.71-.21.21-.07.42-.13.63-.21.33-.11.47-.39.62-.72-.14.03-.24.04-.33.07-.59.21-1.15.48-1.76.64-.15.04-.3.13-.38.31m-.56-9.63h-.06c-.02.07-.06.13-.07.21-.13.7-.15 1.39 0 2.08.05.21.14.4.22.6.02.04.07.07.16.15-.02-1.06-.16-2.04-.26-3.03m6.93-5.05c.29.77.59 1.55.88 2.33.02 0 .04 0 .06-.01-.02-.13-.03-.26-.05-.39-.07-.46-.13-.91-.31-1.34a4.7 4.7 0 0 1 -.22-.63c-.1-.36-.23-.51-.58-.64.01.14.02.28.04.42 0 .08.03.14.14.15 0-.09-.02-.17-.03-.26.22.15.23.23.07.38m-3.74 6.52c-.1 0-.18.01-.26.02-.09.01-.19.02-.28.05-.05.02-.11.06-.13.1a.51.51 0 0 0 -.02.42c.08.19.44.53.68.63.04-.1.11-.2.1-.3-.02-.3-.06-.6-.1-.92m6.45-.01c-.33.05-.52.24-.57.61.37-.14.72-.27 1.06-.4.03-.01.07-.06.07-.06-.07-.14.11-.2.11-.32-.21-.06-.4-.15-.63-.17-.02.13-.03.22-.05.34m-2.52 28.98c-.04-.13-.07-.2-.07-.28 0-.07.02-.14.03-.22-.03-.02-.07-.03-.11-.05-.05.13-.15.06-.24.06-.08 0-.16-.01-.29-.02.13.34.25.65.37.97.19-.04.35-.08.51-.12v-.05c-.12-.05-.25-.09-.42-.16.1-.06.15-.09.21-.12m-8.51-1.9s-.02-.03-.03-.05c-.05.01-.1 0-.14.03-.09.06-.19.13-.25.22-.14.21-.32.29-.57.27-.09 0-.18.01-.29.03.26.18 1.03.47 1.21.46-.12-.14-.23-.28-.35-.41.14-.19.28-.37.41-.54m.2.15c-.11.09-.22.18-.32.27.19.25.35.48.58.73.07-.13.18-.24.15-.31-.08-.24-.13-.52-.41-.69m5.14-20.62c.18-.36.01-1.14-.28-1.35 0 .01-.03.02-.03.04.03.36.05.71.09 1.07.01.11.08.2.22.25m.14-5.8v-.94c-.28 0-.28-.01-.33.23-.03.14-.06.28-.07.43-.01.1 0 .21 0 .34.15-.02.26-.04.4-.05m6.08-1.63c-.27-.19-.5-.2-.73-.03-.22.15-.31.39-.24.65.13-.01.21-.09.29-.19.14-.17.31-.29.52-.36.05-.01.09-.04.17-.07m-8.52-12.8s.05-.03.06-.04c.02-.03.04-.06.05-.09.08-.32.29-.51.58-.64a.99.99 0 0 0 .17-.11c.09-.07.15-.16.14-.28-.47-.05-1.11.68-.99 1.16m8.1 23.64c-.25-.36-.52-.63-.7-.68-.1.28-.04.45.24.67.18.14.27.14.46 0m-12.23 17.31c.22.07.27.06.42-.05.12-.09.24-.18.36-.28.05-.04.09-.11.15-.17-.5-.09-.85.11-.92.51m11.21-10.35c-.26-.11-.52-.19-.8-.11-.27.08-.37.29-.27.61.09-.07.2-.12.25-.21.06-.1.14-.14.24-.17l.57-.12m-5.3-14.01c.06.38.4.83.73.92.02-.08.04-.16.07-.24-.02.01-.04.03-.06.04-.26-.25-.52-.51-.74-.72m-5.6 24.94c-.17.25-.49.35-.57.67.34.05.61-.1.81-.47-.07-.06-.15-.12-.24-.2m10.29-7.58c.15.02.29.03.42.05.08-.15.15-.27.23-.42-.18-.07-.34-.13-.51-.2zm-4.72 7.75c.02.18.05.32.21.38.18.06.36.2.58.05-.19-.28-.45-.41-.79-.42m-.34-23.3c-.21-.34-.61-.39-.82-.1.23.2.45.23.82.1m2.25-4.13c.24-.16.39-.61.34-.95-.13 0-.18.09-.22.21-.04.15-.09.31-.17.45-.07.12-.06.2.05.3m-5.83 6.05s.03.03.04.05c.4-.1.8-.18 1.19-.34-.3 0-.59 0-.88.05-.1.01-.19.07-.28.12-.03.02-.04.08-.07.12m6.29-18.83c-.1-.33-.28-.47-.55-.42.02.08.03.17.05.25.08.31.21.36.5.18m-2.08-3.05c0 .34.1.49.43.61.13-.33.02-.48-.43-.61m4.82 35.72c-.43-.12-.5-.07-.5.34.24.06.45.05.47-.03-.05-.03-.1-.07-.12-.08.05-.08.1-.15.15-.23m-6.46-7.74c.35-.05.5-.2.5-.49-.27.03-.42.18-.5.49m-4.05 15.66c.12.1.24.2.37.11.12-.08.1-.22.06-.35-.21-.06-.33.04-.43.24m9.49-.27c-.1.15-.17.26-.25.38.12.1.23.2.35.29l.03-.03c-.06-.08-.11-.16-.19-.26h.33c-.1-.14-.18-.24-.28-.38m.44-10.33c0 .32.1.39.41.3-.1-.26-.15-.3-.41-.3m1.79-19.06c.12.12.24.15.38.07.09-.05.12-.11.08-.21-.26-.08-.31-.06-.46.13m-1.15-2.36c-.28.17-.28.21-.08.4.26-.16.26-.17.08-.4m-11.76 31.65c.35.02.4-.04.3-.32-.14.06-.23.16-.3.32m8.96-39.57c-.15.11-.17.25-.13.4.29-.05.32-.14.13-.4m4.96 22.71h-.35c-.04.13-.01.23.13.25.15.02.18-.11.23-.25m-1.54 5.51c-.01-.17-.03-.3-.17-.4-.15.25-.1.37.17.4m-11.02 12.1c-.45-.13-.58-.13-.69 0zm.48-6.35c.03-.09.06-.18.1-.28-.15.05-.2.14-.1.28m1.4-26.82c.01-.12.02-.19.03-.28q-.17.1-.03.28" fill="#003491"/><g fill="#fff"><path d="m31.44 93.33c-.04-25.01-.07-50.01-.11-75.05h.27c1.22.04 2.43.21 3.64.45 2.21.43 4.35 1.13 6.48 1.84 1.71.57 3.42 1.13 5.18 1.55 1.47.35 2.95.6 4.46.68 1.81.09 3.61-.06 5.38-.47.09-.02.18-.03.29-.05-.1.28-.18.53-.26.78-.16.49-.21 1-.21 1.52 0 1.55.02 3.1.03 4.65l.06 17.97c.02 4.7.03 9.4.05 14.1 0 1.74.03 3.47.02 5.21 0 .79-.07 1.57-.15 2.35-.12 1.24-.34 2.46-.66 3.66-.49 1.86-1.22 3.61-2.27 5.22s-2.36 2.97-3.88 4.14c-1.49 1.15-3.1 2.1-4.78 2.94-1.7.85-3.41 1.66-5.12 2.5-1.57.77-3.1 1.6-4.55 2.59-1.38.95-2.64 2.04-3.71 3.34-.03.04-.06.09-.08.13-.03-.01-.05-.03-.08-.04m22.46-38.76h-8.51v6.6c0 1.05.35 1.94 1.06 2.7.73.78 1.63 1.29 2.7 1.4 1.34.15 2.52-.27 3.53-1.14.81-.7 1.22-1.59 1.22-2.69-.01-2.18 0-4.36 0-6.54v-.32m-20.85-.01c0 .1-.01.18-.01.27v6.49c0 .18 0 .36.04.54.29 1.81 1.99 3.22 3.72 3.4 1.35.14 2.54-.28 3.55-1.17.74-.65 1.18-1.46 1.19-2.47.01-2.27.02-4.55.02-6.83 0-.07 0-.15-.01-.24h-8.49zm12.39-25.8c0 .1-.01.18-.01.25v6.54c0 .38.07.75.2 1.1.63 1.81 2.73 3.05 4.53 2.78 1.07-.16 2-.57 2.77-1.34.65-.64 1-1.42 1.01-2.34.01-2.26.01-4.52.01-6.77 0-.07-.01-.15-.02-.23h-8.48zm-12.38 0v6.57c0 1.16.42 2.12 1.25 2.9.88.83 1.93 1.3 3.16 1.24 1.13-.05 2.13-.47 2.97-1.24.59-.54.98-1.21 1.09-2.01.03-.25.03-.51.03-.77 0-2.12.01-4.24.02-6.37 0-.11-.01-.21-.01-.32h-8.5zm6.16 12.85c0 .1-.01.18-.01.27v6.49c0 .19.01.38.04.56.29 1.78 2 3.23 3.8 3.38 1.43.12 2.68-.38 3.69-1.4.62-.62.95-1.37.96-2.26 0-2.27.02-4.53.02-6.8 0-.08 0-.15-.01-.24z"/><path d="m41.73 17.81c0-.14-.02-.21-.02-.27l-.06-4.8c-.01-1.04-.03-2.07-.04-3.11 0-.23-.07-.42-.26-.56a.582.582 0 0 0 -.9.33c-.02.09-.03.19-.03.28.03 2.47.06 4.95.1 7.42 0 .3.02.6.02.9 0 .08 0 .16-.01.26-1.5-.4-2.98-.78-4.46-1.17.06-.03.12-.07.19-.11.58-.32.77-1.04.42-1.59a1.17 1.17 0 0 0 -1.65-.32 1.12 1.12 0 0 0 -.22 1.63c.05.06.1.11.14.2-1.72-.29-3.46-.38-5.2-.36.42-.02.83-.05 1.25-.06.43-.02.86-.03 1.28-.03.28 0 .47-.11.61-.34.18-.31.38-.61.56-.92.12-.21.11-.43-.03-.63-.13-.19-.32-.27-.56-.25-.19.02-.33.12-.44.28-.11.18-.23.36-.34.55-.05.09-.11.14-.22.14-.93.01-1.87.03-2.8.05-.02 0-.03 0-.09-.02-.24-1.05-.44-2.12-.66-3.18s-.43-2.12-.65-3.21h5.95c.01.24.03.47.04.7 0 .14 0 .27.01.41.03.36.29.59.63.58.32-.02.56-.27.55-.62 0-.4-.03-.8-.05-1.21 0-.15-.02-.31-.03-.46-.02-.37-.24-.58-.61-.59h-7.22c-.44.02-.68.31-.6.73.12.66.26 1.31.39 1.96.37 1.82.74 3.64 1.11 5.45.01.06.03.12.04.17.08.31.27.47.58.48.15 0 .31 0 .46.02-1.68.13-3.34.36-4.99.78.27-.39.39-.79.21-1.23-.11-.28-.31-.49-.59-.61-.56-.25-1.22-.03-1.5.51-.17.32-.17.66-.02.99s.42.52.79.65c-1.35.46-2.66.91-3.99 1.36-.67-.99-1.33-1.98-2.02-2.99.1-.07.19-.13.27-.18.19-.13.39-.25.58-.38.29-.21.36-.55.17-.83-.18-.26-.53-.33-.82-.16-.21.13-.42.27-.62.4-.07.05-.14.09-.25.15-.43-.63-.84-1.25-1.29-1.9 1.64-.84 3.26-1.67 4.89-2.51l.47.59c.11.14.24.24.43.25.24.02.44-.06.57-.27.12-.21.12-.42 0-.63-.05-.09-.12-.16-.19-.25l-.57-.72c-.28-.35-.5-.4-.9-.2-1 .51-2.01 1.03-3.01 1.54-.89.46-1.78.91-2.67 1.37-.05.03-.11.05-.16.09-.31.19-.4.53-.21.84.11.18.23.34.34.51 1.21 1.79 2.42 3.59 3.63 5.39.06.09.11.17.18.28-.06.03-.1.07-.15.08-1.13.38-2.27.72-3.43.99-.16.04-.25 0-.35-.12-.89-1.02-1.79-2.03-2.68-3.04-1.08-1.22-2.16-2.45-3.25-3.68-.06-.06-.11-.13-.18-.22.09-.07.16-.14.24-.2 1.3-.98 2.72-1.75 4.18-2.44 2.06-.97 4.19-1.77 6.33-2.55 1.5-.55 3-1.09 4.51-1.65.18-.07.36-.1.55-.1 4.85.02 9.69.03 14.54.04.12 0 .24.02.35.05 2.05.73 4.11 1.45 6.16 2.21 2.22.82 4.37 1.79 6.39 3.02.82.5 1.61 1.04 2.37 1.63.07.05.13.11.21.17-.05.07-.09.13-.13.19l-5.43 6.6c-.11.13-.2.17-.37.12-.6-.19-1.21-.36-1.83-.59.07-.03.14-.07.21-.1.52-.24.78-.8.62-1.34-.14-.44-.44-.72-.89-.79-.47-.08-.87.07-1.15.46-.27.38-.28.79-.06 1.21.02.03.04.06.05.09s.03.06.07.13c-.28-.03-.5-.13-.72-.2-.25-.07-.49-.15-.73-.23-.23-.08-.47-.15-.74-.24.1-.11.18-.19.25-.27 1.77-1.79 3.54-3.58 5.32-5.36.07-.07.14-.13.19-.21.19-.25.17-.58-.05-.79a.605.605 0 0 0 -.78-.03c-.07.06-.14.13-.2.19-1.71 1.72-3.41 3.44-5.12 5.16-.07.07-.14.14-.26.25m-28.07 29.84s-.08.06-.12.07c-.28.07-.56.15-.85.2-.13.03-.19.09-.22.21-.06.3-.06.6.05.89.1.26.22.52.35.77.25.45.45.92.51 1.44.07.58 0 1.14-.16 1.7-.16.58-.35 1.15-.46 1.73-.17.92-.29 1.84-.44 2.76-.01.07-.02.15-.02.23.05-.11.1-.23.18-.39.17.25.31.48.46.7h.05c.14-.64.28-1.29.42-1.94-.25-.16-.49-.31-.74-.46.36-.48.7-.95 1.06-1.43-.15-.11-.28-.22-.43-.33.11-.14.21-.28.32-.42-.09-.07-.17-.14-.26-.22l.94-2.15c-.34-.05-.64-.1-.94-.15-.01-.1-.02-.18-.04-.3 1.19-.33 2.37-.66 3.55-.98 0 .02.01.03.02.05-.63.26-1.25.52-1.88.78 0 .01 0 .02.01.04.87-.23 1.74-.46 2.63-.7.05.09.09.16.14.26-1 .46-2 .87-2.98 1.35h1.13c-.3.65-.63 1.24-.89 1.87.86-.87 1.72-1.75 2.58-2.62.02 0 .03.02.05.02-.19.55-.47 1.07-.68 1.66.13-.07.23-.12.32-.17.02-.01.03-.03.05-.04.06.07.11.14.19.23l-3.2 3.38c0 .02.02.03.03.04.2-.1.41-.21.62-.32 0 .01.02.03.03.04-.08.11-.15.23-.23.34 0 .01.02.02.03.03.22-.13.44-.26.67-.4-.04.13-.15.21-.24.29-.11.1-.22.19-.33.29l-.32.29c.13.11.25.21.38.31-.18.29-.36.58-.55.88.13.08.24.15.39.23 1.14-1.98 2.27-3.95 3.4-5.92.02 0 .03.01.05.02-.1.3-.21.61-.31.91.01 0 .02.01.04.02l.23-.28s.03.01.05.02c-.1.29-.21.58-.31.87 0 0 .02.01.03.02.03-.03.07-.05.1-.08.03-.02.06-.05.14-.11-.06.22-.11.38-.16.54a6.148 6.148 0 0 1 -2.29 3.32c-.56.41-1.11.83-1.66 1.25-.09.07-.17.13-.23.24.16-.02.31-.04.5-.07-.06.15-.1.27-.15.4l.44.09c-.04.08-.07.14-.11.21.03 0 .06.02.07 0 .14-.09.28-.17.4-.27.16-.13.31-.27.47-.4-.12-.15-.2-.33-.45-.27.12-.21.94-1.03 1.17-1.18.01.09.02.17.04.27.1-.08.18-.14.28-.22q.03.26-.28.73c.11-.07.17-.12.23-.16l.03.03c-.14.17-.28.33-.42.5-.14.16-.28.33-.39.52.08-.03.16-.06.26-.1.05.12 0 .2-.08.27-.14.12-.26.24-.27.45 0 .06-.06.12-.12.16-.14.1-.28.19-.45.29-.1-.14-.19-.27-.27-.39-.16.07-.31.14-.5.23.02.19.05.42.07.65.06 0 .1.01.17.03-.34.38-.66.73-.99 1.09h.34c-.04.06-.06.11-.09.14-.27.29-.54.58-.8.87-.08.09-.17.13-.29.15-.14.02-.27.06-.4.11-.08.03-.15.1-.21.14.05.15.15.14.24.14.25.02.49-.05.72-.14.61-.24 1.12-.62 1.57-1.09.71-.74 1.33-1.55 1.82-2.44.27-.49.46-1.03.67-1.55.72-1.78 1.43-3.57 2.15-5.36.04-.1.09-.2.14-.31.12.1.09.22.08.3-.04.3-.09.59-.15.89-.26 1.19-.59 2.35-.95 3.52-.13.41-.35.76-.56 1.12-.54.97-1.09 1.94-1.65 2.9-.08.13-.17.26-.28.36-.7.69-1.41 1.37-2.13 2.05-.16.15-.3.32-.41.52-.13.25-.27.49-.42.75.3.17.5-.12.78-.11-.12.11-.23.21-.33.31-.12.1-.23.2-.35.3.04.08.08.14.12.22-.19.2-.37.39-.57.61.11.01.18.02.3.03-.23.27-.45.52-.66.77-.02.02-.06.05-.09.05-.26.03-.52.05-.83.08.11-.31.2-.58.29-.85.02 0 .04-.02.06-.02 0 .02.01.05.02.07.09.22.2.27.41.19.14-.05.17-.12.15-.25s-.1-.17-.22-.17h-.34c.12-.45.29-.85.42-1.27.08-.04.16.04.23-.05.15-.19.33-.37.51-.57a.772.772 0 0 0 -.15-.06c-.33-.07-.65-.14-.98-.2-.11-.02-.17-.07-.18-.18l-.12-1.17c0-.01.01-.03.03-.06.08.05.15.09.25.15.03-.08.05-.15.07-.22.18-.66.37-1.32.54-1.98.04-.14.1-.25.21-.34.23-.21.45-.42.68-.63-.16-.14-.83-.49-1.08-.55-.06.31-.11.62-.17.92-.14.64-.28 1.27-.44 1.9a8.94 8.94 0 0 0 -.27 2.05c-.01.81 0 1.63 0 2.44 0 .57-.02 1.15-.17 1.71-.07.26-.16.52-.24.79.26.35.17.6-.25.78-.06.03-.14.08-.16.14-.21.5-.42.99-.62 1.49-.13.34-.14.7-.11 1.06.9-.19 1.79-.14 2.69-.13 1.42.01 2.84-.01 4.26-.01 1.73 0 3.46.01 5.19.05.7.01 1.4.09 2.1.14.06 0 .11.02.17.07-.04 0-.08.03-.12.03-.32.02-.65.04-.97.05-3.61.1-7.22.08-10.84.04-.74 0-1.47-.06-2.21-.08h-.26v2.3c.12 0 .24.02.36.02h14.36v-.23c-.04-.55 0-1.1.06-1.64.06-.53.02-1.06-.09-1.58a.379.379 0 0 1 0-.15c.12.3.19.61.19.93 0 .49-.04.99-.05 1.48v1.37h-15.02c0-.07-.01-.15-.02-.22l-.03-2.18c0-.56.05-1.11.28-1.63.3-.68.58-1.37.88-2.05.3-.66.4-1.36.41-2.08.02-.74 0-1.49 0-2.23 0-1.06.12-2.09.4-3.12.21-.74.35-1.5.47-2.26.1-.7.26-1.39.35-2.09s.21-1.4.34-2.1c.08-.43.22-.86.34-1.29.16-.54.29-1.07.28-1.64-.01-.54-.13-1.05-.38-1.53-.11-.21-.24-.42-.34-.63-.24-.47-.35-.96-.19-1.49.01-.05.03-.1.03-.15-.01-.21.06-.35.24-.5.43-.35.51-1.07.19-1.52-.12-.17-.27-.31-.41-.46-.1-.11-.21-.21-.32-.3-.6-.54-.92-1.22-1.03-2.01-.19-1.34-.2-2.68-.07-4.02.06-.67.18-1.34.35-1.99.27-1.03.91-1.73 1.88-2.13.47-.19.95-.34 1.42-.52.25-.09.5-.18.73-.31.5-.27.67-.64.49-1.18-.1-.32-.26-.63-.43-.93-.32-.58-.67-1.13-.98-1.71a3.39 3.39 0 0 1 -.43-1.36c-.06-.66.16-1.2.66-1.62.58-.49 1.26-.75 2-.85a3.61 3.61 0 0 1 1.84.22c.93.38 1.53 1.04 1.74 2.03 0 .03.02.05.03.07-.13-.03-.1-.15-.13-.22a2.61 2.61 0 0 0 -.86-1.28c-.45-.37-.97-.58-1.54-.65-.98-.12-1.89.07-2.71.63-.45.3-.77.7-.86 1.25-.05.31-.02.61.06.91.13.54.38 1.02.66 1.5.27.47.56.92.81 1.4.14.26.24.55.32.83.1.38-.03.72-.36.94-.24.16-.51.28-.78.38-.43.17-.87.3-1.3.46-.41.15-.79.36-1.13.65-.47.39-.74.91-.91 1.49-.19.64-.3 1.3-.36 1.96-.09.95-.14 1.91-.05 2.87.05.53.12 1.07.21 1.6.08.5.33.93.68 1.3.17.18.36.34.53.52.16.17.32.33.45.52.22.31.26.65.09 1-.07.15-.15.3-.24.49.41-.09.8-.17 1.18-.25-.14.16-.33.19-.5.26s-.35.13-.53.23c.23.02.45.05.68.07zm.3 6.74c.36-.18.73-.35.81-.76-.26.24-.53.5-.81.76m-1.27-6.88-.06-.03c-.03.08-.06.15-.08.23.01 0 .03.01.05.02.03-.07.07-.14.1-.21"/><path d="m19.78 39.97c-.23.01-.41.02-.59.03-.2.01-.39.02-.59.04a.4.4 0 0 1 -.37-.14c-.14-.14-.27-.29-.41-.43-.1-.1-.22-.2-.34-.27-.15-.09-.3-.09-.47.03.07.09.12.16.18.23.4.48.8.96 1.21 1.43.1.11.14.23.06.39-.07 0-.16.01-.24.01h-1.03c-.16 0-.3.04-.42.15-.1.08-.2.16-.32.25-.08-.07-.16-.13-.24-.19-.59-.53-1.18-1.06-1.78-1.59-.04-.04-.08-.09-.14-.11-.04-.02-.1 0-.15 0 0 .02-.01.04-.02.06.51.49 1.02.97 1.55 1.47-.04.04-.07.07-.1.08l-1.2.45c-.13.05-.23.02-.32-.08a.632.632 0 0 1 -.18-.47c.01-.24.03-.48.09-.71.08-.34.09-.66-.09-.96a.545.545 0 0 1 -.05-.45c.04-.12.04-.12.2-.08 0-.54-.39-.96-.46-1.48.02 0 .04-.02.06-.03.82 1.16 1.65 2.32 2.48 3.5.08-.05.15-.1.24-.16-.33-.53-.66-1.05-.98-1.56l.03-.03c.07.06.13.12.21.18-.02-.4-.7-2.05-.91-2.2-.06.37-.04.73.09 1.08-.49-.62-.79-1.34-1.13-2.04.28 0 .3 0 .37.25.05.16.09.33.18.48-.09-.63-.17-1.27-.26-1.9.01 0 .03-.01.04-.02.04.07.09.13.13.2.2.35.41.7.6 1.05.15.28.38.48.6.71.08-.05.15-.09.24-.15-.38-.66-.75-1.32-1.12-1.97 0-.02.02-.03.03-.05 1.43.38 2.86.77 4.32 1.16-.02-.16-.04-.28-.06-.43.42-.17.85-.34 1.31-.52.05.22.09.42.13.62.05.27.13.54.15.81.02.29-.26.47-.35.74.03.05.07.1.12.17-.04.07-.07.15-.12.24.09.03.17.06.26.09 0 0 0 .01.01.02v.02c-.02.03-.04.06-.06.08-.56.56-1.12 1.11-1.67 1.67 0 0 0 .02-.02.04.03.06.06.12.11.21.6-.33 1.19-.65 1.78-.97.01.01.03.02.05.04-.3.8-.62 1.6-.94 2.4-.06-.02-.11-.03-.16-.06-.09-.05-.18-.1-.28-.16.25-.38.49-.75.76-1.16m-.99-2.29c0-.06 0-.11.02-.15.06-.18 0-.31-.13-.43-.11-.1-.2-.21-.28-.34-.13-.23-.32-.38-.56-.47-.17-.07-.33-.14-.5-.19-.83-.26-1.67-.51-2.5-.76-.03 0-.06 0-.11-.01.03.17.14.27.27.34.26.14.53.22.83.23.55.01.75.22.77.77v.27c.37.19.38.21.32.67.06.01.11.03.18.05l.06.33c.03.19.05.39.1.58.04.18.19.28.35.34a.3.3 0 0 0 .36-.08c-.13-.16-.25-.31-.37-.47a.585.585 0 0 1 -.1-.17c-.1-.45-.2-.9-.29-1.35-.02-.09-.01-.18-.02-.27.02 0 .03-.02.05-.02l.24.21c.32.3.63.6.96.89.18.15.4.26.61.38.09.05.2.05.33 0-.22-.12-.39-.22-.59-.33m-.98 3.47c-.12-.15-.2-.27-.31-.36-.15-.13-.3-.25-.29-.49-.08.02-.15.04-.22.05-.04-.13-.06-.25-.1-.35-.05-.11-.12-.2-.19-.31 0-.08.02-.18.03-.28-.08-.03-.14-.05-.21-.07.02-.12.03-.24.05-.36l-.22.03c.03-.17.06-.33.09-.51-.06.02-.1.03-.14.04h-.12c.03-.12.05-.22.07-.34-.12.02-.21.04-.31.05l-.2-.4c-.14.2-.13.2-.07.35.09.21.16.43.24.64.03.09.06.18.1.26.23.45.46.89.71 1.33.09.16.2.32.33.46.18.2.42.29.75.24m.29-3.38c.17.63.59 1.02 1.05.96-.31-.36-.49-.84-1.05-.96m-1.54-.24c-.14.37.04 1.04.37 1.33.1-.13.1-.27.05-.41l-.21-.66c-.04-.11-.09-.22-.21-.26m-1.74 3.82c.11 0 .11-.06.1-.13-.01-.09-.07-.07-.13-.06-.01 0-.02.02-.03.04 0 .02 0 .05.02.07.01.03.03.06.04.08m9.24 31.08v1.7c-.19.01-.37.04-.56.04-2.42 0-4.84.02-7.27.02h-5.8c-.09 0-.19 0-.28-.01-.17-.02-.21-.06-.19-.23 0-.08.03-.15.05-.23.08-.39.06-.78 0-1.17 0-.05-.01-.1-.02-.15.22-.07 13.71-.04 14.09.03m-3.91.52c-.24-.03-.24-.03-.35.17-.06.12-.13.24-.22.38-.08-.14-.14-.25-.2-.36q-.12-.22-.4-.19c.1.28 0 .56-.01.85h.24v-.5c.05.12.09.22.14.31.08.15.2.15.29 0 .07-.11.12-.22.18-.33.02 0 .04 0 .05.01.02.17.02.33-.03.5h.31c-.08-.29-.08-.57 0-.85m-1.92-.05c-.32 0-.54.17-.56.44-.02.29.19.5.52.51s.57-.17.58-.45c.02-.3-.2-.51-.54-.51m4.21.94c.09-.3-.05-.6.1-.88h-.3c.13.18.09.36.06.6-.17-.19-.3-.33-.42-.48-.09-.11-.19-.16-.33-.11.09.28.09.56 0 .86.05 0 .1.01.15.01.04 0 .08 0 .13-.01-.09-.2-.1-.33-.02-.52.25.13.31.48.63.54m-5.48-.03c-.07-.13-.13-.24-.01-.38.08.1.16.18.22.27.09.13.2.16.36.1-.11-.13-.22-.24-.32-.37.06-.04.09-.06.12-.09.14-.16.08-.35-.13-.38-.19-.02-.4 0-.58 0 .11.3.08.58-.02.86h.37zm6.43-.23s0 .05.01.07c-.08.01-.15.03-.23.05.16.23.37.13.57.11-.13-.26-.25-.52-.38-.77-.03-.05-.09-.12-.14-.12s-.11.07-.14.12c-.13.25-.25.5-.38.77.07 0 .14 0 .22.01-.03-.23-.01-.25.19-.26.09 0 .18 0 .27.01m-1.99.24c-.07-.14-.13-.24-.18-.35-.08-.15-.14-.31-.22-.46-.08-.14-.17-.13-.25 0-.03.05-.05.11-.08.16-.1.2-.21.39-.31.59v.05h.22c-.05-.19-.03-.23.11-.24.12 0 .23.01.35.02 0 .09-.02.16-.02.23h.37zm-7.62-.74c-.02-.12-.02-.13-.09-.13h-.64c.09.3.08.59 0 .89h.67c.12 0 .14-.07.1-.14-.16.02-.31.03-.46.05v-.33c.11.01.2.02.32.04 0-.06 0-.11-.01-.16l-.33.03c0-.12.01-.2.02-.32.15.03.28.05.42.08m2.15.72c-.12-.25-.23-.48-.34-.7-.04-.08-.06-.21-.18-.18-.06.02-.12.1-.16.17-.12.23-.24.47-.36.71.03 0 .06.02.09.02.04 0 .08 0 .12-.01-.02-.22 0-.24.18-.24.08 0 .17 0 .25.02.03 0 .05.06.1.12-.07 0-.1 0-.13-.01q.11.15.42.11m-3.38-.77c-.13.29-.42.45-.5.78h.7c.12 0 .1-.08.08-.13-.17.02-.31.03-.52.04.21-.28.37-.51.57-.78h-.79v.17c.15-.15.29-.14.46-.09m-1.73.86c.21-.32.31-.64.5-.95-.1 0-.17 0-.24.01.05.24-.1.39-.2.57-.21-.3-.25-.39-.23-.58h-.35c.18.3.29.62.51.94m3.2-.07h.76s.02-.06.02-.09c0-.02-.02-.04-.03-.07-.2.09-.22.09-.44.03 0-.24-.06-.49.05-.73h-.35c.09.22.09.64 0 .86m-2.55-.86c.15.25.07.49.07.72 0 .01-.05.03-.07.04s-.04.03-.06.04c.02.02.04.06.06.06h.36c-.09-.3-.11-.58 0-.87h-.37zm9.87-24.36c.07 1.31.14 2.63.22 3.95.07 1.31.15 2.63.22 3.96.11-.02.19-.03.32-.05-.06-.11-.11-.19-.17-.29.28-.3 0-.6-.03-.92.08-.04.16-.09.24-.14-.06-.12-.13-.22-.16-.34s0-.26-.01-.38c0-.07-.01-.14-.04-.2a.769.769 0 0 1 -.07-.47c.02-.2.06-.39.09-.58.03-.18.01-.36-.08-.52-.07-.12-.08-.23.02-.35.05-.06.06-.18.04-.26-.06-.23-.15-.45-.24-.7.02 0 .07-.03.12-.05.03-.12.05-.25.08-.37.03-.1.04-.19-.04-.29-.03-.04-.02-.12-.01-.18 0-.1.05-.2.04-.29-.01-.68-.03-1.37-.04-2.05 0-.02.01-.04.03-.09.11.1.13.22.14.33.04.39.09.78.09 1.18 0 1 .11 2 .2 2.99s.18 1.98.28 2.96c.07.78.15 1.57.23 2.35v.12c-.45-.2-.7-.56-.92-.97.06-.02.12-.05.17-.07s.11-.04.21-.07c-.17-.09-.3-.17-.47-.26-.07.33-.14.63-.21.96-.06-.01-.11-.02-.19-.04-.26.81-.51 1.62-.78 2.45-.27.04-.53.09-.83.13-.05-.2-.11-.38-.13-.57-.01-.06.04-.14.09-.2.15-.17.31-.34.47-.51.03-.03.06-.07.11-.14-.14.04-.24.06-.4.1.08-.1.13-.16.18-.22.28-.3.42-.66.46-1.06.06-.6.13-1.21.19-1.81.01-.14.01-.27 0-.41 0-.25-.12-.5 0-.75.01-.03 0-.07 0-.1-.11-.63-.02-1.26-.04-1.89 0-.12 0-.24-.03-.36-.02.08-.05.15-.07.23-.46 1.97-.92 3.95-1.37 5.92-.03.15-.09.27-.19.38-.18.2-.34.41-.52.6-.08.09-.13.24-.32.2-.03 0-.1.1-.13.17-.31.63-.83 1.1-1.28 1.63 0 0-.01 0-.05.01.03-.07.06-.13.09-.19.21-.37.42-.74.63-1.12.33-.61.62-1.24.88-1.88.25-.64.53-1.26.81-1.89.56-1.27.9-2.6 1.14-3.96.18-1.04.37-2.09.67-3.11.05-.16.1-.31.16-.46.03-.09.09-.14.23-.08"/><path d="m13.36 37.46c-.1-.12-.18-.2-.29-.32-.03.32-.06.6-.09.87l-.21 2.33c0 .08-.01.17-.01.26 0 .12.06.14.18.11.1-.71.19-1.43.28-2.14h.06c-.01 1.08-.1 2.16-.12 3.26h-.61c.17.18.29.32.43.47l-.18.15v.07c.39.84.78 1.68 1.17 2.51.15.32.42.47.74.53.23.04.46.07.68.11.23.05.44.13.56.4-.26.09-.51.17-.78.25v.41c.44.08.87.16 1.3.23v.04h-1.7c-.03.11-.05.21-.08.34-.08-.07-.15-.12-.2-.18-.55-.66-1.15-1.26-1.79-1.84-.93-.85-1.36-1.94-1.4-3.17-.05-1.35-.01-2.7.15-4.05.09-.74.32-1.43.71-2.07.09-.15.21-.3.33-.42.2-.18.39-.15.53.09.08.13.15.28.17.42.07.37.11.74.16 1.12 0 .05 0 .11-.01.21m6.18 11.45c.09-.12.19-.24.31-.4.04.11.06.16.07.21.05.23.08.46.13.68.04.2 0 .37-.11.53-.09.12-.18.25-.29.4-.06-.14-.11-.24-.16-.35-.05.44.01.91-.45 1.21-.12-.17 0-.34 0-.5 0-.17.04-.34.03-.52-.05.07-.1.14-.18.26-.1-.39-.19-.73-.28-1.08-.23.08-.16.28-.2.41l-.45-.3c-.1-.07-.19-.14-.28-.23-.1-.1-.15-.23-.12-.38.05-.27.1-.54.15-.85.17.27.19.56.32.83 0-.09.02-.16.03-.28l.18.25h.04v-.84h-.16c-.03-.14-.05-.27-.08-.43-.06.09-.1.16-.18.28-.12-.44-.24-.82-.35-1.21.02 0 .03-.02.05-.02.08.1.16.19.26.31.03-.1.06-.18.09-.29.09.11.16.21.25.33.1-.12.18-.23.29-.36.21.13.35.36.64.37.04-.06.09-.13.14-.21.14.1.06.34.31.38-.03-.18-.06-.35-.1-.57.11.07.17.11.24.15l.18.12.03-.03-.06-.44c-.18-.04-.37-.1-.55-.1-.08 0-.16.1-.25.17-.05-.04-.11-.07-.16-.12-.15-.17-.33-.22-.55-.21s-.44 0-.67 0c-.15 0-.3-.03-.45-.15.08-.03.14-.05.21-.07.05-.01.12 0 .15-.02.1-.11.21-.09.34-.03.02-.15.04-.28.07-.43.07.01.14.02.23.03-.08-.5.01-1-.21-1.51.15.04.2.08.23.21.1.45.21.91.37 1.35-.03-.36-.06-.73-.08-1.11.21.04.21.18.24.31.07.29.13.58.2.87.03.14.12.24.26.35.02-.15.03-.27.04-.41h.17c-.06-.15-.11-.27-.15-.4-.03-.11-.1-.22-.08-.32.06-.34-.15-.54-.38-.79-.03.07-.06.12-.1.19-.16-.11-.3-.21-.46-.32.06-.03.11-.08.15-.07.45.04.91 0 1.34.16.14.05.31.03.5.05l-.07-.21s.01-.02.02-.02c.37.01.73.04.97.38.06.08.09.17.19.13.05.23.11.45.15.67.03.14.06.29.06.43.02.39-.14.61-.52.71-.18.05-.37.07-.55.11-.1.02-.21.06-.35.11.23.15.43.19.68.07-.02.09-.02.14-.04.2-.1.28-.19.57-.29.85-.05.15-.05.3-.05.45 0 .31 0 .63-.03.95-.01.12-.08.23-.12.35h-.07c-.02-.08-.06-.16-.07-.25-.06-.29-.15-.56-.3-.81a.826.826 0 0 1 -.08-.67c.02-.06.03-.13.05-.21-.07-.03-.14-.05-.24-.09-.02.1-.03.18-.04.26-.03.17-.04.36-.18.49-.04.04-.06.11-.06.16 0 .28.03.56.15.82a.3.3 0 0 1 .08.04m1.79-4.46c-.14-.11-.24-.2-.35-.28-.06-.04-.14-.11-.19-.09-.19.06-.37.14-.58.22.16.23.3.42.44.62.28-.14.65-.11.69-.48m-1.96-.22c-.11.1-.1.19-.03.28.18.24.27.51.28.81 0 .28.19.4.41.52-.12-.89-.25-1.2-.66-1.61m-.65 3.27c-.17.3-.29.6-.31.93 0 .13.03.24.14.31.18.12.35.26.44.49-.03-.29-.05-.59-.08-.88l-.06-.03-.12.21-.06-.03c0-.17.02-.33.03-.5 0-.17.02-.33.03-.5m2.27-1.79h.06c.02-.12.03-.24.05-.39-.11.03-.19.06-.27.09.04.07.06.13.09.18.02.04.05.09.08.13m-3.09 20.6c.08.24.16.49.24.73.16-.61.09-1.22.1-1.89l-.23.19c-.01 0-.03-.01-.04-.02.2-.88.4-1.76.6-2.66.12.09.1.19.08.29l-.09.4c-.02.11-.01.2.1.27.15-.11.21-.27.24-.44.11-.45.21-.9.32-1.35.02-.08.04-.15.07-.25l.69-.18c.01.02.03.04.04.05-.05.08-.09.19-.16.24-.11.07-.13.15-.12.26 0 .16 0 .33.02.49.1.99-.08 1.94-.4 2.87-.08.24-.15.48-.19.75.07-.1.14-.2.22-.31.07.09.05.17.04.25-.02.18-.09.34-.01.53.03.06-.03.16-.05.24-.03.09-.06.17-.06.28.13-.1.26-.2.4-.3-.09.3-.31.51-.45.8.27.04.52.09.77.13v.04c-.15.04-.29.07-.49.12.22.16.4.3.6.45l-.43.46c.12.17.25.32.35.48.07.11.06.22-.07.31-.19.14-.37.3-.56.46-.22-.11-.31-.32-.4-.55l-.84.84c-.12-.24-.2-.45-.27-.71.1.03.18.05.28.08.08-.15.17-.29.27-.47-.17.02-.3.04-.45.06v-1.04h-.02l-.21.94h-.05l.15-2.8c.02 0 .04 0 .06-.01m.57-2.14c.26-.14.35-.31.3-.56-.3.08-.22.36-.3.56m1.04 4.62c-.34.09-.48.24-.48.49.17-.17.32-.33.48-.49m-5.73 1.39c-.15-.1-.31-.18-.44-.3-.56-.57-1.1-1.15-1.66-1.71-.17-.17-.16-.4-.24-.61.65-.54 1.35-.52 2.09-.26-.13-.11-.25-.22-.42-.36.31-.12.58-.22.89-.34.05.15.1.27.13.4.09.45.17.91.26 1.36.04.21.06.44.21.62.04.05.04.14.08.27.03-.32.05-.58.07-.86-.1 0-.17 0-.27-.01.09-.2.18-.38.28-.58h-.24c.09-.18.18-.35.28-.53h-.22v-.07c.15-.17.19-.36.08-.58-.06-.02-.12-.05-.23-.1.37-.32.71-.62 1.09-.96.02.14.04.22.05.31.02 1.22.05 2.45-.09 3.66-.01.13 0 .23.12.31.06.04.12.1.19.16-.15.1-.3.05-.43.02a.806.806 0 0 0 -.53.03c-.03.2-.08.26-.28.29-.28.05-.54 0-.78-.15.15-.08.31-.15.46-.23-.23-.09-.42-.28-.68-.19.09.16.16.29.23.42m-.61-1.54c-.23-.05-.29-.19-.27-.39 0-.05-.01-.13-.05-.16-.16-.11-.34-.21-.55-.35.04.3.16.49.29.68.21.3.44.59.6.92.11.22.26.27.51.21-.04-.13-.07-.26-.12-.42-.15-.09-.34-.2-.53-.31.04-.06.07-.1.11-.18m.29-.88c.1.28.18.34.43.33a.64.64 0 0 0 -.43-.33m4.5-36.44c-.05.09-.13.22-.2.34.03.06.06.12.09.19-.25.23-.51.42-.84.48-.14.03-.3.03-.43-.01-.54-.16-.92-.5-1.06-1.05-.09-.35-.13-.72-.19-1.08-.05-.27-.09-.54-.14-.81-.1-.54.06-.97.54-1.25.23-.13.47-.24.72-.32.35-.11.69 0 1.02.13.14.06.21.17.22.32v.21c0 .23.06.26.28.16h.07c.05.08.1.17.15.25.06.09.05.17.03.27-.04.15-.15.3-.01.48.03.04-.03.18-.08.26-.08.15-.12.29-.06.46.02.08-.02.19-.05.29-.03.12-.1.24-.12.36-.01.08.02.17.05.32m-.33-2.34h-.39c-.28 0-.39.09-.44.36-.02.15-.02.31-.03.46 0 .17.02.34 0 .51 0 .08-.03.18-.09.22-.15.1-.12.22-.1.39.23-.03.45-.06.69-.1-.05-.38-.09-.72-.14-1.07.2-.08.38-.15.59-.24-.16-.07-.28-.13-.41-.19.1-.12.18-.22.3-.36m-1.2 2.53c.14.06.24.1.35.14-.02.08-.04.14-.06.22h.35c.04 0 .11-.03.13-.06.08-.14.15-.29.24-.45-.38-.16-.67-.08-.99.16m-.11-1.68c-.18-.16-.34-.28-.56-.2-.14.05-.18.19-.15.42.26.03.5.01.72-.21m-.89-.38c.22.08.57.06.77-.04-.24-.28-.56-.27-.77.04m2.43 1.13c-.13.06-.27.11-.42.18.03.09.06.17.08.25.3-.1.35-.16.34-.43m4.11 32.35c.03.14.06.27.08.41.04.32.08.64.11.97.01.17.01.34 0 .51-.08.73.04 1.43.33 2.1.1.23.2.45.3.68.07.15.15.29.31.36.23.09.24.3.24.49 0 .21-.09.39-.3.47-.16.06-.33.08-.5.12-.03 0-.06.02-.11.03.05.09.1.17.16.29-.4-.08-.74-.18-1.14-.29.12-.05.2-.09.31-.14-.16-.19-.31-.38-.48-.58.2-.27.39-.54.6-.83-.15-.07-.21-.18-.2-.34 0-.13-.03-.27-.11-.44-.03.08-.06.15-.1.23-.02-.02-.05-.03-.07-.05.03-.56.06-1.11.1-1.68-.08.02-.13.03-.23.05.22-.8.43-1.58.64-2.36zm-6.97-28.11c.12-.07.24-.13.35-.2.14-.08.28-.16.41-.27.19-.16.29-.38.29-.63 0-.19.01-.38.03-.56 0-.08.04-.16.06-.25.03-.11.1-.16.22-.17.53 0 1.06-.02 1.59-.03.04 0 .08.02.13.03 0 .13-.01.26-.02.4.08.01.16.02.27.04-.03.15-.06.3-.08.45-.03.18-.06.35-.08.53 0 .1-.04.16-.13.2-.07.03-.12.1-.23.18.15.02.24.04.33.05.19.02.36.04.52.17.1.08.27.07.42.09s.3.02.46.03c-.29.06-4.15.03-4.54-.08m1.66-.45s0 .04-.01.06c.29.16.59.31.88.47.07-.1.06-.19 0-.25-.18-.15-.37-.28-.6-.31-.08-.01-.17.02-.26.03m-.41 35.96a.837.837 0 0 1 -.32-.58c-.02-.18-.03-.38-.02-.56.01-.41.04-.82.06-1.24h-.23s0-.06.02-.08c.11-.18.2-.35.09-.57-.03-.05 0-.14 0-.2.03-.42.03-.84-.09-1.25-.04-.12-.03-.21.04-.31.06-.09.11-.19.17-.29.02-.04.06-.11.04-.14-.1-.15.02-.22.1-.3.12-.13.25-.25.37-.38.02 0 .04.01.06.02 0 .22.02.43.03.65.01.21.03.42.08.63l.15-.51c.12-.42.24-.84.35-1.26.04-.16.12-.21.31-.19-.05.08-.07.15-.12.2-.13.16-.16.35-.09.53.11.31.09.56-.09.86-.26.43-.34.93-.39 1.42-.02.27-.01.55 0 .82 0 .13-.04.23-.1.33-.16.26-.15.34.07.56.14.14.15.16.05.36-.05.1-.11.19-.05.31.02.04 0 .12-.02.17-.11.34-.28.66-.47 1m-6.44.92c.11-.22.22-.41.32-.6.18 0 .3.07.4.18.22.25.51.34.83.32.5-.03.99-.08 1.48-.12.13-.01.25-.03.44-.05-.19-.05-.33-.09-.47-.12v-.05c.08-.02.17-.08.24-.05.29.09.56 0 .83-.07.34-.08.34-.08.44.27.28-.05.57-.09.85-.14.45-.08.91-.17 1.36-.23.46-.07.9.04 1.32.25.13.07.26.1.42.07.26-.05.52-.08.79-.12.06 0 .15-.02.2.02.22.13.42.28.65.44-.21.07-9.64.08-10.07.01m13.07-25.05c-.12-.13-.2-.22-.29-.33-.48.25-.95.5-1.42.75-.01-.02-.02-.03-.03-.05.37-.29.74-.58 1.12-.87 0-.01-.01-.03-.02-.04l-.58.21s-.02-.03-.03-.04c.44-.33.87-.66 1.31-.98-.02-.04-.03-.07-.04-.08-.4-.34-.46-.79-.41-1.26.05-.45.39-.75.89-.82.21.27.36.78.29 1.08s-.04.59.03.89c.02.07.03.15.05.25-.1-.03-.18-.05-.28-.08-.02.29-.04.57-.07.87-.17-.06-.15-.25-.3-.35-.07.28-.14.54-.22.86"/><path d="m14.93 44.35c-.07.11-.11.17-.14.24-.05.09-.12.14-.21.1-.04-.02-.08-.1-.08-.16-.03-.28-.04-.56-.09-.84-.03-.22-.1-.43-.17-.64-.06-.21-.13-.41-.06-.65.2-.05.4-.09.65-.15l.06 1.38c.1-.12.1-.22.12-.32.03-.25.05-.51.11-.76.05-.18.14-.36.24-.53.06-.11.19-.17.35-.19v1.39c.1-.02.16-.04.23-.05v.1c-.29 1.01-.59 1.64-.88 1.8zm8.02 20.4s-.07-.08-.07-.12c-.11-.88-.17-1.77-.11-2.66.03-.48.14-.95.33-1.39.21-.48.33-.99.28-1.52-.03-.3-.08-.59-.12-.89-.1-.76.01-1.47.53-2.07.07-.08.14-.18.21-.26.33-.41.51-.87.55-1.39.07-.99.15-1.98.2-2.97.02-.52-.08-1.02-.22-1.52-.24-.84-.22-1.67-.04-2.51.15-.7.27-1.41.39-2.12.18-1.04.13-2.08-.1-3.11-.33-1.43-.65-2.87-.98-4.3-.15-.62-.36-1.21-.66-1.78-.23-.43-.52-.82-.91-1.13-.4-.31-.85-.46-1.34-.54-.42-.06-.82-.16-1.2-.36-.27-.14-.5-.33-.57-.65.02.02.04.04.05.06.16.26.39.44.67.54.35.12.72.24 1.08.3.87.13 1.53.55 2.03 1.26.39.55.65 1.17.82 1.82.2.73.36 1.48.54 2.22.21.9.41 1.8.61 2.7.23 1.02.24 2.05.06 3.08-.14.81-.29 1.62-.45 2.42-.13.67-.11 1.33.08 1.98.25.88.29 1.77.21 2.67-.07.68-.11 1.36-.17 2.05-.04.45-.19.85-.45 1.21-.13.17-.25.35-.39.51-.4.48-.52 1.05-.48 1.66.02.31.07.61.12.91.09.6.01 1.18-.23 1.73-.27.62-.38 1.27-.39 1.95-.01.75.04 1.49.13 2.23zm-8.16-16.37c-.26.14-.51.29-.76.43 0 .01.01.03.02.04l1.74-.57c0 .01.01.02.02.03-.05.06-.11.12-.17.2.1 0 .18-.02.31-.03-.07.06-.09.09-.12.11-.42.27-.83.54-1.25.8-.16.11-.34.14-.53.14-.26 0-.53.04-.79.07-.22.02-.3 0-.36-.15-.1-.23-.08-.37.1-.49.14-.09.28-.17.44-.2.44-.1.86-.22 1.27-.4.03-.01.06 0 .09-.01 0 .01 0 .02.01.03"/><path d="m21.76 43.92c-.12-.18-.13-.39-.11-.59.13-1.39 0-2.78-.12-4.17-.03-.35-.07-.7-.11-1.04 0-.06 0-.12.02-.18.17.37.35.75.4 1.16.13 1 .15 2.01.12 3.02-.01.45-.04.9-.07 1.36-.01.15-.05.3-.07.44zm-5.26 17.71c-.03.08-.03.1-.04.12-.69 1.1-1.4 2.19-2.3 3.13-.23.25-.5.46-.77.68-.12.1-.27.16-.44.26.08-.21 3.2-3.88 3.55-4.19m4.39-22.47c-.04-.06-.09-.15-.17-.26.12-.08.24-.16.4-.27-.12 1.4-.53 2.67-1.07 3.93-.21-.02-.42-.04-.65-.06.04-.17.07-.3.11-.44.1.03.18.05.28.08.03-.06.07-.12.11-.19.12-.26.24-.51.36-.77s.21-.53.27-.82c.08-.4.24-.79.38-1.21m2.49 30.5c.25.05.36.2.4.39.08.3.13.6.19.9.02.11.03.21.05.36-.52-.11-1.01-.27-1.49-.39v-.05c.11-.03.22-.06.35-.09-.1-.04-.18-.06-.32-.11.16-.04.27-.07.4-.1l-.19-.16c.01-.02.02-.04.03-.04.36 0 .42-.3.53-.54.02-.04.02-.1.03-.17m-9.28-19.71c.08-.18.22-.27.38-.31.61-.15 1.17-.43 1.76-.64.09-.03.19-.04.33-.07-.15.33-.3.61-.62.72l-.63.21c-.24.07-.48.13-.71.21-.19.07-.35.04-.5-.12m-.58-9.63c.11.99.25 1.97.26 3.03-.08-.08-.14-.11-.16-.15-.08-.2-.18-.39-.23-.6-.16-.69-.14-1.39 0-2.09.01-.07.05-.14.07-.21h.06m6.92-5.02c.16-.15.15-.23-.07-.38 0 .1.02.17.03.27-.1 0-.13-.07-.14-.15-.02-.14-.03-.28-.04-.41.35.14.48.28.58.64.06.21.13.42.22.63.18.43.24.89.31 1.34.02.13.03.26.05.39-.02 0-.04 0-.06.01-.29-.78-.59-1.56-.88-2.33m-3.74 6.52c.04.32.08.62.1.92 0 .1-.06.2-.1.3-.24-.1-.6-.44-.68-.63a.51.51 0 0 1 .02-.42c.02-.05.08-.09.13-.1.09-.03.18-.04.28-.05.08-.01.17-.01.26-.02m6.43-.01c.02-.12.03-.22.05-.34.23.02.42.11.63.17 0 .12-.18.18-.1.32 0 0-.04.05-.07.07-.35.13-.69.26-1.06.4.04-.38.24-.56.56-.61m-2.54 28.97c-.06.03-.11.07-.21.12.18.07.3.11.42.16v.05c-.16.04-.33.08-.51.12-.12-.32-.24-.63-.37-.97.13.01.21.02.29.02s.18.08.24-.06c.04.02.07.04.11.05-.01.08-.04.15-.04.22s.04.15.08.28m-8.53-1.88c-.13.18-.27.35-.41.54l.35.41c-.18.02-.94-.27-1.21-.46.12-.01.21-.04.29-.03.25.02.43-.06.56-.27.06-.09.16-.15.25-.22.03-.03.09-.02.14-.03 0 .02.02.03.03.05"/><path d="m12.29 69.04c.28.17.33.44.41.69.02.07-.09.18-.15.31-.23-.24-.39-.48-.58-.73.11-.09.21-.18.33-.27m5.13-20.62c-.14-.04-.21-.13-.22-.25-.04-.35-.06-.71-.09-1.07 0-.01.02-.02.03-.04.3.21.47.99.28 1.35m.14-5.78c-.14.02-.25.03-.4.05v-.34c.01-.14.04-.28.07-.43.05-.24.05-.24.33-.23v.94zm6.08-1.63c-.08.03-.12.05-.17.07-.21.07-.38.18-.52.36-.07.09-.16.17-.29.19-.07-.26.02-.49.24-.65.23-.16.47-.16.73.03m-8.5-12.79c-.11-.48.52-1.21.99-1.16.01.12-.05.21-.14.28-.05.04-.11.09-.17.11-.28.13-.5.32-.58.64 0 .03-.03.06-.05.09 0 .01-.03.02-.06.04m8.12 23.64c-.2.13-.28.13-.46 0-.28-.22-.34-.39-.24-.67.18.05.45.31.7.68m-12.23 17.29c.08-.4.42-.6.92-.51-.06.07-.09.13-.15.17-.12.1-.24.19-.36.29-.15.11-.19.11-.42.05m11.23-10.34-.57.12c-.1.02-.18.06-.24.16-.05.09-.16.14-.25.21-.1-.31 0-.53.27-.61s.54 0 .8.11m-5.32-14c.22.22.48.47.74.72.02-.01.04-.03.06-.04-.02.08-.04.16-.07.24-.34-.09-.67-.54-.73-.92m-5.6 24.94c.1.08.17.14.24.21-.21.37-.47.52-.81.47.08-.32.4-.42.57-.67m10.29-7.59.14-.57c.17.07.33.13.51.2-.08.15-.15.27-.22.42-.13-.01-.27-.03-.42-.05m-4.73 7.74c.35.02.6.14.79.42-.22.15-.4 0-.58-.05-.17-.05-.19-.19-.21-.38m-.34-23.27c-.37.12-.59.1-.82-.1.22-.28.61-.24.82.1m2.25-4.13c-.11-.1-.12-.17-.05-.3.08-.13.13-.29.17-.45.03-.12.08-.2.22-.21.05.35-.1.79-.34.95m-5.83 6.07s.03-.1.07-.12c.09-.05.18-.11.28-.12.29-.04.59-.05.88-.05-.39.16-.79.24-1.19.34-.01-.02-.03-.03-.04-.05m6.29-18.83c-.28.18-.41.13-.5-.18-.02-.08-.03-.17-.05-.25.27-.04.45.1.55.43m-2.08-3.04c.45.13.56.29.43.61-.33-.12-.44-.28-.43-.61m4.82 35.72c-.05.08-.09.14-.15.23.02.02.08.05.12.08-.02.08-.23.08-.47.03 0-.41.07-.46.5-.34m-6.46-7.74c.07-.31.23-.47.5-.5 0 .29-.15.44-.5.5m-4.05 15.66c.1-.2.22-.29.43-.24.04.13.06.27-.06.35-.14.09-.25-.01-.37-.11m9.49-.27c.1.14.18.25.28.38h-.33c.07.1.13.18.19.26-.01.01-.02.02-.03.04l-.35-.29c.08-.12.15-.23.25-.39m.42-10.34c.26 0 .31.04.41.3-.32.08-.4.02-.41-.3m1.79-19.05c.15-.2.21-.21.46-.13.04.09 0 .16-.08.21-.14.07-.26.05-.38-.07m-1.16-2.38c.18.23.18.24-.08.4-.21-.19-.2-.23.08-.4m-11.75 31.65c.07-.16.17-.26.3-.32.1.28.05.33-.3.32m8.96-39.57c.19.27.16.35-.13.4-.04-.15-.02-.29.13-.4m4.96 22.71c-.04.14-.07.26-.23.24-.14-.02-.17-.11-.13-.24h.35zm-10.6-5.41c.14-.07.27-.14.41-.21.1-.05.19-.04.3.08-.26.06-.46.17-.71.13m9.07 10.92c-.26-.02-.31-.15-.17-.4.13.1.15.23.17.4m-11.02 12.1h-.69c.11-.13.24-.13.69 0m11.28-5.52c.13.16.1.36.1.54-.03-.18-.06-.36-.09-.55m-10.81-.82c-.11-.14-.05-.22.1-.28-.03.09-.06.18-.1.28m1.4-26.82q-.14-.18.03-.28c0 .09-.02.15-.03.28m6.68-8.73c0 .08 0 .16.01.24h-.04c0-.08.02-.16.03-.24"/></g><path d="m53.9 54.58v.32c0 2.18-.02 4.36 0 6.54 0 1.1-.4 1.99-1.22 2.69-1.01.87-2.2 1.29-3.53 1.14-1.07-.12-1.96-.62-2.7-1.4-.71-.76-1.07-1.65-1.06-2.7.01-2.1 0-4.19 0-6.29v-.31h8.52zm-.41 5.13c0-.57-.5-1.04-1.09-1.04s-1.09.48-1.08 1.05.45 1.03 1.09 1.04c.59.01 1.08-.48 1.08-1.05m-2.76.02c0-.57-.47-1.05-1.07-1.05-.59 0-1.08.46-1.09 1.04-.01.57.48 1.05 1.07 1.06.59 0 1.08-.46 1.09-1.04m-2.14-3.35c0 .57.49 1.05 1.08 1.04.59 0 1.08-.48 1.08-1.05s-.49-1.04-1.08-1.04-1.08.48-1.07 1.05m1.07 7.73c.6 0 1.08-.46 1.07-1.04 0-.57-.49-1.04-1.09-1.03-.6 0-1.07.47-1.07 1.05s.48 1.03 1.08 1.03m-2.65-5.37c-.6 0-1.08.45-1.09 1.02 0 .58.47 1.05 1.06 1.05.6 0 1.08-.45 1.1-1.03.01-.57-.47-1.05-1.07-1.05m-13.96-4.17h8.49c0 .09.01.16.01.24 0 2.28 0 4.55-.02 6.83 0 1-.44 1.82-1.19 2.47-1.01.88-2.2 1.31-3.55 1.17-1.73-.18-3.43-1.59-3.72-3.4-.03-.18-.04-.36-.04-.54v-6.49c0-.08 0-.17.01-.27m5.35 1.81c0-.58-.47-1.05-1.07-1.06a1.09 1.09 0 0 0 -1.1 1.03c-.01.56.48 1.04 1.07 1.06.58.01 1.09-.47 1.09-1.03m.6 3.31c0 .57.48 1.05 1.07 1.05s1.07-.47 1.08-1.04c0-.58-.48-1.05-1.07-1.05s-1.08.47-1.08 1.04m-4.34-.95c-.6 0-1.08.47-1.08 1.04s.49 1.04 1.09 1.03c.6 0 1.08-.47 1.07-1.05 0-.58-.48-1.03-1.08-1.03m1.58.95c0 .58.46 1.06 1.06 1.06.63 0 1.08-.44 1.1-1.03.02-.56-.47-1.05-1.06-1.06s-1.09.45-1.1 1.03m1.1 4.42c.6 0 1.08-.46 1.08-1.04 0-.57-.49-1.04-1.08-1.04s-1.08.47-1.08 1.04.49 1.03 1.09 1.03m8.11-35.33h8.48c0 .09.02.16.02.23 0 2.26 0 4.52-.01 6.77 0 .92-.36 1.7-1.01 2.34-.77.76-1.7 1.18-2.77 1.34-1.8.27-3.89-.97-4.53-2.78-.12-.36-.2-.72-.2-1.1v-6.54c0-.08 0-.15.01-.25m4.26 2.82c.6 0 1.08-.45 1.08-1.03s-.47-1.04-1.07-1.04-1.08.46-1.09 1.03c0 .57.48 1.04 1.08 1.04m1.09 5.66c0-.57-.5-1.05-1.08-1.04-.59 0-1.08.48-1.08 1.05s.5 1.04 1.09 1.04 1.07-.48 1.07-1.05m-2.67-3.28c0-.58-.47-1.05-1.07-1.06-.59 0-1.08.46-1.09 1.04 0 .57.46 1.04 1.07 1.06.58.02 1.08-.46 1.09-1.04m1.57-1.12c-.6 0-1.08.46-1.08 1.04 0 .57.48 1.04 1.08 1.04.59 0 1.08-.47 1.08-1.04s-.49-1.04-1.08-1.04m2.77 0c-.6 0-1.08.45-1.08 1.03s.47 1.05 1.07 1.05 1.08-.46 1.08-1.03c0-.58-.47-1.04-1.07-1.04m-19.39-4.1h8.5c0 .11.02.22.02.32 0 2.12 0 4.25-.02 6.37 0 .26 0 .52-.03.77-.11.8-.5 1.47-1.09 2.01-.84.77-1.84 1.19-2.97 1.24-1.23.06-2.28-.41-3.16-1.24-.83-.78-1.26-1.75-1.25-2.9.01-2.08 0-4.16 0-6.24zm3.21 8.49c0 .57.48 1.05 1.07 1.06.59 0 1.09-.47 1.09-1.03 0-.57-.48-1.05-1.07-1.06s-1.09.46-1.09 1.03m-1.6-4.33c-.59 0-1.07.48-1.07 1.06 0 .57.5 1.04 1.09 1.03.59 0 1.08-.49 1.07-1.05 0-.57-.51-1.04-1.09-1.04m2.67-1.33c.6 0 1.08-.46 1.09-1.03 0-.57-.48-1.04-1.08-1.04s-1.08.46-1.08 1.03c0 .58.47 1.04 1.07 1.04m2.76 1.26c-.6 0-1.09.44-1.1 1.02-.01.57.47 1.05 1.07 1.06.6 0 1.09-.45 1.1-1.02 0-.58-.46-1.05-1.06-1.06m-1.71 1.04c0-.58-.47-1.04-1.07-1.04-.61 0-1.08.45-1.08 1.03s.47 1.04 1.07 1.05c.6 0 1.08-.46 1.08-1.03m.82 7.71h8.49c0 .09.01.16.01.24 0 2.27-.01 4.53-.02 6.8 0 .88-.34 1.64-.96 2.26-1.01 1.02-2.26 1.52-3.69 1.4-1.8-.15-3.5-1.59-3.8-3.38-.03-.18-.04-.38-.04-.56v-6.49c0-.08 0-.17.01-.27m4.26 2.84c.6 0 1.08-.46 1.08-1.04 0-.57-.49-1.04-1.08-1.04s-1.08.48-1.08 1.04.48 1.04 1.08 1.04m-1.59 2.37c0-.58-.47-1.04-1.07-1.05-.58-.01-1.09.47-1.09 1.03 0 .57.49 1.05 1.07 1.05.59 0 1.08-.46 1.09-1.04m1.57.96c.6 0 1.08-.46 1.08-1.03s-.49-1.04-1.08-1.04-1.08.47-1.08 1.04c0 .58.47 1.04 1.08 1.04m.03 1.3c-.6 0-1.09.45-1.1 1.02s.48 1.05 1.07 1.06c.6 0 1.09-.46 1.1-1.03 0-.58-.46-1.04-1.06-1.05m2.71-1.3c.61 0 1.08-.44 1.08-1.03 0-.58-.47-1.05-1.07-1.05s-1.08.46-1.08 1.03c0 .59.46 1.04 1.06 1.05m-32.29 6.6c.28-.26.55-.52.81-.76-.08.41-.45.58-.81.76m-1.27-6.88c-.03.07-.07.14-.1.21-.02 0-.03-.01-.05-.02.03-.08.06-.15.08-.23l.06.03m6.18-9.82c.2.11.37.21.59.33-.14.06-.24.05-.33 0-.21-.12-.43-.22-.61-.38-.33-.28-.64-.59-.96-.89l-.24-.21c-.02 0-.03.02-.05.02 0 .09 0 .18.02.27.09.45.19.9.29 1.35.01.06.06.12.09.17.12.16.24.31.37.47-.11.13-.24.13-.36.08-.16-.06-.31-.16-.35-.34-.04-.19-.06-.39-.1-.58l-.06-.33a1.49 1.49 0 0 0 -.18-.04c.06-.46.05-.48-.32-.67v-.27c-.02-.55-.22-.76-.77-.77-.3 0-.57-.09-.83-.23-.13-.07-.24-.16-.27-.34.05 0 .08 0 .11.01.83.25 1.67.51 2.5.76.17.05.34.12.5.19.24.09.42.24.56.47.07.12.17.24.28.33.14.12.2.25.13.43-.01.04-.01.08-.02.15m-.97 3.51c-.33.05-.56-.04-.75-.24-.13-.14-.24-.29-.33-.46-.24-.44-.47-.89-.71-1.33-.04-.08-.07-.17-.1-.26-.08-.22-.16-.43-.24-.65-.06-.15-.07-.15.07-.35l.2.4c.1-.02.19-.03.31-.05-.03.11-.05.21-.07.34h.12c.04 0 .08-.02.14-.04-.03.18-.06.33-.09.51l.22-.03c-.02.12-.03.23-.05.36.07.02.13.04.21.07-.01.1-.02.2-.03.28.07.11.14.2.19.31s.07.23.11.35c.07-.02.13-.03.22-.05 0 .24.14.36.29.49.11.09.19.22.31.36" fill="#003491"/><path d="m18.11 37.78c.56.12.74.6 1.05.96-.46.06-.88-.33-1.05-.96m-1.54-.24c.13.04.18.15.21.26l.21.66c.04.14.05.28-.05.41-.33-.29-.51-.96-.37-1.33m-1.74 3.82s-.03-.05-.04-.08c0-.02-.01-.05-.02-.07.01-.01.02-.03.03-.04.06-.02.12-.03.13.06 0 .07 0 .14-.1.13m5.35 31.6c-.08.28-.08.55 0 .85h-.31c.05-.17.05-.33.03-.5-.02 0-.04 0-.05-.01-.06.11-.11.22-.18.33-.09.14-.2.15-.29 0-.05-.09-.09-.2-.14-.31v.5h-.24c0-.29.11-.57.01-.85.28-.03.28-.03.4.19.06.11.12.22.2.36.08-.15.15-.27.22-.38.11-.2.11-.2.35-.17m-1.92-.06c.34 0 .56.21.55.51-.02.28-.26.46-.58.45-.33-.02-.54-.22-.52-.51.02-.27.24-.44.56-.44m.29.47s-.01-.08-.02-.13c-.04-.19-.12-.27-.28-.28-.15 0-.26.09-.3.26-.02.08-.02.17 0 .25.04.18.17.28.33.26s.27-.16.27-.37m3.91.45c-.32-.06-.38-.41-.63-.54-.07.2-.07.32.02.52-.04 0-.09.01-.13.01-.05 0-.1 0-.15-.01.1-.29.1-.57 0-.86.14-.06.24 0 .33.11.12.15.25.29.42.48.03-.24.07-.41-.06-.6h.3c-.15.28-.01.58-.1.88m-5.48-.01h-.37c.1-.29.12-.56.02-.86.19 0 .39-.02.58 0 .21.03.27.21.13.38-.03.03-.07.05-.12.1.11.12.21.24.32.37-.15.06-.26.03-.35-.1-.06-.09-.14-.17-.22-.27-.12.14-.06.26.01.38m-.06-.48c.21 0 .27-.04.28-.16 0-.11-.07-.15-.28-.13zm6.49.25c-.09 0-.18-.02-.27-.01-.2 0-.22.03-.19.26-.07 0-.15 0-.22-.01.13-.27.25-.52.38-.77.03-.05.09-.12.14-.12s.11.07.14.12c.13.25.25.5.38.77-.21.02-.41.12-.57-.11.08-.02.15-.03.23-.05 0-.02 0-.05-.01-.07m-.37-.16c.22-.06.23-.1.13-.27-.05.1-.09.18-.13.27m-1.64.38h-.37c0-.07.01-.14.02-.23-.12 0-.24-.02-.35-.02-.14 0-.16.05-.11.24h-.22s-.01-.04 0-.05c.1-.2.2-.39.31-.59.03-.05.05-.11.08-.16.08-.13.17-.14.25 0 .08.15.15.31.22.46.05.11.11.21.18.35m-.59-.69c-.07.14-.12.22-.17.33h.26c-.03-.1-.05-.19-.09-.33m-7.04-.05c-.14-.03-.27-.05-.42-.08 0 .12-.02.2-.02.32.12-.01.21-.02.32-.03 0 .05 0 .1.01.16-.11-.01-.21-.02-.32-.04v.33c.16-.02.3-.03.46-.05.04.07.02.14-.1.14h-.67c.08-.3.09-.58 0-.89h.64c.07 0 .07 0 .09.13m2.16.74q-.31.04-.42-.11s.06 0 .13.01c-.04-.06-.06-.11-.1-.12-.08-.02-.17-.02-.25-.02-.19 0-.2.03-.18.24-.04 0-.08.01-.12.01-.03 0-.06-.01-.09-.02.12-.24.23-.48.36-.71.04-.07.1-.16.16-.17.12-.03.14.1.18.18.12.23.22.46.34.7m-.76-.32c.14-.02.22-.03.34-.04-.06-.1-.1-.19-.17-.31-.07.14-.11.22-.17.35m-2.64-.43c-.17-.05-.31-.06-.46.09v-.17h.79c-.19.27-.36.5-.57.78.21-.02.35-.03.52-.04.02.05.04.12-.08.13h-.7c.08-.33.37-.49.5-.78m-1.73.84c-.22-.32-.33-.64-.51-.94h.35c-.02.18.02.28.23.58.1-.18.24-.33.2-.57.06 0 .13 0 .24-.01-.19.31-.29.63-.5.95m3.18-.09c.1-.22.1-.64 0-.86h.35c-.11.24-.04.49-.05.74.23.06.25.06.45-.03 0 .02.02.04.02.07 0 .02 0 .05-.02.09h-.76zm-2.54-.86h.37c-.11.29-.1.57 0 .87h-.36c-.02 0-.04-.04-.06-.06.02-.02.04-.03.06-.04.03-.02.07-.03.07-.04 0-.23.07-.47-.07-.72m9.81-28.54c-.04.37-.41.34-.69.48-.14-.2-.28-.39-.44-.62.21-.08.39-.17.58-.22.05-.01.13.05.19.09.11.08.22.17.35.28m-1.94-.24c.42.42.54.72.66 1.61-.22-.12-.4-.24-.41-.52-.01-.29-.1-.57-.28-.81-.07-.09-.08-.18.03-.28m-.65 3.27c0 .16-.02.33-.03.5 0 .17-.02.33-.02.5.02 0 .04.02.05.03l.12-.21.06.03c.03.29.05.59.08.88-.09-.22-.25-.36-.44-.49-.11-.07-.15-.17-.14-.31.01-.34.14-.64.3-.93m2.3-1.79s-.05-.09-.08-.13c-.03-.05-.05-.1-.09-.18.09-.03.17-.05.27-.09-.02.15-.04.27-.05.39h-.06m-2.45 18.51c.08-.2 0-.48.3-.56.05.25-.04.42-.3.56m1.04 4.62c-.15.16-.31.32-.48.49 0-.25.14-.4.48-.49m-6.34-.14c-.05.07-.07.11-.11.18.19.11.38.23.53.32.05.17.09.3.12.42-.25.05-.41 0-.51-.21-.16-.33-.39-.62-.6-.92-.13-.19-.25-.38-.29-.68.21.13.39.23.55.35.04.03.05.11.05.16-.01.19.04.34.28.39m.6 1.52c-.07-.13-.14-.26-.23-.42.27-.09.46.11.68.19-.16.07-.31.15-.46.22m-.33-2.4c.21.05.33.17.43.33-.24.01-.33-.05-.43-.33m4.16-38.78c-.12.14-.2.24-.3.36.13.06.25.11.41.19-.22.08-.39.15-.6.24.04.34.09.69.14 1.07-.23.03-.45.06-.69.1-.03-.17-.05-.29.1-.39.06-.04.08-.15.09-.22v-.51c0-.15 0-.31.02-.46.05-.27.16-.36.44-.36h.39m-1.22 2.49c.32-.24.62-.32.99-.16-.08.16-.15.31-.24.45-.02.04-.08.06-.13.06h-.35c.02-.08.04-.14.06-.22l-.35-.14m-.07-1.66c-.21.23-.46.24-.72.22-.03-.23.02-.37.15-.42.23-.08.39.05.57.2m-.88-.37c.21-.31.53-.33.77-.04-.2.11-.55.12-.77.04m2.43 1.13c0 .27-.03.33-.34.43-.03-.08-.05-.17-.08-.25.15-.06.29-.12.42-.18m-1.2 3.77c.09-.01.18-.04.26-.03.23.03.42.17.6.31.07.06.08.14 0 .25-.29-.16-.59-.31-.88-.47 0-.02 0-.04.01-.06" fill="#003491"/><path d="m53.49 59.71c0 .57-.49 1.06-1.08 1.05-.64-.01-1.07-.47-1.09-1.04-.01-.57.49-1.05 1.08-1.05s1.08.47 1.09 1.04m-2.76.02c0 .57-.5 1.04-1.09 1.04s-1.08-.49-1.07-1.06c.01-.58.5-1.04 1.09-1.04s1.07.48 1.07 1.05m-2.14-3.33c0-.57.48-1.05 1.07-1.05s1.08.47 1.08 1.04-.48 1.04-1.07 1.05c-.59 0-1.08-.47-1.08-1.04m1.09 7.73c-.6 0-1.08-.45-1.08-1.03s.47-1.04 1.07-1.05c.6 0 1.08.46 1.09 1.03 0 .58-.47 1.04-1.07 1.04m-2.68-5.35c.6 0 1.08.48 1.07 1.05s-.5 1.03-1.1 1.03-1.07-.48-1.06-1.05c0-.58.49-1.03 1.09-1.02m-8.62-2.37c0 .57-.51 1.05-1.09 1.03-.59-.01-1.09-.5-1.07-1.06.01-.57.51-1.04 1.1-1.03.6.01 1.07.48 1.07 1.06m.58 3.31c0-.58.49-1.04 1.08-1.04s1.07.47 1.07 1.05-.49 1.05-1.08 1.04c-.59 0-1.07-.48-1.07-1.05m-4.34-.95c.61 0 1.08.45 1.08 1.03s-.47 1.04-1.07 1.05c-.59 0-1.08-.46-1.09-1.03 0-.57.48-1.04 1.07-1.04m1.59.93c0-.57.51-1.04 1.1-1.03s1.09.5 1.06 1.06c-.02.58-.47 1.02-1.1 1.02-.6 0-1.07-.48-1.06-1.06m1.1 4.43c-.6 0-1.08-.46-1.09-1.03 0-.57.49-1.04 1.08-1.04s1.08.46 1.08 1.04-.48 1.04-1.08 1.04m12.38-32.52c-.6 0-1.08-.47-1.07-1.04 0-.58.49-1.04 1.09-1.03.6 0 1.07.47 1.07 1.04 0 .58-.48 1.03-1.08 1.03m1.08 5.66c0 .57-.48 1.05-1.07 1.05s-1.09-.47-1.09-1.04.48-1.04 1.08-1.05c.58 0 1.08.47 1.08 1.04m-2.67-3.28c0 .57-.51 1.05-1.09 1.04-.6-.02-1.08-.48-1.07-1.06 0-.58.5-1.04 1.09-1.04.6 0 1.07.48 1.07 1.06m1.57-1.12c.6 0 1.08.47 1.08 1.04s-.49 1.04-1.08 1.04c-.6 0-1.08-.47-1.08-1.04 0-.58.48-1.04 1.08-1.04m2.77 0c.6 0 1.07.46 1.07 1.04s-.48 1.03-1.08 1.03-1.07-.47-1.07-1.05.48-1.03 1.08-1.03m-16.18 4.41c0-.57.5-1.04 1.09-1.03s1.08.49 1.07 1.06c0 .57-.51 1.04-1.09 1.03-.59 0-1.07-.48-1.07-1.06m-1.6-4.33c.58 0 1.08.47 1.09 1.04 0 .57-.49 1.05-1.07 1.05-.6 0-1.09-.46-1.09-1.03s.48-1.05 1.07-1.06m2.67-1.33c-.6 0-1.08-.46-1.07-1.04 0-.58.48-1.04 1.08-1.03.6 0 1.08.47 1.08 1.04 0 .58-.49 1.03-1.09 1.03m2.76 1.26c.6 0 1.07.48 1.06 1.06 0 .57-.5 1.03-1.1 1.02-.59 0-1.08-.49-1.06-1.06.01-.58.5-1.03 1.1-1.02m-1.7 1.04c0 .58-.48 1.04-1.08 1.03-.6 0-1.07-.47-1.07-1.05s.48-1.03 1.08-1.03 1.07.46 1.07 1.04m5.08 10.57c-.6 0-1.08-.47-1.08-1.04s.5-1.04 1.08-1.04c.59 0 1.08.47 1.08 1.04 0 .58-.48 1.04-1.08 1.04m-1.59 2.37c0 .57-.49 1.04-1.09 1.04-.59 0-1.08-.48-1.07-1.05 0-.57.51-1.05 1.09-1.03.6.01 1.07.47 1.07 1.05m1.57.94c-.6 0-1.08-.46-1.08-1.04 0-.57.49-1.04 1.08-1.04s1.08.47 1.08 1.04-.49 1.04-1.08 1.03m.03 1.32c.6 0 1.07.47 1.06 1.05 0 .57-.5 1.03-1.1 1.03-.59 0-1.08-.49-1.07-1.06s.5-1.03 1.1-1.02m2.73-1.3c-.61 0-1.07-.46-1.06-1.05 0-.58.49-1.04 1.08-1.03.6 0 1.07.47 1.07 1.05s-.48 1.03-1.08 1.03m-27.66 25.59c0 .21-.11.35-.27.37-.15.02-.29-.08-.33-.26a.528.528 0 0 1 0-.25c.04-.17.15-.26.3-.26s.24.08.28.28c0 .05.02.1.02.13m-1.63-.07v-.29c.21-.02.28.02.28.13 0 .12-.07.16-.28.16m6.13.1c.04-.09.08-.17.13-.27.1.17.09.21-.13.27m-2.22-.31c.04.15.06.23.09.33h-.26c.06-.11.1-.2.17-.33m-5.64.35c.06-.13.1-.21.17-.35.07.12.11.21.17.31-.11.01-.2.02-.34.04" fill="#fff"/></svg>