<svg viewBox="30.21 116.77 723.52 935.87" xmlns="http://www.w3.org/2000/svg" xmlns:xlink="http://www.w3.org/1999/xlink"><linearGradient id="a"><stop offset="0" stop-color="#fff"/><stop offset=".5" stop-color="#fff"/><stop offset=".815" stop-color="#b6b2b0"/><stop offset="1" stop-color="#b6b2b0"/></linearGradient><radialGradient id="b" cx="243.492" cy="16786.422" gradientTransform="matrix(1 0 0 -1 0 17222)" gradientUnits="userSpaceOnUse" r="66.816" spreadMethod="pad" xlink:href="#a"/><radialGradient id="c" cx="359.69" cy="16786.422" gradientTransform="matrix(1 0 0 -1 0 17222)" gradientUnits="userSpaceOnUse" r="66.816" spreadMethod="pad" xlink:href="#a"/><linearGradient id="d"><stop offset="0" stop-color="#fff"/><stop offset=".079" stop-color="#fff"/><stop offset=".815" stop-color="#b6b2b0"/><stop offset="1" stop-color="#b6b2b0"/></linearGradient><radialGradient id="e" cx="345.247" cy="16882.406" gradientTransform="matrix(1 0 0 -1 0 17222)" gradientUnits="userSpaceOnUse" r="16.027" spreadMethod="pad" xlink:href="#d"/><linearGradient id="f"><stop offset="0" stop-color="#40b63c"/><stop offset=".498" stop-color="#40b63c"/><stop offset="1" stop-color="#165f26"/></linearGradient><radialGradient id="g" cx="329.757" cy="16881.168" gradientTransform="matrix(1 0 0 -1 0 17222)" gradientUnits="userSpaceOnUse" r="40.944" spreadMethod="pad" xlink:href="#f"/><radialGradient id="h" cx="333.568" cy="16860.023" gradientTransform="matrix(1 0 0 -1 0 17222)" gradientUnits="userSpaceOnUse" r="38.24" spreadMethod="pad" xlink:href="#f"/><radialGradient id="i" cx="342.046" cy="16840.387" gradientTransform="matrix(1 0 0 -1 0 17222)" gradientUnits="userSpaceOnUse" r="15.506" spreadMethod="pad" xlink:href="#f"/><linearGradient id="j"><stop offset="0" stop-color="#ee2623"/><stop offset=".662" stop-color="#ee2623"/><stop offset="1" stop-color="#b11b19"/></linearGradient><radialGradient id="k" cx="291.374" cy="16842.744" gradientTransform="matrix(1 0 0 -1 0 17222)" gradientUnits="userSpaceOnUse" r="2.247" spreadMethod="pad" xlink:href="#j"/><radialGradient id="l" cx="269.66" cy="16842.744" gradientTransform="matrix(1 0 0 -1 0 17222)" gradientUnits="userSpaceOnUse" r="1.992" spreadMethod="pad" xlink:href="#j"/><radialGradient id="m" cx="313.088" cy="16842.744" gradientTransform="matrix(1 0 0 -1 0 17222)" gradientUnits="userSpaceOnUse" r="1.992" spreadMethod="pad" xlink:href="#j"/><linearGradient id="n"><stop offset="0" stop-color="#feeca7"/><stop offset=".498" stop-color="#feeca7"/><stop offset="1" stop-color="#d79d0f"/></linearGradient><radialGradient id="o" cx="317.02" cy="16833.598" gradientTransform="matrix(1 0 0 -1 0 17222)" gradientUnits="userSpaceOnUse" r="1.151" spreadMethod="pad" xlink:href="#n"/><radialGradient id="p" cx="273.591" cy="16833.598" gradientTransform="matrix(1 0 0 -1 0 17222)" gradientUnits="userSpaceOnUse" r="1.152" spreadMethod="pad" xlink:href="#n"/><radialGradient id="q" cx="297.59" cy="16833.598" gradientTransform="matrix(1 0 0 -1 0 17222)" gradientUnits="userSpaceOnUse" r="1.192" spreadMethod="pad" xlink:href="#n"/><radialGradient id="r" cx="291.383" cy="16830.83" gradientTransform="matrix(1 0 0 -1 0 17222)" gradientUnits="userSpaceOnUse" r="4.298" spreadMethod="pad" xlink:href="#n"/><radialGradient id="s" cx="291.374" cy="16833.568" gradientTransform="matrix(1 0 0 -1 0 17222)" gradientUnits="userSpaceOnUse" r="1.405" spreadMethod="pad" xlink:href="#n"/><radialGradient id="t" cx="285.158" cy="16833.598" gradientTransform="matrix(1 0 0 -1 0 17222)" gradientUnits="userSpaceOnUse" r="1.192" spreadMethod="pad" xlink:href="#n"/><radialGradient id="u" cx="269.666" cy="16830.922" gradientTransform="matrix(1 0 0 -1 0 17222)" gradientUnits="userSpaceOnUse" r="3.424" spreadMethod="pad" xlink:href="#n"/><radialGradient id="v" cx="265.729" cy="16833.598" gradientTransform="matrix(1 0 0 -1 0 17222)" gradientUnits="userSpaceOnUse" r="1.151" spreadMethod="pad" xlink:href="#n"/><radialGradient id="w" cx="313.084" cy="16830.922" gradientTransform="matrix(1 0 0 -1 0 17222)" gradientUnits="userSpaceOnUse" r="3.428" spreadMethod="pad" xlink:href="#n"/><radialGradient id="x" cx="309.156" cy="16833.598" gradientTransform="matrix(1 0 0 -1 0 17222)" gradientUnits="userSpaceOnUse" r="1.151" spreadMethod="pad" xlink:href="#n"/><radialGradient id="y" cx="367.878" cy="16864.238" gradientTransform="matrix(1 0 0 -1 0 17222)" gradientUnits="userSpaceOnUse" r="5.654" spreadMethod="pad" xlink:href="#d"/><radialGradient id="z" cx="376.716" cy="16871.793" gradientTransform="matrix(1 0 0 -1 0 17222)" gradientUnits="userSpaceOnUse" r="19.835" spreadMethod="pad" xlink:href="#d"/><radialGradient id="A" cx="371.858" cy="16863.002" gradientTransform="matrix(1 0 0 -1 0 17222)" gradientUnits="userSpaceOnUse" r="51.174" spreadMethod="pad" xlink:href="#a"/><radialGradient id="B" cx="358.459" cy="16871.801" gradientTransform="matrix(1 0 0 -1 0 17222)" gradientUnits="userSpaceOnUse" r="19.849" spreadMethod="pad" xlink:href="#d"/><radialGradient id="C" cx="368.35" cy="16837.711" gradientTransform="matrix(1 0 0 -1 0 17222)" gradientUnits="userSpaceOnUse" r="7.32" spreadMethod="pad" xlink:href="#d"/><radialGradient id="D" cx="368.892" cy="16836.531" gradientTransform="matrix(1 0 0 -1 0 17222)" gradientUnits="userSpaceOnUse" r="24.315" spreadMethod="pad" xlink:href="#d"/><radialGradient id="E" cx="367.998" cy="16841.543" gradientTransform="matrix(1 0 0 -1 0 17222)" gradientUnits="userSpaceOnUse" r="6.024" spreadMethod="pad" xlink:href="#d"/><radialGradient id="F" cx="270.836" cy="16706.102" gradientTransform="matrix(1 0 0 -1 0 17222)" gradientUnits="userSpaceOnUse" r="42.432" spreadMethod="pad" xlink:href="#a"/><radialGradient id="G" cx="217.693" cy="16714.402" gradientTransform="matrix(1 0 0 -1 0 17222)" gradientUnits="userSpaceOnUse" r="42.635" spreadMethod="pad" xlink:href="#a"/><radialGradient id="H" cx="325.101" cy="16706.113" gradientTransform="matrix(1 0 0 -1 0 17222)" gradientUnits="userSpaceOnUse" r="42.44" spreadMethod="pad" xlink:href="#a"/><radialGradient id="I" cx="377.661" cy="16714.414" gradientTransform="matrix(1 0 0 -1 0 17222)" gradientUnits="userSpaceOnUse" r="42.658" spreadMethod="pad" xlink:href="#a"/><linearGradient id="J" gradientTransform="matrix(1 0 0 -1 0 17222)" gradientUnits="userSpaceOnUse" spreadMethod="pad" x1="206.07" x2="381.903" y1="16936.5" y2="16936.5"><stop offset="0" stop-color="#a6a5a5"/><stop offset=".311" stop-color="#fff"/><stop offset=".5" stop-color="#fff"/><stop offset=".689" stop-color="#fff"/><stop offset="1" stop-color="#babcbc"/></linearGradient><linearGradient id="K"><stop offset="0" stop-color="#d79d0f"/><stop offset=".177" stop-color="#feeca7"/><stop offset=".33" stop-color="#feeca7"/><stop offset=".66" stop-color="#d79d0f"/><stop offset=".859" stop-color="#feeca7"/><stop offset="1" stop-color="#feeca7"/></linearGradient><linearGradient id="L" gradientTransform="matrix(1 0 0 -1 0 17222)" gradientUnits="userSpaceOnUse" spreadMethod="pad" x1="252.933" x2="329.814" xlink:href="#K" y1="16888.574" y2="16888.574"/><linearGradient id="M" gradientTransform="matrix(1 0 0 -1 0 17222)" gradientUnits="userSpaceOnUse" spreadMethod="pad" x1="257.734" x2="325.014" xlink:href="#K" y1="16850.977" y2="16850.977"/><linearGradient id="N" gradientTransform="matrix(1 0 0 -1 0 17222)" gradientUnits="userSpaceOnUse" spreadMethod="pad" x1="282.218" x2="300.53" xlink:href="#K" y1="16836.613" y2="16836.613"/><linearGradient id="O" gradientTransform="matrix(1 0 0 -1 0 17222)" gradientUnits="userSpaceOnUse" spreadMethod="pad" x1="263.401" x2="275.918" xlink:href="#K" y1="16836.613" y2="16836.613"/><linearGradient id="P" gradientTransform="matrix(1 0 0 -1 0 17222)" gradientUnits="userSpaceOnUse" spreadMethod="pad" x1="306.829" x2="319.346" xlink:href="#K" y1="16836.613" y2="16836.613"/><linearGradient id="Q" gradientTransform="matrix(1 0 0 -1 0 17222)" gradientUnits="userSpaceOnUse" spreadMethod="pad" x1="308.064" x2="318.111" xlink:href="#K" y1="16843.172" y2="16843.172"/><linearGradient id="R" gradientTransform="matrix(1 0 0 -1 0 17222)" gradientUnits="userSpaceOnUse" spreadMethod="pad" x1="283.981" x2="298.766" xlink:href="#K" y1="16843.164" y2="16843.164"/><linearGradient id="S" gradientTransform="matrix(1 0 0 -1 0 17222)" gradientUnits="userSpaceOnUse" spreadMethod="pad" x1="264.636" x2="274.683" xlink:href="#K" y1="16843.156" y2="16843.156"/><linearGradient id="T"><stop offset="0" stop-color="#a6a5a5"/><stop offset=".479" stop-color="#fff"/><stop offset="1" stop-color="#fff"/></linearGradient><linearGradient id="U" gradientTransform="matrix(1 0 0 -1 0 17222)" gradientUnits="userSpaceOnUse" spreadMethod="pad" x1="213.169" x2="248.618" xlink:href="#T" y1="16860.326" y2="16860.326"/><linearGradient id="V" gradientTransform="matrix(1 0 0 -1 0 17222)" gradientUnits="userSpaceOnUse" spreadMethod="pad" x1="194.593" x2="393.362" xlink:href="#T" y1="16739.855" y2="16739.855"/><linearGradient id="W" gradientTransform="matrix(1 0 0 -1 0 17222)" gradientUnits="userSpaceOnUse" spreadMethod="pad" x1="199.13" x2="388.827" xlink:href="#T" y1="16750.604" y2="16750.604"/><linearGradient id="X" gradientTransform="matrix(1 0 0 -1 0 17222)" gradientUnits="userSpaceOnUse" spreadMethod="pad" x1="203.826" x2="384.118" xlink:href="#T" y1="16745.641" y2="16745.641"/><linearGradient id="Y" gradientTransform="matrix(1 0 0 -1 0 17222)" gradientUnits="userSpaceOnUse" spreadMethod="pad" x1="198.812" x2="389.183" xlink:href="#T" y1="16743.145" y2="16743.145"/><linearGradient id="Z" gradientTransform="matrix(1 0 0 -1 0 17222)" gradientUnits="userSpaceOnUse" spreadMethod="pad" x1="213.711" x2="269.596" xlink:href="#T" y1="16701.352" y2="16711.205"/><linearGradient id="aa" gradientTransform="matrix(1 0 0 -1 0 17222)" gradientUnits="userSpaceOnUse" spreadMethod="pad" x1="273.397" x2="314.599" xlink:href="#T" y1="16701.242" y2="16701.242"/><linearGradient id="ab" gradientTransform="matrix(1 0 0 -1 0 17222)" gradientUnits="userSpaceOnUse" spreadMethod="pad" x1="363.26" x2="416.145" xlink:href="#T" y1="16725.859" y2="16706.611"/><linearGradient id="ac" gradientTransform="matrix(1 0 0 -1 0 17222)" gradientUnits="userSpaceOnUse" spreadMethod="pad" x1="171.813" x2="224.694" xlink:href="#T" y1="16706.605" y2="16725.852"/><linearGradient id="ad" gradientTransform="matrix(1 0 0 -1 0 17222)" gradientUnits="userSpaceOnUse" spreadMethod="pad" x1="318.352" x2="374.246" xlink:href="#T" y1="16711.209" y2="16701.354"/><g transform="matrix(1.33333 0 0 -1.33333 0 1120)"><path d="m492.05 301.066c73.963 153.532 73.248 307.422 73.248 307.422s-61.375 20.625-102.816 73.041c-26.235 33.185-35.946 70.896-35.946 70.896s-64.182-31.92-132.557-31.92h-.001c-68.376 0-132.559 31.92-132.559 31.92s-9.71-37.711-35.945-70.896c-41.44-52.416-102.816-73.04-102.816-73.04s-.715-153.891 73.248-307.423c84.224-174.832 198.072-250.545 198.072-250.545s113.85 75.713 198.073 250.545" fill="#1f3f88"/><path d="m344.814 261.463 66.577-66.733.462-.529c22.32 31.14 45.655 68.84 67.029 113.21a637 637 0 0 1 11.747 25.85l-.382.343-103.806 104.05-.471.485v-101.962c0-23.735-9.437-45.945-26.57-62.54a90.3 90.3 0 0 0 -14.994-11.73z" fill="#fff"/><path d="m386.435 447.176 106.739-106.99.257-.282c27.497 66.203 41.44 129.798 48.438 174.06 6.217 39.341 8.05 69.828 8.588 84.624-20.103 8.482-65.66 31.15-99.44 73.876-17.149 21.691-27.662 44.98-33.312 60.062-23.839-9.798-72.285-26.637-123.727-26.637s-99.888 16.839-123.727 26.637c-4.364-11.648-11.628-28.19-22.609-45.112l-.35-.531 60.296-60.438-.22.469-11.026 24.998 22.843 2.688 20.6-49.355 8.109 52.733 18.773 2.208-12.799-79.455-.049-.627 31.602-31.676.24-.256q.14.031.292.032h4.238c.735 0 1.333-.598 1.333-1.333v-3.706h4.908v3.706c0 .735.597 1.333 1.333 1.333h4.238c.735 0 1.333-.598 1.333-1.333v-3.706h4.906v3.706c0 .735.598 1.333 1.333 1.333h4.239c.735 0 1.333-.598 1.333-1.333v-8.052c0-.735-.598-1.333-1.334-1.333h-1.524l-.212-.017v-1.55c0-1.05-.853-1.905-1.904-1.905h-2.567l.012-.18.896-4.331.249-.004q1.68-.082 3.36-.184c.545-.036.723-.416.654-.96l-.338-4.432.186-.025q2.356-.15 4.705-.336l.006.239.332 4.347c.023.613.27.774.968.701q2.79-.231 5.562-.514c.482-.022.65-.235.597-1.115l-.306-3.99-.012-.328q2.43-.255 4.843-.55l.04.396.317 4.158c.042.651.169.819.946.701a288 288 0 0 0 3.276-.427l.09.152 1.774 4.28-2.553.473c-.497.096-.929.38-1.216.803a1.9 1.9 0 0 0 -.296 1.427l.294 1.535-1.703.33c-.35.066-.653.266-.853.561s-.274.65-.206.999l1.513 7.908a1.335 1.335 0 0 0 1.56 1.06l4.163-.797a1.335 1.335 0 0 0 1.059-1.56l-.698-3.641 4.82-.922c.16.842.697 3.64.697 3.64a1.334 1.334 0 0 0 1.559 1.059l4.163-.798a1.33 1.33 0 0 0 1.06-1.56l-.698-3.639 4.82-.922c.16.842.696 3.639.696 3.639.067.349.266.652.562.852s.65.274.998.207l4.164-.796a1.336 1.336 0 0 0 1.058-1.56s-.536-2.798-.696-3.641l4.818-.922.696 3.64c.067.35.266.652.562.852.294.2.65.274.998.207l4.163-.797c.348-.066.651-.266.851-.561.2-.297.275-.65.206-1l-1.512-7.908a1.335 1.335 0 0 0 -1.56-1.058l-1.705.326-.295-1.539a1.907 1.907 0 0 0 -2.228-1.513l-2.52.482-.021-.37.064-4.39.264-.057q1.342-.333 2.682-.679c.472-.124.74-.39.585-.96l-1.11-4.185-.07-.253q2.268-.593 4.523-1.226l.148.35 1.093 4.12c.12.573.323.686.766.55q2.766-.783 5.508-1.622c.537-.153.59-.44.502-.78l-1.155-4.34-.064-.285q2.263-.7 4.505-1.44l.063.225 1.16 4.366c.085.378.293.568.755.418q1.597-.529 3.181-1.076l.128-.05 2.58 3.944.103.16-2.596 1.083a1.88 1.88 0 0 0 -1.026 1.034c-.195.472-.194.99.001 1.459l.608 1.452-1.604.661a1.33 1.33 0 0 0 -.716 1.744l3.102 7.431c.284.678 1.066 1 1.743.716l3.911-1.633a1.336 1.336 0 0 0 .717-1.744l-1.427-3.42 4.526-1.89 1.428 3.42c.137.328.393.583.724.718.33.136.693.135 1.02-.002l3.91-1.633a1.335 1.335 0 0 0 .716-1.743l-1.426-3.42c.773-.324 3.754-1.568 4.527-1.891l1.429 3.419a1.33 1.33 0 0 0 1.744.717l3.911-1.633a1.335 1.335 0 0 0 .715-1.746l-3.031-7.163c-.26-.535-.58-.86-.973-.992-.516-.175-.984.059-1.137.136l-.638.252-.634-1.434a1.94 1.94 0 0 0 -2.512-1.002l-.687.268-4.92-11.177-.02-.107c.97-.55 1.431-1.162 1.644-1.659.3-.696.248-1.465-.147-2.166-.723-1.287-2.068-1.03-3.522-.664l-.02-.094-8.694-19.752.188-.083q1.314-.564 2.612-1.142c2.916-1.27 2.603-3.208 2.156-4.25-.238-.556-.637-1.485-1.563-1.85-.622-.244-1.385-.203-2.322.128l-.189.047c-.255-.63-.676-1.263-1.302-1.635-.534-.317-1.44-.57-2.693.027l-.985.424c-.03-.336-.1-.69-.234-1.04a3 3 0 0 0 -.346-.656l-.085-.141q1.815-.773 3.6-1.575c1.809-.847 2.194-2.681 1.639-3.977-.275-.638-.65-1.514-1.562-1.876-.601-.24-1.346-.21-2.258.09l-.026-.256v-11.088z" fill="#ee2623"/><path d="m279.714 544.637v-1.472h1.489zm-77.728-139.972v53.928l.005.352c-.926-.31-1.68-.343-2.29-.101-.912.362-1.287 1.238-1.56 1.876-.556 1.296-.17 3.13 1.647 3.98q1.78.801 3.592 1.572s-.29.413-.459.89a4 4 0 0 0 -.195.95l-.978-.419c-1.272-.605-2.177-.353-2.712-.035-.586.348-.992.925-1.251 1.514l-.069.137c-1.015-.388-1.833-.45-2.493-.19-.926.363-1.324 1.293-1.563 1.85-.446 1.04-.76 2.978 2.153 4.247q1.393.62 2.805 1.224l-.215.49-8.526 19.368-.286-.086c-1.333-.318-2.54-.454-3.211.741-.395.7-.447 1.47-.147 2.166.202.47.625 1.043 1.491 1.57l.178.095-4.966 11.28-.686-.27a1.94 1.94 0 0 0 -2.512 1.002l-.628 1.425-.678-.26s-.587-.294-1.103-.12c-.393.134-.711.458-.986 1.02l-3.02 7.139c-.282.677.04 1.46.718 1.743l3.91 1.633c.328.137.69.138 1.02.002s.588-.391.724-.719l1.429-3.42 4.528 1.892-1.428 3.42a1.32 1.32 0 0 0 -.002 1.019c.135.33.39.587.718.724l3.911 1.633c.328.137.69.138 1.02.002.33-.135.588-.39.724-.718l1.428-3.42 4.527 1.89-1.428 3.42q-.104.252-.103.512c0 .522.308 1.019.82 1.232l3.91 1.633a1.334 1.334 0 0 0 1.744-.716l3.103-7.43c.137-.329.138-.69.002-1.02a1.33 1.33 0 0 0 -.719-.725l-1.593-.689.596-1.425c.195-.468.196-.986.002-1.458a1.9 1.9 0 0 0 -1.026-1.034l-2.577-1.076.216-.37 2.436-3.724.205.056q1.549.533 3.108 1.05c.32.111.591.148.812-.606l1.166-4.386.208.053q2.155.707 4.327 1.381l-.066.194-1.143 4.305c-.121.41-.049.766.455.893q2.761.846 5.545 1.632c.272.089.597.002.75-.584l1.124-4.23.058-.226q2.284.64 4.578 1.24l-.06.21-1.133 4.264c-.12.48-.089.759.4.874q1.57.407 3.142.794l.001.183.067 4.578-.193-.04-2.353-.45a1.91 1.91 0 0 0 -2.229 1.513l-.294 1.538-1.705-.326a1.335 1.335 0 0 0 -1.56 1.06l-1.513 7.907c-.067.35.006.704.206 1 .2.295.503.494.852.56l4.163.798a1.33 1.33 0 0 0 1.559-1.06s.537-2.797.697-3.64l4.819.923-.697 3.64a1.336 1.336 0 0 0 1.059 1.56l4.162.796c.35.068.704-.006 1-.206.295-.2.494-.503.56-.852l.698-3.64 4.819.923-.697 3.64a1.335 1.335 0 0 0 1.058 1.56l4.164.796a1.335 1.335 0 0 0 1.56-1.058l.697-3.64 4.818.922-.697 3.64a1.33 1.33 0 0 0 1.059 1.56l4.162.797a1.335 1.335 0 0 0 1.56-1.059l1.514-7.908a1.33 1.33 0 0 0 -.206-1 1.33 1.33 0 0 0 -.853-.56l-1.703-.332.294-1.533a1.9 1.9 0 0 0 -.297-1.428 1.9 1.9 0 0 0 -1.215-.802l-2.54-.486.137-.347 1.685-4.066.217.02q1.59.215 3.19.414c.464.084.797-.09.841-.675l.351-4.596.258.033q2.293.28 4.6.52l-.017.307-.328 4.286c-.073.589.114.776.804.86q2.765.279 5.543.507c.529.06.747-.15.806-.78l.314-4.114.06-.403q2.423.192 4.85.345l-.026.347-.32 4.199c-.033.458-.051.815.62.856q1.827.11 3.654.199l.03.152.902 4.364-.176-.013h-2.419c-1.05 0-1.904.854-1.904 1.904v1.571l-.213-.004h-1.522c-.736 0-1.334.598-1.334 1.333v8.053c0 .734.598 1.333 1.334 1.333h2.026l-.367.35-27.017 27.08-.727-.018-17.173-2.02-15.595 35.354-.29.548-71.538 71.708-.405-.56a192 192 0 0 0 -6.118-8.182c-33.779-42.726-79.337-65.394-99.44-73.876.25-6.896.783-17.199 1.909-30.218l.132-.914 161.775-162.158.67-.633z" fill="#fff"/><path d="m201.515 395.585-160.978 161.358.07-1.164a792 792 0 0 1 5.48-41.815c8.138-51.473 25.67-129.09 62.987-206.554 42.455-88.13 92.645-149.954 127.273-186.299 25.598-26.868 46.692-44.152 57.63-52.504 10.939 8.352 32.034 25.636 57.632 52.504 16.156 16.957 35.7 39.461 56.266 67.595l-.397.43-68.59 68.753-.574.533c-13.359-6.978-28.502-10.682-44.336-10.682-24.947 0-48.182 9.197-65.423 25.898-17.133 16.594-26.569 38.804-26.569 62.539v58.913z" fill="#2b79c7"/><path d="m208.444 200.532c1.558.328 4.017.574 6.518.574 3.566 0 5.862-.614 7.584-2.008 1.434-1.066 2.296-2.704 2.296-4.878 0-2.664-1.763-5.001-4.674-6.068v-.082c2.624-.655 5.698-2.827 5.698-6.926 0-2.378-.943-4.181-2.336-5.534-1.927-1.762-5.042-2.583-9.551-2.583-2.46 0-4.346.164-5.535.329zm3.567-11.313h3.238c3.772 0 5.985 1.968 5.985 4.633 0 3.238-2.46 4.508-6.067 4.508-1.64 0-2.582-.122-3.156-.246zm0-13.24c.697-.123 1.721-.165 2.992-.165 3.69 0 7.092 1.354 7.092 5.372 0 3.77-3.239 5.328-7.133 5.328h-2.95zm22.586 5.985-2.869-8.69h-3.69l9.388 27.628h4.304l9.428-27.629h-3.813l-2.951 8.69zm9.06 2.789-2.706 7.951c-.616 1.804-1.025 3.444-1.435 5.043h-.082c-.41-1.64-.86-3.321-1.394-5.002l-2.705-7.992zm11.026 15.779c1.804.37 4.386.574 6.846.574 3.812 0 6.272-.696 7.993-2.253 1.394-1.23 2.173-3.117 2.173-5.248 0-3.648-2.296-6.066-5.206-7.05v-.123c2.132-.738 3.402-2.705 4.058-5.576.902-3.853 1.558-6.517 2.132-7.583h-3.69c-.45.78-1.066 3.158-1.844 6.6-.82 3.813-2.296 5.247-5.534 5.37h-3.361v-11.97h-3.567zm3.567-12.585h3.648c3.812 0 6.23 2.091 6.23 5.247 0 3.567-2.582 5.124-6.353 5.165-1.722 0-2.952-.164-3.525-.328zm37.384-13.772c-1.312-.655-3.936-1.312-7.297-1.312-7.789 0-13.65 4.92-13.65 13.979 0 8.648 5.861 14.51 14.429 14.51 3.443 0 5.616-.738 6.558-1.229l-.86-2.91c-1.353.655-3.28 1.147-5.575 1.147-6.477 0-10.781-4.14-10.781-11.395 0-6.764 3.894-11.109 10.617-11.109 2.173 0 4.386.45 5.821 1.147zm18.241 12.053h-10.74v-9.962h11.969v-2.993h-15.536v27.63h14.921v-2.993h-11.354v-8.732h10.74zm5.327 14.674h3.568v-24.636h11.805v-2.993h-15.373zm40.829-13.527c0-9.51-5.78-14.552-12.83-14.552-7.297 0-12.422 5.656-12.422 14.019 0 8.772 5.452 14.51 12.831 14.51 7.543 0 12.421-5.779 12.421-13.977m-21.44-.452c0-5.902 3.199-11.19 8.814-11.19 5.658 0 8.855 5.206 8.855 11.478 0 5.492-2.87 11.231-8.814 11.231-5.902 0-8.854-5.452-8.854-11.52m25.047-9.304c1.597-.983 3.934-1.804 6.394-1.804 3.649 0 5.78 1.928 5.78 4.714 0 2.583-1.476 4.06-5.207 5.493-4.508 1.6-7.295 3.936-7.295 7.83 0 4.305 3.566 7.502 8.935 7.502 2.828 0 4.879-.656 6.108-1.354l-.983-2.91a11 11 0 0 1 -5.248 1.312c-3.77 0-5.205-2.254-5.205-4.14 0-2.582 1.68-3.853 5.492-5.33 4.674-1.802 7.05-4.057 7.05-8.116 0-4.262-3.155-7.952-9.674-7.952-2.664 0-5.574.78-7.05 1.763z" fill="#fff"/><path d="m367.907 465.747 5.184-5.195.35-.344h9.073l.406.017c-4.634 1.97-8.703 3.564-12.648 4.953q-1.375.485-2.761.952z" fill="#ee2623"/><path d="m353.96 470.206c-19.111 5.075-39.216 7.64-59.982 7.64-26.769 0-52.438-4.262-76.295-12.668-3.956-1.394-8.039-2.992-12.692-4.972l.745.001h158.256l-.31.26-9.399 9.42z" fill="#fff"/><path d="m366.078 520.022-1.111-4.185-.069-.253q2.267-.593 4.523-1.226l.147.35 1.094 4.12c.12.573.323.686.766.55q2.765-.783 5.508-1.622c.538-.153.591-.44.501-.78l-1.154-4.34-.063-.284a261 261 0 0 0 4.505-1.44l.062.224 1.16 4.366c.085.378.293.568.755.418q1.597-.529 3.18-1.076l.129-.05 2.579 3.944.103.16-2.595 1.083a1.88 1.88 0 0 0 -1.026 1.034c-.194.472-.194.99.001 1.459l.609 1.452-1.605.661a1.33 1.33 0 0 0 -.717 1.745l3.103 7.43c.284.678 1.065 1 1.744.717l3.91-1.634a1.336 1.336 0 0 0 .717-1.744l-1.428-3.42 4.527-1.89 1.427 3.42c.138.328.394.583.725.718.33.136.692.135 1.02-.002l3.91-1.633a1.335 1.335 0 0 0 .717-1.743l-1.427-3.42c.773-.324 3.754-1.568 4.527-1.891l1.429 3.42c.136.327.393.582.723.718s.693.135 1.02-.002l3.912-1.633a1.335 1.335 0 0 0 .715-1.746l-3.031-7.163c-.261-.535-.58-.859-.973-.992-.517-.175-.983.059-1.138.136l-.637.252-.633-1.434a1.943 1.943 0 0 0 -2.513-1.002l-.687.268-4.92-11.177-.02-.107c.97-.55 1.43-1.162 1.645-1.659.298-.696.247-1.465-.147-2.165-.724-1.288-2.07-1.031-3.523-.665l-.019-.094-8.695-19.752.187-.083q1.314-.564 2.613-1.142c2.916-1.27 2.602-3.208 2.157-4.25-.238-.555-.638-1.485-1.565-1.85-.622-.244-1.384-.203-2.32.129l-.19.046c-.255-.63-.676-1.263-1.302-1.635-.534-.317-1.44-.57-2.693.028l-.986.423c-.03-.336-.1-.69-.232-1.04a3 3 0 0 0 -.347-.656l-.085-.141q1.814-.772 3.6-1.575c1.808-.847 2.194-2.68 1.638-3.977-.273-.638-.648-1.514-1.561-1.876-.602-.239-1.346-.21-2.258.09l-.026-.256v-122.5c0-23.735-9.437-45.945-26.569-62.54-17.241-16.7-40.476-25.897-65.423-25.897s-48.182 9.197-65.423 25.897c-17.133 16.595-26.57 38.805-26.57 62.54v122.416l.007.351c-.927-.31-1.68-.343-2.29-.1-.912.361-1.287 1.237-1.561 1.875-.556 1.296-.17 3.13 1.647 3.981q1.781.8 3.592 1.571s-.29.414-.459.89a4 4 0 0 0 -.195.95q-.49-.208-.977-.418c-1.273-.605-2.178-.353-2.713-.036-.585.348-.992.926-1.25 1.515l-.07.137c-1.014-.389-1.833-.45-2.492-.191-.927.364-1.325 1.294-1.564 1.85-.446 1.041-.76 2.979 2.153 4.247q1.394.62 2.805 1.225l-.214.489-8.527 19.368-.286-.086c-1.333-.317-2.54-.453-3.211.742-.395.7-.446 1.47-.147 2.165.203.47.625 1.043 1.491 1.57l.178.095-4.966 11.28-.686-.27a1.94 1.94 0 0 0 -2.512 1.002l-.629 1.425-.677-.259s-.586-.295-1.102-.12c-.394.133-.712.457-.986 1.02l-3.02 7.138c-.283.678.039 1.46.717 1.743l3.91 1.634a1.333 1.333 0 0 0 1.745-.718l1.428-3.42 4.528 1.892-1.428 3.42a1.32 1.32 0 0 0 -.002 1.02c.135.33.39.586.718.723l3.912 1.633c.327.138.69.138 1.02.002.33-.135.587-.39.723-.718l1.429-3.42c.774.323 3.752 1.568 4.526 1.89l-1.428 3.42a1.333 1.333 0 0 0 .717 1.744l3.91 1.634a1.335 1.335 0 0 0 1.745-.717l3.102-7.43c.137-.328.138-.69.002-1.02a1.33 1.33 0 0 0 -.718-.724l-1.593-.69.595-1.424a1.9 1.9 0 0 0 .002-1.459 1.9 1.9 0 0 0 -1.026-1.033l-2.577-1.077.216-.369 2.436-3.724.206.055q1.548.534 3.107 1.05c.32.112.592.148.813-.605l1.166-4.386.207.052q2.155.708 4.327 1.382l-.065.193-1.144 4.306c-.12.41-.048.765.455.893q2.761.845 5.545 1.632c.272.088.598.002.75-.584l1.124-4.23.059-.227q2.283.642 4.578 1.241l-.06.21-1.133 4.263c-.12.48-.09.76.4.875q1.568.405 3.141.794l.001.183.068 4.577-.193-.04-2.354-.45a1.91 1.91 0 0 0 -2.228 1.513l-.295 1.539-1.705-.326a1.335 1.335 0 0 0 -1.56 1.059l-1.513 7.908c-.067.349.006.704.207 1 .2.295.503.494.852.56l4.162.798a1.33 1.33 0 0 0 1.56-1.06l.697-3.64 4.818.922-.697 3.64a1.336 1.336 0 0 0 1.059 1.56l4.162.797c.35.067.705-.006 1-.207s.495-.503.561-.852l.697-3.639 4.82.922-.697 3.64a1.335 1.335 0 0 0 1.058 1.56l4.163.797a1.335 1.335 0 0 0 1.56-1.059l.697-3.64 4.818.922-.697 3.64a1.33 1.33 0 0 0 1.059 1.56l4.163.798a1.335 1.335 0 0 0 1.56-1.06l1.513-7.908a1.33 1.33 0 0 0 -.206-.999 1.33 1.33 0 0 0 -.852-.561l-1.703-.332.293-1.533a1.9 1.9 0 0 0 -.296-1.427 1.9 1.9 0 0 0 -1.216-.802l-2.54-.486.137-.348 1.685-4.066.217.02q1.59.216 3.19.414c.464.084.798-.09.842-.675l.35-4.596.259.033q2.292.28 4.6.521l-.018.306-.328 4.286c-.072.59.114.776.805.86q2.763.28 5.543.508c.528.059.746-.15.805-.78l.315-4.114.06-.404q2.423.194 4.85.345l-.027.348-.32 4.198c-.033.458-.051.816.62.857q1.827.111 3.655.198l.03.153.902 4.364-.177-.014h-2.418c-1.05 0-1.905.855-1.905 1.905v1.57l-.212-.003h-1.523c-.735 0-1.334.598-1.334 1.333v8.052c0 .735.599 1.333 1.334 1.333h4.238c.735 0 1.333-.598 1.333-1.333v-3.706h4.906v3.706c0 .735.598 1.333 1.333 1.333h4.238c.735 0 1.333-.598 1.333-1.333v-3.706h4.907v3.706c0 .735.598 1.333 1.333 1.333h4.239c.735 0 1.333-.598 1.333-1.333v-3.706h4.906v3.706c0 .735.598 1.333 1.333 1.333h4.238c.736 0 1.334-.598 1.334-1.333v-8.052c0-.735-.598-1.333-1.334-1.333h-1.523l-.213-.017v-1.55c0-1.05-.854-1.905-1.903-1.905h-2.568l.013-.18.895-4.331.25-.004q1.68-.082 3.359-.184c.545-.036.723-.416.654-.96l-.338-4.432.186-.025q2.355-.15 4.705-.336l.006.239.332 4.347c.023.613.27.774.969.702q2.79-.233 5.561-.515c.482-.022.65-.235.597-1.115l-.305-3.99-.014-.328q2.431-.255 4.844-.55l.04.396.318 4.158c.04.651.168.819.945.701a288 288 0 0 0 3.275-.427l.091.152 1.775 4.28-2.553.473c-.498.096-.93.38-1.217.803a1.9 1.9 0 0 0 -.296 1.427l.294 1.535-1.703.33a1.33 1.33 0 0 0 -1.059 1.56l1.514 7.908a1.334 1.334 0 0 0 1.56 1.06l4.162-.797a1.336 1.336 0 0 0 1.06-1.56l-.698-3.641 4.818-.922.698 3.64a1.335 1.335 0 0 0 1.56 1.059l4.161-.798a1.33 1.33 0 0 0 1.06-1.56l-.697-3.639 4.82-.922.695 3.639c.068.35.267.652.563.852s.65.274.998.207l4.164-.796a1.336 1.336 0 0 0 1.058-1.56l-.697-3.641 4.819-.922.696 3.64c.066.35.266.652.562.852.293.2.649.274.998.207l4.163-.797c.348-.066.651-.266.851-.561s.275-.65.207-1l-1.513-7.908a1.335 1.335 0 0 0 -1.56-1.058l-1.705.326-.295-1.539a1.907 1.907 0 0 0 -2.229-1.513l-2.52.482-.02-.37.065-4.39.264-.057q1.341-.333 2.681-.679c.473-.124.74-.39.585-.96m-160.342-59.815h176.779l.405.018c-4.634 1.97-8.703 3.563-12.648 4.953-23.856 8.406-49.525 12.668-76.294 12.668s-52.438-4.262-76.295-12.668c-3.956-1.394-8.039-2.993-12.692-4.972z" fill="#231f20"/><path d="m326.686 659.115-9.155-81.245 21.702-2.446s2.783 24.688 3.376 29.96l29.494-3.322 2.091 18.564-29.489 3.322 1.595 14.157 37.281-4.2 2.09 18.564zm122.084-32.438c-9.045-4.795-16.14-13.393-20.518-24.865-11.065-28.989 2.223-45.894 18.346-52.047 16.787-6.407 31.579-1.664 41.654 13.353l2.105 3.138-19.768 10.131-1.586-2.812c-3.755-6.658-9.451-9.124-15.63-6.766-7.58 2.893-9.044 13.19-3.821 26.873 4.906 12.854 13.635 20.211 20.755 17.493 2.257-.861 9.124-3.482 6.597-17.298l-.515-2.82 21.068-7.422.763 3.793c3.938 19.599-3.735 34.15-21.609 40.972-9.22 3.518-19.108 2.907-27.841-1.723m-362.324-19.935c-3.467-9.633-2.932-20.767 1.546-32.2 5.258-13.426 13.103-22.674 22.688-26.746 7.93-3.37 16.91-3.16 25.965.604 8.599 3.576 12.838 9.868 14.92 14.841l4.452-6.11 10.652 4.172-16.628 42.456-33.27-13.031 6.703-17.115 13.522 5.296c1.016-6.34-1.4-11.223-6.869-13.366-8.092-3.168-15.127 2.659-20.91 17.32-3.967 10.06-6.564 22.892 3.6 26.901 2.04.805 8.252 3.256 15.187-6.384l1.755-2.44 18.384 10.342-2.09 3.031c-10.143 14.716-23.657 18.9-40.167 12.434-9.19-3.6-16.093-10.704-19.44-20.005" fill="#1f3f88"/><path d="m340.99 620.986 29.489-3.323-1.34-11.886-29.492 3.323-3.376-29.96-15.025 1.692 8.401 74.568 52.309-5.894-1.338-11.886-37.28 4.2zm144.473-55.996c-8.272-12.327-20.634-18.587-37.666-12.086-16.687 6.368-25.844 22.983-16.406 47.71 8.532 22.354 27.336 31.015 44.023 24.646 18.205-6.948 22.719-21.213 19.512-37.17l-14.716 5.183c1.78 9.734-.225 17.805-8.704 21.041-8.52 3.252-19.121-3.788-25.094-19.433-6.605-17.307-2.757-27.96 5.764-31.212 7.964-3.04 15.303.364 19.754 8.256zm-335.28 5.853s-1.143-13.65-14.828-19.34c-17.456-7.256-34.583-.38-44.234 24.264-8.726 22.279-.64 41.337 15.99 47.851 16.492 6.459 27.82.912 36.176-11.212l-12.556-7.064c-5.035 7-11.46 10.58-19.147 7.548-10.42-4.11-11.637-15.681-5.492-31.26 7.448-18.883 16.768-22.542 25.26-19.215 7.938 3.108 11.28 11.124 8.003 21.026l-13.979-5.474-4.252 10.858 27.014 10.58 14.177-36.2-5.11-2zm100.044 8.411-17.27-2.03-31.705 71.882 15.809 1.86 24.229-58.047 9.537 62.02 11.815 1.39z" fill="#fff"/><path d="m330.82 314.45v39.68c0 .91-.739 1.647-1.647 1.647h-2.745c-.91 0-1.647-.738-1.647-1.646v-3.646h-4.369v3.646c0 .908-.738 1.646-1.646 1.646h-2.746a1.65 1.65 0 0 1 -1.647-1.646v-3.646h-4.368v3.646c0 .908-.74 1.646-1.647 1.646h-2.747a1.65 1.65 0 0 1 -1.646-1.646v-3.646h-4.367v3.646c0 .908-.739 1.646-1.648 1.646h-2.745a1.65 1.65 0 0 1 -1.647-1.646v-3.646h-4.368v3.646c0 .908-.739 1.646-1.648 1.646h-2.745a1.65 1.65 0 0 1 -1.647-1.646v-3.646h-4.368v3.646c0 .908-.738 1.646-1.647 1.646h-2.745a1.65 1.65 0 0 1 -1.648-1.646v-3.646h-4.367v3.646c0 .908-.74 1.646-1.647 1.646h-2.746a1.65 1.65 0 0 1 -1.647-1.646v-3.646h-4.368v3.646c0 .908-.739 1.646-1.647 1.646h-2.745a1.65 1.65 0 0 1 -1.648-1.646v-37.897l-.029-.312c-1.945.369-4.282.61-7.313.61-6.7 0-10.005-1.178-13.202-2.317-3.021-1.077-5.874-2.094-11.497-2.134-5.615.04-8.469 1.057-11.49 2.134-.856.305-1.72.613-2.655.9l-.076.22a86.3 86.3 0 0 0 -2.537 20.842v122.888h181.7v-122.888c0-7.2-.88-14.258-2.592-21.056l-.257-.08a66 66 0 0 1 -2.418-.826c-3.021-1.077-5.875-2.094-11.499-2.134-5.614.04-8.468 1.057-11.489 2.134-3.197 1.138-6.503 2.317-13.202 2.317-6.13 0-9.419-.986-12.382-2.026zm-.832-58.628c-11.177-4.55-23.37-6.94-36.01-6.94-12.62 0-24.796 2.383-35.96 6.92l-.917.379c2.952-.892 6.691-1.673 12.1-1.712h.157c7.64.054 11.949 1.59 15.411 2.825 2.749.98 4.565 1.626 9.209 1.626 4.645 0 6.46-.647 9.21-1.627 3.461-1.233 7.769-2.77 15.406-2.824h.158c5.478.039 9.243.84 12.212 1.745zm-95.418 13.963a89 89 0 0 0 -8.441 7.958l.205.03c3.932.557 6.684 1.538 9.043 2.38 2.749.979 4.565 1.626 9.208 1.626 4.644 0 6.46-.647 9.21-1.627 3.461-1.234 7.77-2.77 15.406-2.825h.157c7.64.055 11.949 1.591 15.411 2.825 2.749.98 4.565 1.627 9.209 1.627 4.645 0 6.46-.647 9.21-1.627 3.461-1.234 7.769-2.77 15.406-2.825h.158c7.64.055 11.948 1.591 15.41 2.825 2.75.98 4.566 1.627 9.21 1.627 4.643 0 6.458-.647 9.208-1.627 2.339-.834 5.064-1.804 8.94-2.365l.317-.034a89 89 0 0 0 -8.644-8.126l-.187.037c-2.383.657-5.298 1.15-9.635 1.15-6.7 0-10.006-1.177-13.202-2.317-3.022-1.077-5.875-2.094-11.498-2.134-5.615.04-8.469 1.057-11.49 2.134-3.197 1.14-6.502 2.317-13.202 2.317s-10.007-1.177-13.204-2.317c-3.021-1.077-5.875-2.094-11.498-2.134-5.614.04-8.468 1.057-11.49 2.134-3.196 1.14-6.502 2.317-13.202 2.317-4.43 0-7.376-.514-9.787-1.193zm-17.53 19.539a85 85 0 0 0 -6.474 11.822l.231-.046c2.415-.516 5.326-.887 9.012-.914h.157c7.64.054 11.949 1.59 15.411 2.825 2.749.98 4.565 1.627 9.208 1.627 4.644 0 6.46-.648 9.21-1.627 3.461-1.235 7.77-2.77 15.406-2.825h.157c7.64.054 11.949 1.59 15.411 2.825 2.749.98 4.565 1.627 9.209 1.627 4.645 0 6.46-.648 9.21-1.627 3.461-1.235 7.769-2.77 15.406-2.825h.158c7.64.054 11.948 1.59 15.41 2.825 2.75.98 4.566 1.627 9.21 1.627 4.643 0 6.458-.648 9.208-1.627 3.461-1.235 7.77-2.77 15.406-2.825h.158c3.69.027 6.603.399 9.02.916l.227.046a85 85 0 0 0 -6.47-11.815l-.223-.01a40 40 0 0 0 -2.635-.1c-5.615.039-8.47 1.056-11.49 2.133-3.197 1.14-6.503 2.318-13.202 2.318-6.7 0-10.006-1.178-13.202-2.318-3.022-1.077-5.875-2.094-11.498-2.133-5.615.039-8.469 1.056-11.49 2.133-3.197 1.14-6.502 2.318-13.202 2.318s-10.007-1.178-13.204-2.318c-3.021-1.077-5.875-2.094-11.498-2.133-5.614.039-8.468 1.056-11.49 2.133-3.196 1.14-6.502 2.318-13.202 2.318s-10.005-1.178-13.202-2.318c-3.021-1.077-5.874-2.094-11.497-2.133-.956.006-1.831.04-2.641.1z" fill="#1f3f88"/><path d="m209.992 302.456a85 85 0 0 0 -3.876 11.144l-.046.212c.67-.22 1.308-.448 1.942-.673 2.978-1.062 6.057-2.16 11.874-2.202 5.824.042 8.903 1.14 11.881 2.202 3.105 1.106 6.316 2.25 12.818 2.25 6.503 0 9.714-1.144 12.82-2.25 2.977-1.062 6.056-2.16 11.872-2.202 5.825.042 8.904 1.14 11.882 2.202 3.105 1.106 6.316 2.25 12.819 2.25s9.713-1.144 12.82-2.25c2.977-1.062 6.056-2.16 11.873-2.202 5.825.042 8.903 1.14 11.88 2.202 3.106 1.106 6.318 2.25 12.82 2.25s9.713-1.144 12.818-2.25c2.978-1.062 6.057-2.16 11.873-2.202 5.825.042 8.905 1.14 11.881 2.202.572.203 1.146.407 1.743.605l.217.094a84.6 84.6 0 0 0 -3.938-11.38l-.244-.058c-2.507-.595-5.576-1.043-9.581-1.071h-.15c-7.438.053-11.646 1.553-15.026 2.758-2.861 1.02-4.753 1.694-9.593 1.694-4.842 0-6.731-.675-9.592-1.694-3.382-1.205-7.59-2.705-15.031-2.758h-.15c-7.439.053-11.646 1.552-15.028 2.757-2.86 1.02-4.75 1.695-9.592 1.695-4.841 0-6.731-.675-9.592-1.694-3.382-1.205-7.59-2.705-15.032-2.758h-.15c-7.438.053-11.645 1.553-15.026 2.758-2.862 1.02-4.752 1.694-9.593 1.694-4.84 0-6.73-.675-9.592-1.694-3.38-1.205-7.588-2.705-15.03-2.758h-.15c-4.01.028-7.082.478-9.59 1.074zm15.356-23.658c4.276.516 7.18 1.552 9.644 2.43 2.861 1.02 4.752 1.694 9.592 1.694s6.731-.674 9.593-1.694c3.38-1.205 7.588-2.705 15.027-2.757h.149c7.443.052 11.65 1.552 15.032 2.757 2.86 1.02 4.75 1.694 9.592 1.694 4.841 0 6.732-.674 9.592-1.695 3.382-1.205 7.59-2.704 15.028-2.756h.15c7.441.052 11.65 1.552 15.031 2.757 2.86 1.02 4.75 1.694 9.592 1.694 4.84 0 6.732-.674 9.593-1.694 2.441-.87 5.315-1.894 9.527-2.416l.295-.022a87 87 0 0 1 7.339 9.349l-.295-.012a43 43 0 0 0 -1.768-.048c-5.816.042-8.895 1.14-11.873 2.2-3.105 1.108-6.316 2.252-12.818 2.252s-9.714-1.144-12.82-2.252c-2.977-1.06-6.055-2.158-11.88-2.2-5.817.042-8.896 1.14-11.873 2.2-3.107 1.108-6.317 2.252-12.82 2.252s-9.714-1.144-12.82-2.252c-2.977-1.06-6.056-2.158-11.88-2.2-5.817.042-8.896 1.14-11.874 2.2-3.105 1.108-6.316 2.252-12.819 2.252-6.502 0-9.713-1.144-12.818-2.252-2.978-1.06-6.057-2.158-11.881-2.2q-.947.008-1.802.05l-.251.007a87 87 0 0 1 7.341-9.352zm10.695-10.205a89.5 89.5 0 0 1 13.443-8.798l.25-.121c1.614-.297 2.884-.75 4.44-1.305 3.382-1.205 7.59-2.704 15.028-2.758h.149c7.443.054 11.65 1.553 15.032 2.758 2.86 1.02 4.75 1.694 9.592 1.694 4.841 0 6.732-.673 9.592-1.694 3.382-1.205 7.59-2.704 15.028-2.758h.15c7.441.054 11.65 1.553 15.031 2.758 1.563.558 2.838 1.012 4.461 1.309l.34.177a89.6 89.6 0 0 1 13.516 8.883l-.368.073c-2.13.505-4.733.862-8.357.862-6.502 0-9.714-1.145-12.82-2.251-2.977-1.062-6.055-2.16-11.88-2.201-5.817.04-8.896 1.14-11.873 2.2-3.107 1.107-6.317 2.252-12.82 2.252s-9.714-1.145-12.82-2.251c-2.977-1.062-6.056-2.16-11.88-2.201-5.817.04-8.896 1.14-11.874 2.2-3.105 1.107-6.316 2.252-12.819 2.252-3.82 0-6.504-.396-8.7-.945z" fill="url(#J)"/><path d="m317.451 454.18h-47.411l-.093-.456c-.031-.15-3.011-15.256 4.237-29.273 7.677-14.846 19.428-20.69 19.546-20.748l.25-.122.25.122c.118.058 11.867 5.902 19.544 20.748 7.248 14.017 4.269 29.122 4.238 29.273l-.094.456zm-58.098 0h-47.413l-.093-.456c-.031-.15-3.012-15.256 4.237-29.273 7.677-14.846 19.428-20.69 19.546-20.748l.25-.122.25.122c.117.058 11.868 5.902 19.545 20.748 7.248 14.017 4.267 29.122 4.237 29.273l-.094.456zm116.197 0h-47.41l-.095-.456c-.03-.15-3.01-15.256 4.237-29.273 7.678-14.846 19.428-20.69 19.546-20.748l.25-.122.25.122c.116.058 11.868 5.902 19.545 20.748 7.25 14.017 4.269 29.122 4.237 29.273l-.093.456z" fill="#231f20"/><path d="m258.873 453.038c.164-.996.532-3.627.532-7.237 0-5.549-.88-13.349-4.746-20.825-6.906-13.357-17.126-19.229-18.78-20.114-1.652.885-11.874 6.757-18.78 20.114-3.867 7.476-4.746 15.276-4.746 20.825 0 3.61.369 6.24.533 7.237z" fill="url(#b)"/><path d="m375.07 453.038c.164-.996.534-3.627.534-7.237 0-5.549-.88-13.349-4.747-20.825-6.906-13.357-17.128-19.229-18.78-20.114-1.654.885-11.874 6.757-18.78 20.114-3.866 7.476-4.746 15.276-4.746 20.825 0 3.61.368 6.24.533 7.237z" fill="url(#c)"/><path d="m240.404 429.213c0-2.441-1.976-4.42-4.525-4.42s-4.525 1.979-4.525 4.42v6.212h9.05zm-10.401 0c0-2.441-1.975-4.42-4.525-4.42s-4.525 1.979-4.525 4.42v6.212h9.05zm10.401 12.954c0-2.442-1.976-4.42-4.525-4.42s-4.525 1.978-4.525 4.42v6.21h9.05zm0-25.907c0-2.442-1.976-4.42-4.525-4.42s-4.525 1.978-4.525 4.42v6.212h9.05zm1.351 12.953c0-2.441 1.976-4.42 4.525-4.42s4.526 1.979 4.526 4.42v6.212h-9.051zm105.797 0c0-2.441 1.975-4.42 4.525-4.42s4.526 1.979 4.526 4.42v6.212h-9.051zm10.401 0c0-2.441 1.975-4.42 4.525-4.42s4.525 1.979 4.525 4.42v6.212h-9.05zm-10.401 12.954c0-2.442 1.975-4.42 4.525-4.42s4.526 1.978 4.526 4.42v6.21h-9.051zm0-25.907c0-2.442 1.975-4.42 4.525-4.42s4.526 1.978 4.526 4.42v6.212h-9.051zm-1.351 12.953c0-2.441-1.975-4.42-4.524-4.42s-4.526 1.979-4.526 4.42v6.212h9.05z" fill="#1f3f88"/><path d="m237.01 430.706c0-.72-.494-1.303-1.131-1.303s-1.131.583-1.131 1.303c0 .718.494 1.3 1.13 1.3.638 0 1.132-.582 1.132-1.3m-2.13-2.479c0-.72-.493-1.302-1.13-1.302-.638 0-1.132.583-1.132 1.302s.494 1.302 1.132 1.302 1.13-.582 1.13-1.302m0 4.953c0-.72-.493-1.303-1.13-1.303-.638 0-1.132.583-1.132 1.302s.494 1.302 1.132 1.302 1.13-.582 1.13-1.302m1.997-4.952c0-.72.494-1.302 1.131-1.302.638 0 1.132.583 1.132 1.302s-.494 1.302-1.132 1.302-1.13-.582-1.13-1.302m-.001 4.953c0-.72.494-1.303 1.131-1.303.638 0 1.132.583 1.132 1.302s-.494 1.302-1.132 1.302-1.13-.582-1.13-1.302m-10.268-2.473c0-.72-.494-1.303-1.132-1.303s-1.131.583-1.131 1.303c0 .718.494 1.3 1.131 1.3.638 0 1.131-.582 1.131-1.3m-2.129-2.479c0-.72-.494-1.302-1.131-1.302-.638 0-1.132.583-1.132 1.302s.494 1.302 1.132 1.302 1.131-.582 1.131-1.302m0 4.953c0-.72-.494-1.303-1.131-1.303-.638 0-1.132.583-1.132 1.302s.494 1.302 1.132 1.302 1.131-.582 1.131-1.302m1.996-4.952c0-.72.494-1.302 1.132-1.302s1.13.583 1.13 1.302-.493 1.302-1.13 1.302c-.638 0-1.132-.582-1.132-1.302m0 4.953c0-.72.494-1.303 1.132-1.303s1.13.583 1.13 1.302-.493 1.302-1.13 1.302c-.638 0-1.132-.582-1.132-1.302m10.534 10.479c0-.719-.494-1.302-1.131-1.302s-1.131.583-1.131 1.302.494 1.302 1.13 1.302c.638 0 1.132-.583 1.132-1.302m-2.13-2.478c0-.72-.493-1.302-1.13-1.302-.638 0-1.132.583-1.132 1.302s.494 1.302 1.132 1.302 1.13-.583 1.13-1.302m0 4.953c0-.72-.493-1.302-1.13-1.302-.638 0-1.132.582-1.132 1.302s.494 1.302 1.132 1.302 1.13-.583 1.13-1.302m1.997-4.953c0-.72.494-1.302 1.131-1.302.638 0 1.132.583 1.132 1.302s-.494 1.302-1.132 1.302-1.13-.583-1.13-1.302m-.001 4.953c0-.72.494-1.302 1.131-1.302.638 0 1.132.582 1.132 1.302s-.494 1.302-1.132 1.302-1.13-.583-1.13-1.302m.132-28.381c0-.719-.494-1.302-1.131-1.302s-1.131.583-1.131 1.302.494 1.302 1.13 1.302c.638 0 1.132-.583 1.132-1.302m-2.13-2.479c0-.717-.493-1.301-1.13-1.301-.638 0-1.132.584-1.132 1.301 0 .72.494 1.303 1.132 1.303s1.13-.583 1.13-1.303m0 4.954c0-.72-.493-1.302-1.13-1.302-.638 0-1.132.582-1.132 1.302 0 .719.494 1.302 1.132 1.302s1.13-.583 1.13-1.302m1.997-4.954c0-.717.494-1.301 1.131-1.301.638 0 1.132.584 1.132 1.301 0 .72-.494 1.303-1.132 1.303s-1.13-.583-1.13-1.303m-.001 4.954c0-.72.494-1.302 1.131-1.302.638 0 1.132.582 1.132 1.302 0 .719-.494 1.302-1.132 1.302s-1.13-.583-1.13-1.302m8.271 10.479c0-.72.494-1.303 1.131-1.303.638 0 1.132.583 1.132 1.303 0 .718-.494 1.3-1.132 1.3s-1.131-.582-1.131-1.3m2.129-2.479c0-.72.494-1.302 1.132-1.302s1.131.583 1.131 1.302-.494 1.302-1.131 1.302c-.638 0-1.132-.582-1.132-1.302m0 4.953c0-.72.494-1.303 1.132-1.303s1.131.583 1.131 1.302-.494 1.302-1.131 1.302c-.638 0-1.132-.582-1.132-1.302m-1.996-4.952c0-.72-.493-1.302-1.131-1.302s-1.132.583-1.132 1.302.494 1.302 1.132 1.302 1.13-.582 1.13-1.302m.001 4.953c0-.72-.493-1.303-1.131-1.303s-1.132.583-1.132 1.302.494 1.302 1.132 1.302 1.13-.582 1.13-1.302m105.664-2.473c0-.72.494-1.303 1.132-1.303s1.132.583 1.132 1.303c0 .718-.494 1.3-1.132 1.3s-1.132-.582-1.132-1.3m2.13-2.479c0-.72.494-1.302 1.131-1.302.638 0 1.132.583 1.132 1.302s-.494 1.302-1.132 1.302-1.13-.582-1.13-1.302m-.001 4.953c0-.72.494-1.303 1.131-1.303.638 0 1.132.583 1.132 1.302s-.494 1.302-1.132 1.302-1.13-.582-1.13-1.302m-1.998-4.952c0-.72-.493-1.302-1.13-1.302s-1.133.583-1.133 1.302.496 1.302 1.133 1.302 1.13-.582 1.13-1.302m0 4.953c0-.72-.493-1.303-1.13-1.303s-1.133.583-1.133 1.302.496 1.302 1.133 1.302 1.13-.582 1.13-1.302m10.269-2.473c0-.72.494-1.303 1.13-1.303.638 0 1.132.583 1.132 1.303 0 .718-.494 1.3-1.131 1.3s-1.131-.582-1.131-1.3m2.13-2.479c0-.72.494-1.302 1.13-1.302.64 0 1.132.583 1.132 1.302s-.493 1.302-1.132 1.302c-.636 0-1.13-.582-1.13-1.302m0 4.953c0-.72.494-1.303 1.13-1.303.64 0 1.132.583 1.132 1.302s-.493 1.302-1.132 1.302c-.636 0-1.13-.582-1.13-1.302m-1.997-4.952c0-.72-.494-1.302-1.132-1.302s-1.131.583-1.131 1.302.494 1.302 1.13 1.302c.64 0 1.133-.582 1.133-1.302m0 4.953c0-.72-.494-1.303-1.132-1.303s-1.131.583-1.131 1.302.494 1.302 1.13 1.302c.64 0 1.133-.582 1.133-1.302m-10.535 10.479c0-.719.494-1.302 1.132-1.302s1.132.583 1.132 1.302-.494 1.302-1.132 1.302-1.132-.583-1.132-1.302m2.13-2.478c0-.72.494-1.302 1.131-1.302.638 0 1.132.583 1.132 1.302s-.494 1.302-1.132 1.302-1.13-.583-1.13-1.302m-.001 4.953c0-.72.494-1.302 1.131-1.302.638 0 1.132.582 1.132 1.302s-.494 1.302-1.132 1.302-1.13-.583-1.13-1.302m-1.998-4.953c0-.72-.493-1.302-1.13-1.302s-1.133.583-1.133 1.302.496 1.302 1.133 1.302 1.13-.583 1.13-1.302m0 4.953c0-.72-.493-1.302-1.13-1.302s-1.133.582-1.133 1.302.496 1.302 1.133 1.302 1.13-.583 1.13-1.302m-.133-28.381c0-.719.494-1.302 1.132-1.302s1.132.583 1.132 1.302-.494 1.302-1.132 1.302-1.132-.583-1.132-1.302m2.13-2.479c0-.717.494-1.301 1.131-1.301.638 0 1.132.584 1.132 1.301 0 .72-.494 1.303-1.132 1.303s-1.13-.583-1.13-1.303m-.001 4.954c0-.72.494-1.302 1.131-1.302.638 0 1.132.582 1.132 1.302 0 .719-.494 1.302-1.132 1.302s-1.13-.583-1.13-1.302m-1.998-4.954c0-.717-.493-1.301-1.13-1.301s-1.133.584-1.133 1.301c0 .72.496 1.303 1.133 1.303s1.13-.583 1.13-1.303m0 4.954c0-.72-.493-1.302-1.13-1.302s-1.133.582-1.133 1.302c0 .719.496 1.302 1.133 1.302s1.13-.583 1.13-1.302m-8.271 10.479c0-.72-.494-1.303-1.13-1.303-.638 0-1.133.583-1.133 1.303 0 .718.495 1.3 1.133 1.3.636 0 1.13-.582 1.13-1.3m-2.129-2.479c0-.72-.493-1.302-1.131-1.302s-1.132.583-1.132 1.302.494 1.302 1.132 1.302 1.13-.582 1.13-1.302m.001 4.953c0-.72-.493-1.303-1.131-1.303s-1.132.583-1.132 1.302.494 1.302 1.132 1.302 1.13-.582 1.13-1.302m1.997-4.952c0-.72.494-1.302 1.132-1.302s1.132.583 1.132 1.302-.495 1.302-1.132 1.302c-.638 0-1.132-.582-1.132-1.302m0 4.953c0-.72.494-1.303 1.132-1.303s1.132.583 1.132 1.302-.495 1.302-1.132 1.302c-.638 0-1.132-.582-1.132-1.302" fill="#fff"/><path d="m306.294 431.555 6.539-6.46-.075-.12a51.7 51.7 0 0 0 -10.397-13.847l-.096.1-8.295 8.194-.186-.2-7.966-7.868-.224-.225a51.7 51.7 0 0 0 -10.396 13.847l-.075.12 6.392 6.313.149.17-10.934 10.802-.177.168a52 52 0 0 0 -.1 3.252c0 3.61.368 6.24.532 7.237h13.39l.179-.005 9.285-9.173.14-.136 9.421 9.307.146.007h13.426c.164-.996.532-3.627.532-7.237 0-1.008-.028-2.09-.1-3.23l-.093-.107-10.829-10.697z" fill="#ee2623"/><path d="m298.503 439.072h-9.555v-6.715c0-2.762 2.21-4.925 5.03-4.925s5.029 2.163 5.029 4.925v6.715zm-17.331 11.508-6.714-6.796 4.776-4.72a4.86 4.86 0 0 1 3.465-1.413c1.337.008 2.606.551 3.573 1.53.967.978 1.495 2.254 1.487 3.591a4.86 4.86 0 0 1 -1.455 3.448l-4.778 4.718zm21.182-20.926-6.714-6.797 4.776-4.718c1.965-1.94 5.057-1.89 7.038.117.96.97 1.486 2.234 1.486 3.56v.031a4.85 4.85 0 0 1 -1.455 3.447l-4.776 4.72zm3.717 20.93-4.419-4.364a4.86 4.86 0 0 1 -1.454-3.448c-.009-1.337.519-2.613 1.487-3.591.966-.979 2.235-1.522 3.572-1.53a4.86 4.86 0 0 1 3.465 1.413l4.776 4.72-7.068 7.154zm-21.181-20.924-4.419-4.366a4.85 4.85 0 0 1 -1.455-3.447v-.03c0-1.327.526-2.59 1.486-3.561 1.982-2.007 5.073-2.058 7.038-.117l4.777 4.718-7.07 7.156z" fill="#231f20"/><path d="m298 438.064v-5.707c0-2.196-1.767-3.917-4.022-3.917s-4.021 1.72-4.021 3.917v5.707zm-16.465 11.45 4.06-4.011a3.86 3.86 0 0 0 1.156-2.737c.006-1.068-.419-2.09-1.196-2.876-.778-.788-1.794-1.225-2.863-1.231a3.86 3.86 0 0 0 -2.75 1.122l-4.06 4.011zm21.182-20.926 4.06-4.011a3.85 3.85 0 0 0 1.156-2.736v-.024c0-1.06-.424-2.072-1.196-2.853-1.585-1.605-4.05-1.651-5.612-.108l-4.06 4.01zm3.703 20.926 5.653-5.722c-.604-.598-4.06-4.01-4.06-4.01a3.85 3.85 0 0 0 -2.748-1.123c-1.07.006-2.086.443-2.864 1.23-.777.787-1.202 1.809-1.195 2.877a3.85 3.85 0 0 0 1.155 2.737s3.454 3.413 4.06 4.01m-25.201-30.549c-.772.781-1.197 1.793-1.197 2.853v.024a3.85 3.85 0 0 0 1.156 2.736l4.06 4.01c.595-.6 5.058-5.12 5.652-5.72-.605-.599-4.06-4.01-4.06-4.01-1.562-1.545-4.027-1.498-5.612.107m4.777 34.061 7.743-7.649.245-.231 7.997 7.9-.265-.007h-15.397zm15.491-42.445-7.51 7.42-.124-.127-7.374-7.284-.153-.137c3.73-3.386 6.809-5.138 7.653-5.59.842.45 3.91 2.198 7.63 5.57zm-26.903 15.637c-2.417 5.12-3.499 10.325-3.912 14.797l.233-.223 9.337-9.225-.138-.133-5.45-5.385zm33.3 5.185 5.209-5.146.206-.193c2.42 5.068 3.524 10.226 3.96 14.681l.012.265-9.558-9.444z" fill="#fff"/><path d="m341.473 394.14c-.881 1.579-2.051 2.965-3.564 2.965-1.848 0-5.544-2.76-5.544-6.384 0-2.294.301-3.867.567-5.257.191-1.007.357-1.876.357-2.807l-.046-1.868-.01-.17a1.3 1.3 0 0 1 -.527.056c-.833-.086-1.433-1.002-1.96-1.979l-.492-.857c-1.225-2.076-3.074-5.214-.312-9.003 2.239-3.068 4.727-5.383 6.727-7.241l1.725-1.638c1.966-1.968 2.288-2.766 2.288-5.692v-9.408l-1.371-.01a2.41 2.41 0 0 1 -2.41-2.408v-8.917a2.41 2.41 0 0 1 2.41-2.408h8.286a2.41 2.41 0 0 1 2.409 2.408v8.917a2.41 2.41 0 0 1 -2.41 2.408h-.992l-.21-.011v10.52c0 4.287.379 5.421.746 6.517.22.783.387 1.59.554 2.225.687 2.605 2.13 4.697 4.17 5.95.929.568 2.064 1.805 2.463 3.57.263 1.155.294 2.967-1.043 5.03a20 20 0 0 0 -1.386 2.524l-.076.138c.588 2.109 1.376 5.955.242 8.602-1.501 3.504-3.966 5.514-6.762 5.514-1.57 0-2.827-.599-3.69-1.195z" fill="#231f20"/><path d="m337.91 333.522v8.917c0 .772.628 1.4 1.4 1.4h8.287c.772 0 1.401-.628 1.401-1.4v-8.917c0-.772-.629-1.4-1.401-1.4h-8.286c-.773 0-1.402.628-1.402 1.4" fill="url(#e)"/><path d="m345.26 344.848h-3.36l-.21.01v9.407c0 3.179-.435 4.256-2.585 6.404l-1.75 1.664c-1.968 1.83-4.417 4.107-6.598 7.098-2.372 3.254-.855 5.827.365 7.896l.51.892c.629 1.166.988 1.434 1.179 1.453.234.024.632-.296 1.185-.951l.673-.82c1.096-1.354 2.228-2.753 3.816-3.358 1.67-.637 2.628-2.116 2.7-4.168.09-2.502 1.327-4.017 3.678-4.507.584-.122 1.018-.42 1.291-.883.438-.746.37-1.724.178-2.337l-.148-.454c-.393-1.172-.798-2.385-.798-6.837v-10.52z" fill="url(#g)"/><path d="m334.236 380.18.062 2.477c0 1.026-.175 1.939-.376 2.995-.258 1.346-.549 2.87-.549 5.069 0 3.05 3.22 5.377 4.536 5.377 1.177 0 2.405-1.508 3.652-4.48.74-1.764 2.572-2.304 4.189-2.78.986-.29 1.918-.565 2.372-1.06.743-.816 1.09-1.943 1.53-3.37.524-1.704 1.176-3.824 2.786-6.308.908-1.4 1.221-2.872.907-4.26-.331-1.46-1.253-2.472-2.007-2.934-1.717-1.052-3.059-2.627-3.93-4.571l-.386-.84c-.416.71-1.091 1.18-1.954 1.36-1.888.393-2.802 1.523-2.875 3.556-.087 2.446-1.307 4.295-3.348 5.073-1.335.51-2.334 1.744-3.393 3.05l-.685.835a8 8 0 0 1 -.53.581z" fill="url(#h)"/><path d="m341.951 393.215c.197-.411.377-.82.54-1.207.554-1.322 2.073-1.77 3.544-2.202 1.125-.332 2.188-.645 2.83-1.349.898-.982 1.293-2.267 1.75-3.753.15-.487.31-1.01.502-1.564l.074-.206c.506 2.322.678 4.875-.053 6.58-1.335 3.117-3.462 4.903-5.836 4.903-1.36 0-2.46-.553-3.196-1.077z" fill="url(#i)"/><path d="m265.998 312.244v15.562c0 1.63-.291 2.71-.887 3.3-.43.424-1.045.625-1.892.617-.834.009-1.45-.193-1.88-.617-.596-.59-.885-1.67-.885-3.3v-14.28l.011-.216a26.7 26.7 0 0 1 5.356-1.059zm56.296.021v15.54c0 1.632-.29 2.712-.886 3.301-.43.424-1.045.625-1.891.617-.835.009-1.45-.193-1.881-.618-.596-.59-.886-1.668-.886-3.3v-15.435l.013-.233c.6-.032 1.233-.051 1.908-.055 1.255.008 2.372.066 3.384.162zm-14.074 1.595v13.946c0 1.63-.29 2.71-.887 3.3-.43.424-1.044.625-1.89.617-.836.009-1.45-.193-1.88-.618-.597-.59-.886-1.668-.886-3.3v-11.99l.005-.192c1.699-.41 3.11-.913 4.5-1.408.298-.107 1.039-.355 1.039-.355zm-14.074 2.67v11.276c0 1.63-.29 2.71-.887 3.3-.43.424-1.045.625-1.89.617-.836.009-1.451-.193-1.881-.618-.596-.59-.886-1.668-.886-3.3v-11.34l.02-.237c1.524.191 3.277.304 5.357.304zm-14.074-2.586v13.862c0 1.63-.29 2.71-.887 3.3-.43.424-1.045.625-1.892.617-.834.009-1.449-.193-1.879-.617-.597-.59-.886-1.67-.886-3.3v-15.184l.003-.143c2.114.34 3.752.86 5.356 1.421z" fill="#1f3f88"/><path d="m287.483 324.031-3.151 3.046-.35-.338-2.801-2.707-.101-.101v3.875q0 .338-.016.65l.072-.007h6.374l.099.007q-.015-.312-.015-.65v-3.875zm.018-1.42c-.529.512-1.79 1.732-2.584 2.498l-.082.081v-9.417l.008-.258c.841.217 1.752.412 2.768.57l-.018.191v6.247zm-3.75 2.504-2.535-2.45-.137-.13v-8.212l.167.06c.82.29 1.66.581 2.57.849l.01.33v9.64zm2.666 4.338v4.541h-3.749l-.003-.056v-4.485l.13.004h3.517zm-4.76 0v4.474l.004.066h-13.66l-.008-.055v-4.473l.175-.008h5.47l.018.13c.175.985.52 1.712 1.05 2.236.622.614 1.497.921 2.587.907 1.103.014 1.978-.293 2.6-.907.551-.546.902-1.311 1.07-2.358l.089-.008zm-8.23-6.847-2.667 2.583v-12.799l.012-.274a34 34 0 0 1 2.728.219l.02.182v9.984zm.106 5.843h-6.436l-.108-.004q.015-.307.016-.64v-3.8l.005-.072 3.247 3.145 3.178-3.078.084-.09v3.895c0 .192.014.644.014.644m-3.773-3.255c-.824-.798-2.265-2.194-2.748-2.66l-.007-.063v-10.31l.197-.016a41 41 0 0 1 2.074-.064q.247 0 .487.006l-.01.178v12.79zm56.21-.088-2.55-2.471-.12-.103v-10.162l.2.046c.943.137 1.793.309 2.584.505l-.03.227v12.055zm-73.038 22.607h76.879v6.417a.64.64 0 0 1 -.64.639h-2.745a.64.64 0 0 1 -.638-.639v-4.653h-6.385v4.653a.64.64 0 0 1 -.639.639h-2.746a.64.64 0 0 1 -.639-.639v-4.653h-6.383v4.653a.64.64 0 0 1 -.64.639h-2.746a.64.64 0 0 1 -.639-.639v-4.653h-6.383v4.653a.64.64 0 0 1 -.64.639h-2.745a.64.64 0 0 1 -.639-.639v-4.653h-6.383v4.653a.64.64 0 0 1 -.64.639h-2.746a.64.64 0 0 1 -.638-.639v-4.653h-6.384v4.653a.64.64 0 0 1 -.64.639h-2.745a.64.64 0 0 1 -.639-.639v-4.653h-6.384v4.653a.64.64 0 0 1 -.639.639h-2.746a.64.64 0 0 1 -.639-.639v-4.653h-6.383v4.653a.64.64 0 0 1 -.64.639h-2.745a.64.64 0 0 1 -.639-.639v-6.323zm2.636-8.232h-2.633v-4.474l.113-.007h2.52zm-.01 7.225h-2.626l.002-.096v-1.92h2.623v2.016m7.738-11.705h6.093l-.003 4.48h-6.09zm3.689-5.536v4.441l-.003.087h-8.453v-4.536h1.029l.022.113c.173.994.519 1.727 1.051 2.253.623.615 1.498.921 2.588.907 1.103.014 1.978-.292 2.6-.907.553-.547.905-1.316 1.071-2.368zm-4.697 10.017h-5.71v-4.48h5.71zm-4.767-5.489h-4.472l-.114-.004v-4.536l.093.004h4.493zm1.943-5.544h-6.405l-.124-.004v-4.525l.09.096 3.163 3.062 3.189-3.088.069-.07v3.886q0 .293.01.567zm-.166-5.786c-.575.558-1.849 1.79-2.608 2.527v-10.405l-.006-.181q.557-.195 1.102-.389c.553-.197 1.1-.392 1.66-.58v8.898zm-3.613 2.527-2.64-2.557-.11-.12v-6.531l.01-.28a31 31 0 0 0 2.737-.761l.001.202v9.953zm27.814 14.292h-5.755v-4.48h5.754zm-6.762 0h-6.332v-4.48h6.331zm21.108-14.359-2.578-2.492-.112-.107v-5.995l.167-.013c.927-.023 1.784-.07 2.583-.139l.007.151v8.663zm3.824-1.192v3.875c0 .192.026.643.026.643h-6.425l-.13.007q.015-.312.015-.65v-3.886l.083.085 2.828 2.735.351.337 3.172-3.065zm-.135-1.269c-.555.54-1.764 1.707-2.532 2.449l-.081.079v-8.767l.014-.146c1-.114 1.902-.26 2.734-.43v6.687zm-2.347 11.331h-11.76v-4.54l.22.004.064.01c.168 1.045.518 1.811 1.07 2.357.622.614 1.497.92 2.588.907 1.103.014 1.977-.293 2.6-.907.553-.547.904-1.317 1.07-2.368l.084.002h4.063v4.536m-7.307 5.477v-4.469h5.354l-.007.133v4.336l-.089.011h-5.165zm-1.113.01h-6.248v-4.48h6.352v4.481zm-13.021 5.207h5.765v2.017h-5.764zm-14.447 0h6.089l.001 2.017h-6.09zm-1.019 2.017h-5.702v-2.017h5.702zm8.116-2.017h6.343v2.017h-6.342zm14.122 0h6.353v2.017h-6.352zm20.548-5.208h-6.699l-.133-.01v-4.337l-.003-.133h6.835zm7.392 0h-6.384v-4.48h6.384zm6.72 0h-5.712v-4.48h5.712zm6.783 0h-5.775v-4.48h5.775zm-3.979 4.2h-12.096v-3.192h12.096zm.996-3.192h6.836v3.192h-6.824zm-21.828 3.192h-6.216v-3.192h6.216zm1.007-3.192h6.72l-.01 3.192h-6.72zm27.656-16.548v4.504l-.103.004h-6.416s.009-.456.009-.644v-3.875l.073.064 2.835 2.745.35.339 3.157-3.057zm-.093-1.325-2.588 2.506-.068.058v-11.76l.018-.233c.882.255 1.704.536 2.524.827l.207.099v8.42zm-15.015 6.84h1.072l.083.01c.168 1.047.518 1.812 1.069 2.357.623.614 1.498.921 2.588.907 1.103.014 1.978-.293 2.601-.907.527-.521.87-1.242 1.045-2.22l.027-.146h4.275l-.001 4.536h-12.758zm-1.019 4.536h-13.48l-.012-.097v-4.306l.012-.133h1.584l.008.083c.172 1.008.519 1.751 1.057 2.283.623.614 1.498.921 2.588.907 1.102.014 1.977-.293 2.6-.907.552-.546.902-1.312 1.07-2.36l.102-.006h4.474zm2.056-10.053v3.865q0 .339.015.652l-.106-.008h-6.343l-.095-.004q.015-.307.015-.64v-3.886l.12.117 2.792 2.703.35.339 3.097-3zm-.152-1.268-2.496 2.42-.1.109v-12.495l.012-.156a29 29 0 0 1 2.749-.348l-.013.23v10.1zm-3.688 2.434c-.766-.742-1.968-1.907-2.523-2.443l-.151-.15v-9.01l.129-.038a28 28 0 0 1 2.633-.714l-.005.122v12.317zm16.578 4.35h1.25l.082.009v4.524l-.091.004h-1.24zm1.331 5.54v4.357l.002.127h-2.845v-4.48h2.72zm-3.463 9.691h3.462v2.017h-3.463zm-6.163 0h5.156l-.001 2.017h-5.155zm-15.12 2.017h-6.826v-2.017h6.825zm1.008-2.017h6.384v2.017h-6.384zm7.392 0h5.713v2.017h-5.713zm-16.233 2.017h-5.355v-2.017h5.355zm-23.194-6.217h6.72l-.003 3.192h-6.716zm-14.5 3.192h-6.602v-3.192h6.602zm1.008-3.192h12.495v3.192h-12.495zm27.048 3.192h-5.82l.003-3.192h5.816zm1.005-3.192h5.316v3.192h-5.313z" fill="url(#L)"/><path d="m299.773 383.469v-9.38h7.284v9.507h-.072c-.517.09-1.164.587-1.164 1.252v1.079c0 .694.705 1.207 1.232 1.261l.004 1.35c0 1.073.155 1.973 1.998 2.071l.05.075 3.983 6.128 3.955-6.086.09-.118c1.832-.101 1.986-.999 1.986-2.07v-1.345l.145-.029c.504-.121 1.09-.603 1.09-1.237v-1.08c0-.646-.612-1.135-1.122-1.243l-.113-.023v-9.506l.227.015c2.902 0 4.732-1.494 5.758-2.748.84-1.029 1.132-1.957.82-2.617-.166-.35-.567-.768-1.538-.768h-66.026c-.97 0-1.372.418-1.537.768-.313.659-.022 1.588.82 2.617 1.025 1.254 2.856 2.748 5.758 2.748h.224l.003.125v9.38l-.13.012c-.506.116-1.106.6-1.106 1.24v1.08c0 .658.633 1.151 1.148 1.249l.088.003v1.358c0 1.074.155 1.975 1.999 2.072l.085.127 3.524 5.425.423.651 3.885-5.978.16-.226c1.832-.101 1.986-.999 1.986-2.07v-1.358l.158-.02c.5-.126 1.077-.605 1.077-1.233v-1.08c0-.642-.605-1.13-1.113-1.242l-.122-.024v-9.337l.002-.154h7.28v9.491h-.498c-.698 0-1.266.567-1.266 1.267v1.079c0 .698.568 1.266 1.266 1.266h.498v1.344c0 1.122.177 2.054 2.344 2.08a4 4 0 0 0 .457-.018l.046.046 5.185 5.585.369.398 5.586-6.019.47.008c2.167-.026 2.343-.958 2.343-2.08v-1.343h.5c.697 0 1.265-.569 1.265-1.267v-1.08c0-.698-.568-1.266-1.266-1.266h-.499z" fill="#231f20"/><path d="m293.642 381.481v-4.452h-4.537v4.452z" fill="url(#k)"/><path d="m271.388 381.481v-4.452h-3.456v4.452z" fill="url(#l)"/><path d="m314.815 381.481v-4.452h-3.455v4.452z" fill="url(#m)"/><path d="m257.734 369.156c-.073.155-.022.675.69 1.55.887 1.082 2.471 2.375 4.978 2.375h55.944c2.507 0 4.09-1.293 4.977-2.376.713-.873.763-1.394.69-1.549-.057-.12-.29-.191-.627-.191h-66.026c-.335 0-.57.071-.627.191" fill="url(#M)"/><path d="m282.218 384.848v1.079c0 .14.117.259.258.259h17.796c.14 0 .258-.119.258-.26v-1.078a.26.26 0 0 0 -.258-.258h-17.796a.26.26 0 0 0 -.258.258" fill="url(#N)"/><path d="m263.401 384.848v1.079c.002.077.215.246.324.259h11.878c.104-.013.312-.18.315-.26v-1.078c-.003-.08-.211-.245-.323-.26l-11.87.002c-.11.013-.321.181-.324.258" fill="url(#O)"/><path d="m306.83 384.848v1.079c.002.079.21.246.322.259h11.88c.1-.013.312-.182.314-.26v-1.078c-.002-.077-.214-.245-.323-.258h-11.878c-.105.013-.313.179-.316.258" fill="url(#P)"/><path d="m318.03 387.193h-2.103c-.001 1.181.006 2.029.25 2.272.104.101.325.15.677.144 1.257-.015 1.257-.22 1.257-1.072v-1.33z" fill="url(#o)"/><path d="m315.823 382.49v-6.469h-5.47v6.468zm2.122 1.092h-9.88v-9.493l.122.002h9.758l.166-.015v9.506z" fill="url(#Q)"/><path d="m272.613 387.193h-.114c-.001 1.181.005 2.029.251 2.272.104.101.325.15.677.144 1.256-.015 1.256-.22 1.256-1.072v-1.344z" fill="url(#p)"/><path d="m294.65 382.49v-6.469h-6.552v6.468zm4.116 1.092h-14.63l-.155-.015v-9.476h14.784v9.492" fill="url(#R)"/><path d="m298.766 387.306v1.231c0 .853 0 1.056-1.348 1.072-.389.005-.634-.048-.748-.16-.238-.235-.257-1.008-.257-2.089v-.167h2.339z" fill="url(#q)"/><path d="m295.9 390.1c-.463-.519-.495-1.33-.495-2.71v-.197h-1.469v1.386c0 .636-.032 1.193-.43 1.592-.423.423-1.13.508-2.132.507-1.002 0-1.709-.084-2.132-.507-.398-.399-.43-.956-.43-1.592v-1.386h-1.344l-.126.014c.002 1.554-.013 2.422-.556 2.96l.038.077 4.55 4.902 4.606-4.962z" fill="url(#r)"/><path d="m292.928 388.58c0 .446-.023.766-.135.877-.213.214-1.121.213-1.42.213s-1.206 0-1.419-.213c-.112-.111-.135-.43-.135-.878l.001-1.386h3.108z" fill="url(#s)"/><path d="m286.236 387.193h-2.255v1.344c0 .853 0 1.056 1.35 1.072.388.005.633-.048.746-.16.25-.247.258-1.08.257-2.242z" fill="url(#t)"/><path d="m272.396 382.49v-6.469h-5.472v6.468zm2.22 1.092h-9.843l-.137.015v-9.352l.011-.154h10.024l.012.167v9.324z" fill="url(#S)"/><path d="m272.503 390.586-2.843 4.377c-.432-.665-1.818-2.799-2.78-4.277l-.106-.192c.18-.066.354-.164.504-.312.54-.535.553-1.413.55-2.989h3.538l.125.013c-.002 1.567.012 2.444.55 2.976.153.151.332.25.516.316z" fill="url(#u)"/><path d="m264.636 387.193v1.344c0 .853 0 1.057 1.257 1.072.352.005.574-.043.676-.144.246-.243.253-1.091.251-2.272z" fill="url(#v)"/><path d="m315.922 390.6c-.962 1.481-2.395 3.684-2.834 4.363l-2.84-4.373-.063-.09a1.4 1.4 0 0 0 .521-.318c.54-.535.553-1.413.55-2.989h3.663c-.003 1.576.012 2.455.55 2.989.153.15.33.25.514.316z" fill="url(#w)"/><path d="m308.064 387.193v1.344c0 .853 0 1.057 1.256 1.072.353.005.575-.043.678-.144.245-.243.252-1.091.25-2.272h-2.046z" fill="url(#x)"/><path d="m367.738 394.22c.607-.208 1.842-.694 2.951-1.494 1.333-.96 2.695-2.203 2.695-4.132v-14.114c0-1.142-.088-2.502-.427-3.502l.14-.131 9.077-7.31c.736-.593.758-1.09.648-1.403-.111-.314-.441-.688-1.385-.688h-.855v-.787c-.021-1.025-.74-1.829-2.082-2.788l-.019-.177v-20.314l.097-.046c1.352-.765 2.003-1.318 2.004-2.651v-1.923c0-.908-.884-1.647-1.972-1.647h-22.77c-1.086 0-1.97.739-1.97 1.647v1.923c0 1.32.64 1.877 1.966 2.63l.134.082v20.481l-.102.056c-1.289.932-1.977 1.727-1.999 2.737v.777h-.853c-.946 0-1.275.374-1.386.688s-.088.811.648 1.403l9.095 7.324.125.105c-.342 1-.43 2.367-.43 3.515v14.112c0 1.93 1.362 3.172 2.694 4.132 1.118.806 2.362 1.293 2.964 1.5l-.004.191v1.723h-1.764v1.008h1.765l-.001.167v2.437h1.007v-2.48l.002-.124h1.763v-1.008h-1.763l-.002-.099v-1.666s-.002-.15.01-.154m1.382-8.834v3.207c0 .254-.146.54-.41.805-.401.4-1.025.692-1.485.691-.458.001-1.082-.29-1.485-.692-.263-.263-.409-.55-.409-.804v-3.179l.126.063c.904.578 1.546.842 1.576.856l.192.077.191-.077c.031-.014.697-.289 1.629-.89zm-.106-8.56c-.52-.11-1.086-.108-1.591-.106h-.396c-.486-.002-1.03-.004-1.535.094l-.16.032v-2.604l-.002-.193 1.896 1.526 1.893-1.524.001.22v2.576z" fill="#231f20"/><path d="m370.922 332.122h-7.35l-.154-.012v10.787c0 2.738.115 4.068 1.218 5.324 1.152 1.31 2.157 2.005 2.589 2.271.431-.266 1.437-.96 2.59-2.271 1.103-1.256 1.218-2.586 1.218-5.324v-10.766z" fill="#ee2623"/><path d="m365.209 357.206c0 1.111.904 2.016 2.017 2.016a2.02 2.02 0 0 0 2.016-2.016 2.02 2.02 0 0 0 -2.016-2.018 2.02 2.02 0 0 0 -2.017 2.018" fill="url(#y)"/><path d="m377.473 356.994v-19.054l-.109.05-2.13 1.123v16.664c.225.139.523.326.523.326.63.39 1.203.745 1.716 1.077z" fill="url(#z)"/><path d="m352.91 362.753s13.71 11.042 14.316 11.528l14.316-11.528c.14-.113.075-.297-.104-.297h-28.423c-.18 0-.246.184-.106.297m14.001 8.858-9.035-7.275h18.701l-9.35 7.53zm-6.176-6.266h12.983l-6.491 5.227-2.5-2.012s-2.63-2.12-3.992-3.215m6.492-5.116a3.027 3.027 0 0 0 3.024-3.023 3.03 3.03 0 0 0 -3.024-3.025 3.03 3.03 0 0 0 -3.025 3.025 3.027 3.027 0 0 0 3.025 3.023m12.249 1.218h-24.598v-.766c.02-1.038 1.65-2.048 4.347-3.721l1-.622v-17.528l-.005-.308-3.337-1.759c-1.743-.952-2.005-1.222-2.005-2.06v-1.922c0-.341.449-.639.962-.639h6.41l.161.01v10.766c0 2.675.07 4.397 1.469 5.988 1.67 1.9 3.061 2.61 3.12 2.638l.225.113.226-.113c.058-.029 1.452-.738 3.121-2.638 1.399-1.59 1.47-3.313 1.47-5.988v-10.788l.154.011h6.415c.513 0 .963.298.963.639v1.923c0 .838-.263 1.107-2.005 2.06l-3.343 1.761v17.833l1.001.622c2.699 1.673 4.327 2.683 4.347 3.71v.764z" fill="url(#A)"/><path d="m357.09 357.107q.724-.463 1.603-1.004l.524-.326v-16.664l-2.142-1.129-.098-.057v19.25z" fill="url(#B)"/><path d="m370.727 382.694c-.554-.089-1.378-.172-2.604-.205h-1.81c-1.238.033-2.064.12-2.615.21-.308.041-.323.252.139.541l1.824 1.164-.006-.004c.714.489 1.288.78 1.57.912.28-.131.856-.423 1.57-.912l1.818-1.16c.322-.205.463-.507.113-.546z" fill="url(#C)"/><path d="m372.195 383.428c-.242.173-.585.383-1.054.672l-.873.556-.14.1v3.838c0 .531-.244 1.056-.705 1.517-.592.591-1.475.988-2.198.987-.723 0-1.606-.396-2.198-.987-.462-.46-.705-.986-.705-1.517v-3.837l-1.012-.657c-.483-.297-.83-.51-1.075-.685l-.16-.128v5.307c0 1.19.66 2.15 2.275 3.314 1.198.864 2.54 1.315 2.875 1.42.336-.105 1.677-.556 2.875-1.42 1.617-1.165 2.275-2.125 2.275-3.314v-5.294zm.028-1.358c-.346-.173-.942-.341-1.973-.456l-.122-.02v-2.717l.087-.11c.252-.373.41-.77.122-1.165l-.209-.237v-4.127l1.906-1.535.074-.038c.157.634.267 1.558.267 2.816v7.686zm-10.149.082v-7.67c0-1.276.115-2.206.274-2.84l.147.126 1.83 1.471-.003.179v3.947l-.209.236c-.295.405-.12.814.14 1.194l.07.111v2.687l-.15.023c-1.03.116-1.621.287-1.962.462z" fill="url(#D)"/><path d="m367.225 382.041c-.307.012-.56-.21-.797-1.147-.239-.939-.365-1.484-.967-2.073-.547-.535-.7-.685-.251-.924.447-.238 1.105-.224 2.043-.224s1.982.034 2.17.391c.154.295-.055.38-.447.827-.392.449-.7.882-1.01 2.157-.165.692-.376.978-.741.993" fill="url(#E)"/><path d="m213.808 336.33a1.65 1.65 0 0 1 -1.646-1.646v-1.923c0-.908.738-1.647 1.646-1.647h34.17c.91 0 1.648.739 1.648 1.647v1.923c0 .908-.739 1.646-1.647 1.646l-.395.016v27.16l.395-.01c.908 0 1.647.74 1.647 1.647v1.923a1.65 1.65 0 0 1 -1.647 1.648h-.395v21.872c0 .908-.738 1.646-1.647 1.646h-2.338a1.65 1.65 0 0 1 -1.647-1.646v-3.057h-3.611l-.007.14v2.917c0 .908-.738 1.646-1.646 1.646h-2.34a1.65 1.65 0 0 1 -1.646-1.646v-2.86l-.002-.197h-3.626l.012.168v2.889a1.65 1.65 0 0 1 -1.648 1.646h-2.338a1.65 1.65 0 0 1 -1.647-1.646v-2.848l-.006-.209h-3.611v3.057c0 .908-.738 1.646-1.647 1.646h-2.338a1.65 1.65 0 0 1 -1.647-1.646v-21.872h-.395a1.65 1.65 0 0 1 -1.646-1.648v-1.923c0-.908.739-1.646 1.646-1.646l.395-.006v-27.16z" fill="#231f20"/><path d="m235.633 349.993v-17.638l-.007-.233h-6.357l-.007.205v15.813c0 2.037 1.54 3.69 3.437 3.69 1.236 0 2.32-.701 2.925-1.752zm.721 18.72v6.564c0 1.478.77 2.676 1.722 2.676.313 0 .607-.13.86-.357l.164-.16c.124-.317.193-.667.193-1.037v-7.685h-2.786zm-12.264 0v6.564c0 1.478.77 2.676 1.722 2.676.334 0 .647-.148.911-.405l.11-.107a2.8 2.8 0 0 0 .196-1.042v-7.685h-2.8z" fill="#ee2623"/><path d="m213.17 365.144v1.922c0 .353.286.64.638.64h34.17a.64.64 0 0 0 .64-.64v-1.922a.64.64 0 0 0 -.64-.64h-34.17a.64.64 0 0 0 -.639.64m11.855-29.822h-11.216a.64.64 0 0 1 -.639-.638v-1.923a.64.64 0 0 1 .64-.639h11.331l.006.233v2.958zm18.049 52.207h3.36l.143.013v3.043a.64.64 0 0 1 -.64.639h-2.338a.64.64 0 0 1 -.638-.639v-3.056zm-9.366 0h3.613l.006.168v2.888a.64.64 0 0 1 -.639.639h-2.34a.64.64 0 0 1 -.638-.639v-2.885zm-9.239 0h3.612l-.003.098v2.96a.64.64 0 0 1 -.64.638h-2.337a.64.64 0 0 1 -.64-.639v-2.917zm-5.641.17v2.887a.64.64 0 0 1 -.64.639h-2.338a.64.64 0 0 1 -.639-.639v-2.917l.002-.14h3.613zm0-4.37h-3.46l-.158.001v-4.033h3.619zm24.129-4.032h3.618v4.031l-.143.001h-3.475zm-1.008 4.032h-10.553v-4.032h3.71l.106.076a3.07 3.07 0 0 0 1.812.596 3.07 3.07 0 0 0 1.804-.59l.142-.082h2.979zm-1.65-9.408h6.277v4.368h-6.766l.08-.162a3.8 3.8 0 0 0 .41-1.727zm-18.816.015v2.464c0 .657.164 1.274.45 1.803l.04.086h-6.538l-.227.014v-4.367l.185-.015h5.894zm5.194 5.361h3.71v4.032h-10.553v-4.032h3.007l.1.07c.52.381 1.146.602 1.818.602.664 0 1.283-.217 1.8-.588zm-9.814-19.068h-1.652l-.002-.196v-4.255h1.655zm9.156 0h-4.705v-4.45h4.705zm8.987-4.45h5.713v4.45h-5.713zm-1.008 4.45h-6.972v-4.45h6.975zm7.728-4.45h4.848v4.452l-.13-.001h-4.718zm-21.42 4.45h-2.436v-4.45h2.436zm21.42-10.078h4.719l.129-.001v4.62h-4.848zm-20.412 0h3.832c.104 2.47 2.64 4.453 5.744 4.453 3.1 0 5.634-1.979 5.744-4.442l.148-.01h3.937v4.619h-19.405zm-1.008 4.62h-5.098v-4.633l.128.014h4.97zm16.332-5.754v-6.089h9.835l.1-.001v6.216h-9.939zm-11.491.126h-9.939v-6.215h9.845l.091-.001v6.09zm11.491-13.807v-2.992l.007-.22h11.331a.64.64 0 0 1 .64.639v1.923a.64.64 0 0 1 -.64.638h-11.235zm5.09.996h4.703l.143.016v5.57l-.129.001h-4.718zm-1.008 5.587h-4.081v-5.44l.007-.147h4.075zm-20.413 0h-4.886l-.212.001v-5.6l.157.012h4.941zm1.008-5.587h3.833l-.003.127v5.461h-3.829zm8.652 24.906h3.36v2.261h-3.36zm-9.828 0h4.2v2.26h-4.2zm-1.008 2.26h-3.794l-.129-.006v-2.142l.002-.113h3.92zm6.216-2.26h3.613v2.26h-3.613zm8.988 0h4.368v2.26h-4.368zm5.376 0h2.352v2.26h-2.352zm3.36 0h3.504v2.269l-.213-.01h-3.29zm-9.325 12.81v2.353c0 .64.156 1.24.428 1.761l.062.129h-6.691l.072-.147a3.8 3.8 0 0 0 .418-1.743v-2.478h5.711zm-3.36-1.134h-2.351v-4.199h2.351zm1.008-4.2h2.352v4.199h-2.352zm11.56 0h3.462l.158-.001v4.215l-.171-.015h-3.449zm-1.007 4.2h-1.65l.002-.111v-4.089h1.648zm-23.121 0h-3.433l-.185-.001v-4.198h3.618zm1.008-4.2h1.648v4.2h-1.648zm-4.512 15.624h31.164l.088.015v2.17h-31.363l-.003-.07v-2.114z" fill="url(#U)"/><path d="m195.641 470.181c-.445.175-.694.685-.93 1.237-.349.812-.486 1.86 1.562 2.752a217 217 0 0 0 14.33 5.771c25.961 9.401 54.012 14.167 83.375 14.167 29.362 0 57.415-4.766 83.375-14.167a217 217 0 0 0 14.326-5.769c2.052-.894 1.915-1.942 1.567-2.754-.237-.552-.485-1.062-.932-1.237-.439-.173-1.119-.058-2.016.34a213 213 0 0 1 -14.152 5.712c-25.564 9.275-53.208 13.978-82.167 13.978s-56.604-4.703-82.168-13.978a213 213 0 0 1 -14.154-5.712c-.897-.398-1.575-.512-2.016-.34" fill="url(#V)"/><path d="m200.124 459.906c-.437.173-.672.654-.933 1.264-.286.666-.235 1.88 1.073 2.492a207 207 0 0 0 16.018 6.392c24.217 8.515 50.357 12.832 77.696 12.832s53.479-4.317 77.696-12.832a207 207 0 0 0 16.026-6.395c1.3-.61 1.35-1.823 1.066-2.489-.262-.61-.497-1.091-.933-1.264-.447-.178-1.146-.062-2.081.344-5.67 2.466-10.469 4.374-15.1 6.006-23.98 8.449-49.775 12.732-76.673 12.732h-.001c-26.898 0-52.695-4.283-76.674-12.732-4.631-1.632-9.429-3.54-15.1-6.006-.934-.406-1.634-.522-2.08-.344" fill="url(#W)"/><path d="m203.958 467.581c-.168.504-.132.994-.132.994a211 211 0 0 0 7.943 3.134c25.5 9.468 53.16 14.268 82.209 14.268s56.709-4.8 82.21-14.268a211 211 0 0 0 7.683-3.025l.247-.094a3 3 0 0 0 -.178-1.113 2 2 0 0 0 -.359-.6l-.114-.137a209 209 0 0 1 -11.414 4.391c-24.338 8.559-50.606 12.897-78.074 12.897-27.47 0-53.737-4.338-78.076-12.897a210 210 0 0 1 -11.413-4.39s-.365.336-.532.84" fill="url(#X)"/><path d="m198.812 469.784a213 213 0 0 0 13.388 5.376c25.439 9.23 52.953 13.908 81.778 13.908s56.34-4.679 81.779-13.908a212 212 0 0 0 13.224-5.305l.202-.082c-.176-.452-.458-.903-.845-1.133-.438-.26-.974-.231-1.64.085a211 211 0 0 1 -10.113 4.056c-25.629 9.514-53.42 14.339-82.606 14.339s-56.98-4.825-82.608-14.34a211 211 0 0 1 -10.094-4.047c-.685-.325-1.22-.352-1.658-.093-.347.206-.61.59-.787.992z" fill="url(#Y)"/><path d="m271.569 494.31q-1.789-.153-3.569-.33l-.21-.002-1.92 4.636-.02.078q2.594.272 5.21.497l.149-.003.36-4.712zm1.646 5.055q-.434-.033-.867-.069l.224-3.047zm-8.33 5.306q-.668-.07-1.334-.146l-.12-.025 1.797-4.337-.014.22zm1.15-.046.346-4.52.016-.207c2.34.24 4.7.452 7.057.63l.02.085 1.015 4.912-.168-.013a269 269 0 0 1 -8.286-.72zm-.56 7.337c3.485.355 7 .645 10.513.868l.045.167.995 4.816-.147-.013a283 283 0 0 1 -11.771-.944zm-7.197 5.267c6.192.782 12.505 1.36 18.817 1.728l.17.002 1.9 9.194.031.203a309 309 0 0 1 -2.859-.154l.015-.183.362-4.745.045-.433q-3.592-.21-7.17-.51l-.04.54-.354 4.62-.017.2a291 291 0 0 1 -4.872-.447l.017-.21.365-4.768.017-.385q-3.421-.345-6.806-.77l-.317-.042-.396 5.187-.023.18q-1.201-.15-2.396-.312l-.275-.05 3.67-8.859zm.34-1.113 1.88-4.536.078-.162q1.876.226 3.765.427l-.378 4.892a272 272 0 0 1 -5.181-.595zm11.826-4.84a270 270 0 0 1 -9.426-.955l.047-.11 1.91-4.609.203.032c2.526.284 5.075.535 7.63.75zm1.513-4.797q1.273.102 2.548.19l.224.015 1 4.843.034.144q-2.094-.134-4.186-.302z" fill="url(#F)"/><path d="m224.425 485.641q-1.347-.39-2.688-.797l-.18-.03-2.776 4.243.154.059q2.057.638 4.133 1.239l.098.022zm.493 2.626.04 2.624-.697-.193zm-7.38 6.737 1.262-4.746.094.04c1.983.612 3.987 1.201 5.992 1.763l.088.026.075 5.113-.103-.033a244 244 0 0 1 -7.291-2.117zm-2.223-.686 2.035-3.077-.908 3.431s-.787-.246-1.127-.354m-7.481 11.482a257 257 0 0 0 17.323 5.12l.093.025.137 9.408.019.194q-1.168-.288-2.334-.588l.077-.281 1.232-4.637.085-.274a261 261 0 0 1 -6.78-1.837l-.07.225-1.262 4.755-.057.214q-2.277-.649-4.537-1.337l.025-.134 1.245-4.686.099-.383a259 259 0 0 1 -6.453-2.061l-.244-.067-1.326 4.992-.047.202q-1.132-.376-2.26-.765l-.204-.087 5.11-7.812zm7.86-3.83c3.106.951 6.242 1.847 9.383 2.678l.08.028.075 5.083-.222-.057a256 256 0 0 1 -10.572-2.988zm-2.359 4.406a249 249 0 0 1 -4.844-1.56l.055-.117 2.71-4.141.163.06q1.575.514 3.165 1.01zm-1.433-6.808 2.724-4.164.06-.086c2.347.75 4.718 1.47 7.102 2.152l-1.272 4.739a247 247 0 0 1 -8.491-2.595zm10.986-1.785q1.035.29 2.072.574l.104.041.075 5.093-.154-.047q-1.686-.45-3.369-.924z" fill="url(#G)"/><path d="m310.654 519.14-1.902 9.21.22-.004q1.324-.067 2.647-.144l-.014-.203-.397-5.188.2.017q3.486-.207 6.961-.497l.033.439.356 4.662.021.259q2.44-.204 4.871-.447l-.014-.21-.37-4.828-.034-.324q3.599-.363 7.16-.814l.01.336.363 4.747.03.284q1.334-.168 2.66-.347l-.083-.243-3.571-8.619-.191.011a282 282 0 0 1 -18.916 1.73zm3.99-18.623c2.257-.172 4.515-.375 6.759-.604l.157-.02.374 4.887-.123.022a269 269 0 0 1 -8.217.711l-.122-.006 1.027-4.975zm.965-1.222-.87.077.642-3.106zm.777-4.822-.01-.166q1.833-.155 3.655-.336l.125-.016 1.957 4.72-.218.037q-2.567.27-5.154.488zm.006 16.892q-1.987.16-3.976.29l-.218.01 1.029-4.97.21-.027q1.29-.09 2.578-.193zm.757-4.983c2.562-.216 5.12-.468 7.657-.754l.182-.016 1.944 4.688-.163.039c-3.058.362-6.146.674-9.244.934zm5.92-1.718-.345-4.517 1.802 4.35zm-.209 12.187c-3.955.401-7.94.72-11.928.954l.015-.081 1.014-4.909.23-.002c3.438-.22 6.877-.506 10.29-.854zm.756-5.01q1.829-.194 3.646-.411l.125-.028 1.954 4.715-.151.02q-2.586.322-5.197.597z" fill="url(#H)"/><path d="m362.705 510.94-.14 9.602.335-.08q.989-.246 1.976-.5l-.071-.284-1.235-4.645-.066-.268q3.392-.872 6.764-1.834l.123.426 1.195 4.5.074.267q2.277-.649 4.54-1.337l-.039-.163-1.213-4.563-.11-.48a259 259 0 0 0 6.482-2.07l.202-.055 1.313 4.938.079.252q1.163-.388 2.321-.786l.144-.03-5.243-8.018-.158.037a257 257 0 0 1 -17.06 5.04zm.414-18.892c1.953-.547 3.903-1.12 5.836-1.715l.203-.065 1.211 4.558.046.19a247 247 0 0 1 -7.343 2.135l-.166.027.075-5.082zm-.084-3.731.638 2.396-.675.193zm.61-2.707q1.294-.375 2.58-.766l.158-.054 2.797 4.276-.135.045q-2.044.634-4.108 1.233l-.17.043-1.256-4.731zm6.955 5.625 2.023 3.093-.153.047-.953.3zm2.926 15.48a256 256 0 0 1 -10.542 2.98l-.26.07.074-5.096.163-.04c3.118-.827 6.23-1.715 9.31-2.66zm-.168-5.082q1.556-.483 3.098-.987l.243-.085 2.78 4.25-.236.082q-2.302.764-4.624 1.485zm-7.04.896q-1.681.473-3.37.922l-.134.03.076-5.097.128-.031q1.026-.28 2.051-.568zm-.15-5.057a243 243 0 0 0 6.925-2.096l.178-.05 2.791 4.265-.217.052c-2.78.903-5.594 1.763-8.425 2.573z" fill="url(#I)"/><path d="m245.964 538.559 6.5 1.245-.91 4.76a.194.194 0 0 0 .151.224l4.163.797c.101.02.204-.05.223-.15l1.514-7.91a.2.2 0 0 0 -.03-.143.2.2 0 0 0 -.121-.08l-38.964-7.458a.19.19 0 0 0 -.223.152l-1.514 7.908a.19.19 0 0 0 .151.223l4.164.797a.2.2 0 0 0 .142-.03.2.2 0 0 0 .08-.122l.912-4.762 7.062 1.352-.911 4.762c-.02.102.05.204.15.223l4.164.797a.2.2 0 0 0 .143-.03.2.2 0 0 0 .08-.122l.912-4.761 7.063 1.351-.91 4.763a.19.19 0 0 0 .15.223l4.163.797a.195.195 0 0 0 .224-.152l.91-4.762zm8.656-2.963-32.842-6.286-.246-.051.294-1.535a.763.763 0 0 1 .892-.606l31.813 6.09a.75.75 0 0 1 .486.32.76.76 0 0 1 .12.572l-.295 1.539zm-28.578-49.493a233 233 0 0 0 6.784 1.805l.162.051c-.444 2.618-.937 6.304-1.206 10.853-.71 11.993 2.645 20.17 8.76 21.341 6.112 1.17 12.25-5.19 16.02-16.598 1.439-4.358 2.345-7.987 2.899-10.588l.267.055q3.325.441 6.679.795l.201.032-15.44 37.252-.123.276-1.808-.346.097-.517 1.672-8.734a.764.764 0 0 0 -.605-.891l-2.133-.409a.764.764 0 0 0 -.892.605l-1.706 8.911-.073.338-13.511-2.586.04-.28 1.718-8.973a.764.764 0 0 0 -.605-.892l-2.133-.407a.764.764 0 0 0 -.892.604l-1.73 9.04-.051.21-1.615-.31-.193-.023-.592-40.404zm32.281 6.722c-.547 2.554-1.438 6.106-2.848 10.372-3.52 10.656-9.298 16.872-14.72 15.833-5.423-1.037-8.497-8.947-7.833-20.15.259-4.381.727-7.946 1.153-10.51l.036-.144q1.178.287 2.358.563l-.044.229a96 96 0 0 0 -1.04 9.752c-.548 9.585 1.835 16.552 5.93 17.335s8.882-4.81 11.912-13.92c1.268-3.81 2.096-7.007 2.625-9.385l.052-.315q1.098.163 2.197.316zm-4.386 2.405c-8.94-1.627-11.193-1.189-11.193-1.189s3.623 1.2 10.865 2.386l.156.038q-.279 1.027-.612 2.154l-.11-.013c-8.964-1.62-11.228-1.198-11.228-1.198s3.618 1.186 10.847 2.39l.125.025q-.3.969-.644 2.001l-.058.147c-8.667-1.548-10.87-1.133-10.87-1.133s3.449 1.132 10.339 2.302l.127.007q-.409 1.11-.856 2.142l-.154-.031c-7.725-1.326-9.725-.927-9.725-.927s3.041 1.011 9.123 2.086l.227.042a33 33 0 0 1 -1.074 2.082l-.204-.027c-6.501-1.04-8.231-.67-8.231-.67s2.505.85 7.52 1.792l.234.05a22 22 0 0 1 -1.465 2.067l-.214-.036c-4.873-.672-6.234-.358-6.234-.358s1.797.62 5.399 1.373l.167.027c-1.605 1.67-3.23 2.498-4.664 2.225-3.398-.65-5.502-7.442-5.005-16.149.224-3.931.63-7.165 1.012-9.542l.06-.244a242 242 0 0 0 17.174 3.265l-.03.21c-.18.815-.397 1.728-.655 2.73z" fill="url(#Z)"/><path d="m302.765 542.022h6.62v4.85c0 .102.087.19.19.19h4.238c.104 0 .19-.088.19-.19v-8.053a.193.193 0 0 0 -.19-.191h-39.67a.193.193 0 0 0 -.19.19v8.053c0 .103.087.19.19.19h4.238a.193.193 0 0 0 .191-.19v-4.849h7.19v4.85c0 .102.088.19.191.19h4.238a.193.193 0 0 0 .191-.19v-4.85h7.191v4.85c0 .102.088.19.192.19h4.238c.103 0 .19-.088.19-.19v-4.85zm11.8-47.45-8.11 39.244-.045.198h-1.847v-9.419a.764.764 0 0 0 -.762-.761h-2.173a.763.763 0 0 0 -.76.761v9.241l-.003.178h-13.755l-.02-.241v-9.178a.764.764 0 0 0 -.762-.761h-2.173a.764.764 0 0 0 -.762.761v9.115l.021.304h-1.721l-.152-.005-8.045-38.932-.099-.62q3.546.277 7.12.457l.001.303c.07 2.617.288 6.167.845 10.435 1.557 11.912 6.39 19.313 12.615 19.313 6.224 0 11.057-7.4 12.614-19.313.58-4.443.792-8.107.853-10.751h.244q3.468-.177 6.91-.446l-.035.118m-3.787 42.913h-33.537l-.22-.016v-1.551c0-.42.342-.762.762-.762h32.39c.421 0 .763.342.763.762v1.55zm-6.888-42.417q1.094-.04 2.187-.09l.225-.034c-.061 2.6-.272 6.196-.842 10.558-1.455 11.129-5.961 18.32-11.482 18.32s-10.026-7.191-11.48-18.32a101 101 0 0 1 -.839-10.37l.012-.163q1.196.055 2.394.1l.02.17a96 96 0 0 0 .81 9.692c1.265 9.517 4.915 15.912 9.083 15.912s7.82-6.395 9.084-15.912c.53-3.988.74-7.308.812-9.756zm-13.913 21.576c3.685-.062 5.569-.334 5.569-.334s-1.291-.571-6.26-.824l-.152-.008q-.556-1.046-1.046-2.3l.155-.005c5.158.022 7.807-.344 7.807-.344s-1.646-.698-8.309-.893l-.105-.007a33 33 0 0 1 -.67-2.264l.145.015c6.235.093 9.443-.333 9.443-.333s-1.898-.771-9.779-.919l-.108-.013a41 41 0 0 1 -.433-2.244l.1.011c7.004.148 10.612-.316 10.612-.316s-2.084-.822-10.885-.931l-.034-.155q-.144-1.09-.258-2.108l.187.02c7.29.175 11.046-.308 11.046-.308s-2.147-.841-11.267-.934l-.095-.005a93 93 0 0 1 -.199-2.249l.095.006c7.38.2 11.186-.299 11.186-.299s-2.141-.858-11.292-.937l-.074.002a85 85 0 0 1 -.127-2.73l.012-.129a269 269 0 0 0 17.516-.001l-.029.172c-.074 2.4-.284 5.63-.798 9.5-1.148 8.646-4.493 14.92-7.952 14.92-1.46 0-2.901-1.12-4.165-3.065z" fill="url(#aa)"/><path d="m410 514.999-.035.016-25.448 10.627a.2.2 0 0 0 -.102.104.2.2 0 0 0 -.001.145l3.104 7.431a.193.193 0 0 0 .249.102l3.91-1.633a.194.194 0 0 0 .102-.25l-1.868-4.473 6.636-2.772 1.868 4.474a.193.193 0 0 0 .25.104l3.911-1.634a.19.19 0 0 0 .102-.25l-1.867-4.473 6.635-2.772 1.868 4.474a.2.2 0 0 0 .105.103.2.2 0 0 0 .144 0l3.913-1.633a.194.194 0 0 0 .102-.25l-3.017-7.132c-.163-.329-.288-.379-.3-.384-.02-.007-.084-.013-.261.076m-23.273 8.467-.6-1.433a.765.765 0 0 1 .411-.998l19.608-8.188a.804.804 0 0 1 1.027.41l.616 1.398-.169.102-20.715 8.65zm-2.485-30.732a13 13 0 0 1 -.265-.22c-.54-.46-1.069-.961-1.583-1.491l.231-.107c4.96-2.063 7.37-3.454 7.37-3.454s-1.85.038-8.313 2.514l-.19.073a38 38 0 0 1 -1.51-1.821l.118-.04c5.797-2.34 8.605-3.96 8.605-3.96s-2.039.045-9.311 2.902l-.205.05a52 52 0 0 1 -1.294-1.85l.194-.086c6.08-2.414 9.016-4.12 9.016-4.12s-2.124.03-9.775 3.08l-.138.05a60 60 0 0 1 -1.515-2.51l.172-.053q.948-.334 1.893-.676a219 219 0 0 0 10.339-4.043l.204-.087 8.586 19.501.05.165-.896.202c-1.693.292-4.198.077-6.952-1.074l.146-.088c1.766-.847 2.632-1.358 2.632-1.358s-.924-.004-3.753.879l-.17.04a19.4 19.4 0 0 1 -2.615-1.592l.14-.066c3.715-1.615 5.52-2.668 5.52-2.668s-1.495.015-6.508 1.83zm-12.818-9.536q1.512-.498 3.015-1.016l.131-.067c1.272 2.267 4.62 7.83 8.666 11.268 4.862 4.133 10.033 5.005 12.984 4.496l1.84-.414c1.583-.404 2.21-.505 2.521.047.22.394.253.783.093 1.154-.195.453-.867 1.298-3.178 1.876-4.83 1.208-10.465-.465-15.457-4.59-4.523-3.736-8.9-10.109-10.497-12.554zm-3.649 1.167q1.263-.392 2.52-.798l.081.136c1.424 2.219 6.018 9.067 10.936 13.13 5.276 4.359 11.275 6.114 16.461 4.818q.71-.18 1.266-.392l.026.112 4.906 11.143-.241.104-2.873 1.2-3.981-9.488a.764.764 0 0 0 -.997-.408l-2.004.835a.766.766 0 0 0 -.41.997l3.866 9.255.093.243-7.645 3.191-.132-.178-22.128-33.828z" fill="url(#ab)"/><path d="m201.22 523.489.608-1.456a.76.76 0 0 0 0-.584.76.76 0 0 0 -.41-.414l-19.608-8.188a.805.805 0 0 0 -1.026.41l-.633 1.433.226.083 20.566 8.588zm-9.81.807-1.868 4.475a.19.19 0 0 1 -.25.103l-3.911-1.634a.2.2 0 0 1 -.102-.104.2.2 0 0 1 0-.145l1.867-4.474-6.636-2.772-1.868 4.475a.193.193 0 0 1 -.25.102l-3.91-1.633a.193.193 0 0 1 -.105-.248l3.006-7.106c.175-.356.3-.407.313-.412.02-.007.084-.012.26.076l.018.009 25.466 10.634c.062.026.09.077.102.104a.2.2 0 0 1 0 .145l-3.103 7.431a.194.194 0 0 1 -.249.103l-3.911-1.633a.194.194 0 0 1 -.102-.25l1.867-4.473-6.107-2.552zm29.024-39.854-22.096 33.779-.156.224-7.668-3.201.12-.254 3.857-9.236a.764.764 0 0 0 -.41-.996l-2.004-.836a.763.763 0 0 0 -.996.408l-3.868 9.262-.106.229-2.86-1.194-.257-.12 4.94-11.225.209.058q.472.166 1.044.31c5.187 1.297 11.187-.458 16.462-4.817 5.038-4.162 9.736-11.248 11.034-13.284l.114.06q1.23.397 2.466.78zm-3.891-1.243c-1.48 2.282-5.975 8.912-10.626 12.753-4.992 4.126-10.626 5.798-15.457 4.59-2.31-.577-2.982-1.423-3.177-1.876-.16-.372-.13-.76.093-1.154.31-.552.938-.451 2.52-.047l1.84.414c2.952.509 8.122-.363 12.984-4.496 3.963-3.37 7.259-8.776 8.587-11.127l.08-.119q1.487.513 2.983 1.007zm-6.01.968c-7.575-3.013-9.681-3.042-9.681-3.042s2.944 1.709 9.04 4.129l.174.068a51 51 0 0 1 -1.313 1.877l-.215-.078c-7.252-2.848-9.286-2.892-9.286-2.892s2.795 1.612 8.565 3.943l.152.063a37 37 0 0 1 -1.506 1.814l-.276-.107c-6.392-2.442-8.226-2.48-8.226-2.48s2.432 1.404 7.44 3.482l.167.073a23 23 0 0 1 -1.588 1.496l-.244.233c-5.208-1.904-6.754-1.92-6.754-1.92s1.79 1.043 5.469 2.645l.19.092a19.4 19.4 0 0 1 -2.619 1.592l-.21-.058c-2.793-.868-3.706-.864-3.706-.864s.876.517 2.665 1.375l.128.065c-2.76 1.156-5.271 1.373-6.968 1.08l-.92-.197 8.512-19.336.156-.33a220 220 0 0 0 12.584 4.855l-.088.182a60 60 0 0 1 -1.412 2.329z" fill="url(#ac)"/><path d="m369.466 529.844-38.963 7.458a.2.2 0 0 0 -.121.08.2.2 0 0 0 -.03.142l1.513 7.91c.02.102.121.171.224.151l4.162-.797a.193.193 0 0 0 .151-.223l-.91-4.761 7.06-1.353.913 4.762c.02.101.122.17.223.152l4.164-.798c.1-.019.17-.121.15-.222l-.91-4.762 7.062-1.352.911 4.761a.2.2 0 0 0 .082.122.2.2 0 0 0 .142.03l4.163-.797a.193.193 0 0 0 .152-.223l-.912-4.762 7.062-1.352.911 4.763a.2.2 0 0 0 .082.12.2.2 0 0 0 .142.031l4.163-.797a.2.2 0 0 0 .12-.08.2.2 0 0 0 .031-.143l-1.514-7.908a.19.19 0 0 0 -.223-.152m-7.543-43.545-.588 40.166.007.236-1.82.348-.075-.342-1.705-8.907a.764.764 0 0 0 -.891-.604l-2.134.408a.764.764 0 0 0 -.605.891l1.736 9.065.042.185-13.545 2.592-.05-.3-1.714-8.952a.765.765 0 0 0 -.892-.604l-2.133.408a.763.763 0 0 0 -.605.891l1.722 8.995.04.258-1.685.323-.122.031-15.564-37.553.132-.01q3.53-.371 7.028-.838l.034.171c.558 2.586 1.454 6.145 2.86 10.398 3.768 11.408 9.906 17.768 16.02 16.598s9.469-9.348 8.758-21.34c-.27-4.57-.766-8.27-1.21-10.89l.139-.008a236 236 0 0 0 6.812-1.812zm-20.003 26.435c3.609-.753 5.409-1.375 5.409-1.375s-1.364-.315-6.244.36l-.22.017q-.74-.92-1.454-2.058l.196-.034c5.044-.946 7.562-1.8 7.562-1.8s-1.73-.37-8.22.669l-.216.026a34 34 0 0 1 -1.076-2.086l.157-.023c6.13-1.08 9.196-2.1 9.196-2.1s-2.006-.4-9.757.933l-.135-.004a41 41 0 0 1 -.84-2.106l.15-.017c6.873-1.169 10.313-2.298 10.313-2.298s-2.203-.415-10.871 1.133l-.057-.146a99 99 0 0 1 -.648-2.015l.187-.022c7.19-1.2 10.79-2.38 10.79-2.38s-2.265-.422-11.226 1.198l-.109.026a94 94 0 0 1 -.623-2.193l.117-.004c7.273-1.19 10.91-2.393 10.91-2.393s-2.26-.44-11.236 1.197l-.103.019a85 85 0 0 1 -.665-2.767l-.03-.176q8.709-1.334 17.194-3.269l.037.178a94 94 0 0 1 1.023 9.612c.497 8.707-1.607 15.498-5.005 16.148-1.43.273-3.05-.55-4.651-2.211zm11.936-24.515c.433 2.574.913 6.193 1.179 10.661.663 11.204-2.412 19.113-7.834 20.151s-11.2-5.177-14.72-15.833c-1.385-4.19-2.268-7.69-2.817-10.234l-.028-.132q1.2-.166 2.396-.344l.04.168c.527 2.392 1.363 5.642 2.656 9.53 3.032 9.109 7.82 14.703 11.913 13.92 4.095-.784 6.478-7.75 5.93-17.335a95 95 0 0 0 -1.047-9.798l-.023-.188q1.111-.26 2.219-.529zm12.406 41.075-32.89 6.296-.256.054-.296-1.543a.76.76 0 0 1 .606-.892l31.813-6.09a.763.763 0 0 1 .891.606l.29 1.514z" fill="url(#ad)"/></g></svg>