<svg clip-rule="evenodd" fill-rule="evenodd" height="300" image-rendering="optimizeQuality" shape-rendering="geometricPrecision" text-rendering="geometricPrecision" viewBox="0 0 234.055 274.17" width="256.088" xmlns="http://www.w3.org/2000/svg"><path d="m195.332 81.397h-152.41v113.064c0 42.912 34.537 77.825 76.986 77.825 42.45 0 76.986-34.913 76.986-77.825v-113.064h-1.563z" fill="#1f1a17"/><path d="m119.91 84.503h73.858v109.958c0 41.203-33.133 74.72-73.858 74.72v-184.677z" fill="#fff"/><path d="m119.896 269.182c-40.727 0-73.858-33.518-73.858-74.72v-109.959h73.858z" fill="#c82b20"/><path d="m227.838 24.6-2.018 2.305-2.346-1.15 1.573-2.443-4.136-1.729-1.8 2.576-2.566-1.22 1.25-2.408-4.692-2.137-1.323 2.612-3.113-1.323.587-2.409-5.281-1.865-.365 10.14.035.138 2.313 3.39-1.503 2.578-.07.067-.554-.17-.551-.066h-.55l-.548.067-.513.169-.516.203-.473.272-.406.338-.364.408-.294.407-.223.475-.178.508-.079.476.04.507.072.51.146.507-.035.239-.699 1.492-.439.543-4.176-1.188-1.432 2.816-2.894-.883.949-2.847-6.263-1.763-.994 2.508-3.041-.745.81-2.986-3.886-1.254-.294-2.07.658-.135.624-.204.55-.304.511-.407.405-.442.33-.542.22-.575.112-.61v-.613l-.111-.608-.26-.577-.324-.51-.405-.44-.514-.408-.554-.305-.618-.203-.038-.169.44-1.866 4.73-1.56 5.751-8.581-5.13-1.696-1.43 2.544-2.75-.712.477-2.713-4.579-1.084-1.102 2.78-2.677-.575.37-2.511v-.272l-4.728-.881-.77 2.779-2.603-.44.55-2.78-5.059-.713-.55 2.916-2.343-.303-.406-2.917-5.609-.613 2.088 10.448 3.996 3.186.039.103v1.696l-.624.068-.625.17-.547.237-.51.304-.48.374-.406.44-.365.476-.256.542-.182.544-.109.575v.577l.069.575.184.543.224.542.324.475.406.475v.306l-.37 1.221-.145.17-3.261-.578-.588 3.087-3.37-.406-.04-3.12-6.669-.44-.55 2.95-2.6-.036-.369-3.05-4.619-.408-.695-1.492.074-.067.108-.103.55-.34.44-.407.402-.439.293-.51.223-.508.148-.576.037-.577-.037-.577-.148-.576-.223-.544-.293-.507-.403-.442-.438-.372-.51-.34-.554-.238-.622-.203.183-2.544 4.544-1.627 4.472-10.074-6.265-.71-.293 2.747-.698-.103-1.831-.102-.148-2.747-5.056-.067-.333 2.679-3.15-.033.106-2.748-5.165-.101-.182 2.949-3.154.067-.22-2.915-5.462.169-.184 3.121-3.079.1-.51-2.848-6.27.746 3.555 10.174 4.178 1.526.073.035.477 2.272-.55.237-.514.306-.473.338-.405.409-.33.439-.291.51-.185.508-.145.542-.075.578.038.543.11.542.182.543.258.474.327.474.368.441.44.373-.146 1.323-3.08.543.368 2.951-2.492.203-.55-2.915-6.159.678.439 3.186-.404.069-2.601.372-.695-3.187-4.105.542h-.147l-.515-1.256v-.032l.403-.51.295-.543.22-.575.11-.577.036-.61-.075-.577-.146-.609-.257-.577-.33-.51-.44-.475-.475-.408-.55-.338-.585-.271-.625-.17-.621-.101h-.7l-.107-.136-.404-2.713 4.47-1.899.512-.238.15-10.886-5.058.678.33 2.374-2.455.375-.88-2.308-4.583.95.441 2.308-2.714.473-.476-2.375-4.582.813.476 2.408-3.188.713-.88-2.205-5.17 1.256.77 2.441-.183.069-2.6.881-1.798-2.374-.183-.034-4.546 1.627-.365.238 6.964 9.497.11.033 3.629-.51.402-.101 1.135 3.018-.072.069-.549.338-.476.41-.44.474-.333.54-.253.545-.147.61-.075.61.039.61.145.611.22.575.331.543.402.475.477.441.513.339.585.271.662.204v.136l-.038.135-5.279 2.102 1.138 3.019-3.006 1.12-1.392-3.051-5.536 1.694.954 3.359-.331.136-1.575.54-.221.103-1.869-2.543-.257-.273-2.93.814h-.295l-.294-.068-.257-.135-.219-.136-.181-.202-.111-.238-.076-.271-.036-.272v-.306l.112-.44.07-.474v-.477l-.07-.474-.147-.475-.183-.44-.259-.406-.292-.374-.366-.373-.402-.306-.442-.236-.439-.204-.476-.17-.514-.101-.515-.035h-.512l-.55.068-2.383-2.578 3.079-3.391-3.042-10.343-5.204 1.865.696 2.917-1.943.814-2.015-2.475-3.85 1.66 1.247 2.781-1.869.95-.222.103-.218.102-2.199-2.68-3.848 1.864-.478.17 1.247 2.613-2.2 1.05-2.49-2.238-3.78 2.137-1.829 1.153.183.135 10.63 7.054.144.136 3.998-.95.402-.067 3.444 2.339-.035.035-.257.78-.072.745.072.78.257.747.403.712.513.577.659.507.733.374.661.137.661.068.694-.034.66-.137 5.279 6.612-.074.511.037.507.147.51.22.474.33.407.402.339.478.272.55.203 7.807 9.937-.55.678-.659.543-.77.475-.844.306-.294.169-.438.136-.44.168-.403.238-.367.27-.33.34-.257.373-.182.408-.112.44-.074.442.039.44.072.44.186.407.217.408.296.34.328.305.405.27 1.1.474 1.06.51 1.028.61.989.645.257.272.22.27.144.305.112.306.037.339-.037.34-.075.304-.145.341-.548.778-.662.746-.292.375-.183.438-.037.443.037.442.183.406.292.373.365.27.478.205.11.034.072.032.589.171.586.204.55.271.51.34.334.235.364.678s70.045-33.36 148.013-.333l2.525.03.516-.204.474-.306.407-.305.363-.372.333-.41.217-.472.186-.476.108-.509.037-.508-.037-.51-.108-.474-.224-.474-.22-.44-.326-.442-.365-.34-.443-.339-.036-.135.364-.88.405-.85.48-.814.473-.813.624.135.62.035.589-.069.587-.135.547-.238.517-.339.44-.372.363-.475.294-.509.184-.544.076-.577v-.542l-.114-.575-.217-.508-.331-.511-.404-.44-.22-.203-.881-.611-.878-.678-.84-.678-.808-.746 5.241-7.429.512-.031.437-.104.478-.135.44-.204.405-.237.365-.272.33-.338.294-.339.257-.407.22-.406.148-.409.07-.44.039-.442v-.44l-.075-.473-.145-.409 4.507-6.578 2.165-1.324.583.035.551-.068.552-.136.512-.203.476-.272.403-.339.366-.407.332-.441.22-.509.144-.51.037-.508v-.508l-.107-.51-.182-.474-.258-.475-.331-.44 2.127-1.864 5.606-.612 8.212-7.087-4.397-2.443z" fill="#1f1a17"/><path d="m194.772 57.599 1.506-1.05 1.54-1.019 1.574-.916 1.65-.883 1.651-.78.217-.1.148-.237.112-.307-.038-.27-.222-.272-.326-.17h-.37l-.363.138-1.872.744-1.83.848-1.76.984-1.688 1.05-1.614 1.19-1.502 1.254-1.428 1.356-1.357 1.458 1.799.474 1.357-1.22 1.387-1.187zm-10.808-8.038-1.064 2.883 3.445 1.017 2.31-2.78-4.547-1.46zm.402 4.714-6.271-1.764.33 4.817 3.78 1.153z" fill="#868257"/><path d="m189.68 57.293.956-.847 1.022-.815 1.028-.78 1.064-.746 1.134-.712 1.138-.643 1.134-.645 1.213-.578 1.207-.508 1.247-.473 1.242-.442 1.288-.407 1.319-.34.366-.372 5.206-6.985.036-.17-9.639-4.138-16.789 21.264 3.114 1.153.88-.95.878-.948z" fill="#868257"/><path d="m202.545 40.2.401-.033.44.068.33.135.257.17.26.238.18.304.114.306.034.305-.071.338-.107.307-.224.372-.99 1.661-.111.17-3.004-1.457 1.465-2.239.293-.34.368-.203z" fill="#1f1a17"/><path d="m69.38 49.19.514-1.833.66-1.797.768-1.731.915-1.694 1.03-1.664 1.686 1.086 1.576 1.22 1.503 1.29 1.391 1.39 1.247 1.492 1.174 1.56 1.027 1.663.877 1.695 2.531-.34-.111-.203-1.246-2-1.393-1.934-1.54-1.83-1.648-1.731-.88-.814-.917-.78-.955-.779-.952-.745-.988-.68-1.027-.679-1.027-.643-1.099-.61-.696.95-.66.948-.625.984-.584 1.018-.514 1.016-.512 1.052-.406 1.086-.401 1.05-.33 1.12-.294 1.085-.255 1.12-.185 1.154-.145 1.116-.074 1.153-.035 1.12.035 1.153 1.87-.373.108-1.9.22-1.899zm-20.05.337 2.385-.78-1.835-2.408-2.822.882-.292.305 2.09 2.205zm-21.038-18.993-9.236 4.208 3.333 2.237.845-.374 7.44-3.188-.623-.745zm-6.304 9.97.147.274.146.237.221.237.219.17.513.271.293.067.294.036.33-.036.293-.067.44-.136.367-.169.549-.271 9.384-4.07.328-.442.11-.509-.035-.507-.22-.51-.332-.406-.439-.34-.514-.203-.583-.033-.55.067-.185.034-.11.068-.403.135-9.676 4.273-.33.238-.183.237-.074.27-.074.543zm14.81 27.234v.443l.108.371.186.375.326.304.406.237.439.17.475.137.44.067h.477l.479-.067.476-.138.438-.17 4.655-1.796 4.73-1.664 4.726-1.56 4.767-1.423 4.8-1.322 4.805-1.22 4.874-1.086 4.837-.983 4.91-.848 4.911-.747 4.913-.644 2.456-.273 2.455-.235 4.95-.407 2.455-.137 2.494-.134 4.944-.17 4.95-.069 4.95.068 4.947.17 4.95.305 4.95.406 4.944.51 4.913.645 4.913.746 4.877.882 4.872.982 4.838 1.084 4.802 1.224 4.805 1.32 4.764 1.46 4.728 1.56 4.726 1.661 4.654 1.797.223.137.438.102.48.034.436-.067.44-.138.405-.236.364-.272.259-.339.183-.407.108-.406.038-.441-.073-.408-.143-.407-.258-.372-.33-.306-.373-.238-.437-.168-4.799-1.867-2.421-.882-2.421-.847-4.907-1.627-2.46-.747-2.453-.746-4.946-1.356-4.988-1.255-5.022-1.119-5.023-1.018-5.058-.881-5.06-.781-2.525-.339-2.569-.305-5.096-.508-5.09-.407-2.568-.137-2.566-.133-5.092-.136-2.57-.036h-2.566l-5.091.067-5.136.238-5.093.306-5.094.473-5.096.578-5.058.679-5.058.813-5.058.95-5.022 1.084-4.985 1.155-4.948 1.322-4.947 1.423-4.913 1.563-4.876 1.66-4.8 1.798-4.801 1.899-.403.203-.332.27-.22.34z" fill="#868257"/><path d="m41.231 76.998-.073.303-.038.273.038.305.11.306.144.271.185.237.258.203.253.17.332.102.293.068h.331l.33-.034.952-.271 2.236-.883 2.198-.882 4.474-1.66 4.508-1.527 4.545-1.424 4.545-1.289 2.31-.611 2.272-.576 4.617-1.085 4.655-.985 4.656-.847 4.655-.744 2.345-.306 2.346-.307 4.695-.508 4.727-.407 4.69-.306 4.73-.168 4.73-.034 4.728.034 4.724.168 4.697.306 4.724.372 4.694.51 4.689.646 4.654.71 4.656.85 4.658.981 4.619 1.052 4.58 1.22 4.581 1.289 4.51 1.426 4.506 1.525 4.472 1.629 4.437 1.761.332.07.323-.035.297-.068.33-.102.259-.169.256-.203.179-.239.15-.271.108-.304v-.61l-.107-.306-.151-.271-.179-.237-.223-.203-.293-.17-.106-.07-4.545-1.762-4.586-1.662-4.615-1.525-4.62-1.426-4.693-1.32-4.69-1.19-4.727-1.084-4.767-.95-4.766-.848-4.761-.746-4.806-.61-4.8-.509-4.842-.408-4.795-.27-4.843-.135-4.835-.067-4.84.067-4.837.205-4.802.303-4.841.407-4.8.542-4.766.646-4.802.746-4.764.881-4.727.985-4.73 1.117-4.692 1.22-4.656 1.324-4.654 1.457-4.583 1.562-4.58 1.662-4.511 1.796-.29.17-.221.204-.222.272z" fill="#868257"/><path d="m42.186 71.164v.543l.07.27.112.272.182.238.183.203.22.204.293.135.259.069.291.067h.294l.327-.034.222-.033 4.435-1.664 4.474-1.559 4.508-1.423 4.508-1.324 4.544-1.22 4.583-1.121 4.618-1.017 4.618-.914 4.618-.782 4.655-.677 4.657-.576 4.69-.474 4.654-.374 4.69-.271 4.694-.137 4.695-.067 4.69.067 4.69.169 4.693.306 4.69.374 4.655.475 4.693.609 4.62.713 4.653.813 4.582.917 4.62 1.017 4.542 1.154 4.548 1.255 4.544 1.32 4.471 1.46 4.471 1.56 4.436 1.696.258.101.33.035.332-.035.289-.068.297-.136.253-.17.258-.168.181-.239.185-.271.11-.304.036-.271v-.306l-.036-.305-.11-.27-.148-.272-.218-.238-.22-.203-4.545-1.73-4.579-1.661-4.582-1.527-4.622-1.391-4.657-1.322-4.69-1.187-4.728-1.051-4.73-.983-4.727-.85-4.764-.745-4.802-.61-4.768-.509-2.415-.204-2.384-.203-4.838-.272-2.38-.102-2.422-.067-4.801-.068-4.84.033-4.797.17-4.805.306-4.802.372-4.801.51-4.765.61-4.764.746-4.767.848-4.729.95-4.727 1.051-4.656 1.188-4.69 1.287-4.62 1.425-4.581 1.526-4.582 1.629-4.545 1.763-.22.204-.145.236-.111.238zm5.861-10.75-.073-.204-.146-.17-.99-1.052-1.063-1.017-1.097-.948-1.138-.917-1.172-.882-1.248-.813-1.282-.747-1.282-.713-1.98-.982-2.015-.882-.405-.068-.182-.034-.185.034-.183.102-.108.136-.037.169v.168l.073.17.145.138 1.832.915 1.76.95 1.761 1.018 1.687 1.084 1.61 1.154 1.541 1.254 1.501 1.254 1.43 1.358.332-.034.256-.17.367-.068z" fill="#868257"/><path d="m32.58 49.325.11.066 1.246.373 1.21.442 1.21.44 1.209.51 1.136.577 1.137.574 2.199 1.289 1.064.713 1.026.746.989.746.952.814.953.846.919.884.84.915.845.95 5.167-1.424-18.436-20.01-8.541 3.731v.135z" fill="#868257"/><path d="m32.763 42.845.147-.135.183-.101.294-.17.368-.101.326-.034.369.034.22.033.403.17.33.237 1.65 1.865.108.136-2.674 1.221-1.724-2.17-.182-.204-.039-.27.039-.271z" fill="#1f1a17"/><path d="m56.918 58.039 2.603-.847-.146-4.748-3.777 1.457zm-4.62-4.613 1.138-.338 2.31-.882-1.577-2.542-4.069 1.456.404.374zm.99-5.154 3.153-.983-1.427-2.646-3.153 1.018-.257.17zm6.126-.203-3.302.982.953 2.444 2.349-.747zm115.422-36.662-4.95-1.018.476-2.61-2.491-.407-.993 2.578-4.582-.712.26-2.781-2.459-.306-.692 2.644-4.251-.44-.553-2.78-3.115-.44-.074.134 1.98 8.852 27.673 4.884 5.387-7.156-2.636-1.052-1.391 2.509-4.731-1.22.475-2.577-2.127-.509zm-49.961-5.799h-5.463v-2.747h-2.893l-.075 2.747-5.277.17-.477-2.85-2.64.035-.365 3.086-5.354.475-.879-2.579-2.637.307 2.822 8.242 15.87-.17 15.1-.103.184-.475 3.592-7.697-2.895-.272-.697 2.272-4.765-.337-.182-2.58-2.567-.1zm-20.232 13.735-.33.306-.296.373-.182.34-.11.338-.038.373.037.34.111.372.182.306.257.306.295.237.695.238 22.762-.238.624-.17.808-.273.365-.27.255-.305.183-.373.078-.44v-.408l-.148-.373-.261-.373-.324-.271-.224-.17-.292-.136-.294-.067-.294-.069-22.687-.033h-.109l-.33.068-.365.136zm1.755-5.392.113.578.405 2.916h19.935l.293-3.494h-.803zm-33.278-6.851.44 2.51-4.91.882-.625-2.444-2.345.408.328 2.579-5.167 1.085-.844-2.274-2.785.679.658 2.306-4.836 1.492-1.54-1.932-.184-.103-2.455.713 5.46 7.36 28.298-6.343.365-8.173-2.38.17.329 2.51-.768.17-3.886.542-.845-2.51zm-24.961 34.016-.588.271-2.674 1.05-.624.238-2.126-2.78-2.346.609 5.609 5.733 1.466-.577 13.194-4.646-.145-7.395-3.74 1.426 1.064 3.087-.331.169-4.69 1.763-1.685-3.086-3.264.984.367 1.186zm-33.395-17.127-2.124 1.12 1.063 2.646-3.921 2.033-3.044-1.9-2.346 1.358 9.055 5.8 18.656-8.377-2.309-8.378-2.53.918.476 2.576-4.029 1.594-1.616-2.238-1.868.747 1.101 2.544-4.62 2.134zm42.96 22.791 1.906-.644-.035-3.223-3.005 1.223.108.203.99 2.407zm1.906-25.842.953 3.05 17.3-3.525-.695-3.29zm-1.21 5.935-.145.372-.074.374-.036.406.073.408.182.372.221.34.255.304.367.238.367.17.44.102.441.067.403-.067 20.123-4.342.33-.168.258-.204.253-.27.186-.272.146-.271.11-.34.038-.341-.037-.338-.075-.339-.146-.305-.183-.272-.22-.238-.258-.237-.328-.169-.331-.101-.366-.07-.255-.066h-.662l-19.79 4.204-.371.171-.365.237-.293.306zm18.254 12.411 1.102.816 1.025.847 1.028.881.95.95.954.95.88.983.879 1.017.807 1.052.77 1.085.697 1.12.695 1.119.625 1.153.073.135.513-.033 4.543-.544-10.702-23.535-20.125 4.51-.034.135-.037 24.86 4.363-1.29v-1.254l.07-1.29.113-1.254.181-1.254.222-1.254.255-1.256.331-1.221.367-1.22.44-1.187.476-1.189.514-1.152.586-1.152.622-1.153.658-1.086.735-1.084.772-1.086 1.207.68 1.175.676 1.17.746z" fill="#868257"/><path d="m78.104 29.924.404-.1.402-.137.442.034.402.17.293.304.77 2.748-2.823.51-.439-2.544.034-.408.187-.339zm-13.233 2.61.44-.032.44.137.368.236.257.34.513 2.407-2.678.711-.365-2.542.038-.44.219-.373.331-.272z" fill="#1f1a17"/><path d="m98.633 45.118.438 4.071.659-.068.736-4.307zm-4.107 5.392 3.408-.371-.842-4.818-5.024.848.221.577 1.576 3.764zm-2.199-10.275-1.136-3.357-3.263.338 1.722 3.46zm2.97 3.46-.369-2.51-4.692.78 1.286 2.95 3.882-.712zm1.134-2.748.55 3.051 3.705-.474.878-3.289zm2.42-1.696 2.932-.406.77-3.595-3.92.542zm-1.541-3.256-4.47.61.954 3.29 3.957-.44zm-4.214-4.748-5.13.714-.773-3.121-2.894.338.623 1.527 2.382 5.224 15.69-2.171.987-6.986-2.38.168.182 3.189-4.508.508-.625-3.018-3.995.441zm20.674 5.63-.735.915-.731.952-.7.981-.62.986-1.212 2.034-.513 1.05-.474 1.051-.476 1.085-.405 1.086-.367 1.12-.328 1.119 2.087-.135.587-1.832.733-1.764.844-1.73.952-1.66 1.064-1.63 1.171-1.526 1.284-1.49 1.394-1.425 1.354 1.389 1.246 1.492 1.174 1.526 1.028 1.628.952 1.662.807 1.696.693 1.764.553 1.83.696.07h1.61l-.327-1.22-.407-1.224-.582-1.456-.696-1.426-.733-1.457-.66-1.152-.772-1.224-.806-1.186-.879-1.12-.988-1.084-.77-.847-.845-.78-.878-.781-.955-.711-.879.813-.843.848-.84.88z" fill="#868257"/><path d="m121.208 35.522.883.983.805 1.016.808 1.052.732 1.086.696 1.119.659 1.154.585 1.152.552 1.188.473 1.185.443 1.22.404 1.256.328 1.256 5.792.508-6.049-25.3-22.318.306h-.48l-4.363 25.128 4.95-.542.257-1.255.327-1.254.406-1.255.439-1.22.513-1.189.554-1.184.62-1.154.66-1.12.732-1.085.77-1.052.843-1.05.84-.984.955-.984.954-.915 1.027-.882 1.064-.849h.183l1.061.882.99.881.953.918z" fill="#868257"/><path d="m123.556 26.67.293-.17.293-.102h.327l.295.035.294.032.293.07.22.134.183.204.149.236.07.238.07.24.372 2.474h-3.444l.07-2.543.112-.34.183-.305zm-14.808-.272.254-.069.294-.034.513.103.476.238.186.17.145.17.112.236.108.237.037 2.612h-3.407l.293-2.612.22-.474.33-.339z" fill="#1f1a17"/><path d="m142.542 45.355-.734 3.97.957.202 1.904-3.935zm-2.162 4.851.697-4.817-6.27-.543.26.985.803 3.866zm.44-6.342 4.58.304 1.65-3.22-5.68-.443zm-1.503-.035.658-3.46-6.374-.407.216.916.587 2.613zm-2.273-4.85v-3.492l-4.508-.44.803 3.697h.332zm5.83.373.4-3.459-4.836-.406v.406l-.114 3.155zm4.763.34 1.54-3.425-4.693-.374v.747l-.294 2.747zm-3.116-8.58-.142-3.12-4.329-.271-.477 3.085-5.277-.305-.148-3.087-3.188-.134 1.283 6.34 17.666 1.29 2.418-5.867-1.83-.374-.733 2.884zm15.654 8.988-.918.712-.879.711-.843.781-.807.78-.77.848-.737.882-.692.881-.624.915-.588.95-.548.983-.476 1.018-.442 1.016-.401 1.053-.075.103.918.236.109-.067.878-1.73.993-1.663 1.134-1.593 1.246-1.493 1.394-1.425 1.504-1.322 1.61-1.187 1.723-1.085 1.248 2.034.659 1.222.952 2.204.658 1.696.517 2.036.369 2.34.253 2.373.149.17 1.064.17v-1.089l-.039-1.084-.222-2.17-.402-2.137-.625-2.068-.766-2.07-.956-1.966-.547-.95-.584-.949-.628-.949-.662-.883-.144-.068-1.028.578-.989.61z" fill="#868257"/><path d="m166.7 40.914.587 1.117.546 1.12.477 1.121.443 1.151.364 1.187.29 1.188.257 1.187.185 1.221.146 1.22.073 1.221v1.254l-.036 1.22 6.706 1.934.078-.032-1.36-25.946v-.746l-19.94-3.73-.656-.136-11.106 24.148 6.525.948.07-.099.33-1.224.44-1.187.479-1.15.587-1.155.621-1.085.697-1.051.77-1.02.806-.948.913-.915.918-.882 1.026-.814 1.027-.78 1.098-.713 1.175-.643 1.21-.577 1.209-.543.148.035.81.982.763 1.019.699 1.05z" fill="#868257"/><path d="m170.69 31.044.445-.103.435.035.407.136.361.236.297.307.182.338.078.408-.186 2.983-3.518-.677.622-3.018.255-.238.257-.237zm-13.999-2.409.474-.202.295-.033h.258l.512.135.439.237.186.17.144.168.183.442.038.474-.072.475-.115.44-.62 1.934-3.334-.678 1.062-2.748.148-.44.182-.204z" fill="#1f1a17"/><path d="m177.329 28.4.326-.24.26-.303.217-.305.108-.373.078-.374-.037-.372-.112-.339-.146-.34-.258-.305-.29-.271-.332-.204-.368-.136-.401-.068-19.721-3.697-.11-.035-.292-.032-.624.067-.548.204-.478.374-.183.202-.145.238-.183.543v.576l.146.508.327.475.259.306.399.237.258.17 19.976 3.763.406.035h.33l.405-.035.402-.1zm-1.54-5.326.95-3.188-19.24-3.494.07 3.394zm37.936-3.221-1.32 2.442-5.059-1.867.621-2.474-2.893-.984v.406l-.331 8.038.33.273 16.756 7.087.618.204.625.134 6.966-5.765-1.87-1.152-2.202 1.865-4.067-1.934 1.426-2.237-2.05-.85-1.537 2.274-4.695-2.001 1.17-2.306zm-5.94 9.089-1.722 3.187.477.272 8.286 3.324 2.968-2.544-.77-.34-.81-.306zm7.258 11.769.33-.341.258-.408.144-.405v-.474l-.108-.443-.22-.406-.291-.374-.408-.27-.621-.408-9.86-4.07-.513-.134-.44-.136-.437-.035-.44.068-.405.17-.476.271-.368.373-.22.441-.145.476v.508l.146.475.258.406.4.373.625.306 9.822 4.171.553.17.291.102.589.135.549-.066.513-.171zm-26.791-.78.804-2.681-4.03-1.186-.954 2.68-4.985-1.494.473-2.984-2.231-.746v6.715l.402.204.438.136 15.066 4.271 4.36-5.222-2.894-.88-1.466 2.678zm.658 5.39-1.577 3.359 2.091.71 2.562-3.118zm-1.39-.441-4.657-1.389-1.283 3.458 4.213 1.358zm-7.515 1.662 1.133-3.494-3.698-1.152.144 1.526.071 2.51zm-1.032 4.817 2.35.711 1.283-3.424-4.95-1.561.038 1.966.144 2.001z" fill="#868257"/><path d="m87.403 103.73v14.993c0 5.69-5.18 10.32-11.542 10.32-6.364 0-11.542-4.63-11.542-10.32v-14.993z" fill="#302578"/><path d="m78.888 111.945v3.616c0 1.372-1.25 2.49-2.783 2.49-1.536 0-2.783-1.118-2.783-2.49v-3.616zm5.29 5.853v3.616c0 1.373-1.25 2.49-2.784 2.49-1.536 0-2.784-1.117-2.784-2.49v-3.616zm0-11.12v3.615c0 1.372-1.25 2.488-2.784 2.488-1.536 0-2.784-1.116-2.784-2.488v-3.616zm-11.067 11.12v3.616c0 1.373-1.248 2.49-2.781 2.49-1.536 0-2.785-1.117-2.785-2.49v-3.616zm0-11.12v3.615c0 1.372-1.248 2.488-2.781 2.488-1.536 0-2.785-1.116-2.785-2.488v-3.616z" fill="#fff"/><path d="m130.227 103.73v14.993c0 5.69-5.18 10.32-11.542 10.32-6.364 0-11.542-4.63-11.542-10.32v-14.993z" fill="#302578"/><path d="m121.713 111.945v3.616c0 1.372-1.25 2.49-2.783 2.49-1.536 0-2.784-1.118-2.784-2.49v-3.616zm5.288 5.853v3.616c0 1.373-1.25 2.49-2.783 2.49-1.536 0-2.784-1.117-2.784-2.49v-3.616zm0-11.12v3.615c0 1.372-1.25 2.488-2.783 2.488-1.536 0-2.784-1.116-2.784-2.488v-3.616zm-11.065 11.12v3.616c0 1.373-1.249 2.49-2.782 2.49-1.535 0-2.785-1.117-2.785-2.49v-3.616zm0-11.12v3.615c0 1.372-1.249 2.488-2.782 2.488-1.535 0-2.785-1.116-2.785-2.488v-3.616z" fill="#fff"/><path d="m173.052 103.73v14.993c0 5.69-5.178 10.32-11.542 10.32-6.363 0-11.54-4.63-11.54-10.32v-14.993z" fill="#302578"/><path d="m164.538 111.945v3.616c0 1.372-1.25 2.49-2.784 2.49s-2.783-1.118-2.783-2.49v-3.616zm5.288 5.853v3.616c0 1.373-1.247 2.49-2.783 2.49-1.534 0-2.783-1.117-2.783-2.49v-3.616zm0-11.12v3.615c0 1.372-1.247 2.488-2.783 2.488-1.534 0-2.783-1.116-2.783-2.488v-3.616zm-11.064 11.12v3.616c0 1.373-1.248 2.49-2.784 2.49-1.535 0-2.783-1.117-2.783-2.49v-3.616zm0-11.12v3.615c0 1.372-1.248 2.488-2.784 2.488-1.535 0-2.783-1.116-2.783-2.488v-3.616z" fill="#fff"/><path d="m115.774 226.883c.267.536 2.811 1.741 4.956-.535 2.545 2.009 3.882 1.338 5.22.535m-17.945-2.812c.268.535 2.812 1.74 4.957-.535 2.544 2.01 3.882 1.474 5.224.535m-10.848 4.42c.267.533 2.675 1.739 4.953-.538 2.543 2.01 3.885 1.474 5.223.539" fill="none" stroke="#1f1a17" stroke-width=".014546"/><path d="m123.941 177.603c-.535.132-1.07.268-1.605.4 0 .136.267.268-.131.671 0 0-.136.132-.272.132-.535.267-.936.67-.4.67.132 0 .803-.135 1.206-.267.536-.136.536-.136 1.07-.404.132-.13.4-.13.536-.13-.267-.268-.536-.672-.404-1.072z" fill="#f8d1a6" stroke="#1f1a17" stroke-width=".014546"/><path d="m117.914 181.62c-.802 2.545.54 5.222 1.206 7.364.404 1.205.939 2.41 1.475 3.35 1.07 1.202 2.542 2.277 4.284 3.215 1.07 2.408.938 5.088.133 8.032 0 .404-.268 1.207-.268 1.475-.267 2.008 0 3.214.135 4.956v1.07h-.135c0 .268 0 .668-.133.935v.403c-.134.939-.134 1.874-.134 2.812h.134v1.474l.133.135v.4c.135.403.268.803.536 1.071v.403h.136c.135 1.07-.269 2.276 0 3.483.135 0 .135.132.135.132v.136c.132.266.399.667.667 1.07.136.268.402.535.67.939 0 .131.132.131.132.266 0 .133 0 .133.136.268v.268c0 .133.132.133.132.268 0 .4.271.667.54.935v.538c0 .133-.136.133-.136.268 0 .133 0 .133-.133.267 0 .133-.135.133-.135.268h-.136c0 .133-.132.133-.4.4h-.268c-.134 0-.266.136-.402.136h-.4l-.134.135h-.133c-2.01.268-4.019.533-6.027.4h-.135c-3.75.268-7.634.403-11.516.268h-.939-.132v-.135h-.135v-.133h-.131v-1.339l.13-.134v-.133c.136-.135 0-.135.136-.268 0-.135 0-.135.132-.267v-.403c.136 0 0-.136.136-.136v-.133s.132 0 0-.134h.132v-.536h.136v-.668h.132v-.806c.135 0 0 0 .135-.131-.135-.268 0-.671 0-.94 0-.132 0-.132.131-.267v-.535c0-.132.137-.267.137-.4v-.27l.132-.133c-.132-.135 0-.403 0-.535 0-.135 0-.404.135-.536v-.268c0-.134.133-.402.133-.534v-.136c.135 0 0-.132.135-.132v-.136l.136-.135v-.132s0-.136.132-.268v-.135c0-.132.134-.132 0-.268 0 0 .134 0 .134-.132v-.268c.268-.67.536-1.341.804-1.877v-.132c.133-.268.268-.403.268-.67.131-.268.267-.536.402-.939h.133c0-.4.132-.667.268-.935v-.136h.132v-.132c0-.135 0-.268.136-.403v-.131s0-.136.136-.136c-.136 0 0-.136 0-.136v-.4h.132v-.535c.266-1.474.67-2.68.534-4.154 0-1.203 0-3.211-.132-4.553.132-1.738 0-2.54-.136-4.282-.266-1.877-.266-3.35-.534-5.224a425.202 425.202 0 0 1 -.804-7.365c-.136-1.34-.136-1.877.268-3.483l.268-.67c0-.133 1.338.134 2.68.134h2.008c1.07.136 1.339 0 2.541.136m6.83-15.134c-.266-.136-4.149-2.544-4.282-2.812-.135 3.347-1.877 2.812-4.018 1.471-.538 1.074-.538 3.082-2.544 5.627-1.207 1.741-1.608 2.812-1.074 3.747.136.27.539.938 1.474 1.205.136.137.136 1.34-.268 1.878 0 .132 0 .267-.132.4 0 .135.132.267.132.403 1.07.131 3.615 1.07 5.357 1.203.534-.268 1.206-.668 1.073-.935-.671-1.34 1.743-3.483 2.944-4.822z" fill="#bb2822"/><path d="m123.007 154.433c-.803-1.337-1.342-1.07-2.545-.667-1.073.4-2.412 2.006-2.412 2.006l-2.01 4.154-.534 2.676s-.133 2.412 0 2.68c.132.403.4-.403.938 0 1.606.803 2.409 1.206 3.21.803.672-.268.672-1.474.808-2.01.535-.267 2.545.136 2.545-.535-.136-1.07.802-4.285.802-4.553.132-.132 0-3.348-.802-4.554m-4.443 11.084v-.877zm.11-.877c.438.219.657.658.657 1.096 0-.438-.219-.877-.658-1.096" fill="#f8d1a6"/><path d="m118.674 164.64c.439.219.657.657.657 1.096 0-.439-.218-.877-.657-1.096m-2.097-2.575.268.536c.268.135.403.539.67.807.132.4 0 .935 0 1.47 0 .135-.135.135-.135.135-.132.133-.267.4-.4.268-.268 0-.672 0-.804-.268-.135 0-.402-.268-.402-.403 0-.132-.536-.803.803-2.545m6.997 5.939-.028.022c.022 0 .037-.005.028-.022" fill="#1f1a17"/><path d="m124.612 158.451c0-.268-.134-.4-.134-.535-.132-.136-.269-.268-.269-.404.137-.267.137-.535 0-.667 0-.268-.131-.268-.131-.403 0-.268.132-.535 0-.804-.404-.402-.269-.534-.404-.938-.133-.131-.399-.268-.536-.534-.13-.268-.266-.536-.534-.804-.268-.135-.4-.402-.67-.535-.401-.268-.805-.403-1.339-.535-.536 0-1.206 0-1.742.132-.803.268-1.605.536-2.276 1.61-.803.934-.803 1.873-.938 2.811 0 .132-.133.268-.133.4 0 .136-.132 0-.268.267-.136.268 0 .404.136.671 0 0 0 .136-.136.136-.136.267-.136.267-.267.535 0 .268-.136.268-.136.4 0 .268.136.534 0 .67-.131.269-.399.537-.399.803 0 .267-.268.267-.136.404.136.4.136.803-.132 1.07v.133c.132.402.132.67-.136.937-.132.137 0 .268-.132.404v.132l-.266.267c.266 0 .398-.131.666-.399v-.267.666c.136.136.269.269.136.404-.136.4-.268.935.133 1.206-.269-.271-.133-.806.135-1.074 0 0 .13.268.13.403 0 .133-.265.4-.13.671 0 .268.267.4.267.667 0 .136 0 .267-.136.403v.268c0-.268.267-.535.403-.802 0-.136-.267-.404-.267-.536 0-.271.131-.404.131-.671.136.267 0 .4 0 .671 0 .132.272.268.136.536 0 .131 0 .131-.136.267.272-.136.404-.403.272-.671.132 0 .132.136.132.136.133.268.133.399.268.666 0 0 .132.136 0 .268.132-.132.132-.268 0-.535 0-.4-.135-.803.132-1.205 0 .267-.132.538 0 .67v-.268c.135-.135.27-.135.27-.535 0-.135-.402-.403-.27-.67 0 0 .135.402.27.402 0-.135-.135-.267-.135-.402.135-.133-.135-.269-.135-.804.135.535.402.671.402.939 0-.404-.267-.67-.132-1.07.132-.268 0-.539.132-.807 0-.132.269-.267.269-.4.135.133.135.268 0 .4 0 .135-.133.135-.269.268 0 .27.136.539 0 .806-.132.268.136.535.269.803-.133-.404-.269-.535-.133-1.07v-.268c0-.136-.136-.136 0-.27v.401c0-.535.133-.535.4-.535 0-.135 0-.402-.132-.802-.135-.136-.268 0 .133-.672.135-.268-.133-.535-.133-.801v-.404c.133-.132.268-.269.268-.4.133-.268-.135-.403 0-.67.133-.133.4-.668.534-.804.133-.403 0-.671.133-.938.135-.268.403-.4.54-.668.267-.135.398-.135.934-.268.268 0 .534-.402.67-.67.132 0 .268-.135.268-.135.132-.133.404-.133.536-.268.534 0 .67.135 1.07.135.136 0 .67.267.67.267.537-.134-.402-1.873-.402-2.143 0 .135.403.937.535 1.074v.267c0 .268.136.668.271.935 0 .136.268.136.399.403.137.268.137.403.268.803 0 0 .135 0 .135.136 0 .268.133.535 0 .803 0 .267 0 .535-.135.802 0 .136 0 .136-.13.268 0 .136 0 .136-.138.403 0 .4-.266 1.072-.266 1.203-.268 1.206-.133.402-.667 1.473-.672.804-.807 1.207-1.61 2.01.534.268.938.403.938.535 0 .268-.135.268-.268.536 0 .134.133.267.268.402 0 .136 0 .136.132.136-.132-.136-.267-.271-.132-.404v.133c.132.135.132.135.268.271 0 .132-.136.268 0 .4 0 0 0-.132.132-.132 0 .268.272.399.136.666-.136.136-.268.268-.268.536 0 0 .132-.268.404-.536 0 .136 0 .268-.272.536 0 .136 0 .403.136.536 0-.133 0-.268.136-.4-.136.132 0 .267 0 .4 0 .135-.136.27.13.538.133.4.269.535.269.667 0-.132-.136-.4-.136-.535-.132-.132-.132-.4-.132-.803.132 0 .268-.267.403-.267-.403.67 0 1.07 0 1.07-.135-.4 0-.803.399-.938v-.668c.268.668.137.803 0 .803a.71.71 0 0 0 -.266.939c0-.136 0-.403.135-.535 0-.27.268-.136.4-.27.134-.269-.132-.937.134-.937-.135.268 0 .803 0 .936.133 0 0 .135-.135.27h.135a.18.18 0 0 1 .034.043c.167-.134.367-.391.367-.58-.133-.133.136 0 .136-.133.132-.268 0-.404 0-.404v-.802c.132.136.132.136.132.267 0-.267.136-.535.268-.667 0-.271-.132-.538-.269-.806-.131-.268.137-.4 0-.668 0-.267-.131-.403-.131-.535-.136-.136 0-.267-.136-.535h.136l.132.268-.132-.404c-.269-.535 0-.939.132-1.337v.13c0-.266.268-.535.136-.803-.136-.267-.404-.533-.404-.67 0 0 .136 0 .136.137v-.329.06c0-.267.132-.404.132-.536 0-.134-.132-.267 0-.402 0-.132.268-.268.268-.4.134-.268-.132-.535-.269-.67.269 0 .269.135.403.267" fill="#1f1a17"/><path d="m123.406 168.093c.033 0 .083-.025.14-.067-.05.002-.14-.01-.14.067m-.802-4.821c-.268-.132-.268-.403-.268-.67 0 .267 0 .402-.131.538 0 .132-.136.268-.136.4-.136.268 0 .535 0 .938-.136-.403-.136-.803 0-1.07-.136 0-.268.131-.404.267 0 .133.268.268.136.803 0-.403-.136-.803-.403-.803-.133 0-.133 0-.269-.136.536-1.07 1.475-1.741 1.743-3.078 0 .534-.133.938-.268 1.473-.268.4 0 .935.135 1.474 0 0 0 .667-.135.667zm-3.216.671c-.536-.135-1.203-.535-1.339-.671-.268-.132-.536-.536-.67-.67-.132 0 0 .402.267.67.268.403.807 1.206 1.206 1.071.536 0 .536 0 .672-.4z" fill="#1f1a17"/><path d="m125.012 203.581c2.276-10.31-2.141-7.765-4.016-10.847-1.74-2.677-2.276-5.09-3.082-8.034-.534-1.873-.267-3.884 1.206-5.09 1.07 0 1.206-.668 1.342-.936.535-.267 1.203-.671 1.873-.671.132.136.268.268 0 .535-.13.136-.13.136-.267.136-.403.268-.67.399-.67.535-.134.267-.27.535 1.34 0 .269-.136.668-.267 1.07-.404.27 0 .67-.131.803-.267.268 0 .669 0 .94-.132.399-.267.132-.67 1.337-1.071.268-.135.268-.538.536-.805.135-.133.268-.133.403-.268.132-.268 0-.667.267-.804.132-.267.4-.267.536-.4.132-.268 0-.538.132-.806.136-.131.404-.4.404-.666.132-.94.67-1.206.802-1.61.536 2.276 1.873 4.421 1.207 7.365v.135h-.136v.404s0 .132-.133.132v.267s0 .135-.135.135v.269c-.133.133-.133.267-.267.535-.668 1.207-1.338 2.543-2.01 3.883v.135c0 .132 0 .268-.132.403 0 .133 0 .264-.136.264v.136c0 .136 0 .404-.132.535v.136c0 .132-.135.132-.135.267v.132s-.132.136-.132.268v.135c-.136.4-.136.804 0 1.34v.266c0 .268 0 .403.267.671v.671c0 1.07-.402 2.274-.402 3.48 0 0 0 .135.135.135v.536c0 .131 0 .131.132.267 0 .132.135.132.135.403v.4h.132v.135c0 .133 0 .267.136.4v.136c0 .132 0 .4.132.535v.4c0 .135 0 .268.136.534v.404c0 .268-.136.536 0 .803-.136.136-.136.268-.268.536v.134s-.136.136-.136.268l-.132.136c-.402.667-.67 1.605-1.206 2.273-.136.136-1.608.671-1.876 1.206z" fill="#1f1a17" stroke="#1f1a17" stroke-width=".014546"/><path d="m125.012 203.448c-.133 0 .403-.135.268-.135l-.133.135zm0 0v.537l-.133.132v.403c-.268 1.873 0 3.75.133 5.492v.132c-.133.67-.133 1.206-.268 1.873 0 .136-.133.136-.133.272v.131c-.134.803-.134 1.874 0 2.812 0 .535.133.939.133 1.474v.268l.135.133v.135c.133.402.268.67.4 1.07 0 0 0 .135.136.135v.268c.268 1.07-.135 2.276.136 3.483v.132c.266.402.399.803.666 1.206.269.268.403.535.67.803 0 .267.133.267.133.402 0 .133.136.133.136.268 0 .133 0 .133.132.268v.268c0 .4.404.667.54.935v.806c-.137.133-.137.133-.137.267h-.132c0 .133 0 .133-.135.268-.136.133-.268.133-.404.4h-.4c-.134 0-.266.136-.403.136h-.4v.135h-.134c-.671 0-1.474.132-2.142.268v-.672c.132-.134.268-.267.4-.402.268-.133.404-.4.67-.4.133-.403.268-.67.4-1.074.136-.267.269-.535.54-.667l.132-.135c0-.536-.132-1.07-.132-1.606-.404.802-.94 1.205-1.474 1.873h-.136v.135l-.4.4v-2.006c.4-.67.936-1.474 1.338-2.276v-.403c.133-.268.133-.403.133-.671l.135-.132c.133-.67-.135-1.338-.135-2.009v-.268h-.133c.133 0 0 .132 0 .132v.268c-.135.403-.402.67-.534.939v1.07l.132.135c-.132.133 0 .133-.132.133v.135c0 .133-.136.133-.136.268v.403h-.132v.268c-.268.399-.404.667-.536.935v-10.178c.132-.267.268-.666.4-.938-.132-.132.938-8.436 1.07-8.569m-2.14 25.312h.67v-.672h-.266l-.138.133h-.266zm0-1.742c.266-.267.404-.538.67-.806v-2.006c-.266.269-.404.668-.67.936zm0-2.947c.266-.267.404-.535.67-.938v-10.178c-.266.536-.404.939-.67 1.474v2.545l.136-.133v.133c0 .268-.136.67-.136.938zm0-9.641v2.544c-.268.268-.404.535-.667.802v-2.141c.263-.403.4-.802.667-1.205m0 3.482v6.159c-.268.268-.404.67-.667.938v-2.543c0-.136.131-.136.131-.268.672-1.342.268-2.812.536-4.154zm0 7.23v1.876c-.268.268-.404.535-.667.803v-1.742c.263-.402.4-.67.667-.937m0 3.079v.539c-.268 0-.404.132-.667.132v-.535h.534zm-2.68.671h2.013v-.535.135h-.136c-.135 0-.268.132-.403.268h-.133l-.135-.136c.268-.267.536-.536.807-.803v-1.742s0 .133-.136.133c-.671.539-1.072 1.341-1.878 2.009zm0-1.071c.27-.535.671-1.206 1.073-1.742.4-.402.669-.802.94-1.07v-2.543c-.136.13-.136.266-.271.399-.133.268-.268.268-.268.535-.268.404-.4.94-.803 1.341v.133l-.132.135c-.268.268-.268.668-.54.936zm0-4.956v-.668c.135-.267.27-.535.539-.67v.135c-.135.268-.404.668-.54.935zm0-2.944c.135-.268.27-.403.404-.671.135-.132.401-.268.534-.403v-.132h.135c0-.136 0-.136.133-.136l.672-.667c0-.136.135 0 .135-.136v-2.141a8.767 8.767 0 0 1 -2.014 2.41zm0-1.877v1.877c-.268.4-.4.668-.667 1.07v-2.412c.13-.132.399-.399.535-.535zm0 4.154v.667c-.268.535-.536 1.07-.667 1.474v.136-1.075c.13-.267.266-.535.399-.668.136-.135.136-.402.267-.534m0 3.747v1.876c0 .133-.131.267-.131.4v.136h-.136c.136 0 .136-.136.267-.136v.671h-.666v-2.141c.13-.136.266-.271.399-.403.136-.136.267-.269.267-.403m-2.14 3.08c.404 0 .938-.133 1.338-.133h.136v-2.141c-.404.267-.804.535-1.07 1.07-.268 0-.268.133-.404.267zm0-2.274a13.59 13.59 0 0 0 1.474-2.276v-1.075c-.404.806-.94 1.61-1.474 2.412zm0-2.816c0-.131.136-.267.268-.4v-.535c.267-.403.535-.802.802-1.205.136-.268.268-.536.404-.804v-2.412c-.268.403-.536.67-.804.939a6.52 6.52 0 0 0 -.67 1.338zm0-5.356v-.535c.136-.4.404-.668.67-.937.133-.133.268-.266.268-.4.132 0 .132-.134.132-.134h.136v.133c-.136.268-.403.4-.671.938-.131.267-.4.536-.535.935m0-.535v.535c-.403.67-.67 1.342-1.07 2.145-.136.4 0 .803 0 1.07h-.136v.672h.268c.402-.536.67-1.074.938-1.61v3.08c-.536.805-1.206 1.341-1.606 2.143v-1.205c.132-.268.268-.535.4-.668h-.132c0-.135-.136-.135-.136-.27 0-.132-.132 0-.132-.132v-2.68c0-.133.132-.268.132-.4v-.135c.536-.936.938-1.742 1.474-2.545m0 7.768c-.536.668-.802 1.339-1.606 1.741v1.472h1.606v-.937s-.135 0-.135.133h-.268c-.133 0-.4-.133-.535-.267v-.133c.136-.402.535-.802.938-1.07zm-2.677 3.348c.4 0 .803-.135 1.07-.135v-1.472h-.135c0-.134-.132 0-.132-.134 0 0-.136 0-.136-.133v-.403c.136-.268.268-.535.404-.804v-1.205c-.268.536-.67 1.07-.806 1.606 0 .135 0 .271-.132.403v.268c-.133 0 0 .135-.133.135zm0-4.418c0-.136 0-.136.133-.136.132-.4.4-.535.535-.938.135 0 .135-.268.267-.268 0 .136 0 .268.136.404v-2.68c0 .135-.136.268-.136.403-.132.135-.267.403-.402.67-.133.4-.4.668-.533.936zm0-10.58v-.939s.133 0 .133-.131v-.269c.132 0 .132-.135.132-.135.136.135.136.135.136.268-.136 0 0 .136-.136.136v.267c-.132.132 0 .132-.132.267 0 .268-.133.4-.133.535zm0-1.607v-.937c.133-.268.133-.536.265-.67v-.134c.136-.135.136-.135.136-.266v-.269c.132-.267.132-.404.267-.535v-.403h.135v-.403h.268c0 .135-.136.135 0 .267-.136 0-.136.136-.136.268v.271h-.132v.535h-.135v.535c-.135.268-.135.4-.135.4 0 .136-.132.136-.132.268v.268c-.136.135-.268.403-.268.539v.131c-.133 0-.133.135-.133.135m0-.937v1.07l-.135.135v.133c0 .136-.136.267-.136.403v.267l.136-.135c0-.132.135-.132.135-.268v.938c-.27.536-.538 1.206-.67 1.874v.136c-.135 0-.135.132-.135.132-.132.136-.132.27-.132.403-.136.135-.136.268-.136.4v-2.409c0-.132.136-.267.136-.403v-.133c.268-.535.399-.802.534-1.205v-.268c.132-.4.268-.803.403-1.07m0 11.515v1.609c-.27.268-.403.535-.538.668-.267.267-.4.402-.535.67v-1.339c.404-.535.802-1.073 1.073-1.608m0 4.42v1.607h-1.073v-.668c0-.135.136-.135.136-.135h.399c.267-.269.403-.536.539-.804m-1.074-8.706s.136-.132.136-.268l.133.136v.132l-.133.135c0 .136-.136.404-.136.536zm0 10.313v-.668c-.132 0-.132 0-.268.132h-.132c-.267 0-.535.136-.803 0h-.135c-.136 0-.269 0-.404-.132l-.13.132c-.136 0-.269 0-.404.136h-.269c.404-.806 1.071-1.207 1.61-1.741v-.136h.133l.802-.804v-1.338c-.4.4-.802.804-1.338 1.204v.134c-.67.536-1.474 1.207-2.413 1.742v-.135c.136-.133 0-.133.136-.267v-.133c.133-.403.268-.67.404-.938v-.136c.132-.133.132-.4.266-.667v-.135c.133-.133.133-.268.269-.536 0 0 .131-.132 0-.132.268-.403.4-.807.535-1.206.399-.94.938-1.606 1.474-2.412v-.133c0-.135 0-.135.13-.267.27-.404.405-.803.537-1.206v-.67c-.132.27-.132.538-.268.67-.667 1.206-1.339 2.277-2.14 3.079-.137.135-.268.268-.537.403.537-1.473 1.471-2.947 2.143-4.285.135-.268.266-.535.534-.939v-.132c.136 0 .136-.268.268-.402v-2.545s0 .136-.132.136v.267s0 .132-.136.132v.267s0 .136-.132.268v.136s0 .132-.136.267v.133h-.13v.403c-.136.4-.404.803-.537 1.205h-.135v.133c-.136.136-.268.403-.404.671-.666 1.205-1.469 2.14-2.14 3.483 0 0 0 .132-.133.268-.271.667-.538 1.47-.938 2.276-.268.267-.404.668-.67.935v.135c-.133 0-.268.133-.404.267h-.268l-.132-.134s.132-.133.132-.268v-.267c.136-.536.136-1.07.136-1.606s.132-.94.268-1.338v-.136c0-.268 0-.4.135-.535v-.268c.133-.268 0-.671.133-.938 0 0 0-.133.134-.133v-.67c.132 0 0-.133.132-.133v-.267h.136v-.136c0-.132 0-.132.132-.403 0-.268.136-.4.268-.667v-.268c0-.268.136-.403.268-.67v-.135c.267-.669.67-1.472 1.07-2.274v-.268c.136-.404.272-.807.538-1.206v-.136c0-.131-.134-.131 0-.268v-.267c.133-.133 0-.133.133-.268v-.131s0-.136.136-.136v-.535c.131 0 0 0 .131-.136v-.4c.137 0 0-.135.137-.135v-4.418s-.404-.267-.537-.267c.4.398.269.398.269.398.131 1.475 0 2.949-.269 4.422 0 .132-.134.268-.134.268v.4h-.132v.403c-.136 0 0 .136-.136.136v.131c0 .135-.135.268-.135.403v.269h-.133c0 .267-.136.534-.268.934-.132.268-.403.539-.403.938-.131.268-.267.403-.267.67v.133c-.268.536-.668 1.207-.804 1.877v.132h-.132v.268c0 .136-.134.136 0 .268-.134 0-.134 0-.134.135 0 .132-.133.268-.133.268v.132c0 .135-.135.135 0 .135-.135.136-.135.268-.135.268v.136c-.136.132-.136.4-.136.535h-.132v.803h-.136v.535c0 .133-.132.268-.132.268v.535c-.136.268-.136.404-.136.535 0 .135 0 .135-.132.268.132.268 0 .67 0 .939-.134.131 0 .131-.134.131v.94l-.133.134v.536l-.135.132v.268c0 .134-.132.134 0 .134h-.132v.4c-.136 0-.136.136-.136.136v.136s0 .132-.132.267v.4h-.136v.268h-.131c0 .535 0 .806.131 1.206v.133h.136c0 .135.132.135.132.135s.136.135.136 0v-.4c.132-.136.267-.136.267-.268h.133v.132c.134 0 .266-.132.266-.132h.136c.268-.271.4-.671.671-.939.133-.134.4-.402.535-.67.4-.535.668-1.071.935-1.473.135-.133.135-.268.135-.268h.136c-.136 0 0 .135-.136.135v.535c-.135.267-.266.536-.402.803-.132.268-.132.536-.268.671v.133c-.268.802-.668 1.205-1.339 1.606 0 .135-.135.135-.135.135zm3.346-12.186v-.133c.403-.67.672-1.342 1.074-2.009 1.07-2.412 2.544-4.553 3.348-7.097 0-.136 0-.268.136-.404v-.132c.13-.136.13-.27.13-.402v-.137c.133-.131 0-.131.133-.267v-.267c.136-.133.136-.268.27-.4v-.67h.134v-.536h.135v-.404c0-.131 0-.4.13-.668.138-1.205.27-2.275.404-3.346v-.136c.133-.802.133-1.606.4-2.411v-.536s.137 0 0-.132v-.135h.137v-.4c0-.136.131-.27.131-.403h.137c0 .134-.137.403-.137.67v.133c-.131 0 0 .135-.131.267-.136.938-.269 1.741-.269 2.545v1.073h.133c.136-.136.136-.267.267-.535v-.136c0-.268.269-.402.269-.535v-.135l.134-.132v-.672l.132-.132c0-.267 0-.403.136-.67v.67c-.136.268 0 .4-.136.668 0 .136-.132.268-.132.403v.133s-.134.134 0 .134v.268h-.134v.535s0 .136-.132.136v.132h-.137v.404c-.131.268 0 .534-.131.803 0 .134-.136.134-.136.267v.267c0 .404-.133.803-.133 1.207.133-.136.133-.269.269-.404 0-.267.131-.4.268-.67v-.133h.132v-.4c0-.134 0-.27.134-.403 0 0 0-.135.132-.135h.136v.135c-.136.133-.136.133-.136.269v.134h-.132v.4c0 .133-.134.268-.134.404v.534l-.132.133v.136c-.137.132-.137.132-.137.268 0 .131 0 .267-.131.4 0 0 0 .135-.136.135v.131c-.667 1.61-1.474 3.084-2.276 4.69v.132h.135c.268-.268.667-.536.938-.803.399-.535.536-1.339.802-2.01v-.131l.133-.136v.267c-.133.403-.133.671-.133.94v.4c-.135.134-.135.4-.266.4v.137c0 .132 0 .268-.137.4v.267c-.13.267-.266.539-.399.807v.131c-.534 1.474-1.474 2.948-2.009 4.422l-.135.132c-.132.135-.268.403-.404.67h-.132c.132-.267.268-.67.403-.938.133-.268.268-.804.535-1.07.132-.404.268-.671.4-1.07v-.137c.136-.268.269-.535.404-.938 0-.132 0-.267.132-.4 0-.267.136-.535 0-.67l-.132-.132c0 .131-.135 0-.135 0-.133.131-.133.267-.268.399v.136c-.803 1.873-2.009 3.614-2.944 5.356-.268.267-.54.535-.672.938 0 0 0 .133-.135.133" fill="#1f1a17"/><path d="m113.097 223.935c-.135 0 0-.131 0-.267v-.268c.4-1.202 1.339-2.276 1.874-3.614.403-.4.668-1.07.935-1.606.135-.268.27-.804.538-1.206v-.535c.133 0 0-.136.133-.136v-.268s0-.132.135-.268c0-.268 0-.4.268-.667v-.135c0-.132 0-.132.133-.268v-.403c0-.133 0-.133.135-.268v-.667l.132-.136c.134-.668 0-1.473.134-2.141v-.268c.133-.136 0-.136.133-.267v-.136c.135-.267.135-.399.268-.536v-.266s0-.136.135-.268v-.268s.137 0 0-.136c-.268.536-.536.938-.802 1.474v.136s0 .131-.135.131v.536l-.133.136v.535h-.135v.268c0 .136-.133.267-.133.402v.4l-.135.137v.4c-.133.266 0 .402 0 .67h-.133c-.136-.136-.136-.268-.136-.404v-.267c0-.132.136-.268.136-.4v-.536l.133-.135v-.535c.135 0 0-.135.135-.267v-.536l.133-.135v-.269l.135-.13v-.269c0-.267 0-.404.133-.67 0-.268 0-.404.135-.672v-.399l.132-.136v-.132l.134-.135v-.535c.133-.536.133-1.338.268-2.01 0-.132 0-.132.133-.267 0-.267.135-.403.135-.671v-.132c.137-.135.137-.135.137-.268h-.137c-.268.536-.536 1.206-.802 1.606a6.508 6.508 0 0 1 -.403.94c0 .13 0 .266-.133.401v.4s-.135.136-.135 0v-.938l.135-.132c-.135 0 0 0 0-.136v-.131c.268-.671.668-1.206.935-1.877v-.133c.268-1.07.135-2.141 0-3.215-.133-.132 0-.267-.133-.4-.266.536-.534.935-.802 1.474-.268.803-.671 1.606-.938 2.41 0 .13 0 .13-.135.267v.402h-.133v.535h-.132v-.402s0-.133.132-.133v-.402l.133-.136v-.4c.135-.136.135-.403.267-.535v-.136c.135-.535.402-.938.538-1.338.133-.132.133-.132.133-.267.135-.269.135-.404.268-.535v-.136l.135-.268v-.267h-.135c0 .135-.133.135-.133.267-.404.67-.806 1.474-1.206 2.276 0 .135 0 .268-.132.404v.132c0 .136 0 .136-.136.136v.132c0 .135-.136.268-.136.403v.132l-.131.136v.268l-.136.134c0 .133 0 .133-.131.268v.804c0 .131-.135.131 0 .267h-.135c0 .4 0 .803-.133 1.07v.67c-.136 0-.136 0-.136.133 0 .136-.132.268-.132.404-.136.267-.268.535-.404.803h-.13v-.136c.13-.268.266-.536.398-.935h.136v-.537c.132 0 .132-.134.132-.266v-.135l.136-.133v-1.074c.133-.4.133-.935.268-1.473v-.268h.13v-.536s.137-.13.137-.267v-.132h.131v-.136c0-.133 0-.268.136-.535.136-.535.536-1.206.803-1.74v-.269c0-.132.135-.267.135-.4 0-.135.132-.267.132-.402v-.133h.136v-.67c.133-.268.133-.404.268-.671v-.536c.133-.132.133-.268.133-.403v-.267l.135-.133v-.403l.133-.132v-.403c.135 0 0-.132.135-.268 0-.133 0-.4.132-.535 0-.132 0-.268.134-.4v-.539c.268-1.206.4-2.408.268-3.615.133 0 .133.136.133.136.135.668.135 1.338.135 2.009.269-.938.269-1.877.137-2.812h.132c0 .4.135.935 0 1.47h.135c-.135 1.742-.267 3.352 0 4.957v.132c0 .136 0 .136.131.269v.534l.136.135v.268c0 .135.132.268.132.268v.535l.135.136v.4c.133.402.269.806.269 1.341v.132c0 .136 0 .268.132.404v.4h.136c.13-1.34-.136-2.813-.268-4.15v-.672c.132 0 0 .136.132.136v.267c0 .133 0 .4.136.535v.268c0 .135 0 .135.13.268v.535c.136.269.136.67.136 1.074l.132.133c.136.938 0 1.876.136 2.679v.268l.132.131v.268c.136.536 0 1.07 0 1.742h-.132v.402h-.136c0 .268 0 .401-.132.537v.267s0 .132-.136.4c-.13.27-.13.538-.266.938h-.132v.134c0 .134 0 .269-.136.401v.404h-.133v.4c-.135 0-.135.135-.135.267v.136c0 .135-.132.135-.132.266v.137c-.136.132-.136.267-.136.536 0 0-.13.13 0 .13-.13.136 0 .136-.13.269v.267h-.136v.803c-.132 0 0 .136-.132.272 0 .266 0 .399-.137.667v.403l-.135.132v.267c0 .136-.133.268-.133.536v.403l-.135.136v.4h-.133v.534s0 .136-.134.268v.136c-.535 1.605-1.474 3.079-2.278 4.418-.131.267-.398.402-.533.803-.401.538-.936 1.205-1.34 2.008v.404s0 .131-.132.131m3.747-35.488c.404-1.07.938-2.409.938-3.883-.135 0-.268-.131-.268-.131v-.269c-.134 0-.134-.135-.266-.135 0 0 .132 0 0-.133h-.136v.537c0 .131.136.802 0 .802 0-.134-.133-1.339-.268-1.339v-.135h-.132v-.267c-.136 0-.268-.403-.404-.403v-.132h-.268c0-.133-.267-.267-.267-.403-.135 0-.267-.268-.535-.268 0-.132-.136-.132-.268-.132v.268c.132 0 .268 0 .268.132.135 0 .268.403.268.403-.133-.267.132.267.267.267l.267.4v.27h-.134l-.268-.27c0-.132-.132-.132-.132-.267.132.135-.133 0-.133-.133l-.135-.135h-.136v.268a88.634 88.634 0 0 0 .271.268c.133.27.265.402.4.537h.133c0 .133.134.133.134.269 0 0 .136 0 .136.131 0 .136.268.404.268.537.132 0 0 .266.132.266.136.136.268.94.136 1.075v-.136h-.136s0-.403-.132-.403v-.132l-.136-.404s-.268-.266-.268-.4l-.267-.267h-.4c0 .132-.135.4 0 .4 0 .135.133.538.133.538 0 .133.132.804.267.804 0 .132-.135.802 0 .935v.267c.133 0 0 .672 0 .672v.131h-.135s.135 0 0 0v.136c0-.136 0 0 0 0l-.132-1.607s-.133-.938-.268-.938c0-.267-.136-.267-.136-.535h-.132c0-.136-.267-.67-.267-.67.267.402-.135-.4-.267-.4-.136 0-.268-.672-.537-.672-.136-.134 0-.134-.402-.134v.134h-.132v.135s.268.133.268.268c0 0 .13.4.13.133-.13 0-.13-.133-.266-.133.136 0 0-.135 0-.135-.132 0-.132 0-.132-.133-.136-.135-.404-.537-.672-.537v-.133c0 .133-.136.67 0 .803.536.939.94 1.874.94 2.947 0 .668-.136-1.337-1.61-2.812-.668-.537-.934-1.608-.802-1.608v-.132h-.672l-.265.132c-.135.136.133 1.07.133 1.07 0 .135.132.403.132.403 0 .403.268.803.404 1.072v.134h.136c.132.668 2.81 2.409 2.544 4.286 0-1.205-2.68-3.483-2.68-3.483-.404-.267-.669-.4-1.07-.4v.4s0 .137.13.268v.268h.136v.135c.135.133.135.668.135.935.133 0 0 .404 0 .536h.133c0 .136-.133.67 0 .938.132.268 0 .938 0 1.07 0-.132 0-.266.132-.266v-.269h-.132v-.132h-.133c-.135-.267-.135-1.205-.135-1.341 0-.132-.267-.803-.402-.803v-.4c-.133-.268 0-1.206 0-1.474 0-.136-.133-.535 0-.67v-.133c0-.136 0-.136.135-.136 0-.267-.135-.937 0-1.07.131-.135.131-.535.131-.802v-.404c0-.132.136-.132.404-.132 0-.135.132-.268.132-.268v-.135c.136 0 .136-.268.136-.268v-.268h.132c1.074.133 3.215.268 5.223.268h1.874c-.267 1.606-.132 3.08.404 4.553v.404h-.132c-1.074 1.738.132 2.944-1.474 5.756.132-.804.132-1.606.132-2.41-1.07 1.071-1.47 3.348-1.47 4.686-.54-.535-.404-2.812 1.47-6.027m-2.676-17.941v.267h-.136v.4l-.133.135v.133h.133c.136 0 .268 0 .268-.268h.136v-.133h.132l-.268.669c0 .134-.132.134-.132.267 0 .135-.136.67-.136.938h.136c-.136 0 0 0 0 0 0 .136.132.403.132.403.136.132.268.4.268.535h.135c0 .133 0 .133.131.133 0 0 0 .135.136.135 0 .132.132.132.132.268h.136l.135.132s.133.136.265.136h.135v.134l.267.133.136.135c.4 0 1.204.133 1.606 0v-.135s.132 0 .132-.133h.404-.132v.133c-.136 0-.136.135-.272.135h-.132v.133h-.135c-.267.134-.935 0-1.203 0 0 .134-.404.134-.538.134 0-.134-.268-.134-.268-.134-.132-.133-.4 0-.536 0v-.133h-.132c0-.268-.67-.135-.938-.135v.135c-.133 0 0 .133-.133.133v.134h.269l.132.133v.268s.136.136.136.268h.132v.136l.135.267s.131.268.267.268v.132c.132 0 .132.135.268.135-.136-.135-.136 0 0 .133-.136-.268-.136-.133.135 0v.135c.133 0 .265.403.265.403.135 0 .135 0 .135.132h.803c0 .135 0 .268-.132.268v.135c0-.135 0 0 .132 0 1.07.4 3.079-1.341 3.214-1.341 0 .135-.401 1.206-.401 1.206l.937-.803c-.136 1.07.537.938.537 1.338-.268.136-.537.267-.672.535-.132.136-.4.403-.935.536-.268 0-.536-.133-.802-.133-1.742-.267-2.816-.802-4.286-1.07-.136-.135-.803-.135-.803-.135 0-.133.534-.268.534-.268.133-.133.133-.268.133-.535.136 0 .268 0 .404-.133v-1.34c-.136-.133 0-.133-.136-.27-1.607-.534-1.873-1.873-1.338-3.21.135-.54.937-1.878 1.206-2.01m5.22-.67.136.13v.404h.266v-.403c.268-.4 0-.935 0-1.337v-.133h.132v-.268c.136 0 .136-.135.136-.267h-.136v-.136c0-.135-.132-.403-.132-.403h.132v-.268h-.132v-.268h-.136v-.268h-.266v.536c0-.132.136-.132.136-.132v.535h-.136v.67s0 .133.136.133v.269c.13 0 .13.266.13.266.136.136-.13.403 0 .535v.269-.269c0-.132-.13-.266-.13-.266-.136-.269 0-.668-.136-.936zm0-.136v-1.471 1.606zm0-1.606v-.132zm0-.939v-.536zm1.474.268h-.133v-.132l.133-.136h.134l-.134-.268-.133-.535h-.135v.136h-.132v.399h-.136v.136s-.136-.267 0-.267v-.535h.136c0-.136.267-.136.267-.268 0-.136.133-.136.133-.268h.134l.132.132h.136v.136l-.136.132s-.132 0-.132.136h.132v.131l-.132.136v.935zm-1.474-.804v.536s0-.268-.132-.132h-.136s-.133.132.136 0h.132-.268v.4c0 .135 0 .671.136.671h.132v1.606-.133c-.132 0-.132-.136-.132-.136v-.266c-.136 0-.136 0-.136-.133v-.267l-.133-.135h-.135v-.133s-.132-.136-.132-.268l-.136-.135h-.13l-.136.135h-.133v-.938c-.136-.136-.136-.268-.136-.404-.135 0-.135-.131-.135-.131l-.133-.137v-.13c.133 0 .133.13.268.13h.269v.137h.135v.535h.131v.267h.268v-.135c.135-.132.135-.4 0-.4v-.136h-.132v-.131h.536v-.137zm0 1.343v.132zm-1.607-.939v-.404zm0-.403v-.132h-.135v-.136h-.133v-.131l-.134-.136h-.267l-.133.136v.131-.131.131h.268v.136h.132s0 .132 0 0v.132h.134v.535c-.134 0 0 .536-.134.536v.135h-.132v.268h.132v-.132h.134v-.136s.133 0 0 0h.133v-.803h.135z" fill="#1f1a17"/><path d="m123.137 153.496c-.67-.668-1.337-1.07-2.407-1.339v-.132h-.136c-.671-.267-1.474-.135-2.14 0h-.136c-.132 0-.132.132-.268.132-.268.136-.802.268-1.07.536l-.804.803v.27h-.136c-.134 0-.134.133-.134.133-.133.268-.268.534-.4.802v.136c-.133.267-.133.535-.268.802v.133l-.136.135v.403c-.132.268-.132.536-.132.804l-.136.132c0 .67-.13 1.206-.266 1.741v.67c-.133.132-.133.268-.133.4-.403 1.206-.938 1.877-1.878 2.413-.266.132-.534.267-.666.4-.136 0-.136.135-.136 0-.132.135-.132.27-.268.27h-.132c-.134.132-.267.268-.402.4-.268.268-.536.535-.805.939-.401.4-.67 1.07-.802 1.473v.133a1.024 1.024 0 0 0 -.268.67l-.135.132v.268c0 .403-.133.939-.133 1.341l-.134.133v.802h-.132v.404c-.136.132-.136.4-.136.535v.268c-.135.403-.135.938-.268 1.474v.535h-.135v1.07l-.133.136v.132c-.136.267-.267.535-.267.806v.267c-.135.133-.135.268-.267.268.132.132 0 .132 0 .132 0 .137-.136.268-.136.404v.132a5.158 5.158 0 0 0 -1.07 3.215v.267c-.132.133 0 .133-.132.133v.135c0 .136-.136.268-.136.403v.267c-.133.804.268 1.607 0 2.413v.264h-.133v.403c-.135.804-.135 1.607-.135 2.545h.135v.535l.133.136v.667l.136.135v.268h.132v.4c.135.136.135.268.135.268 0 .135.133.268.133.403v.403c.266.535.67 1.206.938 1.606.398.67.935 1.206 1.338 2.009v.267c-.804 1.606-1.338 7.901-1.338 9.24l.132.135v.403l.135.132v.267c.4.803 1.071 1.207 1.874 1.742.135 0 .135.135.135.135.133.132 1.339 1.072 2.14 1.339v-5.492c-.267-8.168-2.408-15.936-1.205-19.686.268-.937 1.878-1.607 1.878-1.742.399-.667.534-1.47 2.008-2.274 0-.403 0-1.073-.135-1.609-3.615-1.338.268-5.891.268-5.891 1.338-1.874 1.472-3.216 2.008-4.821.135-.403-.67 0-.67-.67-.533-2.677 0-5.892 2.679-8.972 1.338-2.277 5.492-.802 5.624.668v-.936c-.4-.534-.668-1.07-1.072-1.608z" fill="#1f1a17" stroke="#1f1a17" stroke-width=".014546"/><path d="m114.3 175.862c-.016.02-.034.037-.05.055.027.008.05 0 .05-.055" fill="#0095d5"/><path d="m124.209 155.237a3.171 3.171 0 0 0 -.935-.936c-.267-.267-.671-.535-1.07-.805l-.271-.133v-.135c.271 0 .534.268.805.268 0 0 .133.135.133.27h.403c-.536-.67-1.341-1.207-2.278-1.474 0 0-.402-.135-.534-.135-.404 0-.938-.132-1.342 0h-.536c-1.74.67-2.544 2.01-3.079 3.482 0 .133-.132.401-.132.536-.135.268 0 .403-.135.536v.535c-.137 1.074.135 2.144-.137 3.216v.399c0 .27-.131.402-.131.67-.402.535-.803 1.206-1.337 1.61h-.136c.402-.271.802-.807.938-1.207 0-.136.535-1.073.399-1.206-.131.133-.266.403-.399.535a3.107 3.107 0 0 1 -.938.94c-.133 0-.268.131-.4.131-.136.136-.136.136-.272.136-.268.132-.534.4-.666.535-.268 0-.805.403-.805.535-.537.404-.806.939-1.206 1.474-.135.267-.266.535-.402.67 0 .133-.132.268-.132.4-.136 0-.268.535-.268.671-.135.132 0 .268-.135.4 0 .536-.133.939-.133 1.341-.135.268-.135.536-.135.668 0 .135-.133.403-.133.535 0 .267 0 .671-.134.807 0 .399-.133 1.07-.133 1.47 0 .136 0 .268-.135.268v.403c-.136.534-.136.938-.268 1.474 0 .131-.136.535-.136.67.268-.135.404-.403.672-.67.267-.535.67-1.207.802-1.741 0-.136.268-.671.268-.269v.404l-.268.4c-.267.534-.668 1.206-.935 1.74h.133c.67-.67 1.206-1.337 2.009-1.876h.132v.135c-.533.404-.935.803-1.471 1.338 0 0 0 .136-.135.136-.4.938-1.207 1.474-1.607 2.544h-.134v-.135c.266-.4.402-.803.67-1.202l-.136-.137c-.132 0-.268.137-.268.137-.266.4-.534.802-.666 1.337-.136.133-.136.133-.268.268v.403c-.267.268-.136.4-.267.536 0 .132.131.132.131.267v.268c.404-.535.804-.803 1.206-1.34h.132c.404-.67.939-1.204 1.207-2.143 0 0 .135 0 .135.135l-.135.132c-.535 1.474-1.339 2.545-2.277 3.615-.132.268-.667.807-.667 1.074v.669c.133 0 .133.266.268.266.4-.266.667-.935.935-1.202.402-.671.938-1.342 1.34-2.145l.133.136c0 .132-.133.132-.133.132a54.157 54.157 0 0 0 -2.275 3.75c0 .268-.135.404-.135.535-.133.268-.133.404-.268.539v.533c-.133.67-.268 1.34-.133 2.144v-.403c0-.268.268-.536.268-.803v-.268c.535-1.203 1.07-2.545 1.873-3.482.132-.269.268-.536.403-.668.133-.271.4-.539.4-.939.135 0 .135.132.135.132s-.135.136-.135.268c-.267.806-.803 1.609-1.07 2.412h-.137v.136c0 .132-.398.938-.398 1.07-.136.268-.136.668-.136.938.136-.136.136-.27.136-.403.132-.403.266-.667.534-1.07h.132c0 .403-.268.803-.268 1.07-.132.133-.132.267-.132.403 0 .133 0 .268-.134.4-.132.939-.132 1.742-.132 2.68.132 0 0 .132.132.132v.535c0 .136.266.404.266.536.136.268.268.536.268.803.404.403.672.939 1.207 1.074.135-2.009.267-3.882.135-5.892 0-.268 0-1.074.132-1.338v-1.476c.136-.133.136-.401.136-.535 0 0 .132-.134 0-.134.132-.134.132-.268.132-.268.136-.402.267-.805.402-1.205.136-.136.269-.268.269-.404.268-.267.4-.534.535-.666-.135.399-.804 1.337-.804 1.873 0 .135-.266.402-.135.67-.13 0-.13.134-.13.268-.137.132 0 .4-.137.535.136.136.136-.134.267-.134 0-.133.135-.669.404-.803l.131.135c0 .133-.131.267-.131.535-.133.133 0 .267-.133.403v.132c-.136 0 0 .403.133.403.268 0 .4-1.206.671-1.34.535-.67 1.469-.804 1.605-1.607 0-.535.804-1.07 1.206-1.206.132-.132.132-.268.132-.268 0-.267 0-.535-.398-.535-.672.268-1.076.803-1.61 1.338v-.132c.394-1.181 1.429-1.594 2.227-2.49-.037-.01-.083-.054-.083-.054-.803.4-1.206.803-1.74 1.473 0 .133-.136.268-.268.4-.268.536-.672 1.207-.939 1.741h-.132v-.403c.399-1.07 1.07-1.873 1.605-2.543-.136 0-.266 0-.266.135-.136 0-.268.132-.404.132-.536.403-.935.67-1.338 1.074h-.137c0-.403.404-.536.54-.806.132 0 .399-.268.535-.4.536-.268.934-.535 1.338-.803 0 0-.67.132-.802.132-.136.136-.268.136-.268.136-.537.267-.803.535-1.206.802-.137.133-.268.268-.537.403 0 .133-.135.268-.266.133 0 .135-.136.135-.136.135-.132 0-.132-.135-.132-.135.67-.938 1.74-1.338 2.677-2.01.266-.132.266-.267.266-.535-.13-.267-.266-.267-.534-.267-.935.535-1.475 1.338-2.41 2.009h-.135c.404-.535.67-.94 1.207-1.34.535-.67 2.276-1.74 2.276-2.678-.802.67-1.873 1.206-2.413 2.009h-.131v-.136c.535-.803 2.276-1.47 2.276-2.676.132-.268.132-.939.132-1.207-.132-.13-.132-.13-.132-.267 0-.268-.402-.803-.67-1.07v-.136c-.132-.132-.268-.268-.4-.535.131-.4.804.67.804.67.13.268.266.4.398.536.136 0 0-.136.136-.136-.136-.132-.136-.132-.136-.268 0-.132-.132-.267-.132-.535-.136 0-.136-.132-.136-.132l.136-.135c.132.135.268.535.268.802.135 0 .135.136.135.268h.133c.135-.268.268-.535.404-.803 0-.267.398-.535.398-.802.136-.536.404-.939.672-1.207.267 0 0 .268 0 .268-.135.268-.404.67-.404.939-.132.134-.132.267-.132.267 0 .135-.268.67-.268.67 0 .4-.136.536 0 .804.133 0 .133 0 .133-.136 0-.803 1.206-1.605 1.206-2.544.135-.132.135-.4.267-.4.133 0 0 .132 0 .268-.132.132-.132.268-.132.4 0 .135-.135.403-.135.538-.404.535-.535 1.203-.803 1.738 0 0-.136.136-.136.267.939-.802 1.339-1.872 1.607-3.08 0-.534 0-1.07-.133-1.605v-.267c0-.135-.135-.268-.135-.535 0-.268-.265-.535-.265-.803-.135-.136-.135-.404-.272-.536v-.27l.137-.133c0 .133 0 .268.135.268 0 .267.132.535.132.67.133.133.133.269.133.4.135.269.135.404.135.536 0 .135.267.268.267.536 0 .134 0 .134.135.134v-.938c-.135-.268-.135-.667-.135-.803 0 0-.134-.132 0-.132-.134-.268-.134-.538-.134-.806-.133-.935 0-1.874.134-2.813.135-.132.135-.267.268-.4v-.266c.536-1.071.94-2.412 1.741-3.216.405-.402 1.741-2.009 2.413-1.606h1.606c.136.132.267.132.4.132.27.136.403.268.669.403.404.133.672.268.804.536.136.133.268.4.268.535.136-.268 0-.535 0-.67" fill="#63aadd"/><path d="m111.089 180.816c-.136.134-.136.134-.136.266.136-.132.136-.132.136-.266m-2.146 11.785c-.4-.67-.938-1.338-1.338-2.009l.131-.132c-.131 0-.131 0-.266-.135 0-.136-.536-.939-.4-1.341-.136-.133-.136-.133-.136-.268-.132-.133-.132-.268-.132-.4 0-.135-.266-.268-.266-.536v-.535c-.136-.136-.136-.802-.136-.938v-.268h.136c.13 0 .398.268.398.404 0 .267 0 .666.136 1.07v.131c0 .404.268.804.4 1.34.403.67.938 1.205 1.34 1.876l.133.403c0 .132 0 .268.135.268v.268s0 .267-.135.267l.135.132c-.135.136 0 .269-.135.403m1.742 2.01c-.136-.269-.536-.536-.536-.805 0-.271 0-.67-.136-.938v-.803c0-.939-.13-1.876-.13-2.947a3.221 3.221 0 0 1 0-1.606v.132c0 .136.13.268.13.404 0 .132 0 .132.136.268v.131c.268 2.145.4 4.019.536 6.163" fill="#0095d5"/><path d="m109.882 203.717c-.268-.269-.536-.67-1.072-.938-.134-.268-.805-.403-.937-.268-.137-1.07 0-2.14 0-3.214.132-.4.132-.804.132-1.204.135-.136.135-.403.268-.67.135-.268 0-.67.135-.94v-.267c0-.133.136-.667.136-.803 0-.131.132-.403.132-.535.134-.267.134-.535.134-.671v-.132c.133-.268.133-.54.133-.803 0-.135.135-.267.135-.267.133 0 .133-.136.133-.136.135.667 0 1.474.135 2.14l.133.137v-.136c.268-1.606 0-3.347 0-5.088.135-.132.135-.268.135-.4v.132h.133v2.68c0 .535 0 1.07.135 1.473-.135 0 0 .269 0 .269 0 .399.267.666.267 1.07 0 0 0 .136.135.136 0 .267.133.534.133.667 0 .134.132.535.132.804v.402c.136 1.606 0 3.215 0 4.82 0 0 0-.135-.132-.268 0-.266-.133-.402-.133-.67 0 0-.135-.267-.135-.4 0-.135 0-.535-.136-.67 0-1.474-.13-2.948-.13-4.418-.136 0-.269-.136-.269 0 .133 1.338.133 2.408.133 3.748h.135c-.135.67 0 1.34.131 1.876.136.132 0 .535.136.667 0 .536.268 1.074.268 1.609 0-.136-.268-.267-.268-.403 0-.132-.136-.403-.136-.535 0-.268-.13-.535-.13-.67-.136 0-.136-.269-.136-.4 0-.268-.268-.671-.268-.94v-.399h-.133c-.135 0-.135.133-.135.268.135.267.135.803.268 1.202v.136c.135.268 0 .535.135.803 0 .132 0 .268.133.403 0 .132.135.4.135.667zm17.81-2.947c.135-.133 0-.535.135-.668 0-.403 0-.938-.135-1.206v-.135c0-.668-1.206-2.277-1.742-2.812-.133 0-.133-.133-.267-.133-.132-.135-.403-.267-.536-.403a12.09 12.09 0 0 0 -1.741-1.07c-.4-.268-.667-.403-.938-.807-.936-.53-1.738-1.605-2.277-2.944 0-.132-.132-.267-.132-.535-.136-.135-.136-.403-.269-.536 0 0 0-.135-.135-.266 0-.271-.13-.404-.13-.671 0 0-.136-.535-.136-.671-.133-.132 0-.268-.133-.536 0-.268-.403-.667-.403-.934v-.404h-.133.133c0-.267-.268-.535-.268-.803 0-.267-.131-.403-.131-.67l-.136-.133c.402.4.802 1.206.938 1.874 0 .268.133.403.133.67.135.132.135.4.266.535v.4s.135 0 .135.137c.133.267.269.802.536 1.206l.136-.136c.133-.135-.136-.535-.271-.67 0-.133-.132-.4-.132-.536 0-.132-.269-.668-.269-.804v-.267c-.135-.267-.135-.535-.135-.803h.135c.269.536.536 1.07.94 1.606v.136c.399.667.802 1.338 1.474 1.873-.271-.4-.539-1.07-.807-1.473-.268-.536-.667-.936-.802-1.339 0-.267-.269-.535-.269-.667-.267-.403-.403-.807-.671-1.206v-.136c0-.133-.13-.4-.13-.535l.13-.133c.536.4.807.804 1.208 1.474.134 0 .134.133.266.133l.136-.133c-.136-.135-.136-.271-.136-.403-.399-.403-.667-.803-.938-1.339-.132 0-.132-.135-.132-.27.267 0 .671.806.938 1.073l.4.536c.135.403.403.667.536.94.402.667.938 1.336 1.473 1.873.135-.136.135-.136.135-.268-1.337-1.07-2.009-2.948-2.946-4.554 0-.135-.269-.4-.269-.4h.537c.67 0 2.008 1.338 2.412 1.873 0 0 .13.133.13-.135-.666-.668-1.07-1.605-2.008-2.14.135 0 .536 0 .672-.136.136 0 .136-.132.266-.132.536-.268.94-.671 1.474-1.074 0 0 .132-.133.268-.133.4.4 1.474 1.339 1.474 1.877v.133c0 .802-.135 1.605-.135 2.408l.135.136.133-.136c-.133-.267 0-.935 0-1.07.534-1.741 0-3.75.401-5.492.133-.535.535-.667.935-.667.136.132.268.132.268.4 0 .534-.268 1.07 0 1.74 0 .135 0 .269.136.404v.4c0 .268.135.538 0 .806 0 .133 0 .536-.136.668.136.403.672-.936.806-1.071.132-.803.132-1.741.132-2.544.136-.136.136-.268.136-.268 0-.136.133-.267.133-.403h.135c0 .136 0 .403.132.535 0 .267-.132.535-.132.939 0 .135-.136.135 0 .267h.132c.404-.267.268-1.605.268-1.873v-.268s-.132-.135-.132-.268c0-.135-.136-.938.132-.806.136.135.268.403.268.403v.268c.136.403.136.939.136 1.474-.136 0-.136.131-.136.267.136 0 .136 0 .136.133v-.133h.13c0-.938 0-1.874-.13-2.679 0-.133-.136-.268-.136-.268-.132-.132-.4-.536-.268-.667h.268v.131c.136 0 .267.136.402.404 0 0 .136.132.136.267.132.268.132.535.132.803v.403l.136.133h.132c0-.804-.132-1.606-.4-2.278-.136-.267-.136-.667-.271-1.07.135 0 0 0 .135-.135h.136c0 .268.132.403.268.67-.136.135 0 .135 0 .135h.132c0-.267 0-.267-.132-.402v-.939c0-.131.132-.267.132-.399.136.268.136.4.268.535v.268l.134.132s0 .805.133.805c0 .133 0 .268.135.4 0 .404 0 .672.133 1.072v.135c.136.938.136 2.01-.133 2.944 0 .136-.135.271-.135.403-.267.938-.935 1.877-1.473 2.815-.268.668-.535 1.338-.936 2.006 0 0-.136 0-.136.136 0-.136-.132-.136-.132-.269-.134 0 .132-.67.132-.803 0-.135.136-.402.136-.537 0-.133.133-.133.133-.268.135-.535.267-1.203.535-1.606v-.135h-.132c-.403.67-.804 1.609-1.07 2.276-.136.135-.269.671-.269.806l-.135.132c0 .135-.136.536-.268.803-.268-.132-.268-.4-.403-.668 0-.803-.133-1.74-.133-2.543h-.134c-.132.803-.132 1.47-.132 2.276.132.132.132.536.266.668v.267c0 .136.133.807.133.807 0 .132.135.268.135.4.132.402.268.67.4 1.07 0 .136.136.268.136.268v.403c.135.132 0 .4.135.535 0 .133 0 .268.133.404v1.07c0 .135 0 .267-.133.402v.27c0 .266-.135.534-.271.666-.535-.132-.802-.803-.934-1.338 0-.136 0-.268-.136-.403 0 0-.133-.268-.133-.4 0-.135-.135-.267-.135-.403v-.268c0-.135 0-.267-.133-.535 0-.267 0-.403-.133-.671v-.803h-.133c0 .403 0 .802.132 1.207 0 .535 0 .935.267 1.472 0 .133.135.401.135.668.133.136 0 .271.133.404 0 .134.136.267.136.267 0 .267.266.671.266.803v.136c0 .132.133.4.133.535.267.535.403 1.202.671 1.606 0 .403.403.938.403 1.342.133.131.133.267.267.4 0 .134 0 .267.132.401v.67c-.266-.537-.667-1.072-1.07-1.607-.268-.535-.403-1.206-.67-1.874 0-.135-.132-.267-.132-.403 0-.135-.136-.402-.136-.535 0-.136 0-.268-.133-.403 0-.132-.135-.4-.135-.536 0-.132-.133-.535-.266-.668v-.267s-.268-.538-.268-.67c0-.136-.136-.269-.269-.535h-.135v.131c.135.268.268.671.404.939v.135c.135.132 0 .536.135.803 0 .132.132.4.132.668.134.135.134.403.134.536.133.402.133.805.133 1.205-.133.268-.4.135-.67.135h-.133c-.403 0-1.07-.938-1.07-1.473-.136-.136-.136-.268-.136-.268-.132-.803 0-1.606.136-2.412 0-.133.132-.133.132-.267 0-.268 0-.67.136-.939.132-.132.132-.4.132-.535 0-.536.134-1.203 0-1.738 0 0 0-.136-.132-.136h-.136s0 .136.136.268c.132.535 0 1.205-.136 1.742-.132.132-.132.4-.132.4 0 .135-.136.403-.136.535 0 .403-.4.67-.4 1.205 0 0 0 .271-.135.404 0 .403-.269.938-.131 1.473 0 .132.13.132 0 .268-.138 0-.404-.403-.404-.671 0-.132-.132-.4-.132-.536 0-.13 0-.267-.136-.267l-.135-.4c-.133.267-.133 1.071 0 1.34v.534a5.745 5.745 0 0 1 -1.471-1.607l-.267.133c.267.136.399.403.535.535.535.803 1.474 1.474 2.408 2.14.536.272 1.206.672 1.878 1.076.133.131.266.267.534.399h.133c.938.671 1.742 1.743 2.276 3.083v1.204c-.268.401-.4 1.073-.802 1.473" fill="#63aadd"/><path d="m124.346 178.674c-.404 0-.537-.672-.537-1.071.269-.269.936-.403 1.203-.538.938-.268 1.206-1.47 2.548-1.74h.667c-.133 0-.267.133-.267.4-.132.536-.268.672-.535.804-.137.136-.269.536-.404.67-.268.268-.667.268-.935.536v.135l-.535.536s-.806.132-1.205.268zm-1.209-4.286c.269-.136.404.937.804 1.338l-.132.136c-.268 0-.268-.136-.403-.136v.136s0 .132-.131.132c0 0-.138 0-.138-.132-.13 0-.13.132-.266 0h-.536a2.575 2.575 0 0 1 -.267-1.072c.136-.134.939-.538 1.07-.402z" fill="#f8d1a6" stroke="#1f1a17" stroke-width=".014546"/><path d="m123.941 166.755c0-.136-.132-.268-.132-.136 0 0 .132.535.269.535-.137-.132-.269-.4-.137-.4m4.421-.267c.268 0 .133.4.133.535h-.133c.133-.136.133-.267.133-.267-.133 0-.133-.136-.133-.136z" fill="#f8d1a6"/><path d="m125.55 178.538c-.27 0-.806.136-1.073.136-.268 0-.268-.136-.4-.136 0-.267-.404-.535-.536-.803h-.266c-.138-.132-.404-.267-.672-.4 0 .133.803.4.803.4-.535.268-.803.268-1.07.268-.132.136-.267 0-.671.136 0 0-.935.399-1.07.535-1.07 0-1.206-2.412 0-2.948a5.844 5.844 0 0 1 1.61-.268c.932 0 1.736.136 2.272.804.402.268 1.207 1.206 1.608 1.609-.402.268-.135.268-.534.667z" fill="#f8d1a6" stroke="#1f1a17" stroke-width=".014546"/><path d="m123.541 170.905c0 .536-.266.938-.534 1.206 0 .132 0 .403-.135.535.135.133 0 .404 0 .671.266.268.135.803.403 1.07-.403 0-.807.133-1.206.536 0-.535-.404-1.07-.536-1.606-.268-.803-.268-1.206-.135-1.876.135-.668.671-1.207 1.07-1.742.404-1.07 1.341-1.203 2.277-1.203 1.473-.135 2.68 0 2.947-.135.535.268 1.206 0 1.873.403.136.132 1.474 1.47 1.878 2.14.666 1.072.266 2.01-.136 2.813 0 .135-.132.535-.267.67-.269-.267-.269-.67-.803-.802h-.4c.132-.136.267-.404.4-.67 0-.136-.133-.4-.133-.672-.135-.132-.403-.535-.403-.802-.136 0-.267-.133-.136-.268-.13 0-.13-.133-.13-.133l-.136.536c.266.267.266.535.402.938.268.803.268 2.006 0 2.944-.136 0-.136 0-.136.136-.399-.536-1.47-.403-2.005-.269-.672.27-1.876 1.072-2.144 1.74h-.136c-.802-1.071-1.338-.935-1.606-1.74-.399-1.073-.667-2.008-.133-3.214 0-.268.133-.803 0-1.206z" fill="#f8d1a6" stroke="#1f1a17" stroke-width=".014546"/><path d="m129.565 173.852c-.13.133-.13.133-.13.268 0 .132-.136.132-.136.267 0 0-.133.133-.133.268v.135c0 .268.268.268.268.268l.131-.268v.268c.135.132.271.132.403 0a42.948 42.948 0 0 1 -.403.4v.267h.135c.136.136.136 0 .136 0 .132 0 .132 0 .268-.131l-.136.131c.269.136.939-.4 1.071-.803.268-.67-.4-1.605-1.203-1.473 0 .136-.27.267-.27.403z" fill="#f8d1a6" stroke="#1f1a17" stroke-width=".014546"/><path d="m128.362 166.487v-.67l.133-.133s0-.135.135-.135c.268.403.133 1.07-.135 1.337.135.268 0 .404 0 .536-.133.268-.133.268-.269.268 0-.132-.132-.132-.132-.268.132-.132.132-.4.268-.536zm-4.42.132c0-.268-.133-.803-.4-.803-.136 0-.136.268-.136.404.268.267.268.802.403 1.338 0 .132.132.132.132.132.137.135.137.135.137 0 .131 0 .131 0 .131-.132v-.136c0-.132-.268-.667-.268-.803" fill="#1f1a17"/><path d="m128.495 164.479c0 .535 0 1.474-.133 1.742v.398c.133.137 0 .268 0 .404 0 .132-.136.535-.268.668-.67 1.205-1.206 1.341-2.008 1.341-1.074 0-1.608-.67-2.008-1.741v-.268c-.269-.267-.269-1.474-.405-2.009-.132-1.07.805-2.009 1.474-2.277.939-.67 1.741-.402 2.545.268.803.404.803 1.07.803 1.474z" fill="#f8d1a6" stroke="#1f1a17" stroke-width=".014546"/><path d="m124.88 164.21c-.136.268-.535.669-.671.937.136-.268.268-.536.402-.804-.134 0-.402.268-.534.536v-.4c0 .534-.136 1.07-.136 1.605v.403l-.132-.403c-.136-.268 0-.803 0-1.205l-.136.268s0-.134-.132-.268v-.804c.132-.267.268-.267.132-.4v-.136l.268-.267s.136-.132 0-.132c.136-.538 1.206-.806 1.61-.806 0-.268.667-.132 1.202-.132.403.267 1.741.802 1.741 1.742 0 0 .136.13.136.267 0 .4-.136 1.338-.268 1.741-.136-.136-.268-1.341-.268-1.474 0 1.474.132 0-.267-.67-.135.267-.135.403-.135.535 0-.132-.133-.4-.268-.4v.268c-.268-.267-.938-.136-1.07-.403 0 .136-.136.267-.136.267l-.133-.132-.135.132s-.133-.132-.133-.267c0 0-.134.136-.266.267v-.267c-.135-.132-.404.267-.672.403z" fill="#1f1a17" stroke="#1f1a17" stroke-width=".014546"/><path d="m126.485 167.023c.134-.136.134 0 .134 0s0 .132-.134.132c-.132 0-.132-.132-.132-.132zm-.535 0h.135c.133 0 0 .132-.135.132 0 0-.133 0-.133-.132 0 0 .133-.136.133 0m.873-.837c.132-.268.064-.501.332-.501.133 0 .269 0 .404.131 0 0 .268.136.268.268-.136-.132-.268-.132-.268-.132s.07.206-.202.206c-.534 0-.47-.342-.47-.342s-.135.268-.268.268zm-.07-1.04s0 .135.135.267c.132 0 .804 0 .94.136 0-.136-.136-.268-.269-.268-.135-.135-.539 0-.806-.135m-.936.135s0-.134-.134-.134c-.268 0-.94 0-1.206.267.402-.133 1.073-.133 1.34-.133m-1.073.803c.136-.132.268-.268.404-.268.132-.132.29-.074.423-.074 0 .132.247.21.247.342l-.134-.132c0 .268 0 .268-.404.268-.268 0-.268-.136-.268-.268-.132 0-.132 0-.268.132m-.132.267c.133 0 .4.136.536 0-.136 0-.403-.131-.536-.267zm1.205 1.61h.132zm.936-.807c.135 0 .135-.132.135-.268-.135-.131-.268-.267-.268-.399 0 .132.268.268.268.4.132 0 0 .267-.135.267h-.133zm0 .807-.267-.162c-.268.272-.268.026-.4.026-.136 0-.269.136-.402.136.401.4.802.267 1.069 0m-6.4-5.31c-.272 0-.939.135-.808-.401 0-.135.137 0 .137 0 .267.133.4.133.67.133.133 0 .268.135.535.135 0 0 .132-.135.132 0 0 .268-.399.268-.667.132m-.026-2.993c0-.267 0-.67-.132-.938.268 0 .67.268.67.536 0 .402 0 .803-.134 1.207 0 .131.051.44-.083.572 0 .135.109.226.109.493 0 0-.698-.395-.562-.263 0-.268-.136-.268-.136-.403 0-.536.268-.803.268-1.204m-.644 2.326c.266 0 .398.132.67.267h.132c.135 0 .67-.135.67.133.133 0 .268-.268.133-.268h-.4s-.403-.132-.536 0c-.135-.132-.403-.132-.806-.132zm3.593-2.996c-.137 0-.137-.132-.268 0 0 .268 0 .67-.403.67-.4 0-.803-.402-.939-.402.136.135.404.267.54.402h-.272a32.21 32.21 0 0 1 .403.4c.132 0 .268-.132.403-.268.268-.4.667-.666.536-.802m-4.69-.667c-.399.667.535.803.94.667-.136 0-.405 0-.672-.132.404 0 .802-.136 1.07 0 0-.136 0-.136-.132-.136-.267 0-.803.136-1.206-.4m.755 5.197-.01-.07c-.02.021-.036.035-.045.044a7.45 7.45 0 0 1 -.3-.158c-1.235-1.174-1.443-3.61-1.684-4.21 0-.074-.098-.235-.166-.408-.127.113-.257.244-.326.383-.134.133.06.317-.073.584 0 .133-.218.742-.218.877.13.268.13.28 0 .95 0 .431-.093 1.06.218 1.39.007.036.367.47.367.51.126.124.24.22.344.294a.44.44 0 0 0 -.052.365c.135.535 1.251 1.018 1.655 1.421.132.135.132.267.4.267.136-.132.267-.267.267-.4 0-.538 0-1.074.267-1.608-.11 0-.361-.094-.644-.231m-1.764-.705.268.268a.165.165 0 0 1 -.005.038 2.63 2.63 0 0 0 -.263-.306z" fill="#1f1a17"/><path d="m117.554 158.221c.142.121.16.077.405.077 0 0 .52.073.52.208 0 .268.373.617 1.175.48-.13 0-.802 0-.802-.267.136.136.404.136.672 0-.268 0-.672 0-.804-.132-.136-.267-.943-.257-.407-.393-.268 0 .14-.413.005-.546-.132-.136-.132-.402-.269-.535-.135-.135 0-.267.137-.402v-.133c-.137.268-.405.4-.673.668 0 .256-.122.636-.014.904-.027.004-.045.042-.053.092.048.002.088-.002.108-.021" fill="#1f1a17"/><path d="m117.447 158.242c-.109-.004-.262-.031-.344.05-.06.122-.025.277.032.422.118-.106.236-.197.299-.262 0-.06 0-.145.013-.21m2.879-1.396c0 .268.404.536.404.935a5.897 5.897 0 0 0 -.94-.803c-.534-.132-1.206-.267-1.74-.4.268-.135.711-.263.98-.395.266 0 .494-.276.76-.544 0 0 .132-.134.268-.134v.67c.132.268.132.403.268.671m.404 2.008v.4c0-.268-.268-.4-.54-.4-.131-.136-.267-.403-.267-.535 0-.268-.268-.268-.534-.403-.132 0-.132-.136-.132-.268 0-.136-.137-.136-.269-.136.536-.131 1.071.268 1.474.671.133.136.268.403.268.671m.667.401c0 .135-.132.135 0 .135 0 0 0-.135.136-.267h.536c0-.136.136-.268.136-.268.263 0 .398.132.534 0 .132 0 .268-.136.132-.136-.535-.399-1.206 0-1.474.536" fill="#1f1a17"/><path d="m114.703 164.745c.535-.267 1.07 0 1.337.536.268.403 0 1.07-.534 1.338-.404.267-1.07 0-1.339-.535-.268-.4 0-1.07.536-1.339z" fill="#fff500" stroke="#1f1a17" stroke-width=".014546"/><path d="m114.703 164.745-.268-.67.268-.267v-.133l-.403.133-.133-.269h-.268l.133.404-.399.267.13.133.404-.133.268.668c.133.135.4 0 .268-.133zm1.203 1.606 8.303 17.41-.535.269-8.436-17.275c.268 0 .4-.136.668-.404z" fill="#fff500" stroke="#1f1a17" stroke-width=".014546"/><path d="m114.835 166.755c.267 0 .539 0 .671-.136.268-.132.4-.268.535-.535.135 0 .267 0 .267.136.136 0 0 .131 0 .267-.267.132-.402.399-.534.535-.268 0-.536.132-.803.132-.136 0-.267-.132-.267-.132 0-.136 0-.136.13-.267z" fill="#fff500" stroke="#1f1a17" stroke-width=".014546"/><path d="m121.8 178.941s.133.268 0 .268c-.67.267-.803-.137-.535-.268.268-.67-.268-1.607-.67-1.206v.671l-.133.399c-.54.136-.271.267-.54.404-.533.535-.802.267-1.202.267-2.814-.404-3.082-1.206-4.82-1.474-.938 0-1.207.803-1.609 1.742-.267.535-.936.402-1.606 1.473 2.545.268 5.356.268 8.035.403 1.203.133 3.08.804 3.748.269l.54-.672c.398-.267.13-.67-.137-.402.67-.268.535-.936.267-.669.268-.267.268-.67-.13-.67.13-.267 0-.535-.54-.671-.132 0-.535 0-.667.136z" fill="#f8d1a6" stroke="#1f1a17" stroke-width=".014546"/><path d="m123.673 152.693v-2.812c.536.402 1.07.938 1.07 1.341.404-.271.269-.806-.534-1.61l-.536-.267v-.132c.268 0 .404.132.804.268.267.4.67.935.67 1.202.133.403 0 .67-.403.67 0 .268 0 .404.135.537-.402 0-.67.267-.938.535zm0-3.48v.132c-.399-.268-.802-.268-1.206-.268.136.268 0 .268 0 .404.404 0 .807.131 1.206.4v2.812c-.132 0-.268.134-.536 0-.13.267-.13.402-.13.67-.136-.136-.54-.403-1.207-.67-.135 0-.403 0-.536-.134h-.135v-3.75h.135c.4.136.669.268.94.536.263-.4-.271-.803-.807-.938-.133 0-.133 0-.133-.133h-.135v-.135h.135c.536.135 1.071.403 1.203.806.271-.136.67 0 1.206.268m-2.544-1.074v.135c-.4 0-.667 0-.939.133-.131.135-.131.27-.131.402.403 0 .803-.132 1.07 0v3.75c-.4 0-.939 0-1.339-.134-.534 0-1.205.134-1.74.268h-.136v-3.748h.136c.268 0 .67-.136.938 0v-.403c-.404-.135-.67-.135-.938 0h-.136v-.135h.136a.86.86 0 0 1 .803 0c.403-.133.937-.133 1.337-.133.272-.135.672-.135.939-.135m-5.491 2.009c.268-.267.67-.4 1.073-.4 0 0-.135-.136-.135-.267-.268 0-.67 0-.938.131.402-.267.805-.399 1.073-.267.133-.4.669-.803 1.203-.938v.135c-.132 0-.132 0-.132.135-.67.132-1.07.668-.803 1.071.133-.403.535-.671.935-.803v3.748h-.132c-.67.134-1.206.402-1.206.534l-.268-.534c-.268 0-.535-.134-.67-.268zm0 0v2.277c-.132 0-.132-.133-.132-.133-.268-.268-.536-.402-.803-.535v-.268c-.94-.267-.404-.938.131-1.473.268-.135.539-.404.804-.404l-.668.536c-.535.535-.67.938-.136 1.205-.13-.402.268-.802.804-1.205" fill="#fcdb00"/><path d="m124.346 152.293c.132.132.132.267.132.4 0 .135-.132.135-.269 0-.131 0-.131-.133-.131-.268 0-.132.132-.132.268-.132zm-4.692-.672c.672 0 1.342.136 1.878.269.672.134 1.206.402 1.873.67.136-.268.403-.403.672-.536.268-.135.534-.403.534-.67.133-.803-1.337-2.01-2.276-1.742-.402-.803-2.01-1.07-2.811-.535-.804-.4-2.277.136-2.68.804-.938-.133-2.276.938-2.01 1.472.136.268.267.536.539.671.265.133.532.268.667.4.671-.132 1.207-.4 1.874-.535.54-.132 1.074-.132 1.74-.268z" fill="#da251d" stroke="#1f1a17" stroke-width=".014546"/><path d="m118.852 152.024c.136 0 .136 0 .268.133 0 0-.132.135-.268.135-.132 0-.268 0-.268-.135 0 0 .136-.133.268-.133zm-2.544.669c0 .134 0 .267-.132.267.132 0 .268 0 .268.135.133-.135.133-.268.268-.268-.135 0-.268 0-.404-.134zm.67-.134c.134 0 .27-.134.27 0 0 0 0 .133-.136.133-.133.135-.268 0-.268 0s0-.133.135-.133zm.936-.266c.272-.136.404-.136.54-.136 0 .136-.268.268-.54.268-.132.135-.4.135-.4 0 0 0 .133-.132.4-.132zm1.74-.136h.404c0-.133-.268-.133-.404-.133-.13 0-.398 0-.398.133zm.94-.133c-.132 0-.268 0-.268.133 0 0 .136.135.268.135.136 0 .136 0 .136-.135 0 0 0-.133-.136-.133zm2.543.803c0 .133.138.268.138.268-.138 0-.138 0-.268.132 0-.132-.136-.267-.136-.4zm-.67-.268h-.262s0 .133.13.133c.133.135.268.135.268 0 0 0 0-.133-.135-.133zm-.935-.266c-.268-.136-.403-.136-.536-.136 0 .136.268.268.536.268.268.135.4.135.4 0 0 0-.132-.132-.4-.132zm-6.294 0c0-.136.135 0 .135 0 0 .132 0 .267-.135.267-.136 0-.136 0-.136-.135-.132 0 0-.132.136-.132z" fill="#da251d" stroke="#1f1a17" stroke-width=".014546"/><path d="m116.577 150.283v-.267h.135s.133 0 .133.132c0 0 0 .135-.133.135zm0-.267v-.268l.135.133s0 .135-.135.135m0-.404v-.131zm0-.399v-.268c.135 0 .135.132.135.132 0 .136 0 .136-.135.136m0-.404v-.132c.135-.135.135-.135.268-.135.135-.135.268 0 .268 0a.285.285 0 0 1 -.268.267c-.133.136-.133.136-.268 0m.803-.67c-.132 0-.267.135-.267.267 0 .136.135.136.401.136.133 0 .268-.135.268-.268-.135-.135-.268-.135-.402-.135m.67-.267c.136 0 .269.134.269.134a.288.288 0 0 1 -.269.268c-.135.133-.268 0-.268-.135zm.67 0c.133 0 .268 0 .268.134 0 .133-.135.268-.267.268-.136 0-.267 0-.267-.135 0-.133.131-.267.267-.267m-2.144.805v.132zm0 .268v.268c0 .132 0 .132-.133.132-.136 0-.136 0-.136-.132-.132-.136 0-.136.136-.268zm0 .536v.131l-.133.136c-.136 0-.268 0-.268-.136 0-.131 0-.131.132-.267.136 0 .269 0 .269.136m0 .267v.268h-.133c0 .132-.136 0-.136-.135 0 0 0-.133.136-.133zm0 .268c0 .132-.133.132-.133.267h.133zm-2.009.132v-.132zm0-.267c0-.133.136-.133.267-.269h.267a.285.285 0 0 1 -.267.269c-.131.135-.267.135-.267 0m.806-.668c-.136.132-.272.268-.272.268 0 .131.136.131.272.131a.284.284 0 0 0 .264-.267c0-.132-.132-.132-.264-.132m.532-.268-.268.268c0 .132.136.132.268.132.135 0 .27-.132.27-.268 0-.132-.135-.132-.27-.132m-1.606 2.544c.136 0 .268 0 .268.132 0 .136-.132.136-.132.136l-.136.133zm.268-1.473v.132s-.132.135-.132.268h-.136v-.4zm-.268 1.473v-.135zm0 .4c-.132 0-.132-.132-.132-.132s0-.136.132-.136zm0-1.873v.4h-.132c-.136-.132 0-.268.132-.4m0 1.338c-.132-.132-.132-.132-.268 0v.267h.136l.132-.132zm-.268 0v-.403s.136 0 .136.135c0 0-.136.136-.136.268m0-.403v-.4h.136c0 .132 0 .268-.136.4m0-.4v.4c-.132 0-.268 0-.268-.132-.13 0 0-.136.136-.268zm0 .4v.403h-.399c0-.132.13-.268.267-.268 0-.135 0-.135.132-.135m0 .403c-.132.135-.132.135-.132.267h.132z" fill="#fcdb00"/><g stroke="#1f1a17"><path d="m116.577 150.283v-.267h.135s.133 0 .133.132c0 0 0 .135-.133.135zm0-.267v-.268l.135.133s0 .135-.135.135m0-.404v-.131zm0-.399v-.268c.135 0 .135.132.135.132 0 .136 0 .136-.135.136m0-.404v-.132c.135-.135.135-.135.268-.135.135-.135.268 0 .268 0a.285.285 0 0 1 -.268.267c-.133.136-.133.136-.268 0m.803-.67c-.132 0-.267.135-.267.267 0 .136.135.136.401.136.133 0 .268-.135.268-.268-.135-.135-.268-.135-.402-.135m.67-.267c.137 0 .269.134.269.134a.288.288 0 0 1 -.269.268c-.135.133-.268 0-.268-.135zm.67 0c.133 0 .269 0 .269.134 0 .133-.136.268-.268.268-.136 0-.267 0-.267-.135 0-.133.131-.267.267-.267m-2.144.805v.132zm0 .268v.268c0 .132 0 .132-.133.132-.136 0-.136 0-.136-.132-.132-.136 0-.136.136-.268zm0 .536v.131l-.133.136c-.136 0-.268 0-.268-.136 0-.131 0-.131.132-.267.136 0 .269 0 .269.136m0 .267v.268h-.133c0 .132-.136 0-.136-.135 0 0 0-.133.136-.133zm0 .268c0 .132-.133.132-.133.267h.133zm-2.008.132v-.132zm0-.267c0-.133.135-.133.266-.269h.267a.285.285 0 0 1 -.267.269c-.131.135-.266.135-.266 0m.805-.668c-.136.132-.272.268-.272.268 0 .131.136.131.272.131a.284.284 0 0 0 .265-.267c0-.132-.133-.132-.265-.132m.532-.268-.267.268c0 .132.135.132.267.132.135 0 .27-.132.27-.268 0-.132-.135-.132-.27-.132m-1.606 2.544c.136 0 .269 0 .269.132 0 .136-.133.136-.133.136l-.136.133v-.4m.269-1.474v.132s-.133.135-.133.268h-.136v-.4zm-.269 1.473v-.136zm0 .4c-.132 0-.132-.132-.132-.132s0-.136.132-.136v.269m0-1.874v.4h-.132c-.136-.133 0-.268.132-.4m0 1.337c-.132-.131-.132-.131-.268 0v.268h.136l.132-.132zm-.268 0v-.403s.136 0 .136.136c0 0-.136.136-.136.267m0-.403v-.399h.136c0 .131 0 .268-.136.4m0-.4v.4c-.132 0-.268 0-.268-.132-.13 0 0-.137.136-.268zm0 .4v.402h-.398c0-.131.13-.267.266-.267 0-.136 0-.136.132-.136m0 .403c-.132.136-.132.136-.132.268h.132z" fill="none" stroke-width=".014546"/><path d="m120.326 147.74a.285.285 0 0 0 -.268.266s.132.134.268.134.268-.134.268-.134a.286.286 0 0 0 -.268-.267zm.67 0c-.134 0-.266 0-.266.132 0 .134.132.268.266.268.133 0 .268-.134.268-.268 0 0-.135-.133-.268-.133zm.669.132c-.133 0-.268 0-.268.134 0 .133.135.268.268.268a.288.288 0 0 0 .268-.268s-.133-.134-.268-.134zm.54.267c-.136 0-.272 0-.272.135 0 .133.136.268.272.268.263 0 .399-.135.399-.135 0-.133-.136-.268-.4-.268zm.399.402s-.136 0-.136.136c0 .131 0 .268.136.268.135 0 .268 0 .268-.137a.288.288 0 0 0 -.268-.267zm.267.536c-.133-.132-.268 0-.268 0 0 .136.135.268.135.268.133 0 .269 0 .269-.132 0-.136-.136-.136-.136-.136zm-.133.404c-.135-.136-.135 0-.135 0 0 .132 0 .267.135.267.133 0 .133 0 .133-.135 0-.132 0-.132-.133-.132z" fill="#fcdb00" stroke-width=".014546"/><path d="m122.604 149.748h-.268c0 .132.132.267.132.267.136 0 .271 0 .271-.135 0-.132-.135-.132-.135-.132zm.671-1.207c-.137 0-.268 0-.268.136 0 .131 0 .268.268.268.131 0 .266 0 .266-.137 0-.131-.135-.267-.266-.267z" fill="#fcdb00" stroke-width=".014546"/><path d="m123.809 148.677c-.136 0-.268 0-.268.132 0 .136.132.268.268.268.132.136.268 0 .268 0 0-.132-.136-.268-.268-.4zm1.203.935c-.133-.132-.268 0-.268.136 0 0 .135.132.268.267.135 0 .268 0 .268-.135 0-.132-.133-.268-.268-.268zm.404.535c-.136 0-.268 0-.268.136-.136 0 0 .268.132.268.136.131.271 0 .271 0 0-.136 0-.268-.135-.404zm.135.672c-.135-.136-.271-.136-.271 0-.133 0 0 .267 0 .267.136.136.27.136.403 0 0-.135 0-.267-.132-.267zm0 .403h-.404c0 .132 0 .267.133.4.136.136.27.136.27 0 .133-.133 0-.268 0-.4z" fill="#fcdb00" stroke-width=".014546"/><path d="m125.148 151.489c-.136 0-.268 0-.268.132-.136 0 0 .268 0 .268.132.135.268.135.4 0 0-.132 0-.268-.132-.4zm-.536-2.412c-.134 0-.402 0-.402.136 0 0 .136.268.268.268.134 0 .267 0 .267-.136 0 0 0-.268-.133-.268z" fill="#fcdb00" stroke-width=".014546"/><path d="m116.176 151.621s.132 0 .132.136c0 0 0 .132-.132.132-.136 0-.136 0-.136-.132 0 0 0-.136.136-.136zm3.348-2.408c.13 0 .266.132.266.132 0 .136 0 .267-.266.267-.136 0-.136-.131-.136-.267-.132 0 0-.132.136-.132zm0-.268h.266c0 .131-.136.131-.266.131 0 .136-.136 0-.136 0 0-.131 0-.131.136-.131zm0-.268c.13-.135.13 0 .13 0s0 .132-.13.132c0 0-.136 0-.136-.132zm0-.403c.13 0 .13.133.13.133s0 .135-.13.135l-.136-.135zm.666.267c-.132.267-.4.803.136 1.07-.136.136-.268.27-.536.404v-.135c.132-.133.268-.133.268-.268-.268-.268-.136-.935.132-1.339z" fill="#fff500" stroke-width=".014546"/><path d="m118.988 148.541c0 .404.4.803-.135 1.206.135 0 .404.133.536.268v-.135c-.132 0-.132-.133-.269-.133.269-.403.137-1.07-.267-1.341.135 0 .135.135.135.135z" fill="#fff500" stroke-width=".014546"/><path d="m119.524 149.612c.13.136.13.268.266.535l.268-.267c0 .267-.136.403-.136.67.136-.134.404-.134.54-.267-.136.132-.136.268-.272.268.272.131.54.131.806.131-.402.136-.534.136-.806.268.136 0 .136 0 .272.135-.272 0-.54-.135-.808-.135 0 .539.94.539 1.076.272.667.802 1.07.399 1.338.131-.268 0-.403-.131-.536-.131 0 0 0-.137.133-.137-.133 0-.268-.135-.4-.267h.4s0-.136-.133-.136c.133 0 .268.136.536.136-.135-.136-.135-.267-.135-.535.135.132.135.132.271.132 0 0 .131 0 .263-.132v.268h.404c-.133.131-.268.267-.404.4.271.134.404.134.54.134 0 0-.136.137-.269.137.133.131.269.131.536.267-.267 0-.403 0-.536-.136v.268c-.27-.132-.403-.132-.67-.268 0 .536.67.939.939.404 0 .267.13.535.398.668.136-.133.268-.133.403-.268-.135 0-.267-.133-.403-.133h.268c-.132-.135-.132-.135-.132-.267.132.132.4.132.267-.136.133.136.269.403.4.268.27-.268.804.135.939.803-.403-.4-1.07-.803-1.206-.4h.136c-.268 0-.404.535-.672.4-.268-.133-.398-.4-.534-.668-.268.268-.803.133-.803-.403-.268.403-1.072.268-1.338-.132-.136.268-.808.268-1.076 0-.266.268-.802.268-1.07 0-.13.4-.938.668-1.204.268 0 .4-.536.535-.937.267 0 .268-.135.535-.268.535-.402.133-.537-.267-.802-.267 0 0 .132 0 .132-.135-.267-.268-.802 0-1.07.135.133-.403.535-.671.803-.403.135.135.267-.132.4-.132-.133.132 0 .132.268 0 0 .132-.133.267-.133.267h.267c-.134 0-.267.133-.402.133.135 0 .268.135.402.268a.735.735 0 0 0 .403-.668c.133.535.804.132.804-.268-.268 0-.403.132-.671.268v-.268c-.133 0-.268.132-.4.132.132-.132.267-.132.4-.268-.133 0-.133 0-.268-.131.135 0 .268 0 .536-.137-.133 0-.268-.135-.4-.267h.4v-.267c.135 0 .135 0 .268.131 0-.131.135-.131.268-.131-.133.131-.133.267-.133.4.267 0 .4-.133.535-.133l-.136.132h.403c-.135.135-.267.135-.267.272l.132.131c-.132 0-.4 0-.667.136.267.132.802.535 1.337-.267.136.267 1.07.267 1.07-.272-.266 0-.534.135-.802.135.136 0 .136-.135.136-.135-.136 0-.404-.132-.67-.132.266 0 .402-.136.67-.136-.136-.131-.136-.131-.268-.266.268 0 .4.135.668.135a1.039 1.039 0 0 1 -.268-.67c.136 0 .136.134.268.266.136-.267.136-.4.136-.535z" fill="#fcdb00" stroke-width=".014546"/><path d="m122.205 150.95c.13 0 .263.136.263.136 0 .136-.132.267-.263.267-.136-.131-.272-.131-.272-.267 0-.135.136-.267.272-.135zm-2.55-.534c.135 0 .135.135.135.266 0 0 0 .137-.136.137-.13 0-.266 0-.266-.137 0-.13.136-.266.266-.266zm-2.542.67c.135 0 .135 0 .135.135.132 0 0 .132-.135.132-.133.136-.268 0-.268-.132 0 0 .135-.136.268-.136zm6.024.535c.138 0 .138 0 .138.136 0 0 0 .132-.138 0 0 0-.13 0-.13-.136 0 0 .13-.132.13 0zm-2.14-.802c.132 0 .267.132.267.132 0 .135-.135.271-.268.271-.134 0-.266-.136-.266-.271 0-.132.132-.132.266-.132zm-2.68.132c.136-.132.267 0 .267.135 0 0-.13.136-.266.136-.133 0-.269 0-.269-.136 0-.135.136-.135.269-.135z" fill="#fff500" stroke-width=".014546"/><path d="m119.524 148.274c.666-.402.534-.938 0-1.07-.672.267-.672.802 0 1.07z" fill="#1f1a17" stroke-width=".014546"/></g><path d="m118.168 158.35c0 .166.064.302.145.302s.147-.136.147-.302-.066-.302-.147-.302c-.08 0-.145.136-.145.302" fill="#f8d1a6"/><path d="m127.402 166.117c0 .06-.038.106-.087.106-.048 0-.087-.047-.087-.106 0-.06.039-.108.087-.108.049 0 .087.048.087.108m-1.874.04c0 .06-.04.108-.09.108-.047 0-.086-.048-.086-.107 0-.06.039-.108.087-.108.049 0 .089.049.089.108" fill="#fff"/><path d="m119.776 147.06v-.127h-.251v.017-.285h-.136v.268h-.268v.135h.268v.804h.266c-.08-.166-.114-.586-.126-.804z" fill="#00a1e0"/><path d="m119.776 147.06v-.127h-.251v.017-.285h-.136v.268h-.268v.135h.268v.804h.266c-.08-.166-.126-.586-.126-.804z" fill="none" stroke="#1f1a17" stroke-width=".014546"/><path d="m119.438 147.82h.05v-1.082h-.05z" fill="#fff"/><path d="m119.72 147.012h-.527v-.048h.527z" fill="#fff"/><path d="m79.606 134.968v2.968h-1.766v-3.102h-2.677v3.102h-1.7v-3.102h-2.613v3.102h-3.923v-3.102h-4.965v3.102h-2.352v-3.102h-5.57v9.623l.005.017c.014.047 1.301 4.547 3.63 7.033v69.529h37.929v-69.53c2.328-2.486 3.524-6.988 3.535-7.034l.006-.017v-9.621h-5.831v3.102h-2.354v-3.102h-4.966v3.102h-3.907v-3.032l-2.482-.075z" fill="#1f1a17"/><path d="m98.883 135.104v9.316c-.081.302-1.268 4.588-3.502 6.94l-.038.04v69.368h-37.408v-69.368l-.036-.039c-2.234-2.35-3.508-6.63-3.6-6.942v-9.314h5.05v3.101h2.873v-3.101h4.445v3.101h4.443v-3.101h2.093v3.101h2.22v-3.101h2.157v3.101h2.287v-3.098l1.96.06v3.038h4.428v-3.101h4.445v3.101h2.874v-3.101z" fill="#868257"/><path d="m83.725 182.147h11.729m-37.668 0h11.22m14.82 3.899h11.628m-37.668 0h11.17m14.82 5.16h11.678m-37.668 0 11.17-.003m14.82 5.161h11.678m-37.668 0h11.22m14.77 5.16h11.678m-37.668 0h11.22m-11.22 10.318h37.668m-37.668 3.901h37.668m-15.892-9.061h15.892m-37.668 0h15.534m10.252-29.696h11.88m-37.667 0h11.575m14.415-5.789h11.678m-37.668 0h11.372m13.806-5.159h12.49m-37.668 0h12.436m-12.436-3.9h37.668m-37.668-5.158h37.668m-37.668-5.378h37.668m-19.037 64.152v5.093m0-14.106v5.096m0-54.762v5.012m-7.386 49.855v3.734m0-14.032v4.98m0-15.333v5.058m0-14.229v3.917m0-23.834v3.84m14.772 45.794v3.84m-13.081-75.125v3.734m10.87-3.839v3.839m2.211 57.317v5.02m0-15.292v5.031m0-14.215v3.85m0-23.846v3.891m7.388 49.764v5.04m0-14.146v5.137m0-15.449v5.176m0-15.487v5.136" fill="none" stroke="#1f1a17" stroke-linecap="round" stroke-linejoin="round" stroke-width=".112112"/><path d="m91.191 176.946v5.251" fill="none" stroke="#1f1a17" stroke-width=".112112"/><path d="m91.191 166.069v5.032m0-14.027v5.077m-30.133 53.552v5.144m0-14.106v5.096m0-15.408v5.057m0-15.369v5.096m0-14.15v4.979m0-15.98v5.105m0-14.092v4.932m-6.851-17.666h44.823" fill="none" stroke="#1f1a17" stroke-linecap="round" stroke-linejoin="round" stroke-width=".112112"/><path d="m54.207 140.51h44.823z" fill="#9b8856" stroke="#1f1a17" stroke-linecap="round" stroke-linejoin="round" stroke-width=".112112"/><path d="m76.44 144.438v7.094m7.133.233v4.81m-14.448-4.81v4.865" fill="none" stroke="#1f1a17" stroke-linecap="round" stroke-linejoin="round" stroke-width=".112112"/><path d="m73.372 206.691h6.19v-10.373h-6.19z" fill="#1f1a17"/><path d="m73.372 196.185c-.073 0-.13.06-.13.134v10.372c0 .075.057.135.13.135h6.19c.073 0 .132-.06.132-.135v-10.371a.133.133 0 0 0 -.132-.134z" fill="#1f1a17"/><path d="m79.433 196.454v10.103h-5.931v-10.103zm-6.111-5.285h6.19v-10.295h-6.19z" fill="#1f1a17"/><path d="m73.322 180.74a.133.133 0 0 0 -.132.134v10.295c0 .075.06.135.132.135h6.19c.071 0 .13-.06.13-.135v-10.295a.133.133 0 0 0 -.13-.134z" fill="#1f1a17"/><path d="m79.382 181.008v10.027h-5.93v-10.027zm-20.764-36.523h6.192v6.91h-6.192z" fill="#1f1a17"/><path d="m58.618 144.35c-.072 0-.13.06-.13.135v6.91c0 .074.058.134.13.134h6.192c.07 0 .129-.06.129-.134v-6.91a.132.132 0 0 0 -.13-.134z" fill="#1f1a17"/><path d="m64.68 144.62v6.64h-5.932v-6.64zm23.539 6.775h6.191v-6.91h-6.191z" fill="#1f1a17"/><path d="m88.219 144.35c-.072 0-.13.06-.13.135v6.91c0 .074.058.134.13.134h6.191c.072 0 .13-.06.13-.134v-6.91a.132.132 0 0 0 -.13-.134z" fill="#1f1a17"/><path d="m94.28 144.62v6.64h-5.931v-6.64z" fill="#1f1a17"/><path d="m83.707 177.015s.81-21.32-7.25-10.692h.053c-8.062-10.628-7.25 10.692-7.25 10.692z" fill="none" stroke="#1f1a17" stroke-linecap="round" stroke-linejoin="round" stroke-width=".112112"/><path d="m72.05 173.39s1.558-12.338 3.593 0z" fill="#1f1a17"/><path d="m73.798 167.774c-.514.01-.972.943-1.396 2.854-.303 1.358-.478 2.732-.48 2.746a.143.143 0 0 0 .031.107.132.132 0 0 0 .098.045h3.592a.126.126 0 0 0 .1-.048.136.136 0 0 0 .028-.109c-.83-5.036-1.523-5.605-1.973-5.595" fill="#1f1a17"/><path d="m73.803 168.04c.245-.004.894.501 1.684 5.216h-3.287c.292-2.209.964-5.202 1.603-5.215m3.398 5.35s1.556-12.34 3.592 0z" fill="#1f1a17"/><path d="m78.948 167.774c-.514.01-.97.943-1.397 2.854a33.669 33.669 0 0 0 -.479 2.746.136.136 0 0 0 .031.107.13.13 0 0 0 .098.045h3.592a.126.126 0 0 0 .1-.048.138.138 0 0 0 .029-.109c-.831-5.034-1.524-5.605-1.974-5.595" fill="#1f1a17"/><path d="m78.953 168.04c.245-.004.895.501 1.686 5.216h-3.29c.292-2.209.965-5.202 1.604-5.215m87.033-33.073v2.968h-1.765v-3.102h-2.678v3.102h-1.7v-3.102h-2.613v3.102h-3.922v-3.102h-4.965v3.102h-2.354v-3.102h-5.568v9.623l.004.017c.014.047 1.302 4.547 3.63 7.033v69.529h37.93v-69.53c2.327-2.486 3.522-6.988 3.535-7.034l.005-.017v-9.621h-5.83v3.102h-2.354v-3.102h-4.966v3.102h-3.907v-3.032l-2.482-.075z" fill="#1f1a17"/><path d="m185.263 135.104v9.316c-.08.302-1.268 4.588-3.502 6.94l-.038.04v69.368h-37.408v-69.368l-.037-.039c-2.233-2.35-3.507-6.63-3.597-6.942v-9.314h5.048v3.101h2.874v-3.101h4.445v3.101h4.443v-3.101h2.091v3.101h2.222v-3.101h2.157v3.101h2.286v-3.098l1.961.06v3.038h4.427v-3.101h4.445v3.101h2.874v-3.101z" fill="#868257"/><g stroke="#1f1a17"><g fill="none"><path d="m170.104 182.147h11.73m-37.668 0h11.22" stroke-linecap="round" stroke-linejoin="round" stroke-width=".112112"/><path d="m170.206 186.046h11.628m-37.668 0h11.169" stroke-linecap="round" stroke-linejoin="round" stroke-width=".056056"/><path d="m170.156 191.205h11.678m-37.668 0 11.169-.002m14.821 5.161h11.678m-37.668 0h11.22" stroke-linecap="round" stroke-linejoin="round" stroke-width=".112112"/><path d="m170.156 201.523h11.678" stroke-width=".112112"/><path d="m144.166 201.523h11.22m-11.22 10.319h37.668m-37.668 3.901h37.668m-15.892-9.061h15.892m-37.668 0h15.534m10.253-29.696h11.881m-37.668 0h11.575m14.415-5.789h11.678m-37.668 0h11.372m13.806-5.159h12.49m-37.668 0h12.436m-12.436-3.9h37.668m-37.668-5.158h37.668" stroke-linecap="round" stroke-linejoin="round" stroke-width=".112112"/><path d="m144.166 151.602h37.668" stroke-linecap="round" stroke-linejoin="round" stroke-width=".056056"/><path d="m162.798 215.754v5.093m0-14.106v5.096m0-54.762v5.012m-7.387 49.855v3.734m0-14.032v4.98m0-15.333v5.058m0-14.229v3.917m0-23.834v3.84m14.772 45.794v3.84m-13.081-75.125v3.734m10.87-3.839v3.839m2.211 57.317v5.02m0-15.292v5.031m0-14.215v3.85m0-23.846v3.891m7.39 49.764v5.04m0-14.146v5.137m0-15.449v5.176m0-15.487v5.136" stroke-linecap="round" stroke-linejoin="round" stroke-width=".112112"/><path d="m177.572 176.946v5.251" stroke-width=".112112"/><path d="m177.572 166.069v5.032m0-14.027v5.077m-30.134 53.552v5.144m0-14.106v5.096m0-15.408v5.057m0-15.369v5.096m0-14.15v4.979m0-15.98v5.105m0-14.092v4.932m-6.851-17.666h44.824" stroke-linecap="round" stroke-linejoin="round" stroke-width=".112112"/></g><path d="m140.587 140.51h44.824z" fill="#9b8856" stroke-linecap="round" stroke-linejoin="round" stroke-width=".112112"/><path d="m162.407 144.438v7.094m7.547.233v4.81m-14.45-4.81v4.865" fill="none" stroke-linecap="round" stroke-linejoin="round" stroke-width=".112112"/></g><path d="m159.752 206.691h6.19v-10.373h-6.19z" fill="#1f1a17"/><path d="m159.752 196.185c-.072 0-.13.06-.13.134v10.372c0 .075.058.135.13.135h6.19c.073 0 .132-.06.132-.135v-10.371a.133.133 0 0 0 -.132-.134z" fill="#1f1a17"/><path d="m165.813 196.868v10.103h-5.93v-10.103zm-6.112-5.699h6.19v-10.295h-6.19z" fill="#1f1a17"/><path d="m159.7 180.74c-.071 0-.13.06-.13.134v10.295c0 .075.059.135.13.135h6.191c.072 0 .13-.06.13-.135v-10.295a.133.133 0 0 0 -.13-.134z" fill="#1f1a17"/><path d="m165.762 181.008v10.027h-5.93v-10.027zm-20.763-36.523h6.191v6.91h-6.19z" fill="#1f1a17"/><path d="m144.999 144.35c-.072 0-.13.06-.13.135v6.91c0 .074.058.134.13.134h6.19c.072 0 .13-.06.13-.134v-6.91a.132.132 0 0 0 -.13-.134z" fill="#1f1a17"/><path d="m151.059 144.62v6.64h-5.93v-6.64zm23.54 6.775h6.192v-6.91h-6.191z" fill="#1f1a17"/><path d="m174.6 144.35c-.072 0-.131.06-.131.135v6.91c0 .074.06.134.13.134h6.192c.071 0 .13-.06.13-.134v-6.91a.132.132 0 0 0 -.13-.134z" fill="#1f1a17"/><path d="m180.66 144.62v6.64h-5.93v-6.64z" fill="#1f1a17"/><path d="m170.088 177.015s.81-21.32-7.25-10.692h.053c-8.063-10.628-7.25 10.692-7.25 10.692z" fill="none" stroke="#1f1a17" stroke-linecap="round" stroke-linejoin="round" stroke-width=".112112"/><path d="m158.432 173.39s1.556-12.338 3.592 0z" fill="#1f1a17"/><path d="m160.178 167.774c-.514.01-.971.943-1.397 2.854-.302 1.358-.477 2.732-.48 2.746a.144.144 0 0 0 .032.107c.025.028.06.045.099.045h3.591a.134.134 0 0 0 .127-.157c-.83-5.036-1.523-5.605-1.972-5.595" fill="#1f1a17"/><path d="m160.184 168.04c.244-.004.895.501 1.684 5.216h-3.287c.291-2.209.964-5.202 1.603-5.215m3.397 5.35s1.557-12.34 3.593 0z" fill="#1f1a17"/><path d="m165.328 167.774c-.514.01-.971.943-1.396 2.854a34.141 34.141 0 0 0 -.48 2.746.134.134 0 0 0 .031.107.13.13 0 0 0 .098.045h3.592a.127.127 0 0 0 .1-.048.139.139 0 0 0 .029-.109c-.831-5.034-1.524-5.605-1.974-5.595" fill="#1f1a17"/><path d="m165.334 168.04c.245-.004.894.501 1.686 5.216h-3.29c.291-2.209.965-5.202 1.604-5.215" fill="#1f1a17"/><path d="m64.713 95.127c.014.596.312 1.727 2.261 1.727 1.057 0 2.232-.253 2.232-1.384 0-.833-.803-1.056-1.934-1.324l-1.146-.268c-1.726-.402-3.392-.788-3.392-3.139 0-1.19.64-3.288 4.106-3.288 3.274 0 4.152 2.142 4.167 3.452h-2.144c-.058-.477-.236-1.607-2.186-1.607-.848 0-1.86.312-1.86 1.28 0 .832.685 1.01 1.131 1.115l2.603.64c1.46.357 2.798.952 2.798 2.872 0 3.214-3.273 3.496-4.211 3.496-3.898 0-4.567-2.247-4.567-3.572zm15.622-2.41v-3.139h1.771c1.384 0 1.965.431 1.965 1.473 0 .476 0 1.666-1.667 1.666zm0 1.846h2.56c2.872 0 3.407-2.44 3.407-3.408 0-2.098-1.25-3.422-3.318-3.422h-4.88v10.684h2.231zm14.507-1.488c0-2.99 1.698-3.735 2.903-3.735s2.9.744 2.9 3.735-1.695 3.734-2.9 3.734-2.903-.743-2.903-3.734m-2.23 0c0 5.014 3.719 5.624 5.133 5.624s5.133-.61 5.133-5.624-3.72-5.624-5.133-5.624-5.134.61-5.134 5.624m19.299-.64v-2.857h2.782c1.31 0 1.562.834 1.562 1.399 0 1.057-.565 1.458-1.726 1.458zm-2.188 5.982h2.188v-4.181h2.306c1.651 0 1.74.565 1.74 2.023 0 1.101.09 1.651.238 2.158h2.47v-.283c-.476-.18-.476-.566-.476-2.128 0-1.993-.476-2.32-1.353-2.708 1.056-.357 1.651-1.369 1.651-2.545 0-.922-.52-3.02-3.363-3.02h-5.4zm14.582-10.684h8.69v1.89h-3.23v8.794h-2.231v-8.794h-3.229zm17.126 10.684h-2.232v-10.684h2.232zm9.15-7.618h-.03v7.618h-2.083v-10.684h2.352l4.24 7.44h.03v-7.44h2.083v10.684h-2.232zm18.807 1.86h4.464v5.758h-1.488l-.223-1.34c-.566.654-1.384 1.622-3.333 1.622-2.574 0-4.91-1.845-4.91-5.595 0-2.916 1.622-5.668 5.222-5.654 3.274 0 4.568 2.128 4.687 3.6h-2.232c0-.415-.758-1.754-2.335-1.754-1.593 0-3.066 1.1-3.066 3.838 0 2.917 1.592 3.675 3.11 3.675.49 0 2.128-.193 2.588-2.35h-2.484zm-100.667 141.345c.385-.487 1.109-1.407.096-2.802-.589-.81-1.994-1.611-4.278.047-1.452 1.054-2.34 2.575-1.304 4.004.679.935 1.68 1.203 2.819.687l1.225 1.688c-2 .936-4.06.679-5.531-1.347-1.56-2.15-1.228-4.744 1.563-6.77 2.824-2.05 5.45-1.465 6.96.617 1.757 2.42.802 4.608-.325 5.564zm5.126 1.1 1.465 1.485-5.821 5.741 3.485 3.535-1.287 1.268-4.95-5.019zm8.75 16.128c-1.57 2.105-3.515 2.06-5.532.556-.736-.55-1.695-1.543-1.819-2.866-.068-.814.247-1.586.823-2.404l3.958-5.306 1.706 1.273-3.875 5.193c-.831 1.114-.55 2.088.229 2.669 1.148.858 2.032.649 2.755-.322l3.933-5.27 1.705 1.272zm5.006 1.867 2.361 1.216c.668.344 1.182.985.781 1.764-.466.902-1.188 1.03-2.091.565l-2.274-1.172zm-3.793 2.987 3.758 1.938c1.816.936 2.457.877 3.22.642a2.9 2.9 0 0 0 1.709-1.433c.452-.878.614-1.89-.264-2.858.467.006 1.369.016 2.026-1.256.47-.915.615-2.56-1.56-3.682l-4.313-2.223zm5.565-6.424 2.125 1.097c.84.433 1.245.923.87 1.653-.363.704-1.09.689-1.82.313l-2.175-1.122zm13.038 9.545-4.628-1.508-.801 2.461 5.263 1.712-.547 1.68-7.206-2.346 3.09-9.494 6.982 2.272-.547 1.68-5.037-1.64-.65 1.997 4.627 1.507zm10.33-1.22 1.995.165c.887.073 2.266.424 2.023 3.363-.136 1.636-.846 3.292-2.536 3.151l-2.023-.167zm-2.72 8.061 4.309.358c3.284.273 4.385-2.734 4.562-4.867.156-1.885-.3-4.798-3.654-5.076l-4.392-.365zm18.334-4.227-4.853.37.196 2.58 5.519-.421.135 1.761-7.557.574-.758-9.954 7.32-.557.135 1.76-5.283.403.158 2.094 4.854-.372zm9.88-2.946 2.533-.804c.714-.227 1.532-.137 1.797.699.307.967-.114 1.567-1.082 1.875l-2.438.774zm-.577 4.795 4.03-1.28c1.947-.619 2.358-1.114 2.734-1.818.348-.65.438-1.467.199-2.222-.3-.941-.899-1.772-2.204-1.839.334-.324.98-.953.547-2.318-.312-.981-1.37-2.25-3.704-1.508l-4.624 1.469zm-.592-8.48 2.28-.723c.9-.286 1.533-.225 1.782.557.24.755-.287 1.258-1.068 1.506l-2.333.742zm11.08-1.343-1.22-2.375 2.313-1.188c1.088-.56 1.655.024 1.896.494.451.878.153 1.455-.812 1.95zm.739 5.906 1.818-.935-1.787-3.474 1.917-.986c1.373-.706 1.689-.274 2.312.938.47.915.78 1.335 1.119 1.692l2.053-1.056-.12-.234c-.472.054-.638-.267-1.306-1.565-.85-1.658-1.388-1.727-2.282-1.673.726-.749.788-1.844.286-2.82-.395-.767-1.723-2.288-4.085-1.074l-4.49 2.307zm8.958-14.28.023-.016 3.35 2.429-2.041 1.519zm1.915 5.648 2.956-2.2 1.742 1.269 1.818-1.353-8.783-5.909-1.93 1.436 3.106 10.134 1.762-1.311zm7.758-11.035 2.912-2.987 3.853 3.756-.97.996-1.042-.724c.069.804.182 1.983-1.089 3.288-1.679 1.723-4.437 2.082-6.947-.364-1.952-1.901-2.736-4.782-.377-7.182 2.135-2.191 4.403-1.67 5.466-.788l-1.455 1.493c-.28-.271-1.67-.638-2.699.419-1.039 1.065-1.262 2.769.57 4.555 1.951 1.902 3.498 1.331 4.488.316.32-.329 1.258-1.55.116-3.266l-1.621 1.663zm5.045-9.857.016-.023 3.953 1.228-1.447 2.092zm3.623 4.736 2.095-3.032 2.057.644 1.289-1.865-10.213-2.781-1.368 1.978 6.19 8.605 1.25-1.807z" fill="#302578"/></svg>