<svg viewBox="0 0 546.08 699.83" xmlns="http://www.w3.org/2000/svg"><path d="M269.68 699.83c-1.98 0-3.97-.49-5.76-1.47L259.6 696c-71.87-39.36-130-87.98-172.79-144.51C52.39 506.02 27.79 455.38 13.69 401c-24.61-94.93-8.56-167.88-8.4-168.6l1.58-7c1.23-5.42 6.01-9.29 11.57-9.35l7.19-.08c1.97-.02 3.93-.06 5.92-.11v-22.08l-7.9-13.41a11.987 11.987 0 0 1-1.66-6.09v-12.51c-.77-.82-1.43-1.75-1.95-2.79a11.992 11.992 0 0 1 1.05-12.53l14.01-19.01c2.26-3.07 5.85-4.88 9.66-4.88 3.81 0 7.4 1.81 9.66 4.88l14 19.01c2.07 2.8 2.78 6.32 2.07 9.63l33.68-11.47v-9.39c-5.03-8.52-19.62-33.27-19.62-33.27a11.987 11.987 0 0 1-1.66-6.09v-63.7c0-3.08 1.18-6.03 3.3-8.26l12.49-13.16a11.99 11.99 0 0 1 8.7-3.74h.01c3.29 0 6.44 1.36 8.71 3.76l7.36 7.79 4.74-11.21c1.86-4.4 6.13-7.27 10.89-7.34h.17c4.7 0 8.97 2.75 10.92 7.03l5.7 12.54 8.84-13.27c2.16-3.25 5.76-5.24 9.66-5.35h.33c3.78 0 7.34 1.78 9.61 4.82l11.07 14.83 9.56-14.36c2.21-3.32 5.93-5.33 9.92-5.35h.07c3.96 0 7.68 1.96 9.91 5.24l3.37 4.94c1.22-4.02 4.5-7.21 8.75-8.2l2.12-.5c.91-.21 1.83-.32 2.73-.32 4.46 0 8.65 2.49 10.72 6.61l2.99 5.94L261 6.26a11.997 11.997 0 0 1 20.06.01l5.47 8.33 2.99-5.94c2.07-4.12 6.26-6.61 10.72-6.61.91 0 1.82.1 2.73.32l2.12.5c4.26.99 7.54 4.18 8.75 8.2l3.37-4.93c2.24-3.28 5.95-5.24 9.91-5.24h.07c3.99.02 7.71 2.03 9.92 5.35l9.56 14.36 11.07-14.82c2.27-3.04 5.84-4.82 9.61-4.82h.32c3.9.1 7.5 2.1 9.66 5.34l8.84 13.27 5.7-12.54C393.82 2.75 398.09 0 402.79 0h.16c4.76.06 9.04 2.94 10.89 7.33l4.43 10.49 7.19-9.05c2.28-2.87 5.74-4.54 9.4-4.54h.22c3.74.07 7.23 1.88 9.45 4.89l12.3 16.74a12.03 12.03 0 0 1 2.33 7.11v62.88c0 2.14-.57 4.25-1.66 6.09 0 0-14.59 24.75-19.62 33.27v9.39l33.68 11.47c-.71-3.31 0-6.83 2.07-9.63l14-19.01c2.26-3.07 5.85-4.89 9.66-4.89 3.81 0 7.4 1.81 9.66 4.88l14.01 19.01a11.992 11.992 0 0 1-.9 15.32v12.51c0 2.14-.57 4.25-1.66 6.09l-7.9 13.41v21.97c3.29.11 6.56.18 9.81.22l7.14.07c5.53.06 10.31 3.89 11.56 9.27l1.62 6.96c.17.74 16.61 73.81-8.7 168.84-14.49 54.43-39.76 105.09-75.09 150.57-43.91 56.52-103.53 105.11-177.22 144.41l-4.34 2.31c-1.76.94-3.71 1.41-5.65 1.41z" fill="#fff"/><path d="M124.88 151.03l-80.57 27.44v66.68l80.56-28.26z" fill="#9198a1"/><path d="M124.63 150.32l-81.08 27.62v68.27l82.08-28.79v-67.44z"/><path d="M124.12 165.88l-79.06 26.99v12.1l79.06-26.99zm0-13.8l-79.06 26.93v12.27l79.06-26.99v-12.21zm0 27.48l-79.06 26.99v12.48l79.06-26.99zm0 14.06l-79.06 26.99v12.19l79.06-26.99v-12.19zm-79.06 40.77v9.7c1.95-.69 78.07-27.38 79.06-27.73v-8.96z" fill="#c3c8cc"/><path d="M124.12 192.04l-79.06 26.99v1.59l79.06-26.99zm0-14.07l-79.06 26.99v1.59l79.06-26.99zm0-13.68l-79.06 26.99v1.59l79.06-26.99zm0 41.53l-79.06 26.99v1.59l79.06-26.99z"/><path d="M56.95 230.08h1.01v10h-1.01zm25.55-9.34h1.01v10H82.5zm23.87-8h1.01v10h-1.01zm9.07-17h1.01v13h-1.01zm-21.85 7.67h1.01v13h-1.01zm-23.53 8h1.01v13h-1.01zm-21.85 7.33h1.01v13h-1.01zm8.07-16.66h1.01v13h-1.01zm23.53-8h1.01v13h-1.01zm23.87-7.67h1.01v13h-1.01zm14.45-19.33h1.01v13h-1.01zm-25.21 9h1.01v13h-1.01zm-25.88 8.66h1.01v13h-1.01zm-15.8-8.33h1.01v13h-1.01zm27.23-9.33h1.01v13h-1.01zm23.19-7.67h1.01v13h-1.01z"/><path d="M44.75 191.07l10.02-16.99v-21.26h2.5l-12.52-17-12.52 17h2.51v21.26z" fill="#9198a1"/><path d="M44.15 135.38l-13.4 18.19h3.24v20.71l10.77 18.27 10.77-18.27v-20.71h3.24l-14-19.01-.6.82zm.6 1.71c1.01 1.38 9.59 13.02 11.04 14.98h-1.77v21.8c-.19.32-8.15 13.83-9.27 15.73-1.12-1.9-9.08-15.4-9.27-15.73v-21.8h-1.77a9667.2 9667.2 0 0 1 11.04-14.98z"/><path d="M39 153.06h11.51v12.29H39z"/><path d="M417.2 151.03l80.58 27.44v66.68l-80.57-28.26z" fill="#9198a1"/><path d="M416.45 149.98v67.44l82.08 28.79v-68.27l-81.08-27.62z"/><path d="M417.96 165.88l79.06 26.99v12.1l-79.06-26.99zm0-13.8l79.06 26.93v12.27l-79.06-26.99zm0 27.48l79.06 26.99v12.48l-79.06-26.99zm0 14.06l79.06 26.99v12.19l-79.06-26.99zm79.06 40.77v9.7c-1.96-.69-78.07-27.38-79.06-27.73v-8.96z" fill="#c3c8cc"/><path d="M417.96 192.04l79.06 26.99v1.59l-79.06-26.99zm0-14.07l79.06 26.99v1.59l-79.06-26.99v-1.59zm0-13.68l79.06 26.99v1.59l-79.06-26.99zm0 41.53l79.06 26.99v1.59l-79.06-26.99z"/><path d="M484.12 230.08h1.01v10h-1.01zm-25.55-9.34h1.01v10h-1.01zm-23.86-8h1.01v10h-1.01zm-9.08-17h1.01v13h-1.01zm21.85 7.67h1.01v13h-1.01zm23.53 8h1.01v13h-1.01zm21.85 7.33h1.01v13h-1.01zm-8.07-16.66h1.01v13h-1.01zm-23.53-8h1.01v13h-1.01zm-23.86-7.67h1.01v13h-1.01zm-14.46-19.33h1.01v13h-1.01zm25.21 9h1.01v13h-1.01zm25.89 8.66h1.01v13h-1.01zm15.8-8.33h1.01v13h-1.01zm-27.23-9.33h1.01v13h-1.01zm-23.2-7.67h1.01v13h-1.01z"/><path d="M497.33 191.07l-10.01-16.99v-21.26h-2.51l12.52-17 12.52 17h-2.5v21.26z" fill="#9198a1"/><path d="M496.73 135.38l-13.4 18.19h3.24v20.71l10.76 18.27 10.77-18.27v-20.71h3.24l-14.01-19.01zm.6 1.71c1.01 1.38 9.59 13.02 11.04 14.98h-1.77v21.8c-.19.32-8.15 13.83-9.27 15.73-1.12-1.9-9.07-15.4-9.26-15.73v-21.8h-1.77a9667.2 9667.2 0 0 1 11.04-14.98z"/><path d="M491.57 153.06h11.51v12.29h-11.51z"/><path d="M402.32 14.93l-8.31 18.3v15.99h-14.07V33.19l-12.6-18.92-14.12 18.91v16.05h-13.48V33.2l-12.61-18.95-12.92 18.95v16.03h-12.59V15.14l-.96-.22-9.21 18.3v16h-8.16V32.89l-12.25-18.66-12.26 18.66v16.33h-8.16v-16l-9.21-18.3-.96.22v34.08h-12.59V33.19l-12.93-18.95-12.61 18.95v16.03h-13.48V33.17l-14.12-18.91-12.6 18.92v16.03h-14.07V33.22l-8.79-19.35-8.17 19.35V49.2h-11.4V33.12l-12.33-13.04-11.73 12.36v63.2s21.14 35.86 21.28 36.09v87.72h308.24v-87.72c.14-.23 21.28-36.09 21.28-36.09V33.18l-11.57-15.57-12.49 15.56V49.2h-11.4V33.22l-8.18-19.35-.48 1.05z" fill="#9198a1"/><path d="M138.59 13.59l-8.23 19.49v15.38h-9.89V32.84L107.39 19 94.9 32.16v63.7s21.07 35.75 21.28 36.09v88.27h309.75v-88.27c.21-.35 21.28-36.09 21.28-36.09V32.98l-12.3-16.74-13.27 16.71v15.51h-9.89V33.08L402.84 12l-9.57 21.06v15.4h-12.55V32.95l-13.32-20-14.91 19.97v15.54h-11.96V32.95l-13.36-20.07-13.69 20.06v15.51H302.4V14.54l-2.12-.5-9.56 18.99v15.43h-6.64v-15.8l-13.01-19.82-13.01 19.82v15.8h-6.65V33.03l-9.55-18.99-2.12.5v33.92h-11.07V32.95l-13.69-20.06-13.36 20.07v15.51h-11.96V32.93l-14.91-19.97-13.32 20v15.51h-12.55v-15.4L139.3 12l-.67 1.59z"/><path d="M113.73 124.84h314.63c1.76-2.98 3.92-6.65 6.12-10.38H107.61c2.2 3.73 4.36 7.4 6.12 10.38zm3.95 6.7v5.17H424.4v-5.17l3.07-5.21H114.61l3.07 5.21zm-10.96-18.58h328.64c2.18-3.7 4.34-7.36 6.12-10.38H100.6c1.78 3.02 3.94 6.68 6.12 10.38zM96.4 89.2h349.28V78.82H96.4zm0 6.25c.05.09 1.37 2.32 3.32 5.63h342.65c1.95-3.31 3.27-5.54 3.32-5.63V90.7H96.4zm21.28 53.15H424.4v-10.38H117.68zm0 47.51H424.4v-10.38H117.68zM96.4 77.32h349.28V66.94H96.4zm21.28 130.67H424.4v-10.38H117.68zm0-47.52H424.4v-10.38H117.68zm0 58.25H424.4v-9.23H117.68zm0-34.49H424.4v-10.38H117.68zm0-11.88H424.4v-10.38H117.68zM96.4 65.44h349.28V55.06H96.4z" fill="#c3c8cc"/><path d="M445.68 33.41c-.21-.34-9.74-12.66-10.84-14.41-1.16 1.71-11.47 14.06-11.71 14.41v16.55h-12.92V33.38c-.11-.25-6.32-14.96-7.44-17.62-.45.98-7.88 17.34-8.01 17.63v16.58h-15.58V33.41c-.23-.35-10.81-16.23-11.88-17.84-1.16 1.55-13.05 17.47-13.33 17.85v16.55h-14.99V33.41c-.23-.35-10.75-16.15-11.87-17.82-1.13 1.66-11.92 17.47-12.16 17.83v16.55h-14.1V16.2c-.85 1.69-8.51 16.9-8.65 17.2v16.57h-9.67V33.11c-.23-.35-10.37-15.79-11.49-17.51-1.13 1.72-11.27 17.17-11.5 17.51v16.86h-9.67V33.4c-.15-.29-7.8-15.5-8.65-17.2v33.77h-14.1V33.42c-.24-.35-11.03-16.16-12.16-17.83-1.11 1.67-11.63 17.47-11.86 17.82v16.56h-14.99V33.42c-.28-.37-12.17-16.29-13.33-17.85-1.07 1.61-11.64 17.49-11.87 17.84v16.56h-15.58V33.39c-.12-.27-6.82-14.99-8.01-17.62-1.12 2.66-7.34 17.37-7.44 17.62v16.58h-12.92V33.44c-.38-.4-10.58-11.2-11.57-12.24-.98 1.04-10.6 11.16-10.98 11.56v20.81h349.28V33.41z" fill="#bcbcbc"/><path d="M117.68 208.74H424.4v-.75H117.68zm0 0v.75H424.4v-.75zm0-11.88v.75H424.4v-.75zm0 0H424.4v-.75H117.68zm0-11.88v.75H424.4v-.75zm0 0H424.4v-.75H117.68zm0-11.88H424.4v-.75H117.68zm0 0v.75H424.4v-.75zm0-11.88v.75H424.4v-.75zm0 0H424.4v-.75H117.68zm0-11.87H424.4v-.75H117.68zm0 0v.75H424.4v-.75zm0-11.88v.75H424.4v-.75zm0 0H424.4v-.75H117.68zm-3.51-11.88c.15.26.3.51.44.75h312.86c.14-.24.29-.49.44-.75zm0 0h313.75c.14-.25.29-.49.44-.75H113.73c.15.26.3.5.44.75zm-7.01-11.88c.15.25.3.5.44.75h326.87c.15-.25.29-.5.44-.75zm0 0h327.76c.15-.25.29-.5.44-.75H106.72c.15.25.29.5.44.75zm-7-11.88h341.76c.15-.25.3-.51.44-.75H99.72c.14.24.29.5.44.75zm0 0c.15.25.29.49.44.75h340.88c.15-.26.29-.5.44-.75zM96.4 89.95h349.28v-.75H96.4zm0 0v.75h349.28v-.75zm0-11.88v.75h349.28v-.75zm0 0h349.28v-.75H96.4zm0-11.88h349.28v-.75H96.4zm0 0v.75h349.28v-.75zm0-11.88v.75h349.28v-.75zm349.28 0v-.75H96.4v.75z"/><path d="M107.49 101.41h18.83L138.55 125h-6.58zm327.41 0h-18.82l-12.23 23.58 6.63-.03zM141.7 208.08h1.51v11.33h-1.51zm-17.15-11.5h1.51v11.33h-1.51zm36.31 1h1.51v11.33h-1.51zm41.34-.5h1.51v11.33h-1.51zm38.83-.5h1.51v11.33h-1.51zm32.77 0h1.51v11.33h-1.51zm37.82 1h1.51v11.33h-1.51zm33.78-.5h1.51v11.33h-1.51zm35.8 0h1.51v11.33h-1.51zm34.79 0h1.51v11.33h-1.51zm-291.44-25h1.51v11.33h-1.51zm36.31 1h1.51v11.33h-1.51zm41.34-.5h1.51v11.33h-1.51zm38.83-.5h1.51v11.33h-1.51zm32.77 0h1.51v11.33h-1.51zm37.82 1h1.51v11.33h-1.51zm33.78-.5h1.51v11.33h-1.51zm35.8 0h1.51v11.33h-1.51zm34.79 0h1.51v11.33h-1.51zm-291.94-23.5h1.51v11.33h-1.51zm36.3 1h1.51v11.33h-1.51zm41.35-.5h1.51v11.33h-1.51zm38.83-.5h1.51v11.33h-1.51zm32.77 0h1.51v11.33h-1.51zm37.82 1h1.51v11.33h-1.51zm33.78-.5h1.51v11.33h-1.51zm35.8 0h1.51v11.33h-1.51zm34.79 0H417v11.33h-1.51zm-292.45-24.5h1.51v11.33h-1.51zm36.3 1h1.51v11.33h-1.51zm41.35-.5h1.51v11.33h-1.51zm38.83-.5h1.51v11.33h-1.51zm32.77 0h1.51v11.33h-1.51zm37.82 1h1.51v11.33h-1.51zm33.78-.5h1.51v11.33h-1.51zm35.8 0h1.51v11.33h-1.51zm34.79 0h1.51v11.33h-1.51z"/><path d="M121.02 101.58h1.51v11.33h-1.51zm36.31 1h1.51v11.33h-1.51zm41.34-.5h1.51v11.33h-1.51zm38.83-.5h1.51v11.33h-1.51zm32.77 0h1.51v11.33h-1.51zm37.82 1h1.51v11.33h-1.51zm33.78-.5h1.51v11.33h-1.51zm35.8 0h1.51v11.33h-1.51zm34.79 0h1.51v11.33h-1.51zm-291.44-24.5h1.51v11.33h-1.51zm36.31 1h1.51v11.33h-1.51zm41.34-.5h1.51v11.33h-1.51zm38.83-.5h1.51v11.33h-1.51zm32.77 0h1.51v11.33h-1.51zm37.82 1h1.51v11.33h-1.51zm33.78-.5h1.51v11.33h-1.51zm35.8 0h1.51v11.33h-1.51zm34.79 0h1.51v11.33h-1.51zm26.23.5h1.51v11.33h-1.51zm-.51-23h1.51v11.33h-1.51zm-317.16-1.5h1.51v11.33h-1.51zm36.31 1h1.51v11.33h-1.51zm41.34-.5h1.51v11.33h-1.51zm38.83-.5h1.51v11.33h-1.51zm32.77 0h1.51v11.33h-1.51zm37.82 1h1.51v11.33h-1.51zm33.78-.5h1.51v11.33h-1.51zm35.8 0h1.51v11.33h-1.51zm34.79 0h1.51v11.33h-1.51zm-229.75 153.5h1.51v11.33h-1.51zm40.33-.17h1.51v10.83h-1.51zm34.8.5h1.51v10.83h-1.51zm34.28 0h1.51v10.83h-1.51zm37.32 0h1.51v10.83h-1.51zm35.29 0h1.51v10.83h-1.51zm33.28 0h1.51v10.83h-1.51zm-258.83-24.3h1.51v13.3h-1.51zm41.01 0h1.51v13.3h-1.51zm40.33-.2h1.51v12.72h-1.51zm34.79.59h1.51v12.72h-1.51zm34.29 0h1.51v12.72h-1.51zm37.31 0h1.51v12.72h-1.51zm35.3 0h1.51v12.72h-1.51zm33.28 0H397v12.72h-1.51zm-256.82-23.92h1.51v11.33h-1.51zm41.01 0h1.51v11.33h-1.51zm40.34-.17h1.51v10.83h-1.51zm34.79.5h1.51v10.83h-1.51zm34.29 0h1.51v10.83h-1.51zm37.31 0h1.51v10.83h-1.51zm35.29 0h1.51v10.83h-1.51zm33.28 0h1.51v10.83h-1.51zm-256.81-23.33h1.51v11.33h-1.51zm41.01 0h1.51v11.33h-1.51zm40.34-.17h1.51v10.83h-1.51zm34.79.5h1.51v10.83h-1.51zm34.28 0h1.51v10.83h-1.51zm37.32 0h1.51v10.83h-1.51zm35.29 0h1.51v10.83h-1.51zm33.28 0h1.51v10.83h-1.51zm-256.82-23.83h1.51v11.33h-1.51zm-24.71 0h1.51v11.33h-1.51zm65.72 0h1.51v11.33h-1.51zm40.34-.17h1.51v10.83h-1.51zm34.79.5h1.51v10.83h-1.51zm34.29 0h1.51v10.83h-1.51zm37.31 0h1.51v10.83h-1.51zm35.3 0h1.51v10.83h-1.51zm33.28 0h1.51v10.83h-1.51zm32.77.5h1.51v10.83h-1.51zM137.16 91.08h1.51v11.33h-1.51zm-33.79-.5h1.51v11.33h-1.51zm-.5-23h1.51v11.33h-1.51zm75.3 23.5h1.51v11.33h-1.51zm40.34-.17h1.51v10.83h-1.51zm34.79-1h1.51v12.33h-1.51zm34.29-1h1.51v13.33h-1.51zm37.31 2.5h1.51v10.83h-1.51zm35.29 0h1.51v10.83h-1.51zm33.28 0h1.51v10.83h-1.51zm34.79-2h1.51v10.83h-1.51zM136.65 66.08h1.51v11.33h-1.51zm41.01 0h1.51v11.33h-1.51zm40.34-.17h1.51v10.83H218zm34.79.5h1.51v10.83h-1.51zm34.29 0h1.51v10.83h-1.51zm37.31 0h1.51v10.83h-1.51zm35.3 0h1.51v10.83h-1.51zm33.28 0h1.51v10.83h-1.51z"/><path d="M243.3 61.74h55.1v19.02h-55.1z"/><path d="M243.24 61.74h8.57v36.5h-8.57z" fill="#9198a1"/><path d="M251.82 61.24h-9.08v37.5h9.58v-37.5zm-.51 1v35.5h-7.56v-35.5z"/><path d="M243.5 86.74h8.07v1h-8.07zm0-14.5h8.07v1h-8.07z"/><path d="M266.57 61.74h8.57v36.5h-8.57z" fill="#9198a1"/><path d="M275.14 61.24h-9.08v37.5h9.58v-37.5zm-.51 1v35.5h-7.56v-35.5z"/><path d="M266.82 86.74h8.07v1h-8.07zm0-14.5h8.07v1h-8.07z"/><path d="M289.89 61.74h8.57v36.5h-8.57z" fill="#9198a1"/><path d="M298.46 61.24h-9.08v37.5h9.58v-37.5zm-.51 1v35.5h-7.56v-35.5z"/><path d="M290.14 86.74h8.07v1h-8.07zm0-14.5h8.07v1h-8.07zM142.87 54.41h1.51v72h-1.51zm254.64-1h1.51v72h-1.51zm-129.29 70.57l-5.73 7.48c-.72.95-74.32 94.76-236.73 96.51l-7.19.08-1.59 7.01c-.63 2.79-59.99 281.54 248.37 450.41l4.32 2.36 4.34-2.31c316.36-168.73 255.63-447.71 254.98-450.51l-1.62-6.96-7.15-.07c-166.68-1.74-242.58-95.66-243.32-96.6l-7.25-9.25-1.43 1.87z"/><path d="M269.69 128.06l4.35 5.55c.76.96 77.7 96.23 246.15 98 0 0 2.68.03 4.29.04.36 1.56.97 4.18.97 4.18.18.78 5.02 22.95 5.02 58.17 0 90.66-32.05 267.71-258.16 388.31 0 0-1.63.87-2.61 1.39-.97-.53-2.59-1.42-2.59-1.42C46.9 561.68 15.62 384.89 15.62 294.21c0-35.32 4.75-57.57 4.92-58.35 0 0 .6-2.63.95-4.21 1.62-.02 4.32-.04 4.32-.04 164.4-1.77 238.85-96.98 239.58-97.94s2.68-3.5 4.29-5.6z" fill="#ffd330"/><path d="M268.44 146.89c-19.37 21.48-93.66 91.85-236.51 95.36l-1.51.04-.24 1.49c-1.37 8.4-3.66 26.11-3.66 50.27 0 90.33 31.49 259.38 242.37 376.6l.87.48.88-.48c216.59-117.23 248.94-286.28 248.94-376.62 0-24.17-2.36-41.86-3.77-50.26l-.25-1.48-1.5-.04c-146.77-3.45-223.04-73.88-242.93-95.38l-1.35-1.46-1.33 1.48z"/><path d="M124.6 449h358.75c26.18-59.54 32.58-115.02 32.58-154.97 0-22.82-2.1-39.52-3.5-48.22-144.36-3.87-220.82-71.98-242.62-95.06-21.26 23.08-95.75 91.1-236.24 95.05-1.36 8.71-3.41 25.43-3.41 48.24 0 39.95 6.23 95.42 31.71 154.95h62.73z" fill="#003ca6"/><path d="M485.29 450.29h.65V449h-2.59l-.57 1.29zM199.23 491.6h35.49v-1.29h-15.49v.57-.57H198.59v1.29zm235.87 19.65H95.43s.06.09.09.14h353.24s.06-.09.1-.14h-13.77zm-20.79-60.96h35.49V449h-36.13v1.29h.65zm-36.13 0h35.49V449h-36.13v1.29h.65z"/><path d="M163.1 491.6h35.49v-1.29H183.1v.57-.57h-20.65v1.29zm144.53 0h35.49v-1.29h-15.49v.57-.57H306.99v1.29zm-72.26 0H270.85v-1.29h-15.49v.57-.57h-20.64v1.29zm108.4 0H379.25v-1.29h-15.49v.57-.57h-20.64v1.29zm-1.73-41.31h35.49V449H341.4v1.29h.65zM271.5 491.6h35.49v-1.29H291.5v.57-.57h-20.65v1.29zm34.41-41.31h35.49V449h-36.13v1.29h.65zM126.97 491.6H162.45v-1.29h-15.49v.57-.57h-20.64v1.29zm34.41-41.31h35.49V449h-36.13v1.29h.65zm36.13 0H233V449h-36.13v1.29h.65zM90.19 491.6v-1.29h-7.67l.75 1.29h6.93zm33.76-41.31h.65V449H88.47v1.29h35.49z"/><path d="M125.24 450.29h35.49V449H124.6v1.29h.65zm.43 41.31h.65v-1.29h-15.49v.57-.57H90.19v1.29h.64zm107.97-41.31h35.49V449H233v1.29h.65zm36.14 0h35.49V449h-36.13v1.29h.65zm-181.96 0h.65V449h-26.6c.18.43.37.86.56 1.29zm384.34 19.08v.86-.86h-36.13v.86-.86H399.9v.86-.86h-36.13v.86-.86h-36.13v.86-.86h-36.13v.86-.86h-36.13v.86-.86h-36.13v.86-.86h-36.13v.86-.86h-36.13v.86-.86h-36.13v.86-.86H74.73v.86-.86h-3.41c.21.43.43.86.64 1.29h18.25v-1 1h36.13v-1 1h36.13v-1 1h36.13v-1 1h36.13v-1 1h36.13v-1 1h36.13v-1 1h36.13v-1 1h36.13v-1 1h36.13v-1 1h36.13v-1 1H473l.66-1.29zM449.8 458.9v.72-.72h-36.13v.72-.72h-36.13v.72-.72h-36.13v.72-.72h-36.13v.72-.72h-36.13v.72-.72h-36.13v.72-.72h-36.13v.72-.72h-36.13v.72-.72h-36.13v.72-.72H88.5v.72-.72H66.3l.6 1.29h7.83v-.57.57h36.13v-.57.57h36.13v-.57.57h36.13v-.57.57h36.13v-.57.57h36.13v-.57.57h36.13v-.57.57h36.13v-.57.57h36.13v-.57.57h36.13v-.57.57h36.13v-.57.57h36.13v-.57.57h6.05c.21-.43.41-.86.61-1.29zm-13.77 31.98v-.57H415.39v1.29h36.13v-1.29h-15.49zm15.49-11.04v.72-.72h-36.13v.72-.72h-36.13v.72-.72h-36.13v.72-.72H307v.72-.72h-36.13v.72-.72h-36.13v.72-.72h-36.13v.72-.72h-36.13v.72-.72h-36.13v.72-.72H90.22v.72-.72H76.73c.23.43.47.86.7 1.29h33.44v-1.15 1.15H147v-1.15 1.15h36.13v-1.15 1.15h36.13v-1.15 1.15h36.13v-1.15 1.15h36.13v-1.15 1.15h36.13v-1.15 1.15h36.13v-1.15 1.15h36.13v-1.15 1.15h36.13v-1.15 1.15h31.37l.72-1.29h-16.59z"/><path d="M452.16 491.6h9.2c.26-.43.51-.86.77-1.29h-10.62v1.29zm-72.26 0h35.49v-1.29H399.9v.57-.57h-20.65v1.29zm71.62 9.18v.43-.43h-36.13v.43-.43h-36.13v.43-.43h-36.13v.43-.43H307v.43-.43h-36.13v.43-.43h-36.13v.43-.43h-36.13v.43-.43h-36.13v.43-.43h-36.13v.43-.43H90.22v.43-.43h-1.43c.27.43.53.86.8 1.29h365.36c.27-.43.54-.86.82-1.29h-4.21zm-1.72-50.49h32.97l.57-1.29h-33.55v1.29zm-266.7 30.84h.65v9.18h-.65zm35.48 0h.65v9.18h-.65zm72.92 0h.65v9.18h-.65zm-.65 0h.65v9.18h-.65zm-36.13 0h.65v9.18h-.65z"/><path d="M219.23 481.13h.64v9.18h-.64zm36.13 0h.64v9.18h-.64zm143.89 0h.65v9.18h-.65zm.65 0h.65v9.18h-.65zm-72.92 0h.65v9.18h-.65zm36.78 0h.64v9.18h-.64zm71.62 0h.65v9.18h-.65zm.65 0h.65v9.18h-.65zm-108.4 0h.65v9.18h-.65z"/><path d="M363.12 481.13h.65v9.18h-.65zm-216.8 0h.65v9.18h-.65zm-35.49 0h.64v9.18h-.64z"/><path d="M146.96 481.13h.65v9.18h-.65zm-36.78 0h.65v9.18h-.65zm72.27 0h.65v9.18h-.65zm269.07 10.47h.65v9.18h-.65zm-361.98 0h.65v9.18h-.65zm216.8 0h.64v9.18h-.64zm144.53 0h.65v9.18h-.65zm-71.62 0h.65v9.18h-.65zm-36.77 0h.64v9.18h-.64z"/><path d="M378.61 491.6h.65v9.18h-.65zm36.78 0h.65v9.18h-.65zm-.65 0h.65v9.18h-.65zm-107.75 0h.65v9.18h-.65zm-109.05 0h.64v9.18h-.64zm145.18 0h.65v9.18h-.65zm-180.67 0h.65v9.18h-.65zm107.76 0h.65v9.18h-.65zm-35.49 0h.65v9.18h-.65z"/><path d="M234.08 491.6h.65v9.18h-.65zm-35.49 0h.65v9.18h-.65zm-72.27 0h.65v9.18h-.65zm-36.13 0h.65v9.18h-.65z"/><path d="M125.67 491.6h.65v9.18h-.65zm36.14 0h.65v9.18h-.65zm109.04 0h.65v9.18h-.65zm-124.82 10.47h1.29v9.18h-1.29zm144.53 0h1.29v9.18h-1.29zm-36.13 0h1.29v9.18h-1.29zm108.4 0h1.29v9.18h-1.29zm36.13 0h1.29v9.18h-1.29zm36.14 0h1.29v9.18h-1.29zm-216.8 0h1.29v9.18h-1.29zm-108.4 0h1.29v9.18h-1.29zm72.26 0h1.29v9.18h-1.29zm144.54 0h1.29v9.18h-1.29zm16.42-31.41h.65v9.18h-.65zm-216.8 0h.65v9.18h-.65zm35.49 0h.65v9.18h-.65z"/><path d="M125.67 470.66h.65v9.18h-.65zm36.78 0h.65v9.18h-.65zm-72.91 0h.65v9.18h-.65zm108.4 0h.64v9.18h-.64zm216.8 0h.65v9.18h-.65z"/><path d="M90.19 470.66h.65v9.18h-.65zm288.42 0h.65v9.18h-.65zm72.26 0h.65v9.18h-.65zm-143.88 0h.65v9.18h-.65zm-108.4 0h.65v9.18h-.65zm107.75 0h.64v9.18h-.64zm109.05 0h.65v9.18h-.65zm-72.91 0h.64v9.18h-.64zm-108.4 0h.65v9.18h-.65z"/><path d="M234.72 470.66h.65v9.18h-.65zm216.8 0h.65v9.18h-.65zm-181.31 0h.65v9.18h-.65z"/><path d="M270.85 470.66h.65v9.18h-.65zm108.4 0h.65v9.18h-.65zm-160.02-10.47h.64v9.18h-.64zm-36.78 0h.65v9.18h-.65zm217.45 0h.65v9.18h-.65zm-289.07 0h.64v9.18h-.64zm361.33 0h.65v9.18h-.65z"/><path d="M471.52 460.19h.65v9.18h-.65zm-252.94 0h.65v9.18h-.65zm216.8 0h.65v9.18h-.65zm-252.28 0h.65v9.18h-.65zm180.02 0h.65v9.18h-.65zm72.91 0h.65v9.18h-.65zm-36.78 0h.65v9.18h-.65zm-72.27 0h.65v9.18h-.65zm-216.8 0h.65v9.18h-.65zm145.18 0h.64v9.18h-.64zm-109.04 0h.65v9.18h-.65zm145.18 0h.65v9.18h-.65zm-.65 0h.65v9.18h-.65z"/><path d="M146.96 460.19h.65v9.18h-.65zm-72.91 0h.65v9.18h-.65zm.65 0h.65v9.18h-.65zm180.02 0h.65v9.18h-.65zm72.91 0h.65v9.18h-.65zm36.13 0h.64v9.18h-.64zm13.13-9.9v8.61h.65v-8.61z"/><path d="M377.53 450.29v8.61h.65v-8.61zm-36.13 0v8.61h.65v-8.61zm-.65 0v8.61h.65v-8.61zm72.27 0v8.61h.65v-8.61zm-288.42 0v8.61h.65v-8.61zm325.84 8.61v-8.61h-.65v8.61z"/><path d="M123.95 450.29v8.61h.65v-8.61zm325.2 8.61h.65v-8.61h-.65zm-143.88-8.61v8.61h.65v-8.61zm108.39 0v8.61h.65v-8.61zm-181.31 0v8.61h.65v-8.61zm-35.48 0v8.61h.65v-8.61zm107.75 0v8.61h.65v-8.61zm-108.4 0v8.61h.65v-8.61zM89.11 458.9v-8.61h-.65v8.61zm71.62-8.61v8.61h.65v-8.61z"/><path d="M88.47 458.9v-8.61h-.65v8.61zm180.66-8.61v8.61h.65v-8.61zm-109.04 0v8.61h.65v-8.61zm72.91 0v8.61h.65v-8.61z"/><path d="M268.49 450.29v8.61h.65v-8.61zm166.5 80.19v1.14h.65v-1.99c-.22.28-.43.57-.65.85zm-107.75-7.47v8.61h.65v-8.61z"/><path d="M326.6 523.01v8.61h.65v-8.61zm109.04 6.62v-6.62h-.65v7.47c.22-.28.43-.57.65-.85zm-36.78-6.62v8.61h.65v-8.61zm-36.13 0v8.61h.65v-8.61z"/><path d="M436.28 528.78v-5.77h-.65v6.62c.22-.28.43-.57.65-.85zm-72.91-5.77v8.61h.65v-8.61zm-144.53 0v8.61h.65v-8.61zm71.62 0v8.61h.65v-8.61zm-35.49 0v8.61h.65v-8.61z"/><path d="M218.2 523.01v8.61h.65v-8.61zm-107.76 0v8.61h.65v-8.61z"/><path d="M109.79 523.01v8.61h.65v-8.61zm36.79 0v8.61h.65v-8.61zm107.75 0v8.61h.65v-8.61zm-71.62 0v8.61h.65v-8.61zm108.4 0v8.61h.65v-8.61zm-109.05 0v8.61h.65v-8.61zm-36.13 0v8.61h.65v-8.61z"/><g fill="#c3c8cc"><path d="M450.44 450.29v8.61h28.38c1.36-2.88 2.68-5.75 3.95-8.61zm-14.05 60.96h12.47c2.08-3.06 4.09-6.12 6.05-9.18h-18.52zm-326.49-9.18H89.55c1.9 3.06 3.86 6.12 5.88 9.18h14.46v-9.18zm73.84-41.88h34.84v9.18h-34.84zm231.65 30.12h19.99v-9.18h-34.84v9.18zm.64 1.29h34.84v9.18h-34.84zm-289.71-1.29h20v-9.18h-34.85v9.18zm-35.49 1.29h34.84v9.18H90.83zm36.14 0h34.84v9.18h-34.84zm35.48-1.29h20v-9.18h-34.84v9.18zm.65 1.29h34.84v9.18H163.1zm35.49-1.29h19.99v-9.18h-34.84v9.18zm.64 1.29h34.84v9.18h-34.84zm35.49-1.29h20v-9.18h-34.85v9.18zm.65 1.29h34.84v9.18h-34.84zm35.48-1.29h20v-9.18h-34.84v9.18zm.65 1.29h34.84v9.18H271.5zm35.49-1.29h19.99v-9.18h-34.84v9.18zm.64 1.29h34.84v9.18h-34.84zm35.49-1.29h20v-9.18h-34.85v9.18zm.65 1.29h34.84v9.18h-34.84zm35.48-1.29h20v-9.18h-34.84v9.18zm.65 1.29h34.84v9.18H379.9zm36.13-20.94h34.84v9.18h-34.84zm-15.49-10.47h34.84v9.18h-34.84zm-20.64 10.47h34.84v9.18H379.9zm-15.49-10.47h34.84v9.18h-34.84zm-20.64 10.47h34.84v9.18h-34.84zm-15.5-10.47h34.84v9.18h-34.84zm-20.64 10.47h34.84v9.18h-34.84zm-15.49-10.47h34.84v9.18h-34.84zm-20.64 10.47h34.84v9.18H271.5zm-15.49-10.47h34.84v9.18h-34.84zm-20.64 10.47h34.84v9.18h-34.84zm-15.5-10.47h34.84v9.18h-34.84zm-20.64 10.47h34.84v9.18h-34.84zm-36.13 0h34.84v9.18H163.1zm-15.49-10.47h34.84v9.18h-34.84zm-20.64 10.47h34.84v9.18h-34.84zm-15.5-10.47h34.84v9.18h-34.84zm-20.64 10.47h34.84v9.18H90.83zm-15.49-10.47h34.84v9.18H75.34zm14.2 10.47H71.93a403 403 0 0 0 4.76 9.18h12.85zm20.64 19.65v-9.18H77.39c1.65 3.06 3.36 6.12 5.12 9.18zm-20.64 1.29h-6.28c1.77 3.06 3.61 6.12 5.49 9.18h.79zm36.42 20.94H96.29c2.04 3.06 4.13 6.12 6.29 9.18h23.38zm-14.77-10.47h34.84v9.18h-34.84zm16.06 10.47h34.84v9.18h-34.84zm20.07-10.47h34.84v9.18h-34.84zm16.07 10.47h34.84v9.18h-34.84zm20.06-10.47h34.84v9.18h-34.84zm16.07 10.47h34.84v9.18h-34.84zm20.07-10.47h34.84v9.18h-34.84zm16.06 10.47h34.84v9.18h-34.84zm20.07-10.47h34.84v9.18h-34.84zm16.07 10.47h34.84v9.18h-34.84zm20.06-10.47h34.84v9.18h-34.84zm16.07 10.47h34.84v9.18h-34.84zm20.07-10.47h34.84v9.18h-34.84zm16.06 10.47h34.84v9.18h-34.84zm20.07-10.47h34.84v9.18h-34.84zm16.07 10.47h34.84v9.18h-34.84zm20.06-10.47h34.84v9.18h-34.84zm16.07 10.47v9.18h25.2c2.22-3.06 4.37-6.12 6.46-9.18zm35.84-20.94v9.18h3.56c1.94-3.06 3.82-6.12 5.64-9.18zm-15.49-1.29h25.46c1.81-3.06 3.56-6.12 5.26-9.18h-30.72zm15.49-10.47h15.95c1.69-3.07 3.32-6.13 4.89-9.18h-20.84zm-15.49-19.65h34.84v9.18h-34.84zm-22.36-9.9v8.61h34.84v-8.61zm-36.13 0v8.61h34.84v-8.61zm-36.14 0v8.61h34.84v-8.61zm-36.13 0v8.61h34.84v-8.61zm-36.13 0v8.61h34.84v-8.61zm-36.14 0v8.61h34.84v-8.61zm-36.13 0v8.61h34.84v-8.61zm-36.13 0v8.61h34.84v-8.61zm-36.14 0v8.61h34.84v-8.61zm-36.13 0v8.61h34.84v-8.61zm-1.29 0H62.43c1.24 2.86 2.52 5.73 3.84 8.61h21.55zm-13.77 9.9h-7.18c1.42 3.05 2.9 6.11 4.42 9.18h2.76zm29.45 62.82c2.04 2.87 4.14 5.74 6.29 8.61v-8.61h-6.3zm7.59 0v8.61h34.84v-8.61zm36.13 0v8.61h34.84v-8.61zm36.13 0v8.61h34.84v-8.61zm36.14 0v8.61h34.84v-8.61zm36.13 0v8.61h34.84v-8.61zm36.13 0v8.61h34.84v-8.61zm36.14 0v8.61h34.84v-8.61zm36.13 0v8.61h34.84v-8.61zm70.97 0h-34.84v8.61h33.96c.29-.38.59-.76.88-1.14zm1.29 5.77c1.46-1.92 2.89-3.85 4.29-5.77h-4.29zm36.53-59.41h.86c1.57-3.07 3.08-6.13 4.54-9.18h-5.4z"/></g><path d="M164.47 481.12c-26.39 0-47.78 22.86-47.78 51.05h95.56c0-28.2-21.39-51.05-47.78-51.05z" fill="#003ca6"/><path d="M213 532.93v-.75c0-28.57-21.77-51.8-48.53-51.8s-48.53 23.24-48.53 51.8v.75"/><path d="M273.04 481.12c-26.39 0-47.78 22.86-47.78 51.05h95.57c0-28.2-21.39-51.05-47.78-51.05z" fill="#003ca6"/><path d="M224.51 532.18v.75h97.07v-.75c0-28.57-21.77-51.8-48.53-51.8s-48.53 23.24-48.53 51.8zm108.57 0v.75h97.06v-.75c0-28.57-21.77-51.8-48.53-51.8s-48.53 23.24-48.53 51.8z"/><path d="M273.04 481.87c-25.52 0-46.31 22.59-46.97 50.62h93.95c-.67-28.03-21.46-50.62-46.97-50.62zm-108.57 0c-25.42 0-46.14 22.56-46.96 50.62h93.92c-.82-28.06-21.54-50.62-46.96-50.62zm217.14 0c-25.32 0-45.98 22.53-46.95 50.62h93.89c-.97-28.09-21.63-50.62-46.95-50.62z" fill="#003ca6"/><path d="M222.8 559.62l7.28-1.71c41.02-9.64 41.75-9.65 78.94-.98l11.58 2.68c43.69 10.02 78.5 3.48 89.08.96 8.6-9.3 16.54-18.66 23.83-28.04l-316-.04c0 .14-7 .16-7 .16 6.98 9.23 14.57 18.43 22.77 27.57 13.2 2.04 56.5 7.64 89.51-.61zm64.91 75.17q-16.25-4.16-34.36.51l-3.43.88c-8.35 2.29-17.72 2.76-25.97 2.5a594.387 594.387 0 0 0 34.3 21.65c.75-.13 1.48-.29 2.18-.5l1.47-.42c9.09-2.57 9.94-2.58 18.28-.24 0 0 2.32.65 2.33.65 11.71-6.7 22.85-13.56 33.46-20.56-6.67-.14-14.34-.97-22.66-3.06l-5.6-1.42z" fill="#00ba3d"/><path d="M318.37 569.37l-11.62-2.69q-35.26-8.22-74.38.98s-7.29 1.71-7.22 1.69c-27.8 6.94-61.42 4.76-81.11 2.46 7.16 7.43 14.76 14.82 22.81 22.12 13.66 1.65 43.02 4.16 66.02-1l5.75-1.21c32.54-6.88 33.12-6.88 62.64-.7l9.15 1.91c28.5 5.87 52.19 3.7 64.21 1.78a479.66 479.66 0 0 0 23.1-21.65c-17.31 2.5-45.63 4.06-79.35-3.67z" fill="#00ba3d"/><path d="M308.39 602.7l-9.18-1.91q-27.73-5.81-58.52.69s-5.76 1.21-5.7 1.2c-18.19 4.08-39.5 3.74-55.17 2.57a522.92 522.92 0 0 0 27.76 21.87c7.82 1.19 25.82 3.21 39.77-.61l3.5-.9c20.21-5.22 20.95-5.23 39.34-.52l5.56 1.41c15.85 3.99 29.18 2.84 36.58 1.55a541.845 541.845 0 0 0 28.53-21.72c-13.52.92-31.71.64-52.47-3.63z" fill="#00ba3d"/><path d="M225.15 569.34c-.07.02 7.22-1.69 7.22-1.69q39.12-9.2 74.38-.98l11.62 2.69c33.71 7.73 62.03 6.17 79.35 3.67a461.8 461.8 0 0 0 11.97-12.46c-10.58 2.52-45.38 9.06-89.08-.96l-11.58-2.68c-37.19-8.67-37.93-8.66-78.94.98l-7.28 1.71c-33.02 8.25-76.31 2.65-89.51.61 3.47 3.87 7.05 7.73 10.75 11.57 19.69 2.3 53.3 4.49 81.11-2.46zm85.26 23.57l-9.15-1.91c-29.51-6.19-30.1-6.18-62.64.7l-5.75 1.21c-23 5.16-52.36 2.65-66.02 1 4.2 3.8 8.53 7.58 12.98 11.34 15.66 1.16 36.98 1.51 55.17-2.57-.06.01 5.7-1.2 5.7-1.2q30.79-6.51 58.52-.69l9.18 1.91c20.76 4.28 38.94 4.56 52.47 3.63 4.73-3.86 9.31-7.75 13.76-11.65-12.02 1.93-35.71 4.1-64.21-1.78zm-14.66 33.6l-5.56-1.41c-18.39-4.71-19.12-4.7-39.34.52l-3.5.9c-13.94 3.82-31.94 1.8-39.77.61a547.7 547.7 0 0 0 16.36 11.56c8.25.26 17.62-.21 25.97-2.5l3.43-.88q18.11-4.67 34.36-.51l5.6 1.42a101.75 101.75 0 0 0 22.66 3.06c5.6-3.7 11.05-7.44 16.36-11.21-7.4 1.29-20.72 2.44-36.58-1.55zm-33.85 32.92l-1.47.42c-.69.21-1.42.37-2.18.5 3.78 2.22 7.62 4.42 11.53 6.6 4.32-2.35 8.56-4.72 12.73-7.11-.02 0-2.33-.65-2.33-.65-8.34-2.34-9.19-2.33-18.28.24z" fill="#c3c8cc"/><path d="M410.68 383.87c-11.16-7.39-32.24-1.6-35.83 12.96l-91.82-60.77 137.3-90.88s3.89-8.61-6.09-9.2c-8.85 5.61-15.62 10.34-15.62 10.34l-13.54-20.45-5.98 3.96 9.89 14.93-8.28 5.48-9.88-14.94-10.11 6.69 9.89 14.94-8.27 5.47-9.88-14.94-5.98 3.95 13.54 20.45-86.97 57.56-86.97-57.56 13.54-20.45-5.98-3.95-9.88 14.94-8.27-5.47 9.89-14.94-10.11-6.69-9.88 14.94-8.28-5.48 9.89-14.93-5.98-3.96-13.54 20.45s-6.78-4.73-15.62-10.34c-9.97.59-6.09 9.2-6.09 9.2l137.3 90.88-91.82 60.77c-3.59-14.56-24.66-20.35-35.83-12.96-12.52 8.29-17.12 30.25 6.11 38.67-.39 24.05 20.3 28.45 32.82 20.16 11.39-7.54 16.68-22.76 2.27-36.21l96.43-63.82 96.43 63.82c-14.41 13.45-9.12 28.67 2.27 36.21 12.52 8.29 33.21 3.89 32.82-20.16 23.24-8.41 18.64-30.38 6.11-38.67zm-241.46 50.01c-8.91 5.9-23.63 2.77-23.35-14.34-16.53-5.98-13.26-21.61-4.35-27.51 7.59-5.02 21.6-1.48 25.07 7.87l-.52.34 1.05 1.59c.22 1.1.34 2.24.26 3.46 1.85 1.3 3.4 2.65 4.68 4l.09.14h.01c8.58 9.22 4.78 19.32-2.95 24.44zm231-14.34c.28 17.11-14.44 20.24-23.35 14.34-7.74-5.12-11.54-15.22-2.95-24.45h.01l.09-.13c1.28-1.36 2.83-2.71 4.68-4-.08-1.23.04-2.36.26-3.46l1.05-1.59-.52-.34c3.47-9.36 17.48-12.9 25.07-7.87 8.91 5.9 12.18 21.53-4.35 27.51z" fill="#ffd330"/><path d="M233.4 261.45c4.62-.77 12.1 0 12.1-10.67v-45.86c0-10.67-7.48-9.9-12.1-10.67v-3.3c4.62 0 12.1.55 18.47.55 7.7 0 15.61-.55 23.31-.55 22.76 0 37.5 13.42 37.5 35.63s-12.76 38.16-38.82 38.16c-7.26 0-14.74-.55-21.99-.55-6.38 0-13.86.55-18.47.55v-3.3zm24.96-10.67c0 3.74 0 9.79 11.44 9.79 21.11 0 28.37-15.72 28.37-33.98 0-19.35-7.81-31.45-28.92-31.45-10.89 0-10.89 3.96-10.89 9.79v45.86zM132.3 344.14c0 3.74.77 7.7 1.43 10.45-2.42-.66-4.84-1.32-7.26-1.32-6.93 0-15.83 5.28-26.83 5.28-20.01 0-34.86-12.1-34.86-39.26 0-24.52 16.28-37.39 39.7-37.39 9.57 0 16.93 3.3 21.44 3.3 2.31 0 4.18-.77 5.83-2.86-.33 1.1-.55 5.83-.55 8.03 0 2.75.33 14.08.55 16.82h-4.07c-2.97-9.46-6.82-20.45-23.2-20.45-18.8 0-25.18 12.76-25.18 32.55 0 15.94 6.27 32.44 27.6 32.44 8.69 0 12.54-2.09 12.54-7.59v-13.2c0-5.72-4.51-7.92-12.32-7.92v-3.3c6.16 0 12.32.55 18.58.55 4.84 0 9.68-.55 14.63-.55v3.3c-6.16 0-8.03 2.75-8.03 7.92zm349.01-13.31c-1.76 8.91-9.79 27.71-33.43 27.71-21.11 0-32.44-18.03-32.44-39.26s11.88-37.39 36.4-37.39c9.13 0 16.06 3.3 20.34 3.3 2.31 0 4.18-.77 5.83-2.86-.33 1.1-.55 5.83-.55 8.03 0 2.75.33 14.08.55 16.82h-4.07c-2.86-9.46-6.49-20.45-22.1-20.45-17.81 0-21.88 18.25-21.88 32.55 0 15.94 7.7 29.91 22.76 29.91s21.55-10.78 24.19-18.36z" fill="#d40016"/></svg>