<svg viewBox="1.1 0 43.73 50" xmlns="http://www.w3.org/2000/svg"><clipPath id="a"><path d="M1.1 0h43.7v50H1.1z"/></clipPath><clipPath id="b"><path d="M0-3.5h46v56.9H0z"/></clipPath><g clip-path="url(#a)"><path clip-path="url(#b)" d="M44.8.9V.7c0-.3-.2-.5-.4-.6-.1-.1-.2-.1-.3-.1s-.3 0-.4.1l-.2.1c-1.1.8-2.8 1.4-4.7 1.8-1.7.4-3.6.6-5.2.6-1.7 0-3.5-.2-5.2-.6S25 1 23.4.3h-.1c-.1 0-.2-.1-.3-.1s-.2 0-.4.1h-.1c-1.2.7-2.9 1.3-4.9 1.7-1.8.4-3.7.6-5.3.6h-.1c-3.3 0-7-.9-9.9-2.5h-.1C2.1 0 2 0 1.9 0s-.3 0-.4.1c-.2.2-.4.4-.4.6v.2c.2 7.4 1.4 15 3.7 22.3q1.35 4.2 3.3 8.4c1.1 2.2 2.3 4.4 3.7 6.4 1.4 2.1 2.9 4 4.6 5.9 1 1.1 2 2.2 2.9 3.1 1.2 1.1 2.3 2 3.3 2.8h.1c.2.2.3.2.5.2.1 0 .3 0 .4-.1h.1c1.8-1.1 3.6-2.6 5.3-4.2 1.6-1.6 3.2-3.2 4.5-5 1.6-2.1 3.1-4.4 4.4-6.9 1.2-2.4 2.3-4.9 3.2-7.5.9-2.7 1.6-5.6 2.1-8.1.6-2.8 1-5.7 1.3-8.6.2-3.1.4-6 .3-8.7" fill="#fff"/><g clip-rule="evenodd" fill-rule="evenodd"><path clip-path="url(#b)" d="M2 .9c3 1.6 6.9 2.6 10.4 2.6 3.3 0 7.9-.9 10.6-2.4 3.4 1.6 7.2 2.4 10.6 2.4 3.5 0 7.9-.9 10.4-2.6.2 5.3-.6 11.7-1.7 17-.5 2.5-1.2 5.5-2.1 8-1.7 5-4.2 9.9-7.4 14.1-2.8 3.6-6.3 6.9-9.6 9.1C21 47.5 13.9 41.4 9 31.3c-1.2-2.5-2.3-5.2-3.2-8.3C3.7 16.7 2.1 9.3 2 .9" fill="#0e9d30"/><path clip-path="url(#b)" d="M23.1 47.6c5.8-4.1 10.1-10 13.2-16.3.6-1.2 1.1-2.5 1.6-3.8 1-2.7 1.8-5.5 2.5-8.3l1.2-5.4c.6-3.5 1.1-7.1 1.1-10.7-2 1.1-6.6 1.5-8.9 1.5-3.5 0-7.4-.8-10.6-2.2-3.2 1.5-7.3 2.3-10.6 2.3-3.2 0-5.9-.3-9-1.3.2 3.2.5 6.4 1.1 9.6.1.7.3 1.5.5 2.2 1.2 5.2 2.8 10.1 5 15 1.7 3.7 3.9 7.3 6.4 10.5 1.9 2.5 4.1 4.9 6.5 6.9" fill="#fff"/><path clip-path="url(#b)" d="M9.1 15.6c1 5.2 2.5 7 4.1 10.7.3.7.3 2.3.7 3 2.4 4.8 6 10.4 9.5 13.7 2.4-2.1 5.7-6.2 7.5-9.9.9-1.5 1.4-3.4 2.2-5.2 2.3-4.8 3.7-8.3 4.4-12.4z" fill="#fcea1b"/><path clip-path="url(#b)" d="M7.2 14.3c1.1 5.2 3 10.9 5.4 15.8 2.5 5.3 6.3 11.2 10.7 14.9 3.5-2.9 6.6-6.8 8.8-10.6 3.3-5.5 6.4-14.1 7.1-20.1zm27.4 1.3h2.9c-.5 3-1.5 5.8-2.9 9zM30 34.7c-1.3 2.2-2.9 4.5-4.6 6.3V15.6H30zm-9.1 5.8a44 44 0 0 1-4.5-6.5V15.7h4.5zm-9.2-17.2c-1-2.1-1.9-4.1-2.6-7.6h2.6z" fill="#0e9d30"/></g><path clip-path="url(#b)" d="M14.6 6.2v1.9c-1-.5-2.1-.7-3-.7-1 0-2.2.7-2.1 2.3 0 1.4 1 1.9 2.2 1.9 1 0 2.3-.3 3-1v1.8c-.7.6-2.1.9-3.1.9-1.3 0-2.4-.3-3.2-1-.7-.7-1.2-1.6-1.2-2.9 0-2.3 2.1-3.8 4.3-3.8 1 0 2.6.3 3.1.6m5.8 7V5.6h3.5c1.2 0 4.5.7 4.3 4.1-.1 2.3-1.8 3.5-4.1 3.5zm2.1-1.6h1.4c1 0 2.2-.4 2.2-2.1 0-1.6-1.1-2.1-2.3-2.1h-1.3zm11.9 1.6V7.3h-2.8V5.6H39v1.7h-2.4v5.9z"/></g></svg>