<svg viewBox="0 0 369.91 495.98" xmlns="http://www.w3.org/2000/svg"><path d="M122.27 63.33c12.27-4.89 48.79-27.3 62.81-40.1a256 256 0 0 0 62.83 40.1v357.04c-20.21 20.08-35.13 34.09-63.26 54.59-17.35-13.55-46.78-38.42-62.3-54.22z" fill="#fff"/><path d="M13.01 78.63c39.07 5.77 73.57-.9 109.34-15.7v358.43c-1.58-1.67-4.17-4.27-5.72-5.87a289 289 0 0 1-27.44-31.33c-6.14-8.34-12.43-16.68-18-25.51-5.79-9.09-11.09-18.49-16.22-27.96-4-7.39-7.59-15.01-11.08-22.69-2.5-5.52-4.6-11.24-6.67-16.93s-4.22-11.56-6.19-17.4c-1.17-3.49-2.2-7.02-3.15-10.58-1.67-5.94-3.34-11.88-4.61-17.88-1.17-5.22-2.02-10.49-3.02-15.73-.6-3.14-1.32-6.26-1.83-9.41-.52-3.15-.9-6.67-1.37-10.13-.55-3.97-1.18-7.91-1.67-11.88-.45-3.34-.57-6.67-.92-10.01s-.73-6.96-.93-10.44c-.7-12.88-1.12-25.81-1.24-38.72-.1-10.63 0-21.25 0-31.88 0-6.47.55-16.85.72-23.36.03-.9 0-3.24 0-5.01" fill="#df362a"/><path d="M357.23 78.63c-39.06 5.77-73.57-.9-109.33-15.7v358.43c1.67-1.67 4.17-4.27 5.72-5.87 9.89-9.77 19.06-20.24 27.44-31.33 6.12-8.34 12.41-16.68 18-25.51 5.79-9.09 11.08-18.49 16.22-27.96 4-7.39 7.59-15.01 11.06-22.69 2.52-5.52 4.6-11.24 6.67-16.93s4.22-11.56 6.17-17.4c1.17-3.49 2.2-7.02 3.15-10.58 1.67-5.94 3.34-11.88 4.6-17.88 1.17-5.22 2.04-10.49 3.04-15.73.6-3.14 1.3-6.26 1.82-9.41s.9-6.67 1.38-10.13c.55-3.97 1.18-7.91 1.67-11.88.43-3.34.57-6.67.92-10.01s.73-6.96.92-10.44c.7-12.88 1.12-25.81 1.25-38.72.1-10.63 0-21.25-.08-31.88 0-6.47-.55-16.85-.73-23.36 0-.9.1-3.24.1-5.01" fill="#3f9153"/><path d="M184.74 490.88l-.51-.38q-1.695-1.245-3.36-2.46c-2.56-1.86-5.2-3.78-7.71-5.8-1.27-1.01-2.55-2.03-3.83-3.05-6.02-4.78-12.24-9.72-18.14-14.87a622 622 0 0 1-24.51-22.57c-8.11-7.88-15.83-16.03-21.65-22.25-3.57-3.82-6.86-7.83-9.61-11.26-1.37-1.73-2.8-3.46-4.19-5.14-2.5-3.03-5.09-6.16-7.44-9.41-5.47-7.56-10.79-14.98-15.83-22.65-4.36-6.64-9.46-14.59-14.16-23.13-5.48-10.03-10.12-19.34-14.2-28.47-3.88-8.73-7.18-17.5-9.9-24.94-2.54-6.94-4.86-14.07-6.87-21.21-2.01-7.17-4.61-16.64-6.78-26.24-1.13-4.98-2-10.09-2.83-15.03l-.6-3.52c-.97-5.6-2.07-11.95-2.94-18.15-.51-3.65-.84-7.37-1.16-10.98-.08-.87-.15-1.73-.23-2.6-.11-1.21-.23-2.42-.35-3.64-.5-5.19-1.02-10.55-1.25-15.85-.38-6.86-.61-14.17-.77-23.7-.2-13.09-.37-24.92-.32-37.16 0-10.7.15-20.62.31-31.12.09-5.73.18-11.66.24-17.69 0-1.53.03-2.6.1-3.17l.13-1.07 6.25 1.22c4.42.88 13.28 2.47 18.54 2.9 7.9.67 12.24.74 20.11.85h.54c4.05.01 8.19-.24 12.23-.74 3.77-.44 7.73-1.1 12.11-2.01 6.49-1.36 13.32-3.07 20.29-5.09 8.53-2.53 16.88-5.9 24.82-10 7.91-3.86 15.7-8.18 23.18-12.84 8.45-5.49 16.69-12.07 23.96-17.87 3.79-3.02 7.33-6.28 11.08-9.73a445 445 0 0 1 4.81-4.39l.64-.57.64.57c.74.66 1.49 1.36 2.26 2.08.89.83 1.81 1.68 2.74 2.51l2.05 1.82c2.73 2.43 5.55 4.94 8.38 7.34l1.07.91c3.21 2.73 6.54 5.55 9.94 8.08a217 217 0 0 0 35.34 21.68c9.46 4.59 19.36 8.4 29.42 11.34 7.27 2.12 14.73 3.8 22.19 5.01 12.29 2.06 24.81 2.61 37.22 1.64 7.47-.43 14.91-1.63 22.13-3.58h.06c.24-.06.68-.16 1.19-.28 1.04-.24 2.34-.54 3.03-.64l1.11-.17v3.53c.05 7.18.11 14.36.17 21.55.06 7.24.12 14.49.17 21.73 0 4.86.07 9.79.14 14.57.1 7.27.21 14.79.07 22.19-.18 10.64-.69 21.99-1.59 35.74-.46 7.23-1.16 15.06-2.14 23.93-.65 5.77-1.6 12.05-2.91 19.21-.36 2-.72 4-1.07 5.99-1.08 6.13-2.2 12.47-3.63 18.63-1.74 7.52-4.11 17.39-7.06 27.02a359.4 359.4 0 0 1-19.17 49.67 342 342 0 0 1-18.42 34.03c-5.36 8.59-11.26 17.32-18.04 26.68-5.85 8.05-12.08 16-18.53 23.61-6.01 7.14-12.52 13.98-18.67 20.39-5.24 5.47-10.81 10.94-17.01 16.74-6.28 5.87-11.62 10.77-17.29 15.58-6.28 5.34-12.8 10.56-19.11 15.62l-2.77 2.22c-2.56 2.07-5.24 4.06-7.83 5.98l-1.53 1.14c-.62.44-1.25.82-1.92 1.22zM8.12 65.78c-.01.45-.02 1.05-.02 1.86-.06 6.05-.15 11.98-.24 17.71-.16 10.49-.31 20.4-.31 31.09-.05 12.23.12 24.05.32 37.13.15 9.5.39 16.78.76 23.63.23 5.26.75 10.59 1.24 15.75.12 1.21.23 2.43.35 3.64.08.87.16 1.74.23 2.6.32 3.58.65 7.28 1.15 10.87.87 6.17 1.96 12.5 2.93 18.08l.6 3.53c.83 4.91 1.7 10 2.81 14.92 2.17 9.56 4.75 18.99 6.76 26.14 2 7.08 4.3 14.17 6.83 21.06 2.71 7.4 6 16.14 9.85 24.81 4.06 9.08 8.68 18.35 14.13 28.32 4.67 8.48 9.73 16.38 14.07 22.99 5.01 7.64 10.32 15.04 15.78 22.58 2.31 3.2 4.88 6.31 7.36 9.31 1.39 1.68 2.83 3.43 4.21 5.17 2.72 3.39 5.98 7.37 9.51 11.14 5.8 6.2 13.5 14.33 21.59 22.19 7.91 7.69 16.13 15.26 24.43 22.5 5.86 5.12 12.06 10.04 18.06 14.81 1.28 1.02 2.56 2.03 3.84 3.05 2.47 1.99 4.98 3.82 7.64 5.75.95.69 1.91 1.38 2.86 2.09.54-.32 1.05-.64 1.52-.97l1.51-1.13c2.58-1.91 5.24-3.89 7.77-5.94l2.77-2.22c6.3-5.05 12.81-10.26 19.06-15.58 5.64-4.79 10.96-9.67 17.22-15.52 6.17-5.77 11.71-11.22 16.93-16.66 6.13-6.38 12.61-13.2 18.58-20.29 6.41-7.58 12.62-15.48 18.44-23.5 6.76-9.33 12.63-18.01 17.96-26.56 6.7-10.85 12.87-22.24 18.31-33.83a356.6 356.6 0 0 0 19.06-49.39c2.94-9.57 5.3-19.39 7.02-26.88 1.42-6.11 2.53-12.42 3.6-18.52.35-2 .71-4 1.07-6 1.3-7.11 2.25-13.35 2.89-19.07.97-8.84 1.67-16.63 2.13-23.83.9-13.71 1.41-25.04 1.59-35.64.13-7.37.03-14.87-.07-22.12-.07-4.78-.14-9.73-.14-14.59-.05-7.24-.11-14.48-.17-21.72-.06-7.19-.12-14.37-.17-21.56v-1.17c-.58.12-1.23.28-1.77.4-.51.12-.95.22-1.21.27-7.34 1.98-14.9 3.2-22.47 3.63-12.54.98-25.22.42-37.65-1.66-7.53-1.22-15.07-2.93-22.41-5.06a191 191 0 0 1-29.72-11.46 220 220 0 0 1-35.66-21.87c-3.45-2.56-6.79-5.4-10.03-8.15l-1.07-.91c-2.85-2.41-5.68-4.93-8.42-7.37l-2.05-1.82c-.95-.85-1.88-1.71-2.77-2.54-.54-.5-1.07-1-1.6-1.48-1.41 1.28-2.8 2.56-4.15 3.8-3.77 3.48-7.34 6.76-11.18 9.82-7.3 5.83-15.58 12.44-24.13 17.99-7.55 4.71-15.4 9.06-23.35 12.94-8.03 4.14-16.49 7.55-25.14 10.12-7.02 2.03-13.89 3.75-20.44 5.13-4.44.93-8.45 1.59-12.27 2.04a101 101 0 0 1-12.42.76h-.61c-7.92-.12-12.28-.18-20.24-.86-5.33-.44-14.29-2.05-18.74-2.93l-4.14-.81zm176.46 408l-.59-.49c-2.63-2.21-5.27-4.41-7.9-6.6-7.69-6.41-15.64-13.04-23.29-19.77-6.8-5.97-13.79-12.55-22.01-20.71a377 377 0 0 1-31.45-35.31c-15.24-19.12-28.56-39.99-39.57-62-5.48-11.17-9.63-20.31-13.07-28.78-3.85-9.5-7.1-19.41-9.78-27.85-2.29-7.26-4.03-14.45-5.87-22.07l-.04-.19c-1.7-7.01-3.26-14.46-4.79-22.75-.84-4.6-1.86-12.61-2.61-18.46-.18-1.42-.35-2.72-.49-3.83-.45-3.51-.69-5.5-.93-7.6-.2-1.7-.41-3.5-.76-6.27-.04-.33-.12-1.16-.2-2.02-.09-.92-.18-1.88-.23-2.3-2.72-31.97-2.14-61.94-1.52-93.66.07-3.81.15-7.66.22-11.53l.02-1.1 2.19.24c.85.1 1.59.18 2.34.25 5.38.45 16.44 1.08 22.22 1.08 6.4.19 12.85-.06 19.19-.75 7.44-.87 14.9-2.27 22.17-4.17 8.08-2.05 16.32-4.59 24.5-7.55 10.23-3.58 20.11-8.29 29.38-14 8.08-5.1 16.69-10.63 24.86-16.44 4.27-3.03 8.25-6.34 12.47-9.84 1.78-1.48 3.62-3 5.47-4.5l.62-.5.6.52c.6.52 1.22 1.05 1.84 1.59 1.9 1.64 3.86 3.33 5.86 4.99a237 237 0 0 0 34.1 23.85 218.5 218.5 0 0 0 34.21 15.92 204.6 204.6 0 0 0 28.54 7.83c11.66 2.37 23.59 3.47 35.47 3.28 4.93-.08 9.96-.54 14.82-.98 2.18-.2 4.43-.4 6.65-.57h3.08l.06.93c.05.69.04 1.17-.03 1.62.04 5.7.08 11.39.13 17.08.13 16.27.27 33.09.17 49.63-.04 8.79-.43 18.24-1.23 29.71-.57 8.22-1.33 15.73-2.35 22.95-.38 2.81-.71 5.67-1.04 8.44-.43 3.71-.88 7.55-1.45 11.33-.72 4.26-1.44 8.39-2.31 12.42-1.75 8.32-3.27 15.09-4.79 21.31-10.17 40.28-27.13 77.92-50.4 111.88-6.45 9.25-13.58 18.76-21.79 29.06-6.34 7.94-13.1 15.36-18.88 21.57-4.92 5.29-10.18 10.39-15.26 15.32l-2.19 2.12a443 443 0 0 1-35.58 30.87c-1.85 1.45-3.71 2.88-5.69 4.39-.82.62-1.65 1.26-2.51 1.92l-.61.47zM21.62 82.71c-.06 3.5-.13 6.98-.2 10.43-.62 31.67-1.2 61.59 1.51 93.41.05.39.14 1.37.23 2.31.08.84.16 1.65.2 1.97.35 2.78.56 4.58.76 6.28.25 2.1.48 4.08.93 7.58.14 1.11.31 2.41.49 3.83.74 5.83 1.76 13.81 2.59 18.35 1.52 8.26 3.08 15.67 4.77 22.64l.04.19c1.83 7.58 3.57 14.75 5.83 21.93 2.66 8.4 5.9 18.26 9.72 27.69 3.42 8.43 7.55 17.53 13 28.64 10.95 21.88 24.19 42.63 39.35 61.65a375 375 0 0 0 31.29 35.13c8.2 8.13 15.16 14.69 21.93 20.63 7.63 6.71 15.57 13.33 23.25 19.73 2.44 2.03 4.88 4.07 7.32 6.11.65-.5 1.28-.98 1.9-1.46 1.97-1.51 3.83-2.93 5.67-4.38 12.28-9.56 24.19-19.9 35.42-30.74l2.18-2.12c5.07-4.92 10.31-10 15.19-15.25 5.75-6.18 12.48-13.56 18.78-21.45 8.19-10.28 15.29-19.75 21.71-28.95 23.13-33.75 39.99-71.17 50.1-111.21 1.51-6.19 3.02-12.94 4.77-21.24.86-3.99 1.57-8.1 2.29-12.31.56-3.73 1-7.55 1.44-11.24.32-2.78.66-5.66 1.04-8.49 1.01-7.18 1.77-14.64 2.34-22.81.79-11.43 1.18-20.83 1.22-29.58.09-16.53-.04-33.35-.17-49.6-.05-5.72-.09-11.44-.13-17.18v-.09l.02-.09c.01-.08.03-.16.03-.28h-1.11c-2.19.17-4.43.37-6.59.57-4.89.44-9.96.9-14.96.98-12.01.2-24.08-.92-35.87-3.31-9.73-1.93-19.43-4.59-28.81-7.91-11.9-4.32-23.51-9.73-34.52-16.07a239 239 0 0 1-34.38-24.05c-2-1.68-3.97-3.37-5.88-5.01l-1.24-1.06c-1.64 1.33-3.26 2.68-4.84 3.99-4.24 3.52-8.25 6.85-12.58 9.93-8.21 5.84-16.85 11.38-24.96 16.5a154.5 154.5 0 0 1-29.75 14.18c-8.23 2.98-16.53 5.54-24.66 7.6-7.35 1.92-14.89 3.34-22.43 4.22-6.44.7-12.97.96-19.43.76-5.8 0-16.94-.63-22.36-1.09-.78-.07-1.53-.16-2.39-.25h-.07z"/><path d="M184.8 489.68c-3.76-2.78-7.49-5.37-11.04-8.24-7.38-5.88-14.83-11.68-21.94-17.89a612 612 0 0 1-24.47-22.53c-7.41-7.2-14.56-14.68-21.62-22.22-3.35-3.57-6.47-7.35-9.56-11.2-3.84-4.84-7.97-9.49-11.6-14.51-5.38-7.45-10.75-14.92-15.8-22.61s-9.78-15.19-14.12-23.06c-5.07-9.27-9.85-18.73-14.16-28.4-3.62-8.14-6.8-16.47-9.88-24.87-2.55-6.95-4.83-13.99-6.85-21.13-2.44-8.68-4.78-17.41-6.77-26.19-1.39-6.11-2.36-12.32-3.43-18.5s-2.09-12.11-2.93-18.12c-.62-4.48-.97-9.01-1.39-13.52-.61-6.47-1.31-12.95-1.59-19.44-.43-7.87-.64-15.78-.77-23.67-.19-12.39-.37-24.71-.32-37.14 0-16.73.38-32.07.56-48.8 0-.44 0-2.26.1-3.06l5.23 1.02c4.99.99 13.62 2.5 18.64 2.92 8.11.69 12.55.74 20.71.86 4.13 0 8.26-.25 12.36-.76 4.08-.48 8.16-1.19 12.19-2.03 6.83-1.43 13.64-3.16 20.36-5.11 8.61-2.56 16.98-5.93 25-10.06 7.95-3.88 15.71-8.18 23.24-12.88 8.36-5.44 16.23-11.69 24.06-17.94 5.43-4.33 10.44-9.22 15.93-14.17 1.59 1.43 3.27 3.05 5 4.6 3.47 3.08 6.91 6.18 10.45 9.17 3.54 3 7.25 6.19 11.06 9.03 11.14 8.4 23.03 15.69 35.5 21.77 9.54 4.63 19.43 8.44 29.57 11.4 7.33 2.14 14.78 3.82 22.3 5.04a154.4 154.4 0 0 0 37.44 1.65c7.53-.43 15-1.64 22.3-3.61.73-.15 3.19-.76 4.17-.91v2.37c.1 14.43.24 28.86.33 43.29 0 12.24.43 24.49.21 36.73-.21 11.91-.81 23.82-1.59 35.69-.51 7.97-1.26 15.93-2.13 23.88-.72 6.41-1.74 12.8-2.9 19.14-1.5 8.24-2.8 16.47-4.68 24.57-2.09 9.04-4.33 18.12-7.04 26.95a358 358 0 0 1-19.12 49.53c-5.48 11.67-11.62 23-18.37 33.93-5.67 9.09-11.73 17.95-18 26.62a402 402 0 0 1-18.48 23.55c-5.93 7.03-12.27 13.72-18.62 20.34-5.5 5.73-11.15 11.27-16.97 16.7-5.81 5.44-11.36 10.54-17.25 15.55-7.17 6.09-14.53 11.94-21.86 17.82-3.04 2.45-6.2 4.76-9.34 7.1-.65.46-1.35.87-2.12 1.33zM349.39 81.73h-2.1c-7.17.54-14.34 1.43-21.52 1.55-11.97.2-23.93-.91-35.67-3.29-9.73-1.93-19.31-4.56-28.68-7.87a218 218 0 0 1-34.36-15.99 237 237 0 0 1-34.24-23.95c-2.66-2.22-5.27-4.5-7.71-6.59-6.12 4.94-11.82 10-17.99 14.38-8.11 5.77-16.49 11.15-24.92 16.47a153 153 0 0 1-29.55 14.08c-8.06 2.92-16.28 5.47-24.58 7.58a163 163 0 0 1-22.3 4.2c-6.41.7-12.85.95-19.29.76-5.66 0-16.62-.61-22.3-1.09-1.08-.1-2.15-.23-3.49-.38-.65 36.14-1.75 69.34 1.29 105.05.1.81.35 3.64.43 4.32.78 6.26.88 7.56 1.69 13.87.75 5.73 2.06 16.57 3.09 22.24 1.4 7.61 2.96 15.19 4.78 22.7s3.6 14.91 5.89 22.19c2.96 9.36 6.07 18.69 9.75 27.77 3.95 9.73 8.41 19.29 13.03 28.71 11 21.99 24.23 42.72 39.46 61.83a376 376 0 0 0 31.37 35.22c7.14 7.08 14.43 14.05 21.97 20.67 10.21 8.98 20.71 17.58 31.18 26.35 2.92-2.24 5.58-4.25 8.19-6.31 12.35-9.61 24.2-19.89 35.5-30.8 5.88-5.72 11.82-11.4 17.41-17.41 6.48-6.97 12.89-14.07 18.83-21.51 7.52-9.44 14.83-19.09 21.75-29.01 23.12-33.74 40.15-71.53 50.25-111.54 1.72-7.07 3.28-14.17 4.78-21.28.88-4.08 1.59-8.24 2.29-12.35.99-6.59 1.59-13.18 2.49-19.77 1.07-7.59 1.82-15.24 2.34-22.88.69-9.88 1.18-19.77 1.23-29.65.13-22.25-.16-44.47-.3-66.79.06-.36.08-.77.03-1.47z" fill="#fec059"/><path d="M212.26 424.98h-13.77l-4.29-10.88h-18.88l-4.36 10.88h-13.31l21.89-56.49h11.05l21.66 56.49zm-12.33-2.11h9.27l-20.05-52.27H181l-20.26 52.27h8.8l4.36-10.88h21.75l4.29 10.88zm-7.19-19.64h-15.9l8.03-21.22 7.88 21.22zm-12.85-2.11h9.82l-4.86-13.1-4.95 13.1z"/><path d="M210.72 423.92H199.2l-4.29-10.88H174.6l-4.36 10.88h-11.05l21.08-54.38h9.6l20.86 54.38zm-32.37-21.75h12.86l-6.37-17.16z" fill="#fec059"/><path d="M314.71 185.59h-29.25v-54.56h28.65v9.36h-18.08v12.34h18.08v9.96h-17.48v13.55h18.08v9.36zm-28.93-.32h28.62v-8.73h-18.08v-14.18h17.48v-9.33h-18.08v-12.97h18.08v-8.73h-28.01v53.93z" fill="#f6b753"/><path d="M315.76 186.64h-31.35v-56.67h30.75v11.46h-18.08v10.24h18.08v12.06h-17.48v11.44h18.08v11.46zm-28.93-2.42h26.51v-6.62h-18.08v-16.28h17.48v-7.22h-18.08v-15.08h18.08v-6.62h-25.91v51.83z"/><path d="M313.95 162.53h-17.48v13.86h18.08v9.04h-28.93v-54.25h28.33v9.04h-18.08v12.66h18.08z" fill="#fec059"/><path d="M187.75 118.82h-12.4l-.04-56.71h30.59v10.61h-18.16v10.62h18.16v11.82h-18.16v23.66zm-10.29-2.12h8.18V93.04h18.16v-7.59h-18.16V70.59h18.16v-6.37h-26.36l.03 52.47z"/><path d="M176.37 63.17h28.48v8.49h-18.16V84.4h18.16v9.71h-18.16v23.66H176.4z" fill="#fec059"/><path d="M71.37 186.82c-2.5 0-5.16-.21-7.99-.63h-.05c-12.17-2.36-20.62-13.32-21.04-27.29-.44-14.82 9.39-26.58 23.92-28.6 14.04-1.95 27.26 5.38 30.74 17.06l.41 1.38H82.65l-.31-.56c-2.57-4.58-7.72-5.43-10.57-5.53-5.13-.17-10.54 1.8-12.31 4.49l-.04.05c-5.79 7.75-4.84 18.56-.15 22.69 3.93 3.67 8.9 5.48 13.63 4.98 4.06-.42 7.53-2.43 9.79-5.66l.33-.47h13.8l-.43 1.39c-3.39 11-11.98 16.68-25.04 16.68zm-7.64-2.75c15.92 2.35 26.05-2.08 30.12-13.17h-9.68c-2.63 3.48-6.52 5.65-11.02 6.12-5.37.56-10.97-1.46-15.34-5.54-5.45-4.81-6.69-16.75-.15-25.52 2.24-3.36 8.19-5.65 14.2-5.44 5.45.19 9.71 2.34 12.07 6.08h10.46c-3.78-9.85-15.47-15.88-27.87-14.16-13.39 1.87-22.45 12.73-22.04 26.41.39 12.93 8.12 23.06 19.25 25.23z"/><path d="M83.61 169.82h11.76c-3.85 12.52-14.67 17.85-31.82 15.3-10.89-2.11-19.73-12.03-20.15-26.25s9.12-25.57 22.98-27.51c13.26-1.85 26.15 4.93 29.54 16.3H83.31c-5.16-9.21-21.11-6.63-24.75-1.1-6.36 8.51-4.9 19.81 0 24.13 8.31 7.75 19.75 6.72 25.05-.87" fill="#fec059"/><path d="M113.43 360.13l.91-2.86c2.27-7.16 4.53-14.31 6.8-21.48 6.37-20.1 12.95-40.88 19.47-61.38l-70.78-53.08h87.69c7.69-23.92 15.5-48.43 23.05-72.15l4.25-13.33.92 2.9c9.48 29.91 18.07 56.93 26.24 82.58h88.1l-71.29 53.13c8.86 27.68 17.68 55.25 26.48 82.7l.92 2.87-71.36-52.88-71.39 52.98zM75.65 223.27l67.22 50.41-.21.66c-6.59 20.71-13.25 41.72-19.68 62.04-1.97 6.21-3.93 12.42-5.9 18.62l67.83-50.27 67.59 50.15q-12.84-40.08-25.77-80.49l-.21-.66.56-.41 67.15-50.04h-83.66l-.22-.68c-7.97-25.02-16.33-51.34-25.53-80.36l-2.4 7.53c-7.63 23.94-15.51 48.7-23.27 72.83l-.22.67z"/><path d="M73.48 222.47h84.99c8.81-27.42 17.54-55.18 26.35-82.84 8.73 27.56 17.57 55.17 26.39 82.84h85.38l-69.09 51.5c8.88 27.74 17.72 55.37 26.54 82.89l-69.21-51.23-69.07 51.34c8.75-27.62 17.5-55.3 26.33-83.05z" fill="#fec059"/></svg>