<svg xmlns="http://www.w3.org/2000/svg" viewBox="201.21 56.7 391.28 680.31"><defs><clipPath id="a"><path d="M-260.926 142.44H334.35v-595.28h-595.276z"/></clipPath><clipPath id="b"><path d="M-404.767 232.79H190.51v-595.28h-595.276z"/></clipPath><clipPath id="c"><path d="M-162.278 262.577h595.276v-595.28h-595.276z"/></clipPath><clipPath id="d"><path d="M-198.965 419.935H396.31v-595.28h-595.276z"/></clipPath><clipPath id="e"><path d="M-21.426-43.428h43.668V14.68h-43.668z"/></clipPath><clipPath id="f"><path d="M-27.617-46.641h43.668v58.108h-43.668z"/></clipPath><clipPath id="g"><path d="M-27.602-56.818h43.668V1.29h-43.668z"/></clipPath><clipPath id="h"><path d="M-31.028-55.402H12.64V2.706h-43.668z"/></clipPath><clipPath id="i"><path d="M-24.739-44.35H18.93v58.108h-43.668z"/></clipPath><clipPath id="j"><path d="M-28.039-54H15.63V4.106h-43.668z"/></clipPath><clipPath id="k"><path d="M-28.039-54H15.63V4.106h-43.668z"/></clipPath><clipPath id="l"><path d="M-28.373-51.343h43.668V6.765h-43.668z"/></clipPath><clipPath id="m"><path d="M-28.373-51.343h43.668V6.765h-43.668z"/></clipPath><clipPath id="n"><path d="M-33.599-38.974H10.07v58.108h-43.668z"/></clipPath><clipPath id="o"><path d="M-11.332-56.21h43.668V1.896h-43.668z"/></clipPath><clipPath id="p"><path d="M-12.61-50.833h43.667V7.275H-12.61z"/></clipPath><clipPath id="q"><path d="M-32.221-39.606h43.668v58.108h-43.668z"/></clipPath><clipPath id="r"><path d="M-30.525-40.761h43.668v58.108h-43.668z"/></clipPath><clipPath id="s"><path d="M-22.567-41.909h43.668V16.2h-43.668z"/></clipPath><clipPath id="t"><path d="M-24.45-43.07h43.668v58.108H-24.45z"/></clipPath><clipPath id="u"><path d="M-223.185 193.615H372.09v-595.28h-595.276z"/></clipPath><clipPath id="v"><path d="M-120.198-.875h151.96v71.529h-151.96z"/></clipPath><clipPath id="w"><path d="M-30.688-28.338H121.27V43.19H-30.69z"/></clipPath><clipPath id="x"><path d="M-120.07-28.338H31.89V43.19h-151.96z"/></clipPath><clipPath id="y"><path d="M-75.233-37.215h151.96v71.53h-151.96z"/></clipPath><clipPath id="z"><path d="M-85.602-25.75H66.357v71.529h-151.96z"/></clipPath><clipPath id="A"><path d="M-404.767 232.79H190.51v-595.28h-595.276z"/></clipPath><clipPath id="B"><path d="M-410.833 93.647h595.276v-595.28h-595.276z"/></clipPath><clipPath id="C"><path d="M-311.521 87.075h595.276v-595.28h-595.276z"/></clipPath><clipPath id="D"><path d="M-249.917 119.797h595.276v-595.28h-595.276z"/></clipPath><clipPath id="E"><path d="M-413.101 82.912h595.276v-595.28h-595.276z"/></clipPath><clipPath id="F"><path d="M-318.977 290.019h595.276v-595.28h-595.276z"/></clipPath><clipPath id="G"><path d="M-307.15 284.105h595.276v-595.28H-307.15z"/></clipPath><clipPath id="H"><path d="M-328.358 284.717h595.276v-595.28h-595.276z"/></clipPath><clipPath id="I"><path d="M-336.107 292.262H259.17v-595.28h-595.276z"/></clipPath><clipPath id="J"><path d="M-318.57 293.281h595.276v-595.28H-318.57z"/></clipPath><clipPath id="K"><path d="M-339.37 294.913h595.276v-595.28H-339.37z"/></clipPath><clipPath id="L"><path d="M-323.056 299.4H272.22v-595.28h-595.276z"/></clipPath><clipPath id="M"><path d="M-299.4 295.729h595.275v-595.28H-299.4z"/></clipPath><clipPath id="N"><path d="M-313.064 296.136h595.276v-595.28h-595.276z"/></clipPath><clipPath id="O"><path d="M-307.966 296.748H287.31v-595.28h-595.276z"/></clipPath><clipPath id="P"><path d="M-300.013 302.254h595.276v-595.28h-595.276z"/></clipPath><clipPath id="Q"><path d="M-298.585 300.826H296.69v-595.28h-595.276z"/></clipPath><clipPath id="R"><path d="M-314.083 307.352h595.276v-595.28h-595.276z"/></clipPath><clipPath id="S"><path d="M-300.624 309.595h595.276v-595.28h-595.276z"/></clipPath><clipPath id="T"><path d="M-318.366 315.917H276.91v-595.28h-595.276z"/></clipPath><clipPath id="U"><path d="M-327.542 317.752h595.276v-595.28h-595.276z"/></clipPath><clipPath id="V"><path d="M-288.185 319.383H307.09v-595.28h-595.276z"/></clipPath><clipPath id="W"><path d="M-333.864 319.995h595.276v-595.28h-595.276z"/></clipPath><clipPath id="X"><path d="M-249.032 329.376h595.276v-595.28h-595.276z"/></clipPath><clipPath id="Y"><path d="M-361.597 327.948h595.276v-595.28h-595.276z"/></clipPath><clipPath id="Z"><path d="M-272.483 328.356h595.276v-595.28h-595.276z"/></clipPath><clipPath id="aa"><path d="M-358.335 331.823h595.276v-595.28h-595.276z"/></clipPath><clipPath id="ab"><path d="M-315.715 332.638h595.276v-595.28h-595.276z"/></clipPath><clipPath id="ac"><path d="M-291.448 334.882h595.276v-595.28h-595.276z"/></clipPath><clipPath id="ad"><path d="M-314.491 337.533h595.276v-595.28h-595.276z"/></clipPath><clipPath id="ae"><path d="M-292.264 359.964h595.276v-595.28h-595.276z"/></clipPath><clipPath id="af"><path d="M-295.934 366.49h595.276v-595.28h-595.276z"/></clipPath><clipPath id="ag"><path d="M-308.17 371.18h595.276V-224.1H-308.17z"/></clipPath><clipPath id="ah"><path d="M-326.93 372.403h595.276v-595.28H-326.93z"/></clipPath><clipPath id="ai"><path d="M-312.248 374.85h595.276v-595.28h-595.276z"/></clipPath><clipPath id="aj"><path d="M-314.899 377.501h595.276v-595.28h-595.276z"/></clipPath><clipPath id="ak"><path d="M-318.366 385.658H276.91v-595.28h-595.276z"/></clipPath><clipPath id="al"><path d="M-320.609 394.631h595.276v-595.28h-595.276z"/></clipPath><clipPath id="am"><path d="M-308.985 395.243H286.29v-595.28h-595.276z"/></clipPath><clipPath id="an"><path d="M-317.958 395.243h595.276v-595.28h-595.276z"/></clipPath><clipPath id="ao"><path d="M-295.526 397.486H299.75v-595.28h-595.276z"/></clipPath><clipPath id="ap"><path d="M-292.671 399.525h595.276v-595.28h-595.276z"/></clipPath><clipPath id="aq"><path d="M-307.966 401.768H287.31v-595.28h-595.276z"/></clipPath><clipPath id="ar"><path d="M-289.817 401.972H305.46v-595.28h-595.276z"/></clipPath><clipPath id="as"><path d="M-270.852 403.807h595.276v-595.28h-595.276z"/></clipPath><clipPath id="at"><path d="M-274.93 408.702h595.276v-595.28H-274.93z"/></clipPath><clipPath id="au"><path d="M-279.416 410.537H315.86v-595.28h-595.276z"/></clipPath><clipPath id="av"><path d="M-329.99 415.635h595.277v-595.28H-329.99z"/></clipPath><clipPath id="aw"><path d="M-332.029 419.51h595.276v-595.28h-595.276z"/></clipPath><clipPath id="ax"><path d="M-334.68 424.404h595.277v-595.28H-334.68z"/></clipPath><clipPath id="ay"><path d="M-326.523 424.608h595.276v-595.28h-595.276z"/></clipPath><clipPath id="az"><path d="M-276.562 425.423h595.276v-595.28h-595.276z"/></clipPath><clipPath id="aA"><path d="M-278.6 433.376h595.275v-595.28H-278.6z"/></clipPath><clipPath id="aB"><path d="M-343.448 433.376h595.276v-595.28h-595.276z"/></clipPath><clipPath id="aC"><path d="M-268.812 441.33h595.276v-595.28h-595.276z"/></clipPath><clipPath id="aD"><path d="M-331.417 448.874H263.86v-595.28h-595.276z"/></clipPath><clipPath id="aE"><path d="M-379.928 304.637h595.276v-595.28h-595.276z"/></clipPath><clipPath id="aF"><path d="M-379.928 304.637h595.276v-595.28h-595.276z"/></clipPath><clipPath id="aG"><path d="M-290.02 354.662h595.276v-595.28H-290.02z"/></clipPath><clipPath id="aH"><path d="M-310.617 383.211H284.66v-595.28h-595.276z"/></clipPath><clipPath id="aI"><path d="M-299.4 397.078h595.275v-595.28H-299.4z"/></clipPath><clipPath id="aJ"><path d="M-343.652 391.572h595.276v-595.28h-595.276z"/></clipPath><clipPath id="aK"><path d="M-309.597 406.866H285.68v-595.28h-595.276z"/></clipPath><clipPath id="aL"><path d="M-330.601 411.149h595.276v-595.28h-595.276z"/></clipPath><clipPath id="aM"><path d="M-339.166 392.796H256.11v-595.28h-595.276z"/></clipPath></defs><path d="M0 0q.384.395.726.834c1.959 2.449 3.357 4.963 4.215 7.491 2-4.867 4.497-9.061 7.51-12.493C6.708-5.759.089-6.665-6.528-6.665c-1.102 0-2.125.022-3.094.064C-5.903-4.855-2.597-2.691 0 0m69.971-5.949a70 70 0 0 0-7.295 1.397c2.039 2.408 3.769 5.209 5.222 8.345-1.086-3.431-.232-7.135 2.073-9.742m54.197 49.926l-.049.015v.001zm58.775-163.018a8.5 8.5 0 0 1-2.13 4.824 8.53 8.53 0 0 1-3.609 3.728c-5.326 2.857-19.789 12.563-22.839 23.082a7 7 0 0 1-.073.252c-3.408 11.146-1.634 24.089 4.413 32.206l1.439 1.93a8.5 8.5 0 0 1-1.675 11.851L108.657-3.351a8.5 8.5 0 0 1-5.187 1.727l5.21 11.954c3.848-2.745 8.687-5.705 14.309-6.348 8.429-.963 15.729 3.148 21.724 12.221 1 1.519 1.572 3.283 1.654 5.12.034.807-.028 1.597-.177 2.358a10 10 0 0 1 3.573.842 10 10 0 0 1 5.341 5.558l5.667 14.459c2.428 6.197 2.056 12.909-1.049 18.9-2.869 5.534-7.856 10.013-14.041 12.614l-28.929 12.157c-.334.137-.678.269-1 .377-4.215 1.45-8.823 1.19-12.976-.736-4.03-1.871-7.172-5.093-8.853-9.092a17 17 0 0 1-.476-1.29L71.044 12.896a65 65 0 0 1 1.142 5.601l.826 5.288c.041.218.077.447.108.697.644 5.521-3.322 10.54-8.81 11.184l-16.666 2.021q-.315.038-.629.052-.512.031-1.016.008a10.09 10.09 0 0 1-8.175-4.837l-5.191 27.105a2 2 0 0 0-.027.496h6.539c.06-.286.098-.614.098-.975 0-.178-.005-.342-.017-.478l-.364-3.917c-.297-2.6.411-5.169 2.004-7.255a10 10 0 0 1 6.644-3.871l18.288-2.521c5.394-.725 10.466 3.061 11.304 8.437l3.004 19.214c.195 1.257.294 2.505.294 3.709q0 .214-.01.425c-.118 6.563-2.949 12.871-8.003 17.804-4.563 4.454-10.606 7.459-17.018 8.462-1.584.248-3.16.373-4.683.373H21.047c-2.151 0-4.343-.227-6.514-.673-6.077-1.249-11.694-4.214-15.816-8.35-4.967-4.981-7.592-11.266-7.592-18.176 0-1.836.198-3.732.589-5.635l7.884-38.39A34 34 0 0 1-3.66 31.7c-8.917 7.23-23.017 12.071-33.838 15.643 7.922 3.378 16.963 6.991 18.326 7.534l.043.018a10.08 10.08 0 0 1 6.355 9.801 9 9 0 0 1-.063.814l-2.032 16.262a10.02 10.02 0 0 1-3.799 6.727 10.02 10.02 0 0 1-7.395 2.072 10 10 0 0 1-1.268-.232c-2.123-.498-16.97-4.113-31.188-11.008-27.198-13.19-30.853-28.279-29.06-38.7.445-2.997 3.975-18.441 29.887-25.056 1.272-.325 2.651-.671 4.058-1.022a259 259 0 0 0-7.386-.398 10.02 10.02 0 0 1-7.012-3.229 10 10 0 0 1-2.672-7.24c.017-.44.063-.883.138-1.318l1.104-7.064c.683-4.432 4.286-7.898 8.689-8.463q.307-.043.621-.064a155 155 0 0 1 11.708-.295l-36.42-27.65a8.5 8.5 0 0 1-1.676-11.85l1.437-1.929c6.048-8.119 7.817-21.079 4.403-32.251l-.045-.15c-3.006-10.521-17.521-20.274-22.835-23.13a8.5 8.5 0 0 1-3.423-3.333 8.5 8.5 0 0 1-2.518-5.223c-.043-.421-1.04-10.522-.084-27.512.864-15.381 3.574-39.763 11.577-68.574 6.223-22.4 14.91-44.644 25.829-66.136q.206-.624.507-1.214c17.044-33.342 39.573-64.691 66.956-93.173l.391-.408a437 437 0 0 1 5.568-5.675l1.589-1.576a447 447 0 0 1 4.914-4.802c.604-.579 1.219-1.158 1.833-1.736l1.51-1.424c1.188-1.121 2.375-2.242 3.579-3.348 1.036-.953 2.096-1.903 3.156-2.854l1.995-1.795c.707-.64 1.414-1.278 2.13-1.907a450 450 0 0 1 7.633-6.58 8.5 8.5 0 0 1 2.561-1.483l1.565-.572a8.5 8.5 0 0 1 2.915-.515h.214a8.5 8.5 0 0 1 2.914.515l1.566.572c.934.34 1.802.842 2.562 1.483 79.932 67.324 113.502 141.912 127.589 192.628 7.903 28.448 10.633 52.577 11.531 67.812l.048.762c.263 4.689.402 9.284.414 13.658.02 8.459-.445 13.321-.498 13.847" clip-path="url(#a)" transform="matrix(1.33333 0 0 -1.33333 347.902 189.92)" fill="#fff"/><path d="M0 0c-4.622 15.117-1.811 31.312 6.102 41.933l-46.783 35.518c-7.425-3.078-12.963-4.695-23.026-4.695-19.167 0-37.216 6.439-43.316 15.707h-.031c-6.1-9.268-24.148-15.707-43.315-15.707-10.065 0-15.602 1.617-23.026 4.695l-46.784-35.518c7.912-10.621 10.724-26.816 6.102-41.933-5.007-17.524-28.229-29.787-28.229-29.787H28.229S5.007-17.524 0 0" clip-path="url(#b)" transform="matrix(1.33333 0 0 -1.33333 539.69 310.387)" fill="#00aeef"/><path d="M0 0h270.718s15.347-152.405-135.252-279.252l-.088 7.52-.126-7.52C-15.347-152.405 0 0 0 0" clip-path="url(#c)" transform="matrix(1.33333 0 0 -1.33333 216.37 350.103)" fill="#fff" stroke="#ffcb04" stroke-width="4.857" stroke-linecap="square" stroke-linejoin="bevel"/><path d="M0 0l234.03 157.358S249.377 4.952 98.779-121.894h-.215C51.132-81.944 20.173-39.461 0 0" clip-path="url(#d)" transform="matrix(1.33333 0 0 -1.33333 265.287 559.914)" fill="#231f20" stroke="#ffcb04" stroke-width="4.857" stroke-linejoin="bevel"/><path d="M0 0a4.4 4.4 0 0 1-.531-.6s-.343-.344-.457-.435c-.115-.092-1.053-.915-1.053-.915s-.343-.412-.434-.549c-.092-.137-.367-.39-.55-.687-.182-.297-.435-.961-.389-1.121.047-.161.984-1.282 1.098-1.328.116-.045.39-.502.688-.64.297-.137.64-.457.64-.457l.023-.71.229-1.304.366-.458.206-.206s-.092-.366-.092-.48-.023-.915-.023-.915l-.206-1.442-.503-1.739s-.435-1.052-.435-1.258.046-.801.046-.801l-.183-2.014s-.138-.846-.229-1.029c-.092-.183-.297-.733-.297-.893s.045-.572.045-.572l.206-2.813s-.228-.779-.344-1.007c-.114-.23-.251-.595-.411-.756-.161-.16-.298-.503-.435-.778-.137-.274-.205-.709-.274-.96-.068-.253-.138-.481-.138-.665 0-.183.023-.686.091-.891.07-.206.07-.39.116-.572a3 3 0 0 0 .091-.527c0-.114-.045-2.516-.045-2.516l.068-.412c.023-.138.365-1.099.412-1.213s.046-.572.091-.778c.046-.206.16-.64.16-.824v-.801c0-.137-.045-.617-.068-.777s.183-1.648.183-1.648l.71-.984c.114-.16 1.12-.755 1.281-.778s.549-.091.732-.114.8-.114.96-.114c.161 0 .619 0 .847-.024.229-.023.618-.023.801-.046s1.235.23 1.235.23 1.374.045 1.511.091.617.092.916.137c.296.046.892.069 1.051.069.161 0 .114.068.435-.023s.413-.183.687-.297.343-.207.824-.344.595-.205 1.052-.205.984-.137 1.121 0c.138.137.526.205.777.388.253.184.711.412.962.801.252.39.618 1.144.618 1.144s.183.801.183.938c0 .138-.022.779-.022.779s.251 1.349.274 1.464c.022.114-.023.938-.023.938l.366.595.251.434.32 1.419.275.732c.069.183.413.732.413.732s.091.458.114.618c.023.161.045 4.279.045 4.462s.023 2.357.023 2.471.046 1.144 0 1.281c-.045.137-.617 1.26-.617 1.26l-.274.96s.136 2.746.136 2.929-.022 1.327 0 1.463c.023.139.023.779.046.893.023.115.413 1.008.413 1.008s.296.937.342 1.121-.046.64-.046.937-.137 1.03-.182 1.19c-.046.16-.321.939-.321 1.053s-.343 2.402-.343 2.539-.229 1.145-.229 1.351-.046.709-.046.823-.091.412-.091.549-.39 1.487-.39 1.487-.365.916-.434 1.122-.594.961-.594.961l-.436.549-.229.527L12.1 2.053l-.618.618-.136.098v-.002l-.253-.027-.367.168-.507.226s-.423.085-.564.085-.535.028-.535.028-.338-.057-.507-.169c-.17-.113-.451-.17-.451-.17l-.338-.196-.169-.367-.113-.338s-.281-.028-.422 0-.197.31-.197.31l-.057.48-.197.224-.141-.113v-.45c0-.141-.253-.254-.253-.254l-.395-.366s-.704-.338-.845-.422c-.141-.085-.649-.282-.649-.282L3.513.599l.101.325-.163-.059-.138.058C3.296.812 3.207.77 3.005.795 2.78.823 2.724.88 2.724.88S2.386.712 2.329.57C2.273.43 2.301.26 2.216.035c-.084-.226-.365-.394-.365-.394l-.508-.113-.478.055-.536.113z" clip-path="url(#e)" transform="matrix(1.33333 0 0 -1.33333 387.314 231.414)" fill="#fff200" fill-rule="evenodd"/><path d="M0 0l-.487-.16-2.268-1.098c.051.092.058.131.105.249a2 2 0 0 1 .06.175l1.979.958.011.005.009.002.85.281L.027.033zm-6.078-3.318a4.3 4.3 0 0 1-.518-.587l-.01-.014-.005-.005a10 10 0 0 0-.471-.445c-.101-.08-.947-.824-1.04-.904-.051-.062-.332-.403-.415-.527v.001c-.042-.063-.106-.134-.182-.219-.114-.129-.257-.289-.364-.463a3.4 3.4 0 0 1-.28-.619c-.063-.182-.104-.336-.092-.378.016-.056.234-.338.47-.622.249-.301.502-.59.537-.604.08-.032.16-.127.26-.243.124-.145.284-.332.433-.401.321-.147.681-.485.683-.486l.046-.042.002-.065.022-.696.221-1.258.33-.414.206-.205.062-.062-.022-.085c0-.001-.087-.346-.087-.443 0-.083-.023-.916-.023-.918l-.001-.012v-.006l-.206-1.442-.001-.009-.004-.013-.503-1.739-.002-.008-.004-.007c-.001-.003-.423-1.024-.423-1.2 0-.203.045-.788.045-.789l.002-.01-.002-.016-.183-2.013-.001-.01c0-.002-.141-.871-.243-1.075a4 4 0 0 1-.199-.504 1.5 1.5 0 0 1-.082-.319c0-.156.044-.555.044-.556l.001-.005.207-2.815.001-.027-.007-.028c-.002-.001-.233-.789-.355-1.032-.027-.053-.057-.12-.088-.189-.1-.219-.213-.468-.351-.606-.106-.105-.209-.324-.311-.538a4 4 0 0 0-.096-.199c-.09-.18-.151-.45-.202-.677a4 4 0 0 0-.062-.256l-.02-.075c-.059-.21-.111-.402-.111-.548 0-.107.007-.325.028-.522.013-.131.032-.251.055-.322.046-.136.063-.255.08-.37q.015-.11.039-.213c.025-.103.051-.22.069-.324.016-.093.027-.178.027-.239 0-.256-.043-2.309-.047-2.504l.067-.4a5 5 0 0 1 .128-.404c.109-.322.247-.708.274-.776.034-.083.046-.249.058-.425.011-.143.022-.293.042-.378l.035-.153c.055-.229.129-.541.129-.704v-.8a9 9 0 0 0-.071-.801c-.018-.126.147-1.337.179-1.566l.687-.953c.041-.059.279-.216.534-.373.286-.173.577-.332.643-.341l.283-.045c.158-.026.332-.055.445-.07.015-.001.099-.012.197-.026.254-.034.632-.086.746-.086.161 0 .62 0 .862-.025.107-.009.253-.016.395-.02.159-.008.314-.014.409-.026.158-.019 1.179.226 1.181.226l.016.004.015.001c.005 0 1.35.044 1.467.084.104.034.347.064.59.096q.172.02.351.047c.122.018.296.034.471.045.255.017.509.025.604.025a.3.3 0 0 1 .075.01c.08.018.147.034.402-.039.213-.06.331-.121.46-.188.07-.036.144-.074.243-.115.097-.04.169-.078.242-.115.129-.068.259-.134.565-.222.067-.019.163-.048.249-.075.276-.084.414-.125.762-.125.166 0 .343-.018.51-.035.249-.026.464-.048.501-.01.09.09.236.147.399.211.136.054.287.113.398.193q.088.063.208.139c.238.154.537.35.714.62.225.349.548 1.005.601 1.113.026.117.175.776.175.886 0 .156-.024.771-.024.772v.019l.003.015.274 1.466c.02.096-.024.898-.024.9l-.004.049.026.04.365.595h.002l.238.411.314 1.396.003.009.003.01.275.732c.065.174.342.627.411.737.02.1.088.444.107.581.008.051.015.579.021 1.254.013 1.245.023 3.06.023 3.187l.013 1.464c.005.473.01.893.01 1.007l.005.182c.01.323.03.968.004 1.051-.042.121-.609 1.233-.61 1.237l-.007.013-.004.014-.274.961-.008.023.001.026c.002.008.138 2.733.138 2.922l-.003.267c-.006.408-.014 1.106.005 1.223.01.059.016.245.021.428.006.202.012.402.025.469.025.122.377.934.419 1.03.026.082.295.935.338 1.105.02.082.001.274-.02.471-.014.151-.03.305-.03.43 0 .115-.023.306-.053.501a8 8 0 0 1-.124.647c-.017.057-.05.157-.09.276-.1.302-.237.716-.237.818 0 .046-.078.589-.158 1.157-.091.636-.186 1.302-.186 1.383 0 .049-.043.278-.093.532-.063.327-.135.691-.135.818 0 .116-.014.327-.027.507-.009.142-.019.266-.019.317 0 .039-.018.126-.039.218-.025.119-.052.243-.052.331 0 .113-.347 1.322-.38 1.435-.032.079-.367.92-.435 1.124-.061.183-.574.92-.576.922l-.428.542-.014.016-.007.018-.217.5L5.8-1.269l-.612.611-.264.187.231.025-.181.318.407-.287.014-.011.006-.006.617-.618.002-.002 1.006-1.029.021-.021.011-.026.221-.508.421-.534.006-.007c.003-.001.538-.771.615-1 .066-.198.431-1.11.432-1.113l.002-.006.003-.008c.001-.004.396-1.374.396-1.53 0-.056.023-.163.045-.265.023-.109.046-.214.046-.284 0-.048.008-.163.017-.297.013-.187.029-.408.029-.527 0-.1.067-.448.129-.761.052-.27.099-.514.099-.589 0-.063.094-.716.181-1.339.084-.581.163-1.137.163-1.201 0-.056.127-.441.22-.721.045-.136.082-.248.093-.289.028-.098.089-.395.134-.686.031-.207.056-.414.056-.546 0-.118.014-.26.029-.398.023-.225.045-.444.012-.578a46 46 0 0 0-.346-1.13l-.001-.006-.005-.01c-.001-.002-.382-.875-.401-.975a5 5 0 0 1-.021-.416c-.006-.197-.012-.395-.025-.471-.015-.093-.006-.771-.001-1.169l.003-.27c0-.168-.122-2.631-.136-2.91l.264-.924c.065-.129.572-1.122.619-1.265.045-.135.023-.816.014-1.158a3 3 0 0 1-.005-.172l-.01-1.009c-.006-.61-.013-1.302-.013-1.462 0-.113-.01-1.878-.023-3.189a34 34 0 0 0-.025-1.295 18 18 0 0 0-.116-.626l-.005-.029-.016-.023c0-.002-.334-.536-.397-.705l-.271-.721-.318-1.409-.005-.024-.012-.019-.251-.435-.003-.004-.341-.555c.01-.181.041-.813.018-.928-.036-.181-.244-1.298-.272-1.446.004-.104.023-.657.023-.765 0-.154-.187-.97-.187-.973l-.003-.018-.009-.014c0-.003-.369-.764-.627-1.161-.211-.328-.544-.542-.805-.712a6 6 0 0 1-.195-.131 2 2 0 0 0-.468-.231c-.128-.05-.245-.096-.291-.142-.14-.139-.423-.112-.751-.078a5 5 0 0 1-.479.033c-.389 0-.543.046-.852.14l-.244.072c-.334.095-.478.17-.623.245a3 3 0 0 1-.217.104 3 3 0 0 0-.266.127c-.114.058-.218.111-.404.165-.179.051-.209.043-.247.034a.5.5 0 0 0-.145-.017c-.095 0-.342-.009-.585-.025a6 6 0 0 1-.444-.043c-.087-.012-.224-.031-.359-.048-.228-.029-.456-.058-.531-.082-.148-.05-1.388-.094-1.539-.1-.133-.03-1.081-.252-1.274-.228-.093.012-.236.017-.383.023s-.299.011-.414.023c-.217.022-.672.022-.832.022-.129 0-.524.053-.787.09l-.193.025c-.102.012-.289.044-.458.071l-.277.045c-.103.014-.444.193-.758.383-.286.174-.561.363-.627.458l-.708.983-.024.031-.006.038c0 .005-.208 1.51-.182 1.69.011.082.029.258.045.426.012.141.022.272.022.331v.8c0 .127-.069.42-.12.635l-.037.155a4 4 0 0 0-.047.423 2 2 0 0 1-.036.332c-.03.072-.172.467-.282.791a5 5 0 0 0-.14.453l-.068.412-.002.013v.015l.045 2.515c0 .044-.009.11-.022.187-.016.096-.04.205-.065.301q-.028.124-.043.243c-.016.106-.032.212-.067.318a2 2 0 0 0-.069.387 6 6 0 0 0-.032.554c0 .183.06.396.123.629l.022.075c.017.065.036.151.057.243.056.243.12.532.228.747l.092.193c.113.238.229.484.371.626.101.1.201.32.289.513q.048.107.094.201c.095.19.283.816.325.954l-.204 2.787c-.005.047-.046.427-.046.583 0 .086.042.248.099.416.069.208.16.436.215.546.078.155.204.921.214.981l.181 1.991c-.006.079-.045.609-.045.802 0 .226.404 1.215.443 1.31l.498 1.718.204 1.427c.002.097.022.764.022.899 0 .093.046.311.075.432l-.144.145-.002.001-.009.012-.367.458-.026.031-.006.038-.229 1.304-.001.009v.013l-.021.644c-.1.087-.341.29-.554.388-.211.098-.396.314-.538.48-.073.085-.131.153-.141.158-.082.033-.386.362-.66.693-.256.311-.501.635-.53.735-.03.108.017.328.099.562.085.246.206.518.308.683.12.195.273.368.396.506.069.077.128.142.155.185.093.139.445.562.446.563l.009.01.008.006c.003.002.935.822 1.058.92.095.076.397.377.439.419.055.074.331.437.614.669l-.006-.139z" clip-path="url(#f)" transform="matrix(1.33333 0 0 -1.33333 395.568 227.13)" fill="#231f20"/><path d="M0 0c2.731 0 4.945-2.05 4.945-4.578 0-1.744-1.053-3.259-2.601-4.033.782.718 1.277 1.785 1.277 2.975 0 2.163-1.634 3.918-3.649 3.918s-3.649-1.755-3.649-3.918c0-1.155.466-2.194 1.208-2.911-1.48.791-2.476 2.272-2.476 3.969C-4.945-2.05-2.731 0 0 0" clip-path="url(#g)" transform="matrix(1.33333 0 0 -1.33333 395.548 213.56)" fill="#fff200" fill-rule="evenodd"/><path d="M0 0a5.03 5.03 0 0 1-3.427 1.313A5.04 5.04 0 0 1-6.854 0c-.873-.81-1.414-1.927-1.414-3.162 0-.813.235-1.575.644-2.232.31-.496.718-.932 1.201-1.284a4.23 4.23 0 0 0-.784 2.459c0 1.109.419 2.112 1.096 2.839.68.73 1.619 1.182 2.656 1.182S-1.479-.65-.799-1.38A4.15 4.15 0 0 0 .298-4.219c0-.597-.123-1.165-.342-1.675a4 4 0 0 0-.504-.866c.516.353.954.799 1.283 1.31.432.669.68 1.451.68 2.288C1.415-1.927.874-.81 0 0m-3.427 1.52A5.24 5.24 0 0 0 .14.151c.915-.848 1.482-2.019 1.482-3.313a4.4 4.4 0 0 0-.714-2.4 4.9 4.9 0 0 0-1.945-1.725l-.115.168c.387.356.703.801.919 1.305.207.485.324 1.026.324 1.595a3.95 3.95 0 0 1-1.042 2.7c-.641.687-1.526 1.113-2.504 1.113-.977 0-1.863-.426-2.504-1.113a3.96 3.96 0 0 1-1.042-2.7c0-.552.111-1.078.307-1.552.204-.493.503-.93.87-1.284l-.119-.166a4.9 4.9 0 0 0-1.856 1.718 4.4 4.4 0 0 0-.676 2.341c0 1.294.566 2.465 1.482 3.313A5.24 5.24 0 0 0-3.427 1.52" clip-path="url(#h)" transform="matrix(1.33333 0 0 -1.33333 400.116 215.449)" fill="#231f20"/><path d="M0 0l.138-.058.164.059.039.125.508.282.704.452.507.422.845 1.042.311.508s.224.507.281.648c.056.141.564.592.564.592l.281.535s.226.479.338.647c.113.17.029.424.029.424l.028.62s.028.535.028 1.126c0 .592-.648 1.268-.648 1.268l-.451.198-.535.028-.479-.085-.424-.282-.393-.535-.367-.479-.45-.535-.169-.591-.141-.339-.283-.074v-.32l.17-.254.338-.197.028-.338-.028-.395-.056-.563.028-.677v-.422c0-.141-.141-.508-.141-.508l-.197-.282-.226-.394s-.057-.225-.113-.366S.172 1.114.087.973-.026.803-.109.662C-.194.521-.053.38-.053.38S.002.183.002.042Q.002.02 0 0" clip-path="url(#i)" transform="matrix(1.33333 0 0 -1.33333 391.73 230.184)" fill="#e2abb5" fill-rule="evenodd"/><path d="M0 0s-.958 0-1.099-.028-.478-.028-.478-.028l-.649-.367s-.48-.704-.563-.873l-.395-.789-.339-.732s-.084-.508-.197-.677c-.112-.169-.506-1.071-.506-1.071s-.565-.958-.565-1.099-.309-.845-.309-.845l-.226-.535-.31-.338-.224-.649-.339-.337-.226-.48-.197-1.014-.028-.676.366-.338.535-.113.48-.057.507.113s.282.169.366.395.057.395.113.535c.057.141.395.31.395.31s.056-.057.281-.085.31.028.31.17c0 .141-.056.338-.056.338s-.141.141-.057.281c.085.141.113.169.198.31.084.141.084.17.141.311s.113.365.113.365l.224.395.198.282s.141.367.141.507v.423l-.028.676.056.564.028.395-.028.337-.339.197-.168.254v.32l.281.074.141.339.169.591.452.536.365.478.395.536.423.282.479.085.536-.029.45-.197s.649-.677.649-1.268-.029-1.127-.029-1.127l-.028-.62s.085-.254-.028-.423a8 8 0 0 1-.338-.647l-.282-.536S.254-6.03.197-6.171a33 33 0 0 0-.282-.648l-.31-.507-.845-1.042-.507-.423-.705-.451-.506-.282-.142-.451.874.536s.508.197.649.282c.14.083.845.422.845.422l.393.367s.254.112.254.252v.452l.141.112.198-.225.056-.479s.057-.282.198-.31c.14-.028.422 0 .422 0l.113.339.169.365.337.198s.282.056.451.169.508.169.508.169.394-.028.535-.028.564-.085.564-.085l.507-.225.366-.169.253.028-.225.395-.282.31-.479.45-.422.479-.677.479-.253.479-.113.507.029.451-.029.845-.084.734-.141.76-.282.563-.226.536-.563.422-.423.339z" clip-path="url(#j)" transform="matrix(1.33333 0 0 -1.33333 396.13 217.317)" fill="#231f20" fill-rule="evenodd"/><path d="M0 0s-.958 0-1.099-.028-.478-.028-.478-.028l-.649-.367s-.48-.704-.563-.873l-.395-.789-.339-.732s-.084-.508-.197-.677c-.112-.169-.506-1.071-.506-1.071s-.565-.958-.565-1.099-.309-.845-.309-.845l-.226-.535-.31-.338-.224-.649-.339-.337-.226-.48-.197-1.014-.028-.676.366-.338.535-.113.48-.057.507.113s.282.169.366.395.057.395.113.535c.057.141.395.31.395.31s.056-.057.281-.085.31.028.31.17c0 .141-.056.338-.056.338s-.141.141-.057.281c.085.141.113.169.198.31.084.141.084.17.141.311s.113.365.113.365l.224.395.198.282s.141.367.141.507v.423l-.028.676.056.564.028.395-.028.337-.339.197-.168.254v.32l.281.074.141.339.169.591.452.536.365.478.395.536.423.282.479.085.536-.029.45-.197s.649-.677.649-1.268-.029-1.127-.029-1.127l-.028-.62s.085-.254-.028-.423a8 8 0 0 1-.338-.647l-.282-.536S.254-6.03.197-6.171a33 33 0 0 0-.282-.648l-.31-.507-.845-1.042-.507-.423-.705-.451-.506-.282-.142-.451.874.536s.508.197.649.282c.14.083.845.422.845.422l.393.367s.254.112.254.252v.452l.141.113.198-.226.056-.479s.057-.282.198-.31c.14-.028.422 0 .422 0l.113.339.169.365.337.198s.282.056.451.169.508.169.508.169.394-.028.535-.028.564-.085.564-.085l.507-.225.366-.169.253.028-.225.395-.282.31-.479.45-.422.479-.677.479-.253.479-.113.507.029.451-.029.845-.084.734-.141.76-.282.563-.226.536-.563.422-.423.339z" clip-path="url(#k)" transform="matrix(1.33333 0 0 -1.33333 396.13 217.317)" fill="none" stroke="#231f20" stroke-width=".119" stroke-miterlimit="22.926"/><path d="M0 0l.126.126S.22.143.237.143c.016 0 .073.004.109.014.037.009.077.009.13.017.053.006.151.013.151.013L.703.18.673.1S.676.053.646.046.596.013.533.019L.426.033A.3.3 0 0 1 .31.04C.27.036.25.036.226.036c-.023 0-.06 0-.079-.006C.126.023.113.017.09.013.067.01.059.004.04-.004.019-.01-.013-.01-.013-.01zm-1.11-.344l-.161.067-.161.067h-.173l-.189-.107-.12-.013.202-.08s.147-.014.254-.014c.106 0 .24.014.24.014zM.081-.437l.308.12.199-.018.166.01.109-.077S.821-.451.741-.464.697-.491.589-.491H.308zm-.87-1.218l.133.067.135.026.067.014.2-.027.067.08.08.027.134-.054.148-.08s.053-.04-.108-.08-.147-.093-.241-.093h-.335l-.16.04zm-.522-.723l.255.147.2.027.16.013h.576s.133-.026.201-.066l.134-.081.16-.147s-.08-.041-.187-.026c-.107.013-.215.04-.322.04h-1.031zm.562-.308s.133-.12.2-.12h.375l.067.12-.053.067h-.08l-.121-.027h-.093s-.027-.04-.108 0l-.107.053s-.067-.053-.08-.093M-1.462.151l.17.112h.14c.165 0 .354-.099.354-.099l-.01-.09C-.82-.034-1.18.123-1.18.123l-.125.007h-.084z" clip-path="url(#l)" transform="matrix(1.33333 0 0 -1.33333 396.576 220.86)" fill="#231f20" fill-rule="evenodd"/><path d="M0 0l.126.126S.22.143.237.143c.016 0 .073.004.109.014.037.009.077.009.13.017.053.006.151.013.151.013L.703.18.673.1S.676.053.646.046.596.013.533.019L.426.033A.3.3 0 0 1 .31.04C.27.036.25.036.226.036c-.023 0-.06 0-.079-.006C.126.023.113.017.09.013.067.01.059.004.04-.004.019-.01-.013-.01-.013-.01zm-1.11-.344l-.161.067-.161.067h-.175l-.187-.107-.12-.013.202-.08s.147-.014.254-.014c.106 0 .24.014.24.014zM.081-.437l.308.12.199-.018.166.01.109-.077S.821-.451.741-.464.697-.491.589-.491H.308zm-.87-1.218l.133.067.135.026.067.014.2-.027.067.08.08.027.134-.054.148-.08s.053-.04-.108-.08-.147-.093-.241-.093h-.335l-.16.04zm-.522-.723l.255.147.2.027.16.013h.576s.133-.026.201-.066l.134-.081.16-.147s-.08-.041-.187-.026c-.107.013-.215.04-.322.04h-1.031zm.562-.308s.133-.12.2-.12h.375l.067.12-.053.067h-.08l-.121-.027h-.093s-.027-.04-.108 0l-.107.053s-.067-.053-.08-.093zM-1.462.151l.17.112h.14c.165 0 .354-.099.354-.099l-.01-.09C-.82-.034-1.18.123-1.18.123l-.125.007h-.084z" clip-path="url(#m)" transform="matrix(1.33333 0 0 -1.33333 396.576 220.86)" fill="none" stroke="#231f20" stroke-width=".119" stroke-miterlimit="22.926"/><path d="M0 0c-.126.629-.646 1.798-1.372 1.798-.918 0-.995-2.001-.995-2.674 0-.774-.237-1.505-.237-2.154 0-1.207 2.179-1.187 2.415-.189C-.053-2.642.392-.397 0 0m-14.752 1.681c0-.167.073-.32.073-.453 0-.361-.044-.693-.044-1.05 0-.371.288-.371.308-.043.021.379 0 .771 0 1.152 0 .141.013.408-.044.525-.099.2-.278.006-.293-.131m3.384 1.502c-1.18 0-.561-.901-.992-1.619-.262-.438-.385-.786-.218-1.327.111-.365.743-.269.743.218 0 .213-.079.54-.189.701-.149.216.063.872.234 1.064.25.283.408.555.422.963m.481.408c-1.558 0-2.187-.958-2.187-2.451 0-.717.106-1.4.948-1.4.446 0 .842.313.802.803-.025.313-.437.3-.437.626 0 .166.312 1.042.437 1.124.27.177.485 1.097.437 1.298m-3.726-34.955c.459-.55 1.763-1.847 1.763-.056 0 .758-.212 1.653.771 1.653.38 0 .33-1.552.33-1.873 0-1.452 1.003-1.955 1.102-3.251.031-.408.184-.625.44-.881.651-.651-.96-.111-1.707-.111-1.105 0-2.364.984-2.754 1.763-.181.362-.228 2.611.055 2.756m3.525 24.429c.177.889.158 1.997.551 2.738.213.398.686.552.686 1.035 0 .104 1.823-1.345 1.823-2.464 0-.608.756-1.658 1.393-1.933-.184-.329-.171-1.028.529-2.405.329-.648.841-3.259-.071-3.289-.411-.014-4.071-3.283-4.095-3.693-.038-.668-.333-3.026-.425-2.934-1.211 1.209-2.345 5.151-1.8 6.721.508 1.456 1.184 1.445 1.184 3.716 0 .588.426.895.426 1.491 0 .207.067.734-.047.899a.4.4 0 0 1-.154.118M2.081-20.554c-.201-.437-.387-1.077-.387-1.556 0-1.437-.835-3.837-.165-5.178.86-1.72.39-3.395-.497-5.014-1.438-2.626-.771 2.266-.771 3.141 0 2.294-1.101-4.458-1.101-1.377 0 1.781.676 2.875.11 4.517-.541 1.569 1.823 2.619 1.929 3.526.006.062-2.62-1.732-1.158.385.618.897-1.481-.406-1.377-1.762.133-1.724-.46 1.535-.441.716l.11-4.738c.026-1.118.37-6.249-1.267-3.967-.872 1.216.782 5.516-.441 2.534-.812-1.98-.054 2.763-.054 3.03 0 1.351-.926 2.151-.771 3.637.04.391 1.627 2.203.715 2.203-.794 0-.808-2.443-1.653-1.266-.283.393.221 2.047.221 2.644 0 .898-.367 1.615-.735 1.799.053 2.149-.003 4.541.517 3.6.806-1.462 1.023-4.505 3.289-6.295.836-.662 2.617-.953 3.927-.579m-3.858 10.51c0 .889-.766-.075-.716-.827.084-1.253.33-2.499.33-3.746 0-.816.496-1.428.496-2.424 0-.365.336-.871.386-.385.069.67 0 1.416 0 2.094 0 .533-.626.897-.606 1.542zm5.019 8.767c-.464.19-2.47-2.209-4.309-2.985.292-.265.714-.988.76-1.418.13-1.239.351-1.581.781-2.698.55-1.43 1.491-6.611 1.491-8.07 0-.565-.977-4.218.377-3.125.36.29 1.118 2.695 1.302 1.089.11-.941-.357-1.547-1.071-1.887l.003-.086c0-2.147-.496-3.124-.496-4.958 0-1.75 1.116-3.333.605-4.628-.766-1.943-.312-4.05-2.533-4.021-.617.008-.953 1.444-.956 1.441-.69-1.265-1.103-1.126-2.075-.229-2.128 1.964-2.094 4.777-2.094 7.767 0 .963-.274-.358-.274-.715 0-1.284-.276-2.369-.276-3.581 0-2.667-1.577-1.901-1.983-3.361-.227-.814.837.358 1.267.386.984.064 1.685-.309 2.313-.937.584-.584 2.352-3.239.551-2.59-1.34.485-.151.69-.495 1.379-.956 1.91-4.463-.746-4.463.716 0 .732.218 1.602-.11 2.259-1.759 3.518-3.653 5.597-1.873 9.751.933-.056.035-2.377-.221-2.81-.119-.203.915-2.287 1.157-2.259.666.077 1.047.749 1.047 1.377 0 .501-.319 2.535.165 2.535.42 0 .437-3.29.111-3.692-.838-1.031-1.598-.89-.386-2.203.481-.522.38-2.095.937-2.314.961-.379.838-.039 1.102.936 1.034 3.449.256 6.636.047 10.011-2.227.351-2.015 7.146-.743 2.352.205-.772.534-.895.697-.767q.005.252.031.455l-.018.028c-.374.542-.108 1.537-.214 2.225-.126.828.129 1.199.119 1.254-.145.843-1.142-.193-.828-.591.796-1.011-.549-.289-.875-.616-1.085-1.084-1.869-2.529-1.326-4.023.671-1.846-2.183-.409-2.627.875l-1.704 4.923 2.13 3.597c.596 1.007-1.083-.59-.498.734.441.996.623 1.272.672 2.116-.204-.175-.411-.27-.411-.034 0 .643 2.297 5.254-.131 3.078-.829-.745-.626.196.497.759 1.579.789.084 1.655-.073 2.829-.18 1.345.425.189.568-.379.107-.421.394-.26.394.102 0 .953-.18 1.444-.364 2.318-.192.503.116.346.32.205.293-.202.525-.649.657-.933.454-.983-.101-2.377.947-2.932.232-.122 1.37-1.77 1.313-.846-.049.803-.856 1.572-.554 2.479.196.586 1.313-2.671 1.313-3.12 0-.383-.295-2.09.029-2.305.062-.041.849 3.213.685 3.719-.245.761-.145 2.587.336.569.363-1.524-.262-1.901-.262-3.194 0-1.341 1.224.873 1.224 1.502 0 3.014.752-.56-.248-1.868-.312-.409-.627-1.3-.663-1.722-.087-1.037.459-2.444.804-3.479.056-.166.414-1.148.544-1.065.306.195.012 1.959.309 2.438 1.014 1.638.743 5.027 1.088 3.408.092-.431-.538-5.857-.946-6.319-1.619-1.83 2.362-6.41 3.691-7.55.997-.855.237 2.29.237 3.218 0 1.734.355-.222.355-.946 0-.801 1.077-3.415.805-1.965-.282 1.505.395 2.666.284 4.237-.134 1.887-1.231 3.083-1.231 5.16 0 1.931-.9 3.757-1.278 5.562a2 2 0 0 0-.045.342 2.3 2.3 0 0 0-.855-.13C-3.681-4.406-3.604-.896-3.479.307c.052.502 1.98 2.061 2.461 2.202.6.175 2.716-2.014 1.609-.142-.07.12 0 .375 0 .521 0 .992.555-.937.686-1.302.094-.259.546-.696.546-.19 0 .946-.627 1.603-.403 2.769.216 1.12.813-2.541.876-2.674C3.218-.474.449 1.418.449.733c0-.919.343-1.72.072-2.698-.71-2.556 1.449.724 1.798 1.468.826 1.76.9.243.923-.78M-1.798.97C-1.39.97-.703.657-.521.426c.047-.061.153-.358 0-.261C-.934.43-.71.034-.71-.237c0-.268.071-.533.071-.828 0-.027.016-.312 0-.332-.288-.353-.356.197-.356.356 0 .278-.261-.285-.282-.308-.123-.122-.415-.005-.498.119-.071.104.548.386.071.26-.079-.021-.179-.11-.261-.118-.132-.016-.154.098-.165.212-.024.254.844.251.781.923-.039.412-.426.599-.449.923m-5.636 4.751s4.016-.214 4.337-.161c.321.054 1.071.536 1.071.536l.803.749.375.375.481-.535-1.016-.536-.696-.482-.857-.32-2.141-.055-1.553.162zm-6.849-25.957c.187-.812-.014-1.462.441-2.039.507-.643.551-.947.551-1.762 0-.946.471-1.061.606-1.819.248-1.384-.606-2.225-.606-.33 0 .837-.662.843-.662 1.653 0 .545.283.729-.109 1.211-.612.753-.772.967-.772 2.094 0 .625.391 1.439.551.992m17.465-8.485c-.442.774-.665 1.163-.497 2.039.095.486 0 1.192 0 1.708 0 .203-.123 1.237.221.827.138-.167.276-.901.276-.165 0 .734.745.756.66.109-.013-.105-.399.005-.495-.275-.088-.252 0-.87 0-1.157 0-.296.091-.724-.165-.882-.427-.262.054-1.679 0-2.204" clip-path="url(#n)" transform="matrix(1.33333 0 0 -1.33333 403.544 237.352)" fill="#231f20" fill-rule="evenodd"/><path d="M0 0l1.477-5.324 4.808 2.72-2.718-4.808 5.322-1.477-5.322-1.478 2.718-4.809-4.808 2.72L0-17.779l-1.477 5.323-4.808-2.72 2.718 4.809-5.322 1.478 5.322 1.477-2.718 4.808 4.808-2.72z" clip-path="url(#o)" transform="matrix(1.33333 0 0 -1.33333 373.855 214.37)" fill="#fff200" fill-rule="evenodd"/><path d="M0 0l-1.279 4.607L-2.556 0l-.072-.255-.229.131-4.162 2.354 2.353-4.162.132-.231-.255-.07-4.608-1.279 4.608-1.277.255-.071-.132-.231-2.353-4.161 4.162 2.353.229.131.072-.255 1.277-4.607L0-7.023l.07.255.231-.131 4.16-2.353-2.353 4.161-.13.231.255.071 4.606 1.277-4.606 1.279-.255.07.13.231L4.461 2.23.301-.124.07-.255zm-1.08 5.433L.327.364l4.579 2.59.647.366-.367-.647-2.589-4.58 5.069-1.406.717-.199-.717-.198-5.069-1.407 2.589-4.578.367-.648-.647.367L.327-7.387l-1.407-5.069-.199-.716-.198.716-1.407 5.069-4.578-2.589-.647-.367.365.648 2.59 4.578-5.068 1.407-.717.198.717.199 5.068 1.406-2.59 4.58-.365.647.647-.366 4.578-2.59 1.407 5.069.198.716z" clip-path="url(#p)" transform="matrix(1.33333 0 0 -1.33333 375.56 221.54)" fill="#231f20"/><path d="M0 0c-1.058.529-2.357 1.415-3.15 2.273-.375.406-1.554.558-1.852.015C-5.644 1.115-3.131.577-2.493.041-1.475-.814.663-2.345 0 0" clip-path="url(#q)" transform="matrix(1.33333 0 0 -1.33333 401.707 236.51)" fill="#e2abb5" fill-rule="evenodd"/><path d="M0 0a13 13 0 0 1 1.743-1.063l.04-.02.013-.044c.129-.459.154-.78.103-.993-.053-.224-.183-.339-.366-.373-.163-.03-.365.01-.585.097-.58.23-1.323.793-1.811 1.203-.175.147-.513.3-.886.469-.264.119-.545.247-.807.39-.689.378-1.206.848-.841 1.516a.7.7 0 0 0 .128.162c.191.176.488.248.797.243.3-.006.614-.085.846-.212q.148-.081.249-.187A9.3 9.3 0 0 1 0 0m1.609-1.227C1.059-.948.449-.578-.12-.168c-.531.384-1.028.803-1.409 1.216a.8.8 0 0 1-.195.146 1.7 1.7 0 0 1-.752.187c-.259.005-.505-.051-.653-.189a.4.4 0 0 1-.087-.109c-.284-.52.167-.912.759-1.236.251-.137.53-.264.793-.383.387-.174.737-.333.933-.499.477-.399 1.2-.949 1.756-1.169.186-.073.348-.109.47-.086.101.018.172.086.204.217.041.175.019.447-.09.846" clip-path="url(#r)" transform="matrix(1.33333 0 0 -1.33333 399.445 234.97)" fill="#231f20"/><path d="M0 0c.703.663 2.25 1.785 3.31 1.458C4.555 1.076 4.627.198 3.252.029 1.897-.137 1.031-.664.204-1.721c-.426-.544-1.021-.818-1.021.19 0 .7.659.977.817 1.531" clip-path="url(#s)" transform="matrix(1.33333 0 0 -1.33333 388.834 233.44)" fill="#e2abb5" fill-rule="evenodd"/><path d="M0 0c-.702-.308-1.383-.836-1.792-1.218-.076-.239-.231-.424-.39-.612-.205-.244-.414-.493-.414-.863 0-.23.03-.384.082-.476q.049-.083.113-.095.075-.013.175.033c.151.07.318.223.465.411.423.539.855.944 1.357 1.235.501.293 1.069.47 1.76.555.406.05.673.161.813.299q.101.102.108.214a.37.37 0 0 1-.08.236c-.129.181-.399.355-.799.479C.986.324.489.216 0 0m-1.954-1.087c.419.396 1.133.951 1.87 1.276C.447.423.993.538 1.458.396c.447-.139.753-.341.906-.556a.57.57 0 0 0 .119-.37.53.53 0 0 0-.168-.347c-.172-.17-.48-.303-.933-.358-.664-.081-1.207-.25-1.683-.528-.477-.278-.892-.666-1.297-1.183-.166-.214-.361-.389-.54-.472a.5.5 0 0 0-.304-.048.37.37 0 0 0-.25.196c-.071.122-.111.309-.111.577 0 .444.235.722.463.995.151.178.297.352.357.565l.008.027z" clip-path="url(#t)" transform="matrix(1.33333 0 0 -1.33333 391.345 231.89)" fill="#231f20"/><path d="M0 0h8.086v-5.741h7.396V0h9.116v-5.741h7.395V0h9.117v-5.741h7.396V0h7.65v-5.104l-4.974-4.335v-15.556h6.758v-6.502h6.63v6.502h6.887v-6.502h4.463v6.502h6.758v-6.502h6.629v6.502h7.013v15.173l-4.973 4.973V0h7.778v-5.741h7.396V0h9.116v-5.741h7.396V0h9.116v-5.741h7.395V0h9.325v-4.243l-5.776-5.361v-59.428H6.203v59.428L0-3.847z" clip-path="url(#u)" transform="matrix(1.33333 0 0 -1.33333 297.58 258.154)" fill="#942c31" stroke="#231f20" stroke-width="1.514" stroke-miterlimit="22.926"/><path d="M0 0v11.603M-15.683 0v11.603M14.79 0v11.603m-6.885-.062v7.967m-15.173-7.967v7.967M0 19.575v7.966m-89.51-7.966v7.966m73.827-7.966v7.966m30.473-7.966v7.966m-28.943 8.161v8.415m28.688-8.415v8.415m-21.803.255v7.013m14.407-7.013v7.013m-90.018-7.395v7.268m-13.643-7.268v7.268m16.703-23.844v7.905m-18.241-7.905v7.905M-75.739.383v10.71M-103.918.383v10.71M-89.896.765v10.328m7.527.638v7.905m-21.549 0v7.905m6.496-15.81v7.905m21.301 16.193v7.906m-26.904-7.906v7.906m26.904 7.65v7.905m-26.904-7.905v7.905m13.388-7.905v7.905m102.896-7.905v7.905m-26.902-7.905v7.905m13.388-7.905v7.905m-22.059-15.173V0m-45.264 44.117V0m45.137 44.075h46.795m-46.795 7.353h46.795m-46.795 7.99h46.795m-136.942-15.343h45.01m-45.01-32.598H24.225m-136.813 15.979H24.225m-136.813-7.99H24.225m-136.813 15.981H24.225m-136.813 15.981h45.01m-45.01 7.99h45.01" clip-path="url(#v)" transform="matrix(1.33333 0 0 -1.33333 455.929 350.302)" fill="none" stroke="#231f20" stroke-width="2.019" stroke-miterlimit="22.926"/><path d="M0 0c-2.816 4.567-4.88 10.374-5.863 16.879 1.867.353 3.833.541 5.863.541s3.996-.188 5.863-.541C4.88 10.374 2.816 4.567 0 0" clip-path="url(#w)" transform="matrix(1.33333 0 0 -1.33333 336.583 313.685)" fill="#fff" fill-rule="evenodd" stroke="#231f20" stroke-width="2.019" stroke-miterlimit="22.926"/><path d="M0 0c-2.816 4.567-4.88 10.374-5.863 16.881 1.867.351 3.833.539 5.863.539s3.996-.188 5.863-.539C4.88 10.374 2.816 4.567 0 0" clip-path="url(#x)" transform="matrix(1.33333 0 0 -1.33333 455.758 313.685)" fill="#fff" fill-rule="evenodd" stroke="#231f20" stroke-width="2.019" stroke-miterlimit="22.926"/><path d="M0 0c6.59 0 11.983-5.058 11.983-11.239v-25.1h-23.966v25.1C-11.983-5.058-6.59 0 0 0" clip-path="url(#y)" transform="matrix(1.33333 0 0 -1.33333 395.976 301.85)" fill="#231f20" fill-rule="evenodd"/><path d="M0 0c-.097 2.152-.883 4.333-2.228 6.022l-1.19-.929C-2.283 3.588-1.594 1.82-1.508-.07zm.015-9.121h-1.514v7.571H.015zm0-7.571h-1.514v6.057H.015zM-1.5-18.207H.014v-6.668H-1.5zm-19.253 2.124h1.514v-7.571h-1.514zm0 7.572h1.514v-6.057h-1.514zm.03 9.141V.629l-.004-.066-.004-.066-.004-.062-.004-.067-.002-.063-.002-.066-.002-.063-.002-.067-.001-.067-.002-.063v-.066l-.003-.065v-6.845h1.514v6.845l-.002.058.001.055v.058l.001.055.003.055.001.057.003.054.003.058.002.053.004.057.005.055.003.053v.001zm3.627 7.085c-1.813-1.535-2.648-3.273-3.375-5.475L-19 1.897c.192 1.687 1.619 3.602 2.875 4.664zm6.727 2.339h-.365c-1.844-.093-3.42-.456-5.031-1.392l.775-1.295c1.21.738 2.83 1.241 4.256 1.172h.365c2.171.101 4.455-.948 6.012-2.413l1.035 1.102c-1.996 1.877-4.348 2.696-7.047 2.826" clip-path="url(#z)" transform="matrix(1.33333 0 0 -1.33333 409.801 317.136)" fill="#fff"/><path d="M0 0c-4.622 15.117-1.811 31.312 6.102 41.933l-46.783 35.518c-7.425-3.078-12.963-4.695-23.026-4.695-19.167 0-37.216 6.439-43.316 15.707h-.031c-6.1-9.268-24.148-15.707-43.315-15.707-10.065 0-15.602 1.617-23.026 4.695l-46.784-35.518c7.912-10.621 10.724-26.816 6.102-41.933-5.007-17.524-28.229-29.787-28.229-29.787H28.229S5.007-17.524 0 0z" clip-path="url(#A)" transform="matrix(1.33333 0 0 -1.33333 539.69 310.387)" fill="none" stroke="#ffcb04" stroke-width="4.857"/><path d="M0 0c1.254 3.202.922 6.454-.545 9.285-1.591 3.068-4.508 5.661-8.202 7.214l-28.877 12.135a5 5 0 0 1-.324.124c-1.419.488-2.952.329-4.277-.285-1.328-.616-2.433-1.683-2.989-3.009a5 5 0 0 1-.12-.311l-.006.001v-.001l-25.12-72.406q1.596-.804 3.191-1.61c2.246-1.132 4.487-2.263 7.207-3.622l9.482 21.758q.03.247.141.486l.551 1.16c.292.648 4.073 8.532 13.234 1.727 3.78-2.809 7.498-5.455 11.059-5.862 2.909-.333 5.908.886 9.104 4.894-6.211 1.099-9.305 4.817-12.363 8.493-2.844 3.418-5.652 6.794-11.362 7.271v.003a1.582 1.582 0 0 0-1.288 2.278l9.276 18.779h.002a1.58 1.58 0 0 0 1.969.78l7.795-2.895.031-.008c.026-.009 9.039-2.591 3.596-12.403l13.799-6.826z" clip-path="url(#B)" transform="matrix(1.33333 0 0 -1.33333 547.777 124.863)" fill="#00904c"/><path d="M0 0l15.224-2.101 2.764 17.671q.143.934.143 1.919h.007c0 3.756-1.75 7.205-4.489 9.877-2.802 2.738-6.619 4.659-10.67 5.293-.929.144-1.895.219-2.888.219h-29.638c-1.405 0-2.809-.143-4.172-.423-3.744-.769-7.293-2.546-9.897-5.158-2.544-2.552-4.181-5.923-4.181-9.943 0-1.067.11-2.166.342-3.293l9.565-46.57c1.63-7.93 4.502-15.188 9.242-20.123 3.905-4.065 9.135-6.569 16.07-6.569 5.45 0 10.805 1.566 14.985 5.963 3.553 3.738 6.312 9.536 7.661 18.164l.623 3.985-13.234 1.605c-.008-3.101-.357-6.813-1.243-9.973-1.192-4.246-3.38-7.587-7.065-7.751h-.015c-3.43-.145-6.27 1.828-8.412 5.193-2.114 3.321-3.557 8.057-4.192 13.389l-5.954 31.092a13.31 13.31 0 0 0 2.204 10.237c1.523 2.131 3.599 3.598 5.698 4q.607.117 1.187.118h11.472q.222 0 .567-.033c2.337-.217 4.552-1.758 6.144-4.126C-.656 10.437.322 7.451.322 4.171q0-.703-.078-1.55z" clip-path="url(#C)" transform="matrix(1.33333 0 0 -1.33333 415.361 116.1)" fill="#00904c"/><path d="M0 0c-7.666 6.215-21.85 10.885-31.694 14.125-3.155 1.04-5.872 1.934-7.869 2.717-1.832.716-3.494 1.824-4.651 3.155-.958 1.101-1.591 2.373-1.732 3.739-.147 1.408.227 2.856 1.293 4.246.961 1.253 2.501 2.459 4.764 3.531 7.341 3.477 22.122 9.436 26.327 11.12l-1.665 13.316c-9.349-2.376-53.815-14.838-49.807-36.21q.01-.053.015-.105h.003c.003-.03 1.013-10.234 21.216-15.391 3.32-.848 5.846-1.473 8.201-2.056 16.902-4.183 25.86-6.401 24.878-13.28-.953-6.666-29.595-8.581-37.066-8.968l.118-.759.543-3.473c6.783-.33 39.023-1.284 49.725 9.733C7.121-8.925 5.043-4.09 0 0" clip-path="url(#D)" transform="matrix(1.33333 0 0 -1.33333 333.223 159.729)" fill="#00904c"/><path d="M0 0c-1.932 3.727-5.415 6.851-9.788 8.69l-28.877 12.135a9 9 0 0 1-.523.198c-2.227.766-4.603.532-6.632-.409-2.025-.94-3.719-2.591-4.589-4.658a9 9 0 0 1-.193-.51l.005-.002-25.54-73.616a1.583 1.583 0 0 1 .748-2.021 2283 2283 0 0 0 4.426-2.231c3.153-1.589 6.308-3.181 8.709-4.379l.003.003.072-.034a1.58 1.58 0 0 1 2.082.818l10.312 23.664q.102.207.139.444l.353.74-.001.002.019.042c.007.015 2.164 5.176 8.468.493 4.137-3.073 8.227-5.971 12.584-6.469 4.543-.518 9.076 1.511 13.661 8.45a1.583 1.583 0 0 1-1.252 2.454c-6.757.294-9.838 3.998-12.879 7.653-2.903 3.489-5.774 6.939-11.275 8.087l7.678 15.544 6.456-2.398a2 2 0 0 1 .217-.083c.016-.005 5.837-1.66.995-9.081a1.583 1.583 0 0 1 .573-2.358l16.83-8.327q.088-.048.183-.085a1.583 1.583 0 0 1 2.051.899L.681-11.887C2.293-7.774 1.873-3.613 0 0m-2.268-10.735l-5.036-12.85-13.799 6.826c5.443 9.812-3.57 12.395-3.597 12.403l-.03.009-7.795 2.895a1.58 1.58 0 0 1-1.97-.781h-.001l-9.276-18.779a1.582 1.582 0 0 1 1.288-2.278v-.002c5.71-.478 8.518-3.854 11.361-7.272 3.058-3.676 6.152-7.394 12.364-8.493-3.196-4.007-6.196-5.227-9.104-4.894-3.562.407-7.279 3.053-11.059 5.862-9.161 6.805-12.943-1.079-13.234-1.727l-.552-1.16a1.6 1.6 0 0 1-.14-.485L-62.33-63.22c-2.72 1.359-4.962 2.49-7.207 3.622q-1.595.806-3.191 1.61l25.12 72.406v.001l.006-.001q.051.148.12.311c.556 1.326 1.661 2.393 2.988 3.009 1.325.614 2.859.773 4.277.285q.155-.052.324-.124l28.878-12.135c3.694-1.553 6.611-4.145 8.201-7.214 1.467-2.831 1.8-6.083.546-9.285m-78.201 21.659q.194 1.254.193 2.402h-.006c0 4.669-2.121 8.904-5.442 12.146-3.257 3.179-7.69 5.411-12.395 6.147a22 22 0 0 1-3.37.271h-29.639c-1.586 0-3.202-.17-4.802-.499-4.332-.89-8.457-2.964-11.509-6.026-3.111-3.119-5.111-7.246-5.111-12.174 0-1.243.134-2.552.415-3.924l9.566-46.572c1.739-8.466 4.858-16.268 10.059-21.683 4.487-4.671 10.464-7.549 18.352-7.549 6.24 0 12.403 1.826 17.279 6.955 3.968 4.175 7.032 10.53 8.492 19.863l.856 5.479q.021.088.032.18a1.584 1.584 0 0 1-1.389 1.759l-16.665 2.021-.002-.003a1.582 1.582 0 0 1-1.765-1.639l.003-.069c.131-3.107-.13-7.32-1.099-10.773-.842-3.005-2.175-5.358-4.152-5.446v-.001h-.002c-2.182-.092-4.091 1.325-5.624 3.732-1.856 2.917-3.135 7.203-3.714 12.106l-.019.117-5.966 31.155q-.183.977-.182 1.945c0 2.259.743 4.31 1.853 5.863 1.053 1.473 2.407 2.472 3.715 2.722q.287.055.591.055h11.472q.206 0 .282-.006c1.36-.126 2.734-1.151 3.802-2.74 1.167-1.733 1.929-4.097 1.929-6.73q0-.686-.054-1.265l-.376-4.053-.001-.003a1.58 1.58 0 0 1 1.357-1.779l18.26-2.518v.001a1.58 1.58 0 0 1 1.773 1.325zm-2.974 2.402h-.006q0-.985-.143-1.918l-2.764-17.672-15.224 2.101.244 2.621q.078.847.078 1.55c0 3.28-.978 6.266-2.474 8.491-1.592 2.368-3.807 3.909-6.145 4.126a6 6 0 0 1-.567.033h-11.472q-.58 0-1.186-.117c-2.1-.402-4.175-1.869-5.698-4.001a13.3 13.3 0 0 1-2.204-10.237l5.954-31.092c.635-5.332 2.078-10.068 4.192-13.389 2.142-3.365 4.981-5.338 8.412-5.193h.014c3.686.164 5.874 3.505 7.066 7.752.886 3.159 1.235 6.872 1.243 9.972l13.234-1.604-.623-3.986c-1.349-8.628-4.108-14.426-7.661-18.164-4.18-4.397-9.535-5.962-14.985-5.962-6.936 0-12.166 2.504-16.07 6.568-4.741 4.935-7.613 12.193-9.242 20.123l-9.566 46.57a16.3 16.3 0 0 0-.341 3.293c0 4.02 1.637 7.391 4.181 9.943 2.604 2.613 6.153 4.389 9.897 5.158a20.8 20.8 0 0 0 4.171.424h29.639c.993 0 1.959-.076 2.888-.22 4.051-.634 7.867-2.555 10.67-5.292 2.738-2.673 4.488-6.122 4.488-9.878m-74.692-66.769c6.017 7.471 3.42 13.763-3.054 19.013-8.137 6.597-22.635 11.371-32.697 14.683-3.145 1.035-5.851 1.926-7.709 2.654-1.365.535-2.585 1.338-3.411 2.286-.549.632-.906 1.311-.975 1.98-.066.628.126 1.306.66 2.003.667.87 1.824 1.749 3.599 2.59 8.595 4.071 27.23 11.48 27.283 11.502a1.58 1.58 0 0 1 .987 1.66h.006l-2.037 16.29a1.585 1.585 0 0 1-1.995 1.337c-2.086-.484-58.643-13.858-53.868-40.178h-.003c.005-.036 1.251-12.392 23.584-18.093 2.527-.645 5.483-1.377 8.226-2.056 15.081-3.732 23.076-5.711 22.498-9.76-.716-5.013-35.726-6.33-35.827-6.335a1.58 1.58 0 0 1-1.489-1.89l.381-2.43.74-4.742a1.58 1.58 0 0 1 1.464-1.335v-.004c.115-.007 40.543-2.766 53.503 10.665q.073.076.134.16m-2.45 1.998c-10.702-11.016-42.942-10.063-49.725-9.733l-.543 3.473-.118.759c7.471.388 36.114 2.303 37.066 8.968.982 6.88-7.976 9.097-24.878 13.28-2.355.583-4.881 1.209-8.201 2.056-20.203 5.158-21.212 15.362-21.216 15.391h-.003q-.005.052-.015.106c-4.008 21.371 40.458 33.834 49.807 36.209l1.665-13.315c-4.205-1.685-18.986-7.643-26.327-11.12-2.263-1.072-3.803-2.278-4.764-3.531-1.066-1.391-1.44-2.838-1.293-4.247.141-1.366.774-2.638 1.732-3.739 1.157-1.331 2.819-2.438 4.651-3.155 1.997-.783 4.714-1.677 7.869-2.716 9.844-3.24 24.028-7.911 31.694-14.126 5.043-4.09 7.121-8.925 2.599-14.56" clip-path="url(#E)" transform="matrix(1.33333 0 0 -1.33333 550.802 110.55)" fill="#231f20"/><path d="M0 0c2.597.676 4.967-.887 7.341-.408 2.224.449 4.268 2.997 4.283 5.302.028 4.331-5.397 4.142-9.177 3.263 1.942 2.063 6.591 2.328 8.769.612 4.059-3.201.551-10.17-4.486-10.808C3.994-2.385 2.333-1.295 0 0" clip-path="url(#F)" transform="matrix(1.33333 0 0 -1.33333 425.303 386.691)" fill="#231f20"/><path d="M0 0c-3.133-.883-4.135-4.966-7.545-4.894 1.668.369 3.2 2.124 2.039 4.078-.996-.16-1.17-1.14-1.835-1.631-.788-.04-1.503-.007-2.04.204-.192.806-.159 1.182.204 1.835-.548.335-1.128.64-1.631 1.02 1.427.877 3.779-.653 5.302-1.02C-4.027.067-1.803.482 0 0" clip-path="url(#G)" transform="matrix(1.33333 0 0 -1.33333 409.533 378.806)" fill="#231f20"/><path d="M0 0c-.982-.595-2.958-2.075-4.079-2.651-.638-.328-1.926-.287-3.058 0C-5.681-.534-3.256.69 0 0" clip-path="url(#H)" transform="matrix(1.33333 0 0 -1.33333 437.81 379.622)" fill="#231f20"/><path d="M0 0c.902-1.881.098-4.081-.612-5.914-1.019-2.629-2.398-5.587-3.67-8.361-1.252-2.727-2.302-6.124-4.691-7.136-.558 2.567-.844 5.408-2.855 6.524-1.095-1.962-1.475-4.641-3.874-5.302-.33 1.098.019 2.183-.612 3.263-1.092-.606-1.045-2.353-2.854-2.242 1.463 1.458 1.417 4.071 2.242 5.709 1.096-.875 1.607-2.336 1.835-4.079 2.395.455 2.21 4.367 1.836 6.934 2.548-1.531 3.607-4.55 5.098-7.138 2.541 2.553 1.249 7.81.204 11.216 1.746-.023 2.038-3.262 2.651-5.098 2.473 2.261 1.346 8.619.204 11.012 1.812-.839 1.573-3.729 2.651-5.302C-1.103-4.471-.437-2.35 0 0" clip-path="url(#I)" transform="matrix(1.33333 0 0 -1.33333 448.143 389.682)" fill="#231f20"/><path d="M0 0h.408c1.439-.829 2.923-2.03 4.69-2.651.664-.233 1.847.282 2.039-.816C3.784-3.285 1.263-2.271 0 0" clip-path="url(#J)" transform="matrix(1.33333 0 0 -1.33333 424.76 391.042)" fill="#231f20"/><path d="M0 0c.329.057.351-.193.612-.204C2.55-5.191-.738-10.401-1.02-15.702-1.87-10.485.498-5.42 0 0" clip-path="url(#K)" transform="matrix(1.33333 0 0 -1.33333 452.493 393.217)" fill="#231f20"/><path d="M0 0c-3.151.316-5.386 2.635-6.934 3.875C-4.606 3.404-1.72 1.756 0 0" clip-path="url(#L)" transform="matrix(1.33333 0 0 -1.33333 430.741 399.199)" fill="#231f20"/><path d="M0 0c4.551-.217 11.352-5.313 7.138-9.992C7.766-4.412 3.626-1.992 0 0" clip-path="url(#M)" transform="matrix(1.33333 0 0 -1.33333 399.201 394.305)" fill="#231f20"/><path d="M0 0c1.313-2.086 3.438-3.359 5.71-4.486C3.28-5.297-.509-2.158 0 0" clip-path="url(#N)" transform="matrix(1.33333 0 0 -1.33333 417.418 394.849)" fill="#231f20"/><path d="M0 0c3.331-.476 5.208-2.404 5.71-5.71C3.887-3.726 2.186-1.621 0 0" clip-path="url(#O)" transform="matrix(1.33333 0 0 -1.33333 410.62 395.664)" fill="#231f20"/><path d="M0 0c.113-.749.109-1.814-.204-2.651C-4.844-3.99-7.31-.463-11.216.408c-3.418.763-6.591-1.099-10.603-1.224-3.879-.12-7.444 1.451-9.381 4.283-.034.51.313.637.612.815 2.222-.031 4.786-1.889 7.137-2.243 3.915-.589 6.949 1.656 11.215 1.02C-9.427 2.64-6.477 1.333-3.467.816-2.247.606-.971 1.049 0 0" clip-path="url(#P)" transform="matrix(1.33333 0 0 -1.33333 400.017 403.005)" fill="#ffcb04"/><path d="M0 0c-2.857.202-5.291.827-7.545 1.631C-5.757 3.594-.094 3.239 0 0" clip-path="url(#Q)" transform="matrix(1.33333 0 0 -1.33333 398.113 401.102)" fill="#fff"/><path d="M0 0c-1.86-1.743-2.765-4.44-5.302-5.506-.788 1.162.702 1.383 1.427 2.039C-2.602-2.318-1.926-.543 0 0" clip-path="url(#R)" transform="matrix(1.33333 0 0 -1.33333 418.778 409.803)" fill="#231f20"/><path d="M0 0c1.693-2.174-.526-5.355-1.02-7.341 3.609.47 4.283 3.874 6.526 5.71-.576-3.978-2.022-7.088-3.467-10.197 5.304.883 8.137 6.003 11.012 9.993-.617-3.598-3.089-5.341-2.855-9.789-.914-.547-.941 1.302-1.631 1.632-1.589-1.873-4.495-2.485-6.934-3.875-1.925-1.096-3.446-3.146-5.913-4.079 1.783-.971 5.405.659 7.137.408-2.564-1.514-6.816-1.34-10.4-1.834 3.065-3.311 9.443-1.336 13.867-.817-3.364-1.819-7.324-2.12-10.808-1.834-4.645.38-7.209 3.821-11.828 4.893-3.016.701-5.382.331-6.933 2.855 4.184-2.296 9.163-1.871 14.274-.816-.49-1.004-2.311-.679-2.855-1.631 3.147-2.353 8.235-.31 10.401 1.835-.419.533-1.596.309-2.244.612 1.766 2.314 5.145 3.012 5.71 6.526-1.867-.324-4.184-1.922-7.341-1.632C-3.006-6.782.136-5.03 0 0" clip-path="url(#S)" transform="matrix(1.33333 0 0 -1.33333 400.833 412.794)" fill="#231f20"/><path d="M0 0c.182-.09.364-.178.408-.408-1.186-5.203-4.485-8.294-9.993-9.177C-5.545-7.234-1.365-5.025 0 0" clip-path="url(#T)" transform="matrix(1.33333 0 0 -1.33333 424.487 421.223)" fill="#231f20"/><path d="M0 0c1.28-5.591-2.43-9.463-5.71-11.828C-3.863-7.829.015-5.86 0 0" clip-path="url(#U)" transform="matrix(1.33333 0 0 -1.33333 436.723 423.67)" fill="#231f20"/><path d="M0 0c2.648.066 4.918-.248 6.118-1.631-1.267.34-3.712.61-5.506 1.019C.273-.534-.066-.619 0 0" clip-path="url(#V)" transform="matrix(1.33333 0 0 -1.33333 384.247 425.845)" fill="#231f20"/><path d="M0 0c.05.256.406.205.408 0 .817-3.397-2.336-6.854-3.467-10.196C-3.466-7.119.132-3.478 0 0" clip-path="url(#W)" transform="matrix(1.33333 0 0 -1.33333 445.152 426.66)" fill="#231f20"/><path d="M0 0c-4.787.719-8.661 2.351-13.255 3.263-.126.181-.246.364 0 .408C-8.38 3.715-3.639 1.87 0 0" clip-path="url(#X)" transform="matrix(1.33333 0 0 -1.33333 332.043 439.168)" fill="#231f20"/><path d="M0 0c1.826.397 2.753-1.868 3.875-2.855C2.043-3.257 1.421-.687 0 0" clip-path="url(#Y)" transform="matrix(1.33333 0 0 -1.33333 482.13 437.264)" fill="#231f20"/><path d="M0 0c2.17-.753 3.79-2.056 5.506-3.263 2.918.063 4.716-.993 7.341-1.223C8.171-4.987 2.347-3.203.816-8.565c2.99-1.496 7.099-1.872 9.788-3.671 2.851 1.651 6.921 3.643 10.401 2.855-1.523-.911-3.09-.557-4.691-1.019-4.151-1.198-6.591-5.36-9.584-7.75 7.026-1.764 12.851 2.218 17.332 3.671-1.62-7.651-16.081-2.874-21.615-7.136 1.564 3.601 4.614 5.718 7.138 8.36-4.859 5.466-17.381-.878-22.025 5.506 3.109-1.019 6.65-3.149 10.605-2.04C-.659-7.295.945-5.227 3.059-3.671 2.149-2.338.347-1.896 0 0" clip-path="url(#Z)" transform="matrix(1.33333 0 0 -1.33333 363.31 437.808)" fill="#231f20"/><path d="M0 0c.577.169.528-.288 1.02-.204.154-3.04 1.956-4.432 3.466-6.118C1.809-5.397-.158-3.761 0 0" clip-path="url(#aa)" transform="matrix(1.33333 0 0 -1.33333 477.78 442.43)" fill="#231f20"/><path d="M0 0c-2.14-2.89-4.663-5.397-9.177-5.914C-5.85-4.21-3.179-1.852 0 0" clip-path="url(#ab)" transform="matrix(1.33333 0 0 -1.33333 420.953 443.518)" fill="#231f20"/><path d="M0 0c-2.76-1.798-6.296-3.892-10.808-3.263C-6.667-2.714-3.814-.876 0 0" clip-path="url(#ac)" transform="matrix(1.33333 0 0 -1.33333 388.597 446.509)" fill="#231f20"/><path d="M0 0c-.516-1.387-.987-2.82-2.039-3.671C-1.777-1.915-1.809-.505 0 0" clip-path="url(#ad)" transform="matrix(1.33333 0 0 -1.33333 419.321 450.043)" fill="#231f20"/><path d="M0 0c-.442-1.996-3.166-1.874-5.506-2.243-3.056-.483-9.095-2.144-10.4 1.631C-11.643-1.627-4.758-2.215 0 0" clip-path="url(#ae)" transform="matrix(1.33333 0 0 -1.33333 389.685 479.952)" fill="#231f20"/><path d="M0 0c-1.067-1.439-4.255-3.387-7.137-3.671-3.601-.355-8.788-.386-9.585 3.263 2.351-.435 3.884-2.276 6.526-2.243C-6.667-2.606-3.103-.662-.408 0z" clip-path="url(#af)" transform="matrix(1.33333 0 0 -1.33333 394.579 488.653)" fill="#231f20"/><path d="M0 0c-1.507-2.823-5.573-4.015-9.585-3.671C-6.778-2.194-2.794-1.896-.612.204-.448.096-.281-.009 0 0" clip-path="url(#ag)" transform="matrix(1.33333 0 0 -1.33333 410.893 494.906)" fill="#231f20"/><path d="M0 0h.612c1.483-3.265 3.321-8.156 3.059-11.828C2.018-8.123 1.146-4.454 0 0" clip-path="url(#ah)" transform="matrix(1.33333 0 0 -1.33333 435.907 496.538)" fill="#231f20"/><path d="M0 0c-1.322-1.466-3.723-1.851-5.506-2.855-1.048.243-3.161-.578-3.263.612C-4.99-2.487-2.668-.188 0 0" clip-path="url(#ai)" transform="matrix(1.33333 0 0 -1.33333 416.33 499.8)" fill="#231f20"/><path d="M0 0c-1.227-2.219-4.97-3.939-7.953-3.059C-5.055-2.285-2.545-1.126 0 0" clip-path="url(#aj)" transform="matrix(1.33333 0 0 -1.33333 419.865 503.335)" fill="#231f20"/><path d="M0 0c.248-2.181-4.219-2.171-6.322-2.039C-4.545-1.392-2.174-1.026 0 0" clip-path="url(#ak)" transform="matrix(1.33333 0 0 -1.33333 424.487 514.211)" fill="#231f20"/><path d="M0 0c.987-.168 1.138-1.173 1.835-1.631C.925-2.194.13-.895 0 0" clip-path="url(#al)" transform="matrix(1.33333 0 0 -1.33333 427.478 526.175)" fill="#231f20"/><path d="M0 0c1.122-.663-.232-2.154-1.02-2.243C-.925-1.25-.126-.962 0 0" clip-path="url(#am)" transform="matrix(1.33333 0 0 -1.33333 411.98 526.99)" fill="#231f20"/><path d="M0 0c1.109-.251 2.081-.638 2.243-1.835C1.513-1.956.042-1.228 0 0" clip-path="url(#an)" transform="matrix(1.33333 0 0 -1.33333 423.944 526.99)" fill="#231f20"/><path d="M0 0h.612c1.15-3.48 1.235-9.336-1.428-11.624C.257-8.327.38-3.626 0 0" clip-path="url(#ao)" transform="matrix(1.33333 0 0 -1.33333 394.035 529.981)" fill="#231f20"/><path d="M0 0h.612c1.433-3.063.663-8.624-2.243-10.196C.083-7.993.047-3.33 0 0" clip-path="url(#ap)" transform="matrix(1.33333 0 0 -1.33333 390.229 532.7)" fill="#231f20"/><path d="M0 0c-.759-1.586-1.155-3.176-.816-4.894C-2.353-4.024-1.509-.324 0 0" clip-path="url(#aq)" transform="matrix(1.33333 0 0 -1.33333 410.62 535.691)" fill="#231f20"/><path d="M0 0c1.533-2.089.086-6.776-2.447-7.341C-1.065-5.461-.367-2.895 0 0" clip-path="url(#ar)" transform="matrix(1.33333 0 0 -1.33333 386.422 535.963)" fill="#231f20"/><path d="M0 0c.539-5.471.374-10.593 3.467-13.663C-1.596-12.545-.86-4.929 0 0" clip-path="url(#as)" transform="matrix(1.33333 0 0 -1.33333 361.135 538.41)" fill="#231f20"/><path d="M0 0c1.383-2.967 3.382-5.319 5.098-7.953C2.073-6.759-.061-3.603 0 0" clip-path="url(#at)" transform="matrix(1.33333 0 0 -1.33333 366.573 544.935)" fill="#231f20"/><path d="M0 0c.781-.103 1.582-.185 1.631-1.02C.789-.978.329-.554 0 0" clip-path="url(#au)" transform="matrix(1.33333 0 0 -1.33333 372.555 547.383)" fill="#231f20"/><path d="M0 0c.306.488 1.02-.323 1.02-.816C.421-.803.419-.193 0 0" clip-path="url(#av)" transform="matrix(1.33333 0 0 -1.33333 439.986 554.18)" fill="#231f20"/><path d="M0 0c1.699-1.155 3.443-1.643 4.894-2.651C2.783-2.247.869-1.645 0 0" clip-path="url(#aw)" transform="matrix(1.33333 0 0 -1.33333 442.705 559.346)" fill="#231f20"/><path d="M0 0c1.282.516 3.261-.602 3.671-1.02C2.035-.891.804-.448 0 0" clip-path="url(#ax)" transform="matrix(1.33333 0 0 -1.33333 446.24 565.872)" fill="#231f20"/><path d="M0 0c1.662-.636 6.313-2.599 8.769-3.059C4.906-2.979 1.944-1.999 0 0" clip-path="url(#ay)" transform="matrix(1.33333 0 0 -1.33333 435.363 566.143)" fill="#231f20"/><path d="M0 0c1.965-.157 1.704-4.001 0-4.282C-.238-2.696-.072-2.077 0 0" clip-path="url(#az)" transform="matrix(1.33333 0 0 -1.33333 368.749 567.23)" fill="#231f20"/><path d="M0 0c-.698-2.565-2.874-3.65-5.302-4.486C-4.135-2.526-1.948-.5 0 0" clip-path="url(#aA)" transform="matrix(1.33333 0 0 -1.33333 371.468 577.835)" fill="#231f20"/><path d="M0 0c.866-5.027-3.388-6.2-6.526-8.361C-5.468-5.775.118-5.025 0 0" clip-path="url(#aB)" transform="matrix(1.33333 0 0 -1.33333 457.93 577.835)" fill="#231f20"/><path d="M0 0c.783-.776-1.397-1.773-2.447-2.039C-2.043-.948-.608-.886 0 0" clip-path="url(#aC)" transform="matrix(1.33333 0 0 -1.33333 358.417 588.44)" fill="#231f20"/><path d="M0 0c.14-1.003-.465-2.899-1.631-3.263C-1.372-1.732-1.45-.608 0 0" clip-path="url(#aD)" transform="matrix(1.33333 0 0 -1.33333 441.889 598.5)" fill="#231f20"/><path d="M0 0c0-58.864-24.813-107.477-24.813-166.339-59.409 0-59.919 1.148-119.331 1.148-17.62 33.11-11.475 27.537-27.538 45.896 6.024 2.992 16.956 10.766 22.621 14.343 15.474 9.77 31.404 26.809 46.977 36.683 1.271.715-5.405 4.678-4.499 6.093-6.378-1.74-12.224.203-11.874 2.974.131 1.034 1.742 1.383 2.855 2.243 2.307 1.785 4.231 5.036 4.079 8.973-.066 1.695-.944 3.093-.816 5.302-2.424-.801-4.174.493-4.69 2.244-2.74-1.003-9.989-2.084-9.789 2.243-1.96-.146-6.442-.835-6.933 1.427-.287 1.327 1.147 1.899.612 2.65-2.501.054-5.646-.519-5.913 1.429-.183 1.326 1.634 1.347 1.222 2.651-2.535.207-4.519 1.769-7.34 1.63-2.173-.105-4.244-1.547-6.526-1.835-3.965-.5-8.015-.083-9.584 3.059-1.075.367-1.712.016-2.855-.204.817 1.833 3.126 2.177 3.67 4.282-1.706 1.229-3.103 2.079-5.098 1.632 1.474 1.585 3.354 2.764 4.486 4.69-.67.816-2.186.199-3.262.204 2.844 3.144 6.206 7.115 11.624 6.322.81-.119 2.294-.515 3.262-1.02 1.567-.816 2.573-3.025 4.283-4.078 3.365-2.072 8.332-2.618 12.642-3.467 4.424-.87 8.954-1.661 13.256-1.835-2.084.878-5.144 3.758-2.04 5.71-1.312.286-2.612 1.088-1.835 2.855-3.212.751-8.769 6.032-2.243 6.729-1.4 1.659-2.261 3.857-3.467 5.71-6.636-.036-9.361 5.587-12.846 9.38.875 2.303-1.401 2.688-1.632 3.671 1.568.141 2.65-.204 4.078-.204-.954 1.49-.053 3.538-.408 5.098-.325 1.433-1.775 1.647-2.038 2.651 4.039-.427 6.72.029 9.787-1.02.022.779-1.475 1.096-1.019 1.632 8.613-.36 12.243-5.701 13.051-13.866 4.079-3.909 4.929-9.106 8.565-13.256 2.363-2.698 6.77-3.823 8.769-6.525.483-.654 1.001-1.175.816-2.448 2.128 1.43 3.289 3.042 5.912 3.671 3.762.902 10.034-.264 10.809 4.894-2.091 2.96-7.16.048-9.585.612-1.832 1.544-1.521 4.554-1.02 7.342-3.474-.758-8.002-1.682-11.623-.204-1.413.577-7.574 4.767-3.466 5.71 2.207.506 5.076-2.209 8.361-2.447 3.082-.225 5.193.642 7.952 1.223-2.091.699-3.597 3.833-2.039 6.321-1.405.978-2.624 1.472-2.65 3.467-.072 5.229 9.731 5.679 13.458 7.749.823 2.255 3.461 4.052 6.933 3.874 1.888-.096 3.984-1.304 6.118-1.223 3.699.14 7.146 2.579 10.603 1.223 1.394 1.455 3.17 3.865 6.934 3.467 3.069-.324 6.667-3.099 9.788-3.467 2.196-.258 4.94.687 5.303-1.019.256-1.209-1.388-1.628-1.428-2.039.748-1.751 4.629-3.393 6.526-4.895 2.769-2.192.767-4.841-3.875-4.486.8-2.194 2.653-4.6 2.855-7.748.341-5.319-2.918-12.556-3.059-17.538-.072-2.567-.186-3.752-2.447-4.487-.282-1.824-.625-3.823-1.224-5.332-1.936-1.746-5.814-9.828-4.354-9.169C-33.716-23.079-12.984-8.318 0 0m-48.919-106.512c1.948-1.73 3.903-4.516 7.341-4.079-.289 3.806-5.729 5.271-4.69 10.401.983-4.047 2.707-7.353 6.322-8.768-.616 1.571-.458 3.289-.612 4.689-.491 4.463-2.567 6.875-3.467 9.993 1.121-1.404 5.649-2.692 7.138-.612.123 1.143-1.058.983-1.224 1.835 3.695.044 6.812.665 7.749 3.467-.136.747-1.221.546-1.631 1.02 2.301.621 4.437 1.407 4.69 4.078-.547.676-2.076.373-2.855.816 1.628.614 3.26 1.225 3.875 2.855-.259.489-.894.601-.816 1.427.538 2.993 1.562 7.233 1.224 10.401-.124 1.151-.504 3.065-.816 3.058-.438 9.789-9.092 20.07-9.585 29.773-.328 6.471 4.306 10.325 11.011 11.011.524-2.682-.313-5.504 1.021-7.34 1.091-1.504 3.607-1.664 5.505-2.651 1.85-.963 2.529-2.684 4.283-3.059 1.102.544-.199 2.625.407 3.263 1.493-.866 4.196-1.817 5.71-.408-1.28.957-2.589 3.019-4.078 3.873-1.858 1.069-5.546.585-5.302 2.855q4.614-2.218 10.4-3.261c.01.67.872.487.816 1.222-1.168 1.588-2.957 1.688-4.283 2.855-1.286 1.133-1.898 2.865-3.059 4.079-2.212 2.312-6.858 3.449-10.603 3.263-9.811-.488-16.648-8.693-15.906-18.353.596-7.767 5.659-16.429 7.545-24.675 2.082-9.105.165-19.622-11.012-17.945-1.631 1.237-1.356 2.97-1.835 4.894-.923 3.712-1.912 6.931-3.263 9.176-3.807 6.333-8.86 11.714-17.333 12.644.517-2.541 2.592-4.612 2.038-7.546-2.551.78-4.253 2.407-6.932 3.059-.911 1.218-2.492 1.404-3.671 2.243-1.037.74-1.648 2.196-3.059 2.448-1.744-3.747.712-6.873 2.039-9.381-1.471-1.354-4.116-2.235-6.525-3.059-2.285-.78-5.239-1.83-7.138-.408 4.452.986 9.227 1.651 12.236 4.079-1.433 3.251-6.191 3.717-8.361 6.729-2.238 3.108-2.193 8.345 1.223 11.012-2.859-5.153-.664-11.513 4.283-13.255.752 1.106.34 2.909.408 4.079.306 5.281 2.676 8.796 3.263 12.643.192 1.26-.497 2.443.611 3.467 1.843-4.94-2.719-9.11-1.223-13.459.239-.695 1.498-2.325 2.039-2.855 1.908-1.867 6.335-4.612 8.973-4.283-2.707 4.301-9.087 10.301-4.69 16.722-.34-1.526-.589-3.029-.408-4.282.671-4.658 8.945-8.023 13.05-8.361 1.147-.095 2.276-.005 3.263.612-2.644 5.172-8.942 6.691-10.195 13.255 2.229-2.198 3.78-4.246 6.728-5.71.952-.474 3.986-1.802 4.283 0 .149.903-2.201 2.818-2.855 3.671-1.182 1.541-1.84 2.364-1.632 4.282 1.407-1.517 1.919-3.928 4.079-4.69.899 1.203.428 2.845.612 4.69.19 1.903 1.346 3.655 1.427 5.302.088 1.78-.799 4.127-1.02 6.117-.094.861.48 1.887-.611 2.447-2.551-2.41-4.515-5.41-5.099-9.787-1.941 2.679-3.282 6.349-2.855 11.826-1.513-.24-2.204-1.396-3.465-2.243-3.557-2.381-8.472-2.937-12.44-4.485-2.122-.829-3.07-2.555-4.894-3.263.827 5.038 7.821 4.709 12.847 6.729 3.988 1.603 6.47 3.708 8.768 5.71 2.144 2.547 3.419 5.963 4.079 9.992 1.63-6.466-7.492-13.382-2.446-20.189 3.168 5.805 9.021 8.925 10.195 16.722-.18-5.797-7.271-15.972 0-19.576.071 5.414 3.171 11.87 6.322 16.11.1 1.396.551 2.439.408 4.078-1.968 1.84-3.947 4.754-3.671 8.157 1.469-3.085 1.612-7.496 5.914-7.749.805 1.384.313 2.617.408 4.079.353 5.457 3.12 10.719 3.059 15.906-.047 4.026-2.787 7.112-4.487 9.991 1.911-.766 5.755-1.523 6.73.612-.001.205.165.243.204.408-.746 1.511-2.345 1.558-3.671 2.447-2.422 1.624-3.916 4.38-6.934 5.098 1.581.052 3.429-.165 3.875 1.02-.844.714-1.411.162-2.243.204-5.619.289-11.686 5.824-16.517 2.039-.304-.785-.56-1.616-1.225-2.039-4.268 1.372-7.926-.998-11.419-1.02-2.656-.016-4.878 1.23-7.545 1.224-2.305-.619-3.769-2.078-4.894-3.875-2.789-1.945-10.661-2.023-12.44-5.098-.867-1.498-.286-4.381 1.835-4.283 1.636.077 2.943 3.291 4.895 1.632-3.871-.082-6.768-4.437-4.283-7.748 1.57-.266 2.824-.848 4.079-1.428 2.757 1.338 7.363 2.584 9.992 0 1.921-1.888 2.905-6.927-.204-7.545-5.545-1.104-7.428 4.398-12.847 4.078-1.269-1.442-1.685-6.455.204-7.545 2.869 1.687 9.725 2.367 9.992-1.631.259-3.857-5.159-4.09-9.177-4.487-3.121-.307-5.683-1.721-6.728-3.874.767-.66 2.167-.687 2.854-1.428-3.624.622-7.538 1.686-10.603 0-.385-.964.607-2.678 1.223-3.467 1.883-2.412 5.372-4.164 8.156-5.506-7.147.125-7.74 6.807-13.866 7.953 1.464 2.683 5.721 2.573 8.973 3.467-1.08 3.012-4.48 3.778-6.73 5.506-3.265 2.509-5.12 6.268-7.341 9.993-1.132 1.897-2.936 3.898-3.671 5.71-.346.852-.222 1.747-.408 2.65-.918 4.484-3.763 9.521-8.769 9.992q.057-.666-.611-.612c.139-2.851 2.804-3.178 3.059-5.913-3.112 2.279-5.06 8.218-10.809 5.913-1.292-2.645-.392-5.692 1.428-6.321 2.915-1.007 7.415-1.915 7.341-4.691-3.024 1.708-5.778 4.636-10.604 3.875-1.545-2.523 1.464-4.714 3.263-6.525 2.4-2.416 4.532-5.147 8.769-4.282 1.28-3.275 3.484-5.625 5.098-8.565-1.437.469-4.168 1.134-4.69-.612 1.912-1.759 3.813-3.528 7.137-3.875-.247-.908-1.768-.542-1.631-1.835 2.316-1.309 6.133-.076 8.361-1.631-3.108.049-6.006-.112-7.749-1.428.713-4.589 8.632-3.059 10.196-6.118-10.595 1.893-29.622 2.354-35.686 7.546-1.559 1.335-3.147 3.689-6.118 4.078-4.606.602-8.584-2.338-7.138-5.302 2.8.148 7.154 1.388 9.381-.816-1.437-.514-3.026.78-4.894.816-2.959.058-6.513-1.662-6.322-4.282 1.261-3.09 8.911.21 10.4-2.651-3.335-.069-5.997 1.342-8.157-.204-.94-1.824-.05-4.824 1.428-5.505 4.494-2.075 8.981 1.117 12.847 1.426 4.507.362 7.745-2.154 10.399-1.63 1.035.202 2.264 1.911 3.467 1.018-2.243-1.292-4.964-2.104-6.118-4.485 4.236-1.628 9.369.71 12.848 1.834-1.921-2.564-6.567-2.405-7.75-5.709.249-.023.484-.061.408-.408 2.193-.551 4.49-.75 6.526-.204 2.39.641 3.908 2.844 5.71 3.263.016-2.548-5.366-3.322-5.302-5.098.063-1.728 4.256-1.744 6.526-1.223 3.341.765 3.941 2.948 5.913 4.282.309-2.893-2.479-2.688-2.651-5.098 2.394-2.612 6.226 1.288 8.769 1.019-.288-2.032-3.633-1.025-4.282-3.058-.595-1.859.79-4.65.612-6.73-.456-5.284-3.636-6.856-6.934-9.789 2.733-3.695 10.109-1.922 14.071-.611-.609-.479-1.412-.765-1.631-1.632 3.146-6.911 11.971-6.602 19.168-8.769 4.89-1.47 11.015-5.158 12.236-10.195 1.402-5.793-3.414-9.67-3.875-14.683-.253-2.741.338-5.659 1.02-7.545 1.477-4.082 4.67-8.37 7.953-10.807 1.746-1.297 3.792-2.113 5.506-3.467 1.73-1.368 2.846-3.283 4.689-4.691 2.296 3.935-1.486 7.416-3.467 9.993.088.32.643.173.408.816-2.627 2.898-8.071 9.357-4.689 12.642-1.482-6.136 4.326-12.198 8.768-13.05-.429 2.063-1.284 6.926-3.467 8.564 1.917-.183 1.402-2.421 3.059-2.243.852.411.062 1.337.204 2.243.986-.059 1.131-.505 2.039-.204 1.155 2.807-2.116 4.127-2.243 6.118 1.164-.673 1.265-2.407 2.855-2.651.656 2.544-2.085 3.313-2.651 5.302.555.247 2.614.514 2.855-.204-.346-.688-1.419.617-1.428-.408.518-1.727 1.8-2.686 2.04-4.69-1.348-1.271.302-4.21-.612-5.71-.725.024-.742.755-1.632.611-.103-1.051-.996-1.314-1.631-1.835-.235-2.955 3.006-5.284 4.486-6.526-2.498-.255-3.713.773-5.914.817-.145-2.63 2.433-4.203 2.448-7.341 1.906-1.523 5.574-3.668 7.545-5.302 1.658-1.376 2.555-2.723 1.835-5.506-.382-1.483-1.95-4.392-3.466-6.73-2.808-4.33-5.6-8.809-10.605-10.195-3.569.071-10.008-1.079-11.215-5.508-.428-1.57-.096-3.595-.204-5.301 1.546.596 4.63 1.14 5.506.612 1.805.438 2.49 3.082 4.079 3.059a6.51 6.51 0 0 1-2.243-6.934c3.312-.635 7.767.807 8.564 3.671.075-1.229-.64-1.672-.816-2.651.768-.728 1.445-1.546 1.835-2.651 2.04 1.285 5.691 1.161 6.934 3.059 1.164 1.775.307 4.012.408 6.322.082 1.881.833 4.04 1.631 5.71 3.335 6.971 12.709 12.018 13.867 19.168.006.033-.469.748-.408 1.02 1.038 4.627-4.079 7.145-6.321 10.604 1.242 4.257-6.502 2.317-7.138 4.69 1.922-.78 4.89-2.027 6.526-.409.098 1.654-1.883 1.418-3.059 1.837-2.466.878-4.413 2.901-5.71 4.689.229.021.317-.296.408 0M-83.382 3.199c-3.01.517-5.961 1.824-8.769 2.242-4.266.638-7.3-1.607-11.215-1.018-2.351.353-4.916 2.212-7.137 2.243-.299-.178-.647-.305-.612-.816 1.937-2.831 5.502-4.402 9.381-4.282 4.012.124 7.185 1.985 10.603 1.223 3.904-.871 6.372-4.399 11.012-3.059.313.836.317 1.902.204 2.651-.971 1.05-2.246.606-3.467.816m-5.506 2.242c2.254-.803 4.688-1.429 7.545-1.63-.094 3.238-5.756 3.594-7.545 1.63m10.4-100.329c1.564 2.024-.762 4.294-.204 6.118.421-.736.725-1.587 1.632-1.836 1.672.886.61 3.506.408 4.487.577-.213.849-.213 1.427 0 .543 1.721.492 3.972-.204 5.506-2.518-1.25-3.075-2.87-4.894-4.079-6.284-4.179-21.073 1.491-26.918-3.874-2.634-2.419-6.422-9.207-6.933-13.256-.533-4.214 1.258-7.985 2.651-10.399.762-1.322 1.359-2.042 2.039-3.263.657-1.177.517-4.093.408-5.506-.454-5.897-5.201-12.168-9.788-13.663-3.53-1.15-7.372.068-11.013 0-4.633-.087-11.904-4.94-8.361-9.585 4.172-.734 4.497 3.857 7.75 4.691-1.321-2.297-5.04-3.856-3.467-7.75 1.632-1.751 6.474-2.982 7.341-.202.215.684-.504 1.231-.408 2.038.21 1.76 1.919 2.927 3.467 3.263-3.484-2.352-2.072-7.601 2.855-6.934 2.015.274 5.49 2.824 6.934 4.486 1.444 1.665 2.193 3.834 4.078 5.914 4.192 4.628 12.46 6.561 12.847 14.071.305.307 1.163.062 1.019.816-.009 2.354.271 5.332.204 7.138-.045 1.226-.817 1.975-.408 3.059.218.572 1.456 1.603 2.04 2.039.85.633 2.18 1.345 3.263 1.63.447-1.304-.261-2.229.204-4.077 4.559.338 6.719 4.15 9.38 5.71.135-1.634-1.768-2.989-2.039-4.896 3.285-.495 7.037 1.885 8.769 4.284-2.289 2.834-3.34 6.176-4.691 9.583-.783-1.393-1.539-3.896-2.651-4.282 1.746 2.952 1.71 7.532 1.224 11.216.588-1.461.051-2.079 2.039-2.447" clip-path="url(#aE)" transform="matrix(1.33333 0 0 -1.33333 506.57 406.183)" fill="#231f20"/><path d="M0 0c0-58.864-24.813-107.477-24.813-166.339-59.409 0-59.919 1.148-119.331 1.148-17.62 33.11-11.475 27.537-27.538 45.896 6.024 2.992 16.956 10.766 22.621 14.343 15.474 9.77 31.404 26.809 46.977 36.683 1.271.715-5.405 4.678-4.499 6.093-6.378-1.74-12.224.203-11.874 2.974.131 1.034 1.742 1.383 2.855 2.243 2.307 1.785 4.231 5.036 4.079 8.973-.066 1.695-.944 3.093-.816 5.302-2.424-.801-4.174.493-4.69 2.244-2.74-1.003-9.989-2.084-9.789 2.243-1.96-.146-6.442-.835-6.933 1.427-.287 1.327 1.147 1.899.612 2.65-2.501.054-5.646-.519-5.913 1.429-.183 1.326 1.634 1.347 1.222 2.651-2.535.207-4.519 1.769-7.34 1.63-2.173-.105-4.244-1.547-6.526-1.835-3.965-.5-8.015-.083-9.584 3.059-1.075.367-1.712.016-2.855-.204.817 1.833 3.126 2.177 3.67 4.282-1.706 1.229-3.103 2.079-5.098 1.632 1.474 1.585 3.354 2.764 4.486 4.69-.67.816-2.186.199-3.262.204 2.844 3.144 6.206 7.115 11.624 6.322.81-.119 2.294-.515 3.262-1.02 1.567-.816 2.573-3.025 4.283-4.078 3.365-2.072 8.332-2.618 12.642-3.467 4.424-.87 8.954-1.661 13.256-1.835-2.084.878-5.144 3.758-2.04 5.71-1.312.286-2.612 1.088-1.835 2.855-3.212.751-8.769 6.032-2.243 6.729-1.4 1.659-2.261 3.857-3.467 5.71-6.636-.036-9.361 5.587-12.846 9.38.875 2.303-1.401 2.688-1.632 3.671 1.568.141 2.65-.204 4.078-.204-.954 1.49-.053 3.538-.408 5.098-.325 1.433-1.775 1.647-2.038 2.651 4.039-.427 6.72.029 9.787-1.02.022.779-1.475 1.096-1.019 1.632 8.613-.36 12.243-5.701 13.051-13.866 4.079-3.909 4.929-9.106 8.565-13.256 2.363-2.698 6.77-3.823 8.769-6.525.483-.654 1.001-1.175.816-2.448 2.128 1.43 3.289 3.042 5.912 3.671 3.762.902 10.034-.264 10.809 4.894-2.091 2.96-7.16.048-9.585.612-1.832 1.544-1.521 4.554-1.02 7.342-3.474-.758-8.002-1.682-11.623-.204-1.413.577-7.574 4.767-3.466 5.71 2.207.506 5.076-2.209 8.361-2.447 3.082-.225 5.193.642 7.952 1.223-2.091.699-3.597 3.833-2.039 6.321-1.405.978-2.624 1.472-2.65 3.467-.072 5.229 9.731 5.679 13.458 7.749.823 2.255 3.461 4.052 6.933 3.874 1.888-.096 3.984-1.304 6.118-1.223 3.699.14 7.146 2.579 10.603 1.223 1.394 1.455 3.17 3.865 6.934 3.467 3.069-.324 6.667-3.099 9.788-3.467 2.196-.258 4.94.687 5.303-1.019.256-1.209-1.388-1.628-1.428-2.039.748-1.751 4.629-3.393 6.526-4.895 2.769-2.192.767-4.841-3.875-4.486.8-2.194 2.653-4.6 2.855-7.748.341-5.319-2.918-12.556-3.059-17.538-.072-2.567-.186-3.752-2.447-4.487-.282-1.824-.625-3.823-1.224-5.332-1.936-1.746-5.814-9.828-4.354-9.169C-33.716-23.079-12.984-8.318 0 0zm-48.919-106.512c1.948-1.73 3.903-4.516 7.341-4.079-.289 3.806-5.729 5.271-4.69 10.401.983-4.047 2.707-7.353 6.322-8.768-.616 1.571-.458 3.289-.612 4.689-.491 4.463-2.567 6.875-3.467 9.993 1.121-1.404 5.649-2.692 7.138-.612.123 1.143-1.058.983-1.224 1.835 3.695.044 6.812.665 7.749 3.467-.136.747-1.221.546-1.631 1.02 2.301.621 4.437 1.407 4.69 4.078-.547.676-2.076.373-2.855.816 1.628.614 3.26 1.225 3.875 2.855-.259.489-.894.601-.816 1.427.538 2.993 1.562 7.233 1.224 10.401-.124 1.151-.504 3.065-.816 3.058-.438 9.789-9.092 20.07-9.585 29.773-.328 6.471 4.306 10.325 11.011 11.011.524-2.682-.313-5.504 1.021-7.34 1.091-1.504 3.607-1.664 5.505-2.651 1.85-.963 2.529-2.684 4.283-3.059 1.102.544-.199 2.625.407 3.263 1.493-.866 4.196-1.817 5.71-.408-1.28.957-2.589 3.019-4.078 3.873-1.858 1.069-5.546.585-5.302 2.855q4.614-2.218 10.4-3.261c.01.67.872.487.816 1.222-1.168 1.588-2.957 1.688-4.283 2.855-1.286 1.133-1.898 2.865-3.059 4.079-2.212 2.312-6.858 3.449-10.603 3.263-9.811-.488-16.648-8.693-15.906-18.353.596-7.767 5.659-16.429 7.545-24.675 2.082-9.105.165-19.622-11.012-17.945-1.631 1.237-1.356 2.97-1.835 4.894-.923 3.712-1.912 6.931-3.263 9.176-3.807 6.333-8.86 11.714-17.333 12.644.517-2.541 2.592-4.612 2.038-7.546-2.551.78-4.253 2.407-6.932 3.059-.911 1.218-2.492 1.404-3.671 2.243-1.037.74-1.648 2.196-3.059 2.448-1.744-3.747.712-6.873 2.039-9.381-1.471-1.354-4.116-2.235-6.525-3.059-2.285-.78-5.239-1.83-7.138-.408 4.452.986 9.227 1.651 12.236 4.079-1.433 3.251-6.191 3.717-8.361 6.729-2.238 3.108-2.193 8.345 1.223 11.012-2.859-5.153-.664-11.513 4.283-13.255.752 1.106.34 2.909.408 4.079.306 5.281 2.676 8.796 3.263 12.643.192 1.26-.497 2.443.611 3.467 1.843-4.94-2.719-9.11-1.223-13.459.239-.695 1.498-2.325 2.039-2.855 1.908-1.867 6.335-4.612 8.973-4.283-2.707 4.301-9.087 10.301-4.69 16.722-.34-1.526-.589-3.029-.408-4.282.671-4.658 8.945-8.023 13.05-8.361 1.147-.095 2.276-.005 3.263.612-2.644 5.172-8.942 6.691-10.195 13.255 2.229-2.198 3.78-4.246 6.728-5.71.952-.474 3.986-1.802 4.283 0 .149.903-2.201 2.818-2.855 3.671-1.182 1.541-1.84 2.364-1.632 4.282 1.407-1.517 1.919-3.928 4.079-4.69.899 1.203.428 2.845.612 4.69.19 1.903 1.346 3.655 1.427 5.302.088 1.78-.799 4.127-1.02 6.117-.094.861.48 1.887-.611 2.447-2.551-2.41-4.515-5.41-5.099-9.787-1.941 2.679-3.282 6.349-2.855 11.826-1.513-.24-2.204-1.396-3.465-2.243-3.557-2.381-8.472-2.937-12.44-4.485-2.122-.829-3.07-2.555-4.894-3.263.827 5.038 7.821 4.709 12.847 6.729 3.988 1.603 6.47 3.708 8.768 5.71 2.144 2.547 3.419 5.963 4.079 9.992 1.63-6.466-7.492-13.382-2.446-20.189 3.168 5.805 9.021 8.925 10.195 16.722-.18-5.797-7.271-15.972 0-19.576.071 5.414 3.171 11.87 6.322 16.11.1 1.396.551 2.439.408 4.078-1.968 1.84-3.947 4.754-3.671 8.157 1.469-3.085 1.612-7.496 5.914-7.749.805 1.384.313 2.617.408 4.079.353 5.457 3.12 10.719 3.059 15.906-.047 4.026-2.787 7.112-4.487 9.991 1.911-.766 5.755-1.523 6.73.612-.001.205.165.243.204.408-.746 1.511-2.345 1.558-3.671 2.447-2.422 1.624-3.916 4.38-6.934 5.098 1.581.052 3.429-.165 3.875 1.02-.844.714-1.411.162-2.243.204-5.619.289-11.686 5.824-16.517 2.039-.304-.785-.56-1.616-1.225-2.039-4.268 1.372-7.926-.998-11.419-1.02-2.656-.016-4.878 1.23-7.545 1.224-2.305-.619-3.769-2.078-4.894-3.875-2.789-1.945-10.661-2.023-12.44-5.098-.867-1.498-.286-4.381 1.835-4.283 1.636.077 2.943 3.291 4.895 1.632-3.871-.082-6.768-4.437-4.283-7.748 1.57-.266 2.824-.848 4.079-1.428 2.757 1.338 7.363 2.584 9.992 0 1.921-1.888 2.905-6.927-.204-7.545-5.545-1.104-7.428 4.398-12.847 4.078-1.269-1.442-1.685-6.455.204-7.545 2.869 1.687 9.725 2.367 9.992-1.631.259-3.857-5.159-4.09-9.177-4.487-3.121-.307-5.683-1.721-6.728-3.874.767-.66 2.167-.687 2.854-1.428-3.624.622-7.538 1.686-10.603 0-.385-.964.607-2.678 1.223-3.467 1.883-2.412 5.372-4.164 8.156-5.506-7.147.125-7.74 6.807-13.866 7.953 1.464 2.683 5.721 2.573 8.973 3.467-1.08 3.012-4.48 3.778-6.73 5.506-3.265 2.509-5.12 6.268-7.341 9.993-1.132 1.897-2.936 3.898-3.671 5.71-.346.852-.222 1.747-.408 2.65-.918 4.484-3.763 9.521-8.769 9.992q.057-.666-.611-.612c.139-2.851 2.804-3.178 3.059-5.913-3.112 2.279-5.06 8.218-10.809 5.913-1.292-2.645-.392-5.692 1.428-6.321 2.915-1.007 7.415-1.915 7.341-4.691-3.024 1.708-5.778 4.636-10.604 3.875-1.545-2.523 1.464-4.714 3.263-6.525 2.4-2.416 4.532-5.147 8.769-4.282 1.28-3.275 3.484-5.625 5.098-8.565-1.437.469-4.168 1.134-4.69-.612 1.912-1.759 3.813-3.528 7.137-3.875-.247-.908-1.768-.542-1.631-1.835 2.316-1.309 6.133-.076 8.361-1.631-3.108.049-6.006-.112-7.749-1.428.713-4.589 8.632-3.059 10.196-6.118-10.595 1.893-29.622 2.354-35.686 7.546-1.559 1.335-3.147 3.689-6.118 4.078-4.606.602-8.584-2.338-7.138-5.302 2.8.148 7.154 1.388 9.381-.816-1.437-.514-3.026.78-4.894.816-2.959.058-6.513-1.662-6.322-4.282 1.261-3.09 8.911.21 10.4-2.651-3.335-.069-5.997 1.342-8.157-.204-.94-1.824-.05-4.824 1.428-5.505 4.494-2.075 8.981 1.117 12.847 1.426 4.507.362 7.745-2.154 10.399-1.63 1.035.202 2.264 1.911 3.467 1.018-2.243-1.292-4.964-2.104-6.118-4.485 4.236-1.628 9.369.71 12.848 1.834-1.921-2.564-6.567-2.405-7.75-5.709.249-.023.484-.061.408-.408 2.193-.551 4.49-.75 6.526-.204 2.39.641 3.908 2.844 5.71 3.263.016-2.548-5.366-3.322-5.302-5.098.063-1.728 4.256-1.744 6.526-1.223 3.341.765 3.941 2.948 5.913 4.282.309-2.893-2.479-2.688-2.651-5.098 2.394-2.612 6.226 1.288 8.769 1.019-.288-2.032-3.633-1.025-4.282-3.058-.595-1.859.79-4.65.612-6.73-.456-5.284-3.636-6.856-6.934-9.789 2.733-3.695 10.109-1.922 14.071-.611-.609-.479-1.412-.765-1.631-1.632 3.146-6.911 11.971-6.602 19.168-8.769 4.89-1.47 11.015-5.158 12.236-10.195 1.402-5.793-3.414-9.67-3.875-14.683-.253-2.741.338-5.659 1.02-7.545 1.477-4.082 4.67-8.37 7.953-10.807 1.746-1.297 3.792-2.113 5.506-3.467 1.73-1.368 2.846-3.283 4.689-4.691 2.296 3.935-1.486 7.416-3.467 9.993.088.32.643.173.408.816-2.627 2.898-8.071 9.357-4.689 12.642-1.482-6.136 4.326-12.198 8.768-13.05-.429 2.063-1.284 6.926-3.467 8.564 1.917-.183 1.402-2.421 3.059-2.243.852.411.062 1.337.204 2.243.986-.059 1.131-.505 2.039-.204 1.155 2.807-2.116 4.127-2.243 6.118 1.164-.673 1.265-2.407 2.855-2.651.656 2.544-2.085 3.313-2.651 5.302.555.247 2.614.514 2.855-.204-.346-.688-1.419.617-1.428-.408.518-1.727 1.8-2.686 2.04-4.69-1.348-1.271.302-4.21-.612-5.71-.725.024-.742.755-1.632.611-.103-1.051-.996-1.314-1.631-1.835-.235-2.955 3.006-5.284 4.486-6.526-2.498-.255-3.713.773-5.914.817-.145-2.63 2.433-4.203 2.448-7.341 1.906-1.523 5.574-3.668 7.545-5.302 1.658-1.376 2.555-2.723 1.835-5.506-.382-1.483-1.95-4.392-3.466-6.73-2.808-4.33-5.6-8.809-10.605-10.195-3.569.071-10.008-1.079-11.215-5.508-.428-1.57-.096-3.595-.204-5.301 1.546.596 4.63 1.14 5.506.612 1.805.438 2.49 3.082 4.079 3.059a6.51 6.51 0 0 1-2.243-6.934c3.312-.635 7.767.807 8.564 3.671.075-1.229-.64-1.672-.816-2.651.768-.728 1.445-1.546 1.835-2.651 2.04 1.285 5.691 1.161 6.934 3.059 1.164 1.775.307 4.012.408 6.322.082 1.881.833 4.04 1.631 5.71 3.335 6.971 12.709 12.018 13.867 19.168.006.033-.469.748-.408 1.02 1.038 4.627-4.079 7.145-6.321 10.604 1.242 4.257-6.502 2.317-7.138 4.69 1.922-.78 4.89-2.027 6.526-.409.098 1.654-1.883 1.418-3.059 1.837-2.466.878-4.413 2.901-5.71 4.689.229.021.317-.296.408 0zM-83.382 3.199c-3.01.517-5.961 1.824-8.769 2.242-4.266.638-7.3-1.607-11.215-1.018-2.351.353-4.916 2.212-7.137 2.243-.299-.178-.647-.305-.612-.816 1.937-2.831 5.502-4.402 9.381-4.282 4.012.124 7.185 1.985 10.603 1.223 3.904-.871 6.372-4.399 11.012-3.059.313.836.317 1.902.204 2.651-.971 1.05-2.246.606-3.467.816zm-5.506 2.242c2.254-.803 4.688-1.429 7.545-1.63-.094 3.238-5.756 3.594-7.545 1.63zm10.4-100.329c1.564 2.024-.762 4.294-.204 6.118.421-.736.725-1.587 1.632-1.836 1.672.886.61 3.506.408 4.487.577-.213.849-.213 1.427 0 .543 1.721.492 3.972-.204 5.506-2.518-1.25-3.075-2.87-4.894-4.079-6.284-4.179-21.073 1.491-26.918-3.874-2.634-2.419-6.422-9.207-6.933-13.256-.533-4.214 1.258-7.985 2.651-10.399.762-1.322 1.359-2.042 2.039-3.263.657-1.177.517-4.093.408-5.506-.454-5.897-5.201-12.168-9.788-13.663-3.53-1.15-7.372.068-11.013 0-4.633-.087-11.904-4.94-8.361-9.585 4.172-.734 4.497 3.857 7.75 4.691-1.321-2.297-5.04-3.856-3.467-7.75 1.632-1.751 6.474-2.982 7.341-.202.215.684-.504 1.231-.408 2.038.21 1.76 1.919 2.927 3.467 3.263-3.484-2.352-2.072-7.601 2.855-6.934 2.015.274 5.49 2.824 6.934 4.486 1.444 1.665 2.193 3.834 4.078 5.914 4.192 4.628 12.46 6.561 12.847 14.071.305.307 1.163.062 1.019.816-.009 2.354.271 5.332.204 7.138-.045 1.226-.817 1.975-.408 3.059.218.572 1.456 1.603 2.04 2.039.85.633 2.18 1.345 3.263 1.63.447-1.304-.261-2.229.204-4.077 4.559.338 6.719 4.15 9.38 5.71.135-1.634-1.768-2.989-2.039-4.896 3.285-.495 7.037 1.885 8.769 4.284-2.289 2.834-3.34 6.176-4.691 9.583-.783-1.393-1.539-3.896-2.651-4.282 1.746 2.952 1.71 7.532 1.224 11.216.588-1.461.051-2.079 2.039-2.447z" clip-path="url(#aF)" transform="matrix(1.33333 0 0 -1.33333 506.57 406.183)" fill="none" stroke="#231f20" stroke-width="1.214" stroke-miterlimit="10"/><path d="M0 0h.408C-3.87-2.078-10.243-3.503-15.499-1.835c-.015 1.065-.466 1.964.204 2.651C-11.147-.874-3.626-1.183 0 0" clip-path="url(#aG)" transform="matrix(1.33333 0 0 -1.33333 386.694 472.883)" fill="#231f20"/><path d="M0 0c.221-.051.138-.406.408-.408.256.051.205.406 0 .408 2.5-.058 4.823 1.463 6.526 2.039C5.792.262 2.208-1.761 0 0" clip-path="url(#aH)" transform="matrix(1.33333 0 0 -1.33333 414.155 510.948)" fill="#231f20"/><path d="M0 0c.486-3.684.522-8.264-1.224-11.216 1.112.386 1.868 2.889 2.652 4.282 1.352-3.407 2.401-6.749 4.69-9.584-1.732-2.398-5.484-4.778-8.769-4.283.271 1.907 2.174 3.262 2.039 4.895-2.661-1.559-4.821-5.371-9.38-5.709-.465 1.848.243 2.773-.204 4.077-1.083-.285-2.413-.997-3.263-1.63-.584-.436-1.822-1.467-2.04-2.039-.409-1.084.363-1.833.408-3.059.067-1.806-.213-4.784-.204-7.138.144-.754-.714-.509-1.019-.816-.387-7.51-8.655-9.443-12.847-14.071-1.885-2.08-2.634-4.249-4.078-5.914-1.444-1.662-4.919-4.212-6.934-4.486-4.927-.667-6.338 4.582-2.855 6.934-1.548-.336-3.257-1.503-3.467-3.263-.096-.807.623-1.354.408-2.039-.867-2.779-5.709-1.548-7.341.203-1.573 3.893 2.146 5.453 3.467 7.75-3.253-.834-3.578-5.425-7.75-4.691-3.543 4.645 3.728 9.498 8.361 9.585 3.641.068 7.483-1.15 11.013 0 4.587 1.495 9.334 7.766 9.788 13.663.109 1.413.249 4.329-.408 5.506-.68 1.221-1.277 1.941-2.039 3.262-1.393 2.415-3.184 6.186-2.651 10.4.511 4.049 4.299 10.837 6.933 13.256C-20.869 9.24-6.08 3.57.204 7.749c1.819 1.209 2.376 2.829 4.894 4.079.696-1.534.747-3.785.204-5.506-.578-.213-.85-.213-1.427 0 .202-.981 1.264-3.601-.408-4.487-.907.249-1.211 1.1-1.632 1.836-.558-1.824 1.768-4.094.204-6.118C.051-2.079.588-1.461 0 0m-4.69-12.032C-2.028-9.744-2.113-3.888-3.263-.408h-.612c.38-3.626.257-8.327-.815-11.624m-3.671-.612c2.907 1.573 3.677 7.134 2.243 10.197h-.612c.049-3.33.083-7.993-1.631-10.197m-3.671.408c2.533.566 3.98 5.254 2.447 7.342-.367-2.896-1.064-5.461-2.447-7.342m-13.05-8.157c-3.093 3.07-2.928 8.192-3.467 13.663-.86-4.928-1.595-12.545 3.467-13.663m5.71.817c-1.716 2.635-3.715 4.986-5.098 7.952-.061-3.603 2.071-6.758 5.098-7.952m1.02 5.097c-.05.835-.852.917-1.633 1.02.33-.553.79-.978 1.633-1.02m-4.487-18.148c1.703.28 1.964 4.125 0 4.282-.072-2.077-.238-2.696 0-4.282m-3.263-8.158c2.427.837 4.604 1.922 5.301 4.487-1.946-.5-4.134-2.526-5.301-4.487m-6.933-5.506c1.05.266 3.23 1.264 2.447 2.04-.609-.888-2.044-.948-2.447-2.04" clip-path="url(#aI)" transform="matrix(1.33333 0 0 -1.33333 399.201 529.437)" fill="#ffcb04"/><path d="M0 0c.387.487 3.783-.063.612 0C.344-.245.291-.079 0 0" clip-path="url(#aJ)" transform="matrix(1.33333 0 0 -1.33333 458.203 522.096)" fill="#231f20"/><path d="M0 0c.012-3.814 2.834-6.565 4.486-9.585C2.475-7.82-1.727-3.649 0 0" clip-path="url(#aK)" transform="matrix(1.33333 0 0 -1.33333 412.796 542.488)" fill="#231f20"/><path d="M0 0c1.297-1.789 3.244-3.812 5.71-4.69 1.175-.419 3.157-.182 3.059-1.836-1.635-1.619-4.604-.372-6.526.408.636-2.373 8.38-.432 7.138-4.69 2.241-3.458 7.359-5.977 6.321-10.603-.061-.272.414-.988.408-1.02C14.952-29.582 5.577-34.628 2.243-41.6c-.798-1.67-1.55-3.829-1.631-5.71-.101-2.309.755-4.546-.408-6.322-1.243-1.898-4.894-1.774-6.934-3.059-.39 1.105-1.067 1.924-1.835 2.651.176.979.89 1.422.816 2.651-.798-2.863-5.252-4.306-8.565-3.671a6.52 6.52 0 0 0 2.243 6.934c-1.588.023-2.272-2.62-4.079-3.059-.875.528-3.96-.016-5.505-.612.108 1.706-.224 3.732.204 5.302 1.207 4.429 7.646 5.579 11.215 5.507 5.005 1.387 7.796 5.865 10.605 10.196 1.516 2.337 3.083 5.247 3.466 6.73.72 2.783-.177 4.13-1.835 5.506-1.971 1.634-5.639 3.779-7.545 5.301-.016 3.138-2.594 4.712-2.447 7.341 2.2-.044 3.415-1.071 5.913-.816C-5.559-5.489-8.8-3.16-8.565-.204c.635.521 1.528.783 1.631 1.835.89.143.907-.588 1.632-.611.913 1.5-.736 4.438.612 5.71-.239 2.004-1.523 2.963-2.04 4.69.009 1.025 1.082-.281 1.428.408-.241.717-2.3.45-2.855.204.566-1.989 3.307-2.758 2.651-5.302-1.591.244-1.691 1.978-2.855 2.651.127-1.992 3.398-3.312 2.243-6.118-.907-.301-1.053.144-2.039.204-.142-.906.647-1.833-.204-2.243-1.657-.178-1.142 2.06-3.059 2.243 2.182-1.638 3.037-6.502 3.467-8.565-4.442.853-10.25 6.915-8.769 13.051-3.382-3.285 2.062-9.744 4.69-12.643.235-.642-.319-.495-.408-.816 1.981-2.577 5.762-6.057 3.467-9.993-1.843 1.409-2.959 3.324-4.69 4.691-1.713 1.354-3.759 2.17-5.505 3.467-3.283 2.437-6.477 6.725-7.953 10.808-.683 1.886-1.273 4.804-1.02 7.545.461 5.013 5.277 8.89 3.875 14.682-1.221 5.037-7.346 8.725-12.236 10.196-7.198 2.166-16.022 1.858-19.169 8.769.22.867 1.023 1.152 1.631 1.632-3.961-1.312-11.337-3.085-14.07.611 3.298 2.932 6.478 4.505 6.934 9.789.178 2.08-1.206 4.87-.612 6.729.649 2.033 3.994 1.027 4.281 3.058-2.542.27-6.374-3.631-8.768-1.019.172 2.411 2.96 2.206 2.652 5.098-1.974-1.333-2.574-3.517-5.914-4.282-2.27-.521-6.463-.505-6.526 1.223-.064 1.777 5.318 2.55 5.302 5.098-1.802-.419-3.32-2.622-5.71-3.263-2.037-.545-4.333-.346-6.526.204.075.347-.159.385-.407.408 1.182 3.304 5.828 3.145 7.749 5.71-3.479-1.124-8.612-3.462-12.848-1.835 1.154 2.381 3.875 3.194 6.118 4.486-1.203.893-2.432-.816-3.467-1.019-2.654-.523-5.892 1.993-10.4 1.631-3.865-.31-8.352-3.501-12.846-1.427-1.478.681-2.368 3.682-1.428 5.506 2.16 1.546 4.822.135 8.157.204-1.489 2.861-9.14-.44-10.4 2.651-.191 2.619 3.364 4.34 6.322 4.282 1.867-.037 3.457-1.33 4.894-.816-2.228 2.204-6.581.964-9.381.816-1.447 2.964 2.532 5.904 7.138 5.302 2.971-.389 4.558-2.744 6.118-4.078 6.064-5.193 25.09-5.653 35.686-7.546-1.564 3.059-9.483 1.529-10.196 6.118 1.743 1.316 4.641 1.476 7.749 1.428-2.229 1.554-6.045.322-8.361 1.631-.137 1.293 1.384.926 1.631 1.835-3.324.347-5.226 2.116-7.137 3.874.522 1.747 3.253 1.081 4.69.613-1.614 2.939-3.818 5.289-5.098 8.564-4.237-.864-6.369 1.867-8.769 4.282-1.799 1.812-4.809 4.003-3.263 6.526 4.826.76 7.58-2.168 10.604-3.875.074 2.776-4.426 3.683-7.341 4.691-1.82.629-2.72 3.676-1.428 6.321 5.75 2.305 7.697-3.635 10.809-5.913-.255 2.735-2.92 3.061-3.059 5.913q.667-.055.612.612c5.004-.471 7.85-5.509 8.768-9.992.186-.903.062-1.798.408-2.651.734-1.812 2.539-3.813 3.671-5.71 2.221-3.724 4.076-7.484 7.34-9.993 2.251-1.728 5.651-2.494 6.73-5.505-3.252-.894-7.508-.785-8.972-3.467 6.126-1.147 6.719-7.828 13.866-7.953-2.784 1.342-6.273 3.094-8.157 5.506-.615.789-1.607 2.503-1.222 3.467 3.065 1.685 6.978.621 10.603 0-.687.74-2.087.767-2.855 1.428 1.046 2.153 3.608 3.566 6.729 3.874 4.018.397 9.435.63 9.177 4.487-.267 3.997-7.124 3.317-9.992 1.63-1.889 1.091-1.473 6.104-.204 7.545 5.419.321 7.302-5.181 12.847-4.078 3.11.618 2.125 5.658.204 7.545-2.629 2.584-7.234 1.338-9.992 0-1.256.581-2.509 1.162-4.079 1.428-2.484 3.312.412 7.666 4.283 7.749-1.953 1.659-3.259-1.556-4.895-1.632-2.121-.099-2.702 2.784-1.835 4.283 1.779 3.075 9.651 3.152 12.44 5.098 1.126 1.797 2.589 3.255 4.894 3.875 2.667.006 4.89-1.24 7.545-1.224 3.493.021 7.151 2.392 11.419 1.02.664.422.921 1.254 1.224 2.039 4.832 3.785 10.899-1.75 16.518-2.039.832-.043 1.399.51 2.243-.204-.446-1.186-2.294-.968-3.875-1.02 3.017-.718 4.512-3.475 6.934-5.098 1.326-.889 2.925-.937 3.671-2.447-.039-.165-.206-.203-.204-.408-.975-2.135-4.819-1.378-6.73-.612 1.701-2.879 4.439-5.965 4.487-9.992.06-5.186-2.706-10.448-3.059-15.905-.095-1.462.397-2.695-.408-4.079-4.303.252-4.445 4.664-5.914 7.748-.276-3.402 1.702-6.317 3.671-8.156.143-1.64-.309-2.683-.408-4.078C3.171 84.67.07 78.215 0 72.8c-7.272 3.604-.18 13.779 0 19.577-1.174-7.798-7.027-10.917-10.196-16.722-5.045 6.806 4.077 13.722 2.447 20.189-.66-4.03-1.935-7.446-4.079-9.992-2.299-2.003-4.779-4.107-8.769-5.71-5.026-2.021-12.019-1.692-12.846-6.73 1.824.708 2.772 2.435 4.894 3.263 3.968 1.548 8.883 2.105 12.439 4.486 1.262.846 1.953 2.002 3.466 2.243-.427-5.477.915-9.148 2.855-11.827.584 4.378 2.548 7.377 5.099 9.788 1.091-.56.516-1.586.611-2.447.221-1.99 1.107-4.338 1.02-6.118-.081-1.647-1.237-3.399-1.427-5.302-.184-1.844.287-3.486-.612-4.69-2.16.763-2.673 3.174-4.079 4.69-.209-1.917.449-2.741 1.632-4.282.654-.852 3.003-2.767 2.855-3.671-.297-1.802-3.331-.473-4.283 0-2.948 1.465-4.499 3.512-6.729 5.71 1.254-6.563 7.551-8.082 10.196-13.254-.987-.617-2.116-.707-3.263-.612-4.106.337-12.379 3.702-13.05 8.36-.181 1.254.068 2.757.408 4.282-4.398-6.42 1.983-12.42 4.689-16.721-2.637-.329-7.065 2.415-8.972 4.283-.541.529-1.8 2.16-2.039 2.855-1.496 4.348 3.066 8.518 1.223 13.458-1.108-1.023-.419-2.206-.611-3.467-.587-3.847-2.957-7.361-3.263-12.642-.068-1.171.343-2.973-.408-4.079-4.947 1.741-7.142 8.102-4.283 13.254-3.416-2.666-3.461-7.904-1.223-11.011 2.17-3.012 6.928-3.478 8.361-6.729-3.009-2.429-7.784-3.093-12.236-4.079 1.899-1.422 4.852-.373 7.138.408 2.409.823 5.054 1.705 6.525 3.059-1.328 2.508-3.783 5.633-2.039 9.381 1.411-.253 2.022-1.709 3.059-2.448 1.179-.839 2.76-1.025 3.671-2.243 2.678-.652 4.381-2.28 6.932-3.059.554 2.934-1.52 5.004-2.039 7.546 8.474-.93 13.527-6.311 17.334-12.644 1.35-2.245 2.34-5.465 3.263-9.177.478-1.923.204-3.656 1.835-4.894 11.177-1.677 13.094 8.841 11.012 17.946-1.886 8.245-6.949 16.907-7.545 24.674-.742 9.66 6.095 17.866 15.905 18.354 3.745.186 8.391-.951 10.604-3.263 1.162-1.214 1.773-2.946 3.059-4.079 1.326-1.167 3.115-1.268 4.283-2.855.056-.736-.806-.552-.816-1.223q-5.786 1.044-10.4 3.262c-.244-2.271 3.444-1.786 5.302-2.855 1.489-.855 2.798-2.917 4.078-3.874-1.514-1.408-4.218-.458-5.709.408-.607-.637.694-2.719-.408-3.263-1.755.376-2.433 2.096-4.283 3.059-1.898.987-4.414 1.148-5.506 2.651-1.332 1.836-.496 4.658-1.02 7.341-6.705-.686-11.339-4.541-11.011-11.012.493-9.702 9.147-19.983 9.584-29.772.312.006.693-1.908.816-3.059.339-3.167-.686-7.407-1.224-10.401-.077-.826.558-.937.816-1.427-.614-1.629-2.246-2.24-3.875-2.855.78-.443 2.309-.139 2.855-.816-.252-2.67-2.388-3.457-4.689-4.077.41-.474 1.494-.274 1.63-1.02-.936-2.802-4.053-3.424-7.748-3.467.166-.853 1.346-.693 1.224-1.835-1.489-2.08-6.017-.792-7.138.612.9-3.119 2.976-5.53 3.467-9.993.154-1.4-.004-3.119.612-4.69-3.615 1.416-5.34 4.721-6.322 8.769C2.019 1.191 7.46-.273 7.749-4.079 4.311-4.516 2.356-1.73.408 0 .317-.296.228.021 0 0m-4.894 119.091c5.037.638 8.546 7.607 4.486 10.808-2.177 1.717-6.827 1.452-8.769-.612 3.78.879 9.205 1.069 9.177-3.263-.015-2.305-2.058-4.853-4.282-5.302-2.374-.479-4.743 1.084-7.342.408 2.333-1.295 3.994-2.385 6.73-2.039m-24.063 7.545c-1.523.366-3.875 1.897-5.302 1.02.504-.38 1.083-.684 1.632-1.02-.363-.652-.396-1.029-.204-1.835.535-.211 1.251-.244 2.039-.204.665.49.839 1.47 1.835 1.631 1.161-1.954-.371-3.709-2.039-4.078 3.41-.072 4.411 4.011 7.545 4.894-1.804.482-4.027.067-5.506-.408m19.576-2.855c1.133-.287 2.42-.328 3.059 0 1.12.575 3.097 2.056 4.079 2.651-3.256.689-5.681-.535-7.138-2.651m12.44-10.808c-1.078 1.573-.839 4.463-2.651 5.302 1.143-2.393 2.268-8.752-.204-11.012-.613 1.836-.905 5.075-2.651 5.098 1.046-3.406 2.336-8.663-.204-11.216-1.491 2.588-2.55 5.607-5.098 7.138.375-2.567.559-6.479-1.836-6.934-.228 1.743-.739 3.204-1.835 4.079-.825-1.639-.779-4.251-2.243-5.709 1.811-.111 1.762 1.635 2.855 2.242.631-1.08.282-2.165.612-3.263 2.399.661 2.779 3.339 3.874 5.302 2.011-1.116 2.296-3.957 2.855-6.524 2.389 1.012 3.439 4.409 4.691 7.136 1.271 2.774 2.651 5.732 3.67 8.361.71 1.831 1.514 4.033.612 5.914-.437-2.35-1.103-4.471-2.447-5.914m-7.953 1.427c-.193 1.098-1.376.583-2.04.816-1.767.622-3.251 1.822-4.69 2.651h-.408c1.264-2.271 3.784-3.285 7.138-3.467m12.643-13.867c.281 5.302 3.57 10.512 1.632 15.499-.261.011-.283.261-.612.204.498-5.421-1.87-10.485-1.02-15.703m-22.228 15.091c1.549-1.24 3.782-3.558 6.934-3.875-1.719 1.756-4.606 3.405-6.934 3.875m-9.583-10.196c4.214 4.679-2.587 9.776-7.138 9.992 3.626-1.992 7.766-4.41 7.138-9.992m12.234 5.098c-2.271 1.127-4.397 2.4-5.71 4.486-.508-2.158 3.28-5.296 5.71-4.486m-5.098-1.835c-.501 3.306-2.378 5.234-5.709 5.709 2.185-1.62 3.887-3.726 5.709-5.709m-3.467-8.362c-.726-.655-2.214-.876-1.426-2.039 2.536 1.067 3.441 3.764 5.301 5.506-1.926-.543-2.602-2.317-3.875-3.467m-14.886-8.156c3.157-.291 5.474 1.307 7.342 1.632-.565-3.515-3.946-4.213-5.71-6.526.648-.304 1.824-.079 2.243-.612-2.165-2.146-7.255-4.189-10.4-1.835.543.952 2.363.626 2.855 1.631-5.112-1.056-10.091-1.481-14.275.816 1.552-2.525 3.917-2.154 6.933-2.855 4.618-1.072 7.184-4.514 11.828-4.894 3.485-.285 7.445.016 10.808 1.835-4.424-.52-10.801-2.494-13.867.816 3.585.494 7.836.321 10.401 1.835-1.733.25-5.354-1.38-7.138-.408 2.467.932 3.989 2.982 5.914 4.079 2.439 1.389 5.345 2.001 6.934 3.875.689-.331.717-2.18 1.631-1.632-.235 4.448 2.238 6.19 2.854 9.789-2.875-3.991-5.707-9.11-11.011-9.993 1.445 3.11 2.89 6.218 3.467 10.197-2.243-1.837-2.918-5.24-6.526-5.71.494 1.985 2.713 5.167 1.02 7.34.136-5.029-3.007-6.782-5.303-9.38m13.46-6.525c5.507.881 8.806 3.972 9.991 9.176-.042.229-.226.318-.408.408-1.365-5.025-5.544-7.234-9.583-9.584m13.05-4.079c3.28 2.364 6.99 6.237 5.71 11.828.015-5.861-3.863-7.829-5.71-11.828m-33.035 9.585c1.794-.41 4.239-.68 5.506-1.02-1.2 1.383-3.469 1.697-6.118 1.632-.066-.62.273-.536.612-.612M.204 80.957c1.129 3.343 4.284 6.8 3.467 10.197-.002.205-.358.256-.408 0 .132-3.478-3.466-7.119-3.059-10.197m-95.027 4.487c-.247-.044-.127-.227 0-.408 4.593-.912 8.467-2.544 13.254-3.263-3.639 1.87-8.38 3.715-13.254 3.671m129.694-5.098c-1.122.987-2.048 3.252-3.875 2.855 1.421-.689 2.043-3.258 3.875-2.855m-89.931-1.224c-2.114-1.556-3.717-3.624-4.894-6.118-3.953-1.109-7.496 1.02-10.603 2.039 4.642-6.383 17.165-.039 22.023-5.506-2.523-2.642-5.572-4.759-7.137-8.361 5.534 4.263 19.996-.513 21.616 7.138-4.482-1.453-10.306-5.435-17.334-3.671 2.995 2.39 5.434 6.552 9.585 7.749 1.601.463 3.168.109 4.69 1.02-3.479.787-7.548-1.205-10.4-2.855-2.688 1.799-6.798 2.175-9.789 3.671 1.532 5.361 7.356 3.578 12.032 4.078-2.624.231-4.424 1.287-7.341 1.224-1.717 1.206-3.335 2.51-5.505 3.263.347-1.896 2.148-2.338 3.057-3.671m87.28-6.118c-1.51 1.686-3.311 3.078-3.467 6.118-.492-.084-.443.373-1.02.204-.158-3.761 1.81-5.397 4.487-6.322m-56.282-.408c4.512.517 7.036 3.024 9.175 5.914-3.178-1.851-5.849-4.21-9.175-5.914m-25.899.408c4.512-.629 8.048 1.465 10.808 3.263-3.815-.876-6.667-2.714-10.808-3.263m31.811-3.059c1.053.851 1.523 2.284 2.04 3.671-1.81-.505-1.777-1.915-2.04-3.671m-37.725-12.642c-.671-.688-.219-1.586-.204-2.651 5.255-1.669 11.628-.243 15.906 1.835h-.408c-3.625-1.183-11.147-.875-15.294.816m1.631-6.73c1.306-3.776 7.343-2.114 10.401-1.631 2.339.369 5.063.246 5.506 2.243-4.758-2.215-11.644-1.627-15.907-.612m19.169-5.914c-2.695-.661-6.259-2.606-9.788-2.651-2.642-.033-4.175 1.808-6.526 2.243.797-3.649 5.983-3.618 9.585-3.263 2.882.284 6.071 2.232 7.137 3.671zm12.032-4.486c-2.184-2.1-6.167-2.398-8.973-3.875 4.011-.344 8.078.848 9.585 3.671-.281-.009-.449.096-.612.204M0 26.917c.262 3.672-1.576 8.564-3.059 11.828h-.612C-2.523 34.291-1.653 30.623 0 26.917m-27.121 7.138c.101-1.19 2.214-.368 3.262-.612 1.782 1.004 4.184 1.391 5.507 2.855-2.668-.188-4.99-2.487-8.769-2.243m3.466-3.467c2.983-.88 6.727.84 7.953 3.059-2.545-1.126-5.055-2.285-7.953-3.059m10.604-.612c-1.702-.575-4.025-2.097-6.525-2.039.205-.002.256-.357 0-.408-.27.003-.188.358-.408.408 2.207-1.761 5.792.263 6.933 2.039m-5.505-6.525c2.103-.132 6.568-.142 6.32 2.039-2.173-1.026-4.545-1.391-6.32-2.039m32.219-3.875c3.17-.063-.224.487-.612 0 .291-.078.344-.244.612 0m-1.427-3.058c-1.158.678-2.569 1.102-3.671 1.834.483-1.218 2.21-2.272 3.671-1.834m-20.393-1.631c-.697.457-.847 1.463-1.835 1.631.129-.895.926-2.195 1.835-1.631m-14.478-1.224c.788.089 2.142 1.579 1.02 2.243-.127-.961-.926-1.25-1.02-2.243m12.235.408c-.162 1.197-1.135 1.584-2.244 1.835.044-1.228 1.513-1.957 2.244-1.835m-13.051-9.585c-.339 1.719.057 3.308.816 4.895-1.51-.324-2.354-4.025-.816-4.895m6.933-9.788c-1.652 3.019-4.474 5.769-4.487 9.584-1.726-3.649 2.476-7.821 4.487-9.584m16.926 0c.001.493-.714 1.303-1.02.816.419-.193.421-.802 1.02-.816m5.914-5.71c-1.451 1.008-3.195 1.496-4.894 2.651.87-1.645 2.783-2.246 4.894-2.651m1.427-3.263c-.409.417-2.389 1.536-3.67 1.02.804-.448 2.035-.891 3.67-1.02M4.69-16.518c-2.456.461-7.105 2.423-8.769 3.059 1.944-1.998 4.907-2.978 8.769-3.059m1.632-14.07c3.137 2.16 7.392 3.333 6.525 8.361.119-5.025-5.467-5.776-6.525-8.361m-7.138-10.4c1.167.363 1.772 2.259 1.632 3.262-1.45-.609-1.373-1.732-1.632-3.262" clip-path="url(#aL)" transform="matrix(1.33333 0 0 -1.33333 440.801 548.198)" fill="#ffcb04"/><path d="M0 0c1.103-.733 2.514-1.156 3.671-1.835C2.21-2.273.483-1.219 0 0" clip-path="url(#aM)" transform="matrix(1.33333 0 0 -1.33333 452.221 523.728)" fill="#231f20"/></svg>