<svg viewBox="0 0 214.9 214.91" xmlns="http://www.w3.org/2000/svg"><path d="M214.398 107.45c0 59.054-47.87 106.956-106.941 106.956C48.383 214.406.5 166.504.5 107.45.5 48.4 48.383.5 107.457.5c59.07 0 106.941 47.898 106.941 106.95" fill="#211c1c"/><path d="M214.398 107.45c0 59.054-47.87 106.956-106.941 106.956C48.383 214.406.5 166.504.5 107.45.5 48.4 48.383.5 107.457.5c59.07 0 106.941 47.898 106.941 106.95zm0 0" fill="none" stroke="#4f5154"/><g fill="#fff"><path d="M132.578 76.629c-4.223-2.043-5.914-1.012-7.766.672-1.863 1.695-5.578 8.023-5.578 8.023s10.547-6.172 19.524-1.265c0 0-1.961-5.414-6.18-7.43m-2.734 1.621c-.18.719-.836 1.188-1.504 1.04-.656-.138-1.055-.852-.89-1.595.179-.722.84-1.203 1.495-1.039.672.164 1.07.875.899 1.594"/><path d="M49.238 107.45c0 32.105 26.117 58.202 58.219 58.202 32.086 0 58.203-26.097 58.203-58.203 0-32.094-26.117-58.21-58.203-58.21-32.102 0-58.219 26.116-58.219 58.21m1.524 0c0-31.25 25.43-56.695 56.695-56.695 31.254 0 56.684 25.445 56.684 56.695 0 31.262-25.43 56.696-56.684 56.696-31.266 0-56.695-25.434-56.695-56.696"/><path d="M4.738 107.45c0 56.648 46.086 102.695 102.719 102.695s102.707-46.047 102.707-102.696c0-56.633-46.074-102.719-102.707-102.719S4.738 50.816 4.738 107.45m3.043 0c0-54.97 44.715-99.677 99.676-99.677 54.957 0 99.672 44.707 99.672 99.676 0 54.942-44.715 99.672-99.672 99.672-54.96 0-99.676-44.73-99.676-99.672"/><path d="M54.45 116.66c27.245-9.773 33.69 14.64 33.69 14.64 1.16-10.894-5.437-17.109-11.402-19.902-5.129-2.386-9.676-2.043-9.676-2.043 1.391-2.37 7.633-13.996 13.325-24.75 5.715-10.757 10.343-14.542 16.898-18.304 6.567-3.778 16.57-3.11 21.535-2.258 4.953.875 7.524 5.285 10.649 8.066 3.117 2.79 5.379.434 9.258 4.946 3.875 4.547 3.23 10.652 3.125 12.695-.118 2.04-.868 2.922-.973 2.04-.11-.837-.656-2.04-2.715-3.34-.754-.473-3.144-.391-5.219.777-3.535 2.043-6.554 4.726-8.785 11.5-2.594 7.882.297 18.222.297 18.222 5.984 4.531 10.23 11.387 12.055 19.399 1.136 4.918 1.789 10.004 2.133 13.187a51 51 0 0 0 3.476-2.722c-2.773-26.68-13.316-30.344-13.316-30.344 8.68-3.192 16.113-.88 19.008 6.183 1.414 3.407 2.64 9.192 3.535 14.239 6.347-8.848 10.086-19.703 10.086-31.442 0-29.804-24.172-53.98-53.977-53.98-29.836 0-54.004 24.176-54.004 53.98 0 3.188.285 6.297.817 9.324zm0 0"/><path d="M112.621 74.691a1.54 1.54 0 0 1 1.535-1.539c.836 0 1.508.696 1.508 1.54 0 .828-.672 1.507-1.508 1.507-.851 0-1.535-.68-1.535-1.508m9.223-1.707s-4.055-1.605-7.942-2.78c-3.89-1.196-8.285-1.704-12.25-.688-3.976 1.03-5.593 1.695-5.593 1.695s6.933.262 13.027.691c6.07.403 14.355 1.762 12.758 1.082m-18.942 0l3.387-.156s-1.777 4.883 1.438 7.336c0 0-5.07 0-4.825-7.18m14.371 1.176l1.864-.316s.746 4.293-2.028 6.754c-2.879 2.543-7.18.761-7.18.761s8.368 1.356 7.344-7.199m6.602 12.278s3.297-1.79 11.164-2.297c0 0-3.723 2.796-5.672 4.816 0 0-2.195-1.36-5.492-2.52m-94.797 55.821l11.18-2.153 1.351 2.665-8.285 7.808-1.316-2.586 1.129-.957-1.317-2.558-1.449.328zm5.024 1.652l.84 1.63 2.964-2.528zm.57 8.762l9.062-6.102 1.637 2.422-6.656 4.473 2.223 3.305-2.41 1.601zm7.402 5.878l2.219-1.823 2.012 2.464-2.227 1.825zm1.235 5.817l10.011-5.457 2.078 2.106-5.535 9.945-2.023-2.031.785-1.243-2.035-2.078-1.274.778zm5.285.016l1.3 1.316 2.047-3.32zm3.23 8.254l6.7-8.63 3.425 2.661c1.082.855 1.719 1.617 1.867 2.363.16.778-.105 1.57-.793 2.438-.402.539-.836.914-1.3 1.094-.446.222-.957.269-1.516.148.313.418.453.867.395 1.289-.051.445-.29.957-.73 1.54l-.892 1.253s-.008 0-.023.016c-.254.359-.32.597-.21.687l-.255.332-2.308-1.812c.109-.239.222-.418.312-.614.098-.164.172-.28.262-.36l.66-.878c.344-.465.508-.824.5-1.11 0-.296-.187-.597-.531-.867l-.98-.761-2.31 2.976zm6.094-3.157l1.055.81c.359.284.656.417.882.417.239 0 .477-.164.696-.45.23-.327.344-.581.293-.804-.047-.242-.274-.496-.676-.808l-.992-.793zm2.258 9.512l8.277-7.836 2.55 1.512-2.773 11.035-2.5-1.465.434-1.406-2.496-1.465-1.031 1.063zm5.125-1.36l1.566.927 1.145-3.707zm5.23 7.177l4.278-10.063 3.418 1.465c.75.285 1.27.555 1.578.734q.478.27.793.582c.328.387.539.84.597 1.348.051.477-.058 1.016-.297 1.613a3.2 3.2 0 0 1-.757 1.075c-.309.273-.68.437-1.121.511.367.375.574.793.636 1.27.043.492-.062 1.02-.332 1.617-.238.625-.566 1.105-.957 1.45a2.6 2.6 0 0 1-1.324.628c-.352.059-.688.031-1.059-.047-.367-.074-.945-.27-1.742-.613zm3.621-1.254l1.243.539c.402.191.73.238.96.164.243-.09.43-.27.57-.613.15-.332.15-.614.024-.825-.113-.222-.39-.386-.808-.582l-1.204-.508zm1.57-3.68l1.09.477c.368.168.66.183.852.136.219-.09.39-.285.527-.597.133-.313.149-.567.036-.793-.106-.18-.45-.403-1.04-.645l-.734-.312zm5.188 8.988l3.203-10.425 2.84.855-3.2 10.453zm11.262-.523l2.812.402c.016.406.118.692.305.867.188.227.473.36.875.422.336.012.613 0 .824-.105a.71.71 0 0 0 .375-.555c.059-.387-.316-.762-1.086-1.105a1.4 1.4 0 0 0-.367-.164c-.62-.317-1.12-.555-1.488-.778-.375-.226-.649-.433-.8-.597a2.9 2.9 0 0 1-.642-1.2c-.12-.418-.136-.925-.07-1.449.153-1.062.61-1.871 1.363-2.394.754-.508 1.727-.688 2.907-.551q1.728.27 2.605 1.254c.582.703.852 1.586.785 2.691l-2.754-.371c0-.316-.082-.586-.238-.766-.18-.175-.426-.296-.785-.359-.3-.043-.54-.027-.719.09-.164.105-.27.3-.304.523-.04.375.32.719 1.066 1.078.062.047.121.075.152.075.121.046.278.136.5.238.996.45 1.637.824 1.922 1.14.36.372.598.762.73 1.196.122.418.153.926.079 1.48-.164 1.196-.63 2.078-1.422 2.602-.777.566-1.809.746-3.102.566-1.199-.164-2.101-.613-2.715-1.343-.613-.75-.867-1.708-.808-2.887m10.586 4.68l.105-10.946 3.754.059c.824 0 1.48.074 1.961.18.477.132.867.328 1.195.582.426.343.727.777.93 1.273.215.523.305 1.121.29 1.809 0 1.226-.321 2.152-.911 2.796-.613.63-1.484.957-2.625.957l-1.75-.046-.031 3.367zm2.976-5.98h.95c.613 0 1.011-.075 1.234-.227.187-.165.3-.461.316-.895 0-.39-.105-.672-.293-.867-.187-.164-.613-.242-1.234-.242l-.95-.012zm7.063.538c-.242-1.781.012-3.215.715-4.367.718-1.106 1.797-1.781 3.246-1.961 1.441-.164 2.656.21 3.613 1.121.953.93 1.563 2.258 1.777 4.04.22 1.75-.023 3.198-.738 4.32-.703 1.124-1.781 1.78-3.23 1.976-1.453.18-2.64-.195-3.621-1.121-.965-.898-1.547-2.262-1.762-4.008m2.898-.375c.137 1.031.375 1.75.72 2.2.343.46.82.64 1.42.566.61-.09 1.017-.371 1.24-.883.241-.524.269-1.3.16-2.332-.145-1.031-.383-1.793-.727-2.215-.344-.45-.809-.64-1.422-.55-.598.09-1.016.374-1.242.882-.223.524-.281 1.3-.149 2.332m10.172 3.961l-2.828-10.555 4.188-1.12c1.316-.364 2.316-.364 3.011-.048.696.313 1.176 1.016 1.473 2.11.16.625.18 1.195.078 1.691-.105.492-.383.91-.793 1.297.508-.012.926.152 1.254.465.316.285.586.793.785 1.512l.442 1.449.015.031c.137.434.27.613.426.598l.105.39-2.836.762c-.117-.227-.222-.45-.304-.629-.067-.18-.13-.312-.156-.418l-.27-1.078c-.148-.523-.328-.898-.578-1.09-.238-.152-.582-.18-1.016-.078l-1.203.332.984 3.633zm1.156-6.773l1.282-.36c.449-.09.738-.254.875-.449.125-.176.14-.46.05-.82-.105-.375-.253-.598-.472-.719-.207-.102-.543-.074-1.05.062l-1.212.329zm11.477 2.902l-3.043-7.477-2.422.985-1.082-2.66 7.543-3.082 1.086 2.664-2.426 1 3.043 7.449zm5.43-6.043l2.484-1.375c.27.27.524.477.785.523.262.059.559-.015.934-.21.285-.176.492-.372.582-.583.113-.21.105-.417-.02-.64-.187-.375-.699-.422-1.52-.274-.179.063-.3.094-.402.121-.675.122-1.242.243-1.667.27q-.638.07-.989 0c-.457-.09-.86-.27-1.219-.582-.359-.254-.671-.613-.925-1.094q-.81-1.434-.36-2.734c.285-.883.95-1.586 1.989-2.184 1.03-.554 1.972-.777 2.84-.554.87.18 1.617.734 2.246 1.675l-2.43 1.332c-.203-.254-.414-.406-.652-.464-.247-.043-.54.03-.836.195-.286.148-.438.312-.524.508-.062.164-.031.386.086.597.168.328.676.375 1.484.211.09-.015.133-.015.164-.015.118-.032.297-.09.524-.153 1.09-.222 1.84-.312 2.226-.222.524.074.973.254 1.325.523.367.285.68.645.941 1.152.59 1.032.742 2.02.441 2.915-.296.898-1.015 1.675-2.152 2.32-1.047.613-2.043.793-2.976.555-.934-.227-1.727-.825-2.38-1.813m17.454-12.832l2.094-1.777c.882 1.136 1.277 2.257 1.21 3.347-.058 1.11-.597 2.067-1.578 2.918-1.113.926-2.308 1.27-3.609 1.047-1.3-.254-2.543-1.047-3.695-2.422-1.153-1.363-1.735-2.695-1.778-4.008-.047-1.332.493-2.453 1.575-3.351.996-.852 2.05-1.242 3.113-1.137 1.074.09 2.094.66 3.086 1.692l-2.125 1.777c-.387-.387-.778-.613-1.164-.656-.367-.047-.75.074-1.106.359-.433.371-.613.867-.496 1.418.106.586.496 1.242 1.137 2.02.644.777 1.242 1.257 1.808 1.421.555.196 1.063.09 1.512-.285.344-.297.524-.625.524-1.058 0-.391-.18-.856-.508-1.305m6.879-.641l-8.032-7.418 1.973-2.125 5.902 5.461 2.7-2.918 2.125 1.961zm-2.528-13.429l1.692-2.38 5.488 3.919c.508.375.926.539 1.254.539.352-.031.676-.254.965-.688.27-.39.383-.761.293-1.078-.098-.312-.39-.656-.906-1.031l-5.465-3.902 1.675-2.364 5.711 4.051c1.121.809 1.75 1.707 1.907 2.738.168 1.016-.157 2.078-.977 3.215-.809 1.153-1.723 1.809-2.754 1.961-1.015.207-2.078-.105-3.199-.898zm15.704-3.621l-9.684-5.082 1.742-3.297c.375-.692.66-1.203.867-1.516.227-.3.45-.531.676-.727a2.16 2.16 0 0 1 1.36-.468c.492 0 1.03.133 1.593.418.426.246.77.507 1.008.86.254.312.383.698.418 1.132.414-.313.852-.492 1.332-.492.477 0 1.008.132 1.594.449a3.6 3.6 0 0 1 1.328 1.098c.324.402.496.867.515 1.375.024.3-.011.644-.117 1.035-.113.37-.36.925-.761 1.656zm-4.485-5.532l.55-1.062c.196-.387.255-.645.212-.867-.047-.211-.242-.391-.528-.54-.324-.163-.582-.214-.78-.105-.204.063-.45.422-.743.973l-.39.687zm3.55 1.84l.622-1.183c.207-.403.29-.73.238-.973-.058-.207-.238-.445-.562-.598-.32-.148-.582-.18-.813-.101-.226.101-.437.375-.644.761l-.63 1.164zM22.648 129.016v-8.25h5.965v1.453h-4.289v1.718h3.922v1.434h-3.922v2.133h4.485v1.512zm6.985-1.993h1.613c.016.317.137.555.344.688.203.164.508.234.933.234.325 0 .563-.054.735-.152a.49.49 0 0 0 .246-.453c0-.262-.313-.48-.973-.653-.254-.042-.476-.09-.62-.109-.794-.219-1.337-.465-1.638-.719q-.47-.405-.472-1.12c0-.614.234-1.126.676-1.489.457-.344 1.07-.531 1.832-.531.804 0 1.441.187 1.914.531.449.363.703.875.73 1.54h-1.57c-.02-.263-.11-.478-.297-.614-.195-.137-.457-.219-.777-.219-.317 0-.54.063-.68.137a.49.49 0 0 0-.234.433c0 .246.398.457 1.21.637.18.05.333.074.45.113.793.184 1.355.418 1.644.692.293.265.45.629.45 1.136 0 .688-.247 1.211-.727 1.563q-.737.562-2.113.562c-.848 0-1.496-.187-1.961-.582-.477-.382-.715-.89-.715-1.543zm9.238 2.043h-.527c-.203.04-.34.04-.383.04-.629 0-1.055-.137-1.277-.36-.227-.242-.352-.687-.352-1.379v-3.297h-.793v-1.152h.793v-1.637h1.613v1.637h.926v1.152h-.926v3.38c0 .163.032.261.106.308.066.05.215.09.433.09h.387zm1.035-1.726h1.672v1.676h-1.672zm135.207 1.676v-5.446H173.2v-1.144h.125c.696 0 1.196-.106 1.52-.32.312-.22.492-.579.55-1.086h1.274v7.996zm8.059-3.133c-.18.176-.402.312-.64.418-.266.082-.555.14-.872.14-.777 0-1.406-.246-1.867-.687q-.72-.72-.719-1.922c0-.844.27-1.512.762-2.05.523-.5 1.207-.762 2.035-.762.973 0 1.719.343 2.219 1.003.504.672.773 1.645.773 2.961 0 1.375-.277 2.438-.824 3.157-.531.738-1.316 1.12-2.332 1.12-.703 0-1.258-.195-1.707-.562-.418-.383-.656-.851-.703-1.496h1.617c.031.246.137.457.297.555.152.133.398.187.691.187.395 0 .711-.148.918-.496.211-.344.328-.875.352-1.566m-.024-2.074c0-.45-.117-.82-.343-1.09-.223-.27-.54-.399-.934-.399-.379 0-.66.13-.867.399-.203.238-.305.62-.305 1.062 0 .426.102.77.313 1.008.215.238.523.375.918.375.39 0 .683-.137.89-.375.23-.238.328-.562.328-.98m2.411 3.132h1.062c.066.399.238.72.508.95.289.246.625.343 1.066.343.516 0 .965-.148 1.274-.476.344-.305.492-.735.492-1.262 0-.555-.149-.984-.469-1.309-.324-.316-.754-.464-1.273-.464-.305 0-.59.05-.86.18-.23.124-.464.312-.656.558h-.93l.645-4.203h4.23v.922h-3.468l-.32 2.132c.199-.16.425-.292.68-.375.26-.105.538-.128.835-.128.816 0 1.469.23 1.96.718.493.47.731 1.106.731 1.914 0 .82-.254 1.504-.773 2.012-.527.54-1.2.777-2.059.777-.738 0-1.367-.218-1.859-.613-.473-.426-.75-.98-.816-1.676"/></g><path d="M185.559 126.941h1.062c.066.399.238.72.508.95.289.246.625.343 1.066.343.516 0 .965-.148 1.274-.476.344-.305.492-.735.492-1.262 0-.555-.149-.984-.469-1.309-.324-.316-.754-.464-1.273-.464-.305 0-.59.05-.86.18-.23.124-.464.312-.656.558h-.93l.645-4.203h4.23v.922h-3.468l-.32 2.132c.199-.16.425-.292.68-.375.26-.105.538-.128.835-.128.816 0 1.469.23 1.96.718.493.47.731 1.106.731 1.914 0 .82-.254 1.504-.773 2.012-.527.54-1.2.777-2.059.777-.738 0-1.367-.218-1.859-.613-.473-.426-.75-.98-.816-1.676zm0 0" fill="none" stroke="#fff" stroke-miterlimit="3.864" stroke-width=".045"/><path d="M191.875 129.016v-.086c0-.77.188-1.399.563-1.93.375-.527 1.023-1.027 1.964-1.539l.66-.379c.403-.21.7-.48.895-.734.18-.278.27-.582.27-.965 0-.426-.141-.77-.418-1.04-.301-.237-.672-.374-1.16-.374-.485 0-.86.164-1.145.48-.274.352-.402.801-.402 1.36v.105h-1.047v-.148c0-.848.234-1.535.71-1.996.465-.508 1.114-.75 1.923-.75.8 0 1.421.21 1.906.675.472.41.71 1 .71 1.688 0 .555-.136 1.047-.402 1.437q-.426.625-1.304 1.063l-.672.351c-.606.313-1.063.602-1.34.903a1.9 1.9 0 0 0-.566.902h4.285v.977zm0 0" fill="#fff" stroke="#fff" stroke-miterlimit="3.864" stroke-width=".045"/><path d="M190.59 82.55l-1.766-.847-.875 1.781 1.774.852zm-44.176-29.874l.043 1.96 1.977-.054-.04-1.965zm-2.059-1.891l.055 1.973 1.957-.059-.043-1.969zm-61.218-7.703l1.675 1.027 1.036-1.664-1.7-1.039zm-2.677.848l1.724.965.925-1.739-1.718-.957zm-14.468 2.824l1.945.36.336-1.938-1.93-.363zm-2.258 1.644l1.922.36.344-1.93-1.922-.371zM35.68 94.078l1.12 1.625 1.626-1.094-1.11-1.62zm-.532 2.746l1.122 1.613 1.617-1.12-1.102-1.614zM21.93 77.031l1.226 1.532 1.547-1.239-1.234-1.52zM90.145 35.57l1.488 1.293 1.277-1.488-1.48-1.293zm70.207 12.403c.328-.641.492-3.164.492-3.164s-2.438 1.324-2.39 1.406c.401 1.062.237 1.73-.106 2.156l-1.782-1.617-2.332 2.707 2.317 2.07s2.965-1.933 3.8-3.558m-6.058-1.352c-.133-1.281-.402-1.781 0-2.058a1.026 1.026 0 0 1 1.39.25c.329.453.391.707.391.707l2.145-1.817s-1.39-2.297-3.61-1.015c-2.214 1.242-2.976 2.464-2.855 3.609.133 1.14.074 1.543-1.078 1.562-.531.032-.914 0-1.086-.101-.965-.531 1.273-4.188 2.418-5.16 0 0-1.93 1.414-3.008 3.004-.36.507-1.113 1.55-1.258 2.601-.148 1.035.375 1.938 1.227 1.938 1.707 0 2.05.168 3.328-.875 1.281-1 2.133-1.407 1.996-2.645m37.223 45.281l-8.72 1.914s2.067.555 3.556.5c1.5-.043 5.675-.52 5.675-.52l2.516-.831zm-40.184-55.496l1.078-2.43-2.832 1.532-4.437 7.754s1.812-1.13 2.777-2.293c.95-1.153 3.414-4.563 3.414-4.563m-78.078-7.64l-1.406-2.223-.313 3.18 3.945 8.023s.079-2.156-.343-3.582c-.434-1.437-1.883-5.398-1.883-5.398m-2.496.934l-1.406-2.266-.301 3.214 2.402 4.891c-.785.395-1.55.82-2.324 1.246l-1.723-1.492v2.055s1.602.972 1.989 2.222c.367 1.246.343 3.192-1 3.317l2.25 1.82s.558-.7.5-1.574c-.06-.582-.141-1.246-.688-3.055.809-.426 1.613-.875 2.438-1.293.03 0 .09-.023.09-.023l-.044-.235.059.121s.059-2.132-.367-3.55c-.426-1.473-1.875-5.399-1.875-5.399m76.918 6.504c.68-.613 1.773-1.414 1.773-1.414l-.418-3.078-1.594 1.488s-.32.91-.558 1.645c-.152.449-1.152 2.152-1.945 3.476-1.168-.68-2.32-1.355-3.5-1.996l1.945-1.765s0-1.7-.285-2.243c-.278-.503-1.196-.949-1.89-.605-.677.344-1.88 1.996-1.88 1.996l.496 1.8c-10.68-5.398-22.36-8.218-34.144-8.218-3.2 0-6.422.219-9.617.629l-1.114-1.922-.664 1.922s1.196 1.453 1.153 2.754c-.063 1.3-.735 3.14-2.036 2.824l1.512 2.438s.785-.477.985-1.301c.144-.574.285-1.25.367-3.164a70 70 0 0 1 9.414-.633c13.312 0 26.469 3.781 38.09 10.945 0 0 3.23-4.972 3.91-5.578" fill="#fff"/><path d="M188.625 90.406c.887.082 2.219.367 2.234.383h.09l2.227-2.684-2.496-.21-.032.03-1.613.688c-.48.207-3.008.739-4.539 1.04a75 75 0 0 0-1.113-3.247l2.773-1.77-3.566-.359c-4.89-12.62-12.172-23.937-21.34-33.113l5.344-5.59-3.117.535-5.825 6.508.614.563c10.422 10.277 18.394 23.476 23.066 38.191h.016l.57-.101c.059 0 5.832-.938 6.707-.864M67.512 41.836v-.031l-.016-.024c-.164-.351-1.226-2.82-1.66-3.566-.484-.793-2.324-2.73-2.324-2.73l.097 2.566s.704.12 1.407 1.152C52.242 47.25 41.504 58.941 33.91 73.13l-6.828-3.598 1.336 2.848 7.906 3.8.239-.503c7.433-14.25 18.117-25.93 30.867-33.82zm16.195-4.621c0-.61-.066-1.895-.156-2.844a76 76 0 0 1 8.949-2.316l-.008-.024h.008s.105-3.058.04-3.976c-.09-.93-.938-3.465-.938-3.465l-1.008 2.367s.59.422.785 1.73a72 72 0 0 0-9.977 2.657c-.05 0-.492.125-.492.125l.172 3.726c.113-.03.531-.168.637-.218.254-.075.523-.164.762-.247.156.891.09 1.946-.899 2.317-1.851.726-3.215-4.559-3.215-4.559.137 4.117 1.781 7.492 3.293 7.434 1.524-.024 2.004-1.656 2.047-2.707M32.734 76.18c-.68-.586-1.136-.95-2.41-.95-1.23 0-2.644.07-2.816.575-.375 1.144.055 1.62.851 4.097.524 1.7.95 2.301 1.16 2.543-.023.028-.03.051-.046.082l-4.211-.457 1.468 1.727s1.434-.203 2.258-.05a106 106 0 0 0-2.675 7.679l-.094.312 3.203 1.684c.105-.402.23-.8.367-1.219.707.23 1.316.64 1.188 1.324-.555 3.399-6.184 1.375-6.184 1.375 5.781 3.305 9.789.828 8.809-1.644-.68-1.75-2.372-2.395-3.297-2.617a97 97 0 0 1 4.367-11.164c.058-.106.148-.301.148-.301l.172-.367s-1.562-2.047-2.258-2.63m-3.402 1.891c-.023-.883 1.512-.664 2.324-.515a110 110 0 0 0-1.547 3.46c-.457-.792-.73-2.152-.777-2.945" fill="#fff"/><path d="M214.367 107.48c0 59.055-47.855 106.926-106.926 106.926C48.383 214.406.492 166.536.492 107.48.492 48.398 48.382.5 107.442.5c59.07 0 106.925 47.898 106.925 106.98" fill="#eb1c26"/><path d="M132.566 76.629c-4.226-2.016-5.921-1.012-7.785.691-1.863 1.676-5.57 8.032-5.57 8.032s10.559-6.176 19.516-1.293c0 0-1.938-5.414-6.16-7.43m-2.739 1.621c-.164.746-.851 1.188-1.488 1.066-.664-.164-1.07-.878-.906-1.605.16-.738.855-1.188 1.492-1.055.664.164 1.058.875.902 1.594" fill="#fff"/><path d="M49.238 107.48c0 32.075 26.11 58.172 58.203 58.172 32.102 0 58.22-26.097 58.22-58.172 0-32.125-26.118-58.242-58.22-58.242-32.093 0-58.203 26.117-58.203 58.242m1.508 0c0-31.28 25.426-56.726 56.695-56.726 31.254 0 56.68 25.445 56.68 56.726 0 31.254-25.426 56.665-56.68 56.665-31.27 0-56.695-25.41-56.695-56.665" fill="#fff"/><path d="M4.715 107.48c0 56.618 46.086 102.708 102.726 102.708 56.618 0 102.707-46.09 102.707-102.708 0-56.664-46.09-102.726-102.707-102.726-56.64 0-102.726 46.062-102.726 102.726m3.05 0c0-54.968 44.708-99.707 99.676-99.707 54.957 0 99.653 44.739 99.653 99.707 0 54.942-44.696 99.641-99.653 99.641-54.968 0-99.675-44.7-99.675-99.64" fill="#fff"/><path d="M54.441 116.691c27.22-9.804 33.684 14.633 33.684 14.633 1.16-10.902-5.418-17.133-11.402-19.926-5.13-2.386-9.692-2.043-9.692-2.043 1.406-2.37 7.645-13.996 13.356-24.75 5.683-10.757 10.312-14.542 16.898-18.28 6.567-3.786 16.57-3.134 21.512-2.262 4.945.855 7.523 5.265 10.656 8.046 3.113 2.813 5.39.457 9.242 4.973 3.875 4.516 3.246 10.656 3.125 12.695-.086 2.051-.867 2.895-.968 2.051-.106-.844-.668-2.078-2.715-3.379-.742-.441-3.133-.39-5.207.809-3.559 2.012-6.555 4.722-8.77 11.469-2.594 7.902.297 18.253.297 18.253 5.984 4.5 10.23 11.356 12.055 19.387 1.12 4.899 1.789 9.996 2.11 13.168a58 58 0 0 0 3.476-2.691c-2.758-26.68-13.301-30.375-13.301-30.375 8.672-3.153 16.121-.86 19.015 6.183 1.383 3.407 2.625 9.192 3.508 14.254a53.63 53.63 0 0 0 10.118-31.426c0-29.835-24.176-54.011-53.997-54.011-29.82 0-53.988 24.176-53.988 54.011 0 3.153.27 6.266.8 9.293zm0 0" fill="#fff"/><path d="M112.61 74.691c0-.843.695-1.527 1.523-1.527a1.53 1.53 0 0 1 1.531 1.527c0 .852-.687 1.508-1.531 1.508a1.51 1.51 0 0 1-1.524-1.508m9.219-1.707s-4.058-1.593-7.941-2.78c-3.903-1.165-8.285-1.68-12.27-.673-3.957 1.016-5.578 1.68-5.578 1.68s6.93.262 13.016.691c6.101.426 14.375 1.778 12.773 1.082m-18.941 0l3.379-.156s-1.754 4.883 1.457 7.36c0 0-5.067 0-4.836-7.204m14.379 1.211l1.855-.347s.738 4.289-2.012 6.77c-2.879 2.523-7.199.741-7.199.741s8.356 1.356 7.356-7.164m6.582 12.243s3.289-1.79 11.156-2.297c0 0-3.719 2.796-5.66 4.84 0 0-2.207-1.356-5.496-2.543m-94.801 55.847l11.21-2.14 1.321 2.625-8.254 7.84-1.332-2.602 1.145-.946-1.324-2.57-1.442.328zm5.047 1.625l.824 1.63 2.969-2.528zm.554 8.793l9.055-6.133 1.652 2.422-6.667 4.5 2.226 3.278-2.414 1.601zm7.418 5.847l2.207-1.78 2.012 2.421-2.207 1.825zm1.219 5.817l10.012-5.43 2.101 2.11-5.535 9.96-2.039-2.077.801-1.243-2.05-2.05-1.27.75zm5.309.016l1.27 1.316 2.058-3.308zm3.215 8.285l6.714-8.66 3.41 2.68c1.09.835 1.704 1.628 1.856 2.375.164.75-.105 1.57-.766 2.437-.433.523-.851.883-1.3 1.078-.477.207-.985.254-1.547.133.344.434.488.867.426 1.289-.051.445-.32.957-.747 1.566l-.898 1.227v.016c-.27.359-.344.597-.207.687l-.273.36-2.301-1.81c.09-.237.21-.448.312-.644.106-.164.18-.28.239-.36l.66-.878c.343-.434.531-.809.531-1.078-.023-.328-.188-.598-.563-.899l-.968-.73-2.32 2.973zm6.109-3.188l1.039.84c.375.282.668.403.898.387.207 0 .454-.164.696-.45.23-.296.312-.581.293-.804-.063-.242-.293-.496-.692-.808l-.976-.793zm2.234 9.512l8.285-7.804 2.551 1.48-2.789 11.066-2.469-1.48.43-1.39-2.492-1.497-1.047 1.063zm5.121-1.316l1.594.914 1.113-3.711zm5.258 7.164l4.254-10.094 3.434 1.465c.734.328 1.273.555 1.586.734.32.18.566.403.77.63.35.355.53.788.59 1.3.054.492-.028 1.016-.298 1.613-.18.45-.418.82-.742 1.078-.32.27-.687.461-1.113.536.375.375.554.793.613 1.273.043.46-.059 1.016-.3 1.629-.263.582-.583 1.062-.97 1.406-.414.344-.824.555-1.332.63-.332.058-.703.03-1.039-.032-.367-.074-.957-.285-1.757-.598zm3.59-1.254l1.25.504c.426.195.738.242.984.168.243-.059.43-.27.555-.613.133-.329.164-.583.04-.81-.114-.237-.407-.401-.81-.597l-1.218-.508zm1.57-3.695l1.122.46c.367.169.628.212.835.137.22-.058.383-.285.512-.597.133-.313.164-.57.059-.762-.117-.195-.465-.434-1.04-.676l-.745-.312zm5.204 9.015l3.195-10.469 2.863.883-3.215 10.426zm11.261-.566l2.82.402c.024.406.126.692.29.899.187.195.488.328.875.39.355.043.609.012.824-.105a.68.68 0 0 0 .367-.555c.059-.387-.285-.762-1.055-1.105-.164-.09-.293-.137-.367-.164a16 16 0 0 1-1.515-.766c-.375-.238-.645-.418-.801-.61a3.2 3.2 0 0 1-.63-1.183c-.12-.434-.132-.914-.062-1.453.16-1.074.618-1.883 1.348-2.39.777-.524 1.734-.704 2.902-.567 1.172.18 2.047.597 2.633 1.3.582.657.813 1.555.77 2.645l-2.739-.371c0-.316-.109-.586-.261-.766-.164-.175-.434-.296-.778-.359-.32-.027-.554 0-.718.121-.149.09-.262.27-.29.524-.046.343.29.718 1.067 1.062a.4.4 0 0 0 .129.059c.113.047.3.136.5.238 1.015.45 1.644.855 1.945 1.14.344.372.582.762.719 1.196.133.445.164.926.082 1.48-.156 1.196-.652 2.078-1.438 2.602-.77.566-1.808.746-3.101.566-1.203-.164-2.102-.613-2.707-1.343-.621-.735-.883-1.692-.809-2.887m10.602 4.68l.105-10.918 3.754.03c.824.032 1.453.075 1.961.212.477.101.867.297 1.195.55.399.344.711.778.93 1.274.192.523.29 1.121.29 1.809-.024 1.226-.321 2.152-.934 2.796-.614.657-1.48.973-2.602.957h-1.75l-.031 3.348zm2.976-5.98h.93c.606 0 1.008-.075 1.219-.227.215-.165.32-.434.32-.852 0-.434-.074-.715-.285-.883-.191-.164-.59-.27-1.234-.27h-.926zm7.039.538c-.218-1.781.024-3.215.739-4.34.695-1.133 1.781-1.777 3.215-1.972 1.468-.18 2.664.195 3.613 1.105.988.93 1.57 2.29 1.785 4.04.242 1.765-.027 3.198-.715 4.32-.719 1.152-1.781 1.78-3.246 1.976-1.437.18-2.648-.195-3.621-1.121-.95-.899-1.555-2.262-1.77-4.008m2.895-.375c.133 1.031.371 1.777.715 2.2.344.46.824.64 1.437.566.614-.09 1-.371 1.239-.883.226-.492.277-1.27.152-2.3-.152-1.048-.39-1.782-.703-2.247-.344-.45-.824-.64-1.43-.55-.613.09-1.008.374-1.246.898-.21.508-.27 1.285-.164 2.316m10.176 3.992l-2.813-10.59 4.196-1.105c1.3-.344 2.316-.371 2.996-.059.699.313 1.175 1.047 1.46 2.11.188.656.208 1.21.09 1.691-.12.52-.375.926-.808 1.301.539 0 .957.148 1.285.46.316.317.586.825.762 1.513l.449 1.449s0 .031.031.031c.106.434.27.613.426.613l.105.371-2.843.766a3 3 0 0 1-.297-.629c-.067-.18-.13-.312-.157-.418l-.285-1.078c-.164-.523-.343-.898-.582-1.062-.238-.18-.593-.207-1.02-.075l-1.195.328.989 3.637zm1.172-6.789l1.273-.328c.45-.133.73-.3.875-.492.133-.18.133-.45.05-.824-.105-.375-.269-.598-.476-.719-.187-.074-.554-.074-1.03.059l-1.228.332zm11.472 2.887l-3.05-7.477-2.426 1.016-1.09-2.691 7.547-3.082 1.082 2.691-2.414.973 3.058 7.449zm5.442-6.043l2.468-1.375c.27.313.54.477.801.523.262.059.559 0 .934-.21.285-.149.476-.344.582-.583a.62.62 0 0 0-.027-.64c-.18-.348-.72-.422-1.543-.242a3 3 0 0 0-.372.09c-.69.12-1.242.242-1.667.285-.426.03-.774.03-1.008 0a2.95 2.95 0 0 1-1.2-.555 3.7 3.7 0 0 1-.957-1.137c-.507-.957-.644-1.867-.343-2.734.285-.856.949-1.586 1.988-2.153 1.047-.585 1.969-.78 2.844-.585.883.18 1.613.734 2.234 1.675l-2.414 1.344c-.195-.266-.434-.418-.676-.445-.238-.063-.508 0-.828.18-.262.132-.441.312-.5.507-.078.149-.047.371.059.582.18.328.687.403 1.488.211.082 0 .133-.015.188-.015.101-.032.292-.063.523-.121 1.066-.239 1.809-.313 2.227-.254.507.105.94.254 1.3.523.36.285.676.672.965 1.152.59 1.063.711 2.02.426 2.93-.297.914-1 1.692-2.152 2.32-1.063.598-2.047.778-2.977.567-.926-.254-1.719-.836-2.363-1.84m17.43-12.832l2.117-1.777c.851 1.136 1.277 2.289 1.195 3.379-.043 1.078-.582 2.066-1.586 2.886-1.121.957-2.316 1.301-3.617 1.063-1.301-.27-2.52-1.063-3.664-2.426-1.172-1.344-1.758-2.707-1.778-4.02-.062-1.316.477-2.421 1.563-3.351q1.514-1.279 3.11-1.121c1.07.074 2.1.644 3.077 1.676l-2.12 1.808c-.4-.39-.77-.644-1.169-.687a1.37 1.37 0 0 0-1.082.39c-.457.387-.613.836-.508 1.418.102.555.477 1.211 1.141 1.989.637.777 1.25 1.257 1.805 1.421.558.196 1.062.121 1.515-.285.352-.297.504-.625.504-1.031 0-.418-.152-.852-.504-1.332m6.903-.609l-8.051-7.407 1.973-2.168 5.921 5.461 2.684-2.918 2.125 1.961zm-2.552-13.461l1.7-2.38 5.473 3.934c.508.36.941.555 1.273.524.352-.031.672-.254.969-.64.277-.438.36-.782.277-1.095-.074-.312-.386-.656-.894-1.03l-5.477-3.934 1.7-2.364 5.683 4.051c1.121.84 1.758 1.734 1.914 2.738.164 1.016-.156 2.11-.957 3.215-.824 1.153-1.75 1.809-2.762 1.988-1.007.211-2.07-.132-3.191-.925zm15.704-3.59l-9.676-5.086 1.727-3.313c.406-.703.691-1.214.898-1.504.223-.324.434-.554.653-.71.386-.317.843-.48 1.351-.508.5 0 1.04.133 1.594.418.441.246.8.53 1.039.86.227.35.367.698.418 1.179a2 2 0 0 1 1.3-.54c.489 0 1.012.15 1.602.45.582.312 1.032.664 1.352 1.098.324.402.473.867.504 1.375.027.328-.031.687-.137 1.03-.105.376-.344.93-.73 1.692zm-4.465-5.563l.555-1.062c.195-.36.238-.645.195-.867-.058-.211-.222-.391-.539-.54-.324-.163-.582-.187-.762-.105-.226.106-.457.422-.746.973l-.375.719zm3.531 1.84l.641-1.183c.211-.372.293-.688.242-.926-.058-.254-.242-.45-.562-.645-.32-.148-.606-.18-.828-.074-.235.074-.45.344-.66.734l-.606 1.164zM22.648 129.016v-8.22h5.942v1.423h-4.305v1.738h3.942v1.414h-3.942v2.133h4.524v1.512zm6.985-1.961h1.59c.023.285.136.523.343.687q.33.201.938.203c.312 0 .55-.054.746-.152.148-.102.254-.238.254-.453 0-.262-.336-.48-.98-.613a8 8 0 0 1-.633-.153c-.774-.191-1.332-.426-1.649-.715-.297-.27-.453-.644-.453-1.12 0-.614.246-1.094.664-1.462q.677-.557 1.832-.558 1.243 0 1.906.558c.48.336.727.848.75 1.512h-1.593c0-.262-.098-.441-.293-.613-.18-.137-.426-.188-.77-.188-.293 0-.531.031-.687.137a.49.49 0 0 0-.215.426c0 .238.402.445 1.222.633.18.03.313.093.422.093.82.2 1.36.418 1.645.696.32.273.453.648.453 1.132 0 .688-.23 1.211-.715 1.594-.48.344-1.191.531-2.125.531-.824 0-1.488-.187-1.965-.562-.48-.371-.687-.91-.687-1.563zm9.238 2.011c-.156 0-.344 0-.527.04h-.399c-.64 0-1.039-.114-1.27-.36-.241-.242-.35-.687-.35-1.379v-3.273h-.802v-1.137h.801v-1.644h1.59v1.644h.957v1.137h-.957v3.355c0 .164.063.262.113.309.067.05.22.09.457.09h.387zm1.004-1.726h1.691v1.676h-1.691zm135.223 1.676v-5.446h-1.922v-1.12h.133c.695 0 1.195-.106 1.52-.345.312-.218.5-.562.55-1.054h1.281v7.965zm8.058-3.106c-.18.188-.386.32-.656.39-.234.11-.531.173-.852.173-.765 0-1.406-.243-1.886-.72-.477-.48-.688-1.12-.688-1.921 0-.816.242-1.512.742-2.012.528-.539 1.196-.77 2.047-.77.98 0 1.7.313 2.227.973.504.696.75 1.68.75 2.961 0 1.375-.277 2.438-.8 3.176-.556.719-1.325 1.102-2.364 1.102-.688 0-1.254-.196-1.676-.563-.45-.351-.684-.851-.715-1.496h1.63a.804.804 0 0 0 .292.594c.156.125.395.176.68.176.402 0 .695-.176.91-.52.21-.348.344-.855.36-1.543m-.016-2.101c0-.45-.11-.793-.344-1.09-.238-.27-.531-.399-.934-.399-.375 0-.656.13-.875.399-.226.27-.312.62-.312 1.09 0 .418.086.742.336 1.011.218.239.5.344.902.344.375 0 .7-.105.906-.344.211-.234.32-.593.32-1.011m2.395 3.132h1.063c.074.426.23.75.53.95.263.246.626.375 1.067.375.516 0 .946-.157 1.266-.508.32-.305.469-.735.469-1.262s-.149-.984-.438-1.281c-.324-.313-.754-.477-1.297-.477-.297 0-.597.051-.836.164a1.76 1.76 0 0 0-.656.559h-.93l.63-4.203h4.222v.922h-3.473l-.324 2.132c.219-.16.426-.292.688-.375.27-.074.53-.128.859-.128.793 0 1.46.23 1.93.718.511.47.75 1.106.75 1.914 0 .844-.27 1.504-.762 2.012q-.81.81-2.059.809c-.761 0-1.375-.219-1.863-.645-.492-.426-.77-.98-.836-1.676" fill="#fff"/><path d="M185.535 126.941h1.063c.074.426.23.75.53.95.263.246.626.375 1.067.375.516 0 .946-.157 1.266-.508.32-.305.469-.735.469-1.262s-.149-.984-.438-1.281c-.324-.313-.754-.477-1.297-.477-.297 0-.597.051-.836.164a1.76 1.76 0 0 0-.656.559h-.93l.63-4.203h4.222v.922h-3.473l-.324 2.132c.219-.16.426-.292.688-.375.27-.074.53-.128.859-.128.793 0 1.46.23 1.93.718.511.47.75 1.106.75 1.914 0 .844-.27 1.504-.762 2.012q-.81.81-2.059.809c-.761 0-1.375-.219-1.863-.645-.492-.426-.77-.98-.836-1.676zm0 0" fill="none" stroke="#fff" stroke-miterlimit="3.864" stroke-width=".045"/><path d="M191.844 129.016v-.047c0-.778.187-1.438.562-1.946.406-.53 1.04-1.05 1.969-1.562l.688-.379c.402-.21.699-.45.882-.734.18-.278.258-.582.258-.965 0-.426-.125-.77-.414-1.016-.281-.262-.668-.398-1.148-.398-.477 0-.88.195-1.137.508-.297.324-.43.773-.43 1.355v.082h-1.043v-.133c0-.863.242-1.512.727-2.012.472-.488 1.105-.718 1.93-.718.777 0 1.414.21 1.882.644.496.41.735 1 .735 1.719 0 .523-.137 1.016-.434 1.434-.27.39-.687.742-1.273 1.062l-.696.336c-.605.328-1.039.613-1.328.89a1.84 1.84 0 0 0-.554.903h4.285v.977zm0 0" fill="#fff" stroke="#fff" stroke-miterlimit="3.864" stroke-width=".045"/><path d="M190.574 82.55l-1.777-.847-.848 1.781 1.758.852zM146.398 52.7l.059 1.968 1.961-.055-.05-1.968zm-2.062-1.915l.05 1.973 1.954-.059-.016-1.969zm-61.211-7.703l1.676 1.027 1.015-1.664-1.675-1.039zm-2.675.848l1.718.965.934-1.739-1.727-.957zm-14.485 2.847l1.941.336.344-1.937-1.906-.336zm-2.255 1.645l1.938.336.344-1.93-1.933-.351zM35.664 94.078l1.11 1.625 1.652-1.094-1.121-1.62zm-.539 2.746l1.113 1.613 1.649-1.09-1.114-1.617zM21.898 77.055l1.258 1.508 1.54-1.211-1.255-1.547zM90.145 35.57l1.488 1.293 1.27-1.488-1.493-1.293zm70.183 12.403c.344-.641.516-3.164.516-3.164s-2.438 1.324-2.414 1.437c.425 1.031.246 1.7-.106 2.125l-1.773-1.594-2.34 2.684 2.312 2.07s2.977-1.933 3.805-3.558m-6.035-1.352c-.133-1.281-.426-1.766 0-2.02.531-.374 1.11-.152 1.379.239.32.457.371.68.371.68l2.176-1.817s-1.403-2.297-3.633-1.015c-2.207 1.269-2.969 2.464-2.848 3.609.133 1.14.059 1.562-1.062 1.594-.531 0-.926 0-1.086-.114-.965-.55 1.273-4.207 2.418-5.144 0 0-1.946 1.379-3.04 2.969-.343.53-1.113 1.55-1.238 2.601-.136 1.063.372 1.977 1.22 1.977 1.726 0 2.07.129 3.327-.89 1.27-1.005 2.121-1.4 2.016-2.669m37.219 45.281l-8.715 1.914s2.043.586 3.531.5c1.512-.043 5.684-.5 5.684-.5l2.527-.828zm-40.196-55.496L152.41 34l-2.848 1.508-4.433 7.754s1.808-1.13 2.758-2.274c.957-1.172 3.43-4.582 3.43-4.582m-78.079-7.613l-1.402-2.25-.316 3.207 3.96 7.992s.047-2.12-.37-3.578c-.434-1.437-1.872-5.371-1.872-5.371m-2.488.93l-1.406-2.262-.32 3.21 2.421 4.895a73.02 73.02 0 0 0-2.347 1.22l-1.692-1.493-.031 2.055s1.625.972 1.992 2.218c.395 1.25.352 3.196-.972 3.32l2.226 1.821s.582-.695.5-1.55c-.05-.606-.133-1.27-.664-3.052a37 37 0 0 1 2.438-1.292.4.4 0 0 1 .062-.051l-.031-.196.058.114s.055-2.133-.375-3.582c-.425-1.45-1.859-5.375-1.859-5.375m76.926 6.48c.668-.613 1.773-1.414 1.773-1.414l-.418-3.078-1.617 1.488s-.297.934-.566 1.672c-.121.422-1.137 2.125-1.93 3.45a76 76 0 0 0-3.484-1.962l1.937-1.777s0-1.723-.293-2.238c-.285-.531-1.195-.977-1.883-.633s-1.879 1.996-1.879 1.996l.473 1.8c-10.68-5.359-22.344-8.218-34.113-8.218-3.207 0-6.453.219-9.617.652l-1.114-1.945-.695 1.922s1.203 1.453 1.152 2.754c-.05 1.3-.718 3.14-2.02 2.824l1.513 2.461s.777-.473.984-1.324c.16-.574.285-1.25.375-3.164a76 76 0 0 1 9.422-.602c13.281 0 26.457 3.766 38.09 10.914 0 0 3.214-4.949 3.91-5.578" fill="#fff"/><path d="M188.61 90.406a38.9 38.9 0 0 1 2.234.383l.074.031 2.238-2.687-2.508-.239-.023.032-1.59.71c-.48.208-3.02.715-4.562 1.016-.352-1.097-.727-2.152-1.09-3.215l2.75-1.8-3.551-.36c-4.883-12.594-12.195-23.937-21.332-33.113l5.324-5.563-3.097.508-5.84 6.535.605.536c10.446 10.308 18.418 23.507 23.063 38.214l.027-.023.582-.074c.055 0 5.82-.965 6.695-.89M67.512 41.836h-.031zm0 0l-.03-.031c-.157-.375-1.227-2.813-1.676-3.559-.453-.824-2.301-2.738-2.301-2.738l.105 2.574s.688.117 1.375 1.121C52.211 47.25 41.504 58.965 33.88 73.13l-6.82-3.598 1.347 2.848 7.895 3.82.238-.523h.024c7.433-14.25 18.085-25.895 30.867-33.79zm16.172-4.594c.023-.62-.082-1.89-.157-2.855 2.95-.95 5.953-1.742 8.953-2.305v-.05s.102-3.028.02-3.954c-.074-.93-.926-3.488-.926-3.488l-1.015 2.363s.617.426.804 1.735a75.667 75.667 0 0 0-9.957 2.656 9 9 0 0 1-.508.125l.164 3.726c.102-.03.52-.168.657-.187.238-.106.508-.195.738-.278.176.915.082 1.946-.902 2.317-1.856.75-3.2-4.531-3.2-4.531.118 4.09 1.77 7.464 3.282 7.433 1.547-.05 2.004-1.644 2.047-2.707M32.734 76.18c-.687-.563-1.168-.93-2.414-.93-1.242 0-2.656.074-2.812.555-.375 1.144.055 1.652.82 4.097.555 1.7.957 2.332 1.168 2.543 0 .028-.023.051-.023.102l-4.223-.438 1.45 1.72s1.44-.212 2.273-.083c-.989 2.535-1.891 5.074-2.66 7.68a3.148 3.148 0 0 0-.106.312l3.184 1.711c.136-.41.261-.828.375-1.222.73.207 1.324.617 1.21 1.32-.581 3.379-6.183 1.355-6.183 1.355 5.766 3.329 9.75.829 8.793-1.644-.664-1.727-2.363-2.395-3.313-2.617a97 97 0 0 1 4.399-11.164c.027-.082.133-.301.133-.301l.164-.344s-1.57-2.07-2.235-2.652m-3.402 1.89c-.047-.882 1.496-.664 2.324-.48a73 73 0 0 0-1.547 3.426c-.48-.793-.746-2.121-.777-2.946" fill="#fff"/></svg>