<svg viewBox="0 0 300.6 333" xmlns="http://www.w3.org/2000/svg"><path d="m277.506 175.877c0-66.745-56.778-120.854-126.82-120.854-70.04 0-126.819 54.11-126.819 120.853 0 66.744 56.778 120.854 126.82 120.854 70.041 0 126.82-54.11 126.82-120.854" fill="#172e6b" fill-rule="evenodd"/><path d="m61.416 90.813c-22.842 21.774-36.97 51.846-36.97 85.063s14.128 63.29 36.97 85.063c22.847 21.77 54.402 35.24 89.27 35.24 34.864 0 66.419-13.47 89.26-35.24 22.847-21.774 36.976-51.845 36.976-85.063 0-33.217-14.129-63.289-36.976-85.063-22.841-21.774-54.396-35.234-89.26-35.234-34.868 0-66.423 13.46-89.27 35.234m-38.128 85.063c0-67.052 57.037-121.404 127.399-121.404 70.35 0 127.392 54.352 127.398 121.404-.005 67.048-57.048 121.404-127.398 121.404-70.362 0-127.399-54.356-127.399-121.404" fill="#172e6b"/><path d="m26.873 205.397c7.359-38.487 17.19-46.643 20.566-48.38-.803-2.859-1.14-5.87-1.14-8.931.033-17.477 11.016-36.88 13.387-40.897l-7.758-7.41h.006l1.634-1.562 9.017 8.612-.461.742c-.006 0-.837 1.337-2.107 3.674a121 121 0 0 0 -4.657 9.555c-3.387 7.81-6.758 17.983-6.747 27.286-.006 3.23.4 6.348 1.326 9.23l.377 1.162-1.242.248-.011.005c-.056.012-.146.05-.281.106-.264.118-.697.348-1.27.77-1.14.837-2.842 2.46-4.842 5.516-4.005 6.118-9.185 17.983-13.516 40.672zm0 0" fill="#fff"/><path d="m47.674 158.927 1.439-1.735 31.341 23.707-1.438 1.73zm12.882-52.002 43.01-18.022.932 2.028-43.01 18.022zm162.588-4.017-.422-.247s0-.005.012-.022c.017-.04.051-.107.09-.203.079-.185.18-.46.298-.803.225-.68.5-1.618.803-2.708.607-2.185 1.315-5.005 1.995-7.78a703 703 0 0 0 2.572-10.966l2.264.466c-.005.023-3.73 16.544-5.432 21.662-.28.775-.376 1.185-.786 1.713zm0 0" fill="#fff"/><path d="m197.488 94.414v.005zm47.424 105.658c2.618-13.573 12.061-24.05 14.067-26.167-2.185-17.814-8.185-29.645-9.129-31.066-.489-.747-7.488-10.421-14.302-19.814-5.91-8.14-11.702-16.112-13.168-18.128-1.433-.107-3.332-.77-5.747-1.686-2.54-.988-5.506-2.292-8.343-3.595a340 340 0 0 1 -10.802-5.202l1.073-1.955c.022.012 11.527 5.826 18.948 8.702 2.427.966 4.54 1.567 5.157 1.54.05 0 .084-.006.101-.006l.736-.129.421.584c.012.023 26.74 36.763 27.887 38.515 1.23 1.9 7.314 13.988 9.533 32.487l.062.517-.382.377c0 .005-.669.663-1.753 1.92a63 63 0 0 0 -4.123 5.377c-3.13 4.573-6.59 10.955-7.966 18.128zm0 0" fill="#fff"/><path d="m259.94 173.197c1.376-.22 5.763-3.236 9.364-6.112a190 190 0 0 0 6.86-5.685l1.561 1.634a199.43 199.43 0 0 1 -6.949 5.758c-3.797 2.938-7.792 5.955-10.336 6.568zm0 0" fill="#fff"/><path d="m85.718 117.239q.22.018.433.017c.18 0 .353-.012.522-.023.017-.129.022-.258.022-.342a3 3 0 0 1 -.331-.703 3.6 3.6 0 0 1 -.657-.303c.022.365-.012.685-.028.938-.005.084-.017.186-.023.264q.035.075.062.152m62.615 180.665c-6.444 0-11.803-1.624-17.994-2.466-7.735-1.169-13.302-2.326-20.358-4.472-21.679-6.927-34.717-16.55-39.391-20.802l-4.09-.826 1.562-1.624 8.718-9.072.545-.568.792-.129c.146-.022.248-.056.27-.067l.135-.062.095-.034c.54-.185 1.023-.809 1.59-1.533.848-1.101 1.899-2.46 3.786-3.107 1.107-.404 2.23-.46 3.073-.46.281 0 .55.004.832.011.23 0 .466.012.69.012.76 0 1.141-.067 1.41-.258 2.298-1.567 3.658-3.416 3.551-4.82-.079-1.062-.033-2.045.012-2.994.045-1.023.096-1.995-.04-2.933-.32-.387-.623-.898-.662-1.545-.174-1.881-.107-3.758-.045-5.572.073-2.068.14-4.023-.118-5.893l-.016-.146v-.146c0-.175.005-.36.028-.545v-.068c-.096-.112-.197-.224-.293-.331-.505-.573-1.028-1.152-1.483-1.882l-.14-.214-.079-.23c-.168-.494-.196-.95-.213-1.32 0-.062-.005-.118-.005-.18l-.079-.112-.101-.377c-.096-.123-.669-.455-1.062-.674-.348-.202-.753-.427-1.146-.702-1.1-.78-1.618-1.803-1.994-2.562l-.09-.174c-.652-1.028-1.112-2.016-1.562-2.966-.528-1.129-.983-2.106-1.685-3.01-.303-.35-.562-.866-.55-1.58-1.675-2.55-1.478-5.713-.444-7.881l.022-.034.012-.033c.534-1.017 1.506-1.4 2.213-1.584a7.52 7.52 0 0 0 -1.887-5.742c-.523-.578-1.191-1.146-1.899-1.752-1.865-1.59-4.19-3.573-4.393-6.702-.095-1.472.107-2.81.309-4.107.191-1.247.376-2.432.23-3.545-.719-4.758-.719-9.269-.719-14.038 0-.495-.213-1.045-.46-1.686a14 14 0 0 1 -.281-.758l-.023-.045-.016-.05c-.467-1.59-.366-3.107-.197-4.377.022-.213.022-.472.022-.764-.012-.668-.033-1.584.371-2.6.27-.652.646-1.085.888-1.377a1 1 0 0 0 .067-.073c.028-.32.012-.584-.079-.742-.14-.258-.438-.91-.494-1.629a55 55 0 0 0 -.865-4.342l-.005-.028-.005-.034c-.315-1.472-.202-2.854-.101-4.073.084-1.1.157-2.05-.09-2.747a17.8 17.8 0 0 1 -.882-3.82c-.427-3.112-.264-6.073-.012-8.808.017-1.377.41-2.663.753-3.804.079-.258.163-.522.236-.786l.012-.034.005-.033c.185-.556.151-1.163.118-1.938-.034-.725-.079-1.556.073-2.472l.012-.107.022-.095c.09-.32.146-.686.214-1.073.196-1.264.449-2.826 1.78-4.14.585-.63 3.624-3.804 6.045-3.804.916 0 1.685.365 2.197.967q.22-.304.5-.557c.37-.46.707-1.1.876-1.662.18-.573.292-1.079.421-1.613.14-.59.276-1.196.5-1.904.242-.775.264-1.635.079-2.562-.04-.14-.068-.27-.101-.382h-.023c-.241 0-.488.017-.735.028-.349.023-.686.04-1.017.04-.854 0-1.55-.113-2.197-.343l-.668-.236-.467-.579c-.966-1.28-.309-3.236-.28-3.32l.084-.236.14-.213c.669-1.073 1.697-1.545 2.45-1.893.174-.08.354-.158.494-.236a5.7 5.7 0 0 1 .843-.764l.09-.08.27-.252.286-.118a5 5 0 0 1 2.151-.5h.017v-.213c-.028-.938-.079-3.803 2.753-4.573l.309-.09.37-.005c1.759 0 2.422 1.54 2.73 2.275.046.107.102.247.158.365.09.012.191.028.27.04.606.09 1.438.213 2.202.764 1.556 1.106 1.415 2.938 1.326 4.151-.017.22-.04.433-.04.63v3.117l-.792-.253c.012.72-.045 1.596-.494 2.45l-.169.325-.27.259c-.42.404-.898.578-1.325.663.05.163.124.365.236.618.725 1.432.646 2.809.584 3.92-.033.596-.062 1.152.045 1.518l.05.134.023.14c.034.186.152.456.281.748.017.034.028.073.045.107q.372-.017.753-.017c.674 0 1.68.05 2.623.477q-.058-.546-.123-1.1c-.23-2.141-.5-4.562.117-7.034.085-.534.326-.994.562-1.444l.158-.298.28-.28c.074-.08.22-.382.32-.579.36-.747.905-1.865 2.259-2.607l.056-.028.062-.028c.663-.32 1.444-.488 2.27-.488.792 0 1.561.163 2.219.466.073.012.23.017.36.028.325.012.769.034 1.252.152.213-.669.253-1.163.23-1.4-.427-.185-.775-.297-1.157-.42l-.118-.04-.123-.05c-.096-.04-.253-.09-.613-.09-.275 0-.6.028-.938.056-.41.04-.87.079-1.36.079-1.258 0-2.33-.281-3.274-.854-1.495-.905-1.725-2.427-1.882-3.433a7 7 0 0 0 -.096-.556 3.1 3.1 0 0 1 -.45-1.033c-.185-.596-.196-1.118-.185-1.5-.837-.804-1.18-1.736-1.415-2.388-.08-.202-.175-.483-.236-.567l-.118-.113-.056-.078c-.854-1.079-1.337-2.36-1.337-3.506 0-.505-.045-1.073-.08-1.674a25 25 0 0 1 -.095-1.972v-2.247h1.27c.13-.623.393-1.398 1.157-1.977.326-.27.54-.708.55-1.101-.044-.05-.106-.124-.207-.22l-.157-.15-.135-.192c-.944-1.348-1.118-2.977-.534-4.848.191-1.191 1.073-2.034 1.528-2.466l.264-.253.337-.163c.775-.37 1.528-.399 2.112-.404.186-.703.484-1.686 1.377-2.427.814-.697 1.848-.804 2.399-.804 1.174 0 2.146.461 2.68 1.253.769 1.079.988 2.185 1.005 3.185q.183-.363.46-.719c.236-.36.512-.623.73-.825a1 1 0 0 0 .051-.057c.158-.41.135-1.022.096-1.719a10.132 10.132 0 0 1 -3.893-3.6c-1.147-1.838-.917-4.552-.18-6.428l.072-.185.107-.175c.382-.606 1.14-1.331 2.6-1.432-.218-.742-.19-1.45-.168-1.983.012-.135.012-.275.012-.41 0-1.259.68-2.14 1.09-2.669a5 5 0 0 0 .169-.23c.32-.494.297-1.567-.096-2.69l-.045-.13-.028-.135c-.185-.87-.393-1.865-.393-2.932 0-.163-.017-.337-.034-.517-.044-.618-.106-1.388.101-2.185l.444-1.703h4.287l.275.9.033-.107c.259-1.012.658-2.528 2.23-3.427.444-.287.956-.455 1.54-.517a3.03 3.03 0 0 1 -.55-1.73c0-2.922 0-5.933.37-8.888l.388-3.174 2.264 1.079a3.2 3.2 0 0 1 .736-.09c.427 0 .837.101 1.219.281.236.107.623.169 1.151.169.663 0 1.433-.09 2.247-.191a6.21 6.21 0 0 0 .427-.051c-.062-.522-.056-1.14.174-1.786.714-1.877 2.405-2.922 4.658-2.922 1.162 0 2.27.276 3 .506l.162.05.073.034a1 1 0 0 0 .169.011c.118 0 .236-.01.348-.01a41.48 41.48 0 0 1 .601-.876c.23-.58.326-1.31.427-2.08.146-1.095.304-2.331.888-3.556l.017-.039.016-.034c1-1.904 3.006-1.904 3.865-1.904h.012a.4.4 0 0 1 .028-.073c.287-.843.764-2.247 2.36-3.005l.224-.113.253-.056a5.5 5.5 0 0 1 1.31-.146c.32 0 .656.022.977.045.185.011.37.034.539.034.393 0 .78.028 1.112.061.264.017.523.045.775.045.276 0 .349-.033.36-.039l.062-.028.067-.028c.792-.326 1.64-1.135 2.545-2l.118-.107.146-.106c.691-.506 1.545-.764 2.46-.764.95 0 1.826.275 2.467.775.567.365 1.05.753 1.533 1.123.444.349.866.674 1.287.944.528.343 1.208.567 1.989.826.943.32 2.01.674 3.044 1.331l.118.073.107.09c.146.118.623.146 1.135.18.651.045 1.443.095 2.303.354 2.073.477 3.87 1.927 4.943 3.983.646 1.224.64 2.899-.016 5.1l-.012.051-.023.045c-.202.584-.354 1.04-.415 1.45.14.146.275.32.393.528a2.99 2.99 0 0 1 .477 1.494c.023.006.04.017.062.022.186.085.377.163.562.253l.14.062.113.079c.736.46 1.157 1.106 1.286 1.927.253.23.433.449.54.584l.196.185.169.326c.196.376.314.758.376 1.101l1.78-.562v2.191c1.714 1.815 1.186 4.118.799 5.82-.124.545-.253 1.112-.287 1.556 1.04.365 1.91.871 2.69 1.332.956.561 1.714 1.005 2.529 1.078h.54l.117.017c1.421.135 2.932.191 4.893.191.826 0 1.657-.011 2.489-.017a202 202 0 0 1 2.623-.022c1.124 0 2.326.264 3.303.736.697.326 1.292.741 1.81 1.106.387.264.752.523 1.083.691.27.09.669.107 1 .107.208 0 .422-.011.635-.017q.37-.01.747-.01c.658 0 1.512.038 2.394.32l.528.168.387.365c.292.28 1.017.96 1.18 1.989.388 1.314.388 2.55.388 3.651 0 .899 0 1.686.207 2.326.259.618.523 1.258.792 1.977.326.135.73.337 1.09.68l.27.259.168.325c.427.815.332 1.601.276 2.073-.012.085-.028.169-.028.253 0 .309-.023.63-.05.955a12.99 12.99 0 0 0 -.035.523l1.466 1.404-1.786 1.584a3 3 0 0 1 -.46.332 5 5 0 0 1 -.023.292c-.05.898-.101 1.674.1 2.398.518 1.49 1.338 3.933.197 6.124-.69 1.297-2.067 1.399-2.791 1.404 0 .259.028.584.044.843.045.584.101 1.247.028 1.944-.005.073-.012.162-.016.252q0 .075-.012.152a3.7 3.7 0 0 1 1.112-.163c1.011 0 1.887.348 2.45.966.825.72 1.184 1.64 1.426 2.27l.09.213q.044.12.095.23l.057.113c.6 1.348.415 2.68.286 3.646a6 6 0 0 0 -.095.887v2.242h-.725c-.045.983-.101 2.202-.691 3.477l-.624 1.337h-.915a2.6 2.6 0 0 1 -1.028.208c-.41 0-.81-.09-1.157-.27.747.984.938 2.248.505 3.495l-.05.151-.074.146c.012 0 0 .175-.005.304a6.4 6.4 0 0 1 -.163 1.224l-.157.607-.236.225q-.126.212-.27.382c-.073 1.253-.308 1.831-.842 2.337l-.427.399-.579.157c-1.415.382-2.966.562-4.904.562a46 46 0 0 1 -1.5-.028 97.776 97.776 0 0 0 -.23 1.724c-.281 2.13-.236 4.32-.186 6.635.057 2.264.107 4.6-.163 6.938l-.23 1.994h-.921q-.066.144-.124.253l-.354.668-.584.287c-.101.489-.123.955-.056 1.32.039.247.87.758 1.421 1.101 1.04.64 2.326 1.433 3.152 2.78.264.456.657.86 1.112 1.321.584.601 1.292 1.32 1.831 2.28.478.287 1.242.81 1.59 1.793.36 1.022.242 2.017.157 2.747a7 7 0 0 0 -.05.534c.314.533.584 1.022.86 1.505.297.523.589 1.045.926 1.607l.073.118.056.134c1.186 2.725.815 5.697.287 7.708l-.034.13-.044.117c-.158.41-.163.831-.152 1.545.005.517.022 1.1-.068 1.752a.64.64 0 0 0 .045.32c1.568 1.495 2.32 3.736 2.045 6.124l-.191 1.584c.073.18.123.371.169.568.505.028 1.078.095 1.674.32l.37.146c.22.084.461.18.68.253l.315-.152a2.9 2.9 0 0 1 1.1-.287 3.25 3.25 0 0 1 2.59-1.241c.383 0 .697.062.933.101.045.005.09.017.14.022 1.326.023 2.5.9 2.871 2.017.214.528.27 1.028.298 1.41.225.169.489.343.77.523.578.365 1.236.786 1.837 1.354l.163.157.123.185c.831 1.191.87 2.899.124 4.135-.186.41-.186 1.017-.186 1.713 0 .455 0 .966-.062 1.489.101.208.371.59.556.854.332.472.714 1.011.99 1.623.589 1.259.64 2.466.696 3.523.017.556.039 1.078.14 1.567l.017.056.005.062c.506 3.37.354 6.6.202 9.724-.118 2.568-.23 4.989-.012 7.483l.005.045v.04c.14 2.904.073 6.106-.196 9.555l.64.865c1.82 2.483 1.27 5.129.899 6.87-.034.158-.034.32-.05.484-.068.78-.192 2.235-1.534 3.196l-.169.124-.197.09c-.09.044-.185.084-.27.123-.572 1.22-1.09 2.388-1.5 3.55-.201.596-.111 1.484-.022 2.41.118 1.158.248 2.472-.09 3.854l-.674 2.781-1.309-.63a43.502 43.502 0 0 1 -1.983 1.529c-1.584 1.174-2.954 2.196-3.893 3.696-.971 1.832-2.146 3.388-3.28 4.904-.832 1.107-1.618 2.152-2.31 3.276-.685 1.106-1.707 1.719-2.527 2.213-.27.157-.686.416-.888.584 0 .04-.005.085-.005.124-.028.505-.067 1.27-.494 2.09l-.096.18-.129.162c-.326.416-.54.815-.64 1.185l-.034.147-.062.14c-.809 1.933-1.337 3.955-1.899 6.095-.567 2.157-1.146 4.388-2.056 6.573-.348 1.14-.994 2.494-1.915 4.028l-.028.05-.034.051c-.932 1.388-1.955 2.579-2.938 3.73a51 51 0 0 0 -1.747 2.113c1.399-1.096 3.595-2.326 6.135-2.326 1.865 0 4.426.668 6.679 3.595 1.623-.415 4.011-.943 5.713-.943 2.315 0 3.236 1.005 3.607 1.859.831 1.927-.865 3.635-1.601 4.342l.151.04.253.118c.77.365 1.157.943 1.343 1.533.573-.151 1.174-.28 1.77-.28h2.353v2.252q0 .252.017.528c.04.77.084 1.82-.326 2.87a3 3 0 0 1 -.416.754l-.241.314-.337.214c-16.758 10.836-34.223 15.645-43.138 17.555l-.27.05c-.646.118-1.298.237-1.95.343l-2.938.45.096-1.225a130 130 0 0 1 -10 1.41l.191 1.146-2.527.202c-4.062.315-8.146.478-12.129.478zm0 0" fill="#fff" fill-rule="evenodd"/><path d="m202.964 68.882c1.231-.292 1.647.854 2.456 1.578-.837-.354-1.674-.69-2.517-1.022-.062-.214.062-.556.062-.556m8.151-14.595c-.69-.663-.348-1.82-.348-2.815 0-.5.174-1 0-1.33-.343-.332-1.208-.332-1.388-.827a41.359 41.359 0 0 0 -1.039-2.657c-.696-1.983 0-4.14-.696-6.297 0-.332-.343-.663-.517-.832-1.562-.5-3.466.169-5.028-.5-1.05-.494-1.91-1.32-2.955-1.82a5.6 5.6 0 0 0 -2.253-.5c-3.471 0-6.77.169-10.24-.163h-.523c-2.427-.163-3.989-1.988-6.247-2.651-.523-.332-1.04-.832-1.208-1.495-.18-2.157 1.59-4.943 0-6.466-.18-.168-.528-.168-.528-.5-.517.169-.865 0-1.213-.325-.523-.669-.349-1.663-.691-2.326-.175-.169-.523-.832-1.22-.663 0-.494.349-1.163-.174-1.494-.69-.332-1.387-.495-1.904-1.163-.18-.495.174-.989-.18-1.483-.168-.337-.517-.337-.685-.669-.18-1.157.168-2.157.517-3.151.348-1.158.623-2.618.168-3.478-.685-1.331-1.904-2.488-3.471-2.82-1.557-.494-3.118 0-4.337-.994-1.562-1-3.466-1.163-5.028-2.157-1.045-.663-1.91-1.495-2.944-2.157-.354-.332-1.393-.5-2.09 0-1.045.994-2.084 1.988-3.297 2.488-1.04.495-2.259.169-3.298.169-.696 0-1.556-.169-2.253 0-1.044.494-1.044 1.657-1.561 2.651-.865 1.326-2.955 0-3.646 1.326-.87 1.82-.517 3.977-1.388 5.803-.522.663-1.219 1.989-1.736 1.989-.865 0-1.735.168-2.432-.163-1.556-.5-3.989-.832-4.68.994-.348.989.517 2.152 0 3.146-2.432 0-5.348.933-7.291 0-.349-.163-.871.337-1.214.169-.348 2.82-.348 5.803-.348 8.623 0 .331.197.623.522.826 1.04.668 1.04 2.488.169 2.988-.691.495-2.079-.168-2.77.332-1.567.831-.87 3.314-2.432 4.146-.865.494-2.601.494-3.123-1.163h-.697c-.169.663 0 1.494 0 2.151 0 .837.174 1.663.348 2.495.523 1.488.697 3.314-.174 4.64-.343.494-.87.994-.87 1.657 0 .831-.17 1.663.348 2.32h.348c.348.669.348 1.826 0 2.157-.865.663-2.95-.331-3.472.5-.517 1.326-.719 3.332 0 4.478 1.045 1.657 2.438 2.645 4.169 3.314 0 1.494.348 2.989-.349 4.314-.174.326-.696.663-.865.99-.663.757-.59 1.735-.843 2.578a136.32 136.32 0 0 0 -3.758 1.443c-1.045-2.185.68-4.494-.78-6.505-.175-.331-1.208-.331-1.562 0-.871.663-.517 2.483-1.562 2.82-.691.326-1.736 0-2.427.326-.348.337-.87.831-.87 1.331-.349.995-.523 2.152.173 3.146.349.337.793.837.871 1.332.012.078.012.163.017.247.073 1.1-.438 2.297-1.41 3.067-.691.5 0 2.489-1.562 2.489 0 1.157.18 2.483.18 3.646 0 .663.348 1.494.865 2.157.865.826.691 2.32 1.91 3.151.691.663.174 1.49.517 2.32 0 .332.348.5.348.663.349 1.163.191 2.467 1.04 2.983 1.91 1.163 3.994-.163 5.898.663.523.169 1.045.332 1.742.669 1.561.826 1.033 3.151.516 4.471-.516.995-1.741 1.203-2.606.995-.691-.163-1.382 0-2.079-.332-.69-.331-1.736-.331-2.432 0-1.214.663-1.214 1.989-2.079 2.82-.174.332-.348.663-.348.832-1.04 3.977.663 7.954 0 11.769-.174 1 0 1.989-.517 2.82-.174.331-1.045 0-1.567.331-.517.5.174 1.495-.174 1.663-1.556.826-3.292.495-4.854.163 0-.163-.348-.163-.348-.494 0 .163-.174.494-.349.331-.865-1.331.175-2.325 1.214-3.151.348-.169.87-.169 1.213-.5.697-.495 1.742-.495 2.09-1.163.348-.657.348-1.82 0-1.989-1.045-.494-2.78-.163-4.168-.163 0-.994-.697-1.825-.865-2.82-.523-1.657.342-3.483-.523-5.14-.522-1.163-.87-2.489 0-3.483.343-.331 1.388-.163 1.562-.331.522-.995 0-2.32.343-3.478 0-.337.18-1 .696-.837 0-.994.348-2.483-.348-2.983-.691-.494-2.079-.163-2.775-.994-.523-.5-.837-2.09-1.214-1.989-1.213.332-1.045 1.826-1.045 2.652 0 .5.697 1 .871 1.494.174 0 .348.163.523.163.342.337.342.831.69 1.163.175.331.871.331 1.04.663q.27 1.002 0 1.988c-.343.663-1.214.332-1.905.332-.174 0-.174-.163-.174-.332h-.348c-.343-1.988-2.079-3.977-4.163-2.983-.174.169-.696.495-.87.826-.866.669-2.08.837-2.602 1.663-.174.494-.174 1.326 0 1.326 1.388.494 3.13-.169 4.511.331.523.163.871 1.163 1.045 1.989.242 1.163.259 2.404-.134 3.646-.388 1.247-.523 2.241-.91 3.488a7.372 7.372 0 0 1 -1.433 2.607c-.517.376-.78 1.37-.393 1.989.135.376.786.376 1.303.5.652.252.264.994.652 1.494.612.775.129 2.112.129 3.236-1.562.618-3.253.618-4.814.247-.259-.13-.394-1-.652-1.494-.258-.748.135-1.495-.124-2.242-.393-.87 0-1.865 0-2.86 0-1.87-3.646 1.119-4.82 2.49-1.168 1.117-1.039 2.735-1.432 4.23-.259 1.612.264 3.106-.259 4.724-.387 1.365-.915 2.736-.915 4.107-.259 2.859-.382 5.595 0 8.454q.195 1.675.786 3.36c.742 2.123-.258 4.6.259 7.09.393 1.611.646 2.976.915 4.594 0 .253.13.624.259.871.387.747.387 1.618.258 2.365-.129.618-.786.995-1.04 1.618-.392.994-.134 1.865-.263 2.86-.152 1.174-.22 2.325.13 3.482.347.995.87 1.99.87 3.152 0 4.64 0 9.117.696 13.763.343 2.652-.696 5.14-.522 7.792.202 3.152 3.646 4.809 5.724 7.123a9.72 9.72 0 0 1 2.259 8.63c-.18.825-1.91.493-2.259 1.156-.87 1.826-.87 4.478.697 6.303.152.186-.174.663 0 .832 1.562 1.988 2.079 4.146 3.466 6.297.348.669.702 1.495 1.393 1.989 1.214.831 2.775 1.331 3.118 2.651.348.5.174 1.332.348 1.832.523.826 1.214 1.489 1.91 2.32.349.494.175 1.157.175 1.657.522 3.815-.175 7.798.174 11.606 0 .169.348.495.517.663.522 2.326 0 4.478.18 6.798.196 2.657-2.085 5.14-4.512 6.803-1.91 1.325-4.348.163-6.595.988-2.432.837-2.95 3.815-5.382 4.646a3.8 3.8 0 0 1 -.898.259l-8.72 9.078c4.282 3.887 17.292 14.465 38.673 21.29 7.078 2.158 14.432 3.787 21.875 4.91 9.213 1.248 19.438 1.641 30.645.765-.056-.32 1.073-.034 1.017-.438 4.808-.394 8.252-.545 13.55-1.646 0 .471.466-.298.427.123.702-.106 1.393-.241 2.084-.37 8.32-1.776 25.729-6.483 42.33-17.213a.5.5 0 0 0 .095-.174c.348-.832.174-1.82.174-2.657-1.388 0-3.994 1.505-3.994.174 0-.669.18-1.5-.169-1.663-2.258-.495-4.511-.495-6.421.663-1.213.663 0 2.651-1.213 3.314-.523.337-1.394.337-1.91 0-.63-.6-1.113-1.073-1.45-1.775-.017-.534-.033-.86-.033-.86 2.337.281 9.937-5.022 9.937-5.022 4.966-4.747-7.016-1.123-7.016-1.123-4.382-7.534-10.522-2.23-11.404-1.113-.87 1.113-4.96 2.787-4.96 3.905 0 1.123-.585 7.539-3.506 7.82-2.927.28 0-7.54 0-7.54.472-.718.511-1.645.354-2.572.005-.005.017-.005.028-.005 2.253-1 3.96-3.174 5.382-5.14 1.561-2.158 3.466-3.99 5.033-6.304.697-1.162 1.388-2.488 1.73-3.651 1.742-4.146 2.259-8.618 3.995-12.763.174-.663.522-1.332 1.039-1.99.348-.668.174-1.33.348-1.988.697-1.494 2.815-1.803 3.646-3.151 1.736-2.82 3.989-5.146 5.55-8.13 1.736-2.814 4.517-4.145 6.944-6.297 0-.168.348-.668.696-.5.517-2.157-.522-4.477.174-6.466.517-1.494 1.214-2.983 1.91-4.477.169-.331.686-.331 1.04-.5.69-.494.517-1.494.69-2.32.349-1.657.697-3.483-.522-5.14h-.348c-.348-.169-.348-.494-.174-.663l-.343.331c-.174 0-.343 0-.343-.162.343-3.652.512-7.466.343-11.112-.517-5.803.697-11.275-.174-17.084-.343-1.651 0-3.146-.69-4.64-.523-1.163-1.894-2.32-1.737-3.483.174-1.326-.174-2.82.523-4.14.342-.5.342-1.326 0-1.826-.871-.831-2.085-1.326-2.955-2.157-.517-.331-.174-1.326-.517-1.989 0-.168-.354-.5-.697-.5-.696 0-1.387-.5-1.91.5a2.307 2.307 0 0 1 -.517.663c-.353.163-.87-.168-1.213 0-.18.163-.348.163-.348.495-1.045.168-2.084-.332-2.95-.663-.87-.332-2.084 0-2.949-.495-.18 0-.236-.5-.18-.831.18-.994-.342-1.657-1.382-1.326-.18-.994.343-1.989 1.382-2.157.18-1.489-.174-3.152-1.382-4.309-.528-.494-.803-1.32-.696-2.157.168-1.326-.174-2.483.343-3.809.522-1.994.696-4.314-.175-6.309-.69-1.157-1.213-2.151-1.904-3.314-.522-.826.225-2.337-.174-3.483-.174-.494-.87-.663-1.214-.994-.696-1.658-2.258-2.483-3.129-3.978-1.213-1.988-4.466-2.443-4.859-4.645-.169-.995 0-2.152.354-3.146 0-.163.522-.337.86-.5a2.9 2.9 0 0 0 .348-1.326c.18-.163.348-.163.696-.163.528-4.483-.236-9.129.349-13.6.18-1.326.348-2.49.522-3.81 2.601.164 5.382.327 7.809-.336.174-.163.174-1.989.174-1.989.517.169.517-.331.696-.5.169-.663 0-1.326.343-1.989.174-.494.174-1.163-.343-1.657-.528-.663-1.393-.994-1.741-.494-.348.326-.174 1.157-.174 1.82-.865-.332-2.944.331-2.944-.994h-.174c.174-.826-.174-1.826.517-2.82.517-.495.348-1.49-.343-1.99-.522-.162-1.04 0-1.567 0h-.523c-.516-.83-.342-1.825.174-2.65.175-.332 1.214-.332 1.568-.5 1.556-.164 3.988-.664 4.68.83.348.664-.343 1.99-.17 2.984 1.388-.163 2.95-.163 3.815.668.174.163.349-.168.523-.168.696-1.495.348-2.989.696-4.478.349.163.174-.331.523-.331 0-1.163.517-2.489 0-3.646-.073-.135-.13-.275-.191-.421-.247-.618-.467-1.337-1.028-1.736-.174-.332-1.045-.332-1.214-.169a2.4 2.4 0 0 0 -.28.686 142 142 0 0 0 -3.871-1.736c.309.022.646-.011.854-.107.342-.331.297-1.168.342-1.657.175-1.663-.69-3.652.871-4.646.697-.331 1.91 0 2.084-.331.691-1.326.169-2.983-.348-4.478-.517-1.825 0-3.483-.174-5.308.798.376 1.213 0 1.213 0" fill="#fac705" fill-rule="evenodd"/><g fill="#0a0c11"><path d="m119.144 283.938h-.197c-.73-.012-1.304.27-1.703.837q-.52.8-1.05 1.59c-.534.579-1.32.865-2.376.865-.686 0-1.292-.151-1.826-.443-.017-.141.146-.22.477-.22q1.644 0 3.186-1.258c.752-.618 1.28-1.23 1.59-1.848.393-.781 1.022-1.14 1.898-1.073.208 0 .326.067.365.208 0 .387-.118.837-.365 1.342"/><path d="m119.144 283.933v-.09zm-5.326 3.207c1.033 0 1.797-.28 2.297-.825q.53-.784 1.05-1.585c.41-.595 1.012-.887 1.765-.887h.157c.22-.472.332-.893.332-1.225-.028-.09-.085-.135-.287-.14-.067-.005-.124-.012-.191-.012-.742.005-1.258.331-1.612 1.033q-.482.951-1.613 1.877c-1.044.848-2.129 1.28-3.247 1.28-.252 0-.348.045-.376.085.506.264 1.073.399 1.725.399m-1.871-.276-.04-.028-.004-.039s-.005-.012-.005-.033c.012-.23.253-.287.573-.287 1.067 0 2.106-.41 3.123-1.241q1.113-.912 1.568-1.815c.365-.747.977-1.135 1.78-1.135.068 0 .14.005.203.012.224-.005.41.09.46.298q.002.608-.376 1.376l-.022.051h-.276c-.696.005-1.224.264-1.606.803-.349.528-.697 1.062-1.062 1.601-.55.596-1.376.894-2.444.894-.702 0-1.32-.158-1.87-.455"/><path d="m124.834 278.77a1.44 1.44 0 0 0 -.77-.219q-.869 0-1.494.837c-.416.55-.612 1.135-.59 1.747l.017.202c1.286-.797 2.236-1.651 2.837-2.567m1.067 3.618q-.203.464-.533 1.55h-2.203q-1.382-.001-1.865-.736a13 13 0 0 1 -.92.461c-.35.14-.608.225-.765.247-.152.017-.483.028-.977.028.117-.258.286-.78.528-1.55q.835-.002 1.09-.062.33-.092.904-.545.664-2.013.663-3.14-.002-.658-.18-1.82-.203-1.216-.404-1.781c-.22.539-.332 1.387-.354 2.55-.017 1.152-.135 2.006-.349 2.55l-.062-.117-.044-2.568c-.04-2.235.404-3.898 1.314-4.971.242.286.46 1.224.669 2.797.174 1.394.258 2.41.23 3.05q.968-1.212 2.13-1.213c.465 0 .859.18 1.173.528-.6 2.062-1.651 3.64-3.157 4.753.079.05.169.068.281.04.191-.029.292-.051.309-.051zm0 0"/><path d="m122.644 279.444q-.574.76-.574 1.596c0 .033 0 .056.005.09v.05c1.18-.747 2.05-1.545 2.63-2.382a1.3 1.3 0 0 0 -.641-.157c-.545.005-1.017.258-1.422.803m-.741 1.9-.017-.197v-.107c0-.596.202-1.169.607-1.702.427-.579.96-.877 1.573-.877.298 0 .573.073.82.23l-.05.08.05-.08.079.051-.051.079c-.612.927-1.573 1.792-2.865 2.595l-.14.085zm-.523 1.808c.287.455.871.691 1.787.691h2.129q.28-.902.466-1.365h-2.382c-.005 0-.106.022-.286.05-.05.006-.09.017-.13.017a.4.4 0 0 1 -.23-.073l-.1-.073.095-.067c1.477-1.09 2.517-2.64 3.118-4.663a1.43 1.43 0 0 0 -1.073-.466c-.742 0-1.422.387-2.056 1.18l-.174.219.005-.276v-.252c0-.64-.074-1.562-.23-2.776-.175-1.404-.383-2.308-.58-2.662-.808 1.016-1.224 2.539-1.224 4.584 0 .078.005.151.012.236l.028 2.32q.21-.784.236-2.191c.022-1.163.14-2.017.354-2.579l.09-.236.09.242c.14.388.275.977.41 1.798.118.775.18 1.382.18 1.83 0 .77-.22 1.815-.692 3.209-.387.309-.696.494-.943.561-.18.045-.528.062-1.04.062-.196.64-.348 1.096-.466 1.371.421 0 .702-.012.832-.022.14-.023.387-.101.73-.236q.615-.285.91-.461l.084-.045zm1.787.876c-.899 0-1.54-.23-1.899-.707-.208.117-.489.258-.854.42-.36.147-.612.226-.78.254-.175.022-.495.033-.995.033h-.146l.056-.129c.113-.247.287-.764.528-1.54l.017-.061h.073c.55 0 .916-.028 1.062-.062.197-.05.494-.225.843-.483.443-1.337.657-2.382.657-3.112 0-.433-.062-1.04-.18-1.81-.107-.628-.208-1.134-.314-1.5-.152.529-.242 1.282-.253 2.26-.023 1.162-.14 2.016-.354 2.583l-.079.191-.095-.19-.073-.152-.051-2.562v-.242c0-2.129.438-3.73 1.348-4.791l.079-.096.067.096c.264.331.472 1.264.68 2.842.157 1.225.236 2.152.236 2.798.612-.686 1.292-1.04 2.034-1.04.488 0 .915.191 1.247.562l.033.034-.012.045c-.59 2.01-1.6 3.572-3.05 4.69.017 0 .033-.005.062-.012.19-.028.275-.05.326-.05h2.522v.09-.09h.14l-.056.129c-.129.292-.309.809-.534 1.534l-.022.067zm0 0"/><path d="m129.694 276.276q-.067.12-.933 1.174c-.146-.056-.332-.197-.55-.41a8 8 0 0 0 -.523-.478q-.33.345-1.011.995-.303-.159-1.101-.916a2.96 2.96 0 0 1 1.039-1.202q.22.11.517.438c.236.253.393.404.477.477q.229-.17.5-.516c.242-.298.393-.478.483-.557.281.208.652.54 1.101.995m-.309 3.966c0 .343-.241 1-.724 1.994-.59 1.225-1.854 1.798-3.77 1.702.023-.264.191-.78.495-1.55q1.365-.069 1.685-.13c.646-.112 1.14-.359 1.494-.746a1.3 1.3 0 0 0 -.208-.658q-.356.37-.786.371a1 1 0 0 1 -.259-.05.94.94 0 0 1 -.207-.585c0-.236.151-.618.449-1.13q.448-.774.736-.774.362-.002.725.578c.247.382.37.72.37.978"/><path d="m126.665 277.444c.427-.41.747-.724.95-.943l.056-.062.073.044c.09.074.259.23.534.495.18.18.337.298.455.365.46-.562.741-.927.837-1.056a10 10 0 0 0 -.972-.888c-.084.101-.225.259-.416.495a3 3 0 0 1 -.517.528l-.067.045-.05-.045a9 9 0 0 1 -.484-.484 2.1 2.1 0 0 0 -.444-.393 2.883 2.883 0 0 0 -.932 1.073c.455.433.78.702.977.826m-.033.191c-.225-.118-.585-.421-1.124-.932l-.045-.045.028-.057c.23-.494.585-.91 1.073-1.236l.045-.033.057.028c.162.079.337.236.533.455.18.196.326.331.41.416.124-.102.27-.253.422-.45.241-.298.398-.483.494-.567l.05-.057.068.051c.298.214.669.545 1.118 1.006l-.067.062.067-.062.05.045-.038.061c-.057.09-.36.472-.939 1.186l-.044.05-.068-.022c-.168-.067-.354-.213-.578-.427-.208-.197-.36-.343-.45-.421-.213.236-.534.54-.95.932l-.056.051zm-1.332 6.219c1.663-.005 2.736-.556 3.275-1.657.478-.99.72-1.652.714-1.95 0-.241-.118-.556-.354-.932-.242-.382-.466-.545-.646-.545-.107-.012-.37.213-.657.73-.298.506-.439.888-.439 1.096 0 .185.068.353.152.488.096.04.174.051.225.051.258 0 .489-.112.719-.348l.079-.085.067.107c.13.197.202.433.225.697v.033l-.028.028c-.365.405-.882.669-1.545.781-.22.04-.758.084-1.64.124q-.381.978-.45 1.376.151.006.304.005m0 .18q-.204 0-.416-.012h-.101l.012-.096c.028-.286.196-.797.494-1.573l.023-.05.067-.005c.91-.045 1.477-.085 1.668-.124.618-.106 1.085-.342 1.416-.69a1.3 1.3 0 0 0 -.129-.484 1.13 1.13 0 0 1 -.764.315.7.7 0 0 1 -.331-.09 1 1 0 0 1 -.23-.63c0-.28.162-.662.46-1.185.309-.517.54-.797.82-.82.298.005.556.236.803.624.253.399.382.736.382 1.033 0 .371-.247 1.028-.73 2.023-.562 1.174-1.736 1.764-3.432 1.764zm16.341-5.145h-6.736v-.657h6.736zm0 0"/><path d="m135.002 278.804h6.545v-.478h-6.545zm6.64.09v-.09zm-6.831.09v-.843h6.927v.843zm19.898-4.433q-.068.11-.944 1.174c-.14-.05-.32-.19-.55-.404-.264-.275-.444-.433-.523-.483q-.321.338-.989.988c-.213-.1-.584-.41-1.118-.915a3 3 0 0 1 1.04-1.197c.146.084.32.225.517.438.236.242.398.405.488.472.152-.118.315-.286.5-.517.242-.292.394-.466.467-.539.292.197.657.523 1.112.983m.989 7.837v.112q.023.615-.416 1.433h-.393q-1.07 0-1.489-.81c-.191-.398-.303-1.005-.315-1.814a.36.36 0 0 0 -.303-.157c-.472 0-.882.343-1.23 1.017-.253.629-.5 1.258-.759 1.882-.275.685-.567 1.022-.87 1.022-.601 0-1.057-.567-1.36-1.708a9.8 9.8 0 0 1 -.314-2.488c0-1.736.606-2.955 1.825-3.674q.532-.304 1.393-.304c.147 0 .371.005.669.023.298.012.511.022.652.022.612 0 1.1-.123 1.443-.365q-.094.573-1.174.725-.328.04-1.516.039c-.916 0-1.618.342-2.107 1.017q-.657.916-.657 2.415-.001.827.275 1.646c.264.72.595 1.073 1.022 1.073.225 0 .495-.337.804-1 .505-1.09.814-1.713.915-1.882.422-.68.871-1.016 1.36-1.016.292 0 .455.14.5.42.005.018.012.282.012.787q0 1.575 1.618 1.585zm0 0"/><path d="m151.681 275.714c.427-.41.736-.725.938-.944l.056-.056.068.05c.101.068.27.22.54.495.185.174.342.292.454.354.46-.562.753-.916.854-1.056-.399-.393-.725-.686-.983-.87-.084.089-.213.246-.404.477a3.6 3.6 0 0 1 -.512.528l-.062.039-.056-.04a6 6 0 0 1 -.511-.482 2.3 2.3 0 0 0 -.438-.388 2.95 2.95 0 0 0 -.927 1.067c.455.433.792.708.983.826m-.022.191c-.236-.118-.607-.421-1.14-.932l-.052-.04.028-.056c.236-.5.596-.91 1.073-1.241l.051-.034.056.034c.163.09.332.241.534.449q.278.296.421.416a3.4 3.4 0 0 0 .427-.45c.236-.292.388-.472.478-.55l.05-.051.068.045c.292.196.669.533 1.124.988l-.062.068.062-.068.05.057-.039.056c-.05.09-.365.472-.944 1.185l-.044.045-.068-.022c-.163-.062-.354-.202-.584-.427-.202-.202-.36-.343-.444-.421-.22.23-.528.539-.938.932l-.05.045zm-.955 8.112c.258-.624.505-1.247.764-1.888.353-.69.786-1.061 1.308-1.061.158-.012.293.062.4.236.016.809.123 1.404.308 1.78.27.512.714.759 1.405.759h.331c.259-.489.377-.921.377-1.287v-.078h-.315c-1.112 0-1.72-.596-1.713-1.674q.009-.744-.005-.77c-.051-.258-.163-.343-.41-.354-.439 0-.866.31-1.281.978-.096.157-.405.786-.91 1.865-.32.674-.568 1.039-.894 1.061-.488-.005-.848-.41-1.106-1.134a5.3 5.3 0 0 1 -.281-1.68c0-1.006.224-1.831.674-2.46.505-.703 1.247-1.062 2.185-1.057.792 0 1.298-.012 1.506-.039.522-.073.842-.22.994-.421-.337.163-.758.241-1.253.241-.146 0-.36-.012-.657-.028a18 18 0 0 0 -.663-.017c-.567 0-1.011.096-1.348.293-1.185.702-1.775 1.882-1.78 3.595q0 1.28.32 2.466c.297 1.135.735 1.646 1.263 1.646.22.005.517-.286.781-.972m-2.23-.629a9.8 9.8 0 0 1 -.326-2.511c0-1.753.624-3.017 1.876-3.747q.567-.32 1.444-.32.219 0 .674.016.445.027.646.028c.596 0 1.062-.117 1.388-.353l.18-.13-.028.22c-.073.443-.528.702-1.259.803-.23.028-.73.034-1.528.034-.887.005-1.556.331-2.033.983-.422.59-.64 1.382-.64 2.359 0 .545.095 1.084.274 1.624.253.707.573 1.01.927 1.01.13.023.427-.291.72-.949.51-1.09.814-1.707.926-1.893.427-.685.9-1.062 1.439-1.062.32-.005.55.191.59.49.016.072.011.291.016.814.012 1.022.478 1.472 1.523 1.494h.415v.09-.09h.096v.258c0 .422-.152.888-.511 1.467h-.394c-.736.005-1.286-.287-1.573-.865-.202-.416-.309-1.028-.314-1.804-.057-.084-.118-.112-.225-.112-.41 0-.792.298-1.14.96-.253.624-.5 1.259-.753 1.877-.287.69-.573 1.073-.96 1.079-.68 0-1.147-.624-1.45-1.77"/><path d="m158.961 275.551c-.353.528-.69.933-1.005 1.202-.157-.095-.343-.27-.562-.5a10 10 0 0 0 -.54-.556q.137-.254 1.04-1.241c.163.1.343.27.55.51q.39.474.517.585m.343 4.697c0 .337-.247.994-.725 1.988-.6 1.225-1.853 1.798-3.769 1.702.022-.27.185-.78.483-1.55.916-.04 1.483-.09 1.691-.13.652-.112 1.146-.359 1.5-.746a1.4 1.4 0 0 0 -.214-.658c-.23.247-.5.371-.78.371a.9.9 0 0 1 -.259-.05.93.93 0 0 1 -.208-.585c0-.236.146-.612.45-1.13.292-.516.54-.774.736-.774q.354-.002.724.578c.248.388.371.72.371.983"/><path d="m157.462 276.186c.185.208.353.354.488.455.281-.258.573-.612.888-1.073-.096-.107-.253-.28-.466-.545a2.7 2.7 0 0 0 -.467-.444c-.5.545-.82.922-.932 1.096.095.1.264.27.489.51m.438.641a3.5 3.5 0 0 1 -.579-.51 8 8 0 0 0 -.534-.557l-.05-.05.028-.057c.106-.191.455-.601 1.056-1.258l.05-.057.074.045q.261.162.573.534c.264.309.432.505.51.578l-.067.062.068-.062.05.045-.039.062c-.36.534-.696.938-1.022 1.22l-.056.05zm-2.686 7.028c1.669-.005 2.736-.556 3.281-1.657.478-.983.714-1.652.714-1.955 0-.236-.118-.55-.36-.927-.236-.388-.466-.545-.64-.54-.113-.016-.371.209-.663.725-.292.512-.433.888-.427 1.096a.96.96 0 0 0 .14.494c.101.034.18.045.23.045.254 0 .49-.107.714-.348l.084-.079.062.095q.201.306.225.703l.005.033-.028.028c-.37.405-.893.669-1.55.781-.22.04-.759.084-1.64.124-.254.646-.4 1.112-.45 1.376q.16.006.303.005m0 .18q-.203 0-.416-.012h-.1l.016-.096c.028-.286.197-.803.489-1.573l.022-.05.062-.005q1.375-.069 1.68-.13c.612-.1 1.084-.337 1.416-.685a1.3 1.3 0 0 0 -.135-.483 1.1 1.1 0 0 1 -.759.315.8.8 0 0 1 -.337-.09 1 1 0 0 1 -.224-.63c0-.28.151-.651.46-1.18.304-.516.534-.803.82-.825.293.005.551.23.804.624q.38.597.382 1.028c-.005.376-.253 1.033-.73 2.028-.574 1.174-1.73 1.764-3.422 1.764zm6.764-8.504a4.04 4.04 0 0 0 -.033.606c0 .203.005.495.039.894.017.393.033.69.033.893 0 1.562-.123 2.618-.36 3.157h-.106v-.528q.02-.732-.079-2.079-.117-1.44-.117-2.09 0-2.023.724-3.28c.467.399.9 1.365 1.31 2.904.359 1.37.539 2.478.539 3.309 0 1.483-.293 2.668-.882 3.567q-1.022 1.561-3.045 1.562-.413 0-.882-.068.178-.186.6-.348c.35-.118.563-.208.658-.27.905-.6 1.567-1.14 1.983-1.612q.984-1.105.983-2.354.002-.92-.51-2.185c-.282-.696-.574-1.387-.855-2.078"/><path d="m161.888 275.562.085-.033zm-1.887 8.792c1.32-.005 2.297-.506 2.96-1.522.579-.877.871-2.04.871-3.517q0-1.239-.54-3.286c-.376-1.427-.786-2.365-1.19-2.781q-.65 1.204-.652 3.135.002.64.112 2.084.085 1.093.085 1.792v.595c.174-.562.275-1.545.275-2.932 0-.197-.017-.495-.04-.893a13.95 13.95 0 0 1 -.038-.894q0-.336.039-.623l.045-.337.134.326.854 2.072c.343.854.517 1.59.517 2.22 0 .853-.331 1.662-1.006 2.41-.42.483-1.09 1.022-2.005 1.629-.107.073-.32.163-.669.28a2 2 0 0 0 -.41.203c.225.022.45.039.658.039m0 .18q-.42 0-.9-.068l-.162-.028.107-.118c.134-.146.348-.264.646-.376.337-.118.556-.214.623-.258q1.365-.902 1.972-1.602c.64-.719.955-1.483.955-2.292 0-.595-.163-1.314-.5-2.151-.236-.579-.472-1.146-.708-1.72v.214q0 .297.034.888c.028.393.039.697.039.899 0 1.573-.118 2.623-.36 3.196l-.022.057h-.264v-.916a28.3 28.3 0 0 0 -.084-1.781 28 28 0 0 1 -.113-2.095c0-1.36.236-2.472.725-3.32l.056-.101.096.073c.494.427.921 1.404 1.337 2.949.36 1.376.545 2.483.545 3.331 0 1.495-.304 2.697-.899 3.612-.697 1.068-1.742 1.607-3.107 1.607zm9.657-.596h-.197c-.736-.012-1.298.27-1.702.837-.349.534-.702 1.062-1.05 1.59-.534.579-1.32.865-2.377.865-.685 0-1.298-.151-1.826-.443-.017-.141.14-.22.478-.22 1.09 0 2.157-.42 3.185-1.258.753-.618 1.28-1.23 1.59-1.848q.591-1.172 1.899-1.073c.202 0 .331.067.365.208 0 .387-.118.837-.365 1.342"/><path d="m169.658 283.933v-.09zm-5.326 3.207c1.034 0 1.792-.28 2.292-.825.354-.523.702-1.056 1.056-1.585.41-.59 1.011-.887 1.77-.887h.146c.224-.472.331-.893.331-1.225-.028-.09-.09-.135-.28-.14q-.103-.006-.197-.005c-.736 0-1.253.326-1.607 1.028-.32.635-.854 1.258-1.612 1.876-1.045.848-2.13 1.28-3.247 1.28-.259 0-.349.046-.377.085a3.73 3.73 0 0 0 1.725.399m0 .18q-1.052 0-1.876-.455l-.034-.028-.012-.04c0-.004-.005-.016-.005-.033.022-.225.258-.292.579-.292 1.067 0 2.106-.405 3.123-1.236.742-.607 1.259-1.213 1.567-1.815.366-.747.978-1.134 1.776-1.129q.108-.001.208.005c.219-.005.404.09.46.298q.002.609-.376 1.376l-.023.051h-.27c-.707.005-1.23.259-1.612.803-.348.534-.702 1.062-1.061 1.601-.545.59-1.365.894-2.427.894zm0 0"/><path d="m173.118 276.747c-.05.063-.343.4-.87 1.029h-.175a52 52 0 0 1 -.977-.955c.399-.579.747-.955 1.056-1.124.202.202.522.495.966.865zm1.096 5.64c.022.226-.034.5-.152.821q-.271.664-.281.73h-.697c-.55 0-.943-.208-1.18-.634-.022 0-.291.106-.797.314q-.757.32-1.404.32c-.13 0-.281-.012-.444-.033.1-.343.23-.843.399-1.517h.915q.49-.008.804-.152c0-.157-.08-.354-.248-.584q-.253-.337-.483-.337a.3.3 0 0 0 -.146.05c-.073.04-.118.057-.151.057l-.045-.017c.067-.421.23-.814.5-1.174.309-.41.651-.618 1.017-.618.37 0 .702.112 1.005.332.332.241.5.545.5.927q0 .219-.286.606c-.197.259-.281.467-.264.618.016.186.348.287 1.005.287q.05-.001.22.005c.09.012.156.012.213 0"/><path d="m172.074 277.686.1.033c.472-.567.759-.893.843-1v-.123a13 13 0 0 1 -.882-.786c-.258.174-.573.5-.921 1 .41.404.713.707.86.876m-.063.157q-.335-.312-.983-.96l-.056-.051.04-.062c.41-.584.763-.966 1.089-1.157l.067-.04.051.057c.197.202.523.494.955.865l.034.022v.264l-.023.028c-.044.051-.337.394-.932 1.056zm-.022 5.416c.225.398.567.584 1.09.584h.629c.039-.112.123-.32.264-.663q.144-.406.146-.685v-.005a1 1 0 0 1 -.13-.012c-.106-.005-.179-.012-.207-.012-.652-.012-1.04-.062-1.096-.349-.012-.033-.012-.056-.012-.062.005-.185.101-.387.287-.634.185-.248.275-.444.27-.55-.005-.355-.152-.624-.467-.86a1.56 1.56 0 0 0 -.95-.31c-.32 0-.64.18-.932.58a2.5 2.5 0 0 0 -.466 1.022q.016-.007.04-.023a.463.463 0 0 1 .19-.056c.208.005.388.14.556.376.175.236.27.444.27.635v.062l-.05.022a2 2 0 0 1 -.585.141.1.1 0 0 1 -.056.017h-1.056a45 45 0 0 1 -.349 1.348c.118.017.225.017.326.017q.623.002 1.371-.31c.455-.179.674-.28.843-.28a.4.4 0 0 1 .073.005m-.085.135c0 .005 0 0-.028.012q-.059.018-.151.062-.201.075-.579.236c-.517.219-.994.325-1.444.325-.14 0-.286-.012-.455-.039l-.106-.017.028-.095c.095-.337.23-.837.387-1.511l.023-.068h.988a2.02 2.02 0 0 0 .708-.118c-.012-.129-.084-.286-.224-.477-.158-.214-.304-.298-.405-.298a.4.4 0 0 0 -.095.04.43.43 0 0 1 -.23.061l-.124-.039.012-.079q.1-.649.522-1.213c.315-.421.68-.657 1.084-.657.388 0 .748.123 1.068.354.354.252.54.595.533 1 0 .185-.106.393-.297.662-.174.225-.253.41-.253.523v.022c0 .084.258.22.916.208.039 0 .112.005.23.012.04.005.079.012.107.012q.04 0 .073-.012l.1-.017.013.101q.006.052.005.113c0 .219-.057.466-.163.747-.174.438-.275.69-.275.708l-.017.078h-.781c-.573 0-1.006-.236-1.169-.635"/><path d="m173.607 283.938-.028-.258a2.1 2.1 0 0 1 .062-.646q.136-.58.146-.646h.224c.58 0 1.14-.191 1.675-.584.6-.427.898-.933.898-1.506 0-.69-.157-1.46-.466-2.32a251 251 0 0 1 -.932-2.163l-.062.034c.012.258.028.753.062 1.517.022.634.039 1.14.039 1.522q.001 1.11-.14 1.977a.23.23 0 0 1 -.147.062c-.039 0-.067-.106-.067-.32 0-.494-.034-1.225-.113-2.202q-.117-1.466-.117-2.208c0-1.253.23-2.303.685-3.135.298.22.68 1.18 1.146 2.894.444 1.617.668 2.713.668 3.28 0 .877-.202 1.776-.617 2.686-.484 1.044-1.08 1.674-1.793 1.898-.224.085-.6.118-1.123.118"/><path d="m173.736 283.057a2 2 0 0 0 -.073.5c0 .039.005.072.012.112l.017.174c.472 0 .814-.04 1.01-.113.67-.202 1.254-.814 1.731-1.848q.613-1.348.612-2.646c0-.55-.219-1.64-.662-3.258-.416-1.528-.781-2.466-1.028-2.77-.416.804-.624 1.793-.624 2.99q0 .73.118 2.196c.084.983.118 1.719.118 2.213 0 .112.012.197.017.236h.005c.09-.567.14-1.219.14-1.96q.001-.557-.04-1.517c-.033-.759-.05-1.259-.061-1.517v-.05l.045-.029.157-.084.045.095q.464 1.08.927 2.169c.315.865.477 1.64.477 2.348 0 .607-.325 1.14-.938 1.579-.55.398-1.134.595-1.736.595h-.134c-.023.112-.073.298-.135.584m-.22.967-.004-.08-.028-.258c-.005-.033-.005-.084-.005-.129q-.002-.236.073-.54c.09-.387.135-.611.14-.634l.005-.084h.31c.561 0 1.095-.186 1.623-.562.579-.421.86-.893.86-1.438 0-.68-.158-1.438-.461-2.286q-.403-.925-.798-1.86c.012.28.022.68.045 1.208q.04.959.039 1.522c0 .753-.045 1.41-.168 2.045a.32.32 0 0 1 -.208.09c-.203-.068-.13-.191-.163-.41 0-.489-.034-1.22-.113-2.197-.073-.983-.117-1.719-.117-2.213 0-1.264.23-2.326.702-3.174l.045-.096.09.062c.348.27.702 1.22 1.18 2.944.449 1.624.673 2.713.673 3.303 0 .888-.207 1.798-.629 2.725-.488 1.05-1.095 1.708-1.842 1.944-.253.084-.63.117-1.163.117v-.09l.095-.004-.095.005v.09zm6.192-8.494q-.034.27-.034.606c0 .203.012.495.04.894.016.393.033.69.033.893 0 1.562-.118 2.618-.354 3.157h-.112v-.528q.023-.732-.08-2.079-.11-1.44-.111-2.09.001-2.023.719-3.28.699.597 1.314 2.904c.354 1.37.534 2.478.534 3.309 0 1.483-.292 2.668-.882 3.567q-1.01 1.561-3.04 1.562-.419 0-.881-.068c.118-.123.314-.241.6-.348q.517-.177.653-.27c.904-.6 1.567-1.14 1.988-1.612.652-.736.983-1.522.983-2.354q-.001-.92-.517-2.185c-.286-.696-.567-1.387-.853-2.078"/><path d="m179.618 275.562.09-.028zm-1.882 8.786c1.32 0 2.292-.5 2.955-1.516.578-.877.87-2.045.87-3.517 0-.826-.174-1.921-.533-3.286-.377-1.427-.787-2.365-1.197-2.781q-.65 1.204-.651 3.135 0 .64.117 2.084c.051.719.08 1.303.08 1.77v.623c.173-.568.274-1.556.274-2.944 0-.19-.012-.489-.039-.887a17 17 0 0 1 -.033-.894c0-.23.012-.432.033-.623l.186-.012c.28.685.567 1.382.848 2.073.343.854.522 1.595.522 2.219 0 .854-.337 1.663-1 2.41-.432.483-1.1 1.022-2.01 1.629-.107.079-.327.163-.67.28-.173.068-.314.13-.42.203q.346.034.668.034m0 .185c-.281 0-.59-.022-.899-.068l-.168-.028.112-.117c.135-.146.348-.264.64-.377.337-.118.556-.213.63-.258q1.356-.902 1.971-1.601c.64-.725.96-1.478.96-2.292 0-.59-.168-1.315-.51-2.152a116.81 116.81 0 0 0 -.703-1.708v.203c0 .196.005.494.034.887.022.393.034.697.034.893 0 1.573-.113 2.63-.36 3.202l-.022.057h-.27v-.624q.006-.144.005-.314c0-.455-.028-1.034-.084-1.753-.073-.966-.113-1.669-.113-2.101 0-1.36.236-2.472.73-3.326l.057-.095.09.073c.494.427.927 1.404 1.337 2.95.36 1.375.54 2.482.54 3.33 0 1.495-.293 2.697-.894 3.613-.685 1.067-1.741 1.606-3.107 1.606zm0 0"/></g><path d="m114.217 62.096h.012zm35.178-4.101c-10.433 0-19.247 1.028-25.437 2.056-6.112 1.01-9.624 2.01-9.736 2.045l-.663-2.118c.073-.023 14.651-4.191 35.836-4.197 16.763.006 37.666 2.612 58.75 12l-.978 2.005c-20.707-9.213-41.262-11.791-57.772-11.791" fill="#3d6b59"/><path d="m103.408 88.735c12.483-7.225 21.847-21.235 25.684-27.769 1.287-2.18 1.95-3.494 1.955-3.505v.006l2.084.955c-.067.073-11.027 22.016-28.52 32.2zm0 0" fill="#3d6b59"/><path d="m141.608 93.797c-9.46-5.714-19.706-12.208-23.425-15.921l1.68-1.523c3.258 3.303 13.6 9.932 22.981 15.572a760 760 0 0 0 17.943 10.466l-1.174 1.905a761 761 0 0 1 -18.005-10.5" fill="#3d6b59"/><path d="m182.05 170.967c-4.387-7.275-10.92-13.944-18.066-18.887-3.86-2.68-7.483-4.64-10.27-7.079-2.786-2.41-4.679-5.471-4.657-9.847 0-1.63.248-3.438.764-5.478 2.18-8.73 5.011-17.308 8.31-25.7.246-.624.387-.967.387-.972l.129-.315.292-.197c.017-.012 3.623-2.415 8.286-4.83 4.68-2.405 10.331-4.871 14.865-4.9a9.7 9.7 0 0 1 1.69.141c2.467.433 4.686.612 6.635.612 4.062 0 7.01-.78 8.73-1.646l1.073 1.96c-2.152 1.068-5.432 1.894-9.803 1.894-2.101 0-4.455-.19-7.05-.646a7.5 7.5 0 0 0 -1.275-.101c-3.658-.028-9.247 2.27-13.764 4.635a97 97 0 0 0 -7.775 4.505c-.062.157-.151.37-.253.64-3.269 8.315-6.067 16.803-8.235 25.432-.478 1.915-.691 3.55-.691 4.966.022 3.78 1.432 6.016 3.91 8.224 2.477 2.185 6.078 4.163 10.056 6.91 7.404 5.123 14.14 11.988 18.718 19.572 3.528 5.842 5.634 12.067 6.297 18.78l-2.303.208c-.635-6.399-2.635-12.292-6-17.881" fill="#3d6b59"/><path d="m96.667 177.91-.045-.146h.005c.005-.005.022-.012.04-.023.055-.016.14-.056.24-.106.209-.107.484-.27.81-.483.663-.427 1.528-1.05 2.528-1.804 2-1.51 4.55-3.572 7.269-5.814 5.432-4.477 11.527-9.68 15.359-12.752 7.898-6.32 28.897-15.252 28.948-15.291l.95 2.016c-.013.012-5.248 2.247-11.439 5.247-6.185 3-13.342 6.786-16.976 9.719-6.652 5.337-20.263 17.212-25.336 20.51-.775.478-1.253.798-1.955.955zm0 0" fill="#3d6b59"/><g fill-rule="evenodd"><path d="m128.368 212.509c0-21.1-17.904-38.206-39.987-38.206s-39.987 17.106-39.987 38.206 17.904 38.206 39.987 38.206 39.987-17.106 39.987-38.206" fill="#fff"/><path d="m78.797 206.707c.09 3.465.455 5.982.567 9.263 1.933.573 4.753.247 6.135-.545-.63-.989-.264-1.994.427-2.725 3.022 4.225-3.382 6.831-7.562 5.45-.236-3.753-1.752-8.36 0-11.444zm22.24.269c.118-.022.13.056.14.14.158 1.781.332 3.174.433 4.495.197 2.623.472 5.258-1.426 6.404-1.882 1.118-5.64-.101-7.27 1.36-.528.466-.685 2.072-1.286 2.583-1.135.983-3.843.714-4.848 0 .988-1.595 3.674-1.567 5.275-2.584.438-.792.5-1.55 1-2.045 1.674-1.64 5.404.18 7.269-1.77.017-2.426-1.315-6.976.713-8.583m3.135.275c-.298 3.95 1.612 8.893-.427 11.578-.747-.438-.348-1.64-.427-2.719-.213-2.68-1.472-7.353.568-8.859zm-31.364 1.5c-.207.758-.657 1.275-.994 1.904-.6-.112-.927-.483-1.292-.82.247-1.208 1.309-2.41 2.286-1.084m-1.14 6.944c1.247-.259 2.579-.439 3.562-.955-1.191-.832-3.287-.293-3.562.955m-1.146 2.455c-.522.174-.354 1.022-.708 1.365-.786-.259.05-.916-.28-1.366-.023-.258-.478-.095-.439-.41-1.932.557-5.348.124-7.27.276.568.775 2.152.578 2.855 1.23.736 4.118-8.741 5.741-8.13.95.158-1.197 1-2.068 1.86-3.135.248 1.18-.932 1.78-.573 2.86.506 1.493 2.989 1.443 4.568.679-.894-.152-1.59-.489-2.146-.95-.107-5.612 7.64-2.157 9.988-5.18.472-.134.219.422.275.68 1.05-1.19 2.865-4.477 5.421-2.859.983.624.86 2.59.146 3.68-1 1.511-3.64 1.792-5.567 2.18m15.544 1.499c.337 2.32-1.842 2.95-3.561 2.86.073-.843.443-1.393.713-2.045.96-.253 1.685-.747 2.848-.815" fill="#0a0c11"/><path d="m60.691 225.913c.04-.916.45-1.477.708-2.174 1.017-.107 2.011-.876 2.854-.69.258 2.342-1.584 2.662-3.562 2.864" fill="#0a0c11"/><path d="m252.974 212.509c0-21.1-17.898-38.206-39.987-38.206-22.078 0-39.981 17.106-39.981 38.206s17.903 38.2 39.98 38.2c22.09 0 39.988-17.1 39.988-38.2" fill="#fff"/><path d="m223.492 201.156c.837 3.758.68 8.994 1.135 12.673 2.724.9 6.286.366 8.269-.68-1.028-1.201-.28-2.791.579-3.679 2.73 3.05-.528 7.146-3.714 7.629-2.073.315-4.146-.118-6.41-.135-.623-3.595-1.466-9.18-1.432-12.808.017-1.146 1-2.213 1.573-3" fill="#0a0c11"/><path d="m232.334 204.841c-.376.96-.95 1.725-1.578 2.45-.573-.4-1.298-.658-1.562-1.366.562-.545.921-1.297 1.28-2.039.978-.022 1.383.5 1.86.955m-13.83 3.539c2.522.877 3.19 5.624 1.14 7.354-1.37 1.157-3.084.646-5.135 1.095.264-.972.444-2.033.854-2.865 1.287-.27 2.91-.213 3.994-.68-.326-.87-.932-1.471-1.573-2.039-.062-1.252.337-2.05.72-2.865m-5.708 3.68c-.169 1.107-.691 1.882-1.14 2.725-.568-.686-3.416-.09-3.422.68-.005 1.123 4.152.926 4.562 2.038.831 5.225-10.797 7.96-12.264 3.27-.764-2.444 1.163-5.6 2.854-6.809.017 1.68-1.129 2.006-1.28 3.275-.444 3.73 5.06 3.691 7.696 2.31-1.034-.641-2.787-.607-3.422-1.63.236-3.6 2.742-6.449 6.416-5.86m-.141 11.034c.068 2.972-2.14 3.77-4.988 3.95.168-1.158.63-2.029 1-2.995 1.438-.135 2.618-1.208 3.988-.955" fill="#0a0c11"/><path d="m190.668 231.053c0-21.1-17.904-38.206-39.987-38.206-22.078 0-39.981 17.106-39.981 38.206s17.903 38.2 39.981 38.2c22.083 0 39.987-17.1 39.987-38.2" fill="#fff"/></g><path d="m124.025 205.577c-6.831 6.528-11.039 15.522-11.039 25.476 0 9.955 4.208 18.943 11.039 25.471s16.24 10.55 26.656 10.55c10.42 0 19.836-4.022 26.662-10.55 6.83-6.528 11.044-15.516 11.044-25.47 0-9.955-4.213-18.95-11.044-25.477-6.826-6.528-16.241-10.556-26.662-10.556-10.415 0-19.825 4.028-26.656 10.556m-15.606 25.476c0-22.302 18.92-40.385 42.262-40.385s42.268 18.083 42.268 40.385c0 22.297-18.926 40.38-42.268 40.38s-42.262-18.083-42.262-40.38" fill="#216e47"/><path d="m144.355 228.717c.163.853 1.45 7.757 1.14 9.667-.14.86-.853 1.849-1.566 2.045.084-3.803-2.124-9.297.426-11.713m15.259 12.123c-.366-.241-.417-.786-.574-1.224-1.399 2.112-6.887.32-9.123 1.629-.854.741-.528 1.798-1.427 2.59-1.258 1.112-4.123.87-5.702.14 1.067-1.618 3.82-1.623 5.702-2.45 1.034-.718.736-1.774 1.708-2.454 1.932-1.354 5.634.084 7.983-.82-.259-.568-1.13-.545-1.99-.545.198-1.22.742-2.107 1.563-2.72 2.943-.606 4.516 1.99 2.713 3.534 1.337.433 4.387.365 5.988-.674.276-2.539-1.674-7.505 1.146-8.584.147 3.028.624 5.753.562 8.989-1.017 2.612-4.6 2.78-8.55 2.59m11.404-11.579c.124 2.09.388 4.798.567 7.219.147 1.916.529 3.758-1.275 4.494-.292-1.404-.258-3.039-.432-4.77-.292-2.87-1.073-5.381.713-6.943zm-37.925.546c.202 2.5-1.876 2.842-4.135 2.993.13-.971.517-1.685 1-2.314 1.247-.034 1.916-.624 3.135-.68m6.421 1.225c-.09.916-.674 1.36-1.146 1.904-.702-.056-1.09-.41-1.427-.814.31-1.062 1.405-2.006 2.573-1.09m20.814.68c-.124.887-.764 1.27-1.146 1.91-.64-.113-1.101-.4-1.427-.82.36-1.203 1.505-2.377 2.573-1.09m-29.089 4.629c.433.314 1.225.061 1.708 0-.079-.23.174-.798-.14-.81-.422.36-1.175.422-1.568.81m3.28-2.995v4.635c2.119.354 4.905.04 5.99-1.365-.49-.174-1.697.483-2.141-.275-.287-2.4 2.904-3.81 3.567-1.36 1.124 4.19-4.68 6.298-8.988 5.04-.191-.428-.191-1.197 0-1.636-.832.203-3.18.793-3.989-.27.292-3.089 2.72-4.128 5.562-4.769m-6.275 13.623c-.46 2.781-1.848 4.685-3.994 5.86-.31-.877.86-1.416 1.427-2.45.78-1.404.42-3.438 2.567-3.41m42.914.82c-.08.439.095.63.146.955-.259.248-.725.31-1.14.41-.197.287.067.394-.147.815-.46-.039-.601.247-1.135.135v-1.09c.894.084 1.034-.55 1.281-1.09.45.068.5-.247.995-.135m-4.422 1.635c.146.332.579-.562.866-.135-.013.5-.41.607-.574.955-.96-.084-.893-.837-.426-1.365.23-.033.241.13.426.135 0 .236-.106.348-.292.41" fill="#0a0c11" fill-rule="evenodd"/><path d="m169.023 253.097c2.775 2.764-2.068 3.326-3.281 5.045-1.494.168-2.483.803-3.708 1.225.276 1.707-1.842 3.41-3.561 2.865-1.326-.427-.967-2.714-.292-3.68-.91 2.236 1.971 2.882 3.14 1.225-.14-.776-.944-.91-1.28-1.5.179-.332.184-.826.426-1.09.596.157.803.685 1.427.82.966-.034.27-1.652 1.14-1.775.259.253.023.977.422 1.09 1.005.23.309-1.163.719-1.495.533-.012.326.68.713.815.438-.034.64-.298.994-.41a2.9 2.9 0 0 1 0-1.635c.596-.017.433.674.573 1.09 1.349.012.838-1.107 1-2.04.573.034.253.933.708 1.09 1.158-.039-.303-1.28.714-1.64-.315-1.168-1.73-1.309-1.275-2.854 1.185.725 1.78 2.017 2.994 2.725.983-.376 1.573-1.124 2.275-1.775-.157-.438-.837-.382-1.287-.545-.18-.37-.342-.759-.28-1.36 1.668.13 2.443 1.113 2.994 2.31-.837 1.291-2.185 2.095-3.421 3-1.006-.13-1.073-1.158-1.854-1.5m-38.071-1.501v-.68h-.568c.012.405.05.77.568.68m1.427-1.764c.477 2.4-1.826 2.972-1.568 5.584-.505.377-.618 1.13-1.562 1.09a5.73 5.73 0 0 1 .708-3c-2.702-1.32-.236-4.876 2.422-3.674m1.426 1.899c1.045.787.293 2.635.427 4.095 1.422-.69 1.871-2.303 3.702-2.595.248 1.46-1.657 1.882-2.556 2.73-.803.742-1.241 1.989-2.432 2.18-.09-.905.298-2.478.146-3.95-.112-1.095-.624-2.179.713-2.46m6.562 3.955v-.815h-.573c.028.427.101.81.573.815m-1.713 4.77c-.062-1.287.337-2.13.707-2.995-.393-.578-1.078-.87-1.427-1.5.118-1.764 2.315-2.893 3.854-2.045-.022.163.034.242.146.276.163 1.449-1.326 2.707-1.713 3.949-.348 1.112-.096 2.472-1.567 2.314m7.128-4.494c-.157.349-.365.657-.713.82-.556-.112-1.079-.741-1.567-.14-.472-.045-.714-.32-1-.545.067-.786 1.202-.803 1.567-.27.506-.472 1.253-.168 1.713.135m3.995.68c-.08 1.107-1.259 1.04-2 .545-.017-1.101 1.382-1.101 2-.545" fill="#0a0c11" fill-rule="evenodd"/><path d="m144.355 259.367c.455-.068.506.241 1 .134.118-.382-.202-.354-.146-.68a1.33 1.33 0 0 0 -.854.545m1.427-2.859c.787.787.062 3.034 1 3.674h2.281c-.298-.736-.37-1.36.287-1.764.634.112.668.803.707 1.494.343.388 1.034.248 1.573.14.315-.471.225-1.33.995-1.364.078.528-.253.668-.14 1.224.376-.005.814.051 1-.134.28-.41.252-1.13.847-1.225.13.545-.213 1.006 0 1.225 1.236.224.377-1.55 1.433-1.5.163.848.27 2.067-.146 2.724-2.275-.151-4.528 1.146-5.989 0-.37.955-2.837.506-3.848.41-.112-.303-.297-.533-.286-.955-.657.9-2.118.394-2.994 0 .162-2.207 2.792-2.056 3.28-3.949" fill="#0a0c11" fill-rule="evenodd"/><path d="m151.22 295.471c-70.474 0-127.611-54.11-127.611-120.853 0-7.41.708-14.668 2.056-21.718a115 115 0 0 0 -2.854 25.493c0 66.744 57.132 120.854 127.617 120.854 62.649 0 114.759-42.762 125.556-99.136-12.36 54.497-63.52 95.36-124.764 95.36" fill="#fff" fill-rule="evenodd"/><path d="m53.849 261.215c2.904 1.017 4.882 4.438 4.275 7.898-.18 1.011-.747 2.107-.714 3 .085 2.32 3.562 4.702 4.843 2.04.865-1.781.118-4.978 0-6.675 5.797 1.512 6.584 7.798 6.567 14.854 1.983 1.303 2.91-.562 2.989-2.73.05-1.326-.652-4.405.573-4.77 1.735-.511 4.864 4.219 5.129 5.724.303 1.691-.388 8.13 2 8.04 2.078-.08 1.213-5.174 1.286-6.674 4.134 1.904 7.314 5.443 6.696 11.443.72.64 1.54 1.163 2.848 1.224 1.68-2.123-.69-4.876-1.14-7.089 5.561-.933 7.943 2.977 8.842 7.09.281 1.28.315 4.218 2.14 3.949 2.388-.343.523-6.343-.14-7.494 5.736.483 7.073 5.522 9.118 9.673.5 1.006 2 3.495 3.561 3.27 2.056-.287.933-4.326.292-5.45-.904-1.561-2.6-2.325-2.427-4.078 5.669.073 8.753 3.803 9.556 8.989.657.674 1.281 1.404 2.708 1.36 1.27-2.09-.81-5.17-1.567-7.085 6.005.118 8.336 4.933 9.69 9.95 6.472 1.347 11.617 3.976 15.971 7.353 4.955-2.759 9.724-5.691 16.68-6.54 1.65-4.965 3.926-9.33 10.268-9.808-.803 2.174-2.848 4.506-2.14 7.219 1.18.382 1.989-.59 2.848-.955 1.04-5.095 4.157-8.921 10.123-8.854-.106 2.028-1.69 2.405-2.708 3.955-.73 1.101-1.926 4.927-.146 5.45 2.388.685 4.225-3.585 4.854-4.91 1.742-3.736 3.753-6.843 8.69-7.354-.904 1.798-2.617 5.511-.707 7.488 2.309.017 1.966-2.612 2.561-4.488 1.191-3.708 4.056-7.23 9.124-6.14-.107 1.32-3.72 6.303-1.427 7.09 1.196.41 1.663-.76 2.713-.815-.168-6.202 3.14-9.809 7.41-11.309-.186 2.169-.742 5.303.578 6.668 2.983-.494 2.152-4.83 2.703-7.623.353-1.764 1.657-3.455 2.707-4.5.585-.567 1.73-1.41 2.854-1.219 1.573 1.86-1.635 9.107 2.994 7.624.523-6.343 1.158-13.432 7.41-14.707-.55 2.685-1.511 6.988 1.146 8.168 1.399-.506 3.219-1.427 3.421-3.13.13-1.1-.623-2.28-.719-3.41-.309-3.701 1.73-6.095 4.702-7.488-1.1 2.011.607 5.787 2.287 5.725 2.162-.096.471-3.056.286-4.37-.725-5.18 2.478-8.646 5.708-10.208-.652 2.393-.747 6.337 1.427 7.219 1.42-.568 2.387-2.175 2.561-3.815.225-2.09-.96-4.331-.713-6.539.337-2.977 2.354-4.764 4.848-5.73.472 2.286.685 6.606 2.988 6.685 1.618.04 1.787-2.275 1.573-4.09-.185-1.629-1.235-2.606-1.573-3.544-1.69-4.82 2.59-9.27 4.854-10.623-.887 2.73-.483 7.067 3.562 6.673.921-2.117.719-4.482-.427-6.41-.573-.966-1.63-1.567-1.848-2.718-.512-2.568 1.5-5.618 3.415-6.95.933 2.225 2.315 6.534 5.562 4.77.415-1.843-.259-3.04-1.14-4.36-.72-1.078-2.343-2.23-2.708-3.128-.63-1.545-.427-4.416 0-5.994.68-2.54 2.37-4.433 4.702-5.045.247 2.033-.854 7.404 2.286 6.949 1.798-.258 1.758-3.758.994-5.04-1.168-1.965-3.646-3.544-3.848-6.269-.19-2.578.815-4.224 1.854-5.578 1.556 2.056 2.607 6.865 6.556 4.899-.315-1.54-.989-2.854-2.14-4.225-1.236-1.472-3.118-2.37-3.708-3.949-.759-2.067.292-4.455 1.14-6.404 1.393 1.017 2.81 4.803 5.994 4.36 2.922-.405.175-3.304-.86-4.225-1.111-.983-2.297-1.556-3.134-2.455-2.365-2.523-1.797-6.472-.427-9.123 1.86 1.404 2.697 3.78 5.702 4.09.955-2.9-2.01-4.062-3.854-5.59-2.797-2.32-3.381-6.157-1.707-10.213 1.82 1.713 2.86 4.174 6.275 4.359 2.325-3.028-2.55-3.455-4.275-4.904-2.759-2.315-3.427-6.567-1.854-10.084 2.488.854 3.398 4.483 6.842 3.545.028-1.304-.91-1.68-1.427-2.455-5.55-1.691-8.342-6.011-9.269-12.123 2.966.135 4.095 3.157 6.275 4.494.646-1.989-1.427-3.972-1.713-6.404-.349-3 .32-5.837 2.426-7.084 3.562 1.545 5.315 4.82 5.275 9.808 2.72 2.287 3.169-2.41 4.708-3.404 1.163.472.815 1.994.994 3 .264 1.438.916 2.708.281 4.494-1.084 3.107-4.775 4.64-5.696 6.944-.388.96-.332 1.91.427 2.59 3.848-.495 4.196-4.343 6.129-6.674 1 1.028 1.095 3.662.854 5.718-.382 3.225-3.438 7.022-5.27 8.04-.944.522-3.061.752-2.994 2.044.107 2.213 4.567 1.118 5.562.275 1.584-1.354 1.73-3.842 3.702-4.634.719 4.118-.118 9.505-2.287 11.853-1.208 1.326-6.308 3.011-5.556 6 .23.899 1.96 1.685 3.427 1.354 1.657-.371 2.831-3.045 3.275-4.494 1.978 2.702 1.596 8.769-.854 10.628-1.016.854-3.938 1.354-5.702 2.455-2.19 1.348-2.882 4.034 1.281 3.264 1.298-1.303 1.91-3.258 3.994-3.814 1.304 2.033.73 4.713.135 6.404-.663 1.938-2.533 4.14-4.696 4.634-1.556.349-3.663-.5-4.421 1.5 1.18 1.405 4.702 1.118 6.41.27.022 1.55-.298 3.017-.995 4.084-1.517 2.343-4.578 4.14-7.275 4.77-.657 1.23-3.028 2.044-2.567 3.949.578 2.32 8.084.36 7.988-2.18.247 2.73-.702 4.803-1.854 6.264-2.988 3.809-9.589 3.949-11.55 8.584 2.843 1.258 5.882-.45 7.416-1.77-.068 3.09-1.613 5.545-4.702 6.814-1.613.663-3.624.68-5.562 1.5-1.393.59-6.078 4.893-1.573 4.764 3.202-.079 4.584-3.011 6.989-3.814-.152 1.634-1.377 2.932-2.281 4.224-1.753 2.511-3.404 5.753-6.983 6.404-.91.163-1.87-.157-2.848 0-2.213.337-3.989 2.275-4.854 4.084 1.22 1.337 3.494 1.944 5.562 1.365 1.196-.337 1.82-1.449 2.848-1.23-1.22 4.19-5.556 7.786-11.544 7.77-1.64-.006-4.82.011-4.989 1.769-.264 2.63 4.32 1.955 6.415 2.314-1.522 4.854-9.224 7.37-14.544 4.225-.86.663-2.415 1.63-2.28 2.86.28 2.488 5.207.96 6.988.14 1.876 2.809-2.725 5.51-5.13 6.27-1.993.617-3.403.179-5.28-.416-1-.315-2.342-.99-2.848-.955-.534.044-1.747.994-1.719 1.64.107 1.775 3.741 1.54 5.994 1.635-1.517 2.926-4.567 6.123-9.55 5.449-1.741-.236-4.966-1.775-5.848 0-1.095 2.196 2.169 3.37 4.702 2.994-.337 1.354-2.399 2.118-4.129 2.455-1.225.242-2.904.275-4.28.135-1.4-.14-2.669-.933-3.703-1.09-1.46-.225-4.1.19-4.42 1.36-.27.977.595 2.28 1.28 2.584 2.028.926 5.764-.124 7.27-.81-1.27 3.832-9.68 6.523-13.685 3-2-.044-3.983-.078-4.281 1.225-.427 1.904 1.955 2.72 4.28 2.72.08.493-.505.915-.853 1.224-1.72 1.545-5.388 4.702-8.837 2.595-1.618-.989-3.46-3.337-4.567-3.545-1.096-.202-2.702.54-2.848 1.36-.472 2.545 3.618 3.1 5.134 4.224-4.224 2.91-11.859.776-14.263-2.174-1.022.152-1.663.68-2.421 1.09 1.623 1.848 4.078 2.916 6.415 4.084-3.438.815-8.398.382-11.55-.685-1.236-.416-2.55-1.332-3.275-1.36-3.112-.129-.674 2.64.421 3.405.967.685 2.135.803 2.287 2.044-1.259 1.894-5.41 1.152-7.696.68-1.034-.803-1.922-.966-2.714-1.904-.517-.63-.64-1.466-1.421-1.91-5.702-3.197-13.606 2.118-16.117 5.994 3.893 4.6 8.325 8.674 15.544 10.084.36 1.258 2.314 2.977 1.28 4.359-.516.685-2.347.573-3.134.41-6.46-1.331-12.449-7.393-16.111-11.443-3.152 3.174-7.315 6.775-12.253 8.988-2.314 1.04-5.556 2.815-7.848.955-.078-1.983.894-2.955 1.708-4.084 7.365-1.14 11.803-5.078 15.966-9.27-1.877-3.123-6.045-6.988-10.69-7.493-1.933-.208-4.029.017-5.276.82-.989.646-1.528 2.112-2.567 2.73-2.36 1.4-7.36 1.747-9.258-.14.697-2.185 3.786-2.096 4.55-4.225-.752-2.432-3.483-.224-5.837.27-3.752.787-7.567.691-10.836-.27 1.393-.325 2.365-.736 3.708-1.494.443-.258 3.129-1.623 3.134-2.045.005-.275-1.59-1.236-2.14-1.23-1.045.017-1.977 1.315-3.28 1.91-2.95 1.337-8.686 1.994-11.405-.545 1.804-.843 5.483-1.494 5.421-3.674-.033-1.095-1.707-1.741-2.567-1.64-2.342.275-4.017 4.039-7.988 3.814-1.843-.107-3.04-1.286-3.989-2.045-.798-.634-2.09-1.634-2.708-2.865 1.253.107 2.073-.196 3.276-.129 2.5-1.562.926-4.292-2.703-3.68-1.651.281-2.83 1.512-4.994 1.495-4.41-.017-7.14-2.46-8.842-5.04 1.567.445 5.135 2.023 7.415 1.096.675-.28 1.495-1.567 1.427-2.32-.129-1.376-2.685-1.916-4.275-1.775-1.696.163-3.893 1.168-6.42.826-2.473-.343-5.394-1.214-5.843-3 2.084.36 4.595.09 4.988-1.365.596-2.169-1.651-2.214-3.415-2.315-5.067 2.326-10.365-1.039-11.696-5.174 1.09.068 5.719.394 5.988-1.23.107-.59-.764-1.657-1.427-1.77-.825-.14-1.887.663-2.994.955-1.674.439-3.657.675-5.41 0-2.376-.91-4.882-2.982-5.286-4.224-.163-.534-.337-1.298.298-2.18 1.702.517 6.657 2.787 7.117.135.264-1.455-1.354-2.05-1.848-3.129-5.477 3.011-13.308.46-14.404-4.77 2.247-.016 6.444.517 6.421-1.91-.028-2.735-5.988-1.864-8.41-2.578-3.437-1.034-7.1-4.37-7.701-7.77 1.022-.207 1.477.928 2.567 1.36 2.022.798 4.36.22 5.843-.955-.618-1.988-2.658-4.151-4.849-4.494-1.292-.202-2.286.157-3.42-.275-2.051-.775-3.742-2.753-4.843-4.494-1.146-1.804-2.506-3.854-3.14-6.135 2.23.584 5.185 5.612 8.977 3.275-.68-4.202-5.27-4.213-8.697-5.719-2.73-1.213-4.69-3.432-4.556-6.954.63-.135 1.214 1.017 2.14 1.5 1.422.747 3.27 1.028 5.13.55-.922-4.151-5.792-4.6-8.696-6.814-2.439-1.86-3.967-4.241-4.135-8.309.59.405.977 1.22 1.573 1.635 1.455 1.017 6.174 2.444 6.556.27.292-1.686-1.781-2.506-2.281-3.815-1.966-.264-2.876-1.022-4.421-2.314-1.927-1.624-3.865-3.18-3.567-6.95 1.37.956 4.791 1.13 6.42.27-.016-1.073-1.027-1.196-1.572-1.77-3.517.18-5.674-1.274-6.843-3.814-1.017-2.213-1.556-5.696 0-7.628 1.888.69 2.523 2.584 3.708 3.949 1.107.219 3.168.629 3.421-.68.186-.96-1.685-2.517-2.994-3.129-2.303-1.09-4.309-1.258-5.562-3.275-1.865-3.006-.561-5.972.287-9.264 1.152 1.152 1.798 4.292 3.854 4.635 1.342.219 3.073-.567 3.275-1.5.573-2.64-3.517-4.067-4.994-5.59-2.955-3.05-2.927-8.69-1.995-12.392 2.174 1.415 2.276 5.213 5.421 5.994 1.23.303 3.394-.18 3.562-1.09.23-1.236-1.994-1.758-2.848-2.314-3.208-2.09-6.663-8.556-3.994-13.893 1.578 1.685 2.14 4.713 3.994 6.264 1.09.91 3 1.185 2.708-1.23-.371-3.085-5.736-4.877-5.848-9.399-.029-1 .516-1.758.719-2.59.275-1.14-.028-2.455 1.134-3.404 1.534 1.13 2.023 6.207 4.848 3.545-.235-5.135 2.208-7.702 5.556-9.404 2.905 1.264 2.742 7.269 1 10.634-.472.916-1.651 1.792-1 2.854 2.46-1.152 3.27-3.87 6.567-4.225-.955 5.247-3.24 9.41-7.988 11.314-1.444.573-3.062.82-3.421 2.584 3.19 1.764 4.578-2.505 7.27-2.994 1.083 4.376.157 8.253-2.99 10.213-1.971 1.23-5.763 1.287-4.42 4.36 3.46.342 4.937-2.354 6.842-3.95 1.247 3.562.843 7.219-1.287 9.264-1.971 1.899-5.668 2.882-5.269 6.134 3.04.36 4.314-2.865 6.123-3.68 1.107 2.793 1.511 6.27-.561 8.72-.866 1.016-2.22 1.505-3.427 2.454-.983.764-4.309 3.72-1.422 4.354 3.006.663 4.832-3.022 6.41-3.95.686 1.608 1.354 3.197 1.14 4.905-.482 3.87-6.213 5.118-6.555 9.264 3.927 2.022 5.19-2.596 6.702-4.635 1.387 1.579 1.938 3.848 1.707 5.73-.42 3.45-4.056 4.741-4.848 7.213-.398 1.259.068 2.86 1.146 3.82 3.674.326 2.236-4.224 2.989-6.68 2.888.945 4.668 3.9 4.567 7.765-.028.932-.078 2.443-.578 3.41-.337.685-1.585 1.348-2.276 2.18-.584.696-3.595 4.937-1.14 5.718 2.82.899 4.303-3.955 5.135-5.314 1.382 1.707 3.893 4.42 2.994 7.083-.87 2.568-4.775 4.82-2.708 9.264 3.848.315 4.803-3.348 3.708-6.539 2.606 1.489 6.359 6.011 4.415 10.764-.309.747-.96 1.129-1.286 1.904-.64 1.556-.966 5.573.854 5.724 2.32.197 3.056-4.645 3.427-6.539 2.185 1.006 4.129 2.652 4.567 5.174.623 3.601-3.05 9.084 1.28 11.174 2.338-.753 2.276-4.258 1.99-7.084 3.005 1.899 5.589 4.483 5.134 9.404-.202 2.23-2.079 3.944-.422 5.303 2.478-.258 3.759-2.96 2.849-5.578" fill="#216e47" fill-rule="evenodd"/><path d="m163.456 169.961s.46 1.376-.573 2.533a23 23 0 0 0 -2.596 3.467c-.747 1.207-2.241 2.696-2.876 3.741s-1.326 2.202-2.708 3.303-2.36 2.421-1.899 3.685c0 0 .456-1.483 2.242-3.028 1.786-1.539 1.786-2.971 3.342-4.348 1.557-1.37 2.646-4.342 3.63-5.224.977-.882 2.763-3.135 1.438-4.13m-10.938 16.674s-.927-1.595 1.725-3.96c2.646-2.365 3.971-5.944 4.376-8.253 0 0-1.669 2.31-4.489 3.466-2.825 1.158-2.539 1.32-2.539 1.32s.579 1.152-.635 3.573c-1.208 2.427-1.382 4.354-.69 5.124.69.77 2.078.382 2.538 1.1.456.714.748 1.046.748 1.046s-1.73-1.489-2.596-1.489c-.865 0-2.82-1.54-1.837-3.797.972-2.253 1.32-3.247 1.208-3.905 0 0-.062.607-1.556 1.214-1.5.6-2.017 1.095-2.017 1.095s.747.77 1.034 1.978c.292 1.213 1.73 3.64 2.944 3.859 1.207.219.803.601.803.601s-.747.77-.635 1.326l1.27-.5s1.696-.135 2.567-.034c.96.112 3.68 1.31 3.68 1.31s-.669-1.355-1.528-1.714c-.135-.057 2.292.14 3.527.545-.938-1.017-2.528-2.236-4.68-2.14-2.701.112-3.218-1.765-3.218-1.765m-5.129-4.949c.517-.331-3.629.877-4.955.877s-2.073.168-5.64 1.263c-3.573 1.107-2.421.72-2.421.72s3.573-2.365 3.803-3.686c0 0-3.86 2.865-6.741 4.348-2.882 1.484-5.067 2.64-5.067 2.64s6.218-1.926 7.09-2.477c0 0-5.017 3.135-6.113 3.686 0 0 8.578-3.686 9.792-4.511 0 0-3.573 3.084-7.888 4.842l9.618-3.629s-2.376 2.011-2.73 2.185c.556-.168 6.106-1.55 7.51-3.505l-.696 1.814s3.916-4.241 4.438-4.567m17.274-14.802s.691-1.439-.977-2.427c-1.668-.989-3.741.056-4.202.337-.46.27-2.477 1.646-3.399 2.365-.915.713-1.674.932-5.241 1.921-3.573.989-7.483 4.567-8.292 5.562-.809.988-2.19 2.42-4.724 4.185-2.534 1.752-12.674 5.938-12.674 5.938 5.764-1.214 7.663-1.377 11.348-3.686 3.69-2.314 4.382-1.651 4.382-1.651s-2.191 1.702-.753.713c1.444-.988 4.32-2.365 4.32-2.365l-3.972 3.028c1.208-.55 5.41-3.466 5.41-3.466-.455.77-3.86 3.298-3.86 3.298 1.961-.714 4.725-2.916 4.725-2.916-.46.882-3.567 3.522-3.567 3.522 2.354-1.207 4.084-2.752 4.084-2.752-.86 1.157-3.225 2.977-3.225 2.977.978-.275 4.32-2.534 4.32-2.534-.803 1.102-3.218 2.478-3.218 2.478 2.584-.826 4.488-3.028 4.488-3.028-.517.77-2.19 2.146-2.19 2.146 1.611-.55 3.286-2.253 3.286-2.253-.354.657-1.326 1.865-1.326 1.865 1.151-.6.972-1.539 3.112-2.196 2.13-.663 4.14-2.865 5.472-4.624 1.32-1.764.86-2.039-.118-3.084-.983-1.045-2.938-.932-2.938-.932 1.438-.72 3.162.27 3.162.27-.685-1.152-1.207-1.208-1.207-1.208 1.382-.276 1.556.168 1.556.168h-.747l1.325.326-.46.275.69.332-.404.056.804.382-.4.163.748.225-.292.275.696.494c1.152-.387 1.669-2.752 1.669-2.752.174-.933-.747-1.484-.747-1.484s.174-.55.809-.443c.629.112.685.775.685.775s.41.275.23 0c-.168-.275-.168-.938.579-.938s.46.663.46.663c.692 1.264.17 2.09.17 2.09-.574-.939-1.613-1.045-1.613-1.045s.348-.113-.225-.826c-.579-.714-.753-.332-.753-.332.865.714.691 1.433.691 1.433 1.152.05 2.13 1.37 2.13 1.37 1.151-1.1.174-2.69.174-2.69" fill="#172e6b"/><path d="m186.331 187.033c-6.831 6.528-11.039 15.522-11.039 25.476 0 9.955 4.208 18.949 11.039 25.477 6.825 6.527 16.24 10.55 26.656 10.55 10.42 0 19.836-4.023 26.667-10.55 6.826-6.528 11.039-15.522 11.039-25.477s-4.213-18.948-11.039-25.476c-6.831-6.522-16.246-10.544-26.667-10.55-10.415.005-19.83 4.028-26.656 10.55m-15.606 25.476c.005-22.302 18.92-40.38 42.262-40.38s42.262 18.078 42.267 40.38c-.005 22.303-18.926 40.38-42.267 40.38s-42.256-18.077-42.262-40.38m-109.006-25.476c-6.831 6.522-11.044 15.522-11.044 25.476 0 9.955 4.213 18.943 11.044 25.471 6.831 6.533 16.247 10.556 26.662 10.556 10.42 0 19.83-4.023 26.656-10.556 6.83-6.522 11.044-15.516 11.044-25.47 0-9.955-4.213-18.955-11.044-25.477-6.826-6.522-16.235-10.55-26.656-10.55-10.415 0-19.83 4.028-26.662 10.55m-15.6 25.476c0-22.308 18.92-40.38 42.262-40.385 23.341.005 42.262 18.083 42.262 40.385 0 22.303-18.92 40.38-42.262 40.38s-42.262-18.077-42.262-40.38" fill="#216e47"/></svg>