<svg viewBox="0 0 314.27 316" xmlns="http://www.w3.org/2000/svg"><path d="m313.18 158.106c0 86.466-69.715 156.566-155.728 156.566-86.007 0-155.716-70.1-155.716-156.567 0-86.478 69.709-156.6 155.716-156.6 86.013 0 155.727 70.122 155.727 156.6" fill="#fff"/><path d="m3.064 135.342 4.189.074 3.671-.136h5.085l4.796.125 4.767-.063 5.21-.062 5.181.062 5.136.16 5.261-.086s-6.906 61.014 26.242 96.41c0 0 40.045 46.11 100.786 36.315 0 0 104.174-15.044 93.124-132.402l6.112.25 5.386-.062 4.91-.114 4.999.114h9.285l5.323.124h4.472l4.932-.05s26.242 145.182-136.233 177.769c0 0-116.455 18.172-165.233-101.495 0 0-12.923-51.73-7.4-76.933" fill="#eb1923" fill-rule="evenodd"/><path d="m158.48 46.486v223.489s99.463.964 110.297-113.828c0 0 .187-104.077-110.298-109.661m-55.004 142.135c-2.633 2.775-4.772 5.936-6.435 9.494l-3.025-6.821c5.187-3.014 6.878-8.473 5.074-16.419-3.349 2.236-6.135 4.95-7.957 8.349-.477-2.015-.948-4.024-1.413-6.039 5.771-3.547 7.485-9.006 5.062-16.407-3.536 2.026-5.738 4.79-7.35 7.9-.573-2.735-1.134-5.5-1.736-8.235 6.436-3.183 7.872-8.796 7.049-15.493-4.274.471-5.988 4.733-8.973 7.094-.613-3.144-1.175-6.294-1.776-9.443 5.675-2.214 8.172-7.321 7.65-15.068-3.348 1.436-6.538 4.132-9.608 7.383-.477-2.411-1.027-5.351-1.515-7.763 1.277-7.469-2.6-12.531-8.83-16.526-1.34 6.935.419 12.831 6.758 17.19l.948 6.288c-4.046-1.566-7.934-2.174-11.753-2.378 2.423 7.537 7.366 10.834 14.08 11.22.51 2.99 1.01 5.976 1.498 8.972-4.012-.823-8.008-3.586-12.082-2.485 3.172 7.684 7.956 11.395 14.403 11.157.59 3.15 1.175 6.3 1.754 9.46-4.438-.873-8.763-1.083-12.974-.612 3.825 6.384 9.149 8.399 15.159 8.444.5 2.117.959 4.251 1.464 6.374-3.95-.823-7.974-1.022-12.134-.41 3.423 6.22 8.933 7.986 15.42 7.708.823 2.31 1.799 5.465 2.662 7.775-3.91-.29-7.736-.153-11.374 1.385 3.599 5.811 9.223 6.86 15.783 5.737 2.85 3.383 5.698 6.76 8.558 10.147.34-.34.676-.675 1.028-1.015-2.617-3.264-5.227-6.51-7.85-9.745 5.824-4.426 5.511-10.47 2.435-17.218" fill="#eb1923" fill-rule="evenodd"/><path d="m212.933 207.224c-2.582 3.252-5.21 6.498-7.82 9.75.351.346.686.67 1.027 1.021q4.265-5.082 8.558-10.147c6.532 1.13 12.196.08 15.765-5.732-3.62-1.538-7.468-1.674-11.344-1.401.84-2.299 1.799-5.449 2.65-7.758 6.47.272 11.98-1.487 15.42-7.702-4.189-.635-8.195-.408-12.145.392.488-2.111.987-4.25 1.475-6.362 6.022-.051 11.316-2.06 15.164-8.445-4.245-.476-8.57-.278-12.99.613a902 902 0 0 1 1.759-9.449c6.436.227 11.231-3.496 14.398-11.169-4.063-1.1-8.064 1.646-12.1 2.497.517-2.996 1.016-5.998 1.527-8.983 6.708-.386 11.646-3.672 14.058-11.22-3.826.187-7.685.823-11.737 2.372l.954-6.282c6.322-4.365 8.093-10.261 6.77-17.196-6.248 4-10.147 9.057-8.87 16.532-.477 2.412-1.01 5.351-1.487 7.746-3.099-3.235-6.26-5.93-9.597-7.372-.539 7.747 1.935 12.849 7.6 15.073-.58 3.144-1.153 6.294-1.754 9.433-2.974-2.361-4.71-6.612-8.984-7.083-.812 6.691.635 12.304 7.06 15.476-.585 2.753-1.135 5.51-1.737 8.246-1.6-3.11-3.797-5.885-7.36-7.894-2.395 7.383-.687 12.843 5.084 16.407-.499 2.009-.936 4.024-1.396 6.033-1.861-3.411-4.625-6.095-7.962-8.343-1.81 7.945-.148 13.416 5.062 16.419l-3.025 6.821a34.7 34.7 0 0 0 -6.458-9.5c-3.047 6.765-3.348 12.797 2.435 17.207" fill="#fff" fill-rule="evenodd"/><path d="m195.039 159.87c0 21.725-17.23 39.335-38.432 39.335-21.243 0-38.45-17.61-38.45-39.335 0-21.73 17.207-39.334 38.45-39.334 21.202 0 38.432 17.604 38.432 39.334" fill="#fff"/><path d="m190.879 159.632c0 19.193-15.295 34.772-34.21 34.772-18.904 0-34.21-15.579-34.21-34.772 0-19.194 15.306-34.75 34.21-34.75 18.915 0 34.21 15.556 34.21 34.75" fill="#fff"/><g fill="#eb1923"><path d="m156.669 126.302c-18.081 0-32.791 14.948-32.791 33.33 0 18.393 14.71 33.353 32.79 33.353 18.082 0 32.792-14.96 32.792-33.353 0-18.382-14.71-33.33-32.791-33.33m0 69.52c-19.648 0-35.629-16.236-35.629-36.19 0-19.943 15.981-36.168 35.629-36.168s35.629 16.225 35.629 36.168c0 19.954-15.982 36.19-35.63 36.19"/><path d="m134.116 134.19.613 6.52 11.969-2.485 9.511-8.07-7.673-4.66zm-10.732 26.378 4.285-6.51 7.06 10.557-2.452 12.411-8.286-5.278s-1.22-9.931-.908-10.555zm28.836-11.792s11.969-.614 15.033 2.797l2.463 15.204-13.195 6.85-11.35-11.186s3.99-12.105 7.049-13.666m18.132-20.181s3.036 11.18 4.585 13.354c0 0 7.361 2.474 11.97 2.787 0 0-6.448-15.204-16.555-16.14m17.168 35.083-7.997 7.134s-.59 10.25 1.55 13.036c0 0 8.597-10.562 9.806-18.62zm-45.107 23.291 11.345-3.422 10.731 7.145-.3 3.4s-11.044 2.497-21.163-2.787zm0 0"/><path d="m127.975 157.782h-1.135c0-.136.125-13.649 10.953-20.67l.619.954c-10.318 6.691-10.437 19.585-10.437 19.716m44.902-23.382c-9.88-4.24-20.192-3.388-20.294-3.382l-.102-1.13c.107-.012 10.697-.885 20.845 3.468zm14.256 32.513-1.1-.267c2.684-11.123-4.762-23.966-4.836-24.096l.976-.574c.318.54 7.758 13.36 4.96 24.937m-25.561 24.943-.283-1.101c.153-.04 15.425-4.07 19.267-12.713l1.033.46c-4.064 9.143-19.37 13.189-20.017 13.354m-14.04-2.463c-13.734-2.225-16.708-15.84-16.73-15.976l1.106-.233c.028.13 2.855 12.99 15.805 15.09zm-14.5-22.19-.88-2.696 19.012-6.226.885 2.696zm20.828-13.837-8.286-17.065 1.021-.5 8.286 17.072zm11.997 1.652-.908-.675 11.055-14.903.914.675zm15.879 18.172-17.196-9.007.528-1.004 17.19 9.006zm-26.599 14.108-2.758-.658 4.596-19.256 2.759.659zm0 0"/><path d="m116.006 87.932s21.492-19.875 41.435-5.585v38.183s-19.943-1.249-32.224 16.447l-9.506-48.421" fill-rule="evenodd"/></g><path d="m197.03 91.342s-16.82-18.228-40.435-7.179l.221 36.373s16.896.312 29.477 14.58l11.05-43.473" fill="#fff" fill-rule="evenodd"/><path d="m150.165 89.691c-1.674-.783-3.655-1.243-5.885-1.373l.08-1.42c2.411.143 4.568.653 6.407 1.51zm-18.166.386-.403-1.357a49 49 0 0 1 6.282-1.447l.216 1.402c-1.912.3-3.961.772-6.095 1.402m-11.657 4.693-.67-1.248c.097-.057 2.384-1.277 5.863-2.679l.528 1.317c-3.4 1.367-5.698 2.593-5.72 2.61m14.232 3.706-.363-1.373a35 35 0 0 1 6.39-1.073l.097 1.419c-1.98.136-4.046.482-6.124 1.027m17.968.96a23 23 0 0 0 -5.68-1.715l.238-1.396c2.094.346 4.12.965 6.021 1.822zm-29.38 3.978-.79-1.175c.092-.063 2.26-1.516 5.738-3.02l.568 1.306c-3.365 1.453-5.494 2.877-5.516 2.889m28.586 3.836a26 26 0 0 0 -2.475-.528l.227-1.402c.874.148 1.754.33 2.61.557zm-14.784.148-.347-1.374a34.037 34.037 0 0 1 6.396-1.021l.086 1.413c-2.004.119-4.07.454-6.135.982m-11.334 5.016-.828-1.152c.09-.068 2.219-1.577 5.71-3.115l.572 1.294c-3.348 1.48-5.437 2.956-5.454 2.973m12.367 3.718-.318-1.385a26 26 0 0 1 6.475-.658l-.028 1.413a25.5 25.5 0 0 0 -6.13.63m14.28 1.027a24 24 0 0 0 -2.078-.704l.397-1.362c.727.21 1.465.46 2.191.744zm-25.374 4.228-.92-1.078c.085-.074 2.128-1.8 5.562-3.428l.607 1.282c-3.252 1.544-5.232 3.207-5.25 3.224m1.17 7.485-.812-1.163c.102-.068 2.548-1.765 6.004-2.69l.364 1.373c-3.201.857-5.534 2.463-5.556 2.48" fill="#fff"/><path d="m163.837 89.696-.67-1.248c1.612-.868 3.496-1.419 5.607-1.64l.148 1.413c-1.924.199-3.638.698-5.085 1.476m17.326.136c-2.134-.653-4.188-1.124-6.084-1.402l.205-1.402c1.969.29 4.086.778 6.293 1.442zm11.583 4.84c-.023-.011-2.31-1.288-5.675-2.7l.55-1.306c3.445 1.442 5.721 2.718 5.817 2.77zm-14.159 3.093a30.7 30.7 0 0 0 -6.124-.987l.08-1.413c2.07.108 4.222.454 6.401 1.027zm-16.43.755-.556-1.305a22.7 22.7 0 0 1 4.443-1.39l.284 1.39a21.6 21.6 0 0 0 -4.171 1.306m27.769 4.301c-.023-.017-2.146-1.492-5.466-2.974l.58-1.293c3.45 1.538 5.606 3.041 5.697 3.104zm-27.156 3.116-.33-1.38c.387-.09.778-.175 1.164-.249l.267 1.39c-.363.069-.732.154-1.101.239m13.382.261a30 30 0 0 0 -6.124-.936l.063-1.42c2.1.097 4.256.426 6.413.983zm11.27 5.119c-.022-.017-2.088-1.538-5.408-3.042l.59-1.294c3.468 1.572 5.574 3.133 5.664 3.195zm-12.405 3.155a23 23 0 0 0 -6.124-.527l-.068-1.42a24.5 24.5 0 0 1 6.498.563zm-12.906.863-.488-1.328q.402-.152.795-.278l.443 1.345q-.375.126-.75.261m23.938 4.45c-.017-.013-1.975-1.726-5.204-3.28l.619-1.278c3.416 1.646 5.442 3.422 5.527 3.496zm-1.237 7.093c-.023-.017-2.344-1.685-5.51-2.53l.363-1.374c3.439.92 5.885 2.684 5.987 2.758zm0 0" fill="#eb1923"/><path d="m109.576 93.204 3.07-3.41 11.033 49.98-2.134 3.723zm-5.84 7.462 1.85-3.11 15.034 48.433-1.214 3.723zm0 0" fill="#eb1923" fill-rule="evenodd"/><path d="m200.402 92.892s3.07-.937 3.07 1.55l-12.593 46.57-.936-2.163zm7.048 3.411 2.151 2.19-15.345 48.103-1.226-2.174zm0 0" fill="#fff" fill-rule="evenodd"/><path d="m157.129 271.393c-62.183 0-112.772-50.86-112.772-113.373 0-7.684.772-15.374 2.287-22.848l2.781.562a112 112 0 0 0 -2.236 22.286c0 60.952 49.323 110.536 109.94 110.536 29.159 0 56.462-11.43 76.876-32.196 20.22-20.566 31.962-48.409 33.069-78.39a104 104 0 0 0 -1.595-22.265l2.792-.505a106.7 106.7 0 0 1 1.635 22.871c-1.124 30.697-13.16 59.21-33.881 80.281-20.953 21.305-48.971 33.041-78.896 33.041" fill="#fff"/><g fill="#eb1923"><path d="m49.425 135.734-2.78-.562c10.674-52.462 57.143-90.542 110.484-90.542 26.293 0 52.03 9.2 72.46 25.901 20.374 16.651 34.108 39.619 38.682 64.67l-2.792.504c-4.45-24.386-17.831-46.752-37.683-62.977-19.931-16.288-45.027-25.26-70.667-25.26-52.002 0-97.296 37.12-107.704 88.266"/><path d="m157.129 2.832c-85.077 0-154.297 69.618-154.297 155.188 0 85.548 69.22 155.148 154.297 155.148 85.088 0 154.314-69.6 154.314-155.148 0-85.57-69.226-155.188-154.314-155.188m0 313.168c-86.643 0-157.13-70.871-157.13-157.98 0-87.137 70.487-158.02 157.13-158.02 86.654 0 157.146 70.883 157.146 158.02 0 87.109-70.492 157.98-157.146 157.98"/><path d="m51.332 101.716c.125.074.352.665.624 1.698l.443 1.94-3.24 2.02.487 2.39c-.238.324-1.31 1.039-3.235 2.123-.215-.279-.437-.863-.698-1.737l-.476-1.861c1.89-.863 2.9-1.448 3.047-1.726.051-.074-.05-.539-.272-1.384-.239-.852-.34-1.317-.261-1.442zm-4.205-10.419-.664 1.146 1.572 2.81c.601 1.118.885 2.15.936 3.053.04.374-.034 1.05-.199 2.037-.147.988-.312 1.612-.465 1.884.051-.074-.482.227-1.595.977l.562 1.549c.114.425-.04.948-.414 1.612-.16.26-.573.539-1.226.777-.482.12-.97.261-1.447.448.227 1.408.363 2.05.386 2.01-.085.164-.426.476-1.073.976-1.912 1.611-3.876 1.81-6.01.573-1.55-.886-2.94-2.509-4.188-4.824-1.186-2.162-1.85-4.234-2.02-6.186l.25-.42c.061-.017.198.012.311.085.16.085.409.636.738 1.6.42 1.21.846 2.186 1.237 2.86.636 1.136 1.459 2.027 2.435 2.589 1.31.76 2.724.647 4.2-.301 1.163-.76 2.162-1.873 2.985-3.297 1.01-1.765 1.85-4.115 2.508-6.964-1.271.153-2.35.852-3.297 2.049l-2.31 3.286c-.312-.335-1.101-1.76-2.338-4.37l4.863-8.422zm0 0"/><path d="m52.433 84.884-2.31 3.138c-.352-.204-.766-.329-1.249-.414-.04.352.386 1.6.063 2.026l-2.316 3.15-3.972-2.911 2.974-4.036c-.335-.754-.846-1.339-1.538-1.85-.324-.238-.636-1.016-.937-2.275-.3-1.26-.374-2.14-.25-2.611.636.426.948.596.948.596.653.477 1.765 1.839 3.303 4.063l1.311-1.787zm0 0"/><path d="m57.767 71.178c-1.85-.425-3.37.052-4.659 1.459-.71.789-1.487 2.838-2.264 6.152zm4.887 2.151-11.884 13.042-3.65-3.297s.392-.426 1.193-1.311c.624-3.752 1.095-6.26 1.407-7.537.8-3.275 1.788-5.562 2.928-6.799.75-.823 1.862-1.248 3.332-1.345 1.487-.09 2.616.199 3.4.92.504.454 1.56 2.553 3.274 6.327m-16.095-9.324c.142.312.216 1.152.352 2.537.102 1.35.074 2.1-.04 2.298-.857.415-2.321.823-4.45 1.237a111 111 0 0 1 -.124-4.784zm27.065-.511-5.057 4.461-12.757-12.145c-.154-.165-.267-.965-.364-2.423-.09-1.362-.125-2.214-.073-2.628l5.783 5.76c2.599 2.549 4.574 4.325 5.907 5.239.392.312.914.159 1.538-.403l1.765-1.55zm0 0"/><path d="m74.861 56.446 3.036 3.887-5.805 4.535-3.025-3.888zm0 0"/><path d="m80.621 62.121c2.14.085 3.377.011 3.66-.187.188-.125.302-.58.404-1.402.147-.8.25-1.3.335-1.476l4.137-.125c.023 1.714-.102 3.037-.414 4.001l-3.86.21a64.01 64.01 0 0 0 -.573 2.713c-1.736.199-3.064.221-4 .102.016-1.254.124-2.525.311-3.836m6.521-8.099-10.67 7.157-2.746-4.08 8.82-5.926c-1.374-1.027-3.037-1.9-5.074-2.639l-.346-5.045c3.399 1 5.731 2.412 6.935 4.183.67 1.016 1.708 3.11 3.081 6.35m17.497-9.284-2.872 1.475c-.363.188-.953.29-1.787.312l-.08.335-.221 5.602c-.34 2.332-1.198 3.882-2.662 4.62-.976.516-2.65.765-4.971.8-2.316.028-4.024-.2-5.153-.636l-.262-.51c-.022-.04.04-.126.154-.188-.08.045.5.096 1.708.136 1.214.023 2.19-.113 2.94-.5 1.135-.59 2.412-2.19 3.819-4.772 1.413-2.588 1.913-4.347 1.442-5.261-.227-.454-.988-.965-2.236-1.578-1.266-.607-1.953-.959-1.964-.999-.09-.159-.074-.925 0-2.32.125-1.414.221-2.277.29-2.651l4.193 2.36c1.504.699 3.048.614 4.665-.226l.75-.386zm0 0"/><path d="m105.763 31.679 2.65 5.46c.187.363.397 1.288.664 2.826.25 1.52.323 2.463.21 2.798-.012.102-.21.312-.511.664l-5.51 2.111-1.766-4.614 4.353-1.663a.94.94 0 0 0 -.028-.46c-.312-.8-1.061-2.287-2.321-4.449-1.266-2.196-2.111-3.558-2.61-4.086-.528-.136-1.119-.437-1.777-.812.199-2.707.562-4.721 1.073-6.02l.323.113c.255.539.516.959.778 1.288.272.335 1.237.636 2.871.925 1.277.233 2.338.397 3.212.448zm12.996 8.734-5.948-13.268c.097-1.748.573-3.9 1.51-6.55 2.44 5.352 4.035 9.262 4.773 11.8.85 2.922.749 5.606-.335 8.018m27.575-19.267c-.04.051-.351.085-.976.114l1.992 9.835c.012.045-.028.499-.113 1.322l-.176 1.55c-.063 2.122-1.09 4.051-2.985 5.76-1.788 1.56-3.774 2.463-5.976 2.712-1.81.21-3.309-.028-4.512-.737-1.385-.79-2.145-2.05-2.36-3.837-.177-1.464.062-3.297.714-5.448.636-2.151 1.425-3.774 2.412-4.875l.397-.045.074.658c-.312.715-.686 1.714-1.084 2.923-.414 1.452-.613 2.429-.55 2.911.136 1.203.823 2.117 2.026 2.786 1.084.551 2.219.778 3.456.642 1.016-.114 2.225-.437 3.627-.999 1.799-.715 2.65-1.442 2.57-2.1-.136-1.124-.607-3.365-1.447-6.736-.777-3.161-1.35-5.397-1.76-6.708-.135-.392-.487-.75-1.066-1.09-.534-.346-.846-.71-.885-1.073-.063-.579.136-1.464.59-2.639.408-1.084.8-1.895 1.226-2.485.045.76.51 1.339 1.407 1.725.477.261 1.35.488 2.662.687 1.14.238 1.924.465 2.31.686-.534 1.862-1.084 3.377-1.572 4.461m16.003 13.61-6.73-.103-1.249-17.593c.012-.221.46-.885 1.374-2.037.862-1.062 1.396-1.726 1.713-1.998l.386 8.172c.21 3.638.471 6.271.835 7.849.09.5.573.738 1.413.749l2.35.034zm0 0"/><path d="m167.826 30.192-.29 4.926-7.354-.437.284-4.926zm0 0"/><path d="m178.013 30.431c.097-.676-.29-1.084-1.129-1.198-.658-.102-1.158-.04-1.595.222l1.22 1.078c.613.482 1.062.732 1.362.823zm5.92 6.85-3.247-.466c-.204.165-.476.477-.828 1.027-.301.534-.659.897-1.033.97l-7.838-5.992c-.147.108-.488.562-.925 1.447-.363.624-.8.925-1.373.851l-3.036-.437.698-4.875 4.523.647c.25-.096.624-.584 1.248-1.447.613-.862 1.101-1.436 1.453-1.697.846-.652 1.924-1.214 3.15-1.64 1.26-.397 2.36-.562 3.32-.425.925.124 1.163.385 1.101 1.152-.187 1.01-.085 2.11.278 3.388.409 1.498 1.061 2.32 1.975 2.446l1.232.176zm0 0"/><path d="m190.328 34.029-1.106 4.795-7.174-1.646 1.101-4.795zm0 0"/><path d="m197.201 41.128-3.757-1.078c.074-.397.045-.823-.04-1.31-.351.073-1.362.913-1.872.76l-3.763-1.073 1.362-4.733 4.813 1.373c.584-.573.959-1.265 1.197-2.077.114-.386.738-.959 1.81-1.674 1.09-.71 1.89-1.084 2.361-1.135-.159.738-.221 1.1-.221 1.1-.227.773-1.112 2.288-2.673 4.496l2.134.613zm0 0"/><path d="m207.536 25.045c-.886.34-1.448.448-1.697.352-.125-.04-.466-.517-.976-1.425-.5-.913-.727-1.441-.687-1.566.113-.284 1.237-.72 3.326-1.345.198.113.771 1.197 1.657 3.223-.307.21-.835.449-1.623.76m3.859 4.076c-.625.76-1.845 1.35-3.587 1.787l-2.82-3.15c-1.8.602-2.65.948-2.611.96-.29-.108-1.198-1.186-2.85-3.195.699-.466 1.965-1.028 3.713-1.754 1.146 1.839 1.997 2.838 2.446 3.013.09.023.578-.113 1.401-.425l1.51-.607zm-.846 17.082-3.439-1.328-.085-1.373c-.301.164-.698.448-1.277.85l-5.545-2.139c-.176-.635-.34-.987-.539-1.06-.165-.075-1.073.447-1.237.374l-2.946-1.124 1.76-4.597 3.274 1.26q.521-.239.948-1.362c.148-.375.863-1.01 2.123-1.822 1.123-.715 1.975-1.203 2.576-1.402.023.199 0 .375-.051.5-.647 1.714-1.59 3.428-2.787 5.159.2-.012 1.238.391 3.15 1.214.187-.113.34-.25.397-.426.13-.323.188-1.208.318-1.549.125-.335.732-.823 1.833-1.447 1.113-.675 1.862-1.016 2.276-1.101-.051.51-.238 1.112-.51 1.827l-.466 1.21c-.647 1.713-.375 2.825.914 3.325l1.072.408zm0 0"/><path d="m221.094 38.155-2.225 5.646c-.136.375-.675 1.147-1.634 2.373-.954 1.225-1.6 1.912-1.913 2.048-.074.063-.375.063-.84.091l-5.284-2.639 2.197-4.41 4.177 2.089c.136-.09.26-.227.323-.34.375-.761.965-2.322 1.697-4.71.766-2.413 1.192-3.95 1.254-4.672-.26-.476-.437-1.112-.613-1.85 2.134-1.685 3.87-2.775 5.16-3.286l.135.324c-.21.539-.357 1.027-.408 1.436-.063.425.363 1.339 1.26 2.735.686 1.09 1.288 1.992 1.838 2.662zm2.412 15.493 5.737-13.382c1.345-1.124 3.258-2.225 5.846-3.337-2.287 5.42-4.086 9.256-5.449 11.52-1.572 2.61-3.609 4.359-6.134 5.199m35.424 11.758c-1.34.722-2.111 1.124-2.287 1.26.738-.771.783-2.638-.012-3.336-.624-.562-1.913-.97-3.865-1.311-2.071-.34-3.32-.25-3.83.323-.438.5-.176 1.277.771 2.338l2.758 2.912c.954 1.135 1.13 1.997.568 2.639-.204.232-.568.51-1.175.874-2.327 1.424-3.848 2.162-4.636 2.236-.79.085-2.486-.324-5.102-1.328l-.67-1.771c-1.992-.028-3.002-.09-3.065-.136-.198-.187-.46-.766-.76-1.691-.273-.772-.437-1.396-.5-1.862l-2.202.091-.232-.204c-.965-.846-1.38-1.998-1.215-3.457.176-1.276.71-2.411 1.623-3.45 1.924-2.185 4.802-3.836 8.587-4.847-.153.16-.488.76-.698.982-.29.34-.965.766-1.975 1.317-.999.533-1.765 1.061-2.242 1.595-1.799 2.054-.982 4.613 2.475 7.661 2.304 2.026 5 3.45 8.212 4.302l-.091-.312c-.233-.392-.647-.806-1.232-1.277-1.004-.812-1.464-1.164-1.367-1.073-2.22-1.963-2.759-3.564-1.607-4.875 1.561-1.776 4.018-2.962 7.356-3.535 3.564-.613 6.151-.2 7.848 1.3 1.3 1.134 1.527 2.235.602 3.274-.33.357-.988.783-2.038 1.362m-16.906 10.158c-1.651.46-3.013.511-4.058.239l-1.492-3.814-2.957.148c-.568-.97-1.027-2.333-1.317-4.087a19.2 19.2 0 0 1 3.99-.295c.397 1.958.823 3.161 1.283 3.57-.034-.023.976.028 3.041.113zm17.855 9.535-6.884-8.161 4.035-2.838 5.584 6.6c.068.012.125-.05.165-.08.613-.521.976-1.696 1.072-3.518.125-1.787-.085-3.076-.522-3.802l4.932-2.134c1.35 4.722.153 8.632-3.507 11.73-2.622 2.225-4.24 2.952-4.875 2.203m8.649 12.156-3.825-5.55 13.58-11.232c.188-.124.988-.136 2.452-.073 1.362.085 2.225.147 2.622.25l-6.424 5.056c-2.832 2.276-4.83 4.024-5.897 5.25-.346.351-.26.874.216 1.577l1.34 1.924zm0 0"/><path d="m275.297 99.18-4.21 2.56-3.826-6.3 4.211-2.548zm0 0"/><path d="m286.296 97.858c.085-1.09-.017-2.702-.193-4.864l4.767 1.35c-.12 1.01-.153 2.486-.102 4.512-.34.023-1.839-.329-4.472-.999m-11.385 11.067-4.676-8.87 4.364-2.299 3.672 6.987c1.226-1.34 2.287-2.963 3.201-4.79l5.023.204c-.83 1.697-1.527 2.957-2.078 3.763a9.5 9.5 0 0 1 -3.223 2.797c-1.033.545-3.121 1.294-6.283 2.208"/></g><path d="m46.684 212.661-9.444.47 2.1 5.59zm6.174.613-18.88 15.658-1.726-4.603 3.774-3.11-3.048-8.098-4.909.124-1.725-4.597 24.55-.561zm3.264 7.219 2.071 3.99-20.555 10.708-2.072-3.99zm-6.697 21.583-4.466-7.197 3.036-1.873 4.466 7.18zm19.812 10.147-2.82-3.525q1.218-.87 1.237-2.463c.034-1.135-.437-2.338-1.402-3.575-1.646-2.1-3.224-2.622-4.733-1.584-.624.41-.976.812-1.079 1.198q-.093.486.188 1.39c-.046.42.817 2.248 2.576 5.449 1.3 2.36 1.862 4.256 1.686 5.709-.17 1.436-.925 2.695-2.236 3.757-.948.766-2.038 1.288-3.275 1.589-1.226.29-2.332.26-3.36-.063-1.799-.624-3.734-2.185-5.822-4.699-.511-.573-.976-1.322-1.425-2.275-.562-1.187-.874-2.248-.936-3.173-.125-2.452.749-4.546 2.622-6.31l2.94 3.637a3.22 3.22 0 0 0 -1.238 2.276c-.176 1.333.386 2.758 1.686 4.256 1.146 1.35 2.213 2.1 3.172 2.225.79.113 1.487-.097 2.129-.613.561-.431.885-1.033.97-1.77.102-.852-.335-2.225-1.334-4.098-1.39-2.577-2.19-4.126-2.36-4.648-1.04-2.838-.489-5.102 1.623-6.799.22-.187.46-.363.709-.55 1.64-1.05 3.337-1.402 5.096-1.028 1.89.415 3.69 1.691 5.403 3.814 2.333 2.9 3.212 5.562 2.633 8.008-.323 1.475-1.05 2.661-2.173 3.564a2.38 2.38 0 0 1 -.477.3m-9.784 12.929 15.635-17.117 3.326 3.036-5.55 6.062.05.05a5.16 5.16 0 0 1 2.583-.141c.89.176 1.651.539 2.276 1.112 3.274 3.002 3.575 5.965.89 8.899l-7.786 8.524-3.297-3.014 6.895-7.559c.687-.749 1.073-1.424 1.175-1.998.125-.862-.312-1.736-1.31-2.65-1.601-1.475-3.066-1.487-4.365-.051l-7.196 7.871zm26.503 12.411.562-.817c-.624-.034-1.322-.244-2.134-.636-.601-.312-1.214-.635-1.822-.959a2.58 2.58 0 0 0 -1.64-.198c-.55.124-.976.397-1.288.845-.295.426-.42.874-.375 1.328q-.018.971 1.028 1.686c.221.147.46.284.737.425 1.896.897 3.547.335 4.932-1.674m.312 8.848-3.91-2.679c-.034-.584.165-1.158.59-1.697-1.226.188-2.224.239-3.002.125-.987-.147-1.986-.562-2.985-1.248-2.923-2.015-3.337-4.427-1.237-7.276 1.85-2.457 4.262-3.008 7.236-1.634 1.384.885 2.775 1.51 4.17 1.9.801.21 1.465-.113 2.004-.975.562-.886.046-1.873-1.526-2.963-1.538-1.05-2.872-.834-4.024.664l-3.485-2.39c2.299-3.285 5.409-3.586 9.319-.896 1.39.948 2.4 1.896 3.025 2.832 1.226 1.867 1.163 3.785-.176 5.738l-5.323 7.763c-.437.636-.55 1.385-.324 2.236zm6.476 3.66-4.075-1.861 7.162-15.67 4.07 1.862-1.074 2.333.063.04q1.542-.938 2.65-1.153c.874-.17 1.748-.062 2.64.34q.349.17.748.415c.846.534 1.459 1.124 1.81 1.748.24.375.523 1.124.875 2.225.874-.5 1.651-.8 2.31-.914.964-.165 1.986.012 3.098.522.375.165.766.392 1.164.653 2.525 1.56 3.098 3.859 1.713 6.884l-4.977 10.885-4.086-1.879 4.926-10.771c.46-1.01.04-1.873-1.277-2.61q-1.42-.749-2.746-.075c-.698.364-1.198.88-1.51 1.578l-4.387 9.597-4.097-1.862 4.931-10.783c.267-1.191-.221-2.088-1.487-2.69-.749-.363-1.498-.437-2.236-.21-.8.273-1.413.874-1.821 1.782zm33.109 4.694.255-.96c-.59.188-1.328.228-2.213.137-.676-.085-1.362-.188-2.049-.284a2.56 2.56 0 0 0 -1.612.375c-.476.295-.789.698-.913 1.22-.137.516-.103.976.085 1.39.215.613.726 1.022 1.55 1.237.254.063.527.114.828.136q3.15.299 4.069-3.251m3.314 8.223-4.585-1.186q-.357-.827-.04-1.8c-1.073.585-1.998.977-2.77 1.136-.976.204-2.054.142-3.24-.16-3.422-.89-4.631-3.024-3.638-6.412.902-2.945 2.99-4.285 6.254-4.007 1.606.363 3.133.488 4.569.375.828-.08 1.339-.613 1.549-1.612q.34-1.539-2.435-2.253c-1.799-.471-2.996.187-3.558 1.986l-4.103-1.06c1.05-3.871 3.876-5.21 8.461-4.025 1.635.426 2.9.977 3.808 1.652 1.788 1.334 2.39 3.15 1.788 5.448l-2.36 9.109c-.188.749-.035 1.487.448 2.213zm6.833-22.513 4.45.675-3.514 22.91-4.432-.686zm12.996 19.862 4.421-.073c.29.902.778 1.538 1.464 1.89q.714.33 2.475.5c.902.084 1.589-.063 2.088-.455q.63-.503.613-1.31c-.017-.824-.392-1.334-1.152-1.533l-5.596-1.515c-2.44-.653-3.711-2.038-3.785-4.138q-.12-2.867 2.06-4.534c1.061-.846 2.57-1.311 4.534-1.408 2.163-.102 3.962.284 5.398 1.18 1.736 1.08 2.627 2.589 2.65 4.53l-4.313.074q-.053-.921-.335-1.34c-.216-.335-.664-.613-1.374-.823a6.05 6.05 0 0 0 -1.674-.26 4.2 4.2 0 0 0 -1.94.533c-.46.278-.687.675-.687 1.214.017.585.363.96 1.067 1.147l6.492 1.64c.863.227 1.6.686 2.225 1.385.703.811 1.061 1.713 1.09 2.724a6.2 6.2 0 0 1 -.727 3.024c-.647 1.226-1.623 2.072-2.934 2.56-1.226.454-2.673.664-4.353.641-1.646 0-2.923-.204-3.82-.59-2.485-1.038-3.773-2.724-3.887-5.062m24.914-10.108c-1.322.205-2.207 1-2.673 2.39-.346 1.05-.437 2.196-.238 3.433q.28 1.84 1.277 3.212c.851 1.186 1.935 1.674 3.263 1.464 1.31-.198 2.196-.987 2.662-2.378.346-1.072.437-2.224.238-3.444-.193-1.238-.619-2.316-1.277-3.213q-1.276-1.761-3.252-1.464m-8.717-2.35 4.432-.686.403 2.577c.772-1.289 1.249-2.015 1.396-2.185.636-.676 1.538-1.13 2.713-1.38q2.62-.578 5.148 1.312c1.952 1.464 3.16 3.774 3.649 6.912.465 2.934.022 5.323-1.3 7.15-.584.835-1.214 1.436-1.89 1.811-.658.375-1.572.647-2.735.834q-1.61.247-2.838-.272c-.494-.216-1.231-.715-2.185-1.498l1.34 8.671-4.438.687zm25.447-1.673c-1.344.414-2.173 1.35-2.474 2.803-.232 1.095-.17 2.259.205 3.468.385 1.203.987 2.202 1.81 2.962 1.061 1.027 2.276 1.328 3.62.914q2.025-.639 2.475-2.81c.25-1.1.187-2.264-.187-3.473-.375-1.214-.988-2.202-1.822-2.962-1.078-1.027-2.276-1.322-3.626-.902m4.301 13.773c-2.35.738-4.449.659-6.322-.204-2.1-.988-3.626-2.963-4.551-5.959-.937-2.985-.812-5.482.363-7.474 1.05-1.782 2.735-3.048 5.074-3.769 2.35-.737 4.46-.664 6.344.222 2.089.965 3.604 2.95 4.524 5.936.942 2.985.828 5.488-.335 7.486-1.062 1.776-2.758 3.036-5.097 3.762m10.931-4.636-7.071-15.72 4.086-1.84 1.362 3.065.062-.04c-.136-1.05.136-2.162.8-3.325.562-.97 1.215-1.623 1.947-1.947.176-.085.363-.147.59-.198l1.85 4.131a14.76 14.76 0 0 0 -1.436.55c-2.026.903-2.724 2.452-2.1 4.637l3.985 8.848zm0 0" fill="#fff"/><path d="m207.524 276.076 1.924-1.079-2.276-4.086 3.9-2.185 2.286 4.086 2.174-1.214 1.436 2.588-2.174 1.214 4.739 8.473c.471.857.936 1.17 1.373.936l1.487-.811 1.476 2.633a7 7 0 0 1 -1.674 1.413c-2.412 1.499-4.365 1.277-5.834-.675l-5.466-9.795-1.924 1.072zm15.147 5.22 3.61-2.548c.749.574 1.51.812 2.27.721.516-.085 1.288-.409 2.327-.982.789-.425 1.277-.953 1.458-1.549.165-.516.08-.999-.232-1.442-.466-.658-1.073-.873-1.81-.607l-5.466 1.907c-2.395.84-4.222.414-5.471-1.271-1.135-1.538-1.424-3.173-.851-4.915.391-1.294 1.379-2.531 2.95-3.717 1.715-1.305 3.423-2.003 5.109-2.066 2.048-.096 3.626.653 4.75 2.236l-3.525 2.492c-.374-.477-.726-.778-1.027-.903-.374-.176-.897-.142-1.606.085-.601.199-1.1.437-1.527.738-.55.386-.987.903-1.288 1.527-.238.488-.198.948.114 1.396.34.477.85.59 1.51.34l6.299-2.315a4.5 4.5 0 0 1 2.627-.108c1.033.272 1.833.812 2.424 1.635.624.874.998 1.85 1.112 2.91.159 1.363-.165 2.629-.976 3.764-.766 1.06-1.839 2.06-3.224 2.985-1.362.925-2.525 1.487-3.49 1.663-2.633.55-4.66-.114-6.067-1.975m29.449-29.625 3.076-3.4c.845.784 1.52 1.811 2.009 3.048.488 1.249.687 2.435.613 3.576-.148 2.287-1.135 4.494-2.94 6.594-1.646 1.952-3.62 3.076-5.93 3.4-2.214.334-4.473-.097-6.777-1.311-1.084-.59-2.185-1.385-3.308-2.401-1.311-1.186-2.287-2.31-2.94-3.4-2.78-4.619-2.435-8.858 1.067-12.718q2.45-2.716 5.556-3.45c2.74-.624 5.113-.063 7.15 1.691l-3.075 3.394a4.6 4.6 0 0 0 -2.872-.897q-2.34.017-4.24 2.435a5.07 5.07 0 0 0 -1.01 2.849 6.46 6.46 0 0 0 .676 3.098c.5.988 1.322 2.066 2.463 3.213 1.396 1.362 2.758 2.264 4.097 2.701 1.833.585 3.411.522 4.745-.193a5.4 5.4 0 0 0 1.226-.993 7.5 7.5 0 0 0 1.186-1.68c.652-1.322.789-2.537.414-3.62-.136-.449-.54-1.102-1.186-1.936m-8.235-14.432 2.6-3.66 18.915 13.382-2.6 3.671zm16.605-15.743 15.046 8.394-2.174 3.91-1.861-1.039-.029.068c.965 1.646 1.101 3.332.426 5.068-.937 1.64-1.873 2.742-2.82 3.303-1.601.96-3.49.846-5.665-.363l-10.459-5.834 2.19-3.927 9.32 5.198c.987.55 1.736.829 2.224.812.885-.012 1.652-.675 2.276-2.01.851-1.827.533-3.245-.937-4.25l-9.721-5.42zm6.873-7.712c-.476 1.265-.22 2.434.75 3.512.777.823 1.725 1.459 2.888 1.896 1.175.454 2.321.613 3.434.5 1.436-.16 2.389-.875 2.877-2.134.46-1.238.21-2.384-.755-3.462-.76-.835-1.72-1.476-2.894-1.924-1.152-.437-2.304-.602-3.41-.477-1.454.165-2.413.851-2.89 2.089m9.836 12.57-21.668-8.223 1.589-4.211 7.769 2.95.028-.062c-1.492-1.435-1.725-3.274-.737-5.51 1.157-2.662 3.07-4.047 5.743-4.172 1.912-.113 3.615.125 5.102.687 1.572.596 3.099 1.646 4.546 3.161 1.09 1.147 1.76 2.299 2.026 3.422.25 1.135.062 2.424-.562 3.877-.726 1.696-2.003 2.769-3.836 3.206l-.029.051 1.629.613zm0 0" fill="#fff"/></svg>