<svg viewBox="0.01 0 281.01 355.01" xmlns="http://www.w3.org/2000/svg"><path d="M271.2 29.9c.07.24.134.498.198.733 1.268 4.767 2.311 9.674 3.248 14.51 1.985 10.198 3.467 20.519 4.51 30.85 4.644 45.751.888 93.712-14.27 137.29-21.76 62.53-64.012 109-122.13 140.37l-.054.027-2.627 1.327-.599-.321v.005l-1.846-1-1.85-1.001v-.005c-57.202-31.36-98.743-77.538-120.06-139.53C.715 169.522-2.81 121.529 2.064 75.795 3.205 65.1 4.81 54.404 6.95 43.864c.931-4.554 1.942-9.278 3.216-13.751l.743-2.606 2.312-1.011C53.376 8.979 96.07-.037 139.87 0h2.054c43.665.032 86.227 9.053 126.28 26.495l2.312 1.011z" fill="#fff"/><path d="M140.2 328.73c117.94-63.611 123.94-179.24 117.77-240.01a322 322 0 0 0-14.291-5.404c31.953 163.74-103.48 245.42-103.48 245.42M37.68 83.3s.428-.171 1.23-.465a289 289 0 0 0-15.702 5.73c-6.469 60.738-1.044 176.5 116.99 240.16 0 0-134.47-81.68-102.51-245.43" fill="#fff"/><path d="M246.22 84.22c-.005-.005-.894-.316-.894-.321 0 0-4.6-1.776-10-3.505 6.656 33.445 22.109 158.73-95.215 248.29.058.038.096.054.096.054s134.71-77.5 106.01-244.51" fill="#54c7e6"/><path d="M35.13 84.22c0-.005.888-.316.888-.321 0 0 4.602-1.776 10.005-3.505-6.661 33.445-22.113 158.73 95.216 248.29-.059.038-.096.054-.096.054s-134.71-77.5-106.01-244.51" fill="#54c7e6"/><path d="M27.51 45.64c-.647 2.36-4.72 17.699-7.143 40.412-6.838 64.162-.353 181.45 119.82 246.43 120.09-64.943 127.14-182.17 120.64-246.28-2.327-22.927-6.388-38.421-6.971-40.561-36.131-15.687-74.114-23.553-112.87-23.467h-1.07c-38.737 0-76.538 7.892-112.4 23.467m112.69 288.18l-.273-.203c-121-65.264-127.54-183.2-120.67-247.68 2.584-24.232 7.046-40.133 7.239-40.797l.07-.257.256-.16c36.067-15.704 74.11-23.666 113.09-23.666h1.873c38.753 0 76.677 7.956 112.74 23.654l.24.107.102.263c.043.16 4.564 16.303 7.074 41.01 6.532 64.43-.562 182.26-121.42 247.49zM18.275 34.891c-.637 2.29-5.083 18.924-7.732 43.729-7.389 69.4-.37 196.27 129.62 266.56 129.92-70.278 137.53-197.06 130.5-266.4-2.45-24.179-6.634-40.535-7.453-43.568a6 6 0 0 0-.086-.321c-38.78-16.848-79.56-25.393-121.22-25.393h-2.049c-41.899 0-82.792 8.54-121.58 25.393m121.95 311.53l-.32-.118c-130.82-70.56-137.9-198.07-130.47-267.8 2.701-25.318 7.276-42.172 7.79-44.007l.133-.422.23-.102c39-16.982 80.128-25.591 122.26-25.591h2.055c41.91 0 82.92 8.609 121.92 25.591l.24.102.07.257s.064.208.166.599c.819 3.044 5.024 19.476 7.48 43.74 7.068 69.668-.589 197.07-131.29 267.61z" fill="#191719"/><path d="M248.68 85.66l-5.185-1.82a321 321 0 0 0-23.804-7.324l.284-1.08c14.965 3.787 23.82 7.308 23.911 7.345l.348.14v.07z" fill="#191719"/><path d="M140.96 26.01c-32.595-.118-70.749 5.554-110.72 22.953 0 0-4.452 15.452-7.03 39.609a294 294 0 0 1 15.703-5.73c6.27-2.312 36.265-12.66 78.277-15.682 13.413-1.054 21.589-.835 21.589-.835s39.117-1.626 81.053 9.658c15.045 4.044 23.84 7.324 23.84 7.324s0 .005.006.01a322 322 0 0 1 14.29 5.405c-2.46-24.243-6.853-39.76-6.853-39.76-39.871-17.361-77.608-23.043-110.16-22.952" fill="#fff"/><path d="M244.23 82.92a316 316 0 0 1 13.087 4.933c-2.269-21.739-6.105-36.404-6.667-38.486-34.842-15.13-71.482-22.798-108.91-22.798h-.786c-38.02-.144-75.088 7.528-110.25 22.798-.567 2.07-4.462 16.677-6.838 38.341a294 294 0 0 1 14.87-5.399c5.644-2.086 36.04-12.659 78.415-15.714 13.28-1.038 21.557-.829 21.642-.829.353-.016 39.641-1.503 81.182 9.674 14.901 4.007 23.804 7.308 23.89 7.34zm14.393 6.667l-.861-.354a332 332 0 0 0-14.27-5.387l-.14-.065c-1.134-.412-9.78-3.526-23.665-7.26-41.375-11.13-80.497-9.652-80.888-9.636-.117-.005-8.34-.209-21.568.83-42.225 3.043-72.487 13.573-78.127 15.65a293 293 0 0 0-15.687 5.724l-.86.348.095-.926c2.553-23.927 7.004-39.55 7.052-39.705l.07-.251.24-.107c35.383-15.404 72.67-23.135 110.95-22.996h.782c37.672 0 74.542 7.736 109.6 22.996l.24.107.075.257c.043.155 4.436 15.837 6.87 39.85z" fill="#191719"/><path d="M52.84 60.23l-2.167-3.574c-.61-.995-1.295-2.263-1.851-3.275l-.059.016c.021 1.156.112 2.606.096 3.74L48.8 61.3zm-3.815 4.312l-.059 5.035-4.275 1.129.739-19.727 5.414-1.44 10.503 16.753-4.446 1.177-2.648-4.313zM59.69 47.36l4.195-.883 3.162 14.97 7.357-1.551.733 3.504-11.541 2.445zm22.01 6l.492 2.793-7.228 1.279-.492-2.793zm6.29 7.83l-6.865-18.165 4.532-.589 2.419 7.545a280 280 0 0 1 1.953 6.388l.058-.005c.043-2.065.198-4.371.37-6.747l.593-7.876 4.505-.578 2.515 7.7c.706 2.14 1.268 4.103 1.82 6.153l.053-.011c.005-2.119.139-4.366.246-6.64l.535-7.87 4.307-.557-2.413 19.358-4.59.594-2.628-7.86c-.599-1.84-1.134-3.553-1.632-5.666l-.053.01c-.064 2.157-.14 3.976-.343 5.918l-.733 8.293zm28.49-11.12l-1.471-3.911c-.418-1.092-.856-2.467-1.22-3.558h-.06c-.192 1.14-.368 2.584-.593 3.697l-.819 4.082zm-4.542 3.542l-.98 4.938-4.414.327 4.35-19.267 5.591-.418 7.245 18.4-4.58.343-1.814-4.725zM125.57 38.67l4.232-.102.198 8.347h.086c.401-.744.834-1.423 1.236-2.103l4.136-6.383 5.243-.123-6.057 8.192 6.844 10.69-4.987.112-4.82-8.042-1.58 2.028.15 6.17-4.232.1zm21.83 7.9l1.68.016c2.13.021 3.397-1.027 3.419-2.686.021-1.728-1.15-2.616-3.109-2.664-1.043-.011-1.626.07-1.936.123zm-4.147-8.17c1.375-.214 3.425-.359 5.693-.332 2.798.022 4.757.471 6.094 1.546 1.108.91 1.712 2.232 1.696 3.97-.032 2.408-1.755 4.04-3.392 4.618v.085c1.316.546 2.033 1.809 2.493 3.553.562 2.135 1.13 4.607 1.483 5.34l-4.372-.043c-.3-.535-.733-2.081-1.268-4.414-.481-2.36-1.29-3.012-3.028-3.06l-1.284-.011-.08 7.426-4.227-.043zm26.157 11.66l-.85-4.088c-.247-1.15-.472-2.573-.659-3.713l-.048-.005c-.375 1.097-.77 2.499-1.167 3.563l-1.439 3.906zm-5.03 2.798l-1.738 4.725-4.414-.359 7.276-18.363 5.591.455 4.313 19.294-4.575-.37-1.07-4.948zm20.18-12.048l-1.043 7.186 6.96 1.005 1.044-7.185 4.21.604-2.696 18.694-4.21-.61 1.123-7.816-6.961-1.006-1.124 7.822-4.248-.615 2.697-18.69zm21.53 18.36c.99.824 2.579 1.787 4.355 2.194 1.91.438 3.103-.123 3.376-1.327.262-1.15-.46-2.001-2.493-3.296-2.82-1.766-4.425-3.911-3.82-6.587.722-3.14 3.89-4.949 8.234-3.964 2.07.476 3.505 1.257 4.484 2l-1.696 3.147a9 9 0 0 0-3.65-1.75c-1.808-.412-2.862.209-3.081 1.167-.268 1.177.653 1.931 2.82 3.376 2.98 1.937 4.125 3.986 3.536 6.575-.706 3.093-3.681 5.169-8.732 4.019-2.108-.476-4.06-1.498-4.965-2.306zm27.01 10.74c-.861.177-2.67.128-4.89-.465-6.308-1.697-8.502-6.49-7.106-11.685 1.67-6.228 7.036-8.502 12.557-7.02 2.14.578 3.644 1.444 4.275 2.017l-1.717 3.055c-.744-.583-1.82-1.214-3.28-1.61-3.274-.878-6.351.411-7.437 4.472-.98 3.65.562 6.533 4.243 7.528 1.246.332 2.702.434 3.6.321zM126.11 300.4h-.032l-2.06.98-.417-1.89 2.852-1.332h2.097v10.786h-2.44zm8.3 1.3c0 .936.498 1.728 1.53 1.728.674 0 1.156-.332 1.391-.711.08-.15.134-.316.134-.632 0-1.145-.433-2.274-1.578-2.274-.862 0-1.493.76-1.477 1.889m-1.525 5.41c.316.037.6.037 1.092 0 .765-.049 1.546-.263 2.124-.664a3.4 3.4 0 0 0 1.364-1.985l-.053-.021c-.482.497-1.178.775-2.157.775-1.824 0-3.365-1.273-3.365-3.365 0-2.103 1.696-3.874 4.06-3.874 2.772 0 4.083 2.12 4.083 4.64 0 2.24-.711 3.878-1.888 4.959-1.033.926-2.44 1.444-4.12 1.509a8 8 0 0 1-1.14 0zm15.605-6.88h-4.184l-.23 1.659c.23-.038.433-.038.695-.038 1.028 0 2.071.236 2.836.787.813.546 1.311 1.44 1.311 2.702 0 2.006-1.723 3.777-4.628 3.777-1.31 0-2.408-.3-3.002-.615l.45-1.889c.481.23 1.455.53 2.44.53 1.038 0 2.15-.492 2.15-1.632 0-1.118-.877-1.798-3.033-1.798-.594 0-1.011.027-1.456.102l.712-5.66h5.939zm4.32 1.47c0 .936.498 1.728 1.525 1.728.68 0 1.16-.332 1.391-.711.08-.15.134-.316.134-.632 0-1.145-.434-2.274-1.579-2.274-.861 0-1.492.76-1.471 1.889m-1.525 5.41c.31.037.594.037 1.092 0 .765-.049 1.54-.263 2.124-.664a3.35 3.35 0 0 0 1.359-1.985l-.054-.021c-.476.497-1.172.775-2.15.775-1.825 0-3.372-1.273-3.372-3.365 0-2.103 1.697-3.874 4.067-3.874 2.771 0 4.082 2.12 4.082 4.64 0 2.24-.717 3.878-1.889 4.959-1.032.926-2.445 1.444-4.114 1.509a8 8 0 0 1-1.145 0zM188.6 197.29c3.558 10.214 3.665 21.396.107 31.744-8.004 23.248-32.06 37.089-56.532 32.878 2.408-.861 7.7-2.771 7.7-2.771l3.67-11.777-16.083-10.144-16.645 5.02s-2.515 7.131-2.98 8.415c-6.694-5.666-11.74-12.927-14.672-21.134 1.397.198 6.683.926 6.683.926l1.375-15.757a14 14 0 0 0-1.07.005c-.417 4.767-1.21 13.799-1.279 14.564-.947-.128-7.33-1.017-7.33-1.017l.273.798c3.029 8.983 8.529 16.918 15.912 22.959l.589.487s3.162-8.93 3.328-9.406c.492-.145 15.206-4.58 15.655-4.714.4.251 14.344 9.053 14.986 9.454l-3.28 10.524-10.813 3.895 1.798.38c25.66 5.425 51.343-8.871 59.727-33.258 3.649-10.599 3.536-22.054-.129-32.509z" fill="#191719"/><path d="M187.62 196.08c4.002 10.471 4.264 22.087.589 32.787-8.133 23.627-33.012 37.474-57.87 32.22a52 52 0 0 1-5.463-1.46c-5.929-1.959-11.348-4.923-16.11-8.818-7.16-5.864-12.493-13.558-15.425-22.252a47.6 47.6 0 0 1-2.515-15.217c-.765-1.07-1.429-2.344-1.996-3.767a49.6 49.6 0 0 0 2.478 19.631c3.06 9.07 8.619 17.095 16.083 23.205 4.975 4.066 10.626 7.159 16.81 9.197a55 55 0 0 0 5.688 1.53c25.923 5.48 51.867-8.967 60.347-33.6 3.858-11.247 3.547-23.451-.712-34.435zm-47.54-2.31l1.166 1.75 16.431-10.556-1.171-1.745z" fill="#191719"/><path d="M140.85 212.54l18.234 10.23 1.065-1.814-18.24-10.235z" fill="#191719"/><path d="M173.83 211.29l-15.308 10.064-.155 18.924 15.693 2.001 10.738-17.298zm-30.91 36.3l-15.538-9.802-16.148 4.864-3.151 8.94c4.73 3.88 10.262 6.972 16.458 9.01a51 51 0 0 0 5.57 1.498l9.336-3.36z" fill="#191719"/><path d="M127.59 218.34l-1.161 20.123 2.135.128 1.16-20.128zm13.97 28.58l.952 1.878 17.865-8.678-.947-1.873zM97.7 229.03l13.376 15.516 1.637-1.348-13.38-15.522zm85.69-4.53l-.364 2.697 8.828-5.48-1.145-1.76zm-10.35 16.14l-.337 10.524 2.14.059.332-10.52zm-34.9 18.66l9.417 4.152.877-1.905-9.417-4.157z" fill="#191719"/><path d="M159.39 217.32l9.518-12.124-.363.107-3.66-.936-23.446 8.213.663 1.39z" fill="#fff"/><path d="M158.63 218.3l.76-.98-17.287-3.354.636 1.311-.716.749 16.945 3.29z" fill="#191719"/><path d="M142.1 213.97l-2.167-.428-.407 1.996 2.494.487.717-.75zm16.87 5.34l.631.123.396-1.99-.604-.129-.76.985z" fill="#191719"/><path d="M117.67 222.46l-4.409-1.69-10.112 6.751.375 1.499z" fill="#fff"/><path d="M101.97 225.86l-10.856-7.833c.01.22.01.433.032.653l10.369 7.48zm1.56 3.16l-.375-1.498-.454.31.347 1.413zm-1.29-.88l-.15.09-1.16-1.674.138-.09c-2.13-1.542-7.351-5.308-9.887-7.128a46.6 46.6 0 0 0 3.124 13.96l8.272-3.831c-.14-.52-.246-.963-.337-1.327" fill="#191719"/><path d="M102.7 227.83l-.46.31c.09.364.198.808.332 1.327l.476-.22zm-1.63-1.36l.45-.31-10.37-7.48c.005.22.022.439.032.663 2.537 1.825 7.759 5.591 9.888 7.127m2.08 1.06l10.107-6.752-1.102-.423.225-1.455-10.417 6.96.947.675z" fill="#191719"/><path d="M113.26 220.77l.931-.631-1.172-1.675-.642.423-.225 1.46zm-10.56 7.06l.455-.3-.246-.995s-.353-.262-.937-.68l-.454.3.936.67zm-.61.41l.15-.096c-.15-.589-.246-.963-.252-1.012-.048-.032-.385-.278-.925-.663l-.14.09z" fill="#191719"/><path d="M102.24 228.14l.46-.31-.251-1.006-.931-.669-.45.31c.535.386.872.626.92.664.006.048.102.422.252 1.011m-12.14-9.59l-.027-.016a47.7 47.7 0 0 0 3.259 15.217l.037-.016a47.3 47.3 0 0 1-3.269-15.184" fill="#191719"/><path d="M91.18 219.34c-.46-.342-.835-.61-1.08-.792a47.3 47.3 0 0 0 3.268 15.184l.937-.433a46.8 46.8 0 0 1-3.125-13.96" fill="#191719"/><path d="M145.4 228.95L138.535 72.1l-1.904.102 5.436 156.85z" fill="#191719" fill-rule="evenodd"/><path d="M138.55 72.14v.005c0 .765 6.763 155.37 6.827 156.78-.075 0-3.301.107-3.301.107v-.01c0-.964-5.393-156.78-5.399-156.82.005.031 1.873-.07 1.873-.07m-1.91.037c-.032.032 5.404 156.89 5.404 156.89.032.032 3.365-.075 3.365-.075l.038-.005-6.87-156.88c-.038-.037-1.937.07-1.937.07" fill="#191719" fill-rule="evenodd"/><path d="M141.13 143.93c-.423-18.791-.92-37.576-1.477-56.361-.337.043-.663.091-.995.14 7.587 28.48 20.225 55.483 33.205 81.925 1.354 2.756 3.018 5.383 4.537 8.053.321.556 1.188.058.872-.498-14.655-25.703-25.762-53.007-35.142-81.032-.968-2.873-1.717-5.79-2.498-8.716-.14-.535-1.006-.428-.99.129a7332 7332 0 0 1 1.477 56.36c.016.637 1.027.643 1.01 0M136.67 95.8s-32.948 38.373-26.468 88.18c0 0-1.787-42.686 26.468-88.18" fill="#191719"/><path d="M109.32 208.32c-1.493-21.632 13.034-32.787 13.183-32.894l-.037-.054c-.15.113-14.708 11.28-13.146 32.948" fill="#fff"/><path d="M122.48 175.4s-27.143 12.178-35.965 39.406c0 0-5.2 19.481 6.11 23.906s34.837-20.144 39.133-22.354c4.297-2.22 4.981-.888 4.072 5.308-.904 6.2-.862 16.26 13.349 8.416 45.976-25.382 59.72-47.886 59.72-47.886s-23.75 15.564-33.027 17.774c-9.273 2.215-17.293-5.372-16.613-14.89.342-4.757 5.752-3.815 1.937-4.612-3.815-.803-9.305 1.129-15.634 7.324-12.664 12.402-21.717 21.477-30.54 21.926-8.823.444-6.335-17.935 7.458-34.318" fill="#54c7e6"/><path d="M120.57 175.06c-6.565 2.964-12.584 7.48-17.876 12.231-8.502 7.619-16.672 18.282-18.903 29.577-1.557 7.886-1.814 20.519 8.026 23.296 4.328 1.22 9.234-1.15 12.927-3.13 5.318-2.852 10.123-6.661 14.756-10.46 3.53-2.89 6.843-6.174 10.61-8.78.813-.572 1.776-.958 2.734-1.21 1.744-.465.743 4.848.684 5.233-.288 2.087-.46 4.152-.23 6.25.423 3.788 2.783 6.303 6.806 6.03 3.264-.23 6.4-2.044 9.17-3.585a287 287 0 0 0 13.917-8.267c12.38-7.8 24.189-16.656 34.606-26.87 4.087-4.012 8.148-8.287 11.348-13.039a1.5 1.5 0 0 0 .123-.176c.438-.68-.444-1.59-1.15-1.118-7.989 5.249-16.213 10.284-24.747 14.665-5.89 3.028-12.215 6.056-18.614 2.38-4.168-2.386-6.105-7.169-6.19-11.695-.032-1.884.61-3.248 2.311-4.099.396-.198.91-.369.99-.867.059-.385-.043-.711-.39-.93-4.998-3.19-12.68 2.44-16.133 5.355-7.758 6.554-14.072 14.58-22.75 20.112-2.84 1.809-6.126 3.27-9.566 3.301-3.37.032-3.836-4.044-3.815-6.479.08-9.588 6.453-19.283 12.376-26.43.674-.825-.508-1.991-1.188-1.167-5.275 6.372-9.652 13.52-11.894 21.47-1.107 3.928-2.086 9.685 1.156 12.949 3.135 3.151 9.272.273 12.386-1.402 7.207-3.885 13.146-10.23 18.914-15.843 3.58-3.478 6.988-7.052 11.487-9.406a13.1 13.1 0 0 1 5.43-1.472c.74-.037 1.461.113 2.178.263.846.182.931-1.322-.026-.878-5.137 2.376-3.104 9.797-1.044 13.58 3.023 5.569 9.513 7.94 15.612 6.682 5.02-1.022 9.915-4.088 14.318-6.506 6.849-3.772 13.526-7.881 20.043-12.172-.38-.375-.76-.744-1.15-1.124-2.616 4.083-6.126 7.72-9.513 11.182-10.118 10.353-21.835 19.165-34.007 27.068-4.082 2.643-8.245 5.153-12.456 7.587-3.868 2.231-8.256 5.356-12.937 5.318-5.714-.037-3.858-9.058-3.478-12.338.53-4.558-1.493-6.383-5.757-4.034-3.376 1.857-6.27 5.051-9.181 7.496-4.296 3.628-8.716 7.127-13.478 10.171-3.943 2.515-8.662 5.2-13.526 4.992-10.562-.45-9.32-16.105-7.769-22.868 2.574-11.22 11.231-21.493 19.834-28.914 4.725-4.077 10.123-7.913 15.875-10.514.985-.444.129-1.857-.85-1.418" fill="#fff"/><g fill="#191719"><path d="M105.55 181.13c-.358-.027-.53-.209-.503-.546.027-.32.22-.476.578-.45q.593.042.551.547c-.027.331-.23.481-.626.449m-.08 1.022c-.37-.032-.535-.209-.509-.535.027-.353.23-.514.589-.487.396.032.572.225.546.578q-.048.49-.626.444m-2.098-4.34c.054-.561-.085-.871-.39-.941q1.06.081.995.947c.043-.578.407-.835 1.08-.786-.315.016-.502.3-.55.872l-.53 6.495c-.059.685-.466.995-1.225.942l-4.03-.327c-.614-.042-.968.07-1.048.343.054-.632.407-.915 1.06-.862q-.978-.08-.905-1.038c.032.31.359.487.985.54l4.034.316.407-5.061-3.483 2.702c-.316.24-.482.465-.503.7 0 .076.016.145.08.193q-.346-.327-.316-.679c.016-.203.14-.407.359-.594-.23.166-.482.235-.744.214-.246-.016-.482-.144-.717-.374.07.053.16.074.273.09.246.022.519-.096.83-.326l.438-5.393 1.134.085-.364 4.366z"/><path d="M99.18 181.37l.086-.064.433-5.26c.22.016.417.038.626.054-.032.439-.38 4.681-.38 4.681l3.67-2.84.011-.108q.006-.114.005-.219c0-.102-.016-.177-.032-.268.005 0 .005.005.01.005a.53.53 0 0 1 .113.359c0 .032 0 .059-.005.09l.503.038a.7.7 0 0 1 .107-.326c-.032.112-.064.22-.08.369l-.53 6.495c-.016.263-.096.45-.23.562-.155.123-.39.182-.717.145l-4.023-.31c-.102-.006-.182-.006-.268-.011.08-.005.14-.038.23-.027l.037-.492c-.08-.011-.107-.038-.176-.065.085.011.123.049.22.06l4.28.336.481-5.864-3.933 3.055c-.08.054-.112.107-.176.166.043-.064.043-.112.112-.17l-.31-.391c-.049.037-.097.026-.15.053.032-.021.059-.027.086-.053m.032-5.608l-.423 5.26c-.22.144-.417.24-.567.23l-.145-.038-.91-.24.584.615c.01.01.027.016.037.027v.005h.005c.257.246.54.385.824.412.075.005.14-.022.209-.027-.016.048-.043.09-.048.134 0 .027-.005.053-.005.08 0 .284.133.557.39.803.005 0 .005.01.005.01l.348-.358c.005 0 .005.005.005.005.005-.16.15-.343.396-.53.005 0 2.103-1.626 3.039-2.354l-.348 4.248c-.444-.043-3.783-.3-3.783-.3-.267-.02-.727-.085-.743-.31l-.514.005c0 .049-.005.107-.005.155 0 .364.128.637.348.835q-.401.256-.482.856v.005a.2.2 0 0 1-.01.048l.492.086c.042-.134.337-.198.786-.166l4.034.316c.46.037.824-.048 1.081-.262.236-.198.375-.498.407-.894l.535-6.495c.021-.29.102-.637.31-.642l.011-.498c-.546-.043-.861.112-1.06.316-.01-.016-.01-.049-.02-.07-.204-.23-.525-.353-.953-.401 0 0-.005 0-.005-.005v.005c-.021 0-.027-.005-.043-.01l-.075.486c.16.038.209.262.209.498v.085c-.15.113-1.948 1.509-2.584 2.001.064-.856.326-4.045.326-4.045l-1.637-.128zm6.278 6.148c-.118-.01-.203-.043-.235-.086l-.038-.187c.005-.075.027-.171.08-.214.06-.048.161-.053.23-.048.29.027.338.117.316.31-.005.118-.021.246-.353.225m-.519-.867q-.224.19-.257.551l.156.546c.128.155.32.235.577.257.53.042.867-.204.9-.674.042-.493-.242-.798-.777-.84-.246-.022-.454.032-.599.16"/><path d="M105.57 180.89c-.08-.005-.187-.027-.23-.08-.043-.049-.043-.129-.037-.198.016-.177.059-.246.31-.23.342.032.326.166.316.283l-.065.177c-.053.042-.155.064-.294.048m-.77-.316v.091a.72.72 0 0 0 .155.471q.193.216.572.246.426.032.658-.16l.246-.52c.038-.465-.246-.764-.78-.807-.498-.037-.814.214-.851.68m-4.06-5.775q.947.111 1.075-.3c-.08.637-.449.915-1.123.84.674.075.968.428.899 1.06-.011-.316-.337-.503-.969-.573zm-3.761-6.849l-.498 4.211c-.059.487.118 1 .524 1.514.407.52.889.803 1.424.867l1.187.134.744-6.34zm-1.113-.133a.93.93 0 0 1 .428-.674q.378-.257.813-.21l3.376.38c.321.038.573.167.765.386q.29.329.241.754l-1.06 8.994-1.128-.123.192-1.626-3.911-.444q-.93-.097-1.08.353c.074-.637.443-.92 1.096-.846-.653-.074-.942-.433-.867-1.059.022.278.343.466.974.53l.738.085c-.829-.561-1.182-1.321-1.07-2.284zm-2.333 3.697q-.594-.065-.53-.594.066-.496.653-.439c.353.043.519.23.476.562-.043.353-.24.514-.6.47"/><path d="M93.51 171.76h-.005zm.059-.492c-.289-.027-.332-.134-.305-.321.01-.145.054-.252.364-.214.246.026.283.107.262.283-.016.075-.037.177-.096.22-.054.048-.15.048-.225.032m-.808-.38c-.005.042-.005.09-.005.128 0 .423.262.69.754.744.241.027.45-.016.6-.134q.231-.186.278-.556c.053-.46-.209-.77-.696-.83-.54-.059-.877.177-.93.648m3.678-3.548a.92.92 0 0 1 .642-.16l3.37.38c.263.031.456.128.605.299.123.14.188.3.188.47v.097l-1.038 8.753c-.214-.032-.412-.048-.626-.074l.192-1.622-4.162-.476c-.075-.01-.15-.01-.214-.01.053 0 .112 0 .176.01l.065-.492c-.241-.027-.407-.091-.509-.198.166.059.305.134.546.16l.744.08.17-.438c-.753-.514-1.064-1.182-.962-2.055l.492-4.216a.69.69 0 0 1 .321-.508m-.289-.401a1.16 1.16 0 0 0-.53.85l-.497 4.217c-.01.123-.027.251-.027.369 0 .636.29 1.16.712 1.62l-.075-.01c-.46-.048-.733-.166-.754-.305l-.498-.01c-.005.074-.01.139-.01.214q0 .504.315.791c-.278.166-.46.445-.514.846 0 .005-.005.01-.005.01-.005.011-.01.033-.016.043l.493.102c.074-.23.54-.209.813-.177 0 0 2.82.316 3.654.412-.037.353-.187 1.632-.187 1.632l1.626.177 1.092-9.235a1.15 1.15 0 0 0-.3-.942c-.235-.273-.546-.428-.93-.476l-3.372-.374a1.4 1.4 0 0 0-.99.246"/><path d="M98.47 174.29c-.476-.054-.888-.31-1.257-.776-.321-.406-.482-.802-.482-1.177 0-.054.005-.102.005-.15 0 0 .37-3.087.466-3.964.406.042 2.493.283 2.889.326-.054.433-.637 5.41-.696 5.848-.305-.037-.925-.107-.925-.107m-1.734-6.372l-.492 4.216c-.07.546.123 1.118.572 1.685q.676.86 1.6.963l1.429.16.802-6.826-3.884-.444zm4.224 7.142h.048c-.021.005-.026.016-.048.016zm-.187-.503l-.252-.027-.182 1.51.252.026c.278.032.733.117.749.342l.503.016c.01-.07.01-.139.01-.203 0-.342-.117-.61-.32-.803.278-.165.46-.444.518-.85v-.005c0-.011.011-.022.011-.038l-.492-.101c-.037.133-.348.187-.797.133m.107-9.837l.24-1.632 1.119.16-.235 1.627c.615.086.973-.01 1.07-.31-.097.642-.466.92-1.108.824.642.096.92.444.83 1.07-.006-.294-.327-.482-.942-.562l-11.075-1.536q-.94-.127-1.07.284.129-.932 1.091-.797c-.642-.091-.91-.455-.818-1.092 0 .3.315.503.947.589z"/><path d="M101.14 164.76l.193-1.391c.214.032.406.053.626.085-.049.354-.236 1.638-.236 1.638l.252.026c.096.022.187.022.278.027a.8.8 0 0 1-.252 0l-.07.492a.891.891 0 0 1 .45.172c-.155-.054-.273-.129-.492-.156l-11.075-1.53a2 2 0 0 0-.305-.021c.08-.01.16-.027.257-.005l.07-.487c-.118-.021-.166-.086-.252-.128.112.032.171.085.31.107L101.097 165zm-11.423-1.776c0 .267.064.497.203.68.027.037.07.053.102.085-.032.021-.091.01-.123.037-.225.166-.364.428-.428.776 0 .005-.005.01-.005.01h.005c-.005.017-.005.028-.01.044l.491.106c.038-.133.343-.176.798-.112l11.07 1.53c.454.065.727.188.733.327l.492.026a1.3 1.3 0 0 0 .021-.246 1 1 0 0 0-.342-.775c.283-.156.492-.396.567-.803.005-.01.016-.01.027-.027h-.011c0-.016.01-.021.016-.032l-.492-.112c-.049.15-.305.166-.535.16.053-.374.235-1.62.235-1.62l-1.626-.225s-.182 1.278-.241 1.632c-.471-.07-9.7-1.349-9.7-1.349-.215-.026-.728-.123-.728-.337l-.503-.032q-.016.137-.016.257"/><path d="M103.79 162.87c-.353-.048-.508-.251-.45-.589.049-.331.252-.465.605-.417.37.054.52.246.471.578-.054.342-.257.487-.626.428m-.16.995c-.354-.053-.503-.24-.455-.562.053-.347.262-.481.615-.433.37.059.524.251.47.594q-.078.481-.63.401m-6.212-2.472l3.884.583q.516.08.765.6.225.418.129.974l-.188 1.246-1.129-.171.263-1.627-3.885-.588c-.615-.091-.974.01-1.091.305.107-.642.481-.91 1.134-.819q-.98-.136-.83-1.091c.006.3.327.497.948.588"/><path d="M97.35 161.65c-.225-.027-.385-.09-.492-.198.166.07.294.144.53.182l3.884.588c.262.032.444.177.578.45q.128.255.128.567c0 .086-.005.177-.021.262l-.155 1.006c-.215-.032-.407-.064-.627-.096l.252-1.632-4.125-.615c-.107-.016-.209-.016-.305-.022a1 1 0 0 1 .273-.005zm-1.145-.62c0 .32.107.572.3.76-.032.02-.086.015-.118.036-.23.166-.38.434-.444.792 0 .027-.01.038-.01.049l.486.128c.075-.22.535-.182.808-.14 0 0 3.189.472 3.628.546l-.252 1.627 1.621.246.236-1.498c.064-.417.01-.797-.155-1.118-.204-.418-.525-.664-.963-.728l-3.88-.588c-.219-.022-.727-.129-.733-.348l-.497-.027a1.172 1.172 0 0 0-.027.262m7.475 2.581c-.118-.016-.187-.048-.23-.09l-.016-.188c.01-.075.037-.166.09-.198.054-.043.156-.043.236-.027.08.01.182.038.23.102.043.048.038.144.027.203l-.075.177c-.053.032-.144.042-.262.02m-.455-.877c-.16.113-.251.29-.289.525l.113.556c.117.15.305.246.55.29.263.036.477 0 .637-.118l.279-.493q.048-.353-.113-.578c-.117-.16-.31-.256-.572-.3-.241-.031-.45 0-.605.118"/><path d="M103.83 162.62c-.07-.005-.171-.032-.214-.086-.037-.058-.032-.15-.027-.219.032-.171.086-.246.327-.209.278.043.283.15.262.295-.027.176-.086.267-.348.219m-.733-.38a1 1 0 0 0-.016.166q0 .24.128.417c.118.15.3.252.551.29.493.069.84-.161.92-.637.065-.466-.181-.776-.69-.857-.492-.074-.823.156-.893.621m-1.007-5l.289-1.626 1.124.192-.284 1.627 2.868.476c.749.123 1.064.524.952 1.177l-.283 1.643c-.097.556.005.877.32.968-.679-.112-.957-.45-.86-1.017-.097.567-.504.792-1.2.67.306.026.514-.242.61-.809l.29-1.637-7.866-1.305c-.62-.107-.979-.016-1.091.262.112-.62.487-.872 1.14-.765q-.98-.16-.82-1.092.01.441.943.594z"/><path d="M102.34 157.29s.182-1.038.24-1.386c.215.032.413.064.632.102-.064.348-.283 1.632-.283 1.632l3.113.519c.321.053.546.155.664.315q.103.145.102.37.002.094-.022.214l-.289 1.631a7.09 7.09 0 0 0-.021.284c-.005-.032-.027-.054-.027-.08 0-.054 0-.113.016-.166l-.497-.086a.56.56 0 0 1-.209.359c.048-.118.09-.246.118-.412l.326-1.884-8.116-1.343a2 2 0 0 0-.295-.032c.08 0 .155 0 .262.011l.086-.487c-.09-.016-.107-.064-.182-.08.091.016.128.059.22.075l4.125.685zm-.209-1.712s-.187 1.032-.246 1.38c-.433-.075-3.622-.604-3.622-.604-.455-.075-.728-.198-.733-.348l-.503-.037c-.016.101-.016.192-.016.289q-.001.362.182.62c.032.048.09.075.134.118-.284.134-.492.374-.583.76-.005.005-.016.01-.022.021h.011c-.005.016-.016.027-.027.043l.487.133c.086-.208.594-.15.813-.112 0 0 6.314 1.049 7.614 1.268-.059.353-.24 1.391-.24 1.391-.043.236-.135.626-.348.61l-.06.487h.022v.005h.016c.53.08.856-.032 1.075-.22.14.242.402.45.905.541 0 0 .01.011.016.011.005 0 .016.01.032.01l.106-.48q-.176-.055-.176-.375-.002-.135.037-.327l.278-1.626a1.4 1.4 0 0 0 .027-.295c0-.251-.064-.476-.198-.663-.192-.262-.524-.433-.984-.514 0 0-1.943-.32-2.622-.438.059-.348.284-1.622.284-1.622l-1.622-.272z"/><path d="M92.87 151.93l9.888 1.82c.31.058.55.208.733.46.17.25.23.508.176.764l-.15.808-1.118-.208.16-.808-9.882-1.82c-.626-.112-.984-.026-1.091.263q.177-.94 1.124-.765-.946-.175-.76-1.113c-.016.283.294.481.92.6"/><path d="M92.43 152.04c.14.043.214.112.396.14l9.877 1.818a.85.85 0 0 1 .572.364q.16.225.16.45a.863.863 0 0 1-.01.128l-.112.562c-.209-.038-.401-.07-.615-.113.042-.235.155-.813.155-.813l-10.134-1.867c-.113-.016-.214-.021-.316-.032.08 0 .166 0 .268.021l.09-.487c-.155-.032-.23-.107-.331-.17m-.739-.712a2 2 0 0 0-.026.288c0 .236.064.445.176.61.032.049.086.075.129.113a1.06 1.06 0 0 0-.605.765c-.005.016-.021.021-.021.026h.01c-.005.022-.016.027-.016.043l.482.129c.08-.214.594-.145.802-.107 0 0 9.171 1.685 9.642 1.77-.048.241-.155.82-.155.82l1.61.293.204-1.054c.058-.32-.022-.636-.23-.947a1.35 1.35 0 0 0-.894-.567l-9.888-1.813c-.444-.08-.722-.214-.717-.354l-.497-.058c0 .016 0 .026-.005.042m12.958-.288q.885.178 1.054-.246c-.134.631-.508.888-1.134.76.626.128.872.497.743 1.118.005-.294-.289-.498-.877-.62l-10.963-2.195c-.61-.123-.968-.048-1.08.215.133-.61.518-.857 1.16-.728-.642-.128-.904-.514-.77-1.14-.011.305.294.514.904.637z"/><path d="M93.6 149.1c-.112-.021-.15-.08-.225-.123.097.037.145.086.257.107l10.963 2.199c.129.027.23.032.337.037-.096.005-.187.016-.31-.005l-.102.482c.204.043.343.107.439.208-.15-.07-.262-.144-.47-.187l-10.969-2.204c-.123-.016-.23-.022-.348-.038a.9.9 0 0 1 .327.016zm-1.065-.904v.005a1.3 1.3 0 0 0-.037.305c0 .235.059.433.166.594.037.048.09.075.128.117-.289.128-.508.359-.615.739 0 .02-.016.02-.016.026h.005c-.005.022-.021.027-.021.049l.476.139c.059-.134.358-.16.802-.07l10.963 2.2c.204.037.675.154.675.368l.492.049c.01-.016.01-.027.01-.043.017-.102.033-.209.033-.305a.99.99 0 0 0-.241-.669c.026-.016.07-.016.096-.027.235-.155.396-.422.482-.78 0 0 .005 0 .005-.006h-.005c.005-.01.016-.021.02-.042l-.48-.14c-.086.204-.52.145-.776.097l-10.958-2.205c-.22-.037-.712-.155-.701-.374l-.498-.065c-.005.011-.005.027-.005.038m13.435-3.726a.98.98 0 0 1-.514.642c-.267.14-.545.177-.845.102l-.69-.172c-.904-.214-1.59-.695-2.07-1.417-.477-.733-.621-1.51-.413-2.317l.16-.615a.92.92 0 0 1 .493-.626c.251-.134.535-.166.84-.091l3.949.957c.604.145.968.091 1.086-.17q-.234.906-1.183.673.947.231.723 1.145.04-.433-.883-.658l-3.976-.968-.155.61a1.81 1.81 0 0 0 .29 1.53c.326.476.796.792 1.396.942l.695.165.39-1.535q.203-.794-.245-.98c.658.167.92.525.775 1.076.145-.551.568-.749 1.258-.578q-.49-.055-.69.75zm-6.436-3.242q-.54-.135-.412-.632c.08-.326.304-.45.658-.364.363.091.497.3.412.626-.086.332-.3.45-.658.37m-.257.973c-.353-.09-.493-.294-.407-.615.08-.337.305-.455.664-.364.358.086.492.29.411.62-.085.327-.304.45-.668.36"/><path d="M99.34 141.96q-.177-.047-.225-.118c-.032-.053-.016-.139 0-.198.016-.064.049-.15.102-.187.059-.032.171-.021.257 0 .24.06.267.155.224.321-.042.171-.112.246-.358.182m-.38-.92c-.166.096-.278.262-.337.487a1 1 0 0 0-.032.224q.001.192.09.343c.108.166.29.283.536.348.498.117.85-.08.968-.535.118-.466-.107-.808-.594-.926-.251-.059-.465-.043-.63.059"/><path d="M99.59 140.98c-.251-.059-.273-.15-.23-.326.043-.172.107-.241.353-.182.086.021.187.059.23.117.032.06.021.145 0 .209-.043.177-.107.246-.353.182m-.717-.444c-.118.46.107.802.594.92.487.123.845-.08.968-.54a.73.73 0 0 0-.064-.578c-.102-.166-.278-.284-.53-.343-.497-.117-.85.08-.968.54m7.087 1.485c.016.005.064.021.08.021-.021.011-.042.032-.064.043-.01-.021-.005-.043-.016-.064m-1.717 1.787c-.546-.14-.958-.412-1.252-.846a1.54 1.54 0 0 1-.305-.915q-.001-.2.053-.417s.048-.198.096-.37c.247.06 1.108.268 2.135.52l-.048.144c.102.038.155.15.155.31q-.001.162-.059.386s-.235.952-.326 1.295c-.209-.054-.45-.107-.45-.107m.434 1.171l-.696-.165c-.845-.204-1.471-.637-1.92-1.322-.445-.674-.562-1.37-.375-2.119l.155-.604a.68.68 0 0 1 .37-.477.88.88 0 0 1 .663-.074l3.948.963c.134.037.246.037.37.048a.9.9 0 0 1-.348-.027l-.118.482c.203.048.342.117.433.208-.15-.07-.262-.15-.47-.203l-4.222-1.027-.214.85c-.16.605-.048 1.188.321 1.729.358.53.883.872 1.552 1.038l.936.23.444-1.777c.032-.123.037-.23.048-.337.011.032.027.065.027.102 0 .059-.01.134-.027.214l.487.123a.6.6 0 0 1 .22-.337 1.6 1.6 0 0 0-.145.385l-.396 1.536a.7.7 0 0 1-.38.481.9.9 0 0 1-.663.08m-2.707-5.125c-.316.171-.53.439-.621.792l-.155.61c-.225.877-.07 1.723.45 2.504.507.781 1.256 1.295 2.22 1.535l.684.172q.546.12 1.028-.129a1.2 1.2 0 0 0 .636-.802l.391-1.53c.102-.396.24-.589.423-.568 0 0 .016-.07.02-.096.124.07.204.14.204.214v.01l.498.081q-.001-.015.005-.032v-.021c.027-.118.048-.23.048-.337a.97.97 0 0 0-.23-.632c.038-.01.086-.005.118-.026.24-.14.406-.39.503-.728q.006.001.005-.005c0-.016.005-.027.016-.043l-.476-.155c-.06.128-.354.14-.798.032l-3.948-.958a1.4 1.4 0 0 0-1.022.113m5.062-3.804l.455-1.594 1.091.305-.454 1.589 2.814.77q1.108.298.83 1.263l-.456 1.6q-.233.818.214.995-.979-.272-.738-1.097-.24.827-1.29.546c.327.059.562-.193.723-.739l.455-1.6-7.705-2.102c-.605-.155-.974-.112-1.118.155.176-.6.578-.819 1.214-.642-.636-.177-.866-.562-.7-1.166-.027.289.267.524.877.684z"/><path d="M107.27 136.12s.289-1.011.385-1.354c.209.054.396.107.605.16-.096.349-.45 1.6-.45 1.6l3.055.83c.322.086.525.22.626.385.049.086.07.171.07.284a1.1 1.1 0 0 1-.048.3l-.45 1.594c-.037.128-.048.23-.059.342 0-.027-.026-.048-.026-.075 0-.075.016-.16.037-.235l-.481-.134a.6.6 0 0 1-.236.321 1.75 1.75 0 0 0 .155-.385l.525-1.835-7.946-2.167c-.15-.043-.262-.043-.39-.06a1.05 1.05 0 0 1 .347.044l.14-.477c-.198-.053-.338-.123-.434-.214.15.075.262.155.471.214l4.034 1.097zm-.032-1.728s-.289 1.011-.385 1.359c-.428-.118-3.553-.969-3.553-.969-.428-.123-.69-.272-.69-.417v-.01l-.492-.092v.049h-.011v.016a1.8 1.8 0 0 0-.048.364c0 .246.075.46.224.63a1.06 1.06 0 0 0-.636.686c-.011.01-.016.01-.022.026l.005.005c-.005.016-.02.016-.026.038l.465.176c.107-.198.615-.085.824-.026l7.464 2.033-.385 1.359c-.086.278-.22.604-.428.562l-.118.481c.005.005.016.005.021.005v.005h.027c.52.129.856.048 1.092-.107.112.252.353.487.84.637.005 0 .005 0 .01.005v-.005c.005.005.011.005.022.01l.17-.47c-.095-.032-.138-.14-.138-.268 0-.134.042-.289.075-.428l.46-1.594c.037-.15.059-.29.059-.428q0-.29-.129-.53c-.166-.283-.487-.497-.93-.61 0 0-1.91-.524-2.574-.7.09-.348.454-1.6.454-1.6l-1.578-.434z"/><path d="M111.25 123.09c.316.107.546.284.68.54.133.247.16.509.07.776l-4.014 11.835-1.064-.348 4.012-11.83-2.793-.914-2.99 8.817c.187.364.396.589.636.663.08.027.16.027.241-.01-.262.117-.519.144-.776.053a1.13 1.13 0 0 1-.588-.438c.139.23.182.454.101.674-.075.208-.262.38-.572.519.085-.032.139-.091.166-.193.07-.182 0-.465-.209-.83l-2.852-5.12 1.29-3.809c.181-.54.117-.883-.198-1.043q1.018.335.727 1.193c.193-.573.62-.754 1.295-.535-.337-.059-.594.187-.776.722l-1.155 3.414 1.936 3.424 2.654-7.849q.33-.955 1.407-.61z"/><path d="M104.66 130.73l2.66-7.849q.129-.362.363-.476c.177-.086.412-.08.722.016 0 0 2.767.899 2.777.904.246.086.423.22.535.417q.09.178.091.348a.6.6 0 0 1-.043.236l-3.932 11.605c-.203-.07-.38-.124-.589-.193.155-.45 4.013-11.835 4.013-11.835l-3.269-1.065-3.098 9.15.048.085c.022.054.06.086.086.134-.048-.048-.112-.059-.15-.118l-.422.273q.105.162.106.316c0 .032-.01.07-.02.101-.038-.16-.05-.3-.156-.497 0 0-2.53-4.532-2.804-5.019l1.252-3.713c.06-.155.065-.273.086-.401.005.042.021.074.021.117a.8.8 0 0 1-.053.278l.476.155a.84.84 0 0 1 .203-.32 1.8 1.8 0 0 0-.155.353l-1.198 3.52 2.263 4.008zm2.793-8.77c-.278.14-.487.397-.61.766 0 0-1.889 5.564-2.477 7.32a523.054 523.054 0 0 1-1.61-2.847c.064-.193 1.123-3.307 1.123-3.307.139-.406.3-.594.492-.556l.128-.482c-.02 0-.026 0-.037-.005q-.016.001-.027-.005c-.492-.144-.834-.075-1.075.08-.005-.031-.005-.064-.016-.09-.144-.268-.423-.471-.824-.61 0 0 0-.011-.01-.011v.01a.1.1 0 0 0-.033-.02l-.192.454c.053.022.16.08.16.305 0 .102-.026.246-.09.434l-1.328 3.916 2.916 5.211c.16.3.198.471.198.562a.2.2 0 0 1-.01.075v.01c-.016.011-.016.027-.032.038l.198.45c.005 0 .005-.005.01-.005.375-.166.605-.391.707-.675.016-.053.02-.112.026-.165.054.02.086.085.14.101.304.091.62.075.925-.059h.021v-.005c0-.005.005 0 .022-.005l-.193-.455-.08.005c-.15-.048-.295-.208-.44-.46.07-.214 2.724-8.03 2.874-8.47.364.118 1.953.632 2.312.755-.15.45-4.013 11.835-4.013 11.835l1.54.503 4.099-12.076a1.18 1.18 0 0 0-.09-.974q-.25-.459-.82-.653l-2.771-.893q-.657-.217-1.113 0m6.097-4.342l.631-1.54 1.065.416-.637 1.541 2.697 1.06c.706.278.93.727.669 1.359l-.937 2.295c-.208.498-.17.835.118.99-.642-.252-.845-.631-.631-1.167-.214.536-.658.664-1.322.402.305.08.562-.14.77-.642l.948-2.301-6.49-2.552-.241.594a1.83 1.83 0 0 0 .053 1.557q.377.777 1.258 1.129l.652.251.61-1.477c.209-.513.177-.84-.09-.995q.956.37.62 1.172c.225-.535.658-.669 1.316-.412-.31-.08-.572.134-.786.653l-.605 1.476a.96.96 0 0 1-.588.568 1.16 1.16 0 0 1-.856-.022l-.664-.262c-.856-.332-1.482-.893-1.867-1.69-.385-.787-.412-1.58-.091-2.36l.235-.589c-.503-.198-.84-.166-1 .08.24-.588.663-.754 1.279-.513q-.922-.36-.568-1.236c-.053.289.21.546.798.781z"/><path d="M113.55 118.98c.037.01.037.01.075.027-.016.005-.027.026-.048.032 0-.022-.016-.043-.027-.06m-1.958 1.552c-.525-.208-.894-.535-1.119-1a1.65 1.65 0 0 1-.181-.738q0-.317.128-.632s.08-.192.15-.353c.144.054 1.113.433 2.044.797l-.07.145c.075.042.102.128.102.23 0 .134-.054.315-.124.465l-.508 1.252c-.192-.08-.422-.166-.422-.166m-1.932-4.2c.054.027.08.06.14.086l3.889 1.525s.492-1.21.631-1.541c.209.086.386.155.589.235l-.626 1.541 2.932 1.145c.417.166.615.375.615.669a1 1 0 0 1-.085.375l-.948 2.295c-.064.15-.064.262-.085.39 0-.032-.021-.064-.021-.096 0-.085.026-.182.064-.289l-.46-.182c-.075.177-.166.284-.29.332q.106-.154.204-.396l1.038-2.525-6.955-2.734-.338.824a2.076 2.076 0 0 0 .06 1.754c.283.573.748.996 1.39 1.242l.9.353.695-1.707c.064-.16.07-.273.09-.401.012.037.044.07.044.107a.6.6 0 0 1-.075.283l.47.188a.57.57 0 0 1 .236-.273 2 2 0 0 0-.171.331l-.61 1.477a.7.7 0 0 1-.439.423c-.214.085-.444.075-.685-.016l-.658-.257c-.803-.316-1.37-.835-1.728-1.578a2.6 2.6 0 0 1-.29-1.177c0-.321.065-.653.199-.98l.337-.818s-.198-.08-.225-.086c.032.005.054.005.08.016l.183-.454c-.049-.022-.049-.06-.097-.08m-.802-.975h-.005v.032c-.06.161-.102.322-.102.466 0 .134.027.268.08.385.022.049.07.08.102.123-.31.086-.562.278-.733.632-.005.01-.021.016-.027.026l.005.005c-.01.01-.021.016-.032.032l.455.225c.075-.112.257-.091.45-.037l-.14.32a3.1 3.1 0 0 0-.235 1.167c0 .466.112.936.342 1.396.407.846 1.087 1.456 2.001 1.814l.659.257c.353.15.706.15 1.048.027a1.23 1.23 0 0 0 .728-.706l.605-1.472c.155-.38.315-.556.486-.514 0 0 .038-.085.054-.15.899.354 1.857.734 1.99.787-.155.37-.845 2.065-.845 2.065-.155.375-.31.546-.481.503l-.156.471c.016.005.022 0 .032.005.011 0 .027 0 .038.005.396.145.744.171 1.016.054.022-.005.032-.027.054-.037.01.026.005.053.01.08q.188.4.76.631s0 .01.006.01v-.004c.016.005.016.01.032.016l.219-.439q-.112-.07-.112-.246c0-.118.032-.262.112-.45l.936-2.29c.086-.197.118-.385.118-.561 0-.492-.31-.878-.92-1.124 0 0-1.83-.706-2.472-.963.133-.332.631-1.54.631-1.54l-1.53-.595s-.487 1.199-.626 1.536c-.412-.16-3.42-1.348-3.42-1.348-.416-.16-.647-.332-.647-.471 0-.01 0-.016.005-.027l-.476-.139c-.01.021-.01.027-.016.043"/><path d="M105.78 110.42l9.197 3.943c.295.134.498.332.605.616q.16.425.005.786l-.337.755-1.038-.44.337-.754-9.203-3.954c-.572-.246-.947-.246-1.118.016q.4-.89 1.29-.503-.891-.382-.498-1.262c-.075.283.176.545.76.797"/><path d="M105.25 110.37c.128.086.24.182.433.268l9.198 3.943a.84.84 0 0 1 .47.476.8.8 0 0 1 .065.326.7.7 0 0 1-.054.279l-.24.53c-.198-.086-.38-.161-.578-.247l.342-.754-9.427-4.056c-.188-.075-.316-.08-.471-.112.128-.01.262.01.428.08l.203-.45c-.182-.085-.3-.176-.369-.283m-.46-.813h-.01v.032c-.076.187-.13.364-.13.524 0 .177.076.327.156.471-.31.075-.573.268-.76.637-.005.01-.016.01-.021.021l.005.005a.06.06 0 0 0-.027.027l.444.235c.123-.187.61-.005.808.08 0 0 7.592 3.259 8.967 3.853-.101.22-.342.76-.342.76l1.498.636.444-.979a1.25 1.25 0 0 0 .005-.974q-.207-.521-.743-.754l-9.198-3.949v.005c-.417-.187-.653-.374-.615-.508l-.476-.166c-.005.016 0 .022-.005.043m12.68 2.594c.54.246.904.251 1.08.005q-.41.86-1.278.46.867.403.45 1.263c.08-.278-.156-.54-.707-.797l-10.139-4.671c-.562-.252-.925-.262-1.107-.027.278-.578.717-.733 1.305-.46q-.884-.41-.476-1.268c-.086.289.16.567.722.83z"/><path d="M107.19 107.7a.9.9 0 0 1-.358-.251c.123.09.219.176.39.256l10.144 4.666c.171.08.294.086.439.118a.8.8 0 0 1-.417-.091l-.22.45c.107.042.123.106.193.165-.086-.048-.129-.102-.23-.15l-10.14-4.67c-.208-.092-.347-.102-.518-.14a.9.9 0 0 1 .497.096zm-.824-1.108h-.005v.038c-.086.187-.14.364-.14.53 0 .155.07.289.14.417-.048.016-.096.01-.14.027-.267.09-.48.315-.646.631 0 .005-.005 0-.005.005-.005.01-.016.021-.022.032l.428.257c.091-.129.385-.08.797.107l10.144 4.67c.182.081.621.311.568.509l.47.171c.011-.016.005-.032.011-.048l.005.005c.005-.01.005-.027.01-.043.076-.187.135-.364.135-.535a.9.9 0 0 0-.06-.32c-.015-.05-.053-.076-.074-.113.305-.07.567-.257.754-.62.011-.006.016-.006.027-.017l-.005-.005c.01-.01.021-.016.027-.032l-.434-.246c-.128.177-.54.021-.775-.086l-10.145-4.67c-.182-.086-.589-.29-.589-.493v-.042l-.466-.172c-.01.016-.005.027-.01.043m20.194-.772c-.332-.187-.401-.433-.22-.733.167-.3.423-.348.75-.166.331.187.406.428.235.717-.182.305-.433.364-.765.182m-.508.861c-.327-.187-.407-.417-.241-.711.171-.284.417-.337.749-.15.332.182.412.423.24.706q-.257.436-.748.155m.444-5.65q.409.235.535.653a.98.98 0 0 1-.096.803l-3.029 5.12c-.342.589-.845.706-1.487.337l-3.547-2.006c-.54-.305-.894-.337-1.076-.113.327-.545.76-.663 1.316-.353q-.833-.466-.342-1.294c-.123.278.08.567.62.872l3.559 2.011 3.017-5.12-2.552-1.445-1.6 2.697c.123.375.284.626.498.75a.55.55 0 0 0 .278.069c-.321.07-.594.042-.808-.08-.225-.124-.38-.327-.481-.6.074.273.058.503-.049.68-.117.208-.342.342-.653.401a.26.26 0 0 0 .177-.128c.107-.188.107-.466-.005-.846l-1.455-4.596.513-.861q.434-.738.065-1.028c.594.332.738.75.444 1.252q.442-.752 1.343-.246c-.3-.128-.594.065-.888.562l-.295.503.862 2.723 1.016-1.733c.15-.24.386-.412.701-.503q.483-.145.878.08z"/><path d="M120.04 98.1c.086-.134.14-.262.182-.375 0 .005.005.011.005.022a.7.7 0 0 1-.112.342l.433.246a.64.64 0 0 1 .31-.267c-.096.102-.192.171-.283.337l-.353.594 1.064 3.365 1.311-2.22c.107-.187.284-.316.551-.39.252-.076.471-.06.674.058l2.542 1.44a.88.88 0 0 1 .423.508.8.8 0 0 1 .032.219.7.7 0 0 1-.113.39l-3.017 5.12c-.279.472-.62.547-1.15.252l-3.548-2.011c-.086-.054-.166-.08-.246-.118.075.027.15.032.235.08l.252-.428c-.027-.021-.021-.037-.054-.053.038.016.049.042.08.059l3.773 2.129 3.274-5.543-2.986-1.69-1.776 3 .032.103c.01.032.027.048.038.08-.022-.037-.06-.048-.08-.096l-.477.15c.021.09.032.17.032.25 0 .033-.01.054-.021.081-.01-.112-.016-.225-.059-.364 0 0-1.257-3.964-1.423-4.483.085-.156.455-.787.455-.787m-.305-.952c.053.043.07.107.07.176 0 .15-.097.364-.199.535l-.567.958 1.482 4.698c.06.192.086.337.086.433a.4.4 0 0 1-.054.22h.005c-.005 0-.005.005-.016.005l.102.486q.585-.112.818-.513c.027-.038.022-.086.038-.123.053.037.09.096.15.128.267.15.588.182.957.107v.005-.005h.027l.888-.198-.974-.294-.117-.038c-.129-.07-.246-.262-.332-.513.102-.177 1.199-2.028 1.396-2.376.332.193 1.793 1.011 2.125 1.199-.225.374-2.553 4.312-2.772 4.692-.38-.225-3.339-1.889-3.339-1.889-.165-.096-.524-.315-.524-.497a.1.1 0 0 1 .016-.06l-.455-.224q.001.014-.005.021h-.005c-.005.016-.005.038-.01.06-.107.208-.188.417-.188.604 0 .085.005.171.027.246.005.032.037.054.054.086-.043.01-.08.01-.113.016q-.417.112-.706.588h-.01l.004.005c-.005.01-.016.01-.016.021l.418.279c.08-.113.364-.049.743.17l3.548 2.007c.765.428 1.418.278 1.835-.422l3.028-5.126c.182-.316.225-.648.118-.995a1.35 1.35 0 0 0-.653-.798l-2.536-1.439c-.332-.182-.685-.214-1.075-.101-.38.112-.67.315-.846.62 0 0-.438.733-.733 1.236l-.658-2.081c.075-.118.24-.407.24-.407.15-.251.37-.54.568-.46l.225-.439c-.01-.005-.016-.005-.027-.005q.001-.006-.005-.005c-.476-.262-.802-.224-1.07-.117-.032-.273-.187-.562-.631-.83a.1.1 0 0 0-.022-.032v.005c-.01-.005-.01-.021-.026-.021zm6.435 9.322c-.107-.059-.177-.123-.193-.182-.016-.054.005-.118.054-.193.07-.128.144-.208.396-.058.117.058.182.128.198.187l-.048.182c-.075.128-.15.208-.407.064m-.583-.62a.8.8 0 0 0-.118.4q-.002.088.021.167.082.287.428.486c.45.252.851.166 1.092-.246l.102-.567q-.075-.28-.428-.487c-.455-.251-.851-.16-1.097.246"/><path d="M126.49 105.43v-.043c0-.043.021-.107.064-.176q.066-.114.14-.14c.064-.015.155.017.262.076s.176.122.198.187q.016.07-.049.182c-.101.17-.187.23-.428.096-.07-.048-.16-.107-.187-.182m.075-.835a.73.73 0 0 0-.45.37.76.76 0 0 0-.107.594c.049.192.193.347.418.481.46.257.856.155 1.107-.273.118-.192.156-.385.107-.562-.059-.192-.198-.358-.438-.487q-.346-.193-.637-.122M128.8 92.95l-3.408 4.751c-.332.46-.375.808-.14 1.033-.588-.401-.7-.84-.363-1.322-.337.482-.787.535-1.348.15.288.144.593-.016.936-.487l3.167-4.42-4.403.557c-.423.064-.701.182-.819.353a.43.43 0 0 0-.085.246c-.049-.294-.005-.535.139-.738.128-.187.331-.31.604-.358a.98.98 0 0 1-.743-.172c-.198-.128-.332-.358-.402-.668.005.08.06.155.156.219q.282.194.91.09l5.489-.705c.251.176.417.412.476.69a.95.95 0 0 1-.166.781"/><path d="M128.38 91.74c.166.14.294.284.337.482.01.053.016.112.016.165q0 .225-.144.418l-3.409 4.756a2 2 0 0 0-.219.396c0-.01-.01-.021-.01-.032 0-.134.069-.257.15-.37l-.418-.288c-.064.096-.15.123-.22.166.07-.075.14-.113.214-.22l3.5-4.874-4.976.632c-.07.01-.118.032-.177.048.038-.016.054-.054.107-.064l-.085-.487c-.08.01-.15-.011-.225-.022.075-.01.139-.01.214-.016-.005 0 4.67-.604 5.345-.69m.07-.503l-5.485.701c-.465.08-.658.005-.727-.043 0 0-.022-.027-.043-.037-.005-.016-.021-.022-.021-.043h-.016c-.038-.032-.6-.551-.6-.551l.123.669c.091.369.263.647.509.813.064.037.144.037.208.064-.048.043-.096.075-.133.129a1.05 1.05 0 0 0-.198.642c0 .07.005.15.02.23v.042l.172.905.332-.953.037-.096c.038-.053.172-.182.648-.251l3.83-.487a1654.7 1654.7 0 0 0-2.835 3.964c-.182.23-.428.509-.615.407l-.263.417c.011.01.016.01.032.016h-.005c.016.011.038.011.06.022.315.198.625.3.904.246.032 0 .058-.022.085-.032.021.273.177.578.583.877.005.005.011.016.016.016h.005c.011.01.016.022.027.027l.321-.375c-.128-.128-.07-.363.171-.716l3.414-4.746c.209-.3.278-.62.203-.969a1.3 1.3 0 0 0-.588-.845l-.07-.059zm1.75-1.787l1.038-1.279.888.69-1.043 1.28c.492.384.845.47 1.075.277-.412.498-.866.546-1.38.15.514.396.567.846.16 1.338q.216-.38-.524-.958l-8.743-6.822c-.492-.385-.845-.476-1.07-.289q.604-.737 1.36-.15c-.504-.39-.557-.84-.145-1.342q-.225.393.514.963z"/><path d="M122.02 83.34c.064.059.09.107.166.171l8.058 6.282s.813-.996 1.038-1.274c.17.134.326.252.497.385-.225.273-1.043 1.28-1.043 1.28l.198.149c.064.054.123.075.176.118-.053-.038-.101-.027-.17-.08l-.311.39a.9.9 0 0 1 .267.31c-.096-.107-.176-.203-.315-.315l-8.748-6.822c-.075-.064-.14-.086-.214-.128.064.026.123.021.192.074l.31-.39c-.064-.043-.053-.096-.1-.15m-.413-1.113l-.005-.005c-.01.027-.01.048-.016.07-.171.23-.289.465-.289.695q-.001.05.005.107c.005.027.027.06.032.091-.315-.005-.62.156-.888.466v.005c-.01.016-.021.016-.037.032l.363.337c.107-.096.39.01.744.294l8.748 6.822c.358.284.53.524.46.642l.423.278c.01-.01.005-.026.01-.037h.011c.01-.021.005-.043.021-.064.161-.23.279-.46.279-.68 0-.075-.043-.144-.06-.214.044 0 .092.01.13.01.283-.037.55-.192.786-.475h.01c0-.011.016-.016.027-.032l-.37-.337c-.117.101-.347-.016-.535-.145.236-.283 1.028-1.263 1.028-1.263l-1.28-.995s-.818.995-1.043 1.274c-.374-.295-7.667-5.982-7.667-5.982-.305-.236-.47-.45-.47-.583a.2.2 0 0 1 .015-.07l-.417-.273c-.005.01-.005.022-.016.032"/><path d="M129.27 84.49l2.99 2.499q.403.338.349.893a1.67 1.67 0 0 1-.407.894l-1.113 1.278-.872-.722 1.359-1.557-2.99-2.498c-.477-.396-.84-.509-1.071-.327q.644-.744 1.391-.118-.744-.624-.134-1.321-.225.369.498.979m-2.579-.765c-.294-.246-.332-.508-.09-.787.224-.251.475-.251.78 0 .273.225.305.471.086.723-.246.278-.498.3-.776.064"/><path d="M126.85 83.55c-.22-.182-.193-.294-.064-.439l.155-.107c.07-.005.171.043.267.129.091.075.14.144.145.192.005.064-.043.134-.086.182-.053.06-.134.134-.208.14-.07.004-.156-.049-.21-.097m.055-1.033l-.503.268q-.219.262-.22.524c0 .214.118.423.343.616.182.16.38.23.578.214s.38-.123.545-.31c.155-.172.22-.349.209-.536-.016-.192-.123-.374-.316-.535q-.323-.265-.636-.24m2.156 2.112c.021.016.027.027.043.054l2.996 2.498c.182.15.267.337.267.578q.001.057-.005.107a1.5 1.5 0 0 1-.353.754s-.642.739-.952 1.092c-.166-.145-.316-.268-.482-.407.257-.289 1.354-1.546 1.354-1.546l-3.183-2.665c-.118-.101-.22-.155-.327-.219.107.032.204.048.327.15l.331-.375c-.01-.01-.005-.016-.016-.021m-.503-1.241v-.005.01c-.203.241-.315.487-.315.739 0 .021.005.048.005.064.005.043.032.075.043.118-.327-.016-.637.133-.92.438q-.01-.001-.011.005c-.011.016-.027.022-.038.038l.348.353c.123-.091.396.027.75.321 0 0 2.15 1.803 2.797 2.338l-1.353 1.557 1.252 1.038 1.278-1.466a1.87 1.87 0 0 0 .466-1.016c.048-.466-.102-.835-.428-1.119l-2.991-2.498c-.353-.295-.524-.54-.455-.658l-.407-.29c-.005.006-.01.022-.021.033M167.04 194.29q.152-.145.278-.289a5.73 5.73 0 0 0 .236-.3l.02-.042c.295-.466.547-.985.745-1.552a10 10 0 0 0 .417-1.872l.037-.118-.016-.128q-.001-.12-.01-.37v-.385l.01-.123-.053-.107c-.06-.32-.14-.6-.23-.824a2.2 2.2 0 0 0-.348-.6l-.102-.053-.085-.134-.075-.02a.85.85 0 0 0-.375-.21 2.4 2.4 0 0 0-.599-.074.223.223 0 0 1-.086.042c-.026.022-.075.027-.139.043a1.88 1.88 0 0 0-.979.765q-.336.545-.47 1.61c-.011.011-.011.022-.017.043a.7.7 0 0 0-.048.172c.005.026.01.064.021.101.005.027.005.043.011.054 0 .064-.005.112 0 .171 0 .059.01.112.01.171q.002.058.011.171.016.106.016.156l.038.042c.01.129.037.273.08.444q.073.256.273.84a.5.5 0 0 1 .086.14.6.6 0 0 1 .026.192l.011.096.059.177.118.07c.08.106.192.294.353.577q.225.426.417.642l.096.118.08.14a.4.4 0 0 0 .086.09c.022.032.054.08.097.134m1.252 2.713q-.2-.041-.776-.605a19 19 0 0 0-.98-.894.5.5 0 0 1-.101.075 1 1 0 0 1-.155.091l-.209.209-.208.054-.252.085-.128-.005-.246.027q-.064-.009-.129-.027c-.037-.021-.101-.053-.17-.09a1 1 0 0 1-.226-.022.5.5 0 0 1-.165-.102l-.08-.128a.35.35 0 0 0-.124-.128.465.465 0 0 0-.166-.049 2 2 0 0 1-.256-.374 1.3 1.3 0 0 1-.166-.321l-.022-.16-.128-.183c-.037-.208-.07-.39-.09-.545a3 3 0 0 1-.038-.391l-.016-.171.026-.086-.032-.278c.005-.048.022-.112.022-.187a4 4 0 0 0 .059-.402l.155-.61a.3.3 0 0 1 .037-.112.3.3 0 0 1 .075-.032h.07a.4.4 0 0 0 .064-.032q.025-.009.043-.01c.048 0 .085.005.117.026.027.016.038.049.043.091a.2.2 0 0 1-.01.054c0 .021-.017.053-.033.096-.021.043-.027.064-.037.096a.2.2 0 0 0-.011.06c0 .01.005.026.01.031a.1.1 0 0 0 .049.06l.075.395-.01.016c-.044.155-.07.273-.065.348 0 .021.016.075.048.139.005.016.005.021.01.032l.044.027c.032.182.096.39.203.615s.166.37.187.433l.027.091.048.038q.17.32.412.503.25.192.476.176h.075a.144.144 0 0 0 .043-.016l.268-.059-.075-.134a.6.6 0 0 1-.14-.144 1 1 0 0 1-.139-.225l-.058-.032-.252-.401-.043-.14-.037-.042-.15-.24a1 1 0 0 0-.064-.135 1 1 0 0 0-.107-.123c-.021-.058-.064-.144-.107-.267a6.096 6.096 0 0 1-.128-.273l-.005-.107-.112-.144a8 8 0 0 1-.247-.867 3 3 0 0 1-.08-.487v-.059l.032-.155-.07-.193-.004-.101c-.022-.428.01-.846.096-1.263a5 5 0 0 1 .417-1.166l.187-.412.214-.295.075-.07.054-.154.289-.364.096-.054c.037-.059.08-.112.118-.155a.35.35 0 0 1 .107-.09q.239-.265.503-.418a2 2 0 0 1 .561-.225.7.7 0 0 1 .225-.123 1 1 0 0 1 .257-.059c.07 0 .14.005.225.016.08.021.166.043.267.075l.166-.027c.214.06.423.172.615.337.198.156.402.37.6.643l.037.133c.096.129.171.252.22.39.053.135.09.284.096.445v.021c-.005.043 0 .086 0 .134q-.001.014.005.037c.037.172.058.29.064.37a4 4 0 0 1-.096 1c0 .016.01.043.01.07 0 .032.011.07.011.112.005.086.005.171.005.246q0 .121-.016.236l-.037.16-.005.182c-.005.043-.032.102-.06.182l-.02.059a.77.77 0 0 1-.027.198q-.017.094-.043.166v.133c-.08.343-.182.69-.316 1.044q-.215.536-.503 1.08l-.101.118-.06.171-.267.412-.107.08-.165.268-.032.134-.273.3a.6.6 0 0 0 .085.289c.049.074.14.144.268.224l.235.252.08.134c.14.15.295.294.477.438.176.15.39.316.652.509l.075.144a.8.8 0 0 1 .31.171c.097.097.14.177.15.241 0 .037-.016.075-.058.118a.4.4 0 0 1-.166.101c-.016.075-.043.123-.091.155q-.063.056-.182.054l-.096.01c-.086-.015-.15-.037-.198-.048q-.064-.026-.113-.042a.34.34 0 0 0-.09-.129c-.022-.021-.06-.026-.097-.026-.021.005-.043.005-.048.005q-.024.006-.048.005a.4.4 0 0 1-.21-.075.7.7 0 0 1-.197-.188m4.887-6.732l.337-.118.107.011.059-.112.353-.182.16.005.129-.112.37-.06.213-.17.187-.08.268-.161c-.038-.06-.07-.097-.086-.118a.2.2 0 0 1-.026-.053c-.005-.032-.016-.075-.016-.129 0-.021-.011-.032-.011-.048l-.07-.187-.037-.22-.14-.465-.08-.08a1 1 0 0 1-.032-.145c-.005-.043-.02-.09-.037-.144a8 8 0 0 0-.155-.444 10 10 0 0 0-.214-.46l-.188-.247a2.5 2.5 0 0 0-.422-.235.55.55 0 0 0-.268-.059l-.15.342-.053.236.048.203-.085.926-.113.16.08.278-.101 1.081-.09.509zm-.096 5.19c-.016.005-.027.005-.043.005-.021 0-.043 0-.075.01a1 1 0 0 1-.09.049c-.033.027-.065.048-.097.075l-.14-.021a2 2 0 0 1-.122-.284c-.027-.07-.043-.134-.06-.193-.02-.042-.026-.085-.031-.107-.011-.032-.011-.059-.011-.075l.027-.32-.06-.75.054-.117-.07-.198-.042-.958.021-.123-.037-.102-.225.075a.6.6 0 0 1-.155-.101.23.23 0 0 1-.064-.118c-.011-.043-.011-.085-.011-.128a1 1 0 0 1 .043-.16l-.129-.135.027-.583.07-.16-.032-.097.454-.347.032-.097-.037-.15.032-.572.054-.214-.065-.273-.01-.915.02-.139.017-.257-.048-.139.085-1.616a.56.56 0 0 1 .112-.267c.06-.086.097-.145.097-.182l-.246-.16-.08-.332a.8.8 0 0 0 .165-.225l.01-.005c.033-.016.07-.037.124-.054q.19-.064.23-.192l.064-.52.14-.133.427-.551c.172-.043.29-.059.337-.043.049.027.086.086.113.187.005.005.005.022.005.032.005.011.005.022 0 .022l-.022.358.038.257-.07.37.385.133.375.075a.3.3 0 0 1 .246.096c.07.064.144.187.214.343q.143.21.246.428c.07.144.123.32.187.508q.008.055.049.246c.016.08.037.128.042.166l.054.289.123.166c.005.037.032.09.054.166q.113.352.155.465c.016.075.048.203.09.396.049.193.092.337.118.455l.054.176.139-.032c.027.06.054.102.064.14.011.031.027.058.032.085a.8.8 0 0 1 .027.209c.005.037.01.07.01.085a.3.3 0 0 1-.053.107.4.4 0 0 1-.086.107l.102.209.091.519.187.91.091.267v.235l.112.69.038.134c.026.097.043.193.048.31 0 .118-.01.236-.037.37a.14.14 0 0 1 .037.059c.01.026.021.042.021.048q.05.19-.246.647a.523.523 0 0 1-.053.08l-.065-.074-.187-.669-.246-.813-.112-.444-.049-.332-.144-.252-.134-.652.005-.097-.203-.69-.262.086-.14.176-.278.177-.139-.016-.032.064-.117-.01-.118.15-.589.454-.107.155-.123.038-.08.133-.39.23h-.097c-.032.038-.048.204-.027.493s.016.55-.02.808l.026.433-.01.589-.06.16.043.3v.572c.005.15.005.294.01.418m6.259-11.651a.6.6 0 0 0-.112.021q-.057.017-.16.06l-.07-.017-.032.043c.01.037.01.07-.005.085a.2.2 0 0 1-.086.065 1 1 0 0 1-.086.032c-.02.005-.042.016-.07.021l-.037.054-.096.026a.8.8 0 0 1-.107.14 2 2 0 0 1-.187.133h-.08l-.054.102a2 2 0 0 1-.187.15c-.097.08-.188.155-.241.22a.2.2 0 0 1-.043.053c-.005.01-.021.016-.027.016-.032.01-.053.005-.08-.016a.4.4 0 0 1-.09-.118l-.07-.144c0-.027.01-.054.016-.08v-.043q-.023-.034-.038-.043c-.01-.027 0-.07.021-.123l.016-.01-.07-.097-.09-.412a.8.8 0 0 0-.016-.321l.01-.016c0-.086.033-.16.08-.22a.6.6 0 0 1 .22-.155l.107-.123.492-.272.032-.022c.022-.005.049-.01.07-.01s.043.01.07.02a.34.34 0 0 1 .09-.122c.043-.027.097-.059.156-.086l.631-.31c.016 0 .043-.016.086-.021a.5.5 0 0 1 .187-.043c0-.005.01-.01.016-.021.032-.027.064-.043.075-.06.01 0 .043.011.09.017.011.005.027.005.043.01l.118-.074a.3.3 0 0 1 .112-.027l.188-.027.101-.037q.066-.032.14-.054c.048-.01.09-.016.138-.021.038.016.08.021.107.032.032.005.054.01.07 0 .01 0 .016-.016.027-.032.005-.016.01-.038.016-.049q.016-.016.026-.016c.005-.01.022-.01.027-.02q.097-.034.187.069c.075.064.145.192.225.38l.021.176c.011.01.022.038.043.075.075.129.112.22.134.268q.025.056.01.096c-.004.027-.026.043-.064.059l-.021.005c-.021 0-.037.005-.075.005-.075.016-.166.037-.257.059q-.145.039-.412.134-.062.001-.09-.005a.16.16 0 0 1-.076-.032.5.5 0 0 1-.053.096.16.16 0 0 1-.07.059l-.144.042c-.054.027-.145.06-.284.124l-.005.042-.07.075h.199l.16.102.177.026c.059.107.117.188.166.247a.7.7 0 0 0 .181.155l.054.112c.032.08.059.155.08.235.027.07.038.156.06.23l.004.102.107.203.112.578-.016.123.086.102.102.588.032.027.192.92.027.065.054.412q.013.032.037.059c.01.02.01.037.021.048a.171.171 0 0 1 .022.08 1 1 0 0 1 .005.134l.048.043a30 30 0 0 1 .3.947q.087.299.117.492a.5.5 0 0 0-.021.123q0 .057.027.107s.02.027.053.064c.027.043.049.086.075.112a6.7 6.7 0 0 0 .193.632c.07.208.144.401.224.588l.011.07.075.09c.016.027.027.054.043.076.016.026.026.059.048.101.037.086.048.15.048.209a.46.46 0 0 1-.059.209l-.09.016-.005.165-.032.043h-.075l-.06.064c-.069-.026-.128-.048-.16-.064-.037-.01-.059-.037-.08-.059l-.118-.198-.005-.203a.7.7 0 0 1-.123-.134.5.5 0 0 1-.085-.15c-.032-.042-.07-.08-.091-.112q-.031-.05-.054-.107l-.128-.332-.011-.101c-.027-.027-.032-.054-.043-.064-.016-.011-.021-.022-.026-.032-.011-.022-.011-.038-.011-.054-.01-.021-.01-.032-.01-.037l-.108-.123-.139-.348-.016-.129c-.01-.026-.016-.064-.021-.085-.016-.032-.037-.06-.054-.097q-.023-.04-.053-.08l-.16-.401c-.012-.064-.022-.134-.044-.209q-.038-.098-.101-.251c-.01-.027-.032-.065-.06-.123-.026-.065-.053-.107-.069-.14l-.042-.25-.107-.247-.113-.348c0-.026.005-.053 0-.08s-.01-.059-.026-.091-.022-.059-.032-.075-.022-.043-.038-.053a5 5 0 0 0-.171-.477 6 6 0 0 1-.22-.717l-.015-.08-.049-.118-.053-.235c.005-.01.005-.021.005-.043q.014-.13-.011-.17c0-.012-.01-.028-.021-.044s-.032-.032-.054-.048l-.09-.182-.215-.786a.5.5 0 0 0 .016-.118c0-.027-.01-.054-.016-.075-.016-.021-.021-.043-.042-.075l-.07-.09zm6.94 1.32l.294-.203.102-.016.027-.123.3-.268.149-.032.096-.144.343-.145.16-.225.16-.128.22-.225c-.053-.042-.096-.07-.117-.09a.2.2 0 0 0-.049-.049c-.01-.027-.021-.064-.048-.123q-.009-.014-.01-.037l-.129-.16-.096-.204-.252-.417-.101-.054c-.027-.048-.049-.102-.075-.134-.016-.037-.043-.08-.07-.128a4 4 0 0 0-.273-.385 4 4 0 0 0-.332-.396l-.235-.193a3 3 0 0 0-.481-.123.7.7 0 0 0-.273.021l-.06.375.017.23.096.187.171.926-.064.171.15.246.192 1.076.049.519zm1.284 5.03c-.016.004-.021.01-.037.015-.016 0-.038.016-.065.032-.032.016-.053.043-.08.065-.016.032-.043.059-.07.096l-.139.016-.192-.24c-.043-.065-.08-.118-.112-.172-.022-.043-.049-.08-.06-.102-.01-.026-.02-.042-.02-.058l-.07-.327-.252-.695.011-.134-.112-.166-.3-.915-.005-.118-.07-.096-.197.14a.34.34 0 0 1-.166-.065.27.27 0 0 1-.107-.096c-.016-.043-.032-.08-.038-.118a.5.5 0 0 1 0-.171l-.16-.097-.134-.567.021-.17-.053-.092.348-.444v-.107l-.08-.134-.113-.561-.01-.225-.145-.246-.246-.878-.01-.144-.06-.257-.085-.118-.348-1.589c-.01-.09 0-.187.037-.278a.5.5 0 0 0 .049-.209l-.279-.085-.17-.31a1 1 0 0 0 .09-.257l.01-.011a1 1 0 0 1 .118-.075c.113-.075.16-.16.16-.252l-.074-.513.102-.16.267-.648q.231-.137.31-.128c.049.005.102.058.16.15.006.01.017.02.017.031q.006.008.005.016l.07.354.101.24.032.38.407.021.385-.026a.38.38 0 0 1 .273.032c.085.053.182.144.3.283.123.107.24.225.342.353.112.118.214.268.316.44.02.036.064.111.123.23.032.064.059.117.08.15l.128.261.166.123c.022.043.054.086.097.15.139.203.224.343.267.417q.058.097.203.354c.097.165.177.31.241.412l.096.165.123-.074a1 1 0 0 1 .097.112.873.873 0 0 0 .059.08c.016.032.042.091.085.193.005.037.022.064.027.085-.005.043-.005.08-.021.118a.4.4 0 0 1-.06.123l.156.176.23.477.417.829.155.23.07.225.294.636.07.118q.08.129.128.289c.027.112.054.23.065.364q.032.023.059.053c.016.022.02.032.032.043.064.107.037.337-.065.68-.016.048-.026.07-.032.09l-.08-.042-.37-.61-.454-.723-.23-.395-.123-.305-.214-.204-.305-.594-.01-.096-.386-.61-.23.15-.096.203-.209.246-.144.011-.016.08-.113.016-.08.172-.444.599-.059.176-.107.065-.054.15-.304.326-.097.021c-.026.043.01.209.107.476.102.279.16.54.193.792l.144.407.14.572-.011.172.123.267c.064.22.112.401.155.551.037.145.075.284.112.407m5.066-9.599a.34.34 0 0 0 .086-.123.4.4 0 0 0 .037-.16c.021-.054.048-.113.08-.166.038-.06.08-.129.134-.193l-.005-.176.09-.102-.031-.14.193-.454.085-.07-.064-.224.15-.246-.027-.22c.037-.09.07-.187.08-.294q.023-.154.022-.348l-.005-.412a1.3 1.3 0 0 0-.065-.182.4.4 0 0 0-.08-.123c-.096-.107-.321-.182-.68-.235-.144-.016-.262-.037-.347-.048l-.07.02a3.94 3.94 0 0 0-.605.14 3.3 3.3 0 0 0-.604.284l-.535.31-.118.005c-.016.043-.043.07-.059.102a1 1 0 0 1-.053.058.3.3 0 0 1-.086.054q-.056.025-.064.043a.3.3 0 0 0-.08.09.8.8 0 0 0-.07.161c.016.118.043.209.054.262a.4.4 0 0 0 .058.129.2.2 0 0 0 .054.032c.027.01.043.021.059.032l.508.519-.09-.29a.4.4 0 0 1 0-.154.6.6 0 0 1 .074-.15c-.005-.032-.01-.064 0-.096q0-.034.027-.06a.2.2 0 0 1 .112-.053.7.7 0 0 1 .166.01.3.3 0 0 0 .134.102c.043.022.09.032.155.022l.16.294.022.09.096.172.112.086.188.422.08.065.321.572zm2.665 4.259l-.182.139-.107.016-.156.027a2 2 0 0 1-.224-.118c-.054-.032-.102-.08-.145-.117a2 2 0 0 1-.112-.15 1.2 1.2 0 0 1-.134-.198l-.085-.155-.568-.723-.155-.257-.406-.583-.284-.112-.139.016a1.5 1.5 0 0 1-.22-.08 1 1 0 0 1-.197-.118l-.075-.096-.102-.075a.8.8 0 0 1 .021-.47q.09-.25.075-.354l-1.086-1.327-.144-.144-.45-.514-.075-.128-.123-.08-.283-.343s-.016 0-.027-.016a.5.5 0 0 1-.166-.118c-.01-.01-.021-.026-.032-.037-.01-.016-.037-.048-.064-.107a1 1 0 0 1-.145-.117.7.7 0 0 1-.123-.124 1.48 1.48 0 0 1-.412-1.043c0-.385.134-.695.402-.92.096-.091.251-.187.476-.31a3.87 3.87 0 0 1 .669-.305l.583-.204q.865-.29 1.675-.17c.535.09.963.31 1.278.652.225.246.353.53.39.834q.051.45-.165 1.124l.005.107-.123.417-.107.091v.278l-.193.61-.107.177-.016.123-.428.942-.01.273c.396.192.845.305 1.353.326.509.032.814.054.894.086l.101-.016c.61.02 1.103.053 1.488.09.38.032.583.07.615.097l.128-.065q.08.015.182.022.105.013.337.026l.091-.042.182.037.102.043a.351.351 0 0 1 .278.027l.487.556q.006.04.005.059c-.005.016-.005.032-.016.037a.25.25 0 0 1-.16.07q-.099.014-.284-.027l-.658.075-.551.155-.172-.016-.085.059a3.027 3.027 0 0 0-.551-.027c-.204.016-.332 0-.375-.037l-.23.016-1.08.037-.391-.032-.113.032-.3-.016-.08-.048-.518.048.465.835.45.695.278.477z"/></g><path d="M142.34 148.67l.182 3.692h.963s-.032-1.338-.14-1.584c-.111-.246-.823-1.509-.823-1.509z" fill="#fff"/><path d="M142.22 146.5l.128 3.237 1.868-.251s-.53-3.623-1.996-3.029" fill="#fff"/><path d="M139.79 117c-.428-.22-.803-.7-.99-1.284a4.4 4.4 0 0 1-.23-1.407c0-.06.016-.123.021-.182 1.354.669 1.76 1.701 1.884 2.097.059.166.085.321.085.439a.79.79 0 0 1-.064.31c-.037.06-.075.097-.139.112-.155.054-.358.022-.567-.085m-9.219 20.492c0-1.755 1.46-3.467 3.697-4.152 2.237-.696 4.36-.546 6.148.417 1.808.985 3.151 2.788 3.863 5.062-1.161.781-2.584 1.455-4.345 1.996-4.312 1.332-8.357.294-9.213-2.355a3.2 3.2 0 0 1-.15-.968m10.214-30.128c-1.808.556-3.27 1.648-4.28 3.146-1.017.053-1.948.193-2.815.455-5.018 1.551-7.27 5.03-7.27 8.298 0 .733.117 1.455.336 2.14 1.584 4.939 6.469 5.185 10.776 5.404 5.629.252 8.716 1.086 9.93 4.87.177.556.263 1.117.263 1.674a5.5 5.5 0 0 1-.872 2.97c-2.413-5.33-7.946-7.93-13.611-6.18-2.312.706-4.222 2.215-5.238 4.12-.867 1.626-1.038 3.45-.498 5.141 1.471 4.559 7.11 6.463 13.43 4.521a23.35 23.35 0 0 0 2.552-.947s.498-.246 1-.503c-.24 1.466-.834 2.756-1.69 3.516a1.74 1.74 0 0 0-.492 1.84c.128.423.412.76.797.958.396.198.878.235 1.343.09 1.14-.352 3.472-3.338 3.472-7.752 0-.31-.032-.626-.053-.947 2.103-1.932 3.242-4.291 3.242-6.774a8.95 8.95 0 0 0-.439-2.712c-2.118-6.581-8.432-6.961-13.044-7.234-4.783-.31-6.902-.797-7.624-3.05a3.8 3.8 0 0 1-.176-1.15c0-.68.176-1.37.519-2.017.53-.996 1.717-2.355 4.301-3.157.182-.054.412-.102.669-.155-.01.182-.064.342-.064.53 0 .748.123 1.535.353 2.247.872 2.712 3.403 4.253 5.768 3.525.899-.272 1.6-.861 2.049-1.696a4.1 4.1 0 0 0 .476-1.942c0-.46-.075-.915-.214-1.364-.353-1.097-1.075-2.702-3.21-3.853 0 0-.075-.026-.177-.074.434-.359.9-.653 1.44-.824.497-.15.909-.466 1.118-.867a1.4 1.4 0 0 0 .166-.674c0-.145-.016-.29-.065-.44-.3-.93-1.23-1.422-2.167-1.133" fill="#fff"/><path d="M138.04 113.17c-.209.824-.203 1.739.118 2.75.417 1.295 1.53 2.07 2.402 1.803.658-.208.792-.958.556-1.701-.235-.739-.861-2.22-3.076-2.852m-7.962 25.495c.985 3.044 5.388 4.227 10.06 2.788 1.92-.594 3.632-1.37 4.949-2.339-1.322-5.024-5.608-8.068-11.022-6.399-2.879.889-4.784 3.451-3.987 5.95m19.946-7.774c.99 3.098.15 6.452-2.846 9.047.482 4.933-2.15 8.074-2.932 8.315-.572.177-1.124-.059-1.305-.61a1.09 1.09 0 0 1 .3-1.161c1.155-1.017 1.995-2.895 2.043-5.147-.615.342-1.31.712-2.065 1.049-.755.331-1.573.636-2.488.915-5.586 1.722-11.177.294-12.584-4.094-1.118-3.467 1.193-7.164 5.291-8.426 5.677-1.75 11.257 1.15 13.232 6.832a6.06 6.06 0 0 0 1.434-6.126c-1.412-4.387-5.232-5.088-10.535-5.33-4.392-.224-8.737-.454-10.176-4.938-1.113-3.467.744-7.838 6.501-9.62a11.426 11.426 0 0 1 2.97-.454c.877-1.434 2.284-2.585 4.12-3.146.567-.172 1.14.107 1.332.711.16.503-.214.98-.787 1.15a4.95 4.95 0 0 0-2.434 1.665c.38.139.76.278 1.049.438 1.861 1 2.54 2.365 2.894 3.473.53 1.664-.123 3.643-1.867 4.184-1.92.588-4.13-.61-4.933-3.103-.343-1.065-.423-2.355-.16-3.35-.514.054-1.162.15-1.638.294-4.489 1.392-5.864 4.709-5.083 7.154.91 2.814 3.724 3.221 8.224 3.504 4.697.279 10.465.637 12.445 6.774" fill="#54c7e6"/><path d="M138.25 152.32l-.021.005v-.037l-2.248.749c-7.25 3.146-10.438 11.739-7.624 20.476 2.788 8.689 9.834 12.932 17.528 10.567 4.992-1.536 7.245-4.607 8.149-6.298.69-1.31 1.043-2.643.845-3.253a1.9 1.9 0 0 0-.91-1.097 1.58 1.58 0 0 0-1.193-.112c-.53.166-.984.637-1.128 1.183-.803 2.98-3.227 5.232-6.812 6.334-2.546.787-5.045.616-7.228-.492-2.729-1.396-4.874-4.173-6.046-7.817a16.7 16.7 0 0 1-.83-5.136c0-4.585 2.023-8.657 5.635-10.754l.112-.064.07-.102c.278-.348 1.193-.685 1.819-.845l.262.059.134-.049c4.376-1.07 7.512 1.011 8.357 3.617.46 1.455.07 2.392-1.182 2.772-.664.203-1.573.07-2.488-.364l-1.006-.482.144 3.82.444.14c1.391.454 2.756.497 3.943.128 1.44-.439 2.537-1.3 3.168-2.493.695-1.295.786-2.91.267-4.532-1.321-4.104-5.922-7.459-12.162-5.923" fill="#fff"/><path d="M154.24 174.73c-.198-.605-.781-.931-1.263-.781a1.07 1.07 0 0 0-.68.717c-.85 3.156-3.37 5.607-7.254 6.805-6.63 2.044-12.006-2.14-14.13-8.742-2.05-6.394-.364-13.478 5.11-16.656.556-.717 2.305-1.118 2.305-1.118.091.005.182.032.273.053 4.644-1.145 8.17.985 9.16 4.05.262.835.685 2.89-1.621 3.601-.803.247-1.878.123-2.98-.4l.08 2.262c1.225.39 2.45.455 3.531.123 2.97-.915 3.826-3.617 2.991-6.195-1.273-3.981-5.66-6.886-11.348-5.49.005-.01.005-.027.005-.043-.872.273-1.696.562-2.215.744v.032c-7.079 3.04-9.807 11.546-7.212 19.625 2.541 7.897 8.962 12.52 16.688 10.144 7.33-2.263 8.796-7.988 8.56-8.732" fill="#54c7e6"/><path d="M138.58 128.23l.177 5.613 2.562.775-.278-6.088zm3.78 30.79l.326 7.25-2.809.085-.235-8.999zm-55.3 93.62l1.113-1.487c.31-.412.722-.91 1.049-1.306l-.016-.016c-.477.187-1.06.46-1.536.637l-1.733.642zm-2.43-.915l-2.096.787-1.188-1.622 8.304-2.857 1.498 2.05-5.174 7.11-1.236-1.685 1.343-1.803zm8.67 1.045l1.327 1.418-4.976 4.633 2.322 2.488-1.166 1.086-3.65-3.91zm3.23 9.59l-.85.92-2.457-2.247.851-.93zm-.46 4.77l3.29-7.977 1.675 1.225-1.509 3.178c-.433.91-.925 1.894-1.31 2.664l.016.011a67 67 0 0 1 2.188-2.055l2.606-2.348 1.669 1.209-1.525 3.269a43 43 0 0 1-1.29 2.536l.027.016c.648-.68 1.386-1.364 2.114-2.06l2.584-2.36 1.594 1.156-6.72 5.474-1.696-1.236 1.536-3.344c.364-.776.711-1.493 1.193-2.327l-.021-.016a37 37 0 0 1-1.921 1.803l-2.782 2.434zm13.51 4.47l.364-1.814c.101-.519.257-1.134.38-1.632l-.022-.016c-.347.386-.754.883-1.107 1.242l-1.284 1.332zm-2.584.235l-1.546 1.606-1.777-.942 6.25-6.17 2.241 1.2-1.594 8.65-1.835-.984.428-2.21zm8.254-2.795l1.787.685-1.322 3.467.038.01c.294-.235.588-.443.877-.652l2.81-1.905 2.225.845-3.927 2.328 1.07 5.564-2.114-.808-.663-4.13-1.006.562-.979 2.552-1.798-.685zm7.9 6.66l.738.187c.942.241 1.616-.08 1.793-.792.187-.749-.23-1.246-1.092-1.487a5 5 0 0 0-.867-.15zm-.968-3.97a17.37 17.37 0 0 1 2.541.47c1.236.311 2.05.707 2.525 1.317.396.514.525 1.145.332 1.889-.257 1.043-1.193 1.562-1.974 1.637l-.005.032c.519.374.7 1 .722 1.803.027.984.01 2.108.096 2.461l-1.926-.487c-.075-.267-.101-.973-.096-2.043.037-1.07-.251-1.434-1.011-1.638l-.573-.15-.808 3.195-1.862-.466zm10.608 6.91l-.31-1.83c-.091-.513-.16-1.15-.225-1.658h-.027c-.187.47-.39 1.086-.594 1.551l-.727 1.696zm-2.338 1.134l-.872 2.065-1.996-.256 3.65-7.994 2.52.321 1.588 8.647-2.07-.257-.38-2.215zm8.448-5.484l.048 3.226 3.194-.059-.048-3.22 1.926-.033.14 8.39-1.932.037-.059-3.515-3.189.048.054 3.515-1.942.027-.14-8.39zm10.08 5.95c.551.177 1.386.316 2.204.182.878-.134 1.285-.562 1.199-1.108-.075-.513-.53-.749-1.6-.941-1.482-.262-2.52-.878-2.707-2.087-.225-1.407.813-2.68 2.814-2.996.952-.15 1.686-.06 2.22.08l-.187 1.584a4.1 4.1 0 0 0-1.835-.118c-.83.123-1.172.562-1.102.99.08.53.6.685 1.75.92 1.583.305 2.407.963 2.589 2.13.22 1.386-.69 2.74-3.012 3.103-.969.15-1.959.048-2.477-.123zm8.25-4.13c.171-.005.37-.048.642-.123.99-.262 1.471-.926 1.247-1.75-.204-.749-.851-1.043-1.782-.797-.38.107-.631.209-.754.29zm-2.852-3.173c.557-.246 1.343-.535 2.488-.85 1.15-.31 2.033-.31 2.702-.033.637.268 1.177.846 1.391 1.638.214.786.129 1.53-.24 2.118-.482.766-1.354 1.28-2.456 1.584a4.553 4.553 0 0 1-.648.134l.776 2.89-1.846.507zm9.842 1.323c.626 1.514 1.798 2.29 2.996 1.798 1.21-.498 1.44-1.91.819-3.425-.573-1.39-1.75-2.306-2.986-1.797-1.209.497-1.45 1.91-.829 3.424m5.682-2.461c1.049 2.541.107 4.735-2.21 5.687-2.348.969-4.446-.208-5.355-2.418-.947-2.322-.15-4.687 2.188-5.645 2.44-1.006 4.5.236 5.377 2.376m2.688-1.969l.663-.375c.84-.476 1.103-1.171.739-1.808-.38-.669-1.033-.738-1.814-.31a4.41 4.41 0 0 0-.728.487zm-3.451-2.183a17.95 17.95 0 0 1 2.156-1.423c1.108-.632 1.97-.91 2.734-.797.637.096 1.172.46 1.552 1.134.53.926.22 1.947-.294 2.536l.02.037c.638-.09 1.2.23 1.772.798.7.684 1.471 1.503 1.776 1.706l-1.723.98c-.235-.14-.754-.632-1.487-1.402-.712-.792-1.172-.862-1.867-.487l-.509.294 1.632 2.863-1.669.952zm8.391-3.397l-1.857 1.354-.936-1.284 5.318-3.874.942 1.29-1.894 1.369 3.997 5.49-1.573 1.145zm15.1-4.49c-.134.38-.573 1.075-1.31 1.808-2.103 2.082-4.458 1.873-6.138.177-2.017-2.033-1.653-4.633.188-6.458.717-.7 1.396-1.102 1.76-1.215l.781 1.343a4.2 4.2 0 0 0-1.38.931c-1.086 1.081-1.295 2.563.016 3.885 1.182 1.198 2.648 1.236 3.873.016.418-.412.787-.953.958-1.333zm-5.16-6.5l1.23-1.514 5.276 4.28 2.146-2.654 1.236 1-3.371 4.163zm4.68-6.1l4.072 2.595c1.209.781 2.134.7 2.664-.134.551-.861.262-1.707-.984-2.499l-4.067-2.595 1.038-1.631 3.965 2.53c2.183 1.391 2.499 3.173 1.295 5.062-1.161 1.824-2.83 2.268-5.083.83l-3.943-2.516zm10.48-4.13c.102-.16.203-.37.337-.663.375-.798.407-1.632-.39-2.012-.771-.353-1.397.198-1.809 1.08l-.278.59zm-3.37-1.578l.267-.578c.433-.915.294-1.584-.268-1.851-.578-.268-1.086.037-1.46.829-.182.385-.263.61-.305.776zm-3.72.374c.124-.503.493-1.471.905-2.338.498-1.07.91-1.68 1.498-2.097.53-.402 1.236-.551 1.926-.23.669.32 1.113 1.016 1.022 2.038l.021.016c.653-.776 1.61-1.124 2.595-.669.685.321 1.07.9 1.231 1.557.177.77-.016 1.835-.738 3.376-.407.862-.76 1.477-1 1.846z" fill="#191719"/><path d="M30.79 48.42c-.578 2.097-4.57 17.095-6.934 39.261-3.146 29.513-3.66 74.151 11.733 119.22 17.972 52.6 53.167 93.381 104.61 121.2 51.417-27.806 86.725-68.544 104.94-121.09 15.634-45.099 15.35-89.7 12.365-119.18-2.263-22.242-6.201-37.298-6.774-39.406-34.837-15.131-71.47-22.798-108.9-22.798-.61 0-1.214-.005-1.83-.005-37.629 0-74.364 7.672-109.21 22.803m109.41 280.95l-.267-.144c-51.846-27.961-87.308-69-105.4-121.96-15.463-45.264-14.944-90.08-11.787-119.7 2.552-23.922 6.998-39.545 7.046-39.7l.07-.257.24-.102c35.383-15.404 72.756-23.103 110.95-23h.782c37.672 0 74.542 7.736 109.6 23l.24.102.07.257c.043.155 4.441 15.843 6.881 39.855 2.996 29.588 3.28 74.365-12.418 119.66-18.341 52.91-53.916 93.91-105.73 121.86z" fill="#191719"/><path d="M140.48 345.81h-.562v-17.073h.562zM251.86 48.53l-.423-.37 11.942-13.867.428.369zm-221.83.61L17.59 34.662l.423-.364 12.44 14.478z" fill="#191719"/></svg>