<svg viewBox="0 0 291.97 342" xmlns="http://www.w3.org/2000/svg"><g transform="matrix(1.3962 0 0 1.3962 -71.692 -46.675)"><path d="m154.398 277.445c-14.48-9.12-28.886-19.16-42.824-29.84-8.62-6.605-12.945-9.921-16.59-13.503-6.261-6.153-11.316-13.973-15.02-23.247-5.554-13.906-8.097-31.042-7.558-50.933-.62-13.652-3.254-27.043-7.836-39.805a135.8 135.8 0 0 0 -12.168-25.285l-1.054-1.719 50.554-59.683 2.125 1.87c10.07 8.845 22 14.981 34.496 17.747a75 75 0 0 0 16.18 1.758c.367 0 .73 0 1.09-.008h.184c.37.008.75.008 1.132.008 5.457 0 10.903-.59 16.176-1.758 12.5-2.766 24.426-8.902 34.496-17.746l2.13-1.871 50.554 59.683-1.059 1.719a135.5 135.5 0 0 0 -12.164 25.285c-4.582 12.762-7.219 26.153-7.84 39.805.543 19.89-2 37.027-7.558 50.933-3.703 9.274-8.754 17.094-15.02 23.247-3.644 3.582-7.969 6.898-16.582 13.5-14.004 10.734-28.414 20.773-42.832 29.843l-1.472.934zm0 0" fill="#020505"/><path d="m257.04 93.375-47.423-55.984c-6.48 5.691-18.508 14.562-35.73 18.37a77.7 77.7 0 0 1 -17.957 1.813h-.051a77.7 77.7 0 0 1 -17.953-1.812c-17.223-3.809-29.254-12.68-35.73-18.371l-47.426 55.984a138.3 138.3 0 0 1 12.417 25.8c5.711 15.919 7.532 30.208 8 40.723-1.238 44.832 13.61 64.23 21.747 72.223 3.523 3.461 7.793 6.734 16.332 13.277 17.527 13.434 32.511 23.332 42.613 29.696q.017.01.027.015a.1.1 0 0 0 .024-.015c10.37-6.528 25.293-16.418 42.613-29.696 8.539-6.543 12.808-9.816 16.332-13.277 8.137-7.992 22.988-27.39 21.746-72.223.469-10.515 2.29-24.804 8-40.722a138.8 138.8 0 0 1 12.418-25.801" fill="#fff"/><path d="m183.29 134.195-5.2 9.012 5.195 9.012 8.488.004a38 38 0 0 0 2.282-13.004 41 41 0 0 0 -.332-4.98l-.032-.04zm1.882-19.371a39 39 0 0 0 -4.531-4.547l2.609 4.555zm0 0" fill="#ee2633"/><path d="m146.898 102.41a37 37 0 0 0 -8.246 3.125l6.45-.012zm0 0" fill="#020505"/><path d="m167.09 142.902 10.41-.011 5.21-9.016-5.218-9.016-10.398.008-5.207 9.02zm-5.805-28.05 5.215-9.012-2.113-3.652a38.7 38.7 0 0 0 -8.313-.903 37.5 37.5 0 0 0 -8.3.914l-2.087 3.625 5.215 9.031zm-26.547 9.378 10.375-.004 5.192-9.027-5.207-9.004-7.668-.004c-1.532.863-3 1.84-4.38 2.906l-3.527 6.114zm-3.128-13.984a39 39 0 0 0 -4.606 4.621l1.953.02zm30.292 42.336 5.215 9.012 10.399-.016 5.195-9.004-5.203-9.011h-10.418zm0 0" fill="#ee2633"/><path d="m173.512 105.5c-2.582-1.348-5.36-2.375-8.25-3.113l1.797 3.117zm-27.942 19.05 5.278 9.141 10.535-.027 5.273-9.113-5.3-9.172-10.52.023zm40.133-9.042-2.426-.004-5.203 9.02 5.2 9.019 10.363-.024a37.9 37.9 0 0 0 -7.934-18.011" fill="#020505"/><path d="m145.133 161.621 5.21-9.023-5.198-9.028-10.407.024-5.191 9.011 5.21 9.012zm0 0" fill="#ee2633"/><path d="m128.957 115.54-2.504.003a37.84 37.84 0 0 0 -7.879 18.043l10.383-.023 5.203-9.004zm0 0" fill="#020505"/><path d="m145.727 143.262 5.203 8.984h10.394l5.192-9.023-5.22-8.996-10.382-.012zm4.628 28.015-5.199-9.004-10.394.008-3.36 5.797a37.8 37.8 0 0 0 16.098 8.157zm0 0" fill="#ee2633"/><path d="m178.102 161.91 3.265 5.66a38 38 0 0 0 10.16-14.683l-8.23.02zm0 0" fill="#020505"/><path d="m150.957 171.617-2.758 4.766c2.582.547 5.215.844 7.926.824 2.73.012 5.39-.281 7.96-.832l-2.753-4.766zm0 0" fill="#ee2633"/><path d="m128.969 152.934-8.27.02a37.9 37.9 0 0 0 10.2 14.675l3.28-5.68zm0 0" fill="#020505"/><path d="m120.457 152.281 8.527-.02 5.188-9.007-5.2-9.023-10.437.027-.082.14a42 42 0 0 0 -.305 4.895c.012 4.543.813 8.93 2.31 12.988" fill="#ee2633"/><path d="m161.324 152.898-10.394.016-5.184 9.04 5.195 9 10.391-.013 5.2-9.03zm0 0" fill="#020505"/><path d="m145.121 142.918 5.192-9.02-5.204-9.023-10.375.027-5.195 9 5.211 9.02zm21.984 19.328-5.195 9.027 2.856 4.946a37.6 37.6 0 0 0 16.09-8.203l-3.34-5.77zm15.583-47.078-3.489-6.05a39.5 39.5 0 0 0 -4.472-2.954h-7.66l-5.196 9.027 5.203 9.016 10.422-.008zm0 0" fill="#ee2633"/><path d="m167.117 161.59-5.219-9.008 5.192-9.02h10.414l5.2 9.012-5.188 9zm-.027-18.688-5.203-9.015 5.207-9.02 10.398-.008 5.223 9.016-5.211 9.015zm-16.16 9.352-5.203-8.992 5.187-9.047 10.383.012 5.219 8.996-5.192 9.023zm10.355-36.75 5.23 9.047-5.206 8.988-10.387.027-5.203-9.02 5.191-9.027zm-16.176 9.371 5.204 9.023-5.192 9.02-10.367.004-5.215-9.02 5.195-9zm-10.351 36.742-5.211-9.012 5.2-9.011 10.398-.024 5.199 9.02-5.211 9.031zm16.187 9.34-5.195-9.004 5.184-9.039 10.386-.016 5.215 9.016-5.207 9.027zm42.75-36.762.028.043-.012-.043-.074-.656.058-.004-10.422.008-5.203-9.02 5.215-9.019 2.418.004-.531-.656v-.028l-1.914.008-2.617-4.55-.032-.016-1.414-1.14-.004-.009 3.496 6.051-5.19 9.024-10.419.015-5.203-9.015 5.2-9.028h7.648l-1.211-.664-6.446-.004-1.804-3.11-.871-.194 2.105 3.648-5.21 9.012-10.38.004-5.219-9.035 2.094-3.622-.883.207-1.789 3.114-6.457.011-1.218.66h7.664l5.21 9.005-5.195 9.03-10.379.005-5.214-9.02 3.53-6.113-.019.012-1.41 1.136h-.012l-2.652 4.641-1.95-.012-.546.668 2.492-.004 5.203 9.02-5.203 9.004-10.398.023h.015l-.023.223-.063.426-.03.164.085-.141 10.43-.027 5.203 9.023-5.188 9.008-8.527.012.242.648.004.031 8.27-.02 5.207 9.012-3.281 5.684v.02l.511.43 3.352-5.798 10.394-.008 5.2 9.004-2.852 4.957h.016l.648.153.027-.004 2.758-4.766 10.387-.008 2.746 4.766.672-.157-2.844-4.945 5.192-9.027h10.41l3.347 5.77.493-.438.011-.008-3.265-5.66 5.195-9.004 8.23-.02.247-.664-8.489-.004-5.195-9.012 5.2-9.011zm0 0" fill="#020505"/><path d="m154.86 77.36s-.239 1.578.66 1.796c0 0 .648.258 1.25-.523.613-.754 3.101-6.715-2.118-11.875 0 0 .786 4.176-1.043 7.594-.543 1.085-1.527 3.523-.718 4.515 0 0 1.082 1.246 1.968-1.508m1.153 13.629s-.114 1.637-.977 1.7c0 0-.672.113-1.039-.77-.379-.906-1.363-7.383 4.488-11.57 0 0-1.644 4.05-.691 7.851.277 1.211.633 3.844-.324 4.692 0 0-1.246 1.035-1.457-1.903m5.519-9.851c.043.015-.07.3 0 .636.07.348.313.598.535.774a.85.85 0 0 0 .516.074c1.11-.234 1.703-3.39 1.113-5.844-.183-.765-.691-2.328-2.297-3.89 0 0 .606 3.258-.8 5.922-.442.836-1.211 2.746-.563 3.496.13.129.305.246.492.226.586-.058.907-1.426 1.004-1.394m-.347 8.973s-.77 1.085.004 1.624c0 0 .523.47 1.351.141.836-.312 5.153-3.75 2.055-9.844 0 0-.68 3.48-3.527 5.285-.91.586-2.633 2.012-2.22 3.106 0 0 .567 1.387 2.337-.313m-9.172-6.386s.37 1.039-.325 1.312l-1.082-.21c-.582-.454-3.187-4.216.485-8.4 0 0-.223 2.962 1.61 5.075.57.68 1.62 2.234 1.062 3.016 0 0-.75.96-1.75-.793m-1.778 6.683s.727 1.008.016 1.516c0 0-.512.45-1.273.14-.758-.3-4.797-3.492-1.922-9.132 0 0 .632 3.226 3.28 4.894.849.54 2.474 1.867 2.063 2.887 0 0-.523 1.285-2.164-.305" fill="#ee2633"/><path d="m165.102 95.04a1.25 1.25 0 0 0 -1.23-1.255l-15.93.027c-.7-.007-1.258.54-1.239 1.243l.637 1.074-.492 1.297c-.02 1.05.824 1.886 1.879 1.898l.308-.039c.621.992 1.516 1.836 2.57 2.453.11.782.579 1.418 1.2 1.793l1.011 11.324 4.204.004.992-11.343a2.35 2.35 0 0 0 1.183-1.774 7.4 7.4 0 0 0 2.59-2.46l.317.023a1.887 1.887 0 0 0 1.87-1.899l-.503-1.281zm0 0" fill="#020505"/><path d="m155.2 130.176.007.066.715.598.73-.586 1.368-15.39-4.203-.005zm0 0" fill="#ee2633"/><path d="m214.578 144.328c.953-3.996.176-6.488.176-6.488-.516 1.156-1.504 1.691-3.774 2.941-1.148.633-1.914 1.664-2.449 2.774.145-1.477.215-2.95.203-4.47a70 70 0 0 0 -.07-2.233c.809-.301 5.035-2.059 5.75-5.59.55-2.672-.191-3.305.008-5.719 0 0-.71 1.129-4.488 3.105-.992.528-1.563 1.34-1.856 2.262a44 44 0 0 0 -.855-4.176c1.18-.906 4.258-3.656 4.234-7.078-.02-2.883-.894-3.328-1.195-5.86 0 0-.473 1.364-3.832 4.462a4.3 4.3 0 0 0 -1.242 2.07c-.492-1.32-1.075-2.613-1.68-3.867.508-.55 3.957-4.36 2.813-7.711-.793-2.293-2.696-4.5-3.536-5.5.266.406.688 1.566-.593 4.031-1.204 2.32-.36 5.442.406 7.399a52 52 0 0 0 -4.867-7.453c.578-.887 3-5.008 1.343-7.973-1.222-2.125-3.468-3.961-4.5-4.781.372.359.985 1.425.168 4.062-.738 2.375.48 5.125 1.551 6.93a50.5 50.5 0 0 0 -5.637-5.664c.29-.692 2.176-5.387-.109-8.012-1.586-1.816-4.14-3.148-5.293-3.746.399.289 1.207 1.195.89 3.875-.32 2.652 1.774 5.3 3.208 6.777a54.5 54.5 0 0 0 -6.305-4.394c-.914-1.79-3.504-5.875-7.805-5.621-5.523.347-7.16-.266-7.16-.266 2.176 2.004 1.918 2.977 4.684 5.004 3.445 2.555 8.832 1.969 10.265 1.762a46 46 0 0 1 2.938 1.972c-1.434-.62-3.148-.925-4.945-.234-4.817 1.844-6.461 1.766-6.461 1.766 2.511 1.156 2.55 2.082 5.597 3.093 3.98 1.348 8.891-.918 9.84-1.394a53 53 0 0 1 4.344 4.363c-1.566-1.035-3.61-1.902-5.996-1.758-5.336.34-5.996.559-5.996.559 2.379 1.61 2.285 2.543 5.183 4.098 3.426 1.84 7.899.898 9.54.449a51 51 0 0 1 2.32 3.406c-.985-.676-2.145-1.125-3.543-1.121-5.235.035-6.766-.617-6.766-.617 1.965 2 1.688 2.883 4.211 4.922 2.813 2.289 7.195 2.328 9.086 2.234.617 1.277 1.168 2.61 1.688 3.945-.833-.914-1.91-1.644-3.325-1.937-5.097-1.07-6.445-2.035-6.445-2.035 1.508 2.359 1.047 3.144 3.074 5.656 2.301 2.906 6.746 3.836 8.504 4.098q.448 1.795.766 3.625c-.551-.977-1.371-1.848-2.57-2.34-4.692-1.961-5.747-3.18-5.747-3.18.805 2.664.125 3.406 1.391 6.324 1.621 3.77 6.547 5.45 7.644 5.79.055.745.06 1.476.047 2.226.008.89-.011 1.754-.062 2.625-.293-1.383-.977-2.73-2.383-3.621-4.164-2.688-4.984-4.02-4.984-4.02.355 2.676-.403 3.274.343 6.293.989 3.86 5.418 6.332 6.442 6.867a51 51 0 0 1 -1.836 7.7c.293-2.332.312-5.676-1.543-7.77-2.465-2.793-2.746-2.96-3.133-4.566.352 1.464-.98 3.882-.793 7.007.258 3.852 3.586 6.84 4.64 7.688a50 50 0 0 1 -2.788 6.133c.449-1.63.691-3.625.156-5.613-.86-3.086-1.563-3.293-3.02-5.762 0 0-.402 1.77-1.945 5.554-1.734 4.286 1.73 7.922 2.945 9.051a61 61 0 0 1 -2.789 4.008c.254-.82.403-1.672.305-2.582-.285-3.168-1.547-4.152-2.156-6.918 0 0-1.082 1.152-3.223 4.637-2.21 3.594-.129 8.637.508 10.043a36 36 0 0 1 -2.926 2.687 6.5 6.5 0 0 0 .793-2.926c.04-3.144-.887-3.96-1.187-6.761 0 0-1.04 1.61-3.88 4.547-2.984 3.066-1.624 7.238-.843 9.02a52 52 0 0 1 -4.32 2.542c.957-.875 1.78-1.996 2.175-3.355.817-3.012.024-3.754.422-6.504 0 0-1.277 1.207-5.308 3.386-3.621 1.95-2.711 7.149-2.324 8.778-.829.226-2.075.578-3.575 1.039-3.882 1.187-6.867 2.3-10.246 3.57-1.215.457-2.886 1.09-4.875 1.88a473 473 0 0 0 -6.633-2.423 428 428 0 0 0 -9.851-3.351q-1.103-.344-2.2-.684c.383-1.644 1.282-6.84-2.359-8.789-4.015-2.16-5.312-3.371-5.312-3.371.422 2.734-.375 3.48.453 6.496.383 1.36 1.21 2.469 2.176 3.371a55 55 0 0 1 -4.348-2.547c.793-1.789 2.121-5.96-.82-9-2.86-2.941-3.918-4.554-3.918-4.554-.305 2.78-1.207 3.62-1.157 6.77.02 1.062.313 2.038.782 2.92-1-.862-1.996-1.741-2.93-2.698.648-1.387 2.703-6.473.504-10.032-2.156-3.484-3.238-4.64-3.238-4.64-.594 2.77-1.856 3.742-2.149 6.906-.093.922.051 1.785.34 2.602a53 53 0 0 1 -2.816-4.016c1.218-1.121 4.687-4.773 2.933-9.039-1.554-3.805-1.972-5.574-1.972-5.574-1.418 2.488-2.157 2.683-2.97 5.777-.554 1.992-.3 4.004.145 5.621a49 49 0 0 1 -2.793-6.14c1.036-.844 4.391-3.836 4.606-7.688.191-3.137-1.145-5.539-.781-7.008-.395 1.602-.672 1.778-3.125 4.563-1.864 2.094-1.832 5.465-1.536 7.781a51.5 51.5 0 0 1 -1.859-7.703c1.031-.524 5.453-2.992 6.43-6.867.746-3.008 0-3.614.351-6.293 0 0-.82 1.34-4.988 4.035-1.406.89-2.082 2.246-2.383 3.61a37 37 0 0 1 -.062-2.614c.004-.758.015-1.488.039-2.238 1.11-.332 6.035-2.024 7.644-5.793 1.266-2.918.57-3.657 1.375-6.328 0 0-1.046 1.21-5.714 3.18-1.227.511-2.055 1.363-2.594 2.359a48 48 0 0 1 .765-3.637c1.766-.273 6.188-1.211 8.512-4.102 2.031-2.515 1.563-3.324 3.035-5.648 0 0-1.34.926-6.425 2.023-1.403.301-2.489 1.036-3.31 1.938.493-1.34 1.079-2.656 1.661-3.934 1.914.086 6.285.047 9.094-2.246 2.515-2.054 2.254-2.937 4.226-4.937 0 0-1.53.644-6.78.625a6.14 6.14 0 0 0 -3.548 1.136c.73-1.168 1.5-2.308 2.324-3.41 1.641.446 6.11 1.367 9.524-.46 2.922-1.567 2.793-2.52 5.18-4.106 0 0-.653-.227-5.973-.55-2.41-.15-4.445.722-6.02 1.765a55 55 0 0 1 4.348-4.38c.945.47 5.856 2.743 9.852 1.403 3.027-1.031 3.078-1.941 5.597-3.105 0 0-1.664.066-6.496-1.774-1.777-.676-3.496-.39-4.93.239a64 64 0 0 1 2.926-1.97c1.45.22 6.832.786 10.274-1.769 2.742-2.035 2.504-2.992 4.683-5.02 0 0-1.648.61-7.152.29-4.324-.262-6.89 3.824-7.813 5.633a56 56 0 0 0 -6.3 4.394c1.445-1.48 3.523-4.137 3.215-6.805-.329-2.664.46-3.574.894-3.855-1.172.617-3.746 1.934-5.309 3.758-2.277 2.617-.398 7.312-.093 7.992a57 57 0 0 0 -5.649 5.684c1.098-1.81 2.301-4.56 1.563-6.922-.813-2.649-.215-3.707.156-4.082-1.039.836-3.285 2.66-4.476 4.8-1.66 2.957.746 7.086 1.332 7.977a52.3 52.3 0 0 0 -4.848 7.453c.75-1.953 1.594-5.09.394-7.422-1.289-2.445-.882-3.586-.597-4.004-.848.98-2.735 3.192-3.524 5.5-1.152 3.356 2.309 7.164 2.817 7.696-.606 1.273-1.188 2.57-1.68 3.879a4.34 4.34 0 0 0 -1.246-2.067c-3.36-3.105-3.82-4.445-3.82-4.445-.305 2.523-1.196 2.96-1.203 5.844 0 3.421 3.066 6.164 4.23 7.093a48 48 0 0 0 -.824 4.16c-.309-.917-.863-1.722-1.863-2.25-3.782-1.984-4.489-3.117-4.489-3.117.2 2.414-.543 3.055.004 5.723.719 3.527 4.945 5.297 5.738 5.594-.015.722-.047 1.484-.035 2.23.004 1.5.067 2.988.184 4.453-.508-1.082-1.281-2.125-2.438-2.746-2.27-1.258-3.261-1.785-3.797-2.965 0 0-.77 2.504.2 6.508.777 3.309 5.113 3.578 6.601 3.598.418 2.441 1 4.82 1.758 7.164-.8-1.418-2.09-2.906-4.04-3.203-3.452-.52-3.937-2.551-3.937-2.551.04.516.461 4.531 1.832 6.566 1.918 2.832 6.329 2.121 7.118 1.965a55 55 0 0 0 2.597 5.766c-.953-.91-2.297-1.707-4.125-2.043-3.418-.586-3.84-1.246-4.61-1.969 0 0 .731 3.27 2.864 6.125 2.84 3.848 7.25 2.031 8.047 1.649a55.4 55.4 0 0 0 4.817 6.453 9.8 9.8 0 0 0 -4.676-1.414c-2.996-.145-3.309-.782-5.383-1.551 0 0 1.559 3.168 3.883 5.633 3.437 3.668 8.133.941 9.015.363a52 52 0 0 0 4.395 3.89 10.1 10.1 0 0 0 -4.152-.363c-2.864.352-2.176.711-5.485.32 0 0 1.73 2.106 4.692 4.079 3.843 2.55 7.785-.52 8.71-1.34a51 51 0 0 0 6.481 3.625c-1.406-.332-3.195-.422-5.27.207-2.699.824-1.968 1.058-5.28 1.273 0 0 2.109 1.68 5.425 3.008 4.898 1.988 8.344-3.023 8.344-3.023l-.25-.2 2.312.856c2.074.77 5.364 1.984 9.598 3.547 1.164.43 4.062 1.5 5.262 1.941q-1.138.584-2.399 1.367c-.765.477-1.496.973-2.176 1.497l-.418.277c.852.129 1.97.25 3.403.348a49 49 0 0 1 3.703-2.356c1.23.7 2.48 1.496 3.683 2.36a40 40 0 0 0 3.407-.368l-.418-.289a33 33 0 0 0 -2.18-1.476 32 32 0 0 0 -2.539-1.434c.914-.41 2.043-.898 3.34-1.434 3.965-1.625 7.242-2.703 10.46-3.75 1.013-.332 2.192-.707 3.505-1.113l-.262.203s3.473 5 8.371 3.02c3.309-1.344 5.402-3.031 5.402-3.031-3.312-.215-2.546-.438-5.27-1.27-2.073-.637-3.862-.527-5.276-.184a53 53 0 0 0 6.472-3.636c.942.804 4.871 3.898 8.715 1.316 2.973-1.969 4.68-4.074 4.68-4.074-3.29.394-2.625.035-5.469-.309a10 10 0 0 0 -4.172.364 56 56 0 0 0 4.406-3.91c.883.581 5.57 3.308 9.004-.352 2.348-2.5 3.895-5.664 3.895-5.664-2.082.785-2.395 1.422-5.387 1.562-1.957.098-3.492.692-4.684 1.418a55 55 0 0 0 4.829-6.449c.773.367 5.191 2.191 8.05-1.644 2.125-2.875 2.829-6.133 2.829-6.133-.77.707-1.192 1.37-4.594 1.98-1.844.309-3.176 1.133-4.121 2.02a55 55 0 0 0 2.578-5.766c.793.168 5.23.875 7.133-1.973 1.363-2.035 1.785-6.039 1.808-6.57 0 0-.476 2.04-3.93 2.578-1.96.293-3.25 1.781-4.03 3.188.73-2.328 1.323-4.703 1.722-7.168 1.496 0 5.82-.301 6.605-3.598m-105.476-41.008.168-.191zm8.198-8.804.184-.164zm9.337-6.43.203-.117zm75.98 14.961.164.203zm-8.043-8.574-.183-.176zm-9.32-6.43-.238-.102zm0 0" fill="#33b351"/><g fill="#ee2633"><path d="m155.91 147.613c23.883-.023 44.274 15.004 52.238 36.11l14.657-11.098c-3.2-6.785-10.168-18.766-23.48-28.543-9.012-6.617-17.454-9.75-21.813-11.09a73.6 73.6 0 0 0 -21.614-3.219c-29.691.036-55.25 17.637-66.867 42.965l14.696 11.075c1.757-4.625 7.578-18.223 22.433-27.606 12.422-7.844 24.582-8.574 29.75-8.594"/><path d="m93.594 176.105s-7.239 12.407-2.281 29.958l6.207-8.47s.55 6.13 9.914 13.524c0 0-4.38-16.418 2.726-31.566l-6.41 4.219zm0 0"/><path d="m106.809 177.04 3.355 2.507-6.414 4.238s1.238-3.344 3.059-6.746m111.496-1.023s7.254 12.406 2.308 29.968l-6.207-8.468s-.55 6.129-9.898 13.523c0 0 4.344-16.414-2.79-31.55l6.434 4.206zm0 0"/><path d="m205.098 176.973-3.38 2.52 6.438 4.218s-1.234-3.344-3.058-6.738"/></g><path d="m106.914 177.496-.012.027zm0 0" fill="#020505"/><g fill="#110f0c"><path d="m89.191 172.66 14.512 10.953c2.406-6.425 7.223-15.652 16.543-23.394 13.313-11.055 28.008-12.739 35.582-12.754h.133c7.27 0 18.184 1.422 29.168 8.144 14.043 8.602 20.473 21.137 23.074 27.934l14.488-10.992a74.9 74.9 0 0 0 -16.644-22.719c-7.117-6.633-15.613-11.914-24.57-15.281-8.172-3.067-17.008-4.696-25.555-4.711-.05 0-.098-.004-.145-.004-15 0-26.91 4.66-34.27 8.574-18.741 9.965-28.28 25.703-32.316 34.25m14.61 11.297-14.88-11.23.04-.079c4.023-8.554 13.59-24.402 32.445-34.43 7.383-3.921 19.328-8.593 34.371-8.593h.145c8.57.016 17.433 1.648 25.629 4.726 8.984 3.375 17.504 8.672 24.64 15.325a75.1 75.1 0 0 1 16.73 22.86l.04.077-14.856 11.274-.05-.137c-2.559-6.738-8.953-19.332-23.035-27.957-10.946-6.7-21.82-8.117-29.06-8.117h-.132c-7.547.02-22.183 1.695-35.445 12.707-9.352 7.77-14.153 17.035-16.531 23.437zm0 0"/><path d="m97.574 197.336.047.234c.781 3.785 3.422 7.239 5.5 9.473a36 36 0 0 0 4.145 3.809c-3.715-16.442 1.562-28.754 2.625-30.993l-6.153 4.141-.062-.05-10.043-7.677c-6.79 14.137-2.848 27.774-2.281 29.559zm10.031 14.039-.234-.172c-.082-.058-8.27-6.129-9.906-13.355l-6.184 8.437-.066-.187c-.055-.149-5.086-14.825 2.281-30.04l.059-.117.101.082 10.09 7.711 6.23-4.191-3.23-2.418.129-.172 3.473 2.602-.106.066c-.324.637-6.832 13.649-2.703 31.473zm94.25-31.852c6.465 13.028 3.336 28.903 2.82 31.25 4.731-3.699 7.095-7.082 8.243-9.289 1.266-2.414 1.379-3.957 1.383-3.972l.02-.293 6.25 8.523c4.491-16.375-1.618-28.308-2.298-29.562-3.386 2.562-6.777 5.129-10.164 7.695q-.032-.046-.062-.086l.004-.086c.008-.324-1.809-4.148-2.992-6.566zm2.473 31.79.074-.297c.043-.176 4.207-17.5-2.777-31.477l-.04-.082 3.552-2.644.054.113c.489.992 2.805 5.726 3.051 6.664.817-.426 6.336-4.738 9.996-7.656l.098-.078.062.105c.07.125 7.184 12.617 2.32 30.05l-.062.216-6.18-8.434c-.21 1.281-1.59 6.922-9.906 13.332zm0 0"/><path d="m208.105 183.883-6.445-4.305.121-.176 6.442 4.305zm0 0"/></g><g fill="#211e1e"><path d="m146.145 188.266v-6.828l-1.485.582-.18-.98 1.899-.677h.851v7.903zm6.815-6.633c-.276-.324-.66-.485-1.14-.485q-.684 0-1.117.461-.44.471-.441 1.235 0 .744.39 1.18.406.456 1.145.456.691 0 1.148-.468.429-.447.43-1.063-.001-.83-.414-1.316m.504 5.574q-1.04 1.16-2.899 1.16-.545.001-.949-.066v-.985c.313.086.664.133 1.063.133q2.15-.002 2.601-2.336.029-.116.074-.32l.051-.25-.008-.012c-.398.567-1.02.856-1.863.856q-1.096-.002-1.734-.649c-.43-.43-.641-1.008-.641-1.734 0-.781.25-1.434.762-1.953q.774-.797 1.988-.797 1.482 0 2.156 1.16c.332.582.504 1.324.504 2.238 0 1.555-.371 2.743-1.105 3.555m6.801-2.594c-.278-.304-.66-.457-1.157-.457q-.707 0-1.164.461-.426.437-.425 1.07c0 .543.132.977.406 1.305q.422.492 1.148.492.697-.001 1.137-.464c.297-.31.445-.715.445-1.227q0-.745-.39-1.18m.73 2.985q-.786.78-2.012.78-1.458 0-2.132-1.16-.504-.87-.504-2.241-.001-2.35 1.164-3.59 1.06-1.12 2.824-1.121c.32 0 .55.011.707.035v.937a4.3 4.3 0 0 0 -.773-.054c-1.493 0-2.395.812-2.72 2.445l-.089.492.012.012q.639-.853 1.894-.852c.73 0 1.317.215 1.746.645q.645.64.645 1.703 0 1.195-.762 1.969m6.539-6.325a33.3 33.3 0 0 0 -2.324 6.993h-1.195c.593-2.485 1.375-4.786 2.336-6.899q-.358.025-3.508.027v-1.03h4.691zm-39.012 25.493q-.168-.452-.32-1.004h-.02a18 18 0 0 1 -.304.984l-.992 2.77h2.613zm1.848 5.261-.613-1.722h-3.121l-.606 1.722h-1.023l2.664-7.336h1.133l2.683 7.336zm2.137 0v-7.336h1v6.477h2.633v.86zm6.289-6.567q-.268.002-.664.02v2.504q.222.019.62.02.78 0 1.227-.363.439-.354.438-.954 0-1.225-1.621-1.226m1.875 6.566-2.402-3.281h-.137v3.281h-.996v-7.336a28 28 0 0 1 1.836-.047q2.489 0 2.488 1.914.001.898-.637 1.473-.591.523-1.512.594c.235.281.442.543.63.781l2 2.621zm5.207-5.261q-.164-.452-.32-1.004h-.02c-.098.363-.2.687-.3.984l-.997 2.77h2.613zm1.848 5.261-.614-1.722h-3.117l-.605 1.722h-1.028l2.664-7.336h1.133l2.684 7.336zm3.976-2.644v2.644h-1.003v-2.644l-2.293-4.692h1.098l1.164 2.477q.305.65.55 1.27h.012c.114-.297.325-.766.63-1.399l1.132-2.348h1.047zm5.832 0v2.644h-1.004v-2.644l-2.293-4.692h1.098l1.164 2.477q.31.65.55 1.27h.012c.118-.297.329-.766.633-1.399l1.13-2.348h1.046zm5.219-2.617q-.167-.452-.32-1.004h-.02c-.101.363-.2.687-.305.984l-.992 2.77h2.614zm1.848 5.261-.614-1.722h-3.12l-.606 1.722h-1.024l2.664-7.336h1.133l2.684 7.336zm6.648 0-2.852-4.707a13 13 0 0 1 -.77-1.445q.079 1.349.079 4.11v2.042h-.969v-7.336h1.328l2.813 4.618q.446.749.805 1.492-.07-2.133-.07-4.242v-1.868h.964v7.336zm8.566-.539q-.746.633-1.972.633c-.59 0-1.13-.066-1.61-.2l.121-.96a4.2 4.2 0 0 0 1.547.297q.686-.001 1.11-.29.475-.326.476-.964-.001-.54-.52-.89c-.152-.102-.53-.274-1.14-.524q-.784-.317-1.137-.645-.52-.494-.52-1.28-.001-.928.665-1.485.686-.591 1.898-.59.732 0 1.329.144l-.118.88a4.4 4.4 0 0 0 -1.265-.196c-.985 0-1.473.383-1.473 1.14q-.001.516.52.86c.148.098.53.273 1.156.527q.798.322 1.156.657.523.496.524 1.27c0 .663-.25 1.206-.747 1.616m7.118.235a5.2 5.2 0 0 1 -2.008.39c-1.133 0-1.985-.34-2.555-1.011q-.785-.922-.785-2.563c0-1.184.289-2.113.863-2.797q.94-1.12 2.723-1.12.903 0 1.683.23l-.16.91a5.1 5.1 0 0 0 -1.632-.282q-1.194 0-1.825.844-.567.762-.566 2.051.001 2.843 2.492 2.844c.578 0 1.117-.121 1.606-.367zm-44.055 4.867c-.406-.547-.98-.817-1.73-.817-.665 0-1.208.243-1.637.739q-.68.778-.68 2.101 0 1.36.57 2.125.598.82 1.735.82c.656 0 1.203-.245 1.629-.738q.684-.786.683-2.09c0-.91-.187-1.625-.57-2.14m2.086 6.473a4 4 0 0 1 -1.93-.22c-.7-.265-1.27-.402-1.71-.402h-.29c-1.07 0-1.89-.332-2.46-1.007-.54-.637-.81-1.532-.81-2.672 0-1.192.34-2.14 1.028-2.856.64-.676 1.46-1.015 2.45-1.015 1.073 0 1.898.34 2.464 1.015q.811.959.813 2.668.001 2.522-1.786 3.297.282-.004.996.195.65.187 1.235.118zm4.594-5.985q-.165-.452-.317-1.004h-.023q-.148.541-.301.98l-.996 2.774h2.613zm1.847 5.262-.61-1.723h-3.12l-.606 1.723h-1.023l2.664-7.34h1.129l2.687 7.34zm5.294-6.504v6.504h-1.005v-6.504h-2.11v-.836h5.231v.836zm6.632 1.242q-.167-.452-.32-1.004h-.02c-.101.36-.199.688-.304.98l-.993 2.774h2.614zm1.848 5.262-.61-1.723h-3.125l-.605 1.723h-1.024l2.664-7.34h1.133l2.688 7.34zm5.101-6.567c-.18 0-.402.004-.66.02v2.5q.218.024.621.023c.52 0 .926-.125 1.227-.363q.433-.357.433-.953 0-1.228-1.62-1.227m1.874 6.567-2.402-3.281h-.133v3.28h-1v-7.339a28 28 0 0 1 1.836-.043q2.489 0 2.488 1.914c0 .598-.21 1.086-.632 1.473-.399.347-.903.547-1.516.59q.352.428.629.78l2 2.626zm-59.356-57.305a.67.67 0 0 1 -.46.274.77.77 0 0 1 -.531-.184c-.176-.145-.282-.3-.309-.477a.64.64 0 0 1 .156-.511q.198-.252.461-.27c.176-.015.356.051.531.192.176.136.278.296.301.472a.63.63 0 0 1 -.148.504m-1.07 1.36a.65.65 0 0 1 -.461.27q-.269.022-.532-.185c-.18-.14-.281-.296-.308-.476-.028-.176.027-.344.156-.512a.64.64 0 0 1 .457-.265q.262-.025.535.191.27.218.305.477a.65.65 0 0 1 -.153.5m.293-8.333c-.222.286-.457.5-.695.637s-.558.227-.957.262c-.101.012-.39.004-.855-.016q-.819-.033-1.168.04c-.227.05-.395.14-.493.269-.07.082-.109.227-.125.426q-.024.3.051.57.07.268.192.367.164.129.39.086.231-.045.567-.265.575-.377.922-.497c.234-.082.453-.105.668-.07.21.031.414.13.613.285q.704.55.62 1.418-.08.857-.987 2.008l-1.485 1.887a1.96 1.96 0 0 1 -.883.644 2 2 0 0 1 -1.101.067 2.65 2.65 0 0 1 -1.094-.535 6 6 0 0 1 -1.336-1.465l.84-1.063q.252.363.516.625.271.268.71.617a1.37 1.37 0 0 0 1.282.211q.314-.111.5-.351l1.09-1.38q.509-.65.601-.956c.055-.211.012-.375-.14-.496q-.136-.104-.336-.051c-.133.04-.301.129-.504.281q-.697.539-1.188.578-.487.036-.968-.343c-.278-.22-.489-.547-.633-.989a3.4 3.4 0 0 1 -.153-1.386q.07-.728.414-1.168c.137-.172.293-.301.477-.399q.27-.135.629-.187c.242-.028.707-.028 1.387.011q.813.048 1.144-.058t.535-.363l.032-.04q.03-.044.066-.02l.883.696q.04.032.004.074zm0 0"/><path d="m115.824 153.246-.824-.934q-.486-.55-.973-.59-.484-.034-1.015.434-1.03.908-.535 2.98l.523.594zm-4.308-2.422a.65.65 0 0 1 -.504.188.74.74 0 0 1 -.489-.278q-.229-.256-.218-.52c.004-.179.09-.339.25-.484a.64.64 0 0 1 .492-.175q.264.023.492.285.222.251.211.52a.64.64 0 0 1 -.234.464m.246 7.613q-.037.031-.067-.004l-.746-.847q-.03-.03.012-.063l.898-.789-2.504-2.847 1.141-1.004 1.172 1.332c-.363-1.348-.082-2.422.832-3.227q.933-.824 1.844-.754c.605.051 1.21.414 1.812 1.102l1.606 1.82zm8.695-8.547c.027-.015.05-.015.063.009l.648.918q.025.04-.016.07l-2.285 1.594-4.398-6.297 1.242-.867 3.703 5.3zm0 0"/><path d="m123.371 152.41a.65.65 0 0 1 -.527.09q-.26-.076-.43-.363c-.117-.192-.156-.38-.121-.555q.059-.258.328-.422.276-.164.527-.086.253.075.43.367c.113.192.152.38.11.551a.64.64 0 0 1 -.317.418m-1.484.887q-.27.165-.528.09t-.43-.364q-.175-.293-.116-.55.052-.263.328-.426c.175-.106.351-.137.52-.086q.252.072.429.371.175.3.117.55a.62.62 0 0 1 -.32.415m-.961-2.27c-.028.02-.051.012-.067-.015l-.578-.969c-.011-.02-.008-.04.024-.059l1.523-.91-1.945-3.258 1.3-.777 2.57 4.3zm7.043-5.227q.042-.022.062.012l.504 1.008q.018.042-.023.067l-1.184.59.074.148q.47.931.223 1.738c-.16.535-.531.95-1.105 1.239a3.6 3.6 0 0 1 -.91.32 3.4 3.4 0 0 1 -1.02.012l.105-1.153q.316.031.532-.004c.14-.023.296-.082.468-.164a.8.8 0 0 0 .446-.57q.086-.387-.125-.809l-2.282-4.554 1.356-.68 1.695 3.394zm0 0"/><path d="m128.281 147.016q-.047.018-.066-.028l-.43-1.039q-.014-.035.031-.058l1.176-.48-2.465-5.985 1.399-.574 2.93 7.101zm1.594-8.903 1.434-.5 2.527 7.254-1.43.5zm10.918-.238q-.31.06-.527-.098-.218-.156-.282-.484-.066-.334.075-.563c.093-.148.246-.246.457-.285a.65.65 0 0 1 .52.094c.144.105.234.27.28.492.043.223.016.406-.082.563a.66.66 0 0 1 -.441.28m1.086 7.372q-.833.158-1.52-.07a2.36 2.36 0 0 1 -1.129-.797 3.24 3.24 0 0 1 -.605-1.39 5 5 0 0 1 -.086-1.173c.016-.41.074-.78.172-1.125l1.316-.254q-.053.562-.035 1.164.023.606.121 1.106c.09.484.29.844.59 1.082.297.238.649.32 1.047.242l.297-.058q.774-.147 1.055-.633.282-.486.136-1.235l-.879-4.527 1.489-.293.882 4.57q.534 2.731-2.414 3.301zm7.011-4.703q.048-.006.055.035l.125 1.121q.006.045-.043.055l-2.77.312-.866-7.632 1.504-.172.734 6.426zm0 0"/><path d="m150.586 140.438c.039-.004.055.008.059.035l.085 1.12q.001.055-.05.055l-1.832.141c-.036 0-.051-.012-.055-.047l-.086-1.12q0-.043.047-.044zm0 0"/><path d="m152.297 140.348q.054 0 .055.035l.058 1.125c.004.035-.015.05-.05.055l-1.833.097q-.053 0-.054-.047l-.059-1.125q-.006-.042.047-.043zm0 0"/><path d="m153.988 140.305q.054.001.055.039l.023 1.125q.004.053-.05.054l-1.84.036c-.031.004-.051-.012-.051-.047l-.023-1.125q-.001-.043.05-.043zm0 0"/><path d="m155.71 140.29q.055.004.056.038l.004 1.13c0 .034-.016.046-.055.046l-1.836.012q-.051 0-.05-.051l-.005-1.125q0-.04.047-.04zm0 0"/><path d="m157.422 140.328c.039 0 .058.016.055.04l-.024 1.124c0 .035-.015.051-.055.051l-1.835-.04c-.036 0-.047-.015-.047-.05l.02-1.125c0-.023.015-.039.05-.039zm0 0"/><path d="m159.129 140.406c.039 0 .055.016.055.04l-.051 1.124q-.004.052-.055.051l-1.836-.086c-.035 0-.05-.02-.047-.05l.047-1.126q.005-.04.051-.035zm0 0"/><path d="m160.84 140.527c.035 0 .055.016.05.04l-.077 1.124c-.004.036-.02.051-.06.047l-1.831-.129q-.047-.001-.047-.054l.078-1.121q.004-.042.055-.036zm0 0"/><path d="m156.23 144.402a.65.65 0 0 1 -.496-.199q-.18-.194-.18-.527c0-.23.063-.406.184-.54.121-.128.285-.19.5-.19q.315 0 .496.199.176.193.176.535 0 .332-.187.53a.65.65 0 0 1 -.493.192m4.329-2.71c-.032 0-.047-.02-.043-.051l.125-1.121q.005-.04.054-.032l1.766.2.422-3.774 1.508.172-.559 4.977zm-6.055 2.703a.65.65 0 0 1 -.496-.196.74.74 0 0 1 -.18-.531c0-.23.059-.406.184-.54q.179-.191.5-.19c.207 0 .37.062.488.195.117.129.18.308.176.539q0 .346-.188.535a.64.64 0 0 1 -.484.188m14.851-2.653c.036.008.047.024.043.051l-.195 1.105q-.007.048-.055.043l-1.3-.23-.028.16c-.12.688-.406 1.195-.859 1.531q-.674.503-1.629.336a3.6 3.6 0 0 1 -.922-.285 3.4 3.4 0 0 1 -.824-.597l.773-.864c.157.14.297.246.426.309.13.07.285.117.477.152q.399.072.699-.191.3-.265.375-.723l.883-5.02 1.492.258-.656 3.739zm0 0"/><path d="m168.902 142.906c-.027-.008-.043-.027-.035-.058l.266-1.094q.007-.04.054-.027l1.239.296 1.515-6.289 1.477.356-1.805 7.469zm6.5-6.277 1.453.43-2.18 7.367-1.452-.43zm6.786 14.09c-.188-.09-.31-.215-.364-.387q-.081-.253.059-.559.147-.309.394-.406.247-.1.536.035.285.14.367.391.075.252-.07.563c-.094.199-.227.335-.395.394a.63.63 0 0 1 -.527-.031m-1.56-.738q-.285-.136-.366-.387-.082-.256.058-.559.147-.309.395-.406.247-.1.535.035.282.136.363.383.077.25-.07.566-.147.308-.395.407a.66.66 0 0 1 -.519-.04m.352-2.597a1.93 1.93 0 0 1 -.825-.715 2 2 0 0 1 -.312-1.055q-.007-.59.273-1.187a6.2 6.2 0 0 1 1.137-1.629l1.219.578a4.7 4.7 0 0 0 -.496.645 10 10 0 0 0 -.438.832 1.33 1.33 0 0 0 -.125.664q.023.351.203.633.18.275.453.41l1.59.75q.715.339 1.102.363.392.029.527-.266a.55.55 0 0 0 .035-.394q-.052-.209-.258-.524a31 31 0 0 1 -.613-.996c-.226-.383-.363-.695-.41-.925a1 1 0 0 1 .078-.657q.253-.534 1.063-.992.815-.45 1.695-.55c.59-.067 1.09-.005 1.508.195q.211.1.394.289.187.189.473.648l-.965.762a3 3 0 0 0 -.277-.348 1 1 0 0 0 -.332-.242q-.24-.117-.762-.05a3.2 3.2 0 0 0 -.918.25c-.27.12-.437.253-.512.405q-.065.146.051.438.117.291.399.73c.175.274.343.59.515.946.168.355.27.672.305.937q.054.405-.086.7c-.266.558-.7.87-1.297.925q-.902.083-2.226-.543zm6.569 1.219 2.88 1.804c.21-.597.332-1.117.367-1.547a3.5 3.5 0 0 0 -.117-1.246 4 4 0 0 0 -.594-1.191l1.238-.899q.863 1.187.957 2.582t-.574 3.153l-.625.992-4.18-2.617zm7.493 5.093q.04.03.016.063l-.672.902q-.03.04-.067.012l-2.238-1.664 4.586-6.164 1.215.902-3.86 5.191zm0 0"/><path d="m196.324 154.785c.031.024.035.043.016.067l-.711.867q-.032.042-.074.004l-1.422-1.164q-.035-.03-.004-.07l.715-.868q.022-.034.062 0zm0 0"/><path d="m197.613 155.914q.041.036.012.066l-.738.844q-.035.041-.075.004l-1.382-1.21q-.038-.037-.004-.067l.738-.852c.02-.02.04-.015.066.004zm0 0"/><path d="m198.852 157.07q.039.036.015.067l-.77.824q-.033.035-.074 0l-1.343-1.254c-.024-.023-.024-.043-.004-.07l.77-.825q.024-.028.062.008zm0 0"/><path d="m200.063 158.273c.027.024.027.047.008.067l-.79.797q-.036.04-.074 0l-1.304-1.297q-.036-.036 0-.07l.789-.797q.033-.029.066.008zm0 0"/><path d="m201.23 159.512q.037.041.008.066l-.82.777c-.023.02-.047.02-.07-.008l-1.266-1.335c-.02-.028-.02-.047.004-.07l.82-.774q.03-.029.063.008zm0 0"/><path d="m202.355 160.79q.038.038.004.065l-.84.747q-.04.034-.074-.008l-1.218-1.38q-.031-.035.004-.066l.843-.746q.031-.028.063.008zm0 0"/><path d="m203.438 162.098q.036.046.004.07l-.868.715c-.023.023-.05.02-.07-.008l-1.172-1.418q-.033-.036.004-.07l.867-.715c.02-.02.043-.012.063.011zm0 0"/><path d="m202.156 154.855a.68.68 0 0 1 -.144-.52q.052-.262.316-.46.275-.205.54-.176.264.025.46.285a.66.66 0 0 1 .137.508q-.047.258-.324.469-.271.198-.536.168a.65.65 0 0 1 -.449-.274m.223 7.825c-.016-.024-.016-.047.012-.07l.902-.672q.034-.02.062.019l.758 1.02 3.043-2.266.903 1.215-4.016 2.992zm0 0"/></g></g></svg>