<svg viewBox="0 0 316 315.97" xmlns="http://www.w3.org/2000/svg"><g transform="matrix(1.4759 0 0 1.4759 -72.112 -72.1)"><g fill-rule="evenodd"><path d="m48.86 155.91c0 59.113 47.94 107.024 107.074 107.024 59.113 0 107.03-47.91 107.03-107.024 0-59.133-47.917-107.058-107.03-107.058-59.133 0-107.075 47.925-107.075 107.058" fill="#0f0c0c"/><path d="m76.543 156.871c0 43.785 35.547 79.356 79.39 79.356 43.833 0 79.376-35.57 79.376-79.356 0-43.851-35.543-79.418-79.375-79.418-43.844 0-79.391 35.567-79.391 79.418" fill="#3a42a1"/><g fill="#ba9919"><path d="m137.648 59.027c-.308 1.57-3.378 2.188-4.558.785-.067-1.945 3.86-2.394 4.558-.785m-6.128.95c0 1.816-3.293 2.507-4.442 1.253-.066-2.117 3.395-2.472 4.442-1.253m-14.688 2.823c1.453 3.372 2.719 6.954 4.242 10.263-1.062.761-2.52 1.164-3.949 1.574-1.125-2.973-2.64-5.563-3.773-8.508-.422-.465-.903.93-1.454.32.02-.922 1.262-1.37 2.07-1.902.876-.559 1.88-1.113 2.516-1.746.176.101.301.215.348 0m35.508 6.637c-.246 2.132-4.106 1.917-4.106.316-.015-1.52 3.38-1.758 4.106-.317m14.844.633c-.125 2.38-4.305 1.637-3.965-.148.281-1.453 3.394-1.04 3.965.148m50.179 6.29c-2.023 3.285-4.71 5.859-6.785 9.023-1.285-.625-2.176-1.61-3.46-2.211 1.706-2.746 3.679-5.258 5.51-7.883-.077-.602-1.339-.039-1.093-.95 2.14-.136 3.805 1.52 5.828 2.02m-118.41 12.172c0 1.785-1.8 3.258-3.45 2.38.024-.2-.05-.278-.16-.317.11-1.64 2.134-3.305 3.61-2.063m-4.394 3.633c.261 2.172-1.418 3.18-3.02 3.004-1-1.703 1.242-4.043 3.02-3.004m128.964 9.926c-1.8.414-3.09-.973-2.98-2.988 1.73-.985 3.68 1.023 2.98 2.988m-152.976 17.535c.484-2.152 1.664-3.602 2.203-5.68-2.598-.879-3.082 3.72-2.203 5.68m-4.89 10.727c-.817.398-.47 2.199-.177 2.84 1.625-.333 2.325-1.57 4.282-1.57.468 1.624-.196 3.671-.64 5.995-.778 3.973-1.548 6.383-4.735 7.57.386-3.164 3.11-4.707 2.539-8.34-1.516-.093-1.555 1.286-3.18 1.094-.535-2.91-1.176-8.906.64-10.886.985-.27 1.927.601 3.165.633.562-.88.793-2.063 1.117-3.149-.223-.586-1.195-.41-1.602-.816-.379.27.047 1.308-.632 1.27-.598-2.079.722-5.138.964-6.614.532.277 1.102.562 1.723.777-.914-3.55.024-9.984 3.48-10.261 1.887-.153 2.665 1.617 4.41 2.054-2.245 4.684-4.448 9.633-6.148 14.852-.386 1.164-.547 3.125-1.101 3.758-.196.23-1.79 1.222-2.364 1.293-.617.03-1.18-.332-1.742-.5"/><path d="m65.188 117.602c-1.317-1.18.117-5.082 1.562-4.926 1.887.23.492 4.98-1.562 4.926m8.199 11.656c.754 1.449.008 4.726-1.41 4.574-1.872-.195-.883-5.422 1.41-4.574m-1.895 6.48c1.133 1.528.75 4.567-1.101 5.035-1.47-1.097-.825-4.941 1.101-5.035m178.383 1.11c1.887.34 2.203 4.113.809 5.191-1.871-.3-2.348-4.266-.809-5.191m-9.617 44.808c.531.27 1.289.309 1.887.461.484-.816.484-2.125.449-3.449-1.727-1.453-1.98 1.602-2.336 2.988m3.304.801c.77.215 1.579.445 2.372.617.367-1.37.562-2.883.476-4.722-2.133-1.786-2.222 2.441-2.847 4.105m3.015 5.059c-2.832-.848-5.547-1.754-8.535-2.38 1.031-2.527.824-11.14 3.8-11.062 1.079.043 1.512 1.254 1.72 2.547.714-1.3 1.199-3.844 3.324-2.848.879.415 1.418 2.668 1.418 4.434-.032 3.227-1.524 6.988-1.727 9.309m-13.742 11.964c.258-1.332 1.012-2.105 1.426-3.312 1.84.129 3.925 2.555 5.996 2.379 1.617-.16 2.664-2.586 1.887-4.727-1.754-1.039-4.102-1.5-6.004-2.343.207-1.325.738-2.239.945-3.5 2.527.753 5.168 1.554 6.8 2.382 1.778 3.207-.886 10.758-3.796 11.66-2.672.825-4.613-2.109-7.254-2.539m-106.696 41.84c.993.364 2.04.664 3.15.934.331 1.586.53 3.25 1.105 4.582 1.171-1.11 2.226-2.281 3.32-3.473.918.285 1.976.43 2.98.637-2.347 2.535-4.953 4.914-7.562 7.262-1.317-.094-2.278-.57-3.473-.809.57-.84 1.52-1.3 2.203-2.031-.633-2.328-1.316-4.582-1.722-7.102m13.246 8.848c1.156-.063 2.066.094 3.004.285-.246-1.207-.559-2.394-1.254-3.14-.364 1.14-1.485 1.57-1.75 2.855m4.265-5.059c1.118 3.172 2.645 5.977 3.942 8.993-1.336-.192-4.54.425-4.41-2.047-1.961-.332-2.786-.332-4.735-.633-.8.27-.887 1.254-1.57 1.57-.809-.176-2.41-.27-3.48-.605 2.195-2.551 4.519-4.992 6.46-7.77 1.184.254 2.387.461 3.793.492m-11.523-178.05c.898.316 1.625-.168 2.687-.153.356-2.281-2.546-1.11-2.687.153m71.809 13.91c-12.418-7.035-27.11-12.586-44.801-13.418-7.293-.317-15.012.144-21.633 1.254-3.41.562-5.715 1.742-8.832 1.117-1.84-3.387 3.226-4.719 5.504-5.988-.13-.149-.16-.387-.16-.649-.172-.355-1.215.817-1.403 0 .387-.847 1.528-.902 2.371-1.277.84-.332 1.711-.77 2.52-1.086.73 1.387.738 3.473 1.101 5.21 3.141-.366 6.204-.859 9.63-.96.148-.098-.106-1.156 0-1.738-.255-.457-1.294.636-1.423-.149 1.208-1.168 4.262-1.086 5.672-1.586-.078 1.317.18 2.34 0 3.336.668.082 2.356-.086 3.489 0 .355-2.234.047-5.129.144-7.61-.344-.566-1.332.442-1.414-.28 1.399-1.141 4.125-.958 6.164-1.442.012 3.34-.539 6.09-.484 9.469 2.648.277 6.676.492 9.465 1.11.472-.2.144-.942.476-1.579-.133-.824-1.394.332-1.25-.633 1.332-.73 3.989-.12 5.836-.316-.12 1.156-.539 2.012-.644 3.152 2.222.73 5.836 1.285 8.375 2.23.53-.269.418-1.171.785-1.585-.23-.38-1.293.031-1.27-.645 1.672-.625 3.696.281 5.852.328-.246 1.188-.942 2.38-1.11 3.149.54.324 1.157.512 1.895.648.36-.355.445-.922.629-1.433-.106-.407-1.016-.016-.938-.63 1.602-.777 3.868.524 5.676.63-.426 1.03-.902 1.996-1.402 2.996.5.394 1.207.578 1.87.785.524-.215.462-1.016.794-1.43.078-.562-.863-.062-.926-.472.871-1.301 3.852.8 5.5.832-.23 1.203-1.101 1.8-1.418 2.98.93.602 2.047 1.016 2.988 1.555 1.446-2.203 2.657-4.61 4.102-6.774-.34-.355-1.379.04-1.402-.632.632-.633 1.957-.04 2.996.316 1.101.355 2.164.976 3.148 1.094-2.172 3.902-4.363 6.75-6.473 10.12"/><path d="m146.64 69.754c-.054 1.93-3.84 2.14-4.1.625-.278-1.688 3.339-2.149 4.1-.625m26.223 1.723c-.96 1.464-3.742.949-4.14-.63.629-1.656 4.03-1.234 4.14.63m-59.043 4.742c-2.14 1.18-4.379 2.273-6.48 3.48.816 4.328-2.86 6.77-6.777 7.406.816-1.199 3.75-2.101 3.44-4.718-.058-.77-.706-1.965-1.714-2.055-.957-.086-.824.856-2.062.777.406-1.464.89-2.886 1.437-4.265 1.774-.137 3.012.261 4.098.793 1.176-.387 1.976-1.192 3.156-1.563-1.156-2.441-2.734-4.433-3.79-6.937-.374-.293-1.054 1.293-1.57.457 1.294-1.672 3.005-2.875 4.883-3.93 1.692 3.621 3.57 7.031 5.38 10.555m106.222 20.981c-1.11 1.741-3.504-.063-3.473-1.864 1.11-1.676 3.34.2 3.473 1.863m-2.52-8.816c.594-.168.45.387.942.3.437 2.372 1.332 4.258 3.324 5.06.707-.923.34-2.434 1.078-2.981 1.524.308 2.856 1.093 4.29 2.035 1.062.676 3.202 1.93 3.155 3.14-.093 1.532-3.765 3.04-4.75 3.965-.832-1.68.356-3.78 1.594-4.425-.3-.75-1.047-1.051-1.91-1.235-.871.996-.594 3.164-1.57 4.074-2.871-1.277-4.504-3.773-6.313-6.152.063-1.254-.133-2.77.16-3.781m-123.781-6.488c1.625 1.101 2.504 2.863 3.82 4.257-7.046 6.25-13.488 13.059-18.503 21.309-2.723-1.629-5.262-3.465-8.028-5.035-.531.164-.199 1.18-.8 1.27-.532-2.094 1.46-4.317 1.894-6.497 2.555 1.555 4.75 3.473 7.266 5.043 3.035-4.14 7.285-9.316 11.527-13.387 1.352-1.324 2.672-1.71.621-3.02-.328.071-.809 1.38-.937.665-.332-.625.546-1.527 1.109-2.227.676-.824 1.578-1.41 2.031-2.378m133.106 19.585c1.039-.386 2.68.207 4.101 0 .348 1.586 1.02 3.25 2.203 4.426.864-.66.41-2.703 0-3.48 1.559.078 4.075.562 4.418 2.37-.343.079-.304-.23-.304-.476-1.04 1.403-.086 3.645-1.278 5.043-.781.895-1.902.934-2.996 1.586-1.664-3.512-3.875-6.566-6.144-9.469m20.355 12.149c-2.445 1.46-5.473 2.332-7.906 3.809 2.457 6.644 4.726 13.605 5.844 20.812.277.246 1.03-.332 1.742-.125.043-.684-.711-1.398 0-1.77 1.191 1.77 1.613 4.29 2.199 6.63-1.61-.079-3.781.609-5.836.648-.992-11.496-4.258-20.719-8.2-29.203 2.927-1.38 5.677-2.957 8.517-4.434-.141-.539-.649-.746-.786-1.254.184.035.286-.023.309-.164 1.61.824 2.672 3.512 4.117 5.05m-181.547 69.622c.793-.895 1.688-1.687 2.52-2.52-1.07-.492-2.211-.832-3.32-1.27-.055.985.417 2.727.8 3.79m-1.57 7.418c-.578-1.313-.809-2.922-1.285-4.262.246-.847 1.07-1.054 1.426-1.726-.301-1.977-.864-3.688-1.102-5.696-.437-.632-1.324-.777-2.062-1.086-.325-1.468-.45-3.164-.774-4.59 3.066 1.079 6.176 3.497 9.773 4.59-.187 1.793 1.016 3.028.805 4.399-.191 1.215-2.344 2.676-3.008 3.465-1.48 1.746-2.488 3.484-3.773 4.906m8.816-.953c.438 1.316 1.094 2.398 1.27 3.93-2.442.605-4.305 1.792-6.621 2.523.84 2.234 1.84 4.695 2.68 6.473-.27.472-.93.55-1.43.773-1.227-3.059-3.281-7.39-4.098-10.871 2.777-.906 5.488-1.875 8.2-2.828m4.109 19.551c-.676-.11-.692.46-1.246.476-1.141-2.074-2.489-3.949-3.34-6.328.636 0 .746-.539 1.445-.441.84 2.297 2.34 3.965 3.14 6.293m162.93-4.566c-1.293 3.363-3.398 5.995-5.062 9.007-2.578-1.488-4.969-3.14-7.39-4.758 0-.855 1.128-1.855 1.554-2.804 2.34.949 4.258 2.328 6.328 3.597 1.207-1.68 2.149-3.597 3.149-5.52.675-.062.863.368 1.421.477m-152.019 12.801c-.3.68-.938 1.012-1.594 1.395-.89-2.508-1.762-5.06-4.242-5.98-1.672 1.92 5.383 8.167 1.238 9.296-2.261.601-4.27-1.953-5.347-3.316-1.512-1.778-2.387-3.489-3.172-5.52.277-.746.96-1.047 1.738-1.27.469 3.094 1.57 5.868 4.266 7.106.246-.078.39-.238.625-.316-.016-3.012-3.965-5.25-2.672-8.043.293-.68 1.437-1.395 2.672-.965 2.77 1.047 4.925 5.453 6.488 7.613m140.164-5.395c-1.77 1.633-5.227 2.586-4.563 6.172.207 1.157 1.508 2.188 2.684 2.203 2.797.047 4.613-3.554 4.89-6.187a3.7 3.7 0 0 1 1.739 1.113c-1.422 3.219-3.996 8.324-8.535 8.055-2.578-.129-3.836-2.031-3.613-4.566.269-3.333 3.964-6.266 5.675-7.899.7.27 1.192.715 1.723 1.11m-139.539 13.558a8 8 0 0 0 2.371 2.207c.207-1.125.621-2.062.945-3.125-1.238.176-2.07.762-3.316.918m6.312-1.41c-.664 3.601-1.507 6.059-2.05 9.77-1.059-.633-1.875-1.57-2.832-2.333-.145-.902.386-1.078.293-1.902-1.032-1.254-2.211-2.379-3.45-3.488-.84 0-1.324.394-2.07.488-.738-.95-1.832-1.633-2.371-2.836 2.57-.223 6.82-1.555 9.332-2.207 1.238-.348 2.008 2.078 3.148 2.508m120.293.492c-.894 1.063-1.968 1.887-3.164 2.68 1.293 2.14 3.336 3.504 4.582 5.66-.894.684-1.863 1.316-2.687 2.062-1.824-1.523-3.11-3.597-4.551-5.52-1.375.638-2.168 1.84-3.8 2.208-.302-.461-.204-.875-.634-.953 2.887-2.473 6.32-4.406 8.985-7.106.625.094.707.793 1.27.97m-109.883 7.405c-.063.524-.48.778-.602 1.27-.777-.129-1.086-.73-1.75-.938-1.387 1.317-2.309 3.079-3.473 4.567.266.746 1.243.746 1.743 1.285-.27.351-.579.7-.778 1.062-2.426-1.28-4.39-2.98-6.668-4.39.5-1.953 1.5-.684 2.54 0 1.25-1.492 2.495-3 3.644-4.586-.348-.492-.91-.793-1.426-1.094-.152-.793.648-.617.633-1.285 2.199 1.223 3.902 2.969 6.137 4.11m2.214 1.425c.957.524 1.832 1.145 2.864 1.57-.993 2.223-2.387 4.047-3.485 6.172 1.54 1.203 3.524 1.918 5.371 2.836a2.9 2.9 0 0 1 -.613 1.254c-3.242-1.172-5.945-2.902-8.848-4.41.54-1.047 1.325-2.664 2.04-3.012.394-1.379 1.894-2.933 2.671-4.41m90.301 2.84c.262.84.793 1.43 1.11 2.187 1.367-.523 4.039-1.523 2.523-3.457-1.715-.062-2.34.922-3.633 1.27m6.152.633c1.31.652 4.426.32 6.18.637-1.23.824-2.515 1.601-3.808 2.378-2.172-.015-4.758-1.27-6.454-.191.247 1.223 1.133 1.809 1.403 3-1.278.297-1.957 1.234-3.305 1.441-1.293-2.601-2.808-4.98-3.965-7.738 1.91-.351 4.774-2.68 6.953-3.492 3.582-1.25 5.426 1.586 2.996 3.965m-87.277 1.285c2.313.828 4.414 1.887 6.945 2.508-.039.508-.367.695-.324 1.285-.754-.129-1.644-.05-1.883-.668-1.093 1.902-1.57 3.41-2.37 5.535.566.27 1.222.461 1.906.649 0 .812-.493.921-.493 1.398-2.53-.887-4.972-1.871-7.421-2.856-.032-.601.347-.824.484-1.238.687.192 1.34.414 1.887.778 1.14-1.774 1.562-3.473 2.527-5.2-.418-.414-1.02-.668-1.727-.793-.129-.746.57-.668.47-1.398m67.714 4.094c-2.836 4.152 5.117 6.613 6.32 2.52.653-2.298-1.187-3.903-3.172-3.774-1.601.093-2.632.508-3.148 1.254m4.11-3.172c2.886-.317 5.906.492 5.827 3.949-.078 4.504-9.769 7.453-12.773 4.742-.984-.906-1.293-2.363-1.121-3.633.469-2.996 4.996-4.726 8.066-5.058m-17.031 6.152c0 1.063.309 1.777.457 2.695 1.324-.285 2.668-.476 3.473-1.27.027-.585-.04-1.026-.164-1.425-1.094-.648-2.531-.078-3.766 0m.766 4.281c.05.762.52 1.57.469 2.84-1.364-.031-2.32.395-3.614.461-.43-2.762-1.191-6.41-1.27-8.515 3.29-.192 11.403-3.239 11.204 1.25-.133 2.918-4.098 3.187-6.79 3.964m-6.952-4.421c.144.507.316 1.585.175 1.886-1.878-.539-6.144-1.125-7.128.633 1.87 1.746 8.53-.223 8.398 3.156-.184 3.582-7.938 3.41-11.848 2.84-.023-.32-.351-1.426 0-2.062 2.528.855 6.367 1.98 8.055-.301-2.082-1.684-7.54.031-8.055-2.856-.636-3.55 7.153-3.789 10.403-3.296"/></g></g><g fill="#fff"><path d="m81.719 165.883a.97.97 0 0 1 -1.38 0 .98.98 0 0 1 0-1.38l83.126-83.116c.398-.371 1.015-.371 1.367 0 .379.375.379 1.015 0 1.37zm13.324 13.301c-.348.379-.977.379-1.363 0a.92.92 0 0 1 0-1.348l83.11-83.11c.386-.374 1.007-.374 1.362 0 .403.403.403.989 0 1.395zm13.359 13.359a.99.99 0 0 1 -1.394 0c-.371-.41-.371-1.02 0-1.375l83.125-83.113a.95.95 0 0 1 1.355 0c.39.386.39 1 0 1.386zm13.34 13.317a.98.98 0 0 1 -1.379 0c-.375-.383-.375-.985 0-1.4l83.102-83.085a.955.955 0 0 1 1.348 0c.417.398.417 1.008 0 1.371zm13.321 13.35c-.387.349-.985.349-1.348 0-.399-.394-.399-1.03 0-1.394l83.07-83.07a.967.967 0 0 1 1.387 0c.371.348.371.965 0 1.371zm13.332 13.321a.986.986 0 0 1 -1.368 0 .964.964 0 0 1 0-1.379l83.102-83.093a1 1 0 0 1 1.371 0c.375.386.375 1.007 0 1.363zm0 0"/><path d="m81.719 165.883a.97.97 0 0 1 -1.38 0 .98.98 0 0 1 0-1.38l83.126-83.116c.398-.371 1.015-.371 1.367 0 .379.375.379 1.015 0 1.37zm13.324 13.301c-.348.379-.977.379-1.363 0a.92.92 0 0 1 0-1.348l83.11-83.11c.386-.374 1.007-.374 1.362 0 .403.403.403.989 0 1.395zm13.359 13.359a.99.99 0 0 1 -1.394 0c-.371-.41-.371-1.02 0-1.375l83.125-83.113a.95.95 0 0 1 1.355 0c.39.386.39 1 0 1.386zm13.34 13.317a.98.98 0 0 1 -1.379 0c-.375-.383-.375-.985 0-1.4l83.102-83.085a.955.955 0 0 1 1.348 0c.417.398.417 1.008 0 1.371zm13.321 13.35c-.387.349-.985.349-1.348 0-.399-.394-.399-1.03 0-1.394l83.07-83.07a.967.967 0 0 1 1.387 0c.371.348.371.965 0 1.371zm13.332 13.321a.986.986 0 0 1 -1.368 0 .964.964 0 0 1 0-1.379l83.102-83.093a1 1 0 0 1 1.371 0c.375.386.375 1.007 0 1.363zm0 0"/><path d="m147.027 82.758c-.386-.356-.386-.996 0-1.371a.98.98 0 0 1 1.368 0l83.105 83.117a.986.986 0 0 1 0 1.379c-.387.383-.973.383-1.371 0zm-13.312 13.363c-.395-.406-.395-.992 0-1.394.363-.375.96-.375 1.348 0l83.109 83.109a.955.955 0 0 1 0 1.348.99.99 0 0 1 -1.387 0zm-13.352 13.32a.995.995 0 0 1 0-1.386.98.98 0 0 1 1.38 0l83.07 83.113c.417.355.417.965 0 1.375a.934.934 0 0 1 -1.348 0zm-13.355 13.305c-.371-.363-.371-.973 0-1.371.37-.371 1.008-.371 1.398 0l83.082 83.086c.39.414.39 1.016 0 1.394a.943.943 0 0 1 -1.355 0zm-13.328 13.371c-.39-.406-.39-1.023 0-1.37.386-.392 1.015-.392 1.363 0l83.11 83.07c.406.363.406 1 0 1.394-.356.348-.977.348-1.364 0zm-13.34 13.305c-.38-.356-.38-.973 0-1.363.39-.364 1.008-.364 1.379 0l83.113 83.093c.379.368.379 1 0 1.38-.352.366-.969.366-1.367 0zm0 0"/><path d="m147.027 82.758c-.386-.356-.386-.996 0-1.371a.98.98 0 0 1 1.368 0l83.105 83.117a.986.986 0 0 1 0 1.379c-.387.383-.973.383-1.371 0zm-13.312 13.363c-.395-.406-.395-.992 0-1.394.363-.375.96-.375 1.348 0l83.109 83.109a.955.955 0 0 1 0 1.348.99.99 0 0 1 -1.387 0zm-13.352 13.32a.995.995 0 0 1 0-1.386.98.98 0 0 1 1.38 0l83.07 83.113c.417.355.417.965 0 1.375a.934.934 0 0 1 -1.348 0zm-13.355 13.305c-.371-.363-.371-.973 0-1.371.37-.371 1.008-.371 1.398 0l83.082 83.086c.39.414.39 1.016 0 1.394a.943.943 0 0 1 -1.355 0zm-13.328 13.371c-.39-.406-.39-1.023 0-1.37.386-.392 1.015-.392 1.363 0l83.11 83.07c.406.363.406 1 0 1.394-.356.348-.977.348-1.364 0zm-13.34 13.305c-.38-.356-.38-.973 0-1.363.39-.364 1.008-.364 1.379 0l83.113 83.093c.379.368.379 1 0 1.38-.352.366-.969.366-1.367 0zm0 0"/></g><g fill-rule="evenodd"><path d="m129.988 122.305c-4.011 1.824-7.945 3.726-8.761 8.77 3.605-1.356 5.304-5.481 9.101-6.481 2.762-.742 4.332 1.074 4.043 3.562-.324 2.664-2.574 5.313-4.23 7.614-1.723 2.41-3.403 4.82-5.172 6.492-.88-.438-1.91-.696-2.758-1.125.594-1.825 2.473-3.29 3.867-5.02 1.332-1.61 3.242-3.355 2.926-5.55-5.129 1.53-5.313 8.816-11.828 8.445-1.031-1.262-1.383-2.864-.985-5.028 1.125-6.02 7.16-12.535 11.704-14.441.87.754 1.539 1.7 2.093 2.762m37.633-2.602c2.285.664 4.281 1.578 6.168 2.602-.394 1.593-1.41 2.61-1.934 4.066-1.949-.707-3.593-1.719-5.66-2.293.45-1.441.95-2.922 1.426-4.375m29.387 17.375c-1.254.473-1.88.8-3.258 1.3-.738-4.077-2.148-9.858-6.02-11.378-2.261-.898-5.05.688-5.003 3.258.046 2.441 2.578 5.773 4.543 7.62.855.802 2.19 1.188 2.261 2.442-1.047.395-1.992.926-3.062 1.293-1.813-1.683-3.551-4.086-5.207-6.488-1.547-2.25-3.524-4.812-4.063-7.469-.879-4.375 2.063-7.383 6.02-6.984 4.035.426 6.828 3.52 8.906 6.039 2.488 2.969 4.129 6.11 4.883 10.367m-54.031-7.644c.261 4.62 2.488 7.246 4.859 9.754-.734 2.273-1.797.37-2.758-.81-1.785-2.198-3.71-5.265-3.734-7.952-1.57.394-2.532 1.328-3.719 2.125 1.309 4.637 3.79 8.187 6.637 11.328-2 2.437-3.227 5.648-5.352 7.953-3.23-1.988-7.344-3.45-12.656-2.894-.621 1.222-1.086 3.44-.977 4.847 4.157-1.078 8.754-.176 11.703 1.625-.484.3-.425 1.102-1.156 1.125-3.797-1.578-6.992-2.195-10.855-.808-.055 12.718 5.082 20.23 12.18 25.835 3.066-1.902 4.78-5.18 6.312-8.62.277-.239 1.14-.094 1.293.316-.793 4.37-3.41 6.937-6.156 9.39 1.238.477 2.054 1.434 3.394 1.793 3.41-2.992 5.656-7.09 7.305-11.824 3.426.23 6.55.008 9.586.485-.102 3.703.293 5.921 1.625 8.925.61 1.399 1.832 4.118 2.926 4.38.968.222 3.18-.856 4.535-1.466 9.754-4.425 16.527-13.449 17.668-25.312-2.864-1.895-7.946-2.45-11.848-1.149-.125-.543-.64-.746-.64-1.437 3.605-1.379 9.722-1.008 12.663.617.118-1.387-.175-2.418-.175-3.71-5.25-1.481-8.809-1.602-13.95-.466a1673 1673 0 0 1 -4.39-8.785c4.098-2.07 7.492-4.855 9.11-9.437-.997-1.149-2.282-2.016-3.583-2.91-1.23 3.957-3.3 7.078-6.629 8.949-.039-.602-.492-.742-.508-1.297 2.536-2.23 4.72-4.805 5.676-8.598-6.55-4.988-20.234-6.191-28.386-1.972m29.363.992c6.82 5.312 13.375 12.488 14.289 23.523 1.164 14.426-5.637 23.344-13.973 29.672-9.586 5.887-22.281 6.445-31.629 1.66-8.738-4.535-15.859-13.789-16.882-24.203-.239-2.52.347-3.512-.493-5.668.985-2.379.97-5.883 1.97-8.254 2.644-8.168 8.6-14.324 15.894-18.375 2.722-.687 5.988-2.363 9.89-2.75 7.93-.816 15.844 1.555 20.934 4.395" fill="#211e1e"/><path d="m162.61 173.586c.609 4.851 2.492 8.441 5.68 10.719.401-.278.71-.594 1.288-.684-2.613-2.55-4.754-5.594-5.36-10.195-.554.047-1.3-.117-1.609.16m6.97-14.758c-3.29 2.61-6.009 5.766-6.81 10.863.54.047.918.246 1.633.157.887-4.391 3.203-7.383 6.153-9.743-.364-.398-.262-1.23-.977-1.277m-29.71-1.316c-.235.508-.786.683-.786 1.484 2.695 2.32 4.156 5.875 4.695 10.363h1.485c-.09-5.664-2.324-9.152-5.395-11.847m7.805-11.68c-1.938 2.617-3.703 5.398-5.52 8.117 3.883 3.477 7.094 7.606 6.82 15.242 2.919.301 7.54.2 9.743.168 1.7-5.925 4.781-10.445 8.906-13.949-.992-2.816-2.156-5.504-3.219-8.254-5.343 1.48-12.625.746-16.73-1.324m3.113-4.695c-.07.601-.547.8-.672 1.3 2.95 1.895 9.684 2.54 12.98.47-.277-.345-.386-.907-.655-1.294-3.38 1.301-8.743.926-11.653-.476m20.578-9.73c-.957 3.792-3.14 6.366-5.675 8.597.015.555.468.695.507 1.297 3.328-1.871 5.399-4.992 6.63-8.95 1.296.895 2.581 1.762 3.581 2.91-1.617 4.583-5.011 7.368-9.11 9.438 1.45 2.926 2.919 5.86 4.392 8.785 5.14-1.136 8.699-1.015 13.949.465 0 1.293.293 2.324.176 3.715-2.942-1.629-9.055-2-12.665-.621 0 .687.516.894.641 1.434 3.902-1.297 8.984-.747 11.848 1.152-1.14 11.863-7.914 20.887-17.668 25.309-1.356.613-3.567 1.69-4.535 1.468-1.094-.261-2.317-2.98-2.926-4.379-1.332-3.004-1.727-5.222-1.625-8.925-3.035-.477-6.16-.254-9.586-.485-1.649 4.735-3.895 8.832-7.305 11.82-1.34-.355-2.156-1.312-3.394-1.789 2.746-2.449 5.363-5.02 6.156-9.39-.152-.41-1.016-.555-1.293-.317-1.531 3.442-3.242 6.72-6.313 8.622-7.097-5.606-12.234-13.118-12.18-25.836 3.864-1.387 7.06-.77 10.856.808.73-.023.672-.824 1.156-1.125-2.949-1.8-7.546-2.703-11.703-1.625-.109-1.406.356-3.625.977-4.847 5.312-.555 9.426.906 12.656 2.894 2.121-2.305 3.352-5.52 5.352-7.953-2.848-3.137-5.328-6.691-6.637-11.328 1.188-.797 2.148-1.73 3.719-2.125.023 2.687 1.949 5.754 3.734 7.953.957 1.18 2.024 3.082 2.758.809-2.367-2.508-4.598-5.133-4.86-9.754 8.153-4.22 21.837-3.016 28.387 1.972" fill="#fff"/><path d="m162.438 141.613c.269.387.378.95.656 1.293-3.297 2.07-10.031 1.426-12.98-.469.124-.5.6-.699.671-1.3 2.91 1.402 8.274 1.773 11.652.476m1.965 5.543c1.063 2.75 2.227 5.438 3.22 8.254-4.122 3.504-7.208 8.024-8.907 13.95-2.203.03-6.824.132-9.742-.169.277-7.636-2.934-11.765-6.82-15.242 1.816-2.719 3.581-5.504 5.519-8.117 4.105 2.066 11.387 2.805 16.73 1.324m-19.14 22.204h-1.485c-.539-4.493-2-8.044-4.695-10.368 0-.8.55-.972.785-1.48 3.07 2.695 5.309 6.183 5.395 11.847m25.293-9.254c-2.95 2.364-5.266 5.352-6.153 9.743-.715.09-1.093-.11-1.632-.157.8-5.097 3.52-8.254 6.808-10.863.715.047.613.879.977 1.277m-6.336 13.321c.605 4.597 2.746 7.644 5.36 10.195-.579.09-.888.406-1.29.684-3.191-2.278-5.07-5.867-5.68-10.72.309-.276 1.055-.112 1.61-.16m-22.875 20.935c-.121 2.41 2.918 2.663 5.199 3.046 2.898-4.203-4.992-6.976-5.2-3.047m-7.945 5.172c.055-1.129.887-1.476 1.125-2.445 2.493 1.824 8.114 5.582 11.372 2.094-3.782.207-11.797-2.774-10.215-7.45.53-1.578 2.422-2.523 5.011-2.43 4.602.231 11.34 3.02 12.016 7.153.672 4.235-2.695 6.992-6.488 7.297-5.614.426-9.371-2.43-12.82-4.219m27.746-4.218c-.93 3.804 4.613 2.68 6.152 1.44.238-3.796-5.512-4.081-6.152-1.44m-3.563 10.21c-.062-.648 0-1.648-.191-2.601 4.816.414 9.535-.363 10.578-4.2-1.778.555-4.469 2.567-8.469 2.11-2.473-.289-5.312-1.984-3.852-5.348 1.063-2.527 5.961-4.078 9.055-4.546 2.555-.38 5.399-.032 6.828 1.144 3.586 2.898 2.133 7.89-1.125 10.367-2.886 2.188-7.136 3.074-12.824 3.074" fill="#211e1e"/><path d="m146.543 197.406c-2.281-.383-5.32-.636-5.2-3.047.208-3.93 8.098-1.156 5.2 3.047" fill="#bd8f19"/><path d="m136.64 123.43c1.395-1.657 3.903-2.274 5.997-3.235.508 1.512 1.172 2.84 1.625 4.399-1.602.707-4.047 1.437-4.88 2.406-1.308-.137-1.972-2.316-2.741-3.57m28.394-12.48c.067.745-.394 2.3-.633 3.234-2.593-1.395-8.5-3.75-11.539-1.118 1.61 1.579 4.625.977 6.98 1.61 1.727.492 2.88 1.402 4.06 2.101 2.53 7.875-12.587 5.86-16.708 6.043-.168-1.215-.668-2.093-.8-3.277 2.593-.172 8.414 1.613 11.187-.5-1.68-3.043-13.473.598-12.32-5.336.047-.371.324-1.086.633-1.484 3.218-3.97 14.75-3.97 19.14-1.274" fill="#211e1e"/><path d="m170.406 202.45c3.258-2.477 4.711-7.473 1.125-10.364-1.43-1.18-4.273-1.527-6.828-1.149-3.09.47-7.992 2.02-9.055 4.547-1.46 3.364 1.38 5.063 3.852 5.348 4 .457 6.695-1.555 8.469-2.11-1.043 3.837-5.762 4.614-10.578 4.204.191.949.129 1.949.191 2.597 5.688 0 9.938-.886 12.824-3.074m-24.187 1.297c3.789-.3 7.16-3.058 6.488-7.293-.676-4.133-7.414-6.922-12.016-7.152-2.59-.098-4.476.851-5.011 2.43-1.586 4.675 6.433 7.656 10.215 7.449-3.258 3.492-8.883-.27-11.372-2.09-.238.965-1.07 1.312-1.125 2.441 3.45 1.79 7.207 4.645 12.82 4.215m27.255-16.695c1.57 1.68 2.785 4.586 4.543 5.523.922-.57 1.863-1.851 2.617-2.629 1.437-1.468 4.387-5.324 6.637-4.347.222.84.167 1.785-.157 2.586-1.41 3.332-5.843 5.796-8.93 6.984.594.793.794 1.984 1.762 2.426 4.75-1.996 11.75-8.317 12.18-14.946.203-2.84-1.555-4.441-3.41-4.043-3.824.81-5.606 6.145-8.43 8.118-.37-.54-.87-.957-1.308-1.442 2.195-2.433 4.218-5.043 5.535-8.304-.825-.278-1.293-.973-2.442-.973-1.617 4.59-5.242 7.738-8.597 11.047m-48.504-12c.117 2.324 1.465 3.48 2.101 5.351-2.101.953-3.703 2.356-5.843 3.22-1.032-1.852-1.817-4.005-2.91-5.81-.63.301-1.31.54-1.954.793 2.524 7.114 6.774 12.47 11.848 17.024.469-.602 1.11-1.063 1.445-1.762-1.238-1.496-2.894-2.508-3.87-4.234 2.55-2.305 5.058-4.66 7.76-6.793-.648-1.602-1.925-2.625-2.733-4.04-2.68.024-2.965-2.37-3.887-4.081-.973-.184-1.117.402-1.957.332m26.437-49.02c-3.902.387-7.168 2.063-9.89 2.75-7.293 4.055-13.25 10.207-15.895 18.375-1 2.371-.984 5.875-1.969 8.254.84 2.156.254 3.149.493 5.668 1.023 10.414 8.144 19.668 16.882 24.203 9.348 4.785 22.043 4.227 31.63-1.66 8.335-6.324 15.136-15.246 13.972-29.672-.914-11.039-7.469-18.21-14.29-23.523-5.089-2.84-13.003-5.211-20.933-4.395m40.719.68c-2.078-2.52-4.871-5.613-8.906-6.04-3.957-.398-6.899 2.606-6.02 6.985.54 2.657 2.516 5.219 4.063 7.469 1.656 2.402 3.394 4.809 5.207 6.488 1.07-.367 2.015-.898 3.062-1.293-.07-1.254-1.406-1.64-2.261-2.441-1.965-1.848-4.497-5.18-4.543-7.621-.047-2.57 2.746-4.156 5.003-3.262 3.872 1.524 5.282 7.305 6.02 11.383 1.379-.5 2.004-.824 3.258-1.305-.754-4.254-2.395-7.394-4.883-10.363m-52.742.285c.832-.965 3.277-1.695 4.879-2.402-.453-1.563-1.117-2.883-1.625-4.399-2.094.961-4.602 1.578-5.996 3.235.77 1.254 1.437 3.433 2.742 3.566m26.812-2.918c2.067.574 3.711 1.586 5.66 2.293.524-1.46 1.54-2.473 1.934-4.066-1.887-1.024-3.883-1.938-6.168-2.602-.476 1.453-.976 2.934-1.426 4.375m-38.3-4.535c-4.543 1.906-10.579 8.422-11.704 14.441-.398 2.164-.05 3.766.98 5.028 6.52.375 6.704-6.914 11.833-8.446.316 2.196-1.594 3.942-2.926 5.551-1.394 1.73-3.273 3.196-3.867 5.02.844.43 1.879.691 2.758 1.125 1.77-1.672 3.449-4.082 5.168-6.492 1.66-2.301 3.91-4.95 4.234-7.614.29-2.492-1.281-4.304-4.043-3.562-3.797 1-5.496 5.125-9.101 6.48.816-5.043 4.75-6.945 8.761-8.77-.554-1.062-1.222-2.007-2.093-2.761m18-7.316c-.31.394-.586 1.109-.637 1.48-1.149 5.934 10.644 2.293 12.324 5.34-2.773 2.11-8.594.324-11.187.496.132 1.184.632 2.062.8 3.277 4.125-.183 19.235 1.832 16.707-6.043-1.18-.699-2.332-1.609-4.058-2.101-2.356-.633-5.371-.031-6.98-1.61 3.038-2.632 8.945-.277 11.538 1.118.239-.938.7-2.489.637-3.235-4.398-2.695-15.926-2.695-19.144 1.278m7.144-4.211c20.473-.66 38.031 10.261 46.402 26.77 2.754 5.472 4.996 12.265 5.371 18.823 1.141 22.559-10.609 39.442-26.628 47.711-5.614 2.903-12.164 4.918-19.301 5.489-15.25 1.253-27.77-4.918-36.524-12.606-8.785-7.766-15.722-18.96-16.39-33.91-.739-16.39 5.906-28.648 13.488-36.863 7.691-8.34 19.625-14.922 33.582-15.414" fill="#bd8f19"/><path d="m182.07 176.004c1.149 0 1.618.7 2.442.973-1.317 3.261-3.34 5.867-5.535 8.304.437.485.937.903 1.308 1.442 2.824-1.973 4.606-7.309 8.43-8.118 1.855-.398 3.613 1.204 3.41 4.043-.43 6.63-7.43 12.95-12.18 14.946-.968-.442-1.168-1.633-1.761-2.426 3.086-1.188 7.515-3.652 8.93-6.984.323-.801.378-1.747.156-2.586-2.25-.977-5.2 2.879-6.637 4.347-.754.778-1.696 2.059-2.617 2.633-1.758-.941-2.973-3.848-4.543-5.531 3.355-3.305 6.98-6.453 8.597-11.043m-55.144-1.285c.922 1.715 1.207 4.105 3.887 4.082.808 1.41 2.085 2.437 2.734 4.035-2.703 2.133-5.207 4.492-7.762 6.797.977 1.726 2.633 2.738 3.867 4.234-.332.7-.972 1.16-1.441 1.762-5.074-4.555-9.324-9.914-11.848-17.024.645-.253 1.325-.492 1.953-.792 1.094 1.808 1.88 3.957 2.91 5.808 2.141-.863 3.743-2.266 5.844-3.219-.632-1.87-1.984-3.027-2.101-5.351.84.07.984-.516 1.957-.332" fill="#211e1e"/><path d="m167.297 196.754c-1.54 1.238-7.082 2.363-6.152-1.442.64-2.64 6.39-2.355 6.152 1.442" fill="#bd8f19"/></g><path d="m105.852 157.512c0 27.324 22.175 49.488 49.527 49.488 27.309 0 49.512-22.164 49.512-49.488 0-27.352-22.203-49.52-49.512-49.52-27.352 0-49.527 22.168-49.527 49.52zm0 0" fill="none" stroke="#211e1e" stroke-miterlimit="10" stroke-width=".426"/></g></svg>