<svg viewBox="36.41 36.41 191.03 289.63" xmlns="http://www.w3.org/2000/svg"><path d="M45.29 73.14l.03 157.27c.07 22.54 22.24 43.95 40.82 57.94 17.85 13.44 36.26 23.17 45.78 27.82 9.52-4.66 27.93-14.39 45.78-27.82 18.58-13.99 40.75-35.41 40.82-57.97l.02-157.24-86.62-27.38L45.3 73.14z" fill="gold"/><path d="M218.51 230.38c-.07 22.56-22.24 43.98-40.82 57.97-17.85 13.44-36.26 23.16-45.78 27.82-9.52-4.66-27.93-14.38-45.77-27.82-18.58-13.99-40.75-35.4-40.82-57.94l-.03-157.27 86.62-27.39 86.63 27.39zm-86.6-193.97l-95.5 30.21v163.79c.17 50.22 86.34 91.4 95.5 95.63 9.15-4.23 95.33-45.41 95.5-95.63l.03-163.79z"/><path d="M187.21 207.14c-1.93-1.53-3.98-3.78-5.6-5.41 1.67-4.92 2.33-13.77 0-16.26-1.06-1.16 1.1-5.19 1.09-5.79-.05-.76-1.67-4.35-2.45-4.38-.43-.05-5.13.41-8.38.41-1.62-1.63-1.79-17.23-2.18-17.56-.68-.63-3.6-4.46-4.27-5.86-.58-1.13-1.8-2.1-1.43-3.44.33-1.08.64-9.31 1.14-10.25 1.31-1.55 3.97-1.43 5.04-3.33.61-1.11.87-2.55.62-3.77-.22-.63-4.62-3.76-4.74-4.26 0-.4.48-.53.81-.71.8-.36 4.98 1.75 5.48 1.8 1.8.11 2.15-3.51 2.15-3.51s.34-2.34-.48-3.14c-.22-.25-.63-.52-.88-.2-.36.61-.08 1.92-1.28 1.28-1.22-.78-2.71-1.46-3.57-2.62 5.2-4.58 6.35-4.64 6.36-5.03-.01-1.07-3-12.59-2.7-12.62 4.08-.24-2.65-3.99-4.22-4.8-4.49-2.9-4.85-2.77-10.2-1.71-1.38.22-2.74.01-4.03-.65-4.71-1.92-1-4.48-3.47-6.71-.64-.63-2.31-2.32-2.49-2.54-.96-.87-1.96-7.61-2.7-8.33-2.39-1.92-9.32-6.17-9.99-6.63-.36-.24-8.82 3.08-9.2 4.12-.53 1.23-3.24 7.02-5.49 7.87-1.95.36-8.13 3.57-8.94 4.02-.9.45-1.87 9.24-2.43 9.26-.41.02-1.87-.33-2.77-.32-.21 0-.34.01-.41.33-.14 3.02-2.93 17.32-1.81 18.1.89.6 2.27.54 2.7 1.72.47.99.24 2.09-.08 3.06-.25 1.08-.89 2.6-2.21 2.76-1.34.05.27-3.26-3.04-4.29-1.24-.15-2.64 2.81-3.02 3.71-.45 1.44-.52 9.86-.33 12.95.34 2.24 7.52 4.95 7.52 4.95l.49 3.48-4.22-.12s-.33 11.43-.52 11.95c-.13.33-.58.3-.85.13-.88-.54-4.59-2.4-4.86-8.53.16-1.61 2.1-4.83.71-6.22-1.4.04-3.74-2.29-3.92-2.3-.08 0-.11.08-.13.15-.11.45-.22 1.65-.17 2.14.07.7 2.38 1.97 1.4 1.64-.31-.12-1.09-.68-1.4-.63-1.65-.16-4.39.45-4.73 2.45-.05 2.15 2.63-.15 3.38 1.58 2.99 4.86-1.41 5.56.39 8.29.74 1.04 2.65 6.35 2.49 6.69-.57 1.12-3.6-3.73-3.92-4.5-1.34-3.93-3.71-2.79-5.54.02-.56 1.38.14 12.04.46 13.24.5 3.44 7.26 50.16 8.22 51.71.57.84 3.29 4.62 4.36 5.44 2.84 2.37 4.41 19.06 3.54 20.29-.83.98-2.12 1.44-3.23 2.08-.66.32-1.51.79-1.06 1.65.63 1.19 12.08 23.17 21.62 27.51 3.04 1.25 12.87 2.91 14.29 2.64 5.31-1.12 14.07-3.92 19.73-5.23.85-.45 1.69-10.61 1.71-11.9-.22-.64-8.91-.93-9.92-1.32-1.05-.44-1.78-1.99-.74-2.77 1.54-.51 13.16-2.87 13.5-2.08.2.54.42 5.45.28 5.94-.06 1.35 1.31 3.65 1.84 3.2 3.22-2.02 1.37-4.13 2.63-6.92.89-1.64 3.14-.47 5.29-4.01.79-1.77 21.03-47.51 20.75-47.93z"/></svg>