<svg viewBox="0 0 254.03 394" xmlns="http://www.w3.org/2000/svg"><g transform="matrix(1.51766 0 0 1.51766 -109.598 -39.613)"><path d="m239.598 147.277c0 46.223-37.473 83.692-83.692 83.692-46.222 0-83.691-37.469-83.691-83.692 0-46.218 37.469-83.691 83.691-83.691 46.219 0 83.692 37.473 83.692 83.691" fill="#fff"/><g fill="#211e1e"><path d="m122.469 103.441c-13.27 10.055-21.84 25.985-21.84 43.946 0 4.867.648 9.582 1.836 14.074l-19.168 8.176a75.8 75.8 0 0 1 -3.32-22.25c0-29.086 16.343-54.301 40.343-67.004l2.645 6.394c-21.508 11.641-36.106 34.399-36.106 60.61 0 4.347.407 8.601 1.176 12.726l6.516-2.781a62 62 0 0 1 -.805-9.945c0-23.336 12.856-43.633 31.871-54.211l7.988 19.289c-11.546 7.324-19.207 20.215-19.207 34.922 0 2.949.325 5.82.91 8.597l-6.44 2.746a48 48 0 0 1 -1.352-11.343c0-15.078 6.898-28.524 17.71-37.36zm19.914 12.176-18.461-44.554-.012.007v-.007c-29.855 12.453-50.816 41.914-50.816 76.324 0 11.129 2.195 21.738 6.176 31.43l.07-.032.008.031 37.957-16.191 6.34-2.695a34.4 34.4 0 0 1 -2.364-12.543c0-14.309 8.703-26.567 21.102-31.77"/><path d="m156.105 64.621a82.6 82.6 0 0 0 -25.296 3.945l2.652 6.383a75.8 75.8 0 0 1 22.644-3.441c41.86 0 75.73 33.89 75.73 75.77 0 41.882-33.87 75.769-75.73 75.769-28.992 0-54.148-16.258-66.875-40.168l-6.359 2.707c13.797 26.375 41.395 44.351 73.234 44.351 45.665 0 82.614-36.972 82.614-82.66s-36.95-82.656-82.614-82.656"/><path d="m156.105 216.16c38.051 0 68.844-30.808 68.844-68.883 0-38.07-30.793-68.879-68.844-68.879a68.9 68.9 0 0 0 -19.988 2.946l2.664 6.41a62 62 0 0 1 17.324-2.469c34.247 0 61.961 27.727 61.961 61.992s-27.714 61.996-61.96 61.996c-23.293 0-43.551-12.836-54.137-31.82l-6.38 2.719c11.657 21.445 34.372 35.988 60.516 35.988"/><path d="m156.105 202.383c30.442 0 55.075-24.645 55.075-55.106 0-30.457-24.633-55.105-55.075-55.105-5.082 0-9.992.703-14.66 1.988l2.66 6.406a48.4 48.4 0 0 1 12-1.503c26.637 0 48.192 21.566 48.192 48.214 0 26.653-21.555 48.22-48.192 48.22-17.593 0-32.964-9.411-41.378-23.481l-6.38 2.718c9.505 16.528 27.317 27.649 47.758 27.649"/><path d="m156.105 188.61c22.833 0 41.31-18.489 41.31-41.333s-18.477-41.328-41.31-41.328c-.738 0-1.472.028-2.203.067l2.852 6.84c18.723.343 33.773 15.605 33.773 34.421 0 19.04-15.394 34.442-34.422 34.442-11.886 0-22.359-6.012-28.542-15.168l-6.426 2.734c7.308 11.61 20.226 19.324 34.968 19.324"/></g><path d="m141.828 142.754h2.957v10.383h-1.96v-8.528h-2.141zm9.872 4.402q.55 0 .921-.398c.25-.27.375-.598.375-.996q0-.603-.39-1.012a1.22 1.22 0 0 0 -.915-.406 1.27 1.27 0 0 0 -.945.402c-.266.27-.394.606-.394 1.012q-.002.596.382 1 .386.398.965.398m-.25 6.242-1.68-.836 1.82-3.535a3.03 3.03 0 0 1 -2.25-.945q-.925-.942-.925-2.348 0-1.36.95-2.3a3.13 3.13 0 0 1 2.292-.942c.938 0 1.715.324 2.34.977q.938.973.938 2.246c0 .316-.051.64-.149.96q-.142.486-.664 1.493zm8.141-4.668q-.549.002-.922.403-.375.397-.375.996 0 .602.39 1.012.393.408.915.406.551 0 .945-.399.397-.404.395-1.02.002-.597-.383-.995a1.29 1.29 0 0 0 -.965-.403m.25-6.238 1.683.84-1.82 3.527c.883 0 1.629.317 2.246.95q.926.945.926 2.351 0 1.355-.95 2.293a3.12 3.12 0 0 1 -2.292.945c-.938 0-1.715-.328-2.34-.976q-.938-.98-.938-2.242.001-.481.149-.97.142-.486.664-1.495zm8.055 4.664q.55 0 .925-.398c.25-.27.375-.598.375-.996q0-.603-.394-1.012a1.22 1.22 0 0 0 -.914-.406 1.27 1.27 0 0 0 -.946.402q-.393.404-.394 1.012-.002.596.383 1 .385.398.965.398m-.247 6.242-1.68-.836 1.817-3.535a3.02 3.02 0 0 1 -2.246-.945c-.621-.629-.926-1.41-.926-2.348q.001-1.36.946-2.3a3.14 3.14 0 0 1 2.293-.942q1.406-.001 2.34.977.936.973.937 2.246c0 .316-.05.64-.145.96q-.146.486-.668 1.493zm-40.258-98.367 8.938-6.828 8.942 6.828-3.418-11.05 8.941-6.829h-11.047l-3.418-11.05-3.414 11.05h-11.05l8.94 6.828zm39.153 0 8.937-6.828 8.942 6.828-3.418-11.05 8.941-6.829h-11.05l-3.415-11.05-3.414 11.05h-11.05l8.941 6.828zm0 0" fill="#7f683f"/><g fill="#211e1e"><path d="m149.34 270.023v-.289c0-.793.64-1.437 1.433-1.437h4.254v-3.328h-6.113a3.057 3.057 0 0 0 -3.055 3.054v9.043c0 .887.72 1.606 1.606 1.606h2.918c.793 0 1.437.644 1.437 1.437v.707c0 .793-.644 1.438-1.437 1.438h-4.524v3.457h7.09a2.08 2.08 0 0 0 2.078-2.082v-10.09c0-1.148-.93-2.078-2.078-2.078h-2.176a1.435 1.435 0 0 1 -1.433-1.438m-15.02 12.231v-17.285h-3.75v20.742h11.192s-.063-3.2 0-3.457c0-.02 0 .02 0 0-.024 0 .023 0 0 0zm0 0"/><path d="m119.71 276.809 1.278-5.622 1.082 5.622zm3.77-11.84h-3.488l-4.61 20.742h2.278l1.285-5.55h3.77l1.066 5.55h4.696zm0 0" fill-rule="evenodd"/><path d="m188.098 242.098a1.36 1.36 0 0 1 -.567-.532q-.234-.369-.234-1.113l-1.613 2.477-.352.535q-.335.48-.336.832c0 .457 1.625 1.652 1.625 1.652l.227 10.121h-9.391a6.5 6.5 0 0 0 .246-1.816c0-1.824-1.594-4.863-3.281-5.89l-1.887 3.648c.64.64 2.016 1.808 2.156 4.058h-3.98a6.5 6.5 0 0 0 .246-1.816c0-1.824-1.594-4.863-3.285-5.89l-1.883 3.648c.64.64 2.016 1.808 2.156 4.058h-3.933a6.5 6.5 0 0 0 .246-1.816c0-1.824-1.598-4.863-3.285-5.89l-1.887 3.648c.64.64 2.016 1.808 2.16 4.058h-32.312l-4.864-8.34-3.18-.402s.782 3.18 1.055 4.102c2.899 1.914 2.664 4.64 2.664 4.64s-8.757 1.82-9.257-1.57l-.172.348c-.418 1.078-2.125 4.605-.164 5.722 1.855 1.055 9.05 1.262 11.457-.492 1.254-.918 1.433-1.492 1.433-1.492s1.324 2.363 3.188 2.316h56.976q.364-.796.422-.96.319-.828.625-1.684l.684-2.04q.349-1.034.347-2.316s.047-5.32.059-6.882c.016-1.563 1.441-3.38 1.441-3.38l-2.867-1.222zm9.504 7.597-.274-9.066-3.844 4.687.657 10.012q.112 1.91.113 3.668-.002 1.821-.113 3.133 2.108-2.084 2.894-4.121.685-1.846.684-4.977 0-1.457-.117-3.336"/><path d="m161.309 276.809 1.273-5.622 1.082 5.622zm3.77-11.84h-3.49l-4.609 20.742h2.278l1.281-5.55h3.77l1.07 5.55h4.691zm0 0" fill-rule="evenodd"/><path d="m180.242 280.656c0 .88-.71 1.59-1.59 1.59h-1.566v-13.726h1.566c.88 0 1.59.71 1.59 1.585zm.606-15.687h-7.23v20.738h7.23a2.86 2.86 0 0 0 2.863-2.86v-15.015a2.86 2.86 0 0 0 -2.863-2.863m12.812 15.687c0 .88-.71 1.59-1.59 1.59h-1.566v-13.726h1.566c.88 0 1.59.71 1.59 1.585zm.606-15.687h-7.23v20.738h7.23a2.864 2.864 0 0 0 2.863-2.86v-15.015a2.865 2.865 0 0 0 -2.863-2.863"/></g></g></svg>