<svg viewBox="0 0 189.46 234.46" xmlns="http://www.w3.org/2000/svg" xmlns:xlink="http://www.w3.org/1999/xlink"><linearGradient id="a"><stop offset="0" stop-color="#bfbfbf"/><stop offset=".117" stop-color="#c5c5c5"/><stop offset=".274" stop-color="#d7d7d7"/><stop offset=".454" stop-color="#f3f3f3"/><stop offset=".521" stop-color="#fff"/><stop offset="1" stop-color="#bfbfbf"/></linearGradient><linearGradient id="M" gradientUnits="userSpaceOnUse" x1="25.755" x2="162.148" xlink:href="#a" y1="147.995" y2="147.995"/><linearGradient id="N" gradientUnits="userSpaceOnUse" x1="25.759" x2="162.128" xlink:href="#a" y1="154.911" y2="154.911"/><linearGradient id="O" gradientUnits="userSpaceOnUse" x1="25.759" x2="162.134" xlink:href="#a" y1="159.98" y2="159.98"/><linearGradient id="P" gradientUnits="userSpaceOnUse" x1="25.747" x2="162.158" xlink:href="#a" y1="163.678" y2="163.678"/><linearGradient id="Q" gradientUnits="userSpaceOnUse" x1="25.756" x2="162.139" xlink:href="#a" y1="165.669" y2="165.669"/><linearGradient id="R" gradientUnits="userSpaceOnUse" x1="25.735" x2="162.16" xlink:href="#a" y1="165.629" y2="165.629"/><linearGradient id="S" gradientUnits="userSpaceOnUse" x1="25.71" x2="162.175" xlink:href="#a" y1="163.995" y2="163.995"/><linearGradient id="T" gradientUnits="userSpaceOnUse" x1="25.733" x2="162.157" xlink:href="#a" y1="162.204" y2="162.204"/><linearGradient id="U" gradientUnits="userSpaceOnUse" x1="25.76" x2="162.146" xlink:href="#a" y1="153.597" y2="153.597"/><linearGradient id="V" gradientUnits="userSpaceOnUse" x1="25.782" x2="162.143" xlink:href="#a" y1="145.769" y2="145.769"/><linearGradient id="j" gradientUnits="userSpaceOnUse" x1="85.064" x2="104.987" xlink:href="#a" y1="185.621" y2="185.621"/><linearGradient id="k" gradientUnits="userSpaceOnUse" x1="85.059" x2="104.994" xlink:href="#a" y1="185.166" y2="185.166"/><linearGradient id="l" gradientUnits="userSpaceOnUse" x1="85.054" x2="104.996" xlink:href="#a" y1="185.189" y2="185.189"/><linearGradient id="n" gradientUnits="userSpaceOnUse" x1="85.059" x2="104.995" xlink:href="#a" y1="185.166" y2="185.166"/><linearGradient id="o" gradientUnits="userSpaceOnUse" x1="85.054" x2="104.992" xlink:href="#a" y1="185.19" y2="185.19"/><linearGradient id="p" gradientUnits="userSpaceOnUse" x1="85.062" x2="104.98" xlink:href="#a" y1="195.463" y2="195.463"/><linearGradient id="q" gradientUnits="userSpaceOnUse" x1="85.056" x2="104.995" xlink:href="#a" y1="195.488" y2="195.488"/><linearGradient id="r" gradientUnits="userSpaceOnUse" x1="85.044" x2="105.004" xlink:href="#a" y1="195.488" y2="195.488"/><linearGradient id="s" gradientUnits="userSpaceOnUse" x1="85.072" x2="104.989" xlink:href="#a" y1="195.487" y2="195.487"/><linearGradient id="b" gradientUnits="userSpaceOnUse" x1=".141" x2="189.606" y1="116.729" y2="116.729"><stop offset="0" stop-color="#ebebeb"/><stop offset=".03" stop-color="#d3d3d3"/><stop offset=".075" stop-color="#b5b5b5"/><stop offset=".1" stop-color="#a9a9a9"/><stop offset=".112" stop-color="#bcbcbc"/><stop offset=".121" stop-color="#c6c6c6"/><stop offset=".228" stop-color="#c2c2c2"/><stop offset=".241" stop-color="#d7d7d7"/><stop offset=".461" stop-color="#c5c8c9"/><stop offset=".491" stop-color="#d9d9d9"/><stop offset=".528" stop-color="#d0d0d0"/><stop offset=".751"/><stop offset=".888" stop-color="#383838"/><stop offset=".903" stop-color="#646464"/><stop offset="1" stop-color="#cbcbcb"/></linearGradient><linearGradient id="W" gradientUnits="userSpaceOnUse" x1="25.757" x2="162.123" xlink:href="#a" y1="40.814" y2="40.814"/><linearGradient id="X" gradientUnits="userSpaceOnUse" x1="25.751" x2="162.16" xlink:href="#a" y1="34.54" y2="34.54"/><linearGradient id="Y" gradientUnits="userSpaceOnUse" x1="25.769" x2="162.113" xlink:href="#a" y1="31.444" y2="31.444"/><linearGradient id="Z" gradientUnits="userSpaceOnUse" x1="25.75" x2="162.158" xlink:href="#a" y1="34.563" y2="34.563"/><linearGradient id="aa" gradientUnits="userSpaceOnUse" x1="25.761" x2="162.131" xlink:href="#a" y1="33.546" y2="33.546"/><linearGradient id="ab" gradientUnits="userSpaceOnUse" x1="25.724" x2="162.199" xlink:href="#a" y1="29.28" y2="29.28"/><linearGradient id="ac" gradientUnits="userSpaceOnUse" x1="25.808" x2="162.067" xlink:href="#a" y1="28.824" y2="28.824"/><linearGradient id="ad" gradientUnits="userSpaceOnUse" x1="25.767" x2="162.133" xlink:href="#a" y1="28.403" y2="28.403"/><linearGradient id="ae" gradientUnits="userSpaceOnUse" x1="25.758" x2="162.143" xlink:href="#a" y1="32.313" y2="32.313"/><linearGradient id="af" gradientUnits="userSpaceOnUse" x1="25.72" x2="162.174" xlink:href="#a" y1="31.292" y2="31.292"/><linearGradient id="ag" gradientUnits="userSpaceOnUse" x1="25.725" x2="162.165" xlink:href="#a" y1="32.015" y2="32.015"/><linearGradient id="ah" gradientUnits="userSpaceOnUse" x1="25.779" x2="162.135" xlink:href="#a" y1="30.032" y2="30.032"/><linearGradient id="ai" gradientUnits="userSpaceOnUse" x1="25.81" x2="162.124" xlink:href="#a" y1="30.626" y2="30.626"/><linearGradient id="aj" gradientUnits="userSpaceOnUse" x1="25.717" x2="162.157" xlink:href="#a" y1="35.43" y2="35.43"/><linearGradient id="ak" gradientUnits="userSpaceOnUse" x1="25.703" x2="162.154" xlink:href="#a" y1="38.099" y2="38.099"/><linearGradient id="al" gradientUnits="userSpaceOnUse" x1="25.789" x2="162.14" xlink:href="#a" y1="37.23" y2="37.23"/><linearGradient id="am" gradientUnits="userSpaceOnUse" x1="25.782" x2="162.143" xlink:href="#a" y1="39.752" y2="39.752"/><linearGradient id="t" gradientUnits="userSpaceOnUse" x1="94.681" x2="94.681" xlink:href="#a" y1="42.752" y2="145.508"/><linearGradient id="u" gradientUnits="userSpaceOnUse" x1="91.901" x2="91.901" xlink:href="#a" y1="42.776" y2="145.488"/><linearGradient id="v" gradientUnits="userSpaceOnUse" x1="93.545" x2="93.545" xlink:href="#a" y1="42.623" y2="145.59"/><linearGradient id="w" gradientUnits="userSpaceOnUse" x1="94.47" x2="94.47" xlink:href="#a" y1="43.224" y2="145.218"/><linearGradient id="x" gradientUnits="userSpaceOnUse" x1="92.53" x2="92.53" xlink:href="#a" y1="42.546" y2="145.635"/><linearGradient id="y" gradientUnits="userSpaceOnUse" x1="89.731" x2="89.731" xlink:href="#a" y1="42.533" y2="145.673"/><linearGradient id="z" gradientUnits="userSpaceOnUse" x1="87.605" x2="87.605" xlink:href="#a" y1="42.82" y2="145.457"/><linearGradient id="A" gradientUnits="userSpaceOnUse" x1="93.595" x2="93.595" xlink:href="#a" y1="42.805" y2="145.472"/><linearGradient id="L" gradientUnits="userSpaceOnUse" x1="96.405" x2="96.405" xlink:href="#a" y1="42.75" y2="145.505"/><linearGradient id="c" gradientUnits="userSpaceOnUse" x1="5.529" x2="169.039" y1="-35.086" y2="67.32"><stop offset="0" stop-color="#ebebeb"/><stop offset=".036" stop-color="#d3d3d3"/><stop offset=".09" stop-color="#b5b5b5"/><stop offset=".121" stop-color="#a9a9a9"/><stop offset=".121" stop-color="#bcbcbc"/><stop offset=".121" stop-color="#c6c6c6"/><stop offset=".215" stop-color="#d7d7d7"/><stop offset=".328" stop-color="#ebebeb"/><stop offset=".36" stop-color="#e5e5e5"/><stop offset=".404" stop-color="#d4d4d4"/><stop offset=".453" stop-color="#b8b8b8"/><stop offset=".489" stop-color="#9f9f9f"/><stop offset=".704" stop-color="#fff"/><stop offset=".886" stop-color="#646464"/><stop offset="1" stop-color="#cbcbcb"/></linearGradient><linearGradient id="d" gradientUnits="userSpaceOnUse" x1="91.034" x2="24.316" y1="-27.988" y2="213.41"><stop offset="0" stop-color="#ebebeb"/><stop offset=".036" stop-color="#d3d3d3"/><stop offset=".09" stop-color="#b5b5b5"/><stop offset=".121" stop-color="#a9a9a9"/><stop offset=".121" stop-color="#bcbcbc"/><stop offset=".121" stop-color="#c6c6c6"/><stop offset=".236" stop-color="#d7d7d7"/><stop offset=".236" stop-color="#ebebeb"/><stop offset=".472" stop-color="#ebebeb"/><stop offset=".492" stop-color="#dbdbdb"/><stop offset=".503" stop-color="#d0d0d0"/><stop offset=".727" stop-color="#262626"/><stop offset=".839" stop-color="#757575"/><stop offset=".903" stop-color="#6b6b6b"/><stop offset=".903" stop-color="#646464"/><stop offset="1" stop-color="#cbcbcb"/></linearGradient><linearGradient id="e" gradientUnits="userSpaceOnUse" x1="174.129" x2="121.617" y1="33.825" y2="231.268"><stop offset="0" stop-color="#ebebeb"/><stop offset=".026" stop-color="#d3d3d3"/><stop offset=".066" stop-color="#b5b5b5"/><stop offset=".088" stop-color="#a9a9a9"/><stop offset=".106" stop-color="#bcbcbc"/><stop offset=".121" stop-color="#c6c6c6"/><stop offset=".236" stop-color="#ebebeb"/><stop offset=".267" stop-color="#d7d7d7"/><stop offset=".476" stop-color="#383838"/><stop offset=".817" stop-color="#646464"/><stop offset="1" stop-color="#cbcbcb"/></linearGradient><linearGradient id="f" gradientUnits="userSpaceOnUse" x1="128.371" x2="67.237" y1="199.768" y2="-49.397"><stop offset="0" stop-color="#1b1b1b"/><stop offset=".061" stop-color="#7d7d7d"/><stop offset=".172" stop-color="#0a0a0a"/><stop offset=".35" stop-color="#fbfbfb"/><stop offset=".491" stop-color="#e8e8e8"/><stop offset=".656" stop-color="#fff"/><stop offset="1" stop-color="#fff"/></linearGradient><linearGradient id="i" gradientTransform="matrix(-1 .0006 .0006 1 5080.43 -1.631)" gradientUnits="userSpaceOnUse" x1="5078.201" x2="5013.64" y1="118.3" y2="189.356"><stop offset=".249" stop-color="#ee3435"/><stop offset=".356" stop-color="#d92f32" stop-opacity=".858"/><stop offset=".557" stop-color="#b1252a" stop-opacity=".59"/><stop offset=".831" stop-color="#78131a" stop-opacity=".225"/><stop offset="1" stop-color="#57020c" stop-opacity="0"/></linearGradient><linearGradient id="K" gradientUnits="userSpaceOnUse" x1="119.238" x2="119.238" xlink:href="#a" y1="42.758" y2="145.495"/><linearGradient id="B" gradientUnits="userSpaceOnUse" x1="93.704" x2="93.704" xlink:href="#a" y1="42.731" y2="145.513"/><linearGradient id="C" gradientUnits="userSpaceOnUse" x1="106.647" x2="106.647" xlink:href="#a" y1="42.643" y2="145.525"/><linearGradient id="D" gradientUnits="userSpaceOnUse" x1="103.865" x2="103.865" xlink:href="#a" y1="42.78" y2="145.49"/><linearGradient id="E" gradientUnits="userSpaceOnUse" x1="108.206" x2="108.206" xlink:href="#a" y1="42.738" y2="145.517"/><linearGradient id="F" gradientUnits="userSpaceOnUse" x1="105.213" x2="105.213" xlink:href="#a" y1="42.774" y2="145.488"/><linearGradient id="G" gradientUnits="userSpaceOnUse" x1="106.905" x2="106.905" xlink:href="#a" y1="42.904" y2="145.338"/><linearGradient id="H" gradientUnits="userSpaceOnUse" x1="102.489" x2="102.489" xlink:href="#a" y1="42.764" y2="145.499"/><linearGradient id="I" gradientUnits="userSpaceOnUse" x1="91.822" x2="91.822" xlink:href="#a" y1="42.768" y2="145.494"/><linearGradient id="J" gradientUnits="userSpaceOnUse" x1="98.979" x2="98.979" xlink:href="#a" y1="42.761" y2="145.5"/><radialGradient id="g" cx="87.281" cy="117.009" gradientUnits="userSpaceOnUse" r="169.189"><stop offset=".249" stop-color="#ee3435"/><stop offset=".296" stop-color="#d92f32"/><stop offset=".384" stop-color="#b1252a"/><stop offset=".503" stop-color="#78131a"/><stop offset=".577" stop-color="#57020c"/><stop offset=".7" stop-color="#50040c"/><stop offset=".9" stop-color="#3e050d"/><stop offset="1" stop-color="#33020b"/></radialGradient><radialGradient id="h" cx="97.906" cy="102.386" gradientUnits="userSpaceOnUse" r="101.48"><stop offset=".644" stop-color="#ee3435"/><stop offset="1" stop-color="#ae1f25"/></radialGradient><path d="M189.46 20.15c-30.72-13.63-60.51-19.13-87.07-20C72.21-.9 36.81 3.27 0 18.96c0 0 10.26 16.21 7.78 72.72 0 0-7.97 65.64 26.73 90.05 0 0 60.16 42.31 59.57 52.54l.02-.49.02.68c-.49-10.23 59.5-51.91 59.5-51.91 34.59-24.04 27.4-89.76 27.4-89.76-1.88-56.54 8.44-72.64 8.44-72.64" fill="url(#b)"/><path d="M101.25 12.73v.14c22.79.76 48.37 5.43 74.73 17.36 0 0-.02.04-.08.13l11.86-8.11c.28-.56.44-.81.44-.81C157.9 7.99 128.49 2.56 102.28 1.7 72.61.66 37.81 4.75 1.62 20.1l11.95 9.02c31.52-13.67 61.83-17.31 87.68-16.39" fill="url(#c)"/><path d="M94.12 217.83l-.02-.59-.01.44c.51-8.96-51.12-45.99-51.12-45.99-29.77-21.37-22.93-78.83-22.93-78.83 2.13-49.47-6.66-63.66-6.66-63.66.06-.03.13-.05.19-.08L1.62 20.1c-.12.05-.25.1-.37.16 0 0 10.12 16 7.67 71.77 0 0-7.87 64.77 26.37 88.86 0 0 59.37 41.75 58.78 51.85l.01-.49.02.67c-.01-.22.02-.46.06-.71l.08-15.34c-.09.34-.14.67-.12.96" fill="url(#d)"/><path d="M187.76 22.25l-11.86 8.11c-.86 1.52-8.69 16.67-7.2 63.46 0 0 6.17 57.53-23.52 78.57 0 0-48.29 34.21-51.1 44.56l.09 15.25c2-11.15 58.65-50.51 58.65-50.51 34.13-23.72 27.03-88.57 27.03-88.57-1.6-48.74 5.97-67.03 7.91-70.87" fill="url(#e)"/><path d="M101.25 12.87v-.14c-25.85-.92-56.16 2.72-87.68 16.39l5.69 4.29-5.69-4.29c-.06.03-.13.05-.19.08 0 0 8.8 14.19 6.66 63.66 0 0-6.84 57.46 22.93 78.82 0 0 51.63 37.04 51.12 45.99l.01-.44.02.59c-.02-.3.03-.63.13-.98l.03-4.81-.03 4.81c2.81-10.35 50.94-44.46 50.94-44.46 29.68-21.05 23.52-78.57 23.52-78.57-1.5-46.79 6.33-61.94 7.2-63.46l-6.05 4.14 6.05-4.14c.05-.09.08-.13.08-.13-26.37-11.92-51.95-16.59-74.74-17.35" fill="url(#f)"/><path d="M176.4 29.78c-26.5-11.99-52.21-16.83-75.11-17.59-25.98-.92-56.46 2.73-88.14 16.48-.07.03-.13.05-.19.08 0 0 8.84 14.26 6.7 63.99 0 0-6.88 57.76 23.05 79.24 0 0 51.9 37.23 51.39 46.23l.01-.43.01.59c-.01-.3.03-.63.13-.99 2.83-10.41 51.2-44.69 51.2-44.69 29.84-21.16 23.65-78.99 23.65-78.99-1.51-47.03 6.36-62.26 7.23-63.79.05-.09.07-.13.07-.13" fill="url(#g)"/><path d="M174.25 32.02c-25.8-11.67-50.84-16.39-73.14-17.12-25.31-.9-54.98 2.66-85.83 16.04-.06.03-.12.05-.18.08 0 0 4.77 7.71 6.34 31.61 16.1 22.28 42.23 36.84 71.82 37 31.12.17 58.61-15.65 74.68-39.74 1.84-19.39 5.65-26.72 6.23-27.74z" fill="url(#h)"/><path id="m" d="M19.629 93.07c-.04.353-.26 2.863-.445 6.61l70.855 85.7 3.5-2.9zm-.635 12.797a157 157 0 0 0 .117 7.27l64.27 77.744 3.5-2.9zm.569 14.227c.233 2.703.562 5.489.994 8.336l56.173 67.95 3.5-2.89zm2.55 16.644c.868 3.76 1.952 7.51 3.325 11.15l24.011 29.05c4.318 3.2 9.68 7.278 16.174 12.439z" fill="url(#i)"/><path d="M88.3 186.93c0 .46-.17.87-.47 1.18l.41.71c.13.24.05.53-.19.67s-.53.06-.67-.17l-.41-.71c-.13.03-.26.05-.4.05-.95 0-1.73-.77-1.73-1.73v-3.51c0-.95.78-1.74 1.73-1.74.96 0 1.74.78 1.74 1.74v3.51zm-1.73.74c.41 0 .74-.33.74-.74v-3.51c0-.41-.33-.74-.74-.74s-.74.33-.74.74v3.51c0 .41.33.74.74.74" fill="url(#j)"/><path d="M93.07 188.03c.07.26-.08.54-.35.61a.503.503 0 0 1-.61-.34s-.12-.44-.3-1.08h-1.75c-.17.64-.3 1.08-.3 1.08a.494.494 0 1 1-.95-.27l1.65-5.99c.05-.22.25-.36.47-.36.23 0 .42.15.47.36zm-1.53-1.8c-.2-.72-.41-1.51-.6-2.18-.19.68-.41 1.47-.6 2.18z" fill="url(#k)"/><path d="M95.96 181.72c.28 0 .49.23.49.5 0 .28-.22.5-.49.5h-.85v5.45c0 .28-.22.49-.5.49-.27 0-.5-.21-.5-.49v-5.45h-.84c-.27 0-.5-.22-.5-.5 0-.26.23-.5.5-.5z" fill="url(#l)"/><use transform="matrix(-1 0 0 1 188.44 0)" xlink:href="#m"/><path d="M100.41 188.03a.494.494 0 1 1-.95.27s-.12-.44-.3-1.08h-1.75c-.17.64-.3 1.08-.3 1.08-.07.26-.34.41-.61.34a.5.5 0 0 1-.34-.61l1.65-5.99c.05-.22.25-.36.48-.36s.42.15.48.36zm-1.53-1.8c-.19-.72-.41-1.51-.6-2.18-.19.68-.4 1.47-.6 2.18z" fill="url(#n)"/><path d="M103.59 185.58l.9 2.41c.1.26-.03.55-.29.64a.5.5 0 0 1-.64-.29l-.95-2.57h-.56v2.39c0 .28-.22.49-.5.49-.27 0-.5-.21-.5-.49v-5.95c0-.26.23-.5.5-.5h1.24c.96 0 1.74.78 1.74 1.73v.58a1.77 1.77 0 0 1-.94 1.56m-1.55-.8h.74c.41 0 .75-.33.75-.74v-.58a.74.74 0 0 0-.75-.74h-.74z" fill="url(#o)"/><path d="M86.55 192.87c.23-.39.6-.68 1.04-.81.43-.12.9-.06 1.3.16.4.21.69.58.83 1.02.12.43.08.89-.13 1.3 0 0-1.27 2.41-1.79 3.4h1.5a.5.5 0 0 1 .49.5c0 .27-.22.49-.49.49h-2.31c-.17 0-.33-.1-.42-.24a.51.51 0 0 1-.02-.48l2.18-4.13c.09-.18.1-.39.05-.57a.77.77 0 0 0-.35-.44.8.8 0 0 0-.57-.06c-.18.05-.34.17-.45.34-.13.23-.43.31-.67.18a.48.48 0 0 1-.19-.66" fill="url(#p)"/><path d="M90.73 197.24v-3.51c0-.96.77-1.73 1.74-1.73.95 0 1.73.77 1.73 1.73v3.51c0 .96-.78 1.74-1.73 1.74-.96 0-1.74-.78-1.74-1.74m1-3.51v3.51c0 .41.33.75.74.75.4 0 .74-.34.74-.75v-3.51c0-.41-.34-.74-.74-.74-.41 0-.74.33-.74.74" fill="url(#q)"/><path d="M95.02 197.24v-3.51c0-.96.77-1.73 1.73-1.73.95 0 1.74.77 1.74 1.73v3.51c0 .96-.79 1.74-1.74 1.74s-1.73-.78-1.73-1.74m.99-3.51v3.51c0 .41.33.75.74.75s.74-.34.74-.75v-3.51c0-.41-.34-.74-.74-.74s-.74.33-.74.74" fill="url(#r)"/><path d="M99.22 194.77v-1.04a1.73 1.73 0 0 1 3.46 0v3.51c0 .78-.53 1.47-1.28 1.67-.75.21-1.56-.12-1.95-.81a.514.514 0 0 1 .18-.68c.24-.13.55-.05.68.19.17.29.51.43.83.35.32-.1.55-.39.55-.72v-.91c-.22.1-.48.16-.75.16-.93.01-1.72-.77-1.72-1.72m.99-1.04v1.04a.745.745 0 0 0 1.49 0v-1.04a.745.745 0 0 0-1.49 0" fill="url(#s)"/><path d="M94.65 51.97c-24.39 0-44.16 19.77-44.16 44.16s19.77 44.16 44.16 44.16 44.16-19.77 44.16-44.16c0-24.38-19.77-44.16-44.16-44.16m40.16 31.11c-1.14.84-4 2.98-5.44 4.5l-12.42-10.46c.02-.06.02-.12.02-.17-.09-1.7-2.84-10.01-4.56-12.56l3.5-4.64-.47-.36c9.09 5.17 16.08 13.6 19.37 23.69m-7.44 22.27l-12.44 4.92c-1.75-2.45-8.19-8.27-10.84-9.8l.97-16.36c2.79-.54 8.96-3.72 11.14-5.88l12.38 10.44c-.62 1.65-1.58 13.25-1.21 16.68m-36.2 18.19l-12.53 7.9-11.57-10.2-3.4-15.88c2.48-.62 8.47-3.79 10.41-5.52l14.12 9.5c-.23 3.2 2 11.75 2.97 14.2M68.49 66.21l13.44-7.77 11.09 4.13c-1.08 2.58-3.96 9.84-3.38 11.92.03.1.08.21.14.32l-14.99 8c-1.98-1.55-7.81-3.96-9.97-4.06zm20.18 41.82L74.81 98.7c.7-2.59 1.37-12.1.74-14.77l15.05-8.02c2.67 2.88 10.03 7.52 13.11 8.19l-.95 16.01c-2.9.39-12.19 5.8-14.09 7.92m26.12-49.02l-3.4 4.51c-2.62-.87-14.36-2.78-17.47-2.06L82.4 57.17v-1.46a42.17 42.17 0 0 1 32.39 3.3m-49.42 6.73l1.7.53-3.9 13.26c-2.62 2.48-6.73 10.26-7.58 12.8l-3.02.49c.82-10.59 5.56-20.1 12.8-27.08m-12.9 28.48l3.05-.5c.67 2.92 5 9.52 6.7 11.29l3.36 15.69-4.51 1.02c-5.42-7.1-8.66-15.97-8.66-25.57.01-.66.03-1.3.06-1.93m26.64 41.17v-2.65l13-8.2c2.73 1.28 11.83 2.05 14.67 2.1l3.85 8.58a42.1 42.1 0 0 1-15.98 3.14c-5.48.01-10.73-1.06-15.54-2.97m32.75-.7l-3.79-8.44c2.27-2.09 6.98-11.94 7.28-14.7l12.5-4.94c1.14 1.38 4.51 4.27 5.91 5.44-4.11 10.07-12 18.2-21.9 22.64" fill="#6e0d16" opacity=".25"/><path d="M117.18 52.32l.15 5.86a44.33 44.33 0 0 1 21.33 37.97c0 24.46-19.68 44.29-43.97 44.29s-43.97-19.83-43.97-44.29 19.69-44.28 43.97-44.28c1.8 0 3.57.11 5.32.32l.12-5.07c-1.78-.2-3.6-.3-5.43-.3-27.05 0-48.99 22.09-48.99 49.33 0 27.25 21.93 49.34 48.99 49.34 27.05 0 48.99-22.09 48.99-49.34a49.44 49.44 0 0 0-26.51-43.83" fill="url(#t)"/><path d="M91.91 101.85c-.16.08-.36.12-.28.39s.12.47.12.47.04.1.12.12 0 .15.08.02c.08-.12.14-.28.1-.37-.04-.08-.12-.23-.02-.33s.16-.35.16-.35-.08-.12-.18 0l-.1.13" fill="url(#u)"/><path d="M93.16 105.06s-.22.02-.12.08.3.06.33.16c.02.1.04.2.1.32s.24.22.24.22l.2.09.17-.17s0-.04-.05-.14a.57.57 0 0 0-.22-.26c-.08-.04-.25-.26-.25-.26l-.04-.06s-.06-.15-.12-.15-.16-.08-.2.04z" fill="url(#v)"/><path d="M94.24 106.18c0 .08-.06.14 0 .23.07.08-.12.02.15.1.26.08.34-.08.34-.08l-.12-.15-.16-.16z" fill="url(#w)"/><path d="M92.3 105.14c0 .08-.06.14 0 .22s-.13.02.14.1.35-.08.35-.08l-.12-.15-.16-.17z" fill="url(#x)"/><path d="M89.5 101.69c0-.11-.06-.19 0-.29s-.12-.03.14-.13.35.11.35.11l-.12.18-.16.21z" fill="url(#y)"/><path d="M87.37 101.37c0-.11-.06-.18 0-.29s-.12-.03.14-.13c.27-.1.35.1.35.1l-.12.18-.17.21z" fill="url(#z)"/><path d="M93.36 103.59c0-.1-.06-.18 0-.29.06-.1-.13-.02.14-.13.26-.11.35.1.35.1l-.13.18-.16.21z" fill="url(#A)"/><path d="M93.59 119.08c-.15-.15-.12-.37-.24-.34-.13.03-.44.06-.49.21-.06.16.06.44-.13.49-.18.07-.59.1-.59.1l-.09.21s0 .09.12.15c.13.07.09.04.37.1s.21-.1.55.16c.34.25 1.09.9 1.24.9s1.02-.04 1.02-.04l-.1-.21s-.21-.37-.43-.49-.52-.28-.52-.28l-.37.09s-.06-.09-.28-.25c-.22-.15-.31-.31-.31-.31v-.13z" fill="url(#B)"/><path d="M107.44 127.89s-.06.18-.37.53c-.31.34-.28.43-.59.74-.3.32-.52.53-.65.62-.12.1-.24.35-.24.35l.03.15s.03-.09.34-.06.22.19.49.03c.28-.15.89-.61.89-.71 0-.09.03-.34.03-.34l.12-.34s.09-.18.13-.34c.03-.15 0-.4.06-.49.07-.11-.24-.14-.24-.14" fill="url(#C)"/><path d="M104.55 105.99c-.34.23-.69 0-.63.63s.12.63.17.86c.06.23.12.29.29.46s.11-.11.17.17l.06.29s-.17.12-.17.75.34.86-.06 1.26-.46.23-.74.81c-.29.57-.4 1.09-.4 1.09l-.57.23s-.4.06-.23.23l.17.17s.74.05.92-.06c.17-.12.97-.17.97-.17l.23-.34s.06-.29.11-.46c.06-.17.06-.57.06-.57s.17-.52.17-.8c0-.29.06-.63.06-.81 0-.17.05-.97.05-1.2s.06-.35.06-.81.06-1.09.06-1.09.17-.06-.17-.4c-.35-.36-.58-.24-.58-.24" fill="url(#D)"/><path d="M108.11 98.13s.23.57.29.74c.05.18 1.03.46 1.03.8 0 .35.17.75 0 1.09s.35.86-.4 1.26c-.74.4-1.32.57-1.32.57l-.8-.4s.11-.23.34-.63.46-1.2.46-1.2.06-.4.17-.69c.12-.28.17-.69.17-.69s.06-.23-.06-.45c-.12-.23-.17-.46-.17-.46z" fill="url(#E)"/><path d="M106.96 92.85s-.46 0-.86.23c-.41.23-1.2.34-1.2.34l-.69-.63s-.29 0-.52.23-.23.46-.23.46l.23.23.17.4.17.23.23.06h.28l1.2-.46s.17-.17.4-.35c.23-.17.58-.4.58-.4z" fill="url(#F)"/><path d="M106.5 91.13c.06.23.35.46.35.46l.46-.34-.46-.11h-.35z" fill="url(#G)"/><path d="M104.21 95.89s-.13.1-.28.28c-.11.12-.24.28-.35.46-.28.46-.46.69-.69 1.09s-.11.63-.34.97c-.23.35-.46.52-.69.58s-1.09-.92-1.09-.92-.06 0 .34-.46c.41-.46.81-1.09.86-1.26.06-.17.4-.4.8-.4.41 0 1.21-.57 1.21-.57z" fill="url(#H)"/><path d="M96.86 100.48c-.4 0-1.2-.17-1.83-.28-.63-.12-.34.11-1.2-.23-.86-.35-1.38-.46-2.58-.81-1.2-.34-2.41-.69-2.58-.86s-1.15-.86-1.15-.86-.06-.52-.23-.69-.58-.63-.58-.86.07-.75.07-.75.11-.28.4.11c.29.4.17.17.46.69s-.12.17.57.69.41.12 1.32.81c.92.69 1.26 1.15 1.55 1.2.29.06.63.06 1.26.17s.4.11.63.11.46.12.8.12c.35 0 1.15-.35 1.49-.29s.17 0 .69.11 1.21-1.09.92.18l-.28 1.26z" fill="url(#I)"/><path d="M100.31 101.91s-.17-.06-.69.23-1.26 0-1.26 0l-.29.41s-.34.06-.23.63.17.63-.11 1.66c-.29 1.03-.41 1.03-.23 1.9.17.86.34 1.21.34 1.21s-.57-.41.11.58c.69.97.98 1.03.98.85 0-.17.12-.4 0-.58-.12-.17-.12-.57-.12-.8s-.29.11-.11-1.03c.17-1.15.4-1.95.4-1.95s.29-.63.4-.98c.11-.34.23-.97.23-.97s.23-.23.23-.57c0-.35.12-.75.12-.75l.46.06" fill="url(#J)"/><path d="M118.78 71.68s-.35.97-.29 1.15l.06.17h-.81l-.4-.4-.58.06.29.34.23.46c.23.46.98 1.2 1.5 1.72.51.51 2.06 3.78 2.06 3.78s1.15.57.8-.46c-.34-1.03-1.08-2.12-1.21-2.35-.11-.23-1.54-2.64-1.54-2.64s.17-.46.17-.86-.28-.97-.28-.97" fill="url(#K)"/><path d="M117 108.45h.06v-.32H117zM74.05 89c-.03.01-.05.03-.05.03s.02-.02.05-.03m41.06 18.76h.49v-.52h-.49zm-.98-.08h.2v-.52h-.2zm-36.92 25.1s-.22.53-.64.62c-.44.1-.77.06-.56.31s1.17.09 1.64-.09c.46-.19 1.14-.22 1.14-.22s-.28-1.83-1.58-.62M134.7 83.1s-2.84-6.66-4.2-7.82c0 0-.22-.55-.41-1.16-.2-.6-.42-.8-.66-1.07 0 0-.26.15-.26.01s-.07-1.15-.33-1.58c-.25-.43-1.26-.86-1.26-.86s1.44-3.95-2.12-4.85c0 0-2.91-1.11-3.09 2.16 0 0-1.33.18-.72 1.66 0 0-4.56-1.37-4.78-1.37s-.07-1.11.36-1.4c0 0-.11.11-.57-.68-.47-.79-.43-1.73-.94-2.59-.5-.86-.9-.82-1.04-1.62-.14-.79-.54-1.25-1.08-2.73-.54-1.47-.29-2.55-1.65-2.4 0 0-.07-2.91-1.62-4.49 0 0-.76-1.84-.43-2.56 0 0 .9-.75-1.15-.5l.03-2.27s2.41-.47.44-.93l-.25-1.87s-.68-1.47-1.04.29c0 0-.36 10.24-.36 10.71s.11 8.95.11 8.95-1.47-1.29-1.19.64c.01.04.02.08.03.13 0 0 .43.11-.13.55 0 0-1.07.52-.08 1.39 0 0-.35.61.26.83 0 0-.28.92.69 1.05 0 0 .16.2-.06.33s-1.72.33-.55 1.76c0 0 .28.18.72.13 0 0 .35.15 0 .37 0 0-.52.46.15 1.92l-1.96 6.91s-.07.53.43.55l4.49-.22s.61-.04.19-.92c0 0-.72-3.31-.35-3.96 0 0 .13-.28 1.62.9 0 0 2.92 3.03 3.85 2.07 0 0 .68-1.13.83-2.49 0 0-.26-2.13.22-1.57 0 0 1.13.31 2.48 3.83 0 0 .65 1.33.61 1.85 0 0 .79 2.61.17 3.07 0 0-1.67 1.03-1.61 2.07.06 1.03-.12.23-.12.23s-.57-.98-.74-.92.29-.23-.52-.74c-.8-.52-2.18-.17-2.23 1.32 0 0-2.58-.34-2.92 1.15l-28.06-1.6.66-.23c-.23-.39-.85-1.26-1.94-1.38 0 0 3.76-1.02.15-1.25l-2.35-.32-.39-.39s3.53-2.51-.94-3.76l-.47-.08-.32-.16-.24-.32s-2.43-3.29-4.93-1.33c0 0-.55.7-2.43-1.88 0 0-4.16-1.72-6.04.31 0 0-1.41.55-1.57.87-.16.31-.39.94-.39.94l2.31.31-1.84.71s-1.65 2.83 3.37 2.04c0 0 1.18.47-.08 1.25 0 0-.32 3.06 2.43 1.18 0 0 .63.55 1.02.78.39.24.24.24.78.47.55.24 1.8.71 1.8.71l-.63.63.43 1.19.57-.23s-.97 2.05-.34 2.53c.51.38 1.24.88 1.63 1.11.1.05.17.09.22.11.19.06-.2.34-.34.44.16-.11.69-.44.9-.44.23 0 .15-.08.54 0s1.49-.23 3.45 4 2.12 8.86 6.43 10.59c0 0 1.91 1.61 2.86 2.77s8.43 4.62 8.76 4.55c.34-.06-1.97 6.19-3.53 6.46 0 0-3.46-.95-2.78 2.17 0 0-.41 1.09-1.9 1.76-1.49.68-.67.96-.81 1.64 0 0-7.28 5.64-7.82 6.93 0 0-1.7.13-3.67 1.09 0 0-1.83.48-2.45.06 0 0-.61-.48-.54.75l-.13.74-.01.81c-4.93-.83-9.53-2.37-13.7-4.51-.09-.05-.18-.11-.27-.16.04.03.07.05.11.09-1.29-.67-2.54-1.39-3.74-2.17 2.49 2.06 5.24 3.86 8.2 5.36 7.52 4.75 16.66 7.54 26.51 7.54 25.75 0 46.63-19.03 46.63-42.51.01-4.7-.83-9.22-2.37-13.43m-4.56-6.12c.04.06.41.2.34.38-.06.18-.16.42-.34.51-.18.08-.3-.16-.64.24s-.32.53.2.62c.52.1 1.23.1 1.45.16s.3-.02.34.12.15.32.15.68-.1 1.05-.46 1.19-.88.12-1.08.26-.71.36-.79.5-.12.58-.21.82c-.1.24-.05.48-.35.62s-.6.18-.85.36c-.24.18-.7.46-.84.58s-.42.24-.52.32-.31-.02-.47-.22-.62-.44-.53-.7c.1-.26.05-.34.35-.64s.18-.52.7-.48 1.25.16 1.51.16.74-.04.74-.04l-.14-.34v-.3c0-.12.04-.32.04-.32s-.06-.06.18-.22.32-.3.52-.38.32-.18.32-.18-.08-.14-.28-.34-.64-.51-.72-.54c-.08-.04-.42-.14-.55-.12-.12.02-.28-.04-.32-.14s-.3-.4-.36-.52-.28-.44-.28-.44-.14-.22-.21-.27c-.06-.04-.32-.14-.36.02-.03.16-.22.5-.13.85.08.34.2.48.16.58s-.02.38.02.44.08.2.1.4.14.28-.02.4-.42.18-.42.18-.38-.14-.42-.24-.2-.44-.28-.54-.42-.44-.48-.68-.18-.48-.24-.56-.2-.41-.16-.48c.04-.08 1.17-.99 1.17-.99s.2-.12.24-.24.2-.22.33-.36c.12-.14.48-.3.54-.3s.12-.04.3-.08.32-.04.42-.04.39.06.54-.04c.16-.1.42-.28.42-.28l.26-.16c.21.19 1.07.73 1.11.79m-1.27 10.53c0 .17-.03.49-.06.57-.03.09-.08.64-.08.64s-.09.46-.12.57-.14.32-.29.46c-.14.14-.12.32-.12.32s-.03.23-.17.34-.14.06-.34.09 0 0-.12-.17c-.11-.17-.08-.12-.14-.29s-.03-.26 0-.43c.03-.18 0 0 .34-.58.34-.57.11-.46.23-.95.11-.49-.06-.23-.12-.31-.06-.09-.29-.06-.43-.15s-.89-.14-.89-.14-.54.63-.71.23-.09-.35-.09-.6c0-.26-.05-.46 0-.58.06-.11.41-.23.41-.23l.58.46s.34.17.49.17c.14 0 .28-.14.28-.14s.18-.34.35-.63.23-.12.34-.21c.12-.09.23-.17.6-.86h.26s.06.41.06.55-.15.41-.2.55c-.06.14-.03.34-.11.6-.09.26.05.55.05.72m-1.35 9.7c.03.23-.03.78-.03.98s-.17.8-.23 1.12-.09.63-.17 1.01c-.09.37-.23.55-.28.69-.06.14-.2.32-.26.51-.06.2-.2.29-.25.43-.06.14-.41.83-.46.97-.06.14-.52.4-.52.4s-.37.29-.72.46c-.34.17-.28.15-.51.06s-.08-.23-.08-.69.08-1.24.42-2.01 1.87-2.44 2.24-3.19.2-.89.2-1.35-.05-.96-.08-1.53c-.11-.02-.24-.07-.21-.22.06-.26.23-.49.63-.92s.31.26.43.43c.11.17 0 .74 0 .74s-.06.89-.09 1.23c-.03.36-.05.65-.03.88m-23.33 26.84c-2.62-.23-2.73-.46-4.67-1.6-1.93-1.13-2.96-1.65-3.59-2.39s-.8-.17.29-.85c1.08-.69 2.9-1.31 3.41-1.37s2.62-.85 3.3-.85 2.9-.23 2.9-.23.97-.06 1.14-.17.85-.51.29-1.25c-.57-.74 0-.29.17-1.02.17-.74.34-1.31.34-1.88s-.06-1.14-.06-1.14 9.46 2.95 18.25-7.19c-2.9 9.7-8.68 17.68-17.14 22.89-.01-.21-.03-.38-.09-.5-.11-.22-.51-.74-1.59-1.43-1.08-.68-1.31-1.08-1.77-1.08-.43 0 1.44.29-1.18.06m8.36-21.13c1.21.37 1.35.37 1.46.4.12.03.58.14.83.2.26.06.2.09.61.09.4 0 .54-.11.83-.11s.2-.06.52 0c.31.05.57.14.72.17.14.03.63.14.86.17s-.23.14.52-.03c.74-.17.69-.34 1.11-.14.43.2.52.2.61.26.08.06.23.06.48.08.26.03.35-.66.72.08.37.75.32 1.09.37 1.38.06.29.06.57.06.75 0 .17-.17.37-.26.43-.03.02-.11.01-.19-.02-.06.15-.12.27-.19.31-.14.08-.46-.29-1.12-.52s-1.06-.26-1.26-.28c-.2-.03-1.06 0-1.17.03-.12.03-.2.08-.6.06-.4-.03-.52.08-.97-.29-.46-.37-.75-.74-.75-.74s.29-.37-.54.03-1.46.26-1.46.26l-.52-.37-.43-.2s-.46.03-.55-.4-.52-1.12-.32-1.26c.2-.17-.57-.71.63-.34m.26-1.21c-.03-.15-.08-.95-.08-1.46 0-.52.25-.69.66-1.15.4-.46.66-.29 1-.54.35-.26.77.06.89.06s.32.23.32.23l.57.29s.89-.26 1.41-.32.14.37.2.55l-.14.35c-.09.15-.11.2-.11.2s-.34.06-.6.12-.37.23-.43.31c-.06.09-.14.2-.49.58-.35.37-.29.43-.35.63s.06.26.03.8c-.03.55-.17 0-.26 0h-.17s-.17.18-1.24-.11c-1.06-.29-.6-.03-1.09-.2-.49-.19-.09-.19-.12-.34m.75-7.46c.43.12.26-.08.95.23s.63.2 1.06.49.78.43.98.83.32.63.4.95c.09.32.12.4.12.55l-.17-.09c.23.35.49.35.37.49-.11.14-.66.11-.86.03-.21-.08-.58-.37-.69-.37s-.37-.17-.8-.05c-.43.11-1.17.11-1.17.11s-.35-.09-.35-.4c0-.32-.06-.98-.06-1.15s-.09-.37.03-.86c.1-.5-.24-.87.19-.76m9.81-.26l.11.11-.1.05c.05.48.31 1.04.33 1.45l.09 1.35c.02.46.28.83.14 1.38-.14.54-.6.8-.74.97l-.14.17s.05.14-.2-.32c-.26-.46-.23-.63-.4-.89s-.52-.57-.52-.8-.03-.92 0-1.27c.03-.34.08-.74-.03-1.34-.11-.61-.23-.89-.43-1.15s-.37-.4-.83-.92-.78-.81-1.03-1.06c-.26-.26-.46-.43-.72-.6s-.78-.43-.95-.46-.77-.17-.97-.17-.81-.29-.81-.29l-.4-.2c.2-.2-.03-.29.66-.29.68 0 .63-.14 1 .12s.4.31 1.06.49c.66.17 1.61.2 1.87.23s.06-.26.6.31c.55.58.8.61 1.18 1.15.37.55.8 1.49.83 1.72s.17.52.17.52l.24-.1c-.01-.05-.01-.1-.01-.16m-1.44-7.8c-.4-.09-.06-.11.08-.14s.57-.44.83-.63c.25-.2.54-.14 1.03-.35.49-.2.43-.17.72-.31l-.14-.12.31.12s-.03.34-.05.46c-.03.12-.06.4-.09.52-.03.11-.08.17-.28.43-.2.25-.23.37-.37.68-.15.31-.35.34-.35.34s-.46.03-.6-.06-.03-.12.08-.23c.12-.11.23-.46.23-.6.01-.13-1-.02-1.4-.11m-1.95 16.58c-.4-.11-.63.06-1.43.03-.81-.03-.52-.26-.35-.35.17-.08.35-.23.58-.37s.57-.2.91-.32 1 .03 1.35-.03c.34-.06.49-.03.69-.11.2-.09.57-.52.86-.89.23-.3.42-.38.64-.45.06-.02.12-.04.19-.06l.03-.26c.09-.18.57-.11.57-.03 0 .09-.02.51-.06.6-.03.09-.06.37-.11.63-.06.26-.26.34-.43.6s-.2.17-.4.29c-.2.11-.34.4-.77.6s-.61.29-.86.4c-.26.12-.43-.03-1-.17-.58-.13 0 .01-.41-.11M118 97.7c-.23-.35-.51-.95-.77-1.29s-.6-.74-.66-.83-.29-.23-.4-.49-.4-.63-.37-.78c.03-.14.55-.43 1.31-.14.78.28.89-.18 1.15.51.25.69.32.92.46 1.4.14.49-.17.43.29.95l.46.52c-.03.48-.03.78.14 1.58s.2 1.09.28 1.26c.09.17.43.57-.03.66s-.34-.29-1.06.17-1.06.6-1.23.8-.23.17-.55.43c-.31.26-.49.34-.6.34s-.09-.97.09-1.17c.17-.21.48-.38.86-.92.37-.54.66-.92.66-.92s.11-.03.14-.23.06-.66.09-.89c.03-.22-.03-.62-.26-.96m5.97-4.19s.06-.52.31-.26c.26.26.31.54.34.63s.43.2.43.2l.03-.31c.09.03.17.37.46.69s.69 1.12.72 1.49-.06 1.07-.06 1.07-.17.05-.29.08c-.11.03-.6-.23-.74-.34-.14-.12-.34-.78-.34-.92s-.06-.61-.18-.86c-.11-.26-.51-.69-.57-.86-.05-.18-.11-.61-.11-.61m-7.09-1.84c.29.09.69-.32 1.21.17s.37.4.72.69c.34.28.4.49.6.8s.4.57.72 1.09c.31.52.4.14.63 1.35.23 1.2.32 1.26.35 1.78.03.51.03.4.03.8s-.03.63-.03.63c.49.81.66.72.6 1.1-.06.37-.03.54-.25.78-.23.23-.44.37-.44.37s-.26-.29-.26-.55-.05-.57-.11-.89c-.06-.31-.05-.74-.11-.92-.06-.17-.2-.95-.46-1.72s-.52-1.49-.58-1.63c-.06-.15-.26-.46-.46-.66s-.8-.69-1.12-.95-.98-.77-1.15-.83-.63-.12-1.03-.17c-.4-.06-1.12-.2-1.29-.11-.17.08-.51.14-.51.14s0-.23.12-.43c.11-.2.02-.52.31-.69.28-.17.63-.37.8-.43.16-.06 1.43.19 1.71.28m1.18 17.47c.03.14-1.41 0-1.41 0l-.23-.52-.58-.17s.63-.54.58-.65c-.06-.12-.2-.35-.41-.23-.2.11-.31.46-.31.46s-.23.03-.37-.03-.28-.14-.46-.06c-.17.08-.55.32-.63.32-.09 0-.57-.63-.66-.49-.08.14.09.94.09.94s-.37.08-.43-.06-.28-.54-.28-.54-.12-.17-.2-.17c-.09 0-.2.06-.2.06l-.03-.4s.06-.41.11-.52c.06-.12.23-.26.37-.41.15-.15.29-.43.29-.43s-.77-.46.32-.2 1.21.35 1.4.29c.2-.06.29-.2.55-.17s.46.06.69.17.46.29.63.31c.17.03.55-.03 1.01 0s.8.06.8.06.09 0 .26.06l.17.06v.23c-.34.34-.72.6-1.03.92-.31.31-.57.72-.54.89.01.17.48.14.5.28m5.3-42c.09-.02 1.21.25 1.4.3.2.06.91.55.91.55s.13.35-.15.25c-.27-.1-.72-.2-1.13-.3-.42-.1-.96-.17-1.14-.35-.16-.17.01-.42.11-.45m-.71 3.02c.02-.27.07-.94.32-1.21s.77-.39.89-.32v.27c0 .07.25.52.23.64-.03.12.1.49 0 .56s-.42.3-.42.42-.22.37-.22.37v.18l.15.2s.07.2-.1.22-.29.05-.29.05l-.17-.03-.29-.1-.05-.12c-.03 0-.08-.86-.05-1.13m-.84 3.09c.29-.2.49.4.67.79.17.4.77.35 1.13.4.38.05 1.34-.64 1.68-1.04.35-.39.69-1.11.69-1.33v-.64c0-.15.03-.52.03-.77s-.1-.47-.1-.47c.82-2.39-.27-3.85-.27-3.85s.2-.05.47.05.37.22.62.42.44.5.57.59c.13.1.1 1.04.15 1.26s.12.22-.35 2.64-1.04 2.25-1.65 2.92c-.62.67-1.59.57-2.06.57s-.49.13-.52.25c-.02.13.32.17.32.17s.37.03.67.12c.3.1.47.1.74.1.28 0 2.05.02 2.5 0 .44-.03.96-.07 1.28-.18.32-.1.62-.62.82-.81.2-.2-.62-.64-.76-.69-.15-.05-.25-.2-.42-.27-.17-.08-.47-.47-.59-.69-.13-.22.02-.62.04-.72.03-.1.37-.17.5-.12.12.05.22.08.39.3s.22.34.35.52c.12.17.22.5.32.67s.32.22.44.39.2.4.3.64c.1.25-.02.52-.32.86-.3.35-1.06.47-1.21.59-.14.13-1.13.1-1.45.2-.33.1-.8.15-1.29.15-.5 0-.94.05-1.34.05-.39 0-1.75-.37-2.05-.55-.29-.17-.29-.59-.22-.84.08-.25 0-.52 0-.7-.01-.17-.38-.79-.08-.98m-12.63-21.39s.99 1.79 1.45 2.37 5.09 12.32 5.21 12.73c.11.4-.17.64-.17.64s-.52-.18-.93-.52c-.4-.35-1.57-.29-2.02-.41-.47-.12-.64 0-1.1-.29s-.87-.58-1.1-.86c-.23-.29-.58-.7-.58-.7l-.69-.29-.46-14.52zm-1.99 12.63s.97.65 1.89.56c0 0 .85-.1.9.8 0 0 .46 1.33 2.74 1.26 0 0 2.04.12 1.53 1.87l.02.1c-.24-.15-2.66-1.04-2.93-1.19-.27-.14-.87-.49-.98-.46-.09.02-.38.29-.48.36 0 0-.29.07-.44-.07-.14-.14-.77-.56-.5-1.33 0 0 .07-.32-.03-.36-.09-.05-.19-.17-.19-.24s.17-.2-.15-.29c-.32-.1-1.38-.05-1.7-.77.01-.02-.26-.55.32-.24m-.73 1.82s-.43-.41.39-.68c0 0 1.41.03 1.38.9v.1c-.26.09-.1.19-.44.09-.34-.09-.58-.22-.73-.19-.14.03-.24.03-.24.03zm.93 1.84l-.39-.07s.36-.27.36-.34c0-.08-.14-.25-.14-.25s-.07-.19-.17-.19-.31-.05-.31-.05.12-.58.53-.22c.34.31.65.08.65.08s.14.19.1.27c-.05.07-.05.2-.19.27-.15.07-.44.5-.44.5m2.62 11.78c-.24 0-2.74-.03-2.74-.03s-.17-.53.04-.46c.22.07.78-.15.78-.15s-.12-.07-.24-.21a1 1 0 0 1-.17-.32s-.02-.31.07-.41c.1-.1-.02-.56-.02-.56s-.15-.03.05-.22.34-.99.29-1.09-.27-.26-.27-.26l.41-.34.09-.31s-.05-.27-.05-.34.05-.46.05-.46l.17-.31.05-.22.07-.22.41-.29s1.04 4.97 1.09 5.23c.05.27.1.8.1.8s.06.17-.18.17m4.94-2.33s.02.27-1.31-.73-1.46-1.19-2.52-1.77c-1.07-.58-1.19-.05-1.33-.02-.15.02-.12-1.28-.26-1.7-.15-.42-.51-.05-.37-.36.14-.32.58-.51.51-1.04s-.02-.68-.22-.92c-.19-.24-.56-.39-.53-.65.03-.27-.04-2.06.78-1.8 0 0 2.49 1.36 2.98 1.92.48.56.19.85.14 1.33-.05.49-.27.34.24.55.5.22 1.28.63 1.71.8.44.17.78.49.78.49-.04.07.3 3.73-.6 3.9m5.29 1.29c-.19-.57-1.04-1.9-1.33-2.51-.28-.61-.89-1.42-1.22-1.75s-1.79-1.37-1.89-1.75c-.09-.38-.23-1.89-.61-1.65-.38.23-.66.71-.66.71l-.57-.38s.81-2.51.9-2.69c.09-.19.23-.76.23-.76s1.65.71 1.65.95.24.95.38.95.75-.52.75-.52.19-.38.52-.33c.34.05.52.19.81.43s0 .14.71.38.57.29.9.29.62.14.62.14-.1 4.16.09 4.87 1.42 2.37 1.51 2.69c.1.33.29.66-.19 1.14-.47.47-2.13 1.66-2.13 1.66s-.28-1.3-.47-1.87m-.66 6.59c.11-.32.88-1.84 1.03-1.98.14-.14.34-.92.43-.26.08.66.06 1.03.06 1.18 0 .14.08.34.08.34s.11.17.2-.03.32-.29.37-.4c.06-.12.26-.26.26-.26s-.08-.03.09-.15c.17-.11.23-.06.83-.11.61-.06.83-.08.97-.06.14.03.61.17.61.17-.26.29-.58.46-.89.54-.31.09-.98-.14-1.38.14-.41.29.14.6-.98 1.35-1.12.74-1 .86-1.29.38-.27-.48-.5-.54-.39-.85m-2.9 2.72c.23-.17.06-.43.57-.49.52-.06 1.04.03 1.86.26.83.23 1.09.06 1.5.4.4.35.57.72.89.92.31.2.91.69.91.69s.11.17.06-.2c-.06-.37-.08-.46-.11-.54s-.09-.54-.09-.54-.09-.26.09-.23c.17.03.4.2.51.2s.4-.03.4-.03c0 .23-.03.14-.06 1.01-.03.86.2.92.2 1.46 0 .55-.11.57-.06.92.06.35.17.23.06.35-.11.11-.92-.49-.95-.6s-.83-1-.83-1-.17-.29-.37-.49-.69-.52-.86-.63c-.17-.12-.69-.58-1.09-.54-.4.03-.74.03-1.26-.09l-1.09-.23-.43-.14c.01-.03-.07-.29.15-.46m-2.32.26c.23-.32.26-.69.46-.83s.23-.43.69-.4.54.06.75.09c.2.03.32.11.32.11l-.12.14s-.26.17-.43.49-.26.75-.34.95.11.23-.35.81c-.46.57-.69.95-.69.95-.2-.52-.35-.98-.32-1.18.03-.21-.2-.81.03-1.13m-30.34-2.84c.52-.17 26.65 1.39 26.65 1.39 1.04 1.21-2 1.21-2.34 1.21-.35 0-4.77 2.26-4.77 2.26l-.52 1.3s-2 .95-2.52 1.48c-.52.52-2.87 1.65-2.87 1.65l-1.73 1.47-.52.78s-.7.09-1.39-.44c-.69-.52-1.65-.17-2.17-.43s-.35-.61-1.56-1.04c-1.21-.44-1.82-3.38-2.26-3.99-.43-.61-2.34-2.26-2.6-2.69s-.18-.78-.35-1.22c-.17-.43-.52-1.13-.52-1.13s-.52.08-.78 0c-.27-.08-.27-.43.25-.6m-15-6.16s.03-.34.7.51c0 0 4.36 3.73 7.08 1.38 0 0-.24-.78-.8-.63 0 0-.51.07-1.02.32-.51.24-3.18.03-4.77-1.67 0 0-.17-.27-.51-.31-.34-.05-.58-.17-.53-.29s1.06-.41.6-1.04c0 0-1.06-.73-.12-.75 0 0 1.47-.41.39-.73 0 0-.48.07-.56.07h-.2l.05-.26s.68-1.41.75-1.46.15-.17.15-.17.15.7.34.82.85.24 1.19.39.49.42.56.53c.07.12.05.15.12.22.07.08.22.13.31.17.09.05.34.07.26.15-.07.07-.14-.05-.14.22s.02.51.07.63.1.22.12.32c.02.09.05.26.05.26s-.05-.07.1.19c.15.27.07.34.24.44s.22.14.34.17.75.08.75.08l.22-.19c.19.09.44.14.44.14s.05-.03.05-.14c0-.13-.05-.32-.12-.37s-.22-.22-.22-.22l-.12-.12s-.17-.1-.15-.19c.02-.1 0-.39 0-.39s-.05-.1-.05-.17-.22-.29-.22-.29-.41-.12-.48-.19c-.07-.08-.53-.29-.53-.29l.07-.12.31-.22s.17.03.24.03.12.05.39.1.32.05.53.12c.22.07.24.03.44.14.2.12.27.15.34.19.07.05-.05-.05.07.05.12.09.07-.08.19.14s.36.34.46.36c.1.03.24-.05.24-.05s.1-.22 0-.31c-.1-.1-.31-.34-.36-.41a7 7 0 0 0-.19-.24s.19-.44.41-.27.46.61.46.61.26.24.34.39c.07.14-.14.7-.08.8.08.1.2.07.2.56v.61s.02.15.02.29c0 .15-.1.24-.1.24s.8.39.8.29.03-.44.03-.55c0-.12.03-.75.03-.85 0-.09-.1-.65-.1-.65l-.14-.32v-.14s.29.37.36.41c.07.05.44.19.51.39.07.19.1.09.05.48s-.22.73-.22.73-.37.15.09.24c.46.1.46 0 .46 0s.07-.38.1-.48c.02-.1.14-.53.14-.53s.1-.49.22-.39c.13.1.1.17.51.37l.41.19s-.05.14-.26.36c-.22.22-.34.24-.32.37.02.12.58-.1.58-.1s.12-.26.27-.22c.15.05.12-.05.15.05.02.1-.22.19-.34.41s-.29.19-.46.46-.43.54-.53.61c-.09.07-.41-.15-.41-.15 0 .15.07.29-.05.37-.12.07-.19.12-.36.17s-.49.05-.49.05-.26-.05-.33.07-.36.56-.51.63l-.52-.05s-.73.38-1.08.47c.01-.04-4.73 1.14-6.91-2.84m27.1 35.36c.46-.23 1.15-.86 1.15-.86s.86 0 1.32-.12l.23-.05-.11.34s-.23.46-.4.52c-.17.05-.41.34-1.03.46-.63.11-.8.57-1.09.8s-1.09.41-1.09.41.56-1.27 1.02-1.5m-5.09 4.76c.12-.09.21-.22.28-.34.06-.12.28-.31.4-.49.13-.19.34-.31.53-.4.19-.1.34-.34.68-.59.34-.24.56-.06 1.21-.18s.4-.25.59-.34c.19-.1 2.72-1.33 2.88-1.48.15-.16.25-.12.8-.49.56-.37.5-.37.96-.65s.74-.22.89-.31.22-.16.28-.31.03-.13-.07-.31c-.09-.18 0-.18-.03-.59-.03-.4.06-.31.06-.68s0-.27.06-.74c.06-.46.25-.47.37-.87.13-.4.53-.9.68-1.67s0-.62 0-.99-.06-.49-.16-.89c-.09-.4-.15-.44-.25-.68-.09-.25-.06-.58-.06-.86s-.12.12-.12.12-.28.56-.28.65.03.46-.03 1.45c-.06 1-.37.41-.37.5s-.31.5-.52 1.05c-.22.55-.4 1.01-.44 1.27-.02.25.03.64.1.93.06.28.21.47.21.47s.13.25.19.62-.31-.1-.5-.22c-.18-.12-.52 0-.58-.22-.06-.21-.25-.4-.44-.74s-.22-.37-.22-.37-.12-.21-.47-.59c-.34-.37-.09-.15-.12-.52s-.03-.25-.06-.46c-.03-.22-.1-.47-.15-.68-.06-.21-.06-.4-.06-.58 0-.19.06-.22-.65-1.06-.71-.83 0 0-.52-.4-.53-.41-.19-.13-.53-.56s-.25-.25-.59-.61l-.03.18s.25.59.37.89c.12.31.28.49.31.62s0 .37 0 .37c-.06-.28-.31-.34-.43-.53-.12-.18-.22-.09-.5-.21-.28-.13-.12.03-.12.03s-.12-.06-.25-.16l-.12-.09s-.13-.22-.37-.37c-.25-.16-.31-.06-.31-.06l-.25.24s-.19 0-.31-.03 0-.21 0-.21.19-.25.22-.47-.43-.28-.59-.31c-.15-.03-.15.12-.22.22-.06.09-.15.06-.15.06l-.4-.43-.22-.09c-.22-.09 0 0-.09-.09-.09-.1.06-.13.06-.13l.18-.06s.49-.16.68-.34c.18-.18.25-.18.4-.37s.24-.22.18-.31.1-.19.1-.19l-.13-.15c-.12-.16 0 0 0-.16 0-.15-.09-.34-.4-.58-.31-.25-.18.12-.18.12s-.22.25-.34.37c-.13.12-.28.06-.28.06l-.16-.15c-.15-.16 0 0-.12-.18l-.04-.26-.16-.03s-.04-.19-.04-.31c0-.13-.15-.16-.28-.34-.12-.19-.12-.12-.12-.12l-.06.22s.06.28.03.37-.03.25-.03.34-.15.28-.4-.09-.19-.34-.19-.34l.06-.13c.06-.12-.09-.28-.09-.28s-.12.06-.31.03-.31.21-.47.24l-.15.03s-.06-.22-.12-.31.12-.16.12-.16.18-.06.31-.12c.12-.07-.19-.16-.4-.25-.22-.09-.62.09-.68.18-.06.1-.03-.12-.03-.12l.15-.16c.03-.02.05-.05.06-.06.1-.12.1-.18.1-.18s-.53.15-.62.15-.22.12-.22.12l-.31.03h-.15c-.16 0-.27-.12-.43-.19-.15-.06-.25-.15-.83-.53-.59-.37-.44-.37-1.05-.96-.62-.59-.56-.74-.9-1.36s-.59-1.7-.65-2.26-2.07-5.19-2.22-5.53c-.16-.34-.93-2.26-1.39-2.93-.47-.68-1.83-1.7-2.66-2.44s-.59-.65-.52-.93c.06-.28.74 0 1.76.15 1.02.16 2.01.25 2.41.44.4.18.93 0 1.48.43.56.44.34 1.33 1.57 2.42 1.24 1.08 2.07 2.66 2.5 3.46.44.8 1.85 3.55 2.35 4.11.49.56 1.24 1.14 2.07 1.61.84.46.34 0 1.23.12.9.13 1.36.31 2.32.5s1.48.22 1.92-.06c.43-.28.65-1.05 1.23-1.64.59-.59 1.58-.68 2.07-1.11.5-.43 1.64-1.51 1.83-1.58.18-.06.37-.15.86-.43s.28-.18.59-.34c.31-.15.15-.09.37-.37s.16-.1.34-.53.4-.31.68-.59.34-.28.5-.37c.15-.09.22-.06.4-.09s.3-.09.3-.09l.28-.06s.15-.06.68-.43.28.22.5.4c.22.19.28.25.5.49.22.25.12.34.18.56s.25.31.25.31.19-.25.34-.34.37.06.37.06.37-.15.46-.18c.1-.04.37.25.53.34 0 0 .06-.19.12-.31.06-.13.19-.34.19-.34s0 .15.06.4.18.25.18.25l.19-.65c.18-.65.09.21.15.37.06.15.22.34.22.34s.12-.28.06-.77-.03-1.36.22-2.25c.25-.9.4-.53.75-.83.33-.31.33-.22.86-.53s.43.06.43.06.28.47.34.59c.07.13.4.93.47 1.05.06.12.03.77.12 1.3s-.04.59-.1.77-.34.65-.43 1.05.15.25-.44 1.36-.15 3.99-.22 4.49c-.06.49-1.04 4.27-1.14 4.58-.09.31-.15.74-.22.96-.06.22-.12.71-.12.71s.22.25.28.34c.06.1.16.28.16.28s.03.25-.03.34-.28.09-.28.09l-.18-.18-.28-.18s-.06.31-.09.4c-.03.1-.06.37-.06.47 0 .09.15.09.24.09s.28-.06.71-.06-.1.53-.1.53-.12.27-.18.4c-.07.12-.19.47-.25.68-.07.21-.07.36-.13.55s-.12-.06-.12-.19c0-.12.06-.27.12-.46s-.06-.25-.12-.8c-.06-.56-.18-.09-.18-.09s-.12.28-.19.37c-.06.09-.4.03-.9 0-.18-.01-.26-.02-.3-.02-.05.09-.1.2-.1.2.09-.16.02-.2.1-.2.01-.01.02-.03.02-.04.06-.1.19-.34.19-.34h-2.26c-.71 0-.21 0-.37-.19-.15-.18-.06-.31-.03-.49.03-.19 0-.22 0-.53s.12-.58.12-.83-.43.28-.8.81c-.37.52-.43 2.47-.62 3.55-.18 1.08.68 2.56.68 3.06 0 .49-.06.77-.03 1.24.03.46-.03.99-.09 1.54-.06.56-.31.62-.46 1.15-.15.52-.49.46-.9.62-.4.16-1.33.06-2.32.1-.99.03-1.49.31-2.13.64-.65.34-1.24.59-2.04.74-.81.16-1.02.12-1.33.1-.3-.03-.18-.21.07-.36.25-.16 1.61-.35 2.16-.54.56-.18 4.79-1.08 5.32-1.08s.83-.34.78-.62c-.06-.27 0-.9.21-1.64.22-.74-.15-.62-.27-.78-.13-.15-.09.13-.6.44-.48.31-.98.62-1.51.62s-.31-.07-.9-.59-1.18-.4-1.55-.25 0 0 .22.25.46.25.62.62-.18.86-.21 1.05.34 0 .62 0 .71-.34 1.36-.65 1.11-.15 1.67.22c.55.37-.74.77-.74.77-.28 0-1.42-.12-2.53.28s-3.8 1.27-4.42 1.36-.68.18-1.36.34c-.69.15-1.43.87-1.79 1.29-.37.44-.16.56-.16.78 0 .21.46.4.77.4s.62.06.99.46 1.27 1.02 1.85 1.42c.59.4.65.53 1.2.75.56.21 1.17.65 1.17.65s-.5-.28-1.02-.28c-.53 0 0 .28.34.47s.96.83 1.7 1.08 1.39.53 1.92.65 1.61.21 1.61.21 0-.4.28-.64c.28-.25.4-.16.56.43s-.03.89-.03.89.15-.06.34-.15c.18-.1.18-.06.4-.12.21-.06.21.06.43.31s.07.56.07.81.49.09.59.06c.09-.03.62.27.77.77.16.49-.06.78-.12 1.45-.06.68-.59.71-1.2 1.08-.62.37-.75.31-.93.43-.18.13-.28.34-.65.34s0-.12-.03-.4 0-.47 0-.68.12-.68.43-1.05-.09-.19-.21-.43c-.12-.25-.25-.07-.59-.04-.34.04-.25.22-.43.59-.19.38-.38.47-.62.71-.25.25-.25.12.12.59.37.46-.09.27-.34.24s-.03-.31-.03-.71.31-.71.37-1.05.74-.74.93-1.08.37-.5.53-.69c.16-.18-.21-.09-.43-.09s-.4.12-.5.06c-.09-.06-.02-.37-.21-.99s-.19-.16-.77-.35c-.59-.18-1.42-.27-2.54-.92-1.11-.65-1.48-.9-1.73-1.08s-.59-.58-1.39-.8-.96-.53-1.27-.86c-.31-.34-.99-.25-1.49-.46-.49-.21-1.3-.31-1.76-.34 0 0-.4-.16-.59-.31-.18-.15-.12-.13-.8-.56s-.4-.12-.74-.4c-.34-.3-.16-.27-.04-.36m-1.61 1.64c.19-.25 1.02-.28 1.42-.5.4-.21 1.13-.23 1.18.15.03.28.03.15-.31.37-.34.21-.46.31-.77.31s-.47-.28-.74-.03c-.28.25-.77.31-.93.65-.15.34-.21.37-.31.1-.1-.28.27-.81.46-1.05m1.24 1.23c-.5-.3-.34.25-.47.68s-.46.71-.62.9c-.16.18-.22-.04-.16-.34.06-.31.09-1.36.37-1.54.28-.19.81 0 .81 0s.89.57 1.05.86c.15.28-.19.52-.34.65-.16.12-.22-.15-.31-.4s.16-.5-.33-.81m-9.4 6.28c.96-.24 1.33-.35 1.42-.35.1 0 .5-.3.56-.43.07-.13-.31.13-.18-.28.12-.41.56-.99.93-1.21.37-.21.74-.65.77-.5.03.16-.31.4-.68.68-.37.27-.77 1.02-.46.83s.06-.31.89-.49c.84-.19 3.03-2.26 3.59-2.53.56-.28 1.21-.84 1.02-.34-.19.49-.28.34-.77.68s-3.96 2.59-4.33 2.85c-.37.25-2.01 1.76-2.38 1.95-.37.18-1.51.43-1.51.43s.17-1.05 1.13-1.29m-1.45 2.53c-.34.31-.68.49-.68.58s.4-.18.71.06c.31.25-.03.56-.46.74-.44.18-.28 0 .03.31s.58.31.58.31c-1.57 2.44-5 1.02-5 1.02s.22-.28.4-.31c.19-.03.19-.03.25-.13.07-.09.19-.24.19-.55s-.12-.21-.34-.4c-.22-.18-.41-.27-.8-.43-.4-.16-.5-.18-.74-.43-.25-.24 0 0 .19-.12.18-.12.65.19 1.39.56s.62.03 1.05-.12.71-.5.96-.8c.25-.31-.43.12-1.06.25-.61.12-1.26.12-1.57.09-.31-.04 0-.12-.15-.37-.16-.24.03-.21.58-.15.56.06.59-.06 2.04-.65s1.26.34 1.26.34.22-.06.34-.31.22-.41.68-.47.12.3.5.68c.36.36-.01-.01-.35.3m.78 2.31l.66-1.04s.17-1.54.4-1.82 1.31-1.65 3.02-2.73c1.7-1.08 5.29-3.65 6.71-3.76s.97-.51 1.08-1.02c.1-.47 1.83-1.28 2.12-1.4-.01.04.15.17 1.24.6 1.6.63 5.29 2.85 5.92 3.47.63.63 1.59.4 1.48 1.2s.23.68.23 1.25-.34 1.37-.34 1.37l-.26.33c-6.3 2.58-13.74 3.86-22.26 3.55m52.76-35.01c-1.73 19.42-23.43 37.16-42.39 38.03 21.31-4.06 40.9-23.14 40.44-43.74-.08-3.61-.48-6.42-1.6-10.21l.83.46c1.51 4.76 3.18 10.26 2.72 15.46" fill="url(#L)"/><path d="M42.36 149.12l-1.99-2.06 10.72-5.5L55 145.6c-.38-.39-.83-.63-1.34-.71-.37-.06-.69-.02-.96.13l-5.22 9.41-2-2.08 1.53-2.56-2.02-2.1zm4.17-2.28l1.38 1.42 2.01-3.31z" fill="url(#M)"/><path d="M60.25 150.21c-.37.01-.68.13-.92.34l-4.63 7.11 4.04 2.63-.99 1.51-6.32-4.12 6.3-9.66 3.97 2.59c-.45-.3-.93-.43-1.45-.4" fill="url(#N)"/><path d="M72.75 156.61c.22.37.24.75.08 1.14l-3.44 8.09c-.16.38-.44.63-.81.73q-.585.165-1.41-.18l-5.67-2.41 4.52-10.62 5.66 2.41c.52.21.87.49 1.07.84m-2.63.46l-2.27-.96-3.11 7.28 2.27.97z" fill="url(#O)"/><path d="M83.26 159.16l-2.36 9.88c-.1.41-.32.69-.68.86-.37.17-.84.2-1.42.06l-4.23-1.01c-.57-.14-.98-.37-1.23-.7-.24-.3-.31-.66-.21-1.07l2.36-9.88 2.67.64-2.26 9.48 2.42.58 2.27-9.47z" fill="url(#P)"/><path d="M93.4 160.2l-.82 11.51-2.73-.2.4-5.5-2.5-.18-.39 5.51-2.74-.2.83-11.5 2.74.2-.3 4.2 2.49.18.3-4.2z" fill="url(#Q)"/><path d="M99.88 171.54l-2.86.32 2.19-11.85 5.59-.63q-.81.09-1.38.63c-.28.25-.44.53-.48.83l4.26 9.88-2.87.32-1.09-2.78-2.9.32zm.73-4.7l1.97-.22-1.39-3.6z" fill="url(#R)"/><path d="M107.97 158.74l2.66-.68 2.84 11.18-2.66.68z" fill="url(#S)"/><path d="M115.91 156.91c-.2.31-.29.63-.26.94l3.03 7.93 4.5-1.73.65 1.69-7.05 2.69-4.12-10.77 4.43-1.7c-.51.2-.9.52-1.18.95" fill="url(#T)"/><path d="M129.92 155.13c-.18-.01-.33-.11-.47-.28l-1.78-2.37c-.25-.34-.32-.71-.2-1.13.11-.38.39-.74.83-1.06l3.47-2.6c.45-.33.87-.5 1.27-.5.44 0 .77.17 1.03.5l.99 1.32-2.21 1.66-.72-.97-1.99 1.49 1.12 1.5c2.64-.59 4.21-.94 4.72-1.04.38-.08.65-.11.81-.06.16.03.32.16.47.37l2.07 2.76c.25.34.33.69.23 1.06-.1.4-.38.78-.86 1.13l-3.49 2.61c-.47.35-.91.52-1.31.51-.39-.01-.71-.18-.96-.52l-.99-1.32 2.2-1.64.73.98 1.99-1.49-1.63-2.17c-2.38.59-3.86.96-4.45 1.1-.47.1-.76.15-.87.16" fill="url(#U)"/><path d="M145.07 146.62l1.8-2.09 1.25 1.08q.48.405.45.99-.015.615-.6 1.29l-2.84 3.3c-.38.45-.78.7-1.18.78-.38.07-.73-.03-1.04-.3l-6.66-5.73c-.32-.28-.47-.63-.43-1.06.02-.4.21-.81.58-1.22l2.83-3.28c.36-.42.74-.68 1.13-.76.42-.1.79 0 1.11.27l1.25 1.08-1.8 2.09-.92-.79-1.63 1.89 6.01 5.17 1.62-1.88z" fill="url(#V)"/><path d="M52.85 38.76c.17.62.26.93.43 1.54-.96.27-1.45.41-2.4.69-.39-1.31-.59-1.96-.98-3.28-.2-.69-.75-.91-1.62-.64-.28.08-.42.13-.7.22.54 1.72.8 2.59 1.35 4.31-4.35 1.36-6.5 2.11-10.76 3.8l-1.5-3.8c-.53-1.34-.15-2.28 1.15-2.78.66 1.74.99 2.61 1.64 4.35 2.85-1.09 4.28-1.59 7.17-2.53l-.57-1.74c-.11-.34-.3-.56-.58-.66-.27-.1-.63-.08-1.06.07-.7.24-1.05.36-1.76.61-.21-.61-.32-.91-.53-1.52 2.62-.92 3.94-1.34 6.59-2.14 1.49-.45 2.45.06 2.86 1.5.25.87.37 1.31.62 2.18.29-.08.41-.11.65-.18m-8.43 7.09c-.77.27-1.15.41-1.91.69-.22-.61-.34-.91-.56-1.53.77-.28 1.16-.43 1.94-.7.2.62.31.92.53 1.54m2.68-.92c-.77.25-1.15.39-1.92.65-.21-.61-.31-.92-.53-1.54.77-.26 1.16-.4 1.93-.66.21.62.32.93.52 1.55" fill="url(#W)"/><path d="M61.72 38.19c-3.5.77-5.24 1.2-8.69 2.18-.18-.62-.26-.92-.44-1.54.59-.16.88-.25 1.46-.41l-1.55-5.7c.75-.21 1.13-.31 1.88-.5.16.61.24.91.39 1.51.07-.95.71-1.58 1.93-1.88 1.37-.34 2.06-.49 3.44-.8.64 2.87.95 4.29 1.58 7.14m-2.17-1.15c-.35-1.51-.53-2.28-.88-3.8-.49.11-.73.17-1.22.29-1.7.41-2.36 1.36-1.98 2.81.16.64.24.96.41 1.6 1.45-.37 2.19-.55 3.67-.9m-1.83-6.75c-.84.2-1.27.3-2.11.51l-.4-1.57c.85-.22 1.28-.32 2.13-.52.16.63.23.95.38 1.58" fill="url(#X)"/><path d="M66.19 37.28c-1.09.2-1.63.31-2.71.54-1.02-4.94-1.54-7.41-2.56-12.35.78-.16 1.17-.24 1.96-.4.84 4.33 1.26 6.49 2.11 10.81.37-.07.55-.1.91-.17.11.63.17.94.29 1.57" fill="url(#Y)"/><path d="M65.91 37.33l-.3-1.57c1.31-.25 1.96-.37 3.26-.59l-.95-5.62c.76-.13 1.14-.19 1.9-.31.45 2.88.67 4.33 1.13 7.21-2.02.32-3.03.5-5.04.88m2.56 2.19c-.79.14-1.19.22-1.98.36l-.3-1.59c.8-.16 1.2-.23 2-.37.12.64.17.96.28 1.6m2.78-.46c-.79.12-1.19.19-1.98.32-.11-.64-.17-.96-.27-1.6.8-.14 1.2-.2 2-.33z" fill="url(#Z)"/><path d="M76.27 35.72c-.47.06-.7.08-1.16.14q.075.705-.21 1.32c-.21.45-.53.76-.95.93-.21.09-.55.16-.99.23-.31.05-.46.07-.77.12-.08-.52-.12-.77-.19-1.29.59-.09.96-.22 1.12-.4s.22-.43.18-.76c-.41-2.85-.6-4.28-1-7.14.76-.11 1.14-.15 1.89-.25.29 2.26.44 3.39.73 5.65l1.17-.15c.06.64.1.97.18 1.6" fill="url(#aa)"/><path d="M75.77 34.17c.74-.1 1.12-.14 1.86-.22-.49-4.38-.73-6.57-1.21-10.94.79-.09 1.19-.13 1.98-.21.5 5.02.74 7.53 1.24 12.55-1.47.14-2.21.23-3.68.41-.08-.64-.12-.95-.19-1.59" fill="url(#ab)"/><path d="M81.4 35.18c-.44-5.02-.65-7.54-1.09-12.56.79-.07 1.19-.1 1.98-.16.38 5.03.57 7.54.94 12.57z" fill="url(#ac)"/><path d="M94.27 34.62c-2.98 0-4.47.04-7.46.2-.11-2.14-.17-3.2-.27-5.33-.02-.46.15-.93.53-1.38s.81-.69 1.3-.71c.09 2.3.14 3.45.23 5.75 1.14-.04 1.71-.06 2.85-.08-.09-4.41-.14-6.62-.23-11.03.8-.01 1.2-.02 1.99-.03.04 4.41.06 6.62.09 11.03.39 0 .58 0 .96-.01.01.62.01.94.01 1.59" fill="url(#ad)"/><path d="M100.09 33.11c-.02.64-.03.96-.06 1.6-2.41-.08-3.62-.1-6.03-.09 0-.64 0-.96-.01-1.6 1.32 0 1.98 0 3.3.02l.1-5.7c.77.01 1.15.02 1.92.04-.06 2.28-.09 3.42-.16 5.7.38.01.57.01.94.03m-3.97 4.12c-.8-.01-1.2-.01-2 0 0-.65 0-.97-.01-1.63.81 0 1.22 0 2.03.01-.01.65-.01.97-.02 1.62m2.8.06c-.8-.02-1.2-.03-2-.04.01-.65.01-.97.02-1.62.81.01 1.21.02 2.02.04-.01.65-.02.97-.04 1.62" fill="url(#ae)"/><path d="M99.75 34.7l.05-1.6c2.24.08 3.36.14 5.6.29q-.45-.27-.39-1.02c.05-.74.08-1.11.13-1.85.07-.94-.4-1.45-1.41-1.51-.26-.01-.39-.02-.65-.03-.02.36-.03.54-.04.9-.72-.04-1.08-.06-1.8-.08l.1-2.37c1.31.05 1.97.09 3.27.17 1.75.11 2.56.94 2.44 2.46l-.2 2.44c-.05.66.23 1.01.87 1.06-.06.64-.08.95-.14 1.59-3.13-.26-4.7-.35-7.83-.45" fill="url(#af)"/><path d="M114.7 35.92c-2.11-.28-3.17-.4-5.28-.6l.15-1.59c1.01.09 1.52.15 2.53.26.17-1.51.25-2.26.43-3.77.03-.32-.06-.51-.29-.6-.65-.08-.99-.11-1.64-.18.06-.54.08-.81.13-1.35 1 .1 1.51.15 2.5.27q1.425.165 1.26 1.5l-.55 4.34c.38.05.58.07.96.12-.07.65-.12.97-.2 1.6" fill="url(#ag)"/><path d="M114.63 34.3l1.86.25 1.55-10.9c.79.11 1.18.17 1.97.29-.77 4.98-1.15 7.48-1.93 12.46-1.46-.23-2.2-.33-3.66-.52.08-.62.12-.94.21-1.58" fill="url(#ah)"/><path d="M119.84 36.69c.83-4.98 1.24-7.47 2.07-12.44.79.13 1.18.2 1.96.34-.89 4.97-1.33 7.45-2.22 12.41-.72-.13-1.08-.19-1.81-.31" fill="url(#ai)"/><path d="M136.18 40.34c-4.37-1.23-6.57-1.76-11-2.66.33-1.61.5-2.42.82-4.03.36-1.31 1.18-1.89 2.46-1.7-.4 1.83-.59 2.74-.98 4.57 2.94.63 4.41.99 7.33 1.77l.2-.75c.19-.7-.15-1.17-1.03-1.4-1.21-.31-1.81-.46-3.03-.75.64-2.67.95-4 1.59-6.68 1.61.38 2.41.58 4 1.01 1.11.29 1.5 1.03 1.18 2.2-.18.64-.27.96-.45 1.61-.75-.21-1.12-.31-1.87-.5.09-.34.13-.51.22-.84.17-.65-.03-1.05-.62-1.2-.38-.1-.57-.15-.95-.24-.35 1.42-.53 2.13-.89 3.55.86.21 1.29.32 2.15.55 1.51.39 2.06 1.33 1.64 2.78-.3 1.08-.45 1.63-.77 2.71m-6.07 1.11c-.79-.19-1.18-.28-1.97-.46.14-.63.22-.95.36-1.58.79.18 1.19.28 1.99.47-.15.62-.23.94-.38 1.57m2.74.69c-.78-.2-1.17-.31-1.95-.5.16-.63.23-.95.39-1.58.79.19 1.18.3 1.97.5-.17.64-.25.95-.41 1.58" fill="url(#aj)"/><path d="M142.24 42.17c-1.68-.55-2.52-.81-4.21-1.3.19-.61.27-.92.45-1.53.99.29 1.48.44 2.46.75.45-1.45.68-2.18 1.13-3.63.09-.3.04-.51-.17-.65-.63-.19-.95-.29-1.59-.48.16-.52.23-.78.39-1.3.97.29 1.45.44 2.42.75.93.29 1.25.87.97 1.71z" fill="url(#ak)"/><path d="M146.59 43.66c-1.06-.38-1.58-.56-2.64-.92 1.63-4.78 2.43-7.16 4.05-11.94.76.26 1.14.39 1.9.66-1.46 4.16-2.19 6.23-3.66 10.38.35.13.53.19.89.32-.22.6-.33.9-.54 1.5" fill="url(#al)"/><path d="M146.31 43.56c.21-.6.32-.9.54-1.51 1.26.45 1.89.68 3.15 1.16.81-2.13 1.22-3.19 2.03-5.32.73.28 1.09.42 1.82.71-1.07 2.72-1.61 4.07-2.69 6.79-1.93-.77-2.9-1.13-4.85-1.83m5.4-7.17c-.82-.31-1.22-.46-2.04-.75l.55-1.53c.83.29 1.24.45 2.07.76-.24.61-.35.92-.58 1.52" fill="url(#am)"/></svg>