<svg viewBox="0 0 94.34 94.34" xmlns="http://www.w3.org/2000/svg"><clipPath id="a"><path d="M0 0h94.342v94.342H0z"/></clipPath><g clip-path="url(#a)"><path d="M47.171 0A47.171 47.171 0 1 1 0 47.171 47.176 47.176 0 0 1 47.171 0"/><path d="M47.171.827A46.343 46.343 0 1 1 .827 47.17 46.35 46.35 0 0 1 47.171.827" fill="#fff"/><path d="M47.171 81.964a34.792 34.792 0 1 0-34.787-34.793 34.8 34.8 0 0 0 34.787 34.793"/><path d="M47.172 81.097a33.925 33.925 0 1 0-33.926-33.926 33.93 33.93 0 0 0 33.926 33.926" fill="#fff"/><path d="M47.171 80.121a32.95 32.95 0 1 0-32.95-32.95 32.954 32.954 0 0 0 32.95 32.95"/><path d="M47.171 77.628a30.457 30.457 0 1 0-30.457-30.457 30.46 30.46 0 0 0 30.457 30.457" fill="#fff"/><path d="M26.848 28.311h15.825v26.891a3.84 3.84 0 0 0 2.69 3.65 7.2 7.2 0 0 0 3.435.052 3.84 3.84 0 0 0 2.871-3.7V28.311h15.825v27.164a17.34 17.34 0 0 1-14.439 17.04 38 38 0 0 1-11.98-.037 17.34 17.34 0 0 1-14.226-17zM63 6.521l-.907-.33-4.021 4.533-.339-.123-.211.58 1.566.571.211-.581-.579-.211.835-.943 2.327.847.036 1.26-.581-.211-.211.58 2.163.787.211-.581-.337-.123zM60.013 9.5l1.771-2 .077 2.669zm9.636 1.184l1.371.76-.326.582.584.324.648-1.168-5.041-2.794-.648 1.168.588.326.323-.584 1.371.76-2.37 4.275-.541-.3-.3.54 2.208 1.224.3-.54-.54-.3zM57.092 5.395l-.1.66.659.1.209-1.319-5.692-.9-.209 1.319.664.105.1-.659 1.549.245-.765 4.827-.61-.1-.1.61 2.493.395.1-.61-.61-.1.765-4.827zM8.583 44.014l.116-1.333 1.333.116-.116 1.333zm.62 4.066H7.067v-1.287h.413v-.618H6.037v.618h.413v1.287H4.266v-1.9h.621v-.668H3.648v4.476h.618v-.618h4.937v.618h.618v-2.625h-.618zm64.256-29.318l-.431.515-1.607-1.348 1.424-1.7.987.828-.265.316.473.4.928-1.106-.473-.4-.265.316-.987-.828 1.322-1.575 1.459 1.224-.4.474.511.429.795-.947-3.429-2.877-.4.474.474.4-3.174 3.782-.474-.4-.4.473 3.58 3 .861-1.026zm16.634 29.366H85.08a2.06 2.06 0 0 1-.9-.138.5.5 0 0 1-.255-.482 1 1 0 0 1 .129-.484h.437v-.722h-1.043a4.6 4.6 0 0 0-.142 1.106 2 2 0 0 0 .511 1.543 2.52 2.52 0 0 0 1.707.463h4.572v.618h.617v-2.625h-.617zm-5.079-9.367l-.2-.643-.643.2-.62-2.028 4.675-1.429.18.591.591-.181-.737-2.411-.591.181.181.591-4.722 1.443-.181-.591-.591.181 1.373 4.492zm-3.256-7.059a1.94 1.94 0 0 1-.035-1.713 2.83 2.83 0 0 1 1.456-1.319 3.23 3.23 0 0 1 1.95-.355 1.61 1.61 0 0 1 1.215.957 2.6 2.6 0 0 1 .2.615 3 3 0 0 1 .048.678l-.532.322.282.605 1.172-.546a9 9 0 0 0-.258-1.029 8 8 0 0 0-.354-.917 3.369 3.369 0 0 0-6.1.228 3.28 3.28 0 0 0 .243 2.548 5.2 5.2 0 0 0 1.223 1.676l.666-.311a3.86 3.86 0 0 1-1.176-1.439m-1.001-12.37l-.633-.728-5.711 2.015-.237-.273-.466.405 1.094 1.259.466-.405-.4-.465 1.188-.419 1.624 1.869-.58 1.12-.405-.466-.466.405 1.51 1.738.467-.405-.235-.271zM76.7 20.489l2.517-.886-1.226 2.371zM34.987 10.382l-.623.252.252.623-1.945.785-.829-2.052 1.195-.482.155.383.573-.231-.541-1.338-.573.231.155.383-1.195.482-.77-1.906 1.766-.714.232.573.619-.25-.463-1.146-4.15 1.677.231.573.573-.231 1.85 4.577-.573.231.231.573 4.332-1.75zm-11.083 6.806l-3.04-3.89.487-.38-.38-.487-1.987 1.552.381.487.487-.38 3.04 3.891-.487.38.38.487 1.987-1.552-.38-.487zM10.635 34.385l.48-1.249 1.249.48-.48 1.249zM27.748 8.949l-.3-.54-1.452.8.3.54.537-.3.5 4-3.147-2.529.539-.3-.3-.54-2.068 1.147.3.54.318-.176 4.725 3.827.54-.3-.809-5.995zm-9.733 6.617l-.445-.429-1.45 1.5.444.429.429-.445 2.727 2.634-5.3-.858-1.042 1.08.444.43.429-.445 3.552 3.43-.429.444.444.429 1.45-1.5-.445-.43-.429.445-2.657-2.566 5.274.837.614-.636-4.041-3.9zM15.934 24.5a4.5 4.5 0 0 0-.954-.771l-2.6-1.688.337-.518-.518-.337-1.174 1.817.518.336.337-.518 2.692 1.749a2.73 2.73 0 0 1 1.061 1.03 1.08 1.08 0 0 1-.167 1.047 1.18 1.18 0 0 1-.928.618 2.47 2.47 0 0 1-1.363-.5l-2.71-1.76.336-.518-.518-.337-1.378 2.111.518.337.337-.518 2.692 1.749a2.57 2.57 0 0 0 1.913.514 2.56 2.56 0 0 0 1.538-1.242 2.3 2.3 0 0 0 .432-1.784 2 2 0 0 0-.4-.816m-5.507 11.558a3.87 3.87 0 0 1 .038 1.857 1.94 1.94 0 0 1-1.027 1.372 2.83 2.83 0 0 1-1.959.143 3.23 3.23 0 0 1-1.755-.921 1.61 1.61 0 0 1-.368-1.5 2.6 2.6 0 0 1 .223-.606 3 3 0 0 1 .38-.564l.617.074.15-.65-1.259-.291a9 9 0 0 0-.43.97 8 8 0 0 0-.286.941 2.94 2.94 0 0 0 2.421 3.88 3.22 3.22 0 0 0 2.525-.305 3.28 3.28 0 0 0 1.378-2.157 5.1 5.1 0 0 0 .068-2.073zM46.299 7.092a4.6 4.6 0 0 0-1.305-.847l-.433-.212a2.6 2.6 0 0 1-.709-.447.75.75 0 0 1-.214-.487.83.83 0 0 1 .2-.624.82.82 0 0 1 .585-.292 1.5 1.5 0 0 1 .484.047 2.4 2.4 0 0 1 .524.208l.041.591.72-.051-.087-1.247a6 6 0 0 0-.9-.13 7 7 0 0 0-.9 0 2.08 2.08 0 0 0-1.381.579 1.57 1.57 0 0 0-.463 1.277 1.5 1.5 0 0 0 .422.952 4.2 4.2 0 0 0 1.253.812l.429.2a2.3 2.3 0 0 1 .731.471 1.03 1.03 0 0 1 .223.616.84.84 0 0 1-.237.679 1.08 1.08 0 0 1-.728.3 1.6 1.6 0 0 1-.516-.06 3 3 0 0 1-.6-.243l-.045-.641-.72.051.1 1.365a10 10 0 0 0 .943.119 6 6 0 0 0 .831 0 2.6 2.6 0 0 0 1.638-.623 1.65 1.65 0 0 0 .533-1.394 1.54 1.54 0 0 0-.411-.974m39.945 32.978a2.18 2.18 0 0 0-2.128 2.814 2.3 2.3 0 0 0 .845 1.63 2 2 0 0 0 .838.352 4.5 4.5 0 0 0 1.226-.044l3.068-.431.086.612.612-.086-.3-2.144-.612.086.086.612-3.179.447a2.74 2.74 0 0 1-1.477-.081 1.08 1.08 0 0 1-.561-.9 1.17 1.17 0 0 1 .3-1.075 2.46 2.46 0 0 1 1.359-.513l3.2-.45.086.612.612-.086-.35-2.5-.612.086.086.612zM40.208 10.39l1.544-.356-.139-.6-.4.093-2.1-1.836a1.9 1.9 0 0 0 .725-.865 1.85 1.85 0 0 0 .051-1.108 1.34 1.34 0 0 0-.782-.994 2.52 2.52 0 0 0-1.586-.047l-2.594.6.139.6.6-.139 1.111 4.811-.6.139.139.6 2.308-.532-.139-.6-.5.116-.454-1.967.463-.107zm-2.813-2.664l-.524-2.267.4-.093a1.4 1.4 0 0 1 .941.04.92.92 0 0 1 .463.663 1.3 1.3 0 0 1-.118 1.047 1.5 1.5 0 0 1-.955.561zm12.941 1.482h-.617V4.274h.617v-.618h-2.521v.618h.618v4.937h-.618v.618h2.521zm1.693 80.741l-.489-5.588-2.218.658.054.615 1.009-.3.412 4.719-1.027.09.053.616 3.285-.288-.054-.615zm7.844-6.642a2.15 2.15 0 0 0-1.951-.29 2.18 2.18 0 0 0-1.365 1.04 2.12 2.12 0 0 0-.172 1.692 1.88 1.88 0 0 0 .9 1.177 1.84 1.84 0 0 0 1.464.148 1.9 1.9 0 0 0 .755-.4 1.8 1.8 0 0 0 .469-.688l.058.2a2.83 2.83 0 0 1 .037 1.658 1.25 1.25 0 0 1-.861.9 1.7 1.7 0 0 1-.441.066 2 2 0 0 1-.468-.043l-.181-.434-.642.184.291 1.014q.505-.01.913-.059a5 5 0 0 0 .727-.142 2.46 2.46 0 0 0 1.695-1.423 3.8 3.8 0 0 0 .024-2.584 3.6 3.6 0 0 0-1.25-2.019m-.293 2.543a1 1 0 0 1-.657.524.87.87 0 0 1-.842-.183 2 2 0 0 1-.576-1.011 1.7 1.7 0 0 1-.025-1.033.83.83 0 0 1 .586-.547.94.94 0 0 1 .921.245 2.27 2.27 0 0 1 .651 1.121 1.17 1.17 0 0 1-.059.883m-24.854-2.808l-.17.594 1.048.084-1.305 4.553-.991-.284-.17.594 3.17.909.17-.594-.991-.284 1.546-5.392zm8.685 1.259a2.18 2.18 0 0 0-1.647.482 2.13 2.13 0 0 0-.767 1.518 1.88 1.88 0 0 0 .417 1.422 1.84 1.84 0 0 0 1.314.664 1.9 1.9 0 0 0 .848-.1 1.76 1.76 0 0 0 .685-.474l-.018.207a2.83 2.83 0 0 1-.559 1.562 1.25 1.25 0 0 1-1.127.533 1.8 1.8 0 0 1-.434-.1 2 2 0 0 1-.422-.209l-.013-.47-.665-.058-.092 1.051c.317.115.608.2.874.272a5 5 0 0 0 .729.128 2.47 2.47 0 0 0 2.092-.722 3.8 3.8 0 0 0 .948-2.4 3.6 3.6 0 0 0-.443-2.333 2.15 2.15 0 0 0-1.717-.971m.9 2.436a1.17 1.17 0 0 1-.372.8 1 1 0 0 1-.8.255.87.87 0 0 1-.72-.473 2 2 0 0 1-.175-1.151 1.7 1.7 0 0 1 .347-.973.83.83 0 0 1 .744-.3.94.94 0 0 1 .771.559 2.27 2.27 0 0 1 .207 1.28"/></g></svg>