<svg xmlns="http://www.w3.org/2000/svg" fill="none" viewBox="0 26.25 144 91.48"><path fill="#009EE1" d="M58.506 57.792h5.84L61.422 67.87l4.554-1.17 2.598-8.907h5.456L69.61 72.95l7.286-9.692 1.621-5.465h5.198l-3.117 10.729c-.134.393-.777 2.665-.26 2.665.586 0 1.948-2.473 3.519-5.264 1.687-3.058 3.183-6.308 3.835-8.13h5.33l-2.598 9.1 6.76-9.1H144L31.066 106.037l2.214-7.612 88.686-36.28H104.67l-1.696 5.657-5.523 1.747 2.214-7.403h-2.724l-7.678 9.943-4.813 1.63c.259-2.407.651-4.814 1.228-7.153l-2.206 4.16c-1.763 3.251-3.25 5.85-5.915 5.85-1.956 0-2.858-1.822-2.858-4.22 0-.844.133-1.763.326-2.674l-7.211 9.626-5.983 1.955 2.992-10.47-4.554 1.17-3.117 10.921-6.5 2.148 2.924-10.077-6.56 8.389c-2.798 3.576-5.656 5.523-7.937 5.523-4.428 0-5.013-7.278-4.62-10.21-2.399 1.11-3.243 1.503-4.028 1.955 1.044 15.608-14.823 37.123-24.9 37.123-3.116 0-5.531-2.406-5.531-7.862 0-8.063 6.05-19.828 22.301-29.07-.451-3.183-1.562-5.848-3.51-7.536v-.326c5.524-4.228 9.693-8.974 9.693-13.269 0-1.947-1.496-2.732-3.117-2.732-3.058 0-7.085 3.769-9.3 6.96h-1.136l1.78-6.116c4.161-5.523 10.796-7.478 14.439-7.478s6.826 1.429 6.826 5.849c0 5.264-4.554 10.728-11.313 14.823 1.562 1.754 2.598 3.768 3.183 5.982a135 135 0 0 1 5.139-2.54c1.955-9.559 8.773-16.903 14.823-16.903 3.05 0 4.42 1.821 4.42 4.286 0 5.724-5.264 10.152-12.676 14.046-.209 1.337-.192 2.08-.192 2.866 0 2.598.585 3.835 1.563 3.835.651 0 1.428-.585 2.34-1.621l10.018-11.84 3.25-11.313M7.595 108.05c0 1.237.393 3.25 1.822 3.25 5.59 0 12.675-14.89 13.001-26.462-9.826 6.693-14.823 16.377-14.823 23.212m40.508-45.12c0-.91-.326-1.496-.91-1.496-1.505 0-3.71 4.746-4.939 10.21 4.103-2.656 5.85-6.048 5.85-8.714m77.624 32.471l.209-1.93h4.687v-2.607h-7.018l-.761 7.152c.828-.309 1.763-.41 2.448-.41 1.797 0 2.841.803 2.841 1.873 0 .827-.777 1.696-2.205 1.696-1.12 0-2.298-.418-3.251-1.229l-.367 2.841c.96.619 2.347 1.145 3.801 1.145 3.334 0 5.223-1.98 5.223-4.529 0-3.016-2.883-4.604-5.599-4.002m-4.621-.735c0-2.19-1.747-4.086-4.738-4.086s-4.763 1.796-4.763 4.712v.076h3.1v-.16c0-1.328.652-2.055 1.738-2.055.936 0 1.513.627 1.513 1.546 0 .602-.343 1.245-1.011 2.055l-5.782 6.844h9.809v-2.733h-3.927l2.314-2.548c1.12-1.245 1.747-2.29 1.747-3.643m-27.324-.894h2.758v9.809h3.2V90.864h-4.454zm12.124-3.2c-3.066 0-4.921 2.055-4.921 4.712 0 2.398 1.855 4.061 3.952 4.061.476 0 .702-.017 1.153-.125l-2.966 4.37h3.568l1.796-2.708c1.404-2.13 2.29-3.801 2.29-5.656 0-2.758-1.797-4.654-4.872-4.654m-.025 6.509c-1.094 0-1.947-.752-1.947-1.972 0-1.07.752-1.98 1.947-1.98s1.981.91 1.981 1.98c0 1.22-.778 1.972-1.981 1.972"/><path fill="#D3AD31" d="M62.048 26.25l2.64 8.097h8.514l-6.893 5.005 2.632 8.104-6.893-5.004-6.885 5.004 2.632-8.105-6.894-5.004h8.515zm25.987 0l2.632 8.097h8.514l-6.893 5.005 2.632 8.104-6.885-5.004-6.894 5.004 2.632-8.105-6.893-5.004h8.514z"/></svg>