<svg fill="none" viewBox="0 1.04 144 141.92" xmlns="http://www.w3.org/2000/svg"><g clip-rule="evenodd" fill-rule="evenodd"><path d="M36.322 125.385c-11.81-1.632-32.743-5.137-35.911-18.963-2.449-10.659 6.625-24.726 11.954-33.607 2.737-4.561 9.362-14.355 9.602-19.588.192-3.697-.72-7.682-1.632-11.234L10.829 3.488c11.906 5.666 18.244 8.978 32.07 9.362 12.579.289 19.636-4.368 29.094-11.81C81.5 8.482 88.51 13.139 101.088 12.85c13.826-.336 20.163-3.648 32.07-9.362l-9.506 38.553c-.912 3.6-1.728 7.537-1.632 11.234.24 5.137 6.817 14.979 9.602 19.588 5.329 8.785 14.451 22.949 11.954 33.607-3.168 13.826-24.149 17.379-35.911 18.963-14.451 1.969-26.934 5.137-35.672 17.524-8.737-12.435-21.268-15.603-35.67-17.572" fill="#fff100"/><path d="M36.61 123.225c-10.706-1.488-31.206-4.801-34.134-17.379-2.257-9.842 6.721-23.717 11.666-31.975 2.977-5.041 9.602-14.787 9.89-20.548.192-3.889-.72-8.066-1.68-11.859L13.998 7.377c10.802 5.185 16.227 7.298 28.854 7.634 12.242.288 19.78-3.985 29.142-11.187 9.266 7.25 16.755 11.475 29.142 11.187 12.626-.288 18.004-2.449 28.854-7.586l-8.402 34.135c-.912 3.793-1.872 7.97-1.68 11.859.24 5.76 6.817 15.555 9.89 20.548 4.993 8.258 13.971 22.229 11.666 31.975-2.928 12.578-23.429 15.843-34.135 17.379-11.954 1.68-28.037 5.521-35.383 15.939-7.298-10.466-23.43-14.355-35.335-16.035" fill="#034ea1"/><path d="M71.994 135.515c-2.929-4.128-16.035-11.714-35.096-14.355-10.994-1.488-29.814-4.801-32.31-15.698-1.92-8.162 4.993-19.589 11.426-30.39 3.313-5.426 9.89-15.268 10.178-21.558.192-4.272-.816-8.977-1.728-12.434l-7.297-29.766c5.905 2.785 11.954 5.473 25.589 5.857 15.507.336 24.773-7.201 29.238-10.61 4.416 3.457 13.73 10.994 29.238 10.61 13.635-.336 19.78-3.072 25.637-5.857l-7.297 29.766c-.913 3.553-1.921 8.21-1.729 12.435.288 6.337 6.866 16.083 10.178 21.556 6.53 10.85 13.347 22.229 11.427 30.391-2.497 10.897-21.317 14.21-32.311 15.698-19.108 2.641-32.214 10.227-35.143 14.355" fill="#fff100"/><path d="M86.829 21.588c7.681 0 13.827 6.241 13.827 13.827a13.77 13.77 0 0 1-13.827 13.827 13.77 13.77 0 0 1-13.827-13.827c0-7.586 6.193-13.827 13.827-13.827" fill="#fff"/><path d="M89.71 22.068c3.36.72 6.24 2.64 8.21 5.33-.577-.193-1.201-.289-1.73-.48.289 1.968-.047 3.792-.335 5.424 1.296.816 2.448 2.113 3.36 3.793.432-.528.912-1.296 1.297-2.112.048.48.048.912.048 1.392 0 2.977-.96 5.761-2.593 8.017 0-.576-.048-1.248-.096-1.728-1.776.913-3.6 1.152-5.281 1.297-.432 1.536-1.248 2.976-2.593 4.32.672.24 1.489.48 2.353.577-1.68.72-3.553 1.152-5.425 1.152-1.44 0-2.88-.24-4.13-.672.529-.193 1.153-.433 1.537-.577-1.392-1.44-2.16-3.072-2.88-4.608-1.633.096-3.217-.24-4.898-1.152 0 .672 0 1.536.096 2.4-2.112-2.4-3.408-5.522-3.408-8.978.336.48.768.96 1.056 1.296.912-1.728 2.208-2.976 3.553-4.177-.576-1.488-.768-3.168-.48-5.04-.673.191-1.489.48-2.257.911a13.6 13.6 0 0 1 7.538-6.097c-.336.48-.672 1.056-.96 1.489 1.968.288 3.552 1.2 5.089 2.016 1.248-1.008 2.736-1.68 4.609-1.968-.48-.529-1.057-1.153-1.68-1.825m-2.881-1.104c7.97 0 14.451 6.481 14.451 14.45 0 7.97-6.482 14.452-14.451 14.452s-14.451-6.481-14.451-14.451 6.48-14.451 14.45-14.451" fill="#034ea1"/><path d="M86.925 30.086a26.1 26.1 0 0 1 5.185 3.889c-.24 2.112-.96 4.177-1.777 6.097-2.352.24-4.56.24-6.721 0-.816-1.776-1.44-4.033-1.776-6.097 1.392-1.489 3.216-2.88 5.089-3.89m-12.579-5.232c-10.61 13.779 1.008 35.575 13.49 40.808L75.739 78.528C62.776 64.605 61.24 38.296 74.346 24.853m-3.409.912c-11.618 14.115-8.546 40.952 3.65 54.011L63.351 91.683C47.46 71.998 52.693 42.137 70.937 25.765m-8.69 67.118l-11.33 12.05c-22.324-30.726-5.281-65.87 15.747-76.911-17.187 16.42-19.588 46.329-4.417 64.86" fill="#034ea1"/></g><path d="M39.78 112.183c0-1.056.287-1.92 1.007-2.593a3.9 3.9 0 0 1 2.593-.96h.191v-.816h2.209v.816h.192c1.056 0 1.92.288 2.593.96.672.673 1.008 1.489 1.008 2.593q0 1.656-1.008 2.592a3.9 3.9 0 0 1-2.593.96h-.192v1.008h-2.209v-1.056h-.191c-1.009 0-1.92-.288-2.593-.912-.72-.624-1.008-1.536-1.008-2.592m6-1.92v3.888c.48 0 .768-.096 1.008-.336.289-.288.433-.816.433-1.632 0-.768-.096-1.296-.432-1.632q-.361-.288-1.009-.288m-2.305 3.888v-3.888c-.48 0-.767.096-1.008.288-.288.288-.431.816-.431 1.632 0 .768.096 1.296.431 1.632.24.192.625.336 1.008.336m9.362-6.289v3.841l2.209-3.841h2.208l-1.968 2.929 1.92 5.904h-2.208l-1.2-3.84-.96 1.392v2.448h-2.209v-8.881h2.209zm11.187 1.536v2.161h.432c.336 0 .72-.048.96-.24.288-.192.48-.48.48-.816s-.096-.673-.432-.817c-.24-.192-.528-.24-.96-.24zm-2.257 7.297v-8.881h3.36q1.37 0 2.161.576c.577.432.913 1.056.913 1.921 0 .96-.288 1.68-.96 2.16-.529.432-1.297.672-2.257.672-.288 0-.576 0-.816-.048v3.6zm6.914-4.416q0-1.945.72-3.169c.576-.96 1.488-1.44 2.688-1.44s2.113.48 2.69 1.44c.48.768.72 1.873.72 3.169s-.24 2.352-.72 3.12c-.577.96-1.49 1.44-2.69 1.44s-2.112-.48-2.688-1.44c-.48-.768-.72-1.776-.72-3.12m2.4 0c0 1.008.048 1.728.192 2.112.192.528.432.816.912.816.433 0 .72-.288.817-.816.096-.432.192-1.152.192-2.16s-.048-1.728-.192-2.16c-.096-.529-.432-.817-.817-.817-.432 0-.72.288-.816.817-.144.48-.288 1.2-.288 2.208m9.698 1.2l1.92.192c0 .96-.287 1.728-.815 2.352-.529.576-1.297.912-2.257.912q-1.872 0-2.737-1.44c-.48-.768-.72-1.872-.72-3.168 0-1.248.24-2.353.72-3.121.577-1.008 1.489-1.488 2.737-1.488 1.008 0 1.776.288 2.353.96.48.576.72 1.393.72 2.353h-2.113c0-.432-.048-.768-.192-1.008-.192-.433-.432-.577-.768-.577-.432 0-.72.288-.912.913-.096.432-.192 1.152-.192 2.112 0 1.008.048 1.728.192 2.16.192.528.48.768.96.768.432 0 .672-.096.816-.48.24-.432.288-.912.288-1.44m2.593-3.937v-1.728h6.241v1.728h-1.968v7.105h-2.209v-7.105zm6.77 2.737q0-1.945.72-3.169c.576-.96 1.488-1.44 2.688-1.44s2.112.48 2.689 1.44c.48.768.72 1.873.72 3.169s-.24 2.352-.72 3.12c-.577.96-1.489 1.44-2.689 1.44s-2.112-.48-2.689-1.44c-.48-.768-.72-1.776-.72-3.12m2.4 0c0 1.008.048 1.728.192 2.112.096.528.432.816.912.816.432 0 .72-.288.912-.816.096-.432.192-1.152.192-2.16s-.048-1.728-.192-2.16c-.096-.529-.432-.817-.912-.817-.432 0-.72.288-.816.817-.24.48-.288 1.2-.288 2.208m5.473 4.416v-8.881h3.697c.768 0 1.44.192 1.92.576.48.432.72.912.72 1.488 0 .529-.192.961-.48 1.393-.288.336-.72.576-1.2.72.576.192 1.008.432 1.392.768.288.336.48.816.48 1.44 0 .72-.24 1.296-.768 1.776-.528.432-1.2.672-2.112.672h-3.65zm2.304-3.888v2.208h.817c.288 0 .528-.048.72-.24.24-.192.432-.48.432-.912 0-.336-.096-.576-.288-.768s-.48-.288-.816-.288zm0-3.409v1.921h.721c.336 0 .672-.096.816-.24a.98.98 0 0 0 .288-.72c0-.336-.096-.673-.336-.769a1.6 1.6 0 0 0-.72-.192zm-33.749 11.379v4.752h.816v.961h-3.072v-.961h.816v-3.36l-.816.24v-.96c.192 0 .432-.096.72-.24.336-.192.576-.288.672-.432zm1.537 4.272l1.2-.191c0 .192.048.336.096.48.048.192.24.24.432.24.24 0 .336-.096.48-.432.096-.24.192-.672.192-1.152-.192.096-.336.192-.528.24s-.336.095-.528.095c-.432 0-.768-.096-1.008-.432a1.5 1.5 0 0 1-.433-1.056c0-.672.193-1.152.529-1.536.336-.336.816-.576 1.488-.576.72 0 1.248.288 1.632.96.288.528.432 1.152.432 1.92s-.192 1.441-.48 1.969c-.336.672-.96 1.008-1.68 1.008-1.056-.048-1.632-.529-1.824-1.537m2.4-1.872c0-.48 0-.816-.048-1.008-.048-.336-.24-.48-.48-.48-.192 0-.336.096-.48.288-.048.192-.096.336-.096.576s.048.48.096.576.24.24.432.24c.096 0 .192 0 .288-.048.096 0 .24-.096.288-.144m2.929.912v-.96h.288c.288 0 .48-.048.672-.192.192-.096.24-.288.24-.576 0-.192-.048-.336-.096-.48a.6.6 0 0 0-.432-.192.62.62 0 0 0-.48.192c-.096.096-.192.288-.24.48l-1.057-.48c.192-.432.433-.72.769-.912.336-.24.72-.288 1.152-.288.48 0 .96.096 1.248.432.336.288.528.72.528 1.2 0 .288-.096.576-.336.816-.24.192-.48.288-.816.432.432.048.768.192.96.336.288.24.432.529.432.961 0 .528-.24.96-.72 1.248a2.54 2.54 0 0 1-1.44.432 2.27 2.27 0 0 1-1.152-.289c-.289-.192-.529-.479-.769-.911l1.009-.529c.096.288.24.481.336.529s.24.096.432.096c.48 0 .72-.241.72-.673 0-.288-.096-.528-.288-.672-.096-.048-.336-.095-.672-.095h-.288zm3.12-.48c0-.816.096-1.488.336-2.016.288-.576.817-.912 1.633-.912.72 0 1.248.288 1.632.912.24.48.432 1.152.432 2.016 0 .816-.096 1.537-.48 2.017-.336.576-.816.816-1.536.816-.768 0-1.297-.288-1.633-.816-.288-.432-.384-1.105-.384-2.017m1.969-1.968c-.192 0-.288.048-.336.24a3.1 3.1 0 0 0-.096.816v1.729c0 .432.048.72.096.912s.192.24.432.24c.192 0 .288-.048.336-.24s.096-.433.096-.817v-1.728c0-.432-.048-.72-.096-.912a.5.5 0 0 0-.432-.24" fill="#034ea1"/><path clip-rule="evenodd" d="M36.082 19.188c-5.377-.817-10.37-2.017-15.363-4.033l6.866 27.606c1.152 4.56 1.296 7.68 1.296 10.033 0 5.81-4.081 13.54-7.73 19.877-5.665 9.938-11.234 18.003-12.194 27.941-1.056 11.667 18.34 15.699 27.125 16.516zm71.871 0c5.377-.817 10.37-2.017 15.363-4.033L116.45 42.76c-1.152 4.56-1.296 7.68-1.296 10.033 0 5.81 4.081 13.54 7.73 19.877 5.665 9.938 11.234 18.003 12.194 27.941 1.057 11.667-18.339 15.699-27.125 16.516z" fill="#034ea1" fill-rule="evenodd"/></svg>