<svg fill="none" viewBox="11.97 0 120.07 144" xmlns="http://www.w3.org/2000/svg" xmlns:xlink="http://www.w3.org/1999/xlink"><linearGradient id="b" gradientUnits="userSpaceOnUse" x1="15.338" x2="107.132" y1="51.991" y2="51.991"><stop offset="0" stop-color="#c3161c"/><stop offset="1" stop-color="#ec1c24"/></linearGradient><linearGradient id="a"><stop offset="0" stop-color="#fff"/><stop offset="1" stop-color="#a6a8ab"/></linearGradient><linearGradient id="c" gradientUnits="userSpaceOnUse" x1="17.902" x2="73.111" xlink:href="#a" y1="122.191" y2="122.191"/><linearGradient id="d" gradientUnits="userSpaceOnUse" x1="17.882" x2="17.903" xlink:href="#a" y1="105.253" y2="105.253"/><linearGradient id="e" gradientUnits="userSpaceOnUse" x1="52.766" x2="67.257" xlink:href="#a" y1="132.34" y2="132.34"/><linearGradient id="f" gradientUnits="userSpaceOnUse" x1="75.031" x2="125.846" y1="120.08" y2="120.08"><stop offset="0" stop-color="#a6a8ab"/><stop offset="1" stop-color="#fff"/></linearGradient><linearGradient id="g" gradientUnits="userSpaceOnUse" x1="47.152" x2="128.437" y1="79.03" y2="79.03"><stop offset="0" stop-color="#00813d"/><stop offset="1" stop-color="#00a84f"/></linearGradient><radialGradient id="h" cx="71.96" cy="94.384" gradientUnits="userSpaceOnUse" r="19.266"><stop offset="0" stop-color="#58595b"/><stop offset="1" stop-color="#231f20"/></radialGradient><radialGradient id="i" cx="71.909" cy="94.336" gradientUnits="userSpaceOnUse" r="17.829"><stop offset="0" stop-color="#fff"/><stop offset="1" stop-color="#d0d2d3"/></radialGradient><path d="M75.66 58.492c-5.375.72-10.509 1.392-14.444 1.92l8.973-18.138zm50.19 31.718l-9.981-29.27c-.672-2.064-2.399-4.175-5.038-5.375L91.782 0l-2.783.816c-4.559 1.247-9.885 2.35-15.355 3.167-5.758.815-11.372 1.247-16.267 1.247H54.45l-2.927 8.302-.96 2.878 2.88 1.008c1.391.528 3.55 1.68 4.175 2.495.575.864.383 2.64-.385 4.463L28.636 84.164c-2.111 4.414-3.935 6.094-6.766 6.334-.72.048-4.558.336-4.558.336l-2.015.192-3.263 9.26s-.192 1.248.096 3.167c.623 4.127 3.31 11.133 14.347 14.444l.528.624a18.6 18.6 0 0 0 10.46 6.525l.528.624a18.6 18.6 0 0 0 10.46 6.526l.528.624c2.64 3.215 7.438 7.005 15.067 7.005h1.296c1.535 3.599 4.079 4.175 5.566 4.175h1.823c1.488 0 3.935-.624 5.567-4.175h1.44c7.724 0 12.475-3.838 15.066-7.005l.528-.624c5.134-1.2 8.493-4.175 10.46-6.526l.528-.624c5.135-1.199 8.493-4.174 10.461-6.525l.527-.624c7.534-1.728 11.708-7.678 13.148-10.749.576-1.296.96-2.639 1.2-3.647.384-1.871.384-3.215.384-3.215z" fill="#e6e7e8"/><path d="M56.605 8.253l-2.16 6.286s4.127 1.536 5.663 3.647c1.487 2.16.912 5.182-.192 7.533l-28.55 59.74c-2.016 4.175-4.463 7.726-9.262 8.11-.72.048-4.558.336-4.558.336l-2.207 6.285H50.75a21.5 21.5 0 0 1-.816-5.806v-.527c-1.152-.24-2.4-.576-3.31-.96-2.736-1.248-3.36-3.07-2.016-5.902l26.103-52.878 8.061 23.944 28.359-3.647L89.762 3.79c-4.51 1.247-9.885 2.399-15.691 3.215-6.478.911-12.476 1.295-17.466 1.247" fill="url(#b)"/><path d="M92.065 103.406l-.528.96a21.3 21.3 0 0 1-8.637 9.068c-3.167 1.824-6.622 2.783-10.22 2.975h-1.584c-7.533-.288-14.443-4.462-18.234-11.036l-.576-1.007-.528-.96H15.195s.287 2.159 2.783 5.422c1.775 2.351 4.99 5.374 10.22 6.238l1.2 1.487c1.871 2.304 4.99 4.847 9.789 5.662l1.2 1.488c1.87 2.303 4.99 4.846 9.788 5.662l1.2 1.487c2.207 2.687 6.237 5.902 12.763 5.902h3.503c.576 2.448 1.584 4.175 3.311 4.175h1.823c1.728 0 2.687-1.727 3.311-4.175h3.647c6.526 0 10.508-3.215 12.764-5.902l1.2-1.487c4.798-.816 7.869-3.407 9.788-5.662l1.2-1.488c4.798-.815 7.869-3.406 9.788-5.662l1.2-1.487c6.19-1.008 9.501-5.038 11.036-7.39 1.44-2.207 1.92-4.222 1.92-4.222H92.113v-.048z" fill="#231f20"/><path d="M31.125 113.434h14.779c.528 0 .96.384.96.96 0 .528-.48.96-.96.96H30.74c1.92 2.351 5.47 5.278 11.324 5.278H53.15c.528 0 .96.384.96.96 0 .527-.48.959-.96.959H41.777c1.92 2.351 5.47 5.278 11.325 5.278h16.842c.528 0 .96.384.96.96 0 .528-.48.96-.96.96h-1.248c.088 4.878.861 8.74 1.913 9.356h.585c1.068-.685 1.917-5.079 1.917-10.364 0-5.614-.912-10.172-2.111-10.412-7.87-.336-15.451-4.559-19.674-11.949-.24-.336-.384-.719-.623-1.103h-32.8c.28.638 3.802 8.157 13.222 8.157" fill="url(#c)"/><path d="M17.882 105.229v.048h.02z" fill="url(#d)"/><path d="M67.257 134.979c-.24-1.68-.336-3.503-.384-5.278H52.766c1.92 2.351 5.47 5.278 11.324 5.278z" fill="url(#e)"/><path d="M90.962 129.653H83.38c-.527 0-.96-.384-.96-.96 0-.528.48-.96.96-.96h7.246c5.806 0 9.357-2.927 11.324-5.278H90.578c-.528 0-.96-.384-.96-.959 0-.528.48-.96.96-.96h11.036c5.806 0 9.357-2.927 11.324-5.278h-15.21c-.528 0-.96-.384-.96-.96 0-.528.48-.96.96-.96h14.922c9.178 0 12.758-7.141 13.196-8.097v-.012H93.217c-2.015 3.982-5.182 7.437-9.309 9.885-2.783 1.583-5.806 2.639-8.877 3.023 1.295 2.351 1.68 6.765 1.68 10.556 0 2.063-.097 4.271-.385 6.238h3.311c5.807 0 9.357-2.927 11.325-5.278" fill="url(#f)"/><path d="M112.794 61.947c-.531-1.55-2.373-3.788-5.744-4.126h-1.27a7 7 0 0 1-.759.048c-4.511.527-33.301 4.414-45.441 5.998L47.488 88.435c-.288.575-.336.911-.336 1.007.096.048.336.288.816.528.527.24 1.391.528 2.351.672 1.103-6.238 4.799-11.948 10.7-15.355 3.407-2.016 7.15-2.927 10.845-2.975h.24c7.533.048 14.923 3.983 18.954 11.036 2.015 3.407 2.927 7.198 2.975 10.893v.24c0 1.919-.288 3.886-.816 5.757h35.22l-5.278-8.157zm-45.969 5.23l33.014-3.886.623 3.886zm39.635-5.326c1.296-.24 3.071 1.296 3.983 3.551.864 2.207.528 4.223-.816 4.463h-.384c-1.247-.048-2.783-1.536-3.599-3.551-.863-2.208-.527-4.223.816-4.463m4.175 29.175c-.096.048-.24.048-.336.048-.864.048-1.871-.864-2.447-2.256-.624-1.535-.336-3.07.576-3.358.911-.336 2.159.671 2.783 2.207.623 1.535.335 3.07-.576 3.359m1.631-9.07l-6.861-6.381 6.477 2.975 1.728-3.503.384 6.862zm6.478 8.542c-.096.048-.24.048-.336.048-.72.096-1.631-.768-2.111-1.968-.576-1.391-.336-2.735.528-3.022.815-.288 1.919.575 2.447 1.919.576 1.391.336 2.687-.528 3.023" fill="url(#g)"/><path d="M73.202 75.095h-2.508c-10.04.674-18.024 9.049-18.024 19.29 0 10.218 7.993 18.621 17.963 19.289h2.569c10.054-.668 18.047-9.071 18.047-19.29s-7.993-18.62-18.047-19.289" fill="url(#h)"/><path d="M62.171 79.462l-.048-.049c-.192.097-.624.576-1.2.912-1.487 1.248-2.015 1.775-3.886 4.27-.192.288-1.152 1.776-1.296 2.4.528-.048 1.296-.288 1.536-.384 3.023-1.2 4.99-2.927 4.894-7.15m22.024 16.314l.049-3.263c1.871 0 3.407-.576 5.182-2.015.048-.48-.48-1.92-.72-2.64-1.391-3.502-4.127-6.861-7.821-9.068-1.488.383-3.311 2.734-3.647 4.414-.288 1.008-.24 1.872-.24 3.167l-2.687.384c-.24-.336-.624-.912-.816-1.008-.96-1.2-2.687-2.159-4.702-2.399l-.048-1.44c.48.049 1.2.192 1.823.192 3.31-.24 5.086-1.871 6.334-4.078.48-.864-.336-1.008-1.871-1.248a23 23 0 0 0-2.088-.24h-2.085c-1.52.12-3.031.458-4.848 1.104-.672.24-1.536.576-2.064.911.672 1.68 1.68 2.304 3.215 3.167l.096 1.824c-4.126.624-6.957 4.079-6.477 8.733l-1.392.192c-.672-1.008-.912-1.44-1.535-2.015-.912-.72-1.536-1.2-2.927-1.44-1.008 3.36-1.2 7.246 0 10.893.287.815.911 2.399 1.2 2.687 2.686-1.296 4.174-3.551 4.126-6.862-.048-.576-.192-1.248-.336-2.063l1.2-.192c.72 1.535 1.295 2.35 2.303 3.167.623.528 1.295.863 2.063 1.151l-.384 2.495c-1.296 0-2.735.24-3.79.72-2.064 1.104-3.983 3.023-3.983 3.503.336.816 2.015 2.447 2.639 3.023 2.015 1.823 4.126 3.215 6.813 3.935 1.7.476 2.675.614 3.203.671h.487c.89-.941 1.54-3.242 1.493-4.942l3.167-.48c.671 1.008 1.583 1.728 1.87 1.872.913.671 3.024 1.487 3.792 1.295 1.2-.672 3.263-2.303 3.935-3.023 1.247-1.295 2.927-3.359 3.694-5.374 0-3.023-2.303-4.846-4.223-5.71m-1.774-.384c-1.009-.288-3.024.048-3.984.48-3.406 1.535-5.134 4.558-4.366 8.925l-2.64.48c-.479-1.392-1.535-2.735-2.494-3.551-.624-.48-1.104-.72-2.303-1.152l.287-2.399c.336 0 .672.048 1.008.048.576 0 1.152-.096 1.775-.24 2.208-.48 5.375-2.35 5.71-6.957.048-.576-.096-2.112-.383-2.687l2.447-.384c1.2 2.687 2.399 3.502 5.038 4.51z" fill="url(#i)"/></svg>