<svg xmlns="http://www.w3.org/2000/svg" fill="none" viewBox="20.84 0 102.32 144"><g clip-path="url(#a)"><path fill="#fff" d="M20.842 28.72V0h102.316v28.72c0 62.222-13.035 82.298-51.16 115.279-38.109-32.971-51.156-53.023-51.156-115.28"/><path fill="#002E6D" d="M120.833 2.347v26.37c0 60.69-12.706 80.939-48.832 112.189C35.875 109.658 23.168 89.409 23.168 28.72V2.347z"/><path fill="#3CB4E5" d="M75.457 14.09c1.859 0 3.176 1.83 2.6 3.616l-4.17 12.96h-4.672l2.922-9.077-13.302 9.061a2.04 2.04 0 0 1-2.718-.385 2.084 2.084 0 0 1 .424-3.05l13.179-8.977H59.484l1.335-4.147z"/><path fill="#fff" d="m109.891 16.685-4.498 13.978h-4.672l4.944-15.365a2.22 2.22 0 0 1 2.113-1.55c1.508 0 2.578 1.486 2.113 2.937m-70.364-2.594-5.331 16.575h4.672l4-12.428h9.544l-6.499 4.427c-.94.64-1.256 1.94-.63 2.894a2.04 2.04 0 0 0 2.863.58l8.098-5.514c2.892-1.971 1.511-6.536-1.978-6.534H39.527m58.792 0H83.584l-5.33 16.575h4.672l3.999-12.428h9.545l-8.448 5.755 5.223 6.292c.676.81 1.848.98 2.718.386a2.085 2.085 0 0 0 .424-3.05l-2.297-2.767 6.207-4.23c2.892-1.97 1.511-6.535-1.978-6.533M67.348 36.534H55.722v17.52l-9.3 6.335V36.534H34.794v22.144c0 4.808.477 9.606 1.45 14.31l31.105-21.19V36.534z"/><path fill="#3CB4E5" d="M36.245 72.988q.224 1.083.48 2.159c1.484 6.165 3.381 11.655 5.732 16.713a79 79 0 0 0 3.965 7.451V71.716l9.3-6.335v46.686c3.455 4.039 7.324 8.015 11.627 12.079V51.799L36.242 72.988z"/><path fill="#fff" d="M109.205 36.534H97.578v17.52l-9.3 6.335V36.534H76.652v37.442l32.553-22.178z"/><path fill="#3CB4E5" d="M76.653 73.977v50.176c4.302-4.066 8.17-8.043 11.626-12.079v-40.35l9.3-6.336v33.93a80 80 0 0 0 3.965-7.451c2.35-5.057 4.248-10.548 5.732-16.713a70.3 70.3 0 0 0 1.93-16.468v-6.88L76.65 73.98z"/></g><defs><clipPath id="a"><path fill="#fff" d="M0 0h144v144H0z"/></clipPath></defs></svg>