<svg xmlns="http://www.w3.org/2000/svg" fill="none" viewBox="23.25 0 97.5 144"><g clip-path="url(#a)"><path fill="#fff" d="M23.25 72.012c.092-.144.169-.275.255-.398Q32.01 59.05 40.51 46.487c.275-.41.514-.847.793-1.261.612-.901 1.261-1.766 1.858-2.66q8.873-13.089 17.736-26.19A4729 4729 0 0 0 65.35 9.8c.505-.746 1.014-1.49 1.512-2.237.383-.577.748-1.165 1.13-1.744.154-.23.347-.43.496-.66.394-.601.761-1.22 1.167-1.815.633-.928 1.288-1.84 1.932-2.76.127-.18.248-.36.401-.583.113.149.203.266.284.385a2208 2208 0 0 0 3.203 4.728q1.559 2.308 3.122 4.616c.498.736.991 1.475 1.498 2.207s1.027 1.442 1.53 2.163c.202.295.369.617.56.92.095.152.212.291.314.438q.371.54.734 1.092c.047.068.079.147.128.212.293.399.593.79.874 1.196.149.214.252.462.399.678a48936 48936 0 0 0 16.7 24.667c.162.239.372.446.529.69.275.412.518.842.786 1.26.113.181.266.32.381.492.223.333.428.678.651 1.011.122.18.277.345.401.527.122.185.221.415.36.609.318.455.656.9.973 1.344.149.214.253.462.399.678a26876 26876 0 0 0 14.596 21.57l.338.505c-.081.13-.158.257-.241.383l-12.03 17.774c-.473.698-.951 1.392-1.417 2.095-.192.286-.338.604-.541.887-.385.56-.8 1.097-1.182 1.656-.228.331-.404.696-.633 1.025-.739 1.081-1.498 2.135-2.235 3.21-.313.455-.577.946-.887 1.403-.422.617-.881 1.21-1.3 1.829a2344 2344 0 0 0-4.386 6.485c-.067.101-.133.207-.232.36.54.055 1.028.021 1.516.025.49.005 1 0 1.5 0h1.525v17.653c-.151 0-.31.02-.47.02h-9.46c-.262 0-.526.041-.787.059h-.248c-1.29-.023-2.579-.052-3.87-.061-.47 0-.941.052-1.412.068a.677.677 0 0 0-.592.383c-.235.371-.496.72-.744 1.092l-.973 1.453c-.092.135-.18.268-.281.399-.025.033-.057.063-.08.096l-.88 1.395q-.133.209-.277.414c-.284.419-.563.845-.854 1.262-.191.272-.414.52-.599.795q-3.213 4.756-6.426 9.503c-.07.104-.144.203-.248.347-.103-.142-.194-.259-.275-.381l-7.318-10.807c-.194-.286-.435-.541-.626-.829-.406-.611-.78-1.244-1.192-1.852-.615-.901-1.261-1.802-1.88-2.703a.8.8 0 0 1-.16-.241c-.086-.36-.325-.41-.654-.41q-6.97.014-13.94 0c-.208 0-.413.034-.62.052a1 1 0 0 1-.167.014c-.455-.032-.9-.068-1.38-.104a2 2 0 0 1-.036-.236c-.02-1.388-.043-2.778-.05-4.168 0-.626.04-1.25.045-1.874 0-.389-.04-.777-.04-1.166 0-.428.04-.859.042-1.289v-8.922h4.602z"/><path fill="#3360AB" d="M23.25 72.012c.092-.144.169-.275.255-.398Q32.01 59.05 40.51 46.487c.275-.41.514-.847.793-1.261.612-.901 1.261-1.766 1.858-2.66q8.873-13.089 17.736-26.19A4729 4729 0 0 0 65.35 9.8c.505-.746 1.014-1.49 1.512-2.237.383-.577.748-1.165 1.13-1.744.154-.23.347-.43.496-.66.394-.601.761-1.22 1.167-1.815.633-.928 1.288-1.84 1.932-2.76.127-.18.248-.36.401-.583.113.149.203.266.284.385a2208 2208 0 0 0 3.203 4.728q1.559 2.308 3.122 4.616c.498.736.991 1.475 1.498 2.207s1.027 1.442 1.53 2.163c.202.295.369.617.56.92.095.152.212.291.314.438q.371.54.734 1.092c.047.068.079.147.128.212.293.399.593.79.874 1.196.149.214.252.462.399.678a48936 48936 0 0 0 16.7 24.667c.162.239.372.446.529.69.275.412.518.842.786 1.26.113.181.266.32.381.492.223.333.428.678.651 1.011.122.18.277.345.401.527.122.185.221.415.36.609.318.455.656.9.973 1.344.149.214.253.462.399.678a26876 26876 0 0 0 14.596 21.57l.338.505c-.081.13-.158.257-.241.383l-12.03 17.774c-.473.698-.951 1.392-1.417 2.095-.192.286-.338.604-.541.887-.385.56-.8 1.097-1.182 1.656-.228.331-.404.696-.633 1.025-.739 1.081-1.498 2.135-2.235 3.21-.313.455-.577.946-.887 1.403-.422.617-.881 1.21-1.3 1.829a2344 2344 0 0 0-4.386 6.485c-.067.101-.133.207-.232.36.54.055 1.028.021 1.516.025.49.005 1 0 1.5 0h1.525v17.653c-.151 0-.31.02-.47.02h-9.46c-.262 0-.526.041-.787.059h-.248c-1.29-.023-2.579-.052-3.87-.061-.47 0-.941.052-1.412.068a.677.677 0 0 0-.592.383c-.235.371-.496.72-.744 1.092l-.973 1.453c-.092.135-.18.268-.281.399-.025.033-.057.063-.08.096l-.88 1.395q-.133.209-.277.414c-.284.419-.563.845-.854 1.262-.191.272-.414.52-.599.795q-3.213 4.756-6.426 9.503c-.07.104-.144.203-.248.347-.103-.142-.194-.259-.275-.381l-7.318-10.807c-.194-.286-.435-.541-.626-.829-.406-.611-.78-1.244-1.192-1.852-.615-.901-1.261-1.802-1.88-2.703a.8.8 0 0 1-.16-.241c-.086-.36-.325-.41-.654-.41q-6.97.014-13.94 0c-.208 0-.413.034-.62.052a1 1 0 0 1-.167.014c-.455-.032-.9-.068-1.38-.104a2 2 0 0 1-.036-.236c-.02-1.388-.043-2.778-.05-4.168 0-.626.04-1.25.045-1.874 0-.389-.04-.777-.04-1.166 0-.428.04-.859.042-1.289v-8.922h4.602zm67.088 37.11h1.365a.5.5 0 0 0 .269-.151q.108-.126.19-.272l24.625-36.378c.068-.101.131-.207.203-.32L72 5.534l-44.99 66.46.283.435 22.383 33.062q1.132 1.675 2.269 3.347c.08.122.13.282.328.28h1.397c-.056-3.467.7-6.686 2.406-9.659a18.24 18.24 0 0 1 7.084-6.999 17.8 17.8 0 0 1 9.645-2.263c4.408.207 8.287 1.793 11.528 4.786 4.095 3.778 6.044 8.513 6.003 14.135v.004zm-43.49 14.576h50.286v-11.485H46.847zm17.314 3.12c.338.662 7.638 11.384 7.884 11.582l7.685-11.348a1 1 0 0 0 .073-.151v-.038c0-.014-.014-.025-.023-.043l-15.619-.004zm20.356-24.793c-.023-.118-.032-.181-.05-.25l-1.477-5.294a.7.7 0 0 0-.135-.272.7.7 0 0 0-.237-.192q-1.892-1.094-3.773-2.21a.75.75 0 0 0-.628-.074c-1.34.36-2.685.707-4.026 1.057-.304.078-.608.166-.912.252a1.3 1.3 0 0 0-.027.191c0 1.347-.011 2.703-.027 4.044a.587.587 0 0 0 .252.446l5.017 4.644c.14.131.288.253.437.383l5.584-2.723zm-13.752-6.97c-.112-.038-.18-.063-.24-.08-1.609-.424-3.217-.845-4.825-1.276a.66.66 0 0 0-.541.113c-1.243.732-2.484 1.469-3.737 2.183a.85.85 0 0 0-.426.57 917 917 0 0 1-1.4 5.007c-.041.144-.066.29-.102.453l5.584 2.718c.086-.065.146-.101.196-.148 1.773-1.64 3.538-3.284 5.32-4.918a.653.653 0 0 0 .207-.554 83 83 0 0 1-.022-1.83c-.023-.74-.018-1.472-.018-2.24h.004zm14.71 9.218l-5.765 2.822v2.007c.14 0 .25.018.36.018l8.245-.018s.013-.002.018-.007a.04.04 0 0 0 .013-.013.4.4 0 0 0 .023-.072c-.955-1.557-1.917-3.129-2.901-4.74h.004zm-21.179 2.817l-5.764-2.82-2.928 4.798c.552.086 8.384.063 8.694-.02l-.004-1.958z"/><path fill="#3360AB" d="M62.383 59.986a6.55 6.55 0 0 1-.762 2.64c-1.02 1.895-2.624 3.064-4.683 3.602-1.948.525-3.878.35-5.793-.203-.068-.018-.13-.043-.2-.058-1.124-.246-1.971-.901-2.685-1.773a10.26 10.26 0 0 1-2.289-5.368c-.374-3.063.286-5.944 1.633-8.676 1.933-3.931 4.875-6.93 8.603-9.175a25.75 25.75 0 0 1 9.43-3.36c.136-.023.271-.052.433-.086.081-.38.158-.76.243-1.135.474-2.113 1.165-4.143 2.266-6.02a11.09 11.09 0 0 1 2.647-3.134 7.7 7.7 0 0 1 4.401-1.692c1.512-.095 2.724.54 3.697 1.655.923 1.066 1.442 2.343 1.743 3.692.552 2.49.273 4.913-.626 7.283q-.074.194-.137.392a.4.4 0 0 0 0 .103c.162.059.329.122.5.18 4.334 1.397 8.208 3.593 11.528 6.71 3.924 3.677 6.59 8.107 7.785 13.371a24.5 24.5 0 0 1 .561 6.411 27 27 0 0 1-1.697 8.582c-1.955 5.15-5.225 9.249-9.98 12.091a22.5 22.5 0 0 1-8.231 2.91c-1.22.197-2.455.285-3.692.267a16.3 16.3 0 0 1-4.449-.814 38 38 0 0 1-5.426-2.24l-.617-.307q-.164.123-.324.248c-1.784 1.441-3.758 2.513-6.005 3.036-2.188.509-4.35.495-6.474-.288a7.1 7.1 0 0 1-2.82-1.802c-1.442-1.543-1.753-3.332-1.106-5.298.306-.928.95-1.622 1.768-2.15a6.75 6.75 0 0 1 3.133-1.024c1.512-.13 2.964.167 4.377.637 1.723.58 3.421 1.219 5.135 1.834l.582.205c.18-.408.382-.788.54-1.183a16 16 0 0 0 1.163-4.502c.193-1.67.4-3.334.567-5.005.104-1.037.142-2.077.21-3.118.124-2.106.142-4.219.051-6.327-.05-1.345-.18-2.687-.283-4.03-.075-.912-.18-1.825-.264-2.737 0-.051-.02-.103-.04-.212-1.872 1.28-3.769 2.44-5.9 3.341l-.079-5.584c.18-.09.32-.167.467-.239l4.52-2.227c.113-.054.221-.122.334-.18a.26.26 0 0 0 .135-.12.25.25 0 0 0 .022-.18c-.144-1.309-.292-2.622-.423-3.933-.083-.843-.14-1.687-.21-2.532 0-.054-.01-.108-.02-.18a1 1 0 0 0-.207.027c-3.19 1.173-5.735 3.133-7.409 6.136a11.8 11.8 0 0 0-1.486 5.403c-.059.958.03 1.92.266 2.85.583 2.101 2.092 3.264 4.268 3.282.32 0 .64-.014.957-.018.109 0 .217 0 .347.013m7.21 22.733q.208.068.422.112c.766.126 1.53.275 2.3.36a11.86 11.86 0 0 0 3.36-.07c1.08-.2 2.131-.522 3.138-.959 4.53-1.86 7.746-5.043 9.61-9.584 1.125-2.744 1.605-5.623 1.722-8.569a31 31 0 0 0-.218-5.156 24 24 0 0 0-1.534-6.066c-1.638-4.007-4.311-7.088-8.177-9.09a16 16 0 0 0-2.124-.924c-1.948 2.964-4.322 5.534-6.924 7.895a11 11 0 0 0 2.888 3.466c1.601 1.262 3.424 2.03 5.392 2.512.455.112.913.203 1.388.308-.023.108-.032.19-.054.266-.403 1.356-.795 2.717-1.214 4.07-1.32 4.244-2.791 8.434-4.656 12.473-1.424 3.085-3.064 6.05-5.16 8.73-.041.063-.084.133-.15.23l-.006-.004zm1.039-45.476c1.984.022 3.964.207 5.92.552q.031-.108.05-.219c.17-1.223.213-2.46.123-3.692a4.9 4.9 0 0 0-.302-1.245 1.43 1.43 0 0 0-.669-.737 1.45 1.45 0 0 0-.989-.126 2.9 2.9 0 0 0-1.302.7c-1.412 1.282-2.16 2.956-2.831 4.765zm-7.733 46.67c-1.21-.627-2.343-1.228-3.566-1.66a3.73 3.73 0 0 0-2.09-.113 5.5 5.5 0 0 0-1.137.382 1.69 1.69 0 0 0-.867.97.9.9 0 0 0-.061.362c.083 1.06.669 1.74 1.703 2a5.2 5.2 0 0 0 2.268.077c1.435-.275 2.655-.958 3.748-2.019zm6.82-42.46c-.285 1.457-.143 4.818.244 5.534 1.982-1.367 3.717-2.969 4.998-5.11-1.781-.339-3.498-.587-5.241-.424m-16.468 75.091l-.901 4.694H51.23q-.46-2.408-.922-4.811h-.022v4.816H48.83v-6.609h2.198c.286 1.487.64 2.976.72 4.566l.771-4.573h2.255v6.614h-1.525c-.016-1.566-.03-3.127 0-4.697m35.015 4.699v-5.345h-1.018c0 .14-.02.284-.023.43-.015.957-.015 1.917-.056 2.874q-.03.584-.191 1.147c-.205.721-.642 1.02-1.395.968a7 7 0 0 1-.74-.135v-1.081c.03-.022.042-.038.051-.038.698.052.678-.162.743-.721q.047-.562.027-1.124v-3.53c.32-.094 3.71-.112 4.176-.024v6.579zm-10.431-6.62h1.72c-.07.155-.119.281-.18.401-.374.743-.74 1.489-1.124 2.23a.64.64 0 0 0-.022.59c.392.962.77 1.93 1.153 2.899.06.151.11.306.18.498h-1.664l-.732-2.226a1.6 1.6 0 0 0-.442 1.226c.03.315 0 .635 0 .988h-1.518v-6.599h1.51c.024.788 0 1.581.094 2.383zm-17.703 6.62h-1.572l-.257-1.288h-1.207c-.074.432-.147.849-.22 1.283h-1.58c.471-2.225.95-4.419 1.442-6.624h1.923l1.467 6.629m-2.413-5.154l-.08-.022-.375 2.608h.83c-.125-.878-.25-1.73-.372-2.579l-.005-.007zm9.044 5.154h-1.583c.482-2.216.952-4.395 1.441-6.602h1.935c.482 2.189.966 4.377 1.462 6.602h-1.57l-.236-1.228a2.9 2.9 0 0 0-1.221-.031l-.216 1.261m.822-5.158h-.08q-.181 1.299-.36 2.602h.827zm12.177 5.156c.484-2.23.957-4.408 1.441-6.607h1.93l1.458 6.607h-1.57c-.083-.426-.164-.842-.248-1.284h-1.21c-.07.41-.139.829-.216 1.273l-1.588.011zm2.8-2.536c-.158-.901-.221-1.773-.474-2.611-.121.865-.24 1.73-.36 2.611h.833m12.635 2.536h-1.555l-.256-1.279h-1.21l-.218 1.279h-1.577c.457-2.219.955-4.404 1.426-6.616h1.928c.49 2.188.984 4.384 1.46 6.616zm-2.4-5.113h-.094a532.6 532.6 0 0 0-.36 2.559h.831a400.99 400.99 0 0 1-.376-2.559M61.8 121.234h-1.523c.067-.18.112-.315.17-.448.384-.879.76-1.76 1.156-2.631a.62.62 0 0 0 0-.541 175.4 175.4 0 0 1-1.067-2.487c-.066-.15-.122-.304-.196-.495h1.534c.238.592.477 1.196.757 1.894.277-.687.52-1.295.765-1.905h1.537c-.061.151-.106.274-.158.396-.36.854-.72 1.714-1.102 2.561a.7.7 0 0 0-.074.315c0 .111.025.219.075.316.382.847.75 1.7 1.124 2.552.06.137.112.281.195.484-.301 0-.57.016-.835.02-.266.005-.527 0-.825 0-.227-.646-.452-1.281-.707-2.002l-.822 1.973zm9.834-6.609v2.176c.009.374.153.5.516.484a1.5 1.5 0 0 0 .247-.033 2 2 0 0 0 .257-.104v-2.545c.54-.016 1.04 0 1.573 0v6.624H72.67v-2.748c-.417.023-.784.059-1.151.059-.829 0-1.352-.449-1.475-1.273a5 5 0 0 1-.041-.746v-1.79a.4.4 0 0 1 .04-.104h1.593z"/></g><defs><clipPath id="a"><path fill="#fff" d="M23.25 0h97.499v144H23.25z"/></clipPath></defs></svg>