<svg xmlns="http://www.w3.org/2000/svg" fill="none" viewBox="25.26 0 93.48 144"><path fill="#005892" d="M82.764 54.209c5.68-14.579-.624-23.596-7.516-23.189-6.303.371-13.493 7.905-15.347 21.57a49 49 0 0 0-5.562 1.013c-10.23 2.514-31.166 14.253-28.905 37.26 1.031 10.51 12.12 13.856 18.712 11.161 4.54-1.854 7.543-5.824 7.769-9.234 0 0-7.1 1.646-9.578-6.394-2.252-7.29 1.61-23.161 17.102-27.42q-.026 1.87.082 3.852c.217 4.006.588 7.135 1.004 10.201-5.137 3.012-9.47 4.848-9.47 4.848l.082 8.148s4.522-2.306 10.247-6.484c.624 5.3 1.112 11.811.958 22.736-.198 14.389-1.392 22.963-4.684 28.724-5.2-2.062-11.595-4.595-15.456-4.893-5.689-.443-10.51 2.252-10.744 7.28-.136 2.93.614 6.277 5.652 8.899 5.236 2.732 13.891 2.922 22.809-4.901 4.83 2.505 10.807 5.082 16.939 5.914 9.306 1.266 33.498-4.115 40.363-31.798 7.66-30.858-15.176-51.695-34.458-57.293m-7.58-13.747c4.007.498 5.065 6.304 3.293 12.734-3.78-.714-8.23-1.14-12.888-1.022 1.881-7.904 5.987-12.164 9.596-11.712M64.867 67.35c-.353-3.392-.38-6.503-.163-9.324 4.088-.371 7.959-.091 11.549.76-.29.542-.597 1.084-.932 1.618-2.206 3.563-6.05 6.846-10.03 9.596a25 25 0 0 1-.424-2.65m-14.543 70.976c-5.499 3.346-10.816-.298-10.834-3.256-.028-4.024 4.467-5.851 10.698-3.093 1.013.453 2.66 1.438 4.776 2.659-1.32 1.393-2.85 2.605-4.64 3.69m45.3-17.563c-5.76 9.813-18.286 16.677-31.788 12.535 3.056-3.735 6.629-9.523 11.124-19.616 6.52-14.633 8.917-26.571 8.917-26.571S72.11 85.456 67.009 75.064c4.748-4.088 9.587-9.206 13.005-15.148 11.712 4.323 19.78 15.184 21.561 29.546 1.194 9.523.624 20.114-5.951 31.301"/><path fill="#B09058" d="m57.992 0 3.111 9.614h10.048l-8.14 6.14 3.112 9.714-8.13-5.888-8.14 5.96 3.12-9.795-8.13-6.131H54.89zM86.02 0l3.101 9.614h10.057l-8.13 6.14 3.11 9.714-8.139-5.888-8.13 5.96 3.11-9.795-8.13-6.131h10.057z"/></svg>