<svg xmlns="http://www.w3.org/2000/svg" fill="none" viewBox="0 21.55 144 100.91"><path fill="#C8102E" d="M71.982 39.298L0 80.88l71.982 41.583L144 80.881z"/><path fill="#C5B783" d="M69.268 27.087l-5.39-.55-2.237-4.987-2.2 4.987-5.427.55 4.033 3.63-1.1 5.354 4.694-2.75 4.73 2.75-1.136-5.354zm41.4 0l-5.391-.55-2.236-4.987-2.201 4.987-5.427.55 4.07 3.63-1.136 5.354 4.694-2.75 4.73 2.75-1.137-5.354zm-20.681 0l-5.428-.55-2.2-4.987-2.236 4.987-5.391.55 4.034 3.63-1.137 5.354 4.73-2.75 4.694 2.75-1.137-5.354zm-41.4 0l-5.427-.55-2.2-4.987-2.237 4.987-5.39.55 4.033 3.63-1.137 5.354 4.73-2.75 4.694 2.75-1.136-5.354z"/><path fill="#fff" d="M90.28 91.441c-4.474 5.978-11.698 9.021-18.262 9.021-11.33 0-22.661-6.784-22.661-19.985 0-9.79 8.58-19.03 22.661-19.03 4.51 0 8.91 1.43 11.368 2.492l3.887-2.236v8.8l-3.007 1.724a14.94 14.94 0 0 0-12.248-6.344c-8.287 0-15.034 6.71-15.034 15.034 0 8.287 6.71 14.998 15.034 15.035 5.464 0 10.634-2.347 14.265-6.784zm44.736-10.56l-62.998 36.375L9.021 80.881l62.997-36.376zm-63.035 31.168l53.978-31.168-18.005-10.378-26.989 15.585v3.116a12.3 12.3 0 0 1-9.497 3.924l1.944-1.393-3.374-3.74-4.913 1.063.806 2.53c-3.923-2.2-6.27-6.38-6.234-10.78l1.76 1.98 3.374-3.74-1.54-4.804-2.163.953a12.3 12.3 0 0 1 8.14-6.27l2.713 1.576 2.714-1.576a12.32 12.32 0 0 1 8.544 7.04l6.747-3.887V60.09L71.981 49.711 18.005 80.88l18.004 10.377 11-6.343c1.174 5.976 4.731 11.22 10.635 14.667l-3.63 2.09z"/><path fill="#C8102E" d="M81 75.701v-3.134l4.563 2.05s.463.342 1.197 3.521c.343 3.1.142 4.521.142 4.521l-3.165 1.825s1.192-2.465-.014-7.25c-2.037-1.192-2.722-1.533-2.722-1.533m-12.315 3.677l3.976-4.385 5.346 2.344-.593 5.935-5.78 1.206z"/></svg>