<svg fill="none" viewBox="0 2.86 144 138.28" xmlns="http://www.w3.org/2000/svg"><path d="M142.111 115.897c-5.666-5.151-10.645-8.815-17.857-10.932l.058-.115c2.175-4.864 4.865-10.988.457-14.194-.686-.515-3.262-1.602-4.578-2.117a77 77 0 0 0 1.545-10.073c.286-3.377.343-7.04.229-11.046a227.21 227.21 0 0 0-.515-9.158c-.172-2.346-.286-4.808-.401-7.383-.458-9.901.458-20.89 2.69-32.623l.286-1.374-.629-.286c-1.488-.572-3.205-1.373-5.151-2.232C108.229 9.842 93.062 2.974 72.229 2.86h-.687c-20.89.114-36 6.925-46.016 11.504q-2.92 1.374-5.15 2.232l-.63.286.286 1.374c2.232 11.733 3.148 22.665 2.69 32.623-.115 2.518-.286 4.98-.4 7.383-.172 2.919-.401 5.953-.516 9.157a86 86 0 0 0 .229 11.047 77 77 0 0 0 1.545 10.073c-1.316.515-3.892 1.602-4.578 2.117-4.407 3.263-1.717 9.33.457 14.194l.058.058v.057c-7.154 2.117-12.191 5.781-17.857 10.932L0 117.442h2.29c4.12-.057 8.07.057 12.305.286-2.347 4.579-3.206 10.588-3.549 13.965l-.229 2.118 1.603-1.431c11.103-9.673 23.694-11.104 26.213-11.332 11.332 15.109 30.963 19.573 33.195 20.031l.172.057.172-.057c2.232-.458 21.863-4.922 33.195-20.031 2.519.171 15.053 1.659 26.213 11.332l1.603 1.431-.229-2.118c-.343-3.32-1.202-9.329-3.548-13.965 4.178-.229 8.184-.343 12.305-.286H144z" fill="#000"/><path d="M141.539 116.526c-5.494-4.979-10.703-8.871-18.429-10.989.114-.286.286-.629.401-.916 2.117-4.75 4.635-10.416.744-13.278-.744-.515-4.293-2.003-5.037-2.289a83 83 0 0 0 1.717-10.703c.344-3.663.344-7.269.229-10.931-.229-5.724-.629-10.818-.916-16.484-.744-16.082 2.29-30.677 2.862-33.481-9.1-3.663-26.27-13.68-51.281-13.736-25.011.057-42.182 10.073-51.225 13.678.515 2.862 3.549 17.4 2.862 33.482-.286 5.723-.687 10.818-.916 16.483-.114 3.663-.114 7.326.23 10.932.343 3.606.858 7.154 1.716 10.703-.744.286-4.35 1.717-5.036 2.29-3.892 2.86-1.317 8.527.744 13.277.114.286.286.63.4.916-7.726 2.118-12.934 6.01-18.429 10.989 4.693-.057 9.043.057 13.679.343-2.633 4.293-3.72 10.588-4.12 14.824 12.705-10.989 27.128-11.504 27.128-11.504 11.16 15.224 31.192 19.688 32.91 20.032 1.773-.344 21.805-4.808 32.909-20.032 0 0 14.423.515 27.186 11.561-.401-4.235-1.489-10.531-4.121-14.823 4.693-.286 9.1-.401 13.793-.344" fill="#fff"/><path d="M112.808 114.752l.343-.114c.687 0 .515 0 .916-.115.572-.114 1.889-.458 2.175-2.232.114-.859.114-1.431.114-1.431v-.057l-.343-1.775a9.016 9.016 0 0 0 2.747-1.087c3.548.229 9.1 2.404 13.393 5.38-4.236.115-7.327 0-10.188 1.145 2.461 2.232 2.346 4.807 4.235 9.157-5.552-3.491-10.874-5.437-16.769-6.067-2.29-.286-5.438-.686-6.525-1.144.401-.573 2.003-2.461 2.404-3.034 1.545.229 5.323 1.374 7.498 1.374" fill="#135a37"/><path d="M107.771 111.203c.172-.229.287-.515.458-.744.458-.801.859-1.545 1.317-2.404l4.578 1.202c-.057 0-.057.057-.114.057.057 0 .114 0 .171-.057l.458.114.344 1.603c0 .115.057.744-.058 1.374-.114.687-.229 1.431-.572 1.545-.343.057-.973.115-1.545.115-1.889 0-4.521-.573-6.238-.859.343-.572.801-1.316 1.201-1.946" fill="#135a37"/><path d="M102.105 115.897c1.202.171 4.293.572 6.696.915 5.953.916 11.39 2.347 16.941 5.838-1.316-3.262-2.575-6.067-4.692-8.757 2.747-.515 5.436-.915 9.672-1.03-4.293-2.862-8.871-4.064-12.133-4.407 0 0-.973.229-2.576.572l.343 1.775v.057c0 .057.115.858 0 1.717-.286 1.774-1.259 2.232-1.831 2.404-.401.114-.916.114-1.603.114-2.118 0-5.323-.572-6.868-.801.172-.229.172-.458.286-.687.115-.229.458-.4.573-.629 1.602.286 4.178.686 5.895.686.515 0 .973-.057 1.259-.114.343-.057.515-.401.343-.687-.286-.515.401-1.66.344-1.774l-.286-1.546-.401-.114h-.057l-4.35-1.145.343-.687.343-.686 5.381 1.43.057.287c.515-.287 1.202-.687 1.66-1.145l.458-.458.687.057c9.385.916 16.655 7.098 16.655 7.098s-6.583.114-11.39.915c4.006 6.696 4.693 11.447 4.693 11.447l-3.835-2.404c-5.322-3.148-9.615-4.693-15.567-5.666a677 677 0 0 0-7.669-1.202c.4-.4.343-.915.629-1.373" fill="#000"/><path d="M30.85 114.752l-.344-.114c-.687 0-.515 0-.973-.115-.573-.114-1.889-.458-2.175-2.232-.114-.859-.114-1.431-.114-1.431v-.057l.343-1.775a9.002 9.002 0 0 1-2.747-1.087c-3.549.229-9.1 2.404-13.393 5.38 4.235.115 7.326 0 10.188 1.145-2.462 2.232-2.347 4.807-4.236 9.157 5.552-3.491 10.875-5.437 16.77-6.067 2.289-.286 5.437-.686 6.525-1.144-.401-.573-2.004-2.461-2.404-3.034-1.488.229-5.323 1.374-7.44 1.374" fill="#135a37"/><path d="M35.886 111.203c-.172-.229-.287-.515-.458-.744a90 90 0 0 1-1.317-2.404l-4.578 1.202c.057 0 .057.057.114.057-.057 0-.114 0-.171-.057l-.458.114-.344 1.603c0 .115-.057.744.058 1.374.114.687.228 1.431.572 1.545.343.057.973.115 1.545.115 1.889 0 4.522-.573 6.181-.859-.343-.572-.801-1.316-1.144-1.946" fill="#135a37"/><path d="M41.494 115.897c-1.202.171-4.293.572-6.697.915-5.952.916-11.39 2.347-16.941 5.838 1.316-3.262 2.575-6.067 4.693-8.757-2.747-.515-5.437-.915-9.672-1.03 4.292-2.862 8.87-4.064 12.133-4.407 0 0 .973.229 2.576.572l-.344 1.775v.057c0 .057-.114.858 0 1.717.287 1.774 1.26 2.232 1.832 2.404.4.114.916.114 1.602.114 2.118 0 5.323-.572 6.869-.801-.172-.229-.172-.458-.287-.687s-.458-.4-.572-.629c-1.603.286-4.178.686-5.895.686-.515 0-.973-.057-1.26-.114-.343-.057-.514-.401-.343-.687.287-.515-.4-1.66-.343-1.774l.286-1.546.4-.114h.058l4.35-1.145-.344-.687-.343-.686-5.38 1.43-.057.287c-.515-.287-1.202-.687-1.66-1.145l-.458-.458-.687.057c-9.386.916-16.655 7.098-16.655 7.098s6.582.114 11.39.915c-4.007 6.696-4.693 11.447-4.693 11.447l3.834-2.404c5.323-3.148 9.616-4.693 15.568-5.666 2.117-.343 5.723-.916 7.669-1.202-.4-.4-.343-.915-.63-1.373" fill="#000"/><path clip-rule="evenodd" d="M119.619 18.542c-.115.63-.229 1.316-.344 1.946s-.229 1.259-.286 1.889c-.114.63-.172 1.259-.286 1.831-.057.63-.172 1.202-.229 1.774s-.172 1.202-.229 1.774c-3.892 32.223 4.236 40.923-3.663 67.422-.115.458-.286.973-.458 1.43-.172.459-.286.974-.458 1.489s-.343.973-.515 1.488l-.515 1.03c-.172.344-.343.687-.458 1.03-.172.344-.343.687-.458 1.031-.171.343-.343.686-.458.973-.171.343-.343.629-.457.972-.172.344-.344.63-.458.973-6.238 12.363-12.363 19.975-22.092 25.527-.23.114-.515.286-.744.4-.23.115-.515.286-.744.401-.286.114-.515.286-.802.4-.286.115-.515.287-.801.401s-.515.286-.801.401c-.286.114-.573.286-.801.4-.287.115-.573.229-.859.401-.286.115-.572.229-.859.401l-.858.343c-.286.115-.572.229-.916.344-.286.114-.63.229-.916.343-2.46.973-4.35 1.832-7.211 2.69-3.262-.973-5.437-2.003-8.127-3.033a16 16 0 0 0-.916-.344l-.859-.343c-.286-.115-.572-.229-.858-.401a6 6 0 0 1-.859-.401c-.286-.114-.572-.286-.858-.4s-.572-.286-.801-.401c-.286-.114-.515-.286-.802-.401-.286-.114-.515-.286-.8-.4-.287-.115-.516-.286-.745-.401-.229-.114-.515-.286-.744-.4-.229-.172-.515-.287-.744-.458s-.458-.287-.744-.458c-.229-.172-.458-.287-.687-.458s-.458-.286-.686-.458c-.23-.172-.458-.286-.687-.458s-.458-.343-.687-.458l-.687-.515c-.229-.172-.458-.343-.63-.515-.228-.172-.457-.343-.63-.515-5.952-4.807-10.473-10.932-14.937-19.459a7 7 0 0 1-.458-.916 7 7 0 0 1-.458-.916c-.172-.343-.343-.629-.458-.973-.171-.343-.343-.629-.458-.973a14 14 0 0 1-.457-.973c-.172-.343-.344-.686-.458-1.03-.172-.343-.344-.687-.458-1.03l-.515-1.03c-.172-.515-.344-1.03-.515-1.488-.172-.516-.344-.973-.458-1.489-.172-.457-.286-.973-.458-1.43-7.898-26.5.229-35.2-3.663-67.422-.057-.572-.114-1.144-.229-1.774-.057-.572-.172-1.202-.229-1.774-.057-.63-.172-1.202-.286-1.832s-.172-1.259-.286-1.888c-.115-.63-.23-1.26-.344-1.946h.172c1.831-.63 6.353-3.091 7.898-3.778h.058c13.278-6.01 26.499-8.928 39.663-8.871 13.163-.057 26.384 2.862 39.662 8.871h.058c1.602.687 6.066 3.148 7.898 3.778h.115z" fill="#135a37" fill-rule="evenodd"/><path d="M110.404 92.26c0-.287.057-.63.057-.917-11.504-3.262-24.668-5.094-38.69-5.094s-27.185 1.832-38.69 5.094c0 .286.058.63.058.916h-.058c.23 4.12.973 8.642 2.862 14.194l.343 1.03c.115.343.23.687.401 1.087.114.344.286.744.4 1.088.115.229.287.515.401.744s.286.515.401.744c.114.229.286.515.4.744s.287.458.401.744c.115.229.286.458.4.687s.287.458.401.687.287.458.401.687c.115.228.286.457.4.686 3.664 6.182 7.384 10.646 12.249 14.08l.515.343.515.343c.172.115.343.229.572.344.172.114.344.229.572.343.172.115.401.229.573.344s.4.229.572.343.401.229.573.344.4.229.572.343.4.229.63.286c.229.115.4.229.63.286.228.115.4.229.629.287.229.114.4.171.63.286.228.114.457.171.629.286.229.114.458.172.687.286.229.115.458.172.687.286.229.115.457.172.687.286.228.115.457.172.686.287s.458.171.744.286c.229.114.515.172.744.286 2.232.801 4.636 1.488 7.326 2.232 2.347-.629 4.579-1.259 6.582-1.946.229-.114.515-.171.744-.286s.515-.172.744-.286c.229-.115.458-.172.744-.286.229-.115.458-.172.687-.287s.458-.171.687-.286.458-.171.686-.286c.23-.114.459-.172.687-.286.23-.115.458-.172.63-.286.229-.115.458-.172.63-.286.228-.115.4-.229.63-.287.228-.114.4-.229.628-.286 7.956-4.064 13.05-9.558 18.144-18.486.114-.229.286-.458.4-.687s.286-.458.401-.687c.114-.229.286-.458.4-.744.115-.229.287-.515.401-.744s.286-.515.401-.744c.114-.229.286-.515.4-.744.115-.344.286-.744.401-1.088.114-.343.286-.686.401-1.087l.343-1.03c1.889-5.552 2.69-10.073 2.919-14.194q.085 0 0 0" fill="#fff"/><path clip-rule="evenodd" d="M23.237 18.542c7.154 42.01-4.694 48.477 6.41 81.1 10.416 22.722 19.116 31.708 42.181 38.575-18.887-8.87-31.88-21.977-37.832-39.891-7.612-23.008 4.407-59.58-1.488-83.733-1.774.687-7.612 3.491-9.271 3.949" fill="#000" fill-rule="evenodd"/><path clip-rule="evenodd" d="M120.363 18.542c-7.155 42.01 4.693 48.477-6.41 81.1-10.417 22.722-19.117 31.708-42.181 38.575 18.886-8.87 31.879-21.977 37.831-39.891 7.612-23.008-4.407-59.58 1.488-83.733 1.774.687 7.612 3.491 9.272 3.949" fill="#000" fill-rule="evenodd"/><path d="M66.677 135.642c1.603.859 3.091 1.775 5.094 2.576 2.003-.801 3.549-1.717 5.094-2.576l-5.094-5.094z" fill="#135a37"/><path d="M32.338 92.602c0-.114-1.603-8.871-1.775-18.83-.114-6.581.687-15.396 1.488-23.923.458-4.98.973-10.188 1.202-14.652.687-12.02-.858-21.52-.858-21.577l2.232-.344c.057.401 1.602 9.787.858 22.093-.286 4.521-.744 9.73-1.202 14.766-.8 8.47-1.602 17.227-1.488 23.694.23 9.788 1.775 18.43 1.775 18.487zm78.925 0c0-.114 1.602-8.871 1.774-18.83.114-6.581-.687-15.396-1.488-23.923-.458-4.98-.973-10.188-1.202-14.652-.687-12.02.858-21.52.858-21.577l-2.232-.344c-.057.401-1.603 9.787-.859 22.093.287 4.521.745 9.73 1.202 14.766.802 8.47 1.603 17.227 1.489 23.694-.229 9.788-1.775 18.43-1.775 18.487z" fill="#fff"/><path clip-rule="evenodd" d="M109.946 92.545l-8.298 8.127 3.892 3.778a90.5 90.5 0 0 0 4.406-11.905" fill="#4a7c4d" fill-rule="evenodd"/><path clip-rule="evenodd" d="M105.54 104.45l-3.892-3.778 8.298-8.127a90.5 90.5 0 0 1-4.406 11.905" fill="#4a7c4d" fill-rule="evenodd"/><path clip-rule="evenodd" d="M32.91 90.485l.858-.63v3.262l-.859.63z" fill="#000" fill-rule="evenodd"/><path clip-rule="evenodd" d="M81.73 120.59l-9.901 9.901-9.959-9.901 9.959-9.902zm0-19.803l-9.901 9.901-9.959-9.901 9.959-9.959z" fill="#135a37" fill-rule="evenodd"/><path d="M55.631 126.885l6.296-6.295-9.901-9.902-6.125 6.067c2.805 3.663 5.667 6.582 9.73 10.13m32.394 0l-6.295-6.295 9.901-9.902 6.067 6.067c-2.805 3.663-5.666 6.582-9.673 10.13" fill="#135a37"/><path clip-rule="evenodd" d="M61.87 100.787l-9.902 9.901-10.473-8.928L51.28 90.6zm39.663 0l-9.902 9.901-9.901-9.901 9.901-9.959z" fill="#135a37" fill-rule="evenodd"/><path d="M29.533 109.372s.057.057.114.057c-.057 0-.114 0-.114-.057" fill="#135a37"/><path d="M75.034 123.737c-.745.802-1.946 1.259-3.205 1.259-1.317 0-2.461-.457-3.205-1.201-.687-.687-.973-1.603-.916-2.747.057-1.031.515-2.461 1.145-3.492l.17-.286-.514-.229.4-.515 1.203.687-.057.229c-.287.744-.745 2.175-.86 3.033-.056.515-.056.916.173 1.488.629 1.603 2.003 1.66 2.518 1.66 1.202-.057 2.003-.63 2.46-1.717.172-.515.172-.973.172-1.431-.057-.858-.572-2.289-.858-3.033l-.114-.229 1.201-.687.401.515-.515.229.172.286c.63 1.031 1.087 2.461 1.144 3.492 0 1.087-.286 2.003-.915 2.689m.915-5.837l-.114-.229.63-.286-1.431-2.003-2.576 1.43.229.516c.229.572.916 2.289.973 3.204 0 .401.057.744-.114 1.088-.401.973-1.145 1.144-1.66 1.144-.63-.057-1.316-.171-1.66-1.087-.114-.401-.114-.687-.114-1.087.057-1.03.858-2.976.973-3.205l.171-.515-2.575-1.431-1.431 2.003.572.286-.114.229c-.458 1.03-.801 2.175-.859 3.091-.057.686.058 1.373.229 1.945s.515 1.031.916 1.431c.916.973 2.29 1.488 3.835 1.488a5.9 5.9 0 0 0 2.003-.343c.744-.286 1.316-.63 1.831-1.145.4-.4.687-.916.916-1.431.23-.572.286-1.259.286-1.945a9.4 9.4 0 0 0-.916-3.148" fill="#000"/><path d="M74.633 123.394c-.63.687-1.66 1.087-2.805 1.087-1.144 0-2.174-.4-2.804-1.03-.572-.572-.801-1.373-.744-2.346.057-.916.4-2.061.916-3.033-.23.744-.515 1.659-.572 2.346-.058.572-.058 1.087.171 1.717.744 1.946 2.461 2.003 3.033 2.06 1.431-.057 2.461-.744 2.977-2.06.228-.63.228-1.145.171-1.66-.057-.629-.286-1.545-.572-2.289.515.916.858 2.118.916 2.976.114.859-.172 1.603-.687 2.232m-.115-5.723l-.343-.515.515-.229-.057-.057-.801.458c.286.744.801 2.174.858 3.09.057.458.057.973-.172 1.545q-.687 1.803-2.747 1.889c-.515 0-2.117-.115-2.804-1.889-.23-.572-.23-1.03-.172-1.602.057-.916.573-2.347.859-3.091l-.802-.458-.057.058.515.229-.343.515c-.63 1.03-1.03 2.346-1.088 3.376-.057 1.088.23 1.946.802 2.576.687.744 1.774 1.144 3.033 1.144 1.202 0 2.29-.457 2.976-1.144.63-.63.859-1.488.859-2.518.057-1.031-.4-2.404-1.03-3.377" fill="#000"/><path d="M74.805 123.566c-.687.744-1.832 1.144-2.977 1.144-1.202 0-2.346-.4-3.033-1.144-.63-.63-.859-1.488-.801-2.576.057-1.03.515-2.346 1.087-3.377l.344-.515-.516-.229.058-.057.8.458c-.285.744-.8 2.175-.858 3.09-.057.573-.057.973.172 1.603.687 1.774 2.232 1.832 2.805 1.889q1.974-.086 2.747-1.889c.229-.572.172-1.087.172-1.545-.058-.916-.573-2.347-.86-3.091l.802-.458.058.058-.516.229.344.515c.63 1.03 1.03 2.346 1.087 3.376 0 1.031-.286 1.889-.915 2.519m-.058-6.067l-.171-.286.515-.229-.401-.515-1.202.687.115.228c.286.744.8 2.175.858 3.034 0 .458.058.915-.171 1.431-.458 1.087-1.26 1.659-2.462 1.717-.515 0-1.888-.058-2.518-1.66-.172-.515-.172-.916-.172-1.488.058-.859.573-2.29.859-3.034l.057-.228-1.202-.687-.4.515.515.229-.172.286c-.63 1.03-1.088 2.461-1.145 3.491-.057 1.145.23 2.061.916 2.747.744.802 1.889 1.202 3.205 1.202 1.259 0 2.46-.458 3.205-1.259.687-.687.973-1.602.916-2.747 0-.973-.515-2.404-1.145-3.434" fill="#000"/><path d="M76.521 122.879c-.171.572-.515 1.03-.915 1.431-.458.515-1.088.915-1.832 1.144a5.9 5.9 0 0 1-2.003.344c-1.545 0-2.919-.515-3.835-1.488-.4-.401-.686-.916-.915-1.431-.23-.573-.287-1.259-.23-1.946.058-.916.344-2.06.86-3.091l.114-.228-.573-.287 1.431-2.003 2.576 1.431-.172.515c-.114.229-.858 2.232-.973 3.205-.057.458-.057.687.115 1.087.343.916 1.03 1.088 1.659 1.088.516-.057 1.26-.172 1.66-1.145.115-.343.115-.687.115-1.087-.058-.916-.744-2.633-.973-3.205l-.23-.515 2.576-1.431 1.43 2.003-.629.286.115.229c.458 1.03.801 2.175.858 3.091.058.801 0 1.43-.229 2.003m-.343-5.094l.63-.286-1.718-2.518-3.033 1.66.287.744c.286.686.858 2.346.915 3.09 0 .401 0 .687-.057.973-.343.801-.916.916-1.431.973-.63-.057-1.145-.229-1.431-.916-.114-.343-.114-.572-.114-.973.057-.801.629-2.346.916-3.147l.286-.687-2.977-1.66-1.774 2.461.63.286a8.7 8.7 0 0 0-.859 3.205 4.9 4.9 0 0 0 .286 2.06c.23.573.516 1.088.973 1.546.973 1.03 2.404 1.602 4.064 1.602.744 0 1.43-.114 2.118-.343.744-.286 1.43-.687 1.946-1.202.4-.458.744-.973.973-1.545.228-.63.286-1.317.286-2.061-.057-1.087-.4-2.232-.916-3.262" fill="#000"/><path d="M76.178 120.99c-.057-1.202-.572-2.632-1.202-3.663l.515-.228-.744-.974-1.66.916s.916 2.232.973 3.377c.058.515.058.858-.114 1.316-.515 1.374-1.66 1.488-2.232 1.488s-1.717-.114-2.232-1.488c-.172-.458-.172-.858-.115-1.316.115-1.145.973-3.377.973-3.377l-1.545-.916-.744.974.515.228c-.63 1.031-1.145 2.461-1.202 3.663-.172 3.091 2.232 4.293 4.407 4.293 2.118 0 4.579-1.202 4.407-4.293" fill="#fff"/><path d="M68.852 119.159l-.343-.115s.115-.343.229-.572c.057-.172.171-.343.229-.515l-.687-.343.172-.344.973.458-.057.172s-.172.4-.287.687a5.43 5.43 0 0 0-.229.572m-.572 2.633s-.058-.229-.058-.744c0-.458.058-.802.058-.802l.343.058s-.057.343-.057.744c0 .458.057.629.057.629zm3.548 2.689c-.229 0-.858-.057-1.602-.343-.802-.343-1.374-1.088-1.374-1.145l.286-.229s.515.687 1.202 1.031c.801.343 1.545.343 1.545.343v.343zm2.919-5.322l.343-.115s-.114-.343-.229-.572c-.057-.172-.171-.343-.229-.515l.687-.343-.172-.344-.972.458.057.172s.171.4.286.687c.114.228.23.572.23.572m.572 2.632l-.344-.057s.057-.229.057-.629c0-.401-.057-.744-.057-.744l.344-.058s.057.344.057.802c0 .457-.057.686-.057.686" fill="#000"/><path d="M71.771 124.481h-.114v-.343s.744.057 1.545-.343c.687-.287 1.202-1.031 1.202-1.031l.286.229c0 .057-.572.802-1.373 1.145a3.98 3.98 0 0 1-1.546.343" fill="#000"/><path clip-rule="evenodd" d="M103.077 72.685c-.629-1.374-1.946-3.892-2.346-7.497v-.23c-.057-.571-.229-1.03-.573-1.373s-.8-.572-1.373-.515h-.057c-1.088 0-2.06-.858-2.576-1.545-.515-.687-.858-1.774-.572-2.633.63-1.603.859-3.034.63-4.407a7.1 7.1 0 0 0-1.088-2.747c2.232-.572 3.835-1.488 4.865-2.576 1.087-1.201 1.431-2.575 1.144-4.12 0-.115-.114-.458-.114-.458-.744-2.06-2.575-2.805-4.75-3.091-1.946-.229-4.35 0-6.582.458-1.088-1.26-2.461-1.546-3.835-1.774-1.316-.172-2.804-.401-3.148-2.004 0 0-.114-.629 0-1.545-.458.343-1.03 1.316-1.03 1.316-.744 1.374-.801 2.69-.572 3.663.229 1.03.687 1.889 1.43 2.519.745.572 1.66.973 2.748 1.03 1.259.057 2.69-.23 4.235-.973l.515-.057c2.576-.401 7.269-1.03 8.127 1.374.344.972-.457 2.174-1.087 2.575-.63.4-1.545.63-2.461.63-.572 0-1.144-.058-1.774-.115-1.374-.23-2.69-.63-3.72-.973-1.26-.4-1.946-.572-2.977-.687-2.976-.4-5.723-.286-8.585-.114-3.09.114-6.238.286-9.272-.344a21 21 0 0 1-1.602-.801c-2.69-1.373-5.437-2.804-9.73.172-2.69.572-5.208 1.946-7.555 4.407-2.347 2.46-4.464 6.01-6.295 10.817-.458.859-.744 1.717-.744 2.46 0 .63.171 1.26.572 1.775-1.03 1.03-2.175 1.889-3.377 2.69l-2.232 1.545c1.889-.114 3.835-.114 5.666-.744a11.53 11.53 0 0 0 2.232-1.087c.401.4.687.858.973 1.26.515.858 1.832 3.433 2.518 3.547.744.344 2.633-1.144 2.805-1.316a20 20 0 0 1-2.003 2.862c-.4.4-.859 1.03-1.088 1.43-.343.63-.858 2.176-.973 2.92.172-.057-.286.458 0 .458.057.286.859-.744.973-.458 1.603-.115 4.007-1.202 4.293-.344.63-.343.858-1.774.801-2.804v-.057h.057c.23-.058.458-.23.63-.458.172-.229.286-.516.4-.916.23-.687.344-.973.63-1.603.287-.515.63-1.087.802-1.316.515.4 1.259.172 1.66.63.514.457.514.743.858 1.316.858 1.431 1.545 2.919 4.006 3.32.687.515 1.431.915 2.232 1.087 1.66.4 3.72-.172 3.72-.172l-3.148-5.208-1.144.687c.057-.4-.057-.63-.4-.916s-1.546-1.03-2.004-1.43c-.458-.344-.973-.974-1.373-1.431 0 0-.63-.63-.916-.802.744-1.145 3.09-1.316 3.662-1.373 2.69-.458 6.582-.573 7.556-.687.915-.115 1.717-.172 2.69-.057.171 0 .286.171.4.286.515.63.973 1.144 2.748.057 1.201-.572 2.174-.973 3.09-1.145q1.03-.171 2.232 0c0 .516.114.973.4 1.489.344.686.86 1.373 1.603 2.06.172.171.286.286.286.515s0 .343-.171.515L80.24 73.03l-.171.171-.058.23c-.057.4-.457.743-.915 1.144-.573.572-1.145 1.145-1.488 2.003-.344.859-.23 1.03-.23 1.03l5.724.23.23.057.4-1.717.572.572.343-1.202c.687-2.518 1.603-2.976 3.148-4.007 1.03-.686 2.232-1.201 2.919-2.117l.172-.229c.458-.687.343-1.545-.057-2.29l-.115-.171-.114-.114c1.774 1.03 3.49 1.201 4.464 1.259.572 0 1.087-.058 1.374.286 1.03 1.602 1.716 4.521 1.83 6.353-.4.343-.858 1.03-1.144 1.488-.801 1.488-.973 2.747-.973 2.747l5.437.744.916-1.545s-.343-1.774.057-1.488c.344.229.515.4.515.4l.344-.63c.687-1.83.171-2.346-.344-3.548M53.857 63.3c.858-.23 1.259.286 1.259.572-.63 1.145-1.202 2.347-1.774 3.549v.057c0-.172-.058-.343-.058-.515v-.4c.515-.916.744-1.832.687-2.69 0-.172-.057-.344-.114-.573m48.877 12.362l-.744-.171c-.401 0-.515.687-.229 1.66l-.744 1.488-3.777-.515c.343-1.26.858-2.404 1.831-3.148 0 0 .4-.458.344-.973.114-.916-1.088-4.35-2.404-6.41-.744-1.03-2.633 0-6.181-1.717-.973-.573-1.317-1.66-1.26-2.118-1.03.286-.686 1.889.516 3.434.4.572.4 1.202.057 1.774-1.66 2.346-4.98 2.003-6.182 6.41l-.858-.858-.344 1.087-1.201 1.775 1.144-.458-4.178-.172c.4-1.43 2.118-1.946 2.29-3.205l3.777-3.434c.63-.573.63-1.202-.115-2.003-1.373-1.26-2.003-2.461-1.717-3.663-2.403-.515-3.891-.115-6.467 1.144-1.831 1.145-1.488-.286-2.632-.4-2.233-.286-3.32-.401-6.754-.63-8.929-.744-9.043 2.976-8.642 3.835.114.286 1.259.286 1.83.915.917 1.088 1.66 1.89 2.691 2.347 1.087.63 1.03 1.087.343 1.488.63.458.973.458 1.546.172l.63-.4 2.117 3.72c-1.775.228-3.205-.115-4.522-1.088-3.376-.4-3.262-3.205-5.036-4.808-.515-.572-1.03-1.373-2.06-.458-.86 1.202-1.26 1.946-1.89 3.377-.171.401-.4.973-.972.63-.115 1.144-.344 2.919-.801 3.205l-3.549.229c-.057-1.03 1.202-1.946 1.488-3.263 2.576-3.262 3.892-6.696 5.895-10.301.287-.515-.457-2.29-1.03-2.461-.343.171-1.602.915-1.889 1.316.4 1.145.23 2.29-.458 3.434-.114.801 0 1.545.344 2.117l-.573.86c-.744-.23-.457-1.317-.858-2.004-.859.572.343 2.06-.172 3.033-.229.401-.744.458-1.145.63-.286.744-.915.457-1.316.801-.4-.458-.687-1.088-.916-1.889-1.03-.687-1.43-2.003-2.747-3.148-1.602 1.145-3.376 1.775-5.322 1.832 1.545-1.03 2.918-2.118 3.949-3.32-1.202-1.03-.973-2.403-.172-3.949 3.606-9.5 8.299-13.793 13.45-14.823 4.98-3.434 7.726-.687 10.874.63 5.953 1.258 11.676 1.945 17.4 2.976 1.258-.23 4.12-1.26 7.21-.802 2.061.287 4.064.115 5.21-1.087.629-.687 1.258-1.774.915-2.976-1.202-3.263-6.925-2.175-9.558-1.774-5.266 2.575-7.612-1.317-7.155-4.408.802 4.064 5.209.63 7.27 3.663 4.635-.973 9.958-1.202 11.045 2.06.801 2.862-1.373 5.553-6.524 6.525 1.774 2.004 2.289 4.407.973 7.44-.801 2.119 1.316 5.152 3.834 5.095.859-.058 1.145.572 1.26 1.488 1.373 7.211 3.834 7.955 2.861 10.244" fill="#fff" fill-rule="evenodd"/><path clip-rule="evenodd" d="M39.892 68.564c1.546-1.03 2.919-2.117 3.95-3.32-1.202-1.03-.973-2.403-.172-3.948 3.605-9.501 8.298-13.794 13.45-14.824 4.979-3.434 7.726-.687 10.874.63 5.952 1.259 12.248-.515 18.028.515 1.832.171 3.55 1.087 6.64 1.66 2.06.285 4.063.114 5.208-1.088.63-.687 1.26-1.774.916-2.976-1.202-3.262-6.926-2.175-9.558-1.774-5.266 2.575-8.47-.286-7.154-5.037.8 4.064 5.208 1.259 7.268 4.293 4.636-.973 9.959-1.202 11.046 2.06.802 2.861-1.373 5.551-6.524 6.524 1.774 2.004 2.289 4.408.973 7.44-.801 2.119 1.316 5.152 3.834 5.095.859-.057 1.145.572 1.26 1.488 1.316 6.81 3.719 8.07 3.262 10.016l-.229.687c-.286-.286-.744-.344-.744-.344-.401-.114-.515 1.202-.401 2.175l-.744 1.26-4.006-.573c.286-1.03.916-2.633 1.946-3.606 0 0-.058-.63-.058-1.202-.057-1.259-.63-4.006-2.002-6.067-.745-1.03-2.633 0-6.182-1.717-.973-.572-1.202-1.087-1.545-1.888-.4.286-.4 1.66.801 3.147.4.573.4 1.202.057 1.775-1.66 2.346-4.979 2.003-6.18 6.41l-.688-.63-.687 2.29-4.178-.23c.4-1.43 2.118-2.002 2.29-3.319l3.777-3.434c.63-.572.63-1.202-.115-2.003-1.373-1.259-2.003-2.46-1.716-3.663-2.404-.515-3.892-.114-6.468 1.145-1.831 1.144-1.488-.287-2.633-.4-2.575-.172-10.015.629-11.961.972-1.603.344-2.805 1.26-2.976 2.06.286.172.8.458 1.373 1.088.916 1.087 1.66 1.889 2.69 2.347 1.088.63 1.03 1.087.344 1.488.629.458.973.458 1.545.171l.63-.4 2.117 3.72c-1.774.229-3.205-.114-4.521-1.087-3.377-.401-3.205-2.977-4.98-4.58-.515-.457-1.144 0-2.003-.8-.859 1.201-1.374 2.117-2.003 3.548-.172.4-.4.973-.973.63-.115 1.144-.286 3.033-.744 3.377l-3.892.4c.172-.858.687-2.518 1.774-3.548 2.576-3.263 3.892-6.697 5.895-10.302.172-.401-.343-1.145-.858-1.374s-1.717-.172-2.004.229c.401 1.145.23 2.29-.457 3.434-.115.801 0 1.545.343 2.117l-.572.86c-.745-.23-.458-1.318-.859-2.004-.858.572.343 2.06-.172 3.033-.229.4-2.289 1.889-2.747 1.316-1.087-1.087-2.117-3.777-3.434-4.922a10.76 10.76 0 0 1-5.15 1.66" fill="#000" fill-rule="evenodd"/><path clip-rule="evenodd" d="M44.414 64.673c-1.088-1.603 1.888-2.29 1.602-.172-.458 1.488-1.66 2.518-4.407 3.376 2.175-1.487 3.606-2.804 3.377-3.662-.115-.515-.801-.172-.572.458m8.47-2.061c-.687-2.919-1.545-3.034-3.49-4.064 1.373.115 2.117.23 2.746.916.401.515 1.145 1.374.744 3.148m2.805-9.959c.057-1.545.172-3.834 1.145-5.208-4.636 1.202-6.983 4.007-8.986 7.154 2.46-3.033 5.38-5.093 7.498-5.608-.63 1.316.17 2.46.343 3.662" fill="#fff" fill-rule="evenodd"/><path d="M50.537 25.41l2.233 2.29-1.145 3.033c1.145 0 2.633-.172 4.064-.458.286-.057.515-.115.744-.172.515-.115.973-.229 1.373-.4h.058l1.144-.172 1.43-1.145 1.432.4c.916-1.087 1.545-1.602 2.919-2.117a9.07 9.07 0 0 1 4.464-.458l-.286-.858.686.057c.23 0 .458.057.687.057l-1.602-4.407c-.286-.057-.63-.057-1.03-.057-1.145 0-2.92.171-4.522.687-1.316.4-2.69 1.373-3.72 2.632l-.286.401-.343-.343a2.85 2.85 0 0 0-1.202-.687h-.458l-.23-.115-1.201.63c-.515.172-1.03.343-1.545.458-.23.057-.458.114-.745.171a12.164 12.164 0 0 1-2.919.573m.973 6.296h-.629l-.63-.058 1.374-3.72-3.263-3.377h1.088s1.66 0 3.778-.458l.686-.171c.515-.115.973-.286 1.431-.458l1.488-.801.458.229c.172 0 .287 0 .458.057a3.6 3.6 0 0 1 1.259.572c1.088-1.202 2.518-2.117 3.835-2.575 1.717-.573 3.605-.745 4.807-.745.515 0 .973.058 1.317.115l.4.057 2.347 6.41-1.259-.229c-.057 0-.115 0-.172-.057l.401 1.03-1.26-.229c-1.43-.286-2.918-.171-4.235.344-1.316.458-1.774.916-2.747 2.06l-.172.23-1.545-.459-1.26 1.03-1.372.172c-.401.115-.916.287-1.431.4-.286.058-.515.115-.802.173-1.545.286-3.09.457-4.35.457m11.676-.8a3 3 0 0 0-.4.171 3 3 0 0 0 .4-.172" fill="#fff"/><path d="M59.122 25.467c.058.115.115.23.229.344-.057-.172-.114-.287-.229-.344" fill="#000"/><path d="M62.843 22.033c-.458.172-.858.4-1.202.572-.4.23-.686.4-.915.573l1.316.572zm1.545 4.808l-1.488-.515-.801 1.66a.7.7 0 0 0 .344.056h.057c.172 0 .343-.057.458-.114h.057c.114-.057.172-.057.286-.114h.057c-.057-.344.573-.573.916-.744.114-.058.172 0 .286-.058h.057zm-1.545-4.808l1.774.801.859-1.774c-.573.172-1.145.4-1.717.572-.23.115-.458.172-.687.287a.43.43 0 0 0-.229.114m3.033 1.26l-1.259-.516-.858 1.774 1.774.802.515-1.088-.458-.229zm-1.202 3.605c.058-.057.172-.057.23-.115.114-.057.171-.114.286-.114.171-.115.4-.057.572-.115.23-.114.515-.057.687-.114.229-.114.686-.114.858-.172l-1.717-.973zm-.915-2.347l-1.774-.801-.86 1.774 1.776.802zm-1.145 3.205l-1.43-3.949-.115-.515c.916-1.087 2.232-1.488 3.548-2.003 1.317-.515 2.69-.63 4.007-.344h.114l1.603 5.094-.4-.057c2.346.458-4.122.63-3.779.515 1.203-.458-2.289.63-3.319 1.317z" fill="#fff"/><path d="M59.638 24.494l1.66 4.579a8.9 8.9 0 0 1 3.548-2.404 8.4 8.4 0 0 1 4.293-.458l-1.66-4.578c-1.431-.23-2.919-.115-4.293.4-1.373.515-2.575 1.374-3.548 2.461m1.488 5.666l-2.118-5.78.115-.115c1.03-1.259 2.346-2.232 3.834-2.747 1.546-.572 3.148-.687 4.75-.4l.173.057 2.117 5.78-.457-.114a8.47 8.47 0 0 0-4.465.343 8.2 8.2 0 0 0-3.606 2.576z" fill="#000"/><path d="M56.947 27.241c-.744-1.316-.744-2.346 0-2.804.573-.344 1.603-.058 2.404 1.316.802 1.374.515 2.404-.057 2.747-.801.458-1.603 0-2.347-1.259m10.13 5.151c.116-.343 0-.572-.056-.744-.172-.343-.572-.515-1.088-.515h-.171L62.9 26.554v-.057c-.286-1.373-1.26-3.434-2.003-4.922-.172-.286-.287-.63-.458-.916-.859-1.774-1.717-3.376-2.29-5.15-.057-.115 0-.344.057-.687.115-.401.172-.859 0-1.26l-.057-.057c-.572-.973-2.175-.916-4.063.115-1.603.858-3.205 2.346-2.518 3.72v.057c.343.572.858.744 1.259.859.114.057.229.057.343.114h.057l.458.515c.859.973 1.603 1.774 2.29 2.576l.228.229-.343.171c-2.003 1.145-2.346 3.72-.801 6.353s3.892 3.606 5.952 2.461c.286-.171.572-.343.801-.572l.287-.229.171.286c.515.916.859 1.603 1.145 2.118l.057.172-.114.114c-.286.458-.344.858-.115 1.202.4.63 1.431.687 2.576 0 .63-.343 1.145-.916 1.259-1.374" fill="#fff"/><path d="M57.062 23.235l3.262 1.546.86 3.777-1.776 1.43-1.716.23-3.034-4.98.802-1.144z" fill="#000"/><path d="M65.36 32.564c-.228.172-.4.229-.4.229-.057-.229-.057-.458 0-.572-.229-.458-1.946-3.606-1.946-3.606s-.057-.057 0-.115h.057l2.175 3.492c.115 0 .344.057.516.171-.058.115-.115.23-.401.401m-3.376-5.208s-.115-.916-.801-2.232c0 0-4.636-8.356-5.094-9.215s.286-1.26-1.03-1.488c.63-.343 1.602-.63 2.003-.515.229.057-.057.515-.115.744-.172.4-.172.744.115 1.373 0 .058.057.115.057.172 1.431 3.205 3.262 6.41 4.35 8.7.515 1.202.63 1.946.515 2.46m-2.404 1.602c-.916.515-2.06.344-3.09-1.43-1.03-1.832-.687-3.034.228-3.55.916-.514 2.232-.056 3.148 1.546.916 1.546.573 2.92-.286 3.434m6.983 2.92c-.115-.23-.515-.287-1.03-.172l-3.148-4.98c-.172-1.316-1.26-3.491-2.004-4.98-1.03-2.06-2.06-4.005-2.747-6.18-.172-.63.343-1.374.057-1.832-.858-1.602-6.581 1.431-5.666 3.262.344.63 1.145.516 1.546.859 1.488 1.66 4.922 5.78 4.922 5.78l-1.889-1.602a3.6 3.6 0 0 0-.515.229c-1.774 1.03-1.946 3.262-.63 5.609 1.374 2.346 3.377 3.262 5.151 2.29 1.26-.745 1.66-1.832 1.66-1.832.172.343 0 .915 0 .915.515.973 1.374 2.462 1.774 3.206-.343.343-.572.744-.4.972.229.344 1.03.287 1.774-.171.859-.344 1.316-1.03 1.145-1.374" fill="#000"/><path d="M59.295 28.901c.057 0 .057-.057 0 0 .572-.458.916-1.373.343-2.804-.458-1.317-1.26-1.946-1.946-2.06h-.057a.8.8 0 0 0-.515 0h-.057l-.344.171h-.057c-.343.172-.744.286-1.087.4-.516.172-.973.287-1.431.401l-.687.172a19.86 19.86 0 0 1-2.118.343l1.374 2.462-.515 2.575a31 31 0 0 0 3.148-.343c.229-.058.515-.115.744-.172.572-.114 1.144-.286 1.66-.4.743-.287 1.316-.516 1.545-.745" fill="#fff"/><path d="M56.147 27.07l2.117 1.087 1.145-1.831-2.06-1.088zm-.859-2.747c-.115.057-.172.057-.286.114-.115.058-.229.058-.344.115-.229.057-.458.172-.629.229-.229.057-.515.171-.744.229a4.2 4.2 0 0 0-.802.229l1.546.8zm-.458 4.636l1.316-1.89-2.06-1.087-1.316 2.004zm1.946 1.144l-1.889-1.145-1.03 1.775a28.471 28.471 0 0 0 2.117-.458c.23 0 .516-.115.802-.172.114-.057.229-.057.343-.114zm-1.488-5.78l2.06.915.973-1.43c-.172-.058-.114-.058-.286-.115 0 0-.458.286-.344 0 .058-.229-.114-.172-.343-.229h-.114c-.172.057-.23 0-.344.115h-.057c-.4.171-.801.4-1.26.515-.056.114-.17.171-.285.229m1.832 5.666c.572-.172 1.03-.344 1.488-.458q.686-.258 1.202-.515l-1.546-.801z" fill="#135a37"/><path d="M60.267 26.727c0-.23 0-.172-.057-.458h-.114c-.058-.115 0-.172-.058-.287 0 0-.114-.171-.114-.229l-.057-.114c-.057-.172-.115-.057-.172-.172l-.343.859z" fill="#135a37"/><path d="M59.352 28.844c-.115.171-.286.229-.515.343-.286.115-.63.286-1.03.4-.401.115-.86.23-1.317.344-.114 0-.229.057-.286.057-.23.058-.458.115-.744.172-.63.115-1.26.172-1.832.286-.458.058-.915.058-1.316.115l1.03-2.805-1.889-2.232c.401-.057.916-.114 1.431-.229.23-.057.458-.057.687-.114l.687-.172c.172-.057.343-.114.572-.172.115 0 .229-.057.286-.057.058 0 .172-.057.23-.057.114-.057.228-.057.343-.114.343-.115.744-.23 1.087-.401h.058a2.33 2.33 0 0 1 .915-.229h.058c.114 0 .228.057.343.114.515.23 1.03.687 1.43 1.546.058.114.115.229.172.4.058.115.115.287.115.401v.057c.057.115.057.23.057.344v.057c.057.229.057.458.057.687-.057.572-.286 1.03-.63 1.259m.973-2.92q0-.084 0 0c-.573-1.487-1.603-2.346-2.518-2.517-.287-.058-.63-.058-.916.057-.172.057-.286.114-.458.172-.744.286-1.488.572-2.232.744l-.687.171c-2.118.458-3.778.458-3.778.458l2.69 2.862-1.259 3.262c1.26.057 3.09-.114 4.75-.458.287-.057.516-.114.802-.171 1.43-.344 2.69-.802 3.09-1.26.573-.515 1.088-1.717.516-3.32" fill="#000"/><path d="M84.649 29.645l1.258.172c.401.114.86.286 1.374.4.23.058.515.115.744.172 1.431.286 2.92.458 4.064.458l-1.145-3.033 2.232-2.29a17.6 17.6 0 0 1-2.919-.458c-.229-.057-.458-.114-.744-.171-.515-.115-1.03-.286-1.545-.458h-.057l-1.145-.63-.229.115h-.458c-.4.057-.801.343-1.144.687l-.344.343-.286-.4c-1.03-1.26-2.404-2.233-3.72-2.633-1.66-.515-3.434-.687-4.522-.687-.4 0-.744 0-1.03.057l-1.603 4.407c.23-.057.458-.057.687-.057l.687-.058-.286.859c1.488-.229 3.033-.057 4.464.458 1.374.515 2.004.973 2.919 2.117l1.43-.4zm7.554 2.06c-1.202 0-2.804-.171-4.292-.457-.287-.058-.516-.115-.802-.172a10.4 10.4 0 0 1-1.43-.4l-1.374-.172-1.26-1.03-1.544.457-.172-.229c-.916-1.144-1.431-1.602-2.747-2.06a7.65 7.65 0 0 0-4.236-.343l-1.259.228.343-1.03c-.057 0-.114 0-.171.058L72 26.783l2.346-6.41.401-.057a8 8 0 0 1 1.316-.114c1.202 0 3.09.171 4.808.744 1.374.4 2.747 1.373 3.835 2.575.4-.286.8-.515 1.259-.572.171 0 .286-.058.458-.058l.457-.228 1.489.8c.457.173.972.344 1.43.459l.687.171c2.06.458 3.72.458 3.778.458h1.087l-3.262 3.377 1.373 3.72-.629.058z" fill="#fff"/><path d="M84.534 25.467c-.057.115-.114.23-.229.344.115-.172.172-.287.23-.344" fill="#000"/><path d="M81.73 23.75l1.316-.572a6.4 6.4 0 0 0-.916-.573c-.343-.171-.743-.4-1.201-.572zm-2.633 3.148h.058c.114.057.17 0 .286.057.343.172.973.4.915.744h.058c.114.057.17.057.286.115h.057c.114.057.286.114.458.114h.057c.114 0 .229 0 .343-.057l-.801-1.66-1.488.515zm1.775-4.922c-.115-.057-.172-.057-.287-.115-.229-.114-.457-.171-.686-.286-.573-.229-1.145-.4-1.718-.572l.859 1.774zm-2.805 2.003l-.458.229.515 1.087 1.775-.801-.86-1.774-1.258.515zm.114 1.316l-1.717.973c.23.058.63.115.859.172.172.057.515 0 .687.114.114.058.343 0 .572.115.115.057.172.114.286.114.058.058.172.058.229.115zm2.633 1.03l1.775-.8-.86-1.775-1.773.801zm0 1.489c-1.03-.687-4.521-1.775-3.32-1.317.287.115-6.18-.057-3.777-.515l-.4.057 1.602-5.094h.114c1.317-.286 2.69-.171 4.007.344 1.316.458 2.633.916 3.548 2.003l-.114.515-1.431 3.95z" fill="#fff"/><path d="M80.527 22.033c-1.373-.515-2.861-.63-4.292-.4l-1.66 4.578c1.431-.171 2.92-.057 4.292.458a8.9 8.9 0 0 1 3.55 2.404l1.659-4.579c-.973-1.087-2.175-1.945-3.549-2.46m1.717 7.784a8.1 8.1 0 0 0-3.605-2.575 8.47 8.47 0 0 0-4.465-.344l-.457.115 2.117-5.78.172-.058c1.602-.286 3.205-.172 4.75.4 1.488.573 2.862 1.489 3.835 2.748l.115.114-2.118 5.78z" fill="#000"/><path d="M84.42 28.5c-.572-.343-.859-1.316-.057-2.747.8-1.373 1.83-1.66 2.403-1.316.802.458.802 1.488 0 2.804-.744 1.26-1.545 1.717-2.346 1.26m-6.468 5.323c1.145.63 2.175.63 2.519 0 .171-.343.171-.744-.115-1.202l-.114-.114.057-.172c.286-.515.687-1.202 1.145-2.117l.171-.287.23.23c.228.228.515.4.8.572 2.004 1.144 4.408.171 5.953-2.461 1.545-2.633 1.202-5.209-.801-6.353l-.344-.172.23-.229a69 69 0 0 1 2.288-2.576l.458-.515h.058c.114-.057.228-.057.343-.114.4-.114.973-.286 1.26-.859v-.057c.686-1.373-.917-2.861-2.52-3.72-1.945-1.03-3.547-1.087-4.062-.114l-.058.057c-.23.4-.114.858 0 1.259.057.343.115.515.057.687-.572 1.774-1.43 3.434-2.29 5.15-.171.287-.285.63-.457.916-.744 1.489-1.774 3.549-2.003 4.923v.057l-2.862 4.579h-.172c-.515 0-.858.171-1.087.515-.115.171-.172.4-.057.744.171.4.686.973 1.373 1.373" fill="#fff"/><path d="M86.652 23.235l-3.263 1.546-.858 3.777 1.774 1.43 1.717.23 3.034-4.98-.801-1.144z" fill="#000"/><path d="M77.952 32.278c.115-.114.401-.172.515-.172l2.175-3.49s0-.058.057 0c.058 0 0 .114 0 .114s-1.717 3.147-1.946 3.605c0 .115.058.286 0 .573 0 0-.171-.058-.4-.23zm4.35-7.383c1.087-2.29 2.919-5.494 4.35-8.7 0-.057.057-.114.057-.171.286-.63.286-.973.115-1.374-.115-.229-.401-.687-.115-.744.4-.114 1.374.172 2.003.515-1.316.23-.572.63-1.03 1.488-.458.859-5.094 9.215-5.094 9.215-.687 1.316-.801 2.232-.801 2.232-.172-.515-.057-1.26.515-2.461m1.545.572c.916-1.602 2.233-2.06 3.148-1.545.916.515 1.26 1.717.229 3.549s-2.175 2.003-3.09 1.43c-.916-.458-1.202-1.831-.287-3.434m-5.609 7.898c.801.458 1.603.516 1.775.172.114-.229-.058-.63-.4-.973.4-.744 1.201-2.232 1.773-3.205 0 0-.172-.572 0-.916 0 0 .401 1.088 1.66 1.832 1.774 1.03 3.835.057 5.15-2.29 1.375-2.346 1.146-4.578-.628-5.608-.23-.115-.287-.172-.515-.23l-1.89 1.603s3.435-4.12 4.923-5.78c.458-.344 1.202-.23 1.545-.859.916-1.831-4.807-4.865-5.666-3.262-.23.458.286 1.202.057 1.831-.686 2.175-1.774 4.121-2.747 6.182-.744 1.488-1.832 3.663-2.003 4.979l-3.148 4.98c-.458-.115-.859-.058-1.03.17-.115.23.343.917 1.144 1.374" fill="#000"/><path d="M84.362 28.901c-.572-.458-.915-1.373-.343-2.804.515-1.317 1.26-1.946 1.946-2.06h.057a.8.8 0 0 1 .515 0h.057l.344.171h.057c.343.172.744.286 1.087.4.515.172.973.287 1.431.401l.687.172a19.82 19.82 0 0 0 2.118.343l-1.374 2.462.515 2.575a31 31 0 0 1-3.148-.343c-.229-.058-.515-.115-.744-.172-.572-.114-1.144-.286-1.66-.4-.743-.287-1.259-.516-1.545-.745" fill="#fff"/><path d="M87.568 27.07l-2.118 1.087-1.145-1.831 2.06-1.088zm.858-2.747c.114.057.171.057.286.114.114.058.23.058.343.115.23.057.458.172.63.229.229.057.515.171.744.229.286.057.515.114.801.229l-1.545.8z" fill="#135a37"/><path d="M88.826 28.959l-1.259-1.89 2.061-1.087 1.316 2.004z" fill="#135a37"/><path d="M86.938 30.103l1.889-1.145 1.03 1.775a28 28 0 0 1-2.118-.458c-.228 0-.515-.115-.801-.172-.114-.057-.229-.057-.343-.114zm1.488-5.78l-2.06.915-.973-1.43c.171-.058.114-.058.286-.115 0 0 .458.286.343 0-.057-.229.115-.172.343-.229h.115c.172.057.23 0 .343.115h.058c.4.171.801.4 1.26.515.056.114.17.171.285.229m-1.831 5.666c-.572-.172-1.03-.344-1.488-.458a13 13 0 0 1-1.202-.515l1.546-.801zm-3.148-3.262c0-.23 0-.172.057-.458h.114c.058-.115 0-.172.058-.287 0 0 .114-.171.114-.229l.057-.114c.058-.172.115-.057.172-.172l.343.859z" fill="#135a37"/><path d="M83.732 27.585c0-.229 0-.4.057-.687v-.057c0-.115.058-.229.058-.344v-.057c.057-.114.057-.229.114-.4.057-.115.115-.287.172-.401.4-.858.916-1.316 1.431-1.545.114-.058.229-.115.343-.115h.057c.172-.057.573.058.916.23h.057c.344.17.745.285 1.088.4.114.057.229.057.343.114.058 0 .172.058.23.058.114 0 .17.057.286.057.171.057.343.114.572.171l.687.172c.229.057.458.115.687.115.515.114 1.03.171 1.43.229l-1.888 2.232 1.03 2.804c-.401 0-.859-.057-1.317-.114a18 18 0 0 1-1.831-.287c-.23-.057-.515-.114-.744-.171-.115 0-.23-.057-.286-.057-.458-.115-.916-.23-1.317-.344a6.5 6.5 0 0 1-1.03-.4c-.229-.115-.4-.23-.458-.344l-.057-.057c-.344-.172-.573-.63-.63-1.202m.172 1.717c.458.458 1.66.916 3.09 1.26.23.056.516.114.802.17 1.66.344 3.491.516 4.75.459l-1.259-3.263 2.69-2.861s-1.66 0-3.777-.458l-.687-.172c-.744-.172-1.488-.4-2.232-.744-.172-.057-.286-.114-.458-.172-.286-.057-.63-.114-.916-.057-.916.172-1.946 1.03-2.46 2.461v.057c-.63 1.546-.115 2.748.457 3.32" fill="#000"/><path clip-rule="evenodd" d="M78.754 19.286c1.26 3.835-.859 7.955-4.693 9.215-3.835 1.259-7.956-.859-9.215-4.693-1.259-3.835.859-7.956 4.694-9.215 3.891-1.202 8.012.858 9.214 4.693" fill="#fff" fill-rule="evenodd"/><path d="M78.124 19.515a6.605 6.605 0 0 0-8.356-4.235 6.605 6.605 0 0 0-4.235 8.356 6.605 6.605 0 0 0 8.356 4.235 6.605 6.605 0 0 0 4.235-8.356" fill="#000"/><path d="M73.66 27.184c3.09-1.03 4.807-4.35 3.834-7.498-1.03-3.09-4.35-4.807-7.498-3.834-3.09 1.03-4.807 4.35-3.834 7.497 1.03 3.148 4.407 4.865 7.497 3.835" fill="#fff"/><path d="M74.233 15.509c-1.489-.63-3.206-.687-4.751 0l2.404 1.545zm-.917 8.07l.916-2.805-2.404-1.717-2.404 1.717.916 2.804zm4.98-1.603a5.82 5.82 0 0 0-1.488-4.521l-.744 2.747zm-4.807 5.838c1.602-.343 2.975-1.374 3.834-2.805l-2.861.172z" fill="#000"/><path d="M69.424 20.774l.916 2.804h2.976l.916-2.804-2.404-1.717zM66.39 25.01c.802 1.43 2.233 2.46 3.836 2.804l-1.03-2.633zm-1.03-3.034a5.82 5.82 0 0 1 1.488-4.521l.744 2.747z" fill="#000"/><path d="M71.714 19.744H72v-3.377h-.286zm1.889 1.373l-.058-.229 3.205-1.03.058.229zm1.144 4.693L72.8 23.12l.229-.17 1.946 2.69zm-5.837 0l-.23-.17 2.003-2.69.172.17zm1.143-4.693l-3.205-1.03.115-.229 3.205 1.03z" fill="#000"/><path d="M76.178 17.455c2.29 2.403 2.175 6.18-.172 8.413-2.404 2.29-6.181 2.175-8.413-.172-2.29-2.404-2.175-6.181.172-8.413 2.346-2.29 6.123-2.232 8.413.171" fill="#fff"/><g fill="#000"><path d="M67.764 17.34c-2.346 2.232-2.404 5.952-.172 8.299 2.233 2.347 5.953 2.404 8.3.172 2.346-2.232 2.403-5.953.17-8.3-2.231-2.346-5.951-2.403-8.298-.17m8.242 8.585c-2.404 2.29-6.239 2.232-8.585-.172-2.29-2.403-2.233-6.238.171-8.585 2.404-2.289 6.239-2.232 8.586.172 2.346 2.461 2.289 6.296-.172 8.585"/><path d="M67.363 18.485l-.515-.057v-.23l.573.115z"/><path d="M66.906 18.37l.401.057v-.057l-.4-.057zm.516.229l-.687-.114.057-.344.687.115zm4.978 5.323l1.775-1.717-.573-2.347-2.346-.744-1.775 1.717.573 2.404zm2.004-1.66l-1.946 1.889-2.576-.744-.63-2.633 1.946-1.831 2.576.8z"/><path d="M70.112 23.178l2.232.63 1.717-1.66-.573-2.232-2.29-.687-1.716 1.66zm2.289.801l-2.404-.687-.572-2.46 1.831-1.775 2.404.744.572 2.404zm-2.461-.63l2.46.687 1.89-1.831-.63-2.461L71.142 19l-1.89 1.774zm2.518.86l-2.633-.745-.63-2.747 2.004-1.889 2.633.801.63 2.633z"/><path d="M67.593 20.374l1.774.343.859-.859.687-.63.229-.228-.287-1.774c-.229-.058-1.144-.344-1.888-.172a2.9 2.9 0 0 0-.744.515l-.058.057-.057.057c-.229.23-.4.458-.572.687-.286.859-.058 1.774.057 2.003m3.72-1.26l-.343.287-.687.63-.973.915-2.003-.4v-.058c0-.057-.344-1.145-.115-2.118a2.58 2.58 0 0 1 .63-.744l.057-.057.057-.057c.23-.23.515-.458.802-.573.973-.229 2.06.172 2.117.172h.058z"/><path d="M67.65 20.316l1.717.343L71.084 19l-.286-1.716c-.172-.058-.744-.23-1.259-.23-.172 0-.4 0-.572.058a2.7 2.7 0 0 0-.687.515l-.057.057c-.058 0-.058.058-.058.058-.229.229-.4.457-.572.686-.229.744-.057 1.603.057 1.889m1.717.458l-1.83-.344v-.057c-.059-.286-.287-1.144-.059-1.946.172-.229.344-.515.573-.744l.057-.057.057-.057c.23-.23.458-.4.744-.515.172-.057.401-.057.573-.057.63 0 1.202.171 1.373.228h.058l.286 1.832-.286.229zm-1.889-.286l1.947.4 1.602-1.545.286-.286-.286-1.946s-.687-.229-1.43-.229c-.23 0-.459 0-.63.057-.287.115-.516.344-.802.573l-.057.057-.057.057c-.229.229-.458.458-.573.744-.4.973-.057 2.06 0 2.118m1.947.515l-2.06-.4-.058-.115c0-.058-.344-1.202-.115-2.175v-.057c.172-.287.344-.515.63-.802l.057-.057.057-.057c.23-.23.515-.458.802-.573.229-.057.458-.057.687-.057.744 0 1.488.23 1.488.287l.114.057.344 2.06-.344.343z"/><path d="M73.717 19.801l-2.461-.744s-.23-.973-.286-1.888c1.145-.516 2.404-.516 2.404-.516s.8.516 1.66 1.718c-.401.4-1.317 1.43-1.317 1.43"/><path d="M71.313 19l2.404.744c.172-.172.916-.973 1.259-1.374-.744-1.03-1.488-1.545-1.602-1.66-.172 0-1.317.058-2.347.516.057.8.229 1.602.286 1.774m2.404.858l-2.576-.744v-.057s-.229-.973-.286-1.889v-.057h.057c1.145-.515 2.462-.572 2.462-.572.057 0 .8.572 1.66 1.717l.057.057-.057.057c-.344.4-1.26 1.488-1.317 1.488"/><path d="M71.313 18.943l2.347.686c.172-.171.858-.973 1.202-1.373-.744-.973-1.431-1.488-1.546-1.603-.229 0-1.316.057-2.289.515.057.802.229 1.603.286 1.774m2.404.973l-2.576-.802v-.057s-.229-.973-.286-1.889v-.057l.057-.057c1.145-.515 2.404-.573 2.462-.573h.057c.057 0 .801.573 1.66 1.717l.057.058-.057.057a39.335 39.335 0 0 1-1.374 1.603"/><path d="M71.37 18.886l2.29.687c.229-.23.802-.916 1.145-1.26-.687-.915-1.317-1.43-1.488-1.545-.23 0-1.26.057-2.175.458 0 .744.172 1.43.229 1.66m2.347.858L71.315 19v-.057a11 11 0 0 1-.286-1.774v-.058h.057c.973-.457 2.117-.515 2.289-.515.115.115.801.63 1.545 1.603l.058.057-.058.057c-.343.344-.973 1.088-1.201 1.317zm-2.518-.687l2.519.744c.057-.057.972-1.087 1.316-1.43-.859-1.202-1.603-1.717-1.66-1.717s-1.316 0-2.461.572c.057.801.286 1.717.286 1.831m2.576.916l-2.69-.801v-.115c0-.114-.23-1.03-.286-1.945v-.115l.114-.057c1.145-.515 2.46-.573 2.518-.573h.058l.057.058c.057 0 .8.572 1.717 1.774l.057.114-.114.115a56 56 0 0 1-1.317 1.43z"/><path d="M73.431 16.653l-.171-.057.228-.744.172.057z"/><path d="M73.316 16.539h.058l.171-.63h-.057zm.172.171l-.344-.114.287-.916.343.114zm-4.521.23l-.172.056-.057-.572h.171z"/><path d="M68.794 16.482l.058.4h.057l-.057-.4zm-.057.572l-.057-.687.343-.057.058.687zm8.128 2.289l-.172-.171.343-.401.172.114z"/><path d="M76.808 19.172l.343-.287-.057-.057zm.057.229l-.286-.23.457-.514.287.229zM72.4 23.922l1.775-1.717-.573-2.347-2.346-.744-1.775 1.717.573 2.404zm2.004-1.66l-1.946 1.889-2.576-.744-.63-2.633 1.946-1.831 2.576.8z"/><path d="M70.112 23.178l2.232.63 1.717-1.66-.573-2.29-2.29-.686-1.716 1.66zm2.289.801l-2.404-.687-.572-2.46 1.831-1.775 2.404.744.63 2.404zm-2.461-.63l2.46.687 1.89-1.831-.63-2.518-2.518-.744-1.89 1.774zm2.518.86l-2.633-.745-.63-2.747 2.004-1.889 2.633.801.687 2.633z"/><path d="M76.064 22.835l.114-.115c.23-.229.801-.801 1.03-1.488 0-.286 0-.63-.114-.973-.058-.343-.172-.687-.344-.916-.572-.572-1.43-.801-1.66-.858l-1.258 1.373.057.344.515 2.003zm.228.057c-.114.114-.171.114-.171.114l-.057.058-1.89-.745-.514-2.117-.115-.4 1.374-1.546h.057c.057 0 1.145.229 1.832.973.171.286.286.63.4.973s.115.744.115 1.087c-.172.687-.687 1.317-1.03 1.603"/><path d="M74.461 22.09l1.603.63.057-.057c.229-.229.801-.801.973-1.43 0-.287-.058-.63-.115-.974a2.5 2.5 0 0 0-.343-.916c-.515-.515-1.316-.744-1.545-.858l-1.202 1.316.057.287zm1.603.802l-1.775-.687-.572-2.404 1.26-1.43h.056c.23.057 1.088.343 1.66.915.172.286.286.573.343.973.115.344.115.687.115 1.03-.229.687-.801 1.317-1.03 1.488.057.058 0 .058-.057.115m-1.775-.63l1.832.744s.057-.057.171-.114c.287-.286.86-.858 1.03-1.545 0-.344 0-.687-.114-1.03-.057-.344-.229-.687-.343-.974-.687-.686-1.717-.915-1.774-.915l-1.317 1.488.115.4zm1.832.859l-1.946-.801-.63-2.633 1.431-1.603h.115c.057 0 1.144.23 1.831.973.172.287.286.63.4 1.03.115.344.172.745.115 1.088v.057c-.229.744-.8 1.317-1.087 1.603-.115.114-.172.114-.172.114z"/><path d="M72.4 24.037l1.89-1.775s.915.287 1.774.687c-.114 1.26-.687 2.347-.687 2.347s-.973.458-2.461.63c-.114-.573-.515-1.89-.515-1.89"/><path d="M72.516 24.036c.057.23.343 1.26.515 1.775 1.316-.172 2.175-.516 2.347-.63.057-.172.572-1.145.686-2.232-.743-.344-1.487-.63-1.716-.687zm.4 1.946c-.171-.572-.572-1.888-.572-1.946v-.057l1.946-1.831h.057s.974.286 1.775.686h.057v.058c-.115 1.259-.687 2.346-.687 2.346-.057.115-1.087.573-2.575.744"/><path d="M73.03 25.81c1.26-.17 2.118-.514 2.29-.572.115-.171.572-1.144.687-2.174a9.5 9.5 0 0 0-1.66-.63l-1.774 1.717c.057.172.286 1.145.458 1.66m2.462-.457c-.058.057-1.031.515-2.519.63h-.057v-.058c-.172-.515-.515-1.889-.515-1.889v-.057l1.946-1.888h.057s.973.286 1.775.744l.057.057v.057c-.172 1.26-.744 2.347-.744 2.404"/><path d="M72.63 24.094c.056.286.343 1.144.457 1.602 1.145-.172 2.003-.458 2.175-.572a6.7 6.7 0 0 0 .63-2.118c-.63-.286-1.317-.515-1.546-.63zm.343 1.774c-.172-.515-.458-1.488-.516-1.774v-.058l1.832-1.774h.057c.23.057.973.344 1.66.687h.057v.057c-.114 1.088-.572 2.06-.687 2.232-.171.058-1.03.458-2.289.63zm-.573-1.832c0 .058.344 1.374.515 1.89 1.431-.173 2.404-.63 2.461-.63 0 0 .573-1.088.687-2.347-.858-.4-1.774-.687-1.774-.687zm.458 2.06l-.057-.114c-.172-.515-.515-1.888-.515-1.888v-.115l2.003-1.946.114.057s.973.287 1.832.744l.115.058v.114c-.115 1.26-.687 2.404-.745 2.404v.057h-.057c-.114.058-1.03.458-2.518.63z"/><path d="M76.007 25.753l-.172.172-.515-.572.172-.172z"/><path d="M75.434 25.353l.458.458.057-.058zm.4.686l-.629-.686.23-.23.629.688zm1.889-4.463l-.515-.23.115-.171.515.229z"/><path d="M77.323 21.346l.4.172v-.057l-.4-.172zm.458.344l-.63-.286.114-.344.63.286zm-7.785 1.66l-.63-2.518s-.972-.23-1.888-.344c-.572 1.088-.63 2.404-.63 2.404s.515.801 1.66 1.717c.401-.4 1.488-1.26 1.488-1.26"/><path d="M66.906 22.834c.058.115.573.859 1.546 1.66.4-.343 1.259-1.03 1.43-1.202l-.572-2.46c-.171-.058-.973-.23-1.774-.344-.515 1.03-.63 2.175-.63 2.346m1.546 1.832c-1.202-.973-1.66-1.774-1.717-1.774 0 0 .057-1.317.687-2.404v-.058h.057c.916.115 1.889.344 1.889.344h.057l.63 2.633h-.058c.058 0-1.03.858-1.545 1.259"/><path d="M68.452 24.437c.4-.343 1.201-.973 1.373-1.145l-.572-2.404a22 22 0 0 0-1.717-.343c-.515.973-.572 2.06-.63 2.29.115.114.63.8 1.546 1.602m1.66-1.088c-.058.058-1.145.916-1.546 1.26l-.057.057-.057-.057c-1.145-.916-1.66-1.717-1.66-1.775v-.057c0-.057.057-1.316.687-2.46l.057-.058h.057c.916.114 1.89.343 1.89.343h.056z"/><path d="M67.02 22.777c.115.172.573.801 1.489 1.545.4-.343 1.087-.915 1.316-1.087l-.572-2.347a25 25 0 0 0-1.66-.343c-.458.973-.572 2.003-.572 2.232m1.431 1.774c-1.03-.858-1.488-1.545-1.602-1.66 0-.228.114-1.316.63-2.289v-.057h.057a25 25 0 0 1 1.774.343h.057l.63 2.461h-.057a35 35 0 0 0-1.489 1.202m-1.659-1.717c0 .058.515.802 1.66 1.775.4-.344 1.488-1.26 1.488-1.26l-.63-2.575s-.973-.23-1.889-.344c-.572 1.088-.629 2.347-.629 2.404m1.66 1.946l-.115-.114c-1.145-.916-1.66-1.717-1.66-1.774v-.115c0-.057.057-1.316.687-2.461l.057-.114h.115c.915.114 1.889.343 1.889.343h.114l.687 2.747-.057.057s-1.088.916-1.489 1.26z"/><path d="M66.849 22.949l-.744.171-.057-.171.744-.172z"/><path d="M66.105 23.006v.058l.63-.172v-.058zm-.057.23l-.058-.344.916-.23.057.344zm3.32 3.261l-.458.287-.115-.172.458-.286z"/><path d="M68.91 26.67l.4-.173-.058-.057zm0 .228l-.23-.286.572-.4.23.285z"/><path d="M71.313 26.898c.687-.171 1.317-.686 1.546-.915l.114-.115-.572-1.717-.286-.057-1.717-.458-.344-.114-1.43 1.144c.057.23.286 1.088.8 1.717.287.172.573.286.916.4.286 0 .63.058.973.115m1.66-.801c-.286.286-.916.801-1.66.973a3.2 3.2 0 0 1-1.03-.172c-.343-.114-.686-.229-.973-.4-.686-.744-.858-1.832-.858-1.889v-.057l1.602-1.317.401.115 1.717.458.4.114.63 1.946-.057.057q-.086 0-.172.172"/><path d="M69.425 26.268c.229.172.572.287.915.401s.63.172.973.172c.687-.172 1.26-.687 1.489-.916l.057-.057-.515-1.66-.286-.057-2.004-.573-1.373 1.145c.057.23.229.973.744 1.545m1.888.687q-.514 0-1.03-.171c-.343-.115-.687-.23-.916-.401-.572-.572-.744-1.488-.8-1.717v-.057l1.487-1.202.344.114 2.06.573.573 1.774-.058.057-.114.114c-.23.172-.859.687-1.546.916m-2.861-2.404c0 .058.171 1.145.858 1.832.286.172.63.343.973.4q.516.172 1.03.172c.687-.171 1.317-.687 1.603-.973l.115-.114-.63-1.889-.343-.114-1.718-.458-.4-.115zm2.861 2.576c-.343 0-.744-.057-1.087-.172s-.687-.229-.973-.458c-.687-.744-.916-1.831-.916-1.888v-.115l1.66-1.373.458.114 2.175.63.687 2.003-.057.057-.172.172c-.401.343-1.03.858-1.775 1.03"/><path d="M71.6 27.47l-.172.058-.229-.515.172-.058z"/><path d="M71.313 27.07l.172.4h.057l-.172-.4zm.057.572l-.229-.63.344-.114.228.63zm-2.519-10.645s-.972.515-1.488 1.373c-.286 0-.343-.114-.515-.114.687-1.145 1.89-1.775 1.89-1.775z"/><path d="M66.964 18.199h.114c.057 0 .115.057.23.057.457-.802 1.258-1.26 1.487-1.374l-.057-.343c-.286.229-1.202.801-1.774 1.66m.457.228c-.171 0-.286-.057-.343-.057s-.114-.057-.172-.057h-.114l.057-.114c.687-1.145 1.889-1.775 1.946-1.832l.057-.057.172.63h-.057c-.058.114-1.03.572-1.546 1.487m9.845 2.863s.057-1.088-.458-2.004c.171-.229.229-.229.343-.4.63 1.144.63 2.518.63 2.518z"/><path d="M77.38 21.232l.344.114c0-.343-.058-1.373-.573-2.29 0 .058-.057.058-.057.058l-.172.172c.458.801.458 1.717.458 1.946m.458.286l-.63-.172v-.057s.058-1.088-.457-1.946v-.115c.057-.114.171-.171.228-.228.058-.058.115-.058.115-.172l.057-.115.057.115c.63 1.145.63 2.518.63 2.575zm-8.528 4.865s.916.63 1.946.63c.115.229.057.343.172.515-1.316 0-2.518-.744-2.518-.744z"/><path d="M69.081 26.726c.286.172 1.202.63 2.29.687 0-.057 0-.057-.058-.114 0-.058-.057-.115-.057-.23-.916 0-1.717-.457-1.889-.572zm2.519.859h-.115c-1.316 0-2.518-.744-2.518-.744l-.057-.057.457-.458.058.057s.915.63 1.888.63h.058v.057c.057.114.057.229.114.286 0 .057 0 .114.057.172z"/></g><path clip-rule="evenodd" d="M47.046 66.16c-.057-.171-.515.573-.4.745.228.4.743 1.316 1.03 1.716.171-.114-.115-.8-.115-.972.229-.401.229-.916-.286-1.088zm24.783 10.36c-9.158 0-23.924.63-40.121 4.865l1.03.171c.171-.057.343-.057.515-.114l8.013 9.043-6.468 9.157c.63.172 1.26.401 1.889.802 3.205-1.031 6.467-1.89 9.844-2.633l-4.178-5.438.057-2.346 8.929-11.561 10.244 10.817 10.303-12.02 10.302 12.02 10.245-10.817 8.928 11.56.057 2.347-4.178 5.438c3.32.744 6.639 1.602 9.845 2.633.629-.344 1.259-.63 1.888-.802l-6.467-9.157 8.012-9.043c.172 0 .344.057.515.114l1.031-.171c-16.312-4.236-31.078-4.865-40.235-4.865" fill="#fff" fill-rule="evenodd"/><path clip-rule="evenodd" d="M123.053 94.148c-.63-1.145-5.094-3.148-14.938-5.609-14.938-3.72-27.186-4.178-36.344-4.178-9.157 0-21.462.457-36.4 4.178-9.844 2.461-14.309 4.464-14.938 5.609-1.088 2.06 1.259 7.268 2.404 10.073 1.717 4.178 5.322 9.157 5.322 9.157s-.686-1.831 4.579-3.491c19.86-6.124 38.862-5.609 38.976-5.609.115 0 19.06-.458 38.919 5.609 5.266 1.603 4.579 3.491 4.579 3.491s3.606-4.922 5.323-9.157c1.316-2.805 3.662-8.013 2.518-10.073" fill="#135a37" fill-rule="evenodd"/><path d="M71.829 85.162c-4.064 0-9.558.057-15.968.687-6.925.63-13.508 1.774-20.261 3.434q-6.868 1.716-10.817 3.262c-3.205 1.26-3.606 1.946-3.606 1.946-.229.458-.4 1.43.286 3.72.515 1.717 1.26 3.491 1.832 4.979.114.229.229.516.286.744 1.145 2.862 3.262 6.067 4.407 7.785.744-.973 2.29-1.832 4.578-2.519 17.113-5.266 33.482-5.666 38.118-5.666h2.06c4.636 0 20.948.4 38.061 5.666 2.289.687 3.835 1.546 4.579 2.519 1.144-1.718 3.262-4.923 4.407-7.785.114-.228.172-.457.286-.744.63-1.488 1.374-3.262 1.831-4.978.63-2.29.516-3.263.287-3.721 0 0-.401-.687-3.606-1.946q-3.95-1.546-10.817-3.262c-6.697-1.66-13.336-2.805-20.204-3.434-6.181-.63-11.676-.687-15.74-.687m44.07 28.617l-1.317-.687v.057s.058-1.259-4.063-2.575c-16.884-5.209-33.081-5.609-37.603-5.609h-2.174c-4.58 0-20.776.4-37.718 5.609-4.12 1.259-4.063 2.518-4.063 2.575 0 0 .114.516.114.458l-1.259.458c-.172-.229-3.892-5.38-5.609-9.615-.114-.229-.172-.458-.286-.744-1.717-4.121-3.148-7.956-2.06-10.016.286-.515 1.03-1.317 4.407-2.633 2.69-1.03 6.41-2.175 10.989-3.32a131 131 0 0 1 20.49-3.49c6.467-.63 12.018-.688 16.082-.688 4.063 0 9.615.058 16.083.687a143.88 143.88 0 0 1 20.432 3.491c4.636 1.145 8.299 2.29 10.989 3.32 3.377 1.316 4.121 2.118 4.407 2.633 1.087 2.06-.344 5.895-2.06 10.016a4 4 0 0 0-.287.744c-1.774 4.292-5.322 9.157-5.494 9.329" fill="#000"/><path d="M90.257 100.214c-.057 0-.057-.057-.114-.057-.687-.23-1.43-.343-2.118-.23-.458.058-.858.173-1.202.402-.286.172-.515.343-.686.572-.344.458-.458 1.03-.401 1.603 0 .171.114.4.229.572a.9.9 0 0 0 .458.343c.171.058.343.058.515.058.4-.058.744-.172 1.03-.458.23-.172.4-.344.572-.573.63-.686 1.145-1.43 1.66-2.174.057 0 .057 0 .057-.058m-40.235-7.84c0-.058 0-.173-.057-.344-.057-.229-.172-.344-.4-.286h-.115c-.115.057-.286.114-.4.171-.23.115-.459.344-.63.515-.23.23-.401.458-.63.744q-.858 1.203-1.373 2.576c-.115.4-.23.801-.287 1.202v.515q.087.344.515.344h.058c.229-.058.4-.172.572-.287.286-.228.572-.457.801-.744.801-.915 1.374-2.003 1.717-3.205.172-.343.23-.744.23-1.202m8.871-1.03c0-.058 0-.23-.057-.345-.057-.228-.229-.286-.458-.286a.44.44 0 0 0-.286.115c-.172.057-.343.171-.515.286-.458.343-.859.801-1.202 1.26-.458.686-.801 1.373-1.145 2.174a5.6 5.6 0 0 0-.343 1.317v.4c.057.172.114.286.229.344.057 0 .114.057.171.057.23 0 .401-.057.573-.172.229-.114.4-.286.63-.458.286-.229.515-.515.743-.858.687-.859 1.145-1.832 1.431-2.862.172-.286.23-.572.23-.973m26.671.056c0-.114 0-.229-.057-.343a.45.45 0 0 0-.229-.229c-.114-.057-.229-.057-.343-.057-.115.057-.23.057-.344.114-.229.057-.4.23-.63.343-.4.287-.743.63-1.087 1.03a8.5 8.5 0 0 0-1.316 2.176 4.2 4.2 0 0 0-.23.8c-.056.173-.056.344 0 .573.058.287.23.458.516.458.172 0 .344-.057.515-.114.287-.115.573-.286.802-.515 1.087-.973 1.888-2.118 2.231-3.549q.172-.257.172-.687m4.75 5.094c0 .115 0 .172.058.286.057.172.171.287.343.4.115.058.286.058.401.058.229-.057.4-.114.63-.229.286-.171.514-.343.743-.515.916-.801 1.546-1.717 2.004-2.862.114-.343.229-.63.229-.973v-.4c-.058-.172-.115-.286-.287-.286a.36.36 0 0 0-.343 0c-.172.057-.4.114-.572.171-.344.172-.63.344-.859.573-.687.572-1.202 1.259-1.66 2.06-.229.4-.4.801-.515 1.259-.114.115-.114.286-.172.458m.401 3.09c.23-.4.401-.743.63-1.087h-.115c-.4.115-.744.172-1.145.115-.286 0-.514-.057-.743-.172-.458-.171-.802-.515-1.03-.916a1.93 1.93 0 0 1-.287-.973c-.057-.686.057-1.316.286-1.946.115-.229.23-.515.344-.744.057-.114.114-.171.171-.229s.058-.114.115-.171c-.687.171-.859.114-1.26 0 0 .057-.056.114-.056.171-.287.859-.687 1.66-1.374 2.29l-.286.286a5 5 0 0 1-2.461 1.374 5.7 5.7 0 0 1-1.374.171c-.457 0-.858-.057-1.26-.229-.857-.286-1.372-.858-1.601-1.717 0-.114-.058-.171-.058-.286l-.057-.057c-.057.057-.114.114-.172.114-.457.4-.915.802-1.488 1.145-.343.229-.63.4-.973.515a2.43 2.43 0 0 1-1.545.172 1.1 1.1 0 0 1-.572-.172c-.344-.171-.516-.458-.573-.858-.057-.458.057-.859.23-1.26.171-.343.343-.63.514-.972l.172-.344c-.057-.057-.057-.057-.115 0-.228.057-.457.172-.686.229-.287.114-.63.172-.973.172-.229 0-.458-.058-.687-.115-.057.057-.115.115-.115.172l-1.202 2.404c-.114.172-.17.4-.286.572-.057.058-.057.115-.171.115H67.65c-.057-.057 0-.115.057-.172.287-.515.573-1.087.802-1.603.057-.057.057-.114.114-.229-.115.058-.172.115-.229.172-.343.344-.744.63-1.145.916-.63.458-1.316.801-2.06.973a3.23 3.23 0 0 1-1.946-.057 2.44 2.44 0 0 1-1.144-.859 6 6 0 0 1-.287-.63c0-.057 0-.057-.057-.114-.057.057-.114.057-.172.115-.63.515-1.259 1.03-1.946 1.488a3.7 3.7 0 0 1-.801.458c-.172.057-.4.114-.63.114-.171 0-.343-.057-.515-.114-.343-.172-.515-.401-.629-.744 0-.172-.057-.287-.057-.458-.058 0-.058.057-.115.114a3.5 3.5 0 0 1-.916.916 3.2 3.2 0 0 1-1.144.63 2.8 2.8 0 0 1-1.374 0 1.7 1.7 0 0 1-.973-.687 2.5 2.5 0 0 1-.343-.916c-.058-.343-.115-.687-.057-.973v-.23c-.058 0-.058 0-.115.058l-.859.859c-.057.057-.114.114-.171.229-.458.629-.916 1.202-1.488 1.66-.63.515-1.26.858-2.06 1.03-.401.114-.86.114-1.26.114-.171 0-.343-.057-.572-.114-.23-.058-.458-.172-.572-.344-.057.058-.057.115-.115.172-.286.63-.515 1.259-.801 1.889-.401.973-.801 2.003-1.26 2.976-.056.057-.056.171-.114.229-.515.114-1.03.171-1.488.286-.515.057-1.03.229-1.545.286 0-.115 0-.172.057-.229.4-.859.744-1.717 1.145-2.575.4-.916.801-1.775 1.144-2.69 0-.058.058-.115.058-.172l-.172.172c-.4.4-.859.801-1.374 1.144a7.4 7.4 0 0 1-1.144.63 3.7 3.7 0 0 1-1.145.172c-.172 0-.286-.058-.458-.115-.458-.172-.687-.515-.801-.973a1.9 1.9 0 0 1 0-.801q.257-1.116.686-2.232c.115-.344.287-.744.401-1.088.057-.229.115-.458 0-.687-.057-.228-.229-.4-.4-.515-.058 0-.115.058-.115.058-.687.457-1.43.858-2.175 1.259a.7.7 0 0 0-.286.286c-.63 1.488-1.259 2.919-1.889 4.407-.171.401-.343.801-.515 1.259-.057.114-.114.172-.229.172-1.144.286-2.289.572-3.376.858-.115 0-.172.057-.287.057 0-.057 0-.114.058-.171.4-.859.744-1.717 1.144-2.633l1.889-4.121c.458-.916.858-1.889 1.316-2.804.172-.401.344-.802.516-1.26.457-1.03.457-2.117.114-3.205a4.3 4.3 0 0 0-.515-1.03c-.4-.572-.973-.858-1.66-.973a3.6 3.6 0 0 0-1.717.23c-.801.285-1.488.743-2.003 1.43-.4.458-.687 1.03-.859 1.602-.229.63-.286 1.317-.229 2.004.058.63.23 1.202.573 1.717.114.229.286.4.515.572.114.115.286.172.458.229a.96.96 0 0 0 .687-.057c.4-.172.744-.515.915-.916.115-.286.172-.572.23-.858.056-.745-.058-1.431-.287-2.118-.172-.573-.4-1.145-.63-1.66 0-.057-.057-.057-.057-.115h.115c.572.115 1.202.287 1.774.458.343.115.744.172 1.087.287 0 0 .058 0 .115.057 0 .057.057.114.057.171.057.458.115.973.057 1.431-.057.744-.286 1.431-.63 2.118-.343.573-.743 1.03-1.316 1.374a5.3 5.3 0 0 1-2.232.858c-.515.058-1.03.058-1.488-.114-.801-.23-1.373-.801-1.717-1.545a3.4 3.4 0 0 1-.286-1.317c-.057-1.145.229-2.175.858-3.148a6.8 6.8 0 0 1 1.718-1.889c1.144-.858 2.46-1.488 3.891-1.774a7.2 7.2 0 0 1 1.603-.171q.945 0 1.889.343c.744.286 1.259.744 1.717 1.374.343.457.572.915.686 1.487.058.344.115.745.115 1.145 0 .63-.115 1.26-.229 1.832-.172.63-.344 1.259-.63 1.831v.058c.058.057.058 0 .115 0 1.26-.63 2.29-1.546 3.205-2.633q.772-.859 1.374-1.889c.458-.744.858-1.545 1.144-2.404.115-.4.23-.744.23-1.144v-.115l1.03-.172 1.03-.171 1.03-.172c.057.057.057.115 0 .115a10 10 0 0 1-.515 1.716 10.7 10.7 0 0 1-.859 1.832 13.4 13.4 0 0 1-2.06 2.69c-.458.458-.973.858-1.488 1.26-.057.056-.115.056-.115.114l.172.171c.286.23.572.515.744.859.172.4.229.744.057 1.145-.057.228-.171.457-.229.744-.171.515-.343 1.03-.515 1.602-.057.229-.114.515-.171.744v.4c0 .058.057.173.114.23.172.114.343.172.515.114a1.2 1.2 0 0 0 .344-.229c.343-.286.686-.63.973-1.03.515-.63.915-1.373 1.259-2.118s.687-1.488.973-2.175c.229-.515.458-.973.687-1.488.057-.057.057-.114.114-.229.458-.114.916-.171 1.374-.229.457-.057.915-.171 1.373-.229v.115c-.057.114-.057.172-.114.286 0 .057 0 .057-.058.115.172-.115.344-.23.458-.287.344-.286.744-.4 1.202-.515.515-.057.973-.057 1.431.286.343.23.572.573.687.973.114.458.171.859.114 1.317-.057.4-.114.858-.286 1.259v.115c.057 0 .057-.058.114-.058l.115-.114c.23-.172.343-.344.458-.63.286-.744.744-1.373 1.26-1.946a7.9 7.9 0 0 1 1.659-1.43c.515-.287 1.03-.573 1.66-.688.343-.057.686-.114 1.03-.114.515 0 .916.172 1.259.515l.057.057c.172-.229.229-.458.344-.686.286-.058 2.518-.229 2.747-.172 0 .057 0 .057-.057.114-.115.23-.172.401-.286.63a55 55 0 0 0-1.489 3.205c-.171.4-.343.801-.515 1.145-.057.114-.114.229-.114.343s-.057.172-.057.286c0 .287.171.401.458.344.057 0 .114-.057.171-.057.115-.058.229-.115.344-.23.229-.171.4-.343.629-.514.057-.058.115-.115.115-.172a10 10 0 0 1 .8-2.175c.23-.458.516-.859.802-1.202.744-.859 1.66-1.43 2.747-1.774a4.9 4.9 0 0 1 1.832-.172q.344 0 .686.172.945.343 1.03 1.373v.401c0 .114 0 .229-.056.343-.058.058-.058.058-.115.058-.744.4-1.488.801-2.232 1.144-.057 0-.115.058-.172.058-.057-.058 0-.115 0-.115.115-.229.23-.458.287-.744.114-.343.228-.687.286-1.088v-.4a.43.43 0 0 0-.401-.286c-.172 0-.343.114-.458.171a3.024 3.024 0 0 0-.801.687c-.458.515-.801 1.088-1.088 1.717-.114.286-.228.573-.285.859-.172.458-.172.858-.115 1.316 0 .115.057.229.057.344.115.343.344.572.801.629.287 0 .516 0 .802-.114.343-.115.686-.286 1.03-.458.744-.458 1.43-.973 2.003-1.66.171-.229.343-.458.515-.744.572-1.03 1.144-2.06 1.774-3.09.057-.115.172-.287.23-.401.056-.058.056-.115.114-.172.972 0 1.945 0 2.976.057 0 .057 0 .057-.058.115-.457.858-.973 1.717-1.43 2.575-.172.286-.344.63-.516.916 0 .057-.057.114-.057.172.115 0 .172.057.286.057a3.1 3.1 0 0 0 1.89-.458 1.35 1.35 0 0 0 .4-.4c.515-.916 1.087-1.775 1.602-2.633.058-.115.115-.172.172-.287.458 0 .916.058 1.374.058s.916.057 1.374.057c-.058.057-.058.114-.058.171-.171.287-.343.573-.458.86a127.86 127.86 0 0 0-1.545 2.861c-.286.515-.515.973-.801 1.488-.058.172-.115.286-.172.458v.229c.057.172.172.229.343.229.115 0 .172-.057.287-.115.114-.057.229-.114.343-.229.172-.114.286-.286.458-.4.172-.23.343-.458.572-.63.058-.057.115-.114.115-.229a5.9 5.9 0 0 1 1.202-2.289c.343-.4.744-.802 1.202-1.145a6.855 6.855 0 0 1 2.003-.859c.458-.114.915-.114 1.373-.114q.772 0 1.546.343c.228.115.4.23.572.401.343.286.515.63.63 1.088.057.171.057.4.057.572v.286c.4.23.744.286 1.201.172.172-.057.344-.172.516-.286.228-.172.515-.344.744-.515a4.66 4.66 0 0 1 2.06-.859C92.432 91 92.89 91 93.405 91c.573.058 1.145.23 1.603.63.114.115.229.23.343.401l.057-.057c.115-.172.287-.344.401-.516.229 0 .458.058.687.115s.458.057.687.114c.229.058.458.058.687.115s.458.057.686.114c-.171.23-.343.458-.457.687-.172.23-.287.458-.458.687s-.286.458-.458.63c-.172.228-.286.457-.458.686s-.286.458-.458.687-.286.458-.458.687-.286.458-.458.687c-.171.229-.286.458-.458.687-.171.229-.286.458-.458.687-.171.228-.286.457-.457.686-.115.229-.287.458-.401.687-.172.229-.286.458-.458.687s-.286.458-.458.687l.057.057c.458.172.916.229 1.431.229a2.47 2.47 0 0 0 1.603-.744l.114-.115h.115c.858.458 1.774.859 2.633 1.317v.057c-.058.057-.115.114-.172.114a4.8 4.8 0 0 1-1.26.515c-.629.172-1.258.229-1.945.172-.744-.057-1.488-.229-2.232-.458-.23-.057-.458-.171-.687-.229-.058 0-.115-.057-.229-.057-.058.057-.115.115-.115.229-.229.343-.458.687-.744.973-.8.916-1.774 1.488-3.033 1.717-.63.114-1.26.172-1.832.114-.4-.057-.743-.057-1.144-.171-.344-.115-.744-.229-1.03-.458q-.945-.601-1.03-1.717c-.058-.343.057-.687.114-1.03q.429-1.288 1.717-1.717c.4-.115.801-.23 1.202-.23h1.202c.744.058 1.43.173 2.117.401.172.058.401.115.572.172.516-.4.573-.343.63-.343" fill="#fff"/><path d="M43.67 86.593c-.058.228-.115.4-.172.63a9 9 0 0 1-.973 2.174c.286-.344.515-.744.744-1.202a14.63 14.63 0 0 0 .8-1.66c-.056 0-.113 0-.17.058zm-12.306 3.949c.057.171.057.286.114.458v-.4c-.057 0-.057-.058-.114-.058m28.674 1.316c-.057.286-.057.515-.172.801-.057.115-.057.23-.114.401.343-.744.687-1.488 1.03-2.175h-.057c-.057.057-.114.172-.172.23zm-31.364-1.832c-.057.172-.172.344-.229.516q-.258.687-.172 1.545c.058.458.058.744.287 1.088.057.114.171.286.286.286.171 0 .229-.115.286-.286.057-.115.114-.287.114-.458.058-.515-.057-1.03-.229-1.717a4 4 0 0 0-.343-.974m57.806 2.805c-.286.801-.63 1.546-1.145 2.232.516-.515.802-1.087 1.03-1.774 0-.057.058-.114.058-.229l.057-.114zm-6.353 2.118c.058.057.058.114.115.172v-.058c.057-.343.172-.687.286-1.03.172-.4.343-.801.572-1.145-.4.515-.686 1.03-.801 1.603-.057.172-.114.286-.172.458m-29.303-.515c-.172.4-.344.858-.515 1.259.057-.057.057-.115.114-.172l.4-.4c-.057-.172-.057-.287-.057-.458 0-.058 0-.115.058-.23m20.088-.859l-1.202 2.461c-.057.058-.057.115-.057.172v.057h.286l.115-.229c.343-.744.744-1.488 1.087-2.232.057-.114.172-.4.515-.63l.23-.515c.056-.057.056-.171.114-.229l.114-.228c.115-.23.23-.516.401-.745.172-.343.4-.686.572-1.03h-.343v.057a84 84 0 0 0-1.832 3.091m4.064 2.805c.057 0 .057.057.114.057.287.057.63 0 .916-.114h.058c-.058-.058-.058-.172-.115-.287-.057-.229-.114-.515-.057-.744.057-.286.114-.572.286-.858l.229-.401c.172-.343.4-.744.572-1.087.458-.859.802-1.546 1.202-2.233h-.171l-.23.344c-.4.687-.8 1.373-1.259 2.003a2 2 0 0 1-.572.63l.172.286-.687 1.259c-.115.229-.229.4-.344.63-.114.171-.114.4-.114.515q0-.086 0 0M62.9 95.292l.057.172c.057.057.057.172.115.229l.171.343c.058.115.172.229.458.344a.5.5 0 0 0 .286.057 1.3 1.3 0 0 1-.343-.687c-.057-.229-.114-.4-.114-.63-.058-.686 0-1.259.17-1.774 0-.057.058-.114.058-.171a6.3 6.3 0 0 0-.63 1.717c-.114.171-.171.286-.228.4m26.728-.915l-.058.114c-.057.172-.17.343-.228.515-.172.572-.287 1.03-.229 1.43v.116-.115l.057-.286c0-.172.057-.286.114-.458.115-.515.344-1.03.63-1.545.286-.458.572-.916.858-1.317-.057.057-.114.057-.17.115l-.86 1.259-.057.057zm-31.364 1.602l.057.744v.115c.057 0 .115 0 .172-.058.171-.057.343-.171.515-.286.057-.057.172-.114.229-.171-.172-.23-.286-.573-.344-.916 0-.23 0-.401.058-.573-.115.344-.4.744-.687 1.145m-4.865-.973v.687c0 .286 0 .572.057.744.057.229.114.4.172.572.057.115.114.172.23.172.056 0 .113 0 .17.057a2.1 2.1 0 0 1-.286-.63c-.057-.285-.057-.514-.057-.8.057-.573.172-1.145.401-1.66.171-.458.4-.916.572-1.317q-.686.772-1.03 1.546c0 .286-.115.457-.229.629m33.367 1.946l-.057.057q-.515.516-1.03.859c.286-.057.572-.115.915-.115h.459a3.3 3.3 0 0 1-.287-.801m-48.305 2.976c.057 0 .114 0 .114.058.23 0 .401 0 .63-.058.286-.114.515-.229.744-.4a1.37 1.37 0 0 1-.4-.744c-.058-.23-.058-.516-.058-.802.057-.343.115-.686.23-.973.171-.457.343-.973.457-1.43l.057-.172c.057-.115.057-.23.115-.286.057-.115.114-.287.114-.401 0-.057.057-.172-.057-.343a1.1 1.1 0 0 0-.343-.401c-.058-.057-.058-.057-.115-.057l-.63-.458a4.04 4.04 0 0 1-.572.458c.286.171.572.515.744 1.03.172.458.172.973 0 1.488-.114.4-.286.744-.4 1.145-.287.8-.516 1.43-.63 2.06a.37.37 0 0 0 0 .344c-.057-.115 0-.058 0-.058m-3.835-12.706c.287.401.516.801.687 1.317.458 1.373.4 2.69-.114 4.006a8.4 8.4 0 0 1-.573 1.26c-.457.915-.858 1.888-1.316 2.804-.687 1.43-1.316 2.862-1.889 4.121-.114.228-.171.4-.286.572.286-.057.63-.172.916-.229.114-.229.229-.515.343-.744l.515-1.26c.458-1.087.916-2.117 1.374-3.204.172-.401.458-.687.801-.859.23-.114.458-.229.63-.343l-.115-.115-.343-.4.057-.458c0-.058 0-.23.115-.401.229-.572.4-1.145.572-1.717s.23-1.088.23-1.546c0-.4-.058-.686-.116-.915-.057-.344-.228-.63-.457-1.03q-.43-.6-1.03-.859m56.662 13.679a14 14 0 0 1-.687.973c.057-.057.114-.114.171-.229.23-.286.458-.629.63-.858.057-.057.057-.115.114-.172l.687-.973 2.061-3.205c.172-.23.286-.458.458-.687.171-.229.286-.458.458-.687.171-.229.286-.458.458-.686l.057-.058c.114-.229.286-.4.4-.63.115-.171.23-.286.344-.457l.458-.687c-.057 0-.115 0-.23-.057-.114.114-.228.171-.228.229l-.63.515a3.2 3.2 0 0 1-.229.687c-.515 1.259-1.259 2.346-2.232 3.205zm-47.905-2.346l.057.457c0 .23 0 .516-.114.745l-.172.457c-.343.744-.63 1.488-.973 2.232l-.343.802c.114 0 .172-.058.286-.058l1.374-3.32c.171-.4.343-.8.458-1.144.171-.572.572-.744.8-.858l.287-.115c-.057-.286-.057-.515-.057-.858a6.53 6.53 0 0 1 .343-1.431c.344-1.03.859-2.003 1.488-2.862-.114 0-.171.057-.286.057-.172.344-.343.744-.515 1.145-.114.286-.286.63-.401.916-.171.458-.4.858-.572 1.316-.4.859-.858 1.66-1.374 2.347-.114-.057-.171.057-.286.172m-5.494 7.726l1.774-4.063c-.4.114-.859.114-1.259.114-.229 0-.516-.057-.744-.172-.802-.286-1.317-.915-1.546-1.831-.114-.401-.057-.858 0-1.316.172-.687.344-1.374.687-2.233a3 3 0 0 1-.4.172c-.401.973-2.633 6.124-2.633 6.124s-2.404.572-3.262.801l-3.434.801s1.888-4.292 2.174-4.979a135 135 0 0 0 1.66-3.72c-.687.4-1.43.63-2.232.744-.687.115-1.373.057-2.06-.114-1.088-.344-1.946-1.088-2.461-2.175-.23-.515-.344-1.088-.401-1.717-.057-1.317.286-2.633 1.03-3.835a7.6 7.6 0 0 1 2.06-2.232 11.4 11.4 0 0 1 4.408-2.003c.63-.115 1.202-.172 1.774-.23h.114c.802 0 1.546.115 2.232.401.916.344 1.66.973 2.29 1.775q.686.945.858 1.888c.115.515.115 1.03.115 1.317s0 .515-.058.801c.115-.115.23-.286.344-.4.458-.573.916-1.145 1.26-1.775.457-.744.8-1.43.972-2.118.343-1.03.286-1.888.286-1.888l5.838-.973s-.286 1.145-.458 1.774a10 10 0 0 1-.572 1.889 16 16 0 0 1-.916 2.003c-.63 1.144-1.43 2.117-2.29 2.976-.228.23-.457.4-.686.63.114.171.172.286.229.458.229.515.286 1.03.229 1.488.172-.401.4-.802.572-1.26.115-.286.286-.629.4-.915.173-.4.344-.744.516-1.145l.17-.343c0-.058.057-.115.057-.172l.286-.573.572-.114c.344-.057.744-.114 1.088-.172 0 0 .572-.114.687-.114.343-.057 2.289-.4 2.575-.4.916-.172 1.66 0 2.347.514.4.286.686.63.915 1.03a9.4 9.4 0 0 1 1.89-1.602 8.5 8.5 0 0 1 2.002-.859c1.088-.286 7.498-.457 7.498-.457l-.343.915a5.7 5.7 0 0 1 1.888-.858c.744-.172 1.431-.286 2.175-.229.343 0 .744.114 1.087.23.573.228 1.03.571 1.317 1.086 0-.057.057-.114.057-.114l.114-.172a.44.44 0 0 0 .115-.229c.057-.057.057-.114.114-.171l.401-.573h1.26c.858 0 1.66 0 2.403.057 0 0 3.491.115 3.663.115.229 0 .515 0 .744.057.229 0 .458 0 .687.057l1.832.058-.516 1.087a9.2 9.2 0 0 1 1.889-.687 8.2 8.2 0 0 1 1.66-.171 4.43 4.43 0 0 1 1.946.457c.343.172.63.344.858.573.515.458.801.973.973 1.66.114-.058.172-.115.286-.172.115-.115.286-.172.401-.286.744-.516 1.602-.859 2.461-1.088.63-.114 1.202-.172 1.831-.114.63.057 2.92.515 3.148.515l1.03.171c.115 0 .287.058.401.058.172 0 .287.057.458.114l1.889.344-.859 1.43q-.17.344-.343.516a.8.8 0 0 0-.172.229c-.114.171-.171.286-.286.4l-.744 1.088c-.114.171-.229.286-.286.458-.114.171-.286.4-.4.572l-.058.057c-.172.229-.286.458-.458.687s-.286.458-.458.63c-.171.229-.286.458-.458.687l.287 1.03c.057 0 .171.057.343.114.859.458 1.774.859 2.633 1.317l.343.171.172.344 1.431-.058s-.63.973-2.061 1.775c-.4.228-.915.457-1.488.572-.744.229-1.545.286-2.346.229a8.5 8.5 0 0 1-2.519-.573c-.114.172-.286.344-.458.516-.973 1.144-2.232 1.831-3.663 2.117-.744.115-1.488.172-2.175.115-.343-.058-.858-.115-1.373-.229-.515-.172-.973-.344-1.374-.63-.915-.572-1.43-1.488-1.545-2.575a3.42 3.42 0 0 1 .172-1.488 3.54 3.54 0 0 1 1.316-1.832c-.057 0-.172.058-.229.058a7.7 7.7 0 0 1-1.602.17h-.057c-.63 0-1.145-.113-1.66-.285-.744-.286-1.317-.687-1.775-1.26-.171.115-.343.287-.515.401-.458.287-.801.516-1.202.63-.687.286-1.43.4-2.175.286a2.8 2.8 0 0 1-.973-.343c-.629-.401-1.03-.973-1.144-1.717 0-.172-.058-.286-.058-.458-.17.286-.286.572-.458.858l-.114.287c-.057.171-.172.286-.229.458a1.34 1.34 0 0 1-1.202.743h-3.605l-.172-.4c-.4.172-.801.343-1.202.4-.858.23-1.774.172-2.632-.114-.63-.23-1.088-.515-1.431-.973-.344.286-.744.515-1.088.801-.286.229-.63.4-1.087.573a3.2 3.2 0 0 1-.973.171h-.058c-.343 0-.629-.057-.973-.228-.171-.058-.343-.172-.515-.287-.515.4-.973.63-1.545.802a3.75 3.75 0 0 1-1.946 0 2.5 2.5 0 0 1-1.66-1.26.43.43 0 0 1-.114-.228c-.4.457-.744.858-1.145 1.144a6.3 6.3 0 0 1-2.518 1.317c-.515.114-1.087.171-1.602.114-.172 0-.344-.057-.458-.057-.058.057-.058.171-.115.229l-1.889 4.521z" fill="#000"/><path d="M113.952 96.438v-.115c0-.229-.171-.4-.4-.458h-.229c-.172 0-.344.057-.515.115-.344.114-.687.343-.973.515-.801.572-1.431 1.316-1.946 2.175-.172.286-.286.572-.401.858-.057.172-.057.344-.057.515 0 .229.172.458.458.516.172.057.401 0 .572 0 .344-.115.687-.287 1.03-.458.687-.458 1.26-.973 1.717-1.66.287-.458.573-.916.744-1.431-.057-.115 0-.343 0-.572m-14.365 1.488v.114c0 .286.228.515.515.515.171 0 .286 0 .457-.057.229-.057.401-.172.63-.286a5 5 0 0 0 1.03-.801c.63-.573 1.088-1.26 1.431-2.061a3.8 3.8 0 0 0 .343-1.145v-.4c-.057-.172-.171-.287-.286-.287-.057 0-.171-.057-.229-.057-.114 0-.229.057-.4.057-.401.115-.744.344-1.088.573-.687.515-1.202 1.145-1.66 1.831a4.003 4.003 0 0 0-.629 1.317c-.057.286-.114.458-.114.687m5.379-4.465c.115-.171.229-.286.344-.458.286.058.63.115.916.172s.629.115.915.23c.287.056.63.113.916.228 0 .057-.057.114-.114.172-.401.572-.859 1.087-1.317 1.66-.572.744-1.144 1.545-1.717 2.289a.62.62 0 0 0-.171.4c-.058.287.114.63.515.63.171 0 .286-.057.458-.057a2.6 2.6 0 0 0 1.087-.63c.229-.229.458-.515.687-.801.458-.687.973-1.374 1.488-2.003.286-.344.572-.687.801-1.03.058-.058.115-.172.229-.23.058 0 .172.058.229.058.687.172 1.431.343 2.118.572.172.057.286.057.458.115 0 .114-.172.229-.172.343h.229c.172-.057.343-.057.515-.114 1.374-.115 2.404.744 2.575 1.946.115.572 0 1.087-.171 1.602a5.7 5.7 0 0 1-.973 1.603c-.744.858-1.603 1.431-2.633 1.831-.4.172-.858.229-1.316.286-.344 0-.687-.057-1.03-.114-.172-.057-.401-.057-.573-.172-.515-.171-.973-.515-1.202-1.03-.057 0-.114.057-.114.057-.401.515-.744 1.031-1.088 1.546-.572.744-1.087 1.488-1.66 2.289l-.114.114h-.115c-.858-.171-1.774-.343-2.632-.515-.058 0-.058 0-.115-.057l.344-.515a3 3 0 0 1 .343-.458 3 3 0 0 1 .343-.458c.115-.171.229-.343.344-.458l.343-.515c.115-.171.229-.343.344-.458.114-.171.229-.343.343-.457.115-.172.229-.344.343-.458.115-.172.229-.344.344-.458a3 3 0 0 1 .343-.458c-.057-.057-.114 0-.114 0-.344.229-.744.401-1.145.63-.286.114-.572.286-.858.343-.516.114-.973.057-1.374-.286-.401-.344-.572-.744-.515-1.26v-.057c-.057 0-.057.058-.115.058q-.687.6-1.545.858c-.858.229-1.66 0-2.346-.63-.23-.171-.344-.4-.458-.63-.172-.342-.23-.743-.23-1.086q-.084-.945.344-1.89c.287-.629.63-1.201 1.088-1.659.4-.4.858-.687 1.316-.973.401-.229.801-.4 1.259-.573a4.2 4.2 0 0 1 2.06 0c.115 0 .172.058.287.058.572.114 1.03.4 1.431.858.171-.057.171-.057.228 0" fill="#fff"/><path d="M105.024 95.293a2.1 2.1 0 0 1-.286.629 1.7 1.7 0 0 1-.229.458l.057-.057c.401-.515.744-1.03 1.145-1.546.114-.114.229-.286.286-.4h-.057c-.057 0-.115 0-.172-.058zm-4.693-1.202c-.4.229-.744.515-1.03.744-.343.343-.63.744-.858 1.316-.172.458-.287.916-.23 1.374q0 .344.172.686v-.286c0-.4.115-.744.172-1.03.172-.515.4-1.03.801-1.602.286-.401.63-.86.973-1.202m2.633 4.807v.344c0 .057 0 .114.114.229.058.057.115.057.172.057h.172l.515-.172c-.286-.4-.401-.915-.286-1.373a.44.44 0 0 1 .114-.287 8.705 8.705 0 0 1-.687.745c-.057.057-.114.057-.114.114zm11.847-1.087c-.171.4-.4.858-.744 1.316a7 7 0 0 1-.858 1.03 8.67 8.67 0 0 0 .744-.686c.343-.401.63-.86.744-1.26.057-.171.114-.286.114-.4m-10.531 5.895c.115 0 .172.057.286.057l.115-.115c.4-.572.801-1.087 1.202-1.659.229-.286.457-.63.686-.916l.401-.572a1.23 1.23 0 0 1 1.088-.63h.114c0-.229.057-.4.114-.63a4.72 4.72 0 0 1 .516-1.087c.629-1.03 1.373-1.888 2.289-2.518l.057-.057c-.229-.058-.458-.115-.629-.172-.172.229-.344.458-.515.63a28.537 28.537 0 0 0-1.431 1.946c-.287.4-.573.686-.859.972a3 3 0 0 1-.515.4l.172.173-2.461 3.434c-.058.114-.115.171-.229.286-.057.114-.115.172-.172.286zm-4.063 1.659l2.289-3.205c.057-.057.114-.171.172-.228l.057-.058a2.2 2.2 0 0 1-1.259-.629c-.115-.115-.286-.229-.401-.401-.229.115-.515.172-.744.229-1.26.286-2.404 0-3.376-.858-.344-.287-.573-.63-.745-1.088a6.3 6.3 0 0 1-.343-1.488c-.057-.801.115-1.66.4-2.404a7.5 7.5 0 0 1 1.317-2.06c.458-.458.973-.802 1.603-1.145.515-.286 1.03-.515 1.545-.63.858-.229 1.774-.229 2.69-.057 0 0 3.72.859 4.006.916.114 0 .172.057.286.057.229.057 2.633.63 2.633.63.057 0 1.66.4 2.347.63.114.057.229.057.343.114l.973.229c2.061.515 2.919 1.259 3.205 2.919.115.687.057 1.43-.229 2.175-.229.686-.629 1.316-1.202 2.003-.801.973-1.888 1.717-3.148 2.175a7.8 7.8 0 0 1-1.659.343c-.516 0-.973-.057-1.317-.114a16 16 0 0 1-.744-.172 9 9 0 0 1-.744-.344l-.343.516a32 32 0 0 1-1.26 1.659l-.915 1.259z" fill="#000"/><path d="M90.257 100.214c-.057 0-.057-.057-.114-.057-.687-.23-1.43-.343-2.118-.23-.458.058-.858.173-1.202.402-.286.172-.515.343-.686.572-.344.458-.458 1.03-.401 1.603 0 .171.114.4.229.572a.9.9 0 0 0 .458.343c.171.058.343.058.515.058.4-.058.744-.172 1.03-.458.23-.172.4-.344.572-.573.63-.686 1.145-1.43 1.66-2.174.057 0 .057 0 .057-.058m-40.235-7.84c0-.058 0-.173-.057-.344-.057-.229-.172-.344-.4-.286h-.115c-.115.057-.286.114-.4.171-.23.115-.459.344-.63.515-.23.23-.401.458-.63.744q-.858 1.203-1.373 2.576c-.115.4-.23.801-.287 1.202v.515q.087.344.515.344h.058c.229-.058.4-.172.572-.287.286-.228.572-.457.801-.744.801-.915 1.374-2.003 1.717-3.205.172-.343.23-.744.23-1.202m8.871-1.03c0-.058 0-.23-.057-.345-.057-.228-.229-.286-.458-.286a.44.44 0 0 0-.286.115c-.172.057-.343.171-.515.286-.458.343-.859.801-1.202 1.26-.458.686-.801 1.373-1.145 2.174a5.6 5.6 0 0 0-.343 1.317v.4c.057.172.114.286.229.344.057 0 .114.057.171.057.23 0 .401-.057.573-.172.229-.114.4-.286.63-.458.286-.229.515-.515.743-.858.687-.859 1.145-1.832 1.431-2.862.172-.286.23-.572.23-.973m26.671.056c0-.114 0-.229-.057-.343a.45.45 0 0 0-.229-.229c-.114-.057-.229-.057-.343-.057-.115.057-.23.057-.344.114-.229.057-.4.23-.63.343-.4.287-.743.63-1.087 1.03a8.5 8.5 0 0 0-1.316 2.176 4.2 4.2 0 0 0-.23.8c-.056.173-.056.344 0 .573.058.287.23.458.516.458.172 0 .344-.057.515-.114.287-.115.573-.286.802-.515 1.087-.973 1.888-2.118 2.231-3.549q.172-.257.172-.687m4.75 5.094c0 .115 0 .172.058.286.057.172.171.287.343.4.115.058.286.058.401.058.229-.057.4-.114.63-.229.286-.171.514-.343.743-.515.916-.801 1.546-1.717 2.004-2.862.114-.343.229-.63.229-.973v-.4c-.058-.172-.115-.286-.287-.286a.36.36 0 0 0-.343 0c-.172.057-.4.114-.572.171-.344.172-.63.344-.859.573-.687.572-1.202 1.259-1.66 2.06-.229.4-.4.801-.515 1.259-.114.115-.114.286-.172.458m.401 3.09c.23-.4.401-.743.63-1.087h-.115c-.4.115-.744.172-1.145.115-.286 0-.514-.057-.743-.172-.458-.171-.802-.515-1.03-.916a1.93 1.93 0 0 1-.287-.973c-.057-.686.057-1.316.286-1.946.115-.229.23-.515.344-.744.057-.114.114-.171.171-.229s.058-.114.115-.171c-.687.171-.859.114-1.26 0 0 .057-.056.114-.056.171-.287.859-.687 1.66-1.374 2.29l-.286.286a5 5 0 0 1-2.461 1.374 5.7 5.7 0 0 1-1.374.171c-.457 0-.858-.057-1.26-.229-.857-.286-1.372-.858-1.601-1.717 0-.114-.058-.171-.058-.286l-.057-.057c-.057.057-.114.114-.172.114-.457.4-.915.802-1.488 1.145-.343.229-.63.4-.973.515a2.43 2.43 0 0 1-1.545.172 1.1 1.1 0 0 1-.572-.172c-.344-.171-.516-.458-.573-.858-.057-.458.057-.859.23-1.26.171-.343.343-.63.514-.972l.172-.344c-.057-.057-.057-.057-.115 0-.228.057-.457.172-.686.229-.287.114-.63.172-.973.172-.229 0-.458-.058-.687-.115-.057.057-.115.115-.115.172l-1.202 2.404c-.114.172-.17.4-.286.572-.057.058-.057.115-.171.115H67.65c-.057-.057 0-.115.057-.172.287-.515.573-1.087.802-1.603.057-.057.057-.114.114-.229-.115.058-.172.115-.229.172-.343.344-.744.63-1.145.916-.63.458-1.316.801-2.06.973a3.23 3.23 0 0 1-1.946-.057 2.44 2.44 0 0 1-1.144-.859 6 6 0 0 1-.287-.63c0-.057 0-.057-.057-.114-.057.057-.114.057-.172.115-.63.515-1.259 1.03-1.946 1.488a3.7 3.7 0 0 1-.801.458c-.172.057-.4.114-.63.114-.171 0-.343-.057-.515-.114-.343-.172-.515-.401-.629-.744 0-.172-.057-.287-.057-.458-.058 0-.058.057-.115.114a3.5 3.5 0 0 1-.916.916 3.2 3.2 0 0 1-1.144.63 2.8 2.8 0 0 1-1.374 0 1.7 1.7 0 0 1-.973-.687 2.5 2.5 0 0 1-.343-.916c-.058-.343-.115-.687-.057-.973v-.23c-.058 0-.058 0-.115.058l-.859.859c-.057.057-.114.114-.171.229-.458.629-.916 1.202-1.488 1.66-.63.515-1.26.858-2.06 1.03-.401.114-.86.114-1.26.114-.171 0-.343-.057-.572-.114-.23-.058-.458-.172-.572-.344-.057.058-.057.115-.115.172-.286.63-.515 1.259-.801 1.889-.401.973-.801 2.003-1.26 2.976-.056.057-.056.171-.114.229-.515.114-1.03.171-1.488.286-.515.057-1.03.229-1.545.286 0-.115 0-.172.057-.229.4-.859.744-1.717 1.145-2.575.4-.916.801-1.775 1.144-2.69 0-.058.058-.115.058-.172l-.172.172c-.4.4-.859.801-1.374 1.144a7.4 7.4 0 0 1-1.144.63 3.7 3.7 0 0 1-1.145.172c-.172 0-.286-.058-.458-.115-.458-.172-.687-.515-.801-.973a1.9 1.9 0 0 1 0-.801q.257-1.116.686-2.232c.115-.344.287-.744.401-1.088.057-.229.115-.458 0-.687-.057-.228-.229-.4-.4-.515-.058 0-.115.058-.115.058-.687.457-1.43.858-2.175 1.259a.7.7 0 0 0-.286.286c-.63 1.488-1.259 2.919-1.889 4.407-.171.401-.343.801-.515 1.259-.057.114-.114.172-.229.172-1.144.286-2.289.572-3.376.858-.115 0-.172.057-.287.057 0-.057 0-.114.058-.171.4-.859.744-1.717 1.144-2.633l1.889-4.121c.458-.916.858-1.889 1.316-2.804.172-.401.344-.802.516-1.26.457-1.03.457-2.117.114-3.205a4.3 4.3 0 0 0-.515-1.03c-.4-.572-.973-.858-1.66-.973a3.6 3.6 0 0 0-1.717.23c-.801.285-1.488.743-2.003 1.43-.4.458-.687 1.03-.859 1.602-.229.63-.286 1.317-.229 2.004.058.63.23 1.202.573 1.717.114.229.286.4.515.572.114.115.286.172.458.229a.96.96 0 0 0 .687-.057c.4-.172.744-.515.915-.916.115-.286.172-.572.23-.858.056-.745-.058-1.431-.287-2.118-.172-.573-.4-1.145-.63-1.66 0-.057-.057-.057-.057-.115h.115c.572.115 1.202.287 1.774.458.343.115.744.172 1.087.287 0 0 .058 0 .115.057 0 .057.057.114.057.171.057.458.115.973.057 1.431-.057.744-.286 1.431-.63 2.118-.343.573-.743 1.03-1.316 1.374a5.3 5.3 0 0 1-2.232.858c-.515.058-1.03.058-1.488-.114-.801-.23-1.373-.801-1.717-1.545a3.4 3.4 0 0 1-.286-1.317c-.057-1.145.229-2.175.858-3.148a6.8 6.8 0 0 1 1.718-1.889c1.144-.858 2.46-1.488 3.891-1.774a7.2 7.2 0 0 1 1.603-.171q.945 0 1.889.343c.744.286 1.259.744 1.717 1.374.343.457.572.915.686 1.487.058.344.115.745.115 1.145 0 .63-.115 1.26-.229 1.832-.172.63-.344 1.259-.63 1.831v.058c.058.057.058 0 .115 0 1.26-.63 2.29-1.546 3.205-2.633q.772-.859 1.374-1.889c.458-.744.858-1.545 1.144-2.404.115-.4.23-.744.23-1.144v-.115l1.03-.172 1.03-.171 1.03-.172c.057.057.057.115 0 .115a10 10 0 0 1-.515 1.716 10.7 10.7 0 0 1-.859 1.832 13.4 13.4 0 0 1-2.06 2.69c-.458.458-.973.858-1.488 1.26-.057.056-.115.056-.115.114l.172.171c.286.23.572.515.744.859.172.4.229.744.057 1.145-.057.228-.171.457-.229.744-.171.515-.343 1.03-.515 1.602-.057.229-.114.515-.171.744v.4c0 .058.057.173.114.23.172.114.343.172.515.114a1.2 1.2 0 0 0 .344-.229c.343-.286.686-.63.973-1.03.515-.63.915-1.373 1.259-2.118s.687-1.488.973-2.175c.229-.515.458-.973.687-1.488.057-.057.057-.114.114-.229.458-.114.916-.171 1.374-.229.457-.057.915-.171 1.373-.229v.115c-.057.114-.057.172-.114.286 0 .057 0 .057-.058.115.172-.115.344-.23.458-.287.344-.286.744-.4 1.202-.515.515-.057.973-.057 1.431.286.343.23.572.573.687.973.114.458.171.859.114 1.317-.057.4-.114.858-.286 1.259v.115c.057 0 .057-.058.114-.058l.115-.114c.23-.172.343-.344.458-.63.286-.744.744-1.373 1.26-1.946a7.9 7.9 0 0 1 1.659-1.43c.515-.287 1.03-.573 1.66-.688.343-.057.686-.114 1.03-.114.515 0 .916.172 1.259.515l.057.057c.172-.229.229-.458.344-.686.286-.058 2.518-.229 2.747-.172 0 .057 0 .057-.057.114-.115.23-.172.401-.286.63a55 55 0 0 0-1.489 3.205c-.171.4-.343.801-.515 1.145-.057.114-.114.229-.114.343s-.057.172-.057.286c0 .287.171.401.458.344.057 0 .114-.057.171-.057.115-.058.229-.115.344-.23.229-.171.4-.343.629-.514.057-.058.115-.115.115-.172a10 10 0 0 1 .8-2.175c.23-.458.516-.859.802-1.202.744-.859 1.66-1.43 2.747-1.774a4.9 4.9 0 0 1 1.832-.172q.344 0 .686.172.945.343 1.03 1.373v.401c0 .114 0 .229-.056.343-.058.058-.058.058-.115.058-.744.4-1.488.801-2.232 1.144-.057 0-.115.058-.172.058-.057-.058 0-.115 0-.115.115-.229.23-.458.287-.744.114-.343.228-.687.286-1.088v-.4a.43.43 0 0 0-.401-.286c-.172 0-.343.114-.458.171a3.024 3.024 0 0 0-.801.687c-.458.515-.801 1.088-1.088 1.717-.114.286-.228.573-.285.859-.172.458-.172.858-.115 1.316 0 .115.057.229.057.344.115.343.344.572.801.629.287 0 .516 0 .802-.114.343-.115.686-.286 1.03-.458.744-.458 1.43-.973 2.003-1.66.171-.229.343-.458.515-.744.572-1.03 1.144-2.06 1.774-3.09.057-.115.172-.287.23-.401.056-.058.056-.115.114-.172.972 0 1.945 0 2.976.057 0 .057 0 .057-.058.115-.457.858-.973 1.717-1.43 2.575-.172.286-.344.63-.516.916 0 .057-.057.114-.057.172.115 0 .172.057.286.057a3.1 3.1 0 0 0 1.89-.458 1.35 1.35 0 0 0 .4-.4c.515-.916 1.087-1.775 1.602-2.633.058-.115.115-.172.172-.287.458 0 .916.058 1.374.058s.916.057 1.374.057c-.058.057-.058.114-.058.171-.171.287-.343.573-.458.86a127.86 127.86 0 0 0-1.545 2.861c-.286.515-.515.973-.801 1.488-.058.172-.115.286-.172.458v.229c.057.172.172.229.343.229.115 0 .172-.057.287-.115.114-.057.229-.114.343-.229.172-.114.286-.286.458-.4.172-.23.343-.458.572-.63.058-.057.115-.114.115-.229a5.9 5.9 0 0 1 1.202-2.289c.343-.4.744-.802 1.202-1.145a6.855 6.855 0 0 1 2.003-.859c.458-.114.915-.114 1.373-.114q.772 0 1.546.343c.228.115.4.23.572.401.343.286.515.63.63 1.088.057.171.057.4.057.572v.286c.4.23.744.286 1.201.172.172-.057.344-.172.516-.286.228-.172.515-.344.744-.515a4.66 4.66 0 0 1 2.06-.859C92.432 91 92.89 91 93.405 91c.573.058 1.145.23 1.603.63.114.115.229.23.343.401l.057-.057c.115-.172.287-.344.401-.516.229 0 .458.058.687.115s.458.057.687.114c.229.058.458.058.687.115s.458.057.686.114c-.171.23-.343.458-.457.687-.172.23-.287.458-.458.687s-.286.458-.458.63c-.172.228-.286.457-.458.686s-.286.458-.458.687-.286.458-.458.687-.286.458-.458.687c-.171.229-.286.458-.458.687-.171.229-.286.458-.458.687-.171.228-.286.457-.457.686-.115.229-.287.458-.401.687-.172.229-.286.458-.458.687s-.286.458-.458.687l.057.057c.458.172.916.229 1.431.229a2.47 2.47 0 0 0 1.603-.744l.114-.115h.115c.858.458 1.774.859 2.633 1.317v.057c-.058.057-.115.114-.172.114a4.8 4.8 0 0 1-1.26.515c-.629.172-1.258.229-1.945.172-.744-.057-1.488-.229-2.232-.458-.23-.057-.458-.171-.687-.229-.058 0-.115-.057-.229-.057-.058.057-.115.115-.115.229-.229.343-.458.687-.744.973-.8.916-1.774 1.488-3.033 1.717-.63.114-1.26.172-1.832.114-.4-.057-.743-.057-1.144-.171-.344-.115-.744-.229-1.03-.458q-.945-.601-1.03-1.717c-.058-.343.057-.687.114-1.03q.429-1.288 1.717-1.717c.4-.115.801-.23 1.202-.23h1.202c.744.058 1.43.173 2.117.401.172.058.401.115.572.172.516-.4.573-.343.63-.343" fill="#fff"/><path d="M113.952 96.438v-.115c0-.229-.171-.4-.4-.458h-.229c-.172 0-.344.057-.515.115-.344.114-.687.343-.973.515-.801.572-1.431 1.316-1.946 2.175-.172.286-.286.572-.401.858-.057.172-.057.344-.057.515 0 .229.172.458.458.516.172.057.401 0 .572 0 .344-.115.687-.287 1.03-.458.687-.458 1.26-.973 1.717-1.66.287-.458.573-.916.744-1.431-.057-.115 0-.343 0-.572m-14.365 1.488v.114c0 .286.228.515.515.515.171 0 .286 0 .457-.057.229-.057.401-.172.63-.286a5 5 0 0 0 1.03-.801c.63-.573 1.088-1.26 1.431-2.061a3.8 3.8 0 0 0 .343-1.145v-.4c-.057-.172-.171-.287-.286-.287-.057 0-.171-.057-.229-.057-.114 0-.229.057-.4.057-.401.115-.744.344-1.088.573-.687.515-1.202 1.145-1.66 1.831a4.003 4.003 0 0 0-.629 1.317c-.057.286-.114.458-.114.687m5.379-4.465c.115-.171.229-.286.344-.458.286.058.63.115.916.172s.629.115.915.23c.287.056.63.113.916.228 0 .057-.057.114-.114.172-.401.572-.859 1.087-1.317 1.66-.572.744-1.144 1.545-1.717 2.289a.62.62 0 0 0-.171.4c-.058.287.114.63.515.63.171 0 .286-.057.458-.057a2.6 2.6 0 0 0 1.087-.63c.229-.229.458-.515.687-.801.458-.687.973-1.374 1.488-2.003.286-.344.572-.687.801-1.03.058-.058.115-.172.229-.23.058 0 .172.058.229.058.687.172 1.431.343 2.118.572.172.057.286.057.458.115 0 .114-.172.229-.172.343h.229c.172-.057.343-.057.515-.114 1.374-.115 2.404.744 2.575 1.946.115.572 0 1.087-.171 1.602a5.7 5.7 0 0 1-.973 1.603c-.744.858-1.603 1.431-2.633 1.831-.4.172-.858.229-1.316.286-.344 0-.687-.057-1.03-.114-.172-.057-.401-.057-.573-.172-.515-.171-.973-.515-1.202-1.03-.057 0-.114.057-.114.057-.401.515-.744 1.031-1.088 1.546-.572.744-1.087 1.488-1.66 2.289l-.114.114h-.115c-.858-.171-1.774-.343-2.632-.515-.058 0-.058 0-.115-.057l.344-.515a3 3 0 0 1 .343-.458 3 3 0 0 1 .343-.458c.115-.171.229-.343.344-.458l.343-.515c.115-.171.229-.343.344-.458.114-.171.229-.343.343-.457.115-.172.229-.344.343-.458.115-.172.229-.344.344-.458a3 3 0 0 1 .343-.458c-.057-.057-.114 0-.114 0-.344.229-.744.401-1.145.63-.286.114-.572.286-.858.343-.516.114-.973.057-1.374-.286-.401-.344-.572-.744-.515-1.26v-.057c-.057 0-.057.058-.115.058q-.687.6-1.545.858c-.858.229-1.66 0-2.346-.63-.23-.171-.344-.4-.458-.63-.172-.342-.23-.743-.23-1.086q-.084-.945.344-1.89c.287-.629.63-1.201 1.088-1.659.4-.4.858-.687 1.316-.973.401-.229.801-.4 1.259-.573a4.2 4.2 0 0 1 2.06 0c.115 0 .172.058.287.058.572.114 1.03.4 1.431.858.171-.057.171-.057.228 0" fill="#fff"/></svg>