<svg xmlns="http://www.w3.org/2000/svg" xmlns:xlink="http://www.w3.org/1999/xlink" width="316.228" height="316.228" viewBox="0 0 199.914 199.914"><clipPath id="b"><path d="M0 1000h1000V0H0z"/></clipPath><clipPath id="c"><path d="M342.64 872.496c-48.141-20.363-91.374-49.511-128.499-86.637S147.866 705.5 127.504 657.36C106.422 607.517 95.733 554.574 95.733 500s10.689-107.517 31.771-157.361c20.362-48.14 49.511-91.373 86.637-128.499s80.358-66.275 128.499-86.635C392.483 106.422 445.426 95.733 500 95.733s107.517 10.689 157.36 31.772c48.141 20.36 91.374 49.51 128.5 86.635 37.125 37.126 66.274 80.359 86.636 128.499 21.082 49.844 31.771 102.787 31.771 157.361s-10.689 107.517-31.771 157.36c-20.362 48.14-49.511 91.374-86.636 128.499-37.126 37.126-80.359 66.274-128.5 86.637-49.843 21.082-102.786 31.771-157.36 31.771s-107.517-10.689-157.36-31.771M105.113 500c0 217.742 177.146 394.887 394.887 394.887S894.887 717.742 894.887 500 717.742 105.113 500 105.113 105.113 282.259 105.113 500"/></clipPath><linearGradient id="a"><stop offset="0" stop-color="#934530"/><stop offset=".1" stop-color="#934530"/><stop offset=".5" stop-color="#ec7762"/><stop offset=".9" stop-color="#8f412b"/><stop offset="1" stop-color="#8f412b"/></linearGradient><linearGradient xlink:href="#a" id="d" x2="1" gradientTransform="matrix(808.53375 0 0 -808.53375 95.733 500)" gradientUnits="userSpaceOnUse"/><clipPath id="e"><path d="M391.739 756.259c-33.12-14.008-62.862-34.06-88.399-59.599-25.539-25.538-45.591-55.28-59.599-88.4-14.506-34.295-21.861-70.72-21.861-108.26s7.355-73.965 21.861-108.262c14.008-33.119 34.06-62.86 59.599-88.398 25.537-25.539 55.279-45.591 88.399-59.599C426.036 229.234 462.46 221.88 500 221.88s73.965 7.354 108.26 21.861c33.12 14.008 62.863 34.06 88.4 59.599 25.539 25.538 45.591 55.279 59.599 88.398C770.765 426.035 778.12 462.46 778.12 500s-7.355 73.965-21.861 108.26c-14.008 33.12-34.06 62.862-59.599 88.4-25.537 25.539-55.28 45.591-88.4 59.599-34.295 14.505-70.72 21.861-108.26 21.861s-73.964-7.356-108.261-21.861M246.602 500c0 139.724 113.673 253.398 253.398 253.398 139.724 0 253.399-113.674 253.399-253.398 0-139.725-113.675-253.398-253.399-253.398-139.725 0-253.398 113.673-253.398 253.398"/></clipPath><linearGradient xlink:href="#a" id="f" x2="1" gradientTransform="matrix(556.24036 0 0 -556.24036 221.88 500)" gradientUnits="userSpaceOnUse"/><g clip-path="url(#b)" transform="matrix(.2261 0 0 -.2261 -13.094 213.008)"><path fill="#fff" d="M500 67.912c-58.327 0-114.915 11.426-168.19 33.96-51.456 21.763-97.664 52.917-137.343 92.596-39.679 39.678-70.832 85.887-92.596 137.34C79.337 385.085 67.912 441.673 67.912 500s11.425 114.915 33.96 168.19c21.763 51.455 52.916 97.664 92.595 137.343s85.887 70.833 137.342 92.596c53.276 22.534 109.864 33.96 168.191 33.96s114.915-11.426 168.191-33.96c51.454-21.763 97.663-52.917 137.342-92.596 39.678-39.68 70.833-85.888 92.595-137.342 22.535-53.276 33.96-109.864 33.96-168.191s-11.425-114.915-33.96-168.192c-21.762-51.453-52.917-97.662-92.595-137.34-39.68-39.68-85.888-70.833-137.342-92.596-53.276-22.534-109.864-33.96-168.19-33.96"/><g fill="#2b2b2b"><path d="M500 942.088c-59.673 0-117.57-11.692-172.087-34.75-52.646-22.267-99.923-54.14-140.517-94.735s-72.467-87.87-94.735-140.517C69.603 617.571 57.912 559.672 57.912 500s11.691-117.572 34.75-172.087c22.267-52.646 54.14-99.923 94.734-140.517s87.871-72.468 140.517-94.735C382.43 69.603 440.327 57.911 500 57.911s117.571 11.692 172.087 34.75c52.646 22.267 99.923 54.141 140.517 94.735s72.467 87.871 94.735 140.517c23.058 54.515 34.75 112.414 34.75 172.087s-11.692 117.571-34.75 172.086c-22.268 52.646-54.14 99.923-94.735 140.517s-87.87 72.468-140.517 94.735c-54.516 23.058-112.414 34.75-172.087 34.75m0-20c233.113 0 422.088-188.976 422.088-422.088S733.113 77.911 500 77.911 77.912 266.887 77.912 500.001c0 233.111 188.975 422.087 422.088 422.087"/><path d="M414.675 671.286c68.583-20.261 114.338-88.657 102.613-164.301 23.773-20.166 51.171-32.168 82.497-35.016 31.291-2.846 60.474 3.932 87.747 19.4-42.243-42.485-126.134-59.412-192.402-6.62-48.084-14.606-99.37-66.518-98.788-139.776-5.483 8.479-5.423 47.396.141 69.23 5.915 23.213 16.87 43.767 32.818 61.626 15.954 17.864 35.203 30.996 57.49 39.52 11.134 49.695-8.575 120.014-72.116 155.937"/><path d="M360.015 424.41c-16.878 73.179 24.476 145.347 91.446 169.957l7.704-29.69c-62.935-25.8-95.764-72.544-99.15-140.267m243.641 73.74l-29.75 8.268c9.063 67.862-15.268 119.624-72.736 156.446 34.3-10.951 61.55-30.935 80.946-61.09 20.305-31.566 26.975-66.13 21.54-103.624m-158.737-84.03l21.264 21.976c53.806-41.498 110.643-46.618 170.56-15.797-50.614-49.116-136.043-52.963-191.824-6.179m-69.191-247.146l10.45 28.344 8.505-3.1-10.325-28.432 21.593-6.465 5.772 28.651 9.214-1.829c-1.325-6.775-2.596-13.267-3.863-19.76-.2-1.019-.45-2.035-.56-3.065-.426-3.988 1.858-7.2 5.508-7.816 3.442-.58 6.993 1.966 7.765 5.714 1.318 6.407 2.542 12.833 3.815 19.248.18.91.409 1.809.68 3.006l8.886-1.717c-.76-4.059-1.46-7.907-2.205-11.746-.673-3.467-1.415-6.921-2.096-10.386-.761-3.876 1.76-7.821 5.435-8.551 3.596-.715 7.195 1.729 8.049 5.698 1.332 6.193 2.505 12.421 3.757 18.633.224 1.109.502 2.207.815 3.573l8.792-1.707-5.674-29.027 20.848-1.288 2.282 45.879 9.154-.561-2.546-53.461c-8.065 0-15.84-.013-23.613.014-1.14.004-2.276.266-3.417.301-3.542.109-6.878.66-9.055 4.109-8.531-3.659-15.913-2.583-21.658 5.047-8.04-4.611-15.978-3.007-21.604 3.344-3.486-2.122-7.035-1.152-10.7-.087-27.664 8.032-54.001 19.186-79.057 33.383-1.176.666-2.326 1.377-3.477 2.086-.165.102-.263.312-.642.781l26.5 46.951 7.948-4.481-21.83-38.722c14.588-9.415 30.24-16.379 46.554-22.561m134.589 673.458c4.822 0 9.182-.373 13.441.116 3.493.402 5.08 2.815 5.147 6.019.07 3.205-1.446 5.536-4.944 6.219-4.103.8-8.326.98-12.742 1.456zm-1.14-23.511c1.146-.175 2.243-.503 3.333-.48 4.221.088 8.516-.15 12.634.58 3.452.614 4.868 3.546 4.745 7.412-.104 3.304-1.52 5.44-5.088 6.094-4.826.884-9.759 1.19-14.93 1.776-.303-5.103-.568-9.53-.817-13.955-.022-.394.064-.794.122-1.427m-10.612-8.132l3.27 54.359c3.718-.223 7.307-.39 10.89-.663 4.968-.38 10.003-.454 14.882-1.353 8.124-1.498 12.301-7.755 11.056-15.675-.676-4.3-3.052-6.854-8.988-9.587.535-.27.975-.55 1.453-.724 5.67-2.072 8.472-6.376 8.608-12.152.14-5.96-2.327-10.897-8.098-13.211-3.117-1.25-6.626-2.126-9.955-2.117-7.563.02-15.124.693-23.118 1.123m224.522-51.98c3.527-2.84 6.73-5.803 10.317-8.19 2.924-1.945 5.982-1.145 8.082 1.332 2.08 2.454 2.303 5.16.033 7.947-2.667 3.272-5.72 6.23-8.76 9.49zm-15.93-17.663c3.42-2.927 6.582-5.748 9.884-8.396 1.01-.812 2.356-1.312 3.628-1.672 3.007-.853 5.527.305 7.723 3.272 1.75 2.365 2.05 4.976.162 7.153-3.41 3.93-7.16 7.564-10.856 11.413-3.482-3.811-6.488-7.096-9.485-10.39-.273-.298-.496-.643-1.055-1.38m23.658 40.818c5.7-5.211 11.248-10.094 16.55-15.232 1.827-1.77 3.352-4.02 4.468-6.316 2.286-4.703 1.723-9.307-1.547-13.46-3.222-4.092-7.437-5.465-12.49-4.368-.686.148-1.36.35-2.316.6.738-1.828 1.58-3.35 1.972-4.98 2.426-10.08-7.113-19.305-17.203-16.515-2.648.732-5.411 1.89-7.51 3.602-6.353 5.18-12.406 10.728-18.784 16.315zm-335.388 59.363l3.72-13.375c4.175 1.34 8.107 2.31 11.79 3.865 3.56 1.505 4.817 4.633 3.834 7.88-.955 3.156-3.515 4.883-7.317 4.296-3.965-.613-7.855-1.719-12.027-2.666m5.844-21.122c1.34-5.003 2.48-9.294 3.647-13.579.13-.476.399-.915.698-1.583 3.87 1.136 7.644 2.154 11.35 3.38 1.346.443 2.639 1.237 3.763 2.118 2.768 2.17 3.39 4.868 2.14 8.346-1.106 3.08-3.202 4.79-6.68 4.321-4.877-.656-9.674-1.916-14.918-3.003m-3.136-26.063l-14.387 52.492c1.794.552 3.42 1.11 5.076 1.552 6.024 1.608 12.027 3.316 18.105 4.69 2.175.49 4.602.484 6.809.101 5.13-.89 8.636-3.89 10.11-9.017 1.393-4.84.359-9.03-3.371-12.49-.38-.353-.746-.72-1.108-1.092-.067-.069-.084-.188-.238-.557.492-.087.924-.22 1.359-.23 5.728-.129 9.69-2.948 11.806-8.153 2.219-5.462 1.772-10.804-2.613-14.992-2.42-2.31-5.404-4.438-8.525-5.522-7.436-2.584-15.104-4.498-23.023-6.782m167.678-610.765c.569-2.033 1.065-3.72 1.508-5.418.259-.992.434-2.005.672-3.126-4.046-2.28-6.438-5.55-6.28-10.326.173-5.275 5.504-10.478 10.674-9.514 7.41 1.38 14.673 3.547 22.242 5.438-1.114 4.387-1.953 8.447-3.183 12.385-2.825 9.039 2.92 18.223 11.779 20.027 3.723.757 7.386 1.81 11.259 2.774l9.53-37.074-8.892-2.278-7.247 27.86c-6.37-.268-8.942-3.616-7.46-9.355 1.61-6.234 3.186-12.476 4.762-18.718.171-.678.244-1.381.414-2.376-10.595-2.638-20.968-5.65-31.526-7.721-9.513-1.867-18.31 4.522-20.93 14.16-2.638 9.708 1.721 18.99 10.63 22.614.57.23 1.172.374 2.047.648m127.05 10.371l-29.173 45.121 7.688 4.918 24.135-37.274c14.677 9.11 28.104 19.521 40.874 31.298l-19.532 21.834c2.203 1.99 4.353 3.93 6.767 6.108 8.572-9.546 17.03-18.966 25.72-28.64-17.39-16.284-36.04-30.58-56.48-43.365M271.783 784.644l8.143 5.593 12.345-17.66 20.576 14.317-12.279 17.744 8.09 5.634 31.103-44.665-8.053-5.677c-4.52 6.449-9.018 12.863-13.717 19.565l-20.566-14.281 13.582-19.648-8.078-5.653zm80.624 10.754l13.542 6.257-15.374 16.03c.433-7.075.85-13.982 1.295-20.887.024-.377.276-.74.537-1.4m.166-9.318l.586-13.36-9.92-4.597-1.296 59.376 7.697 3.545 44.123-39.59-10.216-4.738-9.846 9.099zm109.341 62.572c-1.741-6.323-3.36-12.177-4.958-18.036-.32-1.173-.56-2.367-.95-4.034l16.254 1.626c-3.031 6.097-5.882 11.844-8.748 17.584-.41.818-.891 1.6-1.598 2.86m-8.505-30.914l-3.678-12.788-10.943-1.198 17.97 56.574 8.477.89 28.874-51.721-11.18-1.174-6.361 11.785zm225.493-1.834l8.31-5.439c-5.024-7.734-9.884-15.216-14.743-22.7-1.303-2.006-2.642-3.99-3.894-6.028-3.982-6.485-2.64-12.808 3.52-16.773 6.102-3.927 12.45-2.584 16.738 3.77 4.422 6.551 8.651 13.232 12.963 19.856 1.81 2.781 3.618 5.563 5.666 8.714l8.283-5.38c-5.264-8.103-10.389-16.022-15.55-23.918-1.707-2.61-3.276-5.36-5.306-7.7-7.992-9.216-20.788-9.67-30.674-1.253-8.033 6.84-10.409 17.058-5.193 25.808 6.22 10.435 13.08 20.488 19.88 31.043m-379.622-609l18.154 22.837 7.12-5.684-23.724-29.944c-.555.304-1.092.534-1.56.863-13.202 9.285-25.982 19.097-37.812 30.11-5.627 5.24-7.748 11.6-5.759 18.936 2.006 7.397 6.694 12.663 14.345 14.624 5.523 1.416 10.648.213 15.488-3.301l-5.196-6.622c-2.123.349-4.136.999-6.129.942-4.189-.122-7.313-2.221-8.972-6.132-1.643-3.87-1.356-7.692 1.7-10.69 9.822-9.64 20.698-17.99 32.344-25.94M265.31 712.62v9.805c1.267 0 2.268-.055 3.26.01 5.386.346 9.196 3.02 11.314 7.959 1.047 2.442.938 4.88-.897 7.016-1.794 2.087-3.991 3.008-6.678 1.996-2.904-1.094-5.741-2.369-8.651-3.446-2.807-1.039-5.605-2.319-8.522-2.808-9.033-1.515-17.628 7.34-16.036 17.753 1.276 8.35 10.925 18.005 19.36 19.013.903.107 1.83.014 2.953.014v-9.928c-4.353.217-7.833-1.584-10.581-4.828a12.6 12.6 0 0 1-1.807-2.882c-1.088-2.38-.794-4.624.884-6.695 1.676-2.07 3.9-2.5 6.19-1.692 3.222 1.136 6.273 2.748 9.478 3.937 2.8 1.039 5.668 2.284 8.586 2.55 8.249.75 16.088-7.137 16.146-15.921.083-12.651-15.311-24.131-25-21.852m356.419 121.763l-8.27-3.083c-.337.199-.593.259-.677.413-3.632 6.651-9.425 9.172-16.696 8.394-7.622-.817-12.41-5.427-15.087-12.341-4.541-11.732.75-23.067 12.05-26.113 4.338-1.169 8.208-.037 11.883 2.234.341.211.718.363 1.312.659l5.82-7.25c-4.345-5.452-15.822-7.211-26.198-2.681-12.12 5.292-18.527 16.721-16.515 29.791 2.059 13.373 11.887 23.597 23.941 24.906 12.754 1.385 24.379-4.637 28.437-14.929m57.894-651.194c-12.522-6.192-24.693-12.208-37.206-18.394l-4.12 8.1L666.646 187c-3.698 6.614-8.415 11.542-16.003 12.402-7.413.84-13.074-3.219-18.6-7.807l-3.827 7.572c6.498 8.072 21.12 14.825 34.952 4.916 7.389-5.293 12.248-12.57 16.454-20.894m-499.276 321.56c5.127-.036 8.625 3.27 8.641 8.17.017 4.893-3.499 8.319-8.534 8.319-5.019-.001-8.529-3.465-8.483-8.37.046-4.803 3.43-8.084 8.375-8.12m-.138-24.256h-9.06l11.07 17.348h-3.147c-8.444-.001-14.01 5.248-14.869 14.024-.744 7.606 4.622 14.707 12.295 16 5.527.93 10.877.358 15.271-3.524 5.567-4.92 5.814-11.203 3.881-17.772-.634-2.156-1.779-4.212-2.964-6.147-4.072-6.648-8.264-13.221-12.477-19.93m456.829 355.334l8.958-4.134-18.79-41.367 20.925-9.613-3.7-8.111-29.97 13.635zM818.66 508.578l-.526.118-10.38-17.04h10.906zm.14-34.556v10.118h-18.88c-.438 4.083-.43 7.53 1.865 11.004 5.561 8.415 10.717 17.097 16.106 25.784h8.451v-29.344l6.255-.315v-6.987h-6.153v-10.26zm51.375 46.84c.32-3.042.462-5.91-.883-8.837-5.337-11.613-10.51-23.302-15.75-34.96-.462-1.026-.986-2.026-1.511-3.1h-8.544l18.15 39.872h-20.821v7.025zM502.544 190.109h9.063l1.213-53.316h-9.062zM149.857 527.642v-47.105h-7.54v36.346l-7.201-5.903-4.652 5.743c4.322 3.5 8.246 7.088 12.62 10.005 1.646 1.098 4.332.637 6.773.913M718.1 269.356c.082-2.773-2.247-5.179-5.032-5.199-2.654-.019-4.9 2.204-4.957 4.907-.061 2.846 1.89 4.973 4.678 5.1 2.952.133 5.225-1.924 5.31-4.808M271.34 210.822c2.634.041 4.936-2.255 4.994-4.983.06-2.804-2.006-4.953-4.824-5.017-2.845-.064-5.056 1.94-5.18 4.693-.127 2.81 2.188 5.263 5.01 5.307m102.89-56.71c2.853-.017 4.958-2.088 4.947-4.87-.01-2.697-2.345-5.117-4.897-5.076-2.933.048-5.16 2.318-5.092 5.188.067 2.838 2.12 4.774 5.041 4.757m229.628-6.365c2.338-.09 4.263-2.245 4.11-4.604-.136-2.136-2.275-4.058-4.443-3.994-2.18.064-4.127 2.095-4.135 4.311-.007 2.283 2.172 4.373 4.468 4.286m-5.837-6.795c.025-2.291-2.107-4.325-4.468-4.261-2.166.059-4.182 2.149-4.144 4.298.038 2.188 2.004 4.183 4.192 4.256 2.348.079 4.392-1.907 4.42-4.293"/><path d="M446.185 197.509c-.095-2.457-1.766-4.078-4.174-4.051-2.388.028-4.239 2.035-4.129 4.478.098 2.184 2.112 4.131 4.254 4.111 2.384-.022 4.148-1.998 4.05-4.538m-11.009-2.926c2.345.03 4.153-1.683 4.245-4.023.098-2.486-1.73-4.464-4.144-4.485-2.22-.021-4.185 1.855-4.27 4.072-.092 2.433 1.76 4.405 4.169 4.436m10.193-10.587c-2.574-.052-4.365 1.668-4.34 4.168.024 2.418 1.648 4.041 4.091 4.09 2.457.048 4.243-1.522 4.36-3.835.127-2.497-1.616-4.372-4.11-4.423"/></g></g><g clip-path="url(#c)" transform="matrix(.2261 0 0 -.2261 -13.094 213.008)"><path fill="url(#d)" d="M342.64 872.496c-48.141-20.363-91.374-49.511-128.499-86.637S147.866 705.5 127.504 657.36C106.422 607.517 95.733 554.574 95.733 500s10.689-107.517 31.771-157.361c20.362-48.14 49.511-91.373 86.637-128.499s80.358-66.275 128.499-86.635C392.483 106.422 445.426 95.733 500 95.733s107.517 10.689 157.36 31.772c48.141 20.36 91.374 49.51 128.5 86.635 37.125 37.126 66.274 80.359 86.636 128.499 21.082 49.844 31.771 102.787 31.771 157.361s-10.689 107.517-31.771 157.36c-20.362 48.14-49.511 91.374-86.636 128.499-37.126 37.126-80.359 66.274-128.5 86.637-49.843 21.082-102.786 31.771-157.36 31.771s-107.517-10.689-157.36-31.771M105.113 500c0 217.742 177.146 394.887 394.887 394.887S894.887 717.742 894.887 500 717.742 105.113 500 105.113 105.113 282.259 105.113 500"/></g><g clip-path="url(#e)" transform="matrix(.2261 0 0 -.2261 -13.094 213.008)"><path fill="url(#f)" d="M391.739 756.259c-33.12-14.008-62.862-34.06-88.399-59.599-25.539-25.538-45.591-55.28-59.599-88.4-14.506-34.295-21.861-70.72-21.861-108.26s7.355-73.965 21.861-108.262c14.008-33.119 34.06-62.86 59.599-88.398 25.537-25.539 55.279-45.591 88.399-59.599C426.036 229.234 462.46 221.88 500 221.88s73.965 7.354 108.26 21.861c33.12 14.008 62.863 34.06 88.4 59.599 25.539 25.538 45.591 55.279 59.599 88.398C770.765 426.035 778.12 462.46 778.12 500s-7.355 73.965-21.861 108.26c-14.008 33.12-34.06 62.862-59.599 88.4-25.537 25.539-55.28 45.591-88.4 59.599-34.295 14.505-70.72 21.861-108.26 21.861s-73.964-7.356-108.261-21.861M246.602 500c0 139.724 113.673 253.398 253.398 253.398 139.724 0 253.399-113.674 253.399-253.398 0-139.725-113.675-253.398-253.399-253.398-139.725 0-253.398 113.673-253.398 253.398"/></g></svg>