<svg xmlns="http://www.w3.org/2000/svg" width="316" height="316"><path d="M310.09 158.008c0 83.996-68.094 152.086-152.09 152.086S5.91 242.004 5.91 158.008 74.004 5.918 158 5.918s152.09 68.094 152.09 152.09" fill="#fff"/><path d="M315.48 146.95c-1.433-20.446-6.714-40.11-15.687-58.45-9.3-18.98-22.168-35.7-38.25-49.668-14.613-12.7-31.156-22.484-49.18-29.09C194.957 3.363 176.691.13 158.074.13h-.015c-45.778 0-89.235 19.8-119.227 54.324C24.855 70.54 14.445 88.891 7.891 108.988 1.563 128.398-.914 148.605.52 169.051c1.433 20.445 6.707 40.11 15.687 58.449 9.3 18.98 22.168 35.7 38.25 49.668 14.613 12.7 31.156 22.484 49.184 29.09 17.406 6.379 35.671 9.613 54.296 9.613 45.774 0 89.239-19.8 119.231-54.328 13.977-16.082 24.387-34.434 30.941-54.531 6.329-19.41 8.805-39.617 7.371-60.063M63.055 267.273C2.707 214.836-3.711 123.406 48.727 63.06c28.617-32.946 68.87-49.82 109.336-49.82 33.664-.005 67.468 11.671 94.878 35.488 60.352 52.437 66.77 143.867 14.332 204.218-28.617 32.942-68.87 49.817-109.336 49.817-33.664 0-67.476-11.672-94.882-35.489" fill="#1b4d3a"/><path d="M96.848 96.805c-16.223 16.218-25.153 37.793-25.153 60.742 0 22.39 8.508 43.469 23.993 59.562l7.601-7.648c-12.68-13.434-20.453-31.54-20.453-51.465 0-41.387 33.559-74.957 74.945-74.957 19.75 0 37.703 7.645 51.094 20.125l7.863-7.918c-16.031-15.234-36.937-23.601-59.14-23.601-22.946 0-44.52 8.937-60.75 25.16" fill="#1b4d3a"/><path d="M232.742 158c0 41.395-33.562 74.957-74.957 74.957-19.613 0-37.465-7.543-50.82-19.867l-7.582 7.629c15.914 14.68 36.449 22.722 58.215 22.722 22.937 0 44.507-8.925 60.738-25.148 16.226-16.23 25.16-37.797 25.16-60.75 0-21.969-8.191-42.672-23.125-58.625l-7.844 7.89c12.536 13.399 20.215 31.403 20.215 51.192" fill="#8f2d1e"/><path d="M26.793 155.316s7.273-1.328 9.078 13.754c0 0 1.402 17.946 9.652 36.61 0 0-10.855-1.875-13.484-11.805 0 0-6.027-15.5-5.246-38.559m16.68-36.961s-7.188-7.386 7.32-15.218c0 0 4.227 15.918-7.32 15.218m13.832 84.836s8.133 17.352 17.765 26.961c0 0 8.848 7.336 3.262 16.098 0 0-15.793-12.984-24.078-28.957-4.902-9.445 3.05-14.102 3.05-14.102m-5.788 15.699s8.78 15.704 24.09 29.204c0 0-10.649 2.84-17.196-5.078 0 0-11.957-11.555-20.894-32.825 0 0 6.05-4.242 14 8.7m-2.735-13.743s-8.914-18.402-9.758-36.375c-.496-10.628 8.676-11.53 8.676-11.53s.125 19.16 4.852 31.917c0 0 4.965 10.367-3.77 15.988" fill="#1b4d3a"/><path d="M35.785 110.457s8.387 2.133 3.504 16.516c0 0-2.793 8.011-4.305 28.164 0 0-8.988-6.38-7.078-16.473 0 0 .457-7.55 7.88-28.207m2.366 45.602s-1.41-11.082 2.864-28.188c2.574-10.32 12.797-6.656 12.797-6.656s-4.122 8.5-5.36 22.047c0 0 0 11.496-10.3 12.797m250.683-.743s-7.277-1.328-9.082 13.754c0 0-1.399 17.946-9.652 36.61 0 0 10.859-1.875 13.488-11.805 0 0 6.027-15.5 5.246-38.559m-16.684-36.961s7.188-7.386-7.316-15.218c0 0-4.227 15.918 7.316 15.218m-13.832 84.836s-8.132 17.352-17.761 26.961c0 0-8.852 7.336-3.27 16.098 0 0 15.797-12.984 24.078-28.957 4.906-9.445-3.047-14.102-3.047-14.102m5.793 15.699s-8.785 15.704-24.086 29.204c0 0 10.649 2.84 17.188-5.078 0 0 11.965-11.555 20.898-32.825 0 0-6.054-4.242-14 8.7m2.735-13.743s8.914-18.402 9.757-36.375c.497-10.628-8.675-11.53-8.675-11.53s-.13 19.16-4.852 31.917c0 0-4.969 10.367 3.77 15.988" fill="#1b4d3a"/><path d="M279.844 110.457s-8.387 2.133-3.512 16.516c0 0 2.8 8.011 4.313 28.164 0 0 8.98-6.38 7.07-16.473 0 0-.45-7.55-7.871-28.207m-2.367 45.602s1.41-11.082-2.864-28.188c-2.574-10.32-12.8-6.656-12.8-6.656s4.125 8.5 5.359 22.047c0 0-.004 11.496 10.305 12.797M65.7 157.45c0-50.727 41.269-91.993 91.991-91.993 24.489 0 46.762 9.61 63.266 25.262l2.066-2.09a94.4 94.4 0 0 0-28.394-18.617c-11.7-4.95-24.125-7.457-36.938-7.457-12.808 0-25.23 2.508-36.937 7.457-11.297 4.777-21.445 11.62-30.16 20.336s-15.555 18.863-20.336 30.164C65.313 132.21 62.8 144.64 62.8 157.449c0 12.813 2.511 25.238 7.457 36.938a94.6 94.6 0 0 0 19.234 29.035l2.067-2.086c-16-16.563-25.86-39.094-25.86-63.887" fill="#1b4d3a"/><path d="M245.133 120.512a94.7 94.7 0 0 0-18.176-27.93l-2.074 2.094c15.379 16.449 24.808 38.531 24.808 62.773 0 50.727-41.27 91.992-92 91.992-23.93 0-45.757-9.183-62.14-24.218l-2.067 2.093a94.6 94.6 0 0 0 27.27 17.57c11.707 4.95 24.129 7.458 36.937 7.458 12.813 0 25.239-2.508 36.938-7.457 11.305-4.778 21.453-11.621 30.168-20.336s15.555-18.867 20.336-30.164c4.945-11.7 7.457-24.13 7.457-36.938 0-12.812-2.512-25.238-7.457-36.937" fill="#8f2d1e"/><path d="M198.258 172.145c4.148-12.93-1.082-19.282-17.336-16.79a15.22 15.22 0 0 0-10.012-6.69 15.2 15.2 0 0 0-8.066.67c1.05-.726 2.515-1.42 4.55-1.882-4.484-2.043-9.265-6.254-13.414-15.418 2.079-1.988 6.622 5.574 6.622 5.574 6.808-23.406-12.297-33.468-13.637-33.808l-.57-.16.007-.04s-2.297-2.636-3.437-5.097c-1.88 2.773-.922 4.332-.922 4.332l-13.277 9.457-.184 4.953 3.55 1.258 3.263-3.887c4.738 3.02 9.117 1.067 9.117 1.067-5.59 5.23-8.465 11.996-8.465 11.996-5.113 2.183-6.734 7.761-7 10.156l.039-.004s-.11.746-.094 1.871l.004.098h-.004c.04 1.953.477 4.972 2.531 7.25 0 0-3.48-2.504-4.128-7.551l-8.973-1.668-1.672 9.004c-1.527 8.191 4.96 10.5 4.96 10.5l1.145-6.352s-2.753-.847-2.464-2.41c.296-1.562.921-5.176.921-5.176s1.11.024 2.786.836c1.886.918 4.488 2.832 7.02 6.856l-4.794 2.336-1.113 5.953 7.738 4.559c8.801 5.28 11.914-.043 11.914-.043l-5.386-3.04c-.922 1.22-2.696 1.098-2.696 1.098l-6.984-4.144.371-2.004s4.238-1.215 6.695-1.82l6.055-1.766-3.836 2.652c6.188 7.602 23.047 12.07 27.246 11.613 0 0-3.078 1.004-5.887 1.27 0 0-1.402 5.371 3.801 8.793 2.403 1.578 6.676 3.937 6.676 3.937-1.871 1.34-4.145 2.973-5.79 4.16l-.269 1.454c-1.316 8.226 5.543 9.547 5.543 9.547l.926-5.825s-2.86-.242-2.594-1.812l.23-1.309c1.11-.8 3.567-2.547 5.641-4.02l2.727 1.934c2.41 3.282-1.289 12.102-1.289 12.102-5.715 0-6.273 5.773-6.273 5.773l7.5.028c.566-3.774 3.48-3.555 3.48-3.555l2.95-15.352-4.645-3.68 1.46-1.523-2.355-3.191a15.25 15.25 0 0 0 4.985-8.723c.503-2.722.25-5.414-.602-7.851 8.621.464 7.156 4.586 5.004 12.191-5.34 18.902 15.453 21.91 15.453 21.91-8.73-5.547-4.742-20.597-4.742-20.597" fill="#1b4d3a"/><path d="M76.309 86.809c-1.594 2.843-4.102 6.336-6.309 9.394-1.816 2.52-4.613 3.07-7.004 1.356l-10.734-7.727c-2.39-1.719-2.739-4.574-.938-7.074 2.196-3.059 4.707-6.547 6.899-8.961l3.449 2.844-5 6.953c-.547.754-.434 1.449.32 1.984l2.254 1.621 5.121-7.11 3.457 2.49-5.113 7.112 2.812 2.032c.754.535 1.45.422 1.985-.328l5.004-6.95zm-2.137-22.801l12.43 13.05-4.508 4.282-12.422-13.047-4.742 4.516-3.305-3.473L75.629 56l3.305 3.465zM92.914 50l9.762 15.14-5.227 3.372-9.758-15.14-5.504 3.542-2.597-4.027 16.258-10.48 2.593 4.027zm17.726 10.77l-9.535-20.727 5.586-2.57 9.536 20.726zm11.458-23.848c-1.016.305-1.375.933-1.106 1.824l.926 3.063 8.074-2.442 1.246 4.113-8.07 2.446 2.66 8.765-5.953 1.805-5.203-17.184c-.871-2.878.613-5.37 3.59-6.273 3.484-1.055 7.5-2.273 10.558-2.785l.996 4.324zm19.179 8.609l-.718 5.54-6.309.734 3.758-21.766c.113-1.016.894-1.738 1.883-1.852l5.71-.664c.985-.113 1.91.407 2.29 1.364l8.629 20.332-6.313.726-1.969-5.226zm3.172-10.785c-.25-.734-.55-1.566-.707-2.316l-.883.105c-.043.77-.109 1.645-.183 2.414l-.774 5.98 4.668-.542zm34.094 5.067c-.844 9.25-3.75 11.582-11.29 10.886-7.472-.68-9.937-3.492-9.093-12.742.848-9.258 3.781-11.574 11.258-10.894 7.535.687 9.973 3.503 9.125 12.75m-13.148 11.253c3.054 1.438 6.292 2.364 10.195 3.286l-2.055 5.062c-4.148-1.543-7.355-3.46-9.77-5.41zm-.747-12.52c-.511 5.595.172 7.153 3.036 7.419 2.906.262 3.824-1.149 4.34-6.742.511-5.598-.145-7.153-3.044-7.422-2.863-.254-3.824 1.148-4.332 6.746m39.188 20.656c-2.344-.066-4.36-.539-7.57-1.746-6.844-2.555-8.266-6.41-5.211-14.547 3.047-8.144 6.644-10.117 13.484-7.555 3.191 1.196 4.625 1.98 6.461 3.305l-2.035 4.106a214 214 0 0 0-6.278-2.457c-2.539-.95-3.742.086-5.539 4.882-1.796 4.797-1.57 6.364.97 7.32 3.003 1.126 4.777 1.75 6.839 2.278zm10.57-.488c-.472.793-.3 1.472.614 2.012l6.656 3.945-2.121 4.156c-2.985-1.308-6.172-3.191-9.22-4.992-2.987-1.77-3.534-4.477-2.019-7.035l9.106-15.39 5.355 3.16zm26.989 17.098c-4.704 5.328-8.286 5.644-13.418 1.117-5.512-4.852-5.762-8.563-1.059-13.895l8.969-10.164 4.66 4.113-8.969 10.164c-2.582 2.926-2.687 4.243-.703 5.993 1.98 1.75 3.277 1.48 5.86-1.442l8.968-10.164 4.66 4.113zm13.703 13.441c1.894 3.039.949 5.308-1.97 7.484-3.757 2.809-6.23 1.598-9.57-2.879-2.788-3.742-4.324-5.851-5.976-8.453l18.285-13.644c1.848 2.093 3.297 3.976 5.766 7.293 3.68 4.93 3.98 7.425.215 10.234-2.621 1.961-4.641 2.02-6.59-.156zm-8.696 1.121c1.387 1.852 2.164 2.016 3.996.652 1.934-1.445 2.051-2.277.63-4.187l-1.86-2.492-4.637 3.457zm7.637-5.86c1.207 1.618 1.938 1.774 3.578.544 1.59-1.184 1.61-1.938.324-3.664l-1.722-2.305-4.004 2.988zm0 0" fill="#8f2d1e"/><path d="M102.418 253.82a2 2 0 0 1 .555-.578q.329-.224.71-.312c.254-.059.512-.07.77-.024q.393.063.75.297a1.96 1.96 0 0 1 .883 1.27q.075.382.016.78-.066.401-.29.747a1.9 1.9 0 0 1-.558.574q-.34.223-.715.305a2.2 2.2 0 0 1-.777.02 1.9 1.9 0 0 1-.746-.29 1.9 1.9 0 0 1-.579-.562 2.1 2.1 0 0 1-.3-.711 2.02 2.02 0 0 1 .281-1.516m-4.23-2.718a2 2 0 0 1 .554-.575q.33-.229.719-.312a1.97 1.97 0 0 1 1.527.277c.23.149.422.332.567.551q.223.327.3.71c.051.255.06.517.016.782a2 2 0 0 1-.285.75q-.228.347-.563.57-.333.223-.714.305-.376.082-.77.024a1.9 1.9 0 0 1-.742-.282 1.9 1.9 0 0 1-.578-.566 2.2 2.2 0 0 1-.305-.715 1.9 1.9 0 0 1-.02-.777c.047-.262.145-.512.293-.742m-3.954 10.992q-.703 1.096-.617 2.047.083.947 1.051 1.574 1.083.692 1.984.742l1.118-1.738c.289-.45.515-.875.687-1.274.168-.402.266-.773.285-1.117q.034-.517-.183-.945c-.145-.285-.387-.54-.727-.754q-.509-.329-.988-.363a1.85 1.85 0 0 0-.926.168q-.449.204-.875.632c-.281.29-.55.63-.809 1.028m5.004 7.89q-1.09 1.693-2.59 2.676a7.6 7.6 0 0 1-3.332 1.2q-1.821.217-3.925-.368c-1.403-.39-2.86-1.074-4.38-2.05-1.382-.891-2.523-1.817-3.413-2.782q-1.335-1.447-1.903-2.988a6.4 6.4 0 0 1-.336-3.152c.149-1.079.579-2.165 1.29-3.27l1.788-2.785 3.434 2.207-1.316 2.05q-.681 1.06-.907 2.067a3.85 3.85 0 0 0 .07 1.977c.2.652.583 1.289 1.141 1.921q.843.944 2.313 1.887 1.49.96 2.7 1.34 1.201.38 2.116.379.92-.002 1.551-.262.634-.264.992-.574c-.636-.2-1.324-.535-2.07-1.016a7.2 7.2 0 0 1-1.773-1.578 4.95 4.95 0 0 1-.97-1.976q-.258-1.079-.019-2.297c.156-.813.524-1.66 1.094-2.55a8.3 8.3 0 0 1 1.762-1.978 6.7 6.7 0 0 1 2.218-1.21 5.9 5.9 0 0 1 2.504-.22q1.314.158 2.621 1 1.442.927 2.118 2.052.668 1.13.734 2.355.064 1.225-.395 2.516-.457 1.289-1.273 2.554zm11.103 5.469q-.449.966-.887 1.211-.44.245-1.004-.02l-1.207-.558q-.965-.448-1.668-1.027a3.8 3.8 0 0 1-1.054-1.34q-.357-.762-.297-1.735.064-.974.636-2.207l6.922-14.898 3.703 1.719L108.79 271q-.228.496-.281.84c-.035.226-.024.422.039.578q.093.24.32.41.233.176.567.328l.523.246c.145.067.273.145.398.23q.182.136.258.36t.024.574q-.047.353-.297.887" fill="#1b4d3a"/><path d="M121.492 262.73q.134-.392.403-.69a2 2 0 0 1 1.37-.68c.262-.024.528.015.797.105q.394.135.688.398.292.265.46.617c.11.239.18.489.204.758q.031.406-.102.793a1.9 1.9 0 0 1-.406.692c-.183.199-.39.351-.62.468a2.2 2.2 0 0 1-.743.207 1.97 1.97 0 0 1-1.484-.508 2.3 2.3 0 0 1-.47-.62 2 2 0 0 1-.202-.75 2 2 0 0 1 .105-.79m-3.808 10.247a4.4 4.4 0 0 0-.262 1.386q-.006.629.187 1.117.194.487.575.82.377.334.882.505l1.692.578.867-2.547c.129-.371.23-.75.309-1.129q.118-.57.043-1.062a1.9 1.9 0 0 0-.375-.887q-.306-.393-.934-.61-.603-.206-1.082-.125-.48.076-.848.352-.367.27-.629.7a4.5 4.5 0 0 0-.425.902m-4.274 1.898a2.8 2.8 0 0 1 0-.68 8.7 8.7 0 0 1 .305-1.605q.112-.398.219-.707a7 7 0 0 1 1.171-2.137 6.4 6.4 0 0 1 1.84-1.586 6.2 6.2 0 0 1 2.344-.762q1.29-.153 2.715.332 1.119.382 1.887.957c.507.383.921.801 1.234 1.258.313.453.54.942.68 1.457.14.52.218 1.043.226 1.578a8 8 0 0 1-.125 1.59q-.144.787-.383 1.485l-.902 2.644 1.887.645q.24.082.433.195.198.117.297.328.101.216.078.567-.018.351-.207.914-.345 1.009-.75 1.297-.405.291-1.004.085l-15.703-5.355a2.5 2.5 0 0 1-.433-.195.7.7 0 0 1-.293-.328q-.101-.212-.078-.57c.011-.243.086-.552.215-.934q.343-1.009.746-1.286.396-.28 1-.074zm0 0" fill="#1b4d3a"/><path d="M136.27 266.902q.089-.403.32-.73.23-.328.558-.543.329-.218.715-.29.388-.076.805.016a1.97 1.97 0 0 1 1.266.883q.208.333.289.73a1.97 1.97 0 0 1-.336 1.531q-.24.325-.563.536a2.2 2.2 0 0 1-.722.29q-.398.075-.801-.012a1.8 1.8 0 0 1-.738-.329 2.1 2.1 0 0 1-.528-.562 1.9 1.9 0 0 1-.281-.719 2.1 2.1 0 0 1 .016-.8m-4.91-1.074q.086-.405.32-.734.228-.328.566-.54.333-.217.719-.288a2.02 2.02 0 0 1 1.531.336q.322.228.527.562c.141.219.235.465.29.727.05.265.05.53-.012.8q-.09.404-.324.73a2.1 2.1 0 0 1-1.278.825c-.262.055-.523.05-.793-.008a1.8 1.8 0 0 1-.738-.328 2.1 2.1 0 0 1-.535-.562 1.9 1.9 0 0 1-.29-.723 2 2 0 0 1 .016-.797m-.235 14.39l1.895-8.636 3.988.871-2.66 12.133-7.485-1.64a2.3 2.3 0 0 1-.453-.145.7.7 0 0 1-.328-.29q-.123-.204-.14-.562c-.016-.238.023-.558.109-.953q.229-1.036.594-1.36c.242-.214.574-.277.984-.187zm25.634-14.156l-1.969 21.054-16.031-1.5.332-3.562 5.035.468-.988-14.199 4.062.38 1.094 14.21 2.766.258 1.636-17.488zm6.852-.293l.406 21.14-4.078.078-.41-21.14zm27.581 24.625a2 2 0 0 1-.023-.801q.065-.392.27-.73.203-.333.519-.567.316-.235.738-.328a1.96 1.96 0 0 1 1.524.254q.33.208.57.535.242.322.336.726c.063.266.066.536.02.797q-.076.399-.282.727-.204.33-.527.57-.322.241-.727.336-.418.095-.808.02-.389-.076-.719-.282a2 2 0 0 1-.562-.53 2 2 0 0 1-.329-.727m-4.898 1.136a2 2 0 0 1-.023-.8q.064-.395.277-.731a2 2 0 0 1 1.262-.902 1.95 1.95 0 0 1 1.511.257q.33.212.57.536.241.322.337.726.094.404.02.801a2.1 2.1 0 0 1-.802 1.293q-.315.24-.718.336-.423.094-.809.02a2.2 2.2 0 0 1-.727-.282 1.9 1.9 0 0 1-.57-.527 2 2 0 0 1-.328-.727m-5.691-10.75q.197.866.695 1.563.494.698 1.387 1.097c.59.27 1.328.418 2.21.454.883.03 1.946-.094 3.184-.383q2.232-.517 3.55-1.028 1.316-.51 1.974-1.004.66-.498.804-.96.14-.465.04-.91a1.1 1.1 0 0 0-.41-.657 2.7 2.7 0 0 0-.766-.394 7 7 0 0 0-1.016-.25q-.562-.096-1.164-.23-.598-.136-1.184-.34a4.1 4.1 0 0 1-1.09-.575 3.8 3.8 0 0 1-.894-.941q-.392-.568-.59-1.434a6.6 6.6 0 0 1-.105-2.351 6.2 6.2 0 0 1 .789-2.329q.631-1.101 1.773-1.968 1.143-.863 2.86-1.262.556-.13 1.074-.172.514-.047.953-.047.439-.006.797.035.358.04.593.075l.82 3.543q-1.136.005-1.921.113c-.528.07-.926.137-1.207.203q-.792.181-1.324.504-.534.322-.844.703-.317.386-.41.8a1.8 1.8 0 0 0-.004.794q.098.434.426.691a2.7 2.7 0 0 0 .789.422q.461.166 1.035.285.575.115 1.18.242c.406.082.8.184 1.195.305q.586.186 1.086.5.498.315.879.809c.254.324.433.726.547 1.207q.3 1.296.042 2.609-.258 1.31-1.308 2.512-1.051 1.2-3.027 2.226-1.978 1.027-5.106 1.754-2.777.645-4.898.528t-3.633-.836-2.426-1.95a7.5 7.5 0 0 1-1.285-2.828l-.75-3.226 3.976-.922zm32.203-9.457q.306.738.343 1.5a3.36 3.36 0 0 1-.257 1.465q-.29.709-.942 1.313c-.437.406-1.008.753-1.719 1.05l-6.964 2.891-1.371-3.305 5.625-2.336q.67-.276.988-.57c.318-.294.273-.406.176-.633a1.4 1.4 0 0 0-.196-.336q-.119-.156-.414-.379a15 15 0 0 0-.824-.578 85 85 0 0 0-1.426-.93l-3.683-2.472 2.484-3.578 4.195 3.012c.567.406 1.067.78 1.512 1.128q.662.518 1.148.977.492.462.813.894.323.438.512.887m11.207-3.597q.499.94.43 1.437c-.047.332-.255.598-.618.79l-1.176.628a7.7 7.7 0 0 1-1.824.711 3.84 3.84 0 0 1-1.707.035q-.82-.176-1.558-.808c-.496-.426-.954-1.04-1.383-1.84l-7.715-14.5 3.601-1.918 7.461 14.02q.257.482.497.73.244.25.488.32.247.07.523-.012.275-.076.602-.254l.512-.27q.204-.11.421-.175a.7.7 0 0 1 .442.008q.223.074.476.324c.164.168.344.426.528.774" fill="#1b4d3a"/><path d="M225.79 264.555l-4.731-7.473 3.449-2.184 6.64 10.497-6.472 4.097q-.21.134-.422.215a.7.7 0 0 1-.441.023q-.23-.057-.493-.296c-.18-.164-.375-.414-.593-.758q-.57-.897-.536-1.383.037-.486.57-.824zm-7.532-11.93a1.9 1.9 0 0 1-.29-.746 2.1 2.1 0 0 1 .02-.781q.089-.388.313-.711.222-.328.586-.555a1.95 1.95 0 0 1 1.508-.258q.38.094.718.317.334.227.555.578.222.346.281.746.059.403-.023.777c-.059.254-.16.488-.305.711a1.9 1.9 0 0 1-.57.55 1.9 1.9 0 0 1-.754.286q-.392.059-.777-.023a1.9 1.9 0 0 1-.711-.313 2 2 0 0 1-.551-.578m-78.817-45.844v15.004h-2.902V209.68h-1.7v-2.899zm9.043 5.192q-.002.79.57 1.359.558.563 1.348.563a1.84 1.84 0 0 0 1.352-.563q.57-.568.57-1.36v-.679q0-.79-.57-1.352a1.84 1.84 0 0 0-1.352-.558 1.82 1.82 0 0 0-1.347.558 1.82 1.82 0 0 0-.57 1.352zm-2.37 7.504l2.507-1.454c.457.782 1.047 1.172 1.781 1.172a1.84 1.84 0 0 0 1.352-.562q.57-.569.57-1.348v-.89a4.8 4.8 0 0 1-1.922.398c-1.324 0-2.46-.469-3.398-1.41q-1.423-1.418-1.422-3.41v-.68q0-1.991 1.422-3.402c.937-.946 2.074-1.422 3.398-1.422q1.991.001 3.403 1.422c.945.941 1.422 2.074 1.422 3.402v5.992c0 1.32-.477 2.453-1.422 3.399q-1.412 1.413-3.403 1.414-2.76-.001-4.289-2.621m20.055-12.696l-3.914 8.563h2.484V211.8h2.899v3.543h1.133v2.902h-1.133v3.54h-2.899v-3.54h-6.254v-1.633l4.493-9.832zm5.711 12.696l2.508-1.454q.69 1.173 1.781 1.172a1.84 1.84 0 0 0 1.352-.562q.569-.569.57-1.348v-.691q-.001-.79-.57-1.352a1.85 1.85 0 0 0-1.352-.558q-1.16-.001-1.781 1.199l-2.168-.59.937-8.512h7.055v2.899h-4.434l-.199 2.132q.342-.04.59-.039 1.991 0 3.414 1.418 1.418 1.412 1.418 3.403v.691q0 1.98-1.418 3.399-1.424 1.413-3.414 1.414-2.76-.001-4.29-2.621" fill="#1b4d3a"/></svg>