<svg height="600" width="463.524" xmlns="http://www.w3.org/2000/svg"><g fill="#0028f0" stroke-width="1.304"><path d="M278.036 300.847c-27.764-14.99-60.352-21.638-92.679-19.943-23.593 1.303-47.056 7.039-68.173 17.597-8.603 3.91-16.815 8.603-24.505 13.817V15.121c-6.648 1.433-13.296 3.128-19.944 4.692C47.838 26.2 23.593 34.021 0 43.146v202.433c0 49.924 9.516 97.762 26.722 141.56 15.902 40.278 38.323 77.167 65.957 109.624l.13.13 2.346-1.694c-5.083-37.802 4.693-77.689 29.068-108.19 15.773-20.726 37.15-36.498 61.134-46.796v236.063c3.129 1.825 6.388 3.52 9.646 5.214 10.95 6.257 22.29 12.123 33.891 17.337l2.738 1.173 2.737-1.173c1.043-.391 1.955-.913 2.998-1.434 13.947-6.387 27.504-13.687 40.539-21.638V328.742c14.469 2.086 28.546 5.996 42.494 10.95l1.564-2.216c-11.862-15.251-26.982-27.374-43.928-36.629"/><path d="M390.658 19.944a551 551 0 0 0-19.943-4.693v144.297c-29.329-11.601-61.395-16.424-92.679-14.338V1.695C262.786.652 247.274 0 231.762 0c-15.642 0-31.023.521-46.274 1.695v172.713c-18.77 11.731-35.195 27.113-48.1 45.753l1.695 2.476c15.12-7.038 30.632-12.252 46.405-15.642 31.153-6.778 62.959-6.647 92.678.522 35.456 8.603 68.043 27.243 92.68 56.18v228.634l2.736 1.434c56.05-67.13 89.942-153.552 89.942-247.795V43.276c-23.724-9.124-47.969-16.945-72.866-23.332"/></g></svg>