<svg height="335.47" viewBox="0 0 164.566 185.208" width="298.089" xmlns="http://www.w3.org/2000/svg" xmlns:xlink="http://www.w3.org/1999/xlink"><linearGradient id="a"><stop offset="0" stop-color="#32327c"/><stop offset=".249" stop-color="#32327c"/><stop offset=".583" stop-color="#007cb4"/></linearGradient><linearGradient id="b" gradientTransform="matrix(1 0 0 -1 0 802)" gradientUnits="userSpaceOnUse" x1="161.685" x2="638.823" xlink:href="#a" y1="478.564" y2="478.564"/><linearGradient id="c" gradientTransform="matrix(1 0 0 -1 0 802)" gradientUnits="userSpaceOnUse" x1="161.685" x2="638.823" xlink:href="#a" y1="356.343" y2="356.343"/><linearGradient id="d" gradientTransform="matrix(1 0 0 -1 0 802)" gradientUnits="userSpaceOnUse" x1="260.572" x2="540.217" y1="127.327" y2="141.803"><stop offset=".142" stop-color="#32327c"/><stop offset=".583" stop-color="#007cb4"/><stop offset=".891" stop-color="#32327c"/></linearGradient><linearGradient id="e" gradientTransform="matrix(1 0 0 -1 0 802)" gradientUnits="userSpaceOnUse" x1="101.788" x2="698.85" y1="551.491" y2="551.491"><stop offset=".142" stop-color="#32327c"/><stop offset=".583" stop-color="#008ac6"/><stop offset=".891" stop-color="#32327c"/></linearGradient><linearGradient id="f" gradientTransform="matrix(1 0 0 -1 0 802)" gradientUnits="userSpaceOnUse" x1="89.017" x2="710.983" y1="549.511" y2="549.511"><stop offset="0" stop-color="#a7acaa"/><stop offset=".271" stop-color="#fafbff"/><stop offset=".493" stop-color="#c7ced3"/><stop offset=".795" stop-color="#fafbff"/><stop offset="1" stop-color="#a7acaa"/></linearGradient><g transform="matrix(.26458 0 0 .26458 -23.553 -13.23)"><path d="m400.25 750-5.24-2.3-10.6-4.47c-2.3-1.02-57.6-25.16-111.75-79.44-32.18-32.18-57.73-68.45-76.24-107.92-23.12-49.43-34.74-103.7-34.74-161.43 0-66.41 15.71-116.22 46.87-147.76 29.25-29.63 63.73-35.89 87.48-35.89 9.07 0 16.48.89 21.33 1.79h165.78c4.98-.89 12.39-1.79 21.33-1.79 23.75 0 58.24 6.26 87.48 35.89 31.03 31.55 46.87 81.35 46.87 147.76 0 57.6-11.75 111.88-34.74 161.43-18.39 39.59-44.06 75.86-76.25 107.92-54.28 54.28-109.45 78.42-111.75 79.44l-10.6 4.47z" fill="#c6c5c4"/><path d="m504.47 50c24.52 0 60.15 6.39 90.29 37.04 31.8 32.31 48.02 83.01 48.02 150.45 0 58.24-11.88 113.03-35.12 162.96-18.65 39.97-44.57 76.63-77.01 109.07-54.66 54.66-110.6 79.18-113.03 80.2l-10.6 4.47-5.24 2.3-1.53.64-1.53-.64-5.24-2.3-10.6-4.47c-2.3-1.02-58.24-25.41-113.03-80.2-32.44-32.44-58.37-69.09-77.01-109.07-23.37-49.94-35.12-104.85-35.12-162.96 0-67.56 16.09-118.14 48.02-150.45 30.15-30.65 65.78-37.04 90.3-37.04" fill="#26375f"/><path d="m400.25 719.48-1.53-.64-5.24-2.3-10.6-4.47c-2.3-1.02-58.24-25.41-113.03-80.2-32.44-32.44-58.37-69.09-77.01-109.07-23.37-49.94-35.12-104.85-35.12-162.96 0-67.56 16.09-118.14 48.02-150.45 30.14-30.65 65.77-37.04 90.29-37.04 9.2 0 16.86.89 21.71 1.79h165c4.85-.77 12.52-1.79 21.71-1.79 24.52 0 60.15 6.39 90.29 37.04 31.8 32.31 48.02 83.01 48.02 150.45 0 58.24-11.88 113.03-35.12 162.96-18.65 39.97-44.57 76.63-77.01 109.07-54.66 54.66-110.6 79.18-113.03 80.2l-10.6 4.47-5.24 2.3z" fill="#26375f"/><path d="m504.47 53.83c23.75 0 58.24 6.26 87.48 35.89 31.03 31.55 46.87 81.35 46.87 147.76 0 57.6-11.75 111.88-34.74 161.43-18.39 39.59-44.06 75.86-76.25 107.92-54.28 54.28-109.45 78.41-111.75 79.44l-10.6 4.47-5.24 2.3-5.24-2.3-10.6-4.47c-2.3-1.02-57.6-25.16-111.75-79.44-32.18-32.19-57.73-68.46-76.24-107.92-23.12-49.43-34.74-103.7-34.74-161.43 0-66.41 15.71-116.22 46.87-147.76 29.25-29.63 63.73-35.89 87.48-35.89" fill="url(#b)"/><path d="m400.25 715.26-5.24-2.3-10.6-4.47c-2.3-1.02-57.6-25.16-111.75-79.44-32.18-32.18-57.73-68.45-76.24-107.92-23.12-49.43-34.74-103.7-34.74-161.43 0-66.41 15.71-116.22 46.87-147.76 29.25-29.63 63.73-35.89 87.48-35.89 9.07 0 16.48.89 21.33 1.79h165.78c4.98-.89 12.39-1.79 21.33-1.79 23.75 0 58.24 6.26 87.48 35.89 31.03 31.55 46.87 81.35 46.87 147.76 0 57.6-11.75 111.88-34.74 161.43-18.39 39.59-44.06 75.86-76.25 107.92-54.28 54.28-109.45 78.42-111.75 79.44l-10.6 4.47z" fill="url(#c)"/><path d="m504.47 67.24c21.2 0 51.98 5.49 77.91 31.93 28.48 28.99 43.04 75.61 43.04 138.31 0 55.68-11.24 108.05-33.46 155.68-17.75 38.06-42.53 73.18-73.56 104.21-52.62 52.62-105.36 75.61-107.66 76.5l-10.6 4.47-10.6-4.47c-2.17-.89-54.92-23.88-107.53-76.5-31.03-31.03-55.81-66.03-73.56-104.21-22.22-47.64-33.46-100-33.46-155.68 0-62.84 14.43-109.32 43.04-138.31 25.93-26.31 56.7-31.93 77.91-31.93" fill="#fff"/><path d="m400.26 700.7-10.6-4.47c-2.17-.89-54.92-23.88-107.53-76.5-31.03-31.03-55.81-66.03-73.56-104.21-22.22-47.64-33.46-100-33.46-155.68 0-62.84 14.43-109.32 43.04-138.31 25.93-26.31 56.7-31.93 77.91-31.93 8.94 0 15.96 1.02 20.18 1.79h168.08c4.21-.77 11.24-1.79 20.18-1.79 21.2 0 51.98 5.49 77.91 31.93 28.48 28.99 43.04 75.61 43.04 138.31 0 55.68-11.24 108.05-33.46 155.68-17.75 38.06-42.53 73.18-73.56 104.21-52.62 52.62-105.36 75.61-107.66 76.5z" fill="#fff"/><path d="m487.61 92.65h-174.71s-111.11-1.28-111.11 144.83c0 226.82 198.47 311.88 198.47 311.88s198.47-85.06 198.47-311.88c-.14-146.1-111.12-144.83-111.12-144.83" fill="#eb8601"/><path d="m486.97 217.43h-173.7s-111.62-28.35-111.62 141.76c0 226.82 198.47 311.88 198.47 311.88s198.47-85.06 198.47-311.88c0-170.11-111.62-141.76-111.62-141.76" fill="#ef7e01"/><path d="m266.54 92.66h-15.71v134.74h15.71zm47.25 0h-15.71v134.74h15.71zm47.13 0h-15.71v134.74h15.71zm47.13 0h-15.71v134.74h15.71zm47.12 0h-15.71v134.74h15.71zm47.13 0h-15.71v134.74h15.71zm47.25 0h-15.71v134.74h15.71z" fill="#fff"/><path d="m540.1 657.92c-52.62-33.84-160.79-26.31-224.9-12.26s-40.1-25.16-40.1-25.16c-14.18 16.73-14.69 34.23-14.69 34.23s-8.81 60.66 55.3 46.61 172.29-21.58 224.9 12.26l-11.49-35.12z" fill="url(#d)"/><path d="m364.49 642.97h7.92v38.57h-8.81v-31.29h-3.83zm22.61 32.83c1.53 0 2.68-.26 3.7-.89s1.79-1.4 2.3-2.43c.51-1.02.89-2.04 1.02-3.32.13-1.15.13-2.43-.13-3.58-.26.77-.77 1.28-1.28 1.92-.64.51-1.28 1.02-2.04 1.28-.77.38-1.66.64-2.55.77s-1.79.13-2.68.13c-1.53-.13-2.81-.51-3.96-1.15s-2.04-1.4-2.81-2.43c-.89-1.28-1.66-2.68-2.04-4.34s-.64-3.32-.64-4.98c0-1.79.13-3.58.64-5.24s1.02-3.07 1.53-4.09c.89-1.53 2.17-2.81 3.58-3.7 1.53-.89 3.19-1.53 5.24-1.79 3.32-.38 6.26.13 8.68 1.4 2.55 1.28 4.34 3.58 5.62 6.9.51 1.4.89 3.19 1.15 5.11.26 2.04.38 4.09.38 6.26 0 2.55-.26 4.98-.64 7.41s-1.15 4.6-2.17 6.64a12.16 12.16 0 0 1 -4.47 4.73c-1.92 1.28-4.34 1.79-7.41 1.92-1.79 0-3.58-.13-5.24-.51s-3.07-1.02-4.47-1.92l.51-8.68c.89 1.79 2.17 2.94 3.58 3.58 1.66.74 3.07 1 4.6 1m2.17-13.28c.89 0 1.53-.26 2.17-.77.64-.38 1.15-1.02 1.53-1.66s.64-1.4.89-2.17c.13-.77.26-1.53.26-2.17 0-.77-.13-1.66-.38-2.43-.26-.77-.51-1.53-.89-2.04-.38-.64-.89-1.15-1.4-1.4-.64-.38-1.28-.51-2.17-.51s-1.53.26-2.17.64q-.96.57-1.53 1.53c-.38.64-.77 1.28-.89 2.04-.26.77-.38 1.53-.38 2.3-.13 2.17.26 3.83 1.02 5.11.62 1.14 2.03 1.65 3.94 1.53m26.05-12.27-.89 8.94c.77-.51 1.66-.77 2.55-.89.89-.13 1.92-.26 2.81-.26 1.53 0 2.81.26 4.09.77 1.15.51 2.3 1.28 3.07 2.17s1.53 2.04 2.04 3.45c.51 1.28.77 2.81.77 4.47.13 4.34-.89 7.53-3.19 9.83s-5.62 3.45-9.96 3.7c-1.79 0-3.7-.13-5.49-.51s-3.32-1.02-4.73-1.92l.51-8.68c1.15 1.66 2.43 2.94 3.83 3.58 1.4.77 2.94 1.02 4.34 1.02s2.55-.38 3.7-1.15 1.79-2.04 2.04-3.7c.26-1.92 0-3.58-.89-4.73-.89-1.28-2.43-1.79-4.47-1.66s-3.96 1.02-5.62 2.55l-4.09-1.79 2.81-22.61h17.75v7.28h-10.98zm22.23-7.66c1.92-.38 3.83-.64 5.87-.64.89 0 1.92.13 2.94.38 1.02.26 1.92.51 2.81 1.02s1.66 1.02 2.43 1.79 1.28 1.66 1.66 2.68c.51 1.28.77 2.55.77 3.96 0 1.4-.13 2.68-.51 3.96s-.89 2.43-1.79 3.32c-.77 1.02-1.79 1.79-3.07 2.3 1.02.26 1.92.77 2.68 1.4.77.64 1.4 1.4 1.92 2.17.51.89.89 1.79 1.15 2.81s.38 2.04.38 3.07c0 1.66-.26 3.19-.64 4.6s-1.15 2.55-2.04 3.45c-1.15 1.28-2.68 2.17-4.47 2.55-1.79.51-3.7.77-5.62.77s-3.83-.26-5.62-.77c-1.92-.51-3.45-1.28-4.85-2.3l1.28-7.92c.77 1.15 1.92 2.17 3.32 2.94s2.81 1.15 4.34 1.15 2.81-.38 3.96-1.15c1.02-.77 1.66-2.04 1.53-3.7 0-1.02-.26-1.92-.51-2.55-.38-.64-.77-1.15-1.4-1.53-.64-.38-1.4-.64-2.17-.77-.89-.13-1.79-.26-2.94-.26h-3.83v-6.39h2.04c.89 0 1.79-.13 2.81-.26s1.92-.38 2.68-.77c.77-.38 1.53-.89 2.04-1.66.51-.64.89-1.66.89-2.68 0-1.4-.38-2.55-1.28-3.19-.89-.64-1.92-1.02-3.32-1.02-.64 0-1.4.13-2.04.26-.77.13-1.4.38-2.04.77-.64.38-1.28.64-1.79 1.15-.51.38-1.02.89-1.4 1.28l-1.53-8.17c1.65-.9 3.44-1.66 5.36-2.05" fill="#fff"/><path d="m400.26 280.14c87.36 0 174.58 24.27 261.81 72.8 12.26-40.49 24.52-80.97 36.78-121.33-98.85-55.68-198.72-83.52-298.47-83.52-99.87 0-199.62 27.84-298.59 83.52 12.26 40.49 24.52 80.97 36.78 121.33 86.97-48.54 174.33-72.8 261.69-72.8" fill="url(#e)"/><path d="m702.17 219.09c-99.49-56.07-201.15-84.42-302.04-84.42s-202.55 28.35-302.04 84.42l-9.07 5.11 3.83 12.77c12.26 40.49 24.52 80.97 36.78 121.33l3.58 12.01 8.56-4.73c85.57-47.76 172.54-71.9 258.24-71.9 85.82 0 172.67 24.14 258.24 71.9l8.56 4.73 3.58-12.01c6.13-20.18 12.26-40.49 18.39-60.66s12.26-40.49 18.39-60.66l3.83-12.77zm-301.91-71.01c99.87 0 199.62 27.84 298.47 83.52-12.26 40.49-24.52 80.97-36.78 121.33-87.1-48.53-174.46-72.8-261.81-72.8s-174.58 24.27-261.81 72.8c-12.26-40.49-24.52-80.97-36.78-121.33 98.96-55.68 198.83-83.52 298.71-83.52" fill="url(#f)"/><g clip-rule="evenodd" fill-rule="evenodd"><g fill="#fff"><path d="m578.16 185.25c2.43.89 4.85 1.79 7.28 2.68-4.85 12.64-9.58 25.42-14.43 38.06 5.75 2.3 11.37 4.47 17.11 6.77 12.26 5.11 24.39 10.22 36.65 15.2 2.55-5.75 4.98-11.62 7.54-17.37 2.43 1.15 4.85 2.17 7.28 3.32-3.7 8.17-7.28 16.35-10.98 24.65-14.69-6.64-29.89-12.64-45.08-18.9-7.54-2.94-14.94-5.75-22.48-8.68v-.13c5.49-15.33 11.23-30.4 17.11-45.6m-64.62 1.53s6-.64 13.03 3.58c-1.15 2.43-2.17 4.85-3.32 7.28-2.17-1.4-10.73-6-12.52-1.02-1.28 3.19 4.34 8.68 5.62 10.73 4.98 8.05-1.4 15.71-7.92 18.39-12.26 4.98-26.95-.89-31.67-8.81-4.85-8.17-.38-19.41 5.24-23.5 1.92 1.53 5.62 4.73 5.62 4.73l-1.02 1.02s-2.43 3.32-3.32 5.36c-2.68 6.9 3.07 11.62 7.41 13.28 5.24 2.04 17.11 2.3 19.03-2.81 1.28-3.19-4.09-8.05-5.24-9.96-3.45-5.62-1.79-13.15 3.07-16.22 2.67-1.92 5.99-2.05 5.99-2.05m25.54 5.37c6.26 1.02 14.43 3.96 17.24 8.68 3.32 5.75-.64 13.67-2.17 18.52-.77 2.68-1.66 5.24-2.43 7.92-8.43-2.68-16.73-5.24-25.16-7.92.77-2.55 1.53-4.98 2.3-7.54 6 1.79 11.88 3.58 17.88 5.36.77-2.68 1.66-5.49 2.43-8.17 1.4-7.28-7.54-8.43-12.26-9.71.76-2.29 1.4-4.72 2.17-7.14m100.89 26.3c5.11.51 6 7.41.77 8.17-3.32.51-5.87-3.7-3.96-6.51.77-1.02 2.04-1.27 3.19-1.66m-153.76 11.12c5.36.13 6.26 7.02 1.28 8.05-4.99 1.01-6.78-5.75-1.28-8.05m9.83 2.17c5.24-.26 7.15 6.13 2.81 7.66-5.88 2.17-7.54-5.11-2.81-7.66m-43.55-25.16c-2.55-.13-5.11-.38-7.66-.51 1.28-16.22 2.55-32.44 3.83-48.79 2.55.26 4.98.38 7.54.64-1.41 16.35-2.56 32.44-3.71 48.66m-67.56-42.79c6.13-.26 6.13 7.02 1.15 8.05-4.85.89-6-5.62-1.15-8.05"/><path d="m429.76 156.39h-2.17c-.51 13.54-1.02 27.08-1.53 40.74-8.56 0-13.54-.51-25.8-.13-.26-10.6-1.02-18.65-9.71-20.82-12.64-3.19-22.99 11.11-16.35 21.84v.13c-4.98 0-13.67 1.28-13.67 1.28l-22.35 2.43s-10.6 2.17-13.15.13c-3.7-2.94-2.17-12.01-4.09-16.73-1.15-1.02-5.87.64-7.66.77.51 3.32 3.58 15.84 2.3 18.26-.89 1.79-12.64 3.07-12.64 3.07l-31.03 6.9s-9.58 3.19-11.62 2.3c-5.62-2.3-5.11-13.41-13.41-16.22-7.15-2.43-12.01 3.45-16.6 5.24-.51 1.66 2.55 4.6 3.32 6.51 1.4.38 5.24-3.19 7.54-3.83 5.24-1.28 6.13 3.83 7.66 6.9.77 1.28 1.53 2.55 2.3 3.83l.64.64c-13.92 3.83-27.46 8.05-40.49 13.15-4.85 1.92-9.58 3.7-14.43 5.62-5.11-12.52-10.34-25.03-15.45-37.55-2.43.89-4.85 1.92-7.28 2.81 6.13 15.07 12.26 30.14 18.39 45.08 4.09-1.66 8.05-3.32 12.13-4.98 11.62-4.09 23.24-8.17 34.74-12.26 5.62-1.79 15.45-2.3 17.11-8.05 5.24 2.3 11.75 0 16.6-1.28 11.49-2.55 22.99-4.98 34.48-7.54 6.51-1.53 13.28-1.02 15.2-7.02 1.53 1.02 2.68 2.55 4.6 3.07 2.55.77 6.13-.26 8.43-.64 6.9-.77 20.69-2.43 20.69-2.43l21.33-1.79 7.28-.13 21.46-.64 12.13-.13s9.83.38 14.81.64c.64-16.22 1.15-32.44 1.79-48.79-1.8-.13-3.59-.26-5.5-.38m-37.17 40.87c-2.94.13-6.9.64-9.07-.51-3.7-2.04-4.47-9.2-.77-12.01 1.15-.89 3.07-1.53 5.11-1.15 5.11 1.15 4.6 7.66 4.73 13.67"/><path d="m327.33 215.9c5.36-.26 6.51 6.26 2.3 7.66-5.37 2.05-7.79-4.72-2.3-7.66m-9.96 1.66c5.87-.13 5.75 7.54.51 8.05-3.19.38-5.36-3.83-3.45-6.39.64-.89 1.79-1.15 2.94-1.66m-143.42 14.94h.64c.51 2.3 1.15 4.6 1.66 6.9h-.38c-2.68 1.4-6.77 1.53-7.02 5.24 2.94 7.66 8.81.89 12.77 1.15.89 2.17 1.92 4.34 2.81 6.51-6.51 2.94-12.9 5.87-19.41 8.81-1.02-2.17-1.92-4.34-2.94-6.51 1.53-.77 2.94-1.53 4.47-2.3-4.34-1.53-7.28-8.94-3.96-13.67 2.8-3.7 6.76-4.08 11.36-6.13m219.28 4.09 1.53 35.63c-2.68.13-5.36.26-8.05.38-.26-4.98-.38-9.96-.64-14.94h-2.17c-3.7.13-7.28.38-10.98.51.13 4.98.38 9.96.51 14.94-2.68.13-5.36.26-8.05.38l-1.53-35.63c2.68-.13 5.36-.26 8.05-.38.26 4.6.38 9.07.64 13.67 4.34-.13 8.81-.38 13.15-.51-.13-4.6-.38-9.07-.51-13.67 2.68-.12 5.37-.25 8.05-.38m-43.55 2.3h.64c-3.07 7.28-6.13 14.56-9.2 21.84.64 4.98 1.15 9.96 1.79 14.94-2.68.38-5.36.64-8.05 1.02-.51-4.85-1.15-9.71-1.66-14.56-4.6-6.51-9.07-12.9-13.67-19.41v-.13c1.66-.13 8.3-1.4 9.2-.64 2.68 4.73 5.49 9.45 8.17 14.18 1.53-5.36 2.94-10.73 4.47-16.09 2.82-.51 5.63-.77 8.31-1.15m80.2-1.41c-3.58-.13-7.15-.38-10.73-.51-4.09 11.75-8.05 23.37-12.13 35.12 2.81.13 5.62.26 8.43.38.89-3.07 1.92-6 2.81-9.07 3.45.13 6.77.38 10.22.51.77 3.07 1.53 6.13 2.3 9.2 2.94.13 5.75.26 8.68.38-3.19-12.12-6.38-24.13-9.58-36.01m-2.42 20.31c-2.55-.13-5.11-.26-7.66-.38 1.4-4.73 2.81-9.58 4.21-14.3l3.45 14.18zm-157.47-5.87c.26 0 .51.13.77.13.51 2.04 1.02 4.21 1.53 6.26-4.34 1.15-8.81 2.17-13.15 3.32v.64c.77 2.43 1.4 4.85 2.17 7.28 3.96-1.02 8.05-2.04 12.01-3.07.64 2.17 1.15 4.21 1.79 6.39-4.09 1.15-8.17 2.17-12.26 3.32 1.15 4.6 2.3 9.2 3.45 13.79-2.68.64-5.24 1.15-7.92 1.79-2.94-11.49-5.75-22.99-8.68-34.48 6.62-1.93 13.52-3.71 20.29-5.37m31.79-6.01c-.89-.77-8.43 1.28-10.47 1.53-1.4 12.39-2.81 24.78-4.22 37.04 2.68-.51 5.49-1.02 8.17-1.53.26-3.07.51-6.26.77-9.32 3.45-.64 6.77-1.28 10.22-1.92 1.4 2.68 2.81 5.49 4.22 8.17.26.26 7.28-.89 8.17-1.28h.38c-5.74-10.85-11.49-21.7-17.24-32.69m-5.61 21.59c.38-4.98.64-9.96 1.02-14.94 2.3 4.47 4.47 8.94 6.77 13.41-2.56.5-5.24 1.02-7.79 1.53m-75.23-1.28h.51c3.07 9.07 6.26 18.14 9.32 27.2 4.47-1.53 8.81-3.07 13.28-4.6.77 2.17 1.4 4.34 2.17 6.51-5.11 1.66-10.34 3.45-15.45 5.11-1.28.38-4.6 2.3-5.62 1.66-3.83-11.11-7.66-22.09-11.49-33.21 2.43-.88 4.86-1.78 7.28-2.67m-25.79 21.07c-1.79-2.17-4.85-7.02-7.54-7.92-3.07 1.53-6.13 3.07-9.2 4.6 1.79 12.13 3.58 24.14 5.36 36.27v.38c2.55-1.15 4.98-2.3 7.54-3.45-.51-3.07-1.15-6.13-1.66-9.2 3.07-1.53 6.13-2.94 9.2-4.47 1.92 2.17 3.83 4.21 5.75 6.39 1.79 1.15 6-2.17 8.43-2.94 0-.13.13-.26.13-.38-6.01-6.38-12.01-12.76-18.01-19.28m-6.77 14.43h-.13c-.89-4.85-1.92-9.71-2.81-14.56 2.81 3.32 5.75 6.64 8.56 9.96l1.28 1.28c-2.3 1.15-4.6 2.3-6.9 3.32m298.46-58.11c6.51-.13 10.34 1.4 14.56 3.07-.89 2.04-1.79 4.21-2.68 6.26-9.32-5.75-22.35-.89-19.67 12.13 1.4 7.02 7.92 9.45 16.22 8.56.13 1.53.77 5.36-.13 6.39-2.81 1.28-8.17.26-10.86-.51-8.56-2.3-16.35-8.81-13.41-21.2 1.4-6.13 4.85-10.98 10.22-13.28 1.92-.39 3.84-.91 5.75-1.42m30.4 6.01c2.68.64 5.24 1.28 7.92 1.92-2.43 9.32-4.85 18.65-7.28 27.84 4.6 1.15 9.07 2.43 13.67 3.58-.51 2.17-1.15 4.34-1.66 6.51h-.13c-5.24-1.4-10.47-2.81-15.71-4.21-1.53-.38-4.85-.51-5.62-1.79 2.93-11.25 5.87-22.61 8.81-33.85m35.63 9.96c2.55.89 4.98 1.79 7.54 2.68-2.55 6.9-5.11 13.79-7.66 20.69-1.28 4.21-.13 8.17 2.94 9.58 4.09 1.66 6.64-.89 8.17-3.32 4.09-6.39 4.73-15.58 8.81-22.09 2.43.89 4.98 1.92 7.41 2.81-1.53 3.83-2.94 7.79-4.47 11.62-3.45 8.81-6.64 21.97-20.82 17.5-1.92-.89-3.7-1.79-5.62-2.68-11.62-8.31.89-27.09 3.7-36.79m62.07 28.35c-3.45-5.62-12.13-8.3-18.9-10.47-4.98 10.6-9.83 21.2-14.81 31.8 5.87 2.55 10.47 6.13 17.88 7.41 6.39 1.02 12.52-4.34 11.11-10.98-.51-2.55-2.17-3.96-3.45-5.62 7.15.25 11.87-5.88 8.17-12.14m-14.3 21.2c-3.07 2.3-7.15-.51-9.58-1.28-.13-.13-.26-.38-.38-.51 1.4-2.94 2.81-5.87 4.21-8.81 3.32 1.41 11.75 6 5.75 10.6m6.64-15.2c-2.17 3.19-7.28.38-9.71-.51 1.15-2.55 2.17-4.98 3.32-7.54 3.32.26 9.32 3.71 6.39 8.05"/></g><path d="m269.22 456.64c1.28 0 2.43.13 3.7.13-.13 6.13 1.28 25.67 3.58 28.48.77-7.54 6.26-13.28 9.96-18.14-1.28-12.39-2.17-27.84 1.15-38.95 1.66-5.75 4.73-10.34 6.64-15.45-4.34-2.17-4.47-12.52-6.77-17.11-.26.13-.38.38-.64.51-2.04 4.73-4.09 9.32-6.13 14.05-4.98 12.77-7.79 29.25-7.79 46.74-1.4-.13-2.42-.13-3.7-.26-.38-23.75 5.36-45.08 13.15-60.79 1.79-3.45 2.17-6.9 4.09-9.96 6.9-11.75 26.05-29.37 26.05-29.37l11.62-10.34s22.99-15.2 37.55-19.67c6.9-2.17 14.56-2.81 22.61-4.09 15.07-2.43 33.21-.26 45.47 2.81 35.12 8.81 57.85 26.69 76.88 51.34 13.03 16.86 25.16 32.69 25.03 61.94v.77s4.34 30.01-4.21 54.28c.13.38-.26 1.28-.26 1.79-2.94 15.58-11.11 27.84-19.03 38.57-18.26 24.78-43.55 43.17-78.29 51.72-12.39 3.07-30.91 5.11-45.72 2.43-7.66-1.4-14.81-2.55-21.71-4.73-42.53-13.28-76.5-45.59-89.27-88.76-3.19-10.48-3.96-24.91-3.96-37.94" fill="#fff"/><g fill="#eb8601"><path d="m394.51 325.48c-1.66.13-3.19.26-4.85.38-4.09.51-8.05 1.02-12.13 1.66-12.39 2.68-23.24 6.26-33.08 11.37-2.3 1.15-5.36 2.04-7.15 3.83 5.36 0 9.32 1.15 14.05 1.28 6.64-7.79 16.86-9.83 29.12-12.39 3.83-.77 9.2-2.3 14.05-1.4 4.34.64 9.58 1.53 13.28 1.79 1.66-2.17 4.09-3.32 6-5.36v-.13c-6.01-.39-12.52-1.03-19.29-1.03"/><path d="m392.85 334.93c-2.04.13-4.21.38-6.26.51-4.73.77-9.32 1.66-14.05 2.43-16.73 4.21-21.46 13.54-27.84 28.1-1.28 3.07-6.77 15.2-5.11 18.9 2.68 1.92 5.36 3.83 8.04 5.62 5.11 3.7 10.22 7.15 15.2 10.98 3.07 2.81 6.13 5.62 9.2 8.43 6-2.68 13.41-3.7 20.31-5.49 9.96-2.55 20.56-5.49 32.69-5.49 5.11-12.01 10.09-23.88 15.2-35.89-8.43-13.16-26.18-27.84-47.38-28.1m54.91 29.12c-.77.13-1.66.38-2.43.51-3.83 6-6 13.79-8.94 20.56-2.43 5.62-4.73 11.24-7.15 16.86 3.83 3.07 7.41 10.09 10.22 14.43 6.13 9.71 13.67 19.67 17.62 31.16 13.79 2.04 27.71 4.09 41.51 6.13 1.66-2.81 3.19-5.75 4.85-8.56 6.51-11.24 11.62-28.22 5.62-43.42-4.21-10.86-11.24-21.07-19.67-27.84-1.79-1.4-3.32-3.45-5.49-4.34-2.55-.64-5.11-1.15-7.54-1.79-8.55-2.3-18-3.7-28.6-3.7"/><path d="m489.14 364.43c.13.89.26 1.66.38 2.55 1.66 1.4 3.19 2.68 4.85 4.09 3.83 3.07 7.41 7.79 10.34 11.75 4.34 6 8.17 13.15 10.73 21.07.64 2.81 1.15 5.75 1.79 8.56 0 1.28.13 2.43.13 3.7 2.3 2.68 4.6 5.36 6.9 8.05h.13v-.51c-7.79-24.52-16.73-45.72-35.25-59.26m-153 24.52c-8.68 5.49-17.37 10.98-26.05 16.48-3.19 2.04-7.79 3.83-9.83 6.9-5.87 8.94-12.26 26.44-9.71 42.15.64 4.21-.26 8.3 1.02 11.75 1.66 4.73 13.03 14.18 17.11 17.5 4.09 3.19 8.94 9.2 15.2 9.71 13.03-8.56 26.05-17.24 39.08-25.8-.89-4.34-.26-9.83.51-14.56.89-7.54 1.66-14.94 2.55-22.48 1.02-5.62.51-12.01 2.43-16.86-5.49-7.15-15.71-13.79-23.24-18.9-2.68-1.67-5.75-5.25-9.07-5.89m119.93 63.35c-2.68 4.34-6.9 7.54-9.96 11.49-8.56 9.45-16.99 18.9-25.54 28.48 2.04 10.86 3.96 21.71 6 32.69.64 4.47 1.15 9.07 1.79 13.54 2.68.77 5.24 1.53 7.92 2.3 6.39 1.92 17.88 4.34 26.18 2.94 2.43-.26 4.98-.51 7.41-.77 4.73-1.66 8.43-6.13 12.13-9.07 9.58-7.66 19.28-18.65 23.24-31.67.64-2.3.38-5.87.38-8.68 0-13.79-2.04-25.93-7.28-34.61-14.18-2.3-28.23-4.47-42.27-6.64m-89.41 18.9c-9.32 6.26-18.65 12.52-27.97 18.77-2.55 1.66-10.98 5.87-12.13 8.3-1.92 6.39.26 15.45 1.66 21.07 1.79 7.02 3.45 13.54 5.87 19.67.51 1.53 1.02 3.07 1.66 4.73 3.32 4.98 19.28 11.37 25.8 14.05 3.96 1.66 16.22 6.9 21.71 6 12.13-2.04 23.88-10.6 32.06-16.99 1.66-1.4 7.41-5.62 7.92-7.54-.38-2.43-.64-4.73-1.02-7.15-1.15-6.26-1.66-12.52-2.94-18.39-.77-3.32-2.55-18.77-3.83-20.05-3.58-1.4-7.28-2.68-10.86-4.09-9.96-4.47-20.05-9.07-30.01-13.54-2.93-1.39-5.36-3.56-7.92-4.84"/><path d="m519.28 502.75c-2.68 1.92-6.77 2.04-10.22 3.19-4.6 14.94-24.39 35.12-37.55 41.76-1.02 8.17-4.85 15.32-8.56 21.07 5.49-1.92 10.47-6.64 14.81-9.96 13.15-9.83 23.24-22.09 32.06-36.4 1.67-2.81 9.85-16.86 9.46-19.66m-187.74 44.44c-4.73 2.43-12.9 1.79-19.54 1.79 2.81 3.58 6.9 6.51 10.47 9.2 19.28 14.56 42.78 24.39 73.82 27.2-.38-.38-.64-.77-1.02-1.15-4.09-2.04-9.96-11.37-12.26-15.45-3.96.89-11.49-2.04-14.69-3.07-9.45-2.94-18.26-6.51-26.18-11.11-2.81-1.79-8.04-6.52-10.6-7.41"/></g></g></g></svg>