<svg height="403.148" viewBox="39.933 0 185.244 403.148" width="185.244" xmlns="http://www.w3.org/2000/svg"><path d="M75.3 442.2v-15.6c0-.8.2-.9 1-.9h5.9c.7 0 1.5.1 2.3.1s1 .3 1 1.1c0 5.7-.1 11.3-.1 17 0 4.3 0 8.7-.1 13 0 .4-.1.8-.1 1.3s.2.7.7.6c.9-.1 1.9-.1 2.8-.1 2 0 4 .1 6 .2.5 0 .6-.2.6-.6 0-7-.1-14 0-21 0-3.1-.1-5.9 0-9V427c0-.8.5-1.1 1.3-1.1 2.1.1 4.2.1 6.2.1h1.9c.5 0 .6.1.7.8v21.4c0 3.4-.1 6.8-.2 10.1 0 .4.1.6.6.6h9c.5 0 .7-.3.7-.8v-32.9c.1-1.3.6-1.6 1.6-1.6h5.1c.8 0 1.6.1 2.3.1.8 0 1.1.4 1.1 1.2 0 2.4-.1 4.9-.1 7.3v7.4c0 1.5.1 3.1 0 4.6 0 6.1-.1 12.3-.1 18.4v4c0 .7-.4 1.1-1.1 1.1-3 0-107.6.1-108.6 0-1.7-.1-3.7-.8-4.4-1.1-.1 0-4.1-2-5.5-3.2-1.5-1.4-2.8-3.1-3.2-5.2-.2-1.1-.3-2.2-.3-3.4v-20.3c0-3 1.3-5.5 3.4-7.6 1.1-1.1 2.5-1.8 4-2.6 1.6-.8 3.4-.8 5.1-1.1 1.2-.2 2.5 0 3.8 0 3.5 0 7 0 10.5.1h6.3c.9 0 1.1.1 1.1 1.1l-.3 15.8v15.5c0 .7 0 1.4-.1 2.1 0 .7.2.7.9.7.9-.1 1.8-.1 2.7-.1 1 0 2.1-.1 3.1-.1h2.6c1.2 0 2.4 0 3.6.1h.3c1 .2 1 .1 1-.9 0-2.9-.1-5.7-.1-8.6v-7.2c0-3.8 0-7.6.1-11.3 0-1.4.1-2.8.1-4.2 0-.3-.3-2.7 1.4-2.7h7c1.3 0 1.6.2 1.6 1.6v24.3c0 2.6 0 5.2-.1 7.8 0 .2 0 .3-.1.5q-.3.9.6.9c1.2 0 2.3-.1 3.5-.1 1 0 2 .1 3 .1s2.1-.1 3.1 0c1.2 0 2.4.1 3.6.1 1 .1 1.1 0 1.1-1v-15.5zm-62.9 2.3h-.1v9.8c0 2.1 1.9 4 4 4h2.2c1 0 2 .1 3 .1 1.3 0 2.6 0 3.9.1.5 0 .8-.2.8-.7v-1.5c0-3.3.1-6.7.1-10 .1-4.8.1-9.7.1-14.5 0-.7-.3-.8-.9-.8-2.7.1-5.3.2-8 .1-1.4 0-2.5.4-3.6 1s-1.6 1.6-1.6 2.8c.1 3.1.1 6.3.1 9.6m157.9-9.3v-21.8c0-1.3.1-1.5 1.4-1.6h.7c2.2.4 4.3.2 6.5.1 1.5-.1 1.7.1 1.7 1.7 0 7.4-.1 14.8-.1 22.2 0 6.2 0 12.4-.1 18.6v.5c-.2 2.3 1.8 4.1 3.9 4.2 1.2 0 2.4.1 3.6.1.5 0 1 .1 1.5.1.6.1.9-.2.9-.8v-20.8c0-1.4.1-2.7.3-4.1.3-2.6 1.8-4.5 3.7-6.1 1.3-1.2 2.9-1.9 4.6-2.5 2.1-.7 4.3-.8 6.5-.8h4.5c1.6.1 3.3 0 4.9.4 1.4.3 2.8 1 4.1 1.7s2.5 1.8 3.3 3.1c1.1 1.6 2 3.2 2.1 5.2.1 2.2.1 4.4.1 6.6 0 3.7.1 7.3.1 11 0 2-.1 4-.2 6-.1 1.1.1 1.2 1.2 1.1.5-.1 1.1 0 1.7 0 2.1 0 4.2.1 6.3.2.6 0 .8-.2.8-.7 0-1.1-.1-2.2-.1-3.2 0-6.3.1-12.5.1-18.8 0-4.2-.1-8.5-.1-12.7 0-3.4.1-6.7.1-10.1 0-1.7 0-1.7 1.7-1.7h7.4c1.2 0 1.6.4 1.4 1.6-.1.4-.1.8-.1 1.2v35.8c0 3.8-.1 7.6-.1 11.4 0 1.6.1 3.3.1 4.9 0 .9-.5 1.4-1.4 1.4-1.9 0-3.8-.1-5.7-.1H229c-8 0-16.1-.1-24.1-.1-3.9 0-7.7-.1-11.6-.2-1.3 0-2.7.1-4 .1-2.5 0-5 0-7.5-.2-3.8-.4-7-2-9.3-5.1-1.1-1.5-1.9-3.2-2-5.1-.1-2.6-.1-5.2-.1-7.8-.2-5.2-.2-10.1-.1-14.9m30.2 21.4s-.1 0 0 0v2c0 .5.3.8.8.8h4.5c2.3 0 4.6-.1 6.8-.1 1.6 0 1.6 0 1.6-1.5 0-3-.1-6.1-.1-9.1v-10.9c0-.5.1-1.1.1-1.6-.1-2.1-2.4-3.9-4.7-3.9h-3.8c-1.8-.1-4.3.7-4.9 2.9q-.3 1.05-.3 2.1zM37.2 514v9.6c0 4.6-.1 9.2-.1 13.7 0 .5 0 1 .1 1.5 0 .5-.2.9-.7.9h-5c-.8 0-1.6-.1-2.4-.1-.2 0-.3.1-.5.1.1.2.2.4.3.5 1.5 1 3 2.1 4.5 3.1l3.3 2.4c.3.2.6.4.9.5.5.2.8.5.8 1.1v1.9c0 1.5.1 3 .1 4.6 0 .3-.1.8-.4.9-.2.1-.7-.1-.9-.2-2.5-1.7-4.9-3.5-7.4-5.3-.7-.5-1.3-1-2-1.4-.6-.3-1.4-.6-2.1-.6-1.6-.1-3.2.1-4.8.1h-7.5c-1 0-2-.3-2.9-.6-.9-.2-1.7-.6-2.6-1-3-1.5-5.2-3.7-6.1-7-.3-1-.4-2.1-.4-3.1v-13.9l.3-13.1c0-1.6-.1-3.2 0-4.8 0-.9.3-1.9.6-2.8.6-1.5 1.2-2.9 2.5-3.9.8-.6 1.6-1.4 2.5-1.9s1.9-1.1 3-1.3c1.4-.3 2.8-.6 4.2-.6 2.2-.1 4.5 0 6.8.1 1.5 0 3-.1 4.4.1 1 .1 2 .6 3 .8.9.2 1.7.6 2.5 1 2.5 1.4 4.3 3.4 5.3 6.1.6 1.6.5 3.3.5 5 .2 2.4.2 5 .2 7.6m-25.7 11.8v8.6c0 .6.1 1.3.4 1.9.9 1.9 3.1 2.9 5.2 2.6 1-.1 2.1-.1 3.1-.1s1.9.1 2.9.1h2.4c.3 0 .7 0 1 .1.6.1.8 0 .8-.6 0-2.1-.1-4.2-.1-6.3 0-4 0-8 .1-12 0-3.4.1-6.8.1-10.3 0-.8.1-1.6.1-2.4s.1-1.5 0-2.3c-.2-1.1-.6-2.1-1.7-2.6-.2-.1-.3-.2-.4-.3-.9-.7-1.9-.8-2.9-.7-1 0-5.7-.1-7 .1-2.1.4-3.6 1.7-3.6 4.1-.3 2.9-.4 16.3-.4 20.1M121 511v13c0 1.6 0 3.2-.1 4.8-.1 2.7-.1 5.3-.2 8 0 2-1 3.6-2 5.2-1.5 2.3-3.7 3.7-6.3 4.6-3.2 1.2-6.6 1.2-10 1.1h-3.1c-3.8 0-7.7-.1-11.5-.1-.6 0-.8-.2-.8-.8 0-2.5.1-5.1.1-7.6 0-9.2.1-18.4.1-27.5 0-5.3.1-10.5.1-15.8v-1.5c0-.8.4-1.1 1.2-1 1.2.1 2.5.1 3.8.1h8.3c.9 0 1.9.1 2.8.1h2.3c.9 0 1.9 0 2.8.1.7.1 1.3.3 1.9.5 1.8.4 3.5 1.2 5.1 2.2 2.3 1.5 3.8 3.5 4.7 6 .5 1.3.6 2.8.7 4.2.3 1.4.2 2.9.1 4.4zm-23.5 9.7q-.15 0 0 0c-.1 2.9-.1 5.8-.1 8.8 0 3.1 0 6.1-.1 9.2 0 1.1 0 1.1 1.1 1h.2c1.1 0 2.1.1 3.2.1 1.6 0 3.3 0 4.9-.3 1-.2 1.9-.6 2.5-1.3 1-1.1 1.7-2.5 1.7-4.2-.1-3 0-6 0-9 0-2.8.1-5.6.1-8.4 0-3-.1-6 0-9 .1-2.3-1-4.4-3.1-5.3-1.2-.5-2.5-.9-3.8-.7h-.9c-1.5 0-3.1-.1-4.6-.1-1 0-1 0-1 1-.1 6-.1 12.1-.1 18.2m165.9 1.1v25.5c0 1.3 0 1.3-1.3 1.3h-7.9c-1 0-1.2-.3-1.1-1.3.1-1.6.1-3.3.1-4.9v-15.1c0-.5-.1-.8-.6-.8H244c-1.3 0-2.5-.1-3.8-.1-.4 0-.7 0-.7.6 0 2.7.1 5.5.1 8.2v11.1c0 .4 0 .8.1 1.1.1.8-.1 1.1-.9 1.1h-8q-.6 0-1.2-.3c-.2-.1-.4-.5-.4-.7 0-1 .1-2 .1-3v-48.4c0-.2 0-.5.1-.7.2-.9.4-1.1 1.4-1h7.8c.9 0 1.2.3 1.2 1.2 0 4.8-.1 9.6-.1 14.3 0 2.5 0 4.9-.1 7.4 0 1.5 0 1.5 1.5 1.5 3.8 0 7.7 0 11.5.1.5 0 .8-.2.8-.8 0-4.2-.1-8.3-.1-12.5v-9.9c0-1.1.2-1.2 1.3-1.2 2.3.1 4.6 0 6.9.1 2 0 2.1.1 2.1 2.1 0 4.8-.1 9.6-.2 14.3zM152.8 511v-4c.1-2.4-1-4-3.4-4.5-.7-.2-1.5-.3-2.3-.3-1.4-.1-2.7-.1-4.1-.1-1.7 0-3.1.6-4.1 2-.4.6-.6 1.5-.7 2.2-.1 1.1-.1 2.2-.1 3.2 0 .4.3.8.6 1 1.5 1.1 3 2.2 4.6 3.3 1.3.9 2.6 1.9 4 2.8 2.6 1.8 5.1 3.7 7.7 5.5 2.1 1.5 4.1 3.1 6.3 4.5 1.1.7 1.4 1.4 1.4 2.6-.1 3 0 6-.1 9-.1 1.5-.8 2.8-1.6 4-1.3 2-3.1 3.5-5.2 4.5-1.3.6-2.6 1-4.1 1h-.3c-2.7.6-5.4.2-8.1.2-.9 0-1.8-.1-2.6-.1-1.7 0-3.5-.3-5-.9-1.3-.5-2.5-1.4-3.6-2.2-2.2-1.6-3.2-3.9-3.9-6.4-.2-.9-.1-1.8-.2-2.8v-6.1c0-1 .5-1.5 1.4-1.7s1.8-.4 2.7-.7c1.2-.4 2.5-.8 3.7-1.3.3-.1.7-.3 1-.5.7-.3 1.1-.1 1.2.7.1.6.1 1.1.1 1.7 0 2.6-.2 5.2-.1 7.8 0 1.3.7 2.5 1.9 3.2 1.4.8 2.8.7 4.3.8h3.4c2 0 3.6-.8 4.6-2.6.2-.3.2-.6.3-.9v-3.3c0-.6-.3-1-.8-1.4-2.1-1.4-4.2-2.8-6.3-4.3-2.2-1.5-4.4-3-6.5-4.5-3.5-2.4-7-4.8-10.4-7.3-.3-.2-.5-.7-.5-1.1 0-3.4 0-6.9.1-10.3 0-.2 0-.5.1-.6.6-1.3 1.1-2.7 1.8-3.9.4-.7 1-1.4 1.6-1.9 2.9-2.6 6.3-3.7 10.2-3.7 2.3 0 4.6 0 7 .1 1.6 0 3.3.1 4.8.6 2.6.8 5 2 6.7 4.2 1.4 1.9 2.4 4 2.4 6.5-.1 2.5 0 5 0 7.5 0 .7-.3 1-.9 1.2-1.8.6-3.5 1.2-5.3 1.8-.8.3-1.6.7-2.5 1-1 .4-1.4.1-1.4-1V511zm-75.2 36.5h-3.8c-.5 0-.8-.1-.9-.7-.4-2-.7-3.9-1.1-5.9-.1-.7-.3-1.3-.5-2l-1.2-6c-.1-.5-.5-.6-.9-.6h-5c-2.8 0-5.5 0-8.3-.1-.6 0-.9.2-1 .8-.3 1.7-.7 3.4-1 5.2-.3 1.7-.6 3.4-1 5.1-.2 1.1-.5 2.2-.7 3.4q-.15.75-.9.6c-2.5 0-5-.1-7.5-.1-1 0-1.4-.4-1.2-1.4.5-1.8 1-3.6 1.4-5.4.2-.6.1-1.3.3-2 .5-2.4 1-4.8 1.5-7.3.5-2.1.9-4.2 1.4-6.3.5-2 .9-4.1 1.4-6.1.7-3 1.4-5.9 2.1-8.9.6-2.7 1.1-5.4 1.7-8l1.8-8.1c.1-.5.5-.8 1.1-.8h11.8c1.2 0 2.4.1 3.6.1.5 0 .8.3.9.7.4 2 .8 4.1 1.2 6.1l1.2 5.4c.4 1.8.7 3.6 1.1 5.3.6 2.8 1.2 5.5 1.8 8.3.4 1.7.7 3.5 1 5.3.2 1 .4 2 .7 3 .6 2.9 1.2 5.7 1.8 8.6.5 2.4 1 4.9 1.5 7.3.2 1 .5 2 .7 3 .2.9 0 1.2-.9 1.2-1.6.3-2.9.3-4.1.3m-10-22.8c.5.1.8-.2.7-.6-.3-1.3-.5-2.6-.8-3.9-.4-2.2-.9-4.4-1.3-6.6-.8-3.9-1.5-7.8-2.3-11.7-.1-.3-.5-.7-.6-.7-.6.2-1.3-.3-1.9.3v.1c-.2.6-.3 1.3-.4 1.9-.4 2.3-.9 4.7-1.3 7-.2 1.2-.6 2.5-.8 3.7-.7 3.2-1.3 6.5-2 9.7-.1.5 0 .7.5.7.4 0 .8-.1 1.2-.1H63c1.5.1 3.1.2 4.6.2m152.3 22.8h-3.8c-.5 0-.8-.1-.9-.7-.4-2-.7-3.9-1.1-5.9-.1-.7-.3-1.3-.5-2l-1.2-6c-.1-.5-.5-.6-.9-.6h-5c-2.8 0-5.5 0-8.3-.1-.6 0-.9.2-1 .8-.3 1.7-.7 3.4-1 5.2-.3 1.7-.6 3.4-1 5.1-.2 1.1-.5 2.2-.7 3.4q-.15.75-.9.6c-2.5 0-5-.1-7.5-.1-1 0-1.4-.4-1.2-1.4.5-1.8 1-3.6 1.4-5.4.2-.6.1-1.3.3-2 .5-2.4 1-4.8 1.5-7.3.5-2.1.9-4.2 1.4-6.3.5-2 .9-4.1 1.4-6.1.7-3 1.4-5.9 2.1-8.9.6-2.7 1.1-5.4 1.7-8l1.8-8.1c.1-.5.5-.8 1.1-.8h11.8c1.2 0 2.4.1 3.6.1.5 0 .8.3.9.7.4 2 .8 4.1 1.2 6.1l1.2 5.4c.4 1.8.7 3.6 1.1 5.3.6 2.8 1.2 5.5 1.8 8.3.4 1.7.7 3.5 1 5.3.2 1 .4 2 .7 3 .6 2.9 1.2 5.7 1.8 8.6.5 2.4 1 4.9 1.5 7.3.2 1 .5 2 .7 3 .2.9 0 1.2-.9 1.2-1.6.3-2.9.3-4.1.3m-10-22.8c.5.1.8-.2.7-.6-.3-1.3-.5-2.6-.8-3.9-.4-2.2-.9-4.4-1.3-6.6-.8-3.9-1.5-7.8-2.3-11.7-.1-.3-.5-.7-.6-.7-.6.2-1.3-.3-1.9.3v.1c-.2.6-.3 1.3-.4 1.9-.4 2.3-.9 4.7-1.3 7-.2 1.2-.6 2.5-.8 3.7-.7 3.2-1.3 6.5-2 9.7-.1.5 0 .7.5.7.4 0 .8-.1 1.2-.1h4.4c1.5.1 3.1.2 4.6.2m-46.3-74.4c-.1 4.6-.2 9.2-.2 13.8 0 .8.1 1.5.1 2.3 0 1.3-.3 1.5-1.5 1.5-6.6 0-13.2-.1-19.8-.1h-8.9c-.7 0-.9-.3-.9-1.1 0-.9.1-1.7.1-2.6v-4.2c0-1 .2-1.1 1.2-1.1 6.2 0 12.3.1 18.5.1 1.3 0 1.3 0 1.2-1.4V456c0-3.2.1-6.4.1-9.5v-9.3c0-1 .3-2.1-.3-3-.8-1.3-1.8-2.5-3.5-2.6-.8-.1-1.5-.1-2.3-.1-1.2-.1-2.3.3-3.3 1-1 .6-1.3 1.6-1.4 2.7-.1.8 0 1.5 0 2.3v7.9c0 .7.1 1.3.1 2 0 1.2-.6 1.6-1.7 1.2-1.3-.5-2.5-1-3.8-1.5s-2.7-1-4-1.5c-.6-.2-1-.7-.9-1.3.1-.8.2-1.7.2-2.5.1-2.7.2-5.3.2-8 0-1.8.7-3.4 1.7-4.9 1.9-2.6 4.5-4.2 7.6-5 3.4-.9 6.8-.6 10.1-.4 3 .2 5.7 1.5 8 3.6 1.6 1.5 2.6 3.2 3.2 5.2.2.8.2 1.7.2 2.6v15.2c-.1.2 0 .2 0 .2m99.7-9.9v26.7c0 1-.6 1.5-1.6 1.5-2.4 0-4.9-.1-7.3-.1-.3 0-.6 0-.9-.1-.4-.1-.6-.5-.6-1 0-2.4-.1-4.8-.1-7.2 0-3 .2-6 .2-8.9 0-.9-.1-1.7-.1-2.6 0-3.4.1-6.7.1-10.1 0-3.3-.2-6.7-.2-10 0-3.6.1-7.2.2-10.8v-4.5c0-.7.3-1.1.9-1.1 2.2 0 4.4.1 6.6.1h1.6c.9 0 1.2.3 1.2 1.2zm-83.1 74.1v16.9c0 4.8-.1 9.7-.1 14.5v1.3c0 .7-.3 1-.9 1-2.4-.1-4.8-.1-7.2-.2h-.7c-.9.1-1.5-.4-1.5-1.4v-12c0-4.7.1-9.3.1-14v-6.3c0-1.5.1-3 .1-4.4v-15.1c0-.9.4-1.2 1.3-1.2.6 0 1.2.1 1.9.1 1.2 0 2.4 0 3.6.1 1 0 1.9.1 2.9.2.5 0 .7.4.7.9V511c-.2 1.2-.2 2.4-.2 3.5" fill="#f9df00"/><path d="M207.3 410.9h11.3c.8 0 1.3.5 1.2 1.4-.1 1.6-.1 3.2-.1 4.8v.5c0 1.1-.5 1.5-1.5 1.5-6.7-.1-13.5-.1-20.2-.2-.7 0-1.4.1-2 .1-.7.1-1.2-.3-1.2-1.1 0-2 .1-4 .1-6 0-.9.1-1 1.1-1h8.6q1.5.15 2.7 0zM42 476.3v-3c0-.6.3-1 1-1 2.2 0 4.4 0 6.5.1.9 0 1.9-.1 2.8-.1h2.3c1.6 0 3.3.1 4.9.1.9 0 1.7-.1 2.6-.1.8 0 1.6 0 2.4.1h1.2c.7-.1 1 .2 1 .9v6.2c0 .8-.4 1-1.1 1-1.8-.1-3.6-.1-5.4-.1-1.1 0-2.2-.1-3.3-.1-1 0-1.9.1-2.9.1-.2 0-.4 0-.6-.1-.2 0-.3-.1-.4-.1-1.7.4-3.3-.2-5 0-1.6.2-3.2.1-4.8.1-.9 0-1-.2-1-1.1-.2-1-.2-2-.2-2.9m-22.8-58.7H9.3c-.5 0-.9-.2-.8-.8 0-.8.1-1.6.2-2.4v-3.6c0-.8.6-1.2 1.4-1.1 1.6.1 3.2.2 4.8.2h6.4c2.6 0 5.2-.1 7.8-.1 1.2 0 2.5.1 3.7.1.2 0 .6.4.6.6.1 2.1.1 4.3 0 6.4 0 .2-.4.6-.6.6-.6.1-1.1.1-1.7.1-4.1.1-8 .1-11.9 0" fill="#f9df00"/><path d="M222.7 1.3L43.7 90v190.7c0 52.3 14.4 78.9 89.8 120.6v-33.8h-32.1l18-22.6V215.7l28.7-23.9v118.6c44.1-43.4 74.5-85.3 74.5-129zm-24.3 26v153.3c0 31.5-5.9 64.1-27 86.1V54.3zm-50.3 24.8v109.5l-28.7 21.6V80.8zM95.6 77.9v289.7c-22.8-25.7-28-61.2-28-93.8V105.9z" fill="#e00"/></svg>