<svg viewBox="0 0 263.97 300" xmlns="http://www.w3.org/2000/svg"><g transform="matrix(.54608 0 0 .54608 -141.055 -122.846)"><path d="m497.97 773.41c-.62-.28-62.78-29.04-122.99-95.01-35.33-38.72-63.13-82.51-82.63-130.17-24.36-59.54-35.75-125.28-33.84-195.39l.14-5.27 5.24.55s3.57.36 9.32.36c14.97 0 44.01-2.32 70.21-17.85 32.16-19.06 49.95-51.95 52.89-97.76l.51-7.91 6.84 4.01c.33.19 33.82 19.19 96.35 19.19s96.03-19 96.36-19.19l6.81-3.98.51 7.88c2.94 45.81 20.73 78.71 52.89 97.77 26.19 15.52 55.23 17.85 70.2 17.85 5.45 0 8.93-.32 9.32-.36l5.24-.54.15 5.26c1.91 70.11-9.48 135.84-33.84 195.38-19.5 47.66-47.3 91.45-82.63 130.17-60.2 65.97-122.36 94.73-122.99 95.01l-2.02.92-2.03-.92z" fill="#fff"/><path d="m498.09 758.34c-.59-.27-59.35-27.44-116.27-89.78-33.4-36.58-59.68-77.97-78.12-123.01-23.03-56.27-33.79-118.39-31.99-184.63l.13-4.98 4.96.52s3.38.34 8.81.34c14.16 0 41.61-2.2 66.37-16.86 30.4-18.01 47.22-49.09 50-92.38l.48-7.48 6.46 3.79c.31.18 31.97 18.13 91.09 18.13s90.78-17.95 91.09-18.13l6.44-3.76.48 7.45c2.77 43.29 19.59 74.38 50 92.39 24.76 14.67 52.21 16.86 66.36 16.86 5.16 0 8.44-.3 8.81-.34l4.96-.51.14 4.97c1.8 66.25-8.96 128.37-31.99 184.63-18.44 45.04-44.72 86.42-78.12 123.01-56.91 62.34-115.67 89.51-116.27 89.78l-1.91.87-1.91-.87z" fill="#fff"/><path d="m736.61 352.98s-3.67.38-9.83.38c-30.33 0-120.87-9.34-127.96-120.19 0 0-33.84 19.86-98.82 19.86s-98.82-19.86-98.82-19.86c-7.1 110.83-97.64 120.19-127.96 120.19-6.15 0-9.83-.38-9.83-.38-8.26 304.36 236.6 415.99 236.6 415.99s244.88-111.63 236.6-415.99zm-43.19 188.79c-18.7 45.89-45.39 88.09-79.32 125.43-30.29 33.33-60.89 56.56-81.21 70.17-15.04 10.07-26.83 16.51-32.88 19.63-14.87-7.66-64.62-35.58-113.48-89.12-34.09-37.36-60.91-79.6-79.71-125.55-22.28-54.45-33.32-114.35-32.88-178.21 16.78-.08 48.47-2.85 77.44-20.03 16.74-9.93 30.29-23.32 40.26-39.8 9.46-15.64 15.74-34.16 18.71-55.2 16.43 6.27 46.55 14.71 89.65 14.71s73.21-8.44 89.65-14.71c2.97 21.04 9.25 39.56 18.71 55.2 9.98 16.48 23.52 29.87 40.26 39.8 28.97 17.17 60.67 19.95 77.44 20.03.45 63.65-10.52 123.36-32.65 177.67zm-221.44-35.71-.49-5.46-4.4.39.49 5.46 4.4-.4zm-36.52 3.29-.49-5.46-4.4.39.49 5.46zm92.33.28-.49-5.46-4.4.39.49 5.46zm49.83-10.13-.49-5.46-4.4.4.49 5.46zm-229 17.58 8.34-2.42-.22-2.43-8.34 2.42zm8.02-6.46-.22-2.43-8.34 2.42.22 2.43zm24.85 12.5c-.34-3.77-3.04-6.47-7.47-6.07l-.99.09c-3.84.34-6.5 3.53-6.16 7.3l1.07 11.87c.04.42-.22.73-.64.77l-1.94.17-4.26.38.93-12.09c.37-4.58-2.39-7.2-7.22-6.77l-3.24.29c-4.51.41-6.88 3.74-5.78 7.94l3.01 11.73-3.95.35-2.14.2c-.42.04-.73-.22-.77-.64l-2.11-23.5-5.12 1.45 2.04 22.65c.27 3.03 2.52 5.06 5.23 4.82l3.31-.3 20.5-1.84 3.77-.34c2.32-.21 3.53-2.56 3.47-4.08.42 1.92 1.71 3.61 4.98 3.32 3.63-.33 4.83-2.75 4.57-5.71l-1.08-12.02.02.02zm-25.4 14.97-2.25.2-3.1-13.5c-.16-.66.16-.93.59-.97l4.61-.42c.42-.04.79.17.75.86l-.6 13.84zm20.61-1.86-2.79.25c-.42.04-.73-.22-.77-.64l-1.19-13.18c-.04-.42.22-.73.64-.77l2.79-.25c.42-.04.73.22.77.64l1.18 13.18c.04.42-.22.73-.64.77zm216.69-42.9 2.51 27.9 5.21-.47-2.6-28.89zm35.95 27.13.49 5.46 4.4-.39-.49-5.46zm-41.1-27.66-5.12 1.46 2.03 22.51c.04.42-.22.73-.64.77l-2.15.2-1.9.17c-.42.04-.73-.22-.77-.64l-1.4-15.6-5.12 1.46 2.01 22.34c.04.42-.22.73-.64.77l-3.63.33.42 4.69 3.52-.31c3.14-.28 5.64-2.03 5.26-6.26l-.49-5.42c.24 2.64 2.21 3.28 3.16 3.19l3.31-.3c2.72-.24 4.55-2.64 4.29-5.67l-2.13-23.64v-.02zm-188.07 50.58.49 5.46 4.4-.4-.49-5.46zm271.26-46.87c-.36-4.05-3.55-5.89-7.18-5.57l-1.16.1c-3.77.34-6.62 3.01-6.25 7.17l1.07 11.83c.27 3.07 2.02 5.43 5.26 5.14l.28-.02c2.18-.2 4.25-1.77 4.03-4.13l.54 6.06c.04.42-.22.73-.64.77l-4.65.42.42 4.69 4.76-.43c3.56-.32 5.66-2.28 5.27-6.51l-1.76-19.52v.02zm-4.74 13.64-2.79.25c-.42.04-.73-.22-.77-.64l-1.18-13.18c-.04-.42.22-.73.64-.77l2.79-.25c.42-.04.73.22.77.64l1.19 13.18c.04.42-.22.73-.64.77zm-22.58 2.03-1.26-13.99c-.04-.42.22-.73.64-.77l2.72-.24c.42-.04.73.22.77.64l.72 8.07 5.02-1.44-.55-6.09c-.37-4.12-2.53-6.09-6.91-5.7l-1.8.16c-4.23.38-5.99 2.53-5.6 6.9l.78 8.66c.27 3.07 1.76 4.14 2.99 4.03l-5.04.46-2.96.27-1.58-17.61-5.12 1.45 1.5 16.63-2.99.27-1.9.17c-.42.04-.73-.22-.77-.64l-1.52-16.91-5.12 1.45 2.13 23.64c.04.42-.22.73-.64.77l-3.63.33.42 4.68 3.52-.31c3.13-.28 5.64-2.03 5.26-6.26l-.49-5.42c.24 2.64 2.21 3.28 3.16 3.19l11.17-1 16.73-1.51-.42-4.68-9.23.83v-.02zm-139.99-5.19-5.12 1.45 1.44 15.95c.04.42-.22.73-.64.77l-3.95.35-1.47-16.31-5.12 1.46 1.38 15.33-4.65.42-1.46-16.24-5.12 1.45 1.37 15.26-3.41.31-2.96.27-1.59-17.61-5.12 1.45 1.5 16.63-2.99.27-2.64.24c.02-.21 0-.39-.02-.57l-1.08-12.02c-.34-3.77-3.04-6.47-7.47-6.07l-.99.09c-3.84.35-6.5 3.53-6.16 7.3l1.07 11.87c.04.42-.22.73-.64.77l-1.9.17-2.61.24-1.22-13.6c-.35-3.84-2.85-5.64-5.92-5.36-1.62.15-2.94.87-4.07 1.79l-2.35 1.92-.28-3.14-5.12 1.46 1.66 18.5-2.61.24-1.9.17c-.42.04-.73-.22-.77-.64l-1.67-18.56-9.51.86c-3.31.3-4.89 2.07-4.39 5.23l2.61 16.71-2.61.24c-2.11.19-3.77.27-4.08-3.15-.31-3.41.55-12.02.55-12.02l-5.08.46s-1.04 7.41-.63 11.99c.62 6.91 4.4 7.88 8.99 7.46l3.98-.36c2.93-.27 4.51-2.72 4.03-5.8l-2.44-15.69c-.06-.27.14-.44.38-.46l3.41-.31 1.26 14.02c.27 3.07 2.52 5.06 5.34 4.81l2.96-.27 22.51-2.02 3.73-.34c2.32-.21 3.53-2.56 3.47-4.07.42 1.92 1.71 3.61 4.98 3.31 2.18-.2 3.48-1.17 4.1-2.5.57 1.22 1.6 1.99 3.54 1.81l11.16-1 23.5-2.11c2.82-.25 4.65-2.72 4.38-5.79l-1.53-16.98zm-72.45 24.31-.91-10.08c-.04-.39.12-.62.42-.85l5.32-4.39c.13-.12.23-.13.31-.13.24-.02.41.17.43.46l1.3 14.38-6.87.62zm25.99-2.33-2.78.25c-.42.04-.73-.22-.77-.64l-1.19-13.18c-.04-.42.22-.73.64-.77l2.78-.25c.42-.04.73.22.77.64l1.19 13.18c.04.42-.22.73-.64.77m109.07-22.5c-.34-3.77-3.03-6.47-7.47-6.07l-.99.09c-3.84.34-6.5 3.53-6.16 7.3l1.07 11.87c.04.42-.22.73-.64.77l-1.94.17-2.15.2c-.42.04-.73-.22-.77-.64l-2.11-23.5-5.12 1.46 2.04 22.65c.27 3.03 2.52 5.06 5.23 4.82l3.31-.3 3.77-.34c2.32-.21 3.53-2.56 3.47-4.08.42 1.91 1.71 3.61 4.98 3.32 3.63-.33 4.83-2.75 4.57-5.71l-1.08-12.02zm-4.79 13.11-2.79.25c-.42.04-.73-.22-.77-.64l-1.18-13.18c-.04-.42.22-.73.64-.77l2.79-.25c.42-.04.73.22.77.64l1.18 13.18c.04.42-.22.73-.64.77m-155.31 23.27.49 5.46 4.4-.39-.49-5.46zm130.03-38.75-5.12 1.56 2.03 22.62c.05.49-.21.76-.68.81l-3.38.31c-4.12.37-4.29-1.15-4.54-3.85-.33-3.63.4-8.52 1.08-12.81l-4.83.43c-.84 4.51-1.61 8.99-1.21 13.39.6 6.73 4.76 7.99 9.14 7.6l5.25-.47c3.41-.31 4.66-2.69 4.38-5.79l-2.14-23.78z" fill="#002a49"/><g fill="#008357"><path d="m637.25 412.61h2.65c.29 0 .52.24.52.52v4.06c0 .29-.23.52-.52.52h-2.65c-.29 0-.52-.24-.52-.52v-4.06c0-.29.24-.52.52-.52"/><path d="m364.33 412.64h-3.27v14.37h3.27c.31 0 .53-.21.53-.53v-13.32c0-.31-.21-.53-.53-.53z"/><path d="m574.3 275.82c-17.93 4.65-44.49 8.46-74.31 8.46s-56.38-3.81-74.31-8.46c-19.62 70.59-73.87 101.67-131.03 107.68 1.3 41.67 7.85 81.41 19.52 118.74l179.16-16.13c.2-5.07 5.26-7.91 5.26-11.69s-5.24-6.72-5.27-11.95c.03-5.23 5.27-8.1 5.27-11.95s-5.24-6.72-5.27-11.95c.03-5.23 6.68-11.95 6.68-11.95s6.65 6.72 6.68 11.95c-.03 5.23-5.27 8.1-5.27 11.95s5.24 6.72 5.27 11.95c-.03 5.23-5.27 8.1-5.27 11.95 0 3.48 4.27 6.16 5.12 10.51l188.42-16.96c6-27.11 9.48-55.31 10.39-84.47-57.17-6-111.41-37.07-131.03-107.68zm-235.26 150.14c0 2.76-2.18 4.73-5.27 4.73h-.84c-3.08 0-5.27-1.97-5.27-4.73v-5.45l4-.79v6.77c0 .31.21.53.53.53h2.31c.31 0 .53-.21.53-.53v-13.84h-7v-3.42h11v16.74zm14.37 4.47h-10.26v-21.21h10.16v3.42h-6.16v5.13h5.37v3.42h-5.37v5.82h6.26zm15.45-4.74c0 2.74-1.98 4.74-4.74 4.74h-7.06v-21.21h7.06c2.74 0 4.74 2 4.74 4.73zm78.27 10.27.91-4.75c-5.47 8.15-14.01 9.41-14.01 9.41.27-8.87 4.47-18 15.92-20.45 21.83-4.26 40.94 4.62 40.94 4.62s-22.4-2.07-43.76 11.16zm5.2-23.53 3.04-3.86c-5.02 2.76-9.72 3-13.42 2.42l1.08-4.21-8.78 1.56c-.5-12.88 9.7-15.17 24.41-12.31 28.07 5.48 38.02 24.92 38.02 24.92-14.34-7.4-28.61-9.84-44.33-8.52zm14.94-25.3 6.6-2.65c-14.28.95-19.75-6.45-19.75-6.45l7.8-2.79c-21.52-.93-28.93-18.35-28.93-18.35 64.28-6.41 65.04 55.64 65.04 55.64s-13.21-18.25-30.76-25.4m28.88-6.78c-2.17-4.11-5.16-7.13-5.5-10.87 0 0 5.43 1.91 5.67-.71.19-2.03-3.43-3.72-3.43-7.92 0-5.89 5.48-8.41 7.1-12.62 1.62 4.22 7.09 6.73 7.09 12.62 0 4.2-3.62 5.89-3.43 7.92.24 2.61 5.67.71 5.67.71-.33 3.74-3.33 6.76-5.49 10.87-2.87 5.44-3.85 9.28-3.85 9.28s-.97-3.84-3.85-9.28zm7.18 40.6s9.94-19.44 38.02-24.92c14.71-2.87 24.91-.57 24.41 12.31l-8.78-1.56 1.08 4.21c-3.7.58-8.41.34-13.42-2.42l3.04 3.86c-15.72-1.32-30 1.12-44.33 8.52zm48.63 10.26.91 4.75c-21.36-13.23-43.76-11.16-43.76-11.16s19.1-8.88 40.94-4.62c11.46 2.46 15.64 11.58 15.92 20.45 0 0-8.54-1.27-14.01-9.41zm-13.89-55.96 7.8 2.79s-5.47 7.4-19.75 6.45l6.6 2.65c-17.56 7.15-30.76 25.4-30.76 25.4s.75-62.06 65.04-55.64c0 0-7.41 17.41-28.93 18.35m91.84 54.93h-11.21v-3.38h3.8v-13.39h-3.19v-3.04l7.15-1.41v17.83h3.46v3.38zm14.48-4.93c0 3.01-2.18 5.2-5.2 5.2h-1.25c-3.01 0-5.2-2.18-5.2-5.2v-1.37l3.96-.78v3.19c0 .31.2.52.52.52h2.7c.31 0 .52-.2.52-.52v-7.8c0 1.66-1.64 2.86-3.82 2.86s-3.82-1.74-3.82-4.16v-3.01c0-3.04 2.16-5.19 5.2-5.19h1.19c3.04 0 5.19 2.16 5.19 5.19v11.07zm15.15 0c0 3.04-2.16 5.2-5.2 5.2h-1.19c-3.04 0-5.2-2.16-5.2-5.2v-3.3l3.96-.78v5.12c0 .31.2.52.52.52h2.65c.31 0 .52-.2.52-.52v-6.47c0-.31-.2-.52-.52-.52h-3.43v-2.1l3.04-4.57h-6.63v-3.38h11.44v3.12l-2.99 4.29c1.84.57 3.05 2.26 3.05 4.47v4.14-.02zm14.17-12.48c0 2-.26 3.04-.93 4.91l-4.44 12.5h-4.16l5.49-15.41c.08-.2.1-.39.1-.62v-1.53h-7.38v-3.38h11.33v3.53z"/><path d="m454.09 635.85c0-.46-.31-.76-.76-.76h-3.97c-.46 0-.76.31-.76.76v10.74l5.5-1.07v-9.67z"/><path d="m519.54 600.31v-2.95c0-6.5-2.28-9.31-7.12-10.05 1.11 1.71 1.84 3.83 1.84 6.14 0 2.64-.93 5.04-2.32 6.86h7.59z"/><path d="m399.94 652.16c39.43 43.74 79.92 69.97 100.06 81.49 20.15-11.52 60.63-37.75 100.07-81.49 31.07-34.47 55.65-73.23 73.17-115.27l-332.52 29.93c15.85 30.62 35.68 59.22 59.23 85.35zm60.32-28.7c-1.62 0-2.87-1.26-2.87-2.87s1.26-2.87 2.87-2.87 2.87 1.26 2.87 2.87-1.26 2.87-2.87 2.87m20 32.87c0 2.68-1.91 4.58-4.58 4.58h-11.92v-30.8h5.81v25.83h4.13c.46 0 .76-.31.76-.76v-8.67l5.81-1.15v10.96zm26.9 4.59h-5.81v-9.86h-5.5v9.86h-5.81v-24.3c0-4.01 3.17-6.88 7.64-6.88h1.84c4.47 0 7.64 2.86 7.64 6.88zm44.67-83.84 5.38-1.55v37.53h-5.38zm-.43 53.04h5.81v30.8h-5.81zm-2.94 26.21c0 2.68-1.91 4.58-4.58 4.58h-11.92v-30.8h5.81v25.83h4.13c.46 0 .76-.31.76-.76v-8.67l5.81-1.15v10.96zm-6.88-79.25 5.38-1.55v37.53h-16.66v-12.83h11.28zm-11.36-.95h1.62l-.52-.74c-.44-.67-.59-1.11-.59-1.62 0-1.11.96-2.21 2.5-2.21 1.4 0 2.28.89 2.28 2.13v.74h-1.62v-.44c0-.52-.3-.81-.74-.81-.37 0-.74.22-.74.59 0 .22.15.52.3.81l.96 1.55h1.84v1.62h-5.3v-1.62zm0 4.56 5.38-1.48v18.51h-5.38zm-2.24 80.22h-5.81v-13.41h-5.35v13.41h-5.81v-30.8h5.81v12.92l5.35-1.03v-11.88h5.81v30.8zm-73.11-80.52.67.59c-3.98 4.13-9.58 10.99-9.58 17.11 0 5.31 4.13 7.97 9.51 7.97s7.3-1.84 7.3-4.21c0-2.73-6.41-5.9-6.41-11.06 0-5.9 3.69-7.82 13.2-12.46l11.43 21.97h4.28v-23.22l5.38-1.55v24.78h9.51a11.37 11.37 0 0 1 -2.32-6.86c0-2.4.79-4.6 1.99-6.34h-4.68v-5.38h13.49c11.43 0 16.29 4.87 16.29 14.16v17.18h-10.54c-3.17 0-5.97-.59-8.33-1.62-2.28 1.04-5.02 1.62-8.04 1.62h-16.44l-13.94-26.76c-3.17 1.26-3.69 2.28-3.69 3.1 0 2.87 7.37 6.19 7.37 14.68 0 6.41-5.45 11.58-14.45 11.58-7.82 0-14.08-4.35-14.08-13.79 0-6.56 4.43-14.9 12.09-21.46v-.02zm1.17 40.19c0 1.62-1.26 2.87-2.87 2.87s-2.87-1.26-2.87-2.87 1.26-2.87 2.87-2.87 2.87 1.26 2.87 2.87m-13.27 16.02c0-4.01 3.17-6.88 7.64-6.88h1.84c4.47 0 7.64 2.86 7.64 6.88v24.3h-5.81v-9.86h-5.5v9.86h-5.81z"/><path d="m500.6 635.09h-3.97c-.46 0-.76.31-.76.76v10.74l5.5-1.07v-9.67c0-.46-.31-.76-.76-.76z"/><path d="m506.04 600.23c2.58-1.84 3.91-4.43 3.91-6.56s-1.33-4.72-3.91-6.56c-2.58 1.84-3.91 4.43-3.91 6.56s1.33 4.72 3.91 6.56"/></g></g></svg>