<svg height="300" width="257.556" xmlns="http://www.w3.org/2000/svg"><path d="M240.464 211.754h-13.477V16.523L209.792-.001H71.927L-.001 69.603v45.542l16.007 16.472h13.787v79.93H4.182s-4.183.414-4.183 5.423v66.505L16.73 300h237.573s3.253-.362 3.253-5.009v-66.712z" fill="#261e1d"/><path d="M5.989 281.668h232.77v-64.44H207.83V6.04H73.63L5.37 72.34v40.74h30.619v104.406H6.144z" fill="#fef201"/><path d="M192.391 60.722v50.55s4.44 59.69-70.585 103.684c0 0-66.3-32.892-71.204-101.721V60.774c0-.052 65.628-41.153 141.79-.052" fill="#261e1d"/><path d="M181.29 61.806l-123.82 56.54s-.93-5.782-.93-12.547V64.08c0 .051 58.709-34.028 124.75-2.273m-92.117 89.38v31.86s-15.697-16.214-18.589-23.96l18.589-8.467zm32.633-15.128V208.5l-16.73-11.463V143.08l16.73-7.384zm32.634-14.975v62.634l-16.524 14.51v-69.708l16.524-7.694zm32.581-14.612l-15.903 6.712v48.589s15.697-20.138 15.903-55.301m-7.332-25.353v12.237l-11.824 5.319V83.803h-2.117l2.013-3.305 3.925-2.013v14.664l4.027-2.014v-8.623z" fill="#fef201"/><path d="M179.69 79.156l-3.874 1.342v-3.924l3.873-1.6zm-25.25 25.817l10.688-5.06v-4.182s-.258-7.54-9.346-4.441v3.098s6.196-2.117 6.196 3.408l-7.487 3.15v4.027zm-2.685.878v-8.623s-1.343-4.08-5.577-1.342l-3.666 1.962v8.674l-4.028 2.014s-4.079 1.652-4.079-1.704v-5.576l-3.924 2.685v3.51s-.981 8.314 7.9 5.113l7.332-3.305v-9.346s-.155-1.342 1.343-1.342c0 0 1.342-.155 1.342 1.342v7.384zm-7.384 9.604l-3.873 1.343v-3.976l3.873-1.6zm-5.215 2.22l-3.873 1.343v-3.976l3.873-1.549zm-14.716.672V99.758l-3.976 2.169-1.343 3.253h1.962v14.664zm-6.61-14.561v13.58s-.155 6.454-9.965 8.313v-3.976s6.66-1.6 6.66-4.595v-12.031z" fill="#fef201"/><path d="M111.84 106.47v10.586l-3.975 2.117v-11.36zm-6.763 8.727v12.083l-25.25 11.617V123.82h-2.014l1.55-2.892 3.82-1.755v14.458l11.36-5.215v-2.685s-.103-4.08-5.835-.465l-2.891 1.342 1.032-3.253s5.577-3.614 8.83-2.478 1.962 6.196 1.962 6.196l3.615-1.6v-9.037zm-.31-2.065l-3.666 1.29v-3.82l3.666-1.498zm-4.39 1.807l-3.665 1.29v-3.82l3.666-1.498zm-34.285 30.103l10.689-5.06v-4.183s-.259-7.538-9.346-4.44v3.098s6.196-2.117 6.196 3.408l-7.487 3.15v4.027z" fill="#fef201"/><g fill="#261e1d" transform="translate(-129.398 -108.176) scale(.51635)"><ellipse cx="464.2" cy="340.5" rx="2.7" ry="3"/><path d="M446.5 326.8l1.2-5.4s17.8-13.5 23.2-2.2v11.2l-54.2 24.8V349l14.3-5.9v-5.3s-1-5.4-14.3 3.2v-5s10.7-10.2 18.3-2.8c1.6 2.3 1.4 7.9 1.4 7.9l29.4-14.3v-5.1s-.9-6.3-19.5 6.3zm-51.4 19.4s-3.9 15.2 4.9 15.2c11 0 13-8.8 13-8.8v-15.1zm12.7 6s-.9 4.1-6.2 4.1c-4.3 0-2.4-7.1-2.4-7.1l8.6-4z"/><ellipse cx="400.1" cy="336.6" rx="2.7" ry="3"/><ellipse cx="406.2" cy="333.7" rx="2.7" ry="3"/><path d="M395.1 414.5l124.2-57.3s5.6-3.2 2.9-9.4c-2.7-6.1-8.9-3.4-8.9-3.4L492.2 355s-1.8.7-1.8-1.2v-12.2s-.9-7.8-11.4-3.6v-30.6l-3.9 1.4v58l3.9-1.4v-19.5s.2-2.3 4.4-2.3c0 0 3.1-.3 3.1 2v10s-.2 3.4 4.3 3.4 23.6-10.2 23.6-10.2 3.2-1.6 3.2 2.5c0 0 .3 2.1-10.3 6.1l-112.1 52.1z"/><path d="M464.2 347.2l-9.7 4.1v5s7.9-6.1 11.2-3.8v2.7s-7.6 1.5-11.2 7.3v5.4s-.7 5.1 7 5.1 9.5-8.5 9.5-8.5v-9.4c0 .1.4-7.9-6.8-7.9m1.8 17.6v.7l-.2.4-.4.7-.4.6-.5.5-.6.3-.6.3-.9.2-.7.1h-.8l-.4-.1-.3-.2-.4-.5-.2-.3-.2-.4-.1-.6-.1-.6v-.9l.1-.4.2-.9.1-.5 6.6-3.1zm-15.5 7.8v-29.2c-2.6-.2-3.8 1.4-3.8 1.4v10.3c-10.8 2.8-11.6 7.6-11.6 7.6v8.1c0 4.6-.9 11.3 4.7 11.3 11.3 0 10.7-9.5 10.7-9.5m-3.9 2.8s-6.2 4.4-7.8 1.2V364s1.8-3.1 7.8-4zm-16.2 6.9v-29.2c-2.6-.2-3.8 1.4-3.8 1.4v10.3c-10.8 2.8-11.6 7.6-11.6 7.6v8.1c0 4.6-.9 11.3 4.7 11.3 11.3 0 10.7-9.5 10.7-9.5m-3.9 2.9s-6.2 4.4-7.8 1.2v-12.6s1.8-3.1 7.8-4zm-26.5 8.5l10.5-6.1s2.6-13.2-5.7-13.2c-9.7 0-9.7 9.6-9.7 9.6v12.6s0 4.8 5.3 5c6.8 0 9.9-4.9 9.9-4.9v-4.3s-8.5 5-10.3 4.1c-2.6-1.3 0-2.8 0-2.8m4.9-15.1c2.5 0 1.7 5.8 1.7 5.8s-5.1 4-6.3 4-1.3-3.5-1.3-3.5c0-4.5 5.9-6.3 5.9-6.3m-30.7-5.7v-14.4s.3-4.1 9.7-7.4l6.1-2.1v64s.3 5.6-8.9 8c0 0-11.7 4.8-11.7-3.3v-24.1s-.9-6.4 12.6-9v5.4s-8.5 2-8.9 7v17.3s1 4.4 5.4 2.5 7.9-2.7 7.9-7.2v-53.7s-6.6.4-6.6 4.7v10.9zm-48.8 325h-20.5v-9.1h5v-19.2h-7.6l6.3-9.1H319v28.4h6.3v9zm9.1 0v-28.4h-10.2v-9.1h28.3v9.1h-10.2v28.3h-7.9zm32.3 0v-28.4h-10.3v-9.1h28.4v9.1h-10.3v28.3h-7.8zm50.2 0v-37.4h7.9v14.2h11.5v-14.2h7.7v37.4h-7.7v-14.2h-11.7v14.2zm-27.1 0v-9h5.2v-19.5h-5.2v-9h19.3v9.1h-5v19.3h5v9.1zm79.8-37.4H464l-15 37.4h9.1l2.9-6.5h11.9l2.3 6.5h10zm-5.6 23.6l2.6-8.5 3.2 8.5zm54.6-5.9c0-17.9-16.7-17.7-16.7-17.7h-14.1v37.4h15.5c16.8 0 15.3-19.7 15.3-19.7m-15.9 10.6h-7.4v-19.2h6.8s8.1-.2 8.1 9.1c-.1-.1.6 10.1-7.5 10.1m62.6-12.9h8.3c0-15.5-16.8-15.4-16.8-15.4-18.4 0-17.7 18.7-17.7 18.7 0 19 17.4 18.7 17.4 18.7 15.5 0 17.1-15.1 17.1-15.1h-8.4s-1.8 6.1-8.9 6.1-9.4-5.8-9.4-10.9c0 0 .4-8.5 10.2-8.5 7.5.2 8.2 6.4 8.2 6.4m13.8 22v-37.4h9.3V689h14.3v8.9zm27.3-37.4v24s-.1 13.4 14.5 13.4c0 0 13.8.1 13.8-13.8v-23.6h-9v24.2s.2 4.2-5.2 4.2c0 0-5.3.6-5.3-4.5v-23.9zm56 17.9s4.4-.6 4.4-7.4c0-10.1-10.1-10.4-10.1-10.4h-15.7V698h14.3c9 0 12.6-4.6 12.6-11.7.3-7.2-5.5-7.9-5.5-7.9m-12.2-3.5v-6.6h5.6s3.3.1 3.3 4.4c0 0 .5 3.4-3.2 3.4h-5.8v-1.2zm6.8 13.7h-6.8v-6.2h6.6s3.9.1 3.9 3.5c-.1 0 .5 2.7-3.7 2.7m-254.4 24.7h5.2V734h-5.2zm10.4 20.8v-20.7h5.1v7.9c.9.8 1.7.8 2.6 0v-7.9h3.8v7.8c.7.6 1.4.6 2 0v-7.8h4.4v6.6s.5 5-5.2 5c-2.6 0-3-1.3-3-1.3s-1.6 2.6-4.6 1.3v9.1zm33.5 0h-8.5s-4.6.1-4.6-6.7c0 0 .3-3.7 1.8-3.7 0 0-2.4-2.3-1.8-5.1 0 0 1.1-5.3 7.4-5.3h5.6v5.1H440c-1.3 0-1.3 3.9 0 3.9h6.6v3.8h-7.7c-.7 0-.7 3.9 0 3.9h7.7zm11.6 0v-15.5h-7.7v-5.3h12.9v20.8zm24.4-6.4h7.8v6.4h-7.8zm33.8 6.4v-20.5H512l-6.2 5.8v3h5.4v11.7zm11.7-20.5s-8.1-1-8.1 8.2c0 6.1 6.9 5.9 6.9 5.9s-2.7 6.4-4.1 6.4h6.2s6.3-5.7 6.3-13.1-7.2-7.4-7.2-7.4m-.4 10.6c-1.6 0-3-1.4-3-3s1.4-3 3-3 3 1.4 3 3c0 1.7-1.3 3-3 3m34.6 9.9l6.7-13.8v-6.7h-13v5h8.1l-7.8 15.5zm-24-12.9s0-7.7 7-7.7c0 0 7-.9 7 7.7-.5 5-7 9-7 9h7v3.8h-13.2v-4.4l7.9-7.1s.6-4-2.1-4c-1.5 0-1.7 2.7-1.7 2.7z"/></g></svg>