<svg xmlns="http://www.w3.org/2000/svg" viewBox="0 0 303 360.23"><defs><style>.cls-1{fill:#2a2525}.cls-2{fill:#fff}.cls-3{fill:#212e62}.cls-4{fill:#b17f4a}.cls-5{fill:#f4e1d2}</style></defs><g id="Layer_2" data-name="Layer 2"><g id="Layer_1-2" data-name="Layer 1"><path d="M139.34 298.34a54.2 54.2 0 0 1-20.92-4.28 11.8 11.8 0 0 0-4.64-1 12.1 12.1 0 0 0-3.58.59 48.8 48.8 0 0 1-14.26 2.29 38 38 0 0 1-6.36-.53 17.8 17.8 0 0 1-9.7-4.57 49.5 49.5 0 0 1-19.52 3.86c-1 0-2 0-3-.07-6.51-.34-11.36-2-15.26-5.24a15 15 0 0 1-5.48-10.45c-1.21-12.79 5.16-22 17.49-25.43a38.1 38.1 0 0 0-6.25-10.2c-3-3.82-5.78-7.89-8.45-11.83C37 228 34.6 224.35 32 221c-4.91-6.41-6.32-14.25-7-21.08l-.08-.71c-.56-5.22-1.14-10.62-.37-16.05.17-1.19.36-2.38.56-3.57.24-1.45.48-2.95.67-4.42.82-6.53-2.56-11.79-8.82-13.74a1.52 1.52 0 0 1-.94-.85 3.31 3.31 0 0 1 .2-2.94 1.53 1.53 0 0 1 1.25-.8l1.79-.09v-.3c0-.26-.06-.52-.07-.78a37.4 37.4 0 0 1 1.37-12.84c2.87-9.28 8.85-14.21 19.41-16a20.3 20.3 0 0 1 3.35-.29 18.33 18.33 0 0 1 10.92 3.65c-1.13-9-.16-17.79.7-25.64a1.49 1.49 0 0 1 1-1.24 1.5 1.5 0 0 1 .52-.09 1.5 1.5 0 0 1 1 .4l10.12 9.44c.25-.31.51-.61.77-.91 2.19-2.58 4.09-4.8 2.92-8.79a1.49 1.49 0 0 1 .65-1.7 1.5 1.5 0 0 1 1.81.19c3.06 2.87 6.87 6.45 6.19 12-.35 2.83.46 4.35 3.2 6 6.51 4 11.31 8.49 14.66 13.85l.66 1c3 4.72 3 5.67-3.1 9.84a18.47 18.47 0 0 1-10.7 2.95h-.65c.3.75.6 1.48.9 2.21a90 90 0 0 0 5.64 11.66A4.07 4.07 0 0 0 91.8 163a1.8 1.8 0 0 0 .8.31 1.9 1.9 0 0 0 .4-.77 24.5 24.5 0 0 1 5.59-9.85 10.8 10.8 0 0 1 7.75-3.44 10 10 0 0 1 1.31.08c3.78.45 5.88 1.83 7.12 4.88.41-.31.82-.61 1.24-.9a59.1 59.1 0 0 1 18.35-8.87 2.4 2.4 0 0 0 .44-.16v-.48c0-.61 0-1.24-.06-1.9a11.8 11.8 0 0 1 .44-4.94.6.6 0 0 0-.07-.14c-.08-.19-.17-.37-.23-.55-4.35-12-8.69-24.78-9.72-38.39a36.8 36.8 0 0 1 .1-7.87 8.21 8.21 0 0 1 8.09-7 8 8 0 0 1 1.81.21 13 13 0 0 1 1.51.45c1.38-2.07 3-3.3 5.75-3.3h.17V58.18c-.05-3.3-.1-6.7-.42-10-.38-4 3.4-7.94 7-8.84a9 9 0 0 1 2.21-.29c3.07 0 5.59 1.71 7.09 4.81a17 17 0 0 1 .65 1.6 9.06 9.06 0 0 1 4.62-1.31 9 9 0 0 1 1.43.12c3.91.64 6 3.05 6.08 7 .1 6.38.22 14.8.28 23.25v18.1a27.3 27.3 0 0 1 6.41-7 17.6 17.6 0 0 1 10.63-3.81 17 17 0 0 1 3.92.47c4.29 1 6.58 4.55 5.82 9a4.48 4.48 0 0 1-1.73 2.69A33.2 33.2 0 0 0 185.12 117a4.78 4.78 0 0 1-1.37 3 95 95 0 0 0-8.48 10.35c-2.12 3-2.94 5.65-2.68 8.49a19 19 0 0 1-.07 3.13 7.9 7.9 0 0 0 .19 3.63c.3.63 1.44 1 2.66 1.33a13.2 13.2 0 0 1 2.9 1.13c.81.48 1.63.93 2.45 1.38 1.15.63 2.33 1.28 3.47 2 1.32.82 2.57 1.7 3.88 2.63h.07a7.78 7.78 0 0 1 6.44-4.8 12.5 12.5 0 0 1 1.91-.15 11.27 11.27 0 0 1 8.51 4.09 25.7 25.7 0 0 1 5 9.26 1.55 1.55 0 0 0 .38.71 2.4 2.4 0 0 0 .75-.28 2.77 2.77 0 0 0 1-1 98 98 0 0 0 6.89-14.46h-.13a23.6 23.6 0 0 1-4.39-.32 19.12 19.12 0 0 1-10.5-5.37 3.57 3.57 0 0 1-.81-4.46c3-6.44 8.12-11 12.72-14.63 2.17-1.71 4.47-3.22 6.63-4.6.54-.34.53-.4.51-.64a9 9 0 0 1 0-1.35 5.4 5.4 0 0 0 0-.9c-.76-6.5 3.17-10.62 6.19-13.14a1.5 1.5 0 0 1 1-.35 1.47 1.47 0 0 1 .81.24 1.5 1.5 0 0 1 .64 1.66c-1 3.71.83 6 3 8.56l.81 1 10.11-9.44a1.5 1.5 0 0 1 1-.4 1.7 1.7 0 0 1 .5.08 1.51 1.51 0 0 1 1 1.2 146 146 0 0 1 1.21 14.59 63.6 63.6 0 0 1-.47 11 16.5 16.5 0 0 1 8.7-3.39c.77-.06 1.54-.09 2.3-.09 10 0 21.51 5.32 23.62 20.26a59 59 0 0 1 .37 9.79h.5a6.2 6.2 0 0 1 1.54.16 1.45 1.45 0 0 1 .62.34 2.46 2.46 0 0 1 .75 2.11v.12a1.51 1.51 0 0 1-.95 1.78c-7.33 2.62-10.27 8.11-8.74 16.32a68.74 68.74 0 0 1-3.69 38.43 29.8 29.8 0 0 1-4.34 7q-.75 1-1.47 2c-5.74 8-11.38 16.07-16.63 23.57a19 19 0 0 0-1.35 2.19 47.5 47.5 0 0 1 9.41 3.54 29.6 29.6 0 0 1 5.3 3.47c5.91 4.92 7.64 11.3 5 18.43-3.53 9.54-10.6 15.91-21.61 19.48a50.5 50.5 0 0 1-15.91 2.18h-2.31c-7.41-.18-14.66-.5-21.87-2.47a16.3 16.3 0 0 1-6.14-2.76l-.2.09-.43.18c-7.53 2.81-14 4.12-20.22 4.12-.84 0-1.68 0-2.5-.07-5.73-.34-10.16-1.68-13.94-4.22a.6.6 0 0 0-.16-.08 3 3 0 0 0-.54.21l-.24.11a60.7 60.7 0 0 1-24.38 5.37" class="cls-1"/><path d="M151.38 40.5c2.46 0 4.48 1.36 5.74 4 .49 1 .8 2.09 1.25 3.27a8.57 8.57 0 0 1 5.37-2.14 8 8 0 0 1 1.19.1c3.16.52 4.76 2.3 4.82 5.51.12 7.75.23 15.5.28 23.24v22.46h.61c2.14-3.88 4.59-7.51 8.19-10.2a16.15 16.15 0 0 1 9.73-3.51 15.4 15.4 0 0 1 3.58.43c3.56.85 5.3 3.7 4.69 7.26a3.07 3.07 0 0 1-1.23 1.81 34.47 34.47 0 0 0-12 24.17 3.34 3.34 0 0 1-1 2.14 99 99 0 0 0-8.6 10.52c-2 2.87-3.28 5.86-2.95 9.48.22 2.44-.68 5.26.27 7.27s4.11 1.92 6.15 3.12 4 2.15 5.89 3.35 3.62 2.47 5.58 3.83c.63-3.28 2.49-5.22 5.83-5.74a10 10 0 0 1 1.68-.14 9.74 9.74 0 0 1 7.4 3.6 24.3 24.3 0 0 1 4.68 8.74c.4 1.15 1 1.71 1.78 1.71a3.1 3.1 0 0 0 1.48-.46 4.3 4.3 0 0 0 1.62-1.54c3.21-5.21 5.43-10.87 7.85-16.75h-2.38a22.4 22.4 0 0 1-4.11-.29 17.87 17.87 0 0 1-9.71-5 2.12 2.12 0 0 1-.52-2.78c2.75-5.89 7.31-10.18 12.29-14.09 2.07-1.63 4.28-3.09 6.5-4.51a2 2 0 0 0 1.2-2.08c-.09-.74.06-1.51 0-2.26-.58-5 1.76-8.55 5.66-11.81-1.58 5.7 2.56 8.59 5.06 12.19l11.32-10.58a144 144 0 0 1 1.19 14.44 62.8 62.8 0 0 1-1.08 14.74c3.24-3.21 6.67-5.38 10.93-5.71.73-.05 1.46-.08 2.19-.08 10.45 0 20.28 5.84 22.13 19a62 62 0 0 1 .32 10.8 3.4 3.4 0 0 0 1.56.28h.47a4.6 4.6 0 0 1 1.17.11c.47.42.14 1 .29 1.49-8.06 2.88-11.35 9.19-9.71 18a67 67 0 0 1-3.55 37.59c-1.29 3.26-3.63 5.85-5.64 8.66-5.6 7.82-11.12 15.7-16.64 23.58a15.6 15.6 0 0 0-2.17 4.06 50 50 0 0 1 10.77 3.86 28.5 28.5 0 0 1 5 3.3c5.35 4.45 7 10.18 4.55 16.75-3.63 9.78-11.05 15.45-20.68 18.58a49.5 49.5 0 0 1-15.43 2.1h-2.29c-7.24-.17-14.46-.49-21.51-2.41a15 15 0 0 1-5.63-2.52 1.27 1.27 0 0 0-.81-.44 3.8 3.8 0 0 0-1.23.4 56.2 56.2 0 0 1-19.69 4c-.8 0-1.61 0-2.41-.07-4.71-.28-9.22-1.29-13.19-4a1.73 1.73 0 0 0-1-.34 3.7 3.7 0 0 0-1.4.45 58.9 58.9 0 0 1-23.76 5.3 52.4 52.4 0 0 1-20.32-4.07 13.3 13.3 0 0 0-5.22-1.15 13.7 13.7 0 0 0-4 .65 47.7 47.7 0 0 1-13.83 2.23 36 36 0 0 1-6.11-.51 16 16 0 0 1-9.6-4.88 47.4 47.4 0 0 1-19.86 4.15c-1 0-1.95 0-2.93-.07-5.23-.27-10.22-1.44-14.38-4.89a13.56 13.56 0 0 1-5-9.45C37 266.48 43 258 54.86 254.82c.37-.1.72-.23 1.15-.38-1.35-4.61-4.08-8.44-7-12.1-5.66-7.17-10.3-15-15.85-22.29-4.53-5.9-6-13.09-6.74-20.32-.58-5.44-1.23-10.91-.46-16.39.38-2.68.9-5.33 1.24-8A13.66 13.66 0 0 0 17.36 160a1.83 1.83 0 0 1 .15-1.66l3-.16a5.2 5.2 0 0 0 .08-2.57 36.1 36.1 0 0 1 1.3-12.33c2.49-8.07 7.35-13.12 18.22-14.93a18.6 18.6 0 0 1 3.11-.27c4.89 0 9.21 2 13.06 6-2-10.08-1-19.73 0-29.3l11.32 10.56c2.45-3.46 6.73-6.3 4.94-12.34 3.41 3.2 6.3 6.16 5.73 10.74-.44 3.55.81 5.6 3.91 7.48a42 42 0 0 1 14.17 13.37c3.28 5.23 3.72 4.94-2 8.84a17 17 0 0 1-9.85 2.69c-1 0-1.94 0-2.94-.14.66 1.6 1.22 3 1.81 4.42a91 91 0 0 0 5.73 11.85 5.53 5.53 0 0 0 1.89 2.07 3.23 3.23 0 0 0 1.55.51c.82 0 1.41-.59 1.82-1.79 1.16-3.41 2.6-6.67 5.22-9.27a9.32 9.32 0 0 1 6.69-3 9 9 0 0 1 1.14.07c3.9.47 5.55 1.93 6.52 5.85 1-.74 1.92-1.46 2.88-2.13a57.3 57.3 0 0 1 17.89-8.65 1.79 1.79 0 0 0 1.57-2c.07-2.23-.53-4.5.41-6.69.15-.34-.25-.93-.42-1.4-4.49-12.34-8.63-24.77-9.64-38a35.2 35.2 0 0 1 .1-7.54 6.68 6.68 0 0 1 6.6-5.72 7 7 0 0 1 1.48.17c.84.19 1.65.52 2.48.79 1.53-2.65 2.76-3.6 5.11-3.6a13 13 0 0 1 1.67.12c0-7.17.1-14.34 0-21.51-.08-4.15-.06-8.31-.46-12.46-.29-3 2.71-6.44 5.9-7.24a7.6 7.6 0 0 1 1.85-.24m0-3a10.6 10.6 0 0 0-2.58.33c-4.23 1.06-8.63 5.6-8.16 10.44.32 3.26.36 6.64.41 9.9v2.32c.09 5 .07 10.14 0 15.1v3.33a7.5 7.5 0 0 0-5 3l-.6-.16a10.3 10.3 0 0 0-2.14-.24 9.7 9.7 0 0 0-9.57 8.3 38 38 0 0 0-.12 8.19c1 13.81 5.42 26.74 9.81 38.8 0 .08.07.17.1.26a14.3 14.3 0 0 0-.32 4.94c0 .41 0 .81.05 1.18a60.9 60.9 0 0 0-18 8.8c-1.54-2.44-3.9-3.7-7.48-4.13a13 13 0 0 0-1.5-.09 12.28 12.28 0 0 0-8.8 3.87 24.5 24.5 0 0 0-5.59 9.4l-.21-.34a88.6 88.6 0 0 1-5.53-11.46l-.07-.17a19 19 0 0 0 10-3.16c3.21-2.18 4.82-3.28 5.48-5.2.8-2.34-.36-4.17-2-6.69L99 133c-3.48-5.57-8.43-10.26-15.15-14.34-2.45-1.49-2.74-2.56-2.49-4.55.78-6.32-3.52-10.35-6.65-13.3a3 3 0 0 0-3.63-.36 3 3 0 0 0-1.3 3.4c.87 3-.2 4.52-2.38 7.1l-.22-.21-8.75-8.16a3 3 0 0 0-2-.8 3.2 3.2 0 0 0-1 .18 3 3 0 0 0-1.93 2.49c-.78 7-1.63 14.82-1 22.92a19.3 19.3 0 0 0-9.12-2.27 22.4 22.4 0 0 0-3.6.31c-11.18 1.86-17.54 7.1-20.59 17a38 38 0 0 0-1.45 12.94h-.26a3 3 0 0 0-2.5 1.6 4.79 4.79 0 0 0-.25 4.22 3 3 0 0 0 1.87 1.69A10.68 10.68 0 0 1 24.25 175c-.18 1.44-.42 2.87-.66 4.37-.2 1.17-.4 2.39-.57 3.6-.79 5.62-.2 11.12.37 16.43l.07.7c.75 7 2.21 15.13 7.35 21.83 2.57 3.35 5 6.94 7.36 10.41 2.68 4 5.46 8 8.52 11.91a41 41 0 0 1 5.4 8.31c-12 3.95-18.2 13.51-17 26.53a16.65 16.65 0 0 0 6 11.47c4.17 3.45 9.3 5.23 16.14 5.57 1 .06 2.07.08 3.09.08a51.1 51.1 0 0 0 19.21-3.61 19.6 19.6 0 0 0 9.75 4.3 40 40 0 0 0 6.61.55 50.1 50.1 0 0 0 14.7-2.36 10.8 10.8 0 0 1 3.14-.52 10.3 10.3 0 0 1 4.06.92 55.65 55.65 0 0 0 21.5 4.4 62.25 62.25 0 0 0 25-5.55c3.89 2.47 8.41 3.78 14.15 4.11.86.05 1.73.08 2.59.08 6.42 0 13-1.33 20.64-4.18a19 19 0 0 0 6 2.5c7.39 2 14.73 2.34 22.23 2.52h2.36a51.8 51.8 0 0 0 16.36-2.25c11.32-3.67 18.91-10.53 22.56-20.39 2.85-7.67.91-14.81-5.44-20.1a31.2 31.2 0 0 0-5.57-3.65 45.7 45.7 0 0 0-7.81-3.11l.29-.43c5.25-7.5 10.89-15.55 16.62-23.55.46-.65.94-1.28 1.44-2a31 31 0 0 0 4.55-7.36 70.2 70.2 0 0 0 3.74-39.24c-1.39-7.47 1.15-12.26 7.77-14.63a3 3 0 0 0 1.95-3.3 3.93 3.93 0 0 0-1.24-3.24 3 3 0 0 0-1.25-.67 6 6 0 0 0-.89-.16 53 53 0 0 0-.42-8.54c-1-6.91-4.07-12.57-9-16.37a25.93 25.93 0 0 0-16.13-5.19c-.8 0-1.61 0-2.42.09a17.1 17.1 0 0 0-6.76 2 65 65 0 0 0 .15-8.15c-.21-4.52-.48-9.75-1.22-14.75a3 3 0 0 0-2-2.39 2.8 2.8 0 0 0-1-.17 3 3 0 0 0-2.05.81L235.6 111c-2.19-2.65-3.27-4.22-2.51-7a3 3 0 0 0-1.26-3.32 3 3 0 0 0-1.63-.48 2.94 2.94 0 0 0-1.92.7c-3.29 2.75-7.57 7.24-6.72 14.46a5 5 0 0 1 0 .68v.92c-2.13 1.36-4.38 2.85-6.53 4.54-4.73 3.73-10 8.45-13.15 15.18a5.07 5.07 0 0 0 1.1 6.14 20.54 20.54 0 0 0 11.29 5.88 18.6 18.6 0 0 0 2.59.3 87 87 0 0 1-5.86 12 25.9 25.9 0 0 0-4.92-8.69 12.69 12.69 0 0 0-9.62-4.58 14.5 14.5 0 0 0-2.15.17 9.46 9.46 0 0 0-6.73 4.08c-.87-.6-1.72-1.19-2.63-1.75-1.17-.73-2.38-1.39-3.54-2-.84-.46-1.63-.9-2.41-1.36a14 14 0 0 0-3.23-1.27 10.6 10.6 0 0 1-1.77-.64 9.3 9.3 0 0 1 0-2.77 20 20 0 0 0 .07-3.39c-.23-2.5.5-4.74 2.42-7.49a94 94 0 0 1 8.35-10.19 6.3 6.3 0 0 0 1.77-3.94 31.34 31.34 0 0 1 11-22.16 6 6 0 0 0 2.22-3.56 8.92 8.92 0 0 0-7-10.68 18.5 18.5 0 0 0-4.28-.51 19 19 0 0 0-11.52 4.11 25.6 25.6 0 0 0-4 3.74V74.46c-.06-8.47-.18-16.88-.29-23.27-.07-4.67-2.68-7.66-7.33-8.42a10.6 10.6 0 0 0-1.67-.14 10.2 10.2 0 0 0-3.83.75l-.09-.19a9.28 9.28 0 0 0-8.44-5.66z" class="cls-2"/><path d="M151.47 358.73c-5.3 0-10.66-.24-15.91-.72-20.64-1.86-41.68-7-66.23-16.23-7.61-2.86-15.22-6-22.58-9.09-4.26-1.77-8.67-3.6-13-5.35l-.15-.06-2.52 6.83a2.85 2.85 0 0 1-2.81 2.27h-.18c-5.36-.24-12.36-.88-18.91-3.75a19.5 19.5 0 0 1-3.84-2.31 9 9 0 0 1-3.44-10.09l2.16-8c1.78-6.56 3.62-13.34 5.37-20a7.63 7.63 0 0 1 3.86-4.89 14.34 14.34 0 0 1 7.37-1.75c1.24 0 2.43.09 3.44.19 7.79.72 15.15 3.11 21.32 5.35 7.32 2.65 14.61 5.67 21.66 8.59 5.09 2.11 10.35 4.29 15.57 6.31 19.29 7.46 35.65 11.89 51.5 13.91a137 137 0 0 0 17.18 1.06 143 143 0 0 0 20.67-1.49c21.78-3.19 42.05-10.74 59-17.7 2.2-.9 4.39-1.82 6.58-2.74 9.43-3.94 19.19-8 29.26-10.88a56.3 56.3 0 0 1 15.77-2.57h.63a13.4 13.4 0 0 1 4.95 1 8.54 8.54 0 0 1 5.57 6.15c1.61 6.43 3.4 12.95 5.14 19.24l2.19 8c1.22 4.52-.07 8-3.95 10.77-4.1 2.87-8.81 4-13.3 4.72a69 69 0 0 1-8 .87h-.37a3.38 3.38 0 0 1-3.58-2.66c-.57-1.8-1.24-3.57-1.94-5.45l-.37-1-7.58 3.11c-6.43 2.63-12.8 5.25-19.19 7.84-22 9-41.87 14.82-60.66 17.94a187.3 187.3 0 0 1-30.68 2.58" class="cls-1"/><path d="M20.66 287.1c1.09 0 2.2.08 3.3.18 7.25.67 14.15 2.8 20.95 5.27 12.56 4.56 24.74 10.06 37.19 14.88 16.8 6.51 33.94 11.72 51.86 14a137 137 0 0 0 17.37 1.1 144.6 144.6 0 0 0 20.84-1.53c20.66-3 40.14-9.91 59.34-17.8 11.77-4.84 23.4-10.08 35.68-13.57a56 56 0 0 1 15.36-2.51h.6a12.1 12.1 0 0 1 4.42.87 7 7 0 0 1 4.68 5.12c2.27 9.13 4.87 18.19 7.33 27.27 1.06 3.92 0 6.78-3.37 9.15-3.8 2.67-8.2 3.72-12.68 4.47a65 65 0 0 1-7.87.85h-.31a1.93 1.93 0 0 1-2.14-1.61c-.83-2.62-1.86-5.19-2.88-8-9.51 3.9-18.84 7.75-28.19 11.54-19.53 7.94-39.5 14.39-60.35 17.85a184 184 0 0 1-30.32 2.55q-7.87 0-15.78-.71c-22.76-2-44.53-8.15-65.83-16.15-12-4.49-23.7-9.65-35.57-14.42-.46-.19-.92-.36-1.59-.62l-3.05 8.26c-.26.69-.43 1.29-1.4 1.29h-.11c-6.32-.29-12.53-1.07-18.38-3.64a17.5 17.5 0 0 1-3.54-2.13 7.45 7.45 0 0 1-2.87-8.49c2.52-9.33 5.09-18.65 7.53-28a6.1 6.1 0 0 1 3.15-4 12.9 12.9 0 0 1 6.63-1.56m0-3a15.7 15.7 0 0 0-8.11 1.95 9.15 9.15 0 0 0-4.55 5.9c-1.75 6.7-3.6 13.5-5.38 20.07-.72 2.64-1.44 5.27-2.15 7.91a10.43 10.43 0 0 0 4 11.67A20.2 20.2 0 0 0 8.56 334c6.78 3 14 3.64 19.44 3.88h.25a4.25 4.25 0 0 0 4.19-3.17v-.08l2-5.39c3.92 1.59 7.88 3.24 11.72 4.84 7.38 3.07 15 6.24 22.63 9.1 24.68 9.27 45.85 14.45 66.62 16.33 5.3.48 10.7.72 16.05.72a188 188 0 0 0 30.81-2.59c18.9-3.14 38.85-9 61-18 6.42-2.61 13-5.3 19.31-7.9l6-2.47c.64 1.69 1.23 3.3 1.75 4.92a4.88 4.88 0 0 0 5 3.71h.45a70 70 0 0 0 8.22-.9c4.66-.79 9.57-1.93 13.91-5s5.92-7.26 4.53-12.39c-.72-2.68-1.46-5.35-2.19-8-1.73-6.29-3.52-12.78-5.12-19.2a10 10 0 0 0-6.47-7.18 15.3 15.3 0 0 0-5.49-1.08h-.65a58 58 0 0 0-16.18 2.62c-10.16 2.89-20 7-29.42 10.95-2.19.91-4.38 1.83-6.58 2.73-16.86 6.93-37 14.44-58.63 17.61a141.4 141.4 0 0 1-20.41 1.51 136 136 0 0 1-17-1.08c-15.73-2-32-6.4-51.15-13.82-5.2-2-10.45-4.19-15.53-6.29-7.07-2.93-14.38-6-21.73-8.62-6.26-2.28-13.73-4.7-21.7-5.44-1-.09-2.27-.19-3.57-.19z" class="cls-2"/><path d="M281.51 74.65A48.3 48.3 0 0 1 270.33 73c-9.7-2.29-19-6.14-27.93-9.86l-2.38-1c-15.49-6.41-31.51-13-48.29-17.38a159.6 159.6 0 0 0-40.16-5.57c-1.53 0-3.06 0-4.57.08a170 170 0 0 0-41.89 7.19C90.89 50.6 77 56.35 63.49 61.91l-4.56 1.88c-9 3.69-18.22 7.5-28 9.57a47.4 47.4 0 0 1-9.78 1.27 27 27 0 0 1-3.26-.2 13.5 13.5 0 0 1-4.58-1.55A7.39 7.39 0 0 1 9.43 68c-1.81-6.95-3.72-14-5.57-20.78L1.9 40a9.07 9.07 0 0 1 3.55-10.2c4-3 8.65-4.16 12.68-4.87 1.83-.32 3.69-.51 5.48-.7 1.19-.12 2.38-.25 3.57-.41a6 6 0 0 1 .73-.05 3.23 3.23 0 0 1 3.24 2.53c.61 1.85 1.29 3.67 2 5.59.13.36.26.71.4 1.07l.73-.29c1.52-.6 3-1.18 4.49-1.8L44 28.72c12.73-5.32 25.89-10.81 39.27-15.2A243.2 243.2 0 0 1 131 2.66a175 175 0 0 1 20.17-1.16 190.7 190.7 0 0 1 29.73 2.4c27.34 4.33 53 14.22 72.26 22.35 4 1.68 8 3.33 12 5l4.28 1.75q.21-.57.42-1.11c.77-2.06 1.5-4 2.18-6a2.81 2.81 0 0 1 2.81-2.15h.34c6.39.51 12.14 1.11 17.79 3.42a18 18 0 0 1 4.95 2.88c3.16 2.7 4.24 6 3.19 9.75l-.89 3.22c-2.17 7.79-4.4 15.85-6.33 23.84-1.36 5.67-5.57 7-8.62 7.46a24 24 0 0 1-3.77.29z" class="cls-1"/><path d="M151.17 3a187.6 187.6 0 0 1 29.49 2.38c25.05 4 48.68 12.45 71.92 22.25 5.83 2.46 11.7 4.85 17.73 7.35 1.12-3 2.19-5.78 3.15-8.56.27-.79.63-1.14 1.39-1.14h.22c5.91.46 11.78 1 17.34 3.3a16.6 16.6 0 0 1 4.59 2.65c2.55 2.17 3.68 4.78 2.73 8.21-2.5 9-5.05 18-7.24 27.1-1 4.17-3.73 5.75-7.4 6.34a22 22 0 0 1-3.53.27 47.5 47.5 0 0 1-10.83-1.64c-10.43-2.47-20.24-6.7-30.09-10.78-15.89-6.57-31.78-13.12-48.48-17.44a161.8 161.8 0 0 0-40.54-5.62c-1.54 0-3.08 0-4.62.08A172.4 172.4 0 0 0 104.68 45C89 49.59 74 56 58.91 62.18c-9.23 3.8-18.45 7.63-28.26 9.71a46 46 0 0 1-9.47 1.24 24 24 0 0 1-3.06-.19A12.2 12.2 0 0 1 14 71.56a5.89 5.89 0 0 1-3.16-4c-2.44-9.35-5-18.67-7.53-28a7.55 7.55 0 0 1 3-8.61c3.56-2.7 7.75-3.83 12-4.58 3-.52 6-.7 9-1.1a3.4 3.4 0 0 1 .53 0c.93 0 1.46.43 1.81 1.5.88 2.67 1.92 5.29 3 8.14 2.29-.9 4.49-1.75 6.67-2.65C54 26.16 68.58 19.9 83.69 15a242.2 242.2 0 0 1 47.49-10.8 174 174 0 0 1 20-1.15m0-3a176 176 0 0 0-20.34 1.17A244 244 0 0 0 82.75 12.1C69.32 16.5 56.13 22 43.38 27.33l-5.18 2.16c-1.24.51-2.48 1-3.77 1.51-.67-1.78-1.3-3.47-1.86-5.17a4.68 4.68 0 0 0-4.66-3.56 6 6 0 0 0-.94.07c-1.15.15-2.29.27-3.51.4-1.82.19-3.7.38-5.59.71-4.21.74-9.09 1.93-13.32 5.15a10.49 10.49 0 0 0-4.1 11.79l2 7.18C4.25 54.38 6.16 61.42 8 68.36a8.83 8.83 0 0 0 4.66 5.85 14.9 14.9 0 0 0 5.09 1.71 28 28 0 0 0 3.45.21 49 49 0 0 0 10.09-1.3c9.89-2.1 19.22-5.94 28.24-9.65l.54-.22 4-1.66c13.42-5.54 27.32-11.3 41.46-15.42a168.1 168.1 0 0 1 41.53-7.13c1.49 0 3-.08 4.51-.08 12.39 0 25.4 1.81 39.79 5.53C208 50.51 224 57.11 239.44 63.5l2.4 1c9 3.74 18.33 7.61 28.15 9.93a50.6 50.6 0 0 0 11.52 1.72 25 25 0 0 0 4-.31c5.44-.87 8.66-3.68 9.84-8.59 1.92-8 4.15-16 6.31-23.79l.9-3.22c.83-3 .87-7.42-3.67-11.29a19.5 19.5 0 0 0-5.36-3.13c-5.83-2.39-12-3-18.23-3.52a4 4 0 0 0-.46 0 4.28 4.28 0 0 0-4.23 3.16c-.63 1.83-1.31 3.66-2 5.58l-2.83-1.17c-4.14-1.7-8-3.31-12-5-36.89-15.55-58.2-20.17-72.65-22.46a192.4 192.4 0 0 0-30-2.41z" class="cls-2"/><path d="M277.77 30c-.65.13-1.41.34-1.89-.38s-1.48-.94-1-2 1.33-.54 2-.48c5 .46 10 1 14.73 2.95 2.29.94 4.46 2.07 5.86 4.23s1.14 3.16-1.3 4a8.2 8.2 0 0 1-3.12.76 14 14 0 0 1 .61-2.35c1.15-2.56-.37-4.65-2.67-5.83a15.06 15.06 0 0 0-7.36-1.35 31.7 31.7 0 0 0-5.86.45" class="cls-3"/><path d="M119.4 155.07a56.58 56.58 0 0 1 36.28-9.31c-4 3.78-6.6 8.82-11.89 11.26-4.77 2.2-9.35 4.84-14.1 7.32-3.4-3.06-6.79-6.13-10.29-9.27" class="cls-2"/><path d="M34.58 157.9c2 2.94 3.6 5.9 2.46 9.77-1.77-.94-3.35-2.2-5.24-2.86-.86.84-.88 1.56.29 2 4.08 1.5 5.71 4.33 4.9 8.6a12 12 0 0 0 0 2c-1.38-.59-2.55-1.16-3.78-1.58-.62-.21-1.5-.86-1.87.32a1.4 1.4 0 0 0-.07.36l-2.33-.3c.84-6.88-1-10.8-7.08-16.42 3.46-.06 6-2 8.9-3.1a2.8 2.8 0 0 1 3.82 1.21" class="cls-4"/><path d="M297.5 39.71c.49.62 0 1.19-.19 1.71q-3.19 12.11-6.5 24.18c-1.11 4.08-3.18 5.63-7.55 5.72a49.9 49.9 0 0 1-14.51-2.12c-11.47-3.13-22.28-8-33.25-12.49-15.38-6.33-30.87-12.33-47.1-16.16-15.53-3.66-31.22-5.51-47.18-4.25-16.57 1.3-32.58 5.2-48.22 10.6-13.76 4.75-27.07 10.63-40.58 16-8.16 3.25-16.36 6.42-25.12 7.8-3.28.53-6.59 1-9.92.24-2.59-.64-4.32-1.92-5-4.84C10.31 58 8 49.87 5.8 41.75c-.16-.58-.29-1.17-.56-2.19 8.38 3.66 16 1.44 23.49-1.33C40.63 33.86 52.16 28.6 63.94 24c17.27-6.85 34.84-12.58 53.11-16a184 184 0 0 1 50.18-2.59c24.12 2.16 47.06 8.91 69.51 17.6 12.57 4.88 24.83 10.53 37.51 15.17 4.3 1.57 8.63 3.12 13.29 3.28a22.5 22.5 0 0 0 9.96-1.75m-19.04 288.92c2.23-2.93 9.84-4.46 13.83-2.62-4.16 3.86-9 2.67-13.83 2.62" class="cls-3"/><path d="M292 323.85c-7.1-1.25-13 .74-18 6.18l-2-5.4c5.86-2.12 11.56-4.55 18-4.23.8 0 1.3.22 1.45 1.1a22 22 0 0 0 .55 2.35m-30.87-64.67c6.54 4.48 8.19 10.36 4.87 17.55-4.37 9.51-12.2 14.58-22.12 16.81-7.95 1.8-16 1.24-24 .58a47.9 47.9 0 0 1-12.55-2.39l-1.6-.59a3.39 3.39 0 0 1-2.5-3.6v-.25c.2-6.12.76-12.18 3.06-17.92 1.45-3.61 3.35-6.83 7-8.75 1.76-.92 3.17-2.47 4.74-3.72 4.2-3.36 8.71-3.3 12.81.14 2.67 2.25 7.78 2.31 11.66.75a9.2 9.2 0 0 0 4.21-3.14c.24-.36.45-.74.69-1.14a40.2 40.2 0 0 1 13.73 5.67" class="cls-3"/><path d="M206.9 250.53a13.53 13.53 0 0 0-9.16 6.72c-3.23-.73-4.17-3.81-1.93-6.34 2.48-2.83 5.8-3.29 9.32-3a5.3 5.3 0 0 1 .85.17z" class="cls-4"/><path d="M133.87 191.26c1 2.39.25 5.56.19 8.37-.08 4.15-.25 8.29-.3 12.45a2.51 2.51 0 0 1-1 2.06c-2.94 2.47-5.83 5-8.87 7.55-4.39-2.33-8.7-4.63-13-6.88a1.65 1.65 0 0 1-1-1.77q.38-9.78.65-19.6a1.89 1.89 0 0 1 1.22-1.86q6.81-3.41 13.58-6.9c1-.5 1.73-.61 2.42.35a1.7 1.7 0 0 0 .28.25c1.28 1.22 2.86 2.32 4.11 3.55a7.7 7.7 0 0 1 1.72 2.43" class="cls-2"/><path d="M59.33 241.47a28.5 28.5 0 0 0 7.72 5.25c-1 4.78-4.83 6.18-8.61 6a1.54 1.54 0 0 1-1.5-.92c-2.24-4.89-5.54-9.06-8.71-13.31l.93-.7c.17.26.51.36 1.08.25 3.76-.77 6.52.73 9.09 3.43m47.8 9.47c2.21 2.57 1.21 5.69-2 6.27-1.93-3.69-5.21-5.58-9.18-6.73l1-2.59a2.8 2.8 0 0 0 1 0c3.5-.34 6.77.26 9.18 3.05m168.21-56.69a63 63 0 0 1-1 8.56l-1.95-.36a1.93 1.93 0 0 0-.21-1.11 20.9 20.9 0 0 0-8.47 2.73 16.6 16.6 0 0 1 1-6.42c.78-1.81 3.1-1.92 4.92-2.31A25 25 0 0 1 273 195c.59 0 1.3.1 1.3-.78z" class="cls-4"/><path d="M275.15 184.71a66 66 0 0 1 .19 9.54l-1-.06v-.1c-.06-1-.86-.72-1.42-.74a18.4 18.4 0 0 0-8 1.61c.16-1.9.33-3.58.48-5.26a2.28 2.28 0 0 1 1.47-2c1.78-.78 3.56-1.58 5.39-2.41a3 3 0 0 0 0-.31z" class="cls-4"/><path d="M139.45 117.36c2 0 4.13 2.8 3.66 5a13.6 13.6 0 0 1-1.32 3.52 3.46 3.46 0 0 1-3.54 2 3.89 3.89 0 0 1-3.71-2.43c-.25-.58-.41-1.19-.61-1.78-1.31-3.87-1-4.54 2.93-5.89a7.9 7.9 0 0 1 2.59-.42" class="cls-5"/><path d="M62.79 240.3c.38.57.73 1.17 1.1 1.75l-.29.31A40.2 40.2 0 0 1 52.8 232c-6.88-9-10.15-19.53-12.08-30.54A139.7 139.7 0 0 1 39 169.47c.28-4.92 0-9.37-3.74-13.4a13.29 13.29 0 0 1 10.07 5.22c4.21 5.31 6.47 11.61 9 17.78 1.7 4.19 3.14 8.5 5.82 12.22.6.84 0 1.45-.23 2.08a57 57 0 0 0-4.46 13.57 44.76 44.76 0 0 0 7.33 33.36" class="cls-4"/><path d="M158.52 61.68c0-3.75-.16-7.3.07-10.83.16-2.14 3.25-3.64 6.06-3.34 2.21.24 3.37 1.64 3.4 4.2 0 3.4.06 6.81.08 10.2h-1.21c-2.92-1.48-5.21-1.84-8.4-.23" class="cls-5"/><path d="M165.36 234.65c.14.26.27.53.42.8-4.59 4-9.15 7.88-13.67 11.85-.56.49-1 .32-1.51.07l-.58-.26c-6.05-2.85-12.08-5.7-18.14-8.53a2 2 0 0 1-1.14-1.14c-1.75-4.67-3.53-9.34-5.33-14.1 2.94-2.53 5.86-5 8.74-7.54a1.37 1.37 0 0 1 1.54-.14q11.38 3.59 22.78 7.14a2.14 2.14 0 0 1 1.36 1.16c1.81 3.53 3.64 7.04 5.53 10.69" class="cls-2"/><path d="M147.45 117c4.23-.63 5.84 1.32 4.38 5.31a2.52 2.52 0 0 1-3.64 1.5 9.5 9.5 0 0 1-4.28-5.32 6.54 6.54 0 0 1 3.54-1.49" class="cls-5"/><path d="M10.48 34.42c4.44-4.07 9.27-3.11 14.46-2.79-4.46 3.27-8.94 4.01-14.46 2.79" class="cls-3"/><path d="M254.63 228.92c.66-2.18 2-4 3-6 .48-1 1.81-1 2.87-1.12a20 20 0 0 1 3.21 0c.87 0 1.32-.2 1.41-.83l1.18.91c-.55.72-1.1 1.45-1.6 2.22-1.73 2.63-3.53 5.2-5.36 7.76l-1.88-1.36c.6 0 1.09-.25.89-1.18-.24-1.1-1-.58-1.67-.53l-2 .22z" class="cls-4"/><path d="M297.85 320.63c-8.17-3.64-15.69-1.56-23.18 1.16-11.43 4.16-22.51 9.23-33.83 13.7A320 320 0 0 1 196.15 350c-18.35 4.29-36.91 6.41-55.78 5.13a218.3 218.3 0 0 1-45.89-8.37c-17.15-4.94-33.63-11.68-50.07-18.54-6-2.52-12-5-18.21-7.14-6.86-2.36-13.71-3.67-21-.46 1.73-6.47 3.37-12.62 5-18.77.69-2.54 1.41-5.08 2.09-7.63.92-3.4 2.43-4.77 6-5.18 4.64-.55 9.16.25 13.63 1.34 11 2.66 21.27 7.13 31.64 11.42 13 5.36 26 10.67 39.47 14.7 17.77 5.32 35.86 8.48 54.48 7.65a172 172 0 0 0 39.66-6.82c14.86-4.26 29.13-10.1 43.39-16 10-4.15 20-8.41 30.61-11a39.1 39.1 0 0 1 13.44-1.33c3.63.42 5.13 1.72 6.09 5.27 2.35 8.64 4.69 17.29 7.15 26.36" class="cls-3"/><path d="M161.26 168.7a1.23 1.23 0 0 1 .58 1.55c-.79 3.1-1.48 6.21-2.2 9.33a2 2 0 0 1-1.38 1.56q-10.55 4-21 8.21a1.66 1.66 0 0 1-2.14-.32l-1.65-1.61c-1.64-1.56-3.3-3.08-4.92-4.63-.44-.41-1.09-.75-.74-1.59 1-4.74 2.11-9.51 3.13-14.3a1.91 1.91 0 0 1 1.18-1.33c4.45-2.32 8.91-4.63 13.34-7a1.53 1.53 0 0 1 1.86.14q6.94 5.04 13.94 9.99" class="cls-2"/><path d="M31.05 35.53c-5.23 2-10.29 3.93-15.8 4.3-3.25.22-3.69-.19-3.93-3.45 6.91 1.06 12.87-.79 17.74-6.26z" class="cls-3"/><path d="M202.39 176a12.6 12.6 0 0 1 1.88 6.71 12 12 0 0 1-.24 1.58c-2.85-1-5.72-2-8.62-3-.61-.21-.86-.69-1.17-1.15 0-.06-.07-.1-.1-.16-2.54-3.81-5.06-7.63-7.61-11.44a2.7 2.7 0 0 1-.67-1.51v-9.71A54.4 54.4 0 0 1 202.39 176" class="cls-2"/><path d="M252.77 238a1.26 1.26 0 0 0 .9-.19l.88.63c-2.61 3.6-5.13 7.23-7.46 11-.83 1.36-.89 3.5-3.46 3.28-2.93-.27-5.45-1-7-3.74-.35-.66-.6-1.38-1-2.18a45.5 45.5 0 0 0 11.32-8.5 2 2 0 0 1 1.6-.38zM38.54 212.72c3.77 1 4.46 4.23 5.44 7.42a19 19 0 0 0-6.1-.06 1.53 1.53 0 0 0 0 1.31l-1.1.78c-.81-1.13-1.61-2.24-2.44-3.36a25.7 25.7 0 0 1-3.58-6.81l1.84-.65a1.42 1.42 0 0 0 1 .38 36.5 36.5 0 0 1 4.94.99M274 176.24c.14 1.06.32 2.12.48 3.19.28 1.77.51 3.53.65 5.28l-2.91.27c-.09-1-.65-1.25-1.75-.78-1.54.67-3.1 1.28-4.76 2-.27-2 .21-4 .27-5.88 0-1 1.05-1.36 1.83-1.74a29 29 0 0 1 2.94-1.25c.55-.2 1-.4.87-1z" class="cls-4"/><path d="M189.54 91.45c1.08-1.8 1.91-1.79 4.7.18l-4.48 4.07c-1.76-.91-1.82-1.59-.22-4.25" class="cls-5"/><path d="M271.25 203.2c.65-.09 1-.32 1.13-.75l1.95.36a62 62 0 0 1-2.36 8.88l-1.58-.54a1.9 1.9 0 0 0-.05-1.07c-3-.32-5.68.71-8.5 1.77.29-3.21 1.1-5.87 4.38-7.1a23.2 23.2 0 0 1 5.03-1.55" class="cls-4"/><path d="M29.06 330c-4.91-5.41-10.79-7.44-17.77-6.22.3-3.37.37-3.48 3.48-3.42 5.74.09 10.93 2.29 16.29 4.22-.67 1.85-1.26 3.48-2 5.42" class="cls-3"/><path d="M30.76 212a49 49 0 0 1-2.19-9.27l1.95-.28c.08.4.4.65 1 .73a23 23 0 0 1 3.82 1c3.61 1.2 5.69 3.51 5.56 7.61-2.64-1-5.32-2-8.28-1.74-.3.6-.31 1-.06 1.28z" class="cls-4"/><path d="M291.63 36.4c-.05 3.06-.44 3.52-3.28 3.44-5.74-.18-11-2.31-16.39-4.3.66-1.79 1.27-3.48 2-5.45 4.8 5.48 10.76 7.33 17.67 6.31" class="cls-3"/><path d="M253.86 237.34c.08-.83-.44-.9-1.06-1-1.1-.09-2.2-.22-3.52-.37 2-2.88 3.73-5.73 7.7-5.58h.5l1.88 1.36c-1.61 2.23-3.23 4.44-4.81 6.67l-.88-.63a.77.77 0 0 0 .19-.45" class="cls-4"/><path d="M137.08 88.39a106.8 106.8 0 0 0 3.44 26.61 2 2 0 0 1 0 .49 13 13 0 0 0-8.17 2.79 78 78 0 0 1-2.58-10.39 82.2 82.2 0 0 1-1.46-16.66c0-4.17 4.84-5.9 7.84-4.28a1.44 1.44 0 0 1 .93 1.44m11.78 5.54a162.5 162.5 0 0 1 3.19 21.56c-5.09-.47-5.53-.41-9 1.25a36.4 36.4 0 0 1-2.54-9.52 176 176 0 0 1-1.79-15.52 19.5 19.5 0 0 1 .21-4.89 3.34 3.34 0 0 1 2.47-3 3.44 3.44 0 0 1 4 1.44 23.8 23.8 0 0 1 3.46 8.68" class="cls-5"/><path d="M239.06 179.81c-1.07-3.28-1.11-6.63.1-11.88 1.83-7.89 4.42-15.48 9.38-22 3.36-4.44 7.42-7.85 13.14-8.81.86-.14.84-.21.71-1.81a17.6 17.6 0 0 0-10.65 4.56c-5.08 4.3-8.26 9.92-10.67 16-.91 2.25-1.66 4.59-2.57 6.88a42.7 42.7 0 0 1 1.05-8.35 47.1 47.1 0 0 1 6-16c4.81-7.56 12-10.08 20.55-7.51 9 2.7 13.06 8.56 14.21 18.58a22.2 22.2 0 0 1-.17 8.39 9.8 9.8 0 0 1-4-1.27c-8-4.31-15.59-2.54-20.86 4.86-3.87 5.44-6.1 11.68-8.57 17.79a66 66 0 0 1-4.15 9.29c-.22.36-.33.83-1 1-.91-2.34-2-4.53-1.32-7.3 2.15-8.58 4.72-17 9.87-24.31 3.77-5.38 8.36-9.74 14.91-11.51a16 16 0 0 1 3.33-.63c1.24-.08 1.47-.63 1.18-1.82a19 19 0 0 0-8.74 1.95c-6.59 3.12-11 8.44-14.5 14.64a76.8 76.8 0 0 0-7.23 19.26" class="cls-4"/><path d="M158.49 84.9V64.32c0-.69-.18-1.39.1-1.87 2.64.48 5.42-.83 7.62 1 .85-.23.35-1 .72-1.49h1.21c.11 12 .17 24 .51 36.07.08 2.88-.66 4.14-2.95 5.6-4.37 2.75-7.47 6.88-10.45 11-.37.5-.73 1-1.32 1.82-.93-8.26-1.65-16.14-3.61-23.83-.78-3.1-1.73-6.18-3.82-8.73a2.63 2.63 0 0 1-.42-1.77c-.22-11.27 0-22.54-.67-33.8a5.84 5.84 0 0 1 4.9-5.83c2.64-.48 4.65.84 5.64 3.8a14.8 14.8 0 0 1 .8 4.63v35.24c1.51.69 1.74.02 1.74-1.26" class="cls-5"/><path d="M238.7 242.47a57.8 57.8 0 0 0 6.47-11.67 44.1 44.1 0 0 0-1.09-34.8c-1.21-2.67-1.41-4.7.32-7.35 2.6-4 3.89-8.7 5.69-13.13 2-4.84 4-9.65 7.23-13.83a13.78 13.78 0 0 1 10.43-5.69c-4.52 4.41-3.93 9.56-3.74 14.84a136.3 136.3 0 0 1-3.31 37.65c-2.91 12-8.18 22.68-17.59 31a19 19 0 0 1-4.23 3.12 1.5 1.5 0 0 1-.18-.14" class="cls-4"/><path d="M278.58 31.78c4.74-.44 9.57-1.44 13.91 2.62-5.41 1.27-9.88.49-13.91-2.62" class="cls-3"/><path d="M195 89.75c-2.37-.8-4.8-3.1-6.84.57s-2.11 4.34.6 7.24a37.57 37.57 0 0 0-6.87 18.67 4 4 0 0 1-1.19 2.44 77 77 0 0 0-9.19 11.72 13.15 13.15 0 0 0-2.24 8c.15 2.5 0 5 0 7.82a60.3 60.3 0 0 0-31.41-1.11c.25-3.31-1.17-6.71 2.36-8.69-.43-1.29-1.14-1.33-2.08-.69a29.6 29.6 0 0 1-2.3-6.39c5 .69 5.6.29 8.82-5.65 3.3 1.08 5.14 4.08 7.72 6a2.06 2.06 0 0 0 .87-1.5c-.92-.72-2-1.29-2.5-2.61 2.2-.87 2.94-2.68 3.05-4.89a3 3 0 0 1 .39-1.43c3.42-5.39 7-10.75 12.4-14.29a13.24 13.24 0 0 0 5.15-5.96 25.8 25.8 0 0 1 9.39-11.55 13.4 13.4 0 0 1 10.26-2.08c2.44.45 3.52 1.76 3.61 4.38" class="cls-5"/><path d="M276.51 158.73a15.9 15.9 0 0 0 4.59 1.16 20.16 20.16 0 0 0-6.14 7.49 15.93 15.93 0 0 0-.94 8.86l-2.38.06a1.3 1.3 0 0 0 0-.19c-.25-.83-.88-.62-1.39-.43-1.35.49-2.67 1.06-4.28 1.71v-6.78c0-.77.69-1.19 1.24-1.55a43 43 0 0 1 3.72-2.27c1-.55 1-1.13.22-2a35.6 35.6 0 0 0-5.25 2.92c-1.2-4.44.79-7.76 3.36-10.88.63-.76 1.49-.52 2.28-.31a29 29 0 0 1 4.97 2.21" class="cls-4"/><path d="M87.45 259c.92.76 1.86 1.56 2.85 2.36-7.12 4-9.11 10.75-10.27 18a34 34 0 0 0-.38 6.78 3 3 0 0 1 0 .44 1.58 1.58 0 0 1-1.17 1.38 46 46 0 0 1-21.2 3.52A23.9 23.9 0 0 1 46 288.27c-5.17-3.2-6.75-8.13-6.2-13.82 1-10.12 6.52-16.11 16.47-18.14a2.28 2.28 0 0 1 1.93.32c3.4 2.27 7.15 2.57 11.05 1.8a6.8 6.8 0 0 0 3.14-1.63 9.3 9.3 0 0 1 11.78-.5c1.07.85 2.16 1.7 3.28 2.7" class="cls-3"/><path d="M197.88 218.18a2.16 2.16 0 0 1-.1 2.69c-3.11 4.64-6.17 9.33-9.22 14-.45.72-.85 1.45-2.11 1-5.55-.32-11.33-.68-17.11-1a2.1 2.1 0 0 1-2-1.3c-1.74-3.48-3.51-6.94-5.37-10.35a2 2 0 0 1 .15-2.37q5.71-8.65 11.34-17.34a2.26 2.26 0 0 1 1.93-1.2q5.55-.4 11.09-1a2.21 2.21 0 0 1 2.54 1.3c2.85 5.28 5.85 10.44 8.86 15.57" class="cls-2"/><path d="M93.31 178.49c-1.4-.49-2-.15-1.89 1.18v1.32c0 2.65-.11 2.75-2.88 2.53-.48-1.74.06-3.59-.31-5.37-1.61-.56-1.7.43-1.68 1.53s0 2 0 3.3c-2.13-.7-3.21-2.28-4.43-3.64-.84-.93-.82-.94-2 0 3.9 6.84 8.7 7.7 16.45 2.86a7.14 7.14 0 0 1-.82 5c-.85 1.68-1.77 3.33-2.58 5a14.37 14.37 0 0 0-1.48 7.27 26.3 26.3 0 0 0-12.46.3c-8.2 2-13.26 8.41-13.61 16.85A48.4 48.4 0 0 0 69.51 237c1.64.09 1.47-.78 1.06-1.88a46.7 46.7 0 0 1-3.1-18.48c.4-8.71 6.12-14.85 14.85-15.71a25.4 25.4 0 0 1 6.57-.23c4.69.78 7.72 3.71 10 7.66a23.9 23.9 0 0 1 2.68 7.8c0 .24.06.46.09.69a9.27 9.27 0 0 1-1.84 6.1c-1.55 2.29-3.21 4.5-4.77 6.79a18.8 18.8 0 0 0-3.42 9.46c-.08 1.19.11 1.62 1.38 1.84a65.6 65.6 0 0 1 13.27 3.52c1 .38 2.35.68 1.91 2.29-.33 1.25-1 1.57-2.23.86a12.2 12.2 0 0 0-9.5-1.27c-.06.81.07 1.26.57 1.42l-1 2.59c-.68 1.05-.59 1.67.69 2.07a11.9 11.9 0 0 1 5.69 3.54c2.06 2.39 1.32 4.39-1.76 5a13.43 13.43 0 0 1-12.06-3.36c-2.2-2-4.35-4.07-7.41-4.66-3.62-.7-6.95-.38-9.85 2.3s-9.93 2.17-12.31-.67c.71-.13 1.37-.27 2-.37a9 9 0 0 0 8-7.63 2.47 2.47 0 0 0-.67-2.39 43.27 43.27 0 0 1-11.71-33.36c.4-6.26 2.61-12 5.19-17.62 4.67-10.17 5.23-20.85 4.36-31.78a68.7 68.7 0 0 0-6.3-22.76A34.8 34.8 0 0 1 57 125a102 102 0 0 1 .78-16.39l9.7 9.36a32.3 32.3 0 0 0 7.22-9.78 5.42 5.42 0 0 1 2 4.15c0 1.83.07 3.66 0 5.48a2.61 2.61 0 0 0 1.44 2.72 61.2 61.2 0 0 1 14.31 11.63c.66.76 1.27 1.56 1.89 2.35a1.69 1.69 0 0 1 .19 2.21c-.93 1.49-.62 3.13-.09 4.72-3.37 2.5-7.14 3.09-11.13 2.85a2.53 2.53 0 0 1-1.74-1c-1.24-1.34-2.47-2.7-3.65-4.08-.68-.81-1.26-1-2 0 .52 1.63 2.14 2.55 3 4.36-3.7-.61-6.78-2.26-9.94-3.72-.67.13-.74.72-1 1.31a34.5 34.5 0 0 0 10 4 2.94 2.94 0 0 1 2.33 2.07 113 113 0 0 0 7.2 15.57 7.6 7.6 0 0 0 3.08 3.23c2.44 1.24 4.57.36 5.47-2.22 1.31-3.7 2.8-7.31 6.1-9.76a13 13 0 0 1 1.66-.88l.33.35c-.31.76-1.16 1.16-1.33 2.09.69 1 1.27.82 2 0 1.41-1.57 3.06-2.68 5.75-2a17.3 17.3 0 0 0-4.87 4.25c-.29.42-.5.87-.74 1.28.85 1.11 1.47.75 2.09-.14a8.52 8.52 0 0 1 4.56-3.48c.92 1.69.85 3-.65 4.24A56.3 56.3 0 0 0 99 173.07a15.7 15.7 0 0 0-2.12 4.81c-.44 2-1.8 3-3.59 4.28z" class="cls-4"/><path d="M24.43 328.32c-4.63 1.6-11.3.4-13.39-2.39 3.41-1.74 10.18-.53 13.39 2.39" class="cls-3"/><path d="M96.72 189a11.8 11.8 0 0 0 1.8-7.75 2.16 2.16 0 0 1 .65-2.14c3 4.24 5.9 8.45 8.86 12.64a2.36 2.36 0 0 1 .29 1.62c-.22 6.86-.47 13.72-.69 20.57a2.34 2.34 0 0 1-.56 1.54c-1.24 1.42-2.44 2.86-3.68 4.31 0-1.06-.07-2.1-.19-3.11-.66-6.15-3.08-11.41-8.31-15.37a2.15 2.15 0 0 1-1-2.12A19.54 19.54 0 0 1 96.72 189m32.85 69.54a25.77 25.77 0 0 0-12.66 14.27 39.8 39.8 0 0 0-2.12 8.7 38 38 0 0 0-.34 6.4c0 .7 0 1.25-.91 1.54-7.25 2.19-14.56 4-22.24 3a16.7 16.7 0 0 1-8.65-3.37 3.08 3.08 0 0 1-1.4-2.49c.07-5.25.57-10.42 2.59-15.33a14.84 14.84 0 0 1 7-8.1 4.66 4.66 0 0 1 3.6-.44 14.1 14.1 0 0 0 6 .23c2-.29 3.27-1.88 4.83-3 2-1.5 3.6-4.18 6.63-4.19a90 90 0 0 1 11.47.76 23.2 23.2 0 0 1 6.2 2.02" class="cls-2"/><path d="M30.19 195a21 21 0 0 1 6.24 1.3c1.24.56 2.08 1.22 2.14 2.75a48 48 0 0 0 .76 5.09c-2.92-1.42-5.59-2.6-8.58-2.79a2 2 0 0 0-.23 1.12l-1.95.28a94.508 94.508 0 0 1-.89-8.45l.9-.06c0 1 .98.65 1.61.76" class="cls-4"/><path d="M293.67 329.08c-3.69 2-7.75 2.78-11.84 3.4-1.68.24-3.38.34-5.06.5-.85.08-2.08.41-2-.89a2.16 2.16 0 0 1 2.11-2c1.12 0 2.25.24 3.36.36a22.6 22.6 0 0 0 9-.58c4.14-1.25 5.25-3.3 4.11-7.42-.12-.42-.19-.86-.33-1.47a11.2 11.2 0 0 1 3.58 1c1.84.76 2 1.28 1.2 3.15a8.67 8.67 0 0 1-4.13 3.95m-118.05-71.36c-10 7.69-11.58 18.39-11.77 29.56a2.69 2.69 0 0 1-1.86 2.94c-14.41 6.19-28.85 6.66-43.43.65-1.63-.68-2.45-1.53-2.44-3.43a39.5 39.5 0 0 1 2.33-14.28A24.77 24.77 0 0 1 126 262.8a22.7 22.7 0 0 1 12.5-4.8 198 198 0 0 1 28.08-1.09c2.92.14 5.82.52 9.04.81M25.06 30.05a31 31 0 0 0-8.65-.28 11.9 11.9 0 0 0-4 1.05c-3 1.4-3.84 3.18-2.95 6.33.19.64.36 1.27.59 2.09a14 14 0 0 1-4.7-1.54c-1-.48-.59-1.3-.39-2a7.8 7.8 0 0 1 4.09-4.46 32.1 32.1 0 0 1 10.72-3.35c1.92-.32 3.85-.54 5.8-.7.82-.06 1.77-.52 2.49.25.37.4.2.88-.15 1.36a2.56 2.56 0 0 1-2.85 1.25" class="cls-3"/><path d="M202.78 225.4c1 1.44.75 2.79-.2 4.48a64.3 64.3 0 0 1-9.8 13.4q-.84.85-1.71 1.68c-.26.25-.43.64-1 .59-.14-2.48-.28-5-.41-7.45a1.8 1.8 0 0 1 .29-1.25l9.71-14.78c.17-.25.34-.52.51-.78a20 20 0 0 0 2.1 3.46c.17.25.35.44.51.65" class="cls-2"/><path d="M37 182.62c-.18 1.1.42 2.23.12 3.51-1.64-.66-3.25-1.28-4.82-2-1.15-.49-1.6 0-1.74 1.14l-3-.22a45 45 0 0 1 .79-5.53c.24-1.19.43-2.28.55-3.32l2.33.3c0 .66.79.72 1.29.94a8 8 0 0 0 1.06.38c2.32.79 3.92 2 3.42 4.8m24.27 7.09a13.9 13.9 0 0 1-2.43-4.1c-2.69-5.89-4.63-12.1-7.55-17.9a33 33 0 0 0-6.08-9A14.47 14.47 0 0 0 28 156c-1.66.82-3.25 1.88-5.42 1.88a32.16 32.16 0 0 1 1.74-15.93c2.58-7 8.15-10.24 15.08-11.61 9.66-1.93 16.32 3.89 19.87 11.66a61.5 61.5 0 0 1 5.19 19.78 3.7 3.7 0 0 1-.09 1.13A87 87 0 0 0 60 151.68c-2.75-5.57-6.24-10.5-11.6-13.85a17.44 17.44 0 0 0-7.94-2.63c-.07.93-.48 1.69.62 1.88 7.53 1.26 12.05 6.39 15.7 12.47 4.08 6.76 6.24 14.26 7.7 21.94.53 2.73.08 5.52-.49 8.71-.65-2.26-1.15-4.14-1.72-6-2.44-7.95-5.76-15.45-11.42-21.69-4.2-4.6-9.26-7.71-15.55-8.51a3.63 3.63 0 0 0-2 .13c-.11.77-.38 1.55.94 1.66 7.16.57 12.45 4.48 16.75 9.83 6.69 8.29 9.81 18.17 11.9 28.41.39 1.87-.79 3.72-1.62 5.68" class="cls-4"/><path d="M149.1 249.05a17.3 17.3 0 0 1 7.24 5.92c-5.46.27-10.83.57-16.17 1.21-.61.08-1.23.15-1.83.19a26.3 26.3 0 0 1-7.85-.23c-5.05-1-9.07-3.77-13.19-6.5.09-.63.63-.75 1-1 3.8-2.45 7.64-4.83 11.41-7.32a2.23 2.23 0 0 1 2.55-.17c5.6 2.67 11.23 5.26 16.84 7.9M207.62 263c-5 7.49-6 15.88-6.11 24.47a3 3 0 0 0 0 .45c0 .8 0 1.44-.91 1.78-8.42 3.12-17 5-26 3.42a22.8 22.8 0 0 1-7.91-2.9c-.65-.41-1.21-.76-1.2-1.71v-1.24c.14-6.87 1.13-13.53 4-19.88 4.68-10.19 16.24-12 23.4-10.93.91.14 1 1.12 1.7 1.36 2 .68 3.22 2.2 4.6 3.69s3.66 1.48 5.69 1.49z" class="cls-2"/><path d="M39.09 221.73c.56-.06 1.14 0 1.7 0 2.7-.15 4.76.61 5.69 3.48a22 22 0 0 0 1.88 3.51c-1.28.75-2.41-.43-3.59 0a1.45 1.45 0 0 0-.22 1.2L42.94 231c-2-3-4.07-5.92-6.16-8.85l1.1-.78c.19.3.57.41 1.21.36" class="cls-4"/><path d="M192.32 181.26a2.49 2.49 0 0 1 .29 2.28c-1.36 4.76-2.74 9.51-4 14.28-.23.85-.49 1.28-1.44 1.34l-.86.07c-3.72.28-7.45.6-11.16 1a1.75 1.75 0 0 1-1.83-.92q-5.64-8.22-11.39-16.39a2.22 2.22 0 0 1-.3-2.08c.8-3.27 1.55-6.57 2.35-10.06.07-.27.13-.53.19-.8 6.6-.15 13.07-.29 19.53-.47.79 0 1.09.46 1.44 1 2.36 3.55 4.73 7.17 7.18 10.75" class="cls-2"/><path d="M45.65 230.47c5 .83 5 .88 7.88 5.54l-4.27.49a1.51 1.51 0 0 0-.1 1.26l-.93.7c-.63-.84-1.24-1.67-1.84-2.52q-1.76-2.44-3.45-4.92l1.61-1.11c.13.26.45.44 1.1.56m222.85-18.62c.66-.09 1.66 0 1.89-.7l1.58.54c-.42 1.21-.87 2.41-1.37 3.61a29 29 0 0 1-4.28 6.52l-1.18-.91a2.7 2.7 0 0 0 0-.83 18 18 0 0 0-6.17.09c1.55-6.05 3.3-7.53 9.53-8.32M28.59 194a1.3 1.3 0 0 0 0 .19l-.9.06a146 146 0 0 1-.24-5.55 34 34 0 0 1 .14-3.64l3 .22c1.64.71 3.24 1.43 4.86 2.08a3.11 3.11 0 0 1 2.15 3 18 18 0 0 0 .55 4.61 20.4 20.4 0 0 0-7.9-1.61c-.59.04-1.54-.42-1.66.64m167.33-35c.78 1 .8 1 2.06.17-1.06-2.45-3.22-3.85-5.61-5.58a5.46 5.46 0 0 1 5.64 1.94c.66.69 1.25 1.35 2.14.25 0-1-1-1.36-1.28-2.17.1-.12.21-.23.32-.35 3.13 1.21 4.7 3.88 6.11 6.64a31 31 0 0 1 1.63 4c.83 2.41 2.55 3.25 5 2.39a7 7 0 0 0 3.6-3.44 104 104 0 0 0 7-15 3.8 3.8 0 0 1 3.11-2.75 34.9 34.9 0 0 0 9.25-3.71c-.17-1.47-.83-1.51-1.92-1a34 34 0 0 1-8.82 3.25c.46-1.5 1.6-2.26 2.35-3.25s.71-1.54-.58-2a37 37 0 0 0-3 3.54c-1.92 2.92-4.77 2.68-7.59 2.33a15.1 15.1 0 0 1-6.7-2.62c.38-1.85.68-3.69-.41-5.44-.47-.73.25-1.3.65-1.82a51.3 51.3 0 0 1 11.36-10.7c1.59-1.13 3.2-2.25 4.89-3.22a2.19 2.19 0 0 0 1.2-2.29c-.06-1.7 0-3.4 0-5.1a7.26 7.26 0 0 1 1.83-5 32.9 32.9 0 0 0 7.14 9.8c3.28-3.14 6.46-6.21 9.73-9.35.85 2.41.65 4.82.8 7.15.62 8.92.18 17.65-3.88 26-4.78 9.85-5.68 20.48-5.48 31.3.15 8.5 2.91 16.22 6.13 23.93 7.27 17.45 4.42 33.32-8 47.5a2.74 2.74 0 0 0-.61 2.58 9.06 9.06 0 0 0 7.63 7.38l2.36.39c0 .64-.49.82-.85 1a9 9 0 0 1-1.19.58 11.7 11.7 0 0 1-11-1.49c-3.72-3.05-9.55-2.8-13.78.58-1.09.88-2.11 1.8-3.16 2.71a13.35 13.35 0 0 1-11.82 3c-2.86-.56-3.54-2.5-1.68-4.8a11.65 11.65 0 0 1 5.81-3.69c1.16-.36 1.44-.87.62-2l-.92-2.45a1.67 1.67 0 0 0 .52-1.49 1.6 1.6 0 0 0-.45-.24 12.77 12.77 0 0 0-9 1.26c-.84.41-1.52 1-2.19-.19a1.45 1.45 0 0 1 .39-2.15c.15-.1.32-.19.49-.28a43 43 0 0 1 8.42-2.73 53 53 0 0 1 5.71-1.19c1.07-.16 1.35-.56 1.33-1.56a18.16 18.16 0 0 0-3.64-10.15c-1.13-1.65-2.32-3.28-3.47-4.92-.43-.62-.87-1.25-1.29-1.89a9.28 9.28 0 0 1-1.2-7.76c1.07-4.37 2.86-8.32 6.35-11.32a12.08 12.08 0 0 1 9.12-2.84c5 .34 9.89 1.18 13.71 4.92 3 2.93 4.25 6.62 4.55 10.69a45.1 45.1 0 0 1-3 18.85c-.36 1-.68 1.86 1 2a42.2 42.2 0 0 0 2.89-9.22 36.7 36.7 0 0 0 .65-13.85 16.92 16.92 0 0 0-14.53-14.57c-3.61-.58-7.22-1-11.11.06.27-5.09-2.51-9-4.52-13.22a6.5 6.5 0 0 1-.55-3.5 8 8 0 0 1 .09-.79c3 2.3 6.09 4.37 10.05 3 2.95-1 4.87-3.2 6.5-5.73-.78-1-1.35-1-2.1 0-1.1 1.42-2.23 2.87-4 3.49-1.3-1.41.9-4.07-1.91-5.05-.58 2.05 0 3.9-.43 5.65-2.65.43-2.92.21-2.94-2.31a15 15 0 0 1 0-1.5c.08-1.23-.44-1.62-1.59-1.23-.39.58-.19 1.21-.23 1.83s0 1.11 0 2c-1.67-1.19-3-2.1-3.55-4-1.6-5.58-5.32-9.79-9.19-13.87-1.59-1.69-3.37-3.21-5.08-4.79-1.35-1.25-1.48-2.08-.46-4.07a9.18 9.18 0 0 1 4.58 3.47" class="cls-4"/><path d="M22.33 330.49a14 14 0 0 0 3-.35c1.35-.39 2 .43 2.65 1.25a1 1 0 0 1 .16 1.22c-.25.49-.68.47-1.13.44-5.55-.39-11-1-16.19-3.25-2.4-1-4.59-2.35-5.7-4.93-.61-1.41-.4-2.37 1.18-2.89a19.6 19.6 0 0 1 3.81-1.08c-.27.92-.48 1.63-.68 2.36-.8 2.76-.07 4.5 2.57 5.85 3.26 1.67 6.79 1.59 10.33 1.38" class="cls-3"/><path d="M220.57 211.17c.56 1.68 1.38 2.46 3.12 1.91a8 8 0 0 1 2.4 0c.37 1.38.37 1.38-3.27 2 0 1.22.31 1.87 1.77 1.48a7.16 7.16 0 0 1 3.56.07c.56.14 1.15.18 1 1s-.63.67-1.14.65a17 17 0 0 0-3.92.11c-.29 1.22.33 1.38 1.21 1.44a13.7 13.7 0 0 1 5.09 1.27c1.14.56 1.13.58.27 2-1.91-.63-3.75-1.72-6-1.34.29 1.6.56 3.07.85 4.65 1.31.21 2.67.38 4 .68.54.12 1.38.22 1.1 1.17s-1 .71-1.55.51a6.84 6.84 0 0 0-3.18-.21c0 1.35.43 2.58.11 3.9-1.39.54-1.65-.15-1.75-1.39a50.8 50.8 0 0 0-3.43-15.58 9.66 9.66 0 0 0-2.62-3.87c-2-1.66-4.48-.89-5.08 1.67s.21 5.12.7 7.64c.92 4.67 2.37 9.25 2.64 14.05v1.12a1.3 1.3 0 0 1-1.64.07c-.28-6-2.29-11.66-3.25-17.54a15.3 15.3 0 0 1-.21-5.8c.52-2.39 2.51-4.2 4.86-3.76a50 50 0 0 0 5 .19c.67.06 1.71-.28 1.76.88 0 1.39-1.09.82-1.8.94zm10.77-82.76c1.84 0 3.63 1.07 3.43 2.2-.31 1.87-2 1.94-3.35 2.08-1.92.18-3.73-1-3.68-2.17s1.72-2.09 3.6-2.11M76.51 232.44a14.3 14.3 0 0 1 .17-3.6c-1.41-1.55-3.78 1.43-5.08-1.21a9 9 0 0 1 4.12-1c1.06 0 1.44-.4 1.52-1.42s.37-2.23.57-3.41c-2.21-.55-4 .75-5.92 1.26-1.06-1-.81-1.62.4-2.06a16.2 16.2 0 0 1 4.93-1.17c.6 0 1.21 0 1.22-.82s-.71-.73-1.23-.75h-3.56c-.37-1.84.77-2.19 5.46-1.58a2.2 2.2 0 0 0 .65-1.61 6.4 6.4 0 0 0-2.54-.21c-1.3 0-1.17-.78-1-1.56 1.83-1.13 4.8 1.54 5.71-2l-.43-.17c-.71-.22-2 .58-2-1 .06-1.23 1.21-.82 1.93-.87 1.67-.11 3.34-.05 5-.2 3.25-.29 5.21 2.67 4.85 6.58-.46 5.16-2.12 10.07-2.95 15.15-.29 1.79-.52 3.59-.78 5.42-1.71.68-1.69-.38-1.58-1.58.43-4.65 1.76-9.12 2.67-13.67.51-2.5 1.32-5 .71-7.61s-3.08-3.48-5.15-1.63c-2.38 2.11-3.22 5.06-4 8a55 55 0 0 0-1.94 11.49c-.02 1.16-.37 1.73-1.75 1.23m-5.22-99.72c-1.85.05-3.51-.94-3.54-2.11s1.57-2.2 3.47-2.2 3.55 1 3.58 2.12-1.59 2.14-3.51 2.19m84.19-74.89a1.81 1.81 0 0 1-.95 1.25c-2.13-1.56-4.4-2.15-6.92-.64-.73.44-1-.41-1.32-.89 2.77-2.45 6.05-2.34 9.19.28m-.15 13.62c-.36.92-.63 1.52-1.57 1.23a10.74 10.74 0 0 0-5.4 0c-1.11.22-1.12.19-1.68-1.35 2.89-.82 5.7-1.2 8.65.12M159 75a16.3 16.3 0 0 1 8 .13 1.66 1.66 0 0 1-.39 1.56 19 19 0 0 0-6.11-.19c-1.03.19-1.5-.19-1.5-1.5m7.21 9.62a2.1 2.1 0 0 1 .06 1.68c-1.63 0-3.3-.06-5 0-1.29.05-1.51-.53-1.14-1.7z" class="cls-1"/><path d="M80.23 37.62c1.26-.15 2.52-.29 3.78-.41a7.83 7.83 0 0 1-1 4.91 9.37 9.37 0 0 1-10.26 3.6 8.77 8.77 0 0 1-5-4.63A8.49 8.49 0 0 1 67 34a9 9 0 0 1 5.06-5 8.6 8.6 0 0 1 6.15-.63 6.45 6.45 0 0 1 3 2.18c-1.09.73-2.17 1.48-3.25 2.23a3.53 3.53 0 0 0-2.15-1.37 4.36 4.36 0 0 0-2.75.38 4.6 4.6 0 0 0-2.63 2.72q-.63 1.82.71 4.58c1 2 2 3.16 3.16 3.64a4.32 4.32 0 0 0 3.55-.13 3.94 3.94 0 0 0 2-1.83 5.1 5.1 0 0 0 .38-3.15m4.9-4.33a9.7 9.7 0 0 1-.76-4.42 7.8 7.8 0 0 1 .86-2.87 7.6 7.6 0 0 1 1.86-2.32 11.6 11.6 0 0 1 3.8-2 9.45 9.45 0 0 1 7.3.21 8.28 8.28 0 0 1 4.22 5.61 9 9 0 0 1-.56 6.93 9 9 0 0 1-5.36 4.11 9.16 9.16 0 0 1-6.81-.09 8.74 8.74 0 0 1-4.55-5.16m3.63-1.48a6.24 6.24 0 0 0 2.86 3.68 4.92 4.92 0 0 0 3.93.25 4.87 4.87 0 0 0 3-2.52 6.37 6.37 0 0 0 .07-4.71 5.92 5.92 0 0 0-2.62-3.8 5.73 5.73 0 0 0-7.34 2.44 6 6 0 0 0 .1 4.66M107.43 35l-4.29-16.6c1.25-.32 2.49-.62 3.74-.92q5.2 4.66 10 9.59-1.08-5.64-2.17-11.27 1.78-.35 3.6-.66l2.94 16.93c-1.19.2-2.37.42-3.55.65q-4.59-4.81-9.6-9.38 1.29 5.44 2.59 10.9c-1.09.25-2.18.52-3.26.76M125 31.46q-1.29-8.51-2.57-17c4.4-.67 8.83-1.18 13.26-1.54.08 1 .15 1.93.23 2.9q-4.62.37-9.22 1c.18 1.35.35 2.69.53 4 2.59-.33 5.18-.62 7.78-.84.09 1 .17 1.93.26 2.89-2.56.23-5.12.5-7.67.84l1 7.24c-1.23.16-2.42.33-3.6.51m14.91-1.61l-1.11-17.14c1.3-.09 2.61-.16 3.92-.22l.76 17.16c-1.19.06-2.38.12-3.57.2m6.53-17.49q3.59-.09 7.17 0a14.3 14.3 0 0 1 3.69.41 6.4 6.4 0 0 1 2.85 1.69 7.06 7.06 0 0 1 1.68 2.87 11.4 11.4 0 0 1 .38 4.09 11 11 0 0 1-.77 3.62 7.9 7.9 0 0 1-2.09 2.93 6.6 6.6 0 0 1-2.58 1.28 12 12 0 0 1-3.17.29h-6.73q-.21-8.59-.43-17.18m3.94 2.85c0 3.79 0 7.59.05 11.38h2.71a11 11 0 0 0 2.21-.13 3.6 3.6 0 0 0 1.49-.67 3.65 3.65 0 0 0 1-1.63 10.5 10.5 0 0 0 .5-3.13 9.4 9.4 0 0 0-.27-3.07 3.83 3.83 0 0 0-1-1.7 3.77 3.77 0 0 0-1.76-.85 17 17 0 0 0-3.17-.21zM164.73 30l1.32-17.13q7.2.56 14.34 1.65l-.39 2.87q-5.12-.78-10.26-1.28c-.13 1.26-.25 2.52-.37 3.79 3.12.3 6.25.69 9.36 1.15-.14.95-.29 1.91-.43 2.86-3.06-.45-6.14-.83-9.22-1.13l-.45 4.65q5 .5 10 1.26c-.14.95-.29 1.91-.44 2.86q-6.73-1.03-13.46-1.55m16.35 2q1.47-8.46 2.92-16.93c1.94.34 3.87.7 5.8 1.1q.55 6.09.91 12.17 2.88-5.35 6-10.64 2.88.7 5.75 1.49-2.3 8.28-4.57 16.56l-3.23-.86q1.67-6.54 3.34-13.1-3.53 6.08-6.78 12.27c-1.13-.27-2.25-.52-3.38-.76q-.31-7-.9-14l-2.55 13.28c-1.12-.16-2.21-.36-3.31-.58m25.1-11.7c1.27.37 2.53.76 3.79 1.17l-2.83 8.86a19 19 0 0 0-.75 2.78 2.84 2.84 0 0 0 .56 2 4.2 4.2 0 0 0 2.1 1.38 4 4 0 0 0 2.43.21 2.4 2.4 0 0 0 1.41-1.07 19 19 0 0 0 1.16-2.68q1.62-4.47 3.26-8.93c1.24.45 2.49.92 3.73 1.4l-3.27 8.42a21.5 21.5 0 0 1-1.87 4 4.8 4.8 0 0 1-1.8 1.62 5.6 5.6 0 0 1-2.48.57 10.2 10.2 0 0 1-3.43-.66 11 11 0 0 1-3.52-1.77 5.9 5.9 0 0 1-1.57-2 4.85 4.85 0 0 1-.43-2.12 19.6 19.6 0 0 1 .9-4.28zm13.45 17c1.17.36 2.34.73 3.5 1.11a4.12 4.12 0 0 0 .23 2.83 4.27 4.27 0 0 0 2.13 1.83 4.4 4.4 0 0 0 2.75.5 2.07 2.07 0 0 0 1.55-1.09 1.5 1.5 0 0 0 .1-1.11 3.2 3.2 0 0 0-.91-1.26c-.35-.31-1.16-1-2.46-2a11.65 11.65 0 0 1-3.27-3.29A4.37 4.37 0 0 1 223 31a4 4 0 0 1 1.72-1.94 5 5 0 0 1 3-.64 10.6 10.6 0 0 1 3.81 1 8.87 8.87 0 0 1 4.48 3.7 4.7 4.7 0 0 1 .07 4.26c-1.19-.55-2.39-1.08-3.59-1.6a2.8 2.8 0 0 0-.16-2.18 4.34 4.34 0 0 0-2-1.59 4.9 4.9 0 0 0-2.71-.53 1.21 1.21 0 0 0-1 .72 1.28 1.28 0 0 0 .11 1.19 11.5 11.5 0 0 0 2.66 2.61 17.9 17.9 0 0 1 3.24 2.91 5.1 5.1 0 0 1 1.11 2.5 4.73 4.73 0 0 1-.56 2.79 4.9 4.9 0 0 1-2 2.06 5.3 5.3 0 0 1-3.07.62 11.4 11.4 0 0 1-3.84-1.11 8.6 8.6 0 0 1-4.27-3.56 6.57 6.57 0 0 1-.37-4.91M32.69 314.69q4.68-7.63 9.35-15.26c1.11.68 2.23 1.35 3.35 2q-2 3.42-4 6.85 5.53-1.37 10.87-3c1.53.83 3.06 1.63 4.61 2.41q-4.79 1.49-9.75 2.74.82 6.68 2 13.42c-1.61-.81-3.22-1.65-4.82-2.5-.36-3.37-.66-6.73-.88-10.08-1.45.33-2.9.64-4.37.93l-2.74 4.67zM51 324.76l7.92-16.05c1.15.57 2.31 1.13 3.47 1.67l-7.62 16.2c-1.31-.58-2.56-1.2-3.77-1.82m7.44 3.52l7.26-16.19c1.17.52 2.35 1 3.52 1.54q-2.88 6.78-5.78 13.55 4.69 2 9.46 3.79l-1.05 2.82q-6.78-2.52-13.41-5.51m16.12 6.51L80.62 318q2.68 1 5.39 1.86-.29 6.33-.37 12.7 3.52-5.31 6.86-10.68 2.73.8 5.48 1.52-2.28 8.6-4.57 17.26c-1.23-.33-2.46-.66-3.69-1q1.92-6.78 3.83-13.56-3.75 6.27-7.72 12.42c-1.27-.38-2.53-.77-3.79-1.18q.22-7.32.7-14.6-2.28 6.66-4.55 13.33c-1.19-.42-2.42-.84-3.63-1.28m40.76 10.51c-1.46-.23-2.93-.48-4.39-.75q-.51-2.16-1-4.32-3.91-.74-7.81-1.62c-.83 1.2-1.68 2.4-2.53 3.59-1.42-.33-2.83-.68-4.24-1q6.06-7.7 11.53-15.66c1.3.28 2.6.55 3.91.81q1.95 9.47 4.53 18.95m-6.07-8.3c-.46-2.34-.9-4.69-1.3-7-1.3 2-2.61 4-4 5.95 1.79.37 3.54.74 5.3 1.05m8.23 8.64q1.33-8.85 2.68-17.69c2.62.39 5.24.74 7.86 1a15.5 15.5 0 0 1 4.28.92 4.4 4.4 0 0 1 2 1.9 5 5 0 0 1 .6 2.88 4.5 4.5 0 0 1-1.53 3.21 6.24 6.24 0 0 1-4 1.29 10 10 0 0 1 2 1.7 24 24 0 0 1 2 3.09c.72 1.23 1.45 2.45 2.19 3.67-1.63-.12-3.25-.25-4.88-.4q-1.29-2.07-2.53-4.16a27 27 0 0 0-1.81-2.84 3.1 3.1 0 0 0-1.09-.88 7.7 7.7 0 0 0-2-.45l-.79-.1-1 7.4c-1.28-.18-2.63-.34-3.98-.54m5.41-9.66l2.87.36a15 15 0 0 0 3.51.17 2.06 2.06 0 0 0 1.16-.65 2.16 2.16 0 0 0 .52-1.29 2.06 2.06 0 0 0-.37-1.51 2.38 2.38 0 0 0-1.36-.84c-.3-.07-1.23-.19-2.77-.37l-3-.37zm14.93 11.8l1.08-17.86c1.22.08 2.44.14 3.66.19q3.56 6.13 7.54 12.14 0-6 .08-11.95h3.49q.11 8.94.19 17.89h-4.1q-4-5.87-7.64-11.87l-.51 11.68c-1.26-.07-2.53-.14-3.79-.22m19.3-8.49a11.1 11.1 0 0 1 .75-4.62 8.9 8.9 0 0 1 1.68-2.51 7.6 7.6 0 0 1 2.35-1.71 11.3 11.3 0 0 1 4-.95 9.4 9.4 0 0 1 6.81 1.89 9.3 9.3 0 0 1 3.25 6.52 8.61 8.61 0 0 1-1.87 7 9.6 9.6 0 0 1-6.86 3 9.73 9.73 0 0 1-7.27-2 8.58 8.58 0 0 1-2.84-6.62m4-.27a6.2 6.2 0 0 0 1.76 4.53 5.25 5.25 0 0 0 4.05 1.33 5.18 5.18 0 0 0 3.82-1.86 6.3 6.3 0 0 0 1.09-4.78 6.48 6.48 0 0 0-1.84-4.44 5.63 5.63 0 0 0-7.62.54 6.53 6.53 0 0 0-1.22 4.66zm30.6-1.09c1.33.13 2.67.25 4 .35a7.58 7.58 0 0 1-2.1 4.85 9.17 9.17 0 0 1-5 2.34 8.9 8.9 0 0 1-6.9-1.43 8.6 8.6 0 0 1-3.37-6.28 9.57 9.57 0 0 1 1.56-7.2 8.84 8.84 0 0 1 5.92-3.39 8.4 8.4 0 0 1 5.85.92 7.3 7.3 0 0 1 2.55 2.86l-3.61 1.57a3.74 3.74 0 0 0-1.78-1.91 4.2 4.2 0 0 0-2.69-.36 4.54 4.54 0 0 0-3.17 1.94q-1.09 1.6-.65 4.77c.32 2.24 1 3.77 2 4.59a4.58 4.58 0 0 0 3.72.88 4.32 4.32 0 0 0 2.58-1.37 5.13 5.13 0 0 0 1.09-3.13m8.6 4.97l-3.84-17.48 3.69-.84c.61 2.57 1.23 5.15 1.84 7.73q2.94-4.79 5.57-9.65c1.64-.45 3.27-.93 4.9-1.42q-2.37 4.36-5 8.68 5.13 4.27 10.61 8.32-2.55.78-5.12 1.5-3.83-3.28-7.48-6.69-1.19 1.84-2.42 3.67.63 2.64 1.25 5.26c-1.32.32-2.66.63-4 .92m27.37-7.84l-6-16.86q6.1-2.16 12.09-4.72c.4.92.8 1.85 1.19 2.78q-4.29 1.83-8.63 3.46c.5 1.33 1 2.65 1.49 4q3.82-1.44 7.61-3l1.17 2.79q-3.84 1.62-7.71 3.07 1.33 3.57 2.68 7.12c-1.3.43-2.58.9-3.89 1.36m13.31-5.21l-1.35-3.15c1.2-.51 2.39-1 3.57-1.57l1.41 3.13c-1.21.54-2.41 1.07-3.63 1.59m16.05-15.09q2-.45 4-1a7.6 7.6 0 0 1-.57 5.3 9.53 9.53 0 0 1-4.2 3.86 9.27 9.27 0 0 1-7.15.85 8.53 8.53 0 0 1-5.13-4.87 9.5 9.5 0 0 1-.69-7.35 9.16 9.16 0 0 1 4.72-5.13 8.7 8.7 0 0 1 6-1 7.1 7.1 0 0 1 3.36 1.9c-1 .89-2 1.78-3 2.66a3.78 3.78 0 0 0-2.32-1.24 4.43 4.43 0 0 0-2.73.52 4.7 4.7 0 0 0-2.48 2.87q-.58 1.88.82 4.75c1 2 2.11 3.28 3.37 3.73a4.75 4.75 0 0 0 3.89-.36 4.47 4.47 0 0 0 2.09-2.14 5 5 0 0 0 .02-3.35m9.83 2l-1.74-3q1.71-1 3.39-2l1.8 2.93z" class="cls-2"/></g></g></svg>