<svg fill="none" viewBox="0 0 80 80" xmlns="http://www.w3.org/2000/svg" xmlns:xlink="http://www.w3.org/1999/xlink"><clipPath id="a"><path d="m2.222 0h75.74v80h-75.74z"/></clipPath><mask id="b" height="5" maskUnits="userSpaceOnUse" width="3" x="39" y="52"><path d="m39.052 53.922v2.985h2.076v-2.982c-.007-.49-.48-.952-1.04-.952-.558 0-1.027.46-1.036.95z" fill="#fff"/></mask><g clip-path="url(#a)"><path d="m35.327 14.078a26.36 26.36 0 0 0 -14.267 7.666h14.143a6.15 6.15 0 0 1 -1.274-3.754 6.15 6.15 0 0 1 1.4-3.912m23.804 7.666a26.35 26.35 0 0 0 -14.273-7.666 6.15 6.15 0 0 1 1.4 3.912 6 6 0 0 1 -1.274 3.754zm18.177 4.881-12.39 4.378a26.35 26.35 0 0 0 -5.773-9.248v22.228c0 15.984-15.38 21.544-18.444 22.359 10.733-.24 19.883-6.873 23.785-16.232 4.055 2.189 8.083 4.36 11.606 6.258-6.231 13.647-20.016 23.119-35.991 23.119s-29.773-9.474-36.002-23.126c3.137-1.697 7.264-3.927 11.6-6.273 3.893 9.37 13.048 16.012 23.785 16.254-3.067-.817-18.445-6.375-18.445-22.36v-22.22a26.35 26.35 0 0 0 -5.77 9.253l-12.392-4.377c5.486-15.242 20.091-26.127 37.217-26.127s31.722 10.876 37.212 26.114" fill="#007b3f"/><g fill="#fff"><path d="m40.095.51c17.121 0 31.723 10.877 37.213 26.115l-12.391 4.378a26.4 26.4 0 0 0 -5.773-9.248v22.228c0 15.984-15.38 21.544-18.444 22.359 10.732-.24 19.883-6.873 23.782-16.232 4.056 2.189 8.083 4.36 11.607 6.258-6.232 13.647-20.016 23.12-35.994 23.12-15.977 0-29.766-9.475-35.995-23.127 3.136-1.697 7.264-3.93 11.6-6.273 3.893 9.37 13.048 16.012 23.785 16.254-3.067-.817-18.445-6.375-18.445-22.36v-22.22a26.35 26.35 0 0 0 -5.77 9.252l-12.394-4.376c5.488-15.242 20.094-26.127 37.22-26.127zm4.89 21.234h14.148a26.35 26.35 0 0 0 -14.273-7.666 6.15 6.15 0 0 1 1.4 3.912 5.98 5.98 0 0 1 -1.274 3.754zm-9.658-7.666a26.36 26.36 0 0 0 -14.267 7.666h14.143a6.14 6.14 0 0 1 -1.274-3.754 6.15 6.15 0 0 1 1.4-3.912m4.766-14.078c-8.407 0-16.453 2.573-23.271 7.442a40.2 40.2 0 0 0 -8.633 8.372 39.8 39.8 0 0 0 -5.795 10.65l-.174.485.485.172 12.393 4.377.478.17.174-.476a25.7 25.7 0 0 1 4.778-8.112v20.905c0 3.765.845 7.25 2.51 10.363 1.371 2.563 3.306 4.884 5.747 6.899 2.386 1.97 4.853 3.321 6.81 4.201a25.9 25.9 0 0 1 -19.425-15.555l-.218-.524-.497.27-11.603 6.271-.419.228.198.435a40.07 40.07 0 0 0 14.527 16.9 39.9 39.9 0 0 0 21.933 6.527 39.93 39.93 0 0 0 21.93-6.525 40.1 40.1 0 0 0 14.529-16.892l.197-.435-.421-.228-11.607-6.258-.498-.27-.217.522c-3.425 8.225-10.813 14.024-19.425 15.537 1.957-.88 4.426-2.233 6.812-4.204 2.441-2.015 4.376-4.336 5.747-6.899 1.667-3.112 2.51-6.598 2.51-10.363v-20.911a25.6 25.6 0 0 1 4.78 8.107l.174.476.478-.17 12.391-4.377.485-.172-.174-.484a39.8 39.8 0 0 0 -5.797-10.646 40.2 40.2 0 0 0 -8.63-8.37c-6.814-4.868-14.86-7.438-23.263-7.438zm5.838 21.233c.55-.987.837-2.091.837-3.243a6.6 6.6 0 0 0 -.795-3.16 25.66 25.66 0 0 1 11.915 6.403zm-23.632 0a25.7 25.7 0 0 1 11.909-6.401 6.7 6.7 0 0 0 -.796 3.158c0 1.106.287 2.256.837 3.243h-11.952z"/><path d="m54.15 37.417c.48-.633.751-1.302.773-1.837h-1.98c0 .324-.374.59-.835.59h-4.216c-.461 0-.835-.264-.833-.607h-2.019c.017.537.296 1.215.787 1.854m0 0c.843 1.097 2.313 2.088 4.173 2.088s3.317-.993 4.15-2.09m-1.72-2.417c0 .139.113.25.25.25h3.006c.137 0 .25-.113.25-.25a.25.25 0 0 0 -.25-.25h-3.006a.25.25 0 0 0 -.25.25"/><path d="m49.935 31.663v4.193h.413v-4.169a5 5 0 0 0 -.368-.024h-.047zm2.743 2.181v.595h3.012l.322-1.326-.483.105-.165.847h-.428v-.717l-.374.083v.634h-.517v-.521l-.415.09v.431h-.52v-.315zm2.258-1.646v-2.486l-1.708.76 1.467.642v1.136z"/><path d="m46.914 27.895s.08.004.063.063c-1.463 2.543.378 4.799.378 4.799.406-.822 1.213-1.443 2.636-1.406.522.013.97.093 1.39.284 0 0 .81.261 1.749.959 0 0-.972-2.01-.518-4.002.572-2.501 1.913-3.275 2.537-3.751a.11.11 0 0 0 .054-.098.116.116 0 0 0 -.17-.102 620 620 0 0 1 -8.245 3.062s-.161.103.128.19m3.256-3.678c.206 0 .376-.109.376-.244 0-.134-.168-.243-.376-.243-.209 0-.376.109-.376.243 0 .135.167.244.376.244m5.631 11.237-.063.004c-.463 0-.839.53-.839 1.185 0 .243.046.517.135.706a1.6 1.6 0 0 0 -.37.07c-.85.28-.669 1.243-.669 1.243-.824-.11-1.808.598-1.808.598s.847-.157 1.74.304c0 0 .218-.489.564-.635 0 0-.355-.8.26-.878.153-.02.007 0 .007 0 .233-.015.222.074.222.074-.441.065-.376.437-.376.437a.49.49 0 0 0 .482.387c.098 0 .19-.028.267-.076.396-.333.34-.87.266-1.265l-.037-.187c-.079-.378-.19-.848-.146-1.08.05-.268.037-.537.037-.537s.009-.187.128-.157c0 0-.1.29.205.326a.256.256 0 0 0 .254-.258.256.256 0 0 0 -.254-.259m-8.242-.456a.25.25 0 0 0 -.253-.25h-3.005a.25.25 0 0 0 0 .5h3.005c.14 0 .253-.113.253-.25m-.248-.561v-.593l-.433-.094v.315h-.52v-.43l-.412-.091v.521h-.52v-.634l-.371-.083v.717h-.428l-.168-.847-.48-.105.322 1.324zm-1.918-7.899c1.77.598 2.207.618 2.553.148l-.07-.708a.67.67 0 0 0 -.478.082c-.12.065-.091.111-.091-.054s.276-.24 1.084-.267a4 4 0 0 1 1.537.284v.194l.415-.152v-1.461s-.276-.078-.856-.18c-1.091-.192-1.509.137-2.015.432-.507.293-.387.846-.387 1.204 0 .359.304.29.578.487.22.157-.033.18-.515-.02-.424-.173-.333-.588-.333-.588s-.376.028-.678-.057c-.302-.083-1.84-.526-2.382.056-.478.516-.33.824-.33 1.08.017-.004.27-1.056 1.967-.482m11.219 5.614a.2.2 0 0 0 -.078.013l-3.695.82a.25.25 0 0 0 -.215.25c0 .139.113.252.25.252a.3.3 0 0 0 .093-.015l3.66-.813a.252.252 0 0 0 -.015-.504m-9.502 1.33a.25.25 0 0 0 .252-.252c0-.107-.065-.2-.178-.242l-.037-.008-3.695-.82a.252.252 0 1 0 -.093.491l3.66.813a.2.2 0 0 0 .093.016m-1.684-1.201v-2.234l-1.709.763 1.467.64v.777zm-22.384 13.742c2.385-1.298 17.041-9.212 17.041-9.212s14.206 7.673 17.04 9.196c0 .69-.54 7.897-7.114 13.23-5.18 4.206-9.928 5.284-9.928 5.284s-4.721-1.047-9.898-5.266c-6.57-5.353-7.14-12.559-7.14-13.234"/></g><g mask="url(#a)"><path d="m29.82 59.563 2.864-2.028v1.912l1.852-1.069v2.332l4.43-3.175h2.249l4.43 3.175v-2.332l1.849 1.07v-1.913s2.539 1.621 2.795 1.902c-.043.293-8.99 5.572-10.196 5.522-4.062-.945-10.276-5.396-10.276-5.396" fill="#007b3f"/></g><path d="m36.503 50.723h7.174v6.497h-1.932v-3.304c-.01-.859-.793-1.56-1.656-1.56s-1.645.71-1.656 1.566v3.298h-1.93zm-.303-1.915h-3.514v1.604h3.515zm0-2.656v2.343h-3.514v-2.343h.798v.893h.54v-.893h.29v-.735h-2.287l.815-.693-.815-.691h2.543v2.12h.292v.892h.54v-.893zm0 9.457h-3.514v1.61h3.515zm0-4.886h-3.514v4.573h3.515zm11.296-1.915h-3.514v1.604h3.514zm0-2.656v2.343h-3.514v-2.343h.797v.893h.54v-.893h.29v-.735h-2.286l.815-.693-.815-.691h2.543v2.12h.291v.892h.54v-.893zm0 9.457h-3.514v1.61h3.514zm0-4.886h-3.514v4.573h3.514zm-3.819-1.111v.8h-7.174v-1.604h1.19v.804h.835v-.804h1.113v.804h.898v-.804h1.115v.804h.832v-.804h1.191zm-10.667 7.92h5.468l-3.619 2.53v-2.251l-1.85 1.07v-1.349zm8.694 0h5.468v1.348l-1.851-1.07v2.252zm-3.369-15.572h.797v.893h.54v-.894h.29v-.732h-2.286l.815-.693-.815-.694h2.543v2.12h.291v.893h.542v-.894h.797v3.304h-3.514zm3.515 3.607h-3.515v2.928h3.514z" fill="#007b3f"/><path d="m41.44 53.92v3.3h-2.703v-3.297c.01-.674.633-1.263 1.352-1.263s1.341.584 1.352 1.26z" fill="#007b3f"/><path d="m38.887 62.542h2.404v-.584h-2.404zm0-1.252h2.404v-.584h-2.404zm0-1.252h2.404v-.582h-2.404zm0-1.252h2.404v-.582h-2.404z" fill="#fff"/><path d="m41.128 56.907h-2.076v-2.984c.01-.487.478-.95 1.037-.95s1.03.463 1.039.952z" fill="#007b3f"/><g fill="#fff"><g mask="url(#b)"><path d="m39.628 53.318h.341v-.339h-.341v.34zm.58 0h.342v-.339h-.342v.34zm-.821.259h-.452v.339h.452v-.34zm.24.339h.342v-.34h-.341zm.581 0h.342v-.34h-.342zm.583 0h.498v-.34h-.498zm-1.404 2.652h-.476v.413h.476zm.24.413h.342v-.413h-.341zm.581 0h.342v-.413h-.342zm.583 0h.498v-.413h-.498zm-1.404-1.013h-.452v.339h.452v-.34zm.24.339h.342v-.34h-.341zm.581 0h.342v-.34h-.342zm.583 0h.498v-.34h-.498zm-1.404-.937h-.452v.34h.452zm.24.34h.342v-.34h-.341zm.581 0h.342v-.34h-.342zm.583 0h.498v-.34h-.498zm-1.404-.938h-.452v.34h.452zm.24.34h.342v-.34h-.341zm.581 0h.342v-.34h-.342zm.583 0h.498v-.34h-.498zm-1.404-.937h-.452v.339h.452zm.24.339h.342v-.34h-.341zm.581 0h.342v-.34h-.342zm.583 0h.498v-.34h-.498zm-1.404-1.407h-.233v.211h.233zm1.639 0h-.235v.211h.235z"/></g><path d="m34.081 52.244v1.896h.722v-1.9a.36.36 0 0 0 -.722.004m11.296 0v1.896h.724v-1.9a.36.36 0 0 0 -.722.004m-19.189-15.421v-.037s-.005.127 0 .037m3.488 1.413s-.128.274-.224.444c-.094.167-.256.417-.256.417s.363.065.675-.078c.279-.126.518-.437.518-.437s-.235-.048-.372-.113c-.145-.07-.341-.233-.341-.233m-.518-1.504s-.432-.204-.982-.674a6.4 6.4 0 0 1 -2.071-3.39c-.626-2.589.634-4.645.634-4.645s-.334-.06-.543-.12c-.165-.045-.417-.136-.417-.136s-.055.089-.209.308c.34.278.409.687.243 1.091a6.26 6.26 0 0 0 -.354 3.65c.22 1.073.502 1.688 1.172 2.556.187.282.38.495.545.686q.086.099.161.19c.244.293.402.669-.056 1.128 0 0 .132.184.226.293 0 0 .33.022.528.226.26.267.184.524.184.524a.84.84 0 0 0 -.736-.457.808.808 0 0 0 -.47 1.467c1.324.92 2.145-.75 2.513-1.595s-.367-1.104-.367-1.104"/><path d="m30.173 39.22c-.445.31-1.154.181-1.154.181s.746.487 1.637.128c.648-.26.96-.915.96-.915h-.906s-.278.429-.539.607m.429-11.707 1.695 4.48.226-.357-1.59-4.238-.332.115zm-.794.246 1.935 5.108.226-.357-1.822-4.845zm3.852 2.09-1.133-3.033-.33.115 1.236 3.273zm-4.669-1.905 2.197 5.794.226-.356-2.073-5.506z"/><path d="m26.163 27.538s.92.459 3.128 0c2.132-.443 4.162-1.802 5.836-1.417a.668.668 0 0 1 1.226.159c.028.102-.042.128-.042.128a.52.52 0 0 0 -.497-.391.502.502 0 0 0 -.494.582c.994.111 1.348.535 1.348.535.697-.717.293-1.841-1.215-2.263-1.509-.423-2.693.183-4.93.24-2.188.054-3.734-.68-3.734-.68s.313 1.803-.626 3.107m9.427.409s-.318-.128-.52-.091c-.213.036-.474.289-.474.289l-.804 1.171.213.572-3.923 6.172-.085.135-.05-.135-.276-.732-.51.732-.22.313s.641.16.809.498c.186.376.312.815.102 1.085.134.098.382.267.382.267l1.128-2.163 4.23-8.113z"/><path d="m31.412 27.22 1.463 3.861.226-.356-1.36-3.624-.329.12zm4.393.873-4.14 7.965-1.14 2.193h2.133s.332-.928.789-2.193c.915-2.534 2.325-6.418 2.558-6.894a.86.86 0 0 0 -.198-1.072m-9.427 7.464c-.693-.902-.993-1.558-1.223-2.675a6.5 6.5 0 0 1 0-2.617c-.044-.267-.122-.58-.304-.763-.059.167-.652 1.947-.42 3.39.248 1.533 1.887 3.363 1.872 3.341.047-.108.16-.447.073-.673m1.742-7.497 2.495 6.575.226-.354-2.359-6.256-.363.035z"/><path d="m35.933 27.004c-.724-.33-1.213-.02-1.337.271a.76.76 0 0 0 0 .548s.098-.124.285-.202.565-.057.867.098c.279.14.487.38.557.571.07.192.093.33.093.33s.278-.097.4-.373c.126-.29.022-.84-.867-1.243m-8.685 9.669a2 2 0 0 0 -.226-.32l-.04-.045-.113-.128-.213-.263s-.106.287-.206.428c-.163.229-.252.318-.257.455v.026a.54.54 0 0 0 .537.495c.118 0 .23-.06.324-.143l.061-.066.043-.045.055-.076a.41.41 0 0 0 .035-.317zm.021-8.589 2.802 7.414.226-.357-2.654-7.057zm-1.375-.633c.345-.539.445-.75.593-1.532.224-1.189-.074-1.741-.074-1.741-.415.16-1.72 2.367-1.72 2.367.01.065.533.606 1.2.906zm-.576 2.193q.095-.313.213-.595c.108-.263.076-.498-.087-.67-.109-.113-.309-.132-.394-.132-.247 0-.45.215-.45.48q-.001.038.005.072c.095.387.458.26.713.848"/><path d="m43.095 23.02a5.83 5.83 0 0 1 -3.004.828 5.83 5.83 0 0 1 -3.004-.828h-14.773v20.963c0 16.608 17.584 21.196 17.775 21.196s17.775-4.588 17.775-21.196v-20.963h-14.771zm-3.005-10.888a5.859 5.859 0 0 1 3.876 10.25h14.536v21.603c0 17.02-17.958 21.846-18.414 21.846s-18.412-4.823-18.412-21.846v-21.602h14.539a5.857 5.857 0 0 1 3.875-10.25z"/></g><path d="m40.091 65.998c-.252 0-4.91-1.223-9.476-4.573-4.154-3.045-9.105-8.544-9.105-17.442v-21.772h14.282a6.04 6.04 0 0 1 -1.724-4.22 6.034 6.034 0 0 1 6.027-6.028 6.034 6.034 0 0 1 6.028 6.027 6.03 6.03 0 0 1 -1.726 4.221h14.28v21.772c0 8.898-4.952 14.397-9.105 17.442-4.567 3.35-9.227 4.573-9.479 4.573m-18.243-43.446v21.431c0 8.72 4.838 14.121 8.898 17.118 4.443 3.278 8.964 4.52 9.344 4.556.38-.037 4.901-1.276 9.346-4.556 4.06-2.995 8.898-8.398 8.898-17.118v-21.43h-14.816l.337-.299a5.7 5.7 0 0 0 1.923-4.264 5.695 5.695 0 0 0 -5.688-5.688 5.693 5.693 0 0 0 -5.686 5.688c0 1.63.702 3.184 1.924 4.265l.337.297h-14.82z" fill="#007b3f"/><path d="m45.342 17.99a5.244 5.244 0 0 1 -5.244 5.245 5.244 5.244 0 0 1 -5.245-5.245 5.244 5.244 0 0 1 5.245-5.245 5.244 5.244 0 0 1 5.244 5.245m-.32 0a4.9 4.9 0 0 0 -.977-2.945.4.4 0 0 0 -.076.083c.456.628 1.193 2.377.826 4.349.147-.47.228-.968.228-1.485m-1.174-3.19a4.95 4.95 0 0 0 -1.93-1.385c-.035.28-.035.591-.065.88-.048.44-.124.954-.274 1.32.73.089 1.348.254 1.713.47.082-.396.248-1.029.554-1.285m-2.226-1.498a5.1 5.1 0 0 0 -1.523-.235 4.9 4.9 0 0 0 -2 .424c.022.22.376 1.135 1.072 2.121a10.4 10.4 0 0 1 2.078-.03c.28-.55.3-1.641.373-2.276zm-3.81.328a4.9 4.9 0 0 0 -1.578 1.31c.252.203.709.657 1.02 1.144a6.8 6.8 0 0 1 1.56-.422c-.506-.75-.906-1.562-1.002-2.032m-1.767 1.568a4.9 4.9 0 0 0 -.87 2.795c0 .972.281 1.876.768 2.64-1.022-2.207-.248-4.698.109-5.433l-.005-.004zm2.695 7.53q.65.186 1.359.188a4.9 4.9 0 0 0 1.325-.18 1.7 1.7 0 0 0 -.189-.813c-.778.074-1.601.052-2.327-.046-.213.357-.255.602-.17.85m3.004-.091a4.95 4.95 0 0 0 1.917-1.243 1.4 1.4 0 0 0 -.148-.133c-.502.326-1.189.524-1.94.626.123.28.166.548.173.752m1.471-6.218c-.81-.591-4.02-.872-5.96.017-.114.052-.26.591-.358 1.287 1.526-.51 5.393-.596 6.705-.137-.08-.58-.21-1.039-.386-1.167zm.46 3.25c-1.837.753-5.226.64-6.876.086.035.51.13.946.316 1.185.558.717 4.577 1.123 6.207.063.193-.126.309-.668.352-1.337m-6.89-.256c1.578.586 5.162.704 6.907-.1.014-.448-.004-.928-.045-1.368-.946-.497-5.377-.447-6.792.133-.048.43-.076.898-.068 1.332m7.073 1.704c1.334-2.343.502-4.766-.05-5.653-.13.346-.22.78-.24.891.507.857.622 3.689.146 4.65a1 1 0 0 1 .146.112m-7.316-.05q.086-.047.154-.082l.057-.026c-.526-1.07-.24-4.015.237-4.688a5 5 0 0 0 -.694-.84c-.382.86-1.117 3.515.246 5.636m.402.16c-.13.053-.258.134-.391.188a4.9 4.9 0 0 0 1.832 1.2c-.032-.254.035-.506.185-.785-.74-.128-1.341-.339-1.626-.604zm-32.624 23.328a78 78 0 0 1 4.297 0v-.278c-.618-.02-1.048-.18-1.217-.37-.34-.378-.34-1.286-.34-2.812v-1.495c0-.737.011-1.407.07-2.015-.678.02-1.306.03-1.895.03-.32 0-.628 0-.917-.01v.278c.767.039 1.217.239 1.345.589.16.42.17 1.286.17 2.593v.967c0 .967-.03 1.576-.279 1.873-.189.22-.617.37-1.236.37v.278z" fill="#007b3f"/><path d="m7.134 37.582c-.06.609-.07 1.276-.07 2.015v1.495c0 1.526 0 2.432.34 2.813.17.189.597.35 1.217.37v.277a79 79 0 0 0 -4.297 0v-.278c.62 0 1.048-.15 1.237-.37.25-.3.278-.906.278-1.873v-.967c0-1.306-.009-2.174-.17-2.593-.13-.348-.578-.548-1.345-.59v-.277c.289.01.598.01.917.01.59 0 1.217-.01 1.895-.03m.379-.352-.387.01c-.685.02-1.3.031-1.885.031-.32 0-.621 0-.906-.01l-.352-.014v.957l.324.017c.589.03.97.165 1.043.367.137.361.148 1.215.148 2.474v.967c0 .746-.015 1.435-.2 1.656-.096.111-.413.246-.974.246h-.341v.97l.35-.01a79 79 0 0 1 4.28 0l.35.01v-.96l-.331-.01c-.563-.017-.891-.163-.974-.254-.252-.283-.252-1.248-.252-2.585v-1.494c0-.774.011-1.406.067-1.98l.04-.385v-.002z" fill="#fff"/><path d="m12.116 40.673c.967-.398 1.445-.968 1.445-1.654 0-.928-.808-1.596-2.184-1.596s-2.243.718-2.243 1.776c0 .728.459 1.298 1.415 1.885-1.078.489-1.595 1.058-1.595 1.875 0 1.048.867 1.735 2.362 1.735s2.463-.79 2.463-1.915c0-.74-.559-1.396-1.665-2.104m-1.276.589.628.408c.609.39.957.959.957 1.526 0 .698-.4 1.157-.909 1.157-.678 0-1.248-.64-1.248-1.546 0-.597.2-1.126.57-1.545m1.047-.737-.628-.439c-.567-.4-.856-.848-.856-1.297 0-.56.409-1.007.909-1.007.547 0 .967.548.967 1.367q0 .672-.39 1.376" fill="#007b3f"/><path d="m11.379 37.421c1.376 0 2.184.667 2.184 1.596 0 .688-.478 1.256-1.445 1.653 1.106.71 1.665 1.368 1.665 2.105 0 1.125-.917 1.914-2.463 1.914-1.545 0-2.362-.689-2.362-1.736 0-.818.517-1.387 1.595-1.876-.956-.587-1.415-1.156-1.415-1.884 0-1.057.878-1.776 2.243-1.776m.509 3.101q.388-.705.389-1.375c0-.818-.42-1.368-.967-1.368-.498 0-.909.45-.909 1.007 0 .45.29.897.859 1.295l.628.44zm-.37 3.83c.509 0 .909-.459.909-1.156 0-.568-.35-1.137-.957-1.526l-.628-.409c-.37.42-.57.948-.57 1.546 0 .908.57 1.545 1.249 1.545m-.14-7.27c-1.545 0-2.584.85-2.584 2.115 0 .697.34 1.28 1.089 1.843-.641.373-1.267.956-1.267 1.914 0 1.261 1.06 2.076 2.704 2.076 1.643 0 2.804-.906 2.804-2.256 0-.728-.416-1.378-1.335-2.056.906-.535 1.115-1.202 1.115-1.702 0-1.158-1.015-1.936-2.526-1.936m.376 2.934-.3-.209c-.323-.228-.713-.589-.713-1.017 0-.367.255-.667.568-.667.363 0 .626.43.626 1.026q0 .422-.18.867zm-.234 3.997c-.518 0-.907-.517-.907-1.204 0-.4.107-.772.309-1.087l.363.237c.504.322.802.784.802 1.239 0 .48-.233.815-.567.815" fill="#fff"/><path d="m66.999 44.691a182 182 0 0 1 1.495-2.773l2.324-4.158-.12-.158q-1.21.03-2.362.03c-.768 0-1.507-.009-2.233-.03-.13.589-.32 1.317-.547 2.204l.239.089c.189-.4.358-.698.578-.887.25-.22.67-.24 1.297-.24h2.154l-3.59 5.923h.766z" fill="#007b3f"/><path d="m70.698 37.602.12.158-2.324 4.158c-.27.478-.767 1.406-1.495 2.773h-.767l3.59-5.922h-2.154c-.628 0-1.047.02-1.297.239-.22.189-.39.489-.578.887l-.24-.09c.231-.886.42-1.614.55-2.203.729.02 1.466.03 2.233.03q1.152 0 2.362-.03m-4.868-.348-.061.276a68 68 0 0 1 -.518 2.084l-.028.107-.076.298.287.108.24.09.293.11.134-.282c.146-.307.307-.616.494-.776.165-.144.567-.157 1.073-.157h1.548l-3.275 5.406-.313.517h1.578l.095-.18a151 151 0 0 1 1.493-2.765l2.324-4.158.109-.194-.133-.178-.12-.158-.106-.142-.176.005c-.796.02-1.587.03-2.354.03s-1.498-.009-2.224-.03l-.28-.009z" fill="#fff"/><path d="m71.016 41.6c.408-.23.847-.338 1.336-.338 1.098 0 1.704.597 1.704 1.595 0 .878-.458 1.476-1.087 1.476-.558 0-.947-.409-.947-1.009q0-.194.059-.42a.95.95 0 0 0 -.648-.238c-.478 0-.759.28-.759.728 0 .756.737 1.295 1.993 1.295 1.607 0 2.683-.986 2.683-2.343 0-1.236-.987-2.143-2.683-2.143-.378 0-.778.061-1.175.17l.22-1.626c.249-.01.497-.01.758-.01q1.081 0 2.204.06l.45-1.695-.22-.07c-.278.528-.548.57-1.076.57h-2.413l-.489 3.958zm0 0v.002z" fill="#007b3f"/><path d="m74.904 37.034.22.07-.45 1.695a42 42 0 0 0 -2.204-.06c-.259 0-.509 0-.759.01l-.22 1.626c.4-.109.798-.17 1.176-.17 1.696 0 2.683.909 2.683 2.143 0 1.357-1.076 2.343-2.683 2.343-1.256 0-1.993-.538-1.993-1.295 0-.45.28-.728.759-.728.239 0 .45.07.647.239q-.058.226-.058.417c0 .598.389 1.009.947 1.009.629 0 1.087-.598 1.087-1.476 0-.998-.608-1.595-1.704-1.595-.489 0-.928.108-1.337.339l-.089-.04.49-3.957h2.412c.528 0 .798-.04 1.076-.568m-.167-.41-.133.252c-.196.371-.313.387-.776.387h-2.715l-.037.3-.489 3.958-.03.25.23.102.09.039.156.07.15-.086a2.34 2.34 0 0 1 1.17-.295c.62 0 1.362.217 1.362 1.254 0 .667-.306 1.135-.746 1.135-.373 0-.606-.255-.606-.668q0-.15.048-.33l.056-.209-.163-.139a1.3 1.3 0 0 0 -.869-.322c-.656 0-1.098.43-1.098 1.07 0 .995.918 1.637 2.335 1.637 1.78 0 3.023-1.105 3.023-2.685 0-1.486-1.215-2.484-3.023-2.484q-.373 0-.774.07l.115-.852q.224-.004.459-.003c.708 0 1.445.02 2.186.059l.276.015.072-.267.45-1.695.083-.313-.31-.098-.219-.07-.271-.087zm-60.717-16.241a23 23 0 0 0 -.839 1.217q-.202.31-.393.626l.456.313a42 42 0 0 0 2.24 1.441 3 3 0 0 0 -.219.285l-.247.36-.248.362a3 3 0 0 0 -.187.306 43 43 0 0 0 -.98-.743 45 45 0 0 0 -1.172-.826l-1.089-.748a42 42 0 0 0 -2.265-1.456 7 7 0 0 0 .724-1q.098-.169.176-.315.493.397.993.759.502.36 1.165.817a57 57 0 0 0 .856-1.217q.299-.433.481-.709.182-.274.335-.513a46 46 0 0 0 -1.185-.789 49 49 0 0 0 -1.063-.658 7 7 0 0 0 .724-1q.098-.17.176-.315a41 41 0 0 0 2.176 1.584l1.089.748a41 41 0 0 0 2.24 1.44 3 3 0 0 0 -.219.286l-.248.36-.247.361a3 3 0 0 0 -.187.309 43 43 0 0 0 -.98-.744 45 45 0 0 0 -1.172-.825l-.456-.313q-.218.299-.437.595m2.575-6.21a37 37 0 0 0 -.884-.897q.136-.095.289-.215a6 6 0 0 0 .65-.583q.134-.14.245-.265a43 43 0 0 0 1.741 2.056l.883.985a37 37 0 0 0 1.837 1.93 3 3 0 0 0 -.281.226q-.144.13-.326.291a20 20 0 0 1 -.326.291 3 3 0 0 0 -.254.255 36 36 0 0 0 -.779-.955q-.404-.48-.943-1.08l-.882-.982q-.538-.6-.972-1.054m4.575-3.674a40 40 0 0 0 -.68-1.06q.152-.066.328-.148.176-.085.387-.204.362-.207.748-.455.385-.248.747-.454a3.6 3.6 0 0 1 .735-.32q.355-.101.672-.076.315.027.582.205.264.18.461.526.2.345.196.676c0 .221-.042.426-.115.615q-.115.283-.303.513a3 3 0 0 1 -.363.376l.01.017q.198-.1.503-.172.307-.067.64-.034.331.035.647.206.317.172.533.552.26.456.278.87a1.7 1.7 0 0 1 -.14.773q-.158.36-.465.642a4 4 0 0 1 -.686.497q-.336.191-.633.35a21 21 0 0 0 -.615.34l-.467.267q-.241.137-.374.234a35 35 0 0 0 -1.243-2.356l-.654-1.147a45 45 0 0 0 -.729-1.235m2.559-1.471a.9.9 0 0 0 -.335-.224.9.9 0 0 0 -.398-.052q-.216.016-.467.16a6 6 0 0 0 -.255.153q-.068.045-.143.11.161.322.337.648.172.325.3.546.131.227.252.432.124.206.248.424l.38-.217a1.1 1.1 0 0 0 .507-.641 1.1 1.1 0 0 0 .028-.459 1.4 1.4 0 0 0 -.185-.522 2 2 0 0 0 -.265-.358m1.11 2.319q-.43-.141-.938.15a4 4 0 0 0 -.2.12 3 3 0 0 1 -.159.095q.1.176.204.37l.253.454q.114.201.24.41a50 50 0 0 1 .457.78q.101.167.163.277a5 5 0 0 0 .226-.113q.105-.053.248-.135a.98.98 0 0 0 .478-.67 1.3 1.3 0 0 0 0-.473 1.7 1.7 0 0 0 -.204-.533q-.335-.59-.77-.73m3.993-4.577q-.19-.597-.4-1.194c.283-.074.56-.145.84-.213q.416-.1.836-.221.69-.2 1.224-.37.532-.169.712-.243a1.7 1.7 0 0 0 .077.402q.042.15.078.23.033.082.082.178-.276.06-.602.135l-.636.144a19 19 0 0 0 -.902.221q.11.525.252 1.03.14.505.29 1.02.604-.187 1.09-.346.484-.16 1.008-.343a2 2 0 0 0 .074.435q.023.075.059.15.037.075.1.22-1.088.224-2.143.53a187 187 0 0 1 .339 1.197q.175.607.367 1.159a22 22 0 0 0 1.057-.337q.524-.183 1.045-.405a2 2 0 0 0 .085.433q.043.15.076.23a.7.7 0 0 0 .07.133 41 41 0 0 0 -1.639.455q-.57.166-.924.266-.345.102-.554.161-.21.061-.316.096-.105.036-.178.067a43 43 0 0 0 -.676-2.575l-.37-1.27q-.225-.775-.414-1.371m9.024.589.017.398q.036.806.085 1.43.048.626.115 1.226a3 3 0 0 0 -.36-.002l-.437.02-.437.019q-.195.008-.359.037a33 33 0 0 0 0-1.23 44 44 0 0 0 -.048-1.433l-.06-1.32a41 41 0 0 0 -.202-2.684 6 6 0 0 0 .798.01 9 9 0 0 0 .595-.05c.221-.027.5-.049.828-.064q.368-.016.632-.01.263.007.454.036a1.5 1.5 0 0 1 .609.226q.301.2.485.507t.204.745q.033.708-.335 1.174-.368.464-1.087.682.506.804 1.076 1.6.571.795 1.144 1.576a5 5 0 0 0 -.437 0l-.437.02q-.223.009-.441.02a5 5 0 0 0 -.442.038l-1.877-2.977-.087.005.004.002zm1.332-2.532a.77.77 0 0 0 -.284-.372 1 1 0 0 0 -.474-.148 5 5 0 0 0 -.687-.006q.032 1.32.093 2.64.059.009.113.01h.103q.64-.03.965-.39t.29-1.058q-.017-.427-.119-.676m6.034-.061q.087-.45.159-.791.254.111.413.148.16.038.437.054a545 545 0 0 0 3.025 5.48l.198-.822.22-.917q.11-.463.212-.913t.19-.828q.084-.38.136-.657a3 3 0 0 0 .055-.376q.254.111.413.148.16.038.437.054a109 109 0 0 0 -1.124 4.043q-.148.6-.31 1.28l-.273 1.135a4 4 0 0 0 -.382-.111 3 3 0 0 0 -.374-.07 123 123 0 0 0 -3.039-5.553 41 41 0 0 0 -.284 1.102l-.263 1.096a60 60 0 0 0 -.372 1.638l-.09.455-.047.282a2 2 0 0 0 -.222-.074l-.217-.052a5 5 0 0 0 -.439-.085 6 6 0 0 0 .176-.528 93 93 0 0 0 .733-2.547q.209-.773.382-1.491.156-.652.244-1.102m9.598 3.571q.266-.566.52-1.148.139.092.303.194a6.6 6.6 0 0 0 1.115.528 43 43 0 0 0 -1.289 2.365l-.6 1.178q-.365.72-.632 1.286-.267.568-.506 1.122a3 3 0 0 0 -.31-.18q-.175-.09-.39-.198l-.39-.198a3 3 0 0 0 -.327-.146q.307-.518.608-1.069c.301-.551.424-.789.668-1.27l.6-1.177q.365-.72.632-1.287m5.879 10.611a5 5 0 0 0 -.328-.296l-.317-.263-.318-.263a4 4 0 0 0 -.33-.247l.372-.955q.188-.486.363-.986l-.47-.409a28 28 0 0 0 -1.267-1.028 23 23 0 0 0 -1.76 1.091 2 2 0 0 0 -.164-.16q-.084-.072-.176-.146a6 6 0 0 0 -.18-.148 2 2 0 0 0 -.206-.146 61 61 0 0 0 1.658-.848l1.156-.612 1.246-.668 1.234-.67q.607-.328 1.124-.62.062.078.12.143a1.3 1.3 0 0 0 .284.234q.078.045.165.092-.286.834-.615 1.786a112 112 0 0 0 -1.187 3.658 23 23 0 0 0 -.4 1.46m.44-5.928a40 40 0 0 0 -2.176 1.202l1.37 1.132.414-1.165q.201-.572.394-1.17m5.972 4.426q.369-.27.655-.474.11.254.202.39.09.136.285.336a505 505 0 0 0 -1.494 6.08l.702-.47.783-.526a96 96 0 0 0 1.476-1.009q.32-.22.545-.389.226-.17.296-.239.11.255.202.391.092.138.285.337-.761.452-1.372.826-.61.374-1.145.709-.535.336-1.05.676t-1.096.728l-.969.65a4 4 0 0 0 -.204-.341 3 3 0 0 0 -.228-.305q.822-2.96 1.534-6.14a35 35 0 0 0 -.954.617l-.937.628q-.484.327-.821.557a41 41 0 0 0 -.566.395q-.228.165-.371.274-.145.108-.226.176a1.3 1.3 0 0 0 -.113-.204l-.124-.185a5 5 0 0 0 -.265-.36q.075-.029.487-.268a82 82 0 0 0 2.267-1.372q.679-.425 1.293-.836.557-.373.926-.643m-51.858 40.529q.467-.404.926-.822.264.338.515.676.25.337.524.67.447.546.806.963.36.414.496.552-.143.068-.335.223a2.3 2.3 0 0 0 -.308.303l-.355-.494q-.194-.266-.376-.52a32 32 0 0 0 -.547-.73 16 16 0 0 0 -.833.627l-.808.654a52 52 0 0 0 1.432 1.628 5 5 0 0 0 -.217.128 1.1 1.1 0 0 0 -.259.217q-.055.062-.16.174a27 27 0 0 0 -1.307-1.73l-.476.383q-.24.19-.476.382-.48.394-.904.778.345.42.71.824.367.405.77.789a3 3 0 0 0 -.165.098q-.073.047-.192.143a2 2 0 0 0 -.178.159.7.7 0 0 0 -.093.113 27 27 0 0 0 -.391-.5 63 63 0 0 0 -.653-.804c-.245-.3-.445-.546-.6-.73l-.358-.44a8 8 0 0 0 -.209-.247 2 2 0 0 0 -.128-.135 42 42 0 0 0 2.067-1.604l1.004-.822q.615-.502 1.078-.904m3.354 3.981q.369-.491.728-1.001a6 6 0 0 0 .58.528q.244.195.567.424.32.225.813.62.642.51 1.074 1.049.434.535.593 1.117.16.58-.004 1.213-.163.634-.73 1.341-.496.619-1.1.954a3.3 3.3 0 0 1 -1.241.407 3.1 3.1 0 0 1 -1.252-.115 3.4 3.4 0 0 1 -1.143-.611 69 69 0 0 1 -.948-.772 44 44 0 0 0 -.68-.556l-.335-.268a3 3 0 0 0 -.287-.206 42 42 0 0 0 .8-.906q.4-.47.896-1.087l.812-1.013q.496-.619.865-1.11m-1.01 3.55-.359.448q-.173.216-.313.398l-.18.235q.105.097.256.23.151.134.383.318.84.675 1.793.495c.953-.18 1.26-.567 1.882-1.343q.369-.462.54-.926a2.4 2.4 0 0 0 .151-.9 1.9 1.9 0 0 0 -.22-.823 2.25 2.25 0 0 0 -.588-.7 7 7 0 0 0 -.446-.337q-.176-.123-.358-.246l-.19.228q-.146.176-.326.4l-.358.446-.298.372-1.063 1.325-.304.38zm7.355 1.032q.273-.553.533-1.118a7 7 0 0 0 .667.41q.211.114.387.19.176.078.326.137a38 38 0 0 0 -.633 1.063 47 47 0 0 0 -.68 1.232l-.613 1.145q-.374.7-.648 1.25-.273.552-.52 1.091a3 3 0 0 0 -.301-.184 73 73 0 0 0 -.757-.405q-.17-.09-.321-.15a39 39 0 0 0 1.3-2.269l.612-1.145q.375-.7.648-1.25m3.334 1.278q.116-.434.213-.765.24.127.396.176.153.048.424.085a537 537 0 0 0 2.577 5.581l.25-.791.28-.882.274-.88.244-.8q.112-.365.18-.635.07-.267.08-.365c.162.084.292.14.396.176q.156.048.424.085a127 127 0 0 0 -.993 2.719q-.205.585-.393 1.162-.189.578-.396 1.233l-.346 1.09a5 5 0 0 0 -.367-.136 3 3 0 0 0 -.36-.094 122 122 0 0 0 -2.585-5.655 26 26 0 0 0 -.354 1.059l-.335 1.056a55 55 0 0 0 -.48 1.58l-.12.439a8 8 0 0 0 -.067.274 1.3 1.3 0 0 0 -.213-.087l-.209-.065a6 6 0 0 0 -.424-.115 5 5 0 0 0 .211-.505 79 79 0 0 0 .9-2.445q.26-.743.48-1.434.199-.629.315-1.061m7.238 2.432q.027-.615.035-1.237a7 7 0 0 0 .776.109q.409.033.858.046t.859.045q.427.035.774.148.345.114.587.31.24.196.358.49.114.293.085.682a1.33 1.33 0 0 1 -.217.659 1.6 1.6 0 0 1 -.435.435q-.248.165-.53.25a2.7 2.7 0 0 1 -.505.102v.02q.215.026.505.14.287.115.536.327.252.211.411.526.161.312.126.743-.042.515-.256.86a1.7 1.7 0 0 1 -.541.55 1.9 1.9 0 0 1 -.733.261q-.407.059-.832.024a22 22 0 0 1 -.707-.067 25 25 0 0 0 -.687-.065l-.526-.044a4 4 0 0 0 -.432-.015q.09-.587.16-1.198.072-.612.136-1.401l.104-1.294a36 36 0 0 0 .091-1.406m2.508 2.721q-.272-.352-.845-.397a6 6 0 0 0 -.228-.013 2 2 0 0 1 -.18-.011q-.018.199-.04.413c-.015.14-.03.313-.045.508q-.02.229-.033.468-.014.238-.033.467a12 12 0 0 0 -.028.42 9 9 0 0 1 -.02.314q.134.021.246.035.114.015.276.026a.96.96 0 0 0 .759-.28q.156-.156.26-.387.105-.232.13-.546.056-.665-.219-1.019m.383-2.497a.9.9 0 0 0 -.148-.368.9.9 0 0 0 -.295-.263 1.1 1.1 0 0 0 -.468-.128 5 5 0 0 0 -.291-.017c-.054 0-.113 0-.178.009a25 25 0 0 0 -.146 1.319q-.02.257-.035.491-.013.234-.032.48l.428.035a1.06 1.06 0 0 0 .765-.24q.164-.135.278-.355.114-.221.137-.526a1.7 1.7 0 0 0 -.017-.437m5.779 5.136a2.4 2.4 0 0 1 -.974-.291 2.1 2.1 0 0 1 -.721-.677q-.291-.433-.39-1.106-.055-.377-.095-.676l-.076-.554a18 18 0 0 1 -.068-.491q-.03-.238-.067-.491a83 83 0 0 0 -.191-1.237 14 14 0 0 0 -.133-.704q.193-.009.392-.024a5 5 0 0 0 .773-.115 9 9 0 0 0 .383-.092q.04.93.137 1.722t.217 1.604q.127.86.328 1.369.202.512.485.763.284.254.645.296.363.043.827-.027.566-.083.845-.415.279-.33.376-.828.095-.496.044-1.11a21 21 0 0 0 -.15-1.276 45 45 0 0 0 -.459-2.584q.134-.001.26-.005a2 2 0 0 0 .463-.067l.231-.068q.012.212.044.563a93 93 0 0 0 .198 1.828q.066.554.158 1.17.24 1.642-.36 2.46-.605.818-1.974 1.02a5 5 0 0 1 -1.148.038m7.218-4.785.142.365q.285.74.525 1.306.241.568.49 1.106a3 3 0 0 0 -.337.111l-.4.154-.4.155q-.179.067-.322.145a37 37 0 0 0 -.874-2.467l-.47-1.21a40 40 0 0 0 -1.026-2.439 6.7 6.7 0 0 0 1.287-.472 13 13 0 0 1 1.337-.523 3 3 0 0 1 .435-.107 1.5 1.5 0 0 1 .637.02c.228.06.433.17.61.321q.268.23.425.63.252.65.054 1.198c-.198.548-.398.692-.8.976q.72.59 1.502 1.154t1.556 1.111a6 6 0 0 0 -.408.137l-.4.154-.405.157c-.132.052-.267.11-.397.174l-2.68-2.187-.08.03zm.45-2.776a.75.75 0 0 0 -.38-.257 1 1 0 0 0 -.487.011 5 5 0 0 0 -.641.207q.444 1.22.91 2.432l.107-.026a1 1 0 0 0 .096-.033q.586-.228.776-.665.189-.436-.06-1.078a2.1 2.1 0 0 0 -.32-.593m6.669-4.269q-.526.04-1.071.41a2.24 2.24 0 0 0 -.943 1.539 2.9 2.9 0 0 0 .07 1.079q.14.58.562 1.204.322.472.726.789.404.314.85.443.446.13.915.054.466-.075.926-.384a5 5 0 0 0 .461-.37q.111-.097.195-.196a.7.7 0 0 0 .111-.16 2 2 0 0 0 -.141-.25c-.06-.096-.133-.202-.21-.32q-.435-.638-.666-.928l-.313-.393a2 2 0 0 0 .228-.115q.138-.078.383-.244.284-.192.415-.298.13-.104.198-.176.027.074.11.224.085.15.203.341c.078.129.165.261.256.405q.136.21.268.402l.175.26q.135.198.253.366.12.166.182.228-.42.505-.893.952a7.7 7.7 0 0 1 -.995.802 5 5 0 0 1 -1.374.672 3.4 3.4 0 0 1 -1.341.147 2.9 2.9 0 0 1 -1.21-.389q-.563-.327-.977-.934-.509-.75-.643-1.485a3.1 3.1 0 0 1 .05-1.406q.183-.672.656-1.27a5.2 5.2 0 0 1 1.167-1.069q.6-.406 1.122-.582a5 5 0 0 1 1.104-.235q.076.248.152.487.076.238.174.47l-.11.076a2.4 2.4 0 0 0 -1.022-.144m6.597-2.74a18 18 0 0 0 -.492.534 28 28 0 0 0 -.932 1.113l.408.36q.594.526 1.068.918.473.394.943.756a3 3 0 0 0 -.248.253l-.285.321-.284.322a3 3 0 0 0 -.22.278q-.417-.42-.867-.843-.45-.421-1.043-.948l-.974-.858q-.594-.526-1.067-.918a38 38 0 0 0 -.965-.776 6.3 6.3 0 0 0 .828-.887q.114-.153.208-.286.435.446.878.858.446.413 1.04.937.172-.18.406-.437.234-.258.576-.643a33 33 0 0 0 .939-1.093 39 39 0 0 0 -2.017-1.682 6 6 0 0 0 .554-.557 7 7 0 0 0 .483-.617q.44.44.888.86.45.422 1.044.948l.974.86q.593.526 1.067.918.473.395.943.756-.12.109-.248.252l-.284.322-.285.322a3 3 0 0 0 -.22.278q-.417-.42-.867-.843-.45-.422-1.043-.948l-.409-.36q-.247.264-.498.527" fill="#fff"/><path d="m52.06 37.413a.432.432 0 1 1 -.002 0m-1.658-.005a.432.432 0 1 1 -.512.696.432.432 0 0 1 .512-.696m-1.663.002a.432.432 0 1 1 -.002 0" fill="#007b3f"/></g></svg>