<svg viewBox="0 0 180 180" xmlns="http://www.w3.org/2000/svg"><mask id="a" fill="#fff"><path d="M0 .642h179.349V180H0z" fill-rule="evenodd"/></mask><g fill="none" fill-rule="evenodd"><circle cx="90" cy="90" fill="#fff" r="89"/><g fill="#00a851"><path d="M121.031 57.568h.284v-1.505h-.284z"/><path d="M136.292 96.513c-6.966-5.64-17.848-2.685-25.388.19-2.86.76-6.878 2.657-9.06-.488-.87-1.423-.669-2.959-.199-4.483 1.057-2.47 3.35-2.666 5.642-2.953 9.912 1.525 22.23 2.58 28.91-5.437 3.052-3.638 4.106-8.978 3.052-13.746-1.335-4.955-6.388-8.493-10.307-10.887-6.017-1.987-6.97-9.347-12.21-12.694-5.155-3.238-12.223-3.52-17.472-.371-7.822 5.439-4.576 15.84-4.473 24.042-.103 3.252.377 7.167-1.915 9.643-.86.573-1.907-.097-2.2-.865-3.625-8.29.863-19.934-4.486-27.476-1.712-3.826-3.804-7.54-7.444-10.12-6.958-2.096-13.454 2.39-17.271 7.256-4.197 9.543-19.084 7.628-21.375 19.181-.955 4.58 0 9.351 3.151 12.597 8.778 9.36 22.805 2.19 34.17 4.11.95.458 2.38 1.616 2.09 3.04-.19 1.63-1.14 2.773-2.292 3.642-10.967 6.008-26.148-5.16-34.35 5.521-2.296 3.058-3.627 6.882-2.769 10.786.956 7.731 9.925 9.937 14.124 15.275 2.099 3.628 4.482 7.915 7.251 10.499 4.395 3.82 11.077 5.62 16.988 3.82 7.924-5.545 5.247-18.526 3.625-26.64-.476-1.417-.099-3.134.964-4 1.238-.764 3.041-.854 3.81.668 1.619 6.867 0 14.502-.672 21.381-1.231 4.001-1.9 9.06-5.814 11.252 3.813.49 8.299.677 11.82.582-2.754-10.026-.754-21.573-.368-31.977.565-.947 1.33-2.379 2.771-1.527 1.618.762 1.801 2.386 1.892 3.919-.747 6.39-3.05 13.457-.66 19.755 2.385 5.528 8.305 7.915 14.22 7.533 5.632.29 8.977-3.627 11.552-8.212 4.104-6.68 13.166-6.956 16.986-14.597 1.807-5.435 2.864-14.128-2.293-18.22m.382 7.919c-9.632 1.05-18.994 3.619-27.487 7.723-.666-.57-2.001-1.324-2.573-2.379 9.257-3.918 18.707-7.257 29.39-7.727zm-1.721-4.494c-10.307 1.242-20.318 4.011-29.581 8.315l-2.191-2.298c6.194-2.765 13.267-4.39 19.94-6.291l9.065-2.101c1.05.472 1.908 1.71 2.767 2.375m-26.618.19c6.867-1.709 13.546-5.81 20.991-3.913-8.967 1.82-18.422 4.965-27.482 7.835-1.34-1.432-2.192-3.058-2.966-4.777 3.255-.474 6.015 2.388 9.457.855m-3.634-13.73c.568-.865 2.008-1.725 2.961-2.577 5.823 1.62 12.21 1.807 18.509 2.377-6 4.675-14.215-.097-21.47.2m24.241-1.337c-4.005-1.048-8.583-.766-12.694-1.622l-6.584-1.147 1.628-1.439c6.576 1.238 13.746 1.146 20.715 1.635-.68 1.223-1.922 1.62-3.065 2.573m4.967-4.208a184 184 0 0 1-20.805-1.72c2.01-3.147 6.105-.281 9.157-1.133 5.154.371 9.746-.673 14.603-1.053-.485 1.517-1.715 2.858-2.955 3.906m3.621-6.107c-6.68 1.24-14.126 1.822-21.082 1.15.365-3.82 4.948-1.237 7.344-2.194 4.682-.481 8.582-1.152 13.072-2.099.47.947.47 2.099.666 3.143m-1.333-5.06c-5.346 1.53-11.07 2.099-16.889 2.295l1.531-2.968c4.663 0 9.636.104 13.734-1.516.865.297 1.249 1.432 1.624 2.19m-12.886-12.019l5.247 3.63c-1.516.852-3.342 1.24-5.247 1.052zm6.68 4.87c1.537.66 2.577 1.904 3.625 3.427-3.626 1.15-7.728 1.341-11.735 1.054l.857-2.476c2.478-.386 5.35-.289 7.252-2.005m-9.445-6.399h.194v-1.05h-.194zm-4.298-7.057c4.11 2.1 1.238 7.348 3.06 10.495-.582 1.425-1.151 3.148-2.202 4.011-1.904-4.397-.858-9.535-.858-14.506m-4.956-2.385l3.05 1.046c0 5.827-1.053 12.5 1.529 17.564 0 1.14-1.14 2.09-1.72 2.855-2.492-6.289-2.969-13.835-2.859-21.465m-4.197-.681l2.28.196c0 8.398.485 16.608 3.252 23.861-.968 1.053-1.445 2.004-2.58 2.573-3.817-7.72-3.433-17.557-2.952-26.63m-2.008 0c-.386 9.454-.666 19.856 3.62 27.879-.372.852-1.711 2.197-2.766 2.674-2.959-5.06-3.528-11.363-4-17.663l-.296-11.54c1.057-.77 2.107-1.249 3.442-1.35m-5.534 3.44c.57 9.838.57 20.328 4.676 28.726l-2.288 1.352c-2.388-3.826-4.965-7.833-4.587-12.9-1.044-5.632-2.103-12.878 2.2-17.178m.665 31.118l-3.535 2.003c-.196-2.003.865-4.205.951-6.485zM87.047 67.018c.027.215.027.441.019.663l.177 8.781c-3.912-2.043-.37-5.67-.177-8.781zm-3.999-15.36c1.519 2.951 2.282 6.203 3.138 9.343-1.14 3.44-1.14 7.354-2.098 10.98l-2.383-2.385zm-1.73-3.058c-.663 5.916-.562 12.401-1.332 18.705l-2.771-2.577c.202-7.443-.188-14.312-.277-21.47 2.198.764 3.617 3.438 4.38 5.342m-6.668-5.626c.757 6.388.757 13.166.665 19.845-.766-.47-2.2-1.335-2.573-2.391.092-5.528-.486-11.256-.958-16.79.856-.472 1.902-.582 2.866-.664m-4.775 1.34c.48 4.95 1.044 10.295 1.044 15.068l-2.57-1.337L67.1 45.644c.673-.669 1.816-.952 2.775-1.33m-4.684 2.766c.675 2.955.86 6.49 1.245 9.735-4.294.852-2.57-3.737-4.003-6.028zm-4.106 6.291c.205.763.302 1.529.386 2.284h-2.098zm-5.528 5.064l-8.885 3.714c2.48-2.29 5.924-2.483 8.885-3.714m-9.925 6.49c4.208-2.106 8.403-4.206 13.07-5.35 1.057 0 1.909.576 2.588 1.047-6.02 2.575-12.034 4.962-17.758 8.21-.285-1.335.287-3.526 2.1-3.908m-2.385 6.478c6.296-4.197 13.266-6.762 20.24-9.44 1.135.472 1.801.96 2.76 1.717-7.828 3.051-15.464 6.968-22.523 11.753-.574-1.168-.477-2.788-.477-4.03m1.333 6.019c6.686-5.441 15.086-9.26 23.383-12.026 1.05.281 2.292 1.523 2.956 2.483-9.157 1.428-17.566 5.624-24.612 11.253zm3.145 3.15c7.356-5.913 15.378-9.836 24.915-10.976 1.046.286 1.534 1.242 2.383 2.189-8.305 1.537-15.842 5.253-22.14 10.703-1.816-.49-3.73-.774-5.158-1.915m7.737 2.194c5.828-4.486 13.078-8.501 21.282-8.872l1.998 2.568v.29c-5.908.489-11.452 2.577-16.124 5.824zm12.123-.852c3.617-2.3 8.402-3.45 12.882-2.874l1.714 3.252v.284c-4.49-1.438-9.633-1.05-14.596-.662m6.198 12.675c-1.143.584-1.813 2.582-3.05 1.445l-1.427-1.055c1.428-.39 3.144 0 4.477-.39m-9.73-.086c.763 2.2 4.1 1.244 5.63 3.06h.192c-2.014 3.617-5.823-.768-8.976-.485-4.196-.755-8.398-1.432-12.881-1.432 4.389-2.965 10.88-2.39 16.034-1.143m-18.802 3.06c7.345-.291 14.602.761 21.185 3.041.1.576-.57.86-.857 1.242-6.964-1.242-14.988-1.995-22.14-.666 0-1.428 1.04-2.76 1.812-3.617m2.292 4.956c5.433-.47 10.965.1 16.126.863.198.668-.766 1.522-1.337 2.1-6.1-.961-12.886-1.143-19.085-.578-.668-2.573 2.668-2.098 4.296-2.385m-4.011 4.482c5.534-.762 12.025-.854 17.367.187-.288 3.065-2.667.96-4.58 1.152-4.195-.479-8.493-.087-11.927 1.725-.478-.867-.953-1.812-.86-3.064m12.787 13.559c-.578.09-1.238-1.055-1.715-1.327.376-.593.953-.392 1.52-.683.766.472 0 1.337.195 2.01m-3.343-2.58c-1.126-.476-1.329-1.438-2.573-1.906 1.803-.863 3.914-1.146 6.209-.954 1.143 2.666-2.875.954-3.636 2.86m-4.376-3.248l-2.968-2.76c3.434-2.297 8.685-2.196 12.876-1.344.39.958-.753 1.618-.858 2.582-3.046-.19-6.48 0-9.05 1.522m10.583 9.27h.19v-1.057h-.19zm4.304 6.383c-1.442-1.056-2.1-2.189-2.782-3.636.475-2.189.682-5.141-.094-7.244l1.53-3.047c1.726 3.914 1.62 9.155 1.346 13.927m3.803 3.056c-4.284-.96-.475-5.346-1.9-8.212 0-4.003-.384-7.348-1.721-10.883l1.91-2.67c2.103 6.492 2.384 14.806 1.71 21.765m5.63 1.238c-1.235.382-2.566 0-3.713-.38.578-7.356.578-16.985-2.107-24.234l1.717-2.204.672.677c1.808 8.487 3.818 16.792 3.432 26.141m1.912-.567c-.091-9.735-1.34-19.184-4.29-27.778l1.908-1.902c2.957 8.965 4.1 18.703 4.967 28.53-.765.58-1.53 1.338-2.585 1.15m4.485-3.256c-1.529-9.16-2.379-18.992-5.143-27.759l2.57-2.105c1.81 2.957 1.81 6.009 2.192 9.636 1.05 6.397 4.294 14.126.381 20.228m.48-27.287c.189-1.621-2.669-3.441-.189-4.481.764-.58 1.71-.865 2.573-1.15.279 2.287-.862 4.393-2.385 5.631m19.756 26.816c-5.245-5.342-.187-12.504-.293-18.709l.958.956c-.958 6.008-.188 11.928-.665 17.753m2.092 2.198c.095-6.492-.28-11.74.296-18.237l2.76 2.592c-.28 5.906-.192 11.931.568 17.545-1.517.1-2.373-1.137-3.624-1.9m5.45 2.76c-.683-5.439-.683-11.17-.683-16.793 1.06.77 2.775 1.05 3.252 2.393.095 4.866.476 9.535 1.628 13.93-1.432.188-2.864.956-4.197.47m5.91-1.337c-1.239-3.815-1.346-8.292-1.239-12.398l3.824 1.72c-.099 2.48-.2 5.045 1.325 6.863-.857 1.348-2.183 3.352-3.91 3.815m5.255-5.531c-1.06-.764-.774-3.341-.86-4.765l4.29.089zm-20.43-20.615c-3.041-4.393-6.293-8.773-8.773-13.944-14.126 3.441-25.48 15.186-31.024 28.068-1.42-9.539 5.456-16.229 11.652-22.321 4.967-4.22 10.495-7.734 16.124-10.503C82.67 75.433 70.628 62.724 57.65 57.38c6.69-1.332 12.415 3.047 17.182 6.872l7.35 7.913c3.34 4.208 6.107 8.687 8.49 13.56 12.224-2.287 21.19-11.362 27.772-21.285 1.056-2.292 2.674-4.29 3.155-6.774 1.04 3.72-.39 7.917-2.099 11.165-5.629 9.737-15.94 17.08-25.394 22.041 4.007 14.694 14.986 25.669 28.349 31.403-10.971 1.523-18.323-7.64-24.627-14.415m28.06 13.747c-1.712-.28-3.433-.568-4.863-1.333 3.431-2.961 8.301-3.733 12.884-4.486-2.198 2.379-5.247 4.188-8.02 5.819m9.55-7.924c-5.823.574-11.84 1.91-16.414 5.549-1.243-.494-2.49-1.164-3.434-2.107 6.382-3.347 13.451-5.154 20.892-6.198 0 1.132-.479 1.891-1.044 2.756m1.426-4.58c-8.202 1.056-16.025 2.868-22.993 6.868-.961-.666-2.689-1.526-2.967-2.575 8.02-3.817 16.699-5.918 25.96-6.873z"/><path d="M89.67.642C40.224.642 0 40.877 0 90.32S40.223 180 89.67 180c49.45 0 89.68-40.234 89.68-89.68 0-49.443-40.23-89.678-89.68-89.678m0 175.45c-47.296 0-85.762-38.477-85.762-85.771 0-47.293 38.466-85.77 85.763-85.77 47.294 0 85.773 38.477 85.773 85.77s-38.479 85.77-85.773 85.77" mask="url(#a)"/><path d="M89.67 7.756c-45.377 0-82.295 36.913-82.295 82.295 0 45.365 36.918 82.291 82.296 82.291 45.383 0 82.284-36.926 82.284-82.291 0-45.382-36.9-82.295-82.284-82.295m0 163.757c-44.92 0-81.458-36.55-81.458-81.462 0-44.922 36.538-81.469 81.458-81.469 44.909 0 81.475 36.547 81.475 81.469 0 44.911-36.566 81.462-81.475 81.462"/><path d="M152.092 90.052c0-34.428-27.997-62.43-62.42-62.43-34.417 0-62.424 28.002-62.424 62.43 0 34.42 28.007 62.42 62.424 62.42 34.423 0 62.42-28 62.42-62.42m-62.42 61.606c-33.965 0-61.585-27.64-61.585-61.606 0-33.972 27.62-61.606 61.585-61.606 33.97 0 61.608 27.634 61.608 61.606 0 33.965-27.638 61.606-61.608 61.606"/><path d="M89.67 31.555c-32.252 0-58.49 26.246-58.49 58.497 0 32.253 26.238 58.483 58.49 58.483 32.256 0 58.494-26.23 58.494-58.483 0-32.25-26.238-58.497-58.493-58.497m0 115.033c-31.171 0-56.54-25.36-56.54-56.536 0-31.17 25.369-56.542 56.54-56.542 31.181 0 56.538 25.371 56.538 56.542 0 31.175-25.357 56.536-56.538 56.536m-15.693 8.196l-.353 1.656 2.228-.92-2.249 11.09 1.721.343 2.62-12.974-1.475-.304c-.605.329-2.03 1.006-2.492 1.11m13.397 3.383c.167-2.067-1.04-3.419-3.113-3.587-2.07-.167-3.486.961-3.659 3.034-.112 1.506.517 2.86 2.054 3.29v.011c-1.955.036-2.577 1.52-2.714 3.229-.207 2.383.9 3.942 3.195 4.13 2.303.191 3.643-1.175 3.843-3.552.135-1.708-.238-3.284-2.158-3.623v-.024c1.584-.17 2.432-1.406 2.552-2.908m-2.164 6.439c-.082 1.13-.64 2.311-1.953 2.195-1.3-.099-1.664-1.345-1.58-2.505.1-1.16.364-2.68 2.004-2.548 1.626.148 1.637 1.666 1.53 2.858M83.8 160.24c-1.323-.118-1.517-1.563-1.447-2.541.093-.987.694-1.934 1.807-1.848 1.116.093 1.546 1.129 1.468 2.12-.082.968-.523 2.37-1.828 2.27m10.913.857v-.023c1.54-.39 2.208-1.738 2.12-3.234-.104-2.077-1.488-3.252-3.565-3.136-2.082.123-3.326 1.424-3.21 3.501.078 1.506.89 2.757 2.474 2.976v.027c-1.934.287-2.335 1.85-2.259 3.563.129 2.385 1.426 3.79 3.75 3.657 2.284-.131 3.435-1.654 3.303-4.045-.087-1.713-.667-3.215-2.613-3.286m-2.913-3.052c-.042-.99.403-2.001 1.542-2.071 1.122-.057 1.691.907 1.744 1.9.05.962-.196 2.415-1.514 2.487-1.306.08-1.723-1.335-1.772-2.316m2.139 8.919c-1.33.067-1.842-1.122-1.911-2.271-.064-1.18-.004-2.719 1.628-2.8 1.637-.086 1.852 1.424 1.93 2.614.054 1.143-.336 2.379-1.647 2.457m10.588-7.246v-.025c1.468-.6 1.955-2.023 1.66-3.501-.398-2.04-1.927-2.991-3.967-2.605-2.04.407-3.096 1.87-2.697 3.919.289 1.476 1.276 2.602 2.876 2.602v.023c-1.877.563-2.077 2.158-1.733 3.839.453 2.34 1.932 3.547 4.199 3.102 2.259-.443 3.176-2.12 2.718-4.458-.335-1.681-1.103-3.084-3.056-2.896m-3.294-2.611c-.188-.972.129-2.048 1.232-2.27 1.107-.217 1.805.671 1.997 1.641.181.958.143 2.411-1.15 2.677-1.296.244-1.887-1.093-2.079-2.048m3.347 8.524c-1.288.251-1.974-.852-2.195-1.974-.24-1.168-.39-2.695 1.212-3 1.62-.32 2.04 1.149 2.27 2.309.217 1.124 0 2.408-1.287 2.665M12.446 82.963l-1.527-.053-.295 9.008 1.525.057.118-3.632 12.247.392.057-1.744-12.243-.405zm.103-10.031l5.863 1.105-.898 4.745-5.851-1.101-.329 1.721 13.54 2.556.327-1.729-6.198-1.164.9-4.743 6.184 1.166.331-1.725-13.532-2.55zm17.068-8.517l-1.439-.525-1.839 5.146-4.488-1.594 1.664-4.672-1.436-.518-1.666 4.667-4.169-1.481 1.796-5.032-1.444-.521-2.379 6.694 12.976 4.617zm-5.24-9.907l3.322 2.04c4.547 2.791 6.017.609 6.926-.849.464-.763 2.088-3.387-1.666-5.601l-.956 1.54c2.297 1.433 1.603 2.918 1.314 3.378-.704 1.143-1.622 1.88-4.505.11l-3.136-1.939c-2.012-1.235-2.134-1.714-2.235-1.839-.12-.143-.572-1.096.183-2.322.196-.32.753-.94 1.318-1.012.563-.086 1.268.283 1.913.705l.956-1.54c-2.183-1.546-3.942-1.398-5.366.924-1.423 2.32-1.377 4.361 1.932 6.405m17.94-9.389l-1.175-.978-3.503 4.171-3.659-3.072 3.18-3.799-1.16-.97-3.193 3.788-3.399-2.841 3.444-4.094-1.169-.989-4.561 5.45 10.551 8.854zm6.384-5.902L47.663 38.1l-3.727 3.402-8.258-9.027-1.312 1.183 9.305 10.157zm-5.819-10.848l7.3 9.832 1.415-1.044-7.314-9.839 2.929-2.163-.919-1.221-7.234 5.367.907 1.221zm14.642 4.977l-6.975-11.893-1.503.884 6.966 11.903zm.317-6.158c2.145 4.895 4.604 3.933 6.177 3.252.82-.353 3.632-1.601 1.816-5.56l-1.66.734c1.074 2.48-.346 3.3-.835 3.52-1.236.548-2.41.618-3.777-2.474l-1.48-3.37c-.952-2.172-.779-2.626-.779-2.79-.019-.186.15-1.225 1.477-1.803.322-.152 1.147-.338 1.642-.08.526.25.888.946 1.18 1.666l1.663-.736c-.92-2.506-2.446-3.379-4.941-2.274-2.493 1.086-3.61 2.788-2.046 6.36zm17.052-.627l-1.335-6.157 4.699-1.006-.314-1.493-4.705 1.006-.926-4.323 4.96-1.063-.323-1.493-6.677 1.427 2.894 13.471zm10.5-1.249c2.917-.196 4.233-1.788 3.982-5.59l-.291-4.52c-.182-2.74-1.707-4.406-4.617-4.216-2.921.188-4.203 2.03-4.039 4.777l.298 4.515c.248 3.807 1.75 5.22 4.667 5.034m-.831-12.856c.559-.034 2.53-.078 2.729 2.805l.297 4.638c.19 3.026-.632 3.832-2.29 3.937-1.66.116-2.588-.582-2.776-3.6l-.299-4.644c-.188-2.877 1.784-3.1 2.339-3.136m11.854 13.062c2.908.31 4.469-1.042 4.863-4.85l.462-4.501c.274-2.731-.943-4.623-3.84-4.937-2.903-.291-4.497 1.314-4.775 4.045l-.469 4.503c-.388 3.787.852 5.44 3.759 5.74m-1.987-5.477l.485-4.642c.285-2.855 2.282-2.754 2.832-2.7.555.064 2.52.361 2.22 3.225l-.484 4.634c-.306 2.999-1.27 3.67-2.906 3.505-1.656-.173-2.446-1.025-2.147-4.022m10.366 6.6l1.71.424 2.974-11.876 3.526.894.378-1.493-8.738-2.194-.369 1.475 3.514.896zm10.683 3.552c1.438.608 3.942 1.304 5.319-1.946.742-1.744.411-3.17-1.297-4.146l.027-.093c1.8.327 2.784-.485 3.457-2.073.11-.25.363-1.03.196-1.903-.156-.907-.508-1.748-2.265-2.493l-4.123-1.752-5.39 12.664zm2.328-12.322l2.293.968c1.348.571 1.582 1.693 1.128 2.75-.523 1.217-1.47 1.735-2.737 1.212l-2.356-1zm-.546 6.074c1.65.698 2.744 1.573 1.886 3.595-.386.93-1.531 1.905-3.25 1.173l-2.274-.97 1.91-4.535zm4.513 9.257l2.657-2.192 4.459 2.877-.947 3.288 1.658 1.078 3.69-14.015-1.872-1.202-11.121 9.204zm9.634-8.245l.038.011-2.126 7.382-3.708-2.384zm4.255 18.756l1.01-1.173-3.815-3.311 8.077-9.221-1.328-1.153-9.069 10.363zm5.59 6.295l1.141-1.009-3.341-3.779 9.168-8.126-1.156-1.329-10.326 9.141zm4.875 8.05c.455.768 1.986 3.425 5.715 1.196l-.905-1.58c-2.337 1.331-3.307.03-3.583-.438-.675-1.173-.886-2.33 2.04-4.014l3.186-1.85c2.054-1.18 2.53-1.058 2.68-1.073.199-.048 1.236 0 1.966 1.26.188.32.46 1.096.255 1.628-.196.54-.843.985-1.533 1.354l.918 1.58c2.391-1.19 3.093-2.816 1.727-5.174-1.354-2.35-3.176-3.275-6.544-1.35l-3.366 1.961c-4.628 2.666-3.406 5.01-2.556 6.5m5.537 11.422l1.421-.572-1.904-4.69 11.361-4.579-.664-1.626-12.77 5.163zm7.274 8.299l8.495-2.048-.409-1.696-8.569 2.065c-2.942.696-3.889-.01-4.279-1.63-.39-1.616.135-2.687 3.081-3.394l8.56-2.047-.409-1.715-8.497 2.04c-3.712.896-4.84 2.623-4.16 5.455.676 2.835 2.475 3.856 6.187 2.97m9.226 2.866l-13.74.928.297 4.408c.093 1.567.612 4.116 4.127 3.878 1.892-.12 3.012-1.05 3.107-3.03l.09-.015c.532 1.744 1.709 2.263 3.43 2.144a3.5 3.5 0 0 0 1.774-.679c.742-.556 1.351-1.252 1.212-3.146zm-9.43 7.423c-1.005.074-2.389-.508-2.507-2.37l-.165-2.487 4.906-.32.13 1.868c.119 1.791-.164 3.172-2.363 3.31m6.26-.837c-1.337.1-2.216-.517-2.335-1.892l-.158-2.545 4.263-.283.158 2.476c.1 1.46-.783 2.166-1.928 2.244M64.11 154.804c-1.006 0-3.912-.125-6.027-.561-1.451-2.738-1.553-6.159-3.645-7.84-2.372-1.902-4.616.228-6.253-1.155-2.143-1.818.188-3.87-1.18-5.007-1.376-1.151-2.987 1.5-5.147-.282-1.655-1.352.047-3.942-2.252-5.952-2.03-1.759-5.404-1.25-8.373-2.187-.808-2.006-1.43-4.826-1.613-5.836-.171-.993-1.555-2.63-2.995-2.493 1.082 3.544 2.214 7.325 1.07 10.417-.615 1.657-.853 2.347-.615 2.541.25.196 6.692-1.97 9.8.64 1.91 1.61 1.747 3.958 1.222 4.677-.527.73-1.894 2.174-1.158 2.777 1.301 1.07 1.704-.533 4.76 2.034 3.067 2.551 1.563 3.237 2.841 4.323.732.614 1.909-.993 2.529-1.628.616-.656 2.902-1.247 4.812.356 3.128 2.594 2.15 9.322 2.38 9.54.233.204.868-.148 2.376-1.051 2.862-1.687 6.772-1.238 10.457-.82-.127-1.424-1.972-2.514-2.989-2.493m85.235-28.484c-.18 1.002-.83 3.832-1.669 5.825-2.97.922-6.337.375-8.38 2.111-2.316 1.982-.64 4.585-2.306 5.937-2.185 1.76-3.758-.913-5.148.221-1.375 1.141.936 3.212-1.225 5.003-1.645 1.37-3.877-.791-6.268 1.096-2.105 1.667-2.236 5.075-3.712 7.812-2.124.422-5.015.51-6.032.504-1.025-.01-2.872 1.044-3.018 2.464 3.69-.384 7.616-.791 10.438.913 1.512.921 2.142 1.282 2.374 1.077.239-.204-.675-6.95 2.472-9.515 1.936-1.582 4.203-.977 4.821-.32.616.647 1.778 2.256 2.506 1.646 1.288-1.054-.213-1.759 2.89-4.292 3.089-2.547 3.473-.932 4.774-1.986.746-.603-.61-2.059-1.135-2.77-.523-.748-.666-3.095 1.26-4.692 3.127-2.567 9.564-.358 9.812-.544.251-.198.007-.877-.592-2.543-1.118-3.113.044-6.876 1.143-10.419-1.417-.14-2.818 1.47-3.005 2.472"/></g></g></svg>