<svg viewBox="0 0 417 424" xmlns="http://www.w3.org/2000/svg"><clipPath id="a"><path d="M-12-8.2h442.2V434H-12z"/></clipPath><clipPath id="b"><path d="M-12-8.2h442.2V434H-12z"/></clipPath><path clip-path="url(#a)" d="M353.92 216.27c0 84.7-65.44 153.36-146.17 153.36S61.58 300.96 61.58 216.27 127.02 62.91 207.75 62.91s146.17 68.66 146.17 153.36" fill="#76153e"/><path clip-path="url(#a)" d="M347.93 180.07c-7.24-30.75-24.88-58.63-49.67-78.51-25.53-20.48-56.36-31.3-89.16-31.3-32.75 0-63.55 10.8-89.06 31.22-24.77 19.83-42.42 47.65-49.71 78.35l-3.24 13.64-2.26-11.92-55.82-14.56.7-2.86c10.7-43.88 36.16-83.62 71.7-111.91C118.03 23.07 162.19 7.66 209.1 7.66s91.07 15.41 127.7 44.57c35.54 28.29 61 68.04 71.7 111.93l.7 2.86-55.69 14.53-2.18 12.93z" fill="#faac03"/><path clip-path="url(#a)" d="M209.1 10.65c95.15 0 174.93 65.71 196.49 154.21l-54.71 14.27-.04.26C335.7 115.12 277.99 67.28 209.1 67.28c-68.8 0-126.45 47.72-141.68 111.86v-.01l-54.81-14.3C34.18 76.34 113.96 10.65 209.1 10.65m0-5.98c-23.96 0-47.44 4.04-69.81 11.99-21.61 7.69-41.72 18.87-59.74 33.22-36.06 28.7-61.89 69.02-72.74 113.54l-1.39 5.71 5.69 1.48 51.07 13.32 4.25 25.29 6.82-28.71c7.13-30.05 24.42-57.29 48.67-76.7 12.12-9.7 25.64-17.26 40.19-22.46 15.05-5.38 30.87-8.11 47.01-8.11 16.16 0 32 2.73 47.07 8.13 14.56 5.21 28.1 12.79 40.22 22.51 24.27 19.47 41.55 46.76 48.63 76.87l6.77 28.75 4.33-25.57 50.98-13.3 5.69-1.48-1.39-5.71c-10.85-44.53-36.68-84.86-72.74-113.56-18.03-14.35-38.13-25.53-59.75-33.22-22.39-7.95-45.87-11.99-69.83-11.99" fill="#76153e"/><path clip-path="url(#a)" d="M209.1 418.13c-56.41 0-109.01-22.43-148.09-63.15l-2.21-2.31 44.34-37.19-4.13-10.87 9.77 9.66c26.88 26.6 62.51 41.24 100.31 41.24 37.89 0 73.57-14.7 100.47-41.4l9.47-9.4-3.9 10.74 44.31 37.16-2.21 2.3c-39.08 40.78-91.69 63.22-148.13 63.22" fill="#faac03"/><path clip-path="url(#a)" d="M311.67 316.25l-.06.16 43.47 36.45c-36.81 38.38-88.6 62.28-145.98 62.28-57.35 0-109.13-23.88-145.93-62.23l43.52-36.5v-.01c26.31 26.03 62.48 42.11 102.41 42.11 40.01.01 76.25-16.13 102.57-42.26m14.7-23.01l-18.91 18.77c-26.33 26.14-61.27 40.53-98.36 40.53-37.01 0-71.89-14.34-98.21-40.38L92.5 293.97l7.18 20.52-40.36 33.85-4.9 4.11 4.42 4.61c19.23 20.04 41.84 35.8 67.19 46.84 26.25 11.43 54.19 17.23 83.06 17.23s56.83-5.8 83.09-17.24c25.36-11.05 47.97-26.82 67.2-46.87l4.42-4.61-4.89-4.1-40.26-33.77z" fill="#76153e"/><path clip-path="url(#a)" d="M72.42 338.09c-1.28-1.18-31.54-29.49-44.65-80.18-13.11-50.72-2.47-81.93-2.01-83.24l.87-2.46L69.25 181l19.28-16.15-3.2 9.88a119.5 119.5 0 0 0-5.8 36.83c0 36.08 17.22 73.34 44.95 97.23l5.87 5.06-22.85.57-33.24 25.37z" fill="#faac03"/><path clip-path="url(#a)" d="M82.49 173.81a122.5 122.5 0 0 0-5.95 37.75c0 12.08 1.9 24.19 5.39 35.86q.69 2.325 1.47 4.62c7.77 23 21.66 43.96 39.13 59.01l-16.07.4-32.02 24.44s-30.74-28.3-43.78-78.73c-13.04-50.42-2.08-81.5-2.08-81.5l41.48 8.56zm12.07-17.91l-15.91 13.33-10.22 8.56-38.65-7.97-5.11-1.05-1.73 4.92c-.47 1.34-11.41 33.38 1.93 84.98 13.33 51.54 44.21 80.42 45.52 81.63l3.69 3.4 3.99-3.04 30.48-23.26 14.13-.35 15.49-.38-11.74-10.12c-13-11.21-23.98-25.89-31.76-42.45-7.95-16.95-12.15-35.11-12.15-52.52 0-12.22 1.9-24.31 5.66-35.91z" fill="#76153e"/><path clip-path="url(#a)" d="M312.17 314.42l-22.85-.56 5.87-5.06c27.73-23.89 44.95-61.15 44.95-97.24 0-12.54-1.95-24.93-5.81-36.83l-3.38-10.43 18.8 16.68 43.2-9.42.87 2.5c.46 1.33 11.18 33.14-1.93 83.85-13.11 50.69-43.37 79-44.65 80.18l-1.84 1.7z" fill="#faac03"/><path clip-path="url(#a)" d="M337.18 173.81l11.74 10.41 42.09-9.18s11.03 31.7-2 82.12c-13.04 50.42-43.78 78.73-43.78 78.73l-32.02-24.44-16.07-.4c27.4-23.61 45.99-61.74 45.99-99.5 0-13.13-2.08-25.8-5.95-37.74m-12.43-19.02l6.75 20.86c3.76 11.61 5.66 23.69 5.66 35.91 0 17.41-4.2 35.57-12.16 52.52-7.77 16.57-18.76 31.25-31.76 42.45l-11.74 10.12 15.49.38 14.13.35 30.48 23.26 3.98 3.04 3.69-3.39c1.31-1.2 32.19-30.09 45.52-81.63 13.34-51.58 2.34-84.22 1.86-85.58l-1.74-5-5.17 1.13-39.13 8.54-9.47-8.4z" fill="#76153e"/><path clip-path="url(#a)" d="M316.94 317.11c-27.27 28.22-65.5 45.78-107.84 45.78-42.21 0-80.34-17.44-107.59-45.5-.61.94-1.47 1.7-2.45 2.15.56.57 1.11 1.15 1.68 1.72 28.94 28.95 67.43 44.89 108.36 44.89s79.42-15.94 108.36-44.89c.62-.62 1.23-1.26 1.84-1.89-.89-.66-1.68-1.42-2.36-2.26m41.78-137.47c-6.22-28.24-20.32-54.17-41.26-75.11-28.94-28.94-67.43-44.88-108.36-44.88s-79.42 15.94-108.36 44.88c-21.25 21.25-35.48 47.65-41.55 76.39 1.04.41 2.03.88 3.06 1.37 14.12-68.16 74.5-119.38 146.85-119.38 71.77 0 131.75 50.41 146.5 117.74.95-.44 1.99-.79 3.12-1.01" fill="#76153e"/><path clip-path="url(#a)" d="M209.1 407.88c-56.69 0-107.72-24.2-143.35-62.83-.91.66-1.83 1.22-2.8 1.78q2.91 3.18 5.97 6.24c18.21 18.21 39.41 32.5 63.01 42.48 24.44 10.34 50.4 15.58 77.17 15.58s52.72-5.24 77.17-15.58c23.61-9.99 44.81-24.28 63.01-42.48a258 258 0 0 0 3.27-3.35c-.89-.64-1.8-1.27-2.71-1.89-35.49 37.01-85.42 60.05-140.74 60.05m182.66-272.15c-9.98-23.61-24.28-44.81-42.48-63.01s-39.41-32.5-63.01-42.48c-24.44-10.34-50.4-15.58-77.17-15.58s-52.72 5.24-77.17 15.58c-23.61 9.99-44.81 24.28-63.01 42.48s-32.5 39.41-42.48 63.01a196.5 196.5 0 0 0-10.65 33c.2.03.4.07.61.12.85.25 1.71.47 2.58.65C38.7 82.71 116.33 17.91 209.1 17.91c93.47 0 171.56 65.77 190.56 153.55.88-.69 1.99-1.03 3.12-1.06a197.3 197.3 0 0 0-11.02-34.67" fill="#76153e"/><path clip-path="url(#a)" d="M123.31 347.96l19.53 10.6-2.95 5.43-12.22-6.63-2.2 4.05 11.34 6.15-2.82 5.19-11.34-6.15-2.72 5.02 12.57 6.83-3.13 5.76-19.88-10.79zm14.52 29.59l7.61 2.13c-.3 1.36-.32 2.47-.07 3.33.41 1.39 1.37 2.35 2.86 2.88 1.11.39 2.08.42 2.88.06.8-.35 1.34-.9 1.6-1.64.25-.71.19-1.44-.19-2.2s-1.52-1.76-3.44-3c-3.13-2.04-5.19-4.02-6.16-5.91-.98-1.9-1.1-3.92-.34-6.05.5-1.4 1.34-2.6 2.54-3.58 1.19-.98 2.68-1.56 4.44-1.74s3.96.2 6.6 1.13c3.23 1.14 5.47 2.66 6.7 4.56 1.24 1.9 1.51 4.32.84 7.27l-7.53-2.14c.24-1.3.15-2.34-.28-3.12s-1.2-1.37-2.3-1.76c-.91-.32-1.67-.35-2.27-.1-.61.25-1.01.68-1.23 1.27-.15.43-.1.89.15 1.37.24.49 1 1.14 2.27 1.93 3.13 2 5.3 3.67 6.49 5.01s1.91 2.73 2.15 4.17c.25 1.44.11 2.91-.42 4.4a9.73 9.73 0 0 1-3.06 4.37c-1.42 1.16-3.07 1.84-4.95 2.03s-4.04-.14-6.49-1.01c-4.3-1.52-6.96-3.47-7.99-5.85-1.03-2.37-1.16-4.97-.41-7.81m29.88-9.98l24.77 4.57-1.29 7.04-8.32-1.54-3.96 21.46-8.15-1.51 3.96-21.45-8.31-1.54zm27.15 26.97c.74.06 1.37.4 1.89 1.04s.75 1.37.68 2.21c-.06.81-.39 1.5-.99 2.05-.59.55-1.28.8-2.06.74-.77-.06-1.4-.41-1.91-1.05s-.73-1.37-.66-2.18c.07-.84.4-1.53 1.01-2.08.6-.55 1.28-.79 2.04-.73m34.36-23.69l2.65 29.35-7.51.68-1.74-19.23c-1.12 1.11-2.23 2.02-3.31 2.74q-1.62 1.08-4.11 2.16l-.59-6.58c2.45-1.11 4.32-2.34 5.6-3.7 1.29-1.36 2.24-2.98 2.87-4.86zm13.88 11.8c-1.3-.38-2.3-.91-3.02-1.59-.98-.93-1.64-2.11-1.99-3.55-.57-2.36-.01-4.53 1.68-6.52 1.32-1.54 3.3-2.63 5.93-3.26 3.49-.84 6.24-.74 8.25.29s3.28 2.64 3.81 4.82c.31 1.27.26 2.53-.14 3.79-.3.94-.89 1.92-1.77 2.95 1.59.39 2.87 1.1 3.86 2.14.98 1.04 1.65 2.29 2.01 3.74.34 1.41.36 2.8.05 4.17-.3 1.37-.81 2.49-1.52 3.37s-1.68 1.63-2.9 2.26-2.57 1.12-4.04 1.47c-2.76.67-4.96.82-6.59.47q-2.445-.525-4.08-2.31c-1.09-1.19-1.84-2.63-2.24-4.32-.4-1.65-.38-3.14.05-4.45.44-1.34 1.32-2.49 2.65-3.47m1.92-6.32c.23.97.71 1.69 1.41 2.15.71.46 1.53.58 2.47.35q1.245-.3 1.83-1.38c.39-.72.47-1.55.25-2.48-.23-.97-.71-1.7-1.41-2.17s-1.49-.61-2.36-.4c-.88.21-1.52.68-1.93 1.41-.4.73-.48 1.57-.26 2.52m2.54 12.22c.3 1.24.89 2.17 1.78 2.79s1.79.82 2.69.6c.86-.21 1.55-.8 2.04-1.76.49-.97.59-2.06.3-3.29-.3-1.24-.89-2.18-1.78-2.8-.89-.63-1.78-.83-2.7-.61-.9.22-1.59.79-2.08 1.72-.48.92-.57 2.04-.25 3.35m19.77-12.66c-1.34-.19-2.41-.57-3.22-1.14-1.1-.78-1.92-1.85-2.48-3.22-.9-2.25-.66-4.48.72-6.7q1.635-2.565 5.4-4.08c3.33-1.34 6.06-1.64 8.2-.91s3.63 2.14 4.46 4.22c.48 1.21.62 2.47.41 3.77-.16.97-.61 2.03-1.33 3.17 1.63.16 3 .68 4.12 1.56s1.96 2.02 2.53 3.42c.54 1.35.76 2.72.65 4.11-.1 1.4-.44 2.58-1.02 3.55s-1.43 1.85-2.55 2.65-2.38 1.48-3.79 2.04c-2.64 1.06-4.79 1.53-6.45 1.42-1.66-.12-3.12-.68-4.37-1.7s-2.2-2.33-2.85-3.95c-.63-1.58-.83-3.05-.59-4.42.27-1.35.98-2.62 2.16-3.79m.99-6.53q.555 1.395 1.71 1.92c.76.35 1.6.35 2.49-.01.79-.32 1.33-.86 1.61-1.63s.25-1.6-.11-2.49c-.37-.93-.94-1.58-1.71-1.94-.76-.37-1.56-.39-2.39-.05-.84.34-1.41.9-1.71 1.67-.29.78-.26 1.63.11 2.53m4.26 11.73c.48 1.19 1.2 2.02 2.17 2.51.97.48 1.89.55 2.75.21.83-.33 1.42-1.01 1.76-2.04q.525-1.545-.18-3.3c-.48-1.19-1.2-2.02-2.16-2.52q-1.455-.735-2.76-.21c-.86.35-1.46 1.01-1.81 2-.34.98-.27 2.1.23 3.35m29.09-29.89l-5.92 4.57c-.73-.87-1.41-1.39-2.03-1.56a2.27 2.27 0 0 0-1.81.25c-1.05.61-1.53 1.65-1.45 3.12.05 1.07.76 3 2.12 5.81.28-1.29.71-2.37 1.29-3.25s1.4-1.62 2.47-2.24c2.07-1.2 4.28-1.42 6.64-.65s4.24 2.38 5.66 4.83c.96 1.65 1.47 3.37 1.54 5.16s-.33 3.4-1.21 4.85-2.28 2.73-4.21 3.85c-2.32 1.35-4.43 2-6.33 1.96s-3.81-.76-5.74-2.14c-1.93-1.39-3.78-3.63-5.57-6.72-2.62-4.52-3.66-8.35-3.12-11.48.54-3.12 2.38-5.59 5.5-7.4 1.85-1.07 3.44-1.69 4.78-1.84q2.01-.24 3.84.48c1.22.47 2.4 1.27 3.55 2.4m-5.4 18.05c.79 1.36 1.72 2.23 2.8 2.64 1.08.4 2.08.34 3-.2.85-.49 1.35-1.25 1.52-2.27s-.15-2.23-.95-3.61c-.82-1.41-1.74-2.32-2.76-2.72s-1.97-.34-2.85.16c-.9.52-1.44 1.32-1.63 2.39s.1 2.28.87 3.61M35.86 137.84l5.11-9.63 17.54 4.55L44.9 120.8l5.1-9.62 25.6 13.58-3.19 6L52.9 120.4l17.06 14.98-2.88 5.43-21.96-5.75 19.51 10.36-3.18 6zm31.17-25.89c-3.63-3.04-5.67-6.33-6.12-9.9q-.69-5.34 3.51-10.35c2.87-3.42 6.06-5.23 9.6-5.42s7.09 1.21 10.67 4.2c2.6 2.17 4.39 4.36 5.37 6.56s1.3 4.45.94 6.76c-.36 2.3-1.49 4.6-3.4 6.88-1.94 2.32-3.95 3.91-6.02 4.76s-4.36 1.03-6.88.53c-2.52-.51-5.07-1.85-7.67-4.02m5.35-6.34c2.24 1.88 4.18 2.84 5.81 2.89q2.445.075 4.11-1.92c1.14-1.36 1.55-2.82 1.21-4.38-.33-1.55-1.74-3.37-4.23-5.45-2.09-1.75-3.95-2.64-5.56-2.67-1.62-.02-2.99.63-4.11 1.97q-1.605 1.92-1.11 4.32c.32 1.61 1.62 3.35 3.88 5.24m6.35-29.12l19.34-16.15 4.58 5.49-6.49 5.42L110.15 88l-6.37 5.32L89.8 76.56l-6.49 5.42zm26.94-21.41l7.23-4.06 4.96 8.84 7.9-4.43-4.96-8.84 7.26-4.08 14.18 25.27-7.27 4.08-5.73-10.23-7.9 4.44 5.73 10.22-7.23 4.05zm32.41-16.84l21.02-7.19 2 5.85-13.16 4.5 1.5 4.36 12.2-4.18 1.92 5.59-12.21 4.18 1.85 5.41 13.54-4.64 2.12 6.21-21.4 7.32zm35.4 18.94l-4.43-29.06 13.86-2.11q3.855-.585 6-.18c1.43.27 2.66.99 3.69 2.15s1.68 2.67 1.97 4.52c.25 1.61.14 3.05-.32 4.32a7.85 7.85 0 0 1-2.19 3.24c-.64.57-1.55 1.1-2.74 1.6 1.04.21 1.82.45 2.33.74.34.19.86.63 1.56 1.33.7.69 1.18 1.23 1.44 1.63l5.31 7.81-9.4 1.43-5.8-8.2c-.74-1.06-1.35-1.73-1.85-2.01-.67-.36-1.38-.48-2.14-.36l-.73.11 1.8 11.79zm5.71-18.56l3.51-.54c.38-.06 1.09-.3 2.14-.73.53-.2.93-.58 1.21-1.12s.36-1.13.27-1.76c-.14-.94-.53-1.62-1.15-2.04-.63-.42-1.7-.51-3.22-.28l-3.65.56zm22.39-14.35l7.75.45 1.85 16.12 5.02-15.71 7.72.45 3.15 16.17 3.73-15.77 7.71.46-7.5 28.16-7.99-.47-3.58-18.22-5.66 17.68-8-.47zm45.32 3.88l21.47 5.7-1.59 5.98-13.44-3.57-1.18 4.45 12.47 3.31-1.52 5.71-12.47-3.31-1.46 5.52 13.83 3.68-1.69 6.34-21.86-5.81zm30.63 9.1l7.55 3.4-8.96 19.92 11.8 5.31-2.93 6.5-19.36-8.71zm26.8 12.95l6.93 4.55-11.98 18.26 10.82 7.09-3.91 5.97-17.75-11.65zm35.89 27.2l13.98 15-4.56 4.24-8.3-8.9-3.7 3.45 7.09 7.6-4.28 3.99-7.08-7.6-8.66 8.07-5.68-6.09zm1.18 36.84c.44.6.6 1.3.46 2.11s-.54 1.47-1.22 1.97c-.66.49-1.39.69-2.2.61s-1.45-.44-1.91-1.06-.61-1.33-.46-2.13.55-1.45 1.21-1.94c.67-.5 1.42-.71 2.23-.61q1.215.135 1.89 1.05m19.35 19.09l1.53 7.49c-2.15.66-4.13.9-5.93.72s-3.41-.76-4.83-1.75c-1.42-.98-2.73-2.51-3.92-4.6-1.44-2.54-2.22-4.83-2.34-6.89s.49-4.24 1.83-6.55c1.34-2.3 3.57-4.35 6.69-6.12 4.17-2.37 7.95-3.16 11.36-2.39 3.4.78 6.17 3.05 8.31 6.8 1.67 2.94 2.34 5.61 2.02 8.02q-.495 3.615-3.78 7.11l-5.15-5.49c.64-.66 1.07-1.21 1.29-1.66.37-.74.54-1.49.53-2.26s-.22-1.51-.63-2.23c-.93-1.63-2.35-2.48-4.26-2.54q-2.145-.09-5.52 1.83-4.185 2.385-5.07 4.44c-.59 1.37-.48 2.77.33 4.19.78 1.38 1.79 2.18 3.03 2.41 1.23.24 2.74.06 4.51-.53m.57 15.91c.29.68.28 1.4-.04 2.16s-.87 1.3-1.64 1.63c-.75.32-1.51.35-2.28.08s-1.31-.76-1.61-1.48c-.3-.71-.29-1.43.04-2.18s.87-1.28 1.62-1.6c.77-.33 1.54-.36 2.31-.08.77.29 1.3.78 1.6 1.47" fill="#76153e"/><path clip-path="url(#a)" d="M127.8 96.87c-9.97 8.52-20.53 17.5-30.65 26.17-.42.34-1.97 1.66-1.99 1.86 0-.03.49.54.63.76 1.47 2.03 2.76 4.31 3.85 6.46 3.99 7.97 6.47 16.63 6.17 28.8-.18 7.39-1.48 14.19-2.76 20.62-1.28 6.46-2.98 12.55-4.84 18.65-3.62 11.8-7.15 24.8-6.37 40.19.36 7.09 2.08 13.47 4.25 19.17 2.16 5.75 4.87 10.9 7.73 15.73 2.9 4.89 6.25 9.29 9.79 13.63 3.48 4.3 6.99 8.63 10.78 12.67 3.79 4.08 7.6 8.11 11.83 11.57 6.4 5.24 13.49 10.2 21.76 13.41 2.86 1.1 5.91 1.8 8.96 2.75 5.76 1.84 11.59 4.03 16.72 6.74 10.32 5.46 18.34 12.44 26.77 20.17 8-7.77 15.78-14.98 26.07-20.2 2.45-1.25 3.85-1.93 6.63-3.09 4.73-1.65 6.62-2.3 9.71-3.15 4.35-1.25 6.22-1.93 9.13-3.01 14.01-5.16 24.04-14.51 33.4-24.52 3.77-4.01 7.33-8.18 10.78-12.44 6.9-8.51 12.86-18.05 17.14-29.11 2.19-5.64 3.94-11.65 4.54-18.68 1.32-15.03-1.37-29.2-4.97-40.6-3.63-11.46-7.1-24.25-8-38.31-1-15.49 2.94-27.27 8.86-37.08-.43-.74-1.17-1.24-1.79-1.83-1.98-1.87-3.97-3.64-5.93-5.47-7.85-7.35-15.87-14.57-23.68-21.86-1.61 1.69-3.52 3.54-5.54 5.04-5.82 4.31-13.47 7.38-22.13 8.72-5.75.89-13.4 1.22-19.31.5-5.98-.73-9.6-6.05-8.79-13h-53.1c1.29 3.12.67 7.8-.92 9.65-1.58 1.83-4.42 2.88-7.24 3.35-5.92.96-13.82.91-19.5-.13-11.74-2.19-20.92-7.51-27.99-14.13m59.63 5.27H233c-.4 6.92 3.52 10.71 9.15 12.11 2.8.7 6.19.82 9.66.92 17.77.56 32.35-3.86 40.5-12.96 9 7.82 18.14 15.5 27.16 23.31-5.24 9.98-9.95 21.08-9.29 35.96.6 13.89 3.72 26.78 7.36 37.85 1.9 5.81 3.75 11.49 4.9 17.74 1.21 6.53 1.51 13.37 1.46 21.13-.05 7.45-1.51 13.43-3.56 19.07-5.95 16.48-16.02 29.2-26.86 40.99-3.66 3.99-7.22 7.99-11.35 11.28-4.1 3.27-8.92 6.26-13.69 8.92-4.82 2.7-10 5.17-15.46 7.17-2.78 1.03-5.69 1.75-8.55 2.78-12.41 4.52-22.75 10.88-31.55 19.34-.41.39-.86.86-1.42 1.42-.35.33-1.39 1.36-1.42 1.36-.15 0-1.08-.96-1.5-1.36-3.28-3.28-7.09-6.4-10.71-9.15-4.38-3.3-9.09-6.28-14.11-8.6-10.53-4.84-22.76-7.31-32.56-12.83-9.62-5.4-17.56-12.67-24.97-20.4-13.06-13.56-23.94-29.04-29.06-50.35-.38-1.56-.62-3.14-.9-4.78-.31-1.69-.34-3.31-.3-5.2.2-7.31.85-14.3 2.12-20.6 1.25-6.24 3.11-11.99 4.97-17.72 1.84-5.64 3.19-11.81 4.45-18.2 1.25-6.43 2.25-13.1 2.69-20.01.5-7.67-.23-14.38-2.19-20.2-1.89-5.62-4.34-10.66-7.43-15.19 8.75-7.77 17.44-15.28 26.3-23.05.25-.2.89-.7.86-.7.2 0 .84 1.05 1.2 1.46 2.93 3.22 7.14 5.71 11.41 7.46 7.53 3.07 17.21 4.49 28.09 4.18 3.54-.1 7.09-.18 9.98-.8 5.88-1.22 9.91-4.7 9.02-12.17-.07 0-.07-.18.03-.18m3.18 2.95c-.07.02-.08.1-.06.2-.44 6.59-4.26 10.34-10.15 11.81-2.88.71-6.32.95-9.85 1.12-18.49.89-33.9-3.14-43.19-11.58-7.57 6.61-15.12 13.25-22.76 19.8 3.93 6.55 7.01 13.93 8.29 23.18 1.34 9.65-.37 20.04-1.86 28.86-.76 4.53-1.73 8.78-2.75 12.97-3.08 12.6-8.15 23.78-8.86 38.37 4.5-9.76 13.46-29.35 13.46-29.35h21.2l-26.5 58.77h-3.54c.26 1.51 1.17 3.07 1.76 4.41 4.36 9.89 10.15 17.9 16.61 25.57 7.2 8.56 15.45 16.91 24.88 23.29 4.89 3.31 9.96 6.11 15.83 8.23 5.8 2.11 11.95 3.68 17.84 6.24 2.88 1.23 5.62 2.46 8.23 3.84 7.91 4.13 14.46 9.65 20.87 15.29 10.17-9.89 22.81-17.54 38.21-22.13 3.02-.89 5.95-2.03 8.79-3.25 8.25-3.54 15.97-8.05 22.71-13.27 2.22-1.73 4.2-3.77 6.24-5.81 4.01-4.03 7.72-8.37 11.47-12.7 7.48-8.65 14.27-18.46 18.81-29.72h-21.1l22.49-49.42c.02-.55-.37-1.45-.56-2.12-.63-2.2-1.41-4.28-2.06-6.17-8.77 19.18-26.03 57.71-26.03 57.71H267.5s13.16-29.7 19.76-44.38c2.2-4.9 6.6-14.39 6.6-14.39h20.9c-3.34-11.08-6.86-23.88-7.49-37.74-.69-14.87 3.3-26.6 8.29-36.35-7.55-6.74-15.42-13.15-22.99-19.87-7.49 6.77-18.66 10.45-32.17 11.41-6.75.48-14.65.47-20.13-1.14-5.67-1.62-9.39-5.42-10.15-11.7h-39.51zm19.7 4.11c.57-.02 1.16.23 1.63 1.03 1.24 2.12 4.21 7.64 4.84 8.49.63.84 1.21 1.64.2 1.56-.92-.1-.92-.05-1.67-.03-.71 0-1.09.52-.23 1.25.88.75 6.02 7.02 6.15 7.33.12.31.98 1.97 0 1.99s-1.09.17-2.06.07c-.99-.09-.99.26-.59 1.42.37 1.17 4.35 5.08 4.87 6.04.5.97 1.32 2.36.53 2.78-1.09.56-1.19.38-1.72.67-.45.23-.82.4-.23 1.06.92 1.03 2.96 2.73 3.71 3.68.74.94 2.02 2.44.8 3.31-1.22.88-1.96.9-1.2 2.06.75 1.17 2.75 3.51 3.25 4.25.51.73 1.74 1.06 2.56.3.47-.44.86-1.21 1.09-1.62.23-.45.35-.97-.27-.97-.63.02-.73.12-1.59.14-.86.01-1.71-.32-.63-1.73 1.07-1.4 5.78-6.39 6.26-6.93.49-.53.71-1.2-.03-1.29-.73-.08-1.15-.29-1.29-.73-.12-.41.37-.93.67-1.72.31-.85 4.1-5.73 4.71-7.03.59-1.3 2.6-5.29 2.81-6.24.23-.98.76-1.91 1.56-.1.49 1.12 7.06 10.77 7.79 11.83.78 1.05.98 2.44-.13 2.46-1.12.01-.86-.01-1.72-.11-.87-.1-1.55.07-.67 1.23.88 1.17 4.16 6.47 4.78 7.09.63.65 1.24 2.14.14 2.17-1.1.01-.73-.07-1.46.03-.73.12-1.34.33-.83 1.39.5 1.06 3.98 5.2 4.61 6.37.65 1.17 2.22 2.1.73 2.12-1.46.03-1.51.15-2.62.17-1.1.01-1.73 1.09-.86 1.72.86.65 2.54 2.07 3.01 2.82.5.73.9 2.24 1.53 2.89.63.61 1.27 1.29 1.89 2.05.63.73.29 2.06-.69 1.43-1.01-.63-2.45-1.2-2.96-1.73-.49-.53-.85-.51-1.19.23-.36.77-.6 1.39-.6 1.39s-.56.8-1.23.47c-1.3-.66-.89-.87-1.62-1.3-.75-.43-.72-.29-.8.43-.07.79-.98 2.12-2.53.92-.7-.56-1.19-1.06-1.69-.96-.49.11-.61.45-.59 1.53.01 1.06-1.01 2.97.19 3.91 1.01.79 2.03.71 2.89.8.86.1 1.98.54 3.09 1.09 1.22.62.59-.29 2.68.44 2.09.71 6.52 2.62 8.85 3.45 2.35.83 4.36 2.37 5.98 3.09 1.59.73 4.14 2.3 1.33 2.02-2.83-.29-22.95.05-27 .11-4.04.05-87.43 0-88.79 0-3.44 0-2.19-.83-.76-1.9 1.11-.81 4.27-2.97 5.96-3.64 1.71-.66 7.65-2.55 10.22-3.56 2.55-1 7.35-1.2 7.76-2.39.39-1.16.33-1.85-.17-2.48s-.26-.93-1.36-1.03c-1.11-.1-2.07.88-2.55 1.62-.47.76-1.46.76-1.96.23-.48-.52-.37-1.17-1.95-1.03-1.59.13-3.18.49-3.92.5-.75 0-1.46-.21-1.36-.73.09-.47.24-.89.7-1.66.45-.74.51-.98-.6-.96-1.09 0-1.25.36-2.85.26-1.59-.08-1.85-.91-.73-1.59 1.09-.65 5.91-4.78 6.4-5.11s.6-.65 0-.86c-1.59-.53-1.84-.44-2.95-.73-1.11-.31-1.35-1.02-.64-1.89.72-.87 4.46-4.89 5.18-5.54.73-.66.53-1.8-.33-1.79-.86.02-.59.18-1.17.11-1.14-.16-1.26-1.36-.53-2.32 1.69-2.22 4.81-6.87 5.08-7.53.25-.65.12-1.35-.4-1.4-.86-.05-.49-.03-1.59-.06-1.16-.04-1.72-.75-1.03-2.02 1.12-2.05 6.17-10.81 6.93-13.27.2-.66.33-1.32 1.09-.37.73.96 8.3 9.65 8.96 10.65.85 1.3 1.14 2.75.67 3.18-.5.43-.96.87-1.56.87-.33.01-.37.33.13.86s3.97 3.81 4.71 4.45c.73.62.88 1.15.39 1.69-.48.53-1.04.83-.96 1.39.11.74 1.53 2.65 2.72 1.59.53-.5 2.52-2.84 2.89-3.28.36-.42.69-.88-.17-.86-.86.01-2.11-.36-2.84-.76-.75-.43-.83-1.08-.11-1.96.72-.86 5.25-6.25 5.97-6.93.9-.84 1.24-1.88 0-1.86-1.41.05-.93.03-1.92.26-.98.22-2.26.22-.64-1.49.89-.94 4.23-4.42 4.71-5.28.47-.87.61-1.56 0-1.56-.6.01-1.01.13-1.73.27-.73.16-1.12-1.04-.27-1.59 2.27-1.45 5.15-5.88 5.77-7.07.41-.76.25-1.32-.39-.99-1.65.81-2.52.15-1.79-.84.72-.97 4.8-8.01 5.1-8.62.39-.67 1.31-1.53 2.25-1.57m-13.22 62.89c-.7.27-2.41 3.34-4.62 2.95-.84-.16-.6-1.67-1.59-1.56-1.4.16-2.34 2.44-3.61 2.42-1.12-.01-1.1-.27-1.96-.89-.87-.65-1.15 1.23-.96 2.06.14.6.21 1.07 1.55 1.06 1.35-.02 1.5-.28 3.09-.31 1.58-.01 1.66.82 2.15 1.14.49.31 1.11.92 2.23.89 1.1 0 13.3-2.9 15.09-4.21.67-.48.23-2.24-.14-2.51-.82-.65-5.49 3.44-7.26 3.68-1.52.2-2.1.45-3.09-.5-1-.93-.5-4.14-.8-4.21-.02-.02-.04-.03-.08-.01m26.27.13c-1.47.25-1.5 1.25-2.76 1.59-1.27.33-4.11-1.74-5.23-1.45-.46.11-.7.93-.57 1.36s.17 3.01.93 3.85c.4.45 3.89-.54 5.73.03 2.24.68 3.1 1.68 4.25 1.52 1.6-.2 4.28-2.82 6.6-2.69 2.53.16 5.27 2.2 6.94 2.32 1.48.13 1.34-.71 1.32-1.26 0-.53-1.38-1.09-1.89-1.62-.5-.53-1.24-2.16-2.36-2.25-1.74-.15-2.4 1.27-3.67.92-1.31-.36-.5-1.26-1.7-1.56-.47-.12-.9.62-1.39.67-1.6.12-4.74-1.64-6.2-1.43m-82.96 28.17l21.73.1-26.74 58.77c-6.68-.12-14.45-.12-21.36 0-.05-.64.38-1.22.63-1.75 8.62-18.88 25.74-57.12 25.74-57.12m27.46.09h19.64c-.45.34-.46.54-.63.69-4.11 3.49-7.99 8.04-10.41 13.27-2.44 5.22-3.35 11.13-3.35 18.81 0 .96.2 2.07.06 3.02l-10.84 22.98H141.4zm67.53 0h26.21l-11.55 24.38c-2.22-10.9-7.41-18.55-14.66-24.38m31.58 0h21.53l-26.3 58.77h-21.43zm-92.05 43.38c2.44 6.22 5.57 11.3 10.12 15.39h-16.65z" fill="#faac03"/><path clip-path="url(#a)" d="M247.28 230.96c0 19.66-15.94 35.6-35.6 35.6s-35.6-15.94-35.6-35.6 15.94-35.6 35.6-35.6 35.6 15.94 35.6 35.6" fill="#76153e"/><path clip-path="url(#a)" d="M198.91 201.31l-11.42 9.94 2.12 9.72 9.3 4.18 10.65-9.35v-8.96zm25.73.17l-11.34 5.37-.26 8.65 9.91 9.66 8.72-2.62 4.18-11.71zm-35.59 24.04l-8.71 9.62 4.73 12.14h13.34l3.98-8.02-4.05-10.91zm46.04.64l-10.85 1.75-4.34 11.28 5.47 8.22h12.31l5.27-11.91zm-30.31 14.89l-5.38 9.62 5.04 9.88 14.7.06 3.95-10.34-5.81-9.22z" fill="#fff"/><path clip-path="url(#a)" d="M77.37 161.5c-2.16 8.15-3.97 14.17-3.97 14.17l14.39-12.54m253.46-1.63c2.16 8.15 3.97 14.17 3.97 14.17l-14.39-12.54M122.22 325.02c5.74-6.21 6.56-8.76 6.56-8.76h-16.79m184.4 8.76c-5.74-6.21-6.19-8.26-6.19-8.26l16.42-.5" fill="#faac03"/><g fill="#76153e"><path d="M166.68 304.79l.28.01v-.29zm.28-.48v.2l.2-.2z"/><path d="M166.68 304.79l.28.01v-.29zm28.13-.48h.35l-.35-.34z"/><path clip-path="url(#b)" d="M274.81 300.76v8.57l-4.06 2.55H149.21l-5.11-5.11 4.67-4.64 2.32 2.17H157v-22.67h2.16v22.67h4.61v-16.6h3.18v16.81l-.29.29.29.01v-.3l.2-.2 2.71-2.71 2.34 2.34-.37.37h.74l-.37-.37 2.33-2.34 2.27 2.27-.44.44h.88l-.44-.44 2.27-2.27 2.14 2.14-.56.56h1.12l-.56-.56 2.14-2.14 2.3 2.3-.41.41h.82l-.41-.41 2.3-2.3 2.25 2.25-.46.46h.92l-.46-.46 2.25-2.25 2.36 2.36v.34h.34l-.34-.34v-5.01h9.82v-20.49h2.89v25.84h.47s.27-.42.69-1.17v-17.17h2.17v12.78c1.35-3.16 2.68-7.3 2.68-11.3 0-8.18-1.59-9.23-1.59-9.23v-.69h13.62c-.02.19-.01.37.01.56.07-.22.13-.41.23-.56h1.32v.69s-1.59 1.05-1.59 9.23c0 3.15.82 6.37 1.82 9.13.26-1.09.41-2.21.41-3.32 0-5.36-1.05-6.05-1.05-6.05v-.45h9.95v.45s-1.05.7-1.05 6.05c0 2.36.71 4.79 1.5 6.76.5-1.43.9-3.06.9-4.65 0-4.33-.84-4.89-.84-4.89v-.36h8.04v.36s-.85.55-.85 4.89 2.93 8.94 2.93 8.94h4.91v-11.95h2.25v-1.5h6.82v1.5h2.45v11.95h1.88l.24-.1v-4.97h1.09v-1.06h6.81v1.06h1.09v1.52h-.02z"/><path clip-path="url(#b)" d="M166.96 304.51v.29l-.28-.01zm5.61-.2h-.74l.37-.37z"/><path clip-path="url(#b)" d="M172.57 304.31h-.74l.37-.37zm4.67 0h-.87l.43-.44z"/><path clip-path="url(#b)" d="M177.24 304.31h-.87l.43-.44zm4.54 0h-1.13l.57-.56z"/><path clip-path="url(#b)" d="M181.78 304.31h-1.13l.57-.56zm4.29 0h-.82l.41-.41z"/><path clip-path="url(#b)" d="M186.07 304.31h-.82l.41-.41zm4.59 0h-.92l.46-.46z"/><path clip-path="url(#b)" d="M190.66 304.31h-.92l.46-.46zm4.5 0h-.35v-.34zm30.62-26.79c-.1.15-.16.34-.23.56-.02-.19-.03-.37-.01-.56zm-68.12 1.94c-.57-1.17-.18-2.74.89-3.5 1.84-1.31 4.64-.09 6.55-1.3.5-.32.9-.78 1.45-1.01 1.39-.59 3.39.45 4.33-.73.34-.43.4-1.04.78-1.44.54-.56 1.51-.5 2.04-1.06.49-.52.4-1.39-.01-1.97s-1.06-.94-1.68-1.29c1.51-.81 3.34-.99 4.98-.49.33.1.67.23 1.01.17.54-.1.89-.64 1.41-.8.65-.21 1.3.21 1.94.46.63.25 1.56.2 1.74-.46.37-.25.84.3.74.73-.1.44-.48.74-.75 1.1-.55.71-.68 1.67-1.11 2.46s-1.47 1.43-2.21.91c.34.91-.82 1.69-1.8 1.75-.97.06-2.07-.15-2.83.46-.32.26-.54.64-.9.85-1.1.64-2.69-.72-3.68.08-.27.21-.43.56-.73.71-.43.21-.93-.04-1.4-.1-1.42-.19-2.52 1.3-3.92 1.56-.79.14-1.59-.12-2.38-.11-.8.01-1.73.47-1.76 1.26-.48.02-.96.05-1.43.07.52.94-.84 2.57-1.27 1.69m8.29 5.55c.07-1.06 1.17-1.94 2.22-1.76-.21-.64.54-1.19 1.21-1.3.66-.11 1.43-.08 1.9-.55.22-.22.34-.51.55-.73.22-.23.52-.37.81-.51 1.91-.88 3.82-1.78 5.72-2.69.66-.31 1.31-.62 1.97-.94 1.33-.63 2.82-1.46 3.11-2.9.1-.51.03-1.05-.19-1.51 1.22-.4 2.18-1.47 2.46-2.72 1.25-.02 1.99-1.85 1.11-2.74 1.45-.05 2.9.04 4.33.27a3.7 3.7 0 0 0 2.29 1.14c-.23.57-.02 1.28.47 1.66-1.73-.05-3.91.19-4.46 1.83-.12.36-.14.75-.28 1.1-.41 1.03-1.78 2.01-1.11 2.89-1.55-.36-3.26.94-3.32 2.54-1.14-.31-2.3 1.12-1.77 2.18-.74.42-1.65.52-2.47.27-.03.79-.97 1.23-1.76 1.22-.79-.02-1.58-.3-2.36-.18s-1.54.96-1.17 1.66a4.64 4.64 0 0 0-4.23.09c-.4.22-.8.52-1.26.53-.29.01-.57-.09-.85-.14-1.12-.25-2.37.4-2.92 1.29m40.19-7.51c-.32-.52-.54-1.11-.63-1.72.38-.47.97-.77 1.58-.78.22 0 .45.02.63-.1.14-.09.22-.26.28-.42.39-1.01.51-2.36 1.53-2.71.82-.29 1.91.24 2.49-.4.16-.17.24-.41.42-.56.69-.59 1.68.61 2.57.42.5-.11.79-.62 1.18-.96.6-.53 1.55-.62 2.24-.22.2.12.39.27.62.31.49.07.86-.4 1.31-.6.73-.33 1.71.26 1.76 1.06-1.07.4-2.04 1.04-2.81 1.88-.43.46-.86 1.01-1.47 1.12-1.14.2-2.4-1.17-3.3-.43-.18.15-.3.37-.48.53-.56.5-1.43.25-2.15.02-.72-.22-1.68-.3-2.06.35-.23.4-.23 1.04-.68 1.13-.21.04-.43-.08-.64-.08-.72-.02-1.26 1.15-1.87.78-.01.39-.02.79-.04 1.18-.36 0-.72 0-.48.2"/><path clip-path="url(#b)" d="M254.35 266.23c-1.5 1.71-3.31 3.56-5.57 3.52-.56-.01-1.11-.13-1.67-.05-1.63.27-2.46 2.26-4.04 2.74-1.83.55-4.02-1.12-5.63-.08-.33.22-.62.55-1 .68-.88.3-1.73-.58-2.66-.55-1.05.03-1.67 1.11-2.29 1.94-.62.84-1.91 1.54-2.61.78.39.66-.51 1.36-1.27 1.44-.64.07-1.38.02-1.83.86-.1.15-.16.34-.23.56-.02-.19-.03-.37-.01-.56.1-1.26.96-2.46 2.18-2.85.48-.15.99-.2 1.41-.48 1.22-.79.98-3.04 2.35-3.54.37-.13.77-.1 1.16-.17.91-.19 1.55-.99 2.29-1.57.72-.58 1.89-.94 2.53-.27-.23-1.21 1.2-2.08 2.43-2.17 1.22-.09 2.55.18 3.61-.44.32-.17.58-.43.93-.54 1.18-.39 2.3 1 3.54.9.6-.05 1.13-.44 1.73-.46.46-.01.9.2 1.33.35 1.07.38 2.27.36 3.32-.04"/></g></svg>