<svg xmlns="http://www.w3.org/2000/svg" fill="none" viewBox="0 0 300 286"><g clip-path="url(#a)"><path fill="#F6BC5E" fill-rule="evenodd" d="M150 10c86.516-36.02 152.948 31.41 149.899 104.68-3.054 73.27-50.448 136.786-149.899 171.322C50.549 251.465 3.155 187.949.1 114.679-2.947 41.41 63.48-26.026 150 10.001" clip-rule="evenodd"/><path fill="#9F1930" fill-rule="evenodd" d="M150 16.549l10.06-3.843 7.561-2.375 7.41-1.825 7.25-1.298 7.08-.78 6.91-.297 6.731.17 6.552.627 6.365 1.06 6.167 1.472 5.97 1.875 5.764 2.26 5.562 2.628 5.342 2.976 5.117 3.315 4.879 3.636 4.645 3.939 4.393 4.232 4.131 4.499 3.861 4.759 3.585 5.003 3.302 5.213 3.003 5.425 2.692 5.621 2.38 5.782 2.054 5.934 1.719 6.075 1.376 6.195 1.032 6.296.669 6.364.294 6.447-.078 6.525-.404 6.571-.651 6.539-.908 6.474-1.155 6.401-1.422 6.333-1.669 6.259-1.926 6.181-2.191 6.093-2.444 6.021-2.715 5.933-2.976 5.842-3.242 5.755-3.507 5.663-3.779 5.566-4.058 5.471-4.324 5.369-4.603 5.259-4.884 5.154-5.168 5.044-5.451 4.929-5.732 4.815-6.03 4.686-6.314 4.567-6.607 4.439-6.901 4.305-7.204 4.168-7.497 4.026-7.795 3.88-8.102 3.741-8.405 3.581-8.708 3.426-7.006 2.535-7.011-2.535-8.708-3.426-8.404-3.581-8.098-3.741-7.8-3.88-7.497-4.026-7.203-4.168-6.897-4.305-6.612-4.439-6.314-4.567-6.025-4.686-5.736-4.815-5.452-4.929-5.168-5.044-4.879-5.154-4.603-5.259-4.329-5.369-4.053-5.471-3.778-5.566-3.513-5.663-3.242-5.755-2.976-5.842-2.71-5.933-2.448-6.021-2.187-6.093-1.93-6.181-1.67-6.259-1.417-6.333-1.16-6.401-.903-6.474-.656-6.539-.399-6.571-.078-6.525.294-6.447.67-6.364 1.026-6.296 1.38-6.195 1.716-6.075 2.058-5.934 2.376-5.782 2.696-5.621 3.003-5.425 3.297-5.213 3.586-5.003 3.865-4.76 4.132-4.498 4.392-4.232 4.64-3.939 4.884-3.636 5.117-3.315 5.342-2.976 5.557-2.627 5.764-2.261 5.97-1.875 6.172-1.472 6.36-1.06 6.553-.628 6.731-.17 6.91.299 7.08.78 7.249 1.297 7.41 1.825 7.561 2.375z" clip-rule="evenodd"/><path fill="#C5C6CC" fill-rule="evenodd" d="M120.42 35.215l4.663 1.151 5.97 1.871L150 45.477l18.942-7.24 5.966-1.87 4.672-1.152-4.636-20.597-5.722 1.408-7.218 2.265L150 22.876l-12.004-4.585-7.213-2.265-5.727-1.408zm-27.98-1.228l1.514-.253 4.677-.449 4.865-.12 5.066.216 5.283.587 4.269.761 4.635-20.615-5.878-1.05-6.69-.739-6.507-.284-6.318.165-6.14.587-4.535.752zm-24.935 9.487l1.71-1.11 3.765-2.1 3.907-1.844 4.035-1.586 4.19-1.311 4.339-1.041.151-.023-5.732-20.345-4.379 1.05-5.585 1.751-5.387 2.11-5.196 2.453-4.998 2.788-4.41 2.856zM47.72 62.787l2.013-2.806 2.842-3.494 3.013-3.283 3.178-3.063 3.342-2.834 3.004-2.238-13.509-16.26-2.645 1.972-4.356 3.696-4.127 3.971-3.884 4.242-3.645 4.475-3.105 4.333zM36.293 87.24l.729-2.572 1.545-4.484 1.798-4.356 2.022-4.21 2.242-4.053 1.513-2.398L28.292 53.9l-1.835 2.907-2.843 5.13-2.544 5.306-2.252 5.47-1.944 5.617-1.15 4.058zm-2.953 27.93l-.11-1.701-.06-5.072.225-4.869.504-4.824.78-4.764.876-3.934-20.552-4.847-1.064 4.782-.972 5.961-.628 6.03-.284 6.108.078 6.199.114 1.94zm4.36 27.764l-.692-2.591-1.174-5.25-.967-5.333-.757-5.406-.545-5.488-.055-.84-21.088 1.005.091 1.527.633 6.309.871 6.245 1.12 6.163 1.361 6.098.977 3.646zm10.093 26.026l-1.747-3.443-2.238-4.893-2.022-4.97-1.802-5.03-1.54-4.925-20.217 6.076 1.733 5.557 2.105 5.869 2.357 5.787 2.608 5.704 2.412 4.746zm14.6 22.239l-1.747-2.169-3.394-4.576-3.15-4.645-2.911-4.7-2.045-3.622-18.333 10.464 2.197 3.902 3.384 5.452 3.64 5.369 3.907 5.269 2.912 3.613zm20.015 20.552l-.959-.807-4.69-4.246-4.425-4.315-4.155-4.388-3.893-4.453-.096-.119-15.517 14.338 3.898 4.448 4.723 4.984 4.998 4.888 5.287 4.783 1.187.995zm22.949 16.819l-2.292-1.431-5.838-3.92-5.548-4.013-5.26-4.094-1.82-1.523-13.646 16.104 2.192 1.843 5.86 4.554 6.145 4.452 6.442 4.324 1.866 1.16zm25.99 14.141l-1.889-.871-7.057-3.517-6.754-3.632-6.443-3.723-1.417-.885-11.894 17.456 2.435 1.522 7.034 4.077 7.336 3.939 7.639 3.801.321.147zm34.692 1.206l-2.875 1.32-7.698 3.283-5.466 2.151-5.47-2.151-7.694-3.283-2.875-1.32-10.693 18.309 5.011 2.311 8.245 3.522 8.556 3.361 4.92 1.783 4.92-1.783 8.552-3.361 8.249-3.522 5.011-2.311zm26.169-13.834l-1.412.885-6.447 3.723-6.75 3.632-7.061 3.517-1.885.871 10.689 18.318.325-.151 7.635-3.801 7.336-3.939 7.03-4.077 2.439-1.522zm23.188-16.494l-1.82 1.523-5.255 4.094-5.548 4.013-5.842 3.92-2.293 1.426 11.899 17.461 1.871-1.165 6.433-4.324 6.149-4.447 5.86-4.558 2.192-1.839zm20.409-20.166l-.091.119-3.898 4.453-4.15 4.388-4.424 4.315-4.696 4.246-.958.807 13.646 16.108 1.183-.995 5.287-4.783 5.002-4.888 4.723-4.984 3.898-4.448zm15.049-21.936l-2.045 3.622-2.916 4.7-3.145 4.645-3.394 4.576-1.747 2.169 15.54 14.357 2.912-3.613 3.906-5.269 3.646-5.369 3.375-5.452 2.201-3.902zm10.698-25.788l-1.536 4.925-1.802 5.03-2.022 4.97-2.238 4.893-1.756 3.443 18.355 10.482 2.416-4.745 2.61-5.709 2.352-5.787 2.104-5.864 1.738-5.562zm4.934-27.673l-.051.835-.545 5.489-.757 5.41-.967 5.329-1.179 5.254-.688 2.591 20.226 6.08.977-3.645 1.362-6.094 1.119-6.167.871-6.241.633-6.314.091-1.527zm-2.041-28.021l.872 3.935.779 4.764.504 4.824.23 4.869-.069 5.072-.106 1.701 21.093 1.009.115-1.94.082-6.199-.284-6.104-.633-6.034-.967-5.956-1.069-4.783zm-10.592-24.838l1.523 2.398 2.237 4.053 2.022 4.21 1.789 4.36 1.554 4.48.729 2.573 20.57-4.852-1.156-4.058-1.939-5.617-2.252-5.47-2.549-5.305-2.838-5.131-1.835-2.907zM234.884 45.07l3.008 2.232 3.333 2.839 3.187 3.058 3.017 3.288 2.838 3.494 2.013 2.806 17.874-11.294-3.104-4.328-3.636-4.48-3.889-4.237-4.127-3.97-4.36-3.701-2.641-1.967zm-24.491-10.611l.161.023 4.338 1.04 4.177 1.312 4.04 1.586 3.906 1.844 3.765 2.1 1.719 1.11 13.582-16.352-4.406-2.856-4.994-2.784-5.2-2.457-5.392-2.11-5.58-1.751-4.384-1.05zm-24.242-.491l5.282-.587 5.067-.215 4.869.119 4.678.45 1.513.252 5.75-20.442-4.521-.752-6.145-.587-6.323-.165-6.502.28-6.69.743-5.878 1.05 4.631 20.615zm-55.322 70.582a35.7 35.7 0 0 1 10.784-4.576l-1.439-6.773a42.4 42.4 0 0 0-13.215 5.613zm-10.276 9.895a36 36 0 0 1 8.648-8.79l-3.87-5.74a42.8 42.8 0 0 0-10.583 10.761zm-5.475 12.505a35.4 35.4 0 0 1 4.402-10.859l-5.805-3.773a42.7 42.7 0 0 0-5.402 13.311l6.801 1.321zm-.298 14.265a35.6 35.6 0 0 1-.573-6.415c0-2.018.17-3.999.491-5.925l-6.796-1.32a43 43 0 0 0-.614 7.245c0 2.682.247 5.305.72 7.854zm4.975 12.738a35.6 35.6 0 0 1-4.571-10.817l-6.773 1.44a42.7 42.7 0 0 0 5.603 13.251zm9.895 10.307a35.9 35.9 0 0 1-8.799-8.68l-5.741 3.87a43 43 0 0 0 10.762 10.615l3.774-5.805zm12.546 5.512a35.8 35.8 0 0 1-10.909-4.434l-3.769 5.805a42.5 42.5 0 0 0 13.357 5.42zm14.311.275c-2.1.385-4.26.587-6.466.587-2.017 0-3.994-.174-5.919-.491l-1.321 6.796a43.122 43.122 0 0 0 15.141-.115l-1.435-6.772zm12.756-4.998a35.8 35.8 0 0 1-10.831 4.595l1.44 6.777a42.5 42.5 0 0 0 13.27-5.636zm10.303-9.945a36 36 0 0 1-8.671 8.84l3.87 5.736a43 43 0 0 0 10.615-10.807l-5.809-3.769zm5.466-12.555a35.5 35.5 0 0 1-4.393 10.913l5.805 3.764a42.5 42.5 0 0 0 5.388-13.357zm.243-14.316a36.1 36.1 0 0 1 .128 12.39l6.8 1.32c.386-2.32.596-4.704.596-7.139 0-2.733-.256-5.406-.752-8.001l-6.772 1.435zm-5.026-12.715a35.6 35.6 0 0 1 4.618 10.799l6.772-1.435a42.7 42.7 0 0 0-5.644-13.234l-5.741 3.87zm-9.936-10.266a36 36 0 0 1 8.836 8.643l5.741-3.87a43.1 43.1 0 0 0-10.803-10.578l-3.774 5.809zM157.8 99.814a35.5 35.5 0 0 1 10.867 4.369l3.769-5.805a42.4 42.4 0 0 0-13.32-5.36l-1.321 6.796zm-7.754-.849c1.981 0 3.929.16 5.828.472l1.32-6.79a43 43 0 0 0-7.144-.597c-2.719 0-5.374.253-7.951.743l1.44 6.773a36.3 36.3 0 0 1 6.511-.596zm-44.863 34.794a44.7 44.7 0 0 1 2.916-14.898l-7.511-3.031a52.8 52.8 0 0 0-3.512 17.924h8.102zm3.164 17.585a45 45 0 0 1-3.169-15.623h-8.097a53 53 0 0 0 3.819 18.791l7.451-3.168zm9.235 14.42a44.7 44.7 0 0 1-8.465-12.609l-7.456 3.164a53.1 53.1 0 0 0 10.194 15.177zm14.691 10.212a44.7 44.7 0 0 1-13.302-8.822l-5.727 5.731a52.8 52.8 0 0 0 15.998 10.597zm16.75 3.668a44.8 44.8 0 0 1-14.93-2.93l-3.035 7.511a53 53 0 0 0 17.97 3.521v-8.102zm17.622-3.187a45 45 0 0 1-15.655 3.187v8.102a53.1 53.1 0 0 0 18.823-3.837l-3.168-7.456zm14.43-9.262a45 45 0 0 1-12.619 8.492l3.164 7.451a53.1 53.1 0 0 0 15.186-10.22l-5.727-5.728zm10.198-14.724a44.8 44.8 0 0 1-8.804 13.339l5.722 5.723a52.7 52.7 0 0 0 10.588-16.035l-7.511-3.031zm3.636-16.75a44.7 44.7 0 0 1-2.903 14.926l7.511 3.035a52.6 52.6 0 0 0 3.494-17.965h-8.098zm-3.219-17.617a45 45 0 0 1 3.214 15.655h8.102a53.1 53.1 0 0 0-3.86-18.823zm-9.276-14.393a45 45 0 0 1 8.506 12.587l7.451-3.164a53 53 0 0 0-10.23-15.15zm-14.715-10.166a44.7 44.7 0 0 1 13.325 8.781l5.732-5.727a52.8 52.8 0 0 0-16.026-10.56l-3.031 7.511zm-16.709-3.622c4.962.1 9.992 1.032 14.884 2.889l3.036-7.516a52.7 52.7 0 0 0-17.92-3.475zm-17.584 3.201a44.9 44.9 0 0 1 15.622-3.201v-8.102a53.1 53.1 0 0 0-18.782 3.842zm-14.389 9.239a44.9 44.9 0 0 1 12.582-8.474l-3.168-7.45a53.2 53.2 0 0 0-15.146 10.197zm-10.18 14.682a44.5 44.5 0 0 1 8.795-13.288l-5.727-5.727a52.7 52.7 0 0 0-10.574 15.989l7.511 3.031zm17.122 16.714a23.8 23.8 0 0 1 1.399-7.112l-8.923-3.609a33.7 33.7 0 0 0-2.105 10.721zm1.513 9.469a24.1 24.1 0 0 1-1.517-7.507h-9.625a33.8 33.8 0 0 0 2.288 11.276l8.859-3.769zm4.801 7.845a24 24 0 0 1-4.035-6.034l-8.859 3.76a33.6 33.6 0 0 0 6.094 9.083l6.805-6.814zm7.781 5.645a23.7 23.7 0 0 1-6.396-4.251l-6.809 6.809a33.7 33.7 0 0 0 9.597 6.369zm8.969 2.15a23.6 23.6 0 0 1-7.148-1.412l-3.604 8.923a33.7 33.7 0 0 0 10.757 2.118v-9.629zm9.51-1.531a24.2 24.2 0 0 1-7.543 1.536v9.624a33.8 33.8 0 0 0 11.299-2.302l-3.76-8.858zm7.85-4.833a24.4 24.4 0 0 1-6.038 4.067l3.759 8.859a33.8 33.8 0 0 0 9.089-6.117l-6.81-6.805zm5.631-7.818a24 24 0 0 1-4.241 6.433l6.809 6.804a33.7 33.7 0 0 0 6.36-9.633l-8.928-3.609zm2.114-8.965a23.9 23.9 0 0 1-1.385 7.149l8.923 3.609a33.4 33.4 0 0 0 2.087-10.753h-9.63zm-1.554-9.496a24 24 0 0 1 1.559 7.534h9.624a33.9 33.9 0 0 0-2.325-11.299l-8.858 3.76zm-4.847-7.827a24.3 24.3 0 0 1 4.072 6.016l8.859-3.76a33.9 33.9 0 0 0-6.126-9.065zm-7.814-5.603a24 24 0 0 1 6.42 4.218l6.809-6.804a33.6 33.6 0 0 0-9.62-6.337zm-8.923-2.096c2.371.092 4.765.537 7.108 1.371l3.608-8.923a33.3 33.3 0 0 0-10.711-2.073v9.625zm-9.464 1.541a24.1 24.1 0 0 1 7.502-1.541v-9.629a33.7 33.7 0 0 0-11.262 2.311zm-7.818 4.819a24 24 0 0 1 6.007-4.053l-3.76-8.859a33.8 33.8 0 0 0-9.051 6.103l6.809 6.809zm-5.612 7.763a24 24 0 0 1 4.223-6.383l-6.809-6.809a33.5 33.5 0 0 0-6.342 9.588l8.923 3.604z" clip-rule="evenodd"/><path fill="#30529E" fill-rule="evenodd" d="M114.097 175.71l-39.659 26.957-1.201-1.178-4.118-4.347-3.86-4.411-3.614-4.48-3.36-4.535-1.596-2.352 41.955-28.512a54.54 54.54 0 0 0 15.453 22.863m87.328-22.813l41.887 28.466-1.596 2.352-3.361 4.535-3.613 4.48-3.857 4.411-4.127 4.347-1.201 1.179-39.608-26.921a54.6 54.6 0 0 0 15.476-22.849M185.733 93.67l57.95-39.384 2.788 3.03 2.788 3.44 2.604 3.636 2.417 3.82 2.21 3.993 1.99 4.145.399.977-57.551 39.108a54.5 54.5 0 0 0-15.595-22.766M56.313 54.286L114.316 93.7a54.5 54.5 0 0 0-15.576 22.776L41.12 77.323l.4-.977 1.994-4.145 2.21-3.994 2.416-3.82 2.61-3.636 2.787-3.439 2.78-3.026z" clip-rule="evenodd"/><path fill="#fff" fill-rule="evenodd" d="M108.118 169.57l-39.59 26.907-3.274-3.742-3.613-4.48-.023-.036 40.497-27.521a54.6 54.6 0 0 0 6.003 8.872m89.822-8.831l40.438 27.475-.028.037-3.613 4.48-3.274 3.741-39.535-26.87a54.2 54.2 0 0 0 6.012-8.863m-6.191-60.953l57.482-39.067.023.032 2.605 3.636 2.416 3.82.821 1.48-57.294 38.93a54.6 54.6 0 0 0-6.053-8.831M50.769 60.719l57.537 39.1a54 54 0 0 0-6.048 8.844L44.904 69.688l.82-1.481 2.417-3.82 2.61-3.636.022-.032z" clip-rule="evenodd"/><path fill="#F6BC5E" d="M170.258 128.215a21.9 21.9 0 0 0-3.068-6.103 21.8 21.8 0 0 0-4.855-4.865 22 22 0 0 0-6.053-3.072c-2.114-.688-4.361-1-6.566-1s-4.43.312-6.557 1a22.2 22.2 0 0 0-6.062 3.072 22 22 0 0 0-4.847 4.865 21.9 21.9 0 0 0-3.072 6.103 22.17 22.17 0 0 0 0 13.334 21.6 21.6 0 0 0 3.072 6.126 21.6 21.6 0 0 0 4.847 4.856 21.5 21.5 0 0 0 6.062 3.058 21.6 21.6 0 0 0 6.557 1.023 21.6 21.6 0 0 0 6.566-1.023 21.4 21.4 0 0 0 6.053-3.058 21.7 21.7 0 0 0 4.855-4.856 21.8 21.8 0 0 0 3.068-6.126 22.1 22.1 0 0 0 1.032-6.662c0-2.261-.353-4.503-1.032-6.672m-1.935 7.855a19.4 19.4 0 0 1-1.431 6.378 19 19 0 0 1-3.466 5.502 18.8 18.8 0 0 1-5.072 3.976 18.2 18.2 0 0 1-6.066 1.99 18.6 18.6 0 0 1-6.374-.197 18.7 18.7 0 0 1-5.938-2.385 19 19 0 0 1-4.819-4.296 3 3 0 0 1-.215.197l-.129-.633a19.8 19.8 0 0 1-2.233-3.865 19.2 19.2 0 0 1-1.284-4.274 19.7 19.7 0 0 1-.266-4.457 19.22 19.22 0 0 1 2.522-8.492 18.7 18.7 0 0 1 2.655-3.563c.069-.119.142-.229.211-.343l-.009.123a18.9 18.9 0 0 1 5.218-3.769 18.3 18.3 0 0 1 6.135-1.761 18.4 18.4 0 0 1 6.356.445 18.5 18.5 0 0 1 5.846 2.605 19.1 19.1 0 0 1 4.668 4.48 19.4 19.4 0 0 1 2.907 5.828c.624 2.1.894 4.31.789 6.502z"/><path fill="#F6BC5E" d="M143.558 147.992c-.083-.037-.152-.055-.207-.074q-.171-.068-.344-.142a59 59 0 0 0-2.113-.371c-.817-.129-1.807-.262-2.798-.39-.05.018-.091.041-.128.055-.156.046-.284.046-.417.055-.032.032-.064.06-.092.092a.6.6 0 0 0-.115.174c-.009.018-.009.032-.018.06.129.128.257.252.349.366.091.11.151.197.197.289.408.344.825.683 1.132.94.312.257.519.427.725.592.284.174.578.348.995.582s.967.537 1.518.839h.435c.262-.591.523-1.178.72-1.669.197-.486.339-.885.477-1.279-.115-.037-.234-.083-.326-.106zm18.341-.876a1 1 0 0 0-.183-.069 2 2 0 0 0-.363-.041c-.729.128-1.449.257-2.054.353-.605.092-1.073.142-1.55.188-.449.128-.899.261-1.265.348-.367.092-.638.147-.917.202.155.371.321.747.499 1.197.179.458.386.995.592 1.536.11.119.211.22.325.22l3.274-1.963c.39-.325.78-.651 1.092-.93.316-.271.541-.486.765-.711-.055-.051-.105-.106-.146-.147a.4.4 0 0 1-.074-.179zm1.531-7.529c-.926.197-1.847.403-2.572.545a39 39 0 0 1-1.797.326l-5.893.646c-1.155-.032-2.311-.068-3.764-.082-1.458-.018-3.219-.018-4.971-.018a356 356 0 0 0-3.732-.652 526 526 0 0 0-4.888-.765c-.092.156-.22.321-.22.431.137.646.261 1.293.353 1.802.092.5.138.885.193 1.256.082.188.174.376.279.637.115.243.239.574.372.89.114.128.238.257.366.422.129.156.262.367.399.564.546.124 1.087.238 1.757.371.674.129 1.476.257 2.283.395 2.366.22 4.728.421 7.098.66h2.183c2.37-.22 4.736-.427 7.093-.66l3.614-.656.651-.33c.146-.294.289-.596.472-1.023.179-.417.399-.944.614-1.485l.331-1.637a15 15 0 0 1-.166-.927c-.036-.27-.041-.49-.05-.706zm-28.933 2.072c-.032-.348-.073-.697-.092-1.137a38 38 0 0 1-.023-1.476c-.123-.418-.252-.84-.417-1.353-.16-.504-.358-1.114-.559-1.72v-1.637c.123-.408.243-.83.417-1.338l.559-1.72c.037-.33.074-.665.097-1.068.018-.395.018-.867.018-1.33.151-.468.298-.936.481-1.573.175-.637.395-1.444.61-2.251-.105-.11-.114-.207-.114-.33-.289.467-.583.926-.922 1.481a108 108 0 0 0-1.146 1.903c-.165.499-.326.999-.509 1.618-.179.615-.385 1.353-.583 2.091-.032.766-.068 1.532-.091 2.499-.023.958-.023 2.123-.023 3.292.064.381.128.775.183 1.078.055.312.096.546.142.77l.661 1.972c.123.215.243.426.366.702.129.27.262.605.399.935.211.27.427.55.656.908.243.371.5.825.761 1.279a.36.36 0 0 1 .106.22.33.33 0 0 0 .105-.22c.009-.032.009-.069.009-.115-.183-.522-.376-1.054-.555-1.636-.183-.583-.357-1.22-.536-1.858zm32.643-9.17c-.17-.519-.33-1.028-.514-1.688a98 98 0 0 1-.582-2.251c-.321-.647-.651-1.302-.922-1.834-.275-.523-.495-.922-.71-1.33l-.551-.546c.051.156.083.307.097.427.009.114.009.224.014.339.068.105.128.215.206.362.073.142.151.326.229.509.22.876.431 1.738.546 2.595.105.853.105 1.697.114 2.536.115.33.239.66.358 1.059.128.404.266.876.404 1.348v2.293c-.12.326-.239.651-.367 1.055-.129.399-.266.876-.395 1.348-.036.344-.073.683-.091 1.1-.014.418-.023.913-.023 1.408-.129.523-.257 1.032-.349 1.444-.091.422-.142.748-.197 1.069-.078.192-.165.403-.27.633-.115.233-.253.513-.386.779a.37.37 0 0 1 .106.22l.55-.546.023-.041a.9.9 0 0 0 .092-.385.36.36 0 0 1 .211-.119c.091-.129.188-.252.316-.454.128-.193.284-.472.449-.743.193-.5.376-1 .61-1.692.239-.688.528-1.573.816-2.458l.326-2.618a37 37 0 0 1-.092-1.646c-.013-.642-.013-1.403-.023-2.169z"/><path fill="#F6BC5E" d="M163.43 131.828a330 330 0 0 0-3.145-.541c-.908-.137-1.61-.238-2.32-.33a77 77 0 0 0-2.155-.289c-.743-.096-1.518-.179-2.288-.266-.661-.069-1.33-.142-1.991-.215h-3.608l-11.784 1.637a2 2 0 0 0-.184.069 3 3 0 0 0-.344.151c-.073.023-.156.069-.243.11-.128.454-.261.908-.367 1.275-.11.366-.201.637-.284.907v1.637c.078.294.165.578.28.922.11.344.238.752.376 1.156.729.229 1.458.472 2.499.692 1.031.211 2.375.417 3.723.614.72.074 1.431.138 2.545.248a726 726 0 0 1 4.118.404h2.939c.44-.028.885-.065 1.554-.12.674-.055 1.582-.128 2.495-.206 1.774-.326 3.544-.647 5.007-.908 1.458-.257 2.586-.44 3.723-.614.078-.175.156-.349.229-.569.074-.211.142-.481.207-.743.036-.38.068-.761.091-1.21.014-.459.023-.986.023-1.518-.133-.39-.261-.784-.353-1.11-.091-.33-.137-.591-.192-.862a4 4 0 0 1-.344-.179.8.8 0 0 1-.202-.151z"/><path fill="#F6BC5E" d="M135.914 130.632c2.04-.335 4.076-.661 5.754-.918 1.67-.252 2.976-.431 4.288-.614.633-.032 1.252-.069 2.04-.092.78-.013 1.72-.013 2.651-.013l4.589.321c1.106.21 2.206.417 3.595.655 1.385.234 3.045.5 4.705.766.037-.22.073-.431.092-.711.013-.27.013-.605.013-.931a24 24 0 0 1-.366-1.27 45 45 0 0 1-.39-1.673c-.119-.175-.239-.34-.367-.564-.128-.22-.261-.482-.399-.752l-.766-.431a56 56 0 0 0-2.114-.376c-.811-.129-1.802-.253-2.792-.39a268 268 0 0 0-4.269-.353c-1.238-.092-2.201-.138-3.159-.193-.972.119-1.944.234-3.164.367-1.22.128-2.687.266-4.154.399l-3.93.651c-.128.06-.252.129-.349.174-.082.06-.137.106-.197.152-.009.013-.013.032-.018.041a.9.9 0 0 0-.092.399.33.33 0 0 1-.211.105c-.11.225-.22.454-.344.766-.128.307-.27.697-.417 1.091a53 53 0 0 0-.358 1.857c-.091.551-.142.986-.188 1.422.097.105.207.115.326.115zm1.637-7.649c.064.028.128.055.183.074.101.027.262.036.362.041 1.17-.152 2.348-.298 3.201-.404.853-.114 1.394-.183 1.93-.257.211-.215.441-.33.652-.435-.257-.582-.514-1.169-.716-1.637a38 38 0 0 1-.481-1.201h-.436c-.417.247-.834.495-1.343.784-.5.284-1.11.623-1.711.958a1.2 1.2 0 0 1-.206.307c-.037.041-.083.083-.119.124a.8.8 0 0 1-.44.119c-.124.124-.239.257-.317.34-.073.073-.091.105-.22.238-.124.138-.335.376-.555.614.06.055.115.115.142.161.046.06.074.096.078.17zm18.401-.738c.11.064.247.128.376.192.545.069 1.091.143 1.926.253.839.101 1.962.256 3.095.408a.32.32 0 0 0 .22.105c.041-.105.078-.215.11-.293.027-.087.046-.133.059-.193.023-.082.046-.174.055-.28l-1.091-1.095c-.454-.312-.908-.638-1.27-.895a40 40 0 0 0-.912-.623 27 27 0 0 1-.899-.372c-.257-.11-.45-.197-.633-.288-.037.036-.078.055-.115.078a.7.7 0 0 1-.211.032c-.169.366-.325.738-.504 1.192-.179.458-.394.995-.591 1.536.133.082.238.156.385.238zm-10.537-.353c.165.041.325.069.532.096.197.014.435.018.678.018.981-.032 1.976-.068 3.233-.091 1.256-.014 2.774-.023 4.296-.023.216-.427.418-.848.651-1.394s.505-1.215.771-1.875c-.115-.106-.23-.221-.33-.221-.395-.105-.789-.22-1.316-.348-.532-.128-1.193-.271-1.848-.413a27 27 0 0 0-1.247-.091 56 56 0 0 0-1.596-.023c-.688.068-1.385.142-1.908.192-.527.055-.894.101-1.261.138-.197.041-.394.082-.632.142-.243.055-.509.115-.785.192-.137.078-.247.156-.421.253a3 3 0 0 1-.344.179c.334.655.655 1.32.912 1.861.257.546.44.977.619 1.408zm8.73 26.425c-1.518 0-3.04 0-4.296-.023a121 121 0 0 1-3.233-.082c-.243 0-.477 0-.683.023a3.3 3.3 0 0 0-.528.082c-.174.431-.357.867-.614 1.408-.257.55-.578 1.206-.912 1.871.123.055.224.105.311.16.078.037.147.078.22.129.083.045.166.096.234.142.275.064.546.137.784.192.234.051.431.092.633.138.367.041.738.073 1.261.137.523.055 1.215.12 1.908.188.559 0 1.118 0 1.595-.023.477-.013.853-.05 1.248-.087.655-.142 1.316-.284 1.847-.412.528-.124.922-.239 1.316-.353.101 0 .202-.092.331-.216-.271-.669-.537-1.33-.775-1.875a24 24 0 0 0-.651-1.399z"/><path fill="#F6BC5E" fill-rule="evenodd" d="M103.019 76.084v-1.09c1.948-.074 3.154-.533 3.164-2.633l.11-17.53c.009-2.742-.739-3.2-3.274-3.59V50.15h11.009v1.091c-2.591 0-3.384 1.133-3.384 3.517v7.158h15.911c0-2.802-.092-5.617-.192-8.419-.046-2-1.669-2.059-3.183-2.256V50.15h11.221v1.091c-1.546 0-3.375.284-3.375 2.265v18.951c0 2.128 1.774 2.28 3.375 2.54v1.092H123.18v-1.091c1.88-.046 3.242-.51 3.265-2.582l.106-8.639H110.64v8.648c0 2.155 1.742 2.343 3.383 2.577v1.092h-11.009m61.897-.01v-1.09c2.596-.074 3.054-1.152 3.206-3.545l1.004-16.645c.174-2.774.069-3.2-2.352-3.563V49.93l7.084.105 8.18 18.96 8.171-18.96 7.08-.105v1.311c-2.348 0-2.559.66-2.412 2.838l1.215 17.746c.22 3.154.583 2.81 3.384 3.168v1.091h-11.115v-1.09c2.88-.074 3.43-.39 3.279-3.188l-.94-17.332-8.877 21.39h-1.417l-9.088-21.381-1.005 17.071c-.114 2.834.464 2.994 3.118 3.444v1.091h-8.505m52.071 53.58c.481-7.543 6.103-14.288 15.296-14.435 4.664-.078 8.176 1.591 12.505 1.165.013 2.54.114 5.089.224 7.625-.536-.023-.779-.087-1.311-.22-2.297-5.81-7.328-7.405-11.275-7.02-5.75.559-10.313 5.924-9.987 12.908.316 6.703 1.439 13.723 12.926 14.159 4.782.179 7.286-3.343 9.867-6.635a5.5 5.5 0 0 0 1.092-.105c-.285 1.32-2.041 4.892-2.692 7.107-.069.252-.243.431-.353.623-.908 0-1.889-.114-2.806-.064-12.206 3.1-24.353-1.426-23.473-15.104M56.216 145.057l-.055-1.307c2.137-.353 3.37-.399 3.37-2.866 0-4.443-.009-8.813.023-12.334l.083-9.194c.023-1.958-1.921-2.201-3.48-2.201v-1.302H80.67v5.883h-1.302c-.188-1.499-.514-3.604-2.687-3.604-3.898 0-7.8-.009-11.698-.106v10.35c3.756 0 7.52-.188 11.276-.188 1.568 0 1.683-1.702 2.013-2.857h1.311v8.712h-1.311c-.38-2.224-.67-3.595-3.375-3.595h-9.914l.101 10.391c.032 2.627 1.743 2.645 3.93 2.902v1.307H56.216m76.552 85.003h33.57v3.049h-33.57zm23.532-8.387l8.726-20.927c-3.072 0-6.14-.005-9.212-.083-1.811-.05-1.751.793-2.022 2.261h-1.091c.018-1.853.105-3.705.22-5.553h15.255c0 .481-.018.94-.105 1.417l-9.047 22.771c-.913.013-1.807.022-2.724.114m-43.583-17.883v-.972c2.233-1.352 5.392-3.021 6.538-5.447l1.747.105.294 20.52c.023 1.733.238 2.586 3.384 2.586h.023v1.087h-10.895v-1.087c2.545 0 3.613-.339 3.586-2.499l-.207-16.351c-.632.399-3.865 1.98-4.47 2.058" clip-rule="evenodd"/><path fill="#F6BC5E" d="M145.901 214.992c-.184-3.319-2.839-5.062-5.319-6.602 7.657-3.082 5.002-10.831-2.641-10.996-7.644-.165-9.35 9.441-2.66 12.275-3.333 1.834-5.291 4.654-4.503 7.488 2.132 7.689 15.581 6.039 15.127-2.165zm-11.638-14.095c.505-1.784 2.151-2.481 3.856-2.481 5.521 0 5.044 7.222 1.293 9.405-2.544-1.582-6.437-2.32-5.149-6.924m4.31 19.9c-5.988.262-6.098-7.446-2.1-10.362 1.775.853 3.522 1.403 4.902 2.833 2.187 2.266 1.201 7.36-2.802 7.529m44.694-8.372v-15.402h-1.848l-10.418 15.402-.353.522v1.61h8.982v7.162h3.637v-7.162h3.475v-2.137h-3.475zm-3.637 0h-7.286l7.286-10.771z"/><path fill="#F6BC5E" fill-rule="evenodd" d="M149.752 59.426a3.67 3.67 0 0 1 3.673 3.668 3.68 3.68 0 0 1-3.673 3.678 3.67 3.67 0 0 1-3.668-3.678 3.667 3.667 0 0 1 3.668-3.668" clip-rule="evenodd"/></g><defs><clipPath id="a"><path fill="#fff" d="M0 0h300v285.996H0z"/></clipPath></defs></svg>