<svg fill="none" viewBox="0 0 63.79 100" xmlns="http://www.w3.org/2000/svg"><path d="M0 24.891h63.79v25.625c-.118 4.805-.774 9.628-2.112 14.253-2.714 9.438-8.368 17.574-15.474 24.24-4.4 4.149-9.308 7.608-14.308 10.991-5.001-3.383-9.908-6.842-14.31-10.99-7.102-6.667-12.76-14.803-15.474-24.241C.775 60.145.12 55.321 0 50.517zm31.901-13.454l4.673 3.472-1.75-5.67 4.626-3.534-5.74-.034L31.901 0l-1.82 5.67-5.737.035 4.624 3.534-1.739 5.67zM16.37 18.998l-4.67 3.473 1.749-5.67-4.625-3.533 5.74-.035 1.807-5.671 1.818 5.671 5.742.035-4.622 3.533 1.735 5.67zm35.721 3.473l-4.672-3.473-4.672 3.473 1.74-5.67-4.624-3.533 5.737-.035 1.82-5.671 1.808 5.671 5.74.035-4.625 3.533z" fill="#db9e4d"/><path d="M1.834 26.73h60.129v23.742c-.12 4.648-.755 9.307-2.046 13.79C57.29 73.41 51.83 81.217 44.95 87.686c-4.026 3.792-8.475 7.01-13.052 10.096-4.578-3.087-9.028-6.304-13.055-10.096C11.966 81.217 6.505 73.41 3.875 64.264 2.587 59.78 1.95 55.121 1.834 50.473z" fill="#fff"/><g fill="red"><path clip-rule="evenodd" d="M60.115 28.565H3.675v21.86c.117 4.788.786 9.237 1.974 13.344 2.547 8.866 7.77 16.295 14.45 22.579 3.648 3.44 7.642 6.42 11.798 9.225 4.153-2.805 8.144-5.785 11.796-9.225 6.68-6.284 11.904-13.713 14.45-22.579 1.187-4.107 1.855-8.556 1.972-13.344zM5.503 50.393V30.408h52.769L37.834 46.245l18.631.13-15.005 11.43 5.707 18.554-15.272-11.353L16.62 76.36l5.706-18.553L8.98 67.753a45 45 0 0 1-1.576-4.485c-1.135-3.958-1.783-8.252-1.9-12.875" fill-rule="evenodd"/><path d="M12.35 41.093V37.64c-.668 0-1.151.153-1.445.468-.294.308-.445.715-.445 1.342 0 1.172.634 1.643 1.89 1.643m1.55 0c.41 0 .775-.07 1.069-.214.292-.14.505-.34.633-.586.128-.233.188-.483.188-.951 0-1.174-.634-1.702-1.89-1.702zm0 1.49v.948h-1.55v-.948c-1.174-.048-2.089-.412-2.725-1.059-1.08-1.103-.997-3.276.108-4.39.55-.552 1.42-.867 2.617-.915v-.808h1.55v.808c1.243.047 2.112.375 2.641.952 1.02 1.078 1.15 3.04.234 4.166-.623.776-1.596 1.197-2.874 1.246m4.906.948v-7.616h1.538v3.062l2.957-3.062h2.126L22.2 39.12l3.251 4.411h-2.044L21.07 40.19l-.725.714v2.628z"/><path d="M31.896 63.034L19.558 72.2l4.611-14.978-12.195-9.301 15.14-.105 4.782-14.942 4.778 14.942 15.14.105-12.195 9.301L44.236 72.2z"/></g></svg>