<svg height="566.929" width="566.929" xmlns="http://www.w3.org/2000/svg" xmlns:xlink="http://www.w3.org/1999/xlink"><clipPath id="b"><path d="M0 0h566.929v566.929H0z"/></clipPath><clipPath id="c"><path d="M275.514 52.161l-23.586.704 18.67 14.433-6.62 22.629 19.482-13.295 19.49 13.295-6.62-22.629 18.658-14.433-23.582-.704-7.946-22.21z"/></clipPath><linearGradient id="a"><stop offset="0" stop-color="#968f40"/><stop offset=".004" stop-color="#989142"/><stop offset=".159" stop-color="#cfc99b"/><stop offset=".267" stop-color="#f0eddc"/><stop offset=".319" stop-color="#fff"/><stop offset=".334" stop-color="#fdfcf8"/><stop offset=".347" stop-color="#f9f7eb"/><stop offset=".359" stop-color="#f3f0d8"/><stop offset=".371" stop-color="#ede7c0"/><stop offset=".383" stop-color="#e3dca2"/><stop offset=".387" stop-color="#e0d898"/><stop offset=".39" stop-color="#ddd594"/><stop offset=".42" stop-color="#c7bf78"/><stop offset=".454" stop-color="#b5ad63"/><stop offset=".495" stop-color="#a79f53"/><stop offset=".545" stop-color="#9d9648"/><stop offset=".615" stop-color="#989142"/><stop offset=".81" stop-color="#968f40"/><stop offset="1" stop-color="#968f40"/><stop offset="1" stop-color="#989142"/><stop offset="1" stop-color="#cfc99b"/><stop offset="1" stop-color="#f0eddc"/><stop offset="1" stop-color="#fff"/></linearGradient><linearGradient id="d" gradientTransform="scale(71.5592 -71.5592) rotate(-46.736 -654.958 278.825)" gradientUnits="userSpaceOnUse" x2="1" xlink:href="#a" y1="566.978" y2="566.978"/><clipPath id="e"><path d="M72.598 439.772C-13.598 323.516 10.875 158.795 127.139 72.61c116.261-86.201 280.98-61.734 367.173 54.53 86.2 116.275 61.74 280.976-54.536 367.188-46.889 34.754-101.667 51.514-155.984 51.517-80.377.005-159.758-36.687-211.194-106.073M121.9 65.561C1.758 154.633-23.521 324.859 65.553 445.009c89.068 120.145 259.296 145.429 379.456 56.358 120.146-89.075 145.44-259.296 56.365-379.452C448.223 50.231 366.17 12.315 283.12 12.308c-56.151-.005-112.746 17.32-161.22 53.253"/></clipPath><linearGradient id="f" gradientTransform="scale(573.7113 -573.7113) rotate(-42.214 -734.494 283.224)" gradientUnits="userSpaceOnUse" x2="1" y1="566.921" y2="566.921"><stop offset="0" stop-color="#fff"/><stop offset=".061" stop-color="#6d6e71"/><stop offset=".103" stop-color="#707173"/><stop offset=".136" stop-color="#77797b"/><stop offset=".167" stop-color="#848688"/><stop offset=".196" stop-color="#96989a"/><stop offset=".224" stop-color="#aeb0b2"/><stop offset=".25" stop-color="#cdcfd0"/><stop offset=".276" stop-color="#f2f2f3"/><stop offset=".282" stop-color="#fff"/><stop offset=".5" stop-color="#6d6e71"/><stop offset=".518" stop-color="#6f7072"/><stop offset=".525" stop-color="#747578"/><stop offset=".53" stop-color="#7d7e81"/><stop offset=".534" stop-color="#898b8e"/><stop offset=".537" stop-color="#9a9c9e"/><stop offset=".54" stop-color="#afb1b4"/><stop offset=".542" stop-color="#caccce"/><stop offset=".545" stop-color="#e8e9ea"/><stop offset=".546" stop-color="#fff"/><stop offset=".618" stop-color="#fafafa"/><stop offset=".68" stop-color="#f0f0f1"/><stop offset=".739" stop-color="#e1e2e3"/><stop offset=".795" stop-color="#ccced0"/><stop offset=".85" stop-color="#b1b4b6"/><stop offset=".902" stop-color="#939598"/><stop offset="1" stop-color="#d1d3d4"/></linearGradient><clipPath id="g"><path d="M0 0h566.929v566.929H0z"/></clipPath><clipPath id="h"><path d="M172.319 231.164c0 33.725-17.329 62.164-17.329 92.718 0 40.367 27.515 86.944 117.359 115.392-30.977-14.481-112.285-42.91-112.285-116.219 0-26.163 18.626-57.898 18.626-84.89 0-36.779-19.781-54.541-19.781-54.541s13.41 16.201 13.41 47.54"/></clipPath><linearGradient id="i" gradientTransform="matrix(117.3584 0 0 -117.3584 155 66845.336)" gradientUnits="userSpaceOnUse" x2="1" xlink:href="#a" y1="566.928" y2="566.928"/><clipPath id="j"><path d="M388.243 238.165c0 26.992 18.629 58.727 18.629 84.89 0 73.309-81.312 101.737-112.292 116.219 89.86-28.447 117.366-75.024 117.366-115.392 0-30.555-17.324-58.993-17.324-92.718 0-31.339 13.397-47.54 13.397-47.54s-19.776 17.762-19.776 54.541"/></clipPath><linearGradient id="k" gradientTransform="scale(140.6994 -140.6994) rotate(-55.877 -535.145 280.37)" gradientUnits="userSpaceOnUse" x2="1" xlink:href="#a" y1="566.94" y2="566.94"/><clipPath id="l"><path d="M0 0h566.929v566.929H0z"/></clipPath><path clip-path="url(#b)" d="M283.46 566.929C127.152 566.929 0 439.773 0 283.462 0 127.165 127.152 0 283.46 0c156.309 0 283.469 127.165 283.469 283.462 0 156.311-127.16 283.467-283.469 283.467"/><path clip-path="url(#c)" d="M285.367-1.521l59.554 63.276-63.372 59.644-59.554-63.275z" fill="url(#d)"/><path clip-path="url(#e)" d="M253.656-319.125l637.38 578.223-577.764 636.874-637.38-578.222z" fill="url(#f)"/><path clip-path="url(#g)" d="M285.223 465.064l-2.319-.777c-.706-.236-70.637-23.782-114.299-51.226-40.223-25.278-57.376-50.648-57.376-84.832 0-23.404 6.528-42.335 12.845-60.643 5.609-16.265 10.908-31.628 10.908-48.564 0-26.569-13.58-44.143-17.736-48.899-1.546-1.762-2.327-3.648-2.327-5.601 0-2.837 1.645-5.611 4.088-6.884 69.029-35.936 146.726-37.754 161.603-37.754 1.804 0 2.801.029 2.9.029 0 0 .998-.029 2.806-.029 14.868 0 92.565 1.818 161.606 37.752 2.446 1.286 4.089 4.052 4.089 6.886 0 1.962-.781 3.843-2.332 5.605-4.15 4.757-17.728 22.361-17.728 48.895 0 16.936 5.29 32.299 10.9 48.564 6.316 18.308 12.845 37.238 12.845 60.643 0 34.192-17.149 59.558-57.367 84.832-40.068 25.174-102.303 47.099-113.106 50.818zm-4.614-341.662c-14.731 0-91.672 1.797-159.978 37.35-1.292.68-2.198 2.228-2.198 3.77 0 1.092.474 2.169 1.455 3.289 4.364 4.984 18.609 23.419 18.609 51.211 0 17.522-5.399 33.157-11.1 49.71-6.229 18.039-12.653 36.684-12.653 59.497 0 32.82 16.663 57.306 55.725 81.853 41.249 25.927 106.267 48.4 112.983 50.686 8.71-2.979 72.402-25.184 113.006-50.686 39.062-24.547 55.727-49.023 55.727-81.853 0-22.812-6.433-41.458-12.658-59.497-5.701-16.553-11.095-32.188-11.095-49.71 0-27.757 14.233-46.214 18.601-51.211.988-1.12 1.463-2.197 1.463-3.289 0-1.537-.906-3.09-2.203-3.772-68.301-35.551-145.254-37.348-159.977-37.348-1.816 0-2.797.023-2.797.023-.117 0-1.098-.023-2.91-.023" fill="#fff"/><path clip-path="url(#g)" clip-rule="evenodd" d="M185.31 184.976c2.796-1.855 6.598-2.041 8.955.511 2.36 2.563 1.21 5.64-1.576 7.488-2.796 1.86-6.598 2.049-8.963-.512-2.352-2.555-1.213-5.629 1.584-7.487m-3.063-3.325c-5.461 3.613-7.654 9.196-3.271 13.968 4.389 4.758 11.32 4.283 16.764.677 5.469-3.612 7.667-9.189 3.278-13.951-4.387-4.766-11.306-4.3-16.771-.694m32.712-4.052l3.616-1.43c.847.468 7.131 3.24 7.289 3.523.203.37 0 .641-.503.88l.207.378 7.684-3.037-.204-.381c-.411.173-.827.142-1.383-.132l-7.214-3.468c2.668-1.933 4.039-4.349 2.456-7.227-1.975-3.563-5.191-4.278-10.652-2.113l-13.521 5.345.207.373c.948-.303 1.188-.133 1.343.143l8.032 14.597c.145.274.158.54-.723.967l.199.375 7.614-3.002-.216-.374c-.952.295-1.181.12-1.339-.16zm-3.731-6.757l6.222-2.452c2.173-.858 3.282-.314 3.785.593.507.905.283 1.984-1.903 2.85l-6.208 2.458zm31.749-12.857c-.075-.304-.021-.567.947-.825l-.103-.408-8.179 1.599.105.411c1.013-.129 1.188.087 1.271.382l4.276 15.682c.079.303.029.562-.943.831l.107.405 20.737-4.058c.432-.089.636.052.948.738l.481-.102-1.62-5.924-.474.091c.092.809-.021.997-.457 1.091l-13.663 2.679zm36.336-1.828l4.123 8.161-7.583.101zm5.232 10.908c.17.446 1.454 2.942 1.454 3.088.009.206-.195.378-.772.424l.013.407 8.028-.112-.009-.418c-.486 0-.739-.198-1.163-1.023-2.635-5.2-7.854-15.454-7.863-15.73-.008-.345.283-.42.724-.465l-.008-.408-10.638.16.016.41c.358.024.815.091.823.328 0 .216-6.574 15.504-6.923 16.307-.242.552-.474.695-1.043.809l.004.408 7.214-.104v-.407c-.574.008-.744-.138-.744-.341-.012-.217.229-.654 1.239-3.191zm16.942 3.777c-.075.304-.249.521-1.271.407l-.1.404 7.579 1.376.105-.411c-.994-.247-1.049-.51-.97-.81l2.664-10.607c8.016 11.863 8.901 12.473 8.797 12.92-.058.237-.291.33-1.014.203l-.103.404 7.574 1.375.1-.411c-.973-.255-1.03-.505-.964-.813l3.952-15.741c.079-.299.253-.514 1.275-.407l.108-.4-7.298-1.318-.111.404c.511.133.793.35.686.761l-2.261 9.016c-2.136-3.101-7.48-10.562-7.385-10.936.054-.201.308-.363 1.222-.232l.104-.406-9.608-1.732-.096.406c.977.239 1.035.508.96.819zm32.796 7.001c-.158.276-.378.46-1.338.151l-.208.373 11.848 4.689c6.877 2.72 12.558.154 14.914-4.13 2.568-4.667 1.354-9.486-5.443-12.164l-12.264-4.854-.208.379c.894.428.886.684.729.966zm12.051-9.643l4.696 1.849c3.91 1.552 4.463 4.06 3.004 6.714-1.467 2.659-4.076 3.912-7.999 2.362l-4.696-1.858zm33.693 16.85c2.789 1.852 3.932 4.933 1.579 7.501-2.36 2.55-6.162 2.361-8.951.503-2.802-1.849-3.939-4.932-1.587-7.482 2.361-2.567 6.162-2.364 8.959-.522m3.055-3.318c-5.456-3.619-12.371-4.08-16.768.682-4.389 4.764-2.182 10.343 3.271 13.955 5.464 3.617 12.388 4.08 16.78-.682 4.384-4.763 2.182-10.342-3.283-13.955M199.684 376.583l5.909 3.698c4.131 2.575 7.849 1.388 9.675-1.529 1.819-2.917 1.295-6.815-2.839-9.399l-11.765-7.352-.24.402c.776.574.739.873.548 1.156l-9.558 15.292c-.183.3-.424.478-1.284.024l-.245.391 6.765 4.23.233-.395c-.773-.577-.723-.868-.532-1.168zm4.525-7.248l4.999 3.117c1.771 1.105 2.319 2.186 1.529 3.466-.864 1.38-2.119 1.413-3.889.299l-4.987-3.1zm20.633 28.433l.179-.432c-.869-.433-.877-.731-.744-1.056l6.753-16.723c.128-.324.344-.523 1.271-.228l.171-.445-7.389-2.983-.175.432c.865.441.873.731.74 1.056l-6.753 16.714c-.128.328-.345.536-1.276.25l-.17.424zm19.178-1.72l3.694.855c.308.906 3.101 7.027 3.017 7.368-.091.457-.441.573-.981.494l-.099.449 7.849 1.815.105-.461c-.433-.1-.724-.35-.943-.927l-3.009-7.293c3.341-.142 6.029-1.463 6.827-4.937.989-4.289-.935-6.812-6.516-8.087l-13.8-3.191-.113.448c.931.299.982.574.906.932l-4.064 17.561c-.074.342-.245.582-1.213.441l-.099.457 7.77 1.787.108-.453c-.931-.295-.989-.578-.898-.919zm1.874-8.145l6.342 1.472c2.222.511 2.676 1.637 2.418 2.742-.245 1.089-1.151 1.912-3.374 1.388l-6.337-1.454zm34.05 3.99l3.591 9.274-7.197-.125zm4.547 12.396c.146.503 1.255 3.345 1.255 3.494 0 .241-.208.424-.74.449l-.017.466 7.63.133.008-.466c-.465-.004-.689-.236-1.06-1.172-2.302-5.925-6.853-17.582-6.853-17.884 0-.392.274-.467.698-.499l.013-.458-10.103-.175v.457c.346.042.773.142.757.398 0 .237-6.832 17.143-7.197 18.027-.254.615-.474.773-1.023.881l-.016.457 6.848.125.025-.464c-.549 0-.699-.167-.699-.4 0-.224.25-.731 1.305-3.536zm27.892 1.529l-.074-.466c-.973.079-1.122-.166-1.181-.507l-2.261-14.308 6.583-1.039c.407-.075.603.1.852.965l.457-.075-1.076-6.803-.461.079c.017.897-.096 1.105-.524 1.176l-18.878 2.987c-.424.062-.611-.1-.865-.951l-.452.062 1.08 6.807.453-.073c-.021-.899.1-1.115.52-1.173l6.574-1.048 2.265 14.296c.058.341-.009.631-.956.863l.07.449zm26.912-22.008l-.433.166c.066.507-.041.96-.765 1.242l-6.715 2.576-1.155-2.991 11.602-4.464c.399-.141.603-.016 1.039.77l.433-.171-2.419-6.291-.432.184c.207.859.137 1.096-.259 1.254L322.157 383l.166.44c.931-.282 1.139-.066 1.264.267l6.457 16.829c.134.329.121.615-.76 1.039l.17.433 18.027-6.924c.391-.149.619-.017.955.549l.433-.166-2.41-6.292-.434.171c.242.951.159 1.18-.231 1.342l-11.594 4.438-1.293-3.358 6.716-2.576c.728-.273 1.113-.017 1.404.42l.437-.17zm17.449 5.565l.457-.15c.062-.315.116-.677.387-.839.748-.466 4.118-.482 9.607-3.907 7.131-4.445 7.306-8.9 5.543-11.723-4.721-7.551-16.069 4.518-17.894 1.601-.474-.748.017-2.161 2.863-3.948 3.096-1.92 7.413-3.341 7.916-2.518l.233.365.523-.05-.586-5.984-.453.091c-.062.408-.146.786-.578 1.04-.885.565-4.99 1.222-9.495 4.022-4.816 3.009-6.562 7.256-4.513 10.521 3.964 6.342 15.816-4.799 17.328-2.364.906 1.438-.083 3.146-3.365 5.203-3.416 2.132-7.846 2.847-8.403 1.97-.187-.304-.332-.528-.365-.736l-.433.038zm-81.08-77.718c-5.397 2.41-14.386 6.308-17.768 7.704-23.459 9.691-33.603 13.983-33.931 14.266-2.224 1.809-.731 3.732-3.569 8.498-3.383 5.711-6.292 6.351-6.292 6.351 3.906.864 11.02-8.901 12.367-11.129 1.039-1.712 5.427-3.3 5.427-3.3s20.267-8.834 46.8-20.981zm13.689-6.187l3.042 1.374c16.041-7.249 38.307-17.333 40.479-18.636 5.839-3.512 12.716-2.637 12.716-2.637 2.365-1.502-13.459-.75-16.298.862-2.298 1.293-21.879 10.697-39.939 19.037m-61.561 33.647s-10.405 16.082-17.266 12.441c0 0-3.204-1.026-2.427-6.375 0 0 .914-.689-.004-2.717 0 0 1.6 1.154 1.6 4.085-.008 2.847 3.507 1.134 3.362-.491-.175-2.082-3.823-5.045-8.599-8.024 0 0-2.314-3.271 1.647-7.022 0 0 6.274-.789 14.216-2.136 4.529-.761 5.934-2.243 14.877-6.042 5.144-2.19 20.62-8.969 33.177-14.558-19.664-9.106-39.473-18.183-42.573-19.238-6.766-2.318-16.248 1.374-21.031-6.046-3.562-5.513 3.593-5.166 6.154-6.807 1.579-1.02 1.592-2.153 1.134-4.351-.482-2.354-1.445-5.519 2.527-7.117 2.942-1.182 2.693-2.828 8.876 5.132 2.294 2.945 7.497 6.136 14.785 11.295 3.458 2.446 23.143 11.655 43.643 20.959 19.032-8.679 40.517-18.683 43.724-20.959 7.281-5.159 12.484-8.35 14.787-11.295 6.166-7.96 5.934-6.314 8.867-5.132 3.978 1.598 3.014 4.763 2.527 7.117-.457 2.198-.44 3.331 1.139 4.351 2.563 1.641 9.716 1.294 6.149 6.807-4.782 7.42-14.266 3.728-21.026 6.046-2.818.956-24.344 10.802-42.528 19.201 14.079 6.308 26.887 11.936 33.128 14.595 8.942 3.799 10.355 5.281 14.877 6.042a377 377 0 0 0 14.221 2.136c3.956 3.752 1.637 7.022 1.637 7.022-4.771 2.979-8.419 5.942-8.589 8.024-.134 1.625 3.361 3.338 3.361.491 0-2.931 1.6-4.085 1.6-4.085-.918 2.027-.008 2.717-.008 2.717.777 5.349-2.423 6.375-2.423 6.375-6.873 3.641-17.278-12.441-17.278-12.441-7.077-5.909-14.72-6.176-37.384-16.764a7337 7337 0 0 1-16.623-7.738l-16.854 7.738c-22.678 10.588-30.312 10.855-37.402 16.764m-9.533-53.545s6.882-.875 12.721 2.637c3.39 2.02 43.654 19.924 56.453 25.858 35.435 16.423 44.531 19.979 44.531 19.979s4.389 1.588 5.428 3.3c1.346 2.228 8.461 11.993 12.358 11.129 0 0-2.909-.64-6.3-6.351-2.83-4.766-1.338-6.689-3.558-8.498-.336-.282-10.472-4.574-33.926-14.266-27.609-11.411-67.595-30.766-71.405-32.927-2.829-1.611-18.654-2.363-16.302-.861m-4.953-12.834c.332 1.836 1.063 3.789-1.213 4.541-1.775.568-5.245 2.419-4.256 3.207 0 0 .997-1.102 4.48-1.47 3.308-.352 4.679-1.452 3.682-3.254-1.018-1.811-2.776-4.12-2.378-6.786.068-.39-.831.907-.315 3.762m61.951 13.204c-6.831-2.479-13.152-5.718-15.732-6.707-3.208-1.241-2.777-3.036-3.409-4.464-.831-1.834.267-9.53.35-12.451.1-4.125-2.867-6.165-1.837-6.006 1.039.147 3.317.753 3.765 6.006.158 2.009.108 5.456.108 5.456s.158 1.38 2.676 2.451c7.265 3.084 15.85 4.728 20.45 4.728 4.496 0 13.56-1.644 20.823-4.728 2.519-1.071 2.668-2.451 2.668-2.451s.689-3.447.852-5.456c.44-5.253 2.73-5.859 3.761-6.006 1.035-.159-1.932 1.881-1.832 6.006.079 2.921.428 10.617-.387 12.451-.636 1.428-.208 3.223-3.416 4.464-2.568.989-8.889 4.087-15.716 6.553-1.422.507-4.21-1.012-6.354-1.165-1.031-.075-5.357 1.824-6.77 1.319m-14.345-28.609c-.228-1.86-1.047-.752-1.579-.575-.798-.098-1.251 1.248-.166 2.908.312.482 0 1.238 1.255 1.669 1.279.444.652-2.585.49-4.002m42.129.586c.171-1.001.773-1.338 1.33-1.161 1.413-.672 1.745 1.08.661 2.748-.32.486-.516 1.398-1.75 1.829-1.288.444-.49-2.009-.241-3.416m-28.216 1.774s.399 1.1 7.032 1.1c6.191 0 6.939-1.1 6.939-1.1-.05-6.357-3.657-9.562-3.657-9.562-1.479-5.647-3.241-5.446-3.241-5.446s-2.086-.097-3.408 5.446c0 0-3.574 3.349-3.665 9.562m2.294-28.947c-.707.658-1.471 1.132-2.327.984-.574-.101-1.055-.477-1.355-1.263-1.139-2.951.515-2.693-.939-3.312-.523-.214-.217.854-2.26-.426-1.148-.715-4.331 2.707-4.763 2.707-3.868 0-9.217 3.886-9.438 8.981-.269 6.237-.302 7.713 8.249 9.445 0 0-2.343 1.671-4.695 6.9 0 0-3.773.709-5.535-1.732 0 0-1.509-1.758-3.707-3.198-3.35-2.198-3.582-4.489-3.715-4.638-.37-.444-.391-5.778.341-6.571 3.918-4.198 7.006-6.874 5.019-15.033-1.163-4.8-2.8-4.875-3.495-5.864 0 0-2.983 4.44-.564 8.795 2.281 4.131.411 8.282-1.185 9.191-1.588.905-.69-.134-.69-.134s1.729-2.319-1.525-11.319c-3.254-9.009-.586-29.948 20.811-35.706a65.6 65.6 0 0 1 15.987-2.279h.955c4.913.085 10.249.888 15.996 2.279 20.309 4.925 24.053 26.697 20.803 35.706-3.254 9-1.525 11.319-1.525 11.319s.898 1.039-.689.134c-1.588-.909-4.982-5.239-2.743-8.911 4.181-6.875.175-9.891.175-9.891-.682.992-2.161 1.813-3.333 6.619-1.736 7.117 1.696 13.226 5.262 17.123.527.576.199 2.768.507 4.542.096.551-2.867 2.44-2.867 2.44-2.028 7.928-9.837 7.128-9.837 7.128-2.348-5.229-4.691-6.9-4.691-6.9 8.553-1.732 8.502-3.208 8.24-9.445-.212-5.095-5.56-8.981-9.433-8.981-.52 0-4.409-4.629-6.702-2.763-1.223 1 .145.843-.998 3.794-.798 2.082-2.419 1.298-3.89.062-.628.541-1.505 1.276-2.228 1.91 1.18 1.207 2.145 3.07 2.801 4.939.772 2.209 5.527 11.087 9.77 10.796 0 0 3.304 3.408 3.91 8.249.607 4.838-1.047 6.765-1.047 6.765s-11.814 3.944-17.952 3.573c-6.146.371-17.96-3.573-17.96-3.573s-1.646-1.927-1.039-6.765c.615-4.841 3.906-8.249 3.906-8.249 4.238.291 8.992-8.587 9.778-10.796.66-1.887 1.533-3.811 2.639-5.003-.726-1.122-1.229-1.664-2.022-1.629m73.433 41.992c.516-2.855-.374-4.152-.319-3.762.398 2.666-1.363 4.975-2.373 6.786-.985 1.802.37 2.902 3.678 3.254 3.474.368 4.488 1.47 4.488 1.47.98-.788-2.485-2.639-4.256-3.207-2.282-.752-1.546-2.705-1.218-4.541" fill="#fff" fill-rule="evenodd"/><path clip-path="url(#h)" d="M154.99 183.624h117.359v255.65H154.99z" fill="url(#i)"/><path clip-path="url(#j)" d="M375.013 129.121l155.655 229.704-199.154 134.953-155.656-229.704z" fill="url(#k)"/><path clip-path="url(#l)" clip-rule="evenodd" d="M269.764 132.746c.141.285-51.929-.986-136.299 38.691 0 0 20.665 6.346 20.665 57.008 0 33.293-20.561 62.957-20.561 101.699 0 52.689 59.375 94.32 138.78 109.13-.258 0-124.298-29.147-124.298-116.219 0-39.574 16.485-58.664 16.485-85.886 0-31.711-12.674-56.94-12.674-56.94s36.731-30.01 117.902-47.483m27.41 0c-.142.285 51.928-.986 136.294 38.691 0 0-20.657 6.346-20.657 57.008 0 33.293 20.565 62.957 20.565 101.699 0 52.689-59.382 94.32-138.796 109.13.274 0 124.302-29.147 124.302-116.219 0-39.574-16.48-58.664-16.48-85.886 0-31.711 12.674-56.94 12.674-56.94s-36.74-30.01-117.902-47.483" fill="#fff" fill-rule="evenodd"/><path clip-path="url(#l)" d="M56.665 282.694c0-99.385 64.287-183.972 153.433-214.548l-1.563-4.721C117.407 94.65 51.691 181.113 51.691 282.694c0 96.657 59.487 179.636 143.762 214.364l1.924-4.594C114.901 458.498 56.665 377.29 56.665 282.694M358.136 63.337l-1.575 4.721c89.291 30.492 153.702 115.155 153.702 214.635 0 94.663-58.318 175.921-140.898 209.847l1.94 4.588c84.358-34.688 143.929-117.72 143.929-214.435-.001-101.675-65.842-188.206-157.098-219.356" fill="#ed1c24"/><path clip-path="url(#l)" d="M229.396 490.803l-7.414-.232-.315-4.83 11.208.017 4.732 1.214-7.986 31.424-6.794-1.736z" fill="#fff"/><path clip-path="url(#l)" d="M229.396 490.803l-7.414-.232-.315-4.83 11.208.017 4.732 1.214-7.986 31.424-6.794-1.736z" fill="none" stroke="#fff" stroke-miterlimit="10" stroke-width="2.128"/><path clip-path="url(#l)" d="M269.049 509.304c-2.443 1.928-5.66 2.901-9.774 2.489-8.519-.844-13.78-5.39-13.156-11.565l.008-.091c.631-6.271 7.172-10.473 16.033-9.591 5.027.498 8.177 1.969 10.803 4.496 2.677 2.668 4.214 6.379 3.574 12.69l-.008.092c-1.031 10.299-8.095 16.806-18.9 15.725-5.543-.548-9.27-2.535-12.417-5.111l4.264-3.923c2.826 2.318 5.411 3.591 8.844 3.932 7.085.706 10.247-4.896 10.729-9.143m.424-7.077l.008-.091c.337-3.342-2.663-6.229-7.754-6.736-4.97-.49-8.212 1.865-8.54 5.161l-.012.091c-.333 3.342 2.626 6.034 7.601 6.533 5.09.507 8.385-1.846 8.697-4.958" fill="#fff"/><path clip-path="url(#l)" d="M269.049 509.304c-2.443 1.928-5.66 2.901-9.774 2.489-8.519-.844-13.78-5.39-13.156-11.565l.008-.091c.631-6.271 7.172-10.473 16.033-9.591 5.027.498 8.177 1.969 10.803 4.496 2.677 2.668 4.214 6.379 3.574 12.69l-.008.092c-1.031 10.299-8.095 16.806-18.9 15.725-5.543-.548-9.27-2.535-12.417-5.111l4.264-3.923c2.826 2.318 5.411 3.591 8.844 3.932 7.085.706 10.247-4.896 10.729-9.143zm.424-7.077l.008-.091c.337-3.342-2.663-6.229-7.754-6.736-4.97-.49-8.212 1.865-8.54 5.161l-.012.091c-.333 3.342 2.626 6.034 7.601 6.533 5.09.507 8.385-1.846 8.697-4.958z" fill="none" stroke="#fff" stroke-miterlimit="10" stroke-width="2.128"/><path clip-path="url(#l)" d="M286.07 519.751l4.654-4.039c3.066 2.493 6.391 3.765 10.862 3.428 3.952-.299 6.79-2.447 6.565-5.381l-.008-.092c-.237-3.166-3.981-4.684-9.6-4.264l-3.267.249-1.412-3.448 10.14-10.032-17.362 1.31-.37-4.908 26.533-1.994.316 4.213-10.48 10.016c6.117.141 12.034 2.186 12.479 8.099l.004.096c.448 5.918-4.904 10.605-13.273 11.237-6.988.522-12.149-1.44-15.781-4.49" fill="#fff"/><path clip-path="url(#l)" d="M286.07 519.751l4.654-4.039c3.066 2.493 6.391 3.765 10.862 3.428 3.952-.299 6.79-2.447 6.565-5.381l-.008-.092c-.237-3.166-3.981-4.684-9.6-4.264l-3.267.249-1.412-3.448 10.14-10.032-17.362 1.31-.37-4.908 26.533-1.994.316 4.213-10.48 10.016c6.117.141 12.034 2.186 12.479 8.099l.004.096c.448 5.918-4.904 10.605-13.273 11.237-6.988.522-12.149-1.44-15.781-4.49z" fill="none" stroke="#fff" stroke-miterlimit="10" stroke-width="2.128"/><path clip-path="url(#l)" d="M341.16 489.366l-19.646 4.844-1.19-4.82 27.46-6.773 1.027 4.151-10.9 31.445-7.759 1.912z" fill="#fff"/><path clip-path="url(#l)" d="M341.16 489.366l-19.646 4.844-1.19-4.82 27.46-6.773 1.027 4.151-10.9 31.445-7.759 1.912z" fill="none" stroke="#fff" stroke-miterlimit="10" stroke-width="2.128"/></svg>