<svg xmlns="http://www.w3.org/2000/svg" viewBox="0 0 200 200"><g fill-rule="evenodd" clip-rule="evenodd"><path d="M99.969 0C155.063 0 200 44.903 200 99.968 200 155.064 155.063 200 99.969 200 44.934 200 0 155.064 0 99.968 0 44.903 44.934 0 99.969 0"/><path fill="#F9A51A" d="M99.969 2.424c53.76 0 97.575 43.848 97.575 97.545 0 53.73-43.814 97.575-97.575 97.575-53.698 0-97.516-43.846-97.516-97.575 0-53.698 43.818-97.545 97.516-97.545"/><path d="M125.449 12.058l-1.43 7.488-14.914 14.482c3.603.777 7.052 1.585 10.035 2.61l-1.802 6.496a59.3 59.3 0 0 0-17.37-2.58c-.686 0-1.337 0-2.019.031l.837-6.899 15.63-16.159c-3.759-.808-8.017-1.304-12.771-1.399l.744-7.674a91 91 0 0 1 23.06 3.604m24.518 11.31l-3.604 6.742c-4.072-2.734-7.148-4.38-11.221-6.277-.62-.31-.744-.155-.899.217l-2.019 4.818c3.728 1.773 7.49 3.791 11.248 6.31.155.091.093.186.062.248l-3.355 5.405c-.093.155-.155.186-.434 0-3.262-2.112-6.525-4.008-9.822-5.436-.31-.126-.434-.126-.589.186-.655 1.337-1.244 2.766-1.802 4.258 3.79 1.771 7.459 3.914 10.535 6.213l-3.201 5.843c-4.82-3.45-10.287-6.339-15.975-8.267l11.031-30.143a91 91 0 0 1 20.045 9.883M96.269 40.676a59 59 0 0 0-8.237 1.097 62 62 0 0 0-7.145 1.917l-3.51-6.277c-2.301.746-4.599 1.709-6.993 2.921l.624 7.8a60 60 0 0 0-8.058 5.429l.01.009a53 53 0 0 0-5.843 5.345l-10.535-4.63 4.971 11.31a61 61 0 0 0-5.126 8.702L30.888 40.023a92 92 0 0 1 6.153-6.401l5.188 8.95 1.244-14.512a87 87 0 0 1 9.074-6.308l-2.859 20.292 12.14 10.549-.768-35.44a94 94 0 0 1 11.314-4.444l15.014 26.398-.596-29.723a87 87 0 0 1 10.349-.903zM73.68 30.827l-3.855-6.868c-.682-1.275-.872-1.244-.744.186l.651 8.329a36 36 0 0 1 3.948-1.647m86.915.651c2.053 1.802 3.576 3.386 4.754 5.004 1.771 2.517 2.704 5.717 2.89 8.793.279 4.289-1.213 8.019-5.343 10.287-1.585.837-3.917.806-6.715.62l-3.418 16.502a60 60 0 0 0-5.471-8.608l1.089-10.628-1.457-1.399-4.355 6.527c-1.802-1.834-3.697-3.574-5.715-5.159l16.998-26.942c3.884 2.205 5.999 4.321 6.743 5.003m-2.732 8.049l-1.585-1.523-4.478 6.713 1.585 1.43c1.12.961 2.208 1.957 3.669 1.647 1.647-.374 3.231-2.021 3.138-4.103-.062-1.275-.744-2.548-2.329-4.164M93.94 159.136l-2.394 32.007a87 87 0 0 1-11.496-1.803l5.126-31.788a58.6 58.6 0 0 0 8.764 1.584m-49.661 13.391c-5.901-4.535-11.186-9.817-15.878-15.567-1.802-2.238-.589-4.194.248-5.314 2.084-2.891 14.483-22.934 17.745-23.37 1.275-.153 1.678.686 2.267 1.585 2.58 3.762 5.378 8.051 9.043 11.81l-2.856 6.618c-2.332-2.174-4.727-4.816-6.714-7.3-.868-.84-1.709-.281-2.208.248-2.918 4.039-5.467 7.955-8.172 12.43-.465.746-.558 1.304-.062 1.833 3.232 3.574 6.029 6.589 9.725 9.789zm23.182-22.839l-3.604 10.287 6.963 3.386 3.17-9.944a58 58 0 0 0 7.924 3.17l-6.804 31.511c-3.359-.963-6.621-2.081-9.791-3.418l2.704-11-7.459-3.667-3.976 10.535a92 92 0 0 1-9.171-5.688 663 663 0 0 1 12.805-30.763 60 60 0 0 0 7.239 5.591m52.241 6.372l7.579 31.325c3.169-.996 6.246-2.176 9.264-3.481l-4.01-12.926a79 79 0 0 0 9.818-5.44c.344-.217.248-.341.186-.498l-2.143-5.002c-.248-.651-.651-.808-1.182-.467-3.077 1.989-6.056 3.729-8.733 4.88l-1.523-5.002c2.863-1.368 6.122-3.201 10.538-6.436l-2.797-6.339c-5.066 4.009-10.813 7.179-16.997 9.386m19.451-11.407l7.893 17.622c4.289-3.355 7.803-6.556 10.473-9.571l3.201 5.097a86.2 86.2 0 0 1-13.425 11.434l2.797 7.302a93.2 93.2 0 0 0 21.008-18.986l-11.717-16.905c-.124-.186-.465-.467-.744-.031-2.735 3.853-5.502 7.085-8.237 9.757l-2.577-4.691c3.418-3.7 5.967-7.056 7.955-10.163l-3.855-5.5c-.186-.248-.403-.465-.744.124a60.7 60.7 0 0 1-12.028 14.511m-22.496 13.58l.403 5.657-11.407 2.114-.031 5.128c4.386-.436 7.927-.965 10.879-1.712.527-.121.775.188.837.872l.434 5.748c-4.286.903-8.389 1.585-12.058 1.865l-.031 5.781c4.692-.219 9.633-1.058 14.793-2.332 1.213-.31 1.151.374 1.213.686l.713 6.711a90.5 90.5 0 0 1-22.434 2.797c-.903 0-1.74-.031-2.642-.031l-.124-32.162c.934.062 1.833.062 2.766.062 5.374 0 10.563-.717 15.506-2.052.59-.157 1.121-.126 1.183.868m-3.449-7.55c-1.681.465-3.39.806-5.13 1.087l4.196-69.234L133.22 62.15c.93.839 1.86 1.709 2.732 2.611l-11.496 10.533.465.529 12.306-9.695a50.3 50.3 0 0 1 10.442 17.556l-17.312 7.955.22.622 18.331-4.63a50.6 50.6 0 0 1 1.554 12.337c0 2.952-.217 5.936-.713 8.732l-5.002 1.273-.31 12.619c0 .217-.093.279-.282.372-.558.31-1.833.589-2.577.651l-15.568 1.616c-1.027.126-1.306-.775-1.368-1.647l-2.518-30.577-1.709-1.244 4.382 52.953c-2.735 1.525-5.626 2.828-8.671 3.822l.031-55.127h-1.116z"/><path d="M124.143 56.151l3.638 5.502-.903.807-8.047-9.478-4.506-2.329-2.019 2.515 12.058 11.5-1.089.963-16.223-15.166-7.303-1.896-3.011 2.611 22.465 18.025-.868.744-26.851-19.545-6.184-.715-4.661 4.134 34.647 18.831-.868.776-36.825-18.146-8.388 1.739.465 6.711 42.078 12.027-1.34 1.18-45.803-12.335-7.272 3.975.062 9.075 49.781 2.456-.027 1.833-52.552-.839-5.343 5.841 4.162 10.069 53.67-12.678-.034 2.33-56.399 17.091-1.585 8.951 9.695 6.058 48.258-29.426-.062 2.671-48.754 33.78 2.576 9.849 8.579 2.89 37.572-44.405-.031 2.61-33.066 43.754 4.971 8.017 8.544-.062 19.488-48.85-.065 4.132-16.002 44.842 6.711 3.822 7.772-6.992 5.123-64.325 20.853-20.572-3.046-3.916-1.957-.342zM25.232 83.904a15.29 15.29 0 0 0-10.886 4.525c-2.918 2.916-4.527 6.783-4.527 10.886 0 4.126 1.609 8.001 4.527 10.921 2.918 2.916 6.783 4.522 10.886 4.522 4.093 0 7.968-1.605 10.921-4.522a15.35 15.35 0 0 0 4.523-10.921c0-4.103-1.605-7.97-4.523-10.886-2.953-2.92-6.829-4.525-10.921-4.525m160.423 4.525c-2.949-2.92-6.828-4.525-10.917-4.525-4.096 0-7.972 1.605-10.924 4.523-2.914 2.951-4.523 6.818-4.523 10.888 0 4.093 1.609 7.97 4.523 10.921 2.952 2.916 6.831 4.522 10.924 4.522 4.089 0 7.968-1.605 10.917-4.522 2.918-2.951 4.523-6.828 4.523-10.921 0-4.07-1.605-7.937-4.523-10.886"/><path fill="#FFF" d="M34.961 89.962H33.47c-1.12 0-2.239.031-3.355.062-.407 1.182-.81 2.363-1.12 3.543 1.275 1.43 2.36 3.139 3.325 4.754 1.43.279 2.921.343 4.382.436a19.5 19.5 0 0 0 1.771-3.231c-1.06-1.897-2.365-3.699-3.512-5.564m-6.122 23.058a14.2 14.2 0 0 0 2.825-4.567c-.992-1.089-2.019-2.145-2.89-3.357-1.895.279-3.852.341-5.808.248-.592.934-1.213 1.864-1.898 2.735-.248.281-.465.558-.713.839.872 1.49 1.833 2.92 3.045 4.165 1.801.063 3.634.032 5.439-.063m-8.672-22.872c-1.647.219-3.294.467-4.909.808-1.027 1.555-1.833 3.295-2.456 5.066.465 1.461 1.089 2.89 1.895 4.196a66 66 0 0 0 4.165-1.087c.872-1.835 1.864-3.667 3.014-5.347a49 49 0 0 0-1.709-3.636m14.825-1.49a16.5 16.5 0 0 0-2.022-1.554 18 18 0 0 0-2.298-1.182q-1.169-.466-2.425-.746c-.81-.155-1.647-.25-2.484-.281l.059 1.461a42 42 0 0 1 3.948 2.673c1.585-.093 3.169-.124 4.723-.093h.437c.031-.062.031-.093.031-.124s.031-.093.031-.093zm3.2 17.122c.248-.467.465-.963.651-1.461.372-1.087.651-2.176.779-3.294a14 14 0 0 0 .062-2.549c0-.279-.031-.56-.062-.839a16 16 0 0 0-.283-1.554c-.527 1.182-1.116 2.3-1.864 3.357.186 1.864.217 3.914-.248 5.746zm-7.896 7.085c.903-.343 1.774-.746 2.58-1.273.468-.281.934-.591 1.368-.934s.84-.716 1.244-1.118a13 13 0 0 0 1.74-2.145c.186-.219.31-.467.465-.715l-.992-.622c-1.213 1.087-2.456 2.021-4.01 2.548a15.1 15.1 0 0 1-2.395 4.259m-16.592-4.847a14.6 14.6 0 0 0 2.953 2.951 22 22 0 0 0 1.833 1.151 14.4 14.4 0 0 0 3.883 1.397c-1.213-1.335-2.174-2.827-3.076-4.38-1.585-.498-2.921-1.211-4.193-2.301zm-2.766-10.784c-.093.527-.124 1.025-.155 1.523v.558c0 1.399.186 2.798.589 4.165a16 16 0 0 0 1.709 3.697l1.461-1.211c-.465-1.616-.713-3.325-.589-5.004-.841-1.275-1.461-2.703-1.957-4.132-.345.124-.717.249-1.058.404m13.798-12.338c-.872.031-1.74.126-2.549.312-.868.186-1.709.467-2.515.777-.81.343-1.616.777-2.332 1.275-.744.465-1.43 1.025-2.081 1.616.062.343.124.653.217.994 1.647-.31 3.325-.591 5.002-.777a37 37 0 0 1 4.32-2.797zm-1.961 9.386a5 5 0 0 0-.276.434c-.128.155-.22.312-.314.467-.124.155-.217.343-.31.498-.124.186-.217.37-.341.56-.155.246-.31.527-.438.808-.155.279-.31.558-.465.808-.155.31-.279.558-.434.839-.124.279-.279.558-.403.806.248.467.496.901.744 1.337s.496.872.748 1.275c.248.403.527.777.775 1.151.279.37.558.713.81 1.025.279.031.527.031.775.062h1.646c.279 0 .558-.031.84-.031.248 0 .496-.031.744-.031.248-.031.496-.062.716-.062q.326-.046.651-.095c.217-.031.403-.031.624-.062.186-.31.403-.653.62-.992.779-1.337 1.399-2.798 1.926-4.258-.93-1.585-2.019-3.294-3.263-4.663-1.368 0-2.704 0-4.041.064a18 18 0 0 0-1.334.06m161.688-4.32h-1.491c-1.12 0-2.239.031-3.359.062-.403 1.182-.806 2.363-1.116 3.543 1.275 1.43 2.36 3.139 3.325 4.754 1.43.279 2.887.343 4.351.436a17.3 17.3 0 0 0 1.802-3.231c-1.09-1.897-2.365-3.699-3.512-5.564m-6.126 23.058a14.2 14.2 0 0 0 2.832-4.567c-.996-1.089-2.053-2.145-2.894-3.357-1.922.279-3.883.341-5.808.248a34 34 0 0 1-1.926 2.735c-.22.281-.438.558-.686.839.872 1.49 1.833 2.92 3.045 4.165 1.803.063 3.608.032 5.437-.063m-8.667-22.872c-1.647.219-3.293.467-4.94.808-1.027 1.555-1.833 3.295-2.425 5.066.469 1.461 1.058 2.89 1.898 4.196a73 73 0 0 0 4.162-1.087c.872-1.835 1.833-3.667 3.014-5.347a50 50 0 0 0-1.709-3.636m14.824-1.49a16.5 16.5 0 0 0-2.022-1.554 20 20 0 0 0-2.298-1.182 15 15 0 0 0-2.456-.746 15.6 15.6 0 0 0-2.453-.281l.062 1.461a42 42 0 0 1 3.945 2.673c1.554-.093 3.138-.124 4.723-.093h.438c0-.062.031-.093.031-.124v-.093c.03.001.03-.03.03-.061m3.2 17.122c.217-.467.434-.963.62-1.461.403-1.087.655-2.176.81-3.294a14 14 0 0 0 .062-2.549c0-.279-.031-.56-.062-.839a14 14 0 0 0-.282-1.554 19.6 19.6 0 0 1-1.895 3.357c.217 1.864.217 3.914-.217 5.746zm-7.896 7.085c.903-.343 1.771-.746 2.58-1.273.468-.281.903-.591 1.337-.934.438-.343.872-.716 1.244-1.118a15 15 0 0 0 1.771-2.145c.155-.219.31-.467.465-.715l-.992-.622c-1.213 1.087-2.456 2.021-4.01 2.548-.559 1.525-1.399 2.986-2.395 4.259m-16.626-4.847a15 15 0 0 0 2.987 2.951c.589.405 1.182.808 1.833 1.151a14 14 0 0 0 3.883 1.397c-1.209-1.335-2.205-2.827-3.076-4.38-1.585-.498-2.918-1.211-4.193-2.301zm-2.763-10.784c-.062.527-.124 1.025-.124 1.523 0 .186-.031.374-.031.558 0 1.399.217 2.798.62 4.165a14.8 14.8 0 0 0 1.712 3.697l1.457-1.211c-.496-1.616-.744-3.325-.589-5.004-.837-1.275-1.461-2.703-1.957-4.132-.371.124-.716.249-1.088.404m13.829-12.338a13.7 13.7 0 0 0-2.55.312c-.868.186-1.705.467-2.515.777-.841.343-1.616.777-2.363 1.275a14.7 14.7 0 0 0-2.053 1.616c.065.343.127.653.22.994 1.647-.31 3.324-.591 4.971-.777a43 43 0 0 1 4.32-2.797zm-1.957 9.386c-.093.124-.22.279-.314.434-.093.155-.186.312-.31.467-.093.155-.186.343-.31.498-.093.186-.217.37-.31.56-.155.246-.31.527-.465.808-.158.279-.282.558-.437.808-.152.31-.31.558-.434.839-.155.279-.279.558-.403.806.248.467.465.901.713 1.337s.5.872.779 1.275c.248.403.496.777.775 1.151.279.37.531.713.81 1.025.248.031.527.031.779.062h1.646c.276 0 .558-.031.837-.031.248 0 .496-.031.748-.031.244-.031.465-.062.682-.062.248-.031.465-.062.682-.095.189-.031.407-.031.589-.062.22-.31.437-.653.624-.992.81-1.337 1.43-2.798 1.957-4.258-.934-1.585-2.019-3.294-3.293-4.663-1.333 0-2.673 0-4.01.064-.463-.002-.901.029-1.335.06"/></g></svg>