<svg xmlns="http://www.w3.org/2000/svg" xmlns:xlink="http://www.w3.org/1999/xlink" viewBox="0 0 185.21 155.92">
    <linearGradient xlink:href="#_%E6%9C%AA%E5%91%BD%E5%90%8D%E7%9A%84%E6%B8%90%E5%8F%98_35" id="a" x1="378.021"
      x2="389.421" y1="142.917" y2="129.823" gradientUnits="userSpaceOnUse" />
    <linearGradient xlink:href="#_%E6%9C%AA%E5%91%BD%E5%90%8D%E7%9A%84%E6%B8%90%E5%8F%98_35" id="b" x1="382.923"
      x2="394.039" y1="165.865" y2="173.556" gradientUnits="userSpaceOnUse" />
  </defs>
  <path
    d="M91.943 0L94.6 8.198l8.619-.005-6.976 5.062 2.668 8.196-6.97-5.07-6.97 5.07 2.669-8.196-6.976-5.062 8.619.005z"
    fill="#00a04a" />
  <path
    d="M102.613 8.39l-6.6 4.79 2.524 7.755-6.594-4.797-6.595 4.797 2.524-7.755-6.6-4.79 8.155.005L91.943.638l2.515 7.757z"
    fill="#ceac38" />
  <path d="M388 137.081l9.508-29.318.074 42.48z" transform="translate(-13.23 -27.874) scale(.26458)"
    fill="url(#_%E6%9C%AA%E5%91%BD%E5%90%8D%E7%9A%84%E6%B8%90%E5%8F%98_35)" />
  <path d="M388 137.081l9.582 13.162-40.405-13.179z" transform="translate(-13.23 -27.874) scale(.26458)"
    fill="url(#a)" />
  <path d="M357.177 137.064l40.405 13.179-15.46 4.924z" transform="translate(-13.23 -27.874) scale(.26458)"
    fill="url(#_%E6%9C%AA%E5%91%BD%E5%90%8D%E7%9A%84%E6%B8%90%E5%8F%98_35)" />
  <path d="M372.582 184.476l24.926-18.13.074-16.103z" transform="translate(-13.23 -27.874) scale(.26458)"
    fill="url(#b)" />
  <path d="M397.508 166.345l24.925 18.13-24.851-34.232z" transform="translate(-13.23 -27.874) scale(.26458)"
    fill="url(#_%E6%9C%AA%E5%91%BD%E5%90%8D%E7%9A%84%E6%B8%90%E5%8F%98_35)" />
  <path d="M422.433 184.476l-9.54-29.309-15.311-4.924z" transform="translate(-13.23 -27.874) scale(.26458)"
    fill="url(#_%E6%9C%AA%E5%91%BD%E5%90%8D%E7%9A%84%E6%B8%90%E5%8F%98_35)" />
  <path d="M412.892 155.167l24.946-18.103-40.256 13.179z" transform="translate(-13.23 -27.874) scale(.26458)"
    fill="url(#_%E6%9C%AA%E5%91%BD%E5%90%8D%E7%9A%84%E6%B8%90%E5%8F%98_35)" />
  <path d="M437.838 137.064l-30.822.017-9.434 13.162z" transform="translate(-13.23 -27.874) scale(.26458)"
    fill="url(#_%E6%9C%AA%E5%91%BD%E5%90%8D%E7%9A%84%E6%B8%90%E5%8F%98_35)" />
  <path d="M407.016 137.081l-9.508-29.318.074 42.48zm-34.434 47.395l25-34.233-15.46 4.924z"
    transform="translate(-13.23 -27.874) scale(.26458)"
    fill="url(#_%E6%9C%AA%E5%91%BD%E5%90%8D%E7%9A%84%E6%B8%90%E5%8F%98_35)" />
  <path
    d="M92.714 23.311c-27.49 0-49.777 22.286-49.777 49.777s22.286 49.777 49.777 49.777 49.777-22.286 49.777-49.777-22.286-49.777-49.777-49.777"
    fill="#00a04a" />
  <path
    d="M6.34 122.196l33.057-.1s-4.194-4.494 9.388-6.192 40.347-1.098 44.74-.998c4.395.1 59.123-2.597 52.432 7.09l33.156.2-22.67 14.48 28.762 17.777s-35.803 1.948-47.687 1.349-23.769.2-25.367-6.192c-1.298-4.394 11.185-8.689 11.185-8.689s-37.65-1.897-61.319-.1c0 0 11.332 4.495 11.285 7.99-.05 3.745-4.444 6.291-16.578 6.591-13.938.344-33.256.999-56.725-.999l28.762-17.576z"
    fill="#00a04a" />
  <path
    d="M92.714 118.629c-25.111 0-45.54-20.43-45.54-45.54s20.429-45.542 45.54-45.542 45.54 20.43 45.54 45.541-20.429 45.541-45.54 45.541"
    fill="#f6e600" />
  <path
    d="M92.714 31.784c-22.775 0-41.304 18.529-41.304 41.304 0 22.775 18.529 41.305 41.304 41.305 22.775 0 41.305-18.53 41.305-41.305s-18.53-41.304-41.305-41.304m0 81.55c-22.191 0-40.245-18.054-40.245-40.246s18.054-40.245 40.245-40.245 40.245 18.054 40.245 40.245-18.053 40.245-40.245 40.245"
    fill="#00a04a" />
  <path
    d="M70.348 42.53l4.57 4.87-1.087 1.03-3.127-3.128.993 2.865-.806.768-2.883-1.199 2.996 3.315-1.068.992-4.587-4.868 1.404-1.274 3.408 1.424-1.16-3.52zm16.547-7.15l1.697 6.458-1.446.388-1.259-4.24-.492 2.993-1.074.29-1.964-2.427 1.054 4.342-1.411.364-1.713-6.467 1.841-.45 2.318 2.875.657-3.648zm-7.221 9.304l1.554-.786-5.318-4.794-1.554.917 1.292 6.948 1.404-.824-.288-1.377 1.894-1.048zm-3.163-1.129l-.489-2.335 1.748 1.658zm15.231-7.278l2.896-.026-.025-1.248-4.519.05.125 6.741 4.494-.075v-1.148l-2.896-.025-.031-1.769 2.678-.079v-1.173h-2.7zm7.004-.762l-1.611-.3-1.123 6.592 4.381.861.187-1.16-2.808-.6zm7.602 1.923c-2.097-.9-3.52.599-4.195 1.847s-.649 3.62 1.349 4.594c1.997.974 3.595.225 4.569-1.848.973-2.072-.023-3.865-1.723-4.593m.25 3.82c-.475 1.023-1.224 2.172-2.472 1.547s-.624-2.396-.325-2.946c.3-.549.949-1.822 2.197-1.248.965.444 1.074 1.623.6 2.646m7.79.924c-.825-.65-2.647-1.922-2.647-1.922l-3.845 5.468s1.623 1.073 2.521 1.697 2.872.924 4.27-.948c1.398-1.873.524-3.646-.3-4.295m-1.073 3.32c-.874 1.349-2.198 1.05-2.572.775s-.824-.6-.824-.6l2.447-3.52s.224.15.824.574c.599.425.998 1.424.124 2.772zm1.466 4.316l-.692-.72-.774.824 2.422 2.521.848-.748-.721-.751 3.281-3.116.686.72.8-.773-2.498-2.547-.724.774.651.685zM66.978 99.549c-1.922.206-3.283-1.61-4.138-3.383l1.28-1.21c.161 2.078 1.736 3.737 2.54 2.946.855-.843-2.16-2.921-.664-4.725 1.557-1.877 4.087-.206 5.136 2.364l-1.156 1.086c-.065-.54-.636-2.564-1.828-2.702-.131-.015-.356-.074-.63.175-.514.467.505 1.417 1.067 2.943.38 1.03-.348 2.158-1.607 2.506zm55.558-3.9c.26 1.916-1.519 3.326-3.268 4.23l-1.245-1.245c2.073-.22 3.688-1.84 2.875-2.621-.866-.832-2.86 2.24-4.705.793-1.919-1.504-.32-4.08 2.221-5.199l1.118 1.126c-.538.08-2.546.706-2.65 1.902-.011.132-.065.357.192.625.48.5 1.402-.545 2.913-1.148 1.018-.408 2.166.288 2.55 1.537m-47.173 3.579l-2.285 3.277c-.247.356-.623.601-.861.649-.236.05-.549-.03-.85-.237-.322-.221-.515-.514-.573-.755-.081-.288.141-.852.4-1.224l2.493-3.695-1.334-.959-2.707 3.899c-.492.706-.646 1.4-.46 2.061.18.647.675 1.252 1.468 1.797.332.229.674.398 1.014.503a2.477 2.477 0 0 0 1.038.098c.34-.044.673-.174.99-.387.308-.208.601-.507.868-.89l2.569-3.697-1.358-.983zm3.539 3.608l.749 5.717 1.507.632 2.67-6.67-1.48-.578-1.524 3.832-.611-4.718-1.95-.815-2.67 6.668 1.436.563zm32.217-2.474l5.13 2.446 1.396-.965-4.087-5.774-1.297.92 2.365 3.378-4.279-2.081-1.71 1.273 4.064 5.802 1.258-.89zm-26.277 2.668l-.73 7.052c1.425.094 3.027.429 4.033.228 2.57-.515 3.375-3.988 1.864-5.86-1.096-1.36-3.786-1.34-5.167-1.42m1.129 5.95l.463-4.525c1.303.075 2.602.388 2.558 2.091-.05 1.898-.812 2.846-3.021 2.434m12.693-3.442a3.322 3.322 0 0 0-.736-1.138 2.946 2.946 0 0 0-1.137-.698c-.439-.15-.946-.205-1.505-.163-.526.04-.998.16-1.405.359a2.91 2.91 0 0 0-1.024.822 3.248 3.248 0 0 0-.58 1.233 4.96 4.96 0 0 0-.105 1.572c.042.54.15 1.037.322 1.475.175.448.421.832.732 1.141.313.312.696.547 1.137.698.343.117.727.176 1.147.176q.175 0 .358-.014a3.792 3.792 0 0 0 1.394-.358c.411-.2.757-.477 1.029-.822.27-.344.468-.759.588-1.233.12-.468.157-.998.112-1.573a5.028 5.028 0 0 0-.327-1.477M96.88 109.1c-.256.371-.632.57-1.145.607a1.464 1.464 0 0 1-.725-.114 1.305 1.305 0 0 1-.515-.427 2.46 2.46 0 0 1-.354-.742 4.7 4.7 0 0 1-.174-1.017c-.06-.864.046-1.505.31-1.904.256-.385.626-.588 1.13-.624.056-.004.107-.006.16-.005.224.001.42.042.586.121a1.402 1.402 0 0 1 .525.44c.15.205.267.453.345.743.085.303.14.64.164 1.001.061.893-.042 1.539-.307 1.921zm10.388-3.234l-.461-4.944 1.648-.536.474 7.303-1.81.611-2.472-3.832.262 4.569-1.847.6-3.858-6.193 1.66-.562 2.485 4.282-.3-4.968 1.586-.562zM55.65 72.646l.137-.618c.949-.112 1.161-.374 1.367-.805l.68.007-.86 4.082-.889-.007.57-2.652c-.344.006-.724-.006-1.005-.006zm2.664 1.654l.805-.014a.519.519 0 0 0 .165.342c.07.07.184.14.308.145a.702.702 0 0 0 .464-.146c.225-.15.402-.388.641-1.048-.225.21-.356.38-.888.402-.37.017-.696-.166-.928-.397s-.316-.508-.302-.892q.023-.648.501-1.134c.319-.324.712-.455 1.22-.437.448.016.802.194 1.03.492.226.297.311.696.294 1.189-.027.76-.205 1.416-.604 1.929-.399.512-.919.69-1.54.668q-.544-.02-.862-.307c-.21-.191-.29-.46-.304-.792m2.477-1.751c.008-.223-.049-.42-.146-.53a.616.616 0 0 0-.411-.19.79.79 0 0 0-.543.186c-.148.134-.272.366-.258.707.017.405.38.564.52.585.37.057.665-.16.74-.332s.091-.247.098-.426zm61.54-.584l.169-.75h2.911l-.136.712a3.82 3.82 0 0 0-.599.59c-.257.3-1.123 1.493-1.437 2.78l-.88.02c.356-1.625 1.622-2.96 1.975-3.343zm2.862 1.998c0-.421.056-.887.218-1.32.198-.527.407-.891.718-1.148.31-.257.725-.375 1.105-.375.384 0 .658.173.905.418.247.246.38.593.38 1.062 0 .428-.058.841-.238 1.318q-.27.716-.73 1.097-.46.381-1.035.381-.576 0-.95-.368-.373-.369-.373-1.065m1.275.79c.643.095.936-.732 1.084-1.273.118-.43.299-1.508-.356-1.635-.674-.132-.946.777-1.073 1.28-.106.417-.256 1.54.345 1.629"
    fill="#00a04a" />
  <path
    d="M83.331 94.285l14.35.125v-2.722c0-.817.206-1.192 1.024-1.541.817-.35 1.117-.456 1.485-.937.369-.48 2.469-2.999 2.675-3.242.206-.244.712-.75.89-1.03.177-.281.86-1.302 1.095-1.807.234-.506.72-.993.974-1.377.252-.384 1.207-1.75 1.442-2.19s.365-.281.543-1.91c.177-1.63.852-4.367 1.251-5.39.4-1.024 1.036-2.61 2.035-3.983s1.523-2.06.537-2.746c-.987-.687-2.847-.861-4.045-.088-1.198.774-2.484 2.684-3.108 3.783s-1.174 2.31-1.424 2.597-.736.674-1.136.898c-.4.225-.948.587-.948.587s-.55-4.781-.475-6.86c.075-2.078.15-2.827.169-3.426s-.131-5.393-.225-6.498-.318-3.52-.412-4.27-.843-2.06-2.19-1.853c-1.349.206-1.836 1.048-1.873 1.797-.038.75-.262 5.15-.319 6.18-.05.906-.374 6.425-.451 7.735-.003.05-.073.056-.087.008-.237-.864-1.09-3.529-2.701-4.092-1.929-.674-3.577-.243-3.783 2.191 0 0-1.273-1.685-3.37-.655s-1.517 3.352-1.517 3.352-.75-.824-2.023-.319c-1.273.506-1.61 2.865-1.61 3.577s-.456 3.889-.206 8.008c.25 4.12.35 4.819.7 6.067.349 1.249 2.321 6.192 2.72 6.891z" />
  <path
    d="M83.593 94.021l-.012-2.948-.035-.06c-.375-.657-2.352-5.603-2.696-6.831-.342-1.221-.44-1.874-.69-6.012-.188-3.11.027-5.673.143-7.05.037-.44.064-.76.064-.942 0-.707.355-2.898 1.443-3.33.243-.097.482-.146.71-.146.641 0 1.005.381 1.02.397l.698.746-.246-.99c-.022-.086-.499-2.129 1.376-3.05a2.761 2.761 0 0 1 1.215-.306c1.138 0 1.822.876 1.828.884l.417.544.058-.681c.125-1.484.804-2.236 2.018-2.236.421 0 .897.092 1.413.272 1.495.523 2.318 3.127 2.534 3.913a.309.309 0 0 0 .606-.062l.027-.472c.108-1.83.38-6.444.424-7.266.057-1.03.281-5.43.319-6.18.02-.393.22-1.331 1.648-1.55q.122-.018.24-.018c1.02 0 1.577 1.07 1.648 1.644.095.757.323 3.222.411 4.259.094 1.112.24 5.918.224 6.467-.007.22-.022.46-.04.78a95.204 95.204 0 0 0-.129 2.645c-.074 2.075.454 6.703.477 6.9l.049.427.36-.237c.004-.003.545-.36.932-.577.425-.239.932-.64 1.206-.956.156-.179.363-.574.715-1.256.222-.43.474-.917.738-1.383.72-1.268 1.944-2.995 3.022-3.69.465-.302 1.091-.467 1.762-.467.752 0 1.495.205 1.988.548.326.227.388.398.406.507.066.393-.363.983-.957 1.8l-.049.067c-1.057 1.454-1.714 3.137-2.067 4.041-.411 1.054-1.09 3.835-1.268 5.458-.134 1.228-.232 1.373-.367 1.574a2.646 2.646 0 0 0-.147.24c-.164.31-.726 1.134-1.098 1.68-.143.21-.262.386-.33.49a6.31 6.31 0 0 1-.329.431c-.235.294-.502.627-.665.98-.184.397-.674 1.152-.938 1.558l-.14.218c-.108.17-.375.459-.589.69-.11.12-.211.23-.28.31-.165.196-2.303 2.76-2.682 3.253-.303.395-.537.495-1.232.791l-.148.063c-.885.379-1.184.829-1.184 1.785v2.454z"
    fill="#00a04a" />
  <path
    d="M85.101 75.136a.95.95 0 0 0 .715-.323c.304-.331.405-.823.389-1l-.01-.11-.11-.01a13.618 13.618 0 0 0-1.175-.048c-.524 0-1.014.071-1.058.59a.69.69 0 0 0 .195.519c.223.245.596.38 1.05.382zm-.986-.88c.016-.182.089-.346.795-.346.457 0 .837.022 1.025.036a1.37 1.37 0 0 1-.314.688.7.7 0 0 1-.523.237c-.51-.002-.755-.186-.856-.296a.43.43 0 0 1-.127-.318" />
  <path
    d="M89.245 76.269c.772-.18 1.483-.492 1.633-1.45.348.536 1.053.858 1.695.858a2 2 0 0 0 .257-.018c.678-.098 1.82-.46 1.849-1.776.024-1.113-.14-5.506-.22-6.283l-.005-.057c-.086-.831-.344-3.36-.789-4.563l-.248.092c.432 1.17.689 3.675.773 4.497l.006.058c.03.297.073 1.126.113 2.096a4.8 4.8 0 0 0-.776-1.007l-.183.191c.008.009.856.83.984 1.624l.006-.001c.05 1.357.086 2.78.074 3.347-.025 1.121-1.027 1.434-1.622 1.52-.744.107-1.693-.337-1.849-1.094-.064-.311-.226-1.08-.412-1.97-.321-1.526-.72-3.425-.823-3.946-.161-.816-.856-3.917-.863-3.948l-.258.058c.007.03.7 3.128.86 3.941.104.523.503 2.423.824 3.95.155.736.292 1.385.37 1.765h-.01c.106 1.244-.474 1.633-1.445 1.858-.95.22-1.96-.964-2.182-1.518a35 35 0 0 1-.321-.86q-.014-.075-.035-.154l-.02.005-.342-.948c-.244-.68-.504-1.403-.716-1.973-.472-1.266-1.532-3.327-1.542-3.347l-.236.121c.01.02 1.063 2.068 1.53 3.319.212.569.471 1.29.715 1.97.139.385.273.758.392 1.084.158.898-.618 1.36-.713 1.412-.122.069-1.21.596-2.645-1.244-.015-.118-.062-.583.073-.965l-.25-.088a2.2 2.2 0 0 0-.107.665c-1.482-2.128-2.227-4.694-2.234-4.72l-.255.072c.008.028.812 2.8 2.417 5.004.998 1.369 1.886 1.66 2.462 1.66.37 0 .61-.12.668-.152.086-.048.642-.38.818-1.011l.095.248c.255.637 1.215 1.71 2.197 1.71q.146 0 .29-.032" />
  <path
    d="M88.009 75.576c.346.317.643.433.94.433.277 0 .554-.1.873-.234.803-.336.546-1.06.274-1.827-.295-.829-.941-.88-1.46-.92l-.053-.004c-.942-.072-1.28.422-1.454.801-.252.551.34 1.256.88 1.75m-.64-1.64c.15-.328.39-.655 1.028-.655q.078 0 .165.007l.053.004c.511.04.994.078 1.231.745.293.824.42 1.265-.126 1.494-.653.273-.995.341-1.532-.15-.663-.607-.961-1.133-.818-1.446m4.36 1.101q.345.235.801.235.208 0 .439-.05c1.147-.246 1.133-1.207 1.119-2.136q-.003-.157-.004-.315c0-.607-.274-1.33-1.58-1.33-.58 0-.837.089-1.225.303-.46.254-.34 1.439-.229 2.122.083.507.33.934.679 1.171m-.322-3.061c.334-.184.55-.27 1.097-.27.885 0 1.316.348 1.316 1.065q0 .16.003.32c.013.897.025 1.672-.91 1.873-.414.089-.763.04-1.035-.146-.289-.196-.495-.559-.566-.994-.16-.97-.12-1.73.095-1.848m4.953-5.148l-.197.176c.035.04.786.862 2.198.862q.273 0 .58-.045l-.04-.262c-1.642.248-2.532-.721-2.54-.73m.137.81l-.1.089-.098.088c.017.019.404.446 1.155.446l.099-.002-.013-.265c-.684.033-1.029-.34-1.043-.355zm13.647-.097c-.421 1.08-.34 1.946-.227 2.287l.251-.083c-.095-.287-.172-1.097.223-2.107.34-.872.995-.959 1.592-.927l.014-.265c-.383-.02-1.398-.071-1.853 1.095M93.542 78.549c-.864.743-1.65 1.474-2.257 2.471-.318.054-.642.04-1.06-.053-.359-.08-.466-.633-.549-1.057-.091-.47-.753-1.455-.781-1.497l-.22.148c.183.272.674 1.052.745 1.42.093.475.22 1.127.747 1.244.284.063.529.094.759.094q.099-.001.193-.01c-.228.417-.427.88-.588 1.408-.589 1.925-.148 3.317.064 3.986l.024.075.252-.079-.024-.076c-.203-.644-.627-1.982-.063-3.828.585-1.914 1.674-2.964 2.93-4.046 1.221-1.049 3.247-2.018 3.267-2.028l-.114-.239c-.084.04-2.077.994-3.325 2.067" />
  <path
    d="M62.916 146.764c-4.744-1.998-9.025-2.61-9.625-4.307q-.039-.111-.068-.218l-.104.057-9.06-16.432-27.582-.273 21.272 11.236-26.814 15.18c3.145.699 23.07 1.098 42.943.299s13.782-3.545 9.038-5.543z"
    fill="#f6e600" />
  <path
    d="M132.391 141.557l9.27-16.906c.921-2.199.95-3.4-3.394-4.303-5.044-1.048-24.123-2.14-42.994-2.546-22.045-.475-44.366 1.647-49.235 2.646-3.036.623-2.965 2.576-2.48 3.958l9.584 17.382c-.084-1.497 2.032-2.336 11.572-3.114 8.932-.728 31.708-1.298 39.598-.849 7.89.45 25.017.562 27.513 2.896.315.295.495.572.566.836"
    fill="#f6e600" />
  <path
    d="M147.754 136.727l21.222-11.136-27.637.199-8.98 16.378a1.323 1.323 0 0 1-.154.28l-.17.31-.063-.035c-1.132 1.119-4.164 2.05-6.838 3.192-4.094 1.747-16.066 4.83 3.995 6.192 20.099 1.363 45.34-.05 45.34-.05z"
    fill="#f6e600" />
  <path
    d="M88.228 124.506v.844H86.97v-.805l.059-.098h1.14zm30.053 2.942c.243-.196.609-.496.992-.531.65-.06 1.073.236 1.358.812.365-.262.74-.599 1.203-.65.645-.07 1.284.334 1.313.997.05 1.114-.082 2.106-.157 3.275l-1.184-.101c-.005-.253.01-.49.014-.646.02-.729.065-1.442.067-2.212 0-.347-.437-.362-.721-.332-.357.04-.489.227-.507.577a114.828 114.828 0 0 1-.16 2.547c-.252.047-1.234-.022-1.235-.075.042-.677.125-1.533.148-2.21.01-.281.062-.699-.155-.904-.275-.259-.765-.118-1.016.09l-.222 2.876c-.056.08-1.038-.013-1.196-.047l.235-3.97.032-.047 1.19.046c0 .093-.02.4 0 .505zm-43.42-1.04c-.717-.353-1.418-.732-2.24-.45-.614.212-.668.797-.002 1.02 1.002.334 2.485.268 2.558 1.684.092 1.793-1.99 2.078-3.353 1.855-.185-.03-.84-.18-.914-.343.003-.27.017-.749.003-.982l-.004-.193c.374.23.757.473 1.191.575.488.115 1.756.19 1.741-.557a.535.535 0 0 0-.289-.46c-.824-.394-2.21-.126-2.642-1.286-.79-2.129 2.307-2.74 3.754-2.098.046.02.197.127.197.157zm23.765 3.806c-.056-.035-.062-.078-.06-.136.034-1.05.032-1.777.042-2.55.013-.994.025-1.995.077-2.985.252-.019.347-.021.53-.015.12.003.624-.035.672.034l-.013 2.078c.814-.974 2.434-.791 2.548.532.06.702.061 2.047 0 2.749-.01.11-.02.146-.011.314h-1.236c.019-.515.025-.669.028-.796.012-.536.074-1.417 0-1.919-.107-.729-1.276-.562-1.32-.056-.056.646-.029 1.486-.056 2.104-.009.206.01.358.01.62zm-37.88-2.785c-.02.242.653-.34.791-.398.747-.313 1.494-.035 1.742.762.172.553.126 1.215.144 1.803.013.39.023 1.052.034 1.424-.215.052-1 .07-1.241.078-.011-.2-.007.164-.015-.237-.013-.608.004-1.201-.038-1.767-.02-.269-.033-.745-.181-.957-.24-.341-1.158-.22-1.188.143-.03.36-.001.816.009 1.177.016.57.042 1.13.061 1.698-.337.006-.938.034-1.21 0l-.177-5.639.104.007 1.07-.019.095 1.925zm16.257-2.825l.052.066c.124 1.042-.026 2.108.086 3.15l1.139-1.539.138-.108h1.317l-1.289 1.78 1.525 2.3h-1.395l-1.101-1.647-.118-.044c-.158-.011-.213.218-.212.342.003.379.025.696.037 1.253.001.057-.012.038-.012.137l-1.231-.008c-.007-.334-.003-.543-.015-.8-.047-.994-.028-1.982-.04-2.98-.007-.57-.042-1.18-.043-1.766 0-.058.005-.101.061-.136zm30.211 3.909l-2.79-.008c-.175.96.926 1.168 1.662 1.032.38-.07.722-.252 1.062-.407.033.18.02.45-.046 1.002a4.43 4.43 0 0 1-.773.236c-1.798.392-3.442-.427-3.14-2.473.223-1.523 1.82-2.224 3.15-1.572.779.383 1.024 1.411.875 2.19zm-2.17-1.624a.892.892 0 0 0-.518.307c-.073.102-.225.483-.103.569.064.045.955.011 1.125.015.19.004.457.158.452-.173-.007-.498-.492-.791-.956-.718m-36.93 1.973l-2.77.192c-.144.1.09.538.182.647.421.495 1.35.391 1.891.167.24-.1.378-.166.642-.36.003.231.007.898-.017 1.022-.022.11-.919.31-1.076.339-1.76.312-3.091-.555-2.917-2.44.192-2.075 3.439-2.578 3.959-.577.041.16.125.893.106 1.01zm-1.239-.694c-.018-.925-1.279-1.084-1.57-.251-.184.524.029.383.375.375.187-.005.928-.015 1.195-.124m17.303-2.112l-1.966 5.609h-1.297l.543-1.618-1.526-3.952h1.16c.03 0 .132.086.147.128.28.735.484 1.51.786 2.235.015.035.079.256.148.187l.718-2.442a.476.476 0 0 1 .127-.147zm-25.285.936c-.33.036-1.267.078-1.46.108-.06.009-.144.002-.127.053l.188 4.387-.11.008-1.022.078-.164.02-.283-4.43c-.136-.007-.598.01-.689.012a135 135 0 0 1-.9.022c-.031 0-.02-.07-.026-.117l-.016-.879.114-.001 4.424-.22zm33.423.201c-.25-.102-.464-.274-.725-.354-.317-.096-1.052-.197-1.258.12-.347.533.874.618 1.197.724.41.134.784.333.917.773.24.792-.333 1.45-1.066 1.668-.728.216-1.722.151-2.367-.244v-.961c.255.053.482.253.736.344.362.13.897.194 1.262.061.245-.09.297-.451.083-.578-.727-.244-1.929-.263-2.07-1.23-.248-1.679 2.229-1.938 3.292-1.284zm21.46 3.484l-3.565-.12.186-5.388 1.162.022.105.004-.105 4.39c.186.06 2.02.082 2.228.142.03.156-.007.68-.012.95m-15.836-3.758h-1.12c-.014 0-.105.011-.1.039v2.06c0 .038 0 .203.177.294.301.156.752.098 1.042 0v.804c-.358.164-.954.177-1.352.133-1.219-.135-1.07-1.009-1.083-1.94-.002-.113.035-1.097-.043-1.354l-.47-.036v-.765l.002-.045.48-.041c.027-.028.029-.191.029-.228v-.863c.025-.039.055-.05.098-.059.11-.02.974-.011 1.042.02a.365.365 0 0 1 .079.078v1.069l1.16.01.059.059zm31.127 1.592l-1.12-.043c-.013 0-.104.008-.1.035l-.078 2.058a.317.317 0 0 0 .165.302c.295.167.748.126 1.042.039l-.03.803c-.365.15-.962.14-1.357.082-1.213-.181-1.032-1.048-1.01-1.979.003-.113.078-1.095.01-1.355l-.469-.054.03-.765.003-.044.48-.024c.03-.026.037-.19.039-.226l.032-.862c.027-.038.057-.049.101-.055.11-.016.973.025 1.04.06a.368.368 0 0 1 .076.08l-.039 1.02-.001.048 1.158.054.057.061zm-42.096-2.397a.307.307 0 0 1 .079-.077c.069-.033.932-.04 1.04-.02.043.009.139.068.139.097v3.923l-.06.059h-1.14l-.059-.059zm27.597 4.655c.037-.758.196-3.633.243-4.073.193-.024.779.007.996.026.044.004.167.019.178.066l-.21 4.009zm.103-4.788c-.061-.036.01-.624.02-.9.083-.052.287-.04.39-.038.192.006.53.016.707.04.067.008.118.015.156.08l-.021.724c-.007.05-.013.163-.063.163-.347 0-.935-.068-1.19-.069zm9.484 1.511a.306.306 0 0 1 .082-.074c.07-.029.933.001 1.04.027.043.01.136.074.134.103l-.173 3.918-.061.057-1.14-.05-.056-.062zm1.432-1.638l-.037.842-1.256-.055.035-.804.063-.095 1.14.05z"
    fill="#00a04a" />
</svg>