<svg viewBox="-.01 -.01 86.87 120.02" xmlns="http://www.w3.org/2000/svg" xmlns:xlink="http://www.w3.org/1999/xlink"><clipPath id="a"><path d="m0 595.28h841.89v-595.28h-841.89z"/></clipPath><g clip-path="url(#a)" transform="matrix(2.41043 0 0 -2.41043 -438.566 316.238)"><path d="m217.06 99.43a17.1 17.1 0 1 0 -34.2 0 17.1 17.1 0 0 0 34.2 0" fill="#fff"/><path d="m210.71 102.76c-.28.85-1 1.53-1.75 1.64-.56.07-1.03.07-1.63.07-.22 0-.74 0-.74.04l.25-.4c.32-.52.77-.57 1.33-.63.35-.04.38-.1.23-.43-.22-.45-.1-1.11.27-1.38.05.3.07.56.13.82.13.5.68.75 1.05.47.45-.35.42-.7.33-1.28-.14-1.02-1.11-1.77-2.14-1.86-1.12-.1-1.8 0-2.86.45-.33.14-.83.33-1.29.25a1.33 1.33 0 0 1 -.79-.4c-.23-.24-.25-.58-.2-.9.07-.67.66-1.4.9-1.6.3-.26.63-.58.74-.96.07-.24-.04-.61-.25-.82-.3.47-.65.8-.65.8-.43.4-.66.63-1.08.94-.62.48-1.02.82-.91 1.6.04.38.04.76.05 1.14v.52c.01.06.07.17.12.18.27.05.92-.93.92-.93.29.11.38 1.4.36 1.6a9 9 0 0 0 -.09 1.05c.14-.48.25-.63.77-.88.07-.04.55-.04.58.08 0 0-.32.25-.63.87-.34.68-.3.93-.4 1.48a5.6 5.6 0 0 0 -.04 1.31c.45-.01.95-.82.95-.82.14.65-.2 1.34-.38 1.8a3.9 3.9 0 0 1 -.96 1.07c.5.09 1.14-.36 1.14-.36-.07.3-.19.49-.22.59-.1.34-.27.52-.46.86-.06.11-.27.45-.66.83-.37.37-.76.61-1.11.71a4.9 4.9 0 0 1 -1.6 0 3.8 3.8 0 0 1 -1.03-.32.45.45 0 0 1 -.2-.38v-.12a2.7 2.7 0 0 1 -.64 0c-.28-.02-.73-.26-.8-.28-.33-.1-.1-.5.03-.45 0 0-.19-.03-.12-.3.19-.69.1-.62.1-.8 0-.4 1.57-.05 1.72.02.15.08.11.32.26.26 0 0 .17-.03.02-.2-.33-.38-.06-.59 0-.8-.04.05-.3-.65-.26-.67-.1-.05-.26-.06-.45-.1-.8-.06-.94.44-1.32.32-.2-.07-.15-.36-.14-.58.02-.25-.06-.18-.23-.56-.06-.13.91-.04.96-.01 0-.04 0-.38-.2-.51-.22-.15-.26-.07-.51-.13-.48-.1-.6-.3-.94.02-.25.24-.47.53-.75.73-.25.18-.55.36-.85.39-1.02.1-1.87.46-2.16 1.06-.1.23.06.96-.09 1.23-.24.43-.6.6-1.1.61 0 0 .17-.13.2-.25.02-.12-.08-.23-.11-.35-.1-.2-.14-.23-.34-.27.1-.13.13-.23.13-.44-.02-.24-.08-.28-.13-.42-.07-.2-.1-.43-.1-.66-.01-.1-.04-.46.1-.72.1-.15.17-.26.63-.32.45-.06.8-.44.75-.99-.02-.15 0-.57.1-.6.04-.02.05.24.16.27.09.03.18-.19.2-.24.1-.2.19-.39.33-.55.05-.05.11-.16.18-.18.16-.06.07.33.16.32l.57-.09c.06-.01.15-.06.16-.1a.7.7 0 0 0 -.02-.23c-.06-.25-.24-.44-.64-.73a4.8 4.8 0 0 0 -1.02-.45s.09-.17.3-.29c.23-.12.52-.23.58-.26 0-.05-.13-.04-.33-.17-.67-.44-.8-1.07-1.32-1.64a7 7 0 0 0 -.79-.73 1.24 1.24 0 0 0 -1-.26c-.59.1-1.1.84-1.91.84-.15 0-.66-.1-.75-.4-.05-.13.62.15.49-.22-.16-.45-.13-.64-.13-.64s.24.18.34.02c.06-.1-.4-.18.04-.83 0 0-.1.5.7.36.2-.25.43-.4.63-.43.15-.02.39.1.5.14.22.07.36.13.73-.05.34-.16.37-.2.67-.44.09-.07.27-.19.38-.23.04.14.13.3.1.43-.02.14-.15.26-.25.42.27.38.6.03.94.05.07.37-.06.8.28 1.1.12.1.26.17.42.24-.06-.37-.12-.73.05-1.03.36.18.94.5 1.27.7.34.2 1.3 1.1 1.57 1.27.1-.6.63-.91 1.03-1.33.5-.52 1.02-1.02 1.47-1.57.24-.31.36-.72.52-1.1.02-.04-.1-.2-.19-.21-.84-.23-1.44-.38-2.26-.62a4.4 4.4 0 0 1 -.9-.35c-.47-.46-.42-1.05-.26-1.69.17-.7.3-1.28.4-1.51.09-.23-.44-.34-.8-.44-.16-.03-.7 0-.97.16-.63.37-.65.53-1.25.71-.16.05-.52.12-.78 0-.32-.13-.53-.45-.43-.41a.6.6 0 0 0 .42.02c.12-.04.27-.03.08-.25-.14-.17-.2-.59-.14-.54.14.09.52.19.32.01-.3-.26.03-1.05.06-.85.03.17-.05.43.5.34.09-.02.02.1.15.04.14-.07.13-.32.69-.4s.35.3.82.24c.5-.06.7-.12 1.3-.2.82-.1 1.06-.11 1.22.1.2.26.46.85.36.93-.32.23-.26.72-.11 1.02.2.4.3.34.7.5.71.32 1 1.03 1.77 1.08.08 0 .18-.08.24-.14l.31-.3c.93-1.21 2.04-1.49 2.2-1.55a2.8 2.8 0 0 1 1.96.1l.71.2c.25.05.37-.06.4-.3.13-.76.13-1.17-.19-1.42-.28-.22-.71-.14-1-.51-.2-.24-.24-.6-.28-.9 0-.02.3.27.43.23.03 0-.11-.2.09-.64.06-.13.15.35.69.37.15 0-.06-.16.28-.59.09-.1-.01.42.72.4.5-.01.7.28.73.56.02.27-.1.7-.15 1.07-.04.31.1.59.26.88.26.45.34.95.32 1.47 0 .16.08.34.19.47.26.3.33.75.14 1.14-.15.3-.43.43-.87.38a1.6 1.6 0 0 1 -1.02-.5c-.2-.23-.44-.45-.72-.3a1 1 0 0 0 -.5.6c-.12.44-.1.68-.14.94.35.37.55.66.55.66.26.47.24 1.16-.02 1.66-.28.53-.75.84-1.15 1.27-.71.79-.2 1.4.38 1.37.4-.02.72-.25.94-.6.23-.33.39-.57.74-.75.43-.22 1.14-.18 1.47-.66.02.06.04.13.04.2a1 1 0 0 1 -.4.81c-.14.11-.3.2-.46.28.12-.06.38-.05.52-.06l.56-.01c.36.01.73.07 1.07.19 1.37.47 2.3 1.98 1.84 3.4m-.08 17.13s-.1 2.6-2.87 3.17c0 0-3.68 2.24-7.82 1.48-4.13.76-7.81-1.48-7.81-1.48-2.77-.58-2.87-3.17-2.87-3.17l2.92-3.72c2.38 1.84 7.87 2.02 7.89 2.02.75-.04 5.46-.33 7.64-2.02z" fill="#e4032c"/><path d="m211.38 122.52c-.04-.4-.28-.98-.62-1.64a24.3 24.3 0 0 0 -2.75-4.14l-.19.1c-.2.12-.42.24-.64.34h.12a.85.85 0 1 1 -.58.22c-.5.24-1.03.45-1.57.63a.85.85 0 0 1 .62 1.42l.03.02c.64.54 2.43 2.25 3.07 4 .17.46.26.91.23 1.35.42.11.95.2 1.23.05.5-.25 1.2-.95 1.05-2.35m-6.75-4.33c-.57.18-1.15.32-1.74.43a.851.851 0 0 1 -.1 1.7.85.85 0 0 1 -.37-1.63c-.7.11-1.4.18-2.13.19.4.62.7 2.33.7 4.35 0 1.59-.18 3-.46 3.82 1.78-1.68 6.1-1.78 6.1-1.78.47-.29.62-.78.58-1.35-.12-1.59-1.72-3.82-2-4.19h-.07a.85.85 0 0 1 -.5-1.54m-5.03.69c-.72-.02-1.44-.08-2.14-.19a.85.85 0 0 1 -.36 1.63.85.85 0 1 1 -.08-1.7c-.6-.12-1.2-.26-1.77-.43.22.15.36.4.36.7 0 .46-.39.85-.86.85h-.04c-.27.36-1.89 2.6-2 4.18-.05.57.1 1.06.57 1.35 0 0 4.28.1 6.08 1.76a13.5 13.5 0 0 1 -.45-3.8c0-2.02.29-3.73.7-4.35zm-4.85-.85c-.55-.19-1.08-.4-1.6-.65a.85.85 0 0 1 -.56 1.5.853.853 0 1 1 .14-1.7 17 17 0 0 1 -.84-.45c-.4.4-1.88 2.5-2.74 4.15a5.4 5.4 0 0 0 -.62 1.64c-.15 1.4.56 2.1 1.05 2.35.28.14.81.06 1.23-.05-.03-.43.07-.89.23-1.34.65-1.76 2.45-3.46 3.1-4a.85.85 0 0 1 .61-1.44zm16.48 7.82c-.95.23-1.8-.02-2.31-.24a2.4 2.4 0 0 1 -.5.75c-2.07 2.12-6.5 1.74-7.98 1.55a.85.85 0 0 1 -.12 1.46v.6h.48v.76h-.48v.47h-.75v-.48h-.48v-.75h.48v-.61a.85.85 0 0 1 -.1-1.46c-1.48.19-5.91.57-7.98-1.55a2.4 2.4 0 0 1 -.5-.75c-.52.22-1.37.47-2.32.24-1.54-.39-2.95-1.86-1.22-4.36s4.1-4.95 4.1-4.95l.61-1.18a16.13 16.13 0 0 0 15.4.09l.75 1.08a46 46 0 0 1 4.14 4.98c1.73 2.5.32 3.97-1.22 4.35" fill="#cb9804"/><path d="m199.75 109.62s-.33.08-.49-.14v-.06s0-.3.19-.34c.17-.05.32.01.37.19.07.28-.07.35-.07.35" fill="#fff"/><path d="m197.44 108.72s.16.02.25-.07.23-.06.23.04-.13.17-.24.16a.54.54 0 0 1 -.24-.13m1.69-13.07c-.23.61-.28.79-.52 1.1-.45.55-.98 1.05-1.47 1.57-.4.42-.93.74-1.03 1.32 0 0 .17.23.17.04 0-.2.33-.58.56-.83l1.89-1.96a4 4 0 0 0 .75-1.43c.17-.48.38-1.51.47-1.74.12-.32.9-1.17 1.2-1.42.37-.3.5-.37.83-.54.46-.23.83-.23 1.2-.34.38-.1 1.87.28 2.06.36.18.07.46.04.66-.28s.24-1.76-.45-1.86c-.7-.09-1-.24-1-.24.3.38.73.3 1.01.52.32.25.32.66.2 1.41-.04.25-.16.36-.4.3a8 8 0 0 1 -.72-.2 2.82 2.82 0 0 0 -1.96-.1c-.16.07-1.26.35-2.2 1.55l-.3.3c-.07.07-.17.15-.25.14l-.12.35-.12.77c-.1.62-.9.93-.9.93s.18.03.28.07c.14.05.16.21.16.21m-4.47 7.9c-.14-.04-1.35.48-2.24 1.59-.37.46-1 .02-1.02.98-.05 1.32-.15 1.75-.36 1.71.1-.12.13-.23.14-.43-.03-.24-.09-.29-.14-.42a2.4 2.4 0 0 1 -.1-.67c0-.1-.04-.46.1-.71.1-.15.17-.27.64-.33.44-.06.8-.44.74-.98-.02-.15 0-.57.1-.61.05-.02.06.25.16.28.09.02.18-.2.2-.25.1-.2.19-.38.33-.54.05-.06.12-.16.18-.19.16-.05.07.33.16.32l.58-.08.1-.05.05-.05v-.09c0-.06.63.09.83 1.02 0 0-.34-.47-.45-.5m4.66 3.35a1 1 0 0 1 -.1.16c-.12.16-.38.4-.95.19a3.7 3.7 0 0 0 -1.38-.23c-.47.02-.82.4-.7.13s.84-.58 1.48-.45c.63.12.81 0 1.25-.36a.8.8 0 0 1 .15-.1s.32.28.25.66" fill="#9c182f"/><path d="m200.07 93.19c-.06.07-.16.14-.24.14-.76-.04-1.06-.74-1.78-1.07-.4-.17-.5-.11-.7-.5-.14-.3-.2-.8.12-1.03.1-.08-.16-.66-.36-.93-.16-.2-.4-.2-1.23-.1-.6.09-.79.14-1.3.2-.46.07-.26-.32-.82-.23-.56.08-.54.32-.68.4 0 0 .3-.24.73-.12.42.12.54.37 1.03.23.48-.14 1.33-.3 1.66-.12s.44.54.44.74-.2 1.03.04 1.28c.24.26.88.38 1.17.55.31.18.76.69 1.08.92s.37.83.37.83zm-3.96 6.46c-.27-.17-1.23-1.06-1.57-1.27-.33-.2-.9-.51-1.27-.7-.18.3-.1.66-.05 1.03a1.7 1.7 0 0 1 -.42-.24c-.34-.29-.2-.72-.28-1.1-.33-.02-.67.33-.94-.05.1-.15.23-.28.25-.42.03-.13-.06-.28-.1-.43-.11.05-.3.16-.38.23-.3.24-.33.28-.67.44-.37.18-.51.12-.73.05-.11-.03-.35-.16-.5-.13-.2.03-.43.18-.64.43 0 0 .31-.2.52-.17a6.8 6.8 0 0 1 2.04.5c.76.35 1.33 1.05 1.92 1.28.2.07.22-.3.29-.55.1-.36.34-.28 1 .15zm12.73 4.02s-.58.18-1.04.23c-.45.06-1.2.62-1.2.62.14-.24.3-.66.7-.84.51-.24 1.12-.14 1.19-.33.01-.05.03.08.09.13.1.1.26.19.26.19m-1.3-5.73s-.1.6-.79.95c-.69.36-.87.7-1.1.66 0 0 .42.02.74-.15.33-.17.89-.4 1.08-.8.2-.4.07-.66.07-.66m-5.84 2.18s-.35.47-.58.2c-.23-.28-.9-1.3-1.66-1.3 0 0 .28.9 0 .96s-1.9-.48-2-1.77c0 0-1.12.76-1.23 1.1l-.12.33s.03.94.93 1.29c.25.03.38-.88-.17-1.7 0 0 1.63.17 2.21 1.76 0 0 .83-.28.67-1.35 0 0 1.24.16 1.47 1.84l.54-.51s-.04-.07-.05-.13v-.58zm.04 12.13s-.35-.55-.45-.68a1 1 0 0 0 -.33-.3c-.21-.11-.36.05-.48.22-.08.11-.31.6-.37.7v-1.86c0-.04.02-.06.06-.07l1.1-.23h.01l1.1-.23c.04-.01.06 0 .08.04l.63 1.42.12.29c-.1-.08-.5-.43-.63-.5-.17-.1-.37-.2-.52-.01a1 1 0 0 0 -.18.4z" fill="#9c182f"/><path d="m199.96 85.54a13.89 13.89 0 1 0 0 27.78 13.89 13.89 0 0 0 0-27.78m0 31.9a18.04 18.04 0 0 1 -18.02-18c0-9.94 8.09-18.03 18.02-18.03 9.94 0 18.02 8.09 18.02 18.02s-8.09 18.01-18.02 18.01" fill="#e4032c"/><path d="m189.26 111.2c-.43.54-.37 1.3.2 1.75.36.29.67.33.98.3l-.02-.51a.88.88 0 0 1 -.65-.17c-.32-.25-.34-.7-.09-1.02.26-.33.7-.42 1.02-.16.22.17.28.36.32.6l.48-.05a1.23 1.23 0 0 0 -.51-.95 1.21 1.21 0 0 0 -1.73.21m2.65 1.75-.62 1.22.47.24.61-1.2c.18-.36.45-.45.73-.3.3.15.38.4.2.75l-.62 1.22.47.24.61-1.2c.33-.65.13-1.16-.44-1.45-.57-.3-1.09-.15-1.41.48m2.52 2.65.5.15.55-1.84 1.14.33.14-.46-1.66-.48zm3.07.23-.72-.1-.08.5 1.97.26.07-.48-.73-.1.26-1.9-.53-.07zm2.3-.66.08 1.37.52-.03-.07-1.35c-.03-.4.16-.6.47-.63.32-.01.53.17.55.55l.08 1.37.52-.03-.05-1.35c-.05-.72-.48-1.06-1.12-1.02-.65.02-1.02.42-.98 1.12m4.26-.36c.25-.06.43.03.48.23.05.23-.08.38-.32.45l-.5.13-.18-.67zm-.74 1.4 1.06-.28c.3-.08.5-.22.62-.4.1-.17.12-.37.06-.59a.74.74 0 0 0 -.68-.6l.35-.98-.6.16-.3.87-.4.1-.2-.74-.5.13zm3.82-2.81.05.84-.62-.56zm.12 1.51.44-.21-.14-2.62-.5.24.05.58-.92.44-.43-.39-.48.24zm2.35-1.35.42-.32-1.15-1.53.96-.72-.29-.38-1.38 1.03zm-24.35-10.05.01.42h.44l.02-.72-.1-.34-2.3.62.14.5zm-.76-2.74c.22-.02.39.1.42.37.02.26-.11.43-.31.44h-.03c-.18.02-.35-.11-.38-.37-.02-.24.1-.42.3-.44m-.61.08a.7.7 0 0 0 -.11.5c.05.5.37.8.85.74.48-.05.78-.45.72-.98-.03-.32-.13-.5-.33-.65-.18-.15-.45-.23-.91-.18-.77.09-1.25.5-1.17 1.17.04.34.18.56.36.74l.36-.32a.76.76 0 0 1 -.26-.49c-.03-.34.3-.48.5-.53m-.66-1.52.69-.74c.26-.28.4-.4.59-.38.2.01.3.15.29.34-.01.18-.12.3-.35.46l.27.38c.33-.21.52-.43.54-.85.03-.49-.23-.83-.67-.85h-.01c-.4-.03-.6.16-.95.56l-.32.37.06-1.03-.45-.03-.1 1.75zm.2-2.79.41-.27c-.13-.2-.2-.39-.14-.62.05-.19.2-.3.36-.26.2.05.26.24.2.53l-.06.2.3.16.69-.41-.22.9.43.1.38-1.54-.38-.1-.7.45c.02-.33-.07-.67-.5-.77-.43-.11-.83.13-.95.64-.1.41 0 .74.18.99m7.81-9.03.43-.28-1.03-1.58.99-.65-.26-.4-1.42.93zm2.11-1.29 1.64-.7-.19-.43-1.16.5-.19-.44 1.02-.44-.18-.42-1.02.44-.2-.46 1.18-.5-.18-.43-1.65.71zm4.02-2.53c.1.4-.14.8-.55.89-.4.08-.75-.19-.84-.58a.72.72 0 0 1 .54-.88.7.7 0 0 1 .85.57m-1.92.4v.01c.14.66.77 1.09 1.48.94a1.222 1.222 0 0 0 -.51-2.39 1.2 1.2 0 0 0 -.97 1.45m3.51.58h.48l1.11-1.45v1.46h.5l.02-2.36h-.44l-1.15 1.5v-1.5l-.5-.01zm3.03.12 1.75.35.09-.46-1.24-.24.09-.47 1.09.21.09-.45-1.1-.21.1-.5 1.26.26.1-.46-1.78-.33zm3.15-1.34.15.45c.27-.08.51-.1.76 0 .2.07.3.2.24.32-.05.13-.15.18-.55.13-.5-.07-.82-.06-1 .37v.01c-.15.4.07.79.52.96.32.13.63.13.92.04l-.1-.46a1.1 1.1 0 0 1 -.66 0c-.19-.08-.25-.2-.21-.3v-.02c.06-.15.17-.16.59-.1.49.05.8-.01.95-.4.17-.44-.07-.82-.54-1a1.5 1.5 0 0 0 -1.07 0m3.59 2.44-.67.48.14-.81zm-1.2.9.4.24 2.13-1.47-.47-.3-.46.34-.85-.53.1-.56-.45-.28zm7.16 8.7v-.42h-.44l-.03.7.09.35 2.3-.6-.13-.5zm.75 2.75c-.21.02-.38-.12-.4-.38-.03-.25.1-.41.3-.43h.01c.21-.02.37.12.4.37.02.26-.11.42-.31.44m.62-.07c.08-.14.13-.3.1-.5-.04-.5-.36-.8-.83-.76h-.01c-.47.05-.79.45-.73.98.03.32.13.5.32.65.19.16.45.24.92.2.76-.1 1.25-.5 1.18-1.18a1.14 1.14 0 0 0 -.36-.74l-.36.31c.15.16.23.3.25.5.04.35-.29.49-.48.53m.61 1.53-.7.74c-.26.27-.4.38-.6.37-.19-.02-.29-.16-.27-.34 0-.18.12-.3.34-.46l-.26-.38c-.34.2-.52.42-.55.84-.04.49.23.83.67.86.4.03.6-.16.96-.55l.31-.38-.07 1.03.45.03.12-1.73zm-.23 2.78-.41.27c.13.2.2.39.14.62-.05.19-.2.3-.36.26-.21-.05-.27-.25-.2-.54l.05-.2-.3-.16-.68.41.21-.9-.43-.1-.38 1.55.39.09.69-.45c-.02.33.07.67.5.77.43.11.83-.13.95-.64.11-.4.01-.73-.17-.98" fill="#fff"/></g></svg>