<svg viewBox="0 0 158.21 199.02" xmlns="http://www.w3.org/2000/svg"><path d="m152.15 90.53c-4.25 0-6.18-2.9-7.51-5.86-3.51 3.55-5.77 9.9-5.77 16.55 0 15.52 10.02 30.49 17.06 39.06-1.56 1.81-20.22 24.96-36.59 24.96-3.75 0-6.61-.98-8.74-2.99.08.41.12.84.12 1.28 0 13.13-19.89 29.24-31.61 35.49-11.61-6.18-31.61-22.34-31.61-35.49 0-.44.04-.86.12-1.28-2.13 2.01-4.99 2.99-8.74 2.99-16.37 0-35.03-23.14-36.59-24.96 7.02-8.56 17.06-23.53 17.06-39.06 0-6.66-2.26-13-5.77-16.55-1.33 2.97-3.26 5.86-7.51 5.86s-7.1-3.16-5.71-6.67l8.17-20.58c4.15-.78 9.2-1.66 16.7-.02l5.21-5.57c-.66-1.44-3.9-8.8-4.58-15.14l18.31-15.81c2.97-2.56 6.19-.59 6.25-.56a5.382 5.382 0 0 1 1.92 7.32c-.61 1.12-1.83 2.18-3 3.08 2.53 2.22 5.89 3.67 8.67 4.68 1.05.38 2.17-.34 2.26-1.46.63-7.67-1.98-10.58-2.26-11.93-.14-.7.04-1.39.44-1.92.27-.36.41-.8.32-1.24l-2.85-13.97-2.26-2.98-1.05-4.78c2.13-.46 2.24-.49 4.51-.93l.49 2.52.97-.18-.43-2.53c2.53-.43 2.03-.35 4.55-.72l.38 2.54c.32-.04.65-.09.98-.13l-.31-2.55c2.31-.28 2.4-.29 4.58-.51l.48 4.87-1.23 3.53.32 2.86c1.88-.19 3.67-.33 5.44-.42l-.13-2.88-1.76-3.3-.29-4.89c2.19-.12 2.3-.13 4.6-.21l.09 2.56c.33 0 .66-.02.99-.02l-.03-2.57c2.33-.03 2.28-.03 4.6 0l-.03 2.57c.33 0 .66 0 .98.02l.09-2.56c2.3.08 2.43.09 4.6.21l-.28 4.89-1.76 3.3-.13 2.88c1.75.09 3.58.23 5.44.42l.32-2.86-1.22-3.53.48-4.87c2.18.22 2.29.23 4.58.51l-.31 2.55c.33.04.65.09.98.13l.38-2.54c2.54.37 2.03.29 4.55.72l-.43 2.53.97.18.49-2.52c2.25.44 2.39.47 4.51.93l-1.05 4.78-2.26 2.98-2.85 13.97c-.09.44.04.88.32 1.24.4.53.59 1.22.44 1.92-.28 1.39-2.89 4.24-2.26 11.93a1.688 1.688 0 0 0 2.26 1.45c2.75-.99 6.14-2.45 8.67-4.68-1.17-.9-2.39-1.96-3-3.08a5.382 5.382 0 0 1 1.92-7.32c.05-.03 3.28-2.01 6.25.56l18.31 15.81c-.36 5.23-3.87 13.65-4.58 15.14l5.21 5.57c7.5-1.64 12.55-.76 16.7.02l8.17 20.58c1.39 3.52-1.58 6.67-5.71 6.67z" fill="#012944"/><path d="m130.65 71.1-11.41-12.2 1.61-3.09c1.16-2.23 3-7.05 3.89-10.5l-4.33-3.74-103.76 103.76c2.79 2.67 5.54 4.99 8.16 6.87 4.43 3.19 8.35 5.11 11.72 5.74-.17-1.9.48-3.86 1.91-5.29 2.59-2.59 6.81-2.59 9.4 0 .43.43.79.91 1.08 1.42l83.37-83.37-1.63.4zm-62.71 60.92c-.57-1.65-1.82-3.28-3.31-4l-7.26 7.26c.64 1.57 1.96 3.13 3.66 3.64l-7.78 7.78c.36-2.19 1.11-5.03-.36-8.67l-5.88-14.6c-.64-1.58-1.83-2.02-2.92-2.56l6.75-6.75 18.23 8.99c1.88.93 3.89 1.53 5.97 1.79l-7.12 7.13h.02zm10.15-10.15a3.374 3.374 0 0 1 -4.76 0 3.374 3.374 0 0 1 0-4.76 3.356 3.356 0 0 1 4.76 0 3.374 3.374 0 0 1 0 4.76zm5.47-5.47c-.21-1.18-.34-2.79-1.86-4.31l-11.32-11.32c-1.52-1.52-3.13-1.65-4.31-1.86l7.05-7.05c.21 1.18.34 2.79 1.86 4.31l11.32 11.32c1.52 1.52 3.13 1.65 4.31 1.86zm10.14-10.14a3.356 3.356 0 0 1 -4.76 0 3.356 3.356 0 0 1 0-4.76 3.356 3.356 0 0 1 4.76 0 3.356 3.356 0 0 1 0 4.76zm16.51-16.5c-2.89-6.9-9.77-6.39-11.7-4.46-1.27 1.27-1.22 1.95-.26 2.91l3.66 3.66c1.52 1.52 3.14 1.65 4.31 1.86l-7.05 7.05c-.21-1.18-.34-2.79-1.86-4.31l-11.32-11.32c-1.52-1.52-3.14-1.65-4.31-1.86l7.05-7.05c.21 1.18.34 2.79 1.86 4.31l1.59 1.59c.97.97 2.44.37 3-.18 3.08-3.08 2.72-7.29-1.71-10.46l5.65-5.65c2.65 4.9 3.58 8.49 3.02 12.49 3.28-.46 6.75.49 9.74 2.23 1.08.63 3.12 1.61 5.9 1.61l-7.58 7.58zm10.44-10.45a3.374 3.374 0 0 1 -4.76 0 3.374 3.374 0 0 1 0-4.76 3.374 3.374 0 0 1 4.76 0 3.374 3.374 0 0 1 0 4.76zm-68.73 42.45 7.82 3.86-4.46 4.46-3.35-8.32z" fill="#ffdd04"/><path d="m72.43 4.88-.21-3.67c.86-.05 1.72-.09 2.58-.12l.09 2.56c.98-.04 1.97-.06 2.96-.07l-.03-2.56h2.59l-.03 2.56c.99.01 1.97.03 2.96.07l.09-2.56c.86.03 1.73.07 2.58.12l-.21 3.67c-4.56-.26-8.93-.25-13.37 0zm8.46 18.27v-6.92c0-.98-.8-1.78-1.78-1.78s-1.78.8-1.78 1.78v6.92c-.83.02-1.65.04-2.47.08l-.67-15.04c3.34-.15 6.5-.15 9.84 0l-.67 15.04c-.82-.04-1.65-.06-2.47-.08zm-2.38-10.91-.03-2.92c-1.21.01-1.63.02-2.95.06l.09 2.92c1.32-.04 1.71-.05 2.9-.06zm4.1.06.09-2.92c-1.34-.04-1.76-.05-2.96-.06l-.03 2.92c1.31.01 1.71.02 2.9.06zm-6.27-2.15.04 1.34 1.32-.03v-1.34c-.46 0-.91.02-1.36.03zm4.17 1.31c.44 0 .88.02 1.32.03l.04-1.34-1.35-.03v1.34zm-2.39 4.78v6.9h1.97v-6.9c0-.54-.44-.99-.99-.99s-.99.44-.99.99zm-10.34-10.99-.36-3.66c-.86.08-1.71.18-2.57.29l.31 2.54c-.98.12-1.95.25-2.93.39l-.38-2.53c-1.21.18-1.35.2-2.56.41l.43 2.53c-.97.16-1.94.34-2.91.53l-.49-2.51c-.85.17-1.69.34-2.53.52l.79 3.59c5.85-1.27 10.53-1.82 13.2-2.09zm-1.99 18.81-1.08-6.83c-.15-.97-1.07-1.63-2.04-1.48s-1.63 1.07-1.48 2.04l1.08 6.83c-.81.14-1.63.3-2.43.46l-3.01-14.75c4.35-.88 7.72-1.31 9.71-1.54l1.7 14.96c-.82.09-1.64.2-2.45.31zm-4.06-10.4-.49-2.88c-1.18.2-1.6.27-2.91.52l.54 2.87c1.28-.24 1.68-.31 2.85-.51zm4.06-.58-.37-2.9c-1.32.17-1.74.23-2.93.4l.43 2.89c1.18-.17 1.58-.23 2.87-.4zm-6.53-1.15.25 1.31a59 59 0 0 1 1.3-.23l-.22-1.32zm4.13-.68.2 1.32 1.31-.18-.17-1.33-1.34.18zm-.6 5.29c-.54.08-.9.59-.82 1.13l1.08 6.82c.69-.12 1.24-.2 1.95-.31l-1.08-6.82a.986.986 0 0 0 -1.13-.82zm41.62-12.79c-.84-.18-1.69-.36-2.53-.52l-.49 2.51c-.96-.19-1.93-.37-2.91-.53l.43-2.53a71.81 71.81 0 0 0 -2.56-.41l-.38 2.53c-.98-.14-1.95-.28-2.93-.39l.31-2.54c-.86-.1-1.72-.2-2.57-.29l-.36 3.66c4.42.44 8.74 1.12 13.2 2.09l.79-3.59zm-3.05 6.58-3.01 14.75c-.81-.16-1.62-.32-2.43-.46l1.08-6.83c.15-.97-.51-1.88-1.48-2.04-.97-.15-1.88.51-2.04 1.48l-1.08 6.83c-.82-.11-1.64-.22-2.45-.31l1.7-14.96c3.32.38 6.44.87 9.72 1.54zm-5.66.25c-1.31-.19-1.74-.25-2.93-.4l-.37 2.9c1.31.17 1.71.22 2.87.4l.43-2.89zm3.61 3.59.54-2.87c-1.31-.25-1.73-.32-2.91-.52l-.49 2.88c1.29.22 1.69.29 2.85.51zm-1.94-1.16c.43.08.87.15 1.3.23l.25-1.31-1.33-.24zm-2.58-1.76c-.44-.06-.89-.13-1.34-.18l-.17 1.33 1.31.18.2-1.32zm.6 5.29a.992.992 0 0 0 -1.13.82l-1.08 6.82c.72.11 1.26.19 1.95.31l1.08-6.82a.984.984 0 0 0 -.82-1.13zm-32.63 17.89-.31-1.63c-.34.07-.68.13-1.02.2l.33 1.62c.33-.07.66-.13 1-.2zm-.33 3.44c1.27-.26 2.55-.49 3.85-.69l-.25-1.64c-1.32.2-2.63.44-3.93.7l.33 1.62zm2.34-3.8c1.34-.22 2.7-.41 4.06-.58l-.19-1.64c-1.39.16-2.77.36-4.14.59zm3.46 2.84c1.3-.17 2.61-.31 3.93-.42l-.13-1.65c-1.35.11-2.68.25-4.01.43zm-1.04-8.22.21 1.64c1.41-.18 2.82-.33 4.25-.45l-.13-1.65c-1.45.12-2.9.27-4.33.46zm3.69 4.59c1.36-.13 2.73-.22 4.11-.29l-.07-1.65c-1.4.07-2.8.16-4.18.29l.15 1.65zm3.26 3.07c1.31-.08 2.63-.12 3.96-.14l-.02-1.66c-1.35.02-2.7.06-4.03.14l.09 1.65zm-.46-8.27.09 1.65c1.41-.08 2.83-.13 4.26-.15l-.02-1.66c-1.45.02-2.89.07-4.33.15zm-12.91 1.67.33 1.62c1.38-.28 2.77-.53 4.18-.74l-.25-1.64c-1.43.22-2.85.47-4.26.76zm35.97 3.25c-.34-.07-.68-.14-1.02-.2l-.31 1.63c.33.06.66.13 1 .2l.33-1.62zm-4.84 4.18c1.29.2 2.57.43 3.85.69l.33-1.62c-1.3-.26-2.61-.5-3.93-.7l-.25 1.64zm-2.55-3.69c1.36.16 2.72.35 4.06.58l.27-1.63c-1.37-.23-2.75-.42-4.14-.59zm-3.33 3c1.32.11 2.63.25 3.93.42l.21-1.64c-1.33-.17-2.67-.31-4.01-.43zm.52-6.6c1.43.12 2.84.27 4.25.45l.21-1.64c-1.43-.19-2.87-.34-4.33-.46zm-3.34 3.1c1.38.06 2.75.16 4.11.29l.15-1.65c-1.39-.13-2.78-.23-4.18-.29l-.07 1.65zm-3.12 3.22c1.33 0 2.65.06 3.96.14l.09-1.65c-1.34-.08-2.68-.13-4.03-.14l-.02 1.66zm.07-6.62c1.43.02 2.85.07 4.26.15l.09-1.65c-1.43-.08-2.88-.14-4.33-.15l-.02 1.66zm-3.15 1.67.04 1.66a93.4 93.4 0 0 1 4.1 0l.04-1.66c-1.45-.03-2.73-.03-4.17 0zm20.4-1.51c-1.41-.29-2.83-.54-4.26-.76l-.25 1.64c1.4.22 2.8.46 4.18.74zm1.26-2.18a.797.797 0 0 0 -.62-.94c-6.2-1.26-12.57-1.9-18.95-1.9s-12.75.64-18.95 1.9a.797.797 0 0 0 .32 1.56c6.1-1.24 12.36-1.86 18.63-1.86s12.54.63 18.63 1.86c.43.09.85-.19.94-.62zm-2.3 13.25c.13-.65-.29-1.27-.93-1.4a82.7 82.7 0 0 0 -32.68 0 1.19 1.19 0 0 0 .48 2.33c5.19-1.05 10.53-1.59 15.87-1.59s10.68.53 15.87 1.59c.65.13 1.27-.29 1.41-.93zm-22.48-17.77-.05-.98-.96.06.06.98zm-4.73.37.94-.09-.09-.98-.95.09zm2.63-3.1c.65-.05 1.3-.09 1.95-.12l-.08-1.57-1.98.12.12 1.57zm1.61-6.41-.08-1.57c-.7.04-1.41.08-2.11.13l.12 1.57c.69-.05 1.38-.09 2.08-.13zm-2.56 9.64c.47-.04.94-.08 1.42-.11l-.11-1.57c-.48.03-.96.07-1.44.11l.14 1.57zm2.66-7.77-1.02.06.06.98 1.01-.06zm-5.09.39.1.98c.33-.03.67-.07 1.01-.1l-.09-.98c-.34.03-.68.06-1.02.1zm1.75-.46.13 1.57 1.51-.12-.11-1.57zm-1.3 4.86c.65-.07 1.3-.12 1.95-.18l-.13-1.57c-.66.05-1.32.11-1.98.18zm1.42-6.45-.13-1.57c-.7.06-1.4.12-2.1.19l.16 1.57c.69-.07 1.38-.13 2.07-.19zm19.51 2.05c-.34-.03-.68-.07-1.02-.1l-.09.98c.34.03.67.06 1.01.1zm-.75 7.24.1-.98-.95-.09-.09.98zm-4.73-.37.95.06.06-.98-.96-.06zm.39-7.27-.05.98 1.01.06.06-.98zm.1-1.87c.69.04 1.38.08 2.08.13l.12-1.57c-.7-.05-1.4-.1-2.11-.13zm5.35-1.16c-.7-.07-1.4-.13-2.1-.19l-.13 1.57c.69.06 1.38.12 2.07.19zm-5.68 7.45c.65.03 1.3.07 1.95.12l.12-1.57c-.66-.05-1.32-.09-1.98-.12zm1.49 3.25c.47.03.95.07 1.42.11l.13-1.57c-.48-.04-.96-.08-1.44-.11zm.45-6.28c.5.04 1.01.07 1.51.12l.14-1.57-1.53-.12-.11 1.57zm1 3.23c.65.05 1.3.11 1.95.18l.16-1.57c-.66-.07-1.32-.13-1.98-.18zm-39.6 14.65c1-.76 2.18-1.76 2.65-2.59.87-1.56.4-3.52-1.14-4.42-.9-.54-1.75-.55-2.45-.34-1.32.38-2.02 1.83-1.53 3.11.46 1.22 1.19 2.72 2.48 4.25h-.01zm-35.94 48.18c-2.2-1.49-4.57-1.82-7.07-.95-1.82.63-2.38 2.2-2.45 2.38-.89 2.25 1.44 3.74 3.72 3.74 3.17 0 4.51-2.12 5.79-5.16h.01zm92.21 75.79a4.5 4.5 0 0 0 -4.5 4.5c0 2.72 2.44 4.91 5.25 4.44-3.33 8.31-14.67 18.87-25.71 25.39-11.04-6.52-22.38-17.08-25.71-25.39 2.99.5 5.24-1.89 5.24-4.44s-2.02-4.5-4.5-4.5-4.5 2.02-4.5 4.5c0 10.94 16.53 25.78 29.47 33.04 12.93-7.25 29.46-22.08 29.47-33.02 0-2.49-2.01-4.52-4.5-4.52zm51.79-74.37c-.5-1.25-1.44-2.03-2.45-2.38-2.49-.86-4.87-.54-7.07.95 1.29 3.04 2.63 5.16 5.79 5.16 2.28 0 4.61-1.48 3.72-3.74h.01zm-88.82-40.48.84.27-.18-1.3c-.26.04-.52.08-.79.12zm1.73.56c.28.09.56.18.83.28l-.25-2.1c-.26.03-.53.07-.79.1l.2 1.72zm1.71.58c.28.1.55.2.83.29l-.29-2.89-.79.09zm1.69.61c.27.1.55.21.82.31l-.29-3.68c-.26.02-.53.05-.79.07zm1.67.65c.27.11.54.22.82.34l-.27-4.48c-.26.02-.53.03-.79.05zm1.65.7c.27.12.54.24.81.37l-.21-5.29c-.26 0-.53.02-.79.03zm1.62.75c.27.13.54.26.8.4l-.12-6.12c-.27 0-.53 0-.79.02zm1.59-5.73v6.54c.13.07.27.14.4.21.13-.07.26-.14.4-.21v-6.54zm2.38 5.73.11-5.7c-.27 0-.53 0-.79-.02l-.12 6.12c.27-.14.53-.27.8-.4zm1.62-.75.19-4.89c-.26 0-.53-.02-.79-.03l-.21 5.29c.27-.12.54-.25.81-.37zm1.65-.7.24-4.09c-.26-.02-.53-.04-.79-.05l-.27 4.48c.27-.11.54-.23.82-.34zm1.67-.65.26-3.3c-.26-.03-.53-.05-.79-.07l-.29 3.68c.27-.11.55-.21.82-.31zm1.69-.61.25-2.51-.79-.09-.29 2.89c.28-.1.55-.2.83-.29zm1.71-.58.2-1.72c-.26-.04-.52-.07-.79-.1l-.25 2.1c.28-.09.56-.19.83-.28zm1.73-.56.13-.91c-.26-.04-.52-.08-.79-.12l-.18 1.3zm-22.79 80.36c1.12.55 2.27.99 3.46 1.33l-3.48 3.49c-1.48-2.2-3.08-2.78-4.06-3.25l-8.8 8.8c.4.98 1.03 2.88 2.91 4.38l-3.05 3.05c-.03-1.68-.36-3.34-.99-4.91l-5.88-14.6c-.38-.93-.99-1.73-1.78-2.33l4.46-4.46 17.21 8.49zm-5.96.64-11.77-5.8-1.01 1.01 5.05 12.52zm12.03-6.94c-.69.69-.69 1.82 0 2.51s1.82.69 2.51 0 .69-1.82 0-2.51-1.82-.69-2.51 0zm-.59-20.94a7.66 7.66 0 0 1 -1.59-2.33l-3.1 3.1c.86.37 1.65.91 2.33 1.59l11.32 11.32a7.66 7.66 0 0 1 1.59 2.33l3.1-3.1c-.87-.37-1.65-.91-2.33-1.59zm16.2 5.33c-.69.69-.69 1.82 0 2.51s1.82.69 2.51 0 .69-1.82 0-2.51-1.82-.69-2.51 0zm12.3-22.71-2.08.29.29-2.08c.43-3.07-.1-5.88-1.87-9.6l-2.87 2.87c1.76 1.65 2.76 3.55 2.93 5.57.18 2.19-.69 4.37-2.46 6.13-1.14 1.14-3.59 1.83-5.24.18l-1.59-1.59a7.66 7.66 0 0 1 -1.59-2.33l-3.1 3.1c.86.37 1.65.91 2.33 1.59l11.32 11.32a7.66 7.66 0 0 1 1.59 2.33l3.1-3.1c-.86-.37-1.65-.91-2.33-1.59l-3.66-3.66c-2.45-2.45-.41-4.49.26-5.16 1.44-1.44 4.18-2.06 6.81-1.54 1.63.32 4.39 1.33 6.42 4.47l3.78-3.78c-1.15-.31-2.26-.77-3.31-1.38-2.89-1.69-5.99-2.41-8.72-2.03zm14.64-4.24c-.69.69-.69 1.82 0 2.51s1.82.69 2.51 0 .69-1.82 0-2.51-1.82-.69-2.51 0zm-22.35 65.82v-12.38l-3.34 3.66v.04l1.81-.31v9h1.53zm14.04-4.56c0 2.77-2.04 4.91-4.88 4.91s-4.95-2.12-4.95-4.91c0-1.89 1.02-3.28 2.52-4.29-.81-.67-1.45-1.71-1.45-3.03 0-2.02 1.67-3.7 3.85-3.7s3.89 1.65 3.89 3.74c0 1.34-.75 2.32-1.53 2.99a4.81 4.81 0 0 1 2.56 4.29zm-7.16-7.23c0 1.28.94 2.34 2.28 2.34s2.24-1.04 2.24-2.34-.92-2.32-2.24-2.32-2.28 1.02-2.28 2.32zm5.54 7.21c0-1.89-1.34-3.42-3.26-3.42s-3.32 1.53-3.32 3.42 1.4 3.44 3.32 3.44 3.26-1.57 3.26-3.44zm11.99 3.4c-.81.43-1.53.59-2.34.59-2.89 0-4.52-1.93-4.52-5.74s1.61-5.7 4.62-5.7c1.65 0 2.73.59 3.52 1.67.67.92 1.1 2.14 1.1 4.76 0 6.6-3.28 7.84-5.29 8.71l-.24-.39c1.77-1.42 2.81-2.83 3.15-3.89zm.75-5.09c0-1.51-.26-2.48-.67-3.18-.5-.85-1.28-1.28-2.36-1.28-1.02 0-1.81.43-2.3 1.24-.41.73-.65 1.77-.65 3.18 0 2.85 1.06 4.34 2.95 4.34h.06c1.91 0 2.97-1.47 2.97-4.31zm7.9 6.27v-12.38l-3.34 3.66v.04l1.81-.31v9h1.53zm-40.57-5.84c0-.59-.49-1.06-1.06-1.06s-1.06.47-1.06 1.06.47 1.06 1.06 1.06 1.06-.49 1.06-1.06zm47.97 0c0-.59-.49-1.06-1.06-1.06s-1.06.47-1.06 1.06.47 1.06 1.06 1.06 1.06-.49 1.06-1.06zm-83.58-70.59c-4.14 0-7.49 3.35-7.49 7.49s3.35 7.49 7.49 7.49 7.49-3.35 7.49-7.49-3.35-7.49-7.49-7.49zm-.2 30.58h.4c.49-1.7.57-2.79.04-9.62h-.47c-.55 6.85-.47 7.77.03 9.62zm3.46-10.02c.97 5.72 1.25 6.54 2.18 8l.37-.1c.1-1.63-.1-2.58-2.11-8.02zm6.72 4.58.31-.18c-.18-1.37-.51-2.06-3.36-5.92l-.39.23c1.9 4.39 2.29 4.95 3.44 5.87zm2.9-4.55.23-.23c-.26-1.02-.56-1.45-3.43-3.51l-.31.31c2.08 2.91 2.47 3.13 3.5 3.43zm3.04-4.1c-.5-.9-.9-1.25-4.14-2.46l-.22.37c2.64 2.2 3.1 2.35 4.19 2.36l.16-.28zm3.51-3.61.09-.35c-1.05-.82-1.77-1.1-6.44-1.78l-.12.44c4.47 1.79 5.12 1.84 6.47 1.69zm5.67-5.18v-.41c-2.17-.54-3.84-.53-11.63-.03v.47c7.86.52 9.24.51 11.63-.03zm8.36-9.4c-3.72.5-6.42 1.17-20.51 5.48l.12.47c14.59-3.33 17.65-4.33 20.5-5.51l-.12-.43h.01zm-21.67 2.66c7.3-3.58 8.13-4.17 9.7-5.64l-.2-.35c-1.91.54-3.17 1.18-9.73 5.58zm-2.42-3.16.33.33c5.4-4.63 6.06-5.4 7.06-7.1l-.28-.28c-1.64.91-2.6 1.82-7.1 7.05zm-2.82-2.09.4.23c3.48-4.93 3.8-5.64 4.17-7.3l-.33-.19c-1.22 1.08-1.76 1.9-4.24 7.26zm-.68-9.34-.37-.1c-.91 1.38-1.21 2.32-2.23 8.15l.45.12c2.09-5.67 2.22-6.45 2.15-8.17zm-5.66-1.96h-.4c-.49 1.69-.57 2.76-.04 9.62h.46c.53-6.66.49-7.7-.03-9.62zm-3.46 10.01c-1.4-7.37-1.73-8.22-2.7-9.95l-.39.1c-.02 2.03.38 3.49 2.63 9.97l.45-.12zm-3.27 1.29c-3.13-6.53-3.69-7.3-5.04-8.66l-.34.2c.45 1.8 1 2.86 4.98 8.69zm-6.37-.9c.23 1.01.54 1.43 3.22 3.31l.3-.3c-1.91-2.75-2.29-2.96-3.3-3.23zm-2.26 3.76-.15.26c.47 1.22 1.75 1.42 3.54 2.11l.21-.36c-2.17-1.92-2.66-2.1-3.6-2zm-3.06 3.86-.09.32c.82.76 1.39 1.02 5.24 1.46l.11-.42c-3.63-1.58-4.13-1.59-5.26-1.36zm-3.26 4.87v.38c1.54.54 2.48.57 8.01.04v-.46c-5.73-.55-6.46-.47-8.01.04zm-2.75 6.89c2.14-.05 3.67-.42 11.28-2.99l-.12-.46c-8.31 1.66-9.3 2.02-11.26 3.05l.11.4zm12.68.24-.24-.41c-7.46 3.77-10.06 5.19-12.18 7.06l.21.37c2.42-.83 4-1.68 12.21-7.02zm2.19 2.75-.34-.34c-8.82 8.02-10.41 9.84-11.88 11.91l.31.31c2.08-1.49 3.36-2.54 11.91-11.88zm2.83 2.09-.42-.24c-7.51 11.88-8.75 14.38-9.81 17.03l.38.22c2.22-2.84 3.59-5.18 9.84-17.01zm3.27 1.29-.47-.12c-4.7 15.51-5.64 19.39-6.18 23.14l.44.12c1.35-3.52 2.29-6.21 6.21-23.14zm62.13-50.59c1.29-1.52 2.02-3.02 2.48-4.25.48-1.28-.22-2.73-1.53-3.11-.71-.2-1.55-.19-2.46.34-1.54.91-2.01 2.87-1.14 4.42.46.83 1.65 1.83 2.65 2.59zm43.71 45.2-5.99-15.08c-5.9-1.1-10.64-.82-15.86.46l-7.06-7.55c1.66-3.18 4.49-10.84 4.9-14.64l-14.88-12.85c-4.58 14.38-22.15 12.71-36.12 20.93-13.97-8.22-31.55-6.55-36.12-20.93l-14.88 12.85c.41 3.8 3.24 11.46 4.9 14.64l-7.06 7.55c-5.22-1.28-9.96-1.57-15.86-.46l-5.99 15.08c9.81-3.39 17.39 8.4 17.39 20.97 0 14.61-8.8 29.77-16.4 39.03 10.35 12.05 23.28 22.84 33.79 22.84 2.33 0 5.26-.39 7.44-2.57a4.49 4.49 0 0 0 0-6.36 4.503 4.503 0 0 0 -6.59 6.13c-10.23.56-22.44-11.26-26.14-14.95l105.18-105.18-1.81-1.56-105.04 105.04a121.87 121.87 0 0 1 -3.21-3.47c.26-.34 15.56-18.98 15.56-38.95 0-12.17-6.47-23.6-15.85-24.32l3.67-9.25c6.7-1 11.16.18 14.77 1.07l9.52-10.18c-3.35-6.19-4.83-12.16-5.28-14.01l10.84-9.36c1.71 3.08 4.21 5.59 7.56 7.59 3.92 2.34 8.49 3.76 13.33 5.25 9.54 2.95 11.75 4.07 16.28 6.73 4.55-2.67 6.76-3.79 16.28-6.73 4.84-1.5 9.41-2.91 13.33-5.25 3.35-2.01 5.85-4.51 7.56-7.59l10.84 9.36c-.45 1.85-1.93 7.82-5.28 14.01l9.52 10.18c2.07-.51 4.28-1.1 7.29-1.35l-88.55 88.55a1.19 1.19 0 0 0 0 1.69c.46.47 1.22.47 1.68 0l90.32-90.32c1.32.04 2.65.16 4.02.37l3.67 9.25c-9.4.72-15.85 12.16-15.85 24.32 0 19.96 15.29 38.6 15.56 38.95-11.11 12.48-22.53 20.59-31.02 20.12 1.53-1.77 1.46-4.45-.22-6.13s-4.61-1.76-6.36 0a4.49 4.49 0 0 0 0 6.36c2.17 2.17 5.1 2.57 7.43 2.57 10.51 0 23.44-10.79 33.79-22.84-7.6-9.26-16.4-24.42-16.4-39.03 0-12.58 7.58-24.37 17.39-20.97h.01z" fill="#af9663"/></svg>