<svg height="341.073" overflow="scroll" width="290" xmlns="http://www.w3.org/2000/svg"><path d="m144.999 7.68s-48.783 64.246-129.687 10.706c0 0-29.745 82.093 7.138 173.707 36.884 91.614 93.994 130.88 120.168 143.966l2.304 1.04 1.984-.99c26.178-13.085 83.286-52.352 120.172-143.964 36.878-91.613 7.135-173.71 7.135-173.71-80.904 53.54-129.688-10.705-129.688-10.705" fill="#00539f"/><path d="m237.168 35.96s-22.208 64.251-96.773 109.463c0 0-51.554 34.106-118.976 42.04 0 0 25.382 62.657 40.452 76.147 0 0 69.011-11.104 141.192-66.627 0 0 39.66-24.589 82.491-84.077 0 0 2.379-62.662-11.896-94.388z" fill="#fff"/><g fill="#9a8348"><path d="m23.689 191.647-1.363-8.366c86.922-14.15 139.678-53.756 168.627-84.489 31.251-33.175 42.115-63.156 42.221-63.455l7.988 2.835c-.457 1.29-11.578 31.973-44.038 66.432-19.013 20.183-41.443 37.447-66.668 51.313-31.47 17.298-67.39 29.32-106.767 35.73zm41.64 74.963-1.758-8.292c73.55-15.603 128.617-54.543 161.861-84.463 36.02-32.416 54.781-61.372 54.966-61.661l7.133 4.578c-.781 1.218-19.57 30.211-56.428 63.383-21.634 19.47-45.005 36.287-69.465 49.983-30.606 17.136-63.008 29.408-96.308 36.472z"/><path d="m145.255 341.073-4.295-1.943c-11.033-5.519-33.14-18.494-57.218-43.38-26.822-27.721-48.686-62.305-64.984-102.792-19.369-48.102-20.312-93.527-17.693-123.164 2.843-32.156 10.189-52.71 10.5-53.57l1.834-5.062 4.49 2.971c20.667 13.677 40.925 20.611 60.21 20.611h.007c39.863-.003 63.047-29.987 63.276-30.29l3.375-4.454 3.383 4.446c.229.297 23.645 30.337 63.684 30.337 19.347 0 39.631-6.932 60.289-20.602l4.49-2.97 1.833 5.06c.311.86 7.658 21.415 10.499 53.571 2.619 29.636 1.675 75.06-17.694 123.162-16.299 40.488-38.162 75.073-64.983 102.794-24.087 24.896-46.19 37.865-57.222 43.38zm-.577-9.56.387.174.177-.088c22.99-11.493 80.515-48.308 118.136-141.76 18.74-46.542 19.65-90.538 17.113-119.25-1.94-21.953-6.108-38.46-8.411-46.328-20.466 12.61-40.715 18.999-60.256 18.999-35.599 0-58.754-20.815-67.048-29.744-8.24 8.932-31.219 29.702-66.67 29.706h-.006c-19.485 0-39.703-6.39-60.174-19.006-2.316 7.917-6.517 24.573-8.442 46.616-2.5 28.642-1.557 72.532 17.138 118.961 37.566 93.321 95.017 130.177 118.057 141.72z"/><path d="m144.041 250.47-11.349 21.118-.026.04-21.02 11.897 21.117 11.35.067.07 11.9 21.017 11.35-21.118.027-.04 21.019-11.897-21.12-11.356-.067-.064zm-98.794-141.529c0 7.78.661 7.999 4.11 8.439l1.615.22c.514.513.44 1.834-.147 2.13a215.106 215.106 0 0 0 -9.759-.22c-3.226 0-6.678.072-9.905.22-.587-.293-.661-1.615-.148-2.13l1.612-.22c3.448-.44 4.11-.66 4.11-8.439v-27.294c0-7.776-.662-7.998-4.11-8.438l-1.612-.22c-.514-.512-.44-1.832.148-2.127a215.957 215.957 0 0 0 9.905.218c3.23 0 6.532-.07 9.759-.218.586.291.66 1.612.147 2.127l-1.615.22c-3.449.44-4.11.662-4.11 8.438zm35.73-37.856c4.695 0 8.806-.072 10.346-.22 0 1.611 0 7.117.149 10.565-.293.588-1.612.732-2.351.292-.732-4.256-1.908-6.381-4.694-7.117-1.981-.512-3.818-.587-6.162-.587h-3.741c-3.083 0-3.083.147-3.083 4.256v13.13c0 1.834.074 1.981 1.76 1.981h4.331c6.383 0 7.555-.147 8.217-3.228l.587-2.493c.44-.512 1.833-.512 2.199.073-.07 1.909-.217 4.622-.217 7.338 0 2.712.148 5.356.217 7.63-.366.587-1.759.587-2.199.072l-.587-2.861c-.661-3.08-1.834-3.229-8.217-3.229h-4.332c-1.685 0-1.759.149-1.759 1.981v10.27c0 7.779.662 7.998 4.11 8.292l3.08.367c.513.512.44 1.833-.148 2.128-4.698-.147-7.998-.22-11.226-.22-3.23 0-6.53.073-9.906.22-.588-.291-.66-1.612-.147-2.128l1.611-.22c3.449-.44 4.11-.66 4.11-8.439v-27.295c0-7.778-.661-7.998-4.11-8.51l-.953-.148c-.51-.512-.44-1.832.148-2.129 2.569.15 5.87.22 9.1.22h13.868zm29.788 18.708c0 1.98.07 3.301 1.246 3.301 1.393 0 3.082-1.689 5.503-4.33l7.485-8.07c.954-.95 3.08-3.375 3.962-4.55 1.32-1.686 1.39-2.273.511-2.492l-2.274-.66c-.587-.512-.44-1.54.149-2.127 3.082.148 5.503.22 8.22.22 3.156 0 5.429-.15 8.068-.22.81.22.954 1.76.222 2.128-6.824.951-8.807 2.716-13.868 7.63-3.156 3.157-6.092 6.163-8.952 9.026-.88.88-1.028 1.32-.219 2.422 5.796 7.629 12.767 16.359 18.049 22.524 1.537 1.834 3.227 2.493 5.43 2.79l1.758.219c.511.367.44 1.908-.147 2.128-2.568-.147-5.504-.22-9.392-.22-3.596 0-6.897.073-10.124.22-.81-.29-.81-1.76-.148-2.128l1.978-.293c1.175-.22 1.323-.952.513-1.98-3.082-3.814-11.81-15.7-14.526-18.49-.514-.512-1.102-1.1-1.763-1.1-1.834 0-1.686 1.76-1.686 3.889v9.319c0 7.778.659 7.998 4.107 8.438l1.834.22c.514.367.44 1.833-.148 2.129a232.6 232.6 0 0 0 -9.98-.22c-3.227 0-6.675.072-9.318.22-.588-.292-.658-1.761-.148-2.129l1.028-.148c3.449-.512 4.11-.732 4.11-8.51v-27.295c0-7.778-.661-7.998-4.11-8.439l-1.39-.22c-.514-.511-.44-1.832.147-2.127 3.009.148 6.31.22 9.684.22 3.231 0 6.53-.072 9.393-.22.587.293.658 1.76.148 2.127l-1.25.22c-3.447.44-4.106.661-4.106 8.439v8.139zm-30.575 149.446-17.34-24.614 9.053 27.242-4.876 1.626-12.193-36.695 8.829-2.93 15.57 22.496-8.278-24.921 4.795-1.595 12.233 36.802zm21.913-29.618c2.524 6.014 5.1 12.891.96 14.624-4.14 1.74-7.333-4.939-9.882-11.006-2.482-5.91-4.329-12.835-.678-14.368 3.623-1.514 7.102 4.79 9.6 10.75zm6.498-2.598c-3.895-9.292-10.202-17.316-18.442-13.858-8.727 3.66-7.276 13.6-3.338 22.995 3.899 9.292 10.711 17.481 18.804 14.087 7.867-3.303 6.851-13.986 2.976-23.224zm12.574-14.408c1.461 2.914 1.266 5.944-.795 6.976l-1.951.982-5.121-10.202 1.773-.892c2.169-1.085 4.137-.766 6.094 3.136zm19.886 20.052-13.921-12.232c2.433-2.72 1.708-7.502-.629-12.067-3.333-6.466-7.817-7.736-12.3-5.485l-9.398 4.714 17.342 34.558 5.712-2.864-6.75-13.361 1.814-.973 11.238 11.302zm1.968-32.1c1.642 2.813 1.636 5.855-.36 7.01l-1.883 1.101-5.75-9.858 1.714-.994c2.089-1.226 4.073-1.035 6.279 2.74zm21.1 18.764-14.66-11.331c2.256-2.868 1.233-7.595-1.384-12-3.736-6.25-8.29-7.234-12.622-4.708l-9.08 5.292 19.475 33.404 5.52-3.218-7.574-12.91 1.753-1.092 11.928 10.578zm16.652-11.028-13.952-10.13.004 3.923 7.165 10.756-5.241 3.517-21.535-32.113 5.276-3.533 9.05 13.49-1.865-18.311 5.036-3.381 1.811 17.437 20.5 14.159zm10.779-32.307c3.983 5.165 8.24 11.15 4.683 13.89-3.552 2.74-8.357-2.892-12.376-8.102-3.916-5.071-7.481-11.29-4.348-13.71 3.108-2.4 8.092 2.803 12.04 7.922zm-20.745-15.84c-1.216-1.637-3.075-2.263-4.2-1.47-1.156.82-1.092 2.755.087 4.347 1.175 1.592 3.005 2.242 4.16 1.425 1.125-.795 1.13-2.711-.047-4.302zm6.73-5.117c-1.179-1.591-3.006-2.241-4.16-1.422-1.127.794-1.1 2.681.083 4.345 1.174 1.59 3.036 2.218 4.16 1.423 1.152-.817 1.091-2.753-.083-4.346zm19.626 16.778c-6.151-7.979-14.308-14.117-21.387-8.66-7.492 5.78-3.536 15.01 2.686 23.08 6.152 7.976 14.842 14.144 21.79 8.785 6.757-5.21 3.026-15.274-3.09-23.205zm8.959-17.182c2.088 2.427 3.454 5.26 1.188 7.337l-1.749 1.623-8.05-9.13 1.972-1.74c2.122-1.87 4.564-.45 6.639 1.91zm4.55-5.175c-5.336-5.929-10.89-5.38-14.318-2.356l-7.764 6.844 25.578 28.998 4.79-4.226-9.355-10.542 3.307-2.916c3.52-3.101 3.37-9.57-2.238-15.802zm22.34 16.428-26.954-27.721 4.55-4.426 27.036 27.804zm19.377-19.75-27.107-13.098 21.136 19.42-3.474 3.783-28.475-26.16 6.294-6.85 24.539 12.11-19.342-17.766 3.422-3.723 28.558 26.236zm17.87-19.896c-4.16 5.32-13.316 4.264-23.91-4.027-8.943-7-11.878-15.817-7.513-21.39 3.513-4.49 8.68-3.63 11.911-2.18l-.508 6.128c-2.924-1.365-4.824-1.77-6.396.234-2.768 3.533 1.786 8.018 6.92 12.038 5.457 4.27 11.966 7.572 14.288 4.607 1.097-1.399 1.58-2.205 1.545-3.105l-5.826-4.46-2.67 3.408-5-3.912 6.353-8.122 14.86 11.63c.393 2.05-1.66 6.092-4.053 9.15z"/></g></svg>