<svg xmlns="http://www.w3.org/2000/svg" width="1000" height="1000"><path fill="#AF9258" d="M500 38c62.387 0 122.887 12.21 179.818 36.291 55.011 23.268 104.423 56.584 146.864 99.026 42.44 42.442 75.759 91.854 99.024 146.864C949.789 377.113 962 437.614 962 500s-12.211 122.886-36.291 179.819c-23.268 55.01-56.584 104.422-99.025 146.862-42.441 42.442-91.854 75.76-146.864 99.026C622.887 949.79 562.387 962 500 962s-122.887-12.21-179.82-36.291c-55.01-23.268-104.422-56.584-146.863-99.026-42.441-42.44-75.759-91.854-99.025-146.862C50.21 622.886 38 562.386 38 500s12.21-122.887 36.291-179.82c23.268-55.01 56.584-104.422 99.025-146.864 42.441-42.441 91.854-75.758 146.863-99.026C377.113 50.21 437.614 38 500 38m0-38C223.857 0 0 223.857 0 500c0 276.142 223.856 500 500 500 276.143 0 500-223.858 500-500C1000 223.857 776.143 0 500 0z"/><circle fill="#FFF" cx="500" cy="500" r="463"/><path fill="#182B53" d="M963.37 475.682C950.723 230.726 748.103 36 500 36 251.896 36 49.277 230.726 36.629 475.682A471.353 471.353 0 0 0 36 500c0 8.234.218 16.417.642 24.546 7.58 145.42 82.113 273.112 193.358 352.843 50.67 36.316 108.954 62.683 172 76.237C433.592 960.418 466.377 964 500 964c33.621 0 66.406-3.582 98-10.375 63.045-13.555 121.329-39.92 172-76.236 111.243-79.729 185.777-207.423 193.357-352.843.424-8.129.643-16.312.643-24.546 0-8.157-.214-16.265-.63-24.318zM116.671 338.089c20.95-49.532 50.952-94.025 89.172-132.245s82.714-68.222 132.245-89.172C389.344 94.992 443.819 84 500 84c56.181 0 110.654 10.992 161.91 32.672 49.531 20.95 94.025 50.952 132.245 89.172 38.222 38.22 68.222 82.714 89.172 132.245 18.537 43.825 29.253 90.006 31.974 137.593H84.699c2.72-47.587 13.436-93.768 31.972-137.593zm221.417 545.239c-39.436-16.68-75.664-39.116-108.088-66.852v-291.93h172v379.88a412.674 412.674 0 0 1-63.912-21.098zm323.822 0A412.686 412.686 0 0 1 598 904.426v-379.88h172v291.933c-32.426 27.733-68.653 50.169-108.09 66.849z"/><path fill="#182B53" d="M378.281 238.664H327v51.088h46.666v39.912H327v97.301h-48.566V198.701h99.849l-.002 39.963zm185.717 57l-47.485-.667-.181-36c0-3.713 1.334-23.325-14.741-23.325-14.925 0-15.259 17.945-15.259 21.658v115.667c0 3.716 3.905 16.201 15.259 16.201 11.075 0 14.741-10.819 14.741-14.535l.181-50 47.485.667v49.333c0 10.824-1.666 55.371-61.854 55.371-52.813 0-65.146-35.658-65.146-63.037V257.33c0-12.667 5-62.698 64.146-62.698 58.854 0 62.854 41.698 62.854 54.365v46.667zm175.707 131.301H621.666V389.33l59.52-150.667H622.67v-39.962h113.216v36.963L677.998 386l61.707-.003v40.968z"/></svg>