<svg height="250" width="250.001" xmlns="http://www.w3.org/2000/svg"><g fill-rule="evenodd"><path d="m125.013-.015c68.854 0 125.003 56.137 125.003 124.994 0 68.86-56.138 125.021-125.003 125.021-68.875 0-125.013-56.15-125.013-125.02s56.15-124.995 125.013-124.995" fill="#2a2a2b"/><path d="m125.013 1.615c67.953 0 123.373 55.407 123.373 123.364 0 67.96-55.409 123.39-123.373 123.39-67.975 0-123.383-55.418-123.383-123.39 0-67.97 55.42-123.364 123.383-123.364" fill="#fff"/><path d="m125.013 7.989c64.436 0 117 52.551 117 116.99 0 64.442-52.554 117.017-117 117.017-64.458 0-117.009-52.563-117.009-117.017 0-64.45 52.562-116.99 117.009-116.99" fill="#2a2a2b"/></g><path d="m66.718 45.647c-24.28 17.962-40.05 46.792-40.05 79.186 0 54.242 44.225 98.494 98.488 98.494 54.229 0 98.488-44.252 98.488-98.494h-18.772c0 43.907-35.798 79.73-79.716 79.73-43.932 0-79.732-35.813-79.732-79.73 0-20.86 8.093-39.896 21.294-54.145z" fill="#fff"/><path d="m177.09 180.455c-40.24 6.62-63.628-6.97-102.779-4.326v-18.69c2.895-.22 5.714-.333 8.484-.375v-99.578a73.688 73.688 0 0 0 -6.721 4.745v-22.583c9.807-5.649 20.645-9.682 32.19-11.704v19.116a78.816 78.816 0 0 0 -6.787 1.788v108.957c24.886 2.218 45.537 8.323 75.614 3.96v18.691" fill="#fff"/><path d="m143.846 47.479c30.858 7.461 54.81 32.998 59.985 64.647h18.957c-6.323-48.198-47.743-85.617-97.632-85.617-2.553 0-5.056.083-7.551.27v18.833a76.676 76.676 0 0 1 7.55-.366v104.598h18.69v-61.951c9.309 2.174 22.482 11.398 34.86 25.128v-21.491c-8.692-12.248-23.181-20.17-34.86-23.56v-20.491" fill="#fff"/></svg>