<svg viewBox="0 0 7746.75 11210.84" xmlns="http://www.w3.org/2000/svg"><path d="M1134.51 4599.11C407.03 5324.74-1.26 6310.38 0 7337.88c-1.45 1027.53 406.94 2013.21 1134.68 2738.61 725.64 727.45 1711.29 1135.68 2738.78 1134.34 1027.43 1.32 2013.02-406.91 2738.61-1134.34 727.58-725.51 1135.94-1711.12 1134.68-2738.61C7748 6310.31 7339.57 5324.64 6611.9 4599.1c-725.54-727.52-1711.14-1135.82-2738.61-1134.51-1027.51-1.3-2013.17 407-2738.78 1134.51" fill="#65202f"/><path d="M5377.82 8832.4c-395.95 396.73-933.6 619.44-1494.11 618.89-560.59.73-1098.36-222-1494.27-618.89-396.94-395.81-619.68-933.55-618.89-1494.12-.85-560.57 221.9-1098.33 618.89-1494.12 395.93-396.85 933.7-619.52 1494.27-618.73 583.9 0 1111.49 236.26 1494.11 618.73a2114.12 2114.12 0 0 1 471.11 718.03h98.36c-314.07-834.6-1119.49-1428.23-2063.59-1428.23-1217.69 0-2204.46 986.93-2204.46 2204.15s986.93 2204.31 2204.46 2204.31c944.1 0 1749.51-593.94 2063.59-1428.23h-98.36a2116.237 2116.237 0 0 1-471.11 718.19" fill="#fff"/><path d="M3877.38 0l-316.74 1006.08H2418.69l908.56 680.5-363.26 1081.1 894.89-690.17 912.39 690.17-331.25-1117.61 887.89-660H4194.3z" fill="#fbcc04"/><path d="M5327.9 990.24h-781.36l-687.67 1087.27 912.39 690.17-331.25-1117.61 887.89-660z" fill="#faa30d"/><g fill="#fff"><path d="M6273.65 5600.7c-25.9 18.36-27.15 21.03-9.42 45.83l44.89 63.57c34.06 48.19 47.72 53.84 99.04 32.8l26.37-11.77c11.93.94 28.88 24.17 23.23 34.69a2030.22 2030.22 0 0 0-195.41 138.59c-12.24.94-28.72-21.19-25.11-33.59l19.62-21.03c37.04-41.59 37.51-56.51 3.77-105.01l-45.2-63.57c-17.27-25.43-19.15-25.43-47.09-5.81l-110.19 77.69c-42.38 30.14-69.69 54.46-77.22 76.91-8.32 23.54-3.14 46.3 44.26 113.95 56.51 80.21 82.09 109.87 222.25 86.8 15.7 0 28.25 26.06 19.78 37.36-51.01 30.61-141.42 61.06-175.48 65.92a10156.8 10156.8 0 0 0-147.86-215.66l-84.76-120.07a5886.021 5886.021 0 0 0-115.99-157.12c.78-11.46 22.45-27 32.96-22.76l37.2 38.61c34.84 37.67 45.52 38.77 130.59-21.35l344.52-243.13c83.97-59.49 86.8-69.69 65.45-116.15l-12.4-26.68c0-12.09 21.97-26.53 33.75-21.19 28.72 45.2 59.96 91.04 91.35 134.98l138.59 196.2c41.44 59.17 79.11 111.44 89.62 121.96-13.81 11.3-75.5 64.67-134.51 113.32-12.56 3.61-29.67-16.64-28.1-31.86 25.11-32.96 43.79-65.14 48.19-86.33 5.02-30.14-3.14-65.61-35.16-110.97l-52.58-73.77c-21.19-30.92-23.54-29.51-57.45-5.34l-161.67 114.27v-.31h.16zm-465.7-774.59c16.64-21.19 20.09-25.58-.94-42.69l-54.46-44.11c-64.35-51.8-110.97-31.71-189.61 11.93-14.44-3.3-30.14-18.84-26.68-34.53 68.43-45.68 116.31-97 150.21-126.2 5.81-.08 11.47 1.86 16.01 5.49 4.24 3.77 8 7.85 9.42 13.34-7.85 18.52-7.85 24.33 59.33 78.48l328.2 264c57.45 46.62 71.89 56.51 94.02 44.26 12.13 1.62 21.56 11.37 22.76 23.54-33.59 22.92-97 89-136.24 141.11-10.99 3.92-35.47-13.5-34.22-24.17 30.76-68.28 51.33-119.76-14.6-172.65l-53.05-42.69c-21.35-17.11-25.58-16.64-44.42 6.28l-312.98 388.79c-65.92 81.78-65.92 92.14-31.55 130.59l31.86 32.49c1.73 10.67-14.13 30.29-25.11 31.24a5349.923 5349.923 0 0 0-290.53-234.34c-2.83-10.99 13.5-31.55 24.8-30.92l43.48 27.62c44.26 25.9 54.94 24.17 120.86-58.39l312.98-388.47h.47zm-821.05-453.92c10.2-25.43 12.4-30.29-12.87-40.5l-65.14-26.21c-76.44-30.61-115.05 2.35-177.83 66.71-14.6 1.26-34.06-8.79-35-25.11 51.33-63.57 82.4-126.51 106.42-164.49a28.238 28.238 0 0 1 16.48.63 24.153 24.153 0 0 1 13.03 10.2c-1.73 19.62-.47 25.11 79.42 57.45l391.14 156.49c69.06 27.31 85.23 32.96 103.44 14.6 5.04-.58 10.14.24 14.75 2.35 6.44 2.51 12.24 9.73 13.03 13.5-25.11 31.71-66.24 113.48-88.37 174.38-8.32 7.53-37.36-1.88-39.87-12.09 8.79-74.56 14.13-129.96-64.35-161.2l-63.25-25.43c-25.74-9.89-29.19-7.85-40.81 19.46l-185.21 463.5c-39.24 97.63-35.32 107.2 8.32 133.73l39.71 21.97c5.34 9.57-4.71 33.43-14.28 36.57a4833.387 4833.387 0 0 0-346.88-138.59c-5.49-9.73 3.77-34.06 14.91-36.89l49.91 13.66c49.76 11.77 58.86 6.59 97.63-91.04l185.53-463.19.16-.47zm-851.66 22.28c-3.61 31.71-2.2 33.9 27.94 36.89l77.85 8.01c58.39 5.81 71.42-.63 89-53.68l8.95-27.62c8.32-8.16 36.89-5.49 41.44 5.49-6.68 39.55-11.81 79.34-15.38 119.29-3.88 39.69-6.91 79.47-9.1 119.29-6.28 9.57-34.53 7.85-41.28-2.98l-2.35-28.88c-8-55.25-19.15-65.29-77.69-71.26l-77.38-7.69c-30.61-3.3-32.02-2.04-34.84 31.55l-13.03 134.2c-5.49 51.8-5.02 88.21 6.91 108.77 12.71 21.66 33.28 32.96 115.52 41.12 97.94 9.89 136.55 10.05 211.27-110.81 10.67-11.46 37.67-4.24 41.12 9.73-10.2 58.07-46.46 146.6-65.45 175.48a8727.613 8727.613 0 0 0-260.08-29.19l-145.97-14.6c-64.63-6.27-129.36-11.5-194.16-15.7-8.79-7.85-5.81-34.84 3.77-39.55l53.37-2.83c51.8-1.73 58.86-8.79 69.69-112.7l42.06-419.87c10.52-102.65 4.08-111.44-45.83-125.1l-27.15-8.79c-9.42-7.53-6.28-33.75 6.28-39.4 52.9 7.85 107.36 14.6 161.51 19.93l238.58 23.86c72.2 7.22 136.55 12.56 151.15 11.93-.31 17.89-.31 99.83-2.51 175.48-5.81 12.09-31.86 11.61-42.38.47-8.48-40.81-20.88-76.13-33.43-93.39-19.46-23.39-51.48-40.34-107.52-45.52l-89.62-9.1c-37.67-3.92-37.67-1.57-41.91 40.02l-19.15 197.14h-.16zm-598.02 178.78c-32.8 145.03-47.09 238.58-62 305.44a71.093 71.093 0 0 1-37.36 16.01 49.437 49.437 0 0 1-31.08-3.61c-17.89-28.1-47.09-83.19-69.69-118.5l-261.49-421.43c-65.77-104.22-62.78-99.98-118.82-104.06l-32.02-1.88c-11.3-10.99-11.93-31.39-3.14-38.93 57.29-8.95 94.65-13.03 152.09-23.54 51.8-8.95 98.88-18.84 166.85-33.28 10.2 5.02 12.56 26.53 7.53 37.67l-31.86 12.56c-18.99 8.32-26.06 16.32-23.86 26.06 1.57 8.95 28.1 52.58 66.08 114.58l143.62 233.4c22.6 37.98 38.3 61.84 49.28 79.42 6.44-20.4 13.97-53.37 21.5-88.68l21.97-112.23c16.17-75.34 40.34-208.28 46.46-248.15 4.24-23.07 5.18-35.94 4.24-42.38-1.57-7.85-5.81-12.71-33.75-13.66l-33.9-1.88c-10.52-7.06-14.6-30.61-2.2-38.46 52.9-7.38 94.96-13.81 137.97-21.19 37.36-6.75 71.1-14.13 102.65-21.97 10.05 2.83 15.54 29.35 9.57 37.67l-28.57 10.83c-29.98 12.24-43.95 24.01-54.31 49.91-17.74 41.12-35.79 106.26-58.55 204.05l-46.93 207.19-.31-.94zm-910.46-205.42c-50.07 1.71-121.72 23.42-197.12 60.09-96.53 46.93-175.16 89.45-248.93 131.51-9.89 10.83 2.77 36.79 15.33 36.79l29.74-9.5c45.52-14.6 52.96-4.54 102.08 97.79l174.74 360.52c45.05 94.02 42.36 103.98.93 134.27l-25.14 18.39c-5.81 8.95 5.4 33.67 16.86 35.87 51.95-27.78 96.44-50.78 147.46-75.11 48.97-23.7 96.21-45.42 150.83-69.59 4.55-9.26-7.13-33.68-16.86-35.25l-30.04 7.97c-49.76 13.97-59.33 9.39-104.84-83.69l-60.39-125.69c-9.73-20.4-8.34-23.35 26.98-40.77 25.27-12.24 45.55-12.16 70.82 9.81a1389.01 1389.01 0 0 0 156.35 119.56c80.21 51.95 155.37 56.69 249.23 11.96 31.39-15.7 63.46-33.53 76.33-48.13 1.57-8.63-5.71-24.05-17.17-24.52-15.23 5.96-45.11 13.09-82.46 3.99-68.59-17.74-147.09-74.2-280.5-178.42-10.36-8.63-13.66-14.79-6.13-24.83 35.79-46.15 78.43-114.05 34.64-205.09-31.23-64.98-86.82-101.33-162.78-107.3-6.22-.6-12.77-.86-19.93-.61zm-114.35 90.74c58.75-2.72 113.72 33.34 147.15 102.08 28.57 60.27 25.04 102.41 16.25 127.84-10.05 29.04-27.36 48.17-63.46 65.91-60.27 29.19-65.67 27.66-82.46-7.97l-95.95-198.65c-21.35-49.91-22.91-53.33 19.31-73.27 19.82-9.73 39.58-15.03 59.17-15.94zm-641.46 715.52c21.03 23.07 23.07 24.17 45.99 3.92l58.07-52.58c43.63-39.24 47.4-53.37 20.88-102.02l-14.75-24.96c0-11.93 20.4-31.08 31.71-27.15 22.13 28.25 48.97 59.33 77.85 91.35 28.72 31.86 56.51 61.37 82.25 86.64 3.14 11.46-17.27 31.55-30.14 28.88l-22.92-17.27c-45.99-31.55-60.74-30.29-104.53 9.42l-58.07 52.27c-22.92 20.09-22.92 21.97 0 47.24l89.94 99.83c34.84 38.77 62.47 62.78 85.23 67.81 25.11 5.49 47.09-2.2 108.3-57.29 72.99-65.92 98.88-94.33 59.96-230.89-1.57-15.23 22.76-30.92 34.53-23.54 35.94 46.3 77.38 132.63 85.86 166.06a6322.228 6322.228 0 0 0-196.04 172.34l-109.24 98.41c-40.97 36.1-80.83 74.24-142.2 132.94-11.3.94-29.51-19.15-26.68-29.51l33.9-41.59c33.59-39.24 32.8-49.44-36.57-126.82l-282.53-313.45c-69.69-76.59-79.11-77.69-122.9-50.54l-24.8 14.28c-12.09 1.88-29.51-18.05-25.11-30.92 40.81-33.75 83.19-70 123.06-106.26l178.93-160.73c53.37-48.34 100.3-92.61 110.19-103.91 12.87 12.87 73.14 67.96 127.45 120.54 5.96 12.4-11.93 31.39-27.62 31.39-35.79-21.19-70.16-35.47-91.82-37.67-29.82-1.57-64.82 10.99-105.48 48.5l-67.49 60.59c-27.78 24.64-26.37 26.21 1.57 57.45l133.1 147.23h.16zm-72.83 810.69c-57.76 86.64-117.72 123.84-142.36 136.24-32.96 4.24-108.46-29.04-172.81-71.89-8.16-14.6 5.81-36.89 21.19-37.67 74.08 22.29 202.48 17.27 255.84-62.63 46.77-69.85 20.4-133.73-26.84-165.28-76.13-51.33-169.04-9.42-235.12 27.78-79.11 45.05-184.58 80.68-278.76 18.99-106.1-71.42-124.78-202.16-32.96-338.09 20.4-31.23 50.23-67.18 86.96-97 12.09-10.05 19.46-17.42 28.41-27.15 25.9 6.28 83.19 31.08 146.13 73.46 7.85 11.77-6.28 36.26-21.5 38.14-58.55-16.17-154.45-21.5-199.49 45.99-42.07 62-24.01 123.06 22.6 154.92 43.48 28.88 108.62 16.48 164.81-13.81l74.24-40.02c70-37.51 174.38-75.34 277.82-5.96 115.84 77.85 127.29 222.57 32.02 364.77M6418 8422.4c-76.1 1.98-144.55 32.58-182.4 107.3-71.26 140.95 47.74 276.3 182.1 344.27 140.48 71.1 314.38 84.38 386.27-56.41 70.95-140.79-43.02-273.94-182.4-344.57-63.13-32.01-136.41-52.33-203.56-50.58zm-86.76 101.77c66.49.1 170.29 47.82 226.24 76.03 77.12 38.72 239.03 131.21 206.62 197.12-33.87 65.51-204.28-10.93-281.73-50.28-77.38-39.08-240.05-130.88-206.93-197.12 9.49-18.54 29.78-25.79 55.79-25.75zm-60.89 453.51c91.66 73.77 138.75 178.15 146.44 290.37 7.53 109.56-29.35 246.74-78.17 312.03-11.3 6.28-27.62-5.96-27.15-16.95 82.4-177.36 16.48-356.3-122.43-468.84-58.07-46.3-181.6-118.35-232.77-54.46-29.04 35.32-2.04 90.57 43.79 127.14 61.37 50.54 147.38 78.17 198.4 33.43 9.1-8.32 12.4-12.71 18.36-19.62 5.34-1.73 14.13 2.67 19.15 8.32 3.14 23.86-11.93 62.78-36.89 94.02-57.13 71.1-161.67 81.93-238.89 20.4-96.84-78.32-106.26-208.44-30.29-302.15 93.08-116.31 234.97-108.62 340.44-23.23m-588.09 349.53c-42.54.38-88.06 18.5-130.59 53.34-94.18 76.13-109.5 182.01-48.13 257.51 42.69 52.27 106.34 61.75 173.51 49.66-40.65 71.26-47.12 145.14 1.54 204.78 69.53 84.91 178.05 60.69 265.79-11.04 119.45-96.84 127.85-197.71 68.36-270.39-59.64-74.08-137-77.67-216.74-60.09 24.8-51.01 40.7-117.87-1.84-170.14-29.98-36.65-69.36-54.02-111.89-53.65zm-59.78 74.19c27.49-.07 58.94 13.5 84.92 45.37 29.67 36.1 42.11 78.46 30.66 111.89-83.5 24.17-134.82 13.41-164.01-22.38-33.12-40.65-30.54-91.46 3.68-119.87 10.52-8.42 24.21-13.68 39.24-14.71 1.79-.12 3.69-.3 5.52-.31zm197.73 264.25c45.49-.13 83.63 13.71 114.04 50.89h.31c35.79 43.79 26.83 93.63-6.13 120.78-49.44 39.71-114.62 21.7-155.43-27.9-34.22-42.54-47.01-81-42.31-130.59 32.43-7.95 62.22-13.1 89.52-13.18zm-334.49 367.9c38.93 68.28 48.34 73.46 91.66 53.52l36.1-17.42c10.83 1.26 22.45 23.54 14.75 30.92-30.92 15.38-82.25 43.48-134.51 73.61-56.19 31.55-106.42 61.21-135.93 80.05-10.2 2.2-23.54-19.31-18.52-28.57l32.96-21.97c39.71-27.31 40.18-38.61 1.88-106.26l-157.74-277.03c-31.24-55.56-42.69-67.18-81.78-50.54l-42.69 16.64c-9.89.47-22.29-19.62-18.52-28.41 33.41-26.51 65.22-54.97 95.27-85.23 31.08-32.49 54.15-66.71 59.96-70.16a13.962 13.962 0 0 1 16.79 2.67c9.89 20.4 31.08 59.8 55.09 102.49l184.58 325.69h.63zm-1175.93 145.03c4.39 27 5.96 28.57 31.86 24.49l66.24-10.83c50.23-8.32 59.64-16.48 62.78-64.67l.63-25.11c5.34-8.48 29.51-12.24 35.63-4.39 3.14 30.92 7.85 65.92 13.97 102.34 5.02 36.26 12.4 70.95 18.84 101.24-3.14 9.42-27 14.13-34.84 6.91l-9.26-23.23c-17.74-44.89-29.82-50.54-80.21-42.38l-66.08 10.36c-25.43 4.39-26.68 5.81-21.97 34.53l18.36 114.27c7.53 44.11 16.48 74.4 30.76 88.84 15.07 15.38 35 20.25 105.16 8.79 83.35-13.81 115.21-21.97 150.37-139.22 6.28-11.3 31.08-11.77 37.04-.94 4.08 50.38-6.12 131.84-15.38 160.1-51.01 6.59-143.62 20.4-222.57 33.27l-124.94 20.56c-46.15 7.06-92.92 16.17-165.28 29.67-7.69-4.39-11.93-27.63-5.02-33.59l43.95-13.97c42.22-12.56 47.56-20.4 32.49-108.93l-57.76-358.65c-14.44-87.11-21.19-93.23-66.24-93.7l-24.8-.78c-9.89-4.71-11.93-26.84-3.77-34.22 45.99-5.49 93.39-11.93 139.22-19.62l203.89-32.96c61.37-9.89 115.99-20.09 128.08-23.86 3.61 14.75 21.66 83.19 36.73 146.91-2.2 10.99-23.86 16.79-34.84 9.73-15.54-32.02-34.06-58.55-48.81-70-21.35-15.54-51.64-22.29-99.35-14.44l-76.91 12.56c-31.08 5.49-30.92 7.22-25.43 42.54l27.62 168.26h-.16v.16zm-527.7 180.35c-58.86 113.8-91.35 188.51-117.72 241.4a67.346 67.346 0 0 1-34.22 4.71 40.697 40.697 0 0 1-26.06-9.57c-8.79-27.31-21.03-79.58-32.18-113.95l-127.29-407.47c-32.8-100.77-31.23-96.84-76.91-111.76l-26.21-9.1c-7.06-10.99-3.45-28.25 6.44-32.49 49.6 4.71 80.68 9.26 131.85 12.56 44.58 3.77 86.48 5.81 145.82 8.16 7.22 6.44 5.34 24.8-1.57 32.96l-29.67 3.77c-18.05 2.35-25.43 7.85-25.9 16.32-.31 7.85 12.24 50.38 31.08 110.34l68.9 224.29c10.36 37.04 19.46 60.27 24.33 77.38a1121.37 1121.37 0 0 0 36.41-69.69l43.16-88.68a4737.312 4737.312 0 0 0 91.51-197.3c5.66-10.72 9.79-22.19 12.24-34.06 1.41-7.06-1.57-11.93-24.64-18.52l-28.25-9.1c-6.91-7.85-5.18-28.41 7.22-32.18 45.05 5.65 82.25 8.79 119.29 11.62 32.33 2.67 62.16 4.08 89.94 4.08 7.85 4.08 7.53 27.62 0 32.96l-25.74 2.83c-28.25 3.77-42.38 10.83-56.51 29.98-23.39 30.29-52.11 80.68-92.13 157.12l-83.19 162.77v.63zm-821.05-299.95c-8.63 26.06-7.85 28.25 16.48 36.26l64.2 20.88c48.34 15.38 60.59 12.24 85.07-29.19l12.09-21.5c9.1-5.34 32.02 2.2 34.06 12.24-12.09 29.04-22.92 61.84-35.63 97.16-10.52 35.32-20.4 69.06-28.25 98.88-7.53 7.22-30.29.63-34.53-10.2l2.67-24.64c4.55-47.71-3.14-58.54-51.48-74.24l-63.57-20.41c-25.43-8.01-26.68-7.69-35.16 19.93l-36.1 110.81c-13.81 42.38-19.78 73.61-13.81 92.76 6.75 20.56 22.29 33.59 89.94 55.56 80.36 26.21 113.01 33.75 197.77-54.62 10.36-7.85 32.65 3.45 32.65 15.7-18.84 46.77-65.92 114.89-86.64 135.3-70.65-25.09-141.71-49-213.15-71.73l-121.17-39.08a3662.102 3662.102 0 0 0-159.47-48.66c-6.12-8.32 1.26-30.61 10.52-32.65l45.52 7.85c43.48 7.53 51.33 3.14 78.48-81.93l112.23-346.09c27.15-84.13 23.54-92.29-15.7-113.32l-21.66-12.4c-6.75-7.85 1.57-28.88 12.56-31.55 43.01 15.85 88.05 31.55 132.63 45.99l196.2 63.57c59.17 19.31 112.23 35.47 124.47 37.2-3.14 15.23-18.52 83.97-34.53 147.54-6.75 9.1-28.57 4.24-35.32-7.22.31-35.79-3.61-67.81-11.46-84.44-11.46-23.54-35.79-43.48-80.68-58.39l-74.24-23.86c-30.92-10.2-31.55-8.63-42.38 26.37l-52.58 161.67v.47zm-514.36 35.16c-34.53 53.37-67.49 105.01-83.19 133.42-11.62 6.12-40.34.47-60.59-12.24-.47-.47-.78-59.64-9.42-131.85l-39.24-355.67c-9.42-89.15-15.07-140.64-21.97-162.3-9.57 5.49-18.21 19.46-37.98 49.76l-101.55 159.16c-43.01 66.39-78.79 130.28-83.35 158.53-3.92 21.5 12.09 38.77 30.45 56.19l20.56 18.21c2.83 10.52-9.89 26.68-17.42 28.41-43.48-29.82-76.13-51.8-108.93-72.2a1660.906 1660.906 0 0 0-93.55-56.19c-2.35-8.16 7.85-26.53 18.21-29.19l15.7 6.75c25.43 9.26 43.95 14.28 62.31 1.88 22.45-16.95 64.67-76.91 107.52-142.83l133.1-208.44c28.88-44.89 37.67-58.07 38.93-73.46 3.14-17.42-3.77-33.59-29.19-57.13l-20.56-18.36c-1.73-10.05 12.09-29.19 21.97-26.37 37.2 26.06 77.69 52.9 111.28 74.56 28.25 17.89 52.58 32.33 70.63 41.44-15.38 42.38-2.35 138.59 15.7 273.58l16.79 125.57c10.05 66.08 14.13 109.4 21.03 140.32 8.95-6.28 17.42-20.09 27.62-34.53l71.89-113.48c42.22-66.55 78.17-130.28 83.19-158.21 3.92-22.13-10.67-37.98-30.45-56.51l-20.09-17.58c-1.88-10.83 10.36-27 18.36-28.72 43.32 30.14 75.18 51.33 108.62 72.52 30.61 19.62 60.43 37.67 93.23 56.35 2.2 8.16-7.06 26.68-18.21 28.72l-16.32-6.91c-24.8-8.79-42.85-13.66-61.84-1.26-22.76 16.32-65.45 75.5-107.83 142.05l-125.1 196.2h-.31v-.16zm-693.6-830.47c-19.78 18.83-20.88 20.72-3.45 40.18l45.83 49.44c34.84 37.04 47.24 40.34 88.52 16.17l21.35-13.03c10.05 0 27.31 17.42 23.54 27.15a1313.106 1313.106 0 0 0-77.07 68.28c-27.15 25.11-52.42 49.76-73.61 72.2-9.42 2.83-27-14.44-25.43-25.74l14.44-20.09c27.31-39.24 25.11-52.58-9.1-89.78l-45.52-49.29c-17.89-19.46-19.31-19.46-40.5.47l-84.76 78.48c-32.8 30.76-53.37 54.94-57.6 74.71-3.92 21.03 2.67 40.02 50.85 91.98 58.07 62.31 82.4 84.44 199.97 48.97 13.34-1.57 26.68 18.83 21.35 29.67-40.34 31.39-114.58 68.28-142.36 75.81a6698.285 6698.285 0 0 0-151.15-166.69l-86.64-92.76c-31.55-34.53-64.51-68.28-115.36-120.7-1.57-9.73 15.85-25.43 24.96-23.23l36.1 29.04c33.28 27.94 42.85 27.62 108.3-32.96l266.67-247.05c64.82-60.59 65.61-69.69 41.12-107.05l-12.87-21.03c-.94-10.05 15.85-24.96 27.15-21.82 29.19 34.84 60.74 70.63 92.92 104.69l140.79 151.47c42.22 45.99 80.83 85.54 90.72 93.7-10.99 10.99-57.45 64.04-102.02 111.76-10.36 4.87-27.62-10.52-27.62-23.39 17.89-31.08 29.98-61.06 31.08-79.26 1.1-26.37-10.05-55.56-42.22-90.72l-53.37-57.13c-21.97-23.23-23.23-21.97-49.6 2.67l-125.1 115.36-.31-.47zm-503.68-172.03c-36.26 19.31-51.95 30.14-47.09 48.66-1.41 5.34-16.32 12.24-21.66 8.16-10.67-13.03-25.11-34.22-45.99-53.05a750.221 750.221 0 0 1-102.34-140.32 481.348 481.348 0 0 1-61.21-184.9c-13.66-122.11 43.79-242.03 167.32-308.74 106.73-57.76 226.65-61.06 339.82 10.83 63.41 40.97 114.27 102.65 154.29 175.79 51.48 94.65 56.19 153.19 71.26 180.5-24.33 16.32-84.29 49.6-131.53 86.33-10.99 2.04-24.33-20.72-19.31-31.24 65.29-71.1 76.28-146.76 33.59-226.18-73.93-135.93-222.57-141.11-357.55-67.96-123.06 66.55-172.65 147.86-180.35 224.14-5.49 55.72 13.5 103.28 31.39 134.98 26.06 48.5 41.12 53.52 96.53 23.7l53.84-29.19c46.3-25.11 48.66-32.96 32.18-77.38l-14.75-40.02c0-12.24 19.62-22.92 29.82-16.48 31.39 61.84 53.37 104.06 75.81 146.29 21.66 41.12 45.52 82.25 63.25 110.66-1.26 9.57-21.35 20.56-29.82 16.17l-14.44-17.89c-19.31-22.76-30.14-23.54-75.34 1.41l-48.19 26.21.47-.47zm5987.04-2237.29c0 26.53 4.24 143.15 17.27 227.59-6.28 17.42-45.2 23.39-55.41 10.2-39.24-135.3-132.63-208.28-273.89-208.28-161.2 0-335.74 138.59-335.74 428.34s168.42 446.23 342.8 446.23 258.2-126.98 297.91-226.02c11.62-11.77 46.46-7.22 54.94 10.36-10.05 107.83-34.69 195.26-54.94 228.69-79.26 21.66-182.7 54.31-295.87 54.31-143.15 0-288.33-33.75-392.4-111.13-104.38-80.21-184.58-201.38-184.58-381.88s75.81-303.24 176.11-386.28c103.44-86.01 251.92-129.49 403.7-129.49s256.47 34.53 300.58 37.51m-1362.88 376.08c0 39.4 1.26 43.95 40.5 43.95h112.23c77.54 0 91.51-10.52 108.3-81.93l6.91-34.84c10.05-13.03 47.09-11.77 55.88 1.26a2265.702 2265.702 0 0 0 0 307.64c-9.1 13.03-45.99 14.91-55.88 1.73l-6.91-35.32c-16.79-69.53-30.76-81.15-108.3-81.15h-112.23c-39.24 0-40.5 4.39-40.5 43.95v196.51c0 135.46 8.63 145.66 73.77 155.86l54.46 7.53c9.89 8.79 9.89 41.91 0 51.17-77.35-2.91-154.74-4.48-232.14-4.71-70 0-139.22 1.57-226.96 4.71-11.77-8.95-11.77-42.38 0-51.17l48.19-7.53c65.45-9.89 74.24-20.4 74.24-155.86v-541.82c0-135.77-8.79-145.66-74.24-158.69l-29.19-4.39c-12.71-9.1-12.71-45.2 2.67-51.01 62.94 2.51 135.77 4.39 205.3 4.39h306.54c93.55 0 176.11-1.88 196.2-4.55 0 24.8 0 129.81 2.98 227.28-5.49 16.17-37.67 17.42-54.94 5.96-16.32-59.49-27.94-94.33-42.38-113.64-24.8-30.76-68.43-47.87-142.83-47.87h-113.32c-48.19 0-48.19 2.83-48.19 59.64v263.69l-.16-.78zm-1769.71-371.53c-204.05-72.83-415.31-148.17-579.81-269.81-88.05-65.61-226.33-208.76-154.29-428.65 56.19-170.46 246.43-354.26 530.05-353.94h19.15c354.57 10.99 557.2 292.73 708.83 566.62l136.87 248.31 63.73-276.56 106.73-462.09 16.17-69.85-57.13-42.38a1534.303 1534.303 0 0 0-919.78-302.62c-386.12 0-747.28 142.36-990.88 390.83-207.66 211.89-313.92 483.12-308.27 784.01 5.81 263.06 97.94 503.05 260.55 677.28 137.5 147.86 388.32 249.25 652.64 356.3 345 139.69 736.45 298.38 778.52 547.94 21.68 120.8-9.34 245.1-85.23 341.54-129.02 162.61-322.71 197.14-462.56 197.14-530.52 0-878.66-369.17-999.67-882.58l-27.15 188.35L2695 8760.6l-10.52 72.2 62.16 36.73c280.17 165.75 605.86 253.33 942.07 253.33 431.48 0 825.6-147.23 1082.55-403.38 202.48-204.05 309.99-467.58 309.37-762.04-.94-750.89-519.06-935.79-976.28-1097.93"/></g><path d="M4731.84 8680.87c-245.95 245.95-625.64 387.69-1043.31 387.69-326.47 0-642.43-84.76-914.44-245.64l-32.18-18.36 5.34-36.1 71.57-498.5 26.68-179.25c103.59 453.3 546.69 727.19 973.62 727.19 151.94 0 362.58-37.67 505.72-217.7 84.84-108.64 119.48-248.22 95.27-383.92-47.09-279.39-435.25-436.82-811.79-589.22-258.67-104.69-503.05-203.73-633.02-343.43-153.35-163.86-240.46-391.61-245.33-640.86-6.28-286.45 95.27-543.71 291.79-745.24 233.87-237.95 580.28-374.35 952.9-374.35 322.55 0 629.41 101.08 886.82 292.41l28.57 21.19-7.69 34.53-106.73 462.56-32.02 137.81-68.28-123.68c-158.21-287.71-372.62-583.26-754.82-594.87h-20.4c-266.36 0-505.41 160.41-581.69 390.83-60.59 184.58 2.51 362.58 174.22 489.55 170.46 126.2 385.49 202.95 593.62 276.88 462.24 164.49 939.4 334.64 939.71 1047.23.78 280.01-101.24 529.89-294.14 723.27" fill="#821636"/><path d="M4823.97 5858.9l-106.73 462.56c-153.51-278.29-382.98-609.79-800.49-622.5-569.76-17.11-936.73 627.21-462.56 978.33 558.15 412.96 1510.42 291.94 1512.46 1280.79 1.1 980.52-1290.52 1337.6-2170.9 818.07l72.04-497.72c155.39 523.14 1111.58 836.59 1493.94 355.83 94.4-120.91 133.18-276.14 106.73-427.24-85.7-512-1151.92-630.66-1458.62-960.59-137.03-145.66-226.02-359.44-231.67-604.76-19.15-957.45 1223.02-1392.7 2045.8-782.75z" fill="#fff"/><path d="M3868.43 11049.16c-488.13 0-964.45-94.74-1415.67-281.62-452.72-187.52-857.76-458.49-1203.83-805.42-346.93-345.83-618.03-750.8-805.6-1203.54-187.58-452.72-282.35-930.76-281.65-1420.81-.6-489.86 94.18-967.88 281.71-1420.6 187.53-452.71 458.52-857.7 805.44-1203.75 346.04-346.93 751.04-617.94 1203.75-805.46 451.24-186.92 927.68-281.7 1416.03-281.7h9.61c488.18 0 964.48 94.75 1415.72 281.69 452.71 187.54 857.7 458.56 1203.72 805.52 346.92 345.89 618 750.9 805.6 1203.63 187.6 452.74 282.41 930.79 281.81 1420.85.62 489.86-94.18 967.88-281.76 1420.59-187.57 452.72-458.62 857.7-805.61 1203.7-345.92 346.8-750.91 617.79-1203.62 805.29-451.18 186.88-927.52 281.63-1415.8 281.63h-9.83zm.36-7289.53c-470.94 0-930.16 91.35-1365.17 271.55-436.41 180.78-826.83 442.03-1160.43 776.48l-.11.12c-334.45 333.59-595.68 724.02-776.46 1160.43-180.79 436.41-272.16 897.21-271.57 1369.58-.67 472.55 90.66 933.35 271.49 1369.76 180.81 436.39 442.12 826.76 776.68 1160.25 333.73 334.56 724.16 595.78 1160.57 776.54 434.93 180.13 894.13 271.46 1364.79 271.46h9.51c470.88 0 929.98-91.32 1364.92-271.47 436.39-180.76 826.78-441.96 1160.36-776.39 334.63-333.65 595.89-724.03 776.7-1160.43 180.81-436.39 272.19-897.17 271.6-1369.55.59-472.55-90.81-933.37-271.65-1369.79-180.84-436.41-442.16-826.82-776.68-1160.37-333.68-334.59-724.08-595.84-1160.46-776.63-434.94-180.18-894.13-271.53-1364.86-271.53h-9.25z" fill="#fff"/></svg>