<svg viewBox="0 0 960 960" xmlns="http://www.w3.org/2000/svg"><g fill-rule="evenodd"><path d="M479.99 0q11.73.22 23.47.31 7.97.06 12.94.95c12.48 2.22 24.91 2.84 37.67 5.14q18.43 3.32 25.87 4.9 74.96 15.94 140.64 53.84c44.52 25.68 83.26 59.17 117.83 97.21q45.53 50.1 74.26 110.17 34.86 72.86 45 154.1c.91 7.28 1.38 16.19 2.33 24.28v60.33q-.97 8.24-1.77 16.49-4.67 47.99-18.88 92.4-11.99 37.5-32.09 77.19-19.04 37.6-43.81 71.15c-50.29 68.1-119.3 120.3-197.58 153.14q-33.25 13.95-59.09 21.12-42.76 11.85-89.61 15.42c-5.67.43-13.97 1.58-21.05 1.86h-34.36q-18.36-1.46-27.82-2.41-15.3-1.53-38.17-5.58-105.76-18.7-192.74-80.79-50.05-35.73-90.1-82.65C58.73 725.08 23.19 647.9 7.86 565.69 5.04 550.58 2.89 530.03 0 512.24v-66.63q.7-2.78 1.11-5.64 3.04-21.57 4.24-29.21c5.85-37.18 15.04-72.59 29.15-107.74q48.62-121.17 151.92-201.34 26.48-20.55 53.75-36.5 72.46-42.41 156.12-56.61 18.46-3.13 37.08-5.2 4.72-.52 13.24-2.19 4.73-.92 10.4-.97 8.44-.08 16.87-.21zm423.42 282.05c-43.8-91.82-116.7-167.34-206.61-215.07C645.48 39.73 589.36 22 531.64 15.78q-15.63-1.68-24.39-2.04c-22.29-.9-45.87-.73-67.61 1.25q-99.58 9.08-185.33 56.7C128.73 141.44 37.57 269.35 17.06 412.29q-3.25 22.71-3.81 46.3c-.58 24.07-.31 49.72 2.65 74.78q2.11 17.77 3.9 28.07 15.88 91.4 65.88 169.36 34.29 53.46 82.06 96.21c79.75 71.36 182.87 116.39 290.03 119.5q26.68.77 56.98-.75 3.72-.19 10.53-1.02c8.32-1.01 17.11-1.72 26.35-3.12q50.1-7.6 96.3-25.46 96.84-37.44 169.17-112.81c66.36-69.14 111.01-157.72 125.22-252.14q4.24-28.18 4.55-50.18.42-29.53.22-36.29-2.89-97.2-43.68-182.69" fill="#1201fc"/><path d="M696.8 66.98c89.91 47.73 162.81 123.25 206.61 215.07q40.79 85.49 43.68 182.69.2 6.76-.22 36.29-.31 22-4.55 50.18c-14.21 94.42-58.86 183-125.22 252.14q-72.33 75.37-169.17 112.81-46.2 17.86-96.3 25.46c-9.24 1.4-18.03 2.11-26.35 3.12q-6.81.83-10.53 1.02-30.3 1.52-56.98.75c-107.16-3.11-210.28-48.14-290.03-119.5q-47.77-42.75-82.06-96.21-50-77.96-65.88-169.36-1.79-10.3-3.9-28.07c-2.96-25.06-3.23-50.71-2.65-74.78q.56-23.59 3.81-46.3c20.51-142.94 111.67-270.85 237.25-340.6q85.75-47.62 185.33-56.7c21.74-1.98 45.32-2.15 67.61-1.25q8.76.36 24.39 2.04C589.36 22 645.48 39.73 696.8 66.98m-96.62 50.31q-.69-.06-10.55-2.83c-17.17-4.82-35.15-8-52.39-10.17q-41.11-5.16-86.02-6.49-4.97-.14-5.4-5.12-1.42-16.2-6.29-56.14-.3-2.49-1.53-3.39a6.513 5.993-11.844 0 0-.89-.53q-.67-.33-6.4-.5c-7.51-.22-6.23 6.86-5.67 12.7q4.8 50.2 6.04 68.17.26 3.79 4.27 3.73 22.92-.35 51.14.18c9.61.18 21.91 1.03 31.01 1.67 30.11 2.12 60.11 7.69 87.97 18.52q2.98 1.15 3.97-1.84 9.59-29.13 11.6-35.24.31-.95.62-2.47a2.016 2.014-70.555 0 0-1.05-2.2c-2.57-1.32-7.95-2.96-10.28-.99q-1.76 1.5-2.84 4.92-2.71 8.66-4.36 15.32-.55 2.26-2.26 2.65a2.214 2.174 40.33 0 1-.69.05m-26.87-43.78q-1.56.24-11.37-.91-34.07-4.01-87.86-9.52a2.201 2.194-87.06 0 0-2.42 2.19v2.43a2.4 2.397-86.324 0 0 2.09 2.38q57.65 7.3 92.03 11.61 2.72.34 5.77-.05a3.613 3.598 1.396 0 0 3.11-2.95l.54-3.04a1.829 1.823 3.644 0 0-1.89-2.14m-254.726 8.483c2.27.139 5-3.921 5.925-5.725 1.68-3.279-1.198-9.775-4.959-10.006s-7.412 5.864-6.145 9.324c.697 1.904 2.91 6.267 5.179 6.407M644.89 76.64L643 68.96a1.304 1.301 78.545 0 0-1.46-.97l-.29.04a1.86 1.844 84.127 0 0-1.5 1.86q.27 11.48 11.2 12.51 3.44.32 4.43.23c2.75-.26 2.67-3.08 3-5.21q.25-1.61.21-2.07a1.283 1.281-27.292 0 0-2.26-.72l-4.08 4.87a.647.643-25.044 0 1-1.14-.41v-8.3a.445.443 64.392 0 0-.79-.28l-4.99 6.22a.253.248-32.887 0 1-.44-.09M244.76 179.3c-6.42 5.78-14.62 12.66-22.77 20.06-3.86 3.51-9.32 6.49-13.01 1.29q-16.11-22.73-29.34-45.36a.467.461 37.287 0 0-.85.11q-1.46 5.5-.9 11.43c1.91 20.3 12.2 35.26 28.05 47.49 4.37 3.38 8.85 6.63 14.71 4.8q2.44-.77 6.66-4.08 19.43-15.22 34.65-27.33c2.32-1.85 7.72-5.9 8.01-9.93.43-5.84-17.18-12.25-21.69-14q-6.39-2.48-11.96-6.2-1.6-1.07-1.83-1.86a2.306 2.126-4.995 0 1 2.45-2.69q2.12.16 4.58.95 19.91 6.38 36.09 11.41 9.02 2.8 15.86-.64 3.43-1.72 18.09-8.91 46.6-22.82 96.86-33.43c2.81-.59 7.07-2.24 7.44-5.33q.49-4.19-.25-9.22-1.84-12.56-5.97-28.18-1.88-7.09-8.61-5.61-50.95 11.2-99.91 33.54-14.88 6.79-19.58 9.69-6.43 3.97-6.47 11.7-.06 9.92.02 19.61a1.07 1.07 3.504 0 1-1.21 1.07c-4.86-.63-9.56-1.63-14.17-3.12q-23.91-7.71-28.83-8.91c-8.91-2.17-15.25 3.58-16.5 12.15-2.46 16.96 16.07 22.04 27.93 26.69q1.88.74 2.58 1.88a.725.725-37.058 0 1-.13.93m400.58-66.43a2.382 2.37 8.652 0 0-1.42-1.92q-4.29-1.84-8.33-3.47-2.38-.95-3.38 1.21-.61 1.32-13.28 28.23-4.34 9.19-11.48 15.04c-11.85 9.7-23.73 4.72-36.21-.45q-2.41-1-4.18-1.01a4.078 4.055 20.785 0 0-3.07 1.37c-3.5 3.94-7.63 9.76-1.47 13.9q17.09 11.48 37.24 6.5c12.32-3.04 20.76-12.39 29.54-21.19q3.92-3.92 8.48-1.82c15.44 7.1 29.5 13.91 42.36 23.09 15.54 11.09 26.77 19.85 40.09 29.44q2.54 1.83 4.67-.64 20.86-24.2 39.52-44.24c5.2-5.58 8.58-10.4 1.99-16.25-5.71-5.06-9.39-1.22-13.22 3.03q-7.63 8.48-26.44 29.81-2.69 3.04-5.21 4.96a4.428 4.419-54.52 0 1-4.03.68q-2.64-.86-5.7-2.7c-4.16-2.51-11.88-7.13-16.52-10.17q-26.51-17.34-51.02-30.28-5.35-2.83-3.71-8.98 1.42-5.34 4.49-12.25.4-.89.29-1.89m-140.96 17.91q-2.59 2.24-4.18 5.39a1.728 1.691-39.527 0 0-.13 1.22q.87 3.4 3.15 4.94a3.279 2.466-43.244 0 0 3.35-.37q4.01-2.95 1.43-7.55-1.84-3.27-2.76-3.73a.78.77-51.269 0 0-.86.1m19.22 2.73l-3.87 4.75a1.95 1.95-35.935 0 0-.31 1.94q1.23 3.19 4.11 4.62a1.473 1.469-48.435 0 0 1.47-.09c2.24-1.45 4.92-4.35 3.4-7.36q-1.46-2.88-2.98-4.06a1.311 1.308 38.659 0 0-1.82.2m261.96 33.3c3.78-4.12.31-8.69-3.73-10.67-4.86-2.39-9.23 3.14-12.02 6.32q-18.81 21.39-57.53 65.56-1.85 2.11-2.55 3.77a2.721 2.702 34.491 0 0 .56 2.96c1.57 1.6 6.13 6.82 8.8 4.08q8.31-8.54 14.59-15.4 26.31-28.76 51.88-56.62m13.113 303.313a318.58 318.34-1.8 0 0-328.422-308.176 318.58 318.34-1.8 0 0-308.424 328.19 318.58 318.34-1.8 0 0 328.422 308.176 318.58 318.34-1.8 0 0 308.424-328.19M226.26 254.31q-.74-.94-1.77-1.84-21.53-18.88-43.41-38.33-7.93-7.04-21.11-17.79-6.55-5.33-13.02-9.22c-2.97-1.79-6.03-.43-6.58 3.24-.73 4.82 1.85 8.79 5.52 12q2.9 2.53 68.17 57.33 1.79 1.49 3.84 2.54a1.798 1.732-30.826 0 0 .86.2c2.48-.07 6.43-4.69 7.6-6.59a1.351 1.338 41.552 0 0-.1-1.54m43.11-52.75a1.717 1.713-43.427 0 0-2.3-.06c-4.06 3.47-7.62 9.93-2.23 14.08q2.99 2.3 6.23 1.54c3.71-.88 5.21-5.47 3.71-8.48q-1.86-3.7-5.41-7.08m517.78 102.07q18.93-15.71 23.01-19.18c11.01-9.37 11.76-20.72 6.59-33.43-7.09-17.45-17-33.16-28.14-48.39a2.529 2.507-24.881 0 0-2.63-.95l-26.47 6.53a.61.606-28.648 0 0-.3 1.01q1.82 1.88 3.92 2.91 10.9 5.3 18.77 13.71 10.35 11.05 20.72 27.83 3.89 6.29 1.12 13.35-1.03 2.61-4.22 3.36a1.623 1.603-40.012 0 1-.99-.08q-1.58-.63-2.71-2.13-16.02-21.13-28.68-37.56c-2.37-3.08-7.11-8.37-11.28-5.78q-7.66 4.76-10.26 6.66a1.277 1.274-40.618 0 0-.15 1.93q2.6 2.61 5.6 5.31 7.98 7.18 16.02 16.41 18.04 20.7 19.07 48.04a.617.614 68.873 0 0 1.01.45M111.37 353.1c-9.84-1.21-19.47-4.14-28.78-6.13q-4.98-1.06-6.48 2.89c-2.45 6.44 2.32 7.47 7.75 9.03q8.45 2.44 29.22 8.51 2.51.73 1.79 3.22-1.49 5.17-2.82 10.76a1.994 1.985-77.976 0 1-2.3 1.5q-12.89-2.4-28.02-6.36c-4.28-1.12-11.06-2.94-12.89 3.01-1.89 6.12 1.09 7.96 6.43 9.45q1.85.52 16.99 4.26c5.12 1.27 11.58 3.12 13.91 7.69a1.384 1.377-23.381 0 1-.77 1.93q-1.52.55-3.74.24-6.15-.86-27.7-4.47c-5.15-.86-9.31-.98-10.13 4.89-1.14 8.1 3.56 8.41 10.54 9.46q10.75 1.62 24.5 3.61 1.21.18 2.75.7a2.039 2.027 11.721 0 1 1.38 2.09q-3.22 38.91-6.3 84.1-.16 2.37-1.54 3.7a1.491 1.484 19.371 0 1-.86.41c-6.1.79-12.42 1.19-17.96 3.65a3.218 3.208-7.194 0 0-1.86 2.39q-.36 2.07-.01 5.41.45 4.28 4.78 4.13 15.34-.54 31 .09 12.41.5 18.53 1.45 6.79 1.06 10.63 7.18 6.92 11.02 9.19 24.37.39 2.27-1.63 2.94-9.87 3.31-10.32 3.42a3.001 2.994-15.556 0 0-2.14 3.78l.93 3.04a3.769 3.767 76.939 0 0 4.2 2.62c6.68-1.07 12.38-3.72 19.31-.93a.713.71-74.897 0 0 .97-.56q1.69-12.17-.39-24.7-4.03-24.35-27.26-33.21-3.9-1.49-10.09-3.53-4.82-1.6-5.31-5.94-.59-5.17-.39-13.44.48-19.91 2.8-39 7.59-62.36 29.96-122.02 3.04-8.12 6.44-15.02 2.86-5.79 8.4-7.36c3.66-1.04 8.88-.13 12.65-.34q5.79-.33 9.5-5.02c4.7-5.92 8-13.44 3.99-20.63a4.293 3.981-81.503 0 0-.41-.6c-7.55-9.12-5.49-13.96.33-23.04a1.69 1.679 36.234 0 0-.35-2.22l-59.49-48.49a1.6 1.6-37.82 0 0-1.67-.21q-4.43 2.05-6.04 5.35a2.818 2.816-54.073 0 0 .51 3.2q2.71 2.82 7.06 6.74 18.78 16.92 29.17 26.57 4.08 3.79 6.82 8.3a1.545 1.545-29.723 0 1-.59 2.16c-5.07 2.74-12.98 2.14-19 1.87-10.54-.47-16.44 10.42-16.09 19.53.24 6.13 4.14 10.65 8.2 15.29 1.2 1.38 2.26 3.47 2.72 5.03a.54.531-14.018 0 1-.41.67q-5.35 1.04-10.61-1.4-12.24-5.68-19.01-8.66c-3.52-1.55-6.17-1.86-8.24 1.59-3.88 6.49.64 9.33 5.79 11.78 5.68 2.69 13.8 6.53 19.69 11.28q3.6 2.9 2.92 7.07-.35 2.1-2.32 2.59a1.271 1.228-37.612 0 1-.89-.1L96.8 308.48a1.812 1.805 33.678 0 0-2.22.44c-3.74 4.43-4.59 10.42 1.37 13.41q13.56 6.79 14.14 7.09c3.88 2.05 10.34 5.22 11.52 8.53a.82.818 79.593 0 1-.75 1.09q-1.7.05-5.16-.93-.41-.12-26.46-9.79-4.4-1.63-6.04 2.11c-2.61 5.96 3.72 9.98 8.63 12.01q12.43 5.15 13.9 5.82 3.68 1.7 6.08 3.89a.549.549 69.856 0 1-.44.95m144.15-139.07a.76.753-39.104 0 0-1.11-.11q-3.43 3.02-5.86 6.48c-2.58 3.68 1.9 7.83 4.88 9.78a1.873 1.87-53.671 0 0 2.48-.38l4.94-6.08a1.975 1.971 46.461 0 0 .06-2.43zM861.4 449.15a1.225 1.214-.254 0 1-1.14-1.12c-4.07-47.87-18.65-93.08-37.46-137.34q-.77-1.81-1.59-5.72a2.104 2.101 47.35 0 1 .04-.99c1.1-3.82 5.06-5.75 8.47-7.53q23.17-12.11 41.19-21.75c4.24-2.27 1.11-8.72-.19-11.46q-.99-2.08-3.1-.87-41.03 23.46-61.33 34.63c-6.4 3.52-4.86 10.25-2.31 15.53q29.73 61.57 38.16 129.64c2.81 22.65 3.49 49.82 5.25 70.64a2.067 2.062 4.083 0 0 1.59 1.83q1.51.35 4.02.33 16.85-.13 28.33.23c4.08.12 6.91.63 6.77-4.19q-.06-2.33-.67-8.27a2.134 2.134 89.836 0 0-1.93-1.92q-4.06-.35-14.58-.94c-5.28-.29-9.1-.04-8.79-6.15q.21-4.01.73-14.21c.41-8.08 5.74-11.98 12.5-15.82 6.93-3.94 11.8-11.36 13.68-19q.88-3.56.77-10.92c-.19-12.07-2.3-22.57-5.52-35.28-7.62-30.09-17.37-63.06-24.01-86-1.25-4.32-1.72-3.79-6.44-3.9q-10.11-.22-18.19 1.03a1.263 1.261 73.663 0 0-.96 1.76q.75 1.73 1.23 2.42c4.83 7.05 9.87 16.01 12.77 25.64 7.22 24.02 14.14 49.81 22.43 80.93q2.65 9.96-.17 21.27c-1.24 4.98-4.74 7.82-9.55 7.5M80.306 272.392q-2.323 2.837-4.526 6.459c-2.025 3.343.682 7.986 3.376 9.88 1.998 1.414 5.051-1.052 6.289-2.532q2.89-3.45.61-7.298-2.159-3.635-4.976-6.542a.519.515-47.163 0 0-.773.033M890.27 328.59q6.61 26.23 17.63 69.49c.77 3.03 2.08 5.02 4.16 6.84a1.894 1.723 39.672 0 0 2.63-.12q1.35-1.72.7-4.2-10.58-40.64-17.47-66.53-1.41-5.29-6.73-6.44a.784.783 88.821 0 0-.92.96M55.895 369.527q2.73-.112 5.044-3.31 2.573-3.558-.228-7.067-2.489-3.121-4.938-5.795-.207-.225-.571-.21-.335.014-.523.256-2.22 2.866-4.444 6.18-2.503 3.728.354 7.062 2.569 2.997 5.306 2.884m-15.053 10.962q.003.193.013.211c1.355 2.41 5.055 7.16 8.125 6.1 2.42-.83 6.37-3.91 8.23-6.268.033-.042.051-.239.05-.265s-.023-.222-.057-.264c-1.923-2.307-5.955-5.278-8.397-6.043-3.098-.976-6.668 3.873-7.957 6.319q-.01.017-.007.21m92.483 59.061q.014 3.406 3.879 5.986 2.226 1.494 4.106.534 3.9-1.98 7.506-6.015.136-.152.134-.57-.001-.417-.139-.568-3.639-4.006-7.555-5.953-1.888-.945-4.102.567-3.843 2.613-3.829 6.019m2.005 8.17q-2.25 2.95-4.35 6.69c-1.93 3.45.97 8.05 3.76 9.87 2.07 1.36 5.07-1.24 6.27-2.78q2.8-3.59.36-7.4-2.31-3.6-5.26-6.44a.525.521-49.15 0 0-.78.06m769.602 29.018q-.293 3.167 3.957 6.671a3.297 3.289 53.684 0 0 3.321.511q4.56-1.82 8.02-4.72.863-.722.885-.961.022-.24-.693-1.108-2.868-3.487-7.016-6.114a3.297 3.289-43.088 0 0-3.358-.108q-4.822 2.662-5.116 5.829m-1.655 25.141q.027 2.743 3.163 5.167 3.49 2.694 7.1-.006 3.21-2.4 5.971-4.773.233-.2.229-.566-.003-.337-.24-.533-2.806-2.319-6.062-4.656-3.662-2.629-7.099.132-3.089 2.485-3.062 5.235M843.7 539.05l-.01-.09a.893.891.507 0 1 1.01-.99l77.58 10.81a2.116 2.109 16.107 0 0 2.22-1.22q2.68-5.86-1.55-11.02c-1.68-2.05-5.97-3.07-8.32-3.43q-48.96-7.3-90.85-12.68-1.92-.25-3.59-.26a1.353 1.346-86.708 0 0-1.35 1.21q-1.34 12.56-2.96 24.47-.35 2.53 2.17 3.05 15.34 3.17 96.63 21.46 1.06.24 3.69.01c2.37-.2 3-1.87 3.48-4q1.92-8.48-6.35-9.82-13.61-2.2-31.48-6.34-18.86-4.37-39.15-9.78a1.576 1.573 4.749 0 1-1.17-1.38m-687.23 59.49q-1.44-1.58-5.61-4.41c-1.77-1.2-2.14-2.54-.35-3.93q3.75-2.89 4.83-4.04a2.02 2.02-49.27 0 0-.22-2.96l-5.62-4.52a2.88 2.877-37.173 0 0-2.92-.4q-4.21 1.76-6.41 6.09a1.316 1.31-53.464 0 0 .22 1.5l4.98 5.25a1.07 1.07 46.538 0 1-.04 1.5l-4.47 4.23a1.518 1.513-28.345 0 1-2.52-.75c-.73-3.14-1.31-6.33-2.51-9.61q-8.1-22.14-15.28-44.51-1.11-3.43-3.23-7.34a2.838 2.473 71.858 0 0-2.5-1.49q-.97.07-2.46 1.22c-7.86 6.09-13.82 12.88-21.87 21.62-3.02 3.27-9.41 9.93-13.68 10.33a2.258 1.944-6.115 0 1-2.42-1.67q-.08-.63.6-1.65 8.05-12.14 9.3-14.21 1.21-1.98 1.44-3.43a3.038 3.033 22.979 0 0-1.18-2.91c-2.33-1.77-7.46-5.08-10.31-4.41q-2.22.52-4.28 3.45-6.18 8.77-11.98 19.51-5.37 9.94.02 17.65c5.17 7.4 14.81 9.1 22.42 4.02q7.53-5.04 10.31-7.71 7.34-7.06 13.8-12.12a1.413 1.413 55.612 0 1 2.08.39q.91 1.5 1.56 3.14 1.45 3.63 10.24 27.72c3.18 8.71.83 12.12-8.37 12.85-15.88 1.26-32.12 1.13-47.76 1.01q-1.09 0-1.14.03a1.337 1.335 38.203 0 0 .28 2.34c16.68 6.51 35.17 11.39 53.25 8.8 11.41-1.64 21.32-6.58 24.41-18.44a.817.813 30.621 0 1 1.38-.35l4.12 4.35a3.409 3.396 49.858 0 0 4.49.39l7.3-5.42a.748.747-39.891 0 0 .1-1.11m653.78-31.04l104.22 23.44a2.014 2.01 14.29 0 0 2.38-1.41q1.61-5.63-1.24-8.93-1.41-1.63-8.59-3.22-51.23-11.36-87.92-19.38c-3.68-.81-7.63-1.93-9.04 2.23q-1.08 3.2-.52 6.52a.917.911-88.642 0 0 .71.75m-15.6 97.82l61.31 49.16a1.073 1.071 38.217 0 0 1.53-.18q7.51-9.82 15.06-19.03 2.19-2.67-.38-4.7-33.42-26.4-75.25-60.5-2.31-1.88-4.12.49-10.99 14.42-21.81 27.71-3.06 3.75-3.59 6.45-.83 4.24.56 7.35 23.81 53.43 30.95 69.68.51 1.15.56 1.69a1.165 1.164 84.872 0 1-1.06 1.27q-2.19.2-3.91-.19-28.21-6.39-62.48-14.05-.58-.13-9.45-1.86c-4.3-.84-7.41-.84-10.09 2.49q-14.57 18.08-26.73 32.47c-1.93 2.28-3.91 4.05-1.11 6.3q27.43 21.96 67.78 54.72c3.98 3.24 7.27 6.9 12.01 4.14q1.67-.97 5.2-5.61 4.12-5.43 9.34-11.91a2.048 2.043-51.383 0 0-.32-2.89q-23.07-18.33-51.17-41.53-3.29-2.73-5.83-5.37a.755.754-29.368 0 1 .35-1.25q3.99-1.08 8.27-.24 31.79 6.22 65.68 14.6 8.89 2.2 15.52-3.19c4.16-3.37 7.59-10.17 11.12-14.18q3.71-4.21 4.21-7.46.9-5.84-.68-9.27-14.54-31.56-29.98-65.82-2.4-5.32-2.84-8.52a.837.836-74.676 0 1 1.35-.77m-571.59 33.23q-.38-.71-.51-.84-10.71-11.27-20.68-22.33-1.78-1.97-3.85-.1-16.77 15.18-41.75 37.23c-4.28 3.78-7.48 7.19-10.61 11.37-8.84 11.82-8.53 25.74-2.35 38.8 11.9 25.2 30.87 45.29 54.43 59.69 16.11 9.84 31.04 8.18 45.51-3.63 16.68-13.63 35.73-30.72 47.34-41.65q.76-.72 1.07-1.15a1.906 1.899 40.813 0 0-.18-2.4L269 749.82a1.884 1.881-41.121 0 0-2.54-.17q-6.95 5.6-15.16 13.15-17.31 15.94-27 24.76c-8.55 7.77-17.13 11.69-27.99 5.16q-14.91-8.96-23.32-23.91c-5.74-10.22-2-20.15 6.09-27.74q20.29-19.03 43.51-39.8a2.229 2.22 54.913 0 0 .47-2.72m317.28 148.3c-.9-11.38-8.23-20.83-19.49-23.86q-4.62-1.24-7.54-1.64-16.95-2.31-37.47-2.55-14.03-.16-22.58 1.92-10.77 2.62-21.09 8.33-5.4 2.99-7.9 6.01c-5.61 6.82-6.03 16.73-2.99 24.69 3.06 7.98 10.05 11.28 17.74 13.99q11.09 3.9 22.49 5.98 16.71 3.04 31.07 5.4c6.01.99 11.63 2.78 13.81 9.06a2.695 2.588 38.641 0 1 .14 1.06c-.5 6.73-7.25 10.74-13.63 11.9-7.61 1.38-15.74 1.54-22.7-1.33-6.72-2.76-9.83-6.22-14.57-10.66-4.58-4.28-9.41-5.01-16.22-4.84q-4.19.11-20.52-.04a1.684 1.682-88.398 0 0-1.69 1.6q-.44 9.42 4.42 16.91c4.9 7.57 16.4 12.64 24.91 14.68q16.33 3.92 33.97 3.36c16.59-.53 32.64-1.82 47.62-8.97 7.67-3.67 13.75-8.68 15.72-17.25 3.08-13.41-1.69-26.98-15.31-31.81q-9.1-3.23-21.01-5.32-27.07-4.75-30.77-5.47c-6.21-1.2-12.96-2.68-17.75-6.46a3.028 3.019-80.587 0 1-.97-1.36c-3.93-10.95 12.73-14.1 20.04-14.35 9.99-.33 19.07 3.26 26.7 9.82 2.84 2.43 4.85 3.1 8.73 3.11q12.89.05 24.97.1a1.866 1.863-2.119 0 0 1.87-2.01" fill="#fff"/><path d="M600.87 117.24q1.71-.39 2.26-2.65 1.65-6.66 4.36-15.32 1.08-3.42 2.84-4.92c2.33-1.97 7.71-.33 10.28.99a2.016 2.014-70.555 0 1 1.05 2.2q-.31 1.52-.62 2.47-2.01 6.11-11.6 35.24-.99 2.99-3.97 1.84c-27.86-10.83-57.86-16.4-87.97-18.52-9.1-.64-21.4-1.49-31.01-1.67q-28.22-.53-51.14-.18-4.01.06-4.27-3.73-1.24-17.97-6.04-68.17c-.56-5.84-1.84-12.92 5.67-12.7q5.73.17 6.4.5a6.513 5.993-11.844 0 1 .89.53q1.23.9 1.53 3.39 4.87 39.94 6.29 56.14.43 4.98 5.4 5.12 44.91 1.33 86.02 6.49c17.24 2.17 35.22 5.35 52.39 10.17q9.86 2.77 10.55 2.83a2.214 2.174 40.33 0 0 .69-.05" fill="#1201fc"/><path d="M573.31 73.51a1.829 1.823 3.644 0 1 1.89 2.14l-.54 3.04a3.613 3.598 1.396 0 1-3.11 2.95q-3.05.39-5.77.05-34.38-4.31-92.03-11.61a2.4 2.397-86.324 0 1-2.09-2.38v-2.43a2.201 2.194-87.06 0 1 2.42-2.19q53.79 5.51 87.86 9.52 9.81 1.15 11.37.91m-253.76-7.248c3.761.231 6.639 6.727 4.959 10.006-.925 1.804-3.655 5.864-5.925 5.725s-4.482-4.503-5.179-6.407c-1.267-3.46 2.384-9.555 6.145-9.324M644.89 76.64a.253.248-32.887 0 0 .44.09l4.99-6.22a.445.443 64.392 0 1 .79.28v8.3a.647.643-25.044 0 0 1.14.41l4.08-4.87a1.283 1.281-27.292 0 1 2.26.72q.04.46-.21 2.07c-.33 2.13-.25 4.95-3 5.21q-.99.09-4.43-.23-10.93-1.03-11.2-12.51a1.86 1.844 84.127 0 1 1.5-1.86l.29-.04a1.304 1.301 78.545 0 1 1.46.97zm-400 101.73q-.7-1.14-2.58-1.88c-11.86-4.65-30.39-9.73-27.93-26.69 1.25-8.57 7.59-14.32 16.5-12.15q4.92 1.2 28.83 8.91c4.61 1.49 9.31 2.49 14.17 3.12a1.07 1.07 3.504 0 0 1.21-1.07q-.08-9.69-.02-19.61.04-7.73 6.47-11.7 4.7-2.9 19.58-9.69 48.96-22.34 99.91-33.54 6.73-1.48 8.61 5.61 4.13 15.62 5.97 28.18.74 5.03.25 9.22c-.37 3.09-4.63 4.74-7.44 5.33q-50.26 10.61-96.86 33.43-14.66 7.19-18.09 8.91-6.84 3.44-15.86.64-16.18-5.03-36.09-11.41-2.46-.79-4.58-.95a2.306 2.126-4.995 0 0-2.45 2.69q.23.79 1.83 1.86 5.57 3.72 11.96 6.2c4.51 1.75 22.12 8.16 21.69 14-.29 4.03-5.69 8.08-8.01 9.93q-15.22 12.11-34.65 27.33-4.22 3.31-6.66 4.08c-5.86 1.83-10.34-1.42-14.71-4.8-15.85-12.23-26.14-27.19-28.05-47.49q-.56-5.93.9-11.43a.467.461 37.287 0 1 .85-.11q13.23 22.63 29.34 45.36c3.69 5.2 9.15 2.22 13.01-1.29 8.15-7.4 16.35-14.28 22.77-20.06a.725.725-37.058 0 0 .13-.93m147.29-83.86a1.652 1.649 78.268 0 0-1.84-1.21q-4.31.66-8.38 2.14-68.95 25.15-72.34 26.42-6.8 2.53-10.19 4.4c-5.63 3.12-4.04 9.36-1.68 14.02q1.41 2.78 4.52 1.51 37.79-15.43 84.72-33.01c6.32-2.37 6.68-8.7 5.19-14.27" fill="#1201fc"/><path d="M392.18 94.51c1.49 5.57 1.13 11.9-5.19 14.27q-46.93 17.58-84.72 33.01-3.11 1.27-4.52-1.51c-2.36-4.66-3.95-10.9 1.68-14.02q3.39-1.87 10.19-4.4 3.39-1.27 72.34-26.42 4.07-1.48 8.38-2.14a1.652 1.649 78.268 0 1 1.84 1.21" fill="#fff"/><g fill="#1201fc"><path d="M645.34 112.87q.11 1-.29 1.89-3.07 6.91-4.49 12.25-1.64 6.15 3.71 8.98 24.51 12.94 51.02 30.28c4.64 3.04 12.36 7.66 16.52 10.17q3.06 1.84 5.7 2.7a4.428 4.419-54.52 0 0 4.03-.68q2.52-1.92 5.21-4.96 18.81-21.33 26.44-29.81c3.83-4.25 7.51-8.09 13.22-3.03 6.59 5.85 3.21 10.67-1.99 16.25q-18.66 20.04-39.52 44.24-2.13 2.47-4.67.64c-13.32-9.59-24.55-18.35-40.09-29.44-12.86-9.18-26.92-15.99-42.36-23.09q-4.56-2.1-8.48 1.82c-8.78 8.8-17.22 18.15-29.54 21.19q-20.15 4.98-37.24-6.5c-6.16-4.14-2.03-9.96 1.47-13.9a4.078 4.055 20.785 0 1 3.07-1.37q1.77.01 4.18 1.01c12.48 5.17 24.36 10.15 36.21.45q7.14-5.85 11.48-15.04 12.67-26.91 13.28-28.23 1-2.16 3.38-1.21 4.04 1.63 8.33 3.47a2.382 2.37 8.652 0 1 1.42 1.92m-140.1 17.81q.92.46 2.76 3.73 2.58 4.6-1.43 7.55a3.279 2.466-43.244 0 1-3.35.37q-2.28-1.54-3.15-4.94a1.728 1.691-39.527 0 1 .13-1.22q1.59-3.15 4.18-5.39a.78.77-51.269 0 1 .86-.1m18.36 2.83a1.311 1.308 38.659 0 1 1.82-.2q1.52 1.18 2.98 4.06c1.52 3.01-1.16 5.91-3.4 7.36a1.473 1.469-48.435 0 1-1.47.09q-2.88-1.43-4.11-4.62a1.95 1.95-35.935 0 1 .31-1.94zm258.23 22.63c4.04 1.98 7.51 6.55 3.73 10.67q-25.57 27.86-51.88 56.62-6.28 6.86-14.59 15.4c-2.67 2.74-7.23-2.48-8.8-4.08a2.721 2.702 34.491 0 1-.56-2.96q.7-1.66 2.55-3.77 38.72-44.17 57.53-65.56c2.79-3.18 7.16-8.71 12.02-6.32"/><path d="M798.673 470.123a318.58 318.34-1.8 0 1-308.424 328.19 318.58 318.34-1.8 0 1-328.422-308.176 318.58 318.34-1.8 0 1 308.424-328.19 318.58 318.34-1.8 0 1 328.422 308.176M189.96 382.97q-3.47 2.95-4.83 7.68-17.01 59.22-11.36 120.84 2.22 24.21 8.11 47.13c2.97 11.55 7.8 16.64 20.14 18.59q25.09 3.95 49.98-3.22 4.82-1.39 26.32-8.15 8.85-2.79 24.15-4.8c12.51-1.65 24.58-.1 36.95 2.86q5.49 1.31 8.15-3.59 3.96-7.33 8.2-14.3 19.29-31.72 50.46-50.71c36.03-21.95 77.95-24.93 118.29-13.56q35.44 10 60.43 36.56c11.06 11.75 19.2 24.61 26.98 38.57q4.55 8.17 14.14 6.73c18.56-2.79 38.96-3.26 57.31 2.51q9.84 3.09 23.18 7.06 23.84 7.1 47.68 4.86c10.49-.98 21.61-3.07 24.39-15.14q3.12-13.57 5.38-23.87c5.49-25.08 7.57-53.55 4.19-80.02-2.94-23.01-7.19-44.12-11.9-67.77q-1.01-5.06-4.29-8.84a1.493 1.492 43.977 0 0-2.29.04q-1.17 1.44-1.5 3.83-1.88 13.44-3.75 26.06c-.85 5.75-1.03 10.36-2.03 15.78q-.39 2.05-2.89 2.02-9.1-.09-17.23.01a2.04 2.028 84.109 0 1-2.03-1.66l-4.36-23.24a1.558 1.552.578 0 0-1.22-1.24q-1.46-.3-2.71-.29-14.98.05-22.57-.02-3.56-.03-4.11 3.39-1.72 10.79-2.81 18.18-.75 5.03-5.68 5.33c-4.89.3-11.06 1.25-13.47-2.22q-1.7-2.46-2.45-6.49-2.55-13.55-2.58-13.7-1.14-4.71-6.07-4.56-4.57.14-17.84-.06c-3.7-.05-6.05-.73-6.66 3.47q-.58 4-2.72 19.97-.41 3.08-3.52 3.01-9.93-.21-18.9.08a2.025 2.021-3.584 0 1-2.09-1.84q-.99-11.31-1.44-18.64-.29-4.82-3.75-5.68-3.34-.83-9.5-.94c-7.41-.13-14.18-.47-17.38 7-1.87 4.37-3.23 10.95-4.38 15.84q-1.1 4.66-6.51 4.63-17.81-.08-23.44-.08a2.254 2.244 84.168 0 1-2.2-1.8q-1.45-7.06-2.23-15.32-11.43-121.64-19.87-212.33c-.3-3.19-1.45-9.09-5.04-9.79q-6.95-1.34-14.09.5a2.438 2.437 89.209 0 0-1.77 1.82l-3.28 14.61a2.84 2.838-88.32 0 1-2.31 2.18q-3.59.58-6.05-.09a3.356 3.352 2.636 0 1-2.42-2.65q-1.14-6.46-2.79-11.31c-2.81-8.25-15.38-6.49-21.62-4.18a2.019 1.992-6.462 0 0-1.3 1.61l-1.98 14.19a2.69 2.684 84.947 0 1-1.83 2.19q-1.82.6-5.12.62c-2.6.01-3.63-.76-4.28-3.45q-1.44-6.03-3.1-12.02c-1.82-6.57-8.41-5.17-13.98-4.29q-6.56 1.03-7.11 7.62-6.39 76.3-21.4 228.56-.32 3.26-3.63 3.15-8.82-.3-24.26-.03-3.64.07-4.35-3.32-2.15-10.35-4.33-18.08-1.45-5.15-6.27-5.13-10.9.04-20.72-.04-3.11-.03-3.44 3.55-.8 8.51-2.07 20.1-.31 2.85-3.03 2.77-5.57-.15-18.27-.05-2.48.02-2.85-2.6-1.42-10-3.77-22.16a1.934 1.93-4.619 0 0-1.85-1.57q-6.93-.17-21.95.14-5.09.11-6.16 4.9-.98 4.41-2.24 14.28c-.46 3.64-1.78 6.93-5.33 7.43q-3.42.47-12.06-.11c-2.53-.17-3.71-1.56-4.13-3.9q-2.55-14.28-3.57-20.52a2.514 2.514-4.729 0 0-2.48-2.1h-25.63a2.702 2.698 4.338 0 0-2.67 2.29q-1.61 10.7-3.56 21.4-.49 2.7-2.74 2.64-5.19-.15-17.5-.11-2.07.01-2.29-2.19-.24-2.34-3.91-32.78c-.5-4.14-1.33-8.8-4.12-11.95a.872.871-41.217 0 0-1.22-.08m86.8-18.33q.27.06.5.12.42.11.49.11 23.98-.21 43.07-.01.49.01.59-.07a.784.784-51.975 0 0-.16-1.31c-5.91-2.86-9.86-5.38-9.94-12.73q-.51-47.09-.07-88.24a.651.65-6.272 0 0-.8-.64q-2.38.57-3.64 1.16l-30.86 14.39q-3.17 1.41-4.59 3.04a1.273 1.273-69.713 0 0 .97 2.11q4.01-.05 8.17-.45 2.6-.25 4.48.45a3.21 3.21 4.768 0 1 2.04 2.41q.85 4.4.83 9.27-.08 23.5.1 52.64c.04 5.57-.44 9.35-4.67 12.61q-1.33 1.03-6.62 4.63a.284.282 33.077 0 0 .11.51m281.04 1.17q50.58-.05 51.96-.06c3.93-.03 6.95.33 8.21-3.62q.65-2.07 4.75-21.64.46-2.16.2-3.37a1.561 1.559-29.67 0 0-2.67-.73c-4.52 4.9-8.34 8.46-15.5 8.44q-9-.03-18.95-1.57a.69.69-63.027 0 1-.38-1.17q9.44-9.49 18.02-19.38c8.25-9.52 15.83-23.34 15.17-36.3-.53-10.52-9.48-19.67-19.6-22.75q-14.75-4.49-26.91 5.97-9.6 8.25-11.09 20.86a.618.617 84.481 0 0 .8.66l.78-.24a.997.665-56.31 0 0 .12-.05q7.8-5.55 10.06-6.76c13.78-7.34 26.56 4.87 22.6 19.1-3.95 14.22-11.9 27.73-20.9 39.54q-7.65 10.04-17.02 22.37a.438.436 18.516 0 0 .35.7m-210.87.21q.11.07.58.07c35.28-.06 60.28-27.98 60.04-62.56-.12-17.9-8.02-32.91-25.17-39.42q-7.25-2.75-15.28-.57c-20.64 5.6-30.12 25.99-24.04 45.88 4.62 15.11 15.72 21.49 31.03 19.62q3.98-.48 6.19-.69a.67.67-85.911 0 1 .71.82q-3.35 14.47-14.63 23.93-8.71 7.3-19.31 11.68a.712.706 50.768 0 0-.12 1.24m307-50.78c7.05 3.59 14.65 6.2 19.91 12.98q8.25 10.63 2.94 23.78c-3.44 8.52-12.5 7.05-19.45 3.95a5.751 5.226 72.516 0 1-1.08-.63c-6.14-4.69-9.93-6.91-17.28-7.2-3.31-.13-4.64 1.51-6.18 4.05q-1.27 2.11.3 5.54 3.29 7.19 10.87 8.02 8.96.97 16.03 1.01 20.9.12 32.18-16.75c8.34-12.47 7.31-27.49-2.49-38.91q-3.43-3.99-6.31-7.14a1.679 1.671-42.011 0 1 .13-2.38c2.79-2.48 6.64-6.03 7.96-9.58q4.05-10.88-3.25-19.43c-11.35-13.27-28.23-12.62-40.89-1.69q-7.81 6.74-11.87 17.89a.592.59-6.052 0 0 .87.7q10.39-6.5 12.95-7.93c6.45-3.61 13.58-3.94 18.45 2.46 6.99 9.2 1.9 16.85-5.73 23.1q-6.83 5.59-8.25 7.15a.645.645 34.35 0 0 .19 1.01M487.26 506.11c-3.3.76-4.91 3.84-4.8 7.16.27 7.46-.08 15.87.92 24.27q.88 7.36.95 17.39.05 6.52 5.1 10.29 21.17 15.86 42.18 32.06c5.11 3.94 9.88 7.57 15.83 5.14q11.77-4.82 28.15-10.31c6.47-2.16 12.57-5.2 13.07-12.88q.34-5.2.15-27.97-.04-5.23-1.19-13.54-.98-7.13-6.26-11.58-15.58-13.13-34.29-26.31c-5.2-3.67-10.06-5.78-15.8-4.6q-4.98 1.03-15.03 3.72-12.97 3.47-28.98 7.16m-7.65 6.16c.18-3.21-1.55-5.69-4.62-6.27q-13.83-2.6-26.53-6.89-9.27-3.14-13.6-3.39-8.39-.49-14.96 1.36c-6.33 1.77-12.44 5.94-18.35 10.22q-9.61 6.95-19.26 15.46-8.29 7.3-8.54 17.75-.06 2.75-.37 42.52c-.03 4.13 2.29 5.69 6.11 7q15.58 5.31 34.55 12.15 6.01 2.17 11.43-1.93 28.79-21.75 44.7-33.58c6.36-4.72 7.57-9.23 7.74-17.44q.21-10.36 1.7-36.96m-287.6 73.8a.292.282.955 0 0-.31.29q.15 6.57 3.91 10.01 2.46 2.25 10.14 3.14 17.3 2 30.68-.04c18.64-2.84 37.19-10.6 55.79-14.98q18.88-4.44 36.61.62 6.16 1.76 7.62 1.32 3.49-1.05 4.04-6.41a3.306 3.287-69.231 0 0-1.34-3q-1.64-1.2-3.97-1.94-19.07-6.07-40.43-2.17c-16.94 3.09-33.71 9.56-48.46 13.36q-14.75 3.79-29.56 3.2c-7.86-.31-17.84-2.89-24.72-3.4m575.72 1.5q-.78-.22-1.74-.12-15.5 1.67-19.27 1.94-16.58 1.2-32.43-2.94c-15.38-4.02-30.25-9.78-45.36-12.83-13.94-2.81-31.4-3.28-44.22 3.01a4.497 4.486 71.682 0 0-2.43 4.85l.53 2.79a3.087 3.083 75.149 0 0 4.04 2.35c2.58-.89 6.13-2.23 9.69-2.93 14.96-2.94 31.01-.98 45.65 3.66q20.44 6.49 24.76 7.66c15.72 4.27 31.69 6.57 47.82 4.57 7.1-.88 13.45-2.07 13.95-10.63a1.355 1.352-80.718 0 0-.99-1.38m-563.14 27.61c2.43 8.35 16.12 10.28 22.67 8.79q17.25-3.93 55.24-14.3c8.15-2.22 15.46-3.63 22.88-4.3q10.48-.96 24.08 2.01 1.46.32 3.12-.77 1.15-.77 1.6-2.81 1.04-4.84-4.59-6.66-11.21-3.61-21.36-1.71c-10.98 2.05-30.95 6.32-47.59 10.55-11.37 2.89-24.4 6.02-35.41 6.68q-4.88.29-15.47.29-2.38 0-4.53.91a1.103 1.086-19.558 0 0-.64 1.32m524.78 48.38a2.846 2.842 30.693 0 0-1.23-4.81q-3.47-.93-28.48-7.68c-6.97-1.88-16.12-4.95-22.11-6.6-13.54-3.72-28.46-5.23-41.88-2.28q-3.03.67-7.22 1.53-4.18.85-6.9-3.29-4.94-7.54-25.38-37.82c-3.83-5.67-5.86-9.6-12.61-7.14q-24.02 8.78-31.47 11.21c-6.13 2-11.04 5.27-12.73 10.97q-7.56 25.6-15.02 51.47-1.42 4.94 1.21 9.58 4.74 8.35 16.52 28.63c2.62 4.49 3.63 7.06 8.94 6.4q3.55-.44 4.1-.58c14.2-3.53 28.38-6.76 42.08-5.74a3.993 3.972-64.473 0 0 3.03-1.08c3.75-3.55 6.11-7.14 8.41-12.15q9.85-21.43 14.48-31.21c1.43-3.01 3.22-5.68 5.89-7.01q8.24-4.14 19.57-5.35 7.52-.8 16.88 1.69 36.77 9.81 54.27 14.57a8.839 8.83 30.852 0 0 8.39-2.11zM627.2 606.78a1.233 1.231 80.796 0 0 1.44 1.04c12.41-2.29 24.65-3.12 37.05-.5 19.17 4.05 40.1 10.49 57.74 14.26q9.93 2.12 22.65 1.49 4.54-.23 6.73-1.3c2.54-1.23 6.65-5.9 5.65-9.1a.825.816 83.081 0 0-.72-.57q-2.54-.18-3.45-.14-15.57.72-18.3.42-14.79-1.65-29.67-5.75-24.85-6.86-29.12-8.08-23.35-6.67-45.57-1.44-3.01.7-3.97 1.51a3.405 3.382 66.092 0 0-1.18 3.09zM389.53 734.16q-.17-1.37-.53-1.67-12.54-10.55-23.62-25.01a.846.846 69.857 0 1 .63-1.36q5.04-.24 10.15.75 15.21 2.97 28.02 5.76c3.04.66 8.85 1.69 11.64-.55q1.77-1.43 3.43-4.09 8.78-14.05 16.8-29.42 3.06-5.85.91-12.51-4.65-14.45-14.83-48.93-1.92-6.54-7.46-8.56-15.34-5.61-34.52-12.43c-3.42-1.22-8.18-2.05-10.51.52q-3.16 3.47-6.27 8.46-.06.09-21.89 33.82c-1.97 3.04-4.14 5.19-7.44 4.48q-10.56-2.27-11.17-2.33-6.18-.6-12.32-.52-4.25.07-12.14 1.85-32.74 7.37-58.21 14.04-4.13 1.08-7.21 2.21a1.523 1.523-18.808 0 0-.93 1.89q.99 3.16 3.89 5.24c2.3 1.65 5.5.65 8.28-.09q18.29-4.9 38.08-10.35c7.83-2.16 16.31-4.09 22.58-4.5q7.04-.47 14.75.87c10.33 1.81 17.75 5.75 20.66 15.53q1.25 4.21 2.3 6.77 14.19 34.66 42.43 59.18 1.87 1.62 3.53 1.79a.68.68 41.442 0 1 .62.62q.13 1.61 2 3.04 13.09 10.03 29.19 17.53 43.61 20.32 90.78 10.36c21-4.44 39.86-12.73 56.56-26.36q9.49-7.74 15.69-14.53a1.026 1.016-42.676 0 0 .06-1.32l-.01-.03a.803.798-40.473 0 0-1.19-.09q-24.25 23.61-56.67 34.38-4.25 1.41-7.97 2.02a.551.55 9.925 0 1-.57-.81q8.73-15.71 19.09-31.82 3.83-5.95.81-11.72-4.84-9.24-17.02-29.14-4.4-7.18-12.18-7.17-31.57.01-49.5-.13c-7.58-.06-12.84 1.35-16.87 7.83q-3.22 5.18-16.64 28.07c-4.01 6.86.5 12.35 4.93 18.45 6.11 8.45 11.65 17.36 17.41 26.48a.492.482-30.194 0 1-.19.69q-.39.21-.86.09-11.97-3.08-28.85-10.89-10.53-4.87-23.26-14.4-1.43-1.06-3.77-1.37a.716.716 52.796 0 1-.62-.62M332.45 631.4a1.038 1.033 13.692 0 0 1.24-.75q2.61-9.93-6.56-11.23-8.19-1.17-20.37-1.41-4.56-.09-9.23.8-9.97 1.89-27.65 6.36-42.18 10.65-50.08 12.72a3.093 3.093-25.765 0 0-1.69 4.84l.05.07a7.788 7.782-22.037 0 0 7.23 3.06q18.97-2.41 31.68-6.06 18.27-5.25 27.88-7.83c11.28-3.03 23.95-4.63 35.6-3.06q3.19.43 11.9 2.49m295.93-1.2a1.54 1.533 71.688 0 0 1.86.94q20.54-5.87 41.22-.51 38.47 9.99 40.65 10.53 16.12 3.95 21.71 4.65 9.61 1.22 11.75-8.48a1.123 1.121-82.791 0 0-1.06-1.37c-22.78-.64-41.44-6.86-65.42-14.05q-23.04-6.91-46.54-1.87c-5.39 1.16-5.85 5.72-4.17 10.16m-38.593 87.194a1.66.57-38.6 0 0-1.653.591 1.66.57-38.6 0 0-.941 1.481 1.66.57-38.6 0 0 1.653-.591 1.66.57-38.6 0 0 .941-1.481"/><path d="M226.26 254.31a1.351 1.338 41.552 0 1 .1 1.54c-1.17 1.9-5.12 6.52-7.6 6.59a1.798 1.732-30.826 0 1-.86-.2q-2.05-1.05-3.84-2.54-65.27-54.8-68.17-57.33c-3.67-3.21-6.25-7.18-5.52-12 .55-3.67 3.61-5.03 6.58-3.24q6.47 3.89 13.02 9.22 13.18 10.75 21.11 17.79 21.88 19.45 43.41 38.33 1.03.9 1.77 1.84"/></g><path d="M189.96 382.97a.872.871-41.217 0 1 1.22.08c2.79 3.15 3.62 7.81 4.12 11.95q3.67 30.44 3.91 32.78.22 2.2 2.29 2.19 12.31-.04 17.5.11 2.25.06 2.74-2.64 1.95-10.7 3.56-21.4a2.702 2.698 4.338 0 1 2.67-2.29h25.63a2.514 2.514-4.729 0 1 2.48 2.1q1.02 6.24 3.57 20.52c.42 2.34 1.6 3.73 4.13 3.9q8.64.58 12.06.11c3.55-.5 4.87-3.79 5.33-7.43q1.26-9.87 2.24-14.28 1.07-4.79 6.16-4.9 15.02-.31 21.95-.14a1.934 1.93-4.619 0 1 1.85 1.57q2.35 12.16 3.77 22.16.37 2.62 2.85 2.6 12.7-.1 18.27.05 2.72.08 3.03-2.77 1.27-11.59 2.07-20.1.33-3.58 3.44-3.55 9.82.08 20.72.04 4.82-.02 6.27 5.13 2.18 7.73 4.33 18.08.71 3.39 4.35 3.32 15.44-.27 24.26.03 3.31.11 3.63-3.15 15.01-152.26 21.4-228.56.55-6.59 7.11-7.62c5.57-.88 12.16-2.28 13.98 4.29q1.66 5.99 3.1 12.02c.65 2.69 1.68 3.46 4.28 3.45q3.3-.02 5.12-.62a2.69 2.684 84.947 0 0 1.83-2.19l1.98-14.19a2.019 1.992-6.462 0 1 1.3-1.61c6.24-2.31 18.81-4.07 21.62 4.18q1.65 4.85 2.79 11.31a3.356 3.352 2.636 0 0 2.42 2.65q2.46.67 6.05.09a2.84 2.838-88.32 0 0 2.31-2.18l3.28-14.61a2.438 2.437 89.209 0 1 1.77-1.82q7.14-1.84 14.09-.5c3.59.7 4.74 6.6 5.04 9.79q8.44 90.69 19.87 212.33.78 8.26 2.23 15.32a2.254 2.244 84.168 0 0 2.2 1.8q5.63 0 23.44.08 5.41.03 6.51-4.63c1.15-4.89 2.51-11.47 4.38-15.84 3.2-7.47 9.97-7.13 17.38-7q6.16.11 9.5.94 3.46.86 3.75 5.68.45 7.33 1.44 18.64a2.025 2.021-3.584 0 0 2.09 1.84q8.97-.29 18.9-.08 3.11.07 3.52-3.01 2.14-15.97 2.72-19.97c.61-4.2 2.96-3.52 6.66-3.47q13.27.2 17.84.06 4.93-.15 6.07 4.56.03.15 2.58 13.7.75 4.03 2.45 6.49c2.41 3.47 8.58 2.52 13.47 2.22q4.93-.3 5.68-5.33 1.09-7.39 2.81-18.18.55-3.42 4.11-3.39 7.59.07 22.57.02 1.25-.01 2.71.29a1.558 1.552.578 0 1 1.22 1.24l4.36 23.24a2.04 2.028 84.109 0 0 2.03 1.66q8.13-.1 17.23-.01 2.5.03 2.89-2.02c1-5.42 1.18-10.03 2.03-15.78q1.87-12.62 3.75-26.06.33-2.39 1.5-3.83a1.493 1.492 43.977 0 1 2.29-.04q3.28 3.78 4.29 8.84c4.71 23.65 8.96 44.76 11.9 67.77 3.38 26.47 1.3 54.94-4.19 80.02q-2.26 10.3-5.38 23.87c-2.78 12.07-13.9 14.16-24.39 15.14q-23.84 2.24-47.68-4.86-13.34-3.97-23.18-7.06c-18.35-5.77-38.75-5.3-57.31-2.51q-9.59 1.44-14.14-6.73c-7.78-13.96-15.92-26.82-26.98-38.57q-24.99-26.56-60.43-36.56c-40.34-11.37-82.26-8.39-118.29 13.56q-31.17 18.99-50.46 50.71-4.24 6.97-8.2 14.3-2.66 4.9-8.15 3.59c-12.37-2.96-24.44-4.51-36.95-2.86q-15.3 2.01-24.15 4.8-21.5 6.76-26.32 8.15-24.89 7.17-49.98 3.22c-12.34-1.95-17.17-7.04-20.14-18.59q-5.89-22.92-8.11-47.13-5.65-61.62 11.36-120.84 1.36-4.73 4.83-7.68m411.501 89.186l9.1.048a2.13 2.13 81.965 0 0 2.141-2.119l.08-15.29a5.02 4.49-89.7 0 0-4.463-5.043l-4.38-.023a5.02 4.49-89.7 0 0-4.516 4.996l-.081 15.29a2.13 2.13-84.194 0 0 2.119 2.141m123.731-22.193l-8.479.074a1.65 1.65 15.502 0 0-1.636 1.665l.154 17.569a3.1 3.05 89.5 0 0 3.076 3.073l5.68-.049a3.1 3.05 89.5 0 0 3.023-3.127l-.153-17.569a1.65 1.65 80.713 0 0-1.665-1.636m-67.462.797v22.05a.502.492-5.767 0 0 .6.48q5.53-1.16 7.09-1.4c3.98-.6 3.7-4.14 3.9-7.64q.32-5.64-.8-12.6a1.172 1.169-2.16 0 0-1.07-.99l-8.84-.71a.815.813 2.281 0 0-.88.81m-422.318 1.39l-.064 18.14a1.86 1.86 11.358 0 0 1.854 1.866l6.41.022a3.75 3.43-89.8 0 0 3.443-3.738l.05-14.36a3.75 3.43-89.8 0 0-3.417-3.761l-6.41-.023a1.86 1.86-5.077 0 0-1.866 1.854m68.706.202a2.09 2.09 0 0 0-2.072-2.108l-7.659-.067a2.09 2.09 0 0 0-2.108 2.072l-.157 17.939a2.09 2.09 0 0 0 2.072 2.108l7.659.067a2.09 2.09 0 0 0 2.108-2.072zm57.449 1.227a3.1 3.1 0 0 0-3.018-3.18l-5.718-.15a3.1 3.1 0 0 0-3.18 3.018l-.418 15.934a3.1 3.1 0 0 0 3.018 3.18l5.718.15a3.1 3.1 0 0 0 3.18-3.018z" fill="#fff"/><path d="M269.37 201.56q3.55 3.38 5.41 7.08c1.5 3.01 0 7.6-3.71 8.48q-3.24.76-6.23-1.54c-5.39-4.15-1.83-10.61 2.23-14.08a1.717 1.713-43.427 0 1 2.3.06m517.78 102.07a.617.614 68.873 0 1-1.01-.45q-1.03-27.34-19.07-48.04-8.04-9.23-16.02-16.41-3-2.7-5.6-5.31a1.277 1.274-40.618 0 1 .15-1.93q2.6-1.9 10.26-6.66c4.17-2.59 8.91 2.7 11.28 5.78q12.66 16.43 28.68 37.56 1.13 1.5 2.71 2.13a1.623 1.603-40.012 0 0 .99.08q3.19-.75 4.22-3.36 2.77-7.06-1.12-13.35-10.37-16.78-20.72-27.83-7.87-8.41-18.77-13.71-2.1-1.03-3.92-2.91a.61.606-28.648 0 1 .3-1.01l26.47-6.53a2.529 2.507-24.881 0 1 2.63.95c11.14 15.23 21.05 30.94 28.14 48.39 5.17 12.71 4.42 24.06-6.59 33.43q-4.08 3.47-23.01 19.18M111.37 353.1a.549.549 69.856 0 0 .44-.95q-2.4-2.19-6.08-3.89-1.47-.67-13.9-5.82c-4.91-2.03-11.24-6.05-8.63-12.01q1.64-3.74 6.04-2.11 26.05 9.67 26.46 9.79 3.46.98 5.16.93a.82.818 79.593 0 0 .75-1.09c-1.18-3.31-7.64-6.48-11.52-8.53q-.58-.3-14.14-7.09c-5.96-2.99-5.11-8.98-1.37-13.41a1.812 1.805 33.678 0 1 2.22-.44l31.51 16.18a1.271 1.228-37.612 0 0 .89.1q1.97-.49 2.32-2.59.68-4.17-2.92-7.07c-5.89-4.75-14.01-8.59-19.69-11.28-5.15-2.45-9.67-5.29-5.79-11.78 2.07-3.45 4.72-3.14 8.24-1.59q6.77 2.98 19.01 8.66 5.26 2.44 10.61 1.4a.54.531-14.018 0 0 .41-.67c-.46-1.56-1.52-3.65-2.72-5.03-4.06-4.64-7.96-9.16-8.2-15.29-.35-9.11 5.55-20 16.09-19.53 6.02.27 13.93.87 19-1.87a1.545 1.545-29.723 0 0 .59-2.16q-2.74-4.51-6.82-8.3-10.39-9.65-29.17-26.57-4.35-3.92-7.06-6.74a2.818 2.816-54.073 0 1-.51-3.2q1.61-3.3 6.04-5.35a1.6 1.6-37.82 0 1 1.67.21l59.49 48.49a1.69 1.679 36.234 0 1 .35 2.22c-5.82 9.08-7.88 13.92-.33 23.04a4.293 3.981-81.503 0 1 .41.6c4.01 7.19.71 14.71-3.99 20.63q-3.71 4.69-9.5 5.02c-3.77.21-8.99-.7-12.65.34q-5.54 1.57-8.4 7.36-3.4 6.9-6.44 15.02-22.37 59.66-29.96 122.02-2.32 19.09-2.8 39-.2 8.27.39 13.44.49 4.34 5.31 5.94 6.19 2.04 10.09 3.53 23.23 8.86 27.26 33.21 2.08 12.53.39 24.7a.713.71-74.897 0 1-.97.56c-6.93-2.79-12.63-.14-19.31.93a3.769 3.767 76.939 0 1-4.2-2.62l-.93-3.04a3.001 2.994-15.556 0 1 2.14-3.78q.45-.11 10.32-3.42 2.02-.67 1.63-2.94-2.27-13.35-9.19-24.37-3.84-6.12-10.63-7.18-6.12-.95-18.53-1.45-15.66-.63-31-.09-4.33.15-4.78-4.13-.35-3.34.01-5.41a3.218 3.208-7.194 0 1 1.86-2.39c5.54-2.46 11.86-2.86 17.96-3.65a1.491 1.484 19.371 0 0 .86-.41q1.38-1.33 1.54-3.7 3.08-45.19 6.3-84.1a2.039 2.027 11.721 0 0-1.38-2.09q-1.54-.52-2.75-.7-13.75-1.99-24.5-3.61c-6.98-1.05-11.68-1.36-10.54-9.46.82-5.87 4.98-5.75 10.13-4.89q21.55 3.61 27.7 4.47 2.22.31 3.74-.24a1.384 1.377-23.381 0 0 .77-1.93c-2.33-4.57-8.79-6.42-13.91-7.69q-15.14-3.74-16.99-4.26c-5.34-1.49-8.32-3.33-6.43-9.45 1.83-5.95 8.61-4.13 12.89-3.01q15.13 3.96 28.02 6.36a1.994 1.985-77.976 0 0 2.3-1.5q1.33-5.59 2.82-10.76.72-2.49-1.79-3.22-20.77-6.07-29.22-8.51c-5.43-1.56-10.2-2.59-7.75-9.03q1.5-3.95 6.48-2.89c9.31 1.99 18.94 4.92 28.78 6.13m61.135-64.36a5.7 5.7 0 0 0-2.317-7.721l-13.823-7.443a5.7 5.7 0 0 0-7.721 2.316l-.209.388a5.7 5.7 0 0 0 2.317 7.721l13.823 7.443a5.7 5.7 0 0 0 7.721-2.316zm83.015-74.71l5.39 7.26a1.975 1.971 46.461 0 1-.06 2.43l-4.94 6.08a1.873 1.87-53.671 0 1-2.48.38c-2.98-1.95-7.46-6.1-4.88-9.78q2.43-3.46 5.86-6.48a.76.753-39.104 0 1 1.11.11" fill="#1201fc"/><path d="M276.76 364.64a.284.282 33.077 0 1-.11-.51q5.29-3.6 6.62-4.63c4.23-3.26 4.71-7.04 4.67-12.61q-.18-29.14-.1-52.64.02-4.87-.83-9.27a3.21 3.21 4.768 0 0-2.04-2.41q-1.88-.7-4.48-.45-4.16.4-8.17.45a1.273 1.273-69.713 0 1-.97-2.11q1.42-1.63 4.59-3.04l30.86-14.39q1.26-.59 3.64-1.16a.651.65-6.272 0 1 .8.64q-.44 41.15.07 88.24c.08 7.35 4.03 9.87 9.94 12.73a.784.784-51.975 0 1 .16 1.31q-.1.08-.59.07-19.09-.2-43.07.01-.07 0-.49-.11-.23-.06-.5-.12" fill="#fff"/><path d="M861.4 449.15c4.81.32 8.31-2.52 9.55-7.5q2.82-11.31.17-21.27c-8.29-31.12-15.21-56.91-22.43-80.93-2.9-9.63-7.94-18.59-12.77-25.64q-.48-.69-1.23-2.42a1.263 1.261 73.663 0 1 .96-1.76q8.08-1.25 18.19-1.03c4.72.11 5.19-.42 6.44 3.9 6.64 22.94 16.39 55.91 24.01 86 3.22 12.71 5.33 23.21 5.52 35.28q.11 7.36-.77 10.92c-1.88 7.64-6.75 15.06-13.68 19-6.76 3.84-12.09 7.74-12.5 15.82q-.52 10.2-.73 14.21c-.31 6.11 3.51 5.86 8.79 6.15q10.52.59 14.58.94a2.134 2.134 89.836 0 1 1.93 1.92q.61 5.94.67 8.27c.14 4.82-2.69 4.31-6.77 4.19q-11.48-.36-28.33-.23-2.51.02-4.02-.33a2.067 2.062 4.083 0 1-1.59-1.83c-1.76-20.82-2.44-47.99-5.25-70.64q-8.43-68.07-38.16-129.64c-2.55-5.28-4.09-12.01 2.31-15.53q20.3-11.17 61.33-34.63 2.11-1.21 3.1.87c1.3 2.74 4.43 9.19.19 11.46q-18.02 9.64-41.19 21.75c-3.41 1.78-7.37 3.71-8.47 7.53a2.104 2.101 47.35 0 0-.04.99q.82 3.91 1.59 5.72c18.81 44.26 33.39 89.47 37.46 137.34a1.225 1.214-.254 0 0 1.14 1.12" fill="#1201fc"/><path d="M557.8 365.81a.438.436 18.516 0 1-.35-.7q9.37-12.33 17.02-22.37c9-11.81 16.95-25.32 20.9-39.54 3.96-14.23-8.82-26.44-22.6-19.1q-2.26 1.21-10.06 6.76a.997.665-56.31 0 1-.12.05l-.78.24a.618.617 84.481 0 1-.8-.66q1.49-12.61 11.09-20.86 12.16-10.46 26.91-5.97c10.12 3.08 19.07 12.23 19.6 22.75.66 12.96-6.92 26.78-15.17 36.3q-8.58 9.89-18.02 19.38a.69.69-63.027 0 0 .38 1.17q9.95 1.54 18.95 1.57c7.16.02 10.98-3.54 15.5-8.44a1.561 1.559-29.67 0 1 2.67.73q.26 1.21-.2 3.37-4.1 19.57-4.75 21.64c-1.26 3.95-4.28 3.59-8.21 3.62q-1.38.01-51.96.06m-210.87.21a.712.706 50.768 0 1 .12-1.24q10.6-4.38 19.31-11.68 11.28-9.46 14.63-23.93a.67.67-85.911 0 0-.71-.82q-2.21.21-6.19.69c-15.31 1.87-26.41-4.51-31.03-19.62-6.08-19.89 3.4-40.28 24.04-45.88q8.03-2.18 15.28.57c17.15 6.51 25.05 21.52 25.17 39.42.24 34.58-24.76 62.5-60.04 62.56q-.47 0-.58-.07m34.01-47.63q1.09-1.07 1.72-3.27c3.65-12.65.66-24.78-3.21-37.06-1.34-4.23-2.14-7.44-6.69-7.79-6-.46-6.81 3.82-7.8 8.81-1.83 9.24-1.76 19.14.81 28.11 2.08 7.24 5.82 13.4 14.04 11.79a2.286 2.273-72.413 0 0 1.13-.59m272.99-3.15a.645.645 34.35 0 1-.19-1.01q1.42-1.56 8.25-7.15c7.63-6.25 12.72-13.9 5.73-23.1-4.87-6.4-12-6.07-18.45-2.46q-2.56 1.43-12.95 7.93a.592.59-6.052 0 1-.87-.7q4.06-11.15 11.87-17.89c12.66-10.93 29.54-11.58 40.89 1.69q7.3 8.55 3.25 19.43c-1.32 3.55-5.17 7.1-7.96 9.58a1.679 1.671-42.011 0 0-.13 2.38q2.88 3.15 6.31 7.14c9.8 11.42 10.83 26.44 2.49 38.91q-11.28 16.87-32.18 16.75-7.07-.04-16.03-1.01-7.58-.83-10.87-8.02-1.57-3.43-.3-5.54c1.54-2.54 2.87-4.18 6.18-4.05 7.35.29 11.14 2.51 17.28 7.2a5.751 5.226 72.516 0 0 1.08.63c6.95 3.1 16.01 4.57 19.45-3.95q5.31-13.15-2.94-23.78c-5.26-6.78-12.86-9.39-19.91-12.98" fill="#fff"/><path d="M379.81 318.98c-8.22 1.61-11.96-4.55-14.04-11.79-2.57-8.97-2.64-18.87-.81-28.11.99-4.99 1.8-9.27 7.8-8.81 4.55.35 5.35 3.56 6.69 7.79 3.87 12.28 6.86 24.41 3.21 37.06q-.63 2.2-1.72 3.27a2.286 2.273-72.413 0 1-1.13.59M80.306 272.392a.519.515-47.163 0 1 .773-.033q2.817 2.907 4.976 6.542 2.28 3.848-.61 7.298c-1.238 1.48-4.291 3.946-6.289 2.532-2.694-1.894-5.401-6.537-3.376-9.88q2.203-3.622 4.526-6.459" fill="#1201fc"/><path d="M172.296 289.128a5.7 5.7 0 0 1-7.721 2.316l-13.823-7.443a5.7 5.7 0 0 1-2.317-7.721l.209-.388a5.7 5.7 0 0 1 7.721-2.316l13.823 7.443a5.7 5.7 0 0 1 2.317 7.721z" fill="#fff"/><path d="M890.27 328.59a.784.783 88.821 0 1 .92-.96q5.32 1.15 6.73 6.44 6.89 25.89 17.47 66.53.65 2.48-.7 4.2a1.894 1.723 39.672 0 1-2.63.12c-2.08-1.82-3.39-3.81-4.16-6.84q-11.02-43.26-17.63-69.49M55.895 369.527q-2.737.113-5.306-2.884-2.857-3.334-.354-7.062 2.224-3.314 4.444-6.18.188-.242.523-.256.364-.015.571.21 2.449 2.674 4.938 5.795 2.801 3.509.228 7.067-2.314 3.198-5.044 3.31m1.365 10.74c.001.026-.017.223-.05.265-1.86 2.358-5.81 5.438-8.23 6.268-3.07 1.06-6.77-3.69-8.125-6.1q-.01-.018-.013-.211t.007-.21c1.289-2.446 4.859-7.295 7.957-6.319 2.442.765 6.474 3.736 8.397 6.043.034.042.057.238.057.264m91.69 59.218q.002.418-.134.57-3.606 4.035-7.506 6.015-1.88.96-4.106-.534-3.865-2.58-3.879-5.986t3.829-6.019q2.214-1.512 4.102-.567 3.916 1.947 7.555 5.953.138.151.139.568m-13.62 8.235a.525.521-49.15 0 1 .78-.06q2.95 2.84 5.26 6.44 2.44 3.81-.36 7.4c-1.2 1.54-4.2 4.14-6.27 2.78-2.79-1.82-5.69-6.42-3.76-9.87q2.1-3.74 4.35-6.69m466.131 24.436a2.13 2.13-59.975 0 1-2.119-2.141l.081-15.29a5.02 4.49-89.7 0 1 4.516-4.996l4.38.023a5.02 4.49-89.7 0 1 4.463 5.043l-.08 15.29a2.13 2.13-64.44 0 1-2.141 2.119zm123.731-22.193a1.65 1.65-57.746 0 1 1.665 1.636l.153 17.569a3.1 3.05 89.5 0 1-3.023 3.127l-5.68.049a3.1 3.05 89.5 0 1-3.076-3.073l-.154-17.569a1.65 1.65 39.014 0 1 1.636-1.665zm-66.582-.013l8.84.71a1.172 1.169-2.16 0 1 1.07.99q1.12 6.96.8 12.6c-.2 3.5.08 7.04-3.9 7.64q-1.56.24-7.09 1.4a.502.492-5.767 0 1-.6-.48v-22.05a.815.813 2.281 0 1 .88-.81m-423.198 2.2a1.86 1.86 35.408 0 1 1.866-1.854l6.41.023a3.75 3.43-89.8 0 1 3.417 3.761l-.05 14.36a3.75 3.43-89.8 0 1-3.443 3.738l-6.41-.022a1.86 1.86 37.149 0 1-1.854-1.866zm68.549 18.141a2.09 2.09 0 0 1-2.108 2.072l-7.659-.067a2.09 2.09 0 0 1-2.072-2.108l.157-17.939a2.09 2.09 0 0 1 2.108-2.072l7.659.067a2.09 2.09 0 0 1 2.072 2.108zm57.188-.778a3.1 3.1 0 0 1-3.18 3.018l-5.718-.15a3.1 3.1 0 0 1-3.018-3.18l.418-15.934a3.1 3.1 0 0 1 3.18-3.018l5.718.15a3.1 3.1 0 0 1 3.018 3.18zm559.966 8.726q-.022.239-.885.961-3.46 2.9-8.02 4.72a3.297 3.289 53.684 0 1-3.321-.511q-4.25-3.504-3.957-6.671t5.116-5.829a3.297 3.289-43.088 0 1 3.358.108q4.148 2.627 7.016 6.114.715.868.693 1.108" fill="#1201fc"/><path d="M482.46 513.27c-.11-3.32 1.5-6.4 4.8-7.16q16.01-3.69 28.98-7.16 10.05-2.69 15.03-3.72c5.74-1.18 10.6.93 15.8 4.6q18.71 13.18 34.29 26.31 5.28 4.45 6.26 11.58 1.15 8.31 1.19 13.54.19 22.77-.15 27.97c-.5 7.68-6.6 10.72-13.07 12.88q-16.38 5.49-28.15 10.31c-5.95 2.43-10.72-1.2-15.83-5.14q-21.01-16.2-42.18-32.06-5.05-3.77-5.1-10.29-.07-10.03-.95-17.39c-1-8.4-.65-16.81-.92-24.27" fill="#fff"/><path d="M919.74 501.701q.004.366-.229.566-2.761 2.373-5.971 4.773-3.61 2.7-7.1.006-3.136-2.424-3.163-5.167-.027-2.75 3.062-5.235 3.437-2.761 7.099-.132 3.256 2.337 6.062 4.656.237.196.24.533" fill="#1201fc"/><path d="M474.99 506c3.07.58 4.8 3.06 4.62 6.27q-1.49 26.6-1.7 36.96c-.17 8.21-1.38 12.72-7.74 17.44q-15.91 11.83-44.7 33.58-5.42 4.1-11.43 1.93-18.97-6.84-34.55-12.15c-3.82-1.31-6.14-2.87-6.11-7q.31-39.77.37-42.52.25-10.45 8.54-17.75 9.65-8.51 19.26-15.46c5.91-4.28 12.02-8.45 18.35-10.22q6.57-1.85 14.96-1.36 4.33.25 13.6 3.39 12.7 4.29 26.53 6.89" fill="#fff"/><path d="M843.7 539.05a1.576 1.573 4.749 0 0 1.17 1.38q20.29 5.41 39.15 9.78 17.87 4.14 31.48 6.34 8.27 1.34 6.35 9.82c-.48 2.13-1.11 3.8-3.48 4q-2.63.23-3.69-.01-81.29-18.29-96.63-21.46-2.52-.52-2.17-3.05 1.62-11.91 2.96-24.47a1.353 1.346-86.708 0 1 1.35-1.21q1.67.01 3.59.26 41.89 5.38 90.85 12.68c2.35.36 6.64 1.38 8.32 3.43q4.23 5.16 1.55 11.02a2.116 2.109 16.107 0 1-2.22 1.22l-77.58-10.81a.893.891.507 0 0-1.01.99zm-687.33 60.6l-7.3 5.42a3.409 3.396 49.858 0 1-4.49-.39l-4.12-4.35a.817.813 30.621 0 0-1.38.35c-3.09 11.86-13 16.8-24.41 18.44-18.08 2.59-36.57-2.29-53.25-8.8a1.337 1.335 38.203 0 1-.28-2.34q.05-.03 1.14-.03c15.64.12 31.88.25 47.76-1.01 9.2-.73 11.55-4.14 8.37-12.85q-8.79-24.09-10.24-27.72-.65-1.64-1.56-3.14a1.413 1.413 55.612 0 0-2.08-.39q-6.46 5.06-13.8 12.12-2.78 2.67-10.31 7.71c-7.61 5.08-17.25 3.38-22.42-4.02q-5.39-7.71-.02-17.65 5.8-10.74 11.98-19.51 2.06-2.93 4.28-3.45c2.85-.67 7.98 2.64 10.31 4.41a3.038 3.033 22.979 0 1 1.18 2.91q-.23 1.45-1.44 3.43-1.25 2.07-9.3 14.21-.68 1.02-.6 1.65a2.258 1.944-6.115 0 0 2.42 1.67c4.27-.4 10.66-7.06 13.68-10.33 8.05-8.74 14.01-15.53 21.87-21.62q1.49-1.15 2.46-1.22a2.838 2.473 71.858 0 1 2.5 1.49q2.12 3.91 3.23 7.34 7.18 22.37 15.28 44.51c1.2 3.28 1.78 6.47 2.51 9.61a1.518 1.513-28.345 0 0 2.52.75l4.47-4.23a1.07 1.07 46.538 0 0 .04-1.5l-4.98-5.25a1.316 1.31-53.464 0 1-.22-1.5q2.2-4.33 6.41-6.09a2.88 2.877-37.173 0 1 2.92.4l5.62 4.52a2.02 2.02-49.27 0 1 .22 2.96q-1.08 1.15-4.83 4.04c-1.79 1.39-1.42 2.73.35 3.93q4.17 2.83 5.61 4.41a.748.747-39.891 0 1-.1 1.11m653.17-32.9q-.56-3.32.52-6.52c1.41-4.16 5.36-3.04 9.04-2.23q36.69 8.02 87.92 19.38 7.18 1.59 8.59 3.22 2.85 3.3 1.24 8.93a2.014 2.01 14.29 0 1-2.38 1.41L810.25 567.5a.917.911-88.642 0 1-.71-.75" fill="#1201fc"/><path d="M192.01 586.07c6.88.51 16.86 3.09 24.72 3.4q14.81.59 29.56-3.2c14.75-3.8 31.52-10.27 48.46-13.36q21.36-3.9 40.43 2.17 2.33.74 3.97 1.94a3.306 3.287-69.231 0 1 1.34 3q-.55 5.36-4.04 6.41-1.46.44-7.62-1.32-17.73-5.06-36.61-.62c-18.6 4.38-37.15 12.14-55.79 14.98q-13.38 2.04-30.68.04-7.68-.89-10.14-3.14-3.76-3.44-3.91-10.01a.292.282.955 0 1 .31-.29m575.72 1.5a1.355 1.352-80.718 0 1 .99 1.38c-.5 8.56-6.85 9.75-13.95 10.63-16.13 2-32.1-.3-47.82-4.57q-4.32-1.17-24.76-7.66c-14.64-4.64-30.69-6.6-45.65-3.66-3.56.7-7.11 2.04-9.69 2.93a3.087 3.083 75.149 0 1-4.04-2.35l-.53-2.79a4.497 4.486 71.682 0 1 2.43-4.85c12.82-6.29 30.28-5.82 44.22-3.01 15.11 3.05 29.98 8.81 45.36 12.83q15.85 4.14 32.43 2.94 3.77-.27 19.27-1.94.96-.1 1.74.12m-563.14 27.61a1.103 1.086-19.558 0 1 .64-1.32q2.15-.91 4.53-.91 10.59 0 15.47-.29c11.01-.66 24.04-3.79 35.41-6.68 16.64-4.23 36.61-8.5 47.59-10.55q10.15-1.9 21.36 1.71 5.63 1.82 4.59 6.66-.45 2.04-1.6 2.81-1.66 1.09-3.12.77-13.6-2.97-24.08-2.01c-7.42.67-14.73 2.08-22.88 4.3q-37.99 10.37-55.24 14.3c-6.55 1.49-20.24-.44-22.67-8.79m524.78 48.38l-1.26 1.2a8.839 8.83 30.852 0 1-8.39 2.11q-17.5-4.76-54.27-14.57-9.36-2.49-16.88-1.69-11.33 1.21-19.57 5.35c-2.67 1.33-4.46 4-5.89 7.01q-4.63 9.78-14.48 31.21c-2.3 5.01-4.66 8.6-8.41 12.15a3.993 3.972-64.473 0 1-3.03 1.08c-13.7-1.02-27.88 2.21-42.08 5.74q-.55.14-4.1.58c-5.31.66-6.32-1.91-8.94-6.4q-11.78-20.28-16.52-28.63-2.63-4.64-1.21-9.58 7.46-25.87 15.02-51.47c1.69-5.7 6.6-8.97 12.73-10.97q7.45-2.43 31.47-11.21c6.75-2.46 8.78 1.47 12.61 7.14q20.44 30.28 25.38 37.82 2.72 4.14 6.9 3.29 4.19-.86 7.22-1.53c13.42-2.95 28.34-1.44 41.88 2.28 5.99 1.65 15.14 4.72 22.11 6.6q25.01 6.75 28.48 7.68a2.846 2.842 30.693 0 1 1.23 4.81M627.2 606.78l-.72-5.07a3.405 3.382 66.092 0 1 1.18-3.09q.96-.81 3.97-1.51 22.22-5.23 45.57 1.44 4.27 1.22 29.12 8.08 14.88 4.1 29.67 5.75 2.73.3 18.3-.42.91-.04 3.45.14a.825.816 83.081 0 1 .72.57c1 3.2-3.11 7.87-5.65 9.1q-2.19 1.07-6.73 1.3-12.72.63-22.65-1.49c-17.64-3.77-38.57-10.21-57.74-14.26-12.4-2.62-24.64-1.79-37.05.5a1.233 1.231 80.796 0 1-1.44-1.04" fill="#fff"/><path d="M390.15 734.78q2.34.31 3.77 1.37 12.73 9.53 23.26 14.4 16.88 7.81 28.85 10.89.47.12.86-.09a.492.482-30.194 0 0 .19-.69c-5.76-9.12-11.3-18.03-17.41-26.48-4.43-6.1-8.94-11.59-4.93-18.45q13.42-22.89 16.64-28.07c4.03-6.48 9.29-7.89 16.87-7.83q17.93.14 49.5.13 7.78-.01 12.18 7.17 12.18 19.9 17.02 29.14 3.02 5.77-.81 11.72-10.36 16.11-19.09 31.82a.551.55 9.925 0 0 .57.81q3.72-.61 7.97-2.02 32.42-10.77 56.67-34.38a.803.798-40.473 0 1 1.19.09l.01.03a1.026 1.016-42.676 0 1-.06 1.32q-6.2 6.79-15.69 14.53c-16.7 13.63-35.56 21.92-56.56 26.36q-47.17 9.96-90.78-10.36-16.1-7.5-29.19-17.53-1.87-1.43-2-3.04a.68.68 5.611 0 0-.62-.62q-1.66-.17-3.53-1.79-28.24-24.52-42.43-59.18-1.05-2.56-2.3-6.77c-2.91-9.78-10.33-13.72-20.66-15.53q-7.71-1.34-14.75-.87c-6.27.41-14.75 2.34-22.58 4.5q-19.79 5.45-38.08 10.35c-2.78.74-5.98 1.74-8.28.09q-2.9-2.08-3.89-5.24a1.523 1.523-18.808 0 1 .93-1.89q3.08-1.13 7.21-2.21 25.47-6.67 58.21-14.04 7.89-1.78 12.14-1.85 6.14-.08 12.32.52.61.06 11.17 2.33c3.3.71 5.47-1.44 7.44-4.48q21.83-33.73 21.89-33.82 3.11-4.99 6.27-8.46c2.33-2.57 7.09-1.74 10.51-.52q19.18 6.82 34.52 12.43 5.54 2.02 7.46 8.56 10.18 34.48 14.83 48.93 2.15 6.66-.91 12.51-8.02 15.37-16.8 29.42-1.66 2.66-3.43 4.09c-2.79 2.24-8.6 1.21-11.64.55q-12.81-2.79-28.02-5.76-5.11-.99-10.15-.75a.846.846 69.857 0 0-.63 1.36q11.08 14.46 23.62 25.01.36.3.53 1.67a.716.716 7.036 0 0 .62.62" fill="#fff"/><path d="M332.45 631.4q-8.71-2.06-11.9-2.49c-11.65-1.57-24.32.03-35.6 3.06q-9.61 2.58-27.88 7.83-12.71 3.65-31.68 6.06a7.788 7.782-22.037 0 1-7.23-3.06l-.05-.07a3.093 3.093-25.765 0 1 1.69-4.84q7.9-2.07 50.08-12.72 17.68-4.47 27.65-6.36 4.67-.89 9.23-.8 12.18.24 20.37 1.41 9.17 1.3 6.56 11.23a1.038 1.033 13.692 0 1-1.24.75m295.93-1.2c-1.68-4.44-1.22-9 4.17-10.16q23.5-5.04 46.54 1.87c23.98 7.19 42.64 13.41 65.42 14.05a1.123 1.121-82.791 0 1 1.06 1.37q-2.14 9.7-11.75 8.48-5.59-.7-21.71-4.65-2.18-.54-40.65-10.53-20.68-5.36-41.22.51a1.54 1.533 71.688 0 1-1.86-.94" fill="#fff"/><path d="M794.65 665.32a.837.836-74.676 0 0-1.35.77q.44 3.2 2.84 8.52 15.44 34.26 29.98 65.82 1.58 3.43.68 9.27-.5 3.25-4.21 7.46c-3.53 4.01-6.96 10.81-11.12 14.18q-6.63 5.39-15.52 3.19-33.89-8.38-65.68-14.6-4.28-.84-8.27.24a.755.754-29.368 0 0-.35 1.25q2.54 2.64 5.83 5.37 28.1 23.2 51.17 41.53a2.048 2.043-51.383 0 1 .32 2.89q-5.22 6.48-9.34 11.91-3.53 4.64-5.2 5.61c-4.74 2.76-8.03-.9-12.01-4.14q-40.35-32.76-67.78-54.72c-2.8-2.25-.82-4.02 1.11-6.3q12.16-14.39 26.73-32.47c2.68-3.33 5.79-3.33 10.09-2.49q8.87 1.73 9.45 1.86 34.27 7.66 62.48 14.05 1.72.39 3.91.19a1.165 1.164 84.872 0 0 1.06-1.27q-.05-.54-.56-1.69-7.14-16.25-30.95-69.68-1.39-3.11-.56-7.35.53-2.7 3.59-6.45 10.82-13.29 21.81-27.71 1.81-2.37 4.12-.49 41.83 34.1 75.25 60.5 2.57 2.03.38 4.7-7.55 9.21-15.06 19.03a1.073 1.071 38.217 0 1-1.53.18zm-571.59 33.23a2.229 2.22 54.913 0 1-.47 2.72q-23.22 20.77-43.51 39.8c-8.09 7.59-11.83 17.52-6.09 27.74q8.41 14.95 23.32 23.91c10.86 6.53 19.44 2.61 27.99-5.16q9.69-8.82 27-24.76 8.21-7.55 15.16-13.15a1.884 1.881-41.121 0 1 2.54.17l22.48 23.72a1.906 1.899 40.813 0 1 .18 2.4q-.31.43-1.07 1.15c-11.61 10.93-30.66 28.02-47.34 41.65-14.47 11.81-29.4 13.47-45.51 3.63-23.56-14.4-42.53-34.49-54.43-59.69-6.18-13.06-6.49-26.98 2.35-38.8 3.13-4.18 6.33-7.59 10.61-11.37q24.98-22.05 41.75-37.23 2.07-1.87 3.85.1 9.97 11.06 20.68 22.33.13.13.51.84" fill="#1201fc"/><path d="M589.787 717.394a1.66.57-38.6 0 1-.941 1.481 1.66.57-38.6 0 1-1.653.591 1.66.57-38.6 0 1 .941-1.481 1.66.57-38.6 0 1 1.653-.591" fill="#fff"/><path d="M540.34 846.85a1.866 1.863-2.119 0 1-1.87 2.01q-12.08-.05-24.97-.1c-3.88-.01-5.89-.68-8.73-3.11-7.63-6.56-16.71-10.15-26.7-9.82-7.31.25-23.97 3.4-20.04 14.35a3.028 3.019-80.587 0 0 .97 1.36c4.79 3.78 11.54 5.26 17.75 6.46q3.7.72 30.77 5.47 11.91 2.09 21.01 5.32c13.62 4.83 18.39 18.4 15.31 31.81-1.97 8.57-8.05 13.58-15.72 17.25-14.98 7.15-31.03 8.44-47.62 8.97q-17.64.56-33.97-3.36c-8.51-2.04-20.01-7.11-24.91-14.68q-4.86-7.49-4.42-16.91a1.684 1.682-88.398 0 1 1.69-1.6q16.33.15 20.52.04c6.81-.17 11.64.56 16.22 4.84 4.74 4.44 7.85 7.9 14.57 10.66 6.96 2.87 15.09 2.71 22.7 1.33 6.38-1.16 13.13-5.17 13.63-11.9a2.695 2.588 38.641 0 0-.14-1.06c-2.18-6.28-7.8-8.07-13.81-9.06q-14.36-2.36-31.07-5.4-11.4-2.08-22.49-5.98c-7.69-2.71-14.68-6.01-17.74-13.99-3.04-7.96-2.62-17.87 2.99-24.69q2.5-3.02 7.9-6.01 10.32-5.71 21.09-8.33 8.55-2.08 22.58-1.92 20.52.24 37.47 2.55 2.92.4 7.54 1.64c11.26 3.03 18.59 12.48 19.49 23.86" fill="#1201fc"/></g></svg>