<svg viewBox="0 0 146.14 187.09" xmlns="http://www.w3.org/2000/svg" xmlns:xlink="http://www.w3.org/1999/xlink"><filter id="a" color-interpolation-filters="sRGB"><feColorMatrix result="color1" type="hueRotate" values="180"/><feColorMatrix result="fbSourceGraphic" values="-1 0 0 0 1 0 -1 0 0 1 0 0 -1 0 1 -0.21 -0.72 -0.07 2 0"/><feColorMatrix in="fbSourceGraphic" result="fbSourceGraphicAlpha" values="0 0 0 -1 0 0 0 0 -1 0 0 0 0 -1 0 0 0 0 1 0"/><feColorMatrix in="fbSourceGraphic" result="color1" type="hueRotate" values="180"/><feColorMatrix result="fbSourceGraphic" values="-1 0 0 0 1 0 -1 0 0 1 0 0 -1 0 1 -0.21 -0.72 -0.07 2 0"/><feColorMatrix in="fbSourceGraphic" result="fbSourceGraphicAlpha" values="0 0 0 -1 0 0 0 0 -1 0 0 0 0 -1 0 0 0 0 1 0"/><feColorMatrix in="fbSourceGraphic" result="color1" type="hueRotate" values="180"/><feColorMatrix result="color2" values="-1 0 0 0 1 0 -1 0 0 1 0 0 -1 0 1 -0.21 -0.72 -0.07 2 0"/></filter><g clip-rule="evenodd" fill-rule="evenodd" filter="url(#a)" transform="translate(-23.309 -2.834)"><path d="m169.445 12.338c0-5.24-4.24-9.504-9.455-9.504h-127.225c-5.214 0-9.456 4.264-9.456 9.504v142.728h.01c.198 10.004 8.294 19.062 22.859 25.545 13.489 6.004 31.317 9.311 50.199 9.311s36.708-3.307 50.198-9.311c14.564-6.482 22.662-15.541 22.859-25.545h.01z" fill="#fff"/><path d="m32.764 7.719c-2.525 0-4.57 2.068-4.57 4.619v13.085c0 2.551 2.046 4.619 4.57 4.619h127.222c2.523 0 4.57-2.068 4.57-4.619h-.001v-13.085c0-2.551-2.047-4.62-4.57-4.62zm0 28.147c-2.524 0-4.57 2.105-4.57 4.704v114.492h.011c.105 3.873 1.841 7.568 4.913 10.96l21.318-45.717h15.464l-25.25 54.147c2.632 1.363 5.528 2.622 8.66 3.76l14.486-31.066 12.516-26.84h15.463l-28.802 61.764c3.347.715 6.852 1.303 10.474 1.768l.09-.19 29.537-63.343h14.517l-30.145 64.646c1.628.053 3.272.08 4.93.08 37.373 0 67.718-13.384 68.17-29.97h.01v-114.491c0-2.268-1.561-4.161-3.637-4.605l-20.093 43.093h-14.52l20.14-43.191h-11.296l-.162.344-19.979 42.847h-15.463l20.14-43.191h-10.411l-.102.217-20.039 42.974h-15.463l20.14-43.191z"/><g fill="#fff"><path d="m84.253 97.387h-9.019l3.532-8.387q.709-1.684-.872-1.684-1.614 0-2.322 1.684l-8.812 20.932q-.723 1.716.891 1.715 1.58 0 2.298-1.703l3.47-8.24h9.018l-3.515 8.348q-2.886 6.858-13.358 6.857-10.759 0-7.733-7.188l8.608-20.446q3.039-7.219 13.798-7.219 10.471 0 7.571 6.889zm1.303 5.34h9.018l-3.037 7.213q-.72 1.708.831 1.707 1.55.001 2.923-3.262 1.82-4.324.489-5.596-5.6-3.467-6.479-4.832-.88-1.368.271-4.103l1.928-4.58q3.039-7.218 13.515-7.219 10.19 0 7.291 6.889l-2.832 6.729h-8.738l1.904-4.067q1.804-4.289.113-4.289-1.693 0-2.838 2.721-1.166 2.768-1.02 4.182.147 1.415 6.211 4.851 2.24 2.097.795 5.531l-2.156 5.119q-3.025 7.187-13.705 7.188-10.457 0-7.565-6.869zm24.653 0h9.02l-3.039 7.213q-.718 1.708.832 1.707 1.549.001 2.922-3.262 1.822-4.324.49-5.596-5.599-3.467-6.479-4.832-.88-1.368.271-4.103l1.928-4.58q3.038-7.218 13.516-7.219 10.19 0 7.291 6.889l-2.834 6.729h-8.736l1.902-4.067q1.806-4.289.115-4.289-1.694 0-2.84 2.721-1.164 2.768-1.02 4.182.146 1.415 6.213 4.851 2.239 2.097.795 5.531l-2.156 5.119q-3.027 7.187-13.705 7.188-10.459 0-7.566-6.869zm-62.366-82.318q-2.616 0-2.875.371.443.061 1.325.202.954.174.954.663 0 .28-.427.809-1.37 1.701-4.239 1.701-1.268 0-2.105-.449-1.044-.561-1.044-1.707 0-.6.5-1.455.483-.825 1.011-1.168-.158.336-.47 1.017-.266.584-.266 1.061 0 .95.972 1.309.624.23 1.792.23.69 0 1.849-.253 1.371-.303 1.562-.667-.18-.112-.798-.202-.668-.09-.92-.208-.438-.196-.438-.617 0-.92.825-1.531a2.84 2.84 0 0 1 1.735-.562h1.056zm0 0-3.776 5.18-.783.762-.764-.748-.764.748-.755-.754.755-.739.768.748.767-.751.777.734z"/><path d="m56.224 20.409h-1.252q-.163 0-.685-.449-.416.45-.831.449-.247 0-1.117-.449-.685.45-1.348.449-.348 0-.774-.18a33 33 0 0 1 -.741-.337q-.539.517-.881.517h-1.381v-1.459q.135 0 .404.005.27.005.404.005.623 0 .926-.174.343-.191.893-.898 0 .645.342.892.287.208.971.208.78 0 1.128-.369l.651-.981q0 .493-.135 1.031.197.32.764.319.449 0 .769-.481.219-.431.444-.869.095.252.095.459a.7.7 0 0 1 -.048.199.6.6 0 0 0 -.047.183q0 .481.977.481.079 0 .236-.005t.236-.005z"/><path d="m59.665 18.125q0 .865-.706 1.575-.705.71-1.588.71h-1.781v-1.457h2.366q.264 0 .748-.141.573-.162.574-.338 0-.18-.331-.704-.533.396-.987.396-.449 0-.695-.309-.23-.281-.23-.736 0-.534.331-1.191.375-.747.858-.747.118 0 .415.236 1.026.809 1.026 2.706m.201-4.31-.778.751-.764-.736-.775.736-.764-.749.775-.736.757.743.77-.743zm0 0-1.317 3.311v-.186a1.76 1.76 0 0 0 -.528-.582q-.291.192-.359.285-.067.093-.163.421.045.017.258.119.168.08.264.079.141 0 .528-.136zm4.74 6.594h-1.189q-.674 0-1.049-.472-.462-.584-.578-3.438-.035-.82-.035-3.787 0-.37.168-.583l.442-.433v4.719q0 1.511.359 1.978.432.556 1.882.556z"/><path d="m69.115 20.409h-1.269q-.504 0-1.313-.646-.994.646-1.577.646h-.927v-1.457q.831 0 1.578-.083a4.4 4.4 0 0 1 -.063-.708q0-.696.49-1.646.557-1.073 1.188-1.073.422 0 .681.56.214.466.214.93 0 .958-.594 1.815.196.197.764.219a2 2 0 0 1 -.174-.006q.145-.005 1.005-.006v1.455zm-1.653-7.189-.875.852-.882-.846.884-.86zm0 0-.075 4.424q0-.179-.158-.38t-.334-.201a.88.88 0 0 0 -.613.26q-.28.261-.28.573 0 .14.229.358.228.218.37.218.204 0 .495-.31t.292-.518z"/><path d="m79.167 20.409-6.676.011q-1.572 0-2.257-.955-.511.77-.607.831-.18.113-1.038.113v-1.457h.561q.483 0 .696-.134.265-.163.517-.706.112.432.514.733.402.3.856.3.4-.235 1.64-1.145 1.19-.871 1.915-1.275 1.094-.613 1.802-.613.444 0 .8.391t.357.829q0 .427-.359.899-.168.22-.685.73.37.062.977.04l.988-.047v1.455l-1.909-2.362q0-.214-.629-.439-.55-.203-.848-.203-1.134 0-3.178 1.806h.848q.77 0 2.1-.292 1.707-.377 1.707-.872z"/><path d="m81.422 13.015q0 .252-.205.691t-.205.606q0 .377.077 1.115.078.739.078 1.108v1.353q0 .967-.281 1.623-.388.898-1.236.898h-1.125v-1.459l.801.015q1.185.023 1.184-.595 0-3.216-.267-4.804-.403-.45-.472-.747.394-1.066 1.067-1.51l.011.169a.7.7 0 0 1 -.051.258 1 1 0 0 0 -.056.264q0 .231.34.582.34.348.34.433m2.744 4.587q.022 2.267-.658 2.807l-.2-7.748q-.006-.202.795-1.224zm12.455 2.807q-2.617 0-2.875.371.443.061 1.325.202.954.174.955.663 0 .28-.427.809-1.37 1.701-4.239 1.701-1.269 0-2.105-.449-1.044-.561-1.044-1.707 0-.6.5-1.455.483-.825 1.011-1.168-.159.336-.469 1.017-.266.584-.266 1.061 0 .95.972 1.309.624.23 1.792.23.691 0 1.849-.253 1.371-.303 1.562-.667-.18-.112-.797-.202-.667-.09-.921-.208-.438-.196-.438-.617 0-.92.825-1.531a2.84 2.84 0 0 1 1.734-.562h1.056zm0 0-3.777 5.18-.783.762-.763-.748-.764.748-.757-.753.755-.739.769.748.767-.751.777.734z"/><path d="m105.678 17.447q0 1.468-2.094 2.377a8.5 8.5 0 0 1 -3.375.714q-.982 0-1.432-.13-.612-.192-1.141-.832-.467.67-.613.749-.168.084-1.032.084v-1.459l.82.022q.392.01.613-.198.152-.142.354-.561.147.441.527.735.393.31.848.311.618-.354 1.77-1.213t1.785-1.218q1.09-.618 1.814-.618.45 0 .803.396t.353.841m-4.121-2.689-.879.846-.879-.849.881-.863zm0 0 3.135 3.4q0-.219-.611-.443-.545-.202-.832-.202-1.03 0-3.23 1.746h1.713q.54 0 1.68-.354 1.282-.399 1.281-.747zm8.357 5.651h-1.189q-.674 0-1.049-.472-.46-.584-.578-3.438-.035-.82-.035-3.787 0-.37.168-.583l.443-.433v4.719q0 1.511.359 1.978.432.556 1.881.556z"/><path d="m112.188 18.117q-.001 1.276-.629 1.803-.58.489-1.898.489h-.381v-1.457h.42q1.673.023 2.027-.41-.085-.275-.41-.893.214-.382.557-1.163.313 1.27.314 1.631l.512 4.195-.781.763-.764-.748-.764.748-.756-.755.762-.748.758.756.777-.761.768.744z"/><path d="m118.031 20.409h-.484a.64.64 0 0 0 -.312.073q-.108.865-.832 1.881-.815 1.134-1.611 1.134-.59 0-1.229-.354a3.7 3.7 0 0 1 -1.006-.803l.674.163q.416.1.674.101.572 0 1.701-.786 1.168-.809 1.168-1.325 0-.044-.297-.494a11 11 0 0 1 -.361-.567q.181-.403.266-.96.393.39.74.459.112.022.91.022v1.456z"/><path d="m120.477 13.015q0 .252-.205.691t-.205.606q0 .377.078 1.115.076.739.076 1.108v1.353q0 .967-.281 1.623-.387.898-1.236.898h-1.125v-1.459l.801.015q1.186.023 1.186-.595 0-3.216-.268-4.804-.404-.45-.473-.747.395-1.066 1.068-1.51l.012.169a.8.8 0 0 1 -.051.258 1 1 0 0 0 -.057.264q0 .231.34.582.34.348.34.433m2.742 4.587q.024 2.267-.656 2.807l-.201-7.748q-.005-.202.795-1.224zm11.498-1.498q0 .303-.156.639l-.297.583-.23-.23a1.5 1.5 0 0 0 -.291-.157q-.504.146-1.154.651-.756.578-.756.999-.001.404.701.533l1.293.23q.695.22.695.836 0 1.212-1.74 2.188-1.54.864-2.887.864-1.269 0-1.926-.701-.636-.684-.635-1.935 0-.544.27-1.279.31-.842.713-1.032-.323 1.11-.324 1.637 0 1.901 2.229 1.9.786 0 1.953-.403 1.322-.465 1.629-1.021-.351 0-1.061-.028-.618-.039-.986-.264-.44-.268-.441-.853 0-.964 1.035-2.288 1.072-1.379 2.01-1.379l.252.146a.9.9 0 0 1 .104.364l-2.441 8.79-.781.764-.762-.748-.766.748-.764-.764.773-.74.752.754.777-.755.77.741zm5.215 2.561q0 .956-.488 1.494-.516.556-1.482.556-.76 0-.977-.084-.41-.168-.41-.773 0-.078.072-.863.595.311 1.18.311a5.6 5.6 0 0 0 1.039-.118q.797-.162.797-.398 0-.6-.719-1.151-.685-.522-1.309-.522l-.012-1.028a3 3 0 0 1 .08-.775 3 3 0 0 1 1.668 1.308q.56.891.561 2.043m4.769 1.744h-1.189q-.674 0-1.049-.472-.46-.584-.578-3.438-.035-.82-.035-3.787 0-.37.168-.583l.443-.433v4.719q0 1.511.359 1.978.43.556 1.881.556z"/><path d="m148.271 20.409h-1.023q-.393 0-.695-.332-.017-.017-.455-.663-.353.596-.428.679a.9.9 0 0 1 -.705.315h-.9v-1.457q1.248 0 1.635-.157.24-.09.342-.439.123-.41.461-.67 0 .963.42 1.166.208.101 1.35.101v1.457l-1.336-5.098-.881.849-.875-.851.879-.865.877.867z"/><path d="m150.58 13.015q0 .252-.205.691t-.205.606q0 .377.078 1.115.079.739.078 1.108v1.353q0 .967-.281 1.623-.39.898-1.236.898h-1.125v-1.459l.801.015q1.184.023 1.184-.595 0-3.216-.268-4.804-.403-.45-.471-.747.393-1.066 1.066-1.51l.012.169a.7.7 0 0 1 -.051.258 1 1 0 0 0 -.057.264q0 .231.34.582.34.348.34.433m2.744 4.587q.021 2.267-.658 2.807l-.199-7.748q-.005-.202.795-1.224z"/></g></g></svg>