<svg viewBox="0 0 699.67 879.1" xmlns="http://www.w3.org/2000/svg"><clipPath id="a"><path d="M624.3 579.1c-22.4 55.4-59.6 86.7-110.1 128.1-35.7 29.2-89.4 67.9-162.5 102.4-2.2 1-4.7 1-6.9-.1-24-12.1-49.4-26.1-75.7-42.2-33.2-20.3-62.8-41-88.9-61-28.7-18.3-73.6-53.5-101.9-112.9-32.6-68.4-26.2-133.2-22-175.7 4.2-42.2 14-76.2 22-98.8 178.6-.3 357.3-.7 535.9-1 13.7 34.4 30.4 89.8 28.3 158.6-.8 28.2-2.2 62.9-18.2 102.6"/></clipPath><path d="M350.767 30c152.4 0 260.5 64.4 300 90.6-11.2 40.7-16.1 75.8-18.4 102.1-2.9 33.8-5.7 66.6 2.4 108.1 6.5 33.1 12 31.5 20.5 69.2 5.3 23.6 13.3 60.6 8.5 106-5.5 52.4-25.2 89.7-34.8 107.5-29.5 54.6-67.9 86.5-90.8 105.2-27 22-36.6 24.2-101.6 65.6-38.2 24.3-68.7 45.1-88.5 58.8-26-16.8-60-38.9-99.6-65.1-94.4-62.5-113.2-77-134-100-16.9-18.7-47.8-53.5-66.9-108.3-7.2-20.8-31.6-98.3-6.1-180.4 8.1-26.1 15.8-35.1 21.8-67.1 7.3-38.8 4.4-70.3 1.7-97.6-2.5-25.1-7.9-59.5-20.9-99.3 39.3-27.1 148.7-94.6 304.2-95.3zm0-30v30zm0 0h-2.7c-70.7.3-140.1 13.7-206.5 39.8-40.7 16-79.2 36.4-114.5 60.6l-18.4 12.7 6.9 21.3c9.9 30.4 16.5 61.7 19.5 93 2.5 25.2 5.3 53.7-1.4 89.1-3.2 17.2-6.8 26.1-11.4 37.4-2.9 7.3-6.2 15.5-9.6 26.4-26.8 86.3-4.4 168 6.4 199.2 21.5 61.6 56.3 100 73 118.5 23.7 26.2 45.9 42.8 139.7 104.9 33.1 21.9 66.7 43.9 99.9 65.3l16.9 10.9 16.5-11.4c28.4-19.7 57.8-39.2 87.5-58.1 24.6-15.6 41.5-25.8 53.8-33.2 20.9-12.6 32.4-19.5 50.7-34.4 13.4-10.9 29-24.1 45.8-41.8 20.7-22 38.3-46.3 52.4-72.4 9.6-17.7 32-59.2 38.3-118.6 5.4-51.2-4-93.2-9.1-115.7-4.7-20.9-8.8-31.7-12.2-40.3-3-7.8-5.4-13.9-8.1-28-7.3-37.3-4.8-66.3-1.9-99.8 2.8-32.4 8.6-64.9 17.4-96.7l5.8-20.9-18.1-12c-35.1-23.3-73.3-42.9-113.6-58.2-65.4-25-133.7-37.6-203-37.6" fill="#fff"/><path d="M342.667 851.4c-33.1-21.4-66.6-43.3-99.7-65.2-96.6-63.9-114.8-78.3-135.9-101.6-15.8-17.5-48.8-53.9-68.9-111.7-10.2-29.3-31.2-106-6.2-186.7 3.1-10.1 6.1-17.6 9.1-24.8 4.8-11.8 8.9-22 12.5-41.2 7.2-38.2 4.1-69.6 1.6-94.8-3.2-32.7-10.1-65.4-20.4-97.2l-2.3-7.1 6.2-4.2c34-23.3 71.2-43 110.5-58.4 63.8-25.2 130.9-38.2 199.1-38.5h2.6c66.9 0 132.8 12.2 195.9 36.1 38.9 14.8 75.8 33.7 109.7 56.2l6 4-1.9 7c-9.1 32.9-15.2 66.7-18.1 100.3s-5.6 65.2 2.2 105.3c3.1 15.8 5.9 23.1 9.1 31.4 3.3 8.5 7 18.1 11.3 37.5 4.8 21.4 13.7 61.2 8.7 109.2-5.8 55.5-26.9 94.5-36 111.2-31.1 57.5-71.5 90.5-93.2 108.2-17.2 14-27.6 20.3-48.4 32.8-12.4 7.5-29.4 17.7-54.2 33.5-29.9 19-59.6 38.7-88.2 58.5l-5.5 3.8z" fill="#fff"/><path d="M350.767 30c152.4 0 260.5 64.4 300 90.6-11.2 40.7-16.1 75.8-18.4 102.1-2.9 33.8-5.7 66.6 2.4 108.1 6.5 33.1 12 31.5 20.5 69.2 5.3 23.6 13.3 60.6 8.5 106-5.5 52.4-25.2 89.7-34.8 107.5-29.5 54.6-67.9 86.5-90.8 105.2-27 22-36.6 24.2-101.6 65.6-38.2 24.3-68.7 45.1-88.5 58.8-26-16.8-60-38.9-99.6-65.1-94.4-62.5-113.2-77-134-100-16.9-18.7-47.8-53.5-66.9-108.3-7.2-20.8-31.6-98.3-6.1-180.4 8.1-26.1 15.8-35.1 21.8-67.1 7.3-38.8 4.4-70.3 1.7-97.6-2.5-25.1-7.9-59.5-20.9-99.3 39.3-27.1 148.7-94.6 304.2-95.3zm0-20v20zm0 0h-2.6c-69.4.3-137.7 13.5-202.9 39.1-40 15.7-77.8 35.7-112.5 59.5l-12.3 8.5 4.6 14.2c10.1 31.1 16.8 63.1 20 95.1 2.4 24.6 5.4 55.1-1.5 92-3.4 18.2-7.4 28-11.9 39.3-2.8 7.1-6.1 15.1-9.3 25.6-25.9 83.4-4.2 162.7 6.3 192.9 20.8 59.7 54.7 97.1 71 115.1 23 25.4 44.9 41.8 137.8 103.3 33.1 21.9 66.7 43.8 99.8 65.2l11.2 7.3 11-7.6c28.5-19.8 58-39.4 87.8-58.3 24.7-15.7 41.6-25.9 54-33.3 20.5-12.3 31.8-19.1 49.5-33.6 22.3-18.2 63.7-52 95.7-111.2 9.3-17.2 31.1-57.5 37.1-114.9 5.2-49.6-3.9-90.5-8.9-112.5-4.5-20.1-8.4-30.1-11.8-38.9-3.2-8.2-5.7-14.7-8.6-29.7-7.6-38.7-4.9-69.7-2.1-102.6 2.8-33 8.8-66.1 17.7-98.5l3.9-14-12.1-8c-34.5-22.9-72-42.2-111.6-57.2-64.1-24.4-131.2-36.8-199.3-36.8" fill="#e40615"/><g clip-path="url(#a)" fill="#e40615" transform="translate(.167)"><path d="M8.7 319h690.8v94.5H8.7zm0 164.3h690.8v94.5H8.7zm0 164.2h690.8V742H8.7z"/></g><path d="M624.467 579.1c-22.4 55.4-59.6 86.7-110.1 128.1-35.7 29.2-89.4 67.9-162.5 102.4-2.2 1-4.7 1-6.9-.1-24-12.1-49.4-26.1-75.7-42.2-33.2-20.3-62.8-41-88.9-61-28.7-18.3-73.6-53.5-101.9-112.9-32.6-68.4-26.2-133.2-22-175.7 4.2-42.2 14-76.2 22-98.8 178.6-.3 357.3-.7 535.9-1 13.7 34.4 30.4 89.8 28.3 158.6-.8 28.2-2.2 62.9-18.2 102.6z" fill="none" stroke="#e40613" stroke-miterlimit="10" stroke-width="8"/><g fill="#e40615"><path d="M106.967 222.3l18.3 2.5 19.1 2.6.8 23.6.7 20.5c-7.6-1.2-15.3-2.1-22.9-2.6-5.2-.3-10.5-.5-15.8-.5-3.1 0-6.1.1-9.2.2l4.2-21.8zm-6.4-9c-4.1 21.3-8.3 42.6-12.4 63.8 5.8-.5 12.2-.8 19-.8 4.9 0 9.9.1 15.2.5 11.9.8 22.5 2.4 31.8 4.2-.7-20.3-1.3-40.5-2-60.8q-25.8-3.3-51.6-6.9m480.7 3.1l8.9 27.7 7.8 24.4c-2.6-.1-5.2-.1-7.8-.1-5.2 0-10.5.2-15.8.5-7.7.5-15.3 1.4-22.9 2.6l.7-20 .8-25.3 8.7-3zm5.1-10.2c-13.8 4.7-27.5 9.4-41.3 14.2-.7 20.3-1.3 40.5-2 60.8 9.2-1.9 19.9-3.5 31.8-4.2 5.3-.3 10.4-.5 15.2-.5 6.8 0 13.2.3 19 .8-7.5-23.8-15.1-47.4-22.7-71.1"/><path d="M68.867 122.7c6.6 20.1 13 45.4 16.5 75.2 3.6 31 2.9 58.1.9 79.8 41-23.5 135.4-70.2 264-69.7 126 .5 218.5 46.2 259.4 69.7-1.8-21.4-2.4-47.5.6-77 3.2-31 9.4-57.7 15.9-78.9-38.6-24.7-141.1-83.3-284.2-81.6-136.6 1.7-234.3 57.5-273.1 82.5"/><path d="M289.467 296.6c0 .5-.8.7-2.3.7h-2.2q-1.2-.15-9.9 0h-15.1c-1.5 0-2.2-.3-2.2-.8 0-.4.1-.6.4-.6.3-.1 1.5-.1 3.5-.1 2.6-.1 4.2-.4 4.8-1 .4-.5.5-1.3.5-2.4V259c0-7.1-.1-11-.2-11.6-.2-1-1-1.4-2.5-1.4h-4.5c-1.5.1-2.3-.2-2.3-.7 0-.4 1-.6 3-.8 5.1-.4 9.4-1.7 13-3.8.2-.1 1.3-.8 3.2-2.1l3.4-2.1.4 1.4v54.4c.1 2.4 1.3 3.6 3.6 3.5 3.6-.1 5.4.1 5.4.8m55.5-33c0 7-1.8 13.4-5.3 19.1s-8.4 10-14.5 13c-4.9 2.3-11.1 3.5-18.4 3.5-1.3 0-1.9-.2-1.9-.6s.5-.6 1.6-.6c2.9-.1 6.1-.9 9.5-2.6 3.8-1.9 7-5 9.8-9.3s4.3-8.8 4.8-13.6c-3.4 2.9-7 4.3-10.7 4.3-5.4 0-9.9-1.7-13.4-5.2s-5.3-7.9-5.3-13.2c0-6 2-11 5.9-15q5.85-6 14.7-6c4.6 0 8.9 1.3 12.8 3.9 6.9 4.5 10.4 12 10.4 22.3m-14.1-2.9c0-5.5-.5-10.3-1.6-14.2-1.4-5.1-3.7-7.7-7-7.7-2.3 0-4 1.2-5 3.6s-1.4 6.5-1.4 12.4c0 12.6 2.7 18.9 8.2 18.9 2.4 0 4.1-1.3 5.2-3.8s1.6-5.6 1.6-9.2m65.3 16.6c0 .5-.1 1.1-.2 1.7-.9 5.1-1.6 11.2-2.1 18.5-7.2-.2-14.2-.4-21.1-.4h-5.8l-12 .2c-.4 0-.9 0-1.4.1h-.7c-2.2 0-3.2-.4-3.2-1.1 0-.5.4-1.1 1.3-1.8q10.95-8.7 18.6-17.1c5.1-5.6 7.6-12.6 7.6-21.1 0-5.6-1.4-9.9-4-12.9-1.9-2.1-4.5-3.1-7.7-3.1-2.7 0-4.9.8-6.7 2.3q-2.7 2.25-2.7 4.8 0 1.5 1.2 1.8c.3.1 1.2.2 2.6.3 1.8.1 3.3.8 4.5 2 1.1 1.2 1.7 2.8 1.7 4.6 0 1.9-.5 3.4-1.6 4.5q-1.65 1.8-4.2 1.8c-2.3 0-4.1-.9-5.5-2.6q-2.1-2.55-2.1-6.9c0-4.9 1.7-8.8 5-11.6s7.9-4.2 13.7-4.2c6 0 10.9 1.7 14.7 5q5.7 4.95 5.7 12.9c0 10.4-9.6 20.8-28.7 31.3h11.2c6.5-.1 10.8-.2 12.7-.5 2.6-.2 4.3-.8 5.2-1.8.7-.8 1.2-2.4 1.7-4.9.4-2.1.8-3.1 1.4-3.1.6.1.9.5.9 1.3m51.6-9c0 8.8-2.1 16-6.4 21.6s-9.7 8.5-16.2 8.5-12.1-3-16.7-8.9-6.9-13.1-6.9-21.5c0-11.2 3.5-19.9 10.5-25.9 3.7-3.2 8-4.8 13-4.8 4.6 0 8.4 1.2 11.6 3.7 3.4 2.6 6 6.4 8.1 11.3 2 4.9 3 10.2 3 16m-14.9-1.6c0-12.7-.9-20.9-2.8-24.7-1.1-2.2-2.8-3.2-5.2-3.2-3.1 0-5.2 2.1-6.5 6.3q-2.1 6.9-2.1 20.4c0 14.3 1.3 23.6 4 28 1.3 2.2 3 3.3 5 3.3 3 0 5-2.1 6-6.4 1.1-4.5 1.6-12.4 1.6-23.7"/></g><path d="M381.167 696.4l-.6-13.6 3.1-.8c3.3-.9 6.6-1.9 9.8-3.2 6-2.3 11.8-5.3 17.2-8.8l.5-.4.6-.2c1.3-.3 2.4-.9 3.3-1.7 1-.9 1.9-2.3 2.5-6.7.9-7.1 1-10.1-1.3-17.1-3.7-11.1-24.9-97.4-55.8-224.8-.9 3.2-3.3 12.6-3.3 12.6l-14.4.2 1.3-5.1c2.9-10.9 5.8-22 8.8-33.5v-.1c2.2-7.2 5.3-18.7 9.2-34.2 3.8-15.7 5.9-20 10.2-20 4.5 0 8 4.2 12 25.9v.3c5.2 28 31.2 123.2 77.2 283.1l.1.3v.3c.9 6.2 2.6 12.1 5.1 17.6s4.2 9.1 8.1 12.5c2.7 2.4 5.9 4.1 9.6 5.2l2.5.7 1.4 12.2z" fill="#fff"/><path d="M372.367 343.1c3.9 0 7.5 19.4 8.1 22.9 4.8 25.8 27 108.8 77.3 283.5 1.2 8.2 3.5 14.5 5.4 18.6 2.4 5.4 4.5 9.8 9.1 13.8 4.1 3.5 8.4 5.2 11.1 6l.6 5.1-98.8-.6-.3-6.6q4.8-1.2 10.2-3.3c7.1-2.8 13.1-6 17.9-9.1 1.3-.3 3.3-1.1 5-2.7 1.9-1.8 3.1-4.3 3.7-9.1 1-7.4 1.1-11.2-1.5-18.9-3.9-11.5-27.1-106.3-59.4-239.8q-3.3 12.75-6.6 24.9l-6.1.1c2.9-10.9 5.8-22 8.8-33.5 2.2-7.3 5.3-18.8 9.2-34.4 2.7-11.2 4.8-16.9 6.3-16.9m0-8c-6.7 0-9.2 6.9-10.2 9.5-1.2 3.1-2.4 7.6-3.9 13.6-3.9 15.4-7 26.9-9.1 34v.2c-3 11.4-6 22.6-8.8 33.5l-2.7 10.2 10.5-.1 6.1-.1 6.1-.1.1-.3c29.6 122 48.5 198.9 52.1 209.8 2 6 2 8.4 1.1 15.3-.2 1.6-.6 3.7-1.3 4.3-.4.3-.9.6-1.5.8l-1.3.3-1.1.7q-7.8 5.1-16.5 8.4c-3 1.2-6.2 2.2-9.3 3l-6.2 1.6.3 6.5.2 4.4.1 2.2.3 7.6h7.6l49.4.3 49.4.3 9.1.1-1.1-9-.2-1.6-.4-3.5-.6-5.2-5.1-1.5c-3.1-.9-5.8-2.4-8.1-4.4-3.2-2.8-4.7-5.9-7-11.1s-3.9-10.7-4.7-16.5l-.1-.5-.2-.5c-45.9-159.7-71.9-254.8-77.1-282.7l-.1-.3c-.4-2.2-1.5-8.1-3.1-13.6-1.4-5.4-4.2-15.6-12.7-15.6" fill="#e40615"/><path d="M458.167 651.5l-.6-1.9c-1.9-5.7-4.7-9.6-8.3-11.6-1.9-1-3.8-1.5-6.1-1.5-4.7 0-10.5 2-17.8 4.5-6.5 2.2-14 4.8-23.2 6.9-14.1 3.2-24.6 3.7-34 4-3.5.1-7.7.3-12.3.3-24.5 0-46.1-4.6-66-14.1-10-4.8-20-11.1-28.9-18.4-9.8-8-30.1-24.6-40-53.5-5-14.5-5.5-27-5.4-33.1.1-5 1-18.4 7.1-34.1 10.3-26.4 28.5-41.7 36.2-48.2 26.4-22.2 62.7-35.4 97-35.4 3.5 0 6.9.1 10.3.4 19.8 1.7 38.5 3.2 52 10.1 6.6 3.3 10.7 4.1 19.6 5.8 1.7.3 3.5.6 5.1.6s3-.3 4.4-.8c2.5-1 4.1-2.8 6.6-5.4 2.3-2.4 4.3-5.1 6-8l7.5-12.7-.3 108.6-7.7-22c-3.8-10.9-11.6-26.7-26.9-40.2-3.5-3.1-14.2-12.5-29.8-17.7-7.9-2.6-16.5-4-25.5-4-24.1 0-48.2 9.9-64.7 26.4-24.9 25-25.5 57-25.8 78.2-.3 17.8-.7 42.1 15.5 65 26 36.5 71 37.3 72.9 37.3h1.4c19.7 0 37.8-6 52.5-17.5 18-14 25.6-32.2 28.5-41.7l.9-2.8h9l.2 79.5z" fill="#fff"/><path d="M355.867 419.3c3.4 0 6.7.1 9.9.4 19.2 1.6 37.7 3.2 50.6 9.6 7.1 3.6 11.6 4.4 20.7 6.1 2 .4 3.9.7 5.9.7s3.9-.3 5.9-1.1c3.2-1.3 5.3-3.5 8-6.3 3.1-3.3 5.3-6.5 6.6-8.7-.1 23.6-.2 47.2-.2 70.8-3.2-9-10.7-26.6-28-41.9-3.9-3.5-15.1-13.1-31.2-18.5-8.4-2.8-17.5-4.2-26.7-4.2-24.2 0-49.5 9.5-67.5 27.6-26 26.2-26.6 60.1-27 81-.3 18.2-.8 43.4 16.3 67.4 26.8 37.7 72.9 38.9 75.9 39h1.4c9 0 32.8-1.1 54.9-18.3 20.1-15.7 27.5-35.9 29.9-43.7h2.1c.1 23.3.1 46.6.2 70-.7-.2-1.4-.5-2.1-.7-2.5-7.7-6.3-11.8-10.1-13.9-2.6-1.4-5.2-2-8.1-2-9.7 0-22 6.9-41.9 11.5-13.7 3.1-24.2 3.6-33.2 3.9-3.5.1-7.6.3-12.2.3-16.6 0-39.8-2-64.3-13.7-5-2.4-16-8-28.1-17.9-10.3-8.4-29.4-24.4-38.7-51.7-5.3-15.4-5.2-28.2-5.2-31.7.1-3.1.5-16.5 6.8-32.7 9.8-25 27-39.8 35-46.6 28.2-23.9 64.2-34.7 94.4-34.7m115.7-28.7l-15 25.3c-1.5 2.6-3.4 5.1-5.5 7.3-2.4 2.6-3.7 3.8-5.3 4.5-.9.4-1.7.5-2.8.5-1.4 0-2.9-.3-4.4-.5-8.8-1.6-12.5-2.3-18.5-5.4-14.2-7.2-33.3-8.8-53.5-10.5-3.4-.3-7-.4-10.6-.4-35.3 0-72.5 13.6-99.6 36.4-7.3 6.1-26.6 22.4-37.3 49.8-6.1 15.7-7.2 28.9-7.4 35.5-.1 6.4.4 19.4 5.6 34.5 10.2 30 31.2 47.1 41.2 55.3 9.1 7.5 19.4 14 29.7 18.9 20.5 9.7 42.6 14.5 67.8 14.5 4.7 0 8.9-.2 12.5-.3 9-.4 20.3-.8 34.7-4.1 9.4-2.2 17.3-4.8 23.6-7 7-2.4 12.5-4.3 16.5-4.3 1.6 0 2.9.3 4.2 1 2.7 1.5 4.9 4.7 6.4 9.4l1.3 3.8 3.8 1.3 1.3.4.8.3 10.6 3.5v-11.1l-.2-70v-8h-16.2l-1.7 5.7c-2.8 9.1-10 26.4-27.1 39.7-13.9 10.9-31.2 16.6-50 16.6h-1.3c-1.8 0-44.8-.8-69.5-35.6-15.5-21.8-15.1-44.4-14.8-62.6.4-20.5.9-51.6 24.7-75.5 15.7-15.8 38.8-25.2 61.8-25.2 8.5 0 16.7 1.3 24.2 3.8 14.8 4.9 25 13.9 28.4 16.9 14.6 12.9 22.1 28.1 25.7 38.5l15.4 43.9.2-46.6.2-70.5v-.2z" fill="#e40615"/><path d="M259.167 697.4l-1.2-1.6c-2.4-3.1-3.1-6.1-2.2-8.8 1-2.8 3.6-4.8 7.8-5.7h.1c10.4-2.5 20.2-27.4 23.9-42.5 2.9-11.7 8.6-33 17.4-65.2 9-33.1 21.3-78.4 36.2-134.7l.5-1.7 15.7-7.9-2.3 8.6c-30.4 115.2-49.1 190.8-51.4 201.4-1.5 6.9-1.7 14.2-1.8 20.7-.1 2.7 0 4.9.8 7.6 1.5 4.9 4.7 8.1 6.6 10 3.2 3.2 4.7 4.6 7.1 5.3 1 .3 2 .4 3.2.4.9 0 1.8-.1 2.6-.2s1.6-.1 2.4-.1c.9 0 3.8 0 5.8 2.5 1.8 2.2 2 5.3.7 9.2l-.9 2.7z" fill="#fff"/><path d="M351.067 436.9c-30.7 116.5-49.1 190.9-51.5 201.6-1.5 7.1-1.7 14.3-1.9 21.5-.1 2.9 0 5.6.9 8.8 1.8 5.8 5.4 9.5 7.6 11.7 3.1 3.1 5.3 5.3 8.8 6.3 1.5.5 3 .6 4.3.6 2 0 3.7-.3 5-.3 1.1 0 2 .2 2.6 1 1.1 1.4.6 3.6 0 5.4h-65.9c-1-1.3-2.2-3.3-1.6-5 .8-2.3 4.4-3 5-3.2 16.7-4 26.8-45.4 26.8-45.4 5.9-24.1 24.6-90.4 53.5-199.8zm-9.7-4.1l-3.2 1.6-.9 3.5c-14.9 56.2-27.2 101.5-36.2 134.6-8.8 32.2-14.5 53.5-17.4 65.3 0 .1-2.5 9.9-6.8 20-5.6 13.2-11 18.8-14.2 19.5-7 1.6-9.7 5.4-10.7 8.3-1 2.8-1.3 7.2 2.8 12.5l2.4 3.2h75.6l1.9-5.3c2.3-6.6.6-10.7-1.3-13-1.5-1.8-4.2-4-8.9-4-1 0-1.9.1-2.8.2-.8.1-1.5.1-2.3.1s-1.4-.1-2.1-.3c-1.5-.4-2.5-1.4-5.4-4.3-1.7-1.7-4.4-4.3-5.6-8.3-.6-2.1-.7-3.9-.6-6.3.1-6.3.3-13.4 1.7-19.9 2.3-10.6 21-86 51.4-201.2 1-3.7 2-7.3 3-11z" fill="#e40615"/><path d="M166.267 176.4c2.7 1.4 2.2 3.5 1.7 5.1-1.7 5.6-4.2 10.8-9.1 14.5-4 3-8.3 5.4-12.9 7.4-4.7 2.1-9.3 2.5-14.1 1.6-9.6-1.7-16.5-10-16.4-19.7 0-4 .5-8 .7-12 .1-1.6.8-3.4-1.6-4.5-.5.7-1.3 1.4-1.6 2.3-.9 3-1.4 6.2-2.6 9-1.2 2.9-1.4 5.8-1.4 8.8 0 2.2-.3 4.3-.3 6.5 0 1.8.1 3.7.6 5.4 2.3 8.2 7 14.5 14.5 18.8 5.8 3.3 11.7 4.1 18.2 1.9 7-2.4 13.3-6.1 19.1-10.6 3-2.3 5.5-5 7.1-8.3 4.2-8.6 7.1-17.5 6.9-27.2-.1-4.8-1.9-8.6-5.1-11.4-2.4-1.2-5-.1-6.6-3 1.5-1.5 3-3.1 4.2-4.2 4.9-.4 9-1 13.2-1 7.6 0 15.3.4 22.9.7 8.4.3 15.1-3.3 20.8-9 5.6-5.5 10-12 13.9-18.8 1.2-2.1 2-4.6 2.6-7 .8-3.6 1.3-7.2 1.8-10.8.3-2.4 1-4.9-.3-7.5-.8.1-1.8-.1-2.4.4-4.3 3.3-8.6 6.7-12.3 9.6.8 5.4 1.5 10 2.3 14.6.5 3.2-.6 5.3-3.4 7-5.2 3.1-11 3.5-16.7 4.2-1.4.2-2.9-.1-5.1-.2.7-1.7 1.1-2.9 1.7-3.9.9-1.4 2.3-2.5 3-4 3.1-6.1 3.6-12.7 2.5-19.2-2.1-2.4-4.4-4.3-7.5-3.2-7.1 2.5-12.4 6.9-14.4 14.6-1.1 4.4-2.2 8.7-1.9 13.3.1 1.1-.4 2.2-.7 3.8-5.3.3-10.4.8-15.5.9-5.8.1-10.6 2.5-14.4 6.7-4.9 5.4-7.2 11.8-7.2 19.1-.1 5.2 1.7 9 6 11.5 3.6.2 6.9.6 9.8-2.2m364.7-5.1c-8.8 2.2-15.5-2.2-21.7-8.4.2-1.5.3-3.1.8-4.6 2-5.8 4.2-11.5 6.2-17.2 1.9-5.1 3.6-10.3 5.5-15.4 2.3-6.5 4.7-13 7-19.5.2-.6-.5-1.6-.9-2.5-4.2 1.7-8 3.3-11.7 4.9-1.1 2.3-2.1 4.4-3 6.5-1.8 4.2-3.6 8.5-5.2 12.8-2.6 6.8-5.3 13.6-7.7 20.4-1.8 5.3-3.2 10.7-5 16-1.1 3.1-1.3 6.1-.8 9.8 5.9 4.5 12.2 8.5 19.9 7.6 3.6 1.6 3 5.2 4.9 7.2 4.5 3.1 6.4 3.9 11.7 3.3 7.6-.9 14.8-3.1 21.9-6.1 2.3-1 3.9-2.6 4.9-4.7 2.4-4.9 4.8-9.8 6.9-14.8 2.9-6.7 5.6-13.4 8.3-20.2 2.2-5.5 4.3-11.1 6.4-16.6.3-.8 0-1.8-.1-3.2-4.9 2.1-8.9 4.8-12.8 7.4-.8.5-1.4 1.5-1.7 2.4-3.1 8.7-6.1 17.5-9 26.2-1.7 5.1-3.3 10.3-5 15.6h-14.3c-1.8-2.2-3.4-4.2-5.5-6.9m-133.2-48.4c-.6-3.7-1.2-6.3-1.3-9-.1-3.1-.2-6.3.4-9.4 1.2-5.9 3.7-11.3 7.5-16 .8-1 2.1-2.1 1.1-4-6.6 3.6-11.1 8.9-14.6 14.9-2.2 4-4 8.5-4.5 13-.7 6.2-.6 12.5 1.5 18.7 3.7 10.7 10.8 17.5 21.3 21.2 4 1.4 8 1.9 12.1 2.4 9.2 1.3 17.9-.3 25.6-5.5 3.3-2.2 6.3-5.1 8.6-8.3 3.8-5.3 3.7-11.2.3-17.4-1.9-1.4-4.2-3.1-6.4-4.8-2.3-1.9-4.8-3.7-6.8-5.8-3.1-3.3-3.1-7.3-.1-11.7h21.4c1.9-2.9 3.5-5.5 5.5-8.6-2-.7-3.3-1.5-4.7-1.6-4.6-.4-9.3-.5-13.9-.9-3.4-.3-6.2 1-8.8 2.8-2.2 1.5-4.2 3.3-6 5.2-2.9 3.2-5.8 6.4-7.4 10.6-1.5 4-2.3 9 2.4 12.7 1.8 1.4 3.7 2.8 5.6 4.1 3.1 2.2 6.4 4.2 9.3 6.7 2.7 2.3 2.7 4.4 1 8-4 2.3-8.3 2.9-12.9 2.9-4.9 0-9.6-.7-14.2-2.1-7.3-2.2-14-5.4-18.3-12.1-1.4-1.9-2.7-4.2-3.7-6m-112.4-36.7c-9.7 4.2-15 17.6-10.1 26.3 1.6.1 3.5.3 5.5.3 1.9 0 3.8-.2 5.9-.3 1 4.9-.9 8.6-2.2 12.5-3 .8-5.8 2.2-8.7 2.3-5 .2-9.8 1.3-14.7 2.4-8.2 2-13.1 6.9-16 14.7-2.2 6.1-4.1 12.3-4.7 18.7-.7 7.5-5.2 12.1-11.6 14.9-5 2.2-10.2 3.9-15.7 6-.8 2.7-1.6 5.6-2.5 8.8.5.8 1.1 1.6 1.9 2.8 3.3-.8 6.8-1.2 10-2.4 7.5-3 13.9-7.7 19.1-14 1.4-1.6 2.7-3.5 3.4-5.4 1.1-2.9 1.8-6 2.3-9.1 1.2-6.6 3.9-12.6 7.1-18.5 1.5-2.6 3.7-3.9 6.9-4.2 4.3-.3 8.5-1.3 12.4-3.4 5.7-3.1 11.6-5.6 16.3-10.3 2.5-2.5 3.6-5.4 4.2-8.7 1.1-5.8.9-11.5-.3-17.3-.7-3.4-1.3-6.8-2.4-10.1-.7-2.8-2.5-5.2-6.1-6m54.3 32.6c-1.5 3.5-3.6 5.4-5.9 7.1-7.2 5.3-15.7 7.6-23.9 10.7-4.9 1.9-9.9 3.7-14.8 5.7-2.6 1-5.1 2.2-7.7 3.4-.8.4-1.4 1.1-2.1 1.7 1.3 2.6 3.4 2.9 5.6 3 4 .3 7.9.7 11.9.9 9.3.5 18.3.1 25.3-7.4.7-.7 1.6-1.2 2.4-1.8 6.4-4.9 11.7-10.8 16.2-17.5 1.4-2.1 2.4-4.3 2.3-7-.3-16.3-.5-32.6-.8-48.9 0-1.7-.7-3.4-1.2-5.5-4.2 1.7-7.2 3.8-9.1 6.5.6 17 1.2 33.4 1.8 49.1m242.5 20.9c-6.6 19.6-13.2 38.9-19.7 58.1 1 4.5 1.9 8.9 5.2 12.3.8-.4 1.6-.5 1.9-1 3.7-4.5 7-9.2 8.3-15.1.3-1.4.9-2.8 1.3-4.3l5.1-17.1c1.8-6.4 3.5-12.7 5.4-19.1 1.8-5.8 3.8-11.6 5.5-17.4.3-1.1-.1-2.4-.2-4.5-4.8 3.1-8.8 5.6-12.8 8.1m-211.1-2.5v-9.1c-.1-6.7-.4-13.3-.4-20 .1-16.1.3-32.3.4-48.4 0-1-.6-2-1.1-3.5-4.6 4.4-7.4 9.3-10.8 14v3.9c.4 16.8.7 33.6 1.1 50.4.1 5.5.6 10.9.8 16.4.1 1.6.5 3 2.9 3.3 3.1-.9 4.3-4.3 7.1-7m81.8 30.2c12.7 1.5 23.5-3.2 33.6-8.3 4.8-8.3 2.7-16.6 2.8-24.6 0-2.5-.5-4.9-2.3-6.9-4.4-.4-7.6 1.4-10.6 4.2 2.9 8.1 2 16 2.1 24.3-9.1.9-17.6.3-25.8-1.6-2.8 6.2-2.7 9.6.2 12.9m-131.5-98.6c-3.9 4.3-7.1 8.2-9.2 12.9-.4.8-.1 1.9 0 2.9.4 7.1.9 14.3 1.2 21.4.2 5.2.2 10.3.2 15.5 0 2.1.3 4 2.6 5.8 1.5-.1 3.6-.3 6.2-.5.1-18.6.1-36.7.1-54.9-.1-.7-.5-1.4-1.1-3.1m71.9 98.1c3.7.9 7.1 1.9 10.7 2.6 3.7.7 7.6 1 11.8 1.5 2.6-3.4 5.1-6.8 7.7-10.3-2.7-2.8-5.7-1.7-8.4-2.1-3-.5-5.9-.8-8.9-1.3-2.8-.5-5.5-1.2-8.6.1-.8 3.2-4.5 5.4-4.3 9.5m-204.3-65.5c1.9 0 3.4.5 4.3-.1 5.7-3.2 12.4-4.5 16.6-9.1.4-2.9.9-5.2 1.1-7.5.1-2.3 2.3-4.6.1-7.5-7.1 3.9-13.7 8.6-20.7 12.8-.4 3.7-.9 7.3-1.4 11.4m19.8 79.6c1.6-.7 2.9-.9 3.9-1.7 3.6-2.6 6.9-5.7 10.7-8.1 3.2-2 4.8-4.9 5.9-8.2.5-1.4 1-2.8 1.3-4.3.2-.8 0-1.8 0-3.5-3.1 1.5-5.7 2.5-8 3.9-3.7 2.2-7.5 4.4-10.6 7.2-3.7 3.7-5 8.5-3.2 14.7m-75.2 59.7c6.4-2.8 12.4-5.4 18.2-7.9 1.6-3.2 3.1-10.5 2.7-13.6-7.5 2.9-14.2 6.9-21.2 10.8.4 3.4-1.7 6.5.3 10.7m219.9-103c-.6-2.8.8-5.7-1.8-8.1-4.3 1.2-6.9 4.5-9.4 7.7v6.1c1.4 1.3 2.9 2.8 4.9 4.7.8 2.4-2.5 5.8.6 9.3 1.6-.5 3.4-1 5-1.6.4-4.1.8-7.7 1.2-11.3-1.3-1.1-2.6-2.1-4.2-3.4 1.5-1.3 2.4-2.2 3.7-3.4m-83.8-59.9c4.1-2.8 7.5-5 10.6-7.1 1.2-4.8 1.3-9.5.2-13.5-4.5 1-7.5 4.4-11.4 6.8 0 4.4-.1 8.7.6 13.8m274 58.1c-4.5 2-7.1 5.7-10.1 8-.8 4 1.6 6.1 2.7 8.6 4.1-.8 8.9-4.7 10.9-8.8-1.1-2.4-2.2-4.9-3.5-7.8" fill="#fff"/></svg>