<svg viewBox="0 0 628.37 715.63" xmlns="http://www.w3.org/2000/svg"><path d="m628.364 372.982a314.184 314.184 0 0 1 -314.182 314.182 314.184 314.184 0 0 1 -314.182-314.182 314.184 314.184 0 0 1 314.182-314.181 314.184 314.184 0 0 1 314.18 314.181" fill="#a00" fill-opacity=".941"/><path d="m615.611 372.985a301.43 301.43 0 0 1 -301.428 301.429 301.43 301.43 0 0 1 -301.429-301.429 301.43 301.43 0 0 1 301.429-301.428 301.43 301.43 0 0 1 301.427 301.428z" fill="none" stroke="#fff9f9" stroke-dashoffset="100" stroke-linecap="square" stroke-width="6"/><path d="m531.992 372.98a217.813 217.813 0 0 1 -217.811 217.813 217.813 217.813 0 0 1 -217.813-217.813 217.813 217.813 0 0 1 217.812-217.812 217.813 217.813 0 0 1 217.81 217.812z" fill="none" stroke="#fff" stroke-dashoffset="100" stroke-linecap="square" stroke-width="4.000314"/><path d="m516.408 372.984a202.226 202.226 0 0 1 -202.225 202.226 202.226 202.226 0 0 1 -202.226-202.226 202.226 202.226 0 0 1 202.226-202.225 202.226 202.226 0 0 1 202.224 202.225z" fill="none" stroke="#fff" stroke-dashoffset="100" stroke-linecap="square" stroke-width="7.000066"/><g fill="#fff"><path d="m237.136 595.648-3.137.572-12.45 31.009-5.254-2.026 16.138-40.196zm-27.132 26.863-12.419-5.637 2.612-5.53 7.366 3.343 11.717-24.816-1.835-2.704 11.117-3.964z"/><path d="m205.74 582.842-6.405 1.802-1.885-6.327 6.53-1.866zm-8.226 34.135-20.83-11.367 3.019-5.326 8.565 4.673 2.332-4.112-1.386-2.699 11.384-3.146-7.225 12.743 7.161 3.907z"/><path d="m176.407 605.943-6.405-4.503q-.23.314-.73 1.529a9.507 9.677 85.92 0 0 -.648 2.343l-.139.851-.085 1.175.043.932.166 1.16q-.734-.515-1.514-1.823a8.52 8.673 85.92 0 1 -1.056-2.783q-.297-1.443-.057-2.698.273-1.232 1.056-2.769l-22.435-15.773 3.614-4.957 21.64 15.213 1.026-2.268q.735-1.665.357-3.925l-.125-.754-.268-.756-1.017-1.712q-1.182-1.685-4.56-4.06l-1.72-1.21q-3.57-2.509-4.095-3.969-.526-1.461.641-3.062l3.433-4.705.415 1.81q.205.906 1.578 3.388l.646.834.841.829 1.216 1.044.828.582q2.995 2.107 3.468 2.913 1.346 1.326 1.937 2.5.985 1.69 1.1 3.383.35 1.767.135 3.846a17.938 18.259 85.92 0 1 -.857 3.62q-.589 1.865-1.665 4.002l6.852 4.817zm-20.627-1.926-6.327 1.008-1.022-5.937 6.215-1.184z"/><path d="m144.63 583.436-13.428-12.439-.324.337a2.063 2.1 85.92 0 1 -.461.368q-.216.225-.872.572-1.93 1.449-3.304 1.871l-1.376.424q-.604.181-1.437.207l-2.33.07q-2.78-.19-4.862-2.117l-1.173-1.246q-.4-.37-.52-.694l-.469-.858.42.123.978.216.837.139.864.11 1.417.094q1.054-.032 2.294-.369l1.402-.451q1.016-.385 2.683-1.281 1.559-.838 2.016-1.314l4.07-4.241.376-.448.511-.533a27.804 28.301 85.92 0 1 2.76-2.538q1.438-1.106 2.733-1.445 2.532-.732 4.988-.26 2.064.374 4.549 1.827 2.991 1.765 4.539 2.508 1.578.77 2.3.804l1.615.224-11.157 11.625 4.618 4.278zm-4.095-12.175 5.794-6.037-1.13-.676-1.606-.851-.705-.388-.62-.308q-.337-.153-1.003-.134l-1.438.153q-.662.13-1.755.761-1.035.687-2.113 1.81l-.431.449-.296.309zm-7.824-50.25-2.981-1.106-26.979 20.23-3.42-4.409 34.972-26.226zm-37.333 9.206-7.629-11.152 5.148-3.407 4.525 6.615 23.096-15.286-.14-3.249 11.585 2.268z"/><path d="m87.447 519.24-2.898-5.202q-1.721.929-4.626 1.661-2.348.608-4.019.499-8.073-.347-11.816-7.07-1.73-3.107-2.2-7.73l-.105-.91.47.845q2.727 4.898 7.285 7.536 4.543 2.688 10.184.92l1.001-.452q2.823-1.522 4.449-4.069 1.68-2.531 1.412-4.54l-.34-2.056q1.641.697 4.493.431l1.653-.408 1.4-.623.67-.406q.377-.203.666-.49l.663-.578q.425-.361.672-.802l-.496 2.245-.77 2.876-.468 1.57q-1.079 3.128-3.753 6.285l-1.418 1.555 3.33 5.98zm-16.702-31.24-7.08-16.377 5.707-2.393 4.735 10.955 7.801-3.273.649-2.742 10.869 4.32zm-9.637 3.959 2.1-5.11-10.622-4.047 2.229-5.206 5.21 2.087-4.257 10.286z"/><path d="m63.673 471.558-4.443-12.919 32.115-10.733.72-3.088 10.577 5.09-35.757 11.95 2.66 7.736zm19.946-55.622-5.336-3.476 3.504-5.28 5.412 3.46zm-29.15 28.268 12.374-2.528-3.592-17.173-.571-1.772-.434-.737-.288-.414-.425-.503q-.434-.54-2.758-2.073l-1.589-.7-.609-.23-1.185-.11 4.065 19.436-6.072 1.24a3.408 3.47 85.92 0 0 -1.044.371 1.794 1.826 85.92 0 0 -.453.328l-.444.563q-.435.6-.532 1.093-.128.538.022 1.254.117.567.428.897.272.337.942.674 1.088.604 2.164.384m1.267 5.487-.537.11-.807.164q-.578.117-.823.09-.538.11-1.647-.018-1.293-.051-1.725-.199-.754-.16-1.65-.804a5.202 5.295 85.92 0 1 -.99-.9l-.877-1.512q-1.073-2.065-2.57-2.702l-.592-.155.382-.471q.474-.412.93-1.49.326-.93.49-2.264l.185-1.218q.203-.946.743-2.002.443-.758 1.017-1.27l1.38-.872.721-.384q.476-.214.66-.292.185-.077.646-.171l.692-.142q.538-.11.83-.248l-5.534-26.456 6.073-1.24 1.475 7.057 6.533-1.335 1.377-2.996q1.288 2.138 3.483 3.814 2.201 1.714 2.81 1.945l2.15.701-9.49 1.939q2.407.021 4.561 1.508 2.889 2.125 3.631 5.674l4.689 22.418z"/><path d="m46.977 406.373-.317-7.201 14.99-14.563-2.627-1.696-.635-.165-.713-.121-.547.024-.386.171-.642.57-9.79 9.583-.345.209a4.305 4.382 85.92 0 1 -1.394.448l-1.679.23q-2.312.103-3.914-.596-1.64-.66-3.404-2.394-3.32-3.17-3.505-7.367-.21-4.775 2.147-8.354 2.617-3.898 7.047-4.097h.863q.432-.02.87.116l1.584.314 1.156.373 1.344.21 1.301.134.626-.067.624-.105 1.197-.478q.539-.217.724-.495l.837-.617a2.422 2.465 85.92 0 1 .28 1.03q.055 1.23-.837 2.39-.774 1.153-2.067 1.213-.667.029-2.135-.33-.16.856-.65 1.303-.407.558-1.132 1.054-.228.204-.65.376-.465.176-.856.193-.315.014-1.904-.415.815-.23 1.157-.477.304-.245.42-1.176-.046-1.04-1.095-1.688-1.047-.57-2.457-.507l-.589.027a.95.968 85.92 0 0 -.541.179q-2.012.707-3.092 2.954-1.077 2.287-.985 4.366.087 2.004.74 3.44.615 1.477 2.156 2.604l.73.507 1 .457.998.342.908.113q.706-.032 1.132-.166l.501-.217.615-.297.498-.291 10.08-10.138.38-.287.847-.385.737-.188.742-.11h.864q.195-.01.72.314l1.49.821 10.04 5.954-17.523 16.8.258 5.891zm-21.146-13.83 3.56-3.863-8.006-7.049 3.718-3.871 3.885 3.53-7.2 7.731zm56.983-43.412-1.324-2.85-33.613-4.208.728-5.506 43.573 5.456zm-33.073-19.222 2.566-13.222 6.089 1.127-1.522 7.841 27.322 5.055 2.226-2.415 6.596 9.62z"/><path d="m51.413 316.491 14.528-45.05 5.91 1.828-3.203 9.93 3.253 1.005 2.425-2.163 5.328 10.383-12.64-3.907-2.217 6.876 6.095 1.885 2.463-2.151 5.352 10.31-15.594-4.822-2.111 6.546 8.789 2.717 2.414-2.003 5.421 9.966-18.324-5.665-1.98 6.141z"/><path d="m66.782 271.66 5.8-12.413 30.8 13.83 2.68-1.768 4.12 10.844-34.294-15.397-3.473 7.434zm9.745-21.104 1.682-2.789q-.95-.462-1.814-.694l-.863-.231-1.224-.084q-1.98-.345-4.298.328.761-1.262 1.728-1.731l.59-.375.618-.269 1.499-.52q2.646-.839 5.666.422l14.016-23.239 5.33 3.095-13.515 22.41 2.365.836q1.706.496 4.01-.003 1.392-.268 3.115-1.688.656-.56 1.72-1.87l1.05-1.363 1.015-1.607 1.06-1.76q2.263-3.75 3.7-4.396t3.19.374l5.028 2.919-1.8.568q-.921.317-3.322 1.881l-.79.707-.77.898-.936 1.25-.54.896q-1.883 3.121-2.66 3.655-1.272 1.503-2.372 2.12-1.449 1.041-3.109 1.378-1.559.394-4.115.479l-3.393-.492q-.815-.16-4.548-1.296l-1.982 3.286z"/><path d="m94.52 221.576 12.89-16.937 4.961 3.64-4.493 5.903 22.04 16.172 2.981-.896 1.724 11.621-30.297-22.23-4.845 6.367z"/><path d="m107.03 204.31 5.021-5.268 21.051.333-.597-3.035-.323-.562-.408-.586-.4-.368-.393-.15-.863-.054-13.8-.165-.392-.096q-.702-.223-1.299-.665l-1.337-1.02q-1.687-1.553-2.294-3.168-.663-1.614-.63-4.07-.008-4.554 2.92-7.624 3.328-3.493 7.577-4.344 4.662-.893 7.894 2.081l.602.606a2.511 2.556 85.92 0 1 .522.692l.875 1.334.534 1.073.785 1.092.81 1.009.484.393.511.365 1.182.507q.535.227.866.161l1.032.156a2.422 2.465 85.92 0 1 -.553.919q-.86.901-2.325 1.087-1.38.264-2.323-.604-.487-.447-1.25-1.731-.733.488-1.4.456-.69.104-1.556-.057-.307-.017-.728-.194-.451-.202-.737-.466-.23-.21-1.024-1.63.734.412 1.154.48.39.041 1.15-.53.724-.76.463-1.951-.314-1.135-1.343-2.082l-.43-.395a.95.968 85.92 0 0 -.508-.256q-1.916-.918-4.305-.101-2.416.844-3.865 2.365-1.397 1.465-1.988 2.93-.647 1.468-.393 3.34l.14.869.365 1.023.447.94.55.719q.515.473.91.678l.507.201.645.224.56.145 14.405-.02.474.068.87.324.651.388.598.444.603.607q.143.132.272.728l.441 1.62 2.664 11.229-24.443-.546-4.108 4.31zm-4.674-24.551 5.295-.204-.45-10.567 5.41-.1.139 5.205-10.648.356z"/></g><path d="m511.148 161.81-7.656 7.718c-5.311 5.355-6.381 7.3-3.469 6.281 2.316-.81 5.884-2.922 7.938-4.687 2.51-2.157 4.416-2.52 5.843-1.094 1.427 1.427-3.44 7.43-14.875 18.281-9.356 8.88-18.061 16.157-19.343 16.157s-.714 1.795 1.28 4c3.528 3.898 3.876 3.74 12.438-5.656 4.843-5.314 12.48-13.029 16.969-17.157s9.402-7.983 10.906-8.562c1.915-.737.807-3.205-3.656-8.188zm17.281 19.625c-.579-.059-3.9 2.33-7.375 5.312s-4.893 4.982-3.156 4.469 5.3-1.59 7.906-2.406c6.893-2.159 5.961 2.14-2.062 9.468-5.738 5.241-7.015 5.678-8.032 2.781-1.084-3.091-1.577-3.047-5.125.5-3.696 3.697-3.715 3.99-.25 4.657 2.824.544 1.632 2.216-5 7.094-10 7.354-13.151 6.25-7.968-2.782l3.625-6.25-6.282 3.688c-7.42 4.383-7.9 8.176-1.812 14.656l4.469 4.781 8.562-6.75c4.703-3.702 10.133-8.138 12.063-9.875 9.32-8.39 17.07-14.481 19.375-15.25 1.691-.564.77-3.072-2.688-7.437-2.862-3.614-5.67-6.598-6.25-6.656m15.375 22.375c-.217.02-.38.102-.5.28-.652.98-6.38 5.265-12.75 9.5-6.369 4.237-12.898 8.806-14.5 10.157-1.601 1.351-6.015 3.507-9.812 4.813l-6.907 2.375 5.594 8.78c.03.047.065.08.094.126 5.933-5.381 17.757-13.55 20.562-13.5.253.005.475.063.625.156 3.837 2.37 2.494 4.775-5.25 9.344-4.242 2.503-9.592 5.589-13.593 7.406 4.307 5.738 7.383 6.733 9.593 3.156.769-1.243 8.163-6.562 16.438-11.844s15.364-10.435 15.75-11.437 2.552-1.812 4.812-1.812c3.514 0 3.76-.653 1.75-4.407-.689-1.288-1.52-2.592-2.375-3.844-2.403 2.338-5.94 4.989-8.53 6.375-2.582 1.382-5.978 3.79-7.532 5.344-3.125 3.125-5.316 3.56-7.438 1.438-2.818-2.819-1.244-5.06 5.97-8.5 4.052-1.933 7.374-4.275 7.374-5.219 0-.61 4.057-2.117 7.406-3.094-2.766-3.324-5.526-5.717-6.78-5.594m17.749 25.188c-1.41.008-3.635 1.69-8.468 5.438-4.873 3.778-9.328 7.327-9.907 7.906s-6.498 4.735-13.156 9.219-12.125 8.983-12.125 10c0 2.428 7.033 2.382 9.594-.063 1.1-1.05 5.322-2.928 9.375-4.156 4.053-1.229 13.646-4.436 21.312-7.156 12.95-4.596 13.711-5.242 11.032-8.907-2.358-3.224-2.875-3.335-2.875-.625 0 3.752-7.764 6.563-9.657 3.5-1.615-2.614 3.034-8.125 6.844-8.125 2.328 0 2.463-.9.688-4.219-.963-1.798-1.56-2.818-2.657-2.812" fill="#fff" fill-opacity=".96"/><path d="m551.117 245.653c.463.008.887.096 1.187.281 1.26.779.443 2.018-1.906 2.938-6.583 2.578-8.58 2.003-4.281-1.25 1.648-1.247 3.609-1.992 5-1.969" fill="#a00" fill-opacity=".96"/><path d="m568.367 255.31c-3.879.273-8.248 3.405-17.688 12.187-7.546 7.02-15.304 12.75-17.25 12.75-3.172 0-3.127-.47.469-4.687 2.206-2.587 5.45-5.921 7.188-7.407 2.581-2.207 1.976-2.242-3.188-.156-9.282 3.749-11.448 5.841-10.187 9.781a394 394 0 0 1 1.906 6.156c.932 3.129 3.188 3.293 9.75.72 2.68-1.052 10.387-7.213 17.125-13.688s13.108-11.781 14.187-11.781c3.597 0 2.02 6.24-2.25 8.906-6.759 4.22-4.835 5.634 2.907 2.125 6.185-2.804 6.92-3.953 5.656-8.719-1.027-3.873-3.095-5.66-7.032-6.125a9 9 0 0 0 -.812-.062c-.255-.006-.523-.019-.781 0m14.125 32.656c-3.27-.125-10.057 1.748-28.657 6.781-8.605 2.328-16.395 3.742-17.343 3.156s-1.75.897-1.75 3.281c0 5.049.029 5.039 7.781 2 6.367-2.495 37.418-10.312 40.969-10.312 5.025 0-.073 4.918-7.75 7.469-15.868 5.271-34.822 9.53-36.844 8.281-2.307-1.426-2.634 1.277-.75 6.188 1.491 3.886 1.789 3.96 6.625 1.406 3.702-1.955 21.588-7.283 33.156-9.875 11.503-2.578 15.147-9.572 8.469-16.25-1.244-1.245-1.944-2.05-3.906-2.125m-4.094 26.469c-12.527-.005-28.457 3.525-32.812 9.062-4.476 5.69-3.872 19.534.687 15.75 1.434-1.19 11.777-3.539 22.969-5.219 11.191-1.68 21.183-3.579 22.218-4.218 1.036-.64 2.352.014 2.938 1.468.586 1.455 1.145-.182 1.219-3.656.073-3.474-.65-7.543-1.594-9.031-1.823-2.873-8.109-4.153-15.625-4.156" fill="#fff" fill-opacity=".96"/><path d="m582.867 320.747c4.016-.047 6.903.359 7.531 1.375.798 1.29.687 2.354-.25 2.375s-10.718 1.43-21.719 3.125c-23.987 3.697-23.716 3.7-22.125 1.125 2.269-3.67 24.515-7.858 36.563-8" fill="none"/><path d="m597.929 349.716-10 .03c-7.233.024-9.128.619-6.843 2.095 1.736 1.122 5.269 2.044 7.875 2.062 2.792.02 4.75 1.326 4.75 3.188 0 1.825-2.013 3.222-4.75 3.312-2.606.086-6.954.589-9.688 1.094-3.772.697-4.676.132-3.75-2.281.94-2.449-.345-3.128-5.562-3-3.728.09-5.604.634-4.157 1.218 6.156 2.484 1.87 5.125-7.375 4.532-11.814-.758-12.914-3.866-2.625-7.375l7.375-2.532-8.937-.093-8.969-.125v9.718c0 8.198.497 9.354 3.031 7.25 2.037-1.69 10.533-2.29 26.313-1.843l23.312.656zm-50.875 23.688a2 2 0 0 0 -.468.031c-.947.195-1.313 1.168-1.313 3.032 0 3.249 1.745 4.108 8.969 4.53 4.921.29 9.873 1.517 11.031 2.72 1.449 1.504-1.315 1.964-8.906 1.468-12.252-.8-13.188.104-13.188 12.625v7.72l10.344.624c5.69.342 13.489 1.52 17.344 2.625 3.855 1.106 10.047 2 13.75 2s7.315.967 8.031 2.125c2.102 3.402 3.156 2.428 3.156-2.875 0-4.63-1.004-5.044-15.25-6.312-19.44-1.73-35.578-5.729-34.625-8.594.407-1.223 2.11-2.394 3.75-2.594s13.146-1.518 25.594-2.937c12.448-1.42 22.656-3.293 22.656-4.157 0-1.42-7.417-3.137-35.812-8.343-5.211-.956-11.13-2.389-13.157-3.188-.768-.303-1.398-.479-1.906-.5m-3.343 36.157c-2.281.055-2.972 1.14-3.532 3.906-.52 2.573-1.5 7.23-2.156 10.343-1.38 6.551-.867 6.99 10.406 8.907l8.438 1.437-6.844-4.281c-7.976-4.991-8.841-7.363-2.125-5.875 2.605.577 12.33 2.739 21.594 4.781s17.75 4.495 18.843 5.469c2.126 1.893 5.29-1.715 5.344-6.094.02-1.515-2.6-2.625-6.156-2.625-7.986 0-35.318-5.75-39.812-8.375-2.706-1.58-1.886-2.043 3.78-2.093 8.57-.076 6.384-3.143-3.562-5-1.831-.343-3.182-.525-4.218-.5m-1.094 25.406c-1.252.056-2.407.427-3.594 1.062-7.29 3.901-11.286 14.75-5.437 14.75 6.025 0 42.27 13.025 44.28 15.907 2.36 3.381 4.235 1.931 6.282-4.844 1.242-4.11.647-4.768-4.5-4.907-8.045-.217-21.004-5.04-18.187-6.78 1.248-.773 6.8-.044 12.343 1.624 10.52 3.166 13.594 2.75 13.594-1.875 0-2.743-12.251-5.837-23.687-5.968-3.185-.037-5.813-.766-5.813-1.625 0-.86-3.304-3.146-7.344-5.063-3.47-1.646-5.852-2.374-7.937-2.281" fill="#fff" fill-opacity=".96"/><path d="m539.836 441.403c4.297-.017 14.64 4.217 15.468 6.75 1.019 3.117-4.99 3.582-6.875.532-.715-1.158-3.07-2.094-5.25-2.094-4.24 0-7.453-3.3-4.781-4.907.322-.193.824-.28 1.438-.28" fill="#a00" fill-opacity=".941"/><path d="m530.961 457.403c-1.544.141-2.52.894-3.844 2.219-7.39 7.39 3.314 17.474 26.593 25.063 13.513 4.404 13.386 4.381 17.72 2.718 1.831-.703 3.312-3.533 3.312-6.281 0-5.846-14.995-15.469-33.188-21.281-5.058-1.616-7.91-2.408-9.875-2.438-.245-.004-.498-.02-.718 0" fill="#fff" fill-opacity=".96"/><path d="m531.836 463.435c4.47 0 32.723 12.37 36.53 16 5.586 5.322-6.134 3.368-20.593-3.438-7.307-3.44-14.067-6.25-15.031-6.25s-2.302-1.42-2.969-3.156c-.756-1.971.026-3.157 2.063-3.157" fill="#a00" fill-opacity=".941"/><path d="m522.117 477.028c-3.625.223-6.187 3.193-9.594 9.782-2.73 5.28-2.678 5.809.656 5.593 4.9-.316 42.625 21.144 42.625 24.25 0 1.342 1.52.274 3.375-2.375s3.033-5.02 2.625-5.281c-.407-.26-5.66-2.704-11.687-5.437-9.047-4.103-10.64-5.585-9.063-8.532 2.578-4.816-2.338-11.578-11.656-16-2.597-1.232-4.702-1.933-6.531-2a8 8 0 0 0 -.75 0" fill="#fff" fill-opacity=".96"/><path d="m520.554 482.372c3.88.013 16.313 8.018 16.313 10.5 0 3.102-2.203 2.604-11.063-2.531-7.932-4.598-10.148-7.984-5.25-7.969" fill="#a00" fill-opacity=".941"/><path d="m509.586 494.903-4.25 4.282c-2.341 2.34-4.282 5.052-4.282 6.03 0 4.269 8.863 9.012 23.969 12.876 17.695 4.525 20.25 5.63 20.25 8.625 0 2.642-7.665 2.502-12.75-.219-6.587-3.525-4.684-.698 2.75 4.063 8.201 5.252 7.504 5.152 11.219 1.437 4.45-4.45 3.633-11.225-1.75-14.719-2.606-1.69-11.078-4.159-18.844-5.5-7.766-1.34-15.346-3.935-16.844-5.75-2.421-2.932-1.7-3.152 6.469-2.062l9.188 1.218-7.563-5.125zm-16.938 21.219c-.579-.037-3.704 3.26-6.937 7.313s-4.831 7.375-3.563 7.375c3.353 0 30.57 23.369 33.781 29 3.235 5.672 5.576 5.233 11-2.032 4.552-6.097 2.707-12.427-4.843-16.468-5.257-2.813-5.263-1.885.03 4.218 4.791 5.524 5.202 7.557 1.907 9.594-1.272.786-5.771-2.11-10-6.469-7.067-7.285-7.276-7.824-2.438-6.406 5.191 1.522 5.19 1.468-.843-3.906-7.083-6.31-7.873-6.593-6.22-2.282 1.894 4.934-1.767 3.624-9.5-3.406-4.994-4.54-6.42-7.08-4.843-8.656s3.895-1.161 7.813 1.406c3.055 2.002 6.044 3.112 6.656 2.5 1.048-1.048-9.738-11.638-12-11.781m-19.031 18.875a2.04 2.04 0 0 0 -2.032 2.031c0 1.105-4.403 5.363-9.78 9.469-7.1 5.42-8.677 7.479-5.782 7.563 3.69.107 28.714 29.121 31.594 36.625.95 2.475 1.977 2.586 5.218.562 2.214-1.382 4.032-3.246 4.032-4.125 0-.88-1.232-1.594-2.719-1.594s-4.287-2.596-6.219-5.781c-1.931-3.184-6.183-8.62-9.468-12.094-11.755-12.428-17.632-24.145-11.95-24.145 3.078 0 31.917 31.348 33.637 36.427 1.201 3.546 1.854 3.38 7.438-1.97 7.32-7.014 7.481-8.603 1.53-14.937-6.36-6.771-8.32-6.064-4.5 1.594 1.77 3.546 2.555 7.079 1.75 7.875-2.12 2.1-32.874-31.716-31.687-34.844.55-1.447.06-2.656-1.062-2.656m-26.344 24.188c-3.067.199-5.156 2.303-5.156 6.375 0 12.156 21.412 39.766 29.906 38.562 3.145-.446 5.061-2.348 5.5-5.437.656-4.62-8.43-22.323-16.031-31.25-4.564-5.361-9.735-8.187-13.594-8.25-.213-.003-.42-.014-.625 0" fill="#fff" fill-opacity=".96"/><path d="m446.679 563.591c.06-.019.143-.004.219 0 2.924.136 18.187 17.772 21.875 25.843 1.934 4.234 3.891 8.382 4.344 9.25 1.838 3.528-3.138 1.263-6.938-3.156-7.132-8.294-19.868-28.501-19.781-31.406.009-.293.1-.475.281-.531" fill="#a00" fill-opacity=".941"/><path d="m434.773 566.591c-.87 0-16.171 8.225-17.437 9.375-.751.682 5.68 15.875 6.718 15.875.454 0 .316-4.016-.312-8.938-1.362-10.673-.78-10.282 7.344 4.75 3.441 6.37 8.277 15.154 10.75 19.532 2.472 4.377 4.5 9.323 4.5 11 0 2.515.944 2.61 5.437.562 4.567-2.08 4.953-2.842 2.344-4.75-1.712-1.251-6.545-8.696-10.719-16.562s-9.02-16.362-10.781-18.875c-4.994-7.13.645-7.238 6.656-.125l5.125 6.062-4.344-8.969c-2.388-4.921-4.76-8.937-5.281-8.937m-19.781 10.625-8 3.343c-10.326 4.28-10.011 3.7-5.719 10.25 4.672 7.131 17.688 36.962 17.688 40.532 0 2.069 1.773 1.947 7.78-.563 4.284-1.79 8.19-3.658 8.688-4.156s-1.053-4.972-3.437-9.937l-4.313-9.032.375 9.25c.511 12.455-3.153 12.959-7.562 1.063-2.934-7.917-3.058-9.496-.625-8.563 2.458.943 2.586.016.75-5.25-1.592-4.566-2.714-5.605-3.938-3.625-2.125 3.438-2.779 2.746-6.844-7.062-4.169-10.062-.858-12.485 6.063-4.438 5.897 6.857 6.423 5.725 2.125-4.562z" fill="#fff" fill-opacity=".96"/><path d="m584.503 322.967c-.194 1.227.637 3.561-1.436 4.805-3.165 1.898-10.242 2.599-15.646 3.494-4.828.8-12.078 2.174-14.86 1.502-2.372-.572-.67-3.009-.444-4.436.49-3.102 8.138-6.818 17.081-8.3 8.943-1.48 15.795-.167 15.305 2.935" fill="#a00" fill-opacity=".941"/><path d="m515.203 372.983a201.019 201.019 0 0 1 -201.02 201.02 201.019 201.019 0 0 1 -201.02-201.019 201.019 201.019 0 0 1 201.02-201.02 201.019 201.019 0 0 1 201.02 201.02z" fill="#d40000" stroke="#fff" stroke-width="7.000393"/><path d="m425.497 527.29-111.634-79.936-112.062 79.2 41.527-130.872-109.953-82.103 137.3-.947 44.107-129.943 43.328 130.287 137.214 1.794-110.522 81.47z" fill="#fff"/><path d="m74.807 0v130.03l5.812 2.438 94.34 52.83s52.87-35.896 131.441-41.61c78.572-5.715 142.661 43.222 142.661 43.222l99.464-56.004v-130.906zm6.312 4.218h463.219v121.532l-25.813 14.687c-14.185 8.07-35.264 20.143-46.843 26.844s-21.533 12.478-22.125 12.812c-.593.335-3.431-1.126-6.313-3.218s-13.282-8.02-23.125-13.188c-41.51-21.791-88.853-30.414-136.5-24.875-34.028 3.956-65.04 15.14-102.469 36.969l-6.312 3.687-29.094-16.562c-15.988-9.117-33.503-19.145-38.937-22.281-5.435-3.136-13.44-7.38-17.782-9.438l-7.906-3.75zm4.219 6.313v55.687c0 55.344.043 55.732 4.75 59.125 10.42 7.512 82.738 47.313 85.969 47.313 1.901 0 5.707-1.798 8.468-3.969 8.883-6.981 34.009-18.648 52.407-24.344 9.842-3.047 20.744-6.51 24.218-7.718 9.109-3.167 69.166-4.797 85.282-2.313 15.438 2.38 39.973 8.598 43.156 10.938 1.158.851 4.932 2.21 8.406 3.03 7.576 1.793 30.842 13.419 41.969 20.97 4.4 2.986 8.612 5.119 9.344 4.718 31.4-17.194 49.983-27.636 50.812-28.562 1.127-1.258 13.213-8.024 25.25-14.125 13.14-6.66 12.656-4.065 12.656-64.813v-55.936h-452.687m213.719 10.531c32.2 0 45.25 6.185 45.25 21.406v8.063h-17.907c-17.146 0-17.875-.211-17.906-4.75-.048-7.118-3.023-10.448-8.625-9.656-4.185.591-5.031 1.94-5.031 7.968 0 7.816-.29 7.637 32.969 19.875 14.529 5.347 20.718 12.424 20.718 23.75 0 11.41-4.879 19.257-14.437 23.25-7.369 3.08-39.138 5.361-48.719 3.5-20.416-3.965-29.465-11.477-29.469-24.468l-.03-7.907h37.906v8.438c0 8.248.158 8.406 7.5 8.406 7.367 0 7.486-.132 6.843-7.844-.652-7.827-.687-7.858-20.593-15.625-10.976-4.282-22.845-10.088-26.344-12.906-5.567-4.482-6.344-6.457-6.344-15.781 0-19.369 10.91-25.719 44.219-25.719m169.656.156c2.015.024 4.127.082 6.312.157 20.15.69 23.153 1.328 31.063 6.562 7.843 5.19 8.75 6.675 8.75 14.188v8.406h-37.625l-.656-6.844c-.552-5.72-1.507-6.844-5.907-6.844-4.394 0-5.388 1.127-5.937 6.813-.619 6.408.047 7.112 10.937 12.094 6.367 2.912 12.808 5.312 14.313 5.312s7.709 2.506 13.812 5.594c9.148 4.628 11.468 6.937 13.125 13.156 3.897 14.625-1.58 26.537-14.687 32-8.535 3.557-39.784 4.196-53.531 1.094-15.51-3.5-22.25-10.328-22.25-22.5v-8.313h37.906v8.438c0 7.973.332 8.406 6.375 8.406 7.017 0 9.498-3.568 7.625-11.031-.873-3.479-4.698-6.061-14.438-9.75-35.445-13.423-41.307-18.929-38.937-36.594 2.033-15.157 13.515-20.698 43.75-20.344m-364.406 1.938h69.718l-.656 8.937-.656 8.97-13.156.624-13.157.625v16.625h27.375v18.969h-27.625l.657 8.937.656 8.938 13.25.656 13.281.625-.625 8.844-.656 8.844-32.75.562c-18.017.318-33.419-.075-34.219-.875s-1.437-21.671-1.437-46.375z" fill="#d40000"/><g fill-opacity=".941"><path d="m403.921 101.987-16.37-11.866-16.579 11.573 6.227-19.236-16.13-12.19 20.219-.022 6.61-19.108 6.268 19.222 20.215.382-16.344 11.902zm-167.686 0-16.37-11.866-16.578 11.573 6.227-19.236-16.13-12.19 20.219-.022 6.61-19.108 6.268 19.222 20.215.382-16.344 11.902zm-129.116 12.365c-1.719-.48-1.974-5.626-2.517-50.79l-.483-40.179h69.586l-.429 6.25c-.71 10.342-.804 10.66-3.322 11.164-1.219.244-4.216.444-6.66.444s-7.386.208-10.982.464l-6.538.464v16.929h27.857v18.571h-28.003l.45 5.179c.248 2.848.633 7.027.857 9.285l.407 4.108 3.68.062c7.445.125 21.82 1.055 22.202 1.436.549.55-.68 15.54-1.327 16.187-.562.563-62.823.972-64.779.426m178.222-.264c-10.698-1.945-21.788-7.228-25.185-11.999-2.54-3.567-3.667-7.806-3.667-13.795v-5.625h37.143v6.833c0 9.45.113 9.596 7.437 9.596 7.59 0 7.925-.344 7.318-7.514-.247-2.932-.856-6.005-1.353-6.827-1.134-1.88-4.739-3.72-17.33-8.847-16.558-6.743-25.692-11.439-29.587-15.213-4.442-4.303-5.4-7.518-4.73-15.885.81-10.118 4.108-15.412 11.738-18.836 8.18-3.67 27.045-5.43 43.747-4.078 16.606 1.344 26.08 4.741 30.338 10.88 1.9 2.74 2.084 3.575 2.311 10.465l.247 7.488-16.318-.52c-12.746-.407-16.573-.75-17.482-1.565-.705-.63-1.293-2.585-1.488-4.944-.54-6.516-5.103-9.58-10.752-7.22-2.275.95-2.618 1.442-3.06 4.383-.635 4.24-.014 8.028 1.612 9.827 1.933 2.14 6.852 4.416 21.89 10.13 7.522 2.858 15.074 5.912 16.783 6.787 4.191 2.145 9.188 6.863 11 10.385 1.844 3.583 2.506 12.472 1.292 17.331-1.775 7.102-7.304 13.08-14.418 15.59-7.067 2.494-39.353 4.65-47.486 3.173" fill="#fff"/><path d="m204.345 99.6c0-.117 1.286-4.04 2.857-8.717s2.857-8.534 2.857-8.57c0-.037-3.214-2.448-7.142-5.358-3.93-2.91-7.143-5.547-7.143-5.86s4.109-.569 9.131-.569h9.132l2.523-7.678c1.572-4.783 2.892-7.679 3.5-7.679.607 0 1.92 2.875 3.477 7.613l2.502 7.612 9.528.51 9.528.51-6.268 4.578c-3.447 2.517-6.864 4.977-7.592 5.466-1.273.856-1.235 1.193.995 8.73 1.276 4.31 2.49 8.296 2.699 8.855.612 1.643-1.414.531-8.485-4.66l-6.495-4.766-7.394 5.097c-6.717 4.632-8.21 5.52-8.21 4.886m168.315-1.752c.267-1.08 1.398-4.677 2.514-7.991s2.028-6.433 2.028-6.93-3.053-3.234-6.785-6.083-6.786-5.427-6.786-5.728c0-.3 4.054-.637 9.01-.747l9.009-.2 2.663-7.5c1.59-4.478 3.05-7.5 3.622-7.5.594 0 1.857 2.885 3.32 7.582l2.361 7.582 9.472.632 9.471.633-7.321 5.302c-4.027 2.916-7.321 5.661-7.321 6.1 0 .629 3.136 11.347 4.658 15.92.555 1.668-.91.899-7.823-4.108-3.797-2.75-7.037-5-7.202-5-.164 0-3.513 2.25-7.441 5s-7.32 5-7.538 5-.178-.884.089-1.964m91.328 16.168c-16.716-.728-26.006-3.543-31.934-9.678-3.383-3.501-4.775-7.517-5.334-15.38l-.446-6.289h38.071v6.833c0 9.143.29 9.596 6.152 9.596 4.255 0 4.867-.195 6.848-2.176 1.968-1.968 2.143-2.51 1.84-5.674-.647-6.724-3.038-8.591-19.283-15.056-21.484-8.55-29.856-13.703-33.128-20.39-1.713-3.5-1.859-4.442-1.568-10.104.727-14.143 7.24-20.457 23.782-23.055 6.345-.996 34.005-.99 41.071.01 7.4 1.046 9.555 1.846 15.715 5.832 7.633 4.939 8.163 5.86 8.458 14.72l.243 7.32h-37.273v-2.821c0-1.552-.346-4.437-.77-6.41-.7-3.266-.996-3.651-3.297-4.287-5.945-1.641-8.79 1.108-8.79 8.496 0 2.716.372 3.966 1.523 5.117 2.172 2.172 14.784 7.955 22.792 10.452 8.857 2.76 20.086 8.326 23.516 11.654 5.52 5.357 7.166 17.654 3.45 25.763-3.917 8.545-11.778 13.597-23.067 14.824-10.01 1.087-16.22 1.24-28.571.702z" fill="#fff"/><path d="m439.345 174.049c-40.698-24.232-77.696-35.533-120.714-36.872-47.015-1.464-86.815 9.342-134.643 36.555-4.714 2.682-8.893 4.872-9.286 4.867s-16.976-9.297-36.852-20.648-40.66-22.889-46.188-25.639l-10.05-5-.062-61.25-.062-61.25h462.857v120.414l-18.036 10.289a18332 18332 0 0 0 -47.582 27.293c-16.25 9.352-29.59 16.999-29.642 16.993-.054-.006-4.436-2.595-9.74-5.752m30.137-10.75c10.729-5.94 24.167-13.61 29.863-17.044 5.697-3.434 15.118-8.736 20.937-11.783 12.588-6.592 14.283-7.914 15.83-12.348 1.71-4.901 2.458-26.781 2.49-72.848l.029-38.75h-453.573l.04 48.036c.045 53.417.374 61.68 2.574 64.663.79 1.07 4.301 3.75 7.804 5.96 12.47 7.861 79.104 43.406 79.104 43.406 98.664-59.125 192.063-51.855 274.152 1.507.684 0 10.022-4.86 20.75-10.8" fill="#fff"/><path d="m285.661 115.845c-10.988-1.997-22.38-7.424-25.869-12.325-2.61-3.664-3.766-8.018-3.766-14.17v-5.777h38.152v7.018c0 9.707.116 9.857 7.64 9.857 7.795 0 8.139-.354 7.516-7.718-.254-3.012-.88-6.168-1.39-7.013-1.165-1.93-4.867-3.82-17.802-9.088-17.007-6.925-26.388-11.749-30.39-15.625-4.563-4.42-5.546-7.723-4.859-16.317.832-10.393 4.22-15.83 12.057-19.348 8.402-3.77 27.78-5.577 44.937-4.189 17.056 1.38 26.787 4.87 31.161 11.176 1.952 2.815 2.142 3.672 2.375 10.75l.253 7.69-16.762-.534c-13.092-.418-17.023-.77-17.957-1.607-.723-.648-1.327-2.655-1.528-5.078-.555-6.694-5.242-9.841-11.043-7.417-2.338.977-2.69 1.481-3.143 4.502-.653 4.355-.015 8.246 1.655 10.095 1.985 2.197 7.038 4.536 22.485 10.405 7.726 2.935 15.483 6.072 17.238 6.971 4.306 2.204 9.438 7.05 11.3 10.668 1.893 3.68 2.574 12.81 1.327 17.802-1.823 7.294-7.503 13.435-14.81 16.013-7.26 2.562-40.422 4.777-48.777 3.259m-181.542-92.462h69.586l.542 18.93-28.473-.144v16.929h27.857v18.571l-26.171.884-.117 17.688 27.018.362.315 18.649-69.735.394zm360.807 93.397c-17.447-.76-27.143-3.698-33.33-10.1-3.53-3.654-4.985-7.846-5.567-16.053l-.466-6.564h39.736v7.132c0 9.543.302 10.015 6.42 10.015 4.441 0 5.08-.203 7.148-2.27 2.054-2.054 2.237-2.62 1.92-5.922-.675-7.019-3.17-8.967-20.125-15.715-22.424-8.924-31.162-14.302-34.577-21.281-1.788-3.654-1.94-4.637-1.636-10.546.758-14.762 7.556-21.352 24.821-24.063 6.623-1.04 35.492-1.033 42.867.01 7.724 1.092 9.972 1.926 16.402 6.086 7.967 5.156 8.52 6.118 8.827 15.364l.254 7.641h-38.902v-2.945c0-1.62-.362-4.63-.803-6.69-.731-3.41-1.04-3.811-3.442-4.474-6.205-1.714-9.174 1.156-9.174 8.867 0 2.835.388 4.14 1.589 5.34 2.267 2.268 15.43 8.304 23.789 10.91 9.244 2.88 20.964 8.69 24.544 12.164 5.761 5.59 7.48 18.424 3.6 26.888-4.088 8.92-12.293 14.192-24.075 15.472-10.447 1.135-16.93 1.295-29.82.733z" fill="#fff"/><path d="m464.926 116.78c-17.447-.76-27.143-3.698-33.33-10.1-3.53-3.654-4.985-7.846-5.567-16.053l-.466-8.836 19.615.252 20.373-.252.253 9.404c0 9.543-.203 10.015 5.915 10.015 4.441 0 5.08-.203 7.148-2.27 2.054-2.054 2.237-2.62 1.92-5.922-.675-7.019-3.17-8.967-20.125-15.715-22.424-8.924-31.162-14.302-34.577-21.281-1.788-3.654-1.94-4.637-1.636-10.546.758-14.762 7.556-21.352 24.821-24.063 6.623-1.04 35.492-1.033 42.867.01 7.724 1.092 9.972 1.926 16.402 6.086 7.967 5.156 8.52 6.118 8.827 15.364l.254 7.641h-38.902v-2.945c0-1.62-.362-4.63-.803-6.69-.731-3.41-1.04-3.811-3.442-4.474-6.205-1.714-9.174 1.156-9.174 8.867 0 2.835.388 4.14 1.589 5.34 2.267 2.268 15.43 8.304 23.789 10.91 9.244 2.88 20.964 8.69 24.544 12.164 5.761 5.59 7.48 18.424 3.6 26.888-4.088 8.92-12.293 14.192-24.075 15.472-10.447 1.135-16.93 1.295-29.82.733z" fill="#fff"/><path d="m439.345 174.049c-40.698-24.232-77.696-35.533-120.714-36.872-47.015-1.464-86.815 9.342-134.643 36.555-4.714 2.682-8.893 4.872-9.286 4.867s-16.976-9.297-36.852-20.648-40.66-22.889-46.188-25.639l-10.05-5-.062-61.25-.062-61.25h462.857v120.414l-18.036 10.289a18332 18332 0 0 0 -47.582 27.293c-16.25 9.352-29.59 16.999-29.642 16.993-.054-.006-4.436-2.595-9.74-5.752m30.137-10.75c10.729-5.94 24.167-13.61 29.863-17.044 5.697-3.434 15.118-8.736 20.937-11.783 12.588-6.592 14.283-7.914 15.83-12.348 1.71-4.901 2.458-26.781 2.49-72.848l.029-38.75h-453.573l.04 48.036c.045 53.417.374 61.68 2.574 64.663.79 1.07 4.301 3.75 7.804 5.96 12.47 7.861 79.104 43.406 79.104 43.406 98.664-59.125 192.063-51.855 274.152 1.507.684 0 10.022-4.86 20.75-10.8" fill="#fff"/></g><path d="m255.711 662.168c11.965 30.535 58.215 51.964 58.215 51.964 41.607-14.464 61.071-52.143 61.071-52.143v-108.571l-119.464 1.428z" fill="#d40000" stroke="#a00" stroke-opacity=".941" stroke-width="3"/><path d="m258.868 660.662c11.33 28.918 55.129 49.21 55.129 49.21 39.401-13.697 57.834-49.378 57.834-49.378v-102.817l-113.132 1.353z" fill="none" stroke="#fafafa" stroke-width="3"/><path d="m276.275 564.585h-1.706c-3.021 1.974-6.579 2.814-12.33 2.898v2.352h2.048c4.337.042 4.337.042 4.337 3.528v14.91c0 2.604 0 2.814-.341 3.15-.439.462-1.462.63-4.045.63h-1.56v2.268h19.445v-2.268h-1.56c-2.485 0-3.557-.168-3.947-.63-.34-.336-.34-.504-.34-3.15zm27.886 15.918c0 1.848 0 2.268-.097 3.276-.536 6.006-2.68 8.946-6.58 8.946-1.071 0-1.656-.336-1.656-.84q0-.378.292-.756c.877-1.218.975-1.47.975-2.394 0-2.016-1.657-3.402-4.094-3.402-2.68 0-4.63 1.764-4.63 4.2 0 3.276 3.558 5.376 9.065 5.376 5.02 0 9.064-1.764 11.599-5.082 2.436-3.108 3.703-7.14 3.703-11.718 0-3.822-.974-6.72-3.021-9.114-2.486-2.856-6.043-4.41-10.137-4.41-7.066 0-12.183 4.242-12.183 10.08 0 4.956 4.094 8.61 9.65 8.61 3.02 0 5.067-.798 7.114-2.772m-4.19-13.734c1.266 0 2.338.672 2.923 1.89.634 1.218 1.072 3.486 1.072 5.418 0 3.696-1.56 6.048-4.045 6.048-1.364 0-2.68-.756-3.265-1.806-.536-1.008-.828-2.52-.828-4.62 0-4.578 1.413-6.93 4.142-6.93m37.438 16.381-.536 2.1c-.439 1.68-.731 2.225-1.12 2.435-.488.294-.586.294-3.656.336h-9.405c1.705-1.26 2.972-2.058 4.873-3.15 6.774-3.78 8.285-4.746 9.698-6.3 1.657-1.89 2.631-4.116 2.631-6.09 0-4.494-5.117-7.896-11.988-7.896-6.628 0-11.745 3.696-11.745 8.484 0 2.94 1.9 4.83 4.825 4.83 2.534 0 4.142-1.386 4.142-3.57 0-1.806-.926-2.856-3.167-3.78-.536-.21-.78-.462-.78-.798 0-1.344 2.631-2.772 5.068-2.772 3.411 0 5.36 1.806 5.36 4.914 0 3.486-1.559 5.964-6.724 10.71-5.459 4.956-7.36 6.888-9.796 9.912v1.974c1.267-.126 1.852-.168 2.534-.168h18.324c.829 0 1.51.042 2.973.168l1.12-11.34zm12.389-11.97c2.29.42 4.24.63 6.14.63 4.045 0 7.36-1.177 9.211-3.235.926-1.05 1.657-2.604 1.657-3.528 0-.252-.146-.462-.39-.462-.195 0-.487.042-.78.126-1.608.336-5.02.588-8.82.588-4.045 0-6.482-.168-9.503-.714-.195 3.36-.488 6.51-1.121 13.776-1.072.924-1.267 1.218-1.267 1.89 0 .882.78 1.554 1.803 1.554 1.072 0 1.998-.756 1.998-1.68 0-.168-.049-.42-.098-.672 1.462-1.05 3.412-1.596 5.41-1.596 3.655 0 5.507 2.31 5.507 6.846 0 5.082-2.096 7.812-5.995 7.812-2.193 0-4.288-.882-4.288-1.764 0-.252.146-.378.585-.588 1.9-.798 2.631-1.596 2.631-3.024 0-2.058-1.657-3.444-4.142-3.444-2.827 0-4.678 1.68-4.678 4.284 0 4.2 4.386 6.93 11.11 6.93 7.993 0 13.451-4.242 13.451-10.416 0-5.46-5.117-9.492-12.134-9.492-2.29 0-3.802.336-7.018 1.596zm-74.527 24.98h-1.103l-1.275 1.727c-1.373-1.427-2.697-2.028-4.413-2.028-3.775 0-6.349 3.38-6.349 8.376 0 4.583 2.207 7.851 6.055 8.94l1.52.451c1.57.451 2.06.639 2.648 1.127.686.564 1.078 1.69 1.078 3.005 0 2.63-1.397 4.395-3.53 4.395-2.77 0-5.197-3.343-6.545-8.977h-1.25l.147 10.63h1.103l1.52-2.216c1.495 1.728 3.064 2.517 5.025 2.517 3.825 0 6.472-3.682 6.472-8.94 0-4.771-1.839-7.438-6.08-8.866l-1.176-.413c-1.888-.563-1.888-.563-2.5-.901-1.104-.601-1.668-1.69-1.668-3.23 0-2.292 1.373-3.945 3.31-3.945 2.55 0 4.584 2.742 6.03 8.076h1.3zm12.183-.301c-2.378 0-4.388 1.051-5.982 3.193-2.059 2.704-3.285 6.949-3.285 11.344 0 7.963 3.825 13.71 9.144 13.71 2.5 0 4.437-.938 6.08-2.93 2.108-2.591 3.285-6.423 3.285-10.818 0-4.357-1.25-8.64-3.285-11.306-1.643-2.18-3.555-3.193-5.957-3.193m.024 1.953c1.324 0 2.354.977 3.065 2.892.809 2.254 1.25 5.635 1.25 9.692 0 7.625-1.52 11.757-4.315 11.757-1.421 0-2.451-.939-3.137-2.892-.81-2.329-1.25-5.635-1.25-9.579 0-4.057.416-7.062 1.25-9.203.71-1.84 1.691-2.667 3.137-2.667m17.528 4.019c0-2.366 0-2.516.171-2.817.221-.413.76-.563 2.035-.563h.368v-2.029h-9.536v2.029h.367c1.275 0 1.79.15 2.01.563.172.3.172.45.172 2.817v11.908c0 3.155.172 4.733.638 6.048 1.005 2.817 3.383 4.32 6.839 4.32 3.138 0 5.025-1.277 6.227-4.17.686-1.69.882-3.38.882-7.813v-7.55c0-3.306.123-4.283.638-5.11q.588-.957 2.059-1.013v-2.029h-6.987v2.029c.956.037 1.618.375 2.01 1.014.515.826.638 1.765.638 5.108v7.55c0 3.081-.098 4.546-.417 5.598-.71 2.366-2.133 3.568-4.167 3.568-1.398 0-2.452-.638-3.138-1.84-.54-1.014-.81-2.855-.81-5.597zm27.529-5.671h-1.103l-1.275 1.727c-1.373-1.427-2.696-2.028-4.412-2.028-3.776 0-6.35 3.38-6.35 8.376 0 4.583 2.207 7.851 6.055 8.94l1.52.451c1.57.451 2.06.639 2.648 1.127.686.564 1.078 1.69 1.078 3.005 0 2.63-1.397 4.395-3.53 4.395-2.77 0-5.197-3.343-6.545-8.977h-1.25l.147 10.63h1.103l1.52-2.216c1.495 1.728 3.064 2.517 5.025 2.517 3.825 0 6.472-3.682 6.472-8.94 0-4.771-1.838-7.438-6.08-8.866l-1.176-.413c-1.888-.563-1.888-.563-2.5-.901-1.104-.601-1.668-1.69-1.668-3.23 0-2.292 1.373-3.945 3.31-3.945 2.55 0 4.584 2.742 6.03 8.076h1.3zm16.375 0h-1.103l-1.275 1.727c-1.373-1.427-2.697-2.028-4.413-2.028-3.775 0-6.349 3.38-6.349 8.376 0 4.583 2.206 7.851 6.055 8.94l1.52.451c1.569.451 2.06.639 2.648 1.127.686.564 1.078 1.69 1.078 3.005 0 2.63-1.397 4.395-3.53 4.395-2.77 0-5.197-3.343-6.545-8.977h-1.25l.147 10.63h1.103l1.52-2.216c1.495 1.728 3.064 2.517 5.025 2.517 3.824 0 6.472-3.682 6.472-8.94 0-4.771-1.839-7.438-6.08-8.866l-1.176-.413c-1.888-.563-1.888-.563-2.5-.901-1.104-.601-1.668-1.69-1.668-3.23 0-2.292 1.373-3.945 3.31-3.945 2.55 0 4.584 2.742 6.03 8.076h1.3zm18.801.262h-16.449v2.029h.368c1.275 0 1.79.15 2.01.563.172.3.172.45.172 2.817v16.303c0 2.367 0 2.517-.172 2.817-.22.414-.735.564-2.01.564h-.368v2.028h16.646l.294-10.104h-1.3c-1.029 5.634-2.77 8.076-5.736 8.076h-.735c-1.201 0-1.52-.075-1.814-.526-.319-.45-.392-.864-.392-2.104v-8.339h.416c1.912 0 3.114 1.878 3.383 5.334h1.324v-12.734h-1.324c-.27 3.456-1.47 5.334-3.383 5.334h-.416v-6.799c0-1.54.049-1.953.245-2.404.27-.563.858-.826 1.863-.826h.686c1.814 0 3.31 1.014 4.143 2.78.515 1.126 1.054 3.004 1.422 4.958h1.275zm-90.08 30.348h-15.18l-.344 11.982h1.215c.298-3.272.62-4.996 1.17-6.544.733-2.122 1.604-3.139 2.66-3.139.687 0 .825.31.825 1.813v21.443c0 2.785 0 2.962-.16 3.316-.207.486-.689.663-1.904.663h-.504v2.388h9.263v-2.388h-.504c-1.215 0-1.697-.177-1.903-.663-.16-.354-.16-.53-.16-3.316v-21.443c0-1.504.137-1.813.825-1.813.986 0 1.742.796 2.476 2.609.642 1.635 1.009 3.492 1.353 7.074h1.215zm7.558 6.367c0-2.786 0-2.963.16-3.316.207-.487.712-.664 1.904-.664h.344v-2.387h-8.92v2.387h.344c1.192 0 1.674.177 1.88.664.16.353.16.53.16 3.316v14.015c0 3.714.161 5.57.597 7.118.94 3.316 3.164 5.085 6.397 5.085 2.935 0 4.701-1.503 5.825-4.908.642-1.99.825-3.979.825-9.196v-8.887c0-3.89.115-5.04.596-6.013q.551-1.127 1.926-1.194v-2.387h-6.535v2.387c.895.045 1.514.443 1.88 1.194.482.973.597 2.078.597 6.013v8.887c0 3.625-.092 5.35-.39 6.588-.665 2.785-1.995 4.2-3.898 4.2-1.307 0-2.293-.752-2.935-2.167-.505-1.193-.757-3.36-.757-6.587zm18.458-6.367h-5.778v2.432c1.032.044 1.857.884 2.43 2.476v17.42c0 3.89-.114 4.995-.596 5.968-.366.752-.894 1.105-1.88 1.194v2.387h6.535v-2.387c-.986-.088-1.559-.442-1.926-1.194-.481-.973-.596-2.078-.596-5.969v-14.546l10.662 24.45h1.537v-22.637c0-3.935.114-5.04.596-6.013q.55-1.127 1.926-1.194v-2.387h-6.535v2.387c.894.045 1.513.443 1.88 1.194.482.973.596 2.122.596 6.013v10.39zm15.959 25.555c0 2.785 0 2.962-.16 3.316-.207.486-.688.663-1.88.663h-.344v2.388h8.92v-2.388h-.345c-1.192 0-1.696-.177-1.903-.663-.16-.354-.16-.486-.16-3.316v-19.188c0-2.83 0-2.963.16-3.316.207-.487.711-.664 1.903-.664h.344v-2.387h-8.92v2.387h.344c1.193 0 1.674.177 1.88.664.161.353.161.53.161 3.316zm20.622-25.865h-1.031l-1.193 2.034c-1.284-1.68-2.522-2.387-4.127-2.387-3.531 0-5.939 3.979-5.939 9.86 0 5.393 2.064 9.24 5.664 10.522l1.421.53c1.468.531 1.927.752 2.477 1.327.642.663 1.009 1.99 1.009 3.537 0 3.095-1.307 5.173-3.302 5.173-2.591 0-4.861-3.935-6.122-10.567h-1.17l.138 12.512h1.032l1.421-2.608c1.399 2.033 2.866 2.962 4.7 2.962 3.578 0 6.054-4.333 6.054-10.523 0-5.615-1.72-8.754-5.686-10.434l-1.1-.486c-1.767-.664-1.767-.664-2.34-1.062-1.032-.707-1.559-1.99-1.559-3.802 0-2.697 1.284-4.642 3.096-4.642 2.384 0 4.287 3.227 5.64 9.506h1.216zm4.861 25.865c0 2.785 0 2.962-.16 3.316-.207.486-.689.663-1.88.663h-.345v2.388h8.92v-2.388h-.344c-1.192 0-1.697-.177-1.903-.663-.16-.354-.16-.486-.16-3.316v-19.188c0-2.83 0-2.963.16-3.316.206-.487.71-.664 1.903-.664h.344v-2.387h-8.92v2.387h.344c1.192 0 1.674.177 1.88.664.16.353.16.53.16 3.316zm22.892-25.555h-15.386v2.387h.344c1.193 0 1.674.177 1.88.664.16.353.16.53.16 3.316v19.188c0 2.785 0 2.962-.16 3.316-.206.486-.687.663-1.88.663h-.344v2.388h15.57l.275-11.894h-1.216c-.963 6.632-2.59 9.506-5.365 9.506h-.688c-1.124 0-1.422-.088-1.697-.619-.298-.53-.367-1.017-.367-2.476v-9.815h.39c1.789 0 2.912 2.21 3.164 6.278h1.239v-14.988h-1.239c-.252 4.068-1.375 6.278-3.164 6.278h-.39v-8.002c0-1.813.046-2.3.23-2.83.252-.663.802-.973 1.742-.973h.642c1.697 0 3.096 1.194 3.875 3.272.482 1.327.986 3.537 1.33 5.836h1.193z" fill="#fff"/><path d="m323.911 699.442-9.956-6.982-9.86 7.115 3.563-11.626-9.814-7.18 12.158-.203 3.796-11.552 3.95 11.5 12.16.04-9.717 7.311z" fill="#fff"/></svg>