<svg viewBox="2 2 231.05 250" xmlns="http://www.w3.org/2000/svg"><path d="m117.554 252.019a5.627 5.627 0 0 1 -2.609-.64c-1.833-.957-45.16-23.964-73.013-62.545-27.19-37.604-39.93-74.385-39.93-115.767v-65.445a5.622 5.622 0 0 1 5.621-5.622h219.827a5.623 5.623 0 0 1 5.623 5.622v65.445c0 41.292-12.674 78.085-39.886 115.823-27.854 38.57-71.18 61.577-73.013 62.544a5.618 5.618 0 0 1 -2.62.585" fill="#fff"/><path d="m7.624 7.622v65.445c0 33.016 8.051 69.865 38.862 112.45 27.404 37.94 71.068 60.846 71.068 60.846s43.675-22.839 71.112-60.824c30.767-42.618 38.818-79.468 38.818-112.449v-65.468z" fill="#fff"/><path d="m46.481 185.525c-30.808-42.615-38.86-79.45-38.86-112.463v-65.44h219.81v65.44c0 33.012-8.05 69.859-38.815 112.44-27.401 37.937-71.061 60.841-71.061 60.841s-43.672-22.837-71.074-60.818"/><path d="m225.775 8.882v63.96c0 39.751-12.269 75.252-38.56 111.64-25.03 34.702-64.354 57.023-69.875 60.048-5.521-3.036-44.845-25.346-69.92-60.048-26.304-36.299-38.539-71.832-38.539-111.64v-63.959z" fill="#fff"/><path d="m219.736 73.315h-101.361v164.03c11.593-6.826 43.033-26.988 64.095-56.09 25.414-35.164 37.3-69.404 37.424-107.636v-.214z" fill="#ad1122"/><path d="m14.787 73.315v.293c.123 38.232 12.054 72.428 37.423 107.557 21.028 29.102 52.468 49.275 64.095 56.135v-163.985z" fill="#fbbd1b"/><path d="m65.321 156.28h-17.688v-67.38h17.688v30.586l24.39-30.586h20.354l-26.64 31.171 27.967 36.21h-21.68l-20.343-26.933-4.048 4.96z" fill="#ad1122"/><path d="m187.621 135.06c0 6.624-2.834 11.988-8.49 16.137-5.656 4.15-13.347 6.207-23.074 6.207a65.519 65.519 0 0 1 -14.618-1.461 73.355 73.355 0 0 1 -11.707-3.733v-16.148h1.9a40.923 40.923 0 0 0 12.123 6.623 39.37 39.37 0 0 0 12.886 2.305c1.057 0 2.452-.082 4.184-.248a16.457 16.457 0 0 0 4.228-.877 10.425 10.425 0 0 0 3.294-2.012 4.77 4.77 0 0 0 1.304-3.61 4.82 4.82 0 0 0 -1.9-3.812 13.553 13.553 0 0 0 -5.532-2.474c-2.53-.584-5.24-1.124-8.063-1.675a69.126 69.126 0 0 1 -7.983-2.013c-5.701-1.844-9.795-4.318-12.291-7.467a18.248 18.248 0 0 1 -3.756-11.694c0-6.245 2.83-11.361 8.49-15.35 5.622-3.935 12.92-5.948 21.792-5.948a66.693 66.693 0 0 1 13.224 1.304 62.826 62.826 0 0 1 11.245 3.228v15.506h-1.833a36.557 36.557 0 0 0 -10.008-5.488 34.65 34.65 0 0 0 -12.122-2.248 30.378 30.378 0 0 0 -4.351.292 17.26 17.26 0 0 0 -4.139 1.125 7.965 7.965 0 0 0 -3.036 2.057 4.497 4.497 0 0 0 -1.27 3.15 4.643 4.643 0 0 0 2.023 4.07c1.35.967 3.925 1.799 7.726 2.598 2.496.505 4.857 1 7.14 1.506a72.837 72.837 0 0 1 7.388 1.968c5.195 1.675 8.996 3.98 11.492 6.87a16.678 16.678 0 0 1 3.734 11.313" fill="#fbbd1b"/><path d="m118.364 237.359a3.035 3.035 0 0 1 -.922.63 10 10 0 0 0 -1.124-.63v-164.05h-101.534v-2.102h205.057v2.103h-101.477z"/><path d="m93.49 71.212h76.06a6.265 6.265 0 0 1 -1.766-.753 1.983 1.983 0 0 1 -.416-1.597c.124-.888-.46-1.304-1.304-.585a29.515 29.515 0 0 1 -2.44 1.9c-.799.507-1.933-.381-2.867-1.472a14.766 14.766 0 0 1 -1.9-3.835 5.972 5.972 0 0 0 -1.98-2.564c-.674-.416-1.057-.382-1.057.248a2.058 2.058 0 0 0 .844 1.641 1.125 1.125 0 0 1 .367.914 1.122 1.122 0 0 1 -.49.852c-.63.382-3.374.214-4.589.416a6.749 6.749 0 0 1 -4.25-.753c-1.057-.754-1.9-2.193-2.732-2.25-.832-.055-1.81.507-2.699.417a5.86 5.86 0 0 1 -3.834-1.732 23.275 23.275 0 0 1 -2.7-3.16c-.337-.55-1.011-.55-1.686-.123s-1.125.584-.585.584 1.012.248.968.889c-.046.64-.8 1.124-1.9 1.057a17.881 17.881 0 0 1 -5.478-1.395c-1.855-.843-3.07-1.9-4.003-1.81s-3.373.292-4.42.337c-1.045.045-1.765-.292-2.023-1.125-.26-.831-.844-1.124-1.9-1.011-1.058.112-2.25.55-3.16-.248-.911-.798-1.766-1.731-1.305-1.731.46 0 1.226-.338 1.81 0 .585.337 1.012.416.754-.169-.259-.585-1.012-.967-2.361-1.597a24.975 24.975 0 0 1 -3.115-1.642c-.72-.46-1.81-.798-2.25.124s-.843 1.125-1.472 1.125c-.63 0-.923-.17-.923-.844s-.63-.753-1.012-.46c-.382.292-.629.719-.123.753.506.033.338.382-.168.922s-1.125.753-1.305 1.642a4.047 4.047 0 0 1 -1.934 3.204 21.368 21.368 0 0 1 -3.373 2.396c-1.012.46-2.148 1.011-3.543 1.562a20.885 20.885 0 0 1 -2.654 1.125c-.46 0-.888-.293-.382-.754.506-.46.293-1.057-.123-1.563-.417-.505-.754-1.056-.214-1.562.54-.507 1.125-.675 1.35-.923.225-.247-.248-.416-.889-.123-.64.292-1.518 1.124-2.361 1.518a11.884 11.884 0 0 1 -2.53 1.417 5.126 5.126 0 0 0 -2.564 1.855 5.264 5.264 0 0 1 -1.9 1.518c-.462.293-1.305.967-1.305 1.226s.168.247.798 0a6.628 6.628 0 0 0 2.25-1.057c.72-.585.72-1.125 1.226-1.687a5.618 5.618 0 0 1 1.9-1.124c.753-.416 1.304-1.012 1.978-1.305.675-.292.63.214.506 1.057a1.394 1.394 0 0 1 -1.124 1.35 6.749 6.749 0 0 0 -2.226 1.282 17.95 17.95 0 0 0 -2.103 1.731c-.506.551-.585 1.125 0 1.057a2.466 2.466 0 0 1 1.687.799c.247.337.584 1.124 1.124 1.124s1.304.551 1.304-.337 0-1.124-.72-1.226c-.72-.1-1.056-.506-1.056-.888s.46-.675 1.012-.461a1.26 1.26 0 0 0 1.641-.338c.675-.72.889-1.225 1.597-1.473a8.992 8.992 0 0 1 2.564-.168 2.41 2.41 0 0 0 1.665-.686 3.588 3.588 0 0 1 2.069-.416 3.023 3.023 0 0 0 1.855-1.057 20.626 20.626 0 0 1 1.9-2.316c.585-.551 1.013-.169.923.46a5.906 5.906 0 0 1 -.844 3.037 6.818 6.818 0 0 0 -1.563 2.901 2.383 2.383 0 0 1 -.967 2.193c-.967.753-1.765.584-1.731.967.033.382.674.506.337.843-.337.338.078.754-.383 1.125-.46.37-.213.416-.123.416.088-.001.336.336.336.336m-30.991 0h21.05s-.123-.337-.753-.382-1.395-.293-1.395-.551 0-.506.293-.63c.292-.124.292-.292-.63-.247a11.003 11.003 0 0 1 -2.822-.124c-.338-.168-.213-1.225.213-1.304.428-.079.675-.416.889-.551s0-.416-.585-.079a3.034 3.034 0 0 1 -1.9.169 13.031 13.031 0 0 0 -1.765-.551 11.849 11.849 0 0 0 -4.499.258 53.42 53.42 0 0 1 -5.431 1.125 25.717 25.717 0 0 1 -4.375.169c-2.192-.08-2.777-.08-2.563.213a2.069 2.069 0 0 0 1.394.675c.585 0 1.732.169 2.361.169s1.125.337 1.125.63a1.923 1.923 0 0 1 -.607 1.011m-38.323 0h36.467a1.124 1.124 0 0 0 -.888-.55 6.645 6.645 0 0 1 -2.361-.417 3.747 3.747 0 0 0 -2.542-.168 6.438 6.438 0 0 1 -1.9.674c-.461 0-1.125-.214-2.193-1.124a3.014 3.014 0 0 0 -2.25-1.057c-.415.079-1.472.753-1.933.798a16.656 16.656 0 0 0 -2.362.416 13.808 13.808 0 0 1 -3.665.461c-1.057 0-3.79.079-4.589-.078-.798-.157-3.879-.551-4.97-.585a12.652 12.652 0 0 0 -4.25.551 14.559 14.559 0 0 0 -2.564 1.08m-9.39-6.703v6.747h2.958s.967-.585 1.125-1.124a2.36 2.36 0 0 1 .798-1.473 2.654 2.654 0 0 1 1.9-.799c.72 0 1.35 0 1.125-.292-.225-.293-.551-.72.213-.923.765-.202 1.732-.63.967-.753a1.124 1.124 0 0 1 -.762-.446 1.124 1.124 0 0 1 -.205-.858c0-.72.079-1.057 1.563-1.856a14.93 14.93 0 0 1 3.036-1.35c.417 0 .63-.381-.506-.381a7.206 7.206 0 0 0 -3.834 1.225 25.51 25.51 0 0 0 -3.71 2.485c-1.125.844-1.597 1.012-2.486.675-.888-.337-.967-.888-1.26-.922a1.985 1.985 0 0 0 -.921.045" fill="#2d3359"/><path d="m14.742 63.206s2.103-.945 4.723-1.968a592.486 592.486 0 0 1 6.195-2.395c1.698-.641 3.576-.213 4.926-.213a5.307 5.307 0 0 0 3.744-1.417c1.226-1.125 2.148-1.968 3.576-1.755a22.481 22.481 0 0 0 6.747.17 19.443 19.443 0 0 0 7.872-2.182c2.069-1.237 3.834-3.205 6.23-4.836 2.395-1.63 5.858-3.463 7.578-5.048 1.721-1.586 2.317-2.823 4.498-4.667 2.182-1.844 2.946-2.013 3.374-1.968.427.045 0 .945-1.226 1.923s-1.057 1.496.293.304a42.14 42.14 0 0 1 5.015-4.498c1.428-1.125 2.406-1.754 2.991-2.182a3.012 3.012 0 0 0 1.124-1.326 17.433 17.433 0 0 1 1.35-2.565c1.056-1.63 1.9-1.968 1.934-.595.033 1.371-.461 3.126-.383 3.553a3.827 3.827 0 0 0 1.9 1.945c.923.473 1.9 1.204 2.149-.123.247-1.327.382-3.722 1.057-4.499.674-.776 1.056-1.124 1.81-.596.753.529 1.934 1.024.889-.168-1.046-1.192-2.149-2.092-2.149-2.868s0-1.417 1.125-.123c1.124 1.293 2.99 3.08 3.16 3.722.168.64-.124 1.124-.922 1.326a4.12 4.12 0 0 0 -1.766 1.327c-.293.382.292.124.888-.169.596-.292 1.474-.764 1.474.383a2.624 2.624 0 0 1 -.675 2.013c-.383.517.416 1.203.843.899a2.484 2.484 0 0 0 .877-2.249c0-1.203.416-1.372 1.26-1.124.843.247 1.642.382 1.124-.383a8.846 8.846 0 0 1 -1.889-2.564 6.164 6.164 0 0 0 -2.44-3.373c-1.563-1.203-2.699-2.012-2.699-2.35s0-.9 1.766-1.203a43.495 43.495 0 0 1 4.801-.551c1.226 0 2.148.517 3.115.337s1.057-.73 2.317-.337 1.472 1.203.505 1.799-1.123 1.237-1.123 1.45.506.731 1.933 1.586c2.654 1.585 3.666 2.182 3.666 3.17 0 .99-.55 1.328-1.563 1.125-1.011-.202-1.9-.945-1.978-.337-.08.607.213 1.417 1.304 2.013a25.804 25.804 0 0 0 4.082 1.327c1.732.55 2.991.9 3.666 1.585a3.042 3.042 0 0 1 .64 1.203 1.124 1.124 0 0 0 1.057.81 3.115 3.115 0 0 0 1.518-.427 14.17 14.17 0 0 1 4.42-1.631c1.979-.427 3.204-.337 3.665 0a11.78 11.78 0 0 0 2.07 1.63c.843.383 2.103.732 2.069-.213 0-.765-.214-1.496.675-1.124a29.532 29.532 0 0 0 6.229 2.698 16.872 16.872 0 0 0 9.187.473c1.687-.338 2.25 0 2.407.124.157.123.416.303.843-.09.753-.732 1.057-.945 1.934 0 .877.944.888 1.922.585 2.35-.304.427-1.012.168-1.563.168a2.37 2.37 0 0 0 -1.563 1.417c0 .382.889.9 1.978 1.586 1.092.686 2.07 1.203 2.947.213a4.66 4.66 0 0 1 2.485-1.45c.461 0 .754.213.754.944s-.72.9-.214 1.327 1.057 1.023 1.057-.168-.169-2.25.079-2.564c.247-.315.753-.214.922.596a4.211 4.211 0 0 0 1.057 1.968 1.383 1.383 0 0 1 .55 1.54 1.801 1.801 0 0 0 .63 1.844c.55.518.922.428 1.124-.472a5.735 5.735 0 0 1 1.057-2.744 2.813 2.813 0 0 1 1.81-.472c.416 0 .383-.428-.247-1.54a2.409 2.409 0 0 1 -.383-2.182c.169-.383.967-.518 1.429-1.125.46-.607.123-1.282-.72-1.8-.844-.516-1.855-.471-2.362-.764a1.27 1.27 0 0 1 -.55-1.664 2.482 2.482 0 0 1 1.81-1.124c.585 0 1.304.09 1.125.596-.18.505-.383.764-.844.81-.46.044-.124.258.55.303a6.757 6.757 0 0 1 2.193.764c.63.304 1.597.99 1.597.473s.585-1.327 1.226-1.327c.64 0 .844-.551 1.124-1.125.28-.573.383-.55.753-.55.372 0 .89.426.585.899a1.034 1.034 0 0 0 .214 1.203c.342.43.287 1.052-.124 1.417a1.497 1.497 0 0 0 -.754 1.968 5.62 5.62 0 0 1 -.168 3.89 2.25 2.25 0 0 1 -1.956 1.541c-.506 0-1.124.169-1.518 1.282s-.293 1.496.337 1.496.506.686.461 1.416c-.045.731-.247 1.125-1.012 1.125a1.462 1.462 0 0 0 -1.686 1.124 4.154 4.154 0 0 0 -.338 2.25 2.35 2.35 0 0 0 1.597.595c.674 0 1.056.686 1.517 1.496s.416 2.058.754 2.058c.337 0 .675-.26.585-1.237-.09-.978 0-1.71.584-1.923a1.124 1.124 0 0 1 1.518.9 18.555 18.555 0 0 1 .337 3.845c0 1.63.338 2.137 1.395 2.35 1.057.214 2.44.17 3.16 1.327.72 1.159.753 2.058.213 2.61a2.247 2.247 0 0 0 -.888 1.708 11.65 11.65 0 0 0 .674 1.755c.124.427.248 1.023.799-.09a4.768 4.768 0 0 1 1.596-2.137c.585-.304 1.226-.338 1.473.214a2.584 2.584 0 0 1 -.337 2.35 16.889 16.889 0 0 1 -1.81 2.012h41.707v-5.734s-.923-1.282-4.892-3.295c-2.699-1.372-4.723-1.923-8.007-3.295a16.712 16.712 0 0 1 -6.364-4.104c-1.81-1.8-4.386-3.936-7.872-7.017a130.83 130.83 0 0 0 -12.549-8.996 41.018 41.018 0 0 1 -7.871-6.42c-2.361-2.52-3.576-3.374-4.498-3.464s-2.575 1.124-3.374 1.799a.54.54 0 0 1 -.399.176.54.54 0 0 1 -.399-.176c-.674-.686-2.249-2.013-3.62-1.968-2.148.09-7.377 4.925-9.694 6.59a15.042 15.042 0 0 1 -8.175 2.305 21.247 21.247 0 0 1 -9.558-2.092c-2.485-1.237-6.196-3.373-8.895-5.173a51.21 51.21 0 0 1 -8.793-8.152 14.757 14.757 0 0 0 -2.676-2.587 1.619 1.619 0 0 0 -1.395-.09 20.022 20.022 0 0 0 -2.406 1.237.753.753 0 0 1 -.888-.09c-.417-.337-1.125-.944-1.98-1.664a17.976 17.976 0 0 0 -2.822-1.968 2.057 2.057 0 0 0 -1.687 0c-1.012.338-2.744 1.023-5.397 2.137-4.499 1.844-5.184 2.091-7.242 3.89-2.058 1.8-5.735 4.79-10.66 9.154-4.926 4.363-7.242 6.42-10.402 9.288a81.441 81.441 0 0 1 -11.886 8.299c-3.666 2.137-7.624 2.991-12.684 3.632-6.32.854-8.805 1.495-12.595 2.99-3.79 1.496-7.039 2.542-10.57 4.004-3.53 1.462-4.801 2.091-4.801 2.091v.596z" fill="#2d3359"/><path d="m214.98 62.453c-2.7-1.35-4.723-1.901-8.006-3.24a16.725 16.725 0 0 1 -6.365-4.047c-1.81-1.765-4.386-3.88-7.872-6.905a130.83 130.83 0 0 0 -12.549-8.838 40.906 40.906 0 0 1 -7.87-6.32c-2.363-2.485-3.577-3.373-4.5-3.373s-2.575 1.124-3.372 1.765a.55.55 0 0 1 -.798 0c-.675-.675-2.25-1.979-3.622-1.934-2.148.079-7.376 4.847-9.692 6.488a15.228 15.228 0 0 1 -8.176 2.25 21.528 21.528 0 0 1 -9.558-2.07c-2.485-1.226-6.196-3.373-8.895-5.094a50.917 50.917 0 0 1 -8.894-7.871 14.697 14.697 0 0 0 -2.61-2.677 1.641 1.641 0 0 0 -1.394-.078 20.108 20.108 0 0 0 -2.406 1.225.765.765 0 0 1 -.888-.078 150.97 150.97 0 0 1 -1.979-1.642 17.985 17.985 0 0 0 -2.822-1.935 2.084 2.084 0 0 0 -1.688 0c-1.011.338-2.743 1.013-5.397 2.103-4.498 1.81-5.184 2.07-7.242 3.835s-5.735 4.711-10.66 8.996c-4.925 4.284-7.242 6.32-10.402 9.142a81.415 81.415 0 0 1 -11.886 8.175c-3.666 2.103-7.624 2.946-12.684 3.576-6.32.843-8.805 1.473-12.594 2.946s-7.04 2.496-10.57 3.958c-3.531 1.462-4.802 2.07-4.802 2.07v-47.678h205.073v50.601c-.034-.112-.967-1.372-4.88-3.35" fill="#89c2eb"/><path d="m84.179 70.537a3.814 3.814 0 0 0 1.9-.213c.461-.293.124-.169-.506-.124a15.016 15.016 0 0 1 -1.731.124c-.461-.045-.416.213.337.213" fill="#2d3359"/><path d="m112.201 67.333c.561-.3.801-.978.551-1.563a3.377 3.377 0 0 0 -1.596-1.226c-.675-.213-.417-1.124-1.125-1.428s-1.124-.338-1.765-.63-1.563-.551-1.428-.169c.135.383.753.799 1.35 1.125a4.056 4.056 0 0 1 1.562 1.596c.55.889.754 1.473 1.305 1.642.55.17.831.787 1.146.653" fill="#fff"/><path d="m131.812 59.461a3.298 3.298 0 0 1 -2.25-.292 5.834 5.834 0 0 1 -2.023-1.473c-1.012-1.012-1.9-1.732-2.53-2.44s-1.124-1.35-.416-1.35a7.767 7.767 0 0 1 2.823 1.429c.798.551 1.641 1.473 2.867 2.248 1.226.776 2.575 1.766 1.53 1.878" fill="#2d3359"/><path d="m111.808 57.313c-.8 0-1.305 0-.461.416a8.155 8.155 0 0 0 2.698 1.26c.513-.022.977.306 1.125.798.213.461 1.349.799 2.316.753.967-.045 2.53-.123 2.7.17.167.292.212.674 1.517.629 1.304-.045 2.395-.338 2.316-.63a1.764 1.764 0 0 0 -1.642-.753 13.238 13.238 0 0 1 -2.53-.551 9.122 9.122 0 0 1 -2.99-.382 7.638 7.638 0 0 0 -1.901-1.013c-.675-.123-1.518-.382-1.934-.46a6.904 6.904 0 0 0 -1.214-.237m-10.323 1.766a3.107 3.107 0 0 1 -1.473.967c-.461 0-1.124.754-.506.754s.214.584-.382 1.057a1.495 1.495 0 0 0 -.551 1.765c.292.461.888 1.057 1.35.72.46-.337.966-1.012.966-.382s.416.63 1.012.416.888-1.057 1.642-1.226 1.125-.922.799-1.012c-.327-.09-.248-.754.168-1.125a5.515 5.515 0 0 0 1.428-1.642 3.46 3.46 0 0 1 1.305-1.394c.55-.382.72-.72.337-1.26-.382-.539-.078-.506.292-.55.372-.045.754-.72.417-1.057a1.743 1.743 0 0 0 -1.305-.675c-.55 0-.629-.416-1.012-.72s-.72.169-.629.72c.09.551-.079 1.305-.584 1.305-.507 0-.754-.585-1.125-.844-.371-.258-.922.169-.63.72.293.55 1.013.72 1.013 1.394 0 .675.123.754.753.214a6.43 6.43 0 0 1 1.26-.889c.292-.123.55.293-.293.923a8.984 8.984 0 0 0 -2.024 1.934c-.46.72-.798 1.473-1.304 1.732-.506.258-.675 0-.461-.383.213-.382.754-.798.754-1.35-.003-.55-.835-.483-1.217-.112m14.528 3.925c-.72 0-.967.46-1.473.505s-.843.416-.292.416a11.564 11.564 0 0 1 2.36.72c.923.337 1.519 1.012 2.778 1.057a12.97 12.97 0 0 1 3.71.169 7.983 7.983 0 0 0 3.24.72h3.373a3.633 3.633 0 0 1 1.765.247c.754.292 1.597.63.754.63s-1.305.246-1.012.674a3.035 3.035 0 0 0 2.25.843c.888 0 2.36.416 3.283.338.922-.08 1.731-.124 1.123-.417a5.622 5.622 0 0 0 -2.53-.753c-1.225 0-2.485-.46-1.596-.46s.922-.507.248-.586c-.675-.078-1.305-.382-.417-.382.889 0 1.124-.337.63-.72a2.72 2.72 0 0 0 -1.934-.46 25.545 25.545 0 0 1 -2.564.337c-.552-.124-.889-.675-1.642-.799a11.953 11.953 0 0 0 -2.53.169c-.585 0-1.563-.169-1.124-.382.438-.214-.079-.798-.967-.844-.889-.045-1.81-.078-3.115-.168s-1.473-.337-1.057-.506.079-.63-.843-.63a21.575 21.575 0 0 0 -2.418.282m43.585-25.74c-.843.169-1.349.124-1.349.584 0 .461-.506.63-1.057.461-.55-.168-.967 0-.967.416s-.505 1.057-.123 1.518.753.799 1.124.337c.371-.46 1.012.17 1.124.72.113.551.72.754 1.057 1.518.338.765 1.012 1.057 1.057.124s-.63-.967-.169-1.35c.461-.382.8-.382 1.26-.72.46-.337.46-.798 0-1.349-.46-.55-.292-.967-.754-1.517a1.327 1.327 0 0 0 -1.203-.742m15.676 11.503c-.63 0-1.26.169-.844.63a4.703 4.703 0 0 0 1.867 1.26 1.303 1.303 0 0 1 1.012 1.304 3.109 3.109 0 0 0 .889 2.069 3.855 3.855 0 0 0 2.564.63c.63-.17.72-.968-.169-1.519s-1.057-1.012-1.518-1.124c-.46-.113-.382-.169.214-.506.595-.338 1.304-.585.168-1.226a11.15 11.15 0 0 0 -2.867-1.124 4.246 4.246 0 0 0 -1.316-.394m6.86-2.361c-1.125 0-1.597.292-1.597.72 0 .427.461.416 1.226.753s2.317.416 2.823.922c.505.506.247.922 1.123 1.26.878.337 1.125.843.462.72-.664-.124-1.474-.585-1.9-.585a.56.56 0 0 0 -.498.404.562.562 0 0 0 .204.608 3.285 3.285 0 0 0 2.149.888 4.151 4.151 0 0 1 2.484.967 7.974 7.974 0 0 0 2.53 1.687 7.215 7.215 0 0 1 2.564.72 7.988 7.988 0 0 1 2.834 2.137 10.71 10.71 0 0 0 3.373 2.563c1.563.799 1.98 1.012.585.889a16.742 16.742 0 0 1 -4.88-1.057c-1.564-.72-3.037-1.766-4.341-2.25-1.304-.483-2.699-.46-2.991 0-.293.462-.248.675.46 1.429a3.733 3.733 0 0 0 2.485 1.428 10.132 10.132 0 0 1 3.576.55 17.105 17.105 0 0 0 3.914.968 6.3 6.3 0 0 1 2.867.675c1.057.585 1.35 1.012 1.934 1.012.585 0 1.304-.461.506-1.26-.799-.798-1.057-1.124-.382-.843s1.933.843 3.115 1.304c1.18.462 2.99 1.305 4.374 1.687 1.383.383 2.193.799 2.777.461.585-.337.551-.72-.674-1.057a5.388 5.388 0 0 1 -2.677-1.383 6.208 6.208 0 0 0 -3.373-1.934 26.235 26.235 0 0 1 -5.262-1.44 5.422 5.422 0 0 1 -2.103-2.394 2.99 2.99 0 0 0 -2.16-1.833c-1.35-.461-1.642-.63-1.642-1.395s-.213-1.012-1.596-1.124c-1.383-.113-1.642-.72-1.766-1.124a2.844 2.844 0 0 0 -1.9-1.428 9.717 9.717 0 0 0 -2.564-.17c-.674 0-1.057-.246-1.934-1.123a5.492 5.492 0 0 0 -4.125-2.352" fill="#fff"/><path d="m88.35 186.18 2.485-1.226a.154.154 0 0 1 .124 0h2.823c.056 0 .11.022.15.064.041.04.064.094.064.15v17.688a.21.21 0 0 1 -.063.15.21.21 0 0 1 -.151.064h-3.374a.21.21 0 0 1 -.15-.064.21.21 0 0 1 -.063-.15v-13.966h-1.732c-.338 0-.383-.123-.383-.506v-1.743a.431.431 0 0 1 .27-.461m14.821 6.702a2.589 2.589 0 0 1 -.674-1.934 2.744 2.744 0 0 1 .72-2.024 2.781 2.781 0 0 1 1.979-.72 2.925 2.925 0 0 1 2.069.72 2.857 2.857 0 0 1 .72 2.07 2.248 2.248 0 0 1 -.799 1.855 3.107 3.107 0 0 1 -2.103.72 2.397 2.397 0 0 1 -1.878-.697zm-2.653-6.747a5.994 5.994 0 0 0 -1.766 4.498 6.668 6.668 0 0 0 1.474 4.498 4.96 4.96 0 0 0 3.913 1.732 4.841 4.841 0 0 0 2.777-.674 3.228 3.228 0 0 0 1.26-1.429 6.986 6.986 0 0 1 -1.125 4.082 3.375 3.375 0 0 1 -2.721 1.069 4.902 4.902 0 0 1 -2.53-.63 5.432 5.432 0 0 1 -1.9-1.9s-.079-.079-.124-.079h-.169a.255.255 0 0 0 -.168 0s-.079.078-.079.124l-.247 3.238v.124a6.762 6.762 0 0 0 2.485 1.765 8.164 8.164 0 0 0 3.07.585 6.085 6.085 0 0 0 5.386-2.564c1.125-1.687 1.687-4.375 1.687-8.04 0-2.778-.551-4.847-1.642-6.151a6.328 6.328 0 0 0 -5.094-1.98 6.749 6.749 0 0 0 -4.487 1.732" fill="#ad1122"/><path d="m128.192 199.146a2.49 2.49 0 0 1 -.8-1.934 2.397 2.397 0 0 1 .8-1.98 3.187 3.187 0 0 1 2.193-.72 2.372 2.372 0 0 1 2.698 2.7 2.487 2.487 0 0 1 -.798 1.934 2.736 2.736 0 0 1 -1.934.754 3.48 3.48 0 0 1 -2.16-.754m-3.204-11.92c-1.012 1.563-1.518 3.959-1.518 7.118a11.046 11.046 0 0 0 1.732 6.747 6.005 6.005 0 0 0 5.049 2.316 6.273 6.273 0 0 0 4.666-1.845 6.28 6.28 0 0 0 1.822-4.677 5.627 5.627 0 0 0 -1.473-4.003 5.26 5.26 0 0 0 -3.958-1.518 5.135 5.135 0 0 0 -2.778.72 5.955 5.955 0 0 0 -1.518 1.563 8.078 8.078 0 0 1 .72-3.373 3.374 3.374 0 0 1 3.373-1.856 5.618 5.618 0 0 1 2.395.462 4.407 4.407 0 0 1 1.688 1.517.212.212 0 0 0 .168.079h.168a.283.283 0 0 0 .214-.168l.248-3.374a.159.159 0 0 0 0-.124 5.99 5.99 0 0 0 -2.362-1.641 8.138 8.138 0 0 0 -2.946-.506 6.252 6.252 0 0 0 -5.69 2.563m21.016 11.92a2.487 2.487 0 0 1 -.798-1.934 2.396 2.396 0 0 1 .798-1.98 3.187 3.187 0 0 1 2.193-.72 2.37 2.37 0 0 1 2.03.67 2.372 2.372 0 0 1 .67 2.03 2.489 2.489 0 0 1 -.799 1.934 2.733 2.733 0 0 1 -1.912.765 3.297 3.297 0 0 1 -2.182-.765m-3.238-11.92c-1.012 1.563-1.518 3.959-1.518 7.118a11.046 11.046 0 0 0 1.731 6.747 6.006 6.006 0 0 0 5.05 2.316 6.273 6.273 0 0 0 4.666-1.845 6.276 6.276 0 0 0 1.822-4.677 5.625 5.625 0 0 0 -1.473-4.003 5.26 5.26 0 0 0 -3.958-1.518 5.137 5.137 0 0 0 -2.778.72 5.955 5.955 0 0 0 -1.518 1.563 8.07 8.07 0 0 1 .72-3.373 3.373 3.373 0 0 1 3.373-1.856 5.61 5.61 0 0 1 2.395.462 4.405 4.405 0 0 1 1.688 1.517.21.21 0 0 0 .168.079h.168a.282.282 0 0 0 .214-.168l.247-3.374a.155.155 0 0 0 0-.124 5.99 5.99 0 0 0 -2.361-1.641 8.138 8.138 0 0 0 -2.946-.506 6.252 6.252 0 0 0 -5.69 2.563" fill="#fbbd1b"/></svg>