<svg xmlns="http://www.w3.org/2000/svg" xmlns:xlink="http://www.w3.org/1999/xlink" data-name="Layer 1" viewBox="0 0 761.685 998.435"><defs><linearGradient id="b" x1="151.88" x2="153.128" y1="946.426" y2="946.426" gradientTransform="matrix(760.545 588.095 -592.911 766.773 445628.165 -814842.325)" gradientUnits="userSpaceOnUse"><stop offset="0" stop-color="#004071"/><stop offset=".52" stop-color="#00aeef"/><stop offset="1" stop-color="#004572"/></linearGradient><linearGradient id="d" x1="151.552" x2="152.797" y1="946.302" y2="946.302" gradientTransform="matrix(-.001 169.481 -143.836 -.001 136376.36 -25353.244)" gradientUnits="userSpaceOnUse"><stop offset="0" stop-color="#004071"/><stop offset=".48" stop-color="#00aeef"/><stop offset="1" stop-color="#003b60"/></linearGradient><linearGradient id="f" x1="151.336" x2="152.609" y1="945.988" y2="945.988" gradientTransform="matrix(-.001 112.431 -112.192 -.001 106508.87 -16784.474)" gradientUnits="userSpaceOnUse"><stop offset="0" stop-color="#004071"/><stop offset=".5" stop-color="#00aeef"/><stop offset="1" stop-color="#004470"/></linearGradient><linearGradient id="a" x1="151.482" x2="152.672" y1="945.917" y2="945.917" gradientTransform="matrix(-.001 57.58 -57.193 -.001 54502.588 -8307.411)" gradientUnits="userSpaceOnUse"><stop offset="0" stop-color="#004370"/><stop offset=".5" stop-color="#00aeef"/><stop offset="1" stop-color="#00436e"/></linearGradient><linearGradient xlink:href="#a" id="i" x1="151.8" x2="153.155" y1="946.394" y2="946.394" gradientTransform="matrix(.002 220.761 -194.899 .002 184890.513 -33140.736)"/><linearGradient xlink:href="#a" id="k" x1="152.474" x2="153.747" y1="945.638" y2="945.638" gradientTransform="matrix(-.002 70.861 -66.445 -.002 63490.081 -10353.939)"/><linearGradient xlink:href="#a" id="m" x1="152.225" x2="153.387" y1="946.862" y2="946.862" gradientTransform="matrix(-.007 164.66 -167.635 -.007 159199.778 -24278.735)"/><linearGradient xlink:href="#a" id="o" x1="151.753" x2="153.025" y1="946.787" y2="946.787" gradientTransform="matrix(0 93.537 -87.938 0 83600.546 -13594.48)"/><linearGradient xlink:href="#a" id="q" x1="150.908" x2="152.292" y1="946.858" y2="946.858" gradientTransform="matrix(64.817 35.982 -30.623 55.165 19297.99 -57231.587)"/><linearGradient xlink:href="#a" id="s" x1="151.861" x2="153.217" y1="947.278" y2="947.278" gradientTransform="matrix(-.001 144.289 -127.406 -.001 120952.346 -21089.465)"/><linearGradient xlink:href="#a" id="u" x1="153.171" x2="154.276" y1="946.462" y2="946.462" gradientTransform="matrix(62.884 34.911 -36.373 65.516 25421.033 -66730.423)"/><clipPath id="c" transform="translate(-40.178 -95.017)"><path d="M201.438 507.663l17.483-55.225-32.839-19.981 50.982-21.831 24.869-45.217 21.964 29.521 57.832-13.946-42.488 45.731 15.8 53.955-58.656-13.837-1.165-.279z" fill="none" clip-rule="evenodd"/></clipPath><clipPath id="e" transform="translate(-40.178 -95.017)"><path d="M373.482 356.014l-14.368-36.32-29.77-17.842 19.373-15.68-8.93-39.95 29.337 29.2 35.711-11.443-9.173 42.885 27.599 38.628-36.739-12.762z" fill="none" clip-rule="evenodd"/></clipPath><clipPath id="g" transform="translate(-40.178 -95.017)"><path d="M396.036 463.718l-14.369 6.854 6.046-18.242-7.42-13.396 13.858-1.538 9.507-17.594 3.801 18.151 18.235 3.474-16.553 13.766-.073 22.308z" fill="none" clip-rule="evenodd"/></clipPath><clipPath id="h" transform="translate(-40.178 -95.017)"><path d="M373.744 605.174l10.92-49.077-67.463-33.251 86.973-13.806 40.717-69.321 36.266 63.606 81.105 1.037-65.193 42.122 7.832 47.404-64.742-17.254z" fill="none" clip-rule="evenodd"/></clipPath><clipPath id="j" transform="translate(-40.178 -95.017)"><path d="M689.899 479.535l-27.806 3.242-20.95-20.044 1.145 24.758-19.361 7.407 22.52 10.73 5.85 19.099 13.93-11.722 25.04 6.871-13.557-19.957z" fill="none" clip-rule="evenodd"/></clipPath><clipPath id="l" transform="translate(-40.178 -95.017)"><path d="M455.529 962.939l22.187-60.404 52.427-21.015-36.417-35.004 11.816-57.905-36.6 41.404-29.162-11.345.864 49.019-28.422 44.215 32.793-1.413z" fill="none" clip-rule="evenodd"/></clipPath><clipPath id="n" transform="translate(-40.178 -95.017)"><path d="M309.291 700.911l10.88-22.533-22.684-8.676 38.079-16.762 24.169-34.376 2.657 24.797 23.332-5.731-24.661 22.585-4.455 21.134-20.597-.393z" fill="none" clip-rule="evenodd"/></clipPath><clipPath id="p" transform="translate(-40.178 -95.017)"><path d="M124.5 545.353q-.334 1.953-.654 3.9l15.69 5.09-9.317 22.115 37.791-15.794 40.768 6.156-15.722-18.79L213 535.267l-32.76 2.233-17.986-11.22-13.76 14.986z" fill="none"/></clipPath><clipPath id="r" transform="translate(-40.178 -95.017)"><path d="M183.524 878.287c33.08 43.393 74.359 73.921 113.694 95.212l-.8-17.392 47.226-18.045-54.92-26.184-14.283-46.56L240.46 893.9z" fill="none"/></clipPath><clipPath id="t" transform="translate(-40.178 -95.017)"><path d="M712.264 780.027a381 381 0 0 0 13.313-58.44L711.3 699.956l.68 41.5-32.931 18z" fill="none"/></clipPath></defs><path d="M25.962 58.165l16.187 93.04L51.4 266.883 38.681 367.716l-12.719 63.547-9.245 103.76 8.086 103.86 21.971 96.82 41.448 72.849 50.694 68.659 60.723 40.029 70.29 37.884s54.345 23.4 57.812 23.4 57.093 8.086 57.093 8.086l49.732-13.871 85.816-31.756 88.54-62.5 41.168-36.038 40.2-55.862 32.876-67.064 16.186-58.966 9.251-72.834v-72.115l-13.881-67.96-11.561-79.927-5.011-72.524V164.539l13.105-60.122 9.252-52.032-50.223 5.78-57.676 5.568h-129.3l-57.513-11.35-42.058-13.874-20.654-9.252-28.174 16.19-53.481 18.284-102.441 7.152-85.148-7.152-60.128-5.568z" fill="#fff" stroke="#231f20" stroke-miterlimit="10" stroke-width=".833"/><path d="M379.706 954.64c-42.849-7.97-189.35-44.02-273.038-172.626-39.768-61.28-59.913-136.3-59.894-223.006 0-48.269 6.255-100.775 18.588-156.066 9.507-42.858 14.322-90.451 14.322-141.462 0-48.391-4.279-99.372-12.732-151.536l-3.114-19.383 18.994 1.885c41.736 4.145 82.943 6.336 119.151 6.336 78.122 0 136.5-10.468 173.509-31.111l6.915-3.939 7.054 3.939c37.013 20.642 95.29 31.111 173.227 31.111 36.464 0 77.671-2.191 119.427-6.336l19.007-1.885-3.128 19.4a940.5 940.5 0 0 0-12.758 151.381c0 51.109 4.828 98.748 14.361 141.6 12.307 55.336 18.556 107.816 18.556 155.995.013 86.666-20.125 161.686-59.866 222.953-83.781 128.711-230.392 164.773-273.333 172.756l-2.7.472z" fill="#f47920"/><path d="M715.163 398.983c-26.76-120.41-9.082-249.344 3.841-315.485l2.466-12.617-12.705 1.491c-36.019 4.24-90.56 9.292-145.8 9.292-83.61 0-140.933-11.381-175.229-34.8l-5.241-3.579-5.247 3.579c-34.239 23.388-91.56 34.769-175.243 34.8-55.241 0-109.788-5.051-145.813-9.292l-12.715-1.489 2.473 12.621c12.929 66.14 30.627 195.079 3.853 315.479-35.743 160.85-21.028 293 43.752 392.793 91.286 140.658 255.289 174.982 287.237 180.426l1.57.273 1.558-.273c31.981-5.443 196.134-39.768 287.5-180.518 64.771-99.778 79.494-231.901 43.743-392.701" fill="none"/><path d="M782.369 486.765c-36.889-165.91 19.184-358.177 19.184-358.177s-319.8 48.3-377.7-33.571h-5.018c-57.891 81.874-378.653 34.9-378.653 34.9s60.75 191.236 23.861 357.143c-120.859 543.732 360.288 615.873 358.494 605.5-.004-.007 480.697-62.06 359.832-605.795M424.1 1067.219l-1.558.273-1.57-.273c-31.948-5.443-195.951-39.768-287.237-180.426C68.953 787 54.238 654.85 89.981 494c26.773-120.407 9.075-249.344-3.853-315.482L83.655 165.9l12.713 1.491c36.025 4.24 90.572 9.292 145.813 9.292 83.683-.033 141-11.414 175.243-34.8l5.247-3.579 5.241 3.579c34.3 23.42 91.619 34.8 175.229 34.8 55.241 0 109.782-5.051 145.8-9.292l12.705-1.491-2.466 12.617c-12.923 66.142-30.6 195.075-3.841 315.485C791.092 654.8 776.369 786.923 711.6 886.7c-91.369 140.751-255.521 175.075-287.5 180.519" transform="translate(-40.178 -95.017)" fill="url(#b)"/><path d="M379.706 954.64c-42.849-7.97-189.35-44.02-273.038-172.626-39.768-61.28-59.92-136.3-59.894-223.006 0-48.269 6.255-100.775 18.588-156.066 9.507-42.858 14.322-90.451 14.322-141.462 0-48.391-4.279-99.372-12.732-151.536l-3.114-19.383 18.994 1.885c41.736 4.145 82.943 6.336 119.151 6.336 78.122 0 136.5-10.468 173.509-31.111l6.915-3.939 7.054 3.939c37.013 20.642 95.29 31.111 173.227 31.111 36.464 0 77.671-2.191 119.427-6.336l19.007-1.885-3.128 19.4a940.5 940.5 0 0 0-12.758 151.381c0 51.109 4.828 98.748 14.361 141.6 12.307 55.336 18.556 107.816 18.556 155.995.013 86.666-20.125 161.686-59.866 222.953-83.781 128.711-230.392 164.773-273.333 172.756l-2.7.472z" fill="#ff5000"/><path d="M106.733 267.696c0 45.843-3.86 94.675-14.479 142.513q-17.7 79.27-17.607 147.6.02 121.283 55.044 206.072c77.212 119.264 216.221 152.827 252.671 159.566 36.463-6.739 175.6-40.33 252.886-159.658q54.873-84.637 55.04-206.046 0-68.19-17.6-147.531c-10.652-47.916-14.512-96.788-14.512-142.64 0-54.413 5.456-104.616 11.58-143.857-32.25 3.032-71.44 5.62-111.3 5.62-78.277-.019-136.012-10.1-175.988-31.425-39.917 21.3-97.664 31.379-175.969 31.425-39.872 0-79.083-2.588-111.32-5.62 6.1 39.26 11.555 89.526 11.555 143.984" fill="#002a54"/><path d="M427.829 207.162a11.7 11.7 0 0 0 .222 2.349 3.77 3.77 0 0 0 2.408 2.916 6.7 6.7 0 0 0 2.525.412 5.16 5.16 0 0 0 3.232-1.109 4.07 4.07 0 0 0 1.439-3.432 6 6 0 0 0-.353-2.143 4.2 4.2 0 0 0-1.171-1.626 8.3 8.3 0 0 0-2.147-1.318 32 32 0 0 0-3.278-1.214 28.5 28.5 0 0 1-4.508-1.809 12.2 12.2 0 0 1-3.173-2.3 8.15 8.15 0 0 1-1.871-3.045 12.2 12.2 0 0 1-.6-4q0-5.472 3.2-8.155t8.792-2.689a20.2 20.2 0 0 1 4.8.54 10.3 10.3 0 0 1 3.8 1.76 8.25 8.25 0 0 1 2.5 3.1 10.5 10.5 0 0 1 .9 4.518v1.034h-7.49a7.14 7.14 0 0 0-.976-4.054 3.67 3.67 0 0 0-3.251-1.42 5.6 5.6 0 0 0-2.172.36 3.66 3.66 0 0 0-1.388.955 3.26 3.26 0 0 0-.707 1.367 6.5 6.5 0 0 0-.188 1.6 5.14 5.14 0 0 0 .759 2.863 6.8 6.8 0 0 0 3.258 2.146l6.026 2.477a18.8 18.8 0 0 1 3.631 1.94 9.5 9.5 0 0 1 2.251 2.166 7.1 7.1 0 0 1 1.172 2.558 13.8 13.8 0 0 1 .326 3.1q0 5.839-3.559 8.493t-9.906 2.659q-6.615 0-9.468-2.734t-2.847-7.852v-1.5h7.813zm4.828 13.783c.327-.069.628-.124.9-.177a4.7 4.7 0 0 1 .9-.075 5.4 5.4 0 0 1 1.628.252 4.9 4.9 0 0 1 1.467.749 3.7 3.7 0 0 1 1.026 1.188 3.3 3.3 0 0 1 .38 1.626 4.18 4.18 0 0 1-1.733 3.592 8.5 8.5 0 0 1-5.045 1.266 16.2 16.2 0 0 1-3.284-.31 8.4 8.4 0 0 1-2.147-.67l1.033-2.378a6.8 6.8 0 0 0 1.655.55 10 10 0 0 0 2.088.228 3.44 3.44 0 0 0 1.931-.52 1.47 1.47 0 0 0 .785-1.24 1.52 1.52 0 0 0-.648-1.263 2.84 2.84 0 0 0-1.74-.491 5.4 5.4 0 0 0-1 .079 5 5 0 0 0-.844.232l-1.191-1.034 2.983-4.6h2.921zm82.649-13.783a11.3 11.3 0 0 0 .222 2.349 4 4 0 0 0 .811 1.78 3.9 3.9 0 0 0 1.6 1.136 6.7 6.7 0 0 0 2.525.412 5.13 5.13 0 0 0 3.226-1.109 4.05 4.05 0 0 0 1.438-3.432 6 6 0 0 0-.346-2.143 4.2 4.2 0 0 0-1.171-1.626 8.3 8.3 0 0 0-2.141-1.318 32 32 0 0 0-3.284-1.214 28 28 0 0 1-4.5-1.809 12.1 12.1 0 0 1-3.18-2.3 8.1 8.1 0 0 1-1.871-3.045 12.2 12.2 0 0 1-.6-4q0-5.472 3.2-8.155t8.794-2.689a20.3 20.3 0 0 1 4.8.54 10.4 10.4 0 0 1 3.8 1.76 8.36 8.36 0 0 1 2.493 3.1 10.5 10.5 0 0 1 .9 4.518v1.034h-7.485a7.1 7.1 0 0 0-.981-4.054 3.67 3.67 0 0 0-3.259-1.42 5.7 5.7 0 0 0-2.172.36 3.7 3.7 0 0 0-1.38.955 3.25 3.25 0 0 0-.708 1.367 7 7 0 0 0-.188 1.6 5.14 5.14 0 0 0 .758 2.863 6.85 6.85 0 0 0 3.259 2.146l6.021 2.477a19 19 0 0 1 3.644 1.94 9.6 9.6 0 0 1 2.243 2.166 7.1 7.1 0 0 1 1.172 2.558 13.7 13.7 0 0 1 .328 3.1q0 5.839-3.56 8.493t-9.906 2.659q-6.615 0-9.468-2.734t-2.846-7.852v-1.5h7.812zm4.828 13.783c.327-.069.622-.124.9-.177a4.8 4.8 0 0 1 .9-.075 5.4 5.4 0 0 1 1.63.252 5 5 0 0 1 1.466.749 3.7 3.7 0 0 1 1.026 1.188 3.26 3.26 0 0 1 .38 1.626 4.17 4.17 0 0 1-1.733 3.592 8.5 8.5 0 0 1-5.045 1.266 16.2 16.2 0 0 1-3.284-.31 8.3 8.3 0 0 1-2.145-.67l1.033-2.378a6.9 6.9 0 0 0 1.654.55 10 10 0 0 0 2.088.228 3.38 3.38 0 0 0 1.924-.52 1.48 1.48 0 0 0 .792-1.24 1.5 1.5 0 0 0-.655-1.263 2.8 2.8 0 0 0-1.732-.491 5.4 5.4 0 0 0-1 .079 5 5 0 0 0-.846.232l-1.189-1.034 2.977-4.6h2.932zm-20.89 323.382a121.8 121.8 0 0 0-28.3-29.939l-3.906-2.866a99.2 99.2 0 0 0 12.635-18.794 107.3 107.3 0 0 0 11.608-49.645c0-27.408-8.454-51.639-25.112-72.014-16.3-19.93-38.288-33.7-65.355-40.942-18.085-5.044-44.747-7.5-81.511-7.5h-81.57v170.676l-.007 22.17v94.831h.007v137.112h128.174c34.35 0 61.083-5.038 81.72-15.4 20.918-10.5 38.191-26.473 51.316-47.488a130.5 130.5 0 0 0 19.863-70.245c0-26.523-6.59-50.065-19.562-69.955m-18.987 128.408q-16.48 26.382-42.49 39.441t-71.859 13.059H259.796v-137.1h-.007v-72.663h.007v-21.45h72.042v.006h15.749q26.341 0 39.126-11.123t12.784-30.254a47 47 0 0 0-.353-5.745 35.3 35.3 0 0 0-5.353-15.251 34.6 34.6 0 0 0-6.437-7.328 34 34 0 0 0-3.794-2.8q-11.945-7.66-33.133-7.668h-18.589v57.583h-72.042V344.81h59.506q51.77 0 75.728 6.722 34 9.059 54.1 33.617 20.09 24.576 20.08 57.934 0 21.714-9.128 39.437t-29.717 33.227a1 1 0 0 1 .078.04 102.6 102.6 0 0 1-12.915 7.732q-26.006 13.056-71.852 13.064h-13.831v51.558h-.007v68.042h18.052q44.89 0 60.495-11.385 15.606-11.363 15.611-33.093 0-24.574-18.326-38.8-16.938-13.153-54.685-14.132c30.869-.682 55.293-5.706 74.451-15.324a123.7 123.7 0 0 0 24.017-15.808q18.746 12.642 29.339 28.842 15.96 24.438 15.959 57.8a108.05 108.05 0 0 1-16.494 58.453m-126.363-201.09v-35.54c10.463.415 15.6 2.7 17.8 4.119a11 11 0 0 1 1.3.941 12.4 12.4 0 0 1 2.336 2.624 13.4 13.4 0 0 1 1.923 5.813 25 25 0 0 1 .184 3.049c0 7.93-2.6 11.274-5.149 13.485-2.109 1.832-7.134 4.704-18.394 5.509m0 162.344v-23.686l.007-22.167v-7.154c25.5.863 36.168 6.281 40.291 9.474 6.738 5.233 9.741 11.79 9.741 21.251 0 9.146-3.12 12.693-6.5 15.153-1.573 1.148-10.87 6.71-43.539 7.129" fill="#fff"/><path d="M106.733 267.696c0 45.843-3.86 94.675-14.479 142.513q-17.7 79.27-17.607 147.6.02 121.283 55.044 206.072c77.212 119.264 216.221 152.827 252.671 159.566 36.463-6.739 175.6-40.33 252.886-159.658q54.873-84.637 55.04-206.046 0-68.19-17.6-147.531c-10.652-47.916-14.512-96.788-14.512-142.64 0-54.413 5.456-104.616 11.58-143.857-32.25 3.032-71.44 5.62-111.3 5.62-78.277-.019-136.012-10.1-175.988-31.425-39.911 21.3-97.664 31.379-175.969 31.425-39.872 0-79.083-2.588-111.32-5.62 6.1 39.26 11.555 89.526 11.555 143.984" fill="#002a54"/><path d="M427.829 207.162a11.7 11.7 0 0 0 .222 2.349 3.77 3.77 0 0 0 2.408 2.916 6.7 6.7 0 0 0 2.525.412 5.16 5.16 0 0 0 3.232-1.109 4.07 4.07 0 0 0 1.433-3.432 6 6 0 0 0-.347-2.143 4.2 4.2 0 0 0-1.171-1.626 8.3 8.3 0 0 0-2.147-1.318 32 32 0 0 0-3.278-1.214 28.5 28.5 0 0 1-4.508-1.809 12.2 12.2 0 0 1-3.173-2.3 8.15 8.15 0 0 1-1.871-3.045 12.2 12.2 0 0 1-.6-4q0-5.472 3.2-8.155t8.792-2.689a20.2 20.2 0 0 1 4.8.54 10.3 10.3 0 0 1 3.8 1.76 8.3 8.3 0 0 1 2.5 3.1 10.5 10.5 0 0 1 .9 4.518v1.034h-7.49a7.14 7.14 0 0 0-.976-4.054 3.67 3.67 0 0 0-3.251-1.42 5.6 5.6 0 0 0-2.172.36 3.66 3.66 0 0 0-1.388.955 3.26 3.26 0 0 0-.707 1.367 6.5 6.5 0 0 0-.188 1.6 5.14 5.14 0 0 0 .759 2.863 6.8 6.8 0 0 0 3.258 2.146l6.026 2.477a18.8 18.8 0 0 1 3.631 1.94 9.5 9.5 0 0 1 2.251 2.166 7.2 7.2 0 0 1 1.172 2.558 13.8 13.8 0 0 1 .326 3.1q0 5.839-3.559 8.493t-9.906 2.659q-6.615 0-9.468-2.734t-2.847-7.852v-1.5h7.813zm4.828 13.783c.327-.069.628-.124.9-.177a4.7 4.7 0 0 1 .9-.075 5.4 5.4 0 0 1 1.628.252 4.9 4.9 0 0 1 1.467.749 3.7 3.7 0 0 1 1.026 1.188 3.3 3.3 0 0 1 .38 1.626 4.18 4.18 0 0 1-1.733 3.592 8.5 8.5 0 0 1-5.045 1.266 16.2 16.2 0 0 1-3.284-.31 8.4 8.4 0 0 1-2.147-.67l1.033-2.378a6.8 6.8 0 0 0 1.655.55 10 10 0 0 0 2.088.228 3.44 3.44 0 0 0 1.931-.52 1.47 1.47 0 0 0 .785-1.24 1.51 1.51 0 0 0-.654-1.263 2.8 2.8 0 0 0-1.734-.491 5.5 5.5 0 0 0-1.008.079 5 5 0 0 0-.837.232l-1.191-1.034 2.983-4.6h2.922z" fill="#fff"/><path d="M146.827 638.884l-5.783-41.887-48.594 1.688 47.991-47.252 5.398-65.851 33.343 33.699 39.152-26.109-21.284 52.018 15.716 32.951-38.04 12.484z" fill="#001e3f" fill-rule="evenodd"/><g clip-path="url(#c)"><path d="M171.447 339.903h184.912v193.264H171.447z" transform="rotate(-71.15 177.394 417.112)" fill="url(#d)"/></g><g clip-path="url(#e)"><path d="M304.142 230.357h144.32v141.517h-144.32z" transform="rotate(-52.176 259.184 294.635)" fill="url(#f)"/></g><path d="M487.983 351.624l-9.193-57.678-44.228-27.083 41.115-23.657 2.257-61.066 38.327 44.922 59.776-14.689-29.09 60.061 31.602 59.323-57.825-18.506z" fill="#001e3f" fill-rule="evenodd"/><g clip-path="url(#g)"><path d="M366.753 414.806h72.481V482.5h-72.481z" transform="rotate(-60.965 302.192 435.272)" fill="url(#a)"/></g><g clip-path="url(#h)"><path d="M307.929 375.166h263.605v294.561H307.929z" transform="rotate(-60.963 338.936 509.07)" fill="url(#i)"/></g><g clip-path="url(#j)"><path d="M613.155 449.246h86.884v88.968h-86.884z" transform="rotate(-60.966 555.794 480.348)" fill="url(#k)"/></g><path d="M615.961 475.434l-36.143-27.79 3.755 26.43-27.251 1.465 33.173 15.16 10.54 20.04 22.515-6.909 34.572 11.774-17.816-19.429 22.219-15.689zM399.275 698.607l16.809-71.671-50.543-37.228 69.7-14.394 28.266-54.528 32.825 47.972 73.161-.668-49.475 48.325 23.743 70.219L468.747 656z" fill="#001e3f" fill-rule="evenodd"/><g clip-path="url(#l)"><path d="M366.357 781.919h209.654v187.713H366.357z" transform="rotate(-60.967 370.382 862.39)" fill="url(#m)"/></g><g clip-path="url(#n)"><path d="M284.19 601.189h114.83v117.11H284.19z" transform="rotate(-60.962 240.802 646.366)" fill="url(#o)"/></g><path d="M290.298 662.006l-37.084-42.031-.092 62.445-37.457 28.2 42.096 25.215 10.645 60.653 29.567-43.196 58.166 16.356-34.526-62.548 25.209-66.241z" fill="#001e3f" fill-rule="evenodd"/><g clip-path="url(#p)"><path d="M62.372 469.624l89.448 49.657 42.292-76.198-89.44-49.65z" fill="url(#q)"/></g><path d="M575.834 831.74a321.3 321.3 0 0 0 54.848-61.109l-1.491-1.989 11.131-50.84-45.422 13.481-45.428-40.62 5.758 58.9-51.917 33.22 63.275 20.452z" fill="#001e3f"/><g clip-path="url(#r)"><path d="M177.427 823.159h172.31v192.501h-172.31z" transform="rotate(-60.964 162.786 906.033)" fill="url(#s)"/></g><g clip-path="url(#t)"><path d="M604.903 666.142l69.538 38.615 44.929-80.947-69.53-38.604z" fill="url(#u)"/></g><path d="M662.976 352.53c-2.786-23.563-4.226-46.978-4.658-69.766l-25.706-1.429 26.91 35.748-8.546 39.014zM88.222 669.138a331.5 331.5 0 0 0 30.757 76.93l6.137 4.724-5.038-35.462 36.568-1.963-44.5-20.335-14.152-26.9z" fill="#001e3f"/><path d="M142.653 186.399h-7.485v-6.1h7.485zm0 31.192h-7.485v-27.784h7.485zm11.777-10.429a11.7 11.7 0 0 0 .222 2.346 3.9 3.9 0 0 0 .811 1.78 3.96 3.96 0 0 0 1.6 1.139 6.7 6.7 0 0 0 2.525.412 5.16 5.16 0 0 0 3.234-1.11 4.07 4.07 0 0 0 1.433-3.432 6 6 0 0 0-.347-2.146 4.2 4.2 0 0 0-1.171-1.626 8.4 8.4 0 0 0-2.14-1.315 33 33 0 0 0-3.285-1.214 29 29 0 0 1-4.5-1.809 12.2 12.2 0 0 1-3.179-2.3 8.1 8.1 0 0 1-1.871-3.049 12.2 12.2 0 0 1-.6-4q0-5.47 3.206-8.158c2.14-1.793 5.064-2.687 8.793-2.687a20.3 20.3 0 0 1 4.8.537 10.4 10.4 0 0 1 3.8 1.76 8.25 8.25 0 0 1 2.493 3.094 10.5 10.5 0 0 1 .9 4.518v1.034h-7.491a7.1 7.1 0 0 0-.975-4.054 3.68 3.68 0 0 0-3.258-1.416 5.7 5.7 0 0 0-2.172.36 3.7 3.7 0 0 0-1.381.955 3.34 3.34 0 0 0-.707 1.367 7 7 0 0 0-.189 1.6 5.14 5.14 0 0 0 .759 2.866 6.8 6.8 0 0 0 3.258 2.143l6.025 2.477a18.8 18.8 0 0 1 3.631 1.94 9.7 9.7 0 0 1 2.257 2.166 7.2 7.2 0 0 1 1.165 2.558 13.7 13.7 0 0 1 .327 3.1q0 5.839-3.56 8.5t-9.9 2.656q-6.625 0-9.474-2.734t-2.846-7.852v-1.5h7.812zm44.557-20.348h-8.466v30.777h-7.813v-30.777h-8.466v-6.095h24.745zm20.564-6.095l10.259 36.872h-8.14l-1.792-7.8h-10.312l-1.792 7.8h-8.14l10.259-36.872zm-1.034 22.979l-3.743-16.573h-.1l-3.752 16.573zm32.459 2.277h.105v-25.256h7.164v36.872h-8.898l-9.552-25.818h-.112v25.818h-7.158v-36.872h9.003zm25.772-25.256a20 20 0 0 1 4.423.465 9.3 9.3 0 0 1 3.5 1.553 7.1 7.1 0 0 1 2.283 2.889 10.9 10.9 0 0 1 .8 4.439 8.9 8.9 0 0 1-1.458 5.143 7.38 7.38 0 0 1-4.4 2.914v.105a7.8 7.8 0 0 1 5.156 2.633 8.8 8.8 0 0 1 1.9 5.938 14 14 0 0 1-.6 4.132 8.3 8.3 0 0 1-2.035 3.432 10.25 10.25 0 0 1-3.743 2.349 16.1 16.1 0 0 1-5.725.879h-13.174v-36.871zm-3.042 15.131a8.06 8.06 0 0 0 4.757-1.106 4.38 4.38 0 0 0 1.485-3.75 4.5 4.5 0 0 0-1.354-3.716 6.85 6.85 0 0 0-4.285-1.083h-2.827v9.655zm.818 16.268a7.93 7.93 0 0 0 4.56-1.187c1.151-.792 1.733-2.254 1.733-4.39a6.7 6.7 0 0 0-.458-2.66 4.5 4.5 0 0 0-1.249-1.7 4.6 4.6 0 0 0-1.872-.9 10.5 10.5 0 0 0-2.394-.258h-3.363v11.1zm26.642-5.682a17 17 0 0 0 .19 2.558 5.8 5.8 0 0 0 .707 2.015 3.76 3.76 0 0 0 1.413 1.341 4.66 4.66 0 0 0 2.251.488 4.6 4.6 0 0 0 2.277-.488 3.8 3.8 0 0 0 1.387-1.341 5.7 5.7 0 0 0 .707-2.015 16 16 0 0 0 .189-2.558v-25.717h7.812v25.717a14.4 14.4 0 0 1-1.027 5.813 9.3 9.3 0 0 1-2.768 3.639 9.55 9.55 0 0 1-3.964 1.806 22.5 22.5 0 0 1-4.613.464 25 25 0 0 1-4.605-.412 9.5 9.5 0 0 1-3.965-1.675 8.66 8.66 0 0 1-2.768-3.589 15 15 0 0 1-1.04-6.045v-25.718h7.819zm21.872-25.717h7.819v30.778h13.832v6.094h-21.651zm51.231 0a20 20 0 0 1 4.423.465 9.3 9.3 0 0 1 3.5 1.553 7.16 7.16 0 0 1 2.277 2.889 10.8 10.8 0 0 1 .812 4.439 8.9 8.9 0 0 1-1.459 5.143 7.4 7.4 0 0 1-4.4 2.914v.105a7.8 7.8 0 0 1 5.156 2.633 8.83 8.83 0 0 1 1.9 5.938 13.9 13.9 0 0 1-.6 4.132 8.26 8.26 0 0 1-2.028 3.432 10.2 10.2 0 0 1-3.749 2.349 16.1 16.1 0 0 1-5.724.879H361.19v-36.871zm-3.047 15.131a8.04 8.04 0 0 0 4.75-1.106 4.38 4.38 0 0 0 1.5-3.75 4.51 4.51 0 0 0-1.361-3.716 6.86 6.86 0 0 0-4.289-1.083h-2.82v9.655zm.818 16.268a7.9 7.9 0 0 0 4.554-1.187c1.165-.792 1.74-2.254 1.74-4.39a6.8 6.8 0 0 0-.458-2.66 4.55 4.55 0 0 0-1.249-1.7 4.65 4.65 0 0 0-1.878-.9 10.4 10.4 0 0 0-2.388-.258h-3.359v11.1zm36.526-31.399l10.256 36.872h-8.145l-1.785-7.8h-10.31l-1.793 7.8h-8.139l10.259-36.872zm-1.033 22.979l-3.744-16.573h-.109l-3.743 16.573zm59.369-22.979l10.259 36.872h-8.139l-1.792-7.8h-10.308l-1.793 7.8h-8.14l10.259-36.872zm-1.033 22.979l-3.747-16.573h-.111l-3.742 16.573zm21.813-8.208h.111l9.88-14.771h8.46l-10.522 15.801 11.72 21.071h-8.788l-7.981-15.13-2.88 4.181v10.949h-7.812v-36.872h7.812zm71.147-8.676h-13.832v8.676h13.021v6.094h-13.021v9.913h14.374v6.094h-22.192v-36.872h21.65zm12.261-6.095v14.1h9.121v-14.1h7.819v36.872h-7.819v-16.366h-9.121v16.366h-7.813v-36.872zm29.907 5.68h-7.49v-6.1h7.49zm0 31.192h-7.49v-27.784h7.49zm19.909-36.872c3.259 0 5.785.786 7.6 2.353s2.709 3.948 2.709 7.148a10.7 10.7 0 0 1-1.57 6.072 7.34 7.34 0 0 1-4.881 3.019v.1a7.26 7.26 0 0 1 4.279 1.807 7.45 7.45 0 0 1 1.688 4.494q.108 1.033.157 2.248c.049 1.215.079 1.711.111 2.709.071 1.962.184 3.457.327 4.494a2.87 2.87 0 0 0 1.406 2.117v.31h-8.459a3.9 3.9 0 0 1-.767-1.783 19 19 0 0 1-.209-2.093l-.223-7.073a5.63 5.63 0 0 0-1.138-3.405 4.29 4.29 0 0 0-3.475-1.24h-4.181v15.595h-7.812v-36.872zm-3.361 16.112a6.6 6.6 0 0 0 4.344-1.266c1.008-.838 1.519-2.265 1.519-4.26q0-5.112-5.431-5.11h-3.69v10.636zM499.244 544.327a121.8 121.8 0 0 0-28.3-29.939l-3.906-2.866a99.2 99.2 0 0 0 12.635-18.794 107.3 107.3 0 0 0 11.608-49.645c0-27.408-8.454-51.639-25.112-72.014-16.3-19.93-38.288-33.7-65.355-40.942-18.085-5.044-44.747-7.5-81.511-7.5h-81.57v170.676l-.007 22.17v94.831h.007v137.112h128.174c34.35 0 61.083-5.038 81.72-15.4 20.918-10.5 38.191-26.473 51.316-47.488a130.5 130.5 0 0 0 19.863-70.245c0-26.523-6.59-50.065-19.562-69.955m-18.987 128.408q-16.48 26.382-42.49 39.441t-71.859 13.059H259.796v-137.1h-.007v-72.663h.007v-21.45h72.042v.006h15.749q26.341 0 39.126-11.123t12.784-30.254a47 47 0 0 0-.353-5.745 35.3 35.3 0 0 0-5.353-15.251 34.6 34.6 0 0 0-6.437-7.328 34 34 0 0 0-3.794-2.8q-11.945-7.66-33.133-7.668h-18.589v57.583h-72.042V344.81h59.506q51.77 0 75.728 6.722 34 9.059 54.1 33.617 20.09 24.576 20.08 57.934 0 21.714-9.128 39.437t-29.717 33.227a1 1 0 0 1 .078.04 102.6 102.6 0 0 1-12.915 7.732q-26.006 13.056-71.852 13.064h-13.831v51.558h-.007v68.042h18.052q44.89 0 60.495-11.385 15.606-11.363 15.611-33.093 0-24.574-18.326-38.8-16.938-13.153-54.685-14.132c30.869-.682 55.293-5.706 74.451-15.324a123.7 123.7 0 0 0 24.017-15.808q18.746 12.642 29.339 28.842 15.96 24.438 15.959 57.8a108.05 108.05 0 0 1-16.494 58.453m-126.363-201.09v-35.54c10.463.415 15.6 2.7 17.8 4.119a11 11 0 0 1 1.3.941 12.4 12.4 0 0 1 2.336 2.624 13.4 13.4 0 0 1 1.923 5.813 25 25 0 0 1 .184 3.049c0 7.93-2.6 11.274-5.149 13.485-2.109 1.832-7.134 4.704-18.394 5.509m0 162.344v-23.686l.007-22.167v-7.154c25.5.863 36.168 6.281 40.291 9.474 6.738 5.233 9.741 11.79 9.741 21.251 0 9.146-3.12 12.693-6.5 15.153-1.573 1.148-10.87 6.71-43.539 7.129m-18.922 199.177a9.7 9.7 0 0 1 1.976-3.639 9.4 9.4 0 0 1 3.337-2.394 11.35 11.35 0 0 1 4.54-.863 12.1 12.1 0 0 1 3.926.614 9.45 9.45 0 0 1 3.2 1.78 8.3 8.3 0 0 1 2.159 2.892 9.6 9.6 0 0 1 .8 4.018 10.2 10.2 0 0 1-.661 3.795 10.9 10.9 0 0 1-1.747 2.944 15.3 15.3 0 0 1-2.5 2.355q-1.4 1.04-2.9 2c-1 .615-2 1.2-3 1.806a23 23 0 0 0-2.748 1.885 12.6 12.6 0 0 0-2.133 2.172 6.14 6.14 0 0 0-1.158 2.67h16.526v3.428h-21.023a17.1 17.1 0 0 1 1.02-4.906 13.1 13.1 0 0 1 2.022-3.547 15.5 15.5 0 0 1 2.768-2.643 41 41 0 0 1 3.226-2.146c1.36-.851 2.558-1.637 3.585-2.343a15.8 15.8 0 0 0 2.565-2.172 7.33 7.33 0 0 0 2.073-5.34 5.5 5.5 0 0 0-.51-2.394 6 6 0 0 0-1.335-1.858 5.9 5.9 0 0 0-1.976-1.178 7 7 0 0 0-2.4-.419 5.46 5.46 0 0 0-2.886.72 6 6 0 0 0-1.976 1.845 7.8 7.8 0 0 0-1.112 2.578 10.8 10.8 0 0 0-.295 2.893h-3.86a13.2 13.2 0 0 1 .5-4.554m23.696 5.888a25 25 0 0 1 .458-3.742 18.5 18.5 0 0 1 1.041-3.481 9.5 9.5 0 0 1 1.865-2.879 8.5 8.5 0 0 1 2.971-1.949 12.93 12.93 0 0 1 8.584 0 8.4 8.4 0 0 1 2.97 1.949 9.3 9.3 0 0 1 1.864 2.879 18 18 0 0 1 1.047 3.481 25 25 0 0 1 .451 3.742q.089 1.9.091 3.69t-.091 3.69a25 25 0 0 1-.451 3.742 18 18 0 0 1-1.047 3.454 9.3 9.3 0 0 1-1.864 2.853 8.1 8.1 0 0 1-2.951 1.938 13.46 13.46 0 0 1-8.6 0 8.2 8.2 0 0 1-2.971-1.937 9.5 9.5 0 0 1-1.865-2.853 18.3 18.3 0 0 1-1.041-3.454 25 25 0 0 1-.458-3.742q-.09-1.904-.092-3.69c-.002-1.786.033-2.421.092-3.69m4.115 7.733a17.5 17.5 0 0 0 .72 4.241 8.06 8.06 0 0 0 1.976 3.35 5.98 5.98 0 0 0 7.629 0 7.93 7.93 0 0 0 1.976-3.35 17 17 0 0 0 .726-4.241c.079-1.518.111-2.878.111-4.095 0-.785-.006-1.663-.02-2.617a22.5 22.5 0 0 0-.817-5.68 7.4 7.4 0 0 0-1.132-2.394 5.9 5.9 0 0 0-1.884-1.675 6.43 6.43 0 0 0-5.542 0 5.86 5.86 0 0 0-1.884 1.675 7.5 7.5 0 0 0-1.138 2.394 22 22 0 0 0-.589 2.8 23 23 0 0 0-.223 2.879c-.019.954-.026 1.832-.026 2.617a69 69 0 0 0 .114 4.091zm30.388 11.843v-23.188h-8.349v-3.1a21 21 0 0 0 3.18-.249 8.7 8.7 0 0 0 2.787-.942 6.3 6.3 0 0 0 2.107-1.872 7.14 7.14 0 0 0 1.183-3.009h2.951v32.36zm35.28-11.005v3.429h-4.358v7.576h-3.637v-7.576h-14.12v-3.743l14.669-21.041h3.088v21.356zm-8-15.834h-.086l-10.717 15.834h10.8zm94.849-624.63a11.3 11.3 0 0 0 .222 2.349 4 4 0 0 0 .811 1.78 3.9 3.9 0 0 0 1.6 1.136 6.7 6.7 0 0 0 2.525.412 5.13 5.13 0 0 0 3.226-1.109 4.05 4.05 0 0 0 1.438-3.432 6 6 0 0 0-.346-2.143 4.2 4.2 0 0 0-1.171-1.626 8.3 8.3 0 0 0-2.141-1.318 32 32 0 0 0-3.284-1.214 28 28 0 0 1-4.5-1.809 12.1 12.1 0 0 1-3.18-2.3 8.1 8.1 0 0 1-1.871-3.045 12.2 12.2 0 0 1-.6-4q0-5.472 3.2-8.155t8.794-2.689a20.3 20.3 0 0 1 4.8.54 10.4 10.4 0 0 1 3.8 1.76 8.36 8.36 0 0 1 2.493 3.1 10.5 10.5 0 0 1 .9 4.518v1.034h-7.485a7.1 7.1 0 0 0-.981-4.054 3.67 3.67 0 0 0-3.259-1.42 5.7 5.7 0 0 0-2.172.36 3.7 3.7 0 0 0-1.38.955 3.25 3.25 0 0 0-.708 1.367 7 7 0 0 0-.188 1.6 5.14 5.14 0 0 0 .758 2.863 6.85 6.85 0 0 0 3.259 2.146l6.021 2.477a19 19 0 0 1 3.644 1.94 9.6 9.6 0 0 1 2.243 2.166 7.1 7.1 0 0 1 1.172 2.558 13.7 13.7 0 0 1 .328 3.1q0 5.839-3.56 8.493t-9.906 2.659q-6.615 0-9.468-2.734t-2.846-7.852v-1.5h7.812zm4.828 13.783c.327-.069.628-.124.9-.177a4.8 4.8 0 0 1 .9-.075 5.4 5.4 0 0 1 1.63.252 5 5 0 0 1 1.466.749 3.7 3.7 0 0 1 1.026 1.188 3.26 3.26 0 0 1 .38 1.626 4.17 4.17 0 0 1-1.733 3.592 8.5 8.5 0 0 1-5.045 1.266 16.2 16.2 0 0 1-3.284-.31 8.3 8.3 0 0 1-2.145-.67l1.033-2.378a6.9 6.9 0 0 0 1.654.55 10 10 0 0 0 2.088.228 3.38 3.38 0 0 0 1.924-.52 1.48 1.48 0 0 0 .792-1.24 1.5 1.5 0 0 0-.655-1.263 2.8 2.8 0 0 0-1.732-.491 5.4 5.4 0 0 0-1 .079 5 5 0 0 0-.846.232l-1.189-1.034 2.977-4.6h2.932z" fill="#fff"/></svg>