<svg viewBox="128.54 72.84 562.74 924.98" xmlns="http://www.w3.org/2000/svg"><clipPath id="a"><path d="M.5-.5h595.446v841.89H.5z"/></clipPath><g clip-path="url(#a)" transform="matrix(1.33333 0 0 -1.33333 -.667 1121.853)"><path d="M518.956 652.995V279.29c0-102.873-94.48-186.268-211.026-186.268-116.549 0-211.028 83.395-211.028 186.268v387.566s53.287 30.36 105.647 33 89.667-7.46 150.26-39.82c61.38-32.78 81.018-35.995 108.02-34.1 37.62 2.64 58.127 27.06 58.127 27.06M335.85 699.824l-9.734 32.812 26.994 20.768h-34.512l-10.67 33.352-10.667-33.352h-34.513l26.995-20.768-9.734-32.812 27.92 19.11z" fill="#cc902c"/><path d="M203.147 687.991c49.87 2.515 84.877-6.824 144.066-38.434 61.12-32.641 83.12-37.67 114.448-35.472 19.165 1.345 34.379 7.693 45.415 14.324V279.29c0-96.158-89.336-174.387-199.146-174.387S108.782 183.132 108.782 279.29v380.414c14.915 7.587 55.34 26.32 94.365 28.287" fill="#5b0625"/><path d="M393.509 306.056c6.305-14.19 8.923-60.387-34.54-76.559-47.3-17.601-89.98-1.32-113.96 23.1-37.5 38.187-41.58 88.879-7.26 133.978 34.32 45.101 84.7 55.001 84.7 55.001s-18.04-11-19.58-36.52 12.98-44.66 27.06-54.559c15.587-10.96 25.172-11.893 38.5-19.14 12.54-6.82 19.8-13.42 25.08-25.301M108.782 531.462v-101.18l.607.747c37.324 43.076 80.243 57.016 119.34 57.407 43.12.432 76.854-19.36 76.854-19.36-118.507-7.628-162.507-87.12-172.48-137.866-9.74-49.563 4.106-111.762 33.366-142.414 27.64-28.957 68.422-62.05 141.462-61.6 71.278.44 113.811 29.772 140.21 58.227 26.401 28.453 41.398 70.486 31.388 108.24-10.267 38.72-44.408 59.512-92.4 76.559-26.84 9.535-36.3 15.474-34.1 31.314 1.528 11.002 15.84 24.86 47.887 11.22 0 0-2.127 20.02-22.808 31.46 0 0 29.096-3.276 65.561 1.76 34.715 4.794 54.897 16.793 62.786 22.462l.621.575v30.894l-.602-.466c-7.23-4.553-26.944-15.569-51.585-17.825-31.24-2.86-63.36-.88-97.68 21.12s-63.36 49.28-107.8 55.66c-38.83 5.575-92.277-1.112-140.08-26.52z" fill="#73b8e8"/><g fill="#fff"><path d="M267.303 159.022v26.456h-3.648v8.03h13.163v-34.486zm26.216 23.45c0-3.026-.88-4.346-2.07-4.346s-1.89 1.045-1.945 4.4 1.155 3.957 2.035 3.942c1.1-.018 1.98-.97 1.98-3.996m9.516-1.274c-.165 7.25-4.016 11.668-8.196 12.658s-10.34.44-13.42-4.95-1.65-11.44.66-15.29 8.47-3.19 8.47-3.19c-3.96-7.259-7.314-11.404-7.314-11.404h10.856c4.092 6.637 9.108 14.924 8.944 22.176m14.629-10.441c-.056-2.64-.605-4.07-2.014-4.07s-1.891 1.593-1.909 4.185c-.016 2.592.899 3.994 1.997 3.953 1.484-.054 1.98-1.43 1.926-4.068m6.707 22.752h-10.76s-4.362-5.428-7.222-13.184c-2.86-7.754-2.31-14.738 2.31-19.138s11.88-3.135 14.52-.77c2.64 2.363 5.775 5.334 4.62 13.584s-8.8 8.746-10.34 8.25c0 0 2.91 5.959 6.872 11.258m3.843-34.487l11.835 26.456H329.99v8.03h22.819l-13.203-34.486zm.266 423.193c5.424 6.465 11.763 18.33 12.156 32.061.244 8.546-1.951 17.002-3.953 22.835l-.162.555c10.138-8.29 16.609-20.895 16.609-35.01a45 45 0 0 0-6.544-23.438l-.597-.089c-3.594-.167-10.363.011-17.855 2.695z"/><path d="M319.37 586.116c-3.206 2.049-5.88 4.513-8.099 7.094l-.194.245c2.452 2.799 8.898 11.033 10.198 21.555 1.46 11.797-.265 20.422-6.937 32.133l-.137.282a44.9 44.9 0 0 0 16.247-5.569l.234-.545c2.336-5.615 6.037-16.434 5.116-26.896-1.27-14.415-8.11-26.09-12.339-30.557 0 0-2.91 1.503-4.09 2.258"/><path d="M298.646 604.754c2.351-6.089 7.359-15.393 17.35-21.718 10.5-6.647 21.442-7.473 27.717-7.257l.603.056a45.4 45.4 0 0 0-12.95-11.838l-.416.064c-7.557.895-21.031 3.838-32.066 13.428-7.841 6.814-12.238 15.192-14.419 20.699l-.134.315q1.385.978 2.914 1.887c3.74 2.22 7.568 3.76 11.332 4.627z"/><path d="M280.108 595.137c-5.74-5.17-9.14-10.889-10.978-14.78l-.251-.48c7.84-13.413 22.393-22.423 39.05-22.423a45.05 45.05 0 0 1 18.051 3.75l-.523.06c-8.017.99-19.597 3.974-29.701 12.532-8.208 6.952-12.876 15.481-15.372 21.52z"/><path d="M263.184 601.377c3.311 4.95 10.62 13.882 23.527 20.347 10.327 5.172 22.29 5.139 29.618 4.431l.456-.072c.25-3.464.124-6.95-.312-10.48a28.8 28.8 0 0 0-1.163-5.228l-.63.08c-7.54.91-19.537.832-30.071-6.005-10.2-6.62-15.323-14.606-17.768-19.827l-.199-.394a45 45 0 0 0-3.873 16.48z"/><path d="M263.106 608.534c2.882 22.186 21.852 39.323 44.823 39.323q.847 0 1.687-.03l.2-.346c3.312-5.488 5.334-10.918 6.332-16.374l-.441.055c-8.05.73-20.401.536-31.244-5.152-9.838-5.16-17.008-12.498-21.399-17.93z"/></g></g></svg>