<svg viewBox="1 1 66.25 66.23" xmlns="http://www.w3.org/2000/svg"><g fill-rule="evenodd"><path d="m34.128 1.003c18.245 0 33.125 14.875 33.125 33.112 0 18.24-14.88 33.114-33.125 33.114s-33.125-14.874-33.125-33.114c0-18.237 14.88-33.112 33.125-33.112" fill="#00804d"/><path d="m34.13 2.253c17.556 0 31.877 14.314 31.877 31.864s-14.32 31.865-31.877 31.865-31.878-14.314-31.878-31.865 14.32-31.864 31.878-31.864" fill="#fff"/><path d="m61.104 35.989c-.143-.648-.172-1.468-.343-2.27-.41.583-.859 1.374-1.126 2.136-.106.296-.83 2.454.61 1.622 1.193 1.165.925-1.202.859-1.488m2.222.23c-.677.724-1.44 1.555-1.86 2.212-.247.4-.535.906-.153 1.316.344.354.85.401 1.26-.01.486-.505.638-2.202.753-3.518m-4.322.924c-.353-.848-.859-1.756-1.402-2.872-.067 1.165-.21 2.577-.124 3.425.163.372.448.612.82.677.64-.21.755-.572.706-1.23m-.714 3.29c-.248-.886-.42-1.65-1.05-2.327-.22 1.108-.591 1.784-.534 2.68.123.401.372.668.733.783.66-.134.812-.468.85-1.136m2.326-.285c-.009-.62.03-1.164-.485-2.004-.763.554-1.183 1.126-1.384 2.06-.037.544.544.68.906.486.754.83.973-.114.964-.542m2.021.573c-1.496.706-2.393 1.678-2.335 2.337.162.695.6 1.029 1.306.505.706-.525.744-1.593 1.03-2.842m-2.86 2.794c.18-.677.094-1.27-.364-2.24-.868.505-1.325.924-1.679 2.002-.105.572.498.772.898.61.658.763 1.01.124 1.144-.372m-2.623.124c-.124-.944-.181-1.746-.734-2.537-.39 1.116-.868 1.745-.926 2.67.048.43.277.735.63.897.687-.048.907-.371 1.03-1.03m-1.488 3.139c-.009-.955.058-1.756-.39-2.614-.572 1.049-1.097 1.612-1.288 2.517 0 .42.181.754.515.974.686.048.935-.25 1.163-.877m2.767-.535c.01-.563.019-1.164-.105-1.755-.563.201-1.068.638-1.411 1.077-.392.517-1.183 1.765.227 1.441.678 1.26 1.289-.286 1.289-.763m2.948-1.526c-1.584.466-2.414 1.087-2.472 1.746.04.676.373 1.182 1.079.676.686-.495.81-1.048 1.393-2.422m-1.603 3.33c-1.603.333-2.643.963-2.766 1.621.076.677.344 1.268 1.125.773.772-.477.878-1.087 1.641-2.395m-3.224 1.403c.124-.591.324-1.078.172-1.908-.715.2-1.46.62-1.966 1.24-.505.638-.81 1.383.344 1.144.353 1.326 1.268.23 1.45-.476m-2.825.142c.116-.944.249-1.744-.103-2.632-.65.974-1.26 1.479-1.536 2.356a1.11 1.11 0 0 0 .41 1.021c.667.133.943-.144 1.23-.745m-2.366 2.624c.22-.943.468-1.736.23-2.7-.783.916-1.489 1.365-1.87 2.224-.105.429 0 .801.277 1.087.657.219 1-.019 1.363-.611m2.775.277c.25-.458.44-1.041.392-1.85a4.23 4.23 0 0 0 -2.07.954c-.658.561-1.202 1.201.171 1.22.192 1.459 1.173.267 1.508-.324m3.349-.83c-1.65.106-2.776.677-2.986 1.307-.038.667.076 1.201.973.791.85-.381 1.048-.905 2.013-2.097m-2.719 3.099c-1.65-.172-3.071.324-3.358 1.011-.114.668.068 1.174.925.944.83-.23 1.346-.877 2.433-1.956m-3.748.601c.352-.516.648-1.077.706-1.993-.763.038-1.66.2-2.328.744-.677.554-1.25 1.184.076 1.287.105 1.498 1.173.525 1.546-.038m-2.89-.592c.342-.906.706-1.669.601-2.652-.898.812-1.66 1.155-2.175 1.946-.153.41-.106.802.124 1.126.639.304.992.114 1.45-.42m-1.079 3.12c.936-.572 1.402-1.593 1.526-2.09-.524 0-1.087.048-1.583.106-.314.095-.553.18-.858.42-.582.58-.343 1.257 0 1.563.315.144.677.144.916 0m4.75-.515c-1.612-.382-2.957-.105-3.357.438-.239.64-.229 1.155.677 1.097.868-.056 1.412-.667 2.68-1.535m-6.534 1.192-.629-.63c.076-.514.4-1.248.487-1.765-.611.698-1.04 1.27-1.898 1.833-.563.228-.906.505-1.641.638.448-1.059.324-1.773.143-2.107-.133 1.268-.944 2.241-1.774 2.9-1.374 1.077-3.33 1.869-5.017 2.68.848-.182 1.707-.44 2.28-.525.887-.123 2.508-.21 3.319.095.562.21 1.078.64.963 1.183.439-.515.391-.935.105-1.22-.735-.735-2.843-.716-3.205-.63 1.125-.466 2.013-1.126 3.061-1.583 1.06-.468 2.28-.878 3.807-.87m-37.981-22.575c.142-.648.17-1.468.343-2.27.41.583.858 1.374 1.126 2.136.104.296.83 2.454-.61 1.622-1.193 1.165-.926-1.202-.86-1.488m-2.221.23c.677.724 1.44 1.555 1.859 2.212.247.4.534.906.153 1.316-.343.354-.85.401-1.26-.01-.485-.505-.638-2.202-.752-3.518m4.32.924c.353-.848.859-1.756 1.402-2.872.067 1.165.21 2.577.123 3.425-.161.372-.448.612-.82.677-.638-.21-.753-.572-.705-1.23m.716 3.29c.247-.886.418-1.65 1.048-2.327.22 1.108.592 1.784.535 2.68-.124.401-.372.668-.735.783-.658-.134-.81-.468-.848-1.136m-2.328-.285c.01-.62-.03-1.164.486-2.004.763.554 1.183 1.126 1.383 2.06.04.544-.543.68-.905.486-.754.83-.973-.114-.964-.542m-2.021.573c1.496.706 2.393 1.678 2.336 2.337-.163.695-.601 1.029-1.307.505-.707-.525-.744-1.593-1.03-2.842m2.861 2.794c-.181-.677-.094-1.27.363-2.24.868.505 1.325.924 1.678 2.002.106.572-.496.772-.896.61-.658.763-1.01.124-1.145-.372m2.624.124c.123-.944.18-1.746.734-2.537.39 1.116.868 1.745.926 2.67-.048.43-.277.735-.63.897-.687-.048-.906-.371-1.03-1.03m1.488 3.139c.008-.955-.058-1.756.39-2.614.572 1.049 1.098 1.612 1.288 2.517 0 .42-.18.754-.515.974-.687.048-.935-.25-1.163-.877m-2.767-.535c-.01-.563-.019-1.164.105-1.755.563.201 1.068.638 1.412 1.077.39.517 1.182 1.765-.23 1.441-.677 1.26-1.287-.286-1.287-.763m-2.947-1.526c1.584.466 2.413 1.087 2.47 1.746-.038.676-.372 1.182-1.077.676-.687-.495-.811-1.048-1.393-2.422m1.602 3.33c1.603.333 2.642.963 2.766 1.621-.077.677-.343 1.268-1.125.773-.772-.477-.878-1.087-1.64-2.395m3.223 1.403c-.123-.591-.324-1.078-.171-1.908.715.2 1.459.62 1.964 1.24.507.638.812 1.383-.342 1.144-.354 1.326-1.27.23-1.45-.476m2.824.142c-.116-.944-.25-1.744.104-2.632.648.974 1.258 1.479 1.535 2.356.047.42-.105.764-.41 1.021-.667.133-.944-.144-1.23-.745m2.365 2.624c-.22-.943-.467-1.736-.229-2.7.783.916 1.488 1.365 1.87 2.224.105.429 0 .801-.277 1.087-.658.219-1.002-.019-1.364-.611m-2.776.277c-.247-.458-.439-1.041-.39-1.85a4.233 4.233 0 0 1 2.07.954c.657.561 1.201 1.201-.173 1.22-.19 1.459-1.173.267-1.507-.324m-3.348-.83c1.65.106 2.776.677 2.986 1.307.039.667-.077 1.201-.973.791-.849-.381-1.05-.905-2.013-2.097m2.719 3.099c1.65-.172 3.072.324 3.357 1.011.115.668-.066 1.174-.925.944-.829-.23-1.344-.877-2.432-1.956m3.75.601c-.354-.516-.65-1.077-.708-1.993.764.038 1.651.21 2.327.744.678.534 1.25 1.164-.075 1.287-.106 1.498-1.173.525-1.545-.038m2.89-.592c-.343-.906-.707-1.669-.6-2.652.896.812 1.659 1.155 2.173 1.946.153.41.106.802-.123 1.126-.64.304-.992.114-1.45-.42m1.078 3.12c-.935-.572-1.403-1.593-1.526-2.09.524 0 1.087.048 1.582.106.316.095.554.18.86.42.58.58.342 1.257 0 1.563-.315.144-.678.144-.916 0m-4.751-.515c1.613-.382 2.957-.105 3.358.438.239.64.228 1.155-.678 1.097-.868-.056-1.41-.667-2.68-1.535m6.534 1.192.628-.63c-.075-.514-.4-1.248-.485-1.765.61.698 1.04 1.27 1.898 1.833.563.228.906.505 1.64.638-.448-1.059-.324-1.773-.143-2.107.134 1.268.945 2.241 1.774 2.9 1.374 1.077 3.33 1.869 5.018 2.68-.85-.182-1.707-.44-2.28-.525-.887-.123-2.509-.21-3.32.095-.562.21-1.078.64-.962 1.183-.44-.515-.392-.935-.106-1.22.735-.735 2.842-.716 3.205-.63-1.126-.466-2.013-1.126-3.061-1.583-1.06-.468-2.28-.878-3.806-.87" fill="#00804d"/><path d="m35.732 41.394c-.238-.03-.505-.324-.591-.934l-.439-2.478.295-.069.935 2.418c.124.326.181.905-.2 1.063m-4.473-2.026c-.392-.648-.764-.758-1.211-.894l.256-.472c.62.097 1.07.51.955 1.366m-8.146.925c.314-.61.916-1.082 1.412-.906l.047.513c-.43-.158-.982.147-1.46.393m19.955-3.216c.076-.187.267-.364.963-.432-.542-.296-.992-.168-1.478-.03.182.156.352.296.515.462m2.413 1.278c-.409-.373-1.183-.777-1.63-.452l.276.462c.362-.246.8-.118 1.354-.01m-5.646 4.938-2.337-2.41.181-.217 2.88 1.693c.41.245.63.855.554 1.051-.086.207-.84.364-1.278-.117m-1.27.864-1.754-2.802.23-.167 2.46 2.33c.352.336.42.955.334 1.082-.096.139-.935.118-1.27-.443m-5.693 1.288.543-3.411-.304-.08-1.461 3.11c-.2.43-.009 1.06.21 1.178.239.12.926-.127 1.012-.797m-1.698-.431 1.258-3.207-.247-.129-2.05 2.667c-.296.394-.325 1.032-.134 1.199.219.167.934.078 1.173-.53m-2.699-1.722 2.327-2.42-.181-.215-2.881 1.702c-.41.245-.668.825-.553 1.04.134.228.839.375 1.288-.107m5.674 3.353c0 .227.715-.51.63-1.013l-.449-3.471h-.362l-.448 3.471c-.085.502.629 1.24.629 1.014m0-4.976c.324 0 .62-.461.582-.894l-.438-2.764h-.287l-.439 2.764c-.037.433.258.894.582.894m-1.583-.275c.238-.03.505-.324.591-.935l.44-2.477-.297-.07-.934 2.418c-.124.326-.182.906.2 1.064m-1.268-.65c.21.128.543-.235.619-.451l1.002-2.459-.324-.137-1.297 2.301c-.143.226-.143.658 0 .747m-1.555 3.403 1.746-2.804-.22-.166-2.461 2.34c-.363.344-.496.885-.342 1.082.17.186.924.118 1.277-.452m5.676 1.308-.525-3.423.286-.079 1.47 3.088c.15.324.008 1.103-.22 1.2-.22.098-.907-.138-1.011-.786m1.706-.453-1.258-3.196.247-.13 2.06 2.676c.297.385.315 1.043.135 1.19-.2.178-.945.079-1.184-.54m-.123-4.258c-.21.127-.545-.236-.62-.452l-1.002-2.459.324-.137 1.297 2.301c.144.226.144.658 0 .747m.039-1.377c.39-.649.763-.758 1.21-.895l-.257-.471c-.62.097-1.069.51-.953 1.366m6.38.432.038-.471c-.219-.678.02-.747.401-.915l-.22-.395c-.8-.077-.914-.333-.924-.903l-.363-.296c-.667.128-.667.364-1.05.728-.095.119-.428.157-.658.157-.276 0-.524-.265-.639-.441l-1.03-2.144c-.19.039-.381.236-.505.404 0 .353.267.923.267 1.09 0 .138.18.63.18.934l-.627.354.275.472c1.536-.225 1.927.688 2.92.885.247.04 1.373.433 1.935.541m-20.602-1.445c.41-.373 1.182-.777 1.632-.453l-.277.463c-.364-.247-.801-.118-1.355-.01m2.413-1.279c-.076-.187-.267-.363-.964-.432.544-.295.993-.168 1.48-.03-.182.157-.354.297-.516.462m-5.493-3.362c-.059-1.24 1.21-5.526 2.097-7.17h.153c-.573 2.636-1.107 6-.754 9.707 0 .6-.18 1.367-.706 1.534-.82-.03-.79-3.532-.79-4.071m2.765-7.15h.19c-.067 1.929.01 3.954-.21 5.901-.066.51-.552.924-.82.118-.161-2.095.64-4.425.84-6.018m-3.176 5.772c-.43 2.193.18 8.014-.362 10.424-.163.727-1.337 2.133-1.432-.433.2-3.59 1.145-7.385 1.794-9.99m26.067-8.3c-.468-.04-.687-.315-.677-.553 0-.372.4.1.678.1.39-.01.571-.433.61-.178.038.394-.343.66-.61.63m-1.231-1.043c-.458-.04-.696-.314-.677-.551 0-.363.39.09.678.09.4-.01.571-.413.61-.167.038.392-.344.658-.611.628m-.955 1.044c-.457-.04-.695-.315-.676-.553 0-.362.391.09.676.09.401-.01.573-.413.611-.168.039.394-.343.66-.61.63m-.764 1.317c-.457-.039-.695-.314-.676-.55 0-.363.391.089.676.089.401-.01.573-.413.611-.167.039.392-.343.658-.61.628m2.013 0c-.458-.039-.697-.314-.678-.55 0-.363.39.089.678.089.4-.01.571-.413.61-.167.038.392-.343.658-.61.628m-21.557-1.315c-.267.03-.648-.237-.611-.63.039-.256.22.166.61.176.278 0 .678-.471.678-.099.01.238-.21.513-.677.553m1.23-1.044c-.267.03-.648-.236-.61-.628.038-.247.21.156.61.166.286 0 .678-.452.678-.09.018.238-.218.513-.678.552m.954 1.044c-.267.03-.649-.237-.61-.63.038-.247.21.157.61.166.286 0 .677-.451.677-.088.02.237-.218.512-.677.552m.763 1.316c-.267.03-.649-.236-.611-.628.04-.246.21.157.611.167.286 0 .677-.452.677-.089.02.236-.218.511-.677.55m-2.012 0c-.268.03-.65-.236-.611-.628.039-.246.21.157.61.167.287 0 .678-.452.678-.089.02.236-.22.511-.677.55m14.565-6.558c.267 0 .476.215.476.491s-.21.491-.477.491a.48.48 0 0 1 -.476-.49.48.48 0 0 1 .477-.492m-8.527 0c.267 0 .476.215.476.49s-.21.492-.476.492a.48.48 0 0 1 -.478-.492.48.48 0 0 1 .478-.49m18.695 14.914c.057-1.24-1.212-5.526-2.098-7.169h-.153c.572 2.636 1.106 6 .753 9.707 0 .6.181 1.366.705 1.534.82-.03.793-3.532.793-4.072m-2.767-7.148h-.19c.067 1.928-.01 3.953.21 5.9.066.51.552.924.82.118.162-2.095-.639-4.425-.84-6.018m3.177 5.772c.429 2.192-.182 8.014.362 10.424.163.727 1.335 2.133 1.43-.433-.2-3.59-1.144-7.385-1.792-9.99m-3.797 7.954c-.314-.61-.915-1.081-1.411-.905l-.047.512c.428-.158.981.148 1.458.393m-11.036-4.415c.792 0 1.527-.305 1.975-.766.43-.513.39-1.378.238-2.066-.152-.796-.353-2.183-.238-3.148.076-.51.592-1.298 1.135-1.298.305 0 1.202-.106 1.726.365-.076-.728-.257-2.322.133-2.842a.563.563 0 0 1 .497-.217c.181.364.457.62.849.757.2-.285.324-.61.4-.678.115 0 .363.118.478.147.114.69-.583 1.525-.029 1.652.096.02.353-.05.458-.432.057-.128.124-.944.057-1.111.057.01.296.03.553.04.038.294.038.786-.229 1.819-.028.746.486.59.667.107.21-.875.153-1.228.04-1.888.314.02.38.03.743.03-.028 1.012-.515 1.671-.448 2.183-.019.246.067.63.315.67.362-.1.41-.287.534-.67.143-.698.028-1.427-.096-2.174.22 0 .42-.01.659-.01-.05 1.073-.21 2.744-.21 3.816 0 .334.324 1.987.716.876.037-.129.199-.68.209-1.062.038-.965-.133-2.39-.373-3.64.858-.01 1.498-.117 1.717-.264.182.403.554.875.964.925-.42-.788-.62-1.348-.62-1.664 0-.412.18-.451.18-.451.107 0 .278.334.344.57.878 2.292 2.92 12.548 3.453 11.949.659-1.024-.934-6.098-2.05-9.45-.363-1.073-1.117-2.745-1.307-3.453.343.491.725 1.102.868 1.445.525 1.22 1.259 3.217 1.603 4.633.22.845.6.934.6.285-.314-1.85-.868-3.264-1.192-4.22-.334-1.002-1.259-2.664-2.117-3.667-.783-.905-2.003-1.75-3.234-1.73.372-.315 1.756-.03 2.117.303.573.296 1.441 1.495 1.91 2.006.418.61 1.372 1.653 1.782 1.633-.725-.816-1.364-1.85-1.889-2.625-.467-.69-1.42-1.838-1.831-1.918-.257-.04-1.383-.433-2.156-.108a5.48 5.48 0 0 0 -1.735 1.317c-1.498 2.499-1.689 2.646-4.75 2.646-1.135.816-2.29 1.24-3.416 1.24-1.125 0-2.28-.424-3.414-1.24-3.062 0-3.253-.147-4.75-2.646a5.48 5.48 0 0 0 -1.736-1.317c-.772-.324-1.899.069-2.156.108-.41.08-1.364 1.229-1.831 1.918-.524.776-1.164 1.81-1.889 2.625.41.02 1.365-1.023 1.784-1.632.467-.512 1.335-1.711 1.908-2.007.361-.333 1.745-.618 2.117-.303-1.23-.02-2.452.825-3.234 1.73-.858 1.003-1.783 2.665-2.117 3.667-.324.955-.878 2.37-1.192 4.22 0 .649.381.56.601-.285.343-1.416 1.077-3.414 1.602-4.633.143-.344.525-.954.868-1.445-.19.708-.945 2.38-1.307 3.451-1.116 3.354-2.708 8.428-2.05 9.452.534.6 2.575-9.657 3.453-11.95.066-.235.237-.57.342-.57 0 0 .182.04.182.452 0 .316-.2.876-.62 1.663.41-.05.782-.52.964-.925.22.147.858.256 1.717.266-.24 1.249-.411 2.675-.373 3.639.01.383.171.933.21 1.062.39 1.11.716-.542.716-.876 0-1.072-.162-2.743-.21-3.816.238 0 .439.01.658.01-.124.747-.238 1.476-.096 2.174.124.383.172.57.534.67.249-.04.334-.424.314-.67.069-.512-.418-1.17-.447-2.184.363 0 .43-.01.744-.029-.114.66-.172 1.014.039 1.888.18.483.696.64.667-.106-.268-1.034-.268-1.526-.229-1.82.258-.011.496-.03.554-.04-.067.167 0 .983.056 1.11.106.384.363.453.458.433.554-.127-.143-.963-.029-1.652.115-.029.363-.147.478-.147.076.069.2.393.4.678a1.46 1.46 0 0 0 .85-.757.56.56 0 0 1 .495.217c.39.52.21 2.114.133 2.842.526-.471 1.422-.365 1.727-.365.543 0 1.059.787 1.135 1.298.115.965-.086 2.352-.238 3.148-.153.688-.191 1.553.238 2.065.45.462 1.183.767 1.974.767m2.165-12.47.335-.964c1.43-.137 2.003-.875 2.46-1.977l1.355-.037.334-.179-1.497-.225.238-.256 1.65.334.248-.236-1.517-.61c-.524-.667-1.126-1.081-1.66-1.081-1.687 0-1.297.816-2.947-.128l.095 1.199c-.705 1.003-.668 3.147-.668 4.632.515.108 1.012-.127 1.574-.472m-4.349 0c.563.345 1.05.57 1.565.463 0-1.485.048-3.62-.658-4.623l.095-1.2c-1.65.945-1.26.129-2.947.129-.535 0-1.135.414-1.66 1.081l-1.517.61.248.236 1.651-.334.238.256-1.498.225.334.179 1.355.037c.457 1.102 1.029 1.84 2.46 1.977zm2.184 1.8c1.087.029 2.003-.286 2.824-.983l-.41-.434c-.887.473-1.317.581-2.423.62-1.116-.049-1.507-.156-2.394-.63l-.41.434c.82.698 1.707 1.013 2.813.993m-3.9 10.187c.495-.058.906-.51 1.01-1.032.077-.668.191-1.543.41-2.41.163-1.042.2-2.064-.304-2.684-.535-.334-1.06-.334-1.689 0-.887.807-.772 1.633-.41 3.314.124.59.2 1.23.105 2.066.324.137.687.452.877.746m7.802 0c.19-.294.553-.61.878-.746a6.187 6.187 0 0 1 .104-2.066c.363-1.681.478-2.507-.41-3.314-.63-.334-1.154-.334-1.688 0-.505.62-.467 1.642-.305 2.685.219.866.334 1.741.41 2.41.105.52.515.973 1.011 1.031m-13.172 4.407-.039-.471c.22-.678-.019-.748-.4-.915l.22-.395c.8-.077.915-.333.924-.903l.363-.296c.667.128.667.364 1.05.728.095.118.429.157.657.157.277 0 .525-.265.64-.442l1.03-2.143c.19.039.38.236.505.403 0 .354-.268.924-.268 1.092 0 .136-.18.629-.18.933l.63.354-.277.472c-1.535-.226-1.927.688-2.919.885-.248.04-1.374.432-1.936.54m9.27-2.152c-.485.01-1.353-.158-1.706-.502-.344-.53-.363-.854-.382-1.642.582.56 1.326.766 2.089.766a3.402 3.402 0 0 0 2.088-.776c-.028.786.172 1.19-.467 1.731-.41.345-1.134.423-1.621.423" fill="#031b0a"/><path d="m11.858 26.499-5.103-2.603.906-1.784 2.117 1.077-1.202-2.965 1.021-1.766 1.307 3.262 3.94-.991-1.04 1.964-3.167.916 2.127 1.106zm2.48-9.5c.744.696 1.45.81 1.908.324.428-.467.266-1.164-.506-1.87-.334-.315-.754-.591-1.058-.64-.307-.036-.65.067-.84.268-.19.21-.277.526-.257.81.017.316.343.717.752 1.109m-1.544 1.659c-.61-.572-.955-1.326-.955-2.137 0-.782.392-1.593 1.05-2.328.314-.342.715-.675 1.06-.857.361-.182.82-.343 1.142-.343.364 0 .793.038 1.137.133.353.105.782.362 1.087.64.43.409.782.954.868 1.45.096.515.029 1.095-.125 1.582-.152.477-.515 1.021-.876 1.403-.382.39-.868.771-1.374.972-.458.19-1.04.257-1.526.219-.515-.038-1.079-.354-1.488-.734m7.373-3.319-2.7-5.008 1.918-1.173 3.595 1.774-1.573-2.9 1.516-.82 2.71 5.123-1.736.916-4.055-2.004 1.784 3.272zm8.098-3.768-.62-2.319-3.1-2.593 2.25-.611 1.632 1.498.668-2.1 1.794-.495-1.242 3.769.63 2.316zm7.393-3.139-.554-1.649-.563 1.65zm-3.655 2.367 2.185-5.732h2.242l2.174 5.733h-2.173l-.42-1.117h-1.85l-.382 1.116zm7.603-1.105 1.965.256c.019.23.18.449.315.582.22.22.505.383.753.44.2.037.459.076.6.076.163 0 .297-.124.297-.2 0-.211-.335-.487-1.078-.85-.64-.315-1.26-.745-1.631-1.096-.334-.325-.334-.897-.125-1.517.087-.276.354-.592.63-.706.334-.144.773-.277 1.212-.277.458 0 .925.086 1.373.2a3.83 3.83 0 0 1 1.497.783c.421.361.687.811.754 1.326l-1.793-.02c-.02-.2-.096-.447-.268-.563-.161-.114-.447-.285-.648-.314-.142-.02-.39-.068-.562-.058-.154.01-.248.105-.258.171-.019.116.134.354.41.488.344.173.792.467 1.23.667.458.201.907.534 1.154.858.23.296.306.792.211 1.299a1.32 1.32 0 0 1 -.659.896c-.38.191-.81.324-1.296.324-.488 0-1.05-.096-1.556-.219a4.624 4.624 0 0 1 -1.831-1.012c-.476-.438-.734-.972-.696-1.534m9.853 2.527.715.457c.171.114.41.154.563.154.163 0 .352-.154.39-.211a.623.623 0 0 0 .03-.439c-.057-.152-.22-.343-.41-.457l-.706-.459zm-3.586 1.659 3.033-4.863 2.585 1.63c.781.486 1.364 1.06 1.545 1.506.181.478.172 1.088-.134 1.575-.19.314-.496.571-.782.638-.324.087-.744.143-1.068.078a3.3 3.3 0 0 1 -1.02-.402l-1.232-.772-1.087 1.765zm9.5 4.722c-.763.705-1.46.83-1.91.333-.437-.467-.274-1.164.498-1.88.344-.313.744-.58 1.068-.628.306-.048.64.048.84.267.19.22.276.515.258.802-.029.324-.344.716-.755 1.106m1.546 1.67c.61-.574.953-1.326.953-2.138 0-.8-.381-1.592-1.05-2.326a4.301 4.301 0 0 0 -1.068-.86c-.361-.19-.8-.352-1.135-.352a4.007 4.007 0 0 0 -1.135.133 3.005 3.005 0 0 0 -1.087.65c-.438.409-.773.952-.868 1.448a3.304 3.304 0 0 0 .125 1.583c.16.487.496 1.021.868 1.403a4.242 4.242 0 0 0 1.381.974c.468.19 1.031.256 1.528.219.505-.049 1.068-.353 1.488-.735m2.995 3.167-.974.476.44.897c.094.21.266.391.419.449.105.038.267.076.4.009a.483.483 0 0 0 .268-.324c.018-.163-.03-.42-.114-.61zm.17-2.5 1.603 3.31c.163.335.324.725.363 1.012.038.294.038.638.02.867-.01.23-.172.487-.278.659-.114.18-.362.382-.544.458-.295.124-.62.162-.962.133-.287-.02-.65-.228-.955-.562l-1.678 2.222-1.031-2.118 1.508-1.927-.267-.553-1.984.964-.955-1.946zm-30.43 32.614.533-2.547q-.345.27-.97.435l.078-.378q.31-.124.613-.324a3.123 3.123 0 0 0 .454-.35 1.296 1.296 0 0 0 .175-.224h.242l-.706 3.388zm2.359-2.108q0 .318.169.506.17.189.402.189.172 0 .343-.118.17-.116.292-.35a1.025 1.025 0 0 0 .122-.48q0-.193-.08-.36a.577.577 0 0 0 -.22-.249.53.53 0 0 0 -.282-.083.56.56 0 0 0 -.272.073.825.825 0 0 0 -.247.216 1.002 1.002 0 0 0 -.171.328q-.056.186-.056.328m-.555 1.336.392-.04q.038.283.16.403a.4.4 0 0 0 .29.12q.239 0 .445-.207.3-.304.444-.872a1.768 1.768 0 0 1 -.372.223.884.884 0 0 1 -.332.067q-.309 0-.553-.207-.322-.27-.322-.774 0-.57.373-.978a1.025 1.025 0 0 1 .785-.35q.418 0 .695.31.276.31.276.876a3.3 3.3 0 0 1 -.184 1.086q-.218.63-.592.93-.303.244-.683.244-.35 0-.572-.218-.222-.217-.25-.613m2.58.772q.065-.301.178-.505.115-.204.303-.387.188-.182.727-.613.327-.26.447-.384.173-.18.25-.353.053-.117.053-.255a.53.53 0 0 0 -.164-.394.554.554 0 0 0 -.404-.163q-.237 0-.414.165t-.253.528l-.408-.06q.06-.449.349-.708t.72-.259q.287 0 .52.12.234.12.351.336.118.217.118.447 0 .335-.24.647-.147.193-.865.761a4.714 4.714 0 0 0 -.46.401q-.15.156-.226.295h1.51l-.08.381zm2.622 0a1.768 1.768 0 0 1 .178-.505q.115-.204.302-.387.189-.182.728-.613.327-.26.446-.384.173-.18.251-.353.053-.117.053-.255a.53.53 0 0 0 -.165-.394.554.554 0 0 0 -.403-.163q-.238 0-.415.165t-.253.528l-.408-.06q.061-.449.35-.708.289-.26.72-.259.286 0 .52.12.234.12.35.336.118.217.118.447 0 .335-.239.647-.147.193-.866.761a4.714 4.714 0 0 0 -.459.401q-.15.156-.227.295h1.511l-.08.381z" fill="#00804d"/></g></svg>