<svg xmlns="http://www.w3.org/2000/svg" viewBox="4.35 3.69 264.06 327.51"><defs><clipPath id="a"><path d="M0 0h270.969v335.646H0z"/></clipPath></defs><g clip-path="url(#a)"><path fill="#fff" d="M10.015 9.364v127.948c0 19.563 7.402 92.526 42.826 124.248s83.536 63.975 83.536 63.975 53.4-30.137 78.779-59.745c25.378-29.61 47.584-34.895 47.584-190.866V9.364z"/><path fill="none" stroke="#e32314" stroke-miterlimit="10" d="M10.015 9.364v127.948c0 19.563 7.402 92.526 42.826 124.248s83.536 63.975 83.536 63.975 53.4-30.137 78.779-59.745c25.378-29.61 47.584-34.895 47.584-190.866V9.364z"/><path fill="#1d1d1b" fill-rule="evenodd" d="M147.464 209.69c.44-.246 1.064-.705 2.108-1.601 3.718-3.186 7.851-5.66 12.03-8.165 2.416-1.486 2.69-3.765.697-6.435-2.12-2.826-3-5.8-4.564-8.885 6.221-3.686 6.578-6.124 10.18-11.886 5.985 3.83 6.87 6.03 7.815 12.88-2.954 4.43-4.154 8.578-5.378 13.662-1.308 5.397-5.306 6.67-9.968 7.149-.286.03-.515.054-.67.094-1.675.502-.352 2.387-2.012 3.362-1.643.965-2.48-.303-4.695 1.046-1.816 1.106-3.463 1.547-5.676 1.104-2.2-.44-4.222-.733-6.498-.81v-.55c0-3.054 3.715-1.194 5.336-1.616q.185-.05.372-.052a.93.93 0 0 1 .923.703m4.102-7.231c-2.192 2.19-2.933 2.818-6.16 3.957-.609.215-.932-.7-.323-.914 3.091-1.091 3.706-1.638 5.798-3.73.456-.456 1.142.23.685.687m3.287-9.951c.854 1.367-1.067 7.259 2.35 3.63 1.365.384 1.28-.213 3.628 1.067-1.067-4.27-3.629-.854-5.978-4.697m-14.605-37.577c-1.068-1.922-1.495 6.064-2.477 3.075.298-1.71.854-2.434.556-4.27-.258-1.623 4.056-1.922 4.355 3.544-2.477.854-2.007-.983-2.434-2.35m-3.972-4.483c-.64 2.22-.299 10.12-1.793 5.85-3.759 1.068-1.239-3.116-1.922-4.996 1.537-.383 2.177-.47 3.715-.854m-24-17.422c-1.28-1.152-1.068-1.58.3-2.135l-2.222-1.707c-1.28 1.068-1.28 2.049-4.826.34-.085.214-.298.343-.427.514 6.705 1.92 3.673 5.038.342 4.056-1.708-.512-5.338 3.118 2.648 2.776.384.683.513 1.45 1.196 1.835.726.428 2.648.214 4.142 0 6.961-1.067 3.801-5.337-.215-2.69-3.074 2.05-4.354 2.05-3.5-.512-2.349 1.709-1.666-.47-1.41-.77.77-.852 2.392-2.005 3.972-1.707m1.793-3.842c4.698 1.28 9.523 1.622 9.523 1.92 0 1.069 1.721 2.263.727 2.777-.519.268-.915-.021-1.495-.086-3.835-.432-6.229-1.694-8.755-4.611m-30.747 17.422l-3.844.854-3.288 2.22-1.836 3.33 4.27-2.562 1.71-1.708zm50.82 14.518l-.855 2.562 2.99.427zm36.084 41.292l1.281-3.416 5.125-1.708zm-9.907 5.679l5.851.427 3.417-2.135-4.698 1.068zm-46.036-94.711c.811 1.837 1.794 2.477 2.136 4.825.426 2.647 1.494 4.057 2.05 5.85.127.47 1.494 3.63-1.196.94-2.734-2.733-3.802-4.997-5.338-8.285-.47.64-.428 1.452-.812 2.136-.085.214-.343 2.733-.683.085-.897-7.173-2.947-9.693-6.15-8.2 1.452 2.18 2.391 3.46 3.843 5.638 0-1.152-.469-3.117-.085-3.074.77.085 1.018.828 1.24 1.58.148.51-.129 1.067.041 1.366.854 1.409.257 3.673-1.025 8.24-.256.94-1.025 1.923.556 2.69 1.708.855 2.348-1.834 3.203-3.414.341-.641 1.458-.28 2.135.213 1.183.863-.384 2.306-.555 3.715l7.9.555c-.983-7.472-2.562-12.81-7.26-14.86m-15.46 4.697h.641v.769h-.64zm18.022 21.777c-.854 1.75-.64 3.117-2.348 4.612-.983.855-1.283 2.008-1.794 3.417-.47 1.323-2.007 1.409-3.544-1.068-6.705-.982-2.222-2.135-5.85-2.904 0 0-1.71-.683 1.152-.427 2.178.17 3.37.602 5.466.214 3.035-.562 4.271-2.434 6.918-3.844m-15.16 3.63c-1.452.513-2.007.214-3.715 1.282 1.708.98 3.758 2.519 4.1 2.647.255.086.683-.342.725-.641.171-.812-1.623-2.35-1.11-3.288m-15.588 3.63c3.545.469 6.193 0 11.232 1.622 1.367.086.811-2.391.086-1.836-.727.556-2.136.983-2.434-.213-.684-2.861-6.15.17-8.884.427M72.56 157.365c-1.068.256-1.708.513-2.776.769.982-1.07 1.538-1.794 2.434-2.903 1.708-.855 1.751 1.195.342 2.134m59.788-38.003c-1.624-3.203 6.405-3.502 3.501-3.93-1.922.47-4.27.513-4.91 1.28-.3.386.24 1.01-.086 1.496-.337.502-1.039.165-1.41.64-.707.907 1.88.3 2.905.514m6.704 4.482c.214-2.006-.598-3.8-2.435-4.355-1.195-1.707-3.842-.214-2.134 1.495.641.64 1.708 1.707 1.152 3.203 1.196.427 1.623 1.28.77 2.775.94.982 1.067 1.495-.214 2.647 1.366.854 2.007 1.28.854 3.844-.555 1.323.683 1.409 1.068 2.263.128-1.88 2.776-2.691.426-5.125.342-1.921.855-4.056.513-6.747m-9.908 10.59c2.221-.213 6.064-.341 5.851-.768-2.135-.598-5.765-2.434-6.192-1.367-.34.855.341 1.24.341 2.136m5.424 4.568c-1.922-1.11-3.075-1.878-4.997-2.99 1.708.173 3.026-.223 4.698.556 1.256.587 3.681 1.17 2.776 2.22-.633.736.213 1.71-2.477.214m-4.27 1.282c-1.025-1.495-1.75-2.435-2.776-3.928.086-.513-.086-1.282.426-1.41.342-.085-3.629-.426-3.5 0 .17.683 1.162.545 1.58 1.196.258.403.768 1.068.426 1.153-1.794.554 1.836.213 3.843 2.989m10.165-9.181c0-1.153-.042-.94-.983-1.921-.342-.385.47-.641.854-.641 1.495-.085 2.35.982 4.612.128 0 1.367.854 2.648 2.35 3.629-2.776 1.282-4.57-2.604-6.833-1.195m-1.495 7.92c0-.176.21-.32.47-.32s.47.144.47.32c0 .178-.21.32-.47.32s-.47-.142-.47-.32m15.801-18.253c1.494-3.545-2.904-4.4-3.63-7.26-.34 2.136-2.904 2.136-5.552 1.922-2.22-.171-2.392-.427-3.843-.641.981 1.196.512 4.398 2.647 3.203-1.708-2.99 5.68-1.623 3.844 1.579.426 2.264 2.775-3.842 4.056-1.921.044 1.026-.436 1.974.342 2.69.626.575 1.367.3 2.136.428m-14.395-5.17c.832 2.957 1.822 3.794 2.024 7.234.038.644-.93.702-.968.057-.186-3.162-1.202-4.23-1.989-7.03-.176-.621.758-.884.933-.261m14.906 5.896c-.297-.171-1.152.81-1.579 1.494-.47.683.133.706.47.939.606.42 2.092-.042 1.708-.811-.299-.512-.47-1.537-.599-1.622m-3.03 5.892c-.343-1.537 2.176-1.922 1.537-2.477-1.11.129-1.794.727-2.819.384-.044 1.836-.556 2.947-2.093 3.844 3.545.128 3.63-.086 3.374-1.751m-23.659 14.946c1.495.854-2.135 2.348 0 5.337 1.281 1.836 1.708 5.637 2.776 9.18.641-9.607 1.281-16.44-6.833-17.72-.213 2.56.214 4.27 4.057 3.203m-.854 22.417c1.41-.128-.085-2.988-2.434-3.202-1.067-.854-1.836-3.544-4.91-2.69-3.418-1.708-4.229-1.068-3.972-1.58.213-.427 7.9 0 10.675 3.416 1.71-.3 3.417 1.28 4.485-.855 0 2.35.64 4.27-1.709 3.844.214 2.135-.214 1.92-3.416 1.92-2.348-.64.77-.553 1.281-.853m-10.334 1.28l-1.623-.853-.299 1.367 1.281.213zm25.865-18.095l2.35 6.619c.216.609-.698.933-.914.323l-2.349-6.618c-.215-.61.698-.933.913-.324m1.124 27.79c-5.21-7.26-.086-11.914 4.612-7.644 1.41.513 0-2.775 0-4.483l3.118 7.045c-4.57-.342-5.936 2.093-7.73 5.082m3.844-23.7l6.32 14.306s3.075-2.862 2.648-.428c-1.11 1.068-1.879 1.837-2.99 2.904l-8.114-19.557c4.271 2.135 16.655 5.764 20.285 19.002-1.537-.256-5.082 1.195-4.142-.726 1.58-3.117.598-6.961 0-5.68-1.068 2.264-1.28 1.922-3.63.556-.513-5.765-1.409-5.978-2.263-2.05-2.264-4.782-4.484-7.173-8.114-8.327m7.687 20.839l-.854-2.05c2.263-.3 3.757-.513 5.98-2.647 2.262 3.074-3.205 2.946-5.126 4.697m19.003-7.473c2.563-.427 4.485.427 7.261 2.776 3.416 1.28 3.843 2.988 3.843 6.832-1.238.043-4.484-4.698-3.417 0 .3 1.623.556 3.928-.726 2.434-.725-2.008-1.708-5.124-1.92-1.068-4.015-3.844-5.98-7.046-10.378-10.034 2.391.854 8.936 1.74 5.337-.94m-17.295 24.553c-1.708-2.35-2.562-3.416-2.99-6.405-2.562.853-9.822-6.62-2.989 4.91 1.068.214-.427-4.697 1.281-4.27 1.708 2.22 1.494 7.047 4.698 5.765m-7.873 11.787c-1.746 1.126-3.516 2.195-5.253 3.338-6.394-1.4-6.845.827-9.446 5.16-3.894-.864-4.375-.192-7.944-.074-3.335.109-6.087.19-9.42.716-.559-2.416.664-2.917 2.812-3.09 1.59-.127 3.323.032 4.866-.427 5.153-2.997 10.667-5.006 13.074-5.78 1.7-.566 3.507-1.213 3.761-3.166.058-.458.071-.946.123-1.472.26-2.714.613-4.787 2.004-7.077 2.022-3.235 3.6-1.856 5.22.306.554.736 1.175 1.64 1.914 2.645 3.49 4.71 2.46 6.23-1.71 8.92m-8.195-90.383c-.424-.471-.386-.966-.297-1.548.03-.2.005-.358-.004-.412-.114-.138-.213-.71-.363-.826-.26-1.786-.446-2.016.037-2.95l.346-.633c-1.074-.624-1.604-.993-1.472-1.984.13-1.024 1.005-1.234 2.011-1.666a6 6 0 0 1 .644-.222l-.109-.36c-.37-2.551.337-4.516 3.136-3.121 2.727 1.308 8.301 4.393 10.506 5.843 1.096 1.242 1.158 1.756-.435 2.72-1.369.737-1.33 2.556-2.068 3.746-.114.185-.236.365-.33.562 5.918 6.725 7.991 10.027 2.078 18.997-1.933 2.953-2.409 4.557-2.936 5.46-.612 1.052-1.366 1.333-3.017 1.487.82 3.438.904 6.488-1.979 10.09a3 3 0 0 0-.295.423c.353.28 1.186.4 1.623.648.44.243 1.673.435 2.157.58 7.475 2.248 13.038 7.626 16.67 14.53 7.234-1.193 10.671.084 18.375 3.873 5.54 2.442 4.156 5.114 3.744 9.535-.17 1.802.054 4.59-2.077 5.39-.95.35-1.59 3.403-1.768 4.188-.557 2.477-1.082 5.666-1.938 8.877-1.39 5.26-3.038 6.994-6.355 10.664-.763.845-1.519 1.762-2.253 2.94-3.035 4.857-6.667 6.21-11.81 7.382 1.526.912 2.096 2.264 2.852 3.775H93.252c-.206-3.136-2-6.248-.392-9.168 2.451-4.451 9.112-2.597 12.938-2.213 1.84.179 2.668 1.17 3.936-1 1.02-1.774 3.927-3.06 7.161-4.247 3.29-1.21 7.208-2.4 10.614-3.89 3.944-1.69 5.75-.275 6.065-6.554.414-7.667 1.746-10.447 2.881-16.706-5.2-.151-9.7-2.011-13.135-3.501l-2.646 3.023-5.014-1.253-.082-1.53c-3.847-.628-8.437-3.891-8.038-5.552.773-2.83 1.802-1.78 3.353-1.707.968.045 1.852 1.478 1.811.332-.01-.313-.064-.624-.075-.937-3.363-.8-4.157-2.037-6.42-4.177-.763-.713-3.37-2.478-4.498-2.154-.183.05-.328.144-.518.207-.6.2-1.343.147-2.81-.511-4.112-1.797-10.71-3.79-14.75-2.458-1.21.41-9.415 3.663-9.652 5.41-.06.873 1.227 2.852.075 3.332-1.11.444-1.916.186-2.75 1.309-.952 1.257.14 3.997-2.05 4.4-1.978.396-7.086-.31-7.957-2.767.92-5.657 3.251-5.395 4.312-8.845 1.51-4.897 2.593-4.34 4.754-7.941 2.775-4.567 4.626-7.361 8.073-9.66 2.087-1.374 4.744-1.173 7.495-.672 2.64.48 5.564 1.29 8.548 1.499.966-1.461 1.295-2.492 2.771-3.768 1.68-1.483 2.466-4.467 2.727-5.678.27-1.117.231-1.5.181-1.594-.495-.102-3.188 1.594-2.79-1.206-.767.466-1.689.766-2.334-.152-.635-.86-.769-.73-1.673-1.09-1.8-.71-2.916-2.91-1.467-6.304 1.1-2.54 2.13-4.55 2.59-6.03.991-3.19-1.859-1.667-2.105-3.584-.139-1.09 1.356-1.664 2.088-2.09.311-.202 1.092-.708 1.33-1.09-1.19-.972-1.422-.955-1.723-2.953l-.07-.473c.874-.292 1.426-.552 2.375-.367.74.145 1.854.552 3.961 1.332 1.922.699 5.083-.74 7.535-.37 5.911.892 9.36 3.266 13.161 7.797 3.165 3.77 3.548 7.023 5.14 11.448 1.028 2.927-.178 5.08 3.912 4.345 1.285-.231 2.57-.697 3.16-.991.294-.144.52-.513-.202-1.56-.64-.93-1.806-1.95-3.018-2.596-2.498-1.328-5.354-1.966-5.803-5.286-.422-2.85 3.025-4.673 5.87-5.497 2.242-.65 5.715-.784 7.64-1.673 1.27-.62 2.46-.715 3.825-.627"/><path fill="#ff0019" fill-rule="evenodd" d="M104.985 262.935v-25.177h-2.87v-4.976h8.652v30.153zm20.756-25.218q-2.23 0-2.23 4.71 0 4.728 2.23 4.728 2.25 0 2.251-4.729 0-4.71-2.25-4.709m1.816 12.991q-1.92 1.53-3.84 1.53-2.831 0-4.442-2.377-1.61-2.395-1.61-6.588 0-5.265 2.148-8.076 2.146-2.808 6.195-2.808 3.82 0 5.948 2.788 2.127 2.768 2.127 7.745 0 5.1-3.676 13.011l-.269.578-2.912 6.424h-5.843l4.667-9.44q.02-.04.082-.185.62-1.301 1.425-2.602m17.101 7.311q2.313-.001 2.313-4.646 0-4.73-2.147-4.73-2.335 0-2.334 5.08 0 4.296 2.168 4.296m-1.61-12.97q2.003-1.445 3.757-1.445 2.83 0 4.44 2.292 1.612 2.291 1.612 6.382 0 5.247-2.168 8.157-2.148 2.913-5.99 2.913-4.028 0-6.195-2.706-2.148-2.725-2.148-7.766 0-4.935 3.903-12.99l.33-.681 3.098-6.423h5.783l-4.812 9.479q-.848 1.652-1.61 2.788m11.998 17.081l.764-5.453q2.271 1.341 4.358 1.342 4.687 0 4.69-4.853-.001-5.578-7.313-5.577-.207 0-1.219.062-.103 0-.309.021l2.085-14.89h11.752v5.121h-7.559l-.765 5.494h.207q4.255 0 6.65 2.458 2.395 2.438 2.396 6.753 0 4.936-2.664 7.827-2.644 2.872-7.228 2.871-3.326 0-5.845-1.177"/><path fill="red" fill-rule="evenodd" d="M43.687 70.539v-5.006q1.817 1.586 3.552 1.586 2.627 0 2.627-2.396 0-1.37-1.9-2.974-.346-.297-.793-.694-2.18-1.965-3.04-3.57-.826-1.55-.826-3.568 0-3.122 1.751-5.04 1.768-1.931 4.609-1.932 1.95 0 4.065 1.19v4.262q-2.23-1.073-3.221-1.074-1.042 0-1.702.66-.662.646-.662 1.703 0 .974.497 1.736.561.858 2.313 2.362 2.346 2.016 3.122 3.469.694 1.29.694 3.322 0 3.288-1.867 5.204-1.85 1.9-5.055 1.9-2.446 0-4.164-1.14m20.663-7.138h3.205q-1.008-5.122-1.586-11.136a525 525 0 0 1-1.62 11.136m-6.426 7.98l5.617-24.123h5.039l5.354 24.123h-4.808l-.81-4.23h-4.841l-.743 4.23zm19.109.001l2.363-24.123h6.195l1.256 9.203a109 109 0 0 1 .777 7.766q.578-6.197.843-7.766l1.551-9.203h6.131l2.032 24.123h-4.874l-.512-11.203a92 92 0 0 1-.05-1.19q-.214-4.492-.214-7.203l-3.14 19.596h-3.485l-2.958-19.728q0 2.445-.298 7.039l-.099 1.553-.743 11.136zm25.553-.843v-5.006q1.816 1.586 3.552 1.586 2.628 0 2.628-2.396-.001-1.37-1.9-2.974-.348-.297-.794-.694-2.18-1.965-3.04-3.57-.825-1.55-.826-3.568 0-3.122 1.751-5.04 1.767-1.931 4.61-1.932 1.95 0 4.065 1.19v4.262q-2.232-1.073-3.223-1.074-1.04 0-1.7.66-.662.646-.662 1.703 0 .974.496 1.736.561.858 2.313 2.362 2.344 2.016 3.123 3.469.693 1.29.693 3.322 0 3.288-1.867 5.204-1.851 1.9-5.055 1.9-2.446 0-4.164-1.14m31.188-23.28v15.15q0 4.462-.711 5.867-1.718 3.403-6.807 3.403-5.123 0-6.824-3.403-.727-1.455-.727-5.866V47.259h4.808v15.53q0 2.86.595 3.802.546.858 2.148.859 1.62 0 2.18-.892.563-.91.563-3.768V47.259zm6.189 24.123V47.259h4.874l4.874 12.987q.33.859 1.487 4.973-.744-5.006-.744-8.691v-9.27h4.461v24.124h-4.46l-5.288-13.5q-.149-.379-.694-2.46l-.413-1.554q.33 2.809.331 7.368v10.146zm20.546-.843v-5.006q1.818 1.586 3.553 1.586 2.627 0 2.627-2.396 0-1.37-1.899-2.974a49 49 0 0 1-.794-.694q-2.18-1.965-3.04-3.57-.826-1.55-.826-3.568 0-3.122 1.751-5.04 1.769-1.931 4.61-1.932 1.95 0 4.064 1.19v4.262q-2.23-1.073-3.222-1.074-1.04 0-1.7.66-.663.646-.663 1.703 0 .974.496 1.736.562.858 2.314 2.362 2.345 2.016 3.122 3.469.694 1.29.694 3.322 0 3.288-1.867 5.204-1.851 1.9-5.055 1.9-2.446 0-4.165-1.14m20.929-12.822q.047 0 .246.017.216.016.266.017 3.137 0 3.137-3.42 0-3.354-3.138-3.355a6 6 0 0 0-.264.016 4 4 0 0 1-.248.017zm-4.66 13.665V47.26h5.006q7.847 0 7.847 7.005.001 3.387-1.867 5.271-1.867 1.867-5.237 1.867-.678 0-1.073-.033l-.017 10.013zm25.586-4.296q3.684 0 3.685-7.75 0-7.78-3.685-7.781-3.668 0-3.668 7.782 0 7.749 3.668 7.749m8.492-7.418q0 5.5-2.313 8.756-2.297 3.255-6.179 3.255-3.999 0-6.229-3.255-2.23-3.271-2.23-9.087 0-5.799 2.247-9.087 2.265-3.305 6.212-3.305 3.966 0 6.23 3.387 2.26 3.37 2.262 9.336m10.171-1.951q.05 0 .265.017.23.016.28.017 3.154.001 3.156-3.454 0-3.32-3.056-3.32a5 5 0 0 0-.628.032zm-4.659 13.665V47.26h5.006q4.13 0 5.981 1.62 1.866 1.617 1.867 5.17 0 5.073-3.817 6.33l4.627 11.003h-5.072l-3.933-9.98v9.98z"/><path fill="none" stroke="#ff0019" stroke-miterlimit="3.864" stroke-width="11.339" d="M10.015 9.364v127.948c0 19.563 7.402 92.526 42.826 124.248s83.536 63.975 83.536 63.975 53.4-30.137 78.779-59.745c25.378-29.61 47.584-34.895 47.584-190.866V9.364zM32.22 83.912h208.313"/><path fill="none" stroke="#ff0019" stroke-miterlimit="3.864" stroke-width="11.339" d="M32.22 31.857v110.751c0 16.124 6.102 76.265 35.3 102.413 29.2 26.148 68.857 52.732 68.857 52.732s44.016-24.84 64.934-49.246c20.919-24.404 39.222-28.763 39.222-157.323V31.857zm0 0v110.751c0 16.124 6.102 76.265 35.3 102.413 29.2 26.148 68.857 52.732 68.857 52.732s44.016-24.84 64.934-49.246c20.919-24.404 39.222-28.763 39.222-157.323V31.857z"/></g></svg>