<svg height="252" width="251.741" xmlns="http://www.w3.org/2000/svg"><g fill-rule="evenodd"><path d="m125.776 36.584c-24.631 0-46.922 10.121-63.074 26.396-16.214 16.337-26.244 38.878-26.244 63.608 0 24.642 9.966 46.814 26.087 62.839 16.17 16.074 38.538 25.967 63.258 25.967 24.716 0 47.066-9.887 63.22-25.954 16.11-16.022 26.063-38.194 26.063-62.838 0-24.731-10.029-47.277-26.243-63.619-16.15-16.276-38.438-26.4-63.067-26.4m-64.647 24.833c16.556-16.681 39.403-27.056 64.646-27.056 25.242 0 48.086 10.377 64.64 27.06 16.617 16.748 26.894 39.848 26.894 65.183 0 25.256-10.205 47.983-26.722 64.41-16.56 16.471-39.464 26.607-64.785 26.607-25.324 0-48.245-10.142-64.821-26.62-16.529-16.43-26.747-39.158-26.747-64.41 0-25.334 10.278-48.43 26.895-65.174" fill="#1b1918"/><path d="m198.638 218.971-14.117-16.066 4.319-3.688c1.253-1.07 2.219-1.78 2.889-2.135.674-.357 1.326-.57 1.916-.645.72-.093 1.527.094 2.191.458.66.362 1.318 1.039 1.946 1.776.77.904 1.432 1.523 1.569 2.403.14.903.044 1.927-.482 2.896 2.134-.973 3.077-.32 4.757 1.493 1.066 1.151 3.666 4.781 5.005 4.795l-3.592 3.138c-.558.066-1.052-.29-1.397-.614-.932-.873-1.726-1.817-2.525-2.648-.912-.95-1.786-2.252-2.32-2.408-.53-.155-1.133-.043-1.859.575l-.7.596 6.033 6.84zm-4.698-12.828q.087-.074.231-.178a3.923 3.923 0 0 0 .213-.163c.702-.598 1.164-1.156 1.156-1.713-.008-.55-.475-1.138-1.094-1.866-.57-.67-.948-1.02-1.482-1.05-.532-.032-1.042.313-1.745.911a3.923 3.923 0 0 0 -.194.183 3.923 3.923 0 0 1 -.214.2zm-17.296 14.74-2.812-4.655c-.597-.987-.862-2.095-.883-2.84-.03-1.06.202-2.005.71-2.855s1.348-1.719 2.395-2.386c1.053-.671 2.252-1.14 3.225-1.235.975-.096 2.005.098 2.956.567a5.52 5.52 0 0 1 2.157 1.892l3.053 4.624c1.356 2.055 2.417 3.583 2.894 4.638s.741 2.037.758 2.797c.026 1.049-.313 2.02-.816 2.87s-1.384 1.578-2.43 2.246c-1.046.667-2.063 1.05-3.048 1.152-.987.098-1.955-.087-2.9-.552a5.696 5.696 0 0 1 -2.128-1.818zm7.708-2.584-2.05-3.034-2.109-3.3c-.57-.893-1.49-.994-2.082-.616-.578.368-.707 1.297-.235 2.02l2.084 3.192 2.102 3.29 1.829 2.783c.64.975 1.465 1.08 2.058.703.585-.373.807-.948.57-1.545-.227-.57-.9-1.62-2.167-3.493m-19.697 19.335-8.099-19.747 4.434-1.831c1.495-.618 2.539-1.087 3.311-1.25.768-.162 1.727-.244 2.355-.127.826.155 1.744.558 2.442 1.26.695.697 1.268 1.836 1.762 3.001.814 1.922 1.19 3.844.673 5.24-.517 1.394-1.882 2.214-4.008 3.113l-1.452.615 3.188 7.692zm-.083-13.273a8.718 8.718 0 0 0 .221-.064 3.66 3.66 0 0 0 .345-.13c.82-.348 1.469-.61 1.658-1.18s-.11-1.466-.5-2.387c-.323-.762-.947-1.615-1.502-1.652-.647-.043-.967.146-1.871.53l-.355.15zm-20.657 11.014 4.77-1c.135 1.169.36 2.188.814 2.788.317.42 1.157.617 1.716.432.446-.147.988-.49 1.137-.907.149-.421.13-.913-.117-1.468-.436-.98-1.348-1.46-2.946-2.276-1.979-1.008-3.342-1.646-4.012-2.044-.505-.3-1.332-.803-1.754-1.294-.433-.504-.77-1.23-1.003-1.932-.565-1.709-.593-3.307.003-4.585.597-1.277 2.303-2.45 3.911-2.982 1.753-.58 3.478-.682 4.754-.097 2.32 1.062 3.007 2.448 3.345 4.42.024.14.22 1.021.245 1.1l-4.595 1.166-.183-.767c-.214-.901-.292-1.614-.86-1.969-.45-.282-.826-.458-1.296-.303-.398.132-.83.396-.972.782-.141.39-.224.83-.056 1.338.444 1.342 3.023 2.143 4.34 2.722 1.704.75 2.838 1.358 3.51 1.883.922.719 1.556 1.51 2.032 2.637.346.818 1.003 2.947.07 4.8-.671 1.33-1.736 2.432-3.457 3.175-1.778.766-4.859.777-6.116.07-1.259-.706-2.197-1.674-2.86-3.673-.004-.014-.33-1.65-.42-2.016zm-17.786 8.895 2.127-21.577 6.544-.596 5.85 20.819-5.14.64-.796-3.866-3.545.295-.115 3.865zm5.148-7.904 2.724-.218-1.79-10-.393.025z" fill="#231f20"/><path d="m126.887 1.989c3.146 5.975 7.132 13.58 11.133 21.212 29.038 55.399 59.401 113.326 94.563 165.96l.458.685-1.778 2.164-.855-1.053c-13.928-17.174-30.056-31.353-48.435-40.986-16.8-8.804-35.492-13.199-56.119-13.235-19.84-.034-39.022 3.846-56.914 13.25-17.191 9.036-33.2 22.602-47.475 41.03l-1.163 1.5-1.407-3.343.34-.497c33.247-48.591 61.597-102.724 89.759-156.499a8676.06 8676.06 0 0 1 15.851-30.173l.25-.473 1.41-.269zm9.169 22.237c-3.2-6.103-6.374-12.16-10.188-19.41a8812.025 8812.025 0 0 0 -14.91 28.386c-26.295 50.207-52.753 100.725-83.198 146.773 12.364-13.848 25.849-24.437 40.146-31.952 18.218-9.575 37.747-13.537 57.948-13.502 21.005.036 40.039 4.522 57.144 13.486 15.185 7.96 28.842 18.955 41.003 32.145-32.385-49.931-60.747-104.037-87.945-155.926" fill="#1b1918"/><path d="m71.522 230.368 12.601-17.644 5.969 2.746-5.307 20.964-4.775-2.008 1.238-3.748-3.22-1.511-2.028 3.293zm8.403-4.285 2.47 1.17 3.433-9.561-.353-.175zm-37.255-16.798 17.226-13.168 4.9 4.378-11.228 18.482-3.975-3.322 2.283-3.219-2.634-2.39-2.905 2.553zm9.29-1.63 2.019 1.843 6.089-8.131-.287-.27zm61.8 35.727.714-8.338-2.922-13.309 5.218.51.587 6.864.51.023 1.531-6.67 5.19.35-5.155 12.181-.701 8.733zm-23.766-4.55 4.902-20.961 5.288 1.27.724 12.588.365.09 2.526-11.77 4.769 1.15-4.82 20.728-5.24-1.302-.74-13.282-.313-.074-2.68 12.419zm-23.018-10.652-8.628-5.606 11.654-17.83 4.076 2.651-9.352 14.42 4.503 2.806zm44.037-31.927h3.27v-13.731l-2.74-.004c-.873 1.101-1.368 1.469-2.724 1.474v1.982l2.194-.006zm9.064-13.98c-1.801.03-3.834 1.18-3.834 2.697v4.46c0 1.145.88 2.662 1.972 2.663l1.393.002c.717.001 1.097-.469 1.321-.655l-.001 1.74c0 .533-.231.91-.783.92-.593.011-.88-.317-.88-1.162l-2.879-.075c-.006 2.663 1.418 3.603 3.637 3.562 2.162-.04 3.812-1.154 3.815-3.018l.013-8.527c.002-1.487-1.961-2.637-3.774-2.607zm.015 2.443c-.381 0-.831.301-.831.654l.001 3.576c0 .505.427.796.789.79.391-.006.777-.323.777-.715v-3.576c0-.337-.377-.73-.736-.729zm6.994-2.107h3.33c.018 2.264-1.29 5.067-3.234 8.13l-.001.464 1.992-.002-.006-2.051c.806-1.175 1.495-2.481 1.83-3.874h1.267l.004 5.934h.964l.002 2.488-.981-.003-.006 2.539-3.035-.004-.003-2.47-4.103.001-.003-2.963c.95-2.508 1.76-5.208 1.983-8.189zm10.679-.363c-2.558-.006-3.64 1.136-3.662 3.572-.013 1.436.124 2.602 1.308 3.073-1.41.764-1.43 1.671-1.422 3.547.013 2.925 1.4 4.159 3.94 4.136 2.673-.024 3.852-1.495 3.857-4.332.003-1.55-.129-2.94-1.634-3.384 1.364-.462 1.541-1.652 1.536-3.106-.009-2.358-1.19-3.5-3.923-3.506m.103 2.403c-.564-.008-.821.653-.83 1.446-.011 1.064.219 1.708.858 1.717.638.009.902-.588.9-1.692-.003-.867-.323-1.463-.928-1.471m.028 5.435c-.722.006-.863 1.264-.866 1.986-.003.763.087 2.133.85 2.125.76-.007.838-1.259.841-2.019.003-.704-.12-2.099-.825-2.092" fill="#231f20"/><path d="m125.729 145.535c-9.39 0-17.89 3.806-24.042 9.959a34.131 34.131 0 0 0 -4.974 6.31c.627.278 1.213.548 1.791.814 1.452.666 2.86 1.313 4.448 1.904.151.056.263.07.339.054q.028-.006.034-.013a.087.087 0 0 0 .016-.049.296.296 0 0 0 -.036-.165 8.254 8.254 0 0 0 -.608-.974 15.257 15.257 0 0 0 -.903-1.134c-.397-.456-.535-.93-.48-1.349a1.29 1.29 0 0 1 .391-.771c.19-.183.434-.314.717-.38.533-.125 1.244-.018 1.96.446l5.999 3.89c.351.228.722.31 1.05.283.221-.018.417-.085.567-.188a.619.619 0 0 0 .25-.31.596.596 0 0 0 -.022-.393l-.544-1.495c-.502-1.384-.368-2.244.331-2.666.583-.352 1.5-.22 2.712.306 1.345.582 2.57 1.29 3.797 2.001.443.256.888.514 1.112.64l-.725 1.286c-.527-.298-.827-.471-1.128-.646-1.203-.696-2.401-1.39-3.64-1.926-.76-.328-1.231-.473-1.363-.393-.016.01.076.292.294.894l.544 1.495c.176.486.174.95.039 1.361a2.088 2.088 0 0 1 -.824 1.068 2.645 2.645 0 0 1 -1.277.443 3.154 3.154 0 0 1 -1.978-.52l-6-3.89c-.3-.196-.56-.27-.744-.255q.03.039.08.096c.328.377.671.802.99 1.25a9.59 9.59 0 0 1 .718 1.154c.167.32.228.67.192.999a1.57 1.57 0 0 1 -.363.854 1.517 1.517 0 0 1 -.857.5c-.332.068-.722.043-1.155-.119-1.641-.61-3.072-1.268-4.547-1.945a156.488 156.488 0 0 0 -1.925-.874 33.848 33.848 0 0 0 -4.237 16.449 33.855 33.855 0 0 0 7.323 21.08l.008-.027c.584.192 1.321.442 2.054.69 1.379.467 2.758.934 4.076 1.334.396.12.703.122.9.048a.436.436 0 0 0 .057-.026 2.441 2.441 0 0 0 -.285-.528 5.23 5.23 0 0 0 -.45-.543c-.374-.404-.588-.873-.62-1.297a1.344 1.344 0 0 1 .207-.844c.165-.252.415-.441.754-.54.415-.12.984-.088 1.703.18 1.266.474 2.381 1.24 3.49 2.001l.002-.001c.518.355 1.035.71 1.569 1.033.375.226.748.385 1.115.485a3.7 3.7 0 0 0 1.122.13c.423-.017.887-.084 1.22-.267a.69.69 0 0 0 .375-.653c-.003-.266-.122-.588-.24-.91-.114-.307-.228-.615-.29-.966a2.25 2.25 0 0 1 0-.88c.088-.398.298-.688.609-.876.276-.168.603-.233.967-.202.362.03.778.16 1.225.376 1.197.58 2.338 1.227 3.48 1.874.963.547 1.929 1.095 2.93 1.601.582.294 1.151.411 1.642.407.51-.005.908-.132 1.107-.319a.46.46 0 0 0 .14-.32c.01-.194-.055-.42-.181-.645-.221-.395-.38-.9-.392-1.353a1.68 1.68 0 0 1 .2-.886 1.27 1.27 0 0 1 .879-.628c.293-.061.645-.041 1.061.089 1.308.41 3.003 1.242 4.741 2.096 1.045.513 2.105 1.034 3.117 1.476a3.749 3.749 0 0 0 .963.287 3.487 3.487 0 0 0 1.077-.013c.343-.054.644-.153.843-.29.082-.058.133-.11.136-.149a.48.48 0 0 0 -.095-.323c-.11-.156-.299-.303-.554-.436-.394-.205-.773-.516-.962-.83a1.08 1.08 0 0 1 -.156-.775c.059-.3.236-.55.565-.721.307-.16.81-.244 1.578-.195 1.238.08 2.35.306 3.454.632 1.074.317 2.145.732 3.327 1.202l-.545 1.373c-1.135-.452-2.164-.85-3.2-1.156a14.196 14.196 0 0 0 -2.92-.558 2.615 2.615 0 0 1 .618.606c.275.388.405.822.367 1.297-.041.524-.33.94-.774 1.248-.384.267-.898.447-1.45.535a4.954 4.954 0 0 1 -1.523.019 5.235 5.235 0 0 1 -1.34-.398c-1.002-.438-2.097-.976-3.175-1.505-1.676-.823-3.311-1.626-4.532-2.009a1.308 1.308 0 0 0 -.223-.054v.026c.006.212.09.466.206.675.26.464.391.965.366 1.438-.026.5-.217.962-.603 1.323-.45.422-1.214.71-2.109.718a5.081 5.081 0 0 1 -2.319-.563c-1.023-.517-2.01-1.077-2.994-1.636-1.115-.632-2.23-1.264-3.394-1.828-.281-.136-.52-.215-.702-.23l-.02-.003q0 .087.024.229c.04.22.13.466.22.71.162.436.322.87.328 1.403v.002c.012.983-.466 1.593-1.14 1.965-.566.312-1.262.423-1.874.447a5.187 5.187 0 0 1 -1.567-.177 5.885 5.885 0 0 1 -1.492-.647 33.11 33.11 0 0 1 -1.64-1.08v-.003c-1.031-.708-2.068-1.42-3.172-1.833-.283-.106-.49-.154-.635-.16.038.082.103.176.194.274.202.218.393.443.572.698a3.923 3.923 0 0 1 .463.87c.121.323.13.644.04.94a1.412 1.412 0 0 1 -.377.61 1.724 1.724 0 0 1 -.592.365c-.475.178-1.116.202-1.845-.02a124.28 124.28 0 0 1 -3.852-1.253q.383.409.778.805c6.153 6.153 14.653 9.958 24.043 9.958s17.889-3.805 24.041-9.958 9.958-14.653 9.958-24.042c0-2.943-.374-5.799-1.077-8.523l-.848 1.178a44.026 44.026 0 0 0 -4.172-2.652 46.641 46.641 0 0 0 -4.307-2.126c-.355-.153-.647-.212-.863-.194q-.12.01-.157.038h.005q-.014.091.056.27c.052.133.117.27.179.404l-.003.001c.11.235.216.464.299.728.095.308.12.595.087.859a1.57 1.57 0 0 1 -.45.923c-.217.22-.5.38-.826.481-.43.134-.952.165-1.507.093-1.235-.159-2.44-.574-3.639-.985-.507-.174-1.013-.349-1.516-.501l-.11-.033q.075.072.144.15h.004c.132.144.254.306.36.472.215.34.313.664.312.966-.004.504-.248.882-.673 1.143-.3.184-.697.299-1.157.349-1.02.11-2.47-.091-3.795-.546-1.437-.493-2.845-1.154-4.248-1.813-.751-.352-1.5-.704-2.292-1.043-.395-.12-.686-.151-.877-.115q.03.105.134.263c.152.23.29.488.389.762.093.255.151.525.158.806.009.42-.066.778-.209 1.078-.198.417-.51.71-.902.901-.341.166-.738.245-1.163.254-.863.02-1.879-.26-2.736-.667-.972-.462-1.926-1.004-2.88-1.546-1.013-.575-2.028-1.152-3.037-1.614q-.779-.357-1.172-.371l-.018-.002q-.01.267.163.782l.003.012c.146.436.295.882.328 1.386.034.5-.026.97-.2 1.373a1.94 1.94 0 0 1 -.695.855h-.003a2.226 2.226 0 0 1 -1.126.366c-.636.042-1.451-.12-2.471-.56-1.397-.6-2.738-1.35-4.064-2.094a77.375 77.375 0 0 0 -2.13-1.165c-.379-.197-.658-.262-.831-.236.04.085.134.195.29.324.238.196.438.424.6.675.168.259.3.542.395.836.297.912.137 1.543-.523 1.911-.464.259-1.177.272-2.17.052l-.061-.014-7.389-2.322.44-1.413 7.378 2.318c.596.129.954.16 1.083.088.065-.037-.118-.02-.165-.163v-.003a2.049 2.049 0 0 0 -.228-.485 1.482 1.482 0 0 0 -.298-.339c-.572-.471-.839-1.02-.852-1.508a1.338 1.338 0 0 1 .245-.826 1.412 1.412 0 0 1 .692-.51c.51-.181 1.236-.134 2.072.3.752.39 1.463.788 2.177 1.188 1.289.722 2.593 1.453 3.923 2.026.793.34 1.38.47 1.794.442.173-.011.301-.05.389-.109l-.001-.001a.489.489 0 0 0 .169-.218c.077-.18.102-.42.084-.695-.021-.316-.139-.667-.253-1.01l-.003-.012c-.189-.562-.265-1.038-.23-1.421q.058-.64.493-.995.41-.334 1.045-.31.688.025 1.734.504c1.08.495 2.117 1.084 3.153 1.672.925.526 1.85 1.05 2.781 1.494.677.321 1.45.542 2.076.528a1.35 1.35 0 0 0 .548-.109.427.427 0 0 0 .209-.2.94.94 0 0 0 .069-.419 1.046 1.046 0 0 0 -.07-.33v-.003a2.18 2.18 0 0 0 -.233-.452c-.252-.382-.38-.76-.392-1.104a1.337 1.337 0 0 1 .316-.932c.202-.238.487-.405.846-.482.43-.094.996-.057 1.677.155l.031.01.038.016c.769.329 1.573.706 2.378 1.084 1.347.632 2.7 1.267 4.103 1.748 1.134.39 2.339.566 3.158.476.201-.021.365-.057.477-.108l-.055-.09a1.918 1.918 0 0 0 -.203-.264l.002-.001a1.57 1.57 0 0 0 -.222-.201c-.618-.459-.996-.864-1.151-1.194-.167-.357-.153-.685.035-.977.161-.25.422-.406.774-.462.431-.067 1.13.026 2.047.304.519.156 1.044.337 1.57.518 1.138.391 2.284.785 3.343.921.347.045.655.031.887-.04a.524.524 0 0 0 .213-.112q.026-.026.032-.065a.6.6 0 0 0 -.035-.239c-.055-.177-.138-.355-.224-.538h-.003a8.92 8.92 0 0 1 -.213-.485 1.997 1.997 0 0 1 -.143-1.017 1.443 1.443 0 0 1 .52-.938c.259-.212.592-.343.982-.374.442-.037.976.055 1.563.31a47.949 47.949 0 0 1 4.446 2.195 45.77 45.77 0 0 1 4.286 2.725 33.958 33.958 0 0 0 -8.87-15.478c-6.153-6.153-14.653-9.958-24.042-9.958zm9.472 19.261-.295-.398c-.508-.685-.876-1.18-1.406-2.049-.295-.484-.386-.949-.325-1.34a1.351 1.351 0 0 1 .38-.76 1.369 1.369 0 0 1 .748-.382c.39-.067.851.016 1.317.294.423.252.79.477 1.154.7 2.355 1.445 4.591 2.817 7.135 2.71.163-.006.378-.047.549-.136a.436.436 0 0 0 .095-.06.567.567 0 0 0 -.063-.162c-.214-.411-.602-.77-.985-1.126-.147-.135-.292-.27-.377-.353h-.004c-.44-.43-.69-.878-.78-1.29a1.528 1.528 0 0 1 .083-.964 1.43 1.43 0 0 1 .666-.694c.324-.168.734-.239 1.196-.18 1.194.149 2.632.626 4.095 1.23 1.436.592 2.89 1.303 4.157 1.941l-.666 1.32c-1.25-.629-2.676-1.326-4.052-1.894-1.35-.557-2.658-.994-3.714-1.127-.152-.019-.262-.01-.33.02l.007.029c.031.143.15.329.375.55.15.147.248.239.346.33.484.447.973.9 1.297 1.524.146.282.216.548.227.799a1.395 1.395 0 0 1 -.275.91c-.163.222-.379.389-.615.512a2.953 2.953 0 0 1 -1.175.298c-2.991.126-5.412-1.36-7.962-2.924a112.898 112.898 0 0 0 -1.142-.695.872.872 0 0 0 -.213-.095q.024.096.113.244c.5.819.849 1.29 1.331 1.94l.3.403zm8.576-4.713c.001-.003.002-.005 0 0m-47.949 17.873a5.1 5.1 0 0 0 1.975.646 4.228 4.228 0 0 0 1.91-.216h.004q.056-.021.08-.035v-.002c.027-.016.037-.014.039-.018a.305.305 0 0 0 -.02-.064l-.01-.023c-.087-.09-.17-.18-.25-.268l-.002.001a4.16 4.16 0 0 0 -.429-.424c-.485-.403-.762-.793-.859-1.125a1.007 1.007 0 0 1 .092-.83c.14-.235.362-.396.654-.472.349-.092.85-.054 1.45.152.665.23 1.32.463 1.975.696 2.18.778 4.372 1.56 6.466 2.007.316.067.578.066.776.016q.122-.033.181-.079a2.233 2.233 0 0 0 -.23-.597c-.094-.158-.238-.326-.444-.55-.445-.486-.658-.976-.69-1.41a1.438 1.438 0 0 1 .23-.905v-.003c.167-.254.414-.445.72-.56.41-.152.932-.16 1.5.033 1.498.505 2.89 1.18 4.263 1.845 1.387.672 2.757 1.335 4.128 1.772.427.136.965.22 1.428.198.213-.01.396-.044.514-.106l-.014-.057c-.127-.418-.43-.79-.74-1.17a11.116 11.116 0 0 1 -.488-.63c-.278-.396-.407-.787-.409-1.141a1.316 1.316 0 0 1 .32-.889 1.48 1.48 0 0 1 .786-.461c.418-.102.952-.068 1.55.147v-.003c1.738.622 3.407 1.445 5.07 2.265.826.407 1.651.814 2.44 1.175a3.313 3.313 0 0 0 1.043.282 4.141 4.141 0 0 0 1.194-.06c.367-.069.564-.131.596-.19l-.158-.246a10.462 10.462 0 0 0 -.345-.392c-.296-.327-.593-.653-.848-1.107h.002c-.279-.498-.381-.94-.346-1.303.032-.333.166-.605.383-.81.208-.195.476-.312.786-.343.391-.04.868.068 1.36.34a146.462 146.462 0 0 1 2.972 1.703c1.522.888 3.03 1.768 4.554 2.545.396.202.782.358 1.153.452.348.09.68.125.988.094q.153-.015.293-.047c.208-.046.376-.115.469-.209.047-.047.07-.12.06-.223a.872.872 0 0 0 -.016-.095 7.41 7.41 0 0 0 -.278-.941 7.41 7.41 0 0 0 -.428-.939c-.182-.336-.25-.653-.23-.945a1.33 1.33 0 0 1 .48-.944c.23-.196.527-.328.86-.39.474-.09 1.052-.04 1.605.166 1.711.635 3.42 1.28 5.086 2.007 1.694.738 3.351 1.558 4.934 2.533l-.776 1.262c-1.534-.944-3.126-1.733-4.749-2.44-1.65-.719-3.33-1.354-5.01-1.978-.296-.11-.59-.14-.818-.097q-.075.015-.122.034.013.036.043.091c.2.372.368.745.51 1.125.14.377.25.752.335 1.132q.032.14.045.274c.06.591-.13 1.056-.483 1.41-.306.308-.725.504-1.192.61a3.923 3.923 0 0 1 -.473.075c-.493.05-.994 0-1.499-.128a7.116 7.116 0 0 1 -1.46-.568c-1.569-.8-3.092-1.69-4.628-2.586a158.94 158.94 0 0 0 -2.942-1.69 1.613 1.613 0 0 0 -.293-.131q.04.097.113.23h.004c.173.308.412.57.651.834.138.152.276.304.423.487l.021.026.023.035c.44.68.528 1.273.238 1.8-.258.47-.792.775-1.621.931-.532.1-1.075.133-1.616.077a4.795 4.795 0 0 1 -1.508-.41 95.24 95.24 0 0 1 -2.478-1.192c-1.615-.795-3.233-1.593-4.914-2.195v-.003c-.283-.102-.507-.133-.662-.109q.032.083.123.212c.136.194.28.372.424.548.406.498.803.987 1.012 1.675.074.245.095.475.07.689-.057.517-.345.874-.777 1.103-.317.17-.716.255-1.143.276a5.83 5.83 0 0 1 -1.943-.268c-1.494-.476-2.9-1.157-4.325-1.847-1.337-.648-2.693-1.304-4.09-1.776-.222-.075-.393-.088-.5-.054.014.12.108.287.299.495.262.285.454.515.624.8.17.286.29.589.396 1.006h.004c.057.226.061.45.016.664a1.438 1.438 0 0 1 -.474.789v.003c-.21.182-.48.322-.797.403-.401.103-.895.114-1.448-.004-2.192-.468-4.43-1.266-6.654-2.059h-.003c-.464-.165-.927-.33-1.385-.49l.089.095v.003c.077.084.158.173.289.301l.076.075.048.084q.09.157.15.32c.138.372.143.735.026 1.065a1.52 1.52 0 0 1 -.7.812l-.001-.003a2.049 2.049 0 0 1 -.302.143c-.784.292-1.674.395-2.582.299a6.582 6.582 0 0 1 -2.555-.832zm14.038-.025c0 .003-.001.004 0 0q.001-.003 0 0m-.002.005-.001.003h.002zm.094-2.667q-.002.002 0 0m11.325 2.39v.018zm-4.105-8.754c-.014.011-.005.006.008-.002q-.003-.002-.008.002m31.125-1.648c-.004.003 0 0 .004-.001zm-34.397 42.377a17.597 17.597 0 0 1 -.58-.961 21.795 21.795 0 0 0 -.4-.675h-.001c-.25-.398-.36-.786-.356-1.133a1.408 1.408 0 0 1 .3-.875 1.425 1.425 0 0 1 .769-.493c.336-.088.734-.076 1.158.064.582.191 1.275.53 2.059.914 1.479.723 3.309 1.619 5.248 1.868l.281.037c.75.1 1.439.19 1.8.023a2.615 2.615 0 0 0 -.196-.226c-.235-.25-.52-.463-.822-.689-.27-.203-.554-.416-.855-.686-.407-.364-.64-.707-.73-1.02a1.099 1.099 0 0 1 .153-.991c.163-.229.406-.393.707-.495.457-.155 1.121-.175 1.836-.063 1.295.203 2.65.668 3.982 1.256 1.297.573 2.597 1.276 3.804 1.97.466.268.898.438 1.245.485.153.02.268.016.334-.016q.013-.006.028-.058c.03-.104.03-.261-.002-.476v-.002c-.029-.186-.141-.382-.261-.59-.173-.302-.357-.622-.473-1.072-.104-.397-.155-.774-.131-1.101.026-.36.14-.677.36-.927.24-.272.572-.432 1.01-.447.267-.009.575.04.925.156.815.27 1.689.647 2.566 1.076.832.405 1.711.883 2.56 1.362l-.725 1.286a46.641 46.641 0 0 0 -2.484-1.316c-.824-.403-1.636-.754-2.38-1.001a1.613 1.613 0 0 0 -.355-.084c-.012.165.021.382.084.626.068.261.2.49.323.706.195.338.376.655.446 1.103.066.427.049.793-.038 1.102-.133.473-.415.798-.81.99-.336.163-.736.208-1.174.149-.534-.072-1.152-.308-1.783-.67-1.15-.662-2.397-1.335-3.666-1.896-1.235-.545-2.469-.972-3.611-1.151a3.752 3.752 0 0 0 -.821-.05l.065.059c.251.225.51.42.758.604.36.27.698.524 1.013.857.336.355.587.737.644 1.148.077.552-.136 1.033-.802 1.387-.765.406-1.698.283-2.715.148l-.279-.037c-2.18-.282-4.131-1.236-5.708-2.007-.717-.352-1.351-.662-1.874-.834a.733.733 0 0 0 -.283-.047c.012.074.052.17.127.29v.003c.162.259.297.492.43.724.159.274.316.548.534.874zm10.333-1.14c.007.034.01.056.005.02zm-24.125-54.573c6.556-6.555 15.612-10.61 25.615-10.61 10.002 0 19.058 4.055 25.613 10.61s10.61 15.612 10.61 25.615c0 10.002-4.054 19.059-10.61 25.614s-15.61 10.61-25.613 10.61-19.06-4.055-25.615-10.61-10.61-15.612-10.61-25.614 4.055-19.06 10.61-25.615" fill="#231f20"/><path d="m125.777 83.834c4.033 4.465 6.735 9.441 8.5 14.777l9.939-.13c2.557 8.721 2.955 17.367 2.1 25.14l-30.608-19.517c1.982-8.132 5.124-15.103 10.07-20.27m-20.433 25.779 30.338 19.436c-1.928 7.721-4.66 14.807-9.905 19.91-3.324-3.188-6.352-7.565-8.63-14.94l-9.09 1.046c-2.745-7.731-3.804-16.152-2.713-25.452" fill="#fff200"/></g><path d="m125.778 66.54c15.154 9.926 24.592 29.428 24.576 49.593-.01 13.72-5.27 36.04-24.576 48.681-15.717-10.027-24.817-30.718-24.753-49.595-.243-21.455 10.35-39.775 24.753-48.678" fill="none"/><g fill-rule="evenodd"><path d="m115.708 104.104c1.982-8.132 5.124-15.103 10.07-20.27 4.032 4.465 6.734 9.441 8.5 14.777l9.938-.13c2.557 8.721 2.955 17.367 2.1 25.14zm10.07-37.563c-14.404 8.903-24.996 27.223-24.753 48.678-.064 18.877 9.036 39.568 24.753 49.595 19.306-12.641 24.565-34.961 24.576-48.68.016-20.166-9.422-39.667-24.576-49.593m-20.433 43.072 30.338 19.436c-1.928 7.721-4.66 14.807-9.905 19.91-3.324-3.188-6.352-7.565-8.63-14.94l-9.09 1.046c-2.745-7.731-3.804-16.152-2.713-25.452" fill="#231f20"/><path d="m108.596 179.429c-2.193-.468-4.43-1.266-6.655-2.059l-1.387-.49c.344.373.485.426.651.877.277.747.014 1.484-.673 1.877l-.002-.002c-.732.42-1.984.537-2.883.441a6.582 6.582 0 0 1 -2.555-.832l.736-1.285a5.1 5.1 0 0 0 1.975.646 4.228 4.228 0 0 0 1.91-.216l.083-.035v-.002l.01-.105-.253-.267c-.511-.558-1.1-.904-1.287-1.55-.175-.6.148-1.144.746-1.301.349-.092.85-.054 1.45.152 2.765.951 5.705 2.12 8.44 2.703.315.067.77.085.958-.063-.143-.546-.28-.719-.674-1.148-.446-.485-.66-.975-.69-1.41-.086-1.197 1.098-1.89 2.45-1.434 2.953.996 5.66 2.747 8.39 3.617.452.144 1.497.325 1.943.092-.278-1.055-1.644-1.785-1.651-2.998-.008-1.25 1.315-1.684 2.656-1.203v-.003c2.6.931 5.026 2.303 7.508 3.44.713.326 1.476.367 2.238.222.368-.069.564-.131.597-.19-.448-.7-.887-.922-1.352-1.745h.003c-1.037-1.842.406-3.1 2.183-2.115 2.59 1.434 4.973 2.947 7.525 4.247.763.39 1.62.683 2.434.5.4-.09.588-.198.514-.528l-.707-1.88c-.861-1.596.76-2.84 2.716-2.113 3.455 1.283 6.868 2.6 10.02 4.54l-.776 1.262c-3.073-1.89-6.404-3.172-9.76-4.418l-.94-.063.553 1.216c.348.933.693 2.019-.102 2.816-.774.777-2.155.814-3.164.557a7.116 7.116 0 0 1 -1.46-.568c-2.532-1.291-5.119-2.919-7.57-4.276a1.613 1.613 0 0 0 -.293-.131q.039.097.113.23h.003c.315.558.893 1.033 1.118 1.382.905 1.396.245 2.425-1.382 2.731-1.06.2-2.126.125-3.124-.333-2.468-1.13-4.87-2.484-7.393-3.387v-.003c-.283-.102-.507-.133-.662-.109.212.538 1.777 1.823 1.63 3.124-.191 1.698-2.65 1.499-3.864 1.111-2.899-.924-5.532-2.65-8.414-3.623-.223-.075-.394-.088-.501-.054.065.501.923.749 1.32 2.302h.004a1.424 1.424 0 0 1 -.458 1.452v.003c-.57.496-1.432.572-2.245.399zm39.71-12.174-.001.002v-.002m-41.349 6.134c-.434.242-1.305.292-2.23.037l-7.389-2.321.44-1.413 7.377 2.317c.597.13.955.16 1.084.088l-.165-.166-.526-.823c-1.878-1.547-.426-3.884 2.157-2.544 2.037 1.057 4.025 2.32 6.1 3.213.77.331 1.765.615 2.182.333.242-.165.274-.592.253-.914-.055-.828-1.092-2.542.007-3.437.722-.589 1.836-.239 2.779.194 2.04.935 3.94 2.218 5.934 3.165.705.335 1.983.732 2.624.42.233-.114.284-.338.278-.619-.014-.62-.667-1.02-.695-1.89-.023-.723.45-1.26 1.162-1.414.37-.08 1.184-.059 1.746.182 2.13.91 4.28 2.077 6.481 2.832 1.082.371 2.905.696 3.635.368l-.256-.356c-.37-.404-2.007-1.335-1.339-2.372.689-1.067 3.142-.07 4.391.36.743.255 3.84 1.377 4.443.77.13-.13-.16-.7-.226-.843h-.003c-.234-.502-.434-.95-.357-1.502.11-.771.728-1.249 1.502-1.312.443-.037.977.056 1.564.31a46.632 46.632 0 0 1 8.731 4.92c-2.495-9.617-9.042-17.484-17.621-21.808-3.67 5.862-8.633 11.323-15.241 15.65-6.095-3.888-11.195-9.38-15.151-15.749a34.105 34.105 0 0 0 -13.914 12.74c.948.42 6.398 3.007 6.612 2.758.201-.233-1.326-2.086-1.531-2.322-1.42-1.63.443-3.445 2.588-2.054l5.999 3.89c.928.602 2.13.18 1.845-.607l-.544-1.496c-.502-1.384-.368-2.243.331-2.666.582-.352 1.5-.219 2.712.306 1.75.757 3.36 1.768 4.908 2.642l-.723 1.286c-1.653-.933-3.142-1.869-4.77-2.573-.758-.328-1.23-.472-1.362-.392l.838 2.389c.774 2.132-1.852 3.77-4.04 2.351l-6-3.89c-.3-.196-.56-.269-.744-.255l1.07 1.346c.467.655.994 1.39.91 2.153-.12 1.11-1.197 1.674-2.375 1.236-2.33-.867-4.278-1.847-6.472-2.82-6.643 11.997-5.382 26.827 3.086 37.53l.008-.028 6.13 2.024c.388.118.775.134.957.022-.364-.954-1.274-1.278-1.354-2.367-.048-.647.312-1.196.96-1.384 1.48-.429 3.994 1.357 5.193 2.181l.001-.002c1.191.818 2.314 1.708 3.807 1.649.625-.025 1.603-.14 1.595-.92-.007-.671-.765-1.695-.53-2.757.17-.768.817-1.143 1.576-1.077.362.03.777.159 1.225.375 2.215 1.074 4.223 2.37 6.41 3.475.855.432 2.195.608 2.749.09.494-.464-.401-1.194-.433-2.32-.033-1.212.895-1.815 2.14-1.425 2.05.643 5.53 2.553 7.857 3.572.667.292 1.295.394 2.04.275.322-.051.966-.257.98-.44.052-.656-1.108-.754-1.61-1.588-.328-.544-.194-1.185.408-1.497 1.06-.55 3.934.113 5.032.437 1.074.317 2.145.733 3.327 1.203l-.545 1.373c-2.082-.829-3.92-1.537-6.12-1.715 1.538 1.105 1.43 3.262-1.24 3.687-1.045.166-1.932.028-2.863-.38-1.674-.732-6.898-3.431-7.929-3.567.01.681.63 1.06.572 2.139-.11 2.104-2.943 2.531-5.03 1.477-2.179-1.1-4.198-2.402-6.389-3.463l-.722-.233c-.003.603.567 1.394.572 2.344.014 2.394-2.895 2.693-4.582 2.235-1.144-.31-2.139-1.046-3.13-1.727v-.003c-.837-.575-2.87-1.96-3.808-1.993.162.35 2.211 2.123.892 3.392-.578.557-1.529.62-2.437.345-1.338-.405-2.598-.829-3.852-1.253 13.13 14.018 35.265 14.402 48.862.805a34.007 34.007 0 0 0 8.881-32.565l-.848 1.178a45.328 45.328 0 0 0 -8.479-4.779c-.338-.146-.868-.267-1.018-.156h.003l.235.675-.003.001c.384.823.695 1.747-.064 2.51-.57.574-1.494.682-2.333.574-1.783-.23-3.53-1.001-5.265-1.518l.144.148h.003c1.204 1.317.787 2.72-1.157 2.93-2.582.281-5.647-1.234-8.043-2.358-.751-.352-1.5-.704-2.292-1.043-.395-.12-.686-.151-.877-.115.086.288.66.873.68 1.83.032 1.423-.907 2.204-2.273 2.234-1.874.042-3.96-1.272-5.616-2.213-1.014-.575-3.178-1.878-4.227-1.988-.025.71.923 2.092.295 3.554a1.94 1.94 0 0 1 -.696.855c-.078.024-.392.316-1.13.365-.636.043-1.45-.12-2.47-.559-2.16-.928-4.15-2.199-6.194-3.26-.38-.196-.658-.26-.832-.236.16.337.872.567 1.285 1.836.297.912.138 1.543-.523 1.911zm4.057 22.865v-10.284l-2.193.006-.001-1.982c1.356-.004 1.851-.372 2.723-1.474l2.74.004v13.73zm5.23-11.283c0-1.516 2.033-2.666 3.834-2.696 1.813-.03 3.777 1.12 3.774 2.607l-.013 8.527c-.003 1.864-1.653 2.977-3.815 3.017-2.219.041-3.643-.898-3.637-3.562l2.878.075c.001.846.288 1.174.88 1.162.553-.01.784-.386.784-.92l.001-1.74c-.224.187-.604.656-1.321.656l-1.393-.002c-1.091-.001-1.972-1.518-1.972-2.663zm18.957-20.174-1.7-2.448c-1.04-1.706.478-3.167 2.12-2.188 2.654 1.583 5.326 3.535 8.289 3.41l.644-.197c-.064-.455-1.427-1.64-1.428-1.64-.44-.43-.69-.877-.781-1.29-.257-1.162.686-1.996 1.945-1.838 2.458.308 5.973 2.023 8.252 3.172l-.665 1.32c-2.105-1.06-5.526-2.741-7.767-3.021-.152-.02-.262-.01-.329.02l.38.579c.71.695 1.825 1.563 1.871 2.652.048 1.143-1.093 1.68-2.065 1.721-3.433.144-6.23-1.905-9.104-3.619a.872.872 0 0 0 -.213-.096c.101.393 1.4 2.123 1.745 2.588zm-21.294 44.838-.981-1.636c-.983-1.567.21-2.985 1.87-2.438.583.192 1.276.531 2.06.915 1.775.868 3.272 1.608 5.529 1.904.75.1 1.439.191 1.8.023-.62-.837-2.287-1.542-2.604-2.62-.206-.7.202-1.264.86-1.486 1.498-.508 4.324.533 5.818 1.192 1.298.573 2.598 1.276 3.805 1.97.41.236 1.27.619 1.58.47l.025-.537c-.03-.403-.966-1.368-.865-2.763.089-1.232 1.107-1.611 2.295-1.218 1.675.554 3.528 1.535 5.125 2.439l-.724 1.286c-1.435-.811-3.314-1.804-4.865-2.318a1.613 1.613 0 0 0 -.354-.084c-.065.909.716 1.554.853 2.435.228 1.47-.572 2.437-2.022 2.24-.534-.071-1.152-.307-1.784-.67-2.111-1.213-4.896-2.672-7.277-3.046a3.805 3.805 0 0 0 -.82-.05c.817.748 2.323 1.545 2.48 2.669.077.55-.137 1.032-.802 1.386-.843.448-1.926.25-2.994.11-2.18-.28-4.131-1.235-5.708-2.006-.548-.268-1.82-.912-2.157-.88l1.09 1.89zm11.197-18.836c.95-2.508 1.76-5.208 1.983-8.188h3.33c.018 2.264-1.29 5.067-3.234 8.13l-.001.464 1.992-.002-.006-2.052c.806-1.174 1.495-2.48 1.83-3.874h1.267l.004 5.935h.964l.002 2.488-.981-.004-.006 2.539-3.035-.003-.003-2.471-4.103.002zm9-4.98c.022-2.435 1.104-3.577 3.662-3.571 2.733.006 3.914 1.147 3.923 3.506.005 1.453-.172 2.644-1.536 3.106 1.505.444 1.637 1.833 1.634 3.383-.005 2.838-1.184 4.308-3.857 4.332-2.54.023-3.927-1.21-3.94-4.135-.008-1.876.012-2.784 1.422-3.547-1.184-.472-1.321-1.637-1.308-3.073" fill="#fff"/><path d="m119.26 185.37.002 3.577c0 .505.427.796.789.79.391-.006.777-.323.777-.715v-3.576c0-.337-.377-.73-.736-.729-.381 0-.831.301-.831.654zm17.778.726c-.012 1.064.218 1.708.858 1.717.638.009.902-.588.899-1.692-.003-.867-.323-1.463-.928-1.471-.564-.008-.82.653-.83 1.446m.858 3.989c-.721.006-.863 1.264-.866 1.986-.003.763.087 2.133.85 2.125.76-.007.839-1.259.842-2.019.003-.704-.121-2.099-.825-2.092" fill="#fff"/><path d="m126.012 3.225c-33.762 0-64.437 13.875-86.682 36.188-22.28 22.349-36.105 53.164-36.105 86.98 0 33.764 13.772 64.34 35.982 86.483 22.245 22.179 52.956 35.903 86.77 35.903 33.805 0 64.454-13.702 86.645-35.856 22.17-22.132 35.898-52.704 35.898-86.479 0-33.84-13.773-64.686-36.01-87.05-22.172-22.3-52.76-36.17-86.498-36.17m-88.255 34.626c22.65-22.72 53.883-36.848 88.255-36.848 34.35 0 65.494 14.122 88.07 36.828 22.64 22.77 36.662 54.171 36.662 88.615 0 34.384-13.981 65.513-36.559 88.052-22.594 22.556-53.796 36.507-88.207 36.507-34.422 0-65.686-13.973-88.335-36.554-22.617-22.551-36.643-53.683-36.643-88.057 0-34.423 14.075-65.791 36.758-88.543" fill="#231f20"/><path d="m41.074 154.96c22.898-37.189 43.741-76.635 64.378-116.02-16.468 3.886-31.183 12.384-42.75 24.04-16.214 16.337-26.243 38.878-26.243 63.608 0 9.94 1.622 19.478 4.615 28.373m105.226-115.973c20.257 38.558 41.305 77.97 64.287 115.655 2.919-8.8 4.498-18.224 4.498-28.041 0-24.732-10.028-47.278-26.243-63.619-11.517-11.608-26.158-20.086-42.542-23.995m35.672 110.983c-11.06-5.796-22.942-9.682-35.656-11.67a59.556 59.556 0 0 1 -4.15 8.944 36.18 36.18 0 0 1 9.176 6.676c14.146 14.147 14.146 37.082 0 51.229a36.061 36.061 0 0 1 -19.069 10.017c22.133-1.562 42.017-11.075 56.75-25.727a88.488 88.488 0 0 0 16.892-23.438c-7.508-6.205-15.487-11.599-23.943-16.03m-81.859 55.178c-14.146-14.147-14.146-37.082 0-51.229a36.18 36.18 0 0 1 9.37-6.774 63.423 63.423 0 0 1 -4.2-8.938c-12.544 1.887-24.716 5.666-36.344 11.778-8.083 4.248-15.905 9.498-23.407 15.783a88.554 88.554 0 0 0 17.013 23.656c14.692 14.606 34.5 24.108 56.54 25.723a36.055 36.055 0 0 1 -18.972-10" fill="#f58220"/><path d="m34.235 126.588c0-25.334 10.278-48.43 26.895-65.173 12.29-12.383 28.046-21.29 45.675-25.059l2.189-4.179c5.168-9.869 10.332-19.729 15.198-28.939-33.044.488-63.018 14.264-84.862 36.175-22.28 22.349-36.105 53.164-36.105 86.98 0 22.383 6.052 43.364 16.602 61.416 6.77-9.925 13.337-20.078 19.742-30.411-3.453-9.607-5.334-19.976-5.334-30.81m156.181-65.168c16.617 16.748 26.894 39.848 26.894 65.183 0 10.719-1.838 20.982-5.217 30.502 6.425 10.475 13.002 20.812 19.755 30.955 10.596-18.093 16.672-39.145 16.672-61.615 0-33.84-13.773-64.686-36.01-87.05-21.836-21.963-51.835-35.747-84.968-36.16a16300.045 16300.045 0 0 1 10.477 19.967 22721.288 22721.288 0 0 0 6.922 13.197c17.55 3.794 33.232 12.683 45.475 25.021m-129.434 129.579a90.834 90.834 0 0 1 -17.192-23.745c-7.758 6.71-15.165 14.546-22.158 23.545a123.273 123.273 0 0 0 17.575 22.077c22.245 22.179 52.956 35.903 86.77 35.903 33.805 0 64.454-13.702 86.645-35.856a123.011 123.011 0 0 0 17.61-22.183c-6.97-8.571-14.491-16.392-22.567-23.27a90.798 90.798 0 0 1 -17.078 23.542c-16.56 16.471-39.463 26.606-64.784 26.606-25.324 0-48.245-10.141-64.821-26.619m-18.312 18.286 17.226-13.167 4.9 4.376-11.228 18.482-3.975-3.32 2.283-3.22-2.634-2.39-2.905 2.553zm149.059-12.203c.674-.357 1.326-.57 1.916-.645.72-.093 1.527.094 2.191.458.66.362 1.318 1.039 1.946 1.776.77.904 1.432 1.523 1.569 2.403.14.903.044 1.927-.482 2.896 2.134-.973 3.077-.32 4.757 1.493 1.066 1.151 3.666 4.781 5.005 4.795l-3.592 3.138c-.558.066-1.052-.29-1.397-.614-.932-.873-1.726-1.817-2.524-2.648-.913-.95-1.787-2.252-2.321-2.408-.53-.155-1.133-.043-1.859.575l-.7.596 6.033 6.84-3.633 3.234-14.117-16.066 4.319-3.688c1.253-1.07 2.218-1.78 2.889-2.135m-133.38 25.493 11.653-17.83 4.076 2.651-9.352 14.42 4.503 2.806-2.253 3.559zm13.173 7.794 12.601-17.645 5.969 2.746-5.307 20.964-4.775-2.008 1.238-3.747-3.22-1.512-2.028 3.293zm18.472 8.462 4.902-20.96 5.288 1.27.724 12.588.365.09 2.526-11.77 4.769 1.15-4.82 20.728-5.24-1.302-.74-13.282-.313-.074-2.68 12.419zm23.766 4.55.714-8.337-2.923-13.309 5.218.51.588 6.864.51.023 1.531-6.67 5.19.35-5.155 12.181-.701 8.733zm12.37.889 2.126-21.577 6.544-.596 5.85 20.819-5.14.64-.796-3.866-3.545.295-.115 3.866zm17.785-8.895 4.77-1c.135 1.169.36 2.188.814 2.788.317.42 1.157.617 1.716.432.446-.147.988-.49 1.137-.907.149-.421.13-.913-.117-1.468-.436-.98-1.348-1.46-2.946-2.276-1.979-1.008-3.342-1.646-4.012-2.044-.505-.3-1.332-.803-1.754-1.294-.433-.504-.77-1.23-1.003-1.932-.566-1.709-.593-3.307.003-4.584.597-1.278 2.303-2.45 3.911-2.983 1.753-.58 3.478-.682 4.754-.097 2.32 1.062 3.007 2.448 3.345 4.42.024.14.22 1.022.245 1.1l-4.595 1.166-.183-.767c-.214-.901-.292-1.614-.86-1.969-.45-.282-.826-.458-1.296-.303-.398.132-.83.395-.972.782-.141.39-.224.83-.056 1.338.444 1.342 3.023 2.143 4.34 2.722 1.704.75 2.838 1.358 3.51 1.883.922.718 1.556 1.51 2.032 2.636.346.82 1.003 2.948.07 4.8-.671 1.332-1.736 2.433-3.457 3.176-1.778.766-4.859.778-6.116.07-1.259-.706-2.198-1.674-2.86-3.673-.004-.014-.33-1.65-.42-2.016zm20.74 2.258-8.099-19.745 4.434-1.832c1.495-.618 2.539-1.087 3.31-1.25.77-.162 1.728-.244 2.356-.127.826.155 1.744.558 2.442 1.26.695.697 1.268 1.836 1.762 3.001.814 1.922 1.19 3.844.673 5.24-.517 1.394-1.882 2.213-4.008 3.113l-1.452.615 3.188 7.692zm11.989-16.751-2.812-4.654c-.597-.987-.862-2.095-.883-2.84-.03-1.06.202-2.005.71-2.855s1.348-1.719 2.395-2.386c1.053-.671 2.252-1.14 3.226-1.235.974-.096 2.004.098 2.955.567.682.337 1.522.93 2.157 1.892l3.053 4.624c1.356 2.055 2.417 3.583 2.894 4.638s.741 2.037.758 2.797c.026 1.049-.313 2.02-.816 2.87s-1.384 1.578-2.43 2.245q-1.57 1-3.048 1.153c-.987.098-1.955-.087-2.9-.552a5.696 5.696 0 0 1 -2.128-1.818z" fill="#fff"/><path d="m59.782 201.096-7.821 6.56 2.018 1.842 6.089-8.131zm25.693 16.421-5.55 8.566 2.47 1.17 3.433-9.56zm46.343 8.656-.54 10.193 2.724-.218-1.79-10zm30.75-6.545 2.004 4.733.221-.064c.086-.026.197-.068.344-.13.82-.348 1.47-.61 1.659-1.18s-.11-1.466-.5-2.387c-.323-.762-.947-1.615-1.502-1.652-.647-.043-.967.146-1.871.53zm19.494.223 1.829 2.783c.64.975 1.465 1.08 2.058.703.585-.373.807-.948.57-1.545-.227-.57-.9-1.62-2.167-3.493l-2.05-3.034-2.108-3.3c-.57-.893-1.49-.994-2.083-.616-.578.368-.707 1.297-.235 2.02l2.084 3.192zm8.749-17.383 3.129 3.675q.087-.074.231-.178.145-.105.213-.163c.702-.598 1.164-1.156 1.157-1.713-.009-.55-.476-1.138-1.095-1.865-.57-.671-.948-1.02-1.482-1.052-.532-.031-1.042.314-1.745.912a3.487 3.487 0 0 0 -.194.183 3.923 3.923 0 0 1 -.214.2" fill="#fff"/><path d="m101.025 115.22c-.243-21.456 10.35-39.776 24.753-48.68 15.154 9.926 24.592 29.428 24.576 49.593-.004 5.649-.898 12.754-3.296 20.042 12.809 2.045 24.784 5.986 35.94 11.833 15.185 7.958 28.842 18.955 41.003 32.144-32.385-49.931-60.747-104.037-87.945-155.926-3.2-6.103-6.374-12.16-10.188-19.41a8812.025 8812.025 0 0 0 -14.91 28.386c-26.295 50.207-52.753 100.725-83.198 146.773 12.364-13.848 25.849-24.437 40.146-31.952 11.718-6.16 23.98-9.996 36.613-11.94-2.31-6.79-3.517-13.948-3.494-20.864" fill="#42a13f"/></g></svg>