<svg viewBox="0 0 69.96 82.93" xmlns="http://www.w3.org/2000/svg"><path d="M35 0A67.5 67.5 0 0 0 0 10.12v34.44c0 23.37 31.91 37.08 33.26 37.65l1.72.72 1.71-.72C38.06 81.64 70 67.93 70 44.56V10.12A67.47 67.47 0 0 0 35 0" fill="#e73037"/><path d="M35 3.18a62.3 62.3 0 0 0-32.3 9.34v31.8c0 21.58 29.46 34.23 30.71 34.76l1.59.67 1.58-.67c1.26-.52 30.71-13.18 30.71-34.76v-31.8A62.3 62.3 0 0 0 35 3.18" fill="#1d1d1b"/><path d="M35 78.6l-1.17-.49a74.6 74.6 0 0 1-15.58-9.34C8.62 61.19 3.74 53 3.74 44.32V13.1L4 13a61.87 61.87 0 0 1 31-8.76A61.83 61.83 0 0 1 66 13l.21.13v31.19c0 8.65-4.87 16.87-14.48 24.44a74.5 74.5 0 0 1-15.58 9.34zm-30.37-65v30.72c0 8.37 4.76 16.36 14.15 23.76a73.5 73.5 0 0 0 15.36 9.22l.84.35.83-.35a73.5 73.5 0 0 0 15.38-9.22c9.39-7.4 14.15-15.39 14.15-23.76V13.59A61 61 0 0 0 35 5.11a61 61 0 0 0-30.38 8.48" fill="#fff"/><path d="M63.54 44.32V30A59.8 59.8 0 0 0 35 22.26 59.9 59.9 0 0 0 6.42 30v14.32c0 7.78 4.53 15.3 13.46 22.34a71.6 71.6 0 0 0 15 9l.14.06.13-.06a72 72 0 0 0 15-9c8.93-7 13.46-14.55 13.46-22.34M20.28 15.29a7.6 7.6 0 0 1-.32-3c.29-2.06 2.29-3.2 4.16-3.48a4.88 4.88 0 0 1 4.83 1.76.16.16 0 0 1-.05.25c-.76.36-1.14.54-1.89.92a.21.21 0 0 1-.26 0 2.25 2.25 0 0 0-2.3-.82 1.91 1.91 0 0 0-1.79 1.54 7 7 0 0 0 .23 2.33A7.7 7.7 0 0 0 23.5 17a1.84 1.84 0 0 0 2.06.87 1.86 1.86 0 0 0 1.67-1.37 3.5 3.5 0 0 0 0-1.09c0-.06 0-.09-.12-.08l-1.59.22a.16.16 0 0 1-.2-.13l-.23-1.53a.16.16 0 0 1 .15-.19c1.66-.25 2.49-.34 4.16-.49a.16.16 0 0 1 .19.15l.07.9a8.6 8.6 0 0 1-.08 2.48A4.26 4.26 0 0 1 25.85 20a4.21 4.21 0 0 1-4.58-1.83 8.5 8.5 0 0 1-1-2.84M31.35 8.4c0-.1.07-.16.18-.17 2.8-.1 5.55-.07 8.35.07.11 0 .19.08.18.17l-.12 1.72a.17.17 0 0 1-.2.15q-2.72-.18-5.45-.15c-.07 0-.11 0-.11.1v2.3c0 .06 0 .1.11.1 1.75 0 2.63 0 4.38.09a.16.16 0 0 1 .17.17l-.09 1.7a.16.16 0 0 1-.18.15c-1.7-.09-2.55-.11-4.24-.09q-.1 0-.1.1l.06 4.12a.15.15 0 0 1-.16.16c-.82 0-1.24 0-2.06.07a.15.15 0 0 1-.17-.15zM42 8.63a.17.17 0 0 1 .21-.14c1 .1 1.45.15 2.42.28.11 0 .18.09.17.18l-.64 4.68c1.6-1.39 3.23-2.7 4.91-4a.36.36 0 0 1 .35-.08c1.09.22 1.64.34 2.73.61a.11.11 0 0 1 0 .22q-2.38 1.52-4.63 3.24a72 72 0 0 1 2.43 7.06c0 .13 0 .19-.14.16-.93-.23-1.4-.34-2.34-.53a.23.23 0 0 1-.21-.19c-.62-2-1-3-1.75-5-.73.61-1.09.92-1.79 1.56l-.38 2.76a.15.15 0 0 1-.18.14c-.82-.11-1.23-.16-2.05-.24a.15.15 0 0 1-.15-.18z" fill="#fff"/><path d="M31.15 71.52h-.89v-1.75h-.69v-.61a.81.81 0 0 0 .91-.69h.67zm1.85-.78a.33.33 0 0 0 .36.24c.33 0 .46-.3.46-.69a1.08 1.08 0 0 1-.7.22 1 1 0 0 1-1-1c0-.73.52-1.06 1.2-1.06.87 0 1.41.47 1.41 1.56 0 .92-.48 1.55-1.31 1.55-.56 0-1.1-.18-1.23-.79zm.78-1.25a.39.39 0 0 0-.4-.39.41.41 0 0 0 0 .82.39.39 0 0 0 .42-.43m1.26-.17c0-.58.58-.85 1.23-.85s1.15.35 1.15.83a.61.61 0 0 1-.4.62.7.7 0 0 1 .5.7c0 .6-.54 1-1.29 1s-1.3-.29-1.3-1a.7.7 0 0 1 .49-.68.61.61 0 0 1-.39-.63m1.61 1.27a.41.41 0 0 0-.82 0c0 .29.27.4.52.35a.32.32 0 0 0 .29-.36m0-1.19a.33.33 0 0 0-.37-.32c-.22 0-.39.11-.38.33s.17.31.38.31.37-.1.37-.32m1.25-.06c0-.58.58-.85 1.23-.85s1.15.35 1.15.83a.6.6 0 0 1-.4.62.7.7 0 0 1 .5.7c0 .6-.54 1-1.29 1s-1.3-.29-1.3-1a.7.7 0 0 1 .49-.68.61.61 0 0 1-.39-.63m1.61 1.27a.41.41 0 0 0-.82 0c0 .29.27.4.52.35a.32.32 0 0 0 .29-.36m0-1.19a.33.33 0 0 0-.37-.32c-.22 0-.39.11-.38.33s.17.31.37.31.37-.1.37-.32M33.3 27.27C31.65 23.14 27.18 25 27.18 25a6 6 0 0 1 4.48 5.07 2.21 2.21 0 0 0-2.71-.24 6.4 6.4 0 0 1 2.12 4.36c.35 3.06 2 6.87 4.25 7.7a22 22 0 0 1 5.95-1.52c-2-1.06-2.42-5.47-1.83-9.48s-.59-5.3-.59-5.3c-.59 2.24-1.65 2.24-1.65 2.24-.59-7.19-6.83-7-6.83-7s2.71 1.65 2.95 6.36" fill="#1d1d1b"/><path d="M46.28 27.04l-22.84.02 2.15 3.72 2.94 5.1 12.66-.01z" fill="#f0856a"/><path d="M37.47 32.14l1.79 3.73h1.93l5.09-8.83zm-14.04 5.08l4.13.32.96-1.67-2.93-5.09-2.16-3.72h.01l-.01-.02z" fill="#e73037"/><path d="M12.01 46.83l11.42-9.61V27.04z" fill="#f0856a"/><path d="M12.01 46.84l8.81 5.08 2.34-3.42-.96-1.67z" fill="#e73037"/><path d="M23.44 66.61l-2.62-14.69-8.81-5.08z" fill="#f0856a"/><path d="M28.52 57.79l-5.09 8.82 8.82-5.09-1.8-3.73z" fill="#e73037"/><path d="M30.45 57.79l1.8 3.73 14.02 5.08-3.1-5.38-1.99-3.44zm11.21-10.97l4.73 1.95-4.24 7.34 4.13.32 11.42-9.61z" fill="#f0856a"/><path d="M41.18 57.78l5.1 8.83V56.43l-4.13-.32z" fill="#e73037"/><g fill="#892301"><path d="M28.53 35.88l10.73-.01-1.79-3.73-14.04-5.08z"/><path d="M28.53 35.88l10.73-.01-1.79-3.73-14.04-5.08zM12.01 46.83H22.2l5.36-9.29-4.13-.32zm8.81 5.09l2.62 14.69 5.09-8.83-5.37-9.28z"/><path d="M23.45 66.61v-.04l-.02.04 22.84-.01-14.02-5.08zm22.83-10.18v10.18L57.7 46.82z"/></g><path d="M43.25 40.83a3.3 3.3 0 0 0-1.54-.29 6 6 0 0 0-1 .11c-1.49.28-3.29 1-5.46 1.57-5.18 1.41-7.07-3.77-10.37-10.6s-7.54-5.42-7.54-5.42 2.71.35 3.18 5.66a8.08 8.08 0 0 0-11-2.24s3.65-.94 6.13 3.65c-3.42-.35-4.6 1.41-4.6 1.41a9.75 9.75 0 0 1 8.25 3.65 3.86 3.86 0 0 0-3.42 2.36 6.9 6.9 0 0 1 6.48 2.47c2.43 3 5.51 5 7.57 5.35a2.49 2.49 0 0 0-2 1.6 4.61 4.61 0 0 1 3.93.28l.25.11c.78.34 1.46.6 2.15.85 1.73.62 1 1.29.89 1.4-1 .87.1 2 .1 2-.48-1.25 1-1.38 1-1.38a3.05 3.05 0 0 0 1.84-.73l.34.27a3 3 0 0 0-.28.29 1.38 1.38 0 0 0 .16 1.93c-.48-1.25 1-1.38 1-1.38a3.6 3.6 0 0 0 1.11-.27 2.7 2.7 0 0 0 .76-.49c.34.23 1 .84 1 .84a3.7 3.7 0 0 0-.56-1.29 10 10 0 0 1 1.24.71c-.94-2.1-1.82-1.38-1.82-1.38a4 4 0 0 1-.42.3 2.6 2.6 0 0 1-.44.22h-.17a11.9 11.9 0 0 0-2.84-3.76c.81-.84 1.56-2.3 2.76-3.26s3.37-1.52 4-1a1.66 1.66 0 0 1 .6 1.58c1.74-.74 1.23-4.08-1.28-5.08m-4.67 10.27c.88.19 1.23 1.29 1.51 2a10 10 0 0 0-1.09-.61 1.8 1.8 0 0 1 .09.91.2.2 0 0 0 0-.05 3.5 3.5 0 0 0-.57-1.26 7.2 7.2 0 0 1 1.32.72c-.94-2.1-1.82-1.38-1.82-1.38a2.3 2.3 0 0 1-.91.52L37 52c-.07-.16-.15-.32-.23-.47l.28.1a2.53 2.53 0 0 1 1.56-.47m2.29-7.77a6.1 6.1 0 0 0-1.92.72 6.26 6.26 0 0 1-4.69.2c2 .09 2.8-.48 5.28-1.87.68.26 1.39.14 1.33 1m4 .39c-.07.05-.28-.1-.49-.34s-.55-.73-.49-.79a1.34 1.34 0 0 1 .81.41.82.82 0 0 1 .17.71" fill="#1d1d1b"/></svg>