<svg viewBox="33.45 223.05 716.56 716.56" xmlns="http://www.w3.org/2000/svg" xmlns:xlink="http://www.w3.org/1999/xlink"><linearGradient id="a" gradientUnits="userSpaceOnUse" spreadMethod="pad" x1="174.626" x2="430.34" y1="489.333" y2="310.278"><stop offset="0" stop-color="#73c944"/><stop offset=".148" stop-color="#73c944"/><stop offset=".236" stop-color="#30af46"/><stop offset=".295" stop-color="#30af46"/><stop offset=".36" stop-color="#a6daa2"/><stop offset=".527" stop-color="#a6daa2"/><stop offset=".6" stop-color="#31b44b"/><stop offset=".77" stop-color="#40b952"/><stop offset="1" stop-color="#73c944"/></linearGradient><g transform="matrix(1.33333 0 0 -1.33333 0 1122.52)"><path d="m562.505 405.89c0-148.404-120.307-268.71-268.71-268.71s-268.708 120.307-268.708 268.71 120.307 268.709 268.71 268.709 268.709-120.306 268.709-268.71" fill="#2e3192"/><path d="m542.42 405.89c0-137.312-111.314-248.624-248.624-248.624-137.312 0-248.626 111.312-248.626 248.624 0 137.311 111.314 248.625 248.626 248.625 137.31 0 248.625-111.314 248.625-248.625" fill="#fff"/><path d="m148.249 405.89c0-80.255 65.292-145.546 145.547-145.546 80.256 0 145.547 65.29 145.547 145.546 0 80.254-65.291 145.547-145.547 145.547-80.255 0-145.547-65.293-145.547-145.547m12.36 0c0 73.44 59.747 133.187 133.187 133.187s133.186-59.748 133.186-133.187-59.747-133.186-133.186-133.186-133.187 59.747-133.187 133.186" fill="url(#a)" fill-rule="evenodd"/><path d="m229.824 191.987 7.817 27.87-7.438 2.084 2.058 7.34.864-.243q3.69-1.035 6.208-.08 2.517.955 4.414 4.161l7.408-2.078-11.71-41.751zm47.849 8.895a11.7 11.7 0 0 0 -4.048-1.694q-2.163-.458-4.819-.171-6.27.674-9.713 5.003-3.446 4.328-2.765 10.646.72 6.685 5.539 10.343 4.82 3.657 11.898 2.894 7.913-.852 11.69-6.749 3.777-5.895 2.71-15.795-1.281-11.904-6.37-17.42-5.09-5.52-13.827-4.58-6.201.669-9.462 4.434-3.26 3.765-2.702 9.503l8.92.088q-.103-2.612 1.189-4.185 1.287-1.573 3.696-1.832 3.151-.34 5.167 2.03 2.016 2.373 2.897 7.485m.793 11.567q.288 2.678-1.376 4.886-1.665 2.206-4.202 2.478-2.597.28-4.658-1.462-2.06-1.743-2.36-4.546-.303-2.806 1.327-4.912 1.628-2.11 4.257-2.392 2.597-.28 4.656 1.462 2.06 1.743 2.356 4.486m24.572-1.266a12 12 0 0 0 2.958 1.38q1.607.505 3.558.649 6.628.483 11.088-3.389 4.458-3.87 4.941-10.488.541-7.422-3.627-11.86-4.17-4.438-12.264-5.029-7.554-.55-12.169 2.78-4.614 3.328-5.076 9.667a10 10 0 0 0 -.013.573q.002.388-.016.636l9.468 1.06.056-.766q.217-2.978 2.005-4.528 1.788-1.552 4.732-1.337 3.391.247 5.24 2.444 1.847 2.195 1.592 5.712-.245 3.361-2.307 5.335t-5.003 1.76q-2.074-.152-3.495-1.136-1.425-.986-2.339-2.905l-8.958.182 2.809 23.846 26.575 1.937-.364-8.599-18.693-1.362zm50.416 3.616q3.825-.448 6.419-2.673 2.595-2.227 3.563-5.926 1.557-5.952-1.78-10.486-3.334-4.536-10.721-6.468-8.03-2.101-13.424.338-5.394 2.442-7.084 8.9l-.064.242 9.64 3.842.16-.601q.897-3.436 3.114-4.852 2.214-1.416 5.409-.579 2.7.705 3.939 2.72 1.24 2.016.578 4.548-.813 3.102-2.71 3.973-1.896.873-5.815-.152a64 64 0 0 1 -2.527-.758 4 4 0 0 0 -.365-.128l-1.86 7.114q.315.083.932.213 1.817.38 2.395.532 2.863.748 4.02 2.464 1.159 1.714.5 4.239-.655 2.493-2.37 3.489-1.718.993-4.263.328-2.695-.706-3.888-2.67-1.193-1.966-.514-4.552.156-.597.354-1.164.2-.567.432-1.078l-10.279-.942-.032.119q-1.727 6.595 1.469 11.273 3.194 4.68 10.798 6.671 7.193 1.883 11.857-.172 4.66-2.058 6.164-7.798.838-3.201-.16-5.668t-3.887-4.338m-184.555 82.112c4.67-8.073 4.525-18.289-6.836-27.905-13.317-11.274-25.38-6.648-32.1 1.29-7.276 8.597-4.703 17.145-.625 22.05l8.813-6.974c-1.505-1.758-4.18-5.474-.68-9.606 2.108-2.49 7.103-4.954 16.11 2.67 5.666 4.797 10.33 10.68 5.876 15.94-3.181 3.758-7.437 2.01-10.31.788l-5.18 10.048c8.581 4.2 15.76 3.182 22.122-4.334a30 30 0 0 0 .77-.948l.046-.044 3.323.55c-.537.442-1.083.795-1.803 1.652-2.801 3.331-1.035 6.36.227 7.42 3.448 2.9 7.118.704 9.678-2.342 2.521-2.999 3.17-5.053 3.682-7.14l-3.123-.92c-.666 1.877-1.381 3.713-2.661 5.236-1.84 2.19-3.103 1.129-3.54.762-1.603-1.347-.082-3.158.357-3.681.68-.809.977-.966 1.7-1.332l-.067-2.088-5.843-.997zm-34.653 56.139 5.623-11.363-7.128-6.48 7.236-14.617 9.584 1.516 5.352-10.81-47.613-5.645-6.743 13.624zm-8.264-24.211-8.022-7.679c-2.063-1.982-4.208-3.8-5.634-4.781l.11-.22c2.408.712 5.293 1.178 7.272 1.47l11.024 1.613zm-7.637 24.019-23.37-22.712-3.545 13.322 9.87 8.803a32.3 32.3 0 0 0 5.575 3.967l-.079.298c-1.966-.013-5.718.517-7.302.796l-12.4 2.433-3.417 12.845 31.567-8.094 16.187 4.306 3.102-11.657zm-9.958 36.218.007-.123 19.636 1.131.694-12.043-45.1-2.599-.694 12.043 18.56 1.07-.008.124-19.31 11.955-.802 13.948 22.266-14.746 22.773 18.39.856-14.87zm-26.217 35.038 2.08 11.882 27.999-4.902c4.687-.821 8.734.22 9.605 5.191.933 5.335-2.717 7.661-7.217 8.449l-27.999 4.902 1.996 11.397 27.998-4.902c11.125-1.947 16.415-9.622 14.346-21.443-1.74-9.942-7.623-17.785-20.81-15.476zm10.363 49.344 7.896 18.444c1.308 3.056 5.74 13.409 17.523 8.365 5.19-2.223 8.499-5.781 8.54-11.49l22.2 1.074-5.233-12.22-18.781.14-1.793-4.186 15.924-6.818-4.747-11.088zm21.916 3.471 2.422 5.658c.606 1.414 2.084 4.866-2.641 6.889-2.392 1.024-4.884.684-6.434-2.937l-2.446-5.714zm17.085 65.793 14.123 14.25c2.34 2.362 10.267 10.361 19.37 1.34 4.012-3.975 5.78-8.5 3.72-13.824l21.041-7.16-9.357-9.443-17.415 7.034-3.206-3.235 12.304-12.192-8.491-8.569zm21.658-4.826 4.332 4.371c1.083 1.093 3.726 3.76.076 7.377-1.849 1.831-4.29 2.432-7.063-.366l-4.375-4.416zm13.812 37.481 9.856 6.955 26.044-36.912-9.857-6.954zm34.654-17.465 6.748 31.446-17.123-8.272-4.03 8.34 29.703 14.35 4.25-8.798-6.805-32.319 18.343 8.862 4.03-8.341-30.535-14.75zm29.494 50.691 29.685 6.848 2.082-9.026-18.17-4.192 1.882-8.16 17.091 3.942 2.083-9.026-17.092-3.943 2.026-8.779 18.83 4.344 2.082-9.026-30.344-7zm52.484-22.055c.15-1.71 1.703-6.381 7.18-6.293 3.568.057 6.005 1.62 5.96 4.411-.04 2.537-1.471 3.466-5.988 4.98l-7.304 2.484c-5.571 2.005-10.124 5.676-10.225 11.955-.153 9.517 8.018 14.28 18.295 14.446 12.675.203 14.767-7.314 15.669-9.838l-10.526-3.786c-.269 1.455-1.8 4.794-5.923 4.727-4-.064-5.757-1.805-5.722-4.026.042-2.601 1.346-3.278 5.989-4.917l8.049-2.916c5.88-2.127 9.382-5.433 9.48-11.524.107-6.724-4.133-14.851-18.348-15.08-13.291-.213-16.073 8.182-17.042 11.021zm38.299 29.654 19.033-3.999c8.673-1.823 14.075-7.237 11.987-17.172-1.617-7.699-7.372-14.14-17.913-11.925l-7.408 1.557-3.184-15.15-11.804 2.48zm7.325-22.61 5.6-1.178c3.252-.683 5.977 1.208 6.708 4.686.625 2.98-.74 6.055-4.415 6.827l-5.48 1.152zm56.095 4.268c11.607-5.543 16.924-14.973 9.404-30.717-7.52-15.745-19.64-16.847-29.803-11.993-9.386 4.483-16.924 14.975-9.404 30.72 7.518 15.743 20.418 16.474 29.803 11.99m-16.408-34.35c6.555-3.131 10.982 1.997 14.372 9.096s4.597 13.766-1.956 16.896c-6.665 3.183-10.981-1.998-14.37-9.097-3.392-7.1-4.709-13.713 1.954-16.896m47.759 15.439 15.37-12.898c2.544-2.136 11.171-9.377 2.933-19.194-3.631-4.325-7.995-6.461-13.47-4.848l-5.4-21.56-10.183 8.546 5.572 17.936-3.488 2.928-11.135-13.268-9.239 7.755zm-3.021-21.982 4.713-3.956c1.18-.99 4.055-3.403 7.359.534 1.673 1.992 2.07 4.476-.947 7.008l-4.763 3.996zm44.675-63.976-.052.11-17.665-8.65-5.305 10.833 40.57 19.868 5.306-10.833-16.696-8.176.053-.11 22.436-3.542 6.143-12.548-26.24 4.968-13.87-25.775-6.55 13.376zm37.971-22.964 2.605-11.778-27.754-6.137c-4.647-1.027-7.993-3.532-6.903-8.459 1.17-5.288 5.432-6.048 9.892-5.061l27.755 6.136 2.497-11.297-27.754-6.137c-11.027-2.439-18.844 2.64-21.435 14.359-2.178 9.855.27 19.348 13.343 22.238zm8.935-50.037.091-12.062-35.657-.272.124-16.31-9.516-.072-.216 28.371zm-.303-37.088-2.349-11.83-27.88 5.533c-4.668.926-8.737-.023-9.718-4.973-1.056-5.312 2.543-7.72 7.022-8.61l27.88-5.534-2.252-11.347-27.88 5.532c-11.077 2.2-16.193 9.991-13.857 21.763 1.965 9.899 8.022 17.607 21.154 15zm-11.478-49.096-7.673-16.86c-1.58-3.473-6.426-14.117-16.705-9.437-7.68 3.495-6.529 9.395-6.13 11.648l-.29.131c-1.964-3.094-6.216-7.38-13.897-3.885-11.03 5.02-5.803 16.504-3.916 20.65l7.496 16.468zm-40.73-1.881c-1.276-2.802-.384-5.439 2.33-6.674 3.522-1.604 5.287-.175 6.767 3.074l2.702 5.938-8.893 4.047zm17.282-7.056c-1.248-2.744-.775-4.92 1.997-6.183 3.177-1.446 4.597-.47 5.973 2.555l2.6 5.714-7.968 3.627zm2.793-33.296-7.37-9.55-22.505 17.365c-3.768 2.906-7.834 3.867-10.917-.128-3.309-4.288-1.158-8.045 2.458-10.835l22.505-17.365-7.068-9.162-22.504 17.365c-8.943 6.9-10.056 16.154-2.725 25.655 6.165 7.992 15.02 12.197 25.62 4.019zm-312.503 293.055 9.968 7.013 4.5-6.395-9.968-7.013zm317.598-304.45-6.706-8.648-6.167 4.78 6.706 8.65zm-21.865-15.463 6.706 8.648 6.166-4.782-6.704-8.648zm58.471 110.294-2.151-10.73-7.651 1.534 2.15 10.729zm-12.686-23.584 2.15 10.73 7.651-1.534-2.15-10.73z" fill="#ee2722"/><path d="m232.243 417.014c6.3-4.01 19.502-9.202 32.273-19.228 8.126-6.378 15.108-11.26 18.678-16.754 3.57-5.493 3.982-9.064 3.846-17.03-.138-7.965-.138-15.38.96-24.994 1.1-9.612 3.57-13.32 3.434-19.5-.101-4.553-.203-8.881-.248-10.847-.018-.702.609-.981.918-.898 1.984.535 3.691 1.654 4.622 2.35.478.358.758 1.25.76 1.566.105 10.815-.277 17.292-.01 26.23.275 9.202 5.907 12.635 15.657 23.347s19.225 18.952 34.334 29.527c15.105 10.575 18.263 16.48 21.835 25.269 3.57 8.79 8.514 17.442 12.085 27.055 3.57 9.613 2.883 21.15 2.198 21.561-.688.412-2.747-4.395-7.967-10.3-5.218-5.906-11.81-12.222-20.873-16.342-9.065-4.12-20.188-5.494-36.394-15.93-16.206-10.439-20.05-18.541-22.66-29.252-2.61-10.713-1.373-28.017-1.098-36.12s-.275-10.712-.55-13.458-.549-9.064-.549-9.064c-2.198 7.827-2.472 19.913-2.198 29.802.275 9.888.138 16.342-.823 24.17-.962 7.828-.48 12.978-.48 12.978 2.06 2.06 5.973 8.446 16.068 20.188 10.093 11.742 13.183 27.81 14.83 42.23 1.649 14.42-.823 19.982-.823 19.982-1.236 0-2.883-9.476-10.507-19.158-7.62-9.683-19.363-24.72-23.69-37.286-4.326-12.566-2.266-23.278.619-26.369 0 0 .55-7.21.961-13.253.412-6.042.275-8.377.275-8.377s-1.648 2.746-2.884 5.081c-1.237 2.335-2.472 5.082-3.433 11.812-.962 6.728-1.908 27.212-17.991 39.414-11.948 9.064-24.632 8.696-34.059 11.124-9.064 2.335-14.557 6.729-19.089 10.712s-7.141 6.455-7.279 5.768 3.296-12.909 7.416-18.402 8.79-12.36 11.536-16.618 5.768-8.103 10.3-10.986" fill="#d4e840"/><path d="m272.323 393.572c.35-.525-.041-.39-.452-.068-1.638 1.285-4.324 3.394-7.372 5.536-3.811 2.679-10.403 6.694-17.15 10.455-6.746 3.76-7.312 3.707-11.123 5.768s-5.4 3.118-3.193 2.42c.978-.308 2.336-.824 3.64-1.365 4.564-1.892 12.679-4.887 18.23-7.819 7.279-3.846 11.782-7.546 14.283-10.575 1.052-1.275 2.39-3.23 3.137-4.352" fill="#8fd12c"/><path d="m214.802 440.446c2.297-3.271 4.995-6.798 6.489-9.115s2.626-5.665 4.068-7.416 3.657-4.378 5.253-4.944c1.596-.567 3.708-1.03 8.6-2.626 4.893-1.598 10.661-3.76 15.09-5.769 3.634-1.647 8.137-4.378 11.948-7.674 3.811-3.295 5.871-7.004 6.85-8.806.978-1.803 1.905-3.399 2.875-4.184 1.203-.974 2.283-2.364 3.649-3.799 2.746-2.884 7.416-9.339 7.416-13.732 0-4.395.823-3.023.823.274 0 3.296.687 3.845.961-.137.275-3.983-1.511-7.69-1.373-15.519s.686-16.206 2.06-21.561c1.373-5.356 2.715-10.433 2.61-18.128-.069-4.996-1.51-9.836 1.065-8.755 2.574 1.08 4.12 1.596 4.12 4.428 0 2.833-.104 11.537-.104 15.45 0 3.915-.206 9.528.412 12.618s1.803 5.304 4.171 8.549c2.37 3.245 5.418 8.095 7.726 13.596 2.73 6.506 3.072 9.253 9.116 14.609 6.042 5.356 10.71 8.72 17.99 12.36 7.278 3.64 13.251 7.28 18.128 10.231 4.875 2.953 8.79 4.807 10.711 8.171 1.923 3.366 2.335 7.142 3.503 11.4 1.168 4.257 5.836 11.673 9.27 19.775 3.433 8.103 5.149 14.901 5.424 18.335.275 3.433.137 6.111-.274 6.111s-2.198-3.365-5.288-7.21c-3.09-3.846-8.79-9.682-12.567-13.39-3.775-3.708-9.612-9.477-17.51-12.154-7.895-2.678-13.045-4.052-21.698-8.24-8.651-4.19-12.086-7.417-17.99-14.558-5.907-7.14-7.967-11.878-9.957-19.02s-2.54-11.055-2.54-20.05c0-8.997.549-15.381 0-19.365-.55-3.983-1.443-6.328-1.923-11.536-.412-4.463-.309-4.927-.309-4.927s-1.133 1.906-1.75 6.696c-.619 4.789-1.134 15.913-.877 21.578.258 5.665.464 10.918.155 16.685-.31 5.769-1.082 9.528-1.544 13.596-.464 4.07-.619 8.344-.258 9.58.36 1.235 1.802 3.038 4.995 9.218s4.017 9.116 5.922 13.75c1.906 4.636 1.587 7.426 5.665 11.588 5.048 5.15 7.83 8.704 9.734 17.664 1.905 8.962 3.536 15.193 2.85 15.245-1.095.082-1.923-2.336-7.004-7.828-5.083-5.493-8.378-9.201-10.163-15.793-1.786-6.593-1.786-7.005-4.944-12.635-3.159-5.631-7.279-9.339-8.79-16.48-1.51-7.142-2.06-10.712-1.373-12.772s.824-5.493 1.236-11.398c.412-5.907.824-11.95.687-13.46-.138-1.51-.275-1.099-2.06 1.785s-4.12 8.378-4.807 13.597-5.905 14.145-8.377 21.56c-2.472 7.417-7.554 14.147-14.695 18.404-7.14 4.257-8.79 5.905-17.853 7.69s-14.145 3.159-18.403 6.043-8.24 5.493-12.36 9.201-6.18 5.769-6.042 5.082c.04-.204.126-1.266.675-2.76.235-.64.576-1.511 1.152-3.145 1.04-2.953 2.635-6.3 9.434-15.983" fill="#8ad036"/><path d="m288.619 390.646c.137 1.373.549.618 1.068-2.302.402-2.835.817-5.767 1.026-9.668.11-2.056.156-4.03.156-6.002 0-3.428-.138-6.842-.31-10.644a81 81 0 0 1 -.07-3.583c0-6.023.45-14.208.948-18.067.622-4.818 1.758-6.772 1.806-6.853 1.534-3.215 2.036-3.583 1.624-2.278s-.618 5.63-.55 7.379c.118 3.089.714 5.155 1.13 7.164.519 1.388 1.55.976 1.858 1.696.964 2.251.515 5.46.72 12.258a675 675 0 0 0 1.238 25.647c.72 10.814 5.972 16.48 9.784 19.569 3.811 3.09 9.889 4.842 21.94 10.197 9.45 4.201 10.505 6.078 17.613 12.567s11.742 10.197 17.133 15.488l.08.08c4.148 4.071 9.634 9.736 12.6 13.426 1.646 2.049 2.902 3.928 3.82 5.301.378.568.758 1.134 1.019 1.478.072-.411.132-1.125.132-2.176 0-.863-.02-1.937-.14-3.214-.14-1.44-1.478-6.693-5.496-12.255-4.016-5.563-10.506-12.978-15.553-16.996s-9.167-7.21-16.584-15.552c-7.415-8.344-15.582-18.828-18.642-23.279-3.399-4.944-6.18-9.785-8.616-11.913-5.178-4.525-6.244-7.322-8.062-11.895l-1.16-2.864c-2.571-6.13-5.915-11.097-7.679-13.512-2.233-3.059-3.57-5.353-4.241-8.711-.379-1.889-.455-4.649-.455-7.435 0-.96.01-1.925.019-2.854l.073-11.27.045-6.59c0-2.433-1.181-2.925-3.533-3.909l-.334-.14c-.674-.41-.082 1.99-.082 5.354s-.411 6.456-.564 8.164c-.376 4.926-1.363 8.776-2.394 12.793l-.076.295c-.906 4.085-.88 7.107-1.566 14.73-.687 7.622-.069 13.87.377 16.619.334 2.057.535 3.827.515 5.656-.07 6.14-.686 9.105-.82 11.44-.339 4.05.065 5.286.203 6.66" fill="#6bad2e"/><path d="m253.118 412.55c2.332-.61 2.403-.068 1.236 1.786-1.167 1.853-3.914 4.668-10.438 11.261-6.523 6.592-13.321 8.377-15.793 10.643s-7.553 4.532-12.291 8.996c-4.738 4.463-9.133 9.888-10.232 12.497s.344 1.854 2.266-.206 3.846-4.257 8.79-8.378c4.944-4.12 8.789-7.071 13.252-8.583 4.463-1.51 9.476-2.403 14.764-2.815s7.21-2.883 13.252-7.003 11.605-10.507 13.116-15.657 4.463-11.88 5.905-16.274 2.335-5.837 3.64-7.484 1.304-3.435.618-2.884c-.683.546-2.884 2.197-4.807 3.776-1.923 1.58.274-.686 2.953-3.433 2.677-2.748 4.67-5.356 6.379-8.251 1.243-2.117 1.517-3.01 1.585-4.521.07-1.511.138-3.365.138-3.365 0-.08-.005-.14-.007-.218-.036 4.45-4.623 10.917-7.522 13.961l-1.272 1.39c-.816.912-1.587 1.774-2.416 2.444-.935.757-1.883 2.421-2.772 4.06-.893 1.646-2.986 5.5-6.942 8.922-3.46 2.992-7.965 5.886-12.048 7.737-2.77 1.256-6.198 2.633-9.743 3.924-1.843.56-1.568 1.52 1.11.215 2.678-1.303 4.395-1.784 7.279-2.54z" fill="#60a63a"/><path d="m310.935 359.54c2.667 2.892 9.34 10.025 15.107 14.969 5.769 4.945 10.917 9.064 13.321 10.781 2.404 1.716 5.219 3.776 9.476 6.797s6.386 5.082 7.554 6.387.753 1.098-3.434-1.373c-4.188-2.473-14.008-7.348-19.981-10.851-5.975-3.501-13.117-8.995-16.618-13.39-3.502-4.394-3.845-6.248-5.7-10.368-1.853-4.12-4.6-8.24.275-2.952" fill="#63c548"/><path d="m342.02 387.708-2.897-2.082c-2.226-1.59-7.218-5.549-13.35-10.804-5.431-4.655-11.818-11.398-15.141-15.003a41 41 0 0 0 -1.642-1.705c.202.429.455.934.696 1.412l1.35 2.797 1.017 2.35c1.971 4.067 3.277 5.922 6.367 8.669 3.09 2.746 3.639 3.364 8.17 6.317 4.533 2.953 6.594 3.501 10.438 5.7 3.846 2.197 7.58 4.286 4.992 2.349" fill="#5eae34"/><path d="m328.552 377.719c-.947-.855-1.995-1.682-3.045-2.583-4.07-3.488-8.658-8.13-12.11-11.761-1.105-1.209-.746.645.44 2.705 1.184 2.06 1.545 3.657 4.12 5.922 2.574 2.267 4.893 4.275 7.57 5.665 2.678 1.392 7.646 4.222 3.025.052" fill="#3f8939"/><path d="m287.863 396.688c.473-.568.618 1.098.618 3.296s.549 5.15 2.266 8.172c1.717 3.02 3.09 3.227 5.219 10.094 2.128 6.866 2.815 11.741 5.013 14.419s5.423 5.562 8.446 11.674c3.021 6.111 5.15 12.428 5.699 15.038.55 2.609-.275 2.816-4.12-2.06s-7.965-9.682-9.27-14.489-2.61-8.377-5.974-13.322-5.219-9.476-6.66-16.754c-1.443-7.278-1.031-10.23-1.168-12.429-.138-2.196-.412-3.226-.07-3.639" fill="#7cab42"/><path d="m312.24 457.081c-2.323-2.323-5.356-6.283-6.18-8.55a19.1 19.1 0 0 0 -2.884-5.253c-1.03-1.339-1.236-4.016-2.368-6.282-1.134-2.267-3.09-4.944-5.15-8.755s-2.988-7.519-4.224-12.36-2.781-7.725-1.236-6.077 4.12 5.047 4.326 8.96.927 6.902 3.09 10.61 4.944 7.416 7.314 11.124c2.368 3.708 4.634 7.106 5.664 10.093s3.811 8.653 1.648 6.49" fill="#58862d"/><path d="m300.625 355.435c.714 3.003 0 9.254.507 22.946.507 13.69 1.45 16.225 4.619 19.268s4.636 5.253 17.82 8.343c6.442 1.51 19.331 13.09 21.217 14.833 3.125 2.886 6.22 5.086 10.094 8.643 6.212 5.705 8.367 8.24 13.818 13.438s9.722 14.338 12.297 14.705c.887.127.76-3.93-8.24-14.705s-10.269-12.17-21.93-21.424c-11.664-9.253-13.19-10.067-18.383-18.635-2.536-4.184-3.634-8.928-7.353-14.705-3.89-6.045-4.302-7.075-8.113-10.784-3.811-3.708-4.944-5.767-7.107-10.918-2.163-5.149-2.884-2.265-5.047-7.622-2.164-5.356-2.767-7.32-5.15-11.226-2.472-4.052-3.433-6.523-3.228-13.458.206-6.937-.069-11.331.069-16.138.137-4.807.468-6.456-1.51-7.759-1.98-1.302-2.198-1.511-1.854 1.099s0 6.799-.618 11.879-1.031 8.445-1.786 11.88c-.755 3.432-1.716 8.72-1.716 11.536s-.756 9.27-.207 14.556c.55 5.287 1.03 10.232 1.03 16 0 5.767-1.167 9.75-.618 9.132.55-.617 1.374-6.454 1.374-12.153s-.687-10.575-.412-18.197.068-9.27.893-15.725c.824-6.454 1.647-8.584 2.952-10.712s1.786-1.578 1.305 1.717c-.48 3.296-.617 8.79-.206 11.193s1.304 3.227 2.266 4.189c.961.96 1.834 2.983 3.217 8.804" fill="#367530"/><path d="m312.24 397.958c-3.945-1.77-7.005-6.18-7.93-16.89-.927-10.714-2.472-20.601-2.472-22.456 0-1.853 1.235-.102 3.604 3.194s3.81 8.136 6.592 12.154c2.781 4.017 8.138 8.137 10.609 12.772s4.428 7.519 6.489 11.742 1.134 5.356-3.09.823c-4.223-4.531-8.755.928-13.802-1.339" fill="#216030"/><path d="m293.7 327.815c-1.465 1.955-1.03 1.34-.618-2.574s.515-8.86.618-11.743 1.03-3.192 1.648-2.266.515 1.134.618 7.931c.103 6.799.618 10.919-.309 8.652-.927-2.265-.721-1.648-1.957 0" fill="#284e26"/><path d="m213.463 450.591c-2.866 2.694-3.09 1.855-.515-.823s7.519-7.107 11.845-9.27c4.326-2.164 9.579-5.253 13.184-7.932 3.605-2.677 8.858-8.857 12.566-12.874 3.707-4.017 6.077-7.004 7.519-8.754 1.441-1.752 5.047-3.297 8.446-7.005s6.077-7.107 7.004-8.24 1.339-.825.515 1.75-3.605 8.961-5.665 12.155-1.854 8.858-6.386 13.905-8.755 7.313-13.288 8.755c-4.531 1.442-6.591 2.06-10.711 3.295-4.12 1.237-7.313 2.781-10.815 4.327s-8.55 5.871-13.7 10.711" fill="#4e8d28"/><path d="m248.483 427.108c-6.11 5.032-4.738.412-1.545-2.781 3.192-3.194 4.326-4.635 7.312-8.035 2.988-3.398 3.503-4.943 6.799-7.313 3.296-2.368 6.076-4.943 8.137-7.416 2.06-2.471 2.266-1.853.72 1.34-1.544 3.193-2.883 4.84-5.15 6.489-2.265 1.648-2.677 2.471-2.574 4.532s-.412 2.781-2.472 4.326-3.193 3.192-5.665 4.635-3.811 2.781-5.562 4.223" fill="#266227"/><path d="m365.8 412.894c-.813-3.123-1.236-5.357-6.077-8.447s-8.755-5.047-12.462-7.518c-3.71-2.472-4.533-1.648 1.545 2.06 6.076 3.708 9.68 5.664 11.536 7.622 1.853 1.956 4.016 4.222 4.737 7.725.722 3.5 2.06 3.707.722-1.442" fill="#6bad2e"/></g></svg>