<svg viewBox="55.96 21.17 396.2 642.53" xmlns="http://www.w3.org/2000/svg"><path d="m450.608 249.441 1.557-2.247-2.259-1.542c-8.288-5.645-17.04-11.759-25.004-19.015-12.594-11.324-22.834-24.469-30.435-39.057-5.097-9.753-8.831-20.039-12.522-30.603l-1.333-3.815-3.03 2.678c-10.924 9.678-23.306 20.642-39.648 24.364-11.025 2.531-22.967 1.824-38.12-2.267-16.122-4.357-31.058-6.473-45.67-6.473-14.597 0-29.585 2.116-45.83 6.473-15.156 4.091-27.086 4.801-38.125 2.265-16.337-3.72-28.716-14.684-39.643-24.362l-3.026-2.681-1.337 3.818c-3.676 10.54-7.401 20.81-12.518 30.606-7.602 14.582-17.841 27.727-30.45 39.068-7.955 7.248-16.707 13.362-24.993 19l-2.258 1.543 1.554 2.247c4.824 6.967 9.109 13.29 12.695 20.163 14.362 27.53 17.655 52.877 10.364 79.77-1.774 6.49-4.006 13.428-7.456 23.192-5.155 14.594-8.944 30.96-10.968 47.334-3.589 29.342-4.566 84.53 29.23 124.47 20.455 24.104 47.53 37.938 73.715 51.312 21.746 11.135 41.17 21.575 58.67 36.607 11.12 9.436 20.513 19.951 28.234 28.997l2.064 2.418 2.064-2.418c7.729-9.051 17.128-19.578 28.246-29.009 17.493-15.023 36.917-25.46 58.655-36.595 26.187-13.377 53.265-27.211 73.718-51.315 33.79-39.929 32.815-95.122 29.23-124.47-2.022-16.345-5.816-32.713-10.968-47.334-3.395-9.593-5.697-16.748-7.457-23.184-7.282-26.918-3.992-52.268 10.362-79.775 3.569-6.833 7.86-13.173 12.692-20.163" fill="#fff"/><path d="m254.066 650.86c-15.609-18.22-32.876-33.128-53.454-45.487-34.978-21.024-75.623-34.343-102.828-66.387-16.69-19.685-25.292-45.362-28.032-72.12-3.183-31.598 1.786-64.73 11.278-91.546 5.923-16.951 10.448-31.157 11.724-45.745 1.844-22.3-4.906-44.281-15.102-63.839-2.992-5.734-6.372-11.086-10.002-16.374 15.035-10.193 28.354-21.723 39.498-36.123 10.834-13.953 18.287-28.99 24.15-45.553 25.103 22.044 47.206 26.95 79.191 18.351 32.236-8.73 54.915-8.73 87.156 0 31.98 8.599 54.086 3.693 79.187-18.351 5.862 16.562 13.318 31.6 24.15 45.553 11.143 14.4 24.462 25.93 39.494 36.123-3.63 5.288-7.004 10.64-10 16.374-10.192 19.558-17.008 41.539-15.098 63.839 1.276 14.588 5.798 28.794 11.724 45.745 9.49 26.817 14.458 59.948 11.211 91.545-2.676 26.759-11.277 52.436-27.97 72.121-27.203 32.044-67.851 45.363-102.826 66.387-20.575 12.359-37.845 27.266-53.451 45.487"/><path d="m313.634 596.643c20.195-11.278 41.794-20.705 61.16-33.259v-387.99c-19.366 16.185-38.8 21.218-61.16 18.415v140.163c-2.293-3.7-4.27-7.84-6.114-12.556-11.533 9.24-19.94 11.852-34.343 8.347-14.017-3.439-24.208-3.439-38.228 0-14.394 3.505-22.804.892-34.337-8.347-1.847 4.717-3.82 8.857-6.117 12.556v-140.163c-22.364 2.803-41.793-2.296-61.157-18.415v387.99c19.364 12.554 40.962 21.981 61.157 33.259v-118.562c10.898 7.709 24.016 12.168 35.804 18.604 9.242 5.03 16.566 11.147 23.767 18.728 7.201-7.581 14.525-13.698 23.764-18.728 11.785-6.436 24.906-10.895 35.804-18.604z" fill="#fff"/><path d="m254.066 507.259c6.242-6.178 13.313-11.341 21.085-15.542 14.403-7.84 31.728-12.872 43.13-25.104 6.63-7.073 10.005-16.31 11.086-25.993 1.276-11.721-.76-24.02-4.583-33.893-5.418-14.081-7.773-24.721-1.658-39.182a60.881 60.881 0 0 1 5.543-10.193c-10.133-6.819-18.476-15.8-23.57-26.947-10.448 7.259-21.155 7.766-33.259 4.838-13.063-3.186-22.488-3.186-35.548 0-12.107 2.928-22.81 2.357-33.259-4.838-5.097 11.147-13.443 20.128-23.573 26.947a60.881 60.881 0 0 1 5.543 10.193c6.115 14.46 3.76 25.1-1.658 39.182-3.82 9.874-5.859 22.172-4.586 33.893 1.081 9.683 4.461 18.92 11.086 25.993 11.405 12.232 28.733 17.265 43.133 25.104a92.192 92.192 0 0 1 21.088 15.542" fill="#e10101"/><path d="m254.066 391.18 4.711-14.716h15.481l-12.55-9.048 4.842-14.716-12.484 9.112-12.49-9.112 4.842 14.716-12.55 9.048h15.484z" fill="#fff"/><path d="m286.367 384.682c11.21 9.24 18.348 23.062 18.348 38.48 0 27.588-22.81 50.076-50.65 50.076s-50.647-22.488-50.647-50.076c0-15.418 7.134-29.24 18.345-38.48a38.848 38.848 0 0 0 -6.946 22.236c0 21.532 17.653 39.182 39.248 39.182 21.598 0 39.248-17.65 39.248-39.182 0-8.285-2.55-15.928-6.946-22.236m-5.991 136.978c-4.711 0-8.535 10.382-8.535 23.123s3.824 23.13 8.535 23.13c4.65 0 8.474-10.388 8.474-23.13s-3.824-23.123-8.474-23.123m0-5.862c13.316 0 24.208 12.997 24.208 28.985 0 15.992-10.892 28.989-24.208 28.989-13.38 0-24.274-12.997-24.274-28.989 0-15.988 10.895-28.985 24.274-28.985" fill="#fff"/><path d="m328.095 550.643c7.45.128 10.959 9.367 4.97 13.124 0 3.952 6.052 5.036 10.068 3.19 4.2-2.17 5.859-7.072 5.093-11.47-1.464-8.601-7.897-8.601-14.907-8.981v-4.59c6.688-.127 12.87 0 14.206-8.218 1.084-6.564-2.737-12.423-9.489-12.232-2.682.125-5.039 1.212-5.163 3.505 5.926 3.566 2.934 13.316-4.46 13.444-6.371 0-8.983-6.436-7.453-11.47 2.227-7.262 11.339-11.277 18.476-11.213 8.156-.128 20.256 4.267 21.915 13.252 1.084 5.859-3.247 11.724-10.51 14.907 7.132 2.23 12.104 8.665 11.084 15.099-1.656 9.364-13.89 14.973-22.17 14.846-7.262.06-16.502-4.08-18.795-11.597-1.53-5.224.699-11.596 7.135-11.596"/><path d="m221.51 564.278c1.209-1.91 1.018-5.798-.128-8.025-1.339-2.615-4.142-4.143-8.41-3.951-8.796.446-10.193 10.384-4.586 15.736 4.076 3.949 11.086 5.86 15.67 5.732 13.127 0 23.83-12.994 23.83-28.989 0-15.985-10.703-28.985-23.83-28.985-5.286-.127-10.895 1.528-14.908 5.224-6.946 6.5-8.155 19.048.258 25.034 6.114 4.334 15.67 4.784 22.74.322.256 11.275-3.44 21.407-8.09 21.535-2.166 0-2.613-1.404-2.546-3.633m2.545-42.62c8.86 0 9.049 21.468 0 21.468-9.367 0-8.598-21.468 0-21.468" fill="#fff"/><path d="m186.278 572.56h-26.376l-.383-3.183 6.755-5.355v-31.789h-9.558v-5.862c5.224-1.974 10.32-3.63 16.183-9.367h7.07v47.018l6.755 5.355zm-26.821-276.945c6.05.957 12.42-.316 14.139-7.068 1.47-5.418 1.084-14.977-.635-20.39-1.336-4.142-4.012-7.134-9.297-7.134l-6.312.064v31.66c.13 2.042.83 2.74 2.105 2.868m-2.105-69.889v28.032h5.419c7.326 0 8.538-7.773 8.47-15.226-.063-5.48.766-11.406-3.568-14.018-1.397-.829-4.14-1.209-6.372-1.336-2.23-.128-3.949.127-3.949 2.548m-2.545 75.496c-8.283-1.53-17.714.701-19.372 1.4.832-2.357 2.169-2.867 3.89-4.204 1.146-.956 1.4-2.29 1.653-7.137v-66.254c0-2.867-1.844-5.418-3.885-7.265h30.203c6.43 0 10.318.83 14.84 6.117 6.373 7.518 8.156 18.86 1.911 27.33-2.296 3.186-5.986 5.419-10.7 6.245 5.412.574 10.193 3.949 13.756 8.407 9.497 11.658 5.29 30.644-9.234 35.677-6.882 2.424-15.994.385-23.062-.316"/><path d="m238.202 218.016h39.689c-2.1 1.85-3.885 4.143-3.885 7.01v69.442c.191 4.523.252 6.118 1.212 7.008-1.595-.38-3.186-.38-4.97.382-11.468 3.442-24.975 6.944-36.696 2.612-4.845-1.85-9.683-4.902-12.617-9.43-5.16-8.153-3.25-21.723 8.602-20.767 4.461.386 8.598 3.123 8.598 7.834.255 5.418-4.012 8.477-9.488 7.839-.067 0-.13.574-.192.574.696 5.795 6.181 8.343 11.658 9.364 7.775 1.467 16.119-.383 16.119-6.943v-69.315c-3.633-.705-8.854-.96-12.043 0-4.204 1.275-6.306 2.673-9.553 1.78 1.847-2.227 3.056-4.265 3.566-7.39" fill="#fff"/><path d="m336.316 252.039 13.695-23.636c2.552-4.395 1.528-6.752-2.229-10.388h21.027c-4.717 2.806-7.46 4.972-10.26 9.558l-15.991 26.185c11.338-1.212 17.33 6.691 20.067 21.216 1.72 9.112 1.847 21.276 10.069 27.394h-9.941c-20.639 1.148-6.178-43.003-26.437-43.003v31.916c.191 4.848.444 6.181 1.652 7.138 1.723 1.336 3.187 1.847 4.016 4.2-6.497-1.333-19.943-1.716-26.695.259.829-2.357 1.786-3.63 3.571-4.97 1.146-.89 1.398-1.78 1.656-6.627v-66.253c0-2.87-1.85-5.163-3.952-7.013h23.637c-2.105 1.85-3.885 4.143-3.885 7.013z"/><g stroke="#fff" stroke-width="3.986"><path d="m392.778 85.96h-36.868l-12.478-35.5-12.472 35.5h-36.87l29.408 22.509-10.898 35.39 30.832-21.008 30.832 21.007-10.892-35.39zm-179.4 0h-36.868l-12.478-35.5-12.472 35.5h-36.87l29.408 22.509-10.898 35.39 30.832-21.008 30.832 21.007-10.892-35.39z"/><path d="m304.378 57.36h-36.868l-12.478-35.5-12.472 35.5h-36.87l29.408 22.509-10.898 35.39 30.832-21.008 30.832 21.007-10.892-35.39z"/></g></svg>