<svg xmlns="http://www.w3.org/2000/svg" viewBox="1 1 289.38 250"><path d="M234.787 146.598c0 11.66-2.154 23.201-6.089 34.033-2.03 4.313-4.143 8.186-6.233 11.545-2.653 4.426-6.09 8.896-10.42 13.232-6.565 6.565-12.616 10.425-18.785 13.466-5.229 2.577-10.708 4.566-17.25 7.741-5.342 2.592-10.838 6.56-15.21 10.136-2.147 1.748-5.812 5.211-8.943 8.236-3.14 3.031-5.93 5.427-5.93 5.427l.196.198-.391.388-.334-.327-4.092-4.069a99.472 99.472 0 0 1-1.704-1.617c-3.13-3.025-6.795-6.488-8.942-8.236-4.368-3.576-9.864-7.544-15.212-10.136-6.543-3.175-12.02-5.164-17.255-7.74-5.41-2.67-10.732-5.973-16.39-11.18a77.027 77.027 0 0 1-5.421-4.954c-4.326-4.324-10.023-13.152-13.404-22.955-3.342-9.69-6.312-21.797-6.312-33.188 0-49.185 39.88-89.054 89.066-89.054 49.187 0 89.055 39.87 89.055 89.054" fill="#2f4ba6"/><path d="M145.732 52.623c-51.538 0-93.333 41.688-93.52 93.174L1 135.388C6.503 60.261 69.2 1.022 145.732 1.022c76.082 0 138.48 58.545 144.62 133.04l-51.122 10.39c-.9-50.87-42.417-91.83-93.498-91.83" fill="#2f4ba6"/><path d="M154.16 162.127c.408 14.13 11.965 27.355 26.167 27.355 3.113 0 6.103-.54 8.875-1.536 7.624-3.418 14.55-9.25 19.61-15.427 7.568-9.25 11.849-18.969 11.849-18.969s3.641 23.496-16.507 43.645c-11.063 11.063-19.846 12.645-32.885 18.97-13.042 6.316-25.211 18.442-25.211 18.442s-12.173-12.126-25.212-18.441c-13.04-6.326-21.824-7.908-32.885-18.971-20.149-20.149-16.508-43.645-16.508-43.645s4.283 9.719 11.85 18.97c5.06 6.176 11.984 12.008 19.607 15.426a26.223 26.223 0 0 0 8.878 1.536c14.179 0 25.72-13.182 26.162-27.29-17.858-3.675-31.283-19.488-31.283-38.433 0-21.676 17.563-39.233 39.236-39.233 21.67 0 39.238 17.557 39.238 39.233 0 18.84-13.272 34.578-30.98 38.368" fill="#fff"/><path d="M145.903 157.47c-18.615 0-33.707-15.095-33.707-33.71 0-18.616 15.092-33.707 33.707-33.707 18.618 0 33.708 15.091 33.708 33.706 0 18.616-15.09 33.71-33.708 33.71" fill="#ee253d"/><path d="M140.28 106.62c2.846 0 5.53.69 7.899 1.923.387.192.762.415 1.133.631a17.316 17.316 0 0 1 4.855 4.472c.117.149-.126.376-.265.257a13.734 13.734 0 0 0-1.055-.76 11.282 11.282 0 0 0-1.128-.666 14.348 14.348 0 0 0-6.747-1.663c-3.803 0-7.25 1.454-9.753 3.8-2.498 2.348-4.044 5.582-4.044 9.138v.007c0 3.567 1.546 6.795 4.044 9.143 2.504 2.345 5.95 3.804 9.753 3.804h.008c1.699 0 3.326-.293 4.83-.822.248-.088.484-.183.726-.28a13.918 13.918 0 0 0 3.366-1.987c.15-.122.382.11.265.258v.003-.003a16.988 16.988 0 0 1-3.055 3.192 17.185 17.185 0 0 1-10.833 3.833 17.229 17.229 0 0 1-12.175-5.026c-3.122-3.11-5.06-7.394-5.06-12.115v-.007c0-4.713 1.938-8.996 5.06-12.104a17.22 17.22 0 0 1 12.175-5.029m19.223 9.635l3.543 4.711 5.58-1.899-3.397 4.825 3.535 4.719-5.63-1.738-3.4 4.823-.087-5.9-5.635-1.738 5.578-1.902zM53.209 99.518l-3.068 9.44-14.845 5.037 1.597 2.517 9.763 3.17-2.5 7.696-29.847-9.694 2.503-7.697 13.507 4.39-10.045-15.054 2.899-8.918 10.02 16.15zm19.489-27.092l-4.919 6.766-6.407-1.971-6.838 9.41 3.858 5.484-4.794 6.6L35.02 70.892l5.475-7.537zm-17.134 2.997L44.19 71.926l6.84 9.736zm35.796-28.49c2.1 2.883 2.385 6.038.856 9.459-1.255 2.784-3.434 5.309-6.54 7.564-3.458 2.511-7.226 4.248-11.31 5.223l-4.424-6.09.714-.517c4.438.2 8.377-.95 11.822-3.455 1.36-.99 2.304-1.9 2.829-2.732.814-1.29.873-2.416.174-3.384-.826-1.135-2.327-1.251-4.5-.352-1.534.736-3.88 1.725-7.036 2.976-4.962 1.605-8.722.65-11.284-2.874-1.947-2.685-2.166-5.688-.665-9.022 1.239-2.742 3.298-5.16 6.184-7.26 3.357-2.434 6.837-4.09 10.432-4.97l4.25 5.847-.702.51c-3.793-.181-7.262.87-10.394 3.15-1.242.9-2.175 1.845-2.806 2.844-.765 1.216-.83 2.265-.194 3.14.586.803 1.469 1.115 2.647.916.578-.108 1.534-.46 2.854-1.062l3.099-1.391a36.14 36.14 0 0 1 3.308-1.254c4.699-1.518 8.259-.608 10.686 2.733m27.142-.064l-17.161 6.585-1.99-5.194 4.797-1.844-7.256-18.909-4.802 1.846-1.99-5.195 17.157-6.587 1.986 5.191-4.791 1.844 7.252 18.91 4.802-1.841zm39.5-3.53l-8.048.282-.73-21-5.337 13.832-5.582.193-6.285-13.423.729 21-7.625.265-1.096-31.364 9.395-.328 7.606 15.49 6.484-15.981 9.392-.325zm39.5-10.622c-.964 2.961-2.64 5.049-5.021 6.253-3.17 1.601-6.697 1.774-10.6.5l-4.792-1.556-3.162 9.72-7.693-2.499 9.7-29.842 12.663 4.116c3.5 1.136 6.038 2.686 7.622 4.644 1.946 2.42 2.373 5.306 1.283 8.664m-8.017-2.407c.55-1.693.172-3.092-1.14-4.186-.854-.698-2.587-1.48-5.204-2.33l-1.324-.432-2.905 8.94 2.206.717c2.634.857 4.547 1.034 5.743.534 1.208-.49 2.084-1.574 2.624-3.243m29.068 42.15l-6.768-4.92 1.971-6.408-9.41-6.837-5.486 3.856-6.597-4.796 27.82-18.57 7.538 5.474zm-2.999-17.134l3.494-11.374-9.733 6.845zm32.837 75.377l-2.59-7.955 5.37-4.027-3.602-11.062-6.697-.104-2.526-7.758 33.427 1.326 2.879 8.86zm7.647-15.626l9.508-7.14-11.896-.195zM244.544 91.23c-2.887 2.095-6.041 2.378-9.459.854-2.112-.95-4.067-2.428-5.873-4.435l-3.428 2.03-3.826-5.918 3.175-2.02a31.449 31.449 0 0 1-2.84-7.508l6.087-4.426.522.716c-.202 4.435.953 8.376 3.458 11.819.987 1.366 1.901 2.307 2.731 2.834 1.289.818 2.417.876 3.38.172 1.141-.822 1.258-2.327.354-4.498-.733-1.538-1.726-3.882-2.973-7.035-1.61-4.962-.656-8.725 2.868-11.283 2.686-1.953 5.695-2.173 9.026-.671 2.74 1.238 5.158 3.305 7.256 6.19 2.44 3.355 4.094 6.83 4.977 10.429l-5.848 4.248-.51-.697c.177-3.798-.873-7.26-3.152-10.4-.902-1.236-1.854-2.17-2.848-2.803-1.22-.766-2.257-.828-3.134-.194-.81.587-1.114 1.465-.917 2.645.107.583.46 1.531 1.052 2.852l1.398 3.104a37.155 37.155 0 0 1 1.26 3.306c1.518 4.697.608 8.26-2.736 10.69M73.692 125.203c.929.213 1.537.798 1.826 1.753.235.78.238 1.664.01 2.662a8.493 8.493 0 0 1-1.362 3.03l-1.953-.453.053-.226c.925-.74 1.516-1.656 1.772-2.766.103-.431.13-.783.09-1.038-.06-.406-.245-.647-.552-.717-.369-.078-.692.158-.97.719a31.894 31.894 0 0 1-.896 1.826c-.715 1.194-1.637 1.657-2.77 1.396-.86-.194-1.43-.764-1.71-1.695-.233-.773-.238-1.617-.026-2.543.248-1.076.658-2.018 1.229-2.82l1.875.43-.05.227c-.798.626-1.307 1.44-1.542 2.447-.092.4-.11.754-.066 1.063.058.382.232.598.514.666.252.063.485-.03.687-.275.101-.126.227-.364.392-.716l.38-.821c.127-.276.278-.548.442-.83.68-1.13 1.557-1.566 2.627-1.319m3.745-17.065c-.427-.213-.81-.173-1.149.13-.22.195-.5.613-.832 1.272l-.167.328 2.23 1.138.283-.552c.333-.653.46-1.152.38-1.49-.08-.335-.33-.613-.745-.826m.964-2.008c.743.378 1.22.904 1.437 1.582.291.904.19 1.835-.31 2.814l-.608 1.191 2.43 1.237-.981 1.923-7.452-3.794 1.615-3.163c.447-.874.956-1.48 1.54-1.815.716-.408 1.49-.401 2.329.025m13.646-12.986a4.195 4.195 0 0 0-.787-.943c-.682-.634-1.344-.965-1.991-.993-.561-.024-1.045.18-1.446.611-.396.43-.574.922-.52 1.485.058.63.436 1.274 1.143 1.928.68.632 1.338.964 1.981.994.565.028 1.046-.178 1.461-.62a2.03 2.03 0 0 0 .419-.688c.201-.55.115-1.145-.26-1.774m.744-2.576c.984.913 1.499 1.918 1.544 3.011.052 1.092-.385 2.127-1.297 3.109-.916.981-1.917 1.484-3.013 1.516-1.087.028-2.127-.415-3.109-1.335-.988-.92-1.505-1.919-1.556-3.007-.05-1.09.389-2.129 1.307-3.112.914-.982 1.92-1.49 3.008-1.52 1.092-.026 2.132.417 3.116 1.338m19.15-8.547l-2.256 1.36-3.532-1.453-.848.512 1.574 2.626-1.837 1.108-4.304-7.168 3.098-1.86c.865-.526 1.595-.787 2.176-.787.804 0 1.412.346 1.836 1.052.575.959.53 1.953-.144 2.979zm-5.872-3.235c-.224-.377-.543-.531-.946-.472-.224.036-.588.204-1.084.505l-.674.401 1.16 1.931.568-.344c.623-.368.986-.7 1.1-.984.13-.339.094-.686-.124-1.037m37.926-4.604l-2.639.184-2.727-3.165-.462.646.197 2.73-2.158.147-.582-8.34 2.15-.149.262 3.774 2.72-3.981 2.49-.177-2.99 4.089zm18.926-.593c-.224 1.078-.739 1.814-1.546 2.194-.72.343-1.643.398-2.757.165-1.118-.24-1.93-.659-2.444-1.267-.58-.674-.76-1.555-.527-2.633l1.104-5.222 2.127.449-1.082 5.103c-.24 1.125.144 1.794 1.157 2.008.549.114.97.053 1.28-.189.28-.218.478-.608.599-1.171l1.081-5.107 2.125.45zm16.324 9.606l-5.42-2.641 3.664-7.514 1.938.942-2.954 6.061 3.48 1.698zm17.537 1.647l-1.255-1.091 1.004-1.16 1.255 1.096zm2.28 1.973l-1.26-1.089 1.006-1.159 1.26 1.093zm-2.843 5.292c-.722.834-1.533 1.225-2.422 1.167-.796-.041-1.627-.443-2.488-1.191-.86-.75-1.369-1.512-1.526-2.295-.181-.866.093-1.72.817-2.555l3.5-4.032 1.637 1.425-3.42 3.934c-.756.867-.74 1.642.037 2.317.424.37.828.52 1.21.46.354-.057.718-.305 1.095-.737l3.418-3.94 1.637 1.423zm10.891 14.23c.41-.276.543-.637.397-1.085-.058-.197-.34-.659-.838-1.393l-.265-.394-1.724 1.169.087.13.734 1.078c.348.501.712.732 1.096.692a1.08 1.08 0 0 0 .513-.197m2.524-2.34c.306-.203.415-.466.341-.795-.051-.196-.31-.647-.793-1.365l-.11-.166-1.468.992.184.273c.43.638.736 1.015.913 1.121.292.183.608.166.933-.06m-1.3 4.212c-.66.448-1.351.542-2.076.29-.717-.253-1.386-.837-2.006-1.761l-2.044-3.027 6.93-4.677 1.815 2.69c.323.48.543.827.66 1.044.207.402.339.783.386 1.159.093.699-.174 1.251-.777 1.666-.694.468-1.418.46-2.172-.015l-.037.028c.47 1.115.243 1.981-.68 2.603m12.083 12.012l-.511-1.585 1.457-.475.516 1.585zm.935 2.863l-.513-1.582 1.455-.474.52 1.587zm-5.178 3.164c-1.048.339-1.938.259-2.676-.247-.657-.449-1.165-1.218-1.518-2.303-.352-1.087-.395-2.004-.126-2.753.292-.84.962-1.43 2.016-1.77l5.076-1.652.67 2.063-4.96 1.614c-1.094.353-1.478 1.022-1.158 2.001.17.537.442.875.804 1.022.324.128.768.108 1.317-.073l4.959-1.613.672 2.06z" fill="#fff"/><path d="M132.352 199.194h-1.997v-1.36l1.607-.9c.507-.31.969-.642 1.388-.997h1.279v14.904h-2.277zm10.523.14c0-.93-.398-1.402-1.183-1.402-.788 0-1.18.473-1.18 1.403v2.445c0 .48.092.833.285 1.06.206.232.46.349.771.349.233 0 .467-.084.714-.242l.593-.432zm-2.263 7.56v.75c0 .94.36 1.407 1.08 1.407.785 0 1.183-.466 1.183-1.407v-3.441l-.469.429-.449.306-.507.185-.653.06a3.26 3.26 0 0 1-1.04-.162 2.163 2.163 0 0 1-.853-.529 2.683 2.683 0 0 1-.594-.937c-.138-.382-.201-.841-.201-1.388v-1.75c0-1.563.276-2.692.832-3.402.556-.717 1.474-1.078 2.75-1.078 1.277 0 2.196.327 2.749.975.558.64.835 1.658.835 3.057v7.046c0 1.397-.277 2.423-.835 3.076-.553.635-1.472.96-2.748.96-.503.008-.96-.064-1.363-.226a3.066 3.066 0 0 1-1.019-.672c-.288-.3-.51-.648-.674-1.038a3.822 3.822 0 0 1-.224-1.325v-.896zm7.117 3.947v-1.973l2.074-3.073a32.955 32.955 0 0 0 1.525-2.466c.411-.73.717-1.395.92-1.996.217-.608.326-1.186.326-1.731 0-.583-.103-1.005-.305-1.264a.998.998 0 0 0-.834-.406c-.41 0-.715.145-.917.428-.205.285-.308.652-.308 1.1v.995h-2.404v-.692c0-.544.08-1.041.246-1.505.177-.463.42-.86.73-1.2.33-.353.726-.626 1.184-.818.462-.2.993-.303 1.587-.303.52 0 .985.086 1.406.263a3.24 3.24 0 0 1 1.082.734 3.214 3.214 0 0 1 .935 2.26 7.93 7.93 0 0 1-.182 1.711c-.109.542-.333 1.169-.674 1.875-.34.706-.812 1.53-1.424 2.486-.61.948-1.41 2.117-2.402 3.502h4.459v2.073zm11.75-11.647h-1.995v-1.36l1.605-.9c.5-.31.966-.642 1.39-.997h1.279v14.904h-2.278z" fill="#2f4ba6"/></svg>