<svg viewBox="0 0 115.95 159.38" xmlns="http://www.w3.org/2000/svg"><path d="m45.15 0 2.29 7.02h7.37l-5.96 4.34 2.27 7.02-5.97-4.33-5.96 4.33 2.27-7.02-5.97-4.34h7.38zm25.66 0 2.28 7.02h7.38l-5.97 4.34 2.28 7.02-5.97-4.33-5.97 4.33 2.28-7.02-5.98-4.34h7.39z" fill="#b99a45"/><path d="m109.43 34.07-.85-2.55-2.44-1.14c-8.03-3.75-17.49-5.9-26.03-7.11-9.84-1.41-18.44-1.59-22.15-1.59s-12.3.19-22.13 1.59c-8.52 1.21-17.99 3.36-26.02 7.11l-2.44 1.14-.85 2.55c-24.35 72.89 25.71 110.68 48.36 123.55l3.1 1.76 3.1-1.76c22.65-12.86 72.71-50.66 48.35-123.55m-49.09 122.24-2.35 1.34-2.35-1.34c-22.33-12.68-71.68-49.92-47.68-121.76l.66-1.94 1.85-.87c14.16-6.61 32.93-8.14 42.77-8.47 1.97-.07 3.6-.09 4.74-.09s2.77.02 4.74.09c9.85.33 28.64 1.86 42.79 8.47l1.86.87.65 1.94c24 71.82-25.34 109.07-47.67 121.76z" fill="#fff"/><g fill="#642e84"><path d="m65 125.63h14.04v-1.63l-14.04.56zm.27 1.08-.27-.19v7.34c.12-.02.24-.03.37-.03 1.15 0 1.85.62 1.85 1.44 0 .71-.38 1.04-.87 1.31.78.42 1.08.76 1.08 1.51 0 .95-.75 1.55-2.05 1.55-.13 0-.26 0-.38-.02v6.32c4.53-3.07 9.35-6.79 14.04-11.21v-8.93l-13.77.9zm11.65 8.24-9.72-6.89 10.74 5.94c-.34.32-.68.63-1.03.94zm-40.01-9.32h14.05v-1.07l-14.05-.56zm28.09-3.3h14.04v1.44h-14.04zm-16.15 17.25c-.06 0-.11-.04-.11-.11v-.69c0-.06.04-.11.11-.11h.73v-3.79l-.84.13c-.05 0-.1-.05-.1-.12v-.63c0-.06.05-.08.11-.1l.98-.32s.08-.03.12-.03h.65c.06 0 .1.04.1.1v4.74h.38v-12l-.06.04-13.99-.92v8.95c4.7 4.42 9.52 8.14 14.05 11.21v-6.37h-2.12zm-10.76-5.49 10.87-6.02-9.83 6.97c-.35-.31-.7-.63-1.04-.95"/><path d="m65.38 138.73c.98 0 1.06-.44 1.06-.63 0-.46-.5-.74-1.08-1.04-.12.05-.25.11-.36.18v1.47c.11.02.23.03.38.03zm-12.16-115.46h9.49c-1.98-.07-3.6-.08-4.75-.08s-2.77.02-4.74.08m12.18 112.85c.48-.22.83-.43.83-.84 0-.1-.08-.52-.86-.52-.15 0-.27.02-.37.04v1.1c.12.08.27.15.4.22"/><path d="m108.01 34.55-.65-1.94-1.86-.87c-14.16-6.61-32.94-8.14-42.79-8.47h-9.49c-9.84.33-28.6 1.86-42.77 8.47l-1.85.87-.66 1.94c-24 71.84 25.35 109.08 47.68 121.76l2.35 1.34 2.35-1.34c22.33-12.69 71.67-49.94 47.67-121.76zm-50.03 117.62c-18.02-10.23-69.17-45.28-45.51-116.1 16.46-7.68 40.05-8.11 45.49-8.11s29.07.42 45.52 8.11c23.67 70.82-27.49 105.87-45.5 116.1"/></g><path d="m35.05 100.92v-.07c-.11-.06-.21-.12-.32-.17l-.04.39c.12-.05.23-.1.35-.15zm-1.77-1.04-.44 1.38-.1.86c-.13.09-.26.19-.38.27l.13-1.04-.6-1.78-.75 3.31-.23 1.4v.04c-.04.07-.05.15-.06.23-.11.71-.22 1.52-.35 2.38-.07.49-.14.98-.22 1.48-.04.27-.09.56-.13.84-.08.54-.17 1.08-.26 1.61v-.07l-1.32-3.12-1.52 3.62-.11.64c-.2.04-.39.09-.58.13l.1-.62-1.13-2.92-1.38 3.63-.11.62c-.24.09-.46.17-.67.26l.14-.63-.42-1.73v-18.75c.35.35.7.69 1.06 1.03a37 37 0 0 0 2.1 1.87c.27.23.55.46.83.68.27.23.56.45.84.66.28.22.58.43.86.65.29.21.58.43.88.63l.96.66c.27.19.56.36.83.54.17.11.35.22.52.33.25.16.5.31.75.46.26.15.51.3.78.46zm3.63 23.9h-5.21l5.21.21v1.63h-2.63l2.63.17v8.95c-.31-.29-.62-.58-.93-.89-.32-.3-.63-.61-.94-.92-.31-.3-.61-.6-.91-.91-.31-.3-.62-.62-.92-.94-.31-.32-.61-.64-.91-.97-.91-.96-1.81-1.97-2.69-2.99-.28-.33-.57-.66-.85-.99-.59-.71-1.19-1.43-1.76-2.17-.29-.36-.58-.73-.85-1.09a91 91 0 0 1 -3.28-4.56v-2.31c.04.07.09.14.13.2.24.37.48.74.73 1.11.1.16.2.32.32.48.32.49.65.96.98 1.43.15.22.31.44.47.66.24.34.49.67.73 1.01v-.04c.3.42.61.83.92 1.24h9.75v1.67zm44.5-22.7-.08-.72c-.11.06-.21.12-.32.17l.04.4c.12.05.24.11.35.15zm11.67 9.85-.35 1.44.13.61c-.21-.08-.43-.16-.67-.24l-.11-.62-1.38-3.63-1.13 2.92.1.62c-.19-.04-.38-.09-.58-.13l-.12-.64-1.52-3.62-1.3 3.09c-.18-1.09-.39-2.45-.6-3.87 0-.03-.02-.05-.03-.08v-.02c-.12-.73-.22-1.49-.33-2.21v-.05c0-.02 0-.04-.02-.19l-.2-1.44-.71-3.17-.65 1.64.14 1.08c-.12-.1-.25-.19-.39-.28l-.1-.9-.54-1.67c.05-.03.12-.05.17-.1.62-.37 1.24-.75 1.84-1.15.3-.19.6-.4.9-.6s.59-.41.89-.63c.29-.21.58-.43.88-.65.29-.21.58-.43.86-.66s.57-.45.84-.68c.28-.23.56-.46.83-.7.27-.23.55-.47.81-.72.31-.27.62-.56.92-.85.19-.19.39-.37.58-.56.28-.27.56-.56.83-.84v19.49zm0 5.1v2.28c-.19.28-.37.56-.57.84-.07.11-.15.22-.23.33-.27.39-.54.77-.81 1.15-.54.76-1.1 1.5-1.66 2.24-.56.73-1.13 1.46-1.72 2.17-.28.35-.58.71-.87 1.05-.2.24-.41.48-.61.72s-.41.48-.61.71c-.18.21-.36.42-.55.63-.39.44-.78.88-1.18 1.3-.2.23-.42.45-.63.67-.96 1.03-1.94 2.03-2.92 3-.26.25-.5.5-.76.73-.31.3-.62.59-.93.89v-8.93l2.85-.19h-2.85v-1.63l5.43-.22h-5.43v-1.44h9.6s.02-.03.03-.04c.43-.56.85-1.12 1.27-1.69.42-.58.83-1.15 1.24-1.74.47-.67.94-1.36 1.39-2.06.17-.26.34-.51.5-.77z" fill="#784b92"/><path d="m60.05 136.84c-.35 0-.8.09-1.16.63.07.87.4 1.25 1 1.25s.93-.42.93-.88c0-.72-.37-1-.77-1" fill="#642e84"/><path d="m65 122.33h-6.98v-.04h-.02v.04h-7.03v1.45h2.73l-1.54.82-1.19-.04v1.06h1.41l-1.41 1.04v12h.34c.06 0 .11.04.11.11v.69c0 .06-.04.11-.11.11h-.34v6.37c.61.42 1.21.81 1.81 1.2.44.28.88.57 1.31.83.42.27.83.52 1.24.78.59.36 1.18.72 1.75 1.05q.225.15.45.27l.45.27.45-.27q.225-.12.45-.27c.58-.34 1.16-.69 1.75-1.05.41-.26.82-.51 1.24-.78.43-.27.87-.55 1.31-.83.6-.39 1.2-.79 1.81-1.2v-6.32c-1.09-.11-1.7-.68-1.7-1.53 0-.93.62-1.31 1.09-1.53-.35-.18-.87-.51-.87-1.29 0-.73.55-1.3 1.48-1.42v-7.34l-1.2-.89h1.2v-1.06l-.98.04-1.54-.83h2.52v-1.44zm-10.88 1.45h7.92v.73h-7.92zm.18 15.87c-.89 0-1.27-.29-1.54-.48-.04-.04-.05-.11-.02-.14l.48-.62s.1-.05.14-.02c.33.26.61.34.94.34.73 0 1.11-.68 1.23-1.57-.28.23-.69.4-1.13.4-1.04 0-1.79-.7-1.78-1.92.02-1.04.82-1.81 1.93-1.81 1.2 0 2.01.71 2.01 2.64 0 1.25-.34 3.18-2.26 3.18m5.59 0c-1.2 0-2.01-.71-2.01-2.64 0-1.25.33-3.18 2.25-3.18.91 0 1.27.29 1.55.49.05.03.05.1.02.14l-.49.61s-.1.05-.13.02c-.33-.26-.61-.34-.95-.34-.73 0-1.1.68-1.22 1.57.28-.23.68-.4 1.14-.4 1.04 0 1.78.7 1.76 1.92-.02 1.04-.81 1.81-1.92 1.81m2.78-14.02v.9h-9.26v-.9z" fill="#784b92"/><path d="m54.54 134.76c-.57 0-.92.42-.93.88 0 .72.37 1 .78 1 .35 0 .79-.09 1.15-.63-.07-.87-.4-1.25-1-1.25m10.46 1.13v-1.1c-.45.1-.5.38-.5.48 0 .24.22.44.5.62m0 2.81v-1.47c-.39.21-.7.5-.7.87 0 .15.06.5.7.6" fill="#642e84"/><path d="m103.48 36.06c-16.45-7.68-40.08-8.11-45.52-8.11s-29.04.42-45.49 8.11c-23.66 70.82 27.49 105.87 45.51 116.1 18.01-10.23 69.17-45.28 45.5-116.1m-10.97 83.09c-.07.11-.15.22-.23.33-.27.39-.54.77-.81 1.15-.54.76-1.1 1.5-1.66 2.24-.56.73-1.13 1.46-1.72 2.17-.28.35-.58.71-.87 1.05-.2.24-.41.48-.61.72s-.41.48-.61.71c-.18.21-.36.42-.55.63-.39.44-.78.88-1.18 1.3-.2.23-.42.45-.63.67-.96 1.03-1.94 2.03-2.92 3-.26.25-.5.5-.76.73-.31.3-.62.59-.93.89-4.69 4.42-9.51 8.14-14.04 11.21-.61.42-1.21.81-1.81 1.2-.44.28-.88.57-1.31.83-.42.27-.83.52-1.24.78-.59.36-1.18.72-1.75 1.05q-.225.15-.45.27l-.45.27-.45-.27q-.225-.12-.45-.27c-.58-.34-1.16-.69-1.75-1.05-.41-.26-.82-.51-1.24-.78-.43-.27-.87-.55-1.31-.83-.6-.39-1.2-.79-1.81-1.2-4.53-3.06-9.35-6.79-14.05-11.21-.31-.29-.62-.58-.93-.89-.32-.3-.63-.61-.94-.92-.31-.3-.61-.6-.91-.91-.31-.3-.62-.62-.92-.94-.31-.32-.61-.64-.91-.97-.91-.96-1.81-1.97-2.69-2.99-.28-.33-.57-.66-.85-.99-.59-.71-1.19-1.43-1.76-2.17-.29-.36-.58-.73-.85-1.09a91 91 0 0 1 -3.28-4.56c-9.17-13.64-15.41-31.16-13.78-53.04 1.74 10.32 6.69 19.56 13.78 26.65.35.35.7.69 1.06 1.03a37 37 0 0 0 2.1 1.87c.27.23.55.46.83.68.27.23.56.45.84.66.28.22.58.43.86.65.29.21.58.43.88.63l.96.66c.27.19.56.36.83.54.17.11.35.22.52.33.25.16.5.31.75.46.26.15.51.3.78.46l.65-2.02.87 2.22-.06.59c.11.05.21.11.33.17l.08-.81.92-3.15.53.86.66-5.26v-.08l.29-2.38.07-.55.05-.43.66-2.9.37 1.31-.08.63q.105-.12.24-.24l.06-.57.74-2.58.55 1.58-.07.58c.12-.08.24-.16.37-.24l.05-.55.84-2.54.67 1.74-.05.54c.13-.06.27-.12.42-.19l.05-.52.91-2.57 1.04 1.81-.05.53c.14-.04.27-.09.42-.13l.04-.52 1.08-2.54 1.19 1.89-.04.58c.16-.04.34-.07.5-.11l.04-.58 1.27-2.54 1.04 1.49c.03-.35.06-.75.1-1.18.04-.4.07-.82.11-1.27.04-.46.08-.94.12-1.42.04-.43.07-.87.11-1.29v-.11h-1.65s.03-.62.42-.81c.27-.12.93-.22 1.32-.27v-.08c.02-.06.02-.12.03-.18.04-.52.08-.99.12-1.39 0-.06.02-.12.02-.18v-.06l.69-2.68.56 1.14.96-2.48.9 1.5 1-2.28 1.06 1.79h.02l1.03-2.16 1.14 1.98 1.13-1.98 1.03 2.16h.03l1.05-1.78 1 2.27.9-1.5.97 2.48.56-1.14.63 2.66.02.16v-.02c.02.28.04.64.08 1.04v.04c.03.18.04.35.06.58v.12c.4.05 1 .15 1.27.27.4.19.42.81.42.81h-1.6c.04.48.09.98.13 1.48.04.51.08 1.02.12 1.5.02.13.03.26.04.38 0 .13.03.27.04.39.04.39.07.75.1 1.08v.04c.02.13.04.26.04.37l1.04-1.49 1.27 2.54.04.56c.17.04.35.08.5.12l-.04-.57 1.2-1.89 1.07 2.54.04.53c.14.04.28.09.42.13l-.04-.54 1.04-1.81.91 2.57.05.55c.14.06.28.12.42.19l-.06-.58.67-1.74.85 2.54.05.58c.13.09.26.17.37.25l-.08-.62.56-1.58.74 2.58.06.61c.08.08.17.16.24.24l-.09-.67.37-1.31.66 2.9.06.48s.03.21.04.35v.07s.02.02 0 .03v.04l.27 2.12s0 .07.02.11l.71 5.41.49-.9 1.02 3.29.05.51c.11-.05.21-.11.32-.17s-.03-.29-.03-.29l.87-2.22.55 1.72c.05-.03.12-.05.17-.1.62-.37 1.24-.75 1.84-1.15.3-.19.6-.4.9-.6s.59-.41.89-.63c.29-.21.58-.43.88-.65.29-.21.58-.43.86-.66s.57-.45.84-.68c.28-.23.56-.46.83-.7.27-.23.55-.47.81-.72.31-.27.62-.56.92-.85.19-.19.39-.37.58-.56.28-.27.56-.56.83-.84 7.3-7.49 12.24-17.3 13.62-28.2 2.18 22.83-4.16 41.03-13.62 55.08-.19.28-.37.56-.57.84z" fill="#ba9a45"/><path d="m93.41 115.5c-.11.18-.21.35-.33.53v2.28c9.45-14.05 15.79-32.25 13.62-55.08-1.37 10.91-6.31 20.72-13.62 28.2v19.49l.3-1.22 1.28 3.74c-.05.08-.1.17-.15.25-.15.26-.31.51-.47.78q-.42-.195-.96-.39-.54-.18-1.23-.39c-3.28-1-7.88-1.73-12.81-2.22-4.67-.48-9.64-.75-14.04-.89-2.11-.06-4.09-.09-5.84-.09h-1.2c-2.02-.02-4.41 0-7 .08-4.4.13-9.37.41-14.05.89-4.94.5-9.56 1.21-12.84 2.21-.45.13-.85.27-1.2.39-.36.12-.68.26-.96.38-.1-.16-.2-.34-.3-.5-.09-.14-.17-.28-.26-.42l1.3-3.79.23.94v-18.75c-7.09-7.08-12.04-16.32-13.78-26.65-1.63 21.88 4.61 39.4 13.78 53.04v-2.31c-.17-.26-.33-.51-.49-.77.15-.07.31-.15.49-.22 1.13-.48 2.66-.89 4.48-1.26h.06c-.3 1.97-.83 5.14-1.17 7.11.3.42.61.83.92 1.24h9.75v1.67h14.05v-1.45h-7.29v-.04c0-.04.03-.11.05-.18.37-1.08 2.18-5.23 7.22-7.95 1.2-.65 2.58-1.21 4.16-1.64-.03 3.05-.06 6.77-.07 7.01 1.46.04 2.75.04 2.89.04s1.35 0 2.9-.04c0-.26-.04-4.6-.07-7.75 1.42 0 2.82.03 4.22.06 4.96.09 9.76.31 14.04.67 6.18.51 11.25 1.32 14.04 2.49.17.07.33.14.48.22s-.03.04-.04.06c-.04.06-.07.12-.12.19zm-57.75.09c0 .49-.72.47-.72.47-.37 0-.65.08-.65-.4l.12-.96c.07-.43.12-.78.71-.8.51-.02.68.31.65.73zm12.7-.64c0 .49-.9.38-.9.38-.48.04-.82 0-.82-.5l.02-.83c.05-.57.22-.75.96-.78.66 0 .78.29.78.78z" fill="#642e84"/><path d="m78.46 89.98s0 .02 0 0" fill="#ba9a45"/><path d="m50.58 133.93a.1.1 0 0 0 -.1-.1h-.65s-.09.02-.12.03l-.98.32c-.05.02-.11.04-.11.1v.63c0 .06.04.12.1.12l.84-.13v3.79h-.73c-.06 0-.11.04-.11.11v.69c0 .06.04.11.11.11h2.45c.06 0 .11-.04.11-.11v-.69c0-.06-.04-.11-.11-.11h-.72v-4.74zm3.96-.1c-1.11 0-1.9.77-1.92 1.81-.02 1.22.73 1.92 1.77 1.92.45 0 .85-.17 1.13-.4-.12.88-.49 1.56-1.22 1.56-.33 0-.62-.07-.94-.33a.11.11 0 0 0 -.14.02l-.48.61s-.02.11.02.14c.28.19.65.48 1.55.48 1.92 0 2.26-1.93 2.26-3.18 0-1.93-.82-2.64-2.01-2.64zm-.15 2.81c-.41 0-.79-.28-.78-1 0-.46.36-.88.93-.88s.92.38 1 1.25c-.36.54-.8.63-1.15.63m5.66-.72c-.46 0-.85.17-1.14.4.12-.88.49-1.56 1.22-1.56.33 0 .61.07.94.33.04.03.11.03.14-.01l.48-.62s.03-.11-.02-.14c-.28-.19-.64-.48-1.55-.48-1.92 0-2.26 1.93-2.26 3.18 0 1.93.81 2.64 2.01 2.64 1.11 0 1.91-.77 1.92-1.81.02-1.22-.73-1.92-1.76-1.92zm-.16 2.8c-.6 0-.92-.37-1-1.25.36-.54.81-.63 1.16-.63.41 0 .78.28.77 1 0 .46-.36.88-.93.88m3.63-3.45c0 .78.51 1.12.87 1.29-.47.22-1.09.6-1.09 1.53 0 .85.61 1.43 1.7 1.53.12 0 .25.02.38.02 1.3 0 2.05-.6 2.05-1.55 0-.75-.3-1.1-1.08-1.51.49-.27.87-.6.87-1.31 0-.82-.7-1.44-1.85-1.44-.13 0-.26 0-.37.03-.93.12-1.48.69-1.48 1.42zm1.48-.47c.11-.03.22-.04.37-.04.78 0 .86.42.86.52 0 .41-.35.62-.83.84-.13-.07-.27-.14-.4-.22-.27-.18-.5-.38-.5-.62 0-.1.04-.38.5-.48m0 2.43.36-.18c.58.3 1.08.58 1.08 1.04 0 .19-.08.63-1.06.63-.15 0-.27 0-.38-.03-.64-.1-.7-.45-.7-.6 0-.37.31-.66.7-.87z" fill="#fff"/><g fill="#642e84"><path d="m59.43 73.7.04 1.7s.3.04.58.06c0-.28-.02-1.28-.04-1.71-.14-.03-.58-.05-.58-.05m1.55.19s.05 1.33.06 1.74c.37.08.57.13.57.13s-.04-1.2-.07-1.75c-.25-.06-.56-.12-.56-.12m1.38.33.09 1.81s.32.12.53.19c-.02-.12-.1-1.65-.11-1.83-.27-.1-.51-.17-.51-.17m1.61.18c-.19.05-.21.26-.21.37 0 .12.12 1.9.12 1.9s.27.17.45.29c-.03-.43-.08-1.4-.13-1.96-.02-.2-.12-.51-.23-.61z"/><path d="m58.01 71.48c-3.28.05-5.96 1.02-7.06 2.42-.12.16-.22.33-.31.5-.04.4-.08.87-.12 1.39.04-.35.07-.58.26-.91.04-.06.07-.12.11-.18.41-.61 1.01-1.06 1.7-1.42 0 0-.03.02-.04.04-.04.56-.35 5.13-.52 7.91l.58-.92 1.35 2.22-.02.5.65-.06v-.48l1.62-2.41c.18-1.81.54-3.95 1.3-5.59v.86h1.04c.02-.16 0-.65 0-1.7 0-.24-.12-.4-.23-.5.31-.37.66-.67 1.04-.89 1.78.14 4.65.67 5.81 2.43.16.25.23.43.27.63-.04-.41-.06-.76-.08-1.04-.08-.12-.16-.26-.26-.38-1.1-1.4-3.8-2.35-7.08-2.41zm-4.43 4.56s-.32.11-.53.19c.01-.12.1-1.65.1-1.83.27-.1.52-.17.52-.17l-.1 1.82zm1.41-.41c-.37.09-.56.14-.56.14s.05-1.2.07-1.76c.25-.06.56-.12.56-.12s-.05 1.34-.07 1.74m1.58-.23s-.3.03-.58.06c0-.28.01-1.28.04-1.71.14-.03.58-.06.58-.06l-.04 1.7zm-19.97 22.36.65-5.23v-.05l-.66 5.26v.01zm21.42-5.23s-.58.47-.59 1.24c-.03 1.08-.07 1.26-.04 1.63.28-.02.97-.02 1.26 0 .04-.37 0-.55-.04-1.63-.02-.77-.59-1.24-.59-1.24m.01-6.69a.83.83 0 0 0 -.66.84c-.03 1.21 0 2.15 0 2.38h1.27c0-.23.04-1.17 0-2.38 0-.51-.34-.79-.62-.84zm2.65.77c.02.85.05 2.51.05 2.51s.43.02.8.03c-.02-.23-.06-1.7-.06-2.49-.18-.02-.49-.04-.79-.05m2.65.21.1 2.51.81.08-.11-2.5zm1.5 3.87c.03.25.12 2.23.19 4.14l.72 1.37c-.11-2.32-.24-5.15-.25-5.44-.02-.5-.72-.58-.66-.07m.84-3.62.12 2.51s.42.06.8.12c-.03-.19-.12-1.98-.15-2.5-.3-.05-.77-.12-.77-.12zm2.23.38.15 2.52s.27.07.65.12c-.03-.19-.11-1.8-.15-2.51-.32-.06-.65-.13-.65-.13m2.79.91c-.06-.67-.32-1.03-.51-1.13 0 0-.52.05-.46.94.08 1.24.16 2.2.16 2.2s.5.13.99.26c-.03-.42-.11-1.42-.18-2.27m0 5.6s-.55.14-.49.91c.1 1.34.15 1.92.15 1.92l.7.14.29-.53c-.02-.25-.04-.58-.11-1.34-.06-.81-.55-1.11-.55-1.11zm1.17-5.51.21 2.52s.23.1.66.23c-.03-.19-.19-2.3-.21-2.56a7 7 0 0 0 -.66-.19m1.68.6.25 2.54s.24.11.57.24c-.02-.19-.23-2.3-.26-2.56zm1.5 4.23c.04.27.19 1.76.33 3.17l.45-1.02c-.08-.77-.15-1.46-.18-1.79-.06-.61-.68-.91-.6-.36"/><path d="m58.68 83.51h-.66c-6.78-.12-17.13 1.69-20.02 5.75-.18.25-.33.49-.44.74s-.29 2.39-.29 2.39c.09-.77.69-2.71 3.1-4.21.34-.2.7-.4 1.1-.59-.18 1.69-.38 3.59-.57 5.41-.16-.04-.45.22-.49.64-.04.35-.12 1.12-.2 1.97l.09-.17.39.89.78 1.76-.09 1.05c.22-.04.45-.1.7-.14l.09-1.05 1.64-3.28 1.54 2.8-.07.98c.24-.04.47-.07.7-.11l.07-1.02 1.64-3.24 1.51 2.9-.05.94c.29-.04.56-.05.82-.08l.04-.91.28-.56c.12-2.35.25-5.32.26-5.61.02-.5.73-.58.67-.07-.03.26-.12 2.35-.2 4.31l.03-.06c.35-2.26 1.2-5.36 3.5-7.57 0 .75-.04 1.61-.04 1.78.36 0 .79-.03.79-.03s.04-1.58.05-2.43c1.36-1.03 3.13-1.76 5.46-1.97 4.37.21 8.42.95 11.45 1.95 1.34.44 2.52.94 3.45 1.51 2.15 1.35 2.86 3.03 3.05 3.92l-.27-2.12v-.04c-.12-.22-.25-.49-.41-.69-2.81-3.93-12.59-5.76-19.37-5.76zm-16.46 8.08s-.23.1-.57.23c.02-.2.24-2.3.26-2.55.16-.06.56-.22.56-.22zm1.72-.61s-.23.09-.66.23c.03-.19.19-2.31.21-2.56.24-.09.66-.2.66-.2zm2.19-.62s-.5.14-.98.26c.02-.42.1-1.42.17-2.27.06-.67.32-1.02.52-1.13 0 0 .52.05.46.93l-.16 2.2zm1.82-.38s-.27.07-.64.12c.02-.19.11-1.79.15-2.51.31-.06.64-.14.64-.14zm2.26-.4s-.42.06-.8.12c.03-.2.11-1.99.15-2.5.3-.05.77-.12.77-.12l-.13 2.51zm2.37-.26-.8.08.1-2.5s.35-.05.81-.09l-.1 2.5zm32.61 15.24v-.05c0-.02 0-.04-.02-.19 0 0-.02-.03-.04-.04-.51-.59-1.22-1.16-2.05-1.66-.95-.56-2.05-1.04-3.28-1.47-6.07-2.12-15.07-2.76-21.81-2.7-6.83-.06-15.93.65-22 2.85-1.14.42-2.17.88-3.06 1.4-.84.49-1.51 1.03-2.02 1.62-.03.07-.04.15-.05.23-.11.71-.22 1.52-.35 2.38.37-1.58 1.25-2.43 3.02-3.35q.93-.495 2.04-.9c-.32 2.64-.83 6.51-1.02 7.99.23-.04.48-.06.73-.1l.07-.57 1.58-2.97.4-.75 1.71 3.36-.05.56 1.48-.12.04-.61 2-3.71 1.74 3.47-.04.6c.56-.04 1.09-.06 1.58-.09l.04-.55 2.08-3.69.66 1.31c.17-.41.36-.82.58-1.24 1.47-2.69 4.41-5.47 11.31-5.79 5.05.1 12.34.55 17.84 2.09.27.07.52.15.77.22 1.28.4 2.45.86 3.44 1.4 1.74.89 2.64 1.74 3.04 3.25-.12-.73-.22-1.49-.33-2.21zm-47.76-.2c0 .08-.08.19-.22.22-.12.04-.2.05-.29.08-.11.03-.21.05-.38.1-.08.03-.16-.02-.15-.18 0-.18.04-.41.06-.58 0-.11.04-.3.14-.34.1-.03.21-.06.33-.1.13-.04.27-.09.43-.13.12-.04.19 0 .18.15-.03.22-.09.69-.1.78m5.4-1.07c0 .08-.06.14-.19.18-.23.04-.49.08-.69.11-.09 0-.19.02-.18-.14 0-.18.07-.81.09-.91.02-.11.07-.18.17-.19.11-.03.54-.09.73-.13.12-.03.16.05.14.19-.03.22-.06.82-.07.91zm8.13 19.01v.04h-7.29v-.04h7.28z"/><path d="m50.96 122.33h7.03v-.04h-7.04v.04zm3.83-1.96h6.57v.86h-6.57zm13.57-7.14c-.66-.02-.78.29-.78.78l.04.95c0 .49.9.38.9.38.48.04.82 0 .82-.5l-.02-.83c-.05-.57-.22-.75-.96-.78m-3.36 9.07h14.04v.04h-14.04zm14.04.03h9.6s.02-.03.03-.04h-9.63zm-21.02-.03v.04h6.98v-.04zm22.83-8.39c-.51-.02-.68.31-.65.73l.11.96c0 .49.72.46.72.46.38 0 .65.09.65-.4l-.12-.95c-.07-.43-.12-.78-.71-.8m12.56 1.59c-.11.18-.21.35-.33.53v-.02c.12-.17.22-.34.33-.51m-.83 1.3c.17-.26.34-.51.5-.77v-.02c-.16.27-.33.53-.5.79"/></g><g fill="#fff"><path d="m63.81 125.63 1.19.89.27.19 13.77-.9 2.85-.18zm13.11 9.32 1.03-.94-10.74-5.94 9.72 6.89zm-14.44-11.17 1.54.83.98-.05 14.04-.56 5.43-.22zm-27.35-9.87c-.58.02-.64.36-.71.8l-.11.95c0 .49.27.41.64.4 0 0 .72.02.72-.46l.11-.95c.03-.42-.13-.74-.65-.73zm20.73-42.76h-.02l-1.06-1.79-1 2.28-.9-1.5-.96 2.48-.56-1.14-.69 2.68v.06c0 .06 0 .11-.02.18.09-.17.19-.34.31-.5 1.11-1.4 3.79-2.36 7.06-2.42 3.28.05 5.98 1.01 7.08 2.41.1.12.18.26.26.38v.02l-.02-.16-.63-2.66-.56 1.14-.97-2.48-.9 1.5-1-2.27-1.05 1.78h-.03l-1.03-2.16-1.13 1.98-1.14-1.98-1.03 2.16zm-14.2 20.67c.34-.13.57-.23.57-.23l.25-2.54s-.4.16-.56.22c-.02.25-.23 2.36-.26 2.55m2.09 30.3c-.02.07-.04.13-.05.18s.03-.11.05-.18m49.82-6.87s-.03.04-.04.06c.02-.02.03-.04.04-.06m-35.57 7.05h.02v-.1.1z"/><path d="m93.08 115.03c-2.79-1.17-7.86-1.97-14.04-2.49-4.28-.36-9.08-.58-14.04-.67-1.4-.04-2.81-.05-4.22-.06.03 3.14.06 7.49.07 7.75-1.55.04-2.9.04-2.9.04-.14 0-1.43-.02-2.89-.05 0-.24.04-3.96.07-7.01-1.58.43-2.97.99-4.16 1.64-5.05 2.72-6.85 6.87-7.22 7.95-.02.07-.04.13-.05.18h14.31v-.1.1h30.66c.43-.56.85-1.12 1.27-1.69.42-.58.83-1.15 1.24-1.74.47-.67.94-1.36 1.39-2.06.18-.26.35-.52.5-.79.12-.17.22-.34.33-.51.04-.06.08-.12.12-.19.02-.02.03-.04.04-.06-.15-.08-.31-.15-.48-.22zm-31.73 6.2h-6.57v-.86h6.57zm7.17-5.89s-.9.11-.9-.38l-.04-.95c0-.49.12-.8.78-.78.74.03.91.21.96.78l.02.83c0 .49-.35.53-.82.5m12.5.72s-.72.03-.72-.46l-.11-.96c-.04-.42.13-.74.65-.73.58.02.64.36.71.8l.12.95c0 .49-.27.41-.65.4m-53.61-2.31c-.3 1.97-.83 5.15-1.17 7.12v.04c-.25-.34-.5-.67-.73-1.01-.16-.22-.32-.44-.47-.66-.34-.47-.66-.95-.98-1.43-.12-.16-.22-.32-.32-.48-.25-.36-.49-.73-.73-1.11-.04-.06-.09-.13-.13-.2-.17-.26-.33-.51-.49-.77.15-.07.31-.15.49-.22 1.13-.48 2.66-.89 4.48-1.26h.06zm-1.17 7.16v-.04zm27.45 2.87-1.54.83-1.19-.05-14.05-.56-5.2-.22zm-15.6 10.31c.35.32.69.64 1.04.95l9.83-6.97zm-3.81-8.46 2.63.16 13.99.92.06-.04 1.41-1.04zm19.13-.01h9.26v.91h-9.26zm.71-1.84h7.92v.73h-7.92zm11.8-42.9c.03.39.06.75.1 1.08-.03-.33-.06-.69-.1-1.08"/><path d="m59.34 72.25c-.39.22-.73.52-1.04.89.12.1.23.26.23.5.02 1.05.03 1.54 0 1.7h-1.04v-.86c-.76 1.65-1.12 3.78-1.3 5.59l-1.62 2.41v.48c-.21.02-.42.04-.65.06l.02-.5-1.35-2.22-.58.92c.18-2.77.49-7.35.52-7.91.02-.02.04-.03.04-.04-.69.35-1.29.81-1.7 1.42-.04.06-.07.12-.11.18-.19.33-.22.57-.26.91 0 .05 0 .12-.02.18v.08c-.4.05-1.05.15-1.33.27-.4.19-.42.81-.42.81h1.65v.11c-.04.42-.07.86-.11 1.29-.04.48-.08.96-.12 1.42-.04.44-.07.87-.11 1.27-.04.42-.07.82-.1 1.18l-1.04-1.49-1.27 2.54-.04.58c-.17.04-.35.07-.5.11l.04-.58-1.19-1.89-1.08 2.54-.04.52c-.15.04-.28.09-.42.13l.05-.53-1.04-1.81-.91 2.57-.05.52c-.14.06-.28.12-.42.19l.05-.54-.67-1.74-.84 2.54-.05.55c-.13.08-.26.16-.37.24l.07-.58-.55-1.58-.74 2.58-.06.57q-.135.12-.24.24l.08-.63-.37-1.31-.66 2.9-.05.43-.07.54c.12-.26.27-.5.44-.74 2.89-4.06 13.24-5.88 20.02-5.75h.66c6.78 0 16.56 1.83 19.37 5.76.16.2.29.47.4.69v-.1c-.02-.14-.04-.35-.04-.35l-.06-.49-.66-2.9-.37 1.31.09.67c-.07-.08-.16-.16-.24-.24l-.06-.61-.74-2.58-.56 1.58.08.62c-.12-.08-.24-.16-.37-.25l-.05-.58-.85-2.54-.67 1.74.06.58c-.14-.07-.28-.13-.42-.19l-.05-.55-.91-2.57-1.04 1.81.04.54c-.13-.04-.27-.09-.42-.13l-.04-.53-1.07-2.54-1.2 1.89.04.57c-.16-.04-.34-.08-.5-.12l-.04-.56-1.27-2.54-1.04 1.49c0-.12-.03-.24-.04-.37v-.04c-.04-.33-.07-.69-.1-1.08 0-.12-.03-.26-.04-.39 0-.12-.02-.25-.04-.38-.04-.49-.09-.99-.12-1.5-.04-.5-.09-1-.13-1.48h1.6s-.03-.62-.42-.81c-.27-.11-.87-.21-1.27-.27v-.12c-.03-.23-.04-.41-.06-.58v-.04c-.04-.19-.12-.38-.27-.63-1.16-1.76-4.03-2.29-5.81-2.43zm.13 3.15-.04-1.7s.43.03.58.05c.03.42.04 1.43.04 1.71-.28-.03-.58-.06-.58-.06m1.57.23c0-.41-.06-1.74-.06-1.74s.31.05.56.12c.03.56.07 1.75.07 1.75s-.19-.05-.57-.13m1.41.4-.09-1.81s.25.07.51.17c0 .19.09 1.72.11 1.83-.21-.07-.53-.19-.53-.19m1.44.64s-.12-1.79-.12-1.9.03-.32.21-.37c.12.1.21.41.23.61.05.56.11 1.52.13 1.96-.19-.12-.45-.29-.45-.29z"/><path d="m53.06 76.23c.21-.08.53-.19.53-.19l.1-1.82s-.25.07-.52.17c0 .19-.09 1.72-.1 1.83zm1.36-.46.56-.14c.01-.4.07-1.74.07-1.74s-.3.06-.56.12c-.02.56-.07 1.76-.07 1.76m-12.48 27.8c.21-.03.46-.07.69-.11.14-.03.2-.09.2-.18 0-.08.05-.69.07-.91.02-.14-.03-.21-.15-.19-.19.04-.62.11-.73.13-.1.02-.16.09-.17.2-.02.1-.08.73-.09.91 0 .16.09.15.17.14zm-4.68-11.1v.06z"/><path d="m85.17 104.32-.2-1.44-.71-3.17-.65 1.64.14 1.08c-.12-.1-.25-.19-.39-.28l-.1-.9-.54-1.67-.55-1.72-.87 2.22.03.28.08.73c-.12-.04-.23-.1-.35-.15l-.04-.4-.05-.51-1.02-3.29-.49.9-.71-5.41s0-.07-.02-.11c-.19-.89-.89-2.58-3.05-3.92-.93-.58-2.12-1.07-3.45-1.51-3.03-1-7.07-1.74-11.45-1.95-2.33.2-4.1.94-5.46 1.97-.02.86-.05 2.43-.05 2.43s-.42.02-.79.03c0-.17.04-1.03.04-1.78-2.3 2.2-3.15 5.31-3.5 7.57l-.03.06c.08-1.97.18-4.05.2-4.31.05-.5-.66-.43-.67.07 0 .29-.14 3.27-.26 5.61l-.28.56-.04.91c-.27.03-.53.04-.82.08l.05-.94-1.51-2.9-1.64 3.24-.07 1.02c-.23.04-.46.07-.7.11l.07-.98-1.54-2.8-1.64 3.28-.09 1.05c-.25.04-.48.1-.7.14l.09-1.05-.78-1.76-.39-.89-.09.17c.09-.85.17-1.62.2-1.97.04-.42.33-.67.49-.64.19-1.81.39-3.72.57-5.41-.4.19-.76.39-1.1.59-2.41 1.5-3.01 3.44-3.1 4.21v.13l-.65 5.22v-.02l-.53-.86-.92 3.15-.08.81v.07q-.195.075-.36.15l.04-.39.06-.59-.87-2.22-.65 2.02-.44 1.38-.1.86c-.13.09-.26.19-.38.27l.13-1.04-.6-1.78-.75 3.31-.23 1.4v.04q.75-.885 2.01-1.62c.89-.52 1.92-.98 3.06-1.4 6.07-2.2 15.16-2.91 22-2.85 6.75-.06 15.74.58 21.81 2.7 1.22.42 2.33.91 3.28 1.47.83.5 1.54 1.06 2.05 1.65s.03.04.04.04zm-26.52-8.93c-.28-.02-.97-.02-1.26 0-.04-.37 0-.55.04-1.63.02-.77.59-1.24.59-1.24s.58.47.59 1.24c.03 1.08.07 1.26.04 1.63m-.01-6.33h-1.27c0-.23-.04-1.17 0-2.38 0-.51.37-.79.66-.84.28.05.61.33.62.84.04 1.21 0 2.15 0 2.38zm2.09.07s-.04-1.66-.05-2.51c.3.02.61.04.79.05 0 .79.04 2.26.06 2.49-.36 0-.8-.03-.8-.03m2.7.19-.1-2.51c.45.04.8.09.8.09l.11 2.5zm1.6 5.52c-.08-1.91-.17-3.9-.19-4.14-.05-.5.65-.43.66.07 0 .29.14 3.12.25 5.44zm.77-5.26-.12-2.51s.47.07.77.12c.04.51.12 2.3.15 2.5-.38-.05-.8-.12-.8-.12zm2.26.4-.15-2.52s.33.07.65.13c.04.72.12 2.32.15 2.51-.38-.05-.65-.12-.65-.12m1.66-1.82c-.06-.89.46-.94.46-.94.19.11.45.46.51 1.13.07.85.15 1.85.18 2.27-.49-.12-.99-.26-.99-.26s-.08-.97-.16-2.2m1.34 8.77-.7-.14s-.05-.58-.15-1.92c-.06-.77.49-.91.49-.91s.49.29.55 1.11c.06.75.09 1.09.11 1.34l-.29.53zm1.01-5.95-.21-2.52s.42.11.66.19c.02.26.19 2.36.21 2.56-.43-.13-.66-.23-.66-.23m1.71.61-.25-2.54.56.22c.03.26.24 2.36.26 2.56-.33-.13-.57-.24-.57-.24m1.59 4.86c-.13-1.41-.28-2.89-.33-3.17-.08-.55.54-.25.6.36.03.33.1 1.02.18 1.79z"/><path d="m37.43 104.36c0-.09.07-.56.1-.78.02-.14-.07-.19-.18-.15-.15.04-.3.09-.43.13v1.1l.3-.07c.14-.04.21-.14.22-.23zm-.85-.7c-.1.03-.13.23-.14.33-.02.18-.05.41-.06.59 0 .16.07.2.15.18.17-.05.28-.07.38-.1v-1.1c-.12.04-.23.07-.33.1m19.41-28.2c.28-.03.58-.06.58-.06l.04-1.7s-.44.03-.58.06c-.03.42-.04 1.43-.04 1.71zm-12.71 15.75c.43-.14.66-.23.66-.23l.21-2.53s-.42.11-.66.2c-.02.25-.18 2.37-.21 2.56m8.5-1.81.8-.08.1-2.5c-.45.04-.81.09-.81.09l-.1 2.5zm-5.95-2.18c-.2.1-.46.46-.52 1.13-.08.85-.15 1.85-.17 2.27.48-.12.98-.26.98-.26s.08-.96.16-2.2c.06-.89-.46-.93-.46-.93zm-23.92 27.23c-.1-.16-.2-.34-.3-.5.1.17.2.34.31.5z"/><path d="m94.67 113.44c-.05.08-.1.17-.15.25-.15.26-.31.51-.47.78q-.42-.195-.96-.39-.54-.18-1.23-.39c-3.28-1-7.88-1.73-12.81-2.22-4.67-.48-9.64-.75-14.04-.89-2.11-.06-4.09-.09-5.84-.09h-1.2c-2.02-.02-4.41 0-7 .08-4.4.13-9.37.41-14.05.89-4.94.5-9.56 1.21-12.84 2.21-.45.13-.85.27-1.2.39-.36.12-.68.26-.96.38-.11-.17-.21-.34-.31-.5-.09-.14-.17-.28-.26-.42l1.3-3.79.23.94.42 1.73-.14.63c.21-.09.43-.17.67-.26l.11-.62 1.38-3.63 1.13 2.92-.1.62c.19-.04.38-.09.58-.13l.11-.64 1.52-3.62 1.32 3.12v.07c.09-.53.18-1.07.26-1.61.04-.28.09-.57.13-.84.08-.5.15-.99.22-1.47.37-1.58 1.25-2.44 3.02-3.36q.93-.495 2.04-.9c-.32 2.64-.83 6.51-1.02 7.99.23-.04.48-.06.73-.1l.07-.57 1.58-2.97.4-.75 1.71 3.36-.05.56 1.48-.12.04-.61 2-3.71 1.74 3.47-.04.6c.56-.04 1.09-.06 1.58-.09l.04-.55 2.08-3.69.66 1.31c.17-.41.36-.82.58-1.24 1.47-2.69 4.41-5.47 11.31-5.79 5.05.1 12.34.55 17.84 2.09.27.07.52.15.77.22 1.28.4 2.45.86 3.44 1.4 1.74.89 2.64 1.74 3.04 3.25v.02s.02.05.03.08c.21 1.42.42 2.78.6 3.87l1.3-3.09 1.52 3.62.12.64c.19.04.39.09.58.13l-.1-.62 1.13-2.92 1.38 3.63.11.62c.24.08.46.16.67.24l-.13-.61.35-1.44.3-1.22 1.28 3.74z"/><path d="m47.46 115.33s.9.11.9-.38l.03-.94c0-.49-.12-.79-.78-.78-.74.02-.91.21-.96.78l-.02.83c0 .49.35.53.83.49m1.96-25.63c.38-.06.8-.12.8-.12l.13-2.51s-.47.07-.77.12c-.04.52-.12 2.31-.15 2.5zm-2.11.4c.37-.05.64-.12.64-.12l.15-2.53s-.33.08-.64.14c-.04.72-.12 2.32-.15 2.51m-19.68-41.05c-.88-.66-2.03-1.01-3.32-1.01s-2.42.35-3.3 1.01c-1.27.94-2.02 2.52-2.02 4.22v7.54c0 .12.1.22.22.22h2.69c.12 0 .22-.1.22-.22v-3.51h4.42v3.51c0 .12.09.22.22.22h2.69c.12 0 .22-.1.22-.22v-7.54c0-1.7-.76-3.28-2.02-4.22m-1.12 5.51h-4.42v-1.14c0-.86.24-1.53.71-1.97.39-.35.86-.51 1.49-.51s1.13.17 1.5.51c.47.45.71 1.11.71 1.98v1.14zm13.03 3.72h-5.17v-9.86c0-.12-.1-.22-.22-.22h-2.69c-.12 0-.22.09-.22.22v12.38c0 .12.09.22.22.22h8.08c.12 0 .22-.1.22-.22v-2.31c0-.12-.09-.22-.22-.22m12.36-9.22c-.88-.66-2.03-1.01-3.32-1.01s-2.42.35-3.3 1.01c-1.27.94-2.02 2.52-2.02 4.22v7.54c0 .12.1.22.22.22h2.69c.12 0 .22-.1.22-.22v-3.51h4.42v3.51c0 .12.09.22.22.22h2.69c.12 0 .22-.1.22-.22v-7.54c0-1.7-.76-3.28-2.02-4.22m-1.12 5.51h-4.42v-1.14c0-.86.24-1.53.71-1.97.39-.35.86-.51 1.49-.51s1.13.17 1.51.51c.47.45.71 1.11.71 1.98v1.14zm7.64-6.35h-2.69c-.12 0-.22.09-.22.22v12.38c0 .12.1.22.22.22h2.69c.12 0 .22-.1.22-.22v-12.38c0-.12-.1-.22-.22-.22m13.12 0h-2.53c-.12 0-.22.09-.22.22v7.46l-5.51-7.39c-.2-.25-.3-.29-.51-.29h-2.36c-.12 0-.22.09-.22.22v12.38c0 .12.1.22.22.22h2.53c.12 0 .22-.1.22-.22v-7.46l5.52 7.39c.17.25.28.3.51.3h2.34c.12 0 .22-.1.22-.22v-12.38c0-.12-.1-.22-.22-.22m4.7 12.8h2.69c.12 0 .22-.1.22-.22v-4.87h5.12c.12 0 .22-.1.22-.22v-2.3c0-.12-.1-.22-.22-.22h-5.12v-2.25h5.94c.12 0 .22-.1.22-.22v-2.3c0-.12-.1-.22-.22-.22h-8.85c-.12 0-.22.1-.22.22v12.38c0 .12.09.22.22.22m16.59.19c1.96 0 3.19-.46 4.05-.87.12-.06.14-.12.09-.26l-1.09-2.32c-.05-.1-.08-.1-.1-.1-.03 0-.07.01-.13.04-.93.47-1.82.69-2.8.69-2.1 0-3.62-1.59-3.62-3.79s1.58-3.77 3.6-3.77c1.1 0 1.94.32 2.68.67.08.02.18.07.26-.08l1.09-2.28c.08-.16 0-.23-.08-.27-.72-.36-1.92-.83-3.85-.83-3.98 0-6.97 2.82-6.97 6.57 0 4.14 2.57 6.61 6.88 6.61m-71.43-23.55c-1.15.21-2.04 1.41-2.04 2.69 0 .68.29 1.03.78.94.32-.06.52-.31.59-.44.08-.15.11-.22.18-.36 0 0-.15.11-.29.05-.13-.05-.21-.27-.21-.55 0-1.17.63-1.6.96-1.66.41-.07.88.27.88 1.45 0 1.37-.7 1.49-1 1.55-.07.01-.1.02-.16.03-1.41.26-1.62 1.13-1.62 1.64v1.53c.39-.07.58-.11.97-.18v-1.32c0-.46.09-.58.53-.66.13-.02.2-.04.33-.06 1.15-.21 2.12-1.44 2.12-2.67 0-1.35-.84-2.19-2.04-1.98m14.01 1.06c0 .38-.14.55-.49.59-.54.06-.81.09-1.35.16-.19.02-.28.03-.47.06-.07 0-.1.01-.17.02-.26.03-.5-.14-.65-.28.11-.3.17-.63.17-.96 0-1.19-.67-2.34-1.95-2.17-.83.11-1.46.74-1.46 1.43 0 .87.8 1.2 1.44 1.48.26.11.52.22.68.35-.1.24-.27.41-.67.47-.76.1-1.13.15-1.89.26-.17.02-.26.04-.43.06.03-.1.05-.2.05-.3 0-.29-.13-.74-.77-1.19 0 0-.59-.38-1.93-1.37l-.22-.17c-.17.42-.26.62-.43 1.03.8.53 1.2.79 2 1.33.37.25.53.55.53.72 0 .06-.01.06-.05.07-1.33.2-1.99.31-3.32.53v1c1.55-.26 2.32-.38 3.87-.61l.7-.1c.73-.1 1.09-.16 1.82-.26a2.15 2.15 0 0 0 1.4-.79c.2.23.63.53 1.25.45h.03c.19-.02.28-.03.47-.06.55-.07.82-.1 1.37-.16.7-.08 1.45-.52 1.45-1.5v-4.91l-.98.1v4.73zm-4.91-1.92c.52-.07.94.68.94 1.66v.13c-.14-.08-.3-.15-.45-.22-.49-.23-.95-.44-.95-.98 0-.32.24-.56.47-.59m7.19 3.21.99-.1v-6.26l-.99.1zm29.32-.52c-.33-.01-.6.25-.6.6s.27.65.6.66c.33.02.59-.26.59-.61s-.26-.63-.59-.65m-1.31-.06c-.33-.01-.6.26-.6.6s.27.65.6.66.59-.27.59-.62-.27-.63-.59-.64m-23.29-4.51c-1.18.09-2.14 1.26-2.14 2.56 0 1.44.84 2.31 2.14 2.21 1.18-.09 2.15-1.24 2.15-2.54 0-1.39-.88-2.33-2.15-2.23m-1.08 2.43c0-1.32.66-1.73 1.06-1.76.37-.03 1.08.28 1.08 1.6 0 1.19-.63 1.78-1.08 1.82-.43.03-1.06-.47-1.06-1.65m1.76-2.8c.33-.02.59-.31.59-.67s-.26-.62-.59-.6-.6.34-.6.69.27.61.6.58m-1.3.1c.33-.03.59-.33.59-.68s-.27-.62-.59-.59c-.32.02-.6.35-.6.69s.27.61.6.59"/><path d="m31.2 35.79c.33-.04.59-.35.59-.7s-.26-.61-.59-.57-.6.37-.6.72.27.59.6.55m-1.3.18c.32-.05.59-.36.59-.72s-.27-.61-.59-.56-.6.38-.6.72.27.6.6.55m25.18 1.53c0 .38-.14.53-.5.54-.61.01-.91.02-1.52.03-.3 0-.45.01-.74.02h-.11c-.32-.58-.76-1.39-.85-1.57-.29-.57-.72-.82-1.05-.92.57-.67 1.15-1.32 1.77-2.02.27-.3.4-.46.67-.77-.5.01-.75.02-1.24.04-.03.03-.04.05-.07.08 0 0-1.31 1.6-1.54 1.87-.61.71-.58 1.29-.58 1.35v1.13c0-.11.37-.83.57-1.13.17.16.4.41.58.78.26.47.4.71.66 1.19-1.14.04-1.71.06-2.85.12-.1 0-.15 0-.24.01h-.21c-.25.01-.74-.27-.76-.47v-2.67l-.98.05v4.67c0 .53-.55.74-.84.59-.23-.12-.35-.18-.58-.29.19.42.28.64.47 1.07.04 0 .07 0 .11.02.21.03.39.02.4.02.83-.05 1.41-.73 1.41-1.59v-.67c.24.16.54.27.9.25h.07c.1 0 .15 0 .24-.01 1.61-.08 2.42-.11 4.03-.16.3 0 .44-.01.74-.02.62-.01.93-.02 1.55-.03.71-.01 1.46-.39 1.46-1.36v-4.92c-.4 0-.59 0-.99.01v4.73m5.9-2.21c.33 0 .59-.25.59-.6s-.26-.62-.59-.62a.61.61 0 0 0 0 1.22"/><path d="m76.08 38.22c0 .38-.14.52-.5.49-.37-.03-.56-.05-.93-.08-.84-.07-1.26-.1-2.1-.15-1.22-.08-1.36-.99-1.36-1.38 0-.81.53-1.69 1.25-1.64.5.03.9.62.91.63 0-.43.01-.64.02-1.07-.27-.13-.81-.23-1.13-.23-1.34-.02-2.08 1.15-2.08 2.3 0 .49.14.93.41 1.28-.9-.05-1.34-.08-2.24-.12-.12 0-.18 0-.3-.01h-.11c-.36-.01-.69-.41-.76-.53v-2.67c-.4-.02-.6-.02-.99-.04v2.69c0 .33-.18.47-.58.46-.19 0-.28-.01-.47-.02h-.39c-.35-.01-.67-.37-.75-.51v-2.27c-.4-.01-.6-.02-.99-.02v2.38c0 1.46-.98 2.02-1.28 2.16-.07.03-.33.12-.67.12-1.24-.01-1.91-1.28-1.91-2.42v-2.28h-.99v1.47c0 .83 0 .9.03 1.17.01.12.02.17.02.29.27 1.49 1.38 2.53 2.83 2.55 1.29.02 2.38-.85 2.78-2.07.28.25.68.41 1.1.42h.22c.18 0 .27 0 .45.01.75.02 1.14-.2 1.35-.43.23.24.63.49 1.15.53h.27c2.54.12 3.8.2 6.33.4.39.03.58.05.96.08h.1c.67.02 1.35-.29 1.35-1.22v-4.92c-.39-.04-.59-.05-.99-.09v4.73zm2.28 1.73.99.1v-6.26l-.99-.1zm6.51-1.95c.1-1.95 1.02-2.18 1.89-2.06.13.02.2.02.32.04-.11-.29-.16-.43-.27-.73-.06 0-.09-.01-.15-.02-2.64-.36-2.74 2.07-2.82 3.78 0 .09 0 .14-.01.23.88.11 1.33.17 2.21.29-.25.8-1.01 1.32-1.87 1.21-1.17-.14-1.8-1.4-1.8-2.49v-1.59c-.4-.05-.59-.07-.99-.11v1.53c0 1.74 1.2 3.25 2.8 3.45 1.77.22 2.8-.7 2.98-2.59 0-.09.01-.14.02-.24-.94-.13-1.42-.19-2.36-.32.03-.14.04-.27.05-.38m5.3 0c-.28-.28-.59-.6-.94-.95-.08-.09-.13-.13-.21-.22-.19.35-.29.52-.48.85.79.77 1.18 1.14 1.97 1.91.57.56.58.92.58.92 0 .02-.03.06-.03.07-1.33-.21-1.99-.31-3.32-.5v1c1.32.19 1.99.29 3.31.5.24-.21.36-.32.6-.52.11-.09.29-.3.29-.64 0-.64-.59-1.23-1.77-2.41m6.58-.44c.33.06.59-.16.59-.52s-.26-.69-.59-.75c-.32-.06-.59.18-.59.52 0 .36.27.69.59.75m-.48 3.37c0 .37-.15.5-.49.44-.06 0-.08-.01-.14-.02-.49-.09-.73-.13-1.22-.22-.06-.01-.09-.02-.16-.03 0 0-.53-.11-.53-.62v-4.73c-.39-.07-.59-.1-.98-.16v4.92c0 1.32 1.24 1.55 1.65 1.62h.02c.49.09.73.13 1.22.22.07.01.09.02.16.03.7.13 1.45-.09 1.45-1.07v-3.29c-.39-.07-.59-.11-.98-.18v3.1zm-11.33.88c-.33-.01-.6.25-.6.6s.27.64.6.66c.33.01.59-.26.59-.61s-.26-.63-.59-.65m-1.31-.05c-.33-.01-.6.26-.6.6s.27.65.6.67c.33.01.59-.27.59-.62s-.27-.63-.59-.64"/></g></svg>