<svg viewBox="0 0 277.61 360" xmlns="http://www.w3.org/2000/svg"><path d="M273.242 54.797s-29.973-28.47-112.588-38.823c0 12.064-9.768 21.875-21.833 21.875-12.106 0-21.916-9.81-21.916-21.875C34.29 26.327 4.359 54.797 4.359 54.797-28.871 280.725 138.821 360 138.821 360s167.693-79.275 134.421-305.203" fill="#c2b094"/><path d="M151.929 20.9c-3.214 6.846-11.73 10.645-19.745 6.68-6.847-3.382-10.437-12.024-6.262-19.997 3.006-5.803 11.647-10.144 19.704-5.844 6.846 3.673 9.643 11.98 6.303 19.16" fill="#fff"/><path d="M151.846 18.813c.835-2.589 1.001-5.219.333-7.974-.166.209-.333.334-.291.375.166 2.171.125 4.3-.334 6.43-.085.333.209.75.292 1.168M126.882 7.958c-2.045 2.13-2.713 8.725-1.085 10.186.208-.418.376-.835.668-1.169.793-.876.96-1.795.876-2.964-.043-1.043 0-2.212.333-3.256.334-1.169.086-2.004-.793-2.797m24.672 2.63c0-.501.043-1.001-.086-1.42-1-2.88-3.047-4.842-5.593-6.428-.585-.418-1.128-.293-1.336.208 1.001 1.712 1.962 3.298 2.922 4.885.085.166.25.291.375.375 1.169.751 2.338 1.503 3.715 2.38m-14.652-8.1c-.961-1.168-1.503-1.335-2.922-.792-2.255.834-4.259 2.045-5.761 4.049-1.002 1.336-1.002 1.628.125 2.797 1.628-.585 3.172-1.127 4.717-1.712a3.6 3.6 0 0 0 1.044-.71c.96-1.168 1.837-2.379 2.797-3.631m6.805 24.546c.71-.208 1.335-.291 1.878-.543 2.254-1 3.924-2.671 5.135-4.842.668-1.127.543-2.254.208-3.423a187 187 0 0 1-3.757 1.169c-.208.085-.333.25-.46.418-1.085 1.377-2.128 2.755-3.172 4.132-.209.25-.418.585-.418.877.167.71.375 1.377.585 2.212m-15.905-10.77c-.71 1.001-1.796 2.004-1.42 3.298.835 2.588 2.046 4.926 4.884 5.97 2.338.876 2.046.96 3.841-1.045.375-.418.333-.71.086-1.168a161 161 0 0 1-2.338-4.634c-.086-.209-.25-.418-.418-.46a173 173 0 0 0-4.634-1.962m18.91-7.43c-.042-.377 0-.961-.25-1.378-.709-1.21-1.544-2.338-2.379-3.465-.166-.292-.543-.501-.834-.543a65 65 0 0 0-4.885-.46c-.333-.042-.793.126-1.043.377-.918 1.001-1.795 2.003-2.588 3.089-.208.25-.167.834-.043 1.169.71 1.294 1.42 2.63 2.213 3.882.167.292.584.543.918.585 1.878.25 3.757.375 5.677.5.293.044.71-.166.918-.417a194 194 0 0 0 2.296-3.34m-.584 10.896c-.043-.46.042-.918-.125-1.294-.543-1.461-1.17-2.922-1.754-4.425-.208-.501-.501-.71-1.044-.752-1.795-.125-3.59-.333-5.385-.417-.334 0-.876.208-1.043.5a95 95 0 0 0-3.006 4.175c-.208.334-.25.918-.085 1.295a55 55 0 0 0 2.254 4.383c.085.25.501.501.793.501 1.67.167 3.381.25 5.093.333.293 0 .668-.085.835-.291 1.168-1.294 2.254-2.63 3.464-4.008m5.803 1.169c-3.214 6.846-11.73 10.687-19.746 6.68-6.846-3.382-10.436-11.982-6.22-19.997 2.964-5.802 11.606-10.144 19.662-5.844 6.847 3.673 9.644 11.98 6.304 19.161" fill="#c2b094"/><path d="M246.275 81.389H31.326l1.086-20.83h-.627v-4.76l3.966-.043v-2.337s.501-1.587 2.338-3.256c0 0 2.338 1.544 2.338 3.38v2.297h3.757v5.343h-.752l.961 13.443 85.161-6.805V47.616l5.803-1.127 12.607 1.001v19.871l87.708 3.632V57.175h10.603M31.327 90.949S5.486 246.535 138.821 325.017C272.073 246.535 246.275 90.949 246.275 90.949" fill="#911e4a"/><g fill="#c2b094"><path d="M137.777 260.687l5.01-3.883s1.336-10.77 3.006-15.738l-4.342-4.007s4.175-27.594 10.98-43.457h.876s-9.31 33.438-8.85 42.622l2.546 2.546s5.218-9.35 12.106-11.647c0 0 1.795 6.68-.71 10.311-2.546 3.632-4.007 5.219-4.007 5.219l-3.298.834.25-2.755 1.712-.25s2.922-3.423 3.381-4.258c.502-.835.25-4.467.25-4.467s-9.56 6.763-10.019 17.325l-1.001 9.058-7.765 5.72-7.723-5.72-.96-9.058c-.5-10.562-10.102-17.325-10.102-17.325s-.208 3.632.293 4.467c.46.835 3.381 4.258 3.381 4.258l1.67.25.25 2.755-3.256-.834s-1.461-1.587-4.008-5.219c-2.546-3.631-.71-10.31-.71-10.31 6.889 2.295 12.107 11.646 12.107 11.646l2.505-2.546c.501-9.184-8.808-42.622-8.808-42.622h.876c6.804 15.863 10.979 43.457 10.979 43.457l-4.342 4.007c1.67 4.968 3.006 15.738 3.006 15.738"/><path d="M134.438 255.427h6.638l-3.131 3.173m-2.505-10.896h4.717v-3.006s-.835-2.797-2.212-4.258c0 0-2.505 2.505-2.505 4.509M62.719 258.6h65.75v-3.173h-65.75zm84.618 0h66.418v-3.173h-66.418zm21.04-66.334c-1.21 0-4.341-1.17-4.341-1.17v-7.305c0-2.42-1.837-3.34-3.465-3.34s-3.09 1.17-3.09 3.466v6.053l-4.8-.501v-7.682c0-2.254-1.712-3.005-3.173-3.005-1.544 0-3.047 1.127-3.047 3.047v6.345h-4.801v-6.053c0-2.504-2.046-3.548-3.465-3.548-1.461 0-3.507 1.044-3.507 3.548v6.053h-4.759v-6.345c0-1.92-1.544-3.047-3.047-3.047s-3.214.75-3.214 3.005v7.682l-4.801.5v-6.052c0-2.296-1.42-3.465-3.09-3.465-1.627 0-3.422.918-3.422 3.34v7.305s-3.131 1.169-4.384 1.169c-1.169 0-1.127-.668-1.127-.668l4.425-4.55v-7.807c10.06-3.674 24.797-3.256 26.926-3.173 2.13-.085 16.824-.5 26.926 3.173v7.807l4.425 4.55s.043.668-1.169.668m4.55-.334c-1.335-1.419-5.51-5.844-5.51-5.844v-11.397s-1.837-2.296-3.381 0v1.754s-.752.918-1.461 0v-2.463c0-2.046-3.465-1.879-3.465-.334v1.587s-.71 1.044-1.127 0v-2.756c0-1.503-3.09-1.67-3.09 0v2.004c0 .751-1.837.751-1.837.125v-3.005c0-1.503-3.047-1.42-3.047 0v2.713c0 .668-1.544.668-1.544 0v-3.381c0-1.086-2.923-1.378-2.923 0v3.047c0 .96-1.503.71-1.503.043v-2.88c0-1.796-3.256-1.921-3.256-.419v3.048c0 .626-1.503 1.085-1.503 0v-3.131c0-1.461-2.17-1.336-2.17 0v3.13c0 1.086-1.503.627-1.503 0v-3.047c0-1.502-3.256-1.377-3.256.418v2.88c0 .669-1.503.919-1.503-.042v-3.047c0-1.378-2.922-1.086-2.922 0v3.38c0 .669-1.587.669-1.587 0v-2.712c0-1.42-3.047-1.503-3.047 0v3.005c0 .626-1.795.626-1.795-.125v-2.004c0-1.67-3.09-1.503-3.09 0v2.756c-.417 1.044-1.126 0-1.126 0v-1.587c0-1.544-3.465-1.711-3.465.334v2.463c-.71.918-1.461 0-1.461 0v-1.754c-1.545-2.296-3.382 0-3.382 0v11.397s-4.174 4.425-5.51 5.844c-1.336 1.461.291 2.63.291 2.63h5.511l5.135-1.962v-8.474c0-2.13 2.671-1.712 2.671 0v8.14l8.683-1.336v-8.265c0-1.336 2.38-1.879 2.38-.043v8.099l8.975-.585v-8.015c0-.751 2.171-1.002 2.171 0v8.015l8.975.585v-8.1c0-1.836 2.38-1.293 2.38.044v8.265l8.683 1.336v-8.14c0-1.712 2.672-2.13 2.672 0v8.474l5.134 1.962h5.51s1.629-1.169.293-2.63"/><path d="M166.29 196.232s-4.05-1.67-11.814-2.84l-.043 2.506c6.095.876 9.435 1.92 9.435 1.92l4.007 58.277h2.547m-32.477-63.829h-.209c-5.051-.043-9.393.25-13.108.668l.668 2.463c3.34-.334 7.305-.585 11.772-.585h1.545c4.55 0 8.557.25 11.939.626l.71-2.504c-3.8-.418-8.225-.71-13.318-.668m-16.907 1.127c-7.722 1.21-11.73 2.839-11.73 2.839l-4.091 59.863h2.546l3.966-58.277s3.298-1.043 9.31-1.879m28.888-32.603h-2.004v2.004h-18.911v-2.004h-2.004v-2.63l5.344-1.294v-5.218c0-3.006 5.802-4.509 5.802-4.509h.668s5.761 1.503 5.761 4.509v5.218l5.344 1.294zm-2.338-5.928s.333-8.39-8.182-10.102v-8.183h-1.879v8.183c-8.516 1.711-8.224 10.102-8.224 10.102l-4.717 1.461v6.554h2.38v3.883h.71s.208-1.42 1.627-1.42c1.461 0 1.378 1.42 1.378 1.42h1.085s-.043-1.837 1.754-1.837c1.753 0 1.67 1.503 1.67 1.503h1.252c0-.71.333-1.503 2.004-1.503 1.711 0 2.003.793 2.003 1.503h1.294s-.042-1.503 1.712-1.503c1.712 0 1.67 1.837 1.67 1.837h1.085s-.043-1.42 1.378-1.42c1.503 0 1.67 1.42 1.67 1.42h.71v-3.883h2.379v-6.554m-78.732-40.117l-1.837-5.302-1.837 5.302zm-3.424-9.894h3.257l5.97 16.448h-3.55l-1.21-3.549h-5.719l-1.252 3.549h-3.423m17.199-16.365h3.465v13.276h6.72v3.089H81.463m16.656-16.365h3.632l2.797 10.77 3.048-10.811h3.005l3.048 10.812 2.755-10.77h3.548l-4.717 16.489h-3.173l-3.047-10.436-3.048 10.436h-3.13m25.798-6.679l-1.795-5.302-1.795 5.302zm-3.381-9.894h3.298l5.928 16.448h-3.549l-1.21-3.549h-5.761l-1.17 3.549h-3.464m17.241-16.365h3.423v6.596h5.469v-6.596h3.423v16.365h-3.423v-6.638h-5.469v6.638h-3.423m19.078-13.317v10.27h1.92c2.63 0 4.383-1.796 4.383-5.052v-.125c0-3.256-1.753-5.093-4.383-5.093zm-3.423-3.048h5.343c4.843 0 7.932 3.298 7.932 8.057v.209c0 4.8-3.09 8.098-7.932 8.098h-5.343m23.168-6.553l-1.795-5.302-1.836 5.302zm-3.38-9.894h3.297l5.928 16.448h-3.549l-1.21-3.549h-5.761l-1.169 3.549h-3.507m22.585-16.365h10.687v3.131h-7.222v3.674h6.345v3.09h-6.345v6.47h-3.465m12.482-8.057v-.209c0-4.967 3.13-8.349 7.514-8.349 2.463 0 4.05.918 5.343 2.213l-2.087 2.588c-.96-1.001-2.004-1.628-3.381-1.628-2.213 0-3.883 2.045-3.883 5.218v.086c0 3.214 1.712 5.218 3.925 5.218 1.335 0 2.295-.585 3.423-1.712l2.087 2.421c-1.503 1.503-3.09 2.463-5.636 2.463-4.341 0-7.305-3.297-7.305-8.307m-97.935 159.758l-1.002-3.005-1.001 3.005zm-1.88-5.552h1.796l3.298 9.184h-1.962l-.668-1.962h-3.173l-.668 1.962h-1.878m15.111-3.799h-1.67v2.13h1.712c.835 0 1.378-.376 1.378-1.086 0-.626-.46-1.044-1.42-1.044m1.002-2.63c0-.668-.46-1.001-1.252-1.001h-1.42v2.045h1.336c.835 0 1.336-.333 1.336-1.044zm-4.509-2.672h3.382c1.044 0 1.878.25 2.421.793.376.418.626.877.626 1.545v.043c0 1.043-.626 1.628-1.252 1.962.96.376 1.586 1.001 1.586 2.212v.043c0 1.67-1.294 2.505-3.298 2.505h-3.465m10.187-3.55v-5.594h1.879v5.594c0 1.294.626 1.962 1.586 1.962s1.586-.626 1.586-1.92v-5.636h1.879v5.552c0 2.547-1.378 3.715-3.465 3.715s-3.465-1.21-3.465-3.673m17.742-3.882v5.719h1.043c1.42 0 2.421-1.002 2.421-2.797v-.086c0-1.795-1.001-2.838-2.421-2.838zm-1.879-1.712h2.964c2.63 0 4.3 1.837 4.3 4.509v.125c0 2.671-1.67 4.508-4.3 4.508h-2.964m10.937-9.1h1.838v3.632h3.047v-3.632h1.837v9.1h-1.837v-3.715h-3.047v3.715h-1.837m15.153-3.632l-.96-3.005-1.043 3.005zm-1.836-5.552h1.795l3.256 9.184h-1.962l-.668-1.962h-3.173l-.668 1.962h-1.878m15.112-3.799h-1.67v2.13h1.711c.835 0 1.378-.376 1.378-1.086 0-.626-.46-1.044-1.42-1.044m1.002-2.63c0-.668-.46-1.001-1.252-1.001h-1.42v2.045h1.294c.877 0 1.378-.333 1.378-1.044zm-4.509-2.672h3.382c1.043 0 1.878.25 2.421.793.375.418.626.877.626 1.545v.043c0 1.043-.626 1.628-1.294 1.962 1.002.376 1.628 1.001 1.628 2.212v.043c0 1.67-1.294 2.505-3.256 2.505h-3.506m10.353-.002h1.92v-9.1h-1.92zm-49.01 7.848l-1.21.334-.167-1.086 1.753-.542h.877v7.514h-1.253m6.388-5.051v-.042c0-.835-.46-1.42-1.295-1.42-.75 0-1.252.626-1.252 1.42v.042c0 .835.501 1.378 1.294 1.378s1.253-.585 1.253-1.378m.085 1.712c-.376.46-.918.71-1.586.71-1.253 0-2.296-.835-2.296-2.38 0-1.503 1.085-2.588 2.504-2.588.793 0 1.295.25 1.754.668.543.543.876 1.377.876 2.922v.043c0 2.588-1.127 4.091-2.922 4.091-.793 0-1.42-.293-2.004-.751l.626-1.002c.46.376.877.627 1.42.627 1.085 0 1.586-1.128 1.628-2.338m5.884-2.131c0-.626-.501-1.085-1.127-1.085-.668 0-1.169.417-1.169 1.085s.501 1.127 1.169 1.127c.626 0 1.127-.46 1.127-1.127m.167 3.381v-.042c0-.71-.585-1.17-1.294-1.17-.793 0-1.336.46-1.336 1.17v.042c0 .668.501 1.17 1.336 1.17.793 0 1.294-.502 1.294-1.17m-3.882.086v-.043c0-.918.5-1.503 1.252-1.837-.585-.333-1.043-.834-1.043-1.67v-.042c0-1.17 1.043-2.004 2.38-2.004 1.335 0 2.295.834 2.295 2.004v.042c0 .835-.418 1.336-1.001 1.67.71.334 1.21.918 1.21 1.795v.043c0 1.336-1.085 2.171-2.504 2.171-1.503 0-2.588-.876-2.588-2.13m9.309-.669v-3.006l-2.088 3.006zm0 1.043h-3.299l-.166-.876 3.548-5.01h1.127v4.843h.918v1.043h-.918v1.628h-1.21"/></g></svg>