<svg viewBox="0 0 225 222.88" xmlns="http://www.w3.org/2000/svg"><path d="M198.34 51.564h-8.857l-29.577-23.75-10.411 2.151-28.161-17.146-8.833-5.384-37 22.53-10.411-2.15-29.577 23.75h-8.857C25.048 61.89 16.693 70.09 6.348 71.506v38.948c.125.018.25.042.376.06C17.906 112.23 26.68 121.882 26.93 133.5v25.776c4.794 1.166 14.242 5.271 23.971 19.698 5.17 7.668 12.06 10.98 16.973 12.407 3.449 1.004 7.088 1.154 9.294 1.13v8.731c4.082.215 10.967 1.62 17.834 7.704 8.564 7.59 13.65 7.584 17.499 7.584s8.929.006 17.493-7.584c6.873-6.084 13.758-7.489 17.84-7.704v-8.731c2.205.024 5.845-.126 9.287-1.13 4.919-1.428 11.809-4.74 16.979-12.407 9.73-14.427 19.178-18.533 23.965-19.698V133.5h.006c.251-11.75 9.216-21.497 20.577-23.045V71.507c-10.345-1.416-18.7-9.616-20.308-19.943" fill="#141e38"/><path d="M117.38 35.458l13.716 11.421-5.146-8.504zm-5.73-15.013l-6.21 7.387 5.744 4.04zm7.9 7.387l-6.251-7.387.514 11.427zm15.36.873h-11.02l-4.751 1.799zm-34.2 0H89.69l15.772 1.799zm27.31 7.685l12.682-5.731-25.292 2.295zm-13.56 7.011l16.704 6.484-17.308-14.33zm-4.8-10.447l-25.376-2.295 12.658 5.72zm1.48 2.6L93.844 49.879l16.734-6.556zM93.69 47.1l13.955-11.69-8.6 2.94z" fill="#fff"/><path d="M71.48 62.896h-9.813V60.96h9.132l.22-2.522h-9.352V56.5h9.353v-2.516H58.804v11.427H71.48zm15.85 0h-8.224v-8.91h-2.862v11.426h10.859zm22.61-8.086a2.54 2.54 0 0 0-1.058-.64q-.608-.186-1.566-.185H97.037v11.427H99.9v-3.424h7.417q.958-.002 1.566-.191a2.52 2.52 0 0 0 1.679-1.668q.18-.592.18-1.572V57.41q0-.976-.18-1.566a2.45 2.45 0 0 0-.622-1.034m-2.055 3.801q0 .495-.216.675c-.143.12-.418.18-.812.18H99.9V56.5h6.957c.394 0 .669.06.812.186q.216.171.216.675zm9.555 4.542h7.9l1.423 2.26h3.305l-7.47-11.464H120.2l-7.488 11.463h3.305zm3.956-6.323l2.45 3.92h-4.912zm14.134-2.66q-.61.19-1.04.64-.393.395-.598.98a3.9 3.9 0 0 0-.203 1.279v.687q-.001.68.203 1.273.205.591.598.986a2.4 2.4 0 0 0 1.04.633c.4.126.932.186 1.584.186h6.37c.4 0 .67.065.813.185.144.12.215.34.215.675v.34q0 .505-.215.676-.213.187-.813.186h-5.564q-.736-.002-1.016-.156-.268-.16-.358-.651l-2.857.34c.042.562.126 1.004.24 1.321.113.323.298.604.561.855q.448.429 1.058.615c.4.126.926.192 1.566.192h6.855c.645 0 1.177-.066 1.583-.192q.602-.186 1.034-.633c.263-.263.46-.592.604-.986.131-.395.203-.813.203-1.273v-.688c0-.454-.072-.878-.203-1.273a2.64 2.64 0 0 0-.604-.986 2.4 2.4 0 0 0-1.034-.633c-.406-.126-.938-.191-1.583-.191h-6.377q-.6 0-.813-.18-.215-.18-.215-.675v-.34q0-.502.215-.682.213-.18.813-.18h5.57c.49 0 .825.055 1.01.156q.27.151.358.652l2.863-.341c-.048-.562-.125-.998-.239-1.32a2.3 2.3 0 0 0-.568-.856 2.6 2.6 0 0 0-1.052-.621c-.406-.12-.932-.185-1.565-.185h-6.855c-.652 0-1.184.065-1.584.185m17.76 10.417q.44.447 1.052.634c.406.125.932.19 1.566.19h6.854q.958-.001 1.566-.19a2.5 2.5 0 0 0 1.058-.634c.293-.293.502-.645.622-1.04q.18-.6.179-1.578v-4.542q0-.977-.18-1.578a2.535 2.535 0 0 0-1.68-1.68q-.606-.185-1.565-.184h-6.854c-.634 0-1.16.06-1.566.185q-.612.19-1.052.64a2.4 2.4 0 0 0-.628 1.04q-.179.6-.179 1.577v4.542q0 .978.18 1.578c.119.395.328.747.627 1.04m2.056-7.225q0-.502.215-.682c.137-.12.412-.18.813-.18h5.928q.612.002.82.174c.137.114.208.34.208.687v4.674c0 .335-.071.556-.215.675-.143.126-.418.186-.813.186h-5.928c-.4 0-.675-.06-.813-.186-.143-.12-.215-.34-.215-.675z" fill="#faca05"/><path d="M204.35 45.217h-12.634l-30.163-24.228-10.895 2.253L112.499 0 74.334 23.242 63.445 20.99 33.276 45.217H20.648c0 13.549-7.805 20.565-20.648 20.565v50.393c12.843 0 20.362 8.044 20.577 17.427h.006v30.605c3.927.084 13.65 1.339 25.053 18.324 8.044 11.977 19.632 15.246 25.179 15.981v9.108c3.018-.275 11.821-1.147 19.979 6.078 10.363 9.186 17.433 9.186 21.706 9.186 4.267 0 11.337 0 21.706-9.186 8.158-7.225 16.961-6.353 19.973-6.078v-9.108c5.552-.735 17.134-4.004 25.185-15.981 11.403-16.985 21.121-18.24 25.053-18.324v-30.605c.221-9.383 7.734-17.427 20.583-17.427V65.782c-12.849 0-20.649-7.016-20.649-20.565m14.296 65.238c-11.361 1.554-20.326 11.295-20.583 23.045v25.776c-4.787 1.165-14.236 5.271-23.965 19.698-5.176 7.668-12.06 10.979-16.979 12.407-3.442 1.004-7.082 1.153-9.287 1.13v8.731c-4.082.215-10.967 1.62-17.84 7.704-8.564 7.59-13.644 7.584-17.493 7.584-3.85 0-8.935.006-17.5-7.584-6.866-6.084-13.751-7.489-17.833-7.704v-8.731c-2.206.023-5.845-.126-9.294-1.13-4.912-1.428-11.803-4.74-16.973-12.407-9.73-14.427-19.178-18.533-23.97-19.698V133.56l-.114-.06h.113c-.25-11.618-9.024-21.27-20.2-22.985-.131-.018-.257-.042-.382-.06V71.507c10.345-1.416 18.7-9.616 20.308-19.943h8.857l29.577-23.75 10.41 2.152 37-22.531 8.834 5.385L149.5 29.966l10.411-2.152 29.571 23.75h8.863c1.608 10.327 9.963 18.527 20.302 19.943z" fill="#73b3e6"/><path d="M109.16 116.582v-2.516H96.944v11.427h2.863v-4.04h9.126l.227-2.516h-9.353v-2.355zm8.06 1.13v-.269q0-.503.215-.681.214-.18.813-.18h5.57q.734.002 1.01.156.27.15.359.651l2.856-.34c-.042-.562-.125-1.004-.233-1.321a2.3 2.3 0 0 0-.568-.86 2.7 2.7 0 0 0-1.051-.616c-.407-.126-.933-.186-1.566-.186h-6.855c-.652 0-1.183.06-1.584.186-.406.125-.753.34-1.04.633q-.393.395-.597.986-.209.59-.21 1.28v5.258q.001.682.21 1.273.204.592.597.986a2.4 2.4 0 0 0 1.04.634c.4.125.932.191 1.584.191h6.855c.633 0 1.16-.066 1.566-.191q.602-.187 1.051-.616a2.3 2.3 0 0 0 .568-.854c.108-.323.191-.76.233-1.321l-2.856-.347c-.06.335-.18.55-.36.658q-.275.15-1.01.149h-5.57c-.4 0-.668-.06-.812-.18-.143-.119-.215-.34-.215-.675z" fill="#faca05"/><path d="M188.59 122.722c1.733-6.198 6.335-8.696 6.335-8.696h-45.702c20.726 3.138 39.367 8.696 39.367 8.696m-158.53-8.69s4.602 2.498 6.335 8.696c0 0 18.634-5.564 39.361-8.696z" fill="#73b3e6"/><path d="M135.53 100.798V78.655c0-3.885-2.857-6.7-6.79-6.7-3.938 0-6.788 2.815-6.788 6.7v22.143c0 3.885 2.85 6.7 6.789 6.7 3.932 0 6.789-2.815 6.789-6.7m-8.236.819v-23.78c0-.783.598-1.327 1.447-1.327.848 0 1.44.544 1.44 1.327v23.78c0 .777-.592 1.327-1.44 1.327-.849 0-1.447-.55-1.447-1.327M77.22 78.656v22.143c0 3.879 2.857 6.7 6.795 6.7 3.933 0 6.783-2.821 6.783-6.7V78.656c0-3.885-2.85-6.7-6.783-6.7-3.938 0-6.795 2.815-6.795 6.7m8.235-.819v23.78c0 .777-.591 1.327-1.44 1.327-.854 0-1.446-.55-1.446-1.327v-23.78c0-.783.592-1.327 1.446-1.327.849 0 1.44.544 1.44 1.327M44.74 107.498c3.933 0 6.79-2.82 6.79-6.7V78.655c0-3.884-2.857-6.7-6.79-6.7s-6.79 2.816-6.79 6.7v22.143c0 3.88 2.858 6.7 6.79 6.7m-1.446-29.661c0-.783.597-1.327 1.446-1.327s1.446.544 1.446 1.327v23.78c0 .777-.597 1.327-1.446 1.327s-1.446-.55-1.446-1.327zm94.926.813h.418c.293-.388 1.704-1.913 5.564-1.913h.078v23.506c0 4.81-1.177 6.155-1.59 6.478v.275h8.606v-.275c-.412-.323-1.59-1.668-1.59-6.479V76.738h.078c3.861 0 5.272 1.525 5.564 1.913h.419l-1.608-6.192h-14.33zm28.47-5.917v-.275h-8.612v.275c.418.323 1.596 1.661 1.596 6.473v21.036c0 4.812-1.178 6.156-1.596 6.479v.275h8.612v-.275c-.418-.323-1.596-1.668-1.596-6.479V79.207c0-4.812 1.178-6.15 1.596-6.473m38.09 28.07c-.353.37-2.038 1.913-5.935 1.913h-1.613V90.572h5.36v-4.279h-5.36v-9.556h1.255c3.896 0 5.582 1.536 5.934 1.913h.43l-1.607-6.192h-13.029v.275c.412.323 1.59 1.661 1.59 6.472v21.037c0 4.811-1.178 6.156-1.59 6.479v.275h13.387l1.602-6.192zm-170.1 0h-.43c-.353.37-2.038 1.913-5.935 1.913h-.7V79.206c0-4.812 1.184-6.15 1.597-6.473v-.275H20.6v.275c.412.323 1.595 1.661 1.595 6.473v21.036c0 4.812-1.183 6.156-1.595 6.479v.275h12.473zm71.7-12.939l-4.811-15.407h-5.75v.28c.383.324 1.47 1.668 1.47 6.467v21.037c0 4.805-1.087 6.15-1.47 6.473v.28h7.83v-.28c-.383-.323-1.464-1.662-1.47-6.443V86.467l3.818 12.222h.765l3.813-12.222v13.805c0 4.781-1.087 6.12-1.47 6.443v.28h7.83v-.28c-.383-.323-1.47-1.668-1.47-6.473V79.205c0-4.805 1.087-6.143 1.47-6.466v-.281h-5.75zm64.8-10.16l4.494 29.29h5.732l4.494-29.29c.574-3.514 1.405-4.632 1.763-4.96v-.287h-7.44v.287c.669.555.926 1.787.77 3.657l-2.45 20.774-2.456-20.768c-.156-1.876.101-3.107.77-3.663v-.287h-7.44v.287c.359.328 1.19 1.446 1.763 4.96M64.03 107.498c3.932 0 6.79-2.82 6.79-6.7v-.077c.167-3.915 1.2-5.062 1.565-5.343v-.275H65.47v6.514c0 .777-.591 1.327-1.44 1.327-.855 0-1.446-.55-1.446-1.327v-23.78c0-.783.591-1.327 1.446-1.327.849 0 1.44.544 1.44 1.327v6.514h6.915v-.274c-.365-.287-1.399-1.435-1.566-5.343v-.078c0-3.885-2.857-6.7-6.789-6.7-3.939 0-6.795 2.815-6.795 6.7v22.143c0 3.879 2.856 6.7 6.795 6.7" fill="#fff"/><path d="M130.18 101.611V77.837c0-.783-.592-1.327-1.44-1.327-.849 0-1.447.544-1.447 1.327v23.774c0 .783.598 1.333 1.447 1.333.848 0 1.44-.55 1.44-1.333M82.57 77.837v23.78c0 .777.592 1.327 1.44 1.327.855 0 1.447-.55 1.447-1.327v-23.78c0-.783-.592-1.327-1.447-1.327-.848 0-1.44.544-1.44 1.327m-37.83 25.107c.849 0 1.446-.55 1.446-1.327v-23.78c0-.783-.597-1.327-1.446-1.327s-1.446.544-1.446 1.327v23.78c0 .777.597 1.327 1.446 1.327m62.12-46.443h-6.957v2.964h6.957c.394 0 .67-.06.813-.179q.215-.181.215-.675v-1.25q0-.501-.215-.68c-.144-.12-.419-.18-.813-.18m14.54.329l-2.462 3.92h4.912zm34.97 6.066h5.929c.394 0 .669-.06.812-.185.144-.12.21-.34.21-.676v-4.673q.002-.519-.204-.687-.207-.173-.818-.174h-5.929q-.6-.001-.813.185-.215.172-.215.676v4.673c0 .335.072.556.215.676q.215.186.813.185" fill="#141e38"/><path d="M192.53 171.402v-.55h3.926v.55h-1.637v4.363h-.657v-4.363zm5.38-.55l1.548 4.13 1.554-4.13h.896v4.913h-.621v-4.088h-.013l-1.535 4.088h-.556l-1.536-4.088h-.012v4.088h-.622v-4.913z" fill="#73b3e6"/><path d="M180.9 144.562l-6.55 3.962v-18.909c-1.602-.496-3.257-.98-4.93-1.44v23.332l-7.089 4.291v-29.41a191 191 0 0 0-5.576-1.195v33.976l-8.217 4.966v-40.407c-2.044-.322-4.13-.615-6.216-.884v45.05l-9.34 5.653v-41.124h-6.862v45.271l-10.028 6.066v-51.337h-7.201v51.337l-10.022-6.066v-45.27h-6.867v41.123l-9.336-5.653v-45.05c-2.085.269-4.171.562-6.22.884v40.407l-8.213-4.966v-33.976c-1.918.382-3.795.783-5.576 1.195v29.41l-7.088-4.29v-23.333c-1.673.46-3.328.944-4.93 1.44v18.91l-6.556-3.963v-12.766a136.72 136.72 0 0 0-4.285 1.632v17.535l72.697 52.7 72.697-52.7v-17.535a138 138 0 0 0-4.291-1.632z" fill="#faca05"/></svg>