<svg viewBox="0 0 308.42 324" xmlns="http://www.w3.org/2000/svg"><path d="m14.952 217.281c.15.41.336.783.635 1.157 1.716 1.753 6.231 1.007 15.336-2.165 9.366-3.209 16.269-3.06 16.978.635-1.605-6.194-3.21-12.389-4.814-18.62-3.097 1.194-5.858 2.35-8.246 3.47-14.478 6.68-20.747 12.053-19.889 15.523" fill="#3a0a0c"/><path d="m18.497 220.229c-1.604 0-2.761-.411-3.508-1.194-.41-.448-.671-.97-.858-1.568-1.045-4.179 5.784-9.739 20.337-16.493 2.537-1.156 5.336-2.313 8.32-3.47.225-.076.486-.076.672.038.224.112.373.337.448.56 1.567 6.045 3.134 12.127 4.702 18.21a1 1 0 0 1 .112.41c.074.448-.187.895-.635 1.008-.447.111-.895-.187-1.007-.635-.037-.111-.075-.223-.075-.336-.186-.485-.485-.858-1.045-1.157-2.388-1.38-8.022-.82-14.739 1.493-6.157 2.09-10.112 3.134-12.724 3.134m-2.687-3.171c.075.336.187.56.411.783 1.68 1.754 8.246-.224 14.44-2.35 6.904-2.389 12.538-2.949 15.56-1.643-1.23-4.813-2.462-9.59-3.693-14.44-2.65 1.045-5.113 2.052-7.351 3.097-4.851 2.239-20.523 9.925-19.367 14.552" fill="#fff"/><path d="m276.115 216.274c9.105 3.171 13.62 3.917 15.299 2.164.336-.374.522-.746.634-1.157.895-3.47-5.373-8.844-19.851-15.523-2.388-1.12-5.15-2.276-8.247-3.47a12996 12996 0 0 1 -4.813 18.62c.709-3.694 7.612-3.844 16.978-.635" fill="#3a0a0c"/><path d="m288.503 220.229c-2.574 0-6.53-1.045-12.687-3.135-6.716-2.313-12.35-2.873-14.739-1.492-.56.298-.895.671-1.045 1.156 0 .112-.076.224-.111.337a.793.793 0 0 1 -.97.634c-.448-.112-.71-.56-.635-1.007 0-.112.039-.261.077-.411 1.604-6.082 3.171-12.165 4.739-18.21.038-.223.223-.448.41-.56a.94.94 0 0 1 .71-.038c2.984 1.157 5.783 2.314 8.32 3.47 14.553 6.754 21.381 12.314 20.3 16.493a3.3 3.3 0 0 1 -.858 1.53c-.747.82-1.866 1.232-3.508 1.232m-23.62-7.053c3.06 0 6.978.784 11.53 2.314 6.157 2.127 12.724 4.104 14.403 2.35.187-.223.337-.447.411-.783.336-1.156-.223-5.671-19.366-14.552-2.239-1.045-4.739-2.053-7.35-3.097-1.232 4.85-2.463 9.627-3.732 14.44 1.082-.448 2.463-.671 4.104-.671" fill="#fff"/><path d="m153.799 324c-.299 0-.56-.039-.821-.15-33.546-15.335-66.01-33.806-89.144-50.71-29.628-21.604-39.926-53.657-29.665-92.576l.634-2.426c4.926-18.88 9.59-36.754 12.463-48.21 7.053-28.172 6.717-34.44-13.769-58.36a1.97 1.97 0 0 1 -.186-2.238l25.597-43.36c.56-.857 1.605-1.193 2.538-.783 32.314 14.74 64.703 11.866 91.159-8.134.671-.523 1.641-.523 2.35 0 26.456 20 58.808 22.874 91.16 8.134.894-.41 2.014-.076 2.5.784l25.634 43.359a1.918 1.918 0 0 1 -.223 2.239c-20.486 23.918-20.822 30.187-13.732 58.36 2.91 11.716 7.836 30.634 13.135 50.635 10.186 38.919-.039 70.972-29.702 92.577-23.173 16.866-55.636 35.374-89.144 50.71-.262.111-.56.149-.784.149m-116.384-253.887c19.553 23.023 21.158 30.785 13.657 60.785-2.873 11.456-7.537 29.33-12.5 48.248l-.634 2.388c-9.814 37.277-.037 67.837 28.21 88.435 22.761 16.604 54.665 34.776 87.65 49.926 32.95-15.15 64.89-33.322 87.615-49.926 28.247-20.598 37.986-51.158 28.21-88.435-5.262-20-10.225-38.919-13.135-50.636-7.538-30-5.933-37.762 13.657-60.785l-23.993-40.635c-32.688 14.329-65.375 11.344-92.353-8.433-27.016 19.777-59.703 22.762-92.353 8.433" fill="#020505"/><path d="m46.072 69.404 18.359-31.045c.037 0 .074.038.112.038l-3.134-8.955-24.03 40.672 8.73-.671s0-.038-.037-.038" fill="#c29c1e"/><path d="m101.782 45.448c18.695 0 36.158-5.298 51.98-15.746v-8.657c-15.635 11.456-33.136 17.276-51.98 17.276-13.358 0-26.94-2.985-40.374-8.88l3.135 8.955c12.388 4.664 24.889 7.052 37.24 7.052m-63.248 133.846-.597 2.24c-9.814 37.277-.037 67.874 28.172 88.472 22.8 16.567 54.703 34.74 87.651 49.89v-7.837c-31.493-14.664-61.755-32.015-83.434-47.837-12.8-9.328-21.493-20.896-25.785-34.366-4.328-13.657-4.253-29.292.262-46.531l.597-2.239c4.962-18.956 9.664-36.867 12.537-48.471 7.687-30.598 6.082-41.233-11.828-63.173l-8.732.671c19.59 23.023 21.195 30.784 13.694 60.785-2.873 11.493-7.574 29.441-12.537 48.397" fill="#c29c1e"/><path d="m54.692 68.807 12.873-21.791-3.022-8.62c-.037 0-.075-.038-.112-.038l-18.359 31.046c.038 0 .038.039.038.039m55.71-16.905c18.582 0 36.008-4.85 51.941-14.403v-8.433c-15.82 10.448-33.247 15.746-51.941 15.746-12.388 0-24.889-2.388-37.277-7.052l3.022 8.62c11.381 3.694 22.837 5.522 34.255 5.522" fill="#a87a17"/><path d="m70.327 264.222c21.68 15.822 51.941 33.173 83.434 47.837v-7.836c-29.963-14.18-58.62-30.672-79.255-45.71-23.434-17.127-31.12-41.792-22.8-73.36l.598-2.239c4.963-18.993 9.664-36.94 12.575-48.545 7.761-31.009 6.343-44.143-10.187-65.562l-8.582.635c17.91 21.94 19.515 32.575 11.828 63.173-2.873 11.604-7.575 29.515-12.537 48.47l-.597 2.24c-4.515 17.24-4.59 32.874-.262 46.53 4.292 13.471 12.986 25.039 25.785 34.367" fill="#a87a17"/><path d="m270.145 70.114-23.993-40.674-3.172 8.955c.038 0 .076-.038.149-.038l18.358 31.045c-.038 0-.038.039-.038.039" fill="#c29c1e"/><path d="m242.98 38.396 3.134-8.955c-13.433 5.895-27.015 8.88-40.374 8.88-18.844 0-36.344-5.82-51.979-17.276v8.657c15.822 10.448 33.285 15.746 51.98 15.746 12.388 0 24.888-2.388 37.239-7.052m-5.747 225.826c-21.717 15.822-51.941 33.173-83.434 47.837v7.836c32.948-15.15 64.852-33.322 87.614-49.889 28.247-20.598 37.986-51.195 28.21-88.472l-.598-2.24c-4.963-18.955-9.702-36.903-12.537-48.396-7.538-30-5.933-37.762 13.657-60.785l-8.732-.671c-17.91 21.94-19.478 32.575-11.829 63.173 2.911 11.605 7.575 29.516 12.538 48.471l.597 2.239c4.552 17.24 4.627 32.874.298 46.53-4.291 13.471-12.985 25.039-25.784 34.367" fill="#c29c1e"/><path d="m261.488 69.404-18.359-31.045c-.076 0-.112.038-.149.038l-2.985 8.62 12.873 21.791 8.583.635s0-.039.038-.039" fill="#f8ca5c"/><path d="m239.995 47.016 2.985-8.62c-12.351 4.664-24.851 7.052-37.24 7.052-18.694 0-36.157-5.298-51.979-15.746v8.433c15.97 9.59 33.36 14.403 51.98 14.403 11.38 0 22.873-1.828 34.254-5.522" fill="#a87a17"/><path d="m233.017 258.514c-20.635 15.037-49.255 31.53-79.218 45.71v7.835c31.493-14.664 61.717-32.016 83.434-47.837 12.8-9.328 21.456-20.896 25.785-34.366 4.328-13.657 4.253-29.292-.298-46.531l-.597-2.24c-4.963-18.955-9.628-36.866-12.575-48.47-7.612-30.598-6.045-41.233 11.903-63.173l-8.582-.635c-16.53 21.419-17.949 34.553-10.224 65.524 2.947 11.642 7.649 29.59 12.612 48.583l.597 2.24c8.284 31.567.634 56.232-22.837 73.36" fill="#f8ca5c"/><path d="m101.782 52.762c-11.38 0-22.798-1.866-34.142-5.522l-12.873 21.68c16.715 21.604 17.985 34.477 10.185 65.559-3.022 12.128-8.209 31.792-13.172 50.823-8.283 31.493-.634 56.158 22.8 73.21 20.634 15.075 49.217 31.53 79.18 45.71 30.001-14.18 58.584-30.635 79.219-45.71 23.396-17.052 31.082-41.717 22.761-73.21-4.739-18.023-10.075-38.472-13.172-50.823-7.761-31.082-6.53-43.956 10.187-65.56l-12.799-21.68c-11.38 3.656-22.836 5.522-34.217 5.522-18.321 0-36.045-4.963-51.979-14.44-15.896 9.477-33.62 14.44-51.978 14.44" fill="#ab1e23"/><g fill="#e8232b"><path d="m244.86 143.319-87.288 3.806 89.289 3.918c-.647-2.509-1.425-5.467-2.001-7.724m-1.316-90.002-85.972 93.808 91.737-84.04z"/><path d="m218.217 51.932c-3.833.454-7.666.747-11.488.783l-49.157 94.41z"/><path d="m239.178 95.128-81.606 51.996 80.445-41.894c.017-3.552.46-6.869 1.161-10.103m.518 26.097-82.124 25.901 83.65-18.54a184.4 184.4 0 0 1 -1.526-7.36m-176.954 21.772c-.607 2.38-1.476 5.704-2.168 8.382l96.914-4.254zm94.83 4.17-43.112 136.627c3.715 2.104 7.545 4.182 11.404 6.254zm0 0-74.61 117.065c3.31 2.258 6.52 4.5 10.117 6.786zm0 0-100.805 92.311c2.05 3.416 4.487 6.656 7.305 9.711zm0 0 30.854 139.173c3.746-2.074 7.485-4.117 11.069-6.213zm0 0-6.814 155.559c1.015.487 1.989 1.015 3.008 1.497 3.533-1.67 6.941-3.45 10.425-5.177zm0 0 96.145 30.323c-.916-3.492-1.569-6.106-2.477-9.585zm0 0 101.322 64.535c.174-3.865.016-7.888-.447-12.034zm0 0 62.548 120.115a341 341 0 0 0 9.74-6.647zm0 0 89.54 97.712a56.8 56.8 0 0 0 6.143-10.018zm-49.255-94.619q-3.252.21-6.534.21c-1.488 0-2.975-.119-4.464-.182l60.253 94.55z"/><path d="m66.996 48.322-6.087 10.256 96.663 88.547zm68.369-1.33c-2.822 1.002-5.699 1.817-8.591 2.561l30.798 97.572z"/><path d="m153.766 38.317c-.308.183-.628.337-.937.518l4.743 108.29 4.548-104.386c-2.828-1.357-5.625-2.799-8.354-4.422m3.806 108.808-108.836 56.657c-.266 4.327-.18 8.505.28 12.51z"/><path d="m66.674 89.223c1.406 3.861 2.248 7.822 2.59 11.964l88.308 45.938zm90.898 57.902-101.742 22.557c-.993 3.8-1.671 6.468-2.687 10.355zm21.717-97.936-21.717 97.936 30.28-96.033c-2.878-.522-5.741-1.13-8.563-1.903m-111.075 69.769a157.726 157.726 0 0 1 -1.54 8.032l90.814 20.135h.042z"/></g><path d="m256.04 185.116-.077-.298c-4.701-17.911-10.037-38.247-13.134-50.524-4.217-17.015-5.373-27.164-4.03-36.232 1.343-9.366 5.448-17.799 14.18-29.068l.111-.186-12.91-21.829-.113-.186-.223.038c-11.344 3.694-22.762 5.522-34.068 5.522-18.135 0-36.046-4.962-51.867-14.403l-.15-.076-.111.076c-15.821 9.44-33.77 14.403-51.83 14.403-11.306 0-22.799-1.828-34.142-5.522l-.224-.038-12.986 22.015.075.187c8.731 11.269 12.873 19.702 14.254 29.067 1.306 9.068.15 19.217-4.105 36.233-2.985 12.015-8.097 31.418-13.022 50.187l-.15.635c-8.32 31.642-.597 56.381 22.911 73.546 20.411 14.888 49.33 31.568 79.219 45.71l.112.038.112-.038c29.926-14.142 58.807-30.784 79.293-45.71 23.508-17.165 31.194-41.904 22.873-73.546m-196.161-116.608 9.664-16.38c10.71 3.134 21.568 4.738 32.277 4.738 18.023 0 36.009-4.776 51.942-13.806 15.97 9.03 33.918 13.806 52.016 13.806 10.672 0 21.493-1.604 32.24-4.739l9.664 16.381c-16.456 22.202-16.68 36.83-9.18 66.868 3.098 12.388 8.47 32.762 13.172 50.784l.039.077c7.798 29.702.634 52.837-21.232 68.77-19.74 14.44-47.725 30.635-76.718 44.441-28.993-13.806-56.942-30-76.718-44.441-21.867-15.933-28.994-39.068-21.195-68.77l.15-.597c4.925-18.77 10.037-38.21 13.06-50.225 7.537-30.038 7.238-44.703-9.18-66.905" fill="#211e1e"/><path d="m76.819 255.379c19.889 14.478 47.837 30.672 76.942 44.553 29.143-13.881 57.091-30.075 77.017-44.553 21.978-16.083 29.18-39.367 21.344-69.256-4.74-18.022-10.112-38.47-13.21-50.822-7.537-30.112-7.313-44.478 9.292-66.755l-10-16.94c-10.784 3.208-21.68 4.813-32.427 4.813-18.097 0-36.045-4.776-52.016-13.844-15.933 9.068-33.881 13.844-51.941 13.844-10.784 0-21.68-1.605-32.5-4.814l-10.001 16.941c16.642 22.277 16.866 36.643 9.328 66.755-3.022 12.016-8.134 31.419-13.06 50.188l-.149.634c-7.836 29.889-.671 53.173 21.381 69.256m-17.575-68.248.15-.634.074-.261c4.888-18.695 9.963-38.024 12.948-50.001 7.612-30.337 7.575-45.636-8.396-67.912l7.165-12.128c10.187 2.762 20.485 4.142 30.635 4.142 17.985 0 35.896-4.59 51.941-13.284 16.045 8.695 33.956 13.284 52.016 13.284 10.113 0 20.411-1.38 30.598-4.142l7.165 12.128c-15.934 22.276-16.046 37.538-8.434 67.912 3.135 12.463 8.47 32.874 13.247 50.896 7.388 28.173.672 50.039-19.889 65.076-19.291 14.03-46.419 29.815-74.703 43.36-28.247-13.545-55.411-29.33-74.628-43.36-20.635-15.037-27.314-36.903-19.889-65.076" fill="#fff"/><path d="m165.292 109.405c28.694-7.09 46.195-36.12 39.105-64.815-7.127-28.694-36.12-46.195-64.852-39.105-28.695 7.127-46.196 36.12-39.068 64.815 7.09 28.695 36.12 46.232 64.814 39.105" fill="#ab1e23"/><path d="m152.381 114.928c4.627 0 9.291-.597 13.843-1.717 30.747-7.612 49.554-38.807 41.979-69.554-6.38-25.71-29.292-43.657-55.748-43.657v3.918-3.918c-4.627 0-9.29.56-13.806 1.679-30.784 7.612-49.59 38.807-41.979 69.591 6.344 25.672 29.292 43.658 55.71 43.658m-12.834-109.444c4.328-1.045 8.694-1.567 12.91-1.567 24.068 0 45.934 16.306 51.942 40.672 7.127 28.695-10.41 57.726-39.106 64.853a54.8 54.8 0 0 1 -12.91 1.567c-24.03 0-45.897-16.307-51.904-40.71-7.128-28.695 10.373-57.725 39.068-64.815" fill="#050505"/><path d="m125.776 88.024c-6.754 0-13.21-1.12-19.292-3.172 9.366 15.56 26.419 25.971 45.897 25.971 29.553 0 53.546-23.956 53.546-53.546 0-17.239-8.172-32.575-20.859-42.389a63.2 63.2 0 0 1 1.269 12.538c0 33.47-27.09 60.598-60.561 60.598" fill="#e8232b"/><path d="m307.537 161.574c.895-3.47-6.157-9.03-22.202-16.082-8.023-3.508-19.702-7.538-33.06-10.97-15.86-4.18-54.18-12.128-98.062-12.016-43.882-.112-82.204 7.836-98.062 12.015-13.359 3.433-25.038 7.463-33.06 10.97-16.047 7.053-23.099 12.613-22.204 16.083 4.926 19.068 9.851 38.098 14.814 57.166-.933-3.47 5.373-8.844 19.814-15.56 7.239-3.321 17.799-7.127 29.889-10.374 14.366-3.843 46.866-10.709 88.808-10.672 41.94-.038 74.479 6.829 88.808 10.672 12.127 3.247 22.65 7.053 29.888 10.374 14.478 6.716 20.71 12.09 19.852 15.56 4.925-19.068 9.85-38.098 14.776-57.166" fill="#30973d"/><path d="m293.541 218.923-1.605-.411c.82-3.134-6.418-8.582-19.366-14.59-7.836-3.582-18.657-7.35-29.777-10.336-11.978-3.209-44.702-10.672-88.584-10.635h-.186c-43.807 0-76.42 7.426-88.398 10.635-11.082 2.985-21.94 6.754-29.777 10.336-12.948 6.008-20.187 11.456-19.366 14.59l-1.604.41c-4.926-19.03-9.851-38.097-14.777-57.128-1.082-4.253 6.53-9.962 22.65-17.052 8.843-3.844 20.896-7.873 33.21-11.045 7.724-2.015 48.881-12.165 98.248-12.015 49.367-.15 90.525 10 98.249 12.052 12.276 3.135 24.403 7.164 33.172 11.008 16.157 7.09 23.77 12.799 22.687 17.015v.039zm-139.145-37.613c44.03 0 76.793 7.5 88.845 10.709 11.157 2.985 22.09 6.791 30 10.41 10.747 5 17.277 9.33 19.516 12.949l13.993-53.994c.298-1.194-.41-5.746-21.754-15.15-8.732-3.806-20.71-7.798-32.949-10.933-7.724-2.015-48.658-12.127-97.838-11.978-49.18-.111-90.114 9.963-97.838 11.978-12.202 3.135-24.254 7.127-32.948 10.933-21.344 9.404-22.016 13.956-21.755 15.15 4.665 17.986 9.329 36.008 13.993 53.994 2.239-3.62 8.769-7.948 19.516-12.948 7.91-3.62 18.843-7.426 30.038-10.411 12.015-3.209 44.814-10.71 88.808-10.71zm-19.441 81.382v2.202h-8.06v-2.202h3.06v-7.574l-2.351 1.119-1.045-1.53 3.396-2.425h2.686v10.41m17.725-5.336c0 5.374-2.388 7.799-5.597 7.799-.896 0-1.791-.186-2.65-.485l.597-1.903c.635.223 1.344.373 2.015.373 1.94 0 2.612-1.53 2.873-3.209-.746.41-1.567.709-2.612.709-1.977 0-3.694-1.343-3.694-4.254 0-2.724 1.829-4.366 4.515-4.366 2.836 0 4.553 2.053 4.553 5.336m-2.687.746v-.671c0-2.202-.522-3.284-1.94-3.284-1.082 0-1.866.709-1.866 2.127 0 1.343.41 2.388 1.866 2.388.746 0 1.268-.149 1.94-.56m17.687 2.762c0 2.127-1.194 4.291-4.888 4.291-1.53 0-2.65-.336-3.657-.783l.933-1.978c.821.336 1.605.523 2.5.523 1.717 0 2.35-.934 2.35-1.866 0-1.157-.447-2.015-2.611-2.015-.523 0-1.157.076-1.418.149l-.97-.746v-6.157h7.388l-.299 2.239h-4.403v2.537c.262-.038.485-.038.747-.038 2.612 0 4.328 1.306 4.328 3.844m15.672.709c0 2.276-1.716 3.582-4.739 3.582-2.948 0-4.739-1.269-4.739-3.433 0-1.268.597-2.35 2.65-3.32-1.083-.672-1.978-1.643-1.978-3.098 0-2.201 1.94-3.246 4.104-3.246 2.612 0 4.068 1.38 4.068 3.097 0 1.269-.97 2.164-2.127 2.836 1.79 1.007 2.761 1.94 2.761 3.582m-2.798.038c0-1.194-.747-1.53-2.351-2.313-1.232.708-1.567 1.455-1.567 2.09 0 .857.522 1.716 1.977 1.716s1.94-.82 1.94-1.493m-3.32-6.306c0 .634.373 1.231 1.679 1.903.783-.522 1.12-1.194 1.12-1.791 0-.858-.449-1.38-1.419-1.38-.933 0-1.38.522-1.38 1.268" fill="#fff"/><path d="m175.552 19.888s-3.73 2.542-4.925 3.624c-1.194 1.045-8.698 4.772-9.445 4.772s-5.56-1.647-7.612-2.393c-2.127-.746-3.125-.737-5.849-1.93-2.687-1.194-5.522-2.277-9.403-2.128-3.918.15-5.868 1.04-9.6 2.869-3.462 1.662-19.619 12.954-27.859 18.568-1.24 4.527-1.945 9.266-1.945 14.189 0 23.362 14.965 43.207 35.864 50.514l2-.056s.756-3.032.756-4.673-1.198-9.105-1.945-11.195c-.746-2.127-2.047-5.555-2.98-7.346-.896-1.791-6.166-8.997-6.017-9.445.186-.448 1.53-4.025 5.261-10.145 3.732-6.157 15.71-6.605 16.792-6.157 1.007.448 2.654 4.622 4.184 6.451 1.455 1.791 7.467 4.18 9.892 4.478 2.389.298 13.578 3.139 16.414 4.184 2.873 1.044 5.71 9.445 6.605 9.445s2.243-1.498 2.728-1.498c.41 0 2.202 1.19 3.582 1.19 1.344 0 3.573-1.04 4.17-2.085s-.177-4.067.756-5.71c.858-1.64 1.045-3.432 1.343-5.82s-2.546-3.433-3.89-4.478c-1.38-1.045-5.555-4.669-7.794-7.206s-6.567-10.182-8.507-14.51c-1.978-4.33-8.396-13.168-8.396-13.168l7.01 8.396-1.93-4.366s2.527 2.873 4.17 5.261a113 113 0 0 0 3.581 4.772s-3.092-6.866-3.428-8.06c-.261-1.232-4.925-6.311-4.925-6.311s1.795-1.488 2.392-2.533 2.533-6.758 2.533-6.758-2.206 1.94-2.84 2.574c-.56.56-4.618 4.488-3.723 3.89.896-.597 1.638-4.22 2.533-5.415.896-1.194.448-1.79.448-1.79" fill="#dcdcd9"/><g fill="#7f8282"><path d="m176.859 44.777s-1.53 3.955-3.396 1.492.224-9.216-4.515-7.91c-4.701 1.343-9.216 1.716-9.216 1.716s10.56-1.306 10.895 1.12c.374 2.462.97 8.097 3.77 7.724 2.872-.374 2.462-4.142 2.462-4.142"/><path d="m126.144 13.774s4.823 3.61 8.032 4.617c2.322.729 6.881 2.632 9.893 4.03-.446-.138-.814-.294-1.385-.406-4.03-.82-6.306-1.269-7.948-1.455-.71-.112-4.823-.374-10.047 0-2.91.223-7.24 1.637-9.851 2.645-1.116.43-2.802.755-4.338 1.021-.4.504-.78 1.02-1.161 1.54.341.011.48.055.91.055 5.186 0 9.44-.597 12.649 0 3.246.597 1.315.938 1.315.938s.336.293-2.687 1.301c-3.06 1.008-6.46 3.396-11.684 3.022-1.433-.112-2.51-.276-3.708-.433a53 53 0 0 0 -2.756 5.415c1.67.195 3.452.434 4.45.434h9.025s-1.787.816-6.003 1.413c-2.249.318-5.65 1.053-8.844 1.707-1.973 5.588-3.092 11.573-3.092 17.841 0 .7.071 1.378.098 2.071a593 593 0 0 1 2.169-3.708c1.38-2.426 4.823-7.65 6.24-9.068 1.419-1.417 4.441-2.798 5.822-3.806 1.418-1.007 6.642-3.838 9.29-5.443 2.613-1.604 5.407-3.806 8.019-5.037 2.612-1.194 8.839-3.4 10.48-3.624 1.605-.187 10.831-1.376 8.816-1.19-1.38.15 6.828.56 10.523.56.597 0 1.567.07 1.567.07s-4.445-5.07-9.67-6.675c-5.223-1.604-11.044-1.609-16.903-4.631-5.82-3.023-9.22-3.205-9.22-3.205"/><path d="m173.127 47.575s-1.94 2.09-3.134-.111c-1.231-2.202.97-5.224.97-5.224m4.329 30s-12.426-3.843-15.225-5.82c-2.835-2.016-3.992-3.62-5.485-5.934-2.127-3.283-6.007-5.224-6.007-5.224l.858 4.74s1.418 3.768 3.992 6.081c2.538 2.276 6.792 3.284 9.74 3.956 2.947.671 8.694 1.79 11.12 2.462s5.783 1.157 5.783 1.157"/><path d="m148.5 55.262s-12.836-.112-16.344 3.508c-3.47 3.62-6.716 10.336-7.91 12.463s-13.396 7.127-13.396 7.127 17.015 2.686 18.62 7.91c1.642 5.224 5.895 19.03 5.895 19.03s2.165.15 2.165-2.835c0-2.948-2.202-16.27-6.605-21.307-3.209-3.731-4.328-5.895-4.328-5.895s5.335-10 7.015-11.94c2.462-2.837 9.216-3.994 11.604-4.367 2.687-.41 4.105.858 4.105.858l2.687 1.642-1.344-4.291m21.941-28.694s2.388 2.164 3.396 2.873c1.044.709 2.239 2.948 2.836 4.067a24 24 0 0 1 1.417 3.097c.299.895 2.351 5.784 2.351 5.784s-5.037-6.194-5.709-7.015c-.709-.784-.97-1.232-.97-1.232l1.12 3.097s-3.135-3.694-4.366-5.186c-1.194-1.53-2.5-3.097-2.5-3.097s.783-.784 1.194-1.605c.41-.783 1.194-2.164 1.194-2.164m23.582 41.456s-4.29-.26-4.552 1.343c-.298 1.605 0 7.24 2.127 4.553s2.425-5.896 2.425-5.896m-7.127 13.545s-2.388-6.978-2.537-7.91c-.15-.934-.672-6.419-3.097-5.224-2.426 1.194-3.097 2.947-1.082 3.619s4.03 2.799 4.179 3.88c.15 1.083 2.537 5.635 2.537 5.635m-42.314-36.419c0 2.91-1.717 3.21-4.888 3.806-3.21.56-11.306 2.874-12.799 5.187-1.455 2.35-4.627 8.433-4.627 8.433s-2.612-8.134 5.523-12.202 11.007-4.067 12.761-5.485c1.754-1.455 4.03-8.134 5.187-9.888 1.194-1.717 8.992-4.627 8.992-4.627s-1.156 1.455-3.432 3.47c-2.351 2.052-6.717 8.433-6.717 11.306m-6.941-8.694s-11.865 3.508-14.515 5.821c-2.612 2.314-9.552 5.784-12.164 8.097-2.612 2.351-8.135 5.821-9.292 8.433-1.156 2.612-3.47 6.94-3.47 6.94s8.135-6.38 11.307-9.253c3.209-2.91 4.365-3.769 6.679-6.38 2.313-2.613 9.254-6.979 9.254-6.979s2.91-2.014 3.806-2.014c.858 0 8.395-4.665 8.395-4.665m48.024 24.292s-4.328-3.88-7.575-4.74c-3.246-.894-6.045-1.977-7.537-3.245-1.53-1.306-1.978-4.105-1.978-4.105s-1.306 4.739 1.306 6.045c2.575 1.306 7.761 2.388 9.702 3.657a103 103 0 0 1 3.918 2.798s2.164 4.105 2.35 3.247c.56-2.24-.186-3.657-.186-3.657"/><path d="m178.053 59.106s-2.164.223-4.329-.635c-2.164-.895-3.656-2.612-3.656-2.612l-1.12-2.164s-1.268 4.776 2.202 5.634c3.433.858 4.963 1.083 6.231.858 1.344-.223.672-1.082.672-1.082"/></g><path d="m82.379 216.572 1.194-1.94c1.232.783 2.388 1.156 3.582 1.156.747 0 1.306-.111 1.754-.336.41-.26.597-.597.597-1.082 0-.26-.074-.523-.186-.672-.15-.223-.374-.373-.747-.56-.336-.186-.82-.41-1.53-.67l-.447-.187c-.821-.336-1.493-.634-2.015-.933-.485-.298-.896-.672-1.194-1.157-.299-.448-.448-1.045-.448-1.754 0-.783.224-1.455.672-1.978.447-.522 1.044-.895 1.753-1.156a6.8 6.8 0 0 1 2.276-.374c.71 0 1.493.112 2.277.374.746.223 1.492.597 2.201 1.044l-1.269 1.903c-.634-.373-1.156-.634-1.641-.82a5.3 5.3 0 0 0 -1.568-.26c-.597 0-1.082.11-1.38.335-.299.224-.485.486-.485.82 0 .224.074.449.186.598.15.186.373.373.71.522.335.187.82.411 1.455.635l.447.149c.784.298 1.456.597 1.978.858.522.298.933.671 1.269 1.194.335.485.522 1.156.522 1.94 0 .858-.187 1.567-.634 2.127-.448.597-1.082 1.007-1.791 1.306q-1.176.447-2.575.448c-1.978 0-3.62-.523-4.963-1.53m20.523-11.381h2.724v12.612h-2.724v-5.224h-5.821v5.224h-2.724v-12.612h2.724v5.037h5.821m12.314-5.037 4.552 12.463v.149h-2.948l-1.007-3.022h-4.702l-.97 3.022h-2.91v-.149l4.552-12.463zm-3.359 7.388h3.172l-1.604-4.813m16.604 4.067c.374.336.672.671.821 1.045.187.41.262.82.262 1.231 0 1.194-.41 2.09-1.232 2.724-.858.672-2.015.97-3.545.97h-4.962v-12.575h4.59c1.007 0 1.865.112 2.574.411.672.26 1.231.634 1.567 1.157.336.485.485 1.082.485 1.754 0 .56-.112 1.082-.448 1.567-.335.448-.82.82-1.455 1.045.523.149 1.008.373 1.343.671m-5.97-4.44v2.948h1.53c1.455 0 2.164-.523 2.164-1.568 0-.448-.149-.783-.447-1.044-.336-.224-.784-.337-1.418-.337zm3.694 7.761c.373-.298.523-.671.523-1.157 0-.485-.15-.895-.523-1.156-.373-.298-.895-.448-1.604-.448h-2.09v3.209h1.978c.82 0 1.38-.15 1.716-.448m12.015-9.963 4.516 12.463v.149h-2.911l-1.045-3.022h-4.627l-1.007 3.022h-2.91v-.149l4.552-12.463zm-3.32 7.388h3.171l-1.604-4.813m16.605 4.067c.373.336.597.671.82 1.045q.225.615.224 1.231c0 1.194-.41 2.09-1.231 2.724-.82.672-2.015.97-3.582.97h-4.926v-12.575h4.627c.97 0 1.829.112 2.538.411.709.26 1.194.634 1.567 1.157.373.485.522 1.082.522 1.754 0 .56-.149 1.082-.485 1.567-.336.448-.82.82-1.455 1.045.56.149 1.007.373 1.38.671m-5.97-4.44v2.948h1.53c1.455 0 2.164-.523 2.164-1.568 0-.448-.149-.783-.485-1.044-.335-.224-.783-.337-1.418-.337zm3.657 7.761c.373-.298.523-.671.523-1.157 0-.485-.187-.895-.523-1.156-.336-.298-.895-.448-1.642-.448h-2.015v3.209h1.978c.784 0 1.38-.15 1.68-.448m16.679-9.963 4.552 12.463v.149h-2.948l-1.007-3.022h-4.665l-.97 3.022h-2.91v-.149l4.552-12.463zm-3.321 7.388h3.171l-1.604-4.813m10.634 7.686h5.784v2.351h-8.508v-12.612h2.724m14.254 0 4.515 12.463v.149h-2.91l-1.008-3.022h-4.664l-.97 3.022h-2.948v-.149l4.553-12.463zm-3.32 7.388h3.171l-1.604-4.813m16.455-2.575h2.724v12.612h-2.724v-5.224h-5.82v5.224h-2.725v-12.612h2.724v5.037h5.821m8.135 5.224h5.82v2.351h-8.47v-12.612h2.65m7.537 12.613h2.687v-12.613h-2.687zm-86.382 15.97c1.194.97 1.79 2.574 1.79 4.888 0 1.38-.335 2.575-.97 3.507-.596.934-1.455 1.642-2.537 2.09a8.7 8.7 0 0 1 -3.47.709h-4.105v-12.612h4.18c2.201 0 3.918.448 5.112 1.418m-3.06 8.47c.672-.224 1.157-.597 1.492-1.157.374-.597.523-1.38.523-2.425 0-1.008-.15-1.754-.485-2.314-.261-.597-.71-1.007-1.306-1.268-.597-.224-1.343-.374-2.276-.374h-1.493v7.873h.896c1.12 0 1.977-.111 2.649-.336m9.03 2.277c-.821-.485-1.38-1.12-1.791-1.94-.373-.783-.56-1.716-.56-2.761v-7.463h2.724v7.127c0 1.082.224 1.94.635 2.537.447.597 1.194.895 2.313.895 1.045 0 1.791-.298 2.202-.895.41-.597.634-1.38.634-2.35v-7.314h2.65v7.388c0 1.306-.225 2.35-.71 3.134-.522.821-1.156 1.418-2.015 1.792-.858.373-1.828.56-2.948.56-1.268 0-2.313-.224-3.134-.71m19.963-5.522c.373.298.672.634.821 1.045.187.373.299.783.299 1.194 0 1.194-.41 2.09-1.232 2.76-.858.635-2.052.934-3.582.934h-4.925v-12.575h4.59c1.007 0 1.828.112 2.537.41.671.262 1.23.672 1.567 1.158a3.13 3.13 0 0 1 .522 1.753c0 .56-.186 1.083-.485 1.568-.336.448-.783.82-1.455 1.082.522.149 1.007.373 1.343.671m-5.97-4.477v2.947h1.567c1.418 0 2.164-.522 2.164-1.53 0-.447-.186-.82-.485-1.044-.298-.261-.783-.374-1.38-.374zm3.731 7.761c.336-.26.523-.672.523-1.157s-.187-.858-.523-1.156c-.41-.298-.933-.411-1.642-.411h-2.09v3.171h1.979c.82 0 1.38-.149 1.753-.448m11.978-9.925 4.552 12.425v.15h-2.947l-1.008-2.986h-4.627l-1.007 2.985h-2.91v-.149l4.514-12.425zm-3.32 7.35h3.208l-1.642-4.776m8.023 10.038h2.687v-12.612h-2.688zm-99.368-66.121-.261-.076-.075.223c-.336.82-.671 1.605-1.007 2.388-1.194-.485-2.463-.97-3.694-1.455l-.224-.112-.112.261a150 150 0 0 0 -1.493 3.657l-.112.26.261.113c1.344.522 2.687 1.082 4.068 1.641l.224.112.112-.26a33 33 0 0 1 1.007-2.389 148 148 0 0 1 3.582 1.53l.224.112.112-.26 1.567-3.695.112-.26-.224-.113c-1.343-.56-2.724-1.119-4.067-1.679m32.165-24.737c-3.097-1.829-6.754-3.433-10.821-4.814l-.075-.038-.597.186v.15a629 629 0 0 0 -.895 3.88l-.075.224.261.076c.187.038.41.112.672.186.187.039.373.112.597.15a5.9 5.9 0 0 0 -1.082 2.014 5.65 5.65 0 0 0 -.299 2.687c.15.895.485 1.754 1.008 2.537-.597.077-1.194.15-1.791.261-.933.112-1.642.038-2.202-.26q-.784-.448-1.231-1.456c-.261-.709-.523-1.68-.71-2.873l-2.126-14.105-.709-.26-.075.038-4.253 1.79-.187.077 2.164 13.06c.075.448.15.895.15 1.38 0 .411 0 .784-.038 1.083-.709.448-1.903.895-3.62 1.455-1.753.56-3.656 1.045-5.67 1.53h-.187l-.038.038-.335.077.335.26a70 70 0 0 0 -.56 3.732l-.036.336h.298c2.276 0 3.993.15 4.888.448.747.224 1.194.523 1.306.783-.41.635-1.492 1.27-3.097 1.903-1.679.672-3.657 1.27-5.784 1.717-1.828.373-3.246.485-4.365.336-1.082-.149-1.94-.522-2.463-1.082-.56-.56-.97-1.343-1.194-2.35a6.2 6.2 0 0 1 -.15-1.27 21 21 0 0 1 -.074-1.679v-.186l-.784-.186-.112.038c-1.194.709-2.388 1.38-3.582 2.09l-.15.076v.15c-.074 1.604 0 2.947.3 4.066.335 1.418 1.044 2.612 2.164 3.545 1.044.895 2.5 1.493 4.29 1.754.598.112 1.27.15 1.941.15 1.306 0 2.724-.15 4.291-.486 2.612-.56 4.926-1.343 6.94-2.314 2.053-1.007 3.658-2.201 4.702-3.545 1.157-1.418 1.605-2.91 1.418-4.477-.112-.71-.485-1.344-1.045-1.866q1.512-.56 2.575-1.231c.747 1.044 1.68 1.828 2.761 2.276.784.336 1.68.522 2.65.522.336 0 .634-.038.97-.076l.336-.038c.709-.112 1.418-.187 2.127-.298 1.903-.261 3.582-.821 5-1.642 1.79.522 3.694.634 5.709.41 1.903-.223 3.32-.708 4.291-1.567.97-.895 1.418-2.09 1.231-3.62-.186-1.977-1.828-3.917-4.962-5.746m-2.127 5.3c.112-.486.149-.971.186-1.456 1.344.895 2.276 1.679 2.687 2.425-.112.039-.299.112-.523.15-.41.148-.858.223-1.306.26a10.73 10.73 0 0 1 -1.53.112c.224-.486.374-.97.486-1.493m-6.008-2.724c.037-.336.187-.597.299-.783s.26-.26.41-.26h.075c.112 0 .223.038.373.148.186.186.373.448.485.746.149.374.26.746.336 1.194.037.56.037 1.082-.075 1.567a4.7 4.7 0 0 1 -.41.97c-.896-.485-1.344-1.268-1.53-2.35-.037-.485-.037-.895.037-1.231m12.947-12.768c3.21-.374 5.56-.746 7.463-1.12l.261-.038-.447-2.91-.299.076c-.634.077-1.604.224-3.097.448-.41-.298-.671-.671-.709-1.082 0-.26.037-.448.224-.634.15-.15.41-.261.746-.298.485-.039 1.008.038 1.642.149l.261.076.075-.26c.15-.784.298-1.568.448-2.314l.074-.26-.261-.077c-1.12-.298-2.164-.411-3.023-.337-1.156.112-2.014.486-2.649 1.12-.597.671-.895 1.492-.783 2.463.037.41.186.82.373 1.194.112.26.26.448.41.671-.336.038-.746.077-1.269.15h-.298l.634 3.022" fill="#fff"/><path d="m131.112 153.474c1.268-2.389 1.865-4.926 1.753-7.538a29 29 0 0 0 -.447-3.396c-.262-1.343-.485-2.462-.784-3.433l-.037-.149-.597-.111-.075.038c-1.492.746-2.948 1.455-4.44 2.201l-.224.112.112.224c.261.709.522 1.679.783 2.873a25.39 25.39 0 0 1 .486 3.246c.074.895.112 1.829.112 2.687-2.165-1.717-4.889-3.545-8.135-5.485l-.112-.039-.522.224v.112a247 247 0 0 0 -1.045 4.403l-.075.223.187.077c1.343.597 2.761 1.343 4.291 2.201 1.38.82 2.687 1.642 3.843 2.5-.597.934-1.38 1.791-2.276 2.575-.97.82-2.127 1.642-3.433 2.463l-.112.076v.15c.038 1.454.038 2.872.075 4.29v.298l.298-.038c1.68-.149 3.396-.26 5.075-.41 2.761-.187 4.702-.747 5.858-1.68 1.157-1.007 1.717-2.35 1.642-4.067-.112-1.455-.82-3.023-2.201-4.627m-2.015 4.739q-.28.28-.896.448a9.3 9.3 0 0 1 -1.828.26c.82-.671 1.604-1.38 2.35-2.164.224.56.336 1.045.374 1.456m13.209-19.292v-.186l-.635-.298h-.112c-1.492.41-3.022.82-4.515 1.23l-.186.077.895 23.359.523.336.112-.038c1.38-.336 2.836-.634 4.254-.97l.224-.038-.038-.224c-.186-7.761-.336-15.523-.522-23.247m39.366 11.38c-.149 0-.298 0-.447-.039a243 243 0 0 0 -4.03 2.612c1.231 2.799 1.716 4.777 1.567 5.933-.746.15-1.866.261-3.396.298-1.492.077-3.097.039-4.776-.038-.671 0-1.343-.038-2.015-.076-2.5-.077-4.44-.298-5.933-.597-1.418-.298-2.463-.746-3.172-1.418-.671-.672-1.007-1.567-1.007-2.762.037-.857.15-1.828.373-2.873a.85.85 0 0 0 -.373-.186c-1.082.374-2.202.746-3.321 1.157-.224.746-.373 1.455-.522 2.127-.112.634-.15 1.343-.187 2.09 0 2.126 1.12 3.73 3.21 4.85 2.126 1.157 5.148 1.754 9.178 1.903.747.038 1.493.038 2.24.077 2.35.111 4.477.076 6.38-.077 1.866-.149 3.284-.448 4.142-.858.97-.485 1.716-1.194 2.313-2.164q.895-1.456 1.008-3.022c.037-.858 0-1.866-.224-3.097-.187-1.232-.522-2.5-1.008-3.844m-16.978 18.847c1.27.895 2.5 1.829 3.732 2.762.82-1.157 1.679-2.277 2.5-3.396-1.231-.895-2.463-1.791-3.732-2.687-.82 1.12-1.641 2.202-2.5 3.321m37.315 2.575c1.156 1.045 2.313 2.052 3.433 3.097.933-1.007 1.903-2.052 2.836-3.097-1.12-1.007-2.277-2.052-3.433-3.06zm36.269-22.314c-1.082-1.082-2.239-2.127-3.395-3.172-1.008.896-2.053 1.792-3.023 2.687a135 135 0 0 1 3.358 3.246 203 203 0 0 1 3.06-2.76m5.747 10.447c-.039 0-.112-.038-.187-.076-1.53.597-3.022 1.194-4.552 1.79.709 2.762.933 4.665.671 5.747-.038.15-.076.261-.111.298-.82.15-1.94.039-3.433-.298a13.4 13.4 0 0 1 -2.687-.933c.709-.933 1.53-2.276 2.575-4.105-.077-.038-.077-.111-.112-.149a205 205 0 0 0 -4.776-.26c-.224.448-.485.933-.709 1.418-.634 1.343-1.007 2.09-1.231 2.239-.337.149-.784.186-1.38.076a12 12 0 0 1 -1.792-.523 12.5 12.5 0 0 1 -1.717-.746c.486-.708 1.307-2.052 2.463-3.955-.038-.038-.112-.076-.149-.149a220.377 220.377 0 0 0 -5.075-.186c-.26.746-.522 1.492-.857 2.201q-.392 1.064-.672 1.455c-.373.077-.895.112-1.492.077-.635-.038-1.493-.15-2.612-.336-.97-.15-1.94-.337-2.91-.486-1.605-.223-2.911-.671-4.068-1.268.485-.635.895-1.381 1.306-2.165.373-.82.82-1.828 1.268-2.947-.076-.112-.223-.224-.298-.298-1.679.076-3.32.186-4.962.336-.746 2.239-1.381 3.806-1.903 4.627-.486.26-1.456.26-2.948.112a53 53 0 0 0 -.672-.112l-2.91-.336c-1.008-.112-1.94-.224-2.91-.337-.934-.111-1.68-.26-2.165-.522-.485-.224-.82-.56-1.008-1.045-.223-.448-.298-1.082-.223-1.866.522-5.448 1.082-10.895 1.642-16.38-.15-.077-.224-.15-.374-.261-1.53.223-3.022.448-4.552.671a2270 2270 0 0 1 -1.38 15.859c-.187 2.425.26 4.29 1.343 5.522 1.082 1.231 2.835 1.978 5.224 2.239.97.112 1.94.186 2.947.298.97.112 1.903.224 2.874.336.223.039.485.077.708.112 2.388.298 4.403 0 5.97-.895.635.597 1.456 1.12 2.5 1.567q1.512.672 2.911.895l2.91.448c1.643.298 3.023.41 4.143.374 1.082-.077 2.052-.298 2.835-.672.597.523 1.381 1.045 2.277 1.493.933.448 1.903.82 2.947 1.007 1.418.261 2.612.187 3.62-.223 1.306.895 2.799 1.53 4.515 1.903 1.567.336 2.948.41 4.217.26 1.268-.186 2.35-.634 3.209-1.38.895-.746 1.53-1.754 1.828-3.06.448-1.791.448-4.254-.076-7.388" fill="#fff"/><path d="m234.398 154.593c1.044 1.045 2.09 2.09 3.171 3.134 1.008-.933 2.053-1.828 3.06-2.724-1.045-1.082-2.202-2.164-3.284-3.209-.708.635-1.492 1.269-2.201 1.903-1.082-1.007-2.09-2.015-3.172-3.022a105 105 0 0 0 -3.06 2.724 135 135 0 0 1 3.321 3.209c.746-.672 1.418-1.343 2.165-2.015" fill="#fff"/></svg>