<svg viewBox="0 0 76.29 91.71" xmlns="http://www.w3.org/2000/svg" xmlns:xlink="http://www.w3.org/1999/xlink"><clipPath id="a"><path d="m0 793.701h1122.52v-793.701h-1122.52z"/></clipPath><clipPath id="b"><path d="m-40.817-105.37h87.732v105.466h-87.732z"/></clipPath><g clip-path="url(#a)" transform="matrix(.6522 0 0 .6522 -87.028 -83.301)"><path clip-path="url(#b)" d="m0 0c1.643-.004 3.279.124 4.92.091 1.233-.088 2.478-.058 3.711-.113 9.061-.331 18.141-1.573 26.793-4.356 1.334-.433 2.662-.9 3.968-1.431.771-.323 1.616-.587 2.178-1.239.679-.774.81-1.833 1.101-2.782 1.228-4.172 2.243-8.406 2.958-12.698.6-3.618.978-7.272 1.135-10.938.083-1.062.029-2.13.124-3.189.083-1.379-.048-2.749-.075-4.126-.242-6.369-1.455-12.698-3.516-18.728-2.336-6.83-5.754-13.27-9.941-19.136-.091.342-.205.676-.299 1.018q.466.324.917.672c-.382.021-.766-.017-1.143.05-.193.379-.304.793-.443 1.191-.172-.377-.282-.782-.383-1.188a12 12 0 0 0 -.825-.047c1.184 1.733 2.349 3.483 3.392 5.305a67.5 67.5 0 0 1 7.066 17.309c.883 3.455 1.454 6.989 1.79 10.539.318 3.298.34 6.619.14 9.924-.467 7.439-1.918 14.804-4.128 21.918-.203.615-.295 1.322-.819 1.765-.876.771-2.047 1.019-3.117 1.411-8.417 3.105-17.382 4.486-26.32 4.864-6.614.256-13.248.012-19.824-.698-4.085-.463-8.141-1.133-12.13-2.117-3.222-.799-6.394-1.824-9.43-3.178-.422-.184-.728-.558-.907-.974-.255-.575-.354-1.202-.527-1.8-2.219-7.4-3.743-15.047-4.007-22.783-.168-4.198.165-8.404.763-12.563a66.8 66.8 0 0 1 3.339-13.051c2.07-5.61 4.916-10.927 8.358-15.814-.278-.006-.55-.01-.83-.012-.15.404-.296.808-.47 1.201a13 13 0 0 1 -.328-1.195c-.398-.053-.8-.057-1.199-.067.288-.237.583-.466.877-.696a16 16 0 0 1 -.285-1.115c.337.212.65.463 1.004.635.359-.169.67-.409 1.01-.605-.108.381-.237.753-.36 1.132.242.177.479.35.723.52 3.999-5.663 8.897-10.653 14.248-15.04a103 103 0 0 1 10.031-7.219c.987-.582 1.846-1.364 2.884-1.864.412-.177.903-.368 1.33-.146 8.084 4.684 15.587 10.451 21.934 17.324 2.009 2.192 3.909 4.486 5.638 6.907q.332-.259.653-.531c-.111-.37-.216-.741-.324-1.109.347.21.688.435 1.04.644.276-.212.631-.332.851-.61l.008-.057c-5.351-7.43-11.91-13.975-19.225-19.481a107 107 0 0 0 -7.566-5.19c-.775-.495-1.578-.944-2.332-1.475-.442-.296-1.015-.59-1.542-.33-.577.285-1.113.655-1.67.978-4.69 2.862-9.202 6.027-13.423 9.553-5.229 4.391-10.042 9.312-14.109 14.807-7.524 10.204-12.273 22.415-13.681 35.011.202-.25.731-.392.613-.791-.067-.302-.167-.594-.25-.894.32.184.608.403.933.569.116.078.231-.019.332-.074.262-.162.517-.336.782-.497-.118.379-.238.758-.348 1.141.312.227.62.451.922.691-.39.014-.773.014-1.163.017-.149.402-.287.808-.445 1.206-.152-.39-.26-.798-.379-1.201-.341-.005-.678-.005-1.016-.022a65 65 0 0 0 -.421 5.595 50 50 0 0 0 -.025 5.227c.288 8.645 1.976 17.203 4.536 25.452.158.482.206 1.008.478 1.45.162.279.473.408.754.537 5.635 2.531 11.683 4.034 17.767 5.004 5.702.883 11.464 1.326 17.224 1.512" fill="#2e3092" transform="matrix(1.33333 0 0 -1.33333 187.86 127.852)"/></g><path d="m26.24 4.094a118.13 118.13 0 0 1 17.238-.607c7.773.329 15.57 1.53 22.889 4.23.93.34 1.949.557 2.71 1.227.456.385.536 1 .712 1.535 1.922 6.186 3.184 12.59 3.59 19.059.174 2.875.155 5.762-.121 8.63-.293 3.087-.79 6.16-1.557 9.166a58.698 58.698 0 0 1 -6.145 15.052c-.907 1.583-1.92 3.105-2.948 4.612.236-.003.479-.02.716-.04.088-.354.184-.705.333-1.034.122.346.218.706.385 1.037.328.057.662.025.993.042q-.39.303-.796.586c.082.296.18.587.26.884l-.089.13-.007-.049c-.191-.24-.5-.345-.74-.53-.306.181-.602.378-.904.56.094-.32.185-.643.282-.964q-.28-.237-.57-.463c-1.502 2.106-3.154 4.1-4.901 6.008-5.52 5.976-12.044 10.99-19.074 15.065-.371.192-.798.026-1.156-.128-.902-.435-1.65-1.114-2.508-1.621a89.569 89.569 0 0 1 -8.723-6.277c-4.654-3.815-8.913-8.155-12.391-13.079-.212.147-.418.298-.628.452.107.33.219.653.313.985-.296-.17-.566-.38-.878-.527-.308.15-.581.369-.873.553.067-.328.156-.649.247-.97-.255-.2-.512-.399-.762-.606.346-.009.696-.011 1.042-.058q.118-.525.286-1.04c.15.343.277.694.408 1.046q.363-.003.722-.011c-2.993-4.25-5.468-8.874-7.268-13.752a58.002 58.002 0 0 1 -2.904-11.35c-.52-3.615-.81-7.273-.663-10.924.23-6.727 1.555-13.377 3.484-19.811.15-.521.237-1.066.458-1.566.156-.362.422-.687.79-.847 2.64-1.178 5.398-2.068 8.2-2.764 3.47-.856 6.996-1.438 10.548-1.841" fill="#fff200"/><path d="m22.405 6.635a101.743 101.743 0 0 1 17.012-1.275c7.439.054 14.894.96 22.068 2.966 1.991.564 3.948 1.248 5.822 2.125.24.12.544.223.638.503a79.134 79.134 0 0 1 1.824 6.437c.653 2.736 1.385 5.48 1.488 8.305.02.35-.336.548-.603.691-.605.253-1.287.092-1.906-.005-10.898-1.708-21.935-2.338-32.95-2.335-.007 10.03-.006 20.064-.007 30.096 0 8.846.063 17.692-.008 26.536.003 1.46-.062 2.915-.066 4.372-1.058-.599-2.083-1.26-3.099-1.925-.428-.278-.998-.501-1.154-1.031-.052-.704.007-1.411-.004-2.117-.013-13.763.004-27.522-.011-41.283-.032-4.854-.22-9.711.067-14.561-1.519-.002-3.025.223-4.541.218-.041.62.014 1.237.014 1.855-.006 9.867 0 19.73-.002 29.593-.004 4.63-.01 9.256.028 13.885.06 3.059.018 6.12-.067 9.178-1.401-1.037-2.659-2.251-3.939-3.427-.305-.258-.53-.63-.507-1.037.003-16.578-.002-33.155 0-49.735-1.516.061-3.022.26-4.534.37-.016 1.734.009 3.464-.011 5.198-.035.666-.027 1.335.005 2 .065 4.948.02 9.893.002 14.84-.065 2.677-.02 5.354-.029 8.031.055 4.015.029 8.03.03 12.045.01.959-.032 1.918-.04 2.876-1.198-1.393-2.305-2.863-3.37-4.359-.394-.554-.985-1.038-1.084-1.744 0-12.795.003-25.592-.003-38.388-1.282.174-2.56.35-3.84.506a2.348 2.348 0 0 0 -.626.143c.029 3.792.002 7.588.01 11.383.007 2.12-.018 4.244.049 6.368.029 3.901.071 7.806-.09 11.703-1.521-3.08-2.528-6.392-3.255-9.742a58.872 58.872 0 0 1 -1.27-13.608c.108-5.673 1.068-11.304 2.5-16.789q.538-2.029 1.171-4.036c.09-.279.154-.595.401-.788.453-.37 1.033-.513 1.564-.738 3.937-1.646 8.118-2.628 12.323-3.3" fill="#2e3092"/><path d="m31.481 6.346c1.712-.123 3.43-.086 5.146-.134 6.757-.145 13.549.403 20.158 1.847 3.188.694 6.342 1.574 9.343 2.87.296.14.637.207.899.417.337.345.462.827.592 1.279.371 1.635.9 3.23 1.32 4.854.71 2.672 1.323 5.391 1.429 8.16-1.012.088-2.012-.138-3.004-.315-5.79-.88-11.628-1.393-17.474-1.728-4.008-.25-8.022-.358-12.04-.368-1.806.057-3.612.021-5.418.101a208.704 208.704 0 0 0 -26.582 2.428c.12-3.432 1.07-6.757 1.967-10.051.347-1.159.43-2.388.91-3.508.18-.427.463-.834.88-1.062 1.363-.794 2.9-1.207 4.398-1.661 5.664-1.77 11.554-2.798 17.476-3.129" fill="#fff"/><path d="m5.288 7.377c.091-.343.149-.706.34-1.013.117.34.24.676.362 1.016.337.008.673.007 1.009.023-.247.202-.515.377-.763.575.01.34.184.675.27 1.011a27.328 27.328 0 0 1 -.878-.562c-.303.183-.602.374-.904.562.094-.322.185-.647.281-.971q-.379-.308-.759-.62c.347-.011.692-.011 1.042-.021m65.123-.977c.125.363.25.72.393 1.076.334-.001.664-.001.998.015a11.305 11.305 0 0 1 -.787.574c.066.346.19.672.277 1.007a67.68 67.68 0 0 1 -.871-.558c-.3.194-.598.377-.898.566.085-.315.198-.62.26-.936-.175-.272-.502-.43-.736-.658.342-.011.687-.013 1.033-.016.098-.36.196-.72.331-1.07" fill="#fff200"/><path d="m38.74 24.446c1.596-.058 3.188.1 4.782.089 1.397.04 2.797.114 4.191.181.815.067 1.63.028 2.441.104 3.61.288 7.222.547 10.816.963 2.22.248 4.435.532 6.643.867 1.108.195 2.241.35 3.365.212.324 2.064.462 4.156.437 6.243.12 5.963-.816 11.94-2.694 17.599-.662 1.967-1.376 3.925-2.376 5.75-4 .026-7.997.005-11.997.018-5.228-.006-10.463.017-15.693-.015.006-4.556.002-9.108.032-13.664.002-4.593.012-9.19.02-13.785-.009-1.522.049-3.042.033-4.562" fill="#fff"/><path d="m46.973 29.247c1.444-.371 3.067-.212 4.325.62.208.117.433.324.68.187.74-.322 1.528-.6 2.35-.52a3.626 3.626 0 0 1 2.423 1.096c-.856.03-1.814.048-2.501.639.798.209 1.597.436 2.328.83a4.783 4.783 0 0 1 2.214 2.572 7.479 7.479 0 0 1 .428 2.779c-.44-.817-.923-1.644-1.662-2.228-.381-.315-.838-.528-1.299-.7.295.742.643 1.464.842 2.244.325 1.176.321 2.459-.132 3.603-.78-1.657-1.408-3.424-2.595-4.848-.591-.75-1.47-1.393-2.472-1.323a3.478 3.478 0 0 0 -.98.18c-2.455.895-4.634 2.454-6.403 4.37.31-2.28 1.715-4.203 3.2-5.88-1.918.071-3.668 1.02-5.168 2.155a8.218 8.218 0 0 1 3.194-3.532c.632-.382 1.327-.677 2.057-.802.548-.107 1.11-.077 1.663-.09-.62-.756-1.558-1.155-2.492-1.352" fill="#2e3092"/><path d="m50.921 34.376a3.61 3.61 0 0 1 .98-.178c-.183.945-.478 1.87-.617 2.823-.301 2.025-.467 4.085-.24 6.126.046.772.046 1.562.287 2.304.854.08 1.73-.062 2.555.218l.053.01c.365.087.739.158 1.113.076a8.261 8.261 0 0 0 1.154.131c.033-.15.07-.3.118-.448.038.218-.113.588.209.62.577.155 1.176.427 1.777.242.95-.32 1.948-.42 2.937-.557.867-.083 1.74-.041 2.614-.044l.171.007c.204.037.408.078.612.074 1.157-.04 2.288.22 3.42.418-.115.347-.208.712-.42 1.012a21.925 21.925 0 0 0 -5.8-.44c-3.4.187-6.58 1.688-9.33 3.616-.19.1-.207.321-.246.506-.324.044-.657.073-.982.032-.224-.025-.384-.202-.551-.33-1.215-1.01-2.43-2.064-3.31-3.39-.343-.001-.69.02-1.012.15-.865.338-1.733.678-2.562 1.1-.577.286-1.116.66-1.727.877 1.278-1.368 2.916-2.379 4.684-2.995-.488-1.34-1.028-2.714-1.004-4.163.201-.051.4-.101.604-.143.155 1.378.61 2.71 1.213 3.954.89-.136 1.756-.414 2.66-.426-.067-.659-.177-1.316-.177-1.978.02-1.049-.157-2.097-.047-3.144.082-.668.021-1.34.072-2.01.082-.972.313-1.921.455-2.885.054-.405.208-.782.337-1.165m9.037 2.623q.14.037.29.071c.028.973.01 1.943.01 2.915-.114-.008-.231-.023-.34-.035.011-.981-.054-1.97.04-2.951m-58.638 2.003c.103-.35.198-.704.33-1.044.137.346.257.7.387 1.048.339.003.672.003 1.01.015-.262.209-.53.404-.802.601.097.334.201.663.304.992-.232-.14-.452-.29-.68-.431-.087-.049-.188-.132-.289-.064-.282.144-.533.334-.811.493.072-.26.159-.513.217-.777.103-.347-.357-.47-.533-.688l-.142-.118.125-.008c.294-.015.587-.015.884-.019m72.983 0c.11-.346.175-.71.349-1.033.118.35.24.693.37 1.037.283.004.567.006.854-.002-.013.324-.459.391-.639.624.078.333.196.658.295.984-.266-.153-.51-.33-.773-.484-.107-.085-.225-.007-.314.05-.232.144-.459.294-.692.434.09-.323.186-.648.28-.97l-.767-.623c.343-.01.688-.01 1.037-.017" fill="#fff200"/><path d="m57.77 38.344c.092.015.18.027.27.044q.162.933.285 1.876a13.044 13.044 0 0 0 -.33.05c-.126-.652-.23-1.306-.225-1.97m5.053.201c.109-.002.216-.005.328-.005-.173.608-.441 1.178-.676 1.76q-.14.014-.282.024c.079-.634.379-1.202.63-1.779" fill="#fff200"/><path d="m46.248 39.504c.46-.157.966-.092 1.426.037-.374.18-.753.374-1.037.681.668.025 1.39-.014 1.977.364.605.374.952 1.035 1.198 1.684-.5-.427-1.066-.832-1.739-.879.613.732 1.153 1.609 1.148 2.601-.738-.683-1.319-1.569-2.249-2.016-.48-.234-1.058-.07-1.441.28-.948.703-1.584 1.714-2.219 2.687-.122-1.04.309-2.02.632-2.984-.798.302-1.441.886-1.967 1.543.162-1.274 1.042-2.463 2.29-2.84-.34-.271-.798-.237-1.205-.275.412-.208.863-.348 1.326-.356.324-.024.652.042.976.008.304-.162.55-.426.884-.535" fill="#2e3092"/><path d="m54.503 40.337q.083-.173.173-.343c.385.438.757.89 1.138 1.327l-.333.176c-.338-.376-.654-.775-.978-1.16m10.085.663c.225-.31.495-.586.73-.89l.37.135c-.393.45-.737.945-1.175 1.358.001-.202-.066-.436.075-.603" fill="#fff200"/><path d="m59.251 40.625c.143-.138.29-.314.504-.314.33-.009.739-.091.983.194a12.696 12.696 0 0 0 1.51 1.325c-.222.343-.433.692-.646 1.04a4.574 4.574 0 0 0 -3.02-.01q-.341-.515-.65-1.047c.457-.373.918-.751 1.319-1.188" fill="#2e3092"/><path d="m55.174 42.706c.867-1.39 2.47-2.27 4.1-2.337-.408.64-1.016 1.113-1.664 1.493a5.244 5.244 0 0 1 -2.436.844m5.79-2.3c1.562.076 3.044.93 3.931 2.21-.742.025-1.442-.268-2.081-.618-.72-.392-1.401-.895-1.85-1.592" fill="#2e3092"/><path d="m55.698 42.368c.793-.834 1.807-1.531 2.974-1.662-.803.823-1.84 1.434-2.974 1.662m5.82-1.658c1.077.203 2.064.78 2.815 1.577-1.089-.178-2.05-.807-2.815-1.577" fill="#fff"/><path d="m54.956 42.957c.75-.135 1.455-.445 2.184-.655.218.343.442.68.61 1.048-.684.52-1.163 1.272-1.426 2.088a4.348 4.348 0 0 0 -.118.447 7.826 7.826 0 0 1 -1.154-.13l-.126-.03c-.056-.458-.067-.924-.198-1.37-.06-.281-.166-.576-.078-.861.077-.192.196-.363.306-.537m7.46.375c.217-.333.363-.724.636-1.014.707.228 1.402.497 2.136.644.139.256.367.493.395.788-.113.652-.283 1.292-.36 1.95q-.595-.006-1.19.006l-.172-.007c-.155-.944-.762-1.73-1.445-2.367" fill="#2e3092"/><path d="m52.781 42.385c.52.166 1.002.447 1.44.771-.153.077-.33.209-.503.106-.386-.187-.868-.39-.937-.877m13.257.688a4.06 4.06 0 0 1 1.283-.684c-.117.594-.78.874-1.324.941z" fill="#fff200"/><path d="m53.886 45.669c-.015-.632.145-1.298.56-1.792.178.54.32 1.102.318 1.674l-.074-.013-.11-.052c-.104-.32-.157-.655-.238-.98-.157.378-.132.863-.402 1.175zm11.584-.425a4.94 4.94 0 0 1 .294-1.235c.404.52.488 1.189.58 1.821l-.257-.073c-.073-.367-.135-.736-.227-1.095-.122.323-.127.67-.205 1.004l-.126.002c-.112-.117-.07-.28-.059-.424" fill="#2e3092"/><path d="m51.487 46.411c.603.009 1.217-.038 1.815.049.94.137 1.902.23 2.805.554-.27.48-.792.713-1.209 1.041-.955.673-1.817 1.459-2.687 2.238-.324-1.275-.693-2.558-.724-3.882m-3.26.392c.744-.089 1.476-.269 2.23-.308.174 1.205.518 2.372.718 3.572-.562-.51-1.151-.998-1.66-1.562-.471-.534-1.01-1.033-1.288-1.702" fill="#fff"/><path d="m38.7 57.744c9.01-.01 18.023-.007 27.036 0-1.101 2.364-2.492 4.578-3.85 6.797-1.217 1.767-2.48 3.51-3.89 5.129-.742.8-1.45 1.635-2.194 2.435-.718.82-1.546 1.537-2.273 2.347-.424.531-.965.953-1.453 1.427a57.394 57.394 0 0 1 -2.509 2.19c-.78.586-1.547 1.196-2.312 1.803-.92.742-1.922 1.384-2.845 2.127-1.486 1.049-3.015 2.047-4.625 2.908-.363.2-.727.409-1.082.629-.01-9.265-.003-18.527-.003-27.792" fill="#2e3092"/><path d="m37.965 89.472a8.85 8.85 0 0 1 .322-1.042c.133.34.258.685.368 1.035.344.022.683.013 1.03.022l-.093.082c-.22.193-.484.33-.685.536.045.33.19.64.256.969-.302-.16-.562-.396-.88-.525-.296.156-.574.361-.864.534.071-.33.183-.647.26-.975a33.29 33.29 0 0 1 -.653-.525l-.038-.101q.487-.001.977-.01" fill="#fff200"/><g fill="#ed1e25"><path d="m14.07 18.337.846-.276.277.853-.846.273zm-1.203.389.847-.273.276.853-.849.274zm-2.124-3.74.849-.274.75 2.319c.114.231.204.257.464.173l1.231-.4c.255-.084.313-.154.27-.409l-.079-.24-.853.274-.274-.846 1.748-.565.274.845-.05.015.044.137c.264.81-.05 1.409-.884 1.678l-1.07.346c-.83.271-1.438-.027-1.702-.839z"/><path d="m20.009 13.737-.245-1.031c-.088-.357-.285-.496-.602-.42l-1.489.361.372 1.563zm-2.725-3.396.866-.208.21.864-.87.209zm-2.514 4.659 1.048-.253-.344-1.408.88-.212.342 1.41.487-.118-.586-2.428 2.326-.56c.815-.198 1.5.209 1.685.987l.476 1.977-6.107 1.47zm6.925-.668-.9-4.745.876-.17.733 3.875.057-.01.165.874z"/><path d="m24.482 14.412.88-.145.144.894-.878.145zm-1.249.204.883-.144.144.894-.879.142zm-.835-1.334 1.852-.303-.402-2.466.876-.143.548 3.342-2.733.448z"/><path d="m25.826 14.237.113-.014c.435-.06.62-.297.57-.696l-.453-3.336.886-.12.333 2.477.043-.006.118.881-.043.007c.11 1.14-.52 1.55-1.33 1.657l-.121.017z"/><path d="m27.273 12.545 1.094-.123-.437-3.915.885-.1.535 4.803-1.98.22zm3.599.525-.884.08-.437-4.809.888-.082zm4.063-5.097.89-.043.043.89-.892.04zm-.938 3.99 1.127-.053-.066-1.405c-.57.267-.91.86-1.061 1.458m-.333-3.928.908-.044.04.889-.904.04zm2.393 4.72-3.16.152c.088-2.086 1.252-3.34 2.999-3.536zm.496.588.117-.002c.44-.01.65-.222.645-.626l-.065-3.365.89-.016.048 2.497.042-.001.019.891-.044.001c-.024 1.143-.698 1.477-1.514 1.492l-.114.005z"/><path d="m40.239 7.892.892.007-.01.891-.89-.008zm.807 3.837.01-1.496-.222-.003q-.644-.003-.646.533c-.008.442.281.759.858.966m.908-2.379-.02 2.499h.047l-.009.89-3.809-.032.008-.889 1.55.012-.136-.15a1.46 1.46 0 0 1 -.3-.907c.009-.58.257-1.007.737-1.273.197-.104.49-.162.87-.16z"/><path d="m44.812 8.036.896.046-.047.89-.893-.046zm1.086 4.002.055-1.06c.017-.366-.138-.554-.452-.569l-1.533-.079-.083 1.606zm-2.9-.147.2-3.938.886.048-.07 1.44 1.502.077c.836.042 1.373.624 1.335 1.425l-.058 1.142.04.002-.04.888-4.915-.252.045-.888z"/><path d="m46.773 12.108 1.093.097.35-3.93.885.082-.424 4.814-1.984-.177zm3.434 1.227-.886-.097.527-4.801.887.096zm3.786 2.569.877.14-.14.887-.879-.14zm-1.249-.198.879.139-.141.888-.879-.142zm.918-1.906.324-2.01c.124-.79.78-1.245 1.598-1.114l.975.157-.142.88-.999-.164c-.323-.052-.508.104-.57.464l-.165 1.048 1.464.233-.168 1.02c-.132.841-.686 1.23-1.556 1.093l-1.102-.179c-.865-.138-1.269-.678-1.134-1.52l.369-2.298.876.142-.383 2.406c-.007.257.06.322.335.365l1.276.204q.377.059.425-.242l.04-.252zm5.071.033.114-.529c.074-.357.04-.633-.114-.824a1.044 1.044 0 0 0 -.331-.292q-.187-.106-.653-.212l.181-.873.286.062q.701.145 1.123.597c.405.434.538 1.002.387 1.72l-.295 1.406-2.804-.588.18-.87zm1.316 1.213 1.137-4.697.865.21-.925 3.831.056.014-.208.865z"/><path d="m63.199 10.859.855.23-.231.858-.854-.229zm-2.085 3.522 1.064.284.644-2.413.861.23-.879 3.274-1.92-.515zm-51.582 8.198-.667-1.18-.256 1.329zm1.474 1.137-.744.119-.42-.721-1.35.218-.157.813-.724.117.772-3.595.724-.118zm.361-.05-.47-3.365.683-.095.393 2.793 1.706-.238.077.57zm4.463-3.46.256 2.256.516-.059c.187-.02.325-.048.41-.079a.696.696 0 0 0 .26-.174c.068-.073.115-.192.144-.35s.024-.368-.005-.631q-.038-.393-.137-.595a.783.783 0 0 0 -.23-.309.66.66 0 0 0 -.337-.124q-.15-.018-.568.032zm-.757-.496 1.26-.145q.425-.045.653-.008.31.053.55.256.241.2.388.514.15.313.203.793a2.261 2.261 0 0 1 -.024.737 1.478 1.478 0 0 1 -.294.641 1.217 1.217 0 0 1 -.45.328 2.087 2.087 0 0 1 -.6.14l-1.292.149zm3.807 3.021-.326-3.411.688-.064.13 1.341 1.35-.128-.13-1.342.692-.065.321 3.412-.688.064-.14-1.49-1.35.126.14 1.492zm5.133-1.808-.565-1.232-.37 1.303zm1.372 1.255-.751.058-.354-.755-1.367.105-.224.8-.73.054 1.068-3.518.73-.056zm.358-.02-.205-3.42 2.343-.14.038.577-1.655.1.05.81 1.426-.085.035.576-1.43.086.09 1.454zm3.51-2.177.513-.023q.496-.022.617-.07a.348.348 0 0 0 .186-.152q.066-.11.059-.26a.391.391 0 0 0 -.103-.276.435.435 0 0 0 -.266-.123 6.957 6.957 0 0 0 -.506.01l-.54.024zm-.603 2.006-.152-3.423 1.455-.065q.55-.023.797.057a.783.783 0 0 1 .416.31q.16.229.172.532.018.386-.198.647-.215.263-.66.347c.15.081.28.169.377.27.107.102.244.28.42.537l.45.65-.827.038-.534-.723a4.747 4.747 0 0 0 -.385-.486.496.496 0 0 0 -.213-.133 1.044 1.044 0 0 0 -.348-.023l-.144.006.067 1.428zm5.221-1.553-.509-1.257-.424 1.283zm1.312 1.32-.753.02-.32-.769-1.37.04-.262.785-.731.02 1.237-3.463.733-.02zm1.315-1.136.675-.069c.039.224.123.392.248.497.125.103.29.155.503.153q.333 0 .504-.143a.435.435 0 0 0 .165-.333.304.304 0 0 0 -.071-.206q-.073-.084-.252-.147a7.826 7.826 0 0 0 -.556-.147q-.56-.133-.78-.333a.888.888 0 0 1 -.321-.685q-.004-.263.144-.492.145-.23.426-.35.275-.122.673-.123c.427-.005.754.087.97.274q.331.282.35.754l-.688.035q-.05-.264-.198-.379-.142-.114-.438-.112-.303.002-.47.128a.252.252 0 0 0 -.112.213.278.278 0 0 0 .107.208c.088.07.298.147.638.223q.506.116.747.24.244.129.383.349.135.217.14.544a.991.991 0 0 1 -.162.552.957.957 0 0 1 -.459.386q-.297.126-.745.13-.648.004-1-.295-.348-.297-.421-.872m4.088-1.746-.01.972.378.004q.409.005.543-.047a.452.452 0 0 0 .222-.165q.077-.114.082-.265a.452.452 0 0 0 -.383-.466 3.478 3.478 0 0 0 -.498-.03zm-.725 2.838.037-3.424 1.113.011q.629.008.822.061a.89.89 0 0 1 .485.342c.135.172.197.397.194.671a1.12 1.12 0 0 1 -.12.527.913.913 0 0 1 -.294.334.957.957 0 0 1 -.36.158 4 4 0 0 1 -.719.042l-.454-.005-.012 1.291zm3.789-1.667q-.012.582.25.888.261.307.674.317.412.01.688-.283.27-.29.285-.886.015-.588-.24-.886c-.165-.197-.393-.298-.678-.304q-.426-.012-.694.275-.271.289-.285.879m-.712.005q.014-.523.177-.874c.083-.173.195-.327.33-.46q.208-.205.452-.299.322-.129.742-.12.759.021 1.196.5.448.481.425 1.317c-.009.553-.175.982-.48 1.286q-.462.459-1.218.442c-.508-.013-.912-.179-1.2-.496q-.447-.477-.424-1.296m4.59-.158.511.023q.498.02.621-.019a.391.391 0 0 0 .201-.136.423.423 0 0 0 .08-.255.409.409 0 0 0 -.08-.283.435.435 0 0 0 -.256-.144 6.087 6.087 0 0 0 -.499-.03l-.542-.026zm-.772 1.949.142-3.425 1.454.06c.361.014.628.058.79.125a.783.783 0 0 1 .386.343 1.009 1.009 0 0 1 .129.547.91.91 0 0 1 -.258.627q-.23.24-.688.288c.147.096.267.194.361.303q.14.161.37.57l.391.686-.825-.034-.472-.764q-.247-.41-.344-.518l-.2-.152a1.13 1.13 0 0 0 -.35-.052l-.14-.007-.057 1.43zm4.204.191.157-2.842-1.015-.058.031-.578 2.72.153-.033.579-1.011-.057-.159 2.84zm5.738-.875.652.266q-.197.548-.575.79c-.25.164-.563.231-.93.2q-.68-.052-1.081-.55-.402-.503-.34-1.307.069-.853.543-1.29.48-.438 1.198-.382.623.05.989.45c.141.16.243.379.298.657l-.694.109a.704.704 0 0 0 -.674-.628.783.783 0 0 0 -.637.224q-.258.253-.306.864-.054.648.16.94a.748.748 0 0 0 .585.322.678.678 0 0 0 .483-.135q.216-.159.329-.53m1.172 1.365.32-3.384.691.066-.267 2.81 1.71.16-.054.576zm3.255-3.13.687.078-.208 1.844a4.348 4.348 0 0 0 -.036.571.557.557 0 0 0 .172.36q.154.144.439.178c.194.02.35-.004.456-.072q.162-.103.214-.272.047-.171.095-.576l.21-1.885.688.077-.2 1.79q-.07.612-.153.86a1 1 0 0 1 -.253.404 1.044 1.044 0 0 1 -.432.233 1.804 1.804 0 0 1 -.671.028c-.321-.036-.565-.1-.724-.194a1.044 1.044 0 0 1 -.365-.338.904.904 0 0 1 -.152-.398q-.035-.3.03-.871zm4.101 1.054-.104.786.453.058a6.087 6.087 0 0 0 .495.055.47.47 0 0 0 .295-.085.374.374 0 0 0 .136-.253.383.383 0 0 0 -.051-.267.4.4 0 0 0 -.244-.154 7.826 7.826 0 0 0 -.585-.088zm-.178 1.35-.119.908.633.085c.25.032.406.047.476.04q.153-.007.266-.104a.409.409 0 0 0 .132-.272.435.435 0 0 0 -.038-.273.435.435 0 0 0 -.193-.18q-.135-.07-.6-.13zm-.432-2.007 1.359.18q.398.054.595.112a.87.87 0 0 1 .334.187.87.87 0 0 1 .224.318.74.74 0 0 1 .053.411.783.783 0 0 1 -.187.421.783.783 0 0 1 -.386.254q.297.13.437.37a.817.817 0 0 1 .098.536 1 1 0 0 1 -.167.434.896.896 0 0 1 -.341.312.957.957 0 0 1 -.479.101q-.173-.004-.83-.084l-1.156-.152zm-17.096 33.907a1.391 1.391 0 0 1 -.24.42l-.45.55h.748v.766h-2.238l1.333-1.781.12-.204.037-.215a.33.33 0 0 0 -.112-.265.383.383 0 0 0 -.273-.103.4.4 0 0 0 -.38.262l-.715-.277c.046-.113.101-.216.176-.309a1.178 1.178 0 0 1 1.375-.354 1.13 1.13 0 0 1 .606.61q.094.211.092.456 0 .22-.079.444"/></g><path d="m47.52 53.694-.04-.014a1.391 1.391 0 0 1 -.23.41l-.448.548-.053.067h.786v.684h-2.115l1.284-1.717.121-.207.004-.006.041-.22v-.01a.391.391 0 0 0 -.122-.293.435.435 0 0 0 -.304-.114.435.435 0 0 0 -.255.077.487.487 0 0 0 -.165.21l.04.015.016-.038-.718-.276-.013.037.04.015q.061-.165.167-.298.112-.134.247-.23a1.174 1.174 0 0 1 .641-.198 1.067 1.067 0 0 1 .788.32 1.13 1.13 0 0 1 .242.354c.056.136.085.28.085.44q0 .213-.08.43zm0 0 .04.014q.08-.232.08-.458 0-.253-.09-.472a1.302 1.302 0 0 0 -.258-.379 1.044 1.044 0 0 0 -.38-.253 1.217 1.217 0 0 0 -.828-.036 1.13 1.13 0 0 0 -.322.158 1.13 1.13 0 0 0 -.266.245 1.13 1.13 0 0 0 -.183.32l-.016.038.753.29.04.016.01-.04.14-.17a.348.348 0 0 1 .205-.063.348.348 0 0 1 .248.09.313.313 0 0 1 .102.236h.035l-.035-.008-.044.209-.113.195-1.376 1.845h2.355v-.848h-.697l.391-.482c.113-.137.19-.28.249-.433z" fill="#fff"/><path d="m50.793 53.44q-.078-.172-.209-.303-.132-.128-.304-.201a.957.957 0 0 0 -.368-.074q-.195 0-.368.074a.957.957 0 0 0 -.508.504.957.957 0 0 0 -.07.366q0 .195.07.367a.957.957 0 0 0 .206.302q.128.127.302.202a.957.957 0 0 0 .368.074q.196 0 .368-.074t.304-.202q.13-.13.209-.302a1.01 1.01 0 0 0 .071-.367c0-.128-.027-.251-.071-.366m.697 1.032a1.74 1.74 0 0 1 -.91.912 1.74 1.74 0 0 1 -.668.133q-.354 0-.664-.133a1.724 1.724 0 0 1 -1.047-1.578q0-.356.137-.666a1.704 1.704 0 0 1 1.574-1.043c.237 0 .461.042.669.134q.31.132.54.365.236.234.37.544a1.652 1.652 0 0 1 .132.666q0 .356-.133.666" fill="#ed1e25"/><path d="m50.793 53.44.033-.018a.983.983 0 0 0 -.914-.602.974.974 0 0 0 -.696.29.957.957 0 0 0 -.215.312 1.044 1.044 0 0 0 -.08.384 1 1 0 0 0 .08.383q.075.18.215.314.132.135.313.21.182.078.383.078a.916.916 0 0 0 .383-.078q.186-.075.319-.21.134-.133.212-.314a.952.952 0 0 0 .077-.383q0-.2-.077-.384zm0 0-.042.016a.87.87 0 0 1 0 .701 1.044 1.044 0 0 1 -.193.29 1.044 1.044 0 0 1 -.293.193.913.913 0 0 1 -.997-.193.957.957 0 0 1 -.192-.29.87.87 0 0 1 -.07-.35q-.002-.187.07-.351.07-.166.192-.29.126-.122.293-.193.17-.071.351-.072.187 0 .353.072.165.072.293.193.121.124.193.29zm.697 1.032-.035-.017a1.687 1.687 0 0 1 -.893.89 1.666 1.666 0 0 1 -1.301 0 1.74 1.74 0 0 1 -.532-.355 1.74 1.74 0 0 1 -.355-.535 1.652 1.652 0 0 1 -.13-.649q0-.347.13-.65.13-.304.355-.533.23-.223.532-.356a1.63 1.63 0 0 1 .651-.132q.348 0 .65.132a1.652 1.652 0 0 1 .53.356q.231.23.363.534a1.652 1.652 0 0 1 .128.65q0 .347-.128.648zm0 0 .039.017a1.786 1.786 0 0 0 0-1.365 1.764 1.764 0 0 0 -1.617-1.07q-.36 0-.68.139a1.74 1.74 0 0 0 -.556.375 1.74 1.74 0 0 0 -.374.556 1.74 1.74 0 0 0 -.139.682q0 .363.139.683.134.318.374.556a1.73 1.73 0 0 0 1.236.513 1.757 1.757 0 0 0 1.617-1.07z" fill="#fff"/><path d="m54.74 53.44a.957.957 0 0 0 -.203-.303.963.963 0 0 0 -1.347 0 .954.954 0 0 0 0 1.338c.09.084.19.152.305.202a.94.94 0 0 0 .736 0q.175-.075.306-.202.128-.13.203-.302.074-.172.074-.367 0-.193-.074-.366m.702 1.032a1.74 1.74 0 0 1 -.914.912 1.652 1.652 0 0 1 -.662.133q-.357 0-.667-.133a1.74 1.74 0 0 1 -.547-.367q-.231-.235-.365-.545a1.74 1.74 0 0 1 -.131-.666 1.704 1.704 0 0 1 .496-1.21 1.72 1.72 0 0 1 .547-.365c.206-.092.429-.134.667-.134.235 0 .46.042.662.134q.313.132.545.365a1.74 1.74 0 0 1 .369.544q.134.31.132.666.002.356-.132.666" fill="#ed1e25"/><path d="m54.74 53.44.035-.018a.913.913 0 0 0 -.212-.312.97.97 0 0 0 -.697-.29q-.203 0-.389.076a1.044 1.044 0 0 0 -.314.214.957.957 0 0 0 -.21.312.957.957 0 0 0 -.08.384q0 .204.08.383a.957.957 0 0 0 .21.314 1 1 0 0 0 .703.288q.198 0 .38-.078a.957.957 0 0 0 .529-.524q.08-.18.079-.383 0-.2-.08-.384zm0 0-.037.016q.07.165.068.35a.87.87 0 0 1 -.068.351.957.957 0 0 1 -.196.29.913.913 0 0 1 -1.287 0 .89.89 0 0 1 -.265-.64q0-.186.07-.351.074-.166.195-.29a.94.94 0 0 1 .646-.265q.18 0 .35.072.167.072.29.193.125.124.197.29zm.702 1.032-.04-.017a1.652 1.652 0 0 1 -.359.535 1.74 1.74 0 0 1 -.53.354 1.652 1.652 0 0 1 -.647.132q-.348-.001-.65-.132a1.74 1.74 0 0 1 -.533-.354 1.74 1.74 0 0 1 -.358-.535 1.652 1.652 0 0 1 -.13-.649q.001-.347.13-.65c.086-.203.209-.38.358-.533q.228-.223.533-.356.302-.132.65-.132c.232 0 .444.044.648.132.2.089.38.207.53.356q.23.23.358.534.131.302.133.65-.002.347-.133.648zm0 0 .035.017q.139-.32.137-.683 0-.363-.137-.682a1.74 1.74 0 0 0 -.933-.931 1.74 1.74 0 0 0 -.678-.138 1.74 1.74 0 0 0 -.684.138 1.826 1.826 0 0 0 -.557.375 1.723 1.723 0 0 0 -.512 1.238 1.74 1.74 0 0 0 .512 1.24q.24.238.557.375.318.136.684.137c.238 0 .467-.047.678-.137.212-.092.4-.217.559-.376q.239-.238.374-.556z" fill="#fff"/><path d="m58.69 53.44a1.044 1.044 0 0 0 -.207-.303.937.937 0 0 0 -.669-.275q-.196 0-.37.074a.957.957 0 0 0 -.304.201 1.044 1.044 0 0 0 -.202.303.922.922 0 0 0 0 .733q.076.171.202.302.13.127.305.202t.37.074a.947.947 0 0 0 .668-.276c.088-.087.154-.187.207-.302a.976.976 0 0 0 .073-.367.982.982 0 0 0 -.073-.366m.7 1.032a1.74 1.74 0 0 1 -.366.545 1.74 1.74 0 0 1 -.546.367 1.652 1.652 0 0 1 -.664.133c-.24 0-.459-.046-.67-.133a1.74 1.74 0 0 1 -.907-.912 1.652 1.652 0 0 1 -.132-.666c0-.236.041-.46.132-.666a1.704 1.704 0 0 1 1.577-1.043c.234 0 .457.042.664.134q.313.132.546.365.231.234.365.544.132.31.132.666t-.132.666" fill="#ed1e25"/><path d="m58.69 53.44.036-.018a1.044 1.044 0 0 0 -.21-.313.977.977 0 0 0 -.702-.289.974.974 0 0 0 -.701.29.983.983 0 0 0 -.292.696.991.991 0 0 0 1.377.907q.178-.075.317-.21a1 1 0 0 0 .288-.697q0-.2-.077-.384zm0 0-.038.016a.92.92 0 0 1 .071.35q-.002.185-.071.351a.957.957 0 0 1 -.197.29.957.957 0 0 1 -.29.193.887.887 0 0 1 -.703 0q-.169-.072-.292-.193a.889.889 0 0 1 -.266-.64.887.887 0 0 1 .266-.64q.125-.123.292-.194.163-.071.352-.072.189 0 .352.072a.923.923 0 0 1 .486.483zm.7 1.032-.036-.017a1.74 1.74 0 0 1 -.36.535 1.74 1.74 0 0 1 -.533.354 1.652 1.652 0 0 1 -.647.132q-.348-.001-.652-.132a1.74 1.74 0 0 1 -.531-.354 1.652 1.652 0 0 1 -.355-.535 1.565 1.565 0 0 1 -.13-.649c0-.232.04-.447.13-.65.083-.203.204-.38.355-.533q.23-.223.531-.356.304-.132.652-.132c.228 0 .446.044.647.132.205.089.38.207.534.356q.225.23.359.534a1.652 1.652 0 0 1 .127.65q0 .347-.127.648zm0 0 .034.017q.142-.32.142-.683t-.142-.682a1.748 1.748 0 0 0 -1.61-1.07q-.366 0-.682.139a1.73 1.73 0 0 0 -.93.931 1.652 1.652 0 0 0 -.138.682q-.002.363.137.683a1.74 1.74 0 0 0 .93.932 1.74 1.74 0 0 0 .683.137c.244 0 .469-.047.683-.137a1.765 1.765 0 0 0 .927-.932z" fill="#fff"/></svg>