<svg viewBox="138 23.76 527.08 755" xmlns="http://www.w3.org/2000/svg"><path d="M500.69 23.76h-198.3L138 160.85v480.82l164.39 137.09h198.3l164.39-137.09V160.85z" fill="#ece83a"/><g fill="#1f1646"><path d="M494.1 41.86L646.93 169.3v463.92L494.1 760.66H309L156.15 633.22V169.3L309 41.86zm3.28-9.07H305.7L147.09 165.06v472.4L305.7 769.73h191.68L656 637.46v-472.4l-3.26-2.72z"/><path d="M365.18 490.15V343.71l68.96 146.44h40.11L328.82 181.31v308.84zM437.9 96.06V242.5L368.94 96.06h-40.12l145.43 308.83V96.06zm-172.69 49.26h27.26v295.56h-27.26zm-54.53 49.26h18.18v197.04h-18.18zm327.19 246.31h-27.26V145.33h27.26zm54.53-49.26h-18.18V194.59h18.18zM396 671.56l-20.18-20.19v-14.63h7.42v14.63h12.18v-19.58l-6.3-6.3h-19.17l-6.3 6.3v25.69l19.94 19.94v17.42h-7.65v-17.42h-12.29v22.83l6.3 6.3h19.75l6.3-6.3zm11.66-39.77v68.46l6.3 6.3h19.17l6.3-6.3v-22.83h-12.06v17.42h-7.31v-58.1h7.31v14.63h12.06v-19.58l-6.3-6.3h-19.17zm-52.64-59.36l-20.17-20.19v-14.62h7.41v14.62h12.18v-19.57l-6.31-6.3h-19.16l-6.3 6.3v25.68l19.94 19.94v17.42h-7.65v-17.42h-12.29v22.83l6.3 6.3h19.75l6.3-6.3zm-114.8-46.06l14.84 44.27v-44.27h12.17v81h-11l-15.31-44.16v44.16h-12.07v-81zm138.63 0v33.41h7.89v-33.41h12.17v81h-12.17v-35.88h-7.89v35.93h-12.17v-81zm42.15 0l7.4 63.78 7.39-63.78h11.8l-10.87 81H420.1l-10.87-81zm49 0v81h-12.08v-81zm24.09 0v69.11h11.49v11.94h-23.67v-81zm32.91 0v69.11h11.5v11.94h-23.65v-81zm47.22 11.94H560v21.47h13.43v11.71H560v24h14.26v11.94h-26.47v-81h26.43zm-271.7 69.11h11.8l-10.87-81H286.8l-10.86 81h11.8l1.57-13.54H301zm-11.86-25.25l4.47-38.53 4.46 38.53z"/></g></svg>