<svg viewBox="51.82 13.52 376.36 452.96" xmlns="http://www.w3.org/2000/svg"><path d="M240 13.52l188.18 90.59-15.12 131.7c-5.75 50.36-17.24 85.47-37.24 113.71-19.87 28.11-48.11 48.73-73.72 68.23-20.12 15.12-42.48 32.86-62.1 48.73-19.62-15.87-41.98-33.61-62.1-48.86-25.62-19.37-53.86-39.99-73.72-68.1-19.99-28.24-31.49-63.35-37.24-113.71l-15.12-131.7z" fill="#78ded4"/><path d="M249.38 218.06v104.77c3.5-13.88 7.25-29.88 8.63-36.26 3.5-16 10.25-47.51 14.5-69.51-8.75.5-16.13.88-23.13 1m-86.82 59.06c2.57 0 4.53-2.06 4.53-4.63s-1.96-4.58-4.53-4.58-4.58 1.96-4.58 4.58 1.91 4.63 4.58 4.63" fill="#4fb84f"/><path d="M388.53 232.94l12.88-114.15L241.5 41.78l5.38 70.64c15.5.63 28.88 3 36.13 5.5v.25s-7.88 2.75-7.88 8.25c0 8.88 26.51 14.5 53.14 24.88v.25s-35.63-6.88-88.27-6.88-88.27 6.88-88.27 6.88v-.25c26.63-10.38 53.14-16 53.14-24.88 0-5.5-7.88-8.25-7.88-8.25v-.25c7.25-2.5 20.63-4.88 36.13-5.5l5.38-70.64-159.91 77.01 12.88 114.15c11.13 98.27 43.63 121.52 104.89 167.78 10.5 7.88 21.88 16.5 34.26 26.38V218.06c-6.75-.13-13.88-.5-22.25-1 2.5 32.26 6.13 90.64 6.13 125.52 0 20-.63 34.88-.63 34.88-8.38-64.51-18-128.77-22.75-161.78-33.26-3.5-45.01-11.25-46.63-12.38 15-5.75 56.26-8.13 95.52-8.13s80.52 2.63 95.52 8.13c-1.63 1.25-14 9.13-48.88 12.63-11.75 61.26-23.13 122.9-23.13 162.16 0 17.13.63 29.76 1.13 37.01 6.63-5 13-9.88 19-14.38 61.26-46.26 93.77-69.51 104.89-167.78zm-225.97 27.81c6.9 0 12.05 5 12.05 11.74 0 2.68-.82 5.15-3.04 8.91l-6.64 11.48h-8.81l5.41-9.53c-.21.05-.51.1-.77.1-6.18-.46-10.25-5.15-10.25-10.97 0-6.75 5.1-11.74 12.05-11.74zm-17.66.51v31.62h-8.03v-22.66l-7.36 3.55v-7.83l9.84-4.69h5.56zm183.37-74.83c-2.88-2.75-27.26-8.38-88.27-8.38s-85.39 5.5-88.27 8.38c-1.88-.13-33.38-2.38-33.38-8.75 0-5.75 47.01-15.88 121.65-15.88s121.65 10.13 121.65 15.88c0 6.38-31.51 8.63-33.38 8.75m-23.72 106.45l11.33-24.51h-12.51v-7.11h24.15v.15l-14.32 31.46h-8.65zm20.6-5.97l11.54-25.64h8.34l-8.6 19.16h4.89v-5.66h7.11v5.66h3.6v6.69h-3.6v5.77h-7.11v-5.77h-16.17z" fill="#4fb84f"/><g fill="#0033a1"><path d="M327.51 261.26h-24.15v7.11h12.51l-11.33 24.51h8.65l14.32-31.46zm13.8 31.62h7.11v-5.77h3.6v-6.69h-3.6v-5.67h-7.11v5.67h-4.89l8.6-19.16h-8.34l-11.54 25.65v.2h16.17zM129.5 265.95v7.82l7.36-3.55v22.66h8.04v-31.62h-5.57zm31.26 17.51c.26 0 .57-.05.77-.1l-5.41 9.53h8.81l6.64-11.48c2.21-3.76 3.04-6.23 3.04-8.91 0-6.75-5.15-11.74-12.05-11.74s-12.05 5-12.05 11.74c0 5.82 4.07 10.5 10.25 10.97zm1.8-15.55c2.57 0 4.53 1.96 4.53 4.58s-1.96 4.63-4.53 4.63-4.58-2.06-4.58-4.63 1.91-4.58 4.58-4.58"/><path d="M240 25.27L63.22 110.41l14.25 124.27c12 104.77 48.13 130.27 110.27 177.28 14.13 10.75 30.13 23 52.26 41.01 22.13-18 38.13-30.26 52.26-41.01 62.14-47.01 98.27-72.51 110.27-177.28l14.25-124.27zm9.38 297.56V218.06c7-.13 14.38-.5 23.13-1-4.25 22-11 53.51-14.5 69.51-1.38 6.38-5.13 22.38-8.63 36.26m15.25 92.27c-.5-7.25-1.13-19.88-1.13-37.01 0-39.26 11.38-100.89 23.13-162.16 34.88-3.5 47.26-11.38 48.88-12.63-15-5.5-56.26-8.13-95.52-8.13s-80.52 2.38-95.52 8.13c1.63 1.13 13.38 8.88 46.63 12.38 4.75 33.01 14.38 97.27 22.75 161.78 0 0 .63-14.88.63-34.88 0-34.88-3.63-93.27-6.13-125.52 8.38.5 15.5.88 22.25 1V427.1c-12.38-9.88-23.75-18.5-34.26-26.38-61.26-46.26-93.77-69.51-104.89-167.78L78.57 118.79 238.5 41.78l-5.38 70.64c-15.5.63-28.88 3-36.13 5.5v.25s7.88 2.75 7.88 8.25c0 8.88-26.51 14.5-53.14 24.88v.25s35.63-6.88 88.27-6.88 88.27 6.88 88.27 6.88v-.25c-26.63-10.38-53.14-16-53.14-24.88 0-5.5 7.88-8.25 7.88-8.25v-.25c-7.25-2.5-20.63-4.88-36.13-5.5l-5.38-70.64 159.91 77.01-12.88 114.15c-11.13 98.27-43.63 121.52-104.89 167.78-6 4.5-12.38 9.38-19 14.38z"/><path d="M361.65 177.68c0-5.75-47.01-15.88-121.65-15.88s-121.65 10.13-121.65 15.88c0 6.38 31.51 8.63 33.38 8.75 2.88-2.88 27.26-8.38 88.27-8.38s85.39 5.63 88.27 8.38c1.88-.13 33.38-2.38 33.38-8.75"/></g></svg>