<svg viewBox="0.46 0.46 399.54 399.54" xmlns="http://www.w3.org/2000/svg"><clipPath id="a"><path d="M0 0h400v400H0z"/></clipPath><g clip-path="url(#a)"><g transform="translate(-249.799 -96.144)"><circle cx="196.571" cy="196.571" fill="#fff" r="196.571" transform="translate(254.032 99.803)"/><circle cx="188.533" cy="188.533" fill="#e1001e" r="188.533" transform="translate(261.497 107.841)"/><circle cx="179.116" cy="179.116" fill="#1a1818" r="179.116" transform="translate(270.914 117.258)"/><path d="M450.029 496.143c-110.152 0-199.768-89.615-199.768-199.768S339.878 96.606 450.029 96.606 649.8 186.221 649.8 296.374s-89.618 199.769-199.771 199.769m0-394.037c-107.12 0-194.268 87.147-194.268 194.268s87.148 194.268 194.268 194.268S644.3 403.493 644.3 296.374s-87.15-194.268-194.271-194.268" fill="#1a1818"/><path d="M450.602 420.375a124 124 0 1 1 124-124 124.14 124.14 0 0 1-124 124" fill="#fff"/><path d="M450.03 426.994c-72.024 0-130.618-58.6-130.618-130.621A130.766 130.766 0 0 1 450.03 165.755c72.024 0 130.621 58.595 130.621 130.618S522.053 426.994 450.03 426.994m0-252.52a121.9 121.9 0 1 0 121.9 121.9 122.037 122.037 0 0 0-121.9-121.899z" fill="#e1001e"/><g fill="#fff"><path d="M325.191 228.409l-3.686 6.374-16.582-24.582 3.307-5.271 29.326 4.269-4.058 6.087-4.547-.724-6.362 10.14zm-6.182-8.667l3.939-6.278-9.6-1.626zm20.041-12.357l-19.768-18.319 4.526-4.884 15.436 14.306 9-9.71 4.332 4.015zm30.387-40.552q3.174 4.551 2.748 8.617t-4.49 6.9q-1.009.7-1.975 1.256t-1.974 1.014a23 23 0 0 1-2.159.854q-1.152.393-2.474.783l-2.325-5.481q1.309-.479 2.312-.912t1.8-.846q.8-.412 1.5-.829t1.416-.915a3.31 3.31 0 0 0 1.505-2.692 6.22 6.22 0 0 0-1.353-3.743l-9.137-13.1 5.558-3.881zm13.139 5.106l-6.584 4.053-.54-30.082 5.638-2.631 22.312 19.48-7.091 2.723-3.055-2.863-10.847 5.06zm-.476-10.369l6.717-3.133-7.18-6.579zm32.283-7.697l13.047-3.044 1.359 5.828-22.579 5.269-.955-4.092 9.315-19.389-12.506 2.918-1.36-5.829 21.731-5.07.955 4.092zm24.581 1.644l-6.665.665-2.675-26.815 6.665-.665zm13.467-7.501l-2.813-.084-.219 7.55-6.668-.025.806-26.94q1.031-.008 2.339-.01t2.736 0q1.427 0 2.893.027t2.854.065a16.8 16.8 0 0 1 4.7.755 9.9 9.9 0 0 1 3.511 1.929 8 8 0 0 1 2.168 3.078 10.2 10.2 0 0 1 .669 4.164 9 9 0 0 1-4.918 8.021l6.175 9.622-8.255-.69-4.39-7.42zm1.634-5.583a4.69 4.69 0 0 0 3.342-1.049 3.9 3.9 0 0 0 1.339-2.974 3.45 3.45 0 0 0-1.2-3.01 5.86 5.86 0 0 0-3.516-1.056q-.913-.028-1.942-.039t-2.06-.041l-.241 8.042zm20.874 15.395l-7.329-1.463 18.28-23.782 6.049 1.46 5.27 29.163-7.051-1.7-.769-4.752-11.635-2.811zm6.38-8.857l7.2 1.741-1.51-9.62zm54.004 10.94q-2.065-1.688-3.611-2.83a24 24 0 0 0-2.875-1.852 11.3 11.3 0 0 0-3.591-1.268 7.8 7.8 0 0 0-3.169.126 6.8 6.8 0 0 0-2.635 1.356 8.1 8.1 0 0 0-1.954 2.438 8.3 8.3 0 0 0-.99 3.156 7.2 7.2 0 0 0 .325 3.006 7.7 7.7 0 0 0 1.568 2.658 9.8 9.8 0 0 0 2.77 2.132q.663.355 1.592.762t1.964.781q1.035.375 2.126.732t2.127.687l-1.768 5.661a49 49 0 0 1-4.813-1.382 31 31 0 0 1-4.583-1.978 18 18 0 0 1-4.975-3.806 13.7 13.7 0 0 1-2.831-4.75 12.8 12.8 0 0 1-.589-5.371 14.9 14.9 0 0 1 1.767-5.618 14.7 14.7 0 0 1 3.662-4.536 12.8 12.8 0 0 1 4.784-2.476 13.6 13.6 0 0 1 5.523-.284 18 18 0 0 1 5.928 2.024 36 36 0 0 1 4.307 2.707 44 44 0 0 1 3.78 3.1zm-6.065 20.283l16.654-21.192 5.235 4.115-13 16.548 10.282 8.433-3.649 4.644zm42.659 23.853a15.1 15.1 0 0 1-4.6 2.91 11.3 11.3 0 0 1-4.664.786 10.76 10.76 0 0 1-4.529-1.3 15.1 15.1 0 0 1-4.148-3.338 14.8 14.8 0 0 1-2.818-4.469 10.7 10.7 0 0 1 .552-9.177 15.4 15.4 0 0 1 3.428-4.225l11.032-9.842 4.486 5.028-11.033 9.842a6.84 6.84 0 0 0-2.537 4.36 5.5 5.5 0 0 0 1.565 4.314 5.63 5.63 0 0 0 4.134 2.074 6.72 6.72 0 0 0 4.647-1.995l11.033-9.841 4.485 5.028zm12.601 17.3a7.8 7.8 0 0 1 .193 4.786 5.72 5.72 0 0 1-2.6 3.366 6.63 6.63 0 0 1-6.283.585 12.44 12.44 0 0 1-5.574-5.391q-.633-1.053-1.442-2.44t-1.617-2.843q-.8-1.459-1.6-2.855t-1.377-2.524l23.1-13.878q.666 1.032 1.476 2.3l1.65 2.592q.839 1.322 1.643 2.62t1.476 2.419q2.367 3.941 2.06 7.086a6.21 6.21 0 0 1-3.23 4.9 6.67 6.67 0 0 1-4.091 1 6.25 6.25 0 0 1-3.784-1.723m-10.006-.185a5.95 5.95 0 0 0 2.406 2.464 2.68 2.68 0 0 0 2.639-.222 2.3 2.3 0 0 0 1.192-1.941 5 5 0 0 0-.848-2.8l-2.776-4.62-4.96 2.98q.679 1.209 1.289 2.3t1.057 1.839zm11.755-12.608l-5.1 3.061 2.429 4.043a4.15 4.15 0 0 0 2.138 1.906 2.8 2.8 0 0 0 2.484-.291q2.411-1.448.229-5.084z"/></g><g fill="#e1001e"><path d="M598.139 304.465h-4.213l5.474-12.588h-7.615v-3.594h12.278v2.261zm19.725-5.783v3.188h-1.808v2.595h-3.641v-2.595h-9.065v-2.688l9.065-10.9h3.641v10.4zm-5.449 0v-5.806l-4.545 5.806z"/></g><g fill="#fff"><path d="M340.681 390.937a11.9 11.9 0 0 1 1.863 3.021 7.7 7.7 0 0 1 .629 2.976 6.2 6.2 0 0 1-.65 2.764 7.98 7.98 0 0 1-4.7 3.884 6.5 6.5 0 0 1-2.868.148 7.6 7.6 0 0 1-2.839-1.149 11.6 11.6 0 0 1-2.629-2.386l-1.726-2.087-4.086 3.379-3.085-3.73 15.1-12.489q1.168 1.278 2.436 2.7t2.555 2.969m-7.743 6.778a3.7 3.7 0 0 0 2.172 1.383 3.114 3.114 0 0 0 3.452-2.855 3.74 3.74 0 0 0-.962-2.384q-.478-.576-.965-1.145t-.991-1.128l-4.618 3.819zm9.43 15.916l-1.489-1.4-3.853 4.09-3.524-3.32 13.437-14.262q.564.494 1.276 1.123t1.488 1.322q.774.69 1.561 1.411t1.519 1.412a12.1 12.1 0 0 1 2.19 2.676 7.2 7.2 0 0 1 .979 2.743 5.85 5.85 0 0 1-.306 2.72 7.4 7.4 0 0 1-1.646 2.587 6.54 6.54 0 0 1-6.545 1.989l-1.279 8.128-4.252-3.75 1.284-6.678zm3.582-2.247a3.42 3.42 0 0 0 2.325 1.042 2.83 2.83 0 0 0 2.162-.972 2.51 2.51 0 0 0 .8-2.215 4.27 4.27 0 0 0-1.4-2.272c-.323-.3-.667-.622-1.038-.958s-.737-.675-1.1-1.018l-4.01 4.258zm6.425 18.42l-3.836-3 12.073-15.433 3.836 3zm20.461-10.129a12.8 12.8 0 0 1 3.294 2.932 9.9 9.9 0 0 1 1.769 3.5 8.75 8.75 0 0 1 .151 3.818 10.7 10.7 0 0 1-1.567 3.886 10.9 10.9 0 0 1-2.9 3.128 9.07 9.07 0 0 1-7.293 1.507 11.4 11.4 0 0 1-3.807-1.585q-1.849-1.176-3.487-2.3t-2.953-2.068l10.516-16.533q1.407.792 2.978 1.706t3.299 2.009m-7.917 13.575a4.8 4.8 0 0 0 1.869.712 4.8 4.8 0 0 0 1.98-.107 5.3 5.3 0 0 0 1.886-.952 6.9 6.9 0 0 0 1.6-1.785 6.4 6.4 0 0 0 .912-2.186 5.2 5.2 0 0 0 0-2.1 4.8 4.8 0 0 0-.844-1.868 6 6 0 0 0-1.65-1.512l-1.107-.7a16 16 0 0 0-1.161-.672l-6.031 9.483q.6.451 1.258.868zm27.386 5.72l-1.761 3.757-7.852-3.682-1.48 3.156 9.027 4.233-1.8 3.836-13.411-6.287 8.317-17.741 13.41 6.286-1.8 3.836-9.028-4.232-1.48 3.157zm18.45-2.294a11.9 11.9 0 0 1 3.895 1.885 9.6 9.6 0 0 1 2.611 2.91 9.5 9.5 0 0 1 1.184 3.7 11.68 11.68 0 0 1-2.32 8.057 9.4 9.4 0 0 1-2.969 2.5 9.6 9.6 0 0 1-3.758 1.078 12.76 12.76 0 0 1-8.2-2.359 9.6 9.6 0 0 1-2.61-2.911 9.4 9.4 0 0 1-1.184-3.7 11.68 11.68 0 0 1 2.319-8.058 9.4 9.4 0 0 1 2.969-2.5 9.6 9.6 0 0 1 3.759-1.079 11.9 11.9 0 0 1 4.304.477m-4.424 15.368a5.8 5.8 0 0 0 2.248.213 5.09 5.09 0 0 0 3.595-2.069 6.6 6.6 0 0 0 1.04-2.16 6.5 6.5 0 0 0 .262-2.369 5.35 5.35 0 0 0-.591-2.059 4.9 4.9 0 0 0-1.353-1.6 6.3 6.3 0 0 0-4.264-1.228 4.95 4.95 0 0 0-2 .64 5.4 5.4 0 0 0-1.6 1.429 6.5 6.5 0 0 0-1.037 2.145 6.6 6.6 0 0 0-.265 2.383 5.07 5.07 0 0 0 1.944 3.662 5.7 5.7 0 0 0 2.022 1.013zm26.683-1.705l-.682 4.356-8.143-1.274-1.028 6.578-4.782-.749 3.028-19.359 14.207 2.222-.663 4.242-9.423-1.474-.655 4.185zm11.32 11.89l-5.153-.327 8.517-19.394 4.524-.014 8.618 19.468-5.127.23-1.363-3.223-8.7.028zm2.974-7.357l5.388-.017-2.729-6.533zm27.003-4.618a5.66 5.66 0 0 1 3.246 1.262 4.16 4.16 0 0 1 1.487 2.711 4.82 4.82 0 0 1-1.435 4.357 9.05 9.05 0 0 1-5.212 2.149q-.885.114-2.045.252t-2.364.251c-.8.075-1.592.154-2.367.237s-1.469.143-2.083.184l-2.537-19.43q.882-.144 1.964-.315l2.207-.346q1.124-.175 2.224-.334t2.041-.281a8.57 8.57 0 0 1 5.32.686 4.51 4.51 0 0 1 2.326 3.576 4.86 4.86 0 0 1-.521 3.018 4.55 4.55 0 0 1-2.251 2.023m-8.018-4.882l.561 4.286 3.4-.445a3.02 3.02 0 0 0 1.891-.87 2.04 2.04 0 0 0 .529-1.741q-.267-2.029-3.322-1.629zm4.987 11.5a4.3 4.3 0 0 0 2.34-.887 1.95 1.95 0 0 0 .62-1.823 1.67 1.67 0 0 0-.948-1.358 3.6 3.6 0 0 0-2.11-.249l-3.886.507.545 4.172 1.908-.191q.903-.092 1.531-.175zm27.948-11.295a11 11 0 0 1 .4 3.937 8.2 8.2 0 0 1-1 3.289 7.8 7.8 0 0 1-2.312 2.527 11 11 0 0 1-3.516 1.617 10.7 10.7 0 0 1-3.817.389 7.77 7.77 0 0 1-5.793-3.333 11.2 11.2 0 0 1-1.638-3.6l-2.828-10.37 4.726-1.288 2.828 10.368a4.97 4.97 0 0 0 2.015 3.065 4 4 0 0 0 3.314.381 4.1 4.1 0 0 0 2.691-2.018 4.9 4.9 0 0 0 .208-3.671l-2.828-10.37 4.727-1.289zm11.774-16.895a12.8 12.8 0 0 1 4.22-1.275 9.9 9.9 0 0 1 3.908.321 8.8 8.8 0 0 1 3.334 1.868 10.7 10.7 0 0 1 2.493 3.368 10.95 10.95 0 0 1 1.154 4.1 9.07 9.07 0 0 1-2.528 7.006 11.4 11.4 0 0 1-3.342 2.412q-1.968.96-3.787 1.768t-3.306 1.439l-8.6-17.609q1.412-.784 3.012-1.647t3.442-1.751m7.433 13.846a4.8 4.8 0 0 0 2.529-2.965 5.3 5.3 0 0 0 .175-2.1 6.8 6.8 0 0 0-.687-2.295 6.4 6.4 0 0 0-1.386-1.919 5.2 5.2 0 0 0-1.788-1.1 4.9 4.9 0 0 0-2.033-.258 6 6 0 0 0-2.153.618l-1.178.575q-.609.3-1.179.64l4.93 10.1q.7-.276 1.4-.617zm25.737-10.447l-4.127-6.079-6.771 4.6 4.127 6.079-4 2.719-11.005-16.211 4-2.719 4.419 6.508 6.771-4.6-4.419-6.509 4.03-2.735 11 16.211zm9.96-7.413l-4 3.27-6.692-20.492 3.362-3.025 19.653 8.832-3.656 3.657-3.43-1.624-6.469 5.821zm-2.744-7.743l4.006-3.6-6.388-3.052zm16.925-21.078a5.66 5.66 0 0 1 3.255-1.239 4.15 4.15 0 0 1 2.921 1.015 4.82 4.82 0 0 1 1.855 4.2 9.07 9.07 0 0 1-2.428 5.089q-.581.679-1.348 1.557t-1.587 1.771q-.82.891-1.6 1.761t-1.422 1.533l-14.899-12.72q.56-.7 1.248-1.551t1.406-1.736q.716-.883 1.426-1.737t1.326-1.577a8.57 8.57 0 0 1 4.408-3.057 4.51 4.51 0 0 1 4.123 1.094 4.84 4.84 0 0 1 1.636 2.589 4.54 4.54 0 0 1-.32 3.008m-9.222 1.752l3.289 2.806 2.225-2.609a3.02 3.02 0 0 0 .82-1.915 2.04 2.04 0 0 0-.774-1.646q-1.556-1.327-3.559 1.018zm11.408 5.188a4.33 4.33 0 0 0 1.142-2.227 1.95 1.95 0 0 0-.763-1.768 1.68 1.68 0 0 0-1.614-.374 3.63 3.63 0 0 0-1.732 1.231l-2.544 2.982 3.2 2.731q.675-.749 1.288-1.421t1.023-1.154m13.049-10.839l-2.806 3.981-16.012-11.293 2.806-3.98z"/></g><g fill="#e1001e"><path d="M287.587 304.642v-11.73l-3.665.88-.784-3.307 7.019-2.023h1.285v16.18zm12.753-16.537a8.2 8.2 0 0 1 2.748.44 6.1 6.1 0 0 1 2.142 1.262 5.6 5.6 0 0 1 1.38 1.963 6.3 6.3 0 0 1 .489 2.522 5.2 5.2 0 0 1-.333 1.833 8 8 0 0 1-.833 1.617l-4.57 6.9h-4.426l3.022-4.5a8 8 0 0 1-2.594-.488 6.4 6.4 0 0 1-2.01-1.19 5.14 5.14 0 0 1-1.31-1.809 5.85 5.85 0 0 1-.463-2.368 6.4 6.4 0 0 1 .488-2.522 5.6 5.6 0 0 1 1.381-1.963 6.1 6.1 0 0 1 2.141-1.262 8.2 8.2 0 0 1 2.748-.435m-3.093 6.186a2.7 2.7 0 0 0 .857 2.094 3.6 3.6 0 0 0 4.509-.011 2.74 2.74 0 0 0 .845-2.083 2.82 2.82 0 0 0-.869-2.165 3.17 3.17 0 0 0-2.249-.809 3.13 3.13 0 0 0-2.236.809 2.84 2.84 0 0 0-.857 2.165"/></g><g fill="#1a1818"><path d="M545.672 364.883a117.79 117.79 0 0 0 0-137.017zM354.084 227.866a117.79 117.79 0 0 0 0 137.017zm114.919 184.72a117 117 0 0 0 38.419-13.443V193.609a117 117 0 0 0-38.419-13.447zm-76.669-13.443a117 117 0 0 0 38.418 13.447V180.162a117 117 0 0 0-38.418 13.447z"/></g><path d="M422.805 210H400.87s-2.789 8.353-4.863 10.209-4.027 3.613-7.243 3.712c-1.866.057-4.082-1.238-4.128-2.166s1.506-1.549 1.395-3.094c-.245-3.406-5.428-4.159-8.549-3.8-2.151.246-5.788 1.637-5.327 4.73s8.463 14.85 8.463 14.85h11.779v9.789l18.411 12.792.335 6.807h-7.118v33.927l7.222 11.224 43.517 74.574 6.345-3.094-8.765-16.926s3.5-2.392 4.872.393 10.868 20.891 11.606 22.3c1.277 2.448-2.539 4.624-3.809 2.357a120 120 0 0 0-1.206-2.091l-5.14 2.908s5.181 9.621 8.7 11.969c3.8 2.532 9.811 2.653 18.909-1.285 7.294-3.158 11.983-5.451 13.707-6.327 4.709-2.393 19.713-9.075 12.3-22.5-5.8-10.5-7.4-14.894-14.078-27.2-1.969-3.626-9.138-16.7-10.9-20.034-3.16-6 .824-12.935 2.632-17.535 5.32-13.54-1.633-30.2-5.561-35.058-2.823-3.49-3.132-3.592-3.858-5.757s-1.185-5.26 2.623-9.591 5.589-5.877 7.4-6.805 9.575-.31 12.623-1.238 7.641-5.619 10.4-8.662c3.482-3.837 4.429-4.4 5.59-5.946s2.636-3.691.314-6.12a5 5 0 0 0-.852-.58 3.4 3.4 0 0 0-4.364.369l-2.743 2.64a17.6 17.6 0 0 1-2.307-2.307c-.989-1.237-2.324-2.693.617-5.786a283 283 0 0 1 4.787-4.9 3.05 3.05 0 0 1 2.149-.888h1.425a2.94 2.94 0 0 0 2.91-3.2v-2.682h-48.145v2.934a3.046 3.046 0 0 0 3.044 2.944h7.573c3.094 0 5.109 1.793 3.185 4.123-2.733 3.31-4.349 4.349-7.184 6.92-1.428 1.295-5.275 4.284-8.369 4.284s-15.794-.066-20.627-.066h-38.926c-4.218 0-7.445-1.648-7.642-5.669s-.365-9.591 4.275-9.591h14.53c4.021.02 5.31-5.857.001-5.857" fill="#e1001e"/><g fill="#1a1818"><path d="M430.663 231.167h38.442v7.102h-38.442zm30.541 19.952h-22.641l-7.9-9.119h38.442z"/></g><path d="M458.138 217.156a15.8 15.8 0 0 1-4.514 5.848c-1.393-3.524-6.2-6.7-5.311-10.51a15.37 15.37 0 0 0-3.122 11.314c-1.448-2-3.725-3.451-4.584-5.669a16.3 16.3 0 0 0 1.959 10.321l-.029.017c-3.034-1.389-5.035-4.554-6.279-7.529a20.28 20.28 0 0 1 1.708-18.209c4.059-6.345 7.025-7.705 6.284-16.173 9.293 5.141-.888 17.864 4.736 18.837 5.648.978 3-10.3 2.817-12.682-.437-5.645.852-10.319 5.332-13.259-3.967 5.884 1.255 12.553 4 18.175 5.177 10.6 6.726 22.486-3.265 30.713.942-3.465 1.495-7.848.268-11.194" fill="#e1001e"/><g fill="#1a1818"><path d="M454.157 339.82l7.259-85.475h-23.064l7.259 85.475zm-7.785 10.411l.4 4.695h6.234l.4-4.695z"/></g><path d="M456.98 345.025a2.443 2.443 0 0 1-2.455 2.43h-9.282a2.443 2.443 0 0 1-2.454-2.43 2.44 2.44 0 0 1 2.454-2.429h9.282a2.44 2.44 0 0 1 2.455 2.429" fill="#1a1818"/><circle cx="34.064" cy="34.064" fill="#fff" r="34.064" transform="translate(416.539 262.286)"/><g fill="#1a1818"><path d="M450.602 259.477a36.872 36.872 0 1 0 36.873 36.872 36.913 36.913 0 0 0-36.873-36.872m18.749 63.98l-.361-.389a.76.76 0 0 1-.119-.867l3.02-5.865a.762.762 0 0 0-1-1.04l-5.987 2.771a.76.76 0 0 1-.862-.155l-4.645-4.684a.762.762 0 0 0-1.3.627l.785 6.55a.76.76 0 0 1-.413.771l-5.886 2.971a.762.762 0 0 0 .2 1.429l6.473 1.277a.76.76 0 0 1 .605.631l.076.491a32.9 32.9 0 0 1-18.8-.039l.081-.525a.76.76 0 0 1 .605-.632l6.473-1.277a.762.762 0 0 0 .2-1.428l-5.892-2.971a.76.76 0 0 1-.413-.771l.785-6.55a.762.762 0 0 0-1.3-.628l-4.646 4.685a.76.76 0 0 1-.862.155l-5.987-2.771a.762.762 0 0 0-1 1.04l3.019 5.865a.76.76 0 0 1-.118.867l-.349.375a33.16 33.16 0 0 1-11.687-14.637l.458-.263a.76.76 0 0 1 .871.08l5.036 4.262a.762.762 0 0 0 1.238-.738l-1.353-6.458a.76.76 0 0 1 .345-.8l5.609-3.474a.761.761 0 0 0-.318-1.4l-6.56-.709a.76.76 0 0 1-.659-.576l-1.569-6.408a.762.762 0 0 0-1.435-.131l-2.7 6.02a.76.76 0 0 1-.752.448l-.551-.041a33 33 0 0 1-.081-2.188 32.76 32.76 0 0 1 4.213-16.1l.569.225a.765.765 0 0 1 .482.731l-.189 6.6a.762.762 0 0 0 1.349.507l4.2-5.087a.76.76 0 0 1 .843-.232l6.214 2.218a.762.762 0 0 0 .9-1.127l-3.539-5.569a.76.76 0 0 1 .041-.874l4.029-5.225a.762.762 0 0 0-.794-1.2l-6.389 1.645a.76.76 0 0 1-.819-.308l-.363-.532a32.9 32.9 0 0 1 16.936-8.211l.174.569a.76.76 0 0 1-.27.832l-5.272 3.968a.762.762 0 0 0 .446 1.371l6.6.11a.765.765 0 0 1 .709.515l2.143 6.239a.762.762 0 0 0 1.442 0l2.143-6.239a.76.76 0 0 1 .708-.515l6.6-.11a.762.762 0 0 0 .446-1.371l-5.272-3.968a.76.76 0 0 1-.271-.832l.179-.585a32.9 32.9 0 0 1 17.007 8.21l-.346.5a.76.76 0 0 1-.819.309l-6.389-1.646a.762.762 0 0 0-.794 1.2l4.029 5.225a.76.76 0 0 1 .04.874l-3.539 5.569a.762.762 0 0 0 .9 1.127l6.214-2.217a.76.76 0 0 1 .843.232l4.2 5.087a.762.762 0 0 0 1.349-.507l-.189-6.595a.76.76 0 0 1 .482-.731l.549-.217a32.75 32.75 0 0 1 4.233 16.127 34 34 0 0 1-.073 2.1l-.558.041a.76.76 0 0 1-.751-.448l-2.7-6.019a.762.762 0 0 0-1.435.131l-1.569 6.407a.76.76 0 0 1-.659.577l-6.559.708a.762.762 0 0 0-.319 1.406l5.609 3.473a.76.76 0 0 1 .345.8l-1.353 6.458a.762.762 0 0 0 1.238.737l5.036-4.262a.76.76 0 0 1 .872-.078l.485.278a33.15 33.15 0 0 1-11.841 14.799"/><path d="M465.007 299.073l-6.7-3.505a.763.763 0 0 1-.262-1.126l4.464-6.1a.762.762 0 0 0-.923-1.147l-6.916 3.05a.763.763 0 0 1-1.043-.5l-1.986-7.293a.762.762 0 0 0-1.472.006l-1.928 7.309a.762.762 0 0 1-1.038.5l-6.94-2.995a.762.762 0 0 0-.914 1.155l4.513 6.064a.763.763 0 0 1-.253 1.128l-6.668 3.559a.761.761 0 0 0 .334 1.433l7.554.253a.764.764 0 0 1 .724.9l-1.375 7.433a.761.761 0 0 0 1.328.633l4.908-5.748a.764.764 0 0 1 1.156-.005l4.953 5.709a.762.762 0 0 0 1.324-.643l-1.434-7.422a.763.763 0 0 1 .716-.906l7.553-.313a.762.762 0 0 0 .325-1.429"/></g></g></g></svg>