<svg viewBox="183.78 72.18 656.48 879.42" xmlns="http://www.w3.org/2000/svg"><g fill-rule="evenodd"><path d="M511.915 72.185q10.705-.003 24.345.9 29.9 1.975 58.71 9.725 35.11 9.44 65.56 25.37 61.81 32.35 105.4 86.13 38.39 47.39 57.86 105.43 11.26 33.57 14.96 69.06 1.52 14.61 1.51 48.52-.06 192.82-.02 212.93c.04 18.2-2.47 35.94-5.97 54.01q-6.87 35.47-21.35 68.17-37.71 85.13-113.22 139.27-20.28 14.54-41.14 25.02c-12.13 6.1-27.09 12.91-41.07 17.6q-19.09 6.41-36.87 10.327c-22.344 4.923-45.162 6.947-68.442 6.954s-46.1-2.004-68.447-6.913q-17.782-3.907-36.876-10.305c-13.983-4.682-28.947-11.483-41.081-17.576q-20.866-10.467-41.154-24.995-75.543-54.095-113.304-139.202-14.499-32.692-21.39-68.158c-3.511-18.067-6.032-35.806-6.003-54.006q.028-20.11-.147-212.93-.03-33.91 1.481-48.521 3.679-35.492 14.919-69.069 19.435-58.051 57.797-105.464 43.558-53.806 105.349-86.193 30.44-15.948 65.544-25.409 28.806-7.768 58.704-9.76 13.64-.912 24.345-.915M546.52 921.67q7-.6 16.16-2.07 15.84-2.56 32.54-7.69 28.66-8.8 56.76-23.69 9.85-5.22 28.69-17.72 5.56-3.69 8.49-6.24c6.62-5.78 13.76-10.37 20.34-16.67q18.81-17.98 27.05-27.55 15.49-17.96 25.99-34.22 6.79-10.53 18-32.05 3.45-6.62 6.22-13.52c4.58-11.42 7.74-18.28 10.92-29.29q4.5-15.56 4.55-15.75 4.73-18.6 6.48-33.96 1.02-8.98 2.18-27.32c.14-2.19.71-4.87.71-6.68l-.05-81.25q-.08-118.51-.05-123.75.14-20.1-.83-41-.09-2.04-1.37-14.16c-1.05-10.09-2.93-18.29-4.8-29.57-.86-5.15-3.29-12.05-4.72-17.91q-2.13-8.71-3.14-11.27c-2.41-6.06-5.71-14.59-8.61-21.11q-3.24-7.26-4.91-11.63-2.19-5.72-5.33-11.4-9.39-17.02-17.24-29.11c-2.71-4.17-5.52-7.77-7.66-10.88q-3.05-4.45-6-8.06-14.35-17.52-27.8-30.73-34.07-33.49-78.31-55.73c-10.66-5.37-23.13-10.09-34-13.69q-10.91-3.61-30.42-8.8c-7.06-1.88-12.92-2.48-19.69-3.61-10.27-1.72-25.17-2.45-32.67-2.97q-11.29-.78-31.52.6c-21.99 1.51-43.46 4.56-64.44 11.14q-19.84 6.22-30.21 10.75-5.69 2.48-20.78 10.08c-23.81 12-45.99 28.16-65.83 46.02q-7.27 6.54-13.36 13.15-9.34 10.13-12.56 13.93-14.34 16.9-28.19 38.54-4.68 7.32-7.07 12.22c-3.85 7.9-8.44 15.5-11.72 23.43q-6.57 15.94-11.67 31.16-11.4 34.03-13.22 69.36c-.76 14.68-.46 28.64-.76 40.68q-.31 12.35-.14 20.65c.37 17.98-.65 38.54.3 59.43q.27 5.86-.09 16.99-.54 17.35-.03 30.35.5 12.69.12 23.8-.65 19.19-.33 47.32c.09 8.74.71 15.91 1.4 27q.83 13.35 3.83 30.89 2.49 14.62 6.19 25.25 3.34 9.6 7.27 21.97 2.28 7.19 10.79 25.69 1.6 3.48 10.8 20.12 6.11 11.05 12.02 19.41c17.86 25.27 37.58 48.13 61.38 66.78q14.38 11.28 25.83 18.91c13.38 8.93 26.2 15.22 42.49 23.09q5.65 2.74 8.89 3.8c7.62 2.49 14.94 5.73 22.77 8.07 16.18 4.82 33.12 8.62 50.18 10.28q2.18.22 15.17 1.57 6.86.72 27.99.82 4.13.02 13.52-.96 4.46-.47 13.5-1.24" fill="#1426af"/><path d="M533.02 922.91q-9.39.98-13.52.96-21.13-.1-27.99-.82-12.99-1.35-15.17-1.57c-17.06-1.66-34-5.46-50.18-10.28-7.83-2.34-15.15-5.58-22.77-8.07q-3.24-1.06-8.89-3.8c-16.29-7.87-29.11-14.16-42.49-23.09q-11.45-7.63-25.83-18.91c-23.8-18.65-43.52-41.51-61.38-66.78q-5.91-8.36-12.02-19.41-9.2-16.64-10.8-20.12-8.51-18.5-10.79-25.69-3.93-12.37-7.27-21.97-3.7-10.63-6.19-25.25-3-17.54-3.83-30.89c-.69-11.09-1.31-18.26-1.4-27q-.32-28.13.33-47.32.38-11.11-.12-23.8-.51-13 .03-30.35.36-11.13.09-16.99c-.95-20.89.07-41.45-.3-59.43q-.17-8.3.14-20.65c.3-12.04 0-26 .76-40.68q1.82-35.33 13.22-69.36 5.1-15.22 11.67-31.16c3.28-7.93 7.87-15.53 11.72-23.43q2.39-4.9 7.07-12.22 13.85-21.64 28.19-38.54 3.22-3.8 12.56-13.93 6.09-6.61 13.36-13.15c19.84-17.86 42.02-34.02 65.83-46.02q15.09-7.6 20.78-10.08 10.37-4.53 30.21-10.75c20.98-6.58 42.45-9.63 64.44-11.14q20.23-1.38 31.52-.6c7.5.52 22.4 1.25 32.67 2.97 6.77 1.13 12.63 1.73 19.69 3.61q19.51 5.19 30.42 8.8c10.87 3.6 23.34 8.32 34 13.69q44.24 22.24 78.31 55.73 13.45 13.21 27.8 30.73 2.95 3.61 6 8.06c2.14 3.11 4.95 6.71 7.66 10.88q7.85 12.09 17.24 29.11 3.14 5.68 5.33 11.4 1.67 4.37 4.91 11.63c2.9 6.52 6.2 15.05 8.61 21.11q1.01 2.56 3.14 11.27c1.43 5.86 3.86 12.76 4.72 17.91 1.87 11.28 3.75 19.48 4.8 29.57q1.28 12.12 1.37 14.16.97 20.9.83 41-.03 5.24.05 123.75l.05 81.25c0 1.81-.57 4.49-.71 6.68q-1.16 18.34-2.18 27.32-1.75 15.36-6.48 33.96-.05.19-4.55 15.75c-3.18 11.01-6.34 17.87-10.92 29.29q-2.77 6.9-6.22 13.52-11.21 21.52-18 32.05-10.5 16.26-25.99 34.22-8.24 9.57-27.05 27.55c-6.58 6.3-13.72 10.89-20.34 16.67q-2.93 2.55-8.49 6.24-18.84 12.5-28.69 17.72-28.1 14.89-56.76 23.69-16.7 5.13-32.54 7.69-9.16 1.47-16.16 2.07-9.04.77-13.5 1.24M294.7 803.54c7.99 9.47 16.33 17.54 24.69 26.14 5.39 5.54 11.53 10.39 17.03 15.65 2.83 2.71 5.44 4.32 8.32 6.6q1.9 1.51 6.6 4.48 13.05 8.26 17.49 11.21c5.09 3.39 10.08 5.32 14.57 8.32q3.07 2.06 9.39 4.78c5.41 2.34 10.36 5.2 16.07 7q3.02.95 6.49 2.58 4.97 2.34 12.05 4.5 14.24 4.35 24.55 6.7 9.67 2.21 34.06 4.91 18.21 2.02 38.43 1.2 11.99-.49 31.96-3.35c7.4-1.06 12.71-2.68 20.1-4.29 22.29-4.85 43.94-13.25 63.88-24.1q15.15-8.25 18.46-10.31 2.18-1.36 16.81-11.44c4.47-3.08 8.36-6.64 12.94-10.13 5.67-4.31 12.21-11 17.53-15.7q4.76-4.2 8.01-7.84c6.62-7.4 13.28-14.36 19.51-22.83q3.83-5.23 11.06-14.91 2.15-2.89 12.25-19.62c4.12-6.83 7.46-14.66 11.19-21.76 2.17-4.15 3.46-7.86 5.73-12.79q1.51-3.28 3.71-9.84c6.34-18.85 12.22-39.31 14.85-58.62 1.07-7.79 1.25-17.29 1.86-26.41q.47-7.06.46-19.85c0-14.6.33-28.63-.15-46.32q-.1-3.5.18-7.5c.55-7.78.26-17.59.34-23.01q.11-7.45-.24-15.49-.49-11.6.02-26c.14-4.08-.13-8.43.07-12.01q.19-3.36-.1-8.98-.24-4.57 0-18.26.25-14.47-.12-49.49-.13-12.91-2.48-41.86-.53-6.52-1.66-12.62-2.05-11.07-2.44-12.5-4.9-17.97-10.56-35.37-1.47-4.52-7.47-17.91-10.06-22.5-23.97-43.34-5.85-8.76-11-14.77-.99-1.17-11.42-14.48c-3.31-4.24-7.55-8.35-10.8-11.8-5.49-5.83-10.62-10.24-16.57-15.67q-4.23-3.86-8.18-6.96-13.33-10.45-15.89-12.28-8.73-6.24-23.27-14.95-6.48-3.88-30.16-14.57-10.51-4.74-26.55-9.76-12.58-3.93-27.48-6.62-22.18-4.01-42.85-4.75c-9.21-.34-18.97-.06-26 .28q-21.7 1.04-42.46 5.41-5.94 1.25-8.27 2c-7.23 2.3-13.76 3.57-20.35 6.03-6.45 2.4-11.32 3.49-17.26 6.16q-2.06.93-17.38 7.77c-5.1 2.27-8.81 4.81-13.02 6.69q-4.02 1.8-9.43 5.56-9.82 6.82-21.1 14.02-1.15.74-3.14 2.82a6.473 6.374 3.807 0 1-.94.81q-22.81 16.3-40.39 37.74c-2.31 2.82-5.58 5.6-7.5 8.18-5.52 7.44-10.34 13.27-14.59 19.99q-4.24 6.71-5.75 8.62-1.91 2.4-3.36 5.63-.12.28-3.41 5.61-11 17.84-18.65 38.35c-4.48 11.98-7.78 20.06-10.46 30.48q-3.7 14.39-5.36 25.82c-1.03 7.08-1.78 10.61-2.3 16.35q-.67 7.33-1.65 18.16c-1.09 11.93-.14 26.5-.25 36.64q-.07 6.67-.31 24.69c-.09 6.06.61 13.77.46 18.54-.47 14.05.18 39.03-.39 66.27-.21 10.32.18 19.13.07 29.45-.15 14.15.34 26.41-.03 39.63-.21 7.36.03 24.51.67 36.82q.33 6.27.87 12.62.58 6.82 3.89 21.37 3.32 14.58 6.79 29.11 1.06 4.46 2.34 7.26 1.85 4.09 2.8 7.1 1.02 3.2 4.22 10.63 1.69 3.9 6.92 16.1 2.35 5.47 13.58 24.47 2.48 4.2 4.02 6.06 2.52 3.03 4.01 5.95c2.69 5.27 7.18 10.43 10.79 15.6q1.03 1.46 5.02 6.2" fill="#0155ca"/><path d="M294.7 803.54q-3.99-4.74-5.02-6.2c-3.61-5.17-8.1-10.33-10.79-15.6q-1.49-2.92-4.01-5.95-1.54-1.86-4.02-6.06-11.23-19-13.58-24.47-5.23-12.2-6.92-16.1-3.2-7.43-4.22-10.63-.95-3.01-2.8-7.1-1.28-2.8-2.34-7.26-3.47-14.53-6.79-29.11-3.31-14.55-3.89-21.37-.54-6.35-.87-12.62c-.64-12.31-.88-29.46-.67-36.82.37-13.22-.12-25.48.03-39.63.11-10.32-.28-19.13-.07-29.45.57-27.24-.08-52.22.39-66.27.15-4.77-.55-12.48-.46-18.54q.24-18.02.31-24.69c.11-10.14-.84-24.71.25-36.64q.98-10.83 1.65-18.16c.52-5.74 1.27-9.27 2.3-16.35q1.66-11.43 5.36-25.82c2.68-10.42 5.98-18.5 10.46-30.48q7.65-20.51 18.65-38.35 3.29-5.33 3.41-5.61 1.45-3.23 3.36-5.63 1.51-1.91 5.75-8.62c4.25-6.72 9.07-12.55 14.59-19.99 1.92-2.58 5.19-5.36 7.5-8.18q17.58-21.44 40.39-37.74a6.473 6.374 3.807 0 0 .94-.81q1.99-2.08 3.14-2.82 11.28-7.2 21.1-14.02 5.41-3.76 9.43-5.56c4.21-1.88 7.92-4.42 13.02-6.69q15.32-6.84 17.38-7.77c5.94-2.67 10.81-3.76 17.26-6.16 6.59-2.46 13.12-3.73 20.35-6.03q2.33-.75 8.27-2 20.76-4.37 42.46-5.41c7.03-.34 16.79-.62 26-.28q20.67.74 42.85 4.75 14.9 2.69 27.48 6.62 16.04 5.02 26.55 9.76 23.68 10.69 30.16 14.57 14.54 8.71 23.27 14.95 2.56 1.83 15.89 12.28 3.95 3.1 8.18 6.96c5.95 5.43 11.08 9.84 16.57 15.67 3.25 3.45 7.49 7.56 10.8 11.8q10.43 13.31 11.42 14.48 5.15 6.01 11 14.77 13.91 20.84 23.97 43.34 6 13.39 7.47 17.91 5.66 17.4 10.56 35.37.39 1.43 2.44 12.5 1.13 6.1 1.66 12.62 2.35 28.95 2.48 41.86.37 35.02.12 49.49-.24 13.69 0 18.26.29 5.62.1 8.98c-.2 3.58.07 7.93-.07 12.01q-.51 14.4-.02 26 .35 8.04.24 15.49c-.08 5.42.21 15.23-.34 23.01q-.28 4-.18 7.5c.48 17.69.15 31.72.15 46.32q.01 12.79-.46 19.85c-.61 9.12-.79 18.62-1.86 26.41-2.63 19.31-8.51 39.77-14.85 58.62q-2.2 6.56-3.71 9.84c-2.27 4.93-3.56 8.64-5.73 12.79-3.73 7.1-7.07 14.93-11.19 21.76q-10.1 16.73-12.25 19.62-7.23 9.68-11.06 14.91c-6.23 8.47-12.89 15.43-19.51 22.83q-3.25 3.64-8.01 7.84c-5.32 4.7-11.86 11.39-17.53 15.7-4.58 3.49-8.47 7.05-12.94 10.13q-14.63 10.08-16.81 11.44-3.31 2.06-18.46 10.31c-19.94 10.85-41.59 19.25-63.88 24.1-7.39 1.61-12.7 3.23-20.1 4.29q-19.97 2.86-31.96 3.35-20.22.82-38.43-1.2-24.39-2.7-34.06-4.91-10.31-2.35-24.55-6.7-7.08-2.16-12.05-4.5-3.47-1.63-6.49-2.58c-5.71-1.8-10.66-4.66-16.07-7q-6.32-2.72-9.39-4.78c-4.49-3-9.48-4.93-14.57-8.32q-4.44-2.95-17.49-11.21-4.7-2.97-6.6-4.48c-2.88-2.28-5.49-3.89-8.32-6.6-5.5-5.26-11.64-10.11-17.03-15.65-8.36-8.6-16.7-16.67-24.69-26.14m189.83-672.25l-6.62 1.1q-14.77.66-28.96 5.19l-5.39 1.07q-3.5.23-6.24 1.2-8.51 3.01-15.74 5.58l-6.7 2.74-22.92 10.15-6.86 4.03q-2.83.62-4.66 2.35l-6.23 3.72q-10.85 6.55-21.18 14.47l-6.38 4.55q-2.49 1.49-3.96 3.53l-6.23 5.06q-8.71 8.22-17.25 16.68-.4.4-.47 1.09-.72 0-1.43.76-2.01 2.19-4.24 4.43l-4.75 6.11-5.15 5.91q-2.95 2.78-5.11 6.04-4.14 6.24-4.24 6.38-2.96 4.01-5.78 8.25l-4.28 6.91q-2.17 2.51-3.19 5.17l-3.73 6.45q-5.5 9.91-10.3 20.05-.13.27-.16 1.28-.5.14-.75.58-1.4 2.45-3.17 7.35-1.51 2.26-2.25 6.76l-3.22 6.94q-4.51 12.09-7.06 24.47-1.35 2.8-1.77 7.48l-1.47 7.41-1.1 7.34q-.41 3.81-1.13 7.44-.82 4.22-1.06 7.43-.35 4.78-.84 9.56l-.59 7.5q-.81 3.5-.12 7.12l-.13 8.52.26 23.1.02 7.92.06 7.07-.1 7.81-.09 23.44.2 8.4.14 7.18-.31 7.92-.05 24.23.43 8.17q-.83 3.5-.18 6.95l.11 8.1-.32 23.36.15 8.22q-.77 3.54-.06 7.57l.19 7.97-.39 23.54.18 8.06q-.78 4.05.27 7.37l.73 7.24 2.89 23.85 1.31 7.93 1.63 7.23 1.61 7.44 7.54 23.67 2.92 7.49 2.47 6.62 3.05 7.43 11.14 21.7 4.34 7.01 3.22 5.23 3.99 7.1 15.03 19.78q1.75 3.38 5.13 6.58l3.83 4.59 5.85 6.48c3.27 3.39 6.4 6.12 9.95 9.92q3.11 3.34 6.77 6.01 2.54 3.4 6.85 5.68l4.57 4.01 7.34 5.57 17.86 11.8a2.217 1.996 66.439 0 0 .66.3l1.37.37q-.04.47.32.75 2.68 2.11 6.21 4.24l16.87 9.1a1.568 1.533 56.955 0 0 .85.19l1.25-.09q-.07.31 0 .57.06.22.36.36 12.14 5.63 16.03 6.62 4.05 1.04 7.02 1.87 16.63 7.02 32.08 10.26 2.5.52 6.35.29 4.35 2.64 9.93 3.08l5.68.04a.839.818 64.16 0 1 .47.17q.61.49 2.03.65 13.79 1.61 28.1 1.69a2.426 2.407 33.342 0 0 .94-.19l1.7-.69q-.03 1.04.55 1.03 9.15-.25 18.29-.4c2.01-.03 3.79-.46 5.68-.97q11.58-.08 22.6-2.78l7.73-1.69q2.95-.71 5.87-1.27c5.21-.98 9.56-2.71 14.31-4.32q1.79-.6 4.01-.97 2.12-.34 4.06-.72l7.07-2.37 16.31-6.5 5.67-2.21 18.69-10.15 6.4-3.63 21.49-14.76 5.55-4.4 4.77-4.13 6.56-4.58 17.97-18.21 5.88-5.78 3.87-4.88 5.54-6.11 15.06-20.75 4.18-6.23q1.69-1.95 3.05-5.37l4.42-7.04 11.22-21.26 2.97-7.13 2.26-6.68 2.99-7.63q4.5-11.44 7.09-23.53l1.81-7.93 1.65-7.77 1.44-7.15 3.18-24.46.18-3.94.61-10.47-.07-7.94.01-24.3-.05-7.4.08-7.87-.02-7.54-.04-23.87-.22-7.14.08-7.88.07-7.63.01-24.54-.09-7.19.25-7.97-.02-7.62-.14-23.93-.07-7.47.03-6.95.22-7.55-.37-24.2.28-7.36-.23-12.23-.17-3.04-3.12-25.25-1.29-7.02q.12-4.31-1.26-8.23l-1.6-6.24q-.73-5.89-2.91-11.67t-2.7-7.4q-1.21-3.77-2.51-7.49l-2.32-5.72-2.61-7.38-2.99-6.88-11.7-23.64-2.7-4.27-3.87-5.98-3.66-6.09q-6.41-9.81-10.46-15.27-2.31-3.12-5.82-6.39l-5.29-5.66q-1.47-3.26-3.84-5.21l-5.12-5.4q-9.19-10.13-19.48-18.49l-5.69-4.88q-1.55-3.07-4.4-3.9l-6.21-5.13-21.9-14.46-6.41-3.71q-3.22-2.45-4.57-1.88l-6.77-3.96-22.76-10.28-7.43-2.29q-3.37-1-6.66-2.65-4.66-2.34-6.53-2.88-5.24-1.51-10.89-1.6l-10.29-2.12q-1.14-1.12-1.85-1.24-7.51-1.31-22.49-2.93-4.71.58-9.38-.7-2.82-1.5-5.77-1.42-17.87.52-30.48 0-5.32-.22-10.73 2" fill="#1426af"/><path d="M531.51 130.71q-8.66 13.18-18.41 25.4-.5.63-2.15 3.75a2 2 63.587 0 0-.19.57l-.78 5.4a.713.708 6.883 0 0 .64.81l18.11 1.63a.462.45 3.962 0 1 .42.47l-.35 8.7-38.8.04q4.74-10.11 9.24-19.55 3.06-6.42 1.92-13.13-2.31-13.59-16.63-13.51 5.41-2.22 10.73-2 12.61.52 30.48 0 2.95-.08 5.77 1.42" fill="#0155ca"/><path d="M540.89 131.41l-2.52 28.54a.787.742-24.882 0 1-.16.4q-.39.47-.19 1a.586.583 82.052 0 0 .5.38l5.16.46a.56.56 32.326 0 1 .51.61l-.51 5.64a.914.904 5.052 0 1-.99.82l-4.21-.38a1.085 1.085-84.926 0 0-1.17.98l-.78 8.65q-3.1.96-6.85.43a1.08 1.049-9.46 0 1-.78-.54q-.28-.53-.1-.96l.35-8.7a.462.45 3.962 0 0-.42-.47l-18.11-1.63a.713.708 6.883 0 1-.64-.81l.78-5.4a2 2-77.751 0 1 .19-.57q1.65-3.12 2.15-3.75 9.75-12.22 18.41-25.4 4.67 1.28 9.38.7m-8.795 11.749a.38.38 40.191 0 0-.679-.267l-12.859 16.558a.38.38 89.803 0 0 .266.612l11.289 1.004a.38.38 16.443 0 0 .412-.344zM484.53 131.29q14.32-.08 16.63 13.51 1.14 6.71-1.92 13.13-4.5 9.44-9.24 19.55-.16 1.39-1.49 1.56-4.05.5-8.5.21l8.84-16.78a.274.269-83.92 0 0-.31-.39c-12.66 3.51-21.66-5.98-19.24-18.33q1.34-6.8 8.61-11.36zm9.186 14.244a7.47 7.47 0 0 0-7.727-7.205l-1.499.052a7.47 7.47 0 0 0-7.204 7.727l.078 2.258a7.47 7.47 0 0 0 7.727 7.205l1.499-.052a7.47 7.47 0 0 0 7.204-7.727z" fill="#fefeff"/><path d="M565.23 135.58q-.48-.12-.88.03a.705.699-3.399 0 0-.43.48l-6.3 23.27a.762.761 11.904 0 0 .62.95q2.47.38 5.27.16c5.65-.44 12.72 1.65 12.6 8.32q-.15 9.07-9.26 8.04c-3.41-.38-6.4-2.21-5.72-6.31a.695.694 7.17 0 0-.63-.81l-5.49-.5a.952.95 15.932 0 0-.92.51c-2.42 4.58.14 7.54 3.29 11.34q-10.71-.29-20.85-2.55l.78-8.65a1.085 1.085-84.926 0 1 1.17-.98l4.21.38a.914.904 5.052 0 0 .99-.82l.51-5.64a.56.56-1.06 0 0-.51-.61l-5.16-.46a.586.583 82.052 0 1-.5-.38q-.2-.53.19-1a.787.742-24.882 0 0 .16-.4l2.52-28.54q14.98 1.62 22.49 2.93.71.12 1.85 1.24m-87.32-3.19q-7.27 4.56-8.61 11.36c-2.42 12.35 6.58 21.84 19.24 18.33a.274.269-83.92 0 1 .31.39l-8.84 16.78q-3.09.21-7.99 1.71-4.53 1.38-11.14 1.91l-11.93-45.29q14.19-4.53 28.96-5.19" fill="#0155ca"/><path d="M565.23 135.58l10.29 2.12 12.15 3.67a.777.772-81.324 0 1 .54.74q0 2.57-1.14 5.07.01.9-.83.81-1.65-.18-7.82-1.5l-8.15-1.81a.517.512-75.958 0 0-.61.37l-2.22 8.22a.437.433 11.292 0 0 .37.55l6.4.75q3.89 1.42 7.09 4.42 5.88 9.49-.11 19.2-2.65 4.31-8.91 6.1-8.1.56-14.9-3.23c-3.15-3.8-5.71-6.76-3.29-11.34a.952.95 15.932 0 1 .92-.51l5.49.5a.695.694 7.17 0 1 .63.81c-.68 4.1 2.31 5.93 5.72 6.31q9.11 1.03 9.26-8.04c.12-6.67-6.95-8.76-12.6-8.32q-2.8.22-5.27-.16a.762.761 11.904 0 1-.62-.95l6.3-23.27a.705.699-3.399 0 1 .43-.48q.4-.15.88-.03m-116.28 2l11.93 45.29q-3.94 1.94-8.13 1.98l-8.13-34.39a.529.528 60.653 0 0-.89-.25l-6.58 6.57a.487.486-41.095 0 1-.74-.05l-3.96-5.27a.509.495 48.5 0 1 .03-.64l11.08-12.17z" fill="#fefeff"/><path d="M599.6 144.83l-4.65 48.36a.474.471 13.843 0 1-.65.39l-22.02-9.29q6.26-1.79 8.91-6.1 5.99-9.71.11-19.2.77-6.25 5.72-10.21a.797.79 63.492 0 0 .27-.82l-.22-.78q1.14-2.5 1.14-5.07a.777.772-81.324 0 0-.54-.74l-12.15-3.67q5.65.09 10.89 1.6 1.87.54 6.53 2.88 3.29 1.65 6.66 2.65m-105.806 2.962a7.47 7.47 0 0 1-7.204 7.727l-1.499.052a7.47 7.47 0 0 1-7.727-7.205l-.078-2.258a7.47 7.47 0 0 1 7.204-7.727l1.499-.052a7.47 7.47 0 0 1 7.727 7.205zm-50.234-9.142l-11.08 12.17a.509.495 48.5 0 0-.03.64l3.96 5.27a.487.486-41.095 0 0 .74.05l6.58-6.57a.529.528 60.653 0 1 .89.25l8.13 34.39q-7.5 2.17-9.76 3.14-6.84 2.97-13.9 5.43a.864.857-15.793 0 1-1.12-.62q-.86-3.79-1.68-9.75-2.55-18.62-4.71-37.62 7.23-2.57 15.74-5.58 2.74-.97 6.24-1.2" fill="#0155ca"/><path d="M532.095 143.159l-1.571 17.563a.38.38 41.332 0 1-.412.344l-11.289-1.004a.38.38-62.645 0 1-.266-.612l12.859-16.558a.38.38-79.006 0 1 .679.267" fill="#0092e9"/><path d="M578.42 146.49q.58 5.62-4.21 8.08l-6.4-.75a.437.433 11.292 0 1-.37-.55l2.22-8.22a.517.512-75.958 0 1 .61-.37z" fill="#0155ca"/><path d="M607.03 147.12l-3.38 33.36a.251.251-18.332 0 0 .42.21l25.72-23.29 6.77 3.96-36.71 33.96a.686.683 35.984 0 0 .18 1.12q13.86 6.47 28.15 15.34a.71.705-66.625 0 0 1.05-.42q3.28-12.1 5.65-25.17.9-4.93 6.25-22.95l6.41 3.71-8.13 33.71a.442.438 4.808 0 0 .46.54q.51-.03.97-.34 9.23-6.19 15.97-10.8c2.94-2.02 8.66-5.23 12.63-8.65l6.21 5.13q-8.43 5.8-16.9 11.18-7.46 4.74-12.36 8.28-5.98 4.32-12.18 8.58a.851.843-46.082 0 0 .02 1.41q3.16 2 3.9 2.62 11.43 9.5 21.93 18.64a.705.705 26.15 0 0 1.12-.28c2.89-7.41 6.24-18.76 10.42-27.97q3.08-6.78 4.39-9.42.32-.64 1.86-4.65.92-2.37 2.2-4.49l5.69 4.88q-3.16 6.07-5.33 12.65-2.35 7.17-3.46 9.66-1.78 3.97-4.04 9.48-.14.33-.09.49.2.61.76.34c2.94-1.41 6.37-2.63 9.88-4.36q10.8-5.34 21.76-9.77l5.12 5.4q-5.79 2.84-11.33 5.59c-9.32 4.62-18.28 7.99-27.91 12.71-2.12 1.03-4.81 1.8-6.67 2.72a.694.693-37.544 0 0-.15 1.14q1.78 1.57 4.19 4.52.52.63 4.18 4.32 4.08 4.11 8.18 9.76 1.99 2.72 4.69 5.31a1.07 1.065-48.147 0 0 1.57-.09q1.08-1.33 2.48-3.61 8.63-14.07 13.96-22.16 1.43-2.15 5.43-7.42 2.75-3.63 5.22-7.58l5.29 5.66q-3.31 3.82-5.87 7.98-4.94 8-5.24 8.45-5.59 8.22-8.47 12.68a.376.375-80.163 0 0 .4.57l35.46-8.02 3.66 6.09q-22.45 6.41-44.66 11.24-3.86.84-4.46 1.03a.654.653-28.436 0 0-.31 1.04c3.21 3.91 5.19 8.37 7.98 12.56q2.55 3.81 5.4 9.36c.86 1.67 2.22 3.38 3.29 5.07a.589.578 57.987 0 0 .79.19q1.48-.9 2.86-2.27 9.81-9.69 22.77-23.05.26-.27 3.42-3.94 2.84-3.3 6.79-5.25l2.7 4.27q.08 2.57-.51 3.13-11.13 10.6-14.72 14.79-3.97 4.64-8.11 9.11a.37.369-71.634 0 0 .31.62l34.73-4.01 2.99 6.88q-15.02 2.85-21.42 3.16c-8.37.41-19.33 2.21-28.9 2.66a.917.911-13.16 0 0-.8 1.28q3.96 8.9 5.6 12 2.64 5.02 3.59 8.44 1.68 6.09 2.36 8.86a1.427 1.423-27.155 0 0 2.31.74q6.38-5.42 9.65-7.65 5.7-3.87 10-7.14 9.87-7.53 20.22-14.97l2.32 5.72-.12 1.49a1.601 1.594-16.271 0 1-.65 1.18l-26.47 19.87a.363.358-61.687 0 0 .19.65c4.4.26 8.25.91 12.9 1.08q11.3.44 22.27 2.29l1.6 6.24q-.19.82-1.32.76-18.14-.93-23.25-1.55-11.67-1.41-24.5-2.72-.63-.06-1.97-.31a.952.946 86.468 0 0-1.08 1.23q5.12 15.96 7.09 32.22a.951.949-17.575 0 0 1.39.72q22.01-11.63 44.9-22.12l1.29 7.02-30.15 16.47a.173.173 37.961 0 0 .04.32l33.23 8.46.17 3.04-.07 2.3a1.163 1.162 6.223 0 1-1.37 1.1c-10.62-1.9-20.33-4.61-30.74-6.68q-7.34-1.47-16.64-4.11a.643.64-82.819 0 0-.82.64q.21 5.59.69 10.15c.93 8.94.69 14.47.64 24.88a.791.788 83.351 0 0 .97.77c5.46-1.26 10.44-3.69 15.68-5.6 10.58-3.88 19.62-6.84 27.28-10.25q2.3-1.02 4.61-.97l-.28 7.36-32.33 12.38a.272.271-46.18 0 0 .01.51l32.69 11.31-.22 7.55-47.6-16.02a.524.519 9.314 0 0-.69.49v38.16a.784.783-9.552 0 0 1.04.74l47.22-16.42.07 7.47q-15.54 6.64-31.71 11.71a.562.561 60.411 0 0-.25.91q.16.18.62.32 11.95 3.68 21.65 7.25c2.67.99 6.43 2.74 9.83 3.74l.02 7.62q-2.09-.34-9.25-2.81-14.3-4.93-16.94-5.98c-9.25-3.68-13.76-5.22-21.8-7.97a.55.546-80.265 0 0-.73.52v39.75a.785.78 82.616 0 0 .98.76q2.42-.65 2.47-.67 10.05-3.94 17.99-6.37c3.58-1.09 7.79-3.16 10.8-4.11q8.1-2.56 16.23-5.15l.09 7.19q-10.1 4.49-20.14 7.79-8.08 2.66-11.53 4.06a.494.492 44.449 0 0 .01.92l31.65 11.77-.07 7.63q-13.78-4.26-26.91-9.36-18.86-7.33-20.19-7.8a.91.91 9.578 0 0-1.21.86v39.27a.9.899-8.407 0 0 1.16.86q7.27-2.14 13.48-4.65 16.4-6.6 33.59-11.3l.22 7.14-31.37 11.82a.203.203 40.042 0 0 0 .38l25.52 9.3a1.625.347 16.34 0 0 .17.08q2.57 1.4 5.72 2.29l.02 7.54q-18.75-5.6-36.27-13.15-5.59-2.4-11.31-4.28a.817.807-80.979 0 0-1.06.78v39.52a.557.556 80.92 0 0 .73.53l47.83-15.53.05 7.4-31.35 11.86a.257.253-43.015 0 0-.02.47c10.21 4.67 20.98 7.81 31.36 11.97l.07 7.94q-7.32-1.78-12.34-3.95-12.21-5.28-18.37-7.35c-5.85-1.96-11.68-5.09-16.9-6.73a.956.95-79.781 0 0-1.23.86c-.24 4.81.53 10.08.16 15.72q-.75 11.43-1.74 18.37a.694.693 87.143 0 0 .85.77c9.79-2.44 13.72-3.65 22.21-5.08 7.7-1.29 16.82-4.17 25.54-5.29a.86.86-21.274 0 1 .82.36q.68.95.39 2.79l-.18 3.94-33.65 7.77a.243.241-37.64 0 0-.06.45l30.53 16.24-1.44 7.15q-7.88-4.36-15.95-8.01-10.65-4.82-14.7-6.94-11.41-5.97-14.35-7.66a.866.863 18.524 0 0-1.29.64q-1.99 15.9-6.2 31.54a.939.932 5.835 0 0 .96 1.17l49.88-2.97-1.81 7.93-35.02 1.99a.251.248 61.428 0 0-.13.45l28.06 21.09-2.99 7.63-39.91-29.57a.963.963-62.855 0 0-1.49.48q-4.56 14.34-11.41 27.04-.79 1.45-.87 2.78a.832.831-86.933 0 0 .79.88q19.59 1.11 40.99 3.29.14.01 3.29.2 3.51.21 6.35 1.58l-2.97 7.13-35.5-4.23a.35.348-18.975 0 0-.29.59l24.57 24.9-4.42 7.04c-3.24-3.28-6.92-6.44-9.73-9.6q-4.2-4.73-7.24-7.71c-4.79-4.69-9.7-10.69-13.17-14q-2.78-2.66-4.2-3.61a.899.898 30.438 0 0-1.31.34c-2.47 4.9-4.34 8.54-7.15 12.58q-5.54 7.99-9.08 13.73a1.115 1.11-68.145 0 0 .71 1.67q17.09 3.76 30.78 6.97 4.73 1.11 17.34 5l-4.18 6.23-34.35-8.19a.405.402 78.884 0 0-.42.63l10.87 15.13a1.693 1.558 16.053 0 1 .14.23q3.43 6.73 8.7 12.95l-5.54 6.11-27.27-40.44a1.062 1.06 45.276 0 0-1.75-.01q-9.11 13.17-20.49 24.36a.932.927 35.309 0 0 .26 1.5c9.3 4.42 18.77 7.18 28.7 11.74q8.35 3.84 16.68 7.73l-5.88 5.78-30.08-13.23a.461.457 23.281 0 0-.61.24q-.15.35.01.89.79 2.5 3.75 8.37 1.8 3.56 3.61 8.41 2.54 6.8 5.35 13.53l-6.56 4.58q-5.29-11.67-7.82-18.19-5.86-15.05-10.61-26.79a.993.991-37.291 0 0-1.71-.23q-2.86 3.78-6.09 6.22-.93.69-19.6 14.9a1.401 1.391 43.689 0 0 .06 2.26c6.6 4.53 12.47 8.11 21.45 13.16q10.2 5.74 19.55 12.8l-5.55 4.4q-5.93-3.41-11.65-6.67c-6.22-3.53-11.11-7.36-17.04-11.01a.658.654 8.527 0 0-.98.72l8.18 31.72-6.4 3.63-12.66-46.02a.813.806-22.039 0 0-1.17-.49c-1.38.75-2.63 1.82-4.09 2.58q-7.35 3.76-19.83 10.56-.34.18-.39.72-.26-.2-.63-.21a.657.587 29.794 0 0-.33.07l-6.07 3.21-23.66 8.84-7.32 1.94a1.181 1.145-83.046 0 0-.73.59q-.28.57-.33 1.3l-1.12-1.01a.651.644-28.196 0 0-.54-.16l-29.3 4.54a.739.737-77.545 0 0-.5.32l-.34.49c-1.65-.29-3.46-.61-5.09-.51q-8.69.53-17.38.44a.339.338 8.572 0 0-.34.25l-.08.32q-.67-.65-1.79-.75-6.8-.66-12.43.1-4.34-1.19-7.79-.42-1.47-.66-2.52-.79-7.76-1.02-16.61-2.22a.25.23 69.183 0 1-.14-.07l-.25-.24a.631.623-50.681 0 0-.94.1l-.4.56q.2-.52-.22-1.01a.579.532-12.433 0 0-.31-.18l-6.86-1.41-.32-.27a.847.821-16.138 0 0-.32-.17l-21.37-6.24q-7.48-3.48-15.82-6.48-.95-.35-2.38-1.25-1.78-1.12-2.53-.45.04-.84-.54-1.14-6.02-3.08-16.25-9.5-3.38-2.12-4.9-3.04a1.001.999 22.864 0 0-1.48.6l-12.43 45.9q-3.53-2.13-6.21-4.24-.36-.28-.32-.75l8.65-30.38a.451.449 81.196 0 0-.68-.5l-27.86 18.41-7.34-5.57 42.03-26.19a.661.657 47.803 0 0 .05-1.08q-5.24-4.02-22.51-17.55c-1.51-1.19-2.5-2.41-3.62-3.66a.798.793 32.368 0 0-1.36.3q-.76 2.66-2.32 5.04a1.948 1.865-17.19 0 0-.2.36l-16.64 38.77q-4.31-2.28-6.85-5.68 1.69-1.96 2.55-3.97c1.61-3.81 3.39-6.99 4.68-10.53q2.67-7.39 6.37-14.89a.482.482 86.925 0 0-.69-.62l-2.21 1.39a11.704 11.08 15.606 0 1-1.44.76q-14.29 6.11-22.41 9.72-1.82.82-3.57 2.21l-5.85-6.48c4.16-1.7 8.72-3.35 12.36-5.25 6.91-3.59 12.75-6.46 18.96-8.9q6.86-2.69 12.92-5.44a1.265 1.261-34.859 0 0 .37-2.05q-9.6-9.43-18.87-21.84-.74-1-1.46-2.29a.603.602-42.709 0 0-1.03-.04l-27.08 41.22q-3.38-3.2-5.13-6.58l18.7-28.08a.124.123 10.83 0 0-.13-.19l-33.6 8.49-3.99-7.1q9.8-2.58 19.44-4.96c7.13-1.75 12.37-3.7 19.7-5.01q2.29-.4 8.14-1.95a.973.97-24.359 0 0 .56-1.48q-7.23-10.72-14.72-22.93-.91-1.48-1.51-3.8a.662.662 59.511 0 0-1.12-.29l-33.71 35.19-4.34-7.01q12.64-12.16 23.53-24.63a.225.217-71.991 0 0-.18-.37l-34.49 3.3-3.05-7.43q9.36-.7 18.48-1.85c11.9-1.49 19.88-1.89 30.95-2.17a1.126 1.126-13.422 0 0 .99-1.61q-2.25-4.76-6.71-14.17c-2.42-5.11-4.3-10.96-5.65-15.62a.751.748-26.463 0 0-1.17-.39l-39.36 29.19-2.92-7.49 27.12-19.41a1.014 1.001-48.055 0 0-.08-1.7q-.03-.02-.32-.13a1.139 1.064 54.083 0 0-.41-.08q-16.92-.15-33.85-2.35l-1.61-7.44 50.21 3.86a.534.53-6.63 0 0 .55-.69q-1.23-3.92-1.39-4.68-3.6-16.91-5.4-27.61a.766.765 71.925 0 0-1.1-.56l-44.5 22.45-1.31-7.93 30.6-15.56a.258.257 37.982 0 0-.06-.48l-33.43-7.81-.73-7.24 48.92 10.38a.549.548 2.664 0 0 .66-.6q-2.12-16.44-1.91-33.68a.644.64 81.258 0 0-.84-.62c-7.52 2.49-15.07 5.43-27.59 10.5q-3.93 1.59-9.72 3.4-4.85 1.51-9.79 3.25l-.18-8.06 32.46-11.66a.443.437-45.364 0 0 0-.83l-32.07-11.05-.19-7.97 47.63 16.26a.237.233 9.103 0 0 .31-.22v-39.9a.65.65 79.724 0 0-.88-.61q-12.26 4.59-23.49 8.87-5.63 2.14-11.72 4.11-5.81 1.87-11.79 3.92l-.15-8.22 31.17-10.38a.379.374-42.078 0 0 .04-.7q-10.49-4.67-21.11-8.11c-3.4-1.09-6.57-2.61-9.78-4.17l-.11-8.1 47.59 17.69a.224.219-79.341 0 0 .3-.21v-40.73a.606.606-9.853 0 0-.81-.57l-46.9 16.87-.43-8.17 32.46-10.82a.289.287 47.237 0 0 .02-.54q-10.97-4.5-22.5-8.46c-3.39-1.17-6.68-2.76-9.93-4.41l.31-7.92 47.12 17.97a.482.48-74.889 0 0 .64-.37q.15-.91.14-1.41-.73-28.04.18-38.63a.86.857-6.7 0 0-1.13-.89l-47.09 16.15-.2-8.4 2.87-.5a3.315 2.942 26.602 0 0 .56-.15l28.1-9.82a.268.265 46.421 0 0 .01-.5l-31.45-12.47.1-7.81q2.93.83 5.66 2.02 4.41 1.92 5.53 2.32c12.82 4.48 20.65 7.03 28.81 10.63q3.16 1.39 7.15 2.79a.909.906 8.244 0 0 1.21-.9q-.88-19.14-.08-37.97a.607.605 83.638 0 0-.76-.61c-2.87.73-5.66 1.17-8.62 2.21-8.75 3.08-16.39 5.68-26.18 8.5q-6.38 1.84-12.78 3.94l-.02-7.92 32.42-9.95a.255.253 46.433 0 0 .01-.48l-32.69-12.67.13-8.52 47.67 18.65a.559.554 9.348 0 0 .76-.54q-.59-14.78.69-30.29.21-2.53.82-5.18a.633.633-6.152 0 0-.76-.76l-49.06 11 .59-7.5 34.07-7.78a.292.29 52.674 0 0 .07-.54c-10.36-5.49-20.67-9.24-31.11-16.11l1.1-7.34q14.83 6.38 28.79 14.14c5.97 3.32 11.65 5.76 16.47 8.5a.58.572-70.87 0 0 .85-.42q2.4-16.4 6.44-32.62a.596.591-86.91 0 0-.65-.73c-5.56.71-11.29.76-17.62 1.52q-16.26 1.95-32.81 2.2.42-4.68 1.77-7.48 6.08-.42 12-.98c8.1-.75 15.02-.69 23.32-1.59q.34-.04.44-.19.34-.53-.2-.9c-2.32-1.58-4.56-3.52-6.66-4.93q-11.12-7.42-21.84-15.88l3.22-6.94 39.7 29.46a.872.868 26.585 0 0 1.36-.45c1.67-5.75 4.08-13.09 7.29-19.35q2.64-5.14 4.76-10.26a1.305 1.302-78.53 0 0-1.19-1.8q-7.34-.07-19.12-1.23-15-1.48-30.55-3.13 1.77-4.9 3.17-7.35.25-.44.75-.58 16.73 3.01 33.71 3.82a.268.266-21.651 0 0 .2-.46c-3.39-3.24-5.52-6.76-8.84-10.08-4.26-4.24-9.17-10.33-14.61-14.61l3.73-6.45q3.17 2.28 5.64 4.98 4.07 4.43 4.12 4.49c6.36 6.27 10.35 9.76 15.57 15.75q3.01 3.45 9.67 9.64a.219.218 34.844 0 0 .34-.06q7.02-13.46 17.17-26.37a1.507 1.504-65.549 0 0-.9-2.41q-20.54-3.88-39.88-9.1-1.62-.44-4.28-1-2.14-.45-4.26-1.09l4.28-6.91 34.43 8.51a.258.257-9.474 0 0 .28-.39q-6.63-10.11-13.34-20.45-2.72-4.18-6.24-8.34l5.15-5.91q5.98 7.98 11.2 16.26c3.09 4.89 6.31 8.13 9.1 12.93q2.36 4.04 7.26 12.04a.652.649-39.989 0 0 1.05.09q4.5-5.23 7.74-9.7c3.9-5.39 9.32-10.93 13.16-14.57a1.077 1.077 37.136 0 0-.24-1.73c-1.22-.64-2.76-.76-4.13-1.53q-5.99-3.36-10.8-5.39c-9.81-4.14-13.93-6.32-25.41-11.73q-1.55-.73-4.18-2.78 2.23-2.24 4.24-4.43.71-.76 1.43-.76l26.32 12.98a2.568 1.904 69.401 0 1 .48.31q1.51 1.24 3.05 1.63a.934.933-5.79 0 0 1.07-1.31q-7.4-15.37-13.2-31.38l6.23-5.06 18.32 46.38a.777.771-37.572 0 0 1.34.17q1.34-1.8 3.04-3.14 9.98-7.86 19.14-15.57 2-1.69 3.9-2.53a.763.755 49.609 0 0 .1-1.33l-41.88-27.51 6.38-4.55 29.08 18.68a.474.472 10.649 0 0 .72-.49q-1.47-7.38-4.24-14.46c-2.15-5.49-3.18-12.08-4.38-18.2l6.23-3.72q2.74 8.9 5 17.69 1.86 7.26 4.04 14.08 2.19 6.83 3.47 14.73a1.086 1.086 67.95 0 0 1.7.72q13.11-9.25 27.09-15.1a.984.979 55.308 0 0 .29-1.62q-17.94-17.02-36.93-32.85l6.86-4.03q4.51 4.23 9.46 8.26c6.56 5.34 11.16 10.17 16.81 15.3a.512.508 17.442 0 0 .85-.44l-4.2-33.27 6.7-2.74q2.16 19 4.71 37.62.82 5.96 1.68 9.75a.864.857-15.793 0 0 1.12.62q7.06-2.46 13.9-5.43 2.26-.97 9.76-3.14 4.19-.04 8.13-1.98 6.61-.53 11.14-1.91 4.9-1.5 7.99-1.71 4.45.29 8.5-.21 1.33-.17 1.49-1.56l38.8-.04q-.18.43.1.96a1.08 1.049-9.46 0 0 .78.54q3.75.53 6.85-.43 10.14 2.26 20.85 2.55 6.8 3.79 14.9 3.23l22.02 9.29a.474.471 13.843 0 0 .65-.39l4.65-48.36zm-58.1 37.55c-8.04-1.78-15.33-1.86-24.11-2.64q-9.9-.89-18.14-.59-21.75.77-41.43 5c-6.08 1.31-11.38 3.37-17.66 5.08q-5.95 1.63-13 4.5-22.73 9.28-41.03 21.84-14.18 9.72-24.26 18.96-10.52 9.65-22.96 23.99-5.15 5.93-13.25 17.78c-4.68 6.85-7.6 13.48-11.9 20.57-2.54 4.2-3.98 8.57-6.3 12.49q-2.1 3.56-3.91 9.7-.51 1.71-3.61 9.86c-2.64 6.96-3.73 12.8-6.1 21.36-1.57 5.66-2.36 10.57-3.79 17.64-1.58 7.86-1.68 16.17-2.55 23.98q-.39 3.55-.43 10.62-.13 27.61-.03 41.02c.07 8.78-.38 17.76-.13 26.69q.24 8.81.11 20-.29 23.95.07 53.39c.06 4.74-.23 10.44-.2 14.34q.2 31.21.11 55.33-.03 9.62.75 18.81c1 11.68 2.6 23.99 5.4 34.88q1.64 6.4 3.83 16.03.36 1.58 4.51 11.7 1.33 3.24 2.13 5.93c1.74 5.81 4.52 10.96 6.39 15.46q1.78 4.28 4.65 9.33 8.88 15.61 16.02 25.46 13.84 19.09 33.05 36.65 21.76 19.9 49.25 32.75 11.05 5.16 21.8 9.54 2.2.9 3.58 1.27c3.22.85 5.96 2.01 9.11 2.68 8.85 1.9 17.04 4.25 26.41 5.5q26.23 3.48 52.62.94c3.77-.37 7.41-1.17 11.14-1.49q3.86-.32 8.3-1.42 9.29-2.29 22.21-5.75 5.42-1.44 11.33-4.2 9.99-4.66 10.99-5.16c4.51-2.22 11.54-4.64 15.86-7.5q6.69-4.43 9.44-5.94c8.2-4.5 17.48-11.53 22.6-16.01 5.61-4.92 9-7.68 12.82-11.5q17.59-17.57 30.85-37.08c5.74-8.46 11.98-20.86 15.21-27.02q6.14-11.72 11.23-27.71 4.24-13.34 5.07-16.98 3.28-14.5 4.78-22.94c1.18-6.59 1.42-12.69 2.09-19.31q.58-5.77.67-14.52.17-16.62.04-40.48-.08-14.37-.18-96.75-.04-33.17.03-63.99.06-22.17-1.17-32.96-2.39-20.91-8.43-42.35c-1.85-6.56-5.21-14.45-7.87-22.17q-1.39-4.02-3.22-7.76-3.2-6.52-11.76-22.47c-3.18-5.93-6.5-9.91-10.44-15.81q-3.68-5.51-8.66-11.48-15.66-18.78-29.67-30.18-10.22-8.32-30.36-21.33c-3.85-2.49-7.77-3.99-11.71-6.24-6.56-3.73-17.06-7.87-21.44-9.92-3.39-1.59-9.57-2.53-13.87-3.93q-8.42-2.74-20.88-5.49" fill="#0092e9"/><path d="M587.07 147.18l.22.78a.797.79 63.492 0 1-.27.82q-4.95 3.96-5.72 10.21-3.2-3-7.09-4.42 4.79-2.46 4.21-8.08 6.17 1.32 7.82 1.5.84.09.83-.81" fill="#0092e9"/><path d="M629.79 157.4l-25.72 23.29a.251.251-18.332 0 1-.42-.21l3.38-33.36zm-214.91-9.23l4.2 33.27a.512.508 17.442 0 1-.85.44c-5.65-5.13-10.25-9.96-16.81-15.3q-4.95-4.03-9.46-8.26zm226.25 15.07q-5.35 18.02-6.25 22.95-2.37 13.07-5.65 25.17a.71.705-66.625 0 1-1.05.42q-14.29-8.87-28.15-15.34a.686.683 35.984 0 1-.18-1.12l36.71-33.96q1.35-.57 4.57 1.88m-256.03-.89q18.99 15.83 36.93 32.85a.984.979 55.308 0 1-.29 1.62q-13.98 5.85-27.09 15.1a1.086 1.086 67.95 0 1-1.7-.72q-1.28-7.9-3.47-14.73-2.18-6.82-4.04-14.08-2.26-8.79-5-17.69 1.83-1.73 4.66-2.35m284.34 19.06c-3.97 3.42-9.69 6.63-12.63 8.65q-6.74 4.61-15.97 10.8-.46.31-.97.34a.442.438 4.808 0 1-.46-.54l8.13-33.71zm-295.23-12.99c1.2 6.12 2.23 12.71 4.38 18.2q2.77 7.08 4.24 14.46a.474.472 10.649 0 1-.72.49l-29.08-18.68q10.33-7.92 21.18-14.47" fill="#0155ca"/><path d="M548.93 184.67q12.46 2.75 20.88 5.49c4.3 1.4 10.48 2.34 13.87 3.93 4.38 2.05 14.88 6.19 21.44 9.92 3.94 2.25 7.86 3.75 11.71 6.24q20.14 13.01 30.36 21.33 14.01 11.4 29.67 30.18 4.98 5.97 8.66 11.48c3.94 5.9 7.26 9.88 10.44 15.81q8.56 15.95 11.76 22.47 1.83 3.74 3.22 7.76c2.66 7.72 6.02 15.61 7.87 22.17q6.04 21.44 8.43 42.35 1.23 10.79 1.17 32.96-.07 30.82-.03 63.99.1 82.38.18 96.75.13 23.86-.04 40.48-.09 8.75-.67 14.52c-.67 6.62-.91 12.72-2.09 19.31q-1.5 8.44-4.78 22.94-.83 3.64-5.07 16.98-5.09 15.99-11.23 27.71c-3.23 6.16-9.47 18.56-15.21 27.02q-13.26 19.51-30.85 37.08c-3.82 3.82-7.21 6.58-12.82 11.5-5.12 4.48-14.4 11.51-22.6 16.01q-2.75 1.51-9.44 5.94c-4.32 2.86-11.35 5.28-15.86 7.5q-1 .5-10.99 5.16-5.91 2.76-11.33 4.2-12.92 3.46-22.21 5.75-4.44 1.1-8.3 1.42c-3.73.32-7.37 1.12-11.14 1.49q-26.39 2.54-52.62-.94c-9.37-1.25-17.56-3.6-26.41-5.5-3.15-.67-5.89-1.83-9.11-2.68q-1.38-.37-3.58-1.27-10.75-4.38-21.8-9.54-27.49-12.85-49.25-32.75-19.21-17.56-33.05-36.65-7.14-9.85-16.02-25.46-2.87-5.05-4.65-9.33c-1.87-4.5-4.65-9.65-6.39-15.46q-.8-2.69-2.13-5.93-4.15-10.12-4.51-11.7-2.19-9.63-3.83-16.03c-2.8-10.89-4.4-23.2-5.4-34.88q-.78-9.19-.75-18.81.09-24.12-.11-55.33c-.03-3.9.26-9.6.2-14.34q-.36-29.44-.07-53.39.13-11.19-.11-20c-.25-8.93.2-17.91.13-26.69q-.1-13.41.03-41.02.04-7.07.43-10.62c.87-7.81.97-16.12 2.55-23.98 1.43-7.07 2.22-11.98 3.79-17.64 2.37-8.56 3.46-14.4 6.1-21.36q3.1-8.15 3.61-9.86 1.81-6.14 3.91-9.7c2.32-3.92 3.76-8.29 6.3-12.49 4.3-7.09 7.22-13.72 11.9-20.57q8.1-11.85 13.25-17.78 12.44-14.34 22.96-23.99 10.08-9.24 24.26-18.96 18.3-12.56 41.03-21.84 7.05-2.87 13-4.5c6.28-1.71 11.58-3.77 17.66-5.08q19.68-4.23 41.43-5 8.24-.3 18.14.59c8.78.78 16.07.86 24.11 2.64m-61.59 232.79l1.3 15.31a.656.653 87.082 0 0 .65.59h25.48a.571.562 1.592 0 0 .57-.53q.1-1.64-.17-3.3-2.39-14.97-4.68-27.04c-3.86-20.35-6.93-40-11.03-62.24q-2.45-13.33-4.78-27.61a.728.718 85.283 0 0-.71-.61h-30.55a.61.608 5.082 0 0-.6.5l-23.53 120.35a.387.386 5.52 0 0 .38.46h25.57a.769.767 4.357 0 0 .76-.65l2.38-15.34a.779.776 4.292 0 1 .77-.66h17.35a.847.843 87.392 0 1 .84.77m66.92-10.25a.71.71 29.828 0 1-.71-.71v-93.68a.71.71-45.097 0 0-.71-.71h-25.23a.71.71 0 0 0-.71.71v119.81a.71.71 81.826 0 0 .71.71h52.88a.71.71-18.636 0 0 .71-.71v-24.71a.71.71 0 0 0-.71-.71zm-14.8 145.75v44.86a1.586 1.583-79.024 0 0 .99 1.47c5.86 2.38 12.89 5.13 18.49 5.77 13.95 1.58 25.98-4.67 33.97-16.09q5.03-7.18 6.83-13.51 4.27-15.07 1.87-32.4-2.2-15.82-13.88-27.28c-4.27-4.18-11.76-9.15-14.98-15.26-4.34-8.26.87-17.42 10.72-14.21 6.85 2.23 11.2 7.22 14.99 13.4a.4.399-60.779 0 0 .74-.21v-42.75a.754.741-76.093 0 0-.39-.66q-7.15-3.91-13.56-5.52c-13.49-3.38-27.21.19-35.64 11.36q-4.38 5.79-6.35 10.82-4.43 11.37-4.72 24.26-.49 21.7 13.94 37.26 4.71 5.08 11.38 11.62 2.65 2.58 4.54 6.15c3.32 6.24 1.22 15.48-7.15 15.69q-7.2.18-12.35-4.63-4.9-4.59-8.72-10.36a.394.393-61.911 0 0-.72.22m161.24 49.62a.447.44 79.782 0 0 .41-.6l-23.76-62.42a.907.904-25.743 0 1 .39-1.11c18.32-10.7 20.53-37.75 15.96-55.66q-2.42-9.45-7.35-16.38c-8.94-12.58-25.11-15.45-39.92-15.19q-3.57.07-30.21-.12a1.11 1.11.256 0 0-1.12 1.11v149.71a.69.69 81.827 0 0 .69.69h30.64a.64.64 45 0 0 .64-.64v-59.38a.262.259 36.864 0 1 .51-.07l18.29 59.25a1.152 1.149-8.552 0 0 1.1.81zm-310.92-69.57l-38.59-81.31a.803.801 76.948 0 0-.72-.45h-29.38a.367.365 77.55 0 0-.33.52l71.08 149.77a1.764 1.763-12.811 0 0 1.59 1h27.04a.61.61 70.812 0 0 .61-.61V451.94a.74.73 0 0 0-.74-.73h-29.32a.74.74 45 0 0-.74.74v80.95a.263.262 32.478 0 1-.5.11m104.142 69.003a.62.62 4.052 0 0 .617.567h33.263a.62.62 82.588 0 0 .611-.727l-26.283-150.04a.62.62 6.993 0 0-.611-.513h-38.918a.62.62-2.733 0 0-.609.501l-29.328 150.05a.62.62 16.51 0 0 .609.739h32.736a.62.62-19.122 0 0 .612-.525l2.928-18.88a.62.62 41.785 0 1 .612-.525h21.54a.62.62 24.079 0 1 .617.567zm-143.002.637a.44.44-5.356 0 0 .44-.44v-69.581a.44.44 14.521 0 0-.043-.189l-30.26-63.746a.44.44 2.505 0 0-.837.189V602.21a.44.44-45 0 0 .44.44zm159.527 65.788q-.002 2.664.562 8.449c2.461 25.233 22.081 44.683 48.361 35.433a.935.931 80.264 0 0 .62-.88v-21.63a.473.473 75 0 0-.71-.41c-3.46 1.98-7.7 4.26-11.221 4.075-13.159-.677-15.412-14.855-15.406-25.025.005-10.17 2.273-24.346 15.434-25.008 3.521-.181 7.758 2.103 11.216 4.087a.473.473-74.937 0 0 .71-.409l.024-21.63a.935.931-80.202 0 0-.619-.881c-26.27-9.279-45.911 10.15-48.4 35.38q-.57 5.785-.571 8.449M461.19 684.11a.357.357-65.033 0 0-.63.23v25.84a1.101 1.098-77.114 0 0 .62.99c9.23 4.4 21.24 5.78 29.16-2.35 7.61-7.81 9.71-20.14 7.87-30.57q-1.57-8.93-8.41-15.68c-4.17-4.12-9.34-8.17-9.58-12.29-.27-4.54 3.43-7.21 7.67-5.16q5 2.41 8.05 7.27a.521.517 29.105 0 0 .96-.27v-24.24a1.334 1.321-73.854 0 0-.61-1.12q-6.79-4.38-15.61-3.9c-14.28.76-20.06 16.74-20.28 28.62q-.13 7.05 2.48 13.52c2.37 5.84 8.07 10.97 13.29 16.29q2 2.04 2.64 5.15c.81 3.96-1.75 7.61-5.97 6.64-5-1.15-8.38-5.02-11.65-8.97" fill="#fff"/><path d="M680.05 190.44q-1.28 2.12-2.2 4.49-1.54 4.01-1.86 4.65-1.31 2.64-4.39 9.42c-4.18 9.21-7.53 20.56-10.42 27.97a.705.705 63.283 0 1-1.12.28q-10.5-9.14-21.93-18.64-.74-.62-3.9-2.62a.851.843-46.082 0 1-.02-1.41q6.2-4.26 12.18-8.58 4.9-3.54 12.36-8.28 8.47-5.38 16.9-11.18 2.85.83 4.4 3.9m-333.4-3l41.88 27.51a.763.755 49.609 0 1-.1 1.33q-1.9.84-3.9 2.53-9.16 7.71-19.14 15.57-1.7 1.34-3.04 3.14a.777.771-37.572 0 1-1.34-.17l-18.32-46.38q1.47-2.04 3.96-3.53m358.57 26.37q-10.96 4.43-21.76 9.77c-3.51 1.73-6.94 2.95-9.88 4.36q-.56.27-.76-.34-.05-.16.09-.49 2.26-5.51 4.04-9.48 1.11-2.49 3.46-9.66 2.17-6.58 5.33-12.65 10.29 8.36 19.48 18.49m-368.76-17.78q5.8 16.01 13.2 31.38a.934.933-5.79 0 1-1.07 1.31q-1.54-.39-3.05-1.63a2.568 1.904 69.401 0 0-.48-.31l-26.32-12.98q.07-.69.47-1.09 8.54-8.46 17.25-16.68m-23.39 22.96q2.63 2.05 4.18 2.78c11.48 5.41 15.6 7.59 25.41 11.73q4.81 2.03 10.8 5.39c1.37.77 2.91.89 4.13 1.53a1.077 1.077 37.136 0 1 .24 1.73c-3.84 3.64-9.26 9.18-13.16 14.57q-3.24 4.47-7.74 9.7a.652.649-39.989 0 1-1.05-.09q-4.9-8-7.26-12.04c-2.79-4.8-6.01-8.04-9.1-12.93q-5.22-8.28-11.2-16.26zm401.11 5.43q-2.47 3.95-5.22 7.58-4 5.27-5.43 7.42-5.33 8.09-13.96 22.16-1.4 2.28-2.48 3.61a1.07 1.065-48.147 0 1-1.57.09q-2.7-2.59-4.69-5.31-4.1-5.65-8.18-9.76-3.66-3.69-4.18-4.32-2.41-2.95-4.19-4.52a.694.693-37.544 0 1 .15-1.14c1.86-.92 4.55-1.69 6.67-2.72 9.63-4.72 18.59-8.09 27.91-12.71q5.54-2.75 11.33-5.59 2.37 1.95 3.84 5.21m21.57 27.32l-35.46 8.02a.376.375-80.163 0 1-.4-.57q2.88-4.46 8.47-12.68.3-.45 5.24-8.45 2.56-4.16 5.87-7.98 3.51 3.27 5.82 6.39 4.05 5.46 10.46 15.27m-432.58-20.73q3.52 4.16 6.24 8.34 6.71 10.34 13.34 20.45a.258.257-9.474 0 1-.28.39l-34.43-8.51q2.82-4.24 5.78-8.25.1-.14 4.24-6.38 2.16-3.26 5.11-6.04m440.11 32.8q-3.95 1.95-6.79 5.25-3.16 3.67-3.42 3.94-12.96 13.36-22.77 23.05-1.38 1.37-2.86 2.27a.589.578 57.987 0 1-.79-.19c-1.07-1.69-2.43-3.4-3.29-5.07q-2.85-5.55-5.4-9.36c-2.79-4.19-4.77-8.65-7.98-12.56a.654.653-28.436 0 1 .31-1.04q.6-.19 4.46-1.03 22.21-4.83 44.66-11.24zm-459.52-5.22q2.12.64 4.26 1.09 2.66.56 4.28 1 19.34 5.22 39.88 9.1a1.507 1.504-65.549 0 1 .9 2.41q-10.15 12.91-17.17 26.37a.219.218 34.844 0 1-.34.06q-6.66-6.19-9.67-9.64c-5.22-5.99-9.21-9.48-15.57-15.75q-.05-.06-4.12-4.49-2.47-2.7-5.64-4.98 1.02-2.66 3.19-5.17m473.92 33.13l-34.73 4.01a.37.369-71.634 0 1-.31-.62q4.14-4.47 8.11-9.11 3.59-4.19 14.72-14.79.59-.56.51-3.13zm-491.3-.18q.03-1.01.16-1.28 4.8-10.14 10.3-20.05c5.44 4.28 10.35 10.37 14.61 14.61 3.32 3.32 5.45 6.84 8.84 10.08a.268.266-21.651 0 1-.2.46q-16.98-.81-33.71-3.82m496.9 14.44q-10.35 7.44-20.22 14.97-4.3 3.27-10 7.14-3.27 2.23-9.65 7.65a1.427 1.423-27.155 0 1-2.31-.74q-.68-2.77-2.36-8.86-.95-3.42-3.59-8.44-1.64-3.1-5.6-12a.917.911-13.16 0 1 .8-1.28c9.57-.45 20.53-2.25 28.9-2.66q6.4-.31 21.42-3.16zm-503.07.25q.74-4.5 2.25-6.76 15.55 1.65 30.55 3.13 11.78 1.16 19.12 1.23a1.305 1.302-78.53 0 1 1.19 1.8q-2.12 5.12-4.76 10.26c-3.21 6.26-5.62 13.6-7.29 19.35a.872.868 26.585 0 1-1.36.45zm513.51 32.03q-10.97-1.85-22.27-2.29c-4.65-.17-8.5-.82-12.9-1.08a.363.358-61.687 0 1-.19-.65l26.47-19.87a1.601 1.594-16.271 0 0 .65-1.18l.12-1.49q1.3 3.72 2.51 7.49.52 1.62 2.7 7.4t2.91 11.67" fill="#0155ca"/><path d="M486.5 416.69h-17.35a.779.776 4.292 0 0-.77.66L466 432.69a.769.767 4.357 0 1-.76.65h-25.57a.387.386 5.52 0 1-.38-.46l23.53-120.35a.61.608 5.082 0 1 .6-.5h30.55a.728.718 85.283 0 1 .71.61q2.33 14.28 4.78 27.61c4.1 22.24 7.17 41.89 11.03 62.24q2.29 12.07 4.68 27.04.27 1.66.17 3.3a.571.562 1.592 0 1-.57.53h-25.48a.656.653 87.082 0 1-.65-.59l-1.3-15.31a.847.843 87.392 0 0-.84-.77m-8.292-25.064q3.109.03 5.012-.045a.546.543 85.98 0 0 .52-.601q-3.18-27.6-4.857-47.47-.014-.165-.203-.167-.19-.002-.207.163-2.065 19.833-5.784 47.366a.546.543-84.86 0 0 .509.611q1.901.112 5.01.143m76.052 15.584h26.23a.71.71-45 0 1 .71.71v24.71a.71.71 41.538 0 1-.71.71h-52.88a.71.71-64.811 0 1-.71-.71V312.82a.71.71 45 0 1 .71-.71h25.23a.71.71-45.012 0 1 .71.71v93.68a.71.71 5.854 0 0 .71.71" fill="#1426af"/><path d="M249.93 337.64q2.55-12.38 7.06-24.47 10.72 8.46 21.84 15.88c2.1 1.41 4.34 3.35 6.66 4.93q.54.37.2.9-.1.15-.44.19c-8.3.9-15.22.84-23.32 1.59q-5.92.56-12 .98m525.39 6.86q1.38 3.92 1.26 8.23-22.89 10.49-44.9 22.12a.951.949-17.575 0 1-1.39-.72q-1.97-16.26-7.09-32.22a.952.946 86.468 0 1 1.08-1.23q1.34.25 1.97.31 12.83 1.31 24.5 2.72 5.11.62 23.25 1.55 1.13.06 1.32-.76m-528.63 8.03l1.47-7.41q16.55-.25 32.81-2.2c6.33-.76 12.06-.81 17.62-1.52a.596.591-86.91 0 1 .65.73q-4.04 16.22-6.44 32.62a.58.572-70.87 0 1-.85.42c-4.82-2.74-10.5-5.18-16.47-8.5q-13.96-7.76-28.79-14.14" fill="#0155ca"/><path d="M478.68 343.343q.189.002.203.167 1.677 19.87 4.857 47.47a.546.543 85.98 0 1-.52.601q-1.903.075-5.012.045-3.109-.031-5.01-.143a.546.543-84.86 0 1-.509-.611q3.719-27.533 5.784-47.366.017-.165.207-.163" fill="#fff"/><path d="M777.87 359.75l3.12 25.25-33.23-8.46a.173.173 37.961 0 1-.04-.32zM242.56 384.3q.49-4.78.84-9.56.24-3.21 1.06-7.43.72-3.63 1.13-7.44c10.44 6.87 20.75 10.62 31.11 16.11a.292.29 52.674 0 1-.07.54zm538.6 3.74l.23 12.23q-2.31-.05-4.61.97c-7.66 3.41-16.7 6.37-27.28 10.25-5.24 1.91-10.22 4.34-15.68 5.6a.791.788 83.351 0 1-.97-.77c.05-10.41.29-15.94-.64-24.88q-.48-4.56-.69-10.15a.643.64-82.819 0 1 .82-.64q9.3 2.64 16.64 4.11c10.41 2.07 20.12 4.78 30.74 6.68a1.163 1.162 6.223 0 0 1.37-1.1zm-539.31 10.88q-.69-3.62.12-7.12l49.06-11a.633.633 33.898 0 1 .76.76q-.61 2.65-.82 5.18-1.28 15.51-.69 30.29a.559.554 9.348 0 1-.76.54zm.13 31.62l-.26-23.1 32.69 12.67a.255.253 46.433 0 1-.01.48zm539.13-22.91l.37 24.2-32.69-11.31a.272.271-46.18 0 1-.01-.51zm.15 31.75l-.03 6.95-47.22 16.42a.784.783-9.552 0 1-1.04-.74v-38.16a.524.519 9.314 0 1 .69-.49zm-539.2 6.15l-.06-7.07q6.4-2.1 12.78-3.94c9.79-2.82 17.43-5.42 26.18-8.5 2.96-1.04 5.75-1.48 8.62-2.21a.607.605 83.638 0 1 .76.61q-.8 18.83.08 37.97a.909.906 8.244 0 1-1.21.9q-3.99-1.4-7.15-2.79c-8.16-3.6-15.99-6.15-28.81-10.63q-1.12-.4-5.53-2.32-2.73-1.19-5.66-2.02" fill="#0155ca"/><path d="M539.46 552.96a.394.393-61.911 0 1 .72-.22q3.82 5.77 8.72 10.36 5.15 4.81 12.35 4.63c8.37-.21 10.47-9.45 7.15-15.69q-1.89-3.57-4.54-6.15-6.67-6.54-11.38-11.62-14.43-15.56-13.94-37.26.29-12.89 4.72-24.26 1.97-5.03 6.35-10.82c8.43-11.17 22.15-14.74 35.64-11.36q6.41 1.61 13.56 5.52a.754.741-76.093 0 1 .39.66v42.75a.4.399-60.779 0 1-.74.21c-3.79-6.18-8.14-11.17-14.99-13.4-9.85-3.21-15.06 5.95-10.72 14.21 3.22 6.11 10.71 11.08 14.98 15.26q11.68 11.46 13.88 27.28 2.4 17.33-1.87 32.4-1.8 6.33-6.83 13.51c-7.99 11.42-20.02 17.67-33.97 16.09-5.6-.64-12.63-3.39-18.49-5.77a1.586 1.583-79.024 0 1-.99-1.47zm161.24 49.62h-33.73a1.152 1.149-8.552 0 1-1.1-.81l-18.29-59.25a.262.259 36.864 0 0-.51.07v59.38a.64.64-45.006 0 1-.64.64h-30.64a.69.69-64.826 0 1-.69-.69V452.21a1.11 1.11.256 0 1 1.12-1.11q26.64.19 30.21.12c14.81-.26 30.98 2.61 39.92 15.19q4.93 6.93 7.35 16.38c4.57 17.91 2.36 44.96-15.96 55.66a.907.904-25.743 0 0-.39 1.11l23.76 62.42a.447.44 79.782 0 1-.41.6m-53.31-117.75q-.48 2.65-.43 6.67.18 15.44.1 28.15a.674.666-87.178 0 0 .6.67q9.64 1.04 13.33-7.83 3.19-7.68 1.88-16.22-1.96-12.71-14.91-11.94a.62.617 3.595 0 0-.57.5m-257.61 48.18a.263.262 32.478 0 0 .5-.11v-80.95a.74.74 45 0 1 .74-.74h29.32a.74.73 0 0 1 .74.73v149.99a.61.61-72.419 0 1-.61.61h-27.04a1.764 1.763-12.811 0 1-1.59-1l-71.08-149.77a.367.365 77.55 0 1 .33-.52h29.38a.803.801 76.948 0 1 .72.45zm104.142 69.003l-1.604-18.786a.62.62 2.056 0 0-.617-.567h-21.54a.62.62 13.977 0 0-.612.525l-2.928 18.88a.62.62 37.304 0 1-.612.525h-32.736a.62.62 43.539 0 1-.609-.739l29.328-150.05a.62.62 41.745 0 1 .609-.501h38.918a.62.62 30.254 0 1 .611.513l26.283 150.04a.62.62 51.068 0 1-.611.727h-33.263a.62.62 24.797 0 1-.617-.567m-12.927-51.077q5.712.04 6.121.032a.557.555 85.955 0 0 .544-.628q-3.36-28-5.816-58.572-.093-1.157-.428-1.16t-.443 1.154q-2.883 30.535-6.634 58.485a.557.555-85.154 0 0 .535.635q.409.014 6.121.054" fill="#1426af"/><path d="M241.87 476.78l.09-23.44 31.45 12.47a.268.265 46.421 0 1-.01.5l-28.1 9.82a3.315 2.942 26.602 0 1-.56.15zM781.3 453.8l.14 23.93c-3.4-1-7.16-2.75-9.83-3.74q-9.7-3.57-21.65-7.25-.46-.14-.62-.32a.562.561 60.411 0 1 .25-.91q16.17-5.07 31.71-11.71" fill="#0155ca"/><path d="M350.92 602.65h-30.26a.44.44 45 0 1-.44-.44V468.883a.44.44 70.008 0 1 .837-.189l30.26 63.746a.44.44 71.725 0 1 .043.189v69.581a.44.44 32.052 0 1-.44.44" fill="#1426af"/><path d="M781.46 485.35l-.25 7.97q-8.13 2.59-16.23 5.15c-3.01.95-7.22 3.02-10.8 4.11q-7.94 2.43-17.99 6.37-.05.02-2.47.67a.785.78 82.616 0 1-.98-.76v-39.75a.55.546-80.265 0 1 .73-.52c8.04 2.75 12.55 4.29 21.8 7.97q2.64 1.05 16.94 5.98 7.16 2.47 9.25 2.81m-539.25 7.01l-.14-7.18 47.09-16.15a.86.857-6.7 0 1 1.13.89q-.91 10.59-.18 38.63.01.5-.14 1.41a.482.48-74.889 0 1-.64.37z" fill="#0155ca"/><path d="M647.96 484.33q12.95-.77 14.91 11.94 1.31 8.54-1.88 16.22-3.69 8.87-13.33 7.83a.674.666-87.178 0 1-.6-.67q.08-12.71-.1-28.15-.05-4.02.43-6.67a.62.617 3.595 0 1 .57-.5m-166.544 6.278q.335.003.428 1.16 2.456 30.572 5.816 58.572a.557.555 85.955 0 1-.544.628q-.409.008-6.121-.032t-6.121-.054a.557.555-85.154 0 1-.535-.635q3.751-27.95 6.634-58.485.108-1.156.443-1.154" fill="#fff"/><path d="M241.85 524.51l.05-24.23c3.25 1.65 6.54 3.24 9.93 4.41q11.53 3.96 22.5 8.46a.289.287 47.237 0 1-.02.54zm539.45-24l-.01 24.54-31.65-11.77a.494.492 44.449 0 1-.01-.92q3.45-1.4 11.53-4.06 10.04-3.3 20.14-7.79m-.08 32.17l-.08 7.88q-17.19 4.7-33.59 11.3-6.21 2.51-13.48 4.65a.9.899-8.407 0 1-1.16-.86v-39.27a.91.91 9.578 0 1 1.21-.86q1.33.47 20.19 7.8 13.13 5.1 26.91 9.36m-539.12 6.95q-.65-3.45.18-6.95l46.9-16.87a.606.606-9.853 0 1 .81.57v40.73a.224.219-79.341 0 1-.3.21zm-.21 31.46l.32-23.36c3.21 1.56 6.38 3.08 9.78 4.17q10.62 3.44 21.11 8.11a.379.374-42.078 0 1-.04.7zm539.47-23.39l.04 23.87q-3.15-.89-5.72-2.29a1.625.347 16.34 0 1-.17-.08l-25.52-9.3a.203.203 79.945 0 1 0-.38zm.06 31.41l-.08 7.87-47.83 15.53a.557.556 80.92 0 1-.73-.53v-39.52a.817.807-80.979 0 1 1.06-.78q5.72 1.88 11.31 4.28 17.52 7.55 36.27 13.15m-539.44 7.77q-.71-4.03.06-7.57 5.98-2.05 11.79-3.92 6.09-1.97 11.72-4.11 11.23-4.28 23.49-8.87a.65.65 79.724 0 1 .88.61v39.9a.237.233 9.103 0 1-.31.22zm539.41 7.5l-.01 24.3c-10.38-4.16-21.15-7.3-31.36-11.97a.257.253-43.015 0 1 .02-.47zm-539.61 24.01l.39-23.54 32.07 11.05a.443.437-45.364 0 1 0 .83zm539.67 8.23l-.61 10.47q.29-1.84-.39-2.79a.86.86-21.274 0 0-.82-.36c-8.72 1.12-17.84 4-25.54 5.29-8.49 1.43-12.42 2.64-22.21 5.08a.694.693 87.143 0 1-.85-.77q.99-6.94 1.74-18.37c.37-5.64-.4-10.91-.16-15.72a.956.95-79.781 0 1 1.23-.86c5.22 1.64 11.05 4.77 16.9 6.73q6.16 2.07 18.37 7.35 5.02 2.17 12.34 3.95m-539.22 7.2q-1.05-3.32-.27-7.37 4.94-1.74 9.79-3.25 5.79-1.81 9.72-3.4c12.52-5.07 20.07-8.01 27.59-10.5a.644.64 81.258 0 1 .84.62q-.21 17.24 1.91 33.68a.549.548 2.664 0 1-.66.6z" fill="#0155ca"/><path d="M532.653 668.45c-.006 10.17 2.247 24.348 15.406 25.025 3.521.185 7.761-2.095 11.221-4.075a.473.473 75 0 1 .71.41v21.63a.935.931 80.264 0 1-.62.88c-26.28 9.25-45.9-10.2-48.361-35.433q-.564-5.785-.562-8.449t.571-8.449c2.489-25.23 22.13-44.659 48.4-35.38a.935.931-80.202 0 1 .619.881l-.024 21.63a.473.473-74.937 0 1-.71.409c-3.458-1.984-7.695-4.268-11.216-4.087-13.161.662-15.429 14.838-15.434 25.008m-71.463 15.66c3.27 3.95 6.65 7.82 11.65 8.97 4.22.97 6.78-2.68 5.97-6.64q-.64-3.11-2.64-5.15c-5.22-5.32-10.92-10.45-13.29-16.29q-2.61-6.47-2.48-13.52c.22-11.88 6-27.86 20.28-28.62q8.82-.48 15.61 3.9a1.334 1.321-73.854 0 1 .61 1.12v24.24a.521.517 29.105 0 1-.96.27q-3.05-4.86-8.05-7.27c-4.24-2.05-7.94.62-7.67 5.16.24 4.12 5.41 8.17 9.58 12.29q6.84 6.75 8.41 15.68c1.84 10.43-.26 22.76-7.87 30.57-7.92 8.13-19.93 6.75-29.16 2.35a1.101 1.098-77.114 0 1-.62-.99v-25.84a.357.357-65.033 0 1 .63-.23" fill="#1426af"/><path d="M245.85 664.91l-2.89-23.85 33.43 7.81a.258.257 37.982 0 1 .06.48zm534.81-23.88l-3.18 24.46-30.53-16.24a.243.241-37.64 0 1 .06-.45zm-4.62 31.61l-1.65 7.77-49.88 2.97a.939.932 5.835 0 1-.96-1.17q4.21-15.64 6.2-31.54a.866.863 18.524 0 1 1.29-.64q2.94 1.69 14.35 7.66 4.05 2.12 14.7 6.94 8.07 3.65 15.95 8.01m-527.25 7.43l-1.63-7.23 44.5-22.45a.766.765 71.925 0 1 1.1.56q1.8 10.7 5.4 27.61.16.76 1.39 4.68a.534.53-6.63 0 1-.55.69zm9.15 31.11l-7.54-23.67q16.93 2.2 33.85 2.35a1.139 1.064 54.083 0 1 .41.08q.29.11.32.13a1.014 1.001-48.055 0 1 .08 1.7zm514.64-22.84q-2.59 12.09-7.09 23.53l-28.06-21.09a.251.248 61.428 0 1 .13-.45zm-509.25 36.95l-2.47-6.62 39.36-29.19a.751.748-26.463 0 1 1.17.39c1.35 4.66 3.23 10.51 5.65 15.62q4.46 9.41 6.71 14.17a1.126 1.126-13.422 0 1-.99 1.61c-11.07.28-19.05.68-30.95 2.17q-9.12 1.15-18.48 1.85m499.17-5.79l-2.26 6.68q-2.84-1.37-6.35-1.58-3.15-.19-3.29-.2-21.4-2.18-40.99-3.29a.832.831-86.933 0 1-.79-.88q.08-1.33.87-2.78 6.85-12.7 11.41-27.04a.963.963-62.855 0 1 1.49-.48zm-477.42 47.16l-3.22-5.23 33.71-35.19a.662.662 59.511 0 1 1.12.29q.6 2.32 1.51 3.8 7.49 12.21 14.72 22.93a.973.97-24.359 0 1-.56 1.48q-5.85 1.55-8.14 1.95c-7.33 1.31-12.57 3.26-19.7 5.01q-9.64 2.38-19.44 4.96m456.55-5.05q-1.36 3.42-3.05 5.37-12.61-3.89-17.34-5-13.69-3.21-30.78-6.97a1.115 1.11-68.145 0 1-.71-1.67q3.54-5.74 9.08-13.73c2.81-4.04 4.68-7.68 7.15-12.58a.899.898 30.438 0 1 1.31-.34q1.42.95 4.2 3.61c3.47 3.31 8.38 9.31 13.17 14q3.04 2.98 7.24 7.71c2.81 3.16 6.49 6.32 9.73 9.6m15.64-28.3l-11.22 21.26-24.57-24.9a.35.348-18.975 0 1 .29-.59zm-479.75 21.11l-11.14-21.7 34.49-3.3a.225.217-71.991 0 1 .18.37q-10.89 12.47-23.53 24.63m35.54 50.29l-3.83-4.59 27.08-41.22a.603.602-42.709 0 1 1.03.04q.72 1.29 1.46 2.29 9.27 12.41 18.87 21.84a1.265 1.261-34.859 0 1-.37 2.05q-6.06 2.75-12.92 5.44c-6.21 2.44-12.05 5.31-18.96 8.9-3.64 1.9-8.2 3.55-12.36 5.25m400.74-4.64l-3.87 4.88q-8.33-3.89-16.68-7.73c-9.93-4.56-19.4-7.32-28.7-11.74a.932.927 35.309 0 1-.26-1.5q11.38-11.19 20.49-24.36a1.062 1.06 45.276 0 1 1.75.01zm20.6-26.86l-15.06 20.75q-5.27-6.22-8.7-12.95a1.693 1.558 16.053 0 0-.14-.23l-10.87-15.13a.405.402 78.884 0 1 .42-.63zm-430.3 20.33l-15.03-19.78 33.6-8.49a.124.123 10.83 0 1 .13.19zm375.42 39.98l-4.77 4.13q-9.35-7.06-19.55-12.8c-8.98-5.05-14.85-8.63-21.45-13.16a1.401 1.391 43.689 0 1-.06-2.26q18.67-14.21 19.6-14.9 3.23-2.44 6.09-6.22a.993.991-37.291 0 1 1.71.23q4.75 11.74 10.61 26.79 2.53 6.52 7.82 18.19m-332.47 3.29l-4.57-4.01 16.64-38.77a1.948 1.865-17.19 0 1 .2-.36q1.56-2.38 2.32-5.04a.798.793 32.368 0 1 1.36-.3c1.12 1.25 2.11 2.47 3.62 3.66q17.27 13.53 22.51 17.55a.661.657 47.803 0 1-.05 1.08zm-11.42-9.69q-3.66-2.67-6.77-6.01c-3.55-3.8-6.68-6.53-9.95-9.92q1.75-1.39 3.57-2.21 8.12-3.61 22.41-9.72a11.704 11.08 15.606 0 0 1.44-.76l2.21-1.39a.482.482 86.925 0 1 .69.62q-3.7 7.5-6.37 14.89c-1.29 3.54-3.07 6.72-4.68 10.53q-.86 2.01-2.55 3.97m368.42-16.39l-17.97 18.21q-2.81-6.73-5.35-13.53-1.81-4.85-3.61-8.41-2.96-5.87-3.75-8.37-.16-.54-.01-.89a.461.457 23.281 0 1 .61-.24zm-287.64 16.29l-16.63 42.02-1.25.09a1.568 1.533 56.955 0 1-.85-.19l-16.87-9.1 12.43-45.9a1.001.999 22.864 0 1 1.48-.6q1.52.92 4.9 3.04 10.23 6.42 16.25 9.5.58.3.54 1.14m224.9 33.42l-18.69 10.15-19.45-42.8q.05-.54.39-.72 12.48-6.8 19.83-10.56c1.46-.76 2.71-1.83 4.09-2.58a.813.806-22.039 0 1 1.17.49zm-267.03-5.59l-1.37-.37a2.217 1.996 66.439 0 1-.66-.3l-17.86-11.8 27.86-18.41a.451.449 81.196 0 1 .68.5zm294.92-12.8l-21.49 14.76-8.18-31.72a.658.654 8.527 0 1 .98-.72c5.93 3.65 10.82 7.48 17.04 11.01q5.72 3.26 11.65 6.67" fill="#0155ca"/><path d="M437.14 835.2q6.07 4.52 8.08 10.33c3.81 11.07-1.17 23.59-11.24 29.45q-1.39.81-5.36 1.79-2.53.62-5.43 1.69-2.97-.83-7.02-1.87-3.89-.99-16.03-6.62-.3-.14-.36-.36-.07-.26 0-.57l16.63-42.02q.75-.67 2.53.45 1.43.9 2.38 1.25 8.34 3 15.82 6.48M410.06 867c5.86 2.5 12.37 5.15 18.43 2.09q6.53-3.29 8.85-10.5 4.11-12.82-6.21-18.39c-2.89-1.56-5.85-1.96-9.29-3.37a.893.884-67.603 0 0-1.16.49l-11.33 27.97a1.323 1.315 22.621 0 0 .71 1.71m193.11-39.21l19.45 42.8-5.67 2.21q-1.71.04-2.08-.68c-4.53-8.83-8.29-18.8-12.71-27.99q-3.17-6.58-6.02-13.27l6.07-3.21a.657.587 29.794 0 1 .33-.07q.37.01.63.21" fill="#fefeff"/><path d="M596.14 830.86q2.85 6.69 6.02 13.27c4.42 9.19 8.18 19.16 12.71 27.99q.37.72 2.08.68l-16.31 6.5q-1.51-3.64-3.91-6.61c-5.22-6.44-9.96-13.26-14.8-19.99-2.11-2.93-6.52-8.34-9.45-13zm-136.99 11.02q-2.09 13.56-4.09 26.76-1.19 7.8-.19 11.22 1.56 5.37 6.75 9.15-3.85.23-6.35-.29-15.45-3.24-32.08-10.26 2.9-1.07 5.43-1.69 3.97-.98 5.36-1.79c10.07-5.86 15.05-18.38 11.24-29.45q-2.01-5.81-8.08-10.33l21.37 6.24a.847.821-16.138 0 1 .32.17z" fill="#0155ca"/><path d="M410.06 867a1.323 1.315 22.621 0 1-.71-1.71l11.33-27.97a.893.884-67.603 0 1 1.16-.49c3.44 1.41 6.4 1.81 9.29 3.37q10.32 5.57 6.21 18.39-2.32 7.21-8.85 10.5c-6.06 3.06-12.57.41-18.43-2.09" fill="#0155ca"/><path d="M572.48 839.7c2.93 4.66 7.34 10.07 9.45 13 4.84 6.73 9.58 13.55 14.8 19.99q2.4 2.97 3.91 6.61l-7.07 2.37-6.59-9.45a1.132 1.127-24.172 0 0-1.19-.45l-18.02 4.43a.667.658-2.028 0 0-.51.54l-1.94 12.21-7.73 1.69 6.51-47.11q.05-.73.33-1.3a1.181 1.145-83.046 0 1 .73-.59zm2.574 28.149q2.032-.513 6.332-1.88a.513.509 65.093 0 0 .274-.759q-1.61-2.52-7.8-10.84-.74-.99-1.723-2.654-1.541-2.606-1.793-2.542-.253.064-.373 3.089-.077 1.931-.258 3.153-1.503 10.261-1.725 13.243a.513.509 86.591 0 0 .601.538q4.434-.836 6.465-1.348M466.54 844.48q-2.52 13.94-4.23 28.04c-1.04 8.64 2.38 11.99 10.7 12.66 6.38.52 8.95-4.26 10.02-10.07q2.5-13.54 4.37-27.97 3.45-.77 7.79.42-2.35 14.35-4.43 27.84-.85 5.53-1.97 7.74c-3.18 6.34-10.21 9.8-17.24 8.95q-5.58-.44-9.93-3.08-5.19-3.78-6.75-9.15-1-3.42.19-11.22 2-13.2 4.09-26.76l6.86 1.41a.579.532-12.433 0 1 .31.18q.42.49.22 1.01" fill="#fefeff"/><path d="M564.1 843.53l-6.51 47.11q-11.02 2.7-22.6 2.78c6.45-3.72 10.3-7.82 8.86-15.53q-1.3-6.89-8.05-8.57a.324.323 36.428 0 1-.09-.59c8.76-5.38 5.13-17.72-3.41-21.02l.34-.49a.739.737-77.545 0 1 .5-.32l29.3-4.54a.651.644-28.196 0 1 .54.16zm-76.7 3.61q-1.87 14.43-4.37 27.97c-1.07 5.81-3.64 10.59-10.02 10.07-8.32-.67-11.74-4.02-10.7-12.66q1.71-14.1 4.23-28.04l.4-.56a.631.623-50.681 0 1 .94-.1l.25.24a.25.23 69.183 0 0 .14.07q8.85 1.2 16.61 2.22 1.05.13 2.52.79" fill="#0155ca"/><path d="M509.41 848.21l1.06 45.55-1.7.69a2.426 2.407 33.342 0 1-.94.19q-14.31-.08-28.1-1.69-1.42-.16-2.03-.65a.839.818 64.16 0 0-.47-.17l-5.68-.04c7.03.85 14.06-2.61 17.24-8.95q1.12-2.21 1.97-7.74 2.08-13.49 4.43-27.84 5.63-.76 12.43-.1 1.12.1 1.79.75" fill="#0155ca"/><path d="M532.3 847.71c8.54 3.3 12.17 15.64 3.41 21.02a.324.323 36.428 0 0 .09.59q6.75 1.68 8.05 8.57c1.44 7.71-2.41 11.81-8.86 15.53-1.89.51-3.67.94-5.68.97q-9.14.15-18.29.4-.58.01-.55-1.03l-1.06-45.55.08-.32a.339.338 8.572 0 1 .34-.25q8.69.09 17.38-.44c1.63-.1 3.44.22 5.09.51m-15.368 7.502l.323 10.855a.7.7 83.416 0 0 .72.679l8.936-.265a6.5 5.64-1.7 0 0 6.33-5.831l-.029-.979a6.5 5.64-1.7 0 0-6.665-5.445l-8.936.265a.7.7-79.223 0 0-.679.721m1.043 19.275l.547 12.508a.86.86-68.001 0 0 .896.822l9.561-.417a7.51 6.56-2.5 0 0 7.217-6.882l-.049-1.119a7.51 6.56-2.5 0 0-7.789-6.226l-9.561.418a.86.86 0 0 0-.822.896" fill="#fefeff"/><path d="M575.054 867.849q-2.031.512-6.465 1.348a.513.509 86.591 0 1-.601-.538q.222-2.982 1.725-13.243.181-1.222.258-3.153.12-3.025.373-3.089.252-.064 1.793 2.542.983 1.664 1.723 2.654 6.19 8.32 7.8 10.84a.513.509 65.093 0 1-.274.759q-4.3 1.367-6.332 1.88m-58.122-12.637a.7.7-54.952 0 1 .679-.721l8.936-.265a6.5 5.64-1.7 0 1 6.665 5.445l.029.979a6.5 5.64-1.7 0 1-6.33 5.831l-8.936.265a.7.7-51.57 0 1-.72-.679zm76.638 26.458q-1.94.38-4.06.72-2.22.37-4.01.97c-4.75 1.61-9.1 3.34-14.31 4.32q-2.92.56-5.87 1.27l1.94-12.21a.667.658-2.028 0 1 .51-.54l18.02-4.43a1.132 1.127-24.172 0 1 1.19.45zm-75.595-7.183a.86.86-45 0 1 .822-.896l9.561-.418a7.51 6.56-2.5 0 1 7.789 6.226l.049 1.119a7.51 6.56-2.5 0 1-7.217 6.882l-9.561.417a.86.86-72.129 0 1-.896-.822z" fill="#0155ca"/></g></svg>