<svg viewBox="175.69 -0.04 448.62 800.09" xmlns="http://www.w3.org/2000/svg"><path d="M175.69 94.67h448.62l-67.44 641.55L400 645.65l-156.88 90.57z" fill="#fedd00"/><path d="M195.74 112.73l62.43 593.95L400 624.8l141.82 81.88 62.43-593.95z"/><path d="M556.07 270.28l8.93-85.21-70.8-40.89H305.79L235 185.07l49.42 470.16 246.13-142.12 11-104.71-70.82-40.89-9.15 87.07-116.12 67-30.72-292.23h170.51l-9.15 87.07zm-91.52 363.14l-7.9-4.51v-6.85l7.89-4.58.14 8 15.68-.09-.09-16.46-10.27 6.15-13.3-7.55v-23.77l7.89-4.59h15.82l8 4.52v45.15l-8 4.59zm.09-30.63l5.31 3 10.33-6.06v-12.59l-15.59.09zm39.5 30.63l-7.89-4.51-.05-45.15 7.89-4.59h15.82l8 4.52v6.84l-8 4.58-.14-7.92-15.68.09.09 16.38 10.35-6.06 13.31 7.53v23.71l-8 4.59zm0-20.6l.05 12.67 15.68-.09-.09-15.61-5.19-2.93zM491.74 800L474 789.84 456.48 800h-10.29l-.09-66.23 10.29-6 .14 60.23 12.47-7.24v-47l10.33-.09.09 47.16 12.36 7.17-.13-60.07 10.48 5.8v66.31zm-91.19 0l-.09-70.69 31.74-.1 6 10.4-27.37.13.09 19.8 15.43-.09 6 10.39-21.55.16.09 19.69 27.2-.09.09 10.43zm-20.48 0l-.07-25.25-8.17-4.69-12.28 7.1v22.75l-10.33.09-.09-70.69 30.92-.1 10.4 5.9v24.12l-8.36 4.85 8.32 4.61V800zm-20.5-34.78L380 753.17v-13.52l-20.41.09zM308.16 800l-10.29-5.9-.05-58.91 10.29-6h20.64l10.39 5.9.05 8.91-10.39 6-.14-10.33-20.5.09.09 49.92 20.5-.09-.09-10.25 10.48 5.8.05 8.91-10.42 6zM573.32 72.18L563 66.28v-8.9l10.29-6 .14 10.43 20.5-.09-.09-14.52L563 29.47V7.38l10.29-6h20.64L604.3 7.3v8.9l-10.39 6-.13-10.33-20.5.09.09 11.58 30.93 17.64v25l-10.41 6zm-51.33 0l-10.29-5.9V5.96l10.28-6 .14 61.85 20.5-.09-.13-61.64L553 5.88v60.33l-10.41 6zm-61.57 0l-.09-70.68 30.92-.09 10.39 5.89.05 21.58-8.36 4.85 8.31 4.61.05 27.87-10.41 6zm10.29-25.37v15l20.5-.09-.09-17.36-8.12-4.62zm0-11.94l20.46-11.95V11.84l-20.41.09zm-30.79 37.31l-.09-58.71L427 21.05v51l-10.33.09-.06-51.14-13-7.43.13 58.55-10.33.09-.13-70.71 10.33-.09L421.81 12l18.07-10.58h10.39l.09 70.77zm-87.63 0L342 66.28V6l10.29-6 .14 61.85 20.5-.09-.14-61.68 10.48 5.8v60.33l-10.41 6zm-53.86 0l-.09-70.68 10.33-.09.09 60.44 27.24-.09-5.83 10.42zm-41.09 0l-10.29-5.9V7.38l10.29-6h20.63l10.4 5.89v58.91l-10.41 6zm.09-10.33l20.5-.09-.09-49.92-20.41.09zM206 72.18l-10.29-5.9V7.38l10.29-6h20.64L237 7.3v8.9l-10.39 6-.13-10.33-20.5.09.09 49.92 20.5-.09-.09-10.26L237 57.3v8.91l-10.41 6z" fill="#fff"/></svg>