<svg viewBox="18.11 15.38 990.4 992.01" xmlns="http://www.w3.org/2000/svg"><g fill-rule="evenodd"><path d="M541.39 15.95q24.77 1.49 37.87 3.8 1.66.3 5.04.71 14.52 1.77 41.45 7.73 18.49 4.09 40.59 11.35 21.9 7.2 43.75 16.66 13.23 5.73 33.53 16.2 20.82 10.74 44.43 26.74 30.29 20.51 54.13 42.03 5.77 5.22 7.02 6.31c5.77 5.06 9.39 8.85 15.57 14.92 6.24 6.13 11.41 11.92 17.68 18.78q5.08 5.55 10.09 11.69 9.65 11.81 9.82 12.02 29.89 38.02 50.99 78.76 2.44 4.7 12.2 25.28 4.7 9.91 13.67 34.04 12.32 33.18 20.23 71.61c2.27 11.04 3.61 22.41 5.37 33.05q1.01 6.07 1.6 13.3 2.54 31 2 61.82-.77 44.07-9.77 87.53c-2.08 10.02-4.92 19.55-7.17 28.92q-1.26 5.23-3.18 11.49-14.89 48.63-37.08 90.32-17.51 32.93-43.28 67.92-2.02 2.74-16.48 20.46-4.92 6.04-8.9 10.25c-4.98 5.26-11.58 13.39-18.26 19.4-4.16 3.74-8.04 8.63-12.34 12.34q-4.33 3.72-10.38 9.35-4.79 4.45-10.51 9.16-14.82 12.21-16.05 13.14-22.61 16.99-41.18 28.78-20.13 12.77-48 26.79c-5.16 2.6-12.17 5.56-17.69 8q-59.39 26.34-124.9 35.97-2.86.42-5.71.72-2.45.26-3.55.6c-2.45.76-4.55.42-7.87 1.03-1.8.33-4.13-.23-6 .5a2.442 2.328-55.831 0 1-.74.16c-7.61.53-18.08 1.5-26.06 1.61q-16.83.24-35.05.19a1.398 1.256 48.058 0 1-.28-.03q-1.59-.34-4.99-.39-21.98-.36-46.76-3.93-22.23-3.19-34.2-5.89-18.39-4.15-37.6-9.75-18.07-5.28-36.7-12.67-32.96-13.07-63.61-29.98-5.76-3.19-9.95-5.85c-4.38-2.77-9-5.09-13.09-7.89q-2.2-1.5-17.72-11.98-17.17-11.59-38.6-29.72-8.64-7.32-10.3-8.89c-5.87-5.58-9.88-8.83-14.43-13.39q-11.06-11.1-17.01-17.29-6.44-6.71-19.32-21.71-9-10.49-17.98-22.85-21.21-29.19-36.04-56.06-34.04-61.74-50.44-132.17-2.51-10.78-4.76-24.74-2.65-16.47-3.59-24.96-1.78-16.14-2.57-36.99-.7-18.7.85-57.5.03-.66 1.82-17.51 1.01-9.4 2.42-17.42c1.15-6.57 2.22-16.24 3.98-23.78 1.86-7.98 3.99-18.58 6.58-27.87q5.79-20.76 12.4-40.33 2.71-8.02 12.24-30.76 7.05-16.84 20.2-41.27 2.71-5.04 6.33-10.73c3.41-5.38 7.13-12.2 11.32-18.55q3.26-4.95 5.1-7.72 19.82-29.85 43.01-55.22c3.78-4.13 6.87-8.22 10.84-12.17q2.23-2.21 14.43-14.47 3.37-3.38 7.26-6.91c4.23-3.84 6.45-6.35 9.87-9.02q6.15-4.8 11.45-9.56c7.12-6.39 12.87-10.13 21.16-16.73q7.67-6.1 14.38-10.2.63-.39 9.71-6.67 3.99-2.76 9.87-6.41 25.41-15.75 53.29-28.83 32.99-15.48 69.59-26.2c27.45-8.04 55.92-13.22 85.04-16.59q16.32-1.89 36.64-2.28 24.29-.47 42.13.33.06 0 1.15.07M156.47 190.37q-1.12-.04-2.01.85-9.7 9.62-18.13 22.09.2 1.67-1.9 2.68-4.16 3.44-6.97 8.15a.529.525 23.551 0 0 .31.78q.13.04.28.06-48.56 65.4-73.37 142.72-.01-.51-.27-.78a.511.506 33.953 0 0-.84.16q-1.57 3.95-2.67 8.17-.14.55.24.9.36.34.93.16-9.9 33.71-14.49 65.71-8.59 59.88-2.07 122.25 3.35 31.98 11.56 63.52 8.95 34.37 20.02 61.36 10.53 25.67 27.72 57.29 5.66 13.19 14.26 25.01a1.563 1.53 83.484 0 0 .64.52q.62.28.88-.04 16.57 24.64 31.91 43.32 15.9 19.39 38.21 41.09c44.49 43.28 97.24 78.05 155.08 101.86q80.06 32.95 166.74 34.82 88.48 1.91 171.03-28.31 43.21-15.83 82.99-39.68 42.74-25.62 79.7-59.79 36.97-34.19 64.83-72.39 28.95-39.67 48.48-82.02 17.49-37.9 28.25-77.48 12.36-45.44 15.22-91.61 2.84-45.9-2-87.4-8.53-73.22-39.72-141.92c-20.78-45.78-49.18-88.21-82.84-124.64-23.4-25.34-47.43-47-74.12-66.38-70.44-51.15-153.82-82.59-240.57-89.79-93.7-7.77-188.51 11.87-271.13 58.06q-71.38 39.9-126.18 100.7" fill="#c6c6c6"/><path d="M110.59 771.93l-15.78-25.49q-17.19-31.62-27.72-57.29-11.07-26.99-20.02-61.36-8.21-31.54-11.56-63.52-6.52-62.37 2.07-122.25 4.59-32 14.49-65.71l2.61-8.61q24.81-77.32 73.37-142.72l6.38-8.99q2.1-1.01 1.9-2.68l20.14-22.94q54.8-60.8 126.18-100.7c82.62-46.19 177.43-65.83 271.13-58.06 86.75 7.2 170.13 38.64 240.57 89.79 26.69 19.38 50.72 41.04 74.12 66.38 33.66 36.43 62.06 78.86 82.84 124.64q31.19 68.7 39.72 141.92 4.84 41.5 2 87.4-2.86 46.17-15.22 91.61-10.76 39.58-28.25 77.48-19.53 42.35-48.48 82.02-27.86 38.2-64.83 72.39-36.96 34.17-79.7 59.79-39.78 23.85-82.99 39.68-82.55 30.22-171.03 28.31-86.68-1.87-166.74-34.82c-57.84-23.81-110.59-58.58-155.08-101.86q-22.31-21.7-38.21-41.09-15.34-18.68-31.91-43.32M639.63 74.86q-51.07-14.72-104.12-17.08Q434.68 53.32 342 91.08q-8.13 3.31-20.85 9.28-15.17 7.13-20.48 10.08-25.94 14.43-45 27.49-47.74 32.69-86.57 77.68c-4.74 5.49-13.44 15.38-19.54 23.69q-17.22 23.44-28.15 41.59-13.48 22.41-27.18 52.83-10.44 23.16-20.11 55.76c-2.46 8.29-5.07 20.18-7.44 31.38q-13.15 62.3-8.3 126.62c6.85 90.93 42.47 178.69 99.56 249.36q60.38 74.76 144.07 120.38 27.28 14.87 59.83 26.95 51.75 19.19 105.66 24.77 57.23 5.92 114.75-3.22 55.64-8.84 110.39-33.13 56.07-24.88 105.56-65.16 87.15-70.93 133.25-173.9 21.82-48.74 31.81-103.66 5.45-30.02 6.37-60.63c.98-32.41-.29-62.74-5.73-94.22q-13.92-80.46-55.22-150.96c-16.15-27.57-34.97-53.26-56.55-76.65q-28-30.36-56.43-52.58-45.92-35.87-100.72-60.02c-17.55-7.73-37.48-14.8-55.35-19.95" fill="#151511"/><path d="M639.63 74.86c17.87 5.15 37.8 12.22 55.35 19.95q54.8 24.15 100.72 60.02 28.43 22.22 56.43 52.58c21.58 23.39 40.4 49.08 56.55 76.65q41.3 70.5 55.22 150.96c5.44 31.48 6.71 61.81 5.73 94.22q-.92 30.61-6.37 60.63-9.99 54.92-31.81 103.66-46.1 102.97-133.25 173.9-49.49 40.28-105.56 65.16-54.75 24.29-110.39 33.13-57.52 9.14-114.75 3.22-53.91-5.58-105.66-24.77-32.55-12.08-59.83-26.95-83.69-45.62-144.07-120.38c-57.09-70.67-92.71-158.43-99.56-249.36q-4.85-64.32 8.3-126.62c2.37-11.2 4.98-23.09 7.44-31.38q9.67-32.6 20.11-55.76 13.7-30.42 27.18-52.83 10.93-18.15 28.15-41.59c6.1-8.31 14.8-18.2 19.54-23.69q38.83-44.99 86.57-77.68 19.06-13.06 45-27.49 5.31-2.95 20.48-10.08 12.72-5.97 20.85-9.28 92.68-37.76 193.51-33.3 53.05 2.36 104.12 17.08M111.21 696.71q3.15 7.18 4.29 9.31 7.03 13.28 14.3 26.32 3 5.51 7.72 12.9 39.97 62.66 96.25 109.78 57.61 48.22 130.31 76.05 7.03 2.69 17.56 6.08 11.68 3.75 17.75 5.45 59.36 16.56 121.39 15.58 18.97-.31 37.88-2.52 21.06-2.46 37.52-5.8 66.58-13.52 126.92-47.29 25.29-14.15 49.79-32.22 31.23-23.05 58.7-51.78 29.39-30.75 51.49-64.47 8.76-13.38 13.78-22.31 3.01-4.73 3.94-6.49 6.21-11.67 12.07-23.48 42.56-87.41 44.35-184.82 1.39-75.54-22.4-145.19-6.66-19.5-9.52-26.33-23.46-56.12-58.3-101.2-31.7-41.02-71.25-73.44-39.75-32.59-85.94-55.42-95.62-47.28-204.55-45.6-46.46.72-90.45 11.02-22.11 5.18-33.85 8.89-23 7.25-49.34 18.66c-21.02 9.11-44.11 22.1-65.17 36.62q-15.04 10.37-16.04 11.14-4.75 3.64-17.79 13.85c-5.58 4.36-9.54 8.41-16.23 14.23q-4.8 4.18-11.79 11.05-17.65 17.38-33.15 36.05c-4.37 5.27-9.65 12.36-13.63 17.73q-48.76 65.6-71.02 143.15c-1.91 6.65-3.16 12.24-5.11 19.79q-1.43 5.54-3.3 14.95-7.28 36.61-8.12 77.81-1 49.12 8.98 97 3.37 16.19 9.6 36.96 8.96 29.89 22.36 57.99" fill="#fee900"/><path d="M912.87 701.82q-1.73.06-3.24-.74a1.381 1.377 4.161 0 1-.65-.75q-1.52-4.25-5.06-16.32-2.12-7.25-6.6-20.59-.22-.64-3.21-10.71-4.98-16.77-9.75-33.23c-7.21-24.9-13.36-44.07-20.33-66.05a1.389 1.378 80.876 0 0-1.33-.97q-10.05.1-20.19-1.29.18-1.97.35-3.67 1.68-16.53 1.57-32.16-.11-15.82-1.66-32.16-7.76-81.93-51.62-149.9-13.05-20.2-33.05-43.01c-4.6-5.25-8.91-9.1-13.01-13.29q-5.49-5.6-9.99-9.57-22.83-20.14-45.63-34.52c-42.14-26.59-92.96-44.1-143.46-48.21-46.39-3.77-92.48 1.66-136.25 16.6q-74.23 25.34-129.49 81c-4.16 4.19-12.02 12.1-16.66 17.66q-24.48 29.32-38.77 56.63c-11.05 21.11-19.29 39.61-24.82 58.93-2.52 8.81-5.24 17.07-7 25.1q-.86 3.97-2.32 11.95-.64 3.53-2.47 15.95-3.65 24.78-2.93 51.21l-6.41.89a1.114 1.096-84.355 0 0-.9.75q-1.95 5.96-4.46 12.42c-2.77 7.1-4.92 15.58-8.07 22.95q-2.41 5.62-3.85 10.37-3.07 10.11-4.02 12.49c-3.59 8.96-6.34 19.15-10.4 28.66-2.6 6.07-4.37 14.71-6.99 21.07-3.24 7.87-5.37 15.39-8.42 22.97q-3.37 8.35-4.99 13.35-4.41 13.58-11.84 32.03a.988.985-63.111 0 1-1.43.47l-2.31-1.42q-13.4-28.1-22.36-57.99-6.23-20.77-9.6-36.96-9.98-47.88-8.98-97 .84-41.2 8.12-77.81 1.87-9.41 3.3-14.95c1.95-7.55 3.2-13.14 5.11-19.79q22.26-77.55 71.02-143.15c3.98-5.37 9.26-12.46 13.63-17.73q15.5-18.67 33.15-36.05 6.99-6.87 11.79-11.05c6.69-5.82 10.65-9.87 16.23-14.23q13.04-10.21 17.79-13.85 1-.77 16.04-11.14c21.06-14.52 44.15-27.51 65.17-36.62q26.34-11.41 49.34-18.66 11.74-3.71 33.85-8.89 43.99-10.3 90.45-11.02 108.93-1.68 204.55 45.6 46.19 22.83 85.94 55.42 39.55 32.42 71.25 73.44 34.84 45.08 58.3 101.2 2.86 6.83 9.52 26.33 23.79 69.65 22.4 145.19-1.79 97.41-44.35 184.82M682.82 157.13q16 5.78 32.06 14.77 9.41 5.27 16.61 10.88c5.55 4.33 10.64 8.73 6.02 16.24q-2.78 4.52-7.13 10.54a.562.559 36.972 0 1-.8.11c-11.85-9.24-24.93-17.07-36.76-23.69q-14.32-8.01-32.48-16-24.82-10.91-50.39-17.56a.689.684-76.072 0 1-.49-.82l13.3-56.7a.546.544-76.966 0 0-.41-.66l-15.02-3.53a.742.73 12.824 0 0-.89.55l-13.13 55.95a.846.842 11.723 0 1-.98.64q-38.79-7.61-79.34-6.82-17.28.33-35.33 2.02a.879.874 83.126 0 1-.95-.75l-4.88-34.95a.677.673 83.313 0 0-.73-.58l-15.69 1.54a.462.455-7.189 0 0-.41.52l4.98 35.7a.597.595-8.338 0 1-.5.67q-35.41 5.57-68.23 17.54-14.09 5.15-37.81 16a.713.703 63.231 0 1-.92-.31l-28.68-53.16a.547.538-28.863 0 0-.75-.21l-13.34 7.7a.637.631-29.339 0 0-.24.84l34.97 64.82a.39.39-27.167 0 0 .53.15q12.24-6.73 25.38-12.37c36.55-15.7 74.91-25.88 114.27-29.82 34.27-3.43 69.79-1.6 103.09 5.14 53.55 10.85 103.79 35.23 146.68 68.92a.498.495 36.764 0 0 .71-.1q7.46-10.42 14.31-20.14 3.59-5.1 4.52-7.34 4.59-11.13-2.54-20.65-5.45-7.27-13.78-13.13-15.12-10.62-31.99-17.29a.568.566 45.681 0 1 .01-1.06q12.63-4.59 26.35-3.15a.684.682 3.976 0 0 .75-.65l.65-14.33a.544.542 5.047 0 0-.48-.57q-16.97-1.96-32.25 4.9-7.04 3.17-13.04 9.46a3.203 3.045-11.942 0 0-.55.8l-4.45 9.53a.301.299-67.706 0 0 .17.41m-351.39 49.25l-6.94-10.82a.486.481 55.384 0 0-.69-.13l-14.75 10.48a1.41 1.39-52.032 0 1-1.3.17c-4.83-1.81-9.96-6.05-8.57-11.47 1.5-5.84 10.37-6.92 15.2-7.63a.628.622-11.788 0 0 .51-.77l-3.46-13.33a.49.489 79.081 0 0-.53-.36q-10.27 1.13-18.78 6.58c-13.43 8.6-15.3 25.98-1.14 35.2q2.81 1.84 3.34 2.07a.434.432-51.306 0 1 .08.74l-9.52 7.15a.409.406-38.447 0 0-.07.59l8.54 10.21a.629.625-38.207 0 0 .86.1l37.05-27.82a.718.716 55.117 0 0 .17-.96m80.42-28.479a8.69 8.16-87.1 0 0-8.59 8.266 8.69 8.16-87.1 0 0 7.71 9.092 8.69 8.16-87.1 0 0 8.59-8.266 8.69 8.16-87.1 0 0-7.71-9.092M842.34 399q-.67 22.31 3.94 44.45 3.76 18.08 12.18 34.09c6.77 12.89 20.07 23.9 35.54 22.18a1.537 1.523 64.752 0 1 1.29.47c15 16.01 17.27 41.49 16.34 62.75q-.65 15.04-2.32 24.68-1.16 6.73-3.95 19.54a5.66 5.613 43.218 0 0 .1 2.84l5.42 18.13a.473.467 45.318 0 0 .9.01q9.77-32.26 14.07-65.92c4.39-34.34 5.05-70.04.99-104.81-1.35-11.56-4.46-25.97-6.98-35.52q-2.28-8.66-7.31-19.17a1.581 1.549 40.521 0 1-.1-1.13c4.81-17.09.21-36.35-7.85-51.95-13.67-26.48-33.86-48.88-57.84-67.88q-17.26-13.68-37.2-24.96c-9.1-5.16-18.9-9.22-28.58-12.52q-1.6-.54-2.65-.6a.935.933-20.267 0 0-.73 1.58c15.28 15.73 26.25 34.62 33.73 54.92 3.12 8.49 8.4 24.51 12.52 38.45q2.48 8.37 5.81 16.48c8.62 21.03 23.45 39.91 43.63 50.07q8.39 4.22 16.52 6.53a.297.291 2.677 0 0 .37-.33c-2.26-12.49-7.13-25.23-13.07-38.28q-8.41-18.46-17.98-35.01-18.29-31.65-39.78-58.85a.238.233-4.969 0 1 .3-.35q.93.48 1.76 1.2c26.62 22.98 47.34 51.95 62.45 83.78q8.77 18.48 15.26 39.78 6.34 20.82 10.4 41.31 3.06 15.48 5.76 37.32.36 2.91.5 6.45c.23 5.61.85 9.89.87 16.11q.03 7.29.69 13.5a.301.301 31.355 0 1-.58.14q-4.99-12.65-13.78-23.22-8.47-10.2-18.76-21.45c-5.57-6.09-11.07-13.01-15.34-18.3q-11.31-14.05-17.31-31.11a.259.258 20.757 0 1 .47-.21q8.74 15.46 21.69 28.63c7.15 7.27 16 15.04 23.06 23.66q3.53 4.32 5.53 7.59a.253.251-53.427 0 0 .46-.07q5.78-22.61-8.8-40.17-5.74-6.91-12.85-12.39-7.43-5.73-18.92-13.87c-4.86-3.45-8.18-6.57-12.74-10.66q-3.01-2.7-6.68-8.05a.25.246-61.914 0 0-.45.14M211.55 279.95q-27.58 34.7-48.52 74.84c-8.81 16.88-17.13 35.26-21.23 54.76q-.13.62-.01 1a.326.323-16.538 0 0 .41.22c27.89-8.34 47.4-28.3 58.08-54.98q4.93-12.31 11.01-31.65c4.47-14.24 8.59-26.01 13.94-37.68q10.42-22.71 27.49-40.79a.782.779-61.097 0 0-.37-1.29q-.46-.12-.93.03-8.54 2.69-17.27 6.77-15.76 7.39-29.94 16.8-28.69 19.03-51.78 44.68c-13.21 14.68-24.43 31.13-31.12 49.79q-7.06 19.7-2.18 38.89a1.827 1.805 50.844 0 1-.12 1.25q-5.99 12.81-10.07 29.1-6.18 24.6-7.98 49.55c-3.51 48.57.51 98.99 12.87 146.69a.33.329 47.608 0 0 .63.03l6.82-19.28a3.046 2.998 49.742 0 0 .12-1.6q-3.07-15.69-4.29-27.14-2.34-21.92 1.24-43.84c2.19-13.4 7.64-27.25 17.22-37.11a.891.884 29.692 0 1 .89-.24c12.75 3.74 28.04-10.35 33.76-20.27q11.06-19.19 15.14-41.07c2.61-14.04 4.54-26.97 3.89-40.38a.388.386-27.177 0 0-.69-.22c-12.15 15.05-30.82 26.28-44.72 38.5q-8.72 7.68-13.75 18.15c-4.45 9.27-3.82 20.09-2.06 30.04a.292.291 56.6 0 0 .53.11c8.05-12.24 20.47-23.17 29.47-32.56q12.98-13.55 21.9-28.88a.188.186-20.894 0 1 .34.15q-1.67 5.06-4.32 9.88-6.27 11.46-10.42 17.31c-6.69 9.44-14.02 18.35-23.1 28.34q-7.11 7.83-15.27 18.06-8.21 10.28-13.76 22.34a.357.356 58.182 0 1-.68-.16q.82-34.27 7.93-69.45 3.71-18.36 12.42-46.28 14.25-45.68 40.5-82.14 4.76-6.6 8.44-10.94 7.46-8.76 9.04-10.48 9.12-9.91 20.25-19.09a.175.173-.884 0 1 .25.24" fill="#151511"/><path d="M682.82 157.13a.301.299-67.706 0 1-.17-.41l4.45-9.53a3.203 3.045-11.942 0 1 .55-.8q6-6.29 13.04-9.46 15.28-6.86 32.25-4.9a.544.542 5.047 0 1 .48.57l-.65 14.33a.684.682 3.976 0 1-.75.65q-13.72-1.44-26.35 3.15a.568.566 45.681 0 0-.01 1.06q16.87 6.67 31.99 17.29 8.33 5.86 13.78 13.13 7.13 9.52 2.54 20.65-.93 2.24-4.52 7.34-6.85 9.72-14.31 20.14a.498.495 36.764 0 1-.71.1c-42.89-33.69-93.13-58.07-146.68-68.92-33.3-6.74-68.82-8.57-103.09-5.14-39.36 3.94-77.72 14.12-114.27 29.82q-13.14 5.64-25.38 12.37a.39.39 8.901 0 1-.53-.15l-34.97-64.82a.637.631-29.339 0 1 .24-.84l13.34-7.7a.547.538-28.863 0 1 .75.21l28.68 53.16a.713.703 63.231 0 0 .92.31q23.72-10.85 37.81-16 32.82-11.97 68.23-17.54a.597.595-8.338 0 0 .5-.67l-4.98-35.7a.462.455-7.189 0 1 .41-.52l15.69-1.54a.677.673 83.313 0 1 .73.58l4.88 34.95a.879.874 83.126 0 0 .95.75q18.05-1.69 35.33-2.02 40.55-.79 79.34 6.82a.846.842 11.723 0 0 .98-.64l13.13-55.95a.742.73 12.824 0 1 .89-.55l15.02 3.53a.546.544-76.966 0 1 .41.66l-13.3 56.7a.689.684-76.072 0 0 .49.82q25.57 6.65 50.39 17.56 18.16 7.99 32.48 16c11.83 6.62 24.91 14.45 36.76 23.69a.562.559 36.972 0 0 .8-.11q4.35-6.02 7.13-10.54c4.62-7.51-.47-11.91-6.02-16.24q-7.2-5.61-16.61-10.88-16.06-8.99-32.06-14.77m-351.56 50.21l-37.05 27.82a.629.625-38.207 0 1-.86-.1l-8.54-10.21a.409.406-38.447 0 1 .07-.59l9.52-7.15a.434.432-51.306 0 0-.08-.74q-.53-.23-3.34-2.07c-14.16-9.22-12.29-26.6 1.14-35.2q8.51-5.45 18.78-6.58a.49.489 79.081 0 1 .53.36l3.46 13.33a.628.622-11.788 0 1-.51.77c-4.83.71-13.7 1.79-15.2 7.63-1.39 5.42 3.74 9.66 8.57 11.47a1.41 1.39-52.032 0 0 1.3-.17l14.75-10.48a.486.481 55.384 0 1 .69.13l6.94 10.82a.718.716 55.117 0 1-.17.96" fill="#fefefe"/><path d="M411.85 177.901a8.69 8.16-87.1 0 1 7.71 9.092 8.69 8.16-87.1 0 1-8.59 8.266 8.69 8.16-87.1 0 1-7.71-9.092 8.69 8.16-87.1 0 1 8.59-8.266M842.51 551.17q-5.26.62-10.63-.51c2.01-26.14 1.99-52.04-1.12-78.02-2.13-17.75-6.57-36.61-11.45-53.25q-5.01-17.06-14.11-37.72c-8.57-19.45-19.82-38.78-31.81-55.56-24.11-33.73-55.26-63.48-91.02-85.69q-51.61-32.05-110.87-42.14-55.23-9.39-109.66.36c-25.55 4.58-47.7 11.21-70.05 20.68-73.56 31.16-135.46 90.76-167.74 163.97-4.06 9.2-9.51 22.7-12.9 33.47q-15.49 49.15-14.37 101.49l-11.48 1.46q-.72-26.43 2.93-51.21 1.83-12.42 2.47-15.95 1.46-7.98 2.32-11.95c1.76-8.03 4.48-16.29 7-25.1 5.53-19.32 13.77-37.82 24.82-58.93q14.29-27.31 38.77-56.63c4.64-5.56 12.5-13.47 16.66-17.66q55.26-55.66 129.49-81c43.77-14.94 89.86-20.37 136.25-16.6 50.5 4.11 101.32 21.62 143.46 48.21q22.8 14.38 45.63 34.52 4.5 3.97 9.99 9.57c4.1 4.19 8.41 8.04 13.01 13.29q20 22.81 33.05 43.01 43.86 67.97 51.62 149.9 1.55 16.34 1.66 32.16.11 15.63-1.57 32.16-.17 1.7-.35 3.67m-686.04-360.8l-20.14 22.94q8.43-12.47 18.13-22.09.89-.89 2.01-.85" fill="#fefefe"/><path d="M831.88 550.66l-4.29-5.34q4.91-56.42-9.04-110.62c-8.55-33.24-22.49-65.67-41.59-94.61q-7.4-11.21-10.04-14.79c-36.16-49.11-86.07-87.45-143.5-108.42q-23.76-8.68-52.53-13.98-26.32-4.85-54.89-4.39-23.44.38-40.78 2.72-35.67 4.82-73.48 19.12-6.72 2.55-14.71 6.32-11.85 5.6-14.42 6.93-57.97 30.03-99.64 80.11-38.79 46.63-56.58 103.11-7.12 22.61-8.45 30.92-2.11 13.09-3.45 21.55-3.81 24.04-3.35 48.29-.4-.19-2.18-.57-1.66-.34-2.18 1.24-1.12-52.34 14.37-101.49c3.39-10.77 8.84-24.27 12.9-33.47 32.28-73.21 94.18-132.81 167.74-163.97 22.35-9.47 44.5-16.1 70.05-20.68q54.43-9.75 109.66-.36 59.26 10.09 110.87 42.14c35.76 22.21 66.91 51.96 91.02 85.69 11.99 16.78 23.24 36.11 31.81 55.56q9.1 20.66 14.11 37.72c4.88 16.64 9.32 35.5 11.45 53.25 3.11 25.98 3.13 51.88 1.12 78.02" fill="#151511"/><path d="M827.59 545.32l-.54 4.5a.696.692-84.721 0 1-.73.61l-13.71-.84a.947.934-5.435 0 1-.86-.7l-28.43-105.82a.718.716-8.967 0 0-.73-.53q-10.56.56-15.24 9.61a.193.191-41.531 0 1-.35-.02q-4-10.28-13.73-14.54a1.943 1.94 50.484 0 0-1.24-.12c-5.49 1.31-9.35 5.75-11.88 10.74a.333.33 49.483 0 1-.61-.05c-2.53-7.68-7.7-10.95-14.62-14.38a1.914 1.864 58.283 0 0-.8-.2q-2.12-.08-5.86 2.74a.217.214 66.914 0 1-.34-.14L693.86 308.7a.571.57 72.96 0 0-.79-.42c-2.82 1.26-8.62 4.24-9.69 6.66q-.44 1-.78 1.31a.458.455-31.146 0 1-.74-.18q-2.07-5.8-6.67-10.59a.683.68-39.036 0 0-.88-.09c-4.75 3.24-7.3 5.13-8.73 9.88a.343.341 46.578 0 1-.66-.02q-1.58-6.44-7.17-10.99a2.873 2.865 54.191 0 0-2.82-.46q-6.19 2.33-8.55 8.65a.314.313-43.994 0 1-.59-.01q-2.3-6.67-7.56-10.77a1.283 1.253-31.069 0 0-1.02-.24c-3.7.73-9.14 3.22-10.81 6.79q-.54 1.15-1 1.66a.35.349-27.637 0 1-.61-.19c-.57-5.11-4.36-9.03-8.86-11.41a1.175 1.165-44.211 0 0-1.07-.01q-8.46 4.26-11.09 12.83a.151.149-42.675 0 1-.29-.01q-2.47-10.92-11.92-17.01a.606.592-44.318 0 0-.65 0q-9.7 6.13-14 16.38a.446.442 41.16 0 1-.79.05c-1.83-3.04-3.38-6.08-6.18-8.09a.517.501 40.594 0 0-.65.04q-4.7 4.56-7.02 13.3a.283.281 35.892 0 1-.51.08l-4.99-7.78a.822.816 51.136 0 0-1.26-.14q-4.79 4.79-5.64 11.89a.464.463 32.292 0 1-.85.19l-3.26-5.09a3.055 3.054 65.997 0 0-3.36-1.29l-2.8.75a.928.919-3.84 0 0-.68.77l-11.37 83.61a.379.376 47.054 0 1-.75-.03q-1.3-18.11-3.73-40.73-7.91-73.3-9.18-86.14a.797.783 89.078 0 0-.72-.71c-3.29-.24-8.1-1.04-10.65 1.2a.398.396-29.173 0 1-.64-.18q-2.59-8.36-8.9-15.3a.759.745-27.896 0 0-.74-.22q-8.29 2.14-13.74 7.99a.345.343 59.334 0 1-.58-.15q-2.6-9.51-10.74-15.64a1.106 1.084 55.041 0 0-.96-.18q-9.02 2.44-14.83 9.04a.425.413 48.513 0 1-.66-.05q-4.46-6.56-10.95-11.54a1.005.995 50.886 0 0-1.02-.11q-8 3.66-12.4 10a.417.417 81.206 0 1-.68 0q-4.61-6.4-12.35-8.81-7.24-2.26-9.97-2.82a.53.524-84.232 0 0-.63.52v38.15a.417.414-63.211 0 1-.75.25q-3.29-4.5-8.76-6.51a2.779 2.747-52.952 0 0-2.61.38q-6.66 4.94-9.28 12.46a.268.264 35.887 0 1-.46.07c-2.95-3.83-7.38-7.46-11.84-8.73-5.71-1.63-11.54 10.57-12.76 14.69a.17.169-54.386 0 1-.3.05q-4.11-5.81-10.94-6.43a2.31 2.31-65.842 0 0-1.89.72q-7.1 7.57-8.76 16.69a.318.315 18.691 0 1-.45.22q-5.59-2.68-10.99.57c-3.18 1.91-3.41 5.94-3.82 9.41q-12.51 108.11-22.18 187.02a1.306 1.304-.288 0 1-1.13 1.14l-94.67 12.54q-.46-24.25 3.35-48.29 1.34-8.46 3.45-21.55 1.33-8.31 8.45-30.92 17.79-56.48 56.58-103.11 41.67-50.08 99.64-80.11 2.57-1.33 14.42-6.93 7.99-3.77 14.71-6.32 37.81-14.3 73.48-19.12 17.34-2.34 40.78-2.72 28.57-.46 54.89 4.39 28.77 5.3 52.53 13.98c57.43 20.97 107.34 59.31 143.5 108.42q2.64 3.58 10.04 14.79c19.1 28.94 33.04 61.37 41.59 94.61q13.95 54.2 9.04 110.62" fill="#fee900"/><path d="M134.43 215.99l-6.38 8.99q-.15-.02-.28-.06a.529.525 23.551 0 1-.31-.78q2.81-4.71 6.97-8.15M842.34 399a.25.246-61.914 0 1 .45-.14q3.67 5.35 6.68 8.05c4.56 4.09 7.88 7.21 12.74 10.66q11.49 8.14 18.92 13.87 7.11 5.48 12.85 12.39 14.58 17.56 8.8 40.17a.253.251-53.427 0 1-.46.07q-2-3.27-5.53-7.59c-7.06-8.62-15.91-16.39-23.06-23.66q-12.95-13.17-21.69-28.63a.259.258 20.757 0 0-.47.21q6 17.06 17.31 31.11c4.27 5.29 9.77 12.21 15.34 18.3q10.29 11.25 18.76 21.45 8.79 10.57 13.78 23.22a.301.301 31.355 0 0 .58-.14q-.66-6.21-.69-13.5c-.02-6.22-.64-10.5-.87-16.11q-.14-3.54-.5-6.45-2.7-21.84-5.76-37.32-4.06-20.49-10.4-41.31-6.49-21.3-15.26-39.78c-15.11-31.83-35.83-60.8-62.45-83.78q-.83-.72-1.76-1.2a.238.233-4.969 0 0-.3.35q21.49 27.2 39.78 58.85 9.57 16.55 17.98 35.01c5.94 13.05 10.81 25.79 13.07 38.28a.297.291 2.677 0 1-.37.33q-8.13-2.31-16.52-6.53c-20.18-10.16-35.01-29.04-43.63-50.07q-3.33-8.11-5.81-16.48c-4.12-13.94-9.4-29.96-12.52-38.45-7.48-20.3-18.45-39.19-33.73-54.92a.935.933-20.267 0 1 .73-1.58q1.05.06 2.65.6c9.68 3.3 19.48 7.36 28.58 12.52q19.94 11.28 37.2 24.96c23.98 19 44.17 41.4 57.84 67.88 8.06 15.6 12.66 34.86 7.85 51.95a1.581 1.549 40.521 0 0 .1 1.13q5.03 10.51 7.31 19.17c2.52 9.55 5.63 23.96 6.98 35.52 4.06 34.77 3.4 70.47-.99 104.81q-4.3 33.66-14.07 65.92a.473.467 45.318 0 1-.9-.01L905.46 610a5.66 5.613 43.218 0 1-.1-2.84q2.79-12.81 3.95-19.54 1.67-9.64 2.32-24.68c.93-21.26-1.34-46.74-16.34-62.75a1.537 1.523 64.752 0 0-1.29-.47c-15.47 1.72-28.77-9.29-35.54-22.18q-8.42-16.01-12.18-34.09-4.61-22.14-3.94-44.45M211.55 279.95a.175.173-.884 0 0-.25-.24q-11.13 9.18-20.25 19.09-1.58 1.72-9.04 10.48-3.68 4.34-8.44 10.94-26.25 36.46-40.5 82.14-8.71 27.92-12.42 46.28-7.11 35.18-7.93 69.45a.357.356 58.182 0 0 .68.16q5.55-12.06 13.76-22.34 8.16-10.23 15.27-18.06c9.08-9.99 16.41-18.9 23.1-28.34q4.15-5.85 10.42-17.31 2.65-4.82 4.32-9.88a.188.186-20.894 0 0-.34-.15q-8.92 15.33-21.9 28.88c-9 9.39-21.42 20.32-29.47 32.56a.292.291 56.6 0 1-.53-.11c-1.76-9.95-2.39-20.77 2.06-30.04q5.03-10.47 13.75-18.15c13.9-12.22 32.57-23.45 44.72-38.5a.388.386-27.177 0 1 .69.22c.65 13.41-1.28 26.34-3.89 40.38q-4.08 21.88-15.14 41.07c-5.72 9.92-21.01 24.01-33.76 20.27a.891.884 29.692 0 0-.89.24c-9.58 9.86-15.03 23.71-17.22 37.11q-3.58 21.92-1.24 43.84 1.22 11.45 4.29 27.14a3.046 2.998 49.742 0 1-.12 1.6l-6.82 19.28a.33.329 47.608 0 1-.63-.03c-12.36-47.7-16.38-98.12-12.87-146.69q1.8-24.95 7.98-49.55 4.08-16.29 10.07-29.1a1.827 1.805 50.844 0 0 .12-1.25q-4.88-19.19 2.18-38.89c6.69-18.66 17.91-35.11 31.12-49.79q23.09-25.65 51.78-44.68 14.18-9.41 29.94-16.8 8.73-4.08 17.27-6.77.47-.15.93-.03a.782.779-61.097 0 1 .37 1.29q-17.07 18.08-27.49 40.79c-5.35 11.67-9.47 23.44-13.94 37.68q-6.08 19.34-11.01 31.65c-10.68 26.68-30.19 46.64-58.08 54.98a.326.323-16.538 0 1-.41-.22q-.12-.38.01-1c4.1-19.5 12.42-37.88 21.23-54.76q20.94-40.14 48.52-74.84" fill="#fefefe"/><path d="M827.59 545.32l4.29 5.34q5.37 1.13 10.63.51 10.14 1.39 20.19 1.29a1.389 1.378 80.876 0 1 1.33.97c6.97 21.98 13.12 41.15 20.33 66.05q4.77 16.46 9.75 33.23 2.99 10.07 3.21 10.71 4.48 13.34 6.6 20.59 3.54 12.07 5.06 16.32a1.381 1.377 4.161 0 0 .65.75q1.51.8 3.24.74-5.86 11.81-12.07 23.48-.93 1.76-3.94 6.49-4.78-.66-8.08-.64-40.64.17-81.28.06-16.87-.04-33.75.09-4.2.03-7.8.37l-504.41-.1q-16.27-.24-32.54-.2-42.62.1-85.25.12-7.64 0-13.95.85-7.27-13.04-14.3-26.32-1.14-2.13-4.29-9.31l2.31 1.42a.988.985-63.111 0 0 1.43-.47q7.43-18.45 11.84-32.03 1.62-5 4.99-13.35c3.05-7.58 5.18-15.1 8.42-22.97 2.62-6.36 4.39-15 6.99-21.07 4.06-9.51 6.81-19.7 10.4-28.66q.95-2.38 4.02-12.49 1.44-4.75 3.85-10.37c3.15-7.37 5.3-15.85 8.07-22.95q2.51-6.46 4.46-12.42a1.114 1.096-84.355 0 1 .9-.75l6.41-.89 11.48-1.46q.52-1.58 2.18-1.24 1.78.38 2.18.57l94.67-12.54a1.306 1.304-.288 0 0 1.13-1.14q9.67-78.91 22.18-187.02c.41-3.47.64-7.5 3.82-9.41q5.4-3.25 10.99-.57a.318.315 18.691 0 0 .45-.22q1.66-9.12 8.76-16.69a2.31 2.31-65.842 0 1 1.89-.72q6.83.62 10.94 6.43a.17.169-54.386 0 0 .3-.05c1.22-4.12 7.05-16.32 12.76-14.69 4.46 1.27 8.89 4.9 11.84 8.73a.268.264 35.887 0 0 .46-.07q2.62-7.52 9.28-12.46a2.779 2.747-52.952 0 1 2.61-.38q5.47 2.01 8.76 6.51a.417.414-63.211 0 0 .75-.25v-38.15a.53.524-84.232 0 1 .63-.52q2.73.56 9.97 2.82 7.74 2.41 12.35 8.81a.417.417 43.243 0 0 .68 0q4.4-6.34 12.4-10a1.005.995 50.886 0 1 1.02.11q6.49 4.98 10.95 11.54a.425.413 48.513 0 0 .66.05q5.81-6.6 14.83-9.04a1.106 1.084 55.041 0 1 .96.18q8.14 6.13 10.74 15.64a.345.343 59.334 0 0 .58.15q5.45-5.85 13.74-7.99a.759.745-27.896 0 1 .74.22q6.31 6.94 8.9 15.3a.398.396-29.173 0 0 .64.18c2.55-2.24 7.36-1.44 10.65-1.2a.797.783 89.078 0 1 .72.71q1.27 12.84 9.18 86.14 2.43 22.62 3.73 40.73a.379.376 47.054 0 0 .75.03l11.37-83.61a.928.919-3.84 0 1 .68-.77l2.8-.75a3.055 3.054 65.997 0 1 3.36 1.29l3.26 5.09a.464.463 32.292 0 0 .85-.19q.85-7.1 5.64-11.89a.822.816 51.136 0 1 1.26.14l4.99 7.78a.283.281 35.892 0 0 .51-.08q2.32-8.74 7.02-13.3a.517.501 40.594 0 1 .65-.04c2.8 2.01 4.35 5.05 6.18 8.09a.446.442 41.16 0 0 .79-.05q4.3-10.25 14-16.38a.606.592-44.318 0 1 .65 0q9.45 6.09 11.92 17.01a.151.149-42.675 0 0 .29.01q2.63-8.57 11.09-12.83a1.175 1.165-44.211 0 1 1.07.01c4.5 2.38 8.29 6.3 8.86 11.41a.35.349-27.637 0 0 .61.19q.46-.51 1-1.66c1.67-3.57 7.11-6.06 10.81-6.79a1.283 1.253-31.069 0 1 1.02.24q5.26 4.1 7.56 10.77a.314.313-43.994 0 0 .59.01q2.36-6.32 8.55-8.65a2.873 2.865 54.191 0 1 2.82.46q5.59 4.55 7.17 10.99a.343.341 46.578 0 0 .66.02c1.43-4.75 3.98-6.64 8.73-9.88a.683.68-39.036 0 1 .88.09q4.6 4.79 6.67 10.59a.458.455-31.146 0 0 .74.18q.34-.31.78-1.31c1.07-2.42 6.87-5.4 9.69-6.66a.571.57 72.96 0 1 .79.42l24.06 127.48a.217.214 66.914 0 0 .34.14q3.74-2.82 5.86-2.74a1.914 1.864 58.283 0 1 .8.2c6.92 3.43 12.09 6.7 14.62 14.38a.333.33 49.483 0 0 .61.05c2.53-4.99 6.39-9.43 11.88-10.74a1.943 1.94 50.484 0 1 1.24.12q9.73 4.26 13.73 14.54a.193.191-41.531 0 0 .35.02q4.68-9.05 15.24-9.61a.718.716-8.967 0 1 .73.53l28.43 105.82a.947.934-5.435 0 0 .86.7l13.71.84a.696.692-84.721 0 0 .73-.61zM495.54 299.84l8.27 4.15 4.41 2.61a.223.22-77.115 0 0 .33-.21l-1.83-25.8a.915.911 64.396 0 0-1.58-.56q-4.5 4.9-4.97 8.64a.671.669 13.209 0 1-.89.55l-4.15-1.47a.94.937 14.31 0 1-.62-1.04c.81-5.01.26-12.22-3.89-16.18a2.444 2.434 52.776 0 0-2.81-.39c-4.06 2.15-6.48 7.75-7.45 12.07a.265.261-75.737 0 1-.33.2l-7.73-2.3a.306.295 10.73 0 1-.22-.31c.39-6.07-.81-14.05-6.45-17.38a2.617 2.612-44.285 0 0-2.6-.03q-4.81 2.67-6.65 8.77-1.31 4.34-1.22 4.74a1.06 1.057-3.135 0 1-1.15 1.28l-6.24-.72a1.747 1.747-86.055 0 1-1.55-1.78c.17-6.08-2.22-13.12-8.02-16.54a.978.974-46.004 0 0-1.03.02c-5.23 3.42-7.26 11.08-7.06 16.63a.573.572 89.537 0 1-.59.6l-7.02-.18a.62.62-53.706 0 1-.6-.6c-.36-7.66-3.74-15.93-11.8-18.09a.584.581-83.313 0 0-.73.58l.92 27.34a.541.531-2.141 0 0 .56.51q11.83-.63 24.65.19 31.23 1.99 60.04 14.7m-156.47 20.72l-6.01 1.48q.06-1.95-.49-2.83a1.021 1.009 30.633 0 1-.16-.61c.15-2.23-2.88-4.26-4.46-5.17a.46.459-72.473 0 0-.69.36l-1.78 20.08a.348.344-20.078 0 0 .59.27l3.87-3.8 7.12-4.72q11.51-6.72 24.49-10.48 42.52-12.3 86.44-6.04 27.76 3.95 49.95 16.61l8.54 5.2 4.63 4.19a.251.25-70.358 0 0 .42-.2l-1.44-20.19a1.675 1.666 13.75 0 0-.8-1.31l-4.51-2.76-8.29-4.89q-12.6-5.47-18.33-7.38-32.91-10.97-67.49-9.58a.581.58-1.023 0 0-.56.58l.1 12.47a.815.812-2.294 0 1-.75.81l-7.46.53a.872.871-3.216 0 1-.93-.83c-.25-4.85-2.58-11.89-7.21-14.44a1.331 1.324-50.488 0 0-1.52.15c-4.66 3.93-5.91 10.31-5.8 16a.474.466 86.582 0 1-.41.47l-8.12.96a.616.611-8.402 0 1-.68-.5c-.83-4.49-2.82-9.56-6.73-12.34a1.904 1.904 39.086 0 0-2.51.26q-4.37 4.72-4.98 11.48-.41 4.55-.43 4.67a.704.68-86.598 0 1-.62.57q-3.11.27-6.21 2.2a.48.479 66.222 0 1-.72-.28q-2.02-7.3-8.3-10.1a2.45 2.44 30.349 0 0-2.97.77c-3.23 4.38-3.87 11.48-3.28 16.53a1.26 1.236 62.894 0 1-.3.96q-.48.54-1.21.85m369.78 117.9c-2.12-16.28-5.33-33.23-7.79-46.18-4.2-22.18-7.78-46.03-11.98-68.59q-.2-1.08-.47-4.11a.296.296-24.169 0 0-.5-.19c-2.32 2.22-3.3 5.87-3.7 8.95a.524.522-83.844 0 1-.57.46l-4.89-.43a.871.868 89.185 0 1-.79-.77q-.61-5.79-3.92-10.7a.654.65 48.737 0 0-1.02-.07q-3.9 4.23-4.57 9.76a.807.804-83.698 0 1-.87.7l-6.43-.57a.823.814-85.688 0 1-.74-.87q.44-6.23-3.63-11.62a.973.968 51.83 0 0-1.39-.17q-4.56 3.77-5.4 9.7a1.131 1.125-83.333 0 1-1.22.97l-6.73-.59a1.246 1.242 4.087 0 1-1.13-1.3q.35-6.29-3.59-11.13a2.033 2.022 56.248 0 0-2.53-.51q-3.03 1.62-4.39 5.41-1.34 3.76-1.11 4.71a.964.963-3.372 0 1-1.05 1.18l-5.91-.7a1.822 1.81 3.543 0 1-1.61-1.81q.02-5.8-3.52-10.71-1.46-2.03-3.09-.69-4.64 3.82-6.03 11.12a.528.516-79.341 0 1-.6.42l-8.36-1.39a.841.837.944 0 1-.7-.72q-.88-6.75-5.31-12.56a.458.456-63.714 0 0-.82.28v115.07a.399.396 69.239 0 0 .66.3q4.42-3.96 10.98-5.11a1.672 1.647 52.547 0 1 1 .14q10.81 5.12 15.04 16.56a.273.273-47.162 0 0 .52-.02q1.99-6.89 8.52-9.7 5.01-2.16 6.45-2.22a2.27 2.201 57.19 0 1 1.12.26c6.63 3.57 13.21 8.53 14.6 16.42a.335.334 53.047 0 0 .63.09q4.76-9.66 15.14-12.49a1.356 1.339 53.497 0 1 1.09.17c6.16 4 12.32 8.64 14.17 16.06a.321.321-41.167 0 0 .61.04q2.76-6.92 9.88-10.2c2.45-1.13 3.74-1.88 6.07-.68 2.98 1.52 6.36 3.59 8.07 6.24q.99 1.54 1.39 1.99a.246.242-69.985 0 0 .42-.2M334.89 333.85l-6.23 4.53-3.91 3.43a1.153 1.149 72.303 0 0-.37.72l-5.03 49.57a.252.251 73.07 0 0 .41.22l4.72-3.79 7.94-5.61q21.59-11.87 47.4-16.04 41.75-6.75 82.5.26 18.58 3.19 38.63 12.63l10.64 6.55 5.48 4.14a.306.301-74.832 0 0 .48-.28l-4.59-46.96a1.722 1.693-74.134 0 0-.65-1.19l-5.44-4.25-8.39-5.5q-2.75-1.95-8.81-4.67c-7.59-3.4-13.61-6.09-21.27-8.03q-52.36-13.3-103.41.66-15.48 4.23-30.1 13.61m-3.06 57.53l-9.07 7.27-4.06 3.75a1.945 1.915-18.5 0 0-.61 1.2l-10.02 98.72a.36.359-17.156 0 0 .59.31l4.48-3.75 11.75-7.83q22.31-12.13 48.35-16.84c13.6-2.45 27.43-3.53 41.25-3.8q32.14-.63 63.07 6.77 15.81 3.79 30.08 9.46l14.93 7.51 4.91 3.21a.349.344-76.512 0 0 .53-.33l-9.52-97.3a3.635 3.615 14.943 0 0-1.52-2.61l-4.55-3.23-10.63-6.73q-11.25-5.96-24.87-9.75-23.51-6.53-46.42-7.22c-22.05-.66-41.38.65-62.57 5.71q-15.73 3.76-27.74 10.03-4.55 2.38-8.36 5.45m211.47 46.97l.08-.08q-.36-.5-1.36-.07-.76.09-1.3-.12a.884.876-81.627 0 1-.56-.76q-.42-5.41-1.5-10.22-1.58-7-8.11-10.8a.928.928 11.763 0 0-1.39.91l14.35 121.26a2.049 1.789-62.919 0 0 .11.44l63.5 172.41a.494.475 79.346 0 0 .45.32h298.71a1.444 1.444-8.606 0 0 1.38-1.87l-44.61-145.02a.558.544 82.06 0 0-.49-.38l-97.21-5.97a.605.603 79.602 0 1-.52-.36l-4.82-10.63a.332.332-10.778 0 1 .32-.47l41.03 2.52a.319.316-5.787 0 0 .33-.4l-24.93-92.8a.53.53 40.323 0 0-.91-.21q-3.61 4.11-4.65 8.45a.755.738 9.341 0 1-.8.56l-7.94-.81a1.145 1.143-3.924 0 1-1-.87q-2.67-11.37-9.83-16.37a.897.891 43.725 0 0-1.06.02c-4.93 3.7-5.86 8.98-5.9 14.65a.535.532 3.46 0 1-.59.52l-9.3-.94a.78.78-51.589 0 1-.69-.69c-.22-2.12-.01-5.04-.53-6.94q-2.03-7.44-9.17-11.08a1.153 1.151 41.091 0 0-1.19.08q-4.78 3.33-5.77 9.34-1.1 6.61-1.09 6.65a.393.384.666 0 1-.44.42l-11.41-1.35a.641.636 3.139 0 1-.56-.62c-.17-6.85-.99-12.34-6.49-16.76a2.53 2.53-38.135 0 0-2.66-.32c-6.2 2.9-7.03 9.05-7.05 15.15a.627.624 2.911 0 1-.69.62l-11.51-1.17a.757.754 2.111 0 1-.69-.74c-.07-5.63-2.3-14.97-7.68-18a3.187 3.173 45.826 0 0-3.02-.05c-5.73 2.98-7.25 9.66-7.01 15.68a.605.599-87.928 0 1-.66.62l-11.65-1.18a1.254 1.246 3.075 0 1-1.12-1.24q.03-12.16-7.97-18.5a2.718 2.695 50.443 0 0-2.91-.29c-7.08 3.61-8.04 9.23-8.49 16.56a.404.402 4.659 0 1-.45.38l-11.01-1.12a.604.601 3.07 0 1-.55-.61c.09-6.87-.82-13.85-6.62-18.2q-3.53-2.65-7.18-.09c-5.6 3.91-6.25 9.71-6.57 16.16a.653.643-83.685 0 1-.75.61l-12.04-2.01a.862.86-86.06 0 1-.73-.84q-.21-13.3-10.95-20.66a1.04 1.04-38.568 0 0-.98-.11q-11.95 4.59-12.24 17.8a.585.582 3.185 0 1-.64.57zm-218.01 63.58q-7.54 4.85-13.21 10.17l-5.02 4.58a1.236 1.176-20.152 0 0-.38.77l-1.21 13.7a.422.42-1.134 0 0 .47.45q9.52-1.2 25.31-3.43.45-.07 6.74-.42a1.118 1.106-24.376 0 1 .81.3l21.99 20.75a1.009.99-65.154 0 1 .31.87q-2.28 16.55-4.46 30.53-4.31 27.59-4.7 30.56-2.09 15.95-3.49 23.4-2.26 12.04-3.87 23.35-3.46 24.33-8.22 53.33a.738.738 4.347 0 0 .73.85H503.6a.648.648-4.542 0 0 .64-.75L477.29 544.2a.733.727 68.131 0 1 .3-.71l22-15.63a2.211 2.185 29.917 0 1 1.52-.4l30.23 3.07a.316.308-89.301 0 0 .34-.34l-1.62-16.53a1.244 1.241-72.217 0 0-.41-.8l-5.57-4.92-15.3-9.32q-15.17-7.45-33.53-12.09-25.04-6.33-48-6.83c-24.64-.54-47.74 1.38-71.28 8.55q-16.76 5.1-30.68 13.68m-35.6 18.46l-107.48 12.6a.847.826-80.437 0 0-.67.49c-4.33 9.6-6.69 16.89-11.17 29.12q-9.02 24.63-21.93 61.16-11.22 31.75-28.93 79.76-1.4 3.8-1.65 5.28a.77.761-85.475 0 0 .75.89H232.4a1.22 1.22-80.147 0 0 1.15-.81l57.55-159.1a3.18 2.775-35.397 0 0 .18-.75l2.82-26.22q.67-1.34.44-2.41a.672.671 84.997 0 0-.63-.53q-2.15-.09-4.22.52m215.39 18.6q.85 3.65 1.76 7.25 26.43 104.6 36.66 146.75 2.38 9.81 3.67 16.79a.81.81 84.918 0 0 .8.67h46.61a.435.433-9.899 0 0 .41-.58l-62.47-167.66a.62.62-25.384 0 0-.5-.4l-26.26-3.57a.617.614 87.354 0 0-.68.75M323.983 711.37a.61.61 12.681 0 0 .602-.51l25.655-154.182a.61.61 44.309 0 0-.227-.581l-12.818-9.978a.61.61-84.462 0 0-.959.308l-48.713 164.159a.61.61 67.627 0 0 .584.784z"/><path d="M503.81 303.99l-.55-6.04a2.261 2.252 12.65 0 0-1.12-1.76l-5.79-3.34a.612.611-75.377 0 0-.92.54l.11 6.45q-28.81-12.71-60.04-14.7-12.82-.82-24.65-.19a.541.531-2.141 0 1-.56-.51l-.92-27.34a.584.581-83.313 0 1 .73-.58c8.06 2.16 11.44 10.43 11.8 18.09a.62.62-83.173 0 0 .6.6l7.02.18a.573.572 89.537 0 0 .59-.6c-.2-5.55 1.83-13.21 7.06-16.63a.978.974-46.004 0 1 1.03-.02c5.8 3.42 8.19 10.46 8.02 16.54a1.747 1.747-86.055 0 0 1.55 1.78l6.24.72a1.06 1.057-3.135 0 0 1.15-1.28q-.09-.4 1.22-4.74 1.84-6.1 6.65-8.77a2.617 2.612-44.285 0 1 2.6.03c5.64 3.33 6.84 11.31 6.45 17.38a.306.295 10.73 0 0 .22.31l7.73 2.3a.265.261-75.737 0 0 .33-.2c.97-4.32 3.39-9.92 7.45-12.07a2.444 2.434 52.776 0 1 2.81.39c4.15 3.96 4.7 11.17 3.89 16.18a.94.937 14.31 0 0 .62 1.04l4.15 1.47a.671.669 13.209 0 0 .89-.55q.47-3.74 4.97-8.64a.915.911 64.396 0 1 1.58.56l1.83 25.8a.223.22-77.115 0 1-.33.21z" fill="#fefefe"/><path d="M496.49 305.75q-.17 10.51 1.45 19.96-22.19-12.66-49.95-16.61-43.92-6.26-86.44 6.04-12.98 3.76-24.49 10.48-1.42.22-1.65.17a1.858 1.706-49.488 0 1-.12-3.35l3.78-1.88q.73-.31 1.21-.85a1.26 1.236 62.894 0 0 .3-.96c-.59-5.05.05-12.15 3.28-16.53a2.45 2.44 30.349 0 1 2.97-.77q6.28 2.8 8.3 10.1a.48.479 66.222 0 0 .72.28q3.1-1.93 6.21-2.2a.704.68-86.598 0 0 .62-.57q.02-.12.43-4.67.61-6.76 4.98-11.48a1.904 1.904 39.086 0 1 2.51-.26c3.91 2.78 5.9 7.85 6.73 12.34a.616.611-8.402 0 0 .68.5l8.12-.96a.474.466 86.582 0 0 .41-.47c-.11-5.69 1.14-12.07 5.8-16a1.331 1.324-50.488 0 1 1.52-.15c4.63 2.55 6.96 9.59 7.21 14.44a.872.871-3.216 0 0 .93.83l7.46-.53a.815.812-2.294 0 0 .75-.81l-.1-12.47a.581.58-1.023 0 1 .56-.58q34.58-1.39 67.49 9.58 5.73 1.91 18.33 7.38" fill="#fefefe"/><path d="M503.81 303.99l-8.27-4.15-.11-6.45a.612.611-75.377 0 1 .92-.54l5.79 3.34a2.261 2.252 12.65 0 1 1.12 1.76z" fill="#c6c6c6"/><path d="M708.43 438.66q-.4-.45-1.39-1.99c-1.71-2.65-5.09-4.72-8.07-6.24-2.33-1.2-3.62-.45-6.07.68q-7.12 3.28-9.88 10.2a.321.321-41.167 0 1-.61-.04c-1.85-7.42-8.01-12.06-14.17-16.06a1.356 1.339 53.497 0 0-1.09-.17q-10.38 2.83-15.14 12.49a.335.334 53.047 0 1-.63-.09c-1.39-7.89-7.97-12.85-14.6-16.42a2.27 2.201 57.19 0 0-1.12-.26q-1.44.06-6.45 2.22-6.53 2.81-8.52 9.7a.273.273-47.162 0 1-.52.02q-4.23-11.44-15.04-16.56a1.672 1.647 52.547 0 0-1-.14q-6.56 1.15-10.98 5.11a.399.396 69.239 0 1-.66-.3V305.74a.458.456-63.714 0 1 .82-.28q4.43 5.81 5.31 12.56a.841.837.944 0 0 .7.72l8.36 1.39a.528.516-79.341 0 0 .6-.42q1.39-7.3 6.03-11.12 1.63-1.34 3.09.69 3.54 4.91 3.52 10.71a1.822 1.81 3.543 0 0 1.61 1.81l5.91.7a.964.963-3.372 0 0 1.05-1.18q-.23-.95 1.11-4.71 1.36-3.79 4.39-5.41a2.033 2.022 56.248 0 1 2.53.51q3.94 4.84 3.59 11.13a1.246 1.242 4.087 0 0 1.13 1.3l6.73.59a1.131 1.125-83.333 0 0 1.22-.97q.84-5.93 5.4-9.7a.973.968 51.83 0 1 1.39.17q4.07 5.39 3.63 11.62a.823.814-85.688 0 0 .74.87l6.43.57a.807.804-83.698 0 0 .87-.7q.67-5.53 4.57-9.76a.654.65 48.737 0 1 1.02.07q3.31 4.91 3.92 10.7a.871.868 89.185 0 0 .79.77l4.89.43a.524.522-83.844 0 0 .57-.46c.4-3.08 1.38-6.73 3.7-8.95a.296.296-24.169 0 1 .5.19q.27 3.03.47 4.11c4.2 22.56 7.78 46.41 11.98 68.59 2.46 12.95 5.67 29.9 7.79 46.18a.246.242-69.985 0 1-.42.2m-101.125-27.27a.57.57 19.082 0 0 .478-.582l-2.786-82.62a.57.57 73.898 0 0-.534-.55l-5.258-.321a.57.57-15.176 0 0-.605.569v84.244a.57.57-19.979 0 0 .661.563zm93.985 15.34q.24-1.68-.15-3.76-6.23-33.05-8.86-48.06-.69-3.94-1.97-8.57c-1.77-6.44-2.38-13.57-3.74-19.92q-1.68-7.77-2.18-11.17a.449.445 86.968 0 0-.43-.39l-4.71-.22a.348.344-3.333 0 0-.36.4l14.46 89.45a.72.718-4.718 0 0 .71.6q3.52 0 6.33 2.02a.574.569 21.862 0 0 .9-.38m-72.507-66.011a.62.62-29.907 0 0-.683.617v36.636a.62.62 19.231 0 0 .565.618l33.15 2.926a.62.62-30.601 0 0 .673-.662l-2.591-36.464a.62.62-.874 0 0-.556-.573z" fill="#fefefe"/><path d="M496.49 305.75l8.29 4.89 1.7 20.27-8.54-5.2q-1.62-9.45-1.45-19.96" fill="#c6c6c6"/><path d="M506.48 330.91l-1.7-20.27 4.51 2.76a1.675 1.666 13.75 0 1 .8 1.31l1.44 20.19a.251.25-70.358 0 1-.42.2zm-8 1.37l2.47 47.49q-20.05-9.44-38.63-12.63-40.75-7.01-82.5-.26-25.81 4.17-47.4 16.04.88-22.1 2.65-44.42.17-2.24-.18-4.65 14.62-9.38 30.1-13.61 51.05-13.96 103.41-.66c7.66 1.94 13.68 4.63 21.27 8.03q6.06 2.72 8.81 4.67m-26.65 27.97l-1-29.69a1.043 1.032-86.285 0 0-.86-.99l-30.46-5.06a.577.569 4.724 0 0-.67.56v29.88a.434.421 3.02 0 0 .39.42q15.87 1.64 31.92 5.44a.558.556-84.381 0 0 .68-.56m-138.77-38.21q.11 2.08-.39 2.89-1.58 2.51-2.73 5.41l-3.87 3.8a.348.344-20.078 0 1-.59-.27l1.78-20.08a.46.459-72.473 0 1 .69-.36c1.58.91 4.61 2.94 4.46 5.17a1.021 1.009 30.633 0 0 .16.61q.55.88.49 2.83" fill="#fefefe"/><path d="M339.07 320.56l-3.78 1.88a1.858 1.706-49.488 0 0 .12 3.35q.23.05 1.65-.17l-7.12 4.72q1.15-2.9 2.73-5.41.5-.81.39-2.89z" fill="#c6c6c6"/><path d="M471.83 360.25a.558.556-84.381 0 1-.68.56q-16.05-3.8-31.92-5.44a.434.421 3.02 0 1-.39-.42v-29.88a.577.569 4.724 0 1 .67-.56l30.46 5.06a1.043 1.032-86.285 0 1 .86.99z"/><path d="M607.305 411.39l-8.044 1.303a.57.57 29.347 0 1-.661-.563v-84.244a.57.57 43.176 0 1 .605-.569l5.258.321a.57.57-67.815 0 1 .534.55l2.786 82.62a.57.57 18.462 0 1-.478.582M498.48 332.28l8.39 5.5q2.06 17.11 3.55 34.53c.28 3.3 1.32 9.22 1.17 14.01l-10.64-6.55zm-163.59 1.57q.35 2.41.18 4.65-1.77 22.32-2.65 44.42l-7.94 5.61q-.32-2.55-.15-4.29 1.92-20.53 3.43-41.1.06-.88.5-2.36.34-1.17.4-2.4zm366.4 92.88a.574.569 21.862 0 1-.9.38q-2.81-2.02-6.33-2.02a.72.718-4.718 0 1-.71-.6l-14.46-89.45a.348.344-3.333 0 1 .36-.4l4.71.22a.449.445 86.968 0 1 .43.39q.5 3.4 2.18 11.17c1.36 6.35 1.97 13.48 3.74 19.92q1.28 4.63 1.97 8.57 2.63 15.01 8.86 48.06.39 2.08.15 3.76" fill="#c6c6c6"/><path d="M506.87 337.78l5.44 4.25a1.722 1.693-74.134 0 1 .65 1.19l4.59 46.96a.306.301-74.832 0 1-.48.28l-5.48-4.14c.15-4.79-.89-10.71-1.17-14.01q-1.49-17.42-3.55-34.53m-178.21.6q-.06 1.23-.4 2.4-.44 1.48-.5 2.36-1.51 20.57-3.43 41.1-.17 1.74.15 4.29l-4.72 3.79a.252.251 73.07 0 1-.41-.22l5.03-49.57a1.153 1.149 72.303 0 1 .37-.72z" fill="#fefefe"/><path d="M628.783 360.719l30.558 3.098a.62.62 40.165 0 1 .556.573l2.591 36.464a.62.62-40.148 0 1-.673.662l-33.15-2.926a.62.62 35.719 0 1-.565-.618v-36.636a.62.62 38.809 0 1 .683-.617"/><path d="M54.68 367.7l-2.61 8.61q-.57.18-.93-.16-.38-.35-.24-.9 1.1-4.22 2.67-8.17a.511.506 33.953 0 1 .84-.16q.26.27.27.78m447.11 19.46l5.85 99.48q-14.27-5.67-30.08-9.46-30.93-7.4-63.07-6.77c-13.82.27-27.65 1.35-41.25 3.8q-26.04 4.71-48.35 16.84 2.59-18.3 2.7-24.3.23-12.63.75-18.37 2.56-28.06 3.49-57 3.81-3.07 8.36-5.45 12.01-6.27 27.74-10.03c21.19-5.06 40.52-6.37 62.57-5.71q22.91.69 46.42 7.22 13.62 3.79 24.87 9.75m-81.22 1.01v42.78a.501.491-88.806 0 0 .47.5q17.92.78 34.13 2.86a.507.503-87.134 0 0 .57-.52l-1.44-42.81a1.287 1.277-89.272 0 0-1.2-1.24l-32.11-1.97a.4.392-88 0 0-.42.4m-41.14 5.629a.71.71 12.337 0 0-.595.658l-3.681 60.037a.71.71 82.589 0 0 .823.744l14.827-2.401a.71.71 84.433 0 0 .596-.701v-59.442a.71.71 12.547 0 0-.824-.701zm102.248 6.195a.55.55 8.072 0 0-.676.521l-1.55 58.807a.55.55 16.948 0 0 .424.55l11.881 2.791a.55.55 11.269 0 0 .675-.565l-3.121-59.905a.55.55-38.419 0 0-.423-.507zm-132.297 62.038a.3.3 75.235 0 0 .188-.265l2.76-60.641a.3.3 82.18 0 0-.412-.292l-8.506 3.427a.3.3 78.748 0 0-.187.252l-5.451 61.729a.3.3-86.519 0 0 .411.305z" fill="#fefefe"/><path d="M501.79 387.16l10.63 6.73q1.47 17.17 3.34 33.89c1.82 16.23 3.04 31.22 4.53 46.82l.57 7.77q.45 6.08 1.71 11.78l-14.93-7.51z" fill="#c6c6c6"/><path d="M420.99 387.77l32.11 1.97a1.287 1.277-89.272 0 1 1.2 1.24l1.44 42.81a.507.503-87.134 0 1-.57.52q-16.21-2.08-34.13-2.86a.501.491-88.806 0 1-.47-.5v-42.78a.4.392-88 0 1 .42-.4"/><path d="M331.83 391.38q-.93 28.94-3.49 57-.52 5.74-.75 18.37-.11 6-2.7 24.3l-11.75 7.83 9.62-100.23z" fill="#c6c6c6"/><path d="M379.43 393.799l11.146-1.806a.71.71 32.464 0 1 .824.701v59.442a.71.71-69.175 0 1-.596.701l-14.827 2.401a.71.71-60.722 0 1-.823-.744l3.681-60.037a.71.71 29.049 0 1 .595-.658"/><path d="M512.42 393.89l4.55 3.23a3.635 3.615 14.943 0 1 1.52 2.61l9.52 97.3a.349.344-76.512 0 1-.53.33l-4.91-3.21q-1.26-5.7-1.71-11.78l-.57-7.77c-1.49-15.6-2.71-30.59-4.53-46.82q-1.87-16.72-3.34-33.89m-189.66 4.76l-9.62 100.23-4.48 3.75a.36.359-17.156 0 1-.59-.31l10.02-98.72a1.945 1.915-18.5 0 1 .61-1.2z" fill="#fefefe"/><path d="M481.678 399.994l7.21 1.692a.55.55-38.373 0 1 .423.507l3.121 59.905a.55.55 42.147 0 1-.675.565l-11.881-2.791a.55.55 43.23 0 1-.424-.55l1.55-58.807a.55.55 44.486 0 1 .676-.521m-132.297 62.038l-11.197 4.515a.3.3-64.45 0 1-.411-.305l5.451-61.729a.3.3-66.126 0 1 .187-.252l8.506-3.427a.3.3-67.46 0 1 .412.292l-2.76 60.641a.3.3-62.121 0 1-.188.265"/><path d="M542.02 438.2q.19.15.44.17.41.07.84-.02l10.32.98a.585.582 3.185 0 0 .64-.57q.29-13.21 12.24-17.8a1.04 1.04-38.568 0 1 .98.11q10.74 7.36 10.95 20.66a.862.86-86.06 0 0 .73.84l12.04 2.01a.653.643-83.685 0 0 .75-.61c.32-6.45.97-12.25 6.57-16.16q3.65-2.56 7.18.09c5.8 4.35 6.71 11.33 6.62 18.2a.604.601 3.07 0 0 .55.61l11.01 1.12a.404.402 4.659 0 0 .45-.38c.45-7.33 1.41-12.95 8.49-16.56a2.718 2.695 50.443 0 1 2.91.29q8 6.34 7.97 18.5a1.254 1.246 3.075 0 0 1.12 1.24l11.65 1.18a.605.599-87.928 0 0 .66-.62c-.24-6.02 1.28-12.7 7.01-15.68a3.187 3.173 45.826 0 1 3.02.05c5.38 3.03 7.61 12.37 7.68 18a.757.754 2.111 0 0 .69.74l11.51 1.17a.627.624 2.911 0 0 .69-.62c.02-6.1.85-12.25 7.05-15.15a2.53 2.53-38.135 0 1 2.66.32c5.5 4.42 6.32 9.91 6.49 16.76a.641.636 3.139 0 0 .56.62l11.41 1.35a.393.384.666 0 0 .44-.42q-.01-.04 1.09-6.65.99-6.01 5.77-9.34a1.153 1.151 41.091 0 1 1.19-.08q7.14 3.64 9.17 11.08c.52 1.9.31 4.82.53 6.94a.78.78 86.928 0 0 .69.69l9.3.94a.535.532 3.46 0 0 .59-.52c.04-5.67.97-10.95 5.9-14.65a.897.891 43.725 0 1 1.06-.02q7.16 5 9.83 16.37a1.145 1.143-3.924 0 0 1 .87l7.94.81a.755.738 9.341 0 0 .8-.56q1.04-4.34 4.65-8.45a.53.53-88.934 0 1 .91.21l24.93 92.8a.319.316-5.787 0 1-.33.4l-41.03-2.52a.332.332-10.778 0 0-.32.47l4.82 10.63a.605.603 79.602 0 0 .52.36l97.21 5.97a.558.544 82.06 0 1 .49.38l44.61 145.02a1.444 1.444-8.606 0 1-1.38 1.87H607.57a.494.475 79.346 0 1-.45-.32l-63.5-172.41a2.049 1.789-62.919 0 1-.11-.44l-14.35-121.26a.928.928 11.763 0 1 1.39-.91q6.53 3.8 8.11 10.8 1.08 4.81 1.5 10.22a.884.876-81.627 0 0 .56.76q.54.21 1.3.12m64.51 235.34a.365.361 72.907 0 0 .23-.44q-3.8-13.93-7.77-27.76c-.89-3.06-1.5-7.11-2.31-9.76q-2.92-9.52-8.08-29.96-2.14-8.48-11.88-44.04c-2.64-9.65-5.3-20.9-8.11-30.17q-1.78-5.86-3.01-11.41-.34-1.54-3.13-11.39-5.73-20.25-15.64-60.1a.564.551-.666 0 0-.44-.42l-6.29-1.24a.232.228 2.765 0 0-.28.25q1.48 14.94 4.17 30.19c1.16 6.56 1.56 14.38 2.51 19.94q3.08 18.02 4.81 39.38a7.568 7.469 32.285 0 0 .5 2.15l54.26 134.56a.387.381-17.005 0 0 .44.23zM568.373 464.4a.65.65 11.221 0 0-.728.757l8.878 50.212a.65.65-83.633 0 0 .584.535l9.839.861a.65.65 87.83 0 0 .695-.768l-9.394-49.807a.65.65-50.526 0 0-.551-.523zm198.922 5.808a.82.82-84.533 0 0-.848 1.009l17.422 73.022a.82.82-66.081 0 0 .747.628l8.992.551a.82.82-66.862 0 0 .836-1.053l-21.91-73.297a.82.82-6.758 0 0-.735-.583zm-113.221 50.257a.42.42 87.189 0 0 .434-.517l-11.061-46.378a.42.42 68.512 0 0-.352-.319l-9.282-1.26a.42.42-83.485 0 0-.467.504l10.137 47.004a.42.42-10.69 0 0 .384.331zm65.558 3.416a.34.34-9.566 0 0 .35-.425l-11.156-42.962a.34.34 50.574 0 0-.274-.25l-9.126-1.52a.34.34-4.944 0 0-.387.414l10.473 43.877a.34.34-87.409 0 0 .309.261zm52.733 3.51a.33.33-1.677 0 0 .338-.419l-11.506-40.711a.33.33 70.852 0 0-.263-.235l-6.602-1.102a.33.33-3.797 0 0-.374.408l10.742 41.356a.33.33 76.324 0 0 .299.247zM873.37 691.33q-36.59 1.09-93.84 2.44c-8.68.21-17.95-.14-26.69.45-15.5 1.06-31.67 1.13-48.08 1.62q-37.67 1.14-86.82 2.4a.605.602 80.818 0 0-.56.78l1.06 3.45a1.105 1.097 81.383 0 0 1.05.78h274.58a.481.478 82.173 0 0 .46-.61q-2.08-7.26-5.1-18.93c-1.8-6.91-4.46-12.97-6.12-19.65-4.4-17.73-10.83-37.21-15.21-52.83-.55-1.98-2.19-5.96-2.83-8.54q-3.43-13.72-7.6-26.51c-.2-.62-.25-1.82-.56-2.72a.665.646-5.876 0 0-.57-.45l-10.57-.93a.508.504 86.261 0 0-.54.62l28.22 118.27a.295.294-7.215 0 1-.28.36" fill="#fefefe"/><path d="M543.38 438.27l-.92.1q-.25-.02-.44-.17 1-.43 1.36.07" fill="#151511"/><path d="M543.38 438.27l-.08.08q-.43.09-.84.02zm63.15 235.27l-.02.01a.387.381-17.005 0 1-.44-.23l-54.26-134.56a7.568 7.469 32.285 0 1-.5-2.15q-1.73-21.36-4.81-39.38c-.95-5.56-1.35-13.38-2.51-19.94q-2.69-15.25-4.17-30.19a.232.228 2.765 0 1 .28-.25l6.29 1.24a.564.551-.666 0 1 .44.42q9.91 39.85 15.64 60.1 2.79 9.85 3.13 11.39 1.23 5.55 3.01 11.41c2.81 9.27 5.47 20.52 8.11 30.17q9.74 35.56 11.88 44.04 5.16 20.44 8.08 29.96c.81 2.65 1.42 6.7 2.31 9.76q3.97 13.83 7.77 27.76a.365.361 72.907 0 1-.23.44" fill="#c6c6c6"/><path d="M568.373 464.4l9.323 1.267a.65.65-47.256 0 1 .551.523l9.394 49.807a.65.65-58.527 0 1-.695.768l-9.839-.861a.65.65-57.029 0 1-.584-.535l-8.878-50.212a.65.65 34.701 0 1 .728-.757"/><path d="M767.295 470.208l4.504.277a.82.82 29.41 0 1 .735.583l21.91 73.297a.82.82-59.028 0 1-.836 1.053l-8.992-.551a.82.82-51.354 0 1-.747-.628l-17.422-73.022a.82.82-62.564 0 1 .848-1.009" fill="#c6c6c6"/><path d="M654.074 520.465l-10.207-.635a.42.42 28.443 0 1-.384-.331l-10.137-47.004a.42.42-62.878 0 1 .467-.504l9.282 1.26a.42.42-56.7 0 1 .352.319l11.061 46.378a.42.42 80.553 0 1-.434.517m65.558 3.416l-9.811-.605a.34.34-62.286 0 1-.309-.261l-10.473-43.877a.34.34 32.518 0 1 .387-.414l9.126 1.52a.34.34 43.879 0 1 .274.25l11.156 42.962a.34.34 26.804 0 1-.35.425"/><path d="M508.78 498.62q-.48 2.55-.31 4.88.58 8.37 1.24 19.52a1.017 1.005 89.671 0 0 .96.96l13.88.63a.877.87-1.15 0 0 .91-.94l-.89-10.84a2.39 1.889 58.283 0 0-.06-.32q-.67-2.35-.43-4.57l5.57 4.92a1.244 1.241-72.217 0 1 .41.8l1.62 16.53a.316.308-89.301 0 1-.34.34l-30.23-3.07a2.211 2.185 29.917 0 0-1.52.4l-22 15.63a.733.727 68.131 0 0-.3.71l26.95 166.74a.648.648-4.542 0 1-.64.75H337.09a.738.738 4.347 0 1-.73-.85q4.76-29 8.22-53.33 1.61-11.31 3.87-23.35 1.4-7.45 3.49-23.4.39-2.97 4.7-30.56 2.18-13.98 4.46-30.53a1.009.99-65.154 0 0-.31-.87l-21.99-20.75a1.118 1.106-24.376 0 0-.81-.3q-6.29.35-6.74.42-15.79 2.23-25.31 3.43a.422.42-1.134 0 1-.47-.45l1.21-13.7a1.236 1.176-20.152 0 1 .38-.77l5.02-4.58-1.42 13.45a.647.641-1.737 0 0 .75.7l11.65-1.88a.805.799 87.732 0 0 .67-.73l1.56-21.71q13.92-8.58 30.68-13.68c23.54-7.17 46.64-9.09 71.28-8.55q22.96.5 48 6.83 18.36 4.64 33.53 12.09m-138.65 53.45q-3.21 17.84-5.43 34.82c-1.23 9.42-2.83 18.4-4.08 29.33q-.78 6.89-4.83 31.22c-1.58 9.47-2.33 18.46-4.06 28.7q-2.5 14.84-3.43 26.16a.857.853-87.533 0 0 .85.93h16.47a.622.621-88.543 0 0 .62-.59q1.38-22.61 3.65-47.17.51-5.49 2.75-36.53.21-2.81.59-5.5c.64-4.54.46-9 .86-13.85q2.04-25.06 3.18-47.88a.303.303 40.938 0 0-.32-.32l-6.44.34a.415.396-85.457 0 0-.38.34m96.598.552a.53.53 46.189 0 0-.525-.452h-5.624a.53.53 78.648 0 0-.529.568l10.675 150.07a.53.53-31.625 0 0 .529.492h17.411a.53.53-19.293 0 0 .524-.608z" fill="#fefefe"/><path d="M772.365 527.391l-7.366-.456a.33.33-67.74 0 1-.299-.247l-10.742-41.356a.33.33 37.158 0 1 .374-.408l6.602 1.102a.33.33-59.481 0 1 .263.235l11.506 40.711a.33.33 22.905 0 1-.338.419"/><path d="M524.08 507.94q-.24 2.22.43 4.57a2.39 1.889 58.283 0 1 .06.32l.89 10.84a.877.87-1.15 0 1-.91.94l-13.88-.63a1.017 1.005 89.671 0 1-.96-.96q-.66-11.15-1.24-19.52-.17-2.33.31-4.88zm-198.79-6.01l-1.56 21.71a.805.799 87.732 0 1-.67.73l-11.65 1.88a.647.641-1.737 0 1-.75-.7l1.42-13.45q5.67-5.32 13.21-10.17m-31.19 20.88l-.26-1.66a.607.602 87.638 0 0-.56-.52l-3.59-.24q2.07-.61 4.22-.52a.672.671 84.997 0 1 .63.53q.23 1.07-.44 2.41" fill="#c6c6c6"/><path d="M289.69 520.39l3.59.24a.607.602 87.638 0 1 .56.52l.26 1.66-2.82 26.22a3.18 2.775-35.397 0 1-.18.75l-57.55 159.1a1.22 1.22-80.147 0 1-1.15.81H118.61a.77.761-85.475 0 1-.75-.89q.25-1.48 1.65-5.28 17.71-48.01 28.93-79.76 12.91-36.53 21.93-61.16c4.48-12.23 6.84-19.52 11.17-29.12a.847.826-80.437 0 1 .67-.49zm-34.06 99.5a.413.413-32.985 0 0 .8.17q3.27-8.92 6.5-16.76 2.29-5.57 2.71-6.51 1.74-3.92 4.86-12.3 3.1-8.31 4.95-12.25 1.81-3.88 9.69-22.92 2.62-6.33 3.11-10.15 1.34-10.56 1.34-10.59a.812.807.843 0 0-.88-.9l-8.51.77a1.008 1.007-85.097 0 0-.89.75q-11.86 46.04-21.87 84.42c-.59 2.27-1.67 4.26-1.81 6.27m-106.55 70l43.78-147.5a.638.63-84.959 0 0-.67-.81l-4.23.41a1.317 1.309-82.926 0 0-1.11.87l-55.92 158.12a.422.421-79.948 0 0 .39.56q29.02.82 44.7.45c10.58-.25 23.48.4 35.91-.13a1.112 1.111-84.833 0 0 1.03-.86l1.38-5.86a.616.61-82.016 0 0-.56-.75l-64.32-3.95a.43.43-79.646 0 1-.38-.55m104.861-102.937a.34.34-8.732 0 0 .286-.27l7.866-39.666a.34.34 79.595 0 0-.357-.406l-7.939.56a.34.34-4.554 0 0-.311.284l-6.66 40.048a.34.34-9.02 0 0 .382.393zM203.228 550.8a.4.4 83.066 0 0-.33.304l-9.523 40.591a.4.4-27.478 0 0 .449.487l9.318-1.402a.4.4-25.572 0 0 .33-.304l9.523-40.591a.4.4-.706 0 0-.449-.487z" fill="#fefefe"/><path d="M255.63 619.89c.14-2.01 1.22-4 1.81-6.27q10.01-38.38 21.87-84.42a1.008 1.007-85.097 0 1 .89-.75l8.51-.77a.812.807.843 0 1 .88.9q0 .03-1.34 10.59-.49 3.82-3.11 10.15-7.88 19.04-9.69 22.92-1.85 3.94-4.95 12.25-3.12 8.38-4.86 12.3-.42.94-2.71 6.51-3.23 7.84-6.5 16.76a.413.413-32.985 0 1-.8-.17" fill="#c6c6c6"/><path d="M505.08 538.99a.617.614 87.354 0 1 .68-.75l26.26 3.57a.62.62 34.27 0 1 .5.4l62.47 167.66a.435.433-9.899 0 1-.41.58h-46.61a.81.81 84.918 0 1-.8-.67q-1.29-6.98-3.67-16.79-10.23-42.15-36.66-146.75-.91-3.6-1.76-7.25" fill="#fefefe"/><path d="M149.08 689.89a.43.43-79.646 0 0 .38.55l64.32 3.95a.616.61-82.016 0 1 .56.75l-1.38 5.86a1.112 1.111-84.833 0 1-1.03.86c-12.43.53-25.33-.12-35.91.13q-15.68.37-44.7-.45a.422.421-79.948 0 1-.39-.56l55.92-158.12a1.317 1.309-82.926 0 1 1.11-.87l4.23-.41a.638.63-84.959 0 1 .67.81z" fill="#c6c6c6"/><path d="M323.983 711.37h-35.876a.61.61 56.006 0 1-.584-.784l48.713-164.159a.61.61-26.549 0 1 .959-.308l12.818 9.978a.61.61 63.994 0 1 .227.581L324.585 710.86a.61.61 47.778 0 1-.602.51" fill="#fefefe"/><path d="M253.941 586.953l-6.733.943a.34.34 29.304 0 1-.382-.393l6.66-40.048a.34.34 40.248 0 1 .311-.284l7.939-.56a.34.34-49.129 0 1 .357.406l-7.866 39.666a.34.34 34.078 0 1-.286.27M203.228 550.8l9.318-1.402a.4.4 16.593 0 1 .449.487l-9.523 40.591a.4.4 36.216 0 1-.33.304l-9.318 1.402a.4.4 33.86 0 1-.449-.487l9.523-40.591a.4.4-60.494 0 1 .33-.304"/><path d="M370.13 552.07a.415.396-85.457 0 1 .38-.34l6.44-.34a.303.303 42.675 0 1 .32.32q-1.14 22.82-3.18 47.88c-.4 4.85-.22 9.31-.86 13.85q-.38 2.69-.59 5.5-2.24 31.04-2.75 36.53-2.27 24.56-3.65 47.17a.622.621-88.543 0 1-.62.59h-16.47a.857.853-87.533 0 1-.85-.93q.93-11.32 3.43-26.16c1.73-10.24 2.48-19.23 4.06-28.7q4.05-24.33 4.83-31.22c1.25-10.93 2.85-19.91 4.08-29.33q2.22-16.98 5.43-34.82m96.598.552l22.461 150.07a.53.53 29.432 0 1-.524.608h-17.411a.53.53 31.243 0 1-.529-.492l-10.675-150.07a.53.53-63.54 0 1 .529-.568h5.624a.53.53 45.224 0 1 .525.452M873.37 691.33a.295.294-7.215 0 0 .28-.36L845.43 572.7a.508.504 86.261 0 1 .54-.62l10.57.93a.665.646-5.876 0 1 .57.45c.31.9.36 2.1.56 2.72q4.17 12.79 7.6 26.51c.64 2.58 2.28 6.56 2.83 8.54 4.38 15.62 10.81 35.1 15.21 52.83 1.66 6.68 4.32 12.74 6.12 19.65q3.02 11.67 5.1 18.93a.481.478 82.173 0 1-.46.61H619.49a1.105 1.097 81.383 0 1-1.05-.78l-1.06-3.45a.605.602 80.818 0 1 .56-.78q49.15-1.26 86.82-2.4c16.41-.49 32.58-.56 48.08-1.62 8.74-.59 18.01-.24 26.69-.45q57.25-1.35 93.84-2.44" fill="#c6c6c6"/><path d="M896.86 731.79q-5.02 8.93-13.78 22.31-22.1 33.72-51.49 64.47-27.47 28.73-58.7 51.78-24.5 18.07-49.79 32.22-60.34 33.77-126.92 47.29-16.46 3.34-37.52 5.8-18.91 2.21-37.88 2.52-62.03.98-121.39-15.58-6.07-1.7-17.75-5.45-10.53-3.39-17.56-6.08-72.7-27.83-130.31-76.05-56.28-47.12-96.25-109.78-4.72-7.39-7.72-12.9 6.31-.85 13.95-.85 42.63-.02 85.25-.12 16.27-.04 32.54.2c.14.79.65.89 1.06 1.32q60.47 62.61 141.39 90.55 30.36 10.49 60.87 15 28.4 4.2 62.62 3.22 40.95-1.18 81.21-12.96 36.7-10.75 67.65-27.66c7.2-3.93 16.61-9.32 24.34-14.39q35.66-23.39 65.27-54.98 3.6-.34 7.8-.37 16.88-.13 33.75-.09 40.64.11 81.28-.06 3.3-.02 8.08.64m-54.75 18.46l-13.05-7.53a.289.279-54.664 0 0-.37.07q-.72.93-6.89 9.03-25.04 32.89-57.73 57.75a.728.722-33.831 0 0-.19.94l7.09 12.28a.761.756 56.508 0 0 1.11.23q40.27-30.85 70.25-71.7a.733.731-56.693 0 0-.22-1.07m-623.844 41.295c10.667 11.139 21.846 20.858 32.684 29.797q2.14 1.758 3.17 2.418a.469.463-56.133 0 0 .64-.13l8.16-11.76a.807.804 36.58 0 0-.163-1.09q-17.245-13.736-33.026-30.214-15.782-16.479-28.759-34.3a.807.804 55.896 0 0-1.083-.211l-12.101 7.645a.469.463-31.391 0 0-.158.633q.615 1.058 2.279 3.272c8.462 11.214 17.69 22.802 28.357 33.94m100.252 97.957a.42.42 17.21 0 0 .209.342l14.953 8.639a.42.42-71.284 0 0 .63-.385l-2.286-43.923a.42.42 27.419 0 1 .22-.391l39.814-21.477a.42.42 28.786 0 0 .01-.733l-14.685-8.477a.42.42 12.333 0 0-.409-.006l-33.288 17.958a.42.42-87.213 0 1-.409-.006l-8.693-5.013a.42.42 62.348 0 1-.154-.574l15.61-27.032a.42.42 34.55 0 0-.154-.574l-13.442-7.76a.42.42-60.715 0 0-.574.154l-38.46 66.612a.42.42 31.58 0 0 .154.574l13.242 7.65a.42.42 55.128 0 0 .574-.154l15.41-26.683a.42.42 62.193 0 1 .574-.153l9.078 5.236a.42.42-47.734 0 1 .21.342zM694.13 901.57l13.72-7.4a.981.973 72.016 0 0 .5-.99l-2.33-16.65a.792.782 71.635 0 1 .39-.79l22.91-13.23a.563.558 49.264 0 1 .63.05l12.56 10.51a.317.316 49.669 0 0 .36.03l13.56-7.83a.74.733-40.041 0 0 .11-1.2l-60.24-50.35a.653.647-49.736 0 0-.91.08c-1.76 1.77-7.9 5.11-11.88 9.76a.974.961 62.039 0 0-.23.77l10.78 77.2a.051.048 73.155 0 0 .07.04m-55.21-22.21l2.49-4.69a1.248 1.219 51.817 0 0 .1-.93l-5.62-19.86a2.096 2.084 6.445 0 0-1.01-1.26l-13.03-6.93a1.182 1.141 51.917 0 0-.79-.11c-6.55 1.52-14.46 2.91-21.1 4.65q-17.49 4.6-30.04 7.43a.415.411 76.601 0 0-.31.51l19.66 75.71a.941.931-14.259 0 0 1.14.67l53.93-14a1.236 1.225-83.493 0 0 .76-.61l7.57-14.21a3.34 3.337 51.651 0 0 .28-2.41l-4.45-17.14a1.18.999-71.233 0 0-.13-.33c-1.22-2.28-7.58-5.1-9.14-5.67a.58.58-65.732 0 1-.31-.82m-192.48 54.88l-9.81-82.93a.277.267 4.949 0 0-.2-.23l-14.77-4.38a.856.855 29.527 0 0-.87.24q-1.57 1.72-2.87 3.48-14.34 19.43-24.85 34.25c-7.6 10.72-14.12 18.86-20.19 28.47a.375.371 26.254 0 0 .19.55l14.79 5.23a.946.942 27.089 0 0 1.09-.35l9.97-14.37a.792.782-64.052 0 1 .88-.31l26.97 8a.994.979-85.589 0 1 .7.83l2.07 17.53a.825.811-87.021 0 0 .62.7l15.81 3.71a.388.382 2.735 0 0 .47-.42m42.296 6.835a.58.58 7.677 0 0 .599.575l56.95-1.921a.58.58 89.754 0 0 .561-.584l-.102-13.91a.58.58-87.441 0 0-.599-.575l-39.86 1.34a.58.58-55.305 0 1-.599-.575l-.472-63.285a.58.58-72.955 0 0-.584-.576l-15.9.122a.58.58-18.252 0 0-.576.584z" fill="#151511"/><path d="M765.95 731.67q-29.61 31.59-65.27 54.98c-7.73 5.07-17.14 10.46-24.34 14.39q-30.95 16.91-67.65 27.66-40.26 11.78-81.21 12.96-34.22.98-62.62-3.22-30.51-4.51-60.87-15-80.92-27.94-141.39-90.55c-.41-.43-.92-.53-1.06-1.32zm-467.92 18.64q8.68 7.77 19.64 15.76 52.32 38.15 113.96 54.42 7.09 1.87 17.41 3.92 14.16 2.82 17.53 3.29 84.87 11.9 164.41-17.79c9.52-3.55 21.76-9.17 29.51-12.96q38.44-18.83 72.26-48.93 2.98-2.65 5.89-5.7a.319.319 21.947 0 0-.23-.54l-19.95-.05-429.52.05a.237.236 79.667 0 0-.22.32q.09.26.41.51 4.65 3.61 8.9 7.7" fill="#fefefe"/><path d="M718.46 741.73q2.09.69 4.01 1.61 1.75.83.72 2.42-3.84-.16-11.94-.16-204.54-.02-409.08-.01-2.07 0-1.63.9-1.87 1.52-2.51 3.82-4.25-4.09-8.9-7.7-.32-.25-.41-.51a.237.236 79.667 0 1 .22-.32z"/><path d="M298.03 750.31q.64-2.3 2.51-3.82 1.66 1.45 3.35 2.84 24.02 19.75 50 34.64c12.81 7.33 26.9 13.86 40.16 19.23q33.85 13.7 70.38 19.53 40.96 6.54 88.81 1.55 11.75-1.23 26.24-4.31 58.89-12.54 109.62-44.74c9.53-6.04 16.55-11.58 26.18-18.69q3.02-2.24 12.27-10.43a.206.203-65.305 0 0-.13-.36l-4.23.01q1.03-1.59-.72-2.42-1.92-.92-4.01-1.61l19.95.05a.319.319 21.947 0 1 .23.54q-2.91 3.05-5.89 5.7-33.82 30.1-72.26 48.93c-7.75 3.79-19.99 9.41-29.51 12.96q-79.54 29.69-164.41 17.79-3.37-.47-17.53-3.29-10.32-2.05-17.41-3.92-61.64-16.27-113.96-54.42-10.96-7.99-19.64-15.76" fill="#151511"/><path d="M842.33 751.32q-29.98 40.85-70.25 71.7a.761.756 56.508 0 1-1.11-.23l-7.09-12.28a.728.722-33.831 0 1 .19-.94q32.69-24.86 57.73-57.75 6.17-8.1 6.89-9.03a.289.279-54.664 0 1 .37-.07l13.05 7.53a.733.731-56.693 0 1 .22 1.07" fill="#fefefe"/><path d="M723.19 745.76l4.23-.01a.206.203-65.305 0 1 .13.36q-9.25 8.19-12.27 10.43c-9.63 7.11-16.65 12.65-26.18 18.69q-50.73 32.2-109.62 44.74-14.49 3.08-26.24 4.31-47.85 4.99-88.81-1.55-36.53-5.83-70.38-19.53c-13.26-5.37-27.35-11.9-40.16-19.23q-25.98-14.89-50-34.64-1.69-1.39-3.35-2.84-.44-.9 1.63-.9 204.54-.01 409.08.01 8.1 0 11.94.16" fill="#fee900"/><path d="M229.731 780.566q15.781 16.478 33.026 30.214a.807.804 36.58 0 1 .163 1.09l-8.16 11.76a.469.463-56.133 0 1-.64.13q-1.03-.66-3.17-2.418c-10.838-8.939-22.017-18.658-32.684-29.797s-19.895-22.726-28.357-33.94q-1.664-2.214-2.279-3.272a.469.463-31.391 0 1 .158-.633l12.101-7.645a.807.804 55.896 0 1 1.083.211q12.977 17.821 28.759 34.3M94.81 746.44l15.78 25.49q-.26.32-.88.04a1.563 1.53 83.484 0 1-.64-.52q-8.6-11.82-14.26-25.01m223.708 143.062l-1.866-35.834a.42.42-83.598 0 0-.21-.342l-9.078-5.236a.42.42 22.521 0 0-.574.153l-15.41 26.683a.42.42 63.67 0 1-.574.154l-13.242-7.65a.42.42 55.5 0 1-.154-.574l38.46-66.612a.42.42-26.353 0 1 .574-.154l13.442 7.76a.42.42 62.271 0 1 .154.574l-15.61 27.032a.42.42 38.582 0 0 .154.574l8.693 5.013a.42.42-9.552 0 0 .409.006l33.288-17.958a.42.42 7.528 0 1 .409.006l14.685 8.477a.42.42 81.254 0 1-.01.733l-39.814 21.477a.42.42 69.959 0 0-.22.391l2.286 43.923a.42.42-55.443 0 1-.63.385l-14.953-8.639a.42.42 50.645 0 1-.209-.342M694.13 901.57a.051.048 73.155 0 1-.07-.04l-10.78-77.2a.974.961 62.039 0 1 .23-.77c3.98-4.65 10.12-7.99 11.88-9.76a.653.647-49.736 0 1 .91-.08l60.24 50.35a.74.733-40.041 0 1-.11 1.2l-13.56 7.83a.317.316 49.669 0 1-.36-.03l-12.56-10.51a.563.558 49.264 0 0-.63-.05l-22.91 13.23a.792.782 71.635 0 0-.39.79l2.33 16.65a.981.973 72.016 0 1-.5.99zm25.18-49.1a.34.34-50.492 0 0 .035-.547l-19.956-16.689a.34.34 81.567 0 0-.554.315l4.312 26.729a.34.34-79.72 0 0 .52.232z" fill="#fefefe"/><path d="M719.31 852.47l-15.643 10.04a.34.34-71.523 0 1-.52-.232l-4.312-26.729a.34.34-45.33 0 1 .554-.315l19.956 16.689a.34.34-6.754 0 1-.035.547" fill="#151511"/><path d="M639.23 880.18c1.56.57 7.92 3.39 9.14 5.67a1.18.999-71.233 0 1 .13.33l4.45 17.14a3.34 3.337 51.651 0 1-.28 2.41l-7.57 14.21a1.236 1.225-83.493 0 1-.76.61l-53.93 14a.941.931-14.259 0 1-1.14-.67l-19.66-75.71a.415.411 76.601 0 1 .31-.51q12.55-2.83 30.04-7.43c6.64-1.74 14.55-3.13 21.1-4.65a1.182 1.141 51.917 0 1 .79.11l13.03 6.93a2.096 2.084 6.445 0 1 1.01 1.26l5.62 19.86a1.248 1.219 51.817 0 1-.1.93l-2.49 4.69a.58.58-65.732 0 0 .31.82m-50.47-12.01l4.39 16.31a1.099 1.097-13.84 0 0 1.31.79l27.16-6.49a1.527 1.472 11.886 0 0 .83-.52c2.32-2.85 2.9-3.95 1.47-7.73q-1.77-4.67-2.06-5.81a2.106 2.069 16.941 0 0-.49-.9q-1.92-2.13-4.46-2.69a1.735 1.641-43.41 0 0-.77 0l-26.91 6.26a.636.631-14.139 0 0-.47.78m8.355 30.498l4.502 17.923a.28.28-7.047 0 0 .34.204l27.942-7.019a7.85 7.55-14.1 0 0 5.774-9.235l-.959-3.821a7.85 7.55-14.1 0 0-9.453-5.41l-27.942 7.018a.28.28-16.781 0 0-.204.34M446.44 934.24a.388.382 2.735 0 1-.47.42l-15.81-3.71a.825.811-87.021 0 1-.62-.7l-2.07-17.53a.994.979-85.589 0 0-.7-.83l-26.97-8a.792.782-64.052 0 0-.88.31l-9.97 14.37a.946.942 27.089 0 1-1.09.35l-14.79-5.23a.375.371 26.254 0 1-.19-.55c6.07-9.61 12.59-17.75 20.19-28.47q10.51-14.82 24.85-34.25 1.3-1.76 2.87-3.48a.856.855 29.527 0 1 .87-.24l14.77 4.38a.277.267 4.949 0 1 .2.23zm-23.106-65.022a.4.4-10.106 0 0-.726-.181l-15.483 22.319a.4.4-74.043 0 0 .215.611l18.787 5.58a.4.4 4.114 0 0 .512-.43z" fill="#fefefe"/><path d="M588.76 868.17a.636.631-14.139 0 1 .47-.78l26.91-6.26a1.735 1.641-43.41 0 1 .77 0q2.54.56 4.46 2.69a2.106 2.069 16.941 0 1 .49.9q.29 1.14 2.06 5.81c1.43 3.78.85 4.88-1.47 7.73a1.527 1.472 11.886 0 1-.83.52l-27.16 6.49a1.099 1.097-13.84 0 1-1.31-.79z" fill="#151511"/><path d="M488.736 941.075l-.582-78.805a.58.58 29.604 0 1 .576-.584l15.9-.122a.58.58-80.148 0 1 .584.576l.472 63.285a.58.58 73.92 0 0 .599.575l39.86-1.34a.58.58-55.218 0 1 .599.575l.102 13.91a.58.58-50.364 0 1-.561.584l-56.95 1.921a.58.58 35.653 0 1-.599-.575" fill="#fefefe"/><path d="M423.334 869.218l3.305 27.899a.4.4 44.416 0 1-.512.43l-18.787-5.58a.4.4-45.359 0 1-.215-.611l15.483-22.319a.4.4 5.789 0 1 .726.181m173.781 29.45a.28.28 8.825 0 1 .204-.34l27.942-7.018a7.85 7.55-14.1 0 1 9.453 5.41l.959 3.821a7.85 7.55-14.1 0 1-5.774 9.235l-27.942 7.019a.28.28-7.006 0 1-.34-.204z" fill="#151511"/></g></svg>