<svg viewBox=".13 .13 27.98 35.14" xmlns="http://www.w3.org/2000/svg" xmlns:xlink="http://www.w3.org/1999/xlink"><clipPath id="a"><path d="m0 0h432v648h-432z"/></clipPath><clipPath id="b"><path d="m0 0h432v648h-432z"/></clipPath><g clip-path="url(#b)" transform="matrix(.35278 0 0 -.35278 -100.94 110.066)"><path d="m363.15 308.952a3.686 3.686 0 0 1 -3.531 2.672h-66.917a3.676 3.676 0 0 1 -3.527-2.672c-.06-.21-5.672-22.237-.45-47.889 3.881-19.084 13.033-31.151 20.025-37.917 7.131-6.89 14.992-11.124 17.487-11.124 2.752 0 10.548 4.568 17.332 11.13 6.994 6.76 16.146 18.827 20.028 37.911 5.218 25.633-.388 47.679-.447 47.889" fill="#fff"/><path d="m361.957 308.723a2.33 2.33 0 0 1 -2.245 1.698h-67.102a2.335 2.335 0 0 1 -2.248-1.698c-.223-.814-5.524-22.334-.429-47.396 3.83-18.805 12.831-30.672 19.705-37.322 7.199-6.962 14.657-10.78 16.597-10.78 1.939 0 9.248 3.818 16.448 10.78 6.878 6.65 15.874 18.517 19.705 37.322 5.094 25.062-.206 46.582-.431 47.396" fill="#f03e1e"/><path d="m327.24 271.127c-9.249.59-17.228-6.422-17.823-15.672-.594-9.247 6.418-17.226 15.665-17.822 9.246-.59 17.226 6.422 17.824 15.673.592 9.246-6.419 17.223-15.666 17.821" fill="#fff"/><path d="m325.291 245.06c-6.466.422-11.581 5.295-12.547 11.44a13 13 0 0 1 -.141-1.247c-.482-7.49 5.197-13.95 12.688-14.434 7.486-.479 13.948 5.201 14.43 12.686a13.6 13.6 0 0 1 -.143 3.001c-1.074-6.864-7.218-11.897-14.287-11.446" fill="#44a9d2"/><path d="m327.246 271.154c-9.268.596-17.264-6.429-17.862-15.696-.593-9.262 6.435-17.257 15.7-17.853 9.264-.595 17.254 6.434 17.848 15.694.603 9.268-6.428 17.26-15.686 17.855m13.872-17.735c-.533-8.264-7.658-14.527-15.919-13.997a14.9 14.9 0 0 0 -5.899 1.633c-.835 2.516-.933 4.924-.916 6.143 1.666 1.438 3.834 3.336 3.763 3.427-.074.09-2.598-1.366-4.496-2.479-1.209.219-3.655.818-5.95 2.292a15 15 0 0 0 -.495 4.906 14.9 14.9 0 0 0 3.271 8.423l.117-1.084.557-2.437 2.324-3.153.118.554-.954 1.702.56-.145 1.363-1.909.098-1.019 3.752-1.224.482-.828 1.634-.234-.371-2.361 1.066-2.265 1.507-.788-.56-6.215 1.212-1.343.341.145-.164.771 1.037 2.324.957.375 1.954 2.836 1.598.703 1.343 3.007-.263 1.5-3.109 1.062-1.268 1.246-.376.168-3.836.122-.685-.645-1.555.527-1.566 1.957-1.499.179.038 1.816 2.291.473.754-.899.382.368-.562 1.134c-.038.096 1.866 2.408 1.866 2.408l2.134 1.75-.898 3.055-2.269.08-.225-.558.369-.793-.817-.878-1.916 1.482 1.574 1.574 3.515-.261.51 1.294.087-.002a14.86 14.86 0 0 0 7.751-2.766c.501-2.527.398-4.808.287-5.931-1.694-1.46-4.113-3.567-4.036-3.663.08-.1 2.934 1.558 4.853 2.688 1.103-.313 3.037-1.004 4.875-2.327.254-1.262.349-2.578.264-3.92" fill="#2c328e"/></g><path d="m12.936 19.153.058.07.219-.058.496.164.112-.08-.044-.095-.512-.149z" fill="#2c328e"/><path d="m13.928 19.27-.052.122.473.01.025-.113-.111-.068z" fill="#2c328e"/><g clip-path="url(#a)" transform="matrix(.35278 0 0 -.35278 -100.94 110.066)"><path d="m327.246 271.154c-9.268.596-17.264-6.429-17.862-15.696-.593-9.262 6.435-17.257 15.7-17.853 9.264-.595 17.254 6.434 17.848 15.694.603 9.268-6.428 17.26-15.686 17.855m13.872-17.735c-.533-8.264-7.658-14.527-15.919-13.997a14.9 14.9 0 0 0 -5.899 1.633c-.835 2.516-.933 4.924-.916 6.143 1.666 1.438 3.834 3.336 3.763 3.427-.074.09-2.598-1.366-4.496-2.479-1.209.219-3.655.818-5.95 2.292a15 15 0 0 0 -.495 4.906 14.9 14.9 0 0 0 3.271 8.423l.117-1.084.557-2.437 2.324-3.153.118.554-.954 1.702.56-.145 1.363-1.909.098-1.019 3.752-1.224.482-.828 1.634-.234-.371-2.361 1.066-2.265 1.507-.788-.56-6.215 1.212-1.343.341.145-.164.771 1.037 2.324.957.375 1.954 2.836 1.598.703 1.343 3.007-.263 1.5-3.109 1.062-1.268 1.246-.376.168-3.836.122-.685-.645-1.555.527-1.566 1.957-1.499.179.038 1.816 2.291.473.754-.899.382.368-.562 1.134c-.038.096 1.866 2.408 1.866 2.408l2.134 1.75-.898 3.055-2.269.08-.225-.558.369-.793-.817-.878-1.916 1.482 1.574 1.574 3.515-.261.51 1.294.087-.002a14.86 14.86 0 0 0 7.751-2.766c.501-2.527.398-4.808.287-5.931-1.694-1.46-4.113-3.567-4.036-3.663.08-.1 2.934 1.558 4.853 2.688 1.103-.313 3.037-1.004 4.875-2.327.254-1.262.349-2.578.264-3.92" fill="#2c328e"/><path d="m359.737 306.256c-.187.839-.758 1.47-1.752 1.47h-63.658c-.991 0-1.567-.631-1.758-1.47-.755-3.323-3.39-16.385-1.669-33.092 0 0 .173.165.525.454 5.212 4.443 16.184 8.744 31.234 2.831.149-.081.187-.124-.16-.055-2.432.468-12.911 1.9-20.602-1.988-8.285-4.185-9.499-13.098-7.153-20.968 8.973-28.06 30.042-37.346 31.476-37.346 1.558 0 26.708 11.9 34.056 45.672.035.165-.014.254-.13-.075-.035-.097-.073-.191-.104-.284-4.941-13.258-14.316-19.492-16.185-20.407-.213-.1-.238-.073-.089.053 1.583 1.327 10.857 9.874 11.386 22.193.039.907.014 1.237-.097 2.316-1.155 10.923-14.762 16.741-26.731 17.84-2.112.195-6.63.557-1.174.557 20.163.071 32.77-9.465 34.255-10.793l.011.106c1.723 16.704-.924 29.663-1.681 32.986m-12.877-39.808c6.193-15.166-6.355-27.208-9.711-28.861 0 0 7.514.874 13.769 4.877 0 0 .236.145.098-.07-3.526-5.156-12.296-12.607-23.626-12.168-16.283.622-20.737 16.716-20.744 19.837 0 0-2.536-5.464-1.974-13.185l-.155-.044c.014-.248.106-.159.046-.055-3.091 5.414-5.859 13.391-2.536 22.591 6.132 16.971 23.616 15.812 26.773 14.984 0 0-4.455 4.739-12.915 6.617.024.012-.184.125.165.157 2.916.266 23.995 1.999 30.81-14.68" fill="#2c328e"/><path d="m324.627 224.541v.022c0 .195.013.38.035.565h-2.738v1.374h3.128c.194.439.463.833.792 1.183l.035.105h-5.378v-6.457h1.423v2.503h2.758q-.053.346-.055.705m1.273.002v.02c0 1.83 1.379 3.324 3.355 3.324 1.209 0 1.936-.402 2.537-.991l-.904-1.035c-.495.449-.998.725-1.639.725-1.085 0-1.867-.901-1.867-2.003v-.02c0-1.1.761-2.016 1.867-2.016.73 0 1.18.291 1.686.75l.903-.909c-.663-.705-1.398-1.15-2.638-1.15-1.891 0-3.3 1.462-3.3 3.305m31.077 56.53v22.645h-3.303v-21.279a66 66 0 0 0 3.303-1.366m-18.261 5.221v11.273s3.159-5.256 4.632-8.102c.032-.001.059-.008.091-.014 1.424 2.377 4.394 7.498 4.394 7.498v-12.579a63 63 0 0 0 3.346-1.039l.003 20.387h-3.834s-2.657-5.304-3.99-7.778c-1.388 2.733-4.158 7.778-4.158 7.778h-3.679v-17.021a77 77 0 0 0 3.195-.403m-40.064-3.852v13.735s2.816-5.474 4.214-7.958c.027.009.06.013.085.021 1.469 3.187 3.03 6.157 4.509 8.967v-12.073c1.112.257 2.234.494 3.385.704v17.88h-3.674s-2.759-5.493-4.136-8.486c-1.323 2.644-3.994 8.486-3.994 8.486h-3.694l-.006-22.645q1.625.722 3.311 1.369m18.15 4.255v17.021h-3.6v-17.48a81 81 0 0 0 3.6.459m4.618.353q.726 1.914 1.455 3.803a103 103 0 0 0 6.64-.001c.483-1.263.971-2.528 1.46-3.807a93 93 0 0 0 3.601-.26c-2.297 5.969-6.764 16.933-6.764 16.933h-3.145s-4.468-10.956-6.762-16.916q1.726.153 3.515.248m4.777 12.458q1.033-2.687 2.08-5.394a131 131 0 0 1 -4.163 0c.698 1.808 1.389 3.603 2.083 5.394" fill="#fff"/></g></svg>