<svg xmlns="http://www.w3.org/2000/svg" viewBox="55 55 690 690"><path d="M400 55C209.77 55 55 209.77 55 400s154.77 345 345 345 345-154.77 345-345S590.23 55 400 55" fill="#141946"/><circle cx="400" cy="400" r="320.14" fill="#fff"/><path d="M563.44 551.69l54 39.28c95.76-108.88 95.76-273.06 0-381.94l-54 39.28q-5.66-6.09-11.75-11.75l39.28-54c-108.88-95.76-273.06-95.76-381.94 0l39.28 54q-6.09 5.66-11.75 11.75l-54-39.28c-95.76 108.88-95.76 273.06 0 381.94l54-39.28q5.66 6.09 11.75 11.75l-39.28 54c108.88 95.76 273.06 95.76 381.94 0l-39.28-54q6.09-5.66 11.75-11.75M400 604.16c-112.57 0-204.16-91.59-204.16-204.16S287.43 195.84 400 195.84 604.16 287.43 604.16 400 512.57 604.16 400 604.16" fill="#7ccdef"/><path d="M412.45 377.56L400 325.95l-12.48 51.61-49.14-14.57 36.71 37-36.71 37 49.14-14.53L400 474.05l12.45-51.59 49.18 14.53-36.74-37 36.74-37z" fill="red"/><path d="M539.77 362.8v-50.01l-52.56-52.56H312.79l-52.56 52.56v61.56L234.58 400l25.65 25.65v61.56l52.56 52.56h174.42l52.56-52.56V437.2h-53.04v33.98l-15.55 15.55H328.82l-15.55-15.55V328.82l15.55-15.55h142.36l15.55 15.55v33.98z" fill="red"/></svg>