<svg viewBox="-0.02 0 158.88 248.42" xmlns="http://www.w3.org/2000/svg"><path d="M105.15 21.74l-2.89 13.84c-.85 4-1.91 9.07-3.09 14.64l-.69.32c1.33-14.91 1.29-26.79-1.36-32.48a35.4 35.4 0 0 0-9.94-12.57C81.1.59 77.18 0 77.18 0l.08 60.41-68 31.63c-9.27 4.34-9.28 15.25-9.28 15.25v104l79.45 37.13 79.43-37.13V22.45l-40.17 18.68a50.8 50.8 0 0 0-5.74-10.64c-.92-1.37-1.88-2.64-2.8-3.8a47 47 0 0 0-5-4.95" fill="#e2e2de"/><path d="M32.52 46.51l3.65 10.56 3.65-10.56 10.97 2.12-7.32-8.44 7.32-8.45-10.97 2.12-3.65-10.56-3.65 10.56-10.97-2.12 7.32 8.45-7.32 8.44z" fill="#e2e2de"/><path d="M9.28 142.59C.01 146.93 0 157.84 0 157.84v50.5s0-10.91 9.28-15.25l149.58-69.59V73z" fill="#9bcde4"/><path d="M142.59 148.42a25.76 25.76 0 0 0 5.59-10.62s-39.52 12.87-52.52 17.15c3.26-1.44 5.62-2.25 7-2.86 5.3-2.28 39.69-13.85 43.54-21.06a28.7 28.7 0 0 0 3.66-12.82s-38.55 22.3-52.39 30.35c3.24-2.34 5.64-3.77 7.05-4.77 5.23-3.7 39.94-24.22 42.46-32.95a31.9 31.9 0 0 0 1-14.79s-36.64 33-49.87 45c2.75-3 4.85-5 6.08-6.3 4.84-5.22 37.82-35.54 38.54-45.61.69-9.82-2.36-16.29-2.36-16.29s-33.1 45.62-44.28 61.11c2.35-4 4.23-6.68 5.28-8.44 4-6.8 32.88-47.37 31.33-58.48-1.5-10.84-6.32-17.16-6.32-17.16s-25.07 56.43-33.82 76.23c1.69-5.09 3.16-8.56 3.92-10.79 2.82-8.32 24.79-59.07 20.54-70.79a49.7 49.7 0 0 0-6.11-11.71 39.3 39.3 0 0 0-4.54-5.61c-1.17 5.51-9.87 46.63-15.56 73.66l-3.33 19.06c-1.21 6.89-.07 11.49.47 13.14l.42 1.22c6.34 18.79 1.46 27.9-1 31l-.1.12a12.2 12.2 0 0 1-3.49 3.08 9.9 9.9 0 0 1-4.56 1.15 9.5 9.5 0 0 1-2.74-.41c-8.35-2.76-5.32-12.17-5.29-12.27a10.6 10.6 0 0 0 1.25 7.92 7.63 7.63 0 0 0 6.37 3.47 9.32 9.32 0 0 0 7.35-3.83l.09-.12c2.31-2.91 7-11.7.5-30.3a29.84 29.84 0 0 1-.91-13.25l4.48-25.8c3.23-20.55 10-63.33 4.63-74.79a33 33 0 0 0-9.27-11.7 31.4 31.4 0 0 0-6.25-4.16l.13 101.93c0 5.45.19 9.93.45 13.62 0 0 .19 2.58.48 5.26a84 84 0 0 0 2.27 10.71l.87 2.94c3.32 11.6 1.78 18.94-.89 22.31a4.71 4.71 0 0 1-3.8 2.19c-2.35 0-4.86-2.8-1.85-9.82s4.51-14.42-1.88-20.77a17.5 17.5 0 0 0-2-1.76 73 73 0 0 0-9.91-6.42c-1.46-.79-9.42.84-9.42.84l-19.06-8.53v.35s27.36 19.7 32.34 23.87c4.58 3.83 2.18 9.89-2.23 13.35-5 4-19.91 12.31-19.91 12.31v.89c0 9.95 1.47 14 8.24 22.35 13.06 16 19 22.44 19 39.14a34 34 0 0 0 3.37 1.65v-28.22c0-12.81 3.34-21.41 18.88-21.41l-10.94-10.17c1.58 1.17 2.59 2.09 3.29 2.62 2.73 2 18.77 16.2 23.59 16a16.9 16.9 0 0 0 7.62-1.93s-25.1-14.46-32.09-18.47c2.32 1 3.85 1.89 4.82 2.34 3.44 1.58 24.18 13.27 29.39 12a18.8 18.8 0 0 0 7.84-3.87s-30.94-10-39.28-12.7c2.86.6 4.79 1.19 6 1.46 4.1.93 29.34 8.84 34.7 6.24a20.9 20.9 0 0 0 7.64-6l-45.71-4.67c2.52 0 5 .18 6.12.2 4.67.06 33.93 2.83 39.16-1.24a23.2 23.2 0 0 0 6.9-8.3s-38.27 4.05-50 5.32c3.13-.65 5.36-.93 6.73-1.2 5.09-1 37.53-4.76 42.27-10.39" fill="#231f20"/><path d="M65.71 131.99a3.36 3.36 0 0 1-4.4-2.64 3.36 3.36 0 0 1 4.4 2.64" fill="#df2426"/><path d="M136.85 200.04a1.75 1.75 0 0 0 .89-1.69v-1.91l-9.72 4.55v16.4l3-1.39v-6l3.37-1.59a1.88 1.88 0 0 0 .77-1.65v-1.68l-4.14 2v-4.27zm9.93-4.76c.37-.18.66 0 .66.33v1.27a.67.67 0 0 0 .68.68.6.6 0 0 0 .24 0l1.92-.9v-2.08a2.56 2.56 0 0 0-3.5-2.31l-5.49 2.55a3.54 3.54 0 0 0-2 3.14v10.58a2.26 2.26 0 0 0 2.3 2.27 2.2 2.2 0 0 0 1-.22l5.75-2.7a3.52 3.52 0 0 0 1.93-3.13v-3l-2.22 1a1.2 1.2 0 0 0-.61 1.06v.77a1.17 1.17 0 0 1-.67 1l-3.82 1.84c-.37.18-.66.05-.66-.32v-8.9a1.14 1.14 0 0 1 .66-.95zm-38.2 25.93l-5.61-8.47-3 1.39v16.42l2.11-1a1.86 1.86 0 0 0 .85-1.7v-9.83l5.75 8.45 2.87-1.35v-16.4l-2 1a1.65 1.65 0 0 0-.91 1.67zm-13.96 10.38v-8.23l-2.89 8-2.52 1.18-3.36-5.47v8.73a1.84 1.84 0 0 1-1 1.77l-1.87.88v-16.42l2.68-1.25 4.36 7.68 4.12-11.64 3.33-1.56v16.4l-1.59.75a.93.93 0 0 1-1.26-.82m19.46-24.09v12.89a2.21 2.21 0 0 0 2.24 2.22 2.3 2.3 0 0 0 .94-.22l6.17-2.87a3.5 3.5 0 0 0 2.06-3.18v-14.18l-2.07 1a1.81 1.81 0 0 0-.9 1.73v11.32a1.14 1.14 0 0 1-.66.95l-4.18 1.94c-.37.18-.67 0-.67-.33v-11.18a.92.92 0 0 0-1.3-.86z" fill="#231f20"/></svg>