<svg viewBox="5.25 8.19 1013.68 1007.84" xmlns="http://www.w3.org/2000/svg"><g fill-rule="evenodd"><path d="M512.234 8.186q2.339 0 9.014.144 26.382.57 49.682 3.23 37.4 4.28 75.83 14.4 85.16 22.43 156.5 72.5 117.47 82.44 174.98 213.86 3.03 6.92 10.46 25.64 3.31 8.33 10.09 30.46c12.52 40.86 18.9 83.93 19.95 126.34q1.2 48.02-5.04 92.76-3.23 23.13-7.86 41.79c-2.86 11.54-7.48 29.01-12.08 41.97q-10.31 29.08-19.33 48.69-4.02 8.72-12.37 24.93-18.39 35.65-44.11 70.06-15.99 21.38-28.79 34.71c-2.18 2.27-3.82 4.41-5.99 6.68-34.55 36.17-74.54 68.11-118.26 93.25q-37.33 21.47-79.61 36.48-52.04 18.47-106.85 25.89c-16.54 2.23-34.19 3.62-47.955 4.053q-.046.001-18.546-.004l-18.546-.006c-13.765-.441-31.414-1.841-47.953-4.081q-54.806-7.451-106.835-25.95-42.272-15.034-79.59-36.525c-43.706-25.165-83.677-57.127-118.207-93.317-2.169-2.271-3.807-4.412-5.986-6.683q-12.793-13.338-28.771-34.727-25.7-34.424-44.07-70.085-8.341-16.214-12.356-24.937-9.009-19.615-19.302-48.7c-4.593-12.963-9.203-30.436-12.057-41.977q-4.619-18.663-7.836-41.795-6.215-44.743-4.987-92.763c1.074-42.409 7.478-85.475 20.021-126.328q6.793-22.126 10.107-30.455 7.441-18.715 10.475-25.634Q103.64 180.669 221.157 98.295q71.368-50.029 156.541-72.411 38.435-10.098 75.838-14.357 23.301-2.647 49.683-3.202 6.676-.14 9.015-.139M791.84 130.14q-18.45-13.39-33.06-22.14c-42.2-25.28-87.24-43.68-135.06-54.47q-41.31-9.32-84.22-11.7-83.69-4.66-163.61 18.39c-20.26 5.85-41.81 13.74-59.86 22.11q-19.59 9.08-29.66 14.55-54.57 29.61-100.46 72.16-26.51 24.6-48.43 52.65-22.29 28.54-39.84 59.46-43.06 75.86-56.14 162.09-12.71 83.84 5.34 167.31c1.91 8.85 4.17 16.16 6.12 23.89q1.96 7.77 5.18 17.77 17.95 55.72 48.47 105.22c5.94 9.64 12.53 18.74 18.8 28.17q.71 1.08 3.14 4.41 3.06 4.22 13.89 17.8c34.28 43.04 77.75 79.72 125.17 108.63 4.98 3.03 10.15 5.54 14.46 8.22q5 3.1 10.89 6.05c17.2 8.6 33.62 16.41 51.18 22.75 15 5.42 26.19 9.46 40.57 13.31 29.66 7.92 60.53 13.55 91.37 15.87 74.38 5.57 149.55-6.09 218.03-34.68q58.79-24.54 109.13-63.48 3.24-2.51 12.14-9.69 6.84-5.53 11.85-10 25.61-22.87 44.5-45.03 3.83-4.5 7.66-8.87 3.59-4.11 7.35-9.11 8.16-10.84 12.67-17.11 36.24-50.39 58.23-108.1 4.11-10.78 9.58-28.42c7.36-23.77 12.63-47.48 15.57-68.33 7.83-55.54 6.24-112.86-5.86-167.71q-11.9-53.93-34.78-101.5c-17.12-35.61-38.61-69.41-64.16-99.84q-34.92-41.61-75.61-72.88-2.38-1.83-10.54-7.75" fill="#0471bc"/><path d="M791.84 130.14q8.16 5.92 10.54 7.75 40.69 31.27 75.61 72.88c25.55 30.43 47.04 64.23 64.16 99.84q22.88 47.57 34.78 101.5c12.1 54.85 13.69 112.17 5.86 167.71-2.94 20.85-8.21 44.56-15.57 68.33q-5.47 17.64-9.58 28.42-21.99 57.71-58.23 108.1-4.51 6.27-12.67 17.11-3.76 5-7.35 9.11-3.83 4.37-7.66 8.87-18.89 22.16-44.5 45.03-5.01 4.47-11.85 10-8.9 7.18-12.14 9.69-50.34 38.94-109.13 63.48c-68.48 28.59-143.65 40.25-218.03 34.68-30.84-2.32-61.71-7.95-91.37-15.87-14.38-3.85-25.57-7.89-40.57-13.31-17.56-6.34-33.98-14.15-51.18-22.75q-5.89-2.95-10.89-6.05c-4.31-2.68-9.48-5.19-14.46-8.22-47.42-28.91-90.89-65.59-125.17-108.63q-10.83-13.58-13.89-17.8-2.43-3.33-3.14-4.41c-6.27-9.43-12.86-18.53-18.8-28.17q-30.52-49.5-48.47-105.22-3.22-10-5.18-17.77c-1.95-7.73-4.21-15.04-6.12-23.89q-18.05-83.47-5.34-167.31 13.08-86.23 56.14-162.09 17.55-30.92 39.84-59.46 21.92-28.05 48.43-52.65 45.89-42.55 100.46-72.16 10.07-5.47 29.66-14.55c18.05-8.37 39.6-16.26 59.86-22.11q79.92-23.05 163.61-18.39 42.91 2.38 84.22 11.7c47.82 10.79 92.86 29.19 135.06 54.47q14.61 8.75 33.06 22.14M678.46 94.29q-6.27-2.69-12.51-4.72c-14.14-4.61-29.11-9.29-44.13-12.84q-97.34-22.99-195.32-4.67-15.47 2.89-30.93 7.01-14.82 3.95-30.34 9.19-43.1 14.56-82.9 37.58c-7.25 4.2-21.68 13.1-32.36 20.74q-8.14 5.82-15.22 11.17-12.39 9.36-20.54 16.46-11.32 9.84-29.25 27.99-14.74 14.92-33.27 38.73-28.02 36-48.81 79.66-12.35 25.91-23.14 59.3-10.04 31.05-15.01 61.83-12.65 78.21 1.44 152.44 7.68 40.46 27.05 86.78a.447.444-30.988 0 0 .69.17q3.39-2.73 3.43-2.77 13.98-13.36 31.85-30.49c6.03-5.78 11.35-11.29 18.21-17.44q.14-.13 7.79-7.72 4.74-4.71 34.25-32.75 9.2-8.74 17.81-17.56a1.328 1.319 61.586 0 0 .35-1.19c-12.93-65.68-3.49-133.11 25.45-193.66q4.7-9.83 9.62-17.76c3.13-5.05 6.85-12.13 11.02-18.32q20.99-31.08 48.47-56.8 28.68-26.86 63.88-46.03 6.16-3.35 14.35-7.17 11.28-5.26 14.62-6.64c54.31-22.36 114.4-28.59 172.07-18.8a1.04 1.04 27.312 0 0 .91-.29L678.62 95.09a.494.492-56.403 0 0-.16-.8M698 262.05l99.39-98.3a.549.547 42.974 0 0-.03-.81q-25.62-21.46-54.42-38.18a.655.649 36.84 0 0-.79.11q-30.48 30.84-73.73 73.55-1.33 1.31-7.46 7.54-6.89 7-18.63 18.61-1.65 1.63-2.56 3.13a.511.509-61.863 0 0 .22.73q30.16 14.2 57.43 33.67a.452.45-49.797 0 0 .58-.05m86.65 97.06a1.109 1.106 53.1 0 0 1.74.25l99.6-97.7a.781.765-33.652 0 0 .18-.85q-.32-.77-1.56-2.65-9.61-14.47-15.54-21.86-7.36-9.18-9.97-12.58c-4.14-5.38-9.23-10.59-13.13-14.97a.284.277 47.047 0 0-.41-.02l-98.01 96.14a.897.894 47.473 0 0-.05 1.21q9.54 11.31 19.76 25.63 9.25 12.96 17.39 27.4M224.42 534.29q1.41 18.68 6.65 41.42c16.74 72.64 63.66 135.8 125.63 176.19q6.22 4.05 15.19 9.12 12.84 7.25 15.5 8.48c20.57 9.47 39.41 17.12 60.21 21.94q17.7 4.11 23.28 4.98 74.26 11.65 143.73-12.82 38.61-13.61 73.96-39.06c6.63-4.77 11.84-9.51 18.79-15.18q3.63-2.97 15.4-14.41c4.96-4.82 9.45-10.32 13.65-15.06 12.58-14.19 23.23-29.63 32.91-46.6q4.39-7.72 9.86-19.79 7.03-15.55 8.77-20.28 15.76-42.87 17.38-87.29 1.8-49.6-12.57-96.94-4.74-15.63-10.36-27.92-7.58-16.6-9.98-21.26-10.16-19.73-28.66-44.66c-3.71-5-7.95-9.06-11.72-13.78-5.26-6.59-11.77-12.18-17.76-18.35q-2.78-2.87-9.14-8.34-9.58-8.22-12.38-10.36c-10.15-7.72-23.14-16.82-35.93-23.77q-12.52-6.81-15.08-8.05-80.47-38.86-168.98-26.81-8.74 1.19-18.76 3.38-13.09 2.85-18.54 4.38-55.49 15.61-100.89 51.4-16.71 13.16-30.37 27.4c-39.44 41.09-66.71 92.77-76.42 148.43q-6.22 35.63-3.37 73.61m696.17-213.36L814.13 425.36a1.413 1.408 60.102 0 0-.37 1.38c5.45 19.65 9.51 38.03 11.38 58.35q6.49 70.53-17.84 136.21c-11.82 31.9-28.87 61.03-49.67 86.61q-10.15 12.5-28.43 30.17c-5.03 4.86-9.07 7.81-14.18 12.29q-5.34 4.68-10.96 8.84-38.37 28.43-80.4 43.7-60.71 22.05-127.93 18.19c-15.55-.9-31.19-3.54-46.41-6.74a.33.33 58.458 0 0-.28.08L335.47 925.01a.166.163 34.91 0 0 .05.27q53.66 22.51 111.24 30.92 25.82 3.77 47.02 4.36c29.14.82 57.57-.22 86.58-4.7q64.03-9.89 122.94-37.18 4.45-2.06 9.63-4.78 6.64-3.5 9.53-5 40.36-21.02 77.75-51.4c6.96-5.65 14.44-12.77 19.42-16.86 4.8-3.95 8.46-8.45 12.69-12.41 6.81-6.38 11.4-12.05 17.94-18.79q2.89-3 8.32-9.53 15.51-18.7 29.77-39.75c4.75-7.01 7.99-12.57 12.46-19.57q2.86-4.48 16.17-29.27c2.68-5 4.92-10.78 7.65-16.59q3.36-7.18 5.58-12.52 30.62-73.7 33.68-153.87.88-23.06-1.05-48.44-2.15-28.18-5.91-48.14-6.65-35.28-16.66-63.85-8.66-24.68-18.73-46.8a.594.592 55.648 0 0-.95-.18M166.56 799.34l100.83-98.17a1.025 1.017-41.021 0 0 .1-1.36q-13.51-17.42-25.15-37.87-5.08-8.93-10.63-20.2a.36.357 54.706 0 0-.57-.1l-105 102.23a.689.683 53.373 0 0-.12.84c9.71 16.75 21.19 31.92 33.7 47.57q1.58 1.99 6.02 7.03a.574.566 46.722 0 0 .82.03m206.62-12.6c-21.01-11.15-41.39-24.35-58.97-39.52a.42.411 43.366 0 0-.56.01l-101.47 98.79a.925.923 43.384 0 0 .04 1.36q23.11 20.16 49.28 37.37 2.25 1.47 6.86 4.21a.34.32-50.408 0 0 .4-.05l104.48-101.72a.282.279-52.927 0 0-.06-.45" fill="#fdfdfd"/><path d="M678.46 94.29a.494.492-56.403 0 1 .16.8L567.99 205.72a1.04 1.04 27.312 0 1-.91.29c-57.67-9.79-117.76-3.56-172.07 18.8q-3.34 1.38-14.62 6.64-8.19 3.82-14.35 7.17-35.2 19.17-63.88 46.03-27.48 25.72-48.47 56.8c-4.17 6.19-7.89 13.27-11.02 18.32q-4.92 7.93-9.62 17.76c-28.94 60.55-38.38 127.98-25.45 193.66a1.328 1.319 61.586 0 1-.35 1.19q-8.61 8.82-17.81 17.56-29.51 28.04-34.25 32.75-7.65 7.59-7.79 7.72c-6.86 6.15-12.18 11.66-18.21 17.44q-17.87 17.13-31.85 30.49-.04.04-3.43 2.77a.447.444-30.988 0 1-.69-.17q-19.37-46.32-27.05-86.78-14.09-74.23-1.44-152.44 4.97-30.78 15.01-61.83 10.79-33.39 23.14-59.3 20.79-43.66 48.81-79.66 18.53-23.81 33.27-38.73 17.93-18.15 29.25-27.99 8.15-7.1 20.54-16.46 7.08-5.35 15.22-11.17c10.68-7.64 25.11-16.54 32.36-20.74q39.8-23.02 82.9-37.58 15.52-5.24 30.34-9.19 15.46-4.12 30.93-7.01 97.98-18.32 195.32 4.67c15.02 3.55 29.99 8.23 44.13 12.84q6.24 2.03 12.51 4.72m-107.296 58.872a.42.42-2.308 0 0 .474-.358l4.642-33.519a.42.42-11.738 0 0-.377-.476l-10.163-.952a.42.42-74.25 0 0-.455.361l-2.997 21.626a.42.42-45.337 0 1-.474.359l-11.556-1.598a.42.42 41.596 0 1-.36-.455l3.793-40.452a.42.42 73.878 0 0-.379-.457l-10.314-.972a.42.42-76.987 0 0-.457.379l-4.824 51.472a.42.42-2.782 0 0 .361.455zm2.558-53.06a6.81 6.28-82.9 0 0-7.074 5.982 6.81 6.28-82.9 0 0 5.39 7.534 6.81 6.28-82.9 0 0 7.074-5.982 6.81 6.28-82.9 0 0-5.39-7.534M508.17 122.82q1.08.12 3.43 1.06 8.55 3.39 8.41 12.69a.68.68-89.572 0 1-.68.67h-14.85a.76.76 0 0 0-.76.76v9.01a.831.821-89.293 0 0 .8.83l27.23.79a.19.181-88.569 0 0 .19-.19c.11-5.84.51-12.5-1.07-18.21q-1.38-4.97-2.29-6.54-6.38-10.99-19.29-12.59a.803.796-83.702 0 0-.89.72l-.95 10.11a.827.823 6.143 0 0 .72.89m-55.08-5.59l-10.84 1.79a.89.877 84.832 0 0-.74.9c.36 11.59 1.92 26.67 15.08 30.53q3.55 1.04 9.91.56 9.91-.75 14.77-1.3a.805.795-7.169 0 0 .7-.89l-2.59-22.08a2.195 2.195 2.387 0 1 2.62-2.41l.52.1a5.06 5.047 2.464 0 1 4.02 4.37l1.28 10.85a.705.705-12.178 0 0 .78.62l9.29-1.09a.644.637 85.614 0 0 .56-.66q-.17-4.23-1-10.74c-1.05-8.21-4.83-15.15-14.3-14.63q-7.7.42-15.42 3.69a.666.658-16.899 0 0-.39.72l3.24 19.69a1.501 1.497 81.153 0 1-1.26 1.73c-4.42.66-11.2 1.2-13.43-3.86-2.24-5.06-2.7-11.34-2.27-17.4a.463.46 87.535 0 0-.53-.49m-78.912 44.817a.59.59-1.743 0 1-.744-.312l-16.343-36.526a.59.59 58.153 0 0-.78-.298l-9.373 4.198a.59.59 22.121 0 0-.297.779l20.863 46.597a.59.59-17.305 0 0 .744.312l31.469-11.701a.59.59 38.502 0 0 .347-.759l-12.155-32.697a.59.59-33.424 0 0-.794-.333l-9.42 4.217a.59.59 8.355 0 0-.312.744l7.822 21.049a.59.59-67.963 0 1-.348.759zm28.642-8.107l2.24 8.71a.577.565 75.097 0 0 .69.41l25.11-6.47a.64.635 72.059 0 0 .43-.85q-1.07-2.71-2.32-7.46c-.98-3.73-3.59-9.63-6.2-13.14q-7.73-10.42-22.22-9.35a.797.793 84.491 0 0-.73.89l1.19 10.17a.673.666-4.564 0 0 .7.59q11.65-.51 14.75 10.15a.672.669-18.584 0 1-.41.82l-12.83 4.77a.644.643 72.828 0 0-.4.76m-78.05-14.137a.65.65 0 0 0-.883-.255l-8.737 4.823a.65.65 0 0 0-.255.883l24.435 44.263a.65.65 0 0 0 .883.255l8.737-4.823a.65.65 0 0 0 .255-.883zm7.74 54.307l-27.57-43.77a.693.688-32.441 0 0-.96-.21l-8.69 5.47a.599.585 58.044 0 0-.18.82l21.36 33.92a1.104 1.098 56.238 0 1-.29 1.48l-7.36 5.35a.65.65 4.451 0 1-.91-.15l-14.08-19.41a.544.536-35.473 0 0-.75-.12l-8.66 6.28a.37.364 53.125 0 0-.07.52q14.11 18.35 22.3 29.3 2 2.67 1.79 5.69a2.218 2.179 69.798 0 1-.65 1.44l-2.27 2.28a1.612 1.589-21.884 0 0-.47 1.08c-.09 2.98 2.9 5.92 4.88 7.84a.825.818-36.55 0 0 .97.14c10.46-5.57 10.9-15.87 4.88-25.1a.929.923-39.228 0 1 .12-1.15q2.23-2.21 5.61-4.3 1.06-.65 10.83-6.67a.53.53-27.313 0 0 .17-.73m141.127-38.295a6.3 5.02-92.3 0 0-4.763 6.496 6.3 5.02-92.3 0 0 5.269 6.094 6.3 5.02-92.3 0 0 4.763-6.496 6.3 5.02-92.3 0 0-5.269-6.094m-10.968.908a6.59 5.36-94.8 0 0-4.79 7.016 6.59 5.36-94.8 0 0 5.892 6.118 6.59 5.36-94.8 0 0 4.79-7.016 6.59 5.36-94.8 0 0-5.892-6.118m-70.059 16.89a6.67 6.07-111 0 0-3.277 8.402 6.67 6.07-111 0 0 8.057 4.052 6.67 6.07-111 0 0 3.277-8.402 6.67 6.07-111 0 0-8.057-4.052M238.76 196.15a.304.302-31.234 0 0-.5-.12c-1.99 1.93-5.96 5.45-6.61 8.27a2.088 2.068 34.631 0 0 .31 1.65q2.32 3.42 5.38 6.72 13.17 14.2 26.41 29.08 1.21 1.36 2.09 2.15a.786.77 44.963 0 0 1.03.01c4.27-3.74 7.63-7.41 12.37-10.95 5.05-3.78 9.9-8.7 15.46-12.88a.336.328-38.389 0 0 .06-.47l-22.09-27.25a.512.506 51.07 0 0-.71-.08l-8.17 6.62a.619.612-39.324 0 0-.09.86l14.51 17.89a1.059 1.051 51 0 1-.15 1.48l-10.23 8.29a1.218 1.212-40.733 0 1-1.66-.12q-13.6-14.91-25.45-27.53-1.19-1.28-1.96-3.62m-29.4 29.494a6.6 6.02-147.4 0 0 2.317 8.628 6.6 6.02-147.4 0 0 8.803-1.516 6.6 6.02-147.4 0 0-2.317-8.628 6.6 6.02-147.4 0 0-8.803 1.516m87.689.965a6.48 5.35-119.3 0 0-1.495 8.269 6.48 5.35-119.3 0 0 7.837 3.033 6.48 5.35-119.3 0 0 1.495-8.269 6.48 5.35-119.3 0 0-7.837-3.033M219.89 248.77l-4.9-3.03a.458.453 38.493 0 0-.55.06l-6.96 6.97a1.177 1.172 41.238 0 0 .12 1.77q9.97 7.5 17.54 15.07a1.075 1.075-10.296 0 1 0 1.52l-6.91 6.91a.386.384-53.729 0 1-.45.07q-4.78-2.43-14.18-7.22-2.41-1.22-7.63-2.07a1.168 1.164 30.427 0 0-.93.24q-10.91 8.81-15.59 22.31a.828.825 23.314 0 0 .4 1q10.36 5.41 18.57 11.27a1.803 1.797-57.848 0 1 .53 2.34q-2.98 5.4-8.53 7.76a3.122 3.026-53.02 0 1-1.53.24c-7.62-.7-12.3-4.91-18.03-9.9a.53.527-57.684 0 0-.83.19l-4.73 10.63a.906.904 31.536 0 0 .26 1.08c6.38 5.2 13.81 10.47 21.26 11.01 8.59.62 15.34-4.57 19.94-11.47q5.94-8.9 8.45-14.07a1.391 1.385 28.838 0 0-.52-1.78l-19.41-11.99a1.138 1.133 28.388 0 1-.43-1.43q1.02-2.28 3.25-4.34a.847.833-54.942 0 1 .87-.16c7.32 2.84 13.91 7.5 21.11 12.18a.816.808 31.029 0 0 1.15-.28q3.19-5.55 7.33-10.09 8.42-9.23 20.81-22.64c5.23-5.66 6.83-14.99 1.62-21.47-3.46-4.32-7.77-7.57-13.12-8.64q-10.54-2.12-16.21 7.38c-2 3.36-1.67 6.47-1.23 10.24a.356.354 12.667 0 1-.54.34m67.059-13.756a6.36 6.04-129.8 0 0-.569 8.752 6.36 6.04-129.8 0 0 8.711 1.02 6.36 6.04-129.8 0 0 .569-8.752 6.36 6.04-129.8 0 0-8.711-1.02m-71.72 78.547a6.81 5.87-147 0 0 2.514 8.632 6.81 5.87-147 0 0 8.908-1.214 6.81 5.87-147 0 0-2.514-8.632 6.81 5.87-147 0 0-8.908 1.214m-6.803 11.717a6.72 6.17-144.4 0 0 1.872 8.929 6.72 6.17-144.4 0 0 9.056-1.105 6.72 6.17-144.4 0 0-1.872-8.929 6.72 6.17-144.4 0 0-9.056 1.105m-75.325 15.698a.42.42-45.795 0 0 .213.555l49.752 22.138a.42.42 87.153 0 0 .555-.213l4.509-10.152a.42.42 33.188 0 0-.214-.555l-49.752-22.128a.42.42-63.023 0 0-.555.213zM146.32 455.91a.313.313 42.814 0 1-.35.27l-41.77-5.79a1.131 1.123 7.984 0 0-1.27.95l-1.46 10.53a.564.564-71.828 0 0 .49.63q26.23 3.39 46.99 6.58 2.52.39 6.98.52a.514.512-86.341 0 0 .52-.46q1.28-12.27 3.1-22.12 6.91-37.33 20.37-72.78a.979.969-68.857 0 0-.55-1.26l-50.15-19.65a.6.6-51.768 0 0-.78.34l-4.06 10.38a.552.548-68.483 0 0 .31.72l40.56 15.9a.902.893-69.032 0 1 .51 1.16l-3.94 10.04a.203.199-70.132 0 1-.25.12l-23.15-7.87a.563.553 18.923 0 0-.71.34l-3.6 10.6a.582.572-71.724 0 0 .36.73l22.87 7.78a.952.949-71.47 0 1 .6 1.21l-3.39 9.96a.191.189-67.706 0 1-.26.11c-8.44-3.62-17.52-5.38-24.84 1.7q-2.73 2.64-3.44 7.36c-2.3 15.26 7.75 21.66 21.26 22.97a.293.292-83.344 0 1 .26.33zm-26.272-75.328a6.57 5.26-167 0 0 5.219 6.603 6.57 5.26-167 0 0 7.585-3.647 6.57 5.26-167 0 0-5.219-6.603 6.57 5.26-167 0 0-7.585 3.647m-13.872 3.805a6.09 5.12-174.7 0 0 5.591 5.661 6.09 5.12-174.7 0 0 6.537-4.535 6.09 5.12-174.7 0 0-5.591-5.661 6.09 5.12-174.7 0 0-6.537 4.535m11.147 8.72a6.33 5.43-165.8 0 0 4.805 6.817 6.33 5.43-165.8 0 0 7.469-3.711 6.33 5.43-165.8 0 0-4.805-6.817 6.33 5.43-165.8 0 0-7.469 3.711m-6.489 21.144a6.65 5.92-163.5 0 0 4.695 7.565 6.65 5.92-163.5 0 0 8.057-3.787 6.65 5.92-163.5 0 0-4.695-7.565 6.65 5.92-163.5 0 0-8.057 3.787m-2.547 13.981a6.25 5.95-171 0 0 5.242 6.855 6.25 5.95-171 0 0 7.104-4.899 6.25 5.95-171 0 0-5.242-6.855 6.25 5.95-171 0 0-7.104 4.899m33.903 81.158l-.66 7.03a.402.4-.906 0 1-.35.36q-10.65 1.26-13.67 1.93c-9.41 2.07-12.31 10.04-10.78 18.79q.19 1.13 1.63 11.93a1.078 1.071-7.089 0 0 1.19.92l22.71-2.67a.732.726-9.887 0 1 .79.55c1.84 7.21.4 16.21-8.32 17.78q-7 1.27-14.18-.49a.315.315 3.866 0 0-.39.34l1.38 11.74a.841.827 89.944 0 0 .72.73c15.9 2.01 31.68-2.79 33.28-21.31.64-7.4-.19-11.29-1.25-21.54a.663.654 83.568 0 0-.73-.59l-24.21 2.84a1.2 1.2 86.48 0 1-1.33-1.05l-.5-4.26a1.823 1.819 80.569 0 1 1.42-1.99c6.74-1.44 14.42-1.96 24.42-2.68a.563.563-2.206 0 0 .52-.56q-.27-23.32 1.65-49.16a.783.781-86.819 0 0-.75-.84q-8.17-.41-18.17-.41c-9.98-.01-18.04 2.28-19.26 12.77-1.17 9.98 3.05 18.24 13.65 19.97q3.69.61 10.92-.39a.24.24-.968 0 1 .27.26m-29.241-17.838a6.57 6.25-1.2 0 0-6.7-6.111 6.57 6.25-1.2 0 0-6.438 6.387 6.57 6.25-1.2 0 0 6.7 6.111 6.57 6.25-1.2 0 0 6.438-6.387m60.187 52.981a6.79 6.17-10.5 0 0-7.8-4.83 6.79 6.17-10.5 0 0-5.552 7.304 6.79 6.17-10.5 0 0 7.8 4.83 6.79 6.17-10.5 0 0 5.552-7.304m-12.386 15.289a6.62 6.02-180.1 0 0 6.631 6.008 6.62 6.02-180.1 0 0 6.609-6.032 6.62 6.02-180.1 0 0-6.631-6.008 6.62 6.02-180.1 0 0-6.609 6.032" fill="#0471bc"/><path d="M571.164 153.162l-33.086-4.587a.42.42 42.617 0 1-.361-.455l4.824-51.472a.42.42-48.601 0 1 .457-.379l10.314.972a.42.42-49.19 0 1 .379.457l-3.793 40.452a.42.42-9.82 0 0 .36.455l11.556 1.598a.42.42-69.697 0 0 .474-.359l2.997-21.626a.42.42-45.888 0 1 .455-.361l10.163.952a.42.42 31.867 0 1 .377.476l-4.642 33.519a.42.42 49.13 0 1-.474.358m2.558-53.06a6.81 6.28-82.9 0 1 5.39 7.534 6.81 6.28-82.9 0 1-7.074 5.982 6.81 6.28-82.9 0 1-5.39-7.534 6.81 6.28-82.9 0 1 7.074-5.982M507.45 121.93l.95-10.11a.803.796-83.702 0 1 .89-.72q12.91 1.6 19.29 12.59.91 1.57 2.29 6.54c1.58 5.71 1.18 12.37 1.07 18.21a.19.181-88.569 0 1-.19.19l-27.23-.79a.831.821-89.293 0 1-.8-.83V138a.76.76-45 0 1 .76-.76h14.85a.68.68-89.572 0 0 .68-.67q.14-9.3-8.41-12.69-2.35-.94-3.43-1.06a.827.823 6.143 0 1-.72-.89m-53.83-4.21c-.43 6.06.03 12.34 2.27 17.4 2.23 5.06 9.01 4.52 13.43 3.86a1.501 1.497 81.153 0 0 1.26-1.73l-3.24-19.69a.666.658-16.899 0 1 .39-.72q7.72-3.27 15.42-3.69c9.47-.52 13.25 6.42 14.3 14.63q.83 6.51 1 10.74a.644.637 85.614 0 1-.56.66l-9.29 1.09a.705.705 20.529 0 1-.78-.62l-1.28-10.85a5.06 5.047 2.464 0 0-4.02-4.37l-.52-.1a2.195 2.195 2.387 0 0-2.62 2.41l2.59 22.08a.805.795-7.169 0 1-.7.89q-4.86.55-14.77 1.3-6.36.48-9.91-.56c-13.16-3.86-14.72-18.94-15.08-30.53a.89.877 84.832 0 1 .74-.9l10.84-1.79a.463.46 87.535 0 1 .53.49m-79.442 44.327l10.679-3.971a.59.59-77.382 0 0 .348-.759l-7.822-21.049a.59.59-20.875 0 1 .312-.744l9.42-4.217a.59.59 13.657 0 1 .794.333l12.155 32.697a.59.59 46.243 0 1-.347.759l-31.469 11.701a.59.59 21.351 0 1-.744-.312l-20.863-46.597a.59.59-70.232 0 1 .297-.779l9.373-4.198a.59.59-81.893 0 1 .78.298l16.343 36.526a.59.59-29.748 0 0 .744.312" fill="#fdfdfd"/><path d="M698 262.05a.452.45-49.797 0 1-.58.05q-27.27-19.47-57.43-33.67a.511.509-61.863 0 1-.22-.73q.91-1.5 2.56-3.13 11.74-11.61 18.63-18.61 6.13-6.23 7.46-7.54 43.25-42.71 73.73-73.55a.655.649 36.84 0 1 .79-.11q28.8 16.72 54.42 38.18a.549.547 42.974 0 1 .03.81z" fill="#0471bc"/><path d="M402.82 153.94a.644.643 72.828 0 1 .4-.76l12.83-4.77a.672.669-18.584 0 0 .41-.82q-3.1-10.66-14.75-10.15a.673.666-4.564 0 1-.7-.59l-1.19-10.17a.797.793 84.491 0 1 .73-.89q14.49-1.07 22.22 9.35c2.61 3.51 5.22 9.41 6.2 13.14q1.25 4.75 2.32 7.46a.64.635 72.059 0 1-.43.85l-25.11 6.47a.577.565 75.097 0 1-.69-.41zm-53.615 30.126a.65.65 0 0 1-.255.883l-8.737 4.823a.65.65 0 0 1-.883-.255l-24.435-44.263a.65.65 0 0 1 .255-.883l8.737-4.823a.65.65 0 0 1 .883.255zM332.51 194.11a.53.53-5.372 0 1-.17.73q-9.77 6.02-10.83 6.67-3.38 2.09-5.61 4.3a.929.923-39.228 0 0-.12 1.15c6.02 9.23 5.58 19.53-4.88 25.1a.825.818-36.55 0 1-.97-.14c-1.98-1.92-4.97-4.86-4.88-7.84a1.612 1.589-21.884 0 1 .47-1.08l2.27-2.28a2.218 2.179 69.798 0 0 .65-1.44q.21-3.02-1.79-5.69-8.19-10.95-22.3-29.3a.37.364 53.125 0 1 .07-.52l8.66-6.28a.544.536-35.473 0 1 .75.12l14.08 19.41a.65.65-40.173 0 0 .91.15l7.36-5.35a1.104 1.098 56.238 0 0 .29-1.48l-21.36-33.92a.599.585 58.044 0 1 .18-.82l8.69-5.47a.693.688-32.441 0 1 .96.21zm141.127-38.295a6.3 5.02-92.3 0 1 5.269 6.094 6.3 5.02-92.3 0 1-4.763 6.496 6.3 5.02-92.3 0 1-5.269-6.094 6.3 5.02-92.3 0 1 4.763-6.496m-10.968.908a6.59 5.36-94.8 0 1 5.892 6.118 6.59 5.36-94.8 0 1-4.79 7.016 6.59 5.36-94.8 0 1-5.892-6.118 6.59 5.36-94.8 0 1 4.79-7.016m-70.059 16.89a6.67 6.07-111 0 1 8.057 4.052 6.67 6.07-111 0 1-3.277 8.402 6.67 6.07-111 0 1-8.057-4.052 6.67 6.07-111 0 1 3.277-8.402M238.76 196.15q.77 2.34 1.96 3.62 11.85 12.62 25.45 27.53a1.218 1.212-40.733 0 0 1.66.12l10.23-8.29a1.059 1.051 51 0 0 .15-1.48l-14.51-17.89a.619.612-39.324 0 1 .09-.86l8.17-6.62a.512.506 51.07 0 1 .71.08l22.09 27.25a.336.328-38.389 0 1-.06.47c-5.56 4.18-10.41 9.1-15.46 12.88-4.74 3.54-8.1 7.21-12.37 10.95a.786.77 44.963 0 1-1.03-.01q-.88-.79-2.09-2.15-13.24-14.88-26.41-29.08-3.06-3.3-5.38-6.72a2.088 2.068 34.631 0 1-.31-1.65c.65-2.82 4.62-6.34 6.61-8.27a.304.302-31.234 0 1 .5.12" fill="#fdfdfd"/><path d="M784.65 359.11q-8.14-14.44-17.39-27.4-10.22-14.32-19.76-25.63a.897.894 47.473 0 1 .05-1.21l98.01-96.14a.284.277 47.047 0 1 .41.02c3.9 4.38 8.99 9.59 13.13 14.97q2.61 3.4 9.97 12.58 5.93 7.39 15.54 21.86 1.24 1.88 1.56 2.65a.781.765-33.652 0 1-.18.85l-99.6 97.7a1.109 1.106 53.1 0 1-1.74-.25M224.42 534.29q-2.85-37.98 3.37-73.61c9.71-55.66 36.98-107.34 76.42-148.43q13.66-14.24 30.37-27.4 45.4-35.79 100.89-51.4 5.45-1.53 18.54-4.38 10.02-2.19 18.76-3.38 88.51-12.05 168.98 26.81 2.56 1.24 15.08 8.05c12.79 6.95 25.78 16.05 35.93 23.77q2.8 2.14 12.38 10.36 6.36 5.47 9.14 8.34c5.99 6.17 12.5 11.76 17.76 18.35 3.77 4.72 8.01 8.78 11.72 13.78q18.5 24.93 28.66 44.66 2.4 4.66 9.98 21.26 5.62 12.29 10.36 27.92 14.37 47.34 12.57 96.94-1.62 44.42-17.38 87.29-1.74 4.73-8.77 20.28-5.47 12.07-9.86 19.79c-9.68 16.97-20.33 32.41-32.91 46.6-4.2 4.74-8.69 10.24-13.65 15.06q-11.77 11.44-15.4 14.41c-6.95 5.67-12.16 10.41-18.79 15.18q-35.35 25.45-73.96 39.06-69.47 24.47-143.73 12.82-5.58-.87-23.28-4.98c-20.8-4.82-39.64-12.47-60.21-21.94q-2.66-1.23-15.5-8.48-8.97-5.07-15.19-9.12c-61.97-40.39-108.89-103.55-125.63-176.19q-5.24-22.74-6.65-41.42m526.43-176.25q-4.84-7.87-17.77-23.59-21.37-26-48.44-46.71-7.52-5.75-17.13-11.81c-18.3-11.53-37.37-21.81-57.88-28.88q-18.5-6.37-36.1-10.37c-34.49-7.84-72.59-8.31-107.22-2.53q-23.07 3.86-47.75 12.52-22.53 7.9-44.77 20.78c-52.36 30.32-93.88 75.71-118.98 131.23q-7.7 17.01-13.03 35.78-5.88 20.69-8.07 37.2-11.95 89.8 30.08 168.96c19.66 37.03 48.79 69.8 82.38 94.86 10.51 7.84 22.56 15.32 33.02 21.12 6.73 3.73 12.7 5.99 19.19 9.4q3.1 1.63 9.42 4.27 65.11 27.23 134.96 21.38c25.19-2.11 50.65-8.09 73.41-16.52q29.97-11.11 60.26-31.33c6.22-4.16 11.63-8.85 16.35-12.29q5.95-4.35 11.85-9.69 21.87-19.76 38.9-42.63c4.34-5.84 8.07-11.83 12.52-18.85q17.49-27.6 28.42-60.66c16.03-48.5 17.24-100.81 5.89-150.76q-.78-3.42-6.46-22.43c-2.71-9.06-7.4-19.98-10.51-27.12-5.61-12.9-14.25-27.84-22.54-41.33" fill="#0471bc"/><path d="M209.36 225.644a6.6 6.02-147.4 0 1 8.803-1.516 6.6 6.02-147.4 0 1 2.317 8.628 6.6 6.02-147.4 0 1-8.803 1.516 6.6 6.02-147.4 0 1-2.317-8.628m87.689.965a6.48 5.35-119.3 0 1 7.837 3.033 6.48 5.35-119.3 0 1-1.495 8.269 6.48 5.35-119.3 0 1-7.837-3.033 6.48 5.35-119.3 0 1 1.495-8.269M750.85 358.04c8.29 13.49 16.93 28.43 22.54 41.33 3.11 7.14 7.8 18.06 10.51 27.12q5.68 19.01 6.46 22.43c11.35 49.95 10.14 102.26-5.89 150.76q-10.93 33.06-28.42 60.66c-4.45 7.02-8.18 13.01-12.52 18.85q-17.03 22.87-38.9 42.63-5.9 5.34-11.85 9.69c-4.72 3.44-10.13 8.13-16.35 12.29q-30.29 20.22-60.26 31.33c-22.76 8.43-48.22 14.41-73.41 16.52q-69.85 5.85-134.96-21.38-6.32-2.64-9.42-4.27c-6.49-3.41-12.46-5.67-19.19-9.4-10.46-5.8-22.51-13.28-33.02-21.12-33.59-25.06-62.72-57.83-82.38-94.86q-42.03-79.16-30.08-168.96 2.19-16.51 8.07-37.2 5.33-18.77 13.03-35.78c25.1-55.52 66.62-100.91 118.98-131.23q22.24-12.88 44.77-20.78 24.68-8.66 47.75-12.52c34.63-5.78 72.73-5.31 107.22 2.53q17.6 4 36.1 10.37c20.51 7.07 39.58 17.35 57.88 28.88q9.61 6.06 17.13 11.81 27.07 20.71 48.44 46.71 12.93 15.72 17.77 23.59M408.06 694.37l-20.09 44.52a.144.139-64.495 0 0 .06.18c6.39 3.39 11.95 5.9 22.91 10.9q10.11 4.61 17.41 6.99 22.81 7.42 35.06 9.89c45.72 9.2 93.89 6.77 138.02-8.52q23.26-8.06 39.5-16.95 25.48-13.95 45.81-31.15c24.72-20.92 45.19-46.6 60.59-75.79q6.95-13.16 8.46-16.67 24.83-57.53 21-120.24-2.12-34.65-13-66.52-4.83-14.14-7.04-18.89-10.65-22.84-15.76-31.13-30.86-50.01-76.69-82.14-5.71-4-21.28-13.31-7.66-4.58-18.04-9.18-16.1-7.14-18.48-8.13-4.57-1.9-19.13-6.13-57.74-16.78-116.84-7.1c-15.42 2.52-29.76 6.64-43.36 11.22-13.39 4.51-25.1 10.19-39.18 17.18a.417.417 64.412 0 0-.19.54l19.41 43.37a.424.42-27.125 0 0 .6.19q30.48-17.55 64.91-24.3 4.65-.92 14.73-2.06a.71.705-3.271 0 1 .79.7v27.9a.692.686 87.358 0 0 .75.69q14.37-1.38 26.59-1.18c6.64.12 14.24 1.19 19.74 1.3a.81.8-89.31 0 0 .82-.81v-28.29a.567.564 3.19 0 1 .63-.56q63.15 7.38 112.25 46.74c17.01 13.64 29.92 28.19 42.68 46.05 3.37 4.72 5.63 9.43 8.59 13.87 3.82 5.7 6.68 12.15 10.37 19.76q1.95 4 8.62 23.12 2.13 6.11 4.97 19.53c6.34 29.93 5.98 60.75-.96 90.27q-5.81 24.72-15.87 44.96-7.16 14.39-13.71 24.29-9.1 13.73-23.76 29.64-3.19 3.46-5.38 5.3c-4.89 4.14-9.3 8.68-14.14 12.48-28.51 22.37-60.6 37.54-96.21 43.49-17.34 2.89-35.63 4.18-53.25 2.69q-24.93-2.1-50.14-9.86c-15.56-4.78-29.57-11.74-42.75-18.86a.033.02-58.283 0 0-.02.01m80.29-268.8v108.45a.53.53-45 0 0 .53.53h46.8a.45.44 0 0 0 .45-.44V373.36a.584.576 4.698 0 0-.49-.57q-30.56-4.57-60.61 3.55c-14.57 3.94-27.89 10.27-39.69 18.03q-12.41 8.17-24.81 21.42c-17.67 18.88-28.94 41.73-34.17 67.48q-4.78 23.47-.95 50.54 1.74 12.3 6.03 23.99 5.11 13.92 10.24 22.55 20.53 34.56 54.37 52.99c49.63 27.03 113.86 20.65 156.63-16.46q7.76-6.74 12.63-12.06 30.82-33.7 36.21-78.3c1.59-13.16 1.04-25.73.08-39.34a.514.512 87.559 0 0-.51-.47h-73.44a.326.325-5.768 0 0-.32.39c1.58 7.35 3.8 17.02 3.52 24.55-.28 7.54-1.87 13.9-3.96 22.39a.773.773 7.015 0 0 .75.96H599a.474.473-81.04 0 1 .45.62q-7.29 23.25-24.65 39.67c-10.71 10.13-22.76 16.26-37.38 21.17q-5.8 1.95-13.68 2.95-27.04 3.4-51.02-8.64-26.41-13.26-39.16-38.14c-17.1-33.37-11.46-73.75 13.25-102 2.24-2.56 4.49-4.26 7.24-6.98q2.25-2.22 5.8-4.85 12.73-9.43 27.25-14.14a.958.956-8.889 0 1 1.25.91m11.75 141.99l-1.9 5.6a2.55 2.513 81.187 0 1-.85 1.18q-3.73 2.89-6.3-.37c-.42-.53-.59-1.44-.94-2.08a.959.94-14.41 0 0-.83-.48h-5.45a.611.61 84.871 0 0-.6.72c1.32 7.25 7.32 8.75 13.79 8.16 9.47-.87 9.77-11.83 9.88-18.81.12-7.8-2.24-15.17-11.22-15.67-4.71-.25-9.28 1.48-11.62 5.47-3.31 5.64-2.1 15.36 5.42 16.98q6.06 1.3 9.15-1.64a.9.897-12.339 0 1 1.47.94m17.99-9.25l.93-4.21a3.611 3.61-86.457 0 1 3.18-2.81q4.13-.4 4.95 2.4a1.839 1.831 84.406 0 0 1.6 1.32l5 .47a.996.99-7.41 0 0 1.03-1.33q-4.24-11.41-16.24-7.54c-8.25 2.67-7.84 15.73-7.09 22.63q.44 4.02 2.87 7.25c3.16 4.21 10.02 5.16 14.48 3.01q5.32-2.56 6.04-8.62c.62-5.23-.74-11.44-6.79-12.41q-5.58-.9-8.47.9a.994.989 80.307 0 1-1.49-1.06m-47.87-4.1V579a.87.87-88.302 0 0 .87.87h4.82a1.05 1.05-45 0 0 1.05-1.05v-32.08a.776.773 86.41 0 0-.87-.77l-4.6.54a1.62 1.555 21.55 0 0-.83.34q-4.03 3.21-8.1 4.5a.853.85 78.058 0 0-.59.91l.45 3.79a.362.362 76.417 0 0 .49.3l6.77-2.51a.401.397-10.27 0 1 .54.37m68.616-2.302a.32.32 28.505 0 0 .318.282h14.333a.32.32 49.651 0 1 .293.45l-11.816 26.554a.32.32-82.34 0 0 .283.45l6.329.18a.32.32 4.563 0 0 .301-.19l12.617-28.346a.3.3-47.48 0 0 .028-.121l.128-4.448a.32.32-88.08 0 0-.319-.329H538.54a.32.32-73.287 0 0-.317.358zm-26.553 157.474q8.598-.009 23.365.16a.492.484-89.537 0 0 .492-.492v-49.38a.645.641 87.283 0 0-.702-.643c-6.763.679-15.004 1.828-23.204 1.837s-16.444-1.125-23.208-1.789a.645.641-87.4 0 0-.701.644l.101 49.38a.492.484 89.419 0 0 .493.491q14.767-.199 23.364-.208" fill="#fdfdfd"/><path d="M219.89 248.77a.356.354 12.667 0 0 .54-.34c-.44-3.77-.77-6.88 1.23-10.24q5.67-9.5 16.21-7.38c5.35 1.07 9.66 4.32 13.12 8.64 5.21 6.48 3.61 15.81-1.62 21.47q-12.39 13.41-20.81 22.64-4.14 4.54-7.33 10.09a.816.808 31.029 0 1-1.15.28c-7.2-4.68-13.79-9.34-21.11-12.18a.847.833-54.942 0 0-.87.16q-2.23 2.06-3.25 4.34a1.138 1.133 28.388 0 0 .43 1.43l19.41 11.99a1.391 1.385 28.838 0 1 .52 1.78q-2.51 5.17-8.45 14.07c-4.6 6.9-11.35 12.09-19.94 11.47-7.45-.54-14.88-5.81-21.26-11.01a.906.904 31.536 0 1-.26-1.08l4.73-10.63a.53.527-57.684 0 1 .83-.19c5.73 4.99 10.41 9.2 18.03 9.9a3.122 3.026-53.02 0 0 1.53-.24q5.55-2.36 8.53-7.76a1.803 1.797-57.848 0 0-.53-2.34q-8.21-5.86-18.57-11.27a.828.825 23.314 0 1-.4-1q4.68-13.5 15.59-22.31a1.168 1.164 30.427 0 1 .93-.24q5.22.85 7.63 2.07 9.4 4.79 14.18 7.22a.386.384-53.729 0 0 .45-.07l6.91-6.91a1.075 1.075-54.196 0 0 0-1.52q-7.57-7.57-17.54-15.07a1.177 1.172 41.238 0 1-.12-1.77l6.96-6.97a.458.453 38.493 0 1 .55-.06zm14.61 11.46c2.46-2.45 7.82-7.75 7.62-10.3q-.33-4.26-4.52-6.34-4.47-2.22-7.25.97c-3.68 4.24.15 12.55 3.18 15.66a.686.686 20.878 0 0 .97.01m52.449-25.216a6.36 6.04-129.8 0 1 8.711 1.02 6.36 6.04-129.8 0 1-.569 8.752 6.36 6.04-129.8 0 1-8.711-1.02 6.36 6.04-129.8 0 1 .569-8.752" fill="#fdfdfd"/><path d="M233.53 260.22c-3.03-3.11-6.86-11.42-3.18-15.66q2.78-3.19 7.25-.97 4.19 2.08 4.52 6.34c.2 2.55-5.16 7.85-7.62 10.3a.686.686 84.833 0 1-.97-.01m174.53 434.15a.033.02-58.283 0 1 .02-.01c13.18 7.12 27.19 14.08 42.75 18.86q25.21 7.76 50.14 9.86c17.62 1.49 35.91.2 53.25-2.69 35.61-5.95 67.7-21.12 96.21-43.49 4.84-3.8 9.25-8.34 14.14-12.48q2.19-1.84 5.38-5.3 14.66-15.91 23.76-29.64 6.55-9.9 13.71-24.29 10.06-20.24 15.87-44.96c6.94-29.52 7.3-60.34.96-90.27q-2.84-13.42-4.97-19.53-6.67-19.12-8.62-23.12c-3.69-7.61-6.55-14.06-10.37-19.76-2.96-4.44-5.22-9.15-8.59-13.87-12.76-17.86-25.67-32.41-42.68-46.05q-49.1-39.36-112.25-46.74a.567.564 3.19 0 0-.63.56v28.29a.81.8-89.31 0 1-.82.81c-5.5-.11-13.1-1.18-19.74-1.3q-12.22-.2-26.59 1.18a.692.686 87.358 0 1-.75-.69v-27.9a.71.705-3.271 0 0-.79-.7q-10.08 1.14-14.73 2.06-34.43 6.75-64.91 24.3a.424.42-27.125 0 1-.6-.19l-19.41-43.37a.417.417 64.412 0 1 .19-.54c14.08-6.99 25.79-12.67 39.18-17.18 13.6-4.58 27.94-8.7 43.36-11.22q59.1-9.68 116.84 7.1 14.56 4.23 19.13 6.13 2.38.99 18.48 8.13 10.38 4.6 18.04 9.18 15.57 9.31 21.28 13.31 45.83 32.13 76.69 82.14 5.11 8.29 15.76 31.13 2.21 4.75 7.04 18.89 10.88 31.87 13 66.52 3.83 62.71-21 120.24-1.51 3.51-8.46 16.67c-15.4 29.19-35.87 54.87-60.59 75.79q-20.33 17.2-45.81 31.15-16.24 8.89-39.5 16.95c-44.13 15.29-92.3 17.72-138.02 8.52q-12.25-2.47-35.06-9.89-7.3-2.38-17.41-6.99c-10.96-5-16.52-7.51-22.91-10.9a.144.139-64.495 0 1-.06-.18zm3.61-377.8q3.15-1.99 7.95-4.2c18.36-8.46 37.32-14.88 56.96-17.76q9.07-1.34 18.4-2.29a.557.554-3.241 0 1 .62.55v29.05a.4.392 88 0 0 .42.4q16.04-.95 31.78-.04a.581.571 1.433 0 0 .61-.57v-28.98a.41.401-88.667 0 1 .42-.41q28.2 1.63 55.23 10.89 63.75 21.85 105.33 74.02 4 5.02 9.98 13.92 7.21 10.72 9.1 14.36c8.75 16.83 15.59 32.06 20.14 48.69q12.51 45.69 5.3 93.05-3.15 20.67-9.65 38.31-7.74 21-15.57 34.67-17.49 30.53-42.34 53.37c-37.25 34.26-84.58 54.27-135.38 57.46q-16.1 1.01-31.87-.47c-22.94-2.14-43.71-6.49-63.3-14.45q-13.33-5.41-23.79-10.46a.48.479-65.226 0 0-.65.24l-12.85 28.89a.827.827 26.735 0 0 .35 1.06q9.36 5.36 17.18 8.42c8.43 3.3 13.81 5.72 21.03 8.02 33.14 10.6 69.82 15.13 104.67 11.45q17.61-1.85 30.2-4.6c20.72-4.54 43.17-12.48 62.58-22.72q30.87-16.3 56.83-40.26 4.73-4.36 9.84-9.82 7.25-7.74 9.33-10.33 15.16-18.87 22.93-31.87 45.18-75.53 34.41-162.7-1.51-12.19-4.02-22.77-3.36-14.14-5.98-22.34-3.9-12.17-12.17-30.65-3.67-8.19-8.9-16.96-6.53-10.94-10.14-16.37c-17.55-26.44-39.45-48.04-66.21-67.35q-7.83-5.64-19.78-12.37-13.51-7.61-20.66-10.84-14.52-6.55-36.48-13.42c-13.09-4.1-27.64-6.54-40.05-8.04-22.79-2.75-47.09-2.76-69.87 1.39-8.6 1.57-15.83 2.7-22.96 4.58-18.29 4.83-35.41 11.8-52.33 20.1a.99.984 64.786 0 0-.46 1.29l12.77 28.54a.73.728-27.957 0 0 1.05.32" fill="#0471bc"/><path d="M410.62 316.25l-12.77-28.54a.99.984 64.786 0 1 .46-1.29c16.92-8.3 34.04-15.27 52.33-20.1 7.13-1.88 14.36-3.01 22.96-4.58 22.78-4.15 47.08-4.14 69.87-1.39 12.41 1.5 26.96 3.94 40.05 8.04q21.96 6.87 36.48 13.42 7.15 3.23 20.66 10.84 11.95 6.73 19.78 12.37c26.76 19.31 48.66 40.91 66.21 67.35q3.61 5.43 10.14 16.37 5.23 8.77 8.9 16.96 8.27 18.48 12.17 30.65 2.62 8.2 5.98 22.34 2.51 10.58 4.02 22.77 10.77 87.17-34.41 162.7-7.77 13-22.93 31.87-2.08 2.59-9.33 10.33-5.11 5.46-9.84 9.82-25.96 23.96-56.83 40.26c-19.41 10.24-41.86 18.18-62.58 22.72q-12.59 2.75-30.2 4.6c-34.85 3.68-71.53-.85-104.67-11.45-7.22-2.3-12.6-4.72-21.03-8.02q-7.82-3.06-17.18-8.42a.827.827 26.735 0 1-.35-1.06l12.85-28.89a.48.479-65.226 0 1 .65-.24q10.46 5.05 23.79 10.46c19.59 7.96 40.36 12.31 63.3 14.45q15.77 1.48 31.87.47c50.8-3.19 98.13-23.2 135.38-57.46q24.85-22.84 42.34-53.37 7.83-13.67 15.57-34.67 6.5-17.64 9.65-38.31 7.21-47.36-5.3-93.05c-4.55-16.63-11.39-31.86-20.14-48.69q-1.89-3.64-9.1-14.36-5.98-8.9-9.98-13.92-41.58-52.17-105.33-74.02-27.03-9.26-55.23-10.89a.41.401-88.667 0 0-.42.41v28.98a.581.571 1.433 0 1-.61.57q-15.74-.91-31.78.04a.4.392 88 0 1-.42-.4v-29.05a.557.554-3.241 0 0-.62-.55q-9.33.95-18.4 2.29c-19.64 2.88-38.6 9.3-56.96 17.76q-4.8 2.21-7.95 4.2a.73.728-27.957 0 1-1.05-.32m112.52-30.3c18.14 1.13 35.05 3.13 51.88 7.97q54.48 15.7 95.84 54.01 16.03 14.84 31.1 36.11 15.18 21.42 24.04 43.92 6.17 15.69 8.19 23.05 17.67 64.3-1.01 127.57c-1.53 5.2-3.28 9.15-4.85 13.94q-1.3 3.97-4.04 10.28-12.32 28.4-32.26 52.92-3.96 4.87-8.51 9.61-.69.72-8.77 9.39-2.5 2.69-18.87 16.17c-4.94 4.07-9.83 6.91-15.13 10.56q-5.59 3.85-11.77 7.23-18.08 9.9-36.76 16.67-5.17 1.87-9.98 3.14c-7.5 1.99-17.6 4.75-25.45 6.02q-61.98 10-119.57-11.02-6.45-2.36-19.22-8.16-2.64-1.21-3.32-1.36a.368.363 18.109 0 0-.42.21l-8.17 18.37a.528.523-65.189 0 0 .25.69q19.08 9.03 40.79 15.74c9.17 2.83 21.86 5.38 28.87 6.51 29.09 4.7 59.54 4.54 88.51-1.34q13.11-2.67 14.02-2.88 7.53-1.79 21.72-6.65 7.47-2.55 14-5.5 12.74-5.75 13.68-6.22c35.11-17.58 66.63-43.69 89.71-76.01q19.51-27.33 31.23-58.65 11.56-30.89 14-64.9 2.74-38.3-5.16-74.7c-1.67-7.68-4.77-17.14-7.89-26.24q-9.12-26.51-24.83-51.4-16.28-25.81-41.84-49.84c-5.48-5.15-10.23-8.65-16.33-13.67-4.76-3.92-8.77-6.36-12.96-9.43q-4.31-3.16-10.02-6.62-40.86-24.78-87.85-33.04-56.53-9.94-111.38 6.19-19.76 5.82-38.77 14.86a.573.569-24.741 0 0-.28.75l7.84 17.52a.658.653 64.778 0 0 .88.32q19.82-9.51 43.96-15.91 11.53-3.06 20.95-4.11 12.71-1.41 21.23-2.1a.976.973-2.185 0 1 1.05.97v28.67a.47.47-45 0 0 .47.47h19.83a.86.85 0 0 0 .86-.85v-28.76a.473.472 2.249 0 1 .51-.47" fill="#fdfdfd"/><path d="M523.14 285.95a.473.472 2.249 0 0-.51.47v28.76a.86.85 0 0 1-.86.85h-19.83a.47.47-45 0 1-.47-.47v-28.67a.976.973-2.185 0 0-1.05-.97q-8.52.69-21.23 2.1-9.42 1.05-20.95 4.11-24.14 6.4-43.96 15.91a.658.653 64.778 0 1-.88-.32l-7.84-17.52a.573.569-24.741 0 1 .28-.75q19.01-9.04 38.77-14.86 54.85-16.13 111.38-6.19 46.99 8.26 87.85 33.04 5.71 3.46 10.02 6.62c4.19 3.07 8.2 5.51 12.96 9.43 6.1 5.02 10.85 8.52 16.33 13.67q25.56 24.03 41.84 49.84 15.71 24.89 24.83 51.4c3.12 9.1 6.22 18.56 7.89 26.24q7.9 36.4 5.16 74.7-2.44 34.01-14 64.9-11.72 31.32-31.23 58.65c-23.08 32.32-54.6 58.43-89.71 76.01q-.94.47-13.68 6.22-6.53 2.95-14 5.5-14.19 4.86-21.72 6.65-.91.21-14.02 2.88c-28.97 5.88-59.42 6.04-88.51 1.34-7.01-1.13-19.7-3.68-28.87-6.51q-21.71-6.71-40.79-15.74a.528.523-65.189 0 1-.25-.69l8.17-18.37a.368.363 18.109 0 1 .42-.21q.68.15 3.32 1.36 12.77 5.8 19.22 8.16 57.59 21.02 119.57 11.02c7.85-1.27 17.95-4.03 25.45-6.02q4.81-1.27 9.98-3.14 18.68-6.77 36.76-16.67 6.18-3.38 11.77-7.23c5.3-3.65 10.19-6.49 15.13-10.56q16.37-13.48 18.87-16.17 8.08-8.67 8.77-9.39 4.55-4.74 8.51-9.61 19.94-24.52 32.26-52.92 2.74-6.31 4.04-10.28c1.57-4.79 3.32-8.74 4.85-13.94q18.68-63.27 1.01-127.57-2.02-7.36-8.19-23.05-8.86-22.5-24.04-43.92-15.07-21.27-31.1-36.11-41.36-38.31-95.84-54.01c-16.83-4.84-33.74-6.84-51.88-7.97" fill="#0471bc"/><path d="M215.229 313.561a6.81 5.87-147 0 1 8.908-1.214 6.81 5.87-147 0 1 2.514 8.632 6.81 5.87-147 0 1-8.908 1.214 6.81 5.87-147 0 1-2.514-8.632" fill="#fdfdfd"/><path d="M920.59 320.93a.594.592 55.648 0 1 .95.18q10.07 22.12 18.73 46.8 10.01 28.57 16.66 63.85 3.76 19.96 5.91 48.14 1.93 25.38 1.05 48.44-3.06 80.17-33.68 153.87-2.22 5.34-5.58 12.52c-2.73 5.81-4.97 11.59-7.65 16.59q-13.31 24.79-16.17 29.27c-4.47 7-7.71 12.56-12.46 19.57q-14.26 21.05-29.77 39.75-5.43 6.53-8.32 9.53c-6.54 6.74-11.13 12.41-17.94 18.79-4.23 3.96-7.89 8.46-12.69 12.41-4.98 4.09-12.46 11.21-19.42 16.86q-37.39 30.38-77.75 51.4-2.89 1.5-9.53 5-5.18 2.72-9.63 4.78-58.91 27.29-122.94 37.18c-29.01 4.48-57.44 5.52-86.58 4.7q-21.2-.59-47.02-4.36-57.58-8.41-111.24-30.92a.166.163 34.91 0 1-.05-.27l113.57-110.57a.33.33-25.59 0 1 .28-.08c15.22 3.2 30.86 5.84 46.41 6.74q67.22 3.86 127.93-18.19 42.03-15.27 80.4-43.7 5.62-4.16 10.96-8.84c5.11-4.48 9.15-7.43 14.18-12.29q18.28-17.67 28.43-30.17c20.8-25.58 37.85-54.71 49.67-86.61q24.33-65.68 17.84-136.21c-1.87-20.32-5.93-38.7-11.38-58.35a1.413 1.408 60.102 0 1 .37-1.38zm-29.67 244.84a.495.492 13.75 0 0-.36-.59c-10.23-2.61-20.02.14-26.13 8.46-7.99 10.85-8.68 30.27 1.55 39.77 9.04 8.41 24.71 14.89 36.23 11.37q10.16-3.1 14.3-15.56c5.45-16.35 1.91-31.9-14.15-39.98a.477.47 22.322 0 0-.66.27l-4.25 12.5a1.294 1.281-66.755 0 0 .61 1.55q10.46 5.58 7.44 17.18c-1.27 4.91-5.23 9.91-10.73 9.51-7.16-.51-14.93-3.47-19.59-8.24q-4.05-4.13-3.14-10.92c.93-7.04 5.21-11.97 12.28-12.25q1.83-.07 3.22-.19a.742.741 3.141 0 0 .66-.59zm-17.64 61.19c-5.03-1.44-11.38-2.88-16.3-.98q-7.6 2.92-11.97 9.27-5.77 8.39-7.31 17.81c-2.05 12.59 5.58 23.22 16.38 29.68q8.79 5.25 17.2 5.27c17.91.05 27.75-21.9 25.39-36.69q-1.08-6.83-3.79-10.22-3.56-4.46-8.56-7.89a.882.881-61.81 0 0-1.32.4l-4.92 12.57a.649.648-59.963 0 0 .2.75q8.78 6.97 4.51 17.7-4.31 10.85-15.89 6.85c-8.12-2.8-17.75-9.27-15.95-19.05.88-4.76 4.85-11.57 10.15-12.4q2.35-.37 6.4.64a1.003.994 17.804 0 0 1.18-.6l4.89-12.5a.458.452-70.824 0 0-.29-.61m-29.69 58.94q-2.94-1.74-5.48-3.29c-5.86-3.6-11.95-1.2-16.8 2.93-9.96 8.47-18.69 24.8-9.77 36.42 5.57 7.26 14.58 8.76 21.7 2.54q4.52-3.96 8.95-9.06 1.8-2.08 3.24-3.24 3.12-2.51 3.73-2.63 4.36-.85 5.42 3.26c1.24 4.8-1.8 8.3-4.78 12.21q-2.19 2.87-4.01 4.4a3.315 3.308 34.251 0 1-3.18.6l-2.92-1a1.086 1.079 28.424 0 0-1.19.35l-8.16 10.3a.347.335 33.803 0 0 .11.51q4.58 2.54 9.42 3.87c5.65 1.55 13.02-3.68 16.47-7.72 7.41-8.69 15.06-21.55 8.98-32.88-2.72-5.08-7.47-8.96-13.47-8.89-6.6.08-10.8 5.76-15.21 9.81-4.59 4.21-7.42 7.6-10.43 8.57a2.163 2.147 40.021 0 1-.96.08q-3.44-.47-4.12-4.19c-.89-4.91 4.21-11.1 8.07-13.44a2.489 2.467-59.999 0 1 1.32-.36q1.95.03 4.28 1.1a1.23 1.22 31.301 0 0 1.46-.35l7.43-9.37a.361.359 34.463 0 0-.1-.53m-25.17 93.64l-47.37-29.27a.752.75 38.728 0 0-.92.1l-13.69 13.33a1.038 1.034 58.533 0 0-.26 1.09q9.18 25.92 14.04 40.73 3.44 10.48 4.77 16.06a.57.568 61.341 0 0 .95.28l10.37-10.09a.962.954-31.197 0 0 .24-.96l-3.14-10.18a.932.92-31.053 0 1 .24-.94l14.52-14.14a.809.797 38.825 0 1 .99-.1l8.6 5.31a.299.29 37.765 0 0 .36-.04l10.39-10.4a.501.498-51.747 0 0-.09-.78m-72.3 28.61c.02-.26 1.63-2.79 1.95-4q2.2-8.33-3.21-14.63c-6.79-7.91-16.14-1.84-22.12 2.49q-12.06 8.74-23.48 16.1a.621.619 60.45 0 0-.22.8c4.49 9.02 9.26 16.38 13.95 25.14q7.04 13.15 12.1 23.19a.354.351-30.478 0 0 .51.13q3.27-2.2 24.91-17.11c10.29-7.09 16.59-16.02 8.74-28.24q-3.09-4.81-9.5-4.07-2.45.28-3.14.55a.359.353-8.976 0 1-.49-.35m-51.9 32.53c9.92-10.02-.65-28.29-14.8-21.48q-19.66 9.46-32.05 14.59a.859.847 68.72 0 0-.47 1.09l19.12 51.44a.266.265 67.463 0 0 .36.15q18.45-8.18 26.34-11.98 5.49-2.65 9.43-5.53c7.8-5.69 9.83-15.81 3.85-23.67q-3.9-5.13-11.54-4.12a.29.287-71.33 0 1-.24-.49m-44.348 50.886a.72.72 75.32 0 0 .446-.854l-13.529-52.518a.72.72-23.662 0 0-.948-.496l-12.663 4.706a.72.72-53.925 0 0-.446.855l13.539 52.517a.72.72 28.645 0 0 .948.496zM569.24 913.04q17.21-3.21 28.62-6.21 9.23-2.43 14.7-7.51c9.85-9.14 8.89-21.95 5.31-34.13q-2.11-7.2-7.76-11.04c-7.12-4.85-14.67-4.34-23.68-2.25q-9.96 2.31-23.27 4.57a1.089 1.086 81.95 0 0-.9 1.2l6.46 54.98a.448.444-7.882 0 0 .52.39" fill="#0471bc"/><path d="M208.426 325.278a6.72 6.17-144.4 0 1 9.056-1.105 6.72 6.17-144.4 0 1 1.872 8.929 6.72 6.17-144.4 0 1-9.056 1.105 6.72 6.17-144.4 0 1-1.872-8.929m-75.325 15.698l4.508-10.142a.42.42-30.132 0 1 .555-.213l49.752 22.128a.42.42 59.152 0 1 .214.555l-4.509 10.152a.42.42 84.83 0 1-.555.213l-49.752-22.138a.42.42-65.095 0 1-.213-.555M146.32 455.91l1.21-8.7a.293.292-83.344 0 0-.26-.33c-13.51-1.31-23.56-7.71-21.26-22.97q.71-4.72 3.44-7.36c7.32-7.08 16.4-5.32 24.84-1.7a.191.189-67.706 0 0 .26-.11l3.39-9.96a.952.949-71.47 0 0-.6-1.21l-22.87-7.78a.582.572-71.724 0 1-.36-.73l3.6-10.6a.563.553 18.923 0 1 .71-.34l23.15 7.87a.203.199-70.132 0 0 .25-.12l3.94-10.04a.902.893-69.032 0 0-.51-1.16l-40.56-15.9a.552.548-68.483 0 1-.31-.72l4.06-10.38a.6.6-32.793 0 1 .78-.34l50.15 19.65a.979.969-68.857 0 1 .55 1.26q-13.46 35.45-20.37 72.78-1.82 9.85-3.1 22.12a.514.512-86.341 0 1-.52.46q-4.46-.13-6.98-.52-20.76-3.19-46.99-6.58a.564.564-47.854 0 1-.49-.63l1.46-10.53a1.131 1.123 7.984 0 1 1.27-.95l41.77 5.79a.313.313 7.936 0 0 .35-.27m3.83-21.56q.73-1.93.97-4.66c.53-6.09-16.42-8.58-14.81-.63 1.01 4.99 8.68 5.26 13.01 5.79a.784.778-75.822 0 0 .83-.5" fill="#fdfdfd"/><path d="M488.35 425.57a.958.956-8.889 0 0-1.25-.91q-14.52 4.71-27.25 14.14-3.55 2.63-5.8 4.85c-2.75 2.72-5 4.42-7.24 6.98-24.71 28.25-30.35 68.63-13.25 102q12.75 24.88 39.16 38.14 23.98 12.04 51.02 8.64 7.88-1 13.68-2.95c14.62-4.91 26.67-11.04 37.38-21.17q17.36-16.42 24.65-39.67a.474.473-81.04 0 0-.45-.62h-21.36a.773.773 7.015 0 1-.75-.96c2.09-8.49 3.68-14.85 3.96-22.39.28-7.53-1.94-17.2-3.52-24.55a.326.325-5.768 0 1 .32-.39h73.44a.514.512 87.559 0 1 .51.47c.96 13.61 1.51 26.18-.08 39.34q-5.39 44.6-36.21 78.3-4.87 5.32-12.63 12.06c-42.77 37.11-107 43.49-156.63 16.46q-33.84-18.43-54.37-52.99-5.13-8.63-10.24-22.55-4.29-11.69-6.03-23.99-3.83-27.07.95-50.54c5.23-25.75 16.5-48.6 34.17-67.48q12.4-13.25 24.81-21.42c11.8-7.76 25.12-14.09 39.69-18.03q30.05-8.12 60.61-3.55a.584.576 4.698 0 1 .49.57v160.75a.45.44 0 0 1-.45.44h-46.8a.53.53 45 0 1-.53-.53zm7.76 101.68h32.08a.39.39-2.44 0 0 .39-.39V380.18a.343.333-87.224 0 0-.3-.34c-13.04-1.66-26.31-1.29-39.48 1.42q-11.68 2.39-14.3 3.24c-12.48 4-26.32 10.28-37.4 18.37-9.73 7.1-19.18 15.6-26.73 25.27q-27.17 34.76-28.72 78.42-.82 23.2 5.25 42.93 6.43 20.92 19.42 38.65 23.3 31.8 60.28 45.66 31.69 11.87 66.44 6.61 7.11-1.08 16.79-3.9 9.44-2.75 16.23-5.74 11.64-5.13 24.13-14.1 18.92-13.58 32.89-34.61c16.9-25.45 24.02-56.67 21.02-87.15a.797.793 87.21 0 0-.79-.72h-55.73a.59.59-89.506 0 0-.59.58c-.11 5.7 1.65 13.35 1.11 19.52q-.59 6.72-1.29 12.72a.771.766-86.661 0 0 .76.86h20.22a.7.695 5.143 0 1 .69.82c-2.15 11.97-6.77 23.64-13.66 33.74q-5.56 8.15-7.26 10.15c-21.29 24.98-52.57 37.28-85.08 34.22-15.07-1.42-31.81-7.13-44.99-16.29q-15.23-10.58-25.08-25.14c-11.31-16.73-17.4-38.38-16.12-59.24q1.57-25.5 15.25-47.59 12.22-19.74 31.72-31.23 15.07-8.88 31.74-12.26a.489.48-5.465 0 1 .58.47v111.2a.53.53-8.201 0 0 .53.53" fill="#0471bc"/><path d="M120.048 380.582a6.57 5.26-167 0 1 7.585-3.647 6.57 5.26-167 0 1 5.219 6.603 6.57 5.26-167 0 1-7.585 3.647 6.57 5.26-167 0 1-5.219-6.603M496.11 527.25a.53.53 25.156 0 1-.53-.53v-111.2a.489.48-5.465 0 0-.58-.47q-16.67 3.38-31.74 12.26-19.5 11.49-31.72 31.23-13.68 22.09-15.25 47.59c-1.28 20.86 4.81 42.51 16.12 59.24q9.85 14.56 25.08 25.14c13.18 9.16 29.92 14.87 44.99 16.29 32.51 3.06 63.79-9.24 85.08-34.22q1.7-2 7.26-10.15c6.89-10.1 11.51-21.77 13.66-33.74a.7.695 5.143 0 0-.69-.82h-20.22a.771.766-86.661 0 1-.76-.86q.7-6 1.29-12.72c.54-6.17-1.22-13.82-1.11-19.52a.59.59-89.506 0 1 .59-.58h55.73a.797.793 87.21 0 1 .79.72c3 30.48-4.12 61.7-21.02 87.15q-13.97 21.03-32.89 34.61-12.49 8.97-24.13 14.1-6.79 2.99-16.23 5.74-9.68 2.82-16.79 3.9-34.75 5.26-66.44-6.61-36.98-13.86-60.28-45.66-12.99-17.73-19.42-38.65-6.07-19.73-5.25-42.93 1.55-43.66 28.72-78.42c7.55-9.67 17-18.17 26.73-25.27 11.08-8.09 24.92-14.37 37.4-18.37q2.62-.85 14.3-3.24c13.17-2.71 26.44-3.08 39.48-1.42a.343.333-87.224 0 1 .3.34v146.68a.39.39 35.537 0 1-.39.39zm26.31-141.81c-9.94-.29-20.48-.14-30.77 1.86-12.95 2.52-26.13 6.16-37.11 12.33q-12.6 7.07-20.65 13.76c-24.76 20.57-40.78 49.22-44.93 81.22-2.57 19.79-.82 41.38 6.23 59.48 2.09 5.35 5.12 12.69 8.2 17.99q11.91 20.49 30.13 35.63c30.21 25.1 69.97 33.3 108.38 24.47 34.65-7.97 64.82-31.77 81.42-62.93q16.95-31.83 14.73-68.86a.08.08-84.143 0 0-.08-.08h-43.74a.46.45-89.349 0 0-.45.45l-.6 20.41a.671.67-89.17 0 0 .67.69H615a.47.47 89.377 0 1 .47.46q.13 4.16-1.14 9.51-5.97 25.2-22.64 45.33c-8.16 9.86-19.01 18.46-30.76 24.52-37.98 19.61-82.01 15.12-115.08-12-8.99-7.37-18.03-17.6-23.5-28.59q-3.63-7.3-4.37-9.09c-12.81-31-10.23-66.11 7.15-94.86q16.79-27.77 46.43-41.05 14.25-6.39 29.31-8.07a.589.585-3.481 0 1 .66.58v112.03a.6.6 11.262 0 0 .6.6h20.13a.41.41-2.468 0 0 .41-.41V385.7a.26.26 1.146 0 0-.25-.26m-416.244-1.053a6.09 5.12-174.7 0 1 6.537-4.535 6.09 5.12-174.7 0 1 5.591 5.661 6.09 5.12-174.7 0 1-6.537 4.535 6.09 5.12-174.7 0 1-5.591-5.661" fill="#fdfdfd"/><path d="M522.42 385.44a.26.26 1.146 0 1 .25.26v135.12a.41.41 35.532 0 1-.41.41h-20.13a.6.6 36.833 0 1-.6-.6V408.6a.589.585-3.481 0 0-.66-.58q-15.06 1.68-29.31 8.07-29.64 13.28-46.43 41.05c-17.38 28.75-19.96 63.86-7.15 94.86q.74 1.79 4.37 9.09c5.47 10.99 14.51 21.22 23.5 28.59 33.07 27.12 77.1 31.61 115.08 12 11.75-6.06 22.6-14.66 30.76-24.52q16.67-20.13 22.64-45.33 1.27-5.35 1.14-9.51a.47.47 89.377 0 0-.47-.46h-21.15a.671.67-89.17 0 1-.67-.69l.6-20.41a.46.45-89.349 0 1 .45-.45h43.74a.08.08-60.18 0 1 .08.08q2.22 37.03-14.73 68.86c-16.6 31.16-46.77 54.96-81.42 62.93-38.41 8.83-78.17.63-108.38-24.47q-18.22-15.14-30.13-35.63c-3.08-5.3-6.11-12.64-8.2-17.99-7.05-18.1-8.8-39.69-6.23-59.48 4.15-32 20.17-60.65 44.93-81.22q8.05-6.69 20.65-13.76c10.98-6.17 24.16-9.81 37.11-12.33 10.29-2 20.83-2.15 30.77-1.86" fill="#0471bc"/><path d="M117.323 393.107a6.33 5.43-165.8 0 1 7.469-3.711 6.33 5.43-165.8 0 1 4.805 6.817 6.33 5.43-165.8 0 1-7.469 3.711 6.33 5.43-165.8 0 1-4.805-6.817m-6.489 21.144a6.65 5.92-163.5 0 1 8.057-3.787 6.65 5.92-163.5 0 1 4.695 7.565 6.65 5.92-163.5 0 1-8.057 3.787 6.65 5.92-163.5 0 1-4.695-7.565m-2.547 13.981a6.25 5.95-171 0 1 7.104-4.899 6.25 5.95-171 0 1 5.242 6.855 6.25 5.95-171 0 1-7.104 4.899 6.25 5.95-171 0 1-5.242-6.855" fill="#fdfdfd"/><path d="M149.32 434.85c-4.33-.53-12-.8-13.01-5.79-1.61-7.95 15.34-5.46 14.81.63q-.24 2.73-.97 4.66a.784.778-75.822 0 1-.83.5" fill="#0471bc"/><path d="M141.92 509.13q-7.23 1-10.92.39c-10.6-1.73-14.82-9.99-13.65-19.97 1.22-10.49 9.28-12.78 19.26-12.77q10 0 18.17.41a.783.781-86.819 0 1 .75.84q-1.92 25.84-1.65 49.16a.563.563-2.206 0 1-.52.56c-10 .72-17.68 1.24-24.42 2.68a1.823 1.819 80.569 0 0-1.42 1.99l.5 4.26a1.2 1.2 86.731 0 0 1.33 1.05l24.21-2.84a.663.654 83.568 0 1 .73.59c1.06 10.25 1.89 14.14 1.25 21.54-1.6 18.52-17.38 23.32-33.28 21.31a.841.827 89.944 0 1-.72-.73l-1.38-11.74a.315.315 3.866 0 1 .39-.34q7.18 1.76 14.18.49c8.72-1.57 10.16-10.57 8.32-17.78a.732.726-9.887 0 0-.79-.55l-22.71 2.67a1.078 1.071-7.089 0 1-1.19-.92q-1.44-10.8-1.63-11.93c-1.53-8.75 1.37-16.72 10.78-18.79q3.02-.67 13.67-1.93a.402.4-.906 0 0 .35-.36l.66-7.03a.24.24-.968 0 0-.27-.26m.66-20.86q-8.25-.01-11.5.48-1.96.3-2.7 1.87c-2.22 4.72 1.85 7.67 6.15 7.52q4.28-.14 7.38-1.7a1.086 1.069 81.196 0 0 .59-.82l.89-6.43a.817.807 3.974 0 0-.81-.92m-29.631 3.282a6.57 6.25-1.2 0 1-6.438 6.387 6.57 6.25-1.2 0 1-6.7-6.111 6.57 6.25-1.2 0 1 6.438-6.387 6.57 6.25-1.2 0 1 6.7 6.111" fill="#fdfdfd"/><path d="M143.39 489.19l-.89 6.43a1.086 1.069 81.196 0 1-.59.82q-3.1 1.56-7.38 1.7c-4.3.15-8.37-2.8-6.15-7.52q.74-1.57 2.7-1.87 3.25-.49 11.5-.48a.817.807 3.974 0 1 .81.92" fill="#0471bc"/><path d="M173.136 544.533a6.79 6.17-10.5 0 1-5.552 7.304 6.79 6.17-10.5 0 1-7.8-4.83 6.79 6.17-10.5 0 1 5.552-7.304 6.79 6.17-10.5 0 1 7.8 4.83" fill="#fdfdfd"/><path d="M500.1 567.56a.9.897-12.339 0 0-1.47-.94q-3.09 2.94-9.15 1.64c-7.52-1.62-8.73-11.34-5.42-16.98 2.34-3.99 6.91-5.72 11.62-5.47 8.98.5 11.34 7.87 11.22 15.67-.11 6.98-.41 17.94-9.88 18.81-6.47.59-12.47-.91-13.79-8.16a.611.61 84.871 0 1 .6-.72h5.45a.959.94-14.41 0 1 .83.48c.35.64.52 1.55.94 2.08q2.57 3.26 6.3.37a2.55 2.513 81.187 0 0 .85-1.18zm-5.384-16.73a6.28 5.28-89.4 0 0-5.346 6.225 6.28 5.28-89.4 0 0 5.214 6.335 6.28 5.28-89.4 0 0 5.346-6.225 6.28 5.28-89.4 0 0-5.214-6.335m23.374 7.48a.994.989 80.307 0 0 1.49 1.06q2.89-1.8 8.47-.9c6.05.97 7.41 7.18 6.79 12.41q-.72 6.06-6.04 8.62c-4.46 2.15-11.32 1.2-14.48-3.01q-2.43-3.23-2.87-7.25c-.75-6.9-1.16-19.96 7.09-22.63q12-3.87 16.24 7.54a.996.99-7.41 0 1-1.03 1.33l-5-.47a1.839 1.831 84.406 0 1-1.6-1.32q-.82-2.8-4.95-2.4a3.611 3.61-86.457 0 0-3.18 2.81zm5.632 4.195a6.5 4.88-86.1 0 0-5.311 6.153 6.5 4.88-86.1 0 0 4.427 6.817 6.5 4.88-86.1 0 0 5.311-6.153 6.5 4.88-86.1 0 0-4.427-6.817m-53.502-8.295a.401.397-10.27 0 0-.54-.37l-6.77 2.51a.362.362 76.417 0 1-.49-.3l-.45-3.79a.853.85 78.058 0 1 .59-.91q4.07-1.29 8.1-4.5a1.62 1.555 21.55 0 1 .83-.34l4.6-.54a.776.773 86.41 0 1 .87.77v32.08a1.05 1.05-45 0 1-1.05 1.05h-4.82a.87.87-56.695 0 1-.87-.87zm68.616-2.302l-.613-5.16a.32.32-53.297 0 1 .317-.358h22.791a.32.32-75.631 0 1 .319.329l-.128 4.448a.3.3 10.487 0 1-.028.121l-12.617 28.346a.32.32 36.968 0 1-.301.19l-6.329-.18a.32.32-42.58 0 1-.283-.45l11.816-26.554a.32.32 18.709 0 0-.293-.45h-14.333a.32.32.545 0 1-.318-.282" fill="#0471bc"/><path d="M494.716 550.83a6.28 5.28-89.4 0 1 5.214 6.335 6.28 5.28-89.4 0 1-5.346 6.225 6.28 5.28-89.4 0 1-5.214-6.335 6.28 5.28-89.4 0 1 5.346-6.225m-333.966 8.992a6.62 6.02-180.1 0 1 6.609-6.032 6.62 6.02-180.1 0 1 6.631 6.008 6.62 6.02-180.1 0 1-6.609 6.032 6.62 6.02-180.1 0 1-6.631-6.008m362.972 2.683a6.5 4.88-86.1 0 1 4.427 6.817 6.5 4.88-86.1 0 1-5.311 6.153 6.5 4.88-86.1 0 1-4.427-6.817 6.5 4.88-86.1 0 1 5.311-6.153m367.198 3.265l-2.72 12.29a.742.741 3.141 0 1-.66.59q-1.39.12-3.22.19c-7.07.28-11.35 5.21-12.28 12.25q-.91 6.79 3.14 10.92c4.66 4.77 12.43 7.73 19.59 8.24 5.5.4 9.46-4.6 10.73-9.51q3.02-11.6-7.44-17.18a1.294 1.281-66.755 0 1-.61-1.55l4.25-12.5a.477.47 22.322 0 1 .66-.27c16.06 8.08 19.6 23.63 14.15 39.98q-4.14 12.46-14.3 15.56c-11.52 3.52-27.19-2.96-36.23-11.37-10.23-9.5-9.54-28.92-1.55-39.77 6.11-8.32 15.9-11.07 26.13-8.46a.495.492 13.75 0 1 .36.59m-17.64 61.19a.458.452-70.824 0 1 .29.61l-4.89 12.5a1.003.994 17.804 0 1-1.18.6q-4.05-1.01-6.4-.64c-5.3.83-9.27 7.64-10.15 12.4-1.8 9.78 7.83 16.25 15.95 19.05q11.58 4 15.89-6.85 4.27-10.73-4.51-17.7a.649.648-59.963 0 1-.2-.75l4.92-12.57a.882.881-61.81 0 1 1.32-.4q5 3.43 8.56 7.89 2.71 3.39 3.79 10.22c2.36 14.79-7.48 36.74-25.39 36.69q-8.41-.02-17.2-5.27c-10.8-6.46-18.43-17.09-16.38-29.68q1.54-9.42 7.31-17.81 4.37-6.35 11.97-9.27c4.92-1.9 11.27-.46 16.3.98" fill="#fdfdfd"/><path d="M165.74 799.31q-4.44-5.04-6.02-7.03c-12.51-15.65-23.99-30.82-33.7-47.57a.689.683 53.373 0 1 .12-.84l105-102.23a.36.357 54.706 0 1 .57.1q5.55 11.27 10.63 20.2 11.64 20.45 25.15 37.87a1.025 1.017-41.021 0 1-.1 1.36l-100.83 98.17a.574.566 46.722 0 1-.82-.03m346.494-138.446c8.2-.009 16.441-1.158 23.204-1.837a.645.641 87.283 0 1 .702.643v49.38a.492.484-89.537 0 1-.492.492q-14.767-.169-23.365-.16t-23.364.208a.492.484 89.419 0 1-.493-.491l-.101-49.38a.645.641-87.4 0 1 .701-.644c6.764.664 15.007 1.797 23.208 1.789m-.163 41.445q2.412.007 15.976.026a.525.518-89.713 0 0 .523-.525v-34.45a.367.365 88.306 0 0-.387-.367q-8.762.578-16.019.559-7.258-.02-16.017-.644a.367.365-88.002 0 0-.389.365l-.182 34.449a.525.518-89.983 0 0 .52.528q13.563.053 15.975.059" fill="#0471bc"/><path d="M512.164 667.552q7.257.019 16.019-.559a.367.365 88.306 0 1 .387.367v34.45a.525.518-89.713 0 1-.523.525q-13.564-.019-15.976-.026t-15.975-.059a.525.518-89.983 0 1-.52-.528l.182-34.449a.367.365-88.002 0 1 .389-.365q8.759.624 16.017.644m10.496 6.498a.53.53 0 0 0-.53-.53h-19.96a.53.53 0 0 0-.53.53v21.68a.53.53 0 0 0 .53.53h19.96a.53.53 0 0 0 .53-.53z" fill="#fdfdfd"/><path d="M522.66 695.73a.53.53 0 0 1-.53.53h-19.96a.53.53 0 0 1-.53-.53v-21.68a.53.53 0 0 1 .53-.53h19.96a.53.53 0 0 1 .53.53z" fill="#0471bc"/><path d="M843.59 685.9a.361.359 34.463 0 1 .1.53l-7.43 9.37a1.23 1.22 31.301 0 1-1.46.35q-2.33-1.07-4.28-1.1a2.489 2.467-59.999 0 0-1.32.36c-3.86 2.34-8.96 8.53-8.07 13.44q.68 3.72 4.12 4.19a2.163 2.147 40.021 0 0 .96-.08c3.01-.97 5.84-4.36 10.43-8.57 4.41-4.05 8.61-9.73 15.21-9.81 6-.07 10.75 3.81 13.47 8.89 6.08 11.33-1.57 24.19-8.98 32.88-3.45 4.04-10.82 9.27-16.47 7.72q-4.84-1.33-9.42-3.87a.347.335 33.803 0 1-.11-.51l8.16-10.3a1.086 1.079 28.424 0 1 1.19-.35l2.92 1a3.315 3.308 34.251 0 0 3.18-.6q1.82-1.53 4.01-4.4c2.98-3.91 6.02-7.41 4.78-12.21q-1.06-4.11-5.42-3.26-.61.12-3.73 2.63-1.44 1.16-3.24 3.24-4.43 5.1-8.95 9.06c-7.12 6.22-16.13 4.72-21.7-2.54-8.92-11.62-.19-27.95 9.77-36.42 4.85-4.13 10.94-6.53 16.8-2.93q2.54 1.55 5.48 3.29" fill="#fdfdfd"/><path d="M373.18 786.74a.282.279-52.927 0 1 .06.45L268.76 888.91a.34.32-50.408 0 1-.4.05q-4.61-2.74-6.86-4.21-26.17-17.21-49.28-37.37a.925.923 43.384 0 1-.04-1.36l101.47-98.79a.42.411 43.366 0 1 .56-.01c17.58 15.17 37.96 28.37 58.97 39.52" fill="#0471bc"/><path d="M818.42 779.54a.501.498-51.747 0 1 .09.78l-10.39 10.4a.299.29 37.765 0 1-.36.04l-8.6-5.31a.809.797 38.825 0 0-.99.1l-14.52 14.14a.932.92-31.053 0 0-.24.94l3.14 10.18a.962.954-31.197 0 1-.24.96l-10.37 10.09a.57.568 61.341 0 1-.95-.28q-1.33-5.58-4.77-16.06-4.86-14.81-14.04-40.73a1.038 1.034 58.533 0 1 .26-1.09l13.69-13.33a.752.75 38.728 0 1 .92-.1zm-48.01-14.11q-.17.34.04.85 4.49 10.61 8.19 20.83a.821.82-29.377 0 0 1.29.36l9.68-7.85a1.009 1.007-48.234 0 0-.09-1.63q-3.63-2.33-12.6-8.15-3.06-1.99-5.86-4.53a.417.412-55.177 0 0-.65.12" fill="#fdfdfd"/><path d="M770.41 765.43a.417.412-55.177 0 1 .65-.12q2.8 2.54 5.86 4.53 8.97 5.82 12.6 8.15a1.009 1.007-48.234 0 1 .09 1.63l-9.68 7.85a.821.82-29.377 0 1-1.29-.36q-3.7-10.22-8.19-20.83-.21-.51-.04-.85" fill="#0471bc"/><path d="M746.61 808.5q.69-.27 3.14-.55 6.41-.74 9.5 4.07c7.85 12.22 1.55 21.15-8.74 28.24q-21.64 14.91-24.91 17.11a.354.351-30.478 0 1-.51-.13q-5.06-10.04-12.1-23.19c-4.69-8.76-9.46-16.12-13.95-25.14a.621.619 60.45 0 1 .22-.8q11.42-7.36 23.48-16.1c5.98-4.33 15.33-10.4 22.12-2.49q5.41 6.3 3.21 14.63c-.32 1.21-1.93 3.74-1.95 4a.359.353-8.976 0 0 .49.35m-29.73 1.95l5.31 8.42a.3.292 57.901 0 0 .41.1c4.95-3.17 10.85-6.58 14.32-11.19a1.913 1.887-21.768 0 0 .35-.8c.91-4.83-3.26-8.59-7.76-5.44q-8.79 6.16-12.45 8.2a.508.507 59.313 0 0-.18.71m16.32 27.95q2.92-2.29 8.17-5.78c4.36-2.89 8.92-6.96 5.21-12.37a2.2 2.167-.441 0 0-.66-.64c-2.52-1.59-6.57.45-8.83 1.99q-5.38 3.64-9.89 6.9a.601.586 56.331 0 0-.15.8l5.68 9.02a.322.321-35.26 0 0 .47.08" fill="#fdfdfd"/><path d="M717.06 809.74q3.66-2.04 12.45-8.2c4.5-3.15 8.67.61 7.76 5.44a1.913 1.887-21.768 0 1-.35.8c-3.47 4.61-9.37 8.02-14.32 11.19a.3.292 57.901 0 1-.41-.1l-5.31-8.42a.508.507 59.313 0 1 .18-.71" fill="#0471bc"/><path d="M694.46 841.17q7.64-1.01 11.54 4.12c5.98 7.86 3.95 17.98-3.85 23.67q-3.94 2.88-9.43 5.53-7.89 3.8-26.34 11.98a.266.265 67.463 0 1-.36-.15l-19.12-51.44a.859.847 68.72 0 1 .47-1.09q12.39-5.13 32.05-14.59c14.15-6.81 24.72 11.46 14.8 21.48a.29.287-71.33 0 0 .24.49m-30.453-1.346l4.05 8.305a.65.65 68.493 0 0 .869.299l11.496-5.607a7.94 4.41-26 0 0 5.203-7.444l-.754-1.546a7.94 4.41-26 0 0-9.07-.483l-11.495 5.607a.65.65-49.976 0 0-.299.869m7.493 19.436l3.62 9.73a.776.772-22.573 0 0 1.05.43q8.27-3.92 14.78-6.91c6.41-2.96 3.62-14.22-4.8-10.61q-4.93 2.11-14.29 6.48a.711.705-22.975 0 0-.36.88" fill="#fdfdfd"/><path d="M733.2 838.4a.322.321-35.26 0 1-.47-.08l-5.68-9.02a.601.586 56.331 0 1 .15-.8q4.51-3.26 9.89-6.9c2.26-1.54 6.31-3.58 8.83-1.99a2.2 2.167-.441 0 1 .66.64c3.71 5.41-.85 9.48-5.21 12.37q-5.25 3.49-8.17 5.78m-69.193 1.424a.65.65 5.073 0 1 .299-.869l11.495-5.607a7.94 4.41-26 0 1 9.07.483l.754 1.546a7.94 4.41-26 0 1-5.203 7.444l-11.496 5.607a.65.65-79.777 0 1-.869-.299z" fill="#0471bc"/><path d="M649.872 891.566l-12.653 4.706a.72.72-62.785 0 1-.948-.496l-13.539-52.517a.72.72-51.694 0 1 .446-.855l12.663-4.706a.72.72 17.198 0 1 .948.496l13.529 52.518a.72.72-71.441 0 1-.446.854M569.24 913.04a.448.444-7.882 0 1-.52-.39l-6.46-54.98a1.089 1.086 81.95 0 1 .9-1.2q13.31-2.26 23.27-4.57c9.01-2.09 16.56-2.6 23.68 2.25q5.65 3.84 7.76 11.04c3.58 12.18 4.54 24.99-5.31 34.13q-5.47 5.08-14.7 7.51-11.41 3-28.62 6.21m8.96-46.99l3.64 30.97a.851.85 80.045 0 0 1.04.73q4.42-1.02 9.95-1.89c8.71-1.38 13.07-7.86 12.27-16.33-.67-7.08-3-17.55-12.61-16.45q-4.92.56-14.15 2.77a.186.182-10.659 0 0-.14.2" fill="#fdfdfd"/><path d="M671.5 859.26a.711.705-22.975 0 1 .36-.88q9.36-4.37 14.29-6.48c8.42-3.61 11.21 7.65 4.8 10.61q-6.51 2.99-14.78 6.91a.776.772-22.573 0 1-1.05-.43zm-93.3 6.79a.186.182-10.659 0 1 .14-.2q9.23-2.21 14.15-2.77c9.61-1.1 11.94 9.37 12.61 16.45.8 8.47-3.56 14.95-12.27 16.33q-5.53.87-9.95 1.89a.851.85 80.045 0 1-1.04-.73z" fill="#0471bc"/></g></svg>