<svg viewBox="132.22 0 535.56 800" xmlns="http://www.w3.org/2000/svg"><path d="M526.33 167.15L400 67.84l-126.33 99.31L400 81.38zM332.07 638.97L400 720.51l67.92-81.54-67.92 63.3zM463.46 426.7L400 361.35l-63.46 65.35L325 416.47l-56.34 58.14q4 6.76 8.2 13.26l53.38-63.12L341 435.69l59-69.88 59 69.88 10.79-10.94 53.37 63.12c2.78-4.34 5.5-8.75 8.2-13.26L475 416.47z" fill="#fff"/><path d="M400 510a41.67 41.67 0 0 0 41.53-38.45l-2.51-1.4 1.89-9.51A41.67 41.67 0 0 0 416.53 430L400 442l-16.52-12a41.65 41.65 0 0 0-24.38 30.65l1.89 9.49-2.51 1.4A41.67 41.67 0 0 0 400 510m0-44.5l16.54 12-6.32 19.45h-20.44l-6.31-19.45zM283.65 307l12.56-3.68c6.72-2 12.21-9.06 12.21-15.77v-58.08c0-6.74-5.49-10.61-12.21-8.66l-12.56 3.68c-6.71 2-12.2 9.08-12.2 15.79v58.12c0 6.71 5.49 10.6 12.2 8.6m-1.18-68.24a5.65 5.65 0 0 1 3.9-5l7.12-2.09a2.83 2.83 0 0 1 3.91 2.77v54.63a5.7 5.7 0 0 1-3.91 5.08l-7.12 2.06a2.82 2.82 0 0 1-3.9-2.75zM388.53 277v-58.14a11.21 11.21 0 0 0-12.21-11.29l-12.55 1a13.4 13.4 0 0 0-12.21 13.11v58.12a11.19 11.19 0 0 0 12.21 11.29l12.55-.95A13.46 13.46 0 0 0 388.53 277m-22 3.84a3.57 3.57 0 0 1-3.9-3.61v-54.67a4.32 4.32 0 0 1 3.9-4.2l7.12-.54a3.58 3.58 0 0 1 3.91 3.6v54.66a4.27 4.27 0 0 1-3.91 4.19zm193.07-39.96l-12.55-5.36c-6.72-2.9-12.21.25-12.21 7v58.08c0 6.71 5.49 14.57 12.21 17.44l12.55 5.36c6.71 2.87 12.21-.29 12.21-7v-58.11c0-6.72-5.5-14.57-12.21-17.41m1.2 69.12c0 2.14-1.76 3.16-3.91 2.23l-7.12-3a6.73 6.73 0 0 1-3.91-5.57v-54.72c0-2.16 1.76-3.15 3.91-2.25l7.12 3.06a6.68 6.68 0 0 1 3.91 5.57zm-299.11-66.14c0-6.71-5.5-9.84-12.21-6.92l-9.08 3.94c-6.72 2.89-12.21 10.76-12.21 17.48v58.11c0 6.71 5.49 9.84 12.21 6.93l9.08-3.94c6.71-2.89 12.21-10.77 12.21-17.48v-5.55l1.65-1.78v-1.12L249 299.72v1.14l1.65.34v3.8a6.8 6.8 0 0 1-3.9 5.6l-3.67 1.59c-2.14.93-3.9-.07-3.9-2.23v-54.64a6.81 6.81 0 0 1 3.9-5.6l3.67-1.59c2.15-.92 3.9.07 3.9 2.23v7.1l-1.65 1.77v1.14l14.32-6.21V253l-1.65-.33zm81.76 37.93l-1.13.19-1.05 1.85-12.08 2.18v-70.3l1.66-1.35v-1.14l-14.33 2.61v1.14l1.65.73v78.16l-1.65 1.35v1.14l26.93-4.89zm183.29 15.75V239.4c0-6.68-5.5-13.66-12.21-15.46l-26.4-7.07V218l1.64 1.49v78.18l-1.64.59v1.14l26.4 7.07c6.71 1.79 12.21-2.24 12.21-8.93m-14.92-1.82l-11-3V230.3l11 2.94a5.48 5.48 0 0 1 3.9 5v54.65a2.91 2.91 0 0 1-3.9 2.83m-76.73-5.89l-2.44-1.66-9.09-31.07a11.66 11.66 0 0 0 8.23-11.2v-25.4a12.85 12.85 0 0 0-12.21-12.69l-22.95-.93V208l1.66 1.12v78.15l-1.66 1v1.14l14.33.14v-1.14l-1.66-1.11v-30.11l3.45.17 9.55 32.69 12.79.92zm-14.32-46.11a3.72 3.72 0 0 1-3.91 3.75l-7.56-.29v-29.74l7.56.31a4.08 4.08 0 0 1 3.91 4.05zm44.92 50.05v1.14l14.33 2.7v-1.14l-1.66-1.3V227a14.89 14.89 0 0 0-12.21-14.13l-9.09-1.45c-6.71-1.07-12.2 3.56-12.2 10.27v68.15l-1.66.78v1.14l14.32 1.82v-1.13l-1.65-1.31v-27.61l11.47 1.82V293zm-9.82-40.28V225.2a3.27 3.27 0 0 1 3.91-3.3l3.66.59a4.75 4.75 0 0 1 3.9 4.53v28.3zm-32.33 64.31v-.57h-9.78v.57c.73 0 1.33.38 1.33.85v22.11c0 .45-.6.85-1.33.85v.57h9.78v-.57c-.74 0-1.33-.4-1.33-.85v-22.11c0-.47.59-.85 1.33-.85m12.92 23.81v.57h16c6.89 0 12.48-4.2 12.48-12.47s-5.59-12.48-12.48-12.48h-16v.57c.74 0 1.33.38 1.33.85v22.11c0 .45-.59.85-1.33.85m8.45-18.78H451c3.81 0 6.88 1.85 6.88 6.88s-3.07 6.87-6.88 6.87h-6.07zm-50.15 10.79a8.2 8.2 0 0 0 0-16.39h-17.85v.57c.73 0 1.33.38 1.33.85v22.11c0 .45-.6.85-1.33.85v.57h9.78v-.57c-.73 0-1.33-.4-1.33-.85v-7.14zm-9.4-10.79h7.87a2.6 2.6 0 1 1 0 5.19h-7.87zm-59.08 2.58a8.18 8.18 0 0 0-8.2-8.18H299v.57c.74 0 1.33.38 1.33.85v22.11c0 .45-.59.85-1.33.85v.57h9.78v-.57c-.74 0-1.33-.4-1.33-.85v-7.14h4.78l5 7.14c.32.45 0 .85-.73.85v.57h9.77v-.57a2.66 2.66 0 0 1-1.92-.85l-5.1-7.21a8.23 8.23 0 0 0 7.03-8.14m-9.72 2.59h-9.14v-5.19h9.14a2.6 2.6 0 1 1 0 5.19m41.16 13.61v.57h8.64v-.64a1.62 1.62 0 0 1-1.13-.78l-8.42-22.11c-.19-.47.26-.85 1-.85v-.57h-13.25v.57c.74 0 1.19.38 1 .85l-8.43 22.11a1.58 1.58 0 0 1-1.12.78v.64h8.64v-.57c-.74 0-1.19-.4-1-.85l1.59-4.18h11.89l1.59 4.18c.19.45-.27.85-1 .85M346.61 333l4.57-12 4.58 12zm130.49-.59l-3.5 8.44.57.15s.45-.62.94-.62c1.46 0 3.66 2 12.8 2 6.26 0 13.12-1.64 13.12-8.44 0-10.58-19.11-5.91-19.11-9.66 0-1.73 3-2.47 4.94-2.47 6.7 0 10.5 1.69 9.9 3l.57.28 3.27-6.64-.51-.19a1.48 1.48 0 0 1-1.28.74c-.91 0-6.2-2-11.95-2-6.2 0-12.07 2.8-12.07 7.33 0 10.58 19.12 5.39 19.12 9.66 0 2-2 2.84-6 2.84-9.13 0-10.86-2.92-10.32-4.17z" fill="#fff"/><g fill="#c1c5c8"><path d="M400 0L132.22 225.74C132.22 412.77 249.08 654 400 800c150.91-146 267.78-387.23 267.78-574.26zm0 775.71c-144.69-146-249-369.34-251.78-542.88C159 223.75 381.65 36.05 400 20.56c18.36 15.49 241 203.19 251.78 212.27C649 406.37 544.7 629.71 400 775.71"/><path d="M400 101.59L181 244.91c9 205.7 147 369.55 219 441.59 72-72 210-235.89 219-441.59zm0 565.79c-61.82-62.1-175.66-197.89-201.57-368.75a470 470 0 0 1-4.93-50.14L400 113.14l206.51 135.35a476 476 0 0 1-4.93 50.14C575.66 469.49 461.81 605.28 400 667.38"/><path d="M385.84 567.69c-2.5 0-4.53 1.37-4.53 3s2 3.06 4.53 3.06 4.52-1.35 4.52-3.06-2.02-3-4.52-3"/><path d="M330.2 424.75l-53.38 63.12c37.57 58.66 81.37 102 123.17 132.33V548a63.11 63.11 0 0 1 0-126.21v-55.98l-59 69.88zm54.47 156.79c6.78 0 7.08-5.72 7.08-5.72A16.7 16.7 0 0 1 384 578c-4.53 0-8-3-8-7.24 0-4.88 5-7.21 9.83-7.21 7.69 0 11.42 4 11.42 11 0 7.14-6.2 11-12.59 11a22.1 22.1 0 0 1-7.52-1.28 1.38 1.38 0 0 0-.93.45l-.51-.22 3.25-5.5.42.19c-.2 1 .92 2.35 5.3 2.35"/></g><path d="M400 56.29L163.52 238.12C173.18 443 318.48 653 400 734.41 481.52 653 626.81 443 636.48 238.12zm0 11.55l126.34 99.31L400 81.38l-126.33 85.77zm0 33.75l219 143.32c-9 205.7-147 369.55-219 441.59-72-72-210-235.89-218.95-441.59zm0 618.92L332.07 639 400 702.27 467.92 639z" fill="#8ab7e9"/><path d="M414.16 581.3c2.49 0 4.52-1.37 4.52-3.06s-2-3-4.52-3-4.53 1.35-4.53 3 2.03 3.06 4.53 3.06" fill="#8ab7e9"/><path d="M463.1 484.86A63.11 63.11 0 0 1 400 548v72.2c41.82-30.33 85.62-73.67 123.18-132.33l-53.38-63.12-10.8 10.94-59-69.88v55.93a63.11 63.11 0 0 1 63.1 63.12m-47.78 82.57c-6.77 0-7.07 5.71-7.07 5.71A16.8 16.8 0 0 1 416 571c4.54 0 8 3 8 7.21 0 4.89-5 7.24-9.82 7.24-7.68 0-11.43-4.06-11.43-11 0-7.17 6.21-11 12.59-11a22.1 22.1 0 0 1 7.52 1.28 1.42 1.42 0 0 0 .94-.45l.5.22-3.25 5.5-.41-.21c.18-.99-.93-2.36-5.32-2.36" fill="#8ab7e9"/><path d="M454.72 478.38A54.72 54.72 0 1 0 400 533.13a54.72 54.72 0 0 0 54.72-54.75m-96.25-6.85l-8 4.46v-1.36a49.27 49.27 0 0 1 6.5-24.55l2.09 10.56A41.65 41.65 0 0 1 383.47 430l.75-2.3a49.9 49.9 0 0 1 31.56 0l.75 2.3a41.67 41.67 0 0 1 24.37 30.63l2.1-10.55a49.3 49.3 0 0 1 6.51 24.55v1.36l-8-4.46a41.65 41.65 0 0 1-83 0z" fill="#8ab7e9"/><path d="M400 548a63.11 63.11 0 1 0-63.09-63.09A63.11 63.11 0 0 0 400 548m0-124.29a54.74 54.74 0 1 1-54.71 54.72A54.72 54.72 0 0 1 400 423.66z" fill="#323e48"/><path d="M531.37 474.61c-2.7 4.51-5.42 8.92-8.2 13.26-37.56 58.66-81.36 102-123.18 132.33-41.8-30.33-85.6-73.67-123.17-132.33q-4.15-6.51-8.2-13.26c-29.11-48.46-53.91-106.72-70.2-176C224.33 469.49 338.17 605.28 400 667.38c61.82-62.1 175.67-197.89 201.59-368.75-16.3 69.26-41.1 127.52-70.22 175.98" fill="#323e48"/><path d="M400 20.56c-18.35 15.49-241 203.19-251.79 212.27C151 406.37 255.3 629.71 400 775.71c144.71-146 249-369.34 251.78-542.88C641 223.75 418.35 36.05 400 20.56M163.52 238.12L400 56.29l236.48 181.83C626.81 443 481.52 653 400 734.41 318.48 653 173.18 443 163.52 238.12" fill="#8a2432"/><path d="M316.56 322.83h-9.14V328h9.14a2.6 2.6 0 1 0 0-5.19zm240.33-73.08l-7.12-3.06c-2.15-.9-3.91.09-3.91 2.25v54.65a6.73 6.73 0 0 0 3.91 5.57l7.12 3c2.15.93 3.91-.09 3.91-2.23v-54.61a6.68 6.68 0 0 0-3.91-5.57m-263.4-18.1l-7.12 2.09a5.65 5.65 0 0 0-3.9 5v54.65a2.82 2.82 0 0 0 3.9 2.75l7.12-2.06a5.7 5.7 0 0 0 3.91-5.08v-54.58a2.83 2.83 0 0 0-3.91-2.77m218.33 1.59l-11-2.94v62.45l11 3a2.91 2.91 0 0 0 3.9-2.87V238.2a5.48 5.48 0 0 0-3.9-4.96m-118.59 89.59h-7.87V328h7.87a2.6 2.6 0 1 0 0-5.19z" fill="#8a2432"/><path d="M400 113.14L193.49 248.49a470 470 0 0 0 4.93 50.14c16.29 69.26 41.09 127.52 70.2 176L325 416.47l11.58 10.23L400 361.35l63.47 65.35L475 416.47l56.34 58.14c29.12-48.46 53.92-106.72 70.21-176a476 476 0 0 0 4.93-50.14zm-136.65 141L249 260.37v-1.14l1.65-1.77v-7.1c0-2.16-1.75-3.15-3.9-2.23l-3.67 1.59a6.81 6.81 0 0 0-3.9 5.6V310c0 2.16 1.76 3.16 3.9 2.23l3.67-1.59a6.8 6.8 0 0 0 3.9-5.6v-3.84l-1.65-.34v-1.14l14.32-6.19v1.12l-1.65 1.78V302c0 6.71-5.5 14.59-12.21 17.48l-9.08 3.94c-6.72 2.91-12.21-.22-12.21-6.93v-58.13c0-6.72 5.49-14.59 12.21-17.48l9.08-3.94c6.71-2.92 12.21.21 12.21 6.92v8.83l1.65.33zm53.18 43l1.65-1.35V217.7l-1.65-.73v-1.14l14.32-2.61v1.14l-1.65 1.35V286l12.08-2.18 1.05-1.85 1.13-.19v11.67l-26.93 4.89zM283.65 307c-6.71 2-12.2-1.92-12.2-8.63v-58.09c0-6.71 5.49-13.83 12.2-15.79l12.56-3.68c6.72-1.95 12.21 1.92 12.21 8.66v58.11c0 6.71-5.49 13.8-12.21 15.77zm40.71 33.73a2.66 2.66 0 0 0 1.92.85v.57h-9.77v-.57c.73 0 1.05-.4.73-.85l-5-7.14h-4.78v7.14c0 .45.59.85 1.33.85v.57H299v-.57c.74 0 1.33-.4 1.33-.85v-22.08c0-.47-.59-.85-1.33-.85v-.57h19.11a8.2 8.2 0 0 1 1.18 16.32zm42 1.42h-8.64v-.57c.73 0 1.19-.4 1-.85l-1.59-4.18h-11.89l-1.59 4.18c-.18.45.27.85 1 .85v.57H336v-.64a1.58 1.58 0 0 0 1.12-.78l8.43-22.11c.18-.47-.27-.85-1-.85v-.57h13.25v.57c-.74 0-1.19.38-1 .85l8.42 22.11a1.62 1.62 0 0 0 1.13.78zm-2.59-51.11a11.19 11.19 0 0 1-12.21-11.29v-58.09a13.4 13.4 0 0 1 12.21-13.11l12.55-1a11.21 11.21 0 0 1 12.21 11.29V277a13.46 13.46 0 0 1-12.21 13.14zm31 42.55h-9.4v7.14c0 .45.6.85 1.33.85v.57h-9.78v-.57c.73 0 1.33-.4 1.33-.85v-22.08c0-.47-.6-.85-1.33-.85v-.57h17.85a8.2 8.2 0 0 1 0 16.39zm28.78-15.82c-.74 0-1.33.38-1.33.85v22.11c0 .45.59.85 1.33.85v.57h-9.78v-.57c.73 0 1.33-.4 1.33-.85v-22.08c0-.47-.6-.85-1.33-.85v-.57h9.78zM435.09 291l-12.79-.92-9.55-32.69-3.45-.17v30.13l1.66 1.11v1.14l-14.33-.14v-1.14l1.66-1v-78.18l-1.66-1.14v-1.14l22.95.93a12.85 12.85 0 0 1 12.21 12.69v25.4a11.66 11.66 0 0 1-8.23 11.2l9.09 31.07 2.44 1.66zm17.41 51.21h-16v-.57c.74 0 1.33-.4 1.33-.85v-22.14c0-.47-.59-.85-1.33-.85v-.57h16c6.89 0 12.48 4.2 12.48 12.48s-5.59 12.47-12.48 12.47zm3.37-78.65v27.63l1.65 1.31v1.13l-14.32-1.82v-1.14l1.66-.78v-68.18c0-6.71 5.49-11.34 12.2-10.27l9.09 1.45A14.89 14.89 0 0 1 478.36 227v68.15l1.66 1.3v1.14l-14.33-2.7v-1.14l1.65-.78v-27.62zm32 78.89c-9.14 0-11.34-2-12.8-2-.49 0-.94.62-.94.62l-.57-.15 3.5-8.44.49.24c-.54 1.25 1.19 4.17 10.32 4.17 4 0 6-.85 6-2.84 0-4.27-19.12.92-19.12-9.66 0-4.53 5.87-7.33 12.07-7.33 5.75 0 11 2 11.95 2a1.48 1.48 0 0 0 1.28-.74l.51.19-3.27 6.64-.57-.28c.6-1.28-3.2-3-9.9-3-1.95 0-4.94.74-4.94 2.47 0 3.75 19.11-.92 19.11 9.66.01 6.78-6.82 8.42-13.08 8.42zm38.83-44.88c0 6.69-5.5 10.72-12.21 8.92l-26.4-7.07v-1.14l1.64-.59v-78.21l-1.6-1.48v-1.12l26.4 7.07c6.71 1.8 12.21 8.78 12.21 15.46zm45.07 18.86c0 6.71-5.5 9.87-12.21 7L547.05 318c-6.72-2.87-12.21-10.73-12.21-17.44v-58.07c0-6.72 5.49-9.87 12.21-7l12.55 5.36c6.71 2.84 12.21 10.69 12.21 17.41z" fill="#8a2432"/><path d="M346.61 332.98h9.15l-4.58-12zm70.25-115.23l-7.56-.31v29.74l7.56.29a3.72 3.72 0 0 0 3.91-3.75V221.8a4.08 4.08 0 0 0-3.91-4.05m-43.26.07l-7.12.54a4.32 4.32 0 0 0-3.9 4.2v54.65a3.57 3.57 0 0 0 3.9 3.61l7.12-.55a4.27 4.27 0 0 0 3.91-4.19v-54.66a3.58 3.58 0 0 0-3.91-3.6M451 322.83h-6.07v13.75H451c3.81 0 6.88-1.84 6.88-6.87s-3.09-6.88-6.88-6.88M467.34 227a4.75 4.75 0 0 0-3.9-4.53l-3.66-.59a3.27 3.27 0 0 0-3.91 3.3v28.29l11.47 1.83zm-50.81 250.48l-16.53-12-16.53 12 6.31 19.45h20.43zm0-47.48l-.75-2.3a49.9 49.9 0 0 0-31.56 0l-.75 2.3L400 442zM357 450.08a49.27 49.27 0 0 0-6.5 24.55v1.36l8-4.46 2.51-1.4-1.89-9.49zm83.9 10.54l-1.9 9.51 2.51 1.4 8 4.46v-1.36a49.3 49.3 0 0 0-6.51-24.55zm-55.06 102.89c-4.83 0-9.83 2.33-9.83 7.21 0 4.23 3.48 7.24 8 7.24a16.7 16.7 0 0 0 7.73-2.14s-.3 5.72-7.08 5.72c-4.38 0-5.5-1.35-5.29-2.42l-.42-.19-3.25 5.5.51.22a1.38 1.38 0 0 1 .93-.45 22.1 22.1 0 0 0 7.52 1.28c6.39 0 12.59-3.84 12.59-11 .01-6.93-3.72-10.97-11.41-10.97m0 10.27c-2.5 0-4.53-1.35-4.53-3.06s2-3 4.53-3 4.52 1.37 4.52 3-2.02 3.06-4.52 3.06m35.16-3.72l3.25-5.5-.5-.22a1.42 1.42 0 0 1-.94.45 22.1 22.1 0 0 0-7.52-1.28c-6.38 0-12.59 3.82-12.59 11 0 6.92 3.75 11 11.43 11 4.82 0 9.82-2.35 9.82-7.24 0-4.19-3.47-7.21-8-7.21a16.8 16.8 0 0 0-7.72 2.11s.3-5.71 7.07-5.71c4.39 0 5.5 1.37 5.3 2.42zm-6.87 5.15c2.49 0 4.52 1.35 4.52 3s-2 3.06-4.52 3.06-4.53-1.37-4.53-3.06 2.06-3 4.56-3z" fill="#8a2432"/></svg>