<svg xmlns="http://www.w3.org/2000/svg" xmlns:xlink="http://www.w3.org/1999/xlink" viewBox="2.79 0.8 233.95 238.54"><defs><path id="a" d="M0 .664h233.947v238.539H0z"/></defs><g fill="none" fill-rule="evenodd"><g transform="translate(2.79 .133)"><mask id="b" fill="#fff"><use xlink:href="#a"/></mask><path fill="#FFF" d="M231.477 93.397a230 230 0 0 1-5.174 22.054c-5.819 20.154-14.27 38.92-25.121 55.78-10.701 16.634-23.451 30.97-37.901 42.607-12.288 9.904-25.601 17.655-39.564 23.035l-6.042 2.33-6.033-2.326c-13.973-5.392-27.284-13.143-39.568-23.036a170 170 0 0 1-7.58-6.503c-11.816-10.679-21.941-22.56-30.083-35.3-5.562-8.707-10.51-18.024-14.757-27.772l-.038.028-2.943-6.893a220 220 0 0 1-7.596-21.95C3.056 94.566 0 72.641 0 50.287c0-3.607.082-7.235.242-10.778l.805-18.255 18.131 2.369c31.325 4.067 63.165-2.357 90.065-18.037l8.443-4.922 8.456 4.922c14.896 8.682 31.124 14.514 48.233 17.337l1.02.169c5.648.836 11.515 1.39 17.456 1.649 7.502.327 15.867-.569 26.328-2.81l12.425-2.643 1.247 12.669a238 238 0 0 1 1.097 22.758c0 14.505-.417 26.02-2.49 38.593" mask="url(#b)"/></g><path fill="#FFF" d="M230.855 54.599c0-7.382-.358-14.844-1.069-22.18l-.601-6.128-5.986 1.276c-9.095 1.947-18.463 3.336-27.813 2.931-6.41-.276-12.83-.89-19.193-1.877L25.018 134.99c4.691 11.942 10.422 23.246 17.14 33.763 8.315 13.009 18.341 24.406 29.084 34.118L228.446 92.233c2.053-12.447 2.409-23.924 2.409-37.634"/><path fill="#C00C30" d="M171.41 105.637c-.184 1.3-.817 2.31-1.934 3.092-1.065.745-2.251.984-3.53.712-1.287-.283-2.38-1.047-3.244-2.282-.859-1.226-1.205-2.499-1.03-3.778.18-1.292.799-2.293 1.894-3.061.84-.588 1.73-.885 2.648-.885q.452 0 .923.093c1.26.253 2.34 1.011 3.212 2.258.89 1.266 1.247 2.566 1.062 3.851zm-6.507-20.357-4.265 2.99 5.022 7.17a8.5 8.5 0 0 0-2.662.097 8 8 0 0 0-3.005 1.309c-2.017 1.412-3.208 3.408-3.54 5.934-.327 2.518.351 5.004 2.026 7.395 1.615 2.312 3.725 3.752 6.267 4.295.71.154 1.408.228 2.077.228 1.73 0 3.333-.51 4.773-1.518.89-.625 1.62-1.377 2.155-2.233.438-.692.784-1.528 1.028-2.484l.896 1.28 4.269-2.984zm20.643 2.707-7.393 5.178c-.138-.952-.115-1.722.074-2.295.35-1.08 1.034-1.973 2.02-2.666.883-.617 1.843-.932 2.84-.932h.078a4.35 4.35 0 0 1 2.381.715m8.174 4.222-4.795.812-.032.215c-.3 1.606-1.127 2.896-2.456 3.824-1.107.777-2.238 1.122-3.36 1.021-1.01-.086-1.929-.504-2.737-1.24l12.013-8.41-.664-.992c-1.79-2.559-4.024-4.113-6.641-4.614a9.5 9.5 0 0 0-1.796-.173c-1.983 0-3.931.66-5.796 1.963-2.285 1.598-3.65 3.742-4.066 6.374-.415 2.628.208 5.156 1.87 7.523 1.614 2.31 3.756 3.725 6.35 4.2a10 10 0 0 0 1.707.156c1.994 0 3.96-.665 5.838-1.982 1.547-1.083 2.71-2.317 3.448-3.664.748-1.358 1.12-2.92 1.117-4.648zM86.236 152.585c-.614 3.52-1.503 6.287-2.643 8.22-1.12 1.906-2.708 3.587-4.716 4.993-2.35 1.644-4.888 2.608-7.55 2.876-.495.05-.993.074-1.478.07a13.65 13.65 0 0 1-6.027-1.395c-2.358-1.149-4.43-2.982-6.147-5.434-2.478-3.537-3.341-7.234-2.64-11.313.702-4.072 2.732-7.234 6.221-9.68 2.899-2.027 6.256-3.054 9.983-3.054 1.592 0 3.29.188 5.04.553l1.537.324 2.31-11.789-1.41-.37a29.8 29.8 0 0 0-7.486-.967c-1.74 0-3.503.158-5.238.472-4.228.764-8.124 2.381-11.58 4.799-4.066 2.846-7.213 6.558-9.34 11.025-2.133 4.476-3.008 9.101-2.6 13.733.412 4.63 2.115 9.12 5.073 13.34 4.57 6.519 10.485 10.473 17.598 11.745a26 26 0 0 0 4.619.42c5.473 0 10.827-1.809 15.918-5.371 3.516-2.466 6.28-5.3 8.219-8.419 1.925-3.105 3.378-7.286 4.32-12.414l.276-1.49-11.984-2.443zm24.841-59.863 16.416 23.446-31.51-12.878-9.233 6.467 29.957 42.786 10.122-7.083-16.367-23.371 31.441 12.813 9.257-6.478-29.963-42.791zm88.393-25.903 12.243-8.574-6.926-9.897-12.249 8.574-3.341-4.772 12.244-8.571-7.006-10.01-22.31 15.626 29.962 42.789 10.07-7.051zm-92.437 80.897a5.252 5.252 0 0 0-4.296 8.256 5.26 5.26 0 0 0 4.306 2.24 5.24 5.24 0 0 0 3.004-.951 5.24 5.24 0 0 0 2.156-3.387 5.2 5.2 0 0 0-.868-3.919 5.26 5.26 0 0 0-4.302-2.239m52.01-31.17a5.237 5.237 0 0 0-7.306-1.286 5.255 5.255 0 0 0-1.288 7.305 5.25 5.25 0 0 0 4.301 2.237c1.08 0 2.119-.328 3.005-.95a5.25 5.25 0 0 0 1.287-7.306m65.078-46.348a5.25 5.25 0 0 0-4.302-2.236 5.2 5.2 0 0 0-3 .95 5.2 5.2 0 0 0-2.16 3.383 5.21 5.21 0 0 0 .873 3.923 5.24 5.24 0 0 0 4.302 2.236c1.075 0 2.113-.33 3.004-.95a5.25 5.25 0 0 0 1.283-7.306"/><path fill="#002F87" d="m125.97 10.551-5.489-3.197-.003-.003-5.485 3.2c-22.502 13.112-48.24 20.045-74.44 20.045-6.433 0-12.942-.424-19.347-1.258L9.431 27.799l-.524 11.86a235 235 0 0 0-.235 10.51c0 21.808 2.977 43.182 8.847 63.535a214 214 0 0 0 7.392 21.362l.107-.076L176.194 28.62l.016-.012c-17.685-2.917-34.733-9.02-50.24-18.057M71.238 202.865a162 162 0 0 0 7.317 6.278c11.815 9.518 24.599 16.961 37.996 22.128l3.916 1.51 3.926-1.513c13.389-5.16 26.177-12.607 37.992-22.129 13.951-11.234 26.282-25.096 36.644-41.208 10.545-16.383 18.755-34.627 24.413-54.227a223 223 0 0 0 5.045-21.486L71.236 202.865z"/></g></svg>