<svg viewBox="8.44 24.69 1219.69 1391.95" xmlns="http://www.w3.org/2000/svg"><g fill-rule="evenodd"><path d="M1188.82 802.39c-11.19 5.32-17.6 4.05-22.08-8.22q6.97-24.04 11.17-40.71 9.2-36.54 15.75-77.21 3.77-23.41 6.23-48.14 2.86-28.72 3.93-48.37 1.76-32.19 1.72-52.24-.1-50.72-5.38-106.5-1.82-19.23-4.3-35.43c-3.25-21.17-6.53-43.06-10.49-63.1q-10.21-51.74-25.91-103c-4.49-14.67-8.92-26.8-12.89-39.3-2.44-7.67-5.43-14.88-8.49-22.92-1.34-3.52-2.55-4.31-5.77-5.82q-35.73-16.78-77.03-31.4-63.97-22.62-129.32-37.4-58.17-13.16-102.23-19.22-2.7-.37-14.28-2.12-11.2-1.69-14.3-2.09-48.91-6.35-97.65-9.02-39.99-2.19-56.73-2.37-33.86-.37-43.74-.09-42.43 1.2-72.31 3.22-55.09 3.72-112.7 12.48-24.51 3.73-45.19 7.46-27.38 4.95-58.78 12.27-40.11 9.35-80.78 21.81-35.01 10.74-62.27 21.12-28.98 11.04-60.77 25.14-3.72 1.65-5.38 5.86-9.43 23.87-16.91 47.81-15.43 49.35-26.49 99.5-8.01 36.33-14.77 83.07-3.04 21.01-5.12 47.19-3.21 40.46-3.51 47.35-1.95 43.71.41 94.16.54 11.53 2.34 29.69 2.93 29.6 2.91 29.63-.07.11 1.06 10.81.42 4 1.38 10.75.65 4.62 3.56 23.12 2.22 14.11 3.94 23.07 12.52 65.25 34 127.93 7.76 22.65 15.99 43.51Q137.2 975 199.18 1063.8q7.93 11.37 16.99 23.2 12.8 16.72 17.62 22.72 32.13 40.08 70.04 77.2 28.35 27.76 56.11 50.86c41.48 34.51 85.77 65.19 133.34 92.68q42.51 24.57 84.46 43.53c12.43 5.62 26.86 11.15 37.48 16.27 3.66 1.77 8.99-1.3 12.64-2.94q2.38-1.07 8.01-3.31 18.52-7.37 44.73-20.17 40.33-19.69 78.15-42.14 12.75-7.56 30.71-19.37 24.85-16.34 30.1-20.26 11.13-8.28 22.45-16.38-1.47 5.06-6.05 8.01-5.69 3.66-15.78 11.19-9.11 6.79-20.06 14.28a.538.537 46.375 0 0-.02.87q7.85 6 10.46 16.29-7.82 5.54-16.15 10.83-19.74 12.54-40.87 24.62-8.16 4.66-40.24 21.91-7.38 3.97-14.04 6.97c-6.15 2.78-11.76 6.08-18.73 9.32q-31.98 14.86-60.94 26.36a4.059 4.046 45.094 0 1-3.04-.01q-22.68-9.21-49.28-21.22c-14-6.33-24.93-12.08-38.78-18.78q-3.95-1.91-15.3-7.92-59.45-31.49-111.64-68.99c-43.43-31.21-83.44-65.38-120.09-101.89q-22.56-22.48-46.45-50.05-13.9-16.05-28.35-34.87-40.53-52.81-71.29-106.42-7.42-12.93-25.05-46.52-4.02-7.64-8.36-17.34-1.73-3.84-8.01-17.5-6.24-13.58-13.8-31.75c-6.65-15.99-13.86-36.34-18.65-49.44-4.99-13.66-8.11-24.57-12.66-38.76q-1.92-6.01-4.58-15.65-8.25-29.81-13.93-58.34c-.64-3.22-2.15-7.41-2.62-10.36q-1.27-7.97-3.09-17.17c-2.2-11.1-3.25-18.4-5.01-29.44q-.84-5.21-1.67-12.27-1.61-13.73-3.87-30.66c-3.66-27.53-4.58-51.92-5.48-85.23q-.5-18.29.63-59.02.85-30.6 3.89-58.88 5.33-49.61 13-92.41 2.08-11.58 4.41-22.48c3.72-17.36 6.28-32.77 11.43-51.4q11.96-43.2 16.91-58.51 9.58-29.66 18.97-53.51 2.56-6.49 4.86-11.13 1.01-2.06 3.26-3.23 6.81-3.56 20.21-9.46 43.96-19.35 90.38-35 15.01-5.05 28.93-9.12c22.77-6.65 36.18-10.56 56.56-15.45q18.64-4.46 40.62-9.4 18.05-4.06 55.73-10.86 38.94-7.03 69.63-10.38 33.64-3.67 45.49-4.72 35.81-3.16 65.18-4.67c44.24-2.26 89.23-1.79 133.07.86 27.72 1.68 59.74 4.14 88.91 7.56q64 7.51 130.66 21.4 16.51 3.45 43.08 10.03c30.96 7.66 60.68 16.55 89.5 25.86 27.49 8.89 55.12 20.19 82.85 31.94q13.44 5.69 24.88 11.82c4.13 2.21 6.42 9.93 7.53 13q15.34 42.17 17.38 48.61 7.05 22.32 13.16 45.03 2.56 9.48 11.96 46.54 2.01 7.94 2.8 12.25c1.95 10.74 5.24 26.77 7.19 39.22 1.34 8.58 3.1 16.89 4.53 26.05q4.65 29.76 7 56.2c2.35 26.66 4.68 54.37 4.84 83.05q.21 39.07.01 45.7-1.03 35.19-3.38 60.5-1.89 20.38-5.44 48.01-2.43 18.83-5.19 33.5-7.07 37.49-13.77 66-4.72 20.09-11.43 43.13" fill="#c19142"/><path d="M1166.74 794.17q-3.8 12.44-7.38 24.7-3.98 13.6-15.51 43.79-1.1 2.88-9.02 22.91-5.93 14.99-9.45 22.75-19.1 42.09-33.24 67.35-20.49 36.6-33.64 56.85-17.35 26.71-28.51 41.73-14.32 19.26-21.28 28.22-16.15 20.78-35.74 42.51c-8.81 9.77-17.68 19.85-26.56 28.79q-25.34 25.51-41.87 40.51-27.9 25.34-62.53 51.41-11.32 8.1-22.45 16.38-5.25 3.92-30.1 20.26-17.96 11.81-30.71 19.37-37.82 22.45-78.15 42.14-26.21 12.8-44.73 20.17-5.63 2.24-8.01 3.31c-3.65 1.64-8.98 4.71-12.64 2.94-10.62-5.12-25.05-10.65-37.48-16.27q-41.95-18.96-84.46-43.53c-47.57-27.49-91.86-58.17-133.34-92.68q-27.76-23.1-56.11-50.86-37.91-37.12-70.04-77.2-4.82-6-17.62-22.72-9.06-11.83-16.99-23.2Q137.2 975 97.64 874.67q-8.23-20.86-15.99-43.51-21.48-62.68-34-127.93-1.72-8.96-3.94-23.07-2.91-18.5-3.56-23.12-.96-6.75-1.38-10.75-1.13-10.7-1.06-10.81.02-.03-2.91-29.63-1.8-18.16-2.34-29.69-2.36-50.45-.41-94.16.3-6.89 3.51-47.35 2.08-26.18 5.12-47.19 6.76-46.74 14.77-83.07 11.06-50.15 26.49-99.5 7.48-23.94 16.91-47.81 1.66-4.21 5.38-5.86 31.79-14.1 60.77-25.14 27.26-10.38 62.27-21.12 40.67-12.46 80.78-21.81 31.4-7.32 58.78-12.27 20.68-3.73 45.19-7.46 57.61-8.76 112.7-12.48 29.88-2.02 72.31-3.22 9.88-.28 43.74.09 16.74.18 56.73 2.37 48.74 2.67 97.65 9.02 3.1.4 14.3 2.09 11.58 1.75 14.28 2.12 44.06 6.06 102.23 19.22 65.35 14.78 129.32 37.4 41.3 14.62 77.03 31.4c3.22 1.51 4.43 2.3 5.77 5.82 3.06 8.04 6.05 15.25 8.49 22.92 3.97 12.5 8.4 24.63 12.89 39.3q15.7 51.26 25.91 103c3.96 20.04 7.24 41.93 10.49 63.1q2.48 16.2 4.3 35.43 5.28 55.78 5.38 106.5.04 20.05-1.72 52.24-1.07 19.65-3.93 48.37-2.46 24.73-6.23 48.14-6.55 40.67-15.75 77.21-4.2 16.67-11.17 40.71M125.28 343.08q3.49-.26 6.94-1.33.72-.23 6.05-.4a6.904 6.677-54.086 0 0 1.92-.34q2.77-.94 4.07-1.15 11.94-1.87 23.79-4.44l24.01-5.02a2.3 2.3 84.138 0 0 1.83-2.25V315a2.12 2.12-10.079 0 1 1.39-1.99q6.08-2.23 16.86-5.82c5.65-1.88 10.64-2.19 16.16-2.6a.936.934-1.351 0 0 .87-.91q.03-1.14-.24-21.96c-.03-2.68.6-5.63-.15-8.54a.713.705 81.904 0 0-.71-.54q-.42.01-2.11-1.03a1.039 1.015-82.694 0 1-.46-.61q-.41-1.53.16-2.94c3.93-9.81 15.95-13.13 25.59-11.52 8.78 1.46 14.61 8.26 17.16 16.49a1.36 1.359 78.101 0 1-1.14 1.75l-3.37.39a1.863 1.863-3.286 0 0-1.65 1.85v20.45a.972.971-1.135 0 0 1.01.97q5.24-.18 11.86-1.59c6.93-1.48 20.39-4.94 30.36-7.81q7.11-2.05 10.55-2.38 5.88-.56 17.72-.17c5.69.18 11.05-.27 17-.23q2.44.02 4.09-.89c13.78-7.57 27.53-14.6 41.81-22.64q26.78-15.07 47.92-25.91 2.44-1.25 14.28-6.18a5.82 5.735 28.319 0 1 1.2-.35q2.04-.37 4.47-1.49a4.098 3.883 24.743 0 1 .62-.21q12.44-3.07 13.24-3.35 3.39-1.22 6.5-1.18.48.01 6.56-1.12 4.15-.76 9.9-.98 13.11-.51 22.72-.84 4.08-.13 6.72-.01a.139.131 8.715 0 0 .13-.09q.05-.13.08-.24a.043.026-76.717 0 1 .03-.03q3.66-.43 5.3.16a.401.354-30.128 0 0 .15.03l35.21 1.76a2.318 2.295-61.377 0 0 1.47-.44l15.78-11.69q.32.47 1 .29a.985.975-77.312 0 0 .5-.32q2.28-2.72 5.54-4.34 11.6-5.74 24.99-13.93c7.54-4.62 13.76-7.71 20.9-12.16q1.97-1.22 2.61-2.69a2.644 2.627-35.651 0 0 .21-1.25l-.8-8.95a2.562.936-81.515 0 1-.01-.33l.12-6.1a.994.988-18.917 0 1 .37-.75l3.51-2.84q10.48-.06 21.11-.18c3.92-.05 8.05.31 11.12.75a1.52 1.52 6.651 0 1 1.29 1.63q-.24 2.61-.37 7.88-.05 2.05 2.07 2.39 9.78 1.57 22.43 3.18a.761.756 3.378 0 0 .85-.75v-12.94a1.98 1.98.144 0 1 1.99-1.98l35.62.25q-.82-.18-1.36-.01a.711.702 77.292 0 0-.48.77c.9 6.72-.05 13.13.34 20.56q.17 3.25 3.41 3.92 18.09 3.72 35.33 8.85 8.27 2.46 13.24 3.35 8.1 1.46 13.47 2.43 5.81 1.05 9.13 2.62a.622.618 24.936 0 0 .83-.3l.28-.6a.163.159 10.659 0 1 .15-.1q.65-.03-.01 1.01-.15.24.2.57.21.2.55.23c3.73.73 7.84 1.15 11.15 1.98 10.53 2.63 21.02 4.42 31.93 6.99q33.29 7.83 57.75 13.12c3.98.86 8.72 1.58 14.11 2.66a.743.741-83.913 0 0 .89-.72l.33-26.65a1.199 1.19-59.716 0 0-.15-.58q-1.34-2.35-3.88-4.02c-1.86-1.22-2.6-2.28-1.91-4.49 3.23-10.29 14.98-13.99 24.73-13.33q11.41.78 18.57 8.84l-3.92 19.6a1.799 1.793-1.577 0 1-1.32 1.39q-6.04 1.54-8.41 6.71-.79 1.72-.73 2.8a1.504 1.481 21.002 0 0 .45.99q4.53 4.34 9.59 6.32a2.829 2.825-88.203 0 1 1.66 1.77l2.18 6.94 13.7 5.25a.983.975 6.993 0 1 .63.8l1.04 8.87a1.023 1.018-80.981 0 0 .6.83l5.38 2.49a1.302 1.298-39.467 0 1-.24 2.44l-3.35.83a1.547 1.547-11.623 0 0-1.16 1.76q1.75 10.29 5.13 31.06 1.02 6.3 1.28 12.45a2.128 2.091-60.018 0 0 .22.85q.29.56.36.97 5.76 34.16 8.18 45.86.05.22-.02.43-.14.38.12.25l-.43-.08a.361.356 4.797 0 0-.42.35v3.89a4.099 4.055-52.827 0 0 .14 1.06q.73 2.77 2.75 12.09.25 1.18 1.75 3.16a3.915 3.895-66.845 0 1 .76 1.91c.32 3.03 2.09 6.4 2.75 9.74q.78 3.97 2.49 7.27a2.14 2.136-22.566 0 0 2.55 1.05c6.34-2.04 12.18-6.82 17.8-10.46q4.45-2.88 6.53-5.28 2.89-3.35 4.2-7.27 21.5 4.66 44.32 9.18c13.29 2.63 24.14 5.32 37.45 8.34a2.221 2.219-86.854 0 1 1.71 1.91l.78 6.61a.907.842-69.407 0 0 .18.44q1.38 1.7 3.61 2.31 18.86 5.12 36.96 8.44a.619.618 87.359 0 0 .71-.78q-.61-2.11-.38-4.88a1.667 1.302 52.018 0 0 0-.35l-1.29-10.48a1.396 1.285-67.083 0 0-.19-.53q-.31-.49-.3-.8 0-1.88-.48-3.45-.75-2.39-.7-3.35.1-2.07-.38-3.91-.61-2.39-.84-3.71-1.58-9.16-4.88-28.18-3.41-19.7-7.59-39.19-1.94-9.01-3.96-16.8c-4.69-18.07-8.65-33.16-14.28-51.96q-.26-.87-.33-1.07-5.08-16.44-6.68-21.64-.14-.45-.11-.57.09-.34-.23-.49-.22-.1-.44-.75-5.61-16.75-10.72-30.86c-.76-2.11-1.94-4.23-3.83-5.03q-15.54-6.61-35.48-15.03-9.2-3.89-44.74-16.16-6.93-2.4-14.56-4.82-14.25-4.53-14.62-4.64c-14.18-4.13-22.51-6.9-34.36-10.08q-22.71-6.1-24.4-6.52-18.44-4.62-23.96-5.88-42.16-9.64-84.51-16.29c-1.29-.2-3.11-.91-4.55-1.18q-2.95-.53-48.2-6.9-6.47-.91-15.64-1.78-15.15-1.44-15.68-1.54-.78-.14-19.47-1.95-6.97-.67-25.78-1.63a4.761 4.615 52.235 0 1-.91-.13q-2.36-.54-3.82-.53-5.44.04-13.47-.27-.71-.02-1.54-.06-12.26-.51-20.34-.95-11.93-.64-20.32-.73-33.67-.35-63.08.17-7.02.12-33.75 1.67c-3.81.22-11.73-.11-17.35.6q-4.17.53-6.21.56-4.12.05-9.34.6-11.06 1.17-18.11 1.5c-6.37.31-13.54 1.2-18.9 1.74q-5.54.56-6.16.63-4.55.57-7.57.4a.944.942 29.118 0 0-.6.17q-.4.28-1.01.35-7.74.94-29.18 3.64-12.66 1.59-29.04 4.58-14.86 2.7-33.69 5.82-5.48.91-12.27 2.26-10.39 2.07-12.29 2.28c-3.33.37-8.05 2.18-11.53 2.16a1.479 1.416 23.867 0 0-.94.34q-.44.38-3.96 1.08-4.48.89-20.13 4.61-19.98 4.74-29.06 7.08-5.84 1.51-8.69 2.41c-7.29 2.32-13.72 3.52-21.68 6.09-5.93 1.92-12.21 3.32-18.11 5.35-9.72 3.36-19.82 6.02-29.45 9.45-9.59 3.43-18.28 6.14-28.11 10.04-5.87 2.34-12.81 4.29-18.8 7.24q-2.6 1.28-6.55 2.74-6.45 2.38-17.21 7.32-4.16 1.92-9.2 3.65-2.58.89-3.33 2.77-4.43 11.16-9.93 27.21-2.56 7.47-3.88 12.05c-2.62 9.03-5.87 17.94-8.59 27.71q-3.54 12.72-4.29 15.89a.595.528-21.018 0 1-.14.27l-.05.06a1.204 1.119 74.524 0 0-.27.52q-1.41 5.92-7.59 30.96-2.67 10.84-3.44 14.69-1.4 7.05-3.22 14.74-3.61 15.21-5.97 32.95a.86.856-88.633 0 0 .92.97q8.36-.65 14.7-1.98 17.84-3.76 35.75-7.26m534.94-106.79q.07-29.86-.37-52.27-.02-1.3-1.22-1.68-.33-.11-.88.2-28.87 16.58-45.17 25.2-3.79 2-11.29 6.47-4.62 2.74-11.62 6.1a7.256 7.118-74.605 0 0-1.05.61l-1.55 1.1a1.029 1.029-63.081 0 0 .61 1.87c15.9-.3 32.55 1.41 48.42 5.01q7.64 1.74 10.45 3.09 6.97 3.36 12.37 5.22a.98.975 9.588 0 0 1.3-.92m308.56-48.07q-1-.96-3.1-1.37-13.7-2.69-27.05 1.07a.659.657-41.386 0 0-.08 1.24q1.1.45 2.93.25 2.5-.28 15.04-.99 5.37-.3 11.72.86a.621.621-18.026 0 0 .54-1.06m-134.818 73.955a1.03 1.03 0 0 0-1.029-1.032l-3.98-.006a1.03 1.03 0 0 0-1.031 1.028l-.024 13.34a1.03 1.03 0 0 0 1.029 1.032l3.98.006a1.03 1.03 0 0 0 1.031-1.028zm-171.452.015a.89.89 0 0 0-.89-.89h-1.18a.89.89 0 0 0-.89.89v150.12a.89.89 0 0 0 .89.89h1.18a.89.89 0 0 0 .89-.89zm-338.93 42.4a.756.754 23.349 0 0-.49-1.23c-2.4-.3-6.45 1.8-7.84 2.15-12.61 3.13-26.62 7.79-39.1 10.05a1.017 1.015-11.469 0 0-.81 1.22l1.83 8.18a2.259 2.251-79.743 0 0 .96 1.39q3.26 2.18 3.98 3.82 1.94 4.41 2.7 5.89c2.95 5.76 4.86 11.2 7.29 17.87a6.228 6.145-55.33 0 1 .37 2.11v24.67a2.57 2.57 45 0 0 2.57 2.57h.85a2.68 2.67-.106 0 0 2.68-2.68q-.02-14.71 1.02-22.59.43-3.24 1.3-5.91 3.9-11.96 6.88-20.08 1.86-5.08 3.98-7.78 5.57-7.11 10.32-17.42.45-.98 1.51-2.23m736.31 88.9l106.07 13.25a.611.608-9.944 0 0 .62-.88l-.04-.08a2.617 2.58-9.446 0 0-2.06-1.45c-10.91-2.26-23.76-4.84-36.38-8-11.38-2.85-22.55-4.41-34.1-4.26q-21.84.27-34.09.93a.247.245-42.842 0 0-.02.49m117.61 89.48a1.95 1.95 0 0 0-1.95-1.95H60.23a1.95 1.95 0 0 0-1.95 1.95v9.4a1.95 1.95 0 0 0 1.95 1.95h1115.32a1.95 1.95 0 0 0 1.95-1.95zM618.311 706.131q534.363.033 541.728.001a1.362 1.359-85.579 0 0 1.341-1.152l8.65-55.5a1.147 1.143 4.546 0 0-1.132-1.322c-187.138.052-370.653-.05-550.584-.061s-363.445.068-550.583-.007a1.147 1.143-4.539 0 0-1.132 1.322l8.643 55.501a1.362 1.359 85.586 0 0 1.341 1.152q7.365.034 541.728.066M270.03 829.49q1.03 3.01 2.07 9.68c.84 5.38 3.12 12.73 3.94 19.11.55 4.28-2.1 6.97-3 10.21a3.659 3.618-40.279 0 0-.12 1.36q.73 7.16 8.63 7.8 12.47 1.02 15.81-9.59c.91-2.92 1.07-6.99.73-9.55q-1.36-10.15-4.28-21.57-6.34-24.89-16.32-58.9-3.1-10.58-4.21-19.86a3.629 3.592-31.096 0 1 .63-2.49c2.22-3.17 3.83-5.79 1.76-9.61s-5.19-5.61-9.55-5.14q-9.59 1.03-12.67 9.25-4.05 10.79-8.9 18.13-26.93 40.76-37.96 57.24c-6.13 9.15-12.84 20.13-19.19 29.83-3.68 5.61-8.08 13.77-3.48 19.73 2.9 3.74 11.97 2.95 15.15 1.46q4.97-2.32 5.98-7.12 1.9-8.98 2.53-10.62a16.562 16.127-19.122 0 1 1.52-3.03l15.03-23.73a1.812 1.804-75.295 0 1 1.43-.84l43.56-2.37a.92.914-10.541 0 1 .91.62m226.01-.14q.19.32.25.61c2.96 14.51 4.53 20.73 5.23 28.75a11.546 11.448 51.313 0 1-.47 4.42c-.69 2.2-1.57 4.33-1.51 6.6.19 7.58 6.54 8.35 12.59 7.83 7.99-.68 11.97-9.08 11.56-16.3q-.43-7.71-1.89-14.54c-5.37-25.14-10.64-41.46-20.59-76.18q-1.07-3.72-1.63-13.48a2.861 2.83 58.082 0 1 .34-1.5l1.98-3.64a2.47 2.417-31.242 0 0 .3-1.17c.01-11.42-12.15-11.9-19.06-6.31-3.31 2.68-4.34 7.51-5.94 11.03-3.51 7.72-7.71 14.5-12.11 21.02q-22.44 33.28-40.06 60.3-9.5 14.57-15.62 25.87c-2.01 3.7-2.6 8.99.35 12.28 3.19 3.56 9.51 3.37 13.64 2.13 7.53-2.26 8.03-7.78 9.32-14.83q.55-3.03 3.73-8.54 5.69-9.84 13.43-21.78a1.498 1.475 14.763 0 1 1.17-.67l44.05-2.39a1.023 1.019-17.355 0 1 .94.49m534.98.34q.15.42.32 1.25.63 3.2 4.22 21.04.89 4.45.88 8.23a4.352 4.317 53.741 0 1-.19 1.27c-.7 2.3-3.36 6.69-2.16 10.46q1.78 5.6 7.73 6.01 12.74.88 16.45-9.98c1.5-4.42.79-9.4-.03-14.22q-1.85-10.85-4.71-21.55-5.81-21.7-18.25-65.23-.74-2.59-1.27-8.74a3.363 3.301 56.779 0 1 .37-1.86q.02-.04 1.89-3.08c2.07-3.37.4-8.24-2.57-10.56q-2.17-1.69-6.03-1.68-7.51.02-12.04 6.17-1.47 1.99-2.77 6.64-1.45 5.13-5.39 11.1c-3.53 5.34-9.74 15.17-13.67 21.05q-19.77 29.65-39.06 58.99-5.57 8.47-9.49 16c-2.09 4.03-3.26 8.81-1.06 13 2.04 3.88 9.25 4.08 12.84 3.52 8.66-1.36 9.35-8.62 10.5-15.74q.44-2.69 4.13-8.64 4.02-6.48 14.03-21.54a1.123 1.111 15.544 0 1 .86-.48l43.09-2.34a1.38 1.38-11.583 0 1 1.38.91m-632.45-63.56c1.25 4.46 1.12 9.47 7.1 10.16q9.01 1.05 13.39-5.91c5.51-8.74-.2-18.41-8.39-22.55-9.45-4.79-18.36-5.54-28.43-4.53q-9.14.92-17.35 5.87c-20.82 12.55-36.09 34.31-44.91 56.71q-3.68 9.35-5.14 17.8c-2.17 12.49-2.82 25.66 1.31 37.45 2.28 6.5 7.94 13.29 14.91 16.3 11.44 4.93 23.59 3.91 35.14-.72q11.84-4.75 21.5-11.7c7.51-5.4 13.4-9.9 16.97-18.06q2.09-4.79.11-8.43c-4.05-7.4-14.51-5.77-19.1-.06q-.84 1.05-1.75 4-1.08 3.51-5.39 7.08-9.45 7.81-19.8 10.51-17.38 4.52-22.75-12.41-2.42-7.62-1.25-15.14c1.16-7.51 2.41-14.93 5.3-22.27q6.06-15.35 15.51-27.94c5.71-7.61 11.7-13.43 20.2-18q11.47-6.16 22.07.81a1.796 1.779-81.347 0 1 .75 1.03M578.4 750.9c.3-5.04-4.76-7.55-9.15-7.36q-6.67.3-11.13 4.34c-2.99 2.71-2.66 6.35-2.59 10.3q.03 2.12-.7 6.35-10.82 62.26-11.69 67.83c-1.33 8.56-3.23 16.37-4.83 25.74a8.142 7.974-28.762 0 1-.59 1.95c-2.31 5.12-6.21 12.12-1.18 17.15 4 4 15.55 2.38 21.6 1.24 14.43-2.74 28.08-8.2 40.9-15.37 25.52-14.28 44-38.48 50.78-67.27q4.22-17.94-2.36-32.24c-6.19-13.46-18.53-20.77-33.73-20.18q-10.4.41-15.99 1.9-12.67 3.39-13.52 3.7-3.25 1.2-5.04 2.37a.504.502 74.903 0 1-.78-.45m100.04 106.41a.938.927-65.47 0 1-.37-1.01q2.27-8.25 3.16-15.48c.86-6.97 2-11.33 3.58-19.39a.88.876 2.202 0 1 .77-.71l34.39-4.03a6.661 6.599-38.925 0 1 2.85.29c7.85 2.59 15.96-1.63 17.58-10.09q1.48-7.71-4.68-11.23c-4.59-2.62-9.69-.36-13.92 1.69a4.471 4.321 27.544 0 1-1.42.42l-31.57 3.69a.63.63-87.65 0 1-.69-.75l5.44-28.69a1.124 1.118 1.42 0 1 .95-.9q9.58-1.24 19.96-1.84c7.21-.41 16.05-2.27 22.78-2.17q1.69.03 5.44 1.38a3.275 3.063-32.88 0 0 1 .18q6.85.02 10.87-4.32c3.36-3.63 7.17-13.3 1.56-17.11q-7.42-5.04-14.86-.12a2.63 2.502 21.225 0 1-.9.37q-2.78.55-9.65.96c-11.11.66-21.96 3.01-33.07 3.19a1.022 1.007-6.183 0 1-1.01-.8c-1.9-8.95-13.95-7.56-19.14-3.63q-3.13 2.37-3.34 4.73-.3 3.39-2.11 6.92c-2.19 4.27-3.67 8.99-.11 12.92a2.028 2.025 29.098 0 1 .5 1.75l-5.33 28.09a9.289 9.259-22.237 0 1-1.53 3.63c-2.52 3.61-4.45 6.68-3.99 11.48a4.449 4.226 34.065 0 0 .22 1l1.57 4.64a1.378 1.356 41.183 0 1 .05.67q-2.8 14.55-4.83 27.86c-.94 6.08-2.81 9.97-5.12 15.05-1.86 4.08-1.38 9.76 2.44 12.75 2.8 2.21 9.84 2.13 12.69.86q4.72-2.11 9.15-2.49 5.87-.49 17.35-1.41c12.09-.98 26.06-2.92 37.9-2.91q4.07 0 8.48-3.01c2.65-1.82 3.28-4.29 3.88-7.39 1.61-8.37-5.73-12.37-13.3-10.85-1.98.4-4.27 2.55-6.66 2.68q-19.6 1.11-35.9 2.14-4.08.26-10.65 1.12a.388.341-34.627 0 1-.17-.02q-.22-.09-.24-.11m148.16-19.54q-3.18-16.72-9.22-32.68c-5.57-14.74-11.28-29.81-14.56-45.33a3.134 3.08-47.681 0 1-.04-1.05c.65-4.74 1.76-8.57-2.69-11.78-5.88-4.24-13.83-.96-17.5 4.38q-1.88 2.74-2.29 8.08-.34 4.39-2.19 12.51-.62 2.74-2.3 12.49-5.56 32.43-8.81 51.33c-1.32 7.74-3.16 14.44-4.46 22.1-.53 3.12-1.45 5.04-2.77 8.65a3.677 3.438-34.33 0 0-.21.94q-.74 9.19 7.66 10.28 11.95 1.55 15.47-9.66a4.808 4.615 53.953 0 0 .22-1.61l-.33-8.72a1.478.827-55.798 0 1 .02-.23l9.94-58.6a.248.244-51.864 0 1 .47-.06q10.47 25.71 15.15 52.02.94 5.26.79 7.93c-.41 7.23-3.13 16.87 7.48 18.33q7.9 1.08 13.45-5.12a4.64 4.629-17.037 0 0 1.07-2.01q2.25-9.03 9.41-19.85c11.42-17.26 24.75-35.02 33.51-46.81.9-1.21 1.51-2.87 2.49-4.11a.26.259-21.331 0 1 .46.2c-2.03 13.08-4.26 24.04-6.49 37.01q-2.7 15.62-4.94 25.54c-.59 2.62-3.29 5.14-3.37 7.89q-.16 6.17 5.52 7.51 6.7 1.58 13.83-1.66a1.606 1.544-82.398 0 0 .59-.47l4.33-5.61a3.054 3.044-28.398 0 0 .63-2.1c-.79-9.96 1.16-18.72 3.53-31.01 1.31-6.73 1.94-13.15 3.64-19.66 2.27-8.68 2.89-18.52 4.99-27.5q1.6-6.82 2.45-15.66c.35-3.68 1.95-8.7 2.73-11.46 1.74-6.13 3.43-10.89-.89-15.09-3.8-3.7-11.13-3.7-15.68-1.72q-2.97 1.28-5.03 4.74a3.393 3.301 64.348 0 0-.46 1.37q-.67 5.91-.91 7c-.77 3.49-2.54 8.16-5.04 11.98q-6.82 10.41-9.3 13.46-15.91 19.55-22.09 27.16-10.23 12.6-17.93 26.71a.179.176-36.012 0 1-.33-.05m102.51-71.29q-8.94 48.22-9.58 51.64c-1.65 8.81-2.41 17.16-4.52 25.24-1.14 4.37-1.45 10.41-2.23 13.73a3.869 3.813-19.301 0 1-.76 1.55q-2.32 2.83-3.14 5.48c-1.38 4.48-.42 10.4 4.29 12.59q1.92.89 5.83 1.03c8 .29 15.96-4.42 15.51-13.19-.16-3.14-.42-5.34-.1-8.62q.64-6.67 2.76-16.99.76-3.74 3.04-18.95c1.15-7.66 3.42-15.68 4.27-23q.28-2.41 2.31-11.91 1.1-5.1 1.8-11.99c.26-2.49.99-6.05 2.07-7.67 3.22-4.83 6.47-9.7 3.27-15.59-4.44-8.14-16.15-5.93-21.24-.17-4.46 5.06-5.53 8.24-3.68 14.73a4.704 4.636-48.158 0 1 .1 2.09m-362.15 200.7c7.49-5.58 13.37-13.4 15.42-22.49 2.36-10.48 5.59-19.59.24-29.04-2.52-4.45-6.18-7.41-11.36-7.62q-7.3-.3-13.16 3.32-7.63 4.72-11.76 9.74c-6.76 8.22-12.05 17.97-13.73 28.72-1.2 7.68-.07 19.82 8.33 23.06 9.02 3.48 18.42-.02 26.02-5.69m353.204-.162c7.417-5.607 13.216-13.431 15.194-22.494 2.277-10.448 5.43-19.539.039-28.909-2.539-4.412-6.203-7.333-11.361-7.507q-7.268-.248-13.077 3.396-7.562 4.751-11.639 9.776c-6.672 8.229-11.871 17.971-13.469 28.684-1.142 7.653.067 19.73 8.451 22.897 9.002 3.402 18.335-.147 25.862-5.843M511.67 923.65l-7.71 45.47a2.988 2.974-75.947 0 0 1.98 3.32q3.51 1.18 7.58-.76a1.949 1.941 75.714 0 0 1.1-1.86c-.28-5.51 1.64-11.3 2.46-17.2q1.62-11.7 3.57-20.91 1.18-5.6 1.53-9.77a1.02 1.015-5.656 0 1 .75-.91q6.83-1.81 12.27-1.49 2.51.15 3.59-.4c2.9-1.46 4.67-4.26 3.33-7.51-1.31-3.16-4.42-2.7-7.12-1.89q-7.3 2.2-15.03 2.44a8.379 8.337 34.103 0 0-2.58.49q-8.49 3.04-17.42 2.91a4.73 4.721-89.521 0 0-4.79 4.72l-.03 1.41a4.053 4.049-6.338 0 0 5.03 4.02l10.84-2.69a.533.533-1.804 0 1 .65.61m174.52 26.91l3.07 12.4a3.798 3.783-40.546 0 1-.19 2.38q-1.03 2.45-1.08 4.38a2.707 2.696-80.507 0 0 1.89 2.66c4.57 1.43 9.83-.47 9.89-5.89q.05-4.19-1.13-9.37-2.39-10.48-7.09-25.56c-1.17-3.75-2.24-9.26-3.03-13.04a2.978 2.958 48.889 0 1 .1-1.55c.73-2.07 1.57-4.62.32-6.41a1.991 1.982 86.305 0 0-.68-.6q-1.63-.89-4.5-.73c-4.67.26-4.09 2.53-5.38 5.79a9.087 7.591-62.916 0 1-.53 1.17q-1.07 2.01-7.12 11.31-11.04 16.99-17.95 27.13-1.22 1.8-3.33 5.42c-2.3 3.96-5.47 8.15-2.53 11.63a1.754 1.738 77.087 0 0 .9.57c2.34.6 8.07.8 8.42-2.52q.44-4.17 2.39-7.1 3.66-5.47 6.31-10.4a2.587 2.578-77.194 0 1 2.12-1.34l18.23-.99a.881.879 81.187 0 1 .9.66m-43.96-30.13l.88 3.89a1.116 1.109-84.024 0 0 .62.77c5.87 2.72 10.73-2.51 8.9-8.1-.57-1.72-3.1-4-4.61-4.76q-11.33-5.62-21.9.83-4.26 2.6-6.09 4.48c-11.03 11.35-20.21 28.84-16.7 45.62 1.96 9.39 11.18 12.65 19.9 10.74q10.87-2.38 19.51-11.45 2.21-2.33 2.6-5.07c.7-4.99-3.14-5.05-6.9-4.4-3.27.57-2.76 3.51-4.49 5.37q-4.79 5.15-11.64 5.99c-9.98 1.24-10.36-10.26-8.72-17.08q2.59-10.8 10.18-19.98c4.77-5.76 10.12-9.73 17.75-7.6a1.003.998-88.564 0 1 .71.75M464.69 941.9q9.62-1.59 17.66-5.98c5.97-3.26 13.12-10.22 12.19-17.5-.61-4.74-6.46-6.84-10.78-7.21q-12.12-1.03-21.05 4.37a.448.448-20.875 0 1-.67-.3c-.08-.45.81-1.03.37-2.2q-1.44-3.79-6.03-2.94c-3.15.58-4.98 2.22-5.13 5.44q-.11 2.39-.32 3.16a2.35 2.329-18.181 0 1-.46.9c-2.6 3.19-2.66 4.97-1.98 8.92.41 2.43.3 5.05-.09 6.79q-3.28 14.66-4.8 26.04a8.328 8.045 60.939 0 1-.51 1.91c-1.34 3.34-3.81 7.77.91 9.07q5.04 1.39 8.52-2.06a2.994 2.98-24.493 0 0 .87-2.31l-.29-4.31a2.423 2.215 50.571 0 1 .03-.57l2.67-14.08a.354.351-65.033 0 1 .57-.21q9.54 7.74 19.51 17.04c2.95 2.76 5.06 7.16 9.94 7.13q3.31-.02 5.07-1.94c2.2-2.4 2.73-5.77-.4-7.83a.434.306 54.827 0 0-.14-.05l-3.61-.45a.975.945-19.33 0 1-.52-.24l-21.72-19.96a.369.364-28.607 0 1 .19-.63m282.5-10.47a.419.415-57.722 0 1-.17-.77c4.38-2.71 8.83-7.78 8.44-13.06-.34-4.76-4.61-6.48-9.03-6.83q-10.85-.86-20.35 3.19a.554.541 69.302 0 1-.73-.34q-.69-2.16-4.05-2.14-4.92.04-6.76 3.71a2.609 2.557 59.493 0 0-.28 1.13q-.09 3.54-.19 4.2-1.27 8.3-7.11 41.94c-.37 2.13-3.62 5.07-3.36 7.32.86 7.57 23.52.36 27.84-1.11q6.74-2.3 16-8.69c3.56-2.47 6.43-6.1 8.39-9.66 4.54-8.22 1.47-17.76-8.64-18.89m29.39 4.9l1.83-11.73a1.39 1.372 1.303 0 1 1.23-1.16q9.32-.89 15.78-1.91c4.89-.77 12 2.49 13.3-5.26 1.07-6.41-5.4-5.3-9.3-4.34a8.14 8.093-53.91 0 1-1.44.23q-5.88.44-15.97 1.63c-.71.08-1.39-.18-1.66-.87-1-2.55-6.37-2.27-8.12-1.46-5.11 2.4-5.6 7.23-4.37 12.5a5.753 5.683-47.512 0 1 .08 2.12l-1.76 11.23a5.486 5.437-26.924 0 1-.56 1.69q-.07.14-1.38 2.06c-1.63 2.37-1 4.4-.29 7.25a2.257 2.115-49.471 0 1 .04.88l-1.97 12.6a3.701 3.447 64.007 0 1-.29.95l-2.23 4.64a1.271 1.122-30.128 0 0-.11.33q-1.17 6.28 5.77 6.05c3.93-.13 6.34-1.6 10.22-1.82q19.44-1.1 22.33-1.5c7.69-1.09 7.1-13.16-3.14-9.47q-1.99.72-4.54.87-5.64.33-17.41 1.37a.899.896 2.923 0 1-.96-1.06l2.85-15.01a.738.734 2.556 0 1 .66-.6q7.14-.68 13.81-1.41 1.38-.16 2.9.16c3.05.65 6.84-1.19 7.86-3.89q1.99-5.28-2.71-6.94c-3.03-1.07-4.48.87-6.86 1.18q-6.97.88-12.93 1.39a.612.609 1.83 0 1-.66-.7m83.058 26.5l7.878-43.741a3.136 3.085 62.908 0 1 .229-.73l1.198-2.6a2.32 2.317 38.356 0 0-.283-2.41c-3.073-3.886-8.311-3.171-10.907.81a1.681 1.6 59.281 0 0-.249 1.09q.141 1.24-.257 3.62-3.251 19.53-8.066 44.5-.229 1.21-1.886 4.781a2.732 2.725-40.893 0 0-.138 1.89q1.254 4.338 6.122 3.534 14.476-2.393 24.014-2.492a3.011 2.835 32.634 0 0 1.07-.201q5.087-1.925 4.232-7.213c-.824-5.018-5.841-3.044-9.12-1.891a2.184 2.026-56.665 0 1-.49.12l-12.806 1.512a.495.493 2.114 0 1-.541-.579M312.36 915.47c.39-4.26-5.47-4.56-8.22-3.11-3.32 1.76-2.54 4.74-3.26 7.22-1.01 3.5-4.01 5.69-2.9 10.01q.97 3.79-.41 9.22-.87 3.42-4.04 24.12a5.31 5.064 63.624 0 1-.46 1.48c-1.39 2.81-3.3 7.67 1.55 8.19 3.68.39 8.46.34 8.68-4.36.08-1.69-.06-4.3.38-6.63q2.04-10.76 2.59-14.07a.818.813-88.564 0 1 .71-.68q16.17-1.84 28.77-12.59c5.32-4.54 13.76-17.97 2.94-22.21-7.5-2.94-19.04.21-25.67 3.85a.45.449 78.583 0 1-.66-.44m45.71 48.72c-2.28-.05-5.86-1.16-5.43-3.93q2.32-14.84 5.06-27.58c1.29-6.04 1.24-11.56 2.87-16.74q.5-1.59-.93-3.01-2.85-2.86-6.71-1.16c-4.2 1.85-2.57 4.83-3.02 8.03-1.99 14.19-5.33 27.81-6.78 42.06-.93 9.22 6.79 12.94 14.63 12.33 11.01-.84 22.95-6.08 28.64-16.04.59-1.02 1.21-3.41 1.4-4.83q1.15-8.73 1.7-11.05 3.14-13.17 3.71-18.55.71-6.74 1.77-8.82a1.486 1.459-37.962 0 0 .13-.98q-.67-2.88-4.29-2.99-4.95-.15-6.81 2.88a2.361 2.36 59.34 0 0-.35 1.37l.14 2.26a7.678 7.49 49.483 0 1-.12 1.82c-1.61 8.76-2.95 13.61-4.02 21.65q-.4 2.96-2.45 11.29-1.06 4.32-3.12 6.38c-4.19 4.18-10.45 5.72-16.02 5.61m51.63-27.8l1.75-11.26a2.084 2.084 1.28 0 1 1.82-1.74l18.01-1.98a3.764 3.189 40.269 0 1 .65 0c1.85.2 3.72.7 5.45.12 3.78-1.26 6.85-6.99 2.95-9.9a2.149 2.042 66.437 0 0-.9-.38c-3.2-.53-6.44.71-9.22.98-4.3.42-10.13 1.47-15.45 1.49a1.09 1.06 65.452 0 1-.72-.28l-1.67-1.53a1.257 1.145 72.444 0 0-.5-.29q-8.52-2.45-11.24 5.61-.67 1.97.64 6.23a4.272 4.204-50.116 0 1 .15 1.84q-.63 4.67-2.11 11.59c-.54 2.55-3.08 3.57-2.58 6.62q.05.31.54 3.77a3.583 3.35-45.942 0 1-.02 1.17l-2.47 13.26a10.792 10.742 63.302 0 1-.85 2.59c-.8 1.83-1.94 3.28-1.84 5.38q.12 2.75 2.49 3.68c4.9 1.9 8.83-1.42 13.67-1.57q10.39-.33 21.69-1.26c4.54-.38 7.99-4 5.46-8.49-1.08-1.91-3.77-2.44-5.43-1.82q-4.64 1.73-9.68 1.91-10.15.36-14.7 1.01a.524.518.768 0 1-.59-.6l2.61-15.4a.702.697-88.824 0 1 .59-.57q10.87-1.42 19.21-1.23a3.374 3.315 37.372 0 0 .96-.12q5.53-1.57 4.96-7.06c-.34-3.32-3.89-4.72-6.51-3.79-5.59 1.99-10.94 2.04-16.52 2.66a.558.547-88.723 0 1-.6-.64m410.21 26.54l7.92-43.74a3.137 3.085 62.961 0 1 .23-.73l1.2-2.6a2.32 2.317 38.41 0 0-.28-2.41c-3.07-3.89-8.31-3.18-10.91.8a1.681 1.6 59.334 0 0-.25 1.09q.14 1.24-.26 3.62-3.27 19.53-8.11 44.5-.23 1.21-1.89 4.78a2.732 2.725-40.839 0 0-.14 1.89q1.25 4.34 6.12 3.54 14.48-2.38 24.02-2.47a3.012 2.836 32.688 0 0 1.07-.2q5.09-1.92 4.24-7.21c-.82-5.02-5.84-3.05-9.12-1.9a2.185 2.027-56.612 0 1-.49.12l-12.81 1.5a.496.493 2.168 0 1-.54-.58m214.948 56.694a1.57 1.57 52.616 0 0-1.284-2.474H202.686a1.57 1.57-32.894 0 0-1.284 2.474l38.949 55.31a1.57 1.57 82.253 0 0 1.284.666h752.99a1.57 1.57 87.752 0 0 1.284-.666zM928.73 1151.94H307.65a.311.31-22.482 0 0-.22.53q13.17 13.07 23.4 23.2 10.5 10.39 23.79 21.93 23.3 20.22 40.76 34.17 12.89 10.3 31.96 23.9 22.78 16.25 32.69 22.8 43.28 28.63 92.24 53.27 25.47 12.82 62.78 29.21 3.09 1.36 5.83.19c15.64-6.7 34.47-14.85 52.65-23.99q25.33-12.73 28.65-14.48 23.03-12.16 48.3-27.72 2.29-1.41 23.52-14.7 8.74-5.47 34.77-23.67c9.39-6.56 18.24-13.81 28.65-21.72 14.22-10.81 27.62-22.47 42.58-35.35 2.86-2.46 5.29-5.06 8.46-7.84q18.78-16.48 36.84-35.89c1.21-1.29 2.75-2.24 3.7-3.19a.382.381-67.654 0 0-.27-.65" fill="#272a83"/><path d="M1044.82 363.62l-36.54-.78a1.189 1.188-5.163 0 1-1.14-.95l-3.19-15.7q-.26.13-.12-.25.07-.21.02-.43-2.42-11.7-8.18-45.86-.07-.41-.36-.97a2.128 2.091-60.018 0 1-.22-.85q-.26-6.15-1.28-12.45-3.38-20.77-5.13-31.06a1.547 1.547-11.623 0 1 1.16-1.76l3.35-.83a1.302 1.298-39.467 0 0 .24-2.44l-5.38-2.49a1.023 1.018-80.981 0 1-.6-.83l-1.04-8.87a.983.975 6.993 0 0-.63-.8l-13.7-5.25q.1-18.67-.11-35.3-.03-2.61 2.41-2.71a.762.756-4.61 0 0 .72-.84q-.45-3.88-2.52-7.67-7.16-8.06-18.57-8.84c-9.75-.66-21.5 3.04-24.73 13.33-.69 2.21.05 3.27 1.91 4.49q2.54 1.67 3.88 4.02a1.199 1.19-59.716 0 1 .15.58l-.33 26.65a.743.741-83.913 0 1-.89.72c-5.39-1.08-10.13-1.8-14.11-2.66q-24.46-5.29-57.75-13.12c-10.91-2.57-21.4-4.36-31.93-6.99-3.31-.83-7.42-1.25-11.15-1.98l-.74-22.62a2.115 2.074 31.197 0 0-.21-.82q-.88-1.76-2.92-2.23-12.52-2.89-24.68-6.3-3.65-1.03-40.24-10.25-3.14-.79-6.29-1.08l-35.62-.25a1.98 1.98.144 0 0-1.99 1.98v12.94a.761.756 3.378 0 1-.85.75q-12.65-1.61-22.43-3.18-2.12-.34-2.07-2.39.13-5.27.37-7.88a1.52 1.52 6.651 0 0-1.29-1.63c-3.07-.44-7.2-.8-11.12-.75q-10.63.12-21.11.18-4.5.03-8.4 2.55-25.37 16.35-48.41 31.63a2.53 2.522 73.016 0 0-1.14 2.15q.09 8.2-.29 15.75-.03.5-.7 1.29l-15.78 11.69a2.318 2.295-61.377 0 1-1.47.44l-35.21-1.76a.401.354-30.128 0 1-.15-.03q-1.64-.59-5.3-.16a.043.026-76.717 0 0-.03.03q-.03.11-.08.24a.139.131 8.715 0 1-.13.09q-2.64-.12-6.72.01-9.61.33-22.72.84-5.75.22-9.9.98-6.08 1.13-6.56 1.12-3.11-.04-6.5 1.18-.8.28-13.24 3.35a4.098 3.883 24.743 0 0-.62.21q-2.43 1.12-4.47 1.49a5.82 5.735 28.319 0 0-1.2.35q-11.84 4.93-14.28 6.18-21.14 10.84-47.92 25.91c-14.28 8.04-28.03 15.07-41.81 22.64q-1.65.91-4.09.89c-5.95-.04-11.31.41-17 .23q-11.84-.39-17.72.17-3.44.33-10.55 2.38c-9.97 2.87-23.43 6.33-30.36 7.81q-6.62 1.41-11.86 1.59a.972.971-1.135 0 1-1.01-.97v-20.45a1.863 1.863-3.286 0 1 1.65-1.85l3.37-.39a1.36 1.359 78.101 0 0 1.14-1.75c-2.55-8.23-8.38-15.03-17.16-16.49-9.64-1.61-21.66 1.71-25.59 11.52q-.57 1.41-.16 2.94a1.039 1.015-82.694 0 0 .46.61q1.69 1.04 2.11 1.03a.713.705 81.904 0 1 .71.54c.75 2.91.12 5.86.15 8.54q.27 20.82.24 21.96a.936.934-1.351 0 1-.87.91c-5.52.41-10.51.72-16.16 2.6q-10.78 3.59-16.86 5.82a2.12 2.12-10.079 0 0-1.39 1.99v13.15a2.3 2.3 84.138 0 1-1.83 2.25l-24.01 5.02q-3.67-.24-5.98.27-17.02 3.76-33.98 6.19-.77.11-1.92.52-.95.35-1.94.5a.007.004 58.283 0 0 0 .01v.01a.066.041 58.283 0 0 .04.02q.55-.08 1.01.14-17.91 3.5-35.75 7.26-6.34 1.33-14.7 1.98a.86.856-88.633 0 1-.92-.97q2.36-17.74 5.97-32.95 1.82-7.69 3.22-14.74.77-3.85 3.44-14.69 6.18-25.04 7.59-30.96a1.204 1.119 74.524 0 1 .27-.52l.05-.06a.595.528-21.018 0 0 .14-.27q.75-3.17 4.29-15.89c2.72-9.77 5.97-18.68 8.59-27.71q1.32-4.58 3.88-12.05 5.5-16.05 9.93-27.21.75-1.88 3.33-2.77 5.04-1.73 9.2-3.65 10.76-4.94 17.21-7.32 3.95-1.46 6.55-2.74c5.99-2.95 12.93-4.9 18.8-7.24 9.83-3.9 18.52-6.61 28.11-10.04 9.63-3.43 19.73-6.09 29.45-9.45 5.9-2.03 12.18-3.43 18.11-5.35 7.96-2.57 14.39-3.77 21.68-6.09q2.85-.9 8.69-2.41 9.08-2.34 29.06-7.08 15.65-3.72 20.13-4.61 3.52-.7 3.96-1.08a1.479 1.416 23.867 0 1 .94-.34c3.48.02 8.2-1.79 11.53-2.16q1.9-.21 12.29-2.28 6.79-1.35 12.27-2.26 18.83-3.12 33.69-5.82 16.38-2.99 29.04-4.58 21.44-2.7 29.18-3.64.61-.07 1.01-.35a.944.942 29.118 0 1 .6-.17q3.02.17 7.57-.4.62-.07 6.16-.63c5.36-.54 12.53-1.43 18.9-1.74q7.05-.33 18.11-1.5 5.22-.55 9.34-.6 2.04-.03 6.21-.56c5.62-.71 13.54-.38 17.35-.6q26.73-1.55 33.75-1.67 29.41-.52 63.08-.17 8.39.09 20.32.73 8.08.44 20.34.95.83.04 1.54.06 8.03.31 13.47.27 1.46-.01 3.82.53a4.761 4.615 52.235 0 0 .91.13q18.81.96 25.78 1.63 18.69 1.81 19.47 1.95.53.1 15.68 1.54 9.17.87 15.64 1.78 45.25 6.37 48.2 6.9c1.44.27 3.26.98 4.55 1.18q42.35 6.65 84.51 16.29 5.52 1.26 23.96 5.88 1.69.42 24.4 6.52c11.85 3.18 20.18 5.95 34.36 10.08q.37.11 14.62 4.64 7.63 2.42 14.56 4.82 35.54 12.27 44.74 16.16 19.94 8.42 35.48 15.03c1.89.8 3.07 2.92 3.83 5.03q5.11 14.11 10.72 30.86.22.65.44.75.32.15.23.49-.03.12.11.57 1.6 5.2 6.68 21.64.07.2.33 1.07c5.63 18.8 9.59 33.89 14.28 51.96q2.02 7.79 3.96 16.8 4.18 19.49 7.59 39.19 3.3 19.02 4.88 28.18.23 1.32.84 3.71.48 1.84.38 3.91-.05.96.7 3.35.48 1.57.48 3.45-.01.31.3.8a1.396 1.285-67.083 0 1 .19.53l1.29 10.48a1.667 1.302 52.018 0 1 0 .35q-.23 2.77.38 4.88a.619.618 87.359 0 1-.71.78q-18.1-3.32-36.96-8.44-2.23-.61-3.61-2.31a.907.842-69.407 0 1-.18-.44l-.78-6.61a2.221 2.219-86.854 0 0-1.71-1.91c-13.31-3.02-24.16-5.71-37.45-8.34q-22.82-4.52-44.32-9.18" fill="#ff4d00"/><path d="M647.87 157.2l-3.51 2.84a.994.988-18.917 0 0-.37.75l-.12 6.1a2.562.936-81.515 0 0 .01.33l.8 8.95a2.644 2.627-35.651 0 1-.21 1.25q-.64 1.47-2.61 2.69c-7.14 4.45-13.36 7.54-20.9 12.16q-13.39 8.19-24.99 13.93-3.26 1.62-5.54 4.34a.985.975-77.312 0 1-.5.32q-.68.18-1-.29.67-.79.7-1.29.38-7.55.29-15.75a2.53 2.522 73.016 0 1 1.14-2.15q23.04-15.28 48.41-31.63 3.9-2.52 8.4-2.55m96.11.23q3.15.29 6.29 1.08 36.59 9.22 40.24 10.25 12.16 3.41 24.68 6.3 2.04.47 2.92 2.23a2.115 2.074 31.197 0 1 .21.82l.74 22.62q-.34-.03-.55-.23-.35-.33-.2-.57.66-1.04.01-1.01a.163.159 10.659 0 0-.15.1l-.28.6a.622.618 24.936 0 1-.83.3q-3.32-1.57-9.13-2.62-5.37-.97-13.47-2.43-4.97-.89-13.24-3.35-17.24-5.13-35.33-8.85-3.24-.67-3.41-3.92c-.39-7.43.56-13.84-.34-20.56a.711.702 77.292 0 1 .48-.77q.54-.17 1.36.01m-83.76 78.86a.98.975 9.588 0 1-1.3.92q-5.4-1.86-12.37-5.22-2.81-1.35-10.45-3.09c-15.87-3.6-32.52-5.31-48.42-5.01a1.029 1.029-63.081 0 1-.61-1.87l1.55-1.1a7.256 7.118-74.605 0 1 1.05-.61q7-3.36 11.62-6.1 7.5-4.47 11.29-6.47 16.3-8.62 45.17-25.2.55-.31.88-.2 1.2.38 1.22 1.68.44 22.41.37 52.27m311.86-5.24l-2.18-6.94a2.829 2.825-88.203 0 0-1.66-1.77q-5.06-1.98-9.59-6.32a1.504 1.481 21.002 0 1-.45-.99q-.06-1.08.73-2.8 2.37-5.17 8.41-6.71a1.799 1.793-1.577 0 0 1.32-1.39l3.92-19.6q2.07 3.79 2.52 7.67a.762.756-4.61 0 1-.72.84q-2.44.1-2.41 2.71.21 16.63.11 35.3m-3.3-42.83a.621.621-18.026 0 1-.54 1.06q-6.35-1.16-11.72-.86-12.54.71-15.04.99-1.83.2-2.93-.25a.659.657-41.386 0 1 .08-1.24q13.35-3.76 27.05-1.07 2.1.41 3.1 1.37m-134.842 87.295a1.03 1.03 0 0 1-1.031 1.028l-3.98-.006a1.03 1.03 0 0 1-1.029-1.032l.024-13.34a1.03 1.03 0 0 1 1.031-1.028l3.98.006a1.03 1.03 0 0 1 1.029 1.032zM662.51 412.31a.89.89 0 0 1-.89.89h-1.18a.89.89 0 0 1-.89-.89V262.19a.89.89 0 0 1 .89-.89h1.18a.89.89 0 0 1 .89.89zM323.58 304.59q-1.06 1.25-1.51 2.23-4.75 10.31-10.32 17.42-2.12 2.7-3.98 7.78-2.98 8.12-6.88 20.08-.87 2.67-1.3 5.91-1.04 7.88-1.02 22.59a2.68 2.67-.106 0 1-2.68 2.68h-.85a2.57 2.57 45 0 1-2.57-2.57v-24.67a6.228 6.145-55.33 0 0-.37-2.11c-2.43-6.67-4.34-12.11-7.29-17.87q-.76-1.48-2.7-5.89-.72-1.64-3.98-3.82a2.259 2.251-79.743 0 1-.96-1.39l-1.83-8.18a1.017 1.015-11.469 0 1 .81-1.22c12.48-2.26 26.49-6.92 39.1-10.05 1.39-.35 5.44-2.45 7.84-2.15a.756.754 23.349 0 1 .49 1.23" fill="#0e114d"/><path d="M168.05 335.42q-11.85 2.57-23.79 4.44-1.3.21-4.07 1.15a6.904 6.677-54.086 0 1-1.92.34q-5.33.17-6.05.4-3.45 1.07-6.94 1.33-.46-.22-1.01-.14a.066.041 58.283 0 1-.04-.02v-.01a.007.004 58.283 0 1 0-.01q.99-.15 1.94-.5 1.15-.41 1.92-.52 16.96-2.43 33.98-6.19 2.31-.51 5.98-.27" fill="#c19142"/><path d="M1003.95 346.19l3.19 15.7a1.189 1.188-5.163 0 0 1.14.95l36.54.78q-1.31 3.92-4.2 7.27-2.08 2.4-6.53 5.28c-5.62 3.64-11.46 8.42-17.8 10.46a2.14 2.136-22.566 0 1-2.55-1.05q-1.71-3.3-2.49-7.27c-.66-3.34-2.43-6.71-2.75-9.74a3.915 3.895-66.845 0 0-.76-1.91q-1.5-1.98-1.75-3.16-2.02-9.32-2.75-12.09a4.099 4.055-52.827 0 1-.14-1.06v-3.89a.361.356 4.797 0 1 .42-.35zm55.94 47.3a.247.245-42.842 0 1 .02-.49q12.25-.66 34.09-.93c11.55-.15 22.72 1.41 34.1 4.26 12.62 3.16 25.47 5.74 36.38 8a2.617 2.58-9.446 0 1 2.06 1.45l.04.08a.611.608-9.944 0 1-.62.88z" fill="#0e114d"/><path d="M1177.5 492.37a1.95 1.95 0 0 1-1.95 1.95H60.23a1.95 1.95 0 0 1-1.95-1.95v-9.4a1.95 1.95 0 0 1 1.95-1.95h1115.32a1.95 1.95 0 0 1 1.95 1.95zM618.314 648.097c179.931.011 363.446.113 550.584.061a1.147 1.143 4.546 0 1 1.132 1.322l-8.65 55.5a1.362 1.359-85.579 0 1-1.341 1.152q-7.365.032-541.728-.001-534.363-.032-541.728-.066a1.362 1.359 85.586 0 1-1.341-1.152l-8.643-55.501a1.147 1.143-4.539 0 1 1.132-1.322c187.138.075 370.653-.004 550.583.007" fill="#ff4d00"/><path d="M270.03 829.49a.92.914-10.541 0 0-.91-.62l-43.56 2.37a1.812 1.804-75.295 0 0-1.43.84l-15.03 23.73a16.562 16.127-19.122 0 0-1.52 3.03q-.63 1.64-2.53 10.62-1.01 4.8-5.98 7.12c-3.18 1.49-12.25 2.28-15.15-1.46-4.6-5.96-.2-14.12 3.48-19.73 6.35-9.7 13.06-20.68 19.19-29.83q11.03-16.48 37.96-57.24 4.85-7.34 8.9-18.13 3.08-8.22 12.67-9.25c4.36-.47 7.48 1.32 9.55 5.14s.46 6.44-1.76 9.61a3.629 3.592-31.096 0 0-.63 2.49q1.11 9.28 4.21 19.86 9.98 34.01 16.32 58.9 2.92 11.42 4.28 21.57c.34 2.56.18 6.63-.73 9.55q-3.34 10.61-15.81 9.59-7.9-.64-8.63-7.8a3.659 3.618-40.279 0 1 .12-1.36c.9-3.24 3.55-5.93 3-10.21-.82-6.38-3.1-13.73-3.94-19.11q-1.04-6.67-2.07-9.68m-4.958-18.125a.54.54-11.59 0 0 .498-.658l-6.95-30.938a.54.54 89.028 0 0-.986-.166l-20.098 32.407a.54.54-10.258 0 0 .488.824zM496.04 829.35a1.023 1.019-17.355 0 0-.94-.49l-44.05 2.39a1.498 1.475 14.763 0 0-1.17.67q-7.74 11.94-13.43 21.78-3.18 5.51-3.73 8.54c-1.29 7.05-1.79 12.57-9.32 14.83-4.13 1.24-10.45 1.43-13.64-2.13-2.95-3.29-2.36-8.58-.35-12.28q6.12-11.3 15.62-25.87 17.62-27.02 40.06-60.3c4.4-6.52 8.6-13.3 12.11-21.02 1.6-3.52 2.63-8.35 5.94-11.03 6.91-5.59 19.07-5.11 19.06 6.31a2.47 2.417-31.242 0 1-.3 1.17l-1.98 3.64a2.861 2.83 58.082 0 0-.34 1.5q.56 9.76 1.63 13.48c9.95 34.72 15.22 51.04 20.59 76.18q1.46 6.83 1.89 14.54c.41 7.22-3.57 15.62-11.56 16.3-6.05.52-12.4-.25-12.59-7.83-.06-2.27.82-4.4 1.51-6.6a11.546 11.448 51.313 0 0 .47-4.42c-.7-8.02-2.27-14.24-5.23-28.75q-.06-.29-.25-.61m-4.737-18.079a.47.47-36.344 0 0 .43-.582l-7.615-30.747a.47.47 67.712 0 0-.856-.135l-20.007 32.247a.47.47-61.757 0 0 .425.717zm539.717 18.419a1.38 1.38-11.583 0 0-1.38-.91l-43.09 2.34a1.123 1.111 15.544 0 0-.86.48q-10.01 15.06-14.03 21.54-3.69 5.95-4.13 8.64c-1.15 7.12-1.84 14.38-10.5 15.74-3.59.56-10.8.36-12.84-3.52-2.2-4.19-1.03-8.97 1.06-13q3.92-7.53 9.49-16 19.29-29.34 39.06-58.99c3.93-5.88 10.14-15.71 13.67-21.05q3.94-5.97 5.39-11.1 1.3-4.65 2.77-6.64 4.53-6.15 12.04-6.17 3.86-.01 6.03 1.68c2.97 2.32 4.64 7.19 2.57 10.56q-1.87 3.04-1.89 3.08a3.363 3.301 56.779 0 0-.37 1.86q.53 6.15 1.27 8.74 12.44 43.53 18.25 65.23 2.86 10.7 4.71 21.55c.82 4.82 1.53 9.8.03 14.22q-3.71 10.86-16.45 9.98-5.95-.41-7.73-6.01c-1.2-3.77 1.46-8.16 2.16-10.46a4.352 4.317 53.741 0 0 .19-1.27q.01-3.78-.88-8.23-3.59-17.84-4.22-21.04-.17-.83-.32-1.25m-4.283-18.437a.35.35-85.703 0 0 .321-.434l-7.798-31.463a.35.35 32.402 0 0-.638-.101l-20.468 32.995a.35.35-55.484 0 0 .316.534zM398.57 766.13a1.796 1.779-81.347 0 0-.75-1.03q-10.6-6.97-22.07-.81c-8.5 4.57-14.49 10.39-20.2 18q-9.45 12.59-15.51 27.94c-2.89 7.34-4.14 14.76-5.3 22.27q-1.17 7.52 1.25 15.14 5.37 16.93 22.75 12.41 10.35-2.7 19.8-10.51 4.31-3.57 5.39-7.08.91-2.95 1.75-4c4.59-5.71 15.05-7.34 19.1.06q1.98 3.64-.11 8.43c-3.57 8.16-9.46 12.66-16.97 18.06q-9.66 6.95-21.5 11.7c-11.55 4.63-23.7 5.65-35.14.72-6.97-3.01-12.63-9.8-14.91-16.3-4.13-11.79-3.48-24.96-1.31-37.45q1.46-8.45 5.14-17.8c8.82-22.4 24.09-44.16 44.91-56.71q8.21-4.95 17.35-5.87c10.07-1.01 18.98-.26 28.43 4.53 8.19 4.14 13.9 13.81 8.39 22.55q-4.38 6.96-13.39 5.91c-5.98-.69-5.85-5.7-7.1-10.16M578.4 750.9a.504.502 74.903 0 0 .78.45q1.79-1.17 5.04-2.37.85-.31 13.52-3.7 5.59-1.49 15.99-1.9c15.2-.59 27.54 6.72 33.73 20.18q6.58 14.3 2.36 32.24c-6.78 28.79-25.26 52.99-50.78 67.27-12.82 7.17-26.47 12.63-40.9 15.37-6.05 1.14-17.6 2.76-21.6-1.24-5.03-5.03-1.13-12.03 1.18-17.15a8.142 7.974-28.762 0 0 .59-1.95c1.6-9.37 3.5-17.18 4.83-25.74q.87-5.57 11.69-67.83.73-4.23.7-6.35c-.07-3.95-.4-7.59 2.59-10.3q4.46-4.04 11.13-4.34c4.39-.19 9.45 2.32 9.15 7.36m-18.24 107.15q10.75-1.63 13.56-2.6 18.42-6.39 32.43-19.55 2.94-2.76 7.34-8.89 7.94-11.06 12.05-22.49c4.65-12.94 6.57-23.72-1.45-34.86-3.87-5.38-12.05-8-18.17-7.5-9.52.77-19.82 4.66-29.73 9a1.784 1.761 2.492 0 0-.84.76q-.96 1.75-1.22 3.26-1.4 8.1-2.21 11.86c-2.19 10.09-2.97 18.48-5.11 28.08q-.67 3.03-2.31 13.33-.89 5.64-2.47 13.31-.52 2.55-2.37 15.8a.437.436-.505 0 0 .5.49m118.28-.74q.02.02.24.11a.388.341-34.627 0 0 .17.02q6.57-.86 10.65-1.12 16.3-1.03 35.9-2.14c2.39-.13 4.68-2.28 6.66-2.68 7.57-1.52 14.91 2.48 13.3 10.85-.6 3.1-1.23 5.57-3.88 7.39q-4.41 3.01-8.48 3.01c-11.84-.01-25.81 1.93-37.9 2.91q-11.48.92-17.35 1.41-4.43.38-9.15 2.49c-2.85 1.27-9.89 1.35-12.69-.86-3.82-2.99-4.3-8.67-2.44-12.75 2.31-5.08 4.18-8.97 5.12-15.05q2.03-13.31 4.83-27.86a1.378 1.356 41.183 0 0-.05-.67l-1.57-4.64a4.449 4.226 34.065 0 1-.22-1c-.46-4.8 1.47-7.87 3.99-11.48a9.289 9.259-22.237 0 0 1.53-3.63l5.33-28.09a2.028 2.025 29.098 0 0-.5-1.75c-3.56-3.93-2.08-8.65.11-12.92q1.81-3.53 2.11-6.92.21-2.36 3.34-4.73c5.19-3.93 17.24-5.32 19.14 3.63a1.022 1.007-6.183 0 0 1.01.8c11.11-.18 21.96-2.53 33.07-3.19q6.87-.41 9.65-.96a2.63 2.502 21.225 0 0 .9-.37q7.44-4.92 14.86.12c5.61 3.81 1.8 13.48-1.56 17.11q-4.02 4.34-10.87 4.32a3.275 3.063-32.88 0 1-1-.18q-3.75-1.35-5.44-1.38c-6.73-.1-15.57 1.76-22.78 2.17q-10.38.6-19.96 1.84a1.124 1.118 1.42 0 0-.95.9l-5.44 28.69a.63.63-87.65 0 0 .69.75l31.57-3.69a4.471 4.321 27.544 0 0 1.42-.42c4.23-2.05 9.33-4.31 13.92-1.69q6.16 3.52 4.68 11.23c-1.62 8.46-9.73 12.68-17.58 10.09a6.661 6.599-38.925 0 0-2.85-.29l-34.39 4.03a.88.876 2.202 0 0-.77.71c-1.58 8.06-2.72 12.42-3.58 19.39q-.89 7.23-3.16 15.48a.938.927-65.47 0 0 .37 1.01m148.16-19.54a.179.176-36.012 0 0 .33.05q7.7-14.11 17.93-26.71 6.18-7.61 22.09-27.16 2.48-3.05 9.3-13.46c2.5-3.82 4.27-8.49 5.04-11.98q.24-1.09.91-7a3.393 3.301 64.348 0 1 .46-1.37q2.06-3.46 5.03-4.74c4.55-1.98 11.88-1.98 15.68 1.72 4.32 4.2 2.63 8.96.89 15.09-.78 2.76-2.38 7.78-2.73 11.46q-.85 8.84-2.45 15.66c-2.1 8.98-2.72 18.82-4.99 27.5-1.7 6.51-2.33 12.93-3.64 19.66-2.37 12.29-4.32 21.05-3.53 31.01a3.054 3.044-28.398 0 1-.63 2.1l-4.33 5.61a1.606 1.544-82.398 0 1-.59.47q-7.13 3.24-13.83 1.66-5.68-1.34-5.52-7.51c.08-2.75 2.78-5.27 3.37-7.89q2.24-9.92 4.94-25.54c2.23-12.97 4.46-23.93 6.49-37.01a.26.259-21.331 0 0-.46-.2c-.98 1.24-1.59 2.9-2.49 4.11-8.76 11.79-22.09 29.55-33.51 46.81q-7.16 10.82-9.41 19.85a4.64 4.629-17.037 0 1-1.07 2.01q-5.55 6.2-13.45 5.12c-10.61-1.46-7.89-11.1-7.48-18.33q.15-2.67-.79-7.93-4.68-26.31-15.15-52.02a.248.244-51.864 0 0-.47.06l-9.94 58.6a1.478.827-55.798 0 0-.02.23l.33 8.72a4.808 4.615 53.953 0 1-.22 1.61q-3.52 11.21-15.47 9.66-8.4-1.09-7.66-10.28a3.677 3.438-34.33 0 1 .21-.94c1.32-3.61 2.24-5.53 2.77-8.65 1.3-7.66 3.14-14.36 4.46-22.1q3.25-18.9 8.81-51.33 1.68-9.75 2.3-12.49 1.85-8.12 2.19-12.51.41-5.34 2.29-8.08c3.67-5.34 11.62-8.62 17.5-4.38 4.45 3.21 3.34 7.04 2.69 11.78a3.134 3.08-47.681 0 0 .04 1.05c3.28 15.52 8.99 30.59 14.56 45.33q6.04 15.96 9.22 32.68m102.41-73.38c-1.85-6.49-.78-9.67 3.68-14.73 5.09-5.76 16.8-7.97 21.24.17 3.2 5.89-.05 10.76-3.27 15.59-1.08 1.62-1.81 5.18-2.07 7.67q-.7 6.89-1.8 11.99-2.03 9.5-2.31 11.91c-.85 7.32-3.12 15.34-4.27 23q-2.28 15.21-3.04 18.95-2.12 10.32-2.76 16.99c-.32 3.28-.06 5.48.1 8.62.45 8.77-7.51 13.48-15.51 13.19q-3.91-.14-5.83-1.03c-4.71-2.19-5.67-8.11-4.29-12.59q.82-2.65 3.14-5.48a3.869 3.813-19.301 0 0 .76-1.55c.78-3.32 1.09-9.36 2.23-13.73 2.11-8.08 2.87-16.43 4.52-25.24q.64-3.42 9.58-51.64a4.704 4.636-48.158 0 0-.1-2.09" fill="#fff"/><path d="M559.66 857.56q1.85-13.25 2.37-15.8 1.58-7.67 2.47-13.31 1.64-10.3 2.31-13.33c2.14-9.6 2.92-17.99 5.11-28.08q.81-3.76 2.21-11.86.26-1.51 1.22-3.26a1.784 1.761 2.492 0 1 .84-.76c9.91-4.34 20.21-8.23 29.73-9 6.12-.5 14.3 2.12 18.17 7.5 8.02 11.14 6.1 21.92 1.45 34.86q-4.11 11.43-12.05 22.49-4.4 6.13-7.34 8.89-14.01 13.16-32.43 19.55-2.81.97-13.56 2.6a.437.436-.505 0 1-.5-.49m467.077-46.307l-28.267 1.531a.35.35-37.017 0 1-.316-.534l20.468-32.995a.35.35-89.229 0 1 .638.101l7.798 31.463a.35.35-58.177 0 1-.321.434m-535.434.018l-27.623 1.5a.47.47-42.702 0 1-.425-.717l20.007-32.247a.47.47-88.555 0 1 .856.135l7.615 30.747a.47.47 25.744 0 1-.43.582m-226.231.094l-27.048 1.469a.54.54 51.645 0 1-.488-.824l20.098-32.407a.54.54-83.468 0 1 .986.166l6.95 30.938a.54.54-40.8 0 1-.498.658" fill="#272a83"/><path d="M1188.82 802.39q-1.25 4.56-2.67 8.79c-10.19 30.38-20.47 61.42-30.72 85.55q-7.07 16.65-10.92 25.3-20.02 44.94-43.67 85.96-7.97 13.82-14.01 23.34-4.6 7.26-9.58 15.43-4.09 6.7-9.93 15.17-29.11 42.15-59.37 78.52-16.62 19.98-39.66 44.46c-6.04 6.43-12.25 11.74-17.82 17.71-4.74 5.09-10.65 10.41-16.11 15.84q-3.14 3.12-6.6 6.17c-12.85 11.35-23.86 21.7-35.99 31.46q-23.5 18.91-43.56 33.86c-13.94 10.4-25.81 19.15-37.65 26.38q-2.61-10.29-10.46-16.29a.538.537 46.375 0 1 .02-.87q10.95-7.49 20.06-14.28 10.09-7.53 15.78-11.19 4.58-2.95 6.05-8.01 34.63-26.07 62.53-51.41 16.53-15 41.87-40.51c8.88-8.94 17.75-19.02 26.56-28.79q19.59-21.73 35.74-42.51 6.96-8.96 21.28-28.22 11.16-15.02 28.51-41.73 13.15-20.25 33.64-56.85 14.14-25.26 33.24-67.35 3.52-7.76 9.45-22.75 7.92-20.03 9.02-22.91 11.53-30.19 15.51-43.79 3.58-12.26 7.38-24.7c4.48 12.27 10.89 13.54 22.08 8.22" fill="#c19142"/><path d="M566.96 967.18c-7.6 5.67-17 9.17-26.02 5.69-8.4-3.24-9.53-15.38-8.33-23.06 1.68-10.75 6.97-20.5 13.73-28.72q4.13-5.02 11.76-9.74 5.86-3.62 13.16-3.32c5.18.21 8.84 3.17 11.36 7.62 5.35 9.45 2.12 18.56-.24 29.04-2.05 9.09-7.93 16.91-15.42 22.49m8.09-40.39c-.17-8.85-6.43-12.1-13.87-7.33-11.28 7.22-21.31 27.09-17.44 40.3 2.49 8.49 14.16 4.32 18.26.43q13.45-12.8 13.05-33.4m345.114 40.228c-7.527 5.696-16.86 9.245-25.862 5.843-8.384-3.167-9.593-15.244-8.451-22.897 1.598-10.713 6.797-20.455 13.469-28.684q4.077-5.025 11.639-9.776 5.809-3.644 13.077-3.396c5.158.174 8.822 3.095 11.361 7.507 5.391 9.37 2.238 18.461-.039 28.909-1.978 9.063-7.777 16.887-15.194 22.494m7.991-40.26c-.182-8.815-6.423-12.042-13.826-7.28-11.224 7.209-21.184 27.016-17.309 40.167 2.493 8.453 14.11 4.282 18.188.401q13.377-12.77 12.947-33.288M511.67 923.65a.533.533-1.804 0 0-.65-.61l-10.84 2.69a4.053 4.049-6.338 0 1-5.03-4.02l.03-1.41a4.73 4.721-89.521 0 1 4.79-4.72q8.93.13 17.42-2.91a8.379 8.337 34.103 0 1 2.58-.49q7.73-.24 15.03-2.44c2.7-.81 5.81-1.27 7.12 1.89 1.34 3.25-.43 6.05-3.33 7.51q-1.08.55-3.59.4-5.44-.32-12.27 1.49a1.02 1.015-5.656 0 0-.75.91q-.35 4.17-1.53 9.77-1.95 9.21-3.57 20.91c-.82 5.9-2.74 11.69-2.46 17.2a1.949 1.941 75.714 0 1-1.1 1.86q-4.07 1.94-7.58.76a2.988 2.974-75.947 0 1-1.98-3.32zm173.62 26.25l-18.23.99a2.587 2.578-77.194 0 0-2.12 1.34q-2.65 4.93-6.31 10.4-1.95 2.93-2.39 7.1c-.35 3.32-6.08 3.12-8.42 2.52a1.754 1.738 77.087 0 1-.9-.57c-2.94-3.48.23-7.67 2.53-11.63q2.11-3.62 3.33-5.42 6.91-10.14 17.95-27.13 6.05-9.3 7.12-11.31a9.087 7.591-62.916 0 0 .53-1.17c1.29-3.26.71-5.53 5.38-5.79q2.87-.16 4.5.73a1.991 1.982 86.305 0 1 .68.6c1.25 1.79.41 4.34-.32 6.41a2.978 2.958 48.889 0 0-.1 1.55c.79 3.78 1.86 9.29 3.03 13.04q4.7 15.08 7.09 25.56 1.18 5.18 1.13 9.37c-.06 5.42-5.32 7.32-9.89 5.89a2.707 2.696-80.507 0 1-1.89-2.66q.05-1.93 1.08-4.38a3.798 3.783-40.546 0 0 .19-2.38l-3.07-12.4a.881.879 81.187 0 0-.9-.66m-13.1-7.6l10.78-.59a1.075 1.075-7.937 0 0 .99-1.31l-2.78-12.37a.352.35 54.578 0 0-.64-.11l-8.63 13.91a.311.309-75.922 0 0 .28.47m-30.67-22.62c-7.63-2.13-12.98 1.84-17.75 7.6q-7.59 9.18-10.18 19.98c-1.64 6.82-1.26 18.32 8.72 17.08q6.85-.84 11.64-5.99c1.73-1.86 1.22-4.8 4.49-5.37 3.76-.65 7.6-.59 6.9 4.4q-.39 2.74-2.6 5.07-8.64 9.07-19.51 11.45c-8.72 1.91-17.94-1.35-19.9-10.74-3.51-16.78 5.67-34.27 16.7-45.62q1.83-1.88 6.09-4.48 10.57-6.45 21.9-.83c1.51.76 4.04 3.04 4.61 4.76 1.83 5.59-3.03 10.82-8.9 8.1a1.116 1.109-84.024 0 1-.62-.77l-.88-3.89a1.003.998-88.564 0 0-.71-.75M464.69 941.9a.369.364-28.607 0 0-.19.63l21.72 19.96a.975.945-19.33 0 0 .52.24l3.61.45a.434.306 54.827 0 1 .14.05c3.13 2.06 2.6 5.43.4 7.83q-1.76 1.92-5.07 1.94c-4.88.03-6.99-4.37-9.94-7.13q-9.97-9.3-19.51-17.04a.354.351-65.033 0 0-.57.21l-2.67 14.08a2.423 2.215 50.571 0 0-.03.57l.29 4.31a2.994 2.98-24.493 0 1-.87 2.31q-3.48 3.45-8.52 2.06c-4.72-1.3-2.25-5.73-.91-9.07a8.328 8.045 60.939 0 0 .51-1.91q1.52-11.38 4.8-26.04c.39-1.74.5-4.36.09-6.79-.68-3.95-.62-5.73 1.98-8.92a2.35 2.329-18.181 0 0 .46-.9q.21-.77.32-3.16c.15-3.22 1.98-4.86 5.13-5.44q4.59-.85 6.03 2.94c.44 1.17-.45 1.75-.37 2.2a.448.448-20.875 0 0 .67.3q8.93-5.4 21.05-4.37c4.32.37 10.17 2.47 10.78 7.21.93 7.28-6.22 14.24-12.19 17.5q-8.04 4.39-17.66 5.98m-6.42-6.15a.348.348-2.781 0 0 .43.39c7.26-1.76 21.38-5.23 24.74-13.31a1.768 1.761-62.754 0 0-.69-2.17q-.8-.51-2.81-.52-9.11-.04-18.51 3.96a2.811 2.8-7.11 0 0-1.68 2.15zm288.92-4.32c10.11 1.13 13.18 10.67 8.64 18.89-1.96 3.56-4.83 7.19-8.39 9.66q-9.26 6.39-16 8.69c-4.32 1.47-26.98 8.68-27.84 1.11-.26-2.25 2.99-5.19 3.36-7.32q5.84-33.64 7.11-41.94.1-.66.19-4.2a2.609 2.557 59.493 0 1 .28-1.13q1.84-3.67 6.76-3.71 3.36-.02 4.05 2.14a.554.541 69.302 0 0 .73.34q9.5-4.05 20.35-3.19c4.42.35 8.69 2.07 9.03 6.83.39 5.28-4.06 10.35-8.44 13.06a.419.415-57.722 0 0 .17.77m-24.801 1.358a.304.304-1.823 0 0 .371.347c6.371-1.432 18.764-4.259 21.819-11.272a1.546 1.54-61.796 0 0-.571-1.907q-.692-.458-2.449-.496-7.962-.168-16.237 3.191a2.458 2.448-6.151 0 0-1.5 1.854zm-4.169 30.362c9.6-1.97 18.34-4.94 25.2-11.49 3.16-3.01 6.83-10.57-.02-12.05-7.47-1.61-14.67.1-21.71 2.59a1.918 1.91 85.33 0 0-1.26 1.49l-3.15 18.56a.792.787-1.05 0 0 .94.9m59.02-26.12q5.96-.51 12.93-1.39c2.38-.31 3.83-2.25 6.86-1.18q4.7 1.66 2.71 6.94c-1.02 2.7-4.81 4.54-7.86 3.89q-1.52-.32-2.9-.16-6.67.73-13.81 1.41a.738.734 2.556 0 0-.66.6l-2.85 15.01a.899.896 2.923 0 0 .96 1.06q11.77-1.04 17.41-1.37 2.55-.15 4.54-.87c10.24-3.69 10.83 8.38 3.14 9.47q-2.89.4-22.33 1.5c-3.88.22-6.29 1.69-10.22 1.82q-6.94.23-5.77-6.05a1.271 1.122-30.128 0 1 .11-.33l2.23-4.64a3.701 3.447 64.007 0 0 .29-.95l1.97-12.6a2.257 2.115-49.471 0 0-.04-.88c-.71-2.85-1.34-4.88.29-7.25q1.31-1.92 1.38-2.06a5.486 5.437-26.924 0 0 .56-1.69l1.76-11.23a5.753 5.683-47.512 0 0-.08-2.12c-1.23-5.27-.74-10.1 4.37-12.5 1.75-.81 7.12-1.09 8.12 1.46.27.69.95.95 1.66.87q10.09-1.19 15.97-1.63a8.14 8.093-53.91 0 0 1.44-.23c3.9-.96 10.37-2.07 9.3 4.34-1.3 7.75-8.41 4.49-13.3 5.26q-6.46 1.02-15.78 1.91a1.39 1.372 1.303 0 0-1.23 1.16l-1.83 11.73a.612.609 1.83 0 0 .66.7m82.398 25.8a.495.493 2.114 0 0 .541.579l12.806-1.512a2.184 2.026-56.665 0 0 .49-.12c3.279-1.153 8.296-3.127 9.12 1.891q.855 5.288-4.232 7.213a3.011 2.835 32.634 0 1-1.07.201q-9.538.099-24.014 2.492-4.868.804-6.122-3.534a2.732 2.725-40.893 0 1 .138-1.89q1.657-3.571 1.886-4.781 4.815-24.97 8.066-44.5.398-2.38.257-3.62a1.681 1.6 59.281 0 1 .249-1.09c2.596-3.981 7.834-4.696 10.907-.81a2.32 2.317 38.356 0 1 .283 2.41l-1.198 2.6a3.136 3.085 62.908 0 0-.229.73zM312.36 915.47a.45.449 78.583 0 0 .66.44c6.63-3.64 18.17-6.79 25.67-3.85 10.82 4.24 2.38 17.67-2.94 22.21q-12.6 10.75-28.77 12.59a.818.813-88.564 0 0-.71.68q-.55 3.31-2.59 14.07c-.44 2.33-.3 4.94-.38 6.63-.22 4.7-5 4.75-8.68 4.36-4.85-.52-2.94-5.38-1.55-8.19a5.31 5.064 63.624 0 0 .46-1.48q3.17-20.7 4.04-24.12 1.38-5.43.41-9.22c-1.11-4.32 1.89-6.51 2.9-10.01.72-2.48-.06-5.46 3.26-7.22 2.75-1.45 8.61-1.15 8.22 3.11m-3.44 22.33c6.15-1.03 23.68-6.75 23.81-14.84a2.801 2.508 1.846 0 0-2.67-2.55q-10.55-.5-19.38 5.95a2.483 2.455 76.756 0 0-.99 1.62l-1.43 9.17a.572.571-.377 0 0 .66.65m43.72 22.46c-.43 2.77 3.15 3.88 5.43 3.93 5.57.11 11.83-1.43 16.02-5.61q2.06-2.06 3.12-6.38 2.05-8.33 2.45-11.29c1.07-8.04 2.41-12.89 4.02-21.65a7.678 7.49 49.483 0 0 .12-1.82l-.14-2.26a2.361 2.36 59.34 0 1 .35-1.37q1.86-3.03 6.81-2.88 3.62.11 4.29 2.99a1.486 1.459-37.962 0 1-.13.98q-1.06 2.08-1.77 8.82-.57 5.38-3.71 18.55-.55 2.32-1.7 11.05c-.19 1.42-.81 3.81-1.4 4.83-5.69 9.96-17.63 15.2-28.64 16.04-7.84.61-15.56-3.11-14.63-12.33 1.45-14.25 4.79-27.87 6.78-42.06.45-3.2-1.18-6.18 3.02-8.03q3.86-1.7 6.71 1.16 1.43 1.42.93 3.01c-1.63 5.18-1.58 10.7-2.87 16.74q-2.74 12.74-5.06 27.58m57.06-23.87a.558.547-88.723 0 0 .6.64c5.58-.62 10.93-.67 16.52-2.66 2.62-.93 6.17.47 6.51 3.79q.57 5.49-4.96 7.06a3.374 3.315 37.372 0 1-.96.12q-8.34-.19-19.21 1.23a.702.697-88.824 0 0-.59.57l-2.61 15.4a.524.518.768 0 0 .59.6q4.55-.65 14.7-1.01 5.04-.18 9.68-1.91c1.66-.62 4.35-.09 5.43 1.82 2.53 4.49-.92 8.11-5.46 8.49q-11.3.93-21.69 1.26c-4.84.15-8.77 3.47-13.67 1.57q-2.37-.93-2.49-3.68c-.1-2.1 1.04-3.55 1.84-5.38a10.792 10.742 63.302 0 0 .85-2.59l2.47-13.26a3.583 3.35-45.942 0 0 .02-1.17q-.49-3.46-.54-3.77c-.5-3.05 2.04-4.07 2.58-6.62q1.48-6.92 2.11-11.59a4.272 4.204-50.116 0 0-.15-1.84q-1.31-4.26-.64-6.23 2.72-8.06 11.24-5.61a1.257 1.145 72.444 0 1 .5.29l1.67 1.53a1.09 1.06 65.452 0 0 .72.28c5.32-.02 11.15-1.07 15.45-1.49 2.78-.27 6.02-1.51 9.22-.98a2.149 2.042 66.437 0 1 .9.38c3.9 2.91.83 8.64-2.95 9.9-1.73.58-3.6.08-5.45-.12a3.764 3.189 40.269 0 0-.65 0l-18.01 1.98a2.084 2.084 1.28 0 0-1.82 1.74zm410.21 26.54a.496.493 2.168 0 0 .54.58l12.81-1.5a2.185 2.027-56.612 0 0 .49-.12c3.28-1.15 8.3-3.12 9.12 1.9q.85 5.29-4.24 7.21a3.012 2.836 32.688 0 1-1.07.2q-9.54.09-24.02 2.47-4.87.8-6.12-3.54a2.732 2.725-40.839 0 1 .14-1.89q1.66-3.57 1.89-4.78 4.84-24.97 8.11-44.5.4-2.38.26-3.62a1.681 1.6 59.334 0 1 .25-1.09c2.6-3.98 7.84-4.69 10.91-.8a2.32 2.317 38.41 0 1 .28 2.41l-1.2 2.6a3.137 3.085 62.961 0 0-.23.73z" fill="#fff"/><path d="M561.18 919.46c7.44-4.77 13.7-1.52 13.87 7.33q.4 20.6-13.05 33.4c-4.1 3.89-15.77 8.06-18.26-.43-3.87-13.21 6.16-33.08 17.44-40.3m366.975 7.298q.43 20.518-12.947 33.288c-4.078 3.881-15.695 8.052-18.188-.401-3.875-13.151 6.085-32.958 17.309-40.167 7.403-4.762 13.644-1.535 13.826 7.28m-205.766 6.03l1.433-8.283a2.458 2.448-6.151 0 1 1.5-1.854q8.275-3.359 16.237-3.191 1.757.038 2.449.496a1.546 1.54-61.796 0 1 .571 1.907c-3.055 7.013-15.448 9.84-21.819 11.272a.304.304-1.823 0 1-.371-.347M308.26 937.15l1.43-9.17a2.483 2.455 76.756 0 1 .99-1.62q8.83-6.45 19.38-5.95a2.801 2.508 1.846 0 1 2.67 2.55c-.13 8.09-17.66 13.81-23.81 14.84a.572.571-.377 0 1-.66-.65m150.01-1.4l1.48-9.5a2.811 2.8-7.11 0 1 1.68-2.15q9.4-4 18.51-3.96 2.01.01 2.81.52a1.768 1.761-62.754 0 1 .69 2.17c-3.36 8.08-17.48 11.55-24.74 13.31a.348.348-2.781 0 1-.43-.39m213.92 6.55a.311.309-75.922 0 1-.28-.47l8.63-13.91a.352.35 54.578 0 1 .64.11l2.78 12.37a1.075 1.075-7.937 0 1-.99 1.31zm46.03 20.85a.792.787-1.05 0 1-.94-.9l3.15-18.56a1.918 1.91 85.33 0 1 1.26-1.49c7.04-2.49 14.24-4.2 21.71-2.59 6.85 1.48 3.18 9.04.02 12.05-6.86 6.55-15.6 9.52-25.2 11.49" fill="#272a83"/><path d="M1034.858 1019.624l-38.949 55.31a1.57 1.57-48.165 0 1-1.284.666h-752.99a1.57 1.57-73.841 0 1-1.284-.666l-38.949-55.31a1.57 1.57 15.772 0 1 1.284-2.474h830.888a1.57 1.57 61.115 0 1 1.284 2.474M928.73 1151.94a.382.381-67.654 0 1 .27.65c-.95.95-2.49 1.9-3.7 3.19q-18.06 19.41-36.84 35.89c-3.17 2.78-5.6 5.38-8.46 7.84-14.96 12.88-28.36 24.54-42.58 35.35-10.41 7.91-19.26 15.16-28.65 21.72q-26.03 18.2-34.77 23.67-21.23 13.29-23.52 14.7-25.27 15.56-48.3 27.72-3.32 1.75-28.65 14.48c-18.18 9.14-37.01 17.29-52.65 23.99q-2.74 1.17-5.83-.19-37.31-16.39-62.78-29.21-48.96-24.64-92.24-53.27-9.91-6.55-32.69-22.8-19.07-13.6-31.96-23.9-17.46-13.95-40.76-34.17-13.29-11.54-23.79-21.93-10.23-10.13-23.4-23.2a.311.31-22.482 0 1 .22-.53z" fill="#ff4d00"/></g></svg>