<svg xmlns="http://www.w3.org/2000/svg" width="2000" height="1893.893"><defs><clipPath id="a"><path d="M0 1420.424h1500V0H0z"/></clipPath></defs><g clip-path="url(#a)" transform="matrix(1.33333 0 0 -1.33333 0 1893.893)" fill="#2e2a25"><path d="M1210.763 657.237s-125.463 71.791-252.934 18.112c-127.478-53.671-226.776-222.743-298.568-268.361-69.774-44.285-133.505-36.233-133.505-36.233s171.747-78.501 285.14-12.746c132.172 76.485 152.293 164.372 246.223 232.137 97.956 69.775 153.644 67.091 153.644 67.091m-195.909 113.386s-125.462 71.791-252.934 18.112c-127.479-53.671-226.776-222.742-298.559-268.362-69.783-44.285-133.514-36.233-133.514-36.233s165.713-84.536 279.097-18.787c132.172 76.484 158.337 170.414 251.599 238.18 98.623 69.774 154.311 67.09 154.311 67.09M818.945 884.008S693.483 955.8 566.012 902.121c-127.48-53.671-226.777-222.743-298.56-268.37-69.783-44.277-133.514-36.225-133.514-36.225s165.713-84.536 279.097-18.788c132.172 76.484 158.336 170.414 251.599 238.18 97.957 69.774 154.311 67.09 154.311 67.09"/><path d="M1170.506 978.608c-88.563 48.978-136.865 74.476-207.981 112.042-46.294 26.84-69.783 37.576-99.298 77.16-35.558 65.073-8.052 118.077-8.052 118.077 77.151 148.275 364.983-103.316 364.983-103.316 25.49-15.437 28.849-3.359 17.438 20.797-15.429 32.199-30.858 57.697-30.858 57.697 59.706 75.817-50.994 114.726-50.994 114.726-294.534 109.358-375.711-34.217-375.711-34.217-30.191-35.558-53.679-130.154-20.13-209.322 48.978-114.06 175.783-185.852 358.274-275.08 293.192-142.908 55.013-346.196 55.013-346.196 168.405 71.116 203.288 161.695 195.911 238.846-12.752 137.54-198.595 228.786-198.595 228.786M23.769 512.593l7.155-14.128c-12.877-6.513-15.1-18.088-6.916-34.249 7.87-15.544 17.643-20.451 28.947-14.729 11.452 5.804 13.296 15.404 6.026 36.381-9.088 26.148-5.384 39.461 12.976 48.756 20.409 10.332 37.674 2.708 49.834-21.299 11.921-23.546 7.599-40.72-13.28-51.283l-7.155 14.119c12.408 6.283 14.795 16.36 7.328 31.113-7.394 14.597-17.413 19.587-28.239 14.103-10.678-5.409-12.358-14.539-5.574-33.78 9.731-27.407 5.878-41.593-13.593-51.44-20.87-10.571-37.583-3.259-50.22 21.695-12.877 25.423-8.793 43.856 12.711 54.741m209.353-169.435l-114.883-46.401-9.756 12.925 58.52 76.37-89.583-35.229-9.649 12.777 76.081 97.791 9.863-13.065-59.968-75.916 90.183 35.903 9.328-12.357-59.392-77.258 89.722 37.098zm2.406-120.163l-35.789 32.282-28.593-15.421-12.143 10.958 112.495 59.59 11.888-10.719-47.726-118.027-12.539 11.312zm-22.336 39.576l28.214-25.448 22.295 53.078zm198.346-53.733L348.185 107.4l-13.123 8.2 1.523 112.676-51.052-81.745-12.975 8.101L335.91 256.07l15.956-9.969-1.474-106.28 48.171 77.119zm-5.932-92.686l14.638-6.035c-5.499-13.329.371-23.546 17.116-30.453 16.096-6.636 26.708-3.969 31.533 7.739 4.89 11.863.016 20.343-19.166 31.49-23.958 13.864-29.837 26.37-21.991 45.397 8.711 21.142 26.766 26.633 51.645 16.376 24.387-10.053 32.323-25.885 23.407-47.504l-14.639 6.034c5.294 12.844.528 22.04-14.753 28.338-15.123 6.232-25.967 3.474-30.585-7.747-4.561-11.057.123-19.076 17.816-29.219 25.259-14.408 31.582-27.671 23.274-47.834-8.916-21.628-26.345-26.995-52.205-16.334-26.337 10.859-35.278 27.474-26.09 49.752M599.21 32.661l-3.433-14.013-77.744 19.06 28.478 116.183 76.031-18.639-3.433-14.004-60.652 14.868-8.752-35.715 52.107-12.777-3.434-14.004-52.114 12.777-9.419-38.448zm30.25-20.07l16.293-1.441 13.543 29.548 48.015-4.215 8.192-31.45 16.82-1.482-32.981 122.976-15.956 1.399zm36.184 42.029l23.686 52.477 14.169-55.803zm166.062-2.28l-4.224 28.889c-4.552 31.154 7.608 48.928 37.37 53.276 27.844 4.066 44.104-7.418 49.159-34.769l-15.322-2.239c-3.532 18.146-13.658 25.383-31.754 22.739-19.841-2.897-27.07-14.267-23.736-37.064l4.116-28.198c3.335-22.797 13.511-31.622 33.353-28.725 18.096 2.643 25.727 12.474 23.957 30.701l15.313 2.24c2.948-27.482-9.336-43.141-37.187-47.208-29.763-4.347-46.5 9.204-51.045 40.358m109.596 95.54l15.28 4.141 31.261-115.467-15.28-4.142zm127.605 28.837l-32.933-12.909 38.341-97.782-14.753-5.781-38.333 97.784-32.915-12.902-5.327 13.593 80.584 31.59zm86.493-14.337l25.242-44.326-13.757-7.83-25.234 44.326-70.778 38.638 16.053 9.138 53.968-29.383 2.124 61.319 15.288 8.702zm171.273 106.723l-34.933-33.212 13.181-29.696-11.855-11.271-50.797 116.751 11.599 11.032 114.035-56.634-12.234-11.641zm-41.182-19.24l27.539 26.18-51.216 26.304zm37.023 126.721l29.17-22.369 31.68 41.312 11.444-8.767-31.681-41.314 42.845-32.848-9.625-12.564-94.909 72.763 46.656 60.85 11.443-8.769zm103.393 41.07l-25.604 14.038c-27.614 15.132-34.481 35.55-20.023 61.92 13.534 24.683 32.495 30.741 57.375 18.31l-7.442-13.577c-16.622 8.102-28.494 4.38-37.28-11.666-9.648-17.585-4.915-30.198 15.289-41.271l24.988-13.7c20.212-11.074 33.384-8.266 43.016 9.32 8.801 16.046 5.558 28.05-10.068 37.616l7.442 13.576c23.711-14.202 28.807-33.442 15.281-58.125-14.457-26.378-35.353-31.573-62.974-16.441"/></g></svg>